  0
SECTION
  2
BLOCKS
  0
ENDSEC
  0
SECTION
  2
ENTITIES
  0
LINE
  8
0
 10
-94.216
 20
-155.459
 11
-93.4407
 21
-155.336
  0
LINE
  8
0
 10
-93.4407
 20
-155.336
 11
-92.6824
 21
-155.133
  0
LINE
  8
0
 10
-92.6824
 20
-155.133
 11
-91.9495
 21
-154.852
  0
LINE
  8
0
 10
-91.9495
 20
-154.852
 11
-91.25
 21
-154.495
  0
LINE
  8
0
 10
-91.25
 20
-154.495
 11
-90.5916
 21
-154.068
  0
LINE
  8
0
 10
-90.5916
 20
-154.068
 11
-89.9815
 21
-153.574
  0
LINE
  8
0
 10
-89.9815
 20
-153.574
 11
-89.4264
 21
-153.018
  0
LINE
  8
0
 10
-89.4264
 20
-153.018
 11
-88.9324
 21
-152.408
  0
LINE
  8
0
 10
-88.9324
 20
-152.408
 11
-88.5048
 21
-151.75
  0
LINE
  8
0
 10
-88.5048
 20
-151.75
 11
-88.1484
 21
-151.051
  0
LINE
  8
0
 10
-88.1484
 20
-151.051
 11
-87.8671
 21
-150.318
  0
LINE
  8
0
 10
-87.8671
 20
-150.318
 11
-87.6639
 21
-149.559
  0
LINE
  8
0
 10
-87.6639
 20
-149.559
 11
-87.5411
 21
-148.784
  0
LINE
  8
0
 10
-87.5411
 20
-148.784
 11
-87.4589
 21
-147.216
  0
LINE
  8
0
 10
-87.4589
 20
-147.216
 11
-87.3361
 21
-146.441
  0
LINE
  8
0
 10
-87.3361
 20
-146.441
 11
-87.1329
 21
-145.682
  0
LINE
  8
0
 10
-87.1329
 20
-145.682
 11
-86.8516
 21
-144.949
  0
LINE
  8
0
 10
-86.8516
 20
-144.949
 11
-86.4952
 21
-144.25
  0
LINE
  8
0
 10
-86.4952
 20
-144.25
 11
-86.0676
 21
-143.592
  0
LINE
  8
0
 10
-86.0676
 20
-143.592
 11
-85.5736
 21
-142.982
  0
LINE
  8
0
 10
-85.5736
 20
-142.982
 11
-85.0185
 21
-142.426
  0
LINE
  8
0
 10
-85.0185
 20
-142.426
 11
-84.4084
 21
-141.932
  0
LINE
  8
0
 10
-84.4084
 20
-141.932
 11
-83.75
 21
-141.505
  0
LINE
  8
0
 10
-83.75
 20
-141.505
 11
-83.0505
 21
-141.148
  0
LINE
  8
0
 10
-83.0505
 20
-141.148
 11
-82.3176
 21
-140.867
  0
LINE
  8
0
 10
-82.3176
 20
-140.867
 11
-81.5593
 21
-140.664
  0
LINE
  8
0
 10
-81.5593
 20
-140.664
 11
-80.784
 21
-140.541
  0
LINE
  8
0
 10
-80.784
 20
-140.541
 11
-80
 21
-140.5
  0
LINE
  8
0
 10
-80
 20
-140.5
 11
70
 21
-140.5
  0
LINE
  8
0
 10
70
 20
-140.5
 11
70.784
 21
-140.541
  0
LINE
  8
0
 10
70.784
 20
-140.541
 11
71.5593
 21
-140.664
  0
LINE
  8
0
 10
71.5593
 20
-140.664
 11
72.3176
 21
-140.867
  0
LINE
  8
0
 10
72.3176
 20
-140.867
 11
73.0505
 21
-141.148
  0
LINE
  8
0
 10
73.0505
 20
-141.148
 11
73.75
 21
-141.505
  0
LINE
  8
0
 10
73.75
 20
-141.505
 11
74.4084
 21
-141.932
  0
LINE
  8
0
 10
74.4084
 20
-141.932
 11
75.0185
 21
-142.426
  0
LINE
  8
0
 10
75.0185
 20
-142.426
 11
75.5736
 21
-142.982
  0
LINE
  8
0
 10
75.5736
 20
-142.982
 11
76.0676
 21
-143.592
  0
LINE
  8
0
 10
76.0676
 20
-143.592
 11
76.4952
 21
-144.25
  0
LINE
  8
0
 10
76.4952
 20
-144.25
 11
76.8516
 21
-144.949
  0
LINE
  8
0
 10
76.8516
 20
-144.949
 11
77.1329
 21
-145.682
  0
LINE
  8
0
 10
77.1329
 20
-145.682
 11
77.3361
 21
-146.441
  0
LINE
  8
0
 10
77.3361
 20
-146.441
 11
77.4589
 21
-147.216
  0
LINE
  8
0
 10
77.4589
 20
-147.216
 11
77.5411
 21
-148.784
  0
LINE
  8
0
 10
77.5411
 20
-148.784
 11
77.6639
 21
-149.559
  0
LINE
  8
0
 10
77.6639
 20
-149.559
 11
77.8671
 21
-150.318
  0
LINE
  8
0
 10
77.8671
 20
-150.318
 11
78.1484
 21
-151.051
  0
LINE
  8
0
 10
78.1484
 20
-151.051
 11
78.5048
 21
-151.75
  0
LINE
  8
0
 10
78.5048
 20
-151.75
 11
78.9324
 21
-152.408
  0
LINE
  8
0
 10
78.9324
 20
-152.408
 11
79.4264
 21
-153.018
  0
LINE
  8
0
 10
79.4264
 20
-153.018
 11
79.9815
 21
-153.574
  0
LINE
  8
0
 10
79.9815
 20
-153.574
 11
80.5916
 21
-154.068
  0
LINE
  8
0
 10
80.5916
 20
-154.068
 11
81.25
 21
-154.495
  0
LINE
  8
0
 10
81.25
 20
-154.495
 11
81.9495
 21
-154.852
  0
LINE
  8
0
 10
81.9495
 20
-154.852
 11
82.6824
 21
-155.133
  0
LINE
  8
0
 10
82.6824
 20
-155.133
 11
83.4407
 21
-155.336
  0
LINE
  8
0
 10
83.4407
 20
-155.336
 11
84.216
 21
-155.459
  0
LINE
  8
0
 10
84.216
 20
-155.459
 11
85
 21
-155.5
  0
LINE
  8
0
 10
85
 20
-155.5
 11
120
 21
-155.5
  0
LINE
  8
0
 10
120
 20
-155.5
 11
120.784
 21
-155.459
  0
LINE
  8
0
 10
120.784
 20
-155.459
 11
121.559
 21
-155.336
  0
LINE
  8
0
 10
121.559
 20
-155.336
 11
122.318
 21
-155.133
  0
LINE
  8
0
 10
122.318
 20
-155.133
 11
123.051
 21
-154.852
  0
LINE
  8
0
 10
123.051
 20
-154.852
 11
123.75
 21
-154.495
  0
LINE
  8
0
 10
123.75
 20
-154.495
 11
124.408
 21
-154.068
  0
LINE
  8
0
 10
124.408
 20
-154.068
 11
125.018
 21
-153.574
  0
LINE
  8
0
 10
125.018
 20
-153.574
 11
125.574
 21
-153.018
  0
LINE
  8
0
 10
125.574
 20
-153.018
 11
126.068
 21
-152.408
  0
LINE
  8
0
 10
126.068
 20
-152.408
 11
126.495
 21
-151.75
  0
LINE
  8
0
 10
126.495
 20
-151.75
 11
126.852
 21
-151.051
  0
LINE
  8
0
 10
126.852
 20
-151.051
 11
127.133
 21
-150.318
  0
LINE
  8
0
 10
127.133
 20
-150.318
 11
127.336
 21
-149.559
  0
LINE
  8
0
 10
127.336
 20
-149.559
 11
127.459
 21
-148.784
  0
LINE
  8
0
 10
127.459
 20
-148.784
 11
127.5
 21
-148
  0
LINE
  8
0
 10
127.5
 20
-148
 11
127.5
 21
133
  0
LINE
  8
0
 10
127.5
 20
133
 11
127.459
 21
133.784
  0
LINE
  8
0
 10
127.459
 20
133.784
 11
127.336
 21
134.559
  0
LINE
  8
0
 10
127.336
 20
134.559
 11
127.133
 21
135.318
  0
LINE
  8
0
 10
127.133
 20
135.318
 11
126.852
 21
136.051
  0
LINE
  8
0
 10
126.852
 20
136.051
 11
126.495
 21
136.75
  0
LINE
  8
0
 10
126.495
 20
136.75
 11
126.068
 21
137.408
  0
LINE
  8
0
 10
126.068
 20
137.408
 11
125.574
 21
138.018
  0
LINE
  8
0
 10
125.574
 20
138.018
 11
125.018
 21
138.574
  0
LINE
  8
0
 10
125.018
 20
138.574
 11
124.408
 21
139.068
  0
LINE
  8
0
 10
124.408
 20
139.068
 11
123.75
 21
139.495
  0
LINE
  8
0
 10
123.75
 20
139.495
 11
123.051
 21
139.852
  0
LINE
  8
0
 10
123.051
 20
139.852
 11
122.318
 21
140.133
  0
LINE
  8
0
 10
122.318
 20
140.133
 11
121.559
 21
140.336
  0
LINE
  8
0
 10
121.559
 20
140.336
 11
120.784
 21
140.459
  0
LINE
  8
0
 10
120.784
 20
140.459
 11
120
 21
140.5
  0
LINE
  8
0
 10
120
 20
140.5
 11
-130
 21
140.5
  0
LINE
  8
0
 10
-130
 20
140.5
 11
-130.784
 21
140.459
  0
LINE
  8
0
 10
-130.784
 20
140.459
 11
-131.559
 21
140.336
  0
LINE
  8
0
 10
-131.559
 20
140.336
 11
-132.318
 21
140.133
  0
LINE
  8
0
 10
-132.318
 20
140.133
 11
-133.051
 21
139.852
  0
LINE
  8
0
 10
-133.051
 20
139.852
 11
-133.75
 21
139.495
  0
LINE
  8
0
 10
-133.75
 20
139.495
 11
-134.408
 21
139.068
  0
LINE
  8
0
 10
-134.408
 20
139.068
 11
-135.018
 21
138.574
  0
LINE
  8
0
 10
-135.018
 20
138.574
 11
-135.574
 21
138.018
  0
LINE
  8
0
 10
-135.574
 20
138.018
 11
-136.068
 21
137.408
  0
LINE
  8
0
 10
-136.068
 20
137.408
 11
-136.495
 21
136.75
  0
LINE
  8
0
 10
-136.495
 20
136.75
 11
-136.852
 21
136.051
  0
LINE
  8
0
 10
-136.852
 20
136.051
 11
-137.133
 21
135.318
  0
LINE
  8
0
 10
-137.133
 20
135.318
 11
-137.336
 21
134.559
  0
LINE
  8
0
 10
-137.336
 20
134.559
 11
-137.459
 21
133.784
  0
LINE
  8
0
 10
-137.459
 20
133.784
 11
-137.5
 21
133
  0
LINE
  8
0
 10
-137.5
 20
133
 11
-137.5
 21
-148
  0
LINE
  8
0
 10
-137.5
 20
-148
 11
-137.459
 21
-148.784
  0
LINE
  8
0
 10
-137.459
 20
-148.784
 11
-137.336
 21
-149.559
  0
LINE
  8
0
 10
-137.336
 20
-149.559
 11
-137.133
 21
-150.318
  0
LINE
  8
0
 10
-137.133
 20
-150.318
 11
-136.852
 21
-151.051
  0
LINE
  8
0
 10
-136.852
 20
-151.051
 11
-136.495
 21
-151.75
  0
LINE
  8
0
 10
-136.495
 20
-151.75
 11
-136.068
 21
-152.408
  0
LINE
  8
0
 10
-136.068
 20
-152.408
 11
-135.574
 21
-153.018
  0
LINE
  8
0
 10
-135.574
 20
-153.018
 11
-135.018
 21
-153.574
  0
LINE
  8
0
 10
-135.018
 20
-153.574
 11
-134.408
 21
-154.068
  0
LINE
  8
0
 10
-134.408
 20
-154.068
 11
-133.75
 21
-154.495
  0
LINE
  8
0
 10
-133.75
 20
-154.495
 11
-133.051
 21
-154.852
  0
LINE
  8
0
 10
-133.051
 20
-154.852
 11
-132.318
 21
-155.133
  0
LINE
  8
0
 10
-132.318
 20
-155.133
 11
-131.559
 21
-155.336
  0
LINE
  8
0
 10
-131.559
 20
-155.336
 11
-130.784
 21
-155.459
  0
LINE
  8
0
 10
-130.784
 20
-155.459
 11
-130
 21
-155.5
  0
LINE
  8
0
 10
-130
 20
-155.5
 11
-95
 21
-155.5
  0
LINE
  8
0
 10
-95
 20
-155.5
 11
-94.216
 21
-155.459
  0
ENDSEC
  0
SECTION
  2
OBJECTS
  0
DICTIONARY
  0
ENDSEC
  0
EOF
