  0
SECTION
  2
BLOCKS
  0
ENDSEC
  0
SECTION
  2
ENTITIES
  0
LINE
  8
0
 10
-2.73868
 20
-177.486
 11
-2.48021
 21
-177.445
  0
LINE
  8
0
 10
-2.48021
 20
-177.445
 11
-2.22745
 21
-177.378
  0
LINE
  8
0
 10
-2.22745
 20
-177.378
 11
-1.98315
 21
-177.284
  0
LINE
  8
0
 10
-1.98315
 20
-177.284
 11
-1.75
 21
-177.165
  0
LINE
  8
0
 10
-1.75
 20
-177.165
 11
-1.53053
 21
-177.023
  0
LINE
  8
0
 10
-1.53053
 20
-177.023
 11
-1.32716
 21
-176.858
  0
LINE
  8
0
 10
-1.32716
 20
-176.858
 11
-1.14214
 21
-176.673
  0
LINE
  8
0
 10
-1.14214
 20
-176.673
 11
-0.977448
 21
-176.469
  0
LINE
  8
0
 10
-0.977448
 20
-176.469
 11
-0.83493
 21
-176.25
  0
LINE
  8
0
 10
-0.83493
 20
-176.25
 11
-0.716125
 21
-176.017
  0
LINE
  8
0
 10
-0.716125
 20
-176.017
 11
-0.622345
 21
-175.773
  0
LINE
  8
0
 10
-0.622345
 20
-175.773
 11
-0.554626
 21
-175.52
  0
LINE
  8
0
 10
-0.554626
 20
-175.52
 11
-0.513687
 21
-175.261
  0
LINE
  8
0
 10
-0.513687
 20
-175.261
 11
-0.5
 21
-175
  0
LINE
  8
0
 10
-0.5
 20
-175
 11
-0.5
 21
175
  0
LINE
  8
0
 10
-0.5
 20
175
 11
-0.513687
 21
175.261
  0
LINE
  8
0
 10
-0.513687
 20
175.261
 11
-0.554626
 21
175.52
  0
LINE
  8
0
 10
-0.554626
 20
175.52
 11
-0.622345
 21
175.773
  0
LINE
  8
0
 10
-0.622345
 20
175.773
 11
-0.716125
 21
176.017
  0
LINE
  8
0
 10
-0.716125
 20
176.017
 11
-0.83493
 21
176.25
  0
LINE
  8
0
 10
-0.83493
 20
176.25
 11
-0.977448
 21
176.469
  0
LINE
  8
0
 10
-0.977448
 20
176.469
 11
-1.14214
 21
176.673
  0
LINE
  8
0
 10
-1.14214
 20
176.673
 11
-1.32716
 21
176.858
  0
LINE
  8
0
 10
-1.32716
 20
176.858
 11
-1.53053
 21
177.023
  0
LINE
  8
0
 10
-1.53053
 20
177.023
 11
-1.75
 21
177.165
  0
LINE
  8
0
 10
-1.75
 20
177.165
 11
-1.98315
 21
177.284
  0
LINE
  8
0
 10
-1.98315
 20
177.284
 11
-2.22745
 21
177.378
  0
LINE
  8
0
 10
-2.22745
 20
177.378
 11
-2.48021
 21
177.445
  0
LINE
  8
0
 10
-2.48021
 20
177.445
 11
-2.73868
 21
177.486
  0
LINE
  8
0
 10
-2.73868
 20
177.486
 11
-3
 21
177.5
  0
LINE
  8
0
 10
-3
 20
177.5
 11
-175
 21
177.5
  0
LINE
  8
0
 10
-175
 20
177.5
 11
-177.091
 21
177.39
  0
LINE
  8
0
 10
-177.091
 20
177.39
 11
-179.158
 21
177.063
  0
LINE
  8
0
 10
-179.158
 20
177.063
 11
-181.18
 21
176.521
  0
LINE
  8
0
 10
-181.18
 20
176.521
 11
-183.135
 21
175.771
  0
LINE
  8
0
 10
-183.135
 20
175.771
 11
-185
 21
174.82
  0
LINE
  8
0
 10
-185
 20
174.82
 11
-186.756
 21
173.68
  0
LINE
  8
0
 10
-186.756
 20
173.68
 11
-188.383
 21
172.363
  0
LINE
  8
0
 10
-188.383
 20
172.363
 11
-189.863
 21
170.883
  0
LINE
  8
0
 10
-189.863
 20
170.883
 11
-191.18
 21
169.256
  0
LINE
  8
0
 10
-191.18
 20
169.256
 11
-192.32
 21
167.5
  0
LINE
  8
0
 10
-192.32
 20
167.5
 11
-193.271
 21
165.635
  0
LINE
  8
0
 10
-193.271
 20
165.635
 11
-194.021
 21
163.68
  0
LINE
  8
0
 10
-194.021
 20
163.68
 11
-194.563
 21
161.658
  0
LINE
  8
0
 10
-194.563
 20
161.658
 11
-194.89
 21
159.591
  0
LINE
  8
0
 10
-194.89
 20
159.591
 11
-195
 21
157.5
  0
LINE
  8
0
 10
-195
 20
157.5
 11
-195
 21
-157.5
  0
LINE
  8
0
 10
-195
 20
-157.5
 11
-194.89
 21
-159.591
  0
LINE
  8
0
 10
-194.89
 20
-159.591
 11
-194.563
 21
-161.658
  0
LINE
  8
0
 10
-194.563
 20
-161.658
 11
-194.021
 21
-163.68
  0
LINE
  8
0
 10
-194.021
 20
-163.68
 11
-193.271
 21
-165.635
  0
LINE
  8
0
 10
-193.271
 20
-165.635
 11
-192.32
 21
-167.5
  0
LINE
  8
0
 10
-192.32
 20
-167.5
 11
-191.18
 21
-169.256
  0
LINE
  8
0
 10
-191.18
 20
-169.256
 11
-189.863
 21
-170.883
  0
LINE
  8
0
 10
-189.863
 20
-170.883
 11
-188.383
 21
-172.363
  0
LINE
  8
0
 10
-188.383
 20
-172.363
 11
-186.756
 21
-173.68
  0
LINE
  8
0
 10
-186.756
 20
-173.68
 11
-185
 21
-174.82
  0
LINE
  8
0
 10
-185
 20
-174.82
 11
-183.135
 21
-175.771
  0
LINE
  8
0
 10
-183.135
 20
-175.771
 11
-181.18
 21
-176.521
  0
LINE
  8
0
 10
-181.18
 20
-176.521
 11
-179.158
 21
-177.063
  0
LINE
  8
0
 10
-179.158
 20
-177.063
 11
-177.091
 21
-177.39
  0
LINE
  8
0
 10
-177.091
 20
-177.39
 11
-175
 21
-177.5
  0
LINE
  8
0
 10
-175
 20
-177.5
 11
-3
 21
-177.5
  0
LINE
  8
0
 10
-3
 20
-177.5
 11
-2.73868
 21
-177.486
  0
LINE
  8
0
 10
-40.1239
 20
156.005
 11
-40.3682
 21
156.046
  0
LINE
  8
0
 10
-40.3682
 20
156.046
 11
-40.6025
 21
156.126
  0
LINE
  8
0
 10
-40.6025
 20
156.126
 11
-40.8204
 21
156.244
  0
LINE
  8
0
 10
-40.8204
 20
156.244
 11
-41.0159
 21
156.396
  0
LINE
  8
0
 10
-41.0159
 20
156.396
 11
-41.1837
 21
156.579
  0
LINE
  8
0
 10
-41.1837
 20
156.579
 11
-41.3192
 21
156.786
  0
LINE
  8
0
 10
-41.3192
 20
156.786
 11
-41.4187
 21
157.013
  0
LINE
  8
0
 10
-41.4187
 20
157.013
 11
-41.4795
 21
157.253
  0
LINE
  8
0
 10
-41.4795
 20
157.253
 11
-41.5
 21
157.5
  0
LINE
  8
0
 10
-41.5
 20
157.5
 11
-41.4795
 21
157.747
  0
LINE
  8
0
 10
-41.4795
 20
157.747
 11
-41.4187
 21
157.987
  0
LINE
  8
0
 10
-41.4187
 20
157.987
 11
-41.3192
 21
158.214
  0
LINE
  8
0
 10
-41.3192
 20
158.214
 11
-41.1837
 21
158.421
  0
LINE
  8
0
 10
-41.1837
 20
158.421
 11
-41.0159
 21
158.604
  0
LINE
  8
0
 10
-41.0159
 20
158.604
 11
-40.8204
 21
158.756
  0
LINE
  8
0
 10
-40.8204
 20
158.756
 11
-40.6025
 21
158.874
  0
LINE
  8
0
 10
-40.6025
 20
158.874
 11
-40.3682
 21
158.954
  0
LINE
  8
0
 10
-40.3682
 20
158.954
 11
-40.1239
 21
158.995
  0
LINE
  8
0
 10
-40.1239
 20
158.995
 11
-39.8761
 21
158.995
  0
LINE
  8
0
 10
-39.8761
 20
158.995
 11
-39.6318
 21
158.954
  0
LINE
  8
0
 10
-39.6318
 20
158.954
 11
-39.3974
 21
158.874
  0
LINE
  8
0
 10
-39.3974
 20
158.874
 11
-39.1796
 21
158.756
  0
LINE
  8
0
 10
-39.1796
 20
158.756
 11
-38.9841
 21
158.604
  0
LINE
  8
0
 10
-38.9841
 20
158.604
 11
-38.8163
 21
158.421
  0
LINE
  8
0
 10
-38.8163
 20
158.421
 11
-38.6808
 21
158.214
  0
LINE
  8
0
 10
-38.6808
 20
158.214
 11
-38.5813
 21
157.987
  0
LINE
  8
0
 10
-38.5813
 20
157.987
 11
-38.5204
 21
157.747
  0
LINE
  8
0
 10
-38.5204
 20
157.747
 11
-38.5
 21
157.5
  0
LINE
  8
0
 10
-38.5
 20
157.5
 11
-38.5204
 21
157.253
  0
LINE
  8
0
 10
-38.5204
 20
157.253
 11
-38.5813
 21
157.013
  0
LINE
  8
0
 10
-38.5813
 20
157.013
 11
-38.6808
 21
156.786
  0
LINE
  8
0
 10
-38.6808
 20
156.786
 11
-38.8163
 21
156.579
  0
LINE
  8
0
 10
-38.8163
 20
156.579
 11
-38.9841
 21
156.396
  0
LINE
  8
0
 10
-38.9841
 20
156.396
 11
-39.1796
 21
156.244
  0
LINE
  8
0
 10
-39.1796
 20
156.244
 11
-39.3974
 21
156.126
  0
LINE
  8
0
 10
-39.3974
 20
156.126
 11
-39.6318
 21
156.046
  0
LINE
  8
0
 10
-39.6318
 20
156.046
 11
-39.8761
 21
156.005
  0
LINE
  8
0
 10
-39.8761
 20
156.005
 11
-40.1239
 21
156.005
  0
LINE
  8
0
 10
-20.1239
 20
156.005
 11
-20.3682
 21
156.046
  0
LINE
  8
0
 10
-20.3682
 20
156.046
 11
-20.6025
 21
156.126
  0
LINE
  8
0
 10
-20.6025
 20
156.126
 11
-20.8204
 21
156.244
  0
LINE
  8
0
 10
-20.8204
 20
156.244
 11
-21.0159
 21
156.396
  0
LINE
  8
0
 10
-21.0159
 20
156.396
 11
-21.1837
 21
156.579
  0
LINE
  8
0
 10
-21.1837
 20
156.579
 11
-21.3192
 21
156.786
  0
LINE
  8
0
 10
-21.3192
 20
156.786
 11
-21.4187
 21
157.013
  0
LINE
  8
0
 10
-21.4187
 20
157.013
 11
-21.4795
 21
157.253
  0
LINE
  8
0
 10
-21.4795
 20
157.253
 11
-21.5
 21
157.5
  0
LINE
  8
0
 10
-21.5
 20
157.5
 11
-21.4795
 21
157.747
  0
LINE
  8
0
 10
-21.4795
 20
157.747
 11
-21.4187
 21
157.987
  0
LINE
  8
0
 10
-21.4187
 20
157.987
 11
-21.3192
 21
158.214
  0
LINE
  8
0
 10
-21.3192
 20
158.214
 11
-21.1837
 21
158.421
  0
LINE
  8
0
 10
-21.1837
 20
158.421
 11
-21.0159
 21
158.604
  0
LINE
  8
0
 10
-21.0159
 20
158.604
 11
-20.8204
 21
158.756
  0
LINE
  8
0
 10
-20.8204
 20
158.756
 11
-20.6025
 21
158.874
  0
LINE
  8
0
 10
-20.6025
 20
158.874
 11
-20.3682
 21
158.954
  0
LINE
  8
0
 10
-20.3682
 20
158.954
 11
-20.1239
 21
158.995
  0
LINE
  8
0
 10
-20.1239
 20
158.995
 11
-19.8761
 21
158.995
  0
LINE
  8
0
 10
-19.8761
 20
158.995
 11
-19.6318
 21
158.954
  0
LINE
  8
0
 10
-19.6318
 20
158.954
 11
-19.3974
 21
158.874
  0
LINE
  8
0
 10
-19.3974
 20
158.874
 11
-19.1796
 21
158.756
  0
LINE
  8
0
 10
-19.1796
 20
158.756
 11
-18.9841
 21
158.604
  0
LINE
  8
0
 10
-18.9841
 20
158.604
 11
-18.8163
 21
158.421
  0
LINE
  8
0
 10
-18.8163
 20
158.421
 11
-18.6808
 21
158.214
  0
LINE
  8
0
 10
-18.6808
 20
158.214
 11
-18.5813
 21
157.987
  0
LINE
  8
0
 10
-18.5813
 20
157.987
 11
-18.5204
 21
157.747
  0
LINE
  8
0
 10
-18.5204
 20
157.747
 11
-18.5
 21
157.5
  0
LINE
  8
0
 10
-18.5
 20
157.5
 11
-18.5204
 21
157.253
  0
LINE
  8
0
 10
-18.5204
 20
157.253
 11
-18.5813
 21
157.013
  0
LINE
  8
0
 10
-18.5813
 20
157.013
 11
-18.6808
 21
156.786
  0
LINE
  8
0
 10
-18.6808
 20
156.786
 11
-18.8163
 21
156.579
  0
LINE
  8
0
 10
-18.8163
 20
156.579
 11
-18.9841
 21
156.396
  0
LINE
  8
0
 10
-18.9841
 20
156.396
 11
-19.1796
 21
156.244
  0
LINE
  8
0
 10
-19.1796
 20
156.244
 11
-19.3974
 21
156.126
  0
LINE
  8
0
 10
-19.3974
 20
156.126
 11
-19.6318
 21
156.046
  0
LINE
  8
0
 10
-19.6318
 20
156.046
 11
-19.8761
 21
156.005
  0
LINE
  8
0
 10
-19.8761
 20
156.005
 11
-20.1239
 21
156.005
  0
LINE
  8
0
 10
-174.366
 20
147.875
 11
-175.232
 21
149.375
  0
LINE
  8
0
 10
-175.232
 20
149.375
 11
-174.366
 21
150.875
  0
LINE
  8
0
 10
-174.366
 20
150.875
 11
-172.634
 21
150.875
  0
LINE
  8
0
 10
-172.634
 20
150.875
 11
-171.768
 21
149.375
  0
LINE
  8
0
 10
-171.768
 20
149.375
 11
-172.634
 21
147.875
  0
LINE
  8
0
 10
-172.634
 20
147.875
 11
-174.366
 21
147.875
  0
LINE
  8
0
 10
-174.366
 20
122.875
 11
-175.232
 21
124.375
  0
LINE
  8
0
 10
-175.232
 20
124.375
 11
-174.366
 21
125.875
  0
LINE
  8
0
 10
-174.366
 20
125.875
 11
-172.634
 21
125.875
  0
LINE
  8
0
 10
-172.634
 20
125.875
 11
-171.768
 21
124.375
  0
LINE
  8
0
 10
-171.768
 20
124.375
 11
-172.634
 21
122.875
  0
LINE
  8
0
 10
-172.634
 20
122.875
 11
-174.366
 21
122.875
  0
LINE
  8
0
 10
-174.366
 20
97.875
 11
-175.232
 21
99.375
  0
LINE
  8
0
 10
-175.232
 20
99.375
 11
-174.366
 21
100.875
  0
LINE
  8
0
 10
-174.366
 20
100.875
 11
-172.634
 21
100.875
  0
LINE
  8
0
 10
-172.634
 20
100.875
 11
-171.768
 21
99.375
  0
LINE
  8
0
 10
-171.768
 20
99.375
 11
-172.634
 21
97.875
  0
LINE
  8
0
 10
-172.634
 20
97.875
 11
-174.366
 21
97.875
  0
LINE
  8
0
 10
-174.366
 20
-110.875
 11
-175.232
 21
-109.375
  0
LINE
  8
0
 10
-175.232
 20
-109.375
 11
-174.366
 21
-107.875
  0
LINE
  8
0
 10
-174.366
 20
-107.875
 11
-172.634
 21
-107.875
  0
LINE
  8
0
 10
-172.634
 20
-107.875
 11
-171.768
 21
-109.375
  0
LINE
  8
0
 10
-171.768
 20
-109.375
 11
-172.634
 21
-110.875
  0
LINE
  8
0
 10
-172.634
 20
-110.875
 11
-174.366
 21
-110.875
  0
LINE
  8
0
 10
-174.366
 20
-135.875
 11
-175.232
 21
-134.375
  0
LINE
  8
0
 10
-175.232
 20
-134.375
 11
-174.366
 21
-132.875
  0
LINE
  8
0
 10
-174.366
 20
-132.875
 11
-172.634
 21
-132.875
  0
LINE
  8
0
 10
-172.634
 20
-132.875
 11
-171.768
 21
-134.375
  0
LINE
  8
0
 10
-171.768
 20
-134.375
 11
-172.634
 21
-135.875
  0
LINE
  8
0
 10
-172.634
 20
-135.875
 11
-174.366
 21
-135.875
  0
LINE
  8
0
 10
-174.366
 20
-160.875
 11
-175.232
 21
-159.375
  0
LINE
  8
0
 10
-175.232
 20
-159.375
 11
-174.366
 21
-157.875
  0
LINE
  8
0
 10
-174.366
 20
-157.875
 11
-172.634
 21
-157.875
  0
LINE
  8
0
 10
-172.634
 20
-157.875
 11
-171.768
 21
-159.375
  0
LINE
  8
0
 10
-171.768
 20
-159.375
 11
-172.634
 21
-160.875
  0
LINE
  8
0
 10
-172.634
 20
-160.875
 11
-174.366
 21
-160.875
  0
ENDSEC
  0
SECTION
  2
OBJECTS
  0
DICTIONARY
  0
ENDSEC
  0
EOF
