  0
SECTION
  2
BLOCKS
  0
ENDSEC
  0
SECTION
  2
ENTITIES
  0
LINE
  8
0
 10
-1.54497
 20
1.52609
 11
-1.54497
 21
7.62471
  0
LINE
  8
0
 10
-1.54497
 20
7.62471
 11
-1.50496
 21
7.87093
  0
LINE
  8
0
 10
-1.50496
 20
7.87093
 11
-1.42596
 21
8.10754
  0
LINE
  8
0
 10
-1.42596
 20
8.10754
 11
-1.31004
 21
8.32841
  0
LINE
  8
0
 10
-1.31004
 20
8.32841
 11
-1.16019
 21
8.52783
  0
LINE
  8
0
 10
-1.16019
 20
8.52783
 11
-0.980286
 21
8.70062
  0
LINE
  8
0
 10
-0.980286
 20
8.70062
 11
-0.774994
 21
8.84233
  0
LINE
  8
0
 10
-0.774994
 20
8.84233
 11
-0.549637
 21
8.94926
  0
LINE
  8
0
 10
-0.549637
 20
8.94926
 11
-0.310028
 21
9.01866
  0
LINE
  8
0
 10
-0.310028
 20
9.01866
 11
-0.0624084
 21
9.04874
  0
LINE
  8
0
 10
-0.0624084
 20
9.04874
 11
0.186829
 21
9.0387
  0
LINE
  8
0
 10
0.186829
 20
9.0387
 11
0.431229
 21
8.9888
  0
LINE
  8
0
 10
0.431229
 20
8.9888
 11
0.664459
 21
8.90034
  0
LINE
  8
0
 10
0.664459
 20
8.90034
 11
0.880493
 21
8.77562
  0
LINE
  8
0
 10
0.880493
 20
8.77562
 11
1.07372
 21
8.61786
  0
LINE
  8
0
 10
1.07372
 20
8.61786
 11
1.23914
 21
8.43114
  0
LINE
  8
0
 10
1.23914
 20
8.43114
 11
1.37245
 21
8.22031
  0
LINE
  8
0
 10
1.37245
 20
8.22031
 11
1.47023
 21
7.99083
  0
LINE
  8
0
 10
1.47023
 20
7.99083
 11
1.52992
 21
7.74863
  0
LINE
  8
0
 10
1.52992
 20
7.74863
 11
1.54999
 21
7.5
  0
LINE
  8
0
 10
1.54999
 20
7.5
 11
1.54999
 21
1.52107
  0
LINE
  8
0
 10
1.54999
 20
1.52107
 11
3.07106
 21
0
  0
LINE
  8
0
 10
3.07106
 20
0
 11
83.1789
 21
0
  0
LINE
  8
0
 10
83.1789
 20
0
 11
84.705
 21
1.52609
  0
LINE
  8
0
 10
84.705
 20
1.52609
 11
84.705
 21
7.62471
  0
LINE
  8
0
 10
84.705
 20
7.62471
 11
84.745
 21
7.87093
  0
LINE
  8
0
 10
84.745
 20
7.87093
 11
84.824
 21
8.10754
  0
LINE
  8
0
 10
84.824
 20
8.10754
 11
84.94
 21
8.32841
  0
LINE
  8
0
 10
84.94
 20
8.32841
 11
85.0898
 21
8.52783
  0
LINE
  8
0
 10
85.0898
 20
8.52783
 11
85.2697
 21
8.70062
  0
LINE
  8
0
 10
85.2697
 20
8.70062
 11
85.475
 21
8.84233
  0
LINE
  8
0
 10
85.475
 20
8.84233
 11
85.7004
 21
8.94926
  0
LINE
  8
0
 10
85.7004
 20
8.94926
 11
85.94
 21
9.01866
  0
LINE
  8
0
 10
85.94
 20
9.01866
 11
86.1876
 21
9.04874
  0
LINE
  8
0
 10
86.1876
 20
9.04874
 11
86.4368
 21
9.0387
  0
LINE
  8
0
 10
86.4368
 20
9.0387
 11
86.6812
 21
8.9888
  0
LINE
  8
0
 10
86.6812
 20
8.9888
 11
86.9145
 21
8.90034
  0
LINE
  8
0
 10
86.9145
 20
8.90034
 11
87.1305
 21
8.77562
  0
LINE
  8
0
 10
87.1305
 20
8.77562
 11
87.3237
 21
8.61786
  0
LINE
  8
0
 10
87.3237
 20
8.61786
 11
87.4891
 21
8.43114
  0
LINE
  8
0
 10
87.4891
 20
8.43114
 11
87.6225
 21
8.22031
  0
LINE
  8
0
 10
87.6225
 20
8.22031
 11
87.7202
 21
7.99083
  0
LINE
  8
0
 10
87.7202
 20
7.99083
 11
87.7799
 21
7.74863
  0
LINE
  8
0
 10
87.7799
 20
7.74863
 11
87.8
 21
7.5
  0
LINE
  8
0
 10
87.8
 20
7.5
 11
87.8
 21
1.52107
  0
LINE
  8
0
 10
87.8
 20
1.52107
 11
89.3211
 21
0
  0
LINE
  8
0
 10
89.3211
 20
0
 11
94.4289
 21
0
  0
LINE
  8
0
 10
94.4289
 20
0
 11
95.955
 21
1.52609
  0
LINE
  8
0
 10
95.955
 20
1.52609
 11
95.955
 21
7.62471
  0
LINE
  8
0
 10
95.955
 20
7.62471
 11
95.995
 21
7.87093
  0
LINE
  8
0
 10
95.995
 20
7.87093
 11
96.074
 21
8.10754
  0
LINE
  8
0
 10
96.074
 20
8.10754
 11
96.19
 21
8.32841
  0
LINE
  8
0
 10
96.19
 20
8.32841
 11
96.3398
 21
8.52783
  0
LINE
  8
0
 10
96.3398
 20
8.52783
 11
96.5197
 21
8.70062
  0
LINE
  8
0
 10
96.5197
 20
8.70062
 11
96.725
 21
8.84233
  0
LINE
  8
0
 10
96.725
 20
8.84233
 11
96.9504
 21
8.94926
  0
LINE
  8
0
 10
96.9504
 20
8.94926
 11
97.19
 21
9.01866
  0
LINE
  8
0
 10
97.19
 20
9.01866
 11
97.4376
 21
9.04874
  0
LINE
  8
0
 10
97.4376
 20
9.04874
 11
97.6868
 21
9.0387
  0
LINE
  8
0
 10
97.6868
 20
9.0387
 11
97.9312
 21
8.9888
  0
LINE
  8
0
 10
97.9312
 20
8.9888
 11
98.1645
 21
8.90034
  0
LINE
  8
0
 10
98.1645
 20
8.90034
 11
98.3805
 21
8.77562
  0
LINE
  8
0
 10
98.3805
 20
8.77562
 11
98.5737
 21
8.61786
  0
LINE
  8
0
 10
98.5737
 20
8.61786
 11
98.7391
 21
8.43114
  0
LINE
  8
0
 10
98.7391
 20
8.43114
 11
98.8725
 21
8.22031
  0
LINE
  8
0
 10
98.8725
 20
8.22031
 11
98.9702
 21
7.99083
  0
LINE
  8
0
 10
98.9702
 20
7.99083
 11
99.0299
 21
7.74863
  0
LINE
  8
0
 10
99.0299
 20
7.74863
 11
99.05
 21
7.5
  0
LINE
  8
0
 10
99.05
 20
7.5
 11
99.05
 21
1.52107
  0
LINE
  8
0
 10
99.05
 20
1.52107
 11
100.571
 21
0
  0
LINE
  8
0
 10
100.571
 20
0
 11
169.429
 21
0
  0
LINE
  8
0
 10
169.429
 20
0
 11
170.955
 21
1.52609
  0
LINE
  8
0
 10
170.955
 20
1.52609
 11
170.955
 21
7.62471
  0
LINE
  8
0
 10
170.955
 20
7.62471
 11
170.995
 21
7.87093
  0
LINE
  8
0
 10
170.995
 20
7.87093
 11
171.074
 21
8.10754
  0
LINE
  8
0
 10
171.074
 20
8.10754
 11
171.19
 21
8.32841
  0
LINE
  8
0
 10
171.19
 20
8.32841
 11
171.34
 21
8.52783
  0
LINE
  8
0
 10
171.34
 20
8.52783
 11
171.52
 21
8.70062
  0
LINE
  8
0
 10
171.52
 20
8.70062
 11
171.725
 21
8.84233
  0
LINE
  8
0
 10
171.725
 20
8.84233
 11
171.95
 21
8.94926
  0
LINE
  8
0
 10
171.95
 20
8.94926
 11
172.19
 21
9.01866
  0
LINE
  8
0
 10
172.19
 20
9.01866
 11
172.438
 21
9.04874
  0
LINE
  8
0
 10
172.438
 20
9.04874
 11
172.687
 21
9.0387
  0
LINE
  8
0
 10
172.687
 20
9.0387
 11
172.931
 21
8.9888
  0
LINE
  8
0
 10
172.931
 20
8.9888
 11
173.164
 21
8.90034
  0
LINE
  8
0
 10
173.164
 20
8.90034
 11
173.38
 21
8.77562
  0
LINE
  8
0
 10
173.38
 20
8.77562
 11
173.574
 21
8.61786
  0
LINE
  8
0
 10
173.574
 20
8.61786
 11
173.739
 21
8.43114
  0
LINE
  8
0
 10
173.739
 20
8.43114
 11
173.872
 21
8.22031
  0
LINE
  8
0
 10
173.872
 20
8.22031
 11
173.97
 21
7.99083
  0
LINE
  8
0
 10
173.97
 20
7.99083
 11
174.03
 21
7.74863
  0
LINE
  8
0
 10
174.03
 20
7.74863
 11
174.05
 21
7.5
  0
LINE
  8
0
 10
174.05
 20
7.5
 11
174.05
 21
1.52107
  0
LINE
  8
0
 10
174.05
 20
1.52107
 11
175.571
 21
0
  0
LINE
  8
0
 10
175.571
 20
0
 11
191.929
 21
0
  0
LINE
  8
0
 10
191.929
 20
0
 11
193.455
 21
1.52609
  0
LINE
  8
0
 10
193.455
 20
1.52609
 11
193.455
 21
7.62471
  0
LINE
  8
0
 10
193.455
 20
7.62471
 11
193.495
 21
7.87093
  0
LINE
  8
0
 10
193.495
 20
7.87093
 11
193.574
 21
8.10754
  0
LINE
  8
0
 10
193.574
 20
8.10754
 11
193.69
 21
8.32841
  0
LINE
  8
0
 10
193.69
 20
8.32841
 11
193.84
 21
8.52783
  0
LINE
  8
0
 10
193.84
 20
8.52783
 11
194.02
 21
8.70062
  0
LINE
  8
0
 10
194.02
 20
8.70062
 11
194.225
 21
8.84233
  0
LINE
  8
0
 10
194.225
 20
8.84233
 11
194.45
 21
8.94926
  0
LINE
  8
0
 10
194.45
 20
8.94926
 11
194.69
 21
9.01866
  0
LINE
  8
0
 10
194.69
 20
9.01866
 11
194.938
 21
9.04874
  0
LINE
  8
0
 10
194.938
 20
9.04874
 11
195.187
 21
9.0387
  0
LINE
  8
0
 10
195.187
 20
9.0387
 11
195.431
 21
8.9888
  0
LINE
  8
0
 10
195.431
 20
8.9888
 11
195.664
 21
8.90034
  0
LINE
  8
0
 10
195.664
 20
8.90034
 11
195.88
 21
8.77562
  0
LINE
  8
0
 10
195.88
 20
8.77562
 11
196.074
 21
8.61786
  0
LINE
  8
0
 10
196.074
 20
8.61786
 11
196.239
 21
8.43114
  0
LINE
  8
0
 10
196.239
 20
8.43114
 11
196.372
 21
8.22031
  0
LINE
  8
0
 10
196.372
 20
8.22031
 11
196.47
 21
7.99083
  0
LINE
  8
0
 10
196.47
 20
7.99083
 11
196.53
 21
7.74863
  0
LINE
  8
0
 10
196.53
 20
7.74863
 11
196.55
 21
7.5
  0
LINE
  8
0
 10
196.55
 20
7.5
 11
196.55
 21
1.52107
  0
LINE
  8
0
 10
196.55
 20
1.52107
 11
198.071
 21
0
  0
LINE
  8
0
 10
198.071
 20
0
 11
255.679
 21
0
  0
LINE
  8
0
 10
255.679
 20
0
 11
257.205
 21
1.52609
  0
LINE
  8
0
 10
257.205
 20
1.52609
 11
257.205
 21
7.62471
  0
LINE
  8
0
 10
257.205
 20
7.62471
 11
257.245
 21
7.87093
  0
LINE
  8
0
 10
257.245
 20
7.87093
 11
257.324
 21
8.10754
  0
LINE
  8
0
 10
257.324
 20
8.10754
 11
257.44
 21
8.32841
  0
LINE
  8
0
 10
257.44
 20
8.32841
 11
257.59
 21
8.52783
  0
LINE
  8
0
 10
257.59
 20
8.52783
 11
257.77
 21
8.70062
  0
LINE
  8
0
 10
257.77
 20
8.70062
 11
257.975
 21
8.84233
  0
LINE
  8
0
 10
257.975
 20
8.84233
 11
258.2
 21
8.94926
  0
LINE
  8
0
 10
258.2
 20
8.94926
 11
258.44
 21
9.01866
  0
LINE
  8
0
 10
258.44
 20
9.01866
 11
258.688
 21
9.04874
  0
LINE
  8
0
 10
258.688
 20
9.04874
 11
258.937
 21
9.0387
  0
LINE
  8
0
 10
258.937
 20
9.0387
 11
259.181
 21
8.9888
  0
LINE
  8
0
 10
259.181
 20
8.9888
 11
259.414
 21
8.90034
  0
LINE
  8
0
 10
259.414
 20
8.90034
 11
259.63
 21
8.77562
  0
LINE
  8
0
 10
259.63
 20
8.77562
 11
259.824
 21
8.61786
  0
LINE
  8
0
 10
259.824
 20
8.61786
 11
259.989
 21
8.43114
  0
LINE
  8
0
 10
259.989
 20
8.43114
 11
260.122
 21
8.22031
  0
LINE
  8
0
 10
260.122
 20
8.22031
 11
260.22
 21
7.99083
  0
LINE
  8
0
 10
260.22
 20
7.99083
 11
260.28
 21
7.74863
  0
LINE
  8
0
 10
260.28
 20
7.74863
 11
260.3
 21
7.5
  0
LINE
  8
0
 10
260.3
 20
7.5
 11
260.3
 21
1.52107
  0
LINE
  8
0
 10
260.3
 20
1.52107
 11
261.821
 21
0
  0
LINE
  8
0
 10
261.821
 20
0
 11
289.429
 21
0
  0
LINE
  8
0
 10
289.429
 20
0
 11
290.955
 21
1.52609
  0
LINE
  8
0
 10
290.955
 20
1.52609
 11
290.955
 21
7.62471
  0
LINE
  8
0
 10
290.955
 20
7.62471
 11
290.995
 21
7.87093
  0
LINE
  8
0
 10
290.995
 20
7.87093
 11
291.074
 21
8.10754
  0
LINE
  8
0
 10
291.074
 20
8.10754
 11
291.19
 21
8.32841
  0
LINE
  8
0
 10
291.19
 20
8.32841
 11
291.34
 21
8.52783
  0
LINE
  8
0
 10
291.34
 20
8.52783
 11
291.52
 21
8.70062
  0
LINE
  8
0
 10
291.52
 20
8.70062
 11
291.725
 21
8.84233
  0
LINE
  8
0
 10
291.725
 20
8.84233
 11
291.95
 21
8.94926
  0
LINE
  8
0
 10
291.95
 20
8.94926
 11
292.19
 21
9.01866
  0
LINE
  8
0
 10
292.19
 20
9.01866
 11
292.438
 21
9.04874
  0
LINE
  8
0
 10
292.438
 20
9.04874
 11
292.687
 21
9.0387
  0
LINE
  8
0
 10
292.687
 20
9.0387
 11
292.931
 21
8.9888
  0
LINE
  8
0
 10
292.931
 20
8.9888
 11
293.164
 21
8.90034
  0
LINE
  8
0
 10
293.164
 20
8.90034
 11
293.38
 21
8.77562
  0
LINE
  8
0
 10
293.38
 20
8.77562
 11
293.574
 21
8.61786
  0
LINE
  8
0
 10
293.574
 20
8.61786
 11
293.739
 21
8.43114
  0
LINE
  8
0
 10
293.739
 20
8.43114
 11
293.872
 21
8.22031
  0
LINE
  8
0
 10
293.872
 20
8.22031
 11
293.97
 21
7.99083
  0
LINE
  8
0
 10
293.97
 20
7.99083
 11
294.03
 21
7.74863
  0
LINE
  8
0
 10
294.03
 20
7.74863
 11
294.05
 21
7.5
  0
LINE
  8
0
 10
294.05
 20
7.5
 11
294.05
 21
1.52107
  0
LINE
  8
0
 10
294.05
 20
1.52107
 11
295.571
 21
0
  0
LINE
  8
0
 10
295.571
 20
0
 11
341.929
 21
0
  0
LINE
  8
0
 10
341.929
 20
0
 11
343.455
 21
1.52609
  0
LINE
  8
0
 10
343.455
 20
1.52609
 11
343.455
 21
7.62471
  0
LINE
  8
0
 10
343.455
 20
7.62471
 11
343.495
 21
7.87093
  0
LINE
  8
0
 10
343.495
 20
7.87093
 11
343.574
 21
8.10754
  0
LINE
  8
0
 10
343.574
 20
8.10754
 11
343.69
 21
8.32841
  0
LINE
  8
0
 10
343.69
 20
8.32841
 11
343.84
 21
8.52783
  0
LINE
  8
0
 10
343.84
 20
8.52783
 11
344.02
 21
8.70062
  0
LINE
  8
0
 10
344.02
 20
8.70062
 11
344.225
 21
8.84233
  0
LINE
  8
0
 10
344.225
 20
8.84233
 11
344.45
 21
8.94926
  0
LINE
  8
0
 10
344.45
 20
8.94926
 11
344.69
 21
9.01866
  0
LINE
  8
0
 10
344.69
 20
9.01866
 11
344.938
 21
9.04874
  0
LINE
  8
0
 10
344.938
 20
9.04874
 11
345.187
 21
9.0387
  0
LINE
  8
0
 10
345.187
 20
9.0387
 11
345.431
 21
8.9888
  0
LINE
  8
0
 10
345.431
 20
8.9888
 11
345.664
 21
8.90034
  0
LINE
  8
0
 10
345.664
 20
8.90034
 11
345.88
 21
8.77562
  0
LINE
  8
0
 10
345.88
 20
8.77562
 11
346.074
 21
8.61786
  0
LINE
  8
0
 10
346.074
 20
8.61786
 11
346.239
 21
8.43114
  0
LINE
  8
0
 10
346.239
 20
8.43114
 11
346.372
 21
8.22031
  0
LINE
  8
0
 10
346.372
 20
8.22031
 11
346.47
 21
7.99083
  0
LINE
  8
0
 10
346.47
 20
7.99083
 11
346.53
 21
7.74863
  0
LINE
  8
0
 10
346.53
 20
7.74863
 11
346.55
 21
7.5
  0
LINE
  8
0
 10
346.55
 20
7.5
 11
346.55
 21
1.52107
  0
LINE
  8
0
 10
346.55
 20
1.52107
 11
348.071
 21
0
  0
LINE
  8
0
 10
348.071
 20
0
 11
386.929
 21
0
  0
LINE
  8
0
 10
386.929
 20
0
 11
388.455
 21
1.52609
  0
LINE
  8
0
 10
388.455
 20
1.52609
 11
388.455
 21
7.62471
  0
LINE
  8
0
 10
388.455
 20
7.62471
 11
388.495
 21
7.87093
  0
LINE
  8
0
 10
388.495
 20
7.87093
 11
388.574
 21
8.10754
  0
LINE
  8
0
 10
388.574
 20
8.10754
 11
388.69
 21
8.32841
  0
LINE
  8
0
 10
388.69
 20
8.32841
 11
388.84
 21
8.52783
  0
LINE
  8
0
 10
388.84
 20
8.52783
 11
389.02
 21
8.70062
  0
LINE
  8
0
 10
389.02
 20
8.70062
 11
389.225
 21
8.84233
  0
LINE
  8
0
 10
389.225
 20
8.84233
 11
389.45
 21
8.94926
  0
LINE
  8
0
 10
389.45
 20
8.94926
 11
389.69
 21
9.01866
  0
LINE
  8
0
 10
389.69
 20
9.01866
 11
389.938
 21
9.04874
  0
LINE
  8
0
 10
389.938
 20
9.04874
 11
390.187
 21
9.0387
  0
LINE
  8
0
 10
390.187
 20
9.0387
 11
390.431
 21
8.9888
  0
LINE
  8
0
 10
390.431
 20
8.9888
 11
390.664
 21
8.90034
  0
LINE
  8
0
 10
390.664
 20
8.90034
 11
390.88
 21
8.77562
  0
LINE
  8
0
 10
390.88
 20
8.77562
 11
391.074
 21
8.61786
  0
LINE
  8
0
 10
391.074
 20
8.61786
 11
391.239
 21
8.43114
  0
LINE
  8
0
 10
391.239
 20
8.43114
 11
391.372
 21
8.22031
  0
LINE
  8
0
 10
391.372
 20
8.22031
 11
391.47
 21
7.99083
  0
LINE
  8
0
 10
391.47
 20
7.99083
 11
391.53
 21
7.74863
  0
LINE
  8
0
 10
391.53
 20
7.74863
 11
391.55
 21
7.5
  0
LINE
  8
0
 10
391.55
 20
7.5
 11
391.55
 21
1.52107
  0
LINE
  8
0
 10
391.55
 20
1.52107
 11
393.071
 21
0
  0
LINE
  8
0
 10
393.071
 20
0
 11
450
 21
0
  0
LINE
  8
0
 10
450
 20
0
 11
450.523
 21
0.0273895
  0
LINE
  8
0
 10
450.523
 20
0.0273895
 11
451.04
 21
0.109268
  0
LINE
  8
0
 10
451.04
 20
0.109268
 11
451.545
 21
0.24472
  0
LINE
  8
0
 10
451.545
 20
0.24472
 11
452.034
 21
0.432266
  0
LINE
  8
0
 10
452.034
 20
0.432266
 11
452.5
 21
0.669876
  0
LINE
  8
0
 10
452.5
 20
0.669876
 11
452.939
 21
0.95491
  0
LINE
  8
0
 10
452.939
 20
0.95491
 11
453.346
 21
1.28427
  0
LINE
  8
0
 10
453.346
 20
1.28427
 11
453.716
 21
1.65434
  0
LINE
  8
0
 10
453.716
 20
1.65434
 11
454.045
 21
2.06108
  0
LINE
  8
0
 10
454.045
 20
2.06108
 11
454.33
 21
2.5
  0
LINE
  8
0
 10
454.33
 20
2.5
 11
454.568
 21
2.96632
  0
LINE
  8
0
 10
454.568
 20
2.96632
 11
454.755
 21
3.45491
  0
LINE
  8
0
 10
454.755
 20
3.45491
 11
454.891
 21
3.96043
  0
LINE
  8
0
 10
454.891
 20
3.96043
 11
454.973
 21
4.47736
  0
LINE
  8
0
 10
454.973
 20
4.47736
 11
455
 21
5
  0
LINE
  8
0
 10
455
 20
5
 11
455
 21
20
  0
LINE
  8
0
 10
455
 20
20
 11
454.973
 21
20.5226
  0
LINE
  8
0
 10
454.973
 20
20.5226
 11
454.891
 21
21.0396
  0
LINE
  8
0
 10
454.891
 20
21.0396
 11
454.755
 21
21.5451
  0
LINE
  8
0
 10
454.755
 20
21.5451
 11
454.568
 21
22.0337
  0
LINE
  8
0
 10
454.568
 20
22.0337
 11
454.33
 21
22.5
  0
LINE
  8
0
 10
454.33
 20
22.5
 11
454.045
 21
22.9389
  0
LINE
  8
0
 10
454.045
 20
22.9389
 11
453.716
 21
23.3457
  0
LINE
  8
0
 10
453.716
 20
23.3457
 11
453.346
 21
23.7157
  0
LINE
  8
0
 10
453.346
 20
23.7157
 11
452.939
 21
24.0451
  0
LINE
  8
0
 10
452.939
 20
24.0451
 11
452.5
 21
24.3301
  0
LINE
  8
0
 10
452.5
 20
24.3301
 11
452.034
 21
24.5677
  0
LINE
  8
0
 10
452.034
 20
24.5677
 11
451.545
 21
24.7553
  0
LINE
  8
0
 10
451.545
 20
24.7553
 11
451.04
 21
24.8907
  0
LINE
  8
0
 10
451.04
 20
24.8907
 11
450.523
 21
24.9726
  0
LINE
  8
0
 10
450.523
 20
24.9726
 11
450
 21
25
  0
LINE
  8
0
 10
450
 20
25
 11
408.5
 21
25
  0
LINE
  8
0
 10
408.5
 20
25
 11
406.55
 21
23.05
  0
LINE
  8
0
 10
406.55
 20
23.05
 11
406.55
 21
17.5
  0
LINE
  8
0
 10
406.55
 20
17.5
 11
406.53
 21
17.2514
  0
LINE
  8
0
 10
406.53
 20
17.2514
 11
406.47
 21
17.0092
  0
LINE
  8
0
 10
406.47
 20
17.0092
 11
406.372
 21
16.7797
  0
LINE
  8
0
 10
406.372
 20
16.7797
 11
406.239
 21
16.5689
  0
LINE
  8
0
 10
406.239
 20
16.5689
 11
406.074
 21
16.3821
  0
LINE
  8
0
 10
406.074
 20
16.3821
 11
405.88
 21
16.2244
  0
LINE
  8
0
 10
405.88
 20
16.2244
 11
405.664
 21
16.0997
  0
LINE
  8
0
 10
405.664
 20
16.0997
 11
405.431
 21
16.0112
  0
LINE
  8
0
 10
405.431
 20
16.0112
 11
405.187
 21
15.9613
  0
LINE
  8
0
 10
405.187
 20
15.9613
 11
404.938
 21
15.9513
  0
LINE
  8
0
 10
404.938
 20
15.9513
 11
404.69
 21
15.9813
  0
LINE
  8
0
 10
404.69
 20
15.9813
 11
404.45
 21
16.0507
  0
LINE
  8
0
 10
404.45
 20
16.0507
 11
404.225
 21
16.1577
  0
LINE
  8
0
 10
404.225
 20
16.1577
 11
404.02
 21
16.2994
  0
LINE
  8
0
 10
404.02
 20
16.2994
 11
403.84
 21
16.4722
  0
LINE
  8
0
 10
403.84
 20
16.4722
 11
403.69
 21
16.6716
  0
LINE
  8
0
 10
403.69
 20
16.6716
 11
403.574
 21
16.8925
  0
LINE
  8
0
 10
403.574
 20
16.8925
 11
403.495
 21
17.1291
  0
LINE
  8
0
 10
403.495
 20
17.1291
 11
403.455
 21
17.3753
  0
LINE
  8
0
 10
403.455
 20
17.3753
 11
403.455
 21
23.045
  0
LINE
  8
0
 10
403.455
 20
23.045
 11
401.5
 21
25
  0
LINE
  8
0
 10
401.5
 20
25
 11
319.75
 21
25
  0
LINE
  8
0
 10
319.75
 20
25
 11
317.8
 21
23.05
  0
LINE
  8
0
 10
317.8
 20
23.05
 11
317.8
 21
17.5
  0
LINE
  8
0
 10
317.8
 20
17.5
 11
317.78
 21
17.2514
  0
LINE
  8
0
 10
317.78
 20
17.2514
 11
317.72
 21
17.0092
  0
LINE
  8
0
 10
317.72
 20
17.0092
 11
317.622
 21
16.7797
  0
LINE
  8
0
 10
317.622
 20
16.7797
 11
317.489
 21
16.5689
  0
LINE
  8
0
 10
317.489
 20
16.5689
 11
317.324
 21
16.3821
  0
LINE
  8
0
 10
317.324
 20
16.3821
 11
317.13
 21
16.2244
  0
LINE
  8
0
 10
317.13
 20
16.2244
 11
316.914
 21
16.0997
  0
LINE
  8
0
 10
316.914
 20
16.0997
 11
316.681
 21
16.0112
  0
LINE
  8
0
 10
316.681
 20
16.0112
 11
316.437
 21
15.9613
  0
LINE
  8
0
 10
316.437
 20
15.9613
 11
316.188
 21
15.9513
  0
LINE
  8
0
 10
316.188
 20
15.9513
 11
315.94
 21
15.9813
  0
LINE
  8
0
 10
315.94
 20
15.9813
 11
315.7
 21
16.0507
  0
LINE
  8
0
 10
315.7
 20
16.0507
 11
315.475
 21
16.1577
  0
LINE
  8
0
 10
315.475
 20
16.1577
 11
315.27
 21
16.2994
  0
LINE
  8
0
 10
315.27
 20
16.2994
 11
315.09
 21
16.4722
  0
LINE
  8
0
 10
315.09
 20
16.4722
 11
314.94
 21
16.6716
  0
LINE
  8
0
 10
314.94
 20
16.6716
 11
314.824
 21
16.8925
  0
LINE
  8
0
 10
314.824
 20
16.8925
 11
314.745
 21
17.1291
  0
LINE
  8
0
 10
314.745
 20
17.1291
 11
314.705
 21
17.3753
  0
LINE
  8
0
 10
314.705
 20
17.3753
 11
314.705
 21
23.045
  0
LINE
  8
0
 10
314.705
 20
23.045
 11
312.75
 21
25
  0
LINE
  8
0
 10
312.75
 20
25
 11
231
 21
25
  0
LINE
  8
0
 10
231
 20
25
 11
229.05
 21
23.05
  0
LINE
  8
0
 10
229.05
 20
23.05
 11
229.05
 21
17.5
  0
LINE
  8
0
 10
229.05
 20
17.5
 11
229.03
 21
17.2514
  0
LINE
  8
0
 10
229.03
 20
17.2514
 11
228.97
 21
17.0092
  0
LINE
  8
0
 10
228.97
 20
17.0092
 11
228.872
 21
16.7797
  0
LINE
  8
0
 10
228.872
 20
16.7797
 11
228.739
 21
16.5689
  0
LINE
  8
0
 10
228.739
 20
16.5689
 11
228.574
 21
16.3821
  0
LINE
  8
0
 10
228.574
 20
16.3821
 11
228.38
 21
16.2244
  0
LINE
  8
0
 10
228.38
 20
16.2244
 11
228.164
 21
16.0997
  0
LINE
  8
0
 10
228.164
 20
16.0997
 11
227.931
 21
16.0112
  0
LINE
  8
0
 10
227.931
 20
16.0112
 11
227.687
 21
15.9613
  0
LINE
  8
0
 10
227.687
 20
15.9613
 11
227.438
 21
15.9513
  0
LINE
  8
0
 10
227.438
 20
15.9513
 11
227.19
 21
15.9813
  0
LINE
  8
0
 10
227.19
 20
15.9813
 11
226.95
 21
16.0507
  0
LINE
  8
0
 10
226.95
 20
16.0507
 11
226.725
 21
16.1577
  0
LINE
  8
0
 10
226.725
 20
16.1577
 11
226.52
 21
16.2994
  0
LINE
  8
0
 10
226.52
 20
16.2994
 11
226.34
 21
16.4722
  0
LINE
  8
0
 10
226.34
 20
16.4722
 11
226.19
 21
16.6716
  0
LINE
  8
0
 10
226.19
 20
16.6716
 11
226.074
 21
16.8925
  0
LINE
  8
0
 10
226.074
 20
16.8925
 11
225.995
 21
17.1291
  0
LINE
  8
0
 10
225.995
 20
17.1291
 11
225.955
 21
17.3753
  0
LINE
  8
0
 10
225.955
 20
17.3753
 11
225.955
 21
23.045
  0
LINE
  8
0
 10
225.955
 20
23.045
 11
224
 21
25
  0
LINE
  8
0
 10
224
 20
25
 11
142.25
 21
25
  0
LINE
  8
0
 10
142.25
 20
25
 11
140.3
 21
23.05
  0
LINE
  8
0
 10
140.3
 20
23.05
 11
140.3
 21
17.5
  0
LINE
  8
0
 10
140.3
 20
17.5
 11
140.28
 21
17.2514
  0
LINE
  8
0
 10
140.28
 20
17.2514
 11
140.22
 21
17.0092
  0
LINE
  8
0
 10
140.22
 20
17.0092
 11
140.122
 21
16.7797
  0
LINE
  8
0
 10
140.122
 20
16.7797
 11
139.989
 21
16.5689
  0
LINE
  8
0
 10
139.989
 20
16.5689
 11
139.824
 21
16.3821
  0
LINE
  8
0
 10
139.824
 20
16.3821
 11
139.63
 21
16.2244
  0
LINE
  8
0
 10
139.63
 20
16.2244
 11
139.414
 21
16.0997
  0
LINE
  8
0
 10
139.414
 20
16.0997
 11
139.181
 21
16.0112
  0
LINE
  8
0
 10
139.181
 20
16.0112
 11
138.937
 21
15.9613
  0
LINE
  8
0
 10
138.937
 20
15.9613
 11
138.688
 21
15.9513
  0
LINE
  8
0
 10
138.688
 20
15.9513
 11
138.44
 21
15.9813
  0
LINE
  8
0
 10
138.44
 20
15.9813
 11
138.2
 21
16.0507
  0
LINE
  8
0
 10
138.2
 20
16.0507
 11
137.975
 21
16.1577
  0
LINE
  8
0
 10
137.975
 20
16.1577
 11
137.77
 21
16.2994
  0
LINE
  8
0
 10
137.77
 20
16.2994
 11
137.59
 21
16.4722
  0
LINE
  8
0
 10
137.59
 20
16.4722
 11
137.44
 21
16.6716
  0
LINE
  8
0
 10
137.44
 20
16.6716
 11
137.324
 21
16.8925
  0
LINE
  8
0
 10
137.324
 20
16.8925
 11
137.245
 21
17.1291
  0
LINE
  8
0
 10
137.245
 20
17.1291
 11
137.205
 21
17.3753
  0
LINE
  8
0
 10
137.205
 20
17.3753
 11
137.205
 21
23.045
  0
LINE
  8
0
 10
137.205
 20
23.045
 11
135.25
 21
25
  0
LINE
  8
0
 10
135.25
 20
25
 11
53.5
 21
25
  0
LINE
  8
0
 10
53.5
 20
25
 11
51.55
 21
23.05
  0
LINE
  8
0
 10
51.55
 20
23.05
 11
51.55
 21
17.5
  0
LINE
  8
0
 10
51.55
 20
17.5
 11
51.5299
 21
17.2514
  0
LINE
  8
0
 10
51.5299
 20
17.2514
 11
51.4702
 21
17.0092
  0
LINE
  8
0
 10
51.4702
 20
17.0092
 11
51.3725
 21
16.7797
  0
LINE
  8
0
 10
51.3725
 20
16.7797
 11
51.2391
 21
16.5689
  0
LINE
  8
0
 10
51.2391
 20
16.5689
 11
51.0737
 21
16.3821
  0
LINE
  8
0
 10
51.0737
 20
16.3821
 11
50.8805
 21
16.2244
  0
LINE
  8
0
 10
50.8805
 20
16.2244
 11
50.6645
 21
16.0997
  0
LINE
  8
0
 10
50.6645
 20
16.0997
 11
50.4312
 21
16.0112
  0
LINE
  8
0
 10
50.4312
 20
16.0112
 11
50.1868
 21
15.9613
  0
LINE
  8
0
 10
50.1868
 20
15.9613
 11
49.9376
 21
15.9513
  0
LINE
  8
0
 10
49.9376
 20
15.9513
 11
49.69
 21
15.9813
  0
LINE
  8
0
 10
49.69
 20
15.9813
 11
49.4504
 21
16.0507
  0
LINE
  8
0
 10
49.4504
 20
16.0507
 11
49.225
 21
16.1577
  0
LINE
  8
0
 10
49.225
 20
16.1577
 11
49.0197
 21
16.2994
  0
LINE
  8
0
 10
49.0197
 20
16.2994
 11
48.8398
 21
16.4722
  0
LINE
  8
0
 10
48.8398
 20
16.4722
 11
48.69
 21
16.6716
  0
LINE
  8
0
 10
48.69
 20
16.6716
 11
48.574
 21
16.8925
  0
LINE
  8
0
 10
48.574
 20
16.8925
 11
48.495
 21
17.1291
  0
LINE
  8
0
 10
48.495
 20
17.1291
 11
48.455
 21
17.3753
  0
LINE
  8
0
 10
48.455
 20
17.3753
 11
48.455
 21
23.045
  0
LINE
  8
0
 10
48.455
 20
23.045
 11
46.5
 21
25
  0
LINE
  8
0
 10
46.5
 20
25
 11
-45
 21
25
  0
LINE
  8
0
 10
-45
 20
25
 11
-45.5226
 21
24.9726
  0
LINE
  8
0
 10
-45.5226
 20
24.9726
 11
-46.0396
 21
24.8907
  0
LINE
  8
0
 10
-46.0396
 20
24.8907
 11
-46.5451
 21
24.7553
  0
LINE
  8
0
 10
-46.5451
 20
24.7553
 11
-47.0337
 21
24.5677
  0
LINE
  8
0
 10
-47.0337
 20
24.5677
 11
-47.5
 21
24.3301
  0
LINE
  8
0
 10
-47.5
 20
24.3301
 11
-47.9389
 21
24.0451
  0
LINE
  8
0
 10
-47.9389
 20
24.0451
 11
-48.3457
 21
23.7157
  0
LINE
  8
0
 10
-48.3457
 20
23.7157
 11
-48.7157
 21
23.3457
  0
LINE
  8
0
 10
-48.7157
 20
23.3457
 11
-49.0451
 21
22.9389
  0
LINE
  8
0
 10
-49.0451
 20
22.9389
 11
-49.3301
 21
22.5
  0
LINE
  8
0
 10
-49.3301
 20
22.5
 11
-49.5677
 21
22.0337
  0
LINE
  8
0
 10
-49.5677
 20
22.0337
 11
-49.7553
 21
21.5451
  0
LINE
  8
0
 10
-49.7553
 20
21.5451
 11
-49.8907
 21
21.0396
  0
LINE
  8
0
 10
-49.8907
 20
21.0396
 11
-49.9726
 21
20.5226
  0
LINE
  8
0
 10
-49.9726
 20
20.5226
 11
-50
 21
20
  0
LINE
  8
0
 10
-50
 20
20
 11
-50
 21
5
  0
LINE
  8
0
 10
-50
 20
5
 11
-49.9726
 21
4.47736
  0
LINE
  8
0
 10
-49.9726
 20
4.47736
 11
-49.8907
 21
3.96043
  0
LINE
  8
0
 10
-49.8907
 20
3.96043
 11
-49.7553
 21
3.45491
  0
LINE
  8
0
 10
-49.7553
 20
3.45491
 11
-49.5677
 21
2.96632
  0
LINE
  8
0
 10
-49.5677
 20
2.96632
 11
-49.3301
 21
2.5
  0
LINE
  8
0
 10
-49.3301
 20
2.5
 11
-49.0451
 21
2.06108
  0
LINE
  8
0
 10
-49.0451
 20
2.06108
 11
-48.7157
 21
1.65434
  0
LINE
  8
0
 10
-48.7157
 20
1.65434
 11
-48.3457
 21
1.28427
  0
LINE
  8
0
 10
-48.3457
 20
1.28427
 11
-47.9389
 21
0.95491
  0
LINE
  8
0
 10
-47.9389
 20
0.95491
 11
-47.5
 21
0.669876
  0
LINE
  8
0
 10
-47.5
 20
0.669876
 11
-47.0337
 21
0.432266
  0
LINE
  8
0
 10
-47.0337
 20
0.432266
 11
-46.5451
 21
0.24472
  0
LINE
  8
0
 10
-46.5451
 20
0.24472
 11
-46.0396
 21
0.109268
  0
LINE
  8
0
 10
-46.0396
 20
0.109268
 11
-45.5226
 21
0.0273895
  0
LINE
  8
0
 10
-45.5226
 20
0.0273895
 11
-45
 21
0
  0
LINE
  8
0
 10
-45
 20
0
 11
-3.07106
 21
0
  0
LINE
  8
0
 10
-3.07106
 20
0
 11
-1.54497
 21
1.52609
  0
LINE
  8
0
 10
-3.50183
 20
17.2042
 11
0.806213
 21
22.9143
  0
LINE
  8
0
 10
0.806213
 20
22.9143
 11
3.13937
 21
22.9143
  0
LINE
  8
0
 10
3.13937
 20
22.9143
 11
-1.16032
 21
17.2042
  0
LINE
  8
0
 10
-1.16032
 20
17.2042
 11
-3.50183
 21
17.2042
  0
LINE
  8
0
 10
-3.50183
 20
22.9143
 11
-1.16867
 21
22.9143
  0
LINE
  8
0
 10
-1.16867
 20
22.9143
 11
-0.493729
 21
22.014
  0
LINE
  8
0
 10
-0.493729
 20
22.014
 11
-1.65196
 21
20.4552
  0
LINE
  8
0
 10
-1.65196
 20
20.4552
 11
-3.50183
 21
22.9143
  0
LINE
  8
0
 10
0.797882
 20
17.2042
 11
0.114594
 21
18.0962
  0
LINE
  8
0
 10
0.114594
 20
18.0962
 11
1.28952
 21
19.655
  0
LINE
  8
0
 10
1.28952
 20
19.655
 11
3.13937
 21
17.2042
  0
LINE
  8
0
 10
3.13937
 20
17.2042
 11
0.797882
 21
17.2042
  0
LINE
  8
0
 10
342.039
 20
14.5779
 11
342.039
 21
15.918
  0
LINE
  8
0
 10
342.039
 20
15.918
 11
345.281
 21
15.918
  0
LINE
  8
0
 10
345.281
 20
15.918
 11
344.281
 21
14.5779
  0
LINE
  8
0
 10
344.281
 20
14.5779
 11
342.039
 21
14.5779
  0
LINE
  8
0
 10
341.589
 20
10.2003
 11
344.881
 21
14.5779
  0
LINE
  8
0
 10
344.881
 20
14.5779
 11
344.872
 21
14.5779
  0
LINE
  8
0
 10
344.872
 20
14.5779
 11
345.881
 21
15.918
  0
LINE
  8
0
 10
345.881
 20
15.918
 11
348.23
 21
15.918
  0
LINE
  8
0
 10
348.23
 20
15.918
 11
344.931
 21
11.5405
  0
LINE
  8
0
 10
344.931
 20
11.5405
 11
344.939
 21
11.5405
  0
LINE
  8
0
 10
344.939
 20
11.5405
 11
343.939
 21
10.2003
  0
LINE
  8
0
 10
343.939
 20
10.2003
 11
341.589
 21
10.2003
  0
LINE
  8
0
 10
82.8392
 20
10.2003
 11
86.1307
 21
14.5779
  0
LINE
  8
0
 10
86.1307
 20
14.5779
 11
86.1223
 21
14.5779
  0
LINE
  8
0
 10
86.1223
 20
14.5779
 11
87.1305
 21
15.918
  0
LINE
  8
0
 10
87.1305
 20
15.918
 11
89.4804
 21
15.918
  0
LINE
  8
0
 10
89.4804
 20
15.918
 11
86.1806
 21
11.5405
  0
LINE
  8
0
 10
86.1806
 20
11.5405
 11
86.189
 21
11.5405
  0
LINE
  8
0
 10
86.189
 20
11.5405
 11
85.189
 21
10.2003
  0
LINE
  8
0
 10
85.189
 20
10.2003
 11
82.8392
 21
10.2003
  0
LINE
  8
0
 10
-3.41083
 20
10.2003
 11
-0.119339
 21
14.5779
  0
LINE
  8
0
 10
-0.119339
 20
14.5779
 11
-0.127686
 21
14.5779
  0
LINE
  8
0
 10
-0.127686
 20
14.5779
 11
0.880539
 21
15.918
  0
LINE
  8
0
 10
0.880539
 20
15.918
 11
3.23044
 21
15.918
  0
LINE
  8
0
 10
3.23044
 20
15.918
 11
-0.0693665
 21
11.5405
  0
LINE
  8
0
 10
-0.0693665
 20
11.5405
 11
-0.0610199
 21
11.5405
  0
LINE
  8
0
 10
-0.0610199
 20
11.5405
 11
-1.06099
 21
10.2003
  0
LINE
  8
0
 10
-1.06099
 20
10.2003
 11
-3.41083
 21
10.2003
  0
LINE
  8
0
 10
-2.96082
 20
14.5779
 11
-2.96082
 21
15.918
  0
LINE
  8
0
 10
-2.96082
 20
15.918
 11
0.280609
 21
15.918
  0
LINE
  8
0
 10
0.280609
 20
15.918
 11
-0.719345
 21
14.5779
  0
LINE
  8
0
 10
-0.719345
 20
14.5779
 11
-2.96082
 21
14.5779
  0
LINE
  8
0
 10
255.789
 20
14.5779
 11
255.789
 21
15.918
  0
LINE
  8
0
 10
255.789
 20
15.918
 11
259.031
 21
15.918
  0
LINE
  8
0
 10
259.031
 20
15.918
 11
258.031
 21
14.5779
  0
LINE
  8
0
 10
258.031
 20
14.5779
 11
255.789
 21
14.5779
  0
LINE
  8
0
 10
83.2892
 20
14.5779
 11
83.2892
 21
15.918
  0
LINE
  8
0
 10
83.2892
 20
15.918
 11
86.5306
 21
15.918
  0
LINE
  8
0
 10
86.5306
 20
15.918
 11
85.5307
 21
14.5779
  0
LINE
  8
0
 10
85.5307
 20
14.5779
 11
83.2892
 21
14.5779
  0
LINE
  8
0
 10
169.539
 20
14.5779
 11
169.539
 21
15.918
  0
LINE
  8
0
 10
169.539
 20
15.918
 11
172.781
 21
15.918
  0
LINE
  8
0
 10
172.781
 20
15.918
 11
171.781
 21
14.5779
  0
LINE
  8
0
 10
171.781
 20
14.5779
 11
169.539
 21
14.5779
  0
LINE
  8
0
 10
169.089
 20
10.2003
 11
172.381
 21
14.5779
  0
LINE
  8
0
 10
172.381
 20
14.5779
 11
172.372
 21
14.5779
  0
LINE
  8
0
 10
172.372
 20
14.5779
 11
173.381
 21
15.918
  0
LINE
  8
0
 10
173.381
 20
15.918
 11
175.73
 21
15.918
  0
LINE
  8
0
 10
175.73
 20
15.918
 11
172.431
 21
11.5405
  0
LINE
  8
0
 10
172.431
 20
11.5405
 11
172.439
 21
11.5405
  0
LINE
  8
0
 10
172.439
 20
11.5405
 11
171.439
 21
10.2003
  0
LINE
  8
0
 10
171.439
 20
10.2003
 11
169.089
 21
10.2003
  0
LINE
  8
0
 10
255.339
 20
10.2003
 11
258.631
 21
14.5779
  0
LINE
  8
0
 10
258.631
 20
14.5779
 11
258.622
 21
14.5779
  0
LINE
  8
0
 10
258.622
 20
14.5779
 11
259.631
 21
15.918
  0
LINE
  8
0
 10
259.631
 20
15.918
 11
261.98
 21
15.918
  0
LINE
  8
0
 10
261.98
 20
15.918
 11
258.681
 21
11.5405
  0
LINE
  8
0
 10
258.681
 20
11.5405
 11
258.689
 21
11.5405
  0
LINE
  8
0
 10
258.689
 20
11.5405
 11
257.689
 21
10.2003
  0
LINE
  8
0
 10
257.689
 20
10.2003
 11
255.339
 21
10.2003
  0
LINE
  8
0
 10
191.498
 20
15.9143
 11
193.831
 21
15.9143
  0
LINE
  8
0
 10
193.831
 20
15.9143
 11
194.506
 21
15.014
  0
LINE
  8
0
 10
194.506
 20
15.014
 11
193.348
 21
13.4552
  0
LINE
  8
0
 10
193.348
 20
13.4552
 11
191.498
 21
15.9143
  0
LINE
  8
0
 10
288.998
 20
10.2042
 11
293.306
 21
15.9143
  0
LINE
  8
0
 10
293.306
 20
15.9143
 11
295.639
 21
15.9143
  0
LINE
  8
0
 10
295.639
 20
15.9143
 11
291.34
 21
10.2042
  0
LINE
  8
0
 10
291.34
 20
10.2042
 11
288.998
 21
10.2042
  0
LINE
  8
0
 10
386.498
 20
10.2042
 11
390.806
 21
15.9143
  0
LINE
  8
0
 10
390.806
 20
15.9143
 11
393.139
 21
15.9143
  0
LINE
  8
0
 10
393.139
 20
15.9143
 11
388.84
 21
10.2042
  0
LINE
  8
0
 10
388.84
 20
10.2042
 11
386.498
 21
10.2042
  0
LINE
  8
0
 10
288.998
 20
15.9143
 11
291.331
 21
15.9143
  0
LINE
  8
0
 10
291.331
 20
15.9143
 11
292.006
 21
15.014
  0
LINE
  8
0
 10
292.006
 20
15.014
 11
290.848
 21
13.4552
  0
LINE
  8
0
 10
290.848
 20
13.4552
 11
288.998
 21
15.9143
  0
LINE
  8
0
 10
386.498
 20
15.9143
 11
388.831
 21
15.9143
  0
LINE
  8
0
 10
388.831
 20
15.9143
 11
389.506
 21
15.014
  0
LINE
  8
0
 10
389.506
 20
15.014
 11
388.348
 21
13.4552
  0
LINE
  8
0
 10
388.348
 20
13.4552
 11
386.498
 21
15.9143
  0
LINE
  8
0
 10
191.498
 20
10.2042
 11
195.806
 21
15.9143
  0
LINE
  8
0
 10
195.806
 20
15.9143
 11
198.139
 21
15.9143
  0
LINE
  8
0
 10
198.139
 20
15.9143
 11
193.84
 21
10.2042
  0
LINE
  8
0
 10
193.84
 20
10.2042
 11
191.498
 21
10.2042
  0
LINE
  8
0
 10
93.9982
 20
10.2042
 11
98.3062
 21
15.9143
  0
LINE
  8
0
 10
98.3062
 20
15.9143
 11
100.639
 21
15.9143
  0
LINE
  8
0
 10
100.639
 20
15.9143
 11
96.3397
 21
10.2042
  0
LINE
  8
0
 10
96.3397
 20
10.2042
 11
93.9982
 21
10.2042
  0
LINE
  8
0
 10
93.9982
 20
15.9143
 11
96.3313
 21
15.9143
  0
LINE
  8
0
 10
96.3313
 20
15.9143
 11
97.0063
 21
15.014
  0
LINE
  8
0
 10
97.0063
 20
15.014
 11
95.848
 21
13.4552
  0
LINE
  8
0
 10
95.848
 20
13.4552
 11
93.9982
 21
15.9143
  0
LINE
  8
0
 10
137.615
 20
8.7003
 11
137.615
 21
10.9591
  0
LINE
  8
0
 10
137.615
 20
10.9591
 11
139.531
 21
13.5095
  0
LINE
  8
0
 10
139.531
 20
13.5095
 11
139.523
 21
13.5095
  0
LINE
  8
0
 10
139.523
 20
13.5095
 11
140.214
 21
14.418
  0
LINE
  8
0
 10
140.214
 20
14.418
 11
142.672
 21
14.418
  0
LINE
  8
0
 10
142.672
 20
14.418
 11
139.889
 21
11.3174
  0
LINE
  8
0
 10
139.889
 20
11.3174
 11
139.889
 21
8.7003
  0
LINE
  8
0
 10
139.889
 20
8.7003
 11
137.615
 21
8.7003
  0
LINE
  8
0
 10
315.115
 20
8.7003
 11
315.115
 21
10.9591
  0
LINE
  8
0
 10
315.115
 20
10.9591
 11
317.031
 21
13.5095
  0
LINE
  8
0
 10
317.031
 20
13.5095
 11
317.023
 21
13.5095
  0
LINE
  8
0
 10
317.023
 20
13.5095
 11
317.714
 21
14.418
  0
LINE
  8
0
 10
317.714
 20
14.418
 11
320.172
 21
14.418
  0
LINE
  8
0
 10
320.172
 20
14.418
 11
317.389
 21
11.3174
  0
LINE
  8
0
 10
317.389
 20
11.3174
 11
317.389
 21
8.7003
  0
LINE
  8
0
 10
317.389
 20
8.7003
 11
315.115
 21
8.7003
  0
LINE
  8
0
 10
403.865
 20
8.7003
 11
403.865
 21
10.9591
  0
LINE
  8
0
 10
403.865
 20
10.9591
 11
405.781
 21
13.5095
  0
LINE
  8
0
 10
405.781
 20
13.5095
 11
405.773
 21
13.5095
  0
LINE
  8
0
 10
405.773
 20
13.5095
 11
406.464
 21
14.418
  0
LINE
  8
0
 10
406.464
 20
14.418
 11
408.922
 21
14.418
  0
LINE
  8
0
 10
408.922
 20
14.418
 11
406.139
 21
11.3174
  0
LINE
  8
0
 10
406.139
 20
11.3174
 11
406.139
 21
8.7003
  0
LINE
  8
0
 10
406.139
 20
8.7003
 11
403.865
 21
8.7003
  0
LINE
  8
0
 10
48.8645
 20
8.7003
 11
48.8645
 21
10.9591
  0
LINE
  8
0
 10
48.8645
 20
10.9591
 11
50.7811
 21
13.5095
  0
LINE
  8
0
 10
50.7811
 20
13.5095
 11
50.7727
 21
13.5095
  0
LINE
  8
0
 10
50.7727
 20
13.5095
 11
51.4643
 21
14.418
  0
LINE
  8
0
 10
51.4643
 20
14.418
 11
53.9225
 21
14.418
  0
LINE
  8
0
 10
53.9225
 20
14.418
 11
51.1393
 21
11.3174
  0
LINE
  8
0
 10
51.1393
 20
11.3174
 11
51.1393
 21
8.7003
  0
LINE
  8
0
 10
51.1393
 20
8.7003
 11
48.8645
 21
8.7003
  0
LINE
  8
0
 10
226.365
 20
8.7003
 11
226.365
 21
10.9591
  0
LINE
  8
0
 10
226.365
 20
10.9591
 11
228.281
 21
13.5095
  0
LINE
  8
0
 10
228.281
 20
13.5095
 11
228.273
 21
13.5095
  0
LINE
  8
0
 10
228.273
 20
13.5095
 11
228.964
 21
14.418
  0
LINE
  8
0
 10
228.964
 20
14.418
 11
231.422
 21
14.418
  0
LINE
  8
0
 10
231.422
 20
14.418
 11
228.639
 21
11.3174
  0
LINE
  8
0
 10
228.639
 20
11.3174
 11
228.639
 21
8.7003
  0
LINE
  8
0
 10
228.639
 20
8.7003
 11
226.365
 21
8.7003
  0
LINE
  8
0
 10
47.4562
 20
12.8849
 11
46.0813
 21
14.418
  0
LINE
  8
0
 10
46.0813
 20
14.418
 11
48.5312
 21
14.418
  0
LINE
  8
0
 10
48.5312
 20
14.418
 11
49.7061
 21
12.8765
  0
LINE
  8
0
 10
49.7061
 20
12.8765
 11
48.6812
 21
11.5182
  0
LINE
  8
0
 10
48.6812
 20
11.5182
 11
47.4562
 21
12.8849
  0
LINE
  8
0
 10
136.206
 20
12.8849
 11
134.831
 21
14.418
  0
LINE
  8
0
 10
134.831
 20
14.418
 11
137.281
 21
14.418
  0
LINE
  8
0
 10
137.281
 20
14.418
 11
138.456
 21
12.8765
  0
LINE
  8
0
 10
138.456
 20
12.8765
 11
137.431
 21
11.5182
  0
LINE
  8
0
 10
137.431
 20
11.5182
 11
136.206
 21
12.8849
  0
LINE
  8
0
 10
224.956
 20
12.8849
 11
223.581
 21
14.418
  0
LINE
  8
0
 10
223.581
 20
14.418
 11
226.031
 21
14.418
  0
LINE
  8
0
 10
226.031
 20
14.418
 11
227.206
 21
12.8765
  0
LINE
  8
0
 10
227.206
 20
12.8765
 11
226.181
 21
11.5182
  0
LINE
  8
0
 10
226.181
 20
11.5182
 11
224.956
 21
12.8849
  0
LINE
  8
0
 10
313.706
 20
12.8849
 11
312.331
 21
14.418
  0
LINE
  8
0
 10
312.331
 20
14.418
 11
314.781
 21
14.418
  0
LINE
  8
0
 10
314.781
 20
14.418
 11
315.956
 21
12.8765
  0
LINE
  8
0
 10
315.956
 20
12.8765
 11
314.931
 21
11.5182
  0
LINE
  8
0
 10
314.931
 20
11.5182
 11
313.706
 21
12.8849
  0
LINE
  8
0
 10
402.456
 20
12.8849
 11
401.081
 21
14.418
  0
LINE
  8
0
 10
401.081
 20
14.418
 11
403.531
 21
14.418
  0
LINE
  8
0
 10
403.531
 20
14.418
 11
404.706
 21
12.8765
  0
LINE
  8
0
 10
404.706
 20
12.8765
 11
403.681
 21
11.5182
  0
LINE
  8
0
 10
403.681
 20
11.5182
 11
402.456
 21
12.8849
  0
LINE
  8
0
 10
390.798
 20
10.2042
 11
390.115
 21
11.0962
  0
LINE
  8
0
 10
390.115
 20
11.0962
 11
391.29
 21
12.655
  0
LINE
  8
0
 10
391.29
 20
12.655
 11
393.139
 21
10.2042
  0
LINE
  8
0
 10
393.139
 20
10.2042
 11
390.798
 21
10.2042
  0
LINE
  8
0
 10
195.798
 20
10.2042
 11
195.115
 21
11.0962
  0
LINE
  8
0
 10
195.115
 20
11.0962
 11
196.29
 21
12.655
  0
LINE
  8
0
 10
196.29
 20
12.655
 11
198.139
 21
10.2042
  0
LINE
  8
0
 10
198.139
 20
10.2042
 11
195.798
 21
10.2042
  0
LINE
  8
0
 10
98.2979
 20
10.2042
 11
97.6146
 21
11.0962
  0
LINE
  8
0
 10
97.6146
 20
11.0962
 11
98.7895
 21
12.655
  0
LINE
  8
0
 10
98.7895
 20
12.655
 11
100.639
 21
10.2042
  0
LINE
  8
0
 10
100.639
 20
10.2042
 11
98.2979
 21
10.2042
  0
LINE
  8
0
 10
293.298
 20
10.2042
 11
292.615
 21
11.0962
  0
LINE
  8
0
 10
292.615
 20
11.0962
 11
293.79
 21
12.655
  0
LINE
  8
0
 10
293.79
 20
12.655
 11
295.639
 21
10.2042
  0
LINE
  8
0
 10
295.639
 20
10.2042
 11
293.298
 21
10.2042
  0
LINE
  8
0
 10
172.031
 20
10.2003
 11
173.039
 21
11.5405
  0
LINE
  8
0
 10
173.039
 20
11.5405
 11
175.597
 21
11.5405
  0
LINE
  8
0
 10
175.597
 20
11.5405
 11
175.597
 21
10.2003
  0
LINE
  8
0
 10
175.597
 20
10.2003
 11
172.031
 21
10.2003
  0
LINE
  8
0
 10
85.7807
 20
10.2003
 11
86.7889
 21
11.5405
  0
LINE
  8
0
 10
86.7889
 20
11.5405
 11
89.3471
 21
11.5405
  0
LINE
  8
0
 10
89.3471
 20
11.5405
 11
89.3471
 21
10.2003
  0
LINE
  8
0
 10
89.3471
 20
10.2003
 11
85.7807
 21
10.2003
  0
LINE
  8
0
 10
258.281
 20
10.2003
 11
259.289
 21
11.5405
  0
LINE
  8
0
 10
259.289
 20
11.5405
 11
261.847
 21
11.5405
  0
LINE
  8
0
 10
261.847
 20
11.5405
 11
261.847
 21
10.2003
  0
LINE
  8
0
 10
261.847
 20
10.2003
 11
258.281
 21
10.2003
  0
LINE
  8
0
 10
-0.46933
 20
10.2003
 11
0.53891
 21
11.5405
  0
LINE
  8
0
 10
0.53891
 20
11.5405
 11
3.09712
 21
11.5405
  0
LINE
  8
0
 10
3.09712
 20
11.5405
 11
3.09712
 21
10.2003
  0
LINE
  8
0
 10
3.09712
 20
10.2003
 11
-0.46933
 21
10.2003
  0
LINE
  8
0
 10
344.531
 20
10.2003
 11
345.539
 21
11.5405
  0
LINE
  8
0
 10
345.539
 20
11.5405
 11
348.097
 21
11.5405
  0
LINE
  8
0
 10
348.097
 20
11.5405
 11
348.097
 21
10.2003
  0
LINE
  8
0
 10
348.097
 20
10.2003
 11
344.531
 21
10.2003
  0
LINE
  8
0
 10
-44.7301
 20
3.94002
 11
-44.6139
 21
4.04466
  0
LINE
  8
0
 10
-44.6139
 20
4.04466
 11
-44.5319
 21
4.203
  0
LINE
  8
0
 10
-44.5319
 20
4.203
 11
-44.4842
 21
4.41504
  0
LINE
  8
0
 10
-44.4842
 20
4.41504
 11
-44.4588
 21
4.67706
  0
LINE
  8
0
 10
-44.4588
 20
4.67706
 11
-44.4435
 21
4.98538
  0
LINE
  8
0
 10
-44.4435
 20
4.98538
 11
-44.4384
 21
5.34
  0
LINE
  8
0
 10
-44.4384
 20
5.34
 11
-44.4384
 21
6.8149
  0
LINE
  8
0
 10
-44.4384
 20
6.8149
 11
-44.4435
 21
7.16441
  0
LINE
  8
0
 10
-44.4435
 20
7.16441
 11
-44.4588
 21
7.46855
  0
LINE
  8
0
 10
-44.4588
 20
7.46855
 11
-44.4842
 21
7.72731
  0
LINE
  8
0
 10
-44.4842
 20
7.72731
 11
-44.531
 21
7.93797
  0
LINE
  8
0
 10
-44.531
 20
7.93797
 11
-44.6102
 21
8.09772
  0
LINE
  8
0
 10
-44.6102
 20
8.09772
 11
-44.7217
 21
8.20654
  0
LINE
  8
0
 10
-44.7217
 20
8.20654
 11
-44.7134
 21
9.97311
  0
LINE
  8
0
 10
-44.7134
 20
9.97311
 11
-44.3023
 21
9.92958
  0
LINE
  8
0
 10
-44.3023
 20
9.92958
 11
-43.9245
 21
9.84346
  0
LINE
  8
0
 10
-43.9245
 20
9.84346
 11
-43.5802
 21
9.71475
  0
LINE
  8
0
 10
-43.5802
 20
9.71475
 11
-43.2704
 21
9.53841
  0
LINE
  8
0
 10
-43.2704
 20
9.53841
 11
-42.9968
 21
9.30927
  0
LINE
  8
0
 10
-42.9968
 20
9.30927
 11
-42.7594
 21
9.02734
  0
LINE
  8
0
 10
-42.7594
 20
9.02734
 11
-42.5575
 21
8.68985
  0
LINE
  8
0
 10
-42.5575
 20
8.68985
 11
-42.3908
 21
8.29404
  0
LINE
  8
0
 10
-42.3908
 20
8.29404
 11
-42.2594
 21
7.83987
  0
LINE
  8
0
 10
-42.2594
 20
7.83987
 11
-42.1645
 21
7.3223
  0
LINE
  8
0
 10
-42.1645
 20
7.3223
 11
-42.1075
 21
6.73619
  0
LINE
  8
0
 10
-42.1075
 20
6.73619
 11
-42.0885
 21
6.08157
  0
LINE
  8
0
 10
-42.0885
 20
6.08157
 11
-42.1075
 21
5.41728
  0
LINE
  8
0
 10
-42.1075
 20
5.41728
 11
-42.1645
 21
4.82426
  0
LINE
  8
0
 10
-42.1645
 20
4.82426
 11
-42.2594
 21
4.30254
  0
LINE
  8
0
 10
-42.2594
 20
4.30254
 11
-42.3908
 21
3.84607
  0
LINE
  8
0
 10
-42.3908
 20
3.84607
 11
-42.5575
 21
3.44885
  0
LINE
  8
0
 10
-42.5575
 20
3.44885
 11
-42.7594
 21
3.11087
  0
LINE
  8
0
 10
-42.7594
 20
3.11087
 11
-42.9973
 21
2.82941
  0
LINE
  8
0
 10
-42.9973
 20
2.82941
 11
-43.2723
 21
2.60164
  0
LINE
  8
0
 10
-43.2723
 20
2.60164
 11
-43.5843
 21
2.4276
  0
LINE
  8
0
 10
-43.5843
 20
2.4276
 11
-43.9319
 21
2.30214
  0
LINE
  8
0
 10
-43.9319
 20
2.30214
 11
-44.3139
 21
2.2202
  0
LINE
  8
0
 10
-44.3139
 20
2.2202
 11
-44.7301
 21
2.18178
  0
LINE
  8
0
 10
-44.7301
 20
2.18178
 11
-44.7301
 21
3.94002
  0
LINE
  8
0
 10
-45.6448
 20
2.2299
 11
-46.0197
 21
2.31879
  0
LINE
  8
0
 10
-46.0197
 20
2.31879
 11
-46.3632
 21
2.44841
  0
LINE
  8
0
 10
-46.3632
 20
2.44841
 11
-46.6739
 21
2.6248
  0
LINE
  8
0
 10
-46.6739
 20
2.6248
 11
-46.9503
 21
2.85396
  0
LINE
  8
0
 10
-46.9503
 20
2.85396
 11
-47.1924
 21
3.13589
  0
LINE
  8
0
 10
-47.1924
 20
3.13589
 11
-47.3998
 21
3.47337
  0
LINE
  8
0
 10
-47.3998
 20
3.47337
 11
-47.572
 21
3.8692
  0
LINE
  8
0
 10
-47.572
 20
3.8692
 11
-47.709
 21
4.32335
  0
LINE
  8
0
 10
-47.709
 20
4.32335
 11
-47.8085
 21
4.84093
  0
LINE
  8
0
 10
-47.8085
 20
4.84093
 11
-47.8682
 21
5.427
  0
LINE
  8
0
 10
-47.8682
 20
5.427
 11
-47.8881
 21
6.08157
  0
LINE
  8
0
 10
-47.8881
 20
6.08157
 11
-47.8682
 21
6.73109
  0
LINE
  8
0
 10
-47.8682
 20
6.73109
 11
-47.8085
 21
7.31302
  0
LINE
  8
0
 10
-47.8085
 20
7.31302
 11
-47.709
 21
7.82733
  0
LINE
  8
0
 10
-47.709
 20
7.82733
 11
-47.5715
 21
8.27965
  0
LINE
  8
0
 10
-47.5715
 20
8.27965
 11
-47.3979
 21
8.67548
  0
LINE
  8
0
 10
-47.3979
 20
8.67548
 11
-47.1882
 21
9.0148
  0
LINE
  8
0
 10
-47.1882
 20
9.0148
 11
-46.9438
 21
9.29906
  0
LINE
  8
0
 10
-46.9438
 20
9.29906
 11
-46.666
 21
9.52962
  0
LINE
  8
0
 10
-46.666
 20
9.52962
 11
-46.3549
 21
9.70648
  0
LINE
  8
0
 10
-46.3549
 20
9.70648
 11
-46.0115
 21
9.83611
  0
LINE
  8
0
 10
-46.0115
 20
9.83611
 11
-45.6365
 21
9.92499
  0
LINE
  8
0
 10
-45.6365
 20
9.92499
 11
-45.23
 21
9.97311
  0
LINE
  8
0
 10
-45.23
 20
9.97311
 11
-45.23
 21
8.16484
  0
LINE
  8
0
 10
-45.23
 20
8.16484
 11
-45.3555
 21
7.99957
  0
LINE
  8
0
 10
-45.3555
 20
7.99957
 11
-45.443
 21
7.75932
  0
LINE
  8
0
 10
-45.443
 20
7.75932
 11
-45.4925
 21
7.44406
  0
LINE
  8
0
 10
-45.4925
 20
7.44406
 11
-45.5179
 21
7.0575
  0
LINE
  8
0
 10
-45.5179
 20
7.0575
 11
-45.5332
 21
6.60333
  0
LINE
  8
0
 10
-45.5332
 20
6.60333
 11
-45.5383
 21
6.08157
  0
LINE
  8
0
 10
-45.5383
 20
6.08157
 11
-45.5374
 21
5.81216
  0
LINE
  8
0
 10
-45.5374
 20
5.81216
 11
-45.5346
 21
5.5594
  0
LINE
  8
0
 10
-45.5346
 20
5.5594
 11
-45.53
 21
5.32332
  0
LINE
  8
0
 10
-45.53
 20
5.32332
 11
-45.5221
 21
5.10434
  0
LINE
  8
0
 10
-45.5221
 20
5.10434
 11
-45.5096
 21
4.90297
  0
LINE
  8
0
 10
-45.5096
 20
4.90297
 11
-45.4925
 21
4.71918
  0
LINE
  8
0
 10
-45.4925
 20
4.71918
 11
-45.4698
 21
4.55296
  0
LINE
  8
0
 10
-45.4698
 20
4.55296
 11
-45.4406
 21
4.40434
  0
LINE
  8
0
 10
-45.4406
 20
4.40434
 11
-45.405
 21
4.27332
  0
LINE
  8
0
 10
-45.405
 20
4.27332
 11
-45.3605
 21
4.16037
  0
LINE
  8
0
 10
-45.3605
 20
4.16037
 11
-45.305
 21
4.06595
  0
LINE
  8
0
 10
-45.305
 20
4.06595
 11
-45.2384
 21
3.99005
  0
LINE
  8
0
 10
-45.2384
 20
3.99005
 11
-45.2384
 21
2.18178
  0
LINE
  8
0
 10
-45.2384
 20
2.18178
 11
-45.6448
 21
2.2299
  0
LINE
  8
0
 10
450.27
 20
3.94002
 11
450.386
 21
4.04466
  0
LINE
  8
0
 10
450.386
 20
4.04466
 11
450.468
 21
4.203
  0
LINE
  8
0
 10
450.468
 20
4.203
 11
450.516
 21
4.41504
  0
LINE
  8
0
 10
450.516
 20
4.41504
 11
450.541
 21
4.67706
  0
LINE
  8
0
 10
450.541
 20
4.67706
 11
450.557
 21
4.98538
  0
LINE
  8
0
 10
450.557
 20
4.98538
 11
450.562
 21
5.34
  0
LINE
  8
0
 10
450.562
 20
5.34
 11
450.562
 21
6.8149
  0
LINE
  8
0
 10
450.562
 20
6.8149
 11
450.557
 21
7.16441
  0
LINE
  8
0
 10
450.557
 20
7.16441
 11
450.541
 21
7.46855
  0
LINE
  8
0
 10
450.541
 20
7.46855
 11
450.516
 21
7.72731
  0
LINE
  8
0
 10
450.516
 20
7.72731
 11
450.469
 21
7.93797
  0
LINE
  8
0
 10
450.469
 20
7.93797
 11
450.39
 21
8.09772
  0
LINE
  8
0
 10
450.39
 20
8.09772
 11
450.278
 21
8.20654
  0
LINE
  8
0
 10
450.278
 20
8.20654
 11
450.287
 21
9.97311
  0
LINE
  8
0
 10
450.287
 20
9.97311
 11
450.698
 21
9.92958
  0
LINE
  8
0
 10
450.698
 20
9.92958
 11
451.075
 21
9.84346
  0
LINE
  8
0
 10
451.075
 20
9.84346
 11
451.42
 21
9.71475
  0
LINE
  8
0
 10
451.42
 20
9.71475
 11
451.73
 21
9.53841
  0
LINE
  8
0
 10
451.73
 20
9.53841
 11
452.003
 21
9.30927
  0
LINE
  8
0
 10
452.003
 20
9.30927
 11
452.241
 21
9.02734
  0
LINE
  8
0
 10
452.241
 20
9.02734
 11
452.443
 21
8.68985
  0
LINE
  8
0
 10
452.443
 20
8.68985
 11
452.609
 21
8.29404
  0
LINE
  8
0
 10
452.609
 20
8.29404
 11
452.741
 21
7.83987
  0
LINE
  8
0
 10
452.741
 20
7.83987
 11
452.836
 21
7.3223
  0
LINE
  8
0
 10
452.836
 20
7.3223
 11
452.892
 21
6.73619
  0
LINE
  8
0
 10
452.892
 20
6.73619
 11
452.911
 21
6.08157
  0
LINE
  8
0
 10
452.911
 20
6.08157
 11
452.892
 21
5.41728
  0
LINE
  8
0
 10
452.892
 20
5.41728
 11
452.836
 21
4.82426
  0
LINE
  8
0
 10
452.836
 20
4.82426
 11
452.741
 21
4.30254
  0
LINE
  8
0
 10
452.741
 20
4.30254
 11
452.609
 21
3.84607
  0
LINE
  8
0
 10
452.609
 20
3.84607
 11
452.443
 21
3.44885
  0
LINE
  8
0
 10
452.443
 20
3.44885
 11
452.241
 21
3.11087
  0
LINE
  8
0
 10
452.241
 20
3.11087
 11
452.003
 21
2.82941
  0
LINE
  8
0
 10
452.003
 20
2.82941
 11
451.728
 21
2.60164
  0
LINE
  8
0
 10
451.728
 20
2.60164
 11
451.416
 21
2.4276
  0
LINE
  8
0
 10
451.416
 20
2.4276
 11
451.068
 21
2.30214
  0
LINE
  8
0
 10
451.068
 20
2.30214
 11
450.686
 21
2.2202
  0
LINE
  8
0
 10
450.686
 20
2.2202
 11
450.27
 21
2.18178
  0
LINE
  8
0
 10
450.27
 20
2.18178
 11
450.27
 21
3.94002
  0
LINE
  8
0
 10
449.355
 20
2.2299
 11
448.98
 21
2.31879
  0
LINE
  8
0
 10
448.98
 20
2.31879
 11
448.637
 21
2.44841
  0
LINE
  8
0
 10
448.637
 20
2.44841
 11
448.326
 21
2.6248
  0
LINE
  8
0
 10
448.326
 20
2.6248
 11
448.05
 21
2.85396
  0
LINE
  8
0
 10
448.05
 20
2.85396
 11
447.808
 21
3.13589
  0
LINE
  8
0
 10
447.808
 20
3.13589
 11
447.6
 21
3.47337
  0
LINE
  8
0
 10
447.6
 20
3.47337
 11
447.428
 21
3.8692
  0
LINE
  8
0
 10
447.428
 20
3.8692
 11
447.291
 21
4.32335
  0
LINE
  8
0
 10
447.291
 20
4.32335
 11
447.191
 21
4.84093
  0
LINE
  8
0
 10
447.191
 20
4.84093
 11
447.132
 21
5.427
  0
LINE
  8
0
 10
447.132
 20
5.427
 11
447.112
 21
6.08157
  0
LINE
  8
0
 10
447.112
 20
6.08157
 11
447.132
 21
6.73109
  0
LINE
  8
0
 10
447.132
 20
6.73109
 11
447.191
 21
7.31302
  0
LINE
  8
0
 10
447.191
 20
7.31302
 11
447.291
 21
7.82733
  0
LINE
  8
0
 10
447.291
 20
7.82733
 11
447.428
 21
8.27965
  0
LINE
  8
0
 10
447.428
 20
8.27965
 11
447.602
 21
8.67548
  0
LINE
  8
0
 10
447.602
 20
8.67548
 11
447.812
 21
9.0148
  0
LINE
  8
0
 10
447.812
 20
9.0148
 11
448.056
 21
9.29906
  0
LINE
  8
0
 10
448.056
 20
9.29906
 11
448.334
 21
9.52962
  0
LINE
  8
0
 10
448.334
 20
9.52962
 11
448.645
 21
9.70648
  0
LINE
  8
0
 10
448.645
 20
9.70648
 11
448.989
 21
9.83611
  0
LINE
  8
0
 10
448.989
 20
9.83611
 11
449.364
 21
9.92499
  0
LINE
  8
0
 10
449.364
 20
9.92499
 11
449.77
 21
9.97311
  0
LINE
  8
0
 10
449.77
 20
9.97311
 11
449.77
 21
8.16484
  0
LINE
  8
0
 10
449.77
 20
8.16484
 11
449.645
 21
7.99957
  0
LINE
  8
0
 10
449.645
 20
7.99957
 11
449.557
 21
7.75932
  0
LINE
  8
0
 10
449.557
 20
7.75932
 11
449.507
 21
7.44406
  0
LINE
  8
0
 10
449.507
 20
7.44406
 11
449.482
 21
7.0575
  0
LINE
  8
0
 10
449.482
 20
7.0575
 11
449.467
 21
6.60333
  0
LINE
  8
0
 10
449.467
 20
6.60333
 11
449.462
 21
6.08157
  0
LINE
  8
0
 10
449.462
 20
6.08157
 11
449.463
 21
5.81216
  0
LINE
  8
0
 10
449.463
 20
5.81216
 11
449.465
 21
5.5594
  0
LINE
  8
0
 10
449.465
 20
5.5594
 11
449.47
 21
5.32332
  0
LINE
  8
0
 10
449.47
 20
5.32332
 11
449.478
 21
5.10434
  0
LINE
  8
0
 10
449.478
 20
5.10434
 11
449.49
 21
4.90297
  0
LINE
  8
0
 10
449.49
 20
4.90297
 11
449.508
 21
4.71918
  0
LINE
  8
0
 10
449.508
 20
4.71918
 11
449.53
 21
4.55296
  0
LINE
  8
0
 10
449.53
 20
4.55296
 11
449.559
 21
4.40434
  0
LINE
  8
0
 10
449.559
 20
4.40434
 11
449.595
 21
4.27332
  0
LINE
  8
0
 10
449.595
 20
4.27332
 11
449.639
 21
4.16037
  0
LINE
  8
0
 10
449.639
 20
4.16037
 11
449.695
 21
4.06595
  0
LINE
  8
0
 10
449.695
 20
4.06595
 11
449.762
 21
3.99005
  0
LINE
  8
0
 10
449.762
 20
3.99005
 11
449.762
 21
2.18178
  0
LINE
  8
0
 10
449.762
 20
2.18178
 11
449.355
 21
2.2299
  0
LINE
  8
0
 10
440.456
 20
7.38487
 11
439.081
 21
8.91805
  0
LINE
  8
0
 10
439.081
 20
8.91805
 11
441.531
 21
8.91805
  0
LINE
  8
0
 10
441.531
 20
8.91805
 11
442.706
 21
7.37653
  0
LINE
  8
0
 10
442.706
 20
7.37653
 11
441.681
 21
6.01825
  0
LINE
  8
0
 10
441.681
 20
6.01825
 11
440.456
 21
7.38487
  0
LINE
  8
0
 10
441.865
 20
3.2003
 11
441.865
 21
5.45906
  0
LINE
  8
0
 10
441.865
 20
5.45906
 11
443.781
 21
8.00952
  0
LINE
  8
0
 10
443.781
 20
8.00952
 11
443.773
 21
8.00952
  0
LINE
  8
0
 10
443.773
 20
8.00952
 11
444.464
 21
8.91805
  0
LINE
  8
0
 10
444.464
 20
8.91805
 11
446.922
 21
8.91805
  0
LINE
  8
0
 10
446.922
 20
8.91805
 11
444.139
 21
5.81744
  0
LINE
  8
0
 10
444.139
 20
5.81744
 11
444.139
 21
3.2003
  0
LINE
  8
0
 10
444.139
 20
3.2003
 11
441.865
 21
3.2003
  0
LINE
  8
0
 10
-33.9608
 20
7.57788
 11
-33.9608
 21
8.91805
  0
LINE
  8
0
 10
-33.9608
 20
8.91805
 11
-30.7194
 21
8.91805
  0
LINE
  8
0
 10
-30.7194
 20
8.91805
 11
-31.7193
 21
7.57788
  0
LINE
  8
0
 10
-31.7193
 20
7.57788
 11
-33.9608
 21
7.57788
  0
LINE
  8
0
 10
-34.4108
 20
3.2003
 11
-31.1193
 21
7.57788
  0
LINE
  8
0
 10
-31.1193
 20
7.57788
 11
-31.1277
 21
7.57788
  0
LINE
  8
0
 10
-31.1277
 20
7.57788
 11
-30.1195
 21
8.91805
  0
LINE
  8
0
 10
-30.1195
 20
8.91805
 11
-27.7696
 21
8.91805
  0
LINE
  8
0
 10
-27.7696
 20
8.91805
 11
-31.0694
 21
4.54047
  0
LINE
  8
0
 10
-31.0694
 20
4.54047
 11
-31.061
 21
4.54047
  0
LINE
  8
0
 10
-31.061
 20
4.54047
 11
-32.061
 21
3.2003
  0
LINE
  8
0
 10
-32.061
 20
3.2003
 11
-34.4108
 21
3.2003
  0
LINE
  8
0
 10
-41.5018
 20
3.20424
 11
-37.1938
 21
8.91429
  0
LINE
  8
0
 10
-37.1938
 20
8.91429
 11
-34.8606
 21
8.91429
  0
LINE
  8
0
 10
-34.8606
 20
8.91429
 11
-39.1603
 21
3.20424
  0
LINE
  8
0
 10
-39.1603
 20
3.20424
 11
-41.5018
 21
3.20424
  0
LINE
  8
0
 10
-41.5018
 20
8.91429
 11
-39.1687
 21
8.91429
  0
LINE
  8
0
 10
-39.1687
 20
8.91429
 11
-38.4937
 21
8.01399
  0
LINE
  8
0
 10
-38.4937
 20
8.01399
 11
-39.652
 21
6.4552
  0
LINE
  8
0
 10
-39.652
 20
6.4552
 11
-41.5018
 21
8.91429
  0
LINE
  8
0
 10
-37.2021
 20
3.20424
 11
-37.8854
 21
4.09619
  0
LINE
  8
0
 10
-37.8854
 20
4.09619
 11
-36.7105
 21
5.655
  0
LINE
  8
0
 10
-36.7105
 20
5.655
 11
-34.8606
 21
3.20424
  0
LINE
  8
0
 10
-34.8606
 20
3.20424
 11
-37.2021
 21
3.20424
  0
LINE
  8
0
 10
-31.4693
 20
3.2003
 11
-30.4611
 21
4.54047
  0
LINE
  8
0
 10
-30.4611
 20
4.54047
 11
-27.9029
 21
4.54047
  0
LINE
  8
0
 10
-27.9029
 20
4.54047
 11
-27.9029
 21
3.2003
  0
LINE
  8
0
 10
-27.9029
 20
3.2003
 11
-31.4693
 21
3.2003
  0
ENDSEC
  0
SECTION
  2
OBJECTS
  0
DICTIONARY
  0
ENDSEC
  0
EOF
