  0
SECTION
  2
BLOCKS
  0
ENDSEC
  0
SECTION
  2
ENTITIES
  0
LINE
  8
0
 10
195.398
 20
-194.848
 11
195.915
 21
-194.766
  0
LINE
  8
0
 10
195.915
 20
-194.766
 11
196.42
 21
-194.63
  0
LINE
  8
0
 10
196.42
 20
-194.63
 11
196.909
 21
-194.443
  0
LINE
  8
0
 10
196.909
 20
-194.443
 11
197.375
 21
-194.205
  0
LINE
  8
0
 10
197.375
 20
-194.205
 11
197.814
 21
-193.92
  0
LINE
  8
0
 10
197.814
 20
-193.92
 11
198.221
 21
-193.591
  0
LINE
  8
0
 10
198.221
 20
-193.591
 11
198.591
 21
-193.221
  0
LINE
  8
0
 10
198.591
 20
-193.221
 11
198.92
 21
-192.814
  0
LINE
  8
0
 10
198.92
 20
-192.814
 11
199.205
 21
-192.375
  0
LINE
  8
0
 10
199.205
 20
-192.375
 11
199.443
 21
-191.909
  0
LINE
  8
0
 10
199.443
 20
-191.909
 11
199.63
 21
-191.42
  0
LINE
  8
0
 10
199.63
 20
-191.42
 11
199.766
 21
-190.915
  0
LINE
  8
0
 10
199.766
 20
-190.915
 11
199.848
 21
-190.398
  0
LINE
  8
0
 10
199.848
 20
-190.398
 11
199.875
 21
-189.875
  0
LINE
  8
0
 10
199.875
 20
-189.875
 11
199.875
 21
189.875
  0
LINE
  8
0
 10
199.875
 20
189.875
 11
199.848
 21
190.398
  0
LINE
  8
0
 10
199.848
 20
190.398
 11
199.766
 21
190.915
  0
LINE
  8
0
 10
199.766
 20
190.915
 11
199.63
 21
191.42
  0
LINE
  8
0
 10
199.63
 20
191.42
 11
199.443
 21
191.909
  0
LINE
  8
0
 10
199.443
 20
191.909
 11
199.205
 21
192.375
  0
LINE
  8
0
 10
199.205
 20
192.375
 11
198.92
 21
192.814
  0
LINE
  8
0
 10
198.92
 20
192.814
 11
198.591
 21
193.221
  0
LINE
  8
0
 10
198.591
 20
193.221
 11
198.221
 21
193.591
  0
LINE
  8
0
 10
198.221
 20
193.591
 11
197.814
 21
193.92
  0
LINE
  8
0
 10
197.814
 20
193.92
 11
197.375
 21
194.205
  0
LINE
  8
0
 10
197.375
 20
194.205
 11
196.909
 21
194.443
  0
LINE
  8
0
 10
196.909
 20
194.443
 11
196.42
 21
194.63
  0
LINE
  8
0
 10
196.42
 20
194.63
 11
195.915
 21
194.766
  0
LINE
  8
0
 10
195.915
 20
194.766
 11
195.398
 21
194.848
  0
LINE
  8
0
 10
195.398
 20
194.848
 11
194.875
 21
194.875
  0
LINE
  8
0
 10
194.875
 20
194.875
 11
-194.875
 21
194.875
  0
LINE
  8
0
 10
-194.875
 20
194.875
 11
-195.398
 21
194.848
  0
LINE
  8
0
 10
-195.398
 20
194.848
 11
-195.915
 21
194.766
  0
LINE
  8
0
 10
-195.915
 20
194.766
 11
-196.42
 21
194.63
  0
LINE
  8
0
 10
-196.42
 20
194.63
 11
-196.909
 21
194.443
  0
LINE
  8
0
 10
-196.909
 20
194.443
 11
-197.375
 21
194.205
  0
LINE
  8
0
 10
-197.375
 20
194.205
 11
-197.814
 21
193.92
  0
LINE
  8
0
 10
-197.814
 20
193.92
 11
-198.221
 21
193.591
  0
LINE
  8
0
 10
-198.221
 20
193.591
 11
-198.591
 21
193.221
  0
LINE
  8
0
 10
-198.591
 20
193.221
 11
-198.92
 21
192.814
  0
LINE
  8
0
 10
-198.92
 20
192.814
 11
-199.205
 21
192.375
  0
LINE
  8
0
 10
-199.205
 20
192.375
 11
-199.443
 21
191.909
  0
LINE
  8
0
 10
-199.443
 20
191.909
 11
-199.63
 21
191.42
  0
LINE
  8
0
 10
-199.63
 20
191.42
 11
-199.766
 21
190.915
  0
LINE
  8
0
 10
-199.766
 20
190.915
 11
-199.848
 21
190.398
  0
LINE
  8
0
 10
-199.848
 20
190.398
 11
-199.875
 21
189.875
  0
LINE
  8
0
 10
-199.875
 20
189.875
 11
-199.875
 21
-189.875
  0
LINE
  8
0
 10
-199.875
 20
-189.875
 11
-199.848
 21
-190.398
  0
LINE
  8
0
 10
-199.848
 20
-190.398
 11
-199.766
 21
-190.915
  0
LINE
  8
0
 10
-199.766
 20
-190.915
 11
-199.63
 21
-191.42
  0
LINE
  8
0
 10
-199.63
 20
-191.42
 11
-199.443
 21
-191.909
  0
LINE
  8
0
 10
-199.443
 20
-191.909
 11
-199.205
 21
-192.375
  0
LINE
  8
0
 10
-199.205
 20
-192.375
 11
-198.92
 21
-192.814
  0
LINE
  8
0
 10
-198.92
 20
-192.814
 11
-198.591
 21
-193.221
  0
LINE
  8
0
 10
-198.591
 20
-193.221
 11
-198.221
 21
-193.591
  0
LINE
  8
0
 10
-198.221
 20
-193.591
 11
-197.814
 21
-193.92
  0
LINE
  8
0
 10
-197.814
 20
-193.92
 11
-197.375
 21
-194.205
  0
LINE
  8
0
 10
-197.375
 20
-194.205
 11
-196.909
 21
-194.443
  0
LINE
  8
0
 10
-196.909
 20
-194.443
 11
-196.42
 21
-194.63
  0
LINE
  8
0
 10
-196.42
 20
-194.63
 11
-195.915
 21
-194.766
  0
LINE
  8
0
 10
-195.915
 20
-194.766
 11
-195.398
 21
-194.848
  0
LINE
  8
0
 10
-195.398
 20
-194.848
 11
-194.875
 21
-194.875
  0
LINE
  8
0
 10
-194.875
 20
-194.875
 11
194.875
 21
-194.875
  0
LINE
  8
0
 10
194.875
 20
-194.875
 11
195.398
 21
-194.848
  0
LINE
  8
0
 10
192.108
 20
183.771
 11
191.72
 21
183.832
  0
LINE
  8
0
 10
191.72
 20
183.832
 11
191.341
 21
183.934
  0
LINE
  8
0
 10
191.341
 20
183.934
 11
190.975
 21
184.074
  0
LINE
  8
0
 10
190.975
 20
184.074
 11
190.625
 21
184.252
  0
LINE
  8
0
 10
190.625
 20
184.252
 11
190.296
 21
184.466
  0
LINE
  8
0
 10
190.296
 20
184.466
 11
189.991
 21
184.713
  0
LINE
  8
0
 10
189.991
 20
184.713
 11
189.713
 21
184.991
  0
LINE
  8
0
 10
189.713
 20
184.991
 11
189.466
 21
185.296
  0
LINE
  8
0
 10
189.466
 20
185.296
 11
189.252
 21
185.625
  0
LINE
  8
0
 10
189.252
 20
185.625
 11
189.074
 21
185.975
  0
LINE
  8
0
 10
189.074
 20
185.975
 11
188.934
 21
186.341
  0
LINE
  8
0
 10
188.934
 20
186.341
 11
188.832
 21
186.72
  0
LINE
  8
0
 10
188.832
 20
186.72
 11
188.771
 21
187.108
  0
LINE
  8
0
 10
188.771
 20
187.108
 11
188.75
 21
187.5
  0
LINE
  8
0
 10
188.75
 20
187.5
 11
188.771
 21
187.892
  0
LINE
  8
0
 10
188.771
 20
187.892
 11
188.832
 21
188.28
  0
LINE
  8
0
 10
188.832
 20
188.28
 11
188.934
 21
188.659
  0
LINE
  8
0
 10
188.934
 20
188.659
 11
189.074
 21
189.025
  0
LINE
  8
0
 10
189.074
 20
189.025
 11
189.252
 21
189.375
  0
LINE
  8
0
 10
189.252
 20
189.375
 11
189.466
 21
189.704
  0
LINE
  8
0
 10
189.466
 20
189.704
 11
189.713
 21
190.009
  0
LINE
  8
0
 10
189.713
 20
190.009
 11
189.991
 21
190.287
  0
LINE
  8
0
 10
189.991
 20
190.287
 11
190.296
 21
190.534
  0
LINE
  8
0
 10
190.296
 20
190.534
 11
190.625
 21
190.748
  0
LINE
  8
0
 10
190.625
 20
190.748
 11
190.975
 21
190.926
  0
LINE
  8
0
 10
190.975
 20
190.926
 11
191.341
 21
191.066
  0
LINE
  8
0
 10
191.341
 20
191.066
 11
191.72
 21
191.168
  0
LINE
  8
0
 10
191.72
 20
191.168
 11
192.108
 21
191.229
  0
LINE
  8
0
 10
192.108
 20
191.229
 11
192.5
 21
191.25
  0
LINE
  8
0
 10
192.5
 20
191.25
 11
192.892
 21
191.229
  0
LINE
  8
0
 10
192.892
 20
191.229
 11
193.28
 21
191.168
  0
LINE
  8
0
 10
193.28
 20
191.168
 11
193.659
 21
191.066
  0
LINE
  8
0
 10
193.659
 20
191.066
 11
194.025
 21
190.926
  0
LINE
  8
0
 10
194.025
 20
190.926
 11
194.375
 21
190.748
  0
LINE
  8
0
 10
194.375
 20
190.748
 11
194.704
 21
190.534
  0
LINE
  8
0
 10
194.704
 20
190.534
 11
195.009
 21
190.287
  0
LINE
  8
0
 10
195.009
 20
190.287
 11
195.287
 21
190.009
  0
LINE
  8
0
 10
195.287
 20
190.009
 11
195.534
 21
189.704
  0
LINE
  8
0
 10
195.534
 20
189.704
 11
195.748
 21
189.375
  0
LINE
  8
0
 10
195.748
 20
189.375
 11
195.926
 21
189.025
  0
LINE
  8
0
 10
195.926
 20
189.025
 11
196.066
 21
188.659
  0
LINE
  8
0
 10
196.066
 20
188.659
 11
196.168
 21
188.28
  0
LINE
  8
0
 10
196.168
 20
188.28
 11
196.229
 21
187.892
  0
LINE
  8
0
 10
196.229
 20
187.892
 11
196.25
 21
187.5
  0
LINE
  8
0
 10
196.25
 20
187.5
 11
196.229
 21
187.108
  0
LINE
  8
0
 10
196.229
 20
187.108
 11
196.168
 21
186.72
  0
LINE
  8
0
 10
196.168
 20
186.72
 11
196.066
 21
186.341
  0
LINE
  8
0
 10
196.066
 20
186.341
 11
195.926
 21
185.975
  0
LINE
  8
0
 10
195.926
 20
185.975
 11
195.748
 21
185.625
  0
LINE
  8
0
 10
195.748
 20
185.625
 11
195.534
 21
185.296
  0
LINE
  8
0
 10
195.534
 20
185.296
 11
195.287
 21
184.991
  0
LINE
  8
0
 10
195.287
 20
184.991
 11
195.009
 21
184.713
  0
LINE
  8
0
 10
195.009
 20
184.713
 11
194.704
 21
184.466
  0
LINE
  8
0
 10
194.704
 20
184.466
 11
194.375
 21
184.252
  0
LINE
  8
0
 10
194.375
 20
184.252
 11
194.025
 21
184.074
  0
LINE
  8
0
 10
194.025
 20
184.074
 11
193.659
 21
183.934
  0
LINE
  8
0
 10
193.659
 20
183.934
 11
193.28
 21
183.832
  0
LINE
  8
0
 10
193.28
 20
183.832
 11
192.892
 21
183.771
  0
LINE
  8
0
 10
192.892
 20
183.771
 11
192.5
 21
183.75
  0
LINE
  8
0
 10
192.5
 20
183.75
 11
192.108
 21
183.771
  0
LINE
  8
0
 10
-192.892
 20
183.771
 11
-193.28
 21
183.832
  0
LINE
  8
0
 10
-193.28
 20
183.832
 11
-193.659
 21
183.934
  0
LINE
  8
0
 10
-193.659
 20
183.934
 11
-194.025
 21
184.074
  0
LINE
  8
0
 10
-194.025
 20
184.074
 11
-194.375
 21
184.252
  0
LINE
  8
0
 10
-194.375
 20
184.252
 11
-194.704
 21
184.466
  0
LINE
  8
0
 10
-194.704
 20
184.466
 11
-195.009
 21
184.713
  0
LINE
  8
0
 10
-195.009
 20
184.713
 11
-195.287
 21
184.991
  0
LINE
  8
0
 10
-195.287
 20
184.991
 11
-195.534
 21
185.296
  0
LINE
  8
0
 10
-195.534
 20
185.296
 11
-195.748
 21
185.625
  0
LINE
  8
0
 10
-195.748
 20
185.625
 11
-195.926
 21
185.975
  0
LINE
  8
0
 10
-195.926
 20
185.975
 11
-196.066
 21
186.341
  0
LINE
  8
0
 10
-196.066
 20
186.341
 11
-196.168
 21
186.72
  0
LINE
  8
0
 10
-196.168
 20
186.72
 11
-196.229
 21
187.108
  0
LINE
  8
0
 10
-196.229
 20
187.108
 11
-196.25
 21
187.5
  0
LINE
  8
0
 10
-196.25
 20
187.5
 11
-196.229
 21
187.892
  0
LINE
  8
0
 10
-196.229
 20
187.892
 11
-196.168
 21
188.28
  0
LINE
  8
0
 10
-196.168
 20
188.28
 11
-196.066
 21
188.659
  0
LINE
  8
0
 10
-196.066
 20
188.659
 11
-195.926
 21
189.025
  0
LINE
  8
0
 10
-195.926
 20
189.025
 11
-195.748
 21
189.375
  0
LINE
  8
0
 10
-195.748
 20
189.375
 11
-195.534
 21
189.704
  0
LINE
  8
0
 10
-195.534
 20
189.704
 11
-195.287
 21
190.009
  0
LINE
  8
0
 10
-195.287
 20
190.009
 11
-195.009
 21
190.287
  0
LINE
  8
0
 10
-195.009
 20
190.287
 11
-194.704
 21
190.534
  0
LINE
  8
0
 10
-194.704
 20
190.534
 11
-194.375
 21
190.748
  0
LINE
  8
0
 10
-194.375
 20
190.748
 11
-194.025
 21
190.926
  0
LINE
  8
0
 10
-194.025
 20
190.926
 11
-193.659
 21
191.066
  0
LINE
  8
0
 10
-193.659
 20
191.066
 11
-193.28
 21
191.168
  0
LINE
  8
0
 10
-193.28
 20
191.168
 11
-192.892
 21
191.229
  0
LINE
  8
0
 10
-192.892
 20
191.229
 11
-192.5
 21
191.25
  0
LINE
  8
0
 10
-192.5
 20
191.25
 11
-192.108
 21
191.229
  0
LINE
  8
0
 10
-192.108
 20
191.229
 11
-191.72
 21
191.168
  0
LINE
  8
0
 10
-191.72
 20
191.168
 11
-191.341
 21
191.066
  0
LINE
  8
0
 10
-191.341
 20
191.066
 11
-190.975
 21
190.926
  0
LINE
  8
0
 10
-190.975
 20
190.926
 11
-190.625
 21
190.748
  0
LINE
  8
0
 10
-190.625
 20
190.748
 11
-190.296
 21
190.534
  0
LINE
  8
0
 10
-190.296
 20
190.534
 11
-189.991
 21
190.287
  0
LINE
  8
0
 10
-189.991
 20
190.287
 11
-189.713
 21
190.009
  0
LINE
  8
0
 10
-189.713
 20
190.009
 11
-189.466
 21
189.704
  0
LINE
  8
0
 10
-189.466
 20
189.704
 11
-189.252
 21
189.375
  0
LINE
  8
0
 10
-189.252
 20
189.375
 11
-189.074
 21
189.025
  0
LINE
  8
0
 10
-189.074
 20
189.025
 11
-188.934
 21
188.659
  0
LINE
  8
0
 10
-188.934
 20
188.659
 11
-188.832
 21
188.28
  0
LINE
  8
0
 10
-188.832
 20
188.28
 11
-188.771
 21
187.892
  0
LINE
  8
0
 10
-188.771
 20
187.892
 11
-188.75
 21
187.5
  0
LINE
  8
0
 10
-188.75
 20
187.5
 11
-188.771
 21
187.108
  0
LINE
  8
0
 10
-188.771
 20
187.108
 11
-188.832
 21
186.72
  0
LINE
  8
0
 10
-188.832
 20
186.72
 11
-188.934
 21
186.341
  0
LINE
  8
0
 10
-188.934
 20
186.341
 11
-189.074
 21
185.975
  0
LINE
  8
0
 10
-189.074
 20
185.975
 11
-189.252
 21
185.625
  0
LINE
  8
0
 10
-189.252
 20
185.625
 11
-189.466
 21
185.296
  0
LINE
  8
0
 10
-189.466
 20
185.296
 11
-189.713
 21
184.991
  0
LINE
  8
0
 10
-189.713
 20
184.991
 11
-189.991
 21
184.713
  0
LINE
  8
0
 10
-189.991
 20
184.713
 11
-190.296
 21
184.466
  0
LINE
  8
0
 10
-190.296
 20
184.466
 11
-190.625
 21
184.252
  0
LINE
  8
0
 10
-190.625
 20
184.252
 11
-190.975
 21
184.074
  0
LINE
  8
0
 10
-190.975
 20
184.074
 11
-191.341
 21
183.934
  0
LINE
  8
0
 10
-191.341
 20
183.934
 11
-191.72
 21
183.832
  0
LINE
  8
0
 10
-191.72
 20
183.832
 11
-192.108
 21
183.771
  0
LINE
  8
0
 10
-192.108
 20
183.771
 11
-192.5
 21
183.75
  0
LINE
  8
0
 10
-192.5
 20
183.75
 11
-192.892
 21
183.771
  0
LINE
  8
0
 10
-150.309
 20
185.828
 11
-150.549
 21
185.891
  0
LINE
  8
0
 10
-150.549
 20
185.891
 11
-150.777
 21
185.988
  0
LINE
  8
0
 10
-150.777
 20
185.988
 11
-150.989
 21
186.117
  0
LINE
  8
0
 10
-150.989
 20
186.117
 11
-151.18
 21
186.276
  0
LINE
  8
0
 10
-151.18
 20
186.276
 11
-151.346
 21
186.461
  0
LINE
  8
0
 10
-151.346
 20
186.461
 11
-151.482
 21
186.668
  0
LINE
  8
0
 10
-151.482
 20
186.668
 11
-151.588
 21
186.893
  0
LINE
  8
0
 10
-151.588
 20
186.893
 11
-151.659
 21
187.13
  0
LINE
  8
0
 10
-151.659
 20
187.13
 11
-151.695
 21
187.376
  0
LINE
  8
0
 10
-151.695
 20
187.376
 11
-151.695
 21
187.624
  0
LINE
  8
0
 10
-151.695
 20
187.624
 11
-151.659
 21
187.87
  0
LINE
  8
0
 10
-151.659
 20
187.87
 11
-151.588
 21
188.107
  0
LINE
  8
0
 10
-151.588
 20
188.107
 11
-151.482
 21
188.332
  0
LINE
  8
0
 10
-151.482
 20
188.332
 11
-151.346
 21
188.539
  0
LINE
  8
0
 10
-151.346
 20
188.539
 11
-151.18
 21
188.724
  0
LINE
  8
0
 10
-151.18
 20
188.724
 11
-150.989
 21
188.883
  0
LINE
  8
0
 10
-150.989
 20
188.883
 11
-150.777
 21
189.012
  0
LINE
  8
0
 10
-150.777
 20
189.012
 11
-150.549
 21
189.109
  0
LINE
  8
0
 10
-150.549
 20
189.109
 11
-150.309
 21
189.172
  0
LINE
  8
0
 10
-150.309
 20
189.172
 11
-150.062
 21
189.199
  0
LINE
  8
0
 10
-150.062
 20
189.199
 11
-149.814
 21
189.19
  0
LINE
  8
0
 10
-149.814
 20
189.19
 11
-149.57
 21
189.145
  0
LINE
  8
0
 10
-149.57
 20
189.145
 11
-149.335
 21
189.065
  0
LINE
  8
0
 10
-149.335
 20
189.065
 11
-149.114
 21
188.951
  0
LINE
  8
0
 10
-149.114
 20
188.951
 11
-148.913
 21
188.807
  0
LINE
  8
0
 10
-148.913
 20
188.807
 11
-148.734
 21
188.634
  0
LINE
  8
0
 10
-148.734
 20
188.634
 11
-148.582
 21
188.438
  0
LINE
  8
0
 10
-148.582
 20
188.438
 11
-148.461
 21
188.222
  0
LINE
  8
0
 10
-148.461
 20
188.222
 11
-148.372
 21
187.99
  0
LINE
  8
0
 10
-148.372
 20
187.99
 11
-148.318
 21
187.748
  0
LINE
  8
0
 10
-148.318
 20
187.748
 11
-148.3
 21
187.5
  0
LINE
  8
0
 10
-148.3
 20
187.5
 11
-148.318
 21
187.252
  0
LINE
  8
0
 10
-148.318
 20
187.252
 11
-148.372
 21
187.01
  0
LINE
  8
0
 10
-148.372
 20
187.01
 11
-148.461
 21
186.778
  0
LINE
  8
0
 10
-148.461
 20
186.778
 11
-148.582
 21
186.562
  0
LINE
  8
0
 10
-148.582
 20
186.562
 11
-148.734
 21
186.366
  0
LINE
  8
0
 10
-148.734
 20
186.366
 11
-148.913
 21
186.193
  0
LINE
  8
0
 10
-148.913
 20
186.193
 11
-149.114
 21
186.049
  0
LINE
  8
0
 10
-149.114
 20
186.049
 11
-149.335
 21
185.935
  0
LINE
  8
0
 10
-149.335
 20
185.935
 11
-149.57
 21
185.855
  0
LINE
  8
0
 10
-149.57
 20
185.855
 11
-149.814
 21
185.81
  0
LINE
  8
0
 10
-149.814
 20
185.81
 11
-150.062
 21
185.801
  0
LINE
  8
0
 10
-150.062
 20
185.801
 11
-150.309
 21
185.828
  0
LINE
  8
0
 10
149.691
 20
185.828
 11
149.451
 21
185.891
  0
LINE
  8
0
 10
149.451
 20
185.891
 11
149.223
 21
185.988
  0
LINE
  8
0
 10
149.223
 20
185.988
 11
149.011
 21
186.117
  0
LINE
  8
0
 10
149.011
 20
186.117
 11
148.82
 21
186.276
  0
LINE
  8
0
 10
148.82
 20
186.276
 11
148.654
 21
186.461
  0
LINE
  8
0
 10
148.654
 20
186.461
 11
148.518
 21
186.668
  0
LINE
  8
0
 10
148.518
 20
186.668
 11
148.412
 21
186.893
  0
LINE
  8
0
 10
148.412
 20
186.893
 11
148.341
 21
187.13
  0
LINE
  8
0
 10
148.341
 20
187.13
 11
148.305
 21
187.376
  0
LINE
  8
0
 10
148.305
 20
187.376
 11
148.305
 21
187.624
  0
LINE
  8
0
 10
148.305
 20
187.624
 11
148.341
 21
187.87
  0
LINE
  8
0
 10
148.341
 20
187.87
 11
148.412
 21
188.107
  0
LINE
  8
0
 10
148.412
 20
188.107
 11
148.518
 21
188.332
  0
LINE
  8
0
 10
148.518
 20
188.332
 11
148.654
 21
188.539
  0
LINE
  8
0
 10
148.654
 20
188.539
 11
148.82
 21
188.724
  0
LINE
  8
0
 10
148.82
 20
188.724
 11
149.011
 21
188.883
  0
LINE
  8
0
 10
149.011
 20
188.883
 11
149.223
 21
189.012
  0
LINE
  8
0
 10
149.223
 20
189.012
 11
149.451
 21
189.109
  0
LINE
  8
0
 10
149.451
 20
189.109
 11
149.691
 21
189.172
  0
LINE
  8
0
 10
149.691
 20
189.172
 11
149.938
 21
189.199
  0
LINE
  8
0
 10
149.938
 20
189.199
 11
150.186
 21
189.19
  0
LINE
  8
0
 10
150.186
 20
189.19
 11
150.43
 21
189.145
  0
LINE
  8
0
 10
150.43
 20
189.145
 11
150.665
 21
189.065
  0
LINE
  8
0
 10
150.665
 20
189.065
 11
150.886
 21
188.951
  0
LINE
  8
0
 10
150.886
 20
188.951
 11
151.087
 21
188.807
  0
LINE
  8
0
 10
151.087
 20
188.807
 11
151.266
 21
188.634
  0
LINE
  8
0
 10
151.266
 20
188.634
 11
151.418
 21
188.438
  0
LINE
  8
0
 10
151.418
 20
188.438
 11
151.539
 21
188.222
  0
LINE
  8
0
 10
151.539
 20
188.222
 11
151.628
 21
187.99
  0
LINE
  8
0
 10
151.628
 20
187.99
 11
151.682
 21
187.748
  0
LINE
  8
0
 10
151.682
 20
187.748
 11
151.7
 21
187.5
  0
LINE
  8
0
 10
151.7
 20
187.5
 11
151.682
 21
187.252
  0
LINE
  8
0
 10
151.682
 20
187.252
 11
151.628
 21
187.01
  0
LINE
  8
0
 10
151.628
 20
187.01
 11
151.539
 21
186.778
  0
LINE
  8
0
 10
151.539
 20
186.778
 11
151.418
 21
186.562
  0
LINE
  8
0
 10
151.418
 20
186.562
 11
151.266
 21
186.366
  0
LINE
  8
0
 10
151.266
 20
186.366
 11
151.087
 21
186.193
  0
LINE
  8
0
 10
151.087
 20
186.193
 11
150.886
 21
186.049
  0
LINE
  8
0
 10
150.886
 20
186.049
 11
150.665
 21
185.935
  0
LINE
  8
0
 10
150.665
 20
185.935
 11
150.43
 21
185.855
  0
LINE
  8
0
 10
150.43
 20
185.855
 11
150.186
 21
185.81
  0
LINE
  8
0
 10
150.186
 20
185.81
 11
149.938
 21
185.801
  0
LINE
  8
0
 10
149.938
 20
185.801
 11
149.691
 21
185.828
  0
LINE
  8
0
 10
-50.3088
 20
185.828
 11
-50.5489
 21
185.891
  0
LINE
  8
0
 10
-50.5489
 20
185.891
 11
-50.7773
 21
185.988
  0
LINE
  8
0
 10
-50.7773
 20
185.988
 11
-50.9892
 21
186.117
  0
LINE
  8
0
 10
-50.9892
 20
186.117
 11
-51.1799
 21
186.276
  0
LINE
  8
0
 10
-51.1799
 20
186.276
 11
-51.3455
 21
186.461
  0
LINE
  8
0
 10
-51.3455
 20
186.461
 11
-51.4825
 21
186.668
  0
LINE
  8
0
 10
-51.4825
 20
186.668
 11
-51.5878
 21
186.893
  0
LINE
  8
0
 10
-51.5878
 20
186.893
 11
-51.6593
 21
187.13
  0
LINE
  8
0
 10
-51.6593
 20
187.13
 11
-51.6955
 21
187.376
  0
LINE
  8
0
 10
-51.6955
 20
187.376
 11
-51.6955
 21
187.624
  0
LINE
  8
0
 10
-51.6955
 20
187.624
 11
-51.6593
 21
187.87
  0
LINE
  8
0
 10
-51.6593
 20
187.87
 11
-51.5878
 21
188.107
  0
LINE
  8
0
 10
-51.5878
 20
188.107
 11
-51.4825
 21
188.332
  0
LINE
  8
0
 10
-51.4825
 20
188.332
 11
-51.3455
 21
188.539
  0
LINE
  8
0
 10
-51.3455
 20
188.539
 11
-51.1799
 21
188.724
  0
LINE
  8
0
 10
-51.1799
 20
188.724
 11
-50.9892
 21
188.883
  0
LINE
  8
0
 10
-50.9892
 20
188.883
 11
-50.7773
 21
189.012
  0
LINE
  8
0
 10
-50.7773
 20
189.012
 11
-50.5489
 21
189.109
  0
LINE
  8
0
 10
-50.5489
 20
189.109
 11
-50.3088
 21
189.172
  0
LINE
  8
0
 10
-50.3088
 20
189.172
 11
-50.0621
 21
189.199
  0
LINE
  8
0
 10
-50.0621
 20
189.199
 11
-49.8141
 21
189.19
  0
LINE
  8
0
 10
-49.8141
 20
189.19
 11
-49.57
 21
189.145
  0
LINE
  8
0
 10
-49.57
 20
189.145
 11
-49.3351
 21
189.065
  0
LINE
  8
0
 10
-49.3351
 20
189.065
 11
-49.1144
 21
188.951
  0
LINE
  8
0
 10
-49.1144
 20
188.951
 11
-48.9126
 21
188.807
  0
LINE
  8
0
 10
-48.9126
 20
188.807
 11
-48.7339
 21
188.634
  0
LINE
  8
0
 10
-48.7339
 20
188.634
 11
-48.5822
 21
188.438
  0
LINE
  8
0
 10
-48.5822
 20
188.438
 11
-48.4607
 21
188.222
  0
LINE
  8
0
 10
-48.4607
 20
188.222
 11
-48.3721
 21
187.99
  0
LINE
  8
0
 10
-48.3721
 20
187.99
 11
-48.3181
 21
187.748
  0
LINE
  8
0
 10
-48.3181
 20
187.748
 11
-48.3
 21
187.5
  0
LINE
  8
0
 10
-48.3
 20
187.5
 11
-48.3181
 21
187.252
  0
LINE
  8
0
 10
-48.3181
 20
187.252
 11
-48.3721
 21
187.01
  0
LINE
  8
0
 10
-48.3721
 20
187.01
 11
-48.4607
 21
186.778
  0
LINE
  8
0
 10
-48.4607
 20
186.778
 11
-48.5822
 21
186.562
  0
LINE
  8
0
 10
-48.5822
 20
186.562
 11
-48.7339
 21
186.366
  0
LINE
  8
0
 10
-48.7339
 20
186.366
 11
-48.9126
 21
186.193
  0
LINE
  8
0
 10
-48.9126
 20
186.193
 11
-49.1144
 21
186.049
  0
LINE
  8
0
 10
-49.1144
 20
186.049
 11
-49.3351
 21
185.935
  0
LINE
  8
0
 10
-49.3351
 20
185.935
 11
-49.57
 21
185.855
  0
LINE
  8
0
 10
-49.57
 20
185.855
 11
-49.8141
 21
185.81
  0
LINE
  8
0
 10
-49.8141
 20
185.81
 11
-50.0621
 21
185.801
  0
LINE
  8
0
 10
-50.0621
 20
185.801
 11
-50.3088
 21
185.828
  0
LINE
  8
0
 10
50.43
 20
189.145
 11
50.6649
 21
189.065
  0
LINE
  8
0
 10
50.6649
 20
189.065
 11
50.8856
 21
188.951
  0
LINE
  8
0
 10
50.8856
 20
188.951
 11
51.0874
 21
188.807
  0
LINE
  8
0
 10
51.0874
 20
188.807
 11
51.2661
 21
188.634
  0
LINE
  8
0
 10
51.2661
 20
188.634
 11
51.4178
 21
188.438
  0
LINE
  8
0
 10
51.4178
 20
188.438
 11
51.5393
 21
188.222
  0
LINE
  8
0
 10
51.5393
 20
188.222
 11
51.6279
 21
187.99
  0
LINE
  8
0
 10
51.6279
 20
187.99
 11
51.6819
 21
187.748
  0
LINE
  8
0
 10
51.6819
 20
187.748
 11
51.7
 21
187.5
  0
LINE
  8
0
 10
51.7
 20
187.5
 11
51.6819
 21
187.252
  0
LINE
  8
0
 10
51.6819
 20
187.252
 11
51.6279
 21
187.01
  0
LINE
  8
0
 10
51.6279
 20
187.01
 11
51.5393
 21
186.778
  0
LINE
  8
0
 10
51.5393
 20
186.778
 11
51.4178
 21
186.562
  0
LINE
  8
0
 10
51.4178
 20
186.562
 11
51.2661
 21
186.366
  0
LINE
  8
0
 10
51.2661
 20
186.366
 11
51.0874
 21
186.193
  0
LINE
  8
0
 10
51.0874
 20
186.193
 11
50.8856
 21
186.049
  0
LINE
  8
0
 10
50.8856
 20
186.049
 11
50.6649
 21
185.935
  0
LINE
  8
0
 10
50.6649
 20
185.935
 11
50.43
 21
185.855
  0
LINE
  8
0
 10
50.43
 20
185.855
 11
50.1859
 21
185.81
  0
LINE
  8
0
 10
50.1859
 20
185.81
 11
49.9379
 21
185.801
  0
LINE
  8
0
 10
49.9379
 20
185.801
 11
49.6912
 21
185.828
  0
LINE
  8
0
 10
49.6912
 20
185.828
 11
49.4511
 21
185.891
  0
LINE
  8
0
 10
49.4511
 20
185.891
 11
49.2227
 21
185.988
  0
LINE
  8
0
 10
49.2227
 20
185.988
 11
49.0108
 21
186.117
  0
LINE
  8
0
 10
49.0108
 20
186.117
 11
48.8201
 21
186.276
  0
LINE
  8
0
 10
48.8201
 20
186.276
 11
48.6544
 21
186.461
  0
LINE
  8
0
 10
48.6544
 20
186.461
 11
48.5175
 21
186.668
  0
LINE
  8
0
 10
48.5175
 20
186.668
 11
48.4122
 21
186.893
  0
LINE
  8
0
 10
48.4122
 20
186.893
 11
48.3407
 21
187.13
  0
LINE
  8
0
 10
48.3407
 20
187.13
 11
48.3045
 21
187.376
  0
LINE
  8
0
 10
48.3045
 20
187.376
 11
48.3045
 21
187.624
  0
LINE
  8
0
 10
48.3045
 20
187.624
 11
48.3407
 21
187.87
  0
LINE
  8
0
 10
48.3407
 20
187.87
 11
48.4122
 21
188.107
  0
LINE
  8
0
 10
48.4122
 20
188.107
 11
48.5175
 21
188.332
  0
LINE
  8
0
 10
48.5175
 20
188.332
 11
48.6544
 21
188.539
  0
LINE
  8
0
 10
48.6544
 20
188.539
 11
48.8201
 21
188.724
  0
LINE
  8
0
 10
48.8201
 20
188.724
 11
49.0108
 21
188.883
  0
LINE
  8
0
 10
49.0108
 20
188.883
 11
49.2227
 21
189.012
  0
LINE
  8
0
 10
49.2227
 20
189.012
 11
49.4511
 21
189.109
  0
LINE
  8
0
 10
49.4511
 20
189.109
 11
49.6912
 21
189.172
  0
LINE
  8
0
 10
49.6912
 20
189.172
 11
49.9379
 21
189.199
  0
LINE
  8
0
 10
49.9379
 20
189.199
 11
50.1859
 21
189.19
  0
LINE
  8
0
 10
50.1859
 20
189.19
 11
50.43
 21
189.145
  0
LINE
  8
0
 10
192.191
 20
143.328
 11
191.951
 21
143.391
  0
LINE
  8
0
 10
191.951
 20
143.391
 11
191.723
 21
143.488
  0
LINE
  8
0
 10
191.723
 20
143.488
 11
191.511
 21
143.617
  0
LINE
  8
0
 10
191.511
 20
143.617
 11
191.32
 21
143.776
  0
LINE
  8
0
 10
191.32
 20
143.776
 11
191.154
 21
143.961
  0
LINE
  8
0
 10
191.154
 20
143.961
 11
191.018
 21
144.168
  0
LINE
  8
0
 10
191.018
 20
144.168
 11
190.912
 21
144.393
  0
LINE
  8
0
 10
190.912
 20
144.393
 11
190.841
 21
144.63
  0
LINE
  8
0
 10
190.841
 20
144.63
 11
190.805
 21
144.876
  0
LINE
  8
0
 10
190.805
 20
144.876
 11
190.805
 21
145.124
  0
LINE
  8
0
 10
190.805
 20
145.124
 11
190.841
 21
145.37
  0
LINE
  8
0
 10
190.841
 20
145.37
 11
190.912
 21
145.607
  0
LINE
  8
0
 10
190.912
 20
145.607
 11
191.018
 21
145.832
  0
LINE
  8
0
 10
191.018
 20
145.832
 11
191.154
 21
146.039
  0
LINE
  8
0
 10
191.154
 20
146.039
 11
191.32
 21
146.224
  0
LINE
  8
0
 10
191.32
 20
146.224
 11
191.511
 21
146.383
  0
LINE
  8
0
 10
191.511
 20
146.383
 11
191.723
 21
146.512
  0
LINE
  8
0
 10
191.723
 20
146.512
 11
191.951
 21
146.609
  0
LINE
  8
0
 10
191.951
 20
146.609
 11
192.191
 21
146.672
  0
LINE
  8
0
 10
192.191
 20
146.672
 11
192.438
 21
146.699
  0
LINE
  8
0
 10
192.438
 20
146.699
 11
192.686
 21
146.69
  0
LINE
  8
0
 10
192.686
 20
146.69
 11
192.93
 21
146.645
  0
LINE
  8
0
 10
192.93
 20
146.645
 11
193.165
 21
146.565
  0
LINE
  8
0
 10
193.165
 20
146.565
 11
193.386
 21
146.451
  0
LINE
  8
0
 10
193.386
 20
146.451
 11
193.587
 21
146.307
  0
LINE
  8
0
 10
193.587
 20
146.307
 11
193.766
 21
146.134
  0
LINE
  8
0
 10
193.766
 20
146.134
 11
193.918
 21
145.938
  0
LINE
  8
0
 10
193.918
 20
145.938
 11
194.039
 21
145.722
  0
LINE
  8
0
 10
194.039
 20
145.722
 11
194.128
 21
145.49
  0
LINE
  8
0
 10
194.128
 20
145.49
 11
194.182
 21
145.248
  0
LINE
  8
0
 10
194.182
 20
145.248
 11
194.2
 21
145
  0
LINE
  8
0
 10
194.2
 20
145
 11
194.182
 21
144.752
  0
LINE
  8
0
 10
194.182
 20
144.752
 11
194.128
 21
144.51
  0
LINE
  8
0
 10
194.128
 20
144.51
 11
194.039
 21
144.278
  0
LINE
  8
0
 10
194.039
 20
144.278
 11
193.918
 21
144.062
  0
LINE
  8
0
 10
193.918
 20
144.062
 11
193.766
 21
143.866
  0
LINE
  8
0
 10
193.766
 20
143.866
 11
193.587
 21
143.693
  0
LINE
  8
0
 10
193.587
 20
143.693
 11
193.386
 21
143.549
  0
LINE
  8
0
 10
193.386
 20
143.549
 11
193.165
 21
143.435
  0
LINE
  8
0
 10
193.165
 20
143.435
 11
192.93
 21
143.355
  0
LINE
  8
0
 10
192.93
 20
143.355
 11
192.686
 21
143.31
  0
LINE
  8
0
 10
192.686
 20
143.31
 11
192.438
 21
143.301
  0
LINE
  8
0
 10
192.438
 20
143.301
 11
192.191
 21
143.328
  0
LINE
  8
0
 10
-192.686
 20
143.31
 11
-192.93
 21
143.355
  0
LINE
  8
0
 10
-192.93
 20
143.355
 11
-193.165
 21
143.435
  0
LINE
  8
0
 10
-193.165
 20
143.435
 11
-193.386
 21
143.549
  0
LINE
  8
0
 10
-193.386
 20
143.549
 11
-193.587
 21
143.693
  0
LINE
  8
0
 10
-193.587
 20
143.693
 11
-193.766
 21
143.866
  0
LINE
  8
0
 10
-193.766
 20
143.866
 11
-193.918
 21
144.062
  0
LINE
  8
0
 10
-193.918
 20
144.062
 11
-194.039
 21
144.278
  0
LINE
  8
0
 10
-194.039
 20
144.278
 11
-194.128
 21
144.51
  0
LINE
  8
0
 10
-194.128
 20
144.51
 11
-194.182
 21
144.752
  0
LINE
  8
0
 10
-194.182
 20
144.752
 11
-194.2
 21
145
  0
LINE
  8
0
 10
-194.2
 20
145
 11
-194.182
 21
145.248
  0
LINE
  8
0
 10
-194.182
 20
145.248
 11
-194.128
 21
145.49
  0
LINE
  8
0
 10
-194.128
 20
145.49
 11
-194.039
 21
145.722
  0
LINE
  8
0
 10
-194.039
 20
145.722
 11
-193.918
 21
145.938
  0
LINE
  8
0
 10
-193.918
 20
145.938
 11
-193.766
 21
146.134
  0
LINE
  8
0
 10
-193.766
 20
146.134
 11
-193.587
 21
146.307
  0
LINE
  8
0
 10
-193.587
 20
146.307
 11
-193.386
 21
146.451
  0
LINE
  8
0
 10
-193.386
 20
146.451
 11
-193.165
 21
146.565
  0
LINE
  8
0
 10
-193.165
 20
146.565
 11
-192.93
 21
146.645
  0
LINE
  8
0
 10
-192.93
 20
146.645
 11
-192.686
 21
146.69
  0
LINE
  8
0
 10
-192.686
 20
146.69
 11
-192.438
 21
146.699
  0
LINE
  8
0
 10
-192.438
 20
146.699
 11
-192.191
 21
146.672
  0
LINE
  8
0
 10
-192.191
 20
146.672
 11
-191.951
 21
146.609
  0
LINE
  8
0
 10
-191.951
 20
146.609
 11
-191.723
 21
146.512
  0
LINE
  8
0
 10
-191.723
 20
146.512
 11
-191.511
 21
146.383
  0
LINE
  8
0
 10
-191.511
 20
146.383
 11
-191.32
 21
146.224
  0
LINE
  8
0
 10
-191.32
 20
146.224
 11
-191.154
 21
146.039
  0
LINE
  8
0
 10
-191.154
 20
146.039
 11
-191.018
 21
145.832
  0
LINE
  8
0
 10
-191.018
 20
145.832
 11
-190.912
 21
145.607
  0
LINE
  8
0
 10
-190.912
 20
145.607
 11
-190.841
 21
145.37
  0
LINE
  8
0
 10
-190.841
 20
145.37
 11
-190.805
 21
145.124
  0
LINE
  8
0
 10
-190.805
 20
145.124
 11
-190.805
 21
144.876
  0
LINE
  8
0
 10
-190.805
 20
144.876
 11
-190.841
 21
144.63
  0
LINE
  8
0
 10
-190.841
 20
144.63
 11
-190.912
 21
144.393
  0
LINE
  8
0
 10
-190.912
 20
144.393
 11
-191.018
 21
144.168
  0
LINE
  8
0
 10
-191.018
 20
144.168
 11
-191.154
 21
143.961
  0
LINE
  8
0
 10
-191.154
 20
143.961
 11
-191.32
 21
143.776
  0
LINE
  8
0
 10
-191.32
 20
143.776
 11
-191.511
 21
143.617
  0
LINE
  8
0
 10
-191.511
 20
143.617
 11
-191.723
 21
143.488
  0
LINE
  8
0
 10
-191.723
 20
143.488
 11
-191.951
 21
143.391
  0
LINE
  8
0
 10
-191.951
 20
143.391
 11
-192.191
 21
143.328
  0
LINE
  8
0
 10
-192.191
 20
143.328
 11
-192.438
 21
143.301
  0
LINE
  8
0
 10
-192.438
 20
143.301
 11
-192.686
 21
143.31
  0
LINE
  8
0
 10
89.6864
 20
117.016
 11
89.3763
 21
117.066
  0
LINE
  8
0
 10
89.3763
 20
117.066
 11
89.073
 21
117.147
  0
LINE
  8
0
 10
89.073
 20
117.147
 11
88.7798
 21
117.259
  0
LINE
  8
0
 10
88.7798
 20
117.259
 11
88.5
 21
117.402
  0
LINE
  8
0
 10
88.5
 20
117.402
 11
88.2366
 21
117.573
  0
LINE
  8
0
 10
88.2366
 20
117.573
 11
87.9926
 21
117.771
  0
LINE
  8
0
 10
87.9926
 20
117.771
 11
87.7706
 21
117.993
  0
LINE
  8
0
 10
87.7706
 20
117.993
 11
87.573
 21
118.237
  0
LINE
  8
0
 10
87.573
 20
118.237
 11
87.4019
 21
118.5
  0
LINE
  8
0
 10
87.4019
 20
118.5
 11
87.2594
 21
118.78
  0
LINE
  8
0
 10
87.2594
 20
118.78
 11
87.1468
 21
119.073
  0
LINE
  8
0
 10
87.1468
 20
119.073
 11
87.0656
 21
119.376
  0
LINE
  8
0
 10
87.0656
 20
119.376
 11
87.0164
 21
119.686
  0
LINE
  8
0
 10
87.0164
 20
119.686
 11
87
 21
120
  0
LINE
  8
0
 10
87
 20
120
 11
87.0164
 21
120.314
  0
LINE
  8
0
 10
87.0164
 20
120.314
 11
87.0656
 21
120.624
  0
LINE
  8
0
 10
87.0656
 20
120.624
 11
87.1468
 21
120.927
  0
LINE
  8
0
 10
87.1468
 20
120.927
 11
87.2594
 21
121.22
  0
LINE
  8
0
 10
87.2594
 20
121.22
 11
87.4019
 21
121.5
  0
LINE
  8
0
 10
87.4019
 20
121.5
 11
87.573
 21
121.763
  0
LINE
  8
0
 10
87.573
 20
121.763
 11
87.7706
 21
122.007
  0
LINE
  8
0
 10
87.7706
 20
122.007
 11
87.9926
 21
122.229
  0
LINE
  8
0
 10
87.9926
 20
122.229
 11
88.2366
 21
122.427
  0
LINE
  8
0
 10
88.2366
 20
122.427
 11
88.5
 21
122.598
  0
LINE
  8
0
 10
88.5
 20
122.598
 11
88.7798
 21
122.741
  0
LINE
  8
0
 10
88.7798
 20
122.741
 11
89.073
 21
122.853
  0
LINE
  8
0
 10
89.073
 20
122.853
 11
89.3763
 21
122.934
  0
LINE
  8
0
 10
89.3763
 20
122.934
 11
89.6864
 21
122.984
  0
LINE
  8
0
 10
89.6864
 20
122.984
 11
90
 21
123
  0
LINE
  8
0
 10
90
 20
123
 11
90.3136
 21
122.984
  0
LINE
  8
0
 10
90.3136
 20
122.984
 11
90.6237
 21
122.934
  0
LINE
  8
0
 10
90.6237
 20
122.934
 11
90.927
 21
122.853
  0
LINE
  8
0
 10
90.927
 20
122.853
 11
91.2202
 21
122.741
  0
LINE
  8
0
 10
91.2202
 20
122.741
 11
91.5
 21
122.598
  0
LINE
  8
0
 10
91.5
 20
122.598
 11
91.7634
 21
122.427
  0
LINE
  8
0
 10
91.7634
 20
122.427
 11
92.0074
 21
122.229
  0
LINE
  8
0
 10
92.0074
 20
122.229
 11
92.2294
 21
122.007
  0
LINE
  8
0
 10
92.2294
 20
122.007
 11
92.427
 21
121.763
  0
LINE
  8
0
 10
92.427
 20
121.763
 11
92.5981
 21
121.5
  0
LINE
  8
0
 10
92.5981
 20
121.5
 11
92.7406
 21
121.22
  0
LINE
  8
0
 10
92.7406
 20
121.22
 11
92.8532
 21
120.927
  0
LINE
  8
0
 10
92.8532
 20
120.927
 11
92.9344
 21
120.624
  0
LINE
  8
0
 10
92.9344
 20
120.624
 11
92.9836
 21
120.314
  0
LINE
  8
0
 10
92.9836
 20
120.314
 11
93
 21
120
  0
LINE
  8
0
 10
93
 20
120
 11
92.9836
 21
119.686
  0
LINE
  8
0
 10
92.9836
 20
119.686
 11
92.9344
 21
119.376
  0
LINE
  8
0
 10
92.9344
 20
119.376
 11
92.8532
 21
119.073
  0
LINE
  8
0
 10
92.8532
 20
119.073
 11
92.7406
 21
118.78
  0
LINE
  8
0
 10
92.7406
 20
118.78
 11
92.5981
 21
118.5
  0
LINE
  8
0
 10
92.5981
 20
118.5
 11
92.427
 21
118.237
  0
LINE
  8
0
 10
92.427
 20
118.237
 11
92.2294
 21
117.993
  0
LINE
  8
0
 10
92.2294
 20
117.993
 11
92.0074
 21
117.771
  0
LINE
  8
0
 10
92.0074
 20
117.771
 11
91.7634
 21
117.573
  0
LINE
  8
0
 10
91.7634
 20
117.573
 11
91.5
 21
117.402
  0
LINE
  8
0
 10
91.5
 20
117.402
 11
91.2202
 21
117.259
  0
LINE
  8
0
 10
91.2202
 20
117.259
 11
90.927
 21
117.147
  0
LINE
  8
0
 10
90.927
 20
117.147
 11
90.6237
 21
117.066
  0
LINE
  8
0
 10
90.6237
 20
117.066
 11
90.3136
 21
117.016
  0
LINE
  8
0
 10
90.3136
 20
117.016
 11
90
 21
117
  0
LINE
  8
0
 10
90
 20
117
 11
89.6864
 21
117.016
  0
LINE
  8
0
 10
-94.6789
 20
81.0712
 11
-96.0228
 21
81.2841
  0
LINE
  8
0
 10
-96.0228
 20
81.2841
 11
-97.3372
 21
81.6363
  0
LINE
  8
0
 10
-97.3372
 20
81.6363
 11
-98.6076
 21
82.1239
  0
LINE
  8
0
 10
-98.6076
 20
82.1239
 11
-99.82
 21
82.7417
  0
LINE
  8
0
 10
-99.82
 20
82.7417
 11
-100.961
 21
83.4828
  0
LINE
  8
0
 10
-100.961
 20
83.4828
 11
-102.019
 21
84.3391
  0
LINE
  8
0
 10
-102.019
 20
84.3391
 11
-102.981
 21
85.3013
  0
LINE
  8
0
 10
-102.981
 20
85.3013
 11
-103.837
 21
86.3588
  0
LINE
  8
0
 10
-103.837
 20
86.3588
 11
-104.578
 21
87.5
  0
LINE
  8
0
 10
-104.578
 20
87.5
 11
-105.196
 21
88.7124
  0
LINE
  8
0
 10
-105.196
 20
88.7124
 11
-105.684
 21
89.9828
  0
LINE
  8
0
 10
-105.684
 20
89.9828
 11
-106.036
 21
91.2971
  0
LINE
  8
0
 10
-106.036
 20
91.2971
 11
-106.249
 21
92.6411
  0
LINE
  8
0
 10
-106.249
 20
92.6411
 11
-106.32
 21
94
  0
LINE
  8
0
 10
-106.32
 20
94
 11
-106.249
 21
95.3589
  0
LINE
  8
0
 10
-106.249
 20
95.3589
 11
-106.036
 21
96.7029
  0
LINE
  8
0
 10
-106.036
 20
96.7029
 11
-105.684
 21
98.0172
  0
LINE
  8
0
 10
-105.684
 20
98.0172
 11
-105.196
 21
99.2876
  0
LINE
  8
0
 10
-105.196
 20
99.2876
 11
-104.578
 21
100.5
  0
LINE
  8
0
 10
-104.578
 20
100.5
 11
-103.837
 21
101.641
  0
LINE
  8
0
 10
-103.837
 20
101.641
 11
-102.981
 21
102.699
  0
LINE
  8
0
 10
-102.981
 20
102.699
 11
-102.019
 21
103.661
  0
LINE
  8
0
 10
-102.019
 20
103.661
 11
-100.961
 21
104.517
  0
LINE
  8
0
 10
-100.961
 20
104.517
 11
-99.82
 21
105.258
  0
LINE
  8
0
 10
-99.82
 20
105.258
 11
-98.6076
 21
105.876
  0
LINE
  8
0
 10
-98.6076
 20
105.876
 11
-97.3372
 21
106.364
  0
LINE
  8
0
 10
-97.3372
 20
106.364
 11
-96.0228
 21
106.716
  0
LINE
  8
0
 10
-96.0228
 20
106.716
 11
-94.6789
 21
106.929
  0
LINE
  8
0
 10
-94.6789
 20
106.929
 11
-93.32
 21
107
  0
LINE
  8
0
 10
-93.32
 20
107
 11
-91.9611
 21
106.929
  0
LINE
  8
0
 10
-91.9611
 20
106.929
 11
-90.6171
 21
106.716
  0
LINE
  8
0
 10
-90.6171
 20
106.716
 11
-89.3028
 21
106.364
  0
LINE
  8
0
 10
-89.3028
 20
106.364
 11
-88.0324
 21
105.876
  0
LINE
  8
0
 10
-88.0324
 20
105.876
 11
-86.82
 21
105.258
  0
LINE
  8
0
 10
-86.82
 20
105.258
 11
-85.6788
 21
104.517
  0
LINE
  8
0
 10
-85.6788
 20
104.517
 11
-84.6213
 21
103.661
  0
LINE
  8
0
 10
-84.6213
 20
103.661
 11
-83.6591
 21
102.699
  0
LINE
  8
0
 10
-83.6591
 20
102.699
 11
-82.8028
 21
101.641
  0
LINE
  8
0
 10
-82.8028
 20
101.641
 11
-82.0617
 21
100.5
  0
LINE
  8
0
 10
-82.0617
 20
100.5
 11
-81.4439
 21
99.2876
  0
LINE
  8
0
 10
-81.4439
 20
99.2876
 11
-80.9563
 21
98.0172
  0
LINE
  8
0
 10
-80.9563
 20
98.0172
 11
-80.6041
 21
96.7029
  0
LINE
  8
0
 10
-80.6041
 20
96.7029
 11
-80.3912
 21
95.3589
  0
LINE
  8
0
 10
-80.3912
 20
95.3589
 11
-80.32
 21
94
  0
LINE
  8
0
 10
-80.32
 20
94
 11
-80.3912
 21
92.6411
  0
LINE
  8
0
 10
-80.3912
 20
92.6411
 11
-80.6041
 21
91.2971
  0
LINE
  8
0
 10
-80.6041
 20
91.2971
 11
-80.9563
 21
89.9828
  0
LINE
  8
0
 10
-80.9563
 20
89.9828
 11
-81.4439
 21
88.7124
  0
LINE
  8
0
 10
-81.4439
 20
88.7124
 11
-82.0617
 21
87.5
  0
LINE
  8
0
 10
-82.0617
 20
87.5
 11
-82.8028
 21
86.3588
  0
LINE
  8
0
 10
-82.8028
 20
86.3588
 11
-83.6591
 21
85.3013
  0
LINE
  8
0
 10
-83.6591
 20
85.3013
 11
-84.6213
 21
84.3391
  0
LINE
  8
0
 10
-84.6213
 20
84.3391
 11
-85.6788
 21
83.4828
  0
LINE
  8
0
 10
-85.6788
 20
83.4828
 11
-86.82
 21
82.7417
  0
LINE
  8
0
 10
-86.82
 20
82.7417
 11
-88.0324
 21
82.1239
  0
LINE
  8
0
 10
-88.0324
 20
82.1239
 11
-89.3028
 21
81.6363
  0
LINE
  8
0
 10
-89.3028
 20
81.6363
 11
-90.6171
 21
81.2841
  0
LINE
  8
0
 10
-90.6171
 20
81.2841
 11
-91.9611
 21
81.0712
  0
LINE
  8
0
 10
-91.9611
 20
81.0712
 11
-93.32
 21
81
  0
LINE
  8
0
 10
-93.32
 20
81
 11
-94.6789
 21
81.0712
  0
LINE
  8
0
 10
159.826
 20
103.455
 11
159.582
 21
103.496
  0
LINE
  8
0
 10
159.582
 20
103.496
 11
159.347
 21
103.576
  0
LINE
  8
0
 10
159.347
 20
103.576
 11
159.13
 21
103.694
  0
LINE
  8
0
 10
159.13
 20
103.694
 11
158.934
 21
103.846
  0
LINE
  8
0
 10
158.934
 20
103.846
 11
158.766
 21
104.029
  0
LINE
  8
0
 10
158.766
 20
104.029
 11
158.631
 21
104.236
  0
LINE
  8
0
 10
158.631
 20
104.236
 11
158.531
 21
104.463
  0
LINE
  8
0
 10
158.531
 20
104.463
 11
158.47
 21
104.703
  0
LINE
  8
0
 10
158.47
 20
104.703
 11
158.45
 21
104.95
  0
LINE
  8
0
 10
158.45
 20
104.95
 11
158.47
 21
105.197
  0
LINE
  8
0
 10
158.47
 20
105.197
 11
158.531
 21
105.437
  0
LINE
  8
0
 10
158.531
 20
105.437
 11
158.631
 21
105.664
  0
LINE
  8
0
 10
158.631
 20
105.664
 11
158.766
 21
105.871
  0
LINE
  8
0
 10
158.766
 20
105.871
 11
158.934
 21
106.054
  0
LINE
  8
0
 10
158.934
 20
106.054
 11
159.13
 21
106.206
  0
LINE
  8
0
 10
159.13
 20
106.206
 11
159.347
 21
106.324
  0
LINE
  8
0
 10
159.347
 20
106.324
 11
159.582
 21
106.404
  0
LINE
  8
0
 10
159.582
 20
106.404
 11
159.826
 21
106.445
  0
LINE
  8
0
 10
159.826
 20
106.445
 11
160.074
 21
106.445
  0
LINE
  8
0
 10
160.074
 20
106.445
 11
160.318
 21
106.404
  0
LINE
  8
0
 10
160.318
 20
106.404
 11
160.553
 21
106.324
  0
LINE
  8
0
 10
160.553
 20
106.324
 11
160.77
 21
106.206
  0
LINE
  8
0
 10
160.77
 20
106.206
 11
160.966
 21
106.054
  0
LINE
  8
0
 10
160.966
 20
106.054
 11
161.134
 21
105.871
  0
LINE
  8
0
 10
161.134
 20
105.871
 11
161.269
 21
105.664
  0
LINE
  8
0
 10
161.269
 20
105.664
 11
161.369
 21
105.437
  0
LINE
  8
0
 10
161.369
 20
105.437
 11
161.43
 21
105.197
  0
LINE
  8
0
 10
161.43
 20
105.197
 11
161.45
 21
104.95
  0
LINE
  8
0
 10
161.45
 20
104.95
 11
161.43
 21
104.703
  0
LINE
  8
0
 10
161.43
 20
104.703
 11
161.369
 21
104.463
  0
LINE
  8
0
 10
161.369
 20
104.463
 11
161.269
 21
104.236
  0
LINE
  8
0
 10
161.269
 20
104.236
 11
161.134
 21
104.029
  0
LINE
  8
0
 10
161.134
 20
104.029
 11
160.966
 21
103.846
  0
LINE
  8
0
 10
160.966
 20
103.846
 11
160.77
 21
103.694
  0
LINE
  8
0
 10
160.77
 20
103.694
 11
160.553
 21
103.576
  0
LINE
  8
0
 10
160.553
 20
103.576
 11
160.318
 21
103.496
  0
LINE
  8
0
 10
160.318
 20
103.496
 11
160.074
 21
103.455
  0
LINE
  8
0
 10
160.074
 20
103.455
 11
159.826
 21
103.455
  0
LINE
  8
0
 10
-160.074
 20
103.455
 11
-160.318
 21
103.496
  0
LINE
  8
0
 10
-160.318
 20
103.496
 11
-160.553
 21
103.576
  0
LINE
  8
0
 10
-160.553
 20
103.576
 11
-160.77
 21
103.694
  0
LINE
  8
0
 10
-160.77
 20
103.694
 11
-160.966
 21
103.846
  0
LINE
  8
0
 10
-160.966
 20
103.846
 11
-161.134
 21
104.029
  0
LINE
  8
0
 10
-161.134
 20
104.029
 11
-161.269
 21
104.236
  0
LINE
  8
0
 10
-161.269
 20
104.236
 11
-161.369
 21
104.463
  0
LINE
  8
0
 10
-161.369
 20
104.463
 11
-161.43
 21
104.703
  0
LINE
  8
0
 10
-161.43
 20
104.703
 11
-161.45
 21
104.95
  0
LINE
  8
0
 10
-161.45
 20
104.95
 11
-161.43
 21
105.197
  0
LINE
  8
0
 10
-161.43
 20
105.197
 11
-161.369
 21
105.437
  0
LINE
  8
0
 10
-161.369
 20
105.437
 11
-161.269
 21
105.664
  0
LINE
  8
0
 10
-161.269
 20
105.664
 11
-161.134
 21
105.871
  0
LINE
  8
0
 10
-161.134
 20
105.871
 11
-160.966
 21
106.054
  0
LINE
  8
0
 10
-160.966
 20
106.054
 11
-160.77
 21
106.206
  0
LINE
  8
0
 10
-160.77
 20
106.206
 11
-160.553
 21
106.324
  0
LINE
  8
0
 10
-160.553
 20
106.324
 11
-160.318
 21
106.404
  0
LINE
  8
0
 10
-160.318
 20
106.404
 11
-160.074
 21
106.445
  0
LINE
  8
0
 10
-160.074
 20
106.445
 11
-159.826
 21
106.445
  0
LINE
  8
0
 10
-159.826
 20
106.445
 11
-159.582
 21
106.404
  0
LINE
  8
0
 10
-159.582
 20
106.404
 11
-159.347
 21
106.324
  0
LINE
  8
0
 10
-159.347
 20
106.324
 11
-159.13
 21
106.206
  0
LINE
  8
0
 10
-159.13
 20
106.206
 11
-158.934
 21
106.054
  0
LINE
  8
0
 10
-158.934
 20
106.054
 11
-158.766
 21
105.871
  0
LINE
  8
0
 10
-158.766
 20
105.871
 11
-158.631
 21
105.664
  0
LINE
  8
0
 10
-158.631
 20
105.664
 11
-158.531
 21
105.437
  0
LINE
  8
0
 10
-158.531
 20
105.437
 11
-158.47
 21
105.197
  0
LINE
  8
0
 10
-158.47
 20
105.197
 11
-158.45
 21
104.95
  0
LINE
  8
0
 10
-158.45
 20
104.95
 11
-158.47
 21
104.703
  0
LINE
  8
0
 10
-158.47
 20
104.703
 11
-158.531
 21
104.463
  0
LINE
  8
0
 10
-158.531
 20
104.463
 11
-158.631
 21
104.236
  0
LINE
  8
0
 10
-158.631
 20
104.236
 11
-158.766
 21
104.029
  0
LINE
  8
0
 10
-158.766
 20
104.029
 11
-158.934
 21
103.846
  0
LINE
  8
0
 10
-158.934
 20
103.846
 11
-159.13
 21
103.694
  0
LINE
  8
0
 10
-159.13
 20
103.694
 11
-159.347
 21
103.576
  0
LINE
  8
0
 10
-159.347
 20
103.576
 11
-159.582
 21
103.496
  0
LINE
  8
0
 10
-159.582
 20
103.496
 11
-159.826
 21
103.455
  0
LINE
  8
0
 10
-159.826
 20
103.455
 11
-160.074
 21
103.455
  0
LINE
  8
0
 10
-27.5663
 20
69.3138
 11
-27.8095
 21
69.3551
  0
LINE
  8
0
 10
-27.8095
 20
69.3551
 11
-28.0466
 21
69.4234
  0
LINE
  8
0
 10
-28.0466
 20
69.4234
 11
-28.2745
 21
69.5179
  0
LINE
  8
0
 10
-28.2745
 20
69.5179
 11
-28.4905
 21
69.6372
  0
LINE
  8
0
 10
-28.4905
 20
69.6372
 11
-28.6917
 21
69.78
  0
LINE
  8
0
 10
-28.6917
 20
69.78
 11
-28.8756
 21
69.9444
  0
LINE
  8
0
 10
-28.8756
 20
69.9444
 11
-29.04
 21
70.1283
  0
LINE
  8
0
 10
-29.04
 20
70.1283
 11
-29.1828
 21
70.3295
  0
LINE
  8
0
 10
-29.1828
 20
70.3295
 11
-29.3021
 21
70.5455
  0
LINE
  8
0
 10
-29.3021
 20
70.5455
 11
-29.3965
 21
70.7734
  0
LINE
  8
0
 10
-29.3965
 20
70.7734
 11
-29.4648
 21
71.0105
  0
LINE
  8
0
 10
-29.4648
 20
71.0105
 11
-29.5062
 21
71.2537
  0
LINE
  8
0
 10
-29.5062
 20
71.2537
 11
-29.52
 21
71.5
  0
LINE
  8
0
 10
-29.52
 20
71.5
 11
-29.5062
 21
71.7463
  0
LINE
  8
0
 10
-29.5062
 20
71.7463
 11
-29.4648
 21
71.9895
  0
LINE
  8
0
 10
-29.4648
 20
71.9895
 11
-29.3965
 21
72.2266
  0
LINE
  8
0
 10
-29.3965
 20
72.2266
 11
-29.3021
 21
72.4545
  0
LINE
  8
0
 10
-29.3021
 20
72.4545
 11
-29.1828
 21
72.6705
  0
LINE
  8
0
 10
-29.1828
 20
72.6705
 11
-29.04
 21
72.8717
  0
LINE
  8
0
 10
-29.04
 20
72.8717
 11
-28.8756
 21
73.0556
  0
LINE
  8
0
 10
-28.8756
 20
73.0556
 11
-28.6917
 21
73.22
  0
LINE
  8
0
 10
-28.6917
 20
73.22
 11
-28.4905
 21
73.3628
  0
LINE
  8
0
 10
-28.4905
 20
73.3628
 11
-28.2745
 21
73.4821
  0
LINE
  8
0
 10
-28.2745
 20
73.4821
 11
-28.0466
 21
73.5765
  0
LINE
  8
0
 10
-28.0466
 20
73.5765
 11
-27.8095
 21
73.6448
  0
LINE
  8
0
 10
-27.8095
 20
73.6448
 11
-27.5663
 21
73.6862
  0
LINE
  8
0
 10
-27.5663
 20
73.6862
 11
-27.32
 21
73.7
  0
LINE
  8
0
 10
-27.32
 20
73.7
 11
-27.0737
 21
73.6862
  0
LINE
  8
0
 10
-27.0737
 20
73.6862
 11
-26.8304
 21
73.6448
  0
LINE
  8
0
 10
-26.8304
 20
73.6448
 11
-26.5934
 21
73.5765
  0
LINE
  8
0
 10
-26.5934
 20
73.5765
 11
-26.3654
 21
73.4821
  0
LINE
  8
0
 10
-26.3654
 20
73.4821
 11
-26.1495
 21
73.3628
  0
LINE
  8
0
 10
-26.1495
 20
73.3628
 11
-25.9483
 21
73.22
  0
LINE
  8
0
 10
-25.9483
 20
73.22
 11
-25.7644
 21
73.0556
  0
LINE
  8
0
 10
-25.7644
 20
73.0556
 11
-25.6
 21
72.8717
  0
LINE
  8
0
 10
-25.6
 20
72.8717
 11
-25.4572
 21
72.6705
  0
LINE
  8
0
 10
-25.4572
 20
72.6705
 11
-25.3379
 21
72.4545
  0
LINE
  8
0
 10
-25.3379
 20
72.4545
 11
-25.2435
 21
72.2266
  0
LINE
  8
0
 10
-25.2435
 20
72.2266
 11
-25.1752
 21
71.9895
  0
LINE
  8
0
 10
-25.1752
 20
71.9895
 11
-25.1338
 21
71.7463
  0
LINE
  8
0
 10
-25.1338
 20
71.7463
 11
-25.12
 21
71.5
  0
LINE
  8
0
 10
-25.12
 20
71.5
 11
-25.1338
 21
71.2537
  0
LINE
  8
0
 10
-25.1338
 20
71.2537
 11
-25.1752
 21
71.0105
  0
LINE
  8
0
 10
-25.1752
 20
71.0105
 11
-25.2435
 21
70.7734
  0
LINE
  8
0
 10
-25.2435
 20
70.7734
 11
-25.3379
 21
70.5455
  0
LINE
  8
0
 10
-25.3379
 20
70.5455
 11
-25.4572
 21
70.3295
  0
LINE
  8
0
 10
-25.4572
 20
70.3295
 11
-25.6
 21
70.1283
  0
LINE
  8
0
 10
-25.6
 20
70.1283
 11
-25.7644
 21
69.9444
  0
LINE
  8
0
 10
-25.7644
 20
69.9444
 11
-25.9483
 21
69.78
  0
LINE
  8
0
 10
-25.9483
 20
69.78
 11
-26.1495
 21
69.6372
  0
LINE
  8
0
 10
-26.1495
 20
69.6372
 11
-26.3654
 21
69.5179
  0
LINE
  8
0
 10
-26.3654
 20
69.5179
 11
-26.5934
 21
69.4234
  0
LINE
  8
0
 10
-26.5934
 20
69.4234
 11
-26.8304
 21
69.3551
  0
LINE
  8
0
 10
-26.8304
 20
69.3551
 11
-27.0737
 21
69.3138
  0
LINE
  8
0
 10
-27.0737
 20
69.3138
 11
-27.32
 21
69.3
  0
LINE
  8
0
 10
-27.32
 20
69.3
 11
-27.5663
 21
69.3138
  0
LINE
  8
0
 10
-142.566
 20
69.3138
 11
-142.81
 21
69.3551
  0
LINE
  8
0
 10
-142.81
 20
69.3551
 11
-143.047
 21
69.4234
  0
LINE
  8
0
 10
-143.047
 20
69.4234
 11
-143.275
 21
69.5179
  0
LINE
  8
0
 10
-143.275
 20
69.5179
 11
-143.49
 21
69.6372
  0
LINE
  8
0
 10
-143.49
 20
69.6372
 11
-143.692
 21
69.78
  0
LINE
  8
0
 10
-143.692
 20
69.78
 11
-143.876
 21
69.9444
  0
LINE
  8
0
 10
-143.876
 20
69.9444
 11
-144.04
 21
70.1283
  0
LINE
  8
0
 10
-144.04
 20
70.1283
 11
-144.183
 21
70.3295
  0
LINE
  8
0
 10
-144.183
 20
70.3295
 11
-144.302
 21
70.5455
  0
LINE
  8
0
 10
-144.302
 20
70.5455
 11
-144.397
 21
70.7734
  0
LINE
  8
0
 10
-144.397
 20
70.7734
 11
-144.465
 21
71.0105
  0
LINE
  8
0
 10
-144.465
 20
71.0105
 11
-144.506
 21
71.2537
  0
LINE
  8
0
 10
-144.506
 20
71.2537
 11
-144.52
 21
71.5
  0
LINE
  8
0
 10
-144.52
 20
71.5
 11
-144.506
 21
71.7463
  0
LINE
  8
0
 10
-144.506
 20
71.7463
 11
-144.465
 21
71.9895
  0
LINE
  8
0
 10
-144.465
 20
71.9895
 11
-144.397
 21
72.2266
  0
LINE
  8
0
 10
-144.397
 20
72.2266
 11
-144.302
 21
72.4545
  0
LINE
  8
0
 10
-144.302
 20
72.4545
 11
-144.183
 21
72.6705
  0
LINE
  8
0
 10
-144.183
 20
72.6705
 11
-144.04
 21
72.8717
  0
LINE
  8
0
 10
-144.04
 20
72.8717
 11
-143.876
 21
73.0556
  0
LINE
  8
0
 10
-143.876
 20
73.0556
 11
-143.692
 21
73.22
  0
LINE
  8
0
 10
-143.692
 20
73.22
 11
-143.49
 21
73.3628
  0
LINE
  8
0
 10
-143.49
 20
73.3628
 11
-143.275
 21
73.4821
  0
LINE
  8
0
 10
-143.275
 20
73.4821
 11
-143.047
 21
73.5765
  0
LINE
  8
0
 10
-143.047
 20
73.5765
 11
-142.81
 21
73.6448
  0
LINE
  8
0
 10
-142.81
 20
73.6448
 11
-142.566
 21
73.6862
  0
LINE
  8
0
 10
-142.566
 20
73.6862
 11
-142.32
 21
73.7
  0
LINE
  8
0
 10
-142.32
 20
73.7
 11
-142.074
 21
73.6862
  0
LINE
  8
0
 10
-142.074
 20
73.6862
 11
-141.83
 21
73.6448
  0
LINE
  8
0
 10
-141.83
 20
73.6448
 11
-141.593
 21
73.5765
  0
LINE
  8
0
 10
-141.593
 20
73.5765
 11
-141.365
 21
73.4821
  0
LINE
  8
0
 10
-141.365
 20
73.4821
 11
-141.15
 21
73.3628
  0
LINE
  8
0
 10
-141.15
 20
73.3628
 11
-140.948
 21
73.22
  0
LINE
  8
0
 10
-140.948
 20
73.22
 11
-140.764
 21
73.0556
  0
LINE
  8
0
 10
-140.764
 20
73.0556
 11
-140.6
 21
72.8717
  0
LINE
  8
0
 10
-140.6
 20
72.8717
 11
-140.457
 21
72.6705
  0
LINE
  8
0
 10
-140.457
 20
72.6705
 11
-140.338
 21
72.4545
  0
LINE
  8
0
 10
-140.338
 20
72.4545
 11
-140.243
 21
72.2266
  0
LINE
  8
0
 10
-140.243
 20
72.2266
 11
-140.175
 21
71.9895
  0
LINE
  8
0
 10
-140.175
 20
71.9895
 11
-140.134
 21
71.7463
  0
LINE
  8
0
 10
-140.134
 20
71.7463
 11
-140.12
 21
71.5
  0
LINE
  8
0
 10
-140.12
 20
71.5
 11
-140.134
 21
71.2537
  0
LINE
  8
0
 10
-140.134
 20
71.2537
 11
-140.175
 21
71.0105
  0
LINE
  8
0
 10
-140.175
 20
71.0105
 11
-140.243
 21
70.7734
  0
LINE
  8
0
 10
-140.243
 20
70.7734
 11
-140.338
 21
70.5455
  0
LINE
  8
0
 10
-140.338
 20
70.5455
 11
-140.457
 21
70.3295
  0
LINE
  8
0
 10
-140.457
 20
70.3295
 11
-140.6
 21
70.1283
  0
LINE
  8
0
 10
-140.6
 20
70.1283
 11
-140.764
 21
69.9444
  0
LINE
  8
0
 10
-140.764
 20
69.9444
 11
-140.948
 21
69.78
  0
LINE
  8
0
 10
-140.948
 20
69.78
 11
-141.15
 21
69.6372
  0
LINE
  8
0
 10
-141.15
 20
69.6372
 11
-141.365
 21
69.5179
  0
LINE
  8
0
 10
-141.365
 20
69.5179
 11
-141.593
 21
69.4234
  0
LINE
  8
0
 10
-141.593
 20
69.4234
 11
-141.83
 21
69.3551
  0
LINE
  8
0
 10
-141.83
 20
69.3551
 11
-142.074
 21
69.3138
  0
LINE
  8
0
 10
-142.074
 20
69.3138
 11
-142.32
 21
69.3
  0
LINE
  8
0
 10
-142.32
 20
69.3
 11
-142.566
 21
69.3138
  0
LINE
  8
0
 10
-12.5663
 20
69.3138
 11
-12.8095
 21
69.3551
  0
LINE
  8
0
 10
-12.8095
 20
69.3551
 11
-13.0466
 21
69.4234
  0
LINE
  8
0
 10
-13.0466
 20
69.4234
 11
-13.2745
 21
69.5179
  0
LINE
  8
0
 10
-13.2745
 20
69.5179
 11
-13.4905
 21
69.6372
  0
LINE
  8
0
 10
-13.4905
 20
69.6372
 11
-13.6917
 21
69.78
  0
LINE
  8
0
 10
-13.6917
 20
69.78
 11
-13.8756
 21
69.9444
  0
LINE
  8
0
 10
-13.8756
 20
69.9444
 11
-14.04
 21
70.1283
  0
LINE
  8
0
 10
-14.04
 20
70.1283
 11
-14.1828
 21
70.3295
  0
LINE
  8
0
 10
-14.1828
 20
70.3295
 11
-14.3021
 21
70.5455
  0
LINE
  8
0
 10
-14.3021
 20
70.5455
 11
-14.3965
 21
70.7734
  0
LINE
  8
0
 10
-14.3965
 20
70.7734
 11
-14.4648
 21
71.0105
  0
LINE
  8
0
 10
-14.4648
 20
71.0105
 11
-14.5062
 21
71.2537
  0
LINE
  8
0
 10
-14.5062
 20
71.2537
 11
-14.52
 21
71.5
  0
LINE
  8
0
 10
-14.52
 20
71.5
 11
-14.5062
 21
71.7463
  0
LINE
  8
0
 10
-14.5062
 20
71.7463
 11
-14.4648
 21
71.9895
  0
LINE
  8
0
 10
-14.4648
 20
71.9895
 11
-14.3965
 21
72.2266
  0
LINE
  8
0
 10
-14.3965
 20
72.2266
 11
-14.3021
 21
72.4545
  0
LINE
  8
0
 10
-14.3021
 20
72.4545
 11
-14.1828
 21
72.6705
  0
LINE
  8
0
 10
-14.1828
 20
72.6705
 11
-14.04
 21
72.8717
  0
LINE
  8
0
 10
-14.04
 20
72.8717
 11
-13.8756
 21
73.0556
  0
LINE
  8
0
 10
-13.8756
 20
73.0556
 11
-13.6917
 21
73.22
  0
LINE
  8
0
 10
-13.6917
 20
73.22
 11
-13.4905
 21
73.3628
  0
LINE
  8
0
 10
-13.4905
 20
73.3628
 11
-13.2745
 21
73.4821
  0
LINE
  8
0
 10
-13.2745
 20
73.4821
 11
-13.0466
 21
73.5765
  0
LINE
  8
0
 10
-13.0466
 20
73.5765
 11
-12.8095
 21
73.6448
  0
LINE
  8
0
 10
-12.8095
 20
73.6448
 11
-12.5663
 21
73.6862
  0
LINE
  8
0
 10
-12.5663
 20
73.6862
 11
-12.32
 21
73.7
  0
LINE
  8
0
 10
-12.32
 20
73.7
 11
-12.0737
 21
73.6862
  0
LINE
  8
0
 10
-12.0737
 20
73.6862
 11
-11.8304
 21
73.6448
  0
LINE
  8
0
 10
-11.8304
 20
73.6448
 11
-11.5934
 21
73.5765
  0
LINE
  8
0
 10
-11.5934
 20
73.5765
 11
-11.3654
 21
73.4821
  0
LINE
  8
0
 10
-11.3654
 20
73.4821
 11
-11.1495
 21
73.3628
  0
LINE
  8
0
 10
-11.1495
 20
73.3628
 11
-10.9483
 21
73.22
  0
LINE
  8
0
 10
-10.9483
 20
73.22
 11
-10.7644
 21
73.0556
  0
LINE
  8
0
 10
-10.7644
 20
73.0556
 11
-10.6
 21
72.8717
  0
LINE
  8
0
 10
-10.6
 20
72.8717
 11
-10.4572
 21
72.6705
  0
LINE
  8
0
 10
-10.4572
 20
72.6705
 11
-10.3379
 21
72.4545
  0
LINE
  8
0
 10
-10.3379
 20
72.4545
 11
-10.2435
 21
72.2266
  0
LINE
  8
0
 10
-10.2435
 20
72.2266
 11
-10.1752
 21
71.9895
  0
LINE
  8
0
 10
-10.1752
 20
71.9895
 11
-10.1338
 21
71.7463
  0
LINE
  8
0
 10
-10.1338
 20
71.7463
 11
-10.12
 21
71.5
  0
LINE
  8
0
 10
-10.12
 20
71.5
 11
-10.1338
 21
71.2537
  0
LINE
  8
0
 10
-10.1338
 20
71.2537
 11
-10.1752
 21
71.0105
  0
LINE
  8
0
 10
-10.1752
 20
71.0105
 11
-10.2435
 21
70.7734
  0
LINE
  8
0
 10
-10.2435
 20
70.7734
 11
-10.3379
 21
70.5455
  0
LINE
  8
0
 10
-10.3379
 20
70.5455
 11
-10.4572
 21
70.3295
  0
LINE
  8
0
 10
-10.4572
 20
70.3295
 11
-10.6
 21
70.1283
  0
LINE
  8
0
 10
-10.6
 20
70.1283
 11
-10.7644
 21
69.9444
  0
LINE
  8
0
 10
-10.7644
 20
69.9444
 11
-10.9483
 21
69.78
  0
LINE
  8
0
 10
-10.9483
 20
69.78
 11
-11.1495
 21
69.6372
  0
LINE
  8
0
 10
-11.1495
 20
69.6372
 11
-11.3654
 21
69.5179
  0
LINE
  8
0
 10
-11.3654
 20
69.5179
 11
-11.5934
 21
69.4234
  0
LINE
  8
0
 10
-11.5934
 20
69.4234
 11
-11.8304
 21
69.3551
  0
LINE
  8
0
 10
-11.8304
 20
69.3551
 11
-12.0737
 21
69.3138
  0
LINE
  8
0
 10
-12.0737
 20
69.3138
 11
-12.32
 21
69.3
  0
LINE
  8
0
 10
-12.32
 20
69.3
 11
-12.5663
 21
69.3138
  0
LINE
  8
0
 10
192.191
 20
46.6616
 11
191.951
 21
46.7244
  0
LINE
  8
0
 10
191.951
 20
46.7244
 11
191.723
 21
46.8214
  0
LINE
  8
0
 10
191.723
 20
46.8214
 11
191.511
 21
46.9507
  0
LINE
  8
0
 10
191.511
 20
46.9507
 11
191.32
 21
47.1095
  0
LINE
  8
0
 10
191.32
 20
47.1095
 11
191.154
 21
47.2943
  0
LINE
  8
0
 10
191.154
 20
47.2943
 11
191.018
 21
47.5013
  0
LINE
  8
0
 10
191.018
 20
47.5013
 11
190.912
 21
47.726
  0
LINE
  8
0
 10
190.912
 20
47.726
 11
190.841
 21
47.9637
  0
LINE
  8
0
 10
190.841
 20
47.9637
 11
190.805
 21
48.2092
  0
LINE
  8
0
 10
190.805
 20
48.2092
 11
190.805
 21
48.4574
  0
LINE
  8
0
 10
190.805
 20
48.4574
 11
190.841
 21
48.703
  0
LINE
  8
0
 10
190.841
 20
48.703
 11
190.912
 21
48.9406
  0
LINE
  8
0
 10
190.912
 20
48.9406
 11
191.018
 21
49.1653
  0
LINE
  8
0
 10
191.018
 20
49.1653
 11
191.154
 21
49.3723
  0
LINE
  8
0
 10
191.154
 20
49.3723
 11
191.32
 21
49.5572
  0
LINE
  8
0
 10
191.32
 20
49.5572
 11
191.511
 21
49.7159
  0
LINE
  8
0
 10
191.511
 20
49.7159
 11
191.723
 21
49.8452
  0
LINE
  8
0
 10
191.723
 20
49.8452
 11
191.951
 21
49.9423
  0
LINE
  8
0
 10
191.951
 20
49.9423
 11
192.191
 21
50.0051
  0
LINE
  8
0
 10
192.191
 20
50.0051
 11
192.438
 21
50.0322
  0
LINE
  8
0
 10
192.438
 20
50.0322
 11
192.686
 21
50.0231
  0
LINE
  8
0
 10
192.686
 20
50.0231
 11
192.93
 21
49.978
  0
LINE
  8
0
 10
192.93
 20
49.978
 11
193.165
 21
49.8979
  0
LINE
  8
0
 10
193.165
 20
49.8979
 11
193.386
 21
49.7844
  0
LINE
  8
0
 10
193.386
 20
49.7844
 11
193.587
 21
49.64
  0
LINE
  8
0
 10
193.587
 20
49.64
 11
193.766
 21
49.4678
  0
LINE
  8
0
 10
193.766
 20
49.4678
 11
193.918
 21
49.2713
  0
LINE
  8
0
 10
193.918
 20
49.2713
 11
194.039
 21
49.0549
  0
LINE
  8
0
 10
194.039
 20
49.0549
 11
194.128
 21
48.8231
  0
LINE
  8
0
 10
194.128
 20
48.8231
 11
194.182
 21
48.5809
  0
LINE
  8
0
 10
194.182
 20
48.5809
 11
194.2
 21
48.3333
  0
LINE
  8
0
 10
194.2
 20
48.3333
 11
194.182
 21
48.0858
  0
LINE
  8
0
 10
194.182
 20
48.0858
 11
194.128
 21
47.8436
  0
LINE
  8
0
 10
194.128
 20
47.8436
 11
194.039
 21
47.6118
  0
LINE
  8
0
 10
194.039
 20
47.6118
 11
193.918
 21
47.3953
  0
LINE
  8
0
 10
193.918
 20
47.3953
 11
193.766
 21
47.1989
  0
LINE
  8
0
 10
193.766
 20
47.1989
 11
193.587
 21
47.0266
  0
LINE
  8
0
 10
193.587
 20
47.0266
 11
193.386
 21
46.8822
  0
LINE
  8
0
 10
193.386
 20
46.8822
 11
193.165
 21
46.7687
  0
LINE
  8
0
 10
193.165
 20
46.7687
 11
192.93
 21
46.6886
  0
LINE
  8
0
 10
192.93
 20
46.6886
 11
192.686
 21
46.6435
  0
LINE
  8
0
 10
192.686
 20
46.6435
 11
192.438
 21
46.6345
  0
LINE
  8
0
 10
192.438
 20
46.6345
 11
192.191
 21
46.6616
  0
LINE
  8
0
 10
-192.686
 20
46.6435
 11
-192.93
 21
46.6886
  0
LINE
  8
0
 10
-192.93
 20
46.6886
 11
-193.165
 21
46.7687
  0
LINE
  8
0
 10
-193.165
 20
46.7687
 11
-193.386
 21
46.8822
  0
LINE
  8
0
 10
-193.386
 20
46.8822
 11
-193.587
 21
47.0266
  0
LINE
  8
0
 10
-193.587
 20
47.0266
 11
-193.766
 21
47.1989
  0
LINE
  8
0
 10
-193.766
 20
47.1989
 11
-193.918
 21
47.3953
  0
LINE
  8
0
 10
-193.918
 20
47.3953
 11
-194.039
 21
47.6118
  0
LINE
  8
0
 10
-194.039
 20
47.6118
 11
-194.128
 21
47.8436
  0
LINE
  8
0
 10
-194.128
 20
47.8436
 11
-194.182
 21
48.0858
  0
LINE
  8
0
 10
-194.182
 20
48.0858
 11
-194.2
 21
48.3333
  0
LINE
  8
0
 10
-194.2
 20
48.3333
 11
-194.182
 21
48.5809
  0
LINE
  8
0
 10
-194.182
 20
48.5809
 11
-194.128
 21
48.8231
  0
LINE
  8
0
 10
-194.128
 20
48.8231
 11
-194.039
 21
49.0549
  0
LINE
  8
0
 10
-194.039
 20
49.0549
 11
-193.918
 21
49.2713
  0
LINE
  8
0
 10
-193.918
 20
49.2713
 11
-193.766
 21
49.4678
  0
LINE
  8
0
 10
-193.766
 20
49.4678
 11
-193.587
 21
49.64
  0
LINE
  8
0
 10
-193.587
 20
49.64
 11
-193.386
 21
49.7844
  0
LINE
  8
0
 10
-193.386
 20
49.7844
 11
-193.165
 21
49.8979
  0
LINE
  8
0
 10
-193.165
 20
49.8979
 11
-192.93
 21
49.978
  0
LINE
  8
0
 10
-192.93
 20
49.978
 11
-192.686
 21
50.0231
  0
LINE
  8
0
 10
-192.686
 20
50.0231
 11
-192.438
 21
50.0322
  0
LINE
  8
0
 10
-192.438
 20
50.0322
 11
-192.191
 21
50.0051
  0
LINE
  8
0
 10
-192.191
 20
50.0051
 11
-191.951
 21
49.9423
  0
LINE
  8
0
 10
-191.951
 20
49.9423
 11
-191.723
 21
49.8452
  0
LINE
  8
0
 10
-191.723
 20
49.8452
 11
-191.511
 21
49.7159
  0
LINE
  8
0
 10
-191.511
 20
49.7159
 11
-191.32
 21
49.5572
  0
LINE
  8
0
 10
-191.32
 20
49.5572
 11
-191.154
 21
49.3723
  0
LINE
  8
0
 10
-191.154
 20
49.3723
 11
-191.018
 21
49.1653
  0
LINE
  8
0
 10
-191.018
 20
49.1653
 11
-190.912
 21
48.9406
  0
LINE
  8
0
 10
-190.912
 20
48.9406
 11
-190.841
 21
48.703
  0
LINE
  8
0
 10
-190.841
 20
48.703
 11
-190.805
 21
48.4574
  0
LINE
  8
0
 10
-190.805
 20
48.4574
 11
-190.805
 21
48.2092
  0
LINE
  8
0
 10
-190.805
 20
48.2092
 11
-190.841
 21
47.9637
  0
LINE
  8
0
 10
-190.841
 20
47.9637
 11
-190.912
 21
47.726
  0
LINE
  8
0
 10
-190.912
 20
47.726
 11
-191.018
 21
47.5013
  0
LINE
  8
0
 10
-191.018
 20
47.5013
 11
-191.154
 21
47.2943
  0
LINE
  8
0
 10
-191.154
 20
47.2943
 11
-191.32
 21
47.1095
  0
LINE
  8
0
 10
-191.32
 20
47.1095
 11
-191.511
 21
46.9507
  0
LINE
  8
0
 10
-191.511
 20
46.9507
 11
-191.723
 21
46.8214
  0
LINE
  8
0
 10
-191.723
 20
46.8214
 11
-191.951
 21
46.7244
  0
LINE
  8
0
 10
-191.951
 20
46.7244
 11
-192.191
 21
46.6616
  0
LINE
  8
0
 10
-192.191
 20
46.6616
 11
-192.438
 21
46.6345
  0
LINE
  8
0
 10
-192.438
 20
46.6345
 11
-192.686
 21
46.6435
  0
LINE
  8
0
 10
70.7569
 20
28.1213
 11
70.5212
 21
28.1844
  0
LINE
  8
0
 10
70.5212
 20
28.1844
 11
70.3
 21
28.2876
  0
LINE
  8
0
 10
70.3
 20
28.2876
 11
70.1001
 21
28.4275
  0
LINE
  8
0
 10
70.1001
 20
28.4275
 11
69.9275
 21
28.6001
  0
LINE
  8
0
 10
69.9275
 20
28.6001
 11
69.7876
 21
28.8
  0
LINE
  8
0
 10
69.7876
 20
28.8
 11
69.6844
 21
29.0212
  0
LINE
  8
0
 10
69.6844
 20
29.0212
 11
69.6213
 21
29.2569
  0
LINE
  8
0
 10
69.6213
 20
29.2569
 11
69.6
 21
29.5
  0
LINE
  8
0
 10
69.6
 20
29.5
 11
69.6213
 21
29.7431
  0
LINE
  8
0
 10
69.6213
 20
29.7431
 11
69.6844
 21
29.9788
  0
LINE
  8
0
 10
69.6844
 20
29.9788
 11
69.7876
 21
30.2
  0
LINE
  8
0
 10
69.7876
 20
30.2
 11
69.9275
 21
30.3999
  0
LINE
  8
0
 10
69.9275
 20
30.3999
 11
70.1001
 21
30.5724
  0
LINE
  8
0
 10
70.1001
 20
30.5724
 11
70.3
 21
30.7124
  0
LINE
  8
0
 10
70.3
 20
30.7124
 11
70.5212
 21
30.8156
  0
LINE
  8
0
 10
70.5212
 20
30.8156
 11
70.7569
 21
30.8787
  0
LINE
  8
0
 10
70.7569
 20
30.8787
 11
71
 21
30.9
  0
LINE
  8
0
 10
71
 20
30.9
 11
71.2431
 21
30.8787
  0
LINE
  8
0
 10
71.2431
 20
30.8787
 11
71.4788
 21
30.8156
  0
LINE
  8
0
 10
71.4788
 20
30.8156
 11
71.7
 21
30.7124
  0
LINE
  8
0
 10
71.7
 20
30.7124
 11
71.8999
 21
30.5724
  0
LINE
  8
0
 10
71.8999
 20
30.5724
 11
72.0725
 21
30.3999
  0
LINE
  8
0
 10
72.0725
 20
30.3999
 11
72.2124
 21
30.2
  0
LINE
  8
0
 10
72.2124
 20
30.2
 11
72.3156
 21
29.9788
  0
LINE
  8
0
 10
72.3156
 20
29.9788
 11
72.3787
 21
29.7431
  0
LINE
  8
0
 10
72.3787
 20
29.7431
 11
72.4
 21
29.5
  0
LINE
  8
0
 10
72.4
 20
29.5
 11
72.3787
 21
29.2569
  0
LINE
  8
0
 10
72.3787
 20
29.2569
 11
72.3156
 21
29.0212
  0
LINE
  8
0
 10
72.3156
 20
29.0212
 11
72.2124
 21
28.8
  0
LINE
  8
0
 10
72.2124
 20
28.8
 11
72.0725
 21
28.6001
  0
LINE
  8
0
 10
72.0725
 20
28.6001
 11
71.8999
 21
28.4275
  0
LINE
  8
0
 10
71.8999
 20
28.4275
 11
71.7
 21
28.2876
  0
LINE
  8
0
 10
71.7
 20
28.2876
 11
71.4788
 21
28.1844
  0
LINE
  8
0
 10
71.4788
 20
28.1844
 11
71.2431
 21
28.1213
  0
LINE
  8
0
 10
71.2431
 20
28.1213
 11
71
 21
28.1
  0
LINE
  8
0
 10
71
 20
28.1
 11
70.7569
 21
28.1213
  0
LINE
  8
0
 10
128.757
 20
28.1213
 11
128.521
 21
28.1844
  0
LINE
  8
0
 10
128.521
 20
28.1844
 11
128.3
 21
28.2876
  0
LINE
  8
0
 10
128.3
 20
28.2876
 11
128.1
 21
28.4275
  0
LINE
  8
0
 10
128.1
 20
28.4275
 11
127.928
 21
28.6001
  0
LINE
  8
0
 10
127.928
 20
28.6001
 11
127.788
 21
28.8
  0
LINE
  8
0
 10
127.788
 20
28.8
 11
127.684
 21
29.0212
  0
LINE
  8
0
 10
127.684
 20
29.0212
 11
127.621
 21
29.2569
  0
LINE
  8
0
 10
127.621
 20
29.2569
 11
127.6
 21
29.5
  0
LINE
  8
0
 10
127.6
 20
29.5
 11
127.621
 21
29.7431
  0
LINE
  8
0
 10
127.621
 20
29.7431
 11
127.684
 21
29.9788
  0
LINE
  8
0
 10
127.684
 20
29.9788
 11
127.788
 21
30.2
  0
LINE
  8
0
 10
127.788
 20
30.2
 11
127.928
 21
30.3999
  0
LINE
  8
0
 10
127.928
 20
30.3999
 11
128.1
 21
30.5724
  0
LINE
  8
0
 10
128.1
 20
30.5724
 11
128.3
 21
30.7124
  0
LINE
  8
0
 10
128.3
 20
30.7124
 11
128.521
 21
30.8156
  0
LINE
  8
0
 10
128.521
 20
30.8156
 11
128.757
 21
30.8787
  0
LINE
  8
0
 10
128.757
 20
30.8787
 11
129
 21
30.9
  0
LINE
  8
0
 10
129
 20
30.9
 11
129.243
 21
30.8787
  0
LINE
  8
0
 10
129.243
 20
30.8787
 11
129.479
 21
30.8156
  0
LINE
  8
0
 10
129.479
 20
30.8156
 11
129.7
 21
30.7124
  0
LINE
  8
0
 10
129.7
 20
30.7124
 11
129.9
 21
30.5724
  0
LINE
  8
0
 10
129.9
 20
30.5724
 11
130.072
 21
30.3999
  0
LINE
  8
0
 10
130.072
 20
30.3999
 11
130.212
 21
30.2
  0
LINE
  8
0
 10
130.212
 20
30.2
 11
130.316
 21
29.9788
  0
LINE
  8
0
 10
130.316
 20
29.9788
 11
130.379
 21
29.7431
  0
LINE
  8
0
 10
130.379
 20
29.7431
 11
130.4
 21
29.5
  0
LINE
  8
0
 10
130.4
 20
29.5
 11
130.379
 21
29.2569
  0
LINE
  8
0
 10
130.379
 20
29.2569
 11
130.316
 21
29.0212
  0
LINE
  8
0
 10
130.316
 20
29.0212
 11
130.212
 21
28.8
  0
LINE
  8
0
 10
130.212
 20
28.8
 11
130.072
 21
28.6001
  0
LINE
  8
0
 10
130.072
 20
28.6001
 11
129.9
 21
28.4275
  0
LINE
  8
0
 10
129.9
 20
28.4275
 11
129.7
 21
28.2876
  0
LINE
  8
0
 10
129.7
 20
28.2876
 11
129.479
 21
28.1844
  0
LINE
  8
0
 10
129.479
 20
28.1844
 11
129.243
 21
28.1213
  0
LINE
  8
0
 10
129.243
 20
28.1213
 11
129
 21
28.1
  0
LINE
  8
0
 10
129
 20
28.1
 11
128.757
 21
28.1213
  0
LINE
  8
0
 10
127.928
 20
-20.3999
 11
127.788
 21
-20.2
  0
LINE
  8
0
 10
127.788
 20
-20.2
 11
127.684
 21
-19.9788
  0
LINE
  8
0
 10
127.684
 20
-19.9788
 11
127.621
 21
-19.7431
  0
LINE
  8
0
 10
127.621
 20
-19.7431
 11
127.6
 21
-19.5
  0
LINE
  8
0
 10
127.6
 20
-19.5
 11
127.621
 21
-19.2569
  0
LINE
  8
0
 10
127.621
 20
-19.2569
 11
127.684
 21
-19.0212
  0
LINE
  8
0
 10
127.684
 20
-19.0212
 11
127.788
 21
-18.8
  0
LINE
  8
0
 10
127.788
 20
-18.8
 11
127.928
 21
-18.6001
  0
LINE
  8
0
 10
127.928
 20
-18.6001
 11
128.1
 21
-18.4275
  0
LINE
  8
0
 10
128.1
 20
-18.4275
 11
128.3
 21
-18.2876
  0
LINE
  8
0
 10
128.3
 20
-18.2876
 11
128.521
 21
-18.1844
  0
LINE
  8
0
 10
128.521
 20
-18.1844
 11
128.757
 21
-18.1213
  0
LINE
  8
0
 10
128.757
 20
-18.1213
 11
129
 21
-18.1
  0
LINE
  8
0
 10
129
 20
-18.1
 11
129.243
 21
-18.1213
  0
LINE
  8
0
 10
129.243
 20
-18.1213
 11
129.479
 21
-18.1844
  0
LINE
  8
0
 10
129.479
 20
-18.1844
 11
129.7
 21
-18.2876
  0
LINE
  8
0
 10
129.7
 20
-18.2876
 11
129.9
 21
-18.4275
  0
LINE
  8
0
 10
129.9
 20
-18.4275
 11
130.072
 21
-18.6001
  0
LINE
  8
0
 10
130.072
 20
-18.6001
 11
130.212
 21
-18.8
  0
LINE
  8
0
 10
130.212
 20
-18.8
 11
130.316
 21
-19.0212
  0
LINE
  8
0
 10
130.316
 20
-19.0212
 11
130.379
 21
-19.2569
  0
LINE
  8
0
 10
130.379
 20
-19.2569
 11
130.4
 21
-19.5
  0
LINE
  8
0
 10
130.4
 20
-19.5
 11
130.379
 21
-19.7431
  0
LINE
  8
0
 10
130.379
 20
-19.7431
 11
130.316
 21
-19.9788
  0
LINE
  8
0
 10
130.316
 20
-19.9788
 11
130.212
 21
-20.2
  0
LINE
  8
0
 10
130.212
 20
-20.2
 11
130.072
 21
-20.3999
  0
LINE
  8
0
 10
130.072
 20
-20.3999
 11
129.9
 21
-20.5724
  0
LINE
  8
0
 10
129.9
 20
-20.5724
 11
129.7
 21
-20.7124
  0
LINE
  8
0
 10
129.7
 20
-20.7124
 11
129.479
 21
-20.8156
  0
LINE
  8
0
 10
129.479
 20
-20.8156
 11
129.243
 21
-20.8787
  0
LINE
  8
0
 10
129.243
 20
-20.8787
 11
129
 21
-20.9
  0
LINE
  8
0
 10
129
 20
-20.9
 11
128.757
 21
-20.8787
  0
LINE
  8
0
 10
128.757
 20
-20.8787
 11
128.521
 21
-20.8156
  0
LINE
  8
0
 10
128.521
 20
-20.8156
 11
128.3
 21
-20.7124
  0
LINE
  8
0
 10
128.3
 20
-20.7124
 11
128.1
 21
-20.5724
  0
LINE
  8
0
 10
128.1
 20
-20.5724
 11
127.928
 21
-20.3999
  0
LINE
  8
0
 10
-142.566
 20
-22.6862
 11
-142.81
 21
-22.6448
  0
LINE
  8
0
 10
-142.81
 20
-22.6448
 11
-143.047
 21
-22.5765
  0
LINE
  8
0
 10
-143.047
 20
-22.5765
 11
-143.275
 21
-22.4821
  0
LINE
  8
0
 10
-143.275
 20
-22.4821
 11
-143.49
 21
-22.3628
  0
LINE
  8
0
 10
-143.49
 20
-22.3628
 11
-143.692
 21
-22.22
  0
LINE
  8
0
 10
-143.692
 20
-22.22
 11
-143.876
 21
-22.0556
  0
LINE
  8
0
 10
-143.876
 20
-22.0556
 11
-144.04
 21
-21.8717
  0
LINE
  8
0
 10
-144.04
 20
-21.8717
 11
-144.183
 21
-21.6705
  0
LINE
  8
0
 10
-144.183
 20
-21.6705
 11
-144.302
 21
-21.4545
  0
LINE
  8
0
 10
-144.302
 20
-21.4545
 11
-144.397
 21
-21.2266
  0
LINE
  8
0
 10
-144.397
 20
-21.2266
 11
-144.465
 21
-20.9895
  0
LINE
  8
0
 10
-144.465
 20
-20.9895
 11
-144.506
 21
-20.7463
  0
LINE
  8
0
 10
-144.506
 20
-20.7463
 11
-144.52
 21
-20.5
  0
LINE
  8
0
 10
-144.52
 20
-20.5
 11
-144.506
 21
-20.2537
  0
LINE
  8
0
 10
-144.506
 20
-20.2537
 11
-144.465
 21
-20.0105
  0
LINE
  8
0
 10
-144.465
 20
-20.0105
 11
-144.397
 21
-19.7734
  0
LINE
  8
0
 10
-144.397
 20
-19.7734
 11
-144.302
 21
-19.5455
  0
LINE
  8
0
 10
-144.302
 20
-19.5455
 11
-144.183
 21
-19.3295
  0
LINE
  8
0
 10
-144.183
 20
-19.3295
 11
-144.04
 21
-19.1283
  0
LINE
  8
0
 10
-144.04
 20
-19.1283
 11
-143.876
 21
-18.9444
  0
LINE
  8
0
 10
-143.876
 20
-18.9444
 11
-143.692
 21
-18.78
  0
LINE
  8
0
 10
-143.692
 20
-18.78
 11
-143.49
 21
-18.6372
  0
LINE
  8
0
 10
-143.49
 20
-18.6372
 11
-143.275
 21
-18.5179
  0
LINE
  8
0
 10
-143.275
 20
-18.5179
 11
-143.047
 21
-18.4234
  0
LINE
  8
0
 10
-143.047
 20
-18.4234
 11
-142.81
 21
-18.3551
  0
LINE
  8
0
 10
-142.81
 20
-18.3551
 11
-142.566
 21
-18.3138
  0
LINE
  8
0
 10
-142.566
 20
-18.3138
 11
-142.32
 21
-18.3
  0
LINE
  8
0
 10
-142.32
 20
-18.3
 11
-142.074
 21
-18.3138
  0
LINE
  8
0
 10
-142.074
 20
-18.3138
 11
-141.83
 21
-18.3551
  0
LINE
  8
0
 10
-141.83
 20
-18.3551
 11
-141.593
 21
-18.4234
  0
LINE
  8
0
 10
-141.593
 20
-18.4234
 11
-141.365
 21
-18.5179
  0
LINE
  8
0
 10
-141.365
 20
-18.5179
 11
-141.15
 21
-18.6372
  0
LINE
  8
0
 10
-141.15
 20
-18.6372
 11
-140.948
 21
-18.78
  0
LINE
  8
0
 10
-140.948
 20
-18.78
 11
-140.764
 21
-18.9444
  0
LINE
  8
0
 10
-140.764
 20
-18.9444
 11
-140.6
 21
-19.1283
  0
LINE
  8
0
 10
-140.6
 20
-19.1283
 11
-140.457
 21
-19.3295
  0
LINE
  8
0
 10
-140.457
 20
-19.3295
 11
-140.338
 21
-19.5455
  0
LINE
  8
0
 10
-140.338
 20
-19.5455
 11
-140.243
 21
-19.7734
  0
LINE
  8
0
 10
-140.243
 20
-19.7734
 11
-140.175
 21
-20.0105
  0
LINE
  8
0
 10
-140.175
 20
-20.0105
 11
-140.134
 21
-20.2537
  0
LINE
  8
0
 10
-140.134
 20
-20.2537
 11
-140.12
 21
-20.5
  0
LINE
  8
0
 10
-140.12
 20
-20.5
 11
-140.134
 21
-20.7463
  0
LINE
  8
0
 10
-140.134
 20
-20.7463
 11
-140.175
 21
-20.9895
  0
LINE
  8
0
 10
-140.175
 20
-20.9895
 11
-140.243
 21
-21.2266
  0
LINE
  8
0
 10
-140.243
 20
-21.2266
 11
-140.338
 21
-21.4545
  0
LINE
  8
0
 10
-140.338
 20
-21.4545
 11
-140.457
 21
-21.6705
  0
LINE
  8
0
 10
-140.457
 20
-21.6705
 11
-140.6
 21
-21.8717
  0
LINE
  8
0
 10
-140.6
 20
-21.8717
 11
-140.764
 21
-22.0556
  0
LINE
  8
0
 10
-140.764
 20
-22.0556
 11
-140.948
 21
-22.22
  0
LINE
  8
0
 10
-140.948
 20
-22.22
 11
-141.15
 21
-22.3628
  0
LINE
  8
0
 10
-141.15
 20
-22.3628
 11
-141.365
 21
-22.4821
  0
LINE
  8
0
 10
-141.365
 20
-22.4821
 11
-141.593
 21
-22.5765
  0
LINE
  8
0
 10
-141.593
 20
-22.5765
 11
-141.83
 21
-22.6448
  0
LINE
  8
0
 10
-141.83
 20
-22.6448
 11
-142.074
 21
-22.6862
  0
LINE
  8
0
 10
-142.074
 20
-22.6862
 11
-142.32
 21
-22.7
  0
LINE
  8
0
 10
-142.32
 20
-22.7
 11
-142.566
 21
-22.6862
  0
LINE
  8
0
 10
-27.5663
 20
-22.6862
 11
-27.8095
 21
-22.6448
  0
LINE
  8
0
 10
-27.8095
 20
-22.6448
 11
-28.0466
 21
-22.5765
  0
LINE
  8
0
 10
-28.0466
 20
-22.5765
 11
-28.2745
 21
-22.4821
  0
LINE
  8
0
 10
-28.2745
 20
-22.4821
 11
-28.4905
 21
-22.3628
  0
LINE
  8
0
 10
-28.4905
 20
-22.3628
 11
-28.6917
 21
-22.22
  0
LINE
  8
0
 10
-28.6917
 20
-22.22
 11
-28.8756
 21
-22.0556
  0
LINE
  8
0
 10
-28.8756
 20
-22.0556
 11
-29.04
 21
-21.8717
  0
LINE
  8
0
 10
-29.04
 20
-21.8717
 11
-29.1828
 21
-21.6705
  0
LINE
  8
0
 10
-29.1828
 20
-21.6705
 11
-29.3021
 21
-21.4545
  0
LINE
  8
0
 10
-29.3021
 20
-21.4545
 11
-29.3965
 21
-21.2266
  0
LINE
  8
0
 10
-29.3965
 20
-21.2266
 11
-29.4648
 21
-20.9895
  0
LINE
  8
0
 10
-29.4648
 20
-20.9895
 11
-29.5062
 21
-20.7463
  0
LINE
  8
0
 10
-29.5062
 20
-20.7463
 11
-29.52
 21
-20.5
  0
LINE
  8
0
 10
-29.52
 20
-20.5
 11
-29.5062
 21
-20.2537
  0
LINE
  8
0
 10
-29.5062
 20
-20.2537
 11
-29.4648
 21
-20.0105
  0
LINE
  8
0
 10
-29.4648
 20
-20.0105
 11
-29.3965
 21
-19.7734
  0
LINE
  8
0
 10
-29.3965
 20
-19.7734
 11
-29.3021
 21
-19.5455
  0
LINE
  8
0
 10
-29.3021
 20
-19.5455
 11
-29.1828
 21
-19.3295
  0
LINE
  8
0
 10
-29.1828
 20
-19.3295
 11
-29.04
 21
-19.1283
  0
LINE
  8
0
 10
-29.04
 20
-19.1283
 11
-28.8756
 21
-18.9444
  0
LINE
  8
0
 10
-28.8756
 20
-18.9444
 11
-28.6917
 21
-18.78
  0
LINE
  8
0
 10
-28.6917
 20
-18.78
 11
-28.4905
 21
-18.6372
  0
LINE
  8
0
 10
-28.4905
 20
-18.6372
 11
-28.2745
 21
-18.5179
  0
LINE
  8
0
 10
-28.2745
 20
-18.5179
 11
-28.0466
 21
-18.4234
  0
LINE
  8
0
 10
-28.0466
 20
-18.4234
 11
-27.8095
 21
-18.3551
  0
LINE
  8
0
 10
-27.8095
 20
-18.3551
 11
-27.5663
 21
-18.3138
  0
LINE
  8
0
 10
-27.5663
 20
-18.3138
 11
-27.32
 21
-18.3
  0
LINE
  8
0
 10
-27.32
 20
-18.3
 11
-27.0737
 21
-18.3138
  0
LINE
  8
0
 10
-27.0737
 20
-18.3138
 11
-26.8304
 21
-18.3551
  0
LINE
  8
0
 10
-26.8304
 20
-18.3551
 11
-26.5934
 21
-18.4234
  0
LINE
  8
0
 10
-26.5934
 20
-18.4234
 11
-26.3654
 21
-18.5179
  0
LINE
  8
0
 10
-26.3654
 20
-18.5179
 11
-26.1495
 21
-18.6372
  0
LINE
  8
0
 10
-26.1495
 20
-18.6372
 11
-25.9483
 21
-18.78
  0
LINE
  8
0
 10
-25.9483
 20
-18.78
 11
-25.7644
 21
-18.9444
  0
LINE
  8
0
 10
-25.7644
 20
-18.9444
 11
-25.6
 21
-19.1283
  0
LINE
  8
0
 10
-25.6
 20
-19.1283
 11
-25.4572
 21
-19.3295
  0
LINE
  8
0
 10
-25.4572
 20
-19.3295
 11
-25.3379
 21
-19.5455
  0
LINE
  8
0
 10
-25.3379
 20
-19.5455
 11
-25.2435
 21
-19.7734
  0
LINE
  8
0
 10
-25.2435
 20
-19.7734
 11
-25.1752
 21
-20.0105
  0
LINE
  8
0
 10
-25.1752
 20
-20.0105
 11
-25.1338
 21
-20.2537
  0
LINE
  8
0
 10
-25.1338
 20
-20.2537
 11
-25.12
 21
-20.5
  0
LINE
  8
0
 10
-25.12
 20
-20.5
 11
-25.1338
 21
-20.7463
  0
LINE
  8
0
 10
-25.1338
 20
-20.7463
 11
-25.1752
 21
-20.9895
  0
LINE
  8
0
 10
-25.1752
 20
-20.9895
 11
-25.2435
 21
-21.2266
  0
LINE
  8
0
 10
-25.2435
 20
-21.2266
 11
-25.3379
 21
-21.4545
  0
LINE
  8
0
 10
-25.3379
 20
-21.4545
 11
-25.4572
 21
-21.6705
  0
LINE
  8
0
 10
-25.4572
 20
-21.6705
 11
-25.6
 21
-21.8717
  0
LINE
  8
0
 10
-25.6
 20
-21.8717
 11
-25.7644
 21
-22.0556
  0
LINE
  8
0
 10
-25.7644
 20
-22.0556
 11
-25.9483
 21
-22.22
  0
LINE
  8
0
 10
-25.9483
 20
-22.22
 11
-26.1495
 21
-22.3628
  0
LINE
  8
0
 10
-26.1495
 20
-22.3628
 11
-26.3654
 21
-22.4821
  0
LINE
  8
0
 10
-26.3654
 20
-22.4821
 11
-26.5934
 21
-22.5765
  0
LINE
  8
0
 10
-26.5934
 20
-22.5765
 11
-26.8304
 21
-22.6448
  0
LINE
  8
0
 10
-26.8304
 20
-22.6448
 11
-27.0737
 21
-22.6862
  0
LINE
  8
0
 10
-27.0737
 20
-22.6862
 11
-27.32
 21
-22.7
  0
LINE
  8
0
 10
-27.32
 20
-22.7
 11
-27.5663
 21
-22.6862
  0
LINE
  8
0
 10
-142.566
 20
-40.6862
 11
-142.81
 21
-40.6448
  0
LINE
  8
0
 10
-142.81
 20
-40.6448
 11
-143.047
 21
-40.5765
  0
LINE
  8
0
 10
-143.047
 20
-40.5765
 11
-143.275
 21
-40.4821
  0
LINE
  8
0
 10
-143.275
 20
-40.4821
 11
-143.49
 21
-40.3628
  0
LINE
  8
0
 10
-143.49
 20
-40.3628
 11
-143.692
 21
-40.22
  0
LINE
  8
0
 10
-143.692
 20
-40.22
 11
-143.876
 21
-40.0556
  0
LINE
  8
0
 10
-143.876
 20
-40.0556
 11
-144.04
 21
-39.8717
  0
LINE
  8
0
 10
-144.04
 20
-39.8717
 11
-144.183
 21
-39.6705
  0
LINE
  8
0
 10
-144.183
 20
-39.6705
 11
-144.302
 21
-39.4545
  0
LINE
  8
0
 10
-144.302
 20
-39.4545
 11
-144.397
 21
-39.2266
  0
LINE
  8
0
 10
-144.397
 20
-39.2266
 11
-144.465
 21
-38.9895
  0
LINE
  8
0
 10
-144.465
 20
-38.9895
 11
-144.506
 21
-38.7463
  0
LINE
  8
0
 10
-144.506
 20
-38.7463
 11
-144.52
 21
-38.5
  0
LINE
  8
0
 10
-144.52
 20
-38.5
 11
-144.506
 21
-38.2537
  0
LINE
  8
0
 10
-144.506
 20
-38.2537
 11
-144.465
 21
-38.0105
  0
LINE
  8
0
 10
-144.465
 20
-38.0105
 11
-144.397
 21
-37.7734
  0
LINE
  8
0
 10
-144.397
 20
-37.7734
 11
-144.302
 21
-37.5455
  0
LINE
  8
0
 10
-144.302
 20
-37.5455
 11
-144.183
 21
-37.3295
  0
LINE
  8
0
 10
-144.183
 20
-37.3295
 11
-144.04
 21
-37.1283
  0
LINE
  8
0
 10
-144.04
 20
-37.1283
 11
-143.876
 21
-36.9444
  0
LINE
  8
0
 10
-143.876
 20
-36.9444
 11
-143.692
 21
-36.78
  0
LINE
  8
0
 10
-143.692
 20
-36.78
 11
-143.49
 21
-36.6372
  0
LINE
  8
0
 10
-143.49
 20
-36.6372
 11
-143.275
 21
-36.5179
  0
LINE
  8
0
 10
-143.275
 20
-36.5179
 11
-143.047
 21
-36.4234
  0
LINE
  8
0
 10
-143.047
 20
-36.4234
 11
-142.81
 21
-36.3551
  0
LINE
  8
0
 10
-142.81
 20
-36.3551
 11
-142.566
 21
-36.3138
  0
LINE
  8
0
 10
-142.566
 20
-36.3138
 11
-142.32
 21
-36.3
  0
LINE
  8
0
 10
-142.32
 20
-36.3
 11
-142.074
 21
-36.3138
  0
LINE
  8
0
 10
-142.074
 20
-36.3138
 11
-141.83
 21
-36.3551
  0
LINE
  8
0
 10
-141.83
 20
-36.3551
 11
-141.593
 21
-36.4234
  0
LINE
  8
0
 10
-141.593
 20
-36.4234
 11
-141.365
 21
-36.5179
  0
LINE
  8
0
 10
-141.365
 20
-36.5179
 11
-141.15
 21
-36.6372
  0
LINE
  8
0
 10
-141.15
 20
-36.6372
 11
-140.948
 21
-36.78
  0
LINE
  8
0
 10
-140.948
 20
-36.78
 11
-140.764
 21
-36.9444
  0
LINE
  8
0
 10
-140.764
 20
-36.9444
 11
-140.6
 21
-37.1283
  0
LINE
  8
0
 10
-140.6
 20
-37.1283
 11
-140.457
 21
-37.3295
  0
LINE
  8
0
 10
-140.457
 20
-37.3295
 11
-140.338
 21
-37.5455
  0
LINE
  8
0
 10
-140.338
 20
-37.5455
 11
-140.243
 21
-37.7734
  0
LINE
  8
0
 10
-140.243
 20
-37.7734
 11
-140.175
 21
-38.0105
  0
LINE
  8
0
 10
-140.175
 20
-38.0105
 11
-140.134
 21
-38.2537
  0
LINE
  8
0
 10
-140.134
 20
-38.2537
 11
-140.12
 21
-38.5
  0
LINE
  8
0
 10
-140.12
 20
-38.5
 11
-140.134
 21
-38.7463
  0
LINE
  8
0
 10
-140.134
 20
-38.7463
 11
-140.175
 21
-38.9895
  0
LINE
  8
0
 10
-140.175
 20
-38.9895
 11
-140.243
 21
-39.2266
  0
LINE
  8
0
 10
-140.243
 20
-39.2266
 11
-140.338
 21
-39.4545
  0
LINE
  8
0
 10
-140.338
 20
-39.4545
 11
-140.457
 21
-39.6705
  0
LINE
  8
0
 10
-140.457
 20
-39.6705
 11
-140.6
 21
-39.8717
  0
LINE
  8
0
 10
-140.6
 20
-39.8717
 11
-140.764
 21
-40.0556
  0
LINE
  8
0
 10
-140.764
 20
-40.0556
 11
-140.948
 21
-40.22
  0
LINE
  8
0
 10
-140.948
 20
-40.22
 11
-141.15
 21
-40.3628
  0
LINE
  8
0
 10
-141.15
 20
-40.3628
 11
-141.365
 21
-40.4821
  0
LINE
  8
0
 10
-141.365
 20
-40.4821
 11
-141.593
 21
-40.5765
  0
LINE
  8
0
 10
-141.593
 20
-40.5765
 11
-141.83
 21
-40.6448
  0
LINE
  8
0
 10
-141.83
 20
-40.6448
 11
-142.074
 21
-40.6862
  0
LINE
  8
0
 10
-142.074
 20
-40.6862
 11
-142.32
 21
-40.7
  0
LINE
  8
0
 10
-142.32
 20
-40.7
 11
-142.566
 21
-40.6862
  0
LINE
  8
0
 10
-27.5663
 20
-40.6862
 11
-27.8095
 21
-40.6448
  0
LINE
  8
0
 10
-27.8095
 20
-40.6448
 11
-28.0466
 21
-40.5765
  0
LINE
  8
0
 10
-28.0466
 20
-40.5765
 11
-28.2745
 21
-40.4821
  0
LINE
  8
0
 10
-28.2745
 20
-40.4821
 11
-28.4905
 21
-40.3628
  0
LINE
  8
0
 10
-28.4905
 20
-40.3628
 11
-28.6917
 21
-40.22
  0
LINE
  8
0
 10
-28.6917
 20
-40.22
 11
-28.8756
 21
-40.0556
  0
LINE
  8
0
 10
-28.8756
 20
-40.0556
 11
-29.04
 21
-39.8717
  0
LINE
  8
0
 10
-29.04
 20
-39.8717
 11
-29.1828
 21
-39.6705
  0
LINE
  8
0
 10
-29.1828
 20
-39.6705
 11
-29.3021
 21
-39.4545
  0
LINE
  8
0
 10
-29.3021
 20
-39.4545
 11
-29.3965
 21
-39.2266
  0
LINE
  8
0
 10
-29.3965
 20
-39.2266
 11
-29.4648
 21
-38.9895
  0
LINE
  8
0
 10
-29.4648
 20
-38.9895
 11
-29.5062
 21
-38.7463
  0
LINE
  8
0
 10
-29.5062
 20
-38.7463
 11
-29.52
 21
-38.5
  0
LINE
  8
0
 10
-29.52
 20
-38.5
 11
-29.5062
 21
-38.2537
  0
LINE
  8
0
 10
-29.5062
 20
-38.2537
 11
-29.4648
 21
-38.0105
  0
LINE
  8
0
 10
-29.4648
 20
-38.0105
 11
-29.3965
 21
-37.7734
  0
LINE
  8
0
 10
-29.3965
 20
-37.7734
 11
-29.3021
 21
-37.5455
  0
LINE
  8
0
 10
-29.3021
 20
-37.5455
 11
-29.1828
 21
-37.3295
  0
LINE
  8
0
 10
-29.1828
 20
-37.3295
 11
-29.04
 21
-37.1283
  0
LINE
  8
0
 10
-29.04
 20
-37.1283
 11
-28.8756
 21
-36.9444
  0
LINE
  8
0
 10
-28.8756
 20
-36.9444
 11
-28.6917
 21
-36.78
  0
LINE
  8
0
 10
-28.6917
 20
-36.78
 11
-28.4905
 21
-36.6372
  0
LINE
  8
0
 10
-28.4905
 20
-36.6372
 11
-28.2745
 21
-36.5179
  0
LINE
  8
0
 10
-28.2745
 20
-36.5179
 11
-28.0466
 21
-36.4234
  0
LINE
  8
0
 10
-28.0466
 20
-36.4234
 11
-27.8095
 21
-36.3551
  0
LINE
  8
0
 10
-27.8095
 20
-36.3551
 11
-27.5663
 21
-36.3138
  0
LINE
  8
0
 10
-27.5663
 20
-36.3138
 11
-27.32
 21
-36.3
  0
LINE
  8
0
 10
-27.32
 20
-36.3
 11
-27.0737
 21
-36.3138
  0
LINE
  8
0
 10
-27.0737
 20
-36.3138
 11
-26.8304
 21
-36.3551
  0
LINE
  8
0
 10
-26.8304
 20
-36.3551
 11
-26.5934
 21
-36.4234
  0
LINE
  8
0
 10
-26.5934
 20
-36.4234
 11
-26.3654
 21
-36.5179
  0
LINE
  8
0
 10
-26.3654
 20
-36.5179
 11
-26.1495
 21
-36.6372
  0
LINE
  8
0
 10
-26.1495
 20
-36.6372
 11
-25.9483
 21
-36.78
  0
LINE
  8
0
 10
-25.9483
 20
-36.78
 11
-25.7644
 21
-36.9444
  0
LINE
  8
0
 10
-25.7644
 20
-36.9444
 11
-25.6
 21
-37.1283
  0
LINE
  8
0
 10
-25.6
 20
-37.1283
 11
-25.4572
 21
-37.3295
  0
LINE
  8
0
 10
-25.4572
 20
-37.3295
 11
-25.3379
 21
-37.5455
  0
LINE
  8
0
 10
-25.3379
 20
-37.5455
 11
-25.2435
 21
-37.7734
  0
LINE
  8
0
 10
-25.2435
 20
-37.7734
 11
-25.1752
 21
-38.0105
  0
LINE
  8
0
 10
-25.1752
 20
-38.0105
 11
-25.1338
 21
-38.2537
  0
LINE
  8
0
 10
-25.1338
 20
-38.2537
 11
-25.12
 21
-38.5
  0
LINE
  8
0
 10
-25.12
 20
-38.5
 11
-25.1338
 21
-38.7463
  0
LINE
  8
0
 10
-25.1338
 20
-38.7463
 11
-25.1752
 21
-38.9895
  0
LINE
  8
0
 10
-25.1752
 20
-38.9895
 11
-25.2435
 21
-39.2266
  0
LINE
  8
0
 10
-25.2435
 20
-39.2266
 11
-25.3379
 21
-39.4545
  0
LINE
  8
0
 10
-25.3379
 20
-39.4545
 11
-25.4572
 21
-39.6705
  0
LINE
  8
0
 10
-25.4572
 20
-39.6705
 11
-25.6
 21
-39.8717
  0
LINE
  8
0
 10
-25.6
 20
-39.8717
 11
-25.7644
 21
-40.0556
  0
LINE
  8
0
 10
-25.7644
 20
-40.0556
 11
-25.9483
 21
-40.22
  0
LINE
  8
0
 10
-25.9483
 20
-40.22
 11
-26.1495
 21
-40.3628
  0
LINE
  8
0
 10
-26.1495
 20
-40.3628
 11
-26.3654
 21
-40.4821
  0
LINE
  8
0
 10
-26.3654
 20
-40.4821
 11
-26.5934
 21
-40.5765
  0
LINE
  8
0
 10
-26.5934
 20
-40.5765
 11
-26.8304
 21
-40.6448
  0
LINE
  8
0
 10
-26.8304
 20
-40.6448
 11
-27.0737
 21
-40.6862
  0
LINE
  8
0
 10
-27.0737
 20
-40.6862
 11
-27.32
 21
-40.7
  0
LINE
  8
0
 10
-27.32
 20
-40.7
 11
-27.5663
 21
-40.6862
  0
LINE
  8
0
 10
192.191
 20
-50.0051
 11
191.951
 21
-49.9423
  0
LINE
  8
0
 10
191.951
 20
-49.9423
 11
191.723
 21
-49.8452
  0
LINE
  8
0
 10
191.723
 20
-49.8452
 11
191.511
 21
-49.7159
  0
LINE
  8
0
 10
191.511
 20
-49.7159
 11
191.32
 21
-49.5572
  0
LINE
  8
0
 10
191.32
 20
-49.5572
 11
191.154
 21
-49.3723
  0
LINE
  8
0
 10
191.154
 20
-49.3723
 11
191.018
 21
-49.1653
  0
LINE
  8
0
 10
191.018
 20
-49.1653
 11
190.912
 21
-48.9406
  0
LINE
  8
0
 10
190.912
 20
-48.9406
 11
190.841
 21
-48.703
  0
LINE
  8
0
 10
190.841
 20
-48.703
 11
190.805
 21
-48.4574
  0
LINE
  8
0
 10
190.805
 20
-48.4574
 11
190.805
 21
-48.2092
  0
LINE
  8
0
 10
190.805
 20
-48.2092
 11
190.841
 21
-47.9637
  0
LINE
  8
0
 10
190.841
 20
-47.9637
 11
190.912
 21
-47.726
  0
LINE
  8
0
 10
190.912
 20
-47.726
 11
191.018
 21
-47.5013
  0
LINE
  8
0
 10
191.018
 20
-47.5013
 11
191.154
 21
-47.2943
  0
LINE
  8
0
 10
191.154
 20
-47.2943
 11
191.32
 21
-47.1095
  0
LINE
  8
0
 10
191.32
 20
-47.1095
 11
191.511
 21
-46.9507
  0
LINE
  8
0
 10
191.511
 20
-46.9507
 11
191.723
 21
-46.8214
  0
LINE
  8
0
 10
191.723
 20
-46.8214
 11
191.951
 21
-46.7244
  0
LINE
  8
0
 10
191.951
 20
-46.7244
 11
192.191
 21
-46.6616
  0
LINE
  8
0
 10
192.191
 20
-46.6616
 11
192.438
 21
-46.6345
  0
LINE
  8
0
 10
192.438
 20
-46.6345
 11
192.686
 21
-46.6435
  0
LINE
  8
0
 10
192.686
 20
-46.6435
 11
192.93
 21
-46.6886
  0
LINE
  8
0
 10
192.93
 20
-46.6886
 11
193.165
 21
-46.7687
  0
LINE
  8
0
 10
193.165
 20
-46.7687
 11
193.386
 21
-46.8822
  0
LINE
  8
0
 10
193.386
 20
-46.8822
 11
193.587
 21
-47.0266
  0
LINE
  8
0
 10
193.587
 20
-47.0266
 11
193.766
 21
-47.1989
  0
LINE
  8
0
 10
193.766
 20
-47.1989
 11
193.918
 21
-47.3953
  0
LINE
  8
0
 10
193.918
 20
-47.3953
 11
194.039
 21
-47.6118
  0
LINE
  8
0
 10
194.039
 20
-47.6118
 11
194.128
 21
-47.8436
  0
LINE
  8
0
 10
194.128
 20
-47.8436
 11
194.182
 21
-48.0858
  0
LINE
  8
0
 10
194.182
 20
-48.0858
 11
194.2
 21
-48.3333
  0
LINE
  8
0
 10
194.2
 20
-48.3333
 11
194.182
 21
-48.5809
  0
LINE
  8
0
 10
194.182
 20
-48.5809
 11
194.128
 21
-48.8231
  0
LINE
  8
0
 10
194.128
 20
-48.8231
 11
194.039
 21
-49.0549
  0
LINE
  8
0
 10
194.039
 20
-49.0549
 11
193.918
 21
-49.2713
  0
LINE
  8
0
 10
193.918
 20
-49.2713
 11
193.766
 21
-49.4678
  0
LINE
  8
0
 10
193.766
 20
-49.4678
 11
193.587
 21
-49.64
  0
LINE
  8
0
 10
193.587
 20
-49.64
 11
193.386
 21
-49.7844
  0
LINE
  8
0
 10
193.386
 20
-49.7844
 11
193.165
 21
-49.8979
  0
LINE
  8
0
 10
193.165
 20
-49.8979
 11
192.93
 21
-49.978
  0
LINE
  8
0
 10
192.93
 20
-49.978
 11
192.686
 21
-50.0231
  0
LINE
  8
0
 10
192.686
 20
-50.0231
 11
192.438
 21
-50.0322
  0
LINE
  8
0
 10
192.438
 20
-50.0322
 11
192.191
 21
-50.0051
  0
LINE
  8
0
 10
-192.686
 20
-50.0231
 11
-192.93
 21
-49.978
  0
LINE
  8
0
 10
-192.93
 20
-49.978
 11
-193.165
 21
-49.8979
  0
LINE
  8
0
 10
-193.165
 20
-49.8979
 11
-193.386
 21
-49.7844
  0
LINE
  8
0
 10
-193.386
 20
-49.7844
 11
-193.587
 21
-49.64
  0
LINE
  8
0
 10
-193.587
 20
-49.64
 11
-193.766
 21
-49.4678
  0
LINE
  8
0
 10
-193.766
 20
-49.4678
 11
-193.918
 21
-49.2713
  0
LINE
  8
0
 10
-193.918
 20
-49.2713
 11
-194.039
 21
-49.0549
  0
LINE
  8
0
 10
-194.039
 20
-49.0549
 11
-194.128
 21
-48.8231
  0
LINE
  8
0
 10
-194.128
 20
-48.8231
 11
-194.182
 21
-48.5809
  0
LINE
  8
0
 10
-194.182
 20
-48.5809
 11
-194.2
 21
-48.3333
  0
LINE
  8
0
 10
-194.2
 20
-48.3333
 11
-194.182
 21
-48.0858
  0
LINE
  8
0
 10
-194.182
 20
-48.0858
 11
-194.128
 21
-47.8436
  0
LINE
  8
0
 10
-194.128
 20
-47.8436
 11
-194.039
 21
-47.6118
  0
LINE
  8
0
 10
-194.039
 20
-47.6118
 11
-193.918
 21
-47.3953
  0
LINE
  8
0
 10
-193.918
 20
-47.3953
 11
-193.766
 21
-47.1989
  0
LINE
  8
0
 10
-193.766
 20
-47.1989
 11
-193.587
 21
-47.0266
  0
LINE
  8
0
 10
-193.587
 20
-47.0266
 11
-193.386
 21
-46.8822
  0
LINE
  8
0
 10
-193.386
 20
-46.8822
 11
-193.165
 21
-46.7687
  0
LINE
  8
0
 10
-193.165
 20
-46.7687
 11
-192.93
 21
-46.6886
  0
LINE
  8
0
 10
-192.93
 20
-46.6886
 11
-192.686
 21
-46.6435
  0
LINE
  8
0
 10
-192.686
 20
-46.6435
 11
-192.438
 21
-46.6345
  0
LINE
  8
0
 10
-192.438
 20
-46.6345
 11
-192.191
 21
-46.6616
  0
LINE
  8
0
 10
-192.191
 20
-46.6616
 11
-191.951
 21
-46.7244
  0
LINE
  8
0
 10
-191.951
 20
-46.7244
 11
-191.723
 21
-46.8214
  0
LINE
  8
0
 10
-191.723
 20
-46.8214
 11
-191.511
 21
-46.9507
  0
LINE
  8
0
 10
-191.511
 20
-46.9507
 11
-191.32
 21
-47.1095
  0
LINE
  8
0
 10
-191.32
 20
-47.1095
 11
-191.154
 21
-47.2943
  0
LINE
  8
0
 10
-191.154
 20
-47.2943
 11
-191.018
 21
-47.5013
  0
LINE
  8
0
 10
-191.018
 20
-47.5013
 11
-190.912
 21
-47.726
  0
LINE
  8
0
 10
-190.912
 20
-47.726
 11
-190.841
 21
-47.9637
  0
LINE
  8
0
 10
-190.841
 20
-47.9637
 11
-190.805
 21
-48.2092
  0
LINE
  8
0
 10
-190.805
 20
-48.2092
 11
-190.805
 21
-48.4574
  0
LINE
  8
0
 10
-190.805
 20
-48.4574
 11
-190.841
 21
-48.703
  0
LINE
  8
0
 10
-190.841
 20
-48.703
 11
-190.912
 21
-48.9406
  0
LINE
  8
0
 10
-190.912
 20
-48.9406
 11
-191.018
 21
-49.1653
  0
LINE
  8
0
 10
-191.018
 20
-49.1653
 11
-191.154
 21
-49.3723
  0
LINE
  8
0
 10
-191.154
 20
-49.3723
 11
-191.32
 21
-49.5572
  0
LINE
  8
0
 10
-191.32
 20
-49.5572
 11
-191.511
 21
-49.7159
  0
LINE
  8
0
 10
-191.511
 20
-49.7159
 11
-191.723
 21
-49.8452
  0
LINE
  8
0
 10
-191.723
 20
-49.8452
 11
-191.951
 21
-49.9423
  0
LINE
  8
0
 10
-191.951
 20
-49.9423
 11
-192.191
 21
-50.0051
  0
LINE
  8
0
 10
-192.191
 20
-50.0051
 11
-192.438
 21
-50.0322
  0
LINE
  8
0
 10
-192.438
 20
-50.0322
 11
-192.686
 21
-50.0231
  0
LINE
  8
0
 10
-142.566
 20
-54.6862
 11
-142.81
 21
-54.6448
  0
LINE
  8
0
 10
-142.81
 20
-54.6448
 11
-143.047
 21
-54.5765
  0
LINE
  8
0
 10
-143.047
 20
-54.5765
 11
-143.275
 21
-54.4821
  0
LINE
  8
0
 10
-143.275
 20
-54.4821
 11
-143.49
 21
-54.3628
  0
LINE
  8
0
 10
-143.49
 20
-54.3628
 11
-143.692
 21
-54.22
  0
LINE
  8
0
 10
-143.692
 20
-54.22
 11
-143.876
 21
-54.0556
  0
LINE
  8
0
 10
-143.876
 20
-54.0556
 11
-144.04
 21
-53.8717
  0
LINE
  8
0
 10
-144.04
 20
-53.8717
 11
-144.183
 21
-53.6705
  0
LINE
  8
0
 10
-144.183
 20
-53.6705
 11
-144.302
 21
-53.4545
  0
LINE
  8
0
 10
-144.302
 20
-53.4545
 11
-144.397
 21
-53.2266
  0
LINE
  8
0
 10
-144.397
 20
-53.2266
 11
-144.465
 21
-52.9895
  0
LINE
  8
0
 10
-144.465
 20
-52.9895
 11
-144.506
 21
-52.7463
  0
LINE
  8
0
 10
-144.506
 20
-52.7463
 11
-144.52
 21
-52.5
  0
LINE
  8
0
 10
-144.52
 20
-52.5
 11
-144.506
 21
-52.2537
  0
LINE
  8
0
 10
-144.506
 20
-52.2537
 11
-144.465
 21
-52.0105
  0
LINE
  8
0
 10
-144.465
 20
-52.0105
 11
-144.397
 21
-51.7734
  0
LINE
  8
0
 10
-144.397
 20
-51.7734
 11
-144.302
 21
-51.5455
  0
LINE
  8
0
 10
-144.302
 20
-51.5455
 11
-144.183
 21
-51.3295
  0
LINE
  8
0
 10
-144.183
 20
-51.3295
 11
-144.04
 21
-51.1283
  0
LINE
  8
0
 10
-144.04
 20
-51.1283
 11
-143.876
 21
-50.9444
  0
LINE
  8
0
 10
-143.876
 20
-50.9444
 11
-143.692
 21
-50.78
  0
LINE
  8
0
 10
-143.692
 20
-50.78
 11
-143.49
 21
-50.6372
  0
LINE
  8
0
 10
-143.49
 20
-50.6372
 11
-143.275
 21
-50.5179
  0
LINE
  8
0
 10
-143.275
 20
-50.5179
 11
-143.047
 21
-50.4234
  0
LINE
  8
0
 10
-143.047
 20
-50.4234
 11
-142.81
 21
-50.3551
  0
LINE
  8
0
 10
-142.81
 20
-50.3551
 11
-142.566
 21
-50.3138
  0
LINE
  8
0
 10
-142.566
 20
-50.3138
 11
-142.32
 21
-50.3
  0
LINE
  8
0
 10
-142.32
 20
-50.3
 11
-142.074
 21
-50.3138
  0
LINE
  8
0
 10
-142.074
 20
-50.3138
 11
-141.83
 21
-50.3551
  0
LINE
  8
0
 10
-141.83
 20
-50.3551
 11
-141.593
 21
-50.4234
  0
LINE
  8
0
 10
-141.593
 20
-50.4234
 11
-141.365
 21
-50.5179
  0
LINE
  8
0
 10
-141.365
 20
-50.5179
 11
-141.15
 21
-50.6372
  0
LINE
  8
0
 10
-141.15
 20
-50.6372
 11
-140.948
 21
-50.78
  0
LINE
  8
0
 10
-140.948
 20
-50.78
 11
-140.764
 21
-50.9444
  0
LINE
  8
0
 10
-140.764
 20
-50.9444
 11
-140.6
 21
-51.1283
  0
LINE
  8
0
 10
-140.6
 20
-51.1283
 11
-140.457
 21
-51.3295
  0
LINE
  8
0
 10
-140.457
 20
-51.3295
 11
-140.338
 21
-51.5455
  0
LINE
  8
0
 10
-140.338
 20
-51.5455
 11
-140.243
 21
-51.7734
  0
LINE
  8
0
 10
-140.243
 20
-51.7734
 11
-140.175
 21
-52.0105
  0
LINE
  8
0
 10
-140.175
 20
-52.0105
 11
-140.134
 21
-52.2537
  0
LINE
  8
0
 10
-140.134
 20
-52.2537
 11
-140.12
 21
-52.5
  0
LINE
  8
0
 10
-140.12
 20
-52.5
 11
-140.134
 21
-52.7463
  0
LINE
  8
0
 10
-140.134
 20
-52.7463
 11
-140.175
 21
-52.9895
  0
LINE
  8
0
 10
-140.175
 20
-52.9895
 11
-140.243
 21
-53.2266
  0
LINE
  8
0
 10
-140.243
 20
-53.2266
 11
-140.338
 21
-53.4545
  0
LINE
  8
0
 10
-140.338
 20
-53.4545
 11
-140.457
 21
-53.6705
  0
LINE
  8
0
 10
-140.457
 20
-53.6705
 11
-140.6
 21
-53.8717
  0
LINE
  8
0
 10
-140.6
 20
-53.8717
 11
-140.764
 21
-54.0556
  0
LINE
  8
0
 10
-140.764
 20
-54.0556
 11
-140.948
 21
-54.22
  0
LINE
  8
0
 10
-140.948
 20
-54.22
 11
-141.15
 21
-54.3628
  0
LINE
  8
0
 10
-141.15
 20
-54.3628
 11
-141.365
 21
-54.4821
  0
LINE
  8
0
 10
-141.365
 20
-54.4821
 11
-141.593
 21
-54.5765
  0
LINE
  8
0
 10
-141.593
 20
-54.5765
 11
-141.83
 21
-54.6448
  0
LINE
  8
0
 10
-141.83
 20
-54.6448
 11
-142.074
 21
-54.6862
  0
LINE
  8
0
 10
-142.074
 20
-54.6862
 11
-142.32
 21
-54.7
  0
LINE
  8
0
 10
-142.32
 20
-54.7
 11
-142.566
 21
-54.6862
  0
LINE
  8
0
 10
-12.5663
 20
-54.6862
 11
-12.8095
 21
-54.6448
  0
LINE
  8
0
 10
-12.8095
 20
-54.6448
 11
-13.0466
 21
-54.5765
  0
LINE
  8
0
 10
-13.0466
 20
-54.5765
 11
-13.2745
 21
-54.4821
  0
LINE
  8
0
 10
-13.2745
 20
-54.4821
 11
-13.4905
 21
-54.3628
  0
LINE
  8
0
 10
-13.4905
 20
-54.3628
 11
-13.6917
 21
-54.22
  0
LINE
  8
0
 10
-13.6917
 20
-54.22
 11
-13.8756
 21
-54.0556
  0
LINE
  8
0
 10
-13.8756
 20
-54.0556
 11
-14.04
 21
-53.8717
  0
LINE
  8
0
 10
-14.04
 20
-53.8717
 11
-14.1828
 21
-53.6705
  0
LINE
  8
0
 10
-14.1828
 20
-53.6705
 11
-14.3021
 21
-53.4545
  0
LINE
  8
0
 10
-14.3021
 20
-53.4545
 11
-14.3965
 21
-53.2266
  0
LINE
  8
0
 10
-14.3965
 20
-53.2266
 11
-14.4648
 21
-52.9895
  0
LINE
  8
0
 10
-14.4648
 20
-52.9895
 11
-14.5062
 21
-52.7463
  0
LINE
  8
0
 10
-14.5062
 20
-52.7463
 11
-14.52
 21
-52.5
  0
LINE
  8
0
 10
-14.52
 20
-52.5
 11
-14.5062
 21
-52.2537
  0
LINE
  8
0
 10
-14.5062
 20
-52.2537
 11
-14.4648
 21
-52.0105
  0
LINE
  8
0
 10
-14.4648
 20
-52.0105
 11
-14.3965
 21
-51.7734
  0
LINE
  8
0
 10
-14.3965
 20
-51.7734
 11
-14.3021
 21
-51.5455
  0
LINE
  8
0
 10
-14.3021
 20
-51.5455
 11
-14.1828
 21
-51.3295
  0
LINE
  8
0
 10
-14.1828
 20
-51.3295
 11
-14.04
 21
-51.1283
  0
LINE
  8
0
 10
-14.04
 20
-51.1283
 11
-13.8756
 21
-50.9444
  0
LINE
  8
0
 10
-13.8756
 20
-50.9444
 11
-13.6917
 21
-50.78
  0
LINE
  8
0
 10
-13.6917
 20
-50.78
 11
-13.4905
 21
-50.6372
  0
LINE
  8
0
 10
-13.4905
 20
-50.6372
 11
-13.2745
 21
-50.5179
  0
LINE
  8
0
 10
-13.2745
 20
-50.5179
 11
-13.0466
 21
-50.4234
  0
LINE
  8
0
 10
-13.0466
 20
-50.4234
 11
-12.8095
 21
-50.3551
  0
LINE
  8
0
 10
-12.8095
 20
-50.3551
 11
-12.5663
 21
-50.3138
  0
LINE
  8
0
 10
-12.5663
 20
-50.3138
 11
-12.32
 21
-50.3
  0
LINE
  8
0
 10
-12.32
 20
-50.3
 11
-12.0737
 21
-50.3138
  0
LINE
  8
0
 10
-12.0737
 20
-50.3138
 11
-11.8304
 21
-50.3551
  0
LINE
  8
0
 10
-11.8304
 20
-50.3551
 11
-11.5934
 21
-50.4234
  0
LINE
  8
0
 10
-11.5934
 20
-50.4234
 11
-11.3654
 21
-50.5179
  0
LINE
  8
0
 10
-11.3654
 20
-50.5179
 11
-11.1495
 21
-50.6372
  0
LINE
  8
0
 10
-11.1495
 20
-50.6372
 11
-10.9483
 21
-50.78
  0
LINE
  8
0
 10
-10.9483
 20
-50.78
 11
-10.7644
 21
-50.9444
  0
LINE
  8
0
 10
-10.7644
 20
-50.9444
 11
-10.6
 21
-51.1283
  0
LINE
  8
0
 10
-10.6
 20
-51.1283
 11
-10.4572
 21
-51.3295
  0
LINE
  8
0
 10
-10.4572
 20
-51.3295
 11
-10.3379
 21
-51.5455
  0
LINE
  8
0
 10
-10.3379
 20
-51.5455
 11
-10.2435
 21
-51.7734
  0
LINE
  8
0
 10
-10.2435
 20
-51.7734
 11
-10.1752
 21
-52.0105
  0
LINE
  8
0
 10
-10.1752
 20
-52.0105
 11
-10.1338
 21
-52.2537
  0
LINE
  8
0
 10
-10.1338
 20
-52.2537
 11
-10.12
 21
-52.5
  0
LINE
  8
0
 10
-10.12
 20
-52.5
 11
-10.1338
 21
-52.7463
  0
LINE
  8
0
 10
-10.1338
 20
-52.7463
 11
-10.1752
 21
-52.9895
  0
LINE
  8
0
 10
-10.1752
 20
-52.9895
 11
-10.2435
 21
-53.2266
  0
LINE
  8
0
 10
-10.2435
 20
-53.2266
 11
-10.3379
 21
-53.4545
  0
LINE
  8
0
 10
-10.3379
 20
-53.4545
 11
-10.4572
 21
-53.6705
  0
LINE
  8
0
 10
-10.4572
 20
-53.6705
 11
-10.6
 21
-53.8717
  0
LINE
  8
0
 10
-10.6
 20
-53.8717
 11
-10.7644
 21
-54.0556
  0
LINE
  8
0
 10
-10.7644
 20
-54.0556
 11
-10.9483
 21
-54.22
  0
LINE
  8
0
 10
-10.9483
 20
-54.22
 11
-11.1495
 21
-54.3628
  0
LINE
  8
0
 10
-11.1495
 20
-54.3628
 11
-11.3654
 21
-54.4821
  0
LINE
  8
0
 10
-11.3654
 20
-54.4821
 11
-11.5934
 21
-54.5765
  0
LINE
  8
0
 10
-11.5934
 20
-54.5765
 11
-11.8304
 21
-54.6448
  0
LINE
  8
0
 10
-11.8304
 20
-54.6448
 11
-12.0737
 21
-54.6862
  0
LINE
  8
0
 10
-12.0737
 20
-54.6862
 11
-12.32
 21
-54.7
  0
LINE
  8
0
 10
-12.32
 20
-54.7
 11
-12.5663
 21
-54.6862
  0
LINE
  8
0
 10
-12.0663
 20
-77.1862
 11
-12.3095
 21
-77.1448
  0
LINE
  8
0
 10
-12.3095
 20
-77.1448
 11
-12.5466
 21
-77.0765
  0
LINE
  8
0
 10
-12.5466
 20
-77.0765
 11
-12.7745
 21
-76.9821
  0
LINE
  8
0
 10
-12.7745
 20
-76.9821
 11
-12.9905
 21
-76.8628
  0
LINE
  8
0
 10
-12.9905
 20
-76.8628
 11
-13.1917
 21
-76.72
  0
LINE
  8
0
 10
-13.1917
 20
-76.72
 11
-13.3756
 21
-76.5556
  0
LINE
  8
0
 10
-13.3756
 20
-76.5556
 11
-13.54
 21
-76.3717
  0
LINE
  8
0
 10
-13.54
 20
-76.3717
 11
-13.6828
 21
-76.1705
  0
LINE
  8
0
 10
-13.6828
 20
-76.1705
 11
-13.8021
 21
-75.9545
  0
LINE
  8
0
 10
-13.8021
 20
-75.9545
 11
-13.8965
 21
-75.7266
  0
LINE
  8
0
 10
-13.8965
 20
-75.7266
 11
-13.9648
 21
-75.4895
  0
LINE
  8
0
 10
-13.9648
 20
-75.4895
 11
-14.0062
 21
-75.2463
  0
LINE
  8
0
 10
-14.0062
 20
-75.2463
 11
-14.02
 21
-75
  0
LINE
  8
0
 10
-14.02
 20
-75
 11
-14.0062
 21
-74.7537
  0
LINE
  8
0
 10
-14.0062
 20
-74.7537
 11
-13.9648
 21
-74.5105
  0
LINE
  8
0
 10
-13.9648
 20
-74.5105
 11
-13.8965
 21
-74.2734
  0
LINE
  8
0
 10
-13.8965
 20
-74.2734
 11
-13.8021
 21
-74.0455
  0
LINE
  8
0
 10
-13.8021
 20
-74.0455
 11
-13.6828
 21
-73.8295
  0
LINE
  8
0
 10
-13.6828
 20
-73.8295
 11
-13.54
 21
-73.6283
  0
LINE
  8
0
 10
-13.54
 20
-73.6283
 11
-13.3756
 21
-73.4444
  0
LINE
  8
0
 10
-13.3756
 20
-73.4444
 11
-13.1917
 21
-73.28
  0
LINE
  8
0
 10
-13.1917
 20
-73.28
 11
-12.9905
 21
-73.1372
  0
LINE
  8
0
 10
-12.9905
 20
-73.1372
 11
-12.7745
 21
-73.0179
  0
LINE
  8
0
 10
-12.7745
 20
-73.0179
 11
-12.5466
 21
-72.9234
  0
LINE
  8
0
 10
-12.5466
 20
-72.9234
 11
-12.3095
 21
-72.8551
  0
LINE
  8
0
 10
-12.3095
 20
-72.8551
 11
-12.0663
 21
-72.8138
  0
LINE
  8
0
 10
-12.0663
 20
-72.8138
 11
-11.82
 21
-72.8
  0
LINE
  8
0
 10
-11.82
 20
-72.8
 11
-11.5737
 21
-72.8138
  0
LINE
  8
0
 10
-11.5737
 20
-72.8138
 11
-11.3304
 21
-72.8551
  0
LINE
  8
0
 10
-11.3304
 20
-72.8551
 11
-11.0934
 21
-72.9234
  0
LINE
  8
0
 10
-11.0934
 20
-72.9234
 11
-10.8654
 21
-73.0179
  0
LINE
  8
0
 10
-10.8654
 20
-73.0179
 11
-10.6495
 21
-73.1372
  0
LINE
  8
0
 10
-10.6495
 20
-73.1372
 11
-10.4483
 21
-73.28
  0
LINE
  8
0
 10
-10.4483
 20
-73.28
 11
-10.2644
 21
-73.4444
  0
LINE
  8
0
 10
-10.2644
 20
-73.4444
 11
-10.1
 21
-73.6283
  0
LINE
  8
0
 10
-10.1
 20
-73.6283
 11
-9.9572
 21
-73.8295
  0
LINE
  8
0
 10
-9.9572
 20
-73.8295
 11
-9.83786
 21
-74.0455
  0
LINE
  8
0
 10
-9.83786
 20
-74.0455
 11
-9.74345
 21
-74.2734
  0
LINE
  8
0
 10
-9.74345
 20
-74.2734
 11
-9.67516
 21
-74.5105
  0
LINE
  8
0
 10
-9.67516
 20
-74.5105
 11
-9.63382
 21
-74.7537
  0
LINE
  8
0
 10
-9.63382
 20
-74.7537
 11
-9.62
 21
-75
  0
LINE
  8
0
 10
-9.62
 20
-75
 11
-9.63382
 21
-75.2463
  0
LINE
  8
0
 10
-9.63382
 20
-75.2463
 11
-9.67516
 21
-75.4895
  0
LINE
  8
0
 10
-9.67516
 20
-75.4895
 11
-9.74345
 21
-75.7266
  0
LINE
  8
0
 10
-9.74345
 20
-75.7266
 11
-9.83786
 21
-75.9545
  0
LINE
  8
0
 10
-9.83786
 20
-75.9545
 11
-9.9572
 21
-76.1705
  0
LINE
  8
0
 10
-9.9572
 20
-76.1705
 11
-10.1
 21
-76.3717
  0
LINE
  8
0
 10
-10.1
 20
-76.3717
 11
-10.2644
 21
-76.5556
  0
LINE
  8
0
 10
-10.2644
 20
-76.5556
 11
-10.4483
 21
-76.72
  0
LINE
  8
0
 10
-10.4483
 20
-76.72
 11
-10.6495
 21
-76.8628
  0
LINE
  8
0
 10
-10.6495
 20
-76.8628
 11
-10.8654
 21
-76.9821
  0
LINE
  8
0
 10
-10.8654
 20
-76.9821
 11
-11.0934
 21
-77.0765
  0
LINE
  8
0
 10
-11.0934
 20
-77.0765
 11
-11.3304
 21
-77.1448
  0
LINE
  8
0
 10
-11.3304
 20
-77.1448
 11
-11.5737
 21
-77.1862
  0
LINE
  8
0
 10
-11.5737
 20
-77.1862
 11
-11.82
 21
-77.2
  0
LINE
  8
0
 10
-11.82
 20
-77.2
 11
-12.0663
 21
-77.1862
  0
LINE
  8
0
 10
-103.066
 20
-77.1862
 11
-103.31
 21
-77.1448
  0
LINE
  8
0
 10
-103.31
 20
-77.1448
 11
-103.547
 21
-77.0765
  0
LINE
  8
0
 10
-103.547
 20
-77.0765
 11
-103.775
 21
-76.9821
  0
LINE
  8
0
 10
-103.775
 20
-76.9821
 11
-103.99
 21
-76.8628
  0
LINE
  8
0
 10
-103.99
 20
-76.8628
 11
-104.192
 21
-76.72
  0
LINE
  8
0
 10
-104.192
 20
-76.72
 11
-104.376
 21
-76.5556
  0
LINE
  8
0
 10
-104.376
 20
-76.5556
 11
-104.54
 21
-76.3717
  0
LINE
  8
0
 10
-104.54
 20
-76.3717
 11
-104.683
 21
-76.1705
  0
LINE
  8
0
 10
-104.683
 20
-76.1705
 11
-104.802
 21
-75.9545
  0
LINE
  8
0
 10
-104.802
 20
-75.9545
 11
-104.897
 21
-75.7266
  0
LINE
  8
0
 10
-104.897
 20
-75.7266
 11
-104.965
 21
-75.4895
  0
LINE
  8
0
 10
-104.965
 20
-75.4895
 11
-105.006
 21
-75.2463
  0
LINE
  8
0
 10
-105.006
 20
-75.2463
 11
-105.02
 21
-75
  0
LINE
  8
0
 10
-105.02
 20
-75
 11
-105.006
 21
-74.7537
  0
LINE
  8
0
 10
-105.006
 20
-74.7537
 11
-104.965
 21
-74.5105
  0
LINE
  8
0
 10
-104.965
 20
-74.5105
 11
-104.897
 21
-74.2734
  0
LINE
  8
0
 10
-104.897
 20
-74.2734
 11
-104.802
 21
-74.0455
  0
LINE
  8
0
 10
-104.802
 20
-74.0455
 11
-104.683
 21
-73.8295
  0
LINE
  8
0
 10
-104.683
 20
-73.8295
 11
-104.54
 21
-73.6283
  0
LINE
  8
0
 10
-104.54
 20
-73.6283
 11
-104.376
 21
-73.4444
  0
LINE
  8
0
 10
-104.376
 20
-73.4444
 11
-104.192
 21
-73.28
  0
LINE
  8
0
 10
-104.192
 20
-73.28
 11
-103.99
 21
-73.1372
  0
LINE
  8
0
 10
-103.99
 20
-73.1372
 11
-103.775
 21
-73.0179
  0
LINE
  8
0
 10
-103.775
 20
-73.0179
 11
-103.547
 21
-72.9234
  0
LINE
  8
0
 10
-103.547
 20
-72.9234
 11
-103.31
 21
-72.8551
  0
LINE
  8
0
 10
-103.31
 20
-72.8551
 11
-103.066
 21
-72.8138
  0
LINE
  8
0
 10
-103.066
 20
-72.8138
 11
-102.82
 21
-72.8
  0
LINE
  8
0
 10
-102.82
 20
-72.8
 11
-102.574
 21
-72.8138
  0
LINE
  8
0
 10
-102.574
 20
-72.8138
 11
-102.33
 21
-72.8551
  0
LINE
  8
0
 10
-102.33
 20
-72.8551
 11
-102.093
 21
-72.9234
  0
LINE
  8
0
 10
-102.093
 20
-72.9234
 11
-101.865
 21
-73.0179
  0
LINE
  8
0
 10
-101.865
 20
-73.0179
 11
-101.65
 21
-73.1372
  0
LINE
  8
0
 10
-101.65
 20
-73.1372
 11
-101.448
 21
-73.28
  0
LINE
  8
0
 10
-101.448
 20
-73.28
 11
-101.264
 21
-73.4444
  0
LINE
  8
0
 10
-101.264
 20
-73.4444
 11
-101.1
 21
-73.6283
  0
LINE
  8
0
 10
-101.1
 20
-73.6283
 11
-100.957
 21
-73.8295
  0
LINE
  8
0
 10
-100.957
 20
-73.8295
 11
-100.838
 21
-74.0455
  0
LINE
  8
0
 10
-100.838
 20
-74.0455
 11
-100.743
 21
-74.2734
  0
LINE
  8
0
 10
-100.743
 20
-74.2734
 11
-100.675
 21
-74.5105
  0
LINE
  8
0
 10
-100.675
 20
-74.5105
 11
-100.634
 21
-74.7537
  0
LINE
  8
0
 10
-100.634
 20
-74.7537
 11
-100.62
 21
-75
  0
LINE
  8
0
 10
-100.62
 20
-75
 11
-100.634
 21
-75.2463
  0
LINE
  8
0
 10
-100.634
 20
-75.2463
 11
-100.675
 21
-75.4895
  0
LINE
  8
0
 10
-100.675
 20
-75.4895
 11
-100.743
 21
-75.7266
  0
LINE
  8
0
 10
-100.743
 20
-75.7266
 11
-100.838
 21
-75.9545
  0
LINE
  8
0
 10
-100.838
 20
-75.9545
 11
-100.957
 21
-76.1705
  0
LINE
  8
0
 10
-100.957
 20
-76.1705
 11
-101.1
 21
-76.3717
  0
LINE
  8
0
 10
-101.1
 20
-76.3717
 11
-101.264
 21
-76.5556
  0
LINE
  8
0
 10
-101.264
 20
-76.5556
 11
-101.448
 21
-76.72
  0
LINE
  8
0
 10
-101.448
 20
-76.72
 11
-101.65
 21
-76.8628
  0
LINE
  8
0
 10
-101.65
 20
-76.8628
 11
-101.865
 21
-76.9821
  0
LINE
  8
0
 10
-101.865
 20
-76.9821
 11
-102.093
 21
-77.0765
  0
LINE
  8
0
 10
-102.093
 20
-77.0765
 11
-102.33
 21
-77.1448
  0
LINE
  8
0
 10
-102.33
 20
-77.1448
 11
-102.574
 21
-77.1862
  0
LINE
  8
0
 10
-102.574
 20
-77.1862
 11
-102.82
 21
-77.2
  0
LINE
  8
0
 10
-102.82
 20
-77.2
 11
-103.066
 21
-77.1862
  0
LINE
  8
0
 10
44.7387
 20
-118.736
 11
44.4802
 21
-118.695
  0
LINE
  8
0
 10
44.4802
 20
-118.695
 11
44.2274
 21
-118.628
  0
LINE
  8
0
 10
44.2274
 20
-118.628
 11
43.9832
 21
-118.534
  0
LINE
  8
0
 10
43.9832
 20
-118.534
 11
43.75
 21
-118.415
  0
LINE
  8
0
 10
43.75
 20
-118.415
 11
43.5305
 21
-118.273
  0
LINE
  8
0
 10
43.5305
 20
-118.273
 11
43.3272
 21
-118.108
  0
LINE
  8
0
 10
43.3272
 20
-118.108
 11
43.1421
 21
-117.923
  0
LINE
  8
0
 10
43.1421
 20
-117.923
 11
42.9774
 21
-117.719
  0
LINE
  8
0
 10
42.9774
 20
-117.719
 11
42.8349
 21
-117.5
  0
LINE
  8
0
 10
42.8349
 20
-117.5
 11
42.7161
 21
-117.267
  0
LINE
  8
0
 10
42.7161
 20
-117.267
 11
42.6224
 21
-117.023
  0
LINE
  8
0
 10
42.6224
 20
-117.023
 11
42.5546
 21
-116.77
  0
LINE
  8
0
 10
42.5546
 20
-116.77
 11
42.5137
 21
-116.511
  0
LINE
  8
0
 10
42.5137
 20
-116.511
 11
42.5
 21
-116.25
  0
LINE
  8
0
 10
42.5
 20
-116.25
 11
42.5137
 21
-115.989
  0
LINE
  8
0
 10
42.5137
 20
-115.989
 11
42.5546
 21
-115.73
  0
LINE
  8
0
 10
42.5546
 20
-115.73
 11
42.6224
 21
-115.477
  0
LINE
  8
0
 10
42.6224
 20
-115.477
 11
42.7161
 21
-115.233
  0
LINE
  8
0
 10
42.7161
 20
-115.233
 11
42.8349
 21
-115
  0
LINE
  8
0
 10
42.8349
 20
-115
 11
42.9774
 21
-114.781
  0
LINE
  8
0
 10
42.9774
 20
-114.781
 11
43.1421
 21
-114.577
  0
LINE
  8
0
 10
43.1421
 20
-114.577
 11
43.3272
 21
-114.392
  0
LINE
  8
0
 10
43.3272
 20
-114.392
 11
43.5305
 21
-114.227
  0
LINE
  8
0
 10
43.5305
 20
-114.227
 11
43.75
 21
-114.085
  0
LINE
  8
0
 10
43.75
 20
-114.085
 11
43.9832
 21
-113.966
  0
LINE
  8
0
 10
43.9832
 20
-113.966
 11
44.2274
 21
-113.872
  0
LINE
  8
0
 10
44.2274
 20
-113.872
 11
44.4802
 21
-113.805
  0
LINE
  8
0
 10
44.4802
 20
-113.805
 11
44.7387
 21
-113.764
  0
LINE
  8
0
 10
44.7387
 20
-113.764
 11
45
 21
-113.75
  0
LINE
  8
0
 10
45
 20
-113.75
 11
45.2613
 21
-113.764
  0
LINE
  8
0
 10
45.2613
 20
-113.764
 11
45.5198
 21
-113.805
  0
LINE
  8
0
 10
45.5198
 20
-113.805
 11
45.7725
 21
-113.872
  0
LINE
  8
0
 10
45.7725
 20
-113.872
 11
46.0168
 21
-113.966
  0
LINE
  8
0
 10
46.0168
 20
-113.966
 11
46.25
 21
-114.085
  0
LINE
  8
0
 10
46.25
 20
-114.085
 11
46.4695
 21
-114.227
  0
LINE
  8
0
 10
46.4695
 20
-114.227
 11
46.6728
 21
-114.392
  0
LINE
  8
0
 10
46.6728
 20
-114.392
 11
46.8578
 21
-114.577
  0
LINE
  8
0
 10
46.8578
 20
-114.577
 11
47.0225
 21
-114.781
  0
LINE
  8
0
 10
47.0225
 20
-114.781
 11
47.1651
 21
-115
  0
LINE
  8
0
 10
47.1651
 20
-115
 11
47.2839
 21
-115.233
  0
LINE
  8
0
 10
47.2839
 20
-115.233
 11
47.3776
 21
-115.477
  0
LINE
  8
0
 10
47.3776
 20
-115.477
 11
47.4454
 21
-115.73
  0
LINE
  8
0
 10
47.4454
 20
-115.73
 11
47.4863
 21
-115.989
  0
LINE
  8
0
 10
47.4863
 20
-115.989
 11
47.5
 21
-116.25
  0
LINE
  8
0
 10
47.5
 20
-116.25
 11
47.4863
 21
-116.511
  0
LINE
  8
0
 10
47.4863
 20
-116.511
 11
47.4454
 21
-116.77
  0
LINE
  8
0
 10
47.4454
 20
-116.77
 11
47.3776
 21
-117.023
  0
LINE
  8
0
 10
47.3776
 20
-117.023
 11
47.2839
 21
-117.267
  0
LINE
  8
0
 10
47.2839
 20
-117.267
 11
47.1651
 21
-117.5
  0
LINE
  8
0
 10
47.1651
 20
-117.5
 11
47.0225
 21
-117.719
  0
LINE
  8
0
 10
47.0225
 20
-117.719
 11
46.8578
 21
-117.923
  0
LINE
  8
0
 10
46.8578
 20
-117.923
 11
46.6728
 21
-118.108
  0
LINE
  8
0
 10
46.6728
 20
-118.108
 11
46.4695
 21
-118.273
  0
LINE
  8
0
 10
46.4695
 20
-118.273
 11
46.25
 21
-118.415
  0
LINE
  8
0
 10
46.25
 20
-118.415
 11
46.0168
 21
-118.534
  0
LINE
  8
0
 10
46.0168
 20
-118.534
 11
45.7725
 21
-118.628
  0
LINE
  8
0
 10
45.7725
 20
-118.628
 11
45.5198
 21
-118.695
  0
LINE
  8
0
 10
45.5198
 20
-118.695
 11
45.2613
 21
-118.736
  0
LINE
  8
0
 10
45.2613
 20
-118.736
 11
45
 21
-118.75
  0
LINE
  8
0
 10
45
 20
-118.75
 11
44.7387
 21
-118.736
  0
LINE
  8
0
 10
-27.5663
 20
-132.686
 11
-27.8095
 21
-132.645
  0
LINE
  8
0
 10
-27.8095
 20
-132.645
 11
-28.0466
 21
-132.577
  0
LINE
  8
0
 10
-28.0466
 20
-132.577
 11
-28.2745
 21
-132.482
  0
LINE
  8
0
 10
-28.2745
 20
-132.482
 11
-28.4905
 21
-132.363
  0
LINE
  8
0
 10
-28.4905
 20
-132.363
 11
-28.6917
 21
-132.22
  0
LINE
  8
0
 10
-28.6917
 20
-132.22
 11
-28.8756
 21
-132.056
  0
LINE
  8
0
 10
-28.8756
 20
-132.056
 11
-29.04
 21
-131.872
  0
LINE
  8
0
 10
-29.04
 20
-131.872
 11
-29.1828
 21
-131.67
  0
LINE
  8
0
 10
-29.1828
 20
-131.67
 11
-29.3021
 21
-131.455
  0
LINE
  8
0
 10
-29.3021
 20
-131.455
 11
-29.3965
 21
-131.227
  0
LINE
  8
0
 10
-29.3965
 20
-131.227
 11
-29.4648
 21
-130.99
  0
LINE
  8
0
 10
-29.4648
 20
-130.99
 11
-29.5062
 21
-130.746
  0
LINE
  8
0
 10
-29.5062
 20
-130.746
 11
-29.52
 21
-130.5
  0
LINE
  8
0
 10
-29.52
 20
-130.5
 11
-29.5062
 21
-130.254
  0
LINE
  8
0
 10
-29.5062
 20
-130.254
 11
-29.4648
 21
-130.01
  0
LINE
  8
0
 10
-29.4648
 20
-130.01
 11
-29.3965
 21
-129.773
  0
LINE
  8
0
 10
-29.3965
 20
-129.773
 11
-29.3021
 21
-129.545
  0
LINE
  8
0
 10
-29.3021
 20
-129.545
 11
-29.1828
 21
-129.33
  0
LINE
  8
0
 10
-29.1828
 20
-129.33
 11
-29.04
 21
-129.128
  0
LINE
  8
0
 10
-29.04
 20
-129.128
 11
-28.8756
 21
-128.944
  0
LINE
  8
0
 10
-28.8756
 20
-128.944
 11
-28.6917
 21
-128.78
  0
LINE
  8
0
 10
-28.6917
 20
-128.78
 11
-28.4905
 21
-128.637
  0
LINE
  8
0
 10
-28.4905
 20
-128.637
 11
-28.2745
 21
-128.518
  0
LINE
  8
0
 10
-28.2745
 20
-128.518
 11
-28.0466
 21
-128.423
  0
LINE
  8
0
 10
-28.0466
 20
-128.423
 11
-27.8095
 21
-128.355
  0
LINE
  8
0
 10
-27.8095
 20
-128.355
 11
-27.5663
 21
-128.314
  0
LINE
  8
0
 10
-27.5663
 20
-128.314
 11
-27.32
 21
-128.3
  0
LINE
  8
0
 10
-27.32
 20
-128.3
 11
-27.0737
 21
-128.314
  0
LINE
  8
0
 10
-27.0737
 20
-128.314
 11
-26.8304
 21
-128.355
  0
LINE
  8
0
 10
-26.8304
 20
-128.355
 11
-26.5934
 21
-128.423
  0
LINE
  8
0
 10
-26.5934
 20
-128.423
 11
-26.3654
 21
-128.518
  0
LINE
  8
0
 10
-26.3654
 20
-128.518
 11
-26.1495
 21
-128.637
  0
LINE
  8
0
 10
-26.1495
 20
-128.637
 11
-25.9483
 21
-128.78
  0
LINE
  8
0
 10
-25.9483
 20
-128.78
 11
-25.7644
 21
-128.944
  0
LINE
  8
0
 10
-25.7644
 20
-128.944
 11
-25.6
 21
-129.128
  0
LINE
  8
0
 10
-25.6
 20
-129.128
 11
-25.4572
 21
-129.33
  0
LINE
  8
0
 10
-25.4572
 20
-129.33
 11
-25.3379
 21
-129.545
  0
LINE
  8
0
 10
-25.3379
 20
-129.545
 11
-25.2435
 21
-129.773
  0
LINE
  8
0
 10
-25.2435
 20
-129.773
 11
-25.1752
 21
-130.01
  0
LINE
  8
0
 10
-25.1752
 20
-130.01
 11
-25.1338
 21
-130.254
  0
LINE
  8
0
 10
-25.1338
 20
-130.254
 11
-25.12
 21
-130.5
  0
LINE
  8
0
 10
-25.12
 20
-130.5
 11
-25.1338
 21
-130.746
  0
LINE
  8
0
 10
-25.1338
 20
-130.746
 11
-25.1752
 21
-130.99
  0
LINE
  8
0
 10
-25.1752
 20
-130.99
 11
-25.2435
 21
-131.227
  0
LINE
  8
0
 10
-25.2435
 20
-131.227
 11
-25.3379
 21
-131.455
  0
LINE
  8
0
 10
-25.3379
 20
-131.455
 11
-25.4572
 21
-131.67
  0
LINE
  8
0
 10
-25.4572
 20
-131.67
 11
-25.6
 21
-131.872
  0
LINE
  8
0
 10
-25.6
 20
-131.872
 11
-25.7644
 21
-132.056
  0
LINE
  8
0
 10
-25.7644
 20
-132.056
 11
-25.9483
 21
-132.22
  0
LINE
  8
0
 10
-25.9483
 20
-132.22
 11
-26.1495
 21
-132.363
  0
LINE
  8
0
 10
-26.1495
 20
-132.363
 11
-26.3654
 21
-132.482
  0
LINE
  8
0
 10
-26.3654
 20
-132.482
 11
-26.5934
 21
-132.577
  0
LINE
  8
0
 10
-26.5934
 20
-132.577
 11
-26.8304
 21
-132.645
  0
LINE
  8
0
 10
-26.8304
 20
-132.645
 11
-27.0737
 21
-132.686
  0
LINE
  8
0
 10
-27.0737
 20
-132.686
 11
-27.32
 21
-132.7
  0
LINE
  8
0
 10
-27.32
 20
-132.7
 11
-27.5663
 21
-132.686
  0
LINE
  8
0
 10
-142.566
 20
-132.686
 11
-142.81
 21
-132.645
  0
LINE
  8
0
 10
-142.81
 20
-132.645
 11
-143.047
 21
-132.577
  0
LINE
  8
0
 10
-143.047
 20
-132.577
 11
-143.275
 21
-132.482
  0
LINE
  8
0
 10
-143.275
 20
-132.482
 11
-143.49
 21
-132.363
  0
LINE
  8
0
 10
-143.49
 20
-132.363
 11
-143.692
 21
-132.22
  0
LINE
  8
0
 10
-143.692
 20
-132.22
 11
-143.876
 21
-132.056
  0
LINE
  8
0
 10
-143.876
 20
-132.056
 11
-144.04
 21
-131.872
  0
LINE
  8
0
 10
-144.04
 20
-131.872
 11
-144.183
 21
-131.67
  0
LINE
  8
0
 10
-144.183
 20
-131.67
 11
-144.302
 21
-131.455
  0
LINE
  8
0
 10
-144.302
 20
-131.455
 11
-144.397
 21
-131.227
  0
LINE
  8
0
 10
-144.397
 20
-131.227
 11
-144.465
 21
-130.99
  0
LINE
  8
0
 10
-144.465
 20
-130.99
 11
-144.506
 21
-130.746
  0
LINE
  8
0
 10
-144.506
 20
-130.746
 11
-144.52
 21
-130.5
  0
LINE
  8
0
 10
-144.52
 20
-130.5
 11
-144.506
 21
-130.254
  0
LINE
  8
0
 10
-144.506
 20
-130.254
 11
-144.465
 21
-130.01
  0
LINE
  8
0
 10
-144.465
 20
-130.01
 11
-144.397
 21
-129.773
  0
LINE
  8
0
 10
-144.397
 20
-129.773
 11
-144.302
 21
-129.545
  0
LINE
  8
0
 10
-144.302
 20
-129.545
 11
-144.183
 21
-129.33
  0
LINE
  8
0
 10
-144.183
 20
-129.33
 11
-144.04
 21
-129.128
  0
LINE
  8
0
 10
-144.04
 20
-129.128
 11
-143.876
 21
-128.944
  0
LINE
  8
0
 10
-143.876
 20
-128.944
 11
-143.692
 21
-128.78
  0
LINE
  8
0
 10
-143.692
 20
-128.78
 11
-143.49
 21
-128.637
  0
LINE
  8
0
 10
-143.49
 20
-128.637
 11
-143.275
 21
-128.518
  0
LINE
  8
0
 10
-143.275
 20
-128.518
 11
-143.047
 21
-128.423
  0
LINE
  8
0
 10
-143.047
 20
-128.423
 11
-142.81
 21
-128.355
  0
LINE
  8
0
 10
-142.81
 20
-128.355
 11
-142.566
 21
-128.314
  0
LINE
  8
0
 10
-142.566
 20
-128.314
 11
-142.32
 21
-128.3
  0
LINE
  8
0
 10
-142.32
 20
-128.3
 11
-142.074
 21
-128.314
  0
LINE
  8
0
 10
-142.074
 20
-128.314
 11
-141.83
 21
-128.355
  0
LINE
  8
0
 10
-141.83
 20
-128.355
 11
-141.593
 21
-128.423
  0
LINE
  8
0
 10
-141.593
 20
-128.423
 11
-141.365
 21
-128.518
  0
LINE
  8
0
 10
-141.365
 20
-128.518
 11
-141.15
 21
-128.637
  0
LINE
  8
0
 10
-141.15
 20
-128.637
 11
-140.948
 21
-128.78
  0
LINE
  8
0
 10
-140.948
 20
-128.78
 11
-140.764
 21
-128.944
  0
LINE
  8
0
 10
-140.764
 20
-128.944
 11
-140.6
 21
-129.128
  0
LINE
  8
0
 10
-140.6
 20
-129.128
 11
-140.457
 21
-129.33
  0
LINE
  8
0
 10
-140.457
 20
-129.33
 11
-140.338
 21
-129.545
  0
LINE
  8
0
 10
-140.338
 20
-129.545
 11
-140.243
 21
-129.773
  0
LINE
  8
0
 10
-140.243
 20
-129.773
 11
-140.175
 21
-130.01
  0
LINE
  8
0
 10
-140.175
 20
-130.01
 11
-140.134
 21
-130.254
  0
LINE
  8
0
 10
-140.134
 20
-130.254
 11
-140.12
 21
-130.5
  0
LINE
  8
0
 10
-140.12
 20
-130.5
 11
-140.134
 21
-130.746
  0
LINE
  8
0
 10
-140.134
 20
-130.746
 11
-140.175
 21
-130.99
  0
LINE
  8
0
 10
-140.175
 20
-130.99
 11
-140.243
 21
-131.227
  0
LINE
  8
0
 10
-140.243
 20
-131.227
 11
-140.338
 21
-131.455
  0
LINE
  8
0
 10
-140.338
 20
-131.455
 11
-140.457
 21
-131.67
  0
LINE
  8
0
 10
-140.457
 20
-131.67
 11
-140.6
 21
-131.872
  0
LINE
  8
0
 10
-140.6
 20
-131.872
 11
-140.764
 21
-132.056
  0
LINE
  8
0
 10
-140.764
 20
-132.056
 11
-140.948
 21
-132.22
  0
LINE
  8
0
 10
-140.948
 20
-132.22
 11
-141.15
 21
-132.363
  0
LINE
  8
0
 10
-141.15
 20
-132.363
 11
-141.365
 21
-132.482
  0
LINE
  8
0
 10
-141.365
 20
-132.482
 11
-141.593
 21
-132.577
  0
LINE
  8
0
 10
-141.593
 20
-132.577
 11
-141.83
 21
-132.645
  0
LINE
  8
0
 10
-141.83
 20
-132.645
 11
-142.074
 21
-132.686
  0
LINE
  8
0
 10
-142.074
 20
-132.686
 11
-142.32
 21
-132.7
  0
LINE
  8
0
 10
-142.32
 20
-132.7
 11
-142.566
 21
-132.686
  0
LINE
  8
0
 10
-192.686
 20
-146.69
 11
-192.93
 21
-146.645
  0
LINE
  8
0
 10
-192.93
 20
-146.645
 11
-193.165
 21
-146.565
  0
LINE
  8
0
 10
-193.165
 20
-146.565
 11
-193.386
 21
-146.451
  0
LINE
  8
0
 10
-193.386
 20
-146.451
 11
-193.587
 21
-146.307
  0
LINE
  8
0
 10
-193.587
 20
-146.307
 11
-193.766
 21
-146.134
  0
LINE
  8
0
 10
-193.766
 20
-146.134
 11
-193.918
 21
-145.938
  0
LINE
  8
0
 10
-193.918
 20
-145.938
 11
-194.039
 21
-145.722
  0
LINE
  8
0
 10
-194.039
 20
-145.722
 11
-194.128
 21
-145.49
  0
LINE
  8
0
 10
-194.128
 20
-145.49
 11
-194.182
 21
-145.248
  0
LINE
  8
0
 10
-194.182
 20
-145.248
 11
-194.2
 21
-145
  0
LINE
  8
0
 10
-194.2
 20
-145
 11
-194.182
 21
-144.752
  0
LINE
  8
0
 10
-194.182
 20
-144.752
 11
-194.128
 21
-144.51
  0
LINE
  8
0
 10
-194.128
 20
-144.51
 11
-194.039
 21
-144.278
  0
LINE
  8
0
 10
-194.039
 20
-144.278
 11
-193.918
 21
-144.062
  0
LINE
  8
0
 10
-193.918
 20
-144.062
 11
-193.766
 21
-143.866
  0
LINE
  8
0
 10
-193.766
 20
-143.866
 11
-193.587
 21
-143.693
  0
LINE
  8
0
 10
-193.587
 20
-143.693
 11
-193.386
 21
-143.549
  0
LINE
  8
0
 10
-193.386
 20
-143.549
 11
-193.165
 21
-143.435
  0
LINE
  8
0
 10
-193.165
 20
-143.435
 11
-192.93
 21
-143.355
  0
LINE
  8
0
 10
-192.93
 20
-143.355
 11
-192.686
 21
-143.31
  0
LINE
  8
0
 10
-192.686
 20
-143.31
 11
-192.438
 21
-143.301
  0
LINE
  8
0
 10
-192.438
 20
-143.301
 11
-192.191
 21
-143.328
  0
LINE
  8
0
 10
-192.191
 20
-143.328
 11
-191.951
 21
-143.391
  0
LINE
  8
0
 10
-191.951
 20
-143.391
 11
-191.723
 21
-143.488
  0
LINE
  8
0
 10
-191.723
 20
-143.488
 11
-191.511
 21
-143.617
  0
LINE
  8
0
 10
-191.511
 20
-143.617
 11
-191.32
 21
-143.776
  0
LINE
  8
0
 10
-191.32
 20
-143.776
 11
-191.154
 21
-143.961
  0
LINE
  8
0
 10
-191.154
 20
-143.961
 11
-191.018
 21
-144.168
  0
LINE
  8
0
 10
-191.018
 20
-144.168
 11
-190.912
 21
-144.393
  0
LINE
  8
0
 10
-190.912
 20
-144.393
 11
-190.841
 21
-144.63
  0
LINE
  8
0
 10
-190.841
 20
-144.63
 11
-190.805
 21
-144.876
  0
LINE
  8
0
 10
-190.805
 20
-144.876
 11
-190.805
 21
-145.124
  0
LINE
  8
0
 10
-190.805
 20
-145.124
 11
-190.841
 21
-145.37
  0
LINE
  8
0
 10
-190.841
 20
-145.37
 11
-190.912
 21
-145.607
  0
LINE
  8
0
 10
-190.912
 20
-145.607
 11
-191.018
 21
-145.832
  0
LINE
  8
0
 10
-191.018
 20
-145.832
 11
-191.154
 21
-146.039
  0
LINE
  8
0
 10
-191.154
 20
-146.039
 11
-191.32
 21
-146.224
  0
LINE
  8
0
 10
-191.32
 20
-146.224
 11
-191.511
 21
-146.383
  0
LINE
  8
0
 10
-191.511
 20
-146.383
 11
-191.723
 21
-146.512
  0
LINE
  8
0
 10
-191.723
 20
-146.512
 11
-191.951
 21
-146.609
  0
LINE
  8
0
 10
-191.951
 20
-146.609
 11
-192.191
 21
-146.672
  0
LINE
  8
0
 10
-192.191
 20
-146.672
 11
-192.438
 21
-146.699
  0
LINE
  8
0
 10
-192.438
 20
-146.699
 11
-192.686
 21
-146.69
  0
LINE
  8
0
 10
192.191
 20
-146.672
 11
191.951
 21
-146.609
  0
LINE
  8
0
 10
191.951
 20
-146.609
 11
191.723
 21
-146.512
  0
LINE
  8
0
 10
191.723
 20
-146.512
 11
191.511
 21
-146.383
  0
LINE
  8
0
 10
191.511
 20
-146.383
 11
191.32
 21
-146.224
  0
LINE
  8
0
 10
191.32
 20
-146.224
 11
191.154
 21
-146.039
  0
LINE
  8
0
 10
191.154
 20
-146.039
 11
191.018
 21
-145.832
  0
LINE
  8
0
 10
191.018
 20
-145.832
 11
190.912
 21
-145.607
  0
LINE
  8
0
 10
190.912
 20
-145.607
 11
190.841
 21
-145.37
  0
LINE
  8
0
 10
190.841
 20
-145.37
 11
190.805
 21
-145.124
  0
LINE
  8
0
 10
190.805
 20
-145.124
 11
190.805
 21
-144.876
  0
LINE
  8
0
 10
190.805
 20
-144.876
 11
190.841
 21
-144.63
  0
LINE
  8
0
 10
190.841
 20
-144.63
 11
190.912
 21
-144.393
  0
LINE
  8
0
 10
190.912
 20
-144.393
 11
191.018
 21
-144.168
  0
LINE
  8
0
 10
191.018
 20
-144.168
 11
191.154
 21
-143.961
  0
LINE
  8
0
 10
191.154
 20
-143.961
 11
191.32
 21
-143.776
  0
LINE
  8
0
 10
191.32
 20
-143.776
 11
191.511
 21
-143.617
  0
LINE
  8
0
 10
191.511
 20
-143.617
 11
191.723
 21
-143.488
  0
LINE
  8
0
 10
191.723
 20
-143.488
 11
191.951
 21
-143.391
  0
LINE
  8
0
 10
191.951
 20
-143.391
 11
192.191
 21
-143.328
  0
LINE
  8
0
 10
192.191
 20
-143.328
 11
192.438
 21
-143.301
  0
LINE
  8
0
 10
192.438
 20
-143.301
 11
192.686
 21
-143.31
  0
LINE
  8
0
 10
192.686
 20
-143.31
 11
192.93
 21
-143.355
  0
LINE
  8
0
 10
192.93
 20
-143.355
 11
193.165
 21
-143.435
  0
LINE
  8
0
 10
193.165
 20
-143.435
 11
193.386
 21
-143.549
  0
LINE
  8
0
 10
193.386
 20
-143.549
 11
193.587
 21
-143.693
  0
LINE
  8
0
 10
193.587
 20
-143.693
 11
193.766
 21
-143.866
  0
LINE
  8
0
 10
193.766
 20
-143.866
 11
193.918
 21
-144.062
  0
LINE
  8
0
 10
193.918
 20
-144.062
 11
194.039
 21
-144.278
  0
LINE
  8
0
 10
194.039
 20
-144.278
 11
194.128
 21
-144.51
  0
LINE
  8
0
 10
194.128
 20
-144.51
 11
194.182
 21
-144.752
  0
LINE
  8
0
 10
194.182
 20
-144.752
 11
194.2
 21
-145
  0
LINE
  8
0
 10
194.2
 20
-145
 11
194.182
 21
-145.248
  0
LINE
  8
0
 10
194.182
 20
-145.248
 11
194.128
 21
-145.49
  0
LINE
  8
0
 10
194.128
 20
-145.49
 11
194.039
 21
-145.722
  0
LINE
  8
0
 10
194.039
 20
-145.722
 11
193.918
 21
-145.938
  0
LINE
  8
0
 10
193.918
 20
-145.938
 11
193.766
 21
-146.134
  0
LINE
  8
0
 10
193.766
 20
-146.134
 11
193.587
 21
-146.307
  0
LINE
  8
0
 10
193.587
 20
-146.307
 11
193.386
 21
-146.451
  0
LINE
  8
0
 10
193.386
 20
-146.451
 11
193.165
 21
-146.565
  0
LINE
  8
0
 10
193.165
 20
-146.565
 11
192.93
 21
-146.645
  0
LINE
  8
0
 10
192.93
 20
-146.645
 11
192.686
 21
-146.69
  0
LINE
  8
0
 10
192.686
 20
-146.69
 11
192.438
 21
-146.699
  0
LINE
  8
0
 10
192.438
 20
-146.699
 11
192.191
 21
-146.672
  0
LINE
  8
0
 10
-160.074
 20
-156.445
 11
-160.318
 21
-156.404
  0
LINE
  8
0
 10
-160.318
 20
-156.404
 11
-160.553
 21
-156.324
  0
LINE
  8
0
 10
-160.553
 20
-156.324
 11
-160.77
 21
-156.206
  0
LINE
  8
0
 10
-160.77
 20
-156.206
 11
-160.966
 21
-156.054
  0
LINE
  8
0
 10
-160.966
 20
-156.054
 11
-161.134
 21
-155.871
  0
LINE
  8
0
 10
-161.134
 20
-155.871
 11
-161.269
 21
-155.664
  0
LINE
  8
0
 10
-161.269
 20
-155.664
 11
-161.369
 21
-155.437
  0
LINE
  8
0
 10
-161.369
 20
-155.437
 11
-161.43
 21
-155.197
  0
LINE
  8
0
 10
-161.43
 20
-155.197
 11
-161.45
 21
-154.95
  0
LINE
  8
0
 10
-161.45
 20
-154.95
 11
-161.43
 21
-154.703
  0
LINE
  8
0
 10
-161.43
 20
-154.703
 11
-161.369
 21
-154.463
  0
LINE
  8
0
 10
-161.369
 20
-154.463
 11
-161.269
 21
-154.236
  0
LINE
  8
0
 10
-161.269
 20
-154.236
 11
-161.134
 21
-154.029
  0
LINE
  8
0
 10
-161.134
 20
-154.029
 11
-160.966
 21
-153.846
  0
LINE
  8
0
 10
-160.966
 20
-153.846
 11
-160.77
 21
-153.694
  0
LINE
  8
0
 10
-160.77
 20
-153.694
 11
-160.553
 21
-153.576
  0
LINE
  8
0
 10
-160.553
 20
-153.576
 11
-160.318
 21
-153.496
  0
LINE
  8
0
 10
-160.318
 20
-153.496
 11
-160.074
 21
-153.455
  0
LINE
  8
0
 10
-160.074
 20
-153.455
 11
-159.826
 21
-153.455
  0
LINE
  8
0
 10
-159.826
 20
-153.455
 11
-159.582
 21
-153.496
  0
LINE
  8
0
 10
-159.582
 20
-153.496
 11
-159.347
 21
-153.576
  0
LINE
  8
0
 10
-159.347
 20
-153.576
 11
-159.13
 21
-153.694
  0
LINE
  8
0
 10
-159.13
 20
-153.694
 11
-158.934
 21
-153.846
  0
LINE
  8
0
 10
-158.934
 20
-153.846
 11
-158.766
 21
-154.029
  0
LINE
  8
0
 10
-158.766
 20
-154.029
 11
-158.631
 21
-154.236
  0
LINE
  8
0
 10
-158.631
 20
-154.236
 11
-158.531
 21
-154.463
  0
LINE
  8
0
 10
-158.531
 20
-154.463
 11
-158.47
 21
-154.703
  0
LINE
  8
0
 10
-158.47
 20
-154.703
 11
-158.45
 21
-154.95
  0
LINE
  8
0
 10
-158.45
 20
-154.95
 11
-158.47
 21
-155.197
  0
LINE
  8
0
 10
-158.47
 20
-155.197
 11
-158.531
 21
-155.437
  0
LINE
  8
0
 10
-158.531
 20
-155.437
 11
-158.631
 21
-155.664
  0
LINE
  8
0
 10
-158.631
 20
-155.664
 11
-158.766
 21
-155.871
  0
LINE
  8
0
 10
-158.766
 20
-155.871
 11
-158.934
 21
-156.054
  0
LINE
  8
0
 10
-158.934
 20
-156.054
 11
-159.13
 21
-156.206
  0
LINE
  8
0
 10
-159.13
 20
-156.206
 11
-159.347
 21
-156.324
  0
LINE
  8
0
 10
-159.347
 20
-156.324
 11
-159.582
 21
-156.404
  0
LINE
  8
0
 10
-159.582
 20
-156.404
 11
-159.826
 21
-156.445
  0
LINE
  8
0
 10
-159.826
 20
-156.445
 11
-160.074
 21
-156.445
  0
LINE
  8
0
 10
159.826
 20
-156.445
 11
159.582
 21
-156.404
  0
LINE
  8
0
 10
159.582
 20
-156.404
 11
159.347
 21
-156.324
  0
LINE
  8
0
 10
159.347
 20
-156.324
 11
159.13
 21
-156.206
  0
LINE
  8
0
 10
159.13
 20
-156.206
 11
158.934
 21
-156.054
  0
LINE
  8
0
 10
158.934
 20
-156.054
 11
158.766
 21
-155.871
  0
LINE
  8
0
 10
158.766
 20
-155.871
 11
158.631
 21
-155.664
  0
LINE
  8
0
 10
158.631
 20
-155.664
 11
158.531
 21
-155.437
  0
LINE
  8
0
 10
158.531
 20
-155.437
 11
158.47
 21
-155.197
  0
LINE
  8
0
 10
158.47
 20
-155.197
 11
158.45
 21
-154.95
  0
LINE
  8
0
 10
158.45
 20
-154.95
 11
158.47
 21
-154.703
  0
LINE
  8
0
 10
158.47
 20
-154.703
 11
158.531
 21
-154.463
  0
LINE
  8
0
 10
158.531
 20
-154.463
 11
158.631
 21
-154.236
  0
LINE
  8
0
 10
158.631
 20
-154.236
 11
158.766
 21
-154.029
  0
LINE
  8
0
 10
158.766
 20
-154.029
 11
158.934
 21
-153.846
  0
LINE
  8
0
 10
158.934
 20
-153.846
 11
159.13
 21
-153.694
  0
LINE
  8
0
 10
159.13
 20
-153.694
 11
159.347
 21
-153.576
  0
LINE
  8
0
 10
159.347
 20
-153.576
 11
159.582
 21
-153.496
  0
LINE
  8
0
 10
159.582
 20
-153.496
 11
159.826
 21
-153.455
  0
LINE
  8
0
 10
159.826
 20
-153.455
 11
160.074
 21
-153.455
  0
LINE
  8
0
 10
160.074
 20
-153.455
 11
160.318
 21
-153.496
  0
LINE
  8
0
 10
160.318
 20
-153.496
 11
160.553
 21
-153.576
  0
LINE
  8
0
 10
160.553
 20
-153.576
 11
160.77
 21
-153.694
  0
LINE
  8
0
 10
160.77
 20
-153.694
 11
160.966
 21
-153.846
  0
LINE
  8
0
 10
160.966
 20
-153.846
 11
161.134
 21
-154.029
  0
LINE
  8
0
 10
161.134
 20
-154.029
 11
161.269
 21
-154.236
  0
LINE
  8
0
 10
161.269
 20
-154.236
 11
161.369
 21
-154.463
  0
LINE
  8
0
 10
161.369
 20
-154.463
 11
161.43
 21
-154.703
  0
LINE
  8
0
 10
161.43
 20
-154.703
 11
161.45
 21
-154.95
  0
LINE
  8
0
 10
161.45
 20
-154.95
 11
161.43
 21
-155.197
  0
LINE
  8
0
 10
161.43
 20
-155.197
 11
161.369
 21
-155.437
  0
LINE
  8
0
 10
161.369
 20
-155.437
 11
161.269
 21
-155.664
  0
LINE
  8
0
 10
161.269
 20
-155.664
 11
161.134
 21
-155.871
  0
LINE
  8
0
 10
161.134
 20
-155.871
 11
160.966
 21
-156.054
  0
LINE
  8
0
 10
160.966
 20
-156.054
 11
160.77
 21
-156.206
  0
LINE
  8
0
 10
160.77
 20
-156.206
 11
160.553
 21
-156.324
  0
LINE
  8
0
 10
160.553
 20
-156.324
 11
160.318
 21
-156.404
  0
LINE
  8
0
 10
160.318
 20
-156.404
 11
160.074
 21
-156.445
  0
LINE
  8
0
 10
160.074
 20
-156.445
 11
159.826
 21
-156.445
  0
LINE
  8
0
 10
44.7387
 20
-166.236
 11
44.4802
 21
-166.195
  0
LINE
  8
0
 10
44.4802
 20
-166.195
 11
44.2274
 21
-166.128
  0
LINE
  8
0
 10
44.2274
 20
-166.128
 11
43.9832
 21
-166.034
  0
LINE
  8
0
 10
43.9832
 20
-166.034
 11
43.75
 21
-165.915
  0
LINE
  8
0
 10
43.75
 20
-165.915
 11
43.5305
 21
-165.773
  0
LINE
  8
0
 10
43.5305
 20
-165.773
 11
43.3272
 21
-165.608
  0
LINE
  8
0
 10
43.3272
 20
-165.608
 11
43.1421
 21
-165.423
  0
LINE
  8
0
 10
43.1421
 20
-165.423
 11
42.9774
 21
-165.219
  0
LINE
  8
0
 10
42.9774
 20
-165.219
 11
42.8349
 21
-165
  0
LINE
  8
0
 10
42.8349
 20
-165
 11
42.7161
 21
-164.767
  0
LINE
  8
0
 10
42.7161
 20
-164.767
 11
42.6224
 21
-164.523
  0
LINE
  8
0
 10
42.6224
 20
-164.523
 11
42.5546
 21
-164.27
  0
LINE
  8
0
 10
42.5546
 20
-164.27
 11
42.5137
 21
-164.011
  0
LINE
  8
0
 10
42.5137
 20
-164.011
 11
42.5
 21
-163.75
  0
LINE
  8
0
 10
42.5
 20
-163.75
 11
42.5137
 21
-163.489
  0
LINE
  8
0
 10
42.5137
 20
-163.489
 11
42.5546
 21
-163.23
  0
LINE
  8
0
 10
42.5546
 20
-163.23
 11
42.6224
 21
-162.977
  0
LINE
  8
0
 10
42.6224
 20
-162.977
 11
42.7161
 21
-162.733
  0
LINE
  8
0
 10
42.7161
 20
-162.733
 11
42.8349
 21
-162.5
  0
LINE
  8
0
 10
42.8349
 20
-162.5
 11
42.9774
 21
-162.281
  0
LINE
  8
0
 10
42.9774
 20
-162.281
 11
43.1421
 21
-162.077
  0
LINE
  8
0
 10
43.1421
 20
-162.077
 11
43.3272
 21
-161.892
  0
LINE
  8
0
 10
43.3272
 20
-161.892
 11
43.5305
 21
-161.727
  0
LINE
  8
0
 10
43.5305
 20
-161.727
 11
43.75
 21
-161.585
  0
LINE
  8
0
 10
43.75
 20
-161.585
 11
43.9832
 21
-161.466
  0
LINE
  8
0
 10
43.9832
 20
-161.466
 11
44.2274
 21
-161.372
  0
LINE
  8
0
 10
44.2274
 20
-161.372
 11
44.4802
 21
-161.305
  0
LINE
  8
0
 10
44.4802
 20
-161.305
 11
44.7387
 21
-161.264
  0
LINE
  8
0
 10
44.7387
 20
-161.264
 11
45
 21
-161.25
  0
LINE
  8
0
 10
45
 20
-161.25
 11
45.2613
 21
-161.264
  0
LINE
  8
0
 10
45.2613
 20
-161.264
 11
45.5198
 21
-161.305
  0
LINE
  8
0
 10
45.5198
 20
-161.305
 11
45.7725
 21
-161.372
  0
LINE
  8
0
 10
45.7725
 20
-161.372
 11
46.0168
 21
-161.466
  0
LINE
  8
0
 10
46.0168
 20
-161.466
 11
46.25
 21
-161.585
  0
LINE
  8
0
 10
46.25
 20
-161.585
 11
46.4695
 21
-161.727
  0
LINE
  8
0
 10
46.4695
 20
-161.727
 11
46.6728
 21
-161.892
  0
LINE
  8
0
 10
46.6728
 20
-161.892
 11
46.8578
 21
-162.077
  0
LINE
  8
0
 10
46.8578
 20
-162.077
 11
47.0225
 21
-162.281
  0
LINE
  8
0
 10
47.0225
 20
-162.281
 11
47.1651
 21
-162.5
  0
LINE
  8
0
 10
47.1651
 20
-162.5
 11
47.2839
 21
-162.733
  0
LINE
  8
0
 10
47.2839
 20
-162.733
 11
47.3776
 21
-162.977
  0
LINE
  8
0
 10
47.3776
 20
-162.977
 11
47.4454
 21
-163.23
  0
LINE
  8
0
 10
47.4454
 20
-163.23
 11
47.4863
 21
-163.489
  0
LINE
  8
0
 10
47.4863
 20
-163.489
 11
47.5
 21
-163.75
  0
LINE
  8
0
 10
47.5
 20
-163.75
 11
47.4863
 21
-164.011
  0
LINE
  8
0
 10
47.4863
 20
-164.011
 11
47.4454
 21
-164.27
  0
LINE
  8
0
 10
47.4454
 20
-164.27
 11
47.3776
 21
-164.523
  0
LINE
  8
0
 10
47.3776
 20
-164.523
 11
47.2839
 21
-164.767
  0
LINE
  8
0
 10
47.2839
 20
-164.767
 11
47.1651
 21
-165
  0
LINE
  8
0
 10
47.1651
 20
-165
 11
47.0225
 21
-165.219
  0
LINE
  8
0
 10
47.0225
 20
-165.219
 11
46.8578
 21
-165.423
  0
LINE
  8
0
 10
46.8578
 20
-165.423
 11
46.6728
 21
-165.608
  0
LINE
  8
0
 10
46.6728
 20
-165.608
 11
46.4695
 21
-165.773
  0
LINE
  8
0
 10
46.4695
 20
-165.773
 11
46.25
 21
-165.915
  0
LINE
  8
0
 10
46.25
 20
-165.915
 11
46.0168
 21
-166.034
  0
LINE
  8
0
 10
46.0168
 20
-166.034
 11
45.7725
 21
-166.128
  0
LINE
  8
0
 10
45.7725
 20
-166.128
 11
45.5198
 21
-166.195
  0
LINE
  8
0
 10
45.5198
 20
-166.195
 11
45.2613
 21
-166.236
  0
LINE
  8
0
 10
45.2613
 20
-166.236
 11
45
 21
-166.25
  0
LINE
  8
0
 10
45
 20
-166.25
 11
44.7387
 21
-166.236
  0
LINE
  8
0
 10
-103.066
 20
-168.186
 11
-103.31
 21
-168.145
  0
LINE
  8
0
 10
-103.31
 20
-168.145
 11
-103.547
 21
-168.077
  0
LINE
  8
0
 10
-103.547
 20
-168.077
 11
-103.775
 21
-167.982
  0
LINE
  8
0
 10
-103.775
 20
-167.982
 11
-103.99
 21
-167.863
  0
LINE
  8
0
 10
-103.99
 20
-167.863
 11
-104.192
 21
-167.72
  0
LINE
  8
0
 10
-104.192
 20
-167.72
 11
-104.376
 21
-167.556
  0
LINE
  8
0
 10
-104.376
 20
-167.556
 11
-104.54
 21
-167.372
  0
LINE
  8
0
 10
-104.54
 20
-167.372
 11
-104.683
 21
-167.17
  0
LINE
  8
0
 10
-104.683
 20
-167.17
 11
-104.802
 21
-166.955
  0
LINE
  8
0
 10
-104.802
 20
-166.955
 11
-104.897
 21
-166.727
  0
LINE
  8
0
 10
-104.897
 20
-166.727
 11
-104.965
 21
-166.49
  0
LINE
  8
0
 10
-104.965
 20
-166.49
 11
-105.006
 21
-166.246
  0
LINE
  8
0
 10
-105.006
 20
-166.246
 11
-105.02
 21
-166
  0
LINE
  8
0
 10
-105.02
 20
-166
 11
-105.006
 21
-165.754
  0
LINE
  8
0
 10
-105.006
 20
-165.754
 11
-104.965
 21
-165.51
  0
LINE
  8
0
 10
-104.965
 20
-165.51
 11
-104.897
 21
-165.273
  0
LINE
  8
0
 10
-104.897
 20
-165.273
 11
-104.802
 21
-165.045
  0
LINE
  8
0
 10
-104.802
 20
-165.045
 11
-104.683
 21
-164.83
  0
LINE
  8
0
 10
-104.683
 20
-164.83
 11
-104.54
 21
-164.628
  0
LINE
  8
0
 10
-104.54
 20
-164.628
 11
-104.376
 21
-164.444
  0
LINE
  8
0
 10
-104.376
 20
-164.444
 11
-104.192
 21
-164.28
  0
LINE
  8
0
 10
-104.192
 20
-164.28
 11
-103.99
 21
-164.137
  0
LINE
  8
0
 10
-103.99
 20
-164.137
 11
-103.775
 21
-164.018
  0
LINE
  8
0
 10
-103.775
 20
-164.018
 11
-103.547
 21
-163.923
  0
LINE
  8
0
 10
-103.547
 20
-163.923
 11
-103.31
 21
-163.855
  0
LINE
  8
0
 10
-103.31
 20
-163.855
 11
-103.066
 21
-163.814
  0
LINE
  8
0
 10
-103.066
 20
-163.814
 11
-102.82
 21
-163.8
  0
LINE
  8
0
 10
-102.82
 20
-163.8
 11
-102.574
 21
-163.814
  0
LINE
  8
0
 10
-102.574
 20
-163.814
 11
-102.33
 21
-163.855
  0
LINE
  8
0
 10
-102.33
 20
-163.855
 11
-102.093
 21
-163.923
  0
LINE
  8
0
 10
-102.093
 20
-163.923
 11
-101.865
 21
-164.018
  0
LINE
  8
0
 10
-101.865
 20
-164.018
 11
-101.65
 21
-164.137
  0
LINE
  8
0
 10
-101.65
 20
-164.137
 11
-101.448
 21
-164.28
  0
LINE
  8
0
 10
-101.448
 20
-164.28
 11
-101.264
 21
-164.444
  0
LINE
  8
0
 10
-101.264
 20
-164.444
 11
-101.1
 21
-164.628
  0
LINE
  8
0
 10
-101.1
 20
-164.628
 11
-100.957
 21
-164.83
  0
LINE
  8
0
 10
-100.957
 20
-164.83
 11
-100.838
 21
-165.045
  0
LINE
  8
0
 10
-100.838
 20
-165.045
 11
-100.743
 21
-165.273
  0
LINE
  8
0
 10
-100.743
 20
-165.273
 11
-100.675
 21
-165.51
  0
LINE
  8
0
 10
-100.675
 20
-165.51
 11
-100.634
 21
-165.754
  0
LINE
  8
0
 10
-100.634
 20
-165.754
 11
-100.62
 21
-166
  0
LINE
  8
0
 10
-100.62
 20
-166
 11
-100.634
 21
-166.246
  0
LINE
  8
0
 10
-100.634
 20
-166.246
 11
-100.675
 21
-166.49
  0
LINE
  8
0
 10
-100.675
 20
-166.49
 11
-100.743
 21
-166.727
  0
LINE
  8
0
 10
-100.743
 20
-166.727
 11
-100.838
 21
-166.955
  0
LINE
  8
0
 10
-100.838
 20
-166.955
 11
-100.957
 21
-167.17
  0
LINE
  8
0
 10
-100.957
 20
-167.17
 11
-101.1
 21
-167.372
  0
LINE
  8
0
 10
-101.1
 20
-167.372
 11
-101.264
 21
-167.556
  0
LINE
  8
0
 10
-101.264
 20
-167.556
 11
-101.448
 21
-167.72
  0
LINE
  8
0
 10
-101.448
 20
-167.72
 11
-101.65
 21
-167.863
  0
LINE
  8
0
 10
-101.65
 20
-167.863
 11
-101.865
 21
-167.982
  0
LINE
  8
0
 10
-101.865
 20
-167.982
 11
-102.093
 21
-168.077
  0
LINE
  8
0
 10
-102.093
 20
-168.077
 11
-102.33
 21
-168.145
  0
LINE
  8
0
 10
-102.33
 20
-168.145
 11
-102.574
 21
-168.186
  0
LINE
  8
0
 10
-102.574
 20
-168.186
 11
-102.82
 21
-168.2
  0
LINE
  8
0
 10
-102.82
 20
-168.2
 11
-103.066
 21
-168.186
  0
LINE
  8
0
 10
-12.0663
 20
-168.186
 11
-12.3095
 21
-168.145
  0
LINE
  8
0
 10
-12.3095
 20
-168.145
 11
-12.5466
 21
-168.077
  0
LINE
  8
0
 10
-12.5466
 20
-168.077
 11
-12.7745
 21
-167.982
  0
LINE
  8
0
 10
-12.7745
 20
-167.982
 11
-12.9905
 21
-167.863
  0
LINE
  8
0
 10
-12.9905
 20
-167.863
 11
-13.1917
 21
-167.72
  0
LINE
  8
0
 10
-13.1917
 20
-167.72
 11
-13.3756
 21
-167.556
  0
LINE
  8
0
 10
-13.3756
 20
-167.556
 11
-13.54
 21
-167.372
  0
LINE
  8
0
 10
-13.54
 20
-167.372
 11
-13.6828
 21
-167.17
  0
LINE
  8
0
 10
-13.6828
 20
-167.17
 11
-13.8021
 21
-166.955
  0
LINE
  8
0
 10
-13.8021
 20
-166.955
 11
-13.8965
 21
-166.727
  0
LINE
  8
0
 10
-13.8965
 20
-166.727
 11
-13.9648
 21
-166.49
  0
LINE
  8
0
 10
-13.9648
 20
-166.49
 11
-14.0062
 21
-166.246
  0
LINE
  8
0
 10
-14.0062
 20
-166.246
 11
-14.02
 21
-166
  0
LINE
  8
0
 10
-14.02
 20
-166
 11
-14.0062
 21
-165.754
  0
LINE
  8
0
 10
-14.0062
 20
-165.754
 11
-13.9648
 21
-165.51
  0
LINE
  8
0
 10
-13.9648
 20
-165.51
 11
-13.8965
 21
-165.273
  0
LINE
  8
0
 10
-13.8965
 20
-165.273
 11
-13.8021
 21
-165.045
  0
LINE
  8
0
 10
-13.8021
 20
-165.045
 11
-13.6828
 21
-164.83
  0
LINE
  8
0
 10
-13.6828
 20
-164.83
 11
-13.54
 21
-164.628
  0
LINE
  8
0
 10
-13.54
 20
-164.628
 11
-13.3756
 21
-164.444
  0
LINE
  8
0
 10
-13.3756
 20
-164.444
 11
-13.1917
 21
-164.28
  0
LINE
  8
0
 10
-13.1917
 20
-164.28
 11
-12.9905
 21
-164.137
  0
LINE
  8
0
 10
-12.9905
 20
-164.137
 11
-12.7745
 21
-164.018
  0
LINE
  8
0
 10
-12.7745
 20
-164.018
 11
-12.5466
 21
-163.923
  0
LINE
  8
0
 10
-12.5466
 20
-163.923
 11
-12.3095
 21
-163.855
  0
LINE
  8
0
 10
-12.3095
 20
-163.855
 11
-12.0663
 21
-163.814
  0
LINE
  8
0
 10
-12.0663
 20
-163.814
 11
-11.82
 21
-163.8
  0
LINE
  8
0
 10
-11.82
 20
-163.8
 11
-11.5737
 21
-163.814
  0
LINE
  8
0
 10
-11.5737
 20
-163.814
 11
-11.3304
 21
-163.855
  0
LINE
  8
0
 10
-11.3304
 20
-163.855
 11
-11.0934
 21
-163.923
  0
LINE
  8
0
 10
-11.0934
 20
-163.923
 11
-10.8654
 21
-164.018
  0
LINE
  8
0
 10
-10.8654
 20
-164.018
 11
-10.6495
 21
-164.137
  0
LINE
  8
0
 10
-10.6495
 20
-164.137
 11
-10.4483
 21
-164.28
  0
LINE
  8
0
 10
-10.4483
 20
-164.28
 11
-10.2644
 21
-164.444
  0
LINE
  8
0
 10
-10.2644
 20
-164.444
 11
-10.1
 21
-164.628
  0
LINE
  8
0
 10
-10.1
 20
-164.628
 11
-9.9572
 21
-164.83
  0
LINE
  8
0
 10
-9.9572
 20
-164.83
 11
-9.83786
 21
-165.045
  0
LINE
  8
0
 10
-9.83786
 20
-165.045
 11
-9.74345
 21
-165.273
  0
LINE
  8
0
 10
-9.74345
 20
-165.273
 11
-9.67516
 21
-165.51
  0
LINE
  8
0
 10
-9.67516
 20
-165.51
 11
-9.63382
 21
-165.754
  0
LINE
  8
0
 10
-9.63382
 20
-165.754
 11
-9.62
 21
-166
  0
LINE
  8
0
 10
-9.62
 20
-166
 11
-9.63382
 21
-166.246
  0
LINE
  8
0
 10
-9.63382
 20
-166.246
 11
-9.67516
 21
-166.49
  0
LINE
  8
0
 10
-9.67516
 20
-166.49
 11
-9.74345
 21
-166.727
  0
LINE
  8
0
 10
-9.74345
 20
-166.727
 11
-9.83786
 21
-166.955
  0
LINE
  8
0
 10
-9.83786
 20
-166.955
 11
-9.9572
 21
-167.17
  0
LINE
  8
0
 10
-9.9572
 20
-167.17
 11
-10.1
 21
-167.372
  0
LINE
  8
0
 10
-10.1
 20
-167.372
 11
-10.2644
 21
-167.556
  0
LINE
  8
0
 10
-10.2644
 20
-167.556
 11
-10.4483
 21
-167.72
  0
LINE
  8
0
 10
-10.4483
 20
-167.72
 11
-10.6495
 21
-167.863
  0
LINE
  8
0
 10
-10.6495
 20
-167.863
 11
-10.8654
 21
-167.982
  0
LINE
  8
0
 10
-10.8654
 20
-167.982
 11
-11.0934
 21
-168.077
  0
LINE
  8
0
 10
-11.0934
 20
-168.077
 11
-11.3304
 21
-168.145
  0
LINE
  8
0
 10
-11.3304
 20
-168.145
 11
-11.5737
 21
-168.186
  0
LINE
  8
0
 10
-11.5737
 20
-168.186
 11
-11.82
 21
-168.2
  0
LINE
  8
0
 10
-11.82
 20
-168.2
 11
-12.0663
 21
-168.186
  0
LINE
  8
0
 10
-192.892
 20
-191.229
 11
-193.28
 21
-191.168
  0
LINE
  8
0
 10
-193.28
 20
-191.168
 11
-193.659
 21
-191.066
  0
LINE
  8
0
 10
-193.659
 20
-191.066
 11
-194.025
 21
-190.926
  0
LINE
  8
0
 10
-194.025
 20
-190.926
 11
-194.375
 21
-190.748
  0
LINE
  8
0
 10
-194.375
 20
-190.748
 11
-194.704
 21
-190.534
  0
LINE
  8
0
 10
-194.704
 20
-190.534
 11
-195.009
 21
-190.287
  0
LINE
  8
0
 10
-195.009
 20
-190.287
 11
-195.287
 21
-190.009
  0
LINE
  8
0
 10
-195.287
 20
-190.009
 11
-195.534
 21
-189.704
  0
LINE
  8
0
 10
-195.534
 20
-189.704
 11
-195.748
 21
-189.375
  0
LINE
  8
0
 10
-195.748
 20
-189.375
 11
-195.926
 21
-189.025
  0
LINE
  8
0
 10
-195.926
 20
-189.025
 11
-196.066
 21
-188.659
  0
LINE
  8
0
 10
-196.066
 20
-188.659
 11
-196.168
 21
-188.28
  0
LINE
  8
0
 10
-196.168
 20
-188.28
 11
-196.229
 21
-187.892
  0
LINE
  8
0
 10
-196.229
 20
-187.892
 11
-196.25
 21
-187.5
  0
LINE
  8
0
 10
-196.25
 20
-187.5
 11
-196.229
 21
-187.108
  0
LINE
  8
0
 10
-196.229
 20
-187.108
 11
-196.168
 21
-186.72
  0
LINE
  8
0
 10
-196.168
 20
-186.72
 11
-196.066
 21
-186.341
  0
LINE
  8
0
 10
-196.066
 20
-186.341
 11
-195.926
 21
-185.975
  0
LINE
  8
0
 10
-195.926
 20
-185.975
 11
-195.748
 21
-185.625
  0
LINE
  8
0
 10
-195.748
 20
-185.625
 11
-195.534
 21
-185.296
  0
LINE
  8
0
 10
-195.534
 20
-185.296
 11
-195.287
 21
-184.991
  0
LINE
  8
0
 10
-195.287
 20
-184.991
 11
-195.009
 21
-184.713
  0
LINE
  8
0
 10
-195.009
 20
-184.713
 11
-194.704
 21
-184.466
  0
LINE
  8
0
 10
-194.704
 20
-184.466
 11
-194.375
 21
-184.252
  0
LINE
  8
0
 10
-194.375
 20
-184.252
 11
-194.025
 21
-184.074
  0
LINE
  8
0
 10
-194.025
 20
-184.074
 11
-193.659
 21
-183.934
  0
LINE
  8
0
 10
-193.659
 20
-183.934
 11
-193.28
 21
-183.832
  0
LINE
  8
0
 10
-193.28
 20
-183.832
 11
-192.892
 21
-183.771
  0
LINE
  8
0
 10
-192.892
 20
-183.771
 11
-192.5
 21
-183.75
  0
LINE
  8
0
 10
-192.5
 20
-183.75
 11
-192.108
 21
-183.771
  0
LINE
  8
0
 10
-192.108
 20
-183.771
 11
-191.72
 21
-183.832
  0
LINE
  8
0
 10
-191.72
 20
-183.832
 11
-191.341
 21
-183.934
  0
LINE
  8
0
 10
-191.341
 20
-183.934
 11
-190.975
 21
-184.074
  0
LINE
  8
0
 10
-190.975
 20
-184.074
 11
-190.625
 21
-184.252
  0
LINE
  8
0
 10
-190.625
 20
-184.252
 11
-190.296
 21
-184.466
  0
LINE
  8
0
 10
-190.296
 20
-184.466
 11
-189.991
 21
-184.713
  0
LINE
  8
0
 10
-189.991
 20
-184.713
 11
-189.713
 21
-184.991
  0
LINE
  8
0
 10
-189.713
 20
-184.991
 11
-189.466
 21
-185.296
  0
LINE
  8
0
 10
-189.466
 20
-185.296
 11
-189.252
 21
-185.625
  0
LINE
  8
0
 10
-189.252
 20
-185.625
 11
-189.074
 21
-185.975
  0
LINE
  8
0
 10
-189.074
 20
-185.975
 11
-188.934
 21
-186.341
  0
LINE
  8
0
 10
-188.934
 20
-186.341
 11
-188.832
 21
-186.72
  0
LINE
  8
0
 10
-188.832
 20
-186.72
 11
-188.771
 21
-187.108
  0
LINE
  8
0
 10
-188.771
 20
-187.108
 11
-188.75
 21
-187.5
  0
LINE
  8
0
 10
-188.75
 20
-187.5
 11
-188.771
 21
-187.892
  0
LINE
  8
0
 10
-188.771
 20
-187.892
 11
-188.832
 21
-188.28
  0
LINE
  8
0
 10
-188.832
 20
-188.28
 11
-188.934
 21
-188.659
  0
LINE
  8
0
 10
-188.934
 20
-188.659
 11
-189.074
 21
-189.025
  0
LINE
  8
0
 10
-189.074
 20
-189.025
 11
-189.252
 21
-189.375
  0
LINE
  8
0
 10
-189.252
 20
-189.375
 11
-189.466
 21
-189.704
  0
LINE
  8
0
 10
-189.466
 20
-189.704
 11
-189.713
 21
-190.009
  0
LINE
  8
0
 10
-189.713
 20
-190.009
 11
-189.991
 21
-190.287
  0
LINE
  8
0
 10
-189.991
 20
-190.287
 11
-190.296
 21
-190.534
  0
LINE
  8
0
 10
-190.296
 20
-190.534
 11
-190.625
 21
-190.748
  0
LINE
  8
0
 10
-190.625
 20
-190.748
 11
-190.975
 21
-190.926
  0
LINE
  8
0
 10
-190.975
 20
-190.926
 11
-191.341
 21
-191.066
  0
LINE
  8
0
 10
-191.341
 20
-191.066
 11
-191.72
 21
-191.168
  0
LINE
  8
0
 10
-191.72
 20
-191.168
 11
-192.108
 21
-191.229
  0
LINE
  8
0
 10
-192.108
 20
-191.229
 11
-192.5
 21
-191.25
  0
LINE
  8
0
 10
-192.5
 20
-191.25
 11
-192.892
 21
-191.229
  0
LINE
  8
0
 10
192.108
 20
-191.229
 11
191.72
 21
-191.168
  0
LINE
  8
0
 10
191.72
 20
-191.168
 11
191.341
 21
-191.066
  0
LINE
  8
0
 10
191.341
 20
-191.066
 11
190.975
 21
-190.926
  0
LINE
  8
0
 10
190.975
 20
-190.926
 11
190.625
 21
-190.748
  0
LINE
  8
0
 10
190.625
 20
-190.748
 11
190.296
 21
-190.534
  0
LINE
  8
0
 10
190.296
 20
-190.534
 11
189.991
 21
-190.287
  0
LINE
  8
0
 10
189.991
 20
-190.287
 11
189.713
 21
-190.009
  0
LINE
  8
0
 10
189.713
 20
-190.009
 11
189.466
 21
-189.704
  0
LINE
  8
0
 10
189.466
 20
-189.704
 11
189.252
 21
-189.375
  0
LINE
  8
0
 10
189.252
 20
-189.375
 11
189.074
 21
-189.025
  0
LINE
  8
0
 10
189.074
 20
-189.025
 11
188.934
 21
-188.659
  0
LINE
  8
0
 10
188.934
 20
-188.659
 11
188.832
 21
-188.28
  0
LINE
  8
0
 10
188.832
 20
-188.28
 11
188.771
 21
-187.892
  0
LINE
  8
0
 10
188.771
 20
-187.892
 11
188.75
 21
-187.5
  0
LINE
  8
0
 10
188.75
 20
-187.5
 11
188.771
 21
-187.108
  0
LINE
  8
0
 10
188.771
 20
-187.108
 11
188.832
 21
-186.72
  0
LINE
  8
0
 10
188.832
 20
-186.72
 11
188.934
 21
-186.341
  0
LINE
  8
0
 10
188.934
 20
-186.341
 11
189.074
 21
-185.975
  0
LINE
  8
0
 10
189.074
 20
-185.975
 11
189.252
 21
-185.625
  0
LINE
  8
0
 10
189.252
 20
-185.625
 11
189.466
 21
-185.296
  0
LINE
  8
0
 10
189.466
 20
-185.296
 11
189.713
 21
-184.991
  0
LINE
  8
0
 10
189.713
 20
-184.991
 11
189.991
 21
-184.713
  0
LINE
  8
0
 10
189.991
 20
-184.713
 11
190.296
 21
-184.466
  0
LINE
  8
0
 10
190.296
 20
-184.466
 11
190.625
 21
-184.252
  0
LINE
  8
0
 10
190.625
 20
-184.252
 11
190.975
 21
-184.074
  0
LINE
  8
0
 10
190.975
 20
-184.074
 11
191.341
 21
-183.934
  0
LINE
  8
0
 10
191.341
 20
-183.934
 11
191.72
 21
-183.832
  0
LINE
  8
0
 10
191.72
 20
-183.832
 11
192.108
 21
-183.771
  0
LINE
  8
0
 10
192.108
 20
-183.771
 11
192.5
 21
-183.75
  0
LINE
  8
0
 10
192.5
 20
-183.75
 11
192.892
 21
-183.771
  0
LINE
  8
0
 10
192.892
 20
-183.771
 11
193.28
 21
-183.832
  0
LINE
  8
0
 10
193.28
 20
-183.832
 11
193.659
 21
-183.934
  0
LINE
  8
0
 10
193.659
 20
-183.934
 11
194.025
 21
-184.074
  0
LINE
  8
0
 10
194.025
 20
-184.074
 11
194.375
 21
-184.252
  0
LINE
  8
0
 10
194.375
 20
-184.252
 11
194.704
 21
-184.466
  0
LINE
  8
0
 10
194.704
 20
-184.466
 11
195.009
 21
-184.713
  0
LINE
  8
0
 10
195.009
 20
-184.713
 11
195.287
 21
-184.991
  0
LINE
  8
0
 10
195.287
 20
-184.991
 11
195.534
 21
-185.296
  0
LINE
  8
0
 10
195.534
 20
-185.296
 11
195.748
 21
-185.625
  0
LINE
  8
0
 10
195.748
 20
-185.625
 11
195.926
 21
-185.975
  0
LINE
  8
0
 10
195.926
 20
-185.975
 11
196.066
 21
-186.341
  0
LINE
  8
0
 10
196.066
 20
-186.341
 11
196.168
 21
-186.72
  0
LINE
  8
0
 10
196.168
 20
-186.72
 11
196.229
 21
-187.108
  0
LINE
  8
0
 10
196.229
 20
-187.108
 11
196.25
 21
-187.5
  0
LINE
  8
0
 10
196.25
 20
-187.5
 11
196.229
 21
-187.892
  0
LINE
  8
0
 10
196.229
 20
-187.892
 11
196.168
 21
-188.28
  0
LINE
  8
0
 10
196.168
 20
-188.28
 11
196.066
 21
-188.659
  0
LINE
  8
0
 10
196.066
 20
-188.659
 11
195.926
 21
-189.025
  0
LINE
  8
0
 10
195.926
 20
-189.025
 11
195.748
 21
-189.375
  0
LINE
  8
0
 10
195.748
 20
-189.375
 11
195.534
 21
-189.704
  0
LINE
  8
0
 10
195.534
 20
-189.704
 11
195.287
 21
-190.009
  0
LINE
  8
0
 10
195.287
 20
-190.009
 11
195.009
 21
-190.287
  0
LINE
  8
0
 10
195.009
 20
-190.287
 11
194.704
 21
-190.534
  0
LINE
  8
0
 10
194.704
 20
-190.534
 11
194.375
 21
-190.748
  0
LINE
  8
0
 10
194.375
 20
-190.748
 11
194.025
 21
-190.926
  0
LINE
  8
0
 10
194.025
 20
-190.926
 11
193.659
 21
-191.066
  0
LINE
  8
0
 10
193.659
 20
-191.066
 11
193.28
 21
-191.168
  0
LINE
  8
0
 10
193.28
 20
-191.168
 11
192.892
 21
-191.229
  0
LINE
  8
0
 10
192.892
 20
-191.229
 11
192.5
 21
-191.25
  0
LINE
  8
0
 10
192.5
 20
-191.25
 11
192.108
 21
-191.229
  0
LINE
  8
0
 10
-150.309
 20
-189.172
 11
-150.549
 21
-189.109
  0
LINE
  8
0
 10
-150.549
 20
-189.109
 11
-150.777
 21
-189.012
  0
LINE
  8
0
 10
-150.777
 20
-189.012
 11
-150.989
 21
-188.883
  0
LINE
  8
0
 10
-150.989
 20
-188.883
 11
-151.18
 21
-188.724
  0
LINE
  8
0
 10
-151.18
 20
-188.724
 11
-151.346
 21
-188.539
  0
LINE
  8
0
 10
-151.346
 20
-188.539
 11
-151.482
 21
-188.332
  0
LINE
  8
0
 10
-151.482
 20
-188.332
 11
-151.588
 21
-188.107
  0
LINE
  8
0
 10
-151.588
 20
-188.107
 11
-151.659
 21
-187.87
  0
LINE
  8
0
 10
-151.659
 20
-187.87
 11
-151.695
 21
-187.624
  0
LINE
  8
0
 10
-151.695
 20
-187.624
 11
-151.695
 21
-187.376
  0
LINE
  8
0
 10
-151.695
 20
-187.376
 11
-151.659
 21
-187.13
  0
LINE
  8
0
 10
-151.659
 20
-187.13
 11
-151.588
 21
-186.893
  0
LINE
  8
0
 10
-151.588
 20
-186.893
 11
-151.482
 21
-186.668
  0
LINE
  8
0
 10
-151.482
 20
-186.668
 11
-151.346
 21
-186.461
  0
LINE
  8
0
 10
-151.346
 20
-186.461
 11
-151.18
 21
-186.276
  0
LINE
  8
0
 10
-151.18
 20
-186.276
 11
-150.989
 21
-186.117
  0
LINE
  8
0
 10
-150.989
 20
-186.117
 11
-150.777
 21
-185.988
  0
LINE
  8
0
 10
-150.777
 20
-185.988
 11
-150.549
 21
-185.891
  0
LINE
  8
0
 10
-150.549
 20
-185.891
 11
-150.309
 21
-185.828
  0
LINE
  8
0
 10
-150.309
 20
-185.828
 11
-150.062
 21
-185.801
  0
LINE
  8
0
 10
-150.062
 20
-185.801
 11
-149.814
 21
-185.81
  0
LINE
  8
0
 10
-149.814
 20
-185.81
 11
-149.57
 21
-185.855
  0
LINE
  8
0
 10
-149.57
 20
-185.855
 11
-149.335
 21
-185.935
  0
LINE
  8
0
 10
-149.335
 20
-185.935
 11
-149.114
 21
-186.049
  0
LINE
  8
0
 10
-149.114
 20
-186.049
 11
-148.913
 21
-186.193
  0
LINE
  8
0
 10
-148.913
 20
-186.193
 11
-148.734
 21
-186.366
  0
LINE
  8
0
 10
-148.734
 20
-186.366
 11
-148.582
 21
-186.562
  0
LINE
  8
0
 10
-148.582
 20
-186.562
 11
-148.461
 21
-186.778
  0
LINE
  8
0
 10
-148.461
 20
-186.778
 11
-148.372
 21
-187.01
  0
LINE
  8
0
 10
-148.372
 20
-187.01
 11
-148.318
 21
-187.252
  0
LINE
  8
0
 10
-148.318
 20
-187.252
 11
-148.3
 21
-187.5
  0
LINE
  8
0
 10
-148.3
 20
-187.5
 11
-148.318
 21
-187.748
  0
LINE
  8
0
 10
-148.318
 20
-187.748
 11
-148.372
 21
-187.99
  0
LINE
  8
0
 10
-148.372
 20
-187.99
 11
-148.461
 21
-188.222
  0
LINE
  8
0
 10
-148.461
 20
-188.222
 11
-148.582
 21
-188.438
  0
LINE
  8
0
 10
-148.582
 20
-188.438
 11
-148.734
 21
-188.634
  0
LINE
  8
0
 10
-148.734
 20
-188.634
 11
-148.913
 21
-188.807
  0
LINE
  8
0
 10
-148.913
 20
-188.807
 11
-149.114
 21
-188.951
  0
LINE
  8
0
 10
-149.114
 20
-188.951
 11
-149.335
 21
-189.065
  0
LINE
  8
0
 10
-149.335
 20
-189.065
 11
-149.57
 21
-189.145
  0
LINE
  8
0
 10
-149.57
 20
-189.145
 11
-149.814
 21
-189.19
  0
LINE
  8
0
 10
-149.814
 20
-189.19
 11
-150.062
 21
-189.199
  0
LINE
  8
0
 10
-150.062
 20
-189.199
 11
-150.309
 21
-189.172
  0
LINE
  8
0
 10
149.691
 20
-189.172
 11
149.451
 21
-189.109
  0
LINE
  8
0
 10
149.451
 20
-189.109
 11
149.223
 21
-189.012
  0
LINE
  8
0
 10
149.223
 20
-189.012
 11
149.011
 21
-188.883
  0
LINE
  8
0
 10
149.011
 20
-188.883
 11
148.82
 21
-188.724
  0
LINE
  8
0
 10
148.82
 20
-188.724
 11
148.654
 21
-188.539
  0
LINE
  8
0
 10
148.654
 20
-188.539
 11
148.518
 21
-188.332
  0
LINE
  8
0
 10
148.518
 20
-188.332
 11
148.412
 21
-188.107
  0
LINE
  8
0
 10
148.412
 20
-188.107
 11
148.341
 21
-187.87
  0
LINE
  8
0
 10
148.341
 20
-187.87
 11
148.305
 21
-187.624
  0
LINE
  8
0
 10
148.305
 20
-187.624
 11
148.305
 21
-187.376
  0
LINE
  8
0
 10
148.305
 20
-187.376
 11
148.341
 21
-187.13
  0
LINE
  8
0
 10
148.341
 20
-187.13
 11
148.412
 21
-186.893
  0
LINE
  8
0
 10
148.412
 20
-186.893
 11
148.518
 21
-186.668
  0
LINE
  8
0
 10
148.518
 20
-186.668
 11
148.654
 21
-186.461
  0
LINE
  8
0
 10
148.654
 20
-186.461
 11
148.82
 21
-186.276
  0
LINE
  8
0
 10
148.82
 20
-186.276
 11
149.011
 21
-186.117
  0
LINE
  8
0
 10
149.011
 20
-186.117
 11
149.223
 21
-185.988
  0
LINE
  8
0
 10
149.223
 20
-185.988
 11
149.451
 21
-185.891
  0
LINE
  8
0
 10
149.451
 20
-185.891
 11
149.691
 21
-185.828
  0
LINE
  8
0
 10
149.691
 20
-185.828
 11
149.938
 21
-185.801
  0
LINE
  8
0
 10
149.938
 20
-185.801
 11
150.186
 21
-185.81
  0
LINE
  8
0
 10
150.186
 20
-185.81
 11
150.43
 21
-185.855
  0
LINE
  8
0
 10
150.43
 20
-185.855
 11
150.665
 21
-185.935
  0
LINE
  8
0
 10
150.665
 20
-185.935
 11
150.886
 21
-186.049
  0
LINE
  8
0
 10
150.886
 20
-186.049
 11
151.087
 21
-186.193
  0
LINE
  8
0
 10
151.087
 20
-186.193
 11
151.266
 21
-186.366
  0
LINE
  8
0
 10
151.266
 20
-186.366
 11
151.418
 21
-186.562
  0
LINE
  8
0
 10
151.418
 20
-186.562
 11
151.539
 21
-186.778
  0
LINE
  8
0
 10
151.539
 20
-186.778
 11
151.628
 21
-187.01
  0
LINE
  8
0
 10
151.628
 20
-187.01
 11
151.682
 21
-187.252
  0
LINE
  8
0
 10
151.682
 20
-187.252
 11
151.7
 21
-187.5
  0
LINE
  8
0
 10
151.7
 20
-187.5
 11
151.682
 21
-187.748
  0
LINE
  8
0
 10
151.682
 20
-187.748
 11
151.628
 21
-187.99
  0
LINE
  8
0
 10
151.628
 20
-187.99
 11
151.539
 21
-188.222
  0
LINE
  8
0
 10
151.539
 20
-188.222
 11
151.418
 21
-188.438
  0
LINE
  8
0
 10
151.418
 20
-188.438
 11
151.266
 21
-188.634
  0
LINE
  8
0
 10
151.266
 20
-188.634
 11
151.087
 21
-188.807
  0
LINE
  8
0
 10
151.087
 20
-188.807
 11
150.886
 21
-188.951
  0
LINE
  8
0
 10
150.886
 20
-188.951
 11
150.665
 21
-189.065
  0
LINE
  8
0
 10
150.665
 20
-189.065
 11
150.43
 21
-189.145
  0
LINE
  8
0
 10
150.43
 20
-189.145
 11
150.186
 21
-189.19
  0
LINE
  8
0
 10
150.186
 20
-189.19
 11
149.938
 21
-189.199
  0
LINE
  8
0
 10
149.938
 20
-189.199
 11
149.691
 21
-189.172
  0
LINE
  8
0
 10
49.6912
 20
-189.172
 11
49.4511
 21
-189.109
  0
LINE
  8
0
 10
49.4511
 20
-189.109
 11
49.2227
 21
-189.012
  0
LINE
  8
0
 10
49.2227
 20
-189.012
 11
49.0108
 21
-188.883
  0
LINE
  8
0
 10
49.0108
 20
-188.883
 11
48.8201
 21
-188.724
  0
LINE
  8
0
 10
48.8201
 20
-188.724
 11
48.6544
 21
-188.539
  0
LINE
  8
0
 10
48.6544
 20
-188.539
 11
48.5175
 21
-188.332
  0
LINE
  8
0
 10
48.5175
 20
-188.332
 11
48.4122
 21
-188.107
  0
LINE
  8
0
 10
48.4122
 20
-188.107
 11
48.3407
 21
-187.87
  0
LINE
  8
0
 10
48.3407
 20
-187.87
 11
48.3045
 21
-187.624
  0
LINE
  8
0
 10
48.3045
 20
-187.624
 11
48.3045
 21
-187.376
  0
LINE
  8
0
 10
48.3045
 20
-187.376
 11
48.3407
 21
-187.13
  0
LINE
  8
0
 10
48.3407
 20
-187.13
 11
48.4122
 21
-186.893
  0
LINE
  8
0
 10
48.4122
 20
-186.893
 11
48.5175
 21
-186.668
  0
LINE
  8
0
 10
48.5175
 20
-186.668
 11
48.6544
 21
-186.461
  0
LINE
  8
0
 10
48.6544
 20
-186.461
 11
48.8201
 21
-186.276
  0
LINE
  8
0
 10
48.8201
 20
-186.276
 11
49.0108
 21
-186.117
  0
LINE
  8
0
 10
49.0108
 20
-186.117
 11
49.2227
 21
-185.988
  0
LINE
  8
0
 10
49.2227
 20
-185.988
 11
49.4511
 21
-185.891
  0
LINE
  8
0
 10
49.4511
 20
-185.891
 11
49.6912
 21
-185.828
  0
LINE
  8
0
 10
49.6912
 20
-185.828
 11
49.9379
 21
-185.801
  0
LINE
  8
0
 10
49.9379
 20
-185.801
 11
50.1859
 21
-185.81
  0
LINE
  8
0
 10
50.1859
 20
-185.81
 11
50.43
 21
-185.855
  0
LINE
  8
0
 10
50.43
 20
-185.855
 11
50.6649
 21
-185.935
  0
LINE
  8
0
 10
50.6649
 20
-185.935
 11
50.8856
 21
-186.049
  0
LINE
  8
0
 10
50.8856
 20
-186.049
 11
51.0874
 21
-186.193
  0
LINE
  8
0
 10
51.0874
 20
-186.193
 11
51.2661
 21
-186.366
  0
LINE
  8
0
 10
51.2661
 20
-186.366
 11
51.4178
 21
-186.562
  0
LINE
  8
0
 10
51.4178
 20
-186.562
 11
51.5393
 21
-186.778
  0
LINE
  8
0
 10
51.5393
 20
-186.778
 11
51.6279
 21
-187.01
  0
LINE
  8
0
 10
51.6279
 20
-187.01
 11
51.6819
 21
-187.252
  0
LINE
  8
0
 10
51.6819
 20
-187.252
 11
51.7
 21
-187.5
  0
LINE
  8
0
 10
51.7
 20
-187.5
 11
51.6819
 21
-187.748
  0
LINE
  8
0
 10
51.6819
 20
-187.748
 11
51.6279
 21
-187.99
  0
LINE
  8
0
 10
51.6279
 20
-187.99
 11
51.5393
 21
-188.222
  0
LINE
  8
0
 10
51.5393
 20
-188.222
 11
51.4178
 21
-188.438
  0
LINE
  8
0
 10
51.4178
 20
-188.438
 11
51.2661
 21
-188.634
  0
LINE
  8
0
 10
51.2661
 20
-188.634
 11
51.0874
 21
-188.807
  0
LINE
  8
0
 10
51.0874
 20
-188.807
 11
50.8856
 21
-188.951
  0
LINE
  8
0
 10
50.8856
 20
-188.951
 11
50.6649
 21
-189.065
  0
LINE
  8
0
 10
50.6649
 20
-189.065
 11
50.43
 21
-189.145
  0
LINE
  8
0
 10
50.43
 20
-189.145
 11
50.1859
 21
-189.19
  0
LINE
  8
0
 10
50.1859
 20
-189.19
 11
49.9379
 21
-189.199
  0
LINE
  8
0
 10
49.9379
 20
-189.199
 11
49.6912
 21
-189.172
  0
LINE
  8
0
 10
-50.3088
 20
-189.172
 11
-50.5489
 21
-189.109
  0
LINE
  8
0
 10
-50.5489
 20
-189.109
 11
-50.7773
 21
-189.012
  0
LINE
  8
0
 10
-50.7773
 20
-189.012
 11
-50.9892
 21
-188.883
  0
LINE
  8
0
 10
-50.9892
 20
-188.883
 11
-51.1799
 21
-188.724
  0
LINE
  8
0
 10
-51.1799
 20
-188.724
 11
-51.3455
 21
-188.539
  0
LINE
  8
0
 10
-51.3455
 20
-188.539
 11
-51.4825
 21
-188.332
  0
LINE
  8
0
 10
-51.4825
 20
-188.332
 11
-51.5878
 21
-188.107
  0
LINE
  8
0
 10
-51.5878
 20
-188.107
 11
-51.6593
 21
-187.87
  0
LINE
  8
0
 10
-51.6593
 20
-187.87
 11
-51.6955
 21
-187.624
  0
LINE
  8
0
 10
-51.6955
 20
-187.624
 11
-51.6955
 21
-187.376
  0
LINE
  8
0
 10
-51.6955
 20
-187.376
 11
-51.6593
 21
-187.13
  0
LINE
  8
0
 10
-51.6593
 20
-187.13
 11
-51.5878
 21
-186.893
  0
LINE
  8
0
 10
-51.5878
 20
-186.893
 11
-51.4825
 21
-186.668
  0
LINE
  8
0
 10
-51.4825
 20
-186.668
 11
-51.3455
 21
-186.461
  0
LINE
  8
0
 10
-51.3455
 20
-186.461
 11
-51.1799
 21
-186.276
  0
LINE
  8
0
 10
-51.1799
 20
-186.276
 11
-50.9892
 21
-186.117
  0
LINE
  8
0
 10
-50.9892
 20
-186.117
 11
-50.7773
 21
-185.988
  0
LINE
  8
0
 10
-50.7773
 20
-185.988
 11
-50.5489
 21
-185.891
  0
LINE
  8
0
 10
-50.5489
 20
-185.891
 11
-50.3088
 21
-185.828
  0
LINE
  8
0
 10
-50.3088
 20
-185.828
 11
-50.0621
 21
-185.801
  0
LINE
  8
0
 10
-50.0621
 20
-185.801
 11
-49.8141
 21
-185.81
  0
LINE
  8
0
 10
-49.8141
 20
-185.81
 11
-49.57
 21
-185.855
  0
LINE
  8
0
 10
-49.57
 20
-185.855
 11
-49.3351
 21
-185.935
  0
LINE
  8
0
 10
-49.3351
 20
-185.935
 11
-49.1144
 21
-186.049
  0
LINE
  8
0
 10
-49.1144
 20
-186.049
 11
-48.9126
 21
-186.193
  0
LINE
  8
0
 10
-48.9126
 20
-186.193
 11
-48.7339
 21
-186.366
  0
LINE
  8
0
 10
-48.7339
 20
-186.366
 11
-48.5822
 21
-186.562
  0
LINE
  8
0
 10
-48.5822
 20
-186.562
 11
-48.4607
 21
-186.778
  0
LINE
  8
0
 10
-48.4607
 20
-186.778
 11
-48.3721
 21
-187.01
  0
LINE
  8
0
 10
-48.3721
 20
-187.01
 11
-48.3181
 21
-187.252
  0
LINE
  8
0
 10
-48.3181
 20
-187.252
 11
-48.3
 21
-187.5
  0
LINE
  8
0
 10
-48.3
 20
-187.5
 11
-48.3181
 21
-187.748
  0
LINE
  8
0
 10
-48.3181
 20
-187.748
 11
-48.3721
 21
-187.99
  0
LINE
  8
0
 10
-48.3721
 20
-187.99
 11
-48.4607
 21
-188.222
  0
LINE
  8
0
 10
-48.4607
 20
-188.222
 11
-48.5822
 21
-188.438
  0
LINE
  8
0
 10
-48.5822
 20
-188.438
 11
-48.7339
 21
-188.634
  0
LINE
  8
0
 10
-48.7339
 20
-188.634
 11
-48.9126
 21
-188.807
  0
LINE
  8
0
 10
-48.9126
 20
-188.807
 11
-49.1144
 21
-188.951
  0
LINE
  8
0
 10
-49.1144
 20
-188.951
 11
-49.3351
 21
-189.065
  0
LINE
  8
0
 10
-49.3351
 20
-189.065
 11
-49.57
 21
-189.145
  0
LINE
  8
0
 10
-49.57
 20
-189.145
 11
-49.8141
 21
-189.19
  0
LINE
  8
0
 10
-49.8141
 20
-189.19
 11
-50.0621
 21
-189.199
  0
LINE
  8
0
 10
-50.0621
 20
-189.199
 11
-50.3088
 21
-189.172
  0
LINE
  8
0
 10
71.2431
 20
-20.8787
 11
71
 21
-20.9
  0
LINE
  8
0
 10
71
 20
-20.9
 11
70.7569
 21
-20.8787
  0
LINE
  8
0
 10
70.7569
 20
-20.8787
 11
70.5212
 21
-20.8156
  0
LINE
  8
0
 10
70.5212
 20
-20.8156
 11
70.3
 21
-20.7124
  0
LINE
  8
0
 10
70.3
 20
-20.7124
 11
70.1001
 21
-20.5724
  0
LINE
  8
0
 10
70.1001
 20
-20.5724
 11
69.9275
 21
-20.3999
  0
LINE
  8
0
 10
69.9275
 20
-20.3999
 11
69.7876
 21
-20.2
  0
LINE
  8
0
 10
69.7876
 20
-20.2
 11
69.6844
 21
-19.9788
  0
LINE
  8
0
 10
69.6844
 20
-19.9788
 11
69.6213
 21
-19.7431
  0
LINE
  8
0
 10
69.6213
 20
-19.7431
 11
69.6
 21
-19.5
  0
LINE
  8
0
 10
69.6
 20
-19.5
 11
69.6213
 21
-19.2569
  0
LINE
  8
0
 10
69.6213
 20
-19.2569
 11
69.6844
 21
-19.0212
  0
LINE
  8
0
 10
69.6844
 20
-19.0212
 11
69.7876
 21
-18.8
  0
LINE
  8
0
 10
69.7876
 20
-18.8
 11
69.9275
 21
-18.6001
  0
LINE
  8
0
 10
69.9275
 20
-18.6001
 11
70.1001
 21
-18.4275
  0
LINE
  8
0
 10
70.1001
 20
-18.4275
 11
70.3
 21
-18.2876
  0
LINE
  8
0
 10
70.3
 20
-18.2876
 11
70.5212
 21
-18.1844
  0
LINE
  8
0
 10
70.5212
 20
-18.1844
 11
70.7569
 21
-18.1213
  0
LINE
  8
0
 10
70.7569
 20
-18.1213
 11
71
 21
-18.1
  0
LINE
  8
0
 10
71
 20
-18.1
 11
71.2431
 21
-18.1213
  0
LINE
  8
0
 10
71.2431
 20
-18.1213
 11
71.4788
 21
-18.1844
  0
LINE
  8
0
 10
71.4788
 20
-18.1844
 11
71.7
 21
-18.2876
  0
LINE
  8
0
 10
71.7
 20
-18.2876
 11
71.8999
 21
-18.4275
  0
LINE
  8
0
 10
71.8999
 20
-18.4275
 11
72.0725
 21
-18.6001
  0
LINE
  8
0
 10
72.0725
 20
-18.6001
 11
72.2124
 21
-18.8
  0
LINE
  8
0
 10
72.2124
 20
-18.8
 11
72.3156
 21
-19.0212
  0
LINE
  8
0
 10
72.3156
 20
-19.0212
 11
72.3787
 21
-19.2569
  0
LINE
  8
0
 10
72.3787
 20
-19.2569
 11
72.4
 21
-19.5
  0
LINE
  8
0
 10
72.4
 20
-19.5
 11
72.3787
 21
-19.7431
  0
LINE
  8
0
 10
72.3787
 20
-19.7431
 11
72.3156
 21
-19.9788
  0
LINE
  8
0
 10
72.3156
 20
-19.9788
 11
72.2124
 21
-20.2
  0
LINE
  8
0
 10
72.2124
 20
-20.2
 11
72.0725
 21
-20.3999
  0
LINE
  8
0
 10
72.0725
 20
-20.3999
 11
71.8999
 21
-20.5724
  0
LINE
  8
0
 10
71.8999
 20
-20.5724
 11
71.7
 21
-20.7124
  0
LINE
  8
0
 10
71.7
 20
-20.7124
 11
71.4788
 21
-20.8156
  0
LINE
  8
0
 10
71.4788
 20
-20.8156
 11
71.2431
 21
-20.8787
  0
ENDSEC
  0
SECTION
  2
OBJECTS
  0
DICTIONARY
  0
ENDSEC
  0
EOF
