  0
SECTION
  2
BLOCKS
  0
ENDSEC
  0
SECTION
  2
ENTITIES
  0
LINE
  8
0
 10
289.691
 20
-207.462
 11
289.854
 21
-207.354
  0
LINE
  8
0
 10
289.854
 20
-207.354
 11
289.962
 21
-207.191
  0
LINE
  8
0
 10
289.962
 20
-207.191
 11
290
 21
-207
  0
LINE
  8
0
 10
290
 20
-207
 11
290
 21
207
  0
LINE
  8
0
 10
290
 20
207
 11
289.962
 21
207.191
  0
LINE
  8
0
 10
289.962
 20
207.191
 11
289.854
 21
207.354
  0
LINE
  8
0
 10
289.854
 20
207.354
 11
289.691
 21
207.462
  0
LINE
  8
0
 10
289.691
 20
207.462
 11
289.5
 21
207.5
  0
LINE
  8
0
 10
289.5
 20
207.5
 11
171.25
 21
207.5
  0
LINE
  8
0
 10
171.25
 20
207.5
 11
171.232
 21
207.251
  0
LINE
  8
0
 10
171.232
 20
207.251
 11
171.179
 21
207.007
  0
LINE
  8
0
 10
171.179
 20
207.007
 11
171.092
 21
206.773
  0
LINE
  8
0
 10
171.092
 20
206.773
 11
170.972
 21
206.554
  0
LINE
  8
0
 10
170.972
 20
206.554
 11
170.823
 21
206.354
  0
LINE
  8
0
 10
170.823
 20
206.354
 11
170.646
 21
206.177
  0
LINE
  8
0
 10
170.646
 20
206.177
 11
170.446
 21
206.028
  0
LINE
  8
0
 10
170.446
 20
206.028
 11
170.227
 21
205.908
  0
LINE
  8
0
 10
170.227
 20
205.908
 11
169.993
 21
205.821
  0
LINE
  8
0
 10
169.993
 20
205.821
 11
169.749
 21
205.768
  0
LINE
  8
0
 10
169.749
 20
205.768
 11
169.5
 21
205.75
  0
LINE
  8
0
 10
169.5
 20
205.75
 11
89.5
 21
205.75
  0
LINE
  8
0
 10
89.5
 20
205.75
 11
89.2509
 21
205.768
  0
LINE
  8
0
 10
89.2509
 20
205.768
 11
89.007
 21
205.821
  0
LINE
  8
0
 10
89.007
 20
205.821
 11
88.773
 21
205.908
  0
LINE
  8
0
 10
88.773
 20
205.908
 11
88.5539
 21
206.028
  0
LINE
  8
0
 10
88.5539
 20
206.028
 11
88.354
 21
206.177
  0
LINE
  8
0
 10
88.354
 20
206.177
 11
88.1774
 21
206.354
  0
LINE
  8
0
 10
88.1774
 20
206.354
 11
88.0278
 21
206.554
  0
LINE
  8
0
 10
88.0278
 20
206.554
 11
87.9081
 21
206.773
  0
LINE
  8
0
 10
87.9081
 20
206.773
 11
87.8209
 21
207.007
  0
LINE
  8
0
 10
87.8209
 20
207.007
 11
87.7678
 21
207.251
  0
LINE
  8
0
 10
87.7678
 20
207.251
 11
87.75
 21
207.5
  0
LINE
  8
0
 10
87.75
 20
207.5
 11
78.25
 21
207.5
  0
LINE
  8
0
 10
78.25
 20
207.5
 11
78.2322
 21
207.251
  0
LINE
  8
0
 10
78.2322
 20
207.251
 11
78.1791
 21
207.007
  0
LINE
  8
0
 10
78.1791
 20
207.007
 11
78.0919
 21
206.773
  0
LINE
  8
0
 10
78.0919
 20
206.773
 11
77.9722
 21
206.554
  0
LINE
  8
0
 10
77.9722
 20
206.554
 11
77.8226
 21
206.354
  0
LINE
  8
0
 10
77.8226
 20
206.354
 11
77.646
 21
206.177
  0
LINE
  8
0
 10
77.646
 20
206.177
 11
77.4461
 21
206.028
  0
LINE
  8
0
 10
77.4461
 20
206.028
 11
77.227
 21
205.908
  0
LINE
  8
0
 10
77.227
 20
205.908
 11
76.993
 21
205.821
  0
LINE
  8
0
 10
76.993
 20
205.821
 11
76.7491
 21
205.768
  0
LINE
  8
0
 10
76.7491
 20
205.768
 11
76.5
 21
205.75
  0
LINE
  8
0
 10
76.5
 20
205.75
 11
-3.5
 21
205.75
  0
LINE
  8
0
 10
-3.5
 20
205.75
 11
-3.74904
 21
205.768
  0
LINE
  8
0
 10
-3.74904
 20
205.768
 11
-3.99303
 21
205.821
  0
LINE
  8
0
 10
-3.99303
 20
205.821
 11
-4.22697
 21
205.908
  0
LINE
  8
0
 10
-4.22697
 20
205.908
 11
-4.44612
 21
206.028
  0
LINE
  8
0
 10
-4.44612
 20
206.028
 11
-4.646
 21
206.177
  0
LINE
  8
0
 10
-4.646
 20
206.177
 11
-4.82256
 21
206.354
  0
LINE
  8
0
 10
-4.82256
 20
206.354
 11
-4.97218
 21
206.554
  0
LINE
  8
0
 10
-4.97218
 20
206.554
 11
-5.09184
 21
206.773
  0
LINE
  8
0
 10
-5.09184
 20
206.773
 11
-5.17911
 21
207.007
  0
LINE
  8
0
 10
-5.17911
 20
207.007
 11
-5.23218
 21
207.251
  0
LINE
  8
0
 10
-5.23218
 20
207.251
 11
-5.25
 21
207.5
  0
LINE
  8
0
 10
-5.25
 20
207.5
 11
-14.75
 21
207.5
  0
LINE
  8
0
 10
-14.75
 20
207.5
 11
-14.7678
 21
207.251
  0
LINE
  8
0
 10
-14.7678
 20
207.251
 11
-14.8209
 21
207.007
  0
LINE
  8
0
 10
-14.8209
 20
207.007
 11
-14.9081
 21
206.773
  0
LINE
  8
0
 10
-14.9081
 20
206.773
 11
-15.0278
 21
206.554
  0
LINE
  8
0
 10
-15.0278
 20
206.554
 11
-15.1774
 21
206.354
  0
LINE
  8
0
 10
-15.1774
 20
206.354
 11
-15.354
 21
206.177
  0
LINE
  8
0
 10
-15.354
 20
206.177
 11
-15.5539
 21
206.028
  0
LINE
  8
0
 10
-15.5539
 20
206.028
 11
-15.773
 21
205.908
  0
LINE
  8
0
 10
-15.773
 20
205.908
 11
-16.007
 21
205.821
  0
LINE
  8
0
 10
-16.007
 20
205.821
 11
-16.2509
 21
205.768
  0
LINE
  8
0
 10
-16.2509
 20
205.768
 11
-16.5
 21
205.75
  0
LINE
  8
0
 10
-16.5
 20
205.75
 11
-96.5
 21
205.75
  0
LINE
  8
0
 10
-96.5
 20
205.75
 11
-96.7491
 21
205.768
  0
LINE
  8
0
 10
-96.7491
 20
205.768
 11
-96.993
 21
205.821
  0
LINE
  8
0
 10
-96.993
 20
205.821
 11
-97.227
 21
205.908
  0
LINE
  8
0
 10
-97.227
 20
205.908
 11
-97.4461
 21
206.028
  0
LINE
  8
0
 10
-97.4461
 20
206.028
 11
-97.646
 21
206.177
  0
LINE
  8
0
 10
-97.646
 20
206.177
 11
-97.8226
 21
206.354
  0
LINE
  8
0
 10
-97.8226
 20
206.354
 11
-97.9722
 21
206.554
  0
LINE
  8
0
 10
-97.9722
 20
206.554
 11
-98.0919
 21
206.773
  0
LINE
  8
0
 10
-98.0919
 20
206.773
 11
-98.1791
 21
207.007
  0
LINE
  8
0
 10
-98.1791
 20
207.007
 11
-98.2322
 21
207.251
  0
LINE
  8
0
 10
-98.2322
 20
207.251
 11
-98.25
 21
207.5
  0
LINE
  8
0
 10
-98.25
 20
207.5
 11
-107.75
 21
207.5
  0
LINE
  8
0
 10
-107.75
 20
207.5
 11
-107.768
 21
207.251
  0
LINE
  8
0
 10
-107.768
 20
207.251
 11
-107.821
 21
207.007
  0
LINE
  8
0
 10
-107.821
 20
207.007
 11
-107.908
 21
206.773
  0
LINE
  8
0
 10
-107.908
 20
206.773
 11
-108.028
 21
206.554
  0
LINE
  8
0
 10
-108.028
 20
206.554
 11
-108.177
 21
206.354
  0
LINE
  8
0
 10
-108.177
 20
206.354
 11
-108.354
 21
206.177
  0
LINE
  8
0
 10
-108.354
 20
206.177
 11
-108.554
 21
206.028
  0
LINE
  8
0
 10
-108.554
 20
206.028
 11
-108.773
 21
205.908
  0
LINE
  8
0
 10
-108.773
 20
205.908
 11
-109.007
 21
205.821
  0
LINE
  8
0
 10
-109.007
 20
205.821
 11
-109.251
 21
205.768
  0
LINE
  8
0
 10
-109.251
 20
205.768
 11
-109.5
 21
205.75
  0
LINE
  8
0
 10
-109.5
 20
205.75
 11
-189.5
 21
205.75
  0
LINE
  8
0
 10
-189.5
 20
205.75
 11
-189.749
 21
205.768
  0
LINE
  8
0
 10
-189.749
 20
205.768
 11
-189.993
 21
205.821
  0
LINE
  8
0
 10
-189.993
 20
205.821
 11
-190.227
 21
205.908
  0
LINE
  8
0
 10
-190.227
 20
205.908
 11
-190.446
 21
206.028
  0
LINE
  8
0
 10
-190.446
 20
206.028
 11
-190.646
 21
206.177
  0
LINE
  8
0
 10
-190.646
 20
206.177
 11
-190.823
 21
206.354
  0
LINE
  8
0
 10
-190.823
 20
206.354
 11
-190.972
 21
206.554
  0
LINE
  8
0
 10
-190.972
 20
206.554
 11
-191.092
 21
206.773
  0
LINE
  8
0
 10
-191.092
 20
206.773
 11
-191.179
 21
207.007
  0
LINE
  8
0
 10
-191.179
 20
207.007
 11
-191.232
 21
207.251
  0
LINE
  8
0
 10
-191.232
 20
207.251
 11
-191.25
 21
207.5
  0
LINE
  8
0
 10
-191.25
 20
207.5
 11
-289.5
 21
207.5
  0
LINE
  8
0
 10
-289.5
 20
207.5
 11
-289.691
 21
207.462
  0
LINE
  8
0
 10
-289.691
 20
207.462
 11
-289.854
 21
207.354
  0
LINE
  8
0
 10
-289.854
 20
207.354
 11
-289.962
 21
207.191
  0
LINE
  8
0
 10
-289.962
 20
207.191
 11
-290
 21
207
  0
LINE
  8
0
 10
-290
 20
207
 11
-290
 21
-207
  0
LINE
  8
0
 10
-290
 20
-207
 11
-289.962
 21
-207.191
  0
LINE
  8
0
 10
-289.962
 20
-207.191
 11
-289.854
 21
-207.354
  0
LINE
  8
0
 10
-289.854
 20
-207.354
 11
-289.691
 21
-207.462
  0
LINE
  8
0
 10
-289.691
 20
-207.462
 11
-289.5
 21
-207.5
  0
LINE
  8
0
 10
-289.5
 20
-207.5
 11
289.5
 21
-207.5
  0
LINE
  8
0
 10
289.5
 20
-207.5
 11
289.691
 21
-207.462
  0
LINE
  8
0
 10
282.191
 20
198.328
 11
281.951
 21
198.391
  0
LINE
  8
0
 10
281.951
 20
198.391
 11
281.723
 21
198.488
  0
LINE
  8
0
 10
281.723
 20
198.488
 11
281.511
 21
198.617
  0
LINE
  8
0
 10
281.511
 20
198.617
 11
281.32
 21
198.776
  0
LINE
  8
0
 10
281.32
 20
198.776
 11
281.154
 21
198.961
  0
LINE
  8
0
 10
281.154
 20
198.961
 11
281.018
 21
199.168
  0
LINE
  8
0
 10
281.018
 20
199.168
 11
280.912
 21
199.393
  0
LINE
  8
0
 10
280.912
 20
199.393
 11
280.841
 21
199.63
  0
LINE
  8
0
 10
280.841
 20
199.63
 11
280.805
 21
199.876
  0
LINE
  8
0
 10
280.805
 20
199.876
 11
280.805
 21
200.124
  0
LINE
  8
0
 10
280.805
 20
200.124
 11
280.841
 21
200.37
  0
LINE
  8
0
 10
280.841
 20
200.37
 11
280.912
 21
200.607
  0
LINE
  8
0
 10
280.912
 20
200.607
 11
281.018
 21
200.832
  0
LINE
  8
0
 10
281.018
 20
200.832
 11
281.154
 21
201.039
  0
LINE
  8
0
 10
281.154
 20
201.039
 11
281.32
 21
201.224
  0
LINE
  8
0
 10
281.32
 20
201.224
 11
281.511
 21
201.383
  0
LINE
  8
0
 10
281.511
 20
201.383
 11
281.723
 21
201.512
  0
LINE
  8
0
 10
281.723
 20
201.512
 11
281.951
 21
201.609
  0
LINE
  8
0
 10
281.951
 20
201.609
 11
282.191
 21
201.672
  0
LINE
  8
0
 10
282.191
 20
201.672
 11
282.438
 21
201.699
  0
LINE
  8
0
 10
282.438
 20
201.699
 11
282.686
 21
201.69
  0
LINE
  8
0
 10
282.686
 20
201.69
 11
282.93
 21
201.645
  0
LINE
  8
0
 10
282.93
 20
201.645
 11
283.165
 21
201.565
  0
LINE
  8
0
 10
283.165
 20
201.565
 11
283.386
 21
201.451
  0
LINE
  8
0
 10
283.386
 20
201.451
 11
283.587
 21
201.307
  0
LINE
  8
0
 10
283.587
 20
201.307
 11
283.766
 21
201.134
  0
LINE
  8
0
 10
283.766
 20
201.134
 11
283.918
 21
200.938
  0
LINE
  8
0
 10
283.918
 20
200.938
 11
284.039
 21
200.722
  0
LINE
  8
0
 10
284.039
 20
200.722
 11
284.128
 21
200.49
  0
LINE
  8
0
 10
284.128
 20
200.49
 11
284.182
 21
200.248
  0
LINE
  8
0
 10
284.182
 20
200.248
 11
284.2
 21
200
  0
LINE
  8
0
 10
284.2
 20
200
 11
284.182
 21
199.752
  0
LINE
  8
0
 10
284.182
 20
199.752
 11
284.128
 21
199.51
  0
LINE
  8
0
 10
284.128
 20
199.51
 11
284.039
 21
199.278
  0
LINE
  8
0
 10
284.039
 20
199.278
 11
283.918
 21
199.062
  0
LINE
  8
0
 10
283.918
 20
199.062
 11
283.766
 21
198.866
  0
LINE
  8
0
 10
283.766
 20
198.866
 11
283.587
 21
198.693
  0
LINE
  8
0
 10
283.587
 20
198.693
 11
283.386
 21
198.549
  0
LINE
  8
0
 10
283.386
 20
198.549
 11
283.165
 21
198.435
  0
LINE
  8
0
 10
283.165
 20
198.435
 11
282.93
 21
198.355
  0
LINE
  8
0
 10
282.93
 20
198.355
 11
282.686
 21
198.31
  0
LINE
  8
0
 10
282.686
 20
198.31
 11
282.438
 21
198.301
  0
LINE
  8
0
 10
282.438
 20
198.301
 11
282.191
 21
198.328
  0
LINE
  8
0
 10
207.108
 20
188.771
 11
206.72
 21
188.832
  0
LINE
  8
0
 10
206.72
 20
188.832
 11
206.341
 21
188.934
  0
LINE
  8
0
 10
206.341
 20
188.934
 11
205.975
 21
189.074
  0
LINE
  8
0
 10
205.975
 20
189.074
 11
205.625
 21
189.252
  0
LINE
  8
0
 10
205.625
 20
189.252
 11
205.296
 21
189.466
  0
LINE
  8
0
 10
205.296
 20
189.466
 11
204.991
 21
189.713
  0
LINE
  8
0
 10
204.991
 20
189.713
 11
204.713
 21
189.991
  0
LINE
  8
0
 10
204.713
 20
189.991
 11
204.466
 21
190.296
  0
LINE
  8
0
 10
204.466
 20
190.296
 11
204.252
 21
190.625
  0
LINE
  8
0
 10
204.252
 20
190.625
 11
204.074
 21
190.975
  0
LINE
  8
0
 10
204.074
 20
190.975
 11
203.934
 21
191.341
  0
LINE
  8
0
 10
203.934
 20
191.341
 11
203.832
 21
191.72
  0
LINE
  8
0
 10
203.832
 20
191.72
 11
203.771
 21
192.108
  0
LINE
  8
0
 10
203.771
 20
192.108
 11
203.75
 21
192.5
  0
LINE
  8
0
 10
203.75
 20
192.5
 11
203.771
 21
192.892
  0
LINE
  8
0
 10
203.771
 20
192.892
 11
203.832
 21
193.28
  0
LINE
  8
0
 10
203.832
 20
193.28
 11
203.934
 21
193.659
  0
LINE
  8
0
 10
203.934
 20
193.659
 11
204.074
 21
194.025
  0
LINE
  8
0
 10
204.074
 20
194.025
 11
204.252
 21
194.375
  0
LINE
  8
0
 10
204.252
 20
194.375
 11
204.466
 21
194.704
  0
LINE
  8
0
 10
204.466
 20
194.704
 11
204.713
 21
195.009
  0
LINE
  8
0
 10
204.713
 20
195.009
 11
204.991
 21
195.287
  0
LINE
  8
0
 10
204.991
 20
195.287
 11
205.296
 21
195.534
  0
LINE
  8
0
 10
205.296
 20
195.534
 11
205.625
 21
195.748
  0
LINE
  8
0
 10
205.625
 20
195.748
 11
205.975
 21
195.926
  0
LINE
  8
0
 10
205.975
 20
195.926
 11
206.341
 21
196.066
  0
LINE
  8
0
 10
206.341
 20
196.066
 11
206.72
 21
196.168
  0
LINE
  8
0
 10
206.72
 20
196.168
 11
207.108
 21
196.229
  0
LINE
  8
0
 10
207.108
 20
196.229
 11
207.5
 21
196.25
  0
LINE
  8
0
 10
207.5
 20
196.25
 11
207.892
 21
196.229
  0
LINE
  8
0
 10
207.892
 20
196.229
 11
208.28
 21
196.168
  0
LINE
  8
0
 10
208.28
 20
196.168
 11
208.659
 21
196.066
  0
LINE
  8
0
 10
208.659
 20
196.066
 11
209.025
 21
195.926
  0
LINE
  8
0
 10
209.025
 20
195.926
 11
209.375
 21
195.748
  0
LINE
  8
0
 10
209.375
 20
195.748
 11
209.704
 21
195.534
  0
LINE
  8
0
 10
209.704
 20
195.534
 11
210.009
 21
195.287
  0
LINE
  8
0
 10
210.009
 20
195.287
 11
210.287
 21
195.009
  0
LINE
  8
0
 10
210.287
 20
195.009
 11
210.534
 21
194.704
  0
LINE
  8
0
 10
210.534
 20
194.704
 11
210.748
 21
194.375
  0
LINE
  8
0
 10
210.748
 20
194.375
 11
210.926
 21
194.025
  0
LINE
  8
0
 10
210.926
 20
194.025
 11
211.066
 21
193.659
  0
LINE
  8
0
 10
211.066
 20
193.659
 11
211.168
 21
193.28
  0
LINE
  8
0
 10
211.168
 20
193.28
 11
211.229
 21
192.892
  0
LINE
  8
0
 10
211.229
 20
192.892
 11
211.25
 21
192.5
  0
LINE
  8
0
 10
211.25
 20
192.5
 11
211.229
 21
192.108
  0
LINE
  8
0
 10
211.229
 20
192.108
 11
211.168
 21
191.72
  0
LINE
  8
0
 10
211.168
 20
191.72
 11
211.066
 21
191.341
  0
LINE
  8
0
 10
211.066
 20
191.341
 11
210.926
 21
190.975
  0
LINE
  8
0
 10
210.926
 20
190.975
 11
210.748
 21
190.625
  0
LINE
  8
0
 10
210.748
 20
190.625
 11
210.534
 21
190.296
  0
LINE
  8
0
 10
210.534
 20
190.296
 11
210.287
 21
189.991
  0
LINE
  8
0
 10
210.287
 20
189.991
 11
210.009
 21
189.713
  0
LINE
  8
0
 10
210.009
 20
189.713
 11
209.704
 21
189.466
  0
LINE
  8
0
 10
209.704
 20
189.466
 11
209.375
 21
189.252
  0
LINE
  8
0
 10
209.375
 20
189.252
 11
209.025
 21
189.074
  0
LINE
  8
0
 10
209.025
 20
189.074
 11
208.659
 21
188.934
  0
LINE
  8
0
 10
208.659
 20
188.934
 11
208.28
 21
188.832
  0
LINE
  8
0
 10
208.28
 20
188.832
 11
207.892
 21
188.771
  0
LINE
  8
0
 10
207.892
 20
188.771
 11
207.5
 21
188.75
  0
LINE
  8
0
 10
207.5
 20
188.75
 11
207.108
 21
188.771
  0
LINE
  8
0
 10
264.377
 20
191.855
 11
264.133
 21
191.891
  0
LINE
  8
0
 10
264.133
 20
191.891
 11
263.897
 21
191.964
  0
LINE
  8
0
 10
263.897
 20
191.964
 11
263.675
 21
192.071
  0
LINE
  8
0
 10
263.675
 20
192.071
 11
263.471
 21
192.21
  0
LINE
  8
0
 10
263.471
 20
192.21
 11
263.29
 21
192.378
  0
LINE
  8
0
 10
263.29
 20
192.378
 11
263.137
 21
192.571
  0
LINE
  8
0
 10
263.137
 20
192.571
 11
263.013
 21
192.784
  0
LINE
  8
0
 10
263.013
 20
192.784
 11
262.923
 21
193.014
  0
LINE
  8
0
 10
262.923
 20
193.014
 11
262.868
 21
193.254
  0
LINE
  8
0
 10
262.868
 20
193.254
 11
262.85
 21
193.5
  0
LINE
  8
0
 10
262.85
 20
193.5
 11
262.868
 21
193.746
  0
LINE
  8
0
 10
262.868
 20
193.746
 11
262.923
 21
193.986
  0
LINE
  8
0
 10
262.923
 20
193.986
 11
263.013
 21
194.216
  0
LINE
  8
0
 10
263.013
 20
194.216
 11
263.137
 21
194.429
  0
LINE
  8
0
 10
263.137
 20
194.429
 11
263.29
 21
194.622
  0
LINE
  8
0
 10
263.29
 20
194.622
 11
263.471
 21
194.79
  0
LINE
  8
0
 10
263.471
 20
194.79
 11
263.675
 21
194.929
  0
LINE
  8
0
 10
263.675
 20
194.929
 11
263.897
 21
195.036
  0
LINE
  8
0
 10
263.897
 20
195.036
 11
264.133
 21
195.109
  0
LINE
  8
0
 10
264.133
 20
195.109
 11
264.377
 21
195.145
  0
LINE
  8
0
 10
264.377
 20
195.145
 11
272.623
 21
195.145
  0
LINE
  8
0
 10
272.623
 20
195.145
 11
272.867
 21
195.109
  0
LINE
  8
0
 10
272.867
 20
195.109
 11
273.103
 21
195.036
  0
LINE
  8
0
 10
273.103
 20
195.036
 11
273.325
 21
194.929
  0
LINE
  8
0
 10
273.325
 20
194.929
 11
273.529
 21
194.79
  0
LINE
  8
0
 10
273.529
 20
194.79
 11
273.71
 21
194.622
  0
LINE
  8
0
 10
273.71
 20
194.622
 11
273.863
 21
194.429
  0
LINE
  8
0
 10
273.863
 20
194.429
 11
273.987
 21
194.216
  0
LINE
  8
0
 10
273.987
 20
194.216
 11
274.077
 21
193.986
  0
LINE
  8
0
 10
274.077
 20
193.986
 11
274.132
 21
193.746
  0
LINE
  8
0
 10
274.132
 20
193.746
 11
274.15
 21
193.5
  0
LINE
  8
0
 10
274.15
 20
193.5
 11
274.132
 21
193.254
  0
LINE
  8
0
 10
274.132
 20
193.254
 11
274.077
 21
193.014
  0
LINE
  8
0
 10
274.077
 20
193.014
 11
273.987
 21
192.784
  0
LINE
  8
0
 10
273.987
 20
192.784
 11
273.863
 21
192.571
  0
LINE
  8
0
 10
273.863
 20
192.571
 11
273.71
 21
192.378
  0
LINE
  8
0
 10
273.71
 20
192.378
 11
273.529
 21
192.21
  0
LINE
  8
0
 10
273.529
 20
192.21
 11
273.325
 21
192.071
  0
LINE
  8
0
 10
273.325
 20
192.071
 11
273.103
 21
191.964
  0
LINE
  8
0
 10
273.103
 20
191.964
 11
272.867
 21
191.891
  0
LINE
  8
0
 10
272.867
 20
191.891
 11
272.623
 21
191.855
  0
LINE
  8
0
 10
272.623
 20
191.855
 11
264.377
 21
191.855
  0
LINE
  8
0
 10
233.377
 20
191.855
 11
233.133
 21
191.891
  0
LINE
  8
0
 10
233.133
 20
191.891
 11
232.897
 21
191.964
  0
LINE
  8
0
 10
232.897
 20
191.964
 11
232.675
 21
192.071
  0
LINE
  8
0
 10
232.675
 20
192.071
 11
232.471
 21
192.21
  0
LINE
  8
0
 10
232.471
 20
192.21
 11
232.29
 21
192.378
  0
LINE
  8
0
 10
232.29
 20
192.378
 11
232.137
 21
192.571
  0
LINE
  8
0
 10
232.137
 20
192.571
 11
232.013
 21
192.784
  0
LINE
  8
0
 10
232.013
 20
192.784
 11
231.923
 21
193.014
  0
LINE
  8
0
 10
231.923
 20
193.014
 11
231.868
 21
193.254
  0
LINE
  8
0
 10
231.868
 20
193.254
 11
231.85
 21
193.5
  0
LINE
  8
0
 10
231.85
 20
193.5
 11
231.868
 21
193.746
  0
LINE
  8
0
 10
231.868
 20
193.746
 11
231.923
 21
193.986
  0
LINE
  8
0
 10
231.923
 20
193.986
 11
232.013
 21
194.216
  0
LINE
  8
0
 10
232.013
 20
194.216
 11
232.137
 21
194.429
  0
LINE
  8
0
 10
232.137
 20
194.429
 11
232.29
 21
194.622
  0
LINE
  8
0
 10
232.29
 20
194.622
 11
232.471
 21
194.79
  0
LINE
  8
0
 10
232.471
 20
194.79
 11
232.675
 21
194.929
  0
LINE
  8
0
 10
232.675
 20
194.929
 11
232.897
 21
195.036
  0
LINE
  8
0
 10
232.897
 20
195.036
 11
233.133
 21
195.109
  0
LINE
  8
0
 10
233.133
 20
195.109
 11
233.377
 21
195.145
  0
LINE
  8
0
 10
233.377
 20
195.145
 11
241.623
 21
195.145
  0
LINE
  8
0
 10
241.623
 20
195.145
 11
241.867
 21
195.109
  0
LINE
  8
0
 10
241.867
 20
195.109
 11
242.103
 21
195.036
  0
LINE
  8
0
 10
242.103
 20
195.036
 11
242.325
 21
194.929
  0
LINE
  8
0
 10
242.325
 20
194.929
 11
242.529
 21
194.79
  0
LINE
  8
0
 10
242.529
 20
194.79
 11
242.71
 21
194.622
  0
LINE
  8
0
 10
242.71
 20
194.622
 11
242.863
 21
194.429
  0
LINE
  8
0
 10
242.863
 20
194.429
 11
242.987
 21
194.216
  0
LINE
  8
0
 10
242.987
 20
194.216
 11
243.077
 21
193.986
  0
LINE
  8
0
 10
243.077
 20
193.986
 11
243.132
 21
193.746
  0
LINE
  8
0
 10
243.132
 20
193.746
 11
243.15
 21
193.5
  0
LINE
  8
0
 10
243.15
 20
193.5
 11
243.132
 21
193.254
  0
LINE
  8
0
 10
243.132
 20
193.254
 11
243.077
 21
193.014
  0
LINE
  8
0
 10
243.077
 20
193.014
 11
242.987
 21
192.784
  0
LINE
  8
0
 10
242.987
 20
192.784
 11
242.863
 21
192.571
  0
LINE
  8
0
 10
242.863
 20
192.571
 11
242.71
 21
192.378
  0
LINE
  8
0
 10
242.71
 20
192.378
 11
242.529
 21
192.21
  0
LINE
  8
0
 10
242.529
 20
192.21
 11
242.325
 21
192.071
  0
LINE
  8
0
 10
242.325
 20
192.071
 11
242.103
 21
191.964
  0
LINE
  8
0
 10
242.103
 20
191.964
 11
241.867
 21
191.891
  0
LINE
  8
0
 10
241.867
 20
191.891
 11
241.623
 21
191.855
  0
LINE
  8
0
 10
241.623
 20
191.855
 11
233.377
 21
191.855
  0
LINE
  8
0
 10
-97.227
 20
194.092
 11
-96.993
 21
194.179
  0
LINE
  8
0
 10
-96.993
 20
194.179
 11
-96.7491
 21
194.232
  0
LINE
  8
0
 10
-96.7491
 20
194.232
 11
-96.5
 21
194.25
  0
LINE
  8
0
 10
-96.5
 20
194.25
 11
-14.8333
 21
194.25
  0
LINE
  8
0
 10
-14.8333
 20
194.25
 11
-14.5843
 21
194.232
  0
LINE
  8
0
 10
-14.5843
 20
194.232
 11
-14.3403
 21
194.179
  0
LINE
  8
0
 10
-14.3403
 20
194.179
 11
-14.1064
 21
194.092
  0
LINE
  8
0
 10
-14.1064
 20
194.092
 11
-13.8872
 21
193.972
  0
LINE
  8
0
 10
-13.8872
 20
193.972
 11
-13.6873
 21
193.823
  0
LINE
  8
0
 10
-13.6873
 20
193.823
 11
-13.5108
 21
193.646
  0
LINE
  8
0
 10
-13.5108
 20
193.646
 11
-13.3611
 21
193.446
  0
LINE
  8
0
 10
-13.3611
 20
193.446
 11
-13.2415
 21
193.227
  0
LINE
  8
0
 10
-13.2415
 20
193.227
 11
-13.1542
 21
192.993
  0
LINE
  8
0
 10
-13.1542
 20
192.993
 11
-13.1011
 21
192.749
  0
LINE
  8
0
 10
-13.1011
 20
192.749
 11
-13.0833
 21
192.5
  0
LINE
  8
0
 10
-13.0833
 20
192.5
 11
-13.1011
 21
192.251
  0
LINE
  8
0
 10
-13.1011
 20
192.251
 11
-13.1542
 21
192.007
  0
LINE
  8
0
 10
-13.1542
 20
192.007
 11
-13.2415
 21
191.773
  0
LINE
  8
0
 10
-13.2415
 20
191.773
 11
-13.3611
 21
191.554
  0
LINE
  8
0
 10
-13.3611
 20
191.554
 11
-13.5108
 21
191.354
  0
LINE
  8
0
 10
-13.5108
 20
191.354
 11
-13.6873
 21
191.177
  0
LINE
  8
0
 10
-13.6873
 20
191.177
 11
-13.8872
 21
191.028
  0
LINE
  8
0
 10
-13.8872
 20
191.028
 11
-14.1064
 21
190.908
  0
LINE
  8
0
 10
-14.1064
 20
190.908
 11
-14.3403
 21
190.821
  0
LINE
  8
0
 10
-14.3403
 20
190.821
 11
-14.5843
 21
190.768
  0
LINE
  8
0
 10
-14.5843
 20
190.768
 11
-14.8333
 21
190.75
  0
LINE
  8
0
 10
-14.8333
 20
190.75
 11
-96.5
 21
190.75
  0
LINE
  8
0
 10
-96.5
 20
190.75
 11
-96.7491
 21
190.768
  0
LINE
  8
0
 10
-96.7491
 20
190.768
 11
-96.993
 21
190.821
  0
LINE
  8
0
 10
-96.993
 20
190.821
 11
-97.227
 21
190.908
  0
LINE
  8
0
 10
-97.227
 20
190.908
 11
-97.4461
 21
191.028
  0
LINE
  8
0
 10
-97.4461
 20
191.028
 11
-97.646
 21
191.177
  0
LINE
  8
0
 10
-97.646
 20
191.177
 11
-97.8226
 21
191.354
  0
LINE
  8
0
 10
-97.8226
 20
191.354
 11
-97.9722
 21
191.554
  0
LINE
  8
0
 10
-97.9722
 20
191.554
 11
-98.0919
 21
191.773
  0
LINE
  8
0
 10
-98.0919
 20
191.773
 11
-98.1791
 21
192.007
  0
LINE
  8
0
 10
-98.1791
 20
192.007
 11
-98.2322
 21
192.251
  0
LINE
  8
0
 10
-98.2322
 20
192.251
 11
-98.25
 21
192.5
  0
LINE
  8
0
 10
-98.25
 20
192.5
 11
-98.2322
 21
192.749
  0
LINE
  8
0
 10
-98.2322
 20
192.749
 11
-98.1791
 21
192.993
  0
LINE
  8
0
 10
-98.1791
 20
192.993
 11
-98.0919
 21
193.227
  0
LINE
  8
0
 10
-98.0919
 20
193.227
 11
-97.9722
 21
193.446
  0
LINE
  8
0
 10
-97.9722
 20
193.446
 11
-97.8226
 21
193.646
  0
LINE
  8
0
 10
-97.8226
 20
193.646
 11
-97.646
 21
193.823
  0
LINE
  8
0
 10
-97.646
 20
193.823
 11
-97.4461
 21
193.972
  0
LINE
  8
0
 10
-97.4461
 20
193.972
 11
-97.227
 21
194.092
  0
LINE
  8
0
 10
88.5539
 20
193.972
 11
88.773
 21
194.092
  0
LINE
  8
0
 10
88.773
 20
194.092
 11
89.007
 21
194.179
  0
LINE
  8
0
 10
89.007
 20
194.179
 11
89.2509
 21
194.232
  0
LINE
  8
0
 10
89.2509
 20
194.232
 11
89.5
 21
194.25
  0
LINE
  8
0
 10
89.5
 20
194.25
 11
171.167
 21
194.25
  0
LINE
  8
0
 10
171.167
 20
194.25
 11
171.416
 21
194.232
  0
LINE
  8
0
 10
171.416
 20
194.232
 11
171.66
 21
194.179
  0
LINE
  8
0
 10
171.66
 20
194.179
 11
171.894
 21
194.092
  0
LINE
  8
0
 10
171.894
 20
194.092
 11
172.113
 21
193.972
  0
LINE
  8
0
 10
172.113
 20
193.972
 11
172.313
 21
193.823
  0
LINE
  8
0
 10
172.313
 20
193.823
 11
172.489
 21
193.646
  0
LINE
  8
0
 10
172.489
 20
193.646
 11
172.639
 21
193.446
  0
LINE
  8
0
 10
172.639
 20
193.446
 11
172.759
 21
193.227
  0
LINE
  8
0
 10
172.759
 20
193.227
 11
172.846
 21
192.993
  0
LINE
  8
0
 10
172.846
 20
192.993
 11
172.899
 21
192.749
  0
LINE
  8
0
 10
172.899
 20
192.749
 11
172.917
 21
192.5
  0
LINE
  8
0
 10
172.917
 20
192.5
 11
172.899
 21
192.251
  0
LINE
  8
0
 10
172.899
 20
192.251
 11
172.846
 21
192.007
  0
LINE
  8
0
 10
172.846
 20
192.007
 11
172.759
 21
191.773
  0
LINE
  8
0
 10
172.759
 20
191.773
 11
172.639
 21
191.554
  0
LINE
  8
0
 10
172.639
 20
191.554
 11
172.489
 21
191.354
  0
LINE
  8
0
 10
172.489
 20
191.354
 11
172.313
 21
191.177
  0
LINE
  8
0
 10
172.313
 20
191.177
 11
172.113
 21
191.028
  0
LINE
  8
0
 10
172.113
 20
191.028
 11
171.894
 21
190.908
  0
LINE
  8
0
 10
171.894
 20
190.908
 11
171.66
 21
190.821
  0
LINE
  8
0
 10
171.66
 20
190.821
 11
171.416
 21
190.768
  0
LINE
  8
0
 10
171.416
 20
190.768
 11
171.167
 21
190.75
  0
LINE
  8
0
 10
171.167
 20
190.75
 11
89.5
 21
190.75
  0
LINE
  8
0
 10
89.5
 20
190.75
 11
89.2509
 21
190.768
  0
LINE
  8
0
 10
89.2509
 20
190.768
 11
89.007
 21
190.821
  0
LINE
  8
0
 10
89.007
 20
190.821
 11
88.773
 21
190.908
  0
LINE
  8
0
 10
88.773
 20
190.908
 11
88.5539
 21
191.028
  0
LINE
  8
0
 10
88.5539
 20
191.028
 11
88.354
 21
191.177
  0
LINE
  8
0
 10
88.354
 20
191.177
 11
88.1774
 21
191.354
  0
LINE
  8
0
 10
88.1774
 20
191.354
 11
88.0278
 21
191.554
  0
LINE
  8
0
 10
88.0278
 20
191.554
 11
87.9081
 21
191.773
  0
LINE
  8
0
 10
87.9081
 20
191.773
 11
87.8209
 21
192.007
  0
LINE
  8
0
 10
87.8209
 20
192.007
 11
87.7678
 21
192.251
  0
LINE
  8
0
 10
87.7678
 20
192.251
 11
87.75
 21
192.5
  0
LINE
  8
0
 10
87.75
 20
192.5
 11
87.7678
 21
192.749
  0
LINE
  8
0
 10
87.7678
 20
192.749
 11
87.8209
 21
192.993
  0
LINE
  8
0
 10
87.8209
 20
192.993
 11
87.9081
 21
193.227
  0
LINE
  8
0
 10
87.9081
 20
193.227
 11
88.0278
 21
193.446
  0
LINE
  8
0
 10
88.0278
 20
193.446
 11
88.1774
 21
193.646
  0
LINE
  8
0
 10
88.1774
 20
193.646
 11
88.354
 21
193.823
  0
LINE
  8
0
 10
88.354
 20
193.823
 11
88.5539
 21
193.972
  0
LINE
  8
0
 10
197.191
 20
190.828
 11
196.951
 21
190.891
  0
LINE
  8
0
 10
196.951
 20
190.891
 11
196.723
 21
190.988
  0
LINE
  8
0
 10
196.723
 20
190.988
 11
196.511
 21
191.117
  0
LINE
  8
0
 10
196.511
 20
191.117
 11
196.32
 21
191.276
  0
LINE
  8
0
 10
196.32
 20
191.276
 11
196.154
 21
191.461
  0
LINE
  8
0
 10
196.154
 20
191.461
 11
196.018
 21
191.668
  0
LINE
  8
0
 10
196.018
 20
191.668
 11
195.912
 21
191.893
  0
LINE
  8
0
 10
195.912
 20
191.893
 11
195.841
 21
192.13
  0
LINE
  8
0
 10
195.841
 20
192.13
 11
195.805
 21
192.376
  0
LINE
  8
0
 10
195.805
 20
192.376
 11
195.805
 21
192.624
  0
LINE
  8
0
 10
195.805
 20
192.624
 11
195.841
 21
192.87
  0
LINE
  8
0
 10
195.841
 20
192.87
 11
195.912
 21
193.107
  0
LINE
  8
0
 10
195.912
 20
193.107
 11
196.018
 21
193.332
  0
LINE
  8
0
 10
196.018
 20
193.332
 11
196.154
 21
193.539
  0
LINE
  8
0
 10
196.154
 20
193.539
 11
196.32
 21
193.724
  0
LINE
  8
0
 10
196.32
 20
193.724
 11
196.511
 21
193.883
  0
LINE
  8
0
 10
196.511
 20
193.883
 11
196.723
 21
194.012
  0
LINE
  8
0
 10
196.723
 20
194.012
 11
196.951
 21
194.109
  0
LINE
  8
0
 10
196.951
 20
194.109
 11
197.191
 21
194.172
  0
LINE
  8
0
 10
197.191
 20
194.172
 11
197.438
 21
194.199
  0
LINE
  8
0
 10
197.438
 20
194.199
 11
197.686
 21
194.19
  0
LINE
  8
0
 10
197.686
 20
194.19
 11
197.93
 21
194.145
  0
LINE
  8
0
 10
197.93
 20
194.145
 11
198.165
 21
194.065
  0
LINE
  8
0
 10
198.165
 20
194.065
 11
198.386
 21
193.951
  0
LINE
  8
0
 10
198.386
 20
193.951
 11
198.587
 21
193.807
  0
LINE
  8
0
 10
198.587
 20
193.807
 11
198.766
 21
193.634
  0
LINE
  8
0
 10
198.766
 20
193.634
 11
198.918
 21
193.438
  0
LINE
  8
0
 10
198.918
 20
193.438
 11
199.039
 21
193.222
  0
LINE
  8
0
 10
199.039
 20
193.222
 11
199.128
 21
192.99
  0
LINE
  8
0
 10
199.128
 20
192.99
 11
199.182
 21
192.748
  0
LINE
  8
0
 10
199.182
 20
192.748
 11
199.2
 21
192.5
  0
LINE
  8
0
 10
199.2
 20
192.5
 11
199.182
 21
192.252
  0
LINE
  8
0
 10
199.182
 20
192.252
 11
199.128
 21
192.01
  0
LINE
  8
0
 10
199.128
 20
192.01
 11
199.039
 21
191.778
  0
LINE
  8
0
 10
199.039
 20
191.778
 11
198.918
 21
191.562
  0
LINE
  8
0
 10
198.918
 20
191.562
 11
198.766
 21
191.366
  0
LINE
  8
0
 10
198.766
 20
191.366
 11
198.587
 21
191.193
  0
LINE
  8
0
 10
198.587
 20
191.193
 11
198.386
 21
191.049
  0
LINE
  8
0
 10
198.386
 20
191.049
 11
198.165
 21
190.935
  0
LINE
  8
0
 10
198.165
 20
190.935
 11
197.93
 21
190.855
  0
LINE
  8
0
 10
197.93
 20
190.855
 11
197.686
 21
190.81
  0
LINE
  8
0
 10
197.686
 20
190.81
 11
197.438
 21
190.801
  0
LINE
  8
0
 10
197.438
 20
190.801
 11
197.191
 21
190.828
  0
LINE
  8
0
 10
248.5
 20
165.5
 11
247.193
 21
165.568
  0
LINE
  8
0
 10
247.193
 20
165.568
 11
245.901
 21
165.773
  0
LINE
  8
0
 10
245.901
 20
165.773
 11
244.637
 21
166.112
  0
LINE
  8
0
 10
244.637
 20
166.112
 11
243.416
 21
166.581
  0
LINE
  8
0
 10
243.416
 20
166.581
 11
242.25
 21
167.175
  0
LINE
  8
0
 10
242.25
 20
167.175
 11
241.153
 21
167.887
  0
LINE
  8
0
 10
241.153
 20
167.887
 11
240.136
 21
168.711
  0
LINE
  8
0
 10
240.136
 20
168.711
 11
239.211
 21
169.636
  0
LINE
  8
0
 10
239.211
 20
169.636
 11
238.387
 21
170.653
  0
LINE
  8
0
 10
238.387
 20
170.653
 11
237.675
 21
171.75
  0
LINE
  8
0
 10
237.675
 20
171.75
 11
237.081
 21
172.916
  0
LINE
  8
0
 10
237.081
 20
172.916
 11
236.612
 21
174.137
  0
LINE
  8
0
 10
236.612
 20
174.137
 11
236.273
 21
175.401
  0
LINE
  8
0
 10
236.273
 20
175.401
 11
236.068
 21
176.693
  0
LINE
  8
0
 10
236.068
 20
176.693
 11
236
 21
178
  0
LINE
  8
0
 10
236
 20
178
 11
236.068
 21
179.307
  0
LINE
  8
0
 10
236.068
 20
179.307
 11
236.273
 21
180.599
  0
LINE
  8
0
 10
236.273
 20
180.599
 11
236.612
 21
181.863
  0
LINE
  8
0
 10
236.612
 20
181.863
 11
237.081
 21
183.084
  0
LINE
  8
0
 10
237.081
 20
183.084
 11
237.675
 21
184.25
  0
LINE
  8
0
 10
237.675
 20
184.25
 11
238.387
 21
185.347
  0
LINE
  8
0
 10
238.387
 20
185.347
 11
239.211
 21
186.364
  0
LINE
  8
0
 10
239.211
 20
186.364
 11
240.136
 21
187.289
  0
LINE
  8
0
 10
240.136
 20
187.289
 11
241.153
 21
188.113
  0
LINE
  8
0
 10
241.153
 20
188.113
 11
242.25
 21
188.825
  0
LINE
  8
0
 10
242.25
 20
188.825
 11
243.416
 21
189.419
  0
LINE
  8
0
 10
243.416
 20
189.419
 11
244.637
 21
189.888
  0
LINE
  8
0
 10
244.637
 20
189.888
 11
245.901
 21
190.227
  0
LINE
  8
0
 10
245.901
 20
190.227
 11
247.193
 21
190.432
  0
LINE
  8
0
 10
247.193
 20
190.432
 11
248.5
 21
190.5
  0
LINE
  8
0
 10
248.5
 20
190.5
 11
256.5
 21
190.5
  0
LINE
  8
0
 10
256.5
 20
190.5
 11
257.807
 21
190.432
  0
LINE
  8
0
 10
257.807
 20
190.432
 11
259.099
 21
190.227
  0
LINE
  8
0
 10
259.099
 20
190.227
 11
260.363
 21
189.888
  0
LINE
  8
0
 10
260.363
 20
189.888
 11
261.584
 21
189.419
  0
LINE
  8
0
 10
261.584
 20
189.419
 11
262.75
 21
188.825
  0
LINE
  8
0
 10
262.75
 20
188.825
 11
263.847
 21
188.113
  0
LINE
  8
0
 10
263.847
 20
188.113
 11
264.864
 21
187.289
  0
LINE
  8
0
 10
264.864
 20
187.289
 11
265.789
 21
186.364
  0
LINE
  8
0
 10
265.789
 20
186.364
 11
266.613
 21
185.347
  0
LINE
  8
0
 10
266.613
 20
185.347
 11
267.325
 21
184.25
  0
LINE
  8
0
 10
267.325
 20
184.25
 11
267.919
 21
183.084
  0
LINE
  8
0
 10
267.919
 20
183.084
 11
268.388
 21
181.863
  0
LINE
  8
0
 10
268.388
 20
181.863
 11
268.727
 21
180.599
  0
LINE
  8
0
 10
268.727
 20
180.599
 11
268.932
 21
179.307
  0
LINE
  8
0
 10
268.932
 20
179.307
 11
269
 21
178
  0
LINE
  8
0
 10
269
 20
178
 11
268.932
 21
176.693
  0
LINE
  8
0
 10
268.932
 20
176.693
 11
268.727
 21
175.401
  0
LINE
  8
0
 10
268.727
 20
175.401
 11
268.388
 21
174.137
  0
LINE
  8
0
 10
268.388
 20
174.137
 11
267.919
 21
172.916
  0
LINE
  8
0
 10
267.919
 20
172.916
 11
267.325
 21
171.75
  0
LINE
  8
0
 10
267.325
 20
171.75
 11
266.613
 21
170.653
  0
LINE
  8
0
 10
266.613
 20
170.653
 11
265.789
 21
169.636
  0
LINE
  8
0
 10
265.789
 20
169.636
 11
264.864
 21
168.711
  0
LINE
  8
0
 10
264.864
 20
168.711
 11
263.847
 21
167.887
  0
LINE
  8
0
 10
263.847
 20
167.887
 11
262.75
 21
167.175
  0
LINE
  8
0
 10
262.75
 20
167.175
 11
261.584
 21
166.581
  0
LINE
  8
0
 10
261.584
 20
166.581
 11
260.363
 21
166.112
  0
LINE
  8
0
 10
260.363
 20
166.112
 11
259.099
 21
165.773
  0
LINE
  8
0
 10
259.099
 20
165.773
 11
257.807
 21
165.568
  0
LINE
  8
0
 10
257.807
 20
165.568
 11
256.5
 21
165.5
  0
LINE
  8
0
 10
256.5
 20
165.5
 11
248.5
 21
165.5
  0
LINE
  8
0
 10
-199
 20
-185
 11
-199.223
 21
-184.975
  0
LINE
  8
0
 10
-199.223
 20
-184.975
 11
-199.434
 21
-184.901
  0
LINE
  8
0
 10
-199.434
 20
-184.901
 11
-199.623
 21
-184.782
  0
LINE
  8
0
 10
-199.623
 20
-184.782
 11
-199.782
 21
-184.623
  0
LINE
  8
0
 10
-199.782
 20
-184.623
 11
-199.901
 21
-184.434
  0
LINE
  8
0
 10
-199.901
 20
-184.434
 11
-199.975
 21
-184.223
  0
LINE
  8
0
 10
-199.975
 20
-184.223
 11
-200
 21
-184
  0
LINE
  8
0
 10
-200
 20
-184
 11
-200
 21
184
  0
LINE
  8
0
 10
-200
 20
184
 11
-199.975
 21
184.223
  0
LINE
  8
0
 10
-199.975
 20
184.223
 11
-199.901
 21
184.434
  0
LINE
  8
0
 10
-199.901
 20
184.434
 11
-199.782
 21
184.623
  0
LINE
  8
0
 10
-199.782
 20
184.623
 11
-199.623
 21
184.782
  0
LINE
  8
0
 10
-199.623
 20
184.782
 11
-199.434
 21
184.901
  0
LINE
  8
0
 10
-199.434
 20
184.901
 11
-199.223
 21
184.975
  0
LINE
  8
0
 10
-199.223
 20
184.975
 11
-199
 21
185
  0
LINE
  8
0
 10
-199
 20
185
 11
199
 21
185
  0
LINE
  8
0
 10
199
 20
185
 11
199.223
 21
184.975
  0
LINE
  8
0
 10
199.223
 20
184.975
 11
199.434
 21
184.901
  0
LINE
  8
0
 10
199.434
 20
184.901
 11
199.623
 21
184.782
  0
LINE
  8
0
 10
199.623
 20
184.782
 11
199.782
 21
184.623
  0
LINE
  8
0
 10
199.782
 20
184.623
 11
199.901
 21
184.434
  0
LINE
  8
0
 10
199.901
 20
184.434
 11
199.975
 21
184.223
  0
LINE
  8
0
 10
199.975
 20
184.223
 11
200
 21
184
  0
LINE
  8
0
 10
200
 20
184
 11
200
 21
-184
  0
LINE
  8
0
 10
200
 20
-184
 11
199.975
 21
-184.223
  0
LINE
  8
0
 10
199.975
 20
-184.223
 11
199.901
 21
-184.434
  0
LINE
  8
0
 10
199.901
 20
-184.434
 11
199.782
 21
-184.623
  0
LINE
  8
0
 10
199.782
 20
-184.623
 11
199.623
 21
-184.782
  0
LINE
  8
0
 10
199.623
 20
-184.782
 11
199.434
 21
-184.901
  0
LINE
  8
0
 10
199.434
 20
-184.901
 11
199.223
 21
-184.975
  0
LINE
  8
0
 10
199.223
 20
-184.975
 11
199
 21
-185
  0
LINE
  8
0
 10
199
 20
-185
 11
-199
 21
-185
  0
LINE
  8
0
 10
207.191
 20
180.828
 11
206.951
 21
180.891
  0
LINE
  8
0
 10
206.951
 20
180.891
 11
206.723
 21
180.988
  0
LINE
  8
0
 10
206.723
 20
180.988
 11
206.511
 21
181.117
  0
LINE
  8
0
 10
206.511
 20
181.117
 11
206.32
 21
181.276
  0
LINE
  8
0
 10
206.32
 20
181.276
 11
206.154
 21
181.461
  0
LINE
  8
0
 10
206.154
 20
181.461
 11
206.018
 21
181.668
  0
LINE
  8
0
 10
206.018
 20
181.668
 11
205.912
 21
181.893
  0
LINE
  8
0
 10
205.912
 20
181.893
 11
205.841
 21
182.13
  0
LINE
  8
0
 10
205.841
 20
182.13
 11
205.805
 21
182.376
  0
LINE
  8
0
 10
205.805
 20
182.376
 11
205.805
 21
182.624
  0
LINE
  8
0
 10
205.805
 20
182.624
 11
205.841
 21
182.87
  0
LINE
  8
0
 10
205.841
 20
182.87
 11
205.912
 21
183.107
  0
LINE
  8
0
 10
205.912
 20
183.107
 11
206.018
 21
183.332
  0
LINE
  8
0
 10
206.018
 20
183.332
 11
206.154
 21
183.539
  0
LINE
  8
0
 10
206.154
 20
183.539
 11
206.32
 21
183.724
  0
LINE
  8
0
 10
206.32
 20
183.724
 11
206.511
 21
183.883
  0
LINE
  8
0
 10
206.511
 20
183.883
 11
206.723
 21
184.012
  0
LINE
  8
0
 10
206.723
 20
184.012
 11
206.951
 21
184.109
  0
LINE
  8
0
 10
206.951
 20
184.109
 11
207.191
 21
184.172
  0
LINE
  8
0
 10
207.191
 20
184.172
 11
207.438
 21
184.199
  0
LINE
  8
0
 10
207.438
 20
184.199
 11
207.686
 21
184.19
  0
LINE
  8
0
 10
207.686
 20
184.19
 11
207.93
 21
184.145
  0
LINE
  8
0
 10
207.93
 20
184.145
 11
208.165
 21
184.065
  0
LINE
  8
0
 10
208.165
 20
184.065
 11
208.386
 21
183.951
  0
LINE
  8
0
 10
208.386
 20
183.951
 11
208.587
 21
183.807
  0
LINE
  8
0
 10
208.587
 20
183.807
 11
208.766
 21
183.634
  0
LINE
  8
0
 10
208.766
 20
183.634
 11
208.918
 21
183.438
  0
LINE
  8
0
 10
208.918
 20
183.438
 11
209.039
 21
183.222
  0
LINE
  8
0
 10
209.039
 20
183.222
 11
209.128
 21
182.99
  0
LINE
  8
0
 10
209.128
 20
182.99
 11
209.182
 21
182.748
  0
LINE
  8
0
 10
209.182
 20
182.748
 11
209.2
 21
182.5
  0
LINE
  8
0
 10
209.2
 20
182.5
 11
209.182
 21
182.252
  0
LINE
  8
0
 10
209.182
 20
182.252
 11
209.128
 21
182.01
  0
LINE
  8
0
 10
209.128
 20
182.01
 11
209.039
 21
181.778
  0
LINE
  8
0
 10
209.039
 20
181.778
 11
208.918
 21
181.562
  0
LINE
  8
0
 10
208.918
 20
181.562
 11
208.766
 21
181.366
  0
LINE
  8
0
 10
208.766
 20
181.366
 11
208.587
 21
181.193
  0
LINE
  8
0
 10
208.587
 20
181.193
 11
208.386
 21
181.049
  0
LINE
  8
0
 10
208.386
 20
181.049
 11
208.165
 21
180.935
  0
LINE
  8
0
 10
208.165
 20
180.935
 11
207.93
 21
180.855
  0
LINE
  8
0
 10
207.93
 20
180.855
 11
207.686
 21
180.81
  0
LINE
  8
0
 10
207.686
 20
180.81
 11
207.438
 21
180.801
  0
LINE
  8
0
 10
207.438
 20
180.801
 11
207.191
 21
180.828
  0
LINE
  8
0
 10
-255.309
 20
176.328
 11
-255.549
 21
176.391
  0
LINE
  8
0
 10
-255.549
 20
176.391
 11
-255.777
 21
176.488
  0
LINE
  8
0
 10
-255.777
 20
176.488
 11
-255.989
 21
176.617
  0
LINE
  8
0
 10
-255.989
 20
176.617
 11
-256.18
 21
176.776
  0
LINE
  8
0
 10
-256.18
 20
176.776
 11
-256.346
 21
176.961
  0
LINE
  8
0
 10
-256.346
 20
176.961
 11
-256.482
 21
177.168
  0
LINE
  8
0
 10
-256.482
 20
177.168
 11
-256.588
 21
177.393
  0
LINE
  8
0
 10
-256.588
 20
177.393
 11
-256.659
 21
177.63
  0
LINE
  8
0
 10
-256.659
 20
177.63
 11
-256.695
 21
177.876
  0
LINE
  8
0
 10
-256.695
 20
177.876
 11
-256.695
 21
178.124
  0
LINE
  8
0
 10
-256.695
 20
178.124
 11
-256.659
 21
178.37
  0
LINE
  8
0
 10
-256.659
 20
178.37
 11
-256.588
 21
178.607
  0
LINE
  8
0
 10
-256.588
 20
178.607
 11
-256.482
 21
178.832
  0
LINE
  8
0
 10
-256.482
 20
178.832
 11
-256.346
 21
179.039
  0
LINE
  8
0
 10
-256.346
 20
179.039
 11
-256.18
 21
179.224
  0
LINE
  8
0
 10
-256.18
 20
179.224
 11
-255.989
 21
179.383
  0
LINE
  8
0
 10
-255.989
 20
179.383
 11
-255.777
 21
179.512
  0
LINE
  8
0
 10
-255.777
 20
179.512
 11
-255.549
 21
179.609
  0
LINE
  8
0
 10
-255.549
 20
179.609
 11
-255.309
 21
179.672
  0
LINE
  8
0
 10
-255.309
 20
179.672
 11
-255.062
 21
179.699
  0
LINE
  8
0
 10
-255.062
 20
179.699
 11
-254.814
 21
179.69
  0
LINE
  8
0
 10
-254.814
 20
179.69
 11
-254.57
 21
179.645
  0
LINE
  8
0
 10
-254.57
 20
179.645
 11
-254.335
 21
179.565
  0
LINE
  8
0
 10
-254.335
 20
179.565
 11
-254.114
 21
179.451
  0
LINE
  8
0
 10
-254.114
 20
179.451
 11
-253.913
 21
179.307
  0
LINE
  8
0
 10
-253.913
 20
179.307
 11
-253.734
 21
179.134
  0
LINE
  8
0
 10
-253.734
 20
179.134
 11
-253.582
 21
178.938
  0
LINE
  8
0
 10
-253.582
 20
178.938
 11
-253.461
 21
178.722
  0
LINE
  8
0
 10
-253.461
 20
178.722
 11
-253.372
 21
178.49
  0
LINE
  8
0
 10
-253.372
 20
178.49
 11
-253.318
 21
178.248
  0
LINE
  8
0
 10
-253.318
 20
178.248
 11
-253.3
 21
178
  0
LINE
  8
0
 10
-253.3
 20
178
 11
-253.318
 21
177.752
  0
LINE
  8
0
 10
-253.318
 20
177.752
 11
-253.372
 21
177.51
  0
LINE
  8
0
 10
-253.372
 20
177.51
 11
-253.461
 21
177.278
  0
LINE
  8
0
 10
-253.461
 20
177.278
 11
-253.582
 21
177.062
  0
LINE
  8
0
 10
-253.582
 20
177.062
 11
-253.734
 21
176.866
  0
LINE
  8
0
 10
-253.734
 20
176.866
 11
-253.913
 21
176.693
  0
LINE
  8
0
 10
-253.913
 20
176.693
 11
-254.114
 21
176.549
  0
LINE
  8
0
 10
-254.114
 20
176.549
 11
-254.335
 21
176.435
  0
LINE
  8
0
 10
-254.335
 20
176.435
 11
-254.57
 21
176.355
  0
LINE
  8
0
 10
-254.57
 20
176.355
 11
-254.814
 21
176.31
  0
LINE
  8
0
 10
-254.814
 20
176.31
 11
-255.062
 21
176.301
  0
LINE
  8
0
 10
-255.062
 20
176.301
 11
-255.309
 21
176.328
  0
LINE
  8
0
 10
-234.809
 20
165.328
 11
-235.049
 21
165.391
  0
LINE
  8
0
 10
-235.049
 20
165.391
 11
-235.277
 21
165.488
  0
LINE
  8
0
 10
-235.277
 20
165.488
 11
-235.489
 21
165.617
  0
LINE
  8
0
 10
-235.489
 20
165.617
 11
-235.68
 21
165.776
  0
LINE
  8
0
 10
-235.68
 20
165.776
 11
-235.846
 21
165.961
  0
LINE
  8
0
 10
-235.846
 20
165.961
 11
-235.982
 21
166.168
  0
LINE
  8
0
 10
-235.982
 20
166.168
 11
-236.088
 21
166.393
  0
LINE
  8
0
 10
-236.088
 20
166.393
 11
-236.159
 21
166.63
  0
LINE
  8
0
 10
-236.159
 20
166.63
 11
-236.195
 21
166.876
  0
LINE
  8
0
 10
-236.195
 20
166.876
 11
-236.195
 21
167.124
  0
LINE
  8
0
 10
-236.195
 20
167.124
 11
-236.159
 21
167.37
  0
LINE
  8
0
 10
-236.159
 20
167.37
 11
-236.088
 21
167.607
  0
LINE
  8
0
 10
-236.088
 20
167.607
 11
-235.982
 21
167.832
  0
LINE
  8
0
 10
-235.982
 20
167.832
 11
-235.846
 21
168.039
  0
LINE
  8
0
 10
-235.846
 20
168.039
 11
-235.68
 21
168.224
  0
LINE
  8
0
 10
-235.68
 20
168.224
 11
-235.489
 21
168.383
  0
LINE
  8
0
 10
-235.489
 20
168.383
 11
-235.277
 21
168.512
  0
LINE
  8
0
 10
-235.277
 20
168.512
 11
-235.049
 21
168.609
  0
LINE
  8
0
 10
-235.049
 20
168.609
 11
-234.809
 21
168.672
  0
LINE
  8
0
 10
-234.809
 20
168.672
 11
-234.562
 21
168.699
  0
LINE
  8
0
 10
-234.562
 20
168.699
 11
-234.314
 21
168.69
  0
LINE
  8
0
 10
-234.314
 20
168.69
 11
-234.07
 21
168.645
  0
LINE
  8
0
 10
-234.07
 20
168.645
 11
-233.835
 21
168.565
  0
LINE
  8
0
 10
-233.835
 20
168.565
 11
-233.614
 21
168.451
  0
LINE
  8
0
 10
-233.614
 20
168.451
 11
-233.413
 21
168.307
  0
LINE
  8
0
 10
-233.413
 20
168.307
 11
-233.234
 21
168.134
  0
LINE
  8
0
 10
-233.234
 20
168.134
 11
-233.082
 21
167.938
  0
LINE
  8
0
 10
-233.082
 20
167.938
 11
-232.961
 21
167.722
  0
LINE
  8
0
 10
-232.961
 20
167.722
 11
-232.872
 21
167.49
  0
LINE
  8
0
 10
-232.872
 20
167.49
 11
-232.818
 21
167.248
  0
LINE
  8
0
 10
-232.818
 20
167.248
 11
-232.8
 21
167
  0
LINE
  8
0
 10
-232.8
 20
167
 11
-232.818
 21
166.752
  0
LINE
  8
0
 10
-232.818
 20
166.752
 11
-232.872
 21
166.51
  0
LINE
  8
0
 10
-232.872
 20
166.51
 11
-232.961
 21
166.278
  0
LINE
  8
0
 10
-232.961
 20
166.278
 11
-233.082
 21
166.062
  0
LINE
  8
0
 10
-233.082
 20
166.062
 11
-233.234
 21
165.866
  0
LINE
  8
0
 10
-233.234
 20
165.866
 11
-233.413
 21
165.693
  0
LINE
  8
0
 10
-233.413
 20
165.693
 11
-233.614
 21
165.549
  0
LINE
  8
0
 10
-233.614
 20
165.549
 11
-233.835
 21
165.435
  0
LINE
  8
0
 10
-233.835
 20
165.435
 11
-234.07
 21
165.355
  0
LINE
  8
0
 10
-234.07
 20
165.355
 11
-234.314
 21
165.31
  0
LINE
  8
0
 10
-234.314
 20
165.31
 11
-234.562
 21
165.301
  0
LINE
  8
0
 10
-234.562
 20
165.301
 11
-234.809
 21
165.328
  0
LINE
  8
0
 10
264.377
 20
160.855
 11
264.133
 21
160.891
  0
LINE
  8
0
 10
264.133
 20
160.891
 11
263.897
 21
160.964
  0
LINE
  8
0
 10
263.897
 20
160.964
 11
263.675
 21
161.071
  0
LINE
  8
0
 10
263.675
 20
161.071
 11
263.471
 21
161.21
  0
LINE
  8
0
 10
263.471
 20
161.21
 11
263.29
 21
161.378
  0
LINE
  8
0
 10
263.29
 20
161.378
 11
263.137
 21
161.571
  0
LINE
  8
0
 10
263.137
 20
161.571
 11
263.013
 21
161.784
  0
LINE
  8
0
 10
263.013
 20
161.784
 11
262.923
 21
162.014
  0
LINE
  8
0
 10
262.923
 20
162.014
 11
262.868
 21
162.254
  0
LINE
  8
0
 10
262.868
 20
162.254
 11
262.85
 21
162.5
  0
LINE
  8
0
 10
262.85
 20
162.5
 11
262.868
 21
162.746
  0
LINE
  8
0
 10
262.868
 20
162.746
 11
262.923
 21
162.986
  0
LINE
  8
0
 10
262.923
 20
162.986
 11
263.013
 21
163.216
  0
LINE
  8
0
 10
263.013
 20
163.216
 11
263.137
 21
163.429
  0
LINE
  8
0
 10
263.137
 20
163.429
 11
263.29
 21
163.622
  0
LINE
  8
0
 10
263.29
 20
163.622
 11
263.471
 21
163.79
  0
LINE
  8
0
 10
263.471
 20
163.79
 11
263.675
 21
163.929
  0
LINE
  8
0
 10
263.675
 20
163.929
 11
263.897
 21
164.036
  0
LINE
  8
0
 10
263.897
 20
164.036
 11
264.133
 21
164.109
  0
LINE
  8
0
 10
264.133
 20
164.109
 11
264.377
 21
164.145
  0
LINE
  8
0
 10
264.377
 20
164.145
 11
272.623
 21
164.145
  0
LINE
  8
0
 10
272.623
 20
164.145
 11
272.867
 21
164.109
  0
LINE
  8
0
 10
272.867
 20
164.109
 11
273.103
 21
164.036
  0
LINE
  8
0
 10
273.103
 20
164.036
 11
273.325
 21
163.929
  0
LINE
  8
0
 10
273.325
 20
163.929
 11
273.529
 21
163.79
  0
LINE
  8
0
 10
273.529
 20
163.79
 11
273.71
 21
163.622
  0
LINE
  8
0
 10
273.71
 20
163.622
 11
273.863
 21
163.429
  0
LINE
  8
0
 10
273.863
 20
163.429
 11
273.987
 21
163.216
  0
LINE
  8
0
 10
273.987
 20
163.216
 11
274.077
 21
162.986
  0
LINE
  8
0
 10
274.077
 20
162.986
 11
274.132
 21
162.746
  0
LINE
  8
0
 10
274.132
 20
162.746
 11
274.15
 21
162.5
  0
LINE
  8
0
 10
274.15
 20
162.5
 11
274.132
 21
162.254
  0
LINE
  8
0
 10
274.132
 20
162.254
 11
274.077
 21
162.014
  0
LINE
  8
0
 10
274.077
 20
162.014
 11
273.987
 21
161.784
  0
LINE
  8
0
 10
273.987
 20
161.784
 11
273.863
 21
161.571
  0
LINE
  8
0
 10
273.863
 20
161.571
 11
273.71
 21
161.378
  0
LINE
  8
0
 10
273.71
 20
161.378
 11
273.529
 21
161.21
  0
LINE
  8
0
 10
273.529
 20
161.21
 11
273.325
 21
161.071
  0
LINE
  8
0
 10
273.325
 20
161.071
 11
273.103
 21
160.964
  0
LINE
  8
0
 10
273.103
 20
160.964
 11
272.867
 21
160.891
  0
LINE
  8
0
 10
272.867
 20
160.891
 11
272.623
 21
160.855
  0
LINE
  8
0
 10
272.623
 20
160.855
 11
264.377
 21
160.855
  0
LINE
  8
0
 10
233.377
 20
160.855
 11
233.133
 21
160.891
  0
LINE
  8
0
 10
233.133
 20
160.891
 11
232.897
 21
160.964
  0
LINE
  8
0
 10
232.897
 20
160.964
 11
232.675
 21
161.071
  0
LINE
  8
0
 10
232.675
 20
161.071
 11
232.471
 21
161.21
  0
LINE
  8
0
 10
232.471
 20
161.21
 11
232.29
 21
161.378
  0
LINE
  8
0
 10
232.29
 20
161.378
 11
232.137
 21
161.571
  0
LINE
  8
0
 10
232.137
 20
161.571
 11
232.013
 21
161.784
  0
LINE
  8
0
 10
232.013
 20
161.784
 11
231.923
 21
162.014
  0
LINE
  8
0
 10
231.923
 20
162.014
 11
231.868
 21
162.254
  0
LINE
  8
0
 10
231.868
 20
162.254
 11
231.85
 21
162.5
  0
LINE
  8
0
 10
231.85
 20
162.5
 11
231.868
 21
162.746
  0
LINE
  8
0
 10
231.868
 20
162.746
 11
231.923
 21
162.986
  0
LINE
  8
0
 10
231.923
 20
162.986
 11
232.013
 21
163.216
  0
LINE
  8
0
 10
232.013
 20
163.216
 11
232.137
 21
163.429
  0
LINE
  8
0
 10
232.137
 20
163.429
 11
232.29
 21
163.622
  0
LINE
  8
0
 10
232.29
 20
163.622
 11
232.471
 21
163.79
  0
LINE
  8
0
 10
232.471
 20
163.79
 11
232.675
 21
163.929
  0
LINE
  8
0
 10
232.675
 20
163.929
 11
232.897
 21
164.036
  0
LINE
  8
0
 10
232.897
 20
164.036
 11
233.133
 21
164.109
  0
LINE
  8
0
 10
233.133
 20
164.109
 11
233.377
 21
164.145
  0
LINE
  8
0
 10
233.377
 20
164.145
 11
241.623
 21
164.145
  0
LINE
  8
0
 10
241.623
 20
164.145
 11
241.867
 21
164.109
  0
LINE
  8
0
 10
241.867
 20
164.109
 11
242.103
 21
164.036
  0
LINE
  8
0
 10
242.103
 20
164.036
 11
242.325
 21
163.929
  0
LINE
  8
0
 10
242.325
 20
163.929
 11
242.529
 21
163.79
  0
LINE
  8
0
 10
242.529
 20
163.79
 11
242.71
 21
163.622
  0
LINE
  8
0
 10
242.71
 20
163.622
 11
242.863
 21
163.429
  0
LINE
  8
0
 10
242.863
 20
163.429
 11
242.987
 21
163.216
  0
LINE
  8
0
 10
242.987
 20
163.216
 11
243.077
 21
162.986
  0
LINE
  8
0
 10
243.077
 20
162.986
 11
243.132
 21
162.746
  0
LINE
  8
0
 10
243.132
 20
162.746
 11
243.15
 21
162.5
  0
LINE
  8
0
 10
243.15
 20
162.5
 11
243.132
 21
162.254
  0
LINE
  8
0
 10
243.132
 20
162.254
 11
243.077
 21
162.014
  0
LINE
  8
0
 10
243.077
 20
162.014
 11
242.987
 21
161.784
  0
LINE
  8
0
 10
242.987
 20
161.784
 11
242.863
 21
161.571
  0
LINE
  8
0
 10
242.863
 20
161.571
 11
242.71
 21
161.378
  0
LINE
  8
0
 10
242.71
 20
161.378
 11
242.529
 21
161.21
  0
LINE
  8
0
 10
242.529
 20
161.21
 11
242.325
 21
161.071
  0
LINE
  8
0
 10
242.325
 20
161.071
 11
242.103
 21
160.964
  0
LINE
  8
0
 10
242.103
 20
160.964
 11
241.867
 21
160.891
  0
LINE
  8
0
 10
241.867
 20
160.891
 11
241.623
 21
160.855
  0
LINE
  8
0
 10
241.623
 20
160.855
 11
233.377
 21
160.855
  0
LINE
  8
0
 10
207.251
 20
80.7678
 11
207.007
 21
80.8209
  0
LINE
  8
0
 10
207.007
 20
80.8209
 11
206.773
 21
80.9081
  0
LINE
  8
0
 10
206.773
 20
80.9081
 11
206.554
 21
81.0278
  0
LINE
  8
0
 10
206.554
 20
81.0278
 11
206.354
 21
81.1774
  0
LINE
  8
0
 10
206.354
 20
81.1774
 11
206.177
 21
81.354
  0
LINE
  8
0
 10
206.177
 20
81.354
 11
206.028
 21
81.5539
  0
LINE
  8
0
 10
206.028
 20
81.5539
 11
205.908
 21
81.773
  0
LINE
  8
0
 10
205.908
 20
81.773
 11
205.821
 21
82.007
  0
LINE
  8
0
 10
205.821
 20
82.007
 11
205.768
 21
82.2509
  0
LINE
  8
0
 10
205.768
 20
82.2509
 11
205.75
 21
82.5
  0
LINE
  8
0
 10
205.75
 20
82.5
 11
205.75
 21
154.167
  0
LINE
  8
0
 10
205.75
 20
154.167
 11
205.768
 21
154.416
  0
LINE
  8
0
 10
205.768
 20
154.416
 11
205.821
 21
154.66
  0
LINE
  8
0
 10
205.821
 20
154.66
 11
205.908
 21
154.894
  0
LINE
  8
0
 10
205.908
 20
154.894
 11
206.028
 21
155.113
  0
LINE
  8
0
 10
206.028
 20
155.113
 11
206.177
 21
155.313
  0
LINE
  8
0
 10
206.177
 20
155.313
 11
206.354
 21
155.489
  0
LINE
  8
0
 10
206.354
 20
155.489
 11
206.554
 21
155.639
  0
LINE
  8
0
 10
206.554
 20
155.639
 11
206.773
 21
155.759
  0
LINE
  8
0
 10
206.773
 20
155.759
 11
207.007
 21
155.846
  0
LINE
  8
0
 10
207.007
 20
155.846
 11
207.251
 21
155.899
  0
LINE
  8
0
 10
207.251
 20
155.899
 11
207.5
 21
155.917
  0
LINE
  8
0
 10
207.5
 20
155.917
 11
207.749
 21
155.899
  0
LINE
  8
0
 10
207.749
 20
155.899
 11
207.993
 21
155.846
  0
LINE
  8
0
 10
207.993
 20
155.846
 11
208.227
 21
155.759
  0
LINE
  8
0
 10
208.227
 20
155.759
 11
208.446
 21
155.639
  0
LINE
  8
0
 10
208.446
 20
155.639
 11
208.646
 21
155.489
  0
LINE
  8
0
 10
208.646
 20
155.489
 11
208.823
 21
155.313
  0
LINE
  8
0
 10
208.823
 20
155.313
 11
208.972
 21
155.113
  0
LINE
  8
0
 10
208.972
 20
155.113
 11
209.092
 21
154.894
  0
LINE
  8
0
 10
209.092
 20
154.894
 11
209.179
 21
154.66
  0
LINE
  8
0
 10
209.179
 20
154.66
 11
209.232
 21
154.416
  0
LINE
  8
0
 10
209.232
 20
154.416
 11
209.25
 21
154.167
  0
LINE
  8
0
 10
209.25
 20
154.167
 11
209.25
 21
82.5
  0
LINE
  8
0
 10
209.25
 20
82.5
 11
209.232
 21
82.2509
  0
LINE
  8
0
 10
209.232
 20
82.2509
 11
209.179
 21
82.007
  0
LINE
  8
0
 10
209.179
 20
82.007
 11
209.092
 21
81.773
  0
LINE
  8
0
 10
209.092
 20
81.773
 11
208.972
 21
81.5539
  0
LINE
  8
0
 10
208.972
 20
81.5539
 11
208.823
 21
81.354
  0
LINE
  8
0
 10
208.823
 20
81.354
 11
208.646
 21
81.1774
  0
LINE
  8
0
 10
208.646
 20
81.1774
 11
208.446
 21
81.0278
  0
LINE
  8
0
 10
208.446
 20
81.0278
 11
208.227
 21
80.9081
  0
LINE
  8
0
 10
208.227
 20
80.9081
 11
207.993
 21
80.8209
  0
LINE
  8
0
 10
207.993
 20
80.8209
 11
207.749
 21
80.7678
  0
LINE
  8
0
 10
207.749
 20
80.7678
 11
207.5
 21
80.75
  0
LINE
  8
0
 10
207.5
 20
80.75
 11
207.251
 21
80.7678
  0
LINE
  8
0
 10
-207.749
 20
80.7678
 11
-207.993
 21
80.8209
  0
LINE
  8
0
 10
-207.993
 20
80.8209
 11
-208.227
 21
80.9081
  0
LINE
  8
0
 10
-208.227
 20
80.9081
 11
-208.446
 21
81.0278
  0
LINE
  8
0
 10
-208.446
 20
81.0278
 11
-208.646
 21
81.1774
  0
LINE
  8
0
 10
-208.646
 20
81.1774
 11
-208.823
 21
81.354
  0
LINE
  8
0
 10
-208.823
 20
81.354
 11
-208.972
 21
81.5539
  0
LINE
  8
0
 10
-208.972
 20
81.5539
 11
-209.092
 21
81.773
  0
LINE
  8
0
 10
-209.092
 20
81.773
 11
-209.179
 21
82.007
  0
LINE
  8
0
 10
-209.179
 20
82.007
 11
-209.232
 21
82.2509
  0
LINE
  8
0
 10
-209.232
 20
82.2509
 11
-209.25
 21
82.5
  0
LINE
  8
0
 10
-209.25
 20
82.5
 11
-209.25
 21
154.167
  0
LINE
  8
0
 10
-209.25
 20
154.167
 11
-209.232
 21
154.416
  0
LINE
  8
0
 10
-209.232
 20
154.416
 11
-209.179
 21
154.66
  0
LINE
  8
0
 10
-209.179
 20
154.66
 11
-209.092
 21
154.894
  0
LINE
  8
0
 10
-209.092
 20
154.894
 11
-208.972
 21
155.113
  0
LINE
  8
0
 10
-208.972
 20
155.113
 11
-208.823
 21
155.313
  0
LINE
  8
0
 10
-208.823
 20
155.313
 11
-208.646
 21
155.489
  0
LINE
  8
0
 10
-208.646
 20
155.489
 11
-208.446
 21
155.639
  0
LINE
  8
0
 10
-208.446
 20
155.639
 11
-208.227
 21
155.759
  0
LINE
  8
0
 10
-208.227
 20
155.759
 11
-207.993
 21
155.846
  0
LINE
  8
0
 10
-207.993
 20
155.846
 11
-207.749
 21
155.899
  0
LINE
  8
0
 10
-207.749
 20
155.899
 11
-207.5
 21
155.917
  0
LINE
  8
0
 10
-207.5
 20
155.917
 11
-207.251
 21
155.899
  0
LINE
  8
0
 10
-207.251
 20
155.899
 11
-207.007
 21
155.846
  0
LINE
  8
0
 10
-207.007
 20
155.846
 11
-206.773
 21
155.759
  0
LINE
  8
0
 10
-206.773
 20
155.759
 11
-206.554
 21
155.639
  0
LINE
  8
0
 10
-206.554
 20
155.639
 11
-206.354
 21
155.489
  0
LINE
  8
0
 10
-206.354
 20
155.489
 11
-206.177
 21
155.313
  0
LINE
  8
0
 10
-206.177
 20
155.313
 11
-206.028
 21
155.113
  0
LINE
  8
0
 10
-206.028
 20
155.113
 11
-205.908
 21
154.894
  0
LINE
  8
0
 10
-205.908
 20
154.894
 11
-205.821
 21
154.66
  0
LINE
  8
0
 10
-205.821
 20
154.66
 11
-205.768
 21
154.416
  0
LINE
  8
0
 10
-205.768
 20
154.416
 11
-205.75
 21
154.167
  0
LINE
  8
0
 10
-205.75
 20
154.167
 11
-205.75
 21
82.5
  0
LINE
  8
0
 10
-205.75
 20
82.5
 11
-205.768
 21
82.2509
  0
LINE
  8
0
 10
-205.768
 20
82.2509
 11
-205.821
 21
82.007
  0
LINE
  8
0
 10
-205.821
 20
82.007
 11
-205.908
 21
81.773
  0
LINE
  8
0
 10
-205.908
 20
81.773
 11
-206.028
 21
81.5539
  0
LINE
  8
0
 10
-206.028
 20
81.5539
 11
-206.177
 21
81.354
  0
LINE
  8
0
 10
-206.177
 20
81.354
 11
-206.354
 21
81.1774
  0
LINE
  8
0
 10
-206.354
 20
81.1774
 11
-206.554
 21
81.0278
  0
LINE
  8
0
 10
-206.554
 20
81.0278
 11
-206.773
 21
80.9081
  0
LINE
  8
0
 10
-206.773
 20
80.9081
 11
-207.007
 21
80.8209
  0
LINE
  8
0
 10
-207.007
 20
80.8209
 11
-207.251
 21
80.7678
  0
LINE
  8
0
 10
-207.251
 20
80.7678
 11
-207.5
 21
80.75
  0
LINE
  8
0
 10
-207.5
 20
80.75
 11
-207.749
 21
80.7678
  0
LINE
  8
0
 10
-207.749
 20
-4.23218
 11
-207.993
 21
-4.17911
  0
LINE
  8
0
 10
-207.993
 20
-4.17911
 11
-208.227
 21
-4.09184
  0
LINE
  8
0
 10
-208.227
 20
-4.09184
 11
-208.446
 21
-3.97218
  0
LINE
  8
0
 10
-208.446
 20
-3.97218
 11
-208.646
 21
-3.82256
  0
LINE
  8
0
 10
-208.646
 20
-3.82256
 11
-208.823
 21
-3.646
  0
LINE
  8
0
 10
-208.823
 20
-3.646
 11
-208.972
 21
-3.44612
  0
LINE
  8
0
 10
-208.972
 20
-3.44612
 11
-209.092
 21
-3.22697
  0
LINE
  8
0
 10
-209.092
 20
-3.22697
 11
-209.179
 21
-2.99303
  0
LINE
  8
0
 10
-209.179
 20
-2.99303
 11
-209.232
 21
-2.74904
  0
LINE
  8
0
 10
-209.232
 20
-2.74904
 11
-209.25
 21
-2.5
  0
LINE
  8
0
 10
-209.25
 20
-2.5
 11
-209.25
 21
69.1667
  0
LINE
  8
0
 10
-209.25
 20
69.1667
 11
-209.232
 21
69.4157
  0
LINE
  8
0
 10
-209.232
 20
69.4157
 11
-209.179
 21
69.6597
  0
LINE
  8
0
 10
-209.179
 20
69.6597
 11
-209.092
 21
69.8936
  0
LINE
  8
0
 10
-209.092
 20
69.8936
 11
-208.972
 21
70.1128
  0
LINE
  8
0
 10
-208.972
 20
70.1128
 11
-208.823
 21
70.3127
  0
LINE
  8
0
 10
-208.823
 20
70.3127
 11
-208.646
 21
70.4892
  0
LINE
  8
0
 10
-208.646
 20
70.4892
 11
-208.446
 21
70.6389
  0
LINE
  8
0
 10
-208.446
 20
70.6389
 11
-208.227
 21
70.7585
  0
LINE
  8
0
 10
-208.227
 20
70.7585
 11
-207.993
 21
70.8458
  0
LINE
  8
0
 10
-207.993
 20
70.8458
 11
-207.749
 21
70.8988
  0
LINE
  8
0
 10
-207.749
 20
70.8988
 11
-207.5
 21
70.9167
  0
LINE
  8
0
 10
-207.5
 20
70.9167
 11
-207.251
 21
70.8988
  0
LINE
  8
0
 10
-207.251
 20
70.8988
 11
-207.007
 21
70.8458
  0
LINE
  8
0
 10
-207.007
 20
70.8458
 11
-206.773
 21
70.7585
  0
LINE
  8
0
 10
-206.773
 20
70.7585
 11
-206.554
 21
70.6389
  0
LINE
  8
0
 10
-206.554
 20
70.6389
 11
-206.354
 21
70.4892
  0
LINE
  8
0
 10
-206.354
 20
70.4892
 11
-206.177
 21
70.3127
  0
LINE
  8
0
 10
-206.177
 20
70.3127
 11
-206.028
 21
70.1128
  0
LINE
  8
0
 10
-206.028
 20
70.1128
 11
-205.908
 21
69.8936
  0
LINE
  8
0
 10
-205.908
 20
69.8936
 11
-205.821
 21
69.6597
  0
LINE
  8
0
 10
-205.821
 20
69.6597
 11
-205.768
 21
69.4157
  0
LINE
  8
0
 10
-205.768
 20
69.4157
 11
-205.75
 21
69.1667
  0
LINE
  8
0
 10
-205.75
 20
69.1667
 11
-205.75
 21
-2.5
  0
LINE
  8
0
 10
-205.75
 20
-2.5
 11
-205.768
 21
-2.74904
  0
LINE
  8
0
 10
-205.768
 20
-2.74904
 11
-205.821
 21
-2.99303
  0
LINE
  8
0
 10
-205.821
 20
-2.99303
 11
-205.908
 21
-3.22697
  0
LINE
  8
0
 10
-205.908
 20
-3.22697
 11
-206.028
 21
-3.44612
  0
LINE
  8
0
 10
-206.028
 20
-3.44612
 11
-206.177
 21
-3.646
  0
LINE
  8
0
 10
-206.177
 20
-3.646
 11
-206.354
 21
-3.82256
  0
LINE
  8
0
 10
-206.354
 20
-3.82256
 11
-206.554
 21
-3.97218
  0
LINE
  8
0
 10
-206.554
 20
-3.97218
 11
-206.773
 21
-4.09184
  0
LINE
  8
0
 10
-206.773
 20
-4.09184
 11
-207.007
 21
-4.17911
  0
LINE
  8
0
 10
-207.007
 20
-4.17911
 11
-207.251
 21
-4.23218
  0
LINE
  8
0
 10
-207.251
 20
-4.23218
 11
-207.5
 21
-4.25
  0
LINE
  8
0
 10
-207.5
 20
-4.25
 11
-207.749
 21
-4.23218
  0
LINE
  8
0
 10
207.251
 20
-4.23218
 11
207.007
 21
-4.17911
  0
LINE
  8
0
 10
207.007
 20
-4.17911
 11
206.773
 21
-4.09184
  0
LINE
  8
0
 10
206.773
 20
-4.09184
 11
206.554
 21
-3.97218
  0
LINE
  8
0
 10
206.554
 20
-3.97218
 11
206.354
 21
-3.82256
  0
LINE
  8
0
 10
206.354
 20
-3.82256
 11
206.177
 21
-3.646
  0
LINE
  8
0
 10
206.177
 20
-3.646
 11
206.028
 21
-3.44612
  0
LINE
  8
0
 10
206.028
 20
-3.44612
 11
205.908
 21
-3.22697
  0
LINE
  8
0
 10
205.908
 20
-3.22697
 11
205.821
 21
-2.99303
  0
LINE
  8
0
 10
205.821
 20
-2.99303
 11
205.768
 21
-2.74904
  0
LINE
  8
0
 10
205.768
 20
-2.74904
 11
205.75
 21
-2.5
  0
LINE
  8
0
 10
205.75
 20
-2.5
 11
205.75
 21
69.1667
  0
LINE
  8
0
 10
205.75
 20
69.1667
 11
205.768
 21
69.4157
  0
LINE
  8
0
 10
205.768
 20
69.4157
 11
205.821
 21
69.6597
  0
LINE
  8
0
 10
205.821
 20
69.6597
 11
205.908
 21
69.8936
  0
LINE
  8
0
 10
205.908
 20
69.8936
 11
206.028
 21
70.1128
  0
LINE
  8
0
 10
206.028
 20
70.1128
 11
206.177
 21
70.3127
  0
LINE
  8
0
 10
206.177
 20
70.3127
 11
206.354
 21
70.4892
  0
LINE
  8
0
 10
206.354
 20
70.4892
 11
206.554
 21
70.6389
  0
LINE
  8
0
 10
206.554
 20
70.6389
 11
206.773
 21
70.7585
  0
LINE
  8
0
 10
206.773
 20
70.7585
 11
207.007
 21
70.8458
  0
LINE
  8
0
 10
207.007
 20
70.8458
 11
207.251
 21
70.8988
  0
LINE
  8
0
 10
207.251
 20
70.8988
 11
207.5
 21
70.9167
  0
LINE
  8
0
 10
207.5
 20
70.9167
 11
207.749
 21
70.8988
  0
LINE
  8
0
 10
207.749
 20
70.8988
 11
207.993
 21
70.8458
  0
LINE
  8
0
 10
207.993
 20
70.8458
 11
208.227
 21
70.7585
  0
LINE
  8
0
 10
208.227
 20
70.7585
 11
208.446
 21
70.6389
  0
LINE
  8
0
 10
208.446
 20
70.6389
 11
208.646
 21
70.4892
  0
LINE
  8
0
 10
208.646
 20
70.4892
 11
208.823
 21
70.3127
  0
LINE
  8
0
 10
208.823
 20
70.3127
 11
208.972
 21
70.1128
  0
LINE
  8
0
 10
208.972
 20
70.1128
 11
209.092
 21
69.8936
  0
LINE
  8
0
 10
209.092
 20
69.8936
 11
209.179
 21
69.6597
  0
LINE
  8
0
 10
209.179
 20
69.6597
 11
209.232
 21
69.4157
  0
LINE
  8
0
 10
209.232
 20
69.4157
 11
209.25
 21
69.1667
  0
LINE
  8
0
 10
209.25
 20
69.1667
 11
209.25
 21
-2.5
  0
LINE
  8
0
 10
209.25
 20
-2.5
 11
209.232
 21
-2.74904
  0
LINE
  8
0
 10
209.232
 20
-2.74904
 11
209.179
 21
-2.99303
  0
LINE
  8
0
 10
209.179
 20
-2.99303
 11
209.092
 21
-3.22697
  0
LINE
  8
0
 10
209.092
 20
-3.22697
 11
208.972
 21
-3.44612
  0
LINE
  8
0
 10
208.972
 20
-3.44612
 11
208.823
 21
-3.646
  0
LINE
  8
0
 10
208.823
 20
-3.646
 11
208.646
 21
-3.82256
  0
LINE
  8
0
 10
208.646
 20
-3.82256
 11
208.446
 21
-3.97218
  0
LINE
  8
0
 10
208.446
 20
-3.97218
 11
208.227
 21
-4.09184
  0
LINE
  8
0
 10
208.227
 20
-4.09184
 11
207.993
 21
-4.17911
  0
LINE
  8
0
 10
207.993
 20
-4.17911
 11
207.749
 21
-4.23218
  0
LINE
  8
0
 10
207.749
 20
-4.23218
 11
207.5
 21
-4.25
  0
LINE
  8
0
 10
207.5
 20
-4.25
 11
207.251
 21
-4.23218
  0
LINE
  8
0
 10
-267.751
 20
42.6131
 11
-267.999
 21
42.6524
  0
LINE
  8
0
 10
-267.999
 20
42.6524
 11
-268.242
 21
42.7175
  0
LINE
  8
0
 10
-268.242
 20
42.7175
 11
-268.476
 21
42.8075
  0
LINE
  8
0
 10
-268.476
 20
42.8075
 11
-268.7
 21
42.9215
  0
LINE
  8
0
 10
-268.7
 20
42.9215
 11
-268.911
 21
43.0583
  0
LINE
  8
0
 10
-268.911
 20
43.0583
 11
-269.106
 21
43.2164
  0
LINE
  8
0
 10
-269.106
 20
43.2164
 11
-269.284
 21
43.3941
  0
LINE
  8
0
 10
-269.284
 20
43.3941
 11
-269.442
 21
43.5893
  0
LINE
  8
0
 10
-269.442
 20
43.5893
 11
-269.578
 21
43.8
  0
LINE
  8
0
 10
-269.578
 20
43.8
 11
-269.693
 21
44.0238
  0
LINE
  8
0
 10
-269.693
 20
44.0238
 11
-269.783
 21
44.2583
  0
LINE
  8
0
 10
-269.783
 20
44.2583
 11
-269.848
 21
44.501
  0
LINE
  8
0
 10
-269.848
 20
44.501
 11
-269.887
 21
44.7491
  0
LINE
  8
0
 10
-269.887
 20
44.7491
 11
-269.9
 21
45
  0
LINE
  8
0
 10
-269.9
 20
45
 11
-269.887
 21
45.2509
  0
LINE
  8
0
 10
-269.887
 20
45.2509
 11
-269.848
 21
45.499
  0
LINE
  8
0
 10
-269.848
 20
45.499
 11
-269.783
 21
45.7416
  0
LINE
  8
0
 10
-269.783
 20
45.7416
 11
-269.693
 21
45.9762
  0
LINE
  8
0
 10
-269.693
 20
45.9762
 11
-269.578
 21
46.2
  0
LINE
  8
0
 10
-269.578
 20
46.2
 11
-269.442
 21
46.4107
  0
LINE
  8
0
 10
-269.442
 20
46.4107
 11
-269.284
 21
46.6059
  0
LINE
  8
0
 10
-269.284
 20
46.6059
 11
-269.106
 21
46.7835
  0
LINE
  8
0
 10
-269.106
 20
46.7835
 11
-268.911
 21
46.9416
  0
LINE
  8
0
 10
-268.911
 20
46.9416
 11
-268.7
 21
47.0785
  0
LINE
  8
0
 10
-268.7
 20
47.0785
 11
-268.476
 21
47.1925
  0
LINE
  8
0
 10
-268.476
 20
47.1925
 11
-268.242
 21
47.2825
  0
LINE
  8
0
 10
-268.242
 20
47.2825
 11
-267.999
 21
47.3475
  0
LINE
  8
0
 10
-267.999
 20
47.3475
 11
-267.751
 21
47.3868
  0
LINE
  8
0
 10
-267.751
 20
47.3868
 11
-267.5
 21
47.4
  0
LINE
  8
0
 10
-267.5
 20
47.4
 11
-267.249
 21
47.3868
  0
LINE
  8
0
 10
-267.249
 20
47.3868
 11
-267.001
 21
47.3475
  0
LINE
  8
0
 10
-267.001
 20
47.3475
 11
-266.758
 21
47.2825
  0
LINE
  8
0
 10
-266.758
 20
47.2825
 11
-266.524
 21
47.1925
  0
LINE
  8
0
 10
-266.524
 20
47.1925
 11
-266.3
 21
47.0785
  0
LINE
  8
0
 10
-266.3
 20
47.0785
 11
-266.089
 21
46.9416
  0
LINE
  8
0
 10
-266.089
 20
46.9416
 11
-265.894
 21
46.7835
  0
LINE
  8
0
 10
-265.894
 20
46.7835
 11
-265.716
 21
46.6059
  0
LINE
  8
0
 10
-265.716
 20
46.6059
 11
-265.558
 21
46.4107
  0
LINE
  8
0
 10
-265.558
 20
46.4107
 11
-265.422
 21
46.2
  0
LINE
  8
0
 10
-265.422
 20
46.2
 11
-265.307
 21
45.9762
  0
LINE
  8
0
 10
-265.307
 20
45.9762
 11
-265.217
 21
45.7416
  0
LINE
  8
0
 10
-265.217
 20
45.7416
 11
-265.152
 21
45.499
  0
LINE
  8
0
 10
-265.152
 20
45.499
 11
-265.113
 21
45.2509
  0
LINE
  8
0
 10
-265.113
 20
45.2509
 11
-265.1
 21
45
  0
LINE
  8
0
 10
-265.1
 20
45
 11
-265.113
 21
44.7491
  0
LINE
  8
0
 10
-265.113
 20
44.7491
 11
-265.152
 21
44.501
  0
LINE
  8
0
 10
-265.152
 20
44.501
 11
-265.217
 21
44.2583
  0
LINE
  8
0
 10
-265.217
 20
44.2583
 11
-265.307
 21
44.0238
  0
LINE
  8
0
 10
-265.307
 20
44.0238
 11
-265.422
 21
43.8
  0
LINE
  8
0
 10
-265.422
 20
43.8
 11
-265.558
 21
43.5893
  0
LINE
  8
0
 10
-265.558
 20
43.5893
 11
-265.716
 21
43.3941
  0
LINE
  8
0
 10
-265.716
 20
43.3941
 11
-265.894
 21
43.2164
  0
LINE
  8
0
 10
-265.894
 20
43.2164
 11
-266.089
 21
43.0583
  0
LINE
  8
0
 10
-266.089
 20
43.0583
 11
-266.3
 21
42.9215
  0
LINE
  8
0
 10
-266.3
 20
42.9215
 11
-266.524
 21
42.8075
  0
LINE
  8
0
 10
-266.524
 20
42.8075
 11
-266.758
 21
42.7175
  0
LINE
  8
0
 10
-266.758
 20
42.7175
 11
-267.001
 21
42.6524
  0
LINE
  8
0
 10
-267.001
 20
42.6524
 11
-267.249
 21
42.6131
  0
LINE
  8
0
 10
-267.249
 20
42.6131
 11
-267.5
 21
42.6
  0
LINE
  8
0
 10
-267.5
 20
42.6
 11
-267.751
 21
42.6131
  0
LINE
  8
0
 10
-267.751
 20
22.6131
 11
-267.999
 21
22.6524
  0
LINE
  8
0
 10
-267.999
 20
22.6524
 11
-268.242
 21
22.7175
  0
LINE
  8
0
 10
-268.242
 20
22.7175
 11
-268.476
 21
22.8075
  0
LINE
  8
0
 10
-268.476
 20
22.8075
 11
-268.7
 21
22.9215
  0
LINE
  8
0
 10
-268.7
 20
22.9215
 11
-268.911
 21
23.0583
  0
LINE
  8
0
 10
-268.911
 20
23.0583
 11
-269.106
 21
23.2164
  0
LINE
  8
0
 10
-269.106
 20
23.2164
 11
-269.284
 21
23.3941
  0
LINE
  8
0
 10
-269.284
 20
23.3941
 11
-269.442
 21
23.5893
  0
LINE
  8
0
 10
-269.442
 20
23.5893
 11
-269.578
 21
23.8
  0
LINE
  8
0
 10
-269.578
 20
23.8
 11
-269.693
 21
24.0238
  0
LINE
  8
0
 10
-269.693
 20
24.0238
 11
-269.783
 21
24.2583
  0
LINE
  8
0
 10
-269.783
 20
24.2583
 11
-269.848
 21
24.501
  0
LINE
  8
0
 10
-269.848
 20
24.501
 11
-269.887
 21
24.7491
  0
LINE
  8
0
 10
-269.887
 20
24.7491
 11
-269.9
 21
25
  0
LINE
  8
0
 10
-269.9
 20
25
 11
-269.887
 21
25.2509
  0
LINE
  8
0
 10
-269.887
 20
25.2509
 11
-269.848
 21
25.499
  0
LINE
  8
0
 10
-269.848
 20
25.499
 11
-269.783
 21
25.7416
  0
LINE
  8
0
 10
-269.783
 20
25.7416
 11
-269.693
 21
25.9762
  0
LINE
  8
0
 10
-269.693
 20
25.9762
 11
-269.578
 21
26.2
  0
LINE
  8
0
 10
-269.578
 20
26.2
 11
-269.442
 21
26.4107
  0
LINE
  8
0
 10
-269.442
 20
26.4107
 11
-269.284
 21
26.6059
  0
LINE
  8
0
 10
-269.284
 20
26.6059
 11
-269.106
 21
26.7835
  0
LINE
  8
0
 10
-269.106
 20
26.7835
 11
-268.911
 21
26.9416
  0
LINE
  8
0
 10
-268.911
 20
26.9416
 11
-268.7
 21
27.0785
  0
LINE
  8
0
 10
-268.7
 20
27.0785
 11
-268.476
 21
27.1925
  0
LINE
  8
0
 10
-268.476
 20
27.1925
 11
-268.242
 21
27.2825
  0
LINE
  8
0
 10
-268.242
 20
27.2825
 11
-267.999
 21
27.3475
  0
LINE
  8
0
 10
-267.999
 20
27.3475
 11
-267.751
 21
27.3868
  0
LINE
  8
0
 10
-267.751
 20
27.3868
 11
-267.5
 21
27.4
  0
LINE
  8
0
 10
-267.5
 20
27.4
 11
-267.249
 21
27.3868
  0
LINE
  8
0
 10
-267.249
 20
27.3868
 11
-267.001
 21
27.3475
  0
LINE
  8
0
 10
-267.001
 20
27.3475
 11
-266.758
 21
27.2825
  0
LINE
  8
0
 10
-266.758
 20
27.2825
 11
-266.524
 21
27.1925
  0
LINE
  8
0
 10
-266.524
 20
27.1925
 11
-266.3
 21
27.0785
  0
LINE
  8
0
 10
-266.3
 20
27.0785
 11
-266.089
 21
26.9416
  0
LINE
  8
0
 10
-266.089
 20
26.9416
 11
-265.894
 21
26.7835
  0
LINE
  8
0
 10
-265.894
 20
26.7835
 11
-265.716
 21
26.6059
  0
LINE
  8
0
 10
-265.716
 20
26.6059
 11
-265.558
 21
26.4107
  0
LINE
  8
0
 10
-265.558
 20
26.4107
 11
-265.422
 21
26.2
  0
LINE
  8
0
 10
-265.422
 20
26.2
 11
-265.307
 21
25.9762
  0
LINE
  8
0
 10
-265.307
 20
25.9762
 11
-265.217
 21
25.7416
  0
LINE
  8
0
 10
-265.217
 20
25.7416
 11
-265.152
 21
25.499
  0
LINE
  8
0
 10
-265.152
 20
25.499
 11
-265.113
 21
25.2509
  0
LINE
  8
0
 10
-265.113
 20
25.2509
 11
-265.1
 21
25
  0
LINE
  8
0
 10
-265.1
 20
25
 11
-265.113
 21
24.7491
  0
LINE
  8
0
 10
-265.113
 20
24.7491
 11
-265.152
 21
24.501
  0
LINE
  8
0
 10
-265.152
 20
24.501
 11
-265.217
 21
24.2583
  0
LINE
  8
0
 10
-265.217
 20
24.2583
 11
-265.307
 21
24.0238
  0
LINE
  8
0
 10
-265.307
 20
24.0238
 11
-265.422
 21
23.8
  0
LINE
  8
0
 10
-265.422
 20
23.8
 11
-265.558
 21
23.5893
  0
LINE
  8
0
 10
-265.558
 20
23.5893
 11
-265.716
 21
23.3941
  0
LINE
  8
0
 10
-265.716
 20
23.3941
 11
-265.894
 21
23.2164
  0
LINE
  8
0
 10
-265.894
 20
23.2164
 11
-266.089
 21
23.0583
  0
LINE
  8
0
 10
-266.089
 20
23.0583
 11
-266.3
 21
22.9215
  0
LINE
  8
0
 10
-266.3
 20
22.9215
 11
-266.524
 21
22.8075
  0
LINE
  8
0
 10
-266.524
 20
22.8075
 11
-266.758
 21
22.7175
  0
LINE
  8
0
 10
-266.758
 20
22.7175
 11
-267.001
 21
22.6524
  0
LINE
  8
0
 10
-267.001
 20
22.6524
 11
-267.249
 21
22.6131
  0
LINE
  8
0
 10
-267.249
 20
22.6131
 11
-267.5
 21
22.6
  0
LINE
  8
0
 10
-267.5
 20
22.6
 11
-267.751
 21
22.6131
  0
LINE
  8
0
 10
-267.997
 20
10.276
 11
-268.488
 21
10.3538
  0
LINE
  8
0
 10
-268.488
 20
10.3538
 11
-268.968
 21
10.4825
  0
LINE
  8
0
 10
-268.968
 20
10.4825
 11
-269.432
 21
10.6607
  0
LINE
  8
0
 10
-269.432
 20
10.6607
 11
-269.875
 21
10.8864
  0
LINE
  8
0
 10
-269.875
 20
10.8864
 11
-270.292
 21
11.1572
  0
LINE
  8
0
 10
-270.292
 20
11.1572
 11
-270.678
 21
11.4701
  0
LINE
  8
0
 10
-270.678
 20
11.4701
 11
-271.03
 21
11.8216
  0
LINE
  8
0
 10
-271.03
 20
11.8216
 11
-271.343
 21
12.208
  0
LINE
  8
0
 10
-271.343
 20
12.208
 11
-271.614
 21
12.625
  0
LINE
  8
0
 10
-271.614
 20
12.625
 11
-271.839
 21
13.068
  0
LINE
  8
0
 10
-271.839
 20
13.068
 11
-272.018
 21
13.5322
  0
LINE
  8
0
 10
-272.018
 20
13.5322
 11
-272.146
 21
14.0124
  0
LINE
  8
0
 10
-272.146
 20
14.0124
 11
-272.224
 21
14.5035
  0
LINE
  8
0
 10
-272.224
 20
14.5035
 11
-272.25
 21
15
  0
LINE
  8
0
 10
-272.25
 20
15
 11
-272.224
 21
15.4965
  0
LINE
  8
0
 10
-272.224
 20
15.4965
 11
-272.146
 21
15.9876
  0
LINE
  8
0
 10
-272.146
 20
15.9876
 11
-272.018
 21
16.4678
  0
LINE
  8
0
 10
-272.018
 20
16.4678
 11
-271.839
 21
16.932
  0
LINE
  8
0
 10
-271.839
 20
16.932
 11
-271.614
 21
17.375
  0
LINE
  8
0
 10
-271.614
 20
17.375
 11
-271.343
 21
17.792
  0
LINE
  8
0
 10
-271.343
 20
17.792
 11
-271.03
 21
18.1784
  0
LINE
  8
0
 10
-271.03
 20
18.1784
 11
-270.678
 21
18.5299
  0
LINE
  8
0
 10
-270.678
 20
18.5299
 11
-270.292
 21
18.8428
  0
LINE
  8
0
 10
-270.292
 20
18.8428
 11
-269.875
 21
19.1136
  0
LINE
  8
0
 10
-269.875
 20
19.1136
 11
-269.432
 21
19.3393
  0
LINE
  8
0
 10
-269.432
 20
19.3393
 11
-268.968
 21
19.5175
  0
LINE
  8
0
 10
-268.968
 20
19.5175
 11
-268.488
 21
19.6462
  0
LINE
  8
0
 10
-268.488
 20
19.6462
 11
-267.997
 21
19.724
  0
LINE
  8
0
 10
-267.997
 20
19.724
 11
-267.5
 21
19.75
  0
LINE
  8
0
 10
-267.5
 20
19.75
 11
-267.003
 21
19.724
  0
LINE
  8
0
 10
-267.003
 20
19.724
 11
-266.512
 21
19.6462
  0
LINE
  8
0
 10
-266.512
 20
19.6462
 11
-266.032
 21
19.5175
  0
LINE
  8
0
 10
-266.032
 20
19.5175
 11
-265.568
 21
19.3393
  0
LINE
  8
0
 10
-265.568
 20
19.3393
 11
-265.125
 21
19.1136
  0
LINE
  8
0
 10
-265.125
 20
19.1136
 11
-264.708
 21
18.8428
  0
LINE
  8
0
 10
-264.708
 20
18.8428
 11
-264.322
 21
18.5299
  0
LINE
  8
0
 10
-264.322
 20
18.5299
 11
-263.97
 21
18.1784
  0
LINE
  8
0
 10
-263.97
 20
18.1784
 11
-263.657
 21
17.792
  0
LINE
  8
0
 10
-263.657
 20
17.792
 11
-263.386
 21
17.375
  0
LINE
  8
0
 10
-263.386
 20
17.375
 11
-263.161
 21
16.932
  0
LINE
  8
0
 10
-263.161
 20
16.932
 11
-262.982
 21
16.4678
  0
LINE
  8
0
 10
-262.982
 20
16.4678
 11
-262.854
 21
15.9876
  0
LINE
  8
0
 10
-262.854
 20
15.9876
 11
-262.776
 21
15.4965
  0
LINE
  8
0
 10
-262.776
 20
15.4965
 11
-262.75
 21
15
  0
LINE
  8
0
 10
-262.75
 20
15
 11
-262.776
 21
14.5035
  0
LINE
  8
0
 10
-262.776
 20
14.5035
 11
-262.854
 21
14.0124
  0
LINE
  8
0
 10
-262.854
 20
14.0124
 11
-262.982
 21
13.5322
  0
LINE
  8
0
 10
-262.982
 20
13.5322
 11
-263.161
 21
13.068
  0
LINE
  8
0
 10
-263.161
 20
13.068
 11
-263.386
 21
12.625
  0
LINE
  8
0
 10
-263.386
 20
12.625
 11
-263.657
 21
12.208
  0
LINE
  8
0
 10
-263.657
 20
12.208
 11
-263.97
 21
11.8216
  0
LINE
  8
0
 10
-263.97
 20
11.8216
 11
-264.322
 21
11.4701
  0
LINE
  8
0
 10
-264.322
 20
11.4701
 11
-264.708
 21
11.1572
  0
LINE
  8
0
 10
-264.708
 20
11.1572
 11
-265.125
 21
10.8864
  0
LINE
  8
0
 10
-265.125
 20
10.8864
 11
-265.568
 21
10.6607
  0
LINE
  8
0
 10
-265.568
 20
10.6607
 11
-266.032
 21
10.4825
  0
LINE
  8
0
 10
-266.032
 20
10.4825
 11
-266.512
 21
10.3538
  0
LINE
  8
0
 10
-266.512
 20
10.3538
 11
-267.003
 21
10.276
  0
LINE
  8
0
 10
-267.003
 20
10.276
 11
-267.5
 21
10.25
  0
LINE
  8
0
 10
-267.5
 20
10.25
 11
-267.997
 21
10.276
  0
LINE
  8
0
 10
-267.997
 20
0.276016
 11
-268.488
 21
0.35379
  0
LINE
  8
0
 10
-268.488
 20
0.35379
 11
-268.968
 21
0.482468
  0
LINE
  8
0
 10
-268.968
 20
0.482468
 11
-269.432
 21
0.660645
  0
LINE
  8
0
 10
-269.432
 20
0.660645
 11
-269.875
 21
0.886368
  0
LINE
  8
0
 10
-269.875
 20
0.886368
 11
-270.292
 21
1.15717
  0
LINE
  8
0
 10
-270.292
 20
1.15717
 11
-270.678
 21
1.47005
  0
LINE
  8
0
 10
-270.678
 20
1.47005
 11
-271.03
 21
1.82162
  0
LINE
  8
0
 10
-271.03
 20
1.82162
 11
-271.343
 21
2.20801
  0
LINE
  8
0
 10
-271.343
 20
2.20801
 11
-271.614
 21
2.625
  0
LINE
  8
0
 10
-271.614
 20
2.625
 11
-271.839
 21
3.06799
  0
LINE
  8
0
 10
-271.839
 20
3.06799
 11
-272.018
 21
3.53217
  0
LINE
  8
0
 10
-272.018
 20
3.53217
 11
-272.146
 21
4.01241
  0
LINE
  8
0
 10
-272.146
 20
4.01241
 11
-272.224
 21
4.50348
  0
LINE
  8
0
 10
-272.224
 20
4.50348
 11
-272.25
 21
5
  0
LINE
  8
0
 10
-272.25
 20
5
 11
-272.224
 21
5.49651
  0
LINE
  8
0
 10
-272.224
 20
5.49651
 11
-272.146
 21
5.98758
  0
LINE
  8
0
 10
-272.146
 20
5.98758
 11
-272.018
 21
6.46782
  0
LINE
  8
0
 10
-272.018
 20
6.46782
 11
-271.839
 21
6.93199
  0
LINE
  8
0
 10
-271.839
 20
6.93199
 11
-271.614
 21
7.375
  0
LINE
  8
0
 10
-271.614
 20
7.375
 11
-271.343
 21
7.79198
  0
LINE
  8
0
 10
-271.343
 20
7.79198
 11
-271.03
 21
8.17836
  0
LINE
  8
0
 10
-271.03
 20
8.17836
 11
-270.678
 21
8.52994
  0
LINE
  8
0
 10
-270.678
 20
8.52994
 11
-270.292
 21
8.84282
  0
LINE
  8
0
 10
-270.292
 20
8.84282
 11
-269.875
 21
9.11362
  0
LINE
  8
0
 10
-269.875
 20
9.11362
 11
-269.432
 21
9.33934
  0
LINE
  8
0
 10
-269.432
 20
9.33934
 11
-268.968
 21
9.51752
  0
LINE
  8
0
 10
-268.968
 20
9.51752
 11
-268.488
 21
9.64619
  0
LINE
  8
0
 10
-268.488
 20
9.64619
 11
-267.997
 21
9.72397
  0
LINE
  8
0
 10
-267.997
 20
9.72397
 11
-267.5
 21
9.75
  0
LINE
  8
0
 10
-267.5
 20
9.75
 11
-267.003
 21
9.72397
  0
LINE
  8
0
 10
-267.003
 20
9.72397
 11
-266.512
 21
9.64619
  0
LINE
  8
0
 10
-266.512
 20
9.64619
 11
-266.032
 21
9.51752
  0
LINE
  8
0
 10
-266.032
 20
9.51752
 11
-265.568
 21
9.33934
  0
LINE
  8
0
 10
-265.568
 20
9.33934
 11
-265.125
 21
9.11362
  0
LINE
  8
0
 10
-265.125
 20
9.11362
 11
-264.708
 21
8.84282
  0
LINE
  8
0
 10
-264.708
 20
8.84282
 11
-264.322
 21
8.52994
  0
LINE
  8
0
 10
-264.322
 20
8.52994
 11
-263.97
 21
8.17836
  0
LINE
  8
0
 10
-263.97
 20
8.17836
 11
-263.657
 21
7.79198
  0
LINE
  8
0
 10
-263.657
 20
7.79198
 11
-263.386
 21
7.375
  0
LINE
  8
0
 10
-263.386
 20
7.375
 11
-263.161
 21
6.93199
  0
LINE
  8
0
 10
-263.161
 20
6.93199
 11
-262.982
 21
6.46782
  0
LINE
  8
0
 10
-262.982
 20
6.46782
 11
-262.854
 21
5.98758
  0
LINE
  8
0
 10
-262.854
 20
5.98758
 11
-262.776
 21
5.49651
  0
LINE
  8
0
 10
-262.776
 20
5.49651
 11
-262.75
 21
5
  0
LINE
  8
0
 10
-262.75
 20
5
 11
-262.776
 21
4.50348
  0
LINE
  8
0
 10
-262.776
 20
4.50348
 11
-262.854
 21
4.01241
  0
LINE
  8
0
 10
-262.854
 20
4.01241
 11
-262.982
 21
3.53217
  0
LINE
  8
0
 10
-262.982
 20
3.53217
 11
-263.161
 21
3.06799
  0
LINE
  8
0
 10
-263.161
 20
3.06799
 11
-263.386
 21
2.625
  0
LINE
  8
0
 10
-263.386
 20
2.625
 11
-263.657
 21
2.20801
  0
LINE
  8
0
 10
-263.657
 20
2.20801
 11
-263.97
 21
1.82162
  0
LINE
  8
0
 10
-263.97
 20
1.82162
 11
-264.322
 21
1.47005
  0
LINE
  8
0
 10
-264.322
 20
1.47005
 11
-264.708
 21
1.15717
  0
LINE
  8
0
 10
-264.708
 20
1.15717
 11
-265.125
 21
0.886368
  0
LINE
  8
0
 10
-265.125
 20
0.886368
 11
-265.568
 21
0.660645
  0
LINE
  8
0
 10
-265.568
 20
0.660645
 11
-266.032
 21
0.482468
  0
LINE
  8
0
 10
-266.032
 20
0.482468
 11
-266.512
 21
0.35379
  0
LINE
  8
0
 10
-266.512
 20
0.35379
 11
-267.003
 21
0.276016
  0
LINE
  8
0
 10
-267.003
 20
0.276016
 11
-267.5
 21
0.25
  0
LINE
  8
0
 10
-267.5
 20
0.25
 11
-267.997
 21
0.276016
  0
LINE
  8
0
 10
-267.997
 20
-9.72397
 11
-268.488
 21
-9.64619
  0
LINE
  8
0
 10
-268.488
 20
-9.64619
 11
-268.968
 21
-9.51752
  0
LINE
  8
0
 10
-268.968
 20
-9.51752
 11
-269.432
 21
-9.33934
  0
LINE
  8
0
 10
-269.432
 20
-9.33934
 11
-269.875
 21
-9.11362
  0
LINE
  8
0
 10
-269.875
 20
-9.11362
 11
-270.292
 21
-8.84282
  0
LINE
  8
0
 10
-270.292
 20
-8.84282
 11
-270.678
 21
-8.52994
  0
LINE
  8
0
 10
-270.678
 20
-8.52994
 11
-271.03
 21
-8.17836
  0
LINE
  8
0
 10
-271.03
 20
-8.17836
 11
-271.343
 21
-7.79198
  0
LINE
  8
0
 10
-271.343
 20
-7.79198
 11
-271.614
 21
-7.375
  0
LINE
  8
0
 10
-271.614
 20
-7.375
 11
-271.839
 21
-6.93199
  0
LINE
  8
0
 10
-271.839
 20
-6.93199
 11
-272.018
 21
-6.46782
  0
LINE
  8
0
 10
-272.018
 20
-6.46782
 11
-272.146
 21
-5.98758
  0
LINE
  8
0
 10
-272.146
 20
-5.98758
 11
-272.224
 21
-5.49651
  0
LINE
  8
0
 10
-272.224
 20
-5.49651
 11
-272.25
 21
-5
  0
LINE
  8
0
 10
-272.25
 20
-5
 11
-272.224
 21
-4.50348
  0
LINE
  8
0
 10
-272.224
 20
-4.50348
 11
-272.146
 21
-4.01241
  0
LINE
  8
0
 10
-272.146
 20
-4.01241
 11
-272.018
 21
-3.53217
  0
LINE
  8
0
 10
-272.018
 20
-3.53217
 11
-271.839
 21
-3.06799
  0
LINE
  8
0
 10
-271.839
 20
-3.06799
 11
-271.614
 21
-2.625
  0
LINE
  8
0
 10
-271.614
 20
-2.625
 11
-271.343
 21
-2.20801
  0
LINE
  8
0
 10
-271.343
 20
-2.20801
 11
-271.03
 21
-1.82162
  0
LINE
  8
0
 10
-271.03
 20
-1.82162
 11
-270.678
 21
-1.47005
  0
LINE
  8
0
 10
-270.678
 20
-1.47005
 11
-270.292
 21
-1.15717
  0
LINE
  8
0
 10
-270.292
 20
-1.15717
 11
-269.875
 21
-0.886368
  0
LINE
  8
0
 10
-269.875
 20
-0.886368
 11
-269.432
 21
-0.660645
  0
LINE
  8
0
 10
-269.432
 20
-0.660645
 11
-268.968
 21
-0.482468
  0
LINE
  8
0
 10
-268.968
 20
-0.482468
 11
-268.488
 21
-0.35379
  0
LINE
  8
0
 10
-268.488
 20
-0.35379
 11
-267.997
 21
-0.276016
  0
LINE
  8
0
 10
-267.997
 20
-0.276016
 11
-267.5
 21
-0.25
  0
LINE
  8
0
 10
-267.5
 20
-0.25
 11
-267.003
 21
-0.276016
  0
LINE
  8
0
 10
-267.003
 20
-0.276016
 11
-266.512
 21
-0.35379
  0
LINE
  8
0
 10
-266.512
 20
-0.35379
 11
-266.032
 21
-0.482468
  0
LINE
  8
0
 10
-266.032
 20
-0.482468
 11
-265.568
 21
-0.660645
  0
LINE
  8
0
 10
-265.568
 20
-0.660645
 11
-265.125
 21
-0.886368
  0
LINE
  8
0
 10
-265.125
 20
-0.886368
 11
-264.708
 21
-1.15717
  0
LINE
  8
0
 10
-264.708
 20
-1.15717
 11
-264.322
 21
-1.47005
  0
LINE
  8
0
 10
-264.322
 20
-1.47005
 11
-263.97
 21
-1.82162
  0
LINE
  8
0
 10
-263.97
 20
-1.82162
 11
-263.657
 21
-2.20801
  0
LINE
  8
0
 10
-263.657
 20
-2.20801
 11
-263.386
 21
-2.625
  0
LINE
  8
0
 10
-263.386
 20
-2.625
 11
-263.161
 21
-3.06799
  0
LINE
  8
0
 10
-263.161
 20
-3.06799
 11
-262.982
 21
-3.53217
  0
LINE
  8
0
 10
-262.982
 20
-3.53217
 11
-262.854
 21
-4.01241
  0
LINE
  8
0
 10
-262.854
 20
-4.01241
 11
-262.776
 21
-4.50348
  0
LINE
  8
0
 10
-262.776
 20
-4.50348
 11
-262.75
 21
-5
  0
LINE
  8
0
 10
-262.75
 20
-5
 11
-262.776
 21
-5.49651
  0
LINE
  8
0
 10
-262.776
 20
-5.49651
 11
-262.854
 21
-5.98758
  0
LINE
  8
0
 10
-262.854
 20
-5.98758
 11
-262.982
 21
-6.46782
  0
LINE
  8
0
 10
-262.982
 20
-6.46782
 11
-263.161
 21
-6.93199
  0
LINE
  8
0
 10
-263.161
 20
-6.93199
 11
-263.386
 21
-7.375
  0
LINE
  8
0
 10
-263.386
 20
-7.375
 11
-263.657
 21
-7.79198
  0
LINE
  8
0
 10
-263.657
 20
-7.79198
 11
-263.97
 21
-8.17836
  0
LINE
  8
0
 10
-263.97
 20
-8.17836
 11
-264.322
 21
-8.52994
  0
LINE
  8
0
 10
-264.322
 20
-8.52994
 11
-264.708
 21
-8.84282
  0
LINE
  8
0
 10
-264.708
 20
-8.84282
 11
-265.125
 21
-9.11362
  0
LINE
  8
0
 10
-265.125
 20
-9.11362
 11
-265.568
 21
-9.33934
  0
LINE
  8
0
 10
-265.568
 20
-9.33934
 11
-266.032
 21
-9.51752
  0
LINE
  8
0
 10
-266.032
 20
-9.51752
 11
-266.512
 21
-9.64619
  0
LINE
  8
0
 10
-266.512
 20
-9.64619
 11
-267.003
 21
-9.72397
  0
LINE
  8
0
 10
-267.003
 20
-9.72397
 11
-267.5
 21
-9.75
  0
LINE
  8
0
 10
-267.5
 20
-9.75
 11
-267.997
 21
-9.72397
  0
LINE
  8
0
 10
-267.997
 20
-19.724
 11
-268.488
 21
-19.6462
  0
LINE
  8
0
 10
-268.488
 20
-19.6462
 11
-268.968
 21
-19.5175
  0
LINE
  8
0
 10
-268.968
 20
-19.5175
 11
-269.432
 21
-19.3393
  0
LINE
  8
0
 10
-269.432
 20
-19.3393
 11
-269.875
 21
-19.1136
  0
LINE
  8
0
 10
-269.875
 20
-19.1136
 11
-270.292
 21
-18.8428
  0
LINE
  8
0
 10
-270.292
 20
-18.8428
 11
-270.678
 21
-18.5299
  0
LINE
  8
0
 10
-270.678
 20
-18.5299
 11
-271.03
 21
-18.1784
  0
LINE
  8
0
 10
-271.03
 20
-18.1784
 11
-271.343
 21
-17.792
  0
LINE
  8
0
 10
-271.343
 20
-17.792
 11
-271.614
 21
-17.375
  0
LINE
  8
0
 10
-271.614
 20
-17.375
 11
-271.839
 21
-16.932
  0
LINE
  8
0
 10
-271.839
 20
-16.932
 11
-272.018
 21
-16.4678
  0
LINE
  8
0
 10
-272.018
 20
-16.4678
 11
-272.146
 21
-15.9876
  0
LINE
  8
0
 10
-272.146
 20
-15.9876
 11
-272.224
 21
-15.4965
  0
LINE
  8
0
 10
-272.224
 20
-15.4965
 11
-272.25
 21
-15
  0
LINE
  8
0
 10
-272.25
 20
-15
 11
-272.224
 21
-14.5035
  0
LINE
  8
0
 10
-272.224
 20
-14.5035
 11
-272.146
 21
-14.0124
  0
LINE
  8
0
 10
-272.146
 20
-14.0124
 11
-272.018
 21
-13.5322
  0
LINE
  8
0
 10
-272.018
 20
-13.5322
 11
-271.839
 21
-13.068
  0
LINE
  8
0
 10
-271.839
 20
-13.068
 11
-271.614
 21
-12.625
  0
LINE
  8
0
 10
-271.614
 20
-12.625
 11
-271.343
 21
-12.208
  0
LINE
  8
0
 10
-271.343
 20
-12.208
 11
-271.03
 21
-11.8216
  0
LINE
  8
0
 10
-271.03
 20
-11.8216
 11
-270.678
 21
-11.4701
  0
LINE
  8
0
 10
-270.678
 20
-11.4701
 11
-270.292
 21
-11.1572
  0
LINE
  8
0
 10
-270.292
 20
-11.1572
 11
-269.875
 21
-10.8864
  0
LINE
  8
0
 10
-269.875
 20
-10.8864
 11
-269.432
 21
-10.6607
  0
LINE
  8
0
 10
-269.432
 20
-10.6607
 11
-268.968
 21
-10.4825
  0
LINE
  8
0
 10
-268.968
 20
-10.4825
 11
-268.488
 21
-10.3538
  0
LINE
  8
0
 10
-268.488
 20
-10.3538
 11
-267.997
 21
-10.276
  0
LINE
  8
0
 10
-267.997
 20
-10.276
 11
-267.5
 21
-10.25
  0
LINE
  8
0
 10
-267.5
 20
-10.25
 11
-267.003
 21
-10.276
  0
LINE
  8
0
 10
-267.003
 20
-10.276
 11
-266.512
 21
-10.3538
  0
LINE
  8
0
 10
-266.512
 20
-10.3538
 11
-266.032
 21
-10.4825
  0
LINE
  8
0
 10
-266.032
 20
-10.4825
 11
-265.568
 21
-10.6607
  0
LINE
  8
0
 10
-265.568
 20
-10.6607
 11
-265.125
 21
-10.8864
  0
LINE
  8
0
 10
-265.125
 20
-10.8864
 11
-264.708
 21
-11.1572
  0
LINE
  8
0
 10
-264.708
 20
-11.1572
 11
-264.322
 21
-11.4701
  0
LINE
  8
0
 10
-264.322
 20
-11.4701
 11
-263.97
 21
-11.8216
  0
LINE
  8
0
 10
-263.97
 20
-11.8216
 11
-263.657
 21
-12.208
  0
LINE
  8
0
 10
-263.657
 20
-12.208
 11
-263.386
 21
-12.625
  0
LINE
  8
0
 10
-263.386
 20
-12.625
 11
-263.161
 21
-13.068
  0
LINE
  8
0
 10
-263.161
 20
-13.068
 11
-262.982
 21
-13.5322
  0
LINE
  8
0
 10
-262.982
 20
-13.5322
 11
-262.854
 21
-14.0124
  0
LINE
  8
0
 10
-262.854
 20
-14.0124
 11
-262.776
 21
-14.5035
  0
LINE
  8
0
 10
-262.776
 20
-14.5035
 11
-262.75
 21
-15
  0
LINE
  8
0
 10
-262.75
 20
-15
 11
-262.776
 21
-15.4965
  0
LINE
  8
0
 10
-262.776
 20
-15.4965
 11
-262.854
 21
-15.9876
  0
LINE
  8
0
 10
-262.854
 20
-15.9876
 11
-262.982
 21
-16.4678
  0
LINE
  8
0
 10
-262.982
 20
-16.4678
 11
-263.161
 21
-16.932
  0
LINE
  8
0
 10
-263.161
 20
-16.932
 11
-263.386
 21
-17.375
  0
LINE
  8
0
 10
-263.386
 20
-17.375
 11
-263.657
 21
-17.792
  0
LINE
  8
0
 10
-263.657
 20
-17.792
 11
-263.97
 21
-18.1784
  0
LINE
  8
0
 10
-263.97
 20
-18.1784
 11
-264.322
 21
-18.5299
  0
LINE
  8
0
 10
-264.322
 20
-18.5299
 11
-264.708
 21
-18.8428
  0
LINE
  8
0
 10
-264.708
 20
-18.8428
 11
-265.125
 21
-19.1136
  0
LINE
  8
0
 10
-265.125
 20
-19.1136
 11
-265.568
 21
-19.3393
  0
LINE
  8
0
 10
-265.568
 20
-19.3393
 11
-266.032
 21
-19.5175
  0
LINE
  8
0
 10
-266.032
 20
-19.5175
 11
-266.512
 21
-19.6462
  0
LINE
  8
0
 10
-266.512
 20
-19.6462
 11
-267.003
 21
-19.724
  0
LINE
  8
0
 10
-267.003
 20
-19.724
 11
-267.5
 21
-19.75
  0
LINE
  8
0
 10
-267.5
 20
-19.75
 11
-267.997
 21
-19.724
  0
LINE
  8
0
 10
-207.749
 20
-89.2322
 11
-207.993
 21
-89.1791
  0
LINE
  8
0
 10
-207.993
 20
-89.1791
 11
-208.227
 21
-89.0919
  0
LINE
  8
0
 10
-208.227
 20
-89.0919
 11
-208.446
 21
-88.9722
  0
LINE
  8
0
 10
-208.446
 20
-88.9722
 11
-208.646
 21
-88.8226
  0
LINE
  8
0
 10
-208.646
 20
-88.8226
 11
-208.823
 21
-88.646
  0
LINE
  8
0
 10
-208.823
 20
-88.646
 11
-208.972
 21
-88.4461
  0
LINE
  8
0
 10
-208.972
 20
-88.4461
 11
-209.092
 21
-88.227
  0
LINE
  8
0
 10
-209.092
 20
-88.227
 11
-209.179
 21
-87.993
  0
LINE
  8
0
 10
-209.179
 20
-87.993
 11
-209.232
 21
-87.7491
  0
LINE
  8
0
 10
-209.232
 20
-87.7491
 11
-209.25
 21
-87.5
  0
LINE
  8
0
 10
-209.25
 20
-87.5
 11
-209.25
 21
-15.8333
  0
LINE
  8
0
 10
-209.25
 20
-15.8333
 11
-209.232
 21
-15.5843
  0
LINE
  8
0
 10
-209.232
 20
-15.5843
 11
-209.179
 21
-15.3403
  0
LINE
  8
0
 10
-209.179
 20
-15.3403
 11
-209.092
 21
-15.1064
  0
LINE
  8
0
 10
-209.092
 20
-15.1064
 11
-208.972
 21
-14.8872
  0
LINE
  8
0
 10
-208.972
 20
-14.8872
 11
-208.823
 21
-14.6873
  0
LINE
  8
0
 10
-208.823
 20
-14.6873
 11
-208.646
 21
-14.5108
  0
LINE
  8
0
 10
-208.646
 20
-14.5108
 11
-208.446
 21
-14.3611
  0
LINE
  8
0
 10
-208.446
 20
-14.3611
 11
-208.227
 21
-14.2415
  0
LINE
  8
0
 10
-208.227
 20
-14.2415
 11
-207.993
 21
-14.1542
  0
LINE
  8
0
 10
-207.993
 20
-14.1542
 11
-207.749
 21
-14.1011
  0
LINE
  8
0
 10
-207.749
 20
-14.1011
 11
-207.5
 21
-14.0833
  0
LINE
  8
0
 10
-207.5
 20
-14.0833
 11
-207.251
 21
-14.1011
  0
LINE
  8
0
 10
-207.251
 20
-14.1011
 11
-207.007
 21
-14.1542
  0
LINE
  8
0
 10
-207.007
 20
-14.1542
 11
-206.773
 21
-14.2415
  0
LINE
  8
0
 10
-206.773
 20
-14.2415
 11
-206.554
 21
-14.3611
  0
LINE
  8
0
 10
-206.554
 20
-14.3611
 11
-206.354
 21
-14.5108
  0
LINE
  8
0
 10
-206.354
 20
-14.5108
 11
-206.177
 21
-14.6873
  0
LINE
  8
0
 10
-206.177
 20
-14.6873
 11
-206.028
 21
-14.8872
  0
LINE
  8
0
 10
-206.028
 20
-14.8872
 11
-205.908
 21
-15.1064
  0
LINE
  8
0
 10
-205.908
 20
-15.1064
 11
-205.821
 21
-15.3403
  0
LINE
  8
0
 10
-205.821
 20
-15.3403
 11
-205.768
 21
-15.5843
  0
LINE
  8
0
 10
-205.768
 20
-15.5843
 11
-205.75
 21
-15.8333
  0
LINE
  8
0
 10
-205.75
 20
-15.8333
 11
-205.75
 21
-87.5
  0
LINE
  8
0
 10
-205.75
 20
-87.5
 11
-205.768
 21
-87.7491
  0
LINE
  8
0
 10
-205.768
 20
-87.7491
 11
-205.821
 21
-87.993
  0
LINE
  8
0
 10
-205.821
 20
-87.993
 11
-205.908
 21
-88.227
  0
LINE
  8
0
 10
-205.908
 20
-88.227
 11
-206.028
 21
-88.4461
  0
LINE
  8
0
 10
-206.028
 20
-88.4461
 11
-206.177
 21
-88.646
  0
LINE
  8
0
 10
-206.177
 20
-88.646
 11
-206.354
 21
-88.8226
  0
LINE
  8
0
 10
-206.354
 20
-88.8226
 11
-206.554
 21
-88.9722
  0
LINE
  8
0
 10
-206.554
 20
-88.9722
 11
-206.773
 21
-89.0919
  0
LINE
  8
0
 10
-206.773
 20
-89.0919
 11
-207.007
 21
-89.1791
  0
LINE
  8
0
 10
-207.007
 20
-89.1791
 11
-207.251
 21
-89.2322
  0
LINE
  8
0
 10
-207.251
 20
-89.2322
 11
-207.5
 21
-89.25
  0
LINE
  8
0
 10
-207.5
 20
-89.25
 11
-207.749
 21
-89.2322
  0
LINE
  8
0
 10
207.251
 20
-89.2322
 11
207.007
 21
-89.1791
  0
LINE
  8
0
 10
207.007
 20
-89.1791
 11
206.773
 21
-89.0919
  0
LINE
  8
0
 10
206.773
 20
-89.0919
 11
206.554
 21
-88.9722
  0
LINE
  8
0
 10
206.554
 20
-88.9722
 11
206.354
 21
-88.8226
  0
LINE
  8
0
 10
206.354
 20
-88.8226
 11
206.177
 21
-88.646
  0
LINE
  8
0
 10
206.177
 20
-88.646
 11
206.028
 21
-88.4461
  0
LINE
  8
0
 10
206.028
 20
-88.4461
 11
205.908
 21
-88.227
  0
LINE
  8
0
 10
205.908
 20
-88.227
 11
205.821
 21
-87.993
  0
LINE
  8
0
 10
205.821
 20
-87.993
 11
205.768
 21
-87.7491
  0
LINE
  8
0
 10
205.768
 20
-87.7491
 11
205.75
 21
-87.5
  0
LINE
  8
0
 10
205.75
 20
-87.5
 11
205.75
 21
-15.8333
  0
LINE
  8
0
 10
205.75
 20
-15.8333
 11
205.768
 21
-15.5843
  0
LINE
  8
0
 10
205.768
 20
-15.5843
 11
205.821
 21
-15.3403
  0
LINE
  8
0
 10
205.821
 20
-15.3403
 11
205.908
 21
-15.1064
  0
LINE
  8
0
 10
205.908
 20
-15.1064
 11
206.028
 21
-14.8872
  0
LINE
  8
0
 10
206.028
 20
-14.8872
 11
206.177
 21
-14.6873
  0
LINE
  8
0
 10
206.177
 20
-14.6873
 11
206.354
 21
-14.5108
  0
LINE
  8
0
 10
206.354
 20
-14.5108
 11
206.554
 21
-14.3611
  0
LINE
  8
0
 10
206.554
 20
-14.3611
 11
206.773
 21
-14.2415
  0
LINE
  8
0
 10
206.773
 20
-14.2415
 11
207.007
 21
-14.1542
  0
LINE
  8
0
 10
207.007
 20
-14.1542
 11
207.251
 21
-14.1011
  0
LINE
  8
0
 10
207.251
 20
-14.1011
 11
207.5
 21
-14.0833
  0
LINE
  8
0
 10
207.5
 20
-14.0833
 11
207.749
 21
-14.1011
  0
LINE
  8
0
 10
207.749
 20
-14.1011
 11
207.993
 21
-14.1542
  0
LINE
  8
0
 10
207.993
 20
-14.1542
 11
208.227
 21
-14.2415
  0
LINE
  8
0
 10
208.227
 20
-14.2415
 11
208.446
 21
-14.3611
  0
LINE
  8
0
 10
208.446
 20
-14.3611
 11
208.646
 21
-14.5108
  0
LINE
  8
0
 10
208.646
 20
-14.5108
 11
208.823
 21
-14.6873
  0
LINE
  8
0
 10
208.823
 20
-14.6873
 11
208.972
 21
-14.8872
  0
LINE
  8
0
 10
208.972
 20
-14.8872
 11
209.092
 21
-15.1064
  0
LINE
  8
0
 10
209.092
 20
-15.1064
 11
209.179
 21
-15.3403
  0
LINE
  8
0
 10
209.179
 20
-15.3403
 11
209.232
 21
-15.5843
  0
LINE
  8
0
 10
209.232
 20
-15.5843
 11
209.25
 21
-15.8333
  0
LINE
  8
0
 10
209.25
 20
-15.8333
 11
209.25
 21
-87.5
  0
LINE
  8
0
 10
209.25
 20
-87.5
 11
209.232
 21
-87.7491
  0
LINE
  8
0
 10
209.232
 20
-87.7491
 11
209.179
 21
-87.993
  0
LINE
  8
0
 10
209.179
 20
-87.993
 11
209.092
 21
-88.227
  0
LINE
  8
0
 10
209.092
 20
-88.227
 11
208.972
 21
-88.4461
  0
LINE
  8
0
 10
208.972
 20
-88.4461
 11
208.823
 21
-88.646
  0
LINE
  8
0
 10
208.823
 20
-88.646
 11
208.646
 21
-88.8226
  0
LINE
  8
0
 10
208.646
 20
-88.8226
 11
208.446
 21
-88.9722
  0
LINE
  8
0
 10
208.446
 20
-88.9722
 11
208.227
 21
-89.0919
  0
LINE
  8
0
 10
208.227
 20
-89.0919
 11
207.993
 21
-89.1791
  0
LINE
  8
0
 10
207.993
 20
-89.1791
 11
207.749
 21
-89.2322
  0
LINE
  8
0
 10
207.749
 20
-89.2322
 11
207.5
 21
-89.25
  0
LINE
  8
0
 10
207.5
 20
-89.25
 11
207.251
 21
-89.2322
  0
LINE
  8
0
 10
-267.751
 20
-27.3868
 11
-267.999
 21
-27.3475
  0
LINE
  8
0
 10
-267.999
 20
-27.3475
 11
-268.242
 21
-27.2825
  0
LINE
  8
0
 10
-268.242
 20
-27.2825
 11
-268.476
 21
-27.1925
  0
LINE
  8
0
 10
-268.476
 20
-27.1925
 11
-268.7
 21
-27.0785
  0
LINE
  8
0
 10
-268.7
 20
-27.0785
 11
-268.911
 21
-26.9416
  0
LINE
  8
0
 10
-268.911
 20
-26.9416
 11
-269.106
 21
-26.7835
  0
LINE
  8
0
 10
-269.106
 20
-26.7835
 11
-269.284
 21
-26.6059
  0
LINE
  8
0
 10
-269.284
 20
-26.6059
 11
-269.442
 21
-26.4107
  0
LINE
  8
0
 10
-269.442
 20
-26.4107
 11
-269.578
 21
-26.2
  0
LINE
  8
0
 10
-269.578
 20
-26.2
 11
-269.693
 21
-25.9762
  0
LINE
  8
0
 10
-269.693
 20
-25.9762
 11
-269.783
 21
-25.7416
  0
LINE
  8
0
 10
-269.783
 20
-25.7416
 11
-269.848
 21
-25.499
  0
LINE
  8
0
 10
-269.848
 20
-25.499
 11
-269.887
 21
-25.2509
  0
LINE
  8
0
 10
-269.887
 20
-25.2509
 11
-269.9
 21
-25
  0
LINE
  8
0
 10
-269.9
 20
-25
 11
-269.887
 21
-24.7491
  0
LINE
  8
0
 10
-269.887
 20
-24.7491
 11
-269.848
 21
-24.501
  0
LINE
  8
0
 10
-269.848
 20
-24.501
 11
-269.783
 21
-24.2583
  0
LINE
  8
0
 10
-269.783
 20
-24.2583
 11
-269.693
 21
-24.0238
  0
LINE
  8
0
 10
-269.693
 20
-24.0238
 11
-269.578
 21
-23.8
  0
LINE
  8
0
 10
-269.578
 20
-23.8
 11
-269.442
 21
-23.5893
  0
LINE
  8
0
 10
-269.442
 20
-23.5893
 11
-269.284
 21
-23.3941
  0
LINE
  8
0
 10
-269.284
 20
-23.3941
 11
-269.106
 21
-23.2164
  0
LINE
  8
0
 10
-269.106
 20
-23.2164
 11
-268.911
 21
-23.0583
  0
LINE
  8
0
 10
-268.911
 20
-23.0583
 11
-268.7
 21
-22.9215
  0
LINE
  8
0
 10
-268.7
 20
-22.9215
 11
-268.476
 21
-22.8075
  0
LINE
  8
0
 10
-268.476
 20
-22.8075
 11
-268.242
 21
-22.7175
  0
LINE
  8
0
 10
-268.242
 20
-22.7175
 11
-267.999
 21
-22.6524
  0
LINE
  8
0
 10
-267.999
 20
-22.6524
 11
-267.751
 21
-22.6131
  0
LINE
  8
0
 10
-267.751
 20
-22.6131
 11
-267.5
 21
-22.6
  0
LINE
  8
0
 10
-267.5
 20
-22.6
 11
-267.249
 21
-22.6131
  0
LINE
  8
0
 10
-267.249
 20
-22.6131
 11
-267.001
 21
-22.6524
  0
LINE
  8
0
 10
-267.001
 20
-22.6524
 11
-266.758
 21
-22.7175
  0
LINE
  8
0
 10
-266.758
 20
-22.7175
 11
-266.524
 21
-22.8075
  0
LINE
  8
0
 10
-266.524
 20
-22.8075
 11
-266.3
 21
-22.9215
  0
LINE
  8
0
 10
-266.3
 20
-22.9215
 11
-266.089
 21
-23.0583
  0
LINE
  8
0
 10
-266.089
 20
-23.0583
 11
-265.894
 21
-23.2164
  0
LINE
  8
0
 10
-265.894
 20
-23.2164
 11
-265.716
 21
-23.3941
  0
LINE
  8
0
 10
-265.716
 20
-23.3941
 11
-265.558
 21
-23.5893
  0
LINE
  8
0
 10
-265.558
 20
-23.5893
 11
-265.422
 21
-23.8
  0
LINE
  8
0
 10
-265.422
 20
-23.8
 11
-265.307
 21
-24.0238
  0
LINE
  8
0
 10
-265.307
 20
-24.0238
 11
-265.217
 21
-24.2583
  0
LINE
  8
0
 10
-265.217
 20
-24.2583
 11
-265.152
 21
-24.501
  0
LINE
  8
0
 10
-265.152
 20
-24.501
 11
-265.113
 21
-24.7491
  0
LINE
  8
0
 10
-265.113
 20
-24.7491
 11
-265.1
 21
-25
  0
LINE
  8
0
 10
-265.1
 20
-25
 11
-265.113
 21
-25.2509
  0
LINE
  8
0
 10
-265.113
 20
-25.2509
 11
-265.152
 21
-25.499
  0
LINE
  8
0
 10
-265.152
 20
-25.499
 11
-265.217
 21
-25.7416
  0
LINE
  8
0
 10
-265.217
 20
-25.7416
 11
-265.307
 21
-25.9762
  0
LINE
  8
0
 10
-265.307
 20
-25.9762
 11
-265.422
 21
-26.2
  0
LINE
  8
0
 10
-265.422
 20
-26.2
 11
-265.558
 21
-26.4107
  0
LINE
  8
0
 10
-265.558
 20
-26.4107
 11
-265.716
 21
-26.6059
  0
LINE
  8
0
 10
-265.716
 20
-26.6059
 11
-265.894
 21
-26.7835
  0
LINE
  8
0
 10
-265.894
 20
-26.7835
 11
-266.089
 21
-26.9416
  0
LINE
  8
0
 10
-266.089
 20
-26.9416
 11
-266.3
 21
-27.0785
  0
LINE
  8
0
 10
-266.3
 20
-27.0785
 11
-266.524
 21
-27.1925
  0
LINE
  8
0
 10
-266.524
 20
-27.1925
 11
-266.758
 21
-27.2825
  0
LINE
  8
0
 10
-266.758
 20
-27.2825
 11
-267.001
 21
-27.3475
  0
LINE
  8
0
 10
-267.001
 20
-27.3475
 11
-267.249
 21
-27.3868
  0
LINE
  8
0
 10
-267.249
 20
-27.3868
 11
-267.5
 21
-27.4
  0
LINE
  8
0
 10
-267.5
 20
-27.4
 11
-267.751
 21
-27.3868
  0
LINE
  8
0
 10
-267.751
 20
-47.3868
 11
-267.999
 21
-47.3475
  0
LINE
  8
0
 10
-267.999
 20
-47.3475
 11
-268.242
 21
-47.2825
  0
LINE
  8
0
 10
-268.242
 20
-47.2825
 11
-268.476
 21
-47.1925
  0
LINE
  8
0
 10
-268.476
 20
-47.1925
 11
-268.7
 21
-47.0785
  0
LINE
  8
0
 10
-268.7
 20
-47.0785
 11
-268.911
 21
-46.9416
  0
LINE
  8
0
 10
-268.911
 20
-46.9416
 11
-269.106
 21
-46.7835
  0
LINE
  8
0
 10
-269.106
 20
-46.7835
 11
-269.284
 21
-46.6059
  0
LINE
  8
0
 10
-269.284
 20
-46.6059
 11
-269.442
 21
-46.4107
  0
LINE
  8
0
 10
-269.442
 20
-46.4107
 11
-269.578
 21
-46.2
  0
LINE
  8
0
 10
-269.578
 20
-46.2
 11
-269.693
 21
-45.9762
  0
LINE
  8
0
 10
-269.693
 20
-45.9762
 11
-269.783
 21
-45.7416
  0
LINE
  8
0
 10
-269.783
 20
-45.7416
 11
-269.848
 21
-45.499
  0
LINE
  8
0
 10
-269.848
 20
-45.499
 11
-269.887
 21
-45.2509
  0
LINE
  8
0
 10
-269.887
 20
-45.2509
 11
-269.9
 21
-45
  0
LINE
  8
0
 10
-269.9
 20
-45
 11
-269.887
 21
-44.7491
  0
LINE
  8
0
 10
-269.887
 20
-44.7491
 11
-269.848
 21
-44.501
  0
LINE
  8
0
 10
-269.848
 20
-44.501
 11
-269.783
 21
-44.2583
  0
LINE
  8
0
 10
-269.783
 20
-44.2583
 11
-269.693
 21
-44.0238
  0
LINE
  8
0
 10
-269.693
 20
-44.0238
 11
-269.578
 21
-43.8
  0
LINE
  8
0
 10
-269.578
 20
-43.8
 11
-269.442
 21
-43.5893
  0
LINE
  8
0
 10
-269.442
 20
-43.5893
 11
-269.284
 21
-43.3941
  0
LINE
  8
0
 10
-269.284
 20
-43.3941
 11
-269.106
 21
-43.2164
  0
LINE
  8
0
 10
-269.106
 20
-43.2164
 11
-268.911
 21
-43.0583
  0
LINE
  8
0
 10
-268.911
 20
-43.0583
 11
-268.7
 21
-42.9215
  0
LINE
  8
0
 10
-268.7
 20
-42.9215
 11
-268.476
 21
-42.8075
  0
LINE
  8
0
 10
-268.476
 20
-42.8075
 11
-268.242
 21
-42.7175
  0
LINE
  8
0
 10
-268.242
 20
-42.7175
 11
-267.999
 21
-42.6524
  0
LINE
  8
0
 10
-267.999
 20
-42.6524
 11
-267.751
 21
-42.6131
  0
LINE
  8
0
 10
-267.751
 20
-42.6131
 11
-267.5
 21
-42.6
  0
LINE
  8
0
 10
-267.5
 20
-42.6
 11
-267.249
 21
-42.6131
  0
LINE
  8
0
 10
-267.249
 20
-42.6131
 11
-267.001
 21
-42.6524
  0
LINE
  8
0
 10
-267.001
 20
-42.6524
 11
-266.758
 21
-42.7175
  0
LINE
  8
0
 10
-266.758
 20
-42.7175
 11
-266.524
 21
-42.8075
  0
LINE
  8
0
 10
-266.524
 20
-42.8075
 11
-266.3
 21
-42.9215
  0
LINE
  8
0
 10
-266.3
 20
-42.9215
 11
-266.089
 21
-43.0583
  0
LINE
  8
0
 10
-266.089
 20
-43.0583
 11
-265.894
 21
-43.2164
  0
LINE
  8
0
 10
-265.894
 20
-43.2164
 11
-265.716
 21
-43.3941
  0
LINE
  8
0
 10
-265.716
 20
-43.3941
 11
-265.558
 21
-43.5893
  0
LINE
  8
0
 10
-265.558
 20
-43.5893
 11
-265.422
 21
-43.8
  0
LINE
  8
0
 10
-265.422
 20
-43.8
 11
-265.307
 21
-44.0238
  0
LINE
  8
0
 10
-265.307
 20
-44.0238
 11
-265.217
 21
-44.2583
  0
LINE
  8
0
 10
-265.217
 20
-44.2583
 11
-265.152
 21
-44.501
  0
LINE
  8
0
 10
-265.152
 20
-44.501
 11
-265.113
 21
-44.7491
  0
LINE
  8
0
 10
-265.113
 20
-44.7491
 11
-265.1
 21
-45
  0
LINE
  8
0
 10
-265.1
 20
-45
 11
-265.113
 21
-45.2509
  0
LINE
  8
0
 10
-265.113
 20
-45.2509
 11
-265.152
 21
-45.499
  0
LINE
  8
0
 10
-265.152
 20
-45.499
 11
-265.217
 21
-45.7416
  0
LINE
  8
0
 10
-265.217
 20
-45.7416
 11
-265.307
 21
-45.9762
  0
LINE
  8
0
 10
-265.307
 20
-45.9762
 11
-265.422
 21
-46.2
  0
LINE
  8
0
 10
-265.422
 20
-46.2
 11
-265.558
 21
-46.4107
  0
LINE
  8
0
 10
-265.558
 20
-46.4107
 11
-265.716
 21
-46.6059
  0
LINE
  8
0
 10
-265.716
 20
-46.6059
 11
-265.894
 21
-46.7835
  0
LINE
  8
0
 10
-265.894
 20
-46.7835
 11
-266.089
 21
-46.9416
  0
LINE
  8
0
 10
-266.089
 20
-46.9416
 11
-266.3
 21
-47.0785
  0
LINE
  8
0
 10
-266.3
 20
-47.0785
 11
-266.524
 21
-47.1925
  0
LINE
  8
0
 10
-266.524
 20
-47.1925
 11
-266.758
 21
-47.2825
  0
LINE
  8
0
 10
-266.758
 20
-47.2825
 11
-267.001
 21
-47.3475
  0
LINE
  8
0
 10
-267.001
 20
-47.3475
 11
-267.249
 21
-47.3868
  0
LINE
  8
0
 10
-267.249
 20
-47.3868
 11
-267.5
 21
-47.4
  0
LINE
  8
0
 10
-267.5
 20
-47.4
 11
-267.751
 21
-47.3868
  0
LINE
  8
0
 10
-207.749
 20
-174.232
 11
-207.993
 21
-174.179
  0
LINE
  8
0
 10
-207.993
 20
-174.179
 11
-208.227
 21
-174.092
  0
LINE
  8
0
 10
-208.227
 20
-174.092
 11
-208.446
 21
-173.972
  0
LINE
  8
0
 10
-208.446
 20
-173.972
 11
-208.646
 21
-173.823
  0
LINE
  8
0
 10
-208.646
 20
-173.823
 11
-208.823
 21
-173.646
  0
LINE
  8
0
 10
-208.823
 20
-173.646
 11
-208.972
 21
-173.446
  0
LINE
  8
0
 10
-208.972
 20
-173.446
 11
-209.092
 21
-173.227
  0
LINE
  8
0
 10
-209.092
 20
-173.227
 11
-209.179
 21
-172.993
  0
LINE
  8
0
 10
-209.179
 20
-172.993
 11
-209.232
 21
-172.749
  0
LINE
  8
0
 10
-209.232
 20
-172.749
 11
-209.25
 21
-172.5
  0
LINE
  8
0
 10
-209.25
 20
-172.5
 11
-209.25
 21
-100.833
  0
LINE
  8
0
 10
-209.25
 20
-100.833
 11
-209.232
 21
-100.584
  0
LINE
  8
0
 10
-209.232
 20
-100.584
 11
-209.179
 21
-100.34
  0
LINE
  8
0
 10
-209.179
 20
-100.34
 11
-209.092
 21
-100.106
  0
LINE
  8
0
 10
-209.092
 20
-100.106
 11
-208.972
 21
-99.8872
  0
LINE
  8
0
 10
-208.972
 20
-99.8872
 11
-208.823
 21
-99.6873
  0
LINE
  8
0
 10
-208.823
 20
-99.6873
 11
-208.646
 21
-99.5108
  0
LINE
  8
0
 10
-208.646
 20
-99.5108
 11
-208.446
 21
-99.3611
  0
LINE
  8
0
 10
-208.446
 20
-99.3611
 11
-208.227
 21
-99.2415
  0
LINE
  8
0
 10
-208.227
 20
-99.2415
 11
-207.993
 21
-99.1542
  0
LINE
  8
0
 10
-207.993
 20
-99.1542
 11
-207.749
 21
-99.1011
  0
LINE
  8
0
 10
-207.749
 20
-99.1011
 11
-207.5
 21
-99.0833
  0
LINE
  8
0
 10
-207.5
 20
-99.0833
 11
-207.251
 21
-99.1011
  0
LINE
  8
0
 10
-207.251
 20
-99.1011
 11
-207.007
 21
-99.1542
  0
LINE
  8
0
 10
-207.007
 20
-99.1542
 11
-206.773
 21
-99.2415
  0
LINE
  8
0
 10
-206.773
 20
-99.2415
 11
-206.554
 21
-99.3611
  0
LINE
  8
0
 10
-206.554
 20
-99.3611
 11
-206.354
 21
-99.5108
  0
LINE
  8
0
 10
-206.354
 20
-99.5108
 11
-206.177
 21
-99.6873
  0
LINE
  8
0
 10
-206.177
 20
-99.6873
 11
-206.028
 21
-99.8872
  0
LINE
  8
0
 10
-206.028
 20
-99.8872
 11
-205.908
 21
-100.106
  0
LINE
  8
0
 10
-205.908
 20
-100.106
 11
-205.821
 21
-100.34
  0
LINE
  8
0
 10
-205.821
 20
-100.34
 11
-205.768
 21
-100.584
  0
LINE
  8
0
 10
-205.768
 20
-100.584
 11
-205.75
 21
-100.833
  0
LINE
  8
0
 10
-205.75
 20
-100.833
 11
-205.75
 21
-172.5
  0
LINE
  8
0
 10
-205.75
 20
-172.5
 11
-205.768
 21
-172.749
  0
LINE
  8
0
 10
-205.768
 20
-172.749
 11
-205.821
 21
-172.993
  0
LINE
  8
0
 10
-205.821
 20
-172.993
 11
-205.908
 21
-173.227
  0
LINE
  8
0
 10
-205.908
 20
-173.227
 11
-206.028
 21
-173.446
  0
LINE
  8
0
 10
-206.028
 20
-173.446
 11
-206.177
 21
-173.646
  0
LINE
  8
0
 10
-206.177
 20
-173.646
 11
-206.354
 21
-173.823
  0
LINE
  8
0
 10
-206.354
 20
-173.823
 11
-206.554
 21
-173.972
  0
LINE
  8
0
 10
-206.554
 20
-173.972
 11
-206.773
 21
-174.092
  0
LINE
  8
0
 10
-206.773
 20
-174.092
 11
-207.007
 21
-174.179
  0
LINE
  8
0
 10
-207.007
 20
-174.179
 11
-207.251
 21
-174.232
  0
LINE
  8
0
 10
-207.251
 20
-174.232
 11
-207.5
 21
-174.25
  0
LINE
  8
0
 10
-207.5
 20
-174.25
 11
-207.749
 21
-174.232
  0
LINE
  8
0
 10
207.251
 20
-174.232
 11
207.007
 21
-174.179
  0
LINE
  8
0
 10
207.007
 20
-174.179
 11
206.773
 21
-174.092
  0
LINE
  8
0
 10
206.773
 20
-174.092
 11
206.554
 21
-173.972
  0
LINE
  8
0
 10
206.554
 20
-173.972
 11
206.354
 21
-173.823
  0
LINE
  8
0
 10
206.354
 20
-173.823
 11
206.177
 21
-173.646
  0
LINE
  8
0
 10
206.177
 20
-173.646
 11
206.028
 21
-173.446
  0
LINE
  8
0
 10
206.028
 20
-173.446
 11
205.908
 21
-173.227
  0
LINE
  8
0
 10
205.908
 20
-173.227
 11
205.821
 21
-172.993
  0
LINE
  8
0
 10
205.821
 20
-172.993
 11
205.768
 21
-172.749
  0
LINE
  8
0
 10
205.768
 20
-172.749
 11
205.75
 21
-172.5
  0
LINE
  8
0
 10
205.75
 20
-172.5
 11
205.75
 21
-100.833
  0
LINE
  8
0
 10
205.75
 20
-100.833
 11
205.768
 21
-100.584
  0
LINE
  8
0
 10
205.768
 20
-100.584
 11
205.821
 21
-100.34
  0
LINE
  8
0
 10
205.821
 20
-100.34
 11
205.908
 21
-100.106
  0
LINE
  8
0
 10
205.908
 20
-100.106
 11
206.028
 21
-99.8872
  0
LINE
  8
0
 10
206.028
 20
-99.8872
 11
206.177
 21
-99.6873
  0
LINE
  8
0
 10
206.177
 20
-99.6873
 11
206.354
 21
-99.5108
  0
LINE
  8
0
 10
206.354
 20
-99.5108
 11
206.554
 21
-99.3611
  0
LINE
  8
0
 10
206.554
 20
-99.3611
 11
206.773
 21
-99.2415
  0
LINE
  8
0
 10
206.773
 20
-99.2415
 11
207.007
 21
-99.1542
  0
LINE
  8
0
 10
207.007
 20
-99.1542
 11
207.251
 21
-99.1011
  0
LINE
  8
0
 10
207.251
 20
-99.1011
 11
207.5
 21
-99.0833
  0
LINE
  8
0
 10
207.5
 20
-99.0833
 11
207.749
 21
-99.1011
  0
LINE
  8
0
 10
207.749
 20
-99.1011
 11
207.993
 21
-99.1542
  0
LINE
  8
0
 10
207.993
 20
-99.1542
 11
208.227
 21
-99.2415
  0
LINE
  8
0
 10
208.227
 20
-99.2415
 11
208.446
 21
-99.3611
  0
LINE
  8
0
 10
208.446
 20
-99.3611
 11
208.646
 21
-99.5108
  0
LINE
  8
0
 10
208.646
 20
-99.5108
 11
208.823
 21
-99.6873
  0
LINE
  8
0
 10
208.823
 20
-99.6873
 11
208.972
 21
-99.8872
  0
LINE
  8
0
 10
208.972
 20
-99.8872
 11
209.092
 21
-100.106
  0
LINE
  8
0
 10
209.092
 20
-100.106
 11
209.179
 21
-100.34
  0
LINE
  8
0
 10
209.179
 20
-100.34
 11
209.232
 21
-100.584
  0
LINE
  8
0
 10
209.232
 20
-100.584
 11
209.25
 21
-100.833
  0
LINE
  8
0
 10
209.25
 20
-100.833
 11
209.25
 21
-172.5
  0
LINE
  8
0
 10
209.25
 20
-172.5
 11
209.232
 21
-172.749
  0
LINE
  8
0
 10
209.232
 20
-172.749
 11
209.179
 21
-172.993
  0
LINE
  8
0
 10
209.179
 20
-172.993
 11
209.092
 21
-173.227
  0
LINE
  8
0
 10
209.092
 20
-173.227
 11
208.972
 21
-173.446
  0
LINE
  8
0
 10
208.972
 20
-173.446
 11
208.823
 21
-173.646
  0
LINE
  8
0
 10
208.823
 20
-173.646
 11
208.646
 21
-173.823
  0
LINE
  8
0
 10
208.646
 20
-173.823
 11
208.446
 21
-173.972
  0
LINE
  8
0
 10
208.446
 20
-173.972
 11
208.227
 21
-174.092
  0
LINE
  8
0
 10
208.227
 20
-174.092
 11
207.993
 21
-174.179
  0
LINE
  8
0
 10
207.993
 20
-174.179
 11
207.749
 21
-174.232
  0
LINE
  8
0
 10
207.749
 20
-174.232
 11
207.5
 21
-174.25
  0
LINE
  8
0
 10
207.5
 20
-174.25
 11
207.251
 21
-174.232
  0
LINE
  8
0
 10
233.377
 20
-164.145
 11
233.133
 21
-164.109
  0
LINE
  8
0
 10
233.133
 20
-164.109
 11
232.897
 21
-164.036
  0
LINE
  8
0
 10
232.897
 20
-164.036
 11
232.675
 21
-163.929
  0
LINE
  8
0
 10
232.675
 20
-163.929
 11
232.471
 21
-163.79
  0
LINE
  8
0
 10
232.471
 20
-163.79
 11
232.29
 21
-163.622
  0
LINE
  8
0
 10
232.29
 20
-163.622
 11
232.137
 21
-163.429
  0
LINE
  8
0
 10
232.137
 20
-163.429
 11
232.013
 21
-163.216
  0
LINE
  8
0
 10
232.013
 20
-163.216
 11
231.923
 21
-162.986
  0
LINE
  8
0
 10
231.923
 20
-162.986
 11
231.868
 21
-162.746
  0
LINE
  8
0
 10
231.868
 20
-162.746
 11
231.85
 21
-162.5
  0
LINE
  8
0
 10
231.85
 20
-162.5
 11
231.868
 21
-162.254
  0
LINE
  8
0
 10
231.868
 20
-162.254
 11
231.923
 21
-162.014
  0
LINE
  8
0
 10
231.923
 20
-162.014
 11
232.013
 21
-161.784
  0
LINE
  8
0
 10
232.013
 20
-161.784
 11
232.137
 21
-161.571
  0
LINE
  8
0
 10
232.137
 20
-161.571
 11
232.29
 21
-161.378
  0
LINE
  8
0
 10
232.29
 20
-161.378
 11
232.471
 21
-161.21
  0
LINE
  8
0
 10
232.471
 20
-161.21
 11
232.675
 21
-161.071
  0
LINE
  8
0
 10
232.675
 20
-161.071
 11
232.897
 21
-160.964
  0
LINE
  8
0
 10
232.897
 20
-160.964
 11
233.133
 21
-160.891
  0
LINE
  8
0
 10
233.133
 20
-160.891
 11
233.377
 21
-160.855
  0
LINE
  8
0
 10
233.377
 20
-160.855
 11
241.623
 21
-160.855
  0
LINE
  8
0
 10
241.623
 20
-160.855
 11
241.867
 21
-160.891
  0
LINE
  8
0
 10
241.867
 20
-160.891
 11
242.103
 21
-160.964
  0
LINE
  8
0
 10
242.103
 20
-160.964
 11
242.325
 21
-161.071
  0
LINE
  8
0
 10
242.325
 20
-161.071
 11
242.529
 21
-161.21
  0
LINE
  8
0
 10
242.529
 20
-161.21
 11
242.71
 21
-161.378
  0
LINE
  8
0
 10
242.71
 20
-161.378
 11
242.863
 21
-161.571
  0
LINE
  8
0
 10
242.863
 20
-161.571
 11
242.987
 21
-161.784
  0
LINE
  8
0
 10
242.987
 20
-161.784
 11
243.077
 21
-162.014
  0
LINE
  8
0
 10
243.077
 20
-162.014
 11
243.132
 21
-162.254
  0
LINE
  8
0
 10
243.132
 20
-162.254
 11
243.15
 21
-162.5
  0
LINE
  8
0
 10
243.15
 20
-162.5
 11
243.132
 21
-162.746
  0
LINE
  8
0
 10
243.132
 20
-162.746
 11
243.077
 21
-162.986
  0
LINE
  8
0
 10
243.077
 20
-162.986
 11
242.987
 21
-163.216
  0
LINE
  8
0
 10
242.987
 20
-163.216
 11
242.863
 21
-163.429
  0
LINE
  8
0
 10
242.863
 20
-163.429
 11
242.71
 21
-163.622
  0
LINE
  8
0
 10
242.71
 20
-163.622
 11
242.529
 21
-163.79
  0
LINE
  8
0
 10
242.529
 20
-163.79
 11
242.325
 21
-163.929
  0
LINE
  8
0
 10
242.325
 20
-163.929
 11
242.103
 21
-164.036
  0
LINE
  8
0
 10
242.103
 20
-164.036
 11
241.867
 21
-164.109
  0
LINE
  8
0
 10
241.867
 20
-164.109
 11
241.623
 21
-164.145
  0
LINE
  8
0
 10
241.623
 20
-164.145
 11
233.377
 21
-164.145
  0
LINE
  8
0
 10
264.377
 20
-164.145
 11
264.133
 21
-164.109
  0
LINE
  8
0
 10
264.133
 20
-164.109
 11
263.897
 21
-164.036
  0
LINE
  8
0
 10
263.897
 20
-164.036
 11
263.675
 21
-163.929
  0
LINE
  8
0
 10
263.675
 20
-163.929
 11
263.471
 21
-163.79
  0
LINE
  8
0
 10
263.471
 20
-163.79
 11
263.29
 21
-163.622
  0
LINE
  8
0
 10
263.29
 20
-163.622
 11
263.137
 21
-163.429
  0
LINE
  8
0
 10
263.137
 20
-163.429
 11
263.013
 21
-163.216
  0
LINE
  8
0
 10
263.013
 20
-163.216
 11
262.923
 21
-162.986
  0
LINE
  8
0
 10
262.923
 20
-162.986
 11
262.868
 21
-162.746
  0
LINE
  8
0
 10
262.868
 20
-162.746
 11
262.85
 21
-162.5
  0
LINE
  8
0
 10
262.85
 20
-162.5
 11
262.868
 21
-162.254
  0
LINE
  8
0
 10
262.868
 20
-162.254
 11
262.923
 21
-162.014
  0
LINE
  8
0
 10
262.923
 20
-162.014
 11
263.013
 21
-161.784
  0
LINE
  8
0
 10
263.013
 20
-161.784
 11
263.137
 21
-161.571
  0
LINE
  8
0
 10
263.137
 20
-161.571
 11
263.29
 21
-161.378
  0
LINE
  8
0
 10
263.29
 20
-161.378
 11
263.471
 21
-161.21
  0
LINE
  8
0
 10
263.471
 20
-161.21
 11
263.675
 21
-161.071
  0
LINE
  8
0
 10
263.675
 20
-161.071
 11
263.897
 21
-160.964
  0
LINE
  8
0
 10
263.897
 20
-160.964
 11
264.133
 21
-160.891
  0
LINE
  8
0
 10
264.133
 20
-160.891
 11
264.377
 21
-160.855
  0
LINE
  8
0
 10
264.377
 20
-160.855
 11
272.623
 21
-160.855
  0
LINE
  8
0
 10
272.623
 20
-160.855
 11
272.867
 21
-160.891
  0
LINE
  8
0
 10
272.867
 20
-160.891
 11
273.103
 21
-160.964
  0
LINE
  8
0
 10
273.103
 20
-160.964
 11
273.325
 21
-161.071
  0
LINE
  8
0
 10
273.325
 20
-161.071
 11
273.529
 21
-161.21
  0
LINE
  8
0
 10
273.529
 20
-161.21
 11
273.71
 21
-161.378
  0
LINE
  8
0
 10
273.71
 20
-161.378
 11
273.863
 21
-161.571
  0
LINE
  8
0
 10
273.863
 20
-161.571
 11
273.987
 21
-161.784
  0
LINE
  8
0
 10
273.987
 20
-161.784
 11
274.077
 21
-162.014
  0
LINE
  8
0
 10
274.077
 20
-162.014
 11
274.132
 21
-162.254
  0
LINE
  8
0
 10
274.132
 20
-162.254
 11
274.15
 21
-162.5
  0
LINE
  8
0
 10
274.15
 20
-162.5
 11
274.132
 21
-162.746
  0
LINE
  8
0
 10
274.132
 20
-162.746
 11
274.077
 21
-162.986
  0
LINE
  8
0
 10
274.077
 20
-162.986
 11
273.987
 21
-163.216
  0
LINE
  8
0
 10
273.987
 20
-163.216
 11
273.863
 21
-163.429
  0
LINE
  8
0
 10
273.863
 20
-163.429
 11
273.71
 21
-163.622
  0
LINE
  8
0
 10
273.71
 20
-163.622
 11
273.529
 21
-163.79
  0
LINE
  8
0
 10
273.529
 20
-163.79
 11
273.325
 21
-163.929
  0
LINE
  8
0
 10
273.325
 20
-163.929
 11
273.103
 21
-164.036
  0
LINE
  8
0
 10
273.103
 20
-164.036
 11
272.867
 21
-164.109
  0
LINE
  8
0
 10
272.867
 20
-164.109
 11
272.623
 21
-164.145
  0
LINE
  8
0
 10
272.623
 20
-164.145
 11
264.377
 21
-164.145
  0
LINE
  8
0
 10
-234.809
 20
-168.672
 11
-235.049
 21
-168.609
  0
LINE
  8
0
 10
-235.049
 20
-168.609
 11
-235.277
 21
-168.512
  0
LINE
  8
0
 10
-235.277
 20
-168.512
 11
-235.489
 21
-168.383
  0
LINE
  8
0
 10
-235.489
 20
-168.383
 11
-235.68
 21
-168.224
  0
LINE
  8
0
 10
-235.68
 20
-168.224
 11
-235.846
 21
-168.039
  0
LINE
  8
0
 10
-235.846
 20
-168.039
 11
-235.982
 21
-167.832
  0
LINE
  8
0
 10
-235.982
 20
-167.832
 11
-236.088
 21
-167.607
  0
LINE
  8
0
 10
-236.088
 20
-167.607
 11
-236.159
 21
-167.37
  0
LINE
  8
0
 10
-236.159
 20
-167.37
 11
-236.195
 21
-167.124
  0
LINE
  8
0
 10
-236.195
 20
-167.124
 11
-236.195
 21
-166.876
  0
LINE
  8
0
 10
-236.195
 20
-166.876
 11
-236.159
 21
-166.63
  0
LINE
  8
0
 10
-236.159
 20
-166.63
 11
-236.088
 21
-166.393
  0
LINE
  8
0
 10
-236.088
 20
-166.393
 11
-235.982
 21
-166.168
  0
LINE
  8
0
 10
-235.982
 20
-166.168
 11
-235.846
 21
-165.961
  0
LINE
  8
0
 10
-235.846
 20
-165.961
 11
-235.68
 21
-165.776
  0
LINE
  8
0
 10
-235.68
 20
-165.776
 11
-235.489
 21
-165.617
  0
LINE
  8
0
 10
-235.489
 20
-165.617
 11
-235.277
 21
-165.488
  0
LINE
  8
0
 10
-235.277
 20
-165.488
 11
-235.049
 21
-165.391
  0
LINE
  8
0
 10
-235.049
 20
-165.391
 11
-234.809
 21
-165.328
  0
LINE
  8
0
 10
-234.809
 20
-165.328
 11
-234.562
 21
-165.301
  0
LINE
  8
0
 10
-234.562
 20
-165.301
 11
-234.314
 21
-165.31
  0
LINE
  8
0
 10
-234.314
 20
-165.31
 11
-234.07
 21
-165.355
  0
LINE
  8
0
 10
-234.07
 20
-165.355
 11
-233.835
 21
-165.435
  0
LINE
  8
0
 10
-233.835
 20
-165.435
 11
-233.614
 21
-165.549
  0
LINE
  8
0
 10
-233.614
 20
-165.549
 11
-233.413
 21
-165.693
  0
LINE
  8
0
 10
-233.413
 20
-165.693
 11
-233.234
 21
-165.866
  0
LINE
  8
0
 10
-233.234
 20
-165.866
 11
-233.082
 21
-166.062
  0
LINE
  8
0
 10
-233.082
 20
-166.062
 11
-232.961
 21
-166.278
  0
LINE
  8
0
 10
-232.961
 20
-166.278
 11
-232.872
 21
-166.51
  0
LINE
  8
0
 10
-232.872
 20
-166.51
 11
-232.818
 21
-166.752
  0
LINE
  8
0
 10
-232.818
 20
-166.752
 11
-232.8
 21
-167
  0
LINE
  8
0
 10
-232.8
 20
-167
 11
-232.818
 21
-167.248
  0
LINE
  8
0
 10
-232.818
 20
-167.248
 11
-232.872
 21
-167.49
  0
LINE
  8
0
 10
-232.872
 20
-167.49
 11
-232.961
 21
-167.722
  0
LINE
  8
0
 10
-232.961
 20
-167.722
 11
-233.082
 21
-167.938
  0
LINE
  8
0
 10
-233.082
 20
-167.938
 11
-233.234
 21
-168.134
  0
LINE
  8
0
 10
-233.234
 20
-168.134
 11
-233.413
 21
-168.307
  0
LINE
  8
0
 10
-233.413
 20
-168.307
 11
-233.614
 21
-168.451
  0
LINE
  8
0
 10
-233.614
 20
-168.451
 11
-233.835
 21
-168.565
  0
LINE
  8
0
 10
-233.835
 20
-168.565
 11
-234.07
 21
-168.645
  0
LINE
  8
0
 10
-234.07
 20
-168.645
 11
-234.314
 21
-168.69
  0
LINE
  8
0
 10
-234.314
 20
-168.69
 11
-234.562
 21
-168.699
  0
LINE
  8
0
 10
-234.562
 20
-168.699
 11
-234.809
 21
-168.672
  0
LINE
  8
0
 10
248.5
 20
-190.5
 11
247.193
 21
-190.432
  0
LINE
  8
0
 10
247.193
 20
-190.432
 11
245.901
 21
-190.227
  0
LINE
  8
0
 10
245.901
 20
-190.227
 11
244.637
 21
-189.888
  0
LINE
  8
0
 10
244.637
 20
-189.888
 11
243.416
 21
-189.419
  0
LINE
  8
0
 10
243.416
 20
-189.419
 11
242.25
 21
-188.825
  0
LINE
  8
0
 10
242.25
 20
-188.825
 11
241.153
 21
-188.113
  0
LINE
  8
0
 10
241.153
 20
-188.113
 11
240.136
 21
-187.289
  0
LINE
  8
0
 10
240.136
 20
-187.289
 11
239.211
 21
-186.364
  0
LINE
  8
0
 10
239.211
 20
-186.364
 11
238.387
 21
-185.347
  0
LINE
  8
0
 10
238.387
 20
-185.347
 11
237.675
 21
-184.25
  0
LINE
  8
0
 10
237.675
 20
-184.25
 11
237.081
 21
-183.084
  0
LINE
  8
0
 10
237.081
 20
-183.084
 11
236.612
 21
-181.863
  0
LINE
  8
0
 10
236.612
 20
-181.863
 11
236.273
 21
-180.599
  0
LINE
  8
0
 10
236.273
 20
-180.599
 11
236.068
 21
-179.307
  0
LINE
  8
0
 10
236.068
 20
-179.307
 11
236
 21
-178
  0
LINE
  8
0
 10
236
 20
-178
 11
236.068
 21
-176.693
  0
LINE
  8
0
 10
236.068
 20
-176.693
 11
236.273
 21
-175.401
  0
LINE
  8
0
 10
236.273
 20
-175.401
 11
236.612
 21
-174.137
  0
LINE
  8
0
 10
236.612
 20
-174.137
 11
237.081
 21
-172.916
  0
LINE
  8
0
 10
237.081
 20
-172.916
 11
237.675
 21
-171.75
  0
LINE
  8
0
 10
237.675
 20
-171.75
 11
238.387
 21
-170.653
  0
LINE
  8
0
 10
238.387
 20
-170.653
 11
239.211
 21
-169.636
  0
LINE
  8
0
 10
239.211
 20
-169.636
 11
240.136
 21
-168.711
  0
LINE
  8
0
 10
240.136
 20
-168.711
 11
241.153
 21
-167.887
  0
LINE
  8
0
 10
241.153
 20
-167.887
 11
242.25
 21
-167.175
  0
LINE
  8
0
 10
242.25
 20
-167.175
 11
243.416
 21
-166.581
  0
LINE
  8
0
 10
243.416
 20
-166.581
 11
244.637
 21
-166.112
  0
LINE
  8
0
 10
244.637
 20
-166.112
 11
245.901
 21
-165.773
  0
LINE
  8
0
 10
245.901
 20
-165.773
 11
247.193
 21
-165.568
  0
LINE
  8
0
 10
247.193
 20
-165.568
 11
248.5
 21
-165.5
  0
LINE
  8
0
 10
248.5
 20
-165.5
 11
256.5
 21
-165.5
  0
LINE
  8
0
 10
256.5
 20
-165.5
 11
257.807
 21
-165.568
  0
LINE
  8
0
 10
257.807
 20
-165.568
 11
259.099
 21
-165.773
  0
LINE
  8
0
 10
259.099
 20
-165.773
 11
260.363
 21
-166.112
  0
LINE
  8
0
 10
260.363
 20
-166.112
 11
261.584
 21
-166.581
  0
LINE
  8
0
 10
261.584
 20
-166.581
 11
262.75
 21
-167.175
  0
LINE
  8
0
 10
262.75
 20
-167.175
 11
263.847
 21
-167.887
  0
LINE
  8
0
 10
263.847
 20
-167.887
 11
264.864
 21
-168.711
  0
LINE
  8
0
 10
264.864
 20
-168.711
 11
265.789
 21
-169.636
  0
LINE
  8
0
 10
265.789
 20
-169.636
 11
266.613
 21
-170.653
  0
LINE
  8
0
 10
266.613
 20
-170.653
 11
267.325
 21
-171.75
  0
LINE
  8
0
 10
267.325
 20
-171.75
 11
267.919
 21
-172.916
  0
LINE
  8
0
 10
267.919
 20
-172.916
 11
268.388
 21
-174.137
  0
LINE
  8
0
 10
268.388
 20
-174.137
 11
268.727
 21
-175.401
  0
LINE
  8
0
 10
268.727
 20
-175.401
 11
268.932
 21
-176.693
  0
LINE
  8
0
 10
268.932
 20
-176.693
 11
269
 21
-178
  0
LINE
  8
0
 10
269
 20
-178
 11
268.932
 21
-179.307
  0
LINE
  8
0
 10
268.932
 20
-179.307
 11
268.727
 21
-180.599
  0
LINE
  8
0
 10
268.727
 20
-180.599
 11
268.388
 21
-181.863
  0
LINE
  8
0
 10
268.388
 20
-181.863
 11
267.919
 21
-183.084
  0
LINE
  8
0
 10
267.919
 20
-183.084
 11
267.325
 21
-184.25
  0
LINE
  8
0
 10
267.325
 20
-184.25
 11
266.613
 21
-185.347
  0
LINE
  8
0
 10
266.613
 20
-185.347
 11
265.789
 21
-186.364
  0
LINE
  8
0
 10
265.789
 20
-186.364
 11
264.864
 21
-187.289
  0
LINE
  8
0
 10
264.864
 20
-187.289
 11
263.847
 21
-188.113
  0
LINE
  8
0
 10
263.847
 20
-188.113
 11
262.75
 21
-188.825
  0
LINE
  8
0
 10
262.75
 20
-188.825
 11
261.584
 21
-189.419
  0
LINE
  8
0
 10
261.584
 20
-189.419
 11
260.363
 21
-189.888
  0
LINE
  8
0
 10
260.363
 20
-189.888
 11
259.099
 21
-190.227
  0
LINE
  8
0
 10
259.099
 20
-190.227
 11
257.807
 21
-190.432
  0
LINE
  8
0
 10
257.807
 20
-190.432
 11
256.5
 21
-190.5
  0
LINE
  8
0
 10
256.5
 20
-190.5
 11
248.5
 21
-190.5
  0
LINE
  8
0
 10
-255.309
 20
-179.672
 11
-255.549
 21
-179.609
  0
LINE
  8
0
 10
-255.549
 20
-179.609
 11
-255.777
 21
-179.512
  0
LINE
  8
0
 10
-255.777
 20
-179.512
 11
-255.989
 21
-179.383
  0
LINE
  8
0
 10
-255.989
 20
-179.383
 11
-256.18
 21
-179.224
  0
LINE
  8
0
 10
-256.18
 20
-179.224
 11
-256.346
 21
-179.039
  0
LINE
  8
0
 10
-256.346
 20
-179.039
 11
-256.482
 21
-178.832
  0
LINE
  8
0
 10
-256.482
 20
-178.832
 11
-256.588
 21
-178.607
  0
LINE
  8
0
 10
-256.588
 20
-178.607
 11
-256.659
 21
-178.37
  0
LINE
  8
0
 10
-256.659
 20
-178.37
 11
-256.695
 21
-178.124
  0
LINE
  8
0
 10
-256.695
 20
-178.124
 11
-256.695
 21
-177.876
  0
LINE
  8
0
 10
-256.695
 20
-177.876
 11
-256.659
 21
-177.63
  0
LINE
  8
0
 10
-256.659
 20
-177.63
 11
-256.588
 21
-177.393
  0
LINE
  8
0
 10
-256.588
 20
-177.393
 11
-256.482
 21
-177.168
  0
LINE
  8
0
 10
-256.482
 20
-177.168
 11
-256.346
 21
-176.961
  0
LINE
  8
0
 10
-256.346
 20
-176.961
 11
-256.18
 21
-176.776
  0
LINE
  8
0
 10
-256.18
 20
-176.776
 11
-255.989
 21
-176.617
  0
LINE
  8
0
 10
-255.989
 20
-176.617
 11
-255.777
 21
-176.488
  0
LINE
  8
0
 10
-255.777
 20
-176.488
 11
-255.549
 21
-176.391
  0
LINE
  8
0
 10
-255.549
 20
-176.391
 11
-255.309
 21
-176.328
  0
LINE
  8
0
 10
-255.309
 20
-176.328
 11
-255.062
 21
-176.301
  0
LINE
  8
0
 10
-255.062
 20
-176.301
 11
-254.814
 21
-176.31
  0
LINE
  8
0
 10
-254.814
 20
-176.31
 11
-254.57
 21
-176.355
  0
LINE
  8
0
 10
-254.57
 20
-176.355
 11
-254.335
 21
-176.435
  0
LINE
  8
0
 10
-254.335
 20
-176.435
 11
-254.114
 21
-176.549
  0
LINE
  8
0
 10
-254.114
 20
-176.549
 11
-253.913
 21
-176.693
  0
LINE
  8
0
 10
-253.913
 20
-176.693
 11
-253.734
 21
-176.866
  0
LINE
  8
0
 10
-253.734
 20
-176.866
 11
-253.582
 21
-177.062
  0
LINE
  8
0
 10
-253.582
 20
-177.062
 11
-253.461
 21
-177.278
  0
LINE
  8
0
 10
-253.461
 20
-177.278
 11
-253.372
 21
-177.51
  0
LINE
  8
0
 10
-253.372
 20
-177.51
 11
-253.318
 21
-177.752
  0
LINE
  8
0
 10
-253.318
 20
-177.752
 11
-253.3
 21
-178
  0
LINE
  8
0
 10
-253.3
 20
-178
 11
-253.318
 21
-178.248
  0
LINE
  8
0
 10
-253.318
 20
-178.248
 11
-253.372
 21
-178.49
  0
LINE
  8
0
 10
-253.372
 20
-178.49
 11
-253.461
 21
-178.722
  0
LINE
  8
0
 10
-253.461
 20
-178.722
 11
-253.582
 21
-178.938
  0
LINE
  8
0
 10
-253.582
 20
-178.938
 11
-253.734
 21
-179.134
  0
LINE
  8
0
 10
-253.734
 20
-179.134
 11
-253.913
 21
-179.307
  0
LINE
  8
0
 10
-253.913
 20
-179.307
 11
-254.114
 21
-179.451
  0
LINE
  8
0
 10
-254.114
 20
-179.451
 11
-254.335
 21
-179.565
  0
LINE
  8
0
 10
-254.335
 20
-179.565
 11
-254.57
 21
-179.645
  0
LINE
  8
0
 10
-254.57
 20
-179.645
 11
-254.814
 21
-179.69
  0
LINE
  8
0
 10
-254.814
 20
-179.69
 11
-255.062
 21
-179.699
  0
LINE
  8
0
 10
-255.062
 20
-179.699
 11
-255.309
 21
-179.672
  0
LINE
  8
0
 10
207.191
 20
-184.172
 11
206.951
 21
-184.109
  0
LINE
  8
0
 10
206.951
 20
-184.109
 11
206.723
 21
-184.012
  0
LINE
  8
0
 10
206.723
 20
-184.012
 11
206.511
 21
-183.883
  0
LINE
  8
0
 10
206.511
 20
-183.883
 11
206.32
 21
-183.724
  0
LINE
  8
0
 10
206.32
 20
-183.724
 11
206.154
 21
-183.539
  0
LINE
  8
0
 10
206.154
 20
-183.539
 11
206.018
 21
-183.332
  0
LINE
  8
0
 10
206.018
 20
-183.332
 11
205.912
 21
-183.107
  0
LINE
  8
0
 10
205.912
 20
-183.107
 11
205.841
 21
-182.87
  0
LINE
  8
0
 10
205.841
 20
-182.87
 11
205.805
 21
-182.624
  0
LINE
  8
0
 10
205.805
 20
-182.624
 11
205.805
 21
-182.376
  0
LINE
  8
0
 10
205.805
 20
-182.376
 11
205.841
 21
-182.13
  0
LINE
  8
0
 10
205.841
 20
-182.13
 11
205.912
 21
-181.893
  0
LINE
  8
0
 10
205.912
 20
-181.893
 11
206.018
 21
-181.668
  0
LINE
  8
0
 10
206.018
 20
-181.668
 11
206.154
 21
-181.461
  0
LINE
  8
0
 10
206.154
 20
-181.461
 11
206.32
 21
-181.276
  0
LINE
  8
0
 10
206.32
 20
-181.276
 11
206.511
 21
-181.117
  0
LINE
  8
0
 10
206.511
 20
-181.117
 11
206.723
 21
-180.988
  0
LINE
  8
0
 10
206.723
 20
-180.988
 11
206.951
 21
-180.891
  0
LINE
  8
0
 10
206.951
 20
-180.891
 11
207.191
 21
-180.828
  0
LINE
  8
0
 10
207.191
 20
-180.828
 11
207.438
 21
-180.801
  0
LINE
  8
0
 10
207.438
 20
-180.801
 11
207.686
 21
-180.81
  0
LINE
  8
0
 10
207.686
 20
-180.81
 11
207.93
 21
-180.855
  0
LINE
  8
0
 10
207.93
 20
-180.855
 11
208.165
 21
-180.935
  0
LINE
  8
0
 10
208.165
 20
-180.935
 11
208.386
 21
-181.049
  0
LINE
  8
0
 10
208.386
 20
-181.049
 11
208.587
 21
-181.193
  0
LINE
  8
0
 10
208.587
 20
-181.193
 11
208.766
 21
-181.366
  0
LINE
  8
0
 10
208.766
 20
-181.366
 11
208.918
 21
-181.562
  0
LINE
  8
0
 10
208.918
 20
-181.562
 11
209.039
 21
-181.778
  0
LINE
  8
0
 10
209.039
 20
-181.778
 11
209.128
 21
-182.01
  0
LINE
  8
0
 10
209.128
 20
-182.01
 11
209.182
 21
-182.252
  0
LINE
  8
0
 10
209.182
 20
-182.252
 11
209.2
 21
-182.5
  0
LINE
  8
0
 10
209.2
 20
-182.5
 11
209.182
 21
-182.748
  0
LINE
  8
0
 10
209.182
 20
-182.748
 11
209.128
 21
-182.99
  0
LINE
  8
0
 10
209.128
 20
-182.99
 11
209.039
 21
-183.222
  0
LINE
  8
0
 10
209.039
 20
-183.222
 11
208.918
 21
-183.438
  0
LINE
  8
0
 10
208.918
 20
-183.438
 11
208.766
 21
-183.634
  0
LINE
  8
0
 10
208.766
 20
-183.634
 11
208.587
 21
-183.807
  0
LINE
  8
0
 10
208.587
 20
-183.807
 11
208.386
 21
-183.951
  0
LINE
  8
0
 10
208.386
 20
-183.951
 11
208.165
 21
-184.065
  0
LINE
  8
0
 10
208.165
 20
-184.065
 11
207.93
 21
-184.145
  0
LINE
  8
0
 10
207.93
 20
-184.145
 11
207.686
 21
-184.19
  0
LINE
  8
0
 10
207.686
 20
-184.19
 11
207.438
 21
-184.199
  0
LINE
  8
0
 10
207.438
 20
-184.199
 11
207.191
 21
-184.172
  0
LINE
  8
0
 10
207.108
 20
-196.229
 11
206.72
 21
-196.168
  0
LINE
  8
0
 10
206.72
 20
-196.168
 11
206.341
 21
-196.066
  0
LINE
  8
0
 10
206.341
 20
-196.066
 11
205.975
 21
-195.926
  0
LINE
  8
0
 10
205.975
 20
-195.926
 11
205.625
 21
-195.748
  0
LINE
  8
0
 10
205.625
 20
-195.748
 11
205.296
 21
-195.534
  0
LINE
  8
0
 10
205.296
 20
-195.534
 11
204.991
 21
-195.287
  0
LINE
  8
0
 10
204.991
 20
-195.287
 11
204.713
 21
-195.009
  0
LINE
  8
0
 10
204.713
 20
-195.009
 11
204.466
 21
-194.704
  0
LINE
  8
0
 10
204.466
 20
-194.704
 11
204.252
 21
-194.375
  0
LINE
  8
0
 10
204.252
 20
-194.375
 11
204.074
 21
-194.025
  0
LINE
  8
0
 10
204.074
 20
-194.025
 11
203.934
 21
-193.659
  0
LINE
  8
0
 10
203.934
 20
-193.659
 11
203.832
 21
-193.28
  0
LINE
  8
0
 10
203.832
 20
-193.28
 11
203.771
 21
-192.892
  0
LINE
  8
0
 10
203.771
 20
-192.892
 11
203.75
 21
-192.5
  0
LINE
  8
0
 10
203.75
 20
-192.5
 11
203.771
 21
-192.108
  0
LINE
  8
0
 10
203.771
 20
-192.108
 11
203.832
 21
-191.72
  0
LINE
  8
0
 10
203.832
 20
-191.72
 11
203.934
 21
-191.341
  0
LINE
  8
0
 10
203.934
 20
-191.341
 11
204.074
 21
-190.975
  0
LINE
  8
0
 10
204.074
 20
-190.975
 11
204.252
 21
-190.625
  0
LINE
  8
0
 10
204.252
 20
-190.625
 11
204.466
 21
-190.296
  0
LINE
  8
0
 10
204.466
 20
-190.296
 11
204.713
 21
-189.991
  0
LINE
  8
0
 10
204.713
 20
-189.991
 11
204.991
 21
-189.713
  0
LINE
  8
0
 10
204.991
 20
-189.713
 11
205.296
 21
-189.466
  0
LINE
  8
0
 10
205.296
 20
-189.466
 11
205.625
 21
-189.252
  0
LINE
  8
0
 10
205.625
 20
-189.252
 11
205.975
 21
-189.074
  0
LINE
  8
0
 10
205.975
 20
-189.074
 11
206.341
 21
-188.934
  0
LINE
  8
0
 10
206.341
 20
-188.934
 11
206.72
 21
-188.832
  0
LINE
  8
0
 10
206.72
 20
-188.832
 11
207.108
 21
-188.771
  0
LINE
  8
0
 10
207.108
 20
-188.771
 11
207.5
 21
-188.75
  0
LINE
  8
0
 10
207.5
 20
-188.75
 11
207.892
 21
-188.771
  0
LINE
  8
0
 10
207.892
 20
-188.771
 11
208.28
 21
-188.832
  0
LINE
  8
0
 10
208.28
 20
-188.832
 11
208.659
 21
-188.934
  0
LINE
  8
0
 10
208.659
 20
-188.934
 11
209.025
 21
-189.074
  0
LINE
  8
0
 10
209.025
 20
-189.074
 11
209.375
 21
-189.252
  0
LINE
  8
0
 10
209.375
 20
-189.252
 11
209.704
 21
-189.466
  0
LINE
  8
0
 10
209.704
 20
-189.466
 11
210.009
 21
-189.713
  0
LINE
  8
0
 10
210.009
 20
-189.713
 11
210.287
 21
-189.991
  0
LINE
  8
0
 10
210.287
 20
-189.991
 11
210.534
 21
-190.296
  0
LINE
  8
0
 10
210.534
 20
-190.296
 11
210.748
 21
-190.625
  0
LINE
  8
0
 10
210.748
 20
-190.625
 11
210.926
 21
-190.975
  0
LINE
  8
0
 10
210.926
 20
-190.975
 11
211.066
 21
-191.341
  0
LINE
  8
0
 10
211.066
 20
-191.341
 11
211.168
 21
-191.72
  0
LINE
  8
0
 10
211.168
 20
-191.72
 11
211.229
 21
-192.108
  0
LINE
  8
0
 10
211.229
 20
-192.108
 11
211.25
 21
-192.5
  0
LINE
  8
0
 10
211.25
 20
-192.5
 11
211.229
 21
-192.892
  0
LINE
  8
0
 10
211.229
 20
-192.892
 11
211.168
 21
-193.28
  0
LINE
  8
0
 10
211.168
 20
-193.28
 11
211.066
 21
-193.659
  0
LINE
  8
0
 10
211.066
 20
-193.659
 11
210.926
 21
-194.025
  0
LINE
  8
0
 10
210.926
 20
-194.025
 11
210.748
 21
-194.375
  0
LINE
  8
0
 10
210.748
 20
-194.375
 11
210.534
 21
-194.704
  0
LINE
  8
0
 10
210.534
 20
-194.704
 11
210.287
 21
-195.009
  0
LINE
  8
0
 10
210.287
 20
-195.009
 11
210.009
 21
-195.287
  0
LINE
  8
0
 10
210.009
 20
-195.287
 11
209.704
 21
-195.534
  0
LINE
  8
0
 10
209.704
 20
-195.534
 11
209.375
 21
-195.748
  0
LINE
  8
0
 10
209.375
 20
-195.748
 11
209.025
 21
-195.926
  0
LINE
  8
0
 10
209.025
 20
-195.926
 11
208.659
 21
-196.066
  0
LINE
  8
0
 10
208.659
 20
-196.066
 11
208.28
 21
-196.168
  0
LINE
  8
0
 10
208.28
 20
-196.168
 11
207.892
 21
-196.229
  0
LINE
  8
0
 10
207.892
 20
-196.229
 11
207.5
 21
-196.25
  0
LINE
  8
0
 10
207.5
 20
-196.25
 11
207.108
 21
-196.229
  0
LINE
  8
0
 10
-96.5
 20
-194.25
 11
-96.7491
 21
-194.232
  0
LINE
  8
0
 10
-96.7491
 20
-194.232
 11
-96.993
 21
-194.179
  0
LINE
  8
0
 10
-96.993
 20
-194.179
 11
-97.227
 21
-194.092
  0
LINE
  8
0
 10
-97.227
 20
-194.092
 11
-97.4461
 21
-193.972
  0
LINE
  8
0
 10
-97.4461
 20
-193.972
 11
-97.646
 21
-193.823
  0
LINE
  8
0
 10
-97.646
 20
-193.823
 11
-97.8226
 21
-193.646
  0
LINE
  8
0
 10
-97.8226
 20
-193.646
 11
-97.9722
 21
-193.446
  0
LINE
  8
0
 10
-97.9722
 20
-193.446
 11
-98.0919
 21
-193.227
  0
LINE
  8
0
 10
-98.0919
 20
-193.227
 11
-98.1791
 21
-192.993
  0
LINE
  8
0
 10
-98.1791
 20
-192.993
 11
-98.2322
 21
-192.749
  0
LINE
  8
0
 10
-98.2322
 20
-192.749
 11
-98.25
 21
-192.5
  0
LINE
  8
0
 10
-98.25
 20
-192.5
 11
-98.2322
 21
-192.251
  0
LINE
  8
0
 10
-98.2322
 20
-192.251
 11
-98.1791
 21
-192.007
  0
LINE
  8
0
 10
-98.1791
 20
-192.007
 11
-98.0919
 21
-191.773
  0
LINE
  8
0
 10
-98.0919
 20
-191.773
 11
-97.9722
 21
-191.554
  0
LINE
  8
0
 10
-97.9722
 20
-191.554
 11
-97.8226
 21
-191.354
  0
LINE
  8
0
 10
-97.8226
 20
-191.354
 11
-97.646
 21
-191.177
  0
LINE
  8
0
 10
-97.646
 20
-191.177
 11
-97.4461
 21
-191.028
  0
LINE
  8
0
 10
-97.4461
 20
-191.028
 11
-97.227
 21
-190.908
  0
LINE
  8
0
 10
-97.227
 20
-190.908
 11
-96.993
 21
-190.821
  0
LINE
  8
0
 10
-96.993
 20
-190.821
 11
-96.7491
 21
-190.768
  0
LINE
  8
0
 10
-96.7491
 20
-190.768
 11
-96.5
 21
-190.75
  0
LINE
  8
0
 10
-96.5
 20
-190.75
 11
-14.8333
 21
-190.75
  0
LINE
  8
0
 10
-14.8333
 20
-190.75
 11
-14.5843
 21
-190.768
  0
LINE
  8
0
 10
-14.5843
 20
-190.768
 11
-14.3403
 21
-190.821
  0
LINE
  8
0
 10
-14.3403
 20
-190.821
 11
-14.1064
 21
-190.908
  0
LINE
  8
0
 10
-14.1064
 20
-190.908
 11
-13.8872
 21
-191.028
  0
LINE
  8
0
 10
-13.8872
 20
-191.028
 11
-13.6873
 21
-191.177
  0
LINE
  8
0
 10
-13.6873
 20
-191.177
 11
-13.5108
 21
-191.354
  0
LINE
  8
0
 10
-13.5108
 20
-191.354
 11
-13.3611
 21
-191.554
  0
LINE
  8
0
 10
-13.3611
 20
-191.554
 11
-13.2415
 21
-191.773
  0
LINE
  8
0
 10
-13.2415
 20
-191.773
 11
-13.1542
 21
-192.007
  0
LINE
  8
0
 10
-13.1542
 20
-192.007
 11
-13.1011
 21
-192.251
  0
LINE
  8
0
 10
-13.1011
 20
-192.251
 11
-13.0833
 21
-192.5
  0
LINE
  8
0
 10
-13.0833
 20
-192.5
 11
-13.1011
 21
-192.749
  0
LINE
  8
0
 10
-13.1011
 20
-192.749
 11
-13.1542
 21
-192.993
  0
LINE
  8
0
 10
-13.1542
 20
-192.993
 11
-13.2415
 21
-193.227
  0
LINE
  8
0
 10
-13.2415
 20
-193.227
 11
-13.3611
 21
-193.446
  0
LINE
  8
0
 10
-13.3611
 20
-193.446
 11
-13.5108
 21
-193.646
  0
LINE
  8
0
 10
-13.5108
 20
-193.646
 11
-13.6873
 21
-193.823
  0
LINE
  8
0
 10
-13.6873
 20
-193.823
 11
-13.8872
 21
-193.972
  0
LINE
  8
0
 10
-13.8872
 20
-193.972
 11
-14.1064
 21
-194.092
  0
LINE
  8
0
 10
-14.1064
 20
-194.092
 11
-14.3403
 21
-194.179
  0
LINE
  8
0
 10
-14.3403
 20
-194.179
 11
-14.5843
 21
-194.232
  0
LINE
  8
0
 10
-14.5843
 20
-194.232
 11
-14.8333
 21
-194.25
  0
LINE
  8
0
 10
-14.8333
 20
-194.25
 11
-96.5
 21
-194.25
  0
LINE
  8
0
 10
89.5
 20
-194.25
 11
89.2509
 21
-194.232
  0
LINE
  8
0
 10
89.2509
 20
-194.232
 11
89.007
 21
-194.179
  0
LINE
  8
0
 10
89.007
 20
-194.179
 11
88.773
 21
-194.092
  0
LINE
  8
0
 10
88.773
 20
-194.092
 11
88.5539
 21
-193.972
  0
LINE
  8
0
 10
88.5539
 20
-193.972
 11
88.354
 21
-193.823
  0
LINE
  8
0
 10
88.354
 20
-193.823
 11
88.1774
 21
-193.646
  0
LINE
  8
0
 10
88.1774
 20
-193.646
 11
88.0278
 21
-193.446
  0
LINE
  8
0
 10
88.0278
 20
-193.446
 11
87.9081
 21
-193.227
  0
LINE
  8
0
 10
87.9081
 20
-193.227
 11
87.8209
 21
-192.993
  0
LINE
  8
0
 10
87.8209
 20
-192.993
 11
87.7678
 21
-192.749
  0
LINE
  8
0
 10
87.7678
 20
-192.749
 11
87.75
 21
-192.5
  0
LINE
  8
0
 10
87.75
 20
-192.5
 11
87.7678
 21
-192.251
  0
LINE
  8
0
 10
87.7678
 20
-192.251
 11
87.8209
 21
-192.007
  0
LINE
  8
0
 10
87.8209
 20
-192.007
 11
87.9081
 21
-191.773
  0
LINE
  8
0
 10
87.9081
 20
-191.773
 11
88.0278
 21
-191.554
  0
LINE
  8
0
 10
88.0278
 20
-191.554
 11
88.1774
 21
-191.354
  0
LINE
  8
0
 10
88.1774
 20
-191.354
 11
88.354
 21
-191.177
  0
LINE
  8
0
 10
88.354
 20
-191.177
 11
88.5539
 21
-191.028
  0
LINE
  8
0
 10
88.5539
 20
-191.028
 11
88.773
 21
-190.908
  0
LINE
  8
0
 10
88.773
 20
-190.908
 11
89.007
 21
-190.821
  0
LINE
  8
0
 10
89.007
 20
-190.821
 11
89.2509
 21
-190.768
  0
LINE
  8
0
 10
89.2509
 20
-190.768
 11
89.5
 21
-190.75
  0
LINE
  8
0
 10
89.5
 20
-190.75
 11
171.167
 21
-190.75
  0
LINE
  8
0
 10
171.167
 20
-190.75
 11
171.416
 21
-190.768
  0
LINE
  8
0
 10
171.416
 20
-190.768
 11
171.66
 21
-190.821
  0
LINE
  8
0
 10
171.66
 20
-190.821
 11
171.894
 21
-190.908
  0
LINE
  8
0
 10
171.894
 20
-190.908
 11
172.113
 21
-191.028
  0
LINE
  8
0
 10
172.113
 20
-191.028
 11
172.313
 21
-191.177
  0
LINE
  8
0
 10
172.313
 20
-191.177
 11
172.489
 21
-191.354
  0
LINE
  8
0
 10
172.489
 20
-191.354
 11
172.639
 21
-191.554
  0
LINE
  8
0
 10
172.639
 20
-191.554
 11
172.759
 21
-191.773
  0
LINE
  8
0
 10
172.759
 20
-191.773
 11
172.846
 21
-192.007
  0
LINE
  8
0
 10
172.846
 20
-192.007
 11
172.899
 21
-192.251
  0
LINE
  8
0
 10
172.899
 20
-192.251
 11
172.917
 21
-192.5
  0
LINE
  8
0
 10
172.917
 20
-192.5
 11
172.899
 21
-192.749
  0
LINE
  8
0
 10
172.899
 20
-192.749
 11
172.846
 21
-192.993
  0
LINE
  8
0
 10
172.846
 20
-192.993
 11
172.759
 21
-193.227
  0
LINE
  8
0
 10
172.759
 20
-193.227
 11
172.639
 21
-193.446
  0
LINE
  8
0
 10
172.639
 20
-193.446
 11
172.489
 21
-193.646
  0
LINE
  8
0
 10
172.489
 20
-193.646
 11
172.313
 21
-193.823
  0
LINE
  8
0
 10
172.313
 20
-193.823
 11
172.113
 21
-193.972
  0
LINE
  8
0
 10
172.113
 20
-193.972
 11
171.894
 21
-194.092
  0
LINE
  8
0
 10
171.894
 20
-194.092
 11
171.66
 21
-194.179
  0
LINE
  8
0
 10
171.66
 20
-194.179
 11
171.416
 21
-194.232
  0
LINE
  8
0
 10
171.416
 20
-194.232
 11
171.167
 21
-194.25
  0
LINE
  8
0
 10
171.167
 20
-194.25
 11
89.5
 21
-194.25
  0
LINE
  8
0
 10
-189.5
 20
-194.25
 11
-189.749
 21
-194.232
  0
LINE
  8
0
 10
-189.749
 20
-194.232
 11
-189.993
 21
-194.179
  0
LINE
  8
0
 10
-189.993
 20
-194.179
 11
-190.227
 21
-194.092
  0
LINE
  8
0
 10
-190.227
 20
-194.092
 11
-190.446
 21
-193.972
  0
LINE
  8
0
 10
-190.446
 20
-193.972
 11
-190.646
 21
-193.823
  0
LINE
  8
0
 10
-190.646
 20
-193.823
 11
-190.823
 21
-193.646
  0
LINE
  8
0
 10
-190.823
 20
-193.646
 11
-190.972
 21
-193.446
  0
LINE
  8
0
 10
-190.972
 20
-193.446
 11
-191.092
 21
-193.227
  0
LINE
  8
0
 10
-191.092
 20
-193.227
 11
-191.179
 21
-192.993
  0
LINE
  8
0
 10
-191.179
 20
-192.993
 11
-191.232
 21
-192.749
  0
LINE
  8
0
 10
-191.232
 20
-192.749
 11
-191.25
 21
-192.5
  0
LINE
  8
0
 10
-191.25
 20
-192.5
 11
-191.232
 21
-192.251
  0
LINE
  8
0
 10
-191.232
 20
-192.251
 11
-191.179
 21
-192.007
  0
LINE
  8
0
 10
-191.179
 20
-192.007
 11
-191.092
 21
-191.773
  0
LINE
  8
0
 10
-191.092
 20
-191.773
 11
-190.972
 21
-191.554
  0
LINE
  8
0
 10
-190.972
 20
-191.554
 11
-190.823
 21
-191.354
  0
LINE
  8
0
 10
-190.823
 20
-191.354
 11
-190.646
 21
-191.177
  0
LINE
  8
0
 10
-190.646
 20
-191.177
 11
-190.446
 21
-191.028
  0
LINE
  8
0
 10
-190.446
 20
-191.028
 11
-190.227
 21
-190.908
  0
LINE
  8
0
 10
-190.227
 20
-190.908
 11
-189.993
 21
-190.821
  0
LINE
  8
0
 10
-189.993
 20
-190.821
 11
-189.749
 21
-190.768
  0
LINE
  8
0
 10
-189.749
 20
-190.768
 11
-189.5
 21
-190.75
  0
LINE
  8
0
 10
-189.5
 20
-190.75
 11
-107.833
 21
-190.75
  0
LINE
  8
0
 10
-107.833
 20
-190.75
 11
-107.584
 21
-190.768
  0
LINE
  8
0
 10
-107.584
 20
-190.768
 11
-107.34
 21
-190.821
  0
LINE
  8
0
 10
-107.34
 20
-190.821
 11
-107.106
 21
-190.908
  0
LINE
  8
0
 10
-107.106
 20
-190.908
 11
-106.887
 21
-191.028
  0
LINE
  8
0
 10
-106.887
 20
-191.028
 11
-106.687
 21
-191.177
  0
LINE
  8
0
 10
-106.687
 20
-191.177
 11
-106.511
 21
-191.354
  0
LINE
  8
0
 10
-106.511
 20
-191.354
 11
-106.361
 21
-191.554
  0
LINE
  8
0
 10
-106.361
 20
-191.554
 11
-106.241
 21
-191.773
  0
LINE
  8
0
 10
-106.241
 20
-191.773
 11
-106.154
 21
-192.007
  0
LINE
  8
0
 10
-106.154
 20
-192.007
 11
-106.101
 21
-192.251
  0
LINE
  8
0
 10
-106.101
 20
-192.251
 11
-106.083
 21
-192.5
  0
LINE
  8
0
 10
-106.083
 20
-192.5
 11
-106.101
 21
-192.749
  0
LINE
  8
0
 10
-106.101
 20
-192.749
 11
-106.154
 21
-192.993
  0
LINE
  8
0
 10
-106.154
 20
-192.993
 11
-106.241
 21
-193.227
  0
LINE
  8
0
 10
-106.241
 20
-193.227
 11
-106.361
 21
-193.446
  0
LINE
  8
0
 10
-106.361
 20
-193.446
 11
-106.511
 21
-193.646
  0
LINE
  8
0
 10
-106.511
 20
-193.646
 11
-106.687
 21
-193.823
  0
LINE
  8
0
 10
-106.687
 20
-193.823
 11
-106.887
 21
-193.972
  0
LINE
  8
0
 10
-106.887
 20
-193.972
 11
-107.106
 21
-194.092
  0
LINE
  8
0
 10
-107.106
 20
-194.092
 11
-107.34
 21
-194.179
  0
LINE
  8
0
 10
-107.34
 20
-194.179
 11
-107.584
 21
-194.232
  0
LINE
  8
0
 10
-107.584
 20
-194.232
 11
-107.833
 21
-194.25
  0
LINE
  8
0
 10
-107.833
 20
-194.25
 11
-189.5
 21
-194.25
  0
LINE
  8
0
 10
-3.5
 20
-194.25
 11
-3.74904
 21
-194.232
  0
LINE
  8
0
 10
-3.74904
 20
-194.232
 11
-3.99303
 21
-194.179
  0
LINE
  8
0
 10
-3.99303
 20
-194.179
 11
-4.22697
 21
-194.092
  0
LINE
  8
0
 10
-4.22697
 20
-194.092
 11
-4.44612
 21
-193.972
  0
LINE
  8
0
 10
-4.44612
 20
-193.972
 11
-4.646
 21
-193.823
  0
LINE
  8
0
 10
-4.646
 20
-193.823
 11
-4.82256
 21
-193.646
  0
LINE
  8
0
 10
-4.82256
 20
-193.646
 11
-4.97218
 21
-193.446
  0
LINE
  8
0
 10
-4.97218
 20
-193.446
 11
-5.09184
 21
-193.227
  0
LINE
  8
0
 10
-5.09184
 20
-193.227
 11
-5.17911
 21
-192.993
  0
LINE
  8
0
 10
-5.17911
 20
-192.993
 11
-5.23218
 21
-192.749
  0
LINE
  8
0
 10
-5.23218
 20
-192.749
 11
-5.25
 21
-192.5
  0
LINE
  8
0
 10
-5.25
 20
-192.5
 11
-5.23218
 21
-192.251
  0
LINE
  8
0
 10
-5.23218
 20
-192.251
 11
-5.17911
 21
-192.007
  0
LINE
  8
0
 10
-5.17911
 20
-192.007
 11
-5.09184
 21
-191.773
  0
LINE
  8
0
 10
-5.09184
 20
-191.773
 11
-4.97218
 21
-191.554
  0
LINE
  8
0
 10
-4.97218
 20
-191.554
 11
-4.82256
 21
-191.354
  0
LINE
  8
0
 10
-4.82256
 20
-191.354
 11
-4.646
 21
-191.177
  0
LINE
  8
0
 10
-4.646
 20
-191.177
 11
-4.44612
 21
-191.028
  0
LINE
  8
0
 10
-4.44612
 20
-191.028
 11
-4.22697
 21
-190.908
  0
LINE
  8
0
 10
-4.22697
 20
-190.908
 11
-3.99303
 21
-190.821
  0
LINE
  8
0
 10
-3.99303
 20
-190.821
 11
-3.74904
 21
-190.768
  0
LINE
  8
0
 10
-3.74904
 20
-190.768
 11
-3.5
 21
-190.75
  0
LINE
  8
0
 10
-3.5
 20
-190.75
 11
78.1667
 21
-190.75
  0
LINE
  8
0
 10
78.1667
 20
-190.75
 11
78.4157
 21
-190.768
  0
LINE
  8
0
 10
78.4157
 20
-190.768
 11
78.6597
 21
-190.821
  0
LINE
  8
0
 10
78.6597
 20
-190.821
 11
78.8936
 21
-190.908
  0
LINE
  8
0
 10
78.8936
 20
-190.908
 11
79.1128
 21
-191.028
  0
LINE
  8
0
 10
79.1128
 20
-191.028
 11
79.3127
 21
-191.177
  0
LINE
  8
0
 10
79.3127
 20
-191.177
 11
79.4892
 21
-191.354
  0
LINE
  8
0
 10
79.4892
 20
-191.354
 11
79.6389
 21
-191.554
  0
LINE
  8
0
 10
79.6389
 20
-191.554
 11
79.7585
 21
-191.773
  0
LINE
  8
0
 10
79.7585
 20
-191.773
 11
79.8458
 21
-192.007
  0
LINE
  8
0
 10
79.8458
 20
-192.007
 11
79.8988
 21
-192.251
  0
LINE
  8
0
 10
79.8988
 20
-192.251
 11
79.9167
 21
-192.5
  0
LINE
  8
0
 10
79.9167
 20
-192.5
 11
79.8988
 21
-192.749
  0
LINE
  8
0
 10
79.8988
 20
-192.749
 11
79.8458
 21
-192.993
  0
LINE
  8
0
 10
79.8458
 20
-192.993
 11
79.7585
 21
-193.227
  0
LINE
  8
0
 10
79.7585
 20
-193.227
 11
79.6389
 21
-193.446
  0
LINE
  8
0
 10
79.6389
 20
-193.446
 11
79.4892
 21
-193.646
  0
LINE
  8
0
 10
79.4892
 20
-193.646
 11
79.3127
 21
-193.823
  0
LINE
  8
0
 10
79.3127
 20
-193.823
 11
79.1128
 21
-193.972
  0
LINE
  8
0
 10
79.1128
 20
-193.972
 11
78.8936
 21
-194.092
  0
LINE
  8
0
 10
78.8936
 20
-194.092
 11
78.6597
 21
-194.179
  0
LINE
  8
0
 10
78.6597
 20
-194.179
 11
78.4157
 21
-194.232
  0
LINE
  8
0
 10
78.4157
 20
-194.232
 11
78.1667
 21
-194.25
  0
LINE
  8
0
 10
78.1667
 20
-194.25
 11
-3.5
 21
-194.25
  0
LINE
  8
0
 10
197.191
 20
-194.172
 11
196.951
 21
-194.109
  0
LINE
  8
0
 10
196.951
 20
-194.109
 11
196.723
 21
-194.012
  0
LINE
  8
0
 10
196.723
 20
-194.012
 11
196.511
 21
-193.883
  0
LINE
  8
0
 10
196.511
 20
-193.883
 11
196.32
 21
-193.724
  0
LINE
  8
0
 10
196.32
 20
-193.724
 11
196.154
 21
-193.539
  0
LINE
  8
0
 10
196.154
 20
-193.539
 11
196.018
 21
-193.332
  0
LINE
  8
0
 10
196.018
 20
-193.332
 11
195.912
 21
-193.107
  0
LINE
  8
0
 10
195.912
 20
-193.107
 11
195.841
 21
-192.87
  0
LINE
  8
0
 10
195.841
 20
-192.87
 11
195.805
 21
-192.624
  0
LINE
  8
0
 10
195.805
 20
-192.624
 11
195.805
 21
-192.376
  0
LINE
  8
0
 10
195.805
 20
-192.376
 11
195.841
 21
-192.13
  0
LINE
  8
0
 10
195.841
 20
-192.13
 11
195.912
 21
-191.893
  0
LINE
  8
0
 10
195.912
 20
-191.893
 11
196.018
 21
-191.668
  0
LINE
  8
0
 10
196.018
 20
-191.668
 11
196.154
 21
-191.461
  0
LINE
  8
0
 10
196.154
 20
-191.461
 11
196.32
 21
-191.276
  0
LINE
  8
0
 10
196.32
 20
-191.276
 11
196.511
 21
-191.117
  0
LINE
  8
0
 10
196.511
 20
-191.117
 11
196.723
 21
-190.988
  0
LINE
  8
0
 10
196.723
 20
-190.988
 11
196.951
 21
-190.891
  0
LINE
  8
0
 10
196.951
 20
-190.891
 11
197.191
 21
-190.828
  0
LINE
  8
0
 10
197.191
 20
-190.828
 11
197.438
 21
-190.801
  0
LINE
  8
0
 10
197.438
 20
-190.801
 11
197.686
 21
-190.81
  0
LINE
  8
0
 10
197.686
 20
-190.81
 11
197.93
 21
-190.855
  0
LINE
  8
0
 10
197.93
 20
-190.855
 11
198.165
 21
-190.935
  0
LINE
  8
0
 10
198.165
 20
-190.935
 11
198.386
 21
-191.049
  0
LINE
  8
0
 10
198.386
 20
-191.049
 11
198.587
 21
-191.193
  0
LINE
  8
0
 10
198.587
 20
-191.193
 11
198.766
 21
-191.366
  0
LINE
  8
0
 10
198.766
 20
-191.366
 11
198.918
 21
-191.562
  0
LINE
  8
0
 10
198.918
 20
-191.562
 11
199.039
 21
-191.778
  0
LINE
  8
0
 10
199.039
 20
-191.778
 11
199.128
 21
-192.01
  0
LINE
  8
0
 10
199.128
 20
-192.01
 11
199.182
 21
-192.252
  0
LINE
  8
0
 10
199.182
 20
-192.252
 11
199.2
 21
-192.5
  0
LINE
  8
0
 10
199.2
 20
-192.5
 11
199.182
 21
-192.748
  0
LINE
  8
0
 10
199.182
 20
-192.748
 11
199.128
 21
-192.99
  0
LINE
  8
0
 10
199.128
 20
-192.99
 11
199.039
 21
-193.222
  0
LINE
  8
0
 10
199.039
 20
-193.222
 11
198.918
 21
-193.438
  0
LINE
  8
0
 10
198.918
 20
-193.438
 11
198.766
 21
-193.634
  0
LINE
  8
0
 10
198.766
 20
-193.634
 11
198.587
 21
-193.807
  0
LINE
  8
0
 10
198.587
 20
-193.807
 11
198.386
 21
-193.951
  0
LINE
  8
0
 10
198.386
 20
-193.951
 11
198.165
 21
-194.065
  0
LINE
  8
0
 10
198.165
 20
-194.065
 11
197.93
 21
-194.145
  0
LINE
  8
0
 10
197.93
 20
-194.145
 11
197.686
 21
-194.19
  0
LINE
  8
0
 10
197.686
 20
-194.19
 11
197.438
 21
-194.199
  0
LINE
  8
0
 10
197.438
 20
-194.199
 11
197.191
 21
-194.172
  0
LINE
  8
0
 10
233.377
 20
-195.145
 11
233.133
 21
-195.109
  0
LINE
  8
0
 10
233.133
 20
-195.109
 11
232.897
 21
-195.036
  0
LINE
  8
0
 10
232.897
 20
-195.036
 11
232.675
 21
-194.929
  0
LINE
  8
0
 10
232.675
 20
-194.929
 11
232.471
 21
-194.79
  0
LINE
  8
0
 10
232.471
 20
-194.79
 11
232.29
 21
-194.622
  0
LINE
  8
0
 10
232.29
 20
-194.622
 11
232.137
 21
-194.429
  0
LINE
  8
0
 10
232.137
 20
-194.429
 11
232.013
 21
-194.216
  0
LINE
  8
0
 10
232.013
 20
-194.216
 11
231.923
 21
-193.986
  0
LINE
  8
0
 10
231.923
 20
-193.986
 11
231.868
 21
-193.746
  0
LINE
  8
0
 10
231.868
 20
-193.746
 11
231.85
 21
-193.5
  0
LINE
  8
0
 10
231.85
 20
-193.5
 11
231.868
 21
-193.254
  0
LINE
  8
0
 10
231.868
 20
-193.254
 11
231.923
 21
-193.014
  0
LINE
  8
0
 10
231.923
 20
-193.014
 11
232.013
 21
-192.784
  0
LINE
  8
0
 10
232.013
 20
-192.784
 11
232.137
 21
-192.571
  0
LINE
  8
0
 10
232.137
 20
-192.571
 11
232.29
 21
-192.378
  0
LINE
  8
0
 10
232.29
 20
-192.378
 11
232.471
 21
-192.21
  0
LINE
  8
0
 10
232.471
 20
-192.21
 11
232.675
 21
-192.071
  0
LINE
  8
0
 10
232.675
 20
-192.071
 11
232.897
 21
-191.964
  0
LINE
  8
0
 10
232.897
 20
-191.964
 11
233.133
 21
-191.891
  0
LINE
  8
0
 10
233.133
 20
-191.891
 11
233.377
 21
-191.855
  0
LINE
  8
0
 10
233.377
 20
-191.855
 11
241.623
 21
-191.855
  0
LINE
  8
0
 10
241.623
 20
-191.855
 11
241.867
 21
-191.891
  0
LINE
  8
0
 10
241.867
 20
-191.891
 11
242.103
 21
-191.964
  0
LINE
  8
0
 10
242.103
 20
-191.964
 11
242.325
 21
-192.071
  0
LINE
  8
0
 10
242.325
 20
-192.071
 11
242.529
 21
-192.21
  0
LINE
  8
0
 10
242.529
 20
-192.21
 11
242.71
 21
-192.378
  0
LINE
  8
0
 10
242.71
 20
-192.378
 11
242.863
 21
-192.571
  0
LINE
  8
0
 10
242.863
 20
-192.571
 11
242.987
 21
-192.784
  0
LINE
  8
0
 10
242.987
 20
-192.784
 11
243.077
 21
-193.014
  0
LINE
  8
0
 10
243.077
 20
-193.014
 11
243.132
 21
-193.254
  0
LINE
  8
0
 10
243.132
 20
-193.254
 11
243.15
 21
-193.5
  0
LINE
  8
0
 10
243.15
 20
-193.5
 11
243.132
 21
-193.746
  0
LINE
  8
0
 10
243.132
 20
-193.746
 11
243.077
 21
-193.986
  0
LINE
  8
0
 10
243.077
 20
-193.986
 11
242.987
 21
-194.216
  0
LINE
  8
0
 10
242.987
 20
-194.216
 11
242.863
 21
-194.429
  0
LINE
  8
0
 10
242.863
 20
-194.429
 11
242.71
 21
-194.622
  0
LINE
  8
0
 10
242.71
 20
-194.622
 11
242.529
 21
-194.79
  0
LINE
  8
0
 10
242.529
 20
-194.79
 11
242.325
 21
-194.929
  0
LINE
  8
0
 10
242.325
 20
-194.929
 11
242.103
 21
-195.036
  0
LINE
  8
0
 10
242.103
 20
-195.036
 11
241.867
 21
-195.109
  0
LINE
  8
0
 10
241.867
 20
-195.109
 11
241.623
 21
-195.145
  0
LINE
  8
0
 10
241.623
 20
-195.145
 11
233.377
 21
-195.145
  0
LINE
  8
0
 10
264.377
 20
-195.145
 11
264.133
 21
-195.109
  0
LINE
  8
0
 10
264.133
 20
-195.109
 11
263.897
 21
-195.036
  0
LINE
  8
0
 10
263.897
 20
-195.036
 11
263.675
 21
-194.929
  0
LINE
  8
0
 10
263.675
 20
-194.929
 11
263.471
 21
-194.79
  0
LINE
  8
0
 10
263.471
 20
-194.79
 11
263.29
 21
-194.622
  0
LINE
  8
0
 10
263.29
 20
-194.622
 11
263.137
 21
-194.429
  0
LINE
  8
0
 10
263.137
 20
-194.429
 11
263.013
 21
-194.216
  0
LINE
  8
0
 10
263.013
 20
-194.216
 11
262.923
 21
-193.986
  0
LINE
  8
0
 10
262.923
 20
-193.986
 11
262.868
 21
-193.746
  0
LINE
  8
0
 10
262.868
 20
-193.746
 11
262.85
 21
-193.5
  0
LINE
  8
0
 10
262.85
 20
-193.5
 11
262.868
 21
-193.254
  0
LINE
  8
0
 10
262.868
 20
-193.254
 11
262.923
 21
-193.014
  0
LINE
  8
0
 10
262.923
 20
-193.014
 11
263.013
 21
-192.784
  0
LINE
  8
0
 10
263.013
 20
-192.784
 11
263.137
 21
-192.571
  0
LINE
  8
0
 10
263.137
 20
-192.571
 11
263.29
 21
-192.378
  0
LINE
  8
0
 10
263.29
 20
-192.378
 11
263.471
 21
-192.21
  0
LINE
  8
0
 10
263.471
 20
-192.21
 11
263.675
 21
-192.071
  0
LINE
  8
0
 10
263.675
 20
-192.071
 11
263.897
 21
-191.964
  0
LINE
  8
0
 10
263.897
 20
-191.964
 11
264.133
 21
-191.891
  0
LINE
  8
0
 10
264.133
 20
-191.891
 11
264.377
 21
-191.855
  0
LINE
  8
0
 10
264.377
 20
-191.855
 11
272.623
 21
-191.855
  0
LINE
  8
0
 10
272.623
 20
-191.855
 11
272.867
 21
-191.891
  0
LINE
  8
0
 10
272.867
 20
-191.891
 11
273.103
 21
-191.964
  0
LINE
  8
0
 10
273.103
 20
-191.964
 11
273.325
 21
-192.071
  0
LINE
  8
0
 10
273.325
 20
-192.071
 11
273.529
 21
-192.21
  0
LINE
  8
0
 10
273.529
 20
-192.21
 11
273.71
 21
-192.378
  0
LINE
  8
0
 10
273.71
 20
-192.378
 11
273.863
 21
-192.571
  0
LINE
  8
0
 10
273.863
 20
-192.571
 11
273.987
 21
-192.784
  0
LINE
  8
0
 10
273.987
 20
-192.784
 11
274.077
 21
-193.014
  0
LINE
  8
0
 10
274.077
 20
-193.014
 11
274.132
 21
-193.254
  0
LINE
  8
0
 10
274.132
 20
-193.254
 11
274.15
 21
-193.5
  0
LINE
  8
0
 10
274.15
 20
-193.5
 11
274.132
 21
-193.746
  0
LINE
  8
0
 10
274.132
 20
-193.746
 11
274.077
 21
-193.986
  0
LINE
  8
0
 10
274.077
 20
-193.986
 11
273.987
 21
-194.216
  0
LINE
  8
0
 10
273.987
 20
-194.216
 11
273.863
 21
-194.429
  0
LINE
  8
0
 10
273.863
 20
-194.429
 11
273.71
 21
-194.622
  0
LINE
  8
0
 10
273.71
 20
-194.622
 11
273.529
 21
-194.79
  0
LINE
  8
0
 10
273.529
 20
-194.79
 11
273.325
 21
-194.929
  0
LINE
  8
0
 10
273.325
 20
-194.929
 11
273.103
 21
-195.036
  0
LINE
  8
0
 10
273.103
 20
-195.036
 11
272.867
 21
-195.109
  0
LINE
  8
0
 10
272.867
 20
-195.109
 11
272.623
 21
-195.145
  0
LINE
  8
0
 10
272.623
 20
-195.145
 11
264.377
 21
-195.145
  0
LINE
  8
0
 10
282.191
 20
-201.672
 11
281.951
 21
-201.609
  0
LINE
  8
0
 10
281.951
 20
-201.609
 11
281.723
 21
-201.512
  0
LINE
  8
0
 10
281.723
 20
-201.512
 11
281.511
 21
-201.383
  0
LINE
  8
0
 10
281.511
 20
-201.383
 11
281.32
 21
-201.224
  0
LINE
  8
0
 10
281.32
 20
-201.224
 11
281.154
 21
-201.039
  0
LINE
  8
0
 10
281.154
 20
-201.039
 11
281.018
 21
-200.832
  0
LINE
  8
0
 10
281.018
 20
-200.832
 11
280.912
 21
-200.607
  0
LINE
  8
0
 10
280.912
 20
-200.607
 11
280.841
 21
-200.37
  0
LINE
  8
0
 10
280.841
 20
-200.37
 11
280.805
 21
-200.124
  0
LINE
  8
0
 10
280.805
 20
-200.124
 11
280.805
 21
-199.876
  0
LINE
  8
0
 10
280.805
 20
-199.876
 11
280.841
 21
-199.63
  0
LINE
  8
0
 10
280.841
 20
-199.63
 11
280.912
 21
-199.393
  0
LINE
  8
0
 10
280.912
 20
-199.393
 11
281.018
 21
-199.168
  0
LINE
  8
0
 10
281.018
 20
-199.168
 11
281.154
 21
-198.961
  0
LINE
  8
0
 10
281.154
 20
-198.961
 11
281.32
 21
-198.776
  0
LINE
  8
0
 10
281.32
 20
-198.776
 11
281.511
 21
-198.617
  0
LINE
  8
0
 10
281.511
 20
-198.617
 11
281.723
 21
-198.488
  0
LINE
  8
0
 10
281.723
 20
-198.488
 11
281.951
 21
-198.391
  0
LINE
  8
0
 10
281.951
 20
-198.391
 11
282.191
 21
-198.328
  0
LINE
  8
0
 10
282.191
 20
-198.328
 11
282.438
 21
-198.301
  0
LINE
  8
0
 10
282.438
 20
-198.301
 11
282.686
 21
-198.31
  0
LINE
  8
0
 10
282.686
 20
-198.31
 11
282.93
 21
-198.355
  0
LINE
  8
0
 10
282.93
 20
-198.355
 11
283.165
 21
-198.435
  0
LINE
  8
0
 10
283.165
 20
-198.435
 11
283.386
 21
-198.549
  0
LINE
  8
0
 10
283.386
 20
-198.549
 11
283.587
 21
-198.693
  0
LINE
  8
0
 10
283.587
 20
-198.693
 11
283.766
 21
-198.866
  0
LINE
  8
0
 10
283.766
 20
-198.866
 11
283.918
 21
-199.062
  0
LINE
  8
0
 10
283.918
 20
-199.062
 11
284.039
 21
-199.278
  0
LINE
  8
0
 10
284.039
 20
-199.278
 11
284.128
 21
-199.51
  0
LINE
  8
0
 10
284.128
 20
-199.51
 11
284.182
 21
-199.752
  0
LINE
  8
0
 10
284.182
 20
-199.752
 11
284.2
 21
-200
  0
LINE
  8
0
 10
284.2
 20
-200
 11
284.182
 21
-200.248
  0
LINE
  8
0
 10
284.182
 20
-200.248
 11
284.128
 21
-200.49
  0
LINE
  8
0
 10
284.128
 20
-200.49
 11
284.039
 21
-200.722
  0
LINE
  8
0
 10
284.039
 20
-200.722
 11
283.918
 21
-200.938
  0
LINE
  8
0
 10
283.918
 20
-200.938
 11
283.766
 21
-201.134
  0
LINE
  8
0
 10
283.766
 20
-201.134
 11
283.587
 21
-201.307
  0
LINE
  8
0
 10
283.587
 20
-201.307
 11
283.386
 21
-201.451
  0
LINE
  8
0
 10
283.386
 20
-201.451
 11
283.165
 21
-201.565
  0
LINE
  8
0
 10
283.165
 20
-201.565
 11
282.93
 21
-201.645
  0
LINE
  8
0
 10
282.93
 20
-201.645
 11
282.686
 21
-201.69
  0
LINE
  8
0
 10
282.686
 20
-201.69
 11
282.438
 21
-201.699
  0
LINE
  8
0
 10
282.438
 20
-201.699
 11
282.191
 21
-201.672
  0
LINE
  8
0
 10
79.7585
 20
193.227
 11
79.8458
 21
192.993
  0
LINE
  8
0
 10
79.8458
 20
192.993
 11
79.8988
 21
192.749
  0
LINE
  8
0
 10
79.8988
 20
192.749
 11
79.9167
 21
192.5
  0
LINE
  8
0
 10
79.9167
 20
192.5
 11
79.8988
 21
192.251
  0
LINE
  8
0
 10
79.8988
 20
192.251
 11
79.8458
 21
192.007
  0
LINE
  8
0
 10
79.8458
 20
192.007
 11
79.7585
 21
191.773
  0
LINE
  8
0
 10
79.7585
 20
191.773
 11
79.6389
 21
191.554
  0
LINE
  8
0
 10
79.6389
 20
191.554
 11
79.4892
 21
191.354
  0
LINE
  8
0
 10
79.4892
 20
191.354
 11
79.3127
 21
191.177
  0
LINE
  8
0
 10
79.3127
 20
191.177
 11
79.1128
 21
191.028
  0
LINE
  8
0
 10
79.1128
 20
191.028
 11
78.8936
 21
190.908
  0
LINE
  8
0
 10
78.8936
 20
190.908
 11
78.6597
 21
190.821
  0
LINE
  8
0
 10
78.6597
 20
190.821
 11
78.4157
 21
190.768
  0
LINE
  8
0
 10
78.4157
 20
190.768
 11
78.1667
 21
190.75
  0
LINE
  8
0
 10
78.1667
 20
190.75
 11
-3.5
 21
190.75
  0
LINE
  8
0
 10
-3.5
 20
190.75
 11
-3.74904
 21
190.768
  0
LINE
  8
0
 10
-3.74904
 20
190.768
 11
-3.99303
 21
190.821
  0
LINE
  8
0
 10
-3.99303
 20
190.821
 11
-4.22697
 21
190.908
  0
LINE
  8
0
 10
-4.22697
 20
190.908
 11
-4.44612
 21
191.028
  0
LINE
  8
0
 10
-4.44612
 20
191.028
 11
-4.646
 21
191.177
  0
LINE
  8
0
 10
-4.646
 20
191.177
 11
-4.82256
 21
191.354
  0
LINE
  8
0
 10
-4.82256
 20
191.354
 11
-4.97218
 21
191.554
  0
LINE
  8
0
 10
-4.97218
 20
191.554
 11
-5.09184
 21
191.773
  0
LINE
  8
0
 10
-5.09184
 20
191.773
 11
-5.17911
 21
192.007
  0
LINE
  8
0
 10
-5.17911
 20
192.007
 11
-5.23218
 21
192.251
  0
LINE
  8
0
 10
-5.23218
 20
192.251
 11
-5.25
 21
192.5
  0
LINE
  8
0
 10
-5.25
 20
192.5
 11
-5.23218
 21
192.749
  0
LINE
  8
0
 10
-5.23218
 20
192.749
 11
-5.17911
 21
192.993
  0
LINE
  8
0
 10
-5.17911
 20
192.993
 11
-5.09184
 21
193.227
  0
LINE
  8
0
 10
-5.09184
 20
193.227
 11
-4.97218
 21
193.446
  0
LINE
  8
0
 10
-4.97218
 20
193.446
 11
-4.82256
 21
193.646
  0
LINE
  8
0
 10
-4.82256
 20
193.646
 11
-4.646
 21
193.823
  0
LINE
  8
0
 10
-4.646
 20
193.823
 11
-4.44612
 21
193.972
  0
LINE
  8
0
 10
-4.44612
 20
193.972
 11
-4.22697
 21
194.092
  0
LINE
  8
0
 10
-4.22697
 20
194.092
 11
-3.99303
 21
194.179
  0
LINE
  8
0
 10
-3.99303
 20
194.179
 11
-3.74904
 21
194.232
  0
LINE
  8
0
 10
-3.74904
 20
194.232
 11
-3.5
 21
194.25
  0
LINE
  8
0
 10
-3.5
 20
194.25
 11
78.1667
 21
194.25
  0
LINE
  8
0
 10
78.1667
 20
194.25
 11
78.4157
 21
194.232
  0
LINE
  8
0
 10
78.4157
 20
194.232
 11
78.6597
 21
194.179
  0
LINE
  8
0
 10
78.6597
 20
194.179
 11
78.8936
 21
194.092
  0
LINE
  8
0
 10
78.8936
 20
194.092
 11
79.1128
 21
193.972
  0
LINE
  8
0
 10
79.1128
 20
193.972
 11
79.3127
 21
193.823
  0
LINE
  8
0
 10
79.3127
 20
193.823
 11
79.4892
 21
193.646
  0
LINE
  8
0
 10
79.4892
 20
193.646
 11
79.6389
 21
193.446
  0
LINE
  8
0
 10
79.6389
 20
193.446
 11
79.7585
 21
193.227
  0
LINE
  8
0
 10
-106.361
 20
193.446
 11
-106.241
 21
193.227
  0
LINE
  8
0
 10
-106.241
 20
193.227
 11
-106.154
 21
192.993
  0
LINE
  8
0
 10
-106.154
 20
192.993
 11
-106.101
 21
192.749
  0
LINE
  8
0
 10
-106.101
 20
192.749
 11
-106.083
 21
192.5
  0
LINE
  8
0
 10
-106.083
 20
192.5
 11
-106.101
 21
192.251
  0
LINE
  8
0
 10
-106.101
 20
192.251
 11
-106.154
 21
192.007
  0
LINE
  8
0
 10
-106.154
 20
192.007
 11
-106.241
 21
191.773
  0
LINE
  8
0
 10
-106.241
 20
191.773
 11
-106.361
 21
191.554
  0
LINE
  8
0
 10
-106.361
 20
191.554
 11
-106.511
 21
191.354
  0
LINE
  8
0
 10
-106.511
 20
191.354
 11
-106.687
 21
191.177
  0
LINE
  8
0
 10
-106.687
 20
191.177
 11
-106.887
 21
191.028
  0
LINE
  8
0
 10
-106.887
 20
191.028
 11
-107.106
 21
190.908
  0
LINE
  8
0
 10
-107.106
 20
190.908
 11
-107.34
 21
190.821
  0
LINE
  8
0
 10
-107.34
 20
190.821
 11
-107.584
 21
190.768
  0
LINE
  8
0
 10
-107.584
 20
190.768
 11
-107.833
 21
190.75
  0
LINE
  8
0
 10
-107.833
 20
190.75
 11
-189.5
 21
190.75
  0
LINE
  8
0
 10
-189.5
 20
190.75
 11
-189.749
 21
190.768
  0
LINE
  8
0
 10
-189.749
 20
190.768
 11
-189.993
 21
190.821
  0
LINE
  8
0
 10
-189.993
 20
190.821
 11
-190.227
 21
190.908
  0
LINE
  8
0
 10
-190.227
 20
190.908
 11
-190.446
 21
191.028
  0
LINE
  8
0
 10
-190.446
 20
191.028
 11
-190.646
 21
191.177
  0
LINE
  8
0
 10
-190.646
 20
191.177
 11
-190.823
 21
191.354
  0
LINE
  8
0
 10
-190.823
 20
191.354
 11
-190.972
 21
191.554
  0
LINE
  8
0
 10
-190.972
 20
191.554
 11
-191.092
 21
191.773
  0
LINE
  8
0
 10
-191.092
 20
191.773
 11
-191.179
 21
192.007
  0
LINE
  8
0
 10
-191.179
 20
192.007
 11
-191.232
 21
192.251
  0
LINE
  8
0
 10
-191.232
 20
192.251
 11
-191.25
 21
192.5
  0
LINE
  8
0
 10
-191.25
 20
192.5
 11
-191.232
 21
192.749
  0
LINE
  8
0
 10
-191.232
 20
192.749
 11
-191.179
 21
192.993
  0
LINE
  8
0
 10
-191.179
 20
192.993
 11
-191.092
 21
193.227
  0
LINE
  8
0
 10
-191.092
 20
193.227
 11
-190.972
 21
193.446
  0
LINE
  8
0
 10
-190.972
 20
193.446
 11
-190.823
 21
193.646
  0
LINE
  8
0
 10
-190.823
 20
193.646
 11
-190.646
 21
193.823
  0
LINE
  8
0
 10
-190.646
 20
193.823
 11
-190.446
 21
193.972
  0
LINE
  8
0
 10
-190.446
 20
193.972
 11
-190.227
 21
194.092
  0
LINE
  8
0
 10
-190.227
 20
194.092
 11
-189.993
 21
194.179
  0
LINE
  8
0
 10
-189.993
 20
194.179
 11
-189.749
 21
194.232
  0
LINE
  8
0
 10
-189.749
 20
194.232
 11
-189.5
 21
194.25
  0
LINE
  8
0
 10
-189.5
 20
194.25
 11
-107.833
 21
194.25
  0
LINE
  8
0
 10
-107.833
 20
194.25
 11
-107.584
 21
194.232
  0
LINE
  8
0
 10
-107.584
 20
194.232
 11
-107.34
 21
194.179
  0
LINE
  8
0
 10
-107.34
 20
194.179
 11
-107.106
 21
194.092
  0
LINE
  8
0
 10
-107.106
 20
194.092
 11
-106.887
 21
193.972
  0
LINE
  8
0
 10
-106.887
 20
193.972
 11
-106.687
 21
193.823
  0
LINE
  8
0
 10
-106.687
 20
193.823
 11
-106.511
 21
193.646
  0
LINE
  8
0
 10
-106.511
 20
193.646
 11
-106.361
 21
193.446
  0
ENDSEC
  0
SECTION
  2
OBJECTS
  0
DICTIONARY
  0
ENDSEC
  0
EOF
