  0
SECTION
  2
BLOCKS
  0
ENDSEC
  0
SECTION
  2
ENTITIES
  0
LINE
  8
0
 10
285.398
 20
-103.548
 11
285.915
 21
-103.466
  0
LINE
  8
0
 10
285.915
 20
-103.466
 11
286.42
 21
-103.33
  0
LINE
  8
0
 10
286.42
 20
-103.33
 11
286.909
 21
-103.143
  0
LINE
  8
0
 10
286.909
 20
-103.143
 11
287.375
 21
-102.905
  0
LINE
  8
0
 10
287.375
 20
-102.905
 11
287.814
 21
-102.62
  0
LINE
  8
0
 10
287.814
 20
-102.62
 11
288.221
 21
-102.291
  0
LINE
  8
0
 10
288.221
 20
-102.291
 11
288.591
 21
-101.921
  0
LINE
  8
0
 10
288.591
 20
-101.921
 11
288.92
 21
-101.514
  0
LINE
  8
0
 10
288.92
 20
-101.514
 11
289.205
 21
-101.075
  0
LINE
  8
0
 10
289.205
 20
-101.075
 11
289.443
 21
-100.609
  0
LINE
  8
0
 10
289.443
 20
-100.609
 11
289.63
 21
-100.12
  0
LINE
  8
0
 10
289.63
 20
-100.12
 11
289.766
 21
-99.6146
  0
LINE
  8
0
 10
289.766
 20
-99.6146
 11
289.848
 21
-99.0976
  0
LINE
  8
0
 10
289.848
 20
-99.0976
 11
289.875
 21
-98.575
  0
LINE
  8
0
 10
289.875
 20
-98.575
 11
289.875
 21
98.575
  0
LINE
  8
0
 10
289.875
 20
98.575
 11
289.848
 21
99.0976
  0
LINE
  8
0
 10
289.848
 20
99.0976
 11
289.766
 21
99.6146
  0
LINE
  8
0
 10
289.766
 20
99.6146
 11
289.63
 21
100.12
  0
LINE
  8
0
 10
289.63
 20
100.12
 11
289.443
 21
100.609
  0
LINE
  8
0
 10
289.443
 20
100.609
 11
289.205
 21
101.075
  0
LINE
  8
0
 10
289.205
 20
101.075
 11
288.92
 21
101.514
  0
LINE
  8
0
 10
288.92
 20
101.514
 11
288.591
 21
101.921
  0
LINE
  8
0
 10
288.591
 20
101.921
 11
288.221
 21
102.291
  0
LINE
  8
0
 10
288.221
 20
102.291
 11
287.814
 21
102.62
  0
LINE
  8
0
 10
287.814
 20
102.62
 11
287.375
 21
102.905
  0
LINE
  8
0
 10
287.375
 20
102.905
 11
286.909
 21
103.143
  0
LINE
  8
0
 10
286.909
 20
103.143
 11
286.42
 21
103.33
  0
LINE
  8
0
 10
286.42
 20
103.33
 11
285.915
 21
103.466
  0
LINE
  8
0
 10
285.915
 20
103.466
 11
285.398
 21
103.548
  0
LINE
  8
0
 10
285.398
 20
103.548
 11
284.875
 21
103.575
  0
LINE
  8
0
 10
284.875
 20
103.575
 11
-284.875
 21
103.575
  0
LINE
  8
0
 10
-284.875
 20
103.575
 11
-285.398
 21
103.548
  0
LINE
  8
0
 10
-285.398
 20
103.548
 11
-285.915
 21
103.466
  0
LINE
  8
0
 10
-285.915
 20
103.466
 11
-286.42
 21
103.33
  0
LINE
  8
0
 10
-286.42
 20
103.33
 11
-286.909
 21
103.143
  0
LINE
  8
0
 10
-286.909
 20
103.143
 11
-287.375
 21
102.905
  0
LINE
  8
0
 10
-287.375
 20
102.905
 11
-287.814
 21
102.62
  0
LINE
  8
0
 10
-287.814
 20
102.62
 11
-288.221
 21
102.291
  0
LINE
  8
0
 10
-288.221
 20
102.291
 11
-288.591
 21
101.921
  0
LINE
  8
0
 10
-288.591
 20
101.921
 11
-288.92
 21
101.514
  0
LINE
  8
0
 10
-288.92
 20
101.514
 11
-289.205
 21
101.075
  0
LINE
  8
0
 10
-289.205
 20
101.075
 11
-289.443
 21
100.609
  0
LINE
  8
0
 10
-289.443
 20
100.609
 11
-289.63
 21
100.12
  0
LINE
  8
0
 10
-289.63
 20
100.12
 11
-289.766
 21
99.6146
  0
LINE
  8
0
 10
-289.766
 20
99.6146
 11
-289.848
 21
99.0976
  0
LINE
  8
0
 10
-289.848
 20
99.0976
 11
-289.875
 21
98.575
  0
LINE
  8
0
 10
-289.875
 20
98.575
 11
-289.875
 21
-98.575
  0
LINE
  8
0
 10
-289.875
 20
-98.575
 11
-289.848
 21
-99.0976
  0
LINE
  8
0
 10
-289.848
 20
-99.0976
 11
-289.766
 21
-99.6146
  0
LINE
  8
0
 10
-289.766
 20
-99.6146
 11
-289.63
 21
-100.12
  0
LINE
  8
0
 10
-289.63
 20
-100.12
 11
-289.443
 21
-100.609
  0
LINE
  8
0
 10
-289.443
 20
-100.609
 11
-289.205
 21
-101.075
  0
LINE
  8
0
 10
-289.205
 20
-101.075
 11
-288.92
 21
-101.514
  0
LINE
  8
0
 10
-288.92
 20
-101.514
 11
-288.591
 21
-101.921
  0
LINE
  8
0
 10
-288.591
 20
-101.921
 11
-288.221
 21
-102.291
  0
LINE
  8
0
 10
-288.221
 20
-102.291
 11
-287.814
 21
-102.62
  0
LINE
  8
0
 10
-287.814
 20
-102.62
 11
-287.375
 21
-102.905
  0
LINE
  8
0
 10
-287.375
 20
-102.905
 11
-286.909
 21
-103.143
  0
LINE
  8
0
 10
-286.909
 20
-103.143
 11
-286.42
 21
-103.33
  0
LINE
  8
0
 10
-286.42
 20
-103.33
 11
-285.915
 21
-103.466
  0
LINE
  8
0
 10
-285.915
 20
-103.466
 11
-285.398
 21
-103.548
  0
LINE
  8
0
 10
-285.398
 20
-103.548
 11
-284.875
 21
-103.575
  0
LINE
  8
0
 10
-284.875
 20
-103.575
 11
284.875
 21
-103.575
  0
LINE
  8
0
 10
284.875
 20
-103.575
 11
285.398
 21
-103.548
  0
LINE
  8
0
 10
-261.577
 20
96.6863
 11
-261.487
 21
96.9159
  0
LINE
  8
0
 10
-261.487
 20
96.9159
 11
-261.363
 21
97.1295
  0
LINE
  8
0
 10
-261.363
 20
97.1295
 11
-261.21
 21
97.3223
  0
LINE
  8
0
 10
-261.21
 20
97.3223
 11
-261.029
 21
97.49
  0
LINE
  8
0
 10
-261.029
 20
97.49
 11
-260.825
 21
97.6289
  0
LINE
  8
0
 10
-260.825
 20
97.6289
 11
-260.603
 21
97.7359
  0
LINE
  8
0
 10
-260.603
 20
97.7359
 11
-260.367
 21
97.8086
  0
LINE
  8
0
 10
-260.367
 20
97.8086
 11
-260.123
 21
97.8454
  0
LINE
  8
0
 10
-260.123
 20
97.8454
 11
-219.877
 21
97.8454
  0
LINE
  8
0
 10
-219.877
 20
97.8454
 11
-219.633
 21
97.8086
  0
LINE
  8
0
 10
-219.633
 20
97.8086
 11
-219.397
 21
97.7359
  0
LINE
  8
0
 10
-219.397
 20
97.7359
 11
-219.175
 21
97.6289
  0
LINE
  8
0
 10
-219.175
 20
97.6289
 11
-218.971
 21
97.49
  0
LINE
  8
0
 10
-218.971
 20
97.49
 11
-218.79
 21
97.3223
  0
LINE
  8
0
 10
-218.79
 20
97.3223
 11
-218.637
 21
97.1295
  0
LINE
  8
0
 10
-218.637
 20
97.1295
 11
-218.513
 21
96.9159
  0
LINE
  8
0
 10
-218.513
 20
96.9159
 11
-218.423
 21
96.6863
  0
LINE
  8
0
 10
-218.423
 20
96.6863
 11
-218.368
 21
96.4459
  0
LINE
  8
0
 10
-218.368
 20
96.4459
 11
-218.35
 21
96.2
  0
LINE
  8
0
 10
-218.35
 20
96.2
 11
-218.368
 21
95.9541
  0
LINE
  8
0
 10
-218.368
 20
95.9541
 11
-218.423
 21
95.7137
  0
LINE
  8
0
 10
-218.423
 20
95.7137
 11
-218.513
 21
95.4841
  0
LINE
  8
0
 10
-218.513
 20
95.4841
 11
-218.637
 21
95.2705
  0
LINE
  8
0
 10
-218.637
 20
95.2705
 11
-218.79
 21
95.0777
  0
LINE
  8
0
 10
-218.79
 20
95.0777
 11
-218.971
 21
94.91
  0
LINE
  8
0
 10
-218.971
 20
94.91
 11
-219.175
 21
94.7711
  0
LINE
  8
0
 10
-219.175
 20
94.7711
 11
-219.397
 21
94.664
  0
LINE
  8
0
 10
-219.397
 20
94.664
 11
-219.633
 21
94.5914
  0
LINE
  8
0
 10
-219.633
 20
94.5914
 11
-219.877
 21
94.5546
  0
LINE
  8
0
 10
-219.877
 20
94.5546
 11
-260.123
 21
94.5546
  0
LINE
  8
0
 10
-260.123
 20
94.5546
 11
-260.367
 21
94.5914
  0
LINE
  8
0
 10
-260.367
 20
94.5914
 11
-260.603
 21
94.664
  0
LINE
  8
0
 10
-260.603
 20
94.664
 11
-260.825
 21
94.7711
  0
LINE
  8
0
 10
-260.825
 20
94.7711
 11
-261.029
 21
94.91
  0
LINE
  8
0
 10
-261.029
 20
94.91
 11
-261.21
 21
95.0777
  0
LINE
  8
0
 10
-261.21
 20
95.0777
 11
-261.363
 21
95.2705
  0
LINE
  8
0
 10
-261.363
 20
95.2705
 11
-261.487
 21
95.4841
  0
LINE
  8
0
 10
-261.487
 20
95.4841
 11
-261.577
 21
95.7137
  0
LINE
  8
0
 10
-261.577
 20
95.7137
 11
-261.632
 21
95.9541
  0
LINE
  8
0
 10
-261.632
 20
95.9541
 11
-261.65
 21
96.2
  0
LINE
  8
0
 10
-261.65
 20
96.2
 11
-261.632
 21
96.4459
  0
LINE
  8
0
 10
-261.632
 20
96.4459
 11
-261.577
 21
96.6863
  0
LINE
  8
0
 10
282.108
 20
92.4705
 11
281.72
 21
92.5319
  0
LINE
  8
0
 10
281.72
 20
92.5319
 11
281.341
 21
92.6335
  0
LINE
  8
0
 10
281.341
 20
92.6335
 11
280.975
 21
92.7742
  0
LINE
  8
0
 10
280.975
 20
92.7742
 11
280.625
 21
92.9524
  0
LINE
  8
0
 10
280.625
 20
92.9524
 11
280.296
 21
93.1662
  0
LINE
  8
0
 10
280.296
 20
93.1662
 11
279.991
 21
93.4132
  0
LINE
  8
0
 10
279.991
 20
93.4132
 11
279.713
 21
93.6908
  0
LINE
  8
0
 10
279.713
 20
93.6908
 11
279.466
 21
93.9958
  0
LINE
  8
0
 10
279.466
 20
93.9958
 11
279.252
 21
94.325
  0
LINE
  8
0
 10
279.252
 20
94.325
 11
279.074
 21
94.6747
  0
LINE
  8
0
 10
279.074
 20
94.6747
 11
278.934
 21
95.0412
  0
LINE
  8
0
 10
278.934
 20
95.0412
 11
278.832
 21
95.4203
  0
LINE
  8
0
 10
278.832
 20
95.4203
 11
278.771
 21
95.808
  0
LINE
  8
0
 10
278.771
 20
95.808
 11
278.75
 21
96.2
  0
LINE
  8
0
 10
278.75
 20
96.2
 11
278.771
 21
96.592
  0
LINE
  8
0
 10
278.771
 20
96.592
 11
278.832
 21
96.9797
  0
LINE
  8
0
 10
278.832
 20
96.9797
 11
278.934
 21
97.3588
  0
LINE
  8
0
 10
278.934
 20
97.3588
 11
279.074
 21
97.7253
  0
LINE
  8
0
 10
279.074
 20
97.7253
 11
279.252
 21
98.075
  0
LINE
  8
0
 10
279.252
 20
98.075
 11
279.466
 21
98.4042
  0
LINE
  8
0
 10
279.466
 20
98.4042
 11
279.713
 21
98.7092
  0
LINE
  8
0
 10
279.713
 20
98.7092
 11
279.991
 21
98.9868
  0
LINE
  8
0
 10
279.991
 20
98.9868
 11
280.296
 21
99.2338
  0
LINE
  8
0
 10
280.296
 20
99.2338
 11
280.625
 21
99.4476
  0
LINE
  8
0
 10
280.625
 20
99.4476
 11
280.975
 21
99.6258
  0
LINE
  8
0
 10
280.975
 20
99.6258
 11
281.341
 21
99.7665
  0
LINE
  8
0
 10
281.341
 20
99.7665
 11
281.72
 21
99.8681
  0
LINE
  8
0
 10
281.72
 20
99.8681
 11
282.108
 21
99.9295
  0
LINE
  8
0
 10
282.108
 20
99.9295
 11
282.5
 21
99.95
  0
LINE
  8
0
 10
282.5
 20
99.95
 11
282.892
 21
99.9295
  0
LINE
  8
0
 10
282.892
 20
99.9295
 11
283.28
 21
99.8681
  0
LINE
  8
0
 10
283.28
 20
99.8681
 11
283.659
 21
99.7665
  0
LINE
  8
0
 10
283.659
 20
99.7665
 11
284.025
 21
99.6258
  0
LINE
  8
0
 10
284.025
 20
99.6258
 11
284.375
 21
99.4476
  0
LINE
  8
0
 10
284.375
 20
99.4476
 11
284.704
 21
99.2338
  0
LINE
  8
0
 10
284.704
 20
99.2338
 11
285.009
 21
98.9868
  0
LINE
  8
0
 10
285.009
 20
98.9868
 11
285.287
 21
98.7092
  0
LINE
  8
0
 10
285.287
 20
98.7092
 11
285.534
 21
98.4042
  0
LINE
  8
0
 10
285.534
 20
98.4042
 11
285.748
 21
98.075
  0
LINE
  8
0
 10
285.748
 20
98.075
 11
285.926
 21
97.7253
  0
LINE
  8
0
 10
285.926
 20
97.7253
 11
286.066
 21
97.3588
  0
LINE
  8
0
 10
286.066
 20
97.3588
 11
286.168
 21
96.9797
  0
LINE
  8
0
 10
286.168
 20
96.9797
 11
286.229
 21
96.592
  0
LINE
  8
0
 10
286.229
 20
96.592
 11
286.25
 21
96.2
  0
LINE
  8
0
 10
286.25
 20
96.2
 11
286.229
 21
95.808
  0
LINE
  8
0
 10
286.229
 20
95.808
 11
286.168
 21
95.4203
  0
LINE
  8
0
 10
286.168
 20
95.4203
 11
286.066
 21
95.0412
  0
LINE
  8
0
 10
286.066
 20
95.0412
 11
285.926
 21
94.6747
  0
LINE
  8
0
 10
285.926
 20
94.6747
 11
285.748
 21
94.325
  0
LINE
  8
0
 10
285.748
 20
94.325
 11
285.534
 21
93.9958
  0
LINE
  8
0
 10
285.534
 20
93.9958
 11
285.287
 21
93.6908
  0
LINE
  8
0
 10
285.287
 20
93.6908
 11
285.009
 21
93.4132
  0
LINE
  8
0
 10
285.009
 20
93.4132
 11
284.704
 21
93.1662
  0
LINE
  8
0
 10
284.704
 20
93.1662
 11
284.375
 21
92.9524
  0
LINE
  8
0
 10
284.375
 20
92.9524
 11
284.025
 21
92.7742
  0
LINE
  8
0
 10
284.025
 20
92.7742
 11
283.659
 21
92.6335
  0
LINE
  8
0
 10
283.659
 20
92.6335
 11
283.28
 21
92.5319
  0
LINE
  8
0
 10
283.28
 20
92.5319
 11
282.892
 21
92.4705
  0
LINE
  8
0
 10
282.892
 20
92.4705
 11
282.5
 21
92.45
  0
LINE
  8
0
 10
282.5
 20
92.45
 11
282.108
 21
92.4705
  0
LINE
  8
0
 10
27.8767
 20
94.5546
 11
27.6328
 21
94.5914
  0
LINE
  8
0
 10
27.6328
 20
94.5914
 11
27.3972
 21
94.664
  0
LINE
  8
0
 10
27.3972
 20
94.664
 11
27.175
 21
94.7711
  0
LINE
  8
0
 10
27.175
 20
94.7711
 11
26.9712
 21
94.91
  0
LINE
  8
0
 10
26.9712
 20
94.91
 11
26.7905
 21
95.0777
  0
LINE
  8
0
 10
26.7905
 20
95.0777
 11
26.6367
 21
95.2705
  0
LINE
  8
0
 10
26.6367
 20
95.2705
 11
26.5134
 21
95.4841
  0
LINE
  8
0
 10
26.5134
 20
95.4841
 11
26.4233
 21
95.7137
  0
LINE
  8
0
 10
26.4233
 20
95.7137
 11
26.3684
 21
95.9541
  0
LINE
  8
0
 10
26.3684
 20
95.9541
 11
26.35
 21
96.2
  0
LINE
  8
0
 10
26.35
 20
96.2
 11
26.3684
 21
96.4459
  0
LINE
  8
0
 10
26.3684
 20
96.4459
 11
26.4233
 21
96.6863
  0
LINE
  8
0
 10
26.4233
 20
96.6863
 11
26.5134
 21
96.9159
  0
LINE
  8
0
 10
26.5134
 20
96.9159
 11
26.6367
 21
97.1295
  0
LINE
  8
0
 10
26.6367
 20
97.1295
 11
26.7905
 21
97.3223
  0
LINE
  8
0
 10
26.7905
 20
97.3223
 11
26.9712
 21
97.49
  0
LINE
  8
0
 10
26.9712
 20
97.49
 11
27.175
 21
97.6289
  0
LINE
  8
0
 10
27.175
 20
97.6289
 11
27.3972
 21
97.7359
  0
LINE
  8
0
 10
27.3972
 20
97.7359
 11
27.6328
 21
97.8086
  0
LINE
  8
0
 10
27.6328
 20
97.8086
 11
27.8767
 21
97.8454
  0
LINE
  8
0
 10
27.8767
 20
97.8454
 11
68.1233
 21
97.8454
  0
LINE
  8
0
 10
68.1233
 20
97.8454
 11
68.3672
 21
97.8086
  0
LINE
  8
0
 10
68.3672
 20
97.8086
 11
68.6028
 21
97.7359
  0
LINE
  8
0
 10
68.6028
 20
97.7359
 11
68.825
 21
97.6289
  0
LINE
  8
0
 10
68.825
 20
97.6289
 11
69.0287
 21
97.49
  0
LINE
  8
0
 10
69.0287
 20
97.49
 11
69.2095
 21
97.3223
  0
LINE
  8
0
 10
69.2095
 20
97.3223
 11
69.3633
 21
97.1295
  0
LINE
  8
0
 10
69.3633
 20
97.1295
 11
69.4866
 21
96.9159
  0
LINE
  8
0
 10
69.4866
 20
96.9159
 11
69.5767
 21
96.6863
  0
LINE
  8
0
 10
69.5767
 20
96.6863
 11
69.6316
 21
96.4459
  0
LINE
  8
0
 10
69.6316
 20
96.4459
 11
69.65
 21
96.2
  0
LINE
  8
0
 10
69.65
 20
96.2
 11
69.6316
 21
95.9541
  0
LINE
  8
0
 10
69.6316
 20
95.9541
 11
69.5767
 21
95.7137
  0
LINE
  8
0
 10
69.5767
 20
95.7137
 11
69.4866
 21
95.4841
  0
LINE
  8
0
 10
69.4866
 20
95.4841
 11
69.3633
 21
95.2705
  0
LINE
  8
0
 10
69.3633
 20
95.2705
 11
69.2095
 21
95.0777
  0
LINE
  8
0
 10
69.2095
 20
95.0777
 11
69.0287
 21
94.91
  0
LINE
  8
0
 10
69.0287
 20
94.91
 11
68.825
 21
94.7711
  0
LINE
  8
0
 10
68.825
 20
94.7711
 11
68.6028
 21
94.664
  0
LINE
  8
0
 10
68.6028
 20
94.664
 11
68.3672
 21
94.5914
  0
LINE
  8
0
 10
68.3672
 20
94.5914
 11
68.1233
 21
94.5546
  0
LINE
  8
0
 10
68.1233
 20
94.5546
 11
27.8767
 21
94.5546
  0
LINE
  8
0
 10
219.877
 20
94.5546
 11
219.633
 21
94.5914
  0
LINE
  8
0
 10
219.633
 20
94.5914
 11
219.397
 21
94.664
  0
LINE
  8
0
 10
219.397
 20
94.664
 11
219.175
 21
94.7711
  0
LINE
  8
0
 10
219.175
 20
94.7711
 11
218.971
 21
94.91
  0
LINE
  8
0
 10
218.971
 20
94.91
 11
218.79
 21
95.0777
  0
LINE
  8
0
 10
218.79
 20
95.0777
 11
218.637
 21
95.2705
  0
LINE
  8
0
 10
218.637
 20
95.2705
 11
218.513
 21
95.4841
  0
LINE
  8
0
 10
218.513
 20
95.4841
 11
218.423
 21
95.7137
  0
LINE
  8
0
 10
218.423
 20
95.7137
 11
218.368
 21
95.9541
  0
LINE
  8
0
 10
218.368
 20
95.9541
 11
218.35
 21
96.2
  0
LINE
  8
0
 10
218.35
 20
96.2
 11
218.368
 21
96.4459
  0
LINE
  8
0
 10
218.368
 20
96.4459
 11
218.423
 21
96.6863
  0
LINE
  8
0
 10
218.423
 20
96.6863
 11
218.513
 21
96.9159
  0
LINE
  8
0
 10
218.513
 20
96.9159
 11
218.637
 21
97.1295
  0
LINE
  8
0
 10
218.637
 20
97.1295
 11
218.79
 21
97.3223
  0
LINE
  8
0
 10
218.79
 20
97.3223
 11
218.971
 21
97.49
  0
LINE
  8
0
 10
218.971
 20
97.49
 11
219.175
 21
97.6289
  0
LINE
  8
0
 10
219.175
 20
97.6289
 11
219.397
 21
97.7359
  0
LINE
  8
0
 10
219.397
 20
97.7359
 11
219.633
 21
97.8086
  0
LINE
  8
0
 10
219.633
 20
97.8086
 11
219.877
 21
97.8454
  0
LINE
  8
0
 10
219.877
 20
97.8454
 11
260.123
 21
97.8454
  0
LINE
  8
0
 10
260.123
 20
97.8454
 11
260.367
 21
97.8086
  0
LINE
  8
0
 10
260.367
 20
97.8086
 11
260.603
 21
97.7359
  0
LINE
  8
0
 10
260.603
 20
97.7359
 11
260.825
 21
97.6289
  0
LINE
  8
0
 10
260.825
 20
97.6289
 11
261.029
 21
97.49
  0
LINE
  8
0
 10
261.029
 20
97.49
 11
261.21
 21
97.3223
  0
LINE
  8
0
 10
261.21
 20
97.3223
 11
261.363
 21
97.1295
  0
LINE
  8
0
 10
261.363
 20
97.1295
 11
261.487
 21
96.9159
  0
LINE
  8
0
 10
261.487
 20
96.9159
 11
261.577
 21
96.6863
  0
LINE
  8
0
 10
261.577
 20
96.6863
 11
261.632
 21
96.4459
  0
LINE
  8
0
 10
261.632
 20
96.4459
 11
261.65
 21
96.2
  0
LINE
  8
0
 10
261.65
 20
96.2
 11
261.632
 21
95.9541
  0
LINE
  8
0
 10
261.632
 20
95.9541
 11
261.577
 21
95.7137
  0
LINE
  8
0
 10
261.577
 20
95.7137
 11
261.487
 21
95.4841
  0
LINE
  8
0
 10
261.487
 20
95.4841
 11
261.363
 21
95.2705
  0
LINE
  8
0
 10
261.363
 20
95.2705
 11
261.21
 21
95.0777
  0
LINE
  8
0
 10
261.21
 20
95.0777
 11
261.029
 21
94.91
  0
LINE
  8
0
 10
261.029
 20
94.91
 11
260.825
 21
94.7711
  0
LINE
  8
0
 10
260.825
 20
94.7711
 11
260.603
 21
94.664
  0
LINE
  8
0
 10
260.603
 20
94.664
 11
260.367
 21
94.5914
  0
LINE
  8
0
 10
260.367
 20
94.5914
 11
260.123
 21
94.5546
  0
LINE
  8
0
 10
260.123
 20
94.5546
 11
219.877
 21
94.5546
  0
LINE
  8
0
 10
123.877
 20
94.5546
 11
123.633
 21
94.5914
  0
LINE
  8
0
 10
123.633
 20
94.5914
 11
123.397
 21
94.664
  0
LINE
  8
0
 10
123.397
 20
94.664
 11
123.175
 21
94.7711
  0
LINE
  8
0
 10
123.175
 20
94.7711
 11
122.971
 21
94.91
  0
LINE
  8
0
 10
122.971
 20
94.91
 11
122.79
 21
95.0777
  0
LINE
  8
0
 10
122.79
 20
95.0777
 11
122.637
 21
95.2705
  0
LINE
  8
0
 10
122.637
 20
95.2705
 11
122.513
 21
95.4841
  0
LINE
  8
0
 10
122.513
 20
95.4841
 11
122.423
 21
95.7137
  0
LINE
  8
0
 10
122.423
 20
95.7137
 11
122.368
 21
95.9541
  0
LINE
  8
0
 10
122.368
 20
95.9541
 11
122.35
 21
96.2
  0
LINE
  8
0
 10
122.35
 20
96.2
 11
122.368
 21
96.4459
  0
LINE
  8
0
 10
122.368
 20
96.4459
 11
122.423
 21
96.6863
  0
LINE
  8
0
 10
122.423
 20
96.6863
 11
122.513
 21
96.9159
  0
LINE
  8
0
 10
122.513
 20
96.9159
 11
122.637
 21
97.1295
  0
LINE
  8
0
 10
122.637
 20
97.1295
 11
122.79
 21
97.3223
  0
LINE
  8
0
 10
122.79
 20
97.3223
 11
122.971
 21
97.49
  0
LINE
  8
0
 10
122.971
 20
97.49
 11
123.175
 21
97.6289
  0
LINE
  8
0
 10
123.175
 20
97.6289
 11
123.397
 21
97.7359
  0
LINE
  8
0
 10
123.397
 20
97.7359
 11
123.633
 21
97.8086
  0
LINE
  8
0
 10
123.633
 20
97.8086
 11
123.877
 21
97.8454
  0
LINE
  8
0
 10
123.877
 20
97.8454
 11
164.123
 21
97.8454
  0
LINE
  8
0
 10
164.123
 20
97.8454
 11
164.367
 21
97.8086
  0
LINE
  8
0
 10
164.367
 20
97.8086
 11
164.603
 21
97.7359
  0
LINE
  8
0
 10
164.603
 20
97.7359
 11
164.825
 21
97.6289
  0
LINE
  8
0
 10
164.825
 20
97.6289
 11
165.029
 21
97.49
  0
LINE
  8
0
 10
165.029
 20
97.49
 11
165.21
 21
97.3223
  0
LINE
  8
0
 10
165.21
 20
97.3223
 11
165.363
 21
97.1295
  0
LINE
  8
0
 10
165.363
 20
97.1295
 11
165.487
 21
96.9159
  0
LINE
  8
0
 10
165.487
 20
96.9159
 11
165.577
 21
96.6863
  0
LINE
  8
0
 10
165.577
 20
96.6863
 11
165.632
 21
96.4459
  0
LINE
  8
0
 10
165.632
 20
96.4459
 11
165.65
 21
96.2
  0
LINE
  8
0
 10
165.65
 20
96.2
 11
165.632
 21
95.9541
  0
LINE
  8
0
 10
165.632
 20
95.9541
 11
165.577
 21
95.7137
  0
LINE
  8
0
 10
165.577
 20
95.7137
 11
165.487
 21
95.4841
  0
LINE
  8
0
 10
165.487
 20
95.4841
 11
165.363
 21
95.2705
  0
LINE
  8
0
 10
165.363
 20
95.2705
 11
165.21
 21
95.0777
  0
LINE
  8
0
 10
165.21
 20
95.0777
 11
165.029
 21
94.91
  0
LINE
  8
0
 10
165.029
 20
94.91
 11
164.825
 21
94.7711
  0
LINE
  8
0
 10
164.825
 20
94.7711
 11
164.603
 21
94.664
  0
LINE
  8
0
 10
164.603
 20
94.664
 11
164.367
 21
94.5914
  0
LINE
  8
0
 10
164.367
 20
94.5914
 11
164.123
 21
94.5546
  0
LINE
  8
0
 10
164.123
 20
94.5546
 11
123.877
 21
94.5546
  0
LINE
  8
0
 10
-68.1233
 20
94.5546
 11
-68.3672
 21
94.5914
  0
LINE
  8
0
 10
-68.3672
 20
94.5914
 11
-68.6028
 21
94.664
  0
LINE
  8
0
 10
-68.6028
 20
94.664
 11
-68.825
 21
94.7711
  0
LINE
  8
0
 10
-68.825
 20
94.7711
 11
-69.0287
 21
94.91
  0
LINE
  8
0
 10
-69.0287
 20
94.91
 11
-69.2095
 21
95.0777
  0
LINE
  8
0
 10
-69.2095
 20
95.0777
 11
-69.3633
 21
95.2705
  0
LINE
  8
0
 10
-69.3633
 20
95.2705
 11
-69.4866
 21
95.4841
  0
LINE
  8
0
 10
-69.4866
 20
95.4841
 11
-69.5767
 21
95.7137
  0
LINE
  8
0
 10
-69.5767
 20
95.7137
 11
-69.6316
 21
95.9541
  0
LINE
  8
0
 10
-69.6316
 20
95.9541
 11
-69.65
 21
96.2
  0
LINE
  8
0
 10
-69.65
 20
96.2
 11
-69.6316
 21
96.4459
  0
LINE
  8
0
 10
-69.6316
 20
96.4459
 11
-69.5767
 21
96.6863
  0
LINE
  8
0
 10
-69.5767
 20
96.6863
 11
-69.4866
 21
96.9159
  0
LINE
  8
0
 10
-69.4866
 20
96.9159
 11
-69.3633
 21
97.1295
  0
LINE
  8
0
 10
-69.3633
 20
97.1295
 11
-69.2095
 21
97.3223
  0
LINE
  8
0
 10
-69.2095
 20
97.3223
 11
-69.0287
 21
97.49
  0
LINE
  8
0
 10
-69.0287
 20
97.49
 11
-68.825
 21
97.6289
  0
LINE
  8
0
 10
-68.825
 20
97.6289
 11
-68.6028
 21
97.7359
  0
LINE
  8
0
 10
-68.6028
 20
97.7359
 11
-68.3672
 21
97.8086
  0
LINE
  8
0
 10
-68.3672
 20
97.8086
 11
-68.1233
 21
97.8454
  0
LINE
  8
0
 10
-68.1233
 20
97.8454
 11
-27.8767
 21
97.8454
  0
LINE
  8
0
 10
-27.8767
 20
97.8454
 11
-27.6328
 21
97.8086
  0
LINE
  8
0
 10
-27.6328
 20
97.8086
 11
-27.3972
 21
97.7359
  0
LINE
  8
0
 10
-27.3972
 20
97.7359
 11
-27.175
 21
97.6289
  0
LINE
  8
0
 10
-27.175
 20
97.6289
 11
-26.9712
 21
97.49
  0
LINE
  8
0
 10
-26.9712
 20
97.49
 11
-26.7905
 21
97.3223
  0
LINE
  8
0
 10
-26.7905
 20
97.3223
 11
-26.6367
 21
97.1295
  0
LINE
  8
0
 10
-26.6367
 20
97.1295
 11
-26.5134
 21
96.9159
  0
LINE
  8
0
 10
-26.5134
 20
96.9159
 11
-26.4233
 21
96.6863
  0
LINE
  8
0
 10
-26.4233
 20
96.6863
 11
-26.3684
 21
96.4459
  0
LINE
  8
0
 10
-26.3684
 20
96.4459
 11
-26.35
 21
96.2
  0
LINE
  8
0
 10
-26.35
 20
96.2
 11
-26.3684
 21
95.9541
  0
LINE
  8
0
 10
-26.3684
 20
95.9541
 11
-26.4233
 21
95.7137
  0
LINE
  8
0
 10
-26.4233
 20
95.7137
 11
-26.5134
 21
95.4841
  0
LINE
  8
0
 10
-26.5134
 20
95.4841
 11
-26.6367
 21
95.2705
  0
LINE
  8
0
 10
-26.6367
 20
95.2705
 11
-26.7905
 21
95.0777
  0
LINE
  8
0
 10
-26.7905
 20
95.0777
 11
-26.9712
 21
94.91
  0
LINE
  8
0
 10
-26.9712
 20
94.91
 11
-27.175
 21
94.7711
  0
LINE
  8
0
 10
-27.175
 20
94.7711
 11
-27.3972
 21
94.664
  0
LINE
  8
0
 10
-27.3972
 20
94.664
 11
-27.6328
 21
94.5914
  0
LINE
  8
0
 10
-27.6328
 20
94.5914
 11
-27.8767
 21
94.5546
  0
LINE
  8
0
 10
-27.8767
 20
94.5546
 11
-68.1233
 21
94.5546
  0
LINE
  8
0
 10
-164.123
 20
94.5546
 11
-164.367
 21
94.5914
  0
LINE
  8
0
 10
-164.367
 20
94.5914
 11
-164.603
 21
94.664
  0
LINE
  8
0
 10
-164.603
 20
94.664
 11
-164.825
 21
94.7711
  0
LINE
  8
0
 10
-164.825
 20
94.7711
 11
-165.029
 21
94.91
  0
LINE
  8
0
 10
-165.029
 20
94.91
 11
-165.21
 21
95.0777
  0
LINE
  8
0
 10
-165.21
 20
95.0777
 11
-165.363
 21
95.2705
  0
LINE
  8
0
 10
-165.363
 20
95.2705
 11
-165.487
 21
95.4841
  0
LINE
  8
0
 10
-165.487
 20
95.4841
 11
-165.577
 21
95.7137
  0
LINE
  8
0
 10
-165.577
 20
95.7137
 11
-165.632
 21
95.9541
  0
LINE
  8
0
 10
-165.632
 20
95.9541
 11
-165.65
 21
96.2
  0
LINE
  8
0
 10
-165.65
 20
96.2
 11
-165.632
 21
96.4459
  0
LINE
  8
0
 10
-165.632
 20
96.4459
 11
-165.577
 21
96.6863
  0
LINE
  8
0
 10
-165.577
 20
96.6863
 11
-165.487
 21
96.9159
  0
LINE
  8
0
 10
-165.487
 20
96.9159
 11
-165.363
 21
97.1295
  0
LINE
  8
0
 10
-165.363
 20
97.1295
 11
-165.21
 21
97.3223
  0
LINE
  8
0
 10
-165.21
 20
97.3223
 11
-165.029
 21
97.49
  0
LINE
  8
0
 10
-165.029
 20
97.49
 11
-164.825
 21
97.6289
  0
LINE
  8
0
 10
-164.825
 20
97.6289
 11
-164.603
 21
97.7359
  0
LINE
  8
0
 10
-164.603
 20
97.7359
 11
-164.367
 21
97.8086
  0
LINE
  8
0
 10
-164.367
 20
97.8086
 11
-164.123
 21
97.8454
  0
LINE
  8
0
 10
-164.123
 20
97.8454
 11
-123.877
 21
97.8454
  0
LINE
  8
0
 10
-123.877
 20
97.8454
 11
-123.633
 21
97.8086
  0
LINE
  8
0
 10
-123.633
 20
97.8086
 11
-123.397
 21
97.7359
  0
LINE
  8
0
 10
-123.397
 20
97.7359
 11
-123.175
 21
97.6289
  0
LINE
  8
0
 10
-123.175
 20
97.6289
 11
-122.971
 21
97.49
  0
LINE
  8
0
 10
-122.971
 20
97.49
 11
-122.79
 21
97.3223
  0
LINE
  8
0
 10
-122.79
 20
97.3223
 11
-122.637
 21
97.1295
  0
LINE
  8
0
 10
-122.637
 20
97.1295
 11
-122.513
 21
96.9159
  0
LINE
  8
0
 10
-122.513
 20
96.9159
 11
-122.423
 21
96.6863
  0
LINE
  8
0
 10
-122.423
 20
96.6863
 11
-122.368
 21
96.4459
  0
LINE
  8
0
 10
-122.368
 20
96.4459
 11
-122.35
 21
96.2
  0
LINE
  8
0
 10
-122.35
 20
96.2
 11
-122.368
 21
95.9541
  0
LINE
  8
0
 10
-122.368
 20
95.9541
 11
-122.423
 21
95.7137
  0
LINE
  8
0
 10
-122.423
 20
95.7137
 11
-122.513
 21
95.4841
  0
LINE
  8
0
 10
-122.513
 20
95.4841
 11
-122.637
 21
95.2705
  0
LINE
  8
0
 10
-122.637
 20
95.2705
 11
-122.79
 21
95.0777
  0
LINE
  8
0
 10
-122.79
 20
95.0777
 11
-122.971
 21
94.91
  0
LINE
  8
0
 10
-122.971
 20
94.91
 11
-123.175
 21
94.7711
  0
LINE
  8
0
 10
-123.175
 20
94.7711
 11
-123.397
 21
94.664
  0
LINE
  8
0
 10
-123.397
 20
94.664
 11
-123.633
 21
94.5914
  0
LINE
  8
0
 10
-123.633
 20
94.5914
 11
-123.877
 21
94.5546
  0
LINE
  8
0
 10
-123.877
 20
94.5546
 11
-164.123
 21
94.5546
  0
LINE
  8
0
 10
282.254
 20
32.0684
 11
282.014
 21
32.1233
  0
LINE
  8
0
 10
282.014
 20
32.1233
 11
281.784
 21
32.2134
  0
LINE
  8
0
 10
281.784
 20
32.2134
 11
281.571
 21
32.3367
  0
LINE
  8
0
 10
281.571
 20
32.3367
 11
281.378
 21
32.4905
  0
LINE
  8
0
 10
281.378
 20
32.4905
 11
281.21
 21
32.6712
  0
LINE
  8
0
 10
281.21
 20
32.6712
 11
281.071
 21
32.875
  0
LINE
  8
0
 10
281.071
 20
32.875
 11
280.964
 21
33.0972
  0
LINE
  8
0
 10
280.964
 20
33.0972
 11
280.891
 21
33.3328
  0
LINE
  8
0
 10
280.891
 20
33.3328
 11
280.855
 21
33.5767
  0
LINE
  8
0
 10
280.855
 20
33.5767
 11
280.855
 21
73.8233
  0
LINE
  8
0
 10
280.855
 20
73.8233
 11
280.891
 21
74.0672
  0
LINE
  8
0
 10
280.891
 20
74.0672
 11
280.964
 21
74.3028
  0
LINE
  8
0
 10
280.964
 20
74.3028
 11
281.071
 21
74.525
  0
LINE
  8
0
 10
281.071
 20
74.525
 11
281.21
 21
74.7288
  0
LINE
  8
0
 10
281.21
 20
74.7288
 11
281.378
 21
74.9095
  0
LINE
  8
0
 10
281.378
 20
74.9095
 11
281.571
 21
75.0633
  0
LINE
  8
0
 10
281.571
 20
75.0633
 11
281.784
 21
75.1866
  0
LINE
  8
0
 10
281.784
 20
75.1866
 11
282.014
 21
75.2767
  0
LINE
  8
0
 10
282.014
 20
75.2767
 11
282.254
 21
75.3316
  0
LINE
  8
0
 10
282.254
 20
75.3316
 11
282.5
 21
75.35
  0
LINE
  8
0
 10
282.5
 20
75.35
 11
282.746
 21
75.3316
  0
LINE
  8
0
 10
282.746
 20
75.3316
 11
282.986
 21
75.2767
  0
LINE
  8
0
 10
282.986
 20
75.2767
 11
283.216
 21
75.1866
  0
LINE
  8
0
 10
283.216
 20
75.1866
 11
283.429
 21
75.0633
  0
LINE
  8
0
 10
283.429
 20
75.0633
 11
283.622
 21
74.9095
  0
LINE
  8
0
 10
283.622
 20
74.9095
 11
283.79
 21
74.7288
  0
LINE
  8
0
 10
283.79
 20
74.7288
 11
283.929
 21
74.525
  0
LINE
  8
0
 10
283.929
 20
74.525
 11
284.036
 21
74.3028
  0
LINE
  8
0
 10
284.036
 20
74.3028
 11
284.109
 21
74.0672
  0
LINE
  8
0
 10
284.109
 20
74.0672
 11
284.145
 21
73.8233
  0
LINE
  8
0
 10
284.145
 20
73.8233
 11
284.145
 21
33.5767
  0
LINE
  8
0
 10
284.145
 20
33.5767
 11
284.109
 21
33.3328
  0
LINE
  8
0
 10
284.109
 20
33.3328
 11
284.036
 21
33.0972
  0
LINE
  8
0
 10
284.036
 20
33.0972
 11
283.929
 21
32.875
  0
LINE
  8
0
 10
283.929
 20
32.875
 11
283.79
 21
32.6712
  0
LINE
  8
0
 10
283.79
 20
32.6712
 11
283.622
 21
32.4905
  0
LINE
  8
0
 10
283.622
 20
32.4905
 11
283.429
 21
32.3367
  0
LINE
  8
0
 10
283.429
 20
32.3367
 11
283.216
 21
32.2134
  0
LINE
  8
0
 10
283.216
 20
32.2134
 11
282.986
 21
32.1233
  0
LINE
  8
0
 10
282.986
 20
32.1233
 11
282.746
 21
32.0684
  0
LINE
  8
0
 10
282.746
 20
32.0684
 11
282.5
 21
32.05
  0
LINE
  8
0
 10
282.5
 20
32.05
 11
282.254
 21
32.0684
  0
LINE
  8
0
 10
-282.746
 20
32.0684
 11
-282.986
 21
32.1233
  0
LINE
  8
0
 10
-282.986
 20
32.1233
 11
-283.216
 21
32.2134
  0
LINE
  8
0
 10
-283.216
 20
32.2134
 11
-283.429
 21
32.3367
  0
LINE
  8
0
 10
-283.429
 20
32.3367
 11
-283.622
 21
32.4905
  0
LINE
  8
0
 10
-283.622
 20
32.4905
 11
-283.79
 21
32.6712
  0
LINE
  8
0
 10
-283.79
 20
32.6712
 11
-283.929
 21
32.875
  0
LINE
  8
0
 10
-283.929
 20
32.875
 11
-284.036
 21
33.0972
  0
LINE
  8
0
 10
-284.036
 20
33.0972
 11
-284.109
 21
33.3328
  0
LINE
  8
0
 10
-284.109
 20
33.3328
 11
-284.145
 21
33.5767
  0
LINE
  8
0
 10
-284.145
 20
33.5767
 11
-284.145
 21
73.8233
  0
LINE
  8
0
 10
-284.145
 20
73.8233
 11
-284.109
 21
74.0672
  0
LINE
  8
0
 10
-284.109
 20
74.0672
 11
-284.036
 21
74.3028
  0
LINE
  8
0
 10
-284.036
 20
74.3028
 11
-283.929
 21
74.525
  0
LINE
  8
0
 10
-283.929
 20
74.525
 11
-283.79
 21
74.7288
  0
LINE
  8
0
 10
-283.79
 20
74.7288
 11
-283.622
 21
74.9095
  0
LINE
  8
0
 10
-283.622
 20
74.9095
 11
-283.429
 21
75.0633
  0
LINE
  8
0
 10
-283.429
 20
75.0633
 11
-283.216
 21
75.1866
  0
LINE
  8
0
 10
-283.216
 20
75.1866
 11
-282.986
 21
75.2767
  0
LINE
  8
0
 10
-282.986
 20
75.2767
 11
-282.746
 21
75.3316
  0
LINE
  8
0
 10
-282.746
 20
75.3316
 11
-282.5
 21
75.35
  0
LINE
  8
0
 10
-282.5
 20
75.35
 11
-282.254
 21
75.3316
  0
LINE
  8
0
 10
-282.254
 20
75.3316
 11
-282.014
 21
75.2767
  0
LINE
  8
0
 10
-282.014
 20
75.2767
 11
-281.784
 21
75.1866
  0
LINE
  8
0
 10
-281.784
 20
75.1866
 11
-281.571
 21
75.0633
  0
LINE
  8
0
 10
-281.571
 20
75.0633
 11
-281.378
 21
74.9095
  0
LINE
  8
0
 10
-281.378
 20
74.9095
 11
-281.21
 21
74.7288
  0
LINE
  8
0
 10
-281.21
 20
74.7288
 11
-281.071
 21
74.525
  0
LINE
  8
0
 10
-281.071
 20
74.525
 11
-280.964
 21
74.3028
  0
LINE
  8
0
 10
-280.964
 20
74.3028
 11
-280.891
 21
74.0672
  0
LINE
  8
0
 10
-280.891
 20
74.0672
 11
-280.855
 21
73.8233
  0
LINE
  8
0
 10
-280.855
 20
73.8233
 11
-280.855
 21
33.5767
  0
LINE
  8
0
 10
-280.855
 20
33.5767
 11
-280.891
 21
33.3328
  0
LINE
  8
0
 10
-280.891
 20
33.3328
 11
-280.964
 21
33.0972
  0
LINE
  8
0
 10
-280.964
 20
33.0972
 11
-281.071
 21
32.875
  0
LINE
  8
0
 10
-281.071
 20
32.875
 11
-281.21
 21
32.6712
  0
LINE
  8
0
 10
-281.21
 20
32.6712
 11
-281.378
 21
32.4905
  0
LINE
  8
0
 10
-281.378
 20
32.4905
 11
-281.571
 21
32.3367
  0
LINE
  8
0
 10
-281.571
 20
32.3367
 11
-281.784
 21
32.2134
  0
LINE
  8
0
 10
-281.784
 20
32.2134
 11
-282.014
 21
32.1233
  0
LINE
  8
0
 10
-282.014
 20
32.1233
 11
-282.254
 21
32.0684
  0
LINE
  8
0
 10
-282.254
 20
32.0684
 11
-282.5
 21
32.05
  0
LINE
  8
0
 10
-282.5
 20
32.05
 11
-282.746
 21
32.0684
  0
LINE
  8
0
 10
-282.746
 20
-21.6316
 11
-282.986
 21
-21.5767
  0
LINE
  8
0
 10
-282.986
 20
-21.5767
 11
-283.216
 21
-21.4866
  0
LINE
  8
0
 10
-283.216
 20
-21.4866
 11
-283.429
 21
-21.3633
  0
LINE
  8
0
 10
-283.429
 20
-21.3633
 11
-283.622
 21
-21.2095
  0
LINE
  8
0
 10
-283.622
 20
-21.2095
 11
-283.79
 21
-21.0287
  0
LINE
  8
0
 10
-283.79
 20
-21.0287
 11
-283.929
 21
-20.825
  0
LINE
  8
0
 10
-283.929
 20
-20.825
 11
-284.036
 21
-20.6028
  0
LINE
  8
0
 10
-284.036
 20
-20.6028
 11
-284.109
 21
-20.3672
  0
LINE
  8
0
 10
-284.109
 20
-20.3672
 11
-284.145
 21
-20.1233
  0
LINE
  8
0
 10
-284.145
 20
-20.1233
 11
-284.145
 21
20.1233
  0
LINE
  8
0
 10
-284.145
 20
20.1233
 11
-284.109
 21
20.3672
  0
LINE
  8
0
 10
-284.109
 20
20.3672
 11
-284.036
 21
20.6028
  0
LINE
  8
0
 10
-284.036
 20
20.6028
 11
-283.929
 21
20.825
  0
LINE
  8
0
 10
-283.929
 20
20.825
 11
-283.79
 21
21.0287
  0
LINE
  8
0
 10
-283.79
 20
21.0287
 11
-283.622
 21
21.2095
  0
LINE
  8
0
 10
-283.622
 20
21.2095
 11
-283.429
 21
21.3633
  0
LINE
  8
0
 10
-283.429
 20
21.3633
 11
-283.216
 21
21.4866
  0
LINE
  8
0
 10
-283.216
 20
21.4866
 11
-282.986
 21
21.5767
  0
LINE
  8
0
 10
-282.986
 20
21.5767
 11
-282.746
 21
21.6316
  0
LINE
  8
0
 10
-282.746
 20
21.6316
 11
-282.5
 21
21.65
  0
LINE
  8
0
 10
-282.5
 20
21.65
 11
-282.254
 21
21.6316
  0
LINE
  8
0
 10
-282.254
 20
21.6316
 11
-282.014
 21
21.5767
  0
LINE
  8
0
 10
-282.014
 20
21.5767
 11
-281.784
 21
21.4866
  0
LINE
  8
0
 10
-281.784
 20
21.4866
 11
-281.571
 21
21.3633
  0
LINE
  8
0
 10
-281.571
 20
21.3633
 11
-281.378
 21
21.2095
  0
LINE
  8
0
 10
-281.378
 20
21.2095
 11
-281.21
 21
21.0287
  0
LINE
  8
0
 10
-281.21
 20
21.0287
 11
-281.071
 21
20.825
  0
LINE
  8
0
 10
-281.071
 20
20.825
 11
-280.964
 21
20.6028
  0
LINE
  8
0
 10
-280.964
 20
20.6028
 11
-280.891
 21
20.3672
  0
LINE
  8
0
 10
-280.891
 20
20.3672
 11
-280.855
 21
20.1233
  0
LINE
  8
0
 10
-280.855
 20
20.1233
 11
-280.855
 21
-20.1233
  0
LINE
  8
0
 10
-280.855
 20
-20.1233
 11
-280.891
 21
-20.3672
  0
LINE
  8
0
 10
-280.891
 20
-20.3672
 11
-280.964
 21
-20.6028
  0
LINE
  8
0
 10
-280.964
 20
-20.6028
 11
-281.071
 21
-20.825
  0
LINE
  8
0
 10
-281.071
 20
-20.825
 11
-281.21
 21
-21.0287
  0
LINE
  8
0
 10
-281.21
 20
-21.0287
 11
-281.378
 21
-21.2095
  0
LINE
  8
0
 10
-281.378
 20
-21.2095
 11
-281.571
 21
-21.3633
  0
LINE
  8
0
 10
-281.571
 20
-21.3633
 11
-281.784
 21
-21.4866
  0
LINE
  8
0
 10
-281.784
 20
-21.4866
 11
-282.014
 21
-21.5767
  0
LINE
  8
0
 10
-282.014
 20
-21.5767
 11
-282.254
 21
-21.6316
  0
LINE
  8
0
 10
-282.254
 20
-21.6316
 11
-282.5
 21
-21.65
  0
LINE
  8
0
 10
-282.5
 20
-21.65
 11
-282.746
 21
-21.6316
  0
LINE
  8
0
 10
282.254
 20
-21.6316
 11
282.014
 21
-21.5767
  0
LINE
  8
0
 10
282.014
 20
-21.5767
 11
281.784
 21
-21.4866
  0
LINE
  8
0
 10
281.784
 20
-21.4866
 11
281.571
 21
-21.3633
  0
LINE
  8
0
 10
281.571
 20
-21.3633
 11
281.378
 21
-21.2095
  0
LINE
  8
0
 10
281.378
 20
-21.2095
 11
281.21
 21
-21.0287
  0
LINE
  8
0
 10
281.21
 20
-21.0287
 11
281.071
 21
-20.825
  0
LINE
  8
0
 10
281.071
 20
-20.825
 11
280.964
 21
-20.6028
  0
LINE
  8
0
 10
280.964
 20
-20.6028
 11
280.891
 21
-20.3672
  0
LINE
  8
0
 10
280.891
 20
-20.3672
 11
280.855
 21
-20.1233
  0
LINE
  8
0
 10
280.855
 20
-20.1233
 11
280.855
 21
20.1233
  0
LINE
  8
0
 10
280.855
 20
20.1233
 11
280.891
 21
20.3672
  0
LINE
  8
0
 10
280.891
 20
20.3672
 11
280.964
 21
20.6028
  0
LINE
  8
0
 10
280.964
 20
20.6028
 11
281.071
 21
20.825
  0
LINE
  8
0
 10
281.071
 20
20.825
 11
281.21
 21
21.0287
  0
LINE
  8
0
 10
281.21
 20
21.0287
 11
281.378
 21
21.2095
  0
LINE
  8
0
 10
281.378
 20
21.2095
 11
281.571
 21
21.3633
  0
LINE
  8
0
 10
281.571
 20
21.3633
 11
281.784
 21
21.4866
  0
LINE
  8
0
 10
281.784
 20
21.4866
 11
282.014
 21
21.5767
  0
LINE
  8
0
 10
282.014
 20
21.5767
 11
282.254
 21
21.6316
  0
LINE
  8
0
 10
282.254
 20
21.6316
 11
282.5
 21
21.65
  0
LINE
  8
0
 10
282.5
 20
21.65
 11
282.746
 21
21.6316
  0
LINE
  8
0
 10
282.746
 20
21.6316
 11
282.986
 21
21.5767
  0
LINE
  8
0
 10
282.986
 20
21.5767
 11
283.216
 21
21.4866
  0
LINE
  8
0
 10
283.216
 20
21.4866
 11
283.429
 21
21.3633
  0
LINE
  8
0
 10
283.429
 20
21.3633
 11
283.622
 21
21.2095
  0
LINE
  8
0
 10
283.622
 20
21.2095
 11
283.79
 21
21.0287
  0
LINE
  8
0
 10
283.79
 20
21.0287
 11
283.929
 21
20.825
  0
LINE
  8
0
 10
283.929
 20
20.825
 11
284.036
 21
20.6028
  0
LINE
  8
0
 10
284.036
 20
20.6028
 11
284.109
 21
20.3672
  0
LINE
  8
0
 10
284.109
 20
20.3672
 11
284.145
 21
20.1233
  0
LINE
  8
0
 10
284.145
 20
20.1233
 11
284.145
 21
-20.1233
  0
LINE
  8
0
 10
284.145
 20
-20.1233
 11
284.109
 21
-20.3672
  0
LINE
  8
0
 10
284.109
 20
-20.3672
 11
284.036
 21
-20.6028
  0
LINE
  8
0
 10
284.036
 20
-20.6028
 11
283.929
 21
-20.825
  0
LINE
  8
0
 10
283.929
 20
-20.825
 11
283.79
 21
-21.0287
  0
LINE
  8
0
 10
283.79
 20
-21.0287
 11
283.622
 21
-21.2095
  0
LINE
  8
0
 10
283.622
 20
-21.2095
 11
283.429
 21
-21.3633
  0
LINE
  8
0
 10
283.429
 20
-21.3633
 11
283.216
 21
-21.4866
  0
LINE
  8
0
 10
283.216
 20
-21.4866
 11
282.986
 21
-21.5767
  0
LINE
  8
0
 10
282.986
 20
-21.5767
 11
282.746
 21
-21.6316
  0
LINE
  8
0
 10
282.746
 20
-21.6316
 11
282.5
 21
-21.65
  0
LINE
  8
0
 10
282.5
 20
-21.65
 11
282.254
 21
-21.6316
  0
LINE
  8
0
 10
282.254
 20
-75.3316
 11
282.014
 21
-75.2767
  0
LINE
  8
0
 10
282.014
 20
-75.2767
 11
281.784
 21
-75.1866
  0
LINE
  8
0
 10
281.784
 20
-75.1866
 11
281.571
 21
-75.0633
  0
LINE
  8
0
 10
281.571
 20
-75.0633
 11
281.378
 21
-74.9095
  0
LINE
  8
0
 10
281.378
 20
-74.9095
 11
281.21
 21
-74.7288
  0
LINE
  8
0
 10
281.21
 20
-74.7288
 11
281.071
 21
-74.525
  0
LINE
  8
0
 10
281.071
 20
-74.525
 11
280.964
 21
-74.3028
  0
LINE
  8
0
 10
280.964
 20
-74.3028
 11
280.891
 21
-74.0672
  0
LINE
  8
0
 10
280.891
 20
-74.0672
 11
280.855
 21
-73.8233
  0
LINE
  8
0
 10
280.855
 20
-73.8233
 11
280.855
 21
-33.5767
  0
LINE
  8
0
 10
280.855
 20
-33.5767
 11
280.891
 21
-33.3328
  0
LINE
  8
0
 10
280.891
 20
-33.3328
 11
280.964
 21
-33.0972
  0
LINE
  8
0
 10
280.964
 20
-33.0972
 11
281.071
 21
-32.875
  0
LINE
  8
0
 10
281.071
 20
-32.875
 11
281.21
 21
-32.6712
  0
LINE
  8
0
 10
281.21
 20
-32.6712
 11
281.378
 21
-32.4905
  0
LINE
  8
0
 10
281.378
 20
-32.4905
 11
281.571
 21
-32.3367
  0
LINE
  8
0
 10
281.571
 20
-32.3367
 11
281.784
 21
-32.2134
  0
LINE
  8
0
 10
281.784
 20
-32.2134
 11
282.014
 21
-32.1233
  0
LINE
  8
0
 10
282.014
 20
-32.1233
 11
282.254
 21
-32.0684
  0
LINE
  8
0
 10
282.254
 20
-32.0684
 11
282.5
 21
-32.05
  0
LINE
  8
0
 10
282.5
 20
-32.05
 11
282.746
 21
-32.0684
  0
LINE
  8
0
 10
282.746
 20
-32.0684
 11
282.986
 21
-32.1233
  0
LINE
  8
0
 10
282.986
 20
-32.1233
 11
283.216
 21
-32.2134
  0
LINE
  8
0
 10
283.216
 20
-32.2134
 11
283.429
 21
-32.3367
  0
LINE
  8
0
 10
283.429
 20
-32.3367
 11
283.622
 21
-32.4905
  0
LINE
  8
0
 10
283.622
 20
-32.4905
 11
283.79
 21
-32.6712
  0
LINE
  8
0
 10
283.79
 20
-32.6712
 11
283.929
 21
-32.875
  0
LINE
  8
0
 10
283.929
 20
-32.875
 11
284.036
 21
-33.0972
  0
LINE
  8
0
 10
284.036
 20
-33.0972
 11
284.109
 21
-33.3328
  0
LINE
  8
0
 10
284.109
 20
-33.3328
 11
284.145
 21
-33.5767
  0
LINE
  8
0
 10
284.145
 20
-33.5767
 11
284.145
 21
-73.8233
  0
LINE
  8
0
 10
284.145
 20
-73.8233
 11
284.109
 21
-74.0672
  0
LINE
  8
0
 10
284.109
 20
-74.0672
 11
284.036
 21
-74.3028
  0
LINE
  8
0
 10
284.036
 20
-74.3028
 11
283.929
 21
-74.525
  0
LINE
  8
0
 10
283.929
 20
-74.525
 11
283.79
 21
-74.7288
  0
LINE
  8
0
 10
283.79
 20
-74.7288
 11
283.622
 21
-74.9095
  0
LINE
  8
0
 10
283.622
 20
-74.9095
 11
283.429
 21
-75.0633
  0
LINE
  8
0
 10
283.429
 20
-75.0633
 11
283.216
 21
-75.1866
  0
LINE
  8
0
 10
283.216
 20
-75.1866
 11
282.986
 21
-75.2767
  0
LINE
  8
0
 10
282.986
 20
-75.2767
 11
282.746
 21
-75.3316
  0
LINE
  8
0
 10
282.746
 20
-75.3316
 11
282.5
 21
-75.35
  0
LINE
  8
0
 10
282.5
 20
-75.35
 11
282.254
 21
-75.3316
  0
LINE
  8
0
 10
-282.746
 20
-75.3316
 11
-282.986
 21
-75.2767
  0
LINE
  8
0
 10
-282.986
 20
-75.2767
 11
-283.216
 21
-75.1866
  0
LINE
  8
0
 10
-283.216
 20
-75.1866
 11
-283.429
 21
-75.0633
  0
LINE
  8
0
 10
-283.429
 20
-75.0633
 11
-283.622
 21
-74.9095
  0
LINE
  8
0
 10
-283.622
 20
-74.9095
 11
-283.79
 21
-74.7288
  0
LINE
  8
0
 10
-283.79
 20
-74.7288
 11
-283.929
 21
-74.525
  0
LINE
  8
0
 10
-283.929
 20
-74.525
 11
-284.036
 21
-74.3028
  0
LINE
  8
0
 10
-284.036
 20
-74.3028
 11
-284.109
 21
-74.0672
  0
LINE
  8
0
 10
-284.109
 20
-74.0672
 11
-284.145
 21
-73.8233
  0
LINE
  8
0
 10
-284.145
 20
-73.8233
 11
-284.145
 21
-33.5767
  0
LINE
  8
0
 10
-284.145
 20
-33.5767
 11
-284.109
 21
-33.3328
  0
LINE
  8
0
 10
-284.109
 20
-33.3328
 11
-284.036
 21
-33.0972
  0
LINE
  8
0
 10
-284.036
 20
-33.0972
 11
-283.929
 21
-32.875
  0
LINE
  8
0
 10
-283.929
 20
-32.875
 11
-283.79
 21
-32.6712
  0
LINE
  8
0
 10
-283.79
 20
-32.6712
 11
-283.622
 21
-32.4905
  0
LINE
  8
0
 10
-283.622
 20
-32.4905
 11
-283.429
 21
-32.3367
  0
LINE
  8
0
 10
-283.429
 20
-32.3367
 11
-283.216
 21
-32.2134
  0
LINE
  8
0
 10
-283.216
 20
-32.2134
 11
-282.986
 21
-32.1233
  0
LINE
  8
0
 10
-282.986
 20
-32.1233
 11
-282.746
 21
-32.0684
  0
LINE
  8
0
 10
-282.746
 20
-32.0684
 11
-282.5
 21
-32.05
  0
LINE
  8
0
 10
-282.5
 20
-32.05
 11
-282.254
 21
-32.0684
  0
LINE
  8
0
 10
-282.254
 20
-32.0684
 11
-282.014
 21
-32.1233
  0
LINE
  8
0
 10
-282.014
 20
-32.1233
 11
-281.784
 21
-32.2134
  0
LINE
  8
0
 10
-281.784
 20
-32.2134
 11
-281.571
 21
-32.3367
  0
LINE
  8
0
 10
-281.571
 20
-32.3367
 11
-281.378
 21
-32.4905
  0
LINE
  8
0
 10
-281.378
 20
-32.4905
 11
-281.21
 21
-32.6712
  0
LINE
  8
0
 10
-281.21
 20
-32.6712
 11
-281.071
 21
-32.875
  0
LINE
  8
0
 10
-281.071
 20
-32.875
 11
-280.964
 21
-33.0972
  0
LINE
  8
0
 10
-280.964
 20
-33.0972
 11
-280.891
 21
-33.3328
  0
LINE
  8
0
 10
-280.891
 20
-33.3328
 11
-280.855
 21
-33.5767
  0
LINE
  8
0
 10
-280.855
 20
-33.5767
 11
-280.855
 21
-73.8233
  0
LINE
  8
0
 10
-280.855
 20
-73.8233
 11
-280.891
 21
-74.0672
  0
LINE
  8
0
 10
-280.891
 20
-74.0672
 11
-280.964
 21
-74.3028
  0
LINE
  8
0
 10
-280.964
 20
-74.3028
 11
-281.071
 21
-74.525
  0
LINE
  8
0
 10
-281.071
 20
-74.525
 11
-281.21
 21
-74.7288
  0
LINE
  8
0
 10
-281.21
 20
-74.7288
 11
-281.378
 21
-74.9095
  0
LINE
  8
0
 10
-281.378
 20
-74.9095
 11
-281.571
 21
-75.0633
  0
LINE
  8
0
 10
-281.571
 20
-75.0633
 11
-281.784
 21
-75.1866
  0
LINE
  8
0
 10
-281.784
 20
-75.1866
 11
-282.014
 21
-75.2767
  0
LINE
  8
0
 10
-282.014
 20
-75.2767
 11
-282.254
 21
-75.3316
  0
LINE
  8
0
 10
-282.254
 20
-75.3316
 11
-282.5
 21
-75.35
  0
LINE
  8
0
 10
-282.5
 20
-75.35
 11
-282.746
 21
-75.3316
  0
LINE
  8
0
 10
-282.892
 20
-99.9295
 11
-283.28
 21
-99.8681
  0
LINE
  8
0
 10
-283.28
 20
-99.8681
 11
-283.659
 21
-99.7665
  0
LINE
  8
0
 10
-283.659
 20
-99.7665
 11
-284.025
 21
-99.6258
  0
LINE
  8
0
 10
-284.025
 20
-99.6258
 11
-284.375
 21
-99.4476
  0
LINE
  8
0
 10
-284.375
 20
-99.4476
 11
-284.704
 21
-99.2338
  0
LINE
  8
0
 10
-284.704
 20
-99.2338
 11
-285.009
 21
-98.9868
  0
LINE
  8
0
 10
-285.009
 20
-98.9868
 11
-285.287
 21
-98.7092
  0
LINE
  8
0
 10
-285.287
 20
-98.7092
 11
-285.534
 21
-98.4042
  0
LINE
  8
0
 10
-285.534
 20
-98.4042
 11
-285.748
 21
-98.075
  0
LINE
  8
0
 10
-285.748
 20
-98.075
 11
-285.926
 21
-97.7253
  0
LINE
  8
0
 10
-285.926
 20
-97.7253
 11
-286.066
 21
-97.3588
  0
LINE
  8
0
 10
-286.066
 20
-97.3588
 11
-286.168
 21
-96.9797
  0
LINE
  8
0
 10
-286.168
 20
-96.9797
 11
-286.229
 21
-96.592
  0
LINE
  8
0
 10
-286.229
 20
-96.592
 11
-286.25
 21
-96.2
  0
LINE
  8
0
 10
-286.25
 20
-96.2
 11
-286.229
 21
-95.808
  0
LINE
  8
0
 10
-286.229
 20
-95.808
 11
-286.168
 21
-95.4203
  0
LINE
  8
0
 10
-286.168
 20
-95.4203
 11
-286.066
 21
-95.0412
  0
LINE
  8
0
 10
-286.066
 20
-95.0412
 11
-285.926
 21
-94.6747
  0
LINE
  8
0
 10
-285.926
 20
-94.6747
 11
-285.748
 21
-94.325
  0
LINE
  8
0
 10
-285.748
 20
-94.325
 11
-285.534
 21
-93.9958
  0
LINE
  8
0
 10
-285.534
 20
-93.9958
 11
-285.287
 21
-93.6908
  0
LINE
  8
0
 10
-285.287
 20
-93.6908
 11
-285.009
 21
-93.4132
  0
LINE
  8
0
 10
-285.009
 20
-93.4132
 11
-284.704
 21
-93.1662
  0
LINE
  8
0
 10
-284.704
 20
-93.1662
 11
-284.375
 21
-92.9524
  0
LINE
  8
0
 10
-284.375
 20
-92.9524
 11
-284.025
 21
-92.7742
  0
LINE
  8
0
 10
-284.025
 20
-92.7742
 11
-283.659
 21
-92.6335
  0
LINE
  8
0
 10
-283.659
 20
-92.6335
 11
-283.28
 21
-92.5319
  0
LINE
  8
0
 10
-283.28
 20
-92.5319
 11
-282.892
 21
-92.4705
  0
LINE
  8
0
 10
-282.892
 20
-92.4705
 11
-282.5
 21
-92.45
  0
LINE
  8
0
 10
-282.5
 20
-92.45
 11
-282.108
 21
-92.4705
  0
LINE
  8
0
 10
-282.108
 20
-92.4705
 11
-281.72
 21
-92.5319
  0
LINE
  8
0
 10
-281.72
 20
-92.5319
 11
-281.341
 21
-92.6335
  0
LINE
  8
0
 10
-281.341
 20
-92.6335
 11
-280.975
 21
-92.7742
  0
LINE
  8
0
 10
-280.975
 20
-92.7742
 11
-280.625
 21
-92.9524
  0
LINE
  8
0
 10
-280.625
 20
-92.9524
 11
-280.296
 21
-93.1662
  0
LINE
  8
0
 10
-280.296
 20
-93.1662
 11
-279.991
 21
-93.4132
  0
LINE
  8
0
 10
-279.991
 20
-93.4132
 11
-279.713
 21
-93.6908
  0
LINE
  8
0
 10
-279.713
 20
-93.6908
 11
-279.466
 21
-93.9958
  0
LINE
  8
0
 10
-279.466
 20
-93.9958
 11
-279.252
 21
-94.325
  0
LINE
  8
0
 10
-279.252
 20
-94.325
 11
-279.074
 21
-94.6747
  0
LINE
  8
0
 10
-279.074
 20
-94.6747
 11
-278.934
 21
-95.0412
  0
LINE
  8
0
 10
-278.934
 20
-95.0412
 11
-278.832
 21
-95.4203
  0
LINE
  8
0
 10
-278.832
 20
-95.4203
 11
-278.771
 21
-95.808
  0
LINE
  8
0
 10
-278.771
 20
-95.808
 11
-278.75
 21
-96.2
  0
LINE
  8
0
 10
-278.75
 20
-96.2
 11
-278.771
 21
-96.592
  0
LINE
  8
0
 10
-278.771
 20
-96.592
 11
-278.832
 21
-96.9797
  0
LINE
  8
0
 10
-278.832
 20
-96.9797
 11
-278.934
 21
-97.3588
  0
LINE
  8
0
 10
-278.934
 20
-97.3588
 11
-279.074
 21
-97.7253
  0
LINE
  8
0
 10
-279.074
 20
-97.7253
 11
-279.252
 21
-98.075
  0
LINE
  8
0
 10
-279.252
 20
-98.075
 11
-279.466
 21
-98.4042
  0
LINE
  8
0
 10
-279.466
 20
-98.4042
 11
-279.713
 21
-98.7092
  0
LINE
  8
0
 10
-279.713
 20
-98.7092
 11
-279.991
 21
-98.9868
  0
LINE
  8
0
 10
-279.991
 20
-98.9868
 11
-280.296
 21
-99.2338
  0
LINE
  8
0
 10
-280.296
 20
-99.2338
 11
-280.625
 21
-99.4476
  0
LINE
  8
0
 10
-280.625
 20
-99.4476
 11
-280.975
 21
-99.6258
  0
LINE
  8
0
 10
-280.975
 20
-99.6258
 11
-281.341
 21
-99.7665
  0
LINE
  8
0
 10
-281.341
 20
-99.7665
 11
-281.72
 21
-99.8681
  0
LINE
  8
0
 10
-281.72
 20
-99.8681
 11
-282.108
 21
-99.9295
  0
LINE
  8
0
 10
-282.108
 20
-99.9295
 11
-282.5
 21
-99.95
  0
LINE
  8
0
 10
-282.5
 20
-99.95
 11
-282.892
 21
-99.9295
  0
LINE
  8
0
 10
282.108
 20
-99.9295
 11
281.72
 21
-99.8681
  0
LINE
  8
0
 10
281.72
 20
-99.8681
 11
281.341
 21
-99.7665
  0
LINE
  8
0
 10
281.341
 20
-99.7665
 11
280.975
 21
-99.6258
  0
LINE
  8
0
 10
280.975
 20
-99.6258
 11
280.625
 21
-99.4476
  0
LINE
  8
0
 10
280.625
 20
-99.4476
 11
280.296
 21
-99.2338
  0
LINE
  8
0
 10
280.296
 20
-99.2338
 11
279.991
 21
-98.9868
  0
LINE
  8
0
 10
279.991
 20
-98.9868
 11
279.713
 21
-98.7092
  0
LINE
  8
0
 10
279.713
 20
-98.7092
 11
279.466
 21
-98.4042
  0
LINE
  8
0
 10
279.466
 20
-98.4042
 11
279.252
 21
-98.075
  0
LINE
  8
0
 10
279.252
 20
-98.075
 11
279.074
 21
-97.7253
  0
LINE
  8
0
 10
279.074
 20
-97.7253
 11
278.934
 21
-97.3588
  0
LINE
  8
0
 10
278.934
 20
-97.3588
 11
278.832
 21
-96.9797
  0
LINE
  8
0
 10
278.832
 20
-96.9797
 11
278.771
 21
-96.592
  0
LINE
  8
0
 10
278.771
 20
-96.592
 11
278.75
 21
-96.2
  0
LINE
  8
0
 10
278.75
 20
-96.2
 11
278.771
 21
-95.808
  0
LINE
  8
0
 10
278.771
 20
-95.808
 11
278.832
 21
-95.4203
  0
LINE
  8
0
 10
278.832
 20
-95.4203
 11
278.934
 21
-95.0412
  0
LINE
  8
0
 10
278.934
 20
-95.0412
 11
279.074
 21
-94.6747
  0
LINE
  8
0
 10
279.074
 20
-94.6747
 11
279.252
 21
-94.325
  0
LINE
  8
0
 10
279.252
 20
-94.325
 11
279.466
 21
-93.9958
  0
LINE
  8
0
 10
279.466
 20
-93.9958
 11
279.713
 21
-93.6908
  0
LINE
  8
0
 10
279.713
 20
-93.6908
 11
279.991
 21
-93.4132
  0
LINE
  8
0
 10
279.991
 20
-93.4132
 11
280.296
 21
-93.1662
  0
LINE
  8
0
 10
280.296
 20
-93.1662
 11
280.625
 21
-92.9524
  0
LINE
  8
0
 10
280.625
 20
-92.9524
 11
280.975
 21
-92.7742
  0
LINE
  8
0
 10
280.975
 20
-92.7742
 11
281.341
 21
-92.6335
  0
LINE
  8
0
 10
281.341
 20
-92.6335
 11
281.72
 21
-92.5319
  0
LINE
  8
0
 10
281.72
 20
-92.5319
 11
282.108
 21
-92.4705
  0
LINE
  8
0
 10
282.108
 20
-92.4705
 11
282.5
 21
-92.45
  0
LINE
  8
0
 10
282.5
 20
-92.45
 11
282.892
 21
-92.4705
  0
LINE
  8
0
 10
282.892
 20
-92.4705
 11
283.28
 21
-92.5319
  0
LINE
  8
0
 10
283.28
 20
-92.5319
 11
283.659
 21
-92.6335
  0
LINE
  8
0
 10
283.659
 20
-92.6335
 11
284.025
 21
-92.7742
  0
LINE
  8
0
 10
284.025
 20
-92.7742
 11
284.375
 21
-92.9524
  0
LINE
  8
0
 10
284.375
 20
-92.9524
 11
284.704
 21
-93.1662
  0
LINE
  8
0
 10
284.704
 20
-93.1662
 11
285.009
 21
-93.4132
  0
LINE
  8
0
 10
285.009
 20
-93.4132
 11
285.287
 21
-93.6908
  0
LINE
  8
0
 10
285.287
 20
-93.6908
 11
285.534
 21
-93.9958
  0
LINE
  8
0
 10
285.534
 20
-93.9958
 11
285.748
 21
-94.325
  0
LINE
  8
0
 10
285.748
 20
-94.325
 11
285.926
 21
-94.6747
  0
LINE
  8
0
 10
285.926
 20
-94.6747
 11
286.066
 21
-95.0412
  0
LINE
  8
0
 10
286.066
 20
-95.0412
 11
286.168
 21
-95.4203
  0
LINE
  8
0
 10
286.168
 20
-95.4203
 11
286.229
 21
-95.808
  0
LINE
  8
0
 10
286.229
 20
-95.808
 11
286.25
 21
-96.2
  0
LINE
  8
0
 10
286.25
 20
-96.2
 11
286.229
 21
-96.592
  0
LINE
  8
0
 10
286.229
 20
-96.592
 11
286.168
 21
-96.9797
  0
LINE
  8
0
 10
286.168
 20
-96.9797
 11
286.066
 21
-97.3588
  0
LINE
  8
0
 10
286.066
 20
-97.3588
 11
285.926
 21
-97.7253
  0
LINE
  8
0
 10
285.926
 20
-97.7253
 11
285.748
 21
-98.075
  0
LINE
  8
0
 10
285.748
 20
-98.075
 11
285.534
 21
-98.4042
  0
LINE
  8
0
 10
285.534
 20
-98.4042
 11
285.287
 21
-98.7092
  0
LINE
  8
0
 10
285.287
 20
-98.7092
 11
285.009
 21
-98.9868
  0
LINE
  8
0
 10
285.009
 20
-98.9868
 11
284.704
 21
-99.2338
  0
LINE
  8
0
 10
284.704
 20
-99.2338
 11
284.375
 21
-99.4476
  0
LINE
  8
0
 10
284.375
 20
-99.4476
 11
284.025
 21
-99.6258
  0
LINE
  8
0
 10
284.025
 20
-99.6258
 11
283.659
 21
-99.7665
  0
LINE
  8
0
 10
283.659
 20
-99.7665
 11
283.28
 21
-99.8681
  0
LINE
  8
0
 10
283.28
 20
-99.8681
 11
282.892
 21
-99.9295
  0
LINE
  8
0
 10
282.892
 20
-99.9295
 11
282.5
 21
-99.95
  0
LINE
  8
0
 10
282.5
 20
-99.95
 11
282.108
 21
-99.9295
  0
LINE
  8
0
 10
219.877
 20
-97.8454
 11
219.633
 21
-97.8086
  0
LINE
  8
0
 10
219.633
 20
-97.8086
 11
219.397
 21
-97.7359
  0
LINE
  8
0
 10
219.397
 20
-97.7359
 11
219.175
 21
-97.6289
  0
LINE
  8
0
 10
219.175
 20
-97.6289
 11
218.971
 21
-97.49
  0
LINE
  8
0
 10
218.971
 20
-97.49
 11
218.79
 21
-97.3223
  0
LINE
  8
0
 10
218.79
 20
-97.3223
 11
218.637
 21
-97.1295
  0
LINE
  8
0
 10
218.637
 20
-97.1295
 11
218.513
 21
-96.9159
  0
LINE
  8
0
 10
218.513
 20
-96.9159
 11
218.423
 21
-96.6863
  0
LINE
  8
0
 10
218.423
 20
-96.6863
 11
218.368
 21
-96.4459
  0
LINE
  8
0
 10
218.368
 20
-96.4459
 11
218.35
 21
-96.2
  0
LINE
  8
0
 10
218.35
 20
-96.2
 11
218.368
 21
-95.9541
  0
LINE
  8
0
 10
218.368
 20
-95.9541
 11
218.423
 21
-95.7137
  0
LINE
  8
0
 10
218.423
 20
-95.7137
 11
218.513
 21
-95.4841
  0
LINE
  8
0
 10
218.513
 20
-95.4841
 11
218.637
 21
-95.2705
  0
LINE
  8
0
 10
218.637
 20
-95.2705
 11
218.79
 21
-95.0777
  0
LINE
  8
0
 10
218.79
 20
-95.0777
 11
218.971
 21
-94.91
  0
LINE
  8
0
 10
218.971
 20
-94.91
 11
219.175
 21
-94.7711
  0
LINE
  8
0
 10
219.175
 20
-94.7711
 11
219.397
 21
-94.664
  0
LINE
  8
0
 10
219.397
 20
-94.664
 11
219.633
 21
-94.5914
  0
LINE
  8
0
 10
219.633
 20
-94.5914
 11
219.877
 21
-94.5546
  0
LINE
  8
0
 10
219.877
 20
-94.5546
 11
260.123
 21
-94.5546
  0
LINE
  8
0
 10
260.123
 20
-94.5546
 11
260.367
 21
-94.5914
  0
LINE
  8
0
 10
260.367
 20
-94.5914
 11
260.603
 21
-94.664
  0
LINE
  8
0
 10
260.603
 20
-94.664
 11
260.825
 21
-94.7711
  0
LINE
  8
0
 10
260.825
 20
-94.7711
 11
261.029
 21
-94.91
  0
LINE
  8
0
 10
261.029
 20
-94.91
 11
261.21
 21
-95.0777
  0
LINE
  8
0
 10
261.21
 20
-95.0777
 11
261.363
 21
-95.2705
  0
LINE
  8
0
 10
261.363
 20
-95.2705
 11
261.487
 21
-95.4841
  0
LINE
  8
0
 10
261.487
 20
-95.4841
 11
261.577
 21
-95.7137
  0
LINE
  8
0
 10
261.577
 20
-95.7137
 11
261.632
 21
-95.9541
  0
LINE
  8
0
 10
261.632
 20
-95.9541
 11
261.65
 21
-96.2
  0
LINE
  8
0
 10
261.65
 20
-96.2
 11
261.632
 21
-96.4459
  0
LINE
  8
0
 10
261.632
 20
-96.4459
 11
261.577
 21
-96.6863
  0
LINE
  8
0
 10
261.577
 20
-96.6863
 11
261.487
 21
-96.9159
  0
LINE
  8
0
 10
261.487
 20
-96.9159
 11
261.363
 21
-97.1295
  0
LINE
  8
0
 10
261.363
 20
-97.1295
 11
261.21
 21
-97.3223
  0
LINE
  8
0
 10
261.21
 20
-97.3223
 11
261.029
 21
-97.49
  0
LINE
  8
0
 10
261.029
 20
-97.49
 11
260.825
 21
-97.6289
  0
LINE
  8
0
 10
260.825
 20
-97.6289
 11
260.603
 21
-97.7359
  0
LINE
  8
0
 10
260.603
 20
-97.7359
 11
260.367
 21
-97.8086
  0
LINE
  8
0
 10
260.367
 20
-97.8086
 11
260.123
 21
-97.8454
  0
LINE
  8
0
 10
260.123
 20
-97.8454
 11
219.877
 21
-97.8454
  0
LINE
  8
0
 10
-164.123
 20
-97.8454
 11
-164.367
 21
-97.8086
  0
LINE
  8
0
 10
-164.367
 20
-97.8086
 11
-164.603
 21
-97.7359
  0
LINE
  8
0
 10
-164.603
 20
-97.7359
 11
-164.825
 21
-97.6289
  0
LINE
  8
0
 10
-164.825
 20
-97.6289
 11
-165.029
 21
-97.49
  0
LINE
  8
0
 10
-165.029
 20
-97.49
 11
-165.21
 21
-97.3223
  0
LINE
  8
0
 10
-165.21
 20
-97.3223
 11
-165.363
 21
-97.1295
  0
LINE
  8
0
 10
-165.363
 20
-97.1295
 11
-165.487
 21
-96.9159
  0
LINE
  8
0
 10
-165.487
 20
-96.9159
 11
-165.577
 21
-96.6863
  0
LINE
  8
0
 10
-165.577
 20
-96.6863
 11
-165.632
 21
-96.4459
  0
LINE
  8
0
 10
-165.632
 20
-96.4459
 11
-165.65
 21
-96.2
  0
LINE
  8
0
 10
-165.65
 20
-96.2
 11
-165.632
 21
-95.9541
  0
LINE
  8
0
 10
-165.632
 20
-95.9541
 11
-165.577
 21
-95.7137
  0
LINE
  8
0
 10
-165.577
 20
-95.7137
 11
-165.487
 21
-95.4841
  0
LINE
  8
0
 10
-165.487
 20
-95.4841
 11
-165.363
 21
-95.2705
  0
LINE
  8
0
 10
-165.363
 20
-95.2705
 11
-165.21
 21
-95.0777
  0
LINE
  8
0
 10
-165.21
 20
-95.0777
 11
-165.029
 21
-94.91
  0
LINE
  8
0
 10
-165.029
 20
-94.91
 11
-164.825
 21
-94.7711
  0
LINE
  8
0
 10
-164.825
 20
-94.7711
 11
-164.603
 21
-94.664
  0
LINE
  8
0
 10
-164.603
 20
-94.664
 11
-164.367
 21
-94.5914
  0
LINE
  8
0
 10
-164.367
 20
-94.5914
 11
-164.123
 21
-94.5546
  0
LINE
  8
0
 10
-164.123
 20
-94.5546
 11
-123.877
 21
-94.5546
  0
LINE
  8
0
 10
-123.877
 20
-94.5546
 11
-123.633
 21
-94.5914
  0
LINE
  8
0
 10
-123.633
 20
-94.5914
 11
-123.397
 21
-94.664
  0
LINE
  8
0
 10
-123.397
 20
-94.664
 11
-123.175
 21
-94.7711
  0
LINE
  8
0
 10
-123.175
 20
-94.7711
 11
-122.971
 21
-94.91
  0
LINE
  8
0
 10
-122.971
 20
-94.91
 11
-122.79
 21
-95.0777
  0
LINE
  8
0
 10
-122.79
 20
-95.0777
 11
-122.637
 21
-95.2705
  0
LINE
  8
0
 10
-122.637
 20
-95.2705
 11
-122.513
 21
-95.4841
  0
LINE
  8
0
 10
-122.513
 20
-95.4841
 11
-122.423
 21
-95.7137
  0
LINE
  8
0
 10
-122.423
 20
-95.7137
 11
-122.368
 21
-95.9541
  0
LINE
  8
0
 10
-122.368
 20
-95.9541
 11
-122.35
 21
-96.2
  0
LINE
  8
0
 10
-122.35
 20
-96.2
 11
-122.368
 21
-96.4459
  0
LINE
  8
0
 10
-122.368
 20
-96.4459
 11
-122.423
 21
-96.6863
  0
LINE
  8
0
 10
-122.423
 20
-96.6863
 11
-122.513
 21
-96.9159
  0
LINE
  8
0
 10
-122.513
 20
-96.9159
 11
-122.637
 21
-97.1295
  0
LINE
  8
0
 10
-122.637
 20
-97.1295
 11
-122.79
 21
-97.3223
  0
LINE
  8
0
 10
-122.79
 20
-97.3223
 11
-122.971
 21
-97.49
  0
LINE
  8
0
 10
-122.971
 20
-97.49
 11
-123.175
 21
-97.6289
  0
LINE
  8
0
 10
-123.175
 20
-97.6289
 11
-123.397
 21
-97.7359
  0
LINE
  8
0
 10
-123.397
 20
-97.7359
 11
-123.633
 21
-97.8086
  0
LINE
  8
0
 10
-123.633
 20
-97.8086
 11
-123.877
 21
-97.8454
  0
LINE
  8
0
 10
-123.877
 20
-97.8454
 11
-164.123
 21
-97.8454
  0
LINE
  8
0
 10
-68.1233
 20
-97.8454
 11
-68.3672
 21
-97.8086
  0
LINE
  8
0
 10
-68.3672
 20
-97.8086
 11
-68.6028
 21
-97.7359
  0
LINE
  8
0
 10
-68.6028
 20
-97.7359
 11
-68.825
 21
-97.6289
  0
LINE
  8
0
 10
-68.825
 20
-97.6289
 11
-69.0287
 21
-97.49
  0
LINE
  8
0
 10
-69.0287
 20
-97.49
 11
-69.2095
 21
-97.3223
  0
LINE
  8
0
 10
-69.2095
 20
-97.3223
 11
-69.3633
 21
-97.1295
  0
LINE
  8
0
 10
-69.3633
 20
-97.1295
 11
-69.4866
 21
-96.9159
  0
LINE
  8
0
 10
-69.4866
 20
-96.9159
 11
-69.5767
 21
-96.6863
  0
LINE
  8
0
 10
-69.5767
 20
-96.6863
 11
-69.6316
 21
-96.4459
  0
LINE
  8
0
 10
-69.6316
 20
-96.4459
 11
-69.65
 21
-96.2
  0
LINE
  8
0
 10
-69.65
 20
-96.2
 11
-69.6316
 21
-95.9541
  0
LINE
  8
0
 10
-69.6316
 20
-95.9541
 11
-69.5767
 21
-95.7137
  0
LINE
  8
0
 10
-69.5767
 20
-95.7137
 11
-69.4866
 21
-95.4841
  0
LINE
  8
0
 10
-69.4866
 20
-95.4841
 11
-69.3633
 21
-95.2705
  0
LINE
  8
0
 10
-69.3633
 20
-95.2705
 11
-69.2095
 21
-95.0777
  0
LINE
  8
0
 10
-69.2095
 20
-95.0777
 11
-69.0287
 21
-94.91
  0
LINE
  8
0
 10
-69.0287
 20
-94.91
 11
-68.825
 21
-94.7711
  0
LINE
  8
0
 10
-68.825
 20
-94.7711
 11
-68.6028
 21
-94.664
  0
LINE
  8
0
 10
-68.6028
 20
-94.664
 11
-68.3672
 21
-94.5914
  0
LINE
  8
0
 10
-68.3672
 20
-94.5914
 11
-68.1233
 21
-94.5546
  0
LINE
  8
0
 10
-68.1233
 20
-94.5546
 11
-27.8767
 21
-94.5546
  0
LINE
  8
0
 10
-27.8767
 20
-94.5546
 11
-27.6328
 21
-94.5914
  0
LINE
  8
0
 10
-27.6328
 20
-94.5914
 11
-27.3972
 21
-94.664
  0
LINE
  8
0
 10
-27.3972
 20
-94.664
 11
-27.175
 21
-94.7711
  0
LINE
  8
0
 10
-27.175
 20
-94.7711
 11
-26.9712
 21
-94.91
  0
LINE
  8
0
 10
-26.9712
 20
-94.91
 11
-26.7905
 21
-95.0777
  0
LINE
  8
0
 10
-26.7905
 20
-95.0777
 11
-26.6367
 21
-95.2705
  0
LINE
  8
0
 10
-26.6367
 20
-95.2705
 11
-26.5134
 21
-95.4841
  0
LINE
  8
0
 10
-26.5134
 20
-95.4841
 11
-26.4233
 21
-95.7137
  0
LINE
  8
0
 10
-26.4233
 20
-95.7137
 11
-26.3684
 21
-95.9541
  0
LINE
  8
0
 10
-26.3684
 20
-95.9541
 11
-26.35
 21
-96.2
  0
LINE
  8
0
 10
-26.35
 20
-96.2
 11
-26.3684
 21
-96.4459
  0
LINE
  8
0
 10
-26.3684
 20
-96.4459
 11
-26.4233
 21
-96.6863
  0
LINE
  8
0
 10
-26.4233
 20
-96.6863
 11
-26.5134
 21
-96.9159
  0
LINE
  8
0
 10
-26.5134
 20
-96.9159
 11
-26.6367
 21
-97.1295
  0
LINE
  8
0
 10
-26.6367
 20
-97.1295
 11
-26.7905
 21
-97.3223
  0
LINE
  8
0
 10
-26.7905
 20
-97.3223
 11
-26.9712
 21
-97.49
  0
LINE
  8
0
 10
-26.9712
 20
-97.49
 11
-27.175
 21
-97.6289
  0
LINE
  8
0
 10
-27.175
 20
-97.6289
 11
-27.3972
 21
-97.7359
  0
LINE
  8
0
 10
-27.3972
 20
-97.7359
 11
-27.6328
 21
-97.8086
  0
LINE
  8
0
 10
-27.6328
 20
-97.8086
 11
-27.8767
 21
-97.8454
  0
LINE
  8
0
 10
-27.8767
 20
-97.8454
 11
-68.1233
 21
-97.8454
  0
LINE
  8
0
 10
27.8767
 20
-97.8454
 11
27.6328
 21
-97.8086
  0
LINE
  8
0
 10
27.6328
 20
-97.8086
 11
27.3972
 21
-97.7359
  0
LINE
  8
0
 10
27.3972
 20
-97.7359
 11
27.175
 21
-97.6289
  0
LINE
  8
0
 10
27.175
 20
-97.6289
 11
26.9712
 21
-97.49
  0
LINE
  8
0
 10
26.9712
 20
-97.49
 11
26.7905
 21
-97.3223
  0
LINE
  8
0
 10
26.7905
 20
-97.3223
 11
26.6367
 21
-97.1295
  0
LINE
  8
0
 10
26.6367
 20
-97.1295
 11
26.5134
 21
-96.9159
  0
LINE
  8
0
 10
26.5134
 20
-96.9159
 11
26.4233
 21
-96.6863
  0
LINE
  8
0
 10
26.4233
 20
-96.6863
 11
26.3684
 21
-96.4459
  0
LINE
  8
0
 10
26.3684
 20
-96.4459
 11
26.35
 21
-96.2
  0
LINE
  8
0
 10
26.35
 20
-96.2
 11
26.3684
 21
-95.9541
  0
LINE
  8
0
 10
26.3684
 20
-95.9541
 11
26.4233
 21
-95.7137
  0
LINE
  8
0
 10
26.4233
 20
-95.7137
 11
26.5134
 21
-95.4841
  0
LINE
  8
0
 10
26.5134
 20
-95.4841
 11
26.6367
 21
-95.2705
  0
LINE
  8
0
 10
26.6367
 20
-95.2705
 11
26.7905
 21
-95.0777
  0
LINE
  8
0
 10
26.7905
 20
-95.0777
 11
26.9712
 21
-94.91
  0
LINE
  8
0
 10
26.9712
 20
-94.91
 11
27.175
 21
-94.7711
  0
LINE
  8
0
 10
27.175
 20
-94.7711
 11
27.3972
 21
-94.664
  0
LINE
  8
0
 10
27.3972
 20
-94.664
 11
27.6328
 21
-94.5914
  0
LINE
  8
0
 10
27.6328
 20
-94.5914
 11
27.8767
 21
-94.5546
  0
LINE
  8
0
 10
27.8767
 20
-94.5546
 11
68.1233
 21
-94.5546
  0
LINE
  8
0
 10
68.1233
 20
-94.5546
 11
68.3672
 21
-94.5914
  0
LINE
  8
0
 10
68.3672
 20
-94.5914
 11
68.6028
 21
-94.664
  0
LINE
  8
0
 10
68.6028
 20
-94.664
 11
68.825
 21
-94.7711
  0
LINE
  8
0
 10
68.825
 20
-94.7711
 11
69.0287
 21
-94.91
  0
LINE
  8
0
 10
69.0287
 20
-94.91
 11
69.2095
 21
-95.0777
  0
LINE
  8
0
 10
69.2095
 20
-95.0777
 11
69.3633
 21
-95.2705
  0
LINE
  8
0
 10
69.3633
 20
-95.2705
 11
69.4866
 21
-95.4841
  0
LINE
  8
0
 10
69.4866
 20
-95.4841
 11
69.5767
 21
-95.7137
  0
LINE
  8
0
 10
69.5767
 20
-95.7137
 11
69.6316
 21
-95.9541
  0
LINE
  8
0
 10
69.6316
 20
-95.9541
 11
69.65
 21
-96.2
  0
LINE
  8
0
 10
69.65
 20
-96.2
 11
69.6316
 21
-96.4459
  0
LINE
  8
0
 10
69.6316
 20
-96.4459
 11
69.5767
 21
-96.6863
  0
LINE
  8
0
 10
69.5767
 20
-96.6863
 11
69.4866
 21
-96.9159
  0
LINE
  8
0
 10
69.4866
 20
-96.9159
 11
69.3633
 21
-97.1295
  0
LINE
  8
0
 10
69.3633
 20
-97.1295
 11
69.2095
 21
-97.3223
  0
LINE
  8
0
 10
69.2095
 20
-97.3223
 11
69.0287
 21
-97.49
  0
LINE
  8
0
 10
69.0287
 20
-97.49
 11
68.825
 21
-97.6289
  0
LINE
  8
0
 10
68.825
 20
-97.6289
 11
68.6028
 21
-97.7359
  0
LINE
  8
0
 10
68.6028
 20
-97.7359
 11
68.3672
 21
-97.8086
  0
LINE
  8
0
 10
68.3672
 20
-97.8086
 11
68.1233
 21
-97.8454
  0
LINE
  8
0
 10
68.1233
 20
-97.8454
 11
27.8767
 21
-97.8454
  0
LINE
  8
0
 10
123.877
 20
-97.8454
 11
123.633
 21
-97.8086
  0
LINE
  8
0
 10
123.633
 20
-97.8086
 11
123.397
 21
-97.7359
  0
LINE
  8
0
 10
123.397
 20
-97.7359
 11
123.175
 21
-97.6289
  0
LINE
  8
0
 10
123.175
 20
-97.6289
 11
122.971
 21
-97.49
  0
LINE
  8
0
 10
122.971
 20
-97.49
 11
122.79
 21
-97.3223
  0
LINE
  8
0
 10
122.79
 20
-97.3223
 11
122.637
 21
-97.1295
  0
LINE
  8
0
 10
122.637
 20
-97.1295
 11
122.513
 21
-96.9159
  0
LINE
  8
0
 10
122.513
 20
-96.9159
 11
122.423
 21
-96.6863
  0
LINE
  8
0
 10
122.423
 20
-96.6863
 11
122.368
 21
-96.4459
  0
LINE
  8
0
 10
122.368
 20
-96.4459
 11
122.35
 21
-96.2
  0
LINE
  8
0
 10
122.35
 20
-96.2
 11
122.368
 21
-95.9541
  0
LINE
  8
0
 10
122.368
 20
-95.9541
 11
122.423
 21
-95.7137
  0
LINE
  8
0
 10
122.423
 20
-95.7137
 11
122.513
 21
-95.4841
  0
LINE
  8
0
 10
122.513
 20
-95.4841
 11
122.637
 21
-95.2705
  0
LINE
  8
0
 10
122.637
 20
-95.2705
 11
122.79
 21
-95.0777
  0
LINE
  8
0
 10
122.79
 20
-95.0777
 11
122.971
 21
-94.91
  0
LINE
  8
0
 10
122.971
 20
-94.91
 11
123.175
 21
-94.7711
  0
LINE
  8
0
 10
123.175
 20
-94.7711
 11
123.397
 21
-94.664
  0
LINE
  8
0
 10
123.397
 20
-94.664
 11
123.633
 21
-94.5914
  0
LINE
  8
0
 10
123.633
 20
-94.5914
 11
123.877
 21
-94.5546
  0
LINE
  8
0
 10
123.877
 20
-94.5546
 11
164.123
 21
-94.5546
  0
LINE
  8
0
 10
164.123
 20
-94.5546
 11
164.367
 21
-94.5914
  0
LINE
  8
0
 10
164.367
 20
-94.5914
 11
164.603
 21
-94.664
  0
LINE
  8
0
 10
164.603
 20
-94.664
 11
164.825
 21
-94.7711
  0
LINE
  8
0
 10
164.825
 20
-94.7711
 11
165.029
 21
-94.91
  0
LINE
  8
0
 10
165.029
 20
-94.91
 11
165.21
 21
-95.0777
  0
LINE
  8
0
 10
165.21
 20
-95.0777
 11
165.363
 21
-95.2705
  0
LINE
  8
0
 10
165.363
 20
-95.2705
 11
165.487
 21
-95.4841
  0
LINE
  8
0
 10
165.487
 20
-95.4841
 11
165.577
 21
-95.7137
  0
LINE
  8
0
 10
165.577
 20
-95.7137
 11
165.632
 21
-95.9541
  0
LINE
  8
0
 10
165.632
 20
-95.9541
 11
165.65
 21
-96.2
  0
LINE
  8
0
 10
165.65
 20
-96.2
 11
165.632
 21
-96.4459
  0
LINE
  8
0
 10
165.632
 20
-96.4459
 11
165.577
 21
-96.6863
  0
LINE
  8
0
 10
165.577
 20
-96.6863
 11
165.487
 21
-96.9159
  0
LINE
  8
0
 10
165.487
 20
-96.9159
 11
165.363
 21
-97.1295
  0
LINE
  8
0
 10
165.363
 20
-97.1295
 11
165.21
 21
-97.3223
  0
LINE
  8
0
 10
165.21
 20
-97.3223
 11
165.029
 21
-97.49
  0
LINE
  8
0
 10
165.029
 20
-97.49
 11
164.825
 21
-97.6289
  0
LINE
  8
0
 10
164.825
 20
-97.6289
 11
164.603
 21
-97.7359
  0
LINE
  8
0
 10
164.603
 20
-97.7359
 11
164.367
 21
-97.8086
  0
LINE
  8
0
 10
164.367
 20
-97.8086
 11
164.123
 21
-97.8454
  0
LINE
  8
0
 10
164.123
 20
-97.8454
 11
123.877
 21
-97.8454
  0
LINE
  8
0
 10
-260.123
 20
-97.8454
 11
-260.367
 21
-97.8086
  0
LINE
  8
0
 10
-260.367
 20
-97.8086
 11
-260.603
 21
-97.7359
  0
LINE
  8
0
 10
-260.603
 20
-97.7359
 11
-260.825
 21
-97.6289
  0
LINE
  8
0
 10
-260.825
 20
-97.6289
 11
-261.029
 21
-97.49
  0
LINE
  8
0
 10
-261.029
 20
-97.49
 11
-261.21
 21
-97.3223
  0
LINE
  8
0
 10
-261.21
 20
-97.3223
 11
-261.363
 21
-97.1295
  0
LINE
  8
0
 10
-261.363
 20
-97.1295
 11
-261.487
 21
-96.9159
  0
LINE
  8
0
 10
-261.487
 20
-96.9159
 11
-261.577
 21
-96.6863
  0
LINE
  8
0
 10
-261.577
 20
-96.6863
 11
-261.632
 21
-96.4459
  0
LINE
  8
0
 10
-261.632
 20
-96.4459
 11
-261.65
 21
-96.2
  0
LINE
  8
0
 10
-261.65
 20
-96.2
 11
-261.632
 21
-95.9541
  0
LINE
  8
0
 10
-261.632
 20
-95.9541
 11
-261.577
 21
-95.7137
  0
LINE
  8
0
 10
-261.577
 20
-95.7137
 11
-261.487
 21
-95.4841
  0
LINE
  8
0
 10
-261.487
 20
-95.4841
 11
-261.363
 21
-95.2705
  0
LINE
  8
0
 10
-261.363
 20
-95.2705
 11
-261.21
 21
-95.0777
  0
LINE
  8
0
 10
-261.21
 20
-95.0777
 11
-261.029
 21
-94.91
  0
LINE
  8
0
 10
-261.029
 20
-94.91
 11
-260.825
 21
-94.7711
  0
LINE
  8
0
 10
-260.825
 20
-94.7711
 11
-260.603
 21
-94.664
  0
LINE
  8
0
 10
-260.603
 20
-94.664
 11
-260.367
 21
-94.5914
  0
LINE
  8
0
 10
-260.367
 20
-94.5914
 11
-260.123
 21
-94.5546
  0
LINE
  8
0
 10
-260.123
 20
-94.5546
 11
-219.877
 21
-94.5546
  0
LINE
  8
0
 10
-219.877
 20
-94.5546
 11
-219.633
 21
-94.5914
  0
LINE
  8
0
 10
-219.633
 20
-94.5914
 11
-219.397
 21
-94.664
  0
LINE
  8
0
 10
-219.397
 20
-94.664
 11
-219.175
 21
-94.7711
  0
LINE
  8
0
 10
-219.175
 20
-94.7711
 11
-218.971
 21
-94.91
  0
LINE
  8
0
 10
-218.971
 20
-94.91
 11
-218.79
 21
-95.0777
  0
LINE
  8
0
 10
-218.79
 20
-95.0777
 11
-218.637
 21
-95.2705
  0
LINE
  8
0
 10
-218.637
 20
-95.2705
 11
-218.513
 21
-95.4841
  0
LINE
  8
0
 10
-218.513
 20
-95.4841
 11
-218.423
 21
-95.7137
  0
LINE
  8
0
 10
-218.423
 20
-95.7137
 11
-218.368
 21
-95.9541
  0
LINE
  8
0
 10
-218.368
 20
-95.9541
 11
-218.35
 21
-96.2
  0
LINE
  8
0
 10
-218.35
 20
-96.2
 11
-218.368
 21
-96.4459
  0
LINE
  8
0
 10
-218.368
 20
-96.4459
 11
-218.423
 21
-96.6863
  0
LINE
  8
0
 10
-218.423
 20
-96.6863
 11
-218.513
 21
-96.9159
  0
LINE
  8
0
 10
-218.513
 20
-96.9159
 11
-218.637
 21
-97.1295
  0
LINE
  8
0
 10
-218.637
 20
-97.1295
 11
-218.79
 21
-97.3223
  0
LINE
  8
0
 10
-218.79
 20
-97.3223
 11
-218.971
 21
-97.49
  0
LINE
  8
0
 10
-218.971
 20
-97.49
 11
-219.175
 21
-97.6289
  0
LINE
  8
0
 10
-219.175
 20
-97.6289
 11
-219.397
 21
-97.7359
  0
LINE
  8
0
 10
-219.397
 20
-97.7359
 11
-219.633
 21
-97.8086
  0
LINE
  8
0
 10
-219.633
 20
-97.8086
 11
-219.877
 21
-97.8454
  0
LINE
  8
0
 10
-219.877
 20
-97.8454
 11
-260.123
 21
-97.8454
  0
LINE
  8
0
 10
-278.832
 20
95.4203
 11
-278.934
 21
95.0412
  0
LINE
  8
0
 10
-278.934
 20
95.0412
 11
-279.074
 21
94.6747
  0
LINE
  8
0
 10
-279.074
 20
94.6747
 11
-279.252
 21
94.325
  0
LINE
  8
0
 10
-279.252
 20
94.325
 11
-279.466
 21
93.9958
  0
LINE
  8
0
 10
-279.466
 20
93.9958
 11
-279.713
 21
93.6908
  0
LINE
  8
0
 10
-279.713
 20
93.6908
 11
-279.991
 21
93.4132
  0
LINE
  8
0
 10
-279.991
 20
93.4132
 11
-280.296
 21
93.1662
  0
LINE
  8
0
 10
-280.296
 20
93.1662
 11
-280.625
 21
92.9524
  0
LINE
  8
0
 10
-280.625
 20
92.9524
 11
-280.975
 21
92.7742
  0
LINE
  8
0
 10
-280.975
 20
92.7742
 11
-281.341
 21
92.6335
  0
LINE
  8
0
 10
-281.341
 20
92.6335
 11
-281.72
 21
92.5319
  0
LINE
  8
0
 10
-281.72
 20
92.5319
 11
-282.108
 21
92.4705
  0
LINE
  8
0
 10
-282.108
 20
92.4705
 11
-282.5
 21
92.45
  0
LINE
  8
0
 10
-282.5
 20
92.45
 11
-282.892
 21
92.4705
  0
LINE
  8
0
 10
-282.892
 20
92.4705
 11
-283.28
 21
92.5319
  0
LINE
  8
0
 10
-283.28
 20
92.5319
 11
-283.659
 21
92.6335
  0
LINE
  8
0
 10
-283.659
 20
92.6335
 11
-284.025
 21
92.7742
  0
LINE
  8
0
 10
-284.025
 20
92.7742
 11
-284.375
 21
92.9524
  0
LINE
  8
0
 10
-284.375
 20
92.9524
 11
-284.704
 21
93.1662
  0
LINE
  8
0
 10
-284.704
 20
93.1662
 11
-285.009
 21
93.4132
  0
LINE
  8
0
 10
-285.009
 20
93.4132
 11
-285.287
 21
93.6908
  0
LINE
  8
0
 10
-285.287
 20
93.6908
 11
-285.534
 21
93.9958
  0
LINE
  8
0
 10
-285.534
 20
93.9958
 11
-285.748
 21
94.325
  0
LINE
  8
0
 10
-285.748
 20
94.325
 11
-285.926
 21
94.6747
  0
LINE
  8
0
 10
-285.926
 20
94.6747
 11
-286.066
 21
95.0412
  0
LINE
  8
0
 10
-286.066
 20
95.0412
 11
-286.168
 21
95.4203
  0
LINE
  8
0
 10
-286.168
 20
95.4203
 11
-286.229
 21
95.808
  0
LINE
  8
0
 10
-286.229
 20
95.808
 11
-286.25
 21
96.2
  0
LINE
  8
0
 10
-286.25
 20
96.2
 11
-286.229
 21
96.592
  0
LINE
  8
0
 10
-286.229
 20
96.592
 11
-286.168
 21
96.9797
  0
LINE
  8
0
 10
-286.168
 20
96.9797
 11
-286.066
 21
97.3588
  0
LINE
  8
0
 10
-286.066
 20
97.3588
 11
-285.926
 21
97.7253
  0
LINE
  8
0
 10
-285.926
 20
97.7253
 11
-285.748
 21
98.075
  0
LINE
  8
0
 10
-285.748
 20
98.075
 11
-285.534
 21
98.4042
  0
LINE
  8
0
 10
-285.534
 20
98.4042
 11
-285.287
 21
98.7092
  0
LINE
  8
0
 10
-285.287
 20
98.7092
 11
-285.009
 21
98.9868
  0
LINE
  8
0
 10
-285.009
 20
98.9868
 11
-284.704
 21
99.2338
  0
LINE
  8
0
 10
-284.704
 20
99.2338
 11
-284.375
 21
99.4476
  0
LINE
  8
0
 10
-284.375
 20
99.4476
 11
-284.025
 21
99.6258
  0
LINE
  8
0
 10
-284.025
 20
99.6258
 11
-283.659
 21
99.7665
  0
LINE
  8
0
 10
-283.659
 20
99.7665
 11
-283.28
 21
99.8681
  0
LINE
  8
0
 10
-283.28
 20
99.8681
 11
-282.892
 21
99.9295
  0
LINE
  8
0
 10
-282.892
 20
99.9295
 11
-282.5
 21
99.95
  0
LINE
  8
0
 10
-282.5
 20
99.95
 11
-282.108
 21
99.9295
  0
LINE
  8
0
 10
-282.108
 20
99.9295
 11
-281.72
 21
99.8681
  0
LINE
  8
0
 10
-281.72
 20
99.8681
 11
-281.341
 21
99.7665
  0
LINE
  8
0
 10
-281.341
 20
99.7665
 11
-280.975
 21
99.6258
  0
LINE
  8
0
 10
-280.975
 20
99.6258
 11
-280.625
 21
99.4476
  0
LINE
  8
0
 10
-280.625
 20
99.4476
 11
-280.296
 21
99.2338
  0
LINE
  8
0
 10
-280.296
 20
99.2338
 11
-279.991
 21
98.9868
  0
LINE
  8
0
 10
-279.991
 20
98.9868
 11
-279.713
 21
98.7092
  0
LINE
  8
0
 10
-279.713
 20
98.7092
 11
-279.466
 21
98.4042
  0
LINE
  8
0
 10
-279.466
 20
98.4042
 11
-279.252
 21
98.075
  0
LINE
  8
0
 10
-279.252
 20
98.075
 11
-279.074
 21
97.7253
  0
LINE
  8
0
 10
-279.074
 20
97.7253
 11
-278.934
 21
97.3588
  0
LINE
  8
0
 10
-278.934
 20
97.3588
 11
-278.832
 21
96.9797
  0
LINE
  8
0
 10
-278.832
 20
96.9797
 11
-278.771
 21
96.592
  0
LINE
  8
0
 10
-278.771
 20
96.592
 11
-278.75
 21
96.2
  0
LINE
  8
0
 10
-278.75
 20
96.2
 11
-278.771
 21
95.808
  0
LINE
  8
0
 10
-278.771
 20
95.808
 11
-278.832
 21
95.4203
  0
ENDSEC
  0
SECTION
  2
OBJECTS
  0
DICTIONARY
  0
ENDSEC
  0
EOF
