  0
SECTION
  2
BLOCKS
  0
ENDSEC
  0
SECTION
  2
ENTITIES
  0
LINE
  8
0
 10
285.398
 20
-92.3476
 11
285.915
 21
-92.2657
  0
LINE
  8
0
 10
285.915
 20
-92.2657
 11
286.42
 21
-92.1303
  0
LINE
  8
0
 10
286.42
 20
-92.1303
 11
286.909
 21
-91.9427
  0
LINE
  8
0
 10
286.909
 20
-91.9427
 11
287.375
 21
-91.7051
  0
LINE
  8
0
 10
287.375
 20
-91.7051
 11
287.814
 21
-91.4201
  0
LINE
  8
0
 10
287.814
 20
-91.4201
 11
288.221
 21
-91.0907
  0
LINE
  8
0
 10
288.221
 20
-91.0907
 11
288.591
 21
-90.7207
  0
LINE
  8
0
 10
288.591
 20
-90.7207
 11
288.92
 21
-90.3139
  0
LINE
  8
0
 10
288.92
 20
-90.3139
 11
289.205
 21
-89.875
  0
LINE
  8
0
 10
289.205
 20
-89.875
 11
289.443
 21
-89.4087
  0
LINE
  8
0
 10
289.443
 20
-89.4087
 11
289.63
 21
-88.9201
  0
LINE
  8
0
 10
289.63
 20
-88.9201
 11
289.766
 21
-88.4146
  0
LINE
  8
0
 10
289.766
 20
-88.4146
 11
289.848
 21
-87.8976
  0
LINE
  8
0
 10
289.848
 20
-87.8976
 11
289.875
 21
-87.375
  0
LINE
  8
0
 10
289.875
 20
-87.375
 11
289.875
 21
87.375
  0
LINE
  8
0
 10
289.875
 20
87.375
 11
289.848
 21
87.8976
  0
LINE
  8
0
 10
289.848
 20
87.8976
 11
289.766
 21
88.4146
  0
LINE
  8
0
 10
289.766
 20
88.4146
 11
289.63
 21
88.9201
  0
LINE
  8
0
 10
289.63
 20
88.9201
 11
289.443
 21
89.4087
  0
LINE
  8
0
 10
289.443
 20
89.4087
 11
289.205
 21
89.875
  0
LINE
  8
0
 10
289.205
 20
89.875
 11
288.92
 21
90.3139
  0
LINE
  8
0
 10
288.92
 20
90.3139
 11
288.591
 21
90.7207
  0
LINE
  8
0
 10
288.591
 20
90.7207
 11
288.221
 21
91.0907
  0
LINE
  8
0
 10
288.221
 20
91.0907
 11
287.814
 21
91.4201
  0
LINE
  8
0
 10
287.814
 20
91.4201
 11
287.375
 21
91.7051
  0
LINE
  8
0
 10
287.375
 20
91.7051
 11
286.909
 21
91.9427
  0
LINE
  8
0
 10
286.909
 20
91.9427
 11
286.42
 21
92.1303
  0
LINE
  8
0
 10
286.42
 20
92.1303
 11
285.915
 21
92.2657
  0
LINE
  8
0
 10
285.915
 20
92.2657
 11
285.398
 21
92.3476
  0
LINE
  8
0
 10
285.398
 20
92.3476
 11
284.875
 21
92.375
  0
LINE
  8
0
 10
284.875
 20
92.375
 11
-284.875
 21
92.375
  0
LINE
  8
0
 10
-284.875
 20
92.375
 11
-285.398
 21
92.3476
  0
LINE
  8
0
 10
-285.398
 20
92.3476
 11
-285.915
 21
92.2657
  0
LINE
  8
0
 10
-285.915
 20
92.2657
 11
-286.42
 21
92.1303
  0
LINE
  8
0
 10
-286.42
 20
92.1303
 11
-286.909
 21
91.9427
  0
LINE
  8
0
 10
-286.909
 20
91.9427
 11
-287.375
 21
91.7051
  0
LINE
  8
0
 10
-287.375
 20
91.7051
 11
-287.814
 21
91.4201
  0
LINE
  8
0
 10
-287.814
 20
91.4201
 11
-288.221
 21
91.0907
  0
LINE
  8
0
 10
-288.221
 20
91.0907
 11
-288.591
 21
90.7207
  0
LINE
  8
0
 10
-288.591
 20
90.7207
 11
-288.92
 21
90.3139
  0
LINE
  8
0
 10
-288.92
 20
90.3139
 11
-289.205
 21
89.875
  0
LINE
  8
0
 10
-289.205
 20
89.875
 11
-289.443
 21
89.4087
  0
LINE
  8
0
 10
-289.443
 20
89.4087
 11
-289.63
 21
88.9201
  0
LINE
  8
0
 10
-289.63
 20
88.9201
 11
-289.766
 21
88.4146
  0
LINE
  8
0
 10
-289.766
 20
88.4146
 11
-289.848
 21
87.8976
  0
LINE
  8
0
 10
-289.848
 20
87.8976
 11
-289.875
 21
87.375
  0
LINE
  8
0
 10
-289.875
 20
87.375
 11
-289.875
 21
-87.375
  0
LINE
  8
0
 10
-289.875
 20
-87.375
 11
-289.848
 21
-87.8976
  0
LINE
  8
0
 10
-289.848
 20
-87.8976
 11
-289.766
 21
-88.4146
  0
LINE
  8
0
 10
-289.766
 20
-88.4146
 11
-289.63
 21
-88.9201
  0
LINE
  8
0
 10
-289.63
 20
-88.9201
 11
-289.443
 21
-89.4087
  0
LINE
  8
0
 10
-289.443
 20
-89.4087
 11
-289.205
 21
-89.875
  0
LINE
  8
0
 10
-289.205
 20
-89.875
 11
-288.92
 21
-90.3139
  0
LINE
  8
0
 10
-288.92
 20
-90.3139
 11
-288.591
 21
-90.7207
  0
LINE
  8
0
 10
-288.591
 20
-90.7207
 11
-288.221
 21
-91.0907
  0
LINE
  8
0
 10
-288.221
 20
-91.0907
 11
-287.814
 21
-91.4201
  0
LINE
  8
0
 10
-287.814
 20
-91.4201
 11
-287.375
 21
-91.7051
  0
LINE
  8
0
 10
-287.375
 20
-91.7051
 11
-286.909
 21
-91.9427
  0
LINE
  8
0
 10
-286.909
 20
-91.9427
 11
-286.42
 21
-92.1303
  0
LINE
  8
0
 10
-286.42
 20
-92.1303
 11
-285.915
 21
-92.2657
  0
LINE
  8
0
 10
-285.915
 20
-92.2657
 11
-285.398
 21
-92.3476
  0
LINE
  8
0
 10
-285.398
 20
-92.3476
 11
-284.875
 21
-92.375
  0
LINE
  8
0
 10
-284.875
 20
-92.375
 11
284.875
 21
-92.375
  0
LINE
  8
0
 10
284.875
 20
-92.375
 11
285.398
 21
-92.3476
  0
LINE
  8
0
 10
282.108
 20
81.2705
 11
281.72
 21
81.3319
  0
LINE
  8
0
 10
281.72
 20
81.3319
 11
281.341
 21
81.4335
  0
LINE
  8
0
 10
281.341
 20
81.4335
 11
280.975
 21
81.5742
  0
LINE
  8
0
 10
280.975
 20
81.5742
 11
280.625
 21
81.7524
  0
LINE
  8
0
 10
280.625
 20
81.7524
 11
280.296
 21
81.9662
  0
LINE
  8
0
 10
280.296
 20
81.9662
 11
279.991
 21
82.2132
  0
LINE
  8
0
 10
279.991
 20
82.2132
 11
279.713
 21
82.4908
  0
LINE
  8
0
 10
279.713
 20
82.4908
 11
279.466
 21
82.7958
  0
LINE
  8
0
 10
279.466
 20
82.7958
 11
279.252
 21
83.125
  0
LINE
  8
0
 10
279.252
 20
83.125
 11
279.074
 21
83.4747
  0
LINE
  8
0
 10
279.074
 20
83.4747
 11
278.934
 21
83.8412
  0
LINE
  8
0
 10
278.934
 20
83.8412
 11
278.832
 21
84.2203
  0
LINE
  8
0
 10
278.832
 20
84.2203
 11
278.771
 21
84.608
  0
LINE
  8
0
 10
278.771
 20
84.608
 11
278.75
 21
85
  0
LINE
  8
0
 10
278.75
 20
85
 11
278.771
 21
85.392
  0
LINE
  8
0
 10
278.771
 20
85.392
 11
278.832
 21
85.7797
  0
LINE
  8
0
 10
278.832
 20
85.7797
 11
278.934
 21
86.1588
  0
LINE
  8
0
 10
278.934
 20
86.1588
 11
279.074
 21
86.5253
  0
LINE
  8
0
 10
279.074
 20
86.5253
 11
279.252
 21
86.875
  0
LINE
  8
0
 10
279.252
 20
86.875
 11
279.466
 21
87.2042
  0
LINE
  8
0
 10
279.466
 20
87.2042
 11
279.713
 21
87.5092
  0
LINE
  8
0
 10
279.713
 20
87.5092
 11
279.991
 21
87.7868
  0
LINE
  8
0
 10
279.991
 20
87.7868
 11
280.296
 21
88.0338
  0
LINE
  8
0
 10
280.296
 20
88.0338
 11
280.625
 21
88.2476
  0
LINE
  8
0
 10
280.625
 20
88.2476
 11
280.975
 21
88.4258
  0
LINE
  8
0
 10
280.975
 20
88.4258
 11
281.341
 21
88.5665
  0
LINE
  8
0
 10
281.341
 20
88.5665
 11
281.72
 21
88.668
  0
LINE
  8
0
 10
281.72
 20
88.668
 11
282.108
 21
88.7294
  0
LINE
  8
0
 10
282.108
 20
88.7294
 11
282.5
 21
88.75
  0
LINE
  8
0
 10
282.5
 20
88.75
 11
282.892
 21
88.7294
  0
LINE
  8
0
 10
282.892
 20
88.7294
 11
283.28
 21
88.668
  0
LINE
  8
0
 10
283.28
 20
88.668
 11
283.659
 21
88.5665
  0
LINE
  8
0
 10
283.659
 20
88.5665
 11
284.025
 21
88.4258
  0
LINE
  8
0
 10
284.025
 20
88.4258
 11
284.375
 21
88.2476
  0
LINE
  8
0
 10
284.375
 20
88.2476
 11
284.704
 21
88.0338
  0
LINE
  8
0
 10
284.704
 20
88.0338
 11
285.009
 21
87.7868
  0
LINE
  8
0
 10
285.009
 20
87.7868
 11
285.287
 21
87.5092
  0
LINE
  8
0
 10
285.287
 20
87.5092
 11
285.534
 21
87.2042
  0
LINE
  8
0
 10
285.534
 20
87.2042
 11
285.748
 21
86.875
  0
LINE
  8
0
 10
285.748
 20
86.875
 11
285.926
 21
86.5253
  0
LINE
  8
0
 10
285.926
 20
86.5253
 11
286.066
 21
86.1588
  0
LINE
  8
0
 10
286.066
 20
86.1588
 11
286.168
 21
85.7797
  0
LINE
  8
0
 10
286.168
 20
85.7797
 11
286.229
 21
85.392
  0
LINE
  8
0
 10
286.229
 20
85.392
 11
286.25
 21
85
  0
LINE
  8
0
 10
286.25
 20
85
 11
286.229
 21
84.608
  0
LINE
  8
0
 10
286.229
 20
84.608
 11
286.168
 21
84.2203
  0
LINE
  8
0
 10
286.168
 20
84.2203
 11
286.066
 21
83.8412
  0
LINE
  8
0
 10
286.066
 20
83.8412
 11
285.926
 21
83.4747
  0
LINE
  8
0
 10
285.926
 20
83.4747
 11
285.748
 21
83.125
  0
LINE
  8
0
 10
285.748
 20
83.125
 11
285.534
 21
82.7958
  0
LINE
  8
0
 10
285.534
 20
82.7958
 11
285.287
 21
82.4908
  0
LINE
  8
0
 10
285.287
 20
82.4908
 11
285.009
 21
82.2132
  0
LINE
  8
0
 10
285.009
 20
82.2132
 11
284.704
 21
81.9662
  0
LINE
  8
0
 10
284.704
 20
81.9662
 11
284.375
 21
81.7524
  0
LINE
  8
0
 10
284.375
 20
81.7524
 11
284.025
 21
81.5742
  0
LINE
  8
0
 10
284.025
 20
81.5742
 11
283.659
 21
81.4335
  0
LINE
  8
0
 10
283.659
 20
81.4335
 11
283.28
 21
81.3319
  0
LINE
  8
0
 10
283.28
 20
81.3319
 11
282.892
 21
81.2705
  0
LINE
  8
0
 10
282.892
 20
81.2705
 11
282.5
 21
81.25
  0
LINE
  8
0
 10
282.5
 20
81.25
 11
282.108
 21
81.2705
  0
LINE
  8
0
 10
-282.892
 20
81.2705
 11
-283.28
 21
81.3319
  0
LINE
  8
0
 10
-283.28
 20
81.3319
 11
-283.659
 21
81.4335
  0
LINE
  8
0
 10
-283.659
 20
81.4335
 11
-284.025
 21
81.5742
  0
LINE
  8
0
 10
-284.025
 20
81.5742
 11
-284.375
 21
81.7524
  0
LINE
  8
0
 10
-284.375
 20
81.7524
 11
-284.704
 21
81.9662
  0
LINE
  8
0
 10
-284.704
 20
81.9662
 11
-285.009
 21
82.2132
  0
LINE
  8
0
 10
-285.009
 20
82.2132
 11
-285.287
 21
82.4908
  0
LINE
  8
0
 10
-285.287
 20
82.4908
 11
-285.534
 21
82.7958
  0
LINE
  8
0
 10
-285.534
 20
82.7958
 11
-285.748
 21
83.125
  0
LINE
  8
0
 10
-285.748
 20
83.125
 11
-285.926
 21
83.4747
  0
LINE
  8
0
 10
-285.926
 20
83.4747
 11
-286.066
 21
83.8412
  0
LINE
  8
0
 10
-286.066
 20
83.8412
 11
-286.168
 21
84.2203
  0
LINE
  8
0
 10
-286.168
 20
84.2203
 11
-286.229
 21
84.608
  0
LINE
  8
0
 10
-286.229
 20
84.608
 11
-286.25
 21
85
  0
LINE
  8
0
 10
-286.25
 20
85
 11
-286.229
 21
85.392
  0
LINE
  8
0
 10
-286.229
 20
85.392
 11
-286.168
 21
85.7797
  0
LINE
  8
0
 10
-286.168
 20
85.7797
 11
-286.066
 21
86.1588
  0
LINE
  8
0
 10
-286.066
 20
86.1588
 11
-285.926
 21
86.5253
  0
LINE
  8
0
 10
-285.926
 20
86.5253
 11
-285.748
 21
86.875
  0
LINE
  8
0
 10
-285.748
 20
86.875
 11
-285.534
 21
87.2042
  0
LINE
  8
0
 10
-285.534
 20
87.2042
 11
-285.287
 21
87.5092
  0
LINE
  8
0
 10
-285.287
 20
87.5092
 11
-285.009
 21
87.7868
  0
LINE
  8
0
 10
-285.009
 20
87.7868
 11
-284.704
 21
88.0338
  0
LINE
  8
0
 10
-284.704
 20
88.0338
 11
-284.375
 21
88.2476
  0
LINE
  8
0
 10
-284.375
 20
88.2476
 11
-284.025
 21
88.4258
  0
LINE
  8
0
 10
-284.025
 20
88.4258
 11
-283.659
 21
88.5665
  0
LINE
  8
0
 10
-283.659
 20
88.5665
 11
-283.28
 21
88.668
  0
LINE
  8
0
 10
-283.28
 20
88.668
 11
-282.892
 21
88.7294
  0
LINE
  8
0
 10
-282.892
 20
88.7294
 11
-282.5
 21
88.75
  0
LINE
  8
0
 10
-282.5
 20
88.75
 11
-282.108
 21
88.7294
  0
LINE
  8
0
 10
-282.108
 20
88.7294
 11
-281.72
 21
88.668
  0
LINE
  8
0
 10
-281.72
 20
88.668
 11
-281.341
 21
88.5665
  0
LINE
  8
0
 10
-281.341
 20
88.5665
 11
-280.975
 21
88.4258
  0
LINE
  8
0
 10
-280.975
 20
88.4258
 11
-280.625
 21
88.2476
  0
LINE
  8
0
 10
-280.625
 20
88.2476
 11
-280.296
 21
88.0338
  0
LINE
  8
0
 10
-280.296
 20
88.0338
 11
-279.991
 21
87.7868
  0
LINE
  8
0
 10
-279.991
 20
87.7868
 11
-279.713
 21
87.5092
  0
LINE
  8
0
 10
-279.713
 20
87.5092
 11
-279.466
 21
87.2042
  0
LINE
  8
0
 10
-279.466
 20
87.2042
 11
-279.252
 21
86.875
  0
LINE
  8
0
 10
-279.252
 20
86.875
 11
-279.074
 21
86.5253
  0
LINE
  8
0
 10
-279.074
 20
86.5253
 11
-278.934
 21
86.1588
  0
LINE
  8
0
 10
-278.934
 20
86.1588
 11
-278.832
 21
85.7797
  0
LINE
  8
0
 10
-278.832
 20
85.7797
 11
-278.771
 21
85.392
  0
LINE
  8
0
 10
-278.771
 20
85.392
 11
-278.75
 21
85
  0
LINE
  8
0
 10
-278.75
 20
85
 11
-278.771
 21
84.608
  0
LINE
  8
0
 10
-278.771
 20
84.608
 11
-278.832
 21
84.2203
  0
LINE
  8
0
 10
-278.832
 20
84.2203
 11
-278.934
 21
83.8412
  0
LINE
  8
0
 10
-278.934
 20
83.8412
 11
-279.074
 21
83.4747
  0
LINE
  8
0
 10
-279.074
 20
83.4747
 11
-279.252
 21
83.125
  0
LINE
  8
0
 10
-279.252
 20
83.125
 11
-279.466
 21
82.7958
  0
LINE
  8
0
 10
-279.466
 20
82.7958
 11
-279.713
 21
82.4908
  0
LINE
  8
0
 10
-279.713
 20
82.4908
 11
-279.991
 21
82.2132
  0
LINE
  8
0
 10
-279.991
 20
82.2132
 11
-280.296
 21
81.9662
  0
LINE
  8
0
 10
-280.296
 20
81.9662
 11
-280.625
 21
81.7524
  0
LINE
  8
0
 10
-280.625
 20
81.7524
 11
-280.975
 21
81.5742
  0
LINE
  8
0
 10
-280.975
 20
81.5742
 11
-281.341
 21
81.4335
  0
LINE
  8
0
 10
-281.341
 20
81.4335
 11
-281.72
 21
81.3319
  0
LINE
  8
0
 10
-281.72
 20
81.3319
 11
-282.108
 21
81.2705
  0
LINE
  8
0
 10
-282.108
 20
81.2705
 11
-282.5
 21
81.25
  0
LINE
  8
0
 10
-282.5
 20
81.25
 11
-282.892
 21
81.2705
  0
LINE
  8
0
 10
-144.309
 20
83.3283
 11
-144.549
 21
83.3911
  0
LINE
  8
0
 10
-144.549
 20
83.3911
 11
-144.777
 21
83.4881
  0
LINE
  8
0
 10
-144.777
 20
83.4881
 11
-144.989
 21
83.6174
  0
LINE
  8
0
 10
-144.989
 20
83.6174
 11
-145.18
 21
83.7762
  0
LINE
  8
0
 10
-145.18
 20
83.7762
 11
-145.346
 21
83.961
  0
LINE
  8
0
 10
-145.346
 20
83.961
 11
-145.482
 21
84.168
  0
LINE
  8
0
 10
-145.482
 20
84.168
 11
-145.588
 21
84.3927
  0
LINE
  8
0
 10
-145.588
 20
84.3927
 11
-145.659
 21
84.6304
  0
LINE
  8
0
 10
-145.659
 20
84.6304
 11
-145.695
 21
84.8759
  0
LINE
  8
0
 10
-145.695
 20
84.8759
 11
-145.695
 21
85.1241
  0
LINE
  8
0
 10
-145.695
 20
85.1241
 11
-145.659
 21
85.3696
  0
LINE
  8
0
 10
-145.659
 20
85.3696
 11
-145.588
 21
85.6073
  0
LINE
  8
0
 10
-145.588
 20
85.6073
 11
-145.482
 21
85.832
  0
LINE
  8
0
 10
-145.482
 20
85.832
 11
-145.346
 21
86.039
  0
LINE
  8
0
 10
-145.346
 20
86.039
 11
-145.18
 21
86.2238
  0
LINE
  8
0
 10
-145.18
 20
86.2238
 11
-144.989
 21
86.3826
  0
LINE
  8
0
 10
-144.989
 20
86.3826
 11
-144.777
 21
86.5119
  0
LINE
  8
0
 10
-144.777
 20
86.5119
 11
-144.549
 21
86.6089
  0
LINE
  8
0
 10
-144.549
 20
86.6089
 11
-144.309
 21
86.6717
  0
LINE
  8
0
 10
-144.309
 20
86.6717
 11
-144.062
 21
86.6989
  0
LINE
  8
0
 10
-144.062
 20
86.6989
 11
-143.814
 21
86.6898
  0
LINE
  8
0
 10
-143.814
 20
86.6898
 11
-143.57
 21
86.6447
  0
LINE
  8
0
 10
-143.57
 20
86.6447
 11
-143.335
 21
86.5646
  0
LINE
  8
0
 10
-143.335
 20
86.5646
 11
-143.114
 21
86.4511
  0
LINE
  8
0
 10
-143.114
 20
86.4511
 11
-142.913
 21
86.3067
  0
LINE
  8
0
 10
-142.913
 20
86.3067
 11
-142.734
 21
86.1344
  0
LINE
  8
0
 10
-142.734
 20
86.1344
 11
-142.582
 21
85.938
  0
LINE
  8
0
 10
-142.582
 20
85.938
 11
-142.461
 21
85.7216
  0
LINE
  8
0
 10
-142.461
 20
85.7216
 11
-142.372
 21
85.4898
  0
LINE
  8
0
 10
-142.372
 20
85.4898
 11
-142.318
 21
85.2475
  0
LINE
  8
0
 10
-142.318
 20
85.2475
 11
-142.3
 21
85
  0
LINE
  8
0
 10
-142.3
 20
85
 11
-142.318
 21
84.7525
  0
LINE
  8
0
 10
-142.318
 20
84.7525
 11
-142.372
 21
84.5102
  0
LINE
  8
0
 10
-142.372
 20
84.5102
 11
-142.461
 21
84.2784
  0
LINE
  8
0
 10
-142.461
 20
84.2784
 11
-142.582
 21
84.062
  0
LINE
  8
0
 10
-142.582
 20
84.062
 11
-142.734
 21
83.8656
  0
LINE
  8
0
 10
-142.734
 20
83.8656
 11
-142.913
 21
83.6933
  0
LINE
  8
0
 10
-142.913
 20
83.6933
 11
-143.114
 21
83.5489
  0
LINE
  8
0
 10
-143.114
 20
83.5489
 11
-143.335
 21
83.4354
  0
LINE
  8
0
 10
-143.335
 20
83.4354
 11
-143.57
 21
83.3553
  0
LINE
  8
0
 10
-143.57
 20
83.3553
 11
-143.814
 21
83.3102
  0
LINE
  8
0
 10
-143.814
 20
83.3102
 11
-144.062
 21
83.3011
  0
LINE
  8
0
 10
-144.062
 20
83.3011
 11
-144.309
 21
83.3283
  0
LINE
  8
0
 10
47.6912
 20
83.3283
 11
47.4511
 21
83.3911
  0
LINE
  8
0
 10
47.4511
 20
83.3911
 11
47.2227
 21
83.4881
  0
LINE
  8
0
 10
47.2227
 20
83.4881
 11
47.0108
 21
83.6174
  0
LINE
  8
0
 10
47.0108
 20
83.6174
 11
46.8201
 21
83.7762
  0
LINE
  8
0
 10
46.8201
 20
83.7762
 11
46.6544
 21
83.961
  0
LINE
  8
0
 10
46.6544
 20
83.961
 11
46.5175
 21
84.168
  0
LINE
  8
0
 10
46.5175
 20
84.168
 11
46.4122
 21
84.3927
  0
LINE
  8
0
 10
46.4122
 20
84.3927
 11
46.3407
 21
84.6304
  0
LINE
  8
0
 10
46.3407
 20
84.6304
 11
46.3045
 21
84.8759
  0
LINE
  8
0
 10
46.3045
 20
84.8759
 11
46.3045
 21
85.1241
  0
LINE
  8
0
 10
46.3045
 20
85.1241
 11
46.3407
 21
85.3696
  0
LINE
  8
0
 10
46.3407
 20
85.3696
 11
46.4122
 21
85.6073
  0
LINE
  8
0
 10
46.4122
 20
85.6073
 11
46.5175
 21
85.832
  0
LINE
  8
0
 10
46.5175
 20
85.832
 11
46.6544
 21
86.039
  0
LINE
  8
0
 10
46.6544
 20
86.039
 11
46.8201
 21
86.2238
  0
LINE
  8
0
 10
46.8201
 20
86.2238
 11
47.0108
 21
86.3826
  0
LINE
  8
0
 10
47.0108
 20
86.3826
 11
47.2227
 21
86.5119
  0
LINE
  8
0
 10
47.2227
 20
86.5119
 11
47.4511
 21
86.6089
  0
LINE
  8
0
 10
47.4511
 20
86.6089
 11
47.6912
 21
86.6717
  0
LINE
  8
0
 10
47.6912
 20
86.6717
 11
47.9379
 21
86.6989
  0
LINE
  8
0
 10
47.9379
 20
86.6989
 11
48.1859
 21
86.6898
  0
LINE
  8
0
 10
48.1859
 20
86.6898
 11
48.43
 21
86.6447
  0
LINE
  8
0
 10
48.43
 20
86.6447
 11
48.6649
 21
86.5646
  0
LINE
  8
0
 10
48.6649
 20
86.5646
 11
48.8856
 21
86.4511
  0
LINE
  8
0
 10
48.8856
 20
86.4511
 11
49.0874
 21
86.3067
  0
LINE
  8
0
 10
49.0874
 20
86.3067
 11
49.2661
 21
86.1344
  0
LINE
  8
0
 10
49.2661
 20
86.1344
 11
49.4178
 21
85.938
  0
LINE
  8
0
 10
49.4178
 20
85.938
 11
49.5393
 21
85.7216
  0
LINE
  8
0
 10
49.5393
 20
85.7216
 11
49.6279
 21
85.4898
  0
LINE
  8
0
 10
49.6279
 20
85.4898
 11
49.6819
 21
85.2475
  0
LINE
  8
0
 10
49.6819
 20
85.2475
 11
49.7
 21
85
  0
LINE
  8
0
 10
49.7
 20
85
 11
49.6819
 21
84.7525
  0
LINE
  8
0
 10
49.6819
 20
84.7525
 11
49.6279
 21
84.5102
  0
LINE
  8
0
 10
49.6279
 20
84.5102
 11
49.5393
 21
84.2784
  0
LINE
  8
0
 10
49.5393
 20
84.2784
 11
49.4178
 21
84.062
  0
LINE
  8
0
 10
49.4178
 20
84.062
 11
49.2661
 21
83.8656
  0
LINE
  8
0
 10
49.2661
 20
83.8656
 11
49.0874
 21
83.6933
  0
LINE
  8
0
 10
49.0874
 20
83.6933
 11
48.8856
 21
83.5489
  0
LINE
  8
0
 10
48.8856
 20
83.5489
 11
48.6649
 21
83.4354
  0
LINE
  8
0
 10
48.6649
 20
83.4354
 11
48.43
 21
83.3553
  0
LINE
  8
0
 10
48.43
 20
83.3553
 11
48.1859
 21
83.3102
  0
LINE
  8
0
 10
48.1859
 20
83.3102
 11
47.9379
 21
83.3011
  0
LINE
  8
0
 10
47.9379
 20
83.3011
 11
47.6912
 21
83.3283
  0
LINE
  8
0
 10
239.691
 20
83.3283
 11
239.451
 21
83.3911
  0
LINE
  8
0
 10
239.451
 20
83.3911
 11
239.223
 21
83.4881
  0
LINE
  8
0
 10
239.223
 20
83.4881
 11
239.011
 21
83.6174
  0
LINE
  8
0
 10
239.011
 20
83.6174
 11
238.82
 21
83.7762
  0
LINE
  8
0
 10
238.82
 20
83.7762
 11
238.654
 21
83.961
  0
LINE
  8
0
 10
238.654
 20
83.961
 11
238.518
 21
84.168
  0
LINE
  8
0
 10
238.518
 20
84.168
 11
238.412
 21
84.3927
  0
LINE
  8
0
 10
238.412
 20
84.3927
 11
238.341
 21
84.6304
  0
LINE
  8
0
 10
238.341
 20
84.6304
 11
238.305
 21
84.8759
  0
LINE
  8
0
 10
238.305
 20
84.8759
 11
238.305
 21
85.1241
  0
LINE
  8
0
 10
238.305
 20
85.1241
 11
238.341
 21
85.3696
  0
LINE
  8
0
 10
238.341
 20
85.3696
 11
238.412
 21
85.6073
  0
LINE
  8
0
 10
238.412
 20
85.6073
 11
238.518
 21
85.832
  0
LINE
  8
0
 10
238.518
 20
85.832
 11
238.654
 21
86.039
  0
LINE
  8
0
 10
238.654
 20
86.039
 11
238.82
 21
86.2238
  0
LINE
  8
0
 10
238.82
 20
86.2238
 11
239.011
 21
86.3826
  0
LINE
  8
0
 10
239.011
 20
86.3826
 11
239.223
 21
86.5119
  0
LINE
  8
0
 10
239.223
 20
86.5119
 11
239.451
 21
86.6089
  0
LINE
  8
0
 10
239.451
 20
86.6089
 11
239.691
 21
86.6717
  0
LINE
  8
0
 10
239.691
 20
86.6717
 11
239.938
 21
86.6989
  0
LINE
  8
0
 10
239.938
 20
86.6989
 11
240.186
 21
86.6898
  0
LINE
  8
0
 10
240.186
 20
86.6898
 11
240.43
 21
86.6447
  0
LINE
  8
0
 10
240.43
 20
86.6447
 11
240.665
 21
86.5646
  0
LINE
  8
0
 10
240.665
 20
86.5646
 11
240.886
 21
86.4511
  0
LINE
  8
0
 10
240.886
 20
86.4511
 11
241.087
 21
86.3067
  0
LINE
  8
0
 10
241.087
 20
86.3067
 11
241.266
 21
86.1344
  0
LINE
  8
0
 10
241.266
 20
86.1344
 11
241.418
 21
85.938
  0
LINE
  8
0
 10
241.418
 20
85.938
 11
241.539
 21
85.7216
  0
LINE
  8
0
 10
241.539
 20
85.7216
 11
241.628
 21
85.4898
  0
LINE
  8
0
 10
241.628
 20
85.4898
 11
241.682
 21
85.2475
  0
LINE
  8
0
 10
241.682
 20
85.2475
 11
241.7
 21
85
  0
LINE
  8
0
 10
241.7
 20
85
 11
241.682
 21
84.7525
  0
LINE
  8
0
 10
241.682
 20
84.7525
 11
241.628
 21
84.5102
  0
LINE
  8
0
 10
241.628
 20
84.5102
 11
241.539
 21
84.2784
  0
LINE
  8
0
 10
241.539
 20
84.2784
 11
241.418
 21
84.062
  0
LINE
  8
0
 10
241.418
 20
84.062
 11
241.266
 21
83.8656
  0
LINE
  8
0
 10
241.266
 20
83.8656
 11
241.087
 21
83.6933
  0
LINE
  8
0
 10
241.087
 20
83.6933
 11
240.886
 21
83.5489
  0
LINE
  8
0
 10
240.886
 20
83.5489
 11
240.665
 21
83.4354
  0
LINE
  8
0
 10
240.665
 20
83.4354
 11
240.43
 21
83.3553
  0
LINE
  8
0
 10
240.43
 20
83.3553
 11
240.186
 21
83.3102
  0
LINE
  8
0
 10
240.186
 20
83.3102
 11
239.938
 21
83.3011
  0
LINE
  8
0
 10
239.938
 20
83.3011
 11
239.691
 21
83.3283
  0
LINE
  8
0
 10
143.691
 20
83.3283
 11
143.451
 21
83.3911
  0
LINE
  8
0
 10
143.451
 20
83.3911
 11
143.223
 21
83.4881
  0
LINE
  8
0
 10
143.223
 20
83.4881
 11
143.011
 21
83.6174
  0
LINE
  8
0
 10
143.011
 20
83.6174
 11
142.82
 21
83.7762
  0
LINE
  8
0
 10
142.82
 20
83.7762
 11
142.654
 21
83.961
  0
LINE
  8
0
 10
142.654
 20
83.961
 11
142.518
 21
84.168
  0
LINE
  8
0
 10
142.518
 20
84.168
 11
142.412
 21
84.3927
  0
LINE
  8
0
 10
142.412
 20
84.3927
 11
142.341
 21
84.6304
  0
LINE
  8
0
 10
142.341
 20
84.6304
 11
142.305
 21
84.8759
  0
LINE
  8
0
 10
142.305
 20
84.8759
 11
142.305
 21
85.1241
  0
LINE
  8
0
 10
142.305
 20
85.1241
 11
142.341
 21
85.3696
  0
LINE
  8
0
 10
142.341
 20
85.3696
 11
142.412
 21
85.6073
  0
LINE
  8
0
 10
142.412
 20
85.6073
 11
142.518
 21
85.832
  0
LINE
  8
0
 10
142.518
 20
85.832
 11
142.654
 21
86.039
  0
LINE
  8
0
 10
142.654
 20
86.039
 11
142.82
 21
86.2238
  0
LINE
  8
0
 10
142.82
 20
86.2238
 11
143.011
 21
86.3826
  0
LINE
  8
0
 10
143.011
 20
86.3826
 11
143.223
 21
86.5119
  0
LINE
  8
0
 10
143.223
 20
86.5119
 11
143.451
 21
86.6089
  0
LINE
  8
0
 10
143.451
 20
86.6089
 11
143.691
 21
86.6717
  0
LINE
  8
0
 10
143.691
 20
86.6717
 11
143.938
 21
86.6989
  0
LINE
  8
0
 10
143.938
 20
86.6989
 11
144.186
 21
86.6898
  0
LINE
  8
0
 10
144.186
 20
86.6898
 11
144.43
 21
86.6447
  0
LINE
  8
0
 10
144.43
 20
86.6447
 11
144.665
 21
86.5646
  0
LINE
  8
0
 10
144.665
 20
86.5646
 11
144.886
 21
86.4511
  0
LINE
  8
0
 10
144.886
 20
86.4511
 11
145.087
 21
86.3067
  0
LINE
  8
0
 10
145.087
 20
86.3067
 11
145.266
 21
86.1344
  0
LINE
  8
0
 10
145.266
 20
86.1344
 11
145.418
 21
85.938
  0
LINE
  8
0
 10
145.418
 20
85.938
 11
145.539
 21
85.7216
  0
LINE
  8
0
 10
145.539
 20
85.7216
 11
145.628
 21
85.4898
  0
LINE
  8
0
 10
145.628
 20
85.4898
 11
145.682
 21
85.2475
  0
LINE
  8
0
 10
145.682
 20
85.2475
 11
145.7
 21
85
  0
LINE
  8
0
 10
145.7
 20
85
 11
145.682
 21
84.7525
  0
LINE
  8
0
 10
145.682
 20
84.7525
 11
145.628
 21
84.5102
  0
LINE
  8
0
 10
145.628
 20
84.5102
 11
145.539
 21
84.2784
  0
LINE
  8
0
 10
145.539
 20
84.2784
 11
145.418
 21
84.062
  0
LINE
  8
0
 10
145.418
 20
84.062
 11
145.266
 21
83.8656
  0
LINE
  8
0
 10
145.266
 20
83.8656
 11
145.087
 21
83.6933
  0
LINE
  8
0
 10
145.087
 20
83.6933
 11
144.886
 21
83.5489
  0
LINE
  8
0
 10
144.886
 20
83.5489
 11
144.665
 21
83.4354
  0
LINE
  8
0
 10
144.665
 20
83.4354
 11
144.43
 21
83.3553
  0
LINE
  8
0
 10
144.43
 20
83.3553
 11
144.186
 21
83.3102
  0
LINE
  8
0
 10
144.186
 20
83.3102
 11
143.938
 21
83.3011
  0
LINE
  8
0
 10
143.938
 20
83.3011
 11
143.691
 21
83.3283
  0
LINE
  8
0
 10
-240.309
 20
83.3283
 11
-240.549
 21
83.3911
  0
LINE
  8
0
 10
-240.549
 20
83.3911
 11
-240.777
 21
83.4881
  0
LINE
  8
0
 10
-240.777
 20
83.4881
 11
-240.989
 21
83.6174
  0
LINE
  8
0
 10
-240.989
 20
83.6174
 11
-241.18
 21
83.7762
  0
LINE
  8
0
 10
-241.18
 20
83.7762
 11
-241.346
 21
83.961
  0
LINE
  8
0
 10
-241.346
 20
83.961
 11
-241.482
 21
84.168
  0
LINE
  8
0
 10
-241.482
 20
84.168
 11
-241.588
 21
84.3927
  0
LINE
  8
0
 10
-241.588
 20
84.3927
 11
-241.659
 21
84.6304
  0
LINE
  8
0
 10
-241.659
 20
84.6304
 11
-241.695
 21
84.8759
  0
LINE
  8
0
 10
-241.695
 20
84.8759
 11
-241.695
 21
85.1241
  0
LINE
  8
0
 10
-241.695
 20
85.1241
 11
-241.659
 21
85.3696
  0
LINE
  8
0
 10
-241.659
 20
85.3696
 11
-241.588
 21
85.6073
  0
LINE
  8
0
 10
-241.588
 20
85.6073
 11
-241.482
 21
85.832
  0
LINE
  8
0
 10
-241.482
 20
85.832
 11
-241.346
 21
86.039
  0
LINE
  8
0
 10
-241.346
 20
86.039
 11
-241.18
 21
86.2238
  0
LINE
  8
0
 10
-241.18
 20
86.2238
 11
-240.989
 21
86.3826
  0
LINE
  8
0
 10
-240.989
 20
86.3826
 11
-240.777
 21
86.5119
  0
LINE
  8
0
 10
-240.777
 20
86.5119
 11
-240.549
 21
86.6089
  0
LINE
  8
0
 10
-240.549
 20
86.6089
 11
-240.309
 21
86.6717
  0
LINE
  8
0
 10
-240.309
 20
86.6717
 11
-240.062
 21
86.6989
  0
LINE
  8
0
 10
-240.062
 20
86.6989
 11
-239.814
 21
86.6898
  0
LINE
  8
0
 10
-239.814
 20
86.6898
 11
-239.57
 21
86.6447
  0
LINE
  8
0
 10
-239.57
 20
86.6447
 11
-239.335
 21
86.5646
  0
LINE
  8
0
 10
-239.335
 20
86.5646
 11
-239.114
 21
86.4511
  0
LINE
  8
0
 10
-239.114
 20
86.4511
 11
-238.913
 21
86.3067
  0
LINE
  8
0
 10
-238.913
 20
86.3067
 11
-238.734
 21
86.1344
  0
LINE
  8
0
 10
-238.734
 20
86.1344
 11
-238.582
 21
85.938
  0
LINE
  8
0
 10
-238.582
 20
85.938
 11
-238.461
 21
85.7216
  0
LINE
  8
0
 10
-238.461
 20
85.7216
 11
-238.372
 21
85.4898
  0
LINE
  8
0
 10
-238.372
 20
85.4898
 11
-238.318
 21
85.2475
  0
LINE
  8
0
 10
-238.318
 20
85.2475
 11
-238.3
 21
85
  0
LINE
  8
0
 10
-238.3
 20
85
 11
-238.318
 21
84.7525
  0
LINE
  8
0
 10
-238.318
 20
84.7525
 11
-238.372
 21
84.5102
  0
LINE
  8
0
 10
-238.372
 20
84.5102
 11
-238.461
 21
84.2784
  0
LINE
  8
0
 10
-238.461
 20
84.2784
 11
-238.582
 21
84.062
  0
LINE
  8
0
 10
-238.582
 20
84.062
 11
-238.734
 21
83.8656
  0
LINE
  8
0
 10
-238.734
 20
83.8656
 11
-238.913
 21
83.6933
  0
LINE
  8
0
 10
-238.913
 20
83.6933
 11
-239.114
 21
83.5489
  0
LINE
  8
0
 10
-239.114
 20
83.5489
 11
-239.335
 21
83.4354
  0
LINE
  8
0
 10
-239.335
 20
83.4354
 11
-239.57
 21
83.3553
  0
LINE
  8
0
 10
-239.57
 20
83.3553
 11
-239.814
 21
83.3102
  0
LINE
  8
0
 10
-239.814
 20
83.3102
 11
-240.062
 21
83.3011
  0
LINE
  8
0
 10
-240.062
 20
83.3011
 11
-240.309
 21
83.3283
  0
LINE
  8
0
 10
-48.3088
 20
83.3283
 11
-48.5489
 21
83.3911
  0
LINE
  8
0
 10
-48.5489
 20
83.3911
 11
-48.7773
 21
83.4881
  0
LINE
  8
0
 10
-48.7773
 20
83.4881
 11
-48.9892
 21
83.6174
  0
LINE
  8
0
 10
-48.9892
 20
83.6174
 11
-49.1799
 21
83.7762
  0
LINE
  8
0
 10
-49.1799
 20
83.7762
 11
-49.3455
 21
83.961
  0
LINE
  8
0
 10
-49.3455
 20
83.961
 11
-49.4825
 21
84.168
  0
LINE
  8
0
 10
-49.4825
 20
84.168
 11
-49.5878
 21
84.3927
  0
LINE
  8
0
 10
-49.5878
 20
84.3927
 11
-49.6593
 21
84.6304
  0
LINE
  8
0
 10
-49.6593
 20
84.6304
 11
-49.6955
 21
84.8759
  0
LINE
  8
0
 10
-49.6955
 20
84.8759
 11
-49.6955
 21
85.1241
  0
LINE
  8
0
 10
-49.6955
 20
85.1241
 11
-49.6593
 21
85.3696
  0
LINE
  8
0
 10
-49.6593
 20
85.3696
 11
-49.5878
 21
85.6073
  0
LINE
  8
0
 10
-49.5878
 20
85.6073
 11
-49.4825
 21
85.832
  0
LINE
  8
0
 10
-49.4825
 20
85.832
 11
-49.3455
 21
86.039
  0
LINE
  8
0
 10
-49.3455
 20
86.039
 11
-49.1799
 21
86.2238
  0
LINE
  8
0
 10
-49.1799
 20
86.2238
 11
-48.9892
 21
86.3826
  0
LINE
  8
0
 10
-48.9892
 20
86.3826
 11
-48.7773
 21
86.5119
  0
LINE
  8
0
 10
-48.7773
 20
86.5119
 11
-48.5489
 21
86.6089
  0
LINE
  8
0
 10
-48.5489
 20
86.6089
 11
-48.3088
 21
86.6717
  0
LINE
  8
0
 10
-48.3088
 20
86.6717
 11
-48.0621
 21
86.6989
  0
LINE
  8
0
 10
-48.0621
 20
86.6989
 11
-47.8141
 21
86.6898
  0
LINE
  8
0
 10
-47.8141
 20
86.6898
 11
-47.57
 21
86.6447
  0
LINE
  8
0
 10
-47.57
 20
86.6447
 11
-47.3351
 21
86.5646
  0
LINE
  8
0
 10
-47.3351
 20
86.5646
 11
-47.1144
 21
86.4511
  0
LINE
  8
0
 10
-47.1144
 20
86.4511
 11
-46.9126
 21
86.3067
  0
LINE
  8
0
 10
-46.9126
 20
86.3067
 11
-46.7339
 21
86.1344
  0
LINE
  8
0
 10
-46.7339
 20
86.1344
 11
-46.5822
 21
85.938
  0
LINE
  8
0
 10
-46.5822
 20
85.938
 11
-46.4607
 21
85.7216
  0
LINE
  8
0
 10
-46.4607
 20
85.7216
 11
-46.3721
 21
85.4898
  0
LINE
  8
0
 10
-46.3721
 20
85.4898
 11
-46.3181
 21
85.2475
  0
LINE
  8
0
 10
-46.3181
 20
85.2475
 11
-46.3
 21
85
  0
LINE
  8
0
 10
-46.3
 20
85
 11
-46.3181
 21
84.7525
  0
LINE
  8
0
 10
-46.3181
 20
84.7525
 11
-46.3721
 21
84.5102
  0
LINE
  8
0
 10
-46.3721
 20
84.5102
 11
-46.4607
 21
84.2784
  0
LINE
  8
0
 10
-46.4607
 20
84.2784
 11
-46.5822
 21
84.062
  0
LINE
  8
0
 10
-46.5822
 20
84.062
 11
-46.7339
 21
83.8656
  0
LINE
  8
0
 10
-46.7339
 20
83.8656
 11
-46.9126
 21
83.6933
  0
LINE
  8
0
 10
-46.9126
 20
83.6933
 11
-47.1144
 21
83.5489
  0
LINE
  8
0
 10
-47.1144
 20
83.5489
 11
-47.3351
 21
83.4354
  0
LINE
  8
0
 10
-47.3351
 20
83.4354
 11
-47.57
 21
83.3553
  0
LINE
  8
0
 10
-47.57
 20
83.3553
 11
-47.8141
 21
83.3102
  0
LINE
  8
0
 10
-47.8141
 20
83.3102
 11
-48.0621
 21
83.3011
  0
LINE
  8
0
 10
-48.0621
 20
83.3011
 11
-48.3088
 21
83.3283
  0
LINE
  8
0
 10
-282.686
 20
40.8102
 11
-282.93
 21
40.8553
  0
LINE
  8
0
 10
-282.93
 20
40.8553
 11
-283.165
 21
40.9354
  0
LINE
  8
0
 10
-283.165
 20
40.9354
 11
-283.386
 21
41.0489
  0
LINE
  8
0
 10
-283.386
 20
41.0489
 11
-283.587
 21
41.1933
  0
LINE
  8
0
 10
-283.587
 20
41.1933
 11
-283.766
 21
41.3656
  0
LINE
  8
0
 10
-283.766
 20
41.3656
 11
-283.918
 21
41.562
  0
LINE
  8
0
 10
-283.918
 20
41.562
 11
-284.039
 21
41.7784
  0
LINE
  8
0
 10
-284.039
 20
41.7784
 11
-284.128
 21
42.0102
  0
LINE
  8
0
 10
-284.128
 20
42.0102
 11
-284.182
 21
42.2525
  0
LINE
  8
0
 10
-284.182
 20
42.2525
 11
-284.2
 21
42.5
  0
LINE
  8
0
 10
-284.2
 20
42.5
 11
-284.182
 21
42.7475
  0
LINE
  8
0
 10
-284.182
 20
42.7475
 11
-284.128
 21
42.9898
  0
LINE
  8
0
 10
-284.128
 20
42.9898
 11
-284.039
 21
43.2216
  0
LINE
  8
0
 10
-284.039
 20
43.2216
 11
-283.918
 21
43.438
  0
LINE
  8
0
 10
-283.918
 20
43.438
 11
-283.766
 21
43.6344
  0
LINE
  8
0
 10
-283.766
 20
43.6344
 11
-283.587
 21
43.8067
  0
LINE
  8
0
 10
-283.587
 20
43.8067
 11
-283.386
 21
43.9511
  0
LINE
  8
0
 10
-283.386
 20
43.9511
 11
-283.165
 21
44.0646
  0
LINE
  8
0
 10
-283.165
 20
44.0646
 11
-282.93
 21
44.1447
  0
LINE
  8
0
 10
-282.93
 20
44.1447
 11
-282.686
 21
44.1898
  0
LINE
  8
0
 10
-282.686
 20
44.1898
 11
-282.438
 21
44.1989
  0
LINE
  8
0
 10
-282.438
 20
44.1989
 11
-282.191
 21
44.1717
  0
LINE
  8
0
 10
-282.191
 20
44.1717
 11
-281.951
 21
44.1089
  0
LINE
  8
0
 10
-281.951
 20
44.1089
 11
-281.723
 21
44.0119
  0
LINE
  8
0
 10
-281.723
 20
44.0119
 11
-281.511
 21
43.8826
  0
LINE
  8
0
 10
-281.511
 20
43.8826
 11
-281.32
 21
43.7238
  0
LINE
  8
0
 10
-281.32
 20
43.7238
 11
-281.154
 21
43.539
  0
LINE
  8
0
 10
-281.154
 20
43.539
 11
-281.018
 21
43.332
  0
LINE
  8
0
 10
-281.018
 20
43.332
 11
-280.912
 21
43.1073
  0
LINE
  8
0
 10
-280.912
 20
43.1073
 11
-280.841
 21
42.8696
  0
LINE
  8
0
 10
-280.841
 20
42.8696
 11
-280.805
 21
42.6241
  0
LINE
  8
0
 10
-280.805
 20
42.6241
 11
-280.805
 21
42.3759
  0
LINE
  8
0
 10
-280.805
 20
42.3759
 11
-280.841
 21
42.1304
  0
LINE
  8
0
 10
-280.841
 20
42.1304
 11
-280.912
 21
41.8927
  0
LINE
  8
0
 10
-280.912
 20
41.8927
 11
-281.018
 21
41.668
  0
LINE
  8
0
 10
-281.018
 20
41.668
 11
-281.154
 21
41.461
  0
LINE
  8
0
 10
-281.154
 20
41.461
 11
-281.32
 21
41.2762
  0
LINE
  8
0
 10
-281.32
 20
41.2762
 11
-281.511
 21
41.1174
  0
LINE
  8
0
 10
-281.511
 20
41.1174
 11
-281.723
 21
40.9881
  0
LINE
  8
0
 10
-281.723
 20
40.9881
 11
-281.951
 21
40.8911
  0
LINE
  8
0
 10
-281.951
 20
40.8911
 11
-282.191
 21
40.8283
  0
LINE
  8
0
 10
-282.191
 20
40.8283
 11
-282.438
 21
40.8011
  0
LINE
  8
0
 10
-282.438
 20
40.8011
 11
-282.686
 21
40.8102
  0
LINE
  8
0
 10
282.191
 20
40.8283
 11
281.951
 21
40.8911
  0
LINE
  8
0
 10
281.951
 20
40.8911
 11
281.723
 21
40.9881
  0
LINE
  8
0
 10
281.723
 20
40.9881
 11
281.511
 21
41.1174
  0
LINE
  8
0
 10
281.511
 20
41.1174
 11
281.32
 21
41.2762
  0
LINE
  8
0
 10
281.32
 20
41.2762
 11
281.154
 21
41.461
  0
LINE
  8
0
 10
281.154
 20
41.461
 11
281.018
 21
41.668
  0
LINE
  8
0
 10
281.018
 20
41.668
 11
280.912
 21
41.8927
  0
LINE
  8
0
 10
280.912
 20
41.8927
 11
280.841
 21
42.1304
  0
LINE
  8
0
 10
280.841
 20
42.1304
 11
280.805
 21
42.3759
  0
LINE
  8
0
 10
280.805
 20
42.3759
 11
280.805
 21
42.6241
  0
LINE
  8
0
 10
280.805
 20
42.6241
 11
280.841
 21
42.8696
  0
LINE
  8
0
 10
280.841
 20
42.8696
 11
280.912
 21
43.1073
  0
LINE
  8
0
 10
280.912
 20
43.1073
 11
281.018
 21
43.332
  0
LINE
  8
0
 10
281.018
 20
43.332
 11
281.154
 21
43.539
  0
LINE
  8
0
 10
281.154
 20
43.539
 11
281.32
 21
43.7238
  0
LINE
  8
0
 10
281.32
 20
43.7238
 11
281.511
 21
43.8826
  0
LINE
  8
0
 10
281.511
 20
43.8826
 11
281.723
 21
44.0119
  0
LINE
  8
0
 10
281.723
 20
44.0119
 11
281.951
 21
44.1089
  0
LINE
  8
0
 10
281.951
 20
44.1089
 11
282.191
 21
44.1717
  0
LINE
  8
0
 10
282.191
 20
44.1717
 11
282.438
 21
44.1989
  0
LINE
  8
0
 10
282.438
 20
44.1989
 11
282.686
 21
44.1898
  0
LINE
  8
0
 10
282.686
 20
44.1898
 11
282.93
 21
44.1447
  0
LINE
  8
0
 10
282.93
 20
44.1447
 11
283.165
 21
44.0646
  0
LINE
  8
0
 10
283.165
 20
44.0646
 11
283.386
 21
43.9511
  0
LINE
  8
0
 10
283.386
 20
43.9511
 11
283.587
 21
43.8067
  0
LINE
  8
0
 10
283.587
 20
43.8067
 11
283.766
 21
43.6344
  0
LINE
  8
0
 10
283.766
 20
43.6344
 11
283.918
 21
43.438
  0
LINE
  8
0
 10
283.918
 20
43.438
 11
284.039
 21
43.2216
  0
LINE
  8
0
 10
284.039
 20
43.2216
 11
284.128
 21
42.9898
  0
LINE
  8
0
 10
284.128
 20
42.9898
 11
284.182
 21
42.7475
  0
LINE
  8
0
 10
284.182
 20
42.7475
 11
284.2
 21
42.5
  0
LINE
  8
0
 10
284.2
 20
42.5
 11
284.182
 21
42.2525
  0
LINE
  8
0
 10
284.182
 20
42.2525
 11
284.128
 21
42.0102
  0
LINE
  8
0
 10
284.128
 20
42.0102
 11
284.039
 21
41.7784
  0
LINE
  8
0
 10
284.039
 20
41.7784
 11
283.918
 21
41.562
  0
LINE
  8
0
 10
283.918
 20
41.562
 11
283.766
 21
41.3656
  0
LINE
  8
0
 10
283.766
 20
41.3656
 11
283.587
 21
41.1933
  0
LINE
  8
0
 10
283.587
 20
41.1933
 11
283.386
 21
41.0489
  0
LINE
  8
0
 10
283.386
 20
41.0489
 11
283.165
 21
40.9354
  0
LINE
  8
0
 10
283.165
 20
40.9354
 11
282.93
 21
40.8553
  0
LINE
  8
0
 10
282.93
 20
40.8553
 11
282.686
 21
40.8102
  0
LINE
  8
0
 10
282.686
 20
40.8102
 11
282.438
 21
40.8011
  0
LINE
  8
0
 10
282.438
 20
40.8011
 11
282.191
 21
40.8283
  0
LINE
  8
0
 10
-282.686
 20
-44.1898
 11
-282.93
 21
-44.1447
  0
LINE
  8
0
 10
-282.93
 20
-44.1447
 11
-283.165
 21
-44.0646
  0
LINE
  8
0
 10
-283.165
 20
-44.0646
 11
-283.386
 21
-43.9511
  0
LINE
  8
0
 10
-283.386
 20
-43.9511
 11
-283.587
 21
-43.8067
  0
LINE
  8
0
 10
-283.587
 20
-43.8067
 11
-283.766
 21
-43.6344
  0
LINE
  8
0
 10
-283.766
 20
-43.6344
 11
-283.918
 21
-43.438
  0
LINE
  8
0
 10
-283.918
 20
-43.438
 11
-284.039
 21
-43.2216
  0
LINE
  8
0
 10
-284.039
 20
-43.2216
 11
-284.128
 21
-42.9898
  0
LINE
  8
0
 10
-284.128
 20
-42.9898
 11
-284.182
 21
-42.7475
  0
LINE
  8
0
 10
-284.182
 20
-42.7475
 11
-284.2
 21
-42.5
  0
LINE
  8
0
 10
-284.2
 20
-42.5
 11
-284.182
 21
-42.2525
  0
LINE
  8
0
 10
-284.182
 20
-42.2525
 11
-284.128
 21
-42.0102
  0
LINE
  8
0
 10
-284.128
 20
-42.0102
 11
-284.039
 21
-41.7784
  0
LINE
  8
0
 10
-284.039
 20
-41.7784
 11
-283.918
 21
-41.562
  0
LINE
  8
0
 10
-283.918
 20
-41.562
 11
-283.766
 21
-41.3656
  0
LINE
  8
0
 10
-283.766
 20
-41.3656
 11
-283.587
 21
-41.1933
  0
LINE
  8
0
 10
-283.587
 20
-41.1933
 11
-283.386
 21
-41.0489
  0
LINE
  8
0
 10
-283.386
 20
-41.0489
 11
-283.165
 21
-40.9354
  0
LINE
  8
0
 10
-283.165
 20
-40.9354
 11
-282.93
 21
-40.8553
  0
LINE
  8
0
 10
-282.93
 20
-40.8553
 11
-282.686
 21
-40.8102
  0
LINE
  8
0
 10
-282.686
 20
-40.8102
 11
-282.438
 21
-40.8011
  0
LINE
  8
0
 10
-282.438
 20
-40.8011
 11
-282.191
 21
-40.8283
  0
LINE
  8
0
 10
-282.191
 20
-40.8283
 11
-281.951
 21
-40.8911
  0
LINE
  8
0
 10
-281.951
 20
-40.8911
 11
-281.723
 21
-40.9881
  0
LINE
  8
0
 10
-281.723
 20
-40.9881
 11
-281.511
 21
-41.1174
  0
LINE
  8
0
 10
-281.511
 20
-41.1174
 11
-281.32
 21
-41.2762
  0
LINE
  8
0
 10
-281.32
 20
-41.2762
 11
-281.154
 21
-41.461
  0
LINE
  8
0
 10
-281.154
 20
-41.461
 11
-281.018
 21
-41.668
  0
LINE
  8
0
 10
-281.018
 20
-41.668
 11
-280.912
 21
-41.8927
  0
LINE
  8
0
 10
-280.912
 20
-41.8927
 11
-280.841
 21
-42.1304
  0
LINE
  8
0
 10
-280.841
 20
-42.1304
 11
-280.805
 21
-42.3759
  0
LINE
  8
0
 10
-280.805
 20
-42.3759
 11
-280.805
 21
-42.6241
  0
LINE
  8
0
 10
-280.805
 20
-42.6241
 11
-280.841
 21
-42.8696
  0
LINE
  8
0
 10
-280.841
 20
-42.8696
 11
-280.912
 21
-43.1073
  0
LINE
  8
0
 10
-280.912
 20
-43.1073
 11
-281.018
 21
-43.332
  0
LINE
  8
0
 10
-281.018
 20
-43.332
 11
-281.154
 21
-43.539
  0
LINE
  8
0
 10
-281.154
 20
-43.539
 11
-281.32
 21
-43.7238
  0
LINE
  8
0
 10
-281.32
 20
-43.7238
 11
-281.511
 21
-43.8826
  0
LINE
  8
0
 10
-281.511
 20
-43.8826
 11
-281.723
 21
-44.0119
  0
LINE
  8
0
 10
-281.723
 20
-44.0119
 11
-281.951
 21
-44.1089
  0
LINE
  8
0
 10
-281.951
 20
-44.1089
 11
-282.191
 21
-44.1717
  0
LINE
  8
0
 10
-282.191
 20
-44.1717
 11
-282.438
 21
-44.1989
  0
LINE
  8
0
 10
-282.438
 20
-44.1989
 11
-282.686
 21
-44.1898
  0
LINE
  8
0
 10
282.191
 20
-44.1717
 11
281.951
 21
-44.1089
  0
LINE
  8
0
 10
281.951
 20
-44.1089
 11
281.723
 21
-44.0119
  0
LINE
  8
0
 10
281.723
 20
-44.0119
 11
281.511
 21
-43.8826
  0
LINE
  8
0
 10
281.511
 20
-43.8826
 11
281.32
 21
-43.7238
  0
LINE
  8
0
 10
281.32
 20
-43.7238
 11
281.154
 21
-43.539
  0
LINE
  8
0
 10
281.154
 20
-43.539
 11
281.018
 21
-43.332
  0
LINE
  8
0
 10
281.018
 20
-43.332
 11
280.912
 21
-43.1073
  0
LINE
  8
0
 10
280.912
 20
-43.1073
 11
280.841
 21
-42.8696
  0
LINE
  8
0
 10
280.841
 20
-42.8696
 11
280.805
 21
-42.6241
  0
LINE
  8
0
 10
280.805
 20
-42.6241
 11
280.805
 21
-42.3759
  0
LINE
  8
0
 10
280.805
 20
-42.3759
 11
280.841
 21
-42.1304
  0
LINE
  8
0
 10
280.841
 20
-42.1304
 11
280.912
 21
-41.8927
  0
LINE
  8
0
 10
280.912
 20
-41.8927
 11
281.018
 21
-41.668
  0
LINE
  8
0
 10
281.018
 20
-41.668
 11
281.154
 21
-41.461
  0
LINE
  8
0
 10
281.154
 20
-41.461
 11
281.32
 21
-41.2762
  0
LINE
  8
0
 10
281.32
 20
-41.2762
 11
281.511
 21
-41.1174
  0
LINE
  8
0
 10
281.511
 20
-41.1174
 11
281.723
 21
-40.9881
  0
LINE
  8
0
 10
281.723
 20
-40.9881
 11
281.951
 21
-40.8911
  0
LINE
  8
0
 10
281.951
 20
-40.8911
 11
282.191
 21
-40.8283
  0
LINE
  8
0
 10
282.191
 20
-40.8283
 11
282.438
 21
-40.8011
  0
LINE
  8
0
 10
282.438
 20
-40.8011
 11
282.686
 21
-40.8102
  0
LINE
  8
0
 10
282.686
 20
-40.8102
 11
282.93
 21
-40.8553
  0
LINE
  8
0
 10
282.93
 20
-40.8553
 11
283.165
 21
-40.9354
  0
LINE
  8
0
 10
283.165
 20
-40.9354
 11
283.386
 21
-41.0489
  0
LINE
  8
0
 10
283.386
 20
-41.0489
 11
283.587
 21
-41.1933
  0
LINE
  8
0
 10
283.587
 20
-41.1933
 11
283.766
 21
-41.3656
  0
LINE
  8
0
 10
283.766
 20
-41.3656
 11
283.918
 21
-41.562
  0
LINE
  8
0
 10
283.918
 20
-41.562
 11
284.039
 21
-41.7784
  0
LINE
  8
0
 10
284.039
 20
-41.7784
 11
284.128
 21
-42.0102
  0
LINE
  8
0
 10
284.128
 20
-42.0102
 11
284.182
 21
-42.2525
  0
LINE
  8
0
 10
284.182
 20
-42.2525
 11
284.2
 21
-42.5
  0
LINE
  8
0
 10
284.2
 20
-42.5
 11
284.182
 21
-42.7475
  0
LINE
  8
0
 10
284.182
 20
-42.7475
 11
284.128
 21
-42.9898
  0
LINE
  8
0
 10
284.128
 20
-42.9898
 11
284.039
 21
-43.2216
  0
LINE
  8
0
 10
284.039
 20
-43.2216
 11
283.918
 21
-43.438
  0
LINE
  8
0
 10
283.918
 20
-43.438
 11
283.766
 21
-43.6344
  0
LINE
  8
0
 10
283.766
 20
-43.6344
 11
283.587
 21
-43.8067
  0
LINE
  8
0
 10
283.587
 20
-43.8067
 11
283.386
 21
-43.9511
  0
LINE
  8
0
 10
283.386
 20
-43.9511
 11
283.165
 21
-44.0646
  0
LINE
  8
0
 10
283.165
 20
-44.0646
 11
282.93
 21
-44.1447
  0
LINE
  8
0
 10
282.93
 20
-44.1447
 11
282.686
 21
-44.1898
  0
LINE
  8
0
 10
282.686
 20
-44.1898
 11
282.438
 21
-44.1989
  0
LINE
  8
0
 10
282.438
 20
-44.1989
 11
282.191
 21
-44.1717
  0
LINE
  8
0
 10
-282.892
 20
-88.7294
 11
-283.28
 21
-88.668
  0
LINE
  8
0
 10
-283.28
 20
-88.668
 11
-283.659
 21
-88.5665
  0
LINE
  8
0
 10
-283.659
 20
-88.5665
 11
-284.025
 21
-88.4258
  0
LINE
  8
0
 10
-284.025
 20
-88.4258
 11
-284.375
 21
-88.2476
  0
LINE
  8
0
 10
-284.375
 20
-88.2476
 11
-284.704
 21
-88.0338
  0
LINE
  8
0
 10
-284.704
 20
-88.0338
 11
-285.009
 21
-87.7868
  0
LINE
  8
0
 10
-285.009
 20
-87.7868
 11
-285.287
 21
-87.5092
  0
LINE
  8
0
 10
-285.287
 20
-87.5092
 11
-285.534
 21
-87.2042
  0
LINE
  8
0
 10
-285.534
 20
-87.2042
 11
-285.748
 21
-86.875
  0
LINE
  8
0
 10
-285.748
 20
-86.875
 11
-285.926
 21
-86.5253
  0
LINE
  8
0
 10
-285.926
 20
-86.5253
 11
-286.066
 21
-86.1588
  0
LINE
  8
0
 10
-286.066
 20
-86.1588
 11
-286.168
 21
-85.7797
  0
LINE
  8
0
 10
-286.168
 20
-85.7797
 11
-286.229
 21
-85.392
  0
LINE
  8
0
 10
-286.229
 20
-85.392
 11
-286.25
 21
-85
  0
LINE
  8
0
 10
-286.25
 20
-85
 11
-286.229
 21
-84.608
  0
LINE
  8
0
 10
-286.229
 20
-84.608
 11
-286.168
 21
-84.2203
  0
LINE
  8
0
 10
-286.168
 20
-84.2203
 11
-286.066
 21
-83.8412
  0
LINE
  8
0
 10
-286.066
 20
-83.8412
 11
-285.926
 21
-83.4747
  0
LINE
  8
0
 10
-285.926
 20
-83.4747
 11
-285.748
 21
-83.125
  0
LINE
  8
0
 10
-285.748
 20
-83.125
 11
-285.534
 21
-82.7958
  0
LINE
  8
0
 10
-285.534
 20
-82.7958
 11
-285.287
 21
-82.4908
  0
LINE
  8
0
 10
-285.287
 20
-82.4908
 11
-285.009
 21
-82.2132
  0
LINE
  8
0
 10
-285.009
 20
-82.2132
 11
-284.704
 21
-81.9662
  0
LINE
  8
0
 10
-284.704
 20
-81.9662
 11
-284.375
 21
-81.7524
  0
LINE
  8
0
 10
-284.375
 20
-81.7524
 11
-284.025
 21
-81.5742
  0
LINE
  8
0
 10
-284.025
 20
-81.5742
 11
-283.659
 21
-81.4335
  0
LINE
  8
0
 10
-283.659
 20
-81.4335
 11
-283.28
 21
-81.3319
  0
LINE
  8
0
 10
-283.28
 20
-81.3319
 11
-282.892
 21
-81.2705
  0
LINE
  8
0
 10
-282.892
 20
-81.2705
 11
-282.5
 21
-81.25
  0
LINE
  8
0
 10
-282.5
 20
-81.25
 11
-282.108
 21
-81.2705
  0
LINE
  8
0
 10
-282.108
 20
-81.2705
 11
-281.72
 21
-81.3319
  0
LINE
  8
0
 10
-281.72
 20
-81.3319
 11
-281.341
 21
-81.4335
  0
LINE
  8
0
 10
-281.341
 20
-81.4335
 11
-280.975
 21
-81.5742
  0
LINE
  8
0
 10
-280.975
 20
-81.5742
 11
-280.625
 21
-81.7524
  0
LINE
  8
0
 10
-280.625
 20
-81.7524
 11
-280.296
 21
-81.9662
  0
LINE
  8
0
 10
-280.296
 20
-81.9662
 11
-279.991
 21
-82.2132
  0
LINE
  8
0
 10
-279.991
 20
-82.2132
 11
-279.713
 21
-82.4908
  0
LINE
  8
0
 10
-279.713
 20
-82.4908
 11
-279.466
 21
-82.7958
  0
LINE
  8
0
 10
-279.466
 20
-82.7958
 11
-279.252
 21
-83.125
  0
LINE
  8
0
 10
-279.252
 20
-83.125
 11
-279.074
 21
-83.4747
  0
LINE
  8
0
 10
-279.074
 20
-83.4747
 11
-278.934
 21
-83.8412
  0
LINE
  8
0
 10
-278.934
 20
-83.8412
 11
-278.832
 21
-84.2203
  0
LINE
  8
0
 10
-278.832
 20
-84.2203
 11
-278.771
 21
-84.608
  0
LINE
  8
0
 10
-278.771
 20
-84.608
 11
-278.75
 21
-85
  0
LINE
  8
0
 10
-278.75
 20
-85
 11
-278.771
 21
-85.392
  0
LINE
  8
0
 10
-278.771
 20
-85.392
 11
-278.832
 21
-85.7797
  0
LINE
  8
0
 10
-278.832
 20
-85.7797
 11
-278.934
 21
-86.1588
  0
LINE
  8
0
 10
-278.934
 20
-86.1588
 11
-279.074
 21
-86.5253
  0
LINE
  8
0
 10
-279.074
 20
-86.5253
 11
-279.252
 21
-86.875
  0
LINE
  8
0
 10
-279.252
 20
-86.875
 11
-279.466
 21
-87.2042
  0
LINE
  8
0
 10
-279.466
 20
-87.2042
 11
-279.713
 21
-87.5092
  0
LINE
  8
0
 10
-279.713
 20
-87.5092
 11
-279.991
 21
-87.7868
  0
LINE
  8
0
 10
-279.991
 20
-87.7868
 11
-280.296
 21
-88.0338
  0
LINE
  8
0
 10
-280.296
 20
-88.0338
 11
-280.625
 21
-88.2476
  0
LINE
  8
0
 10
-280.625
 20
-88.2476
 11
-280.975
 21
-88.4258
  0
LINE
  8
0
 10
-280.975
 20
-88.4258
 11
-281.341
 21
-88.5665
  0
LINE
  8
0
 10
-281.341
 20
-88.5665
 11
-281.72
 21
-88.668
  0
LINE
  8
0
 10
-281.72
 20
-88.668
 11
-282.108
 21
-88.7294
  0
LINE
  8
0
 10
-282.108
 20
-88.7294
 11
-282.5
 21
-88.75
  0
LINE
  8
0
 10
-282.5
 20
-88.75
 11
-282.892
 21
-88.7294
  0
LINE
  8
0
 10
282.108
 20
-88.7294
 11
281.72
 21
-88.668
  0
LINE
  8
0
 10
281.72
 20
-88.668
 11
281.341
 21
-88.5665
  0
LINE
  8
0
 10
281.341
 20
-88.5665
 11
280.975
 21
-88.4258
  0
LINE
  8
0
 10
280.975
 20
-88.4258
 11
280.625
 21
-88.2476
  0
LINE
  8
0
 10
280.625
 20
-88.2476
 11
280.296
 21
-88.0338
  0
LINE
  8
0
 10
280.296
 20
-88.0338
 11
279.991
 21
-87.7868
  0
LINE
  8
0
 10
279.991
 20
-87.7868
 11
279.713
 21
-87.5092
  0
LINE
  8
0
 10
279.713
 20
-87.5092
 11
279.466
 21
-87.2042
  0
LINE
  8
0
 10
279.466
 20
-87.2042
 11
279.252
 21
-86.875
  0
LINE
  8
0
 10
279.252
 20
-86.875
 11
279.074
 21
-86.5253
  0
LINE
  8
0
 10
279.074
 20
-86.5253
 11
278.934
 21
-86.1588
  0
LINE
  8
0
 10
278.934
 20
-86.1588
 11
278.832
 21
-85.7797
  0
LINE
  8
0
 10
278.832
 20
-85.7797
 11
278.771
 21
-85.392
  0
LINE
  8
0
 10
278.771
 20
-85.392
 11
278.75
 21
-85
  0
LINE
  8
0
 10
278.75
 20
-85
 11
278.771
 21
-84.608
  0
LINE
  8
0
 10
278.771
 20
-84.608
 11
278.832
 21
-84.2203
  0
LINE
  8
0
 10
278.832
 20
-84.2203
 11
278.934
 21
-83.8412
  0
LINE
  8
0
 10
278.934
 20
-83.8412
 11
279.074
 21
-83.4747
  0
LINE
  8
0
 10
279.074
 20
-83.4747
 11
279.252
 21
-83.125
  0
LINE
  8
0
 10
279.252
 20
-83.125
 11
279.466
 21
-82.7958
  0
LINE
  8
0
 10
279.466
 20
-82.7958
 11
279.713
 21
-82.4908
  0
LINE
  8
0
 10
279.713
 20
-82.4908
 11
279.991
 21
-82.2132
  0
LINE
  8
0
 10
279.991
 20
-82.2132
 11
280.296
 21
-81.9662
  0
LINE
  8
0
 10
280.296
 20
-81.9662
 11
280.625
 21
-81.7524
  0
LINE
  8
0
 10
280.625
 20
-81.7524
 11
280.975
 21
-81.5742
  0
LINE
  8
0
 10
280.975
 20
-81.5742
 11
281.341
 21
-81.4335
  0
LINE
  8
0
 10
281.341
 20
-81.4335
 11
281.72
 21
-81.3319
  0
LINE
  8
0
 10
281.72
 20
-81.3319
 11
282.108
 21
-81.2705
  0
LINE
  8
0
 10
282.108
 20
-81.2705
 11
282.5
 21
-81.25
  0
LINE
  8
0
 10
282.5
 20
-81.25
 11
282.892
 21
-81.2705
  0
LINE
  8
0
 10
282.892
 20
-81.2705
 11
283.28
 21
-81.3319
  0
LINE
  8
0
 10
283.28
 20
-81.3319
 11
283.659
 21
-81.4335
  0
LINE
  8
0
 10
283.659
 20
-81.4335
 11
284.025
 21
-81.5742
  0
LINE
  8
0
 10
284.025
 20
-81.5742
 11
284.375
 21
-81.7524
  0
LINE
  8
0
 10
284.375
 20
-81.7524
 11
284.704
 21
-81.9662
  0
LINE
  8
0
 10
284.704
 20
-81.9662
 11
285.009
 21
-82.2132
  0
LINE
  8
0
 10
285.009
 20
-82.2132
 11
285.287
 21
-82.4908
  0
LINE
  8
0
 10
285.287
 20
-82.4908
 11
285.534
 21
-82.7958
  0
LINE
  8
0
 10
285.534
 20
-82.7958
 11
285.748
 21
-83.125
  0
LINE
  8
0
 10
285.748
 20
-83.125
 11
285.926
 21
-83.4747
  0
LINE
  8
0
 10
285.926
 20
-83.4747
 11
286.066
 21
-83.8412
  0
LINE
  8
0
 10
286.066
 20
-83.8412
 11
286.168
 21
-84.2203
  0
LINE
  8
0
 10
286.168
 20
-84.2203
 11
286.229
 21
-84.608
  0
LINE
  8
0
 10
286.229
 20
-84.608
 11
286.25
 21
-85
  0
LINE
  8
0
 10
286.25
 20
-85
 11
286.229
 21
-85.392
  0
LINE
  8
0
 10
286.229
 20
-85.392
 11
286.168
 21
-85.7797
  0
LINE
  8
0
 10
286.168
 20
-85.7797
 11
286.066
 21
-86.1588
  0
LINE
  8
0
 10
286.066
 20
-86.1588
 11
285.926
 21
-86.5253
  0
LINE
  8
0
 10
285.926
 20
-86.5253
 11
285.748
 21
-86.875
  0
LINE
  8
0
 10
285.748
 20
-86.875
 11
285.534
 21
-87.2042
  0
LINE
  8
0
 10
285.534
 20
-87.2042
 11
285.287
 21
-87.5092
  0
LINE
  8
0
 10
285.287
 20
-87.5092
 11
285.009
 21
-87.7868
  0
LINE
  8
0
 10
285.009
 20
-87.7868
 11
284.704
 21
-88.0338
  0
LINE
  8
0
 10
284.704
 20
-88.0338
 11
284.375
 21
-88.2476
  0
LINE
  8
0
 10
284.375
 20
-88.2476
 11
284.025
 21
-88.4258
  0
LINE
  8
0
 10
284.025
 20
-88.4258
 11
283.659
 21
-88.5665
  0
LINE
  8
0
 10
283.659
 20
-88.5665
 11
283.28
 21
-88.668
  0
LINE
  8
0
 10
283.28
 20
-88.668
 11
282.892
 21
-88.7294
  0
LINE
  8
0
 10
282.892
 20
-88.7294
 11
282.5
 21
-88.75
  0
LINE
  8
0
 10
282.5
 20
-88.75
 11
282.108
 21
-88.7294
  0
ENDSEC
  0
SECTION
  2
OBJECTS
  0
DICTIONARY
  0
ENDSEC
  0
EOF
