  0
SECTION
  2
BLOCKS
  0
ENDSEC
  0
SECTION
  2
ENTITIES
  0
LINE
  8
0
 10
-260
 20
148.85
 11
-259.973
 21
149.373
  0
LINE
  8
0
 10
-259.973
 20
149.373
 11
-259.891
 21
149.89
  0
LINE
  8
0
 10
-259.891
 20
149.89
 11
-259.755
 21
150.395
  0
LINE
  8
0
 10
-259.755
 20
150.395
 11
-259.568
 21
150.884
  0
LINE
  8
0
 10
-259.568
 20
150.884
 11
-259.33
 21
151.35
  0
LINE
  8
0
 10
-259.33
 20
151.35
 11
-259.045
 21
151.789
  0
LINE
  8
0
 10
-259.045
 20
151.789
 11
-258.716
 21
152.196
  0
LINE
  8
0
 10
-258.716
 20
152.196
 11
-258.346
 21
152.566
  0
LINE
  8
0
 10
-258.346
 20
152.566
 11
-257.939
 21
152.895
  0
LINE
  8
0
 10
-257.939
 20
152.895
 11
-257.5
 21
153.18
  0
LINE
  8
0
 10
-257.5
 20
153.18
 11
-257.034
 21
153.418
  0
LINE
  8
0
 10
-257.034
 20
153.418
 11
-256.545
 21
153.605
  0
LINE
  8
0
 10
-256.545
 20
153.605
 11
-256.04
 21
153.741
  0
LINE
  8
0
 10
-256.04
 20
153.741
 11
-255.523
 21
153.823
  0
LINE
  8
0
 10
-255.523
 20
153.823
 11
-255
 21
153.85
  0
LINE
  8
0
 10
-255
 20
153.85
 11
255
 21
153.85
  0
LINE
  8
0
 10
255
 20
153.85
 11
255.523
 21
153.823
  0
LINE
  8
0
 10
255.523
 20
153.823
 11
256.04
 21
153.741
  0
LINE
  8
0
 10
256.04
 20
153.741
 11
256.545
 21
153.605
  0
LINE
  8
0
 10
256.545
 20
153.605
 11
257.034
 21
153.418
  0
LINE
  8
0
 10
257.034
 20
153.418
 11
257.5
 21
153.18
  0
LINE
  8
0
 10
257.5
 20
153.18
 11
257.939
 21
152.895
  0
LINE
  8
0
 10
257.939
 20
152.895
 11
258.346
 21
152.566
  0
LINE
  8
0
 10
258.346
 20
152.566
 11
258.716
 21
152.196
  0
LINE
  8
0
 10
258.716
 20
152.196
 11
259.045
 21
151.789
  0
LINE
  8
0
 10
259.045
 20
151.789
 11
259.33
 21
151.35
  0
LINE
  8
0
 10
259.33
 20
151.35
 11
259.568
 21
150.884
  0
LINE
  8
0
 10
259.568
 20
150.884
 11
259.755
 21
150.395
  0
LINE
  8
0
 10
259.755
 20
150.395
 11
259.891
 21
149.89
  0
LINE
  8
0
 10
259.891
 20
149.89
 11
259.973
 21
149.373
  0
LINE
  8
0
 10
259.973
 20
149.373
 11
260
 21
148.85
  0
LINE
  8
0
 10
260
 20
148.85
 11
260
 21
-206.225
  0
LINE
  8
0
 10
260
 20
-206.225
 11
284.875
 21
-206.225
  0
LINE
  8
0
 10
284.875
 20
-206.225
 11
285.398
 21
-206.198
  0
LINE
  8
0
 10
285.398
 20
-206.198
 11
285.915
 21
-206.116
  0
LINE
  8
0
 10
285.915
 20
-206.116
 11
286.42
 21
-205.98
  0
LINE
  8
0
 10
286.42
 20
-205.98
 11
286.909
 21
-205.793
  0
LINE
  8
0
 10
286.909
 20
-205.793
 11
287.375
 21
-205.555
  0
LINE
  8
0
 10
287.375
 20
-205.555
 11
287.814
 21
-205.27
  0
LINE
  8
0
 10
287.814
 20
-205.27
 11
288.221
 21
-204.941
  0
LINE
  8
0
 10
288.221
 20
-204.941
 11
288.591
 21
-204.571
  0
LINE
  8
0
 10
288.591
 20
-204.571
 11
288.92
 21
-204.164
  0
LINE
  8
0
 10
288.92
 20
-204.164
 11
289.205
 21
-203.725
  0
LINE
  8
0
 10
289.205
 20
-203.725
 11
289.443
 21
-203.259
  0
LINE
  8
0
 10
289.443
 20
-203.259
 11
289.63
 21
-202.77
  0
LINE
  8
0
 10
289.63
 20
-202.77
 11
289.766
 21
-202.265
  0
LINE
  8
0
 10
289.766
 20
-202.265
 11
289.848
 21
-201.748
  0
LINE
  8
0
 10
289.848
 20
-201.748
 11
289.875
 21
-201.225
  0
LINE
  8
0
 10
289.875
 20
-201.225
 11
289.875
 21
201.225
  0
LINE
  8
0
 10
289.875
 20
201.225
 11
289.848
 21
201.748
  0
LINE
  8
0
 10
289.848
 20
201.748
 11
289.766
 21
202.265
  0
LINE
  8
0
 10
289.766
 20
202.265
 11
289.63
 21
202.77
  0
LINE
  8
0
 10
289.63
 20
202.77
 11
289.443
 21
203.259
  0
LINE
  8
0
 10
289.443
 20
203.259
 11
289.205
 21
203.725
  0
LINE
  8
0
 10
289.205
 20
203.725
 11
288.92
 21
204.164
  0
LINE
  8
0
 10
288.92
 20
204.164
 11
288.591
 21
204.571
  0
LINE
  8
0
 10
288.591
 20
204.571
 11
288.221
 21
204.941
  0
LINE
  8
0
 10
288.221
 20
204.941
 11
287.814
 21
205.27
  0
LINE
  8
0
 10
287.814
 20
205.27
 11
287.375
 21
205.555
  0
LINE
  8
0
 10
287.375
 20
205.555
 11
286.909
 21
205.793
  0
LINE
  8
0
 10
286.909
 20
205.793
 11
286.42
 21
205.98
  0
LINE
  8
0
 10
286.42
 20
205.98
 11
285.915
 21
206.116
  0
LINE
  8
0
 10
285.915
 20
206.116
 11
285.398
 21
206.198
  0
LINE
  8
0
 10
285.398
 20
206.198
 11
284.875
 21
206.225
  0
LINE
  8
0
 10
284.875
 20
206.225
 11
-284.875
 21
206.225
  0
LINE
  8
0
 10
-284.875
 20
206.225
 11
-285.398
 21
206.198
  0
LINE
  8
0
 10
-285.398
 20
206.198
 11
-285.915
 21
206.116
  0
LINE
  8
0
 10
-285.915
 20
206.116
 11
-286.42
 21
205.98
  0
LINE
  8
0
 10
-286.42
 20
205.98
 11
-286.909
 21
205.793
  0
LINE
  8
0
 10
-286.909
 20
205.793
 11
-287.375
 21
205.555
  0
LINE
  8
0
 10
-287.375
 20
205.555
 11
-287.814
 21
205.27
  0
LINE
  8
0
 10
-287.814
 20
205.27
 11
-288.221
 21
204.941
  0
LINE
  8
0
 10
-288.221
 20
204.941
 11
-288.591
 21
204.571
  0
LINE
  8
0
 10
-288.591
 20
204.571
 11
-288.92
 21
204.164
  0
LINE
  8
0
 10
-288.92
 20
204.164
 11
-289.205
 21
203.725
  0
LINE
  8
0
 10
-289.205
 20
203.725
 11
-289.443
 21
203.259
  0
LINE
  8
0
 10
-289.443
 20
203.259
 11
-289.63
 21
202.77
  0
LINE
  8
0
 10
-289.63
 20
202.77
 11
-289.766
 21
202.265
  0
LINE
  8
0
 10
-289.766
 20
202.265
 11
-289.848
 21
201.748
  0
LINE
  8
0
 10
-289.848
 20
201.748
 11
-289.875
 21
201.225
  0
LINE
  8
0
 10
-289.875
 20
201.225
 11
-289.875
 21
-201.225
  0
LINE
  8
0
 10
-289.875
 20
-201.225
 11
-289.848
 21
-201.748
  0
LINE
  8
0
 10
-289.848
 20
-201.748
 11
-289.766
 21
-202.265
  0
LINE
  8
0
 10
-289.766
 20
-202.265
 11
-289.63
 21
-202.77
  0
LINE
  8
0
 10
-289.63
 20
-202.77
 11
-289.443
 21
-203.259
  0
LINE
  8
0
 10
-289.443
 20
-203.259
 11
-289.205
 21
-203.725
  0
LINE
  8
0
 10
-289.205
 20
-203.725
 11
-288.92
 21
-204.164
  0
LINE
  8
0
 10
-288.92
 20
-204.164
 11
-288.591
 21
-204.571
  0
LINE
  8
0
 10
-288.591
 20
-204.571
 11
-288.221
 21
-204.941
  0
LINE
  8
0
 10
-288.221
 20
-204.941
 11
-287.814
 21
-205.27
  0
LINE
  8
0
 10
-287.814
 20
-205.27
 11
-287.375
 21
-205.555
  0
LINE
  8
0
 10
-287.375
 20
-205.555
 11
-286.909
 21
-205.793
  0
LINE
  8
0
 10
-286.909
 20
-205.793
 11
-286.42
 21
-205.98
  0
LINE
  8
0
 10
-286.42
 20
-205.98
 11
-285.915
 21
-206.116
  0
LINE
  8
0
 10
-285.915
 20
-206.116
 11
-285.398
 21
-206.198
  0
LINE
  8
0
 10
-285.398
 20
-206.198
 11
-284.875
 21
-206.225
  0
LINE
  8
0
 10
-284.875
 20
-206.225
 11
-260
 21
-206.225
  0
LINE
  8
0
 10
-260
 20
-206.225
 11
-260
 21
148.85
  0
LINE
  8
0
 10
282.108
 20
195.121
 11
281.72
 21
195.182
  0
LINE
  8
0
 10
281.72
 20
195.182
 11
281.341
 21
195.284
  0
LINE
  8
0
 10
281.341
 20
195.284
 11
280.975
 21
195.424
  0
LINE
  8
0
 10
280.975
 20
195.424
 11
280.625
 21
195.602
  0
LINE
  8
0
 10
280.625
 20
195.602
 11
280.296
 21
195.816
  0
LINE
  8
0
 10
280.296
 20
195.816
 11
279.991
 21
196.063
  0
LINE
  8
0
 10
279.991
 20
196.063
 11
279.713
 21
196.341
  0
LINE
  8
0
 10
279.713
 20
196.341
 11
279.466
 21
196.646
  0
LINE
  8
0
 10
279.466
 20
196.646
 11
279.252
 21
196.975
  0
LINE
  8
0
 10
279.252
 20
196.975
 11
279.074
 21
197.325
  0
LINE
  8
0
 10
279.074
 20
197.325
 11
278.934
 21
197.691
  0
LINE
  8
0
 10
278.934
 20
197.691
 11
278.832
 21
198.07
  0
LINE
  8
0
 10
278.832
 20
198.07
 11
278.771
 21
198.458
  0
LINE
  8
0
 10
278.771
 20
198.458
 11
278.75
 21
198.85
  0
LINE
  8
0
 10
278.75
 20
198.85
 11
278.771
 21
199.242
  0
LINE
  8
0
 10
278.771
 20
199.242
 11
278.832
 21
199.63
  0
LINE
  8
0
 10
278.832
 20
199.63
 11
278.934
 21
200.009
  0
LINE
  8
0
 10
278.934
 20
200.009
 11
279.074
 21
200.375
  0
LINE
  8
0
 10
279.074
 20
200.375
 11
279.252
 21
200.725
  0
LINE
  8
0
 10
279.252
 20
200.725
 11
279.466
 21
201.054
  0
LINE
  8
0
 10
279.466
 20
201.054
 11
279.713
 21
201.359
  0
LINE
  8
0
 10
279.713
 20
201.359
 11
279.991
 21
201.637
  0
LINE
  8
0
 10
279.991
 20
201.637
 11
280.296
 21
201.884
  0
LINE
  8
0
 10
280.296
 20
201.884
 11
280.625
 21
202.098
  0
LINE
  8
0
 10
280.625
 20
202.098
 11
280.975
 21
202.276
  0
LINE
  8
0
 10
280.975
 20
202.276
 11
281.341
 21
202.416
  0
LINE
  8
0
 10
281.341
 20
202.416
 11
281.72
 21
202.518
  0
LINE
  8
0
 10
281.72
 20
202.518
 11
282.108
 21
202.579
  0
LINE
  8
0
 10
282.108
 20
202.579
 11
282.5
 21
202.6
  0
LINE
  8
0
 10
282.5
 20
202.6
 11
282.892
 21
202.579
  0
LINE
  8
0
 10
282.892
 20
202.579
 11
283.28
 21
202.518
  0
LINE
  8
0
 10
283.28
 20
202.518
 11
283.659
 21
202.416
  0
LINE
  8
0
 10
283.659
 20
202.416
 11
284.025
 21
202.276
  0
LINE
  8
0
 10
284.025
 20
202.276
 11
284.375
 21
202.098
  0
LINE
  8
0
 10
284.375
 20
202.098
 11
284.704
 21
201.884
  0
LINE
  8
0
 10
284.704
 20
201.884
 11
285.009
 21
201.637
  0
LINE
  8
0
 10
285.009
 20
201.637
 11
285.287
 21
201.359
  0
LINE
  8
0
 10
285.287
 20
201.359
 11
285.534
 21
201.054
  0
LINE
  8
0
 10
285.534
 20
201.054
 11
285.748
 21
200.725
  0
LINE
  8
0
 10
285.748
 20
200.725
 11
285.926
 21
200.375
  0
LINE
  8
0
 10
285.926
 20
200.375
 11
286.066
 21
200.009
  0
LINE
  8
0
 10
286.066
 20
200.009
 11
286.168
 21
199.63
  0
LINE
  8
0
 10
286.168
 20
199.63
 11
286.229
 21
199.242
  0
LINE
  8
0
 10
286.229
 20
199.242
 11
286.25
 21
198.85
  0
LINE
  8
0
 10
286.25
 20
198.85
 11
286.229
 21
198.458
  0
LINE
  8
0
 10
286.229
 20
198.458
 11
286.168
 21
198.07
  0
LINE
  8
0
 10
286.168
 20
198.07
 11
286.066
 21
197.691
  0
LINE
  8
0
 10
286.066
 20
197.691
 11
285.926
 21
197.325
  0
LINE
  8
0
 10
285.926
 20
197.325
 11
285.748
 21
196.975
  0
LINE
  8
0
 10
285.748
 20
196.975
 11
285.534
 21
196.646
  0
LINE
  8
0
 10
285.534
 20
196.646
 11
285.287
 21
196.341
  0
LINE
  8
0
 10
285.287
 20
196.341
 11
285.009
 21
196.063
  0
LINE
  8
0
 10
285.009
 20
196.063
 11
284.704
 21
195.816
  0
LINE
  8
0
 10
284.704
 20
195.816
 11
284.375
 21
195.602
  0
LINE
  8
0
 10
284.375
 20
195.602
 11
284.025
 21
195.424
  0
LINE
  8
0
 10
284.025
 20
195.424
 11
283.659
 21
195.284
  0
LINE
  8
0
 10
283.659
 20
195.284
 11
283.28
 21
195.182
  0
LINE
  8
0
 10
283.28
 20
195.182
 11
282.892
 21
195.121
  0
LINE
  8
0
 10
282.892
 20
195.121
 11
282.5
 21
195.1
  0
LINE
  8
0
 10
282.5
 20
195.1
 11
282.108
 21
195.121
  0
LINE
  8
0
 10
-282.892
 20
195.121
 11
-283.28
 21
195.182
  0
LINE
  8
0
 10
-283.28
 20
195.182
 11
-283.659
 21
195.284
  0
LINE
  8
0
 10
-283.659
 20
195.284
 11
-284.025
 21
195.424
  0
LINE
  8
0
 10
-284.025
 20
195.424
 11
-284.375
 21
195.602
  0
LINE
  8
0
 10
-284.375
 20
195.602
 11
-284.704
 21
195.816
  0
LINE
  8
0
 10
-284.704
 20
195.816
 11
-285.009
 21
196.063
  0
LINE
  8
0
 10
-285.009
 20
196.063
 11
-285.287
 21
196.341
  0
LINE
  8
0
 10
-285.287
 20
196.341
 11
-285.534
 21
196.646
  0
LINE
  8
0
 10
-285.534
 20
196.646
 11
-285.748
 21
196.975
  0
LINE
  8
0
 10
-285.748
 20
196.975
 11
-285.926
 21
197.325
  0
LINE
  8
0
 10
-285.926
 20
197.325
 11
-286.066
 21
197.691
  0
LINE
  8
0
 10
-286.066
 20
197.691
 11
-286.168
 21
198.07
  0
LINE
  8
0
 10
-286.168
 20
198.07
 11
-286.229
 21
198.458
  0
LINE
  8
0
 10
-286.229
 20
198.458
 11
-286.25
 21
198.85
  0
LINE
  8
0
 10
-286.25
 20
198.85
 11
-286.229
 21
199.242
  0
LINE
  8
0
 10
-286.229
 20
199.242
 11
-286.168
 21
199.63
  0
LINE
  8
0
 10
-286.168
 20
199.63
 11
-286.066
 21
200.009
  0
LINE
  8
0
 10
-286.066
 20
200.009
 11
-285.926
 21
200.375
  0
LINE
  8
0
 10
-285.926
 20
200.375
 11
-285.748
 21
200.725
  0
LINE
  8
0
 10
-285.748
 20
200.725
 11
-285.534
 21
201.054
  0
LINE
  8
0
 10
-285.534
 20
201.054
 11
-285.287
 21
201.359
  0
LINE
  8
0
 10
-285.287
 20
201.359
 11
-285.009
 21
201.637
  0
LINE
  8
0
 10
-285.009
 20
201.637
 11
-284.704
 21
201.884
  0
LINE
  8
0
 10
-284.704
 20
201.884
 11
-284.375
 21
202.098
  0
LINE
  8
0
 10
-284.375
 20
202.098
 11
-284.025
 21
202.276
  0
LINE
  8
0
 10
-284.025
 20
202.276
 11
-283.659
 21
202.416
  0
LINE
  8
0
 10
-283.659
 20
202.416
 11
-283.28
 21
202.518
  0
LINE
  8
0
 10
-283.28
 20
202.518
 11
-282.892
 21
202.579
  0
LINE
  8
0
 10
-282.892
 20
202.579
 11
-282.5
 21
202.6
  0
LINE
  8
0
 10
-282.5
 20
202.6
 11
-282.108
 21
202.579
  0
LINE
  8
0
 10
-282.108
 20
202.579
 11
-281.72
 21
202.518
  0
LINE
  8
0
 10
-281.72
 20
202.518
 11
-281.341
 21
202.416
  0
LINE
  8
0
 10
-281.341
 20
202.416
 11
-280.975
 21
202.276
  0
LINE
  8
0
 10
-280.975
 20
202.276
 11
-280.625
 21
202.098
  0
LINE
  8
0
 10
-280.625
 20
202.098
 11
-280.296
 21
201.884
  0
LINE
  8
0
 10
-280.296
 20
201.884
 11
-279.991
 21
201.637
  0
LINE
  8
0
 10
-279.991
 20
201.637
 11
-279.713
 21
201.359
  0
LINE
  8
0
 10
-279.713
 20
201.359
 11
-279.466
 21
201.054
  0
LINE
  8
0
 10
-279.466
 20
201.054
 11
-279.252
 21
200.725
  0
LINE
  8
0
 10
-279.252
 20
200.725
 11
-279.074
 21
200.375
  0
LINE
  8
0
 10
-279.074
 20
200.375
 11
-278.934
 21
200.009
  0
LINE
  8
0
 10
-278.934
 20
200.009
 11
-278.832
 21
199.63
  0
LINE
  8
0
 10
-278.832
 20
199.63
 11
-278.771
 21
199.242
  0
LINE
  8
0
 10
-278.771
 20
199.242
 11
-278.75
 21
198.85
  0
LINE
  8
0
 10
-278.75
 20
198.85
 11
-278.771
 21
198.458
  0
LINE
  8
0
 10
-278.771
 20
198.458
 11
-278.832
 21
198.07
  0
LINE
  8
0
 10
-278.832
 20
198.07
 11
-278.934
 21
197.691
  0
LINE
  8
0
 10
-278.934
 20
197.691
 11
-279.074
 21
197.325
  0
LINE
  8
0
 10
-279.074
 20
197.325
 11
-279.252
 21
196.975
  0
LINE
  8
0
 10
-279.252
 20
196.975
 11
-279.466
 21
196.646
  0
LINE
  8
0
 10
-279.466
 20
196.646
 11
-279.713
 21
196.341
  0
LINE
  8
0
 10
-279.713
 20
196.341
 11
-279.991
 21
196.063
  0
LINE
  8
0
 10
-279.991
 20
196.063
 11
-280.296
 21
195.816
  0
LINE
  8
0
 10
-280.296
 20
195.816
 11
-280.625
 21
195.602
  0
LINE
  8
0
 10
-280.625
 20
195.602
 11
-280.975
 21
195.424
  0
LINE
  8
0
 10
-280.975
 20
195.424
 11
-281.341
 21
195.284
  0
LINE
  8
0
 10
-281.341
 20
195.284
 11
-281.72
 21
195.182
  0
LINE
  8
0
 10
-281.72
 20
195.182
 11
-282.108
 21
195.121
  0
LINE
  8
0
 10
-282.108
 20
195.121
 11
-282.5
 21
195.1
  0
LINE
  8
0
 10
-282.5
 20
195.1
 11
-282.892
 21
195.121
  0
LINE
  8
0
 10
48.43
 20
200.495
 11
48.6649
 21
200.415
  0
LINE
  8
0
 10
48.6649
 20
200.415
 11
48.8856
 21
200.301
  0
LINE
  8
0
 10
48.8856
 20
200.301
 11
49.0874
 21
200.157
  0
LINE
  8
0
 10
49.0874
 20
200.157
 11
49.2661
 21
199.984
  0
LINE
  8
0
 10
49.2661
 20
199.984
 11
49.4178
 21
199.788
  0
LINE
  8
0
 10
49.4178
 20
199.788
 11
49.5393
 21
199.572
  0
LINE
  8
0
 10
49.5393
 20
199.572
 11
49.6279
 21
199.34
  0
LINE
  8
0
 10
49.6279
 20
199.34
 11
49.6819
 21
199.098
  0
LINE
  8
0
 10
49.6819
 20
199.098
 11
49.7
 21
198.85
  0
LINE
  8
0
 10
49.7
 20
198.85
 11
49.6819
 21
198.602
  0
LINE
  8
0
 10
49.6819
 20
198.602
 11
49.6279
 21
198.36
  0
LINE
  8
0
 10
49.6279
 20
198.36
 11
49.5393
 21
198.128
  0
LINE
  8
0
 10
49.5393
 20
198.128
 11
49.4178
 21
197.912
  0
LINE
  8
0
 10
49.4178
 20
197.912
 11
49.2661
 21
197.716
  0
LINE
  8
0
 10
49.2661
 20
197.716
 11
49.0874
 21
197.543
  0
LINE
  8
0
 10
49.0874
 20
197.543
 11
48.8856
 21
197.399
  0
LINE
  8
0
 10
48.8856
 20
197.399
 11
48.6649
 21
197.285
  0
LINE
  8
0
 10
48.6649
 20
197.285
 11
48.43
 21
197.205
  0
LINE
  8
0
 10
48.43
 20
197.205
 11
48.1859
 21
197.16
  0
LINE
  8
0
 10
48.1859
 20
197.16
 11
47.9379
 21
197.151
  0
LINE
  8
0
 10
47.9379
 20
197.151
 11
47.6912
 21
197.178
  0
LINE
  8
0
 10
47.6912
 20
197.178
 11
47.4511
 21
197.241
  0
LINE
  8
0
 10
47.4511
 20
197.241
 11
47.2227
 21
197.338
  0
LINE
  8
0
 10
47.2227
 20
197.338
 11
47.0108
 21
197.467
  0
LINE
  8
0
 10
47.0108
 20
197.467
 11
46.8201
 21
197.626
  0
LINE
  8
0
 10
46.8201
 20
197.626
 11
46.6544
 21
197.811
  0
LINE
  8
0
 10
46.6544
 20
197.811
 11
46.5175
 21
198.018
  0
LINE
  8
0
 10
46.5175
 20
198.018
 11
46.4122
 21
198.243
  0
LINE
  8
0
 10
46.4122
 20
198.243
 11
46.3407
 21
198.48
  0
LINE
  8
0
 10
46.3407
 20
198.48
 11
46.3045
 21
198.726
  0
LINE
  8
0
 10
46.3045
 20
198.726
 11
46.3045
 21
198.974
  0
LINE
  8
0
 10
46.3045
 20
198.974
 11
46.3407
 21
199.22
  0
LINE
  8
0
 10
46.3407
 20
199.22
 11
46.4122
 21
199.457
  0
LINE
  8
0
 10
46.4122
 20
199.457
 11
46.5175
 21
199.682
  0
LINE
  8
0
 10
46.5175
 20
199.682
 11
46.6544
 21
199.889
  0
LINE
  8
0
 10
46.6544
 20
199.889
 11
46.8201
 21
200.074
  0
LINE
  8
0
 10
46.8201
 20
200.074
 11
47.0108
 21
200.233
  0
LINE
  8
0
 10
47.0108
 20
200.233
 11
47.2227
 21
200.362
  0
LINE
  8
0
 10
47.2227
 20
200.362
 11
47.4511
 21
200.459
  0
LINE
  8
0
 10
47.4511
 20
200.459
 11
47.6912
 21
200.522
  0
LINE
  8
0
 10
47.6912
 20
200.522
 11
47.9379
 21
200.549
  0
LINE
  8
0
 10
47.9379
 20
200.549
 11
48.1859
 21
200.54
  0
LINE
  8
0
 10
48.1859
 20
200.54
 11
48.43
 21
200.495
  0
LINE
  8
0
 10
-240.309
 20
197.178
 11
-240.549
 21
197.241
  0
LINE
  8
0
 10
-240.549
 20
197.241
 11
-240.777
 21
197.338
  0
LINE
  8
0
 10
-240.777
 20
197.338
 11
-240.989
 21
197.467
  0
LINE
  8
0
 10
-240.989
 20
197.467
 11
-241.18
 21
197.626
  0
LINE
  8
0
 10
-241.18
 20
197.626
 11
-241.346
 21
197.811
  0
LINE
  8
0
 10
-241.346
 20
197.811
 11
-241.482
 21
198.018
  0
LINE
  8
0
 10
-241.482
 20
198.018
 11
-241.588
 21
198.243
  0
LINE
  8
0
 10
-241.588
 20
198.243
 11
-241.659
 21
198.48
  0
LINE
  8
0
 10
-241.659
 20
198.48
 11
-241.695
 21
198.726
  0
LINE
  8
0
 10
-241.695
 20
198.726
 11
-241.695
 21
198.974
  0
LINE
  8
0
 10
-241.695
 20
198.974
 11
-241.659
 21
199.22
  0
LINE
  8
0
 10
-241.659
 20
199.22
 11
-241.588
 21
199.457
  0
LINE
  8
0
 10
-241.588
 20
199.457
 11
-241.482
 21
199.682
  0
LINE
  8
0
 10
-241.482
 20
199.682
 11
-241.346
 21
199.889
  0
LINE
  8
0
 10
-241.346
 20
199.889
 11
-241.18
 21
200.074
  0
LINE
  8
0
 10
-241.18
 20
200.074
 11
-240.989
 21
200.233
  0
LINE
  8
0
 10
-240.989
 20
200.233
 11
-240.777
 21
200.362
  0
LINE
  8
0
 10
-240.777
 20
200.362
 11
-240.549
 21
200.459
  0
LINE
  8
0
 10
-240.549
 20
200.459
 11
-240.309
 21
200.522
  0
LINE
  8
0
 10
-240.309
 20
200.522
 11
-240.062
 21
200.549
  0
LINE
  8
0
 10
-240.062
 20
200.549
 11
-239.814
 21
200.54
  0
LINE
  8
0
 10
-239.814
 20
200.54
 11
-239.57
 21
200.495
  0
LINE
  8
0
 10
-239.57
 20
200.495
 11
-239.335
 21
200.415
  0
LINE
  8
0
 10
-239.335
 20
200.415
 11
-239.114
 21
200.301
  0
LINE
  8
0
 10
-239.114
 20
200.301
 11
-238.913
 21
200.157
  0
LINE
  8
0
 10
-238.913
 20
200.157
 11
-238.734
 21
199.984
  0
LINE
  8
0
 10
-238.734
 20
199.984
 11
-238.582
 21
199.788
  0
LINE
  8
0
 10
-238.582
 20
199.788
 11
-238.461
 21
199.572
  0
LINE
  8
0
 10
-238.461
 20
199.572
 11
-238.372
 21
199.34
  0
LINE
  8
0
 10
-238.372
 20
199.34
 11
-238.318
 21
199.098
  0
LINE
  8
0
 10
-238.318
 20
199.098
 11
-238.3
 21
198.85
  0
LINE
  8
0
 10
-238.3
 20
198.85
 11
-238.318
 21
198.602
  0
LINE
  8
0
 10
-238.318
 20
198.602
 11
-238.372
 21
198.36
  0
LINE
  8
0
 10
-238.372
 20
198.36
 11
-238.461
 21
198.128
  0
LINE
  8
0
 10
-238.461
 20
198.128
 11
-238.582
 21
197.912
  0
LINE
  8
0
 10
-238.582
 20
197.912
 11
-238.734
 21
197.716
  0
LINE
  8
0
 10
-238.734
 20
197.716
 11
-238.913
 21
197.543
  0
LINE
  8
0
 10
-238.913
 20
197.543
 11
-239.114
 21
197.399
  0
LINE
  8
0
 10
-239.114
 20
197.399
 11
-239.335
 21
197.285
  0
LINE
  8
0
 10
-239.335
 20
197.285
 11
-239.57
 21
197.205
  0
LINE
  8
0
 10
-239.57
 20
197.205
 11
-239.814
 21
197.16
  0
LINE
  8
0
 10
-239.814
 20
197.16
 11
-240.062
 21
197.151
  0
LINE
  8
0
 10
-240.062
 20
197.151
 11
-240.309
 21
197.178
  0
LINE
  8
0
 10
239.691
 20
197.178
 11
239.451
 21
197.241
  0
LINE
  8
0
 10
239.451
 20
197.241
 11
239.223
 21
197.338
  0
LINE
  8
0
 10
239.223
 20
197.338
 11
239.011
 21
197.467
  0
LINE
  8
0
 10
239.011
 20
197.467
 11
238.82
 21
197.626
  0
LINE
  8
0
 10
238.82
 20
197.626
 11
238.654
 21
197.811
  0
LINE
  8
0
 10
238.654
 20
197.811
 11
238.518
 21
198.018
  0
LINE
  8
0
 10
238.518
 20
198.018
 11
238.412
 21
198.243
  0
LINE
  8
0
 10
238.412
 20
198.243
 11
238.341
 21
198.48
  0
LINE
  8
0
 10
238.341
 20
198.48
 11
238.305
 21
198.726
  0
LINE
  8
0
 10
238.305
 20
198.726
 11
238.305
 21
198.974
  0
LINE
  8
0
 10
238.305
 20
198.974
 11
238.341
 21
199.22
  0
LINE
  8
0
 10
238.341
 20
199.22
 11
238.412
 21
199.457
  0
LINE
  8
0
 10
238.412
 20
199.457
 11
238.518
 21
199.682
  0
LINE
  8
0
 10
238.518
 20
199.682
 11
238.654
 21
199.889
  0
LINE
  8
0
 10
238.654
 20
199.889
 11
238.82
 21
200.074
  0
LINE
  8
0
 10
238.82
 20
200.074
 11
239.011
 21
200.233
  0
LINE
  8
0
 10
239.011
 20
200.233
 11
239.223
 21
200.362
  0
LINE
  8
0
 10
239.223
 20
200.362
 11
239.451
 21
200.459
  0
LINE
  8
0
 10
239.451
 20
200.459
 11
239.691
 21
200.522
  0
LINE
  8
0
 10
239.691
 20
200.522
 11
239.938
 21
200.549
  0
LINE
  8
0
 10
239.938
 20
200.549
 11
240.186
 21
200.54
  0
LINE
  8
0
 10
240.186
 20
200.54
 11
240.43
 21
200.495
  0
LINE
  8
0
 10
240.43
 20
200.495
 11
240.665
 21
200.415
  0
LINE
  8
0
 10
240.665
 20
200.415
 11
240.886
 21
200.301
  0
LINE
  8
0
 10
240.886
 20
200.301
 11
241.087
 21
200.157
  0
LINE
  8
0
 10
241.087
 20
200.157
 11
241.266
 21
199.984
  0
LINE
  8
0
 10
241.266
 20
199.984
 11
241.418
 21
199.788
  0
LINE
  8
0
 10
241.418
 20
199.788
 11
241.539
 21
199.572
  0
LINE
  8
0
 10
241.539
 20
199.572
 11
241.628
 21
199.34
  0
LINE
  8
0
 10
241.628
 20
199.34
 11
241.682
 21
199.098
  0
LINE
  8
0
 10
241.682
 20
199.098
 11
241.7
 21
198.85
  0
LINE
  8
0
 10
241.7
 20
198.85
 11
241.682
 21
198.602
  0
LINE
  8
0
 10
241.682
 20
198.602
 11
241.628
 21
198.36
  0
LINE
  8
0
 10
241.628
 20
198.36
 11
241.539
 21
198.128
  0
LINE
  8
0
 10
241.539
 20
198.128
 11
241.418
 21
197.912
  0
LINE
  8
0
 10
241.418
 20
197.912
 11
241.266
 21
197.716
  0
LINE
  8
0
 10
241.266
 20
197.716
 11
241.087
 21
197.543
  0
LINE
  8
0
 10
241.087
 20
197.543
 11
240.886
 21
197.399
  0
LINE
  8
0
 10
240.886
 20
197.399
 11
240.665
 21
197.285
  0
LINE
  8
0
 10
240.665
 20
197.285
 11
240.43
 21
197.205
  0
LINE
  8
0
 10
240.43
 20
197.205
 11
240.186
 21
197.16
  0
LINE
  8
0
 10
240.186
 20
197.16
 11
239.938
 21
197.151
  0
LINE
  8
0
 10
239.938
 20
197.151
 11
239.691
 21
197.178
  0
LINE
  8
0
 10
-48.3088
 20
197.178
 11
-48.5489
 21
197.241
  0
LINE
  8
0
 10
-48.5489
 20
197.241
 11
-48.7773
 21
197.338
  0
LINE
  8
0
 10
-48.7773
 20
197.338
 11
-48.9892
 21
197.467
  0
LINE
  8
0
 10
-48.9892
 20
197.467
 11
-49.1799
 21
197.626
  0
LINE
  8
0
 10
-49.1799
 20
197.626
 11
-49.3455
 21
197.811
  0
LINE
  8
0
 10
-49.3455
 20
197.811
 11
-49.4825
 21
198.018
  0
LINE
  8
0
 10
-49.4825
 20
198.018
 11
-49.5878
 21
198.243
  0
LINE
  8
0
 10
-49.5878
 20
198.243
 11
-49.6593
 21
198.48
  0
LINE
  8
0
 10
-49.6593
 20
198.48
 11
-49.6955
 21
198.726
  0
LINE
  8
0
 10
-49.6955
 20
198.726
 11
-49.6955
 21
198.974
  0
LINE
  8
0
 10
-49.6955
 20
198.974
 11
-49.6593
 21
199.22
  0
LINE
  8
0
 10
-49.6593
 20
199.22
 11
-49.5878
 21
199.457
  0
LINE
  8
0
 10
-49.5878
 20
199.457
 11
-49.4825
 21
199.682
  0
LINE
  8
0
 10
-49.4825
 20
199.682
 11
-49.3455
 21
199.889
  0
LINE
  8
0
 10
-49.3455
 20
199.889
 11
-49.1799
 21
200.074
  0
LINE
  8
0
 10
-49.1799
 20
200.074
 11
-48.9892
 21
200.233
  0
LINE
  8
0
 10
-48.9892
 20
200.233
 11
-48.7773
 21
200.362
  0
LINE
  8
0
 10
-48.7773
 20
200.362
 11
-48.5489
 21
200.459
  0
LINE
  8
0
 10
-48.5489
 20
200.459
 11
-48.3088
 21
200.522
  0
LINE
  8
0
 10
-48.3088
 20
200.522
 11
-48.0621
 21
200.549
  0
LINE
  8
0
 10
-48.0621
 20
200.549
 11
-47.8141
 21
200.54
  0
LINE
  8
0
 10
-47.8141
 20
200.54
 11
-47.57
 21
200.495
  0
LINE
  8
0
 10
-47.57
 20
200.495
 11
-47.3351
 21
200.415
  0
LINE
  8
0
 10
-47.3351
 20
200.415
 11
-47.1144
 21
200.301
  0
LINE
  8
0
 10
-47.1144
 20
200.301
 11
-46.9126
 21
200.157
  0
LINE
  8
0
 10
-46.9126
 20
200.157
 11
-46.7339
 21
199.984
  0
LINE
  8
0
 10
-46.7339
 20
199.984
 11
-46.5822
 21
199.788
  0
LINE
  8
0
 10
-46.5822
 20
199.788
 11
-46.4607
 21
199.572
  0
LINE
  8
0
 10
-46.4607
 20
199.572
 11
-46.3721
 21
199.34
  0
LINE
  8
0
 10
-46.3721
 20
199.34
 11
-46.3181
 21
199.098
  0
LINE
  8
0
 10
-46.3181
 20
199.098
 11
-46.3
 21
198.85
  0
LINE
  8
0
 10
-46.3
 20
198.85
 11
-46.3181
 21
198.602
  0
LINE
  8
0
 10
-46.3181
 20
198.602
 11
-46.3721
 21
198.36
  0
LINE
  8
0
 10
-46.3721
 20
198.36
 11
-46.4607
 21
198.128
  0
LINE
  8
0
 10
-46.4607
 20
198.128
 11
-46.5822
 21
197.912
  0
LINE
  8
0
 10
-46.5822
 20
197.912
 11
-46.7339
 21
197.716
  0
LINE
  8
0
 10
-46.7339
 20
197.716
 11
-46.9126
 21
197.543
  0
LINE
  8
0
 10
-46.9126
 20
197.543
 11
-47.1144
 21
197.399
  0
LINE
  8
0
 10
-47.1144
 20
197.399
 11
-47.3351
 21
197.285
  0
LINE
  8
0
 10
-47.3351
 20
197.285
 11
-47.57
 21
197.205
  0
LINE
  8
0
 10
-47.57
 20
197.205
 11
-47.8141
 21
197.16
  0
LINE
  8
0
 10
-47.8141
 20
197.16
 11
-48.0621
 21
197.151
  0
LINE
  8
0
 10
-48.0621
 20
197.151
 11
-48.3088
 21
197.178
  0
LINE
  8
0
 10
-144.309
 20
197.178
 11
-144.549
 21
197.241
  0
LINE
  8
0
 10
-144.549
 20
197.241
 11
-144.777
 21
197.338
  0
LINE
  8
0
 10
-144.777
 20
197.338
 11
-144.989
 21
197.467
  0
LINE
  8
0
 10
-144.989
 20
197.467
 11
-145.18
 21
197.626
  0
LINE
  8
0
 10
-145.18
 20
197.626
 11
-145.346
 21
197.811
  0
LINE
  8
0
 10
-145.346
 20
197.811
 11
-145.482
 21
198.018
  0
LINE
  8
0
 10
-145.482
 20
198.018
 11
-145.588
 21
198.243
  0
LINE
  8
0
 10
-145.588
 20
198.243
 11
-145.659
 21
198.48
  0
LINE
  8
0
 10
-145.659
 20
198.48
 11
-145.695
 21
198.726
  0
LINE
  8
0
 10
-145.695
 20
198.726
 11
-145.695
 21
198.974
  0
LINE
  8
0
 10
-145.695
 20
198.974
 11
-145.659
 21
199.22
  0
LINE
  8
0
 10
-145.659
 20
199.22
 11
-145.588
 21
199.457
  0
LINE
  8
0
 10
-145.588
 20
199.457
 11
-145.482
 21
199.682
  0
LINE
  8
0
 10
-145.482
 20
199.682
 11
-145.346
 21
199.889
  0
LINE
  8
0
 10
-145.346
 20
199.889
 11
-145.18
 21
200.074
  0
LINE
  8
0
 10
-145.18
 20
200.074
 11
-144.989
 21
200.233
  0
LINE
  8
0
 10
-144.989
 20
200.233
 11
-144.777
 21
200.362
  0
LINE
  8
0
 10
-144.777
 20
200.362
 11
-144.549
 21
200.459
  0
LINE
  8
0
 10
-144.549
 20
200.459
 11
-144.309
 21
200.522
  0
LINE
  8
0
 10
-144.309
 20
200.522
 11
-144.062
 21
200.549
  0
LINE
  8
0
 10
-144.062
 20
200.549
 11
-143.814
 21
200.54
  0
LINE
  8
0
 10
-143.814
 20
200.54
 11
-143.57
 21
200.495
  0
LINE
  8
0
 10
-143.57
 20
200.495
 11
-143.335
 21
200.415
  0
LINE
  8
0
 10
-143.335
 20
200.415
 11
-143.114
 21
200.301
  0
LINE
  8
0
 10
-143.114
 20
200.301
 11
-142.913
 21
200.157
  0
LINE
  8
0
 10
-142.913
 20
200.157
 11
-142.734
 21
199.984
  0
LINE
  8
0
 10
-142.734
 20
199.984
 11
-142.582
 21
199.788
  0
LINE
  8
0
 10
-142.582
 20
199.788
 11
-142.461
 21
199.572
  0
LINE
  8
0
 10
-142.461
 20
199.572
 11
-142.372
 21
199.34
  0
LINE
  8
0
 10
-142.372
 20
199.34
 11
-142.318
 21
199.098
  0
LINE
  8
0
 10
-142.318
 20
199.098
 11
-142.3
 21
198.85
  0
LINE
  8
0
 10
-142.3
 20
198.85
 11
-142.318
 21
198.602
  0
LINE
  8
0
 10
-142.318
 20
198.602
 11
-142.372
 21
198.36
  0
LINE
  8
0
 10
-142.372
 20
198.36
 11
-142.461
 21
198.128
  0
LINE
  8
0
 10
-142.461
 20
198.128
 11
-142.582
 21
197.912
  0
LINE
  8
0
 10
-142.582
 20
197.912
 11
-142.734
 21
197.716
  0
LINE
  8
0
 10
-142.734
 20
197.716
 11
-142.913
 21
197.543
  0
LINE
  8
0
 10
-142.913
 20
197.543
 11
-143.114
 21
197.399
  0
LINE
  8
0
 10
-143.114
 20
197.399
 11
-143.335
 21
197.285
  0
LINE
  8
0
 10
-143.335
 20
197.285
 11
-143.57
 21
197.205
  0
LINE
  8
0
 10
-143.57
 20
197.205
 11
-143.814
 21
197.16
  0
LINE
  8
0
 10
-143.814
 20
197.16
 11
-144.062
 21
197.151
  0
LINE
  8
0
 10
-144.062
 20
197.151
 11
-144.309
 21
197.178
  0
LINE
  8
0
 10
143.691
 20
197.178
 11
143.451
 21
197.241
  0
LINE
  8
0
 10
143.451
 20
197.241
 11
143.223
 21
197.338
  0
LINE
  8
0
 10
143.223
 20
197.338
 11
143.011
 21
197.467
  0
LINE
  8
0
 10
143.011
 20
197.467
 11
142.82
 21
197.626
  0
LINE
  8
0
 10
142.82
 20
197.626
 11
142.654
 21
197.811
  0
LINE
  8
0
 10
142.654
 20
197.811
 11
142.518
 21
198.018
  0
LINE
  8
0
 10
142.518
 20
198.018
 11
142.412
 21
198.243
  0
LINE
  8
0
 10
142.412
 20
198.243
 11
142.341
 21
198.48
  0
LINE
  8
0
 10
142.341
 20
198.48
 11
142.305
 21
198.726
  0
LINE
  8
0
 10
142.305
 20
198.726
 11
142.305
 21
198.974
  0
LINE
  8
0
 10
142.305
 20
198.974
 11
142.341
 21
199.22
  0
LINE
  8
0
 10
142.341
 20
199.22
 11
142.412
 21
199.457
  0
LINE
  8
0
 10
142.412
 20
199.457
 11
142.518
 21
199.682
  0
LINE
  8
0
 10
142.518
 20
199.682
 11
142.654
 21
199.889
  0
LINE
  8
0
 10
142.654
 20
199.889
 11
142.82
 21
200.074
  0
LINE
  8
0
 10
142.82
 20
200.074
 11
143.011
 21
200.233
  0
LINE
  8
0
 10
143.011
 20
200.233
 11
143.223
 21
200.362
  0
LINE
  8
0
 10
143.223
 20
200.362
 11
143.451
 21
200.459
  0
LINE
  8
0
 10
143.451
 20
200.459
 11
143.691
 21
200.522
  0
LINE
  8
0
 10
143.691
 20
200.522
 11
143.938
 21
200.549
  0
LINE
  8
0
 10
143.938
 20
200.549
 11
144.186
 21
200.54
  0
LINE
  8
0
 10
144.186
 20
200.54
 11
144.43
 21
200.495
  0
LINE
  8
0
 10
144.43
 20
200.495
 11
144.665
 21
200.415
  0
LINE
  8
0
 10
144.665
 20
200.415
 11
144.886
 21
200.301
  0
LINE
  8
0
 10
144.886
 20
200.301
 11
145.087
 21
200.157
  0
LINE
  8
0
 10
145.087
 20
200.157
 11
145.266
 21
199.984
  0
LINE
  8
0
 10
145.266
 20
199.984
 11
145.418
 21
199.788
  0
LINE
  8
0
 10
145.418
 20
199.788
 11
145.539
 21
199.572
  0
LINE
  8
0
 10
145.539
 20
199.572
 11
145.628
 21
199.34
  0
LINE
  8
0
 10
145.628
 20
199.34
 11
145.682
 21
199.098
  0
LINE
  8
0
 10
145.682
 20
199.098
 11
145.7
 21
198.85
  0
LINE
  8
0
 10
145.7
 20
198.85
 11
145.682
 21
198.602
  0
LINE
  8
0
 10
145.682
 20
198.602
 11
145.628
 21
198.36
  0
LINE
  8
0
 10
145.628
 20
198.36
 11
145.539
 21
198.128
  0
LINE
  8
0
 10
145.539
 20
198.128
 11
145.418
 21
197.912
  0
LINE
  8
0
 10
145.418
 20
197.912
 11
145.266
 21
197.716
  0
LINE
  8
0
 10
145.266
 20
197.716
 11
145.087
 21
197.543
  0
LINE
  8
0
 10
145.087
 20
197.543
 11
144.886
 21
197.399
  0
LINE
  8
0
 10
144.886
 20
197.399
 11
144.665
 21
197.285
  0
LINE
  8
0
 10
144.665
 20
197.285
 11
144.43
 21
197.205
  0
LINE
  8
0
 10
144.43
 20
197.205
 11
144.186
 21
197.16
  0
LINE
  8
0
 10
144.186
 20
197.16
 11
143.938
 21
197.151
  0
LINE
  8
0
 10
143.938
 20
197.151
 11
143.691
 21
197.178
  0
LINE
  8
0
 10
-282.686
 20
154.66
 11
-282.93
 21
154.705
  0
LINE
  8
0
 10
-282.93
 20
154.705
 11
-283.165
 21
154.785
  0
LINE
  8
0
 10
-283.165
 20
154.785
 11
-283.386
 21
154.899
  0
LINE
  8
0
 10
-283.386
 20
154.899
 11
-283.587
 21
155.043
  0
LINE
  8
0
 10
-283.587
 20
155.043
 11
-283.766
 21
155.216
  0
LINE
  8
0
 10
-283.766
 20
155.216
 11
-283.918
 21
155.412
  0
LINE
  8
0
 10
-283.918
 20
155.412
 11
-284.039
 21
155.628
  0
LINE
  8
0
 10
-284.039
 20
155.628
 11
-284.128
 21
155.86
  0
LINE
  8
0
 10
-284.128
 20
155.86
 11
-284.182
 21
156.102
  0
LINE
  8
0
 10
-284.182
 20
156.102
 11
-284.2
 21
156.35
  0
LINE
  8
0
 10
-284.2
 20
156.35
 11
-284.182
 21
156.598
  0
LINE
  8
0
 10
-284.182
 20
156.598
 11
-284.128
 21
156.84
  0
LINE
  8
0
 10
-284.128
 20
156.84
 11
-284.039
 21
157.072
  0
LINE
  8
0
 10
-284.039
 20
157.072
 11
-283.918
 21
157.288
  0
LINE
  8
0
 10
-283.918
 20
157.288
 11
-283.766
 21
157.484
  0
LINE
  8
0
 10
-283.766
 20
157.484
 11
-283.587
 21
157.657
  0
LINE
  8
0
 10
-283.587
 20
157.657
 11
-283.386
 21
157.801
  0
LINE
  8
0
 10
-283.386
 20
157.801
 11
-283.165
 21
157.915
  0
LINE
  8
0
 10
-283.165
 20
157.915
 11
-282.93
 21
157.995
  0
LINE
  8
0
 10
-282.93
 20
157.995
 11
-282.686
 21
158.04
  0
LINE
  8
0
 10
-282.686
 20
158.04
 11
-282.438
 21
158.049
  0
LINE
  8
0
 10
-282.438
 20
158.049
 11
-282.191
 21
158.022
  0
LINE
  8
0
 10
-282.191
 20
158.022
 11
-281.951
 21
157.959
  0
LINE
  8
0
 10
-281.951
 20
157.959
 11
-281.723
 21
157.862
  0
LINE
  8
0
 10
-281.723
 20
157.862
 11
-281.511
 21
157.733
  0
LINE
  8
0
 10
-281.511
 20
157.733
 11
-281.32
 21
157.574
  0
LINE
  8
0
 10
-281.32
 20
157.574
 11
-281.154
 21
157.389
  0
LINE
  8
0
 10
-281.154
 20
157.389
 11
-281.018
 21
157.182
  0
LINE
  8
0
 10
-281.018
 20
157.182
 11
-280.912
 21
156.957
  0
LINE
  8
0
 10
-280.912
 20
156.957
 11
-280.841
 21
156.72
  0
LINE
  8
0
 10
-280.841
 20
156.72
 11
-280.805
 21
156.474
  0
LINE
  8
0
 10
-280.805
 20
156.474
 11
-280.805
 21
156.226
  0
LINE
  8
0
 10
-280.805
 20
156.226
 11
-280.841
 21
155.98
  0
LINE
  8
0
 10
-280.841
 20
155.98
 11
-280.912
 21
155.743
  0
LINE
  8
0
 10
-280.912
 20
155.743
 11
-281.018
 21
155.518
  0
LINE
  8
0
 10
-281.018
 20
155.518
 11
-281.154
 21
155.311
  0
LINE
  8
0
 10
-281.154
 20
155.311
 11
-281.32
 21
155.126
  0
LINE
  8
0
 10
-281.32
 20
155.126
 11
-281.511
 21
154.967
  0
LINE
  8
0
 10
-281.511
 20
154.967
 11
-281.723
 21
154.838
  0
LINE
  8
0
 10
-281.723
 20
154.838
 11
-281.951
 21
154.741
  0
LINE
  8
0
 10
-281.951
 20
154.741
 11
-282.191
 21
154.678
  0
LINE
  8
0
 10
-282.191
 20
154.678
 11
-282.438
 21
154.651
  0
LINE
  8
0
 10
-282.438
 20
154.651
 11
-282.686
 21
154.66
  0
LINE
  8
0
 10
282.191
 20
154.678
 11
281.951
 21
154.741
  0
LINE
  8
0
 10
281.951
 20
154.741
 11
281.723
 21
154.838
  0
LINE
  8
0
 10
281.723
 20
154.838
 11
281.511
 21
154.967
  0
LINE
  8
0
 10
281.511
 20
154.967
 11
281.32
 21
155.126
  0
LINE
  8
0
 10
281.32
 20
155.126
 11
281.154
 21
155.311
  0
LINE
  8
0
 10
281.154
 20
155.311
 11
281.018
 21
155.518
  0
LINE
  8
0
 10
281.018
 20
155.518
 11
280.912
 21
155.743
  0
LINE
  8
0
 10
280.912
 20
155.743
 11
280.841
 21
155.98
  0
LINE
  8
0
 10
280.841
 20
155.98
 11
280.805
 21
156.226
  0
LINE
  8
0
 10
280.805
 20
156.226
 11
280.805
 21
156.474
  0
LINE
  8
0
 10
280.805
 20
156.474
 11
280.841
 21
156.72
  0
LINE
  8
0
 10
280.841
 20
156.72
 11
280.912
 21
156.957
  0
LINE
  8
0
 10
280.912
 20
156.957
 11
281.018
 21
157.182
  0
LINE
  8
0
 10
281.018
 20
157.182
 11
281.154
 21
157.389
  0
LINE
  8
0
 10
281.154
 20
157.389
 11
281.32
 21
157.574
  0
LINE
  8
0
 10
281.32
 20
157.574
 11
281.511
 21
157.733
  0
LINE
  8
0
 10
281.511
 20
157.733
 11
281.723
 21
157.862
  0
LINE
  8
0
 10
281.723
 20
157.862
 11
281.951
 21
157.959
  0
LINE
  8
0
 10
281.951
 20
157.959
 11
282.191
 21
158.022
  0
LINE
  8
0
 10
282.191
 20
158.022
 11
282.438
 21
158.049
  0
LINE
  8
0
 10
282.438
 20
158.049
 11
282.686
 21
158.04
  0
LINE
  8
0
 10
282.686
 20
158.04
 11
282.93
 21
157.995
  0
LINE
  8
0
 10
282.93
 20
157.995
 11
283.165
 21
157.915
  0
LINE
  8
0
 10
283.165
 20
157.915
 11
283.386
 21
157.801
  0
LINE
  8
0
 10
283.386
 20
157.801
 11
283.587
 21
157.657
  0
LINE
  8
0
 10
283.587
 20
157.657
 11
283.766
 21
157.484
  0
LINE
  8
0
 10
283.766
 20
157.484
 11
283.918
 21
157.288
  0
LINE
  8
0
 10
283.918
 20
157.288
 11
284.039
 21
157.072
  0
LINE
  8
0
 10
284.039
 20
157.072
 11
284.128
 21
156.84
  0
LINE
  8
0
 10
284.128
 20
156.84
 11
284.182
 21
156.598
  0
LINE
  8
0
 10
284.182
 20
156.598
 11
284.2
 21
156.35
  0
LINE
  8
0
 10
284.2
 20
156.35
 11
284.182
 21
156.102
  0
LINE
  8
0
 10
284.182
 20
156.102
 11
284.128
 21
155.86
  0
LINE
  8
0
 10
284.128
 20
155.86
 11
284.039
 21
155.628
  0
LINE
  8
0
 10
284.039
 20
155.628
 11
283.918
 21
155.412
  0
LINE
  8
0
 10
283.918
 20
155.412
 11
283.766
 21
155.216
  0
LINE
  8
0
 10
283.766
 20
155.216
 11
283.587
 21
155.043
  0
LINE
  8
0
 10
283.587
 20
155.043
 11
283.386
 21
154.899
  0
LINE
  8
0
 10
283.386
 20
154.899
 11
283.165
 21
154.785
  0
LINE
  8
0
 10
283.165
 20
154.785
 11
282.93
 21
154.705
  0
LINE
  8
0
 10
282.93
 20
154.705
 11
282.686
 21
154.66
  0
LINE
  8
0
 10
282.686
 20
154.66
 11
282.438
 21
154.651
  0
LINE
  8
0
 10
282.438
 20
154.651
 11
282.191
 21
154.678
  0
LINE
  8
0
 10
-282.686
 20
76.4852
 11
-282.93
 21
76.5303
  0
LINE
  8
0
 10
-282.93
 20
76.5303
 11
-283.165
 21
76.6104
  0
LINE
  8
0
 10
-283.165
 20
76.6104
 11
-283.386
 21
76.7239
  0
LINE
  8
0
 10
-283.386
 20
76.7239
 11
-283.587
 21
76.8683
  0
LINE
  8
0
 10
-283.587
 20
76.8683
 11
-283.766
 21
77.0406
  0
LINE
  8
0
 10
-283.766
 20
77.0406
 11
-283.918
 21
77.237
  0
LINE
  8
0
 10
-283.918
 20
77.237
 11
-284.039
 21
77.4534
  0
LINE
  8
0
 10
-284.039
 20
77.4534
 11
-284.128
 21
77.6852
  0
LINE
  8
0
 10
-284.128
 20
77.6852
 11
-284.182
 21
77.9275
  0
LINE
  8
0
 10
-284.182
 20
77.9275
 11
-284.2
 21
78.175
  0
LINE
  8
0
 10
-284.2
 20
78.175
 11
-284.182
 21
78.4225
  0
LINE
  8
0
 10
-284.182
 20
78.4225
 11
-284.128
 21
78.6648
  0
LINE
  8
0
 10
-284.128
 20
78.6648
 11
-284.039
 21
78.8966
  0
LINE
  8
0
 10
-284.039
 20
78.8966
 11
-283.918
 21
79.113
  0
LINE
  8
0
 10
-283.918
 20
79.113
 11
-283.766
 21
79.3094
  0
LINE
  8
0
 10
-283.766
 20
79.3094
 11
-283.587
 21
79.4817
  0
LINE
  8
0
 10
-283.587
 20
79.4817
 11
-283.386
 21
79.6261
  0
LINE
  8
0
 10
-283.386
 20
79.6261
 11
-283.165
 21
79.7396
  0
LINE
  8
0
 10
-283.165
 20
79.7396
 11
-282.93
 21
79.8197
  0
LINE
  8
0
 10
-282.93
 20
79.8197
 11
-282.686
 21
79.8648
  0
LINE
  8
0
 10
-282.686
 20
79.8648
 11
-282.438
 21
79.8739
  0
LINE
  8
0
 10
-282.438
 20
79.8739
 11
-282.191
 21
79.8467
  0
LINE
  8
0
 10
-282.191
 20
79.8467
 11
-281.951
 21
79.784
  0
LINE
  8
0
 10
-281.951
 20
79.784
 11
-281.723
 21
79.6869
  0
LINE
  8
0
 10
-281.723
 20
79.6869
 11
-281.511
 21
79.5576
  0
LINE
  8
0
 10
-281.511
 20
79.5576
 11
-281.32
 21
79.3988
  0
LINE
  8
0
 10
-281.32
 20
79.3988
 11
-281.154
 21
79.214
  0
LINE
  8
0
 10
-281.154
 20
79.214
 11
-281.018
 21
79.007
  0
LINE
  8
0
 10
-281.018
 20
79.007
 11
-280.912
 21
78.7823
  0
LINE
  8
0
 10
-280.912
 20
78.7823
 11
-280.841
 21
78.5446
  0
LINE
  8
0
 10
-280.841
 20
78.5446
 11
-280.805
 21
78.2991
  0
LINE
  8
0
 10
-280.805
 20
78.2991
 11
-280.805
 21
78.0509
  0
LINE
  8
0
 10
-280.805
 20
78.0509
 11
-280.841
 21
77.8054
  0
LINE
  8
0
 10
-280.841
 20
77.8054
 11
-280.912
 21
77.5677
  0
LINE
  8
0
 10
-280.912
 20
77.5677
 11
-281.018
 21
77.343
  0
LINE
  8
0
 10
-281.018
 20
77.343
 11
-281.154
 21
77.136
  0
LINE
  8
0
 10
-281.154
 20
77.136
 11
-281.32
 21
76.9512
  0
LINE
  8
0
 10
-281.32
 20
76.9512
 11
-281.511
 21
76.7924
  0
LINE
  8
0
 10
-281.511
 20
76.7924
 11
-281.723
 21
76.6631
  0
LINE
  8
0
 10
-281.723
 20
76.6631
 11
-281.951
 21
76.5661
  0
LINE
  8
0
 10
-281.951
 20
76.5661
 11
-282.191
 21
76.5033
  0
LINE
  8
0
 10
-282.191
 20
76.5033
 11
-282.438
 21
76.4761
  0
LINE
  8
0
 10
-282.438
 20
76.4761
 11
-282.686
 21
76.4852
  0
LINE
  8
0
 10
282.191
 20
76.5033
 11
281.951
 21
76.5661
  0
LINE
  8
0
 10
281.951
 20
76.5661
 11
281.723
 21
76.6631
  0
LINE
  8
0
 10
281.723
 20
76.6631
 11
281.511
 21
76.7924
  0
LINE
  8
0
 10
281.511
 20
76.7924
 11
281.32
 21
76.9512
  0
LINE
  8
0
 10
281.32
 20
76.9512
 11
281.154
 21
77.136
  0
LINE
  8
0
 10
281.154
 20
77.136
 11
281.018
 21
77.343
  0
LINE
  8
0
 10
281.018
 20
77.343
 11
280.912
 21
77.5677
  0
LINE
  8
0
 10
280.912
 20
77.5677
 11
280.841
 21
77.8054
  0
LINE
  8
0
 10
280.841
 20
77.8054
 11
280.805
 21
78.0509
  0
LINE
  8
0
 10
280.805
 20
78.0509
 11
280.805
 21
78.2991
  0
LINE
  8
0
 10
280.805
 20
78.2991
 11
280.841
 21
78.5446
  0
LINE
  8
0
 10
280.841
 20
78.5446
 11
280.912
 21
78.7823
  0
LINE
  8
0
 10
280.912
 20
78.7823
 11
281.018
 21
79.007
  0
LINE
  8
0
 10
281.018
 20
79.007
 11
281.154
 21
79.214
  0
LINE
  8
0
 10
281.154
 20
79.214
 11
281.32
 21
79.3988
  0
LINE
  8
0
 10
281.32
 20
79.3988
 11
281.511
 21
79.5576
  0
LINE
  8
0
 10
281.511
 20
79.5576
 11
281.723
 21
79.6869
  0
LINE
  8
0
 10
281.723
 20
79.6869
 11
281.951
 21
79.784
  0
LINE
  8
0
 10
281.951
 20
79.784
 11
282.191
 21
79.8467
  0
LINE
  8
0
 10
282.191
 20
79.8467
 11
282.438
 21
79.8739
  0
LINE
  8
0
 10
282.438
 20
79.8739
 11
282.686
 21
79.8648
  0
LINE
  8
0
 10
282.686
 20
79.8648
 11
282.93
 21
79.8197
  0
LINE
  8
0
 10
282.93
 20
79.8197
 11
283.165
 21
79.7396
  0
LINE
  8
0
 10
283.165
 20
79.7396
 11
283.386
 21
79.6261
  0
LINE
  8
0
 10
283.386
 20
79.6261
 11
283.587
 21
79.4817
  0
LINE
  8
0
 10
283.587
 20
79.4817
 11
283.766
 21
79.3094
  0
LINE
  8
0
 10
283.766
 20
79.3094
 11
283.918
 21
79.113
  0
LINE
  8
0
 10
283.918
 20
79.113
 11
284.039
 21
78.8966
  0
LINE
  8
0
 10
284.039
 20
78.8966
 11
284.128
 21
78.6648
  0
LINE
  8
0
 10
284.128
 20
78.6648
 11
284.182
 21
78.4225
  0
LINE
  8
0
 10
284.182
 20
78.4225
 11
284.2
 21
78.175
  0
LINE
  8
0
 10
284.2
 20
78.175
 11
284.182
 21
77.9275
  0
LINE
  8
0
 10
284.182
 20
77.9275
 11
284.128
 21
77.6852
  0
LINE
  8
0
 10
284.128
 20
77.6852
 11
284.039
 21
77.4534
  0
LINE
  8
0
 10
284.039
 20
77.4534
 11
283.918
 21
77.237
  0
LINE
  8
0
 10
283.918
 20
77.237
 11
283.766
 21
77.0406
  0
LINE
  8
0
 10
283.766
 20
77.0406
 11
283.587
 21
76.8683
  0
LINE
  8
0
 10
283.587
 20
76.8683
 11
283.386
 21
76.7239
  0
LINE
  8
0
 10
283.386
 20
76.7239
 11
283.165
 21
76.6104
  0
LINE
  8
0
 10
283.165
 20
76.6104
 11
282.93
 21
76.5303
  0
LINE
  8
0
 10
282.93
 20
76.5303
 11
282.686
 21
76.4852
  0
LINE
  8
0
 10
282.686
 20
76.4852
 11
282.438
 21
76.4761
  0
LINE
  8
0
 10
282.438
 20
76.4761
 11
282.191
 21
76.5033
  0
LINE
  8
0
 10
-282.686
 20
-1.68979
 11
-282.93
 21
-1.64471
  0
LINE
  8
0
 10
-282.93
 20
-1.64471
 11
-283.165
 21
-1.56458
  0
LINE
  8
0
 10
-283.165
 20
-1.56458
 11
-283.386
 21
-1.4511
  0
LINE
  8
0
 10
-283.386
 20
-1.4511
 11
-283.587
 21
-1.30669
  0
LINE
  8
0
 10
-283.587
 20
-1.30669
 11
-283.766
 21
-1.13443
  0
LINE
  8
0
 10
-283.766
 20
-1.13443
 11
-283.918
 21
-0.938004
  0
LINE
  8
0
 10
-283.918
 20
-0.938004
 11
-284.039
 21
-0.721573
  0
LINE
  8
0
 10
-284.039
 20
-0.721573
 11
-284.128
 21
-0.489761
  0
LINE
  8
0
 10
-284.128
 20
-0.489761
 11
-284.182
 21
-0.247513
  0
LINE
  8
0
 10
-284.182
 20
-0.247513
 11
-284.2
 21
0
  0
LINE
  8
0
 10
-284.2
 20
0
 11
-284.182
 21
0.247513
  0
LINE
  8
0
 10
-284.182
 20
0.247513
 11
-284.128
 21
0.489761
  0
LINE
  8
0
 10
-284.128
 20
0.489761
 11
-284.039
 21
0.721573
  0
LINE
  8
0
 10
-284.039
 20
0.721573
 11
-283.918
 21
0.938004
  0
LINE
  8
0
 10
-283.918
 20
0.938004
 11
-283.766
 21
1.13443
  0
LINE
  8
0
 10
-283.766
 20
1.13443
 11
-283.587
 21
1.30669
  0
LINE
  8
0
 10
-283.587
 20
1.30669
 11
-283.386
 21
1.4511
  0
LINE
  8
0
 10
-283.386
 20
1.4511
 11
-283.165
 21
1.56458
  0
LINE
  8
0
 10
-283.165
 20
1.56458
 11
-282.93
 21
1.64471
  0
LINE
  8
0
 10
-282.93
 20
1.64471
 11
-282.686
 21
1.68979
  0
LINE
  8
0
 10
-282.686
 20
1.68979
 11
-282.438
 21
1.69885
  0
LINE
  8
0
 10
-282.438
 20
1.69885
 11
-282.191
 21
1.67171
  0
LINE
  8
0
 10
-282.191
 20
1.67171
 11
-281.951
 21
1.60893
  0
LINE
  8
0
 10
-281.951
 20
1.60893
 11
-281.723
 21
1.51187
  0
LINE
  8
0
 10
-281.723
 20
1.51187
 11
-281.511
 21
1.38258
  0
LINE
  8
0
 10
-281.511
 20
1.38258
 11
-281.32
 21
1.22383
  0
LINE
  8
0
 10
-281.32
 20
1.22383
 11
-281.154
 21
1.03899
  0
LINE
  8
0
 10
-281.154
 20
1.03899
 11
-281.018
 21
0.832001
  0
LINE
  8
0
 10
-281.018
 20
0.832001
 11
-280.912
 21
0.607285
  0
LINE
  8
0
 10
-280.912
 20
0.607285
 11
-280.841
 21
0.369629
  0
LINE
  8
0
 10
-280.841
 20
0.369629
 11
-280.805
 21
0.124084
  0
LINE
  8
0
 10
-280.805
 20
0.124084
 11
-280.805
 21
-0.124084
  0
LINE
  8
0
 10
-280.805
 20
-0.124084
 11
-280.841
 21
-0.369629
  0
LINE
  8
0
 10
-280.841
 20
-0.369629
 11
-280.912
 21
-0.607285
  0
LINE
  8
0
 10
-280.912
 20
-0.607285
 11
-281.018
 21
-0.832001
  0
LINE
  8
0
 10
-281.018
 20
-0.832001
 11
-281.154
 21
-1.03899
  0
LINE
  8
0
 10
-281.154
 20
-1.03899
 11
-281.32
 21
-1.22383
  0
LINE
  8
0
 10
-281.32
 20
-1.22383
 11
-281.511
 21
-1.38258
  0
LINE
  8
0
 10
-281.511
 20
-1.38258
 11
-281.723
 21
-1.51187
  0
LINE
  8
0
 10
-281.723
 20
-1.51187
 11
-281.951
 21
-1.60893
  0
LINE
  8
0
 10
-281.951
 20
-1.60893
 11
-282.191
 21
-1.67171
  0
LINE
  8
0
 10
-282.191
 20
-1.67171
 11
-282.438
 21
-1.69885
  0
LINE
  8
0
 10
-282.438
 20
-1.69885
 11
-282.686
 21
-1.68979
  0
LINE
  8
0
 10
282.191
 20
-1.67171
 11
281.951
 21
-1.60893
  0
LINE
  8
0
 10
281.951
 20
-1.60893
 11
281.723
 21
-1.51187
  0
LINE
  8
0
 10
281.723
 20
-1.51187
 11
281.511
 21
-1.38258
  0
LINE
  8
0
 10
281.511
 20
-1.38258
 11
281.32
 21
-1.22383
  0
LINE
  8
0
 10
281.32
 20
-1.22383
 11
281.154
 21
-1.03899
  0
LINE
  8
0
 10
281.154
 20
-1.03899
 11
281.018
 21
-0.832001
  0
LINE
  8
0
 10
281.018
 20
-0.832001
 11
280.912
 21
-0.607285
  0
LINE
  8
0
 10
280.912
 20
-0.607285
 11
280.841
 21
-0.369629
  0
LINE
  8
0
 10
280.841
 20
-0.369629
 11
280.805
 21
-0.124084
  0
LINE
  8
0
 10
280.805
 20
-0.124084
 11
280.805
 21
0.124084
  0
LINE
  8
0
 10
280.805
 20
0.124084
 11
280.841
 21
0.369629
  0
LINE
  8
0
 10
280.841
 20
0.369629
 11
280.912
 21
0.607285
  0
LINE
  8
0
 10
280.912
 20
0.607285
 11
281.018
 21
0.832001
  0
LINE
  8
0
 10
281.018
 20
0.832001
 11
281.154
 21
1.03899
  0
LINE
  8
0
 10
281.154
 20
1.03899
 11
281.32
 21
1.22383
  0
LINE
  8
0
 10
281.32
 20
1.22383
 11
281.511
 21
1.38258
  0
LINE
  8
0
 10
281.511
 20
1.38258
 11
281.723
 21
1.51187
  0
LINE
  8
0
 10
281.723
 20
1.51187
 11
281.951
 21
1.60893
  0
LINE
  8
0
 10
281.951
 20
1.60893
 11
282.191
 21
1.67171
  0
LINE
  8
0
 10
282.191
 20
1.67171
 11
282.438
 21
1.69885
  0
LINE
  8
0
 10
282.438
 20
1.69885
 11
282.686
 21
1.68979
  0
LINE
  8
0
 10
282.686
 20
1.68979
 11
282.93
 21
1.64471
  0
LINE
  8
0
 10
282.93
 20
1.64471
 11
283.165
 21
1.56458
  0
LINE
  8
0
 10
283.165
 20
1.56458
 11
283.386
 21
1.4511
  0
LINE
  8
0
 10
283.386
 20
1.4511
 11
283.587
 21
1.30669
  0
LINE
  8
0
 10
283.587
 20
1.30669
 11
283.766
 21
1.13443
  0
LINE
  8
0
 10
283.766
 20
1.13443
 11
283.918
 21
0.938004
  0
LINE
  8
0
 10
283.918
 20
0.938004
 11
284.039
 21
0.721573
  0
LINE
  8
0
 10
284.039
 20
0.721573
 11
284.128
 21
0.489761
  0
LINE
  8
0
 10
284.128
 20
0.489761
 11
284.182
 21
0.247513
  0
LINE
  8
0
 10
284.182
 20
0.247513
 11
284.2
 21
0
  0
LINE
  8
0
 10
284.2
 20
0
 11
284.182
 21
-0.247513
  0
LINE
  8
0
 10
284.182
 20
-0.247513
 11
284.128
 21
-0.489761
  0
LINE
  8
0
 10
284.128
 20
-0.489761
 11
284.039
 21
-0.721573
  0
LINE
  8
0
 10
284.039
 20
-0.721573
 11
283.918
 21
-0.938004
  0
LINE
  8
0
 10
283.918
 20
-0.938004
 11
283.766
 21
-1.13443
  0
LINE
  8
0
 10
283.766
 20
-1.13443
 11
283.587
 21
-1.30669
  0
LINE
  8
0
 10
283.587
 20
-1.30669
 11
283.386
 21
-1.4511
  0
LINE
  8
0
 10
283.386
 20
-1.4511
 11
283.165
 21
-1.56458
  0
LINE
  8
0
 10
283.165
 20
-1.56458
 11
282.93
 21
-1.64471
  0
LINE
  8
0
 10
282.93
 20
-1.64471
 11
282.686
 21
-1.68979
  0
LINE
  8
0
 10
282.686
 20
-1.68979
 11
282.438
 21
-1.69885
  0
LINE
  8
0
 10
282.438
 20
-1.69885
 11
282.191
 21
-1.67171
  0
LINE
  8
0
 10
-282.686
 20
-79.8648
 11
-282.93
 21
-79.8197
  0
LINE
  8
0
 10
-282.93
 20
-79.8197
 11
-283.165
 21
-79.7396
  0
LINE
  8
0
 10
-283.165
 20
-79.7396
 11
-283.386
 21
-79.6261
  0
LINE
  8
0
 10
-283.386
 20
-79.6261
 11
-283.587
 21
-79.4817
  0
LINE
  8
0
 10
-283.587
 20
-79.4817
 11
-283.766
 21
-79.3094
  0
LINE
  8
0
 10
-283.766
 20
-79.3094
 11
-283.918
 21
-79.113
  0
LINE
  8
0
 10
-283.918
 20
-79.113
 11
-284.039
 21
-78.8966
  0
LINE
  8
0
 10
-284.039
 20
-78.8966
 11
-284.128
 21
-78.6648
  0
LINE
  8
0
 10
-284.128
 20
-78.6648
 11
-284.182
 21
-78.4225
  0
LINE
  8
0
 10
-284.182
 20
-78.4225
 11
-284.2
 21
-78.175
  0
LINE
  8
0
 10
-284.2
 20
-78.175
 11
-284.182
 21
-77.9275
  0
LINE
  8
0
 10
-284.182
 20
-77.9275
 11
-284.128
 21
-77.6852
  0
LINE
  8
0
 10
-284.128
 20
-77.6852
 11
-284.039
 21
-77.4534
  0
LINE
  8
0
 10
-284.039
 20
-77.4534
 11
-283.918
 21
-77.237
  0
LINE
  8
0
 10
-283.918
 20
-77.237
 11
-283.766
 21
-77.0406
  0
LINE
  8
0
 10
-283.766
 20
-77.0406
 11
-283.587
 21
-76.8683
  0
LINE
  8
0
 10
-283.587
 20
-76.8683
 11
-283.386
 21
-76.7239
  0
LINE
  8
0
 10
-283.386
 20
-76.7239
 11
-283.165
 21
-76.6104
  0
LINE
  8
0
 10
-283.165
 20
-76.6104
 11
-282.93
 21
-76.5303
  0
LINE
  8
0
 10
-282.93
 20
-76.5303
 11
-282.686
 21
-76.4852
  0
LINE
  8
0
 10
-282.686
 20
-76.4852
 11
-282.438
 21
-76.4761
  0
LINE
  8
0
 10
-282.438
 20
-76.4761
 11
-282.191
 21
-76.5033
  0
LINE
  8
0
 10
-282.191
 20
-76.5033
 11
-281.951
 21
-76.5661
  0
LINE
  8
0
 10
-281.951
 20
-76.5661
 11
-281.723
 21
-76.6631
  0
LINE
  8
0
 10
-281.723
 20
-76.6631
 11
-281.511
 21
-76.7924
  0
LINE
  8
0
 10
-281.511
 20
-76.7924
 11
-281.32
 21
-76.9512
  0
LINE
  8
0
 10
-281.32
 20
-76.9512
 11
-281.154
 21
-77.136
  0
LINE
  8
0
 10
-281.154
 20
-77.136
 11
-281.018
 21
-77.343
  0
LINE
  8
0
 10
-281.018
 20
-77.343
 11
-280.912
 21
-77.5677
  0
LINE
  8
0
 10
-280.912
 20
-77.5677
 11
-280.841
 21
-77.8054
  0
LINE
  8
0
 10
-280.841
 20
-77.8054
 11
-280.805
 21
-78.0509
  0
LINE
  8
0
 10
-280.805
 20
-78.0509
 11
-280.805
 21
-78.2991
  0
LINE
  8
0
 10
-280.805
 20
-78.2991
 11
-280.841
 21
-78.5446
  0
LINE
  8
0
 10
-280.841
 20
-78.5446
 11
-280.912
 21
-78.7823
  0
LINE
  8
0
 10
-280.912
 20
-78.7823
 11
-281.018
 21
-79.007
  0
LINE
  8
0
 10
-281.018
 20
-79.007
 11
-281.154
 21
-79.214
  0
LINE
  8
0
 10
-281.154
 20
-79.214
 11
-281.32
 21
-79.3988
  0
LINE
  8
0
 10
-281.32
 20
-79.3988
 11
-281.511
 21
-79.5576
  0
LINE
  8
0
 10
-281.511
 20
-79.5576
 11
-281.723
 21
-79.6869
  0
LINE
  8
0
 10
-281.723
 20
-79.6869
 11
-281.951
 21
-79.784
  0
LINE
  8
0
 10
-281.951
 20
-79.784
 11
-282.191
 21
-79.8467
  0
LINE
  8
0
 10
-282.191
 20
-79.8467
 11
-282.438
 21
-79.8739
  0
LINE
  8
0
 10
-282.438
 20
-79.8739
 11
-282.686
 21
-79.8648
  0
LINE
  8
0
 10
282.191
 20
-79.8467
 11
281.951
 21
-79.784
  0
LINE
  8
0
 10
281.951
 20
-79.784
 11
281.723
 21
-79.6869
  0
LINE
  8
0
 10
281.723
 20
-79.6869
 11
281.511
 21
-79.5576
  0
LINE
  8
0
 10
281.511
 20
-79.5576
 11
281.32
 21
-79.3988
  0
LINE
  8
0
 10
281.32
 20
-79.3988
 11
281.154
 21
-79.214
  0
LINE
  8
0
 10
281.154
 20
-79.214
 11
281.018
 21
-79.007
  0
LINE
  8
0
 10
281.018
 20
-79.007
 11
280.912
 21
-78.7823
  0
LINE
  8
0
 10
280.912
 20
-78.7823
 11
280.841
 21
-78.5446
  0
LINE
  8
0
 10
280.841
 20
-78.5446
 11
280.805
 21
-78.2991
  0
LINE
  8
0
 10
280.805
 20
-78.2991
 11
280.805
 21
-78.0509
  0
LINE
  8
0
 10
280.805
 20
-78.0509
 11
280.841
 21
-77.8054
  0
LINE
  8
0
 10
280.841
 20
-77.8054
 11
280.912
 21
-77.5677
  0
LINE
  8
0
 10
280.912
 20
-77.5677
 11
281.018
 21
-77.343
  0
LINE
  8
0
 10
281.018
 20
-77.343
 11
281.154
 21
-77.136
  0
LINE
  8
0
 10
281.154
 20
-77.136
 11
281.32
 21
-76.9512
  0
LINE
  8
0
 10
281.32
 20
-76.9512
 11
281.511
 21
-76.7924
  0
LINE
  8
0
 10
281.511
 20
-76.7924
 11
281.723
 21
-76.6631
  0
LINE
  8
0
 10
281.723
 20
-76.6631
 11
281.951
 21
-76.5661
  0
LINE
  8
0
 10
281.951
 20
-76.5661
 11
282.191
 21
-76.5033
  0
LINE
  8
0
 10
282.191
 20
-76.5033
 11
282.438
 21
-76.4761
  0
LINE
  8
0
 10
282.438
 20
-76.4761
 11
282.686
 21
-76.4852
  0
LINE
  8
0
 10
282.686
 20
-76.4852
 11
282.93
 21
-76.5303
  0
LINE
  8
0
 10
282.93
 20
-76.5303
 11
283.165
 21
-76.6104
  0
LINE
  8
0
 10
283.165
 20
-76.6104
 11
283.386
 21
-76.7239
  0
LINE
  8
0
 10
283.386
 20
-76.7239
 11
283.587
 21
-76.8683
  0
LINE
  8
0
 10
283.587
 20
-76.8683
 11
283.766
 21
-77.0406
  0
LINE
  8
0
 10
283.766
 20
-77.0406
 11
283.918
 21
-77.237
  0
LINE
  8
0
 10
283.918
 20
-77.237
 11
284.039
 21
-77.4534
  0
LINE
  8
0
 10
284.039
 20
-77.4534
 11
284.128
 21
-77.6852
  0
LINE
  8
0
 10
284.128
 20
-77.6852
 11
284.182
 21
-77.9275
  0
LINE
  8
0
 10
284.182
 20
-77.9275
 11
284.2
 21
-78.175
  0
LINE
  8
0
 10
284.2
 20
-78.175
 11
284.182
 21
-78.4225
  0
LINE
  8
0
 10
284.182
 20
-78.4225
 11
284.128
 21
-78.6648
  0
LINE
  8
0
 10
284.128
 20
-78.6648
 11
284.039
 21
-78.8966
  0
LINE
  8
0
 10
284.039
 20
-78.8966
 11
283.918
 21
-79.113
  0
LINE
  8
0
 10
283.918
 20
-79.113
 11
283.766
 21
-79.3094
  0
LINE
  8
0
 10
283.766
 20
-79.3094
 11
283.587
 21
-79.4817
  0
LINE
  8
0
 10
283.587
 20
-79.4817
 11
283.386
 21
-79.6261
  0
LINE
  8
0
 10
283.386
 20
-79.6261
 11
283.165
 21
-79.7396
  0
LINE
  8
0
 10
283.165
 20
-79.7396
 11
282.93
 21
-79.8197
  0
LINE
  8
0
 10
282.93
 20
-79.8197
 11
282.686
 21
-79.8648
  0
LINE
  8
0
 10
282.686
 20
-79.8648
 11
282.438
 21
-79.8739
  0
LINE
  8
0
 10
282.438
 20
-79.8739
 11
282.191
 21
-79.8467
  0
LINE
  8
0
 10
282.191
 20
-158.022
 11
281.951
 21
-157.959
  0
LINE
  8
0
 10
281.951
 20
-157.959
 11
281.723
 21
-157.862
  0
LINE
  8
0
 10
281.723
 20
-157.862
 11
281.511
 21
-157.733
  0
LINE
  8
0
 10
281.511
 20
-157.733
 11
281.32
 21
-157.574
  0
LINE
  8
0
 10
281.32
 20
-157.574
 11
281.154
 21
-157.389
  0
LINE
  8
0
 10
281.154
 20
-157.389
 11
281.018
 21
-157.182
  0
LINE
  8
0
 10
281.018
 20
-157.182
 11
280.912
 21
-156.957
  0
LINE
  8
0
 10
280.912
 20
-156.957
 11
280.841
 21
-156.72
  0
LINE
  8
0
 10
280.841
 20
-156.72
 11
280.805
 21
-156.474
  0
LINE
  8
0
 10
280.805
 20
-156.474
 11
280.805
 21
-156.226
  0
LINE
  8
0
 10
280.805
 20
-156.226
 11
280.841
 21
-155.98
  0
LINE
  8
0
 10
280.841
 20
-155.98
 11
280.912
 21
-155.743
  0
LINE
  8
0
 10
280.912
 20
-155.743
 11
281.018
 21
-155.518
  0
LINE
  8
0
 10
281.018
 20
-155.518
 11
281.154
 21
-155.311
  0
LINE
  8
0
 10
281.154
 20
-155.311
 11
281.32
 21
-155.126
  0
LINE
  8
0
 10
281.32
 20
-155.126
 11
281.511
 21
-154.967
  0
LINE
  8
0
 10
281.511
 20
-154.967
 11
281.723
 21
-154.838
  0
LINE
  8
0
 10
281.723
 20
-154.838
 11
281.951
 21
-154.741
  0
LINE
  8
0
 10
281.951
 20
-154.741
 11
282.191
 21
-154.678
  0
LINE
  8
0
 10
282.191
 20
-154.678
 11
282.438
 21
-154.651
  0
LINE
  8
0
 10
282.438
 20
-154.651
 11
282.686
 21
-154.66
  0
LINE
  8
0
 10
282.686
 20
-154.66
 11
282.93
 21
-154.705
  0
LINE
  8
0
 10
282.93
 20
-154.705
 11
283.165
 21
-154.785
  0
LINE
  8
0
 10
283.165
 20
-154.785
 11
283.386
 21
-154.899
  0
LINE
  8
0
 10
283.386
 20
-154.899
 11
283.587
 21
-155.043
  0
LINE
  8
0
 10
283.587
 20
-155.043
 11
283.766
 21
-155.216
  0
LINE
  8
0
 10
283.766
 20
-155.216
 11
283.918
 21
-155.412
  0
LINE
  8
0
 10
283.918
 20
-155.412
 11
284.039
 21
-155.628
  0
LINE
  8
0
 10
284.039
 20
-155.628
 11
284.128
 21
-155.86
  0
LINE
  8
0
 10
284.128
 20
-155.86
 11
284.182
 21
-156.102
  0
LINE
  8
0
 10
284.182
 20
-156.102
 11
284.2
 21
-156.35
  0
LINE
  8
0
 10
284.2
 20
-156.35
 11
284.182
 21
-156.598
  0
LINE
  8
0
 10
284.182
 20
-156.598
 11
284.128
 21
-156.84
  0
LINE
  8
0
 10
284.128
 20
-156.84
 11
284.039
 21
-157.072
  0
LINE
  8
0
 10
284.039
 20
-157.072
 11
283.918
 21
-157.288
  0
LINE
  8
0
 10
283.918
 20
-157.288
 11
283.766
 21
-157.484
  0
LINE
  8
0
 10
283.766
 20
-157.484
 11
283.587
 21
-157.657
  0
LINE
  8
0
 10
283.587
 20
-157.657
 11
283.386
 21
-157.801
  0
LINE
  8
0
 10
283.386
 20
-157.801
 11
283.165
 21
-157.915
  0
LINE
  8
0
 10
283.165
 20
-157.915
 11
282.93
 21
-157.995
  0
LINE
  8
0
 10
282.93
 20
-157.995
 11
282.686
 21
-158.04
  0
LINE
  8
0
 10
282.686
 20
-158.04
 11
282.438
 21
-158.049
  0
LINE
  8
0
 10
282.438
 20
-158.049
 11
282.191
 21
-158.022
  0
LINE
  8
0
 10
-282.686
 20
-158.04
 11
-282.93
 21
-157.995
  0
LINE
  8
0
 10
-282.93
 20
-157.995
 11
-283.165
 21
-157.915
  0
LINE
  8
0
 10
-283.165
 20
-157.915
 11
-283.386
 21
-157.801
  0
LINE
  8
0
 10
-283.386
 20
-157.801
 11
-283.587
 21
-157.657
  0
LINE
  8
0
 10
-283.587
 20
-157.657
 11
-283.766
 21
-157.484
  0
LINE
  8
0
 10
-283.766
 20
-157.484
 11
-283.918
 21
-157.288
  0
LINE
  8
0
 10
-283.918
 20
-157.288
 11
-284.039
 21
-157.072
  0
LINE
  8
0
 10
-284.039
 20
-157.072
 11
-284.128
 21
-156.84
  0
LINE
  8
0
 10
-284.128
 20
-156.84
 11
-284.182
 21
-156.598
  0
LINE
  8
0
 10
-284.182
 20
-156.598
 11
-284.2
 21
-156.35
  0
LINE
  8
0
 10
-284.2
 20
-156.35
 11
-284.182
 21
-156.102
  0
LINE
  8
0
 10
-284.182
 20
-156.102
 11
-284.128
 21
-155.86
  0
LINE
  8
0
 10
-284.128
 20
-155.86
 11
-284.039
 21
-155.628
  0
LINE
  8
0
 10
-284.039
 20
-155.628
 11
-283.918
 21
-155.412
  0
LINE
  8
0
 10
-283.918
 20
-155.412
 11
-283.766
 21
-155.216
  0
LINE
  8
0
 10
-283.766
 20
-155.216
 11
-283.587
 21
-155.043
  0
LINE
  8
0
 10
-283.587
 20
-155.043
 11
-283.386
 21
-154.899
  0
LINE
  8
0
 10
-283.386
 20
-154.899
 11
-283.165
 21
-154.785
  0
LINE
  8
0
 10
-283.165
 20
-154.785
 11
-282.93
 21
-154.705
  0
LINE
  8
0
 10
-282.93
 20
-154.705
 11
-282.686
 21
-154.66
  0
LINE
  8
0
 10
-282.686
 20
-154.66
 11
-282.438
 21
-154.651
  0
LINE
  8
0
 10
-282.438
 20
-154.651
 11
-282.191
 21
-154.678
  0
LINE
  8
0
 10
-282.191
 20
-154.678
 11
-281.951
 21
-154.741
  0
LINE
  8
0
 10
-281.951
 20
-154.741
 11
-281.723
 21
-154.838
  0
LINE
  8
0
 10
-281.723
 20
-154.838
 11
-281.511
 21
-154.967
  0
LINE
  8
0
 10
-281.511
 20
-154.967
 11
-281.32
 21
-155.126
  0
LINE
  8
0
 10
-281.32
 20
-155.126
 11
-281.154
 21
-155.311
  0
LINE
  8
0
 10
-281.154
 20
-155.311
 11
-281.018
 21
-155.518
  0
LINE
  8
0
 10
-281.018
 20
-155.518
 11
-280.912
 21
-155.743
  0
LINE
  8
0
 10
-280.912
 20
-155.743
 11
-280.841
 21
-155.98
  0
LINE
  8
0
 10
-280.841
 20
-155.98
 11
-280.805
 21
-156.226
  0
LINE
  8
0
 10
-280.805
 20
-156.226
 11
-280.805
 21
-156.474
  0
LINE
  8
0
 10
-280.805
 20
-156.474
 11
-280.841
 21
-156.72
  0
LINE
  8
0
 10
-280.841
 20
-156.72
 11
-280.912
 21
-156.957
  0
LINE
  8
0
 10
-280.912
 20
-156.957
 11
-281.018
 21
-157.182
  0
LINE
  8
0
 10
-281.018
 20
-157.182
 11
-281.154
 21
-157.389
  0
LINE
  8
0
 10
-281.154
 20
-157.389
 11
-281.32
 21
-157.574
  0
LINE
  8
0
 10
-281.32
 20
-157.574
 11
-281.511
 21
-157.733
  0
LINE
  8
0
 10
-281.511
 20
-157.733
 11
-281.723
 21
-157.862
  0
LINE
  8
0
 10
-281.723
 20
-157.862
 11
-281.951
 21
-157.959
  0
LINE
  8
0
 10
-281.951
 20
-157.959
 11
-282.191
 21
-158.022
  0
LINE
  8
0
 10
-282.191
 20
-158.022
 11
-282.438
 21
-158.049
  0
LINE
  8
0
 10
-282.438
 20
-158.049
 11
-282.686
 21
-158.04
  0
LINE
  8
0
 10
-282.892
 20
-202.579
 11
-283.28
 21
-202.518
  0
LINE
  8
0
 10
-283.28
 20
-202.518
 11
-283.659
 21
-202.416
  0
LINE
  8
0
 10
-283.659
 20
-202.416
 11
-284.025
 21
-202.276
  0
LINE
  8
0
 10
-284.025
 20
-202.276
 11
-284.375
 21
-202.098
  0
LINE
  8
0
 10
-284.375
 20
-202.098
 11
-284.704
 21
-201.884
  0
LINE
  8
0
 10
-284.704
 20
-201.884
 11
-285.009
 21
-201.637
  0
LINE
  8
0
 10
-285.009
 20
-201.637
 11
-285.287
 21
-201.359
  0
LINE
  8
0
 10
-285.287
 20
-201.359
 11
-285.534
 21
-201.054
  0
LINE
  8
0
 10
-285.534
 20
-201.054
 11
-285.748
 21
-200.725
  0
LINE
  8
0
 10
-285.748
 20
-200.725
 11
-285.926
 21
-200.375
  0
LINE
  8
0
 10
-285.926
 20
-200.375
 11
-286.066
 21
-200.009
  0
LINE
  8
0
 10
-286.066
 20
-200.009
 11
-286.168
 21
-199.63
  0
LINE
  8
0
 10
-286.168
 20
-199.63
 11
-286.229
 21
-199.242
  0
LINE
  8
0
 10
-286.229
 20
-199.242
 11
-286.25
 21
-198.85
  0
LINE
  8
0
 10
-286.25
 20
-198.85
 11
-286.229
 21
-198.458
  0
LINE
  8
0
 10
-286.229
 20
-198.458
 11
-286.168
 21
-198.07
  0
LINE
  8
0
 10
-286.168
 20
-198.07
 11
-286.066
 21
-197.691
  0
LINE
  8
0
 10
-286.066
 20
-197.691
 11
-285.926
 21
-197.325
  0
LINE
  8
0
 10
-285.926
 20
-197.325
 11
-285.748
 21
-196.975
  0
LINE
  8
0
 10
-285.748
 20
-196.975
 11
-285.534
 21
-196.646
  0
LINE
  8
0
 10
-285.534
 20
-196.646
 11
-285.287
 21
-196.341
  0
LINE
  8
0
 10
-285.287
 20
-196.341
 11
-285.009
 21
-196.063
  0
LINE
  8
0
 10
-285.009
 20
-196.063
 11
-284.704
 21
-195.816
  0
LINE
  8
0
 10
-284.704
 20
-195.816
 11
-284.375
 21
-195.602
  0
LINE
  8
0
 10
-284.375
 20
-195.602
 11
-284.025
 21
-195.424
  0
LINE
  8
0
 10
-284.025
 20
-195.424
 11
-283.659
 21
-195.284
  0
LINE
  8
0
 10
-283.659
 20
-195.284
 11
-283.28
 21
-195.182
  0
LINE
  8
0
 10
-283.28
 20
-195.182
 11
-282.892
 21
-195.121
  0
LINE
  8
0
 10
-282.892
 20
-195.121
 11
-282.5
 21
-195.1
  0
LINE
  8
0
 10
-282.5
 20
-195.1
 11
-282.108
 21
-195.121
  0
LINE
  8
0
 10
-282.108
 20
-195.121
 11
-281.72
 21
-195.182
  0
LINE
  8
0
 10
-281.72
 20
-195.182
 11
-281.341
 21
-195.284
  0
LINE
  8
0
 10
-281.341
 20
-195.284
 11
-280.975
 21
-195.424
  0
LINE
  8
0
 10
-280.975
 20
-195.424
 11
-280.625
 21
-195.602
  0
LINE
  8
0
 10
-280.625
 20
-195.602
 11
-280.296
 21
-195.816
  0
LINE
  8
0
 10
-280.296
 20
-195.816
 11
-279.991
 21
-196.063
  0
LINE
  8
0
 10
-279.991
 20
-196.063
 11
-279.713
 21
-196.341
  0
LINE
  8
0
 10
-279.713
 20
-196.341
 11
-279.466
 21
-196.646
  0
LINE
  8
0
 10
-279.466
 20
-196.646
 11
-279.252
 21
-196.975
  0
LINE
  8
0
 10
-279.252
 20
-196.975
 11
-279.074
 21
-197.325
  0
LINE
  8
0
 10
-279.074
 20
-197.325
 11
-278.934
 21
-197.691
  0
LINE
  8
0
 10
-278.934
 20
-197.691
 11
-278.832
 21
-198.07
  0
LINE
  8
0
 10
-278.832
 20
-198.07
 11
-278.771
 21
-198.458
  0
LINE
  8
0
 10
-278.771
 20
-198.458
 11
-278.75
 21
-198.85
  0
LINE
  8
0
 10
-278.75
 20
-198.85
 11
-278.771
 21
-199.242
  0
LINE
  8
0
 10
-278.771
 20
-199.242
 11
-278.832
 21
-199.63
  0
LINE
  8
0
 10
-278.832
 20
-199.63
 11
-278.934
 21
-200.009
  0
LINE
  8
0
 10
-278.934
 20
-200.009
 11
-279.074
 21
-200.375
  0
LINE
  8
0
 10
-279.074
 20
-200.375
 11
-279.252
 21
-200.725
  0
LINE
  8
0
 10
-279.252
 20
-200.725
 11
-279.466
 21
-201.054
  0
LINE
  8
0
 10
-279.466
 20
-201.054
 11
-279.713
 21
-201.359
  0
LINE
  8
0
 10
-279.713
 20
-201.359
 11
-279.991
 21
-201.637
  0
LINE
  8
0
 10
-279.991
 20
-201.637
 11
-280.296
 21
-201.884
  0
LINE
  8
0
 10
-280.296
 20
-201.884
 11
-280.625
 21
-202.098
  0
LINE
  8
0
 10
-280.625
 20
-202.098
 11
-280.975
 21
-202.276
  0
LINE
  8
0
 10
-280.975
 20
-202.276
 11
-281.341
 21
-202.416
  0
LINE
  8
0
 10
-281.341
 20
-202.416
 11
-281.72
 21
-202.518
  0
LINE
  8
0
 10
-281.72
 20
-202.518
 11
-282.108
 21
-202.579
  0
LINE
  8
0
 10
-282.108
 20
-202.579
 11
-282.5
 21
-202.6
  0
LINE
  8
0
 10
-282.5
 20
-202.6
 11
-282.892
 21
-202.579
  0
LINE
  8
0
 10
282.108
 20
-202.579
 11
281.72
 21
-202.518
  0
LINE
  8
0
 10
281.72
 20
-202.518
 11
281.341
 21
-202.416
  0
LINE
  8
0
 10
281.341
 20
-202.416
 11
280.975
 21
-202.276
  0
LINE
  8
0
 10
280.975
 20
-202.276
 11
280.625
 21
-202.098
  0
LINE
  8
0
 10
280.625
 20
-202.098
 11
280.296
 21
-201.884
  0
LINE
  8
0
 10
280.296
 20
-201.884
 11
279.991
 21
-201.637
  0
LINE
  8
0
 10
279.991
 20
-201.637
 11
279.713
 21
-201.359
  0
LINE
  8
0
 10
279.713
 20
-201.359
 11
279.466
 21
-201.054
  0
LINE
  8
0
 10
279.466
 20
-201.054
 11
279.252
 21
-200.725
  0
LINE
  8
0
 10
279.252
 20
-200.725
 11
279.074
 21
-200.375
  0
LINE
  8
0
 10
279.074
 20
-200.375
 11
278.934
 21
-200.009
  0
LINE
  8
0
 10
278.934
 20
-200.009
 11
278.832
 21
-199.63
  0
LINE
  8
0
 10
278.832
 20
-199.63
 11
278.771
 21
-199.242
  0
LINE
  8
0
 10
278.771
 20
-199.242
 11
278.75
 21
-198.85
  0
LINE
  8
0
 10
278.75
 20
-198.85
 11
278.771
 21
-198.458
  0
LINE
  8
0
 10
278.771
 20
-198.458
 11
278.832
 21
-198.07
  0
LINE
  8
0
 10
278.832
 20
-198.07
 11
278.934
 21
-197.691
  0
LINE
  8
0
 10
278.934
 20
-197.691
 11
279.074
 21
-197.325
  0
LINE
  8
0
 10
279.074
 20
-197.325
 11
279.252
 21
-196.975
  0
LINE
  8
0
 10
279.252
 20
-196.975
 11
279.466
 21
-196.646
  0
LINE
  8
0
 10
279.466
 20
-196.646
 11
279.713
 21
-196.341
  0
LINE
  8
0
 10
279.713
 20
-196.341
 11
279.991
 21
-196.063
  0
LINE
  8
0
 10
279.991
 20
-196.063
 11
280.296
 21
-195.816
  0
LINE
  8
0
 10
280.296
 20
-195.816
 11
280.625
 21
-195.602
  0
LINE
  8
0
 10
280.625
 20
-195.602
 11
280.975
 21
-195.424
  0
LINE
  8
0
 10
280.975
 20
-195.424
 11
281.341
 21
-195.284
  0
LINE
  8
0
 10
281.341
 20
-195.284
 11
281.72
 21
-195.182
  0
LINE
  8
0
 10
281.72
 20
-195.182
 11
282.108
 21
-195.121
  0
LINE
  8
0
 10
282.108
 20
-195.121
 11
282.5
 21
-195.1
  0
LINE
  8
0
 10
282.5
 20
-195.1
 11
282.892
 21
-195.121
  0
LINE
  8
0
 10
282.892
 20
-195.121
 11
283.28
 21
-195.182
  0
LINE
  8
0
 10
283.28
 20
-195.182
 11
283.659
 21
-195.284
  0
LINE
  8
0
 10
283.659
 20
-195.284
 11
284.025
 21
-195.424
  0
LINE
  8
0
 10
284.025
 20
-195.424
 11
284.375
 21
-195.602
  0
LINE
  8
0
 10
284.375
 20
-195.602
 11
284.704
 21
-195.816
  0
LINE
  8
0
 10
284.704
 20
-195.816
 11
285.009
 21
-196.063
  0
LINE
  8
0
 10
285.009
 20
-196.063
 11
285.287
 21
-196.341
  0
LINE
  8
0
 10
285.287
 20
-196.341
 11
285.534
 21
-196.646
  0
LINE
  8
0
 10
285.534
 20
-196.646
 11
285.748
 21
-196.975
  0
LINE
  8
0
 10
285.748
 20
-196.975
 11
285.926
 21
-197.325
  0
LINE
  8
0
 10
285.926
 20
-197.325
 11
286.066
 21
-197.691
  0
LINE
  8
0
 10
286.066
 20
-197.691
 11
286.168
 21
-198.07
  0
LINE
  8
0
 10
286.168
 20
-198.07
 11
286.229
 21
-198.458
  0
LINE
  8
0
 10
286.229
 20
-198.458
 11
286.25
 21
-198.85
  0
LINE
  8
0
 10
286.25
 20
-198.85
 11
286.229
 21
-199.242
  0
LINE
  8
0
 10
286.229
 20
-199.242
 11
286.168
 21
-199.63
  0
LINE
  8
0
 10
286.168
 20
-199.63
 11
286.066
 21
-200.009
  0
LINE
  8
0
 10
286.066
 20
-200.009
 11
285.926
 21
-200.375
  0
LINE
  8
0
 10
285.926
 20
-200.375
 11
285.748
 21
-200.725
  0
LINE
  8
0
 10
285.748
 20
-200.725
 11
285.534
 21
-201.054
  0
LINE
  8
0
 10
285.534
 20
-201.054
 11
285.287
 21
-201.359
  0
LINE
  8
0
 10
285.287
 20
-201.359
 11
285.009
 21
-201.637
  0
LINE
  8
0
 10
285.009
 20
-201.637
 11
284.704
 21
-201.884
  0
LINE
  8
0
 10
284.704
 20
-201.884
 11
284.375
 21
-202.098
  0
LINE
  8
0
 10
284.375
 20
-202.098
 11
284.025
 21
-202.276
  0
LINE
  8
0
 10
284.025
 20
-202.276
 11
283.659
 21
-202.416
  0
LINE
  8
0
 10
283.659
 20
-202.416
 11
283.28
 21
-202.518
  0
LINE
  8
0
 10
283.28
 20
-202.518
 11
282.892
 21
-202.579
  0
LINE
  8
0
 10
282.892
 20
-202.579
 11
282.5
 21
-202.6
  0
LINE
  8
0
 10
282.5
 20
-202.6
 11
282.108
 21
-202.579
  0
ENDSEC
  0
SECTION
  2
OBJECTS
  0
DICTIONARY
  0
ENDSEC
  0
EOF
