  0
SECTION
  2
BLOCKS
  0
ENDSEC
  0
SECTION
  2
ENTITIES
  0
LINE
  8
0
 10
240.398
 20
-107.348
 11
240.915
 21
-107.266
  0
LINE
  8
0
 10
240.915
 20
-107.266
 11
241.42
 21
-107.13
  0
LINE
  8
0
 10
241.42
 20
-107.13
 11
241.909
 21
-106.943
  0
LINE
  8
0
 10
241.909
 20
-106.943
 11
242.375
 21
-106.705
  0
LINE
  8
0
 10
242.375
 20
-106.705
 11
242.814
 21
-106.42
  0
LINE
  8
0
 10
242.814
 20
-106.42
 11
243.221
 21
-106.091
  0
LINE
  8
0
 10
243.221
 20
-106.091
 11
243.591
 21
-105.721
  0
LINE
  8
0
 10
243.591
 20
-105.721
 11
243.92
 21
-105.314
  0
LINE
  8
0
 10
243.92
 20
-105.314
 11
244.205
 21
-104.875
  0
LINE
  8
0
 10
244.205
 20
-104.875
 11
244.443
 21
-104.409
  0
LINE
  8
0
 10
244.443
 20
-104.409
 11
244.63
 21
-103.92
  0
LINE
  8
0
 10
244.63
 20
-103.92
 11
244.766
 21
-103.415
  0
LINE
  8
0
 10
244.766
 20
-103.415
 11
244.848
 21
-102.898
  0
LINE
  8
0
 10
244.848
 20
-102.898
 11
244.875
 21
-102.375
  0
LINE
  8
0
 10
244.875
 20
-102.375
 11
244.875
 21
102.375
  0
LINE
  8
0
 10
244.875
 20
102.375
 11
244.848
 21
102.898
  0
LINE
  8
0
 10
244.848
 20
102.898
 11
244.766
 21
103.415
  0
LINE
  8
0
 10
244.766
 20
103.415
 11
244.63
 21
103.92
  0
LINE
  8
0
 10
244.63
 20
103.92
 11
244.443
 21
104.409
  0
LINE
  8
0
 10
244.443
 20
104.409
 11
244.205
 21
104.875
  0
LINE
  8
0
 10
244.205
 20
104.875
 11
243.92
 21
105.314
  0
LINE
  8
0
 10
243.92
 20
105.314
 11
243.591
 21
105.721
  0
LINE
  8
0
 10
243.591
 20
105.721
 11
243.221
 21
106.091
  0
LINE
  8
0
 10
243.221
 20
106.091
 11
242.814
 21
106.42
  0
LINE
  8
0
 10
242.814
 20
106.42
 11
242.375
 21
106.705
  0
LINE
  8
0
 10
242.375
 20
106.705
 11
241.909
 21
106.943
  0
LINE
  8
0
 10
241.909
 20
106.943
 11
241.42
 21
107.13
  0
LINE
  8
0
 10
241.42
 20
107.13
 11
240.915
 21
107.266
  0
LINE
  8
0
 10
240.915
 20
107.266
 11
240.398
 21
107.348
  0
LINE
  8
0
 10
240.398
 20
107.348
 11
239.875
 21
107.375
  0
LINE
  8
0
 10
239.875
 20
107.375
 11
-239.875
 21
107.375
  0
LINE
  8
0
 10
-239.875
 20
107.375
 11
-240.398
 21
107.348
  0
LINE
  8
0
 10
-240.398
 20
107.348
 11
-240.915
 21
107.266
  0
LINE
  8
0
 10
-240.915
 20
107.266
 11
-241.42
 21
107.13
  0
LINE
  8
0
 10
-241.42
 20
107.13
 11
-241.909
 21
106.943
  0
LINE
  8
0
 10
-241.909
 20
106.943
 11
-242.375
 21
106.705
  0
LINE
  8
0
 10
-242.375
 20
106.705
 11
-242.814
 21
106.42
  0
LINE
  8
0
 10
-242.814
 20
106.42
 11
-243.221
 21
106.091
  0
LINE
  8
0
 10
-243.221
 20
106.091
 11
-243.591
 21
105.721
  0
LINE
  8
0
 10
-243.591
 20
105.721
 11
-243.92
 21
105.314
  0
LINE
  8
0
 10
-243.92
 20
105.314
 11
-244.205
 21
104.875
  0
LINE
  8
0
 10
-244.205
 20
104.875
 11
-244.443
 21
104.409
  0
LINE
  8
0
 10
-244.443
 20
104.409
 11
-244.63
 21
103.92
  0
LINE
  8
0
 10
-244.63
 20
103.92
 11
-244.766
 21
103.415
  0
LINE
  8
0
 10
-244.766
 20
103.415
 11
-244.848
 21
102.898
  0
LINE
  8
0
 10
-244.848
 20
102.898
 11
-244.875
 21
102.375
  0
LINE
  8
0
 10
-244.875
 20
102.375
 11
-244.875
 21
-102.375
  0
LINE
  8
0
 10
-244.875
 20
-102.375
 11
-244.848
 21
-102.898
  0
LINE
  8
0
 10
-244.848
 20
-102.898
 11
-244.766
 21
-103.415
  0
LINE
  8
0
 10
-244.766
 20
-103.415
 11
-244.63
 21
-103.92
  0
LINE
  8
0
 10
-244.63
 20
-103.92
 11
-244.443
 21
-104.409
  0
LINE
  8
0
 10
-244.443
 20
-104.409
 11
-244.205
 21
-104.875
  0
LINE
  8
0
 10
-244.205
 20
-104.875
 11
-243.92
 21
-105.314
  0
LINE
  8
0
 10
-243.92
 20
-105.314
 11
-243.591
 21
-105.721
  0
LINE
  8
0
 10
-243.591
 20
-105.721
 11
-243.221
 21
-106.091
  0
LINE
  8
0
 10
-243.221
 20
-106.091
 11
-242.814
 21
-106.42
  0
LINE
  8
0
 10
-242.814
 20
-106.42
 11
-242.375
 21
-106.705
  0
LINE
  8
0
 10
-242.375
 20
-106.705
 11
-241.909
 21
-106.943
  0
LINE
  8
0
 10
-241.909
 20
-106.943
 11
-241.42
 21
-107.13
  0
LINE
  8
0
 10
-241.42
 20
-107.13
 11
-240.915
 21
-107.266
  0
LINE
  8
0
 10
-240.915
 20
-107.266
 11
-240.398
 21
-107.348
  0
LINE
  8
0
 10
-240.398
 20
-107.348
 11
-239.875
 21
-107.375
  0
LINE
  8
0
 10
-239.875
 20
-107.375
 11
239.875
 21
-107.375
  0
LINE
  8
0
 10
239.875
 20
-107.375
 11
240.398
 21
-107.348
  0
LINE
  8
0
 10
-237.892
 20
81.2705
 11
-238.28
 21
81.3319
  0
LINE
  8
0
 10
-238.28
 20
81.3319
 11
-238.659
 21
81.4335
  0
LINE
  8
0
 10
-238.659
 20
81.4335
 11
-239.025
 21
81.5742
  0
LINE
  8
0
 10
-239.025
 20
81.5742
 11
-239.375
 21
81.7524
  0
LINE
  8
0
 10
-239.375
 20
81.7524
 11
-239.704
 21
81.9662
  0
LINE
  8
0
 10
-239.704
 20
81.9662
 11
-240.009
 21
82.2132
  0
LINE
  8
0
 10
-240.009
 20
82.2132
 11
-240.287
 21
82.4908
  0
LINE
  8
0
 10
-240.287
 20
82.4908
 11
-240.534
 21
82.7958
  0
LINE
  8
0
 10
-240.534
 20
82.7958
 11
-240.748
 21
83.125
  0
LINE
  8
0
 10
-240.748
 20
83.125
 11
-240.926
 21
83.4747
  0
LINE
  8
0
 10
-240.926
 20
83.4747
 11
-241.066
 21
83.8412
  0
LINE
  8
0
 10
-241.066
 20
83.8412
 11
-241.168
 21
84.2203
  0
LINE
  8
0
 10
-241.168
 20
84.2203
 11
-241.229
 21
84.608
  0
LINE
  8
0
 10
-241.229
 20
84.608
 11
-241.25
 21
85
  0
LINE
  8
0
 10
-241.25
 20
85
 11
-241.229
 21
85.392
  0
LINE
  8
0
 10
-241.229
 20
85.392
 11
-241.168
 21
85.7797
  0
LINE
  8
0
 10
-241.168
 20
85.7797
 11
-241.066
 21
86.1588
  0
LINE
  8
0
 10
-241.066
 20
86.1588
 11
-240.926
 21
86.5253
  0
LINE
  8
0
 10
-240.926
 20
86.5253
 11
-240.748
 21
86.875
  0
LINE
  8
0
 10
-240.748
 20
86.875
 11
-240.534
 21
87.2042
  0
LINE
  8
0
 10
-240.534
 20
87.2042
 11
-240.287
 21
87.5092
  0
LINE
  8
0
 10
-240.287
 20
87.5092
 11
-240.009
 21
87.7868
  0
LINE
  8
0
 10
-240.009
 20
87.7868
 11
-239.704
 21
88.0338
  0
LINE
  8
0
 10
-239.704
 20
88.0338
 11
-239.375
 21
88.2476
  0
LINE
  8
0
 10
-239.375
 20
88.2476
 11
-239.025
 21
88.4258
  0
LINE
  8
0
 10
-239.025
 20
88.4258
 11
-238.659
 21
88.5665
  0
LINE
  8
0
 10
-238.659
 20
88.5665
 11
-238.28
 21
88.668
  0
LINE
  8
0
 10
-238.28
 20
88.668
 11
-237.892
 21
88.7294
  0
LINE
  8
0
 10
-237.892
 20
88.7294
 11
-237.5
 21
88.75
  0
LINE
  8
0
 10
-237.5
 20
88.75
 11
-237.108
 21
88.7294
  0
LINE
  8
0
 10
-237.108
 20
88.7294
 11
-236.72
 21
88.668
  0
LINE
  8
0
 10
-236.72
 20
88.668
 11
-236.341
 21
88.5665
  0
LINE
  8
0
 10
-236.341
 20
88.5665
 11
-235.975
 21
88.4258
  0
LINE
  8
0
 10
-235.975
 20
88.4258
 11
-235.625
 21
88.2476
  0
LINE
  8
0
 10
-235.625
 20
88.2476
 11
-235.296
 21
88.0338
  0
LINE
  8
0
 10
-235.296
 20
88.0338
 11
-234.991
 21
87.7868
  0
LINE
  8
0
 10
-234.991
 20
87.7868
 11
-234.713
 21
87.5092
  0
LINE
  8
0
 10
-234.713
 20
87.5092
 11
-234.466
 21
87.2042
  0
LINE
  8
0
 10
-234.466
 20
87.2042
 11
-234.252
 21
86.875
  0
LINE
  8
0
 10
-234.252
 20
86.875
 11
-234.074
 21
86.5253
  0
LINE
  8
0
 10
-234.074
 20
86.5253
 11
-233.934
 21
86.1588
  0
LINE
  8
0
 10
-233.934
 20
86.1588
 11
-233.832
 21
85.7797
  0
LINE
  8
0
 10
-233.832
 20
85.7797
 11
-233.771
 21
85.392
  0
LINE
  8
0
 10
-233.771
 20
85.392
 11
-233.75
 21
85
  0
LINE
  8
0
 10
-233.75
 20
85
 11
-233.771
 21
84.608
  0
LINE
  8
0
 10
-233.771
 20
84.608
 11
-233.832
 21
84.2203
  0
LINE
  8
0
 10
-233.832
 20
84.2203
 11
-233.934
 21
83.8412
  0
LINE
  8
0
 10
-233.934
 20
83.8412
 11
-234.074
 21
83.4747
  0
LINE
  8
0
 10
-234.074
 20
83.4747
 11
-234.252
 21
83.125
  0
LINE
  8
0
 10
-234.252
 20
83.125
 11
-234.466
 21
82.7958
  0
LINE
  8
0
 10
-234.466
 20
82.7958
 11
-234.713
 21
82.4908
  0
LINE
  8
0
 10
-234.713
 20
82.4908
 11
-234.991
 21
82.2132
  0
LINE
  8
0
 10
-234.991
 20
82.2132
 11
-235.296
 21
81.9662
  0
LINE
  8
0
 10
-235.296
 20
81.9662
 11
-235.625
 21
81.7524
  0
LINE
  8
0
 10
-235.625
 20
81.7524
 11
-235.975
 21
81.5742
  0
LINE
  8
0
 10
-235.975
 20
81.5742
 11
-236.341
 21
81.4335
  0
LINE
  8
0
 10
-236.341
 20
81.4335
 11
-236.72
 21
81.3319
  0
LINE
  8
0
 10
-236.72
 20
81.3319
 11
-237.108
 21
81.2705
  0
LINE
  8
0
 10
-237.108
 20
81.2705
 11
-237.5
 21
81.25
  0
LINE
  8
0
 10
-237.5
 20
81.25
 11
-237.892
 21
81.2705
  0
LINE
  8
0
 10
237.108
 20
81.2705
 11
236.72
 21
81.3319
  0
LINE
  8
0
 10
236.72
 20
81.3319
 11
236.341
 21
81.4335
  0
LINE
  8
0
 10
236.341
 20
81.4335
 11
235.975
 21
81.5742
  0
LINE
  8
0
 10
235.975
 20
81.5742
 11
235.625
 21
81.7524
  0
LINE
  8
0
 10
235.625
 20
81.7524
 11
235.296
 21
81.9662
  0
LINE
  8
0
 10
235.296
 20
81.9662
 11
234.991
 21
82.2132
  0
LINE
  8
0
 10
234.991
 20
82.2132
 11
234.713
 21
82.4908
  0
LINE
  8
0
 10
234.713
 20
82.4908
 11
234.466
 21
82.7958
  0
LINE
  8
0
 10
234.466
 20
82.7958
 11
234.252
 21
83.125
  0
LINE
  8
0
 10
234.252
 20
83.125
 11
234.074
 21
83.4747
  0
LINE
  8
0
 10
234.074
 20
83.4747
 11
233.934
 21
83.8412
  0
LINE
  8
0
 10
233.934
 20
83.8412
 11
233.832
 21
84.2203
  0
LINE
  8
0
 10
233.832
 20
84.2203
 11
233.771
 21
84.608
  0
LINE
  8
0
 10
233.771
 20
84.608
 11
233.75
 21
85
  0
LINE
  8
0
 10
233.75
 20
85
 11
233.771
 21
85.392
  0
LINE
  8
0
 10
233.771
 20
85.392
 11
233.832
 21
85.7797
  0
LINE
  8
0
 10
233.832
 20
85.7797
 11
233.934
 21
86.1588
  0
LINE
  8
0
 10
233.934
 20
86.1588
 11
234.074
 21
86.5253
  0
LINE
  8
0
 10
234.074
 20
86.5253
 11
234.252
 21
86.875
  0
LINE
  8
0
 10
234.252
 20
86.875
 11
234.466
 21
87.2042
  0
LINE
  8
0
 10
234.466
 20
87.2042
 11
234.713
 21
87.5092
  0
LINE
  8
0
 10
234.713
 20
87.5092
 11
234.991
 21
87.7868
  0
LINE
  8
0
 10
234.991
 20
87.7868
 11
235.296
 21
88.0338
  0
LINE
  8
0
 10
235.296
 20
88.0338
 11
235.625
 21
88.2476
  0
LINE
  8
0
 10
235.625
 20
88.2476
 11
235.975
 21
88.4258
  0
LINE
  8
0
 10
235.975
 20
88.4258
 11
236.341
 21
88.5665
  0
LINE
  8
0
 10
236.341
 20
88.5665
 11
236.72
 21
88.668
  0
LINE
  8
0
 10
236.72
 20
88.668
 11
237.108
 21
88.7294
  0
LINE
  8
0
 10
237.108
 20
88.7294
 11
237.5
 21
88.75
  0
LINE
  8
0
 10
237.5
 20
88.75
 11
237.892
 21
88.7294
  0
LINE
  8
0
 10
237.892
 20
88.7294
 11
238.28
 21
88.668
  0
LINE
  8
0
 10
238.28
 20
88.668
 11
238.659
 21
88.5665
  0
LINE
  8
0
 10
238.659
 20
88.5665
 11
239.025
 21
88.4258
  0
LINE
  8
0
 10
239.025
 20
88.4258
 11
239.375
 21
88.2476
  0
LINE
  8
0
 10
239.375
 20
88.2476
 11
239.704
 21
88.0338
  0
LINE
  8
0
 10
239.704
 20
88.0338
 11
240.009
 21
87.7868
  0
LINE
  8
0
 10
240.009
 20
87.7868
 11
240.287
 21
87.5092
  0
LINE
  8
0
 10
240.287
 20
87.5092
 11
240.534
 21
87.2042
  0
LINE
  8
0
 10
240.534
 20
87.2042
 11
240.748
 21
86.875
  0
LINE
  8
0
 10
240.748
 20
86.875
 11
240.926
 21
86.5253
  0
LINE
  8
0
 10
240.926
 20
86.5253
 11
241.066
 21
86.1588
  0
LINE
  8
0
 10
241.066
 20
86.1588
 11
241.168
 21
85.7797
  0
LINE
  8
0
 10
241.168
 20
85.7797
 11
241.229
 21
85.392
  0
LINE
  8
0
 10
241.229
 20
85.392
 11
241.25
 21
85
  0
LINE
  8
0
 10
241.25
 20
85
 11
241.229
 21
84.608
  0
LINE
  8
0
 10
241.229
 20
84.608
 11
241.168
 21
84.2203
  0
LINE
  8
0
 10
241.168
 20
84.2203
 11
241.066
 21
83.8412
  0
LINE
  8
0
 10
241.066
 20
83.8412
 11
240.926
 21
83.4747
  0
LINE
  8
0
 10
240.926
 20
83.4747
 11
240.748
 21
83.125
  0
LINE
  8
0
 10
240.748
 20
83.125
 11
240.534
 21
82.7958
  0
LINE
  8
0
 10
240.534
 20
82.7958
 11
240.287
 21
82.4908
  0
LINE
  8
0
 10
240.287
 20
82.4908
 11
240.009
 21
82.2132
  0
LINE
  8
0
 10
240.009
 20
82.2132
 11
239.704
 21
81.9662
  0
LINE
  8
0
 10
239.704
 20
81.9662
 11
239.375
 21
81.7524
  0
LINE
  8
0
 10
239.375
 20
81.7524
 11
239.025
 21
81.5742
  0
LINE
  8
0
 10
239.025
 20
81.5742
 11
238.659
 21
81.4335
  0
LINE
  8
0
 10
238.659
 20
81.4335
 11
238.28
 21
81.3319
  0
LINE
  8
0
 10
238.28
 20
81.3319
 11
237.892
 21
81.2705
  0
LINE
  8
0
 10
237.892
 20
81.2705
 11
237.5
 21
81.25
  0
LINE
  8
0
 10
237.5
 20
81.25
 11
237.108
 21
81.2705
  0
LINE
  8
0
 10
-195.309
 20
83.3283
 11
-195.549
 21
83.3911
  0
LINE
  8
0
 10
-195.549
 20
83.3911
 11
-195.777
 21
83.4881
  0
LINE
  8
0
 10
-195.777
 20
83.4881
 11
-195.989
 21
83.6174
  0
LINE
  8
0
 10
-195.989
 20
83.6174
 11
-196.18
 21
83.7762
  0
LINE
  8
0
 10
-196.18
 20
83.7762
 11
-196.346
 21
83.961
  0
LINE
  8
0
 10
-196.346
 20
83.961
 11
-196.482
 21
84.168
  0
LINE
  8
0
 10
-196.482
 20
84.168
 11
-196.588
 21
84.3927
  0
LINE
  8
0
 10
-196.588
 20
84.3927
 11
-196.659
 21
84.6304
  0
LINE
  8
0
 10
-196.659
 20
84.6304
 11
-196.695
 21
84.8759
  0
LINE
  8
0
 10
-196.695
 20
84.8759
 11
-196.695
 21
85.1241
  0
LINE
  8
0
 10
-196.695
 20
85.1241
 11
-196.659
 21
85.3696
  0
LINE
  8
0
 10
-196.659
 20
85.3696
 11
-196.588
 21
85.6073
  0
LINE
  8
0
 10
-196.588
 20
85.6073
 11
-196.482
 21
85.832
  0
LINE
  8
0
 10
-196.482
 20
85.832
 11
-196.346
 21
86.039
  0
LINE
  8
0
 10
-196.346
 20
86.039
 11
-196.18
 21
86.2238
  0
LINE
  8
0
 10
-196.18
 20
86.2238
 11
-195.989
 21
86.3826
  0
LINE
  8
0
 10
-195.989
 20
86.3826
 11
-195.777
 21
86.5119
  0
LINE
  8
0
 10
-195.777
 20
86.5119
 11
-195.549
 21
86.6089
  0
LINE
  8
0
 10
-195.549
 20
86.6089
 11
-195.309
 21
86.6717
  0
LINE
  8
0
 10
-195.309
 20
86.6717
 11
-195.062
 21
86.6989
  0
LINE
  8
0
 10
-195.062
 20
86.6989
 11
-194.814
 21
86.6898
  0
LINE
  8
0
 10
-194.814
 20
86.6898
 11
-194.57
 21
86.6447
  0
LINE
  8
0
 10
-194.57
 20
86.6447
 11
-194.335
 21
86.5646
  0
LINE
  8
0
 10
-194.335
 20
86.5646
 11
-194.114
 21
86.4511
  0
LINE
  8
0
 10
-194.114
 20
86.4511
 11
-193.913
 21
86.3067
  0
LINE
  8
0
 10
-193.913
 20
86.3067
 11
-193.734
 21
86.1344
  0
LINE
  8
0
 10
-193.734
 20
86.1344
 11
-193.582
 21
85.938
  0
LINE
  8
0
 10
-193.582
 20
85.938
 11
-193.461
 21
85.7216
  0
LINE
  8
0
 10
-193.461
 20
85.7216
 11
-193.372
 21
85.4898
  0
LINE
  8
0
 10
-193.372
 20
85.4898
 11
-193.318
 21
85.2475
  0
LINE
  8
0
 10
-193.318
 20
85.2475
 11
-193.3
 21
85
  0
LINE
  8
0
 10
-193.3
 20
85
 11
-193.318
 21
84.7525
  0
LINE
  8
0
 10
-193.318
 20
84.7525
 11
-193.372
 21
84.5102
  0
LINE
  8
0
 10
-193.372
 20
84.5102
 11
-193.461
 21
84.2784
  0
LINE
  8
0
 10
-193.461
 20
84.2784
 11
-193.582
 21
84.062
  0
LINE
  8
0
 10
-193.582
 20
84.062
 11
-193.734
 21
83.8656
  0
LINE
  8
0
 10
-193.734
 20
83.8656
 11
-193.913
 21
83.6933
  0
LINE
  8
0
 10
-193.913
 20
83.6933
 11
-194.114
 21
83.5489
  0
LINE
  8
0
 10
-194.114
 20
83.5489
 11
-194.335
 21
83.4354
  0
LINE
  8
0
 10
-194.335
 20
83.4354
 11
-194.57
 21
83.3553
  0
LINE
  8
0
 10
-194.57
 20
83.3553
 11
-194.814
 21
83.3102
  0
LINE
  8
0
 10
-194.814
 20
83.3102
 11
-195.062
 21
83.3011
  0
LINE
  8
0
 10
-195.062
 20
83.3011
 11
-195.309
 21
83.3283
  0
LINE
  8
0
 10
-0.308777
 20
83.3283
 11
-0.548889
 21
83.3911
  0
LINE
  8
0
 10
-0.548889
 20
83.3911
 11
-0.777298
 21
83.4881
  0
LINE
  8
0
 10
-0.777298
 20
83.4881
 11
-0.989151
 21
83.6174
  0
LINE
  8
0
 10
-0.989151
 20
83.6174
 11
-1.17992
 21
83.7762
  0
LINE
  8
0
 10
-1.17992
 20
83.7762
 11
-1.34554
 21
83.961
  0
LINE
  8
0
 10
-1.34554
 20
83.961
 11
-1.48248
 21
84.168
  0
LINE
  8
0
 10
-1.48248
 20
84.168
 11
-1.58781
 21
84.3927
  0
LINE
  8
0
 10
-1.58781
 20
84.3927
 11
-1.65932
 21
84.6304
  0
LINE
  8
0
 10
-1.65932
 20
84.6304
 11
-1.69545
 21
84.8759
  0
LINE
  8
0
 10
-1.69545
 20
84.8759
 11
-1.69545
 21
85.1241
  0
LINE
  8
0
 10
-1.69545
 20
85.1241
 11
-1.65932
 21
85.3696
  0
LINE
  8
0
 10
-1.65932
 20
85.3696
 11
-1.58781
 21
85.6073
  0
LINE
  8
0
 10
-1.58781
 20
85.6073
 11
-1.48248
 21
85.832
  0
LINE
  8
0
 10
-1.48248
 20
85.832
 11
-1.34554
 21
86.039
  0
LINE
  8
0
 10
-1.34554
 20
86.039
 11
-1.17992
 21
86.2238
  0
LINE
  8
0
 10
-1.17992
 20
86.2238
 11
-0.989151
 21
86.3826
  0
LINE
  8
0
 10
-0.989151
 20
86.3826
 11
-0.777298
 21
86.5119
  0
LINE
  8
0
 10
-0.777298
 20
86.5119
 11
-0.548889
 21
86.6089
  0
LINE
  8
0
 10
-0.548889
 20
86.6089
 11
-0.308777
 21
86.6717
  0
LINE
  8
0
 10
-0.308777
 20
86.6717
 11
-0.0620728
 21
86.6989
  0
LINE
  8
0
 10
-0.0620728
 20
86.6989
 11
0.185928
 21
86.6898
  0
LINE
  8
0
 10
0.185928
 20
86.6898
 11
0.429977
 21
86.6447
  0
LINE
  8
0
 10
0.429977
 20
86.6447
 11
0.664871
 21
86.5646
  0
LINE
  8
0
 10
0.664871
 20
86.5646
 11
0.88559
 21
86.4511
  0
LINE
  8
0
 10
0.88559
 20
86.4511
 11
1.08743
 21
86.3067
  0
LINE
  8
0
 10
1.08743
 20
86.3067
 11
1.2661
 21
86.1344
  0
LINE
  8
0
 10
1.2661
 20
86.1344
 11
1.41779
 21
85.938
  0
LINE
  8
0
 10
1.41779
 20
85.938
 11
1.53926
 21
85.7216
  0
LINE
  8
0
 10
1.53926
 20
85.7216
 11
1.62791
 21
85.4898
  0
LINE
  8
0
 10
1.62791
 20
85.4898
 11
1.68187
 21
85.2475
  0
LINE
  8
0
 10
1.68187
 20
85.2475
 11
1.7
 21
85
  0
LINE
  8
0
 10
1.7
 20
85
 11
1.68187
 21
84.7525
  0
LINE
  8
0
 10
1.68187
 20
84.7525
 11
1.62791
 21
84.5102
  0
LINE
  8
0
 10
1.62791
 20
84.5102
 11
1.53926
 21
84.2784
  0
LINE
  8
0
 10
1.53926
 20
84.2784
 11
1.41779
 21
84.062
  0
LINE
  8
0
 10
1.41779
 20
84.062
 11
1.2661
 21
83.8656
  0
LINE
  8
0
 10
1.2661
 20
83.8656
 11
1.08743
 21
83.6933
  0
LINE
  8
0
 10
1.08743
 20
83.6933
 11
0.88559
 21
83.5489
  0
LINE
  8
0
 10
0.88559
 20
83.5489
 11
0.664871
 21
83.4354
  0
LINE
  8
0
 10
0.664871
 20
83.4354
 11
0.429977
 21
83.3553
  0
LINE
  8
0
 10
0.429977
 20
83.3553
 11
0.185928
 21
83.3102
  0
LINE
  8
0
 10
0.185928
 20
83.3102
 11
-0.0620728
 21
83.3011
  0
LINE
  8
0
 10
-0.0620728
 20
83.3011
 11
-0.308777
 21
83.3283
  0
LINE
  8
0
 10
194.691
 20
83.3283
 11
194.451
 21
83.3911
  0
LINE
  8
0
 10
194.451
 20
83.3911
 11
194.223
 21
83.4881
  0
LINE
  8
0
 10
194.223
 20
83.4881
 11
194.011
 21
83.6174
  0
LINE
  8
0
 10
194.011
 20
83.6174
 11
193.82
 21
83.7762
  0
LINE
  8
0
 10
193.82
 20
83.7762
 11
193.654
 21
83.961
  0
LINE
  8
0
 10
193.654
 20
83.961
 11
193.518
 21
84.168
  0
LINE
  8
0
 10
193.518
 20
84.168
 11
193.412
 21
84.3927
  0
LINE
  8
0
 10
193.412
 20
84.3927
 11
193.341
 21
84.6304
  0
LINE
  8
0
 10
193.341
 20
84.6304
 11
193.305
 21
84.8759
  0
LINE
  8
0
 10
193.305
 20
84.8759
 11
193.305
 21
85.1241
  0
LINE
  8
0
 10
193.305
 20
85.1241
 11
193.341
 21
85.3696
  0
LINE
  8
0
 10
193.341
 20
85.3696
 11
193.412
 21
85.6073
  0
LINE
  8
0
 10
193.412
 20
85.6073
 11
193.518
 21
85.832
  0
LINE
  8
0
 10
193.518
 20
85.832
 11
193.654
 21
86.039
  0
LINE
  8
0
 10
193.654
 20
86.039
 11
193.82
 21
86.2238
  0
LINE
  8
0
 10
193.82
 20
86.2238
 11
194.011
 21
86.3826
  0
LINE
  8
0
 10
194.011
 20
86.3826
 11
194.223
 21
86.5119
  0
LINE
  8
0
 10
194.223
 20
86.5119
 11
194.451
 21
86.6089
  0
LINE
  8
0
 10
194.451
 20
86.6089
 11
194.691
 21
86.6717
  0
LINE
  8
0
 10
194.691
 20
86.6717
 11
194.938
 21
86.6989
  0
LINE
  8
0
 10
194.938
 20
86.6989
 11
195.186
 21
86.6898
  0
LINE
  8
0
 10
195.186
 20
86.6898
 11
195.43
 21
86.6447
  0
LINE
  8
0
 10
195.43
 20
86.6447
 11
195.665
 21
86.5646
  0
LINE
  8
0
 10
195.665
 20
86.5646
 11
195.886
 21
86.4511
  0
LINE
  8
0
 10
195.886
 20
86.4511
 11
196.087
 21
86.3067
  0
LINE
  8
0
 10
196.087
 20
86.3067
 11
196.266
 21
86.1344
  0
LINE
  8
0
 10
196.266
 20
86.1344
 11
196.418
 21
85.938
  0
LINE
  8
0
 10
196.418
 20
85.938
 11
196.539
 21
85.7216
  0
LINE
  8
0
 10
196.539
 20
85.7216
 11
196.628
 21
85.4898
  0
LINE
  8
0
 10
196.628
 20
85.4898
 11
196.682
 21
85.2475
  0
LINE
  8
0
 10
196.682
 20
85.2475
 11
196.7
 21
85
  0
LINE
  8
0
 10
196.7
 20
85
 11
196.682
 21
84.7525
  0
LINE
  8
0
 10
196.682
 20
84.7525
 11
196.628
 21
84.5102
  0
LINE
  8
0
 10
196.628
 20
84.5102
 11
196.539
 21
84.2784
  0
LINE
  8
0
 10
196.539
 20
84.2784
 11
196.418
 21
84.062
  0
LINE
  8
0
 10
196.418
 20
84.062
 11
196.266
 21
83.8656
  0
LINE
  8
0
 10
196.266
 20
83.8656
 11
196.087
 21
83.6933
  0
LINE
  8
0
 10
196.087
 20
83.6933
 11
195.886
 21
83.5489
  0
LINE
  8
0
 10
195.886
 20
83.5489
 11
195.665
 21
83.4354
  0
LINE
  8
0
 10
195.665
 20
83.4354
 11
195.43
 21
83.3553
  0
LINE
  8
0
 10
195.43
 20
83.3553
 11
195.186
 21
83.3102
  0
LINE
  8
0
 10
195.186
 20
83.3102
 11
194.938
 21
83.3011
  0
LINE
  8
0
 10
194.938
 20
83.3011
 11
194.691
 21
83.3283
  0
LINE
  8
0
 10
97.1912
 20
83.3283
 11
96.9511
 21
83.3911
  0
LINE
  8
0
 10
96.9511
 20
83.3911
 11
96.7227
 21
83.4881
  0
LINE
  8
0
 10
96.7227
 20
83.4881
 11
96.5108
 21
83.6174
  0
LINE
  8
0
 10
96.5108
 20
83.6174
 11
96.3201
 21
83.7762
  0
LINE
  8
0
 10
96.3201
 20
83.7762
 11
96.1544
 21
83.961
  0
LINE
  8
0
 10
96.1544
 20
83.961
 11
96.0175
 21
84.168
  0
LINE
  8
0
 10
96.0175
 20
84.168
 11
95.9122
 21
84.3927
  0
LINE
  8
0
 10
95.9122
 20
84.3927
 11
95.8407
 21
84.6304
  0
LINE
  8
0
 10
95.8407
 20
84.6304
 11
95.8045
 21
84.8759
  0
LINE
  8
0
 10
95.8045
 20
84.8759
 11
95.8045
 21
85.1241
  0
LINE
  8
0
 10
95.8045
 20
85.1241
 11
95.8407
 21
85.3696
  0
LINE
  8
0
 10
95.8407
 20
85.3696
 11
95.9122
 21
85.6073
  0
LINE
  8
0
 10
95.9122
 20
85.6073
 11
96.0175
 21
85.832
  0
LINE
  8
0
 10
96.0175
 20
85.832
 11
96.1544
 21
86.039
  0
LINE
  8
0
 10
96.1544
 20
86.039
 11
96.3201
 21
86.2238
  0
LINE
  8
0
 10
96.3201
 20
86.2238
 11
96.5108
 21
86.3826
  0
LINE
  8
0
 10
96.5108
 20
86.3826
 11
96.7227
 21
86.5119
  0
LINE
  8
0
 10
96.7227
 20
86.5119
 11
96.9511
 21
86.6089
  0
LINE
  8
0
 10
96.9511
 20
86.6089
 11
97.1912
 21
86.6717
  0
LINE
  8
0
 10
97.1912
 20
86.6717
 11
97.4379
 21
86.6989
  0
LINE
  8
0
 10
97.4379
 20
86.6989
 11
97.6859
 21
86.6898
  0
LINE
  8
0
 10
97.6859
 20
86.6898
 11
97.93
 21
86.6447
  0
LINE
  8
0
 10
97.93
 20
86.6447
 11
98.1649
 21
86.5646
  0
LINE
  8
0
 10
98.1649
 20
86.5646
 11
98.3856
 21
86.4511
  0
LINE
  8
0
 10
98.3856
 20
86.4511
 11
98.5874
 21
86.3067
  0
LINE
  8
0
 10
98.5874
 20
86.3067
 11
98.7661
 21
86.1344
  0
LINE
  8
0
 10
98.7661
 20
86.1344
 11
98.9178
 21
85.938
  0
LINE
  8
0
 10
98.9178
 20
85.938
 11
99.0393
 21
85.7216
  0
LINE
  8
0
 10
99.0393
 20
85.7216
 11
99.1279
 21
85.4898
  0
LINE
  8
0
 10
99.1279
 20
85.4898
 11
99.1819
 21
85.2475
  0
LINE
  8
0
 10
99.1819
 20
85.2475
 11
99.2
 21
85
  0
LINE
  8
0
 10
99.2
 20
85
 11
99.1819
 21
84.7525
  0
LINE
  8
0
 10
99.1819
 20
84.7525
 11
99.1279
 21
84.5102
  0
LINE
  8
0
 10
99.1279
 20
84.5102
 11
99.0393
 21
84.2784
  0
LINE
  8
0
 10
99.0393
 20
84.2784
 11
98.9178
 21
84.062
  0
LINE
  8
0
 10
98.9178
 20
84.062
 11
98.7661
 21
83.8656
  0
LINE
  8
0
 10
98.7661
 20
83.8656
 11
98.5874
 21
83.6933
  0
LINE
  8
0
 10
98.5874
 20
83.6933
 11
98.3856
 21
83.5489
  0
LINE
  8
0
 10
98.3856
 20
83.5489
 11
98.1649
 21
83.4354
  0
LINE
  8
0
 10
98.1649
 20
83.4354
 11
97.93
 21
83.3553
  0
LINE
  8
0
 10
97.93
 20
83.3553
 11
97.6859
 21
83.3102
  0
LINE
  8
0
 10
97.6859
 20
83.3102
 11
97.4379
 21
83.3011
  0
LINE
  8
0
 10
97.4379
 20
83.3011
 11
97.1912
 21
83.3283
  0
LINE
  8
0
 10
-97.8088
 20
83.3283
 11
-98.0489
 21
83.3911
  0
LINE
  8
0
 10
-98.0489
 20
83.3911
 11
-98.2773
 21
83.4881
  0
LINE
  8
0
 10
-98.2773
 20
83.4881
 11
-98.4892
 21
83.6174
  0
LINE
  8
0
 10
-98.4892
 20
83.6174
 11
-98.6799
 21
83.7762
  0
LINE
  8
0
 10
-98.6799
 20
83.7762
 11
-98.8455
 21
83.961
  0
LINE
  8
0
 10
-98.8455
 20
83.961
 11
-98.9825
 21
84.168
  0
LINE
  8
0
 10
-98.9825
 20
84.168
 11
-99.0878
 21
84.3927
  0
LINE
  8
0
 10
-99.0878
 20
84.3927
 11
-99.1593
 21
84.6304
  0
LINE
  8
0
 10
-99.1593
 20
84.6304
 11
-99.1955
 21
84.8759
  0
LINE
  8
0
 10
-99.1955
 20
84.8759
 11
-99.1955
 21
85.1241
  0
LINE
  8
0
 10
-99.1955
 20
85.1241
 11
-99.1593
 21
85.3696
  0
LINE
  8
0
 10
-99.1593
 20
85.3696
 11
-99.0878
 21
85.6073
  0
LINE
  8
0
 10
-99.0878
 20
85.6073
 11
-98.9825
 21
85.832
  0
LINE
  8
0
 10
-98.9825
 20
85.832
 11
-98.8455
 21
86.039
  0
LINE
  8
0
 10
-98.8455
 20
86.039
 11
-98.6799
 21
86.2238
  0
LINE
  8
0
 10
-98.6799
 20
86.2238
 11
-98.4892
 21
86.3826
  0
LINE
  8
0
 10
-98.4892
 20
86.3826
 11
-98.2773
 21
86.5119
  0
LINE
  8
0
 10
-98.2773
 20
86.5119
 11
-98.0489
 21
86.6089
  0
LINE
  8
0
 10
-98.0489
 20
86.6089
 11
-97.8088
 21
86.6717
  0
LINE
  8
0
 10
-97.8088
 20
86.6717
 11
-97.5621
 21
86.6989
  0
LINE
  8
0
 10
-97.5621
 20
86.6989
 11
-97.3141
 21
86.6898
  0
LINE
  8
0
 10
-97.3141
 20
86.6898
 11
-97.07
 21
86.6447
  0
LINE
  8
0
 10
-97.07
 20
86.6447
 11
-96.8351
 21
86.5646
  0
LINE
  8
0
 10
-96.8351
 20
86.5646
 11
-96.6144
 21
86.4511
  0
LINE
  8
0
 10
-96.6144
 20
86.4511
 11
-96.4126
 21
86.3067
  0
LINE
  8
0
 10
-96.4126
 20
86.3067
 11
-96.2339
 21
86.1344
  0
LINE
  8
0
 10
-96.2339
 20
86.1344
 11
-96.0822
 21
85.938
  0
LINE
  8
0
 10
-96.0822
 20
85.938
 11
-95.9607
 21
85.7216
  0
LINE
  8
0
 10
-95.9607
 20
85.7216
 11
-95.8721
 21
85.4898
  0
LINE
  8
0
 10
-95.8721
 20
85.4898
 11
-95.8181
 21
85.2475
  0
LINE
  8
0
 10
-95.8181
 20
85.2475
 11
-95.8
 21
85
  0
LINE
  8
0
 10
-95.8
 20
85
 11
-95.8181
 21
84.7525
  0
LINE
  8
0
 10
-95.8181
 20
84.7525
 11
-95.8721
 21
84.5102
  0
LINE
  8
0
 10
-95.8721
 20
84.5102
 11
-95.9607
 21
84.2784
  0
LINE
  8
0
 10
-95.9607
 20
84.2784
 11
-96.0822
 21
84.062
  0
LINE
  8
0
 10
-96.0822
 20
84.062
 11
-96.2339
 21
83.8656
  0
LINE
  8
0
 10
-96.2339
 20
83.8656
 11
-96.4126
 21
83.6933
  0
LINE
  8
0
 10
-96.4126
 20
83.6933
 11
-96.6144
 21
83.5489
  0
LINE
  8
0
 10
-96.6144
 20
83.5489
 11
-96.8351
 21
83.4354
  0
LINE
  8
0
 10
-96.8351
 20
83.4354
 11
-97.07
 21
83.3553
  0
LINE
  8
0
 10
-97.07
 20
83.3553
 11
-97.3141
 21
83.3102
  0
LINE
  8
0
 10
-97.3141
 20
83.3102
 11
-97.5621
 21
83.3011
  0
LINE
  8
0
 10
-97.5621
 20
83.3011
 11
-97.8088
 21
83.3283
  0
LINE
  8
0
 10
237.191
 20
40.8283
 11
236.951
 21
40.8911
  0
LINE
  8
0
 10
236.951
 20
40.8911
 11
236.723
 21
40.9881
  0
LINE
  8
0
 10
236.723
 20
40.9881
 11
236.511
 21
41.1174
  0
LINE
  8
0
 10
236.511
 20
41.1174
 11
236.32
 21
41.2762
  0
LINE
  8
0
 10
236.32
 20
41.2762
 11
236.154
 21
41.461
  0
LINE
  8
0
 10
236.154
 20
41.461
 11
236.018
 21
41.668
  0
LINE
  8
0
 10
236.018
 20
41.668
 11
235.912
 21
41.8927
  0
LINE
  8
0
 10
235.912
 20
41.8927
 11
235.841
 21
42.1304
  0
LINE
  8
0
 10
235.841
 20
42.1304
 11
235.805
 21
42.3759
  0
LINE
  8
0
 10
235.805
 20
42.3759
 11
235.805
 21
42.6241
  0
LINE
  8
0
 10
235.805
 20
42.6241
 11
235.841
 21
42.8696
  0
LINE
  8
0
 10
235.841
 20
42.8696
 11
235.912
 21
43.1073
  0
LINE
  8
0
 10
235.912
 20
43.1073
 11
236.018
 21
43.332
  0
LINE
  8
0
 10
236.018
 20
43.332
 11
236.154
 21
43.539
  0
LINE
  8
0
 10
236.154
 20
43.539
 11
236.32
 21
43.7238
  0
LINE
  8
0
 10
236.32
 20
43.7238
 11
236.511
 21
43.8826
  0
LINE
  8
0
 10
236.511
 20
43.8826
 11
236.723
 21
44.0119
  0
LINE
  8
0
 10
236.723
 20
44.0119
 11
236.951
 21
44.1089
  0
LINE
  8
0
 10
236.951
 20
44.1089
 11
237.191
 21
44.1717
  0
LINE
  8
0
 10
237.191
 20
44.1717
 11
237.438
 21
44.1989
  0
LINE
  8
0
 10
237.438
 20
44.1989
 11
237.686
 21
44.1898
  0
LINE
  8
0
 10
237.686
 20
44.1898
 11
237.93
 21
44.1447
  0
LINE
  8
0
 10
237.93
 20
44.1447
 11
238.165
 21
44.0646
  0
LINE
  8
0
 10
238.165
 20
44.0646
 11
238.386
 21
43.9511
  0
LINE
  8
0
 10
238.386
 20
43.9511
 11
238.587
 21
43.8067
  0
LINE
  8
0
 10
238.587
 20
43.8067
 11
238.766
 21
43.6344
  0
LINE
  8
0
 10
238.766
 20
43.6344
 11
238.918
 21
43.438
  0
LINE
  8
0
 10
238.918
 20
43.438
 11
239.039
 21
43.2216
  0
LINE
  8
0
 10
239.039
 20
43.2216
 11
239.128
 21
42.9898
  0
LINE
  8
0
 10
239.128
 20
42.9898
 11
239.182
 21
42.7475
  0
LINE
  8
0
 10
239.182
 20
42.7475
 11
239.2
 21
42.5
  0
LINE
  8
0
 10
239.2
 20
42.5
 11
239.182
 21
42.2525
  0
LINE
  8
0
 10
239.182
 20
42.2525
 11
239.128
 21
42.0102
  0
LINE
  8
0
 10
239.128
 20
42.0102
 11
239.039
 21
41.7784
  0
LINE
  8
0
 10
239.039
 20
41.7784
 11
238.918
 21
41.562
  0
LINE
  8
0
 10
238.918
 20
41.562
 11
238.766
 21
41.3656
  0
LINE
  8
0
 10
238.766
 20
41.3656
 11
238.587
 21
41.1933
  0
LINE
  8
0
 10
238.587
 20
41.1933
 11
238.386
 21
41.0489
  0
LINE
  8
0
 10
238.386
 20
41.0489
 11
238.165
 21
40.9354
  0
LINE
  8
0
 10
238.165
 20
40.9354
 11
237.93
 21
40.8553
  0
LINE
  8
0
 10
237.93
 20
40.8553
 11
237.686
 21
40.8102
  0
LINE
  8
0
 10
237.686
 20
40.8102
 11
237.438
 21
40.8011
  0
LINE
  8
0
 10
237.438
 20
40.8011
 11
237.191
 21
40.8283
  0
LINE
  8
0
 10
-237.686
 20
40.8102
 11
-237.93
 21
40.8553
  0
LINE
  8
0
 10
-237.93
 20
40.8553
 11
-238.165
 21
40.9354
  0
LINE
  8
0
 10
-238.165
 20
40.9354
 11
-238.386
 21
41.0489
  0
LINE
  8
0
 10
-238.386
 20
41.0489
 11
-238.587
 21
41.1933
  0
LINE
  8
0
 10
-238.587
 20
41.1933
 11
-238.766
 21
41.3656
  0
LINE
  8
0
 10
-238.766
 20
41.3656
 11
-238.918
 21
41.562
  0
LINE
  8
0
 10
-238.918
 20
41.562
 11
-239.039
 21
41.7784
  0
LINE
  8
0
 10
-239.039
 20
41.7784
 11
-239.128
 21
42.0102
  0
LINE
  8
0
 10
-239.128
 20
42.0102
 11
-239.182
 21
42.2525
  0
LINE
  8
0
 10
-239.182
 20
42.2525
 11
-239.2
 21
42.5
  0
LINE
  8
0
 10
-239.2
 20
42.5
 11
-239.182
 21
42.7475
  0
LINE
  8
0
 10
-239.182
 20
42.7475
 11
-239.128
 21
42.9898
  0
LINE
  8
0
 10
-239.128
 20
42.9898
 11
-239.039
 21
43.2216
  0
LINE
  8
0
 10
-239.039
 20
43.2216
 11
-238.918
 21
43.438
  0
LINE
  8
0
 10
-238.918
 20
43.438
 11
-238.766
 21
43.6344
  0
LINE
  8
0
 10
-238.766
 20
43.6344
 11
-238.587
 21
43.8067
  0
LINE
  8
0
 10
-238.587
 20
43.8067
 11
-238.386
 21
43.9511
  0
LINE
  8
0
 10
-238.386
 20
43.9511
 11
-238.165
 21
44.0646
  0
LINE
  8
0
 10
-238.165
 20
44.0646
 11
-237.93
 21
44.1447
  0
LINE
  8
0
 10
-237.93
 20
44.1447
 11
-237.686
 21
44.1898
  0
LINE
  8
0
 10
-237.686
 20
44.1898
 11
-237.438
 21
44.1989
  0
LINE
  8
0
 10
-237.438
 20
44.1989
 11
-237.191
 21
44.1717
  0
LINE
  8
0
 10
-237.191
 20
44.1717
 11
-236.951
 21
44.1089
  0
LINE
  8
0
 10
-236.951
 20
44.1089
 11
-236.723
 21
44.0119
  0
LINE
  8
0
 10
-236.723
 20
44.0119
 11
-236.511
 21
43.8826
  0
LINE
  8
0
 10
-236.511
 20
43.8826
 11
-236.32
 21
43.7238
  0
LINE
  8
0
 10
-236.32
 20
43.7238
 11
-236.154
 21
43.539
  0
LINE
  8
0
 10
-236.154
 20
43.539
 11
-236.018
 21
43.332
  0
LINE
  8
0
 10
-236.018
 20
43.332
 11
-235.912
 21
43.1073
  0
LINE
  8
0
 10
-235.912
 20
43.1073
 11
-235.841
 21
42.8696
  0
LINE
  8
0
 10
-235.841
 20
42.8696
 11
-235.805
 21
42.6241
  0
LINE
  8
0
 10
-235.805
 20
42.6241
 11
-235.805
 21
42.3759
  0
LINE
  8
0
 10
-235.805
 20
42.3759
 11
-235.841
 21
42.1304
  0
LINE
  8
0
 10
-235.841
 20
42.1304
 11
-235.912
 21
41.8927
  0
LINE
  8
0
 10
-235.912
 20
41.8927
 11
-236.018
 21
41.668
  0
LINE
  8
0
 10
-236.018
 20
41.668
 11
-236.154
 21
41.461
  0
LINE
  8
0
 10
-236.154
 20
41.461
 11
-236.32
 21
41.2762
  0
LINE
  8
0
 10
-236.32
 20
41.2762
 11
-236.511
 21
41.1174
  0
LINE
  8
0
 10
-236.511
 20
41.1174
 11
-236.723
 21
40.9881
  0
LINE
  8
0
 10
-236.723
 20
40.9881
 11
-236.951
 21
40.8911
  0
LINE
  8
0
 10
-236.951
 20
40.8911
 11
-237.191
 21
40.8283
  0
LINE
  8
0
 10
-237.191
 20
40.8283
 11
-237.438
 21
40.8011
  0
LINE
  8
0
 10
-237.438
 20
40.8011
 11
-237.686
 21
40.8102
  0
LINE
  8
0
 10
-237.686
 20
-59.1898
 11
-237.93
 21
-59.1447
  0
LINE
  8
0
 10
-237.93
 20
-59.1447
 11
-238.165
 21
-59.0646
  0
LINE
  8
0
 10
-238.165
 20
-59.0646
 11
-238.386
 21
-58.9511
  0
LINE
  8
0
 10
-238.386
 20
-58.9511
 11
-238.587
 21
-58.8067
  0
LINE
  8
0
 10
-238.587
 20
-58.8067
 11
-238.766
 21
-58.6344
  0
LINE
  8
0
 10
-238.766
 20
-58.6344
 11
-238.918
 21
-58.438
  0
LINE
  8
0
 10
-238.918
 20
-58.438
 11
-239.039
 21
-58.2216
  0
LINE
  8
0
 10
-239.039
 20
-58.2216
 11
-239.128
 21
-57.9898
  0
LINE
  8
0
 10
-239.128
 20
-57.9898
 11
-239.182
 21
-57.7475
  0
LINE
  8
0
 10
-239.182
 20
-57.7475
 11
-239.2
 21
-57.5
  0
LINE
  8
0
 10
-239.2
 20
-57.5
 11
-239.182
 21
-57.2525
  0
LINE
  8
0
 10
-239.182
 20
-57.2525
 11
-239.128
 21
-57.0102
  0
LINE
  8
0
 10
-239.128
 20
-57.0102
 11
-239.039
 21
-56.7784
  0
LINE
  8
0
 10
-239.039
 20
-56.7784
 11
-238.918
 21
-56.562
  0
LINE
  8
0
 10
-238.918
 20
-56.562
 11
-238.766
 21
-56.3656
  0
LINE
  8
0
 10
-238.766
 20
-56.3656
 11
-238.587
 21
-56.1933
  0
LINE
  8
0
 10
-238.587
 20
-56.1933
 11
-238.386
 21
-56.0489
  0
LINE
  8
0
 10
-238.386
 20
-56.0489
 11
-238.165
 21
-55.9354
  0
LINE
  8
0
 10
-238.165
 20
-55.9354
 11
-237.93
 21
-55.8553
  0
LINE
  8
0
 10
-237.93
 20
-55.8553
 11
-237.686
 21
-55.8102
  0
LINE
  8
0
 10
-237.686
 20
-55.8102
 11
-237.438
 21
-55.8011
  0
LINE
  8
0
 10
-237.438
 20
-55.8011
 11
-237.191
 21
-55.8283
  0
LINE
  8
0
 10
-237.191
 20
-55.8283
 11
-236.951
 21
-55.8911
  0
LINE
  8
0
 10
-236.951
 20
-55.8911
 11
-236.723
 21
-55.9881
  0
LINE
  8
0
 10
-236.723
 20
-55.9881
 11
-236.511
 21
-56.1174
  0
LINE
  8
0
 10
-236.511
 20
-56.1174
 11
-236.32
 21
-56.2762
  0
LINE
  8
0
 10
-236.32
 20
-56.2762
 11
-236.154
 21
-56.461
  0
LINE
  8
0
 10
-236.154
 20
-56.461
 11
-236.018
 21
-56.668
  0
LINE
  8
0
 10
-236.018
 20
-56.668
 11
-235.912
 21
-56.8927
  0
LINE
  8
0
 10
-235.912
 20
-56.8927
 11
-235.841
 21
-57.1304
  0
LINE
  8
0
 10
-235.841
 20
-57.1304
 11
-235.805
 21
-57.3759
  0
LINE
  8
0
 10
-235.805
 20
-57.3759
 11
-235.805
 21
-57.6241
  0
LINE
  8
0
 10
-235.805
 20
-57.6241
 11
-235.841
 21
-57.8696
  0
LINE
  8
0
 10
-235.841
 20
-57.8696
 11
-235.912
 21
-58.1073
  0
LINE
  8
0
 10
-235.912
 20
-58.1073
 11
-236.018
 21
-58.332
  0
LINE
  8
0
 10
-236.018
 20
-58.332
 11
-236.154
 21
-58.539
  0
LINE
  8
0
 10
-236.154
 20
-58.539
 11
-236.32
 21
-58.7238
  0
LINE
  8
0
 10
-236.32
 20
-58.7238
 11
-236.511
 21
-58.8826
  0
LINE
  8
0
 10
-236.511
 20
-58.8826
 11
-236.723
 21
-59.0119
  0
LINE
  8
0
 10
-236.723
 20
-59.0119
 11
-236.951
 21
-59.1089
  0
LINE
  8
0
 10
-236.951
 20
-59.1089
 11
-237.191
 21
-59.1717
  0
LINE
  8
0
 10
-237.191
 20
-59.1717
 11
-237.438
 21
-59.1989
  0
LINE
  8
0
 10
-237.438
 20
-59.1989
 11
-237.686
 21
-59.1898
  0
LINE
  8
0
 10
237.191
 20
-59.1717
 11
236.951
 21
-59.1089
  0
LINE
  8
0
 10
236.951
 20
-59.1089
 11
236.723
 21
-59.0119
  0
LINE
  8
0
 10
236.723
 20
-59.0119
 11
236.511
 21
-58.8826
  0
LINE
  8
0
 10
236.511
 20
-58.8826
 11
236.32
 21
-58.7238
  0
LINE
  8
0
 10
236.32
 20
-58.7238
 11
236.154
 21
-58.539
  0
LINE
  8
0
 10
236.154
 20
-58.539
 11
236.018
 21
-58.332
  0
LINE
  8
0
 10
236.018
 20
-58.332
 11
235.912
 21
-58.1073
  0
LINE
  8
0
 10
235.912
 20
-58.1073
 11
235.841
 21
-57.8696
  0
LINE
  8
0
 10
235.841
 20
-57.8696
 11
235.805
 21
-57.6241
  0
LINE
  8
0
 10
235.805
 20
-57.6241
 11
235.805
 21
-57.3759
  0
LINE
  8
0
 10
235.805
 20
-57.3759
 11
235.841
 21
-57.1304
  0
LINE
  8
0
 10
235.841
 20
-57.1304
 11
235.912
 21
-56.8927
  0
LINE
  8
0
 10
235.912
 20
-56.8927
 11
236.018
 21
-56.668
  0
LINE
  8
0
 10
236.018
 20
-56.668
 11
236.154
 21
-56.461
  0
LINE
  8
0
 10
236.154
 20
-56.461
 11
236.32
 21
-56.2762
  0
LINE
  8
0
 10
236.32
 20
-56.2762
 11
236.511
 21
-56.1174
  0
LINE
  8
0
 10
236.511
 20
-56.1174
 11
236.723
 21
-55.9881
  0
LINE
  8
0
 10
236.723
 20
-55.9881
 11
236.951
 21
-55.8911
  0
LINE
  8
0
 10
236.951
 20
-55.8911
 11
237.191
 21
-55.8283
  0
LINE
  8
0
 10
237.191
 20
-55.8283
 11
237.438
 21
-55.8011
  0
LINE
  8
0
 10
237.438
 20
-55.8011
 11
237.686
 21
-55.8102
  0
LINE
  8
0
 10
237.686
 20
-55.8102
 11
237.93
 21
-55.8553
  0
LINE
  8
0
 10
237.93
 20
-55.8553
 11
238.165
 21
-55.9354
  0
LINE
  8
0
 10
238.165
 20
-55.9354
 11
238.386
 21
-56.0489
  0
LINE
  8
0
 10
238.386
 20
-56.0489
 11
238.587
 21
-56.1933
  0
LINE
  8
0
 10
238.587
 20
-56.1933
 11
238.766
 21
-56.3656
  0
LINE
  8
0
 10
238.766
 20
-56.3656
 11
238.918
 21
-56.562
  0
LINE
  8
0
 10
238.918
 20
-56.562
 11
239.039
 21
-56.7784
  0
LINE
  8
0
 10
239.039
 20
-56.7784
 11
239.128
 21
-57.0102
  0
LINE
  8
0
 10
239.128
 20
-57.0102
 11
239.182
 21
-57.2525
  0
LINE
  8
0
 10
239.182
 20
-57.2525
 11
239.2
 21
-57.5
  0
LINE
  8
0
 10
239.2
 20
-57.5
 11
239.182
 21
-57.7475
  0
LINE
  8
0
 10
239.182
 20
-57.7475
 11
239.128
 21
-57.9898
  0
LINE
  8
0
 10
239.128
 20
-57.9898
 11
239.039
 21
-58.2216
  0
LINE
  8
0
 10
239.039
 20
-58.2216
 11
238.918
 21
-58.438
  0
LINE
  8
0
 10
238.918
 20
-58.438
 11
238.766
 21
-58.6344
  0
LINE
  8
0
 10
238.766
 20
-58.6344
 11
238.587
 21
-58.8067
  0
LINE
  8
0
 10
238.587
 20
-58.8067
 11
238.386
 21
-58.9511
  0
LINE
  8
0
 10
238.386
 20
-58.9511
 11
238.165
 21
-59.0646
  0
LINE
  8
0
 10
238.165
 20
-59.0646
 11
237.93
 21
-59.1447
  0
LINE
  8
0
 10
237.93
 20
-59.1447
 11
237.686
 21
-59.1898
  0
LINE
  8
0
 10
237.686
 20
-59.1898
 11
237.438
 21
-59.1989
  0
LINE
  8
0
 10
237.438
 20
-59.1989
 11
237.191
 21
-59.1717
  0
LINE
  8
0
 10
-237.892
 20
-103.729
 11
-238.28
 21
-103.668
  0
LINE
  8
0
 10
-238.28
 20
-103.668
 11
-238.659
 21
-103.566
  0
LINE
  8
0
 10
-238.659
 20
-103.566
 11
-239.025
 21
-103.426
  0
LINE
  8
0
 10
-239.025
 20
-103.426
 11
-239.375
 21
-103.248
  0
LINE
  8
0
 10
-239.375
 20
-103.248
 11
-239.704
 21
-103.034
  0
LINE
  8
0
 10
-239.704
 20
-103.034
 11
-240.009
 21
-102.787
  0
LINE
  8
0
 10
-240.009
 20
-102.787
 11
-240.287
 21
-102.509
  0
LINE
  8
0
 10
-240.287
 20
-102.509
 11
-240.534
 21
-102.204
  0
LINE
  8
0
 10
-240.534
 20
-102.204
 11
-240.748
 21
-101.875
  0
LINE
  8
0
 10
-240.748
 20
-101.875
 11
-240.926
 21
-101.525
  0
LINE
  8
0
 10
-240.926
 20
-101.525
 11
-241.066
 21
-101.159
  0
LINE
  8
0
 10
-241.066
 20
-101.159
 11
-241.168
 21
-100.78
  0
LINE
  8
0
 10
-241.168
 20
-100.78
 11
-241.229
 21
-100.392
  0
LINE
  8
0
 10
-241.229
 20
-100.392
 11
-241.25
 21
-100
  0
LINE
  8
0
 10
-241.25
 20
-100
 11
-241.229
 21
-99.608
  0
LINE
  8
0
 10
-241.229
 20
-99.608
 11
-241.168
 21
-99.2203
  0
LINE
  8
0
 10
-241.168
 20
-99.2203
 11
-241.066
 21
-98.8412
  0
LINE
  8
0
 10
-241.066
 20
-98.8412
 11
-240.926
 21
-98.4747
  0
LINE
  8
0
 10
-240.926
 20
-98.4747
 11
-240.748
 21
-98.125
  0
LINE
  8
0
 10
-240.748
 20
-98.125
 11
-240.534
 21
-97.7958
  0
LINE
  8
0
 10
-240.534
 20
-97.7958
 11
-240.287
 21
-97.4908
  0
LINE
  8
0
 10
-240.287
 20
-97.4908
 11
-240.009
 21
-97.2132
  0
LINE
  8
0
 10
-240.009
 20
-97.2132
 11
-239.704
 21
-96.9662
  0
LINE
  8
0
 10
-239.704
 20
-96.9662
 11
-239.375
 21
-96.7524
  0
LINE
  8
0
 10
-239.375
 20
-96.7524
 11
-239.025
 21
-96.5742
  0
LINE
  8
0
 10
-239.025
 20
-96.5742
 11
-238.659
 21
-96.4335
  0
LINE
  8
0
 10
-238.659
 20
-96.4335
 11
-238.28
 21
-96.3319
  0
LINE
  8
0
 10
-238.28
 20
-96.3319
 11
-237.892
 21
-96.2705
  0
LINE
  8
0
 10
-237.892
 20
-96.2705
 11
-237.5
 21
-96.25
  0
LINE
  8
0
 10
-237.5
 20
-96.25
 11
-237.108
 21
-96.2705
  0
LINE
  8
0
 10
-237.108
 20
-96.2705
 11
-236.72
 21
-96.3319
  0
LINE
  8
0
 10
-236.72
 20
-96.3319
 11
-236.341
 21
-96.4335
  0
LINE
  8
0
 10
-236.341
 20
-96.4335
 11
-235.975
 21
-96.5742
  0
LINE
  8
0
 10
-235.975
 20
-96.5742
 11
-235.625
 21
-96.7524
  0
LINE
  8
0
 10
-235.625
 20
-96.7524
 11
-235.296
 21
-96.9662
  0
LINE
  8
0
 10
-235.296
 20
-96.9662
 11
-234.991
 21
-97.2132
  0
LINE
  8
0
 10
-234.991
 20
-97.2132
 11
-234.713
 21
-97.4908
  0
LINE
  8
0
 10
-234.713
 20
-97.4908
 11
-234.466
 21
-97.7958
  0
LINE
  8
0
 10
-234.466
 20
-97.7958
 11
-234.252
 21
-98.125
  0
LINE
  8
0
 10
-234.252
 20
-98.125
 11
-234.074
 21
-98.4747
  0
LINE
  8
0
 10
-234.074
 20
-98.4747
 11
-233.934
 21
-98.8412
  0
LINE
  8
0
 10
-233.934
 20
-98.8412
 11
-233.832
 21
-99.2203
  0
LINE
  8
0
 10
-233.832
 20
-99.2203
 11
-233.771
 21
-99.608
  0
LINE
  8
0
 10
-233.771
 20
-99.608
 11
-233.75
 21
-100
  0
LINE
  8
0
 10
-233.75
 20
-100
 11
-233.771
 21
-100.392
  0
LINE
  8
0
 10
-233.771
 20
-100.392
 11
-233.832
 21
-100.78
  0
LINE
  8
0
 10
-233.832
 20
-100.78
 11
-233.934
 21
-101.159
  0
LINE
  8
0
 10
-233.934
 20
-101.159
 11
-234.074
 21
-101.525
  0
LINE
  8
0
 10
-234.074
 20
-101.525
 11
-234.252
 21
-101.875
  0
LINE
  8
0
 10
-234.252
 20
-101.875
 11
-234.466
 21
-102.204
  0
LINE
  8
0
 10
-234.466
 20
-102.204
 11
-234.713
 21
-102.509
  0
LINE
  8
0
 10
-234.713
 20
-102.509
 11
-234.991
 21
-102.787
  0
LINE
  8
0
 10
-234.991
 20
-102.787
 11
-235.296
 21
-103.034
  0
LINE
  8
0
 10
-235.296
 20
-103.034
 11
-235.625
 21
-103.248
  0
LINE
  8
0
 10
-235.625
 20
-103.248
 11
-235.975
 21
-103.426
  0
LINE
  8
0
 10
-235.975
 20
-103.426
 11
-236.341
 21
-103.566
  0
LINE
  8
0
 10
-236.341
 20
-103.566
 11
-236.72
 21
-103.668
  0
LINE
  8
0
 10
-236.72
 20
-103.668
 11
-237.108
 21
-103.729
  0
LINE
  8
0
 10
-237.108
 20
-103.729
 11
-237.5
 21
-103.75
  0
LINE
  8
0
 10
-237.5
 20
-103.75
 11
-237.892
 21
-103.729
  0
LINE
  8
0
 10
237.108
 20
-103.729
 11
236.72
 21
-103.668
  0
LINE
  8
0
 10
236.72
 20
-103.668
 11
236.341
 21
-103.566
  0
LINE
  8
0
 10
236.341
 20
-103.566
 11
235.975
 21
-103.426
  0
LINE
  8
0
 10
235.975
 20
-103.426
 11
235.625
 21
-103.248
  0
LINE
  8
0
 10
235.625
 20
-103.248
 11
235.296
 21
-103.034
  0
LINE
  8
0
 10
235.296
 20
-103.034
 11
234.991
 21
-102.787
  0
LINE
  8
0
 10
234.991
 20
-102.787
 11
234.713
 21
-102.509
  0
LINE
  8
0
 10
234.713
 20
-102.509
 11
234.466
 21
-102.204
  0
LINE
  8
0
 10
234.466
 20
-102.204
 11
234.252
 21
-101.875
  0
LINE
  8
0
 10
234.252
 20
-101.875
 11
234.074
 21
-101.525
  0
LINE
  8
0
 10
234.074
 20
-101.525
 11
233.934
 21
-101.159
  0
LINE
  8
0
 10
233.934
 20
-101.159
 11
233.832
 21
-100.78
  0
LINE
  8
0
 10
233.832
 20
-100.78
 11
233.771
 21
-100.392
  0
LINE
  8
0
 10
233.771
 20
-100.392
 11
233.75
 21
-100
  0
LINE
  8
0
 10
233.75
 20
-100
 11
233.771
 21
-99.608
  0
LINE
  8
0
 10
233.771
 20
-99.608
 11
233.832
 21
-99.2203
  0
LINE
  8
0
 10
233.832
 20
-99.2203
 11
233.934
 21
-98.8412
  0
LINE
  8
0
 10
233.934
 20
-98.8412
 11
234.074
 21
-98.4747
  0
LINE
  8
0
 10
234.074
 20
-98.4747
 11
234.252
 21
-98.125
  0
LINE
  8
0
 10
234.252
 20
-98.125
 11
234.466
 21
-97.7958
  0
LINE
  8
0
 10
234.466
 20
-97.7958
 11
234.713
 21
-97.4908
  0
LINE
  8
0
 10
234.713
 20
-97.4908
 11
234.991
 21
-97.2132
  0
LINE
  8
0
 10
234.991
 20
-97.2132
 11
235.296
 21
-96.9662
  0
LINE
  8
0
 10
235.296
 20
-96.9662
 11
235.625
 21
-96.7524
  0
LINE
  8
0
 10
235.625
 20
-96.7524
 11
235.975
 21
-96.5742
  0
LINE
  8
0
 10
235.975
 20
-96.5742
 11
236.341
 21
-96.4335
  0
LINE
  8
0
 10
236.341
 20
-96.4335
 11
236.72
 21
-96.3319
  0
LINE
  8
0
 10
236.72
 20
-96.3319
 11
237.108
 21
-96.2705
  0
LINE
  8
0
 10
237.108
 20
-96.2705
 11
237.5
 21
-96.25
  0
LINE
  8
0
 10
237.5
 20
-96.25
 11
237.892
 21
-96.2705
  0
LINE
  8
0
 10
237.892
 20
-96.2705
 11
238.28
 21
-96.3319
  0
LINE
  8
0
 10
238.28
 20
-96.3319
 11
238.659
 21
-96.4335
  0
LINE
  8
0
 10
238.659
 20
-96.4335
 11
239.025
 21
-96.5742
  0
LINE
  8
0
 10
239.025
 20
-96.5742
 11
239.375
 21
-96.7524
  0
LINE
  8
0
 10
239.375
 20
-96.7524
 11
239.704
 21
-96.9662
  0
LINE
  8
0
 10
239.704
 20
-96.9662
 11
240.009
 21
-97.2132
  0
LINE
  8
0
 10
240.009
 20
-97.2132
 11
240.287
 21
-97.4908
  0
LINE
  8
0
 10
240.287
 20
-97.4908
 11
240.534
 21
-97.7958
  0
LINE
  8
0
 10
240.534
 20
-97.7958
 11
240.748
 21
-98.125
  0
LINE
  8
0
 10
240.748
 20
-98.125
 11
240.926
 21
-98.4747
  0
LINE
  8
0
 10
240.926
 20
-98.4747
 11
241.066
 21
-98.8412
  0
LINE
  8
0
 10
241.066
 20
-98.8412
 11
241.168
 21
-99.2203
  0
LINE
  8
0
 10
241.168
 20
-99.2203
 11
241.229
 21
-99.608
  0
LINE
  8
0
 10
241.229
 20
-99.608
 11
241.25
 21
-100
  0
LINE
  8
0
 10
241.25
 20
-100
 11
241.229
 21
-100.392
  0
LINE
  8
0
 10
241.229
 20
-100.392
 11
241.168
 21
-100.78
  0
LINE
  8
0
 10
241.168
 20
-100.78
 11
241.066
 21
-101.159
  0
LINE
  8
0
 10
241.066
 20
-101.159
 11
240.926
 21
-101.525
  0
LINE
  8
0
 10
240.926
 20
-101.525
 11
240.748
 21
-101.875
  0
LINE
  8
0
 10
240.748
 20
-101.875
 11
240.534
 21
-102.204
  0
LINE
  8
0
 10
240.534
 20
-102.204
 11
240.287
 21
-102.509
  0
LINE
  8
0
 10
240.287
 20
-102.509
 11
240.009
 21
-102.787
  0
LINE
  8
0
 10
240.009
 20
-102.787
 11
239.704
 21
-103.034
  0
LINE
  8
0
 10
239.704
 20
-103.034
 11
239.375
 21
-103.248
  0
LINE
  8
0
 10
239.375
 20
-103.248
 11
239.025
 21
-103.426
  0
LINE
  8
0
 10
239.025
 20
-103.426
 11
238.659
 21
-103.566
  0
LINE
  8
0
 10
238.659
 20
-103.566
 11
238.28
 21
-103.668
  0
LINE
  8
0
 10
238.28
 20
-103.668
 11
237.892
 21
-103.729
  0
LINE
  8
0
 10
237.892
 20
-103.729
 11
237.5
 21
-103.75
  0
LINE
  8
0
 10
237.5
 20
-103.75
 11
237.108
 21
-103.729
  0
LINE
  8
0
 10
-195.309
 20
-101.672
 11
-195.549
 21
-101.609
  0
LINE
  8
0
 10
-195.549
 20
-101.609
 11
-195.777
 21
-101.512
  0
LINE
  8
0
 10
-195.777
 20
-101.512
 11
-195.989
 21
-101.383
  0
LINE
  8
0
 10
-195.989
 20
-101.383
 11
-196.18
 21
-101.224
  0
LINE
  8
0
 10
-196.18
 20
-101.224
 11
-196.346
 21
-101.039
  0
LINE
  8
0
 10
-196.346
 20
-101.039
 11
-196.482
 21
-100.832
  0
LINE
  8
0
 10
-196.482
 20
-100.832
 11
-196.588
 21
-100.607
  0
LINE
  8
0
 10
-196.588
 20
-100.607
 11
-196.659
 21
-100.37
  0
LINE
  8
0
 10
-196.659
 20
-100.37
 11
-196.695
 21
-100.124
  0
LINE
  8
0
 10
-196.695
 20
-100.124
 11
-196.695
 21
-99.8759
  0
LINE
  8
0
 10
-196.695
 20
-99.8759
 11
-196.659
 21
-99.6304
  0
LINE
  8
0
 10
-196.659
 20
-99.6304
 11
-196.588
 21
-99.3927
  0
LINE
  8
0
 10
-196.588
 20
-99.3927
 11
-196.482
 21
-99.168
  0
LINE
  8
0
 10
-196.482
 20
-99.168
 11
-196.346
 21
-98.961
  0
LINE
  8
0
 10
-196.346
 20
-98.961
 11
-196.18
 21
-98.7762
  0
LINE
  8
0
 10
-196.18
 20
-98.7762
 11
-195.989
 21
-98.6174
  0
LINE
  8
0
 10
-195.989
 20
-98.6174
 11
-195.777
 21
-98.4881
  0
LINE
  8
0
 10
-195.777
 20
-98.4881
 11
-195.549
 21
-98.3911
  0
LINE
  8
0
 10
-195.549
 20
-98.3911
 11
-195.309
 21
-98.3283
  0
LINE
  8
0
 10
-195.309
 20
-98.3283
 11
-195.062
 21
-98.3011
  0
LINE
  8
0
 10
-195.062
 20
-98.3011
 11
-194.814
 21
-98.3102
  0
LINE
  8
0
 10
-194.814
 20
-98.3102
 11
-194.57
 21
-98.3553
  0
LINE
  8
0
 10
-194.57
 20
-98.3553
 11
-194.335
 21
-98.4354
  0
LINE
  8
0
 10
-194.335
 20
-98.4354
 11
-194.114
 21
-98.5489
  0
LINE
  8
0
 10
-194.114
 20
-98.5489
 11
-193.913
 21
-98.6933
  0
LINE
  8
0
 10
-193.913
 20
-98.6933
 11
-193.734
 21
-98.8656
  0
LINE
  8
0
 10
-193.734
 20
-98.8656
 11
-193.582
 21
-99.062
  0
LINE
  8
0
 10
-193.582
 20
-99.062
 11
-193.461
 21
-99.2784
  0
LINE
  8
0
 10
-193.461
 20
-99.2784
 11
-193.372
 21
-99.5102
  0
LINE
  8
0
 10
-193.372
 20
-99.5102
 11
-193.318
 21
-99.7525
  0
LINE
  8
0
 10
-193.318
 20
-99.7525
 11
-193.3
 21
-100
  0
LINE
  8
0
 10
-193.3
 20
-100
 11
-193.318
 21
-100.248
  0
LINE
  8
0
 10
-193.318
 20
-100.248
 11
-193.372
 21
-100.49
  0
LINE
  8
0
 10
-193.372
 20
-100.49
 11
-193.461
 21
-100.722
  0
LINE
  8
0
 10
-193.461
 20
-100.722
 11
-193.582
 21
-100.938
  0
LINE
  8
0
 10
-193.582
 20
-100.938
 11
-193.734
 21
-101.134
  0
LINE
  8
0
 10
-193.734
 20
-101.134
 11
-193.913
 21
-101.307
  0
LINE
  8
0
 10
-193.913
 20
-101.307
 11
-194.114
 21
-101.451
  0
LINE
  8
0
 10
-194.114
 20
-101.451
 11
-194.335
 21
-101.565
  0
LINE
  8
0
 10
-194.335
 20
-101.565
 11
-194.57
 21
-101.645
  0
LINE
  8
0
 10
-194.57
 20
-101.645
 11
-194.814
 21
-101.69
  0
LINE
  8
0
 10
-194.814
 20
-101.69
 11
-195.062
 21
-101.699
  0
LINE
  8
0
 10
-195.062
 20
-101.699
 11
-195.309
 21
-101.672
  0
LINE
  8
0
 10
194.691
 20
-101.672
 11
194.451
 21
-101.609
  0
LINE
  8
0
 10
194.451
 20
-101.609
 11
194.223
 21
-101.512
  0
LINE
  8
0
 10
194.223
 20
-101.512
 11
194.011
 21
-101.383
  0
LINE
  8
0
 10
194.011
 20
-101.383
 11
193.82
 21
-101.224
  0
LINE
  8
0
 10
193.82
 20
-101.224
 11
193.654
 21
-101.039
  0
LINE
  8
0
 10
193.654
 20
-101.039
 11
193.518
 21
-100.832
  0
LINE
  8
0
 10
193.518
 20
-100.832
 11
193.412
 21
-100.607
  0
LINE
  8
0
 10
193.412
 20
-100.607
 11
193.341
 21
-100.37
  0
LINE
  8
0
 10
193.341
 20
-100.37
 11
193.305
 21
-100.124
  0
LINE
  8
0
 10
193.305
 20
-100.124
 11
193.305
 21
-99.8759
  0
LINE
  8
0
 10
193.305
 20
-99.8759
 11
193.341
 21
-99.6304
  0
LINE
  8
0
 10
193.341
 20
-99.6304
 11
193.412
 21
-99.3927
  0
LINE
  8
0
 10
193.412
 20
-99.3927
 11
193.518
 21
-99.168
  0
LINE
  8
0
 10
193.518
 20
-99.168
 11
193.654
 21
-98.961
  0
LINE
  8
0
 10
193.654
 20
-98.961
 11
193.82
 21
-98.7762
  0
LINE
  8
0
 10
193.82
 20
-98.7762
 11
194.011
 21
-98.6174
  0
LINE
  8
0
 10
194.011
 20
-98.6174
 11
194.223
 21
-98.4881
  0
LINE
  8
0
 10
194.223
 20
-98.4881
 11
194.451
 21
-98.3911
  0
LINE
  8
0
 10
194.451
 20
-98.3911
 11
194.691
 21
-98.3283
  0
LINE
  8
0
 10
194.691
 20
-98.3283
 11
194.938
 21
-98.3011
  0
LINE
  8
0
 10
194.938
 20
-98.3011
 11
195.186
 21
-98.3102
  0
LINE
  8
0
 10
195.186
 20
-98.3102
 11
195.43
 21
-98.3553
  0
LINE
  8
0
 10
195.43
 20
-98.3553
 11
195.665
 21
-98.4354
  0
LINE
  8
0
 10
195.665
 20
-98.4354
 11
195.886
 21
-98.5489
  0
LINE
  8
0
 10
195.886
 20
-98.5489
 11
196.087
 21
-98.6933
  0
LINE
  8
0
 10
196.087
 20
-98.6933
 11
196.266
 21
-98.8656
  0
LINE
  8
0
 10
196.266
 20
-98.8656
 11
196.418
 21
-99.062
  0
LINE
  8
0
 10
196.418
 20
-99.062
 11
196.539
 21
-99.2784
  0
LINE
  8
0
 10
196.539
 20
-99.2784
 11
196.628
 21
-99.5102
  0
LINE
  8
0
 10
196.628
 20
-99.5102
 11
196.682
 21
-99.7525
  0
LINE
  8
0
 10
196.682
 20
-99.7525
 11
196.7
 21
-100
  0
LINE
  8
0
 10
196.7
 20
-100
 11
196.682
 21
-100.248
  0
LINE
  8
0
 10
196.682
 20
-100.248
 11
196.628
 21
-100.49
  0
LINE
  8
0
 10
196.628
 20
-100.49
 11
196.539
 21
-100.722
  0
LINE
  8
0
 10
196.539
 20
-100.722
 11
196.418
 21
-100.938
  0
LINE
  8
0
 10
196.418
 20
-100.938
 11
196.266
 21
-101.134
  0
LINE
  8
0
 10
196.266
 20
-101.134
 11
196.087
 21
-101.307
  0
LINE
  8
0
 10
196.087
 20
-101.307
 11
195.886
 21
-101.451
  0
LINE
  8
0
 10
195.886
 20
-101.451
 11
195.665
 21
-101.565
  0
LINE
  8
0
 10
195.665
 20
-101.565
 11
195.43
 21
-101.645
  0
LINE
  8
0
 10
195.43
 20
-101.645
 11
195.186
 21
-101.69
  0
LINE
  8
0
 10
195.186
 20
-101.69
 11
194.938
 21
-101.699
  0
LINE
  8
0
 10
194.938
 20
-101.699
 11
194.691
 21
-101.672
  0
LINE
  8
0
 10
97.1912
 20
-101.672
 11
96.9511
 21
-101.609
  0
LINE
  8
0
 10
96.9511
 20
-101.609
 11
96.7227
 21
-101.512
  0
LINE
  8
0
 10
96.7227
 20
-101.512
 11
96.5108
 21
-101.383
  0
LINE
  8
0
 10
96.5108
 20
-101.383
 11
96.3201
 21
-101.224
  0
LINE
  8
0
 10
96.3201
 20
-101.224
 11
96.1544
 21
-101.039
  0
LINE
  8
0
 10
96.1544
 20
-101.039
 11
96.0175
 21
-100.832
  0
LINE
  8
0
 10
96.0175
 20
-100.832
 11
95.9122
 21
-100.607
  0
LINE
  8
0
 10
95.9122
 20
-100.607
 11
95.8407
 21
-100.37
  0
LINE
  8
0
 10
95.8407
 20
-100.37
 11
95.8045
 21
-100.124
  0
LINE
  8
0
 10
95.8045
 20
-100.124
 11
95.8045
 21
-99.8759
  0
LINE
  8
0
 10
95.8045
 20
-99.8759
 11
95.8407
 21
-99.6304
  0
LINE
  8
0
 10
95.8407
 20
-99.6304
 11
95.9122
 21
-99.3927
  0
LINE
  8
0
 10
95.9122
 20
-99.3927
 11
96.0175
 21
-99.168
  0
LINE
  8
0
 10
96.0175
 20
-99.168
 11
96.1544
 21
-98.961
  0
LINE
  8
0
 10
96.1544
 20
-98.961
 11
96.3201
 21
-98.7762
  0
LINE
  8
0
 10
96.3201
 20
-98.7762
 11
96.5108
 21
-98.6174
  0
LINE
  8
0
 10
96.5108
 20
-98.6174
 11
96.7227
 21
-98.4881
  0
LINE
  8
0
 10
96.7227
 20
-98.4881
 11
96.9511
 21
-98.3911
  0
LINE
  8
0
 10
96.9511
 20
-98.3911
 11
97.1912
 21
-98.3283
  0
LINE
  8
0
 10
97.1912
 20
-98.3283
 11
97.4379
 21
-98.3011
  0
LINE
  8
0
 10
97.4379
 20
-98.3011
 11
97.6859
 21
-98.3102
  0
LINE
  8
0
 10
97.6859
 20
-98.3102
 11
97.93
 21
-98.3553
  0
LINE
  8
0
 10
97.93
 20
-98.3553
 11
98.1649
 21
-98.4354
  0
LINE
  8
0
 10
98.1649
 20
-98.4354
 11
98.3856
 21
-98.5489
  0
LINE
  8
0
 10
98.3856
 20
-98.5489
 11
98.5874
 21
-98.6933
  0
LINE
  8
0
 10
98.5874
 20
-98.6933
 11
98.7661
 21
-98.8656
  0
LINE
  8
0
 10
98.7661
 20
-98.8656
 11
98.9178
 21
-99.062
  0
LINE
  8
0
 10
98.9178
 20
-99.062
 11
99.0393
 21
-99.2784
  0
LINE
  8
0
 10
99.0393
 20
-99.2784
 11
99.1279
 21
-99.5102
  0
LINE
  8
0
 10
99.1279
 20
-99.5102
 11
99.1819
 21
-99.7525
  0
LINE
  8
0
 10
99.1819
 20
-99.7525
 11
99.2
 21
-100
  0
LINE
  8
0
 10
99.2
 20
-100
 11
99.1819
 21
-100.248
  0
LINE
  8
0
 10
99.1819
 20
-100.248
 11
99.1279
 21
-100.49
  0
LINE
  8
0
 10
99.1279
 20
-100.49
 11
99.0393
 21
-100.722
  0
LINE
  8
0
 10
99.0393
 20
-100.722
 11
98.9178
 21
-100.938
  0
LINE
  8
0
 10
98.9178
 20
-100.938
 11
98.7661
 21
-101.134
  0
LINE
  8
0
 10
98.7661
 20
-101.134
 11
98.5874
 21
-101.307
  0
LINE
  8
0
 10
98.5874
 20
-101.307
 11
98.3856
 21
-101.451
  0
LINE
  8
0
 10
98.3856
 20
-101.451
 11
98.1649
 21
-101.565
  0
LINE
  8
0
 10
98.1649
 20
-101.565
 11
97.93
 21
-101.645
  0
LINE
  8
0
 10
97.93
 20
-101.645
 11
97.6859
 21
-101.69
  0
LINE
  8
0
 10
97.6859
 20
-101.69
 11
97.4379
 21
-101.699
  0
LINE
  8
0
 10
97.4379
 20
-101.699
 11
97.1912
 21
-101.672
  0
LINE
  8
0
 10
-0.308777
 20
-101.672
 11
-0.548889
 21
-101.609
  0
LINE
  8
0
 10
-0.548889
 20
-101.609
 11
-0.777298
 21
-101.512
  0
LINE
  8
0
 10
-0.777298
 20
-101.512
 11
-0.989151
 21
-101.383
  0
LINE
  8
0
 10
-0.989151
 20
-101.383
 11
-1.17992
 21
-101.224
  0
LINE
  8
0
 10
-1.17992
 20
-101.224
 11
-1.34554
 21
-101.039
  0
LINE
  8
0
 10
-1.34554
 20
-101.039
 11
-1.48248
 21
-100.832
  0
LINE
  8
0
 10
-1.48248
 20
-100.832
 11
-1.58781
 21
-100.607
  0
LINE
  8
0
 10
-1.58781
 20
-100.607
 11
-1.65932
 21
-100.37
  0
LINE
  8
0
 10
-1.65932
 20
-100.37
 11
-1.69545
 21
-100.124
  0
LINE
  8
0
 10
-1.69545
 20
-100.124
 11
-1.69545
 21
-99.8759
  0
LINE
  8
0
 10
-1.69545
 20
-99.8759
 11
-1.65932
 21
-99.6304
  0
LINE
  8
0
 10
-1.65932
 20
-99.6304
 11
-1.58781
 21
-99.3927
  0
LINE
  8
0
 10
-1.58781
 20
-99.3927
 11
-1.48248
 21
-99.168
  0
LINE
  8
0
 10
-1.48248
 20
-99.168
 11
-1.34554
 21
-98.961
  0
LINE
  8
0
 10
-1.34554
 20
-98.961
 11
-1.17992
 21
-98.7762
  0
LINE
  8
0
 10
-1.17992
 20
-98.7762
 11
-0.989151
 21
-98.6174
  0
LINE
  8
0
 10
-0.989151
 20
-98.6174
 11
-0.777298
 21
-98.4881
  0
LINE
  8
0
 10
-0.777298
 20
-98.4881
 11
-0.548889
 21
-98.3911
  0
LINE
  8
0
 10
-0.548889
 20
-98.3911
 11
-0.308777
 21
-98.3283
  0
LINE
  8
0
 10
-0.308777
 20
-98.3283
 11
-0.0620728
 21
-98.3011
  0
LINE
  8
0
 10
-0.0620728
 20
-98.3011
 11
0.185928
 21
-98.3102
  0
LINE
  8
0
 10
0.185928
 20
-98.3102
 11
0.429977
 21
-98.3553
  0
LINE
  8
0
 10
0.429977
 20
-98.3553
 11
0.664871
 21
-98.4354
  0
LINE
  8
0
 10
0.664871
 20
-98.4354
 11
0.88559
 21
-98.5489
  0
LINE
  8
0
 10
0.88559
 20
-98.5489
 11
1.08743
 21
-98.6933
  0
LINE
  8
0
 10
1.08743
 20
-98.6933
 11
1.2661
 21
-98.8656
  0
LINE
  8
0
 10
1.2661
 20
-98.8656
 11
1.41779
 21
-99.062
  0
LINE
  8
0
 10
1.41779
 20
-99.062
 11
1.53926
 21
-99.2784
  0
LINE
  8
0
 10
1.53926
 20
-99.2784
 11
1.62791
 21
-99.5102
  0
LINE
  8
0
 10
1.62791
 20
-99.5102
 11
1.68187
 21
-99.7525
  0
LINE
  8
0
 10
1.68187
 20
-99.7525
 11
1.7
 21
-100
  0
LINE
  8
0
 10
1.7
 20
-100
 11
1.68187
 21
-100.248
  0
LINE
  8
0
 10
1.68187
 20
-100.248
 11
1.62791
 21
-100.49
  0
LINE
  8
0
 10
1.62791
 20
-100.49
 11
1.53926
 21
-100.722
  0
LINE
  8
0
 10
1.53926
 20
-100.722
 11
1.41779
 21
-100.938
  0
LINE
  8
0
 10
1.41779
 20
-100.938
 11
1.2661
 21
-101.134
  0
LINE
  8
0
 10
1.2661
 20
-101.134
 11
1.08743
 21
-101.307
  0
LINE
  8
0
 10
1.08743
 20
-101.307
 11
0.88559
 21
-101.451
  0
LINE
  8
0
 10
0.88559
 20
-101.451
 11
0.664871
 21
-101.565
  0
LINE
  8
0
 10
0.664871
 20
-101.565
 11
0.429977
 21
-101.645
  0
LINE
  8
0
 10
0.429977
 20
-101.645
 11
0.185928
 21
-101.69
  0
LINE
  8
0
 10
0.185928
 20
-101.69
 11
-0.0620728
 21
-101.699
  0
LINE
  8
0
 10
-0.0620728
 20
-101.699
 11
-0.308777
 21
-101.672
  0
LINE
  8
0
 10
-97.8088
 20
-101.672
 11
-98.0489
 21
-101.609
  0
LINE
  8
0
 10
-98.0489
 20
-101.609
 11
-98.2773
 21
-101.512
  0
LINE
  8
0
 10
-98.2773
 20
-101.512
 11
-98.4892
 21
-101.383
  0
LINE
  8
0
 10
-98.4892
 20
-101.383
 11
-98.6799
 21
-101.224
  0
LINE
  8
0
 10
-98.6799
 20
-101.224
 11
-98.8455
 21
-101.039
  0
LINE
  8
0
 10
-98.8455
 20
-101.039
 11
-98.9825
 21
-100.832
  0
LINE
  8
0
 10
-98.9825
 20
-100.832
 11
-99.0878
 21
-100.607
  0
LINE
  8
0
 10
-99.0878
 20
-100.607
 11
-99.1593
 21
-100.37
  0
LINE
  8
0
 10
-99.1593
 20
-100.37
 11
-99.1955
 21
-100.124
  0
LINE
  8
0
 10
-99.1955
 20
-100.124
 11
-99.1955
 21
-99.8759
  0
LINE
  8
0
 10
-99.1955
 20
-99.8759
 11
-99.1593
 21
-99.6304
  0
LINE
  8
0
 10
-99.1593
 20
-99.6304
 11
-99.0878
 21
-99.3927
  0
LINE
  8
0
 10
-99.0878
 20
-99.3927
 11
-98.9825
 21
-99.168
  0
LINE
  8
0
 10
-98.9825
 20
-99.168
 11
-98.8455
 21
-98.961
  0
LINE
  8
0
 10
-98.8455
 20
-98.961
 11
-98.6799
 21
-98.7762
  0
LINE
  8
0
 10
-98.6799
 20
-98.7762
 11
-98.4892
 21
-98.6174
  0
LINE
  8
0
 10
-98.4892
 20
-98.6174
 11
-98.2773
 21
-98.4881
  0
LINE
  8
0
 10
-98.2773
 20
-98.4881
 11
-98.0489
 21
-98.3911
  0
LINE
  8
0
 10
-98.0489
 20
-98.3911
 11
-97.8088
 21
-98.3283
  0
LINE
  8
0
 10
-97.8088
 20
-98.3283
 11
-97.5621
 21
-98.3011
  0
LINE
  8
0
 10
-97.5621
 20
-98.3011
 11
-97.3141
 21
-98.3102
  0
LINE
  8
0
 10
-97.3141
 20
-98.3102
 11
-97.07
 21
-98.3553
  0
LINE
  8
0
 10
-97.07
 20
-98.3553
 11
-96.8351
 21
-98.4354
  0
LINE
  8
0
 10
-96.8351
 20
-98.4354
 11
-96.6144
 21
-98.5489
  0
LINE
  8
0
 10
-96.6144
 20
-98.5489
 11
-96.4126
 21
-98.6933
  0
LINE
  8
0
 10
-96.4126
 20
-98.6933
 11
-96.2339
 21
-98.8656
  0
LINE
  8
0
 10
-96.2339
 20
-98.8656
 11
-96.0822
 21
-99.062
  0
LINE
  8
0
 10
-96.0822
 20
-99.062
 11
-95.9607
 21
-99.2784
  0
LINE
  8
0
 10
-95.9607
 20
-99.2784
 11
-95.8721
 21
-99.5102
  0
LINE
  8
0
 10
-95.8721
 20
-99.5102
 11
-95.8181
 21
-99.7525
  0
LINE
  8
0
 10
-95.8181
 20
-99.7525
 11
-95.8
 21
-100
  0
LINE
  8
0
 10
-95.8
 20
-100
 11
-95.8181
 21
-100.248
  0
LINE
  8
0
 10
-95.8181
 20
-100.248
 11
-95.8721
 21
-100.49
  0
LINE
  8
0
 10
-95.8721
 20
-100.49
 11
-95.9607
 21
-100.722
  0
LINE
  8
0
 10
-95.9607
 20
-100.722
 11
-96.0822
 21
-100.938
  0
LINE
  8
0
 10
-96.0822
 20
-100.938
 11
-96.2339
 21
-101.134
  0
LINE
  8
0
 10
-96.2339
 20
-101.134
 11
-96.4126
 21
-101.307
  0
LINE
  8
0
 10
-96.4126
 20
-101.307
 11
-96.6144
 21
-101.451
  0
LINE
  8
0
 10
-96.6144
 20
-101.451
 11
-96.8351
 21
-101.565
  0
LINE
  8
0
 10
-96.8351
 20
-101.565
 11
-97.07
 21
-101.645
  0
LINE
  8
0
 10
-97.07
 20
-101.645
 11
-97.3141
 21
-101.69
  0
LINE
  8
0
 10
-97.3141
 20
-101.69
 11
-97.5621
 21
-101.699
  0
LINE
  8
0
 10
-97.5621
 20
-101.699
 11
-97.8088
 21
-101.672
  0
ENDSEC
  0
SECTION
  2
OBJECTS
  0
DICTIONARY
  0
ENDSEC
  0
EOF
