  0
SECTION
  2
BLOCKS
  0
ENDSEC
  0
SECTION
  2
ENTITIES
  0
LINE
  8
0
 10
270.523
 20
-76.3226
 11
271.04
 21
-76.2407
  0
LINE
  8
0
 10
271.04
 20
-76.2407
 11
271.545
 21
-76.1053
  0
LINE
  8
0
 10
271.545
 20
-76.1053
 11
272.034
 21
-75.9177
  0
LINE
  8
0
 10
272.034
 20
-75.9177
 11
272.5
 21
-75.6801
  0
LINE
  8
0
 10
272.5
 20
-75.6801
 11
272.939
 21
-75.3951
  0
LINE
  8
0
 10
272.939
 20
-75.3951
 11
273.346
 21
-75.0657
  0
LINE
  8
0
 10
273.346
 20
-75.0657
 11
273.716
 21
-74.6956
  0
LINE
  8
0
 10
273.716
 20
-74.6956
 11
274.045
 21
-74.2889
  0
LINE
  8
0
 10
274.045
 20
-74.2889
 11
274.33
 21
-73.85
  0
LINE
  8
0
 10
274.33
 20
-73.85
 11
274.568
 21
-73.3837
  0
LINE
  8
0
 10
274.568
 20
-73.3837
 11
274.755
 21
-72.8951
  0
LINE
  8
0
 10
274.755
 20
-72.8951
 11
274.891
 21
-72.3896
  0
LINE
  8
0
 10
274.891
 20
-72.3896
 11
274.973
 21
-71.8726
  0
LINE
  8
0
 10
274.973
 20
-71.8726
 11
275
 21
-71.35
  0
LINE
  8
0
 10
275
 20
-71.35
 11
275
 21
95.55
  0
LINE
  8
0
 10
275
 20
95.55
 11
-275
 21
95.55
  0
LINE
  8
0
 10
-275
 20
95.55
 11
-275
 21
-71.35
  0
LINE
  8
0
 10
-275
 20
-71.35
 11
-274.973
 21
-71.8726
  0
LINE
  8
0
 10
-274.973
 20
-71.8726
 11
-274.891
 21
-72.3896
  0
LINE
  8
0
 10
-274.891
 20
-72.3896
 11
-274.755
 21
-72.8951
  0
LINE
  8
0
 10
-274.755
 20
-72.8951
 11
-274.568
 21
-73.3837
  0
LINE
  8
0
 10
-274.568
 20
-73.3837
 11
-274.33
 21
-73.85
  0
LINE
  8
0
 10
-274.33
 20
-73.85
 11
-274.045
 21
-74.2889
  0
LINE
  8
0
 10
-274.045
 20
-74.2889
 11
-273.716
 21
-74.6956
  0
LINE
  8
0
 10
-273.716
 20
-74.6956
 11
-273.346
 21
-75.0657
  0
LINE
  8
0
 10
-273.346
 20
-75.0657
 11
-272.939
 21
-75.3951
  0
LINE
  8
0
 10
-272.939
 20
-75.3951
 11
-272.5
 21
-75.6801
  0
LINE
  8
0
 10
-272.5
 20
-75.6801
 11
-272.034
 21
-75.9177
  0
LINE
  8
0
 10
-272.034
 20
-75.9177
 11
-271.545
 21
-76.1053
  0
LINE
  8
0
 10
-271.545
 20
-76.1053
 11
-271.04
 21
-76.2407
  0
LINE
  8
0
 10
-271.04
 20
-76.2407
 11
-270.523
 21
-76.3226
  0
LINE
  8
0
 10
-270.523
 20
-76.3226
 11
-270
 21
-76.35
  0
LINE
  8
0
 10
-270
 20
-76.35
 11
270
 21
-76.35
  0
LINE
  8
0
 10
270
 20
-76.35
 11
270.523
 21
-76.3226
  0
LINE
  8
0
 10
-144.309
 20
86.5033
 11
-144.549
 21
86.5661
  0
LINE
  8
0
 10
-144.549
 20
86.5661
 11
-144.777
 21
86.6631
  0
LINE
  8
0
 10
-144.777
 20
86.6631
 11
-144.989
 21
86.7924
  0
LINE
  8
0
 10
-144.989
 20
86.7924
 11
-145.18
 21
86.9512
  0
LINE
  8
0
 10
-145.18
 20
86.9512
 11
-145.346
 21
87.136
  0
LINE
  8
0
 10
-145.346
 20
87.136
 11
-145.482
 21
87.343
  0
LINE
  8
0
 10
-145.482
 20
87.343
 11
-145.588
 21
87.5677
  0
LINE
  8
0
 10
-145.588
 20
87.5677
 11
-145.659
 21
87.8054
  0
LINE
  8
0
 10
-145.659
 20
87.8054
 11
-145.695
 21
88.0509
  0
LINE
  8
0
 10
-145.695
 20
88.0509
 11
-145.695
 21
88.2991
  0
LINE
  8
0
 10
-145.695
 20
88.2991
 11
-145.659
 21
88.5446
  0
LINE
  8
0
 10
-145.659
 20
88.5446
 11
-145.588
 21
88.7823
  0
LINE
  8
0
 10
-145.588
 20
88.7823
 11
-145.482
 21
89.007
  0
LINE
  8
0
 10
-145.482
 20
89.007
 11
-145.346
 21
89.214
  0
LINE
  8
0
 10
-145.346
 20
89.214
 11
-145.18
 21
89.3988
  0
LINE
  8
0
 10
-145.18
 20
89.3988
 11
-144.989
 21
89.5576
  0
LINE
  8
0
 10
-144.989
 20
89.5576
 11
-144.777
 21
89.6869
  0
LINE
  8
0
 10
-144.777
 20
89.6869
 11
-144.549
 21
89.784
  0
LINE
  8
0
 10
-144.549
 20
89.784
 11
-144.309
 21
89.8467
  0
LINE
  8
0
 10
-144.309
 20
89.8467
 11
-144.062
 21
89.8739
  0
LINE
  8
0
 10
-144.062
 20
89.8739
 11
-143.814
 21
89.8648
  0
LINE
  8
0
 10
-143.814
 20
89.8648
 11
-143.57
 21
89.8197
  0
LINE
  8
0
 10
-143.57
 20
89.8197
 11
-143.335
 21
89.7396
  0
LINE
  8
0
 10
-143.335
 20
89.7396
 11
-143.114
 21
89.6261
  0
LINE
  8
0
 10
-143.114
 20
89.6261
 11
-142.913
 21
89.4817
  0
LINE
  8
0
 10
-142.913
 20
89.4817
 11
-142.734
 21
89.3094
  0
LINE
  8
0
 10
-142.734
 20
89.3094
 11
-142.582
 21
89.113
  0
LINE
  8
0
 10
-142.582
 20
89.113
 11
-142.461
 21
88.8966
  0
LINE
  8
0
 10
-142.461
 20
88.8966
 11
-142.372
 21
88.6648
  0
LINE
  8
0
 10
-142.372
 20
88.6648
 11
-142.318
 21
88.4225
  0
LINE
  8
0
 10
-142.318
 20
88.4225
 11
-142.3
 21
88.175
  0
LINE
  8
0
 10
-142.3
 20
88.175
 11
-142.318
 21
87.9275
  0
LINE
  8
0
 10
-142.318
 20
87.9275
 11
-142.372
 21
87.6852
  0
LINE
  8
0
 10
-142.372
 20
87.6852
 11
-142.461
 21
87.4534
  0
LINE
  8
0
 10
-142.461
 20
87.4534
 11
-142.582
 21
87.237
  0
LINE
  8
0
 10
-142.582
 20
87.237
 11
-142.734
 21
87.0406
  0
LINE
  8
0
 10
-142.734
 20
87.0406
 11
-142.913
 21
86.8683
  0
LINE
  8
0
 10
-142.913
 20
86.8683
 11
-143.114
 21
86.7239
  0
LINE
  8
0
 10
-143.114
 20
86.7239
 11
-143.335
 21
86.6104
  0
LINE
  8
0
 10
-143.335
 20
86.6104
 11
-143.57
 21
86.5303
  0
LINE
  8
0
 10
-143.57
 20
86.5303
 11
-143.814
 21
86.4852
  0
LINE
  8
0
 10
-143.814
 20
86.4852
 11
-144.062
 21
86.4761
  0
LINE
  8
0
 10
-144.062
 20
86.4761
 11
-144.309
 21
86.5033
  0
LINE
  8
0
 10
-240.309
 20
86.5033
 11
-240.549
 21
86.5661
  0
LINE
  8
0
 10
-240.549
 20
86.5661
 11
-240.777
 21
86.6631
  0
LINE
  8
0
 10
-240.777
 20
86.6631
 11
-240.989
 21
86.7924
  0
LINE
  8
0
 10
-240.989
 20
86.7924
 11
-241.18
 21
86.9512
  0
LINE
  8
0
 10
-241.18
 20
86.9512
 11
-241.346
 21
87.136
  0
LINE
  8
0
 10
-241.346
 20
87.136
 11
-241.482
 21
87.343
  0
LINE
  8
0
 10
-241.482
 20
87.343
 11
-241.588
 21
87.5677
  0
LINE
  8
0
 10
-241.588
 20
87.5677
 11
-241.659
 21
87.8054
  0
LINE
  8
0
 10
-241.659
 20
87.8054
 11
-241.695
 21
88.0509
  0
LINE
  8
0
 10
-241.695
 20
88.0509
 11
-241.695
 21
88.2991
  0
LINE
  8
0
 10
-241.695
 20
88.2991
 11
-241.659
 21
88.5446
  0
LINE
  8
0
 10
-241.659
 20
88.5446
 11
-241.588
 21
88.7823
  0
LINE
  8
0
 10
-241.588
 20
88.7823
 11
-241.482
 21
89.007
  0
LINE
  8
0
 10
-241.482
 20
89.007
 11
-241.346
 21
89.214
  0
LINE
  8
0
 10
-241.346
 20
89.214
 11
-241.18
 21
89.3988
  0
LINE
  8
0
 10
-241.18
 20
89.3988
 11
-240.989
 21
89.5576
  0
LINE
  8
0
 10
-240.989
 20
89.5576
 11
-240.777
 21
89.6869
  0
LINE
  8
0
 10
-240.777
 20
89.6869
 11
-240.549
 21
89.784
  0
LINE
  8
0
 10
-240.549
 20
89.784
 11
-240.309
 21
89.8467
  0
LINE
  8
0
 10
-240.309
 20
89.8467
 11
-240.062
 21
89.8739
  0
LINE
  8
0
 10
-240.062
 20
89.8739
 11
-239.814
 21
89.8648
  0
LINE
  8
0
 10
-239.814
 20
89.8648
 11
-239.57
 21
89.8197
  0
LINE
  8
0
 10
-239.57
 20
89.8197
 11
-239.335
 21
89.7396
  0
LINE
  8
0
 10
-239.335
 20
89.7396
 11
-239.114
 21
89.6261
  0
LINE
  8
0
 10
-239.114
 20
89.6261
 11
-238.913
 21
89.4817
  0
LINE
  8
0
 10
-238.913
 20
89.4817
 11
-238.734
 21
89.3094
  0
LINE
  8
0
 10
-238.734
 20
89.3094
 11
-238.582
 21
89.113
  0
LINE
  8
0
 10
-238.582
 20
89.113
 11
-238.461
 21
88.8966
  0
LINE
  8
0
 10
-238.461
 20
88.8966
 11
-238.372
 21
88.6648
  0
LINE
  8
0
 10
-238.372
 20
88.6648
 11
-238.318
 21
88.4225
  0
LINE
  8
0
 10
-238.318
 20
88.4225
 11
-238.3
 21
88.175
  0
LINE
  8
0
 10
-238.3
 20
88.175
 11
-238.318
 21
87.9275
  0
LINE
  8
0
 10
-238.318
 20
87.9275
 11
-238.372
 21
87.6852
  0
LINE
  8
0
 10
-238.372
 20
87.6852
 11
-238.461
 21
87.4534
  0
LINE
  8
0
 10
-238.461
 20
87.4534
 11
-238.582
 21
87.237
  0
LINE
  8
0
 10
-238.582
 20
87.237
 11
-238.734
 21
87.0406
  0
LINE
  8
0
 10
-238.734
 20
87.0406
 11
-238.913
 21
86.8683
  0
LINE
  8
0
 10
-238.913
 20
86.8683
 11
-239.114
 21
86.7239
  0
LINE
  8
0
 10
-239.114
 20
86.7239
 11
-239.335
 21
86.6104
  0
LINE
  8
0
 10
-239.335
 20
86.6104
 11
-239.57
 21
86.5303
  0
LINE
  8
0
 10
-239.57
 20
86.5303
 11
-239.814
 21
86.4852
  0
LINE
  8
0
 10
-239.814
 20
86.4852
 11
-240.062
 21
86.4761
  0
LINE
  8
0
 10
-240.062
 20
86.4761
 11
-240.309
 21
86.5033
  0
LINE
  8
0
 10
-48.3088
 20
86.5033
 11
-48.5489
 21
86.5661
  0
LINE
  8
0
 10
-48.5489
 20
86.5661
 11
-48.7773
 21
86.6631
  0
LINE
  8
0
 10
-48.7773
 20
86.6631
 11
-48.9892
 21
86.7924
  0
LINE
  8
0
 10
-48.9892
 20
86.7924
 11
-49.1799
 21
86.9512
  0
LINE
  8
0
 10
-49.1799
 20
86.9512
 11
-49.3455
 21
87.136
  0
LINE
  8
0
 10
-49.3455
 20
87.136
 11
-49.4825
 21
87.343
  0
LINE
  8
0
 10
-49.4825
 20
87.343
 11
-49.5878
 21
87.5677
  0
LINE
  8
0
 10
-49.5878
 20
87.5677
 11
-49.6593
 21
87.8054
  0
LINE
  8
0
 10
-49.6593
 20
87.8054
 11
-49.6955
 21
88.0509
  0
LINE
  8
0
 10
-49.6955
 20
88.0509
 11
-49.6955
 21
88.2991
  0
LINE
  8
0
 10
-49.6955
 20
88.2991
 11
-49.6593
 21
88.5446
  0
LINE
  8
0
 10
-49.6593
 20
88.5446
 11
-49.5878
 21
88.7823
  0
LINE
  8
0
 10
-49.5878
 20
88.7823
 11
-49.4825
 21
89.007
  0
LINE
  8
0
 10
-49.4825
 20
89.007
 11
-49.3455
 21
89.214
  0
LINE
  8
0
 10
-49.3455
 20
89.214
 11
-49.1799
 21
89.3988
  0
LINE
  8
0
 10
-49.1799
 20
89.3988
 11
-48.9892
 21
89.5576
  0
LINE
  8
0
 10
-48.9892
 20
89.5576
 11
-48.7773
 21
89.6869
  0
LINE
  8
0
 10
-48.7773
 20
89.6869
 11
-48.5489
 21
89.784
  0
LINE
  8
0
 10
-48.5489
 20
89.784
 11
-48.3088
 21
89.8467
  0
LINE
  8
0
 10
-48.3088
 20
89.8467
 11
-48.0621
 21
89.8739
  0
LINE
  8
0
 10
-48.0621
 20
89.8739
 11
-47.8141
 21
89.8648
  0
LINE
  8
0
 10
-47.8141
 20
89.8648
 11
-47.57
 21
89.8197
  0
LINE
  8
0
 10
-47.57
 20
89.8197
 11
-47.3351
 21
89.7396
  0
LINE
  8
0
 10
-47.3351
 20
89.7396
 11
-47.1144
 21
89.6261
  0
LINE
  8
0
 10
-47.1144
 20
89.6261
 11
-46.9126
 21
89.4817
  0
LINE
  8
0
 10
-46.9126
 20
89.4817
 11
-46.7339
 21
89.3094
  0
LINE
  8
0
 10
-46.7339
 20
89.3094
 11
-46.5822
 21
89.113
  0
LINE
  8
0
 10
-46.5822
 20
89.113
 11
-46.4607
 21
88.8966
  0
LINE
  8
0
 10
-46.4607
 20
88.8966
 11
-46.3721
 21
88.6648
  0
LINE
  8
0
 10
-46.3721
 20
88.6648
 11
-46.3181
 21
88.4225
  0
LINE
  8
0
 10
-46.3181
 20
88.4225
 11
-46.3
 21
88.175
  0
LINE
  8
0
 10
-46.3
 20
88.175
 11
-46.3181
 21
87.9275
  0
LINE
  8
0
 10
-46.3181
 20
87.9275
 11
-46.3721
 21
87.6852
  0
LINE
  8
0
 10
-46.3721
 20
87.6852
 11
-46.4607
 21
87.4534
  0
LINE
  8
0
 10
-46.4607
 20
87.4534
 11
-46.5822
 21
87.237
  0
LINE
  8
0
 10
-46.5822
 20
87.237
 11
-46.7339
 21
87.0406
  0
LINE
  8
0
 10
-46.7339
 20
87.0406
 11
-46.9126
 21
86.8683
  0
LINE
  8
0
 10
-46.9126
 20
86.8683
 11
-47.1144
 21
86.7239
  0
LINE
  8
0
 10
-47.1144
 20
86.7239
 11
-47.3351
 21
86.6104
  0
LINE
  8
0
 10
-47.3351
 20
86.6104
 11
-47.57
 21
86.5303
  0
LINE
  8
0
 10
-47.57
 20
86.5303
 11
-47.8141
 21
86.4852
  0
LINE
  8
0
 10
-47.8141
 20
86.4852
 11
-48.0621
 21
86.4761
  0
LINE
  8
0
 10
-48.0621
 20
86.4761
 11
-48.3088
 21
86.5033
  0
LINE
  8
0
 10
47.6912
 20
86.5033
 11
47.4511
 21
86.5661
  0
LINE
  8
0
 10
47.4511
 20
86.5661
 11
47.2227
 21
86.6631
  0
LINE
  8
0
 10
47.2227
 20
86.6631
 11
47.0108
 21
86.7924
  0
LINE
  8
0
 10
47.0108
 20
86.7924
 11
46.8201
 21
86.9512
  0
LINE
  8
0
 10
46.8201
 20
86.9512
 11
46.6544
 21
87.136
  0
LINE
  8
0
 10
46.6544
 20
87.136
 11
46.5175
 21
87.343
  0
LINE
  8
0
 10
46.5175
 20
87.343
 11
46.4122
 21
87.5677
  0
LINE
  8
0
 10
46.4122
 20
87.5677
 11
46.3407
 21
87.8054
  0
LINE
  8
0
 10
46.3407
 20
87.8054
 11
46.3045
 21
88.0509
  0
LINE
  8
0
 10
46.3045
 20
88.0509
 11
46.3045
 21
88.2991
  0
LINE
  8
0
 10
46.3045
 20
88.2991
 11
46.3407
 21
88.5446
  0
LINE
  8
0
 10
46.3407
 20
88.5446
 11
46.4122
 21
88.7823
  0
LINE
  8
0
 10
46.4122
 20
88.7823
 11
46.5175
 21
89.007
  0
LINE
  8
0
 10
46.5175
 20
89.007
 11
46.6544
 21
89.214
  0
LINE
  8
0
 10
46.6544
 20
89.214
 11
46.8201
 21
89.3988
  0
LINE
  8
0
 10
46.8201
 20
89.3988
 11
47.0108
 21
89.5576
  0
LINE
  8
0
 10
47.0108
 20
89.5576
 11
47.2227
 21
89.6869
  0
LINE
  8
0
 10
47.2227
 20
89.6869
 11
47.4511
 21
89.784
  0
LINE
  8
0
 10
47.4511
 20
89.784
 11
47.6912
 21
89.8467
  0
LINE
  8
0
 10
47.6912
 20
89.8467
 11
47.9379
 21
89.8739
  0
LINE
  8
0
 10
47.9379
 20
89.8739
 11
48.1859
 21
89.8648
  0
LINE
  8
0
 10
48.1859
 20
89.8648
 11
48.43
 21
89.8197
  0
LINE
  8
0
 10
48.43
 20
89.8197
 11
48.6649
 21
89.7396
  0
LINE
  8
0
 10
48.6649
 20
89.7396
 11
48.8856
 21
89.6261
  0
LINE
  8
0
 10
48.8856
 20
89.6261
 11
49.0874
 21
89.4817
  0
LINE
  8
0
 10
49.0874
 20
89.4817
 11
49.2661
 21
89.3094
  0
LINE
  8
0
 10
49.2661
 20
89.3094
 11
49.4178
 21
89.113
  0
LINE
  8
0
 10
49.4178
 20
89.113
 11
49.5393
 21
88.8966
  0
LINE
  8
0
 10
49.5393
 20
88.8966
 11
49.6279
 21
88.6648
  0
LINE
  8
0
 10
49.6279
 20
88.6648
 11
49.6819
 21
88.4225
  0
LINE
  8
0
 10
49.6819
 20
88.4225
 11
49.7
 21
88.175
  0
LINE
  8
0
 10
49.7
 20
88.175
 11
49.6819
 21
87.9275
  0
LINE
  8
0
 10
49.6819
 20
87.9275
 11
49.6279
 21
87.6852
  0
LINE
  8
0
 10
49.6279
 20
87.6852
 11
49.5393
 21
87.4534
  0
LINE
  8
0
 10
49.5393
 20
87.4534
 11
49.4178
 21
87.237
  0
LINE
  8
0
 10
49.4178
 20
87.237
 11
49.2661
 21
87.0406
  0
LINE
  8
0
 10
49.2661
 20
87.0406
 11
49.0874
 21
86.8683
  0
LINE
  8
0
 10
49.0874
 20
86.8683
 11
48.8856
 21
86.7239
  0
LINE
  8
0
 10
48.8856
 20
86.7239
 11
48.6649
 21
86.6104
  0
LINE
  8
0
 10
48.6649
 20
86.6104
 11
48.43
 21
86.5303
  0
LINE
  8
0
 10
48.43
 20
86.5303
 11
48.1859
 21
86.4852
  0
LINE
  8
0
 10
48.1859
 20
86.4852
 11
47.9379
 21
86.4761
  0
LINE
  8
0
 10
47.9379
 20
86.4761
 11
47.6912
 21
86.5033
  0
LINE
  8
0
 10
143.691
 20
86.5033
 11
143.451
 21
86.5661
  0
LINE
  8
0
 10
143.451
 20
86.5661
 11
143.223
 21
86.6631
  0
LINE
  8
0
 10
143.223
 20
86.6631
 11
143.011
 21
86.7924
  0
LINE
  8
0
 10
143.011
 20
86.7924
 11
142.82
 21
86.9512
  0
LINE
  8
0
 10
142.82
 20
86.9512
 11
142.654
 21
87.136
  0
LINE
  8
0
 10
142.654
 20
87.136
 11
142.518
 21
87.343
  0
LINE
  8
0
 10
142.518
 20
87.343
 11
142.412
 21
87.5677
  0
LINE
  8
0
 10
142.412
 20
87.5677
 11
142.341
 21
87.8054
  0
LINE
  8
0
 10
142.341
 20
87.8054
 11
142.305
 21
88.0509
  0
LINE
  8
0
 10
142.305
 20
88.0509
 11
142.305
 21
88.2991
  0
LINE
  8
0
 10
142.305
 20
88.2991
 11
142.341
 21
88.5446
  0
LINE
  8
0
 10
142.341
 20
88.5446
 11
142.412
 21
88.7823
  0
LINE
  8
0
 10
142.412
 20
88.7823
 11
142.518
 21
89.007
  0
LINE
  8
0
 10
142.518
 20
89.007
 11
142.654
 21
89.214
  0
LINE
  8
0
 10
142.654
 20
89.214
 11
142.82
 21
89.3988
  0
LINE
  8
0
 10
142.82
 20
89.3988
 11
143.011
 21
89.5576
  0
LINE
  8
0
 10
143.011
 20
89.5576
 11
143.223
 21
89.6869
  0
LINE
  8
0
 10
143.223
 20
89.6869
 11
143.451
 21
89.784
  0
LINE
  8
0
 10
143.451
 20
89.784
 11
143.691
 21
89.8467
  0
LINE
  8
0
 10
143.691
 20
89.8467
 11
143.938
 21
89.8739
  0
LINE
  8
0
 10
143.938
 20
89.8739
 11
144.186
 21
89.8648
  0
LINE
  8
0
 10
144.186
 20
89.8648
 11
144.43
 21
89.8197
  0
LINE
  8
0
 10
144.43
 20
89.8197
 11
144.665
 21
89.7396
  0
LINE
  8
0
 10
144.665
 20
89.7396
 11
144.886
 21
89.6261
  0
LINE
  8
0
 10
144.886
 20
89.6261
 11
145.087
 21
89.4817
  0
LINE
  8
0
 10
145.087
 20
89.4817
 11
145.266
 21
89.3094
  0
LINE
  8
0
 10
145.266
 20
89.3094
 11
145.418
 21
89.113
  0
LINE
  8
0
 10
145.418
 20
89.113
 11
145.539
 21
88.8966
  0
LINE
  8
0
 10
145.539
 20
88.8966
 11
145.628
 21
88.6648
  0
LINE
  8
0
 10
145.628
 20
88.6648
 11
145.682
 21
88.4225
  0
LINE
  8
0
 10
145.682
 20
88.4225
 11
145.7
 21
88.175
  0
LINE
  8
0
 10
145.7
 20
88.175
 11
145.682
 21
87.9275
  0
LINE
  8
0
 10
145.682
 20
87.9275
 11
145.628
 21
87.6852
  0
LINE
  8
0
 10
145.628
 20
87.6852
 11
145.539
 21
87.4534
  0
LINE
  8
0
 10
145.539
 20
87.4534
 11
145.418
 21
87.237
  0
LINE
  8
0
 10
145.418
 20
87.237
 11
145.266
 21
87.0406
  0
LINE
  8
0
 10
145.266
 20
87.0406
 11
145.087
 21
86.8683
  0
LINE
  8
0
 10
145.087
 20
86.8683
 11
144.886
 21
86.7239
  0
LINE
  8
0
 10
144.886
 20
86.7239
 11
144.665
 21
86.6104
  0
LINE
  8
0
 10
144.665
 20
86.6104
 11
144.43
 21
86.5303
  0
LINE
  8
0
 10
144.43
 20
86.5303
 11
144.186
 21
86.4852
  0
LINE
  8
0
 10
144.186
 20
86.4852
 11
143.938
 21
86.4761
  0
LINE
  8
0
 10
143.938
 20
86.4761
 11
143.691
 21
86.5033
  0
LINE
  8
0
 10
239.691
 20
86.5033
 11
239.451
 21
86.5661
  0
LINE
  8
0
 10
239.451
 20
86.5661
 11
239.223
 21
86.6631
  0
LINE
  8
0
 10
239.223
 20
86.6631
 11
239.011
 21
86.7924
  0
LINE
  8
0
 10
239.011
 20
86.7924
 11
238.82
 21
86.9512
  0
LINE
  8
0
 10
238.82
 20
86.9512
 11
238.654
 21
87.136
  0
LINE
  8
0
 10
238.654
 20
87.136
 11
238.518
 21
87.343
  0
LINE
  8
0
 10
238.518
 20
87.343
 11
238.412
 21
87.5677
  0
LINE
  8
0
 10
238.412
 20
87.5677
 11
238.341
 21
87.8054
  0
LINE
  8
0
 10
238.341
 20
87.8054
 11
238.305
 21
88.0509
  0
LINE
  8
0
 10
238.305
 20
88.0509
 11
238.305
 21
88.2991
  0
LINE
  8
0
 10
238.305
 20
88.2991
 11
238.341
 21
88.5446
  0
LINE
  8
0
 10
238.341
 20
88.5446
 11
238.412
 21
88.7823
  0
LINE
  8
0
 10
238.412
 20
88.7823
 11
238.518
 21
89.007
  0
LINE
  8
0
 10
238.518
 20
89.007
 11
238.654
 21
89.214
  0
LINE
  8
0
 10
238.654
 20
89.214
 11
238.82
 21
89.3988
  0
LINE
  8
0
 10
238.82
 20
89.3988
 11
239.011
 21
89.5576
  0
LINE
  8
0
 10
239.011
 20
89.5576
 11
239.223
 21
89.6869
  0
LINE
  8
0
 10
239.223
 20
89.6869
 11
239.451
 21
89.784
  0
LINE
  8
0
 10
239.451
 20
89.784
 11
239.691
 21
89.8467
  0
LINE
  8
0
 10
239.691
 20
89.8467
 11
239.938
 21
89.8739
  0
LINE
  8
0
 10
239.938
 20
89.8739
 11
240.186
 21
89.8648
  0
LINE
  8
0
 10
240.186
 20
89.8648
 11
240.43
 21
89.8197
  0
LINE
  8
0
 10
240.43
 20
89.8197
 11
240.665
 21
89.7396
  0
LINE
  8
0
 10
240.665
 20
89.7396
 11
240.886
 21
89.6261
  0
LINE
  8
0
 10
240.886
 20
89.6261
 11
241.087
 21
89.4817
  0
LINE
  8
0
 10
241.087
 20
89.4817
 11
241.266
 21
89.3094
  0
LINE
  8
0
 10
241.266
 20
89.3094
 11
241.418
 21
89.113
  0
LINE
  8
0
 10
241.418
 20
89.113
 11
241.539
 21
88.8966
  0
LINE
  8
0
 10
241.539
 20
88.8966
 11
241.628
 21
88.6648
  0
LINE
  8
0
 10
241.628
 20
88.6648
 11
241.682
 21
88.4225
  0
LINE
  8
0
 10
241.682
 20
88.4225
 11
241.7
 21
88.175
  0
LINE
  8
0
 10
241.7
 20
88.175
 11
241.682
 21
87.9275
  0
LINE
  8
0
 10
241.682
 20
87.9275
 11
241.628
 21
87.6852
  0
LINE
  8
0
 10
241.628
 20
87.6852
 11
241.539
 21
87.4534
  0
LINE
  8
0
 10
241.539
 20
87.4534
 11
241.418
 21
87.237
  0
LINE
  8
0
 10
241.418
 20
87.237
 11
241.266
 21
87.0406
  0
LINE
  8
0
 10
241.266
 20
87.0406
 11
241.087
 21
86.8683
  0
LINE
  8
0
 10
241.087
 20
86.8683
 11
240.886
 21
86.7239
  0
LINE
  8
0
 10
240.886
 20
86.7239
 11
240.665
 21
86.6104
  0
LINE
  8
0
 10
240.665
 20
86.6104
 11
240.43
 21
86.5303
  0
LINE
  8
0
 10
240.43
 20
86.5303
 11
240.186
 21
86.4852
  0
LINE
  8
0
 10
240.186
 20
86.4852
 11
239.938
 21
86.4761
  0
LINE
  8
0
 10
239.938
 20
86.4761
 11
239.691
 21
86.5033
  0
ENDSEC
  0
SECTION
  2
OBJECTS
  0
DICTIONARY
  0
ENDSEC
  0
EOF
