solid OpenSCAD_Model
  facet normal 0 -1 0
    outer loop
      vertex -275 -206.225 0
      vertex 275 -206.225 6.35
      vertex -275 -206.225 6.35
    endloop
  endfacet
  facet normal 0 -1 -0
    outer loop
      vertex 275 -206.225 6.35
      vertex -275 -206.225 0
      vertex 275 -206.225 0
    endloop
  endfacet
  facet normal 0 0 1
    outer loop
      vertex 270 168.85 6.35
      vertex 275 163.85 6.35
      vertex 274.973 164.373 6.35
    endloop
  endfacet
  facet normal 0 0 1
    outer loop
      vertex 270 168.85 6.35
      vertex 274.973 164.373 6.35
      vertex 274.891 164.89 6.35
    endloop
  endfacet
  facet normal 0 0 1
    outer loop
      vertex 270 168.85 6.35
      vertex 274.891 164.89 6.35
      vertex 274.755 165.395 6.35
    endloop
  endfacet
  facet normal 0 0 1
    outer loop
      vertex 270 168.85 6.35
      vertex 274.755 165.395 6.35
      vertex 274.568 165.884 6.35
    endloop
  endfacet
  facet normal 0 0 1
    outer loop
      vertex 270 168.85 6.35
      vertex 274.568 165.884 6.35
      vertex 274.33 166.35 6.35
    endloop
  endfacet
  facet normal 0 0 1
    outer loop
      vertex 270 168.85 6.35
      vertex 274.33 166.35 6.35
      vertex 274.045 166.789 6.35
    endloop
  endfacet
  facet normal 0 0 1
    outer loop
      vertex 270 168.85 6.35
      vertex 274.045 166.789 6.35
      vertex 273.716 167.196 6.35
    endloop
  endfacet
  facet normal 0 0 1
    outer loop
      vertex 270 168.85 6.35
      vertex 273.716 167.196 6.35
      vertex 273.346 167.566 6.35
    endloop
  endfacet
  facet normal 0 0 1
    outer loop
      vertex 270 168.85 6.35
      vertex 273.346 167.566 6.35
      vertex 272.939 167.895 6.35
    endloop
  endfacet
  facet normal 0 0 1
    outer loop
      vertex 270 168.85 6.35
      vertex 272.939 167.895 6.35
      vertex 272.5 168.18 6.35
    endloop
  endfacet
  facet normal 0 0 1
    outer loop
      vertex 270 168.85 6.35
      vertex 272.5 168.18 6.35
      vertex 272.034 168.418 6.35
    endloop
  endfacet
  facet normal 0 0 1
    outer loop
      vertex 270 168.85 6.35
      vertex 272.034 168.418 6.35
      vertex 271.545 168.605 6.35
    endloop
  endfacet
  facet normal 0 0 1
    outer loop
      vertex 270 168.85 6.35
      vertex 271.545 168.605 6.35
      vertex 271.04 168.741 6.35
    endloop
  endfacet
  facet normal 0 0 1
    outer loop
      vertex 270 168.85 6.35
      vertex 271.04 168.741 6.35
      vertex 270.523 168.823 6.35
    endloop
  endfacet
  facet normal 0 0 1
    outer loop
      vertex 275 163.85 6.35
      vertex 270 168.85 6.35
      vertex 275 -206.225 6.35
    endloop
  endfacet
  facet normal -0 0 1
    outer loop
      vertex -270 168.85 6.35
      vertex 275 -206.225 6.35
      vertex 270 168.85 6.35
    endloop
  endfacet
  facet normal 0 0 1
    outer loop
      vertex -275 163.85 6.35
      vertex -270 168.85 6.35
      vertex -270.523 168.823 6.35
    endloop
  endfacet
  facet normal 0 0 1
    outer loop
      vertex -275 163.85 6.35
      vertex -270.523 168.823 6.35
      vertex -271.04 168.741 6.35
    endloop
  endfacet
  facet normal 0 0 1
    outer loop
      vertex -275 163.85 6.35
      vertex -271.04 168.741 6.35
      vertex -271.545 168.605 6.35
    endloop
  endfacet
  facet normal 0 0 1
    outer loop
      vertex -275 163.85 6.35
      vertex -271.545 168.605 6.35
      vertex -272.034 168.418 6.35
    endloop
  endfacet
  facet normal 0 0 1
    outer loop
      vertex -275 163.85 6.35
      vertex -272.034 168.418 6.35
      vertex -272.5 168.18 6.35
    endloop
  endfacet
  facet normal 0 0 1
    outer loop
      vertex -275 163.85 6.35
      vertex -272.5 168.18 6.35
      vertex -272.939 167.895 6.35
    endloop
  endfacet
  facet normal 0 0 1
    outer loop
      vertex -275 163.85 6.35
      vertex -272.939 167.895 6.35
      vertex -273.346 167.566 6.35
    endloop
  endfacet
  facet normal 0 0 1
    outer loop
      vertex -275 163.85 6.35
      vertex -273.346 167.566 6.35
      vertex -273.716 167.196 6.35
    endloop
  endfacet
  facet normal 0 0 1
    outer loop
      vertex -275 163.85 6.35
      vertex -273.716 167.196 6.35
      vertex -274.045 166.789 6.35
    endloop
  endfacet
  facet normal 0 0 1
    outer loop
      vertex -275 163.85 6.35
      vertex -274.045 166.789 6.35
      vertex -274.33 166.35 6.35
    endloop
  endfacet
  facet normal 0 0 1
    outer loop
      vertex -275 163.85 6.35
      vertex -274.33 166.35 6.35
      vertex -274.568 165.884 6.35
    endloop
  endfacet
  facet normal 0 0 1
    outer loop
      vertex -275 163.85 6.35
      vertex -274.568 165.884 6.35
      vertex -274.755 165.395 6.35
    endloop
  endfacet
  facet normal 0 0 1
    outer loop
      vertex -275 163.85 6.35
      vertex -274.755 165.395 6.35
      vertex -274.891 164.89 6.35
    endloop
  endfacet
  facet normal 0 0 1
    outer loop
      vertex -275 163.85 6.35
      vertex -274.891 164.89 6.35
      vertex -274.973 164.373 6.35
    endloop
  endfacet
  facet normal 0 0 1
    outer loop
      vertex -270 168.85 6.35
      vertex -275 163.85 6.35
      vertex -275 -206.225 6.35
    endloop
  endfacet
  facet normal 0 0 1
    outer loop
      vertex -270 168.85 6.35
      vertex -275 -206.225 6.35
      vertex 275 -206.225 6.35
    endloop
  endfacet
  facet normal 0 0 -1
    outer loop
      vertex 270 168.85 0
      vertex 275 163.85 0
      vertex 275 -206.225 0
    endloop
  endfacet
  facet normal 0 0 -1
    outer loop
      vertex 275 163.85 0
      vertex 270 168.85 0
      vertex 274.973 164.373 0
    endloop
  endfacet
  facet normal 0 0 -1
    outer loop
      vertex 274.973 164.373 0
      vertex 270 168.85 0
      vertex 274.891 164.89 0
    endloop
  endfacet
  facet normal 0 0 -1
    outer loop
      vertex 274.891 164.89 0
      vertex 270 168.85 0
      vertex 274.755 165.395 0
    endloop
  endfacet
  facet normal 0 0 -1
    outer loop
      vertex 274.755 165.395 0
      vertex 270 168.85 0
      vertex 274.568 165.884 0
    endloop
  endfacet
  facet normal 0 0 -1
    outer loop
      vertex 274.568 165.884 0
      vertex 270 168.85 0
      vertex 274.33 166.35 0
    endloop
  endfacet
  facet normal 0 0 -1
    outer loop
      vertex 274.33 166.35 0
      vertex 270 168.85 0
      vertex 274.045 166.789 0
    endloop
  endfacet
  facet normal 0 0 -1
    outer loop
      vertex 274.045 166.789 0
      vertex 270 168.85 0
      vertex 273.716 167.196 0
    endloop
  endfacet
  facet normal 0 0 -1
    outer loop
      vertex 273.716 167.196 0
      vertex 270 168.85 0
      vertex 273.346 167.566 0
    endloop
  endfacet
  facet normal 0 0 -1
    outer loop
      vertex 273.346 167.566 0
      vertex 270 168.85 0
      vertex 272.939 167.895 0
    endloop
  endfacet
  facet normal 0 0 -1
    outer loop
      vertex 272.939 167.895 0
      vertex 270 168.85 0
      vertex 272.5 168.18 0
    endloop
  endfacet
  facet normal 0 0 -1
    outer loop
      vertex 272.5 168.18 0
      vertex 270 168.85 0
      vertex 272.034 168.418 0
    endloop
  endfacet
  facet normal 0 0 -1
    outer loop
      vertex 272.034 168.418 0
      vertex 270 168.85 0
      vertex 271.545 168.605 0
    endloop
  endfacet
  facet normal 0 0 -1
    outer loop
      vertex 271.545 168.605 0
      vertex 270 168.85 0
      vertex 271.04 168.741 0
    endloop
  endfacet
  facet normal 0 0 -1
    outer loop
      vertex 271.04 168.741 0
      vertex 270 168.85 0
      vertex 270.523 168.823 0
    endloop
  endfacet
  facet normal 0 0 -1
    outer loop
      vertex 275 -206.225 0
      vertex -270 168.85 0
      vertex 270 168.85 0
    endloop
  endfacet
  facet normal 0 0 -1
    outer loop
      vertex -275 -206.225 0
      vertex -270 168.85 0
      vertex 275 -206.225 0
    endloop
  endfacet
  facet normal 0 0 -1
    outer loop
      vertex -275 163.85 0
      vertex -270 168.85 0
      vertex -275 -206.225 0
    endloop
  endfacet
  facet normal 0 0 -1
    outer loop
      vertex -270 168.85 0
      vertex -275 163.85 0
      vertex -270.523 168.823 0
    endloop
  endfacet
  facet normal 0 0 -1
    outer loop
      vertex -270.523 168.823 0
      vertex -275 163.85 0
      vertex -271.04 168.741 0
    endloop
  endfacet
  facet normal 0 0 -1
    outer loop
      vertex -271.545 168.605 0
      vertex -275 163.85 0
      vertex -272.034 168.418 0
    endloop
  endfacet
  facet normal 0 0 -1
    outer loop
      vertex -272.034 168.418 0
      vertex -275 163.85 0
      vertex -272.5 168.18 0
    endloop
  endfacet
  facet normal 0 0 -1
    outer loop
      vertex -272.5 168.18 0
      vertex -275 163.85 0
      vertex -272.939 167.895 0
    endloop
  endfacet
  facet normal 0 0 -1
    outer loop
      vertex -272.939 167.895 0
      vertex -275 163.85 0
      vertex -273.346 167.566 0
    endloop
  endfacet
  facet normal 0 0 -1
    outer loop
      vertex -273.346 167.566 0
      vertex -275 163.85 0
      vertex -273.716 167.196 0
    endloop
  endfacet
  facet normal 0 0 -1
    outer loop
      vertex -273.716 167.196 0
      vertex -275 163.85 0
      vertex -274.045 166.789 0
    endloop
  endfacet
  facet normal 0 0 -1
    outer loop
      vertex -274.045 166.789 0
      vertex -275 163.85 0
      vertex -274.33 166.35 0
    endloop
  endfacet
  facet normal 0 0 -1
    outer loop
      vertex -274.33 166.35 0
      vertex -275 163.85 0
      vertex -274.568 165.884 0
    endloop
  endfacet
  facet normal 0 0 -1
    outer loop
      vertex -274.568 165.884 0
      vertex -275 163.85 0
      vertex -274.755 165.395 0
    endloop
  endfacet
  facet normal 0 0 -1
    outer loop
      vertex -274.755 165.395 0
      vertex -275 163.85 0
      vertex -274.891 164.89 0
    endloop
  endfacet
  facet normal 0 0 -1
    outer loop
      vertex -271.04 168.741 0
      vertex -275 163.85 0
      vertex -271.545 168.605 0
    endloop
  endfacet
  facet normal 0 0 -1
    outer loop
      vertex -274.891 164.89 0
      vertex -275 163.85 0
      vertex -274.973 164.373 0
    endloop
  endfacet
  facet normal -0.0515566 0.99867 0
    outer loop
      vertex -270 168.85 0
      vertex -270.523 168.823 6.35
      vertex -270 168.85 6.35
    endloop
  endfacet
  facet normal -0.0515566 0.99867 0
    outer loop
      vertex -270.523 168.823 6.35
      vertex -270 168.85 0
      vertex -270.523 168.823 0
    endloop
  endfacet
  facet normal 0.0515566 0.99867 -0
    outer loop
      vertex 270.523 168.823 0
      vertex 270 168.85 6.35
      vertex 270.523 168.823 6.35
    endloop
  endfacet
  facet normal 0.0515566 0.99867 0
    outer loop
      vertex 270 168.85 6.35
      vertex 270.523 168.823 0
      vertex 270 168.85 0
    endloop
  endfacet
  facet normal -0.628648 0.77769 0
    outer loop
      vertex -272.939 167.895 0
      vertex -273.346 167.566 6.35
      vertex -272.939 167.895 6.35
    endloop
  endfacet
  facet normal -0.628648 0.77769 0
    outer loop
      vertex -273.346 167.566 6.35
      vertex -272.939 167.895 0
      vertex -273.346 167.566 0
    endloop
  endfacet
  facet normal 0 1 -0
    outer loop
      vertex 270 168.85 0
      vertex -270 168.85 6.35
      vertex 270 168.85 6.35
    endloop
  endfacet
  facet normal 0 1 0
    outer loop
      vertex -270 168.85 6.35
      vertex 270 168.85 0
      vertex -270 168.85 0
    endloop
  endfacet
  facet normal -1 0 0
    outer loop
      vertex -275 -206.225 0
      vertex -275 163.85 6.35
      vertex -275 163.85 0
    endloop
  endfacet
  facet normal -1 -0 0
    outer loop
      vertex -275 163.85 6.35
      vertex -275 -206.225 0
      vertex -275 -206.225 6.35
    endloop
  endfacet
  facet normal 1 -0 0
    outer loop
      vertex 275 -206.225 6.35
      vertex 275 163.85 0
      vertex 275 163.85 6.35
    endloop
  endfacet
  facet normal 1 0 0
    outer loop
      vertex 275 163.85 0
      vertex 275 -206.225 6.35
      vertex 275 -206.225 0
    endloop
  endfacet
  facet normal 0.628648 0.77769 -0
    outer loop
      vertex 273.346 167.566 0
      vertex 272.939 167.895 6.35
      vertex 273.346 167.566 6.35
    endloop
  endfacet
  facet normal 0.628648 0.77769 0
    outer loop
      vertex 272.939 167.895 6.35
      vertex 273.346 167.566 0
      vertex 272.939 167.895 0
    endloop
  endfacet
  facet normal 0.357186 0.934033 -0
    outer loop
      vertex 272.034 168.418 0
      vertex 271.545 168.605 6.35
      vertex 272.034 168.418 6.35
    endloop
  endfacet
  facet normal 0.357186 0.934033 0
    outer loop
      vertex 271.545 168.605 6.35
      vertex 272.034 168.418 0
      vertex 271.545 168.605 0
    endloop
  endfacet
  facet normal -0.965597 0.260042 0
    outer loop
      vertex -274.891 164.89 0
      vertex -274.755 165.395 6.35
      vertex -274.755 165.395 0
    endloop
  endfacet
  facet normal -0.965597 0.260042 0
    outer loop
      vertex -274.755 165.395 6.35
      vertex -274.891 164.89 0
      vertex -274.891 164.89 6.35
    endloop
  endfacet
  facet normal 0.260042 0.965597 -0
    outer loop
      vertex 271.545 168.605 0
      vertex 271.04 168.741 6.35
      vertex 271.545 168.605 6.35
    endloop
  endfacet
  facet normal 0.260042 0.965597 0
    outer loop
      vertex 271.04 168.741 6.35
      vertex 271.545 168.605 0
      vertex 271.04 168.741 0
    endloop
  endfacet
  facet normal -0.544518 0.838749 0
    outer loop
      vertex -272.5 168.18 0
      vertex -272.939 167.895 6.35
      vertex -272.5 168.18 6.35
    endloop
  endfacet
  facet normal -0.544518 0.838749 0
    outer loop
      vertex -272.939 167.895 6.35
      vertex -272.5 168.18 0
      vertex -272.939 167.895 0
    endloop
  endfacet
  facet normal -0.357186 0.934033 0
    outer loop
      vertex -271.545 168.605 0
      vertex -272.034 168.418 6.35
      vertex -271.545 168.605 6.35
    endloop
  endfacet
  facet normal -0.357186 0.934033 0
    outer loop
      vertex -272.034 168.418 6.35
      vertex -271.545 168.605 0
      vertex -272.034 168.418 0
    endloop
  endfacet
  facet normal -0.99867 0.0515566 0
    outer loop
      vertex -275 163.85 0
      vertex -274.973 164.373 6.35
      vertex -274.973 164.373 0
    endloop
  endfacet
  facet normal -0.99867 0.0515566 0
    outer loop
      vertex -274.973 164.373 6.35
      vertex -275 163.85 0
      vertex -275 163.85 6.35
    endloop
  endfacet
  facet normal -0.934033 0.357186 0
    outer loop
      vertex -274.755 165.395 0
      vertex -274.568 165.884 6.35
      vertex -274.568 165.884 0
    endloop
  endfacet
  facet normal -0.934033 0.357186 0
    outer loop
      vertex -274.568 165.884 6.35
      vertex -274.755 165.395 0
      vertex -274.755 165.395 6.35
    endloop
  endfacet
  facet normal -0.987654 0.156649 0
    outer loop
      vertex -274.973 164.373 0
      vertex -274.891 164.89 6.35
      vertex -274.891 164.89 0
    endloop
  endfacet
  facet normal -0.987654 0.156649 0
    outer loop
      vertex -274.891 164.89 6.35
      vertex -274.973 164.373 0
      vertex -274.973 164.373 6.35
    endloop
  endfacet
  facet normal 0.156649 0.987654 -0
    outer loop
      vertex 271.04 168.741 0
      vertex 270.523 168.823 6.35
      vertex 271.04 168.741 6.35
    endloop
  endfacet
  facet normal 0.156649 0.987654 0
    outer loop
      vertex 270.523 168.823 6.35
      vertex 271.04 168.741 0
      vertex 270.523 168.823 0
    endloop
  endfacet
  facet normal 0.454842 0.890572 -0
    outer loop
      vertex 272.5 168.18 0
      vertex 272.034 168.418 6.35
      vertex 272.5 168.18 6.35
    endloop
  endfacet
  facet normal 0.454842 0.890572 0
    outer loop
      vertex 272.034 168.418 6.35
      vertex 272.5 168.18 0
      vertex 272.034 168.418 0
    endloop
  endfacet
  facet normal 0.544518 0.838749 -0
    outer loop
      vertex 272.939 167.895 0
      vertex 272.5 168.18 6.35
      vertex 272.939 167.895 6.35
    endloop
  endfacet
  facet normal 0.544518 0.838749 0
    outer loop
      vertex 272.5 168.18 6.35
      vertex 272.939 167.895 0
      vertex 272.5 168.18 0
    endloop
  endfacet
  facet normal -0.454842 0.890572 0
    outer loop
      vertex -272.034 168.418 0
      vertex -272.5 168.18 6.35
      vertex -272.034 168.418 6.35
    endloop
  endfacet
  facet normal -0.454842 0.890572 0
    outer loop
      vertex -272.5 168.18 6.35
      vertex -272.034 168.418 0
      vertex -272.5 168.18 0
    endloop
  endfacet
  facet normal -0.890572 0.454842 0
    outer loop
      vertex -274.568 165.884 0
      vertex -274.33 166.35 6.35
      vertex -274.33 166.35 0
    endloop
  endfacet
  facet normal -0.890572 0.454842 0
    outer loop
      vertex -274.33 166.35 6.35
      vertex -274.568 165.884 0
      vertex -274.568 165.884 6.35
    endloop
  endfacet
  facet normal 0.890572 0.454842 0
    outer loop
      vertex 274.568 165.884 6.35
      vertex 274.33 166.35 0
      vertex 274.33 166.35 6.35
    endloop
  endfacet
  facet normal 0.890572 0.454842 0
    outer loop
      vertex 274.33 166.35 0
      vertex 274.568 165.884 6.35
      vertex 274.568 165.884 0
    endloop
  endfacet
  facet normal 0.965597 0.260042 0
    outer loop
      vertex 274.891 164.89 6.35
      vertex 274.755 165.395 0
      vertex 274.755 165.395 6.35
    endloop
  endfacet
  facet normal 0.965597 0.260042 0
    outer loop
      vertex 274.755 165.395 0
      vertex 274.891 164.89 6.35
      vertex 274.891 164.89 0
    endloop
  endfacet
  facet normal 0.934033 0.357186 0
    outer loop
      vertex 274.755 165.395 6.35
      vertex 274.568 165.884 0
      vertex 274.568 165.884 6.35
    endloop
  endfacet
  facet normal 0.934033 0.357186 0
    outer loop
      vertex 274.568 165.884 0
      vertex 274.755 165.395 6.35
      vertex 274.755 165.395 0
    endloop
  endfacet
  facet normal -0.707107 0.707107 0
    outer loop
      vertex -273.346 167.566 0
      vertex -273.716 167.196 6.35
      vertex -273.346 167.566 6.35
    endloop
  endfacet
  facet normal -0.707107 0.707107 0
    outer loop
      vertex -273.716 167.196 6.35
      vertex -273.346 167.566 0
      vertex -273.716 167.196 0
    endloop
  endfacet
  facet normal -0.77769 0.628648 0
    outer loop
      vertex -274.045 166.789 0
      vertex -273.716 167.196 6.35
      vertex -273.716 167.196 0
    endloop
  endfacet
  facet normal -0.77769 0.628648 0
    outer loop
      vertex -273.716 167.196 6.35
      vertex -274.045 166.789 0
      vertex -274.045 166.789 6.35
    endloop
  endfacet
  facet normal 0.707107 0.707107 -0
    outer loop
      vertex 273.716 167.196 0
      vertex 273.346 167.566 6.35
      vertex 273.716 167.196 6.35
    endloop
  endfacet
  facet normal 0.707107 0.707107 0
    outer loop
      vertex 273.346 167.566 6.35
      vertex 273.716 167.196 0
      vertex 273.346 167.566 0
    endloop
  endfacet
  facet normal 0.77769 0.628648 0
    outer loop
      vertex 274.045 166.789 6.35
      vertex 273.716 167.196 0
      vertex 273.716 167.196 6.35
    endloop
  endfacet
  facet normal 0.77769 0.628648 0
    outer loop
      vertex 273.716 167.196 0
      vertex 274.045 166.789 6.35
      vertex 274.045 166.789 0
    endloop
  endfacet
  facet normal 0.838749 0.544518 0
    outer loop
      vertex 274.33 166.35 6.35
      vertex 274.045 166.789 0
      vertex 274.045 166.789 6.35
    endloop
  endfacet
  facet normal 0.838749 0.544518 0
    outer loop
      vertex 274.045 166.789 0
      vertex 274.33 166.35 6.35
      vertex 274.33 166.35 0
    endloop
  endfacet
  facet normal 0.987654 0.156649 0
    outer loop
      vertex 274.973 164.373 6.35
      vertex 274.891 164.89 0
      vertex 274.891 164.89 6.35
    endloop
  endfacet
  facet normal 0.987654 0.156649 0
    outer loop
      vertex 274.891 164.89 0
      vertex 274.973 164.373 6.35
      vertex 274.973 164.373 0
    endloop
  endfacet
  facet normal 0.99867 0.0515566 0
    outer loop
      vertex 275 163.85 6.35
      vertex 274.973 164.373 0
      vertex 274.973 164.373 6.35
    endloop
  endfacet
  facet normal 0.99867 0.0515566 0
    outer loop
      vertex 274.973 164.373 0
      vertex 275 163.85 6.35
      vertex 275 163.85 0
    endloop
  endfacet
  facet normal -0.838749 0.544518 0
    outer loop
      vertex -274.33 166.35 0
      vertex -274.045 166.789 6.35
      vertex -274.045 166.789 0
    endloop
  endfacet
  facet normal -0.838749 0.544518 0
    outer loop
      vertex -274.045 166.789 6.35
      vertex -274.33 166.35 0
      vertex -274.33 166.35 6.35
    endloop
  endfacet
  facet normal -0.260042 0.965597 0
    outer loop
      vertex -271.04 168.741 0
      vertex -271.545 168.605 6.35
      vertex -271.04 168.741 6.35
    endloop
  endfacet
  facet normal -0.260042 0.965597 0
    outer loop
      vertex -271.545 168.605 6.35
      vertex -271.04 168.741 0
      vertex -271.545 168.605 0
    endloop
  endfacet
  facet normal -0.156649 0.987654 0
    outer loop
      vertex -270.523 168.823 0
      vertex -271.04 168.741 6.35
      vertex -270.523 168.823 6.35
    endloop
  endfacet
  facet normal -0.156649 0.987654 0
    outer loop
      vertex -271.04 168.741 6.35
      vertex -270.523 168.823 0
      vertex -271.04 168.741 0
    endloop
  endfacet
endsolid OpenSCAD_Model
