  0
SECTION
  2
BLOCKS
  0
ENDSEC
  0
SECTION
  2
ENTITIES
  0
LINE
  8
0
 10
285.398
 20
-103.548
 11
285.915
 21
-103.466
  0
LINE
  8
0
 10
285.915
 20
-103.466
 11
286.42
 21
-103.33
  0
LINE
  8
0
 10
286.42
 20
-103.33
 11
286.909
 21
-103.143
  0
LINE
  8
0
 10
286.909
 20
-103.143
 11
287.375
 21
-102.905
  0
LINE
  8
0
 10
287.375
 20
-102.905
 11
287.814
 21
-102.62
  0
LINE
  8
0
 10
287.814
 20
-102.62
 11
288.221
 21
-102.291
  0
LINE
  8
0
 10
288.221
 20
-102.291
 11
288.591
 21
-101.921
  0
LINE
  8
0
 10
288.591
 20
-101.921
 11
288.92
 21
-101.514
  0
LINE
  8
0
 10
288.92
 20
-101.514
 11
289.205
 21
-101.075
  0
LINE
  8
0
 10
289.205
 20
-101.075
 11
289.443
 21
-100.609
  0
LINE
  8
0
 10
289.443
 20
-100.609
 11
289.63
 21
-100.12
  0
LINE
  8
0
 10
289.63
 20
-100.12
 11
289.766
 21
-99.6146
  0
LINE
  8
0
 10
289.766
 20
-99.6146
 11
289.848
 21
-99.0976
  0
LINE
  8
0
 10
289.848
 20
-99.0976
 11
289.875
 21
-98.575
  0
LINE
  8
0
 10
289.875
 20
-98.575
 11
289.875
 21
98.575
  0
LINE
  8
0
 10
289.875
 20
98.575
 11
289.848
 21
99.0976
  0
LINE
  8
0
 10
289.848
 20
99.0976
 11
289.766
 21
99.6146
  0
LINE
  8
0
 10
289.766
 20
99.6146
 11
289.63
 21
100.12
  0
LINE
  8
0
 10
289.63
 20
100.12
 11
289.443
 21
100.609
  0
LINE
  8
0
 10
289.443
 20
100.609
 11
289.205
 21
101.075
  0
LINE
  8
0
 10
289.205
 20
101.075
 11
288.92
 21
101.514
  0
LINE
  8
0
 10
288.92
 20
101.514
 11
288.591
 21
101.921
  0
LINE
  8
0
 10
288.591
 20
101.921
 11
288.221
 21
102.291
  0
LINE
  8
0
 10
288.221
 20
102.291
 11
287.814
 21
102.62
  0
LINE
  8
0
 10
287.814
 20
102.62
 11
287.375
 21
102.905
  0
LINE
  8
0
 10
287.375
 20
102.905
 11
286.909
 21
103.143
  0
LINE
  8
0
 10
286.909
 20
103.143
 11
286.42
 21
103.33
  0
LINE
  8
0
 10
286.42
 20
103.33
 11
285.915
 21
103.466
  0
LINE
  8
0
 10
285.915
 20
103.466
 11
285.398
 21
103.548
  0
LINE
  8
0
 10
285.398
 20
103.548
 11
284.875
 21
103.575
  0
LINE
  8
0
 10
284.875
 20
103.575
 11
-284.875
 21
103.575
  0
LINE
  8
0
 10
-284.875
 20
103.575
 11
-285.398
 21
103.548
  0
LINE
  8
0
 10
-285.398
 20
103.548
 11
-285.915
 21
103.466
  0
LINE
  8
0
 10
-285.915
 20
103.466
 11
-286.42
 21
103.33
  0
LINE
  8
0
 10
-286.42
 20
103.33
 11
-286.909
 21
103.143
  0
LINE
  8
0
 10
-286.909
 20
103.143
 11
-287.375
 21
102.905
  0
LINE
  8
0
 10
-287.375
 20
102.905
 11
-287.814
 21
102.62
  0
LINE
  8
0
 10
-287.814
 20
102.62
 11
-288.221
 21
102.291
  0
LINE
  8
0
 10
-288.221
 20
102.291
 11
-288.591
 21
101.921
  0
LINE
  8
0
 10
-288.591
 20
101.921
 11
-288.92
 21
101.514
  0
LINE
  8
0
 10
-288.92
 20
101.514
 11
-289.205
 21
101.075
  0
LINE
  8
0
 10
-289.205
 20
101.075
 11
-289.443
 21
100.609
  0
LINE
  8
0
 10
-289.443
 20
100.609
 11
-289.63
 21
100.12
  0
LINE
  8
0
 10
-289.63
 20
100.12
 11
-289.766
 21
99.6146
  0
LINE
  8
0
 10
-289.766
 20
99.6146
 11
-289.848
 21
99.0976
  0
LINE
  8
0
 10
-289.848
 20
99.0976
 11
-289.875
 21
98.575
  0
LINE
  8
0
 10
-289.875
 20
98.575
 11
-289.875
 21
-98.575
  0
LINE
  8
0
 10
-289.875
 20
-98.575
 11
-289.848
 21
-99.0976
  0
LINE
  8
0
 10
-289.848
 20
-99.0976
 11
-289.766
 21
-99.6146
  0
LINE
  8
0
 10
-289.766
 20
-99.6146
 11
-289.63
 21
-100.12
  0
LINE
  8
0
 10
-289.63
 20
-100.12
 11
-289.443
 21
-100.609
  0
LINE
  8
0
 10
-289.443
 20
-100.609
 11
-289.205
 21
-101.075
  0
LINE
  8
0
 10
-289.205
 20
-101.075
 11
-288.92
 21
-101.514
  0
LINE
  8
0
 10
-288.92
 20
-101.514
 11
-288.591
 21
-101.921
  0
LINE
  8
0
 10
-288.591
 20
-101.921
 11
-288.221
 21
-102.291
  0
LINE
  8
0
 10
-288.221
 20
-102.291
 11
-287.814
 21
-102.62
  0
LINE
  8
0
 10
-287.814
 20
-102.62
 11
-287.375
 21
-102.905
  0
LINE
  8
0
 10
-287.375
 20
-102.905
 11
-286.909
 21
-103.143
  0
LINE
  8
0
 10
-286.909
 20
-103.143
 11
-286.42
 21
-103.33
  0
LINE
  8
0
 10
-286.42
 20
-103.33
 11
-285.915
 21
-103.466
  0
LINE
  8
0
 10
-285.915
 20
-103.466
 11
-285.398
 21
-103.548
  0
LINE
  8
0
 10
-285.398
 20
-103.548
 11
-284.875
 21
-103.575
  0
LINE
  8
0
 10
-284.875
 20
-103.575
 11
284.875
 21
-103.575
  0
LINE
  8
0
 10
284.875
 20
-103.575
 11
285.398
 21
-103.548
  0
LINE
  8
0
 10
282.108
 20
92.4705
 11
281.72
 21
92.5319
  0
LINE
  8
0
 10
281.72
 20
92.5319
 11
281.341
 21
92.6335
  0
LINE
  8
0
 10
281.341
 20
92.6335
 11
280.975
 21
92.7742
  0
LINE
  8
0
 10
280.975
 20
92.7742
 11
280.625
 21
92.9524
  0
LINE
  8
0
 10
280.625
 20
92.9524
 11
280.296
 21
93.1662
  0
LINE
  8
0
 10
280.296
 20
93.1662
 11
279.991
 21
93.4132
  0
LINE
  8
0
 10
279.991
 20
93.4132
 11
279.713
 21
93.6908
  0
LINE
  8
0
 10
279.713
 20
93.6908
 11
279.466
 21
93.9958
  0
LINE
  8
0
 10
279.466
 20
93.9958
 11
279.252
 21
94.325
  0
LINE
  8
0
 10
279.252
 20
94.325
 11
279.074
 21
94.6747
  0
LINE
  8
0
 10
279.074
 20
94.6747
 11
278.934
 21
95.0412
  0
LINE
  8
0
 10
278.934
 20
95.0412
 11
278.832
 21
95.4203
  0
LINE
  8
0
 10
278.832
 20
95.4203
 11
278.771
 21
95.808
  0
LINE
  8
0
 10
278.771
 20
95.808
 11
278.75
 21
96.2
  0
LINE
  8
0
 10
278.75
 20
96.2
 11
278.771
 21
96.592
  0
LINE
  8
0
 10
278.771
 20
96.592
 11
278.832
 21
96.9797
  0
LINE
  8
0
 10
278.832
 20
96.9797
 11
278.934
 21
97.3588
  0
LINE
  8
0
 10
278.934
 20
97.3588
 11
279.074
 21
97.7253
  0
LINE
  8
0
 10
279.074
 20
97.7253
 11
279.252
 21
98.075
  0
LINE
  8
0
 10
279.252
 20
98.075
 11
279.466
 21
98.4042
  0
LINE
  8
0
 10
279.466
 20
98.4042
 11
279.713
 21
98.7092
  0
LINE
  8
0
 10
279.713
 20
98.7092
 11
279.991
 21
98.9868
  0
LINE
  8
0
 10
279.991
 20
98.9868
 11
280.296
 21
99.2338
  0
LINE
  8
0
 10
280.296
 20
99.2338
 11
280.625
 21
99.4476
  0
LINE
  8
0
 10
280.625
 20
99.4476
 11
280.975
 21
99.6258
  0
LINE
  8
0
 10
280.975
 20
99.6258
 11
281.341
 21
99.7665
  0
LINE
  8
0
 10
281.341
 20
99.7665
 11
281.72
 21
99.8681
  0
LINE
  8
0
 10
281.72
 20
99.8681
 11
282.108
 21
99.9295
  0
LINE
  8
0
 10
282.108
 20
99.9295
 11
282.5
 21
99.95
  0
LINE
  8
0
 10
282.5
 20
99.95
 11
282.892
 21
99.9295
  0
LINE
  8
0
 10
282.892
 20
99.9295
 11
283.28
 21
99.8681
  0
LINE
  8
0
 10
283.28
 20
99.8681
 11
283.659
 21
99.7665
  0
LINE
  8
0
 10
283.659
 20
99.7665
 11
284.025
 21
99.6258
  0
LINE
  8
0
 10
284.025
 20
99.6258
 11
284.375
 21
99.4476
  0
LINE
  8
0
 10
284.375
 20
99.4476
 11
284.704
 21
99.2338
  0
LINE
  8
0
 10
284.704
 20
99.2338
 11
285.009
 21
98.9868
  0
LINE
  8
0
 10
285.009
 20
98.9868
 11
285.287
 21
98.7092
  0
LINE
  8
0
 10
285.287
 20
98.7092
 11
285.534
 21
98.4042
  0
LINE
  8
0
 10
285.534
 20
98.4042
 11
285.748
 21
98.075
  0
LINE
  8
0
 10
285.748
 20
98.075
 11
285.926
 21
97.7253
  0
LINE
  8
0
 10
285.926
 20
97.7253
 11
286.066
 21
97.3588
  0
LINE
  8
0
 10
286.066
 20
97.3588
 11
286.168
 21
96.9797
  0
LINE
  8
0
 10
286.168
 20
96.9797
 11
286.229
 21
96.592
  0
LINE
  8
0
 10
286.229
 20
96.592
 11
286.25
 21
96.2
  0
LINE
  8
0
 10
286.25
 20
96.2
 11
286.229
 21
95.808
  0
LINE
  8
0
 10
286.229
 20
95.808
 11
286.168
 21
95.4203
  0
LINE
  8
0
 10
286.168
 20
95.4203
 11
286.066
 21
95.0412
  0
LINE
  8
0
 10
286.066
 20
95.0412
 11
285.926
 21
94.6747
  0
LINE
  8
0
 10
285.926
 20
94.6747
 11
285.748
 21
94.325
  0
LINE
  8
0
 10
285.748
 20
94.325
 11
285.534
 21
93.9958
  0
LINE
  8
0
 10
285.534
 20
93.9958
 11
285.287
 21
93.6908
  0
LINE
  8
0
 10
285.287
 20
93.6908
 11
285.009
 21
93.4132
  0
LINE
  8
0
 10
285.009
 20
93.4132
 11
284.704
 21
93.1662
  0
LINE
  8
0
 10
284.704
 20
93.1662
 11
284.375
 21
92.9524
  0
LINE
  8
0
 10
284.375
 20
92.9524
 11
284.025
 21
92.7742
  0
LINE
  8
0
 10
284.025
 20
92.7742
 11
283.659
 21
92.6335
  0
LINE
  8
0
 10
283.659
 20
92.6335
 11
283.28
 21
92.5319
  0
LINE
  8
0
 10
283.28
 20
92.5319
 11
282.892
 21
92.4705
  0
LINE
  8
0
 10
282.892
 20
92.4705
 11
282.5
 21
92.45
  0
LINE
  8
0
 10
282.5
 20
92.45
 11
282.108
 21
92.4705
  0
LINE
  8
0
 10
-261.577
 20
96.6863
 11
-261.487
 21
96.9159
  0
LINE
  8
0
 10
-261.487
 20
96.9159
 11
-261.363
 21
97.1295
  0
LINE
  8
0
 10
-261.363
 20
97.1295
 11
-261.21
 21
97.3223
  0
LINE
  8
0
 10
-261.21
 20
97.3223
 11
-261.029
 21
97.49
  0
LINE
  8
0
 10
-261.029
 20
97.49
 11
-260.825
 21
97.6289
  0
LINE
  8
0
 10
-260.825
 20
97.6289
 11
-260.603
 21
97.7359
  0
LINE
  8
0
 10
-260.603
 20
97.7359
 11
-260.367
 21
97.8086
  0
LINE
  8
0
 10
-260.367
 20
97.8086
 11
-260.123
 21
97.8454
  0
LINE
  8
0
 10
-260.123
 20
97.8454
 11
-219.877
 21
97.8454
  0
LINE
  8
0
 10
-219.877
 20
97.8454
 11
-219.633
 21
97.8086
  0
LINE
  8
0
 10
-219.633
 20
97.8086
 11
-219.397
 21
97.7359
  0
LINE
  8
0
 10
-219.397
 20
97.7359
 11
-219.175
 21
97.6289
  0
LINE
  8
0
 10
-219.175
 20
97.6289
 11
-218.971
 21
97.49
  0
LINE
  8
0
 10
-218.971
 20
97.49
 11
-218.79
 21
97.3223
  0
LINE
  8
0
 10
-218.79
 20
97.3223
 11
-218.637
 21
97.1295
  0
LINE
  8
0
 10
-218.637
 20
97.1295
 11
-218.513
 21
96.9159
  0
LINE
  8
0
 10
-218.513
 20
96.9159
 11
-218.423
 21
96.6863
  0
LINE
  8
0
 10
-218.423
 20
96.6863
 11
-218.368
 21
96.4459
  0
LINE
  8
0
 10
-218.368
 20
96.4459
 11
-218.35
 21
96.2
  0
LINE
  8
0
 10
-218.35
 20
96.2
 11
-218.368
 21
95.9541
  0
LINE
  8
0
 10
-218.368
 20
95.9541
 11
-218.423
 21
95.7137
  0
LINE
  8
0
 10
-218.423
 20
95.7137
 11
-218.513
 21
95.4841
  0
LINE
  8
0
 10
-218.513
 20
95.4841
 11
-218.637
 21
95.2705
  0
LINE
  8
0
 10
-218.637
 20
95.2705
 11
-218.79
 21
95.0777
  0
LINE
  8
0
 10
-218.79
 20
95.0777
 11
-218.971
 21
94.91
  0
LINE
  8
0
 10
-218.971
 20
94.91
 11
-219.175
 21
94.7711
  0
LINE
  8
0
 10
-219.175
 20
94.7711
 11
-219.397
 21
94.664
  0
LINE
  8
0
 10
-219.397
 20
94.664
 11
-219.633
 21
94.5914
  0
LINE
  8
0
 10
-219.633
 20
94.5914
 11
-219.877
 21
94.5546
  0
LINE
  8
0
 10
-219.877
 20
94.5546
 11
-260.123
 21
94.5546
  0
LINE
  8
0
 10
-260.123
 20
94.5546
 11
-260.367
 21
94.5914
  0
LINE
  8
0
 10
-260.367
 20
94.5914
 11
-260.603
 21
94.664
  0
LINE
  8
0
 10
-260.603
 20
94.664
 11
-260.825
 21
94.7711
  0
LINE
  8
0
 10
-260.825
 20
94.7711
 11
-261.029
 21
94.91
  0
LINE
  8
0
 10
-261.029
 20
94.91
 11
-261.21
 21
95.0777
  0
LINE
  8
0
 10
-261.21
 20
95.0777
 11
-261.363
 21
95.2705
  0
LINE
  8
0
 10
-261.363
 20
95.2705
 11
-261.487
 21
95.4841
  0
LINE
  8
0
 10
-261.487
 20
95.4841
 11
-261.577
 21
95.7137
  0
LINE
  8
0
 10
-261.577
 20
95.7137
 11
-261.632
 21
95.9541
  0
LINE
  8
0
 10
-261.632
 20
95.9541
 11
-261.65
 21
96.2
  0
LINE
  8
0
 10
-261.65
 20
96.2
 11
-261.632
 21
96.4459
  0
LINE
  8
0
 10
-261.632
 20
96.4459
 11
-261.577
 21
96.6863
  0
LINE
  8
0
 10
-68.1233
 20
94.5546
 11
-68.3672
 21
94.5914
  0
LINE
  8
0
 10
-68.3672
 20
94.5914
 11
-68.6028
 21
94.664
  0
LINE
  8
0
 10
-68.6028
 20
94.664
 11
-68.825
 21
94.7711
  0
LINE
  8
0
 10
-68.825
 20
94.7711
 11
-69.0287
 21
94.91
  0
LINE
  8
0
 10
-69.0287
 20
94.91
 11
-69.2095
 21
95.0777
  0
LINE
  8
0
 10
-69.2095
 20
95.0777
 11
-69.3633
 21
95.2705
  0
LINE
  8
0
 10
-69.3633
 20
95.2705
 11
-69.4866
 21
95.4841
  0
LINE
  8
0
 10
-69.4866
 20
95.4841
 11
-69.5767
 21
95.7137
  0
LINE
  8
0
 10
-69.5767
 20
95.7137
 11
-69.6316
 21
95.9541
  0
LINE
  8
0
 10
-69.6316
 20
95.9541
 11
-69.65
 21
96.2
  0
LINE
  8
0
 10
-69.65
 20
96.2
 11
-69.6316
 21
96.4459
  0
LINE
  8
0
 10
-69.6316
 20
96.4459
 11
-69.5767
 21
96.6863
  0
LINE
  8
0
 10
-69.5767
 20
96.6863
 11
-69.4866
 21
96.9159
  0
LINE
  8
0
 10
-69.4866
 20
96.9159
 11
-69.3633
 21
97.1295
  0
LINE
  8
0
 10
-69.3633
 20
97.1295
 11
-69.2095
 21
97.3223
  0
LINE
  8
0
 10
-69.2095
 20
97.3223
 11
-69.0287
 21
97.49
  0
LINE
  8
0
 10
-69.0287
 20
97.49
 11
-68.825
 21
97.6289
  0
LINE
  8
0
 10
-68.825
 20
97.6289
 11
-68.6028
 21
97.7359
  0
LINE
  8
0
 10
-68.6028
 20
97.7359
 11
-68.3672
 21
97.8086
  0
LINE
  8
0
 10
-68.3672
 20
97.8086
 11
-68.1233
 21
97.8454
  0
LINE
  8
0
 10
-68.1233
 20
97.8454
 11
-27.8767
 21
97.8454
  0
LINE
  8
0
 10
-27.8767
 20
97.8454
 11
-27.6328
 21
97.8086
  0
LINE
  8
0
 10
-27.6328
 20
97.8086
 11
-27.3972
 21
97.7359
  0
LINE
  8
0
 10
-27.3972
 20
97.7359
 11
-27.175
 21
97.6289
  0
LINE
  8
0
 10
-27.175
 20
97.6289
 11
-26.9712
 21
97.49
  0
LINE
  8
0
 10
-26.9712
 20
97.49
 11
-26.7905
 21
97.3223
  0
LINE
  8
0
 10
-26.7905
 20
97.3223
 11
-26.6367
 21
97.1295
  0
LINE
  8
0
 10
-26.6367
 20
97.1295
 11
-26.5134
 21
96.9159
  0
LINE
  8
0
 10
-26.5134
 20
96.9159
 11
-26.4233
 21
96.6863
  0
LINE
  8
0
 10
-26.4233
 20
96.6863
 11
-26.3684
 21
96.4459
  0
LINE
  8
0
 10
-26.3684
 20
96.4459
 11
-26.35
 21
96.2
  0
LINE
  8
0
 10
-26.35
 20
96.2
 11
-26.3684
 21
95.9541
  0
LINE
  8
0
 10
-26.3684
 20
95.9541
 11
-26.4233
 21
95.7137
  0
LINE
  8
0
 10
-26.4233
 20
95.7137
 11
-26.5134
 21
95.4841
  0
LINE
  8
0
 10
-26.5134
 20
95.4841
 11
-26.6367
 21
95.2705
  0
LINE
  8
0
 10
-26.6367
 20
95.2705
 11
-26.7905
 21
95.0777
  0
LINE
  8
0
 10
-26.7905
 20
95.0777
 11
-26.9712
 21
94.91
  0
LINE
  8
0
 10
-26.9712
 20
94.91
 11
-27.175
 21
94.7711
  0
LINE
  8
0
 10
-27.175
 20
94.7711
 11
-27.3972
 21
94.664
  0
LINE
  8
0
 10
-27.3972
 20
94.664
 11
-27.6328
 21
94.5914
  0
LINE
  8
0
 10
-27.6328
 20
94.5914
 11
-27.8767
 21
94.5546
  0
LINE
  8
0
 10
-27.8767
 20
94.5546
 11
-68.1233
 21
94.5546
  0
LINE
  8
0
 10
123.877
 20
94.5546
 11
123.633
 21
94.5914
  0
LINE
  8
0
 10
123.633
 20
94.5914
 11
123.397
 21
94.664
  0
LINE
  8
0
 10
123.397
 20
94.664
 11
123.175
 21
94.7711
  0
LINE
  8
0
 10
123.175
 20
94.7711
 11
122.971
 21
94.91
  0
LINE
  8
0
 10
122.971
 20
94.91
 11
122.79
 21
95.0777
  0
LINE
  8
0
 10
122.79
 20
95.0777
 11
122.637
 21
95.2705
  0
LINE
  8
0
 10
122.637
 20
95.2705
 11
122.513
 21
95.4841
  0
LINE
  8
0
 10
122.513
 20
95.4841
 11
122.423
 21
95.7137
  0
LINE
  8
0
 10
122.423
 20
95.7137
 11
122.368
 21
95.9541
  0
LINE
  8
0
 10
122.368
 20
95.9541
 11
122.35
 21
96.2
  0
LINE
  8
0
 10
122.35
 20
96.2
 11
122.368
 21
96.4459
  0
LINE
  8
0
 10
122.368
 20
96.4459
 11
122.423
 21
96.6863
  0
LINE
  8
0
 10
122.423
 20
96.6863
 11
122.513
 21
96.9159
  0
LINE
  8
0
 10
122.513
 20
96.9159
 11
122.637
 21
97.1295
  0
LINE
  8
0
 10
122.637
 20
97.1295
 11
122.79
 21
97.3223
  0
LINE
  8
0
 10
122.79
 20
97.3223
 11
122.971
 21
97.49
  0
LINE
  8
0
 10
122.971
 20
97.49
 11
123.175
 21
97.6289
  0
LINE
  8
0
 10
123.175
 20
97.6289
 11
123.397
 21
97.7359
  0
LINE
  8
0
 10
123.397
 20
97.7359
 11
123.633
 21
97.8086
  0
LINE
  8
0
 10
123.633
 20
97.8086
 11
123.877
 21
97.8454
  0
LINE
  8
0
 10
123.877
 20
97.8454
 11
164.123
 21
97.8454
  0
LINE
  8
0
 10
164.123
 20
97.8454
 11
164.367
 21
97.8086
  0
LINE
  8
0
 10
164.367
 20
97.8086
 11
164.603
 21
97.7359
  0
LINE
  8
0
 10
164.603
 20
97.7359
 11
164.825
 21
97.6289
  0
LINE
  8
0
 10
164.825
 20
97.6289
 11
165.029
 21
97.49
  0
LINE
  8
0
 10
165.029
 20
97.49
 11
165.21
 21
97.3223
  0
LINE
  8
0
 10
165.21
 20
97.3223
 11
165.363
 21
97.1295
  0
LINE
  8
0
 10
165.363
 20
97.1295
 11
165.487
 21
96.9159
  0
LINE
  8
0
 10
165.487
 20
96.9159
 11
165.577
 21
96.6863
  0
LINE
  8
0
 10
165.577
 20
96.6863
 11
165.632
 21
96.4459
  0
LINE
  8
0
 10
165.632
 20
96.4459
 11
165.65
 21
96.2
  0
LINE
  8
0
 10
165.65
 20
96.2
 11
165.632
 21
95.9541
  0
LINE
  8
0
 10
165.632
 20
95.9541
 11
165.577
 21
95.7137
  0
LINE
  8
0
 10
165.577
 20
95.7137
 11
165.487
 21
95.4841
  0
LINE
  8
0
 10
165.487
 20
95.4841
 11
165.363
 21
95.2705
  0
LINE
  8
0
 10
165.363
 20
95.2705
 11
165.21
 21
95.0777
  0
LINE
  8
0
 10
165.21
 20
95.0777
 11
165.029
 21
94.91
  0
LINE
  8
0
 10
165.029
 20
94.91
 11
164.825
 21
94.7711
  0
LINE
  8
0
 10
164.825
 20
94.7711
 11
164.603
 21
94.664
  0
LINE
  8
0
 10
164.603
 20
94.664
 11
164.367
 21
94.5914
  0
LINE
  8
0
 10
164.367
 20
94.5914
 11
164.123
 21
94.5546
  0
LINE
  8
0
 10
164.123
 20
94.5546
 11
123.877
 21
94.5546
  0
LINE
  8
0
 10
-164.123
 20
94.5546
 11
-164.367
 21
94.5914
  0
LINE
  8
0
 10
-164.367
 20
94.5914
 11
-164.603
 21
94.664
  0
LINE
  8
0
 10
-164.603
 20
94.664
 11
-164.825
 21
94.7711
  0
LINE
  8
0
 10
-164.825
 20
94.7711
 11
-165.029
 21
94.91
  0
LINE
  8
0
 10
-165.029
 20
94.91
 11
-165.21
 21
95.0777
  0
LINE
  8
0
 10
-165.21
 20
95.0777
 11
-165.363
 21
95.2705
  0
LINE
  8
0
 10
-165.363
 20
95.2705
 11
-165.487
 21
95.4841
  0
LINE
  8
0
 10
-165.487
 20
95.4841
 11
-165.577
 21
95.7137
  0
LINE
  8
0
 10
-165.577
 20
95.7137
 11
-165.632
 21
95.9541
  0
LINE
  8
0
 10
-165.632
 20
95.9541
 11
-165.65
 21
96.2
  0
LINE
  8
0
 10
-165.65
 20
96.2
 11
-165.632
 21
96.4459
  0
LINE
  8
0
 10
-165.632
 20
96.4459
 11
-165.577
 21
96.6863
  0
LINE
  8
0
 10
-165.577
 20
96.6863
 11
-165.487
 21
96.9159
  0
LINE
  8
0
 10
-165.487
 20
96.9159
 11
-165.363
 21
97.1295
  0
LINE
  8
0
 10
-165.363
 20
97.1295
 11
-165.21
 21
97.3223
  0
LINE
  8
0
 10
-165.21
 20
97.3223
 11
-165.029
 21
97.49
  0
LINE
  8
0
 10
-165.029
 20
97.49
 11
-164.825
 21
97.6289
  0
LINE
  8
0
 10
-164.825
 20
97.6289
 11
-164.603
 21
97.7359
  0
LINE
  8
0
 10
-164.603
 20
97.7359
 11
-164.367
 21
97.8086
  0
LINE
  8
0
 10
-164.367
 20
97.8086
 11
-164.123
 21
97.8454
  0
LINE
  8
0
 10
-164.123
 20
97.8454
 11
-123.877
 21
97.8454
  0
LINE
  8
0
 10
-123.877
 20
97.8454
 11
-123.633
 21
97.8086
  0
LINE
  8
0
 10
-123.633
 20
97.8086
 11
-123.397
 21
97.7359
  0
LINE
  8
0
 10
-123.397
 20
97.7359
 11
-123.175
 21
97.6289
  0
LINE
  8
0
 10
-123.175
 20
97.6289
 11
-122.971
 21
97.49
  0
LINE
  8
0
 10
-122.971
 20
97.49
 11
-122.79
 21
97.3223
  0
LINE
  8
0
 10
-122.79
 20
97.3223
 11
-122.637
 21
97.1295
  0
LINE
  8
0
 10
-122.637
 20
97.1295
 11
-122.513
 21
96.9159
  0
LINE
  8
0
 10
-122.513
 20
96.9159
 11
-122.423
 21
96.6863
  0
LINE
  8
0
 10
-122.423
 20
96.6863
 11
-122.368
 21
96.4459
  0
LINE
  8
0
 10
-122.368
 20
96.4459
 11
-122.35
 21
96.2
  0
LINE
  8
0
 10
-122.35
 20
96.2
 11
-122.368
 21
95.9541
  0
LINE
  8
0
 10
-122.368
 20
95.9541
 11
-122.423
 21
95.7137
  0
LINE
  8
0
 10
-122.423
 20
95.7137
 11
-122.513
 21
95.4841
  0
LINE
  8
0
 10
-122.513
 20
95.4841
 11
-122.637
 21
95.2705
  0
LINE
  8
0
 10
-122.637
 20
95.2705
 11
-122.79
 21
95.0777
  0
LINE
  8
0
 10
-122.79
 20
95.0777
 11
-122.971
 21
94.91
  0
LINE
  8
0
 10
-122.971
 20
94.91
 11
-123.175
 21
94.7711
  0
LINE
  8
0
 10
-123.175
 20
94.7711
 11
-123.397
 21
94.664
  0
LINE
  8
0
 10
-123.397
 20
94.664
 11
-123.633
 21
94.5914
  0
LINE
  8
0
 10
-123.633
 20
94.5914
 11
-123.877
 21
94.5546
  0
LINE
  8
0
 10
-123.877
 20
94.5546
 11
-164.123
 21
94.5546
  0
LINE
  8
0
 10
219.877
 20
94.5546
 11
219.633
 21
94.5914
  0
LINE
  8
0
 10
219.633
 20
94.5914
 11
219.397
 21
94.664
  0
LINE
  8
0
 10
219.397
 20
94.664
 11
219.175
 21
94.7711
  0
LINE
  8
0
 10
219.175
 20
94.7711
 11
218.971
 21
94.91
  0
LINE
  8
0
 10
218.971
 20
94.91
 11
218.79
 21
95.0777
  0
LINE
  8
0
 10
218.79
 20
95.0777
 11
218.637
 21
95.2705
  0
LINE
  8
0
 10
218.637
 20
95.2705
 11
218.513
 21
95.4841
  0
LINE
  8
0
 10
218.513
 20
95.4841
 11
218.423
 21
95.7137
  0
LINE
  8
0
 10
218.423
 20
95.7137
 11
218.368
 21
95.9541
  0
LINE
  8
0
 10
218.368
 20
95.9541
 11
218.35
 21
96.2
  0
LINE
  8
0
 10
218.35
 20
96.2
 11
218.368
 21
96.4459
  0
LINE
  8
0
 10
218.368
 20
96.4459
 11
218.423
 21
96.6863
  0
LINE
  8
0
 10
218.423
 20
96.6863
 11
218.513
 21
96.9159
  0
LINE
  8
0
 10
218.513
 20
96.9159
 11
218.637
 21
97.1295
  0
LINE
  8
0
 10
218.637
 20
97.1295
 11
218.79
 21
97.3223
  0
LINE
  8
0
 10
218.79
 20
97.3223
 11
218.971
 21
97.49
  0
LINE
  8
0
 10
218.971
 20
97.49
 11
219.175
 21
97.6289
  0
LINE
  8
0
 10
219.175
 20
97.6289
 11
219.397
 21
97.7359
  0
LINE
  8
0
 10
219.397
 20
97.7359
 11
219.633
 21
97.8086
  0
LINE
  8
0
 10
219.633
 20
97.8086
 11
219.877
 21
97.8454
  0
LINE
  8
0
 10
219.877
 20
97.8454
 11
260.123
 21
97.8454
  0
LINE
  8
0
 10
260.123
 20
97.8454
 11
260.367
 21
97.8086
  0
LINE
  8
0
 10
260.367
 20
97.8086
 11
260.603
 21
97.7359
  0
LINE
  8
0
 10
260.603
 20
97.7359
 11
260.825
 21
97.6289
  0
LINE
  8
0
 10
260.825
 20
97.6289
 11
261.029
 21
97.49
  0
LINE
  8
0
 10
261.029
 20
97.49
 11
261.21
 21
97.3223
  0
LINE
  8
0
 10
261.21
 20
97.3223
 11
261.363
 21
97.1295
  0
LINE
  8
0
 10
261.363
 20
97.1295
 11
261.487
 21
96.9159
  0
LINE
  8
0
 10
261.487
 20
96.9159
 11
261.577
 21
96.6863
  0
LINE
  8
0
 10
261.577
 20
96.6863
 11
261.632
 21
96.4459
  0
LINE
  8
0
 10
261.632
 20
96.4459
 11
261.65
 21
96.2
  0
LINE
  8
0
 10
261.65
 20
96.2
 11
261.632
 21
95.9541
  0
LINE
  8
0
 10
261.632
 20
95.9541
 11
261.577
 21
95.7137
  0
LINE
  8
0
 10
261.577
 20
95.7137
 11
261.487
 21
95.4841
  0
LINE
  8
0
 10
261.487
 20
95.4841
 11
261.363
 21
95.2705
  0
LINE
  8
0
 10
261.363
 20
95.2705
 11
261.21
 21
95.0777
  0
LINE
  8
0
 10
261.21
 20
95.0777
 11
261.029
 21
94.91
  0
LINE
  8
0
 10
261.029
 20
94.91
 11
260.825
 21
94.7711
  0
LINE
  8
0
 10
260.825
 20
94.7711
 11
260.603
 21
94.664
  0
LINE
  8
0
 10
260.603
 20
94.664
 11
260.367
 21
94.5914
  0
LINE
  8
0
 10
260.367
 20
94.5914
 11
260.123
 21
94.5546
  0
LINE
  8
0
 10
260.123
 20
94.5546
 11
219.877
 21
94.5546
  0
LINE
  8
0
 10
27.8767
 20
94.5546
 11
27.6328
 21
94.5914
  0
LINE
  8
0
 10
27.6328
 20
94.5914
 11
27.3972
 21
94.664
  0
LINE
  8
0
 10
27.3972
 20
94.664
 11
27.175
 21
94.7711
  0
LINE
  8
0
 10
27.175
 20
94.7711
 11
26.9712
 21
94.91
  0
LINE
  8
0
 10
26.9712
 20
94.91
 11
26.7905
 21
95.0777
  0
LINE
  8
0
 10
26.7905
 20
95.0777
 11
26.6367
 21
95.2705
  0
LINE
  8
0
 10
26.6367
 20
95.2705
 11
26.5134
 21
95.4841
  0
LINE
  8
0
 10
26.5134
 20
95.4841
 11
26.4233
 21
95.7137
  0
LINE
  8
0
 10
26.4233
 20
95.7137
 11
26.3684
 21
95.9541
  0
LINE
  8
0
 10
26.3684
 20
95.9541
 11
26.35
 21
96.2
  0
LINE
  8
0
 10
26.35
 20
96.2
 11
26.3684
 21
96.4459
  0
LINE
  8
0
 10
26.3684
 20
96.4459
 11
26.4233
 21
96.6863
  0
LINE
  8
0
 10
26.4233
 20
96.6863
 11
26.5134
 21
96.9159
  0
LINE
  8
0
 10
26.5134
 20
96.9159
 11
26.6367
 21
97.1295
  0
LINE
  8
0
 10
26.6367
 20
97.1295
 11
26.7905
 21
97.3223
  0
LINE
  8
0
 10
26.7905
 20
97.3223
 11
26.9712
 21
97.49
  0
LINE
  8
0
 10
26.9712
 20
97.49
 11
27.175
 21
97.6289
  0
LINE
  8
0
 10
27.175
 20
97.6289
 11
27.3972
 21
97.7359
  0
LINE
  8
0
 10
27.3972
 20
97.7359
 11
27.6328
 21
97.8086
  0
LINE
  8
0
 10
27.6328
 20
97.8086
 11
27.8767
 21
97.8454
  0
LINE
  8
0
 10
27.8767
 20
97.8454
 11
68.1233
 21
97.8454
  0
LINE
  8
0
 10
68.1233
 20
97.8454
 11
68.3672
 21
97.8086
  0
LINE
  8
0
 10
68.3672
 20
97.8086
 11
68.6028
 21
97.7359
  0
LINE
  8
0
 10
68.6028
 20
97.7359
 11
68.825
 21
97.6289
  0
LINE
  8
0
 10
68.825
 20
97.6289
 11
69.0287
 21
97.49
  0
LINE
  8
0
 10
69.0287
 20
97.49
 11
69.2095
 21
97.3223
  0
LINE
  8
0
 10
69.2095
 20
97.3223
 11
69.3633
 21
97.1295
  0
LINE
  8
0
 10
69.3633
 20
97.1295
 11
69.4866
 21
96.9159
  0
LINE
  8
0
 10
69.4866
 20
96.9159
 11
69.5767
 21
96.6863
  0
LINE
  8
0
 10
69.5767
 20
96.6863
 11
69.6316
 21
96.4459
  0
LINE
  8
0
 10
69.6316
 20
96.4459
 11
69.65
 21
96.2
  0
LINE
  8
0
 10
69.65
 20
96.2
 11
69.6316
 21
95.9541
  0
LINE
  8
0
 10
69.6316
 20
95.9541
 11
69.5767
 21
95.7137
  0
LINE
  8
0
 10
69.5767
 20
95.7137
 11
69.4866
 21
95.4841
  0
LINE
  8
0
 10
69.4866
 20
95.4841
 11
69.3633
 21
95.2705
  0
LINE
  8
0
 10
69.3633
 20
95.2705
 11
69.2095
 21
95.0777
  0
LINE
  8
0
 10
69.2095
 20
95.0777
 11
69.0287
 21
94.91
  0
LINE
  8
0
 10
69.0287
 20
94.91
 11
68.825
 21
94.7711
  0
LINE
  8
0
 10
68.825
 20
94.7711
 11
68.6028
 21
94.664
  0
LINE
  8
0
 10
68.6028
 20
94.664
 11
68.3672
 21
94.5914
  0
LINE
  8
0
 10
68.3672
 20
94.5914
 11
68.1233
 21
94.5546
  0
LINE
  8
0
 10
68.1233
 20
94.5546
 11
27.8767
 21
94.5546
  0
LINE
  8
0
 10
-282.746
 20
32.0684
 11
-282.986
 21
32.1233
  0
LINE
  8
0
 10
-282.986
 20
32.1233
 11
-283.216
 21
32.2134
  0
LINE
  8
0
 10
-283.216
 20
32.2134
 11
-283.429
 21
32.3367
  0
LINE
  8
0
 10
-283.429
 20
32.3367
 11
-283.622
 21
32.4905
  0
LINE
  8
0
 10
-283.622
 20
32.4905
 11
-283.79
 21
32.6712
  0
LINE
  8
0
 10
-283.79
 20
32.6712
 11
-283.929
 21
32.875
  0
LINE
  8
0
 10
-283.929
 20
32.875
 11
-284.036
 21
33.0972
  0
LINE
  8
0
 10
-284.036
 20
33.0972
 11
-284.109
 21
33.3328
  0
LINE
  8
0
 10
-284.109
 20
33.3328
 11
-284.145
 21
33.5767
  0
LINE
  8
0
 10
-284.145
 20
33.5767
 11
-284.145
 21
73.8233
  0
LINE
  8
0
 10
-284.145
 20
73.8233
 11
-284.109
 21
74.0672
  0
LINE
  8
0
 10
-284.109
 20
74.0672
 11
-284.036
 21
74.3028
  0
LINE
  8
0
 10
-284.036
 20
74.3028
 11
-283.929
 21
74.525
  0
LINE
  8
0
 10
-283.929
 20
74.525
 11
-283.79
 21
74.7288
  0
LINE
  8
0
 10
-283.79
 20
74.7288
 11
-283.622
 21
74.9095
  0
LINE
  8
0
 10
-283.622
 20
74.9095
 11
-283.429
 21
75.0633
  0
LINE
  8
0
 10
-283.429
 20
75.0633
 11
-283.216
 21
75.1866
  0
LINE
  8
0
 10
-283.216
 20
75.1866
 11
-282.986
 21
75.2767
  0
LINE
  8
0
 10
-282.986
 20
75.2767
 11
-282.746
 21
75.3316
  0
LINE
  8
0
 10
-282.746
 20
75.3316
 11
-282.5
 21
75.35
  0
LINE
  8
0
 10
-282.5
 20
75.35
 11
-282.254
 21
75.3316
  0
LINE
  8
0
 10
-282.254
 20
75.3316
 11
-282.014
 21
75.2767
  0
LINE
  8
0
 10
-282.014
 20
75.2767
 11
-281.784
 21
75.1866
  0
LINE
  8
0
 10
-281.784
 20
75.1866
 11
-281.571
 21
75.0633
  0
LINE
  8
0
 10
-281.571
 20
75.0633
 11
-281.378
 21
74.9095
  0
LINE
  8
0
 10
-281.378
 20
74.9095
 11
-281.21
 21
74.7288
  0
LINE
  8
0
 10
-281.21
 20
74.7288
 11
-281.071
 21
74.525
  0
LINE
  8
0
 10
-281.071
 20
74.525
 11
-280.964
 21
74.3028
  0
LINE
  8
0
 10
-280.964
 20
74.3028
 11
-280.891
 21
74.0672
  0
LINE
  8
0
 10
-280.891
 20
74.0672
 11
-280.855
 21
73.8233
  0
LINE
  8
0
 10
-280.855
 20
73.8233
 11
-280.855
 21
33.5767
  0
LINE
  8
0
 10
-280.855
 20
33.5767
 11
-280.891
 21
33.3328
  0
LINE
  8
0
 10
-280.891
 20
33.3328
 11
-280.964
 21
33.0972
  0
LINE
  8
0
 10
-280.964
 20
33.0972
 11
-281.071
 21
32.875
  0
LINE
  8
0
 10
-281.071
 20
32.875
 11
-281.21
 21
32.6712
  0
LINE
  8
0
 10
-281.21
 20
32.6712
 11
-281.378
 21
32.4905
  0
LINE
  8
0
 10
-281.378
 20
32.4905
 11
-281.571
 21
32.3367
  0
LINE
  8
0
 10
-281.571
 20
32.3367
 11
-281.784
 21
32.2134
  0
LINE
  8
0
 10
-281.784
 20
32.2134
 11
-282.014
 21
32.1233
  0
LINE
  8
0
 10
-282.014
 20
32.1233
 11
-282.254
 21
32.0684
  0
LINE
  8
0
 10
-282.254
 20
32.0684
 11
-282.5
 21
32.05
  0
LINE
  8
0
 10
-282.5
 20
32.05
 11
-282.746
 21
32.0684
  0
LINE
  8
0
 10
282.254
 20
32.0684
 11
282.014
 21
32.1233
  0
LINE
  8
0
 10
282.014
 20
32.1233
 11
281.784
 21
32.2134
  0
LINE
  8
0
 10
281.784
 20
32.2134
 11
281.571
 21
32.3367
  0
LINE
  8
0
 10
281.571
 20
32.3367
 11
281.378
 21
32.4905
  0
LINE
  8
0
 10
281.378
 20
32.4905
 11
281.21
 21
32.6712
  0
LINE
  8
0
 10
281.21
 20
32.6712
 11
281.071
 21
32.875
  0
LINE
  8
0
 10
281.071
 20
32.875
 11
280.964
 21
33.0972
  0
LINE
  8
0
 10
280.964
 20
33.0972
 11
280.891
 21
33.3328
  0
LINE
  8
0
 10
280.891
 20
33.3328
 11
280.855
 21
33.5767
  0
LINE
  8
0
 10
280.855
 20
33.5767
 11
280.855
 21
73.8233
  0
LINE
  8
0
 10
280.855
 20
73.8233
 11
280.891
 21
74.0672
  0
LINE
  8
0
 10
280.891
 20
74.0672
 11
280.964
 21
74.3028
  0
LINE
  8
0
 10
280.964
 20
74.3028
 11
281.071
 21
74.525
  0
LINE
  8
0
 10
281.071
 20
74.525
 11
281.21
 21
74.7288
  0
LINE
  8
0
 10
281.21
 20
74.7288
 11
281.378
 21
74.9095
  0
LINE
  8
0
 10
281.378
 20
74.9095
 11
281.571
 21
75.0633
  0
LINE
  8
0
 10
281.571
 20
75.0633
 11
281.784
 21
75.1866
  0
LINE
  8
0
 10
281.784
 20
75.1866
 11
282.014
 21
75.2767
  0
LINE
  8
0
 10
282.014
 20
75.2767
 11
282.254
 21
75.3316
  0
LINE
  8
0
 10
282.254
 20
75.3316
 11
282.5
 21
75.35
  0
LINE
  8
0
 10
282.5
 20
75.35
 11
282.746
 21
75.3316
  0
LINE
  8
0
 10
282.746
 20
75.3316
 11
282.986
 21
75.2767
  0
LINE
  8
0
 10
282.986
 20
75.2767
 11
283.216
 21
75.1866
  0
LINE
  8
0
 10
283.216
 20
75.1866
 11
283.429
 21
75.0633
  0
LINE
  8
0
 10
283.429
 20
75.0633
 11
283.622
 21
74.9095
  0
LINE
  8
0
 10
283.622
 20
74.9095
 11
283.79
 21
74.7288
  0
LINE
  8
0
 10
283.79
 20
74.7288
 11
283.929
 21
74.525
  0
LINE
  8
0
 10
283.929
 20
74.525
 11
284.036
 21
74.3028
  0
LINE
  8
0
 10
284.036
 20
74.3028
 11
284.109
 21
74.0672
  0
LINE
  8
0
 10
284.109
 20
74.0672
 11
284.145
 21
73.8233
  0
LINE
  8
0
 10
284.145
 20
73.8233
 11
284.145
 21
33.5767
  0
LINE
  8
0
 10
284.145
 20
33.5767
 11
284.109
 21
33.3328
  0
LINE
  8
0
 10
284.109
 20
33.3328
 11
284.036
 21
33.0972
  0
LINE
  8
0
 10
284.036
 20
33.0972
 11
283.929
 21
32.875
  0
LINE
  8
0
 10
283.929
 20
32.875
 11
283.79
 21
32.6712
  0
LINE
  8
0
 10
283.79
 20
32.6712
 11
283.622
 21
32.4905
  0
LINE
  8
0
 10
283.622
 20
32.4905
 11
283.429
 21
32.3367
  0
LINE
  8
0
 10
283.429
 20
32.3367
 11
283.216
 21
32.2134
  0
LINE
  8
0
 10
283.216
 20
32.2134
 11
282.986
 21
32.1233
  0
LINE
  8
0
 10
282.986
 20
32.1233
 11
282.746
 21
32.0684
  0
LINE
  8
0
 10
282.746
 20
32.0684
 11
282.5
 21
32.05
  0
LINE
  8
0
 10
282.5
 20
32.05
 11
282.254
 21
32.0684
  0
LINE
  8
0
 10
-225.309
 20
60.8283
 11
-225.549
 21
60.8911
  0
LINE
  8
0
 10
-225.549
 20
60.8911
 11
-225.777
 21
60.9881
  0
LINE
  8
0
 10
-225.777
 20
60.9881
 11
-225.989
 21
61.1174
  0
LINE
  8
0
 10
-225.989
 20
61.1174
 11
-226.18
 21
61.2762
  0
LINE
  8
0
 10
-226.18
 20
61.2762
 11
-226.346
 21
61.461
  0
LINE
  8
0
 10
-226.346
 20
61.461
 11
-226.482
 21
61.668
  0
LINE
  8
0
 10
-226.482
 20
61.668
 11
-226.588
 21
61.8927
  0
LINE
  8
0
 10
-226.588
 20
61.8927
 11
-226.659
 21
62.1304
  0
LINE
  8
0
 10
-226.659
 20
62.1304
 11
-226.695
 21
62.3759
  0
LINE
  8
0
 10
-226.695
 20
62.3759
 11
-226.695
 21
62.6241
  0
LINE
  8
0
 10
-226.695
 20
62.6241
 11
-226.659
 21
62.8696
  0
LINE
  8
0
 10
-226.659
 20
62.8696
 11
-226.588
 21
63.1073
  0
LINE
  8
0
 10
-226.588
 20
63.1073
 11
-226.482
 21
63.332
  0
LINE
  8
0
 10
-226.482
 20
63.332
 11
-226.346
 21
63.539
  0
LINE
  8
0
 10
-226.346
 20
63.539
 11
-226.18
 21
63.7238
  0
LINE
  8
0
 10
-226.18
 20
63.7238
 11
-225.989
 21
63.8826
  0
LINE
  8
0
 10
-225.989
 20
63.8826
 11
-225.777
 21
64.0119
  0
LINE
  8
0
 10
-225.777
 20
64.0119
 11
-225.549
 21
64.1089
  0
LINE
  8
0
 10
-225.549
 20
64.1089
 11
-225.309
 21
64.1717
  0
LINE
  8
0
 10
-225.309
 20
64.1717
 11
-225.062
 21
64.1989
  0
LINE
  8
0
 10
-225.062
 20
64.1989
 11
-224.814
 21
64.1898
  0
LINE
  8
0
 10
-224.814
 20
64.1898
 11
-224.57
 21
64.1447
  0
LINE
  8
0
 10
-224.57
 20
64.1447
 11
-224.335
 21
64.0646
  0
LINE
  8
0
 10
-224.335
 20
64.0646
 11
-224.114
 21
63.9511
  0
LINE
  8
0
 10
-224.114
 20
63.9511
 11
-223.913
 21
63.8067
  0
LINE
  8
0
 10
-223.913
 20
63.8067
 11
-223.734
 21
63.6344
  0
LINE
  8
0
 10
-223.734
 20
63.6344
 11
-223.582
 21
63.438
  0
LINE
  8
0
 10
-223.582
 20
63.438
 11
-223.461
 21
63.2216
  0
LINE
  8
0
 10
-223.461
 20
63.2216
 11
-223.372
 21
62.9898
  0
LINE
  8
0
 10
-223.372
 20
62.9898
 11
-223.318
 21
62.7475
  0
LINE
  8
0
 10
-223.318
 20
62.7475
 11
-223.3
 21
62.5
  0
LINE
  8
0
 10
-223.3
 20
62.5
 11
-223.318
 21
62.2525
  0
LINE
  8
0
 10
-223.318
 20
62.2525
 11
-223.372
 21
62.0102
  0
LINE
  8
0
 10
-223.372
 20
62.0102
 11
-223.461
 21
61.7784
  0
LINE
  8
0
 10
-223.461
 20
61.7784
 11
-223.582
 21
61.562
  0
LINE
  8
0
 10
-223.582
 20
61.562
 11
-223.734
 21
61.3656
  0
LINE
  8
0
 10
-223.734
 20
61.3656
 11
-223.913
 21
61.1933
  0
LINE
  8
0
 10
-223.913
 20
61.1933
 11
-224.114
 21
61.0489
  0
LINE
  8
0
 10
-224.114
 20
61.0489
 11
-224.335
 21
60.9354
  0
LINE
  8
0
 10
-224.335
 20
60.9354
 11
-224.57
 21
60.8553
  0
LINE
  8
0
 10
-224.57
 20
60.8553
 11
-224.814
 21
60.8102
  0
LINE
  8
0
 10
-224.814
 20
60.8102
 11
-225.062
 21
60.8011
  0
LINE
  8
0
 10
-225.062
 20
60.8011
 11
-225.309
 21
60.8283
  0
LINE
  8
0
 10
-135.309
 20
60.8283
 11
-135.549
 21
60.8911
  0
LINE
  8
0
 10
-135.549
 20
60.8911
 11
-135.777
 21
60.9881
  0
LINE
  8
0
 10
-135.777
 20
60.9881
 11
-135.989
 21
61.1174
  0
LINE
  8
0
 10
-135.989
 20
61.1174
 11
-136.18
 21
61.2762
  0
LINE
  8
0
 10
-136.18
 20
61.2762
 11
-136.346
 21
61.461
  0
LINE
  8
0
 10
-136.346
 20
61.461
 11
-136.482
 21
61.668
  0
LINE
  8
0
 10
-136.482
 20
61.668
 11
-136.588
 21
61.8927
  0
LINE
  8
0
 10
-136.588
 20
61.8927
 11
-136.659
 21
62.1304
  0
LINE
  8
0
 10
-136.659
 20
62.1304
 11
-136.695
 21
62.3759
  0
LINE
  8
0
 10
-136.695
 20
62.3759
 11
-136.695
 21
62.6241
  0
LINE
  8
0
 10
-136.695
 20
62.6241
 11
-136.659
 21
62.8696
  0
LINE
  8
0
 10
-136.659
 20
62.8696
 11
-136.588
 21
63.1073
  0
LINE
  8
0
 10
-136.588
 20
63.1073
 11
-136.482
 21
63.332
  0
LINE
  8
0
 10
-136.482
 20
63.332
 11
-136.346
 21
63.539
  0
LINE
  8
0
 10
-136.346
 20
63.539
 11
-136.18
 21
63.7238
  0
LINE
  8
0
 10
-136.18
 20
63.7238
 11
-135.989
 21
63.8826
  0
LINE
  8
0
 10
-135.989
 20
63.8826
 11
-135.777
 21
64.0119
  0
LINE
  8
0
 10
-135.777
 20
64.0119
 11
-135.549
 21
64.1089
  0
LINE
  8
0
 10
-135.549
 20
64.1089
 11
-135.309
 21
64.1717
  0
LINE
  8
0
 10
-135.309
 20
64.1717
 11
-135.062
 21
64.1989
  0
LINE
  8
0
 10
-135.062
 20
64.1989
 11
-134.814
 21
64.1898
  0
LINE
  8
0
 10
-134.814
 20
64.1898
 11
-134.57
 21
64.1447
  0
LINE
  8
0
 10
-134.57
 20
64.1447
 11
-134.335
 21
64.0646
  0
LINE
  8
0
 10
-134.335
 20
64.0646
 11
-134.114
 21
63.9511
  0
LINE
  8
0
 10
-134.114
 20
63.9511
 11
-133.913
 21
63.8067
  0
LINE
  8
0
 10
-133.913
 20
63.8067
 11
-133.734
 21
63.6344
  0
LINE
  8
0
 10
-133.734
 20
63.6344
 11
-133.582
 21
63.438
  0
LINE
  8
0
 10
-133.582
 20
63.438
 11
-133.461
 21
63.2216
  0
LINE
  8
0
 10
-133.461
 20
63.2216
 11
-133.372
 21
62.9898
  0
LINE
  8
0
 10
-133.372
 20
62.9898
 11
-133.318
 21
62.7475
  0
LINE
  8
0
 10
-133.318
 20
62.7475
 11
-133.3
 21
62.5
  0
LINE
  8
0
 10
-133.3
 20
62.5
 11
-133.318
 21
62.2525
  0
LINE
  8
0
 10
-133.318
 20
62.2525
 11
-133.372
 21
62.0102
  0
LINE
  8
0
 10
-133.372
 20
62.0102
 11
-133.461
 21
61.7784
  0
LINE
  8
0
 10
-133.461
 20
61.7784
 11
-133.582
 21
61.562
  0
LINE
  8
0
 10
-133.582
 20
61.562
 11
-133.734
 21
61.3656
  0
LINE
  8
0
 10
-133.734
 20
61.3656
 11
-133.913
 21
61.1933
  0
LINE
  8
0
 10
-133.913
 20
61.1933
 11
-134.114
 21
61.0489
  0
LINE
  8
0
 10
-134.114
 20
61.0489
 11
-134.335
 21
60.9354
  0
LINE
  8
0
 10
-134.335
 20
60.9354
 11
-134.57
 21
60.8553
  0
LINE
  8
0
 10
-134.57
 20
60.8553
 11
-134.814
 21
60.8102
  0
LINE
  8
0
 10
-134.814
 20
60.8102
 11
-135.062
 21
60.8011
  0
LINE
  8
0
 10
-135.062
 20
60.8011
 11
-135.309
 21
60.8283
  0
LINE
  8
0
 10
134.691
 20
60.8283
 11
134.451
 21
60.8911
  0
LINE
  8
0
 10
134.451
 20
60.8911
 11
134.223
 21
60.9881
  0
LINE
  8
0
 10
134.223
 20
60.9881
 11
134.011
 21
61.1174
  0
LINE
  8
0
 10
134.011
 20
61.1174
 11
133.82
 21
61.2762
  0
LINE
  8
0
 10
133.82
 20
61.2762
 11
133.654
 21
61.461
  0
LINE
  8
0
 10
133.654
 20
61.461
 11
133.518
 21
61.668
  0
LINE
  8
0
 10
133.518
 20
61.668
 11
133.412
 21
61.8927
  0
LINE
  8
0
 10
133.412
 20
61.8927
 11
133.341
 21
62.1304
  0
LINE
  8
0
 10
133.341
 20
62.1304
 11
133.305
 21
62.3759
  0
LINE
  8
0
 10
133.305
 20
62.3759
 11
133.305
 21
62.6241
  0
LINE
  8
0
 10
133.305
 20
62.6241
 11
133.341
 21
62.8696
  0
LINE
  8
0
 10
133.341
 20
62.8696
 11
133.412
 21
63.1073
  0
LINE
  8
0
 10
133.412
 20
63.1073
 11
133.518
 21
63.332
  0
LINE
  8
0
 10
133.518
 20
63.332
 11
133.654
 21
63.539
  0
LINE
  8
0
 10
133.654
 20
63.539
 11
133.82
 21
63.7238
  0
LINE
  8
0
 10
133.82
 20
63.7238
 11
134.011
 21
63.8826
  0
LINE
  8
0
 10
134.011
 20
63.8826
 11
134.223
 21
64.0119
  0
LINE
  8
0
 10
134.223
 20
64.0119
 11
134.451
 21
64.1089
  0
LINE
  8
0
 10
134.451
 20
64.1089
 11
134.691
 21
64.1717
  0
LINE
  8
0
 10
134.691
 20
64.1717
 11
134.938
 21
64.1989
  0
LINE
  8
0
 10
134.938
 20
64.1989
 11
135.186
 21
64.1898
  0
LINE
  8
0
 10
135.186
 20
64.1898
 11
135.43
 21
64.1447
  0
LINE
  8
0
 10
135.43
 20
64.1447
 11
135.665
 21
64.0646
  0
LINE
  8
0
 10
135.665
 20
64.0646
 11
135.886
 21
63.9511
  0
LINE
  8
0
 10
135.886
 20
63.9511
 11
136.087
 21
63.8067
  0
LINE
  8
0
 10
136.087
 20
63.8067
 11
136.266
 21
63.6344
  0
LINE
  8
0
 10
136.266
 20
63.6344
 11
136.418
 21
63.438
  0
LINE
  8
0
 10
136.418
 20
63.438
 11
136.539
 21
63.2216
  0
LINE
  8
0
 10
136.539
 20
63.2216
 11
136.628
 21
62.9898
  0
LINE
  8
0
 10
136.628
 20
62.9898
 11
136.682
 21
62.7475
  0
LINE
  8
0
 10
136.682
 20
62.7475
 11
136.7
 21
62.5
  0
LINE
  8
0
 10
136.7
 20
62.5
 11
136.682
 21
62.2525
  0
LINE
  8
0
 10
136.682
 20
62.2525
 11
136.628
 21
62.0102
  0
LINE
  8
0
 10
136.628
 20
62.0102
 11
136.539
 21
61.7784
  0
LINE
  8
0
 10
136.539
 20
61.7784
 11
136.418
 21
61.562
  0
LINE
  8
0
 10
136.418
 20
61.562
 11
136.266
 21
61.3656
  0
LINE
  8
0
 10
136.266
 20
61.3656
 11
136.087
 21
61.1933
  0
LINE
  8
0
 10
136.087
 20
61.1933
 11
135.886
 21
61.0489
  0
LINE
  8
0
 10
135.886
 20
61.0489
 11
135.665
 21
60.9354
  0
LINE
  8
0
 10
135.665
 20
60.9354
 11
135.43
 21
60.8553
  0
LINE
  8
0
 10
135.43
 20
60.8553
 11
135.186
 21
60.8102
  0
LINE
  8
0
 10
135.186
 20
60.8102
 11
134.938
 21
60.8011
  0
LINE
  8
0
 10
134.938
 20
60.8011
 11
134.691
 21
60.8283
  0
LINE
  8
0
 10
224.691
 20
60.8283
 11
224.451
 21
60.8911
  0
LINE
  8
0
 10
224.451
 20
60.8911
 11
224.223
 21
60.9881
  0
LINE
  8
0
 10
224.223
 20
60.9881
 11
224.011
 21
61.1174
  0
LINE
  8
0
 10
224.011
 20
61.1174
 11
223.82
 21
61.2762
  0
LINE
  8
0
 10
223.82
 20
61.2762
 11
223.654
 21
61.461
  0
LINE
  8
0
 10
223.654
 20
61.461
 11
223.518
 21
61.668
  0
LINE
  8
0
 10
223.518
 20
61.668
 11
223.412
 21
61.8927
  0
LINE
  8
0
 10
223.412
 20
61.8927
 11
223.341
 21
62.1304
  0
LINE
  8
0
 10
223.341
 20
62.1304
 11
223.305
 21
62.3759
  0
LINE
  8
0
 10
223.305
 20
62.3759
 11
223.305
 21
62.6241
  0
LINE
  8
0
 10
223.305
 20
62.6241
 11
223.341
 21
62.8696
  0
LINE
  8
0
 10
223.341
 20
62.8696
 11
223.412
 21
63.1073
  0
LINE
  8
0
 10
223.412
 20
63.1073
 11
223.518
 21
63.332
  0
LINE
  8
0
 10
223.518
 20
63.332
 11
223.654
 21
63.539
  0
LINE
  8
0
 10
223.654
 20
63.539
 11
223.82
 21
63.7238
  0
LINE
  8
0
 10
223.82
 20
63.7238
 11
224.011
 21
63.8826
  0
LINE
  8
0
 10
224.011
 20
63.8826
 11
224.223
 21
64.0119
  0
LINE
  8
0
 10
224.223
 20
64.0119
 11
224.451
 21
64.1089
  0
LINE
  8
0
 10
224.451
 20
64.1089
 11
224.691
 21
64.1717
  0
LINE
  8
0
 10
224.691
 20
64.1717
 11
224.938
 21
64.1989
  0
LINE
  8
0
 10
224.938
 20
64.1989
 11
225.186
 21
64.1898
  0
LINE
  8
0
 10
225.186
 20
64.1898
 11
225.43
 21
64.1447
  0
LINE
  8
0
 10
225.43
 20
64.1447
 11
225.665
 21
64.0646
  0
LINE
  8
0
 10
225.665
 20
64.0646
 11
225.886
 21
63.9511
  0
LINE
  8
0
 10
225.886
 20
63.9511
 11
226.087
 21
63.8067
  0
LINE
  8
0
 10
226.087
 20
63.8067
 11
226.266
 21
63.6344
  0
LINE
  8
0
 10
226.266
 20
63.6344
 11
226.418
 21
63.438
  0
LINE
  8
0
 10
226.418
 20
63.438
 11
226.539
 21
63.2216
  0
LINE
  8
0
 10
226.539
 20
63.2216
 11
226.628
 21
62.9898
  0
LINE
  8
0
 10
226.628
 20
62.9898
 11
226.682
 21
62.7475
  0
LINE
  8
0
 10
226.682
 20
62.7475
 11
226.7
 21
62.5
  0
LINE
  8
0
 10
226.7
 20
62.5
 11
226.682
 21
62.2525
  0
LINE
  8
0
 10
226.682
 20
62.2525
 11
226.628
 21
62.0102
  0
LINE
  8
0
 10
226.628
 20
62.0102
 11
226.539
 21
61.7784
  0
LINE
  8
0
 10
226.539
 20
61.7784
 11
226.418
 21
61.562
  0
LINE
  8
0
 10
226.418
 20
61.562
 11
226.266
 21
61.3656
  0
LINE
  8
0
 10
226.266
 20
61.3656
 11
226.087
 21
61.1933
  0
LINE
  8
0
 10
226.087
 20
61.1933
 11
225.886
 21
61.0489
  0
LINE
  8
0
 10
225.886
 20
61.0489
 11
225.665
 21
60.9354
  0
LINE
  8
0
 10
225.665
 20
60.9354
 11
225.43
 21
60.8553
  0
LINE
  8
0
 10
225.43
 20
60.8553
 11
225.186
 21
60.8102
  0
LINE
  8
0
 10
225.186
 20
60.8102
 11
224.938
 21
60.8011
  0
LINE
  8
0
 10
224.938
 20
60.8011
 11
224.691
 21
60.8283
  0
LINE
  8
0
 10
44.6912
 20
60.8283
 11
44.4511
 21
60.8911
  0
LINE
  8
0
 10
44.4511
 20
60.8911
 11
44.2227
 21
60.9881
  0
LINE
  8
0
 10
44.2227
 20
60.9881
 11
44.0108
 21
61.1174
  0
LINE
  8
0
 10
44.0108
 20
61.1174
 11
43.8201
 21
61.2762
  0
LINE
  8
0
 10
43.8201
 20
61.2762
 11
43.6544
 21
61.461
  0
LINE
  8
0
 10
43.6544
 20
61.461
 11
43.5175
 21
61.668
  0
LINE
  8
0
 10
43.5175
 20
61.668
 11
43.4122
 21
61.8927
  0
LINE
  8
0
 10
43.4122
 20
61.8927
 11
43.3407
 21
62.1304
  0
LINE
  8
0
 10
43.3407
 20
62.1304
 11
43.3045
 21
62.3759
  0
LINE
  8
0
 10
43.3045
 20
62.3759
 11
43.3045
 21
62.6241
  0
LINE
  8
0
 10
43.3045
 20
62.6241
 11
43.3407
 21
62.8696
  0
LINE
  8
0
 10
43.3407
 20
62.8696
 11
43.4122
 21
63.1073
  0
LINE
  8
0
 10
43.4122
 20
63.1073
 11
43.5175
 21
63.332
  0
LINE
  8
0
 10
43.5175
 20
63.332
 11
43.6544
 21
63.539
  0
LINE
  8
0
 10
43.6544
 20
63.539
 11
43.8201
 21
63.7238
  0
LINE
  8
0
 10
43.8201
 20
63.7238
 11
44.0108
 21
63.8826
  0
LINE
  8
0
 10
44.0108
 20
63.8826
 11
44.2227
 21
64.0119
  0
LINE
  8
0
 10
44.2227
 20
64.0119
 11
44.4511
 21
64.1089
  0
LINE
  8
0
 10
44.4511
 20
64.1089
 11
44.6912
 21
64.1717
  0
LINE
  8
0
 10
44.6912
 20
64.1717
 11
44.9379
 21
64.1989
  0
LINE
  8
0
 10
44.9379
 20
64.1989
 11
45.1859
 21
64.1898
  0
LINE
  8
0
 10
45.1859
 20
64.1898
 11
45.43
 21
64.1447
  0
LINE
  8
0
 10
45.43
 20
64.1447
 11
45.6649
 21
64.0646
  0
LINE
  8
0
 10
45.6649
 20
64.0646
 11
45.8856
 21
63.9511
  0
LINE
  8
0
 10
45.8856
 20
63.9511
 11
46.0874
 21
63.8067
  0
LINE
  8
0
 10
46.0874
 20
63.8067
 11
46.2661
 21
63.6344
  0
LINE
  8
0
 10
46.2661
 20
63.6344
 11
46.4178
 21
63.438
  0
LINE
  8
0
 10
46.4178
 20
63.438
 11
46.5393
 21
63.2216
  0
LINE
  8
0
 10
46.5393
 20
63.2216
 11
46.6279
 21
62.9898
  0
LINE
  8
0
 10
46.6279
 20
62.9898
 11
46.6819
 21
62.7475
  0
LINE
  8
0
 10
46.6819
 20
62.7475
 11
46.7
 21
62.5
  0
LINE
  8
0
 10
46.7
 20
62.5
 11
46.6819
 21
62.2525
  0
LINE
  8
0
 10
46.6819
 20
62.2525
 11
46.6279
 21
62.0102
  0
LINE
  8
0
 10
46.6279
 20
62.0102
 11
46.5393
 21
61.7784
  0
LINE
  8
0
 10
46.5393
 20
61.7784
 11
46.4178
 21
61.562
  0
LINE
  8
0
 10
46.4178
 20
61.562
 11
46.2661
 21
61.3656
  0
LINE
  8
0
 10
46.2661
 20
61.3656
 11
46.0874
 21
61.1933
  0
LINE
  8
0
 10
46.0874
 20
61.1933
 11
45.8856
 21
61.0489
  0
LINE
  8
0
 10
45.8856
 20
61.0489
 11
45.6649
 21
60.9354
  0
LINE
  8
0
 10
45.6649
 20
60.9354
 11
45.43
 21
60.8553
  0
LINE
  8
0
 10
45.43
 20
60.8553
 11
45.1859
 21
60.8102
  0
LINE
  8
0
 10
45.1859
 20
60.8102
 11
44.9379
 21
60.8011
  0
LINE
  8
0
 10
44.9379
 20
60.8011
 11
44.6912
 21
60.8283
  0
LINE
  8
0
 10
-45.3088
 20
60.8283
 11
-45.5489
 21
60.8911
  0
LINE
  8
0
 10
-45.5489
 20
60.8911
 11
-45.7773
 21
60.9881
  0
LINE
  8
0
 10
-45.7773
 20
60.9881
 11
-45.9892
 21
61.1174
  0
LINE
  8
0
 10
-45.9892
 20
61.1174
 11
-46.1799
 21
61.2762
  0
LINE
  8
0
 10
-46.1799
 20
61.2762
 11
-46.3455
 21
61.461
  0
LINE
  8
0
 10
-46.3455
 20
61.461
 11
-46.4825
 21
61.668
  0
LINE
  8
0
 10
-46.4825
 20
61.668
 11
-46.5878
 21
61.8927
  0
LINE
  8
0
 10
-46.5878
 20
61.8927
 11
-46.6593
 21
62.1304
  0
LINE
  8
0
 10
-46.6593
 20
62.1304
 11
-46.6955
 21
62.3759
  0
LINE
  8
0
 10
-46.6955
 20
62.3759
 11
-46.6955
 21
62.6241
  0
LINE
  8
0
 10
-46.6955
 20
62.6241
 11
-46.6593
 21
62.8696
  0
LINE
  8
0
 10
-46.6593
 20
62.8696
 11
-46.5878
 21
63.1073
  0
LINE
  8
0
 10
-46.5878
 20
63.1073
 11
-46.4825
 21
63.332
  0
LINE
  8
0
 10
-46.4825
 20
63.332
 11
-46.3455
 21
63.539
  0
LINE
  8
0
 10
-46.3455
 20
63.539
 11
-46.1799
 21
63.7238
  0
LINE
  8
0
 10
-46.1799
 20
63.7238
 11
-45.9892
 21
63.8826
  0
LINE
  8
0
 10
-45.9892
 20
63.8826
 11
-45.7773
 21
64.0119
  0
LINE
  8
0
 10
-45.7773
 20
64.0119
 11
-45.5489
 21
64.1089
  0
LINE
  8
0
 10
-45.5489
 20
64.1089
 11
-45.3088
 21
64.1717
  0
LINE
  8
0
 10
-45.3088
 20
64.1717
 11
-45.0621
 21
64.1989
  0
LINE
  8
0
 10
-45.0621
 20
64.1989
 11
-44.8141
 21
64.1898
  0
LINE
  8
0
 10
-44.8141
 20
64.1898
 11
-44.57
 21
64.1447
  0
LINE
  8
0
 10
-44.57
 20
64.1447
 11
-44.3351
 21
64.0646
  0
LINE
  8
0
 10
-44.3351
 20
64.0646
 11
-44.1144
 21
63.9511
  0
LINE
  8
0
 10
-44.1144
 20
63.9511
 11
-43.9126
 21
63.8067
  0
LINE
  8
0
 10
-43.9126
 20
63.8067
 11
-43.7339
 21
63.6344
  0
LINE
  8
0
 10
-43.7339
 20
63.6344
 11
-43.5822
 21
63.438
  0
LINE
  8
0
 10
-43.5822
 20
63.438
 11
-43.4607
 21
63.2216
  0
LINE
  8
0
 10
-43.4607
 20
63.2216
 11
-43.3721
 21
62.9898
  0
LINE
  8
0
 10
-43.3721
 20
62.9898
 11
-43.3181
 21
62.7475
  0
LINE
  8
0
 10
-43.3181
 20
62.7475
 11
-43.3
 21
62.5
  0
LINE
  8
0
 10
-43.3
 20
62.5
 11
-43.3181
 21
62.2525
  0
LINE
  8
0
 10
-43.3181
 20
62.2525
 11
-43.3721
 21
62.0102
  0
LINE
  8
0
 10
-43.3721
 20
62.0102
 11
-43.4607
 21
61.7784
  0
LINE
  8
0
 10
-43.4607
 20
61.7784
 11
-43.5822
 21
61.562
  0
LINE
  8
0
 10
-43.5822
 20
61.562
 11
-43.7339
 21
61.3656
  0
LINE
  8
0
 10
-43.7339
 20
61.3656
 11
-43.9126
 21
61.1933
  0
LINE
  8
0
 10
-43.9126
 20
61.1933
 11
-44.1144
 21
61.0489
  0
LINE
  8
0
 10
-44.1144
 20
61.0489
 11
-44.3351
 21
60.9354
  0
LINE
  8
0
 10
-44.3351
 20
60.9354
 11
-44.57
 21
60.8553
  0
LINE
  8
0
 10
-44.57
 20
60.8553
 11
-44.8141
 21
60.8102
  0
LINE
  8
0
 10
-44.8141
 20
60.8102
 11
-45.0621
 21
60.8011
  0
LINE
  8
0
 10
-45.0621
 20
60.8011
 11
-45.3088
 21
60.8283
  0
LINE
  8
0
 10
-252.5
 20
-52.5
 11
-253.023
 21
-52.4726
  0
LINE
  8
0
 10
-253.023
 20
-52.4726
 11
-253.54
 21
-52.3907
  0
LINE
  8
0
 10
-253.54
 20
-52.3907
 11
-254.045
 21
-52.2553
  0
LINE
  8
0
 10
-254.045
 20
-52.2553
 11
-254.534
 21
-52.0677
  0
LINE
  8
0
 10
-254.534
 20
-52.0677
 11
-255
 21
-51.8301
  0
LINE
  8
0
 10
-255
 20
-51.8301
 11
-255.439
 21
-51.5451
  0
LINE
  8
0
 10
-255.439
 20
-51.5451
 11
-255.846
 21
-51.2157
  0
LINE
  8
0
 10
-255.846
 20
-51.2157
 11
-256.216
 21
-50.8457
  0
LINE
  8
0
 10
-256.216
 20
-50.8457
 11
-256.545
 21
-50.4389
  0
LINE
  8
0
 10
-256.545
 20
-50.4389
 11
-256.83
 21
-50
  0
LINE
  8
0
 10
-256.83
 20
-50
 11
-257.068
 21
-49.5337
  0
LINE
  8
0
 10
-257.068
 20
-49.5337
 11
-257.255
 21
-49.0451
  0
LINE
  8
0
 10
-257.255
 20
-49.0451
 11
-257.391
 21
-48.5396
  0
LINE
  8
0
 10
-257.391
 20
-48.5396
 11
-257.473
 21
-48.0226
  0
LINE
  8
0
 10
-257.473
 20
-48.0226
 11
-257.5
 21
-47.5
  0
LINE
  8
0
 10
-257.5
 20
-47.5
 11
-257.5
 21
47.5
  0
LINE
  8
0
 10
-257.5
 20
47.5
 11
-257.473
 21
48.0226
  0
LINE
  8
0
 10
-257.473
 20
48.0226
 11
-257.391
 21
48.5396
  0
LINE
  8
0
 10
-257.391
 20
48.5396
 11
-257.255
 21
49.0451
  0
LINE
  8
0
 10
-257.255
 20
49.0451
 11
-257.068
 21
49.5337
  0
LINE
  8
0
 10
-257.068
 20
49.5337
 11
-256.83
 21
50
  0
LINE
  8
0
 10
-256.83
 20
50
 11
-256.545
 21
50.4389
  0
LINE
  8
0
 10
-256.545
 20
50.4389
 11
-256.216
 21
50.8457
  0
LINE
  8
0
 10
-256.216
 20
50.8457
 11
-255.846
 21
51.2157
  0
LINE
  8
0
 10
-255.846
 20
51.2157
 11
-255.439
 21
51.5451
  0
LINE
  8
0
 10
-255.439
 20
51.5451
 11
-255
 21
51.8301
  0
LINE
  8
0
 10
-255
 20
51.8301
 11
-254.534
 21
52.0677
  0
LINE
  8
0
 10
-254.534
 20
52.0677
 11
-254.045
 21
52.2553
  0
LINE
  8
0
 10
-254.045
 20
52.2553
 11
-253.54
 21
52.3907
  0
LINE
  8
0
 10
-253.54
 20
52.3907
 11
-253.023
 21
52.4726
  0
LINE
  8
0
 10
-253.023
 20
52.4726
 11
-252.5
 21
52.5
  0
LINE
  8
0
 10
-252.5
 20
52.5
 11
252.5
 21
52.5
  0
LINE
  8
0
 10
252.5
 20
52.5
 11
253.023
 21
52.4726
  0
LINE
  8
0
 10
253.023
 20
52.4726
 11
253.54
 21
52.3907
  0
LINE
  8
0
 10
253.54
 20
52.3907
 11
254.045
 21
52.2553
  0
LINE
  8
0
 10
254.045
 20
52.2553
 11
254.534
 21
52.0677
  0
LINE
  8
0
 10
254.534
 20
52.0677
 11
255
 21
51.8301
  0
LINE
  8
0
 10
255
 20
51.8301
 11
255.439
 21
51.5451
  0
LINE
  8
0
 10
255.439
 20
51.5451
 11
255.846
 21
51.2157
  0
LINE
  8
0
 10
255.846
 20
51.2157
 11
256.216
 21
50.8457
  0
LINE
  8
0
 10
256.216
 20
50.8457
 11
256.545
 21
50.4389
  0
LINE
  8
0
 10
256.545
 20
50.4389
 11
256.83
 21
50
  0
LINE
  8
0
 10
256.83
 20
50
 11
257.068
 21
49.5337
  0
LINE
  8
0
 10
257.068
 20
49.5337
 11
257.255
 21
49.0451
  0
LINE
  8
0
 10
257.255
 20
49.0451
 11
257.391
 21
48.5396
  0
LINE
  8
0
 10
257.391
 20
48.5396
 11
257.473
 21
48.0226
  0
LINE
  8
0
 10
257.473
 20
48.0226
 11
257.5
 21
47.5
  0
LINE
  8
0
 10
257.5
 20
47.5
 11
257.5
 21
-47.5
  0
LINE
  8
0
 10
257.5
 20
-47.5
 11
257.473
 21
-48.0226
  0
LINE
  8
0
 10
257.473
 20
-48.0226
 11
257.391
 21
-48.5396
  0
LINE
  8
0
 10
257.391
 20
-48.5396
 11
257.255
 21
-49.0451
  0
LINE
  8
0
 10
257.255
 20
-49.0451
 11
257.068
 21
-49.5337
  0
LINE
  8
0
 10
257.068
 20
-49.5337
 11
256.83
 21
-50
  0
LINE
  8
0
 10
256.83
 20
-50
 11
256.545
 21
-50.4389
  0
LINE
  8
0
 10
256.545
 20
-50.4389
 11
256.216
 21
-50.8457
  0
LINE
  8
0
 10
256.216
 20
-50.8457
 11
255.846
 21
-51.2157
  0
LINE
  8
0
 10
255.846
 20
-51.2157
 11
255.439
 21
-51.5451
  0
LINE
  8
0
 10
255.439
 20
-51.5451
 11
255
 21
-51.8301
  0
LINE
  8
0
 10
255
 20
-51.8301
 11
254.534
 21
-52.0677
  0
LINE
  8
0
 10
254.534
 20
-52.0677
 11
254.045
 21
-52.2553
  0
LINE
  8
0
 10
254.045
 20
-52.2553
 11
253.54
 21
-52.3907
  0
LINE
  8
0
 10
253.54
 20
-52.3907
 11
253.023
 21
-52.4726
  0
LINE
  8
0
 10
253.023
 20
-52.4726
 11
252.5
 21
-52.5
  0
LINE
  8
0
 10
252.5
 20
-52.5
 11
-252.5
 21
-52.5
  0
LINE
  8
0
 10
-267.686
 20
18.3102
 11
-267.93
 21
18.3553
  0
LINE
  8
0
 10
-267.93
 20
18.3553
 11
-268.165
 21
18.4354
  0
LINE
  8
0
 10
-268.165
 20
18.4354
 11
-268.386
 21
18.5489
  0
LINE
  8
0
 10
-268.386
 20
18.5489
 11
-268.587
 21
18.6933
  0
LINE
  8
0
 10
-268.587
 20
18.6933
 11
-268.766
 21
18.8656
  0
LINE
  8
0
 10
-268.766
 20
18.8656
 11
-268.918
 21
19.062
  0
LINE
  8
0
 10
-268.918
 20
19.062
 11
-269.039
 21
19.2784
  0
LINE
  8
0
 10
-269.039
 20
19.2784
 11
-269.128
 21
19.5102
  0
LINE
  8
0
 10
-269.128
 20
19.5102
 11
-269.182
 21
19.7525
  0
LINE
  8
0
 10
-269.182
 20
19.7525
 11
-269.2
 21
20
  0
LINE
  8
0
 10
-269.2
 20
20
 11
-269.182
 21
20.2475
  0
LINE
  8
0
 10
-269.182
 20
20.2475
 11
-269.128
 21
20.4898
  0
LINE
  8
0
 10
-269.128
 20
20.4898
 11
-269.039
 21
20.7216
  0
LINE
  8
0
 10
-269.039
 20
20.7216
 11
-268.918
 21
20.938
  0
LINE
  8
0
 10
-268.918
 20
20.938
 11
-268.766
 21
21.1344
  0
LINE
  8
0
 10
-268.766
 20
21.1344
 11
-268.587
 21
21.3067
  0
LINE
  8
0
 10
-268.587
 20
21.3067
 11
-268.386
 21
21.4511
  0
LINE
  8
0
 10
-268.386
 20
21.4511
 11
-268.165
 21
21.5646
  0
LINE
  8
0
 10
-268.165
 20
21.5646
 11
-267.93
 21
21.6447
  0
LINE
  8
0
 10
-267.93
 20
21.6447
 11
-267.686
 21
21.6898
  0
LINE
  8
0
 10
-267.686
 20
21.6898
 11
-267.438
 21
21.6989
  0
LINE
  8
0
 10
-267.438
 20
21.6989
 11
-267.191
 21
21.6717
  0
LINE
  8
0
 10
-267.191
 20
21.6717
 11
-266.951
 21
21.6089
  0
LINE
  8
0
 10
-266.951
 20
21.6089
 11
-266.723
 21
21.5119
  0
LINE
  8
0
 10
-266.723
 20
21.5119
 11
-266.511
 21
21.3826
  0
LINE
  8
0
 10
-266.511
 20
21.3826
 11
-266.32
 21
21.2238
  0
LINE
  8
0
 10
-266.32
 20
21.2238
 11
-266.154
 21
21.039
  0
LINE
  8
0
 10
-266.154
 20
21.039
 11
-266.018
 21
20.832
  0
LINE
  8
0
 10
-266.018
 20
20.832
 11
-265.912
 21
20.6073
  0
LINE
  8
0
 10
-265.912
 20
20.6073
 11
-265.841
 21
20.3696
  0
LINE
  8
0
 10
-265.841
 20
20.3696
 11
-265.805
 21
20.1241
  0
LINE
  8
0
 10
-265.805
 20
20.1241
 11
-265.805
 21
19.8759
  0
LINE
  8
0
 10
-265.805
 20
19.8759
 11
-265.841
 21
19.6304
  0
LINE
  8
0
 10
-265.841
 20
19.6304
 11
-265.912
 21
19.3927
  0
LINE
  8
0
 10
-265.912
 20
19.3927
 11
-266.018
 21
19.168
  0
LINE
  8
0
 10
-266.018
 20
19.168
 11
-266.154
 21
18.961
  0
LINE
  8
0
 10
-266.154
 20
18.961
 11
-266.32
 21
18.7762
  0
LINE
  8
0
 10
-266.32
 20
18.7762
 11
-266.511
 21
18.6174
  0
LINE
  8
0
 10
-266.511
 20
18.6174
 11
-266.723
 21
18.4881
  0
LINE
  8
0
 10
-266.723
 20
18.4881
 11
-266.951
 21
18.3911
  0
LINE
  8
0
 10
-266.951
 20
18.3911
 11
-267.191
 21
18.3283
  0
LINE
  8
0
 10
-267.191
 20
18.3283
 11
-267.438
 21
18.3011
  0
LINE
  8
0
 10
-267.438
 20
18.3011
 11
-267.686
 21
18.3102
  0
LINE
  8
0
 10
267.191
 20
18.3283
 11
266.951
 21
18.3911
  0
LINE
  8
0
 10
266.951
 20
18.3911
 11
266.723
 21
18.4881
  0
LINE
  8
0
 10
266.723
 20
18.4881
 11
266.511
 21
18.6174
  0
LINE
  8
0
 10
266.511
 20
18.6174
 11
266.32
 21
18.7762
  0
LINE
  8
0
 10
266.32
 20
18.7762
 11
266.154
 21
18.961
  0
LINE
  8
0
 10
266.154
 20
18.961
 11
266.018
 21
19.168
  0
LINE
  8
0
 10
266.018
 20
19.168
 11
265.912
 21
19.3927
  0
LINE
  8
0
 10
265.912
 20
19.3927
 11
265.841
 21
19.6304
  0
LINE
  8
0
 10
265.841
 20
19.6304
 11
265.805
 21
19.8759
  0
LINE
  8
0
 10
265.805
 20
19.8759
 11
265.805
 21
20.1241
  0
LINE
  8
0
 10
265.805
 20
20.1241
 11
265.841
 21
20.3696
  0
LINE
  8
0
 10
265.841
 20
20.3696
 11
265.912
 21
20.6073
  0
LINE
  8
0
 10
265.912
 20
20.6073
 11
266.018
 21
20.832
  0
LINE
  8
0
 10
266.018
 20
20.832
 11
266.154
 21
21.039
  0
LINE
  8
0
 10
266.154
 20
21.039
 11
266.32
 21
21.2238
  0
LINE
  8
0
 10
266.32
 20
21.2238
 11
266.511
 21
21.3826
  0
LINE
  8
0
 10
266.511
 20
21.3826
 11
266.723
 21
21.5119
  0
LINE
  8
0
 10
266.723
 20
21.5119
 11
266.951
 21
21.6089
  0
LINE
  8
0
 10
266.951
 20
21.6089
 11
267.191
 21
21.6717
  0
LINE
  8
0
 10
267.191
 20
21.6717
 11
267.438
 21
21.6989
  0
LINE
  8
0
 10
267.438
 20
21.6989
 11
267.686
 21
21.6898
  0
LINE
  8
0
 10
267.686
 20
21.6898
 11
267.93
 21
21.6447
  0
LINE
  8
0
 10
267.93
 20
21.6447
 11
268.165
 21
21.5646
  0
LINE
  8
0
 10
268.165
 20
21.5646
 11
268.386
 21
21.4511
  0
LINE
  8
0
 10
268.386
 20
21.4511
 11
268.587
 21
21.3067
  0
LINE
  8
0
 10
268.587
 20
21.3067
 11
268.766
 21
21.1344
  0
LINE
  8
0
 10
268.766
 20
21.1344
 11
268.918
 21
20.938
  0
LINE
  8
0
 10
268.918
 20
20.938
 11
269.039
 21
20.7216
  0
LINE
  8
0
 10
269.039
 20
20.7216
 11
269.128
 21
20.4898
  0
LINE
  8
0
 10
269.128
 20
20.4898
 11
269.182
 21
20.2475
  0
LINE
  8
0
 10
269.182
 20
20.2475
 11
269.2
 21
20
  0
LINE
  8
0
 10
269.2
 20
20
 11
269.182
 21
19.7525
  0
LINE
  8
0
 10
269.182
 20
19.7525
 11
269.128
 21
19.5102
  0
LINE
  8
0
 10
269.128
 20
19.5102
 11
269.039
 21
19.2784
  0
LINE
  8
0
 10
269.039
 20
19.2784
 11
268.918
 21
19.062
  0
LINE
  8
0
 10
268.918
 20
19.062
 11
268.766
 21
18.8656
  0
LINE
  8
0
 10
268.766
 20
18.8656
 11
268.587
 21
18.6933
  0
LINE
  8
0
 10
268.587
 20
18.6933
 11
268.386
 21
18.5489
  0
LINE
  8
0
 10
268.386
 20
18.5489
 11
268.165
 21
18.4354
  0
LINE
  8
0
 10
268.165
 20
18.4354
 11
267.93
 21
18.3553
  0
LINE
  8
0
 10
267.93
 20
18.3553
 11
267.686
 21
18.3102
  0
LINE
  8
0
 10
267.686
 20
18.3102
 11
267.438
 21
18.3011
  0
LINE
  8
0
 10
267.438
 20
18.3011
 11
267.191
 21
18.3283
  0
LINE
  8
0
 10
282.254
 20
-21.6316
 11
282.014
 21
-21.5767
  0
LINE
  8
0
 10
282.014
 20
-21.5767
 11
281.784
 21
-21.4866
  0
LINE
  8
0
 10
281.784
 20
-21.4866
 11
281.571
 21
-21.3633
  0
LINE
  8
0
 10
281.571
 20
-21.3633
 11
281.378
 21
-21.2095
  0
LINE
  8
0
 10
281.378
 20
-21.2095
 11
281.21
 21
-21.0287
  0
LINE
  8
0
 10
281.21
 20
-21.0287
 11
281.071
 21
-20.825
  0
LINE
  8
0
 10
281.071
 20
-20.825
 11
280.964
 21
-20.6028
  0
LINE
  8
0
 10
280.964
 20
-20.6028
 11
280.891
 21
-20.3672
  0
LINE
  8
0
 10
280.891
 20
-20.3672
 11
280.855
 21
-20.1233
  0
LINE
  8
0
 10
280.855
 20
-20.1233
 11
280.855
 21
20.1233
  0
LINE
  8
0
 10
280.855
 20
20.1233
 11
280.891
 21
20.3672
  0
LINE
  8
0
 10
280.891
 20
20.3672
 11
280.964
 21
20.6028
  0
LINE
  8
0
 10
280.964
 20
20.6028
 11
281.071
 21
20.825
  0
LINE
  8
0
 10
281.071
 20
20.825
 11
281.21
 21
21.0287
  0
LINE
  8
0
 10
281.21
 20
21.0287
 11
281.378
 21
21.2095
  0
LINE
  8
0
 10
281.378
 20
21.2095
 11
281.571
 21
21.3633
  0
LINE
  8
0
 10
281.571
 20
21.3633
 11
281.784
 21
21.4866
  0
LINE
  8
0
 10
281.784
 20
21.4866
 11
282.014
 21
21.5767
  0
LINE
  8
0
 10
282.014
 20
21.5767
 11
282.254
 21
21.6316
  0
LINE
  8
0
 10
282.254
 20
21.6316
 11
282.5
 21
21.65
  0
LINE
  8
0
 10
282.5
 20
21.65
 11
282.746
 21
21.6316
  0
LINE
  8
0
 10
282.746
 20
21.6316
 11
282.986
 21
21.5767
  0
LINE
  8
0
 10
282.986
 20
21.5767
 11
283.216
 21
21.4866
  0
LINE
  8
0
 10
283.216
 20
21.4866
 11
283.429
 21
21.3633
  0
LINE
  8
0
 10
283.429
 20
21.3633
 11
283.622
 21
21.2095
  0
LINE
  8
0
 10
283.622
 20
21.2095
 11
283.79
 21
21.0287
  0
LINE
  8
0
 10
283.79
 20
21.0287
 11
283.929
 21
20.825
  0
LINE
  8
0
 10
283.929
 20
20.825
 11
284.036
 21
20.6028
  0
LINE
  8
0
 10
284.036
 20
20.6028
 11
284.109
 21
20.3672
  0
LINE
  8
0
 10
284.109
 20
20.3672
 11
284.145
 21
20.1233
  0
LINE
  8
0
 10
284.145
 20
20.1233
 11
284.145
 21
-20.1233
  0
LINE
  8
0
 10
284.145
 20
-20.1233
 11
284.109
 21
-20.3672
  0
LINE
  8
0
 10
284.109
 20
-20.3672
 11
284.036
 21
-20.6028
  0
LINE
  8
0
 10
284.036
 20
-20.6028
 11
283.929
 21
-20.825
  0
LINE
  8
0
 10
283.929
 20
-20.825
 11
283.79
 21
-21.0287
  0
LINE
  8
0
 10
283.79
 20
-21.0287
 11
283.622
 21
-21.2095
  0
LINE
  8
0
 10
283.622
 20
-21.2095
 11
283.429
 21
-21.3633
  0
LINE
  8
0
 10
283.429
 20
-21.3633
 11
283.216
 21
-21.4866
  0
LINE
  8
0
 10
283.216
 20
-21.4866
 11
282.986
 21
-21.5767
  0
LINE
  8
0
 10
282.986
 20
-21.5767
 11
282.746
 21
-21.6316
  0
LINE
  8
0
 10
282.746
 20
-21.6316
 11
282.5
 21
-21.65
  0
LINE
  8
0
 10
282.5
 20
-21.65
 11
282.254
 21
-21.6316
  0
LINE
  8
0
 10
-282.746
 20
-21.6316
 11
-282.986
 21
-21.5767
  0
LINE
  8
0
 10
-282.986
 20
-21.5767
 11
-283.216
 21
-21.4866
  0
LINE
  8
0
 10
-283.216
 20
-21.4866
 11
-283.429
 21
-21.3633
  0
LINE
  8
0
 10
-283.429
 20
-21.3633
 11
-283.622
 21
-21.2095
  0
LINE
  8
0
 10
-283.622
 20
-21.2095
 11
-283.79
 21
-21.0287
  0
LINE
  8
0
 10
-283.79
 20
-21.0287
 11
-283.929
 21
-20.825
  0
LINE
  8
0
 10
-283.929
 20
-20.825
 11
-284.036
 21
-20.6028
  0
LINE
  8
0
 10
-284.036
 20
-20.6028
 11
-284.109
 21
-20.3672
  0
LINE
  8
0
 10
-284.109
 20
-20.3672
 11
-284.145
 21
-20.1233
  0
LINE
  8
0
 10
-284.145
 20
-20.1233
 11
-284.145
 21
20.1233
  0
LINE
  8
0
 10
-284.145
 20
20.1233
 11
-284.109
 21
20.3672
  0
LINE
  8
0
 10
-284.109
 20
20.3672
 11
-284.036
 21
20.6028
  0
LINE
  8
0
 10
-284.036
 20
20.6028
 11
-283.929
 21
20.825
  0
LINE
  8
0
 10
-283.929
 20
20.825
 11
-283.79
 21
21.0287
  0
LINE
  8
0
 10
-283.79
 20
21.0287
 11
-283.622
 21
21.2095
  0
LINE
  8
0
 10
-283.622
 20
21.2095
 11
-283.429
 21
21.3633
  0
LINE
  8
0
 10
-283.429
 20
21.3633
 11
-283.216
 21
21.4866
  0
LINE
  8
0
 10
-283.216
 20
21.4866
 11
-282.986
 21
21.5767
  0
LINE
  8
0
 10
-282.986
 20
21.5767
 11
-282.746
 21
21.6316
  0
LINE
  8
0
 10
-282.746
 20
21.6316
 11
-282.5
 21
21.65
  0
LINE
  8
0
 10
-282.5
 20
21.65
 11
-282.254
 21
21.6316
  0
LINE
  8
0
 10
-282.254
 20
21.6316
 11
-282.014
 21
21.5767
  0
LINE
  8
0
 10
-282.014
 20
21.5767
 11
-281.784
 21
21.4866
  0
LINE
  8
0
 10
-281.784
 20
21.4866
 11
-281.571
 21
21.3633
  0
LINE
  8
0
 10
-281.571
 20
21.3633
 11
-281.378
 21
21.2095
  0
LINE
  8
0
 10
-281.378
 20
21.2095
 11
-281.21
 21
21.0287
  0
LINE
  8
0
 10
-281.21
 20
21.0287
 11
-281.071
 21
20.825
  0
LINE
  8
0
 10
-281.071
 20
20.825
 11
-280.964
 21
20.6028
  0
LINE
  8
0
 10
-280.964
 20
20.6028
 11
-280.891
 21
20.3672
  0
LINE
  8
0
 10
-280.891
 20
20.3672
 11
-280.855
 21
20.1233
  0
LINE
  8
0
 10
-280.855
 20
20.1233
 11
-280.855
 21
-20.1233
  0
LINE
  8
0
 10
-280.855
 20
-20.1233
 11
-280.891
 21
-20.3672
  0
LINE
  8
0
 10
-280.891
 20
-20.3672
 11
-280.964
 21
-20.6028
  0
LINE
  8
0
 10
-280.964
 20
-20.6028
 11
-281.071
 21
-20.825
  0
LINE
  8
0
 10
-281.071
 20
-20.825
 11
-281.21
 21
-21.0287
  0
LINE
  8
0
 10
-281.21
 20
-21.0287
 11
-281.378
 21
-21.2095
  0
LINE
  8
0
 10
-281.378
 20
-21.2095
 11
-281.571
 21
-21.3633
  0
LINE
  8
0
 10
-281.571
 20
-21.3633
 11
-281.784
 21
-21.4866
  0
LINE
  8
0
 10
-281.784
 20
-21.4866
 11
-282.014
 21
-21.5767
  0
LINE
  8
0
 10
-282.014
 20
-21.5767
 11
-282.254
 21
-21.6316
  0
LINE
  8
0
 10
-282.254
 20
-21.6316
 11
-282.5
 21
-21.65
  0
LINE
  8
0
 10
-282.5
 20
-21.65
 11
-282.746
 21
-21.6316
  0
LINE
  8
0
 10
-267.686
 20
-21.6898
 11
-267.93
 21
-21.6447
  0
LINE
  8
0
 10
-267.93
 20
-21.6447
 11
-268.165
 21
-21.5646
  0
LINE
  8
0
 10
-268.165
 20
-21.5646
 11
-268.386
 21
-21.4511
  0
LINE
  8
0
 10
-268.386
 20
-21.4511
 11
-268.587
 21
-21.3067
  0
LINE
  8
0
 10
-268.587
 20
-21.3067
 11
-268.766
 21
-21.1344
  0
LINE
  8
0
 10
-268.766
 20
-21.1344
 11
-268.918
 21
-20.938
  0
LINE
  8
0
 10
-268.918
 20
-20.938
 11
-269.039
 21
-20.7216
  0
LINE
  8
0
 10
-269.039
 20
-20.7216
 11
-269.128
 21
-20.4898
  0
LINE
  8
0
 10
-269.128
 20
-20.4898
 11
-269.182
 21
-20.2475
  0
LINE
  8
0
 10
-269.182
 20
-20.2475
 11
-269.2
 21
-20
  0
LINE
  8
0
 10
-269.2
 20
-20
 11
-269.182
 21
-19.7525
  0
LINE
  8
0
 10
-269.182
 20
-19.7525
 11
-269.128
 21
-19.5102
  0
LINE
  8
0
 10
-269.128
 20
-19.5102
 11
-269.039
 21
-19.2784
  0
LINE
  8
0
 10
-269.039
 20
-19.2784
 11
-268.918
 21
-19.062
  0
LINE
  8
0
 10
-268.918
 20
-19.062
 11
-268.766
 21
-18.8656
  0
LINE
  8
0
 10
-268.766
 20
-18.8656
 11
-268.587
 21
-18.6933
  0
LINE
  8
0
 10
-268.587
 20
-18.6933
 11
-268.386
 21
-18.5489
  0
LINE
  8
0
 10
-268.386
 20
-18.5489
 11
-268.165
 21
-18.4354
  0
LINE
  8
0
 10
-268.165
 20
-18.4354
 11
-267.93
 21
-18.3553
  0
LINE
  8
0
 10
-267.93
 20
-18.3553
 11
-267.686
 21
-18.3102
  0
LINE
  8
0
 10
-267.686
 20
-18.3102
 11
-267.438
 21
-18.3011
  0
LINE
  8
0
 10
-267.438
 20
-18.3011
 11
-267.191
 21
-18.3283
  0
LINE
  8
0
 10
-267.191
 20
-18.3283
 11
-266.951
 21
-18.3911
  0
LINE
  8
0
 10
-266.951
 20
-18.3911
 11
-266.723
 21
-18.4881
  0
LINE
  8
0
 10
-266.723
 20
-18.4881
 11
-266.511
 21
-18.6174
  0
LINE
  8
0
 10
-266.511
 20
-18.6174
 11
-266.32
 21
-18.7762
  0
LINE
  8
0
 10
-266.32
 20
-18.7762
 11
-266.154
 21
-18.961
  0
LINE
  8
0
 10
-266.154
 20
-18.961
 11
-266.018
 21
-19.168
  0
LINE
  8
0
 10
-266.018
 20
-19.168
 11
-265.912
 21
-19.3927
  0
LINE
  8
0
 10
-265.912
 20
-19.3927
 11
-265.841
 21
-19.6304
  0
LINE
  8
0
 10
-265.841
 20
-19.6304
 11
-265.805
 21
-19.8759
  0
LINE
  8
0
 10
-265.805
 20
-19.8759
 11
-265.805
 21
-20.1241
  0
LINE
  8
0
 10
-265.805
 20
-20.1241
 11
-265.841
 21
-20.3696
  0
LINE
  8
0
 10
-265.841
 20
-20.3696
 11
-265.912
 21
-20.6073
  0
LINE
  8
0
 10
-265.912
 20
-20.6073
 11
-266.018
 21
-20.832
  0
LINE
  8
0
 10
-266.018
 20
-20.832
 11
-266.154
 21
-21.039
  0
LINE
  8
0
 10
-266.154
 20
-21.039
 11
-266.32
 21
-21.2238
  0
LINE
  8
0
 10
-266.32
 20
-21.2238
 11
-266.511
 21
-21.3826
  0
LINE
  8
0
 10
-266.511
 20
-21.3826
 11
-266.723
 21
-21.5119
  0
LINE
  8
0
 10
-266.723
 20
-21.5119
 11
-266.951
 21
-21.6089
  0
LINE
  8
0
 10
-266.951
 20
-21.6089
 11
-267.191
 21
-21.6717
  0
LINE
  8
0
 10
-267.191
 20
-21.6717
 11
-267.438
 21
-21.6989
  0
LINE
  8
0
 10
-267.438
 20
-21.6989
 11
-267.686
 21
-21.6898
  0
LINE
  8
0
 10
267.191
 20
-21.6717
 11
266.951
 21
-21.6089
  0
LINE
  8
0
 10
266.951
 20
-21.6089
 11
266.723
 21
-21.5119
  0
LINE
  8
0
 10
266.723
 20
-21.5119
 11
266.511
 21
-21.3826
  0
LINE
  8
0
 10
266.511
 20
-21.3826
 11
266.32
 21
-21.2238
  0
LINE
  8
0
 10
266.32
 20
-21.2238
 11
266.154
 21
-21.039
  0
LINE
  8
0
 10
266.154
 20
-21.039
 11
266.018
 21
-20.832
  0
LINE
  8
0
 10
266.018
 20
-20.832
 11
265.912
 21
-20.6073
  0
LINE
  8
0
 10
265.912
 20
-20.6073
 11
265.841
 21
-20.3696
  0
LINE
  8
0
 10
265.841
 20
-20.3696
 11
265.805
 21
-20.1241
  0
LINE
  8
0
 10
265.805
 20
-20.1241
 11
265.805
 21
-19.8759
  0
LINE
  8
0
 10
265.805
 20
-19.8759
 11
265.841
 21
-19.6304
  0
LINE
  8
0
 10
265.841
 20
-19.6304
 11
265.912
 21
-19.3927
  0
LINE
  8
0
 10
265.912
 20
-19.3927
 11
266.018
 21
-19.168
  0
LINE
  8
0
 10
266.018
 20
-19.168
 11
266.154
 21
-18.961
  0
LINE
  8
0
 10
266.154
 20
-18.961
 11
266.32
 21
-18.7762
  0
LINE
  8
0
 10
266.32
 20
-18.7762
 11
266.511
 21
-18.6174
  0
LINE
  8
0
 10
266.511
 20
-18.6174
 11
266.723
 21
-18.4881
  0
LINE
  8
0
 10
266.723
 20
-18.4881
 11
266.951
 21
-18.3911
  0
LINE
  8
0
 10
266.951
 20
-18.3911
 11
267.191
 21
-18.3283
  0
LINE
  8
0
 10
267.191
 20
-18.3283
 11
267.438
 21
-18.3011
  0
LINE
  8
0
 10
267.438
 20
-18.3011
 11
267.686
 21
-18.3102
  0
LINE
  8
0
 10
267.686
 20
-18.3102
 11
267.93
 21
-18.3553
  0
LINE
  8
0
 10
267.93
 20
-18.3553
 11
268.165
 21
-18.4354
  0
LINE
  8
0
 10
268.165
 20
-18.4354
 11
268.386
 21
-18.5489
  0
LINE
  8
0
 10
268.386
 20
-18.5489
 11
268.587
 21
-18.6933
  0
LINE
  8
0
 10
268.587
 20
-18.6933
 11
268.766
 21
-18.8656
  0
LINE
  8
0
 10
268.766
 20
-18.8656
 11
268.918
 21
-19.062
  0
LINE
  8
0
 10
268.918
 20
-19.062
 11
269.039
 21
-19.2784
  0
LINE
  8
0
 10
269.039
 20
-19.2784
 11
269.128
 21
-19.5102
  0
LINE
  8
0
 10
269.128
 20
-19.5102
 11
269.182
 21
-19.7525
  0
LINE
  8
0
 10
269.182
 20
-19.7525
 11
269.2
 21
-20
  0
LINE
  8
0
 10
269.2
 20
-20
 11
269.182
 21
-20.2475
  0
LINE
  8
0
 10
269.182
 20
-20.2475
 11
269.128
 21
-20.4898
  0
LINE
  8
0
 10
269.128
 20
-20.4898
 11
269.039
 21
-20.7216
  0
LINE
  8
0
 10
269.039
 20
-20.7216
 11
268.918
 21
-20.938
  0
LINE
  8
0
 10
268.918
 20
-20.938
 11
268.766
 21
-21.1344
  0
LINE
  8
0
 10
268.766
 20
-21.1344
 11
268.587
 21
-21.3067
  0
LINE
  8
0
 10
268.587
 20
-21.3067
 11
268.386
 21
-21.4511
  0
LINE
  8
0
 10
268.386
 20
-21.4511
 11
268.165
 21
-21.5646
  0
LINE
  8
0
 10
268.165
 20
-21.5646
 11
267.93
 21
-21.6447
  0
LINE
  8
0
 10
267.93
 20
-21.6447
 11
267.686
 21
-21.6898
  0
LINE
  8
0
 10
267.686
 20
-21.6898
 11
267.438
 21
-21.6989
  0
LINE
  8
0
 10
267.438
 20
-21.6989
 11
267.191
 21
-21.6717
  0
LINE
  8
0
 10
-282.746
 20
-75.3316
 11
-282.986
 21
-75.2767
  0
LINE
  8
0
 10
-282.986
 20
-75.2767
 11
-283.216
 21
-75.1866
  0
LINE
  8
0
 10
-283.216
 20
-75.1866
 11
-283.429
 21
-75.0633
  0
LINE
  8
0
 10
-283.429
 20
-75.0633
 11
-283.622
 21
-74.9095
  0
LINE
  8
0
 10
-283.622
 20
-74.9095
 11
-283.79
 21
-74.7288
  0
LINE
  8
0
 10
-283.79
 20
-74.7288
 11
-283.929
 21
-74.525
  0
LINE
  8
0
 10
-283.929
 20
-74.525
 11
-284.036
 21
-74.3028
  0
LINE
  8
0
 10
-284.036
 20
-74.3028
 11
-284.109
 21
-74.0672
  0
LINE
  8
0
 10
-284.109
 20
-74.0672
 11
-284.145
 21
-73.8233
  0
LINE
  8
0
 10
-284.145
 20
-73.8233
 11
-284.145
 21
-33.5767
  0
LINE
  8
0
 10
-284.145
 20
-33.5767
 11
-284.109
 21
-33.3328
  0
LINE
  8
0
 10
-284.109
 20
-33.3328
 11
-284.036
 21
-33.0972
  0
LINE
  8
0
 10
-284.036
 20
-33.0972
 11
-283.929
 21
-32.875
  0
LINE
  8
0
 10
-283.929
 20
-32.875
 11
-283.79
 21
-32.6712
  0
LINE
  8
0
 10
-283.79
 20
-32.6712
 11
-283.622
 21
-32.4905
  0
LINE
  8
0
 10
-283.622
 20
-32.4905
 11
-283.429
 21
-32.3367
  0
LINE
  8
0
 10
-283.429
 20
-32.3367
 11
-283.216
 21
-32.2134
  0
LINE
  8
0
 10
-283.216
 20
-32.2134
 11
-282.986
 21
-32.1233
  0
LINE
  8
0
 10
-282.986
 20
-32.1233
 11
-282.746
 21
-32.0684
  0
LINE
  8
0
 10
-282.746
 20
-32.0684
 11
-282.5
 21
-32.05
  0
LINE
  8
0
 10
-282.5
 20
-32.05
 11
-282.254
 21
-32.0684
  0
LINE
  8
0
 10
-282.254
 20
-32.0684
 11
-282.014
 21
-32.1233
  0
LINE
  8
0
 10
-282.014
 20
-32.1233
 11
-281.784
 21
-32.2134
  0
LINE
  8
0
 10
-281.784
 20
-32.2134
 11
-281.571
 21
-32.3367
  0
LINE
  8
0
 10
-281.571
 20
-32.3367
 11
-281.378
 21
-32.4905
  0
LINE
  8
0
 10
-281.378
 20
-32.4905
 11
-281.21
 21
-32.6712
  0
LINE
  8
0
 10
-281.21
 20
-32.6712
 11
-281.071
 21
-32.875
  0
LINE
  8
0
 10
-281.071
 20
-32.875
 11
-280.964
 21
-33.0972
  0
LINE
  8
0
 10
-280.964
 20
-33.0972
 11
-280.891
 21
-33.3328
  0
LINE
  8
0
 10
-280.891
 20
-33.3328
 11
-280.855
 21
-33.5767
  0
LINE
  8
0
 10
-280.855
 20
-33.5767
 11
-280.855
 21
-73.8233
  0
LINE
  8
0
 10
-280.855
 20
-73.8233
 11
-280.891
 21
-74.0672
  0
LINE
  8
0
 10
-280.891
 20
-74.0672
 11
-280.964
 21
-74.3028
  0
LINE
  8
0
 10
-280.964
 20
-74.3028
 11
-281.071
 21
-74.525
  0
LINE
  8
0
 10
-281.071
 20
-74.525
 11
-281.21
 21
-74.7288
  0
LINE
  8
0
 10
-281.21
 20
-74.7288
 11
-281.378
 21
-74.9095
  0
LINE
  8
0
 10
-281.378
 20
-74.9095
 11
-281.571
 21
-75.0633
  0
LINE
  8
0
 10
-281.571
 20
-75.0633
 11
-281.784
 21
-75.1866
  0
LINE
  8
0
 10
-281.784
 20
-75.1866
 11
-282.014
 21
-75.2767
  0
LINE
  8
0
 10
-282.014
 20
-75.2767
 11
-282.254
 21
-75.3316
  0
LINE
  8
0
 10
-282.254
 20
-75.3316
 11
-282.5
 21
-75.35
  0
LINE
  8
0
 10
-282.5
 20
-75.35
 11
-282.746
 21
-75.3316
  0
LINE
  8
0
 10
282.254
 20
-75.3316
 11
282.014
 21
-75.2767
  0
LINE
  8
0
 10
282.014
 20
-75.2767
 11
281.784
 21
-75.1866
  0
LINE
  8
0
 10
281.784
 20
-75.1866
 11
281.571
 21
-75.0633
  0
LINE
  8
0
 10
281.571
 20
-75.0633
 11
281.378
 21
-74.9095
  0
LINE
  8
0
 10
281.378
 20
-74.9095
 11
281.21
 21
-74.7288
  0
LINE
  8
0
 10
281.21
 20
-74.7288
 11
281.071
 21
-74.525
  0
LINE
  8
0
 10
281.071
 20
-74.525
 11
280.964
 21
-74.3028
  0
LINE
  8
0
 10
280.964
 20
-74.3028
 11
280.891
 21
-74.0672
  0
LINE
  8
0
 10
280.891
 20
-74.0672
 11
280.855
 21
-73.8233
  0
LINE
  8
0
 10
280.855
 20
-73.8233
 11
280.855
 21
-33.5767
  0
LINE
  8
0
 10
280.855
 20
-33.5767
 11
280.891
 21
-33.3328
  0
LINE
  8
0
 10
280.891
 20
-33.3328
 11
280.964
 21
-33.0972
  0
LINE
  8
0
 10
280.964
 20
-33.0972
 11
281.071
 21
-32.875
  0
LINE
  8
0
 10
281.071
 20
-32.875
 11
281.21
 21
-32.6712
  0
LINE
  8
0
 10
281.21
 20
-32.6712
 11
281.378
 21
-32.4905
  0
LINE
  8
0
 10
281.378
 20
-32.4905
 11
281.571
 21
-32.3367
  0
LINE
  8
0
 10
281.571
 20
-32.3367
 11
281.784
 21
-32.2134
  0
LINE
  8
0
 10
281.784
 20
-32.2134
 11
282.014
 21
-32.1233
  0
LINE
  8
0
 10
282.014
 20
-32.1233
 11
282.254
 21
-32.0684
  0
LINE
  8
0
 10
282.254
 20
-32.0684
 11
282.5
 21
-32.05
  0
LINE
  8
0
 10
282.5
 20
-32.05
 11
282.746
 21
-32.0684
  0
LINE
  8
0
 10
282.746
 20
-32.0684
 11
282.986
 21
-32.1233
  0
LINE
  8
0
 10
282.986
 20
-32.1233
 11
283.216
 21
-32.2134
  0
LINE
  8
0
 10
283.216
 20
-32.2134
 11
283.429
 21
-32.3367
  0
LINE
  8
0
 10
283.429
 20
-32.3367
 11
283.622
 21
-32.4905
  0
LINE
  8
0
 10
283.622
 20
-32.4905
 11
283.79
 21
-32.6712
  0
LINE
  8
0
 10
283.79
 20
-32.6712
 11
283.929
 21
-32.875
  0
LINE
  8
0
 10
283.929
 20
-32.875
 11
284.036
 21
-33.0972
  0
LINE
  8
0
 10
284.036
 20
-33.0972
 11
284.109
 21
-33.3328
  0
LINE
  8
0
 10
284.109
 20
-33.3328
 11
284.145
 21
-33.5767
  0
LINE
  8
0
 10
284.145
 20
-33.5767
 11
284.145
 21
-73.8233
  0
LINE
  8
0
 10
284.145
 20
-73.8233
 11
284.109
 21
-74.0672
  0
LINE
  8
0
 10
284.109
 20
-74.0672
 11
284.036
 21
-74.3028
  0
LINE
  8
0
 10
284.036
 20
-74.3028
 11
283.929
 21
-74.525
  0
LINE
  8
0
 10
283.929
 20
-74.525
 11
283.79
 21
-74.7288
  0
LINE
  8
0
 10
283.79
 20
-74.7288
 11
283.622
 21
-74.9095
  0
LINE
  8
0
 10
283.622
 20
-74.9095
 11
283.429
 21
-75.0633
  0
LINE
  8
0
 10
283.429
 20
-75.0633
 11
283.216
 21
-75.1866
  0
LINE
  8
0
 10
283.216
 20
-75.1866
 11
282.986
 21
-75.2767
  0
LINE
  8
0
 10
282.986
 20
-75.2767
 11
282.746
 21
-75.3316
  0
LINE
  8
0
 10
282.746
 20
-75.3316
 11
282.5
 21
-75.35
  0
LINE
  8
0
 10
282.5
 20
-75.35
 11
282.254
 21
-75.3316
  0
LINE
  8
0
 10
224.691
 20
-64.1717
 11
224.451
 21
-64.1089
  0
LINE
  8
0
 10
224.451
 20
-64.1089
 11
224.223
 21
-64.0119
  0
LINE
  8
0
 10
224.223
 20
-64.0119
 11
224.011
 21
-63.8826
  0
LINE
  8
0
 10
224.011
 20
-63.8826
 11
223.82
 21
-63.7238
  0
LINE
  8
0
 10
223.82
 20
-63.7238
 11
223.654
 21
-63.539
  0
LINE
  8
0
 10
223.654
 20
-63.539
 11
223.518
 21
-63.332
  0
LINE
  8
0
 10
223.518
 20
-63.332
 11
223.412
 21
-63.1073
  0
LINE
  8
0
 10
223.412
 20
-63.1073
 11
223.341
 21
-62.8696
  0
LINE
  8
0
 10
223.341
 20
-62.8696
 11
223.305
 21
-62.6241
  0
LINE
  8
0
 10
223.305
 20
-62.6241
 11
223.305
 21
-62.3759
  0
LINE
  8
0
 10
223.305
 20
-62.3759
 11
223.341
 21
-62.1304
  0
LINE
  8
0
 10
223.341
 20
-62.1304
 11
223.412
 21
-61.8927
  0
LINE
  8
0
 10
223.412
 20
-61.8927
 11
223.518
 21
-61.668
  0
LINE
  8
0
 10
223.518
 20
-61.668
 11
223.654
 21
-61.461
  0
LINE
  8
0
 10
223.654
 20
-61.461
 11
223.82
 21
-61.2762
  0
LINE
  8
0
 10
223.82
 20
-61.2762
 11
224.011
 21
-61.1174
  0
LINE
  8
0
 10
224.011
 20
-61.1174
 11
224.223
 21
-60.9881
  0
LINE
  8
0
 10
224.223
 20
-60.9881
 11
224.451
 21
-60.8911
  0
LINE
  8
0
 10
224.451
 20
-60.8911
 11
224.691
 21
-60.8283
  0
LINE
  8
0
 10
224.691
 20
-60.8283
 11
224.938
 21
-60.8011
  0
LINE
  8
0
 10
224.938
 20
-60.8011
 11
225.186
 21
-60.8102
  0
LINE
  8
0
 10
225.186
 20
-60.8102
 11
225.43
 21
-60.8553
  0
LINE
  8
0
 10
225.43
 20
-60.8553
 11
225.665
 21
-60.9354
  0
LINE
  8
0
 10
225.665
 20
-60.9354
 11
225.886
 21
-61.0489
  0
LINE
  8
0
 10
225.886
 20
-61.0489
 11
226.087
 21
-61.1933
  0
LINE
  8
0
 10
226.087
 20
-61.1933
 11
226.266
 21
-61.3656
  0
LINE
  8
0
 10
226.266
 20
-61.3656
 11
226.418
 21
-61.562
  0
LINE
  8
0
 10
226.418
 20
-61.562
 11
226.539
 21
-61.7784
  0
LINE
  8
0
 10
226.539
 20
-61.7784
 11
226.628
 21
-62.0102
  0
LINE
  8
0
 10
226.628
 20
-62.0102
 11
226.682
 21
-62.2525
  0
LINE
  8
0
 10
226.682
 20
-62.2525
 11
226.7
 21
-62.5
  0
LINE
  8
0
 10
226.7
 20
-62.5
 11
226.682
 21
-62.7475
  0
LINE
  8
0
 10
226.682
 20
-62.7475
 11
226.628
 21
-62.9898
  0
LINE
  8
0
 10
226.628
 20
-62.9898
 11
226.539
 21
-63.2216
  0
LINE
  8
0
 10
226.539
 20
-63.2216
 11
226.418
 21
-63.438
  0
LINE
  8
0
 10
226.418
 20
-63.438
 11
226.266
 21
-63.6344
  0
LINE
  8
0
 10
226.266
 20
-63.6344
 11
226.087
 21
-63.8067
  0
LINE
  8
0
 10
226.087
 20
-63.8067
 11
225.886
 21
-63.9511
  0
LINE
  8
0
 10
225.886
 20
-63.9511
 11
225.665
 21
-64.0646
  0
LINE
  8
0
 10
225.665
 20
-64.0646
 11
225.43
 21
-64.1447
  0
LINE
  8
0
 10
225.43
 20
-64.1447
 11
225.186
 21
-64.1898
  0
LINE
  8
0
 10
225.186
 20
-64.1898
 11
224.938
 21
-64.1989
  0
LINE
  8
0
 10
224.938
 20
-64.1989
 11
224.691
 21
-64.1717
  0
LINE
  8
0
 10
134.691
 20
-64.1717
 11
134.451
 21
-64.1089
  0
LINE
  8
0
 10
134.451
 20
-64.1089
 11
134.223
 21
-64.0119
  0
LINE
  8
0
 10
134.223
 20
-64.0119
 11
134.011
 21
-63.8826
  0
LINE
  8
0
 10
134.011
 20
-63.8826
 11
133.82
 21
-63.7238
  0
LINE
  8
0
 10
133.82
 20
-63.7238
 11
133.654
 21
-63.539
  0
LINE
  8
0
 10
133.654
 20
-63.539
 11
133.518
 21
-63.332
  0
LINE
  8
0
 10
133.518
 20
-63.332
 11
133.412
 21
-63.1073
  0
LINE
  8
0
 10
133.412
 20
-63.1073
 11
133.341
 21
-62.8696
  0
LINE
  8
0
 10
133.341
 20
-62.8696
 11
133.305
 21
-62.6241
  0
LINE
  8
0
 10
133.305
 20
-62.6241
 11
133.305
 21
-62.3759
  0
LINE
  8
0
 10
133.305
 20
-62.3759
 11
133.341
 21
-62.1304
  0
LINE
  8
0
 10
133.341
 20
-62.1304
 11
133.412
 21
-61.8927
  0
LINE
  8
0
 10
133.412
 20
-61.8927
 11
133.518
 21
-61.668
  0
LINE
  8
0
 10
133.518
 20
-61.668
 11
133.654
 21
-61.461
  0
LINE
  8
0
 10
133.654
 20
-61.461
 11
133.82
 21
-61.2762
  0
LINE
  8
0
 10
133.82
 20
-61.2762
 11
134.011
 21
-61.1174
  0
LINE
  8
0
 10
134.011
 20
-61.1174
 11
134.223
 21
-60.9881
  0
LINE
  8
0
 10
134.223
 20
-60.9881
 11
134.451
 21
-60.8911
  0
LINE
  8
0
 10
134.451
 20
-60.8911
 11
134.691
 21
-60.8283
  0
LINE
  8
0
 10
134.691
 20
-60.8283
 11
134.938
 21
-60.8011
  0
LINE
  8
0
 10
134.938
 20
-60.8011
 11
135.186
 21
-60.8102
  0
LINE
  8
0
 10
135.186
 20
-60.8102
 11
135.43
 21
-60.8553
  0
LINE
  8
0
 10
135.43
 20
-60.8553
 11
135.665
 21
-60.9354
  0
LINE
  8
0
 10
135.665
 20
-60.9354
 11
135.886
 21
-61.0489
  0
LINE
  8
0
 10
135.886
 20
-61.0489
 11
136.087
 21
-61.1933
  0
LINE
  8
0
 10
136.087
 20
-61.1933
 11
136.266
 21
-61.3656
  0
LINE
  8
0
 10
136.266
 20
-61.3656
 11
136.418
 21
-61.562
  0
LINE
  8
0
 10
136.418
 20
-61.562
 11
136.539
 21
-61.7784
  0
LINE
  8
0
 10
136.539
 20
-61.7784
 11
136.628
 21
-62.0102
  0
LINE
  8
0
 10
136.628
 20
-62.0102
 11
136.682
 21
-62.2525
  0
LINE
  8
0
 10
136.682
 20
-62.2525
 11
136.7
 21
-62.5
  0
LINE
  8
0
 10
136.7
 20
-62.5
 11
136.682
 21
-62.7475
  0
LINE
  8
0
 10
136.682
 20
-62.7475
 11
136.628
 21
-62.9898
  0
LINE
  8
0
 10
136.628
 20
-62.9898
 11
136.539
 21
-63.2216
  0
LINE
  8
0
 10
136.539
 20
-63.2216
 11
136.418
 21
-63.438
  0
LINE
  8
0
 10
136.418
 20
-63.438
 11
136.266
 21
-63.6344
  0
LINE
  8
0
 10
136.266
 20
-63.6344
 11
136.087
 21
-63.8067
  0
LINE
  8
0
 10
136.087
 20
-63.8067
 11
135.886
 21
-63.9511
  0
LINE
  8
0
 10
135.886
 20
-63.9511
 11
135.665
 21
-64.0646
  0
LINE
  8
0
 10
135.665
 20
-64.0646
 11
135.43
 21
-64.1447
  0
LINE
  8
0
 10
135.43
 20
-64.1447
 11
135.186
 21
-64.1898
  0
LINE
  8
0
 10
135.186
 20
-64.1898
 11
134.938
 21
-64.1989
  0
LINE
  8
0
 10
134.938
 20
-64.1989
 11
134.691
 21
-64.1717
  0
LINE
  8
0
 10
44.6912
 20
-64.1717
 11
44.4511
 21
-64.1089
  0
LINE
  8
0
 10
44.4511
 20
-64.1089
 11
44.2227
 21
-64.0119
  0
LINE
  8
0
 10
44.2227
 20
-64.0119
 11
44.0108
 21
-63.8826
  0
LINE
  8
0
 10
44.0108
 20
-63.8826
 11
43.8201
 21
-63.7238
  0
LINE
  8
0
 10
43.8201
 20
-63.7238
 11
43.6544
 21
-63.539
  0
LINE
  8
0
 10
43.6544
 20
-63.539
 11
43.5175
 21
-63.332
  0
LINE
  8
0
 10
43.5175
 20
-63.332
 11
43.4122
 21
-63.1073
  0
LINE
  8
0
 10
43.4122
 20
-63.1073
 11
43.3407
 21
-62.8696
  0
LINE
  8
0
 10
43.3407
 20
-62.8696
 11
43.3045
 21
-62.6241
  0
LINE
  8
0
 10
43.3045
 20
-62.6241
 11
43.3045
 21
-62.3759
  0
LINE
  8
0
 10
43.3045
 20
-62.3759
 11
43.3407
 21
-62.1304
  0
LINE
  8
0
 10
43.3407
 20
-62.1304
 11
43.4122
 21
-61.8927
  0
LINE
  8
0
 10
43.4122
 20
-61.8927
 11
43.5175
 21
-61.668
  0
LINE
  8
0
 10
43.5175
 20
-61.668
 11
43.6544
 21
-61.461
  0
LINE
  8
0
 10
43.6544
 20
-61.461
 11
43.8201
 21
-61.2762
  0
LINE
  8
0
 10
43.8201
 20
-61.2762
 11
44.0108
 21
-61.1174
  0
LINE
  8
0
 10
44.0108
 20
-61.1174
 11
44.2227
 21
-60.9881
  0
LINE
  8
0
 10
44.2227
 20
-60.9881
 11
44.4511
 21
-60.8911
  0
LINE
  8
0
 10
44.4511
 20
-60.8911
 11
44.6912
 21
-60.8283
  0
LINE
  8
0
 10
44.6912
 20
-60.8283
 11
44.9379
 21
-60.8011
  0
LINE
  8
0
 10
44.9379
 20
-60.8011
 11
45.1859
 21
-60.8102
  0
LINE
  8
0
 10
45.1859
 20
-60.8102
 11
45.43
 21
-60.8553
  0
LINE
  8
0
 10
45.43
 20
-60.8553
 11
45.6649
 21
-60.9354
  0
LINE
  8
0
 10
45.6649
 20
-60.9354
 11
45.8856
 21
-61.0489
  0
LINE
  8
0
 10
45.8856
 20
-61.0489
 11
46.0874
 21
-61.1933
  0
LINE
  8
0
 10
46.0874
 20
-61.1933
 11
46.2661
 21
-61.3656
  0
LINE
  8
0
 10
46.2661
 20
-61.3656
 11
46.4178
 21
-61.562
  0
LINE
  8
0
 10
46.4178
 20
-61.562
 11
46.5393
 21
-61.7784
  0
LINE
  8
0
 10
46.5393
 20
-61.7784
 11
46.6279
 21
-62.0102
  0
LINE
  8
0
 10
46.6279
 20
-62.0102
 11
46.6819
 21
-62.2525
  0
LINE
  8
0
 10
46.6819
 20
-62.2525
 11
46.7
 21
-62.5
  0
LINE
  8
0
 10
46.7
 20
-62.5
 11
46.6819
 21
-62.7475
  0
LINE
  8
0
 10
46.6819
 20
-62.7475
 11
46.6279
 21
-62.9898
  0
LINE
  8
0
 10
46.6279
 20
-62.9898
 11
46.5393
 21
-63.2216
  0
LINE
  8
0
 10
46.5393
 20
-63.2216
 11
46.4178
 21
-63.438
  0
LINE
  8
0
 10
46.4178
 20
-63.438
 11
46.2661
 21
-63.6344
  0
LINE
  8
0
 10
46.2661
 20
-63.6344
 11
46.0874
 21
-63.8067
  0
LINE
  8
0
 10
46.0874
 20
-63.8067
 11
45.8856
 21
-63.9511
  0
LINE
  8
0
 10
45.8856
 20
-63.9511
 11
45.6649
 21
-64.0646
  0
LINE
  8
0
 10
45.6649
 20
-64.0646
 11
45.43
 21
-64.1447
  0
LINE
  8
0
 10
45.43
 20
-64.1447
 11
45.1859
 21
-64.1898
  0
LINE
  8
0
 10
45.1859
 20
-64.1898
 11
44.9379
 21
-64.1989
  0
LINE
  8
0
 10
44.9379
 20
-64.1989
 11
44.6912
 21
-64.1717
  0
LINE
  8
0
 10
-45.3088
 20
-64.1717
 11
-45.5489
 21
-64.1089
  0
LINE
  8
0
 10
-45.5489
 20
-64.1089
 11
-45.7773
 21
-64.0119
  0
LINE
  8
0
 10
-45.7773
 20
-64.0119
 11
-45.9892
 21
-63.8826
  0
LINE
  8
0
 10
-45.9892
 20
-63.8826
 11
-46.1799
 21
-63.7238
  0
LINE
  8
0
 10
-46.1799
 20
-63.7238
 11
-46.3455
 21
-63.539
  0
LINE
  8
0
 10
-46.3455
 20
-63.539
 11
-46.4825
 21
-63.332
  0
LINE
  8
0
 10
-46.4825
 20
-63.332
 11
-46.5878
 21
-63.1073
  0
LINE
  8
0
 10
-46.5878
 20
-63.1073
 11
-46.6593
 21
-62.8696
  0
LINE
  8
0
 10
-46.6593
 20
-62.8696
 11
-46.6955
 21
-62.6241
  0
LINE
  8
0
 10
-46.6955
 20
-62.6241
 11
-46.6955
 21
-62.3759
  0
LINE
  8
0
 10
-46.6955
 20
-62.3759
 11
-46.6593
 21
-62.1304
  0
LINE
  8
0
 10
-46.6593
 20
-62.1304
 11
-46.5878
 21
-61.8927
  0
LINE
  8
0
 10
-46.5878
 20
-61.8927
 11
-46.4825
 21
-61.668
  0
LINE
  8
0
 10
-46.4825
 20
-61.668
 11
-46.3455
 21
-61.461
  0
LINE
  8
0
 10
-46.3455
 20
-61.461
 11
-46.1799
 21
-61.2762
  0
LINE
  8
0
 10
-46.1799
 20
-61.2762
 11
-45.9892
 21
-61.1174
  0
LINE
  8
0
 10
-45.9892
 20
-61.1174
 11
-45.7773
 21
-60.9881
  0
LINE
  8
0
 10
-45.7773
 20
-60.9881
 11
-45.5489
 21
-60.8911
  0
LINE
  8
0
 10
-45.5489
 20
-60.8911
 11
-45.3088
 21
-60.8283
  0
LINE
  8
0
 10
-45.3088
 20
-60.8283
 11
-45.0621
 21
-60.8011
  0
LINE
  8
0
 10
-45.0621
 20
-60.8011
 11
-44.8141
 21
-60.8102
  0
LINE
  8
0
 10
-44.8141
 20
-60.8102
 11
-44.57
 21
-60.8553
  0
LINE
  8
0
 10
-44.57
 20
-60.8553
 11
-44.3351
 21
-60.9354
  0
LINE
  8
0
 10
-44.3351
 20
-60.9354
 11
-44.1144
 21
-61.0489
  0
LINE
  8
0
 10
-44.1144
 20
-61.0489
 11
-43.9126
 21
-61.1933
  0
LINE
  8
0
 10
-43.9126
 20
-61.1933
 11
-43.7339
 21
-61.3656
  0
LINE
  8
0
 10
-43.7339
 20
-61.3656
 11
-43.5822
 21
-61.562
  0
LINE
  8
0
 10
-43.5822
 20
-61.562
 11
-43.4607
 21
-61.7784
  0
LINE
  8
0
 10
-43.4607
 20
-61.7784
 11
-43.3721
 21
-62.0102
  0
LINE
  8
0
 10
-43.3721
 20
-62.0102
 11
-43.3181
 21
-62.2525
  0
LINE
  8
0
 10
-43.3181
 20
-62.2525
 11
-43.3
 21
-62.5
  0
LINE
  8
0
 10
-43.3
 20
-62.5
 11
-43.3181
 21
-62.7475
  0
LINE
  8
0
 10
-43.3181
 20
-62.7475
 11
-43.3721
 21
-62.9898
  0
LINE
  8
0
 10
-43.3721
 20
-62.9898
 11
-43.4607
 21
-63.2216
  0
LINE
  8
0
 10
-43.4607
 20
-63.2216
 11
-43.5822
 21
-63.438
  0
LINE
  8
0
 10
-43.5822
 20
-63.438
 11
-43.7339
 21
-63.6344
  0
LINE
  8
0
 10
-43.7339
 20
-63.6344
 11
-43.9126
 21
-63.8067
  0
LINE
  8
0
 10
-43.9126
 20
-63.8067
 11
-44.1144
 21
-63.9511
  0
LINE
  8
0
 10
-44.1144
 20
-63.9511
 11
-44.3351
 21
-64.0646
  0
LINE
  8
0
 10
-44.3351
 20
-64.0646
 11
-44.57
 21
-64.1447
  0
LINE
  8
0
 10
-44.57
 20
-64.1447
 11
-44.8141
 21
-64.1898
  0
LINE
  8
0
 10
-44.8141
 20
-64.1898
 11
-45.0621
 21
-64.1989
  0
LINE
  8
0
 10
-45.0621
 20
-64.1989
 11
-45.3088
 21
-64.1717
  0
LINE
  8
0
 10
-135.309
 20
-64.1717
 11
-135.549
 21
-64.1089
  0
LINE
  8
0
 10
-135.549
 20
-64.1089
 11
-135.777
 21
-64.0119
  0
LINE
  8
0
 10
-135.777
 20
-64.0119
 11
-135.989
 21
-63.8826
  0
LINE
  8
0
 10
-135.989
 20
-63.8826
 11
-136.18
 21
-63.7238
  0
LINE
  8
0
 10
-136.18
 20
-63.7238
 11
-136.346
 21
-63.539
  0
LINE
  8
0
 10
-136.346
 20
-63.539
 11
-136.482
 21
-63.332
  0
LINE
  8
0
 10
-136.482
 20
-63.332
 11
-136.588
 21
-63.1073
  0
LINE
  8
0
 10
-136.588
 20
-63.1073
 11
-136.659
 21
-62.8696
  0
LINE
  8
0
 10
-136.659
 20
-62.8696
 11
-136.695
 21
-62.6241
  0
LINE
  8
0
 10
-136.695
 20
-62.6241
 11
-136.695
 21
-62.3759
  0
LINE
  8
0
 10
-136.695
 20
-62.3759
 11
-136.659
 21
-62.1304
  0
LINE
  8
0
 10
-136.659
 20
-62.1304
 11
-136.588
 21
-61.8927
  0
LINE
  8
0
 10
-136.588
 20
-61.8927
 11
-136.482
 21
-61.668
  0
LINE
  8
0
 10
-136.482
 20
-61.668
 11
-136.346
 21
-61.461
  0
LINE
  8
0
 10
-136.346
 20
-61.461
 11
-136.18
 21
-61.2762
  0
LINE
  8
0
 10
-136.18
 20
-61.2762
 11
-135.989
 21
-61.1174
  0
LINE
  8
0
 10
-135.989
 20
-61.1174
 11
-135.777
 21
-60.9881
  0
LINE
  8
0
 10
-135.777
 20
-60.9881
 11
-135.549
 21
-60.8911
  0
LINE
  8
0
 10
-135.549
 20
-60.8911
 11
-135.309
 21
-60.8283
  0
LINE
  8
0
 10
-135.309
 20
-60.8283
 11
-135.062
 21
-60.8011
  0
LINE
  8
0
 10
-135.062
 20
-60.8011
 11
-134.814
 21
-60.8102
  0
LINE
  8
0
 10
-134.814
 20
-60.8102
 11
-134.57
 21
-60.8553
  0
LINE
  8
0
 10
-134.57
 20
-60.8553
 11
-134.335
 21
-60.9354
  0
LINE
  8
0
 10
-134.335
 20
-60.9354
 11
-134.114
 21
-61.0489
  0
LINE
  8
0
 10
-134.114
 20
-61.0489
 11
-133.913
 21
-61.1933
  0
LINE
  8
0
 10
-133.913
 20
-61.1933
 11
-133.734
 21
-61.3656
  0
LINE
  8
0
 10
-133.734
 20
-61.3656
 11
-133.582
 21
-61.562
  0
LINE
  8
0
 10
-133.582
 20
-61.562
 11
-133.461
 21
-61.7784
  0
LINE
  8
0
 10
-133.461
 20
-61.7784
 11
-133.372
 21
-62.0102
  0
LINE
  8
0
 10
-133.372
 20
-62.0102
 11
-133.318
 21
-62.2525
  0
LINE
  8
0
 10
-133.318
 20
-62.2525
 11
-133.3
 21
-62.5
  0
LINE
  8
0
 10
-133.3
 20
-62.5
 11
-133.318
 21
-62.7475
  0
LINE
  8
0
 10
-133.318
 20
-62.7475
 11
-133.372
 21
-62.9898
  0
LINE
  8
0
 10
-133.372
 20
-62.9898
 11
-133.461
 21
-63.2216
  0
LINE
  8
0
 10
-133.461
 20
-63.2216
 11
-133.582
 21
-63.438
  0
LINE
  8
0
 10
-133.582
 20
-63.438
 11
-133.734
 21
-63.6344
  0
LINE
  8
0
 10
-133.734
 20
-63.6344
 11
-133.913
 21
-63.8067
  0
LINE
  8
0
 10
-133.913
 20
-63.8067
 11
-134.114
 21
-63.9511
  0
LINE
  8
0
 10
-134.114
 20
-63.9511
 11
-134.335
 21
-64.0646
  0
LINE
  8
0
 10
-134.335
 20
-64.0646
 11
-134.57
 21
-64.1447
  0
LINE
  8
0
 10
-134.57
 20
-64.1447
 11
-134.814
 21
-64.1898
  0
LINE
  8
0
 10
-134.814
 20
-64.1898
 11
-135.062
 21
-64.1989
  0
LINE
  8
0
 10
-135.062
 20
-64.1989
 11
-135.309
 21
-64.1717
  0
LINE
  8
0
 10
-225.309
 20
-64.1717
 11
-225.549
 21
-64.1089
  0
LINE
  8
0
 10
-225.549
 20
-64.1089
 11
-225.777
 21
-64.0119
  0
LINE
  8
0
 10
-225.777
 20
-64.0119
 11
-225.989
 21
-63.8826
  0
LINE
  8
0
 10
-225.989
 20
-63.8826
 11
-226.18
 21
-63.7238
  0
LINE
  8
0
 10
-226.18
 20
-63.7238
 11
-226.346
 21
-63.539
  0
LINE
  8
0
 10
-226.346
 20
-63.539
 11
-226.482
 21
-63.332
  0
LINE
  8
0
 10
-226.482
 20
-63.332
 11
-226.588
 21
-63.1073
  0
LINE
  8
0
 10
-226.588
 20
-63.1073
 11
-226.659
 21
-62.8696
  0
LINE
  8
0
 10
-226.659
 20
-62.8696
 11
-226.695
 21
-62.6241
  0
LINE
  8
0
 10
-226.695
 20
-62.6241
 11
-226.695
 21
-62.3759
  0
LINE
  8
0
 10
-226.695
 20
-62.3759
 11
-226.659
 21
-62.1304
  0
LINE
  8
0
 10
-226.659
 20
-62.1304
 11
-226.588
 21
-61.8927
  0
LINE
  8
0
 10
-226.588
 20
-61.8927
 11
-226.482
 21
-61.668
  0
LINE
  8
0
 10
-226.482
 20
-61.668
 11
-226.346
 21
-61.461
  0
LINE
  8
0
 10
-226.346
 20
-61.461
 11
-226.18
 21
-61.2762
  0
LINE
  8
0
 10
-226.18
 20
-61.2762
 11
-225.989
 21
-61.1174
  0
LINE
  8
0
 10
-225.989
 20
-61.1174
 11
-225.777
 21
-60.9881
  0
LINE
  8
0
 10
-225.777
 20
-60.9881
 11
-225.549
 21
-60.8911
  0
LINE
  8
0
 10
-225.549
 20
-60.8911
 11
-225.309
 21
-60.8283
  0
LINE
  8
0
 10
-225.309
 20
-60.8283
 11
-225.062
 21
-60.8011
  0
LINE
  8
0
 10
-225.062
 20
-60.8011
 11
-224.814
 21
-60.8102
  0
LINE
  8
0
 10
-224.814
 20
-60.8102
 11
-224.57
 21
-60.8553
  0
LINE
  8
0
 10
-224.57
 20
-60.8553
 11
-224.335
 21
-60.9354
  0
LINE
  8
0
 10
-224.335
 20
-60.9354
 11
-224.114
 21
-61.0489
  0
LINE
  8
0
 10
-224.114
 20
-61.0489
 11
-223.913
 21
-61.1933
  0
LINE
  8
0
 10
-223.913
 20
-61.1933
 11
-223.734
 21
-61.3656
  0
LINE
  8
0
 10
-223.734
 20
-61.3656
 11
-223.582
 21
-61.562
  0
LINE
  8
0
 10
-223.582
 20
-61.562
 11
-223.461
 21
-61.7784
  0
LINE
  8
0
 10
-223.461
 20
-61.7784
 11
-223.372
 21
-62.0102
  0
LINE
  8
0
 10
-223.372
 20
-62.0102
 11
-223.318
 21
-62.2525
  0
LINE
  8
0
 10
-223.318
 20
-62.2525
 11
-223.3
 21
-62.5
  0
LINE
  8
0
 10
-223.3
 20
-62.5
 11
-223.318
 21
-62.7475
  0
LINE
  8
0
 10
-223.318
 20
-62.7475
 11
-223.372
 21
-62.9898
  0
LINE
  8
0
 10
-223.372
 20
-62.9898
 11
-223.461
 21
-63.2216
  0
LINE
  8
0
 10
-223.461
 20
-63.2216
 11
-223.582
 21
-63.438
  0
LINE
  8
0
 10
-223.582
 20
-63.438
 11
-223.734
 21
-63.6344
  0
LINE
  8
0
 10
-223.734
 20
-63.6344
 11
-223.913
 21
-63.8067
  0
LINE
  8
0
 10
-223.913
 20
-63.8067
 11
-224.114
 21
-63.9511
  0
LINE
  8
0
 10
-224.114
 20
-63.9511
 11
-224.335
 21
-64.0646
  0
LINE
  8
0
 10
-224.335
 20
-64.0646
 11
-224.57
 21
-64.1447
  0
LINE
  8
0
 10
-224.57
 20
-64.1447
 11
-224.814
 21
-64.1898
  0
LINE
  8
0
 10
-224.814
 20
-64.1898
 11
-225.062
 21
-64.1989
  0
LINE
  8
0
 10
-225.062
 20
-64.1989
 11
-225.309
 21
-64.1717
  0
LINE
  8
0
 10
282.108
 20
-99.9295
 11
281.72
 21
-99.8681
  0
LINE
  8
0
 10
281.72
 20
-99.8681
 11
281.341
 21
-99.7665
  0
LINE
  8
0
 10
281.341
 20
-99.7665
 11
280.975
 21
-99.6258
  0
LINE
  8
0
 10
280.975
 20
-99.6258
 11
280.625
 21
-99.4476
  0
LINE
  8
0
 10
280.625
 20
-99.4476
 11
280.296
 21
-99.2338
  0
LINE
  8
0
 10
280.296
 20
-99.2338
 11
279.991
 21
-98.9868
  0
LINE
  8
0
 10
279.991
 20
-98.9868
 11
279.713
 21
-98.7092
  0
LINE
  8
0
 10
279.713
 20
-98.7092
 11
279.466
 21
-98.4042
  0
LINE
  8
0
 10
279.466
 20
-98.4042
 11
279.252
 21
-98.075
  0
LINE
  8
0
 10
279.252
 20
-98.075
 11
279.074
 21
-97.7253
  0
LINE
  8
0
 10
279.074
 20
-97.7253
 11
278.934
 21
-97.3588
  0
LINE
  8
0
 10
278.934
 20
-97.3588
 11
278.832
 21
-96.9797
  0
LINE
  8
0
 10
278.832
 20
-96.9797
 11
278.771
 21
-96.592
  0
LINE
  8
0
 10
278.771
 20
-96.592
 11
278.75
 21
-96.2
  0
LINE
  8
0
 10
278.75
 20
-96.2
 11
278.771
 21
-95.808
  0
LINE
  8
0
 10
278.771
 20
-95.808
 11
278.832
 21
-95.4203
  0
LINE
  8
0
 10
278.832
 20
-95.4203
 11
278.934
 21
-95.0412
  0
LINE
  8
0
 10
278.934
 20
-95.0412
 11
279.074
 21
-94.6747
  0
LINE
  8
0
 10
279.074
 20
-94.6747
 11
279.252
 21
-94.325
  0
LINE
  8
0
 10
279.252
 20
-94.325
 11
279.466
 21
-93.9958
  0
LINE
  8
0
 10
279.466
 20
-93.9958
 11
279.713
 21
-93.6908
  0
LINE
  8
0
 10
279.713
 20
-93.6908
 11
279.991
 21
-93.4132
  0
LINE
  8
0
 10
279.991
 20
-93.4132
 11
280.296
 21
-93.1662
  0
LINE
  8
0
 10
280.296
 20
-93.1662
 11
280.625
 21
-92.9524
  0
LINE
  8
0
 10
280.625
 20
-92.9524
 11
280.975
 21
-92.7742
  0
LINE
  8
0
 10
280.975
 20
-92.7742
 11
281.341
 21
-92.6335
  0
LINE
  8
0
 10
281.341
 20
-92.6335
 11
281.72
 21
-92.5319
  0
LINE
  8
0
 10
281.72
 20
-92.5319
 11
282.108
 21
-92.4705
  0
LINE
  8
0
 10
282.108
 20
-92.4705
 11
282.5
 21
-92.45
  0
LINE
  8
0
 10
282.5
 20
-92.45
 11
282.892
 21
-92.4705
  0
LINE
  8
0
 10
282.892
 20
-92.4705
 11
283.28
 21
-92.5319
  0
LINE
  8
0
 10
283.28
 20
-92.5319
 11
283.659
 21
-92.6335
  0
LINE
  8
0
 10
283.659
 20
-92.6335
 11
284.025
 21
-92.7742
  0
LINE
  8
0
 10
284.025
 20
-92.7742
 11
284.375
 21
-92.9524
  0
LINE
  8
0
 10
284.375
 20
-92.9524
 11
284.704
 21
-93.1662
  0
LINE
  8
0
 10
284.704
 20
-93.1662
 11
285.009
 21
-93.4132
  0
LINE
  8
0
 10
285.009
 20
-93.4132
 11
285.287
 21
-93.6908
  0
LINE
  8
0
 10
285.287
 20
-93.6908
 11
285.534
 21
-93.9958
  0
LINE
  8
0
 10
285.534
 20
-93.9958
 11
285.748
 21
-94.325
  0
LINE
  8
0
 10
285.748
 20
-94.325
 11
285.926
 21
-94.6747
  0
LINE
  8
0
 10
285.926
 20
-94.6747
 11
286.066
 21
-95.0412
  0
LINE
  8
0
 10
286.066
 20
-95.0412
 11
286.168
 21
-95.4203
  0
LINE
  8
0
 10
286.168
 20
-95.4203
 11
286.229
 21
-95.808
  0
LINE
  8
0
 10
286.229
 20
-95.808
 11
286.25
 21
-96.2
  0
LINE
  8
0
 10
286.25
 20
-96.2
 11
286.229
 21
-96.592
  0
LINE
  8
0
 10
286.229
 20
-96.592
 11
286.168
 21
-96.9797
  0
LINE
  8
0
 10
286.168
 20
-96.9797
 11
286.066
 21
-97.3588
  0
LINE
  8
0
 10
286.066
 20
-97.3588
 11
285.926
 21
-97.7253
  0
LINE
  8
0
 10
285.926
 20
-97.7253
 11
285.748
 21
-98.075
  0
LINE
  8
0
 10
285.748
 20
-98.075
 11
285.534
 21
-98.4042
  0
LINE
  8
0
 10
285.534
 20
-98.4042
 11
285.287
 21
-98.7092
  0
LINE
  8
0
 10
285.287
 20
-98.7092
 11
285.009
 21
-98.9868
  0
LINE
  8
0
 10
285.009
 20
-98.9868
 11
284.704
 21
-99.2338
  0
LINE
  8
0
 10
284.704
 20
-99.2338
 11
284.375
 21
-99.4476
  0
LINE
  8
0
 10
284.375
 20
-99.4476
 11
284.025
 21
-99.6258
  0
LINE
  8
0
 10
284.025
 20
-99.6258
 11
283.659
 21
-99.7665
  0
LINE
  8
0
 10
283.659
 20
-99.7665
 11
283.28
 21
-99.8681
  0
LINE
  8
0
 10
283.28
 20
-99.8681
 11
282.892
 21
-99.9295
  0
LINE
  8
0
 10
282.892
 20
-99.9295
 11
282.5
 21
-99.95
  0
LINE
  8
0
 10
282.5
 20
-99.95
 11
282.108
 21
-99.9295
  0
LINE
  8
0
 10
-282.892
 20
-99.9295
 11
-283.28
 21
-99.8681
  0
LINE
  8
0
 10
-283.28
 20
-99.8681
 11
-283.659
 21
-99.7665
  0
LINE
  8
0
 10
-283.659
 20
-99.7665
 11
-284.025
 21
-99.6258
  0
LINE
  8
0
 10
-284.025
 20
-99.6258
 11
-284.375
 21
-99.4476
  0
LINE
  8
0
 10
-284.375
 20
-99.4476
 11
-284.704
 21
-99.2338
  0
LINE
  8
0
 10
-284.704
 20
-99.2338
 11
-285.009
 21
-98.9868
  0
LINE
  8
0
 10
-285.009
 20
-98.9868
 11
-285.287
 21
-98.7092
  0
LINE
  8
0
 10
-285.287
 20
-98.7092
 11
-285.534
 21
-98.4042
  0
LINE
  8
0
 10
-285.534
 20
-98.4042
 11
-285.748
 21
-98.075
  0
LINE
  8
0
 10
-285.748
 20
-98.075
 11
-285.926
 21
-97.7253
  0
LINE
  8
0
 10
-285.926
 20
-97.7253
 11
-286.066
 21
-97.3588
  0
LINE
  8
0
 10
-286.066
 20
-97.3588
 11
-286.168
 21
-96.9797
  0
LINE
  8
0
 10
-286.168
 20
-96.9797
 11
-286.229
 21
-96.592
  0
LINE
  8
0
 10
-286.229
 20
-96.592
 11
-286.25
 21
-96.2
  0
LINE
  8
0
 10
-286.25
 20
-96.2
 11
-286.229
 21
-95.808
  0
LINE
  8
0
 10
-286.229
 20
-95.808
 11
-286.168
 21
-95.4203
  0
LINE
  8
0
 10
-286.168
 20
-95.4203
 11
-286.066
 21
-95.0412
  0
LINE
  8
0
 10
-286.066
 20
-95.0412
 11
-285.926
 21
-94.6747
  0
LINE
  8
0
 10
-285.926
 20
-94.6747
 11
-285.748
 21
-94.325
  0
LINE
  8
0
 10
-285.748
 20
-94.325
 11
-285.534
 21
-93.9958
  0
LINE
  8
0
 10
-285.534
 20
-93.9958
 11
-285.287
 21
-93.6908
  0
LINE
  8
0
 10
-285.287
 20
-93.6908
 11
-285.009
 21
-93.4132
  0
LINE
  8
0
 10
-285.009
 20
-93.4132
 11
-284.704
 21
-93.1662
  0
LINE
  8
0
 10
-284.704
 20
-93.1662
 11
-284.375
 21
-92.9524
  0
LINE
  8
0
 10
-284.375
 20
-92.9524
 11
-284.025
 21
-92.7742
  0
LINE
  8
0
 10
-284.025
 20
-92.7742
 11
-283.659
 21
-92.6335
  0
LINE
  8
0
 10
-283.659
 20
-92.6335
 11
-283.28
 21
-92.5319
  0
LINE
  8
0
 10
-283.28
 20
-92.5319
 11
-282.892
 21
-92.4705
  0
LINE
  8
0
 10
-282.892
 20
-92.4705
 11
-282.5
 21
-92.45
  0
LINE
  8
0
 10
-282.5
 20
-92.45
 11
-282.108
 21
-92.4705
  0
LINE
  8
0
 10
-282.108
 20
-92.4705
 11
-281.72
 21
-92.5319
  0
LINE
  8
0
 10
-281.72
 20
-92.5319
 11
-281.341
 21
-92.6335
  0
LINE
  8
0
 10
-281.341
 20
-92.6335
 11
-280.975
 21
-92.7742
  0
LINE
  8
0
 10
-280.975
 20
-92.7742
 11
-280.625
 21
-92.9524
  0
LINE
  8
0
 10
-280.625
 20
-92.9524
 11
-280.296
 21
-93.1662
  0
LINE
  8
0
 10
-280.296
 20
-93.1662
 11
-279.991
 21
-93.4132
  0
LINE
  8
0
 10
-279.991
 20
-93.4132
 11
-279.713
 21
-93.6908
  0
LINE
  8
0
 10
-279.713
 20
-93.6908
 11
-279.466
 21
-93.9958
  0
LINE
  8
0
 10
-279.466
 20
-93.9958
 11
-279.252
 21
-94.325
  0
LINE
  8
0
 10
-279.252
 20
-94.325
 11
-279.074
 21
-94.6747
  0
LINE
  8
0
 10
-279.074
 20
-94.6747
 11
-278.934
 21
-95.0412
  0
LINE
  8
0
 10
-278.934
 20
-95.0412
 11
-278.832
 21
-95.4203
  0
LINE
  8
0
 10
-278.832
 20
-95.4203
 11
-278.771
 21
-95.808
  0
LINE
  8
0
 10
-278.771
 20
-95.808
 11
-278.75
 21
-96.2
  0
LINE
  8
0
 10
-278.75
 20
-96.2
 11
-278.771
 21
-96.592
  0
LINE
  8
0
 10
-278.771
 20
-96.592
 11
-278.832
 21
-96.9797
  0
LINE
  8
0
 10
-278.832
 20
-96.9797
 11
-278.934
 21
-97.3588
  0
LINE
  8
0
 10
-278.934
 20
-97.3588
 11
-279.074
 21
-97.7253
  0
LINE
  8
0
 10
-279.074
 20
-97.7253
 11
-279.252
 21
-98.075
  0
LINE
  8
0
 10
-279.252
 20
-98.075
 11
-279.466
 21
-98.4042
  0
LINE
  8
0
 10
-279.466
 20
-98.4042
 11
-279.713
 21
-98.7092
  0
LINE
  8
0
 10
-279.713
 20
-98.7092
 11
-279.991
 21
-98.9868
  0
LINE
  8
0
 10
-279.991
 20
-98.9868
 11
-280.296
 21
-99.2338
  0
LINE
  8
0
 10
-280.296
 20
-99.2338
 11
-280.625
 21
-99.4476
  0
LINE
  8
0
 10
-280.625
 20
-99.4476
 11
-280.975
 21
-99.6258
  0
LINE
  8
0
 10
-280.975
 20
-99.6258
 11
-281.341
 21
-99.7665
  0
LINE
  8
0
 10
-281.341
 20
-99.7665
 11
-281.72
 21
-99.8681
  0
LINE
  8
0
 10
-281.72
 20
-99.8681
 11
-282.108
 21
-99.9295
  0
LINE
  8
0
 10
-282.108
 20
-99.9295
 11
-282.5
 21
-99.95
  0
LINE
  8
0
 10
-282.5
 20
-99.95
 11
-282.892
 21
-99.9295
  0
LINE
  8
0
 10
219.877
 20
-97.8454
 11
219.633
 21
-97.8086
  0
LINE
  8
0
 10
219.633
 20
-97.8086
 11
219.397
 21
-97.7359
  0
LINE
  8
0
 10
219.397
 20
-97.7359
 11
219.175
 21
-97.6289
  0
LINE
  8
0
 10
219.175
 20
-97.6289
 11
218.971
 21
-97.49
  0
LINE
  8
0
 10
218.971
 20
-97.49
 11
218.79
 21
-97.3223
  0
LINE
  8
0
 10
218.79
 20
-97.3223
 11
218.637
 21
-97.1295
  0
LINE
  8
0
 10
218.637
 20
-97.1295
 11
218.513
 21
-96.9159
  0
LINE
  8
0
 10
218.513
 20
-96.9159
 11
218.423
 21
-96.6863
  0
LINE
  8
0
 10
218.423
 20
-96.6863
 11
218.368
 21
-96.4459
  0
LINE
  8
0
 10
218.368
 20
-96.4459
 11
218.35
 21
-96.2
  0
LINE
  8
0
 10
218.35
 20
-96.2
 11
218.368
 21
-95.9541
  0
LINE
  8
0
 10
218.368
 20
-95.9541
 11
218.423
 21
-95.7137
  0
LINE
  8
0
 10
218.423
 20
-95.7137
 11
218.513
 21
-95.4841
  0
LINE
  8
0
 10
218.513
 20
-95.4841
 11
218.637
 21
-95.2705
  0
LINE
  8
0
 10
218.637
 20
-95.2705
 11
218.79
 21
-95.0777
  0
LINE
  8
0
 10
218.79
 20
-95.0777
 11
218.971
 21
-94.91
  0
LINE
  8
0
 10
218.971
 20
-94.91
 11
219.175
 21
-94.7711
  0
LINE
  8
0
 10
219.175
 20
-94.7711
 11
219.397
 21
-94.664
  0
LINE
  8
0
 10
219.397
 20
-94.664
 11
219.633
 21
-94.5914
  0
LINE
  8
0
 10
219.633
 20
-94.5914
 11
219.877
 21
-94.5546
  0
LINE
  8
0
 10
219.877
 20
-94.5546
 11
260.123
 21
-94.5546
  0
LINE
  8
0
 10
260.123
 20
-94.5546
 11
260.367
 21
-94.5914
  0
LINE
  8
0
 10
260.367
 20
-94.5914
 11
260.603
 21
-94.664
  0
LINE
  8
0
 10
260.603
 20
-94.664
 11
260.825
 21
-94.7711
  0
LINE
  8
0
 10
260.825
 20
-94.7711
 11
261.029
 21
-94.91
  0
LINE
  8
0
 10
261.029
 20
-94.91
 11
261.21
 21
-95.0777
  0
LINE
  8
0
 10
261.21
 20
-95.0777
 11
261.363
 21
-95.2705
  0
LINE
  8
0
 10
261.363
 20
-95.2705
 11
261.487
 21
-95.4841
  0
LINE
  8
0
 10
261.487
 20
-95.4841
 11
261.577
 21
-95.7137
  0
LINE
  8
0
 10
261.577
 20
-95.7137
 11
261.632
 21
-95.9541
  0
LINE
  8
0
 10
261.632
 20
-95.9541
 11
261.65
 21
-96.2
  0
LINE
  8
0
 10
261.65
 20
-96.2
 11
261.632
 21
-96.4459
  0
LINE
  8
0
 10
261.632
 20
-96.4459
 11
261.577
 21
-96.6863
  0
LINE
  8
0
 10
261.577
 20
-96.6863
 11
261.487
 21
-96.9159
  0
LINE
  8
0
 10
261.487
 20
-96.9159
 11
261.363
 21
-97.1295
  0
LINE
  8
0
 10
261.363
 20
-97.1295
 11
261.21
 21
-97.3223
  0
LINE
  8
0
 10
261.21
 20
-97.3223
 11
261.029
 21
-97.49
  0
LINE
  8
0
 10
261.029
 20
-97.49
 11
260.825
 21
-97.6289
  0
LINE
  8
0
 10
260.825
 20
-97.6289
 11
260.603
 21
-97.7359
  0
LINE
  8
0
 10
260.603
 20
-97.7359
 11
260.367
 21
-97.8086
  0
LINE
  8
0
 10
260.367
 20
-97.8086
 11
260.123
 21
-97.8454
  0
LINE
  8
0
 10
260.123
 20
-97.8454
 11
219.877
 21
-97.8454
  0
LINE
  8
0
 10
-164.123
 20
-97.8454
 11
-164.367
 21
-97.8086
  0
LINE
  8
0
 10
-164.367
 20
-97.8086
 11
-164.603
 21
-97.7359
  0
LINE
  8
0
 10
-164.603
 20
-97.7359
 11
-164.825
 21
-97.6289
  0
LINE
  8
0
 10
-164.825
 20
-97.6289
 11
-165.029
 21
-97.49
  0
LINE
  8
0
 10
-165.029
 20
-97.49
 11
-165.21
 21
-97.3223
  0
LINE
  8
0
 10
-165.21
 20
-97.3223
 11
-165.363
 21
-97.1295
  0
LINE
  8
0
 10
-165.363
 20
-97.1295
 11
-165.487
 21
-96.9159
  0
LINE
  8
0
 10
-165.487
 20
-96.9159
 11
-165.577
 21
-96.6863
  0
LINE
  8
0
 10
-165.577
 20
-96.6863
 11
-165.632
 21
-96.4459
  0
LINE
  8
0
 10
-165.632
 20
-96.4459
 11
-165.65
 21
-96.2
  0
LINE
  8
0
 10
-165.65
 20
-96.2
 11
-165.632
 21
-95.9541
  0
LINE
  8
0
 10
-165.632
 20
-95.9541
 11
-165.577
 21
-95.7137
  0
LINE
  8
0
 10
-165.577
 20
-95.7137
 11
-165.487
 21
-95.4841
  0
LINE
  8
0
 10
-165.487
 20
-95.4841
 11
-165.363
 21
-95.2705
  0
LINE
  8
0
 10
-165.363
 20
-95.2705
 11
-165.21
 21
-95.0777
  0
LINE
  8
0
 10
-165.21
 20
-95.0777
 11
-165.029
 21
-94.91
  0
LINE
  8
0
 10
-165.029
 20
-94.91
 11
-164.825
 21
-94.7711
  0
LINE
  8
0
 10
-164.825
 20
-94.7711
 11
-164.603
 21
-94.664
  0
LINE
  8
0
 10
-164.603
 20
-94.664
 11
-164.367
 21
-94.5914
  0
LINE
  8
0
 10
-164.367
 20
-94.5914
 11
-164.123
 21
-94.5546
  0
LINE
  8
0
 10
-164.123
 20
-94.5546
 11
-123.877
 21
-94.5546
  0
LINE
  8
0
 10
-123.877
 20
-94.5546
 11
-123.633
 21
-94.5914
  0
LINE
  8
0
 10
-123.633
 20
-94.5914
 11
-123.397
 21
-94.664
  0
LINE
  8
0
 10
-123.397
 20
-94.664
 11
-123.175
 21
-94.7711
  0
LINE
  8
0
 10
-123.175
 20
-94.7711
 11
-122.971
 21
-94.91
  0
LINE
  8
0
 10
-122.971
 20
-94.91
 11
-122.79
 21
-95.0777
  0
LINE
  8
0
 10
-122.79
 20
-95.0777
 11
-122.637
 21
-95.2705
  0
LINE
  8
0
 10
-122.637
 20
-95.2705
 11
-122.513
 21
-95.4841
  0
LINE
  8
0
 10
-122.513
 20
-95.4841
 11
-122.423
 21
-95.7137
  0
LINE
  8
0
 10
-122.423
 20
-95.7137
 11
-122.368
 21
-95.9541
  0
LINE
  8
0
 10
-122.368
 20
-95.9541
 11
-122.35
 21
-96.2
  0
LINE
  8
0
 10
-122.35
 20
-96.2
 11
-122.368
 21
-96.4459
  0
LINE
  8
0
 10
-122.368
 20
-96.4459
 11
-122.423
 21
-96.6863
  0
LINE
  8
0
 10
-122.423
 20
-96.6863
 11
-122.513
 21
-96.9159
  0
LINE
  8
0
 10
-122.513
 20
-96.9159
 11
-122.637
 21
-97.1295
  0
LINE
  8
0
 10
-122.637
 20
-97.1295
 11
-122.79
 21
-97.3223
  0
LINE
  8
0
 10
-122.79
 20
-97.3223
 11
-122.971
 21
-97.49
  0
LINE
  8
0
 10
-122.971
 20
-97.49
 11
-123.175
 21
-97.6289
  0
LINE
  8
0
 10
-123.175
 20
-97.6289
 11
-123.397
 21
-97.7359
  0
LINE
  8
0
 10
-123.397
 20
-97.7359
 11
-123.633
 21
-97.8086
  0
LINE
  8
0
 10
-123.633
 20
-97.8086
 11
-123.877
 21
-97.8454
  0
LINE
  8
0
 10
-123.877
 20
-97.8454
 11
-164.123
 21
-97.8454
  0
LINE
  8
0
 10
-260.123
 20
-97.8454
 11
-260.367
 21
-97.8086
  0
LINE
  8
0
 10
-260.367
 20
-97.8086
 11
-260.603
 21
-97.7359
  0
LINE
  8
0
 10
-260.603
 20
-97.7359
 11
-260.825
 21
-97.6289
  0
LINE
  8
0
 10
-260.825
 20
-97.6289
 11
-261.029
 21
-97.49
  0
LINE
  8
0
 10
-261.029
 20
-97.49
 11
-261.21
 21
-97.3223
  0
LINE
  8
0
 10
-261.21
 20
-97.3223
 11
-261.363
 21
-97.1295
  0
LINE
  8
0
 10
-261.363
 20
-97.1295
 11
-261.487
 21
-96.9159
  0
LINE
  8
0
 10
-261.487
 20
-96.9159
 11
-261.577
 21
-96.6863
  0
LINE
  8
0
 10
-261.577
 20
-96.6863
 11
-261.632
 21
-96.4459
  0
LINE
  8
0
 10
-261.632
 20
-96.4459
 11
-261.65
 21
-96.2
  0
LINE
  8
0
 10
-261.65
 20
-96.2
 11
-261.632
 21
-95.9541
  0
LINE
  8
0
 10
-261.632
 20
-95.9541
 11
-261.577
 21
-95.7137
  0
LINE
  8
0
 10
-261.577
 20
-95.7137
 11
-261.487
 21
-95.4841
  0
LINE
  8
0
 10
-261.487
 20
-95.4841
 11
-261.363
 21
-95.2705
  0
LINE
  8
0
 10
-261.363
 20
-95.2705
 11
-261.21
 21
-95.0777
  0
LINE
  8
0
 10
-261.21
 20
-95.0777
 11
-261.029
 21
-94.91
  0
LINE
  8
0
 10
-261.029
 20
-94.91
 11
-260.825
 21
-94.7711
  0
LINE
  8
0
 10
-260.825
 20
-94.7711
 11
-260.603
 21
-94.664
  0
LINE
  8
0
 10
-260.603
 20
-94.664
 11
-260.367
 21
-94.5914
  0
LINE
  8
0
 10
-260.367
 20
-94.5914
 11
-260.123
 21
-94.5546
  0
LINE
  8
0
 10
-260.123
 20
-94.5546
 11
-219.877
 21
-94.5546
  0
LINE
  8
0
 10
-219.877
 20
-94.5546
 11
-219.633
 21
-94.5914
  0
LINE
  8
0
 10
-219.633
 20
-94.5914
 11
-219.397
 21
-94.664
  0
LINE
  8
0
 10
-219.397
 20
-94.664
 11
-219.175
 21
-94.7711
  0
LINE
  8
0
 10
-219.175
 20
-94.7711
 11
-218.971
 21
-94.91
  0
LINE
  8
0
 10
-218.971
 20
-94.91
 11
-218.79
 21
-95.0777
  0
LINE
  8
0
 10
-218.79
 20
-95.0777
 11
-218.637
 21
-95.2705
  0
LINE
  8
0
 10
-218.637
 20
-95.2705
 11
-218.513
 21
-95.4841
  0
LINE
  8
0
 10
-218.513
 20
-95.4841
 11
-218.423
 21
-95.7137
  0
LINE
  8
0
 10
-218.423
 20
-95.7137
 11
-218.368
 21
-95.9541
  0
LINE
  8
0
 10
-218.368
 20
-95.9541
 11
-218.35
 21
-96.2
  0
LINE
  8
0
 10
-218.35
 20
-96.2
 11
-218.368
 21
-96.4459
  0
LINE
  8
0
 10
-218.368
 20
-96.4459
 11
-218.423
 21
-96.6863
  0
LINE
  8
0
 10
-218.423
 20
-96.6863
 11
-218.513
 21
-96.9159
  0
LINE
  8
0
 10
-218.513
 20
-96.9159
 11
-218.637
 21
-97.1295
  0
LINE
  8
0
 10
-218.637
 20
-97.1295
 11
-218.79
 21
-97.3223
  0
LINE
  8
0
 10
-218.79
 20
-97.3223
 11
-218.971
 21
-97.49
  0
LINE
  8
0
 10
-218.971
 20
-97.49
 11
-219.175
 21
-97.6289
  0
LINE
  8
0
 10
-219.175
 20
-97.6289
 11
-219.397
 21
-97.7359
  0
LINE
  8
0
 10
-219.397
 20
-97.7359
 11
-219.633
 21
-97.8086
  0
LINE
  8
0
 10
-219.633
 20
-97.8086
 11
-219.877
 21
-97.8454
  0
LINE
  8
0
 10
-219.877
 20
-97.8454
 11
-260.123
 21
-97.8454
  0
LINE
  8
0
 10
-68.1233
 20
-97.8454
 11
-68.3672
 21
-97.8086
  0
LINE
  8
0
 10
-68.3672
 20
-97.8086
 11
-68.6028
 21
-97.7359
  0
LINE
  8
0
 10
-68.6028
 20
-97.7359
 11
-68.825
 21
-97.6289
  0
LINE
  8
0
 10
-68.825
 20
-97.6289
 11
-69.0287
 21
-97.49
  0
LINE
  8
0
 10
-69.0287
 20
-97.49
 11
-69.2095
 21
-97.3223
  0
LINE
  8
0
 10
-69.2095
 20
-97.3223
 11
-69.3633
 21
-97.1295
  0
LINE
  8
0
 10
-69.3633
 20
-97.1295
 11
-69.4866
 21
-96.9159
  0
LINE
  8
0
 10
-69.4866
 20
-96.9159
 11
-69.5767
 21
-96.6863
  0
LINE
  8
0
 10
-69.5767
 20
-96.6863
 11
-69.6316
 21
-96.4459
  0
LINE
  8
0
 10
-69.6316
 20
-96.4459
 11
-69.65
 21
-96.2
  0
LINE
  8
0
 10
-69.65
 20
-96.2
 11
-69.6316
 21
-95.9541
  0
LINE
  8
0
 10
-69.6316
 20
-95.9541
 11
-69.5767
 21
-95.7137
  0
LINE
  8
0
 10
-69.5767
 20
-95.7137
 11
-69.4866
 21
-95.4841
  0
LINE
  8
0
 10
-69.4866
 20
-95.4841
 11
-69.3633
 21
-95.2705
  0
LINE
  8
0
 10
-69.3633
 20
-95.2705
 11
-69.2095
 21
-95.0777
  0
LINE
  8
0
 10
-69.2095
 20
-95.0777
 11
-69.0287
 21
-94.91
  0
LINE
  8
0
 10
-69.0287
 20
-94.91
 11
-68.825
 21
-94.7711
  0
LINE
  8
0
 10
-68.825
 20
-94.7711
 11
-68.6028
 21
-94.664
  0
LINE
  8
0
 10
-68.6028
 20
-94.664
 11
-68.3672
 21
-94.5914
  0
LINE
  8
0
 10
-68.3672
 20
-94.5914
 11
-68.1233
 21
-94.5546
  0
LINE
  8
0
 10
-68.1233
 20
-94.5546
 11
-27.8767
 21
-94.5546
  0
LINE
  8
0
 10
-27.8767
 20
-94.5546
 11
-27.6328
 21
-94.5914
  0
LINE
  8
0
 10
-27.6328
 20
-94.5914
 11
-27.3972
 21
-94.664
  0
LINE
  8
0
 10
-27.3972
 20
-94.664
 11
-27.175
 21
-94.7711
  0
LINE
  8
0
 10
-27.175
 20
-94.7711
 11
-26.9712
 21
-94.91
  0
LINE
  8
0
 10
-26.9712
 20
-94.91
 11
-26.7905
 21
-95.0777
  0
LINE
  8
0
 10
-26.7905
 20
-95.0777
 11
-26.6367
 21
-95.2705
  0
LINE
  8
0
 10
-26.6367
 20
-95.2705
 11
-26.5134
 21
-95.4841
  0
LINE
  8
0
 10
-26.5134
 20
-95.4841
 11
-26.4233
 21
-95.7137
  0
LINE
  8
0
 10
-26.4233
 20
-95.7137
 11
-26.3684
 21
-95.9541
  0
LINE
  8
0
 10
-26.3684
 20
-95.9541
 11
-26.35
 21
-96.2
  0
LINE
  8
0
 10
-26.35
 20
-96.2
 11
-26.3684
 21
-96.4459
  0
LINE
  8
0
 10
-26.3684
 20
-96.4459
 11
-26.4233
 21
-96.6863
  0
LINE
  8
0
 10
-26.4233
 20
-96.6863
 11
-26.5134
 21
-96.9159
  0
LINE
  8
0
 10
-26.5134
 20
-96.9159
 11
-26.6367
 21
-97.1295
  0
LINE
  8
0
 10
-26.6367
 20
-97.1295
 11
-26.7905
 21
-97.3223
  0
LINE
  8
0
 10
-26.7905
 20
-97.3223
 11
-26.9712
 21
-97.49
  0
LINE
  8
0
 10
-26.9712
 20
-97.49
 11
-27.175
 21
-97.6289
  0
LINE
  8
0
 10
-27.175
 20
-97.6289
 11
-27.3972
 21
-97.7359
  0
LINE
  8
0
 10
-27.3972
 20
-97.7359
 11
-27.6328
 21
-97.8086
  0
LINE
  8
0
 10
-27.6328
 20
-97.8086
 11
-27.8767
 21
-97.8454
  0
LINE
  8
0
 10
-27.8767
 20
-97.8454
 11
-68.1233
 21
-97.8454
  0
LINE
  8
0
 10
123.877
 20
-97.8454
 11
123.633
 21
-97.8086
  0
LINE
  8
0
 10
123.633
 20
-97.8086
 11
123.397
 21
-97.7359
  0
LINE
  8
0
 10
123.397
 20
-97.7359
 11
123.175
 21
-97.6289
  0
LINE
  8
0
 10
123.175
 20
-97.6289
 11
122.971
 21
-97.49
  0
LINE
  8
0
 10
122.971
 20
-97.49
 11
122.79
 21
-97.3223
  0
LINE
  8
0
 10
122.79
 20
-97.3223
 11
122.637
 21
-97.1295
  0
LINE
  8
0
 10
122.637
 20
-97.1295
 11
122.513
 21
-96.9159
  0
LINE
  8
0
 10
122.513
 20
-96.9159
 11
122.423
 21
-96.6863
  0
LINE
  8
0
 10
122.423
 20
-96.6863
 11
122.368
 21
-96.4459
  0
LINE
  8
0
 10
122.368
 20
-96.4459
 11
122.35
 21
-96.2
  0
LINE
  8
0
 10
122.35
 20
-96.2
 11
122.368
 21
-95.9541
  0
LINE
  8
0
 10
122.368
 20
-95.9541
 11
122.423
 21
-95.7137
  0
LINE
  8
0
 10
122.423
 20
-95.7137
 11
122.513
 21
-95.4841
  0
LINE
  8
0
 10
122.513
 20
-95.4841
 11
122.637
 21
-95.2705
  0
LINE
  8
0
 10
122.637
 20
-95.2705
 11
122.79
 21
-95.0777
  0
LINE
  8
0
 10
122.79
 20
-95.0777
 11
122.971
 21
-94.91
  0
LINE
  8
0
 10
122.971
 20
-94.91
 11
123.175
 21
-94.7711
  0
LINE
  8
0
 10
123.175
 20
-94.7711
 11
123.397
 21
-94.664
  0
LINE
  8
0
 10
123.397
 20
-94.664
 11
123.633
 21
-94.5914
  0
LINE
  8
0
 10
123.633
 20
-94.5914
 11
123.877
 21
-94.5546
  0
LINE
  8
0
 10
123.877
 20
-94.5546
 11
164.123
 21
-94.5546
  0
LINE
  8
0
 10
164.123
 20
-94.5546
 11
164.367
 21
-94.5914
  0
LINE
  8
0
 10
164.367
 20
-94.5914
 11
164.603
 21
-94.664
  0
LINE
  8
0
 10
164.603
 20
-94.664
 11
164.825
 21
-94.7711
  0
LINE
  8
0
 10
164.825
 20
-94.7711
 11
165.029
 21
-94.91
  0
LINE
  8
0
 10
165.029
 20
-94.91
 11
165.21
 21
-95.0777
  0
LINE
  8
0
 10
165.21
 20
-95.0777
 11
165.363
 21
-95.2705
  0
LINE
  8
0
 10
165.363
 20
-95.2705
 11
165.487
 21
-95.4841
  0
LINE
  8
0
 10
165.487
 20
-95.4841
 11
165.577
 21
-95.7137
  0
LINE
  8
0
 10
165.577
 20
-95.7137
 11
165.632
 21
-95.9541
  0
LINE
  8
0
 10
165.632
 20
-95.9541
 11
165.65
 21
-96.2
  0
LINE
  8
0
 10
165.65
 20
-96.2
 11
165.632
 21
-96.4459
  0
LINE
  8
0
 10
165.632
 20
-96.4459
 11
165.577
 21
-96.6863
  0
LINE
  8
0
 10
165.577
 20
-96.6863
 11
165.487
 21
-96.9159
  0
LINE
  8
0
 10
165.487
 20
-96.9159
 11
165.363
 21
-97.1295
  0
LINE
  8
0
 10
165.363
 20
-97.1295
 11
165.21
 21
-97.3223
  0
LINE
  8
0
 10
165.21
 20
-97.3223
 11
165.029
 21
-97.49
  0
LINE
  8
0
 10
165.029
 20
-97.49
 11
164.825
 21
-97.6289
  0
LINE
  8
0
 10
164.825
 20
-97.6289
 11
164.603
 21
-97.7359
  0
LINE
  8
0
 10
164.603
 20
-97.7359
 11
164.367
 21
-97.8086
  0
LINE
  8
0
 10
164.367
 20
-97.8086
 11
164.123
 21
-97.8454
  0
LINE
  8
0
 10
164.123
 20
-97.8454
 11
123.877
 21
-97.8454
  0
LINE
  8
0
 10
27.8767
 20
-97.8454
 11
27.6328
 21
-97.8086
  0
LINE
  8
0
 10
27.6328
 20
-97.8086
 11
27.3972
 21
-97.7359
  0
LINE
  8
0
 10
27.3972
 20
-97.7359
 11
27.175
 21
-97.6289
  0
LINE
  8
0
 10
27.175
 20
-97.6289
 11
26.9712
 21
-97.49
  0
LINE
  8
0
 10
26.9712
 20
-97.49
 11
26.7905
 21
-97.3223
  0
LINE
  8
0
 10
26.7905
 20
-97.3223
 11
26.6367
 21
-97.1295
  0
LINE
  8
0
 10
26.6367
 20
-97.1295
 11
26.5134
 21
-96.9159
  0
LINE
  8
0
 10
26.5134
 20
-96.9159
 11
26.4233
 21
-96.6863
  0
LINE
  8
0
 10
26.4233
 20
-96.6863
 11
26.3684
 21
-96.4459
  0
LINE
  8
0
 10
26.3684
 20
-96.4459
 11
26.35
 21
-96.2
  0
LINE
  8
0
 10
26.35
 20
-96.2
 11
26.3684
 21
-95.9541
  0
LINE
  8
0
 10
26.3684
 20
-95.9541
 11
26.4233
 21
-95.7137
  0
LINE
  8
0
 10
26.4233
 20
-95.7137
 11
26.5134
 21
-95.4841
  0
LINE
  8
0
 10
26.5134
 20
-95.4841
 11
26.6367
 21
-95.2705
  0
LINE
  8
0
 10
26.6367
 20
-95.2705
 11
26.7905
 21
-95.0777
  0
LINE
  8
0
 10
26.7905
 20
-95.0777
 11
26.9712
 21
-94.91
  0
LINE
  8
0
 10
26.9712
 20
-94.91
 11
27.175
 21
-94.7711
  0
LINE
  8
0
 10
27.175
 20
-94.7711
 11
27.3972
 21
-94.664
  0
LINE
  8
0
 10
27.3972
 20
-94.664
 11
27.6328
 21
-94.5914
  0
LINE
  8
0
 10
27.6328
 20
-94.5914
 11
27.8767
 21
-94.5546
  0
LINE
  8
0
 10
27.8767
 20
-94.5546
 11
68.1233
 21
-94.5546
  0
LINE
  8
0
 10
68.1233
 20
-94.5546
 11
68.3672
 21
-94.5914
  0
LINE
  8
0
 10
68.3672
 20
-94.5914
 11
68.6028
 21
-94.664
  0
LINE
  8
0
 10
68.6028
 20
-94.664
 11
68.825
 21
-94.7711
  0
LINE
  8
0
 10
68.825
 20
-94.7711
 11
69.0287
 21
-94.91
  0
LINE
  8
0
 10
69.0287
 20
-94.91
 11
69.2095
 21
-95.0777
  0
LINE
  8
0
 10
69.2095
 20
-95.0777
 11
69.3633
 21
-95.2705
  0
LINE
  8
0
 10
69.3633
 20
-95.2705
 11
69.4866
 21
-95.4841
  0
LINE
  8
0
 10
69.4866
 20
-95.4841
 11
69.5767
 21
-95.7137
  0
LINE
  8
0
 10
69.5767
 20
-95.7137
 11
69.6316
 21
-95.9541
  0
LINE
  8
0
 10
69.6316
 20
-95.9541
 11
69.65
 21
-96.2
  0
LINE
  8
0
 10
69.65
 20
-96.2
 11
69.6316
 21
-96.4459
  0
LINE
  8
0
 10
69.6316
 20
-96.4459
 11
69.5767
 21
-96.6863
  0
LINE
  8
0
 10
69.5767
 20
-96.6863
 11
69.4866
 21
-96.9159
  0
LINE
  8
0
 10
69.4866
 20
-96.9159
 11
69.3633
 21
-97.1295
  0
LINE
  8
0
 10
69.3633
 20
-97.1295
 11
69.2095
 21
-97.3223
  0
LINE
  8
0
 10
69.2095
 20
-97.3223
 11
69.0287
 21
-97.49
  0
LINE
  8
0
 10
69.0287
 20
-97.49
 11
68.825
 21
-97.6289
  0
LINE
  8
0
 10
68.825
 20
-97.6289
 11
68.6028
 21
-97.7359
  0
LINE
  8
0
 10
68.6028
 20
-97.7359
 11
68.3672
 21
-97.8086
  0
LINE
  8
0
 10
68.3672
 20
-97.8086
 11
68.1233
 21
-97.8454
  0
LINE
  8
0
 10
68.1233
 20
-97.8454
 11
27.8767
 21
-97.8454
  0
LINE
  8
0
 10
-278.832
 20
95.4203
 11
-278.934
 21
95.0412
  0
LINE
  8
0
 10
-278.934
 20
95.0412
 11
-279.074
 21
94.6747
  0
LINE
  8
0
 10
-279.074
 20
94.6747
 11
-279.252
 21
94.325
  0
LINE
  8
0
 10
-279.252
 20
94.325
 11
-279.466
 21
93.9958
  0
LINE
  8
0
 10
-279.466
 20
93.9958
 11
-279.713
 21
93.6908
  0
LINE
  8
0
 10
-279.713
 20
93.6908
 11
-279.991
 21
93.4132
  0
LINE
  8
0
 10
-279.991
 20
93.4132
 11
-280.296
 21
93.1662
  0
LINE
  8
0
 10
-280.296
 20
93.1662
 11
-280.625
 21
92.9524
  0
LINE
  8
0
 10
-280.625
 20
92.9524
 11
-280.975
 21
92.7742
  0
LINE
  8
0
 10
-280.975
 20
92.7742
 11
-281.341
 21
92.6335
  0
LINE
  8
0
 10
-281.341
 20
92.6335
 11
-281.72
 21
92.5319
  0
LINE
  8
0
 10
-281.72
 20
92.5319
 11
-282.108
 21
92.4705
  0
LINE
  8
0
 10
-282.108
 20
92.4705
 11
-282.5
 21
92.45
  0
LINE
  8
0
 10
-282.5
 20
92.45
 11
-282.892
 21
92.4705
  0
LINE
  8
0
 10
-282.892
 20
92.4705
 11
-283.28
 21
92.5319
  0
LINE
  8
0
 10
-283.28
 20
92.5319
 11
-283.659
 21
92.6335
  0
LINE
  8
0
 10
-283.659
 20
92.6335
 11
-284.025
 21
92.7742
  0
LINE
  8
0
 10
-284.025
 20
92.7742
 11
-284.375
 21
92.9524
  0
LINE
  8
0
 10
-284.375
 20
92.9524
 11
-284.704
 21
93.1662
  0
LINE
  8
0
 10
-284.704
 20
93.1662
 11
-285.009
 21
93.4132
  0
LINE
  8
0
 10
-285.009
 20
93.4132
 11
-285.287
 21
93.6908
  0
LINE
  8
0
 10
-285.287
 20
93.6908
 11
-285.534
 21
93.9958
  0
LINE
  8
0
 10
-285.534
 20
93.9958
 11
-285.748
 21
94.325
  0
LINE
  8
0
 10
-285.748
 20
94.325
 11
-285.926
 21
94.6747
  0
LINE
  8
0
 10
-285.926
 20
94.6747
 11
-286.066
 21
95.0412
  0
LINE
  8
0
 10
-286.066
 20
95.0412
 11
-286.168
 21
95.4203
  0
LINE
  8
0
 10
-286.168
 20
95.4203
 11
-286.229
 21
95.808
  0
LINE
  8
0
 10
-286.229
 20
95.808
 11
-286.25
 21
96.2
  0
LINE
  8
0
 10
-286.25
 20
96.2
 11
-286.229
 21
96.592
  0
LINE
  8
0
 10
-286.229
 20
96.592
 11
-286.168
 21
96.9797
  0
LINE
  8
0
 10
-286.168
 20
96.9797
 11
-286.066
 21
97.3588
  0
LINE
  8
0
 10
-286.066
 20
97.3588
 11
-285.926
 21
97.7253
  0
LINE
  8
0
 10
-285.926
 20
97.7253
 11
-285.748
 21
98.075
  0
LINE
  8
0
 10
-285.748
 20
98.075
 11
-285.534
 21
98.4042
  0
LINE
  8
0
 10
-285.534
 20
98.4042
 11
-285.287
 21
98.7092
  0
LINE
  8
0
 10
-285.287
 20
98.7092
 11
-285.009
 21
98.9868
  0
LINE
  8
0
 10
-285.009
 20
98.9868
 11
-284.704
 21
99.2338
  0
LINE
  8
0
 10
-284.704
 20
99.2338
 11
-284.375
 21
99.4476
  0
LINE
  8
0
 10
-284.375
 20
99.4476
 11
-284.025
 21
99.6258
  0
LINE
  8
0
 10
-284.025
 20
99.6258
 11
-283.659
 21
99.7665
  0
LINE
  8
0
 10
-283.659
 20
99.7665
 11
-283.28
 21
99.8681
  0
LINE
  8
0
 10
-283.28
 20
99.8681
 11
-282.892
 21
99.9295
  0
LINE
  8
0
 10
-282.892
 20
99.9295
 11
-282.5
 21
99.95
  0
LINE
  8
0
 10
-282.5
 20
99.95
 11
-282.108
 21
99.9295
  0
LINE
  8
0
 10
-282.108
 20
99.9295
 11
-281.72
 21
99.8681
  0
LINE
  8
0
 10
-281.72
 20
99.8681
 11
-281.341
 21
99.7665
  0
LINE
  8
0
 10
-281.341
 20
99.7665
 11
-280.975
 21
99.6258
  0
LINE
  8
0
 10
-280.975
 20
99.6258
 11
-280.625
 21
99.4476
  0
LINE
  8
0
 10
-280.625
 20
99.4476
 11
-280.296
 21
99.2338
  0
LINE
  8
0
 10
-280.296
 20
99.2338
 11
-279.991
 21
98.9868
  0
LINE
  8
0
 10
-279.991
 20
98.9868
 11
-279.713
 21
98.7092
  0
LINE
  8
0
 10
-279.713
 20
98.7092
 11
-279.466
 21
98.4042
  0
LINE
  8
0
 10
-279.466
 20
98.4042
 11
-279.252
 21
98.075
  0
LINE
  8
0
 10
-279.252
 20
98.075
 11
-279.074
 21
97.7253
  0
LINE
  8
0
 10
-279.074
 20
97.7253
 11
-278.934
 21
97.3588
  0
LINE
  8
0
 10
-278.934
 20
97.3588
 11
-278.832
 21
96.9797
  0
LINE
  8
0
 10
-278.832
 20
96.9797
 11
-278.771
 21
96.592
  0
LINE
  8
0
 10
-278.771
 20
96.592
 11
-278.75
 21
96.2
  0
LINE
  8
0
 10
-278.75
 20
96.2
 11
-278.771
 21
95.808
  0
LINE
  8
0
 10
-278.771
 20
95.808
 11
-278.832
 21
95.4203
  0
ENDSEC
  0
SECTION
  2
OBJECTS
  0
DICTIONARY
  0
ENDSEC
  0
EOF
