  0
SECTION
  2
BLOCKS
  0
ENDSEC
  0
SECTION
  2
ENTITIES
  0
LINE
  8
0
 10
285.398
 20
-92.3476
 11
285.915
 21
-92.2657
  0
LINE
  8
0
 10
285.915
 20
-92.2657
 11
286.42
 21
-92.1303
  0
LINE
  8
0
 10
286.42
 20
-92.1303
 11
286.909
 21
-91.9427
  0
LINE
  8
0
 10
286.909
 20
-91.9427
 11
287.375
 21
-91.7051
  0
LINE
  8
0
 10
287.375
 20
-91.7051
 11
287.814
 21
-91.4201
  0
LINE
  8
0
 10
287.814
 20
-91.4201
 11
288.221
 21
-91.0907
  0
LINE
  8
0
 10
288.221
 20
-91.0907
 11
288.591
 21
-90.7207
  0
LINE
  8
0
 10
288.591
 20
-90.7207
 11
288.92
 21
-90.3139
  0
LINE
  8
0
 10
288.92
 20
-90.3139
 11
289.205
 21
-89.875
  0
LINE
  8
0
 10
289.205
 20
-89.875
 11
289.443
 21
-89.4087
  0
LINE
  8
0
 10
289.443
 20
-89.4087
 11
289.63
 21
-88.9201
  0
LINE
  8
0
 10
289.63
 20
-88.9201
 11
289.766
 21
-88.4146
  0
LINE
  8
0
 10
289.766
 20
-88.4146
 11
289.848
 21
-87.8976
  0
LINE
  8
0
 10
289.848
 20
-87.8976
 11
289.875
 21
-87.375
  0
LINE
  8
0
 10
289.875
 20
-87.375
 11
289.875
 21
87.375
  0
LINE
  8
0
 10
289.875
 20
87.375
 11
289.848
 21
87.8976
  0
LINE
  8
0
 10
289.848
 20
87.8976
 11
289.766
 21
88.4146
  0
LINE
  8
0
 10
289.766
 20
88.4146
 11
289.63
 21
88.9201
  0
LINE
  8
0
 10
289.63
 20
88.9201
 11
289.443
 21
89.4087
  0
LINE
  8
0
 10
289.443
 20
89.4087
 11
289.205
 21
89.875
  0
LINE
  8
0
 10
289.205
 20
89.875
 11
288.92
 21
90.3139
  0
LINE
  8
0
 10
288.92
 20
90.3139
 11
288.591
 21
90.7207
  0
LINE
  8
0
 10
288.591
 20
90.7207
 11
288.221
 21
91.0907
  0
LINE
  8
0
 10
288.221
 20
91.0907
 11
287.814
 21
91.4201
  0
LINE
  8
0
 10
287.814
 20
91.4201
 11
287.375
 21
91.7051
  0
LINE
  8
0
 10
287.375
 20
91.7051
 11
286.909
 21
91.9427
  0
LINE
  8
0
 10
286.909
 20
91.9427
 11
286.42
 21
92.1303
  0
LINE
  8
0
 10
286.42
 20
92.1303
 11
285.915
 21
92.2657
  0
LINE
  8
0
 10
285.915
 20
92.2657
 11
285.398
 21
92.3476
  0
LINE
  8
0
 10
285.398
 20
92.3476
 11
284.875
 21
92.375
  0
LINE
  8
0
 10
284.875
 20
92.375
 11
260
 21
92.375
  0
LINE
  8
0
 10
260
 20
92.375
 11
260
 21
-57.5
  0
LINE
  8
0
 10
260
 20
-57.5
 11
259.973
 21
-58.0226
  0
LINE
  8
0
 10
259.973
 20
-58.0226
 11
259.891
 21
-58.5396
  0
LINE
  8
0
 10
259.891
 20
-58.5396
 11
259.755
 21
-59.0451
  0
LINE
  8
0
 10
259.755
 20
-59.0451
 11
259.568
 21
-59.5337
  0
LINE
  8
0
 10
259.568
 20
-59.5337
 11
259.33
 21
-60
  0
LINE
  8
0
 10
259.33
 20
-60
 11
259.045
 21
-60.4389
  0
LINE
  8
0
 10
259.045
 20
-60.4389
 11
258.716
 21
-60.8457
  0
LINE
  8
0
 10
258.716
 20
-60.8457
 11
258.346
 21
-61.2157
  0
LINE
  8
0
 10
258.346
 20
-61.2157
 11
257.939
 21
-61.5451
  0
LINE
  8
0
 10
257.939
 20
-61.5451
 11
257.5
 21
-61.8301
  0
LINE
  8
0
 10
257.5
 20
-61.8301
 11
257.034
 21
-62.0677
  0
LINE
  8
0
 10
257.034
 20
-62.0677
 11
256.545
 21
-62.2553
  0
LINE
  8
0
 10
256.545
 20
-62.2553
 11
256.04
 21
-62.3907
  0
LINE
  8
0
 10
256.04
 20
-62.3907
 11
255.523
 21
-62.4726
  0
LINE
  8
0
 10
255.523
 20
-62.4726
 11
255
 21
-62.5
  0
LINE
  8
0
 10
255
 20
-62.5
 11
-255
 21
-62.5
  0
LINE
  8
0
 10
-255
 20
-62.5
 11
-255.523
 21
-62.4726
  0
LINE
  8
0
 10
-255.523
 20
-62.4726
 11
-256.04
 21
-62.3907
  0
LINE
  8
0
 10
-256.04
 20
-62.3907
 11
-256.545
 21
-62.2553
  0
LINE
  8
0
 10
-256.545
 20
-62.2553
 11
-257.034
 21
-62.0677
  0
LINE
  8
0
 10
-257.034
 20
-62.0677
 11
-257.5
 21
-61.8301
  0
LINE
  8
0
 10
-257.5
 20
-61.8301
 11
-257.939
 21
-61.5451
  0
LINE
  8
0
 10
-257.939
 20
-61.5451
 11
-258.346
 21
-61.2157
  0
LINE
  8
0
 10
-258.346
 20
-61.2157
 11
-258.716
 21
-60.8457
  0
LINE
  8
0
 10
-258.716
 20
-60.8457
 11
-259.045
 21
-60.4389
  0
LINE
  8
0
 10
-259.045
 20
-60.4389
 11
-259.33
 21
-60
  0
LINE
  8
0
 10
-259.33
 20
-60
 11
-259.568
 21
-59.5337
  0
LINE
  8
0
 10
-259.568
 20
-59.5337
 11
-259.755
 21
-59.0451
  0
LINE
  8
0
 10
-259.755
 20
-59.0451
 11
-259.891
 21
-58.5396
  0
LINE
  8
0
 10
-259.891
 20
-58.5396
 11
-259.973
 21
-58.0226
  0
LINE
  8
0
 10
-259.973
 20
-58.0226
 11
-260
 21
-57.5
  0
LINE
  8
0
 10
-260
 20
-57.5
 11
-260
 21
92.375
  0
LINE
  8
0
 10
-260
 20
92.375
 11
-284.875
 21
92.375
  0
LINE
  8
0
 10
-284.875
 20
92.375
 11
-285.398
 21
92.3476
  0
LINE
  8
0
 10
-285.398
 20
92.3476
 11
-285.915
 21
92.2657
  0
LINE
  8
0
 10
-285.915
 20
92.2657
 11
-286.42
 21
92.1303
  0
LINE
  8
0
 10
-286.42
 20
92.1303
 11
-286.909
 21
91.9427
  0
LINE
  8
0
 10
-286.909
 20
91.9427
 11
-287.375
 21
91.7051
  0
LINE
  8
0
 10
-287.375
 20
91.7051
 11
-287.814
 21
91.4201
  0
LINE
  8
0
 10
-287.814
 20
91.4201
 11
-288.221
 21
91.0907
  0
LINE
  8
0
 10
-288.221
 20
91.0907
 11
-288.591
 21
90.7207
  0
LINE
  8
0
 10
-288.591
 20
90.7207
 11
-288.92
 21
90.3139
  0
LINE
  8
0
 10
-288.92
 20
90.3139
 11
-289.205
 21
89.875
  0
LINE
  8
0
 10
-289.205
 20
89.875
 11
-289.443
 21
89.4087
  0
LINE
  8
0
 10
-289.443
 20
89.4087
 11
-289.63
 21
88.9201
  0
LINE
  8
0
 10
-289.63
 20
88.9201
 11
-289.766
 21
88.4146
  0
LINE
  8
0
 10
-289.766
 20
88.4146
 11
-289.848
 21
87.8976
  0
LINE
  8
0
 10
-289.848
 20
87.8976
 11
-289.875
 21
87.375
  0
LINE
  8
0
 10
-289.875
 20
87.375
 11
-289.875
 21
-87.375
  0
LINE
  8
0
 10
-289.875
 20
-87.375
 11
-289.848
 21
-87.8976
  0
LINE
  8
0
 10
-289.848
 20
-87.8976
 11
-289.766
 21
-88.4146
  0
LINE
  8
0
 10
-289.766
 20
-88.4146
 11
-289.63
 21
-88.9201
  0
LINE
  8
0
 10
-289.63
 20
-88.9201
 11
-289.443
 21
-89.4087
  0
LINE
  8
0
 10
-289.443
 20
-89.4087
 11
-289.205
 21
-89.875
  0
LINE
  8
0
 10
-289.205
 20
-89.875
 11
-288.92
 21
-90.3139
  0
LINE
  8
0
 10
-288.92
 20
-90.3139
 11
-288.591
 21
-90.7207
  0
LINE
  8
0
 10
-288.591
 20
-90.7207
 11
-288.221
 21
-91.0907
  0
LINE
  8
0
 10
-288.221
 20
-91.0907
 11
-287.814
 21
-91.4201
  0
LINE
  8
0
 10
-287.814
 20
-91.4201
 11
-287.375
 21
-91.7051
  0
LINE
  8
0
 10
-287.375
 20
-91.7051
 11
-286.909
 21
-91.9427
  0
LINE
  8
0
 10
-286.909
 20
-91.9427
 11
-286.42
 21
-92.1303
  0
LINE
  8
0
 10
-286.42
 20
-92.1303
 11
-285.915
 21
-92.2657
  0
LINE
  8
0
 10
-285.915
 20
-92.2657
 11
-285.398
 21
-92.3476
  0
LINE
  8
0
 10
-285.398
 20
-92.3476
 11
-284.875
 21
-92.375
  0
LINE
  8
0
 10
-284.875
 20
-92.375
 11
284.875
 21
-92.375
  0
LINE
  8
0
 10
284.875
 20
-92.375
 11
285.398
 21
-92.3476
  0
LINE
  8
0
 10
-282.892
 20
81.2705
 11
-283.28
 21
81.3319
  0
LINE
  8
0
 10
-283.28
 20
81.3319
 11
-283.659
 21
81.4335
  0
LINE
  8
0
 10
-283.659
 20
81.4335
 11
-284.025
 21
81.5742
  0
LINE
  8
0
 10
-284.025
 20
81.5742
 11
-284.375
 21
81.7524
  0
LINE
  8
0
 10
-284.375
 20
81.7524
 11
-284.704
 21
81.9662
  0
LINE
  8
0
 10
-284.704
 20
81.9662
 11
-285.009
 21
82.2132
  0
LINE
  8
0
 10
-285.009
 20
82.2132
 11
-285.287
 21
82.4908
  0
LINE
  8
0
 10
-285.287
 20
82.4908
 11
-285.534
 21
82.7958
  0
LINE
  8
0
 10
-285.534
 20
82.7958
 11
-285.748
 21
83.125
  0
LINE
  8
0
 10
-285.748
 20
83.125
 11
-285.926
 21
83.4747
  0
LINE
  8
0
 10
-285.926
 20
83.4747
 11
-286.066
 21
83.8412
  0
LINE
  8
0
 10
-286.066
 20
83.8412
 11
-286.168
 21
84.2203
  0
LINE
  8
0
 10
-286.168
 20
84.2203
 11
-286.229
 21
84.608
  0
LINE
  8
0
 10
-286.229
 20
84.608
 11
-286.25
 21
85
  0
LINE
  8
0
 10
-286.25
 20
85
 11
-286.229
 21
85.392
  0
LINE
  8
0
 10
-286.229
 20
85.392
 11
-286.168
 21
85.7797
  0
LINE
  8
0
 10
-286.168
 20
85.7797
 11
-286.066
 21
86.1588
  0
LINE
  8
0
 10
-286.066
 20
86.1588
 11
-285.926
 21
86.5253
  0
LINE
  8
0
 10
-285.926
 20
86.5253
 11
-285.748
 21
86.875
  0
LINE
  8
0
 10
-285.748
 20
86.875
 11
-285.534
 21
87.2042
  0
LINE
  8
0
 10
-285.534
 20
87.2042
 11
-285.287
 21
87.5092
  0
LINE
  8
0
 10
-285.287
 20
87.5092
 11
-285.009
 21
87.7868
  0
LINE
  8
0
 10
-285.009
 20
87.7868
 11
-284.704
 21
88.0338
  0
LINE
  8
0
 10
-284.704
 20
88.0338
 11
-284.375
 21
88.2476
  0
LINE
  8
0
 10
-284.375
 20
88.2476
 11
-284.025
 21
88.4258
  0
LINE
  8
0
 10
-284.025
 20
88.4258
 11
-283.659
 21
88.5665
  0
LINE
  8
0
 10
-283.659
 20
88.5665
 11
-283.28
 21
88.668
  0
LINE
  8
0
 10
-283.28
 20
88.668
 11
-282.892
 21
88.7294
  0
LINE
  8
0
 10
-282.892
 20
88.7294
 11
-282.5
 21
88.75
  0
LINE
  8
0
 10
-282.5
 20
88.75
 11
-282.108
 21
88.7294
  0
LINE
  8
0
 10
-282.108
 20
88.7294
 11
-281.72
 21
88.668
  0
LINE
  8
0
 10
-281.72
 20
88.668
 11
-281.341
 21
88.5665
  0
LINE
  8
0
 10
-281.341
 20
88.5665
 11
-280.975
 21
88.4258
  0
LINE
  8
0
 10
-280.975
 20
88.4258
 11
-280.625
 21
88.2476
  0
LINE
  8
0
 10
-280.625
 20
88.2476
 11
-280.296
 21
88.0338
  0
LINE
  8
0
 10
-280.296
 20
88.0338
 11
-279.991
 21
87.7868
  0
LINE
  8
0
 10
-279.991
 20
87.7868
 11
-279.713
 21
87.5092
  0
LINE
  8
0
 10
-279.713
 20
87.5092
 11
-279.466
 21
87.2042
  0
LINE
  8
0
 10
-279.466
 20
87.2042
 11
-279.252
 21
86.875
  0
LINE
  8
0
 10
-279.252
 20
86.875
 11
-279.074
 21
86.5253
  0
LINE
  8
0
 10
-279.074
 20
86.5253
 11
-278.934
 21
86.1588
  0
LINE
  8
0
 10
-278.934
 20
86.1588
 11
-278.832
 21
85.7797
  0
LINE
  8
0
 10
-278.832
 20
85.7797
 11
-278.771
 21
85.392
  0
LINE
  8
0
 10
-278.771
 20
85.392
 11
-278.75
 21
85
  0
LINE
  8
0
 10
-278.75
 20
85
 11
-278.771
 21
84.608
  0
LINE
  8
0
 10
-278.771
 20
84.608
 11
-278.832
 21
84.2203
  0
LINE
  8
0
 10
-278.832
 20
84.2203
 11
-278.934
 21
83.8412
  0
LINE
  8
0
 10
-278.934
 20
83.8412
 11
-279.074
 21
83.4747
  0
LINE
  8
0
 10
-279.074
 20
83.4747
 11
-279.252
 21
83.125
  0
LINE
  8
0
 10
-279.252
 20
83.125
 11
-279.466
 21
82.7958
  0
LINE
  8
0
 10
-279.466
 20
82.7958
 11
-279.713
 21
82.4908
  0
LINE
  8
0
 10
-279.713
 20
82.4908
 11
-279.991
 21
82.2132
  0
LINE
  8
0
 10
-279.991
 20
82.2132
 11
-280.296
 21
81.9662
  0
LINE
  8
0
 10
-280.296
 20
81.9662
 11
-280.625
 21
81.7524
  0
LINE
  8
0
 10
-280.625
 20
81.7524
 11
-280.975
 21
81.5742
  0
LINE
  8
0
 10
-280.975
 20
81.5742
 11
-281.341
 21
81.4335
  0
LINE
  8
0
 10
-281.341
 20
81.4335
 11
-281.72
 21
81.3319
  0
LINE
  8
0
 10
-281.72
 20
81.3319
 11
-282.108
 21
81.2705
  0
LINE
  8
0
 10
-282.108
 20
81.2705
 11
-282.5
 21
81.25
  0
LINE
  8
0
 10
-282.5
 20
81.25
 11
-282.892
 21
81.2705
  0
LINE
  8
0
 10
282.108
 20
81.2705
 11
281.72
 21
81.3319
  0
LINE
  8
0
 10
281.72
 20
81.3319
 11
281.341
 21
81.4335
  0
LINE
  8
0
 10
281.341
 20
81.4335
 11
280.975
 21
81.5742
  0
LINE
  8
0
 10
280.975
 20
81.5742
 11
280.625
 21
81.7524
  0
LINE
  8
0
 10
280.625
 20
81.7524
 11
280.296
 21
81.9662
  0
LINE
  8
0
 10
280.296
 20
81.9662
 11
279.991
 21
82.2132
  0
LINE
  8
0
 10
279.991
 20
82.2132
 11
279.713
 21
82.4908
  0
LINE
  8
0
 10
279.713
 20
82.4908
 11
279.466
 21
82.7958
  0
LINE
  8
0
 10
279.466
 20
82.7958
 11
279.252
 21
83.125
  0
LINE
  8
0
 10
279.252
 20
83.125
 11
279.074
 21
83.4747
  0
LINE
  8
0
 10
279.074
 20
83.4747
 11
278.934
 21
83.8412
  0
LINE
  8
0
 10
278.934
 20
83.8412
 11
278.832
 21
84.2203
  0
LINE
  8
0
 10
278.832
 20
84.2203
 11
278.771
 21
84.608
  0
LINE
  8
0
 10
278.771
 20
84.608
 11
278.75
 21
85
  0
LINE
  8
0
 10
278.75
 20
85
 11
278.771
 21
85.392
  0
LINE
  8
0
 10
278.771
 20
85.392
 11
278.832
 21
85.7797
  0
LINE
  8
0
 10
278.832
 20
85.7797
 11
278.934
 21
86.1588
  0
LINE
  8
0
 10
278.934
 20
86.1588
 11
279.074
 21
86.5253
  0
LINE
  8
0
 10
279.074
 20
86.5253
 11
279.252
 21
86.875
  0
LINE
  8
0
 10
279.252
 20
86.875
 11
279.466
 21
87.2042
  0
LINE
  8
0
 10
279.466
 20
87.2042
 11
279.713
 21
87.5092
  0
LINE
  8
0
 10
279.713
 20
87.5092
 11
279.991
 21
87.7868
  0
LINE
  8
0
 10
279.991
 20
87.7868
 11
280.296
 21
88.0338
  0
LINE
  8
0
 10
280.296
 20
88.0338
 11
280.625
 21
88.2476
  0
LINE
  8
0
 10
280.625
 20
88.2476
 11
280.975
 21
88.4258
  0
LINE
  8
0
 10
280.975
 20
88.4258
 11
281.341
 21
88.5665
  0
LINE
  8
0
 10
281.341
 20
88.5665
 11
281.72
 21
88.668
  0
LINE
  8
0
 10
281.72
 20
88.668
 11
282.108
 21
88.7294
  0
LINE
  8
0
 10
282.108
 20
88.7294
 11
282.5
 21
88.75
  0
LINE
  8
0
 10
282.5
 20
88.75
 11
282.892
 21
88.7294
  0
LINE
  8
0
 10
282.892
 20
88.7294
 11
283.28
 21
88.668
  0
LINE
  8
0
 10
283.28
 20
88.668
 11
283.659
 21
88.5665
  0
LINE
  8
0
 10
283.659
 20
88.5665
 11
284.025
 21
88.4258
  0
LINE
  8
0
 10
284.025
 20
88.4258
 11
284.375
 21
88.2476
  0
LINE
  8
0
 10
284.375
 20
88.2476
 11
284.704
 21
88.0338
  0
LINE
  8
0
 10
284.704
 20
88.0338
 11
285.009
 21
87.7868
  0
LINE
  8
0
 10
285.009
 20
87.7868
 11
285.287
 21
87.5092
  0
LINE
  8
0
 10
285.287
 20
87.5092
 11
285.534
 21
87.2042
  0
LINE
  8
0
 10
285.534
 20
87.2042
 11
285.748
 21
86.875
  0
LINE
  8
0
 10
285.748
 20
86.875
 11
285.926
 21
86.5253
  0
LINE
  8
0
 10
285.926
 20
86.5253
 11
286.066
 21
86.1588
  0
LINE
  8
0
 10
286.066
 20
86.1588
 11
286.168
 21
85.7797
  0
LINE
  8
0
 10
286.168
 20
85.7797
 11
286.229
 21
85.392
  0
LINE
  8
0
 10
286.229
 20
85.392
 11
286.25
 21
85
  0
LINE
  8
0
 10
286.25
 20
85
 11
286.229
 21
84.608
  0
LINE
  8
0
 10
286.229
 20
84.608
 11
286.168
 21
84.2203
  0
LINE
  8
0
 10
286.168
 20
84.2203
 11
286.066
 21
83.8412
  0
LINE
  8
0
 10
286.066
 20
83.8412
 11
285.926
 21
83.4747
  0
LINE
  8
0
 10
285.926
 20
83.4747
 11
285.748
 21
83.125
  0
LINE
  8
0
 10
285.748
 20
83.125
 11
285.534
 21
82.7958
  0
LINE
  8
0
 10
285.534
 20
82.7958
 11
285.287
 21
82.4908
  0
LINE
  8
0
 10
285.287
 20
82.4908
 11
285.009
 21
82.2132
  0
LINE
  8
0
 10
285.009
 20
82.2132
 11
284.704
 21
81.9662
  0
LINE
  8
0
 10
284.704
 20
81.9662
 11
284.375
 21
81.7524
  0
LINE
  8
0
 10
284.375
 20
81.7524
 11
284.025
 21
81.5742
  0
LINE
  8
0
 10
284.025
 20
81.5742
 11
283.659
 21
81.4335
  0
LINE
  8
0
 10
283.659
 20
81.4335
 11
283.28
 21
81.3319
  0
LINE
  8
0
 10
283.28
 20
81.3319
 11
282.892
 21
81.2705
  0
LINE
  8
0
 10
282.892
 20
81.2705
 11
282.5
 21
81.25
  0
LINE
  8
0
 10
282.5
 20
81.25
 11
282.108
 21
81.2705
  0
LINE
  8
0
 10
282.191
 20
40.8283
 11
281.951
 21
40.8911
  0
LINE
  8
0
 10
281.951
 20
40.8911
 11
281.723
 21
40.9881
  0
LINE
  8
0
 10
281.723
 20
40.9881
 11
281.511
 21
41.1174
  0
LINE
  8
0
 10
281.511
 20
41.1174
 11
281.32
 21
41.2762
  0
LINE
  8
0
 10
281.32
 20
41.2762
 11
281.154
 21
41.461
  0
LINE
  8
0
 10
281.154
 20
41.461
 11
281.018
 21
41.668
  0
LINE
  8
0
 10
281.018
 20
41.668
 11
280.912
 21
41.8927
  0
LINE
  8
0
 10
280.912
 20
41.8927
 11
280.841
 21
42.1304
  0
LINE
  8
0
 10
280.841
 20
42.1304
 11
280.805
 21
42.3759
  0
LINE
  8
0
 10
280.805
 20
42.3759
 11
280.805
 21
42.6241
  0
LINE
  8
0
 10
280.805
 20
42.6241
 11
280.841
 21
42.8696
  0
LINE
  8
0
 10
280.841
 20
42.8696
 11
280.912
 21
43.1073
  0
LINE
  8
0
 10
280.912
 20
43.1073
 11
281.018
 21
43.332
  0
LINE
  8
0
 10
281.018
 20
43.332
 11
281.154
 21
43.539
  0
LINE
  8
0
 10
281.154
 20
43.539
 11
281.32
 21
43.7238
  0
LINE
  8
0
 10
281.32
 20
43.7238
 11
281.511
 21
43.8826
  0
LINE
  8
0
 10
281.511
 20
43.8826
 11
281.723
 21
44.0119
  0
LINE
  8
0
 10
281.723
 20
44.0119
 11
281.951
 21
44.1089
  0
LINE
  8
0
 10
281.951
 20
44.1089
 11
282.191
 21
44.1717
  0
LINE
  8
0
 10
282.191
 20
44.1717
 11
282.438
 21
44.1989
  0
LINE
  8
0
 10
282.438
 20
44.1989
 11
282.686
 21
44.1898
  0
LINE
  8
0
 10
282.686
 20
44.1898
 11
282.93
 21
44.1447
  0
LINE
  8
0
 10
282.93
 20
44.1447
 11
283.165
 21
44.0646
  0
LINE
  8
0
 10
283.165
 20
44.0646
 11
283.386
 21
43.9511
  0
LINE
  8
0
 10
283.386
 20
43.9511
 11
283.587
 21
43.8067
  0
LINE
  8
0
 10
283.587
 20
43.8067
 11
283.766
 21
43.6344
  0
LINE
  8
0
 10
283.766
 20
43.6344
 11
283.918
 21
43.438
  0
LINE
  8
0
 10
283.918
 20
43.438
 11
284.039
 21
43.2216
  0
LINE
  8
0
 10
284.039
 20
43.2216
 11
284.128
 21
42.9898
  0
LINE
  8
0
 10
284.128
 20
42.9898
 11
284.182
 21
42.7475
  0
LINE
  8
0
 10
284.182
 20
42.7475
 11
284.2
 21
42.5
  0
LINE
  8
0
 10
284.2
 20
42.5
 11
284.182
 21
42.2525
  0
LINE
  8
0
 10
284.182
 20
42.2525
 11
284.128
 21
42.0102
  0
LINE
  8
0
 10
284.128
 20
42.0102
 11
284.039
 21
41.7784
  0
LINE
  8
0
 10
284.039
 20
41.7784
 11
283.918
 21
41.562
  0
LINE
  8
0
 10
283.918
 20
41.562
 11
283.766
 21
41.3656
  0
LINE
  8
0
 10
283.766
 20
41.3656
 11
283.587
 21
41.1933
  0
LINE
  8
0
 10
283.587
 20
41.1933
 11
283.386
 21
41.0489
  0
LINE
  8
0
 10
283.386
 20
41.0489
 11
283.165
 21
40.9354
  0
LINE
  8
0
 10
283.165
 20
40.9354
 11
282.93
 21
40.8553
  0
LINE
  8
0
 10
282.93
 20
40.8553
 11
282.686
 21
40.8102
  0
LINE
  8
0
 10
282.686
 20
40.8102
 11
282.438
 21
40.8011
  0
LINE
  8
0
 10
282.438
 20
40.8011
 11
282.191
 21
40.8283
  0
LINE
  8
0
 10
-282.686
 20
40.8102
 11
-282.93
 21
40.8553
  0
LINE
  8
0
 10
-282.93
 20
40.8553
 11
-283.165
 21
40.9354
  0
LINE
  8
0
 10
-283.165
 20
40.9354
 11
-283.386
 21
41.0489
  0
LINE
  8
0
 10
-283.386
 20
41.0489
 11
-283.587
 21
41.1933
  0
LINE
  8
0
 10
-283.587
 20
41.1933
 11
-283.766
 21
41.3656
  0
LINE
  8
0
 10
-283.766
 20
41.3656
 11
-283.918
 21
41.562
  0
LINE
  8
0
 10
-283.918
 20
41.562
 11
-284.039
 21
41.7784
  0
LINE
  8
0
 10
-284.039
 20
41.7784
 11
-284.128
 21
42.0102
  0
LINE
  8
0
 10
-284.128
 20
42.0102
 11
-284.182
 21
42.2525
  0
LINE
  8
0
 10
-284.182
 20
42.2525
 11
-284.2
 21
42.5
  0
LINE
  8
0
 10
-284.2
 20
42.5
 11
-284.182
 21
42.7475
  0
LINE
  8
0
 10
-284.182
 20
42.7475
 11
-284.128
 21
42.9898
  0
LINE
  8
0
 10
-284.128
 20
42.9898
 11
-284.039
 21
43.2216
  0
LINE
  8
0
 10
-284.039
 20
43.2216
 11
-283.918
 21
43.438
  0
LINE
  8
0
 10
-283.918
 20
43.438
 11
-283.766
 21
43.6344
  0
LINE
  8
0
 10
-283.766
 20
43.6344
 11
-283.587
 21
43.8067
  0
LINE
  8
0
 10
-283.587
 20
43.8067
 11
-283.386
 21
43.9511
  0
LINE
  8
0
 10
-283.386
 20
43.9511
 11
-283.165
 21
44.0646
  0
LINE
  8
0
 10
-283.165
 20
44.0646
 11
-282.93
 21
44.1447
  0
LINE
  8
0
 10
-282.93
 20
44.1447
 11
-282.686
 21
44.1898
  0
LINE
  8
0
 10
-282.686
 20
44.1898
 11
-282.438
 21
44.1989
  0
LINE
  8
0
 10
-282.438
 20
44.1989
 11
-282.191
 21
44.1717
  0
LINE
  8
0
 10
-282.191
 20
44.1717
 11
-281.951
 21
44.1089
  0
LINE
  8
0
 10
-281.951
 20
44.1089
 11
-281.723
 21
44.0119
  0
LINE
  8
0
 10
-281.723
 20
44.0119
 11
-281.511
 21
43.8826
  0
LINE
  8
0
 10
-281.511
 20
43.8826
 11
-281.32
 21
43.7238
  0
LINE
  8
0
 10
-281.32
 20
43.7238
 11
-281.154
 21
43.539
  0
LINE
  8
0
 10
-281.154
 20
43.539
 11
-281.018
 21
43.332
  0
LINE
  8
0
 10
-281.018
 20
43.332
 11
-280.912
 21
43.1073
  0
LINE
  8
0
 10
-280.912
 20
43.1073
 11
-280.841
 21
42.8696
  0
LINE
  8
0
 10
-280.841
 20
42.8696
 11
-280.805
 21
42.6241
  0
LINE
  8
0
 10
-280.805
 20
42.6241
 11
-280.805
 21
42.3759
  0
LINE
  8
0
 10
-280.805
 20
42.3759
 11
-280.841
 21
42.1304
  0
LINE
  8
0
 10
-280.841
 20
42.1304
 11
-280.912
 21
41.8927
  0
LINE
  8
0
 10
-280.912
 20
41.8927
 11
-281.018
 21
41.668
  0
LINE
  8
0
 10
-281.018
 20
41.668
 11
-281.154
 21
41.461
  0
LINE
  8
0
 10
-281.154
 20
41.461
 11
-281.32
 21
41.2762
  0
LINE
  8
0
 10
-281.32
 20
41.2762
 11
-281.511
 21
41.1174
  0
LINE
  8
0
 10
-281.511
 20
41.1174
 11
-281.723
 21
40.9881
  0
LINE
  8
0
 10
-281.723
 20
40.9881
 11
-281.951
 21
40.8911
  0
LINE
  8
0
 10
-281.951
 20
40.8911
 11
-282.191
 21
40.8283
  0
LINE
  8
0
 10
-282.191
 20
40.8283
 11
-282.438
 21
40.8011
  0
LINE
  8
0
 10
-282.438
 20
40.8011
 11
-282.686
 21
40.8102
  0
LINE
  8
0
 10
282.191
 20
-44.1717
 11
281.951
 21
-44.1089
  0
LINE
  8
0
 10
281.951
 20
-44.1089
 11
281.723
 21
-44.0119
  0
LINE
  8
0
 10
281.723
 20
-44.0119
 11
281.511
 21
-43.8826
  0
LINE
  8
0
 10
281.511
 20
-43.8826
 11
281.32
 21
-43.7238
  0
LINE
  8
0
 10
281.32
 20
-43.7238
 11
281.154
 21
-43.539
  0
LINE
  8
0
 10
281.154
 20
-43.539
 11
281.018
 21
-43.332
  0
LINE
  8
0
 10
281.018
 20
-43.332
 11
280.912
 21
-43.1073
  0
LINE
  8
0
 10
280.912
 20
-43.1073
 11
280.841
 21
-42.8696
  0
LINE
  8
0
 10
280.841
 20
-42.8696
 11
280.805
 21
-42.6241
  0
LINE
  8
0
 10
280.805
 20
-42.6241
 11
280.805
 21
-42.3759
  0
LINE
  8
0
 10
280.805
 20
-42.3759
 11
280.841
 21
-42.1304
  0
LINE
  8
0
 10
280.841
 20
-42.1304
 11
280.912
 21
-41.8927
  0
LINE
  8
0
 10
280.912
 20
-41.8927
 11
281.018
 21
-41.668
  0
LINE
  8
0
 10
281.018
 20
-41.668
 11
281.154
 21
-41.461
  0
LINE
  8
0
 10
281.154
 20
-41.461
 11
281.32
 21
-41.2762
  0
LINE
  8
0
 10
281.32
 20
-41.2762
 11
281.511
 21
-41.1174
  0
LINE
  8
0
 10
281.511
 20
-41.1174
 11
281.723
 21
-40.9881
  0
LINE
  8
0
 10
281.723
 20
-40.9881
 11
281.951
 21
-40.8911
  0
LINE
  8
0
 10
281.951
 20
-40.8911
 11
282.191
 21
-40.8283
  0
LINE
  8
0
 10
282.191
 20
-40.8283
 11
282.438
 21
-40.8011
  0
LINE
  8
0
 10
282.438
 20
-40.8011
 11
282.686
 21
-40.8102
  0
LINE
  8
0
 10
282.686
 20
-40.8102
 11
282.93
 21
-40.8553
  0
LINE
  8
0
 10
282.93
 20
-40.8553
 11
283.165
 21
-40.9354
  0
LINE
  8
0
 10
283.165
 20
-40.9354
 11
283.386
 21
-41.0489
  0
LINE
  8
0
 10
283.386
 20
-41.0489
 11
283.587
 21
-41.1933
  0
LINE
  8
0
 10
283.587
 20
-41.1933
 11
283.766
 21
-41.3656
  0
LINE
  8
0
 10
283.766
 20
-41.3656
 11
283.918
 21
-41.562
  0
LINE
  8
0
 10
283.918
 20
-41.562
 11
284.039
 21
-41.7784
  0
LINE
  8
0
 10
284.039
 20
-41.7784
 11
284.128
 21
-42.0102
  0
LINE
  8
0
 10
284.128
 20
-42.0102
 11
284.182
 21
-42.2525
  0
LINE
  8
0
 10
284.182
 20
-42.2525
 11
284.2
 21
-42.5
  0
LINE
  8
0
 10
284.2
 20
-42.5
 11
284.182
 21
-42.7475
  0
LINE
  8
0
 10
284.182
 20
-42.7475
 11
284.128
 21
-42.9898
  0
LINE
  8
0
 10
284.128
 20
-42.9898
 11
284.039
 21
-43.2216
  0
LINE
  8
0
 10
284.039
 20
-43.2216
 11
283.918
 21
-43.438
  0
LINE
  8
0
 10
283.918
 20
-43.438
 11
283.766
 21
-43.6344
  0
LINE
  8
0
 10
283.766
 20
-43.6344
 11
283.587
 21
-43.8067
  0
LINE
  8
0
 10
283.587
 20
-43.8067
 11
283.386
 21
-43.9511
  0
LINE
  8
0
 10
283.386
 20
-43.9511
 11
283.165
 21
-44.0646
  0
LINE
  8
0
 10
283.165
 20
-44.0646
 11
282.93
 21
-44.1447
  0
LINE
  8
0
 10
282.93
 20
-44.1447
 11
282.686
 21
-44.1898
  0
LINE
  8
0
 10
282.686
 20
-44.1898
 11
282.438
 21
-44.1989
  0
LINE
  8
0
 10
282.438
 20
-44.1989
 11
282.191
 21
-44.1717
  0
LINE
  8
0
 10
-282.686
 20
-44.1898
 11
-282.93
 21
-44.1447
  0
LINE
  8
0
 10
-282.93
 20
-44.1447
 11
-283.165
 21
-44.0646
  0
LINE
  8
0
 10
-283.165
 20
-44.0646
 11
-283.386
 21
-43.9511
  0
LINE
  8
0
 10
-283.386
 20
-43.9511
 11
-283.587
 21
-43.8067
  0
LINE
  8
0
 10
-283.587
 20
-43.8067
 11
-283.766
 21
-43.6344
  0
LINE
  8
0
 10
-283.766
 20
-43.6344
 11
-283.918
 21
-43.438
  0
LINE
  8
0
 10
-283.918
 20
-43.438
 11
-284.039
 21
-43.2216
  0
LINE
  8
0
 10
-284.039
 20
-43.2216
 11
-284.128
 21
-42.9898
  0
LINE
  8
0
 10
-284.128
 20
-42.9898
 11
-284.182
 21
-42.7475
  0
LINE
  8
0
 10
-284.182
 20
-42.7475
 11
-284.2
 21
-42.5
  0
LINE
  8
0
 10
-284.2
 20
-42.5
 11
-284.182
 21
-42.2525
  0
LINE
  8
0
 10
-284.182
 20
-42.2525
 11
-284.128
 21
-42.0102
  0
LINE
  8
0
 10
-284.128
 20
-42.0102
 11
-284.039
 21
-41.7784
  0
LINE
  8
0
 10
-284.039
 20
-41.7784
 11
-283.918
 21
-41.562
  0
LINE
  8
0
 10
-283.918
 20
-41.562
 11
-283.766
 21
-41.3656
  0
LINE
  8
0
 10
-283.766
 20
-41.3656
 11
-283.587
 21
-41.1933
  0
LINE
  8
0
 10
-283.587
 20
-41.1933
 11
-283.386
 21
-41.0489
  0
LINE
  8
0
 10
-283.386
 20
-41.0489
 11
-283.165
 21
-40.9354
  0
LINE
  8
0
 10
-283.165
 20
-40.9354
 11
-282.93
 21
-40.8553
  0
LINE
  8
0
 10
-282.93
 20
-40.8553
 11
-282.686
 21
-40.8102
  0
LINE
  8
0
 10
-282.686
 20
-40.8102
 11
-282.438
 21
-40.8011
  0
LINE
  8
0
 10
-282.438
 20
-40.8011
 11
-282.191
 21
-40.8283
  0
LINE
  8
0
 10
-282.191
 20
-40.8283
 11
-281.951
 21
-40.8911
  0
LINE
  8
0
 10
-281.951
 20
-40.8911
 11
-281.723
 21
-40.9881
  0
LINE
  8
0
 10
-281.723
 20
-40.9881
 11
-281.511
 21
-41.1174
  0
LINE
  8
0
 10
-281.511
 20
-41.1174
 11
-281.32
 21
-41.2762
  0
LINE
  8
0
 10
-281.32
 20
-41.2762
 11
-281.154
 21
-41.461
  0
LINE
  8
0
 10
-281.154
 20
-41.461
 11
-281.018
 21
-41.668
  0
LINE
  8
0
 10
-281.018
 20
-41.668
 11
-280.912
 21
-41.8927
  0
LINE
  8
0
 10
-280.912
 20
-41.8927
 11
-280.841
 21
-42.1304
  0
LINE
  8
0
 10
-280.841
 20
-42.1304
 11
-280.805
 21
-42.3759
  0
LINE
  8
0
 10
-280.805
 20
-42.3759
 11
-280.805
 21
-42.6241
  0
LINE
  8
0
 10
-280.805
 20
-42.6241
 11
-280.841
 21
-42.8696
  0
LINE
  8
0
 10
-280.841
 20
-42.8696
 11
-280.912
 21
-43.1073
  0
LINE
  8
0
 10
-280.912
 20
-43.1073
 11
-281.018
 21
-43.332
  0
LINE
  8
0
 10
-281.018
 20
-43.332
 11
-281.154
 21
-43.539
  0
LINE
  8
0
 10
-281.154
 20
-43.539
 11
-281.32
 21
-43.7238
  0
LINE
  8
0
 10
-281.32
 20
-43.7238
 11
-281.511
 21
-43.8826
  0
LINE
  8
0
 10
-281.511
 20
-43.8826
 11
-281.723
 21
-44.0119
  0
LINE
  8
0
 10
-281.723
 20
-44.0119
 11
-281.951
 21
-44.1089
  0
LINE
  8
0
 10
-281.951
 20
-44.1089
 11
-282.191
 21
-44.1717
  0
LINE
  8
0
 10
-282.191
 20
-44.1717
 11
-282.438
 21
-44.1989
  0
LINE
  8
0
 10
-282.438
 20
-44.1989
 11
-282.686
 21
-44.1898
  0
LINE
  8
0
 10
-282.892
 20
-88.7294
 11
-283.28
 21
-88.668
  0
LINE
  8
0
 10
-283.28
 20
-88.668
 11
-283.659
 21
-88.5665
  0
LINE
  8
0
 10
-283.659
 20
-88.5665
 11
-284.025
 21
-88.4258
  0
LINE
  8
0
 10
-284.025
 20
-88.4258
 11
-284.375
 21
-88.2476
  0
LINE
  8
0
 10
-284.375
 20
-88.2476
 11
-284.704
 21
-88.0338
  0
LINE
  8
0
 10
-284.704
 20
-88.0338
 11
-285.009
 21
-87.7868
  0
LINE
  8
0
 10
-285.009
 20
-87.7868
 11
-285.287
 21
-87.5092
  0
LINE
  8
0
 10
-285.287
 20
-87.5092
 11
-285.534
 21
-87.2042
  0
LINE
  8
0
 10
-285.534
 20
-87.2042
 11
-285.748
 21
-86.875
  0
LINE
  8
0
 10
-285.748
 20
-86.875
 11
-285.926
 21
-86.5253
  0
LINE
  8
0
 10
-285.926
 20
-86.5253
 11
-286.066
 21
-86.1588
  0
LINE
  8
0
 10
-286.066
 20
-86.1588
 11
-286.168
 21
-85.7797
  0
LINE
  8
0
 10
-286.168
 20
-85.7797
 11
-286.229
 21
-85.392
  0
LINE
  8
0
 10
-286.229
 20
-85.392
 11
-286.25
 21
-85
  0
LINE
  8
0
 10
-286.25
 20
-85
 11
-286.229
 21
-84.608
  0
LINE
  8
0
 10
-286.229
 20
-84.608
 11
-286.168
 21
-84.2203
  0
LINE
  8
0
 10
-286.168
 20
-84.2203
 11
-286.066
 21
-83.8412
  0
LINE
  8
0
 10
-286.066
 20
-83.8412
 11
-285.926
 21
-83.4747
  0
LINE
  8
0
 10
-285.926
 20
-83.4747
 11
-285.748
 21
-83.125
  0
LINE
  8
0
 10
-285.748
 20
-83.125
 11
-285.534
 21
-82.7958
  0
LINE
  8
0
 10
-285.534
 20
-82.7958
 11
-285.287
 21
-82.4908
  0
LINE
  8
0
 10
-285.287
 20
-82.4908
 11
-285.009
 21
-82.2132
  0
LINE
  8
0
 10
-285.009
 20
-82.2132
 11
-284.704
 21
-81.9662
  0
LINE
  8
0
 10
-284.704
 20
-81.9662
 11
-284.375
 21
-81.7524
  0
LINE
  8
0
 10
-284.375
 20
-81.7524
 11
-284.025
 21
-81.5742
  0
LINE
  8
0
 10
-284.025
 20
-81.5742
 11
-283.659
 21
-81.4335
  0
LINE
  8
0
 10
-283.659
 20
-81.4335
 11
-283.28
 21
-81.3319
  0
LINE
  8
0
 10
-283.28
 20
-81.3319
 11
-282.892
 21
-81.2705
  0
LINE
  8
0
 10
-282.892
 20
-81.2705
 11
-282.5
 21
-81.25
  0
LINE
  8
0
 10
-282.5
 20
-81.25
 11
-282.108
 21
-81.2705
  0
LINE
  8
0
 10
-282.108
 20
-81.2705
 11
-281.72
 21
-81.3319
  0
LINE
  8
0
 10
-281.72
 20
-81.3319
 11
-281.341
 21
-81.4335
  0
LINE
  8
0
 10
-281.341
 20
-81.4335
 11
-280.975
 21
-81.5742
  0
LINE
  8
0
 10
-280.975
 20
-81.5742
 11
-280.625
 21
-81.7524
  0
LINE
  8
0
 10
-280.625
 20
-81.7524
 11
-280.296
 21
-81.9662
  0
LINE
  8
0
 10
-280.296
 20
-81.9662
 11
-279.991
 21
-82.2132
  0
LINE
  8
0
 10
-279.991
 20
-82.2132
 11
-279.713
 21
-82.4908
  0
LINE
  8
0
 10
-279.713
 20
-82.4908
 11
-279.466
 21
-82.7958
  0
LINE
  8
0
 10
-279.466
 20
-82.7958
 11
-279.252
 21
-83.125
  0
LINE
  8
0
 10
-279.252
 20
-83.125
 11
-279.074
 21
-83.4747
  0
LINE
  8
0
 10
-279.074
 20
-83.4747
 11
-278.934
 21
-83.8412
  0
LINE
  8
0
 10
-278.934
 20
-83.8412
 11
-278.832
 21
-84.2203
  0
LINE
  8
0
 10
-278.832
 20
-84.2203
 11
-278.771
 21
-84.608
  0
LINE
  8
0
 10
-278.771
 20
-84.608
 11
-278.75
 21
-85
  0
LINE
  8
0
 10
-278.75
 20
-85
 11
-278.771
 21
-85.392
  0
LINE
  8
0
 10
-278.771
 20
-85.392
 11
-278.832
 21
-85.7797
  0
LINE
  8
0
 10
-278.832
 20
-85.7797
 11
-278.934
 21
-86.1588
  0
LINE
  8
0
 10
-278.934
 20
-86.1588
 11
-279.074
 21
-86.5253
  0
LINE
  8
0
 10
-279.074
 20
-86.5253
 11
-279.252
 21
-86.875
  0
LINE
  8
0
 10
-279.252
 20
-86.875
 11
-279.466
 21
-87.2042
  0
LINE
  8
0
 10
-279.466
 20
-87.2042
 11
-279.713
 21
-87.5092
  0
LINE
  8
0
 10
-279.713
 20
-87.5092
 11
-279.991
 21
-87.7868
  0
LINE
  8
0
 10
-279.991
 20
-87.7868
 11
-280.296
 21
-88.0338
  0
LINE
  8
0
 10
-280.296
 20
-88.0338
 11
-280.625
 21
-88.2476
  0
LINE
  8
0
 10
-280.625
 20
-88.2476
 11
-280.975
 21
-88.4258
  0
LINE
  8
0
 10
-280.975
 20
-88.4258
 11
-281.341
 21
-88.5665
  0
LINE
  8
0
 10
-281.341
 20
-88.5665
 11
-281.72
 21
-88.668
  0
LINE
  8
0
 10
-281.72
 20
-88.668
 11
-282.108
 21
-88.7294
  0
LINE
  8
0
 10
-282.108
 20
-88.7294
 11
-282.5
 21
-88.75
  0
LINE
  8
0
 10
-282.5
 20
-88.75
 11
-282.892
 21
-88.7294
  0
LINE
  8
0
 10
282.108
 20
-88.7294
 11
281.72
 21
-88.668
  0
LINE
  8
0
 10
281.72
 20
-88.668
 11
281.341
 21
-88.5665
  0
LINE
  8
0
 10
281.341
 20
-88.5665
 11
280.975
 21
-88.4258
  0
LINE
  8
0
 10
280.975
 20
-88.4258
 11
280.625
 21
-88.2476
  0
LINE
  8
0
 10
280.625
 20
-88.2476
 11
280.296
 21
-88.0338
  0
LINE
  8
0
 10
280.296
 20
-88.0338
 11
279.991
 21
-87.7868
  0
LINE
  8
0
 10
279.991
 20
-87.7868
 11
279.713
 21
-87.5092
  0
LINE
  8
0
 10
279.713
 20
-87.5092
 11
279.466
 21
-87.2042
  0
LINE
  8
0
 10
279.466
 20
-87.2042
 11
279.252
 21
-86.875
  0
LINE
  8
0
 10
279.252
 20
-86.875
 11
279.074
 21
-86.5253
  0
LINE
  8
0
 10
279.074
 20
-86.5253
 11
278.934
 21
-86.1588
  0
LINE
  8
0
 10
278.934
 20
-86.1588
 11
278.832
 21
-85.7797
  0
LINE
  8
0
 10
278.832
 20
-85.7797
 11
278.771
 21
-85.392
  0
LINE
  8
0
 10
278.771
 20
-85.392
 11
278.75
 21
-85
  0
LINE
  8
0
 10
278.75
 20
-85
 11
278.771
 21
-84.608
  0
LINE
  8
0
 10
278.771
 20
-84.608
 11
278.832
 21
-84.2203
  0
LINE
  8
0
 10
278.832
 20
-84.2203
 11
278.934
 21
-83.8412
  0
LINE
  8
0
 10
278.934
 20
-83.8412
 11
279.074
 21
-83.4747
  0
LINE
  8
0
 10
279.074
 20
-83.4747
 11
279.252
 21
-83.125
  0
LINE
  8
0
 10
279.252
 20
-83.125
 11
279.466
 21
-82.7958
  0
LINE
  8
0
 10
279.466
 20
-82.7958
 11
279.713
 21
-82.4908
  0
LINE
  8
0
 10
279.713
 20
-82.4908
 11
279.991
 21
-82.2132
  0
LINE
  8
0
 10
279.991
 20
-82.2132
 11
280.296
 21
-81.9662
  0
LINE
  8
0
 10
280.296
 20
-81.9662
 11
280.625
 21
-81.7524
  0
LINE
  8
0
 10
280.625
 20
-81.7524
 11
280.975
 21
-81.5742
  0
LINE
  8
0
 10
280.975
 20
-81.5742
 11
281.341
 21
-81.4335
  0
LINE
  8
0
 10
281.341
 20
-81.4335
 11
281.72
 21
-81.3319
  0
LINE
  8
0
 10
281.72
 20
-81.3319
 11
282.108
 21
-81.2705
  0
LINE
  8
0
 10
282.108
 20
-81.2705
 11
282.5
 21
-81.25
  0
LINE
  8
0
 10
282.5
 20
-81.25
 11
282.892
 21
-81.2705
  0
LINE
  8
0
 10
282.892
 20
-81.2705
 11
283.28
 21
-81.3319
  0
LINE
  8
0
 10
283.28
 20
-81.3319
 11
283.659
 21
-81.4335
  0
LINE
  8
0
 10
283.659
 20
-81.4335
 11
284.025
 21
-81.5742
  0
LINE
  8
0
 10
284.025
 20
-81.5742
 11
284.375
 21
-81.7524
  0
LINE
  8
0
 10
284.375
 20
-81.7524
 11
284.704
 21
-81.9662
  0
LINE
  8
0
 10
284.704
 20
-81.9662
 11
285.009
 21
-82.2132
  0
LINE
  8
0
 10
285.009
 20
-82.2132
 11
285.287
 21
-82.4908
  0
LINE
  8
0
 10
285.287
 20
-82.4908
 11
285.534
 21
-82.7958
  0
LINE
  8
0
 10
285.534
 20
-82.7958
 11
285.748
 21
-83.125
  0
LINE
  8
0
 10
285.748
 20
-83.125
 11
285.926
 21
-83.4747
  0
LINE
  8
0
 10
285.926
 20
-83.4747
 11
286.066
 21
-83.8412
  0
LINE
  8
0
 10
286.066
 20
-83.8412
 11
286.168
 21
-84.2203
  0
LINE
  8
0
 10
286.168
 20
-84.2203
 11
286.229
 21
-84.608
  0
LINE
  8
0
 10
286.229
 20
-84.608
 11
286.25
 21
-85
  0
LINE
  8
0
 10
286.25
 20
-85
 11
286.229
 21
-85.392
  0
LINE
  8
0
 10
286.229
 20
-85.392
 11
286.168
 21
-85.7797
  0
LINE
  8
0
 10
286.168
 20
-85.7797
 11
286.066
 21
-86.1588
  0
LINE
  8
0
 10
286.066
 20
-86.1588
 11
285.926
 21
-86.5253
  0
LINE
  8
0
 10
285.926
 20
-86.5253
 11
285.748
 21
-86.875
  0
LINE
  8
0
 10
285.748
 20
-86.875
 11
285.534
 21
-87.2042
  0
LINE
  8
0
 10
285.534
 20
-87.2042
 11
285.287
 21
-87.5092
  0
LINE
  8
0
 10
285.287
 20
-87.5092
 11
285.009
 21
-87.7868
  0
LINE
  8
0
 10
285.009
 20
-87.7868
 11
284.704
 21
-88.0338
  0
LINE
  8
0
 10
284.704
 20
-88.0338
 11
284.375
 21
-88.2476
  0
LINE
  8
0
 10
284.375
 20
-88.2476
 11
284.025
 21
-88.4258
  0
LINE
  8
0
 10
284.025
 20
-88.4258
 11
283.659
 21
-88.5665
  0
LINE
  8
0
 10
283.659
 20
-88.5665
 11
283.28
 21
-88.668
  0
LINE
  8
0
 10
283.28
 20
-88.668
 11
282.892
 21
-88.7294
  0
LINE
  8
0
 10
282.892
 20
-88.7294
 11
282.5
 21
-88.75
  0
LINE
  8
0
 10
282.5
 20
-88.75
 11
282.108
 21
-88.7294
  0
ENDSEC
  0
SECTION
  2
OBJECTS
  0
DICTIONARY
  0
ENDSEC
  0
EOF
