  0
SECTION
  2
BLOCKS
  0
ENDSEC
  0
SECTION
  2
ENTITIES
  0
LINE
  8
0
 10
201.748
 20
-92.3476
 11
202.265
 21
-92.2657
  0
LINE
  8
0
 10
202.265
 20
-92.2657
 11
202.77
 21
-92.1303
  0
LINE
  8
0
 10
202.77
 20
-92.1303
 11
203.259
 21
-91.9427
  0
LINE
  8
0
 10
203.259
 20
-91.9427
 11
203.725
 21
-91.7051
  0
LINE
  8
0
 10
203.725
 20
-91.7051
 11
204.164
 21
-91.4201
  0
LINE
  8
0
 10
204.164
 20
-91.4201
 11
204.571
 21
-91.0907
  0
LINE
  8
0
 10
204.571
 20
-91.0907
 11
204.941
 21
-90.7207
  0
LINE
  8
0
 10
204.941
 20
-90.7207
 11
205.27
 21
-90.3139
  0
LINE
  8
0
 10
205.27
 20
-90.3139
 11
205.555
 21
-89.875
  0
LINE
  8
0
 10
205.555
 20
-89.875
 11
205.793
 21
-89.4087
  0
LINE
  8
0
 10
205.793
 20
-89.4087
 11
205.98
 21
-88.9201
  0
LINE
  8
0
 10
205.98
 20
-88.9201
 11
206.116
 21
-88.4146
  0
LINE
  8
0
 10
206.116
 20
-88.4146
 11
206.198
 21
-87.8976
  0
LINE
  8
0
 10
206.198
 20
-87.8976
 11
206.225
 21
-87.375
  0
LINE
  8
0
 10
206.225
 20
-87.375
 11
206.225
 21
87.375
  0
LINE
  8
0
 10
206.225
 20
87.375
 11
206.198
 21
87.8976
  0
LINE
  8
0
 10
206.198
 20
87.8976
 11
206.116
 21
88.4146
  0
LINE
  8
0
 10
206.116
 20
88.4146
 11
205.98
 21
88.9201
  0
LINE
  8
0
 10
205.98
 20
88.9201
 11
205.793
 21
89.4087
  0
LINE
  8
0
 10
205.793
 20
89.4087
 11
205.555
 21
89.875
  0
LINE
  8
0
 10
205.555
 20
89.875
 11
205.27
 21
90.3139
  0
LINE
  8
0
 10
205.27
 20
90.3139
 11
204.941
 21
90.7207
  0
LINE
  8
0
 10
204.941
 20
90.7207
 11
204.571
 21
91.0907
  0
LINE
  8
0
 10
204.571
 20
91.0907
 11
204.164
 21
91.4201
  0
LINE
  8
0
 10
204.164
 20
91.4201
 11
203.725
 21
91.7051
  0
LINE
  8
0
 10
203.725
 20
91.7051
 11
203.259
 21
91.9427
  0
LINE
  8
0
 10
203.259
 20
91.9427
 11
202.77
 21
92.1303
  0
LINE
  8
0
 10
202.77
 20
92.1303
 11
202.265
 21
92.2657
  0
LINE
  8
0
 10
202.265
 20
92.2657
 11
201.748
 21
92.3476
  0
LINE
  8
0
 10
201.748
 20
92.3476
 11
201.225
 21
92.375
  0
LINE
  8
0
 10
201.225
 20
92.375
 11
-201.225
 21
92.375
  0
LINE
  8
0
 10
-201.225
 20
92.375
 11
-201.748
 21
92.3476
  0
LINE
  8
0
 10
-201.748
 20
92.3476
 11
-202.265
 21
92.2657
  0
LINE
  8
0
 10
-202.265
 20
92.2657
 11
-202.77
 21
92.1303
  0
LINE
  8
0
 10
-202.77
 20
92.1303
 11
-203.259
 21
91.9427
  0
LINE
  8
0
 10
-203.259
 20
91.9427
 11
-203.725
 21
91.7051
  0
LINE
  8
0
 10
-203.725
 20
91.7051
 11
-204.164
 21
91.4201
  0
LINE
  8
0
 10
-204.164
 20
91.4201
 11
-204.571
 21
91.0907
  0
LINE
  8
0
 10
-204.571
 20
91.0907
 11
-204.941
 21
90.7207
  0
LINE
  8
0
 10
-204.941
 20
90.7207
 11
-205.27
 21
90.3139
  0
LINE
  8
0
 10
-205.27
 20
90.3139
 11
-205.555
 21
89.875
  0
LINE
  8
0
 10
-205.555
 20
89.875
 11
-205.793
 21
89.4087
  0
LINE
  8
0
 10
-205.793
 20
89.4087
 11
-205.98
 21
88.9201
  0
LINE
  8
0
 10
-205.98
 20
88.9201
 11
-206.116
 21
88.4146
  0
LINE
  8
0
 10
-206.116
 20
88.4146
 11
-206.198
 21
87.8976
  0
LINE
  8
0
 10
-206.198
 20
87.8976
 11
-206.225
 21
87.375
  0
LINE
  8
0
 10
-206.225
 20
87.375
 11
-206.225
 21
-87.375
  0
LINE
  8
0
 10
-206.225
 20
-87.375
 11
-206.198
 21
-87.8976
  0
LINE
  8
0
 10
-206.198
 20
-87.8976
 11
-206.116
 21
-88.4146
  0
LINE
  8
0
 10
-206.116
 20
-88.4146
 11
-205.98
 21
-88.9201
  0
LINE
  8
0
 10
-205.98
 20
-88.9201
 11
-205.793
 21
-89.4087
  0
LINE
  8
0
 10
-205.793
 20
-89.4087
 11
-205.555
 21
-89.875
  0
LINE
  8
0
 10
-205.555
 20
-89.875
 11
-205.27
 21
-90.3139
  0
LINE
  8
0
 10
-205.27
 20
-90.3139
 11
-204.941
 21
-90.7207
  0
LINE
  8
0
 10
-204.941
 20
-90.7207
 11
-204.571
 21
-91.0907
  0
LINE
  8
0
 10
-204.571
 20
-91.0907
 11
-204.164
 21
-91.4201
  0
LINE
  8
0
 10
-204.164
 20
-91.4201
 11
-203.725
 21
-91.7051
  0
LINE
  8
0
 10
-203.725
 20
-91.7051
 11
-203.259
 21
-91.9427
  0
LINE
  8
0
 10
-203.259
 20
-91.9427
 11
-202.77
 21
-92.1303
  0
LINE
  8
0
 10
-202.77
 20
-92.1303
 11
-202.265
 21
-92.2657
  0
LINE
  8
0
 10
-202.265
 20
-92.2657
 11
-201.748
 21
-92.3476
  0
LINE
  8
0
 10
-201.748
 20
-92.3476
 11
-201.225
 21
-92.375
  0
LINE
  8
0
 10
-201.225
 20
-92.375
 11
201.225
 21
-92.375
  0
LINE
  8
0
 10
201.225
 20
-92.375
 11
201.748
 21
-92.3476
  0
LINE
  8
0
 10
-199.242
 20
81.2705
 11
-199.63
 21
81.3319
  0
LINE
  8
0
 10
-199.63
 20
81.3319
 11
-200.009
 21
81.4335
  0
LINE
  8
0
 10
-200.009
 20
81.4335
 11
-200.375
 21
81.5742
  0
LINE
  8
0
 10
-200.375
 20
81.5742
 11
-200.725
 21
81.7524
  0
LINE
  8
0
 10
-200.725
 20
81.7524
 11
-201.054
 21
81.9662
  0
LINE
  8
0
 10
-201.054
 20
81.9662
 11
-201.359
 21
82.2132
  0
LINE
  8
0
 10
-201.359
 20
82.2132
 11
-201.637
 21
82.4908
  0
LINE
  8
0
 10
-201.637
 20
82.4908
 11
-201.884
 21
82.7958
  0
LINE
  8
0
 10
-201.884
 20
82.7958
 11
-202.098
 21
83.125
  0
LINE
  8
0
 10
-202.098
 20
83.125
 11
-202.276
 21
83.4747
  0
LINE
  8
0
 10
-202.276
 20
83.4747
 11
-202.416
 21
83.8412
  0
LINE
  8
0
 10
-202.416
 20
83.8412
 11
-202.518
 21
84.2203
  0
LINE
  8
0
 10
-202.518
 20
84.2203
 11
-202.579
 21
84.608
  0
LINE
  8
0
 10
-202.579
 20
84.608
 11
-202.6
 21
85
  0
LINE
  8
0
 10
-202.6
 20
85
 11
-202.579
 21
85.392
  0
LINE
  8
0
 10
-202.579
 20
85.392
 11
-202.518
 21
85.7797
  0
LINE
  8
0
 10
-202.518
 20
85.7797
 11
-202.416
 21
86.1588
  0
LINE
  8
0
 10
-202.416
 20
86.1588
 11
-202.276
 21
86.5253
  0
LINE
  8
0
 10
-202.276
 20
86.5253
 11
-202.098
 21
86.875
  0
LINE
  8
0
 10
-202.098
 20
86.875
 11
-201.884
 21
87.2042
  0
LINE
  8
0
 10
-201.884
 20
87.2042
 11
-201.637
 21
87.5092
  0
LINE
  8
0
 10
-201.637
 20
87.5092
 11
-201.359
 21
87.7868
  0
LINE
  8
0
 10
-201.359
 20
87.7868
 11
-201.054
 21
88.0338
  0
LINE
  8
0
 10
-201.054
 20
88.0338
 11
-200.725
 21
88.2476
  0
LINE
  8
0
 10
-200.725
 20
88.2476
 11
-200.375
 21
88.4258
  0
LINE
  8
0
 10
-200.375
 20
88.4258
 11
-200.009
 21
88.5665
  0
LINE
  8
0
 10
-200.009
 20
88.5665
 11
-199.63
 21
88.668
  0
LINE
  8
0
 10
-199.63
 20
88.668
 11
-199.242
 21
88.7294
  0
LINE
  8
0
 10
-199.242
 20
88.7294
 11
-198.85
 21
88.75
  0
LINE
  8
0
 10
-198.85
 20
88.75
 11
-198.458
 21
88.7294
  0
LINE
  8
0
 10
-198.458
 20
88.7294
 11
-198.07
 21
88.668
  0
LINE
  8
0
 10
-198.07
 20
88.668
 11
-197.691
 21
88.5665
  0
LINE
  8
0
 10
-197.691
 20
88.5665
 11
-197.325
 21
88.4258
  0
LINE
  8
0
 10
-197.325
 20
88.4258
 11
-196.975
 21
88.2476
  0
LINE
  8
0
 10
-196.975
 20
88.2476
 11
-196.646
 21
88.0338
  0
LINE
  8
0
 10
-196.646
 20
88.0338
 11
-196.341
 21
87.7868
  0
LINE
  8
0
 10
-196.341
 20
87.7868
 11
-196.063
 21
87.5092
  0
LINE
  8
0
 10
-196.063
 20
87.5092
 11
-195.816
 21
87.2042
  0
LINE
  8
0
 10
-195.816
 20
87.2042
 11
-195.602
 21
86.875
  0
LINE
  8
0
 10
-195.602
 20
86.875
 11
-195.424
 21
86.5253
  0
LINE
  8
0
 10
-195.424
 20
86.5253
 11
-195.284
 21
86.1588
  0
LINE
  8
0
 10
-195.284
 20
86.1588
 11
-195.182
 21
85.7797
  0
LINE
  8
0
 10
-195.182
 20
85.7797
 11
-195.121
 21
85.392
  0
LINE
  8
0
 10
-195.121
 20
85.392
 11
-195.1
 21
85
  0
LINE
  8
0
 10
-195.1
 20
85
 11
-195.121
 21
84.608
  0
LINE
  8
0
 10
-195.121
 20
84.608
 11
-195.182
 21
84.2203
  0
LINE
  8
0
 10
-195.182
 20
84.2203
 11
-195.284
 21
83.8412
  0
LINE
  8
0
 10
-195.284
 20
83.8412
 11
-195.424
 21
83.4747
  0
LINE
  8
0
 10
-195.424
 20
83.4747
 11
-195.602
 21
83.125
  0
LINE
  8
0
 10
-195.602
 20
83.125
 11
-195.816
 21
82.7958
  0
LINE
  8
0
 10
-195.816
 20
82.7958
 11
-196.063
 21
82.4908
  0
LINE
  8
0
 10
-196.063
 20
82.4908
 11
-196.341
 21
82.2132
  0
LINE
  8
0
 10
-196.341
 20
82.2132
 11
-196.646
 21
81.9662
  0
LINE
  8
0
 10
-196.646
 20
81.9662
 11
-196.975
 21
81.7524
  0
LINE
  8
0
 10
-196.975
 20
81.7524
 11
-197.325
 21
81.5742
  0
LINE
  8
0
 10
-197.325
 20
81.5742
 11
-197.691
 21
81.4335
  0
LINE
  8
0
 10
-197.691
 20
81.4335
 11
-198.07
 21
81.3319
  0
LINE
  8
0
 10
-198.07
 20
81.3319
 11
-198.458
 21
81.2705
  0
LINE
  8
0
 10
-198.458
 20
81.2705
 11
-198.85
 21
81.25
  0
LINE
  8
0
 10
-198.85
 20
81.25
 11
-199.242
 21
81.2705
  0
LINE
  8
0
 10
198.458
 20
81.2705
 11
198.07
 21
81.3319
  0
LINE
  8
0
 10
198.07
 20
81.3319
 11
197.691
 21
81.4335
  0
LINE
  8
0
 10
197.691
 20
81.4335
 11
197.325
 21
81.5742
  0
LINE
  8
0
 10
197.325
 20
81.5742
 11
196.975
 21
81.7524
  0
LINE
  8
0
 10
196.975
 20
81.7524
 11
196.646
 21
81.9662
  0
LINE
  8
0
 10
196.646
 20
81.9662
 11
196.341
 21
82.2132
  0
LINE
  8
0
 10
196.341
 20
82.2132
 11
196.063
 21
82.4908
  0
LINE
  8
0
 10
196.063
 20
82.4908
 11
195.816
 21
82.7958
  0
LINE
  8
0
 10
195.816
 20
82.7958
 11
195.602
 21
83.125
  0
LINE
  8
0
 10
195.602
 20
83.125
 11
195.424
 21
83.4747
  0
LINE
  8
0
 10
195.424
 20
83.4747
 11
195.284
 21
83.8412
  0
LINE
  8
0
 10
195.284
 20
83.8412
 11
195.182
 21
84.2203
  0
LINE
  8
0
 10
195.182
 20
84.2203
 11
195.121
 21
84.608
  0
LINE
  8
0
 10
195.121
 20
84.608
 11
195.1
 21
85
  0
LINE
  8
0
 10
195.1
 20
85
 11
195.121
 21
85.392
  0
LINE
  8
0
 10
195.121
 20
85.392
 11
195.182
 21
85.7797
  0
LINE
  8
0
 10
195.182
 20
85.7797
 11
195.284
 21
86.1588
  0
LINE
  8
0
 10
195.284
 20
86.1588
 11
195.424
 21
86.5253
  0
LINE
  8
0
 10
195.424
 20
86.5253
 11
195.602
 21
86.875
  0
LINE
  8
0
 10
195.602
 20
86.875
 11
195.816
 21
87.2042
  0
LINE
  8
0
 10
195.816
 20
87.2042
 11
196.063
 21
87.5092
  0
LINE
  8
0
 10
196.063
 20
87.5092
 11
196.341
 21
87.7868
  0
LINE
  8
0
 10
196.341
 20
87.7868
 11
196.646
 21
88.0338
  0
LINE
  8
0
 10
196.646
 20
88.0338
 11
196.975
 21
88.2476
  0
LINE
  8
0
 10
196.975
 20
88.2476
 11
197.325
 21
88.4258
  0
LINE
  8
0
 10
197.325
 20
88.4258
 11
197.691
 21
88.5665
  0
LINE
  8
0
 10
197.691
 20
88.5665
 11
198.07
 21
88.668
  0
LINE
  8
0
 10
198.07
 20
88.668
 11
198.458
 21
88.7294
  0
LINE
  8
0
 10
198.458
 20
88.7294
 11
198.85
 21
88.75
  0
LINE
  8
0
 10
198.85
 20
88.75
 11
199.242
 21
88.7294
  0
LINE
  8
0
 10
199.242
 20
88.7294
 11
199.63
 21
88.668
  0
LINE
  8
0
 10
199.63
 20
88.668
 11
200.009
 21
88.5665
  0
LINE
  8
0
 10
200.009
 20
88.5665
 11
200.375
 21
88.4258
  0
LINE
  8
0
 10
200.375
 20
88.4258
 11
200.725
 21
88.2476
  0
LINE
  8
0
 10
200.725
 20
88.2476
 11
201.054
 21
88.0338
  0
LINE
  8
0
 10
201.054
 20
88.0338
 11
201.359
 21
87.7868
  0
LINE
  8
0
 10
201.359
 20
87.7868
 11
201.637
 21
87.5092
  0
LINE
  8
0
 10
201.637
 20
87.5092
 11
201.884
 21
87.2042
  0
LINE
  8
0
 10
201.884
 20
87.2042
 11
202.098
 21
86.875
  0
LINE
  8
0
 10
202.098
 20
86.875
 11
202.276
 21
86.5253
  0
LINE
  8
0
 10
202.276
 20
86.5253
 11
202.416
 21
86.1588
  0
LINE
  8
0
 10
202.416
 20
86.1588
 11
202.518
 21
85.7797
  0
LINE
  8
0
 10
202.518
 20
85.7797
 11
202.579
 21
85.392
  0
LINE
  8
0
 10
202.579
 20
85.392
 11
202.6
 21
85
  0
LINE
  8
0
 10
202.6
 20
85
 11
202.579
 21
84.608
  0
LINE
  8
0
 10
202.579
 20
84.608
 11
202.518
 21
84.2203
  0
LINE
  8
0
 10
202.518
 20
84.2203
 11
202.416
 21
83.8412
  0
LINE
  8
0
 10
202.416
 20
83.8412
 11
202.276
 21
83.4747
  0
LINE
  8
0
 10
202.276
 20
83.4747
 11
202.098
 21
83.125
  0
LINE
  8
0
 10
202.098
 20
83.125
 11
201.884
 21
82.7958
  0
LINE
  8
0
 10
201.884
 20
82.7958
 11
201.637
 21
82.4908
  0
LINE
  8
0
 10
201.637
 20
82.4908
 11
201.359
 21
82.2132
  0
LINE
  8
0
 10
201.359
 20
82.2132
 11
201.054
 21
81.9662
  0
LINE
  8
0
 10
201.054
 20
81.9662
 11
200.725
 21
81.7524
  0
LINE
  8
0
 10
200.725
 20
81.7524
 11
200.375
 21
81.5742
  0
LINE
  8
0
 10
200.375
 20
81.5742
 11
200.009
 21
81.4335
  0
LINE
  8
0
 10
200.009
 20
81.4335
 11
199.63
 21
81.3319
  0
LINE
  8
0
 10
199.63
 20
81.3319
 11
199.242
 21
81.2705
  0
LINE
  8
0
 10
199.242
 20
81.2705
 11
198.85
 21
81.25
  0
LINE
  8
0
 10
198.85
 20
81.25
 11
198.458
 21
81.2705
  0
LINE
  8
0
 10
156.041
 20
83.3283
 11
155.801
 21
83.3911
  0
LINE
  8
0
 10
155.801
 20
83.3911
 11
155.573
 21
83.4881
  0
LINE
  8
0
 10
155.573
 20
83.4881
 11
155.361
 21
83.6174
  0
LINE
  8
0
 10
155.361
 20
83.6174
 11
155.17
 21
83.7762
  0
LINE
  8
0
 10
155.17
 20
83.7762
 11
155.004
 21
83.961
  0
LINE
  8
0
 10
155.004
 20
83.961
 11
154.868
 21
84.168
  0
LINE
  8
0
 10
154.868
 20
84.168
 11
154.762
 21
84.3927
  0
LINE
  8
0
 10
154.762
 20
84.3927
 11
154.691
 21
84.6304
  0
LINE
  8
0
 10
154.691
 20
84.6304
 11
154.655
 21
84.8759
  0
LINE
  8
0
 10
154.655
 20
84.8759
 11
154.655
 21
85.1241
  0
LINE
  8
0
 10
154.655
 20
85.1241
 11
154.691
 21
85.3696
  0
LINE
  8
0
 10
154.691
 20
85.3696
 11
154.762
 21
85.6073
  0
LINE
  8
0
 10
154.762
 20
85.6073
 11
154.868
 21
85.832
  0
LINE
  8
0
 10
154.868
 20
85.832
 11
155.004
 21
86.039
  0
LINE
  8
0
 10
155.004
 20
86.039
 11
155.17
 21
86.2238
  0
LINE
  8
0
 10
155.17
 20
86.2238
 11
155.361
 21
86.3826
  0
LINE
  8
0
 10
155.361
 20
86.3826
 11
155.573
 21
86.5119
  0
LINE
  8
0
 10
155.573
 20
86.5119
 11
155.801
 21
86.6089
  0
LINE
  8
0
 10
155.801
 20
86.6089
 11
156.041
 21
86.6717
  0
LINE
  8
0
 10
156.041
 20
86.6717
 11
156.288
 21
86.6989
  0
LINE
  8
0
 10
156.288
 20
86.6989
 11
156.536
 21
86.6898
  0
LINE
  8
0
 10
156.536
 20
86.6898
 11
156.78
 21
86.6447
  0
LINE
  8
0
 10
156.78
 20
86.6447
 11
157.015
 21
86.5646
  0
LINE
  8
0
 10
157.015
 20
86.5646
 11
157.236
 21
86.4511
  0
LINE
  8
0
 10
157.236
 20
86.4511
 11
157.437
 21
86.3067
  0
LINE
  8
0
 10
157.437
 20
86.3067
 11
157.616
 21
86.1344
  0
LINE
  8
0
 10
157.616
 20
86.1344
 11
157.768
 21
85.938
  0
LINE
  8
0
 10
157.768
 20
85.938
 11
157.889
 21
85.7216
  0
LINE
  8
0
 10
157.889
 20
85.7216
 11
157.978
 21
85.4898
  0
LINE
  8
0
 10
157.978
 20
85.4898
 11
158.032
 21
85.2475
  0
LINE
  8
0
 10
158.032
 20
85.2475
 11
158.05
 21
85
  0
LINE
  8
0
 10
158.05
 20
85
 11
158.032
 21
84.7525
  0
LINE
  8
0
 10
158.032
 20
84.7525
 11
157.978
 21
84.5102
  0
LINE
  8
0
 10
157.978
 20
84.5102
 11
157.889
 21
84.2784
  0
LINE
  8
0
 10
157.889
 20
84.2784
 11
157.768
 21
84.062
  0
LINE
  8
0
 10
157.768
 20
84.062
 11
157.616
 21
83.8656
  0
LINE
  8
0
 10
157.616
 20
83.8656
 11
157.437
 21
83.6933
  0
LINE
  8
0
 10
157.437
 20
83.6933
 11
157.236
 21
83.5489
  0
LINE
  8
0
 10
157.236
 20
83.5489
 11
157.015
 21
83.4354
  0
LINE
  8
0
 10
157.015
 20
83.4354
 11
156.78
 21
83.3553
  0
LINE
  8
0
 10
156.78
 20
83.3553
 11
156.536
 21
83.3102
  0
LINE
  8
0
 10
156.536
 20
83.3102
 11
156.288
 21
83.3011
  0
LINE
  8
0
 10
156.288
 20
83.3011
 11
156.041
 21
83.3283
  0
LINE
  8
0
 10
-156.659
 20
83.3283
 11
-156.899
 21
83.3911
  0
LINE
  8
0
 10
-156.899
 20
83.3911
 11
-157.127
 21
83.4881
  0
LINE
  8
0
 10
-157.127
 20
83.4881
 11
-157.339
 21
83.6174
  0
LINE
  8
0
 10
-157.339
 20
83.6174
 11
-157.53
 21
83.7762
  0
LINE
  8
0
 10
-157.53
 20
83.7762
 11
-157.696
 21
83.961
  0
LINE
  8
0
 10
-157.696
 20
83.961
 11
-157.832
 21
84.168
  0
LINE
  8
0
 10
-157.832
 20
84.168
 11
-157.938
 21
84.3927
  0
LINE
  8
0
 10
-157.938
 20
84.3927
 11
-158.009
 21
84.6304
  0
LINE
  8
0
 10
-158.009
 20
84.6304
 11
-158.045
 21
84.8759
  0
LINE
  8
0
 10
-158.045
 20
84.8759
 11
-158.045
 21
85.1241
  0
LINE
  8
0
 10
-158.045
 20
85.1241
 11
-158.009
 21
85.3696
  0
LINE
  8
0
 10
-158.009
 20
85.3696
 11
-157.938
 21
85.6073
  0
LINE
  8
0
 10
-157.938
 20
85.6073
 11
-157.832
 21
85.832
  0
LINE
  8
0
 10
-157.832
 20
85.832
 11
-157.696
 21
86.039
  0
LINE
  8
0
 10
-157.696
 20
86.039
 11
-157.53
 21
86.2238
  0
LINE
  8
0
 10
-157.53
 20
86.2238
 11
-157.339
 21
86.3826
  0
LINE
  8
0
 10
-157.339
 20
86.3826
 11
-157.127
 21
86.5119
  0
LINE
  8
0
 10
-157.127
 20
86.5119
 11
-156.899
 21
86.6089
  0
LINE
  8
0
 10
-156.899
 20
86.6089
 11
-156.659
 21
86.6717
  0
LINE
  8
0
 10
-156.659
 20
86.6717
 11
-156.412
 21
86.6989
  0
LINE
  8
0
 10
-156.412
 20
86.6989
 11
-156.164
 21
86.6898
  0
LINE
  8
0
 10
-156.164
 20
86.6898
 11
-155.92
 21
86.6447
  0
LINE
  8
0
 10
-155.92
 20
86.6447
 11
-155.685
 21
86.5646
  0
LINE
  8
0
 10
-155.685
 20
86.5646
 11
-155.464
 21
86.4511
  0
LINE
  8
0
 10
-155.464
 20
86.4511
 11
-155.263
 21
86.3067
  0
LINE
  8
0
 10
-155.263
 20
86.3067
 11
-155.084
 21
86.1344
  0
LINE
  8
0
 10
-155.084
 20
86.1344
 11
-154.932
 21
85.938
  0
LINE
  8
0
 10
-154.932
 20
85.938
 11
-154.811
 21
85.7216
  0
LINE
  8
0
 10
-154.811
 20
85.7216
 11
-154.722
 21
85.4898
  0
LINE
  8
0
 10
-154.722
 20
85.4898
 11
-154.668
 21
85.2475
  0
LINE
  8
0
 10
-154.668
 20
85.2475
 11
-154.65
 21
85
  0
LINE
  8
0
 10
-154.65
 20
85
 11
-154.668
 21
84.7525
  0
LINE
  8
0
 10
-154.668
 20
84.7525
 11
-154.722
 21
84.5102
  0
LINE
  8
0
 10
-154.722
 20
84.5102
 11
-154.811
 21
84.2784
  0
LINE
  8
0
 10
-154.811
 20
84.2784
 11
-154.932
 21
84.062
  0
LINE
  8
0
 10
-154.932
 20
84.062
 11
-155.084
 21
83.8656
  0
LINE
  8
0
 10
-155.084
 20
83.8656
 11
-155.263
 21
83.6933
  0
LINE
  8
0
 10
-155.263
 20
83.6933
 11
-155.464
 21
83.5489
  0
LINE
  8
0
 10
-155.464
 20
83.5489
 11
-155.685
 21
83.4354
  0
LINE
  8
0
 10
-155.685
 20
83.4354
 11
-155.92
 21
83.3553
  0
LINE
  8
0
 10
-155.92
 20
83.3553
 11
-156.164
 21
83.3102
  0
LINE
  8
0
 10
-156.164
 20
83.3102
 11
-156.412
 21
83.3011
  0
LINE
  8
0
 10
-156.412
 20
83.3011
 11
-156.659
 21
83.3283
  0
LINE
  8
0
 10
-78.4838
 20
83.3283
 11
-78.7239
 21
83.3911
  0
LINE
  8
0
 10
-78.7239
 20
83.3911
 11
-78.9523
 21
83.4881
  0
LINE
  8
0
 10
-78.9523
 20
83.4881
 11
-79.1642
 21
83.6174
  0
LINE
  8
0
 10
-79.1642
 20
83.6174
 11
-79.3549
 21
83.7762
  0
LINE
  8
0
 10
-79.3549
 20
83.7762
 11
-79.5205
 21
83.961
  0
LINE
  8
0
 10
-79.5205
 20
83.961
 11
-79.6575
 21
84.168
  0
LINE
  8
0
 10
-79.6575
 20
84.168
 11
-79.7628
 21
84.3927
  0
LINE
  8
0
 10
-79.7628
 20
84.3927
 11
-79.8343
 21
84.6304
  0
LINE
  8
0
 10
-79.8343
 20
84.6304
 11
-79.8705
 21
84.8759
  0
LINE
  8
0
 10
-79.8705
 20
84.8759
 11
-79.8705
 21
85.1241
  0
LINE
  8
0
 10
-79.8705
 20
85.1241
 11
-79.8343
 21
85.3696
  0
LINE
  8
0
 10
-79.8343
 20
85.3696
 11
-79.7628
 21
85.6073
  0
LINE
  8
0
 10
-79.7628
 20
85.6073
 11
-79.6575
 21
85.832
  0
LINE
  8
0
 10
-79.6575
 20
85.832
 11
-79.5205
 21
86.039
  0
LINE
  8
0
 10
-79.5205
 20
86.039
 11
-79.3549
 21
86.2238
  0
LINE
  8
0
 10
-79.3549
 20
86.2238
 11
-79.1642
 21
86.3826
  0
LINE
  8
0
 10
-79.1642
 20
86.3826
 11
-78.9523
 21
86.5119
  0
LINE
  8
0
 10
-78.9523
 20
86.5119
 11
-78.7239
 21
86.6089
  0
LINE
  8
0
 10
-78.7239
 20
86.6089
 11
-78.4838
 21
86.6717
  0
LINE
  8
0
 10
-78.4838
 20
86.6717
 11
-78.2371
 21
86.6989
  0
LINE
  8
0
 10
-78.2371
 20
86.6989
 11
-77.9891
 21
86.6898
  0
LINE
  8
0
 10
-77.9891
 20
86.6898
 11
-77.745
 21
86.6447
  0
LINE
  8
0
 10
-77.745
 20
86.6447
 11
-77.5101
 21
86.5646
  0
LINE
  8
0
 10
-77.5101
 20
86.5646
 11
-77.2894
 21
86.4511
  0
LINE
  8
0
 10
-77.2894
 20
86.4511
 11
-77.0876
 21
86.3067
  0
LINE
  8
0
 10
-77.0876
 20
86.3067
 11
-76.9089
 21
86.1344
  0
LINE
  8
0
 10
-76.9089
 20
86.1344
 11
-76.7572
 21
85.938
  0
LINE
  8
0
 10
-76.7572
 20
85.938
 11
-76.6357
 21
85.7216
  0
LINE
  8
0
 10
-76.6357
 20
85.7216
 11
-76.5471
 21
85.4898
  0
LINE
  8
0
 10
-76.5471
 20
85.4898
 11
-76.4931
 21
85.2475
  0
LINE
  8
0
 10
-76.4931
 20
85.2475
 11
-76.475
 21
85
  0
LINE
  8
0
 10
-76.475
 20
85
 11
-76.4931
 21
84.7525
  0
LINE
  8
0
 10
-76.4931
 20
84.7525
 11
-76.5471
 21
84.5102
  0
LINE
  8
0
 10
-76.5471
 20
84.5102
 11
-76.6357
 21
84.2784
  0
LINE
  8
0
 10
-76.6357
 20
84.2784
 11
-76.7572
 21
84.062
  0
LINE
  8
0
 10
-76.7572
 20
84.062
 11
-76.9089
 21
83.8656
  0
LINE
  8
0
 10
-76.9089
 20
83.8656
 11
-77.0876
 21
83.6933
  0
LINE
  8
0
 10
-77.0876
 20
83.6933
 11
-77.2894
 21
83.5489
  0
LINE
  8
0
 10
-77.2894
 20
83.5489
 11
-77.5101
 21
83.4354
  0
LINE
  8
0
 10
-77.5101
 20
83.4354
 11
-77.745
 21
83.3553
  0
LINE
  8
0
 10
-77.745
 20
83.3553
 11
-77.9891
 21
83.3102
  0
LINE
  8
0
 10
-77.9891
 20
83.3102
 11
-78.2371
 21
83.3011
  0
LINE
  8
0
 10
-78.2371
 20
83.3011
 11
-78.4838
 21
83.3283
  0
LINE
  8
0
 10
77.8662
 20
83.3283
 11
77.6261
 21
83.3911
  0
LINE
  8
0
 10
77.6261
 20
83.3911
 11
77.3977
 21
83.4881
  0
LINE
  8
0
 10
77.3977
 20
83.4881
 11
77.1858
 21
83.6174
  0
LINE
  8
0
 10
77.1858
 20
83.6174
 11
76.9951
 21
83.7762
  0
LINE
  8
0
 10
76.9951
 20
83.7762
 11
76.8295
 21
83.961
  0
LINE
  8
0
 10
76.8295
 20
83.961
 11
76.6925
 21
84.168
  0
LINE
  8
0
 10
76.6925
 20
84.168
 11
76.5872
 21
84.3927
  0
LINE
  8
0
 10
76.5872
 20
84.3927
 11
76.5157
 21
84.6304
  0
LINE
  8
0
 10
76.5157
 20
84.6304
 11
76.4795
 21
84.8759
  0
LINE
  8
0
 10
76.4795
 20
84.8759
 11
76.4795
 21
85.1241
  0
LINE
  8
0
 10
76.4795
 20
85.1241
 11
76.5157
 21
85.3696
  0
LINE
  8
0
 10
76.5157
 20
85.3696
 11
76.5872
 21
85.6073
  0
LINE
  8
0
 10
76.5872
 20
85.6073
 11
76.6925
 21
85.832
  0
LINE
  8
0
 10
76.6925
 20
85.832
 11
76.8295
 21
86.039
  0
LINE
  8
0
 10
76.8295
 20
86.039
 11
76.9951
 21
86.2238
  0
LINE
  8
0
 10
76.9951
 20
86.2238
 11
77.1858
 21
86.3826
  0
LINE
  8
0
 10
77.1858
 20
86.3826
 11
77.3977
 21
86.5119
  0
LINE
  8
0
 10
77.3977
 20
86.5119
 11
77.6261
 21
86.6089
  0
LINE
  8
0
 10
77.6261
 20
86.6089
 11
77.8662
 21
86.6717
  0
LINE
  8
0
 10
77.8662
 20
86.6717
 11
78.1129
 21
86.6989
  0
LINE
  8
0
 10
78.1129
 20
86.6989
 11
78.3609
 21
86.6898
  0
LINE
  8
0
 10
78.3609
 20
86.6898
 11
78.605
 21
86.6447
  0
LINE
  8
0
 10
78.605
 20
86.6447
 11
78.8399
 21
86.5646
  0
LINE
  8
0
 10
78.8399
 20
86.5646
 11
79.0606
 21
86.4511
  0
LINE
  8
0
 10
79.0606
 20
86.4511
 11
79.2624
 21
86.3067
  0
LINE
  8
0
 10
79.2624
 20
86.3067
 11
79.4411
 21
86.1344
  0
LINE
  8
0
 10
79.4411
 20
86.1344
 11
79.5928
 21
85.938
  0
LINE
  8
0
 10
79.5928
 20
85.938
 11
79.7143
 21
85.7216
  0
LINE
  8
0
 10
79.7143
 20
85.7216
 11
79.8029
 21
85.4898
  0
LINE
  8
0
 10
79.8029
 20
85.4898
 11
79.8569
 21
85.2475
  0
LINE
  8
0
 10
79.8569
 20
85.2475
 11
79.875
 21
85
  0
LINE
  8
0
 10
79.875
 20
85
 11
79.8569
 21
84.7525
  0
LINE
  8
0
 10
79.8569
 20
84.7525
 11
79.8029
 21
84.5102
  0
LINE
  8
0
 10
79.8029
 20
84.5102
 11
79.7143
 21
84.2784
  0
LINE
  8
0
 10
79.7143
 20
84.2784
 11
79.5928
 21
84.062
  0
LINE
  8
0
 10
79.5928
 20
84.062
 11
79.4411
 21
83.8656
  0
LINE
  8
0
 10
79.4411
 20
83.8656
 11
79.2624
 21
83.6933
  0
LINE
  8
0
 10
79.2624
 20
83.6933
 11
79.0606
 21
83.5489
  0
LINE
  8
0
 10
79.0606
 20
83.5489
 11
78.8399
 21
83.4354
  0
LINE
  8
0
 10
78.8399
 20
83.4354
 11
78.605
 21
83.3553
  0
LINE
  8
0
 10
78.605
 20
83.3553
 11
78.3609
 21
83.3102
  0
LINE
  8
0
 10
78.3609
 20
83.3102
 11
78.1129
 21
83.3011
  0
LINE
  8
0
 10
78.1129
 20
83.3011
 11
77.8662
 21
83.3283
  0
LINE
  8
0
 10
-0.308777
 20
83.3283
 11
-0.548889
 21
83.3911
  0
LINE
  8
0
 10
-0.548889
 20
83.3911
 11
-0.777298
 21
83.4881
  0
LINE
  8
0
 10
-0.777298
 20
83.4881
 11
-0.989151
 21
83.6174
  0
LINE
  8
0
 10
-0.989151
 20
83.6174
 11
-1.17992
 21
83.7762
  0
LINE
  8
0
 10
-1.17992
 20
83.7762
 11
-1.34554
 21
83.961
  0
LINE
  8
0
 10
-1.34554
 20
83.961
 11
-1.48248
 21
84.168
  0
LINE
  8
0
 10
-1.48248
 20
84.168
 11
-1.58781
 21
84.3927
  0
LINE
  8
0
 10
-1.58781
 20
84.3927
 11
-1.65932
 21
84.6304
  0
LINE
  8
0
 10
-1.65932
 20
84.6304
 11
-1.69545
 21
84.8759
  0
LINE
  8
0
 10
-1.69545
 20
84.8759
 11
-1.69545
 21
85.1241
  0
LINE
  8
0
 10
-1.69545
 20
85.1241
 11
-1.65932
 21
85.3696
  0
LINE
  8
0
 10
-1.65932
 20
85.3696
 11
-1.58781
 21
85.6073
  0
LINE
  8
0
 10
-1.58781
 20
85.6073
 11
-1.48248
 21
85.832
  0
LINE
  8
0
 10
-1.48248
 20
85.832
 11
-1.34554
 21
86.039
  0
LINE
  8
0
 10
-1.34554
 20
86.039
 11
-1.17992
 21
86.2238
  0
LINE
  8
0
 10
-1.17992
 20
86.2238
 11
-0.989151
 21
86.3826
  0
LINE
  8
0
 10
-0.989151
 20
86.3826
 11
-0.777298
 21
86.5119
  0
LINE
  8
0
 10
-0.777298
 20
86.5119
 11
-0.548889
 21
86.6089
  0
LINE
  8
0
 10
-0.548889
 20
86.6089
 11
-0.308777
 21
86.6717
  0
LINE
  8
0
 10
-0.308777
 20
86.6717
 11
-0.0620728
 21
86.6989
  0
LINE
  8
0
 10
-0.0620728
 20
86.6989
 11
0.185928
 21
86.6898
  0
LINE
  8
0
 10
0.185928
 20
86.6898
 11
0.429977
 21
86.6447
  0
LINE
  8
0
 10
0.429977
 20
86.6447
 11
0.664871
 21
86.5646
  0
LINE
  8
0
 10
0.664871
 20
86.5646
 11
0.88559
 21
86.4511
  0
LINE
  8
0
 10
0.88559
 20
86.4511
 11
1.08743
 21
86.3067
  0
LINE
  8
0
 10
1.08743
 20
86.3067
 11
1.2661
 21
86.1344
  0
LINE
  8
0
 10
1.2661
 20
86.1344
 11
1.41779
 21
85.938
  0
LINE
  8
0
 10
1.41779
 20
85.938
 11
1.53926
 21
85.7216
  0
LINE
  8
0
 10
1.53926
 20
85.7216
 11
1.62791
 21
85.4898
  0
LINE
  8
0
 10
1.62791
 20
85.4898
 11
1.68187
 21
85.2475
  0
LINE
  8
0
 10
1.68187
 20
85.2475
 11
1.7
 21
85
  0
LINE
  8
0
 10
1.7
 20
85
 11
1.68187
 21
84.7525
  0
LINE
  8
0
 10
1.68187
 20
84.7525
 11
1.62791
 21
84.5102
  0
LINE
  8
0
 10
1.62791
 20
84.5102
 11
1.53926
 21
84.2784
  0
LINE
  8
0
 10
1.53926
 20
84.2784
 11
1.41779
 21
84.062
  0
LINE
  8
0
 10
1.41779
 20
84.062
 11
1.2661
 21
83.8656
  0
LINE
  8
0
 10
1.2661
 20
83.8656
 11
1.08743
 21
83.6933
  0
LINE
  8
0
 10
1.08743
 20
83.6933
 11
0.88559
 21
83.5489
  0
LINE
  8
0
 10
0.88559
 20
83.5489
 11
0.664871
 21
83.4354
  0
LINE
  8
0
 10
0.664871
 20
83.4354
 11
0.429977
 21
83.3553
  0
LINE
  8
0
 10
0.429977
 20
83.3553
 11
0.185928
 21
83.3102
  0
LINE
  8
0
 10
0.185928
 20
83.3102
 11
-0.0620728
 21
83.3011
  0
LINE
  8
0
 10
-0.0620728
 20
83.3011
 11
-0.308777
 21
83.3283
  0
LINE
  8
0
 10
198.541
 20
40.8283
 11
198.301
 21
40.8911
  0
LINE
  8
0
 10
198.301
 20
40.8911
 11
198.073
 21
40.9881
  0
LINE
  8
0
 10
198.073
 20
40.9881
 11
197.861
 21
41.1174
  0
LINE
  8
0
 10
197.861
 20
41.1174
 11
197.67
 21
41.2762
  0
LINE
  8
0
 10
197.67
 20
41.2762
 11
197.504
 21
41.461
  0
LINE
  8
0
 10
197.504
 20
41.461
 11
197.368
 21
41.668
  0
LINE
  8
0
 10
197.368
 20
41.668
 11
197.262
 21
41.8927
  0
LINE
  8
0
 10
197.262
 20
41.8927
 11
197.191
 21
42.1304
  0
LINE
  8
0
 10
197.191
 20
42.1304
 11
197.155
 21
42.3759
  0
LINE
  8
0
 10
197.155
 20
42.3759
 11
197.155
 21
42.6241
  0
LINE
  8
0
 10
197.155
 20
42.6241
 11
197.191
 21
42.8696
  0
LINE
  8
0
 10
197.191
 20
42.8696
 11
197.262
 21
43.1073
  0
LINE
  8
0
 10
197.262
 20
43.1073
 11
197.368
 21
43.332
  0
LINE
  8
0
 10
197.368
 20
43.332
 11
197.504
 21
43.539
  0
LINE
  8
0
 10
197.504
 20
43.539
 11
197.67
 21
43.7238
  0
LINE
  8
0
 10
197.67
 20
43.7238
 11
197.861
 21
43.8826
  0
LINE
  8
0
 10
197.861
 20
43.8826
 11
198.073
 21
44.0119
  0
LINE
  8
0
 10
198.073
 20
44.0119
 11
198.301
 21
44.1089
  0
LINE
  8
0
 10
198.301
 20
44.1089
 11
198.541
 21
44.1717
  0
LINE
  8
0
 10
198.541
 20
44.1717
 11
198.788
 21
44.1989
  0
LINE
  8
0
 10
198.788
 20
44.1989
 11
199.036
 21
44.1898
  0
LINE
  8
0
 10
199.036
 20
44.1898
 11
199.28
 21
44.1447
  0
LINE
  8
0
 10
199.28
 20
44.1447
 11
199.515
 21
44.0646
  0
LINE
  8
0
 10
199.515
 20
44.0646
 11
199.736
 21
43.9511
  0
LINE
  8
0
 10
199.736
 20
43.9511
 11
199.937
 21
43.8067
  0
LINE
  8
0
 10
199.937
 20
43.8067
 11
200.116
 21
43.6344
  0
LINE
  8
0
 10
200.116
 20
43.6344
 11
200.268
 21
43.438
  0
LINE
  8
0
 10
200.268
 20
43.438
 11
200.389
 21
43.2216
  0
LINE
  8
0
 10
200.389
 20
43.2216
 11
200.478
 21
42.9898
  0
LINE
  8
0
 10
200.478
 20
42.9898
 11
200.532
 21
42.7475
  0
LINE
  8
0
 10
200.532
 20
42.7475
 11
200.55
 21
42.5
  0
LINE
  8
0
 10
200.55
 20
42.5
 11
200.532
 21
42.2525
  0
LINE
  8
0
 10
200.532
 20
42.2525
 11
200.478
 21
42.0102
  0
LINE
  8
0
 10
200.478
 20
42.0102
 11
200.389
 21
41.7784
  0
LINE
  8
0
 10
200.389
 20
41.7784
 11
200.268
 21
41.562
  0
LINE
  8
0
 10
200.268
 20
41.562
 11
200.116
 21
41.3656
  0
LINE
  8
0
 10
200.116
 20
41.3656
 11
199.937
 21
41.1933
  0
LINE
  8
0
 10
199.937
 20
41.1933
 11
199.736
 21
41.0489
  0
LINE
  8
0
 10
199.736
 20
41.0489
 11
199.515
 21
40.9354
  0
LINE
  8
0
 10
199.515
 20
40.9354
 11
199.28
 21
40.8553
  0
LINE
  8
0
 10
199.28
 20
40.8553
 11
199.036
 21
40.8102
  0
LINE
  8
0
 10
199.036
 20
40.8102
 11
198.788
 21
40.8011
  0
LINE
  8
0
 10
198.788
 20
40.8011
 11
198.541
 21
40.8283
  0
LINE
  8
0
 10
-199.036
 20
40.8102
 11
-199.28
 21
40.8553
  0
LINE
  8
0
 10
-199.28
 20
40.8553
 11
-199.515
 21
40.9354
  0
LINE
  8
0
 10
-199.515
 20
40.9354
 11
-199.736
 21
41.0489
  0
LINE
  8
0
 10
-199.736
 20
41.0489
 11
-199.937
 21
41.1933
  0
LINE
  8
0
 10
-199.937
 20
41.1933
 11
-200.116
 21
41.3656
  0
LINE
  8
0
 10
-200.116
 20
41.3656
 11
-200.268
 21
41.562
  0
LINE
  8
0
 10
-200.268
 20
41.562
 11
-200.389
 21
41.7784
  0
LINE
  8
0
 10
-200.389
 20
41.7784
 11
-200.478
 21
42.0102
  0
LINE
  8
0
 10
-200.478
 20
42.0102
 11
-200.532
 21
42.2525
  0
LINE
  8
0
 10
-200.532
 20
42.2525
 11
-200.55
 21
42.5
  0
LINE
  8
0
 10
-200.55
 20
42.5
 11
-200.532
 21
42.7475
  0
LINE
  8
0
 10
-200.532
 20
42.7475
 11
-200.478
 21
42.9898
  0
LINE
  8
0
 10
-200.478
 20
42.9898
 11
-200.389
 21
43.2216
  0
LINE
  8
0
 10
-200.389
 20
43.2216
 11
-200.268
 21
43.438
  0
LINE
  8
0
 10
-200.268
 20
43.438
 11
-200.116
 21
43.6344
  0
LINE
  8
0
 10
-200.116
 20
43.6344
 11
-199.937
 21
43.8067
  0
LINE
  8
0
 10
-199.937
 20
43.8067
 11
-199.736
 21
43.9511
  0
LINE
  8
0
 10
-199.736
 20
43.9511
 11
-199.515
 21
44.0646
  0
LINE
  8
0
 10
-199.515
 20
44.0646
 11
-199.28
 21
44.1447
  0
LINE
  8
0
 10
-199.28
 20
44.1447
 11
-199.036
 21
44.1898
  0
LINE
  8
0
 10
-199.036
 20
44.1898
 11
-198.788
 21
44.1989
  0
LINE
  8
0
 10
-198.788
 20
44.1989
 11
-198.541
 21
44.1717
  0
LINE
  8
0
 10
-198.541
 20
44.1717
 11
-198.301
 21
44.1089
  0
LINE
  8
0
 10
-198.301
 20
44.1089
 11
-198.073
 21
44.0119
  0
LINE
  8
0
 10
-198.073
 20
44.0119
 11
-197.861
 21
43.8826
  0
LINE
  8
0
 10
-197.861
 20
43.8826
 11
-197.67
 21
43.7238
  0
LINE
  8
0
 10
-197.67
 20
43.7238
 11
-197.504
 21
43.539
  0
LINE
  8
0
 10
-197.504
 20
43.539
 11
-197.368
 21
43.332
  0
LINE
  8
0
 10
-197.368
 20
43.332
 11
-197.262
 21
43.1073
  0
LINE
  8
0
 10
-197.262
 20
43.1073
 11
-197.191
 21
42.8696
  0
LINE
  8
0
 10
-197.191
 20
42.8696
 11
-197.155
 21
42.6241
  0
LINE
  8
0
 10
-197.155
 20
42.6241
 11
-197.155
 21
42.3759
  0
LINE
  8
0
 10
-197.155
 20
42.3759
 11
-197.191
 21
42.1304
  0
LINE
  8
0
 10
-197.191
 20
42.1304
 11
-197.262
 21
41.8927
  0
LINE
  8
0
 10
-197.262
 20
41.8927
 11
-197.368
 21
41.668
  0
LINE
  8
0
 10
-197.368
 20
41.668
 11
-197.504
 21
41.461
  0
LINE
  8
0
 10
-197.504
 20
41.461
 11
-197.67
 21
41.2762
  0
LINE
  8
0
 10
-197.67
 20
41.2762
 11
-197.861
 21
41.1174
  0
LINE
  8
0
 10
-197.861
 20
41.1174
 11
-198.073
 21
40.9881
  0
LINE
  8
0
 10
-198.073
 20
40.9881
 11
-198.301
 21
40.8911
  0
LINE
  8
0
 10
-198.301
 20
40.8911
 11
-198.541
 21
40.8283
  0
LINE
  8
0
 10
-198.541
 20
40.8283
 11
-198.788
 21
40.8011
  0
LINE
  8
0
 10
-198.788
 20
40.8011
 11
-199.036
 21
40.8102
  0
LINE
  8
0
 10
198.541
 20
-44.1717
 11
198.301
 21
-44.1089
  0
LINE
  8
0
 10
198.301
 20
-44.1089
 11
198.073
 21
-44.0119
  0
LINE
  8
0
 10
198.073
 20
-44.0119
 11
197.861
 21
-43.8826
  0
LINE
  8
0
 10
197.861
 20
-43.8826
 11
197.67
 21
-43.7238
  0
LINE
  8
0
 10
197.67
 20
-43.7238
 11
197.504
 21
-43.539
  0
LINE
  8
0
 10
197.504
 20
-43.539
 11
197.368
 21
-43.332
  0
LINE
  8
0
 10
197.368
 20
-43.332
 11
197.262
 21
-43.1073
  0
LINE
  8
0
 10
197.262
 20
-43.1073
 11
197.191
 21
-42.8696
  0
LINE
  8
0
 10
197.191
 20
-42.8696
 11
197.155
 21
-42.6241
  0
LINE
  8
0
 10
197.155
 20
-42.6241
 11
197.155
 21
-42.3759
  0
LINE
  8
0
 10
197.155
 20
-42.3759
 11
197.191
 21
-42.1304
  0
LINE
  8
0
 10
197.191
 20
-42.1304
 11
197.262
 21
-41.8927
  0
LINE
  8
0
 10
197.262
 20
-41.8927
 11
197.368
 21
-41.668
  0
LINE
  8
0
 10
197.368
 20
-41.668
 11
197.504
 21
-41.461
  0
LINE
  8
0
 10
197.504
 20
-41.461
 11
197.67
 21
-41.2762
  0
LINE
  8
0
 10
197.67
 20
-41.2762
 11
197.861
 21
-41.1174
  0
LINE
  8
0
 10
197.861
 20
-41.1174
 11
198.073
 21
-40.9881
  0
LINE
  8
0
 10
198.073
 20
-40.9881
 11
198.301
 21
-40.8911
  0
LINE
  8
0
 10
198.301
 20
-40.8911
 11
198.541
 21
-40.8283
  0
LINE
  8
0
 10
198.541
 20
-40.8283
 11
198.788
 21
-40.8011
  0
LINE
  8
0
 10
198.788
 20
-40.8011
 11
199.036
 21
-40.8102
  0
LINE
  8
0
 10
199.036
 20
-40.8102
 11
199.28
 21
-40.8553
  0
LINE
  8
0
 10
199.28
 20
-40.8553
 11
199.515
 21
-40.9354
  0
LINE
  8
0
 10
199.515
 20
-40.9354
 11
199.736
 21
-41.0489
  0
LINE
  8
0
 10
199.736
 20
-41.0489
 11
199.937
 21
-41.1933
  0
LINE
  8
0
 10
199.937
 20
-41.1933
 11
200.116
 21
-41.3656
  0
LINE
  8
0
 10
200.116
 20
-41.3656
 11
200.268
 21
-41.562
  0
LINE
  8
0
 10
200.268
 20
-41.562
 11
200.389
 21
-41.7784
  0
LINE
  8
0
 10
200.389
 20
-41.7784
 11
200.478
 21
-42.0102
  0
LINE
  8
0
 10
200.478
 20
-42.0102
 11
200.532
 21
-42.2525
  0
LINE
  8
0
 10
200.532
 20
-42.2525
 11
200.55
 21
-42.5
  0
LINE
  8
0
 10
200.55
 20
-42.5
 11
200.532
 21
-42.7475
  0
LINE
  8
0
 10
200.532
 20
-42.7475
 11
200.478
 21
-42.9898
  0
LINE
  8
0
 10
200.478
 20
-42.9898
 11
200.389
 21
-43.2216
  0
LINE
  8
0
 10
200.389
 20
-43.2216
 11
200.268
 21
-43.438
  0
LINE
  8
0
 10
200.268
 20
-43.438
 11
200.116
 21
-43.6344
  0
LINE
  8
0
 10
200.116
 20
-43.6344
 11
199.937
 21
-43.8067
  0
LINE
  8
0
 10
199.937
 20
-43.8067
 11
199.736
 21
-43.9511
  0
LINE
  8
0
 10
199.736
 20
-43.9511
 11
199.515
 21
-44.0646
  0
LINE
  8
0
 10
199.515
 20
-44.0646
 11
199.28
 21
-44.1447
  0
LINE
  8
0
 10
199.28
 20
-44.1447
 11
199.036
 21
-44.1898
  0
LINE
  8
0
 10
199.036
 20
-44.1898
 11
198.788
 21
-44.1989
  0
LINE
  8
0
 10
198.788
 20
-44.1989
 11
198.541
 21
-44.1717
  0
LINE
  8
0
 10
-199.036
 20
-44.1898
 11
-199.28
 21
-44.1447
  0
LINE
  8
0
 10
-199.28
 20
-44.1447
 11
-199.515
 21
-44.0646
  0
LINE
  8
0
 10
-199.515
 20
-44.0646
 11
-199.736
 21
-43.9511
  0
LINE
  8
0
 10
-199.736
 20
-43.9511
 11
-199.937
 21
-43.8067
  0
LINE
  8
0
 10
-199.937
 20
-43.8067
 11
-200.116
 21
-43.6344
  0
LINE
  8
0
 10
-200.116
 20
-43.6344
 11
-200.268
 21
-43.438
  0
LINE
  8
0
 10
-200.268
 20
-43.438
 11
-200.389
 21
-43.2216
  0
LINE
  8
0
 10
-200.389
 20
-43.2216
 11
-200.478
 21
-42.9898
  0
LINE
  8
0
 10
-200.478
 20
-42.9898
 11
-200.532
 21
-42.7475
  0
LINE
  8
0
 10
-200.532
 20
-42.7475
 11
-200.55
 21
-42.5
  0
LINE
  8
0
 10
-200.55
 20
-42.5
 11
-200.532
 21
-42.2525
  0
LINE
  8
0
 10
-200.532
 20
-42.2525
 11
-200.478
 21
-42.0102
  0
LINE
  8
0
 10
-200.478
 20
-42.0102
 11
-200.389
 21
-41.7784
  0
LINE
  8
0
 10
-200.389
 20
-41.7784
 11
-200.268
 21
-41.562
  0
LINE
  8
0
 10
-200.268
 20
-41.562
 11
-200.116
 21
-41.3656
  0
LINE
  8
0
 10
-200.116
 20
-41.3656
 11
-199.937
 21
-41.1933
  0
LINE
  8
0
 10
-199.937
 20
-41.1933
 11
-199.736
 21
-41.0489
  0
LINE
  8
0
 10
-199.736
 20
-41.0489
 11
-199.515
 21
-40.9354
  0
LINE
  8
0
 10
-199.515
 20
-40.9354
 11
-199.28
 21
-40.8553
  0
LINE
  8
0
 10
-199.28
 20
-40.8553
 11
-199.036
 21
-40.8102
  0
LINE
  8
0
 10
-199.036
 20
-40.8102
 11
-198.788
 21
-40.8011
  0
LINE
  8
0
 10
-198.788
 20
-40.8011
 11
-198.541
 21
-40.8283
  0
LINE
  8
0
 10
-198.541
 20
-40.8283
 11
-198.301
 21
-40.8911
  0
LINE
  8
0
 10
-198.301
 20
-40.8911
 11
-198.073
 21
-40.9881
  0
LINE
  8
0
 10
-198.073
 20
-40.9881
 11
-197.861
 21
-41.1174
  0
LINE
  8
0
 10
-197.861
 20
-41.1174
 11
-197.67
 21
-41.2762
  0
LINE
  8
0
 10
-197.67
 20
-41.2762
 11
-197.504
 21
-41.461
  0
LINE
  8
0
 10
-197.504
 20
-41.461
 11
-197.368
 21
-41.668
  0
LINE
  8
0
 10
-197.368
 20
-41.668
 11
-197.262
 21
-41.8927
  0
LINE
  8
0
 10
-197.262
 20
-41.8927
 11
-197.191
 21
-42.1304
  0
LINE
  8
0
 10
-197.191
 20
-42.1304
 11
-197.155
 21
-42.3759
  0
LINE
  8
0
 10
-197.155
 20
-42.3759
 11
-197.155
 21
-42.6241
  0
LINE
  8
0
 10
-197.155
 20
-42.6241
 11
-197.191
 21
-42.8696
  0
LINE
  8
0
 10
-197.191
 20
-42.8696
 11
-197.262
 21
-43.1073
  0
LINE
  8
0
 10
-197.262
 20
-43.1073
 11
-197.368
 21
-43.332
  0
LINE
  8
0
 10
-197.368
 20
-43.332
 11
-197.504
 21
-43.539
  0
LINE
  8
0
 10
-197.504
 20
-43.539
 11
-197.67
 21
-43.7238
  0
LINE
  8
0
 10
-197.67
 20
-43.7238
 11
-197.861
 21
-43.8826
  0
LINE
  8
0
 10
-197.861
 20
-43.8826
 11
-198.073
 21
-44.0119
  0
LINE
  8
0
 10
-198.073
 20
-44.0119
 11
-198.301
 21
-44.1089
  0
LINE
  8
0
 10
-198.301
 20
-44.1089
 11
-198.541
 21
-44.1717
  0
LINE
  8
0
 10
-198.541
 20
-44.1717
 11
-198.788
 21
-44.1989
  0
LINE
  8
0
 10
-198.788
 20
-44.1989
 11
-199.036
 21
-44.1898
  0
LINE
  8
0
 10
-199.242
 20
-88.7294
 11
-199.63
 21
-88.668
  0
LINE
  8
0
 10
-199.63
 20
-88.668
 11
-200.009
 21
-88.5665
  0
LINE
  8
0
 10
-200.009
 20
-88.5665
 11
-200.375
 21
-88.4258
  0
LINE
  8
0
 10
-200.375
 20
-88.4258
 11
-200.725
 21
-88.2476
  0
LINE
  8
0
 10
-200.725
 20
-88.2476
 11
-201.054
 21
-88.0338
  0
LINE
  8
0
 10
-201.054
 20
-88.0338
 11
-201.359
 21
-87.7868
  0
LINE
  8
0
 10
-201.359
 20
-87.7868
 11
-201.637
 21
-87.5092
  0
LINE
  8
0
 10
-201.637
 20
-87.5092
 11
-201.884
 21
-87.2042
  0
LINE
  8
0
 10
-201.884
 20
-87.2042
 11
-202.098
 21
-86.875
  0
LINE
  8
0
 10
-202.098
 20
-86.875
 11
-202.276
 21
-86.5253
  0
LINE
  8
0
 10
-202.276
 20
-86.5253
 11
-202.416
 21
-86.1588
  0
LINE
  8
0
 10
-202.416
 20
-86.1588
 11
-202.518
 21
-85.7797
  0
LINE
  8
0
 10
-202.518
 20
-85.7797
 11
-202.579
 21
-85.392
  0
LINE
  8
0
 10
-202.579
 20
-85.392
 11
-202.6
 21
-85
  0
LINE
  8
0
 10
-202.6
 20
-85
 11
-202.579
 21
-84.608
  0
LINE
  8
0
 10
-202.579
 20
-84.608
 11
-202.518
 21
-84.2203
  0
LINE
  8
0
 10
-202.518
 20
-84.2203
 11
-202.416
 21
-83.8412
  0
LINE
  8
0
 10
-202.416
 20
-83.8412
 11
-202.276
 21
-83.4747
  0
LINE
  8
0
 10
-202.276
 20
-83.4747
 11
-202.098
 21
-83.125
  0
LINE
  8
0
 10
-202.098
 20
-83.125
 11
-201.884
 21
-82.7958
  0
LINE
  8
0
 10
-201.884
 20
-82.7958
 11
-201.637
 21
-82.4908
  0
LINE
  8
0
 10
-201.637
 20
-82.4908
 11
-201.359
 21
-82.2132
  0
LINE
  8
0
 10
-201.359
 20
-82.2132
 11
-201.054
 21
-81.9662
  0
LINE
  8
0
 10
-201.054
 20
-81.9662
 11
-200.725
 21
-81.7524
  0
LINE
  8
0
 10
-200.725
 20
-81.7524
 11
-200.375
 21
-81.5742
  0
LINE
  8
0
 10
-200.375
 20
-81.5742
 11
-200.009
 21
-81.4335
  0
LINE
  8
0
 10
-200.009
 20
-81.4335
 11
-199.63
 21
-81.3319
  0
LINE
  8
0
 10
-199.63
 20
-81.3319
 11
-199.242
 21
-81.2705
  0
LINE
  8
0
 10
-199.242
 20
-81.2705
 11
-198.85
 21
-81.25
  0
LINE
  8
0
 10
-198.85
 20
-81.25
 11
-198.458
 21
-81.2705
  0
LINE
  8
0
 10
-198.458
 20
-81.2705
 11
-198.07
 21
-81.3319
  0
LINE
  8
0
 10
-198.07
 20
-81.3319
 11
-197.691
 21
-81.4335
  0
LINE
  8
0
 10
-197.691
 20
-81.4335
 11
-197.325
 21
-81.5742
  0
LINE
  8
0
 10
-197.325
 20
-81.5742
 11
-196.975
 21
-81.7524
  0
LINE
  8
0
 10
-196.975
 20
-81.7524
 11
-196.646
 21
-81.9662
  0
LINE
  8
0
 10
-196.646
 20
-81.9662
 11
-196.341
 21
-82.2132
  0
LINE
  8
0
 10
-196.341
 20
-82.2132
 11
-196.063
 21
-82.4908
  0
LINE
  8
0
 10
-196.063
 20
-82.4908
 11
-195.816
 21
-82.7958
  0
LINE
  8
0
 10
-195.816
 20
-82.7958
 11
-195.602
 21
-83.125
  0
LINE
  8
0
 10
-195.602
 20
-83.125
 11
-195.424
 21
-83.4747
  0
LINE
  8
0
 10
-195.424
 20
-83.4747
 11
-195.284
 21
-83.8412
  0
LINE
  8
0
 10
-195.284
 20
-83.8412
 11
-195.182
 21
-84.2203
  0
LINE
  8
0
 10
-195.182
 20
-84.2203
 11
-195.121
 21
-84.608
  0
LINE
  8
0
 10
-195.121
 20
-84.608
 11
-195.1
 21
-85
  0
LINE
  8
0
 10
-195.1
 20
-85
 11
-195.121
 21
-85.392
  0
LINE
  8
0
 10
-195.121
 20
-85.392
 11
-195.182
 21
-85.7797
  0
LINE
  8
0
 10
-195.182
 20
-85.7797
 11
-195.284
 21
-86.1588
  0
LINE
  8
0
 10
-195.284
 20
-86.1588
 11
-195.424
 21
-86.5253
  0
LINE
  8
0
 10
-195.424
 20
-86.5253
 11
-195.602
 21
-86.875
  0
LINE
  8
0
 10
-195.602
 20
-86.875
 11
-195.816
 21
-87.2042
  0
LINE
  8
0
 10
-195.816
 20
-87.2042
 11
-196.063
 21
-87.5092
  0
LINE
  8
0
 10
-196.063
 20
-87.5092
 11
-196.341
 21
-87.7868
  0
LINE
  8
0
 10
-196.341
 20
-87.7868
 11
-196.646
 21
-88.0338
  0
LINE
  8
0
 10
-196.646
 20
-88.0338
 11
-196.975
 21
-88.2476
  0
LINE
  8
0
 10
-196.975
 20
-88.2476
 11
-197.325
 21
-88.4258
  0
LINE
  8
0
 10
-197.325
 20
-88.4258
 11
-197.691
 21
-88.5665
  0
LINE
  8
0
 10
-197.691
 20
-88.5665
 11
-198.07
 21
-88.668
  0
LINE
  8
0
 10
-198.07
 20
-88.668
 11
-198.458
 21
-88.7294
  0
LINE
  8
0
 10
-198.458
 20
-88.7294
 11
-198.85
 21
-88.75
  0
LINE
  8
0
 10
-198.85
 20
-88.75
 11
-199.242
 21
-88.7294
  0
LINE
  8
0
 10
198.458
 20
-88.7294
 11
198.07
 21
-88.668
  0
LINE
  8
0
 10
198.07
 20
-88.668
 11
197.691
 21
-88.5665
  0
LINE
  8
0
 10
197.691
 20
-88.5665
 11
197.325
 21
-88.4258
  0
LINE
  8
0
 10
197.325
 20
-88.4258
 11
196.975
 21
-88.2476
  0
LINE
  8
0
 10
196.975
 20
-88.2476
 11
196.646
 21
-88.0338
  0
LINE
  8
0
 10
196.646
 20
-88.0338
 11
196.341
 21
-87.7868
  0
LINE
  8
0
 10
196.341
 20
-87.7868
 11
196.063
 21
-87.5092
  0
LINE
  8
0
 10
196.063
 20
-87.5092
 11
195.816
 21
-87.2042
  0
LINE
  8
0
 10
195.816
 20
-87.2042
 11
195.602
 21
-86.875
  0
LINE
  8
0
 10
195.602
 20
-86.875
 11
195.424
 21
-86.5253
  0
LINE
  8
0
 10
195.424
 20
-86.5253
 11
195.284
 21
-86.1588
  0
LINE
  8
0
 10
195.284
 20
-86.1588
 11
195.182
 21
-85.7797
  0
LINE
  8
0
 10
195.182
 20
-85.7797
 11
195.121
 21
-85.392
  0
LINE
  8
0
 10
195.121
 20
-85.392
 11
195.1
 21
-85
  0
LINE
  8
0
 10
195.1
 20
-85
 11
195.121
 21
-84.608
  0
LINE
  8
0
 10
195.121
 20
-84.608
 11
195.182
 21
-84.2203
  0
LINE
  8
0
 10
195.182
 20
-84.2203
 11
195.284
 21
-83.8412
  0
LINE
  8
0
 10
195.284
 20
-83.8412
 11
195.424
 21
-83.4747
  0
LINE
  8
0
 10
195.424
 20
-83.4747
 11
195.602
 21
-83.125
  0
LINE
  8
0
 10
195.602
 20
-83.125
 11
195.816
 21
-82.7958
  0
LINE
  8
0
 10
195.816
 20
-82.7958
 11
196.063
 21
-82.4908
  0
LINE
  8
0
 10
196.063
 20
-82.4908
 11
196.341
 21
-82.2132
  0
LINE
  8
0
 10
196.341
 20
-82.2132
 11
196.646
 21
-81.9662
  0
LINE
  8
0
 10
196.646
 20
-81.9662
 11
196.975
 21
-81.7524
  0
LINE
  8
0
 10
196.975
 20
-81.7524
 11
197.325
 21
-81.5742
  0
LINE
  8
0
 10
197.325
 20
-81.5742
 11
197.691
 21
-81.4335
  0
LINE
  8
0
 10
197.691
 20
-81.4335
 11
198.07
 21
-81.3319
  0
LINE
  8
0
 10
198.07
 20
-81.3319
 11
198.458
 21
-81.2705
  0
LINE
  8
0
 10
198.458
 20
-81.2705
 11
198.85
 21
-81.25
  0
LINE
  8
0
 10
198.85
 20
-81.25
 11
199.242
 21
-81.2705
  0
LINE
  8
0
 10
199.242
 20
-81.2705
 11
199.63
 21
-81.3319
  0
LINE
  8
0
 10
199.63
 20
-81.3319
 11
200.009
 21
-81.4335
  0
LINE
  8
0
 10
200.009
 20
-81.4335
 11
200.375
 21
-81.5742
  0
LINE
  8
0
 10
200.375
 20
-81.5742
 11
200.725
 21
-81.7524
  0
LINE
  8
0
 10
200.725
 20
-81.7524
 11
201.054
 21
-81.9662
  0
LINE
  8
0
 10
201.054
 20
-81.9662
 11
201.359
 21
-82.2132
  0
LINE
  8
0
 10
201.359
 20
-82.2132
 11
201.637
 21
-82.4908
  0
LINE
  8
0
 10
201.637
 20
-82.4908
 11
201.884
 21
-82.7958
  0
LINE
  8
0
 10
201.884
 20
-82.7958
 11
202.098
 21
-83.125
  0
LINE
  8
0
 10
202.098
 20
-83.125
 11
202.276
 21
-83.4747
  0
LINE
  8
0
 10
202.276
 20
-83.4747
 11
202.416
 21
-83.8412
  0
LINE
  8
0
 10
202.416
 20
-83.8412
 11
202.518
 21
-84.2203
  0
LINE
  8
0
 10
202.518
 20
-84.2203
 11
202.579
 21
-84.608
  0
LINE
  8
0
 10
202.579
 20
-84.608
 11
202.6
 21
-85
  0
LINE
  8
0
 10
202.6
 20
-85
 11
202.579
 21
-85.392
  0
LINE
  8
0
 10
202.579
 20
-85.392
 11
202.518
 21
-85.7797
  0
LINE
  8
0
 10
202.518
 20
-85.7797
 11
202.416
 21
-86.1588
  0
LINE
  8
0
 10
202.416
 20
-86.1588
 11
202.276
 21
-86.5253
  0
LINE
  8
0
 10
202.276
 20
-86.5253
 11
202.098
 21
-86.875
  0
LINE
  8
0
 10
202.098
 20
-86.875
 11
201.884
 21
-87.2042
  0
LINE
  8
0
 10
201.884
 20
-87.2042
 11
201.637
 21
-87.5092
  0
LINE
  8
0
 10
201.637
 20
-87.5092
 11
201.359
 21
-87.7868
  0
LINE
  8
0
 10
201.359
 20
-87.7868
 11
201.054
 21
-88.0338
  0
LINE
  8
0
 10
201.054
 20
-88.0338
 11
200.725
 21
-88.2476
  0
LINE
  8
0
 10
200.725
 20
-88.2476
 11
200.375
 21
-88.4258
  0
LINE
  8
0
 10
200.375
 20
-88.4258
 11
200.009
 21
-88.5665
  0
LINE
  8
0
 10
200.009
 20
-88.5665
 11
199.63
 21
-88.668
  0
LINE
  8
0
 10
199.63
 20
-88.668
 11
199.242
 21
-88.7294
  0
LINE
  8
0
 10
199.242
 20
-88.7294
 11
198.85
 21
-88.75
  0
LINE
  8
0
 10
198.85
 20
-88.75
 11
198.458
 21
-88.7294
  0
ENDSEC
  0
SECTION
  2
OBJECTS
  0
DICTIONARY
  0
ENDSEC
  0
EOF
