  0
SECTION
  2
BLOCKS
  0
ENDSEC
  0
SECTION
  2
ENTITIES
  0
LINE
  8
0
 10
275
 20
163.85
 11
274.973
 21
164.373
  0
LINE
  8
0
 10
274.973
 20
164.373
 11
274.891
 21
164.89
  0
LINE
  8
0
 10
274.891
 20
164.89
 11
274.755
 21
165.395
  0
LINE
  8
0
 10
274.755
 20
165.395
 11
274.568
 21
165.884
  0
LINE
  8
0
 10
274.568
 20
165.884
 11
274.33
 21
166.35
  0
LINE
  8
0
 10
274.33
 20
166.35
 11
274.045
 21
166.789
  0
LINE
  8
0
 10
274.045
 20
166.789
 11
273.716
 21
167.196
  0
LINE
  8
0
 10
273.716
 20
167.196
 11
273.346
 21
167.566
  0
LINE
  8
0
 10
273.346
 20
167.566
 11
272.939
 21
167.895
  0
LINE
  8
0
 10
272.939
 20
167.895
 11
272.5
 21
168.18
  0
LINE
  8
0
 10
272.5
 20
168.18
 11
272.034
 21
168.418
  0
LINE
  8
0
 10
272.034
 20
168.418
 11
271.545
 21
168.605
  0
LINE
  8
0
 10
271.545
 20
168.605
 11
271.04
 21
168.741
  0
LINE
  8
0
 10
271.04
 20
168.741
 11
270.523
 21
168.823
  0
LINE
  8
0
 10
270.523
 20
168.823
 11
270
 21
168.85
  0
LINE
  8
0
 10
270
 20
168.85
 11
-270
 21
168.85
  0
LINE
  8
0
 10
-270
 20
168.85
 11
-270.523
 21
168.823
  0
LINE
  8
0
 10
-270.523
 20
168.823
 11
-271.04
 21
168.741
  0
LINE
  8
0
 10
-271.04
 20
168.741
 11
-271.545
 21
168.605
  0
LINE
  8
0
 10
-271.545
 20
168.605
 11
-272.034
 21
168.418
  0
LINE
  8
0
 10
-272.034
 20
168.418
 11
-272.5
 21
168.18
  0
LINE
  8
0
 10
-272.5
 20
168.18
 11
-272.939
 21
167.895
  0
LINE
  8
0
 10
-272.939
 20
167.895
 11
-273.346
 21
167.566
  0
LINE
  8
0
 10
-273.346
 20
167.566
 11
-273.716
 21
167.196
  0
LINE
  8
0
 10
-273.716
 20
167.196
 11
-274.045
 21
166.789
  0
LINE
  8
0
 10
-274.045
 20
166.789
 11
-274.33
 21
166.35
  0
LINE
  8
0
 10
-274.33
 20
166.35
 11
-274.568
 21
165.884
  0
LINE
  8
0
 10
-274.568
 20
165.884
 11
-274.755
 21
165.395
  0
LINE
  8
0
 10
-274.755
 20
165.395
 11
-274.891
 21
164.89
  0
LINE
  8
0
 10
-274.891
 20
164.89
 11
-274.973
 21
164.373
  0
LINE
  8
0
 10
-274.973
 20
164.373
 11
-275
 21
163.85
  0
LINE
  8
0
 10
-275
 20
163.85
 11
-275
 21
-206.225
  0
LINE
  8
0
 10
-275
 20
-206.225
 11
275
 21
-206.225
  0
LINE
  8
0
 10
275
 20
-206.225
 11
275
 21
163.85
  0
ENDSEC
  0
SECTION
  2
OBJECTS
  0
DICTIONARY
  0
ENDSEC
  0
EOF
