  0
SECTION
  2
BLOCKS
  0
ENDSEC
  0
SECTION
  2
ENTITIES
  0
LINE
  8
0
 10
202.898
 20
-107.348
 11
203.415
 21
-107.266
  0
LINE
  8
0
 10
203.415
 20
-107.266
 11
203.92
 21
-107.13
  0
LINE
  8
0
 10
203.92
 20
-107.13
 11
204.409
 21
-106.943
  0
LINE
  8
0
 10
204.409
 20
-106.943
 11
204.875
 21
-106.705
  0
LINE
  8
0
 10
204.875
 20
-106.705
 11
205.314
 21
-106.42
  0
LINE
  8
0
 10
205.314
 20
-106.42
 11
205.721
 21
-106.091
  0
LINE
  8
0
 10
205.721
 20
-106.091
 11
206.091
 21
-105.721
  0
LINE
  8
0
 10
206.091
 20
-105.721
 11
206.42
 21
-105.314
  0
LINE
  8
0
 10
206.42
 20
-105.314
 11
206.705
 21
-104.875
  0
LINE
  8
0
 10
206.705
 20
-104.875
 11
206.943
 21
-104.409
  0
LINE
  8
0
 10
206.943
 20
-104.409
 11
207.13
 21
-103.92
  0
LINE
  8
0
 10
207.13
 20
-103.92
 11
207.266
 21
-103.415
  0
LINE
  8
0
 10
207.266
 20
-103.415
 11
207.348
 21
-102.898
  0
LINE
  8
0
 10
207.348
 20
-102.898
 11
207.375
 21
-102.375
  0
LINE
  8
0
 10
207.375
 20
-102.375
 11
207.375
 21
102.375
  0
LINE
  8
0
 10
207.375
 20
102.375
 11
207.348
 21
102.898
  0
LINE
  8
0
 10
207.348
 20
102.898
 11
207.266
 21
103.415
  0
LINE
  8
0
 10
207.266
 20
103.415
 11
207.13
 21
103.92
  0
LINE
  8
0
 10
207.13
 20
103.92
 11
206.943
 21
104.409
  0
LINE
  8
0
 10
206.943
 20
104.409
 11
206.705
 21
104.875
  0
LINE
  8
0
 10
206.705
 20
104.875
 11
206.42
 21
105.314
  0
LINE
  8
0
 10
206.42
 20
105.314
 11
206.091
 21
105.721
  0
LINE
  8
0
 10
206.091
 20
105.721
 11
205.721
 21
106.091
  0
LINE
  8
0
 10
205.721
 20
106.091
 11
205.314
 21
106.42
  0
LINE
  8
0
 10
205.314
 20
106.42
 11
204.875
 21
106.705
  0
LINE
  8
0
 10
204.875
 20
106.705
 11
204.409
 21
106.943
  0
LINE
  8
0
 10
204.409
 20
106.943
 11
203.92
 21
107.13
  0
LINE
  8
0
 10
203.92
 20
107.13
 11
203.415
 21
107.266
  0
LINE
  8
0
 10
203.415
 20
107.266
 11
202.898
 21
107.348
  0
LINE
  8
0
 10
202.898
 20
107.348
 11
202.375
 21
107.375
  0
LINE
  8
0
 10
202.375
 20
107.375
 11
-202.375
 21
107.375
  0
LINE
  8
0
 10
-202.375
 20
107.375
 11
-202.898
 21
107.348
  0
LINE
  8
0
 10
-202.898
 20
107.348
 11
-203.415
 21
107.266
  0
LINE
  8
0
 10
-203.415
 20
107.266
 11
-203.92
 21
107.13
  0
LINE
  8
0
 10
-203.92
 20
107.13
 11
-204.409
 21
106.943
  0
LINE
  8
0
 10
-204.409
 20
106.943
 11
-204.875
 21
106.705
  0
LINE
  8
0
 10
-204.875
 20
106.705
 11
-205.314
 21
106.42
  0
LINE
  8
0
 10
-205.314
 20
106.42
 11
-205.721
 21
106.091
  0
LINE
  8
0
 10
-205.721
 20
106.091
 11
-206.091
 21
105.721
  0
LINE
  8
0
 10
-206.091
 20
105.721
 11
-206.42
 21
105.314
  0
LINE
  8
0
 10
-206.42
 20
105.314
 11
-206.705
 21
104.875
  0
LINE
  8
0
 10
-206.705
 20
104.875
 11
-206.943
 21
104.409
  0
LINE
  8
0
 10
-206.943
 20
104.409
 11
-207.13
 21
103.92
  0
LINE
  8
0
 10
-207.13
 20
103.92
 11
-207.266
 21
103.415
  0
LINE
  8
0
 10
-207.266
 20
103.415
 11
-207.348
 21
102.898
  0
LINE
  8
0
 10
-207.348
 20
102.898
 11
-207.375
 21
102.375
  0
LINE
  8
0
 10
-207.375
 20
102.375
 11
-207.375
 21
-102.375
  0
LINE
  8
0
 10
-207.375
 20
-102.375
 11
-207.348
 21
-102.898
  0
LINE
  8
0
 10
-207.348
 20
-102.898
 11
-207.266
 21
-103.415
  0
LINE
  8
0
 10
-207.266
 20
-103.415
 11
-207.13
 21
-103.92
  0
LINE
  8
0
 10
-207.13
 20
-103.92
 11
-206.943
 21
-104.409
  0
LINE
  8
0
 10
-206.943
 20
-104.409
 11
-206.705
 21
-104.875
  0
LINE
  8
0
 10
-206.705
 20
-104.875
 11
-206.42
 21
-105.314
  0
LINE
  8
0
 10
-206.42
 20
-105.314
 11
-206.091
 21
-105.721
  0
LINE
  8
0
 10
-206.091
 20
-105.721
 11
-205.721
 21
-106.091
  0
LINE
  8
0
 10
-205.721
 20
-106.091
 11
-205.314
 21
-106.42
  0
LINE
  8
0
 10
-205.314
 20
-106.42
 11
-204.875
 21
-106.705
  0
LINE
  8
0
 10
-204.875
 20
-106.705
 11
-204.409
 21
-106.943
  0
LINE
  8
0
 10
-204.409
 20
-106.943
 11
-203.92
 21
-107.13
  0
LINE
  8
0
 10
-203.92
 20
-107.13
 11
-203.415
 21
-107.266
  0
LINE
  8
0
 10
-203.415
 20
-107.266
 11
-202.898
 21
-107.348
  0
LINE
  8
0
 10
-202.898
 20
-107.348
 11
-202.375
 21
-107.375
  0
LINE
  8
0
 10
-202.375
 20
-107.375
 11
202.375
 21
-107.375
  0
LINE
  8
0
 10
202.375
 20
-107.375
 11
202.898
 21
-107.348
  0
LINE
  8
0
 10
-200.392
 20
81.2705
 11
-200.78
 21
81.3319
  0
LINE
  8
0
 10
-200.78
 20
81.3319
 11
-201.159
 21
81.4335
  0
LINE
  8
0
 10
-201.159
 20
81.4335
 11
-201.525
 21
81.5742
  0
LINE
  8
0
 10
-201.525
 20
81.5742
 11
-201.875
 21
81.7524
  0
LINE
  8
0
 10
-201.875
 20
81.7524
 11
-202.204
 21
81.9662
  0
LINE
  8
0
 10
-202.204
 20
81.9662
 11
-202.509
 21
82.2132
  0
LINE
  8
0
 10
-202.509
 20
82.2132
 11
-202.787
 21
82.4908
  0
LINE
  8
0
 10
-202.787
 20
82.4908
 11
-203.034
 21
82.7958
  0
LINE
  8
0
 10
-203.034
 20
82.7958
 11
-203.248
 21
83.125
  0
LINE
  8
0
 10
-203.248
 20
83.125
 11
-203.426
 21
83.4747
  0
LINE
  8
0
 10
-203.426
 20
83.4747
 11
-203.566
 21
83.8412
  0
LINE
  8
0
 10
-203.566
 20
83.8412
 11
-203.668
 21
84.2203
  0
LINE
  8
0
 10
-203.668
 20
84.2203
 11
-203.729
 21
84.608
  0
LINE
  8
0
 10
-203.729
 20
84.608
 11
-203.75
 21
85
  0
LINE
  8
0
 10
-203.75
 20
85
 11
-203.729
 21
85.392
  0
LINE
  8
0
 10
-203.729
 20
85.392
 11
-203.668
 21
85.7797
  0
LINE
  8
0
 10
-203.668
 20
85.7797
 11
-203.566
 21
86.1588
  0
LINE
  8
0
 10
-203.566
 20
86.1588
 11
-203.426
 21
86.5253
  0
LINE
  8
0
 10
-203.426
 20
86.5253
 11
-203.248
 21
86.875
  0
LINE
  8
0
 10
-203.248
 20
86.875
 11
-203.034
 21
87.2042
  0
LINE
  8
0
 10
-203.034
 20
87.2042
 11
-202.787
 21
87.5092
  0
LINE
  8
0
 10
-202.787
 20
87.5092
 11
-202.509
 21
87.7868
  0
LINE
  8
0
 10
-202.509
 20
87.7868
 11
-202.204
 21
88.0338
  0
LINE
  8
0
 10
-202.204
 20
88.0338
 11
-201.875
 21
88.2476
  0
LINE
  8
0
 10
-201.875
 20
88.2476
 11
-201.525
 21
88.4258
  0
LINE
  8
0
 10
-201.525
 20
88.4258
 11
-201.159
 21
88.5665
  0
LINE
  8
0
 10
-201.159
 20
88.5665
 11
-200.78
 21
88.668
  0
LINE
  8
0
 10
-200.78
 20
88.668
 11
-200.392
 21
88.7294
  0
LINE
  8
0
 10
-200.392
 20
88.7294
 11
-200
 21
88.75
  0
LINE
  8
0
 10
-200
 20
88.75
 11
-199.608
 21
88.7294
  0
LINE
  8
0
 10
-199.608
 20
88.7294
 11
-199.22
 21
88.668
  0
LINE
  8
0
 10
-199.22
 20
88.668
 11
-198.841
 21
88.5665
  0
LINE
  8
0
 10
-198.841
 20
88.5665
 11
-198.475
 21
88.4258
  0
LINE
  8
0
 10
-198.475
 20
88.4258
 11
-198.125
 21
88.2476
  0
LINE
  8
0
 10
-198.125
 20
88.2476
 11
-197.796
 21
88.0338
  0
LINE
  8
0
 10
-197.796
 20
88.0338
 11
-197.491
 21
87.7868
  0
LINE
  8
0
 10
-197.491
 20
87.7868
 11
-197.213
 21
87.5092
  0
LINE
  8
0
 10
-197.213
 20
87.5092
 11
-196.966
 21
87.2042
  0
LINE
  8
0
 10
-196.966
 20
87.2042
 11
-196.752
 21
86.875
  0
LINE
  8
0
 10
-196.752
 20
86.875
 11
-196.574
 21
86.5253
  0
LINE
  8
0
 10
-196.574
 20
86.5253
 11
-196.434
 21
86.1588
  0
LINE
  8
0
 10
-196.434
 20
86.1588
 11
-196.332
 21
85.7797
  0
LINE
  8
0
 10
-196.332
 20
85.7797
 11
-196.271
 21
85.392
  0
LINE
  8
0
 10
-196.271
 20
85.392
 11
-196.25
 21
85
  0
LINE
  8
0
 10
-196.25
 20
85
 11
-196.271
 21
84.608
  0
LINE
  8
0
 10
-196.271
 20
84.608
 11
-196.332
 21
84.2203
  0
LINE
  8
0
 10
-196.332
 20
84.2203
 11
-196.434
 21
83.8412
  0
LINE
  8
0
 10
-196.434
 20
83.8412
 11
-196.574
 21
83.4747
  0
LINE
  8
0
 10
-196.574
 20
83.4747
 11
-196.752
 21
83.125
  0
LINE
  8
0
 10
-196.752
 20
83.125
 11
-196.966
 21
82.7958
  0
LINE
  8
0
 10
-196.966
 20
82.7958
 11
-197.213
 21
82.4908
  0
LINE
  8
0
 10
-197.213
 20
82.4908
 11
-197.491
 21
82.2132
  0
LINE
  8
0
 10
-197.491
 20
82.2132
 11
-197.796
 21
81.9662
  0
LINE
  8
0
 10
-197.796
 20
81.9662
 11
-198.125
 21
81.7524
  0
LINE
  8
0
 10
-198.125
 20
81.7524
 11
-198.475
 21
81.5742
  0
LINE
  8
0
 10
-198.475
 20
81.5742
 11
-198.841
 21
81.4335
  0
LINE
  8
0
 10
-198.841
 20
81.4335
 11
-199.22
 21
81.3319
  0
LINE
  8
0
 10
-199.22
 20
81.3319
 11
-199.608
 21
81.2705
  0
LINE
  8
0
 10
-199.608
 20
81.2705
 11
-200
 21
81.25
  0
LINE
  8
0
 10
-200
 20
81.25
 11
-200.392
 21
81.2705
  0
LINE
  8
0
 10
199.608
 20
81.2705
 11
199.22
 21
81.3319
  0
LINE
  8
0
 10
199.22
 20
81.3319
 11
198.841
 21
81.4335
  0
LINE
  8
0
 10
198.841
 20
81.4335
 11
198.475
 21
81.5742
  0
LINE
  8
0
 10
198.475
 20
81.5742
 11
198.125
 21
81.7524
  0
LINE
  8
0
 10
198.125
 20
81.7524
 11
197.796
 21
81.9662
  0
LINE
  8
0
 10
197.796
 20
81.9662
 11
197.491
 21
82.2132
  0
LINE
  8
0
 10
197.491
 20
82.2132
 11
197.213
 21
82.4908
  0
LINE
  8
0
 10
197.213
 20
82.4908
 11
196.966
 21
82.7958
  0
LINE
  8
0
 10
196.966
 20
82.7958
 11
196.752
 21
83.125
  0
LINE
  8
0
 10
196.752
 20
83.125
 11
196.574
 21
83.4747
  0
LINE
  8
0
 10
196.574
 20
83.4747
 11
196.434
 21
83.8412
  0
LINE
  8
0
 10
196.434
 20
83.8412
 11
196.332
 21
84.2203
  0
LINE
  8
0
 10
196.332
 20
84.2203
 11
196.271
 21
84.608
  0
LINE
  8
0
 10
196.271
 20
84.608
 11
196.25
 21
85
  0
LINE
  8
0
 10
196.25
 20
85
 11
196.271
 21
85.392
  0
LINE
  8
0
 10
196.271
 20
85.392
 11
196.332
 21
85.7797
  0
LINE
  8
0
 10
196.332
 20
85.7797
 11
196.434
 21
86.1588
  0
LINE
  8
0
 10
196.434
 20
86.1588
 11
196.574
 21
86.5253
  0
LINE
  8
0
 10
196.574
 20
86.5253
 11
196.752
 21
86.875
  0
LINE
  8
0
 10
196.752
 20
86.875
 11
196.966
 21
87.2042
  0
LINE
  8
0
 10
196.966
 20
87.2042
 11
197.213
 21
87.5092
  0
LINE
  8
0
 10
197.213
 20
87.5092
 11
197.491
 21
87.7868
  0
LINE
  8
0
 10
197.491
 20
87.7868
 11
197.796
 21
88.0338
  0
LINE
  8
0
 10
197.796
 20
88.0338
 11
198.125
 21
88.2476
  0
LINE
  8
0
 10
198.125
 20
88.2476
 11
198.475
 21
88.4258
  0
LINE
  8
0
 10
198.475
 20
88.4258
 11
198.841
 21
88.5665
  0
LINE
  8
0
 10
198.841
 20
88.5665
 11
199.22
 21
88.668
  0
LINE
  8
0
 10
199.22
 20
88.668
 11
199.608
 21
88.7294
  0
LINE
  8
0
 10
199.608
 20
88.7294
 11
200
 21
88.75
  0
LINE
  8
0
 10
200
 20
88.75
 11
200.392
 21
88.7294
  0
LINE
  8
0
 10
200.392
 20
88.7294
 11
200.78
 21
88.668
  0
LINE
  8
0
 10
200.78
 20
88.668
 11
201.159
 21
88.5665
  0
LINE
  8
0
 10
201.159
 20
88.5665
 11
201.525
 21
88.4258
  0
LINE
  8
0
 10
201.525
 20
88.4258
 11
201.875
 21
88.2476
  0
LINE
  8
0
 10
201.875
 20
88.2476
 11
202.204
 21
88.0338
  0
LINE
  8
0
 10
202.204
 20
88.0338
 11
202.509
 21
87.7868
  0
LINE
  8
0
 10
202.509
 20
87.7868
 11
202.787
 21
87.5092
  0
LINE
  8
0
 10
202.787
 20
87.5092
 11
203.034
 21
87.2042
  0
LINE
  8
0
 10
203.034
 20
87.2042
 11
203.248
 21
86.875
  0
LINE
  8
0
 10
203.248
 20
86.875
 11
203.426
 21
86.5253
  0
LINE
  8
0
 10
203.426
 20
86.5253
 11
203.566
 21
86.1588
  0
LINE
  8
0
 10
203.566
 20
86.1588
 11
203.668
 21
85.7797
  0
LINE
  8
0
 10
203.668
 20
85.7797
 11
203.729
 21
85.392
  0
LINE
  8
0
 10
203.729
 20
85.392
 11
203.75
 21
85
  0
LINE
  8
0
 10
203.75
 20
85
 11
203.729
 21
84.608
  0
LINE
  8
0
 10
203.729
 20
84.608
 11
203.668
 21
84.2203
  0
LINE
  8
0
 10
203.668
 20
84.2203
 11
203.566
 21
83.8412
  0
LINE
  8
0
 10
203.566
 20
83.8412
 11
203.426
 21
83.4747
  0
LINE
  8
0
 10
203.426
 20
83.4747
 11
203.248
 21
83.125
  0
LINE
  8
0
 10
203.248
 20
83.125
 11
203.034
 21
82.7958
  0
LINE
  8
0
 10
203.034
 20
82.7958
 11
202.787
 21
82.4908
  0
LINE
  8
0
 10
202.787
 20
82.4908
 11
202.509
 21
82.2132
  0
LINE
  8
0
 10
202.509
 20
82.2132
 11
202.204
 21
81.9662
  0
LINE
  8
0
 10
202.204
 20
81.9662
 11
201.875
 21
81.7524
  0
LINE
  8
0
 10
201.875
 20
81.7524
 11
201.525
 21
81.5742
  0
LINE
  8
0
 10
201.525
 20
81.5742
 11
201.159
 21
81.4335
  0
LINE
  8
0
 10
201.159
 20
81.4335
 11
200.78
 21
81.3319
  0
LINE
  8
0
 10
200.78
 20
81.3319
 11
200.392
 21
81.2705
  0
LINE
  8
0
 10
200.392
 20
81.2705
 11
200
 21
81.25
  0
LINE
  8
0
 10
200
 20
81.25
 11
199.608
 21
81.2705
  0
LINE
  8
0
 10
157.191
 20
83.3283
 11
156.951
 21
83.3911
  0
LINE
  8
0
 10
156.951
 20
83.3911
 11
156.723
 21
83.4881
  0
LINE
  8
0
 10
156.723
 20
83.4881
 11
156.511
 21
83.6174
  0
LINE
  8
0
 10
156.511
 20
83.6174
 11
156.32
 21
83.7762
  0
LINE
  8
0
 10
156.32
 20
83.7762
 11
156.154
 21
83.961
  0
LINE
  8
0
 10
156.154
 20
83.961
 11
156.018
 21
84.168
  0
LINE
  8
0
 10
156.018
 20
84.168
 11
155.912
 21
84.3927
  0
LINE
  8
0
 10
155.912
 20
84.3927
 11
155.841
 21
84.6304
  0
LINE
  8
0
 10
155.841
 20
84.6304
 11
155.805
 21
84.8759
  0
LINE
  8
0
 10
155.805
 20
84.8759
 11
155.805
 21
85.1241
  0
LINE
  8
0
 10
155.805
 20
85.1241
 11
155.841
 21
85.3696
  0
LINE
  8
0
 10
155.841
 20
85.3696
 11
155.912
 21
85.6073
  0
LINE
  8
0
 10
155.912
 20
85.6073
 11
156.018
 21
85.832
  0
LINE
  8
0
 10
156.018
 20
85.832
 11
156.154
 21
86.039
  0
LINE
  8
0
 10
156.154
 20
86.039
 11
156.32
 21
86.2238
  0
LINE
  8
0
 10
156.32
 20
86.2238
 11
156.511
 21
86.3826
  0
LINE
  8
0
 10
156.511
 20
86.3826
 11
156.723
 21
86.5119
  0
LINE
  8
0
 10
156.723
 20
86.5119
 11
156.951
 21
86.6089
  0
LINE
  8
0
 10
156.951
 20
86.6089
 11
157.191
 21
86.6717
  0
LINE
  8
0
 10
157.191
 20
86.6717
 11
157.438
 21
86.6989
  0
LINE
  8
0
 10
157.438
 20
86.6989
 11
157.686
 21
86.6898
  0
LINE
  8
0
 10
157.686
 20
86.6898
 11
157.93
 21
86.6447
  0
LINE
  8
0
 10
157.93
 20
86.6447
 11
158.165
 21
86.5646
  0
LINE
  8
0
 10
158.165
 20
86.5646
 11
158.386
 21
86.4511
  0
LINE
  8
0
 10
158.386
 20
86.4511
 11
158.587
 21
86.3067
  0
LINE
  8
0
 10
158.587
 20
86.3067
 11
158.766
 21
86.1344
  0
LINE
  8
0
 10
158.766
 20
86.1344
 11
158.918
 21
85.938
  0
LINE
  8
0
 10
158.918
 20
85.938
 11
159.039
 21
85.7216
  0
LINE
  8
0
 10
159.039
 20
85.7216
 11
159.128
 21
85.4898
  0
LINE
  8
0
 10
159.128
 20
85.4898
 11
159.182
 21
85.2475
  0
LINE
  8
0
 10
159.182
 20
85.2475
 11
159.2
 21
85
  0
LINE
  8
0
 10
159.2
 20
85
 11
159.182
 21
84.7525
  0
LINE
  8
0
 10
159.182
 20
84.7525
 11
159.128
 21
84.5102
  0
LINE
  8
0
 10
159.128
 20
84.5102
 11
159.039
 21
84.2784
  0
LINE
  8
0
 10
159.039
 20
84.2784
 11
158.918
 21
84.062
  0
LINE
  8
0
 10
158.918
 20
84.062
 11
158.766
 21
83.8656
  0
LINE
  8
0
 10
158.766
 20
83.8656
 11
158.587
 21
83.6933
  0
LINE
  8
0
 10
158.587
 20
83.6933
 11
158.386
 21
83.5489
  0
LINE
  8
0
 10
158.386
 20
83.5489
 11
158.165
 21
83.4354
  0
LINE
  8
0
 10
158.165
 20
83.4354
 11
157.93
 21
83.3553
  0
LINE
  8
0
 10
157.93
 20
83.3553
 11
157.686
 21
83.3102
  0
LINE
  8
0
 10
157.686
 20
83.3102
 11
157.438
 21
83.3011
  0
LINE
  8
0
 10
157.438
 20
83.3011
 11
157.191
 21
83.3283
  0
LINE
  8
0
 10
-157.809
 20
83.3283
 11
-158.049
 21
83.3911
  0
LINE
  8
0
 10
-158.049
 20
83.3911
 11
-158.277
 21
83.4881
  0
LINE
  8
0
 10
-158.277
 20
83.4881
 11
-158.489
 21
83.6174
  0
LINE
  8
0
 10
-158.489
 20
83.6174
 11
-158.68
 21
83.7762
  0
LINE
  8
0
 10
-158.68
 20
83.7762
 11
-158.846
 21
83.961
  0
LINE
  8
0
 10
-158.846
 20
83.961
 11
-158.982
 21
84.168
  0
LINE
  8
0
 10
-158.982
 20
84.168
 11
-159.088
 21
84.3927
  0
LINE
  8
0
 10
-159.088
 20
84.3927
 11
-159.159
 21
84.6304
  0
LINE
  8
0
 10
-159.159
 20
84.6304
 11
-159.195
 21
84.8759
  0
LINE
  8
0
 10
-159.195
 20
84.8759
 11
-159.195
 21
85.1241
  0
LINE
  8
0
 10
-159.195
 20
85.1241
 11
-159.159
 21
85.3696
  0
LINE
  8
0
 10
-159.159
 20
85.3696
 11
-159.088
 21
85.6073
  0
LINE
  8
0
 10
-159.088
 20
85.6073
 11
-158.982
 21
85.832
  0
LINE
  8
0
 10
-158.982
 20
85.832
 11
-158.846
 21
86.039
  0
LINE
  8
0
 10
-158.846
 20
86.039
 11
-158.68
 21
86.2238
  0
LINE
  8
0
 10
-158.68
 20
86.2238
 11
-158.489
 21
86.3826
  0
LINE
  8
0
 10
-158.489
 20
86.3826
 11
-158.277
 21
86.5119
  0
LINE
  8
0
 10
-158.277
 20
86.5119
 11
-158.049
 21
86.6089
  0
LINE
  8
0
 10
-158.049
 20
86.6089
 11
-157.809
 21
86.6717
  0
LINE
  8
0
 10
-157.809
 20
86.6717
 11
-157.562
 21
86.6989
  0
LINE
  8
0
 10
-157.562
 20
86.6989
 11
-157.314
 21
86.6898
  0
LINE
  8
0
 10
-157.314
 20
86.6898
 11
-157.07
 21
86.6447
  0
LINE
  8
0
 10
-157.07
 20
86.6447
 11
-156.835
 21
86.5646
  0
LINE
  8
0
 10
-156.835
 20
86.5646
 11
-156.614
 21
86.4511
  0
LINE
  8
0
 10
-156.614
 20
86.4511
 11
-156.413
 21
86.3067
  0
LINE
  8
0
 10
-156.413
 20
86.3067
 11
-156.234
 21
86.1344
  0
LINE
  8
0
 10
-156.234
 20
86.1344
 11
-156.082
 21
85.938
  0
LINE
  8
0
 10
-156.082
 20
85.938
 11
-155.961
 21
85.7216
  0
LINE
  8
0
 10
-155.961
 20
85.7216
 11
-155.872
 21
85.4898
  0
LINE
  8
0
 10
-155.872
 20
85.4898
 11
-155.818
 21
85.2475
  0
LINE
  8
0
 10
-155.818
 20
85.2475
 11
-155.8
 21
85
  0
LINE
  8
0
 10
-155.8
 20
85
 11
-155.818
 21
84.7525
  0
LINE
  8
0
 10
-155.818
 20
84.7525
 11
-155.872
 21
84.5102
  0
LINE
  8
0
 10
-155.872
 20
84.5102
 11
-155.961
 21
84.2784
  0
LINE
  8
0
 10
-155.961
 20
84.2784
 11
-156.082
 21
84.062
  0
LINE
  8
0
 10
-156.082
 20
84.062
 11
-156.234
 21
83.8656
  0
LINE
  8
0
 10
-156.234
 20
83.8656
 11
-156.413
 21
83.6933
  0
LINE
  8
0
 10
-156.413
 20
83.6933
 11
-156.614
 21
83.5489
  0
LINE
  8
0
 10
-156.614
 20
83.5489
 11
-156.835
 21
83.4354
  0
LINE
  8
0
 10
-156.835
 20
83.4354
 11
-157.07
 21
83.3553
  0
LINE
  8
0
 10
-157.07
 20
83.3553
 11
-157.314
 21
83.3102
  0
LINE
  8
0
 10
-157.314
 20
83.3102
 11
-157.562
 21
83.3011
  0
LINE
  8
0
 10
-157.562
 20
83.3011
 11
-157.809
 21
83.3283
  0
LINE
  8
0
 10
-0.308777
 20
83.3283
 11
-0.548889
 21
83.3911
  0
LINE
  8
0
 10
-0.548889
 20
83.3911
 11
-0.777298
 21
83.4881
  0
LINE
  8
0
 10
-0.777298
 20
83.4881
 11
-0.989151
 21
83.6174
  0
LINE
  8
0
 10
-0.989151
 20
83.6174
 11
-1.17992
 21
83.7762
  0
LINE
  8
0
 10
-1.17992
 20
83.7762
 11
-1.34554
 21
83.961
  0
LINE
  8
0
 10
-1.34554
 20
83.961
 11
-1.48248
 21
84.168
  0
LINE
  8
0
 10
-1.48248
 20
84.168
 11
-1.58781
 21
84.3927
  0
LINE
  8
0
 10
-1.58781
 20
84.3927
 11
-1.65932
 21
84.6304
  0
LINE
  8
0
 10
-1.65932
 20
84.6304
 11
-1.69545
 21
84.8759
  0
LINE
  8
0
 10
-1.69545
 20
84.8759
 11
-1.69545
 21
85.1241
  0
LINE
  8
0
 10
-1.69545
 20
85.1241
 11
-1.65932
 21
85.3696
  0
LINE
  8
0
 10
-1.65932
 20
85.3696
 11
-1.58781
 21
85.6073
  0
LINE
  8
0
 10
-1.58781
 20
85.6073
 11
-1.48248
 21
85.832
  0
LINE
  8
0
 10
-1.48248
 20
85.832
 11
-1.34554
 21
86.039
  0
LINE
  8
0
 10
-1.34554
 20
86.039
 11
-1.17992
 21
86.2238
  0
LINE
  8
0
 10
-1.17992
 20
86.2238
 11
-0.989151
 21
86.3826
  0
LINE
  8
0
 10
-0.989151
 20
86.3826
 11
-0.777298
 21
86.5119
  0
LINE
  8
0
 10
-0.777298
 20
86.5119
 11
-0.548889
 21
86.6089
  0
LINE
  8
0
 10
-0.548889
 20
86.6089
 11
-0.308777
 21
86.6717
  0
LINE
  8
0
 10
-0.308777
 20
86.6717
 11
-0.0620728
 21
86.6989
  0
LINE
  8
0
 10
-0.0620728
 20
86.6989
 11
0.185928
 21
86.6898
  0
LINE
  8
0
 10
0.185928
 20
86.6898
 11
0.429977
 21
86.6447
  0
LINE
  8
0
 10
0.429977
 20
86.6447
 11
0.664871
 21
86.5646
  0
LINE
  8
0
 10
0.664871
 20
86.5646
 11
0.88559
 21
86.4511
  0
LINE
  8
0
 10
0.88559
 20
86.4511
 11
1.08743
 21
86.3067
  0
LINE
  8
0
 10
1.08743
 20
86.3067
 11
1.2661
 21
86.1344
  0
LINE
  8
0
 10
1.2661
 20
86.1344
 11
1.41779
 21
85.938
  0
LINE
  8
0
 10
1.41779
 20
85.938
 11
1.53926
 21
85.7216
  0
LINE
  8
0
 10
1.53926
 20
85.7216
 11
1.62791
 21
85.4898
  0
LINE
  8
0
 10
1.62791
 20
85.4898
 11
1.68187
 21
85.2475
  0
LINE
  8
0
 10
1.68187
 20
85.2475
 11
1.7
 21
85
  0
LINE
  8
0
 10
1.7
 20
85
 11
1.68187
 21
84.7525
  0
LINE
  8
0
 10
1.68187
 20
84.7525
 11
1.62791
 21
84.5102
  0
LINE
  8
0
 10
1.62791
 20
84.5102
 11
1.53926
 21
84.2784
  0
LINE
  8
0
 10
1.53926
 20
84.2784
 11
1.41779
 21
84.062
  0
LINE
  8
0
 10
1.41779
 20
84.062
 11
1.2661
 21
83.8656
  0
LINE
  8
0
 10
1.2661
 20
83.8656
 11
1.08743
 21
83.6933
  0
LINE
  8
0
 10
1.08743
 20
83.6933
 11
0.88559
 21
83.5489
  0
LINE
  8
0
 10
0.88559
 20
83.5489
 11
0.664871
 21
83.4354
  0
LINE
  8
0
 10
0.664871
 20
83.4354
 11
0.429977
 21
83.3553
  0
LINE
  8
0
 10
0.429977
 20
83.3553
 11
0.185928
 21
83.3102
  0
LINE
  8
0
 10
0.185928
 20
83.3102
 11
-0.0620728
 21
83.3011
  0
LINE
  8
0
 10
-0.0620728
 20
83.3011
 11
-0.308777
 21
83.3283
  0
LINE
  8
0
 10
-79.0588
 20
83.3283
 11
-79.2989
 21
83.3911
  0
LINE
  8
0
 10
-79.2989
 20
83.3911
 11
-79.5273
 21
83.4881
  0
LINE
  8
0
 10
-79.5273
 20
83.4881
 11
-79.7392
 21
83.6174
  0
LINE
  8
0
 10
-79.7392
 20
83.6174
 11
-79.9299
 21
83.7762
  0
LINE
  8
0
 10
-79.9299
 20
83.7762
 11
-80.0955
 21
83.961
  0
LINE
  8
0
 10
-80.0955
 20
83.961
 11
-80.2325
 21
84.168
  0
LINE
  8
0
 10
-80.2325
 20
84.168
 11
-80.3378
 21
84.3927
  0
LINE
  8
0
 10
-80.3378
 20
84.3927
 11
-80.4093
 21
84.6304
  0
LINE
  8
0
 10
-80.4093
 20
84.6304
 11
-80.4455
 21
84.8759
  0
LINE
  8
0
 10
-80.4455
 20
84.8759
 11
-80.4455
 21
85.1241
  0
LINE
  8
0
 10
-80.4455
 20
85.1241
 11
-80.4093
 21
85.3696
  0
LINE
  8
0
 10
-80.4093
 20
85.3696
 11
-80.3378
 21
85.6073
  0
LINE
  8
0
 10
-80.3378
 20
85.6073
 11
-80.2325
 21
85.832
  0
LINE
  8
0
 10
-80.2325
 20
85.832
 11
-80.0955
 21
86.039
  0
LINE
  8
0
 10
-80.0955
 20
86.039
 11
-79.9299
 21
86.2238
  0
LINE
  8
0
 10
-79.9299
 20
86.2238
 11
-79.7392
 21
86.3826
  0
LINE
  8
0
 10
-79.7392
 20
86.3826
 11
-79.5273
 21
86.5119
  0
LINE
  8
0
 10
-79.5273
 20
86.5119
 11
-79.2989
 21
86.6089
  0
LINE
  8
0
 10
-79.2989
 20
86.6089
 11
-79.0588
 21
86.6717
  0
LINE
  8
0
 10
-79.0588
 20
86.6717
 11
-78.8121
 21
86.6989
  0
LINE
  8
0
 10
-78.8121
 20
86.6989
 11
-78.5641
 21
86.6898
  0
LINE
  8
0
 10
-78.5641
 20
86.6898
 11
-78.32
 21
86.6447
  0
LINE
  8
0
 10
-78.32
 20
86.6447
 11
-78.0851
 21
86.5646
  0
LINE
  8
0
 10
-78.0851
 20
86.5646
 11
-77.8644
 21
86.4511
  0
LINE
  8
0
 10
-77.8644
 20
86.4511
 11
-77.6626
 21
86.3067
  0
LINE
  8
0
 10
-77.6626
 20
86.3067
 11
-77.4839
 21
86.1344
  0
LINE
  8
0
 10
-77.4839
 20
86.1344
 11
-77.3322
 21
85.938
  0
LINE
  8
0
 10
-77.3322
 20
85.938
 11
-77.2107
 21
85.7216
  0
LINE
  8
0
 10
-77.2107
 20
85.7216
 11
-77.1221
 21
85.4898
  0
LINE
  8
0
 10
-77.1221
 20
85.4898
 11
-77.0681
 21
85.2475
  0
LINE
  8
0
 10
-77.0681
 20
85.2475
 11
-77.05
 21
85
  0
LINE
  8
0
 10
-77.05
 20
85
 11
-77.0681
 21
84.7525
  0
LINE
  8
0
 10
-77.0681
 20
84.7525
 11
-77.1221
 21
84.5102
  0
LINE
  8
0
 10
-77.1221
 20
84.5102
 11
-77.2107
 21
84.2784
  0
LINE
  8
0
 10
-77.2107
 20
84.2784
 11
-77.3322
 21
84.062
  0
LINE
  8
0
 10
-77.3322
 20
84.062
 11
-77.4839
 21
83.8656
  0
LINE
  8
0
 10
-77.4839
 20
83.8656
 11
-77.6626
 21
83.6933
  0
LINE
  8
0
 10
-77.6626
 20
83.6933
 11
-77.8644
 21
83.5489
  0
LINE
  8
0
 10
-77.8644
 20
83.5489
 11
-78.0851
 21
83.4354
  0
LINE
  8
0
 10
-78.0851
 20
83.4354
 11
-78.32
 21
83.3553
  0
LINE
  8
0
 10
-78.32
 20
83.3553
 11
-78.5641
 21
83.3102
  0
LINE
  8
0
 10
-78.5641
 20
83.3102
 11
-78.8121
 21
83.3011
  0
LINE
  8
0
 10
-78.8121
 20
83.3011
 11
-79.0588
 21
83.3283
  0
LINE
  8
0
 10
78.4412
 20
83.3283
 11
78.2011
 21
83.3911
  0
LINE
  8
0
 10
78.2011
 20
83.3911
 11
77.9727
 21
83.4881
  0
LINE
  8
0
 10
77.9727
 20
83.4881
 11
77.7608
 21
83.6174
  0
LINE
  8
0
 10
77.7608
 20
83.6174
 11
77.5701
 21
83.7762
  0
LINE
  8
0
 10
77.5701
 20
83.7762
 11
77.4044
 21
83.961
  0
LINE
  8
0
 10
77.4044
 20
83.961
 11
77.2675
 21
84.168
  0
LINE
  8
0
 10
77.2675
 20
84.168
 11
77.1622
 21
84.3927
  0
LINE
  8
0
 10
77.1622
 20
84.3927
 11
77.0907
 21
84.6304
  0
LINE
  8
0
 10
77.0907
 20
84.6304
 11
77.0545
 21
84.8759
  0
LINE
  8
0
 10
77.0545
 20
84.8759
 11
77.0545
 21
85.1241
  0
LINE
  8
0
 10
77.0545
 20
85.1241
 11
77.0907
 21
85.3696
  0
LINE
  8
0
 10
77.0907
 20
85.3696
 11
77.1622
 21
85.6073
  0
LINE
  8
0
 10
77.1622
 20
85.6073
 11
77.2675
 21
85.832
  0
LINE
  8
0
 10
77.2675
 20
85.832
 11
77.4044
 21
86.039
  0
LINE
  8
0
 10
77.4044
 20
86.039
 11
77.5701
 21
86.2238
  0
LINE
  8
0
 10
77.5701
 20
86.2238
 11
77.7608
 21
86.3826
  0
LINE
  8
0
 10
77.7608
 20
86.3826
 11
77.9727
 21
86.5119
  0
LINE
  8
0
 10
77.9727
 20
86.5119
 11
78.2011
 21
86.6089
  0
LINE
  8
0
 10
78.2011
 20
86.6089
 11
78.4412
 21
86.6717
  0
LINE
  8
0
 10
78.4412
 20
86.6717
 11
78.6879
 21
86.6989
  0
LINE
  8
0
 10
78.6879
 20
86.6989
 11
78.9359
 21
86.6898
  0
LINE
  8
0
 10
78.9359
 20
86.6898
 11
79.18
 21
86.6447
  0
LINE
  8
0
 10
79.18
 20
86.6447
 11
79.4149
 21
86.5646
  0
LINE
  8
0
 10
79.4149
 20
86.5646
 11
79.6356
 21
86.4511
  0
LINE
  8
0
 10
79.6356
 20
86.4511
 11
79.8374
 21
86.3067
  0
LINE
  8
0
 10
79.8374
 20
86.3067
 11
80.0161
 21
86.1344
  0
LINE
  8
0
 10
80.0161
 20
86.1344
 11
80.1678
 21
85.938
  0
LINE
  8
0
 10
80.1678
 20
85.938
 11
80.2893
 21
85.7216
  0
LINE
  8
0
 10
80.2893
 20
85.7216
 11
80.3779
 21
85.4898
  0
LINE
  8
0
 10
80.3779
 20
85.4898
 11
80.4319
 21
85.2475
  0
LINE
  8
0
 10
80.4319
 20
85.2475
 11
80.45
 21
85
  0
LINE
  8
0
 10
80.45
 20
85
 11
80.4319
 21
84.7525
  0
LINE
  8
0
 10
80.4319
 20
84.7525
 11
80.3779
 21
84.5102
  0
LINE
  8
0
 10
80.3779
 20
84.5102
 11
80.2893
 21
84.2784
  0
LINE
  8
0
 10
80.2893
 20
84.2784
 11
80.1678
 21
84.062
  0
LINE
  8
0
 10
80.1678
 20
84.062
 11
80.0161
 21
83.8656
  0
LINE
  8
0
 10
80.0161
 20
83.8656
 11
79.8374
 21
83.6933
  0
LINE
  8
0
 10
79.8374
 20
83.6933
 11
79.6356
 21
83.5489
  0
LINE
  8
0
 10
79.6356
 20
83.5489
 11
79.4149
 21
83.4354
  0
LINE
  8
0
 10
79.4149
 20
83.4354
 11
79.18
 21
83.3553
  0
LINE
  8
0
 10
79.18
 20
83.3553
 11
78.9359
 21
83.3102
  0
LINE
  8
0
 10
78.9359
 20
83.3102
 11
78.6879
 21
83.3011
  0
LINE
  8
0
 10
78.6879
 20
83.3011
 11
78.4412
 21
83.3283
  0
LINE
  8
0
 10
-200.186
 20
40.8102
 11
-200.43
 21
40.8553
  0
LINE
  8
0
 10
-200.43
 20
40.8553
 11
-200.665
 21
40.9354
  0
LINE
  8
0
 10
-200.665
 20
40.9354
 11
-200.886
 21
41.0489
  0
LINE
  8
0
 10
-200.886
 20
41.0489
 11
-201.087
 21
41.1933
  0
LINE
  8
0
 10
-201.087
 20
41.1933
 11
-201.266
 21
41.3656
  0
LINE
  8
0
 10
-201.266
 20
41.3656
 11
-201.418
 21
41.562
  0
LINE
  8
0
 10
-201.418
 20
41.562
 11
-201.539
 21
41.7784
  0
LINE
  8
0
 10
-201.539
 20
41.7784
 11
-201.628
 21
42.0102
  0
LINE
  8
0
 10
-201.628
 20
42.0102
 11
-201.682
 21
42.2525
  0
LINE
  8
0
 10
-201.682
 20
42.2525
 11
-201.7
 21
42.5
  0
LINE
  8
0
 10
-201.7
 20
42.5
 11
-201.682
 21
42.7475
  0
LINE
  8
0
 10
-201.682
 20
42.7475
 11
-201.628
 21
42.9898
  0
LINE
  8
0
 10
-201.628
 20
42.9898
 11
-201.539
 21
43.2216
  0
LINE
  8
0
 10
-201.539
 20
43.2216
 11
-201.418
 21
43.438
  0
LINE
  8
0
 10
-201.418
 20
43.438
 11
-201.266
 21
43.6344
  0
LINE
  8
0
 10
-201.266
 20
43.6344
 11
-201.087
 21
43.8067
  0
LINE
  8
0
 10
-201.087
 20
43.8067
 11
-200.886
 21
43.9511
  0
LINE
  8
0
 10
-200.886
 20
43.9511
 11
-200.665
 21
44.0646
  0
LINE
  8
0
 10
-200.665
 20
44.0646
 11
-200.43
 21
44.1447
  0
LINE
  8
0
 10
-200.43
 20
44.1447
 11
-200.186
 21
44.1898
  0
LINE
  8
0
 10
-200.186
 20
44.1898
 11
-199.938
 21
44.1989
  0
LINE
  8
0
 10
-199.938
 20
44.1989
 11
-199.691
 21
44.1717
  0
LINE
  8
0
 10
-199.691
 20
44.1717
 11
-199.451
 21
44.1089
  0
LINE
  8
0
 10
-199.451
 20
44.1089
 11
-199.223
 21
44.0119
  0
LINE
  8
0
 10
-199.223
 20
44.0119
 11
-199.011
 21
43.8826
  0
LINE
  8
0
 10
-199.011
 20
43.8826
 11
-198.82
 21
43.7238
  0
LINE
  8
0
 10
-198.82
 20
43.7238
 11
-198.654
 21
43.539
  0
LINE
  8
0
 10
-198.654
 20
43.539
 11
-198.518
 21
43.332
  0
LINE
  8
0
 10
-198.518
 20
43.332
 11
-198.412
 21
43.1073
  0
LINE
  8
0
 10
-198.412
 20
43.1073
 11
-198.341
 21
42.8696
  0
LINE
  8
0
 10
-198.341
 20
42.8696
 11
-198.305
 21
42.6241
  0
LINE
  8
0
 10
-198.305
 20
42.6241
 11
-198.305
 21
42.3759
  0
LINE
  8
0
 10
-198.305
 20
42.3759
 11
-198.341
 21
42.1304
  0
LINE
  8
0
 10
-198.341
 20
42.1304
 11
-198.412
 21
41.8927
  0
LINE
  8
0
 10
-198.412
 20
41.8927
 11
-198.518
 21
41.668
  0
LINE
  8
0
 10
-198.518
 20
41.668
 11
-198.654
 21
41.461
  0
LINE
  8
0
 10
-198.654
 20
41.461
 11
-198.82
 21
41.2762
  0
LINE
  8
0
 10
-198.82
 20
41.2762
 11
-199.011
 21
41.1174
  0
LINE
  8
0
 10
-199.011
 20
41.1174
 11
-199.223
 21
40.9881
  0
LINE
  8
0
 10
-199.223
 20
40.9881
 11
-199.451
 21
40.8911
  0
LINE
  8
0
 10
-199.451
 20
40.8911
 11
-199.691
 21
40.8283
  0
LINE
  8
0
 10
-199.691
 20
40.8283
 11
-199.938
 21
40.8011
  0
LINE
  8
0
 10
-199.938
 20
40.8011
 11
-200.186
 21
40.8102
  0
LINE
  8
0
 10
199.691
 20
40.8283
 11
199.451
 21
40.8911
  0
LINE
  8
0
 10
199.451
 20
40.8911
 11
199.223
 21
40.9881
  0
LINE
  8
0
 10
199.223
 20
40.9881
 11
199.011
 21
41.1174
  0
LINE
  8
0
 10
199.011
 20
41.1174
 11
198.82
 21
41.2762
  0
LINE
  8
0
 10
198.82
 20
41.2762
 11
198.654
 21
41.461
  0
LINE
  8
0
 10
198.654
 20
41.461
 11
198.518
 21
41.668
  0
LINE
  8
0
 10
198.518
 20
41.668
 11
198.412
 21
41.8927
  0
LINE
  8
0
 10
198.412
 20
41.8927
 11
198.341
 21
42.1304
  0
LINE
  8
0
 10
198.341
 20
42.1304
 11
198.305
 21
42.3759
  0
LINE
  8
0
 10
198.305
 20
42.3759
 11
198.305
 21
42.6241
  0
LINE
  8
0
 10
198.305
 20
42.6241
 11
198.341
 21
42.8696
  0
LINE
  8
0
 10
198.341
 20
42.8696
 11
198.412
 21
43.1073
  0
LINE
  8
0
 10
198.412
 20
43.1073
 11
198.518
 21
43.332
  0
LINE
  8
0
 10
198.518
 20
43.332
 11
198.654
 21
43.539
  0
LINE
  8
0
 10
198.654
 20
43.539
 11
198.82
 21
43.7238
  0
LINE
  8
0
 10
198.82
 20
43.7238
 11
199.011
 21
43.8826
  0
LINE
  8
0
 10
199.011
 20
43.8826
 11
199.223
 21
44.0119
  0
LINE
  8
0
 10
199.223
 20
44.0119
 11
199.451
 21
44.1089
  0
LINE
  8
0
 10
199.451
 20
44.1089
 11
199.691
 21
44.1717
  0
LINE
  8
0
 10
199.691
 20
44.1717
 11
199.938
 21
44.1989
  0
LINE
  8
0
 10
199.938
 20
44.1989
 11
200.186
 21
44.1898
  0
LINE
  8
0
 10
200.186
 20
44.1898
 11
200.43
 21
44.1447
  0
LINE
  8
0
 10
200.43
 20
44.1447
 11
200.665
 21
44.0646
  0
LINE
  8
0
 10
200.665
 20
44.0646
 11
200.886
 21
43.9511
  0
LINE
  8
0
 10
200.886
 20
43.9511
 11
201.087
 21
43.8067
  0
LINE
  8
0
 10
201.087
 20
43.8067
 11
201.266
 21
43.6344
  0
LINE
  8
0
 10
201.266
 20
43.6344
 11
201.418
 21
43.438
  0
LINE
  8
0
 10
201.418
 20
43.438
 11
201.539
 21
43.2216
  0
LINE
  8
0
 10
201.539
 20
43.2216
 11
201.628
 21
42.9898
  0
LINE
  8
0
 10
201.628
 20
42.9898
 11
201.682
 21
42.7475
  0
LINE
  8
0
 10
201.682
 20
42.7475
 11
201.7
 21
42.5
  0
LINE
  8
0
 10
201.7
 20
42.5
 11
201.682
 21
42.2525
  0
LINE
  8
0
 10
201.682
 20
42.2525
 11
201.628
 21
42.0102
  0
LINE
  8
0
 10
201.628
 20
42.0102
 11
201.539
 21
41.7784
  0
LINE
  8
0
 10
201.539
 20
41.7784
 11
201.418
 21
41.562
  0
LINE
  8
0
 10
201.418
 20
41.562
 11
201.266
 21
41.3656
  0
LINE
  8
0
 10
201.266
 20
41.3656
 11
201.087
 21
41.1933
  0
LINE
  8
0
 10
201.087
 20
41.1933
 11
200.886
 21
41.0489
  0
LINE
  8
0
 10
200.886
 20
41.0489
 11
200.665
 21
40.9354
  0
LINE
  8
0
 10
200.665
 20
40.9354
 11
200.43
 21
40.8553
  0
LINE
  8
0
 10
200.43
 20
40.8553
 11
200.186
 21
40.8102
  0
LINE
  8
0
 10
200.186
 20
40.8102
 11
199.938
 21
40.8011
  0
LINE
  8
0
 10
199.938
 20
40.8011
 11
199.691
 21
40.8283
  0
LINE
  8
0
 10
-200.186
 20
-59.1898
 11
-200.43
 21
-59.1447
  0
LINE
  8
0
 10
-200.43
 20
-59.1447
 11
-200.665
 21
-59.0646
  0
LINE
  8
0
 10
-200.665
 20
-59.0646
 11
-200.886
 21
-58.9511
  0
LINE
  8
0
 10
-200.886
 20
-58.9511
 11
-201.087
 21
-58.8067
  0
LINE
  8
0
 10
-201.087
 20
-58.8067
 11
-201.266
 21
-58.6344
  0
LINE
  8
0
 10
-201.266
 20
-58.6344
 11
-201.418
 21
-58.438
  0
LINE
  8
0
 10
-201.418
 20
-58.438
 11
-201.539
 21
-58.2216
  0
LINE
  8
0
 10
-201.539
 20
-58.2216
 11
-201.628
 21
-57.9898
  0
LINE
  8
0
 10
-201.628
 20
-57.9898
 11
-201.682
 21
-57.7475
  0
LINE
  8
0
 10
-201.682
 20
-57.7475
 11
-201.7
 21
-57.5
  0
LINE
  8
0
 10
-201.7
 20
-57.5
 11
-201.682
 21
-57.2525
  0
LINE
  8
0
 10
-201.682
 20
-57.2525
 11
-201.628
 21
-57.0102
  0
LINE
  8
0
 10
-201.628
 20
-57.0102
 11
-201.539
 21
-56.7784
  0
LINE
  8
0
 10
-201.539
 20
-56.7784
 11
-201.418
 21
-56.562
  0
LINE
  8
0
 10
-201.418
 20
-56.562
 11
-201.266
 21
-56.3656
  0
LINE
  8
0
 10
-201.266
 20
-56.3656
 11
-201.087
 21
-56.1933
  0
LINE
  8
0
 10
-201.087
 20
-56.1933
 11
-200.886
 21
-56.0489
  0
LINE
  8
0
 10
-200.886
 20
-56.0489
 11
-200.665
 21
-55.9354
  0
LINE
  8
0
 10
-200.665
 20
-55.9354
 11
-200.43
 21
-55.8553
  0
LINE
  8
0
 10
-200.43
 20
-55.8553
 11
-200.186
 21
-55.8102
  0
LINE
  8
0
 10
-200.186
 20
-55.8102
 11
-199.938
 21
-55.8011
  0
LINE
  8
0
 10
-199.938
 20
-55.8011
 11
-199.691
 21
-55.8283
  0
LINE
  8
0
 10
-199.691
 20
-55.8283
 11
-199.451
 21
-55.8911
  0
LINE
  8
0
 10
-199.451
 20
-55.8911
 11
-199.223
 21
-55.9881
  0
LINE
  8
0
 10
-199.223
 20
-55.9881
 11
-199.011
 21
-56.1174
  0
LINE
  8
0
 10
-199.011
 20
-56.1174
 11
-198.82
 21
-56.2762
  0
LINE
  8
0
 10
-198.82
 20
-56.2762
 11
-198.654
 21
-56.461
  0
LINE
  8
0
 10
-198.654
 20
-56.461
 11
-198.518
 21
-56.668
  0
LINE
  8
0
 10
-198.518
 20
-56.668
 11
-198.412
 21
-56.8927
  0
LINE
  8
0
 10
-198.412
 20
-56.8927
 11
-198.341
 21
-57.1304
  0
LINE
  8
0
 10
-198.341
 20
-57.1304
 11
-198.305
 21
-57.3759
  0
LINE
  8
0
 10
-198.305
 20
-57.3759
 11
-198.305
 21
-57.6241
  0
LINE
  8
0
 10
-198.305
 20
-57.6241
 11
-198.341
 21
-57.8696
  0
LINE
  8
0
 10
-198.341
 20
-57.8696
 11
-198.412
 21
-58.1073
  0
LINE
  8
0
 10
-198.412
 20
-58.1073
 11
-198.518
 21
-58.332
  0
LINE
  8
0
 10
-198.518
 20
-58.332
 11
-198.654
 21
-58.539
  0
LINE
  8
0
 10
-198.654
 20
-58.539
 11
-198.82
 21
-58.7238
  0
LINE
  8
0
 10
-198.82
 20
-58.7238
 11
-199.011
 21
-58.8826
  0
LINE
  8
0
 10
-199.011
 20
-58.8826
 11
-199.223
 21
-59.0119
  0
LINE
  8
0
 10
-199.223
 20
-59.0119
 11
-199.451
 21
-59.1089
  0
LINE
  8
0
 10
-199.451
 20
-59.1089
 11
-199.691
 21
-59.1717
  0
LINE
  8
0
 10
-199.691
 20
-59.1717
 11
-199.938
 21
-59.1989
  0
LINE
  8
0
 10
-199.938
 20
-59.1989
 11
-200.186
 21
-59.1898
  0
LINE
  8
0
 10
199.691
 20
-59.1717
 11
199.451
 21
-59.1089
  0
LINE
  8
0
 10
199.451
 20
-59.1089
 11
199.223
 21
-59.0119
  0
LINE
  8
0
 10
199.223
 20
-59.0119
 11
199.011
 21
-58.8826
  0
LINE
  8
0
 10
199.011
 20
-58.8826
 11
198.82
 21
-58.7238
  0
LINE
  8
0
 10
198.82
 20
-58.7238
 11
198.654
 21
-58.539
  0
LINE
  8
0
 10
198.654
 20
-58.539
 11
198.518
 21
-58.332
  0
LINE
  8
0
 10
198.518
 20
-58.332
 11
198.412
 21
-58.1073
  0
LINE
  8
0
 10
198.412
 20
-58.1073
 11
198.341
 21
-57.8696
  0
LINE
  8
0
 10
198.341
 20
-57.8696
 11
198.305
 21
-57.6241
  0
LINE
  8
0
 10
198.305
 20
-57.6241
 11
198.305
 21
-57.3759
  0
LINE
  8
0
 10
198.305
 20
-57.3759
 11
198.341
 21
-57.1304
  0
LINE
  8
0
 10
198.341
 20
-57.1304
 11
198.412
 21
-56.8927
  0
LINE
  8
0
 10
198.412
 20
-56.8927
 11
198.518
 21
-56.668
  0
LINE
  8
0
 10
198.518
 20
-56.668
 11
198.654
 21
-56.461
  0
LINE
  8
0
 10
198.654
 20
-56.461
 11
198.82
 21
-56.2762
  0
LINE
  8
0
 10
198.82
 20
-56.2762
 11
199.011
 21
-56.1174
  0
LINE
  8
0
 10
199.011
 20
-56.1174
 11
199.223
 21
-55.9881
  0
LINE
  8
0
 10
199.223
 20
-55.9881
 11
199.451
 21
-55.8911
  0
LINE
  8
0
 10
199.451
 20
-55.8911
 11
199.691
 21
-55.8283
  0
LINE
  8
0
 10
199.691
 20
-55.8283
 11
199.938
 21
-55.8011
  0
LINE
  8
0
 10
199.938
 20
-55.8011
 11
200.186
 21
-55.8102
  0
LINE
  8
0
 10
200.186
 20
-55.8102
 11
200.43
 21
-55.8553
  0
LINE
  8
0
 10
200.43
 20
-55.8553
 11
200.665
 21
-55.9354
  0
LINE
  8
0
 10
200.665
 20
-55.9354
 11
200.886
 21
-56.0489
  0
LINE
  8
0
 10
200.886
 20
-56.0489
 11
201.087
 21
-56.1933
  0
LINE
  8
0
 10
201.087
 20
-56.1933
 11
201.266
 21
-56.3656
  0
LINE
  8
0
 10
201.266
 20
-56.3656
 11
201.418
 21
-56.562
  0
LINE
  8
0
 10
201.418
 20
-56.562
 11
201.539
 21
-56.7784
  0
LINE
  8
0
 10
201.539
 20
-56.7784
 11
201.628
 21
-57.0102
  0
LINE
  8
0
 10
201.628
 20
-57.0102
 11
201.682
 21
-57.2525
  0
LINE
  8
0
 10
201.682
 20
-57.2525
 11
201.7
 21
-57.5
  0
LINE
  8
0
 10
201.7
 20
-57.5
 11
201.682
 21
-57.7475
  0
LINE
  8
0
 10
201.682
 20
-57.7475
 11
201.628
 21
-57.9898
  0
LINE
  8
0
 10
201.628
 20
-57.9898
 11
201.539
 21
-58.2216
  0
LINE
  8
0
 10
201.539
 20
-58.2216
 11
201.418
 21
-58.438
  0
LINE
  8
0
 10
201.418
 20
-58.438
 11
201.266
 21
-58.6344
  0
LINE
  8
0
 10
201.266
 20
-58.6344
 11
201.087
 21
-58.8067
  0
LINE
  8
0
 10
201.087
 20
-58.8067
 11
200.886
 21
-58.9511
  0
LINE
  8
0
 10
200.886
 20
-58.9511
 11
200.665
 21
-59.0646
  0
LINE
  8
0
 10
200.665
 20
-59.0646
 11
200.43
 21
-59.1447
  0
LINE
  8
0
 10
200.43
 20
-59.1447
 11
200.186
 21
-59.1898
  0
LINE
  8
0
 10
200.186
 20
-59.1898
 11
199.938
 21
-59.1989
  0
LINE
  8
0
 10
199.938
 20
-59.1989
 11
199.691
 21
-59.1717
  0
LINE
  8
0
 10
-200.392
 20
-103.729
 11
-200.78
 21
-103.668
  0
LINE
  8
0
 10
-200.78
 20
-103.668
 11
-201.159
 21
-103.566
  0
LINE
  8
0
 10
-201.159
 20
-103.566
 11
-201.525
 21
-103.426
  0
LINE
  8
0
 10
-201.525
 20
-103.426
 11
-201.875
 21
-103.248
  0
LINE
  8
0
 10
-201.875
 20
-103.248
 11
-202.204
 21
-103.034
  0
LINE
  8
0
 10
-202.204
 20
-103.034
 11
-202.509
 21
-102.787
  0
LINE
  8
0
 10
-202.509
 20
-102.787
 11
-202.787
 21
-102.509
  0
LINE
  8
0
 10
-202.787
 20
-102.509
 11
-203.034
 21
-102.204
  0
LINE
  8
0
 10
-203.034
 20
-102.204
 11
-203.248
 21
-101.875
  0
LINE
  8
0
 10
-203.248
 20
-101.875
 11
-203.426
 21
-101.525
  0
LINE
  8
0
 10
-203.426
 20
-101.525
 11
-203.566
 21
-101.159
  0
LINE
  8
0
 10
-203.566
 20
-101.159
 11
-203.668
 21
-100.78
  0
LINE
  8
0
 10
-203.668
 20
-100.78
 11
-203.729
 21
-100.392
  0
LINE
  8
0
 10
-203.729
 20
-100.392
 11
-203.75
 21
-100
  0
LINE
  8
0
 10
-203.75
 20
-100
 11
-203.729
 21
-99.608
  0
LINE
  8
0
 10
-203.729
 20
-99.608
 11
-203.668
 21
-99.2203
  0
LINE
  8
0
 10
-203.668
 20
-99.2203
 11
-203.566
 21
-98.8412
  0
LINE
  8
0
 10
-203.566
 20
-98.8412
 11
-203.426
 21
-98.4747
  0
LINE
  8
0
 10
-203.426
 20
-98.4747
 11
-203.248
 21
-98.125
  0
LINE
  8
0
 10
-203.248
 20
-98.125
 11
-203.034
 21
-97.7958
  0
LINE
  8
0
 10
-203.034
 20
-97.7958
 11
-202.787
 21
-97.4908
  0
LINE
  8
0
 10
-202.787
 20
-97.4908
 11
-202.509
 21
-97.2132
  0
LINE
  8
0
 10
-202.509
 20
-97.2132
 11
-202.204
 21
-96.9662
  0
LINE
  8
0
 10
-202.204
 20
-96.9662
 11
-201.875
 21
-96.7524
  0
LINE
  8
0
 10
-201.875
 20
-96.7524
 11
-201.525
 21
-96.5742
  0
LINE
  8
0
 10
-201.525
 20
-96.5742
 11
-201.159
 21
-96.4335
  0
LINE
  8
0
 10
-201.159
 20
-96.4335
 11
-200.78
 21
-96.3319
  0
LINE
  8
0
 10
-200.78
 20
-96.3319
 11
-200.392
 21
-96.2705
  0
LINE
  8
0
 10
-200.392
 20
-96.2705
 11
-200
 21
-96.25
  0
LINE
  8
0
 10
-200
 20
-96.25
 11
-199.608
 21
-96.2705
  0
LINE
  8
0
 10
-199.608
 20
-96.2705
 11
-199.22
 21
-96.3319
  0
LINE
  8
0
 10
-199.22
 20
-96.3319
 11
-198.841
 21
-96.4335
  0
LINE
  8
0
 10
-198.841
 20
-96.4335
 11
-198.475
 21
-96.5742
  0
LINE
  8
0
 10
-198.475
 20
-96.5742
 11
-198.125
 21
-96.7524
  0
LINE
  8
0
 10
-198.125
 20
-96.7524
 11
-197.796
 21
-96.9662
  0
LINE
  8
0
 10
-197.796
 20
-96.9662
 11
-197.491
 21
-97.2132
  0
LINE
  8
0
 10
-197.491
 20
-97.2132
 11
-197.213
 21
-97.4908
  0
LINE
  8
0
 10
-197.213
 20
-97.4908
 11
-196.966
 21
-97.7958
  0
LINE
  8
0
 10
-196.966
 20
-97.7958
 11
-196.752
 21
-98.125
  0
LINE
  8
0
 10
-196.752
 20
-98.125
 11
-196.574
 21
-98.4747
  0
LINE
  8
0
 10
-196.574
 20
-98.4747
 11
-196.434
 21
-98.8412
  0
LINE
  8
0
 10
-196.434
 20
-98.8412
 11
-196.332
 21
-99.2203
  0
LINE
  8
0
 10
-196.332
 20
-99.2203
 11
-196.271
 21
-99.608
  0
LINE
  8
0
 10
-196.271
 20
-99.608
 11
-196.25
 21
-100
  0
LINE
  8
0
 10
-196.25
 20
-100
 11
-196.271
 21
-100.392
  0
LINE
  8
0
 10
-196.271
 20
-100.392
 11
-196.332
 21
-100.78
  0
LINE
  8
0
 10
-196.332
 20
-100.78
 11
-196.434
 21
-101.159
  0
LINE
  8
0
 10
-196.434
 20
-101.159
 11
-196.574
 21
-101.525
  0
LINE
  8
0
 10
-196.574
 20
-101.525
 11
-196.752
 21
-101.875
  0
LINE
  8
0
 10
-196.752
 20
-101.875
 11
-196.966
 21
-102.204
  0
LINE
  8
0
 10
-196.966
 20
-102.204
 11
-197.213
 21
-102.509
  0
LINE
  8
0
 10
-197.213
 20
-102.509
 11
-197.491
 21
-102.787
  0
LINE
  8
0
 10
-197.491
 20
-102.787
 11
-197.796
 21
-103.034
  0
LINE
  8
0
 10
-197.796
 20
-103.034
 11
-198.125
 21
-103.248
  0
LINE
  8
0
 10
-198.125
 20
-103.248
 11
-198.475
 21
-103.426
  0
LINE
  8
0
 10
-198.475
 20
-103.426
 11
-198.841
 21
-103.566
  0
LINE
  8
0
 10
-198.841
 20
-103.566
 11
-199.22
 21
-103.668
  0
LINE
  8
0
 10
-199.22
 20
-103.668
 11
-199.608
 21
-103.729
  0
LINE
  8
0
 10
-199.608
 20
-103.729
 11
-200
 21
-103.75
  0
LINE
  8
0
 10
-200
 20
-103.75
 11
-200.392
 21
-103.729
  0
LINE
  8
0
 10
199.608
 20
-103.729
 11
199.22
 21
-103.668
  0
LINE
  8
0
 10
199.22
 20
-103.668
 11
198.841
 21
-103.566
  0
LINE
  8
0
 10
198.841
 20
-103.566
 11
198.475
 21
-103.426
  0
LINE
  8
0
 10
198.475
 20
-103.426
 11
198.125
 21
-103.248
  0
LINE
  8
0
 10
198.125
 20
-103.248
 11
197.796
 21
-103.034
  0
LINE
  8
0
 10
197.796
 20
-103.034
 11
197.491
 21
-102.787
  0
LINE
  8
0
 10
197.491
 20
-102.787
 11
197.213
 21
-102.509
  0
LINE
  8
0
 10
197.213
 20
-102.509
 11
196.966
 21
-102.204
  0
LINE
  8
0
 10
196.966
 20
-102.204
 11
196.752
 21
-101.875
  0
LINE
  8
0
 10
196.752
 20
-101.875
 11
196.574
 21
-101.525
  0
LINE
  8
0
 10
196.574
 20
-101.525
 11
196.434
 21
-101.159
  0
LINE
  8
0
 10
196.434
 20
-101.159
 11
196.332
 21
-100.78
  0
LINE
  8
0
 10
196.332
 20
-100.78
 11
196.271
 21
-100.392
  0
LINE
  8
0
 10
196.271
 20
-100.392
 11
196.25
 21
-100
  0
LINE
  8
0
 10
196.25
 20
-100
 11
196.271
 21
-99.608
  0
LINE
  8
0
 10
196.271
 20
-99.608
 11
196.332
 21
-99.2203
  0
LINE
  8
0
 10
196.332
 20
-99.2203
 11
196.434
 21
-98.8412
  0
LINE
  8
0
 10
196.434
 20
-98.8412
 11
196.574
 21
-98.4747
  0
LINE
  8
0
 10
196.574
 20
-98.4747
 11
196.752
 21
-98.125
  0
LINE
  8
0
 10
196.752
 20
-98.125
 11
196.966
 21
-97.7958
  0
LINE
  8
0
 10
196.966
 20
-97.7958
 11
197.213
 21
-97.4908
  0
LINE
  8
0
 10
197.213
 20
-97.4908
 11
197.491
 21
-97.2132
  0
LINE
  8
0
 10
197.491
 20
-97.2132
 11
197.796
 21
-96.9662
  0
LINE
  8
0
 10
197.796
 20
-96.9662
 11
198.125
 21
-96.7524
  0
LINE
  8
0
 10
198.125
 20
-96.7524
 11
198.475
 21
-96.5742
  0
LINE
  8
0
 10
198.475
 20
-96.5742
 11
198.841
 21
-96.4335
  0
LINE
  8
0
 10
198.841
 20
-96.4335
 11
199.22
 21
-96.3319
  0
LINE
  8
0
 10
199.22
 20
-96.3319
 11
199.608
 21
-96.2705
  0
LINE
  8
0
 10
199.608
 20
-96.2705
 11
200
 21
-96.25
  0
LINE
  8
0
 10
200
 20
-96.25
 11
200.392
 21
-96.2705
  0
LINE
  8
0
 10
200.392
 20
-96.2705
 11
200.78
 21
-96.3319
  0
LINE
  8
0
 10
200.78
 20
-96.3319
 11
201.159
 21
-96.4335
  0
LINE
  8
0
 10
201.159
 20
-96.4335
 11
201.525
 21
-96.5742
  0
LINE
  8
0
 10
201.525
 20
-96.5742
 11
201.875
 21
-96.7524
  0
LINE
  8
0
 10
201.875
 20
-96.7524
 11
202.204
 21
-96.9662
  0
LINE
  8
0
 10
202.204
 20
-96.9662
 11
202.509
 21
-97.2132
  0
LINE
  8
0
 10
202.509
 20
-97.2132
 11
202.787
 21
-97.4908
  0
LINE
  8
0
 10
202.787
 20
-97.4908
 11
203.034
 21
-97.7958
  0
LINE
  8
0
 10
203.034
 20
-97.7958
 11
203.248
 21
-98.125
  0
LINE
  8
0
 10
203.248
 20
-98.125
 11
203.426
 21
-98.4747
  0
LINE
  8
0
 10
203.426
 20
-98.4747
 11
203.566
 21
-98.8412
  0
LINE
  8
0
 10
203.566
 20
-98.8412
 11
203.668
 21
-99.2203
  0
LINE
  8
0
 10
203.668
 20
-99.2203
 11
203.729
 21
-99.608
  0
LINE
  8
0
 10
203.729
 20
-99.608
 11
203.75
 21
-100
  0
LINE
  8
0
 10
203.75
 20
-100
 11
203.729
 21
-100.392
  0
LINE
  8
0
 10
203.729
 20
-100.392
 11
203.668
 21
-100.78
  0
LINE
  8
0
 10
203.668
 20
-100.78
 11
203.566
 21
-101.159
  0
LINE
  8
0
 10
203.566
 20
-101.159
 11
203.426
 21
-101.525
  0
LINE
  8
0
 10
203.426
 20
-101.525
 11
203.248
 21
-101.875
  0
LINE
  8
0
 10
203.248
 20
-101.875
 11
203.034
 21
-102.204
  0
LINE
  8
0
 10
203.034
 20
-102.204
 11
202.787
 21
-102.509
  0
LINE
  8
0
 10
202.787
 20
-102.509
 11
202.509
 21
-102.787
  0
LINE
  8
0
 10
202.509
 20
-102.787
 11
202.204
 21
-103.034
  0
LINE
  8
0
 10
202.204
 20
-103.034
 11
201.875
 21
-103.248
  0
LINE
  8
0
 10
201.875
 20
-103.248
 11
201.525
 21
-103.426
  0
LINE
  8
0
 10
201.525
 20
-103.426
 11
201.159
 21
-103.566
  0
LINE
  8
0
 10
201.159
 20
-103.566
 11
200.78
 21
-103.668
  0
LINE
  8
0
 10
200.78
 20
-103.668
 11
200.392
 21
-103.729
  0
LINE
  8
0
 10
200.392
 20
-103.729
 11
200
 21
-103.75
  0
LINE
  8
0
 10
200
 20
-103.75
 11
199.608
 21
-103.729
  0
LINE
  8
0
 10
78.4412
 20
-101.672
 11
78.2011
 21
-101.609
  0
LINE
  8
0
 10
78.2011
 20
-101.609
 11
77.9727
 21
-101.512
  0
LINE
  8
0
 10
77.9727
 20
-101.512
 11
77.7608
 21
-101.383
  0
LINE
  8
0
 10
77.7608
 20
-101.383
 11
77.5701
 21
-101.224
  0
LINE
  8
0
 10
77.5701
 20
-101.224
 11
77.4044
 21
-101.039
  0
LINE
  8
0
 10
77.4044
 20
-101.039
 11
77.2675
 21
-100.832
  0
LINE
  8
0
 10
77.2675
 20
-100.832
 11
77.1622
 21
-100.607
  0
LINE
  8
0
 10
77.1622
 20
-100.607
 11
77.0907
 21
-100.37
  0
LINE
  8
0
 10
77.0907
 20
-100.37
 11
77.0545
 21
-100.124
  0
LINE
  8
0
 10
77.0545
 20
-100.124
 11
77.0545
 21
-99.8759
  0
LINE
  8
0
 10
77.0545
 20
-99.8759
 11
77.0907
 21
-99.6304
  0
LINE
  8
0
 10
77.0907
 20
-99.6304
 11
77.1622
 21
-99.3927
  0
LINE
  8
0
 10
77.1622
 20
-99.3927
 11
77.2675
 21
-99.168
  0
LINE
  8
0
 10
77.2675
 20
-99.168
 11
77.4044
 21
-98.961
  0
LINE
  8
0
 10
77.4044
 20
-98.961
 11
77.5701
 21
-98.7762
  0
LINE
  8
0
 10
77.5701
 20
-98.7762
 11
77.7608
 21
-98.6174
  0
LINE
  8
0
 10
77.7608
 20
-98.6174
 11
77.9727
 21
-98.4881
  0
LINE
  8
0
 10
77.9727
 20
-98.4881
 11
78.2011
 21
-98.3911
  0
LINE
  8
0
 10
78.2011
 20
-98.3911
 11
78.4412
 21
-98.3283
  0
LINE
  8
0
 10
78.4412
 20
-98.3283
 11
78.6879
 21
-98.3011
  0
LINE
  8
0
 10
78.6879
 20
-98.3011
 11
78.9359
 21
-98.3102
  0
LINE
  8
0
 10
78.9359
 20
-98.3102
 11
79.18
 21
-98.3553
  0
LINE
  8
0
 10
79.18
 20
-98.3553
 11
79.4149
 21
-98.4354
  0
LINE
  8
0
 10
79.4149
 20
-98.4354
 11
79.6356
 21
-98.5489
  0
LINE
  8
0
 10
79.6356
 20
-98.5489
 11
79.8374
 21
-98.6933
  0
LINE
  8
0
 10
79.8374
 20
-98.6933
 11
80.0161
 21
-98.8656
  0
LINE
  8
0
 10
80.0161
 20
-98.8656
 11
80.1678
 21
-99.062
  0
LINE
  8
0
 10
80.1678
 20
-99.062
 11
80.2893
 21
-99.2784
  0
LINE
  8
0
 10
80.2893
 20
-99.2784
 11
80.3779
 21
-99.5102
  0
LINE
  8
0
 10
80.3779
 20
-99.5102
 11
80.4319
 21
-99.7525
  0
LINE
  8
0
 10
80.4319
 20
-99.7525
 11
80.45
 21
-100
  0
LINE
  8
0
 10
80.45
 20
-100
 11
80.4319
 21
-100.248
  0
LINE
  8
0
 10
80.4319
 20
-100.248
 11
80.3779
 21
-100.49
  0
LINE
  8
0
 10
80.3779
 20
-100.49
 11
80.2893
 21
-100.722
  0
LINE
  8
0
 10
80.2893
 20
-100.722
 11
80.1678
 21
-100.938
  0
LINE
  8
0
 10
80.1678
 20
-100.938
 11
80.0161
 21
-101.134
  0
LINE
  8
0
 10
80.0161
 20
-101.134
 11
79.8374
 21
-101.307
  0
LINE
  8
0
 10
79.8374
 20
-101.307
 11
79.6356
 21
-101.451
  0
LINE
  8
0
 10
79.6356
 20
-101.451
 11
79.4149
 21
-101.565
  0
LINE
  8
0
 10
79.4149
 20
-101.565
 11
79.18
 21
-101.645
  0
LINE
  8
0
 10
79.18
 20
-101.645
 11
78.9359
 21
-101.69
  0
LINE
  8
0
 10
78.9359
 20
-101.69
 11
78.6879
 21
-101.699
  0
LINE
  8
0
 10
78.6879
 20
-101.699
 11
78.4412
 21
-101.672
  0
LINE
  8
0
 10
-157.809
 20
-101.672
 11
-158.049
 21
-101.609
  0
LINE
  8
0
 10
-158.049
 20
-101.609
 11
-158.277
 21
-101.512
  0
LINE
  8
0
 10
-158.277
 20
-101.512
 11
-158.489
 21
-101.383
  0
LINE
  8
0
 10
-158.489
 20
-101.383
 11
-158.68
 21
-101.224
  0
LINE
  8
0
 10
-158.68
 20
-101.224
 11
-158.846
 21
-101.039
  0
LINE
  8
0
 10
-158.846
 20
-101.039
 11
-158.982
 21
-100.832
  0
LINE
  8
0
 10
-158.982
 20
-100.832
 11
-159.088
 21
-100.607
  0
LINE
  8
0
 10
-159.088
 20
-100.607
 11
-159.159
 21
-100.37
  0
LINE
  8
0
 10
-159.159
 20
-100.37
 11
-159.195
 21
-100.124
  0
LINE
  8
0
 10
-159.195
 20
-100.124
 11
-159.195
 21
-99.8759
  0
LINE
  8
0
 10
-159.195
 20
-99.8759
 11
-159.159
 21
-99.6304
  0
LINE
  8
0
 10
-159.159
 20
-99.6304
 11
-159.088
 21
-99.3927
  0
LINE
  8
0
 10
-159.088
 20
-99.3927
 11
-158.982
 21
-99.168
  0
LINE
  8
0
 10
-158.982
 20
-99.168
 11
-158.846
 21
-98.961
  0
LINE
  8
0
 10
-158.846
 20
-98.961
 11
-158.68
 21
-98.7762
  0
LINE
  8
0
 10
-158.68
 20
-98.7762
 11
-158.489
 21
-98.6174
  0
LINE
  8
0
 10
-158.489
 20
-98.6174
 11
-158.277
 21
-98.4881
  0
LINE
  8
0
 10
-158.277
 20
-98.4881
 11
-158.049
 21
-98.3911
  0
LINE
  8
0
 10
-158.049
 20
-98.3911
 11
-157.809
 21
-98.3283
  0
LINE
  8
0
 10
-157.809
 20
-98.3283
 11
-157.562
 21
-98.3011
  0
LINE
  8
0
 10
-157.562
 20
-98.3011
 11
-157.314
 21
-98.3102
  0
LINE
  8
0
 10
-157.314
 20
-98.3102
 11
-157.07
 21
-98.3553
  0
LINE
  8
0
 10
-157.07
 20
-98.3553
 11
-156.835
 21
-98.4354
  0
LINE
  8
0
 10
-156.835
 20
-98.4354
 11
-156.614
 21
-98.5489
  0
LINE
  8
0
 10
-156.614
 20
-98.5489
 11
-156.413
 21
-98.6933
  0
LINE
  8
0
 10
-156.413
 20
-98.6933
 11
-156.234
 21
-98.8656
  0
LINE
  8
0
 10
-156.234
 20
-98.8656
 11
-156.082
 21
-99.062
  0
LINE
  8
0
 10
-156.082
 20
-99.062
 11
-155.961
 21
-99.2784
  0
LINE
  8
0
 10
-155.961
 20
-99.2784
 11
-155.872
 21
-99.5102
  0
LINE
  8
0
 10
-155.872
 20
-99.5102
 11
-155.818
 21
-99.7525
  0
LINE
  8
0
 10
-155.818
 20
-99.7525
 11
-155.8
 21
-100
  0
LINE
  8
0
 10
-155.8
 20
-100
 11
-155.818
 21
-100.248
  0
LINE
  8
0
 10
-155.818
 20
-100.248
 11
-155.872
 21
-100.49
  0
LINE
  8
0
 10
-155.872
 20
-100.49
 11
-155.961
 21
-100.722
  0
LINE
  8
0
 10
-155.961
 20
-100.722
 11
-156.082
 21
-100.938
  0
LINE
  8
0
 10
-156.082
 20
-100.938
 11
-156.234
 21
-101.134
  0
LINE
  8
0
 10
-156.234
 20
-101.134
 11
-156.413
 21
-101.307
  0
LINE
  8
0
 10
-156.413
 20
-101.307
 11
-156.614
 21
-101.451
  0
LINE
  8
0
 10
-156.614
 20
-101.451
 11
-156.835
 21
-101.565
  0
LINE
  8
0
 10
-156.835
 20
-101.565
 11
-157.07
 21
-101.645
  0
LINE
  8
0
 10
-157.07
 20
-101.645
 11
-157.314
 21
-101.69
  0
LINE
  8
0
 10
-157.314
 20
-101.69
 11
-157.562
 21
-101.699
  0
LINE
  8
0
 10
-157.562
 20
-101.699
 11
-157.809
 21
-101.672
  0
LINE
  8
0
 10
157.191
 20
-101.672
 11
156.951
 21
-101.609
  0
LINE
  8
0
 10
156.951
 20
-101.609
 11
156.723
 21
-101.512
  0
LINE
  8
0
 10
156.723
 20
-101.512
 11
156.511
 21
-101.383
  0
LINE
  8
0
 10
156.511
 20
-101.383
 11
156.32
 21
-101.224
  0
LINE
  8
0
 10
156.32
 20
-101.224
 11
156.154
 21
-101.039
  0
LINE
  8
0
 10
156.154
 20
-101.039
 11
156.018
 21
-100.832
  0
LINE
  8
0
 10
156.018
 20
-100.832
 11
155.912
 21
-100.607
  0
LINE
  8
0
 10
155.912
 20
-100.607
 11
155.841
 21
-100.37
  0
LINE
  8
0
 10
155.841
 20
-100.37
 11
155.805
 21
-100.124
  0
LINE
  8
0
 10
155.805
 20
-100.124
 11
155.805
 21
-99.8759
  0
LINE
  8
0
 10
155.805
 20
-99.8759
 11
155.841
 21
-99.6304
  0
LINE
  8
0
 10
155.841
 20
-99.6304
 11
155.912
 21
-99.3927
  0
LINE
  8
0
 10
155.912
 20
-99.3927
 11
156.018
 21
-99.168
  0
LINE
  8
0
 10
156.018
 20
-99.168
 11
156.154
 21
-98.961
  0
LINE
  8
0
 10
156.154
 20
-98.961
 11
156.32
 21
-98.7762
  0
LINE
  8
0
 10
156.32
 20
-98.7762
 11
156.511
 21
-98.6174
  0
LINE
  8
0
 10
156.511
 20
-98.6174
 11
156.723
 21
-98.4881
  0
LINE
  8
0
 10
156.723
 20
-98.4881
 11
156.951
 21
-98.3911
  0
LINE
  8
0
 10
156.951
 20
-98.3911
 11
157.191
 21
-98.3283
  0
LINE
  8
0
 10
157.191
 20
-98.3283
 11
157.438
 21
-98.3011
  0
LINE
  8
0
 10
157.438
 20
-98.3011
 11
157.686
 21
-98.3102
  0
LINE
  8
0
 10
157.686
 20
-98.3102
 11
157.93
 21
-98.3553
  0
LINE
  8
0
 10
157.93
 20
-98.3553
 11
158.165
 21
-98.4354
  0
LINE
  8
0
 10
158.165
 20
-98.4354
 11
158.386
 21
-98.5489
  0
LINE
  8
0
 10
158.386
 20
-98.5489
 11
158.587
 21
-98.6933
  0
LINE
  8
0
 10
158.587
 20
-98.6933
 11
158.766
 21
-98.8656
  0
LINE
  8
0
 10
158.766
 20
-98.8656
 11
158.918
 21
-99.062
  0
LINE
  8
0
 10
158.918
 20
-99.062
 11
159.039
 21
-99.2784
  0
LINE
  8
0
 10
159.039
 20
-99.2784
 11
159.128
 21
-99.5102
  0
LINE
  8
0
 10
159.128
 20
-99.5102
 11
159.182
 21
-99.7525
  0
LINE
  8
0
 10
159.182
 20
-99.7525
 11
159.2
 21
-100
  0
LINE
  8
0
 10
159.2
 20
-100
 11
159.182
 21
-100.248
  0
LINE
  8
0
 10
159.182
 20
-100.248
 11
159.128
 21
-100.49
  0
LINE
  8
0
 10
159.128
 20
-100.49
 11
159.039
 21
-100.722
  0
LINE
  8
0
 10
159.039
 20
-100.722
 11
158.918
 21
-100.938
  0
LINE
  8
0
 10
158.918
 20
-100.938
 11
158.766
 21
-101.134
  0
LINE
  8
0
 10
158.766
 20
-101.134
 11
158.587
 21
-101.307
  0
LINE
  8
0
 10
158.587
 20
-101.307
 11
158.386
 21
-101.451
  0
LINE
  8
0
 10
158.386
 20
-101.451
 11
158.165
 21
-101.565
  0
LINE
  8
0
 10
158.165
 20
-101.565
 11
157.93
 21
-101.645
  0
LINE
  8
0
 10
157.93
 20
-101.645
 11
157.686
 21
-101.69
  0
LINE
  8
0
 10
157.686
 20
-101.69
 11
157.438
 21
-101.699
  0
LINE
  8
0
 10
157.438
 20
-101.699
 11
157.191
 21
-101.672
  0
LINE
  8
0
 10
-79.0588
 20
-101.672
 11
-79.2989
 21
-101.609
  0
LINE
  8
0
 10
-79.2989
 20
-101.609
 11
-79.5273
 21
-101.512
  0
LINE
  8
0
 10
-79.5273
 20
-101.512
 11
-79.7392
 21
-101.383
  0
LINE
  8
0
 10
-79.7392
 20
-101.383
 11
-79.9299
 21
-101.224
  0
LINE
  8
0
 10
-79.9299
 20
-101.224
 11
-80.0955
 21
-101.039
  0
LINE
  8
0
 10
-80.0955
 20
-101.039
 11
-80.2325
 21
-100.832
  0
LINE
  8
0
 10
-80.2325
 20
-100.832
 11
-80.3378
 21
-100.607
  0
LINE
  8
0
 10
-80.3378
 20
-100.607
 11
-80.4093
 21
-100.37
  0
LINE
  8
0
 10
-80.4093
 20
-100.37
 11
-80.4455
 21
-100.124
  0
LINE
  8
0
 10
-80.4455
 20
-100.124
 11
-80.4455
 21
-99.8759
  0
LINE
  8
0
 10
-80.4455
 20
-99.8759
 11
-80.4093
 21
-99.6304
  0
LINE
  8
0
 10
-80.4093
 20
-99.6304
 11
-80.3378
 21
-99.3927
  0
LINE
  8
0
 10
-80.3378
 20
-99.3927
 11
-80.2325
 21
-99.168
  0
LINE
  8
0
 10
-80.2325
 20
-99.168
 11
-80.0955
 21
-98.961
  0
LINE
  8
0
 10
-80.0955
 20
-98.961
 11
-79.9299
 21
-98.7762
  0
LINE
  8
0
 10
-79.9299
 20
-98.7762
 11
-79.7392
 21
-98.6174
  0
LINE
  8
0
 10
-79.7392
 20
-98.6174
 11
-79.5273
 21
-98.4881
  0
LINE
  8
0
 10
-79.5273
 20
-98.4881
 11
-79.2989
 21
-98.3911
  0
LINE
  8
0
 10
-79.2989
 20
-98.3911
 11
-79.0588
 21
-98.3283
  0
LINE
  8
0
 10
-79.0588
 20
-98.3283
 11
-78.8121
 21
-98.3011
  0
LINE
  8
0
 10
-78.8121
 20
-98.3011
 11
-78.5641
 21
-98.3102
  0
LINE
  8
0
 10
-78.5641
 20
-98.3102
 11
-78.32
 21
-98.3553
  0
LINE
  8
0
 10
-78.32
 20
-98.3553
 11
-78.0851
 21
-98.4354
  0
LINE
  8
0
 10
-78.0851
 20
-98.4354
 11
-77.8644
 21
-98.5489
  0
LINE
  8
0
 10
-77.8644
 20
-98.5489
 11
-77.6626
 21
-98.6933
  0
LINE
  8
0
 10
-77.6626
 20
-98.6933
 11
-77.4839
 21
-98.8656
  0
LINE
  8
0
 10
-77.4839
 20
-98.8656
 11
-77.3322
 21
-99.062
  0
LINE
  8
0
 10
-77.3322
 20
-99.062
 11
-77.2107
 21
-99.2784
  0
LINE
  8
0
 10
-77.2107
 20
-99.2784
 11
-77.1221
 21
-99.5102
  0
LINE
  8
0
 10
-77.1221
 20
-99.5102
 11
-77.0681
 21
-99.7525
  0
LINE
  8
0
 10
-77.0681
 20
-99.7525
 11
-77.05
 21
-100
  0
LINE
  8
0
 10
-77.05
 20
-100
 11
-77.0681
 21
-100.248
  0
LINE
  8
0
 10
-77.0681
 20
-100.248
 11
-77.1221
 21
-100.49
  0
LINE
  8
0
 10
-77.1221
 20
-100.49
 11
-77.2107
 21
-100.722
  0
LINE
  8
0
 10
-77.2107
 20
-100.722
 11
-77.3322
 21
-100.938
  0
LINE
  8
0
 10
-77.3322
 20
-100.938
 11
-77.4839
 21
-101.134
  0
LINE
  8
0
 10
-77.4839
 20
-101.134
 11
-77.6626
 21
-101.307
  0
LINE
  8
0
 10
-77.6626
 20
-101.307
 11
-77.8644
 21
-101.451
  0
LINE
  8
0
 10
-77.8644
 20
-101.451
 11
-78.0851
 21
-101.565
  0
LINE
  8
0
 10
-78.0851
 20
-101.565
 11
-78.32
 21
-101.645
  0
LINE
  8
0
 10
-78.32
 20
-101.645
 11
-78.5641
 21
-101.69
  0
LINE
  8
0
 10
-78.5641
 20
-101.69
 11
-78.8121
 21
-101.699
  0
LINE
  8
0
 10
-78.8121
 20
-101.699
 11
-79.0588
 21
-101.672
  0
LINE
  8
0
 10
-0.308777
 20
-101.672
 11
-0.548889
 21
-101.609
  0
LINE
  8
0
 10
-0.548889
 20
-101.609
 11
-0.777298
 21
-101.512
  0
LINE
  8
0
 10
-0.777298
 20
-101.512
 11
-0.989151
 21
-101.383
  0
LINE
  8
0
 10
-0.989151
 20
-101.383
 11
-1.17992
 21
-101.224
  0
LINE
  8
0
 10
-1.17992
 20
-101.224
 11
-1.34554
 21
-101.039
  0
LINE
  8
0
 10
-1.34554
 20
-101.039
 11
-1.48248
 21
-100.832
  0
LINE
  8
0
 10
-1.48248
 20
-100.832
 11
-1.58781
 21
-100.607
  0
LINE
  8
0
 10
-1.58781
 20
-100.607
 11
-1.65932
 21
-100.37
  0
LINE
  8
0
 10
-1.65932
 20
-100.37
 11
-1.69545
 21
-100.124
  0
LINE
  8
0
 10
-1.69545
 20
-100.124
 11
-1.69545
 21
-99.8759
  0
LINE
  8
0
 10
-1.69545
 20
-99.8759
 11
-1.65932
 21
-99.6304
  0
LINE
  8
0
 10
-1.65932
 20
-99.6304
 11
-1.58781
 21
-99.3927
  0
LINE
  8
0
 10
-1.58781
 20
-99.3927
 11
-1.48248
 21
-99.168
  0
LINE
  8
0
 10
-1.48248
 20
-99.168
 11
-1.34554
 21
-98.961
  0
LINE
  8
0
 10
-1.34554
 20
-98.961
 11
-1.17992
 21
-98.7762
  0
LINE
  8
0
 10
-1.17992
 20
-98.7762
 11
-0.989151
 21
-98.6174
  0
LINE
  8
0
 10
-0.989151
 20
-98.6174
 11
-0.777298
 21
-98.4881
  0
LINE
  8
0
 10
-0.777298
 20
-98.4881
 11
-0.548889
 21
-98.3911
  0
LINE
  8
0
 10
-0.548889
 20
-98.3911
 11
-0.308777
 21
-98.3283
  0
LINE
  8
0
 10
-0.308777
 20
-98.3283
 11
-0.0620728
 21
-98.3011
  0
LINE
  8
0
 10
-0.0620728
 20
-98.3011
 11
0.185928
 21
-98.3102
  0
LINE
  8
0
 10
0.185928
 20
-98.3102
 11
0.429977
 21
-98.3553
  0
LINE
  8
0
 10
0.429977
 20
-98.3553
 11
0.664871
 21
-98.4354
  0
LINE
  8
0
 10
0.664871
 20
-98.4354
 11
0.88559
 21
-98.5489
  0
LINE
  8
0
 10
0.88559
 20
-98.5489
 11
1.08743
 21
-98.6933
  0
LINE
  8
0
 10
1.08743
 20
-98.6933
 11
1.2661
 21
-98.8656
  0
LINE
  8
0
 10
1.2661
 20
-98.8656
 11
1.41779
 21
-99.062
  0
LINE
  8
0
 10
1.41779
 20
-99.062
 11
1.53926
 21
-99.2784
  0
LINE
  8
0
 10
1.53926
 20
-99.2784
 11
1.62791
 21
-99.5102
  0
LINE
  8
0
 10
1.62791
 20
-99.5102
 11
1.68187
 21
-99.7525
  0
LINE
  8
0
 10
1.68187
 20
-99.7525
 11
1.7
 21
-100
  0
LINE
  8
0
 10
1.7
 20
-100
 11
1.68187
 21
-100.248
  0
LINE
  8
0
 10
1.68187
 20
-100.248
 11
1.62791
 21
-100.49
  0
LINE
  8
0
 10
1.62791
 20
-100.49
 11
1.53926
 21
-100.722
  0
LINE
  8
0
 10
1.53926
 20
-100.722
 11
1.41779
 21
-100.938
  0
LINE
  8
0
 10
1.41779
 20
-100.938
 11
1.2661
 21
-101.134
  0
LINE
  8
0
 10
1.2661
 20
-101.134
 11
1.08743
 21
-101.307
  0
LINE
  8
0
 10
1.08743
 20
-101.307
 11
0.88559
 21
-101.451
  0
LINE
  8
0
 10
0.88559
 20
-101.451
 11
0.664871
 21
-101.565
  0
LINE
  8
0
 10
0.664871
 20
-101.565
 11
0.429977
 21
-101.645
  0
LINE
  8
0
 10
0.429977
 20
-101.645
 11
0.185928
 21
-101.69
  0
LINE
  8
0
 10
0.185928
 20
-101.69
 11
-0.0620728
 21
-101.699
  0
LINE
  8
0
 10
-0.0620728
 20
-101.699
 11
-0.308777
 21
-101.672
  0
ENDSEC
  0
SECTION
  2
OBJECTS
  0
DICTIONARY
  0
ENDSEC
  0
EOF
