  0
SECTION
  2
BLOCKS
  0
ENDSEC
  0
SECTION
  2
ENTITIES
  0
LINE
  8
0
 10
238.65
 20
11.662
 11
240.524
 21
10.6535
  0
LINE
  8
0
 10
240.524
 20
10.6535
 11
240.576
 21
10.3223
  0
LINE
  8
0
 10
240.576
 20
10.3223
 11
240.671
 21
9.96843
  0
LINE
  8
0
 10
240.671
 20
9.96843
 11
240.803
 21
9.62642
  0
LINE
  8
0
 10
240.803
 20
9.62642
 11
240.969
 21
9.29999
  0
LINE
  8
0
 10
240.969
 20
9.29999
 11
241.168
 21
8.99275
  0
LINE
  8
0
 10
241.168
 20
8.99275
 11
241.399
 21
8.70804
  0
LINE
  8
0
 10
241.399
 20
8.70804
 11
241.658
 21
8.44899
  0
LINE
  8
0
 10
241.658
 20
8.44899
 11
241.943
 21
8.21843
  0
LINE
  8
0
 10
241.943
 20
8.21843
 11
242.25
 21
8.01891
  0
LINE
  8
0
 10
242.25
 20
8.01891
 11
242.576
 21
7.85258
  0
LINE
  8
0
 10
242.576
 20
7.85258
 11
242.918
 21
7.7213
  0
LINE
  8
0
 10
242.918
 20
7.7213
 11
243.272
 21
7.62648
  0
LINE
  8
0
 10
243.272
 20
7.62648
 11
243.634
 21
7.56917
  0
LINE
  8
0
 10
243.634
 20
7.56917
 11
244
 21
7.54999
  0
LINE
  8
0
 10
244
 20
7.54999
 11
244.366
 21
7.56917
  0
LINE
  8
0
 10
244.366
 20
7.56917
 11
244.728
 21
7.62648
  0
LINE
  8
0
 10
244.728
 20
7.62648
 11
245.082
 21
7.7213
  0
LINE
  8
0
 10
245.082
 20
7.7213
 11
245.424
 21
7.85258
  0
LINE
  8
0
 10
245.424
 20
7.85258
 11
245.75
 21
8.01891
  0
LINE
  8
0
 10
245.75
 20
8.01891
 11
246.057
 21
8.21843
  0
LINE
  8
0
 10
246.057
 20
8.21843
 11
246.342
 21
8.44899
  0
LINE
  8
0
 10
246.342
 20
8.44899
 11
246.601
 21
8.70804
  0
LINE
  8
0
 10
246.601
 20
8.70804
 11
246.832
 21
8.99275
  0
LINE
  8
0
 10
246.832
 20
8.99275
 11
247.031
 21
9.29999
  0
LINE
  8
0
 10
247.031
 20
9.29999
 11
247.197
 21
9.62642
  0
LINE
  8
0
 10
247.197
 20
9.62642
 11
247.329
 21
9.96843
  0
LINE
  8
0
 10
247.329
 20
9.96843
 11
247.424
 21
10.3223
  0
LINE
  8
0
 10
247.424
 20
10.3223
 11
247.476
 21
10.6535
  0
LINE
  8
0
 10
247.476
 20
10.6535
 11
251
 21
12.55
  0
LINE
  8
0
 10
251
 20
12.55
 11
272.5
 21
12.55
  0
LINE
  8
0
 10
272.5
 20
12.55
 11
272.814
 21
12.5664
  0
LINE
  8
0
 10
272.814
 20
12.5664
 11
273.124
 21
12.6156
  0
LINE
  8
0
 10
273.124
 20
12.6156
 11
273.427
 21
12.6968
  0
LINE
  8
0
 10
273.427
 20
12.6968
 11
273.72
 21
12.8094
  0
LINE
  8
0
 10
273.72
 20
12.8094
 11
274
 21
12.9519
  0
LINE
  8
0
 10
274
 20
12.9519
 11
274.263
 21
13.1229
  0
LINE
  8
0
 10
274.263
 20
13.1229
 11
274.507
 21
13.3206
  0
LINE
  8
0
 10
274.507
 20
13.3206
 11
274.729
 21
13.5426
  0
LINE
  8
0
 10
274.729
 20
13.5426
 11
274.927
 21
13.7866
  0
LINE
  8
0
 10
274.927
 20
13.7866
 11
275.098
 21
14.05
  0
LINE
  8
0
 10
275.098
 20
14.05
 11
275.241
 21
14.3298
  0
LINE
  8
0
 10
275.241
 20
14.3298
 11
275.353
 21
14.6229
  0
LINE
  8
0
 10
275.353
 20
14.6229
 11
275.434
 21
14.9263
  0
LINE
  8
0
 10
275.434
 20
14.9263
 11
275.484
 21
15.2364
  0
LINE
  8
0
 10
275.484
 20
15.2364
 11
275.5
 21
15.55
  0
LINE
  8
0
 10
275.5
 20
15.55
 11
275.5
 21
46.55
  0
LINE
  8
0
 10
275.5
 20
46.55
 11
275.484
 21
46.8636
  0
LINE
  8
0
 10
275.484
 20
46.8636
 11
275.434
 21
47.1737
  0
LINE
  8
0
 10
275.434
 20
47.1737
 11
275.353
 21
47.477
  0
LINE
  8
0
 10
275.353
 20
47.477
 11
275.241
 21
47.7702
  0
LINE
  8
0
 10
275.241
 20
47.7702
 11
275.098
 21
48.05
  0
LINE
  8
0
 10
275.098
 20
48.05
 11
274.927
 21
48.3133
  0
LINE
  8
0
 10
274.927
 20
48.3133
 11
274.729
 21
48.5574
  0
LINE
  8
0
 10
274.729
 20
48.5574
 11
274.507
 21
48.7794
  0
LINE
  8
0
 10
274.507
 20
48.7794
 11
274.263
 21
48.977
  0
LINE
  8
0
 10
274.263
 20
48.977
 11
274
 21
49.1481
  0
LINE
  8
0
 10
274
 20
49.1481
 11
273.72
 21
49.2906
  0
LINE
  8
0
 10
273.72
 20
49.2906
 11
273.427
 21
49.4032
  0
LINE
  8
0
 10
273.427
 20
49.4032
 11
273.124
 21
49.4844
  0
LINE
  8
0
 10
273.124
 20
49.4844
 11
272.814
 21
49.5335
  0
LINE
  8
0
 10
272.814
 20
49.5335
 11
272.5
 21
49.55
  0
LINE
  8
0
 10
272.5
 20
49.55
 11
251.004
 21
49.55
  0
LINE
  8
0
 10
251.004
 20
49.55
 11
247.475
 21
51.4502
  0
LINE
  8
0
 10
247.475
 20
51.4502
 11
247.424
 21
51.7777
  0
LINE
  8
0
 10
247.424
 20
51.7777
 11
247.329
 21
52.1315
  0
LINE
  8
0
 10
247.329
 20
52.1315
 11
247.197
 21
52.4736
  0
LINE
  8
0
 10
247.197
 20
52.4736
 11
247.031
 21
52.8
  0
LINE
  8
0
 10
247.031
 20
52.8
 11
246.832
 21
53.1072
  0
LINE
  8
0
 10
246.832
 20
53.1072
 11
246.601
 21
53.3919
  0
LINE
  8
0
 10
246.601
 20
53.3919
 11
246.342
 21
53.651
  0
LINE
  8
0
 10
246.342
 20
53.651
 11
246.057
 21
53.8815
  0
LINE
  8
0
 10
246.057
 20
53.8815
 11
245.75
 21
54.0811
  0
LINE
  8
0
 10
245.75
 20
54.0811
 11
245.424
 21
54.2474
  0
LINE
  8
0
 10
245.424
 20
54.2474
 11
245.082
 21
54.3787
  0
LINE
  8
0
 10
245.082
 20
54.3787
 11
244.728
 21
54.4735
  0
LINE
  8
0
 10
244.728
 20
54.4735
 11
244.366
 21
54.5308
  0
LINE
  8
0
 10
244.366
 20
54.5308
 11
244
 21
54.55
  0
LINE
  8
0
 10
244
 20
54.55
 11
243.634
 21
54.5308
  0
LINE
  8
0
 10
243.634
 20
54.5308
 11
243.272
 21
54.4735
  0
LINE
  8
0
 10
243.272
 20
54.4735
 11
242.918
 21
54.3787
  0
LINE
  8
0
 10
242.918
 20
54.3787
 11
242.576
 21
54.2474
  0
LINE
  8
0
 10
242.576
 20
54.2474
 11
242.25
 21
54.0811
  0
LINE
  8
0
 10
242.25
 20
54.0811
 11
241.943
 21
53.8815
  0
LINE
  8
0
 10
241.943
 20
53.8815
 11
241.658
 21
53.651
  0
LINE
  8
0
 10
241.658
 20
53.651
 11
241.399
 21
53.3919
  0
LINE
  8
0
 10
241.399
 20
53.3919
 11
241.168
 21
53.1072
  0
LINE
  8
0
 10
241.168
 20
53.1072
 11
240.969
 21
52.8
  0
LINE
  8
0
 10
240.969
 20
52.8
 11
240.803
 21
52.4736
  0
LINE
  8
0
 10
240.803
 20
52.4736
 11
240.671
 21
52.1315
  0
LINE
  8
0
 10
240.671
 20
52.1315
 11
240.576
 21
51.7777
  0
LINE
  8
0
 10
240.576
 20
51.7777
 11
240.525
 21
51.4502
  0
LINE
  8
0
 10
240.525
 20
51.4502
 11
238.65
 21
50.4408
  0
LINE
  8
0
 10
238.65
 20
50.4408
 11
238.65
 21
58.75
  0
LINE
  8
0
 10
238.65
 20
58.75
 11
0
 21
58.75
  0
LINE
  8
0
 10
0
 20
58.75
 11
0
 21
0
  0
LINE
  8
0
 10
0
 20
0
 11
238.65
 21
0
  0
LINE
  8
0
 10
238.65
 20
0
 11
238.65
 21
11.662
  0
LINE
  8
0
 10
165.9
 20
15.25
 11
165.9
 21
47.25
  0
LINE
  8
0
 10
165.9
 20
47.25
 11
218.9
 21
47.25
  0
LINE
  8
0
 10
218.9
 20
47.25
 11
218.9
 21
45.8553
  0
LINE
  8
0
 10
218.9
 20
45.8553
 11
212.718
 21
39.6735
  0
LINE
  8
0
 10
212.718
 20
39.6735
 11
212.599
 21
39.4839
  0
LINE
  8
0
 10
212.599
 20
39.4839
 11
212.525
 21
39.2725
  0
LINE
  8
0
 10
212.525
 20
39.2725
 11
212.5
 21
39.05
  0
LINE
  8
0
 10
212.5
 20
39.05
 11
212.5
 21
23.05
  0
LINE
  8
0
 10
212.5
 20
23.05
 11
212.525
 21
22.8275
  0
LINE
  8
0
 10
212.525
 20
22.8275
 11
212.599
 21
22.6161
  0
LINE
  8
0
 10
212.599
 20
22.6161
 11
212.718
 21
22.4265
  0
LINE
  8
0
 10
212.718
 20
22.4265
 11
218.9
 21
16.2447
  0
LINE
  8
0
 10
218.9
 20
16.2447
 11
218.9
 21
15.25
  0
LINE
  8
0
 10
218.9
 20
15.25
 11
165.9
 21
15.25
  0
LINE
  8
0
 10
4.31406
 20
42.3102
 11
4.07001
 21
42.3553
  0
LINE
  8
0
 10
4.07001
 20
42.3553
 11
3.83511
 21
42.4354
  0
LINE
  8
0
 10
3.83511
 20
42.4354
 11
3.6144
 21
42.5489
  0
LINE
  8
0
 10
3.6144
 20
42.5489
 11
3.41255
 21
42.6933
  0
LINE
  8
0
 10
3.41255
 20
42.6933
 11
3.23389
 21
42.8656
  0
LINE
  8
0
 10
3.23389
 20
42.8656
 11
3.0822
 21
43.062
  0
LINE
  8
0
 10
3.0822
 20
43.062
 11
2.96072
 21
43.2784
  0
LINE
  8
0
 10
2.96072
 20
43.2784
 11
2.87207
 21
43.5102
  0
LINE
  8
0
 10
2.87207
 20
43.5102
 11
2.81812
 21
43.7525
  0
LINE
  8
0
 10
2.81812
 20
43.7525
 11
2.79999
 21
44
  0
LINE
  8
0
 10
2.79999
 20
44
 11
2.81812
 21
44.2475
  0
LINE
  8
0
 10
2.81812
 20
44.2475
 11
2.87207
 21
44.4898
  0
LINE
  8
0
 10
2.87207
 20
44.4898
 11
2.96072
 21
44.7216
  0
LINE
  8
0
 10
2.96072
 20
44.7216
 11
3.0822
 21
44.938
  0
LINE
  8
0
 10
3.0822
 20
44.938
 11
3.23389
 21
45.1344
  0
LINE
  8
0
 10
3.23389
 20
45.1344
 11
3.41255
 21
45.3067
  0
LINE
  8
0
 10
3.41255
 20
45.3067
 11
3.6144
 21
45.4511
  0
LINE
  8
0
 10
3.6144
 20
45.4511
 11
3.83511
 21
45.5646
  0
LINE
  8
0
 10
3.83511
 20
45.5646
 11
4.07001
 21
45.6447
  0
LINE
  8
0
 10
4.07001
 20
45.6447
 11
4.31406
 21
45.6898
  0
LINE
  8
0
 10
4.31406
 20
45.6898
 11
4.56209
 21
45.6989
  0
LINE
  8
0
 10
4.56209
 20
45.6989
 11
4.80878
 21
45.6717
  0
LINE
  8
0
 10
4.80878
 20
45.6717
 11
5.04889
 21
45.6089
  0
LINE
  8
0
 10
5.04889
 20
45.6089
 11
5.2773
 21
45.5119
  0
LINE
  8
0
 10
5.2773
 20
45.5119
 11
5.48915
 21
45.3826
  0
LINE
  8
0
 10
5.48915
 20
45.3826
 11
5.67992
 21
45.2238
  0
LINE
  8
0
 10
5.67992
 20
45.2238
 11
5.84554
 21
45.039
  0
LINE
  8
0
 10
5.84554
 20
45.039
 11
5.98248
 21
44.832
  0
LINE
  8
0
 10
5.98248
 20
44.832
 11
6.08781
 21
44.6073
  0
LINE
  8
0
 10
6.08781
 20
44.6073
 11
6.15932
 21
44.3696
  0
LINE
  8
0
 10
6.15932
 20
44.3696
 11
6.19547
 21
44.1241
  0
LINE
  8
0
 10
6.19547
 20
44.1241
 11
6.19547
 21
43.8759
  0
LINE
  8
0
 10
6.19547
 20
43.8759
 11
6.15932
 21
43.6304
  0
LINE
  8
0
 10
6.15932
 20
43.6304
 11
6.08781
 21
43.3927
  0
LINE
  8
0
 10
6.08781
 20
43.3927
 11
5.98248
 21
43.168
  0
LINE
  8
0
 10
5.98248
 20
43.168
 11
5.84554
 21
42.961
  0
LINE
  8
0
 10
5.84554
 20
42.961
 11
5.67992
 21
42.7762
  0
LINE
  8
0
 10
5.67992
 20
42.7762
 11
5.48915
 21
42.6174
  0
LINE
  8
0
 10
5.48915
 20
42.6174
 11
5.2773
 21
42.4881
  0
LINE
  8
0
 10
5.2773
 20
42.4881
 11
5.04889
 21
42.3911
  0
LINE
  8
0
 10
5.04889
 20
42.3911
 11
4.80878
 21
42.3283
  0
LINE
  8
0
 10
4.80878
 20
42.3283
 11
4.56209
 21
42.3011
  0
LINE
  8
0
 10
4.56209
 20
42.3011
 11
4.31406
 21
42.3102
  0
LINE
  8
0
 10
4.31406
 20
13.3102
 11
4.07001
 21
13.3553
  0
LINE
  8
0
 10
4.07001
 20
13.3553
 11
3.83511
 21
13.4354
  0
LINE
  8
0
 10
3.83511
 20
13.4354
 11
3.6144
 21
13.5489
  0
LINE
  8
0
 10
3.6144
 20
13.5489
 11
3.41255
 21
13.6933
  0
LINE
  8
0
 10
3.41255
 20
13.6933
 11
3.23389
 21
13.8656
  0
LINE
  8
0
 10
3.23389
 20
13.8656
 11
3.0822
 21
14.062
  0
LINE
  8
0
 10
3.0822
 20
14.062
 11
2.96072
 21
14.2784
  0
LINE
  8
0
 10
2.96072
 20
14.2784
 11
2.87207
 21
14.5102
  0
LINE
  8
0
 10
2.87207
 20
14.5102
 11
2.81812
 21
14.7525
  0
LINE
  8
0
 10
2.81812
 20
14.7525
 11
2.79999
 21
15
  0
LINE
  8
0
 10
2.79999
 20
15
 11
2.81812
 21
15.2475
  0
LINE
  8
0
 10
2.81812
 20
15.2475
 11
2.87207
 21
15.4898
  0
LINE
  8
0
 10
2.87207
 20
15.4898
 11
2.96072
 21
15.7216
  0
LINE
  8
0
 10
2.96072
 20
15.7216
 11
3.0822
 21
15.938
  0
LINE
  8
0
 10
3.0822
 20
15.938
 11
3.23389
 21
16.1344
  0
LINE
  8
0
 10
3.23389
 20
16.1344
 11
3.41255
 21
16.3067
  0
LINE
  8
0
 10
3.41255
 20
16.3067
 11
3.6144
 21
16.4511
  0
LINE
  8
0
 10
3.6144
 20
16.4511
 11
3.83511
 21
16.5646
  0
LINE
  8
0
 10
3.83511
 20
16.5646
 11
4.07001
 21
16.6447
  0
LINE
  8
0
 10
4.07001
 20
16.6447
 11
4.31406
 21
16.6898
  0
LINE
  8
0
 10
4.31406
 20
16.6898
 11
4.56209
 21
16.6989
  0
LINE
  8
0
 10
4.56209
 20
16.6989
 11
4.80878
 21
16.6717
  0
LINE
  8
0
 10
4.80878
 20
16.6717
 11
5.04889
 21
16.6089
  0
LINE
  8
0
 10
5.04889
 20
16.6089
 11
5.2773
 21
16.5119
  0
LINE
  8
0
 10
5.2773
 20
16.5119
 11
5.48915
 21
16.3826
  0
LINE
  8
0
 10
5.48915
 20
16.3826
 11
5.67992
 21
16.2238
  0
LINE
  8
0
 10
5.67992
 20
16.2238
 11
5.84554
 21
16.039
  0
LINE
  8
0
 10
5.84554
 20
16.039
 11
5.98248
 21
15.832
  0
LINE
  8
0
 10
5.98248
 20
15.832
 11
6.08781
 21
15.6073
  0
LINE
  8
0
 10
6.08781
 20
15.6073
 11
6.15932
 21
15.3696
  0
LINE
  8
0
 10
6.15932
 20
15.3696
 11
6.19547
 21
15.1241
  0
LINE
  8
0
 10
6.19547
 20
15.1241
 11
6.19547
 21
14.8759
  0
LINE
  8
0
 10
6.19547
 20
14.8759
 11
6.15932
 21
14.6304
  0
LINE
  8
0
 10
6.15932
 20
14.6304
 11
6.08781
 21
14.3927
  0
LINE
  8
0
 10
6.08781
 20
14.3927
 11
5.98248
 21
14.168
  0
LINE
  8
0
 10
5.98248
 20
14.168
 11
5.84554
 21
13.961
  0
LINE
  8
0
 10
5.84554
 20
13.961
 11
5.67992
 21
13.7762
  0
LINE
  8
0
 10
5.67992
 20
13.7762
 11
5.48915
 21
13.6174
  0
LINE
  8
0
 10
5.48915
 20
13.6174
 11
5.2773
 21
13.4881
  0
LINE
  8
0
 10
5.2773
 20
13.4881
 11
5.04889
 21
13.3911
  0
LINE
  8
0
 10
5.04889
 20
13.3911
 11
4.80878
 21
13.3283
  0
LINE
  8
0
 10
4.80878
 20
13.3283
 11
4.56209
 21
13.3011
  0
LINE
  8
0
 10
4.56209
 20
13.3011
 11
4.31406
 21
13.3102
  0
ENDSEC
  0
SECTION
  2
OBJECTS
  0
DICTIONARY
  0
ENDSEC
  0
EOF
