  0
SECTION
  2
BLOCKS
  0
ENDSEC
  0
SECTION
  2
ENTITIES
  0
LINE
  8
0
 10
298.65
 20
58.75
 11
286.387
 21
58.75
  0
LINE
  8
0
 10
286.387
 20
58.75
 11
286.359
 21
58.216
  0
LINE
  8
0
 10
286.359
 20
58.216
 11
286.236
 21
57.4407
  0
LINE
  8
0
 10
286.236
 20
57.4407
 11
286.033
 21
56.6824
  0
LINE
  8
0
 10
286.033
 20
56.6824
 11
285.752
 21
55.9495
  0
LINE
  8
0
 10
285.752
 20
55.9495
 11
285.395
 21
55.25
  0
LINE
  8
0
 10
285.395
 20
55.25
 11
284.968
 21
54.5916
  0
LINE
  8
0
 10
284.968
 20
54.5916
 11
284.474
 21
53.9815
  0
LINE
  8
0
 10
284.474
 20
53.9815
 11
283.918
 21
53.4264
  0
LINE
  8
0
 10
283.918
 20
53.4264
 11
283.308
 21
52.9324
  0
LINE
  8
0
 10
283.308
 20
52.9324
 11
282.65
 21
52.5048
  0
LINE
  8
0
 10
282.65
 20
52.5048
 11
281.951
 21
52.1484
  0
LINE
  8
0
 10
281.951
 20
52.1484
 11
281.218
 21
51.8671
  0
LINE
  8
0
 10
281.218
 20
51.8671
 11
280.459
 21
51.6639
  0
LINE
  8
0
 10
280.459
 20
51.6639
 11
279.684
 21
51.5411
  0
LINE
  8
0
 10
279.684
 20
51.5411
 11
278.9
 21
51.5
  0
LINE
  8
0
 10
278.9
 20
51.5
 11
278.116
 21
51.5411
  0
LINE
  8
0
 10
278.116
 20
51.5411
 11
277.341
 21
51.6639
  0
LINE
  8
0
 10
277.341
 20
51.6639
 11
276.582
 21
51.8671
  0
LINE
  8
0
 10
276.582
 20
51.8671
 11
275.849
 21
52.1484
  0
LINE
  8
0
 10
275.849
 20
52.1484
 11
275.15
 21
52.5048
  0
LINE
  8
0
 10
275.15
 20
52.5048
 11
274.492
 21
52.9324
  0
LINE
  8
0
 10
274.492
 20
52.9324
 11
273.882
 21
53.4264
  0
LINE
  8
0
 10
273.882
 20
53.4264
 11
273.326
 21
53.9815
  0
LINE
  8
0
 10
273.326
 20
53.9815
 11
272.832
 21
54.5916
  0
LINE
  8
0
 10
272.832
 20
54.5916
 11
272.405
 21
55.25
  0
LINE
  8
0
 10
272.405
 20
55.25
 11
272.048
 21
55.9495
  0
LINE
  8
0
 10
272.048
 20
55.9495
 11
271.767
 21
56.6824
  0
LINE
  8
0
 10
271.767
 20
56.6824
 11
271.564
 21
57.4407
  0
LINE
  8
0
 10
271.564
 20
57.4407
 11
271.441
 21
58.216
  0
LINE
  8
0
 10
271.441
 20
58.216
 11
271.413
 21
58.75
  0
LINE
  8
0
 10
271.413
 20
58.75
 11
27.4869
 21
58.75
  0
LINE
  8
0
 10
27.4869
 20
58.75
 11
27.4589
 21
58.216
  0
LINE
  8
0
 10
27.4589
 20
58.216
 11
27.3361
 21
57.4407
  0
LINE
  8
0
 10
27.3361
 20
57.4407
 11
27.1329
 21
56.6824
  0
LINE
  8
0
 10
27.1329
 20
56.6824
 11
26.8516
 21
55.9495
  0
LINE
  8
0
 10
26.8516
 20
55.9495
 11
26.4952
 21
55.25
  0
LINE
  8
0
 10
26.4952
 20
55.25
 11
26.0676
 21
54.5916
  0
LINE
  8
0
 10
26.0676
 20
54.5916
 11
25.5736
 21
53.9815
  0
LINE
  8
0
 10
25.5736
 20
53.9815
 11
25.0185
 21
53.4264
  0
LINE
  8
0
 10
25.0185
 20
53.4264
 11
24.4084
 21
52.9324
  0
LINE
  8
0
 10
24.4084
 20
52.9324
 11
23.75
 21
52.5048
  0
LINE
  8
0
 10
23.75
 20
52.5048
 11
23.0505
 21
52.1484
  0
LINE
  8
0
 10
23.0505
 20
52.1484
 11
22.3176
 21
51.8671
  0
LINE
  8
0
 10
22.3176
 20
51.8671
 11
21.5593
 21
51.6639
  0
LINE
  8
0
 10
21.5593
 20
51.6639
 11
20.784
 21
51.5411
  0
LINE
  8
0
 10
20.784
 20
51.5411
 11
20
 21
51.5
  0
LINE
  8
0
 10
20
 20
51.5
 11
19.216
 21
51.5411
  0
LINE
  8
0
 10
19.216
 20
51.5411
 11
18.4407
 21
51.6639
  0
LINE
  8
0
 10
18.4407
 20
51.6639
 11
17.6824
 21
51.8671
  0
LINE
  8
0
 10
17.6824
 20
51.8671
 11
16.9495
 21
52.1484
  0
LINE
  8
0
 10
16.9495
 20
52.1484
 11
16.25
 21
52.5048
  0
LINE
  8
0
 10
16.25
 20
52.5048
 11
15.5916
 21
52.9324
  0
LINE
  8
0
 10
15.5916
 20
52.9324
 11
14.9815
 21
53.4264
  0
LINE
  8
0
 10
14.9815
 20
53.4264
 11
14.4264
 21
53.9815
  0
LINE
  8
0
 10
14.4264
 20
53.9815
 11
13.9324
 21
54.5916
  0
LINE
  8
0
 10
13.9324
 20
54.5916
 11
13.5048
 21
55.25
  0
LINE
  8
0
 10
13.5048
 20
55.25
 11
13.1484
 21
55.9495
  0
LINE
  8
0
 10
13.1484
 20
55.9495
 11
12.8671
 21
56.6824
  0
LINE
  8
0
 10
12.8671
 20
56.6824
 11
12.6639
 21
57.4407
  0
LINE
  8
0
 10
12.6639
 20
57.4407
 11
12.5411
 21
58.216
  0
LINE
  8
0
 10
12.5411
 20
58.216
 11
12.5131
 21
58.75
  0
LINE
  8
0
 10
12.5131
 20
58.75
 11
0
 21
58.75
  0
LINE
  8
0
 10
0
 20
58.75
 11
0
 21
0
  0
LINE
  8
0
 10
0
 20
0
 11
298.65
 21
0
  0
LINE
  8
0
 10
298.65
 20
0
 11
298.65
 21
58.75
  0
LINE
  8
0
 10
154.388
 20
49.2526
 11
154.149
 21
49.3132
  0
LINE
  8
0
 10
154.149
 20
49.3132
 11
153.942
 21
49.4482
  0
LINE
  8
0
 10
153.942
 20
49.4482
 11
153.79
 21
49.643
  0
LINE
  8
0
 10
153.79
 20
49.643
 11
153.71
 21
49.8766
  0
LINE
  8
0
 10
153.71
 20
49.8766
 11
153.71
 21
50.1234
  0
LINE
  8
0
 10
153.71
 20
50.1234
 11
153.79
 21
50.3569
  0
LINE
  8
0
 10
153.79
 20
50.3569
 11
153.942
 21
50.5518
  0
LINE
  8
0
 10
153.942
 20
50.5518
 11
154.149
 21
50.6868
  0
LINE
  8
0
 10
154.149
 20
50.6868
 11
154.388
 21
50.7474
  0
LINE
  8
0
 10
154.388
 20
50.7474
 11
205.363
 21
50.7474
  0
LINE
  8
0
 10
205.363
 20
50.7474
 11
205.609
 21
50.7271
  0
LINE
  8
0
 10
205.609
 20
50.7271
 11
205.835
 21
50.6279
  0
LINE
  8
0
 10
205.835
 20
50.6279
 11
206.017
 21
50.4606
  0
LINE
  8
0
 10
206.017
 20
50.4606
 11
206.134
 21
50.2435
  0
LINE
  8
0
 10
206.134
 20
50.2435
 11
206.175
 21
50
  0
LINE
  8
0
 10
206.175
 20
50
 11
206.134
 21
49.7565
  0
LINE
  8
0
 10
206.134
 20
49.7565
 11
206.017
 21
49.5393
  0
LINE
  8
0
 10
206.017
 20
49.5393
 11
205.835
 21
49.3721
  0
LINE
  8
0
 10
205.835
 20
49.3721
 11
205.609
 21
49.2729
  0
LINE
  8
0
 10
205.609
 20
49.2729
 11
205.363
 21
49.2526
  0
LINE
  8
0
 10
205.363
 20
49.2526
 11
154.388
 21
49.2526
  0
LINE
  8
0
 10
93.4131
 20
49.2526
 11
93.1737
 21
49.3132
  0
LINE
  8
0
 10
93.1737
 20
49.3132
 11
92.967
 21
49.4482
  0
LINE
  8
0
 10
92.967
 20
49.4482
 11
92.8154
 21
49.643
  0
LINE
  8
0
 10
92.8154
 20
49.643
 11
92.7352
 21
49.8766
  0
LINE
  8
0
 10
92.7352
 20
49.8766
 11
92.7352
 21
50.1234
  0
LINE
  8
0
 10
92.7352
 20
50.1234
 11
92.8154
 21
50.3569
  0
LINE
  8
0
 10
92.8154
 20
50.3569
 11
92.967
 21
50.5518
  0
LINE
  8
0
 10
92.967
 20
50.5518
 11
93.1737
 21
50.6868
  0
LINE
  8
0
 10
93.1737
 20
50.6868
 11
93.4131
 21
50.7474
  0
LINE
  8
0
 10
93.4131
 20
50.7474
 11
144.388
 21
50.7474
  0
LINE
  8
0
 10
144.388
 20
50.7474
 11
144.634
 21
50.7271
  0
LINE
  8
0
 10
144.634
 20
50.7271
 11
144.86
 21
50.6279
  0
LINE
  8
0
 10
144.86
 20
50.6279
 11
145.042
 21
50.4606
  0
LINE
  8
0
 10
145.042
 20
50.4606
 11
145.159
 21
50.2435
  0
LINE
  8
0
 10
145.159
 20
50.2435
 11
145.2
 21
50
  0
LINE
  8
0
 10
145.2
 20
50
 11
145.159
 21
49.7565
  0
LINE
  8
0
 10
145.159
 20
49.7565
 11
145.042
 21
49.5393
  0
LINE
  8
0
 10
145.042
 20
49.5393
 11
144.86
 21
49.3721
  0
LINE
  8
0
 10
144.86
 20
49.3721
 11
144.634
 21
49.2729
  0
LINE
  8
0
 10
144.634
 20
49.2729
 11
144.388
 21
49.2526
  0
LINE
  8
0
 10
144.388
 20
49.2526
 11
93.4131
 21
49.2526
  0
LINE
  8
0
 10
32.4381
 20
49.2526
 11
32.1987
 21
49.3132
  0
LINE
  8
0
 10
32.1987
 20
49.3132
 11
31.992
 21
49.4482
  0
LINE
  8
0
 10
31.992
 20
49.4482
 11
31.8404
 21
49.643
  0
LINE
  8
0
 10
31.8404
 20
49.643
 11
31.7602
 21
49.8766
  0
LINE
  8
0
 10
31.7602
 20
49.8766
 11
31.7602
 21
50.1234
  0
LINE
  8
0
 10
31.7602
 20
50.1234
 11
31.8404
 21
50.3569
  0
LINE
  8
0
 10
31.8404
 20
50.3569
 11
31.992
 21
50.5518
  0
LINE
  8
0
 10
31.992
 20
50.5518
 11
32.1987
 21
50.6868
  0
LINE
  8
0
 10
32.1987
 20
50.6868
 11
32.4381
 21
50.7474
  0
LINE
  8
0
 10
32.4381
 20
50.7474
 11
83.4131
 21
50.7474
  0
LINE
  8
0
 10
83.4131
 20
50.7474
 11
83.6591
 21
50.7271
  0
LINE
  8
0
 10
83.6591
 20
50.7271
 11
83.8852
 21
50.6279
  0
LINE
  8
0
 10
83.8852
 20
50.6279
 11
84.0668
 21
50.4606
  0
LINE
  8
0
 10
84.0668
 20
50.4606
 11
84.1844
 21
50.2435
  0
LINE
  8
0
 10
84.1844
 20
50.2435
 11
84.225
 21
50
  0
LINE
  8
0
 10
84.225
 20
50
 11
84.1844
 21
49.7565
  0
LINE
  8
0
 10
84.1844
 20
49.7565
 11
84.0668
 21
49.5393
  0
LINE
  8
0
 10
84.0668
 20
49.5393
 11
83.8852
 21
49.3721
  0
LINE
  8
0
 10
83.8852
 20
49.3721
 11
83.6591
 21
49.2729
  0
LINE
  8
0
 10
83.6591
 20
49.2729
 11
83.4131
 21
49.2526
  0
LINE
  8
0
 10
83.4131
 20
49.2526
 11
32.4381
 21
49.2526
  0
LINE
  8
0
 10
215.363
 20
49.2526
 11
215.124
 21
49.3132
  0
LINE
  8
0
 10
215.124
 20
49.3132
 11
214.917
 21
49.4482
  0
LINE
  8
0
 10
214.917
 20
49.4482
 11
214.765
 21
49.643
  0
LINE
  8
0
 10
214.765
 20
49.643
 11
214.685
 21
49.8766
  0
LINE
  8
0
 10
214.685
 20
49.8766
 11
214.685
 21
50.1234
  0
LINE
  8
0
 10
214.685
 20
50.1234
 11
214.765
 21
50.3569
  0
LINE
  8
0
 10
214.765
 20
50.3569
 11
214.917
 21
50.5518
  0
LINE
  8
0
 10
214.917
 20
50.5518
 11
215.124
 21
50.6868
  0
LINE
  8
0
 10
215.124
 20
50.6868
 11
215.363
 21
50.7474
  0
LINE
  8
0
 10
215.363
 20
50.7474
 11
266.338
 21
50.7474
  0
LINE
  8
0
 10
266.338
 20
50.7474
 11
266.584
 21
50.7271
  0
LINE
  8
0
 10
266.584
 20
50.7271
 11
266.81
 21
50.6279
  0
LINE
  8
0
 10
266.81
 20
50.6279
 11
266.992
 21
50.4606
  0
LINE
  8
0
 10
266.992
 20
50.4606
 11
267.109
 21
50.2435
  0
LINE
  8
0
 10
267.109
 20
50.2435
 11
267.15
 21
50
  0
LINE
  8
0
 10
267.15
 20
50
 11
267.109
 21
49.7565
  0
LINE
  8
0
 10
267.109
 20
49.7565
 11
266.992
 21
49.5393
  0
LINE
  8
0
 10
266.992
 20
49.5393
 11
266.81
 21
49.3721
  0
LINE
  8
0
 10
266.81
 20
49.3721
 11
266.584
 21
49.2729
  0
LINE
  8
0
 10
266.584
 20
49.2729
 11
266.338
 21
49.2526
  0
LINE
  8
0
 10
266.338
 20
49.2526
 11
215.363
 21
49.2526
  0
LINE
  8
0
 10
93.4131
 20
44.7526
 11
93.1737
 21
44.8132
  0
LINE
  8
0
 10
93.1737
 20
44.8132
 11
92.967
 21
44.9482
  0
LINE
  8
0
 10
92.967
 20
44.9482
 11
92.8154
 21
45.143
  0
LINE
  8
0
 10
92.8154
 20
45.143
 11
92.7352
 21
45.3766
  0
LINE
  8
0
 10
92.7352
 20
45.3766
 11
92.7352
 21
45.6234
  0
LINE
  8
0
 10
92.7352
 20
45.6234
 11
92.8154
 21
45.8569
  0
LINE
  8
0
 10
92.8154
 20
45.8569
 11
92.967
 21
46.0518
  0
LINE
  8
0
 10
92.967
 20
46.0518
 11
93.1737
 21
46.1868
  0
LINE
  8
0
 10
93.1737
 20
46.1868
 11
93.4131
 21
46.2474
  0
LINE
  8
0
 10
93.4131
 20
46.2474
 11
144.388
 21
46.2474
  0
LINE
  8
0
 10
144.388
 20
46.2474
 11
144.634
 21
46.2271
  0
LINE
  8
0
 10
144.634
 20
46.2271
 11
144.86
 21
46.1279
  0
LINE
  8
0
 10
144.86
 20
46.1279
 11
145.042
 21
45.9606
  0
LINE
  8
0
 10
145.042
 20
45.9606
 11
145.159
 21
45.7435
  0
LINE
  8
0
 10
145.159
 20
45.7435
 11
145.2
 21
45.5
  0
LINE
  8
0
 10
145.2
 20
45.5
 11
145.159
 21
45.2565
  0
LINE
  8
0
 10
145.159
 20
45.2565
 11
145.042
 21
45.0393
  0
LINE
  8
0
 10
145.042
 20
45.0393
 11
144.86
 21
44.8721
  0
LINE
  8
0
 10
144.86
 20
44.8721
 11
144.634
 21
44.7729
  0
LINE
  8
0
 10
144.634
 20
44.7729
 11
144.388
 21
44.7526
  0
LINE
  8
0
 10
144.388
 20
44.7526
 11
93.4131
 21
44.7526
  0
LINE
  8
0
 10
215.363
 20
44.7526
 11
215.124
 21
44.8132
  0
LINE
  8
0
 10
215.124
 20
44.8132
 11
214.917
 21
44.9482
  0
LINE
  8
0
 10
214.917
 20
44.9482
 11
214.765
 21
45.143
  0
LINE
  8
0
 10
214.765
 20
45.143
 11
214.685
 21
45.3766
  0
LINE
  8
0
 10
214.685
 20
45.3766
 11
214.685
 21
45.6234
  0
LINE
  8
0
 10
214.685
 20
45.6234
 11
214.765
 21
45.8569
  0
LINE
  8
0
 10
214.765
 20
45.8569
 11
214.917
 21
46.0518
  0
LINE
  8
0
 10
214.917
 20
46.0518
 11
215.124
 21
46.1868
  0
LINE
  8
0
 10
215.124
 20
46.1868
 11
215.363
 21
46.2474
  0
LINE
  8
0
 10
215.363
 20
46.2474
 11
266.338
 21
46.2474
  0
LINE
  8
0
 10
266.338
 20
46.2474
 11
266.584
 21
46.2271
  0
LINE
  8
0
 10
266.584
 20
46.2271
 11
266.81
 21
46.1279
  0
LINE
  8
0
 10
266.81
 20
46.1279
 11
266.992
 21
45.9606
  0
LINE
  8
0
 10
266.992
 20
45.9606
 11
267.109
 21
45.7435
  0
LINE
  8
0
 10
267.109
 20
45.7435
 11
267.15
 21
45.5
  0
LINE
  8
0
 10
267.15
 20
45.5
 11
267.109
 21
45.2565
  0
LINE
  8
0
 10
267.109
 20
45.2565
 11
266.992
 21
45.0393
  0
LINE
  8
0
 10
266.992
 20
45.0393
 11
266.81
 21
44.8721
  0
LINE
  8
0
 10
266.81
 20
44.8721
 11
266.584
 21
44.7729
  0
LINE
  8
0
 10
266.584
 20
44.7729
 11
266.338
 21
44.7526
  0
LINE
  8
0
 10
266.338
 20
44.7526
 11
215.363
 21
44.7526
  0
LINE
  8
0
 10
32.4381
 20
44.7526
 11
32.1987
 21
44.8132
  0
LINE
  8
0
 10
32.1987
 20
44.8132
 11
31.992
 21
44.9482
  0
LINE
  8
0
 10
31.992
 20
44.9482
 11
31.8404
 21
45.143
  0
LINE
  8
0
 10
31.8404
 20
45.143
 11
31.7602
 21
45.3766
  0
LINE
  8
0
 10
31.7602
 20
45.3766
 11
31.7602
 21
45.6234
  0
LINE
  8
0
 10
31.7602
 20
45.6234
 11
31.8404
 21
45.8569
  0
LINE
  8
0
 10
31.8404
 20
45.8569
 11
31.992
 21
46.0518
  0
LINE
  8
0
 10
31.992
 20
46.0518
 11
32.1987
 21
46.1868
  0
LINE
  8
0
 10
32.1987
 20
46.1868
 11
32.4381
 21
46.2474
  0
LINE
  8
0
 10
32.4381
 20
46.2474
 11
83.4131
 21
46.2474
  0
LINE
  8
0
 10
83.4131
 20
46.2474
 11
83.6591
 21
46.2271
  0
LINE
  8
0
 10
83.6591
 20
46.2271
 11
83.8852
 21
46.1279
  0
LINE
  8
0
 10
83.8852
 20
46.1279
 11
84.0668
 21
45.9606
  0
LINE
  8
0
 10
84.0668
 20
45.9606
 11
84.1844
 21
45.7435
  0
LINE
  8
0
 10
84.1844
 20
45.7435
 11
84.225
 21
45.5
  0
LINE
  8
0
 10
84.225
 20
45.5
 11
84.1844
 21
45.2565
  0
LINE
  8
0
 10
84.1844
 20
45.2565
 11
84.0668
 21
45.0393
  0
LINE
  8
0
 10
84.0668
 20
45.0393
 11
83.8852
 21
44.8721
  0
LINE
  8
0
 10
83.8852
 20
44.8721
 11
83.6591
 21
44.7729
  0
LINE
  8
0
 10
83.6591
 20
44.7729
 11
83.4131
 21
44.7526
  0
LINE
  8
0
 10
83.4131
 20
44.7526
 11
32.4381
 21
44.7526
  0
LINE
  8
0
 10
154.388
 20
44.7526
 11
154.149
 21
44.8132
  0
LINE
  8
0
 10
154.149
 20
44.8132
 11
153.942
 21
44.9482
  0
LINE
  8
0
 10
153.942
 20
44.9482
 11
153.79
 21
45.143
  0
LINE
  8
0
 10
153.79
 20
45.143
 11
153.71
 21
45.3766
  0
LINE
  8
0
 10
153.71
 20
45.3766
 11
153.71
 21
45.6234
  0
LINE
  8
0
 10
153.71
 20
45.6234
 11
153.79
 21
45.8569
  0
LINE
  8
0
 10
153.79
 20
45.8569
 11
153.942
 21
46.0518
  0
LINE
  8
0
 10
153.942
 20
46.0518
 11
154.149
 21
46.1868
  0
LINE
  8
0
 10
154.149
 20
46.1868
 11
154.388
 21
46.2474
  0
LINE
  8
0
 10
154.388
 20
46.2474
 11
205.363
 21
46.2474
  0
LINE
  8
0
 10
205.363
 20
46.2474
 11
205.609
 21
46.2271
  0
LINE
  8
0
 10
205.609
 20
46.2271
 11
205.835
 21
46.1279
  0
LINE
  8
0
 10
205.835
 20
46.1279
 11
206.017
 21
45.9606
  0
LINE
  8
0
 10
206.017
 20
45.9606
 11
206.134
 21
45.7435
  0
LINE
  8
0
 10
206.134
 20
45.7435
 11
206.175
 21
45.5
  0
LINE
  8
0
 10
206.175
 20
45.5
 11
206.134
 21
45.2565
  0
LINE
  8
0
 10
206.134
 20
45.2565
 11
206.017
 21
45.0393
  0
LINE
  8
0
 10
206.017
 20
45.0393
 11
205.835
 21
44.8721
  0
LINE
  8
0
 10
205.835
 20
44.8721
 11
205.609
 21
44.7729
  0
LINE
  8
0
 10
205.609
 20
44.7729
 11
205.363
 21
44.7526
  0
LINE
  8
0
 10
205.363
 20
44.7526
 11
154.388
 21
44.7526
  0
LINE
  8
0
 10
294.091
 20
42.3283
 11
293.851
 21
42.3911
  0
LINE
  8
0
 10
293.851
 20
42.3911
 11
293.623
 21
42.4881
  0
LINE
  8
0
 10
293.623
 20
42.4881
 11
293.411
 21
42.6174
  0
LINE
  8
0
 10
293.411
 20
42.6174
 11
293.22
 21
42.7762
  0
LINE
  8
0
 10
293.22
 20
42.7762
 11
293.054
 21
42.961
  0
LINE
  8
0
 10
293.054
 20
42.961
 11
292.918
 21
43.168
  0
LINE
  8
0
 10
292.918
 20
43.168
 11
292.812
 21
43.3927
  0
LINE
  8
0
 10
292.812
 20
43.3927
 11
292.741
 21
43.6304
  0
LINE
  8
0
 10
292.741
 20
43.6304
 11
292.705
 21
43.8759
  0
LINE
  8
0
 10
292.705
 20
43.8759
 11
292.705
 21
44.1241
  0
LINE
  8
0
 10
292.705
 20
44.1241
 11
292.741
 21
44.3696
  0
LINE
  8
0
 10
292.741
 20
44.3696
 11
292.812
 21
44.6073
  0
LINE
  8
0
 10
292.812
 20
44.6073
 11
292.918
 21
44.832
  0
LINE
  8
0
 10
292.918
 20
44.832
 11
293.054
 21
45.039
  0
LINE
  8
0
 10
293.054
 20
45.039
 11
293.22
 21
45.2238
  0
LINE
  8
0
 10
293.22
 20
45.2238
 11
293.411
 21
45.3826
  0
LINE
  8
0
 10
293.411
 20
45.3826
 11
293.623
 21
45.5119
  0
LINE
  8
0
 10
293.623
 20
45.5119
 11
293.851
 21
45.6089
  0
LINE
  8
0
 10
293.851
 20
45.6089
 11
294.091
 21
45.6717
  0
LINE
  8
0
 10
294.091
 20
45.6717
 11
294.338
 21
45.6989
  0
LINE
  8
0
 10
294.338
 20
45.6989
 11
294.586
 21
45.6898
  0
LINE
  8
0
 10
294.586
 20
45.6898
 11
294.83
 21
45.6447
  0
LINE
  8
0
 10
294.83
 20
45.6447
 11
295.065
 21
45.5646
  0
LINE
  8
0
 10
295.065
 20
45.5646
 11
295.286
 21
45.4511
  0
LINE
  8
0
 10
295.286
 20
45.4511
 11
295.487
 21
45.3067
  0
LINE
  8
0
 10
295.487
 20
45.3067
 11
295.666
 21
45.1344
  0
LINE
  8
0
 10
295.666
 20
45.1344
 11
295.818
 21
44.938
  0
LINE
  8
0
 10
295.818
 20
44.938
 11
295.939
 21
44.7216
  0
LINE
  8
0
 10
295.939
 20
44.7216
 11
296.028
 21
44.4898
  0
LINE
  8
0
 10
296.028
 20
44.4898
 11
296.082
 21
44.2475
  0
LINE
  8
0
 10
296.082
 20
44.2475
 11
296.1
 21
44
  0
LINE
  8
0
 10
296.1
 20
44
 11
296.082
 21
43.7525
  0
LINE
  8
0
 10
296.082
 20
43.7525
 11
296.028
 21
43.5102
  0
LINE
  8
0
 10
296.028
 20
43.5102
 11
295.939
 21
43.2784
  0
LINE
  8
0
 10
295.939
 20
43.2784
 11
295.818
 21
43.062
  0
LINE
  8
0
 10
295.818
 20
43.062
 11
295.666
 21
42.8656
  0
LINE
  8
0
 10
295.666
 20
42.8656
 11
295.487
 21
42.6933
  0
LINE
  8
0
 10
295.487
 20
42.6933
 11
295.286
 21
42.5489
  0
LINE
  8
0
 10
295.286
 20
42.5489
 11
295.065
 21
42.4354
  0
LINE
  8
0
 10
295.065
 20
42.4354
 11
294.83
 21
42.3553
  0
LINE
  8
0
 10
294.83
 20
42.3553
 11
294.586
 21
42.3102
  0
LINE
  8
0
 10
294.586
 20
42.3102
 11
294.338
 21
42.3011
  0
LINE
  8
0
 10
294.338
 20
42.3011
 11
294.091
 21
42.3283
  0
LINE
  8
0
 10
4.31406
 20
42.3102
 11
4.07001
 21
42.3553
  0
LINE
  8
0
 10
4.07001
 20
42.3553
 11
3.83511
 21
42.4354
  0
LINE
  8
0
 10
3.83511
 20
42.4354
 11
3.6144
 21
42.5489
  0
LINE
  8
0
 10
3.6144
 20
42.5489
 11
3.41255
 21
42.6933
  0
LINE
  8
0
 10
3.41255
 20
42.6933
 11
3.23389
 21
42.8656
  0
LINE
  8
0
 10
3.23389
 20
42.8656
 11
3.0822
 21
43.062
  0
LINE
  8
0
 10
3.0822
 20
43.062
 11
2.96072
 21
43.2784
  0
LINE
  8
0
 10
2.96072
 20
43.2784
 11
2.87207
 21
43.5102
  0
LINE
  8
0
 10
2.87207
 20
43.5102
 11
2.81812
 21
43.7525
  0
LINE
  8
0
 10
2.81812
 20
43.7525
 11
2.79999
 21
44
  0
LINE
  8
0
 10
2.79999
 20
44
 11
2.81812
 21
44.2475
  0
LINE
  8
0
 10
2.81812
 20
44.2475
 11
2.87207
 21
44.4898
  0
LINE
  8
0
 10
2.87207
 20
44.4898
 11
2.96072
 21
44.7216
  0
LINE
  8
0
 10
2.96072
 20
44.7216
 11
3.0822
 21
44.938
  0
LINE
  8
0
 10
3.0822
 20
44.938
 11
3.23389
 21
45.1344
  0
LINE
  8
0
 10
3.23389
 20
45.1344
 11
3.41255
 21
45.3067
  0
LINE
  8
0
 10
3.41255
 20
45.3067
 11
3.6144
 21
45.4511
  0
LINE
  8
0
 10
3.6144
 20
45.4511
 11
3.83511
 21
45.5646
  0
LINE
  8
0
 10
3.83511
 20
45.5646
 11
4.07001
 21
45.6447
  0
LINE
  8
0
 10
4.07001
 20
45.6447
 11
4.31406
 21
45.6898
  0
LINE
  8
0
 10
4.31406
 20
45.6898
 11
4.56209
 21
45.6989
  0
LINE
  8
0
 10
4.56209
 20
45.6989
 11
4.80878
 21
45.6717
  0
LINE
  8
0
 10
4.80878
 20
45.6717
 11
5.04889
 21
45.6089
  0
LINE
  8
0
 10
5.04889
 20
45.6089
 11
5.2773
 21
45.5119
  0
LINE
  8
0
 10
5.2773
 20
45.5119
 11
5.48915
 21
45.3826
  0
LINE
  8
0
 10
5.48915
 20
45.3826
 11
5.67992
 21
45.2238
  0
LINE
  8
0
 10
5.67992
 20
45.2238
 11
5.84554
 21
45.039
  0
LINE
  8
0
 10
5.84554
 20
45.039
 11
5.98248
 21
44.832
  0
LINE
  8
0
 10
5.98248
 20
44.832
 11
6.08781
 21
44.6073
  0
LINE
  8
0
 10
6.08781
 20
44.6073
 11
6.15932
 21
44.3696
  0
LINE
  8
0
 10
6.15932
 20
44.3696
 11
6.19547
 21
44.1241
  0
LINE
  8
0
 10
6.19547
 20
44.1241
 11
6.19547
 21
43.8759
  0
LINE
  8
0
 10
6.19547
 20
43.8759
 11
6.15932
 21
43.6304
  0
LINE
  8
0
 10
6.15932
 20
43.6304
 11
6.08781
 21
43.3927
  0
LINE
  8
0
 10
6.08781
 20
43.3927
 11
5.98248
 21
43.168
  0
LINE
  8
0
 10
5.98248
 20
43.168
 11
5.84554
 21
42.961
  0
LINE
  8
0
 10
5.84554
 20
42.961
 11
5.67992
 21
42.7762
  0
LINE
  8
0
 10
5.67992
 20
42.7762
 11
5.48915
 21
42.6174
  0
LINE
  8
0
 10
5.48915
 20
42.6174
 11
5.2773
 21
42.4881
  0
LINE
  8
0
 10
5.2773
 20
42.4881
 11
5.04889
 21
42.3911
  0
LINE
  8
0
 10
5.04889
 20
42.3911
 11
4.80878
 21
42.3283
  0
LINE
  8
0
 10
4.80878
 20
42.3283
 11
4.56209
 21
42.3011
  0
LINE
  8
0
 10
4.56209
 20
42.3011
 11
4.31406
 21
42.3102
  0
LINE
  8
0
 10
32.4381
 20
40.2526
 11
32.1987
 21
40.3132
  0
LINE
  8
0
 10
32.1987
 20
40.3132
 11
31.992
 21
40.4482
  0
LINE
  8
0
 10
31.992
 20
40.4482
 11
31.8404
 21
40.643
  0
LINE
  8
0
 10
31.8404
 20
40.643
 11
31.7602
 21
40.8766
  0
LINE
  8
0
 10
31.7602
 20
40.8766
 11
31.7602
 21
41.1234
  0
LINE
  8
0
 10
31.7602
 20
41.1234
 11
31.8404
 21
41.3569
  0
LINE
  8
0
 10
31.8404
 20
41.3569
 11
31.992
 21
41.5518
  0
LINE
  8
0
 10
31.992
 20
41.5518
 11
32.1987
 21
41.6868
  0
LINE
  8
0
 10
32.1987
 20
41.6868
 11
32.4381
 21
41.7474
  0
LINE
  8
0
 10
32.4381
 20
41.7474
 11
83.4131
 21
41.7474
  0
LINE
  8
0
 10
83.4131
 20
41.7474
 11
83.6591
 21
41.7271
  0
LINE
  8
0
 10
83.6591
 20
41.7271
 11
83.8852
 21
41.6279
  0
LINE
  8
0
 10
83.8852
 20
41.6279
 11
84.0668
 21
41.4606
  0
LINE
  8
0
 10
84.0668
 20
41.4606
 11
84.1844
 21
41.2435
  0
LINE
  8
0
 10
84.1844
 20
41.2435
 11
84.225
 21
41
  0
LINE
  8
0
 10
84.225
 20
41
 11
84.1844
 21
40.7565
  0
LINE
  8
0
 10
84.1844
 20
40.7565
 11
84.0668
 21
40.5393
  0
LINE
  8
0
 10
84.0668
 20
40.5393
 11
83.8852
 21
40.3721
  0
LINE
  8
0
 10
83.8852
 20
40.3721
 11
83.6591
 21
40.2729
  0
LINE
  8
0
 10
83.6591
 20
40.2729
 11
83.4131
 21
40.2526
  0
LINE
  8
0
 10
83.4131
 20
40.2526
 11
32.4381
 21
40.2526
  0
LINE
  8
0
 10
154.388
 20
40.2526
 11
154.149
 21
40.3132
  0
LINE
  8
0
 10
154.149
 20
40.3132
 11
153.942
 21
40.4482
  0
LINE
  8
0
 10
153.942
 20
40.4482
 11
153.79
 21
40.643
  0
LINE
  8
0
 10
153.79
 20
40.643
 11
153.71
 21
40.8766
  0
LINE
  8
0
 10
153.71
 20
40.8766
 11
153.71
 21
41.1234
  0
LINE
  8
0
 10
153.71
 20
41.1234
 11
153.79
 21
41.3569
  0
LINE
  8
0
 10
153.79
 20
41.3569
 11
153.942
 21
41.5518
  0
LINE
  8
0
 10
153.942
 20
41.5518
 11
154.149
 21
41.6868
  0
LINE
  8
0
 10
154.149
 20
41.6868
 11
154.388
 21
41.7474
  0
LINE
  8
0
 10
154.388
 20
41.7474
 11
205.363
 21
41.7474
  0
LINE
  8
0
 10
205.363
 20
41.7474
 11
205.609
 21
41.7271
  0
LINE
  8
0
 10
205.609
 20
41.7271
 11
205.835
 21
41.6279
  0
LINE
  8
0
 10
205.835
 20
41.6279
 11
206.017
 21
41.4606
  0
LINE
  8
0
 10
206.017
 20
41.4606
 11
206.134
 21
41.2435
  0
LINE
  8
0
 10
206.134
 20
41.2435
 11
206.175
 21
41
  0
LINE
  8
0
 10
206.175
 20
41
 11
206.134
 21
40.7565
  0
LINE
  8
0
 10
206.134
 20
40.7565
 11
206.017
 21
40.5393
  0
LINE
  8
0
 10
206.017
 20
40.5393
 11
205.835
 21
40.3721
  0
LINE
  8
0
 10
205.835
 20
40.3721
 11
205.609
 21
40.2729
  0
LINE
  8
0
 10
205.609
 20
40.2729
 11
205.363
 21
40.2526
  0
LINE
  8
0
 10
205.363
 20
40.2526
 11
154.388
 21
40.2526
  0
LINE
  8
0
 10
93.4131
 20
40.2526
 11
93.1737
 21
40.3132
  0
LINE
  8
0
 10
93.1737
 20
40.3132
 11
92.967
 21
40.4482
  0
LINE
  8
0
 10
92.967
 20
40.4482
 11
92.8154
 21
40.643
  0
LINE
  8
0
 10
92.8154
 20
40.643
 11
92.7352
 21
40.8766
  0
LINE
  8
0
 10
92.7352
 20
40.8766
 11
92.7352
 21
41.1234
  0
LINE
  8
0
 10
92.7352
 20
41.1234
 11
92.8154
 21
41.3569
  0
LINE
  8
0
 10
92.8154
 20
41.3569
 11
92.967
 21
41.5518
  0
LINE
  8
0
 10
92.967
 20
41.5518
 11
93.1737
 21
41.6868
  0
LINE
  8
0
 10
93.1737
 20
41.6868
 11
93.4131
 21
41.7474
  0
LINE
  8
0
 10
93.4131
 20
41.7474
 11
144.388
 21
41.7474
  0
LINE
  8
0
 10
144.388
 20
41.7474
 11
144.634
 21
41.7271
  0
LINE
  8
0
 10
144.634
 20
41.7271
 11
144.86
 21
41.6279
  0
LINE
  8
0
 10
144.86
 20
41.6279
 11
145.042
 21
41.4606
  0
LINE
  8
0
 10
145.042
 20
41.4606
 11
145.159
 21
41.2435
  0
LINE
  8
0
 10
145.159
 20
41.2435
 11
145.2
 21
41
  0
LINE
  8
0
 10
145.2
 20
41
 11
145.159
 21
40.7565
  0
LINE
  8
0
 10
145.159
 20
40.7565
 11
145.042
 21
40.5393
  0
LINE
  8
0
 10
145.042
 20
40.5393
 11
144.86
 21
40.3721
  0
LINE
  8
0
 10
144.86
 20
40.3721
 11
144.634
 21
40.2729
  0
LINE
  8
0
 10
144.634
 20
40.2729
 11
144.388
 21
40.2526
  0
LINE
  8
0
 10
144.388
 20
40.2526
 11
93.4131
 21
40.2526
  0
LINE
  8
0
 10
215.363
 20
40.2526
 11
215.124
 21
40.3132
  0
LINE
  8
0
 10
215.124
 20
40.3132
 11
214.917
 21
40.4482
  0
LINE
  8
0
 10
214.917
 20
40.4482
 11
214.765
 21
40.643
  0
LINE
  8
0
 10
214.765
 20
40.643
 11
214.685
 21
40.8766
  0
LINE
  8
0
 10
214.685
 20
40.8766
 11
214.685
 21
41.1234
  0
LINE
  8
0
 10
214.685
 20
41.1234
 11
214.765
 21
41.3569
  0
LINE
  8
0
 10
214.765
 20
41.3569
 11
214.917
 21
41.5518
  0
LINE
  8
0
 10
214.917
 20
41.5518
 11
215.124
 21
41.6868
  0
LINE
  8
0
 10
215.124
 20
41.6868
 11
215.363
 21
41.7474
  0
LINE
  8
0
 10
215.363
 20
41.7474
 11
266.338
 21
41.7474
  0
LINE
  8
0
 10
266.338
 20
41.7474
 11
266.584
 21
41.7271
  0
LINE
  8
0
 10
266.584
 20
41.7271
 11
266.81
 21
41.6279
  0
LINE
  8
0
 10
266.81
 20
41.6279
 11
266.992
 21
41.4606
  0
LINE
  8
0
 10
266.992
 20
41.4606
 11
267.109
 21
41.2435
  0
LINE
  8
0
 10
267.109
 20
41.2435
 11
267.15
 21
41
  0
LINE
  8
0
 10
267.15
 20
41
 11
267.109
 21
40.7565
  0
LINE
  8
0
 10
267.109
 20
40.7565
 11
266.992
 21
40.5393
  0
LINE
  8
0
 10
266.992
 20
40.5393
 11
266.81
 21
40.3721
  0
LINE
  8
0
 10
266.81
 20
40.3721
 11
266.584
 21
40.2729
  0
LINE
  8
0
 10
266.584
 20
40.2729
 11
266.338
 21
40.2526
  0
LINE
  8
0
 10
266.338
 20
40.2526
 11
215.363
 21
40.2526
  0
LINE
  8
0
 10
154.388
 20
35.7526
 11
154.149
 21
35.8132
  0
LINE
  8
0
 10
154.149
 20
35.8132
 11
153.942
 21
35.9482
  0
LINE
  8
0
 10
153.942
 20
35.9482
 11
153.79
 21
36.143
  0
LINE
  8
0
 10
153.79
 20
36.143
 11
153.71
 21
36.3766
  0
LINE
  8
0
 10
153.71
 20
36.3766
 11
153.71
 21
36.6234
  0
LINE
  8
0
 10
153.71
 20
36.6234
 11
153.79
 21
36.8569
  0
LINE
  8
0
 10
153.79
 20
36.8569
 11
153.942
 21
37.0518
  0
LINE
  8
0
 10
153.942
 20
37.0518
 11
154.149
 21
37.1868
  0
LINE
  8
0
 10
154.149
 20
37.1868
 11
154.388
 21
37.2474
  0
LINE
  8
0
 10
154.388
 20
37.2474
 11
205.363
 21
37.2474
  0
LINE
  8
0
 10
205.363
 20
37.2474
 11
205.609
 21
37.2271
  0
LINE
  8
0
 10
205.609
 20
37.2271
 11
205.835
 21
37.1279
  0
LINE
  8
0
 10
205.835
 20
37.1279
 11
206.017
 21
36.9606
  0
LINE
  8
0
 10
206.017
 20
36.9606
 11
206.134
 21
36.7435
  0
LINE
  8
0
 10
206.134
 20
36.7435
 11
206.175
 21
36.5
  0
LINE
  8
0
 10
206.175
 20
36.5
 11
206.134
 21
36.2565
  0
LINE
  8
0
 10
206.134
 20
36.2565
 11
206.017
 21
36.0393
  0
LINE
  8
0
 10
206.017
 20
36.0393
 11
205.835
 21
35.8721
  0
LINE
  8
0
 10
205.835
 20
35.8721
 11
205.609
 21
35.7729
  0
LINE
  8
0
 10
205.609
 20
35.7729
 11
205.363
 21
35.7526
  0
LINE
  8
0
 10
205.363
 20
35.7526
 11
154.388
 21
35.7526
  0
LINE
  8
0
 10
93.4131
 20
35.7526
 11
93.1737
 21
35.8132
  0
LINE
  8
0
 10
93.1737
 20
35.8132
 11
92.967
 21
35.9482
  0
LINE
  8
0
 10
92.967
 20
35.9482
 11
92.8154
 21
36.143
  0
LINE
  8
0
 10
92.8154
 20
36.143
 11
92.7352
 21
36.3766
  0
LINE
  8
0
 10
92.7352
 20
36.3766
 11
92.7352
 21
36.6234
  0
LINE
  8
0
 10
92.7352
 20
36.6234
 11
92.8154
 21
36.8569
  0
LINE
  8
0
 10
92.8154
 20
36.8569
 11
92.967
 21
37.0518
  0
LINE
  8
0
 10
92.967
 20
37.0518
 11
93.1737
 21
37.1868
  0
LINE
  8
0
 10
93.1737
 20
37.1868
 11
93.4131
 21
37.2474
  0
LINE
  8
0
 10
93.4131
 20
37.2474
 11
144.388
 21
37.2474
  0
LINE
  8
0
 10
144.388
 20
37.2474
 11
144.634
 21
37.2271
  0
LINE
  8
0
 10
144.634
 20
37.2271
 11
144.86
 21
37.1279
  0
LINE
  8
0
 10
144.86
 20
37.1279
 11
145.042
 21
36.9606
  0
LINE
  8
0
 10
145.042
 20
36.9606
 11
145.159
 21
36.7435
  0
LINE
  8
0
 10
145.159
 20
36.7435
 11
145.2
 21
36.5
  0
LINE
  8
0
 10
145.2
 20
36.5
 11
145.159
 21
36.2565
  0
LINE
  8
0
 10
145.159
 20
36.2565
 11
145.042
 21
36.0393
  0
LINE
  8
0
 10
145.042
 20
36.0393
 11
144.86
 21
35.8721
  0
LINE
  8
0
 10
144.86
 20
35.8721
 11
144.634
 21
35.7729
  0
LINE
  8
0
 10
144.634
 20
35.7729
 11
144.388
 21
35.7526
  0
LINE
  8
0
 10
144.388
 20
35.7526
 11
93.4131
 21
35.7526
  0
LINE
  8
0
 10
32.4381
 20
35.7526
 11
32.1987
 21
35.8132
  0
LINE
  8
0
 10
32.1987
 20
35.8132
 11
31.992
 21
35.9482
  0
LINE
  8
0
 10
31.992
 20
35.9482
 11
31.8404
 21
36.143
  0
LINE
  8
0
 10
31.8404
 20
36.143
 11
31.7602
 21
36.3766
  0
LINE
  8
0
 10
31.7602
 20
36.3766
 11
31.7602
 21
36.6234
  0
LINE
  8
0
 10
31.7602
 20
36.6234
 11
31.8404
 21
36.8569
  0
LINE
  8
0
 10
31.8404
 20
36.8569
 11
31.992
 21
37.0518
  0
LINE
  8
0
 10
31.992
 20
37.0518
 11
32.1987
 21
37.1868
  0
LINE
  8
0
 10
32.1987
 20
37.1868
 11
32.4381
 21
37.2474
  0
LINE
  8
0
 10
32.4381
 20
37.2474
 11
83.4131
 21
37.2474
  0
LINE
  8
0
 10
83.4131
 20
37.2474
 11
83.6591
 21
37.2271
  0
LINE
  8
0
 10
83.6591
 20
37.2271
 11
83.8852
 21
37.1279
  0
LINE
  8
0
 10
83.8852
 20
37.1279
 11
84.0668
 21
36.9606
  0
LINE
  8
0
 10
84.0668
 20
36.9606
 11
84.1844
 21
36.7435
  0
LINE
  8
0
 10
84.1844
 20
36.7435
 11
84.225
 21
36.5
  0
LINE
  8
0
 10
84.225
 20
36.5
 11
84.1844
 21
36.2565
  0
LINE
  8
0
 10
84.1844
 20
36.2565
 11
84.0668
 21
36.0393
  0
LINE
  8
0
 10
84.0668
 20
36.0393
 11
83.8852
 21
35.8721
  0
LINE
  8
0
 10
83.8852
 20
35.8721
 11
83.6591
 21
35.7729
  0
LINE
  8
0
 10
83.6591
 20
35.7729
 11
83.4131
 21
35.7526
  0
LINE
  8
0
 10
83.4131
 20
35.7526
 11
32.4381
 21
35.7526
  0
LINE
  8
0
 10
215.363
 20
35.7526
 11
215.124
 21
35.8132
  0
LINE
  8
0
 10
215.124
 20
35.8132
 11
214.917
 21
35.9482
  0
LINE
  8
0
 10
214.917
 20
35.9482
 11
214.765
 21
36.143
  0
LINE
  8
0
 10
214.765
 20
36.143
 11
214.685
 21
36.3766
  0
LINE
  8
0
 10
214.685
 20
36.3766
 11
214.685
 21
36.6234
  0
LINE
  8
0
 10
214.685
 20
36.6234
 11
214.765
 21
36.8569
  0
LINE
  8
0
 10
214.765
 20
36.8569
 11
214.917
 21
37.0518
  0
LINE
  8
0
 10
214.917
 20
37.0518
 11
215.124
 21
37.1868
  0
LINE
  8
0
 10
215.124
 20
37.1868
 11
215.363
 21
37.2474
  0
LINE
  8
0
 10
215.363
 20
37.2474
 11
266.338
 21
37.2474
  0
LINE
  8
0
 10
266.338
 20
37.2474
 11
266.584
 21
37.2271
  0
LINE
  8
0
 10
266.584
 20
37.2271
 11
266.81
 21
37.1279
  0
LINE
  8
0
 10
266.81
 20
37.1279
 11
266.992
 21
36.9606
  0
LINE
  8
0
 10
266.992
 20
36.9606
 11
267.109
 21
36.7435
  0
LINE
  8
0
 10
267.109
 20
36.7435
 11
267.15
 21
36.5
  0
LINE
  8
0
 10
267.15
 20
36.5
 11
267.109
 21
36.2565
  0
LINE
  8
0
 10
267.109
 20
36.2565
 11
266.992
 21
36.0393
  0
LINE
  8
0
 10
266.992
 20
36.0393
 11
266.81
 21
35.8721
  0
LINE
  8
0
 10
266.81
 20
35.8721
 11
266.584
 21
35.7729
  0
LINE
  8
0
 10
266.584
 20
35.7729
 11
266.338
 21
35.7526
  0
LINE
  8
0
 10
266.338
 20
35.7526
 11
215.363
 21
35.7526
  0
LINE
  8
0
 10
93.4131
 20
31.2526
 11
93.1737
 21
31.3132
  0
LINE
  8
0
 10
93.1737
 20
31.3132
 11
92.967
 21
31.4482
  0
LINE
  8
0
 10
92.967
 20
31.4482
 11
92.8154
 21
31.643
  0
LINE
  8
0
 10
92.8154
 20
31.643
 11
92.7352
 21
31.8765
  0
LINE
  8
0
 10
92.7352
 20
31.8765
 11
92.7352
 21
32.1234
  0
LINE
  8
0
 10
92.7352
 20
32.1234
 11
92.8154
 21
32.3569
  0
LINE
  8
0
 10
92.8154
 20
32.3569
 11
92.967
 21
32.5518
  0
LINE
  8
0
 10
92.967
 20
32.5518
 11
93.1737
 21
32.6868
  0
LINE
  8
0
 10
93.1737
 20
32.6868
 11
93.4131
 21
32.7474
  0
LINE
  8
0
 10
93.4131
 20
32.7474
 11
144.388
 21
32.7474
  0
LINE
  8
0
 10
144.388
 20
32.7474
 11
144.634
 21
32.7271
  0
LINE
  8
0
 10
144.634
 20
32.7271
 11
144.86
 21
32.6279
  0
LINE
  8
0
 10
144.86
 20
32.6279
 11
145.042
 21
32.4606
  0
LINE
  8
0
 10
145.042
 20
32.4606
 11
145.159
 21
32.2435
  0
LINE
  8
0
 10
145.159
 20
32.2435
 11
145.2
 21
32
  0
LINE
  8
0
 10
145.2
 20
32
 11
145.159
 21
31.7565
  0
LINE
  8
0
 10
145.159
 20
31.7565
 11
145.042
 21
31.5393
  0
LINE
  8
0
 10
145.042
 20
31.5393
 11
144.86
 21
31.3721
  0
LINE
  8
0
 10
144.86
 20
31.3721
 11
144.634
 21
31.2729
  0
LINE
  8
0
 10
144.634
 20
31.2729
 11
144.388
 21
31.2526
  0
LINE
  8
0
 10
144.388
 20
31.2526
 11
93.4131
 21
31.2526
  0
LINE
  8
0
 10
32.4381
 20
31.2526
 11
32.1987
 21
31.3132
  0
LINE
  8
0
 10
32.1987
 20
31.3132
 11
31.992
 21
31.4482
  0
LINE
  8
0
 10
31.992
 20
31.4482
 11
31.8404
 21
31.643
  0
LINE
  8
0
 10
31.8404
 20
31.643
 11
31.7602
 21
31.8765
  0
LINE
  8
0
 10
31.7602
 20
31.8765
 11
31.7602
 21
32.1234
  0
LINE
  8
0
 10
31.7602
 20
32.1234
 11
31.8404
 21
32.3569
  0
LINE
  8
0
 10
31.8404
 20
32.3569
 11
31.992
 21
32.5518
  0
LINE
  8
0
 10
31.992
 20
32.5518
 11
32.1987
 21
32.6868
  0
LINE
  8
0
 10
32.1987
 20
32.6868
 11
32.4381
 21
32.7474
  0
LINE
  8
0
 10
32.4381
 20
32.7474
 11
83.4131
 21
32.7474
  0
LINE
  8
0
 10
83.4131
 20
32.7474
 11
83.6591
 21
32.7271
  0
LINE
  8
0
 10
83.6591
 20
32.7271
 11
83.8852
 21
32.6279
  0
LINE
  8
0
 10
83.8852
 20
32.6279
 11
84.0668
 21
32.4606
  0
LINE
  8
0
 10
84.0668
 20
32.4606
 11
84.1844
 21
32.2435
  0
LINE
  8
0
 10
84.1844
 20
32.2435
 11
84.225
 21
32
  0
LINE
  8
0
 10
84.225
 20
32
 11
84.1844
 21
31.7565
  0
LINE
  8
0
 10
84.1844
 20
31.7565
 11
84.0668
 21
31.5393
  0
LINE
  8
0
 10
84.0668
 20
31.5393
 11
83.8852
 21
31.3721
  0
LINE
  8
0
 10
83.8852
 20
31.3721
 11
83.6591
 21
31.2729
  0
LINE
  8
0
 10
83.6591
 20
31.2729
 11
83.4131
 21
31.2526
  0
LINE
  8
0
 10
83.4131
 20
31.2526
 11
32.4381
 21
31.2526
  0
LINE
  8
0
 10
215.363
 20
31.2526
 11
215.124
 21
31.3132
  0
LINE
  8
0
 10
215.124
 20
31.3132
 11
214.917
 21
31.4482
  0
LINE
  8
0
 10
214.917
 20
31.4482
 11
214.765
 21
31.643
  0
LINE
  8
0
 10
214.765
 20
31.643
 11
214.685
 21
31.8765
  0
LINE
  8
0
 10
214.685
 20
31.8765
 11
214.685
 21
32.1234
  0
LINE
  8
0
 10
214.685
 20
32.1234
 11
214.765
 21
32.3569
  0
LINE
  8
0
 10
214.765
 20
32.3569
 11
214.917
 21
32.5518
  0
LINE
  8
0
 10
214.917
 20
32.5518
 11
215.124
 21
32.6868
  0
LINE
  8
0
 10
215.124
 20
32.6868
 11
215.363
 21
32.7474
  0
LINE
  8
0
 10
215.363
 20
32.7474
 11
266.338
 21
32.7474
  0
LINE
  8
0
 10
266.338
 20
32.7474
 11
266.584
 21
32.7271
  0
LINE
  8
0
 10
266.584
 20
32.7271
 11
266.81
 21
32.6279
  0
LINE
  8
0
 10
266.81
 20
32.6279
 11
266.992
 21
32.4606
  0
LINE
  8
0
 10
266.992
 20
32.4606
 11
267.109
 21
32.2435
  0
LINE
  8
0
 10
267.109
 20
32.2435
 11
267.15
 21
32
  0
LINE
  8
0
 10
267.15
 20
32
 11
267.109
 21
31.7565
  0
LINE
  8
0
 10
267.109
 20
31.7565
 11
266.992
 21
31.5393
  0
LINE
  8
0
 10
266.992
 20
31.5393
 11
266.81
 21
31.3721
  0
LINE
  8
0
 10
266.81
 20
31.3721
 11
266.584
 21
31.2729
  0
LINE
  8
0
 10
266.584
 20
31.2729
 11
266.338
 21
31.2526
  0
LINE
  8
0
 10
266.338
 20
31.2526
 11
215.363
 21
31.2526
  0
LINE
  8
0
 10
154.388
 20
31.2526
 11
154.149
 21
31.3132
  0
LINE
  8
0
 10
154.149
 20
31.3132
 11
153.942
 21
31.4482
  0
LINE
  8
0
 10
153.942
 20
31.4482
 11
153.79
 21
31.643
  0
LINE
  8
0
 10
153.79
 20
31.643
 11
153.71
 21
31.8765
  0
LINE
  8
0
 10
153.71
 20
31.8765
 11
153.71
 21
32.1234
  0
LINE
  8
0
 10
153.71
 20
32.1234
 11
153.79
 21
32.3569
  0
LINE
  8
0
 10
153.79
 20
32.3569
 11
153.942
 21
32.5518
  0
LINE
  8
0
 10
153.942
 20
32.5518
 11
154.149
 21
32.6868
  0
LINE
  8
0
 10
154.149
 20
32.6868
 11
154.388
 21
32.7474
  0
LINE
  8
0
 10
154.388
 20
32.7474
 11
205.363
 21
32.7474
  0
LINE
  8
0
 10
205.363
 20
32.7474
 11
205.609
 21
32.7271
  0
LINE
  8
0
 10
205.609
 20
32.7271
 11
205.835
 21
32.6279
  0
LINE
  8
0
 10
205.835
 20
32.6279
 11
206.017
 21
32.4606
  0
LINE
  8
0
 10
206.017
 20
32.4606
 11
206.134
 21
32.2435
  0
LINE
  8
0
 10
206.134
 20
32.2435
 11
206.175
 21
32
  0
LINE
  8
0
 10
206.175
 20
32
 11
206.134
 21
31.7565
  0
LINE
  8
0
 10
206.134
 20
31.7565
 11
206.017
 21
31.5393
  0
LINE
  8
0
 10
206.017
 20
31.5393
 11
205.835
 21
31.3721
  0
LINE
  8
0
 10
205.835
 20
31.3721
 11
205.609
 21
31.2729
  0
LINE
  8
0
 10
205.609
 20
31.2729
 11
205.363
 21
31.2526
  0
LINE
  8
0
 10
205.363
 20
31.2526
 11
154.388
 21
31.2526
  0
LINE
  8
0
 10
154.388
 20
26.7526
 11
154.149
 21
26.8132
  0
LINE
  8
0
 10
154.149
 20
26.8132
 11
153.942
 21
26.9482
  0
LINE
  8
0
 10
153.942
 20
26.9482
 11
153.79
 21
27.143
  0
LINE
  8
0
 10
153.79
 20
27.143
 11
153.71
 21
27.3765
  0
LINE
  8
0
 10
153.71
 20
27.3765
 11
153.71
 21
27.6234
  0
LINE
  8
0
 10
153.71
 20
27.6234
 11
153.79
 21
27.8569
  0
LINE
  8
0
 10
153.79
 20
27.8569
 11
153.942
 21
28.0518
  0
LINE
  8
0
 10
153.942
 20
28.0518
 11
154.149
 21
28.1868
  0
LINE
  8
0
 10
154.149
 20
28.1868
 11
154.388
 21
28.2474
  0
LINE
  8
0
 10
154.388
 20
28.2474
 11
205.363
 21
28.2474
  0
LINE
  8
0
 10
205.363
 20
28.2474
 11
205.609
 21
28.2271
  0
LINE
  8
0
 10
205.609
 20
28.2271
 11
205.835
 21
28.1279
  0
LINE
  8
0
 10
205.835
 20
28.1279
 11
206.017
 21
27.9606
  0
LINE
  8
0
 10
206.017
 20
27.9606
 11
206.134
 21
27.7435
  0
LINE
  8
0
 10
206.134
 20
27.7435
 11
206.175
 21
27.5
  0
LINE
  8
0
 10
206.175
 20
27.5
 11
206.134
 21
27.2565
  0
LINE
  8
0
 10
206.134
 20
27.2565
 11
206.017
 21
27.0393
  0
LINE
  8
0
 10
206.017
 20
27.0393
 11
205.835
 21
26.8721
  0
LINE
  8
0
 10
205.835
 20
26.8721
 11
205.609
 21
26.7729
  0
LINE
  8
0
 10
205.609
 20
26.7729
 11
205.363
 21
26.7526
  0
LINE
  8
0
 10
205.363
 20
26.7526
 11
154.388
 21
26.7526
  0
LINE
  8
0
 10
93.4131
 20
26.7526
 11
93.1737
 21
26.8132
  0
LINE
  8
0
 10
93.1737
 20
26.8132
 11
92.967
 21
26.9482
  0
LINE
  8
0
 10
92.967
 20
26.9482
 11
92.8154
 21
27.143
  0
LINE
  8
0
 10
92.8154
 20
27.143
 11
92.7352
 21
27.3765
  0
LINE
  8
0
 10
92.7352
 20
27.3765
 11
92.7352
 21
27.6234
  0
LINE
  8
0
 10
92.7352
 20
27.6234
 11
92.8154
 21
27.8569
  0
LINE
  8
0
 10
92.8154
 20
27.8569
 11
92.967
 21
28.0518
  0
LINE
  8
0
 10
92.967
 20
28.0518
 11
93.1737
 21
28.1868
  0
LINE
  8
0
 10
93.1737
 20
28.1868
 11
93.4131
 21
28.2474
  0
LINE
  8
0
 10
93.4131
 20
28.2474
 11
144.388
 21
28.2474
  0
LINE
  8
0
 10
144.388
 20
28.2474
 11
144.634
 21
28.2271
  0
LINE
  8
0
 10
144.634
 20
28.2271
 11
144.86
 21
28.1279
  0
LINE
  8
0
 10
144.86
 20
28.1279
 11
145.042
 21
27.9606
  0
LINE
  8
0
 10
145.042
 20
27.9606
 11
145.159
 21
27.7435
  0
LINE
  8
0
 10
145.159
 20
27.7435
 11
145.2
 21
27.5
  0
LINE
  8
0
 10
145.2
 20
27.5
 11
145.159
 21
27.2565
  0
LINE
  8
0
 10
145.159
 20
27.2565
 11
145.042
 21
27.0393
  0
LINE
  8
0
 10
145.042
 20
27.0393
 11
144.86
 21
26.8721
  0
LINE
  8
0
 10
144.86
 20
26.8721
 11
144.634
 21
26.7729
  0
LINE
  8
0
 10
144.634
 20
26.7729
 11
144.388
 21
26.7526
  0
LINE
  8
0
 10
144.388
 20
26.7526
 11
93.4131
 21
26.7526
  0
LINE
  8
0
 10
32.4381
 20
26.7526
 11
32.1987
 21
26.8132
  0
LINE
  8
0
 10
32.1987
 20
26.8132
 11
31.992
 21
26.9482
  0
LINE
  8
0
 10
31.992
 20
26.9482
 11
31.8404
 21
27.143
  0
LINE
  8
0
 10
31.8404
 20
27.143
 11
31.7602
 21
27.3765
  0
LINE
  8
0
 10
31.7602
 20
27.3765
 11
31.7602
 21
27.6234
  0
LINE
  8
0
 10
31.7602
 20
27.6234
 11
31.8404
 21
27.8569
  0
LINE
  8
0
 10
31.8404
 20
27.8569
 11
31.992
 21
28.0518
  0
LINE
  8
0
 10
31.992
 20
28.0518
 11
32.1987
 21
28.1868
  0
LINE
  8
0
 10
32.1987
 20
28.1868
 11
32.4381
 21
28.2474
  0
LINE
  8
0
 10
32.4381
 20
28.2474
 11
83.4131
 21
28.2474
  0
LINE
  8
0
 10
83.4131
 20
28.2474
 11
83.6591
 21
28.2271
  0
LINE
  8
0
 10
83.6591
 20
28.2271
 11
83.8852
 21
28.1279
  0
LINE
  8
0
 10
83.8852
 20
28.1279
 11
84.0668
 21
27.9606
  0
LINE
  8
0
 10
84.0668
 20
27.9606
 11
84.1844
 21
27.7435
  0
LINE
  8
0
 10
84.1844
 20
27.7435
 11
84.225
 21
27.5
  0
LINE
  8
0
 10
84.225
 20
27.5
 11
84.1844
 21
27.2565
  0
LINE
  8
0
 10
84.1844
 20
27.2565
 11
84.0668
 21
27.0393
  0
LINE
  8
0
 10
84.0668
 20
27.0393
 11
83.8852
 21
26.8721
  0
LINE
  8
0
 10
83.8852
 20
26.8721
 11
83.6591
 21
26.7729
  0
LINE
  8
0
 10
83.6591
 20
26.7729
 11
83.4131
 21
26.7526
  0
LINE
  8
0
 10
83.4131
 20
26.7526
 11
32.4381
 21
26.7526
  0
LINE
  8
0
 10
215.363
 20
26.7526
 11
215.124
 21
26.8132
  0
LINE
  8
0
 10
215.124
 20
26.8132
 11
214.917
 21
26.9482
  0
LINE
  8
0
 10
214.917
 20
26.9482
 11
214.765
 21
27.143
  0
LINE
  8
0
 10
214.765
 20
27.143
 11
214.685
 21
27.3765
  0
LINE
  8
0
 10
214.685
 20
27.3765
 11
214.685
 21
27.6234
  0
LINE
  8
0
 10
214.685
 20
27.6234
 11
214.765
 21
27.8569
  0
LINE
  8
0
 10
214.765
 20
27.8569
 11
214.917
 21
28.0518
  0
LINE
  8
0
 10
214.917
 20
28.0518
 11
215.124
 21
28.1868
  0
LINE
  8
0
 10
215.124
 20
28.1868
 11
215.363
 21
28.2474
  0
LINE
  8
0
 10
215.363
 20
28.2474
 11
266.338
 21
28.2474
  0
LINE
  8
0
 10
266.338
 20
28.2474
 11
266.584
 21
28.2271
  0
LINE
  8
0
 10
266.584
 20
28.2271
 11
266.81
 21
28.1279
  0
LINE
  8
0
 10
266.81
 20
28.1279
 11
266.992
 21
27.9606
  0
LINE
  8
0
 10
266.992
 20
27.9606
 11
267.109
 21
27.7435
  0
LINE
  8
0
 10
267.109
 20
27.7435
 11
267.15
 21
27.5
  0
LINE
  8
0
 10
267.15
 20
27.5
 11
267.109
 21
27.2565
  0
LINE
  8
0
 10
267.109
 20
27.2565
 11
266.992
 21
27.0393
  0
LINE
  8
0
 10
266.992
 20
27.0393
 11
266.81
 21
26.8721
  0
LINE
  8
0
 10
266.81
 20
26.8721
 11
266.584
 21
26.7729
  0
LINE
  8
0
 10
266.584
 20
26.7729
 11
266.338
 21
26.7526
  0
LINE
  8
0
 10
266.338
 20
26.7526
 11
215.363
 21
26.7526
  0
LINE
  8
0
 10
215.363
 20
22.2526
 11
215.124
 21
22.3132
  0
LINE
  8
0
 10
215.124
 20
22.3132
 11
214.917
 21
22.4482
  0
LINE
  8
0
 10
214.917
 20
22.4482
 11
214.765
 21
22.643
  0
LINE
  8
0
 10
214.765
 20
22.643
 11
214.685
 21
22.8765
  0
LINE
  8
0
 10
214.685
 20
22.8765
 11
214.685
 21
23.1234
  0
LINE
  8
0
 10
214.685
 20
23.1234
 11
214.765
 21
23.3569
  0
LINE
  8
0
 10
214.765
 20
23.3569
 11
214.917
 21
23.5518
  0
LINE
  8
0
 10
214.917
 20
23.5518
 11
215.124
 21
23.6868
  0
LINE
  8
0
 10
215.124
 20
23.6868
 11
215.363
 21
23.7474
  0
LINE
  8
0
 10
215.363
 20
23.7474
 11
266.338
 21
23.7474
  0
LINE
  8
0
 10
266.338
 20
23.7474
 11
266.584
 21
23.7271
  0
LINE
  8
0
 10
266.584
 20
23.7271
 11
266.81
 21
23.6279
  0
LINE
  8
0
 10
266.81
 20
23.6279
 11
266.992
 21
23.4606
  0
LINE
  8
0
 10
266.992
 20
23.4606
 11
267.109
 21
23.2435
  0
LINE
  8
0
 10
267.109
 20
23.2435
 11
267.15
 21
23
  0
LINE
  8
0
 10
267.15
 20
23
 11
267.109
 21
22.7565
  0
LINE
  8
0
 10
267.109
 20
22.7565
 11
266.992
 21
22.5393
  0
LINE
  8
0
 10
266.992
 20
22.5393
 11
266.81
 21
22.3721
  0
LINE
  8
0
 10
266.81
 20
22.3721
 11
266.584
 21
22.2729
  0
LINE
  8
0
 10
266.584
 20
22.2729
 11
266.338
 21
22.2526
  0
LINE
  8
0
 10
266.338
 20
22.2526
 11
215.363
 21
22.2526
  0
LINE
  8
0
 10
154.388
 20
22.2526
 11
154.149
 21
22.3132
  0
LINE
  8
0
 10
154.149
 20
22.3132
 11
153.942
 21
22.4482
  0
LINE
  8
0
 10
153.942
 20
22.4482
 11
153.79
 21
22.643
  0
LINE
  8
0
 10
153.79
 20
22.643
 11
153.71
 21
22.8765
  0
LINE
  8
0
 10
153.71
 20
22.8765
 11
153.71
 21
23.1234
  0
LINE
  8
0
 10
153.71
 20
23.1234
 11
153.79
 21
23.3569
  0
LINE
  8
0
 10
153.79
 20
23.3569
 11
153.942
 21
23.5518
  0
LINE
  8
0
 10
153.942
 20
23.5518
 11
154.149
 21
23.6868
  0
LINE
  8
0
 10
154.149
 20
23.6868
 11
154.388
 21
23.7474
  0
LINE
  8
0
 10
154.388
 20
23.7474
 11
205.363
 21
23.7474
  0
LINE
  8
0
 10
205.363
 20
23.7474
 11
205.609
 21
23.7271
  0
LINE
  8
0
 10
205.609
 20
23.7271
 11
205.835
 21
23.6279
  0
LINE
  8
0
 10
205.835
 20
23.6279
 11
206.017
 21
23.4606
  0
LINE
  8
0
 10
206.017
 20
23.4606
 11
206.134
 21
23.2435
  0
LINE
  8
0
 10
206.134
 20
23.2435
 11
206.175
 21
23
  0
LINE
  8
0
 10
206.175
 20
23
 11
206.134
 21
22.7565
  0
LINE
  8
0
 10
206.134
 20
22.7565
 11
206.017
 21
22.5393
  0
LINE
  8
0
 10
206.017
 20
22.5393
 11
205.835
 21
22.3721
  0
LINE
  8
0
 10
205.835
 20
22.3721
 11
205.609
 21
22.2729
  0
LINE
  8
0
 10
205.609
 20
22.2729
 11
205.363
 21
22.2526
  0
LINE
  8
0
 10
205.363
 20
22.2526
 11
154.388
 21
22.2526
  0
LINE
  8
0
 10
93.4131
 20
22.2526
 11
93.1737
 21
22.3132
  0
LINE
  8
0
 10
93.1737
 20
22.3132
 11
92.967
 21
22.4482
  0
LINE
  8
0
 10
92.967
 20
22.4482
 11
92.8154
 21
22.643
  0
LINE
  8
0
 10
92.8154
 20
22.643
 11
92.7352
 21
22.8765
  0
LINE
  8
0
 10
92.7352
 20
22.8765
 11
92.7352
 21
23.1234
  0
LINE
  8
0
 10
92.7352
 20
23.1234
 11
92.8154
 21
23.3569
  0
LINE
  8
0
 10
92.8154
 20
23.3569
 11
92.967
 21
23.5518
  0
LINE
  8
0
 10
92.967
 20
23.5518
 11
93.1737
 21
23.6868
  0
LINE
  8
0
 10
93.1737
 20
23.6868
 11
93.4131
 21
23.7474
  0
LINE
  8
0
 10
93.4131
 20
23.7474
 11
144.388
 21
23.7474
  0
LINE
  8
0
 10
144.388
 20
23.7474
 11
144.634
 21
23.7271
  0
LINE
  8
0
 10
144.634
 20
23.7271
 11
144.86
 21
23.6279
  0
LINE
  8
0
 10
144.86
 20
23.6279
 11
145.042
 21
23.4606
  0
LINE
  8
0
 10
145.042
 20
23.4606
 11
145.159
 21
23.2435
  0
LINE
  8
0
 10
145.159
 20
23.2435
 11
145.2
 21
23
  0
LINE
  8
0
 10
145.2
 20
23
 11
145.159
 21
22.7565
  0
LINE
  8
0
 10
145.159
 20
22.7565
 11
145.042
 21
22.5393
  0
LINE
  8
0
 10
145.042
 20
22.5393
 11
144.86
 21
22.3721
  0
LINE
  8
0
 10
144.86
 20
22.3721
 11
144.634
 21
22.2729
  0
LINE
  8
0
 10
144.634
 20
22.2729
 11
144.388
 21
22.2526
  0
LINE
  8
0
 10
144.388
 20
22.2526
 11
93.4131
 21
22.2526
  0
LINE
  8
0
 10
32.4381
 20
22.2526
 11
32.1987
 21
22.3132
  0
LINE
  8
0
 10
32.1987
 20
22.3132
 11
31.992
 21
22.4482
  0
LINE
  8
0
 10
31.992
 20
22.4482
 11
31.8404
 21
22.643
  0
LINE
  8
0
 10
31.8404
 20
22.643
 11
31.7602
 21
22.8765
  0
LINE
  8
0
 10
31.7602
 20
22.8765
 11
31.7602
 21
23.1234
  0
LINE
  8
0
 10
31.7602
 20
23.1234
 11
31.8404
 21
23.3569
  0
LINE
  8
0
 10
31.8404
 20
23.3569
 11
31.992
 21
23.5518
  0
LINE
  8
0
 10
31.992
 20
23.5518
 11
32.1987
 21
23.6868
  0
LINE
  8
0
 10
32.1987
 20
23.6868
 11
32.4381
 21
23.7474
  0
LINE
  8
0
 10
32.4381
 20
23.7474
 11
83.4131
 21
23.7474
  0
LINE
  8
0
 10
83.4131
 20
23.7474
 11
83.6591
 21
23.7271
  0
LINE
  8
0
 10
83.6591
 20
23.7271
 11
83.8852
 21
23.6279
  0
LINE
  8
0
 10
83.8852
 20
23.6279
 11
84.0668
 21
23.4606
  0
LINE
  8
0
 10
84.0668
 20
23.4606
 11
84.1844
 21
23.2435
  0
LINE
  8
0
 10
84.1844
 20
23.2435
 11
84.225
 21
23
  0
LINE
  8
0
 10
84.225
 20
23
 11
84.1844
 21
22.7565
  0
LINE
  8
0
 10
84.1844
 20
22.7565
 11
84.0668
 21
22.5393
  0
LINE
  8
0
 10
84.0668
 20
22.5393
 11
83.8852
 21
22.3721
  0
LINE
  8
0
 10
83.8852
 20
22.3721
 11
83.6591
 21
22.2729
  0
LINE
  8
0
 10
83.6591
 20
22.2729
 11
83.4131
 21
22.2526
  0
LINE
  8
0
 10
83.4131
 20
22.2526
 11
32.4381
 21
22.2526
  0
LINE
  8
0
 10
215.363
 20
17.7526
 11
215.124
 21
17.8132
  0
LINE
  8
0
 10
215.124
 20
17.8132
 11
214.917
 21
17.9482
  0
LINE
  8
0
 10
214.917
 20
17.9482
 11
214.765
 21
18.143
  0
LINE
  8
0
 10
214.765
 20
18.143
 11
214.685
 21
18.3765
  0
LINE
  8
0
 10
214.685
 20
18.3765
 11
214.685
 21
18.6234
  0
LINE
  8
0
 10
214.685
 20
18.6234
 11
214.765
 21
18.8569
  0
LINE
  8
0
 10
214.765
 20
18.8569
 11
214.917
 21
19.0518
  0
LINE
  8
0
 10
214.917
 20
19.0518
 11
215.124
 21
19.1868
  0
LINE
  8
0
 10
215.124
 20
19.1868
 11
215.363
 21
19.2474
  0
LINE
  8
0
 10
215.363
 20
19.2474
 11
266.338
 21
19.2474
  0
LINE
  8
0
 10
266.338
 20
19.2474
 11
266.584
 21
19.2271
  0
LINE
  8
0
 10
266.584
 20
19.2271
 11
266.81
 21
19.1279
  0
LINE
  8
0
 10
266.81
 20
19.1279
 11
266.992
 21
18.9606
  0
LINE
  8
0
 10
266.992
 20
18.9606
 11
267.109
 21
18.7435
  0
LINE
  8
0
 10
267.109
 20
18.7435
 11
267.15
 21
18.5
  0
LINE
  8
0
 10
267.15
 20
18.5
 11
267.109
 21
18.2565
  0
LINE
  8
0
 10
267.109
 20
18.2565
 11
266.992
 21
18.0393
  0
LINE
  8
0
 10
266.992
 20
18.0393
 11
266.81
 21
17.8721
  0
LINE
  8
0
 10
266.81
 20
17.8721
 11
266.584
 21
17.7729
  0
LINE
  8
0
 10
266.584
 20
17.7729
 11
266.338
 21
17.7526
  0
LINE
  8
0
 10
266.338
 20
17.7526
 11
215.363
 21
17.7526
  0
LINE
  8
0
 10
32.4381
 20
17.7526
 11
32.1987
 21
17.8132
  0
LINE
  8
0
 10
32.1987
 20
17.8132
 11
31.992
 21
17.9482
  0
LINE
  8
0
 10
31.992
 20
17.9482
 11
31.8404
 21
18.143
  0
LINE
  8
0
 10
31.8404
 20
18.143
 11
31.7602
 21
18.3765
  0
LINE
  8
0
 10
31.7602
 20
18.3765
 11
31.7602
 21
18.6234
  0
LINE
  8
0
 10
31.7602
 20
18.6234
 11
31.8404
 21
18.8569
  0
LINE
  8
0
 10
31.8404
 20
18.8569
 11
31.992
 21
19.0518
  0
LINE
  8
0
 10
31.992
 20
19.0518
 11
32.1987
 21
19.1868
  0
LINE
  8
0
 10
32.1987
 20
19.1868
 11
32.4381
 21
19.2474
  0
LINE
  8
0
 10
32.4381
 20
19.2474
 11
83.4131
 21
19.2474
  0
LINE
  8
0
 10
83.4131
 20
19.2474
 11
83.6591
 21
19.2271
  0
LINE
  8
0
 10
83.6591
 20
19.2271
 11
83.8852
 21
19.1279
  0
LINE
  8
0
 10
83.8852
 20
19.1279
 11
84.0668
 21
18.9606
  0
LINE
  8
0
 10
84.0668
 20
18.9606
 11
84.1844
 21
18.7435
  0
LINE
  8
0
 10
84.1844
 20
18.7435
 11
84.225
 21
18.5
  0
LINE
  8
0
 10
84.225
 20
18.5
 11
84.1844
 21
18.2565
  0
LINE
  8
0
 10
84.1844
 20
18.2565
 11
84.0668
 21
18.0393
  0
LINE
  8
0
 10
84.0668
 20
18.0393
 11
83.8852
 21
17.8721
  0
LINE
  8
0
 10
83.8852
 20
17.8721
 11
83.6591
 21
17.7729
  0
LINE
  8
0
 10
83.6591
 20
17.7729
 11
83.4131
 21
17.7526
  0
LINE
  8
0
 10
83.4131
 20
17.7526
 11
32.4381
 21
17.7526
  0
LINE
  8
0
 10
154.388
 20
17.7526
 11
154.149
 21
17.8132
  0
LINE
  8
0
 10
154.149
 20
17.8132
 11
153.942
 21
17.9482
  0
LINE
  8
0
 10
153.942
 20
17.9482
 11
153.79
 21
18.143
  0
LINE
  8
0
 10
153.79
 20
18.143
 11
153.71
 21
18.3765
  0
LINE
  8
0
 10
153.71
 20
18.3765
 11
153.71
 21
18.6234
  0
LINE
  8
0
 10
153.71
 20
18.6234
 11
153.79
 21
18.8569
  0
LINE
  8
0
 10
153.79
 20
18.8569
 11
153.942
 21
19.0518
  0
LINE
  8
0
 10
153.942
 20
19.0518
 11
154.149
 21
19.1868
  0
LINE
  8
0
 10
154.149
 20
19.1868
 11
154.388
 21
19.2474
  0
LINE
  8
0
 10
154.388
 20
19.2474
 11
205.363
 21
19.2474
  0
LINE
  8
0
 10
205.363
 20
19.2474
 11
205.609
 21
19.2271
  0
LINE
  8
0
 10
205.609
 20
19.2271
 11
205.835
 21
19.1279
  0
LINE
  8
0
 10
205.835
 20
19.1279
 11
206.017
 21
18.9606
  0
LINE
  8
0
 10
206.017
 20
18.9606
 11
206.134
 21
18.7435
  0
LINE
  8
0
 10
206.134
 20
18.7435
 11
206.175
 21
18.5
  0
LINE
  8
0
 10
206.175
 20
18.5
 11
206.134
 21
18.2565
  0
LINE
  8
0
 10
206.134
 20
18.2565
 11
206.017
 21
18.0393
  0
LINE
  8
0
 10
206.017
 20
18.0393
 11
205.835
 21
17.8721
  0
LINE
  8
0
 10
205.835
 20
17.8721
 11
205.609
 21
17.7729
  0
LINE
  8
0
 10
205.609
 20
17.7729
 11
205.363
 21
17.7526
  0
LINE
  8
0
 10
205.363
 20
17.7526
 11
154.388
 21
17.7526
  0
LINE
  8
0
 10
93.4131
 20
17.7526
 11
93.1737
 21
17.8132
  0
LINE
  8
0
 10
93.1737
 20
17.8132
 11
92.967
 21
17.9482
  0
LINE
  8
0
 10
92.967
 20
17.9482
 11
92.8154
 21
18.143
  0
LINE
  8
0
 10
92.8154
 20
18.143
 11
92.7352
 21
18.3765
  0
LINE
  8
0
 10
92.7352
 20
18.3765
 11
92.7352
 21
18.6234
  0
LINE
  8
0
 10
92.7352
 20
18.6234
 11
92.8154
 21
18.8569
  0
LINE
  8
0
 10
92.8154
 20
18.8569
 11
92.967
 21
19.0518
  0
LINE
  8
0
 10
92.967
 20
19.0518
 11
93.1737
 21
19.1868
  0
LINE
  8
0
 10
93.1737
 20
19.1868
 11
93.4131
 21
19.2474
  0
LINE
  8
0
 10
93.4131
 20
19.2474
 11
144.388
 21
19.2474
  0
LINE
  8
0
 10
144.388
 20
19.2474
 11
144.634
 21
19.2271
  0
LINE
  8
0
 10
144.634
 20
19.2271
 11
144.86
 21
19.1279
  0
LINE
  8
0
 10
144.86
 20
19.1279
 11
145.042
 21
18.9606
  0
LINE
  8
0
 10
145.042
 20
18.9606
 11
145.159
 21
18.7435
  0
LINE
  8
0
 10
145.159
 20
18.7435
 11
145.2
 21
18.5
  0
LINE
  8
0
 10
145.2
 20
18.5
 11
145.159
 21
18.2565
  0
LINE
  8
0
 10
145.159
 20
18.2565
 11
145.042
 21
18.0393
  0
LINE
  8
0
 10
145.042
 20
18.0393
 11
144.86
 21
17.8721
  0
LINE
  8
0
 10
144.86
 20
17.8721
 11
144.634
 21
17.7729
  0
LINE
  8
0
 10
144.634
 20
17.7729
 11
144.388
 21
17.7526
  0
LINE
  8
0
 10
144.388
 20
17.7526
 11
93.4131
 21
17.7526
  0
LINE
  8
0
 10
4.31406
 20
13.3102
 11
4.07001
 21
13.3553
  0
LINE
  8
0
 10
4.07001
 20
13.3553
 11
3.83511
 21
13.4354
  0
LINE
  8
0
 10
3.83511
 20
13.4354
 11
3.6144
 21
13.5489
  0
LINE
  8
0
 10
3.6144
 20
13.5489
 11
3.41255
 21
13.6933
  0
LINE
  8
0
 10
3.41255
 20
13.6933
 11
3.23389
 21
13.8656
  0
LINE
  8
0
 10
3.23389
 20
13.8656
 11
3.0822
 21
14.062
  0
LINE
  8
0
 10
3.0822
 20
14.062
 11
2.96072
 21
14.2784
  0
LINE
  8
0
 10
2.96072
 20
14.2784
 11
2.87207
 21
14.5102
  0
LINE
  8
0
 10
2.87207
 20
14.5102
 11
2.81812
 21
14.7525
  0
LINE
  8
0
 10
2.81812
 20
14.7525
 11
2.79999
 21
15
  0
LINE
  8
0
 10
2.79999
 20
15
 11
2.81812
 21
15.2475
  0
LINE
  8
0
 10
2.81812
 20
15.2475
 11
2.87207
 21
15.4898
  0
LINE
  8
0
 10
2.87207
 20
15.4898
 11
2.96072
 21
15.7216
  0
LINE
  8
0
 10
2.96072
 20
15.7216
 11
3.0822
 21
15.938
  0
LINE
  8
0
 10
3.0822
 20
15.938
 11
3.23389
 21
16.1344
  0
LINE
  8
0
 10
3.23389
 20
16.1344
 11
3.41255
 21
16.3067
  0
LINE
  8
0
 10
3.41255
 20
16.3067
 11
3.6144
 21
16.4511
  0
LINE
  8
0
 10
3.6144
 20
16.4511
 11
3.83511
 21
16.5646
  0
LINE
  8
0
 10
3.83511
 20
16.5646
 11
4.07001
 21
16.6447
  0
LINE
  8
0
 10
4.07001
 20
16.6447
 11
4.31406
 21
16.6898
  0
LINE
  8
0
 10
4.31406
 20
16.6898
 11
4.56209
 21
16.6989
  0
LINE
  8
0
 10
4.56209
 20
16.6989
 11
4.80878
 21
16.6717
  0
LINE
  8
0
 10
4.80878
 20
16.6717
 11
5.04889
 21
16.6089
  0
LINE
  8
0
 10
5.04889
 20
16.6089
 11
5.2773
 21
16.5119
  0
LINE
  8
0
 10
5.2773
 20
16.5119
 11
5.48915
 21
16.3826
  0
LINE
  8
0
 10
5.48915
 20
16.3826
 11
5.67992
 21
16.2238
  0
LINE
  8
0
 10
5.67992
 20
16.2238
 11
5.84554
 21
16.039
  0
LINE
  8
0
 10
5.84554
 20
16.039
 11
5.98248
 21
15.832
  0
LINE
  8
0
 10
5.98248
 20
15.832
 11
6.08781
 21
15.6073
  0
LINE
  8
0
 10
6.08781
 20
15.6073
 11
6.15932
 21
15.3696
  0
LINE
  8
0
 10
6.15932
 20
15.3696
 11
6.19547
 21
15.1241
  0
LINE
  8
0
 10
6.19547
 20
15.1241
 11
6.19547
 21
14.8759
  0
LINE
  8
0
 10
6.19547
 20
14.8759
 11
6.15932
 21
14.6304
  0
LINE
  8
0
 10
6.15932
 20
14.6304
 11
6.08781
 21
14.3927
  0
LINE
  8
0
 10
6.08781
 20
14.3927
 11
5.98248
 21
14.168
  0
LINE
  8
0
 10
5.98248
 20
14.168
 11
5.84554
 21
13.961
  0
LINE
  8
0
 10
5.84554
 20
13.961
 11
5.67992
 21
13.7762
  0
LINE
  8
0
 10
5.67992
 20
13.7762
 11
5.48915
 21
13.6174
  0
LINE
  8
0
 10
5.48915
 20
13.6174
 11
5.2773
 21
13.4881
  0
LINE
  8
0
 10
5.2773
 20
13.4881
 11
5.04889
 21
13.3911
  0
LINE
  8
0
 10
5.04889
 20
13.3911
 11
4.80878
 21
13.3283
  0
LINE
  8
0
 10
4.80878
 20
13.3283
 11
4.56209
 21
13.3011
  0
LINE
  8
0
 10
4.56209
 20
13.3011
 11
4.31406
 21
13.3102
  0
LINE
  8
0
 10
294.091
 20
13.3283
 11
293.851
 21
13.3911
  0
LINE
  8
0
 10
293.851
 20
13.3911
 11
293.623
 21
13.4881
  0
LINE
  8
0
 10
293.623
 20
13.4881
 11
293.411
 21
13.6174
  0
LINE
  8
0
 10
293.411
 20
13.6174
 11
293.22
 21
13.7762
  0
LINE
  8
0
 10
293.22
 20
13.7762
 11
293.054
 21
13.961
  0
LINE
  8
0
 10
293.054
 20
13.961
 11
292.918
 21
14.168
  0
LINE
  8
0
 10
292.918
 20
14.168
 11
292.812
 21
14.3927
  0
LINE
  8
0
 10
292.812
 20
14.3927
 11
292.741
 21
14.6304
  0
LINE
  8
0
 10
292.741
 20
14.6304
 11
292.705
 21
14.8759
  0
LINE
  8
0
 10
292.705
 20
14.8759
 11
292.705
 21
15.1241
  0
LINE
  8
0
 10
292.705
 20
15.1241
 11
292.741
 21
15.3696
  0
LINE
  8
0
 10
292.741
 20
15.3696
 11
292.812
 21
15.6073
  0
LINE
  8
0
 10
292.812
 20
15.6073
 11
292.918
 21
15.832
  0
LINE
  8
0
 10
292.918
 20
15.832
 11
293.054
 21
16.039
  0
LINE
  8
0
 10
293.054
 20
16.039
 11
293.22
 21
16.2238
  0
LINE
  8
0
 10
293.22
 20
16.2238
 11
293.411
 21
16.3826
  0
LINE
  8
0
 10
293.411
 20
16.3826
 11
293.623
 21
16.5119
  0
LINE
  8
0
 10
293.623
 20
16.5119
 11
293.851
 21
16.6089
  0
LINE
  8
0
 10
293.851
 20
16.6089
 11
294.091
 21
16.6717
  0
LINE
  8
0
 10
294.091
 20
16.6717
 11
294.338
 21
16.6989
  0
LINE
  8
0
 10
294.338
 20
16.6989
 11
294.586
 21
16.6898
  0
LINE
  8
0
 10
294.586
 20
16.6898
 11
294.83
 21
16.6447
  0
LINE
  8
0
 10
294.83
 20
16.6447
 11
295.065
 21
16.5646
  0
LINE
  8
0
 10
295.065
 20
16.5646
 11
295.286
 21
16.4511
  0
LINE
  8
0
 10
295.286
 20
16.4511
 11
295.487
 21
16.3067
  0
LINE
  8
0
 10
295.487
 20
16.3067
 11
295.666
 21
16.1344
  0
LINE
  8
0
 10
295.666
 20
16.1344
 11
295.818
 21
15.938
  0
LINE
  8
0
 10
295.818
 20
15.938
 11
295.939
 21
15.7216
  0
LINE
  8
0
 10
295.939
 20
15.7216
 11
296.028
 21
15.4898
  0
LINE
  8
0
 10
296.028
 20
15.4898
 11
296.082
 21
15.2475
  0
LINE
  8
0
 10
296.082
 20
15.2475
 11
296.1
 21
15
  0
LINE
  8
0
 10
296.1
 20
15
 11
296.082
 21
14.7525
  0
LINE
  8
0
 10
296.082
 20
14.7525
 11
296.028
 21
14.5102
  0
LINE
  8
0
 10
296.028
 20
14.5102
 11
295.939
 21
14.2784
  0
LINE
  8
0
 10
295.939
 20
14.2784
 11
295.818
 21
14.062
  0
LINE
  8
0
 10
295.818
 20
14.062
 11
295.666
 21
13.8656
  0
LINE
  8
0
 10
295.666
 20
13.8656
 11
295.487
 21
13.6933
  0
LINE
  8
0
 10
295.487
 20
13.6933
 11
295.286
 21
13.5489
  0
LINE
  8
0
 10
295.286
 20
13.5489
 11
295.065
 21
13.4354
  0
LINE
  8
0
 10
295.065
 20
13.4354
 11
294.83
 21
13.3553
  0
LINE
  8
0
 10
294.83
 20
13.3553
 11
294.586
 21
13.3102
  0
LINE
  8
0
 10
294.586
 20
13.3102
 11
294.338
 21
13.3011
  0
LINE
  8
0
 10
294.338
 20
13.3011
 11
294.091
 21
13.3283
  0
LINE
  8
0
 10
93.4131
 20
13.2525
 11
93.1737
 21
13.3132
  0
LINE
  8
0
 10
93.1737
 20
13.3132
 11
92.967
 21
13.4482
  0
LINE
  8
0
 10
92.967
 20
13.4482
 11
92.8154
 21
13.643
  0
LINE
  8
0
 10
92.8154
 20
13.643
 11
92.7352
 21
13.8765
  0
LINE
  8
0
 10
92.7352
 20
13.8765
 11
92.7352
 21
14.1234
  0
LINE
  8
0
 10
92.7352
 20
14.1234
 11
92.8154
 21
14.3569
  0
LINE
  8
0
 10
92.8154
 20
14.3569
 11
92.967
 21
14.5518
  0
LINE
  8
0
 10
92.967
 20
14.5518
 11
93.1737
 21
14.6868
  0
LINE
  8
0
 10
93.1737
 20
14.6868
 11
93.4131
 21
14.7474
  0
LINE
  8
0
 10
93.4131
 20
14.7474
 11
144.388
 21
14.7474
  0
LINE
  8
0
 10
144.388
 20
14.7474
 11
144.634
 21
14.7271
  0
LINE
  8
0
 10
144.634
 20
14.7271
 11
144.86
 21
14.6279
  0
LINE
  8
0
 10
144.86
 20
14.6279
 11
145.042
 21
14.4606
  0
LINE
  8
0
 10
145.042
 20
14.4606
 11
145.159
 21
14.2435
  0
LINE
  8
0
 10
145.159
 20
14.2435
 11
145.2
 21
14
  0
LINE
  8
0
 10
145.2
 20
14
 11
145.159
 21
13.7565
  0
LINE
  8
0
 10
145.159
 20
13.7565
 11
145.042
 21
13.5393
  0
LINE
  8
0
 10
145.042
 20
13.5393
 11
144.86
 21
13.3721
  0
LINE
  8
0
 10
144.86
 20
13.3721
 11
144.634
 21
13.2729
  0
LINE
  8
0
 10
144.634
 20
13.2729
 11
144.388
 21
13.2525
  0
LINE
  8
0
 10
144.388
 20
13.2525
 11
93.4131
 21
13.2525
  0
LINE
  8
0
 10
154.388
 20
13.2525
 11
154.149
 21
13.3132
  0
LINE
  8
0
 10
154.149
 20
13.3132
 11
153.942
 21
13.4482
  0
LINE
  8
0
 10
153.942
 20
13.4482
 11
153.79
 21
13.643
  0
LINE
  8
0
 10
153.79
 20
13.643
 11
153.71
 21
13.8765
  0
LINE
  8
0
 10
153.71
 20
13.8765
 11
153.71
 21
14.1234
  0
LINE
  8
0
 10
153.71
 20
14.1234
 11
153.79
 21
14.3569
  0
LINE
  8
0
 10
153.79
 20
14.3569
 11
153.942
 21
14.5518
  0
LINE
  8
0
 10
153.942
 20
14.5518
 11
154.149
 21
14.6868
  0
LINE
  8
0
 10
154.149
 20
14.6868
 11
154.388
 21
14.7474
  0
LINE
  8
0
 10
154.388
 20
14.7474
 11
205.363
 21
14.7474
  0
LINE
  8
0
 10
205.363
 20
14.7474
 11
205.609
 21
14.7271
  0
LINE
  8
0
 10
205.609
 20
14.7271
 11
205.835
 21
14.6279
  0
LINE
  8
0
 10
205.835
 20
14.6279
 11
206.017
 21
14.4606
  0
LINE
  8
0
 10
206.017
 20
14.4606
 11
206.134
 21
14.2435
  0
LINE
  8
0
 10
206.134
 20
14.2435
 11
206.175
 21
14
  0
LINE
  8
0
 10
206.175
 20
14
 11
206.134
 21
13.7565
  0
LINE
  8
0
 10
206.134
 20
13.7565
 11
206.017
 21
13.5393
  0
LINE
  8
0
 10
206.017
 20
13.5393
 11
205.835
 21
13.3721
  0
LINE
  8
0
 10
205.835
 20
13.3721
 11
205.609
 21
13.2729
  0
LINE
  8
0
 10
205.609
 20
13.2729
 11
205.363
 21
13.2525
  0
LINE
  8
0
 10
205.363
 20
13.2525
 11
154.388
 21
13.2525
  0
LINE
  8
0
 10
32.4381
 20
13.2525
 11
32.1987
 21
13.3132
  0
LINE
  8
0
 10
32.1987
 20
13.3132
 11
31.992
 21
13.4482
  0
LINE
  8
0
 10
31.992
 20
13.4482
 11
31.8404
 21
13.643
  0
LINE
  8
0
 10
31.8404
 20
13.643
 11
31.7602
 21
13.8765
  0
LINE
  8
0
 10
31.7602
 20
13.8765
 11
31.7602
 21
14.1234
  0
LINE
  8
0
 10
31.7602
 20
14.1234
 11
31.8404
 21
14.3569
  0
LINE
  8
0
 10
31.8404
 20
14.3569
 11
31.992
 21
14.5518
  0
LINE
  8
0
 10
31.992
 20
14.5518
 11
32.1987
 21
14.6868
  0
LINE
  8
0
 10
32.1987
 20
14.6868
 11
32.4381
 21
14.7474
  0
LINE
  8
0
 10
32.4381
 20
14.7474
 11
83.4131
 21
14.7474
  0
LINE
  8
0
 10
83.4131
 20
14.7474
 11
83.6591
 21
14.7271
  0
LINE
  8
0
 10
83.6591
 20
14.7271
 11
83.8852
 21
14.6279
  0
LINE
  8
0
 10
83.8852
 20
14.6279
 11
84.0668
 21
14.4606
  0
LINE
  8
0
 10
84.0668
 20
14.4606
 11
84.1844
 21
14.2435
  0
LINE
  8
0
 10
84.1844
 20
14.2435
 11
84.225
 21
14
  0
LINE
  8
0
 10
84.225
 20
14
 11
84.1844
 21
13.7565
  0
LINE
  8
0
 10
84.1844
 20
13.7565
 11
84.0668
 21
13.5393
  0
LINE
  8
0
 10
84.0668
 20
13.5393
 11
83.8852
 21
13.3721
  0
LINE
  8
0
 10
83.8852
 20
13.3721
 11
83.6591
 21
13.2729
  0
LINE
  8
0
 10
83.6591
 20
13.2729
 11
83.4131
 21
13.2525
  0
LINE
  8
0
 10
83.4131
 20
13.2525
 11
32.4381
 21
13.2525
  0
LINE
  8
0
 10
215.363
 20
13.2525
 11
215.124
 21
13.3132
  0
LINE
  8
0
 10
215.124
 20
13.3132
 11
214.917
 21
13.4482
  0
LINE
  8
0
 10
214.917
 20
13.4482
 11
214.765
 21
13.643
  0
LINE
  8
0
 10
214.765
 20
13.643
 11
214.685
 21
13.8765
  0
LINE
  8
0
 10
214.685
 20
13.8765
 11
214.685
 21
14.1234
  0
LINE
  8
0
 10
214.685
 20
14.1234
 11
214.765
 21
14.3569
  0
LINE
  8
0
 10
214.765
 20
14.3569
 11
214.917
 21
14.5518
  0
LINE
  8
0
 10
214.917
 20
14.5518
 11
215.124
 21
14.6868
  0
LINE
  8
0
 10
215.124
 20
14.6868
 11
215.363
 21
14.7474
  0
LINE
  8
0
 10
215.363
 20
14.7474
 11
266.338
 21
14.7474
  0
LINE
  8
0
 10
266.338
 20
14.7474
 11
266.584
 21
14.7271
  0
LINE
  8
0
 10
266.584
 20
14.7271
 11
266.81
 21
14.6279
  0
LINE
  8
0
 10
266.81
 20
14.6279
 11
266.992
 21
14.4606
  0
LINE
  8
0
 10
266.992
 20
14.4606
 11
267.109
 21
14.2435
  0
LINE
  8
0
 10
267.109
 20
14.2435
 11
267.15
 21
14
  0
LINE
  8
0
 10
267.15
 20
14
 11
267.109
 21
13.7565
  0
LINE
  8
0
 10
267.109
 20
13.7565
 11
266.992
 21
13.5393
  0
LINE
  8
0
 10
266.992
 20
13.5393
 11
266.81
 21
13.3721
  0
LINE
  8
0
 10
266.81
 20
13.3721
 11
266.584
 21
13.2729
  0
LINE
  8
0
 10
266.584
 20
13.2729
 11
266.338
 21
13.2525
  0
LINE
  8
0
 10
266.338
 20
13.2525
 11
215.363
 21
13.2525
  0
LINE
  8
0
 10
215.363
 20
8.75255
 11
215.124
 21
8.81316
  0
LINE
  8
0
 10
215.124
 20
8.81316
 11
214.917
 21
8.9482
  0
LINE
  8
0
 10
214.917
 20
8.9482
 11
214.765
 21
9.14304
  0
LINE
  8
0
 10
214.765
 20
9.14304
 11
214.685
 21
9.37654
  0
LINE
  8
0
 10
214.685
 20
9.37654
 11
214.685
 21
9.62344
  0
LINE
  8
0
 10
214.685
 20
9.62344
 11
214.765
 21
9.85695
  0
LINE
  8
0
 10
214.765
 20
9.85695
 11
214.917
 21
10.0518
  0
LINE
  8
0
 10
214.917
 20
10.0518
 11
215.124
 21
10.1868
  0
LINE
  8
0
 10
215.124
 20
10.1868
 11
215.363
 21
10.2474
  0
LINE
  8
0
 10
215.363
 20
10.2474
 11
266.338
 21
10.2474
  0
LINE
  8
0
 10
266.338
 20
10.2474
 11
266.584
 21
10.2271
  0
LINE
  8
0
 10
266.584
 20
10.2271
 11
266.81
 21
10.1279
  0
LINE
  8
0
 10
266.81
 20
10.1279
 11
266.992
 21
9.96065
  0
LINE
  8
0
 10
266.992
 20
9.96065
 11
267.109
 21
9.74352
  0
LINE
  8
0
 10
267.109
 20
9.74352
 11
267.15
 21
9.5
  0
LINE
  8
0
 10
267.15
 20
9.5
 11
267.109
 21
9.25647
  0
LINE
  8
0
 10
267.109
 20
9.25647
 11
266.992
 21
9.03934
  0
LINE
  8
0
 10
266.992
 20
9.03934
 11
266.81
 21
8.87212
  0
LINE
  8
0
 10
266.81
 20
8.87212
 11
266.584
 21
8.77295
  0
LINE
  8
0
 10
266.584
 20
8.77295
 11
266.338
 21
8.75255
  0
LINE
  8
0
 10
266.338
 20
8.75255
 11
215.363
 21
8.75255
  0
LINE
  8
0
 10
32.4381
 20
8.75255
 11
32.1987
 21
8.81316
  0
LINE
  8
0
 10
32.1987
 20
8.81316
 11
31.992
 21
8.9482
  0
LINE
  8
0
 10
31.992
 20
8.9482
 11
31.8404
 21
9.14304
  0
LINE
  8
0
 10
31.8404
 20
9.14304
 11
31.7602
 21
9.37654
  0
LINE
  8
0
 10
31.7602
 20
9.37654
 11
31.7602
 21
9.62344
  0
LINE
  8
0
 10
31.7602
 20
9.62344
 11
31.8404
 21
9.85695
  0
LINE
  8
0
 10
31.8404
 20
9.85695
 11
31.992
 21
10.0518
  0
LINE
  8
0
 10
31.992
 20
10.0518
 11
32.1987
 21
10.1868
  0
LINE
  8
0
 10
32.1987
 20
10.1868
 11
32.4381
 21
10.2474
  0
LINE
  8
0
 10
32.4381
 20
10.2474
 11
83.4131
 21
10.2474
  0
LINE
  8
0
 10
83.4131
 20
10.2474
 11
83.6591
 21
10.2271
  0
LINE
  8
0
 10
83.6591
 20
10.2271
 11
83.8852
 21
10.1279
  0
LINE
  8
0
 10
83.8852
 20
10.1279
 11
84.0668
 21
9.96065
  0
LINE
  8
0
 10
84.0668
 20
9.96065
 11
84.1844
 21
9.74352
  0
LINE
  8
0
 10
84.1844
 20
9.74352
 11
84.225
 21
9.5
  0
LINE
  8
0
 10
84.225
 20
9.5
 11
84.1844
 21
9.25647
  0
LINE
  8
0
 10
84.1844
 20
9.25647
 11
84.0668
 21
9.03934
  0
LINE
  8
0
 10
84.0668
 20
9.03934
 11
83.8852
 21
8.87212
  0
LINE
  8
0
 10
83.8852
 20
8.87212
 11
83.6591
 21
8.77295
  0
LINE
  8
0
 10
83.6591
 20
8.77295
 11
83.4131
 21
8.75255
  0
LINE
  8
0
 10
83.4131
 20
8.75255
 11
32.4381
 21
8.75255
  0
LINE
  8
0
 10
154.388
 20
8.75255
 11
154.149
 21
8.81316
  0
LINE
  8
0
 10
154.149
 20
8.81316
 11
153.942
 21
8.9482
  0
LINE
  8
0
 10
153.942
 20
8.9482
 11
153.79
 21
9.14304
  0
LINE
  8
0
 10
153.79
 20
9.14304
 11
153.71
 21
9.37654
  0
LINE
  8
0
 10
153.71
 20
9.37654
 11
153.71
 21
9.62344
  0
LINE
  8
0
 10
153.71
 20
9.62344
 11
153.79
 21
9.85695
  0
LINE
  8
0
 10
153.79
 20
9.85695
 11
153.942
 21
10.0518
  0
LINE
  8
0
 10
153.942
 20
10.0518
 11
154.149
 21
10.1868
  0
LINE
  8
0
 10
154.149
 20
10.1868
 11
154.388
 21
10.2474
  0
LINE
  8
0
 10
154.388
 20
10.2474
 11
205.363
 21
10.2474
  0
LINE
  8
0
 10
205.363
 20
10.2474
 11
205.609
 21
10.2271
  0
LINE
  8
0
 10
205.609
 20
10.2271
 11
205.835
 21
10.1279
  0
LINE
  8
0
 10
205.835
 20
10.1279
 11
206.017
 21
9.96065
  0
LINE
  8
0
 10
206.017
 20
9.96065
 11
206.134
 21
9.74352
  0
LINE
  8
0
 10
206.134
 20
9.74352
 11
206.175
 21
9.5
  0
LINE
  8
0
 10
206.175
 20
9.5
 11
206.134
 21
9.25647
  0
LINE
  8
0
 10
206.134
 20
9.25647
 11
206.017
 21
9.03934
  0
LINE
  8
0
 10
206.017
 20
9.03934
 11
205.835
 21
8.87212
  0
LINE
  8
0
 10
205.835
 20
8.87212
 11
205.609
 21
8.77295
  0
LINE
  8
0
 10
205.609
 20
8.77295
 11
205.363
 21
8.75255
  0
LINE
  8
0
 10
205.363
 20
8.75255
 11
154.388
 21
8.75255
  0
LINE
  8
0
 10
93.4131
 20
8.75255
 11
93.1737
 21
8.81316
  0
LINE
  8
0
 10
93.1737
 20
8.81316
 11
92.967
 21
8.9482
  0
LINE
  8
0
 10
92.967
 20
8.9482
 11
92.8154
 21
9.14304
  0
LINE
  8
0
 10
92.8154
 20
9.14304
 11
92.7352
 21
9.37654
  0
LINE
  8
0
 10
92.7352
 20
9.37654
 11
92.7352
 21
9.62344
  0
LINE
  8
0
 10
92.7352
 20
9.62344
 11
92.8154
 21
9.85695
  0
LINE
  8
0
 10
92.8154
 20
9.85695
 11
92.967
 21
10.0518
  0
LINE
  8
0
 10
92.967
 20
10.0518
 11
93.1737
 21
10.1868
  0
LINE
  8
0
 10
93.1737
 20
10.1868
 11
93.4131
 21
10.2474
  0
LINE
  8
0
 10
93.4131
 20
10.2474
 11
144.388
 21
10.2474
  0
LINE
  8
0
 10
144.388
 20
10.2474
 11
144.634
 21
10.2271
  0
LINE
  8
0
 10
144.634
 20
10.2271
 11
144.86
 21
10.1279
  0
LINE
  8
0
 10
144.86
 20
10.1279
 11
145.042
 21
9.96065
  0
LINE
  8
0
 10
145.042
 20
9.96065
 11
145.159
 21
9.74352
  0
LINE
  8
0
 10
145.159
 20
9.74352
 11
145.2
 21
9.5
  0
LINE
  8
0
 10
145.2
 20
9.5
 11
145.159
 21
9.25647
  0
LINE
  8
0
 10
145.159
 20
9.25647
 11
145.042
 21
9.03934
  0
LINE
  8
0
 10
145.042
 20
9.03934
 11
144.86
 21
8.87212
  0
LINE
  8
0
 10
144.86
 20
8.87212
 11
144.634
 21
8.77295
  0
LINE
  8
0
 10
144.634
 20
8.77295
 11
144.388
 21
8.75255
  0
LINE
  8
0
 10
144.388
 20
8.75255
 11
93.4131
 21
8.75255
  0
ENDSEC
  0
SECTION
  2
OBJECTS
  0
DICTIONARY
  0
ENDSEC
  0
EOF
