  0
SECTION
  2
BLOCKS
  0
ENDSEC
  0
SECTION
  2
ENTITIES
  0
LINE
  8
0
 10
298.65
 20
58.75
 11
286.387
 21
58.75
  0
LINE
  8
0
 10
286.387
 20
58.75
 11
286.359
 21
58.216
  0
LINE
  8
0
 10
286.359
 20
58.216
 11
286.236
 21
57.4407
  0
LINE
  8
0
 10
286.236
 20
57.4407
 11
286.05
 21
56.7474
  0
LINE
  8
0
 10
286.05
 20
56.7474
 11
298.65
 21
56.7474
  0
LINE
  8
0
 10
298.65
 20
56.7474
 11
298.65
 21
58.75
  0
LINE
  8
0
 10
298.65
 20
5.25255
 11
49.9381
 21
5.25255
  0
LINE
  8
0
 10
49.9381
 20
5.25255
 11
49.6987
 21
5.31316
  0
LINE
  8
0
 10
49.6987
 20
5.31316
 11
49.492
 21
5.4482
  0
LINE
  8
0
 10
49.492
 20
5.4482
 11
49.3404
 21
5.64304
  0
LINE
  8
0
 10
49.3404
 20
5.64304
 11
49.2602
 21
5.87654
  0
LINE
  8
0
 10
49.2602
 20
5.87654
 11
49.2602
 21
6.12344
  0
LINE
  8
0
 10
49.2602
 20
6.12344
 11
49.3404
 21
6.35695
  0
LINE
  8
0
 10
49.3404
 20
6.35695
 11
49.492
 21
6.55179
  0
LINE
  8
0
 10
49.492
 20
6.55179
 11
49.6987
 21
6.68683
  0
LINE
  8
0
 10
49.6987
 20
6.68683
 11
49.9381
 21
6.74744
  0
LINE
  8
0
 10
49.9381
 20
6.74744
 11
298.65
 21
6.74744
  0
LINE
  8
0
 10
298.65
 20
6.74744
 11
298.65
 21
7.75255
  0
LINE
  8
0
 10
298.65
 20
7.75255
 11
49.9381
 21
7.75255
  0
LINE
  8
0
 10
49.9381
 20
7.75255
 11
49.6987
 21
7.81316
  0
LINE
  8
0
 10
49.6987
 20
7.81316
 11
49.492
 21
7.9482
  0
LINE
  8
0
 10
49.492
 20
7.9482
 11
49.3404
 21
8.14304
  0
LINE
  8
0
 10
49.3404
 20
8.14304
 11
49.2602
 21
8.37654
  0
LINE
  8
0
 10
49.2602
 20
8.37654
 11
49.2602
 21
8.62344
  0
LINE
  8
0
 10
49.2602
 20
8.62344
 11
49.3404
 21
8.85695
  0
LINE
  8
0
 10
49.3404
 20
8.85695
 11
49.492
 21
9.05179
  0
LINE
  8
0
 10
49.492
 20
9.05179
 11
49.6987
 21
9.18683
  0
LINE
  8
0
 10
49.6987
 20
9.18683
 11
49.9381
 21
9.24744
  0
LINE
  8
0
 10
49.9381
 20
9.24744
 11
298.65
 21
9.24744
  0
LINE
  8
0
 10
298.65
 20
9.24744
 11
298.65
 21
10.2525
  0
LINE
  8
0
 10
298.65
 20
10.2525
 11
49.9381
 21
10.2525
  0
LINE
  8
0
 10
49.9381
 20
10.2525
 11
49.6987
 21
10.3132
  0
LINE
  8
0
 10
49.6987
 20
10.3132
 11
49.492
 21
10.4482
  0
LINE
  8
0
 10
49.492
 20
10.4482
 11
49.3404
 21
10.643
  0
LINE
  8
0
 10
49.3404
 20
10.643
 11
49.2602
 21
10.8765
  0
LINE
  8
0
 10
49.2602
 20
10.8765
 11
49.2602
 21
11.1234
  0
LINE
  8
0
 10
49.2602
 20
11.1234
 11
49.3404
 21
11.3569
  0
LINE
  8
0
 10
49.3404
 20
11.3569
 11
49.492
 21
11.5518
  0
LINE
  8
0
 10
49.492
 20
11.5518
 11
49.6987
 21
11.6868
  0
LINE
  8
0
 10
49.6987
 20
11.6868
 11
49.9381
 21
11.7474
  0
LINE
  8
0
 10
49.9381
 20
11.7474
 11
298.65
 21
11.7474
  0
LINE
  8
0
 10
298.65
 20
11.7474
 11
298.65
 21
12.7525
  0
LINE
  8
0
 10
298.65
 20
12.7525
 11
49.9381
 21
12.7525
  0
LINE
  8
0
 10
49.9381
 20
12.7525
 11
49.6987
 21
12.8132
  0
LINE
  8
0
 10
49.6987
 20
12.8132
 11
49.492
 21
12.9482
  0
LINE
  8
0
 10
49.492
 20
12.9482
 11
49.3404
 21
13.143
  0
LINE
  8
0
 10
49.3404
 20
13.143
 11
49.2602
 21
13.3765
  0
LINE
  8
0
 10
49.2602
 20
13.3765
 11
49.2602
 21
13.6234
  0
LINE
  8
0
 10
49.2602
 20
13.6234
 11
49.3404
 21
13.8569
  0
LINE
  8
0
 10
49.3404
 20
13.8569
 11
49.492
 21
14.0518
  0
LINE
  8
0
 10
49.492
 20
14.0518
 11
49.6987
 21
14.1868
  0
LINE
  8
0
 10
49.6987
 20
14.1868
 11
49.9381
 21
14.2474
  0
LINE
  8
0
 10
49.9381
 20
14.2474
 11
292.88
 21
14.2474
  0
LINE
  8
0
 10
292.88
 20
14.2474
 11
292.812
 21
14.3927
  0
LINE
  8
0
 10
292.812
 20
14.3927
 11
292.741
 21
14.6304
  0
LINE
  8
0
 10
292.741
 20
14.6304
 11
292.705
 21
14.8759
  0
LINE
  8
0
 10
292.705
 20
14.8759
 11
292.705
 21
15.1241
  0
LINE
  8
0
 10
292.705
 20
15.1241
 11
292.723
 21
15.2525
  0
LINE
  8
0
 10
292.723
 20
15.2525
 11
49.9381
 21
15.2525
  0
LINE
  8
0
 10
49.9381
 20
15.2525
 11
49.6987
 21
15.3132
  0
LINE
  8
0
 10
49.6987
 20
15.3132
 11
49.492
 21
15.4482
  0
LINE
  8
0
 10
49.492
 20
15.4482
 11
49.3404
 21
15.643
  0
LINE
  8
0
 10
49.3404
 20
15.643
 11
49.2602
 21
15.8765
  0
LINE
  8
0
 10
49.2602
 20
15.8765
 11
49.2602
 21
16.1234
  0
LINE
  8
0
 10
49.2602
 20
16.1234
 11
49.3404
 21
16.3569
  0
LINE
  8
0
 10
49.3404
 20
16.3569
 11
49.492
 21
16.5518
  0
LINE
  8
0
 10
49.492
 20
16.5518
 11
49.6987
 21
16.6868
  0
LINE
  8
0
 10
49.6987
 20
16.6868
 11
49.9381
 21
16.7474
  0
LINE
  8
0
 10
49.9381
 20
16.7474
 11
298.65
 21
16.7474
  0
LINE
  8
0
 10
298.65
 20
16.7474
 11
298.65
 21
17.7526
  0
LINE
  8
0
 10
298.65
 20
17.7526
 11
49.9381
 21
17.7526
  0
LINE
  8
0
 10
49.9381
 20
17.7526
 11
49.6987
 21
17.8132
  0
LINE
  8
0
 10
49.6987
 20
17.8132
 11
49.492
 21
17.9482
  0
LINE
  8
0
 10
49.492
 20
17.9482
 11
49.3404
 21
18.143
  0
LINE
  8
0
 10
49.3404
 20
18.143
 11
49.2602
 21
18.3765
  0
LINE
  8
0
 10
49.2602
 20
18.3765
 11
49.2602
 21
18.6234
  0
LINE
  8
0
 10
49.2602
 20
18.6234
 11
49.3404
 21
18.8569
  0
LINE
  8
0
 10
49.3404
 20
18.8569
 11
49.492
 21
19.0518
  0
LINE
  8
0
 10
49.492
 20
19.0518
 11
49.6987
 21
19.1868
  0
LINE
  8
0
 10
49.6987
 20
19.1868
 11
49.9381
 21
19.2474
  0
LINE
  8
0
 10
49.9381
 20
19.2474
 11
298.65
 21
19.2474
  0
LINE
  8
0
 10
298.65
 20
19.2474
 11
298.65
 21
20.2526
  0
LINE
  8
0
 10
298.65
 20
20.2526
 11
49.9381
 21
20.2526
  0
LINE
  8
0
 10
49.9381
 20
20.2526
 11
49.6987
 21
20.3132
  0
LINE
  8
0
 10
49.6987
 20
20.3132
 11
49.492
 21
20.4482
  0
LINE
  8
0
 10
49.492
 20
20.4482
 11
49.3404
 21
20.643
  0
LINE
  8
0
 10
49.3404
 20
20.643
 11
49.2602
 21
20.8765
  0
LINE
  8
0
 10
49.2602
 20
20.8765
 11
49.2602
 21
21.1234
  0
LINE
  8
0
 10
49.2602
 20
21.1234
 11
49.3404
 21
21.3569
  0
LINE
  8
0
 10
49.3404
 20
21.3569
 11
49.492
 21
21.5518
  0
LINE
  8
0
 10
49.492
 20
21.5518
 11
49.6987
 21
21.6868
  0
LINE
  8
0
 10
49.6987
 20
21.6868
 11
49.9381
 21
21.7474
  0
LINE
  8
0
 10
49.9381
 20
21.7474
 11
298.65
 21
21.7474
  0
LINE
  8
0
 10
298.65
 20
21.7474
 11
298.65
 21
22.7526
  0
LINE
  8
0
 10
298.65
 20
22.7526
 11
49.9381
 21
22.7526
  0
LINE
  8
0
 10
49.9381
 20
22.7526
 11
49.6987
 21
22.8132
  0
LINE
  8
0
 10
49.6987
 20
22.8132
 11
49.492
 21
22.9482
  0
LINE
  8
0
 10
49.492
 20
22.9482
 11
49.3404
 21
23.143
  0
LINE
  8
0
 10
49.3404
 20
23.143
 11
49.2602
 21
23.3765
  0
LINE
  8
0
 10
49.2602
 20
23.3765
 11
49.2602
 21
23.6234
  0
LINE
  8
0
 10
49.2602
 20
23.6234
 11
49.3404
 21
23.8569
  0
LINE
  8
0
 10
49.3404
 20
23.8569
 11
49.492
 21
24.0518
  0
LINE
  8
0
 10
49.492
 20
24.0518
 11
49.6987
 21
24.1868
  0
LINE
  8
0
 10
49.6987
 20
24.1868
 11
49.9381
 21
24.2474
  0
LINE
  8
0
 10
49.9381
 20
24.2474
 11
298.65
 21
24.2474
  0
LINE
  8
0
 10
298.65
 20
24.2474
 11
298.65
 21
25.2526
  0
LINE
  8
0
 10
298.65
 20
25.2526
 11
49.9381
 21
25.2526
  0
LINE
  8
0
 10
49.9381
 20
25.2526
 11
49.6987
 21
25.3132
  0
LINE
  8
0
 10
49.6987
 20
25.3132
 11
49.492
 21
25.4482
  0
LINE
  8
0
 10
49.492
 20
25.4482
 11
49.3404
 21
25.643
  0
LINE
  8
0
 10
49.3404
 20
25.643
 11
49.2602
 21
25.8765
  0
LINE
  8
0
 10
49.2602
 20
25.8765
 11
49.2602
 21
26.1234
  0
LINE
  8
0
 10
49.2602
 20
26.1234
 11
49.3404
 21
26.3569
  0
LINE
  8
0
 10
49.3404
 20
26.3569
 11
49.492
 21
26.5518
  0
LINE
  8
0
 10
49.492
 20
26.5518
 11
49.6987
 21
26.6868
  0
LINE
  8
0
 10
49.6987
 20
26.6868
 11
49.9381
 21
26.7474
  0
LINE
  8
0
 10
49.9381
 20
26.7474
 11
298.65
 21
26.7474
  0
LINE
  8
0
 10
298.65
 20
26.7474
 11
298.65
 21
27.7526
  0
LINE
  8
0
 10
298.65
 20
27.7526
 11
49.9381
 21
27.7526
  0
LINE
  8
0
 10
49.9381
 20
27.7526
 11
49.6987
 21
27.8132
  0
LINE
  8
0
 10
49.6987
 20
27.8132
 11
49.492
 21
27.9482
  0
LINE
  8
0
 10
49.492
 20
27.9482
 11
49.3404
 21
28.143
  0
LINE
  8
0
 10
49.3404
 20
28.143
 11
49.2602
 21
28.3765
  0
LINE
  8
0
 10
49.2602
 20
28.3765
 11
49.2602
 21
28.6234
  0
LINE
  8
0
 10
49.2602
 20
28.6234
 11
49.3404
 21
28.8569
  0
LINE
  8
0
 10
49.3404
 20
28.8569
 11
49.492
 21
29.0518
  0
LINE
  8
0
 10
49.492
 20
29.0518
 11
49.6987
 21
29.1868
  0
LINE
  8
0
 10
49.6987
 20
29.1868
 11
49.9381
 21
29.2474
  0
LINE
  8
0
 10
49.9381
 20
29.2474
 11
298.65
 21
29.2474
  0
LINE
  8
0
 10
298.65
 20
29.2474
 11
298.65
 21
30.2526
  0
LINE
  8
0
 10
298.65
 20
30.2526
 11
49.9381
 21
30.2526
  0
LINE
  8
0
 10
49.9381
 20
30.2526
 11
49.6987
 21
30.3132
  0
LINE
  8
0
 10
49.6987
 20
30.3132
 11
49.492
 21
30.4482
  0
LINE
  8
0
 10
49.492
 20
30.4482
 11
49.3404
 21
30.643
  0
LINE
  8
0
 10
49.3404
 20
30.643
 11
49.2602
 21
30.8765
  0
LINE
  8
0
 10
49.2602
 20
30.8765
 11
49.2602
 21
31.1234
  0
LINE
  8
0
 10
49.2602
 20
31.1234
 11
49.3404
 21
31.3569
  0
LINE
  8
0
 10
49.3404
 20
31.3569
 11
49.492
 21
31.5518
  0
LINE
  8
0
 10
49.492
 20
31.5518
 11
49.6987
 21
31.6868
  0
LINE
  8
0
 10
49.6987
 20
31.6868
 11
49.9381
 21
31.7474
  0
LINE
  8
0
 10
49.9381
 20
31.7474
 11
298.65
 21
31.7474
  0
LINE
  8
0
 10
298.65
 20
31.7474
 11
298.65
 21
32.7526
  0
LINE
  8
0
 10
298.65
 20
32.7526
 11
49.9381
 21
32.7526
  0
LINE
  8
0
 10
49.9381
 20
32.7526
 11
49.6987
 21
32.8132
  0
LINE
  8
0
 10
49.6987
 20
32.8132
 11
49.492
 21
32.9482
  0
LINE
  8
0
 10
49.492
 20
32.9482
 11
49.3404
 21
33.143
  0
LINE
  8
0
 10
49.3404
 20
33.143
 11
49.2602
 21
33.3766
  0
LINE
  8
0
 10
49.2602
 20
33.3766
 11
49.2602
 21
33.6234
  0
LINE
  8
0
 10
49.2602
 20
33.6234
 11
49.3404
 21
33.8569
  0
LINE
  8
0
 10
49.3404
 20
33.8569
 11
49.492
 21
34.0518
  0
LINE
  8
0
 10
49.492
 20
34.0518
 11
49.6987
 21
34.1868
  0
LINE
  8
0
 10
49.6987
 20
34.1868
 11
49.9381
 21
34.2474
  0
LINE
  8
0
 10
49.9381
 20
34.2474
 11
298.65
 21
34.2474
  0
LINE
  8
0
 10
298.65
 20
34.2474
 11
298.65
 21
35.2526
  0
LINE
  8
0
 10
298.65
 20
35.2526
 11
49.9381
 21
35.2526
  0
LINE
  8
0
 10
49.9381
 20
35.2526
 11
49.6987
 21
35.3132
  0
LINE
  8
0
 10
49.6987
 20
35.3132
 11
49.492
 21
35.4482
  0
LINE
  8
0
 10
49.492
 20
35.4482
 11
49.3404
 21
35.643
  0
LINE
  8
0
 10
49.3404
 20
35.643
 11
49.2602
 21
35.8766
  0
LINE
  8
0
 10
49.2602
 20
35.8766
 11
49.2602
 21
36.1234
  0
LINE
  8
0
 10
49.2602
 20
36.1234
 11
49.3404
 21
36.3569
  0
LINE
  8
0
 10
49.3404
 20
36.3569
 11
49.492
 21
36.5518
  0
LINE
  8
0
 10
49.492
 20
36.5518
 11
49.6987
 21
36.6868
  0
LINE
  8
0
 10
49.6987
 20
36.6868
 11
49.9381
 21
36.7474
  0
LINE
  8
0
 10
49.9381
 20
36.7474
 11
298.65
 21
36.7474
  0
LINE
  8
0
 10
298.65
 20
36.7474
 11
298.65
 21
37.7526
  0
LINE
  8
0
 10
298.65
 20
37.7526
 11
49.9381
 21
37.7526
  0
LINE
  8
0
 10
49.9381
 20
37.7526
 11
49.6987
 21
37.8132
  0
LINE
  8
0
 10
49.6987
 20
37.8132
 11
49.492
 21
37.9482
  0
LINE
  8
0
 10
49.492
 20
37.9482
 11
49.3404
 21
38.143
  0
LINE
  8
0
 10
49.3404
 20
38.143
 11
49.2602
 21
38.3766
  0
LINE
  8
0
 10
49.2602
 20
38.3766
 11
49.2602
 21
38.6234
  0
LINE
  8
0
 10
49.2602
 20
38.6234
 11
49.3404
 21
38.8569
  0
LINE
  8
0
 10
49.3404
 20
38.8569
 11
49.492
 21
39.0518
  0
LINE
  8
0
 10
49.492
 20
39.0518
 11
49.6987
 21
39.1868
  0
LINE
  8
0
 10
49.6987
 20
39.1868
 11
49.9381
 21
39.2474
  0
LINE
  8
0
 10
49.9381
 20
39.2474
 11
298.65
 21
39.2474
  0
LINE
  8
0
 10
298.65
 20
39.2474
 11
298.65
 21
40.2526
  0
LINE
  8
0
 10
298.65
 20
40.2526
 11
49.9381
 21
40.2526
  0
LINE
  8
0
 10
49.9381
 20
40.2526
 11
49.6987
 21
40.3132
  0
LINE
  8
0
 10
49.6987
 20
40.3132
 11
49.492
 21
40.4482
  0
LINE
  8
0
 10
49.492
 20
40.4482
 11
49.3404
 21
40.643
  0
LINE
  8
0
 10
49.3404
 20
40.643
 11
49.2602
 21
40.8766
  0
LINE
  8
0
 10
49.2602
 20
40.8766
 11
49.2602
 21
41.1234
  0
LINE
  8
0
 10
49.2602
 20
41.1234
 11
49.3404
 21
41.3569
  0
LINE
  8
0
 10
49.3404
 20
41.3569
 11
49.492
 21
41.5518
  0
LINE
  8
0
 10
49.492
 20
41.5518
 11
49.6987
 21
41.6868
  0
LINE
  8
0
 10
49.6987
 20
41.6868
 11
49.9381
 21
41.7474
  0
LINE
  8
0
 10
49.9381
 20
41.7474
 11
298.65
 21
41.7474
  0
LINE
  8
0
 10
298.65
 20
41.7474
 11
298.65
 21
42.7526
  0
LINE
  8
0
 10
298.65
 20
42.7526
 11
295.549
 21
42.7526
  0
LINE
  8
0
 10
295.549
 20
42.7526
 11
295.487
 21
42.6933
  0
LINE
  8
0
 10
295.487
 20
42.6933
 11
295.286
 21
42.5489
  0
LINE
  8
0
 10
295.286
 20
42.5489
 11
295.065
 21
42.4354
  0
LINE
  8
0
 10
295.065
 20
42.4354
 11
294.83
 21
42.3553
  0
LINE
  8
0
 10
294.83
 20
42.3553
 11
294.586
 21
42.3102
  0
LINE
  8
0
 10
294.586
 20
42.3102
 11
294.338
 21
42.3011
  0
LINE
  8
0
 10
294.338
 20
42.3011
 11
294.091
 21
42.3283
  0
LINE
  8
0
 10
294.091
 20
42.3283
 11
293.851
 21
42.3911
  0
LINE
  8
0
 10
293.851
 20
42.3911
 11
293.623
 21
42.4881
  0
LINE
  8
0
 10
293.623
 20
42.4881
 11
293.411
 21
42.6174
  0
LINE
  8
0
 10
293.411
 20
42.6174
 11
293.248
 21
42.7526
  0
LINE
  8
0
 10
293.248
 20
42.7526
 11
49.9381
 21
42.7526
  0
LINE
  8
0
 10
49.9381
 20
42.7526
 11
49.6987
 21
42.8132
  0
LINE
  8
0
 10
49.6987
 20
42.8132
 11
49.492
 21
42.9482
  0
LINE
  8
0
 10
49.492
 20
42.9482
 11
49.3404
 21
43.143
  0
LINE
  8
0
 10
49.3404
 20
43.143
 11
49.2602
 21
43.3766
  0
LINE
  8
0
 10
49.2602
 20
43.3766
 11
49.2602
 21
43.6234
  0
LINE
  8
0
 10
49.2602
 20
43.6234
 11
49.3404
 21
43.8569
  0
LINE
  8
0
 10
49.3404
 20
43.8569
 11
49.492
 21
44.0518
  0
LINE
  8
0
 10
49.492
 20
44.0518
 11
49.6987
 21
44.1868
  0
LINE
  8
0
 10
49.6987
 20
44.1868
 11
49.9381
 21
44.2474
  0
LINE
  8
0
 10
49.9381
 20
44.2474
 11
292.723
 21
44.2474
  0
LINE
  8
0
 10
292.723
 20
44.2474
 11
292.741
 21
44.3696
  0
LINE
  8
0
 10
292.741
 20
44.3696
 11
292.812
 21
44.6073
  0
LINE
  8
0
 10
292.812
 20
44.6073
 11
292.918
 21
44.832
  0
LINE
  8
0
 10
292.918
 20
44.832
 11
293.054
 21
45.039
  0
LINE
  8
0
 10
293.054
 20
45.039
 11
293.22
 21
45.2238
  0
LINE
  8
0
 10
293.22
 20
45.2238
 11
293.255
 21
45.2526
  0
LINE
  8
0
 10
293.255
 20
45.2526
 11
49.9381
 21
45.2526
  0
LINE
  8
0
 10
49.9381
 20
45.2526
 11
49.6987
 21
45.3132
  0
LINE
  8
0
 10
49.6987
 20
45.3132
 11
49.492
 21
45.4482
  0
LINE
  8
0
 10
49.492
 20
45.4482
 11
49.3404
 21
45.643
  0
LINE
  8
0
 10
49.3404
 20
45.643
 11
49.2602
 21
45.8766
  0
LINE
  8
0
 10
49.2602
 20
45.8766
 11
49.2602
 21
46.1234
  0
LINE
  8
0
 10
49.2602
 20
46.1234
 11
49.3404
 21
46.3569
  0
LINE
  8
0
 10
49.3404
 20
46.3569
 11
49.492
 21
46.5518
  0
LINE
  8
0
 10
49.492
 20
46.5518
 11
49.6987
 21
46.6868
  0
LINE
  8
0
 10
49.6987
 20
46.6868
 11
49.9381
 21
46.7474
  0
LINE
  8
0
 10
49.9381
 20
46.7474
 11
298.65
 21
46.7474
  0
LINE
  8
0
 10
298.65
 20
46.7474
 11
298.65
 21
47.7526
  0
LINE
  8
0
 10
298.65
 20
47.7526
 11
49.9381
 21
47.7526
  0
LINE
  8
0
 10
49.9381
 20
47.7526
 11
49.6987
 21
47.8132
  0
LINE
  8
0
 10
49.6987
 20
47.8132
 11
49.492
 21
47.9482
  0
LINE
  8
0
 10
49.492
 20
47.9482
 11
49.3404
 21
48.143
  0
LINE
  8
0
 10
49.3404
 20
48.143
 11
49.2602
 21
48.3766
  0
LINE
  8
0
 10
49.2602
 20
48.3766
 11
49.2602
 21
48.6234
  0
LINE
  8
0
 10
49.2602
 20
48.6234
 11
49.3404
 21
48.8569
  0
LINE
  8
0
 10
49.3404
 20
48.8569
 11
49.492
 21
49.0518
  0
LINE
  8
0
 10
49.492
 20
49.0518
 11
49.6987
 21
49.1868
  0
LINE
  8
0
 10
49.6987
 20
49.1868
 11
49.9381
 21
49.2474
  0
LINE
  8
0
 10
49.9381
 20
49.2474
 11
298.65
 21
49.2474
  0
LINE
  8
0
 10
298.65
 20
49.2474
 11
298.65
 21
50.2526
  0
LINE
  8
0
 10
298.65
 20
50.2526
 11
49.9381
 21
50.2526
  0
LINE
  8
0
 10
49.9381
 20
50.2526
 11
49.6987
 21
50.3132
  0
LINE
  8
0
 10
49.6987
 20
50.3132
 11
49.492
 21
50.4482
  0
LINE
  8
0
 10
49.492
 20
50.4482
 11
49.3404
 21
50.643
  0
LINE
  8
0
 10
49.3404
 20
50.643
 11
49.2602
 21
50.8766
  0
LINE
  8
0
 10
49.2602
 20
50.8766
 11
49.2602
 21
51.1234
  0
LINE
  8
0
 10
49.2602
 20
51.1234
 11
49.3404
 21
51.3569
  0
LINE
  8
0
 10
49.3404
 20
51.3569
 11
49.492
 21
51.5518
  0
LINE
  8
0
 10
49.492
 20
51.5518
 11
49.6987
 21
51.6868
  0
LINE
  8
0
 10
49.6987
 20
51.6868
 11
49.9381
 21
51.7474
  0
LINE
  8
0
 10
49.9381
 20
51.7474
 11
277.029
 21
51.7474
  0
LINE
  8
0
 10
277.029
 20
51.7474
 11
276.582
 21
51.8671
  0
LINE
  8
0
 10
276.582
 20
51.8671
 11
275.849
 21
52.1484
  0
LINE
  8
0
 10
275.849
 20
52.1484
 11
275.15
 21
52.5048
  0
LINE
  8
0
 10
275.15
 20
52.5048
 11
274.768
 21
52.7526
  0
LINE
  8
0
 10
274.768
 20
52.7526
 11
49.9381
 21
52.7526
  0
LINE
  8
0
 10
49.9381
 20
52.7526
 11
49.6987
 21
52.8132
  0
LINE
  8
0
 10
49.6987
 20
52.8132
 11
49.492
 21
52.9482
  0
LINE
  8
0
 10
49.492
 20
52.9482
 11
49.3404
 21
53.143
  0
LINE
  8
0
 10
49.3404
 20
53.143
 11
49.2602
 21
53.3766
  0
LINE
  8
0
 10
49.2602
 20
53.3766
 11
49.2602
 21
53.6234
  0
LINE
  8
0
 10
49.2602
 20
53.6234
 11
49.3404
 21
53.8569
  0
LINE
  8
0
 10
49.3404
 20
53.8569
 11
49.492
 21
54.0518
  0
LINE
  8
0
 10
49.492
 20
54.0518
 11
49.6987
 21
54.1868
  0
LINE
  8
0
 10
49.6987
 20
54.1868
 11
49.9381
 21
54.2474
  0
LINE
  8
0
 10
49.9381
 20
54.2474
 11
273.111
 21
54.2474
  0
LINE
  8
0
 10
273.111
 20
54.2474
 11
272.832
 21
54.5916
  0
LINE
  8
0
 10
272.832
 20
54.5916
 11
272.405
 21
55.25
  0
LINE
  8
0
 10
272.405
 20
55.25
 11
272.404
 21
55.2526
  0
LINE
  8
0
 10
272.404
 20
55.2526
 11
49.9381
 21
55.2526
  0
LINE
  8
0
 10
49.9381
 20
55.2526
 11
49.6987
 21
55.3132
  0
LINE
  8
0
 10
49.6987
 20
55.3132
 11
49.492
 21
55.4482
  0
LINE
  8
0
 10
49.492
 20
55.4482
 11
49.3404
 21
55.643
  0
LINE
  8
0
 10
49.3404
 20
55.643
 11
49.2602
 21
55.8766
  0
LINE
  8
0
 10
49.2602
 20
55.8766
 11
49.2602
 21
56.1234
  0
LINE
  8
0
 10
49.2602
 20
56.1234
 11
49.3404
 21
56.3569
  0
LINE
  8
0
 10
49.3404
 20
56.3569
 11
49.492
 21
56.5518
  0
LINE
  8
0
 10
49.492
 20
56.5518
 11
49.6987
 21
56.6868
  0
LINE
  8
0
 10
49.6987
 20
56.6868
 11
49.9381
 21
56.7474
  0
LINE
  8
0
 10
49.9381
 20
56.7474
 11
271.75
 21
56.7474
  0
LINE
  8
0
 10
271.75
 20
56.7474
 11
271.564
 21
57.4407
  0
LINE
  8
0
 10
271.564
 20
57.4407
 11
271.441
 21
58.216
  0
LINE
  8
0
 10
271.441
 20
58.216
 11
271.413
 21
58.75
  0
LINE
  8
0
 10
271.413
 20
58.75
 11
27.4869
 21
58.75
  0
LINE
  8
0
 10
27.4869
 20
58.75
 11
27.4589
 21
58.216
  0
LINE
  8
0
 10
27.4589
 20
58.216
 11
27.3361
 21
57.4407
  0
LINE
  8
0
 10
27.3361
 20
57.4407
 11
27.1329
 21
56.6824
  0
LINE
  8
0
 10
27.1329
 20
56.6824
 11
26.8516
 21
55.9495
  0
LINE
  8
0
 10
26.8516
 20
55.9495
 11
26.4952
 21
55.25
  0
LINE
  8
0
 10
26.4952
 20
55.25
 11
26.0676
 21
54.5916
  0
LINE
  8
0
 10
26.0676
 20
54.5916
 11
25.5736
 21
53.9815
  0
LINE
  8
0
 10
25.5736
 20
53.9815
 11
25.0185
 21
53.4264
  0
LINE
  8
0
 10
25.0185
 20
53.4264
 11
24.4084
 21
52.9324
  0
LINE
  8
0
 10
24.4084
 20
52.9324
 11
23.75
 21
52.5048
  0
LINE
  8
0
 10
23.75
 20
52.5048
 11
23.0505
 21
52.1484
  0
LINE
  8
0
 10
23.0505
 20
52.1484
 11
22.3176
 21
51.8671
  0
LINE
  8
0
 10
22.3176
 20
51.8671
 11
21.5593
 21
51.6639
  0
LINE
  8
0
 10
21.5593
 20
51.6639
 11
20.784
 21
51.5411
  0
LINE
  8
0
 10
20.784
 20
51.5411
 11
20
 21
51.5
  0
LINE
  8
0
 10
20
 20
51.5
 11
19.216
 21
51.5411
  0
LINE
  8
0
 10
19.216
 20
51.5411
 11
18.4407
 21
51.6639
  0
LINE
  8
0
 10
18.4407
 20
51.6639
 11
17.6824
 21
51.8671
  0
LINE
  8
0
 10
17.6824
 20
51.8671
 11
16.9495
 21
52.1484
  0
LINE
  8
0
 10
16.9495
 20
52.1484
 11
16.25
 21
52.5048
  0
LINE
  8
0
 10
16.25
 20
52.5048
 11
15.5916
 21
52.9324
  0
LINE
  8
0
 10
15.5916
 20
52.9324
 11
14.9815
 21
53.4264
  0
LINE
  8
0
 10
14.9815
 20
53.4264
 11
14.4264
 21
53.9815
  0
LINE
  8
0
 10
14.4264
 20
53.9815
 11
13.9324
 21
54.5916
  0
LINE
  8
0
 10
13.9324
 20
54.5916
 11
13.5048
 21
55.25
  0
LINE
  8
0
 10
13.5048
 20
55.25
 11
13.1484
 21
55.9495
  0
LINE
  8
0
 10
13.1484
 20
55.9495
 11
12.8671
 21
56.6824
  0
LINE
  8
0
 10
12.8671
 20
56.6824
 11
12.6639
 21
57.4407
  0
LINE
  8
0
 10
12.6639
 20
57.4407
 11
12.5411
 21
58.216
  0
LINE
  8
0
 10
12.5411
 20
58.216
 11
12.5131
 21
58.75
  0
LINE
  8
0
 10
12.5131
 20
58.75
 11
0
 21
58.75
  0
LINE
  8
0
 10
0
 20
58.75
 11
0
 21
0
  0
LINE
  8
0
 10
0
 20
0
 11
298.65
 21
0
  0
LINE
  8
0
 10
298.65
 20
0
 11
298.65
 21
5.25255
  0
LINE
  8
0
 10
4.31406
 20
42.3102
 11
4.07001
 21
42.3553
  0
LINE
  8
0
 10
4.07001
 20
42.3553
 11
3.83511
 21
42.4354
  0
LINE
  8
0
 10
3.83511
 20
42.4354
 11
3.6144
 21
42.5489
  0
LINE
  8
0
 10
3.6144
 20
42.5489
 11
3.41255
 21
42.6933
  0
LINE
  8
0
 10
3.41255
 20
42.6933
 11
3.23389
 21
42.8656
  0
LINE
  8
0
 10
3.23389
 20
42.8656
 11
3.0822
 21
43.062
  0
LINE
  8
0
 10
3.0822
 20
43.062
 11
2.96072
 21
43.2784
  0
LINE
  8
0
 10
2.96072
 20
43.2784
 11
2.87207
 21
43.5102
  0
LINE
  8
0
 10
2.87207
 20
43.5102
 11
2.81812
 21
43.7525
  0
LINE
  8
0
 10
2.81812
 20
43.7525
 11
2.79999
 21
44
  0
LINE
  8
0
 10
2.79999
 20
44
 11
2.81812
 21
44.2475
  0
LINE
  8
0
 10
2.81812
 20
44.2475
 11
2.87207
 21
44.4898
  0
LINE
  8
0
 10
2.87207
 20
44.4898
 11
2.96072
 21
44.7216
  0
LINE
  8
0
 10
2.96072
 20
44.7216
 11
3.0822
 21
44.938
  0
LINE
  8
0
 10
3.0822
 20
44.938
 11
3.23389
 21
45.1344
  0
LINE
  8
0
 10
3.23389
 20
45.1344
 11
3.41255
 21
45.3067
  0
LINE
  8
0
 10
3.41255
 20
45.3067
 11
3.6144
 21
45.4511
  0
LINE
  8
0
 10
3.6144
 20
45.4511
 11
3.83511
 21
45.5646
  0
LINE
  8
0
 10
3.83511
 20
45.5646
 11
4.07001
 21
45.6447
  0
LINE
  8
0
 10
4.07001
 20
45.6447
 11
4.31406
 21
45.6898
  0
LINE
  8
0
 10
4.31406
 20
45.6898
 11
4.56209
 21
45.6989
  0
LINE
  8
0
 10
4.56209
 20
45.6989
 11
4.80878
 21
45.6717
  0
LINE
  8
0
 10
4.80878
 20
45.6717
 11
5.04889
 21
45.6089
  0
LINE
  8
0
 10
5.04889
 20
45.6089
 11
5.2773
 21
45.5119
  0
LINE
  8
0
 10
5.2773
 20
45.5119
 11
5.48915
 21
45.3826
  0
LINE
  8
0
 10
5.48915
 20
45.3826
 11
5.67992
 21
45.2238
  0
LINE
  8
0
 10
5.67992
 20
45.2238
 11
5.84554
 21
45.039
  0
LINE
  8
0
 10
5.84554
 20
45.039
 11
5.98248
 21
44.832
  0
LINE
  8
0
 10
5.98248
 20
44.832
 11
6.08781
 21
44.6073
  0
LINE
  8
0
 10
6.08781
 20
44.6073
 11
6.15932
 21
44.3696
  0
LINE
  8
0
 10
6.15932
 20
44.3696
 11
6.19547
 21
44.1241
  0
LINE
  8
0
 10
6.19547
 20
44.1241
 11
6.19547
 21
43.8759
  0
LINE
  8
0
 10
6.19547
 20
43.8759
 11
6.15932
 21
43.6304
  0
LINE
  8
0
 10
6.15932
 20
43.6304
 11
6.08781
 21
43.3927
  0
LINE
  8
0
 10
6.08781
 20
43.3927
 11
5.98248
 21
43.168
  0
LINE
  8
0
 10
5.98248
 20
43.168
 11
5.84554
 21
42.961
  0
LINE
  8
0
 10
5.84554
 20
42.961
 11
5.67992
 21
42.7762
  0
LINE
  8
0
 10
5.67992
 20
42.7762
 11
5.48915
 21
42.6174
  0
LINE
  8
0
 10
5.48915
 20
42.6174
 11
5.2773
 21
42.4881
  0
LINE
  8
0
 10
5.2773
 20
42.4881
 11
5.04889
 21
42.3911
  0
LINE
  8
0
 10
5.04889
 20
42.3911
 11
4.80878
 21
42.3283
  0
LINE
  8
0
 10
4.80878
 20
42.3283
 11
4.56209
 21
42.3011
  0
LINE
  8
0
 10
4.56209
 20
42.3011
 11
4.31406
 21
42.3102
  0
LINE
  8
0
 10
4.31406
 20
13.3102
 11
4.07001
 21
13.3553
  0
LINE
  8
0
 10
4.07001
 20
13.3553
 11
3.83511
 21
13.4354
  0
LINE
  8
0
 10
3.83511
 20
13.4354
 11
3.6144
 21
13.5489
  0
LINE
  8
0
 10
3.6144
 20
13.5489
 11
3.41255
 21
13.6933
  0
LINE
  8
0
 10
3.41255
 20
13.6933
 11
3.23389
 21
13.8656
  0
LINE
  8
0
 10
3.23389
 20
13.8656
 11
3.0822
 21
14.062
  0
LINE
  8
0
 10
3.0822
 20
14.062
 11
2.96072
 21
14.2784
  0
LINE
  8
0
 10
2.96072
 20
14.2784
 11
2.87207
 21
14.5102
  0
LINE
  8
0
 10
2.87207
 20
14.5102
 11
2.81812
 21
14.7525
  0
LINE
  8
0
 10
2.81812
 20
14.7525
 11
2.79999
 21
15
  0
LINE
  8
0
 10
2.79999
 20
15
 11
2.81812
 21
15.2475
  0
LINE
  8
0
 10
2.81812
 20
15.2475
 11
2.87207
 21
15.4898
  0
LINE
  8
0
 10
2.87207
 20
15.4898
 11
2.96072
 21
15.7216
  0
LINE
  8
0
 10
2.96072
 20
15.7216
 11
3.0822
 21
15.938
  0
LINE
  8
0
 10
3.0822
 20
15.938
 11
3.23389
 21
16.1344
  0
LINE
  8
0
 10
3.23389
 20
16.1344
 11
3.41255
 21
16.3067
  0
LINE
  8
0
 10
3.41255
 20
16.3067
 11
3.6144
 21
16.4511
  0
LINE
  8
0
 10
3.6144
 20
16.4511
 11
3.83511
 21
16.5646
  0
LINE
  8
0
 10
3.83511
 20
16.5646
 11
4.07001
 21
16.6447
  0
LINE
  8
0
 10
4.07001
 20
16.6447
 11
4.31406
 21
16.6898
  0
LINE
  8
0
 10
4.31406
 20
16.6898
 11
4.56209
 21
16.6989
  0
LINE
  8
0
 10
4.56209
 20
16.6989
 11
4.80878
 21
16.6717
  0
LINE
  8
0
 10
4.80878
 20
16.6717
 11
5.04889
 21
16.6089
  0
LINE
  8
0
 10
5.04889
 20
16.6089
 11
5.2773
 21
16.5119
  0
LINE
  8
0
 10
5.2773
 20
16.5119
 11
5.48915
 21
16.3826
  0
LINE
  8
0
 10
5.48915
 20
16.3826
 11
5.67992
 21
16.2238
  0
LINE
  8
0
 10
5.67992
 20
16.2238
 11
5.84554
 21
16.039
  0
LINE
  8
0
 10
5.84554
 20
16.039
 11
5.98248
 21
15.832
  0
LINE
  8
0
 10
5.98248
 20
15.832
 11
6.08781
 21
15.6073
  0
LINE
  8
0
 10
6.08781
 20
15.6073
 11
6.15932
 21
15.3696
  0
LINE
  8
0
 10
6.15932
 20
15.3696
 11
6.19547
 21
15.1241
  0
LINE
  8
0
 10
6.19547
 20
15.1241
 11
6.19547
 21
14.8759
  0
LINE
  8
0
 10
6.19547
 20
14.8759
 11
6.15932
 21
14.6304
  0
LINE
  8
0
 10
6.15932
 20
14.6304
 11
6.08781
 21
14.3927
  0
LINE
  8
0
 10
6.08781
 20
14.3927
 11
5.98248
 21
14.168
  0
LINE
  8
0
 10
5.98248
 20
14.168
 11
5.84554
 21
13.961
  0
LINE
  8
0
 10
5.84554
 20
13.961
 11
5.67992
 21
13.7762
  0
LINE
  8
0
 10
5.67992
 20
13.7762
 11
5.48915
 21
13.6174
  0
LINE
  8
0
 10
5.48915
 20
13.6174
 11
5.2773
 21
13.4881
  0
LINE
  8
0
 10
5.2773
 20
13.4881
 11
5.04889
 21
13.3911
  0
LINE
  8
0
 10
5.04889
 20
13.3911
 11
4.80878
 21
13.3283
  0
LINE
  8
0
 10
4.80878
 20
13.3283
 11
4.56209
 21
13.3011
  0
LINE
  8
0
 10
4.56209
 20
13.3011
 11
4.31406
 21
13.3102
  0
LINE
  8
0
 10
298.65
 20
55.2526
 11
285.396
 21
55.2526
  0
LINE
  8
0
 10
285.396
 20
55.2526
 11
285.395
 21
55.25
  0
LINE
  8
0
 10
285.395
 20
55.25
 11
284.968
 21
54.5916
  0
LINE
  8
0
 10
284.968
 20
54.5916
 11
284.689
 21
54.2474
  0
LINE
  8
0
 10
284.689
 20
54.2474
 11
298.65
 21
54.2474
  0
LINE
  8
0
 10
298.65
 20
54.2474
 11
298.65
 21
55.2526
  0
LINE
  8
0
 10
298.65
 20
52.7526
 11
283.031
 21
52.7526
  0
LINE
  8
0
 10
283.031
 20
52.7526
 11
282.65
 21
52.5048
  0
LINE
  8
0
 10
282.65
 20
52.5048
 11
281.951
 21
52.1484
  0
LINE
  8
0
 10
281.951
 20
52.1484
 11
281.218
 21
51.8671
  0
LINE
  8
0
 10
281.218
 20
51.8671
 11
280.771
 21
51.7474
  0
LINE
  8
0
 10
280.771
 20
51.7474
 11
298.65
 21
51.7474
  0
LINE
  8
0
 10
298.65
 20
51.7474
 11
298.65
 21
52.7526
  0
LINE
  8
0
 10
298.65
 20
45.2526
 11
295.544
 21
45.2526
  0
LINE
  8
0
 10
295.544
 20
45.2526
 11
295.666
 21
45.1344
  0
LINE
  8
0
 10
295.666
 20
45.1344
 11
295.818
 21
44.938
  0
LINE
  8
0
 10
295.818
 20
44.938
 11
295.939
 21
44.7216
  0
LINE
  8
0
 10
295.939
 20
44.7216
 11
296.028
 21
44.4898
  0
LINE
  8
0
 10
296.028
 20
44.4898
 11
296.082
 21
44.2474
  0
LINE
  8
0
 10
296.082
 20
44.2474
 11
298.65
 21
44.2474
  0
LINE
  8
0
 10
298.65
 20
44.2474
 11
298.65
 21
45.2526
  0
LINE
  8
0
 10
298.65
 20
15.2525
 11
296.081
 21
15.2525
  0
LINE
  8
0
 10
296.081
 20
15.2525
 11
296.082
 21
15.2475
  0
LINE
  8
0
 10
296.082
 20
15.2475
 11
296.1
 21
15
  0
LINE
  8
0
 10
296.1
 20
15
 11
296.082
 21
14.7525
  0
LINE
  8
0
 10
296.082
 20
14.7525
 11
296.028
 21
14.5102
  0
LINE
  8
0
 10
296.028
 20
14.5102
 11
295.939
 21
14.2784
  0
LINE
  8
0
 10
295.939
 20
14.2784
 11
295.922
 21
14.2474
  0
LINE
  8
0
 10
295.922
 20
14.2474
 11
298.65
 21
14.2474
  0
LINE
  8
0
 10
298.65
 20
14.2474
 11
298.65
 21
15.2525
  0
ENDSEC
  0
SECTION
  2
OBJECTS
  0
DICTIONARY
  0
ENDSEC
  0
EOF
