  0
SECTION
  2
BLOCKS
  0
ENDSEC
  0
SECTION
  2
ENTITIES
  0
LINE
  8
0
 10
319.691
 20
-234.962
 11
319.854
 21
-234.854
  0
LINE
  8
0
 10
319.854
 20
-234.854
 11
319.962
 21
-234.691
  0
LINE
  8
0
 10
319.962
 20
-234.691
 11
320
 21
-234.5
  0
LINE
  8
0
 10
320
 20
-234.5
 11
320
 21
234.5
  0
LINE
  8
0
 10
320
 20
234.5
 11
319.962
 21
234.691
  0
LINE
  8
0
 10
319.962
 20
234.691
 11
319.854
 21
234.854
  0
LINE
  8
0
 10
319.854
 20
234.854
 11
319.691
 21
234.962
  0
LINE
  8
0
 10
319.691
 20
234.962
 11
319.5
 21
235
  0
LINE
  8
0
 10
319.5
 20
235
 11
219.583
 21
235
  0
LINE
  8
0
 10
219.583
 20
235
 11
219.566
 21
234.751
  0
LINE
  8
0
 10
219.566
 20
234.751
 11
219.512
 21
234.507
  0
LINE
  8
0
 10
219.512
 20
234.507
 11
219.425
 21
234.273
  0
LINE
  8
0
 10
219.425
 20
234.273
 11
219.306
 21
234.054
  0
LINE
  8
0
 10
219.306
 20
234.054
 11
219.156
 21
233.854
  0
LINE
  8
0
 10
219.156
 20
233.854
 11
218.979
 21
233.677
  0
LINE
  8
0
 10
218.979
 20
233.677
 11
218.779
 21
233.528
  0
LINE
  8
0
 10
218.779
 20
233.528
 11
218.56
 21
233.408
  0
LINE
  8
0
 10
218.56
 20
233.408
 11
218.326
 21
233.321
  0
LINE
  8
0
 10
218.326
 20
233.321
 11
218.082
 21
233.268
  0
LINE
  8
0
 10
218.082
 20
233.268
 11
217.833
 21
233.25
  0
LINE
  8
0
 10
217.833
 20
233.25
 11
119.5
 21
233.25
  0
LINE
  8
0
 10
119.5
 20
233.25
 11
119.251
 21
233.268
  0
LINE
  8
0
 10
119.251
 20
233.268
 11
119.007
 21
233.321
  0
LINE
  8
0
 10
119.007
 20
233.321
 11
118.773
 21
233.408
  0
LINE
  8
0
 10
118.773
 20
233.408
 11
118.554
 21
233.528
  0
LINE
  8
0
 10
118.554
 20
233.528
 11
118.354
 21
233.677
  0
LINE
  8
0
 10
118.354
 20
233.677
 11
118.177
 21
233.854
  0
LINE
  8
0
 10
118.177
 20
233.854
 11
118.028
 21
234.054
  0
LINE
  8
0
 10
118.028
 20
234.054
 11
117.908
 21
234.273
  0
LINE
  8
0
 10
117.908
 20
234.273
 11
117.821
 21
234.507
  0
LINE
  8
0
 10
117.821
 20
234.507
 11
117.768
 21
234.751
  0
LINE
  8
0
 10
117.768
 20
234.751
 11
117.75
 21
235
  0
LINE
  8
0
 10
117.75
 20
235
 11
106.583
 21
235
  0
LINE
  8
0
 10
106.583
 20
235
 11
106.566
 21
234.751
  0
LINE
  8
0
 10
106.566
 20
234.751
 11
106.512
 21
234.507
  0
LINE
  8
0
 10
106.512
 20
234.507
 11
106.425
 21
234.273
  0
LINE
  8
0
 10
106.425
 20
234.273
 11
106.306
 21
234.054
  0
LINE
  8
0
 10
106.306
 20
234.054
 11
106.156
 21
233.854
  0
LINE
  8
0
 10
106.156
 20
233.854
 11
105.979
 21
233.677
  0
LINE
  8
0
 10
105.979
 20
233.677
 11
105.779
 21
233.528
  0
LINE
  8
0
 10
105.779
 20
233.528
 11
105.56
 21
233.408
  0
LINE
  8
0
 10
105.56
 20
233.408
 11
105.326
 21
233.321
  0
LINE
  8
0
 10
105.326
 20
233.321
 11
105.082
 21
233.268
  0
LINE
  8
0
 10
105.082
 20
233.268
 11
104.833
 21
233.25
  0
LINE
  8
0
 10
104.833
 20
233.25
 11
6.5
 21
233.25
  0
LINE
  8
0
 10
6.5
 20
233.25
 11
6.25095
 21
233.268
  0
LINE
  8
0
 10
6.25095
 20
233.268
 11
6.00696
 21
233.321
  0
LINE
  8
0
 10
6.00696
 20
233.321
 11
5.77301
 21
233.408
  0
LINE
  8
0
 10
5.77301
 20
233.408
 11
5.55386
 21
233.528
  0
LINE
  8
0
 10
5.55386
 20
233.528
 11
5.35399
 21
233.677
  0
LINE
  8
0
 10
5.35399
 20
233.677
 11
5.17743
 21
233.854
  0
LINE
  8
0
 10
5.17743
 20
233.854
 11
5.0278
 21
234.054
  0
LINE
  8
0
 10
5.0278
 20
234.054
 11
4.90814
 21
234.273
  0
LINE
  8
0
 10
4.90814
 20
234.273
 11
4.82088
 21
234.507
  0
LINE
  8
0
 10
4.82088
 20
234.507
 11
4.76781
 21
234.751
  0
LINE
  8
0
 10
4.76781
 20
234.751
 11
4.75
 21
235
  0
LINE
  8
0
 10
4.75
 20
235
 11
-6.41666
 21
235
  0
LINE
  8
0
 10
-6.41666
 20
235
 11
-6.43448
 21
234.751
  0
LINE
  8
0
 10
-6.43448
 20
234.751
 11
-6.48755
 21
234.507
  0
LINE
  8
0
 10
-6.48755
 20
234.507
 11
-6.5748
 21
234.273
  0
LINE
  8
0
 10
-6.5748
 20
234.273
 11
-6.69446
 21
234.054
  0
LINE
  8
0
 10
-6.69446
 20
234.054
 11
-6.8441
 21
233.854
  0
LINE
  8
0
 10
-6.8441
 20
233.854
 11
-7.02065
 21
233.677
  0
LINE
  8
0
 10
-7.02065
 20
233.677
 11
-7.22054
 21
233.528
  0
LINE
  8
0
 10
-7.22054
 20
233.528
 11
-7.43968
 21
233.408
  0
LINE
  8
0
 10
-7.43968
 20
233.408
 11
-7.67363
 21
233.321
  0
LINE
  8
0
 10
-7.67363
 20
233.321
 11
-7.9176
 21
233.268
  0
LINE
  8
0
 10
-7.9176
 20
233.268
 11
-8.16666
 21
233.25
  0
LINE
  8
0
 10
-8.16666
 20
233.25
 11
-106.5
 21
233.25
  0
LINE
  8
0
 10
-106.5
 20
233.25
 11
-106.749
 21
233.268
  0
LINE
  8
0
 10
-106.749
 20
233.268
 11
-106.993
 21
233.321
  0
LINE
  8
0
 10
-106.993
 20
233.321
 11
-107.227
 21
233.408
  0
LINE
  8
0
 10
-107.227
 20
233.408
 11
-107.446
 21
233.528
  0
LINE
  8
0
 10
-107.446
 20
233.528
 11
-107.646
 21
233.677
  0
LINE
  8
0
 10
-107.646
 20
233.677
 11
-107.823
 21
233.854
  0
LINE
  8
0
 10
-107.823
 20
233.854
 11
-107.972
 21
234.054
  0
LINE
  8
0
 10
-107.972
 20
234.054
 11
-108.092
 21
234.273
  0
LINE
  8
0
 10
-108.092
 20
234.273
 11
-108.179
 21
234.507
  0
LINE
  8
0
 10
-108.179
 20
234.507
 11
-108.232
 21
234.751
  0
LINE
  8
0
 10
-108.232
 20
234.751
 11
-108.25
 21
235
  0
LINE
  8
0
 10
-108.25
 20
235
 11
-119.417
 21
235
  0
LINE
  8
0
 10
-119.417
 20
235
 11
-119.434
 21
234.751
  0
LINE
  8
0
 10
-119.434
 20
234.751
 11
-119.488
 21
234.507
  0
LINE
  8
0
 10
-119.488
 20
234.507
 11
-119.575
 21
234.273
  0
LINE
  8
0
 10
-119.575
 20
234.273
 11
-119.694
 21
234.054
  0
LINE
  8
0
 10
-119.694
 20
234.054
 11
-119.844
 21
233.854
  0
LINE
  8
0
 10
-119.844
 20
233.854
 11
-120.021
 21
233.677
  0
LINE
  8
0
 10
-120.021
 20
233.677
 11
-120.221
 21
233.528
  0
LINE
  8
0
 10
-120.221
 20
233.528
 11
-120.44
 21
233.408
  0
LINE
  8
0
 10
-120.44
 20
233.408
 11
-120.674
 21
233.321
  0
LINE
  8
0
 10
-120.674
 20
233.321
 11
-120.918
 21
233.268
  0
LINE
  8
0
 10
-120.918
 20
233.268
 11
-121.167
 21
233.25
  0
LINE
  8
0
 10
-121.167
 20
233.25
 11
-219.5
 21
233.25
  0
LINE
  8
0
 10
-219.5
 20
233.25
 11
-219.749
 21
233.268
  0
LINE
  8
0
 10
-219.749
 20
233.268
 11
-219.993
 21
233.321
  0
LINE
  8
0
 10
-219.993
 20
233.321
 11
-220.227
 21
233.408
  0
LINE
  8
0
 10
-220.227
 20
233.408
 11
-220.446
 21
233.528
  0
LINE
  8
0
 10
-220.446
 20
233.528
 11
-220.646
 21
233.677
  0
LINE
  8
0
 10
-220.646
 20
233.677
 11
-220.823
 21
233.854
  0
LINE
  8
0
 10
-220.823
 20
233.854
 11
-220.972
 21
234.054
  0
LINE
  8
0
 10
-220.972
 20
234.054
 11
-221.092
 21
234.273
  0
LINE
  8
0
 10
-221.092
 20
234.273
 11
-221.179
 21
234.507
  0
LINE
  8
0
 10
-221.179
 20
234.507
 11
-221.232
 21
234.751
  0
LINE
  8
0
 10
-221.232
 20
234.751
 11
-221.25
 21
235
  0
LINE
  8
0
 10
-221.25
 20
235
 11
-319.5
 21
235
  0
LINE
  8
0
 10
-319.5
 20
235
 11
-319.691
 21
234.962
  0
LINE
  8
0
 10
-319.691
 20
234.962
 11
-319.854
 21
234.854
  0
LINE
  8
0
 10
-319.854
 20
234.854
 11
-319.962
 21
234.691
  0
LINE
  8
0
 10
-319.962
 20
234.691
 11
-320
 21
234.5
  0
LINE
  8
0
 10
-320
 20
234.5
 11
-320
 21
-234.5
  0
LINE
  8
0
 10
-320
 20
-234.5
 11
-319.962
 21
-234.691
  0
LINE
  8
0
 10
-319.962
 20
-234.691
 11
-319.854
 21
-234.854
  0
LINE
  8
0
 10
-319.854
 20
-234.854
 11
-319.691
 21
-234.962
  0
LINE
  8
0
 10
-319.691
 20
-234.962
 11
-319.5
 21
-235
  0
LINE
  8
0
 10
-319.5
 20
-235
 11
319.5
 21
-235
  0
LINE
  8
0
 10
319.5
 20
-235
 11
319.691
 21
-234.962
  0
LINE
  8
0
 10
312.191
 20
225.828
 11
311.951
 21
225.891
  0
LINE
  8
0
 10
311.951
 20
225.891
 11
311.723
 21
225.988
  0
LINE
  8
0
 10
311.723
 20
225.988
 11
311.511
 21
226.117
  0
LINE
  8
0
 10
311.511
 20
226.117
 11
311.32
 21
226.276
  0
LINE
  8
0
 10
311.32
 20
226.276
 11
311.154
 21
226.461
  0
LINE
  8
0
 10
311.154
 20
226.461
 11
311.018
 21
226.668
  0
LINE
  8
0
 10
311.018
 20
226.668
 11
310.912
 21
226.893
  0
LINE
  8
0
 10
310.912
 20
226.893
 11
310.841
 21
227.13
  0
LINE
  8
0
 10
310.841
 20
227.13
 11
310.805
 21
227.376
  0
LINE
  8
0
 10
310.805
 20
227.376
 11
310.805
 21
227.624
  0
LINE
  8
0
 10
310.805
 20
227.624
 11
310.841
 21
227.87
  0
LINE
  8
0
 10
310.841
 20
227.87
 11
310.912
 21
228.107
  0
LINE
  8
0
 10
310.912
 20
228.107
 11
311.018
 21
228.332
  0
LINE
  8
0
 10
311.018
 20
228.332
 11
311.154
 21
228.539
  0
LINE
  8
0
 10
311.154
 20
228.539
 11
311.32
 21
228.724
  0
LINE
  8
0
 10
311.32
 20
228.724
 11
311.511
 21
228.883
  0
LINE
  8
0
 10
311.511
 20
228.883
 11
311.723
 21
229.012
  0
LINE
  8
0
 10
311.723
 20
229.012
 11
311.951
 21
229.109
  0
LINE
  8
0
 10
311.951
 20
229.109
 11
312.191
 21
229.172
  0
LINE
  8
0
 10
312.191
 20
229.172
 11
312.438
 21
229.199
  0
LINE
  8
0
 10
312.438
 20
229.199
 11
312.686
 21
229.19
  0
LINE
  8
0
 10
312.686
 20
229.19
 11
312.93
 21
229.145
  0
LINE
  8
0
 10
312.93
 20
229.145
 11
313.165
 21
229.065
  0
LINE
  8
0
 10
313.165
 20
229.065
 11
313.386
 21
228.951
  0
LINE
  8
0
 10
313.386
 20
228.951
 11
313.587
 21
228.807
  0
LINE
  8
0
 10
313.587
 20
228.807
 11
313.766
 21
228.634
  0
LINE
  8
0
 10
313.766
 20
228.634
 11
313.918
 21
228.438
  0
LINE
  8
0
 10
313.918
 20
228.438
 11
314.039
 21
228.222
  0
LINE
  8
0
 10
314.039
 20
228.222
 11
314.128
 21
227.99
  0
LINE
  8
0
 10
314.128
 20
227.99
 11
314.182
 21
227.748
  0
LINE
  8
0
 10
314.182
 20
227.748
 11
314.2
 21
227.5
  0
LINE
  8
0
 10
314.2
 20
227.5
 11
314.182
 21
227.252
  0
LINE
  8
0
 10
314.182
 20
227.252
 11
314.128
 21
227.01
  0
LINE
  8
0
 10
314.128
 20
227.01
 11
314.039
 21
226.778
  0
LINE
  8
0
 10
314.039
 20
226.778
 11
313.918
 21
226.562
  0
LINE
  8
0
 10
313.918
 20
226.562
 11
313.766
 21
226.366
  0
LINE
  8
0
 10
313.766
 20
226.366
 11
313.587
 21
226.193
  0
LINE
  8
0
 10
313.587
 20
226.193
 11
313.386
 21
226.049
  0
LINE
  8
0
 10
313.386
 20
226.049
 11
313.165
 21
225.935
  0
LINE
  8
0
 10
313.165
 20
225.935
 11
312.93
 21
225.855
  0
LINE
  8
0
 10
312.93
 20
225.855
 11
312.686
 21
225.81
  0
LINE
  8
0
 10
312.686
 20
225.81
 11
312.438
 21
225.801
  0
LINE
  8
0
 10
312.438
 20
225.801
 11
312.191
 21
225.828
  0
LINE
  8
0
 10
237.108
 20
216.271
 11
236.72
 21
216.332
  0
LINE
  8
0
 10
236.72
 20
216.332
 11
236.341
 21
216.434
  0
LINE
  8
0
 10
236.341
 20
216.434
 11
235.975
 21
216.574
  0
LINE
  8
0
 10
235.975
 20
216.574
 11
235.625
 21
216.752
  0
LINE
  8
0
 10
235.625
 20
216.752
 11
235.296
 21
216.966
  0
LINE
  8
0
 10
235.296
 20
216.966
 11
234.991
 21
217.213
  0
LINE
  8
0
 10
234.991
 20
217.213
 11
234.713
 21
217.491
  0
LINE
  8
0
 10
234.713
 20
217.491
 11
234.466
 21
217.796
  0
LINE
  8
0
 10
234.466
 20
217.796
 11
234.252
 21
218.125
  0
LINE
  8
0
 10
234.252
 20
218.125
 11
234.074
 21
218.475
  0
LINE
  8
0
 10
234.074
 20
218.475
 11
233.934
 21
218.841
  0
LINE
  8
0
 10
233.934
 20
218.841
 11
233.832
 21
219.22
  0
LINE
  8
0
 10
233.832
 20
219.22
 11
233.771
 21
219.608
  0
LINE
  8
0
 10
233.771
 20
219.608
 11
233.75
 21
220
  0
LINE
  8
0
 10
233.75
 20
220
 11
233.771
 21
220.392
  0
LINE
  8
0
 10
233.771
 20
220.392
 11
233.832
 21
220.78
  0
LINE
  8
0
 10
233.832
 20
220.78
 11
233.934
 21
221.159
  0
LINE
  8
0
 10
233.934
 20
221.159
 11
234.074
 21
221.525
  0
LINE
  8
0
 10
234.074
 20
221.525
 11
234.252
 21
221.875
  0
LINE
  8
0
 10
234.252
 20
221.875
 11
234.466
 21
222.204
  0
LINE
  8
0
 10
234.466
 20
222.204
 11
234.713
 21
222.509
  0
LINE
  8
0
 10
234.713
 20
222.509
 11
234.991
 21
222.787
  0
LINE
  8
0
 10
234.991
 20
222.787
 11
235.296
 21
223.034
  0
LINE
  8
0
 10
235.296
 20
223.034
 11
235.625
 21
223.248
  0
LINE
  8
0
 10
235.625
 20
223.248
 11
235.975
 21
223.426
  0
LINE
  8
0
 10
235.975
 20
223.426
 11
236.341
 21
223.566
  0
LINE
  8
0
 10
236.341
 20
223.566
 11
236.72
 21
223.668
  0
LINE
  8
0
 10
236.72
 20
223.668
 11
237.108
 21
223.729
  0
LINE
  8
0
 10
237.108
 20
223.729
 11
237.5
 21
223.75
  0
LINE
  8
0
 10
237.5
 20
223.75
 11
237.892
 21
223.729
  0
LINE
  8
0
 10
237.892
 20
223.729
 11
238.28
 21
223.668
  0
LINE
  8
0
 10
238.28
 20
223.668
 11
238.659
 21
223.566
  0
LINE
  8
0
 10
238.659
 20
223.566
 11
239.025
 21
223.426
  0
LINE
  8
0
 10
239.025
 20
223.426
 11
239.375
 21
223.248
  0
LINE
  8
0
 10
239.375
 20
223.248
 11
239.704
 21
223.034
  0
LINE
  8
0
 10
239.704
 20
223.034
 11
240.009
 21
222.787
  0
LINE
  8
0
 10
240.009
 20
222.787
 11
240.287
 21
222.509
  0
LINE
  8
0
 10
240.287
 20
222.509
 11
240.534
 21
222.204
  0
LINE
  8
0
 10
240.534
 20
222.204
 11
240.748
 21
221.875
  0
LINE
  8
0
 10
240.748
 20
221.875
 11
240.926
 21
221.525
  0
LINE
  8
0
 10
240.926
 20
221.525
 11
241.066
 21
221.159
  0
LINE
  8
0
 10
241.066
 20
221.159
 11
241.168
 21
220.78
  0
LINE
  8
0
 10
241.168
 20
220.78
 11
241.229
 21
220.392
  0
LINE
  8
0
 10
241.229
 20
220.392
 11
241.25
 21
220
  0
LINE
  8
0
 10
241.25
 20
220
 11
241.229
 21
219.608
  0
LINE
  8
0
 10
241.229
 20
219.608
 11
241.168
 21
219.22
  0
LINE
  8
0
 10
241.168
 20
219.22
 11
241.066
 21
218.841
  0
LINE
  8
0
 10
241.066
 20
218.841
 11
240.926
 21
218.475
  0
LINE
  8
0
 10
240.926
 20
218.475
 11
240.748
 21
218.125
  0
LINE
  8
0
 10
240.748
 20
218.125
 11
240.534
 21
217.796
  0
LINE
  8
0
 10
240.534
 20
217.796
 11
240.287
 21
217.491
  0
LINE
  8
0
 10
240.287
 20
217.491
 11
240.009
 21
217.213
  0
LINE
  8
0
 10
240.009
 20
217.213
 11
239.704
 21
216.966
  0
LINE
  8
0
 10
239.704
 20
216.966
 11
239.375
 21
216.752
  0
LINE
  8
0
 10
239.375
 20
216.752
 11
239.025
 21
216.574
  0
LINE
  8
0
 10
239.025
 20
216.574
 11
238.659
 21
216.434
  0
LINE
  8
0
 10
238.659
 20
216.434
 11
238.28
 21
216.332
  0
LINE
  8
0
 10
238.28
 20
216.332
 11
237.892
 21
216.271
  0
LINE
  8
0
 10
237.892
 20
216.271
 11
237.5
 21
216.25
  0
LINE
  8
0
 10
237.5
 20
216.25
 11
237.108
 21
216.271
  0
LINE
  8
0
 10
294.377
 20
219.355
 11
294.133
 21
219.391
  0
LINE
  8
0
 10
294.133
 20
219.391
 11
293.897
 21
219.464
  0
LINE
  8
0
 10
293.897
 20
219.464
 11
293.675
 21
219.571
  0
LINE
  8
0
 10
293.675
 20
219.571
 11
293.471
 21
219.71
  0
LINE
  8
0
 10
293.471
 20
219.71
 11
293.29
 21
219.878
  0
LINE
  8
0
 10
293.29
 20
219.878
 11
293.137
 21
220.071
  0
LINE
  8
0
 10
293.137
 20
220.071
 11
293.013
 21
220.284
  0
LINE
  8
0
 10
293.013
 20
220.284
 11
292.923
 21
220.514
  0
LINE
  8
0
 10
292.923
 20
220.514
 11
292.868
 21
220.754
  0
LINE
  8
0
 10
292.868
 20
220.754
 11
292.85
 21
221
  0
LINE
  8
0
 10
292.85
 20
221
 11
292.868
 21
221.246
  0
LINE
  8
0
 10
292.868
 20
221.246
 11
292.923
 21
221.486
  0
LINE
  8
0
 10
292.923
 20
221.486
 11
293.013
 21
221.716
  0
LINE
  8
0
 10
293.013
 20
221.716
 11
293.137
 21
221.929
  0
LINE
  8
0
 10
293.137
 20
221.929
 11
293.29
 21
222.122
  0
LINE
  8
0
 10
293.29
 20
222.122
 11
293.471
 21
222.29
  0
LINE
  8
0
 10
293.471
 20
222.29
 11
293.675
 21
222.429
  0
LINE
  8
0
 10
293.675
 20
222.429
 11
293.897
 21
222.536
  0
LINE
  8
0
 10
293.897
 20
222.536
 11
294.133
 21
222.609
  0
LINE
  8
0
 10
294.133
 20
222.609
 11
294.377
 21
222.645
  0
LINE
  8
0
 10
294.377
 20
222.645
 11
302.623
 21
222.645
  0
LINE
  8
0
 10
302.623
 20
222.645
 11
302.867
 21
222.609
  0
LINE
  8
0
 10
302.867
 20
222.609
 11
303.103
 21
222.536
  0
LINE
  8
0
 10
303.103
 20
222.536
 11
303.325
 21
222.429
  0
LINE
  8
0
 10
303.325
 20
222.429
 11
303.529
 21
222.29
  0
LINE
  8
0
 10
303.529
 20
222.29
 11
303.71
 21
222.122
  0
LINE
  8
0
 10
303.71
 20
222.122
 11
303.863
 21
221.929
  0
LINE
  8
0
 10
303.863
 20
221.929
 11
303.987
 21
221.716
  0
LINE
  8
0
 10
303.987
 20
221.716
 11
304.077
 21
221.486
  0
LINE
  8
0
 10
304.077
 20
221.486
 11
304.132
 21
221.246
  0
LINE
  8
0
 10
304.132
 20
221.246
 11
304.15
 21
221
  0
LINE
  8
0
 10
304.15
 20
221
 11
304.132
 21
220.754
  0
LINE
  8
0
 10
304.132
 20
220.754
 11
304.077
 21
220.514
  0
LINE
  8
0
 10
304.077
 20
220.514
 11
303.987
 21
220.284
  0
LINE
  8
0
 10
303.987
 20
220.284
 11
303.863
 21
220.071
  0
LINE
  8
0
 10
303.863
 20
220.071
 11
303.71
 21
219.878
  0
LINE
  8
0
 10
303.71
 20
219.878
 11
303.529
 21
219.71
  0
LINE
  8
0
 10
303.529
 20
219.71
 11
303.325
 21
219.571
  0
LINE
  8
0
 10
303.325
 20
219.571
 11
303.103
 21
219.464
  0
LINE
  8
0
 10
303.103
 20
219.464
 11
302.867
 21
219.391
  0
LINE
  8
0
 10
302.867
 20
219.391
 11
302.623
 21
219.355
  0
LINE
  8
0
 10
302.623
 20
219.355
 11
294.377
 21
219.355
  0
LINE
  8
0
 10
263.377
 20
219.355
 11
263.133
 21
219.391
  0
LINE
  8
0
 10
263.133
 20
219.391
 11
262.897
 21
219.464
  0
LINE
  8
0
 10
262.897
 20
219.464
 11
262.675
 21
219.571
  0
LINE
  8
0
 10
262.675
 20
219.571
 11
262.471
 21
219.71
  0
LINE
  8
0
 10
262.471
 20
219.71
 11
262.29
 21
219.878
  0
LINE
  8
0
 10
262.29
 20
219.878
 11
262.137
 21
220.071
  0
LINE
  8
0
 10
262.137
 20
220.071
 11
262.013
 21
220.284
  0
LINE
  8
0
 10
262.013
 20
220.284
 11
261.923
 21
220.514
  0
LINE
  8
0
 10
261.923
 20
220.514
 11
261.868
 21
220.754
  0
LINE
  8
0
 10
261.868
 20
220.754
 11
261.85
 21
221
  0
LINE
  8
0
 10
261.85
 20
221
 11
261.868
 21
221.246
  0
LINE
  8
0
 10
261.868
 20
221.246
 11
261.923
 21
221.486
  0
LINE
  8
0
 10
261.923
 20
221.486
 11
262.013
 21
221.716
  0
LINE
  8
0
 10
262.013
 20
221.716
 11
262.137
 21
221.929
  0
LINE
  8
0
 10
262.137
 20
221.929
 11
262.29
 21
222.122
  0
LINE
  8
0
 10
262.29
 20
222.122
 11
262.471
 21
222.29
  0
LINE
  8
0
 10
262.471
 20
222.29
 11
262.675
 21
222.429
  0
LINE
  8
0
 10
262.675
 20
222.429
 11
262.897
 21
222.536
  0
LINE
  8
0
 10
262.897
 20
222.536
 11
263.133
 21
222.609
  0
LINE
  8
0
 10
263.133
 20
222.609
 11
263.377
 21
222.645
  0
LINE
  8
0
 10
263.377
 20
222.645
 11
271.623
 21
222.645
  0
LINE
  8
0
 10
271.623
 20
222.645
 11
271.867
 21
222.609
  0
LINE
  8
0
 10
271.867
 20
222.609
 11
272.103
 21
222.536
  0
LINE
  8
0
 10
272.103
 20
222.536
 11
272.325
 21
222.429
  0
LINE
  8
0
 10
272.325
 20
222.429
 11
272.529
 21
222.29
  0
LINE
  8
0
 10
272.529
 20
222.29
 11
272.71
 21
222.122
  0
LINE
  8
0
 10
272.71
 20
222.122
 11
272.863
 21
221.929
  0
LINE
  8
0
 10
272.863
 20
221.929
 11
272.987
 21
221.716
  0
LINE
  8
0
 10
272.987
 20
221.716
 11
273.077
 21
221.486
  0
LINE
  8
0
 10
273.077
 20
221.486
 11
273.132
 21
221.246
  0
LINE
  8
0
 10
273.132
 20
221.246
 11
273.15
 21
221
  0
LINE
  8
0
 10
273.15
 20
221
 11
273.132
 21
220.754
  0
LINE
  8
0
 10
273.132
 20
220.754
 11
273.077
 21
220.514
  0
LINE
  8
0
 10
273.077
 20
220.514
 11
272.987
 21
220.284
  0
LINE
  8
0
 10
272.987
 20
220.284
 11
272.863
 21
220.071
  0
LINE
  8
0
 10
272.863
 20
220.071
 11
272.71
 21
219.878
  0
LINE
  8
0
 10
272.71
 20
219.878
 11
272.529
 21
219.71
  0
LINE
  8
0
 10
272.529
 20
219.71
 11
272.325
 21
219.571
  0
LINE
  8
0
 10
272.325
 20
219.571
 11
272.103
 21
219.464
  0
LINE
  8
0
 10
272.103
 20
219.464
 11
271.867
 21
219.391
  0
LINE
  8
0
 10
271.867
 20
219.391
 11
271.623
 21
219.355
  0
LINE
  8
0
 10
271.623
 20
219.355
 11
263.377
 21
219.355
  0
LINE
  8
0
 10
-219.5
 20
218.25
 11
-219.749
 21
218.268
  0
LINE
  8
0
 10
-219.749
 20
218.268
 11
-219.993
 21
218.321
  0
LINE
  8
0
 10
-219.993
 20
218.321
 11
-220.227
 21
218.408
  0
LINE
  8
0
 10
-220.227
 20
218.408
 11
-220.446
 21
218.528
  0
LINE
  8
0
 10
-220.446
 20
218.528
 11
-220.646
 21
218.677
  0
LINE
  8
0
 10
-220.646
 20
218.677
 11
-220.823
 21
218.854
  0
LINE
  8
0
 10
-220.823
 20
218.854
 11
-220.972
 21
219.054
  0
LINE
  8
0
 10
-220.972
 20
219.054
 11
-221.092
 21
219.273
  0
LINE
  8
0
 10
-221.092
 20
219.273
 11
-221.179
 21
219.507
  0
LINE
  8
0
 10
-221.179
 20
219.507
 11
-221.232
 21
219.751
  0
LINE
  8
0
 10
-221.232
 20
219.751
 11
-221.25
 21
220
  0
LINE
  8
0
 10
-221.25
 20
220
 11
-221.232
 21
220.249
  0
LINE
  8
0
 10
-221.232
 20
220.249
 11
-221.179
 21
220.493
  0
LINE
  8
0
 10
-221.179
 20
220.493
 11
-221.092
 21
220.727
  0
LINE
  8
0
 10
-221.092
 20
220.727
 11
-220.972
 21
220.946
  0
LINE
  8
0
 10
-220.972
 20
220.946
 11
-220.823
 21
221.146
  0
LINE
  8
0
 10
-220.823
 20
221.146
 11
-220.646
 21
221.323
  0
LINE
  8
0
 10
-220.646
 20
221.323
 11
-220.446
 21
221.472
  0
LINE
  8
0
 10
-220.446
 20
221.472
 11
-220.227
 21
221.592
  0
LINE
  8
0
 10
-220.227
 20
221.592
 11
-219.993
 21
221.679
  0
LINE
  8
0
 10
-219.993
 20
221.679
 11
-219.749
 21
221.732
  0
LINE
  8
0
 10
-219.749
 20
221.732
 11
-219.5
 21
221.75
  0
LINE
  8
0
 10
-219.5
 20
221.75
 11
-119.5
 21
221.75
  0
LINE
  8
0
 10
-119.5
 20
221.75
 11
-119.251
 21
221.732
  0
LINE
  8
0
 10
-119.251
 20
221.732
 11
-119.007
 21
221.679
  0
LINE
  8
0
 10
-119.007
 20
221.679
 11
-118.773
 21
221.592
  0
LINE
  8
0
 10
-118.773
 20
221.592
 11
-118.554
 21
221.472
  0
LINE
  8
0
 10
-118.554
 20
221.472
 11
-118.354
 21
221.323
  0
LINE
  8
0
 10
-118.354
 20
221.323
 11
-118.177
 21
221.146
  0
LINE
  8
0
 10
-118.177
 20
221.146
 11
-118.028
 21
220.946
  0
LINE
  8
0
 10
-118.028
 20
220.946
 11
-117.908
 21
220.727
  0
LINE
  8
0
 10
-117.908
 20
220.727
 11
-117.821
 21
220.493
  0
LINE
  8
0
 10
-117.821
 20
220.493
 11
-117.768
 21
220.249
  0
LINE
  8
0
 10
-117.768
 20
220.249
 11
-117.75
 21
220
  0
LINE
  8
0
 10
-117.75
 20
220
 11
-117.768
 21
219.751
  0
LINE
  8
0
 10
-117.768
 20
219.751
 11
-117.821
 21
219.507
  0
LINE
  8
0
 10
-117.821
 20
219.507
 11
-117.908
 21
219.273
  0
LINE
  8
0
 10
-117.908
 20
219.273
 11
-118.028
 21
219.054
  0
LINE
  8
0
 10
-118.028
 20
219.054
 11
-118.177
 21
218.854
  0
LINE
  8
0
 10
-118.177
 20
218.854
 11
-118.354
 21
218.677
  0
LINE
  8
0
 10
-118.354
 20
218.677
 11
-118.554
 21
218.528
  0
LINE
  8
0
 10
-118.554
 20
218.528
 11
-118.773
 21
218.408
  0
LINE
  8
0
 10
-118.773
 20
218.408
 11
-119.007
 21
218.321
  0
LINE
  8
0
 10
-119.007
 20
218.321
 11
-119.251
 21
218.268
  0
LINE
  8
0
 10
-119.251
 20
218.268
 11
-119.5
 21
218.25
  0
LINE
  8
0
 10
-119.5
 20
218.25
 11
-219.5
 21
218.25
  0
LINE
  8
0
 10
6.5
 20
218.25
 11
6.25095
 21
218.268
  0
LINE
  8
0
 10
6.25095
 20
218.268
 11
6.00696
 21
218.321
  0
LINE
  8
0
 10
6.00696
 20
218.321
 11
5.77301
 21
218.408
  0
LINE
  8
0
 10
5.77301
 20
218.408
 11
5.55386
 21
218.528
  0
LINE
  8
0
 10
5.55386
 20
218.528
 11
5.35399
 21
218.677
  0
LINE
  8
0
 10
5.35399
 20
218.677
 11
5.17743
 21
218.854
  0
LINE
  8
0
 10
5.17743
 20
218.854
 11
5.0278
 21
219.054
  0
LINE
  8
0
 10
5.0278
 20
219.054
 11
4.90814
 21
219.273
  0
LINE
  8
0
 10
4.90814
 20
219.273
 11
4.82088
 21
219.507
  0
LINE
  8
0
 10
4.82088
 20
219.507
 11
4.76781
 21
219.751
  0
LINE
  8
0
 10
4.76781
 20
219.751
 11
4.75
 21
220
  0
LINE
  8
0
 10
4.75
 20
220
 11
4.76781
 21
220.249
  0
LINE
  8
0
 10
4.76781
 20
220.249
 11
4.82088
 21
220.493
  0
LINE
  8
0
 10
4.82088
 20
220.493
 11
4.90814
 21
220.727
  0
LINE
  8
0
 10
4.90814
 20
220.727
 11
5.0278
 21
220.946
  0
LINE
  8
0
 10
5.0278
 20
220.946
 11
5.17743
 21
221.146
  0
LINE
  8
0
 10
5.17743
 20
221.146
 11
5.35399
 21
221.323
  0
LINE
  8
0
 10
5.35399
 20
221.323
 11
5.55386
 21
221.472
  0
LINE
  8
0
 10
5.55386
 20
221.472
 11
5.77301
 21
221.592
  0
LINE
  8
0
 10
5.77301
 20
221.592
 11
6.00696
 21
221.679
  0
LINE
  8
0
 10
6.00696
 20
221.679
 11
6.25095
 21
221.732
  0
LINE
  8
0
 10
6.25095
 20
221.732
 11
6.5
 21
221.75
  0
LINE
  8
0
 10
6.5
 20
221.75
 11
106.5
 21
221.75
  0
LINE
  8
0
 10
106.5
 20
221.75
 11
106.749
 21
221.732
  0
LINE
  8
0
 10
106.749
 20
221.732
 11
106.993
 21
221.679
  0
LINE
  8
0
 10
106.993
 20
221.679
 11
107.227
 21
221.592
  0
LINE
  8
0
 10
107.227
 20
221.592
 11
107.446
 21
221.472
  0
LINE
  8
0
 10
107.446
 20
221.472
 11
107.646
 21
221.323
  0
LINE
  8
0
 10
107.646
 20
221.323
 11
107.823
 21
221.146
  0
LINE
  8
0
 10
107.823
 20
221.146
 11
107.972
 21
220.946
  0
LINE
  8
0
 10
107.972
 20
220.946
 11
108.092
 21
220.727
  0
LINE
  8
0
 10
108.092
 20
220.727
 11
108.179
 21
220.493
  0
LINE
  8
0
 10
108.179
 20
220.493
 11
108.232
 21
220.249
  0
LINE
  8
0
 10
108.232
 20
220.249
 11
108.25
 21
220
  0
LINE
  8
0
 10
108.25
 20
220
 11
108.232
 21
219.751
  0
LINE
  8
0
 10
108.232
 20
219.751
 11
108.179
 21
219.507
  0
LINE
  8
0
 10
108.179
 20
219.507
 11
108.092
 21
219.273
  0
LINE
  8
0
 10
108.092
 20
219.273
 11
107.972
 21
219.054
  0
LINE
  8
0
 10
107.972
 20
219.054
 11
107.823
 21
218.854
  0
LINE
  8
0
 10
107.823
 20
218.854
 11
107.646
 21
218.677
  0
LINE
  8
0
 10
107.646
 20
218.677
 11
107.446
 21
218.528
  0
LINE
  8
0
 10
107.446
 20
218.528
 11
107.227
 21
218.408
  0
LINE
  8
0
 10
107.227
 20
218.408
 11
106.993
 21
218.321
  0
LINE
  8
0
 10
106.993
 20
218.321
 11
106.749
 21
218.268
  0
LINE
  8
0
 10
106.749
 20
218.268
 11
106.5
 21
218.25
  0
LINE
  8
0
 10
106.5
 20
218.25
 11
6.5
 21
218.25
  0
LINE
  8
0
 10
-106.5
 20
218.25
 11
-106.749
 21
218.268
  0
LINE
  8
0
 10
-106.749
 20
218.268
 11
-106.993
 21
218.321
  0
LINE
  8
0
 10
-106.993
 20
218.321
 11
-107.227
 21
218.408
  0
LINE
  8
0
 10
-107.227
 20
218.408
 11
-107.446
 21
218.528
  0
LINE
  8
0
 10
-107.446
 20
218.528
 11
-107.646
 21
218.677
  0
LINE
  8
0
 10
-107.646
 20
218.677
 11
-107.823
 21
218.854
  0
LINE
  8
0
 10
-107.823
 20
218.854
 11
-107.972
 21
219.054
  0
LINE
  8
0
 10
-107.972
 20
219.054
 11
-108.092
 21
219.273
  0
LINE
  8
0
 10
-108.092
 20
219.273
 11
-108.179
 21
219.507
  0
LINE
  8
0
 10
-108.179
 20
219.507
 11
-108.232
 21
219.751
  0
LINE
  8
0
 10
-108.232
 20
219.751
 11
-108.25
 21
220
  0
LINE
  8
0
 10
-108.25
 20
220
 11
-108.232
 21
220.249
  0
LINE
  8
0
 10
-108.232
 20
220.249
 11
-108.179
 21
220.493
  0
LINE
  8
0
 10
-108.179
 20
220.493
 11
-108.092
 21
220.727
  0
LINE
  8
0
 10
-108.092
 20
220.727
 11
-107.972
 21
220.946
  0
LINE
  8
0
 10
-107.972
 20
220.946
 11
-107.823
 21
221.146
  0
LINE
  8
0
 10
-107.823
 20
221.146
 11
-107.646
 21
221.323
  0
LINE
  8
0
 10
-107.646
 20
221.323
 11
-107.446
 21
221.472
  0
LINE
  8
0
 10
-107.446
 20
221.472
 11
-107.227
 21
221.592
  0
LINE
  8
0
 10
-107.227
 20
221.592
 11
-106.993
 21
221.679
  0
LINE
  8
0
 10
-106.993
 20
221.679
 11
-106.749
 21
221.732
  0
LINE
  8
0
 10
-106.749
 20
221.732
 11
-106.5
 21
221.75
  0
LINE
  8
0
 10
-106.5
 20
221.75
 11
-6.5
 21
221.75
  0
LINE
  8
0
 10
-6.5
 20
221.75
 11
-6.25095
 21
221.732
  0
LINE
  8
0
 10
-6.25095
 20
221.732
 11
-6.00696
 21
221.679
  0
LINE
  8
0
 10
-6.00696
 20
221.679
 11
-5.77301
 21
221.592
  0
LINE
  8
0
 10
-5.77301
 20
221.592
 11
-5.55386
 21
221.472
  0
LINE
  8
0
 10
-5.55386
 20
221.472
 11
-5.35399
 21
221.323
  0
LINE
  8
0
 10
-5.35399
 20
221.323
 11
-5.17743
 21
221.146
  0
LINE
  8
0
 10
-5.17743
 20
221.146
 11
-5.0278
 21
220.946
  0
LINE
  8
0
 10
-5.0278
 20
220.946
 11
-4.90814
 21
220.727
  0
LINE
  8
0
 10
-4.90814
 20
220.727
 11
-4.82088
 21
220.493
  0
LINE
  8
0
 10
-4.82088
 20
220.493
 11
-4.76781
 21
220.249
  0
LINE
  8
0
 10
-4.76781
 20
220.249
 11
-4.75
 21
220
  0
LINE
  8
0
 10
-4.75
 20
220
 11
-4.76781
 21
219.751
  0
LINE
  8
0
 10
-4.76781
 20
219.751
 11
-4.82088
 21
219.507
  0
LINE
  8
0
 10
-4.82088
 20
219.507
 11
-4.90814
 21
219.273
  0
LINE
  8
0
 10
-4.90814
 20
219.273
 11
-5.0278
 21
219.054
  0
LINE
  8
0
 10
-5.0278
 20
219.054
 11
-5.17743
 21
218.854
  0
LINE
  8
0
 10
-5.17743
 20
218.854
 11
-5.35399
 21
218.677
  0
LINE
  8
0
 10
-5.35399
 20
218.677
 11
-5.55386
 21
218.528
  0
LINE
  8
0
 10
-5.55386
 20
218.528
 11
-5.77301
 21
218.408
  0
LINE
  8
0
 10
-5.77301
 20
218.408
 11
-6.00696
 21
218.321
  0
LINE
  8
0
 10
-6.00696
 20
218.321
 11
-6.25095
 21
218.268
  0
LINE
  8
0
 10
-6.25095
 20
218.268
 11
-6.5
 21
218.25
  0
LINE
  8
0
 10
-6.5
 20
218.25
 11
-106.5
 21
218.25
  0
LINE
  8
0
 10
119.5
 20
218.25
 11
119.251
 21
218.268
  0
LINE
  8
0
 10
119.251
 20
218.268
 11
119.007
 21
218.321
  0
LINE
  8
0
 10
119.007
 20
218.321
 11
118.773
 21
218.408
  0
LINE
  8
0
 10
118.773
 20
218.408
 11
118.554
 21
218.528
  0
LINE
  8
0
 10
118.554
 20
218.528
 11
118.354
 21
218.677
  0
LINE
  8
0
 10
118.354
 20
218.677
 11
118.177
 21
218.854
  0
LINE
  8
0
 10
118.177
 20
218.854
 11
118.028
 21
219.054
  0
LINE
  8
0
 10
118.028
 20
219.054
 11
117.908
 21
219.273
  0
LINE
  8
0
 10
117.908
 20
219.273
 11
117.821
 21
219.507
  0
LINE
  8
0
 10
117.821
 20
219.507
 11
117.768
 21
219.751
  0
LINE
  8
0
 10
117.768
 20
219.751
 11
117.75
 21
220
  0
LINE
  8
0
 10
117.75
 20
220
 11
117.768
 21
220.249
  0
LINE
  8
0
 10
117.768
 20
220.249
 11
117.821
 21
220.493
  0
LINE
  8
0
 10
117.821
 20
220.493
 11
117.908
 21
220.727
  0
LINE
  8
0
 10
117.908
 20
220.727
 11
118.028
 21
220.946
  0
LINE
  8
0
 10
118.028
 20
220.946
 11
118.177
 21
221.146
  0
LINE
  8
0
 10
118.177
 20
221.146
 11
118.354
 21
221.323
  0
LINE
  8
0
 10
118.354
 20
221.323
 11
118.554
 21
221.472
  0
LINE
  8
0
 10
118.554
 20
221.472
 11
118.773
 21
221.592
  0
LINE
  8
0
 10
118.773
 20
221.592
 11
119.007
 21
221.679
  0
LINE
  8
0
 10
119.007
 20
221.679
 11
119.251
 21
221.732
  0
LINE
  8
0
 10
119.251
 20
221.732
 11
119.5
 21
221.75
  0
LINE
  8
0
 10
119.5
 20
221.75
 11
219.5
 21
221.75
  0
LINE
  8
0
 10
219.5
 20
221.75
 11
219.749
 21
221.732
  0
LINE
  8
0
 10
219.749
 20
221.732
 11
219.993
 21
221.679
  0
LINE
  8
0
 10
219.993
 20
221.679
 11
220.227
 21
221.592
  0
LINE
  8
0
 10
220.227
 20
221.592
 11
220.446
 21
221.472
  0
LINE
  8
0
 10
220.446
 20
221.472
 11
220.646
 21
221.323
  0
LINE
  8
0
 10
220.646
 20
221.323
 11
220.823
 21
221.146
  0
LINE
  8
0
 10
220.823
 20
221.146
 11
220.972
 21
220.946
  0
LINE
  8
0
 10
220.972
 20
220.946
 11
221.092
 21
220.727
  0
LINE
  8
0
 10
221.092
 20
220.727
 11
221.179
 21
220.493
  0
LINE
  8
0
 10
221.179
 20
220.493
 11
221.232
 21
220.249
  0
LINE
  8
0
 10
221.232
 20
220.249
 11
221.25
 21
220
  0
LINE
  8
0
 10
221.25
 20
220
 11
221.232
 21
219.751
  0
LINE
  8
0
 10
221.232
 20
219.751
 11
221.179
 21
219.507
  0
LINE
  8
0
 10
221.179
 20
219.507
 11
221.092
 21
219.273
  0
LINE
  8
0
 10
221.092
 20
219.273
 11
220.972
 21
219.054
  0
LINE
  8
0
 10
220.972
 20
219.054
 11
220.823
 21
218.854
  0
LINE
  8
0
 10
220.823
 20
218.854
 11
220.646
 21
218.677
  0
LINE
  8
0
 10
220.646
 20
218.677
 11
220.446
 21
218.528
  0
LINE
  8
0
 10
220.446
 20
218.528
 11
220.227
 21
218.408
  0
LINE
  8
0
 10
220.227
 20
218.408
 11
219.993
 21
218.321
  0
LINE
  8
0
 10
219.993
 20
218.321
 11
219.749
 21
218.268
  0
LINE
  8
0
 10
219.749
 20
218.268
 11
219.5
 21
218.25
  0
LINE
  8
0
 10
219.5
 20
218.25
 11
119.5
 21
218.25
  0
LINE
  8
0
 10
227.191
 20
218.328
 11
226.951
 21
218.391
  0
LINE
  8
0
 10
226.951
 20
218.391
 11
226.723
 21
218.488
  0
LINE
  8
0
 10
226.723
 20
218.488
 11
226.511
 21
218.617
  0
LINE
  8
0
 10
226.511
 20
218.617
 11
226.32
 21
218.776
  0
LINE
  8
0
 10
226.32
 20
218.776
 11
226.154
 21
218.961
  0
LINE
  8
0
 10
226.154
 20
218.961
 11
226.018
 21
219.168
  0
LINE
  8
0
 10
226.018
 20
219.168
 11
225.912
 21
219.393
  0
LINE
  8
0
 10
225.912
 20
219.393
 11
225.841
 21
219.63
  0
LINE
  8
0
 10
225.841
 20
219.63
 11
225.805
 21
219.876
  0
LINE
  8
0
 10
225.805
 20
219.876
 11
225.805
 21
220.124
  0
LINE
  8
0
 10
225.805
 20
220.124
 11
225.841
 21
220.37
  0
LINE
  8
0
 10
225.841
 20
220.37
 11
225.912
 21
220.607
  0
LINE
  8
0
 10
225.912
 20
220.607
 11
226.018
 21
220.832
  0
LINE
  8
0
 10
226.018
 20
220.832
 11
226.154
 21
221.039
  0
LINE
  8
0
 10
226.154
 20
221.039
 11
226.32
 21
221.224
  0
LINE
  8
0
 10
226.32
 20
221.224
 11
226.511
 21
221.383
  0
LINE
  8
0
 10
226.511
 20
221.383
 11
226.723
 21
221.512
  0
LINE
  8
0
 10
226.723
 20
221.512
 11
226.951
 21
221.609
  0
LINE
  8
0
 10
226.951
 20
221.609
 11
227.191
 21
221.672
  0
LINE
  8
0
 10
227.191
 20
221.672
 11
227.438
 21
221.699
  0
LINE
  8
0
 10
227.438
 20
221.699
 11
227.686
 21
221.69
  0
LINE
  8
0
 10
227.686
 20
221.69
 11
227.93
 21
221.645
  0
LINE
  8
0
 10
227.93
 20
221.645
 11
228.165
 21
221.565
  0
LINE
  8
0
 10
228.165
 20
221.565
 11
228.386
 21
221.451
  0
LINE
  8
0
 10
228.386
 20
221.451
 11
228.587
 21
221.307
  0
LINE
  8
0
 10
228.587
 20
221.307
 11
228.766
 21
221.134
  0
LINE
  8
0
 10
228.766
 20
221.134
 11
228.918
 21
220.938
  0
LINE
  8
0
 10
228.918
 20
220.938
 11
229.039
 21
220.722
  0
LINE
  8
0
 10
229.039
 20
220.722
 11
229.128
 21
220.49
  0
LINE
  8
0
 10
229.128
 20
220.49
 11
229.182
 21
220.248
  0
LINE
  8
0
 10
229.182
 20
220.248
 11
229.2
 21
220
  0
LINE
  8
0
 10
229.2
 20
220
 11
229.182
 21
219.752
  0
LINE
  8
0
 10
229.182
 20
219.752
 11
229.128
 21
219.51
  0
LINE
  8
0
 10
229.128
 20
219.51
 11
229.039
 21
219.278
  0
LINE
  8
0
 10
229.039
 20
219.278
 11
228.918
 21
219.062
  0
LINE
  8
0
 10
228.918
 20
219.062
 11
228.766
 21
218.866
  0
LINE
  8
0
 10
228.766
 20
218.866
 11
228.587
 21
218.693
  0
LINE
  8
0
 10
228.587
 20
218.693
 11
228.386
 21
218.549
  0
LINE
  8
0
 10
228.386
 20
218.549
 11
228.165
 21
218.435
  0
LINE
  8
0
 10
228.165
 20
218.435
 11
227.93
 21
218.355
  0
LINE
  8
0
 10
227.93
 20
218.355
 11
227.686
 21
218.31
  0
LINE
  8
0
 10
227.686
 20
218.31
 11
227.438
 21
218.301
  0
LINE
  8
0
 10
227.438
 20
218.301
 11
227.191
 21
218.328
  0
LINE
  8
0
 10
278.5
 20
193
 11
277.193
 21
193.068
  0
LINE
  8
0
 10
277.193
 20
193.068
 11
275.901
 21
193.273
  0
LINE
  8
0
 10
275.901
 20
193.273
 11
274.637
 21
193.612
  0
LINE
  8
0
 10
274.637
 20
193.612
 11
273.416
 21
194.081
  0
LINE
  8
0
 10
273.416
 20
194.081
 11
272.25
 21
194.675
  0
LINE
  8
0
 10
272.25
 20
194.675
 11
271.153
 21
195.387
  0
LINE
  8
0
 10
271.153
 20
195.387
 11
270.136
 21
196.211
  0
LINE
  8
0
 10
270.136
 20
196.211
 11
269.211
 21
197.136
  0
LINE
  8
0
 10
269.211
 20
197.136
 11
268.387
 21
198.153
  0
LINE
  8
0
 10
268.387
 20
198.153
 11
267.675
 21
199.25
  0
LINE
  8
0
 10
267.675
 20
199.25
 11
267.081
 21
200.416
  0
LINE
  8
0
 10
267.081
 20
200.416
 11
266.612
 21
201.637
  0
LINE
  8
0
 10
266.612
 20
201.637
 11
266.273
 21
202.901
  0
LINE
  8
0
 10
266.273
 20
202.901
 11
266.068
 21
204.193
  0
LINE
  8
0
 10
266.068
 20
204.193
 11
266
 21
205.5
  0
LINE
  8
0
 10
266
 20
205.5
 11
266.068
 21
206.807
  0
LINE
  8
0
 10
266.068
 20
206.807
 11
266.273
 21
208.099
  0
LINE
  8
0
 10
266.273
 20
208.099
 11
266.612
 21
209.363
  0
LINE
  8
0
 10
266.612
 20
209.363
 11
267.081
 21
210.584
  0
LINE
  8
0
 10
267.081
 20
210.584
 11
267.675
 21
211.75
  0
LINE
  8
0
 10
267.675
 20
211.75
 11
268.387
 21
212.847
  0
LINE
  8
0
 10
268.387
 20
212.847
 11
269.211
 21
213.864
  0
LINE
  8
0
 10
269.211
 20
213.864
 11
270.136
 21
214.789
  0
LINE
  8
0
 10
270.136
 20
214.789
 11
271.153
 21
215.613
  0
LINE
  8
0
 10
271.153
 20
215.613
 11
272.25
 21
216.325
  0
LINE
  8
0
 10
272.25
 20
216.325
 11
273.416
 21
216.919
  0
LINE
  8
0
 10
273.416
 20
216.919
 11
274.637
 21
217.388
  0
LINE
  8
0
 10
274.637
 20
217.388
 11
275.901
 21
217.727
  0
LINE
  8
0
 10
275.901
 20
217.727
 11
277.193
 21
217.932
  0
LINE
  8
0
 10
277.193
 20
217.932
 11
278.5
 21
218
  0
LINE
  8
0
 10
278.5
 20
218
 11
286.5
 21
218
  0
LINE
  8
0
 10
286.5
 20
218
 11
287.807
 21
217.932
  0
LINE
  8
0
 10
287.807
 20
217.932
 11
289.099
 21
217.727
  0
LINE
  8
0
 10
289.099
 20
217.727
 11
290.363
 21
217.388
  0
LINE
  8
0
 10
290.363
 20
217.388
 11
291.584
 21
216.919
  0
LINE
  8
0
 10
291.584
 20
216.919
 11
292.75
 21
216.325
  0
LINE
  8
0
 10
292.75
 20
216.325
 11
293.847
 21
215.613
  0
LINE
  8
0
 10
293.847
 20
215.613
 11
294.864
 21
214.789
  0
LINE
  8
0
 10
294.864
 20
214.789
 11
295.789
 21
213.864
  0
LINE
  8
0
 10
295.789
 20
213.864
 11
296.613
 21
212.847
  0
LINE
  8
0
 10
296.613
 20
212.847
 11
297.325
 21
211.75
  0
LINE
  8
0
 10
297.325
 20
211.75
 11
297.919
 21
210.584
  0
LINE
  8
0
 10
297.919
 20
210.584
 11
298.388
 21
209.363
  0
LINE
  8
0
 10
298.388
 20
209.363
 11
298.727
 21
208.099
  0
LINE
  8
0
 10
298.727
 20
208.099
 11
298.932
 21
206.807
  0
LINE
  8
0
 10
298.932
 20
206.807
 11
299
 21
205.5
  0
LINE
  8
0
 10
299
 20
205.5
 11
298.932
 21
204.193
  0
LINE
  8
0
 10
298.932
 20
204.193
 11
298.727
 21
202.901
  0
LINE
  8
0
 10
298.727
 20
202.901
 11
298.388
 21
201.637
  0
LINE
  8
0
 10
298.388
 20
201.637
 11
297.919
 21
200.416
  0
LINE
  8
0
 10
297.919
 20
200.416
 11
297.325
 21
199.25
  0
LINE
  8
0
 10
297.325
 20
199.25
 11
296.613
 21
198.153
  0
LINE
  8
0
 10
296.613
 20
198.153
 11
295.789
 21
197.136
  0
LINE
  8
0
 10
295.789
 20
197.136
 11
294.864
 21
196.211
  0
LINE
  8
0
 10
294.864
 20
196.211
 11
293.847
 21
195.387
  0
LINE
  8
0
 10
293.847
 20
195.387
 11
292.75
 21
194.675
  0
LINE
  8
0
 10
292.75
 20
194.675
 11
291.584
 21
194.081
  0
LINE
  8
0
 10
291.584
 20
194.081
 11
290.363
 21
193.612
  0
LINE
  8
0
 10
290.363
 20
193.612
 11
289.099
 21
193.273
  0
LINE
  8
0
 10
289.099
 20
193.273
 11
287.807
 21
193.068
  0
LINE
  8
0
 10
287.807
 20
193.068
 11
286.5
 21
193
  0
LINE
  8
0
 10
286.5
 20
193
 11
278.5
 21
193
  0
LINE
  8
0
 10
-229
 20
-212.5
 11
-229.223
 21
-212.475
  0
LINE
  8
0
 10
-229.223
 20
-212.475
 11
-229.434
 21
-212.401
  0
LINE
  8
0
 10
-229.434
 20
-212.401
 11
-229.623
 21
-212.282
  0
LINE
  8
0
 10
-229.623
 20
-212.282
 11
-229.782
 21
-212.123
  0
LINE
  8
0
 10
-229.782
 20
-212.123
 11
-229.901
 21
-211.934
  0
LINE
  8
0
 10
-229.901
 20
-211.934
 11
-229.975
 21
-211.723
  0
LINE
  8
0
 10
-229.975
 20
-211.723
 11
-230
 21
-211.5
  0
LINE
  8
0
 10
-230
 20
-211.5
 11
-230
 21
211.5
  0
LINE
  8
0
 10
-230
 20
211.5
 11
-229.975
 21
211.723
  0
LINE
  8
0
 10
-229.975
 20
211.723
 11
-229.901
 21
211.934
  0
LINE
  8
0
 10
-229.901
 20
211.934
 11
-229.782
 21
212.123
  0
LINE
  8
0
 10
-229.782
 20
212.123
 11
-229.623
 21
212.282
  0
LINE
  8
0
 10
-229.623
 20
212.282
 11
-229.434
 21
212.401
  0
LINE
  8
0
 10
-229.434
 20
212.401
 11
-229.223
 21
212.475
  0
LINE
  8
0
 10
-229.223
 20
212.475
 11
-229
 21
212.5
  0
LINE
  8
0
 10
-229
 20
212.5
 11
229
 21
212.5
  0
LINE
  8
0
 10
229
 20
212.5
 11
229.223
 21
212.475
  0
LINE
  8
0
 10
229.223
 20
212.475
 11
229.434
 21
212.401
  0
LINE
  8
0
 10
229.434
 20
212.401
 11
229.623
 21
212.282
  0
LINE
  8
0
 10
229.623
 20
212.282
 11
229.782
 21
212.123
  0
LINE
  8
0
 10
229.782
 20
212.123
 11
229.901
 21
211.934
  0
LINE
  8
0
 10
229.901
 20
211.934
 11
229.975
 21
211.723
  0
LINE
  8
0
 10
229.975
 20
211.723
 11
230
 21
211.5
  0
LINE
  8
0
 10
230
 20
211.5
 11
230
 21
-211.5
  0
LINE
  8
0
 10
230
 20
-211.5
 11
229.975
 21
-211.723
  0
LINE
  8
0
 10
229.975
 20
-211.723
 11
229.901
 21
-211.934
  0
LINE
  8
0
 10
229.901
 20
-211.934
 11
229.782
 21
-212.123
  0
LINE
  8
0
 10
229.782
 20
-212.123
 11
229.623
 21
-212.282
  0
LINE
  8
0
 10
229.623
 20
-212.282
 11
229.434
 21
-212.401
  0
LINE
  8
0
 10
229.434
 20
-212.401
 11
229.223
 21
-212.475
  0
LINE
  8
0
 10
229.223
 20
-212.475
 11
229
 21
-212.5
  0
LINE
  8
0
 10
229
 20
-212.5
 11
-229
 21
-212.5
  0
LINE
  8
0
 10
237.191
 20
208.328
 11
236.951
 21
208.391
  0
LINE
  8
0
 10
236.951
 20
208.391
 11
236.723
 21
208.488
  0
LINE
  8
0
 10
236.723
 20
208.488
 11
236.511
 21
208.617
  0
LINE
  8
0
 10
236.511
 20
208.617
 11
236.32
 21
208.776
  0
LINE
  8
0
 10
236.32
 20
208.776
 11
236.154
 21
208.961
  0
LINE
  8
0
 10
236.154
 20
208.961
 11
236.018
 21
209.168
  0
LINE
  8
0
 10
236.018
 20
209.168
 11
235.912
 21
209.393
  0
LINE
  8
0
 10
235.912
 20
209.393
 11
235.841
 21
209.63
  0
LINE
  8
0
 10
235.841
 20
209.63
 11
235.805
 21
209.876
  0
LINE
  8
0
 10
235.805
 20
209.876
 11
235.805
 21
210.124
  0
LINE
  8
0
 10
235.805
 20
210.124
 11
235.841
 21
210.37
  0
LINE
  8
0
 10
235.841
 20
210.37
 11
235.912
 21
210.607
  0
LINE
  8
0
 10
235.912
 20
210.607
 11
236.018
 21
210.832
  0
LINE
  8
0
 10
236.018
 20
210.832
 11
236.154
 21
211.039
  0
LINE
  8
0
 10
236.154
 20
211.039
 11
236.32
 21
211.224
  0
LINE
  8
0
 10
236.32
 20
211.224
 11
236.511
 21
211.383
  0
LINE
  8
0
 10
236.511
 20
211.383
 11
236.723
 21
211.512
  0
LINE
  8
0
 10
236.723
 20
211.512
 11
236.951
 21
211.609
  0
LINE
  8
0
 10
236.951
 20
211.609
 11
237.191
 21
211.672
  0
LINE
  8
0
 10
237.191
 20
211.672
 11
237.438
 21
211.699
  0
LINE
  8
0
 10
237.438
 20
211.699
 11
237.686
 21
211.69
  0
LINE
  8
0
 10
237.686
 20
211.69
 11
237.93
 21
211.645
  0
LINE
  8
0
 10
237.93
 20
211.645
 11
238.165
 21
211.565
  0
LINE
  8
0
 10
238.165
 20
211.565
 11
238.386
 21
211.451
  0
LINE
  8
0
 10
238.386
 20
211.451
 11
238.587
 21
211.307
  0
LINE
  8
0
 10
238.587
 20
211.307
 11
238.766
 21
211.134
  0
LINE
  8
0
 10
238.766
 20
211.134
 11
238.918
 21
210.938
  0
LINE
  8
0
 10
238.918
 20
210.938
 11
239.039
 21
210.722
  0
LINE
  8
0
 10
239.039
 20
210.722
 11
239.128
 21
210.49
  0
LINE
  8
0
 10
239.128
 20
210.49
 11
239.182
 21
210.248
  0
LINE
  8
0
 10
239.182
 20
210.248
 11
239.2
 21
210
  0
LINE
  8
0
 10
239.2
 20
210
 11
239.182
 21
209.752
  0
LINE
  8
0
 10
239.182
 20
209.752
 11
239.128
 21
209.51
  0
LINE
  8
0
 10
239.128
 20
209.51
 11
239.039
 21
209.278
  0
LINE
  8
0
 10
239.039
 20
209.278
 11
238.918
 21
209.062
  0
LINE
  8
0
 10
238.918
 20
209.062
 11
238.766
 21
208.866
  0
LINE
  8
0
 10
238.766
 20
208.866
 11
238.587
 21
208.693
  0
LINE
  8
0
 10
238.587
 20
208.693
 11
238.386
 21
208.549
  0
LINE
  8
0
 10
238.386
 20
208.549
 11
238.165
 21
208.435
  0
LINE
  8
0
 10
238.165
 20
208.435
 11
237.93
 21
208.355
  0
LINE
  8
0
 10
237.93
 20
208.355
 11
237.686
 21
208.31
  0
LINE
  8
0
 10
237.686
 20
208.31
 11
237.438
 21
208.301
  0
LINE
  8
0
 10
237.438
 20
208.301
 11
237.191
 21
208.328
  0
LINE
  8
0
 10
-285.309
 20
203.828
 11
-285.549
 21
203.891
  0
LINE
  8
0
 10
-285.549
 20
203.891
 11
-285.777
 21
203.988
  0
LINE
  8
0
 10
-285.777
 20
203.988
 11
-285.989
 21
204.117
  0
LINE
  8
0
 10
-285.989
 20
204.117
 11
-286.18
 21
204.276
  0
LINE
  8
0
 10
-286.18
 20
204.276
 11
-286.346
 21
204.461
  0
LINE
  8
0
 10
-286.346
 20
204.461
 11
-286.482
 21
204.668
  0
LINE
  8
0
 10
-286.482
 20
204.668
 11
-286.588
 21
204.893
  0
LINE
  8
0
 10
-286.588
 20
204.893
 11
-286.659
 21
205.13
  0
LINE
  8
0
 10
-286.659
 20
205.13
 11
-286.695
 21
205.376
  0
LINE
  8
0
 10
-286.695
 20
205.376
 11
-286.695
 21
205.624
  0
LINE
  8
0
 10
-286.695
 20
205.624
 11
-286.659
 21
205.87
  0
LINE
  8
0
 10
-286.659
 20
205.87
 11
-286.588
 21
206.107
  0
LINE
  8
0
 10
-286.588
 20
206.107
 11
-286.482
 21
206.332
  0
LINE
  8
0
 10
-286.482
 20
206.332
 11
-286.346
 21
206.539
  0
LINE
  8
0
 10
-286.346
 20
206.539
 11
-286.18
 21
206.724
  0
LINE
  8
0
 10
-286.18
 20
206.724
 11
-285.989
 21
206.883
  0
LINE
  8
0
 10
-285.989
 20
206.883
 11
-285.777
 21
207.012
  0
LINE
  8
0
 10
-285.777
 20
207.012
 11
-285.549
 21
207.109
  0
LINE
  8
0
 10
-285.549
 20
207.109
 11
-285.309
 21
207.172
  0
LINE
  8
0
 10
-285.309
 20
207.172
 11
-285.062
 21
207.199
  0
LINE
  8
0
 10
-285.062
 20
207.199
 11
-284.814
 21
207.19
  0
LINE
  8
0
 10
-284.814
 20
207.19
 11
-284.57
 21
207.145
  0
LINE
  8
0
 10
-284.57
 20
207.145
 11
-284.335
 21
207.065
  0
LINE
  8
0
 10
-284.335
 20
207.065
 11
-284.114
 21
206.951
  0
LINE
  8
0
 10
-284.114
 20
206.951
 11
-283.913
 21
206.807
  0
LINE
  8
0
 10
-283.913
 20
206.807
 11
-283.734
 21
206.634
  0
LINE
  8
0
 10
-283.734
 20
206.634
 11
-283.582
 21
206.438
  0
LINE
  8
0
 10
-283.582
 20
206.438
 11
-283.461
 21
206.222
  0
LINE
  8
0
 10
-283.461
 20
206.222
 11
-283.372
 21
205.99
  0
LINE
  8
0
 10
-283.372
 20
205.99
 11
-283.318
 21
205.748
  0
LINE
  8
0
 10
-283.318
 20
205.748
 11
-283.3
 21
205.5
  0
LINE
  8
0
 10
-283.3
 20
205.5
 11
-283.318
 21
205.252
  0
LINE
  8
0
 10
-283.318
 20
205.252
 11
-283.372
 21
205.01
  0
LINE
  8
0
 10
-283.372
 20
205.01
 11
-283.461
 21
204.778
  0
LINE
  8
0
 10
-283.461
 20
204.778
 11
-283.582
 21
204.562
  0
LINE
  8
0
 10
-283.582
 20
204.562
 11
-283.734
 21
204.366
  0
LINE
  8
0
 10
-283.734
 20
204.366
 11
-283.913
 21
204.193
  0
LINE
  8
0
 10
-283.913
 20
204.193
 11
-284.114
 21
204.049
  0
LINE
  8
0
 10
-284.114
 20
204.049
 11
-284.335
 21
203.935
  0
LINE
  8
0
 10
-284.335
 20
203.935
 11
-284.57
 21
203.855
  0
LINE
  8
0
 10
-284.57
 20
203.855
 11
-284.814
 21
203.81
  0
LINE
  8
0
 10
-284.814
 20
203.81
 11
-285.062
 21
203.801
  0
LINE
  8
0
 10
-285.062
 20
203.801
 11
-285.309
 21
203.828
  0
LINE
  8
0
 10
-237.749
 20
108.268
 11
-237.993
 21
108.321
  0
LINE
  8
0
 10
-237.993
 20
108.321
 11
-238.227
 21
108.408
  0
LINE
  8
0
 10
-238.227
 20
108.408
 11
-238.446
 21
108.528
  0
LINE
  8
0
 10
-238.446
 20
108.528
 11
-238.646
 21
108.677
  0
LINE
  8
0
 10
-238.646
 20
108.677
 11
-238.823
 21
108.854
  0
LINE
  8
0
 10
-238.823
 20
108.854
 11
-238.972
 21
109.054
  0
LINE
  8
0
 10
-238.972
 20
109.054
 11
-239.092
 21
109.273
  0
LINE
  8
0
 10
-239.092
 20
109.273
 11
-239.179
 21
109.507
  0
LINE
  8
0
 10
-239.179
 20
109.507
 11
-239.232
 21
109.751
  0
LINE
  8
0
 10
-239.232
 20
109.751
 11
-239.25
 21
110
  0
LINE
  8
0
 10
-239.25
 20
110
 11
-239.25
 21
200
  0
LINE
  8
0
 10
-239.25
 20
200
 11
-239.232
 21
200.249
  0
LINE
  8
0
 10
-239.232
 20
200.249
 11
-239.179
 21
200.493
  0
LINE
  8
0
 10
-239.179
 20
200.493
 11
-239.092
 21
200.727
  0
LINE
  8
0
 10
-239.092
 20
200.727
 11
-238.972
 21
200.946
  0
LINE
  8
0
 10
-238.972
 20
200.946
 11
-238.823
 21
201.146
  0
LINE
  8
0
 10
-238.823
 20
201.146
 11
-238.646
 21
201.323
  0
LINE
  8
0
 10
-238.646
 20
201.323
 11
-238.446
 21
201.472
  0
LINE
  8
0
 10
-238.446
 20
201.472
 11
-238.227
 21
201.592
  0
LINE
  8
0
 10
-238.227
 20
201.592
 11
-237.993
 21
201.679
  0
LINE
  8
0
 10
-237.993
 20
201.679
 11
-237.749
 21
201.732
  0
LINE
  8
0
 10
-237.749
 20
201.732
 11
-237.5
 21
201.75
  0
LINE
  8
0
 10
-237.5
 20
201.75
 11
-237.251
 21
201.732
  0
LINE
  8
0
 10
-237.251
 20
201.732
 11
-237.007
 21
201.679
  0
LINE
  8
0
 10
-237.007
 20
201.679
 11
-236.773
 21
201.592
  0
LINE
  8
0
 10
-236.773
 20
201.592
 11
-236.554
 21
201.472
  0
LINE
  8
0
 10
-236.554
 20
201.472
 11
-236.354
 21
201.323
  0
LINE
  8
0
 10
-236.354
 20
201.323
 11
-236.177
 21
201.146
  0
LINE
  8
0
 10
-236.177
 20
201.146
 11
-236.028
 21
200.946
  0
LINE
  8
0
 10
-236.028
 20
200.946
 11
-235.908
 21
200.727
  0
LINE
  8
0
 10
-235.908
 20
200.727
 11
-235.821
 21
200.493
  0
LINE
  8
0
 10
-235.821
 20
200.493
 11
-235.768
 21
200.249
  0
LINE
  8
0
 10
-235.768
 20
200.249
 11
-235.75
 21
200
  0
LINE
  8
0
 10
-235.75
 20
200
 11
-235.75
 21
110
  0
LINE
  8
0
 10
-235.75
 20
110
 11
-235.768
 21
109.751
  0
LINE
  8
0
 10
-235.768
 20
109.751
 11
-235.821
 21
109.507
  0
LINE
  8
0
 10
-235.821
 20
109.507
 11
-235.908
 21
109.273
  0
LINE
  8
0
 10
-235.908
 20
109.273
 11
-236.028
 21
109.054
  0
LINE
  8
0
 10
-236.028
 20
109.054
 11
-236.177
 21
108.854
  0
LINE
  8
0
 10
-236.177
 20
108.854
 11
-236.354
 21
108.677
  0
LINE
  8
0
 10
-236.354
 20
108.677
 11
-236.554
 21
108.528
  0
LINE
  8
0
 10
-236.554
 20
108.528
 11
-236.773
 21
108.408
  0
LINE
  8
0
 10
-236.773
 20
108.408
 11
-237.007
 21
108.321
  0
LINE
  8
0
 10
-237.007
 20
108.321
 11
-237.251
 21
108.268
  0
LINE
  8
0
 10
-237.251
 20
108.268
 11
-237.5
 21
108.25
  0
LINE
  8
0
 10
-237.5
 20
108.25
 11
-237.749
 21
108.268
  0
LINE
  8
0
 10
237.251
 20
108.268
 11
237.007
 21
108.321
  0
LINE
  8
0
 10
237.007
 20
108.321
 11
236.773
 21
108.408
  0
LINE
  8
0
 10
236.773
 20
108.408
 11
236.554
 21
108.528
  0
LINE
  8
0
 10
236.554
 20
108.528
 11
236.354
 21
108.677
  0
LINE
  8
0
 10
236.354
 20
108.677
 11
236.177
 21
108.854
  0
LINE
  8
0
 10
236.177
 20
108.854
 11
236.028
 21
109.054
  0
LINE
  8
0
 10
236.028
 20
109.054
 11
235.908
 21
109.273
  0
LINE
  8
0
 10
235.908
 20
109.273
 11
235.821
 21
109.507
  0
LINE
  8
0
 10
235.821
 20
109.507
 11
235.768
 21
109.751
  0
LINE
  8
0
 10
235.768
 20
109.751
 11
235.75
 21
110
  0
LINE
  8
0
 10
235.75
 20
110
 11
235.75
 21
200
  0
LINE
  8
0
 10
235.75
 20
200
 11
235.768
 21
200.249
  0
LINE
  8
0
 10
235.768
 20
200.249
 11
235.821
 21
200.493
  0
LINE
  8
0
 10
235.821
 20
200.493
 11
235.908
 21
200.727
  0
LINE
  8
0
 10
235.908
 20
200.727
 11
236.028
 21
200.946
  0
LINE
  8
0
 10
236.028
 20
200.946
 11
236.177
 21
201.146
  0
LINE
  8
0
 10
236.177
 20
201.146
 11
236.354
 21
201.323
  0
LINE
  8
0
 10
236.354
 20
201.323
 11
236.554
 21
201.472
  0
LINE
  8
0
 10
236.554
 20
201.472
 11
236.773
 21
201.592
  0
LINE
  8
0
 10
236.773
 20
201.592
 11
237.007
 21
201.679
  0
LINE
  8
0
 10
237.007
 20
201.679
 11
237.251
 21
201.732
  0
LINE
  8
0
 10
237.251
 20
201.732
 11
237.5
 21
201.75
  0
LINE
  8
0
 10
237.5
 20
201.75
 11
237.749
 21
201.732
  0
LINE
  8
0
 10
237.749
 20
201.732
 11
237.993
 21
201.679
  0
LINE
  8
0
 10
237.993
 20
201.679
 11
238.227
 21
201.592
  0
LINE
  8
0
 10
238.227
 20
201.592
 11
238.446
 21
201.472
  0
LINE
  8
0
 10
238.446
 20
201.472
 11
238.646
 21
201.323
  0
LINE
  8
0
 10
238.646
 20
201.323
 11
238.823
 21
201.146
  0
LINE
  8
0
 10
238.823
 20
201.146
 11
238.972
 21
200.946
  0
LINE
  8
0
 10
238.972
 20
200.946
 11
239.092
 21
200.727
  0
LINE
  8
0
 10
239.092
 20
200.727
 11
239.179
 21
200.493
  0
LINE
  8
0
 10
239.179
 20
200.493
 11
239.232
 21
200.249
  0
LINE
  8
0
 10
239.232
 20
200.249
 11
239.25
 21
200
  0
LINE
  8
0
 10
239.25
 20
200
 11
239.25
 21
110
  0
LINE
  8
0
 10
239.25
 20
110
 11
239.232
 21
109.751
  0
LINE
  8
0
 10
239.232
 20
109.751
 11
239.179
 21
109.507
  0
LINE
  8
0
 10
239.179
 20
109.507
 11
239.092
 21
109.273
  0
LINE
  8
0
 10
239.092
 20
109.273
 11
238.972
 21
109.054
  0
LINE
  8
0
 10
238.972
 20
109.054
 11
238.823
 21
108.854
  0
LINE
  8
0
 10
238.823
 20
108.854
 11
238.646
 21
108.677
  0
LINE
  8
0
 10
238.646
 20
108.677
 11
238.446
 21
108.528
  0
LINE
  8
0
 10
238.446
 20
108.528
 11
238.227
 21
108.408
  0
LINE
  8
0
 10
238.227
 20
108.408
 11
237.993
 21
108.321
  0
LINE
  8
0
 10
237.993
 20
108.321
 11
237.749
 21
108.268
  0
LINE
  8
0
 10
237.749
 20
108.268
 11
237.5
 21
108.25
  0
LINE
  8
0
 10
237.5
 20
108.25
 11
237.251
 21
108.268
  0
LINE
  8
0
 10
-264.809
 20
192.828
 11
-265.049
 21
192.891
  0
LINE
  8
0
 10
-265.049
 20
192.891
 11
-265.277
 21
192.988
  0
LINE
  8
0
 10
-265.277
 20
192.988
 11
-265.489
 21
193.117
  0
LINE
  8
0
 10
-265.489
 20
193.117
 11
-265.68
 21
193.276
  0
LINE
  8
0
 10
-265.68
 20
193.276
 11
-265.846
 21
193.461
  0
LINE
  8
0
 10
-265.846
 20
193.461
 11
-265.982
 21
193.668
  0
LINE
  8
0
 10
-265.982
 20
193.668
 11
-266.088
 21
193.893
  0
LINE
  8
0
 10
-266.088
 20
193.893
 11
-266.159
 21
194.13
  0
LINE
  8
0
 10
-266.159
 20
194.13
 11
-266.195
 21
194.376
  0
LINE
  8
0
 10
-266.195
 20
194.376
 11
-266.195
 21
194.624
  0
LINE
  8
0
 10
-266.195
 20
194.624
 11
-266.159
 21
194.87
  0
LINE
  8
0
 10
-266.159
 20
194.87
 11
-266.088
 21
195.107
  0
LINE
  8
0
 10
-266.088
 20
195.107
 11
-265.982
 21
195.332
  0
LINE
  8
0
 10
-265.982
 20
195.332
 11
-265.846
 21
195.539
  0
LINE
  8
0
 10
-265.846
 20
195.539
 11
-265.68
 21
195.724
  0
LINE
  8
0
 10
-265.68
 20
195.724
 11
-265.489
 21
195.883
  0
LINE
  8
0
 10
-265.489
 20
195.883
 11
-265.277
 21
196.012
  0
LINE
  8
0
 10
-265.277
 20
196.012
 11
-265.049
 21
196.109
  0
LINE
  8
0
 10
-265.049
 20
196.109
 11
-264.809
 21
196.172
  0
LINE
  8
0
 10
-264.809
 20
196.172
 11
-264.562
 21
196.199
  0
LINE
  8
0
 10
-264.562
 20
196.199
 11
-264.314
 21
196.19
  0
LINE
  8
0
 10
-264.314
 20
196.19
 11
-264.07
 21
196.145
  0
LINE
  8
0
 10
-264.07
 20
196.145
 11
-263.835
 21
196.065
  0
LINE
  8
0
 10
-263.835
 20
196.065
 11
-263.614
 21
195.951
  0
LINE
  8
0
 10
-263.614
 20
195.951
 11
-263.413
 21
195.807
  0
LINE
  8
0
 10
-263.413
 20
195.807
 11
-263.234
 21
195.634
  0
LINE
  8
0
 10
-263.234
 20
195.634
 11
-263.082
 21
195.438
  0
LINE
  8
0
 10
-263.082
 20
195.438
 11
-262.961
 21
195.222
  0
LINE
  8
0
 10
-262.961
 20
195.222
 11
-262.872
 21
194.99
  0
LINE
  8
0
 10
-262.872
 20
194.99
 11
-262.818
 21
194.748
  0
LINE
  8
0
 10
-262.818
 20
194.748
 11
-262.8
 21
194.5
  0
LINE
  8
0
 10
-262.8
 20
194.5
 11
-262.818
 21
194.252
  0
LINE
  8
0
 10
-262.818
 20
194.252
 11
-262.872
 21
194.01
  0
LINE
  8
0
 10
-262.872
 20
194.01
 11
-262.961
 21
193.778
  0
LINE
  8
0
 10
-262.961
 20
193.778
 11
-263.082
 21
193.562
  0
LINE
  8
0
 10
-263.082
 20
193.562
 11
-263.234
 21
193.366
  0
LINE
  8
0
 10
-263.234
 20
193.366
 11
-263.413
 21
193.193
  0
LINE
  8
0
 10
-263.413
 20
193.193
 11
-263.614
 21
193.049
  0
LINE
  8
0
 10
-263.614
 20
193.049
 11
-263.835
 21
192.935
  0
LINE
  8
0
 10
-263.835
 20
192.935
 11
-264.07
 21
192.855
  0
LINE
  8
0
 10
-264.07
 20
192.855
 11
-264.314
 21
192.81
  0
LINE
  8
0
 10
-264.314
 20
192.81
 11
-264.562
 21
192.801
  0
LINE
  8
0
 10
-264.562
 20
192.801
 11
-264.809
 21
192.828
  0
LINE
  8
0
 10
294.377
 20
188.355
 11
294.133
 21
188.391
  0
LINE
  8
0
 10
294.133
 20
188.391
 11
293.897
 21
188.464
  0
LINE
  8
0
 10
293.897
 20
188.464
 11
293.675
 21
188.571
  0
LINE
  8
0
 10
293.675
 20
188.571
 11
293.471
 21
188.71
  0
LINE
  8
0
 10
293.471
 20
188.71
 11
293.29
 21
188.878
  0
LINE
  8
0
 10
293.29
 20
188.878
 11
293.137
 21
189.071
  0
LINE
  8
0
 10
293.137
 20
189.071
 11
293.013
 21
189.284
  0
LINE
  8
0
 10
293.013
 20
189.284
 11
292.923
 21
189.514
  0
LINE
  8
0
 10
292.923
 20
189.514
 11
292.868
 21
189.754
  0
LINE
  8
0
 10
292.868
 20
189.754
 11
292.85
 21
190
  0
LINE
  8
0
 10
292.85
 20
190
 11
292.868
 21
190.246
  0
LINE
  8
0
 10
292.868
 20
190.246
 11
292.923
 21
190.486
  0
LINE
  8
0
 10
292.923
 20
190.486
 11
293.013
 21
190.716
  0
LINE
  8
0
 10
293.013
 20
190.716
 11
293.137
 21
190.929
  0
LINE
  8
0
 10
293.137
 20
190.929
 11
293.29
 21
191.122
  0
LINE
  8
0
 10
293.29
 20
191.122
 11
293.471
 21
191.29
  0
LINE
  8
0
 10
293.471
 20
191.29
 11
293.675
 21
191.429
  0
LINE
  8
0
 10
293.675
 20
191.429
 11
293.897
 21
191.536
  0
LINE
  8
0
 10
293.897
 20
191.536
 11
294.133
 21
191.609
  0
LINE
  8
0
 10
294.133
 20
191.609
 11
294.377
 21
191.645
  0
LINE
  8
0
 10
294.377
 20
191.645
 11
302.623
 21
191.645
  0
LINE
  8
0
 10
302.623
 20
191.645
 11
302.867
 21
191.609
  0
LINE
  8
0
 10
302.867
 20
191.609
 11
303.103
 21
191.536
  0
LINE
  8
0
 10
303.103
 20
191.536
 11
303.325
 21
191.429
  0
LINE
  8
0
 10
303.325
 20
191.429
 11
303.529
 21
191.29
  0
LINE
  8
0
 10
303.529
 20
191.29
 11
303.71
 21
191.122
  0
LINE
  8
0
 10
303.71
 20
191.122
 11
303.863
 21
190.929
  0
LINE
  8
0
 10
303.863
 20
190.929
 11
303.987
 21
190.716
  0
LINE
  8
0
 10
303.987
 20
190.716
 11
304.077
 21
190.486
  0
LINE
  8
0
 10
304.077
 20
190.486
 11
304.132
 21
190.246
  0
LINE
  8
0
 10
304.132
 20
190.246
 11
304.15
 21
190
  0
LINE
  8
0
 10
304.15
 20
190
 11
304.132
 21
189.754
  0
LINE
  8
0
 10
304.132
 20
189.754
 11
304.077
 21
189.514
  0
LINE
  8
0
 10
304.077
 20
189.514
 11
303.987
 21
189.284
  0
LINE
  8
0
 10
303.987
 20
189.284
 11
303.863
 21
189.071
  0
LINE
  8
0
 10
303.863
 20
189.071
 11
303.71
 21
188.878
  0
LINE
  8
0
 10
303.71
 20
188.878
 11
303.529
 21
188.71
  0
LINE
  8
0
 10
303.529
 20
188.71
 11
303.325
 21
188.571
  0
LINE
  8
0
 10
303.325
 20
188.571
 11
303.103
 21
188.464
  0
LINE
  8
0
 10
303.103
 20
188.464
 11
302.867
 21
188.391
  0
LINE
  8
0
 10
302.867
 20
188.391
 11
302.623
 21
188.355
  0
LINE
  8
0
 10
302.623
 20
188.355
 11
294.377
 21
188.355
  0
LINE
  8
0
 10
263.377
 20
188.355
 11
263.133
 21
188.391
  0
LINE
  8
0
 10
263.133
 20
188.391
 11
262.897
 21
188.464
  0
LINE
  8
0
 10
262.897
 20
188.464
 11
262.675
 21
188.571
  0
LINE
  8
0
 10
262.675
 20
188.571
 11
262.471
 21
188.71
  0
LINE
  8
0
 10
262.471
 20
188.71
 11
262.29
 21
188.878
  0
LINE
  8
0
 10
262.29
 20
188.878
 11
262.137
 21
189.071
  0
LINE
  8
0
 10
262.137
 20
189.071
 11
262.013
 21
189.284
  0
LINE
  8
0
 10
262.013
 20
189.284
 11
261.923
 21
189.514
  0
LINE
  8
0
 10
261.923
 20
189.514
 11
261.868
 21
189.754
  0
LINE
  8
0
 10
261.868
 20
189.754
 11
261.85
 21
190
  0
LINE
  8
0
 10
261.85
 20
190
 11
261.868
 21
190.246
  0
LINE
  8
0
 10
261.868
 20
190.246
 11
261.923
 21
190.486
  0
LINE
  8
0
 10
261.923
 20
190.486
 11
262.013
 21
190.716
  0
LINE
  8
0
 10
262.013
 20
190.716
 11
262.137
 21
190.929
  0
LINE
  8
0
 10
262.137
 20
190.929
 11
262.29
 21
191.122
  0
LINE
  8
0
 10
262.29
 20
191.122
 11
262.471
 21
191.29
  0
LINE
  8
0
 10
262.471
 20
191.29
 11
262.675
 21
191.429
  0
LINE
  8
0
 10
262.675
 20
191.429
 11
262.897
 21
191.536
  0
LINE
  8
0
 10
262.897
 20
191.536
 11
263.133
 21
191.609
  0
LINE
  8
0
 10
263.133
 20
191.609
 11
263.377
 21
191.645
  0
LINE
  8
0
 10
263.377
 20
191.645
 11
271.623
 21
191.645
  0
LINE
  8
0
 10
271.623
 20
191.645
 11
271.867
 21
191.609
  0
LINE
  8
0
 10
271.867
 20
191.609
 11
272.103
 21
191.536
  0
LINE
  8
0
 10
272.103
 20
191.536
 11
272.325
 21
191.429
  0
LINE
  8
0
 10
272.325
 20
191.429
 11
272.529
 21
191.29
  0
LINE
  8
0
 10
272.529
 20
191.29
 11
272.71
 21
191.122
  0
LINE
  8
0
 10
272.71
 20
191.122
 11
272.863
 21
190.929
  0
LINE
  8
0
 10
272.863
 20
190.929
 11
272.987
 21
190.716
  0
LINE
  8
0
 10
272.987
 20
190.716
 11
273.077
 21
190.486
  0
LINE
  8
0
 10
273.077
 20
190.486
 11
273.132
 21
190.246
  0
LINE
  8
0
 10
273.132
 20
190.246
 11
273.15
 21
190
  0
LINE
  8
0
 10
273.15
 20
190
 11
273.132
 21
189.754
  0
LINE
  8
0
 10
273.132
 20
189.754
 11
273.077
 21
189.514
  0
LINE
  8
0
 10
273.077
 20
189.514
 11
272.987
 21
189.284
  0
LINE
  8
0
 10
272.987
 20
189.284
 11
272.863
 21
189.071
  0
LINE
  8
0
 10
272.863
 20
189.071
 11
272.71
 21
188.878
  0
LINE
  8
0
 10
272.71
 20
188.878
 11
272.529
 21
188.71
  0
LINE
  8
0
 10
272.529
 20
188.71
 11
272.325
 21
188.571
  0
LINE
  8
0
 10
272.325
 20
188.571
 11
272.103
 21
188.464
  0
LINE
  8
0
 10
272.103
 20
188.464
 11
271.867
 21
188.391
  0
LINE
  8
0
 10
271.867
 20
188.391
 11
271.623
 21
188.355
  0
LINE
  8
0
 10
271.623
 20
188.355
 11
263.377
 21
188.355
  0
LINE
  8
0
 10
237.251
 20
4.93448
 11
237.007
 21
4.98755
  0
LINE
  8
0
 10
237.007
 20
4.98755
 11
236.773
 21
5.0748
  0
LINE
  8
0
 10
236.773
 20
5.0748
 11
236.554
 21
5.19446
  0
LINE
  8
0
 10
236.554
 20
5.19446
 11
236.354
 21
5.3441
  0
LINE
  8
0
 10
236.354
 20
5.3441
 11
236.177
 21
5.52065
  0
LINE
  8
0
 10
236.177
 20
5.52065
 11
236.028
 21
5.72054
  0
LINE
  8
0
 10
236.028
 20
5.72054
 11
235.908
 21
5.93968
  0
LINE
  8
0
 10
235.908
 20
5.93968
 11
235.821
 21
6.17363
  0
LINE
  8
0
 10
235.821
 20
6.17363
 11
235.768
 21
6.4176
  0
LINE
  8
0
 10
235.768
 20
6.4176
 11
235.75
 21
6.66666
  0
LINE
  8
0
 10
235.75
 20
6.66666
 11
235.75
 21
96.6667
  0
LINE
  8
0
 10
235.75
 20
96.6667
 11
235.768
 21
96.9157
  0
LINE
  8
0
 10
235.768
 20
96.9157
 11
235.821
 21
97.1597
  0
LINE
  8
0
 10
235.821
 20
97.1597
 11
235.908
 21
97.3936
  0
LINE
  8
0
 10
235.908
 20
97.3936
 11
236.028
 21
97.6128
  0
LINE
  8
0
 10
236.028
 20
97.6128
 11
236.177
 21
97.8127
  0
LINE
  8
0
 10
236.177
 20
97.8127
 11
236.354
 21
97.9892
  0
LINE
  8
0
 10
236.354
 20
97.9892
 11
236.554
 21
98.1389
  0
LINE
  8
0
 10
236.554
 20
98.1389
 11
236.773
 21
98.2585
  0
LINE
  8
0
 10
236.773
 20
98.2585
 11
237.007
 21
98.3458
  0
LINE
  8
0
 10
237.007
 20
98.3458
 11
237.251
 21
98.3988
  0
LINE
  8
0
 10
237.251
 20
98.3988
 11
237.5
 21
98.4167
  0
LINE
  8
0
 10
237.5
 20
98.4167
 11
237.749
 21
98.3988
  0
LINE
  8
0
 10
237.749
 20
98.3988
 11
237.993
 21
98.3458
  0
LINE
  8
0
 10
237.993
 20
98.3458
 11
238.227
 21
98.2585
  0
LINE
  8
0
 10
238.227
 20
98.2585
 11
238.446
 21
98.1389
  0
LINE
  8
0
 10
238.446
 20
98.1389
 11
238.646
 21
97.9892
  0
LINE
  8
0
 10
238.646
 20
97.9892
 11
238.823
 21
97.8127
  0
LINE
  8
0
 10
238.823
 20
97.8127
 11
238.972
 21
97.6128
  0
LINE
  8
0
 10
238.972
 20
97.6128
 11
239.092
 21
97.3936
  0
LINE
  8
0
 10
239.092
 20
97.3936
 11
239.179
 21
97.1597
  0
LINE
  8
0
 10
239.179
 20
97.1597
 11
239.232
 21
96.9157
  0
LINE
  8
0
 10
239.232
 20
96.9157
 11
239.25
 21
96.6667
  0
LINE
  8
0
 10
239.25
 20
96.6667
 11
239.25
 21
6.66666
  0
LINE
  8
0
 10
239.25
 20
6.66666
 11
239.232
 21
6.4176
  0
LINE
  8
0
 10
239.232
 20
6.4176
 11
239.179
 21
6.17363
  0
LINE
  8
0
 10
239.179
 20
6.17363
 11
239.092
 21
5.93968
  0
LINE
  8
0
 10
239.092
 20
5.93968
 11
238.972
 21
5.72054
  0
LINE
  8
0
 10
238.972
 20
5.72054
 11
238.823
 21
5.52065
  0
LINE
  8
0
 10
238.823
 20
5.52065
 11
238.646
 21
5.3441
  0
LINE
  8
0
 10
238.646
 20
5.3441
 11
238.446
 21
5.19446
  0
LINE
  8
0
 10
238.446
 20
5.19446
 11
238.227
 21
5.0748
  0
LINE
  8
0
 10
238.227
 20
5.0748
 11
237.993
 21
4.98755
  0
LINE
  8
0
 10
237.993
 20
4.98755
 11
237.749
 21
4.93448
  0
LINE
  8
0
 10
237.749
 20
4.93448
 11
237.5
 21
4.91666
  0
LINE
  8
0
 10
237.5
 20
4.91666
 11
237.251
 21
4.93448
  0
LINE
  8
0
 10
-237.749
 20
4.93448
 11
-237.993
 21
4.98755
  0
LINE
  8
0
 10
-237.993
 20
4.98755
 11
-238.227
 21
5.0748
  0
LINE
  8
0
 10
-238.227
 20
5.0748
 11
-238.446
 21
5.19446
  0
LINE
  8
0
 10
-238.446
 20
5.19446
 11
-238.646
 21
5.3441
  0
LINE
  8
0
 10
-238.646
 20
5.3441
 11
-238.823
 21
5.52065
  0
LINE
  8
0
 10
-238.823
 20
5.52065
 11
-238.972
 21
5.72054
  0
LINE
  8
0
 10
-238.972
 20
5.72054
 11
-239.092
 21
5.93968
  0
LINE
  8
0
 10
-239.092
 20
5.93968
 11
-239.179
 21
6.17363
  0
LINE
  8
0
 10
-239.179
 20
6.17363
 11
-239.232
 21
6.4176
  0
LINE
  8
0
 10
-239.232
 20
6.4176
 11
-239.25
 21
6.66666
  0
LINE
  8
0
 10
-239.25
 20
6.66666
 11
-239.25
 21
96.6667
  0
LINE
  8
0
 10
-239.25
 20
96.6667
 11
-239.232
 21
96.9157
  0
LINE
  8
0
 10
-239.232
 20
96.9157
 11
-239.179
 21
97.1597
  0
LINE
  8
0
 10
-239.179
 20
97.1597
 11
-239.092
 21
97.3936
  0
LINE
  8
0
 10
-239.092
 20
97.3936
 11
-238.972
 21
97.6128
  0
LINE
  8
0
 10
-238.972
 20
97.6128
 11
-238.823
 21
97.8127
  0
LINE
  8
0
 10
-238.823
 20
97.8127
 11
-238.646
 21
97.9892
  0
LINE
  8
0
 10
-238.646
 20
97.9892
 11
-238.446
 21
98.1389
  0
LINE
  8
0
 10
-238.446
 20
98.1389
 11
-238.227
 21
98.2585
  0
LINE
  8
0
 10
-238.227
 20
98.2585
 11
-237.993
 21
98.3458
  0
LINE
  8
0
 10
-237.993
 20
98.3458
 11
-237.749
 21
98.3988
  0
LINE
  8
0
 10
-237.749
 20
98.3988
 11
-237.5
 21
98.4167
  0
LINE
  8
0
 10
-237.5
 20
98.4167
 11
-237.251
 21
98.3988
  0
LINE
  8
0
 10
-237.251
 20
98.3988
 11
-237.007
 21
98.3458
  0
LINE
  8
0
 10
-237.007
 20
98.3458
 11
-236.773
 21
98.2585
  0
LINE
  8
0
 10
-236.773
 20
98.2585
 11
-236.554
 21
98.1389
  0
LINE
  8
0
 10
-236.554
 20
98.1389
 11
-236.354
 21
97.9892
  0
LINE
  8
0
 10
-236.354
 20
97.9892
 11
-236.177
 21
97.8127
  0
LINE
  8
0
 10
-236.177
 20
97.8127
 11
-236.028
 21
97.6128
  0
LINE
  8
0
 10
-236.028
 20
97.6128
 11
-235.908
 21
97.3936
  0
LINE
  8
0
 10
-235.908
 20
97.3936
 11
-235.821
 21
97.1597
  0
LINE
  8
0
 10
-235.821
 20
97.1597
 11
-235.768
 21
96.9157
  0
LINE
  8
0
 10
-235.768
 20
96.9157
 11
-235.75
 21
96.6667
  0
LINE
  8
0
 10
-235.75
 20
96.6667
 11
-235.75
 21
6.66666
  0
LINE
  8
0
 10
-235.75
 20
6.66666
 11
-235.768
 21
6.4176
  0
LINE
  8
0
 10
-235.768
 20
6.4176
 11
-235.821
 21
6.17363
  0
LINE
  8
0
 10
-235.821
 20
6.17363
 11
-235.908
 21
5.93968
  0
LINE
  8
0
 10
-235.908
 20
5.93968
 11
-236.028
 21
5.72054
  0
LINE
  8
0
 10
-236.028
 20
5.72054
 11
-236.177
 21
5.52065
  0
LINE
  8
0
 10
-236.177
 20
5.52065
 11
-236.354
 21
5.3441
  0
LINE
  8
0
 10
-236.354
 20
5.3441
 11
-236.554
 21
5.19446
  0
LINE
  8
0
 10
-236.554
 20
5.19446
 11
-236.773
 21
5.0748
  0
LINE
  8
0
 10
-236.773
 20
5.0748
 11
-237.007
 21
4.98755
  0
LINE
  8
0
 10
-237.007
 20
4.98755
 11
-237.251
 21
4.93448
  0
LINE
  8
0
 10
-237.251
 20
4.93448
 11
-237.5
 21
4.91666
  0
LINE
  8
0
 10
-237.5
 20
4.91666
 11
-237.749
 21
4.93448
  0
LINE
  8
0
 10
-297.751
 20
70.1131
 11
-297.999
 21
70.1524
  0
LINE
  8
0
 10
-297.999
 20
70.1524
 11
-298.242
 21
70.2175
  0
LINE
  8
0
 10
-298.242
 20
70.2175
 11
-298.476
 21
70.3075
  0
LINE
  8
0
 10
-298.476
 20
70.3075
 11
-298.7
 21
70.4215
  0
LINE
  8
0
 10
-298.7
 20
70.4215
 11
-298.911
 21
70.5583
  0
LINE
  8
0
 10
-298.911
 20
70.5583
 11
-299.106
 21
70.7164
  0
LINE
  8
0
 10
-299.106
 20
70.7164
 11
-299.284
 21
70.8941
  0
LINE
  8
0
 10
-299.284
 20
70.8941
 11
-299.442
 21
71.0893
  0
LINE
  8
0
 10
-299.442
 20
71.0893
 11
-299.578
 21
71.3
  0
LINE
  8
0
 10
-299.578
 20
71.3
 11
-299.693
 21
71.5238
  0
LINE
  8
0
 10
-299.693
 20
71.5238
 11
-299.783
 21
71.7584
  0
LINE
  8
0
 10
-299.783
 20
71.7584
 11
-299.848
 21
72.001
  0
LINE
  8
0
 10
-299.848
 20
72.001
 11
-299.887
 21
72.2491
  0
LINE
  8
0
 10
-299.887
 20
72.2491
 11
-299.9
 21
72.5
  0
LINE
  8
0
 10
-299.9
 20
72.5
 11
-299.887
 21
72.7509
  0
LINE
  8
0
 10
-299.887
 20
72.7509
 11
-299.848
 21
72.999
  0
LINE
  8
0
 10
-299.848
 20
72.999
 11
-299.783
 21
73.2416
  0
LINE
  8
0
 10
-299.783
 20
73.2416
 11
-299.693
 21
73.4762
  0
LINE
  8
0
 10
-299.693
 20
73.4762
 11
-299.578
 21
73.7
  0
LINE
  8
0
 10
-299.578
 20
73.7
 11
-299.442
 21
73.9107
  0
LINE
  8
0
 10
-299.442
 20
73.9107
 11
-299.284
 21
74.1059
  0
LINE
  8
0
 10
-299.284
 20
74.1059
 11
-299.106
 21
74.2835
  0
LINE
  8
0
 10
-299.106
 20
74.2835
 11
-298.911
 21
74.4416
  0
LINE
  8
0
 10
-298.911
 20
74.4416
 11
-298.7
 21
74.5785
  0
LINE
  8
0
 10
-298.7
 20
74.5785
 11
-298.476
 21
74.6925
  0
LINE
  8
0
 10
-298.476
 20
74.6925
 11
-298.242
 21
74.7825
  0
LINE
  8
0
 10
-298.242
 20
74.7825
 11
-297.999
 21
74.8475
  0
LINE
  8
0
 10
-297.999
 20
74.8475
 11
-297.751
 21
74.8869
  0
LINE
  8
0
 10
-297.751
 20
74.8869
 11
-297.5
 21
74.9
  0
LINE
  8
0
 10
-297.5
 20
74.9
 11
-297.249
 21
74.8869
  0
LINE
  8
0
 10
-297.249
 20
74.8869
 11
-297.001
 21
74.8475
  0
LINE
  8
0
 10
-297.001
 20
74.8475
 11
-296.758
 21
74.7825
  0
LINE
  8
0
 10
-296.758
 20
74.7825
 11
-296.524
 21
74.6925
  0
LINE
  8
0
 10
-296.524
 20
74.6925
 11
-296.3
 21
74.5785
  0
LINE
  8
0
 10
-296.3
 20
74.5785
 11
-296.089
 21
74.4416
  0
LINE
  8
0
 10
-296.089
 20
74.4416
 11
-295.894
 21
74.2835
  0
LINE
  8
0
 10
-295.894
 20
74.2835
 11
-295.716
 21
74.1059
  0
LINE
  8
0
 10
-295.716
 20
74.1059
 11
-295.558
 21
73.9107
  0
LINE
  8
0
 10
-295.558
 20
73.9107
 11
-295.422
 21
73.7
  0
LINE
  8
0
 10
-295.422
 20
73.7
 11
-295.307
 21
73.4762
  0
LINE
  8
0
 10
-295.307
 20
73.4762
 11
-295.217
 21
73.2416
  0
LINE
  8
0
 10
-295.217
 20
73.2416
 11
-295.152
 21
72.999
  0
LINE
  8
0
 10
-295.152
 20
72.999
 11
-295.113
 21
72.7509
  0
LINE
  8
0
 10
-295.113
 20
72.7509
 11
-295.1
 21
72.5
  0
LINE
  8
0
 10
-295.1
 20
72.5
 11
-295.113
 21
72.2491
  0
LINE
  8
0
 10
-295.113
 20
72.2491
 11
-295.152
 21
72.001
  0
LINE
  8
0
 10
-295.152
 20
72.001
 11
-295.217
 21
71.7584
  0
LINE
  8
0
 10
-295.217
 20
71.7584
 11
-295.307
 21
71.5238
  0
LINE
  8
0
 10
-295.307
 20
71.5238
 11
-295.422
 21
71.3
  0
LINE
  8
0
 10
-295.422
 20
71.3
 11
-295.558
 21
71.0893
  0
LINE
  8
0
 10
-295.558
 20
71.0893
 11
-295.716
 21
70.8941
  0
LINE
  8
0
 10
-295.716
 20
70.8941
 11
-295.894
 21
70.7164
  0
LINE
  8
0
 10
-295.894
 20
70.7164
 11
-296.089
 21
70.5583
  0
LINE
  8
0
 10
-296.089
 20
70.5583
 11
-296.3
 21
70.4215
  0
LINE
  8
0
 10
-296.3
 20
70.4215
 11
-296.524
 21
70.3075
  0
LINE
  8
0
 10
-296.524
 20
70.3075
 11
-296.758
 21
70.2175
  0
LINE
  8
0
 10
-296.758
 20
70.2175
 11
-297.001
 21
70.1524
  0
LINE
  8
0
 10
-297.001
 20
70.1524
 11
-297.249
 21
70.1131
  0
LINE
  8
0
 10
-297.249
 20
70.1131
 11
-297.5
 21
70.1
  0
LINE
  8
0
 10
-297.5
 20
70.1
 11
-297.751
 21
70.1131
  0
LINE
  8
0
 10
-297.751
 20
50.1131
 11
-297.999
 21
50.1524
  0
LINE
  8
0
 10
-297.999
 20
50.1524
 11
-298.242
 21
50.2175
  0
LINE
  8
0
 10
-298.242
 20
50.2175
 11
-298.476
 21
50.3075
  0
LINE
  8
0
 10
-298.476
 20
50.3075
 11
-298.7
 21
50.4215
  0
LINE
  8
0
 10
-298.7
 20
50.4215
 11
-298.911
 21
50.5583
  0
LINE
  8
0
 10
-298.911
 20
50.5583
 11
-299.106
 21
50.7164
  0
LINE
  8
0
 10
-299.106
 20
50.7164
 11
-299.284
 21
50.8941
  0
LINE
  8
0
 10
-299.284
 20
50.8941
 11
-299.442
 21
51.0893
  0
LINE
  8
0
 10
-299.442
 20
51.0893
 11
-299.578
 21
51.3
  0
LINE
  8
0
 10
-299.578
 20
51.3
 11
-299.693
 21
51.5238
  0
LINE
  8
0
 10
-299.693
 20
51.5238
 11
-299.783
 21
51.7583
  0
LINE
  8
0
 10
-299.783
 20
51.7583
 11
-299.848
 21
52.001
  0
LINE
  8
0
 10
-299.848
 20
52.001
 11
-299.887
 21
52.2491
  0
LINE
  8
0
 10
-299.887
 20
52.2491
 11
-299.9
 21
52.5
  0
LINE
  8
0
 10
-299.9
 20
52.5
 11
-299.887
 21
52.7509
  0
LINE
  8
0
 10
-299.887
 20
52.7509
 11
-299.848
 21
52.999
  0
LINE
  8
0
 10
-299.848
 20
52.999
 11
-299.783
 21
53.2416
  0
LINE
  8
0
 10
-299.783
 20
53.2416
 11
-299.693
 21
53.4762
  0
LINE
  8
0
 10
-299.693
 20
53.4762
 11
-299.578
 21
53.7
  0
LINE
  8
0
 10
-299.578
 20
53.7
 11
-299.442
 21
53.9107
  0
LINE
  8
0
 10
-299.442
 20
53.9107
 11
-299.284
 21
54.1059
  0
LINE
  8
0
 10
-299.284
 20
54.1059
 11
-299.106
 21
54.2835
  0
LINE
  8
0
 10
-299.106
 20
54.2835
 11
-298.911
 21
54.4416
  0
LINE
  8
0
 10
-298.911
 20
54.4416
 11
-298.7
 21
54.5785
  0
LINE
  8
0
 10
-298.7
 20
54.5785
 11
-298.476
 21
54.6925
  0
LINE
  8
0
 10
-298.476
 20
54.6925
 11
-298.242
 21
54.7825
  0
LINE
  8
0
 10
-298.242
 20
54.7825
 11
-297.999
 21
54.8475
  0
LINE
  8
0
 10
-297.999
 20
54.8475
 11
-297.751
 21
54.8868
  0
LINE
  8
0
 10
-297.751
 20
54.8868
 11
-297.5
 21
54.9
  0
LINE
  8
0
 10
-297.5
 20
54.9
 11
-297.249
 21
54.8868
  0
LINE
  8
0
 10
-297.249
 20
54.8868
 11
-297.001
 21
54.8475
  0
LINE
  8
0
 10
-297.001
 20
54.8475
 11
-296.758
 21
54.7825
  0
LINE
  8
0
 10
-296.758
 20
54.7825
 11
-296.524
 21
54.6925
  0
LINE
  8
0
 10
-296.524
 20
54.6925
 11
-296.3
 21
54.5785
  0
LINE
  8
0
 10
-296.3
 20
54.5785
 11
-296.089
 21
54.4416
  0
LINE
  8
0
 10
-296.089
 20
54.4416
 11
-295.894
 21
54.2835
  0
LINE
  8
0
 10
-295.894
 20
54.2835
 11
-295.716
 21
54.1059
  0
LINE
  8
0
 10
-295.716
 20
54.1059
 11
-295.558
 21
53.9107
  0
LINE
  8
0
 10
-295.558
 20
53.9107
 11
-295.422
 21
53.7
  0
LINE
  8
0
 10
-295.422
 20
53.7
 11
-295.307
 21
53.4762
  0
LINE
  8
0
 10
-295.307
 20
53.4762
 11
-295.217
 21
53.2416
  0
LINE
  8
0
 10
-295.217
 20
53.2416
 11
-295.152
 21
52.999
  0
LINE
  8
0
 10
-295.152
 20
52.999
 11
-295.113
 21
52.7509
  0
LINE
  8
0
 10
-295.113
 20
52.7509
 11
-295.1
 21
52.5
  0
LINE
  8
0
 10
-295.1
 20
52.5
 11
-295.113
 21
52.2491
  0
LINE
  8
0
 10
-295.113
 20
52.2491
 11
-295.152
 21
52.001
  0
LINE
  8
0
 10
-295.152
 20
52.001
 11
-295.217
 21
51.7583
  0
LINE
  8
0
 10
-295.217
 20
51.7583
 11
-295.307
 21
51.5238
  0
LINE
  8
0
 10
-295.307
 20
51.5238
 11
-295.422
 21
51.3
  0
LINE
  8
0
 10
-295.422
 20
51.3
 11
-295.558
 21
51.0893
  0
LINE
  8
0
 10
-295.558
 20
51.0893
 11
-295.716
 21
50.8941
  0
LINE
  8
0
 10
-295.716
 20
50.8941
 11
-295.894
 21
50.7164
  0
LINE
  8
0
 10
-295.894
 20
50.7164
 11
-296.089
 21
50.5583
  0
LINE
  8
0
 10
-296.089
 20
50.5583
 11
-296.3
 21
50.4215
  0
LINE
  8
0
 10
-296.3
 20
50.4215
 11
-296.524
 21
50.3075
  0
LINE
  8
0
 10
-296.524
 20
50.3075
 11
-296.758
 21
50.2175
  0
LINE
  8
0
 10
-296.758
 20
50.2175
 11
-297.001
 21
50.1524
  0
LINE
  8
0
 10
-297.001
 20
50.1524
 11
-297.249
 21
50.1131
  0
LINE
  8
0
 10
-297.249
 20
50.1131
 11
-297.5
 21
50.1
  0
LINE
  8
0
 10
-297.5
 20
50.1
 11
-297.751
 21
50.1131
  0
LINE
  8
0
 10
-297.997
 20
27.776
 11
-298.488
 21
27.8538
  0
LINE
  8
0
 10
-298.488
 20
27.8538
 11
-298.968
 21
27.9825
  0
LINE
  8
0
 10
-298.968
 20
27.9825
 11
-299.432
 21
28.1607
  0
LINE
  8
0
 10
-299.432
 20
28.1607
 11
-299.875
 21
28.3864
  0
LINE
  8
0
 10
-299.875
 20
28.3864
 11
-300.292
 21
28.6572
  0
LINE
  8
0
 10
-300.292
 20
28.6572
 11
-300.678
 21
28.9701
  0
LINE
  8
0
 10
-300.678
 20
28.9701
 11
-301.03
 21
29.3216
  0
LINE
  8
0
 10
-301.03
 20
29.3216
 11
-301.343
 21
29.708
  0
LINE
  8
0
 10
-301.343
 20
29.708
 11
-301.614
 21
30.125
  0
LINE
  8
0
 10
-301.614
 20
30.125
 11
-301.839
 21
30.568
  0
LINE
  8
0
 10
-301.839
 20
30.568
 11
-302.018
 21
31.0322
  0
LINE
  8
0
 10
-302.018
 20
31.0322
 11
-302.146
 21
31.5124
  0
LINE
  8
0
 10
-302.146
 20
31.5124
 11
-302.224
 21
32.0035
  0
LINE
  8
0
 10
-302.224
 20
32.0035
 11
-302.25
 21
32.5
  0
LINE
  8
0
 10
-302.25
 20
32.5
 11
-302.224
 21
32.9965
  0
LINE
  8
0
 10
-302.224
 20
32.9965
 11
-302.146
 21
33.4876
  0
LINE
  8
0
 10
-302.146
 20
33.4876
 11
-302.018
 21
33.9678
  0
LINE
  8
0
 10
-302.018
 20
33.9678
 11
-301.839
 21
34.432
  0
LINE
  8
0
 10
-301.839
 20
34.432
 11
-301.614
 21
34.875
  0
LINE
  8
0
 10
-301.614
 20
34.875
 11
-301.343
 21
35.292
  0
LINE
  8
0
 10
-301.343
 20
35.292
 11
-301.03
 21
35.6784
  0
LINE
  8
0
 10
-301.03
 20
35.6784
 11
-300.678
 21
36.0299
  0
LINE
  8
0
 10
-300.678
 20
36.0299
 11
-300.292
 21
36.3428
  0
LINE
  8
0
 10
-300.292
 20
36.3428
 11
-299.875
 21
36.6136
  0
LINE
  8
0
 10
-299.875
 20
36.6136
 11
-299.432
 21
36.8393
  0
LINE
  8
0
 10
-299.432
 20
36.8393
 11
-298.968
 21
37.0175
  0
LINE
  8
0
 10
-298.968
 20
37.0175
 11
-298.488
 21
37.1462
  0
LINE
  8
0
 10
-298.488
 20
37.1462
 11
-297.997
 21
37.224
  0
LINE
  8
0
 10
-297.997
 20
37.224
 11
-297.5
 21
37.25
  0
LINE
  8
0
 10
-297.5
 20
37.25
 11
-297.003
 21
37.224
  0
LINE
  8
0
 10
-297.003
 20
37.224
 11
-296.512
 21
37.1462
  0
LINE
  8
0
 10
-296.512
 20
37.1462
 11
-296.032
 21
37.0175
  0
LINE
  8
0
 10
-296.032
 20
37.0175
 11
-295.568
 21
36.8393
  0
LINE
  8
0
 10
-295.568
 20
36.8393
 11
-295.125
 21
36.6136
  0
LINE
  8
0
 10
-295.125
 20
36.6136
 11
-294.708
 21
36.3428
  0
LINE
  8
0
 10
-294.708
 20
36.3428
 11
-294.322
 21
36.0299
  0
LINE
  8
0
 10
-294.322
 20
36.0299
 11
-293.97
 21
35.6784
  0
LINE
  8
0
 10
-293.97
 20
35.6784
 11
-293.657
 21
35.292
  0
LINE
  8
0
 10
-293.657
 20
35.292
 11
-293.386
 21
34.875
  0
LINE
  8
0
 10
-293.386
 20
34.875
 11
-293.161
 21
34.432
  0
LINE
  8
0
 10
-293.161
 20
34.432
 11
-292.982
 21
33.9678
  0
LINE
  8
0
 10
-292.982
 20
33.9678
 11
-292.854
 21
33.4876
  0
LINE
  8
0
 10
-292.854
 20
33.4876
 11
-292.776
 21
32.9965
  0
LINE
  8
0
 10
-292.776
 20
32.9965
 11
-292.75
 21
32.5
  0
LINE
  8
0
 10
-292.75
 20
32.5
 11
-292.776
 21
32.0035
  0
LINE
  8
0
 10
-292.776
 20
32.0035
 11
-292.854
 21
31.5124
  0
LINE
  8
0
 10
-292.854
 20
31.5124
 11
-292.982
 21
31.0322
  0
LINE
  8
0
 10
-292.982
 20
31.0322
 11
-293.161
 21
30.568
  0
LINE
  8
0
 10
-293.161
 20
30.568
 11
-293.386
 21
30.125
  0
LINE
  8
0
 10
-293.386
 20
30.125
 11
-293.657
 21
29.708
  0
LINE
  8
0
 10
-293.657
 20
29.708
 11
-293.97
 21
29.3216
  0
LINE
  8
0
 10
-293.97
 20
29.3216
 11
-294.322
 21
28.9701
  0
LINE
  8
0
 10
-294.322
 20
28.9701
 11
-294.708
 21
28.6572
  0
LINE
  8
0
 10
-294.708
 20
28.6572
 11
-295.125
 21
28.3864
  0
LINE
  8
0
 10
-295.125
 20
28.3864
 11
-295.568
 21
28.1607
  0
LINE
  8
0
 10
-295.568
 20
28.1607
 11
-296.032
 21
27.9825
  0
LINE
  8
0
 10
-296.032
 20
27.9825
 11
-296.512
 21
27.8538
  0
LINE
  8
0
 10
-296.512
 20
27.8538
 11
-297.003
 21
27.776
  0
LINE
  8
0
 10
-297.003
 20
27.776
 11
-297.5
 21
27.75
  0
LINE
  8
0
 10
-297.5
 20
27.75
 11
-297.997
 21
27.776
  0
LINE
  8
0
 10
-297.997
 20
7.77602
 11
-298.488
 21
7.85379
  0
LINE
  8
0
 10
-298.488
 20
7.85379
 11
-298.968
 21
7.98247
  0
LINE
  8
0
 10
-298.968
 20
7.98247
 11
-299.432
 21
8.16066
  0
LINE
  8
0
 10
-299.432
 20
8.16066
 11
-299.875
 21
8.38637
  0
LINE
  8
0
 10
-299.875
 20
8.38637
 11
-300.292
 21
8.65717
  0
LINE
  8
0
 10
-300.292
 20
8.65717
 11
-300.678
 21
8.97006
  0
LINE
  8
0
 10
-300.678
 20
8.97006
 11
-301.03
 21
9.32162
  0
LINE
  8
0
 10
-301.03
 20
9.32162
 11
-301.343
 21
9.70801
  0
LINE
  8
0
 10
-301.343
 20
9.70801
 11
-301.614
 21
10.125
  0
LINE
  8
0
 10
-301.614
 20
10.125
 11
-301.839
 21
10.568
  0
LINE
  8
0
 10
-301.839
 20
10.568
 11
-302.018
 21
11.0322
  0
LINE
  8
0
 10
-302.018
 20
11.0322
 11
-302.146
 21
11.5124
  0
LINE
  8
0
 10
-302.146
 20
11.5124
 11
-302.224
 21
12.0035
  0
LINE
  8
0
 10
-302.224
 20
12.0035
 11
-302.25
 21
12.5
  0
LINE
  8
0
 10
-302.25
 20
12.5
 11
-302.224
 21
12.9965
  0
LINE
  8
0
 10
-302.224
 20
12.9965
 11
-302.146
 21
13.4876
  0
LINE
  8
0
 10
-302.146
 20
13.4876
 11
-302.018
 21
13.9678
  0
LINE
  8
0
 10
-302.018
 20
13.9678
 11
-301.839
 21
14.432
  0
LINE
  8
0
 10
-301.839
 20
14.432
 11
-301.614
 21
14.875
  0
LINE
  8
0
 10
-301.614
 20
14.875
 11
-301.343
 21
15.292
  0
LINE
  8
0
 10
-301.343
 20
15.292
 11
-301.03
 21
15.6784
  0
LINE
  8
0
 10
-301.03
 20
15.6784
 11
-300.678
 21
16.0299
  0
LINE
  8
0
 10
-300.678
 20
16.0299
 11
-300.292
 21
16.3428
  0
LINE
  8
0
 10
-300.292
 20
16.3428
 11
-299.875
 21
16.6136
  0
LINE
  8
0
 10
-299.875
 20
16.6136
 11
-299.432
 21
16.8393
  0
LINE
  8
0
 10
-299.432
 20
16.8393
 11
-298.968
 21
17.0175
  0
LINE
  8
0
 10
-298.968
 20
17.0175
 11
-298.488
 21
17.1462
  0
LINE
  8
0
 10
-298.488
 20
17.1462
 11
-297.997
 21
17.224
  0
LINE
  8
0
 10
-297.997
 20
17.224
 11
-297.5
 21
17.25
  0
LINE
  8
0
 10
-297.5
 20
17.25
 11
-297.003
 21
17.224
  0
LINE
  8
0
 10
-297.003
 20
17.224
 11
-296.512
 21
17.1462
  0
LINE
  8
0
 10
-296.512
 20
17.1462
 11
-296.032
 21
17.0175
  0
LINE
  8
0
 10
-296.032
 20
17.0175
 11
-295.568
 21
16.8393
  0
LINE
  8
0
 10
-295.568
 20
16.8393
 11
-295.125
 21
16.6136
  0
LINE
  8
0
 10
-295.125
 20
16.6136
 11
-294.708
 21
16.3428
  0
LINE
  8
0
 10
-294.708
 20
16.3428
 11
-294.322
 21
16.0299
  0
LINE
  8
0
 10
-294.322
 20
16.0299
 11
-293.97
 21
15.6784
  0
LINE
  8
0
 10
-293.97
 20
15.6784
 11
-293.657
 21
15.292
  0
LINE
  8
0
 10
-293.657
 20
15.292
 11
-293.386
 21
14.875
  0
LINE
  8
0
 10
-293.386
 20
14.875
 11
-293.161
 21
14.432
  0
LINE
  8
0
 10
-293.161
 20
14.432
 11
-292.982
 21
13.9678
  0
LINE
  8
0
 10
-292.982
 20
13.9678
 11
-292.854
 21
13.4876
  0
LINE
  8
0
 10
-292.854
 20
13.4876
 11
-292.776
 21
12.9965
  0
LINE
  8
0
 10
-292.776
 20
12.9965
 11
-292.75
 21
12.5
  0
LINE
  8
0
 10
-292.75
 20
12.5
 11
-292.776
 21
12.0035
  0
LINE
  8
0
 10
-292.776
 20
12.0035
 11
-292.854
 21
11.5124
  0
LINE
  8
0
 10
-292.854
 20
11.5124
 11
-292.982
 21
11.0322
  0
LINE
  8
0
 10
-292.982
 20
11.0322
 11
-293.161
 21
10.568
  0
LINE
  8
0
 10
-293.161
 20
10.568
 11
-293.386
 21
10.125
  0
LINE
  8
0
 10
-293.386
 20
10.125
 11
-293.657
 21
9.70801
  0
LINE
  8
0
 10
-293.657
 20
9.70801
 11
-293.97
 21
9.32162
  0
LINE
  8
0
 10
-293.97
 20
9.32162
 11
-294.322
 21
8.97006
  0
LINE
  8
0
 10
-294.322
 20
8.97006
 11
-294.708
 21
8.65717
  0
LINE
  8
0
 10
-294.708
 20
8.65717
 11
-295.125
 21
8.38637
  0
LINE
  8
0
 10
-295.125
 20
8.38637
 11
-295.568
 21
8.16066
  0
LINE
  8
0
 10
-295.568
 20
8.16066
 11
-296.032
 21
7.98247
  0
LINE
  8
0
 10
-296.032
 20
7.98247
 11
-296.512
 21
7.85379
  0
LINE
  8
0
 10
-296.512
 20
7.85379
 11
-297.003
 21
7.77602
  0
LINE
  8
0
 10
-297.003
 20
7.77602
 11
-297.5
 21
7.75
  0
LINE
  8
0
 10
-297.5
 20
7.75
 11
-297.997
 21
7.77602
  0
LINE
  8
0
 10
237.251
 20
-98.3988
 11
237.007
 21
-98.3458
  0
LINE
  8
0
 10
237.007
 20
-98.3458
 11
236.773
 21
-98.2585
  0
LINE
  8
0
 10
236.773
 20
-98.2585
 11
236.554
 21
-98.1389
  0
LINE
  8
0
 10
236.554
 20
-98.1389
 11
236.354
 21
-97.9892
  0
LINE
  8
0
 10
236.354
 20
-97.9892
 11
236.177
 21
-97.8127
  0
LINE
  8
0
 10
236.177
 20
-97.8127
 11
236.028
 21
-97.6128
  0
LINE
  8
0
 10
236.028
 20
-97.6128
 11
235.908
 21
-97.3936
  0
LINE
  8
0
 10
235.908
 20
-97.3936
 11
235.821
 21
-97.1597
  0
LINE
  8
0
 10
235.821
 20
-97.1597
 11
235.768
 21
-96.9157
  0
LINE
  8
0
 10
235.768
 20
-96.9157
 11
235.75
 21
-96.6667
  0
LINE
  8
0
 10
235.75
 20
-96.6667
 11
235.75
 21
-6.66666
  0
LINE
  8
0
 10
235.75
 20
-6.66666
 11
235.768
 21
-6.4176
  0
LINE
  8
0
 10
235.768
 20
-6.4176
 11
235.821
 21
-6.17363
  0
LINE
  8
0
 10
235.821
 20
-6.17363
 11
235.908
 21
-5.93968
  0
LINE
  8
0
 10
235.908
 20
-5.93968
 11
236.028
 21
-5.72054
  0
LINE
  8
0
 10
236.028
 20
-5.72054
 11
236.177
 21
-5.52065
  0
LINE
  8
0
 10
236.177
 20
-5.52065
 11
236.354
 21
-5.3441
  0
LINE
  8
0
 10
236.354
 20
-5.3441
 11
236.554
 21
-5.19446
  0
LINE
  8
0
 10
236.554
 20
-5.19446
 11
236.773
 21
-5.0748
  0
LINE
  8
0
 10
236.773
 20
-5.0748
 11
237.007
 21
-4.98755
  0
LINE
  8
0
 10
237.007
 20
-4.98755
 11
237.251
 21
-4.93448
  0
LINE
  8
0
 10
237.251
 20
-4.93448
 11
237.5
 21
-4.91666
  0
LINE
  8
0
 10
237.5
 20
-4.91666
 11
237.749
 21
-4.93448
  0
LINE
  8
0
 10
237.749
 20
-4.93448
 11
237.993
 21
-4.98755
  0
LINE
  8
0
 10
237.993
 20
-4.98755
 11
238.227
 21
-5.0748
  0
LINE
  8
0
 10
238.227
 20
-5.0748
 11
238.446
 21
-5.19446
  0
LINE
  8
0
 10
238.446
 20
-5.19446
 11
238.646
 21
-5.3441
  0
LINE
  8
0
 10
238.646
 20
-5.3441
 11
238.823
 21
-5.52065
  0
LINE
  8
0
 10
238.823
 20
-5.52065
 11
238.972
 21
-5.72054
  0
LINE
  8
0
 10
238.972
 20
-5.72054
 11
239.092
 21
-5.93968
  0
LINE
  8
0
 10
239.092
 20
-5.93968
 11
239.179
 21
-6.17363
  0
LINE
  8
0
 10
239.179
 20
-6.17363
 11
239.232
 21
-6.4176
  0
LINE
  8
0
 10
239.232
 20
-6.4176
 11
239.25
 21
-6.66666
  0
LINE
  8
0
 10
239.25
 20
-6.66666
 11
239.25
 21
-96.6667
  0
LINE
  8
0
 10
239.25
 20
-96.6667
 11
239.232
 21
-96.9157
  0
LINE
  8
0
 10
239.232
 20
-96.9157
 11
239.179
 21
-97.1597
  0
LINE
  8
0
 10
239.179
 20
-97.1597
 11
239.092
 21
-97.3936
  0
LINE
  8
0
 10
239.092
 20
-97.3936
 11
238.972
 21
-97.6128
  0
LINE
  8
0
 10
238.972
 20
-97.6128
 11
238.823
 21
-97.8127
  0
LINE
  8
0
 10
238.823
 20
-97.8127
 11
238.646
 21
-97.9892
  0
LINE
  8
0
 10
238.646
 20
-97.9892
 11
238.446
 21
-98.1389
  0
LINE
  8
0
 10
238.446
 20
-98.1389
 11
238.227
 21
-98.2585
  0
LINE
  8
0
 10
238.227
 20
-98.2585
 11
237.993
 21
-98.3458
  0
LINE
  8
0
 10
237.993
 20
-98.3458
 11
237.749
 21
-98.3988
  0
LINE
  8
0
 10
237.749
 20
-98.3988
 11
237.5
 21
-98.4167
  0
LINE
  8
0
 10
237.5
 20
-98.4167
 11
237.251
 21
-98.3988
  0
LINE
  8
0
 10
-237.749
 20
-98.3988
 11
-237.993
 21
-98.3458
  0
LINE
  8
0
 10
-237.993
 20
-98.3458
 11
-238.227
 21
-98.2585
  0
LINE
  8
0
 10
-238.227
 20
-98.2585
 11
-238.446
 21
-98.1389
  0
LINE
  8
0
 10
-238.446
 20
-98.1389
 11
-238.646
 21
-97.9892
  0
LINE
  8
0
 10
-238.646
 20
-97.9892
 11
-238.823
 21
-97.8127
  0
LINE
  8
0
 10
-238.823
 20
-97.8127
 11
-238.972
 21
-97.6128
  0
LINE
  8
0
 10
-238.972
 20
-97.6128
 11
-239.092
 21
-97.3936
  0
LINE
  8
0
 10
-239.092
 20
-97.3936
 11
-239.179
 21
-97.1597
  0
LINE
  8
0
 10
-239.179
 20
-97.1597
 11
-239.232
 21
-96.9157
  0
LINE
  8
0
 10
-239.232
 20
-96.9157
 11
-239.25
 21
-96.6667
  0
LINE
  8
0
 10
-239.25
 20
-96.6667
 11
-239.25
 21
-6.66666
  0
LINE
  8
0
 10
-239.25
 20
-6.66666
 11
-239.232
 21
-6.4176
  0
LINE
  8
0
 10
-239.232
 20
-6.4176
 11
-239.179
 21
-6.17363
  0
LINE
  8
0
 10
-239.179
 20
-6.17363
 11
-239.092
 21
-5.93968
  0
LINE
  8
0
 10
-239.092
 20
-5.93968
 11
-238.972
 21
-5.72054
  0
LINE
  8
0
 10
-238.972
 20
-5.72054
 11
-238.823
 21
-5.52065
  0
LINE
  8
0
 10
-238.823
 20
-5.52065
 11
-238.646
 21
-5.3441
  0
LINE
  8
0
 10
-238.646
 20
-5.3441
 11
-238.446
 21
-5.19446
  0
LINE
  8
0
 10
-238.446
 20
-5.19446
 11
-238.227
 21
-5.0748
  0
LINE
  8
0
 10
-238.227
 20
-5.0748
 11
-237.993
 21
-4.98755
  0
LINE
  8
0
 10
-237.993
 20
-4.98755
 11
-237.749
 21
-4.93448
  0
LINE
  8
0
 10
-237.749
 20
-4.93448
 11
-237.5
 21
-4.91666
  0
LINE
  8
0
 10
-237.5
 20
-4.91666
 11
-237.251
 21
-4.93448
  0
LINE
  8
0
 10
-237.251
 20
-4.93448
 11
-237.007
 21
-4.98755
  0
LINE
  8
0
 10
-237.007
 20
-4.98755
 11
-236.773
 21
-5.0748
  0
LINE
  8
0
 10
-236.773
 20
-5.0748
 11
-236.554
 21
-5.19446
  0
LINE
  8
0
 10
-236.554
 20
-5.19446
 11
-236.354
 21
-5.3441
  0
LINE
  8
0
 10
-236.354
 20
-5.3441
 11
-236.177
 21
-5.52065
  0
LINE
  8
0
 10
-236.177
 20
-5.52065
 11
-236.028
 21
-5.72054
  0
LINE
  8
0
 10
-236.028
 20
-5.72054
 11
-235.908
 21
-5.93968
  0
LINE
  8
0
 10
-235.908
 20
-5.93968
 11
-235.821
 21
-6.17363
  0
LINE
  8
0
 10
-235.821
 20
-6.17363
 11
-235.768
 21
-6.4176
  0
LINE
  8
0
 10
-235.768
 20
-6.4176
 11
-235.75
 21
-6.66666
  0
LINE
  8
0
 10
-235.75
 20
-6.66666
 11
-235.75
 21
-96.6667
  0
LINE
  8
0
 10
-235.75
 20
-96.6667
 11
-235.768
 21
-96.9157
  0
LINE
  8
0
 10
-235.768
 20
-96.9157
 11
-235.821
 21
-97.1597
  0
LINE
  8
0
 10
-235.821
 20
-97.1597
 11
-235.908
 21
-97.3936
  0
LINE
  8
0
 10
-235.908
 20
-97.3936
 11
-236.028
 21
-97.6128
  0
LINE
  8
0
 10
-236.028
 20
-97.6128
 11
-236.177
 21
-97.8127
  0
LINE
  8
0
 10
-236.177
 20
-97.8127
 11
-236.354
 21
-97.9892
  0
LINE
  8
0
 10
-236.354
 20
-97.9892
 11
-236.554
 21
-98.1389
  0
LINE
  8
0
 10
-236.554
 20
-98.1389
 11
-236.773
 21
-98.2585
  0
LINE
  8
0
 10
-236.773
 20
-98.2585
 11
-237.007
 21
-98.3458
  0
LINE
  8
0
 10
-237.007
 20
-98.3458
 11
-237.251
 21
-98.3988
  0
LINE
  8
0
 10
-237.251
 20
-98.3988
 11
-237.5
 21
-98.4167
  0
LINE
  8
0
 10
-237.5
 20
-98.4167
 11
-237.749
 21
-98.3988
  0
LINE
  8
0
 10
-297.997
 20
-17.224
 11
-298.488
 21
-17.1462
  0
LINE
  8
0
 10
-298.488
 20
-17.1462
 11
-298.968
 21
-17.0175
  0
LINE
  8
0
 10
-298.968
 20
-17.0175
 11
-299.432
 21
-16.8393
  0
LINE
  8
0
 10
-299.432
 20
-16.8393
 11
-299.875
 21
-16.6136
  0
LINE
  8
0
 10
-299.875
 20
-16.6136
 11
-300.292
 21
-16.3428
  0
LINE
  8
0
 10
-300.292
 20
-16.3428
 11
-300.678
 21
-16.0299
  0
LINE
  8
0
 10
-300.678
 20
-16.0299
 11
-301.03
 21
-15.6784
  0
LINE
  8
0
 10
-301.03
 20
-15.6784
 11
-301.343
 21
-15.292
  0
LINE
  8
0
 10
-301.343
 20
-15.292
 11
-301.614
 21
-14.875
  0
LINE
  8
0
 10
-301.614
 20
-14.875
 11
-301.839
 21
-14.432
  0
LINE
  8
0
 10
-301.839
 20
-14.432
 11
-302.018
 21
-13.9678
  0
LINE
  8
0
 10
-302.018
 20
-13.9678
 11
-302.146
 21
-13.4876
  0
LINE
  8
0
 10
-302.146
 20
-13.4876
 11
-302.224
 21
-12.9965
  0
LINE
  8
0
 10
-302.224
 20
-12.9965
 11
-302.25
 21
-12.5
  0
LINE
  8
0
 10
-302.25
 20
-12.5
 11
-302.224
 21
-12.0035
  0
LINE
  8
0
 10
-302.224
 20
-12.0035
 11
-302.146
 21
-11.5124
  0
LINE
  8
0
 10
-302.146
 20
-11.5124
 11
-302.018
 21
-11.0322
  0
LINE
  8
0
 10
-302.018
 20
-11.0322
 11
-301.839
 21
-10.568
  0
LINE
  8
0
 10
-301.839
 20
-10.568
 11
-301.614
 21
-10.125
  0
LINE
  8
0
 10
-301.614
 20
-10.125
 11
-301.343
 21
-9.70801
  0
LINE
  8
0
 10
-301.343
 20
-9.70801
 11
-301.03
 21
-9.32162
  0
LINE
  8
0
 10
-301.03
 20
-9.32162
 11
-300.678
 21
-8.97006
  0
LINE
  8
0
 10
-300.678
 20
-8.97006
 11
-300.292
 21
-8.65717
  0
LINE
  8
0
 10
-300.292
 20
-8.65717
 11
-299.875
 21
-8.38637
  0
LINE
  8
0
 10
-299.875
 20
-8.38637
 11
-299.432
 21
-8.16066
  0
LINE
  8
0
 10
-299.432
 20
-8.16066
 11
-298.968
 21
-7.98247
  0
LINE
  8
0
 10
-298.968
 20
-7.98247
 11
-298.488
 21
-7.85379
  0
LINE
  8
0
 10
-298.488
 20
-7.85379
 11
-297.997
 21
-7.77602
  0
LINE
  8
0
 10
-297.997
 20
-7.77602
 11
-297.5
 21
-7.75
  0
LINE
  8
0
 10
-297.5
 20
-7.75
 11
-297.003
 21
-7.77602
  0
LINE
  8
0
 10
-297.003
 20
-7.77602
 11
-296.512
 21
-7.85379
  0
LINE
  8
0
 10
-296.512
 20
-7.85379
 11
-296.032
 21
-7.98247
  0
LINE
  8
0
 10
-296.032
 20
-7.98247
 11
-295.568
 21
-8.16066
  0
LINE
  8
0
 10
-295.568
 20
-8.16066
 11
-295.125
 21
-8.38637
  0
LINE
  8
0
 10
-295.125
 20
-8.38637
 11
-294.708
 21
-8.65717
  0
LINE
  8
0
 10
-294.708
 20
-8.65717
 11
-294.322
 21
-8.97006
  0
LINE
  8
0
 10
-294.322
 20
-8.97006
 11
-293.97
 21
-9.32162
  0
LINE
  8
0
 10
-293.97
 20
-9.32162
 11
-293.657
 21
-9.70801
  0
LINE
  8
0
 10
-293.657
 20
-9.70801
 11
-293.386
 21
-10.125
  0
LINE
  8
0
 10
-293.386
 20
-10.125
 11
-293.161
 21
-10.568
  0
LINE
  8
0
 10
-293.161
 20
-10.568
 11
-292.982
 21
-11.0322
  0
LINE
  8
0
 10
-292.982
 20
-11.0322
 11
-292.854
 21
-11.5124
  0
LINE
  8
0
 10
-292.854
 20
-11.5124
 11
-292.776
 21
-12.0035
  0
LINE
  8
0
 10
-292.776
 20
-12.0035
 11
-292.75
 21
-12.5
  0
LINE
  8
0
 10
-292.75
 20
-12.5
 11
-292.776
 21
-12.9965
  0
LINE
  8
0
 10
-292.776
 20
-12.9965
 11
-292.854
 21
-13.4876
  0
LINE
  8
0
 10
-292.854
 20
-13.4876
 11
-292.982
 21
-13.9678
  0
LINE
  8
0
 10
-292.982
 20
-13.9678
 11
-293.161
 21
-14.432
  0
LINE
  8
0
 10
-293.161
 20
-14.432
 11
-293.386
 21
-14.875
  0
LINE
  8
0
 10
-293.386
 20
-14.875
 11
-293.657
 21
-15.292
  0
LINE
  8
0
 10
-293.657
 20
-15.292
 11
-293.97
 21
-15.6784
  0
LINE
  8
0
 10
-293.97
 20
-15.6784
 11
-294.322
 21
-16.0299
  0
LINE
  8
0
 10
-294.322
 20
-16.0299
 11
-294.708
 21
-16.3428
  0
LINE
  8
0
 10
-294.708
 20
-16.3428
 11
-295.125
 21
-16.6136
  0
LINE
  8
0
 10
-295.125
 20
-16.6136
 11
-295.568
 21
-16.8393
  0
LINE
  8
0
 10
-295.568
 20
-16.8393
 11
-296.032
 21
-17.0175
  0
LINE
  8
0
 10
-296.032
 20
-17.0175
 11
-296.512
 21
-17.1462
  0
LINE
  8
0
 10
-296.512
 20
-17.1462
 11
-297.003
 21
-17.224
  0
LINE
  8
0
 10
-297.003
 20
-17.224
 11
-297.5
 21
-17.25
  0
LINE
  8
0
 10
-297.5
 20
-17.25
 11
-297.997
 21
-17.224
  0
LINE
  8
0
 10
-297.997
 20
-37.224
 11
-298.488
 21
-37.1462
  0
LINE
  8
0
 10
-298.488
 20
-37.1462
 11
-298.968
 21
-37.0175
  0
LINE
  8
0
 10
-298.968
 20
-37.0175
 11
-299.432
 21
-36.8393
  0
LINE
  8
0
 10
-299.432
 20
-36.8393
 11
-299.875
 21
-36.6136
  0
LINE
  8
0
 10
-299.875
 20
-36.6136
 11
-300.292
 21
-36.3428
  0
LINE
  8
0
 10
-300.292
 20
-36.3428
 11
-300.678
 21
-36.0299
  0
LINE
  8
0
 10
-300.678
 20
-36.0299
 11
-301.03
 21
-35.6784
  0
LINE
  8
0
 10
-301.03
 20
-35.6784
 11
-301.343
 21
-35.292
  0
LINE
  8
0
 10
-301.343
 20
-35.292
 11
-301.614
 21
-34.875
  0
LINE
  8
0
 10
-301.614
 20
-34.875
 11
-301.839
 21
-34.432
  0
LINE
  8
0
 10
-301.839
 20
-34.432
 11
-302.018
 21
-33.9678
  0
LINE
  8
0
 10
-302.018
 20
-33.9678
 11
-302.146
 21
-33.4876
  0
LINE
  8
0
 10
-302.146
 20
-33.4876
 11
-302.224
 21
-32.9965
  0
LINE
  8
0
 10
-302.224
 20
-32.9965
 11
-302.25
 21
-32.5
  0
LINE
  8
0
 10
-302.25
 20
-32.5
 11
-302.224
 21
-32.0035
  0
LINE
  8
0
 10
-302.224
 20
-32.0035
 11
-302.146
 21
-31.5124
  0
LINE
  8
0
 10
-302.146
 20
-31.5124
 11
-302.018
 21
-31.0322
  0
LINE
  8
0
 10
-302.018
 20
-31.0322
 11
-301.839
 21
-30.568
  0
LINE
  8
0
 10
-301.839
 20
-30.568
 11
-301.614
 21
-30.125
  0
LINE
  8
0
 10
-301.614
 20
-30.125
 11
-301.343
 21
-29.708
  0
LINE
  8
0
 10
-301.343
 20
-29.708
 11
-301.03
 21
-29.3216
  0
LINE
  8
0
 10
-301.03
 20
-29.3216
 11
-300.678
 21
-28.9701
  0
LINE
  8
0
 10
-300.678
 20
-28.9701
 11
-300.292
 21
-28.6572
  0
LINE
  8
0
 10
-300.292
 20
-28.6572
 11
-299.875
 21
-28.3864
  0
LINE
  8
0
 10
-299.875
 20
-28.3864
 11
-299.432
 21
-28.1607
  0
LINE
  8
0
 10
-299.432
 20
-28.1607
 11
-298.968
 21
-27.9825
  0
LINE
  8
0
 10
-298.968
 20
-27.9825
 11
-298.488
 21
-27.8538
  0
LINE
  8
0
 10
-298.488
 20
-27.8538
 11
-297.997
 21
-27.776
  0
LINE
  8
0
 10
-297.997
 20
-27.776
 11
-297.5
 21
-27.75
  0
LINE
  8
0
 10
-297.5
 20
-27.75
 11
-297.003
 21
-27.776
  0
LINE
  8
0
 10
-297.003
 20
-27.776
 11
-296.512
 21
-27.8538
  0
LINE
  8
0
 10
-296.512
 20
-27.8538
 11
-296.032
 21
-27.9825
  0
LINE
  8
0
 10
-296.032
 20
-27.9825
 11
-295.568
 21
-28.1607
  0
LINE
  8
0
 10
-295.568
 20
-28.1607
 11
-295.125
 21
-28.3864
  0
LINE
  8
0
 10
-295.125
 20
-28.3864
 11
-294.708
 21
-28.6572
  0
LINE
  8
0
 10
-294.708
 20
-28.6572
 11
-294.322
 21
-28.9701
  0
LINE
  8
0
 10
-294.322
 20
-28.9701
 11
-293.97
 21
-29.3216
  0
LINE
  8
0
 10
-293.97
 20
-29.3216
 11
-293.657
 21
-29.708
  0
LINE
  8
0
 10
-293.657
 20
-29.708
 11
-293.386
 21
-30.125
  0
LINE
  8
0
 10
-293.386
 20
-30.125
 11
-293.161
 21
-30.568
  0
LINE
  8
0
 10
-293.161
 20
-30.568
 11
-292.982
 21
-31.0322
  0
LINE
  8
0
 10
-292.982
 20
-31.0322
 11
-292.854
 21
-31.5124
  0
LINE
  8
0
 10
-292.854
 20
-31.5124
 11
-292.776
 21
-32.0035
  0
LINE
  8
0
 10
-292.776
 20
-32.0035
 11
-292.75
 21
-32.5
  0
LINE
  8
0
 10
-292.75
 20
-32.5
 11
-292.776
 21
-32.9965
  0
LINE
  8
0
 10
-292.776
 20
-32.9965
 11
-292.854
 21
-33.4876
  0
LINE
  8
0
 10
-292.854
 20
-33.4876
 11
-292.982
 21
-33.9678
  0
LINE
  8
0
 10
-292.982
 20
-33.9678
 11
-293.161
 21
-34.432
  0
LINE
  8
0
 10
-293.161
 20
-34.432
 11
-293.386
 21
-34.875
  0
LINE
  8
0
 10
-293.386
 20
-34.875
 11
-293.657
 21
-35.292
  0
LINE
  8
0
 10
-293.657
 20
-35.292
 11
-293.97
 21
-35.6784
  0
LINE
  8
0
 10
-293.97
 20
-35.6784
 11
-294.322
 21
-36.0299
  0
LINE
  8
0
 10
-294.322
 20
-36.0299
 11
-294.708
 21
-36.3428
  0
LINE
  8
0
 10
-294.708
 20
-36.3428
 11
-295.125
 21
-36.6136
  0
LINE
  8
0
 10
-295.125
 20
-36.6136
 11
-295.568
 21
-36.8393
  0
LINE
  8
0
 10
-295.568
 20
-36.8393
 11
-296.032
 21
-37.0175
  0
LINE
  8
0
 10
-296.032
 20
-37.0175
 11
-296.512
 21
-37.1462
  0
LINE
  8
0
 10
-296.512
 20
-37.1462
 11
-297.003
 21
-37.224
  0
LINE
  8
0
 10
-297.003
 20
-37.224
 11
-297.5
 21
-37.25
  0
LINE
  8
0
 10
-297.5
 20
-37.25
 11
-297.997
 21
-37.224
  0
LINE
  8
0
 10
-297.751
 20
-54.8868
 11
-297.999
 21
-54.8475
  0
LINE
  8
0
 10
-297.999
 20
-54.8475
 11
-298.242
 21
-54.7825
  0
LINE
  8
0
 10
-298.242
 20
-54.7825
 11
-298.476
 21
-54.6925
  0
LINE
  8
0
 10
-298.476
 20
-54.6925
 11
-298.7
 21
-54.5785
  0
LINE
  8
0
 10
-298.7
 20
-54.5785
 11
-298.911
 21
-54.4416
  0
LINE
  8
0
 10
-298.911
 20
-54.4416
 11
-299.106
 21
-54.2835
  0
LINE
  8
0
 10
-299.106
 20
-54.2835
 11
-299.284
 21
-54.1059
  0
LINE
  8
0
 10
-299.284
 20
-54.1059
 11
-299.442
 21
-53.9107
  0
LINE
  8
0
 10
-299.442
 20
-53.9107
 11
-299.578
 21
-53.7
  0
LINE
  8
0
 10
-299.578
 20
-53.7
 11
-299.693
 21
-53.4762
  0
LINE
  8
0
 10
-299.693
 20
-53.4762
 11
-299.783
 21
-53.2416
  0
LINE
  8
0
 10
-299.783
 20
-53.2416
 11
-299.848
 21
-52.999
  0
LINE
  8
0
 10
-299.848
 20
-52.999
 11
-299.887
 21
-52.7509
  0
LINE
  8
0
 10
-299.887
 20
-52.7509
 11
-299.9
 21
-52.5
  0
LINE
  8
0
 10
-299.9
 20
-52.5
 11
-299.887
 21
-52.2491
  0
LINE
  8
0
 10
-299.887
 20
-52.2491
 11
-299.848
 21
-52.001
  0
LINE
  8
0
 10
-299.848
 20
-52.001
 11
-299.783
 21
-51.7583
  0
LINE
  8
0
 10
-299.783
 20
-51.7583
 11
-299.693
 21
-51.5238
  0
LINE
  8
0
 10
-299.693
 20
-51.5238
 11
-299.578
 21
-51.3
  0
LINE
  8
0
 10
-299.578
 20
-51.3
 11
-299.442
 21
-51.0893
  0
LINE
  8
0
 10
-299.442
 20
-51.0893
 11
-299.284
 21
-50.8941
  0
LINE
  8
0
 10
-299.284
 20
-50.8941
 11
-299.106
 21
-50.7164
  0
LINE
  8
0
 10
-299.106
 20
-50.7164
 11
-298.911
 21
-50.5583
  0
LINE
  8
0
 10
-298.911
 20
-50.5583
 11
-298.7
 21
-50.4215
  0
LINE
  8
0
 10
-298.7
 20
-50.4215
 11
-298.476
 21
-50.3075
  0
LINE
  8
0
 10
-298.476
 20
-50.3075
 11
-298.242
 21
-50.2175
  0
LINE
  8
0
 10
-298.242
 20
-50.2175
 11
-297.999
 21
-50.1524
  0
LINE
  8
0
 10
-297.999
 20
-50.1524
 11
-297.751
 21
-50.1131
  0
LINE
  8
0
 10
-297.751
 20
-50.1131
 11
-297.5
 21
-50.1
  0
LINE
  8
0
 10
-297.5
 20
-50.1
 11
-297.249
 21
-50.1131
  0
LINE
  8
0
 10
-297.249
 20
-50.1131
 11
-297.001
 21
-50.1524
  0
LINE
  8
0
 10
-297.001
 20
-50.1524
 11
-296.758
 21
-50.2175
  0
LINE
  8
0
 10
-296.758
 20
-50.2175
 11
-296.524
 21
-50.3075
  0
LINE
  8
0
 10
-296.524
 20
-50.3075
 11
-296.3
 21
-50.4215
  0
LINE
  8
0
 10
-296.3
 20
-50.4215
 11
-296.089
 21
-50.5583
  0
LINE
  8
0
 10
-296.089
 20
-50.5583
 11
-295.894
 21
-50.7164
  0
LINE
  8
0
 10
-295.894
 20
-50.7164
 11
-295.716
 21
-50.8941
  0
LINE
  8
0
 10
-295.716
 20
-50.8941
 11
-295.558
 21
-51.0893
  0
LINE
  8
0
 10
-295.558
 20
-51.0893
 11
-295.422
 21
-51.3
  0
LINE
  8
0
 10
-295.422
 20
-51.3
 11
-295.307
 21
-51.5238
  0
LINE
  8
0
 10
-295.307
 20
-51.5238
 11
-295.217
 21
-51.7583
  0
LINE
  8
0
 10
-295.217
 20
-51.7583
 11
-295.152
 21
-52.001
  0
LINE
  8
0
 10
-295.152
 20
-52.001
 11
-295.113
 21
-52.2491
  0
LINE
  8
0
 10
-295.113
 20
-52.2491
 11
-295.1
 21
-52.5
  0
LINE
  8
0
 10
-295.1
 20
-52.5
 11
-295.113
 21
-52.7509
  0
LINE
  8
0
 10
-295.113
 20
-52.7509
 11
-295.152
 21
-52.999
  0
LINE
  8
0
 10
-295.152
 20
-52.999
 11
-295.217
 21
-53.2416
  0
LINE
  8
0
 10
-295.217
 20
-53.2416
 11
-295.307
 21
-53.4762
  0
LINE
  8
0
 10
-295.307
 20
-53.4762
 11
-295.422
 21
-53.7
  0
LINE
  8
0
 10
-295.422
 20
-53.7
 11
-295.558
 21
-53.9107
  0
LINE
  8
0
 10
-295.558
 20
-53.9107
 11
-295.716
 21
-54.1059
  0
LINE
  8
0
 10
-295.716
 20
-54.1059
 11
-295.894
 21
-54.2835
  0
LINE
  8
0
 10
-295.894
 20
-54.2835
 11
-296.089
 21
-54.4416
  0
LINE
  8
0
 10
-296.089
 20
-54.4416
 11
-296.3
 21
-54.5785
  0
LINE
  8
0
 10
-296.3
 20
-54.5785
 11
-296.524
 21
-54.6925
  0
LINE
  8
0
 10
-296.524
 20
-54.6925
 11
-296.758
 21
-54.7825
  0
LINE
  8
0
 10
-296.758
 20
-54.7825
 11
-297.001
 21
-54.8475
  0
LINE
  8
0
 10
-297.001
 20
-54.8475
 11
-297.249
 21
-54.8868
  0
LINE
  8
0
 10
-297.249
 20
-54.8868
 11
-297.5
 21
-54.9
  0
LINE
  8
0
 10
-297.5
 20
-54.9
 11
-297.751
 21
-54.8868
  0
LINE
  8
0
 10
-297.751
 20
-74.8869
 11
-297.999
 21
-74.8475
  0
LINE
  8
0
 10
-297.999
 20
-74.8475
 11
-298.242
 21
-74.7825
  0
LINE
  8
0
 10
-298.242
 20
-74.7825
 11
-298.476
 21
-74.6925
  0
LINE
  8
0
 10
-298.476
 20
-74.6925
 11
-298.7
 21
-74.5785
  0
LINE
  8
0
 10
-298.7
 20
-74.5785
 11
-298.911
 21
-74.4416
  0
LINE
  8
0
 10
-298.911
 20
-74.4416
 11
-299.106
 21
-74.2835
  0
LINE
  8
0
 10
-299.106
 20
-74.2835
 11
-299.284
 21
-74.1059
  0
LINE
  8
0
 10
-299.284
 20
-74.1059
 11
-299.442
 21
-73.9107
  0
LINE
  8
0
 10
-299.442
 20
-73.9107
 11
-299.578
 21
-73.7
  0
LINE
  8
0
 10
-299.578
 20
-73.7
 11
-299.693
 21
-73.4762
  0
LINE
  8
0
 10
-299.693
 20
-73.4762
 11
-299.783
 21
-73.2416
  0
LINE
  8
0
 10
-299.783
 20
-73.2416
 11
-299.848
 21
-72.999
  0
LINE
  8
0
 10
-299.848
 20
-72.999
 11
-299.887
 21
-72.7509
  0
LINE
  8
0
 10
-299.887
 20
-72.7509
 11
-299.9
 21
-72.5
  0
LINE
  8
0
 10
-299.9
 20
-72.5
 11
-299.887
 21
-72.2491
  0
LINE
  8
0
 10
-299.887
 20
-72.2491
 11
-299.848
 21
-72.001
  0
LINE
  8
0
 10
-299.848
 20
-72.001
 11
-299.783
 21
-71.7584
  0
LINE
  8
0
 10
-299.783
 20
-71.7584
 11
-299.693
 21
-71.5238
  0
LINE
  8
0
 10
-299.693
 20
-71.5238
 11
-299.578
 21
-71.3
  0
LINE
  8
0
 10
-299.578
 20
-71.3
 11
-299.442
 21
-71.0893
  0
LINE
  8
0
 10
-299.442
 20
-71.0893
 11
-299.284
 21
-70.8941
  0
LINE
  8
0
 10
-299.284
 20
-70.8941
 11
-299.106
 21
-70.7164
  0
LINE
  8
0
 10
-299.106
 20
-70.7164
 11
-298.911
 21
-70.5583
  0
LINE
  8
0
 10
-298.911
 20
-70.5583
 11
-298.7
 21
-70.4215
  0
LINE
  8
0
 10
-298.7
 20
-70.4215
 11
-298.476
 21
-70.3075
  0
LINE
  8
0
 10
-298.476
 20
-70.3075
 11
-298.242
 21
-70.2175
  0
LINE
  8
0
 10
-298.242
 20
-70.2175
 11
-297.999
 21
-70.1524
  0
LINE
  8
0
 10
-297.999
 20
-70.1524
 11
-297.751
 21
-70.1131
  0
LINE
  8
0
 10
-297.751
 20
-70.1131
 11
-297.5
 21
-70.1
  0
LINE
  8
0
 10
-297.5
 20
-70.1
 11
-297.249
 21
-70.1131
  0
LINE
  8
0
 10
-297.249
 20
-70.1131
 11
-297.001
 21
-70.1524
  0
LINE
  8
0
 10
-297.001
 20
-70.1524
 11
-296.758
 21
-70.2175
  0
LINE
  8
0
 10
-296.758
 20
-70.2175
 11
-296.524
 21
-70.3075
  0
LINE
  8
0
 10
-296.524
 20
-70.3075
 11
-296.3
 21
-70.4215
  0
LINE
  8
0
 10
-296.3
 20
-70.4215
 11
-296.089
 21
-70.5583
  0
LINE
  8
0
 10
-296.089
 20
-70.5583
 11
-295.894
 21
-70.7164
  0
LINE
  8
0
 10
-295.894
 20
-70.7164
 11
-295.716
 21
-70.8941
  0
LINE
  8
0
 10
-295.716
 20
-70.8941
 11
-295.558
 21
-71.0893
  0
LINE
  8
0
 10
-295.558
 20
-71.0893
 11
-295.422
 21
-71.3
  0
LINE
  8
0
 10
-295.422
 20
-71.3
 11
-295.307
 21
-71.5238
  0
LINE
  8
0
 10
-295.307
 20
-71.5238
 11
-295.217
 21
-71.7584
  0
LINE
  8
0
 10
-295.217
 20
-71.7584
 11
-295.152
 21
-72.001
  0
LINE
  8
0
 10
-295.152
 20
-72.001
 11
-295.113
 21
-72.2491
  0
LINE
  8
0
 10
-295.113
 20
-72.2491
 11
-295.1
 21
-72.5
  0
LINE
  8
0
 10
-295.1
 20
-72.5
 11
-295.113
 21
-72.7509
  0
LINE
  8
0
 10
-295.113
 20
-72.7509
 11
-295.152
 21
-72.999
  0
LINE
  8
0
 10
-295.152
 20
-72.999
 11
-295.217
 21
-73.2416
  0
LINE
  8
0
 10
-295.217
 20
-73.2416
 11
-295.307
 21
-73.4762
  0
LINE
  8
0
 10
-295.307
 20
-73.4762
 11
-295.422
 21
-73.7
  0
LINE
  8
0
 10
-295.422
 20
-73.7
 11
-295.558
 21
-73.9107
  0
LINE
  8
0
 10
-295.558
 20
-73.9107
 11
-295.716
 21
-74.1059
  0
LINE
  8
0
 10
-295.716
 20
-74.1059
 11
-295.894
 21
-74.2835
  0
LINE
  8
0
 10
-295.894
 20
-74.2835
 11
-296.089
 21
-74.4416
  0
LINE
  8
0
 10
-296.089
 20
-74.4416
 11
-296.3
 21
-74.5785
  0
LINE
  8
0
 10
-296.3
 20
-74.5785
 11
-296.524
 21
-74.6925
  0
LINE
  8
0
 10
-296.524
 20
-74.6925
 11
-296.758
 21
-74.7825
  0
LINE
  8
0
 10
-296.758
 20
-74.7825
 11
-297.001
 21
-74.8475
  0
LINE
  8
0
 10
-297.001
 20
-74.8475
 11
-297.249
 21
-74.8869
  0
LINE
  8
0
 10
-297.249
 20
-74.8869
 11
-297.5
 21
-74.9
  0
LINE
  8
0
 10
-297.5
 20
-74.9
 11
-297.751
 21
-74.8869
  0
LINE
  8
0
 10
237.251
 20
-201.732
 11
237.007
 21
-201.679
  0
LINE
  8
0
 10
237.007
 20
-201.679
 11
236.773
 21
-201.592
  0
LINE
  8
0
 10
236.773
 20
-201.592
 11
236.554
 21
-201.472
  0
LINE
  8
0
 10
236.554
 20
-201.472
 11
236.354
 21
-201.323
  0
LINE
  8
0
 10
236.354
 20
-201.323
 11
236.177
 21
-201.146
  0
LINE
  8
0
 10
236.177
 20
-201.146
 11
236.028
 21
-200.946
  0
LINE
  8
0
 10
236.028
 20
-200.946
 11
235.908
 21
-200.727
  0
LINE
  8
0
 10
235.908
 20
-200.727
 11
235.821
 21
-200.493
  0
LINE
  8
0
 10
235.821
 20
-200.493
 11
235.768
 21
-200.249
  0
LINE
  8
0
 10
235.768
 20
-200.249
 11
235.75
 21
-200
  0
LINE
  8
0
 10
235.75
 20
-200
 11
235.75
 21
-110
  0
LINE
  8
0
 10
235.75
 20
-110
 11
235.768
 21
-109.751
  0
LINE
  8
0
 10
235.768
 20
-109.751
 11
235.821
 21
-109.507
  0
LINE
  8
0
 10
235.821
 20
-109.507
 11
235.908
 21
-109.273
  0
LINE
  8
0
 10
235.908
 20
-109.273
 11
236.028
 21
-109.054
  0
LINE
  8
0
 10
236.028
 20
-109.054
 11
236.177
 21
-108.854
  0
LINE
  8
0
 10
236.177
 20
-108.854
 11
236.354
 21
-108.677
  0
LINE
  8
0
 10
236.354
 20
-108.677
 11
236.554
 21
-108.528
  0
LINE
  8
0
 10
236.554
 20
-108.528
 11
236.773
 21
-108.408
  0
LINE
  8
0
 10
236.773
 20
-108.408
 11
237.007
 21
-108.321
  0
LINE
  8
0
 10
237.007
 20
-108.321
 11
237.251
 21
-108.268
  0
LINE
  8
0
 10
237.251
 20
-108.268
 11
237.5
 21
-108.25
  0
LINE
  8
0
 10
237.5
 20
-108.25
 11
237.749
 21
-108.268
  0
LINE
  8
0
 10
237.749
 20
-108.268
 11
237.993
 21
-108.321
  0
LINE
  8
0
 10
237.993
 20
-108.321
 11
238.227
 21
-108.408
  0
LINE
  8
0
 10
238.227
 20
-108.408
 11
238.446
 21
-108.528
  0
LINE
  8
0
 10
238.446
 20
-108.528
 11
238.646
 21
-108.677
  0
LINE
  8
0
 10
238.646
 20
-108.677
 11
238.823
 21
-108.854
  0
LINE
  8
0
 10
238.823
 20
-108.854
 11
238.972
 21
-109.054
  0
LINE
  8
0
 10
238.972
 20
-109.054
 11
239.092
 21
-109.273
  0
LINE
  8
0
 10
239.092
 20
-109.273
 11
239.179
 21
-109.507
  0
LINE
  8
0
 10
239.179
 20
-109.507
 11
239.232
 21
-109.751
  0
LINE
  8
0
 10
239.232
 20
-109.751
 11
239.25
 21
-110
  0
LINE
  8
0
 10
239.25
 20
-110
 11
239.25
 21
-200
  0
LINE
  8
0
 10
239.25
 20
-200
 11
239.232
 21
-200.249
  0
LINE
  8
0
 10
239.232
 20
-200.249
 11
239.179
 21
-200.493
  0
LINE
  8
0
 10
239.179
 20
-200.493
 11
239.092
 21
-200.727
  0
LINE
  8
0
 10
239.092
 20
-200.727
 11
238.972
 21
-200.946
  0
LINE
  8
0
 10
238.972
 20
-200.946
 11
238.823
 21
-201.146
  0
LINE
  8
0
 10
238.823
 20
-201.146
 11
238.646
 21
-201.323
  0
LINE
  8
0
 10
238.646
 20
-201.323
 11
238.446
 21
-201.472
  0
LINE
  8
0
 10
238.446
 20
-201.472
 11
238.227
 21
-201.592
  0
LINE
  8
0
 10
238.227
 20
-201.592
 11
237.993
 21
-201.679
  0
LINE
  8
0
 10
237.993
 20
-201.679
 11
237.749
 21
-201.732
  0
LINE
  8
0
 10
237.749
 20
-201.732
 11
237.5
 21
-201.75
  0
LINE
  8
0
 10
237.5
 20
-201.75
 11
237.251
 21
-201.732
  0
LINE
  8
0
 10
-237.749
 20
-201.732
 11
-237.993
 21
-201.679
  0
LINE
  8
0
 10
-237.993
 20
-201.679
 11
-238.227
 21
-201.592
  0
LINE
  8
0
 10
-238.227
 20
-201.592
 11
-238.446
 21
-201.472
  0
LINE
  8
0
 10
-238.446
 20
-201.472
 11
-238.646
 21
-201.323
  0
LINE
  8
0
 10
-238.646
 20
-201.323
 11
-238.823
 21
-201.146
  0
LINE
  8
0
 10
-238.823
 20
-201.146
 11
-238.972
 21
-200.946
  0
LINE
  8
0
 10
-238.972
 20
-200.946
 11
-239.092
 21
-200.727
  0
LINE
  8
0
 10
-239.092
 20
-200.727
 11
-239.179
 21
-200.493
  0
LINE
  8
0
 10
-239.179
 20
-200.493
 11
-239.232
 21
-200.249
  0
LINE
  8
0
 10
-239.232
 20
-200.249
 11
-239.25
 21
-200
  0
LINE
  8
0
 10
-239.25
 20
-200
 11
-239.25
 21
-110
  0
LINE
  8
0
 10
-239.25
 20
-110
 11
-239.232
 21
-109.751
  0
LINE
  8
0
 10
-239.232
 20
-109.751
 11
-239.179
 21
-109.507
  0
LINE
  8
0
 10
-239.179
 20
-109.507
 11
-239.092
 21
-109.273
  0
LINE
  8
0
 10
-239.092
 20
-109.273
 11
-238.972
 21
-109.054
  0
LINE
  8
0
 10
-238.972
 20
-109.054
 11
-238.823
 21
-108.854
  0
LINE
  8
0
 10
-238.823
 20
-108.854
 11
-238.646
 21
-108.677
  0
LINE
  8
0
 10
-238.646
 20
-108.677
 11
-238.446
 21
-108.528
  0
LINE
  8
0
 10
-238.446
 20
-108.528
 11
-238.227
 21
-108.408
  0
LINE
  8
0
 10
-238.227
 20
-108.408
 11
-237.993
 21
-108.321
  0
LINE
  8
0
 10
-237.993
 20
-108.321
 11
-237.749
 21
-108.268
  0
LINE
  8
0
 10
-237.749
 20
-108.268
 11
-237.5
 21
-108.25
  0
LINE
  8
0
 10
-237.5
 20
-108.25
 11
-237.251
 21
-108.268
  0
LINE
  8
0
 10
-237.251
 20
-108.268
 11
-237.007
 21
-108.321
  0
LINE
  8
0
 10
-237.007
 20
-108.321
 11
-236.773
 21
-108.408
  0
LINE
  8
0
 10
-236.773
 20
-108.408
 11
-236.554
 21
-108.528
  0
LINE
  8
0
 10
-236.554
 20
-108.528
 11
-236.354
 21
-108.677
  0
LINE
  8
0
 10
-236.354
 20
-108.677
 11
-236.177
 21
-108.854
  0
LINE
  8
0
 10
-236.177
 20
-108.854
 11
-236.028
 21
-109.054
  0
LINE
  8
0
 10
-236.028
 20
-109.054
 11
-235.908
 21
-109.273
  0
LINE
  8
0
 10
-235.908
 20
-109.273
 11
-235.821
 21
-109.507
  0
LINE
  8
0
 10
-235.821
 20
-109.507
 11
-235.768
 21
-109.751
  0
LINE
  8
0
 10
-235.768
 20
-109.751
 11
-235.75
 21
-110
  0
LINE
  8
0
 10
-235.75
 20
-110
 11
-235.75
 21
-200
  0
LINE
  8
0
 10
-235.75
 20
-200
 11
-235.768
 21
-200.249
  0
LINE
  8
0
 10
-235.768
 20
-200.249
 11
-235.821
 21
-200.493
  0
LINE
  8
0
 10
-235.821
 20
-200.493
 11
-235.908
 21
-200.727
  0
LINE
  8
0
 10
-235.908
 20
-200.727
 11
-236.028
 21
-200.946
  0
LINE
  8
0
 10
-236.028
 20
-200.946
 11
-236.177
 21
-201.146
  0
LINE
  8
0
 10
-236.177
 20
-201.146
 11
-236.354
 21
-201.323
  0
LINE
  8
0
 10
-236.354
 20
-201.323
 11
-236.554
 21
-201.472
  0
LINE
  8
0
 10
-236.554
 20
-201.472
 11
-236.773
 21
-201.592
  0
LINE
  8
0
 10
-236.773
 20
-201.592
 11
-237.007
 21
-201.679
  0
LINE
  8
0
 10
-237.007
 20
-201.679
 11
-237.251
 21
-201.732
  0
LINE
  8
0
 10
-237.251
 20
-201.732
 11
-237.5
 21
-201.75
  0
LINE
  8
0
 10
-237.5
 20
-201.75
 11
-237.749
 21
-201.732
  0
LINE
  8
0
 10
263.377
 20
-191.645
 11
263.133
 21
-191.609
  0
LINE
  8
0
 10
263.133
 20
-191.609
 11
262.897
 21
-191.536
  0
LINE
  8
0
 10
262.897
 20
-191.536
 11
262.675
 21
-191.429
  0
LINE
  8
0
 10
262.675
 20
-191.429
 11
262.471
 21
-191.29
  0
LINE
  8
0
 10
262.471
 20
-191.29
 11
262.29
 21
-191.122
  0
LINE
  8
0
 10
262.29
 20
-191.122
 11
262.137
 21
-190.929
  0
LINE
  8
0
 10
262.137
 20
-190.929
 11
262.013
 21
-190.716
  0
LINE
  8
0
 10
262.013
 20
-190.716
 11
261.923
 21
-190.486
  0
LINE
  8
0
 10
261.923
 20
-190.486
 11
261.868
 21
-190.246
  0
LINE
  8
0
 10
261.868
 20
-190.246
 11
261.85
 21
-190
  0
LINE
  8
0
 10
261.85
 20
-190
 11
261.868
 21
-189.754
  0
LINE
  8
0
 10
261.868
 20
-189.754
 11
261.923
 21
-189.514
  0
LINE
  8
0
 10
261.923
 20
-189.514
 11
262.013
 21
-189.284
  0
LINE
  8
0
 10
262.013
 20
-189.284
 11
262.137
 21
-189.071
  0
LINE
  8
0
 10
262.137
 20
-189.071
 11
262.29
 21
-188.878
  0
LINE
  8
0
 10
262.29
 20
-188.878
 11
262.471
 21
-188.71
  0
LINE
  8
0
 10
262.471
 20
-188.71
 11
262.675
 21
-188.571
  0
LINE
  8
0
 10
262.675
 20
-188.571
 11
262.897
 21
-188.464
  0
LINE
  8
0
 10
262.897
 20
-188.464
 11
263.133
 21
-188.391
  0
LINE
  8
0
 10
263.133
 20
-188.391
 11
263.377
 21
-188.355
  0
LINE
  8
0
 10
263.377
 20
-188.355
 11
271.623
 21
-188.355
  0
LINE
  8
0
 10
271.623
 20
-188.355
 11
271.867
 21
-188.391
  0
LINE
  8
0
 10
271.867
 20
-188.391
 11
272.103
 21
-188.464
  0
LINE
  8
0
 10
272.103
 20
-188.464
 11
272.325
 21
-188.571
  0
LINE
  8
0
 10
272.325
 20
-188.571
 11
272.529
 21
-188.71
  0
LINE
  8
0
 10
272.529
 20
-188.71
 11
272.71
 21
-188.878
  0
LINE
  8
0
 10
272.71
 20
-188.878
 11
272.863
 21
-189.071
  0
LINE
  8
0
 10
272.863
 20
-189.071
 11
272.987
 21
-189.284
  0
LINE
  8
0
 10
272.987
 20
-189.284
 11
273.077
 21
-189.514
  0
LINE
  8
0
 10
273.077
 20
-189.514
 11
273.132
 21
-189.754
  0
LINE
  8
0
 10
273.132
 20
-189.754
 11
273.15
 21
-190
  0
LINE
  8
0
 10
273.15
 20
-190
 11
273.132
 21
-190.246
  0
LINE
  8
0
 10
273.132
 20
-190.246
 11
273.077
 21
-190.486
  0
LINE
  8
0
 10
273.077
 20
-190.486
 11
272.987
 21
-190.716
  0
LINE
  8
0
 10
272.987
 20
-190.716
 11
272.863
 21
-190.929
  0
LINE
  8
0
 10
272.863
 20
-190.929
 11
272.71
 21
-191.122
  0
LINE
  8
0
 10
272.71
 20
-191.122
 11
272.529
 21
-191.29
  0
LINE
  8
0
 10
272.529
 20
-191.29
 11
272.325
 21
-191.429
  0
LINE
  8
0
 10
272.325
 20
-191.429
 11
272.103
 21
-191.536
  0
LINE
  8
0
 10
272.103
 20
-191.536
 11
271.867
 21
-191.609
  0
LINE
  8
0
 10
271.867
 20
-191.609
 11
271.623
 21
-191.645
  0
LINE
  8
0
 10
271.623
 20
-191.645
 11
263.377
 21
-191.645
  0
LINE
  8
0
 10
294.377
 20
-191.645
 11
294.133
 21
-191.609
  0
LINE
  8
0
 10
294.133
 20
-191.609
 11
293.897
 21
-191.536
  0
LINE
  8
0
 10
293.897
 20
-191.536
 11
293.675
 21
-191.429
  0
LINE
  8
0
 10
293.675
 20
-191.429
 11
293.471
 21
-191.29
  0
LINE
  8
0
 10
293.471
 20
-191.29
 11
293.29
 21
-191.122
  0
LINE
  8
0
 10
293.29
 20
-191.122
 11
293.137
 21
-190.929
  0
LINE
  8
0
 10
293.137
 20
-190.929
 11
293.013
 21
-190.716
  0
LINE
  8
0
 10
293.013
 20
-190.716
 11
292.923
 21
-190.486
  0
LINE
  8
0
 10
292.923
 20
-190.486
 11
292.868
 21
-190.246
  0
LINE
  8
0
 10
292.868
 20
-190.246
 11
292.85
 21
-190
  0
LINE
  8
0
 10
292.85
 20
-190
 11
292.868
 21
-189.754
  0
LINE
  8
0
 10
292.868
 20
-189.754
 11
292.923
 21
-189.514
  0
LINE
  8
0
 10
292.923
 20
-189.514
 11
293.013
 21
-189.284
  0
LINE
  8
0
 10
293.013
 20
-189.284
 11
293.137
 21
-189.071
  0
LINE
  8
0
 10
293.137
 20
-189.071
 11
293.29
 21
-188.878
  0
LINE
  8
0
 10
293.29
 20
-188.878
 11
293.471
 21
-188.71
  0
LINE
  8
0
 10
293.471
 20
-188.71
 11
293.675
 21
-188.571
  0
LINE
  8
0
 10
293.675
 20
-188.571
 11
293.897
 21
-188.464
  0
LINE
  8
0
 10
293.897
 20
-188.464
 11
294.133
 21
-188.391
  0
LINE
  8
0
 10
294.133
 20
-188.391
 11
294.377
 21
-188.355
  0
LINE
  8
0
 10
294.377
 20
-188.355
 11
302.623
 21
-188.355
  0
LINE
  8
0
 10
302.623
 20
-188.355
 11
302.867
 21
-188.391
  0
LINE
  8
0
 10
302.867
 20
-188.391
 11
303.103
 21
-188.464
  0
LINE
  8
0
 10
303.103
 20
-188.464
 11
303.325
 21
-188.571
  0
LINE
  8
0
 10
303.325
 20
-188.571
 11
303.529
 21
-188.71
  0
LINE
  8
0
 10
303.529
 20
-188.71
 11
303.71
 21
-188.878
  0
LINE
  8
0
 10
303.71
 20
-188.878
 11
303.863
 21
-189.071
  0
LINE
  8
0
 10
303.863
 20
-189.071
 11
303.987
 21
-189.284
  0
LINE
  8
0
 10
303.987
 20
-189.284
 11
304.077
 21
-189.514
  0
LINE
  8
0
 10
304.077
 20
-189.514
 11
304.132
 21
-189.754
  0
LINE
  8
0
 10
304.132
 20
-189.754
 11
304.15
 21
-190
  0
LINE
  8
0
 10
304.15
 20
-190
 11
304.132
 21
-190.246
  0
LINE
  8
0
 10
304.132
 20
-190.246
 11
304.077
 21
-190.486
  0
LINE
  8
0
 10
304.077
 20
-190.486
 11
303.987
 21
-190.716
  0
LINE
  8
0
 10
303.987
 20
-190.716
 11
303.863
 21
-190.929
  0
LINE
  8
0
 10
303.863
 20
-190.929
 11
303.71
 21
-191.122
  0
LINE
  8
0
 10
303.71
 20
-191.122
 11
303.529
 21
-191.29
  0
LINE
  8
0
 10
303.529
 20
-191.29
 11
303.325
 21
-191.429
  0
LINE
  8
0
 10
303.325
 20
-191.429
 11
303.103
 21
-191.536
  0
LINE
  8
0
 10
303.103
 20
-191.536
 11
302.867
 21
-191.609
  0
LINE
  8
0
 10
302.867
 20
-191.609
 11
302.623
 21
-191.645
  0
LINE
  8
0
 10
302.623
 20
-191.645
 11
294.377
 21
-191.645
  0
LINE
  8
0
 10
-264.809
 20
-196.172
 11
-265.049
 21
-196.109
  0
LINE
  8
0
 10
-265.049
 20
-196.109
 11
-265.277
 21
-196.012
  0
LINE
  8
0
 10
-265.277
 20
-196.012
 11
-265.489
 21
-195.883
  0
LINE
  8
0
 10
-265.489
 20
-195.883
 11
-265.68
 21
-195.724
  0
LINE
  8
0
 10
-265.68
 20
-195.724
 11
-265.846
 21
-195.539
  0
LINE
  8
0
 10
-265.846
 20
-195.539
 11
-265.982
 21
-195.332
  0
LINE
  8
0
 10
-265.982
 20
-195.332
 11
-266.088
 21
-195.107
  0
LINE
  8
0
 10
-266.088
 20
-195.107
 11
-266.159
 21
-194.87
  0
LINE
  8
0
 10
-266.159
 20
-194.87
 11
-266.195
 21
-194.624
  0
LINE
  8
0
 10
-266.195
 20
-194.624
 11
-266.195
 21
-194.376
  0
LINE
  8
0
 10
-266.195
 20
-194.376
 11
-266.159
 21
-194.13
  0
LINE
  8
0
 10
-266.159
 20
-194.13
 11
-266.088
 21
-193.893
  0
LINE
  8
0
 10
-266.088
 20
-193.893
 11
-265.982
 21
-193.668
  0
LINE
  8
0
 10
-265.982
 20
-193.668
 11
-265.846
 21
-193.461
  0
LINE
  8
0
 10
-265.846
 20
-193.461
 11
-265.68
 21
-193.276
  0
LINE
  8
0
 10
-265.68
 20
-193.276
 11
-265.489
 21
-193.117
  0
LINE
  8
0
 10
-265.489
 20
-193.117
 11
-265.277
 21
-192.988
  0
LINE
  8
0
 10
-265.277
 20
-192.988
 11
-265.049
 21
-192.891
  0
LINE
  8
0
 10
-265.049
 20
-192.891
 11
-264.809
 21
-192.828
  0
LINE
  8
0
 10
-264.809
 20
-192.828
 11
-264.562
 21
-192.801
  0
LINE
  8
0
 10
-264.562
 20
-192.801
 11
-264.314
 21
-192.81
  0
LINE
  8
0
 10
-264.314
 20
-192.81
 11
-264.07
 21
-192.855
  0
LINE
  8
0
 10
-264.07
 20
-192.855
 11
-263.835
 21
-192.935
  0
LINE
  8
0
 10
-263.835
 20
-192.935
 11
-263.614
 21
-193.049
  0
LINE
  8
0
 10
-263.614
 20
-193.049
 11
-263.413
 21
-193.193
  0
LINE
  8
0
 10
-263.413
 20
-193.193
 11
-263.234
 21
-193.366
  0
LINE
  8
0
 10
-263.234
 20
-193.366
 11
-263.082
 21
-193.562
  0
LINE
  8
0
 10
-263.082
 20
-193.562
 11
-262.961
 21
-193.778
  0
LINE
  8
0
 10
-262.961
 20
-193.778
 11
-262.872
 21
-194.01
  0
LINE
  8
0
 10
-262.872
 20
-194.01
 11
-262.818
 21
-194.252
  0
LINE
  8
0
 10
-262.818
 20
-194.252
 11
-262.8
 21
-194.5
  0
LINE
  8
0
 10
-262.8
 20
-194.5
 11
-262.818
 21
-194.748
  0
LINE
  8
0
 10
-262.818
 20
-194.748
 11
-262.872
 21
-194.99
  0
LINE
  8
0
 10
-262.872
 20
-194.99
 11
-262.961
 21
-195.222
  0
LINE
  8
0
 10
-262.961
 20
-195.222
 11
-263.082
 21
-195.438
  0
LINE
  8
0
 10
-263.082
 20
-195.438
 11
-263.234
 21
-195.634
  0
LINE
  8
0
 10
-263.234
 20
-195.634
 11
-263.413
 21
-195.807
  0
LINE
  8
0
 10
-263.413
 20
-195.807
 11
-263.614
 21
-195.951
  0
LINE
  8
0
 10
-263.614
 20
-195.951
 11
-263.835
 21
-196.065
  0
LINE
  8
0
 10
-263.835
 20
-196.065
 11
-264.07
 21
-196.145
  0
LINE
  8
0
 10
-264.07
 20
-196.145
 11
-264.314
 21
-196.19
  0
LINE
  8
0
 10
-264.314
 20
-196.19
 11
-264.562
 21
-196.199
  0
LINE
  8
0
 10
-264.562
 20
-196.199
 11
-264.809
 21
-196.172
  0
LINE
  8
0
 10
278.5
 20
-218
 11
277.193
 21
-217.932
  0
LINE
  8
0
 10
277.193
 20
-217.932
 11
275.901
 21
-217.727
  0
LINE
  8
0
 10
275.901
 20
-217.727
 11
274.637
 21
-217.388
  0
LINE
  8
0
 10
274.637
 20
-217.388
 11
273.416
 21
-216.919
  0
LINE
  8
0
 10
273.416
 20
-216.919
 11
272.25
 21
-216.325
  0
LINE
  8
0
 10
272.25
 20
-216.325
 11
271.153
 21
-215.613
  0
LINE
  8
0
 10
271.153
 20
-215.613
 11
270.136
 21
-214.789
  0
LINE
  8
0
 10
270.136
 20
-214.789
 11
269.211
 21
-213.864
  0
LINE
  8
0
 10
269.211
 20
-213.864
 11
268.387
 21
-212.847
  0
LINE
  8
0
 10
268.387
 20
-212.847
 11
267.675
 21
-211.75
  0
LINE
  8
0
 10
267.675
 20
-211.75
 11
267.081
 21
-210.584
  0
LINE
  8
0
 10
267.081
 20
-210.584
 11
266.612
 21
-209.363
  0
LINE
  8
0
 10
266.612
 20
-209.363
 11
266.273
 21
-208.099
  0
LINE
  8
0
 10
266.273
 20
-208.099
 11
266.068
 21
-206.807
  0
LINE
  8
0
 10
266.068
 20
-206.807
 11
266
 21
-205.5
  0
LINE
  8
0
 10
266
 20
-205.5
 11
266.068
 21
-204.193
  0
LINE
  8
0
 10
266.068
 20
-204.193
 11
266.273
 21
-202.901
  0
LINE
  8
0
 10
266.273
 20
-202.901
 11
266.612
 21
-201.637
  0
LINE
  8
0
 10
266.612
 20
-201.637
 11
267.081
 21
-200.416
  0
LINE
  8
0
 10
267.081
 20
-200.416
 11
267.675
 21
-199.25
  0
LINE
  8
0
 10
267.675
 20
-199.25
 11
268.387
 21
-198.153
  0
LINE
  8
0
 10
268.387
 20
-198.153
 11
269.211
 21
-197.136
  0
LINE
  8
0
 10
269.211
 20
-197.136
 11
270.136
 21
-196.211
  0
LINE
  8
0
 10
270.136
 20
-196.211
 11
271.153
 21
-195.387
  0
LINE
  8
0
 10
271.153
 20
-195.387
 11
272.25
 21
-194.675
  0
LINE
  8
0
 10
272.25
 20
-194.675
 11
273.416
 21
-194.081
  0
LINE
  8
0
 10
273.416
 20
-194.081
 11
274.637
 21
-193.612
  0
LINE
  8
0
 10
274.637
 20
-193.612
 11
275.901
 21
-193.273
  0
LINE
  8
0
 10
275.901
 20
-193.273
 11
277.193
 21
-193.068
  0
LINE
  8
0
 10
277.193
 20
-193.068
 11
278.5
 21
-193
  0
LINE
  8
0
 10
278.5
 20
-193
 11
286.5
 21
-193
  0
LINE
  8
0
 10
286.5
 20
-193
 11
287.807
 21
-193.068
  0
LINE
  8
0
 10
287.807
 20
-193.068
 11
289.099
 21
-193.273
  0
LINE
  8
0
 10
289.099
 20
-193.273
 11
290.363
 21
-193.612
  0
LINE
  8
0
 10
290.363
 20
-193.612
 11
291.584
 21
-194.081
  0
LINE
  8
0
 10
291.584
 20
-194.081
 11
292.75
 21
-194.675
  0
LINE
  8
0
 10
292.75
 20
-194.675
 11
293.847
 21
-195.387
  0
LINE
  8
0
 10
293.847
 20
-195.387
 11
294.864
 21
-196.211
  0
LINE
  8
0
 10
294.864
 20
-196.211
 11
295.789
 21
-197.136
  0
LINE
  8
0
 10
295.789
 20
-197.136
 11
296.613
 21
-198.153
  0
LINE
  8
0
 10
296.613
 20
-198.153
 11
297.325
 21
-199.25
  0
LINE
  8
0
 10
297.325
 20
-199.25
 11
297.919
 21
-200.416
  0
LINE
  8
0
 10
297.919
 20
-200.416
 11
298.388
 21
-201.637
  0
LINE
  8
0
 10
298.388
 20
-201.637
 11
298.727
 21
-202.901
  0
LINE
  8
0
 10
298.727
 20
-202.901
 11
298.932
 21
-204.193
  0
LINE
  8
0
 10
298.932
 20
-204.193
 11
299
 21
-205.5
  0
LINE
  8
0
 10
299
 20
-205.5
 11
298.932
 21
-206.807
  0
LINE
  8
0
 10
298.932
 20
-206.807
 11
298.727
 21
-208.099
  0
LINE
  8
0
 10
298.727
 20
-208.099
 11
298.388
 21
-209.363
  0
LINE
  8
0
 10
298.388
 20
-209.363
 11
297.919
 21
-210.584
  0
LINE
  8
0
 10
297.919
 20
-210.584
 11
297.325
 21
-211.75
  0
LINE
  8
0
 10
297.325
 20
-211.75
 11
296.613
 21
-212.847
  0
LINE
  8
0
 10
296.613
 20
-212.847
 11
295.789
 21
-213.864
  0
LINE
  8
0
 10
295.789
 20
-213.864
 11
294.864
 21
-214.789
  0
LINE
  8
0
 10
294.864
 20
-214.789
 11
293.847
 21
-215.613
  0
LINE
  8
0
 10
293.847
 20
-215.613
 11
292.75
 21
-216.325
  0
LINE
  8
0
 10
292.75
 20
-216.325
 11
291.584
 21
-216.919
  0
LINE
  8
0
 10
291.584
 20
-216.919
 11
290.363
 21
-217.388
  0
LINE
  8
0
 10
290.363
 20
-217.388
 11
289.099
 21
-217.727
  0
LINE
  8
0
 10
289.099
 20
-217.727
 11
287.807
 21
-217.932
  0
LINE
  8
0
 10
287.807
 20
-217.932
 11
286.5
 21
-218
  0
LINE
  8
0
 10
286.5
 20
-218
 11
278.5
 21
-218
  0
LINE
  8
0
 10
-285.309
 20
-207.172
 11
-285.549
 21
-207.109
  0
LINE
  8
0
 10
-285.549
 20
-207.109
 11
-285.777
 21
-207.012
  0
LINE
  8
0
 10
-285.777
 20
-207.012
 11
-285.989
 21
-206.883
  0
LINE
  8
0
 10
-285.989
 20
-206.883
 11
-286.18
 21
-206.724
  0
LINE
  8
0
 10
-286.18
 20
-206.724
 11
-286.346
 21
-206.539
  0
LINE
  8
0
 10
-286.346
 20
-206.539
 11
-286.482
 21
-206.332
  0
LINE
  8
0
 10
-286.482
 20
-206.332
 11
-286.588
 21
-206.107
  0
LINE
  8
0
 10
-286.588
 20
-206.107
 11
-286.659
 21
-205.87
  0
LINE
  8
0
 10
-286.659
 20
-205.87
 11
-286.695
 21
-205.624
  0
LINE
  8
0
 10
-286.695
 20
-205.624
 11
-286.695
 21
-205.376
  0
LINE
  8
0
 10
-286.695
 20
-205.376
 11
-286.659
 21
-205.13
  0
LINE
  8
0
 10
-286.659
 20
-205.13
 11
-286.588
 21
-204.893
  0
LINE
  8
0
 10
-286.588
 20
-204.893
 11
-286.482
 21
-204.668
  0
LINE
  8
0
 10
-286.482
 20
-204.668
 11
-286.346
 21
-204.461
  0
LINE
  8
0
 10
-286.346
 20
-204.461
 11
-286.18
 21
-204.276
  0
LINE
  8
0
 10
-286.18
 20
-204.276
 11
-285.989
 21
-204.117
  0
LINE
  8
0
 10
-285.989
 20
-204.117
 11
-285.777
 21
-203.988
  0
LINE
  8
0
 10
-285.777
 20
-203.988
 11
-285.549
 21
-203.891
  0
LINE
  8
0
 10
-285.549
 20
-203.891
 11
-285.309
 21
-203.828
  0
LINE
  8
0
 10
-285.309
 20
-203.828
 11
-285.062
 21
-203.801
  0
LINE
  8
0
 10
-285.062
 20
-203.801
 11
-284.814
 21
-203.81
  0
LINE
  8
0
 10
-284.814
 20
-203.81
 11
-284.57
 21
-203.855
  0
LINE
  8
0
 10
-284.57
 20
-203.855
 11
-284.335
 21
-203.935
  0
LINE
  8
0
 10
-284.335
 20
-203.935
 11
-284.114
 21
-204.049
  0
LINE
  8
0
 10
-284.114
 20
-204.049
 11
-283.913
 21
-204.193
  0
LINE
  8
0
 10
-283.913
 20
-204.193
 11
-283.734
 21
-204.366
  0
LINE
  8
0
 10
-283.734
 20
-204.366
 11
-283.582
 21
-204.562
  0
LINE
  8
0
 10
-283.582
 20
-204.562
 11
-283.461
 21
-204.778
  0
LINE
  8
0
 10
-283.461
 20
-204.778
 11
-283.372
 21
-205.01
  0
LINE
  8
0
 10
-283.372
 20
-205.01
 11
-283.318
 21
-205.252
  0
LINE
  8
0
 10
-283.318
 20
-205.252
 11
-283.3
 21
-205.5
  0
LINE
  8
0
 10
-283.3
 20
-205.5
 11
-283.318
 21
-205.748
  0
LINE
  8
0
 10
-283.318
 20
-205.748
 11
-283.372
 21
-205.99
  0
LINE
  8
0
 10
-283.372
 20
-205.99
 11
-283.461
 21
-206.222
  0
LINE
  8
0
 10
-283.461
 20
-206.222
 11
-283.582
 21
-206.438
  0
LINE
  8
0
 10
-283.582
 20
-206.438
 11
-283.734
 21
-206.634
  0
LINE
  8
0
 10
-283.734
 20
-206.634
 11
-283.913
 21
-206.807
  0
LINE
  8
0
 10
-283.913
 20
-206.807
 11
-284.114
 21
-206.951
  0
LINE
  8
0
 10
-284.114
 20
-206.951
 11
-284.335
 21
-207.065
  0
LINE
  8
0
 10
-284.335
 20
-207.065
 11
-284.57
 21
-207.145
  0
LINE
  8
0
 10
-284.57
 20
-207.145
 11
-284.814
 21
-207.19
  0
LINE
  8
0
 10
-284.814
 20
-207.19
 11
-285.062
 21
-207.199
  0
LINE
  8
0
 10
-285.062
 20
-207.199
 11
-285.309
 21
-207.172
  0
LINE
  8
0
 10
237.191
 20
-211.672
 11
236.951
 21
-211.609
  0
LINE
  8
0
 10
236.951
 20
-211.609
 11
236.723
 21
-211.512
  0
LINE
  8
0
 10
236.723
 20
-211.512
 11
236.511
 21
-211.383
  0
LINE
  8
0
 10
236.511
 20
-211.383
 11
236.32
 21
-211.224
  0
LINE
  8
0
 10
236.32
 20
-211.224
 11
236.154
 21
-211.039
  0
LINE
  8
0
 10
236.154
 20
-211.039
 11
236.018
 21
-210.832
  0
LINE
  8
0
 10
236.018
 20
-210.832
 11
235.912
 21
-210.607
  0
LINE
  8
0
 10
235.912
 20
-210.607
 11
235.841
 21
-210.37
  0
LINE
  8
0
 10
235.841
 20
-210.37
 11
235.805
 21
-210.124
  0
LINE
  8
0
 10
235.805
 20
-210.124
 11
235.805
 21
-209.876
  0
LINE
  8
0
 10
235.805
 20
-209.876
 11
235.841
 21
-209.63
  0
LINE
  8
0
 10
235.841
 20
-209.63
 11
235.912
 21
-209.393
  0
LINE
  8
0
 10
235.912
 20
-209.393
 11
236.018
 21
-209.168
  0
LINE
  8
0
 10
236.018
 20
-209.168
 11
236.154
 21
-208.961
  0
LINE
  8
0
 10
236.154
 20
-208.961
 11
236.32
 21
-208.776
  0
LINE
  8
0
 10
236.32
 20
-208.776
 11
236.511
 21
-208.617
  0
LINE
  8
0
 10
236.511
 20
-208.617
 11
236.723
 21
-208.488
  0
LINE
  8
0
 10
236.723
 20
-208.488
 11
236.951
 21
-208.391
  0
LINE
  8
0
 10
236.951
 20
-208.391
 11
237.191
 21
-208.328
  0
LINE
  8
0
 10
237.191
 20
-208.328
 11
237.438
 21
-208.301
  0
LINE
  8
0
 10
237.438
 20
-208.301
 11
237.686
 21
-208.31
  0
LINE
  8
0
 10
237.686
 20
-208.31
 11
237.93
 21
-208.355
  0
LINE
  8
0
 10
237.93
 20
-208.355
 11
238.165
 21
-208.435
  0
LINE
  8
0
 10
238.165
 20
-208.435
 11
238.386
 21
-208.549
  0
LINE
  8
0
 10
238.386
 20
-208.549
 11
238.587
 21
-208.693
  0
LINE
  8
0
 10
238.587
 20
-208.693
 11
238.766
 21
-208.866
  0
LINE
  8
0
 10
238.766
 20
-208.866
 11
238.918
 21
-209.062
  0
LINE
  8
0
 10
238.918
 20
-209.062
 11
239.039
 21
-209.278
  0
LINE
  8
0
 10
239.039
 20
-209.278
 11
239.128
 21
-209.51
  0
LINE
  8
0
 10
239.128
 20
-209.51
 11
239.182
 21
-209.752
  0
LINE
  8
0
 10
239.182
 20
-209.752
 11
239.2
 21
-210
  0
LINE
  8
0
 10
239.2
 20
-210
 11
239.182
 21
-210.248
  0
LINE
  8
0
 10
239.182
 20
-210.248
 11
239.128
 21
-210.49
  0
LINE
  8
0
 10
239.128
 20
-210.49
 11
239.039
 21
-210.722
  0
LINE
  8
0
 10
239.039
 20
-210.722
 11
238.918
 21
-210.938
  0
LINE
  8
0
 10
238.918
 20
-210.938
 11
238.766
 21
-211.134
  0
LINE
  8
0
 10
238.766
 20
-211.134
 11
238.587
 21
-211.307
  0
LINE
  8
0
 10
238.587
 20
-211.307
 11
238.386
 21
-211.451
  0
LINE
  8
0
 10
238.386
 20
-211.451
 11
238.165
 21
-211.565
  0
LINE
  8
0
 10
238.165
 20
-211.565
 11
237.93
 21
-211.645
  0
LINE
  8
0
 10
237.93
 20
-211.645
 11
237.686
 21
-211.69
  0
LINE
  8
0
 10
237.686
 20
-211.69
 11
237.438
 21
-211.699
  0
LINE
  8
0
 10
237.438
 20
-211.699
 11
237.191
 21
-211.672
  0
LINE
  8
0
 10
237.108
 20
-223.729
 11
236.72
 21
-223.668
  0
LINE
  8
0
 10
236.72
 20
-223.668
 11
236.341
 21
-223.566
  0
LINE
  8
0
 10
236.341
 20
-223.566
 11
235.975
 21
-223.426
  0
LINE
  8
0
 10
235.975
 20
-223.426
 11
235.625
 21
-223.248
  0
LINE
  8
0
 10
235.625
 20
-223.248
 11
235.296
 21
-223.034
  0
LINE
  8
0
 10
235.296
 20
-223.034
 11
234.991
 21
-222.787
  0
LINE
  8
0
 10
234.991
 20
-222.787
 11
234.713
 21
-222.509
  0
LINE
  8
0
 10
234.713
 20
-222.509
 11
234.466
 21
-222.204
  0
LINE
  8
0
 10
234.466
 20
-222.204
 11
234.252
 21
-221.875
  0
LINE
  8
0
 10
234.252
 20
-221.875
 11
234.074
 21
-221.525
  0
LINE
  8
0
 10
234.074
 20
-221.525
 11
233.934
 21
-221.159
  0
LINE
  8
0
 10
233.934
 20
-221.159
 11
233.832
 21
-220.78
  0
LINE
  8
0
 10
233.832
 20
-220.78
 11
233.771
 21
-220.392
  0
LINE
  8
0
 10
233.771
 20
-220.392
 11
233.75
 21
-220
  0
LINE
  8
0
 10
233.75
 20
-220
 11
233.771
 21
-219.608
  0
LINE
  8
0
 10
233.771
 20
-219.608
 11
233.832
 21
-219.22
  0
LINE
  8
0
 10
233.832
 20
-219.22
 11
233.934
 21
-218.841
  0
LINE
  8
0
 10
233.934
 20
-218.841
 11
234.074
 21
-218.475
  0
LINE
  8
0
 10
234.074
 20
-218.475
 11
234.252
 21
-218.125
  0
LINE
  8
0
 10
234.252
 20
-218.125
 11
234.466
 21
-217.796
  0
LINE
  8
0
 10
234.466
 20
-217.796
 11
234.713
 21
-217.491
  0
LINE
  8
0
 10
234.713
 20
-217.491
 11
234.991
 21
-217.213
  0
LINE
  8
0
 10
234.991
 20
-217.213
 11
235.296
 21
-216.966
  0
LINE
  8
0
 10
235.296
 20
-216.966
 11
235.625
 21
-216.752
  0
LINE
  8
0
 10
235.625
 20
-216.752
 11
235.975
 21
-216.574
  0
LINE
  8
0
 10
235.975
 20
-216.574
 11
236.341
 21
-216.434
  0
LINE
  8
0
 10
236.341
 20
-216.434
 11
236.72
 21
-216.332
  0
LINE
  8
0
 10
236.72
 20
-216.332
 11
237.108
 21
-216.271
  0
LINE
  8
0
 10
237.108
 20
-216.271
 11
237.5
 21
-216.25
  0
LINE
  8
0
 10
237.5
 20
-216.25
 11
237.892
 21
-216.271
  0
LINE
  8
0
 10
237.892
 20
-216.271
 11
238.28
 21
-216.332
  0
LINE
  8
0
 10
238.28
 20
-216.332
 11
238.659
 21
-216.434
  0
LINE
  8
0
 10
238.659
 20
-216.434
 11
239.025
 21
-216.574
  0
LINE
  8
0
 10
239.025
 20
-216.574
 11
239.375
 21
-216.752
  0
LINE
  8
0
 10
239.375
 20
-216.752
 11
239.704
 21
-216.966
  0
LINE
  8
0
 10
239.704
 20
-216.966
 11
240.009
 21
-217.213
  0
LINE
  8
0
 10
240.009
 20
-217.213
 11
240.287
 21
-217.491
  0
LINE
  8
0
 10
240.287
 20
-217.491
 11
240.534
 21
-217.796
  0
LINE
  8
0
 10
240.534
 20
-217.796
 11
240.748
 21
-218.125
  0
LINE
  8
0
 10
240.748
 20
-218.125
 11
240.926
 21
-218.475
  0
LINE
  8
0
 10
240.926
 20
-218.475
 11
241.066
 21
-218.841
  0
LINE
  8
0
 10
241.066
 20
-218.841
 11
241.168
 21
-219.22
  0
LINE
  8
0
 10
241.168
 20
-219.22
 11
241.229
 21
-219.608
  0
LINE
  8
0
 10
241.229
 20
-219.608
 11
241.25
 21
-220
  0
LINE
  8
0
 10
241.25
 20
-220
 11
241.229
 21
-220.392
  0
LINE
  8
0
 10
241.229
 20
-220.392
 11
241.168
 21
-220.78
  0
LINE
  8
0
 10
241.168
 20
-220.78
 11
241.066
 21
-221.159
  0
LINE
  8
0
 10
241.066
 20
-221.159
 11
240.926
 21
-221.525
  0
LINE
  8
0
 10
240.926
 20
-221.525
 11
240.748
 21
-221.875
  0
LINE
  8
0
 10
240.748
 20
-221.875
 11
240.534
 21
-222.204
  0
LINE
  8
0
 10
240.534
 20
-222.204
 11
240.287
 21
-222.509
  0
LINE
  8
0
 10
240.287
 20
-222.509
 11
240.009
 21
-222.787
  0
LINE
  8
0
 10
240.009
 20
-222.787
 11
239.704
 21
-223.034
  0
LINE
  8
0
 10
239.704
 20
-223.034
 11
239.375
 21
-223.248
  0
LINE
  8
0
 10
239.375
 20
-223.248
 11
239.025
 21
-223.426
  0
LINE
  8
0
 10
239.025
 20
-223.426
 11
238.659
 21
-223.566
  0
LINE
  8
0
 10
238.659
 20
-223.566
 11
238.28
 21
-223.668
  0
LINE
  8
0
 10
238.28
 20
-223.668
 11
237.892
 21
-223.729
  0
LINE
  8
0
 10
237.892
 20
-223.729
 11
237.5
 21
-223.75
  0
LINE
  8
0
 10
237.5
 20
-223.75
 11
237.108
 21
-223.729
  0
LINE
  8
0
 10
-106.5
 20
-221.75
 11
-106.749
 21
-221.732
  0
LINE
  8
0
 10
-106.749
 20
-221.732
 11
-106.993
 21
-221.679
  0
LINE
  8
0
 10
-106.993
 20
-221.679
 11
-107.227
 21
-221.592
  0
LINE
  8
0
 10
-107.227
 20
-221.592
 11
-107.446
 21
-221.472
  0
LINE
  8
0
 10
-107.446
 20
-221.472
 11
-107.646
 21
-221.323
  0
LINE
  8
0
 10
-107.646
 20
-221.323
 11
-107.823
 21
-221.146
  0
LINE
  8
0
 10
-107.823
 20
-221.146
 11
-107.972
 21
-220.946
  0
LINE
  8
0
 10
-107.972
 20
-220.946
 11
-108.092
 21
-220.727
  0
LINE
  8
0
 10
-108.092
 20
-220.727
 11
-108.179
 21
-220.493
  0
LINE
  8
0
 10
-108.179
 20
-220.493
 11
-108.232
 21
-220.249
  0
LINE
  8
0
 10
-108.232
 20
-220.249
 11
-108.25
 21
-220
  0
LINE
  8
0
 10
-108.25
 20
-220
 11
-108.232
 21
-219.751
  0
LINE
  8
0
 10
-108.232
 20
-219.751
 11
-108.179
 21
-219.507
  0
LINE
  8
0
 10
-108.179
 20
-219.507
 11
-108.092
 21
-219.273
  0
LINE
  8
0
 10
-108.092
 20
-219.273
 11
-107.972
 21
-219.054
  0
LINE
  8
0
 10
-107.972
 20
-219.054
 11
-107.823
 21
-218.854
  0
LINE
  8
0
 10
-107.823
 20
-218.854
 11
-107.646
 21
-218.677
  0
LINE
  8
0
 10
-107.646
 20
-218.677
 11
-107.446
 21
-218.528
  0
LINE
  8
0
 10
-107.446
 20
-218.528
 11
-107.227
 21
-218.408
  0
LINE
  8
0
 10
-107.227
 20
-218.408
 11
-106.993
 21
-218.321
  0
LINE
  8
0
 10
-106.993
 20
-218.321
 11
-106.749
 21
-218.268
  0
LINE
  8
0
 10
-106.749
 20
-218.268
 11
-106.5
 21
-218.25
  0
LINE
  8
0
 10
-106.5
 20
-218.25
 11
-6.5
 21
-218.25
  0
LINE
  8
0
 10
-6.5
 20
-218.25
 11
-6.25095
 21
-218.268
  0
LINE
  8
0
 10
-6.25095
 20
-218.268
 11
-6.00696
 21
-218.321
  0
LINE
  8
0
 10
-6.00696
 20
-218.321
 11
-5.77301
 21
-218.408
  0
LINE
  8
0
 10
-5.77301
 20
-218.408
 11
-5.55386
 21
-218.528
  0
LINE
  8
0
 10
-5.55386
 20
-218.528
 11
-5.35399
 21
-218.677
  0
LINE
  8
0
 10
-5.35399
 20
-218.677
 11
-5.17743
 21
-218.854
  0
LINE
  8
0
 10
-5.17743
 20
-218.854
 11
-5.0278
 21
-219.054
  0
LINE
  8
0
 10
-5.0278
 20
-219.054
 11
-4.90814
 21
-219.273
  0
LINE
  8
0
 10
-4.90814
 20
-219.273
 11
-4.82088
 21
-219.507
  0
LINE
  8
0
 10
-4.82088
 20
-219.507
 11
-4.76781
 21
-219.751
  0
LINE
  8
0
 10
-4.76781
 20
-219.751
 11
-4.75
 21
-220
  0
LINE
  8
0
 10
-4.75
 20
-220
 11
-4.76781
 21
-220.249
  0
LINE
  8
0
 10
-4.76781
 20
-220.249
 11
-4.82088
 21
-220.493
  0
LINE
  8
0
 10
-4.82088
 20
-220.493
 11
-4.90814
 21
-220.727
  0
LINE
  8
0
 10
-4.90814
 20
-220.727
 11
-5.0278
 21
-220.946
  0
LINE
  8
0
 10
-5.0278
 20
-220.946
 11
-5.17743
 21
-221.146
  0
LINE
  8
0
 10
-5.17743
 20
-221.146
 11
-5.35399
 21
-221.323
  0
LINE
  8
0
 10
-5.35399
 20
-221.323
 11
-5.55386
 21
-221.472
  0
LINE
  8
0
 10
-5.55386
 20
-221.472
 11
-5.77301
 21
-221.592
  0
LINE
  8
0
 10
-5.77301
 20
-221.592
 11
-6.00696
 21
-221.679
  0
LINE
  8
0
 10
-6.00696
 20
-221.679
 11
-6.25095
 21
-221.732
  0
LINE
  8
0
 10
-6.25095
 20
-221.732
 11
-6.5
 21
-221.75
  0
LINE
  8
0
 10
-6.5
 20
-221.75
 11
-106.5
 21
-221.75
  0
LINE
  8
0
 10
119.5
 20
-221.75
 11
119.251
 21
-221.732
  0
LINE
  8
0
 10
119.251
 20
-221.732
 11
119.007
 21
-221.679
  0
LINE
  8
0
 10
119.007
 20
-221.679
 11
118.773
 21
-221.592
  0
LINE
  8
0
 10
118.773
 20
-221.592
 11
118.554
 21
-221.472
  0
LINE
  8
0
 10
118.554
 20
-221.472
 11
118.354
 21
-221.323
  0
LINE
  8
0
 10
118.354
 20
-221.323
 11
118.177
 21
-221.146
  0
LINE
  8
0
 10
118.177
 20
-221.146
 11
118.028
 21
-220.946
  0
LINE
  8
0
 10
118.028
 20
-220.946
 11
117.908
 21
-220.727
  0
LINE
  8
0
 10
117.908
 20
-220.727
 11
117.821
 21
-220.493
  0
LINE
  8
0
 10
117.821
 20
-220.493
 11
117.768
 21
-220.249
  0
LINE
  8
0
 10
117.768
 20
-220.249
 11
117.75
 21
-220
  0
LINE
  8
0
 10
117.75
 20
-220
 11
117.768
 21
-219.751
  0
LINE
  8
0
 10
117.768
 20
-219.751
 11
117.821
 21
-219.507
  0
LINE
  8
0
 10
117.821
 20
-219.507
 11
117.908
 21
-219.273
  0
LINE
  8
0
 10
117.908
 20
-219.273
 11
118.028
 21
-219.054
  0
LINE
  8
0
 10
118.028
 20
-219.054
 11
118.177
 21
-218.854
  0
LINE
  8
0
 10
118.177
 20
-218.854
 11
118.354
 21
-218.677
  0
LINE
  8
0
 10
118.354
 20
-218.677
 11
118.554
 21
-218.528
  0
LINE
  8
0
 10
118.554
 20
-218.528
 11
118.773
 21
-218.408
  0
LINE
  8
0
 10
118.773
 20
-218.408
 11
119.007
 21
-218.321
  0
LINE
  8
0
 10
119.007
 20
-218.321
 11
119.251
 21
-218.268
  0
LINE
  8
0
 10
119.251
 20
-218.268
 11
119.5
 21
-218.25
  0
LINE
  8
0
 10
119.5
 20
-218.25
 11
219.5
 21
-218.25
  0
LINE
  8
0
 10
219.5
 20
-218.25
 11
219.749
 21
-218.268
  0
LINE
  8
0
 10
219.749
 20
-218.268
 11
219.993
 21
-218.321
  0
LINE
  8
0
 10
219.993
 20
-218.321
 11
220.227
 21
-218.408
  0
LINE
  8
0
 10
220.227
 20
-218.408
 11
220.446
 21
-218.528
  0
LINE
  8
0
 10
220.446
 20
-218.528
 11
220.646
 21
-218.677
  0
LINE
  8
0
 10
220.646
 20
-218.677
 11
220.823
 21
-218.854
  0
LINE
  8
0
 10
220.823
 20
-218.854
 11
220.972
 21
-219.054
  0
LINE
  8
0
 10
220.972
 20
-219.054
 11
221.092
 21
-219.273
  0
LINE
  8
0
 10
221.092
 20
-219.273
 11
221.179
 21
-219.507
  0
LINE
  8
0
 10
221.179
 20
-219.507
 11
221.232
 21
-219.751
  0
LINE
  8
0
 10
221.232
 20
-219.751
 11
221.25
 21
-220
  0
LINE
  8
0
 10
221.25
 20
-220
 11
221.232
 21
-220.249
  0
LINE
  8
0
 10
221.232
 20
-220.249
 11
221.179
 21
-220.493
  0
LINE
  8
0
 10
221.179
 20
-220.493
 11
221.092
 21
-220.727
  0
LINE
  8
0
 10
221.092
 20
-220.727
 11
220.972
 21
-220.946
  0
LINE
  8
0
 10
220.972
 20
-220.946
 11
220.823
 21
-221.146
  0
LINE
  8
0
 10
220.823
 20
-221.146
 11
220.646
 21
-221.323
  0
LINE
  8
0
 10
220.646
 20
-221.323
 11
220.446
 21
-221.472
  0
LINE
  8
0
 10
220.446
 20
-221.472
 11
220.227
 21
-221.592
  0
LINE
  8
0
 10
220.227
 20
-221.592
 11
219.993
 21
-221.679
  0
LINE
  8
0
 10
219.993
 20
-221.679
 11
219.749
 21
-221.732
  0
LINE
  8
0
 10
219.749
 20
-221.732
 11
219.5
 21
-221.75
  0
LINE
  8
0
 10
219.5
 20
-221.75
 11
119.5
 21
-221.75
  0
LINE
  8
0
 10
-219.5
 20
-221.75
 11
-219.749
 21
-221.732
  0
LINE
  8
0
 10
-219.749
 20
-221.732
 11
-219.993
 21
-221.679
  0
LINE
  8
0
 10
-219.993
 20
-221.679
 11
-220.227
 21
-221.592
  0
LINE
  8
0
 10
-220.227
 20
-221.592
 11
-220.446
 21
-221.472
  0
LINE
  8
0
 10
-220.446
 20
-221.472
 11
-220.646
 21
-221.323
  0
LINE
  8
0
 10
-220.646
 20
-221.323
 11
-220.823
 21
-221.146
  0
LINE
  8
0
 10
-220.823
 20
-221.146
 11
-220.972
 21
-220.946
  0
LINE
  8
0
 10
-220.972
 20
-220.946
 11
-221.092
 21
-220.727
  0
LINE
  8
0
 10
-221.092
 20
-220.727
 11
-221.179
 21
-220.493
  0
LINE
  8
0
 10
-221.179
 20
-220.493
 11
-221.232
 21
-220.249
  0
LINE
  8
0
 10
-221.232
 20
-220.249
 11
-221.25
 21
-220
  0
LINE
  8
0
 10
-221.25
 20
-220
 11
-221.232
 21
-219.751
  0
LINE
  8
0
 10
-221.232
 20
-219.751
 11
-221.179
 21
-219.507
  0
LINE
  8
0
 10
-221.179
 20
-219.507
 11
-221.092
 21
-219.273
  0
LINE
  8
0
 10
-221.092
 20
-219.273
 11
-220.972
 21
-219.054
  0
LINE
  8
0
 10
-220.972
 20
-219.054
 11
-220.823
 21
-218.854
  0
LINE
  8
0
 10
-220.823
 20
-218.854
 11
-220.646
 21
-218.677
  0
LINE
  8
0
 10
-220.646
 20
-218.677
 11
-220.446
 21
-218.528
  0
LINE
  8
0
 10
-220.446
 20
-218.528
 11
-220.227
 21
-218.408
  0
LINE
  8
0
 10
-220.227
 20
-218.408
 11
-219.993
 21
-218.321
  0
LINE
  8
0
 10
-219.993
 20
-218.321
 11
-219.749
 21
-218.268
  0
LINE
  8
0
 10
-219.749
 20
-218.268
 11
-219.5
 21
-218.25
  0
LINE
  8
0
 10
-219.5
 20
-218.25
 11
-119.5
 21
-218.25
  0
LINE
  8
0
 10
-119.5
 20
-218.25
 11
-119.251
 21
-218.268
  0
LINE
  8
0
 10
-119.251
 20
-218.268
 11
-119.007
 21
-218.321
  0
LINE
  8
0
 10
-119.007
 20
-218.321
 11
-118.773
 21
-218.408
  0
LINE
  8
0
 10
-118.773
 20
-218.408
 11
-118.554
 21
-218.528
  0
LINE
  8
0
 10
-118.554
 20
-218.528
 11
-118.354
 21
-218.677
  0
LINE
  8
0
 10
-118.354
 20
-218.677
 11
-118.177
 21
-218.854
  0
LINE
  8
0
 10
-118.177
 20
-218.854
 11
-118.028
 21
-219.054
  0
LINE
  8
0
 10
-118.028
 20
-219.054
 11
-117.908
 21
-219.273
  0
LINE
  8
0
 10
-117.908
 20
-219.273
 11
-117.821
 21
-219.507
  0
LINE
  8
0
 10
-117.821
 20
-219.507
 11
-117.768
 21
-219.751
  0
LINE
  8
0
 10
-117.768
 20
-219.751
 11
-117.75
 21
-220
  0
LINE
  8
0
 10
-117.75
 20
-220
 11
-117.768
 21
-220.249
  0
LINE
  8
0
 10
-117.768
 20
-220.249
 11
-117.821
 21
-220.493
  0
LINE
  8
0
 10
-117.821
 20
-220.493
 11
-117.908
 21
-220.727
  0
LINE
  8
0
 10
-117.908
 20
-220.727
 11
-118.028
 21
-220.946
  0
LINE
  8
0
 10
-118.028
 20
-220.946
 11
-118.177
 21
-221.146
  0
LINE
  8
0
 10
-118.177
 20
-221.146
 11
-118.354
 21
-221.323
  0
LINE
  8
0
 10
-118.354
 20
-221.323
 11
-118.554
 21
-221.472
  0
LINE
  8
0
 10
-118.554
 20
-221.472
 11
-118.773
 21
-221.592
  0
LINE
  8
0
 10
-118.773
 20
-221.592
 11
-119.007
 21
-221.679
  0
LINE
  8
0
 10
-119.007
 20
-221.679
 11
-119.251
 21
-221.732
  0
LINE
  8
0
 10
-119.251
 20
-221.732
 11
-119.5
 21
-221.75
  0
LINE
  8
0
 10
-119.5
 20
-221.75
 11
-219.5
 21
-221.75
  0
LINE
  8
0
 10
6.5
 20
-221.75
 11
6.25095
 21
-221.732
  0
LINE
  8
0
 10
6.25095
 20
-221.732
 11
6.00696
 21
-221.679
  0
LINE
  8
0
 10
6.00696
 20
-221.679
 11
5.77301
 21
-221.592
  0
LINE
  8
0
 10
5.77301
 20
-221.592
 11
5.55386
 21
-221.472
  0
LINE
  8
0
 10
5.55386
 20
-221.472
 11
5.35399
 21
-221.323
  0
LINE
  8
0
 10
5.35399
 20
-221.323
 11
5.17743
 21
-221.146
  0
LINE
  8
0
 10
5.17743
 20
-221.146
 11
5.0278
 21
-220.946
  0
LINE
  8
0
 10
5.0278
 20
-220.946
 11
4.90814
 21
-220.727
  0
LINE
  8
0
 10
4.90814
 20
-220.727
 11
4.82088
 21
-220.493
  0
LINE
  8
0
 10
4.82088
 20
-220.493
 11
4.76781
 21
-220.249
  0
LINE
  8
0
 10
4.76781
 20
-220.249
 11
4.75
 21
-220
  0
LINE
  8
0
 10
4.75
 20
-220
 11
4.76781
 21
-219.751
  0
LINE
  8
0
 10
4.76781
 20
-219.751
 11
4.82088
 21
-219.507
  0
LINE
  8
0
 10
4.82088
 20
-219.507
 11
4.90814
 21
-219.273
  0
LINE
  8
0
 10
4.90814
 20
-219.273
 11
5.0278
 21
-219.054
  0
LINE
  8
0
 10
5.0278
 20
-219.054
 11
5.17743
 21
-218.854
  0
LINE
  8
0
 10
5.17743
 20
-218.854
 11
5.35399
 21
-218.677
  0
LINE
  8
0
 10
5.35399
 20
-218.677
 11
5.55386
 21
-218.528
  0
LINE
  8
0
 10
5.55386
 20
-218.528
 11
5.77301
 21
-218.408
  0
LINE
  8
0
 10
5.77301
 20
-218.408
 11
6.00696
 21
-218.321
  0
LINE
  8
0
 10
6.00696
 20
-218.321
 11
6.25095
 21
-218.268
  0
LINE
  8
0
 10
6.25095
 20
-218.268
 11
6.5
 21
-218.25
  0
LINE
  8
0
 10
6.5
 20
-218.25
 11
106.5
 21
-218.25
  0
LINE
  8
0
 10
106.5
 20
-218.25
 11
106.749
 21
-218.268
  0
LINE
  8
0
 10
106.749
 20
-218.268
 11
106.993
 21
-218.321
  0
LINE
  8
0
 10
106.993
 20
-218.321
 11
107.227
 21
-218.408
  0
LINE
  8
0
 10
107.227
 20
-218.408
 11
107.446
 21
-218.528
  0
LINE
  8
0
 10
107.446
 20
-218.528
 11
107.646
 21
-218.677
  0
LINE
  8
0
 10
107.646
 20
-218.677
 11
107.823
 21
-218.854
  0
LINE
  8
0
 10
107.823
 20
-218.854
 11
107.972
 21
-219.054
  0
LINE
  8
0
 10
107.972
 20
-219.054
 11
108.092
 21
-219.273
  0
LINE
  8
0
 10
108.092
 20
-219.273
 11
108.179
 21
-219.507
  0
LINE
  8
0
 10
108.179
 20
-219.507
 11
108.232
 21
-219.751
  0
LINE
  8
0
 10
108.232
 20
-219.751
 11
108.25
 21
-220
  0
LINE
  8
0
 10
108.25
 20
-220
 11
108.232
 21
-220.249
  0
LINE
  8
0
 10
108.232
 20
-220.249
 11
108.179
 21
-220.493
  0
LINE
  8
0
 10
108.179
 20
-220.493
 11
108.092
 21
-220.727
  0
LINE
  8
0
 10
108.092
 20
-220.727
 11
107.972
 21
-220.946
  0
LINE
  8
0
 10
107.972
 20
-220.946
 11
107.823
 21
-221.146
  0
LINE
  8
0
 10
107.823
 20
-221.146
 11
107.646
 21
-221.323
  0
LINE
  8
0
 10
107.646
 20
-221.323
 11
107.446
 21
-221.472
  0
LINE
  8
0
 10
107.446
 20
-221.472
 11
107.227
 21
-221.592
  0
LINE
  8
0
 10
107.227
 20
-221.592
 11
106.993
 21
-221.679
  0
LINE
  8
0
 10
106.993
 20
-221.679
 11
106.749
 21
-221.732
  0
LINE
  8
0
 10
106.749
 20
-221.732
 11
106.5
 21
-221.75
  0
LINE
  8
0
 10
106.5
 20
-221.75
 11
6.5
 21
-221.75
  0
LINE
  8
0
 10
227.191
 20
-221.672
 11
226.951
 21
-221.609
  0
LINE
  8
0
 10
226.951
 20
-221.609
 11
226.723
 21
-221.512
  0
LINE
  8
0
 10
226.723
 20
-221.512
 11
226.511
 21
-221.383
  0
LINE
  8
0
 10
226.511
 20
-221.383
 11
226.32
 21
-221.224
  0
LINE
  8
0
 10
226.32
 20
-221.224
 11
226.154
 21
-221.039
  0
LINE
  8
0
 10
226.154
 20
-221.039
 11
226.018
 21
-220.832
  0
LINE
  8
0
 10
226.018
 20
-220.832
 11
225.912
 21
-220.607
  0
LINE
  8
0
 10
225.912
 20
-220.607
 11
225.841
 21
-220.37
  0
LINE
  8
0
 10
225.841
 20
-220.37
 11
225.805
 21
-220.124
  0
LINE
  8
0
 10
225.805
 20
-220.124
 11
225.805
 21
-219.876
  0
LINE
  8
0
 10
225.805
 20
-219.876
 11
225.841
 21
-219.63
  0
LINE
  8
0
 10
225.841
 20
-219.63
 11
225.912
 21
-219.393
  0
LINE
  8
0
 10
225.912
 20
-219.393
 11
226.018
 21
-219.168
  0
LINE
  8
0
 10
226.018
 20
-219.168
 11
226.154
 21
-218.961
  0
LINE
  8
0
 10
226.154
 20
-218.961
 11
226.32
 21
-218.776
  0
LINE
  8
0
 10
226.32
 20
-218.776
 11
226.511
 21
-218.617
  0
LINE
  8
0
 10
226.511
 20
-218.617
 11
226.723
 21
-218.488
  0
LINE
  8
0
 10
226.723
 20
-218.488
 11
226.951
 21
-218.391
  0
LINE
  8
0
 10
226.951
 20
-218.391
 11
227.191
 21
-218.328
  0
LINE
  8
0
 10
227.191
 20
-218.328
 11
227.438
 21
-218.301
  0
LINE
  8
0
 10
227.438
 20
-218.301
 11
227.686
 21
-218.31
  0
LINE
  8
0
 10
227.686
 20
-218.31
 11
227.93
 21
-218.355
  0
LINE
  8
0
 10
227.93
 20
-218.355
 11
228.165
 21
-218.435
  0
LINE
  8
0
 10
228.165
 20
-218.435
 11
228.386
 21
-218.549
  0
LINE
  8
0
 10
228.386
 20
-218.549
 11
228.587
 21
-218.693
  0
LINE
  8
0
 10
228.587
 20
-218.693
 11
228.766
 21
-218.866
  0
LINE
  8
0
 10
228.766
 20
-218.866
 11
228.918
 21
-219.062
  0
LINE
  8
0
 10
228.918
 20
-219.062
 11
229.039
 21
-219.278
  0
LINE
  8
0
 10
229.039
 20
-219.278
 11
229.128
 21
-219.51
  0
LINE
  8
0
 10
229.128
 20
-219.51
 11
229.182
 21
-219.752
  0
LINE
  8
0
 10
229.182
 20
-219.752
 11
229.2
 21
-220
  0
LINE
  8
0
 10
229.2
 20
-220
 11
229.182
 21
-220.248
  0
LINE
  8
0
 10
229.182
 20
-220.248
 11
229.128
 21
-220.49
  0
LINE
  8
0
 10
229.128
 20
-220.49
 11
229.039
 21
-220.722
  0
LINE
  8
0
 10
229.039
 20
-220.722
 11
228.918
 21
-220.938
  0
LINE
  8
0
 10
228.918
 20
-220.938
 11
228.766
 21
-221.134
  0
LINE
  8
0
 10
228.766
 20
-221.134
 11
228.587
 21
-221.307
  0
LINE
  8
0
 10
228.587
 20
-221.307
 11
228.386
 21
-221.451
  0
LINE
  8
0
 10
228.386
 20
-221.451
 11
228.165
 21
-221.565
  0
LINE
  8
0
 10
228.165
 20
-221.565
 11
227.93
 21
-221.645
  0
LINE
  8
0
 10
227.93
 20
-221.645
 11
227.686
 21
-221.69
  0
LINE
  8
0
 10
227.686
 20
-221.69
 11
227.438
 21
-221.699
  0
LINE
  8
0
 10
227.438
 20
-221.699
 11
227.191
 21
-221.672
  0
LINE
  8
0
 10
263.377
 20
-222.645
 11
263.133
 21
-222.609
  0
LINE
  8
0
 10
263.133
 20
-222.609
 11
262.897
 21
-222.536
  0
LINE
  8
0
 10
262.897
 20
-222.536
 11
262.675
 21
-222.429
  0
LINE
  8
0
 10
262.675
 20
-222.429
 11
262.471
 21
-222.29
  0
LINE
  8
0
 10
262.471
 20
-222.29
 11
262.29
 21
-222.122
  0
LINE
  8
0
 10
262.29
 20
-222.122
 11
262.137
 21
-221.929
  0
LINE
  8
0
 10
262.137
 20
-221.929
 11
262.013
 21
-221.716
  0
LINE
  8
0
 10
262.013
 20
-221.716
 11
261.923
 21
-221.486
  0
LINE
  8
0
 10
261.923
 20
-221.486
 11
261.868
 21
-221.246
  0
LINE
  8
0
 10
261.868
 20
-221.246
 11
261.85
 21
-221
  0
LINE
  8
0
 10
261.85
 20
-221
 11
261.868
 21
-220.754
  0
LINE
  8
0
 10
261.868
 20
-220.754
 11
261.923
 21
-220.514
  0
LINE
  8
0
 10
261.923
 20
-220.514
 11
262.013
 21
-220.284
  0
LINE
  8
0
 10
262.013
 20
-220.284
 11
262.137
 21
-220.071
  0
LINE
  8
0
 10
262.137
 20
-220.071
 11
262.29
 21
-219.878
  0
LINE
  8
0
 10
262.29
 20
-219.878
 11
262.471
 21
-219.71
  0
LINE
  8
0
 10
262.471
 20
-219.71
 11
262.675
 21
-219.571
  0
LINE
  8
0
 10
262.675
 20
-219.571
 11
262.897
 21
-219.464
  0
LINE
  8
0
 10
262.897
 20
-219.464
 11
263.133
 21
-219.391
  0
LINE
  8
0
 10
263.133
 20
-219.391
 11
263.377
 21
-219.355
  0
LINE
  8
0
 10
263.377
 20
-219.355
 11
271.623
 21
-219.355
  0
LINE
  8
0
 10
271.623
 20
-219.355
 11
271.867
 21
-219.391
  0
LINE
  8
0
 10
271.867
 20
-219.391
 11
272.103
 21
-219.464
  0
LINE
  8
0
 10
272.103
 20
-219.464
 11
272.325
 21
-219.571
  0
LINE
  8
0
 10
272.325
 20
-219.571
 11
272.529
 21
-219.71
  0
LINE
  8
0
 10
272.529
 20
-219.71
 11
272.71
 21
-219.878
  0
LINE
  8
0
 10
272.71
 20
-219.878
 11
272.863
 21
-220.071
  0
LINE
  8
0
 10
272.863
 20
-220.071
 11
272.987
 21
-220.284
  0
LINE
  8
0
 10
272.987
 20
-220.284
 11
273.077
 21
-220.514
  0
LINE
  8
0
 10
273.077
 20
-220.514
 11
273.132
 21
-220.754
  0
LINE
  8
0
 10
273.132
 20
-220.754
 11
273.15
 21
-221
  0
LINE
  8
0
 10
273.15
 20
-221
 11
273.132
 21
-221.246
  0
LINE
  8
0
 10
273.132
 20
-221.246
 11
273.077
 21
-221.486
  0
LINE
  8
0
 10
273.077
 20
-221.486
 11
272.987
 21
-221.716
  0
LINE
  8
0
 10
272.987
 20
-221.716
 11
272.863
 21
-221.929
  0
LINE
  8
0
 10
272.863
 20
-221.929
 11
272.71
 21
-222.122
  0
LINE
  8
0
 10
272.71
 20
-222.122
 11
272.529
 21
-222.29
  0
LINE
  8
0
 10
272.529
 20
-222.29
 11
272.325
 21
-222.429
  0
LINE
  8
0
 10
272.325
 20
-222.429
 11
272.103
 21
-222.536
  0
LINE
  8
0
 10
272.103
 20
-222.536
 11
271.867
 21
-222.609
  0
LINE
  8
0
 10
271.867
 20
-222.609
 11
271.623
 21
-222.645
  0
LINE
  8
0
 10
271.623
 20
-222.645
 11
263.377
 21
-222.645
  0
LINE
  8
0
 10
294.377
 20
-222.645
 11
294.133
 21
-222.609
  0
LINE
  8
0
 10
294.133
 20
-222.609
 11
293.897
 21
-222.536
  0
LINE
  8
0
 10
293.897
 20
-222.536
 11
293.675
 21
-222.429
  0
LINE
  8
0
 10
293.675
 20
-222.429
 11
293.471
 21
-222.29
  0
LINE
  8
0
 10
293.471
 20
-222.29
 11
293.29
 21
-222.122
  0
LINE
  8
0
 10
293.29
 20
-222.122
 11
293.137
 21
-221.929
  0
LINE
  8
0
 10
293.137
 20
-221.929
 11
293.013
 21
-221.716
  0
LINE
  8
0
 10
293.013
 20
-221.716
 11
292.923
 21
-221.486
  0
LINE
  8
0
 10
292.923
 20
-221.486
 11
292.868
 21
-221.246
  0
LINE
  8
0
 10
292.868
 20
-221.246
 11
292.85
 21
-221
  0
LINE
  8
0
 10
292.85
 20
-221
 11
292.868
 21
-220.754
  0
LINE
  8
0
 10
292.868
 20
-220.754
 11
292.923
 21
-220.514
  0
LINE
  8
0
 10
292.923
 20
-220.514
 11
293.013
 21
-220.284
  0
LINE
  8
0
 10
293.013
 20
-220.284
 11
293.137
 21
-220.071
  0
LINE
  8
0
 10
293.137
 20
-220.071
 11
293.29
 21
-219.878
  0
LINE
  8
0
 10
293.29
 20
-219.878
 11
293.471
 21
-219.71
  0
LINE
  8
0
 10
293.471
 20
-219.71
 11
293.675
 21
-219.571
  0
LINE
  8
0
 10
293.675
 20
-219.571
 11
293.897
 21
-219.464
  0
LINE
  8
0
 10
293.897
 20
-219.464
 11
294.133
 21
-219.391
  0
LINE
  8
0
 10
294.133
 20
-219.391
 11
294.377
 21
-219.355
  0
LINE
  8
0
 10
294.377
 20
-219.355
 11
302.623
 21
-219.355
  0
LINE
  8
0
 10
302.623
 20
-219.355
 11
302.867
 21
-219.391
  0
LINE
  8
0
 10
302.867
 20
-219.391
 11
303.103
 21
-219.464
  0
LINE
  8
0
 10
303.103
 20
-219.464
 11
303.325
 21
-219.571
  0
LINE
  8
0
 10
303.325
 20
-219.571
 11
303.529
 21
-219.71
  0
LINE
  8
0
 10
303.529
 20
-219.71
 11
303.71
 21
-219.878
  0
LINE
  8
0
 10
303.71
 20
-219.878
 11
303.863
 21
-220.071
  0
LINE
  8
0
 10
303.863
 20
-220.071
 11
303.987
 21
-220.284
  0
LINE
  8
0
 10
303.987
 20
-220.284
 11
304.077
 21
-220.514
  0
LINE
  8
0
 10
304.077
 20
-220.514
 11
304.132
 21
-220.754
  0
LINE
  8
0
 10
304.132
 20
-220.754
 11
304.15
 21
-221
  0
LINE
  8
0
 10
304.15
 20
-221
 11
304.132
 21
-221.246
  0
LINE
  8
0
 10
304.132
 20
-221.246
 11
304.077
 21
-221.486
  0
LINE
  8
0
 10
304.077
 20
-221.486
 11
303.987
 21
-221.716
  0
LINE
  8
0
 10
303.987
 20
-221.716
 11
303.863
 21
-221.929
  0
LINE
  8
0
 10
303.863
 20
-221.929
 11
303.71
 21
-222.122
  0
LINE
  8
0
 10
303.71
 20
-222.122
 11
303.529
 21
-222.29
  0
LINE
  8
0
 10
303.529
 20
-222.29
 11
303.325
 21
-222.429
  0
LINE
  8
0
 10
303.325
 20
-222.429
 11
303.103
 21
-222.536
  0
LINE
  8
0
 10
303.103
 20
-222.536
 11
302.867
 21
-222.609
  0
LINE
  8
0
 10
302.867
 20
-222.609
 11
302.623
 21
-222.645
  0
LINE
  8
0
 10
302.623
 20
-222.645
 11
294.377
 21
-222.645
  0
LINE
  8
0
 10
312.191
 20
-229.172
 11
311.951
 21
-229.109
  0
LINE
  8
0
 10
311.951
 20
-229.109
 11
311.723
 21
-229.012
  0
LINE
  8
0
 10
311.723
 20
-229.012
 11
311.511
 21
-228.883
  0
LINE
  8
0
 10
311.511
 20
-228.883
 11
311.32
 21
-228.724
  0
LINE
  8
0
 10
311.32
 20
-228.724
 11
311.154
 21
-228.539
  0
LINE
  8
0
 10
311.154
 20
-228.539
 11
311.018
 21
-228.332
  0
LINE
  8
0
 10
311.018
 20
-228.332
 11
310.912
 21
-228.107
  0
LINE
  8
0
 10
310.912
 20
-228.107
 11
310.841
 21
-227.87
  0
LINE
  8
0
 10
310.841
 20
-227.87
 11
310.805
 21
-227.624
  0
LINE
  8
0
 10
310.805
 20
-227.624
 11
310.805
 21
-227.376
  0
LINE
  8
0
 10
310.805
 20
-227.376
 11
310.841
 21
-227.13
  0
LINE
  8
0
 10
310.841
 20
-227.13
 11
310.912
 21
-226.893
  0
LINE
  8
0
 10
310.912
 20
-226.893
 11
311.018
 21
-226.668
  0
LINE
  8
0
 10
311.018
 20
-226.668
 11
311.154
 21
-226.461
  0
LINE
  8
0
 10
311.154
 20
-226.461
 11
311.32
 21
-226.276
  0
LINE
  8
0
 10
311.32
 20
-226.276
 11
311.511
 21
-226.117
  0
LINE
  8
0
 10
311.511
 20
-226.117
 11
311.723
 21
-225.988
  0
LINE
  8
0
 10
311.723
 20
-225.988
 11
311.951
 21
-225.891
  0
LINE
  8
0
 10
311.951
 20
-225.891
 11
312.191
 21
-225.828
  0
LINE
  8
0
 10
312.191
 20
-225.828
 11
312.438
 21
-225.801
  0
LINE
  8
0
 10
312.438
 20
-225.801
 11
312.686
 21
-225.81
  0
LINE
  8
0
 10
312.686
 20
-225.81
 11
312.93
 21
-225.855
  0
LINE
  8
0
 10
312.93
 20
-225.855
 11
313.165
 21
-225.935
  0
LINE
  8
0
 10
313.165
 20
-225.935
 11
313.386
 21
-226.049
  0
LINE
  8
0
 10
313.386
 20
-226.049
 11
313.587
 21
-226.193
  0
LINE
  8
0
 10
313.587
 20
-226.193
 11
313.766
 21
-226.366
  0
LINE
  8
0
 10
313.766
 20
-226.366
 11
313.918
 21
-226.562
  0
LINE
  8
0
 10
313.918
 20
-226.562
 11
314.039
 21
-226.778
  0
LINE
  8
0
 10
314.039
 20
-226.778
 11
314.128
 21
-227.01
  0
LINE
  8
0
 10
314.128
 20
-227.01
 11
314.182
 21
-227.252
  0
LINE
  8
0
 10
314.182
 20
-227.252
 11
314.2
 21
-227.5
  0
LINE
  8
0
 10
314.2
 20
-227.5
 11
314.182
 21
-227.748
  0
LINE
  8
0
 10
314.182
 20
-227.748
 11
314.128
 21
-227.99
  0
LINE
  8
0
 10
314.128
 20
-227.99
 11
314.039
 21
-228.222
  0
LINE
  8
0
 10
314.039
 20
-228.222
 11
313.918
 21
-228.438
  0
LINE
  8
0
 10
313.918
 20
-228.438
 11
313.766
 21
-228.634
  0
LINE
  8
0
 10
313.766
 20
-228.634
 11
313.587
 21
-228.807
  0
LINE
  8
0
 10
313.587
 20
-228.807
 11
313.386
 21
-228.951
  0
LINE
  8
0
 10
313.386
 20
-228.951
 11
313.165
 21
-229.065
  0
LINE
  8
0
 10
313.165
 20
-229.065
 11
312.93
 21
-229.145
  0
LINE
  8
0
 10
312.93
 20
-229.145
 11
312.686
 21
-229.19
  0
LINE
  8
0
 10
312.686
 20
-229.19
 11
312.438
 21
-229.199
  0
LINE
  8
0
 10
312.438
 20
-229.199
 11
312.191
 21
-229.172
  0
ENDSEC
  0
SECTION
  2
OBJECTS
  0
DICTIONARY
  0
ENDSEC
  0
EOF
