  0
SECTION
  2
BLOCKS
  0
ENDSEC
  0
SECTION
  2
ENTITIES
  0
LINE
  8
0
 10
222.898
 20
-222.348
 11
223.415
 21
-222.266
  0
LINE
  8
0
 10
223.415
 20
-222.266
 11
223.92
 21
-222.13
  0
LINE
  8
0
 10
223.92
 20
-222.13
 11
224.409
 21
-221.943
  0
LINE
  8
0
 10
224.409
 20
-221.943
 11
224.875
 21
-221.705
  0
LINE
  8
0
 10
224.875
 20
-221.705
 11
225.314
 21
-221.42
  0
LINE
  8
0
 10
225.314
 20
-221.42
 11
225.721
 21
-221.091
  0
LINE
  8
0
 10
225.721
 20
-221.091
 11
226.091
 21
-220.721
  0
LINE
  8
0
 10
226.091
 20
-220.721
 11
226.42
 21
-220.314
  0
LINE
  8
0
 10
226.42
 20
-220.314
 11
226.705
 21
-219.875
  0
LINE
  8
0
 10
226.705
 20
-219.875
 11
226.943
 21
-219.409
  0
LINE
  8
0
 10
226.943
 20
-219.409
 11
227.13
 21
-218.92
  0
LINE
  8
0
 10
227.13
 20
-218.92
 11
227.266
 21
-218.415
  0
LINE
  8
0
 10
227.266
 20
-218.415
 11
227.348
 21
-217.898
  0
LINE
  8
0
 10
227.348
 20
-217.898
 11
227.375
 21
-217.375
  0
LINE
  8
0
 10
227.375
 20
-217.375
 11
227.375
 21
217.375
  0
LINE
  8
0
 10
227.375
 20
217.375
 11
227.348
 21
217.898
  0
LINE
  8
0
 10
227.348
 20
217.898
 11
227.266
 21
218.415
  0
LINE
  8
0
 10
227.266
 20
218.415
 11
227.13
 21
218.92
  0
LINE
  8
0
 10
227.13
 20
218.92
 11
226.943
 21
219.409
  0
LINE
  8
0
 10
226.943
 20
219.409
 11
226.705
 21
219.875
  0
LINE
  8
0
 10
226.705
 20
219.875
 11
226.42
 21
220.314
  0
LINE
  8
0
 10
226.42
 20
220.314
 11
226.091
 21
220.721
  0
LINE
  8
0
 10
226.091
 20
220.721
 11
225.721
 21
221.091
  0
LINE
  8
0
 10
225.721
 20
221.091
 11
225.314
 21
221.42
  0
LINE
  8
0
 10
225.314
 20
221.42
 11
224.875
 21
221.705
  0
LINE
  8
0
 10
224.875
 20
221.705
 11
224.409
 21
221.943
  0
LINE
  8
0
 10
224.409
 20
221.943
 11
223.92
 21
222.13
  0
LINE
  8
0
 10
223.92
 20
222.13
 11
223.415
 21
222.266
  0
LINE
  8
0
 10
223.415
 20
222.266
 11
222.898
 21
222.348
  0
LINE
  8
0
 10
222.898
 20
222.348
 11
222.375
 21
222.375
  0
LINE
  8
0
 10
222.375
 20
222.375
 11
-222.375
 21
222.375
  0
LINE
  8
0
 10
-222.375
 20
222.375
 11
-222.898
 21
222.348
  0
LINE
  8
0
 10
-222.898
 20
222.348
 11
-223.415
 21
222.266
  0
LINE
  8
0
 10
-223.415
 20
222.266
 11
-223.92
 21
222.13
  0
LINE
  8
0
 10
-223.92
 20
222.13
 11
-224.409
 21
221.943
  0
LINE
  8
0
 10
-224.409
 20
221.943
 11
-224.875
 21
221.705
  0
LINE
  8
0
 10
-224.875
 20
221.705
 11
-225.314
 21
221.42
  0
LINE
  8
0
 10
-225.314
 20
221.42
 11
-225.721
 21
221.091
  0
LINE
  8
0
 10
-225.721
 20
221.091
 11
-226.091
 21
220.721
  0
LINE
  8
0
 10
-226.091
 20
220.721
 11
-226.42
 21
220.314
  0
LINE
  8
0
 10
-226.42
 20
220.314
 11
-226.705
 21
219.875
  0
LINE
  8
0
 10
-226.705
 20
219.875
 11
-226.943
 21
219.409
  0
LINE
  8
0
 10
-226.943
 20
219.409
 11
-227.13
 21
218.92
  0
LINE
  8
0
 10
-227.13
 20
218.92
 11
-227.266
 21
218.415
  0
LINE
  8
0
 10
-227.266
 20
218.415
 11
-227.348
 21
217.898
  0
LINE
  8
0
 10
-227.348
 20
217.898
 11
-227.375
 21
217.375
  0
LINE
  8
0
 10
-227.375
 20
217.375
 11
-227.375
 21
-217.375
  0
LINE
  8
0
 10
-227.375
 20
-217.375
 11
-227.348
 21
-217.898
  0
LINE
  8
0
 10
-227.348
 20
-217.898
 11
-227.266
 21
-218.415
  0
LINE
  8
0
 10
-227.266
 20
-218.415
 11
-227.13
 21
-218.92
  0
LINE
  8
0
 10
-227.13
 20
-218.92
 11
-226.943
 21
-219.409
  0
LINE
  8
0
 10
-226.943
 20
-219.409
 11
-226.705
 21
-219.875
  0
LINE
  8
0
 10
-226.705
 20
-219.875
 11
-226.42
 21
-220.314
  0
LINE
  8
0
 10
-226.42
 20
-220.314
 11
-226.091
 21
-220.721
  0
LINE
  8
0
 10
-226.091
 20
-220.721
 11
-225.721
 21
-221.091
  0
LINE
  8
0
 10
-225.721
 20
-221.091
 11
-225.314
 21
-221.42
  0
LINE
  8
0
 10
-225.314
 20
-221.42
 11
-224.875
 21
-221.705
  0
LINE
  8
0
 10
-224.875
 20
-221.705
 11
-224.409
 21
-221.943
  0
LINE
  8
0
 10
-224.409
 20
-221.943
 11
-223.92
 21
-222.13
  0
LINE
  8
0
 10
-223.92
 20
-222.13
 11
-223.415
 21
-222.266
  0
LINE
  8
0
 10
-223.415
 20
-222.266
 11
-222.898
 21
-222.348
  0
LINE
  8
0
 10
-222.898
 20
-222.348
 11
-222.375
 21
-222.375
  0
LINE
  8
0
 10
-222.375
 20
-222.375
 11
222.375
 21
-222.375
  0
LINE
  8
0
 10
222.375
 20
-222.375
 11
222.898
 21
-222.348
  0
LINE
  8
0
 10
-220.392
 20
211.271
 11
-220.78
 21
211.332
  0
LINE
  8
0
 10
-220.78
 20
211.332
 11
-221.159
 21
211.434
  0
LINE
  8
0
 10
-221.159
 20
211.434
 11
-221.525
 21
211.574
  0
LINE
  8
0
 10
-221.525
 20
211.574
 11
-221.875
 21
211.752
  0
LINE
  8
0
 10
-221.875
 20
211.752
 11
-222.204
 21
211.966
  0
LINE
  8
0
 10
-222.204
 20
211.966
 11
-222.509
 21
212.213
  0
LINE
  8
0
 10
-222.509
 20
212.213
 11
-222.787
 21
212.491
  0
LINE
  8
0
 10
-222.787
 20
212.491
 11
-223.034
 21
212.796
  0
LINE
  8
0
 10
-223.034
 20
212.796
 11
-223.248
 21
213.125
  0
LINE
  8
0
 10
-223.248
 20
213.125
 11
-223.426
 21
213.475
  0
LINE
  8
0
 10
-223.426
 20
213.475
 11
-223.566
 21
213.841
  0
LINE
  8
0
 10
-223.566
 20
213.841
 11
-223.668
 21
214.22
  0
LINE
  8
0
 10
-223.668
 20
214.22
 11
-223.729
 21
214.608
  0
LINE
  8
0
 10
-223.729
 20
214.608
 11
-223.75
 21
215
  0
LINE
  8
0
 10
-223.75
 20
215
 11
-223.729
 21
215.392
  0
LINE
  8
0
 10
-223.729
 20
215.392
 11
-223.668
 21
215.78
  0
LINE
  8
0
 10
-223.668
 20
215.78
 11
-223.566
 21
216.159
  0
LINE
  8
0
 10
-223.566
 20
216.159
 11
-223.426
 21
216.525
  0
LINE
  8
0
 10
-223.426
 20
216.525
 11
-223.248
 21
216.875
  0
LINE
  8
0
 10
-223.248
 20
216.875
 11
-223.034
 21
217.204
  0
LINE
  8
0
 10
-223.034
 20
217.204
 11
-222.787
 21
217.509
  0
LINE
  8
0
 10
-222.787
 20
217.509
 11
-222.509
 21
217.787
  0
LINE
  8
0
 10
-222.509
 20
217.787
 11
-222.204
 21
218.034
  0
LINE
  8
0
 10
-222.204
 20
218.034
 11
-221.875
 21
218.248
  0
LINE
  8
0
 10
-221.875
 20
218.248
 11
-221.525
 21
218.426
  0
LINE
  8
0
 10
-221.525
 20
218.426
 11
-221.159
 21
218.566
  0
LINE
  8
0
 10
-221.159
 20
218.566
 11
-220.78
 21
218.668
  0
LINE
  8
0
 10
-220.78
 20
218.668
 11
-220.392
 21
218.729
  0
LINE
  8
0
 10
-220.392
 20
218.729
 11
-220
 21
218.75
  0
LINE
  8
0
 10
-220
 20
218.75
 11
-219.608
 21
218.729
  0
LINE
  8
0
 10
-219.608
 20
218.729
 11
-219.22
 21
218.668
  0
LINE
  8
0
 10
-219.22
 20
218.668
 11
-218.841
 21
218.566
  0
LINE
  8
0
 10
-218.841
 20
218.566
 11
-218.475
 21
218.426
  0
LINE
  8
0
 10
-218.475
 20
218.426
 11
-218.125
 21
218.248
  0
LINE
  8
0
 10
-218.125
 20
218.248
 11
-217.796
 21
218.034
  0
LINE
  8
0
 10
-217.796
 20
218.034
 11
-217.491
 21
217.787
  0
LINE
  8
0
 10
-217.491
 20
217.787
 11
-217.213
 21
217.509
  0
LINE
  8
0
 10
-217.213
 20
217.509
 11
-216.966
 21
217.204
  0
LINE
  8
0
 10
-216.966
 20
217.204
 11
-216.752
 21
216.875
  0
LINE
  8
0
 10
-216.752
 20
216.875
 11
-216.574
 21
216.525
  0
LINE
  8
0
 10
-216.574
 20
216.525
 11
-216.434
 21
216.159
  0
LINE
  8
0
 10
-216.434
 20
216.159
 11
-216.332
 21
215.78
  0
LINE
  8
0
 10
-216.332
 20
215.78
 11
-216.271
 21
215.392
  0
LINE
  8
0
 10
-216.271
 20
215.392
 11
-216.25
 21
215
  0
LINE
  8
0
 10
-216.25
 20
215
 11
-216.271
 21
214.608
  0
LINE
  8
0
 10
-216.271
 20
214.608
 11
-216.332
 21
214.22
  0
LINE
  8
0
 10
-216.332
 20
214.22
 11
-216.434
 21
213.841
  0
LINE
  8
0
 10
-216.434
 20
213.841
 11
-216.574
 21
213.475
  0
LINE
  8
0
 10
-216.574
 20
213.475
 11
-216.752
 21
213.125
  0
LINE
  8
0
 10
-216.752
 20
213.125
 11
-216.966
 21
212.796
  0
LINE
  8
0
 10
-216.966
 20
212.796
 11
-217.213
 21
212.491
  0
LINE
  8
0
 10
-217.213
 20
212.491
 11
-217.491
 21
212.213
  0
LINE
  8
0
 10
-217.491
 20
212.213
 11
-217.796
 21
211.966
  0
LINE
  8
0
 10
-217.796
 20
211.966
 11
-218.125
 21
211.752
  0
LINE
  8
0
 10
-218.125
 20
211.752
 11
-218.475
 21
211.574
  0
LINE
  8
0
 10
-218.475
 20
211.574
 11
-218.841
 21
211.434
  0
LINE
  8
0
 10
-218.841
 20
211.434
 11
-219.22
 21
211.332
  0
LINE
  8
0
 10
-219.22
 20
211.332
 11
-219.608
 21
211.271
  0
LINE
  8
0
 10
-219.608
 20
211.271
 11
-220
 21
211.25
  0
LINE
  8
0
 10
-220
 20
211.25
 11
-220.392
 21
211.271
  0
LINE
  8
0
 10
219.608
 20
211.271
 11
219.22
 21
211.332
  0
LINE
  8
0
 10
219.22
 20
211.332
 11
218.841
 21
211.434
  0
LINE
  8
0
 10
218.841
 20
211.434
 11
218.475
 21
211.574
  0
LINE
  8
0
 10
218.475
 20
211.574
 11
218.125
 21
211.752
  0
LINE
  8
0
 10
218.125
 20
211.752
 11
217.796
 21
211.966
  0
LINE
  8
0
 10
217.796
 20
211.966
 11
217.491
 21
212.213
  0
LINE
  8
0
 10
217.491
 20
212.213
 11
217.213
 21
212.491
  0
LINE
  8
0
 10
217.213
 20
212.491
 11
216.966
 21
212.796
  0
LINE
  8
0
 10
216.966
 20
212.796
 11
216.752
 21
213.125
  0
LINE
  8
0
 10
216.752
 20
213.125
 11
216.574
 21
213.475
  0
LINE
  8
0
 10
216.574
 20
213.475
 11
216.434
 21
213.841
  0
LINE
  8
0
 10
216.434
 20
213.841
 11
216.332
 21
214.22
  0
LINE
  8
0
 10
216.332
 20
214.22
 11
216.271
 21
214.608
  0
LINE
  8
0
 10
216.271
 20
214.608
 11
216.25
 21
215
  0
LINE
  8
0
 10
216.25
 20
215
 11
216.271
 21
215.392
  0
LINE
  8
0
 10
216.271
 20
215.392
 11
216.332
 21
215.78
  0
LINE
  8
0
 10
216.332
 20
215.78
 11
216.434
 21
216.159
  0
LINE
  8
0
 10
216.434
 20
216.159
 11
216.574
 21
216.525
  0
LINE
  8
0
 10
216.574
 20
216.525
 11
216.752
 21
216.875
  0
LINE
  8
0
 10
216.752
 20
216.875
 11
216.966
 21
217.204
  0
LINE
  8
0
 10
216.966
 20
217.204
 11
217.213
 21
217.509
  0
LINE
  8
0
 10
217.213
 20
217.509
 11
217.491
 21
217.787
  0
LINE
  8
0
 10
217.491
 20
217.787
 11
217.796
 21
218.034
  0
LINE
  8
0
 10
217.796
 20
218.034
 11
218.125
 21
218.248
  0
LINE
  8
0
 10
218.125
 20
218.248
 11
218.475
 21
218.426
  0
LINE
  8
0
 10
218.475
 20
218.426
 11
218.841
 21
218.566
  0
LINE
  8
0
 10
218.841
 20
218.566
 11
219.22
 21
218.668
  0
LINE
  8
0
 10
219.22
 20
218.668
 11
219.608
 21
218.729
  0
LINE
  8
0
 10
219.608
 20
218.729
 11
220
 21
218.75
  0
LINE
  8
0
 10
220
 20
218.75
 11
220.392
 21
218.729
  0
LINE
  8
0
 10
220.392
 20
218.729
 11
220.78
 21
218.668
  0
LINE
  8
0
 10
220.78
 20
218.668
 11
221.159
 21
218.566
  0
LINE
  8
0
 10
221.159
 20
218.566
 11
221.525
 21
218.426
  0
LINE
  8
0
 10
221.525
 20
218.426
 11
221.875
 21
218.248
  0
LINE
  8
0
 10
221.875
 20
218.248
 11
222.204
 21
218.034
  0
LINE
  8
0
 10
222.204
 20
218.034
 11
222.509
 21
217.787
  0
LINE
  8
0
 10
222.509
 20
217.787
 11
222.787
 21
217.509
  0
LINE
  8
0
 10
222.787
 20
217.509
 11
223.034
 21
217.204
  0
LINE
  8
0
 10
223.034
 20
217.204
 11
223.248
 21
216.875
  0
LINE
  8
0
 10
223.248
 20
216.875
 11
223.426
 21
216.525
  0
LINE
  8
0
 10
223.426
 20
216.525
 11
223.566
 21
216.159
  0
LINE
  8
0
 10
223.566
 20
216.159
 11
223.668
 21
215.78
  0
LINE
  8
0
 10
223.668
 20
215.78
 11
223.729
 21
215.392
  0
LINE
  8
0
 10
223.729
 20
215.392
 11
223.75
 21
215
  0
LINE
  8
0
 10
223.75
 20
215
 11
223.729
 21
214.608
  0
LINE
  8
0
 10
223.729
 20
214.608
 11
223.668
 21
214.22
  0
LINE
  8
0
 10
223.668
 20
214.22
 11
223.566
 21
213.841
  0
LINE
  8
0
 10
223.566
 20
213.841
 11
223.426
 21
213.475
  0
LINE
  8
0
 10
223.426
 20
213.475
 11
223.248
 21
213.125
  0
LINE
  8
0
 10
223.248
 20
213.125
 11
223.034
 21
212.796
  0
LINE
  8
0
 10
223.034
 20
212.796
 11
222.787
 21
212.491
  0
LINE
  8
0
 10
222.787
 20
212.491
 11
222.509
 21
212.213
  0
LINE
  8
0
 10
222.509
 20
212.213
 11
222.204
 21
211.966
  0
LINE
  8
0
 10
222.204
 20
211.966
 11
221.875
 21
211.752
  0
LINE
  8
0
 10
221.875
 20
211.752
 11
221.525
 21
211.574
  0
LINE
  8
0
 10
221.525
 20
211.574
 11
221.159
 21
211.434
  0
LINE
  8
0
 10
221.159
 20
211.434
 11
220.78
 21
211.332
  0
LINE
  8
0
 10
220.78
 20
211.332
 11
220.392
 21
211.271
  0
LINE
  8
0
 10
220.392
 20
211.271
 11
220
 21
211.25
  0
LINE
  8
0
 10
220
 20
211.25
 11
219.608
 21
211.271
  0
LINE
  8
0
 10
88.4412
 20
213.328
 11
88.2011
 21
213.391
  0
LINE
  8
0
 10
88.2011
 20
213.391
 11
87.9727
 21
213.488
  0
LINE
  8
0
 10
87.9727
 20
213.488
 11
87.7608
 21
213.617
  0
LINE
  8
0
 10
87.7608
 20
213.617
 11
87.5701
 21
213.776
  0
LINE
  8
0
 10
87.5701
 20
213.776
 11
87.4044
 21
213.961
  0
LINE
  8
0
 10
87.4044
 20
213.961
 11
87.2675
 21
214.168
  0
LINE
  8
0
 10
87.2675
 20
214.168
 11
87.1622
 21
214.393
  0
LINE
  8
0
 10
87.1622
 20
214.393
 11
87.0907
 21
214.63
  0
LINE
  8
0
 10
87.0907
 20
214.63
 11
87.0545
 21
214.876
  0
LINE
  8
0
 10
87.0545
 20
214.876
 11
87.0545
 21
215.124
  0
LINE
  8
0
 10
87.0545
 20
215.124
 11
87.0907
 21
215.37
  0
LINE
  8
0
 10
87.0907
 20
215.37
 11
87.1622
 21
215.607
  0
LINE
  8
0
 10
87.1622
 20
215.607
 11
87.2675
 21
215.832
  0
LINE
  8
0
 10
87.2675
 20
215.832
 11
87.4044
 21
216.039
  0
LINE
  8
0
 10
87.4044
 20
216.039
 11
87.5701
 21
216.224
  0
LINE
  8
0
 10
87.5701
 20
216.224
 11
87.7608
 21
216.383
  0
LINE
  8
0
 10
87.7608
 20
216.383
 11
87.9727
 21
216.512
  0
LINE
  8
0
 10
87.9727
 20
216.512
 11
88.2011
 21
216.609
  0
LINE
  8
0
 10
88.2011
 20
216.609
 11
88.4412
 21
216.672
  0
LINE
  8
0
 10
88.4412
 20
216.672
 11
88.6879
 21
216.699
  0
LINE
  8
0
 10
88.6879
 20
216.699
 11
88.9359
 21
216.69
  0
LINE
  8
0
 10
88.9359
 20
216.69
 11
89.18
 21
216.645
  0
LINE
  8
0
 10
89.18
 20
216.645
 11
89.4149
 21
216.565
  0
LINE
  8
0
 10
89.4149
 20
216.565
 11
89.6356
 21
216.451
  0
LINE
  8
0
 10
89.6356
 20
216.451
 11
89.8374
 21
216.307
  0
LINE
  8
0
 10
89.8374
 20
216.307
 11
90.0161
 21
216.134
  0
LINE
  8
0
 10
90.0161
 20
216.134
 11
90.1678
 21
215.938
  0
LINE
  8
0
 10
90.1678
 20
215.938
 11
90.2893
 21
215.722
  0
LINE
  8
0
 10
90.2893
 20
215.722
 11
90.3779
 21
215.49
  0
LINE
  8
0
 10
90.3779
 20
215.49
 11
90.4319
 21
215.248
  0
LINE
  8
0
 10
90.4319
 20
215.248
 11
90.45
 21
215
  0
LINE
  8
0
 10
90.45
 20
215
 11
90.4319
 21
214.752
  0
LINE
  8
0
 10
90.4319
 20
214.752
 11
90.3779
 21
214.51
  0
LINE
  8
0
 10
90.3779
 20
214.51
 11
90.2893
 21
214.278
  0
LINE
  8
0
 10
90.2893
 20
214.278
 11
90.1678
 21
214.062
  0
LINE
  8
0
 10
90.1678
 20
214.062
 11
90.0161
 21
213.866
  0
LINE
  8
0
 10
90.0161
 20
213.866
 11
89.8374
 21
213.693
  0
LINE
  8
0
 10
89.8374
 20
213.693
 11
89.6356
 21
213.549
  0
LINE
  8
0
 10
89.6356
 20
213.549
 11
89.4149
 21
213.435
  0
LINE
  8
0
 10
89.4149
 20
213.435
 11
89.18
 21
213.355
  0
LINE
  8
0
 10
89.18
 20
213.355
 11
88.9359
 21
213.31
  0
LINE
  8
0
 10
88.9359
 20
213.31
 11
88.6879
 21
213.301
  0
LINE
  8
0
 10
88.6879
 20
213.301
 11
88.4412
 21
213.328
  0
LINE
  8
0
 10
-89.0588
 20
213.328
 11
-89.2989
 21
213.391
  0
LINE
  8
0
 10
-89.2989
 20
213.391
 11
-89.5273
 21
213.488
  0
LINE
  8
0
 10
-89.5273
 20
213.488
 11
-89.7392
 21
213.617
  0
LINE
  8
0
 10
-89.7392
 20
213.617
 11
-89.9299
 21
213.776
  0
LINE
  8
0
 10
-89.9299
 20
213.776
 11
-90.0955
 21
213.961
  0
LINE
  8
0
 10
-90.0955
 20
213.961
 11
-90.2325
 21
214.168
  0
LINE
  8
0
 10
-90.2325
 20
214.168
 11
-90.3378
 21
214.393
  0
LINE
  8
0
 10
-90.3378
 20
214.393
 11
-90.4093
 21
214.63
  0
LINE
  8
0
 10
-90.4093
 20
214.63
 11
-90.4455
 21
214.876
  0
LINE
  8
0
 10
-90.4455
 20
214.876
 11
-90.4455
 21
215.124
  0
LINE
  8
0
 10
-90.4455
 20
215.124
 11
-90.4093
 21
215.37
  0
LINE
  8
0
 10
-90.4093
 20
215.37
 11
-90.3378
 21
215.607
  0
LINE
  8
0
 10
-90.3378
 20
215.607
 11
-90.2325
 21
215.832
  0
LINE
  8
0
 10
-90.2325
 20
215.832
 11
-90.0955
 21
216.039
  0
LINE
  8
0
 10
-90.0955
 20
216.039
 11
-89.9299
 21
216.224
  0
LINE
  8
0
 10
-89.9299
 20
216.224
 11
-89.7392
 21
216.383
  0
LINE
  8
0
 10
-89.7392
 20
216.383
 11
-89.5273
 21
216.512
  0
LINE
  8
0
 10
-89.5273
 20
216.512
 11
-89.2989
 21
216.609
  0
LINE
  8
0
 10
-89.2989
 20
216.609
 11
-89.0588
 21
216.672
  0
LINE
  8
0
 10
-89.0588
 20
216.672
 11
-88.8121
 21
216.699
  0
LINE
  8
0
 10
-88.8121
 20
216.699
 11
-88.5641
 21
216.69
  0
LINE
  8
0
 10
-88.5641
 20
216.69
 11
-88.32
 21
216.645
  0
LINE
  8
0
 10
-88.32
 20
216.645
 11
-88.0851
 21
216.565
  0
LINE
  8
0
 10
-88.0851
 20
216.565
 11
-87.8644
 21
216.451
  0
LINE
  8
0
 10
-87.8644
 20
216.451
 11
-87.6626
 21
216.307
  0
LINE
  8
0
 10
-87.6626
 20
216.307
 11
-87.4839
 21
216.134
  0
LINE
  8
0
 10
-87.4839
 20
216.134
 11
-87.3322
 21
215.938
  0
LINE
  8
0
 10
-87.3322
 20
215.938
 11
-87.2107
 21
215.722
  0
LINE
  8
0
 10
-87.2107
 20
215.722
 11
-87.1221
 21
215.49
  0
LINE
  8
0
 10
-87.1221
 20
215.49
 11
-87.0681
 21
215.248
  0
LINE
  8
0
 10
-87.0681
 20
215.248
 11
-87.05
 21
215
  0
LINE
  8
0
 10
-87.05
 20
215
 11
-87.0681
 21
214.752
  0
LINE
  8
0
 10
-87.0681
 20
214.752
 11
-87.1221
 21
214.51
  0
LINE
  8
0
 10
-87.1221
 20
214.51
 11
-87.2107
 21
214.278
  0
LINE
  8
0
 10
-87.2107
 20
214.278
 11
-87.3322
 21
214.062
  0
LINE
  8
0
 10
-87.3322
 20
214.062
 11
-87.4839
 21
213.866
  0
LINE
  8
0
 10
-87.4839
 20
213.866
 11
-87.6626
 21
213.693
  0
LINE
  8
0
 10
-87.6626
 20
213.693
 11
-87.8644
 21
213.549
  0
LINE
  8
0
 10
-87.8644
 20
213.549
 11
-88.0851
 21
213.435
  0
LINE
  8
0
 10
-88.0851
 20
213.435
 11
-88.32
 21
213.355
  0
LINE
  8
0
 10
-88.32
 20
213.355
 11
-88.5641
 21
213.31
  0
LINE
  8
0
 10
-88.5641
 20
213.31
 11
-88.8121
 21
213.301
  0
LINE
  8
0
 10
-88.8121
 20
213.301
 11
-89.0588
 21
213.328
  0
LINE
  8
0
 10
-0.308777
 20
213.328
 11
-0.548889
 21
213.391
  0
LINE
  8
0
 10
-0.548889
 20
213.391
 11
-0.777298
 21
213.488
  0
LINE
  8
0
 10
-0.777298
 20
213.488
 11
-0.989151
 21
213.617
  0
LINE
  8
0
 10
-0.989151
 20
213.617
 11
-1.17992
 21
213.776
  0
LINE
  8
0
 10
-1.17992
 20
213.776
 11
-1.34554
 21
213.961
  0
LINE
  8
0
 10
-1.34554
 20
213.961
 11
-1.48248
 21
214.168
  0
LINE
  8
0
 10
-1.48248
 20
214.168
 11
-1.58781
 21
214.393
  0
LINE
  8
0
 10
-1.58781
 20
214.393
 11
-1.65932
 21
214.63
  0
LINE
  8
0
 10
-1.65932
 20
214.63
 11
-1.69545
 21
214.876
  0
LINE
  8
0
 10
-1.69545
 20
214.876
 11
-1.69545
 21
215.124
  0
LINE
  8
0
 10
-1.69545
 20
215.124
 11
-1.65932
 21
215.37
  0
LINE
  8
0
 10
-1.65932
 20
215.37
 11
-1.58781
 21
215.607
  0
LINE
  8
0
 10
-1.58781
 20
215.607
 11
-1.48248
 21
215.832
  0
LINE
  8
0
 10
-1.48248
 20
215.832
 11
-1.34554
 21
216.039
  0
LINE
  8
0
 10
-1.34554
 20
216.039
 11
-1.17992
 21
216.224
  0
LINE
  8
0
 10
-1.17992
 20
216.224
 11
-0.989151
 21
216.383
  0
LINE
  8
0
 10
-0.989151
 20
216.383
 11
-0.777298
 21
216.512
  0
LINE
  8
0
 10
-0.777298
 20
216.512
 11
-0.548889
 21
216.609
  0
LINE
  8
0
 10
-0.548889
 20
216.609
 11
-0.308777
 21
216.672
  0
LINE
  8
0
 10
-0.308777
 20
216.672
 11
-0.0620728
 21
216.699
  0
LINE
  8
0
 10
-0.0620728
 20
216.699
 11
0.185928
 21
216.69
  0
LINE
  8
0
 10
0.185928
 20
216.69
 11
0.429977
 21
216.645
  0
LINE
  8
0
 10
0.429977
 20
216.645
 11
0.664871
 21
216.565
  0
LINE
  8
0
 10
0.664871
 20
216.565
 11
0.88559
 21
216.451
  0
LINE
  8
0
 10
0.88559
 20
216.451
 11
1.08743
 21
216.307
  0
LINE
  8
0
 10
1.08743
 20
216.307
 11
1.2661
 21
216.134
  0
LINE
  8
0
 10
1.2661
 20
216.134
 11
1.41779
 21
215.938
  0
LINE
  8
0
 10
1.41779
 20
215.938
 11
1.53926
 21
215.722
  0
LINE
  8
0
 10
1.53926
 20
215.722
 11
1.62791
 21
215.49
  0
LINE
  8
0
 10
1.62791
 20
215.49
 11
1.68187
 21
215.248
  0
LINE
  8
0
 10
1.68187
 20
215.248
 11
1.7
 21
215
  0
LINE
  8
0
 10
1.7
 20
215
 11
1.68187
 21
214.752
  0
LINE
  8
0
 10
1.68187
 20
214.752
 11
1.62791
 21
214.51
  0
LINE
  8
0
 10
1.62791
 20
214.51
 11
1.53926
 21
214.278
  0
LINE
  8
0
 10
1.53926
 20
214.278
 11
1.41779
 21
214.062
  0
LINE
  8
0
 10
1.41779
 20
214.062
 11
1.2661
 21
213.866
  0
LINE
  8
0
 10
1.2661
 20
213.866
 11
1.08743
 21
213.693
  0
LINE
  8
0
 10
1.08743
 20
213.693
 11
0.88559
 21
213.549
  0
LINE
  8
0
 10
0.88559
 20
213.549
 11
0.664871
 21
213.435
  0
LINE
  8
0
 10
0.664871
 20
213.435
 11
0.429977
 21
213.355
  0
LINE
  8
0
 10
0.429977
 20
213.355
 11
0.185928
 21
213.31
  0
LINE
  8
0
 10
0.185928
 20
213.31
 11
-0.0620728
 21
213.301
  0
LINE
  8
0
 10
-0.0620728
 20
213.301
 11
-0.308777
 21
213.328
  0
LINE
  8
0
 10
-177.809
 20
213.328
 11
-178.049
 21
213.391
  0
LINE
  8
0
 10
-178.049
 20
213.391
 11
-178.277
 21
213.488
  0
LINE
  8
0
 10
-178.277
 20
213.488
 11
-178.489
 21
213.617
  0
LINE
  8
0
 10
-178.489
 20
213.617
 11
-178.68
 21
213.776
  0
LINE
  8
0
 10
-178.68
 20
213.776
 11
-178.846
 21
213.961
  0
LINE
  8
0
 10
-178.846
 20
213.961
 11
-178.982
 21
214.168
  0
LINE
  8
0
 10
-178.982
 20
214.168
 11
-179.088
 21
214.393
  0
LINE
  8
0
 10
-179.088
 20
214.393
 11
-179.159
 21
214.63
  0
LINE
  8
0
 10
-179.159
 20
214.63
 11
-179.195
 21
214.876
  0
LINE
  8
0
 10
-179.195
 20
214.876
 11
-179.195
 21
215.124
  0
LINE
  8
0
 10
-179.195
 20
215.124
 11
-179.159
 21
215.37
  0
LINE
  8
0
 10
-179.159
 20
215.37
 11
-179.088
 21
215.607
  0
LINE
  8
0
 10
-179.088
 20
215.607
 11
-178.982
 21
215.832
  0
LINE
  8
0
 10
-178.982
 20
215.832
 11
-178.846
 21
216.039
  0
LINE
  8
0
 10
-178.846
 20
216.039
 11
-178.68
 21
216.224
  0
LINE
  8
0
 10
-178.68
 20
216.224
 11
-178.489
 21
216.383
  0
LINE
  8
0
 10
-178.489
 20
216.383
 11
-178.277
 21
216.512
  0
LINE
  8
0
 10
-178.277
 20
216.512
 11
-178.049
 21
216.609
  0
LINE
  8
0
 10
-178.049
 20
216.609
 11
-177.809
 21
216.672
  0
LINE
  8
0
 10
-177.809
 20
216.672
 11
-177.562
 21
216.699
  0
LINE
  8
0
 10
-177.562
 20
216.699
 11
-177.314
 21
216.69
  0
LINE
  8
0
 10
-177.314
 20
216.69
 11
-177.07
 21
216.645
  0
LINE
  8
0
 10
-177.07
 20
216.645
 11
-176.835
 21
216.565
  0
LINE
  8
0
 10
-176.835
 20
216.565
 11
-176.614
 21
216.451
  0
LINE
  8
0
 10
-176.614
 20
216.451
 11
-176.413
 21
216.307
  0
LINE
  8
0
 10
-176.413
 20
216.307
 11
-176.234
 21
216.134
  0
LINE
  8
0
 10
-176.234
 20
216.134
 11
-176.082
 21
215.938
  0
LINE
  8
0
 10
-176.082
 20
215.938
 11
-175.961
 21
215.722
  0
LINE
  8
0
 10
-175.961
 20
215.722
 11
-175.872
 21
215.49
  0
LINE
  8
0
 10
-175.872
 20
215.49
 11
-175.818
 21
215.248
  0
LINE
  8
0
 10
-175.818
 20
215.248
 11
-175.8
 21
215
  0
LINE
  8
0
 10
-175.8
 20
215
 11
-175.818
 21
214.752
  0
LINE
  8
0
 10
-175.818
 20
214.752
 11
-175.872
 21
214.51
  0
LINE
  8
0
 10
-175.872
 20
214.51
 11
-175.961
 21
214.278
  0
LINE
  8
0
 10
-175.961
 20
214.278
 11
-176.082
 21
214.062
  0
LINE
  8
0
 10
-176.082
 20
214.062
 11
-176.234
 21
213.866
  0
LINE
  8
0
 10
-176.234
 20
213.866
 11
-176.413
 21
213.693
  0
LINE
  8
0
 10
-176.413
 20
213.693
 11
-176.614
 21
213.549
  0
LINE
  8
0
 10
-176.614
 20
213.549
 11
-176.835
 21
213.435
  0
LINE
  8
0
 10
-176.835
 20
213.435
 11
-177.07
 21
213.355
  0
LINE
  8
0
 10
-177.07
 20
213.355
 11
-177.314
 21
213.31
  0
LINE
  8
0
 10
-177.314
 20
213.31
 11
-177.562
 21
213.301
  0
LINE
  8
0
 10
-177.562
 20
213.301
 11
-177.809
 21
213.328
  0
LINE
  8
0
 10
177.191
 20
213.328
 11
176.951
 21
213.391
  0
LINE
  8
0
 10
176.951
 20
213.391
 11
176.723
 21
213.488
  0
LINE
  8
0
 10
176.723
 20
213.488
 11
176.511
 21
213.617
  0
LINE
  8
0
 10
176.511
 20
213.617
 11
176.32
 21
213.776
  0
LINE
  8
0
 10
176.32
 20
213.776
 11
176.154
 21
213.961
  0
LINE
  8
0
 10
176.154
 20
213.961
 11
176.018
 21
214.168
  0
LINE
  8
0
 10
176.018
 20
214.168
 11
175.912
 21
214.393
  0
LINE
  8
0
 10
175.912
 20
214.393
 11
175.841
 21
214.63
  0
LINE
  8
0
 10
175.841
 20
214.63
 11
175.805
 21
214.876
  0
LINE
  8
0
 10
175.805
 20
214.876
 11
175.805
 21
215.124
  0
LINE
  8
0
 10
175.805
 20
215.124
 11
175.841
 21
215.37
  0
LINE
  8
0
 10
175.841
 20
215.37
 11
175.912
 21
215.607
  0
LINE
  8
0
 10
175.912
 20
215.607
 11
176.018
 21
215.832
  0
LINE
  8
0
 10
176.018
 20
215.832
 11
176.154
 21
216.039
  0
LINE
  8
0
 10
176.154
 20
216.039
 11
176.32
 21
216.224
  0
LINE
  8
0
 10
176.32
 20
216.224
 11
176.511
 21
216.383
  0
LINE
  8
0
 10
176.511
 20
216.383
 11
176.723
 21
216.512
  0
LINE
  8
0
 10
176.723
 20
216.512
 11
176.951
 21
216.609
  0
LINE
  8
0
 10
176.951
 20
216.609
 11
177.191
 21
216.672
  0
LINE
  8
0
 10
177.191
 20
216.672
 11
177.438
 21
216.699
  0
LINE
  8
0
 10
177.438
 20
216.699
 11
177.686
 21
216.69
  0
LINE
  8
0
 10
177.686
 20
216.69
 11
177.93
 21
216.645
  0
LINE
  8
0
 10
177.93
 20
216.645
 11
178.165
 21
216.565
  0
LINE
  8
0
 10
178.165
 20
216.565
 11
178.386
 21
216.451
  0
LINE
  8
0
 10
178.386
 20
216.451
 11
178.587
 21
216.307
  0
LINE
  8
0
 10
178.587
 20
216.307
 11
178.766
 21
216.134
  0
LINE
  8
0
 10
178.766
 20
216.134
 11
178.918
 21
215.938
  0
LINE
  8
0
 10
178.918
 20
215.938
 11
179.039
 21
215.722
  0
LINE
  8
0
 10
179.039
 20
215.722
 11
179.128
 21
215.49
  0
LINE
  8
0
 10
179.128
 20
215.49
 11
179.182
 21
215.248
  0
LINE
  8
0
 10
179.182
 20
215.248
 11
179.2
 21
215
  0
LINE
  8
0
 10
179.2
 20
215
 11
179.182
 21
214.752
  0
LINE
  8
0
 10
179.182
 20
214.752
 11
179.128
 21
214.51
  0
LINE
  8
0
 10
179.128
 20
214.51
 11
179.039
 21
214.278
  0
LINE
  8
0
 10
179.039
 20
214.278
 11
178.918
 21
214.062
  0
LINE
  8
0
 10
178.918
 20
214.062
 11
178.766
 21
213.866
  0
LINE
  8
0
 10
178.766
 20
213.866
 11
178.587
 21
213.693
  0
LINE
  8
0
 10
178.587
 20
213.693
 11
178.386
 21
213.549
  0
LINE
  8
0
 10
178.386
 20
213.549
 11
178.165
 21
213.435
  0
LINE
  8
0
 10
178.165
 20
213.435
 11
177.93
 21
213.355
  0
LINE
  8
0
 10
177.93
 20
213.355
 11
177.686
 21
213.31
  0
LINE
  8
0
 10
177.686
 20
213.31
 11
177.438
 21
213.301
  0
LINE
  8
0
 10
177.438
 20
213.301
 11
177.191
 21
213.328
  0
LINE
  8
0
 10
219.691
 20
170.828
 11
219.451
 21
170.891
  0
LINE
  8
0
 10
219.451
 20
170.891
 11
219.223
 21
170.988
  0
LINE
  8
0
 10
219.223
 20
170.988
 11
219.011
 21
171.117
  0
LINE
  8
0
 10
219.011
 20
171.117
 11
218.82
 21
171.276
  0
LINE
  8
0
 10
218.82
 20
171.276
 11
218.654
 21
171.461
  0
LINE
  8
0
 10
218.654
 20
171.461
 11
218.518
 21
171.668
  0
LINE
  8
0
 10
218.518
 20
171.668
 11
218.412
 21
171.893
  0
LINE
  8
0
 10
218.412
 20
171.893
 11
218.341
 21
172.13
  0
LINE
  8
0
 10
218.341
 20
172.13
 11
218.305
 21
172.376
  0
LINE
  8
0
 10
218.305
 20
172.376
 11
218.305
 21
172.624
  0
LINE
  8
0
 10
218.305
 20
172.624
 11
218.341
 21
172.87
  0
LINE
  8
0
 10
218.341
 20
172.87
 11
218.412
 21
173.107
  0
LINE
  8
0
 10
218.412
 20
173.107
 11
218.518
 21
173.332
  0
LINE
  8
0
 10
218.518
 20
173.332
 11
218.654
 21
173.539
  0
LINE
  8
0
 10
218.654
 20
173.539
 11
218.82
 21
173.724
  0
LINE
  8
0
 10
218.82
 20
173.724
 11
219.011
 21
173.883
  0
LINE
  8
0
 10
219.011
 20
173.883
 11
219.223
 21
174.012
  0
LINE
  8
0
 10
219.223
 20
174.012
 11
219.451
 21
174.109
  0
LINE
  8
0
 10
219.451
 20
174.109
 11
219.691
 21
174.172
  0
LINE
  8
0
 10
219.691
 20
174.172
 11
219.938
 21
174.199
  0
LINE
  8
0
 10
219.938
 20
174.199
 11
220.186
 21
174.19
  0
LINE
  8
0
 10
220.186
 20
174.19
 11
220.43
 21
174.145
  0
LINE
  8
0
 10
220.43
 20
174.145
 11
220.665
 21
174.065
  0
LINE
  8
0
 10
220.665
 20
174.065
 11
220.886
 21
173.951
  0
LINE
  8
0
 10
220.886
 20
173.951
 11
221.087
 21
173.807
  0
LINE
  8
0
 10
221.087
 20
173.807
 11
221.266
 21
173.634
  0
LINE
  8
0
 10
221.266
 20
173.634
 11
221.418
 21
173.438
  0
LINE
  8
0
 10
221.418
 20
173.438
 11
221.539
 21
173.222
  0
LINE
  8
0
 10
221.539
 20
173.222
 11
221.628
 21
172.99
  0
LINE
  8
0
 10
221.628
 20
172.99
 11
221.682
 21
172.748
  0
LINE
  8
0
 10
221.682
 20
172.748
 11
221.7
 21
172.5
  0
LINE
  8
0
 10
221.7
 20
172.5
 11
221.682
 21
172.252
  0
LINE
  8
0
 10
221.682
 20
172.252
 11
221.628
 21
172.01
  0
LINE
  8
0
 10
221.628
 20
172.01
 11
221.539
 21
171.778
  0
LINE
  8
0
 10
221.539
 20
171.778
 11
221.418
 21
171.562
  0
LINE
  8
0
 10
221.418
 20
171.562
 11
221.266
 21
171.366
  0
LINE
  8
0
 10
221.266
 20
171.366
 11
221.087
 21
171.193
  0
LINE
  8
0
 10
221.087
 20
171.193
 11
220.886
 21
171.049
  0
LINE
  8
0
 10
220.886
 20
171.049
 11
220.665
 21
170.935
  0
LINE
  8
0
 10
220.665
 20
170.935
 11
220.43
 21
170.855
  0
LINE
  8
0
 10
220.43
 20
170.855
 11
220.186
 21
170.81
  0
LINE
  8
0
 10
220.186
 20
170.81
 11
219.938
 21
170.801
  0
LINE
  8
0
 10
219.938
 20
170.801
 11
219.691
 21
170.828
  0
LINE
  8
0
 10
-220.186
 20
170.81
 11
-220.43
 21
170.855
  0
LINE
  8
0
 10
-220.43
 20
170.855
 11
-220.665
 21
170.935
  0
LINE
  8
0
 10
-220.665
 20
170.935
 11
-220.886
 21
171.049
  0
LINE
  8
0
 10
-220.886
 20
171.049
 11
-221.087
 21
171.193
  0
LINE
  8
0
 10
-221.087
 20
171.193
 11
-221.266
 21
171.366
  0
LINE
  8
0
 10
-221.266
 20
171.366
 11
-221.418
 21
171.562
  0
LINE
  8
0
 10
-221.418
 20
171.562
 11
-221.539
 21
171.778
  0
LINE
  8
0
 10
-221.539
 20
171.778
 11
-221.628
 21
172.01
  0
LINE
  8
0
 10
-221.628
 20
172.01
 11
-221.682
 21
172.252
  0
LINE
  8
0
 10
-221.682
 20
172.252
 11
-221.7
 21
172.5
  0
LINE
  8
0
 10
-221.7
 20
172.5
 11
-221.682
 21
172.748
  0
LINE
  8
0
 10
-221.682
 20
172.748
 11
-221.628
 21
172.99
  0
LINE
  8
0
 10
-221.628
 20
172.99
 11
-221.539
 21
173.222
  0
LINE
  8
0
 10
-221.539
 20
173.222
 11
-221.418
 21
173.438
  0
LINE
  8
0
 10
-221.418
 20
173.438
 11
-221.266
 21
173.634
  0
LINE
  8
0
 10
-221.266
 20
173.634
 11
-221.087
 21
173.807
  0
LINE
  8
0
 10
-221.087
 20
173.807
 11
-220.886
 21
173.951
  0
LINE
  8
0
 10
-220.886
 20
173.951
 11
-220.665
 21
174.065
  0
LINE
  8
0
 10
-220.665
 20
174.065
 11
-220.43
 21
174.145
  0
LINE
  8
0
 10
-220.43
 20
174.145
 11
-220.186
 21
174.19
  0
LINE
  8
0
 10
-220.186
 20
174.19
 11
-219.938
 21
174.199
  0
LINE
  8
0
 10
-219.938
 20
174.199
 11
-219.691
 21
174.172
  0
LINE
  8
0
 10
-219.691
 20
174.172
 11
-219.451
 21
174.109
  0
LINE
  8
0
 10
-219.451
 20
174.109
 11
-219.223
 21
174.012
  0
LINE
  8
0
 10
-219.223
 20
174.012
 11
-219.011
 21
173.883
  0
LINE
  8
0
 10
-219.011
 20
173.883
 11
-218.82
 21
173.724
  0
LINE
  8
0
 10
-218.82
 20
173.724
 11
-218.654
 21
173.539
  0
LINE
  8
0
 10
-218.654
 20
173.539
 11
-218.518
 21
173.332
  0
LINE
  8
0
 10
-218.518
 20
173.332
 11
-218.412
 21
173.107
  0
LINE
  8
0
 10
-218.412
 20
173.107
 11
-218.341
 21
172.87
  0
LINE
  8
0
 10
-218.341
 20
172.87
 11
-218.305
 21
172.624
  0
LINE
  8
0
 10
-218.305
 20
172.624
 11
-218.305
 21
172.376
  0
LINE
  8
0
 10
-218.305
 20
172.376
 11
-218.341
 21
172.13
  0
LINE
  8
0
 10
-218.341
 20
172.13
 11
-218.412
 21
171.893
  0
LINE
  8
0
 10
-218.412
 20
171.893
 11
-218.518
 21
171.668
  0
LINE
  8
0
 10
-218.518
 20
171.668
 11
-218.654
 21
171.461
  0
LINE
  8
0
 10
-218.654
 20
171.461
 11
-218.82
 21
171.276
  0
LINE
  8
0
 10
-218.82
 20
171.276
 11
-219.011
 21
171.117
  0
LINE
  8
0
 10
-219.011
 20
171.117
 11
-219.223
 21
170.988
  0
LINE
  8
0
 10
-219.223
 20
170.988
 11
-219.451
 21
170.891
  0
LINE
  8
0
 10
-219.451
 20
170.891
 11
-219.691
 21
170.828
  0
LINE
  8
0
 10
-219.691
 20
170.828
 11
-219.938
 21
170.801
  0
LINE
  8
0
 10
-219.938
 20
170.801
 11
-220.186
 21
170.81
  0
LINE
  8
0
 10
89.6864
 20
117.016
 11
89.3763
 21
117.066
  0
LINE
  8
0
 10
89.3763
 20
117.066
 11
89.073
 21
117.147
  0
LINE
  8
0
 10
89.073
 20
117.147
 11
88.7798
 21
117.259
  0
LINE
  8
0
 10
88.7798
 20
117.259
 11
88.5
 21
117.402
  0
LINE
  8
0
 10
88.5
 20
117.402
 11
88.2366
 21
117.573
  0
LINE
  8
0
 10
88.2366
 20
117.573
 11
87.9926
 21
117.771
  0
LINE
  8
0
 10
87.9926
 20
117.771
 11
87.7706
 21
117.993
  0
LINE
  8
0
 10
87.7706
 20
117.993
 11
87.573
 21
118.237
  0
LINE
  8
0
 10
87.573
 20
118.237
 11
87.4019
 21
118.5
  0
LINE
  8
0
 10
87.4019
 20
118.5
 11
87.2594
 21
118.78
  0
LINE
  8
0
 10
87.2594
 20
118.78
 11
87.1468
 21
119.073
  0
LINE
  8
0
 10
87.1468
 20
119.073
 11
87.0656
 21
119.376
  0
LINE
  8
0
 10
87.0656
 20
119.376
 11
87.0164
 21
119.686
  0
LINE
  8
0
 10
87.0164
 20
119.686
 11
87
 21
120
  0
LINE
  8
0
 10
87
 20
120
 11
87.0164
 21
120.314
  0
LINE
  8
0
 10
87.0164
 20
120.314
 11
87.0656
 21
120.624
  0
LINE
  8
0
 10
87.0656
 20
120.624
 11
87.1468
 21
120.927
  0
LINE
  8
0
 10
87.1468
 20
120.927
 11
87.2594
 21
121.22
  0
LINE
  8
0
 10
87.2594
 20
121.22
 11
87.4019
 21
121.5
  0
LINE
  8
0
 10
87.4019
 20
121.5
 11
87.573
 21
121.763
  0
LINE
  8
0
 10
87.573
 20
121.763
 11
87.7706
 21
122.007
  0
LINE
  8
0
 10
87.7706
 20
122.007
 11
87.9926
 21
122.229
  0
LINE
  8
0
 10
87.9926
 20
122.229
 11
88.2366
 21
122.427
  0
LINE
  8
0
 10
88.2366
 20
122.427
 11
88.5
 21
122.598
  0
LINE
  8
0
 10
88.5
 20
122.598
 11
88.7798
 21
122.741
  0
LINE
  8
0
 10
88.7798
 20
122.741
 11
89.073
 21
122.853
  0
LINE
  8
0
 10
89.073
 20
122.853
 11
89.3763
 21
122.934
  0
LINE
  8
0
 10
89.3763
 20
122.934
 11
89.6864
 21
122.984
  0
LINE
  8
0
 10
89.6864
 20
122.984
 11
90
 21
123
  0
LINE
  8
0
 10
90
 20
123
 11
90.3136
 21
122.984
  0
LINE
  8
0
 10
90.3136
 20
122.984
 11
90.6237
 21
122.934
  0
LINE
  8
0
 10
90.6237
 20
122.934
 11
90.927
 21
122.853
  0
LINE
  8
0
 10
90.927
 20
122.853
 11
91.2202
 21
122.741
  0
LINE
  8
0
 10
91.2202
 20
122.741
 11
91.5
 21
122.598
  0
LINE
  8
0
 10
91.5
 20
122.598
 11
91.7634
 21
122.427
  0
LINE
  8
0
 10
91.7634
 20
122.427
 11
92.0074
 21
122.229
  0
LINE
  8
0
 10
92.0074
 20
122.229
 11
92.2294
 21
122.007
  0
LINE
  8
0
 10
92.2294
 20
122.007
 11
92.427
 21
121.763
  0
LINE
  8
0
 10
92.427
 20
121.763
 11
92.5981
 21
121.5
  0
LINE
  8
0
 10
92.5981
 20
121.5
 11
92.7406
 21
121.22
  0
LINE
  8
0
 10
92.7406
 20
121.22
 11
92.8532
 21
120.927
  0
LINE
  8
0
 10
92.8532
 20
120.927
 11
92.9344
 21
120.624
  0
LINE
  8
0
 10
92.9344
 20
120.624
 11
92.9836
 21
120.314
  0
LINE
  8
0
 10
92.9836
 20
120.314
 11
93
 21
120
  0
LINE
  8
0
 10
93
 20
120
 11
92.9836
 21
119.686
  0
LINE
  8
0
 10
92.9836
 20
119.686
 11
92.9344
 21
119.376
  0
LINE
  8
0
 10
92.9344
 20
119.376
 11
92.8532
 21
119.073
  0
LINE
  8
0
 10
92.8532
 20
119.073
 11
92.7406
 21
118.78
  0
LINE
  8
0
 10
92.7406
 20
118.78
 11
92.5981
 21
118.5
  0
LINE
  8
0
 10
92.5981
 20
118.5
 11
92.427
 21
118.237
  0
LINE
  8
0
 10
92.427
 20
118.237
 11
92.2294
 21
117.993
  0
LINE
  8
0
 10
92.2294
 20
117.993
 11
92.0074
 21
117.771
  0
LINE
  8
0
 10
92.0074
 20
117.771
 11
91.7634
 21
117.573
  0
LINE
  8
0
 10
91.7634
 20
117.573
 11
91.5
 21
117.402
  0
LINE
  8
0
 10
91.5
 20
117.402
 11
91.2202
 21
117.259
  0
LINE
  8
0
 10
91.2202
 20
117.259
 11
90.927
 21
117.147
  0
LINE
  8
0
 10
90.927
 20
117.147
 11
90.6237
 21
117.066
  0
LINE
  8
0
 10
90.6237
 20
117.066
 11
90.3136
 21
117.016
  0
LINE
  8
0
 10
90.3136
 20
117.016
 11
90
 21
117
  0
LINE
  8
0
 10
90
 20
117
 11
89.6864
 21
117.016
  0
LINE
  8
0
 10
-85.3589
 20
88.5712
 11
-86.7029
 21
88.7841
  0
LINE
  8
0
 10
-86.7029
 20
88.7841
 11
-88.0172
 21
89.1363
  0
LINE
  8
0
 10
-88.0172
 20
89.1363
 11
-89.2876
 21
89.6239
  0
LINE
  8
0
 10
-89.2876
 20
89.6239
 11
-90.5
 21
90.2417
  0
LINE
  8
0
 10
-90.5
 20
90.2417
 11
-91.6412
 21
90.9828
  0
LINE
  8
0
 10
-91.6412
 20
90.9828
 11
-92.6987
 21
91.8391
  0
LINE
  8
0
 10
-92.6987
 20
91.8391
 11
-93.6609
 21
92.8013
  0
LINE
  8
0
 10
-93.6609
 20
92.8013
 11
-94.5172
 21
93.8588
  0
LINE
  8
0
 10
-94.5172
 20
93.8588
 11
-95.2583
 21
95
  0
LINE
  8
0
 10
-95.2583
 20
95
 11
-95.8761
 21
96.2124
  0
LINE
  8
0
 10
-95.8761
 20
96.2124
 11
-96.3637
 21
97.4828
  0
LINE
  8
0
 10
-96.3637
 20
97.4828
 11
-96.7159
 21
98.7971
  0
LINE
  8
0
 10
-96.7159
 20
98.7971
 11
-96.9288
 21
100.141
  0
LINE
  8
0
 10
-96.9288
 20
100.141
 11
-97
 21
101.5
  0
LINE
  8
0
 10
-97
 20
101.5
 11
-96.9288
 21
102.859
  0
LINE
  8
0
 10
-96.9288
 20
102.859
 11
-96.7159
 21
104.203
  0
LINE
  8
0
 10
-96.7159
 20
104.203
 11
-96.3637
 21
105.517
  0
LINE
  8
0
 10
-96.3637
 20
105.517
 11
-95.8761
 21
106.788
  0
LINE
  8
0
 10
-95.8761
 20
106.788
 11
-95.2583
 21
108
  0
LINE
  8
0
 10
-95.2583
 20
108
 11
-94.5172
 21
109.141
  0
LINE
  8
0
 10
-94.5172
 20
109.141
 11
-93.6609
 21
110.199
  0
LINE
  8
0
 10
-93.6609
 20
110.199
 11
-92.6987
 21
111.161
  0
LINE
  8
0
 10
-92.6987
 20
111.161
 11
-91.6412
 21
112.017
  0
LINE
  8
0
 10
-91.6412
 20
112.017
 11
-90.5
 21
112.758
  0
LINE
  8
0
 10
-90.5
 20
112.758
 11
-89.2876
 21
113.376
  0
LINE
  8
0
 10
-89.2876
 20
113.376
 11
-88.0172
 21
113.864
  0
LINE
  8
0
 10
-88.0172
 20
113.864
 11
-86.7029
 21
114.216
  0
LINE
  8
0
 10
-86.7029
 20
114.216
 11
-85.3589
 21
114.429
  0
LINE
  8
0
 10
-85.3589
 20
114.429
 11
-84
 21
114.5
  0
LINE
  8
0
 10
-84
 20
114.5
 11
-82.6411
 21
114.429
  0
LINE
  8
0
 10
-82.6411
 20
114.429
 11
-81.2971
 21
114.216
  0
LINE
  8
0
 10
-81.2971
 20
114.216
 11
-79.9828
 21
113.864
  0
LINE
  8
0
 10
-79.9828
 20
113.864
 11
-78.7124
 21
113.376
  0
LINE
  8
0
 10
-78.7124
 20
113.376
 11
-77.5
 21
112.758
  0
LINE
  8
0
 10
-77.5
 20
112.758
 11
-76.3588
 21
112.017
  0
LINE
  8
0
 10
-76.3588
 20
112.017
 11
-75.3013
 21
111.161
  0
LINE
  8
0
 10
-75.3013
 20
111.161
 11
-74.3391
 21
110.199
  0
LINE
  8
0
 10
-74.3391
 20
110.199
 11
-73.4828
 21
109.141
  0
LINE
  8
0
 10
-73.4828
 20
109.141
 11
-72.7417
 21
108
  0
LINE
  8
0
 10
-72.7417
 20
108
 11
-72.1239
 21
106.788
  0
LINE
  8
0
 10
-72.1239
 20
106.788
 11
-71.6363
 21
105.517
  0
LINE
  8
0
 10
-71.6363
 20
105.517
 11
-71.2841
 21
104.203
  0
LINE
  8
0
 10
-71.2841
 20
104.203
 11
-71.0712
 21
102.859
  0
LINE
  8
0
 10
-71.0712
 20
102.859
 11
-71
 21
101.5
  0
LINE
  8
0
 10
-71
 20
101.5
 11
-71.0712
 21
100.141
  0
LINE
  8
0
 10
-71.0712
 20
100.141
 11
-71.2841
 21
98.7971
  0
LINE
  8
0
 10
-71.2841
 20
98.7971
 11
-71.6363
 21
97.4828
  0
LINE
  8
0
 10
-71.6363
 20
97.4828
 11
-72.1239
 21
96.2124
  0
LINE
  8
0
 10
-72.1239
 20
96.2124
 11
-72.7417
 21
95
  0
LINE
  8
0
 10
-72.7417
 20
95
 11
-73.4828
 21
93.8588
  0
LINE
  8
0
 10
-73.4828
 20
93.8588
 11
-74.3391
 21
92.8013
  0
LINE
  8
0
 10
-74.3391
 20
92.8013
 11
-75.3013
 21
91.8391
  0
LINE
  8
0
 10
-75.3013
 20
91.8391
 11
-76.3588
 21
90.9828
  0
LINE
  8
0
 10
-76.3588
 20
90.9828
 11
-77.5
 21
90.2417
  0
LINE
  8
0
 10
-77.5
 20
90.2417
 11
-78.7124
 21
89.6239
  0
LINE
  8
0
 10
-78.7124
 20
89.6239
 11
-79.9828
 21
89.1363
  0
LINE
  8
0
 10
-79.9828
 20
89.1363
 11
-81.2971
 21
88.7841
  0
LINE
  8
0
 10
-81.2971
 20
88.7841
 11
-82.6411
 21
88.5712
  0
LINE
  8
0
 10
-82.6411
 20
88.5712
 11
-84
 21
88.5
  0
LINE
  8
0
 10
-84
 20
88.5
 11
-85.3589
 21
88.5712
  0
LINE
  8
0
 10
-160.074
 20
103.455
 11
-160.318
 21
103.496
  0
LINE
  8
0
 10
-160.318
 20
103.496
 11
-160.553
 21
103.576
  0
LINE
  8
0
 10
-160.553
 20
103.576
 11
-160.77
 21
103.694
  0
LINE
  8
0
 10
-160.77
 20
103.694
 11
-160.966
 21
103.846
  0
LINE
  8
0
 10
-160.966
 20
103.846
 11
-161.134
 21
104.029
  0
LINE
  8
0
 10
-161.134
 20
104.029
 11
-161.269
 21
104.236
  0
LINE
  8
0
 10
-161.269
 20
104.236
 11
-161.369
 21
104.463
  0
LINE
  8
0
 10
-161.369
 20
104.463
 11
-161.43
 21
104.703
  0
LINE
  8
0
 10
-161.43
 20
104.703
 11
-161.45
 21
104.95
  0
LINE
  8
0
 10
-161.45
 20
104.95
 11
-161.43
 21
105.197
  0
LINE
  8
0
 10
-161.43
 20
105.197
 11
-161.369
 21
105.437
  0
LINE
  8
0
 10
-161.369
 20
105.437
 11
-161.269
 21
105.664
  0
LINE
  8
0
 10
-161.269
 20
105.664
 11
-161.134
 21
105.871
  0
LINE
  8
0
 10
-161.134
 20
105.871
 11
-160.966
 21
106.054
  0
LINE
  8
0
 10
-160.966
 20
106.054
 11
-160.77
 21
106.206
  0
LINE
  8
0
 10
-160.77
 20
106.206
 11
-160.553
 21
106.324
  0
LINE
  8
0
 10
-160.553
 20
106.324
 11
-160.318
 21
106.404
  0
LINE
  8
0
 10
-160.318
 20
106.404
 11
-160.074
 21
106.445
  0
LINE
  8
0
 10
-160.074
 20
106.445
 11
-159.826
 21
106.445
  0
LINE
  8
0
 10
-159.826
 20
106.445
 11
-159.582
 21
106.404
  0
LINE
  8
0
 10
-159.582
 20
106.404
 11
-159.347
 21
106.324
  0
LINE
  8
0
 10
-159.347
 20
106.324
 11
-159.13
 21
106.206
  0
LINE
  8
0
 10
-159.13
 20
106.206
 11
-158.934
 21
106.054
  0
LINE
  8
0
 10
-158.934
 20
106.054
 11
-158.766
 21
105.871
  0
LINE
  8
0
 10
-158.766
 20
105.871
 11
-158.631
 21
105.664
  0
LINE
  8
0
 10
-158.631
 20
105.664
 11
-158.531
 21
105.437
  0
LINE
  8
0
 10
-158.531
 20
105.437
 11
-158.47
 21
105.197
  0
LINE
  8
0
 10
-158.47
 20
105.197
 11
-158.45
 21
104.95
  0
LINE
  8
0
 10
-158.45
 20
104.95
 11
-158.47
 21
104.703
  0
LINE
  8
0
 10
-158.47
 20
104.703
 11
-158.531
 21
104.463
  0
LINE
  8
0
 10
-158.531
 20
104.463
 11
-158.631
 21
104.236
  0
LINE
  8
0
 10
-158.631
 20
104.236
 11
-158.766
 21
104.029
  0
LINE
  8
0
 10
-158.766
 20
104.029
 11
-158.934
 21
103.846
  0
LINE
  8
0
 10
-158.934
 20
103.846
 11
-159.13
 21
103.694
  0
LINE
  8
0
 10
-159.13
 20
103.694
 11
-159.347
 21
103.576
  0
LINE
  8
0
 10
-159.347
 20
103.576
 11
-159.582
 21
103.496
  0
LINE
  8
0
 10
-159.582
 20
103.496
 11
-159.826
 21
103.455
  0
LINE
  8
0
 10
-159.826
 20
103.455
 11
-160.074
 21
103.455
  0
LINE
  8
0
 10
159.826
 20
103.455
 11
159.582
 21
103.496
  0
LINE
  8
0
 10
159.582
 20
103.496
 11
159.347
 21
103.576
  0
LINE
  8
0
 10
159.347
 20
103.576
 11
159.13
 21
103.694
  0
LINE
  8
0
 10
159.13
 20
103.694
 11
158.934
 21
103.846
  0
LINE
  8
0
 10
158.934
 20
103.846
 11
158.766
 21
104.029
  0
LINE
  8
0
 10
158.766
 20
104.029
 11
158.631
 21
104.236
  0
LINE
  8
0
 10
158.631
 20
104.236
 11
158.531
 21
104.463
  0
LINE
  8
0
 10
158.531
 20
104.463
 11
158.47
 21
104.703
  0
LINE
  8
0
 10
158.47
 20
104.703
 11
158.45
 21
104.95
  0
LINE
  8
0
 10
158.45
 20
104.95
 11
158.47
 21
105.197
  0
LINE
  8
0
 10
158.47
 20
105.197
 11
158.531
 21
105.437
  0
LINE
  8
0
 10
158.531
 20
105.437
 11
158.631
 21
105.664
  0
LINE
  8
0
 10
158.631
 20
105.664
 11
158.766
 21
105.871
  0
LINE
  8
0
 10
158.766
 20
105.871
 11
158.934
 21
106.054
  0
LINE
  8
0
 10
158.934
 20
106.054
 11
159.13
 21
106.206
  0
LINE
  8
0
 10
159.13
 20
106.206
 11
159.347
 21
106.324
  0
LINE
  8
0
 10
159.347
 20
106.324
 11
159.582
 21
106.404
  0
LINE
  8
0
 10
159.582
 20
106.404
 11
159.826
 21
106.445
  0
LINE
  8
0
 10
159.826
 20
106.445
 11
160.074
 21
106.445
  0
LINE
  8
0
 10
160.074
 20
106.445
 11
160.318
 21
106.404
  0
LINE
  8
0
 10
160.318
 20
106.404
 11
160.553
 21
106.324
  0
LINE
  8
0
 10
160.553
 20
106.324
 11
160.77
 21
106.206
  0
LINE
  8
0
 10
160.77
 20
106.206
 11
160.966
 21
106.054
  0
LINE
  8
0
 10
160.966
 20
106.054
 11
161.134
 21
105.871
  0
LINE
  8
0
 10
161.134
 20
105.871
 11
161.269
 21
105.664
  0
LINE
  8
0
 10
161.269
 20
105.664
 11
161.369
 21
105.437
  0
LINE
  8
0
 10
161.369
 20
105.437
 11
161.43
 21
105.197
  0
LINE
  8
0
 10
161.43
 20
105.197
 11
161.45
 21
104.95
  0
LINE
  8
0
 10
161.45
 20
104.95
 11
161.43
 21
104.703
  0
LINE
  8
0
 10
161.43
 20
104.703
 11
161.369
 21
104.463
  0
LINE
  8
0
 10
161.369
 20
104.463
 11
161.269
 21
104.236
  0
LINE
  8
0
 10
161.269
 20
104.236
 11
161.134
 21
104.029
  0
LINE
  8
0
 10
161.134
 20
104.029
 11
160.966
 21
103.846
  0
LINE
  8
0
 10
160.966
 20
103.846
 11
160.77
 21
103.694
  0
LINE
  8
0
 10
160.77
 20
103.694
 11
160.553
 21
103.576
  0
LINE
  8
0
 10
160.553
 20
103.576
 11
160.318
 21
103.496
  0
LINE
  8
0
 10
160.318
 20
103.496
 11
160.074
 21
103.455
  0
LINE
  8
0
 10
160.074
 20
103.455
 11
159.826
 21
103.455
  0
LINE
  8
0
 10
-220.186
 20
84.5602
 11
-220.43
 21
84.6053
  0
LINE
  8
0
 10
-220.43
 20
84.6053
 11
-220.665
 21
84.6854
  0
LINE
  8
0
 10
-220.665
 20
84.6854
 11
-220.886
 21
84.7989
  0
LINE
  8
0
 10
-220.886
 20
84.7989
 11
-221.087
 21
84.9433
  0
LINE
  8
0
 10
-221.087
 20
84.9433
 11
-221.266
 21
85.1156
  0
LINE
  8
0
 10
-221.266
 20
85.1156
 11
-221.418
 21
85.312
  0
LINE
  8
0
 10
-221.418
 20
85.312
 11
-221.539
 21
85.5284
  0
LINE
  8
0
 10
-221.539
 20
85.5284
 11
-221.628
 21
85.7602
  0
LINE
  8
0
 10
-221.628
 20
85.7602
 11
-221.682
 21
86.0025
  0
LINE
  8
0
 10
-221.682
 20
86.0025
 11
-221.7
 21
86.25
  0
LINE
  8
0
 10
-221.7
 20
86.25
 11
-221.682
 21
86.4975
  0
LINE
  8
0
 10
-221.682
 20
86.4975
 11
-221.628
 21
86.7398
  0
LINE
  8
0
 10
-221.628
 20
86.7398
 11
-221.539
 21
86.9716
  0
LINE
  8
0
 10
-221.539
 20
86.9716
 11
-221.418
 21
87.188
  0
LINE
  8
0
 10
-221.418
 20
87.188
 11
-221.266
 21
87.3844
  0
LINE
  8
0
 10
-221.266
 20
87.3844
 11
-221.087
 21
87.5567
  0
LINE
  8
0
 10
-221.087
 20
87.5567
 11
-220.886
 21
87.7011
  0
LINE
  8
0
 10
-220.886
 20
87.7011
 11
-220.665
 21
87.8146
  0
LINE
  8
0
 10
-220.665
 20
87.8146
 11
-220.43
 21
87.8947
  0
LINE
  8
0
 10
-220.43
 20
87.8947
 11
-220.186
 21
87.9398
  0
LINE
  8
0
 10
-220.186
 20
87.9398
 11
-219.938
 21
87.9489
  0
LINE
  8
0
 10
-219.938
 20
87.9489
 11
-219.691
 21
87.9217
  0
LINE
  8
0
 10
-219.691
 20
87.9217
 11
-219.451
 21
87.8589
  0
LINE
  8
0
 10
-219.451
 20
87.8589
 11
-219.223
 21
87.7619
  0
LINE
  8
0
 10
-219.223
 20
87.7619
 11
-219.011
 21
87.6326
  0
LINE
  8
0
 10
-219.011
 20
87.6326
 11
-218.82
 21
87.4738
  0
LINE
  8
0
 10
-218.82
 20
87.4738
 11
-218.654
 21
87.289
  0
LINE
  8
0
 10
-218.654
 20
87.289
 11
-218.518
 21
87.082
  0
LINE
  8
0
 10
-218.518
 20
87.082
 11
-218.412
 21
86.8573
  0
LINE
  8
0
 10
-218.412
 20
86.8573
 11
-218.341
 21
86.6196
  0
LINE
  8
0
 10
-218.341
 20
86.6196
 11
-218.305
 21
86.3741
  0
LINE
  8
0
 10
-218.305
 20
86.3741
 11
-218.305
 21
86.1259
  0
LINE
  8
0
 10
-218.305
 20
86.1259
 11
-218.341
 21
85.8804
  0
LINE
  8
0
 10
-218.341
 20
85.8804
 11
-218.412
 21
85.6427
  0
LINE
  8
0
 10
-218.412
 20
85.6427
 11
-218.518
 21
85.418
  0
LINE
  8
0
 10
-218.518
 20
85.418
 11
-218.654
 21
85.211
  0
LINE
  8
0
 10
-218.654
 20
85.211
 11
-218.82
 21
85.0262
  0
LINE
  8
0
 10
-218.82
 20
85.0262
 11
-219.011
 21
84.8674
  0
LINE
  8
0
 10
-219.011
 20
84.8674
 11
-219.223
 21
84.7381
  0
LINE
  8
0
 10
-219.223
 20
84.7381
 11
-219.451
 21
84.6411
  0
LINE
  8
0
 10
-219.451
 20
84.6411
 11
-219.691
 21
84.5783
  0
LINE
  8
0
 10
-219.691
 20
84.5783
 11
-219.938
 21
84.5511
  0
LINE
  8
0
 10
-219.938
 20
84.5511
 11
-220.186
 21
84.5602
  0
LINE
  8
0
 10
219.691
 20
84.5783
 11
219.451
 21
84.6411
  0
LINE
  8
0
 10
219.451
 20
84.6411
 11
219.223
 21
84.7381
  0
LINE
  8
0
 10
219.223
 20
84.7381
 11
219.011
 21
84.8674
  0
LINE
  8
0
 10
219.011
 20
84.8674
 11
218.82
 21
85.0262
  0
LINE
  8
0
 10
218.82
 20
85.0262
 11
218.654
 21
85.211
  0
LINE
  8
0
 10
218.654
 20
85.211
 11
218.518
 21
85.418
  0
LINE
  8
0
 10
218.518
 20
85.418
 11
218.412
 21
85.6427
  0
LINE
  8
0
 10
218.412
 20
85.6427
 11
218.341
 21
85.8804
  0
LINE
  8
0
 10
218.341
 20
85.8804
 11
218.305
 21
86.1259
  0
LINE
  8
0
 10
218.305
 20
86.1259
 11
218.305
 21
86.3741
  0
LINE
  8
0
 10
218.305
 20
86.3741
 11
218.341
 21
86.6196
  0
LINE
  8
0
 10
218.341
 20
86.6196
 11
218.412
 21
86.8573
  0
LINE
  8
0
 10
218.412
 20
86.8573
 11
218.518
 21
87.082
  0
LINE
  8
0
 10
218.518
 20
87.082
 11
218.654
 21
87.289
  0
LINE
  8
0
 10
218.654
 20
87.289
 11
218.82
 21
87.4738
  0
LINE
  8
0
 10
218.82
 20
87.4738
 11
219.011
 21
87.6326
  0
LINE
  8
0
 10
219.011
 20
87.6326
 11
219.223
 21
87.7619
  0
LINE
  8
0
 10
219.223
 20
87.7619
 11
219.451
 21
87.8589
  0
LINE
  8
0
 10
219.451
 20
87.8589
 11
219.691
 21
87.9217
  0
LINE
  8
0
 10
219.691
 20
87.9217
 11
219.938
 21
87.9489
  0
LINE
  8
0
 10
219.938
 20
87.9489
 11
220.186
 21
87.9398
  0
LINE
  8
0
 10
220.186
 20
87.9398
 11
220.43
 21
87.8947
  0
LINE
  8
0
 10
220.43
 20
87.8947
 11
220.665
 21
87.8146
  0
LINE
  8
0
 10
220.665
 20
87.8146
 11
220.886
 21
87.7011
  0
LINE
  8
0
 10
220.886
 20
87.7011
 11
221.087
 21
87.5567
  0
LINE
  8
0
 10
221.087
 20
87.5567
 11
221.266
 21
87.3844
  0
LINE
  8
0
 10
221.266
 20
87.3844
 11
221.418
 21
87.188
  0
LINE
  8
0
 10
221.418
 20
87.188
 11
221.539
 21
86.9716
  0
LINE
  8
0
 10
221.539
 20
86.9716
 11
221.628
 21
86.7398
  0
LINE
  8
0
 10
221.628
 20
86.7398
 11
221.682
 21
86.4975
  0
LINE
  8
0
 10
221.682
 20
86.4975
 11
221.7
 21
86.25
  0
LINE
  8
0
 10
221.7
 20
86.25
 11
221.682
 21
86.0025
  0
LINE
  8
0
 10
221.682
 20
86.0025
 11
221.628
 21
85.7602
  0
LINE
  8
0
 10
221.628
 20
85.7602
 11
221.539
 21
85.5284
  0
LINE
  8
0
 10
221.539
 20
85.5284
 11
221.418
 21
85.312
  0
LINE
  8
0
 10
221.418
 20
85.312
 11
221.266
 21
85.1156
  0
LINE
  8
0
 10
221.266
 20
85.1156
 11
221.087
 21
84.9433
  0
LINE
  8
0
 10
221.087
 20
84.9433
 11
220.886
 21
84.7989
  0
LINE
  8
0
 10
220.886
 20
84.7989
 11
220.665
 21
84.6854
  0
LINE
  8
0
 10
220.665
 20
84.6854
 11
220.43
 21
84.6053
  0
LINE
  8
0
 10
220.43
 20
84.6053
 11
220.186
 21
84.5602
  0
LINE
  8
0
 10
220.186
 20
84.5602
 11
219.938
 21
84.5511
  0
LINE
  8
0
 10
219.938
 20
84.5511
 11
219.691
 21
84.5783
  0
LINE
  8
0
 10
-12.5663
 20
69.3138
 11
-12.8095
 21
69.3551
  0
LINE
  8
0
 10
-12.8095
 20
69.3551
 11
-13.0466
 21
69.4234
  0
LINE
  8
0
 10
-13.0466
 20
69.4234
 11
-13.2745
 21
69.5179
  0
LINE
  8
0
 10
-13.2745
 20
69.5179
 11
-13.4905
 21
69.6372
  0
LINE
  8
0
 10
-13.4905
 20
69.6372
 11
-13.6917
 21
69.78
  0
LINE
  8
0
 10
-13.6917
 20
69.78
 11
-13.8756
 21
69.9444
  0
LINE
  8
0
 10
-13.8756
 20
69.9444
 11
-14.04
 21
70.1283
  0
LINE
  8
0
 10
-14.04
 20
70.1283
 11
-14.1828
 21
70.3295
  0
LINE
  8
0
 10
-14.1828
 20
70.3295
 11
-14.3021
 21
70.5455
  0
LINE
  8
0
 10
-14.3021
 20
70.5455
 11
-14.3965
 21
70.7734
  0
LINE
  8
0
 10
-14.3965
 20
70.7734
 11
-14.4648
 21
71.0105
  0
LINE
  8
0
 10
-14.4648
 20
71.0105
 11
-14.5062
 21
71.2537
  0
LINE
  8
0
 10
-14.5062
 20
71.2537
 11
-14.52
 21
71.5
  0
LINE
  8
0
 10
-14.52
 20
71.5
 11
-14.5062
 21
71.7463
  0
LINE
  8
0
 10
-14.5062
 20
71.7463
 11
-14.4648
 21
71.9895
  0
LINE
  8
0
 10
-14.4648
 20
71.9895
 11
-14.3965
 21
72.2266
  0
LINE
  8
0
 10
-14.3965
 20
72.2266
 11
-14.3021
 21
72.4545
  0
LINE
  8
0
 10
-14.3021
 20
72.4545
 11
-14.1828
 21
72.6705
  0
LINE
  8
0
 10
-14.1828
 20
72.6705
 11
-14.04
 21
72.8717
  0
LINE
  8
0
 10
-14.04
 20
72.8717
 11
-13.8756
 21
73.0556
  0
LINE
  8
0
 10
-13.8756
 20
73.0556
 11
-13.6917
 21
73.22
  0
LINE
  8
0
 10
-13.6917
 20
73.22
 11
-13.4905
 21
73.3628
  0
LINE
  8
0
 10
-13.4905
 20
73.3628
 11
-13.2745
 21
73.4821
  0
LINE
  8
0
 10
-13.2745
 20
73.4821
 11
-13.0466
 21
73.5765
  0
LINE
  8
0
 10
-13.0466
 20
73.5765
 11
-12.8095
 21
73.6448
  0
LINE
  8
0
 10
-12.8095
 20
73.6448
 11
-12.5663
 21
73.6862
  0
LINE
  8
0
 10
-12.5663
 20
73.6862
 11
-12.32
 21
73.7
  0
LINE
  8
0
 10
-12.32
 20
73.7
 11
-12.0737
 21
73.6862
  0
LINE
  8
0
 10
-12.0737
 20
73.6862
 11
-11.8304
 21
73.6448
  0
LINE
  8
0
 10
-11.8304
 20
73.6448
 11
-11.5934
 21
73.5765
  0
LINE
  8
0
 10
-11.5934
 20
73.5765
 11
-11.3654
 21
73.4821
  0
LINE
  8
0
 10
-11.3654
 20
73.4821
 11
-11.1495
 21
73.3628
  0
LINE
  8
0
 10
-11.1495
 20
73.3628
 11
-10.9483
 21
73.22
  0
LINE
  8
0
 10
-10.9483
 20
73.22
 11
-10.7644
 21
73.0556
  0
LINE
  8
0
 10
-10.7644
 20
73.0556
 11
-10.6
 21
72.8717
  0
LINE
  8
0
 10
-10.6
 20
72.8717
 11
-10.4572
 21
72.6705
  0
LINE
  8
0
 10
-10.4572
 20
72.6705
 11
-10.3379
 21
72.4545
  0
LINE
  8
0
 10
-10.3379
 20
72.4545
 11
-10.2435
 21
72.2266
  0
LINE
  8
0
 10
-10.2435
 20
72.2266
 11
-10.1752
 21
71.9895
  0
LINE
  8
0
 10
-10.1752
 20
71.9895
 11
-10.1338
 21
71.7463
  0
LINE
  8
0
 10
-10.1338
 20
71.7463
 11
-10.12
 21
71.5
  0
LINE
  8
0
 10
-10.12
 20
71.5
 11
-10.1338
 21
71.2537
  0
LINE
  8
0
 10
-10.1338
 20
71.2537
 11
-10.1752
 21
71.0105
  0
LINE
  8
0
 10
-10.1752
 20
71.0105
 11
-10.2435
 21
70.7734
  0
LINE
  8
0
 10
-10.2435
 20
70.7734
 11
-10.3379
 21
70.5455
  0
LINE
  8
0
 10
-10.3379
 20
70.5455
 11
-10.4572
 21
70.3295
  0
LINE
  8
0
 10
-10.4572
 20
70.3295
 11
-10.6
 21
70.1283
  0
LINE
  8
0
 10
-10.6
 20
70.1283
 11
-10.7644
 21
69.9444
  0
LINE
  8
0
 10
-10.7644
 20
69.9444
 11
-10.9483
 21
69.78
  0
LINE
  8
0
 10
-10.9483
 20
69.78
 11
-11.1495
 21
69.6372
  0
LINE
  8
0
 10
-11.1495
 20
69.6372
 11
-11.3654
 21
69.5179
  0
LINE
  8
0
 10
-11.3654
 20
69.5179
 11
-11.5934
 21
69.4234
  0
LINE
  8
0
 10
-11.5934
 20
69.4234
 11
-11.8304
 21
69.3551
  0
LINE
  8
0
 10
-11.8304
 20
69.3551
 11
-12.0737
 21
69.3138
  0
LINE
  8
0
 10
-12.0737
 20
69.3138
 11
-12.32
 21
69.3
  0
LINE
  8
0
 10
-12.32
 20
69.3
 11
-12.5663
 21
69.3138
  0
LINE
  8
0
 10
-27.5663
 20
69.3138
 11
-27.8095
 21
69.3551
  0
LINE
  8
0
 10
-27.8095
 20
69.3551
 11
-28.0466
 21
69.4234
  0
LINE
  8
0
 10
-28.0466
 20
69.4234
 11
-28.2745
 21
69.5179
  0
LINE
  8
0
 10
-28.2745
 20
69.5179
 11
-28.4905
 21
69.6372
  0
LINE
  8
0
 10
-28.4905
 20
69.6372
 11
-28.6917
 21
69.78
  0
LINE
  8
0
 10
-28.6917
 20
69.78
 11
-28.8756
 21
69.9444
  0
LINE
  8
0
 10
-28.8756
 20
69.9444
 11
-29.04
 21
70.1283
  0
LINE
  8
0
 10
-29.04
 20
70.1283
 11
-29.1828
 21
70.3295
  0
LINE
  8
0
 10
-29.1828
 20
70.3295
 11
-29.3021
 21
70.5455
  0
LINE
  8
0
 10
-29.3021
 20
70.5455
 11
-29.3965
 21
70.7734
  0
LINE
  8
0
 10
-29.3965
 20
70.7734
 11
-29.4648
 21
71.0105
  0
LINE
  8
0
 10
-29.4648
 20
71.0105
 11
-29.5062
 21
71.2537
  0
LINE
  8
0
 10
-29.5062
 20
71.2537
 11
-29.52
 21
71.5
  0
LINE
  8
0
 10
-29.52
 20
71.5
 11
-29.5062
 21
71.7463
  0
LINE
  8
0
 10
-29.5062
 20
71.7463
 11
-29.4648
 21
71.9895
  0
LINE
  8
0
 10
-29.4648
 20
71.9895
 11
-29.3965
 21
72.2266
  0
LINE
  8
0
 10
-29.3965
 20
72.2266
 11
-29.3021
 21
72.4545
  0
LINE
  8
0
 10
-29.3021
 20
72.4545
 11
-29.1828
 21
72.6705
  0
LINE
  8
0
 10
-29.1828
 20
72.6705
 11
-29.04
 21
72.8717
  0
LINE
  8
0
 10
-29.04
 20
72.8717
 11
-28.8756
 21
73.0556
  0
LINE
  8
0
 10
-28.8756
 20
73.0556
 11
-28.6917
 21
73.22
  0
LINE
  8
0
 10
-28.6917
 20
73.22
 11
-28.4905
 21
73.3628
  0
LINE
  8
0
 10
-28.4905
 20
73.3628
 11
-28.2745
 21
73.4821
  0
LINE
  8
0
 10
-28.2745
 20
73.4821
 11
-28.0466
 21
73.5765
  0
LINE
  8
0
 10
-28.0466
 20
73.5765
 11
-27.8095
 21
73.6448
  0
LINE
  8
0
 10
-27.8095
 20
73.6448
 11
-27.5663
 21
73.6862
  0
LINE
  8
0
 10
-27.5663
 20
73.6862
 11
-27.32
 21
73.7
  0
LINE
  8
0
 10
-27.32
 20
73.7
 11
-27.0737
 21
73.6862
  0
LINE
  8
0
 10
-27.0737
 20
73.6862
 11
-26.8304
 21
73.6448
  0
LINE
  8
0
 10
-26.8304
 20
73.6448
 11
-26.5934
 21
73.5765
  0
LINE
  8
0
 10
-26.5934
 20
73.5765
 11
-26.3654
 21
73.4821
  0
LINE
  8
0
 10
-26.3654
 20
73.4821
 11
-26.1495
 21
73.3628
  0
LINE
  8
0
 10
-26.1495
 20
73.3628
 11
-25.9483
 21
73.22
  0
LINE
  8
0
 10
-25.9483
 20
73.22
 11
-25.7644
 21
73.0556
  0
LINE
  8
0
 10
-25.7644
 20
73.0556
 11
-25.6
 21
72.8717
  0
LINE
  8
0
 10
-25.6
 20
72.8717
 11
-25.4572
 21
72.6705
  0
LINE
  8
0
 10
-25.4572
 20
72.6705
 11
-25.3379
 21
72.4545
  0
LINE
  8
0
 10
-25.3379
 20
72.4545
 11
-25.2435
 21
72.2266
  0
LINE
  8
0
 10
-25.2435
 20
72.2266
 11
-25.1752
 21
71.9895
  0
LINE
  8
0
 10
-25.1752
 20
71.9895
 11
-25.1338
 21
71.7463
  0
LINE
  8
0
 10
-25.1338
 20
71.7463
 11
-25.12
 21
71.5
  0
LINE
  8
0
 10
-25.12
 20
71.5
 11
-25.1338
 21
71.2537
  0
LINE
  8
0
 10
-25.1338
 20
71.2537
 11
-25.1752
 21
71.0105
  0
LINE
  8
0
 10
-25.1752
 20
71.0105
 11
-25.2435
 21
70.7734
  0
LINE
  8
0
 10
-25.2435
 20
70.7734
 11
-25.3379
 21
70.5455
  0
LINE
  8
0
 10
-25.3379
 20
70.5455
 11
-25.4572
 21
70.3295
  0
LINE
  8
0
 10
-25.4572
 20
70.3295
 11
-25.6
 21
70.1283
  0
LINE
  8
0
 10
-25.6
 20
70.1283
 11
-25.7644
 21
69.9444
  0
LINE
  8
0
 10
-25.7644
 20
69.9444
 11
-25.9483
 21
69.78
  0
LINE
  8
0
 10
-25.9483
 20
69.78
 11
-26.1495
 21
69.6372
  0
LINE
  8
0
 10
-26.1495
 20
69.6372
 11
-26.3654
 21
69.5179
  0
LINE
  8
0
 10
-26.3654
 20
69.5179
 11
-26.5934
 21
69.4234
  0
LINE
  8
0
 10
-26.5934
 20
69.4234
 11
-26.8304
 21
69.3551
  0
LINE
  8
0
 10
-26.8304
 20
69.3551
 11
-27.0737
 21
69.3138
  0
LINE
  8
0
 10
-27.0737
 20
69.3138
 11
-27.32
 21
69.3
  0
LINE
  8
0
 10
-27.32
 20
69.3
 11
-27.5663
 21
69.3138
  0
LINE
  8
0
 10
-142.566
 20
69.3138
 11
-142.81
 21
69.3551
  0
LINE
  8
0
 10
-142.81
 20
69.3551
 11
-143.047
 21
69.4234
  0
LINE
  8
0
 10
-143.047
 20
69.4234
 11
-143.275
 21
69.5179
  0
LINE
  8
0
 10
-143.275
 20
69.5179
 11
-143.49
 21
69.6372
  0
LINE
  8
0
 10
-143.49
 20
69.6372
 11
-143.692
 21
69.78
  0
LINE
  8
0
 10
-143.692
 20
69.78
 11
-143.876
 21
69.9444
  0
LINE
  8
0
 10
-143.876
 20
69.9444
 11
-144.04
 21
70.1283
  0
LINE
  8
0
 10
-144.04
 20
70.1283
 11
-144.183
 21
70.3295
  0
LINE
  8
0
 10
-144.183
 20
70.3295
 11
-144.302
 21
70.5455
  0
LINE
  8
0
 10
-144.302
 20
70.5455
 11
-144.397
 21
70.7734
  0
LINE
  8
0
 10
-144.397
 20
70.7734
 11
-144.465
 21
71.0105
  0
LINE
  8
0
 10
-144.465
 20
71.0105
 11
-144.506
 21
71.2537
  0
LINE
  8
0
 10
-144.506
 20
71.2537
 11
-144.52
 21
71.5
  0
LINE
  8
0
 10
-144.52
 20
71.5
 11
-144.506
 21
71.7463
  0
LINE
  8
0
 10
-144.506
 20
71.7463
 11
-144.465
 21
71.9895
  0
LINE
  8
0
 10
-144.465
 20
71.9895
 11
-144.397
 21
72.2266
  0
LINE
  8
0
 10
-144.397
 20
72.2266
 11
-144.302
 21
72.4545
  0
LINE
  8
0
 10
-144.302
 20
72.4545
 11
-144.183
 21
72.6705
  0
LINE
  8
0
 10
-144.183
 20
72.6705
 11
-144.04
 21
72.8717
  0
LINE
  8
0
 10
-144.04
 20
72.8717
 11
-143.876
 21
73.0556
  0
LINE
  8
0
 10
-143.876
 20
73.0556
 11
-143.692
 21
73.22
  0
LINE
  8
0
 10
-143.692
 20
73.22
 11
-143.49
 21
73.3628
  0
LINE
  8
0
 10
-143.49
 20
73.3628
 11
-143.275
 21
73.4821
  0
LINE
  8
0
 10
-143.275
 20
73.4821
 11
-143.047
 21
73.5765
  0
LINE
  8
0
 10
-143.047
 20
73.5765
 11
-142.81
 21
73.6448
  0
LINE
  8
0
 10
-142.81
 20
73.6448
 11
-142.566
 21
73.6862
  0
LINE
  8
0
 10
-142.566
 20
73.6862
 11
-142.32
 21
73.7
  0
LINE
  8
0
 10
-142.32
 20
73.7
 11
-142.074
 21
73.6862
  0
LINE
  8
0
 10
-142.074
 20
73.6862
 11
-141.83
 21
73.6448
  0
LINE
  8
0
 10
-141.83
 20
73.6448
 11
-141.593
 21
73.5765
  0
LINE
  8
0
 10
-141.593
 20
73.5765
 11
-141.365
 21
73.4821
  0
LINE
  8
0
 10
-141.365
 20
73.4821
 11
-141.15
 21
73.3628
  0
LINE
  8
0
 10
-141.15
 20
73.3628
 11
-140.948
 21
73.22
  0
LINE
  8
0
 10
-140.948
 20
73.22
 11
-140.764
 21
73.0556
  0
LINE
  8
0
 10
-140.764
 20
73.0556
 11
-140.6
 21
72.8717
  0
LINE
  8
0
 10
-140.6
 20
72.8717
 11
-140.457
 21
72.6705
  0
LINE
  8
0
 10
-140.457
 20
72.6705
 11
-140.338
 21
72.4545
  0
LINE
  8
0
 10
-140.338
 20
72.4545
 11
-140.243
 21
72.2266
  0
LINE
  8
0
 10
-140.243
 20
72.2266
 11
-140.175
 21
71.9895
  0
LINE
  8
0
 10
-140.175
 20
71.9895
 11
-140.134
 21
71.7463
  0
LINE
  8
0
 10
-140.134
 20
71.7463
 11
-140.12
 21
71.5
  0
LINE
  8
0
 10
-140.12
 20
71.5
 11
-140.134
 21
71.2537
  0
LINE
  8
0
 10
-140.134
 20
71.2537
 11
-140.175
 21
71.0105
  0
LINE
  8
0
 10
-140.175
 20
71.0105
 11
-140.243
 21
70.7734
  0
LINE
  8
0
 10
-140.243
 20
70.7734
 11
-140.338
 21
70.5455
  0
LINE
  8
0
 10
-140.338
 20
70.5455
 11
-140.457
 21
70.3295
  0
LINE
  8
0
 10
-140.457
 20
70.3295
 11
-140.6
 21
70.1283
  0
LINE
  8
0
 10
-140.6
 20
70.1283
 11
-140.764
 21
69.9444
  0
LINE
  8
0
 10
-140.764
 20
69.9444
 11
-140.948
 21
69.78
  0
LINE
  8
0
 10
-140.948
 20
69.78
 11
-141.15
 21
69.6372
  0
LINE
  8
0
 10
-141.15
 20
69.6372
 11
-141.365
 21
69.5179
  0
LINE
  8
0
 10
-141.365
 20
69.5179
 11
-141.593
 21
69.4234
  0
LINE
  8
0
 10
-141.593
 20
69.4234
 11
-141.83
 21
69.3551
  0
LINE
  8
0
 10
-141.83
 20
69.3551
 11
-142.074
 21
69.3138
  0
LINE
  8
0
 10
-142.074
 20
69.3138
 11
-142.32
 21
69.3
  0
LINE
  8
0
 10
-142.32
 20
69.3
 11
-142.566
 21
69.3138
  0
LINE
  8
0
 10
128.757
 20
28.1213
 11
128.521
 21
28.1844
  0
LINE
  8
0
 10
128.521
 20
28.1844
 11
128.3
 21
28.2876
  0
LINE
  8
0
 10
128.3
 20
28.2876
 11
128.1
 21
28.4275
  0
LINE
  8
0
 10
128.1
 20
28.4275
 11
127.928
 21
28.6001
  0
LINE
  8
0
 10
127.928
 20
28.6001
 11
127.788
 21
28.8
  0
LINE
  8
0
 10
127.788
 20
28.8
 11
127.684
 21
29.0212
  0
LINE
  8
0
 10
127.684
 20
29.0212
 11
127.621
 21
29.2569
  0
LINE
  8
0
 10
127.621
 20
29.2569
 11
127.6
 21
29.5
  0
LINE
  8
0
 10
127.6
 20
29.5
 11
127.621
 21
29.7431
  0
LINE
  8
0
 10
127.621
 20
29.7431
 11
127.684
 21
29.9788
  0
LINE
  8
0
 10
127.684
 20
29.9788
 11
127.788
 21
30.2
  0
LINE
  8
0
 10
127.788
 20
30.2
 11
127.928
 21
30.3999
  0
LINE
  8
0
 10
127.928
 20
30.3999
 11
128.1
 21
30.5724
  0
LINE
  8
0
 10
128.1
 20
30.5724
 11
128.3
 21
30.7124
  0
LINE
  8
0
 10
128.3
 20
30.7124
 11
128.521
 21
30.8156
  0
LINE
  8
0
 10
128.521
 20
30.8156
 11
128.757
 21
30.8787
  0
LINE
  8
0
 10
128.757
 20
30.8787
 11
129
 21
30.9
  0
LINE
  8
0
 10
129
 20
30.9
 11
129.243
 21
30.8787
  0
LINE
  8
0
 10
129.243
 20
30.8787
 11
129.479
 21
30.8156
  0
LINE
  8
0
 10
129.479
 20
30.8156
 11
129.7
 21
30.7124
  0
LINE
  8
0
 10
129.7
 20
30.7124
 11
129.9
 21
30.5724
  0
LINE
  8
0
 10
129.9
 20
30.5724
 11
130.072
 21
30.3999
  0
LINE
  8
0
 10
130.072
 20
30.3999
 11
130.212
 21
30.2
  0
LINE
  8
0
 10
130.212
 20
30.2
 11
130.316
 21
29.9788
  0
LINE
  8
0
 10
130.316
 20
29.9788
 11
130.379
 21
29.7431
  0
LINE
  8
0
 10
130.379
 20
29.7431
 11
130.4
 21
29.5
  0
LINE
  8
0
 10
130.4
 20
29.5
 11
130.379
 21
29.2569
  0
LINE
  8
0
 10
130.379
 20
29.2569
 11
130.316
 21
29.0212
  0
LINE
  8
0
 10
130.316
 20
29.0212
 11
130.212
 21
28.8
  0
LINE
  8
0
 10
130.212
 20
28.8
 11
130.072
 21
28.6001
  0
LINE
  8
0
 10
130.072
 20
28.6001
 11
129.9
 21
28.4275
  0
LINE
  8
0
 10
129.9
 20
28.4275
 11
129.7
 21
28.2876
  0
LINE
  8
0
 10
129.7
 20
28.2876
 11
129.479
 21
28.1844
  0
LINE
  8
0
 10
129.479
 20
28.1844
 11
129.243
 21
28.1213
  0
LINE
  8
0
 10
129.243
 20
28.1213
 11
129
 21
28.1
  0
LINE
  8
0
 10
129
 20
28.1
 11
128.757
 21
28.1213
  0
LINE
  8
0
 10
70.7569
 20
28.1213
 11
70.5212
 21
28.1844
  0
LINE
  8
0
 10
70.5212
 20
28.1844
 11
70.3
 21
28.2876
  0
LINE
  8
0
 10
70.3
 20
28.2876
 11
70.1001
 21
28.4275
  0
LINE
  8
0
 10
70.1001
 20
28.4275
 11
69.9275
 21
28.6001
  0
LINE
  8
0
 10
69.9275
 20
28.6001
 11
69.7876
 21
28.8
  0
LINE
  8
0
 10
69.7876
 20
28.8
 11
69.6844
 21
29.0212
  0
LINE
  8
0
 10
69.6844
 20
29.0212
 11
69.6213
 21
29.2569
  0
LINE
  8
0
 10
69.6213
 20
29.2569
 11
69.6
 21
29.5
  0
LINE
  8
0
 10
69.6
 20
29.5
 11
69.6213
 21
29.7431
  0
LINE
  8
0
 10
69.6213
 20
29.7431
 11
69.6844
 21
29.9788
  0
LINE
  8
0
 10
69.6844
 20
29.9788
 11
69.7876
 21
30.2
  0
LINE
  8
0
 10
69.7876
 20
30.2
 11
69.9275
 21
30.3999
  0
LINE
  8
0
 10
69.9275
 20
30.3999
 11
70.1001
 21
30.5724
  0
LINE
  8
0
 10
70.1001
 20
30.5724
 11
70.3
 21
30.7124
  0
LINE
  8
0
 10
70.3
 20
30.7124
 11
70.5212
 21
30.8156
  0
LINE
  8
0
 10
70.5212
 20
30.8156
 11
70.7569
 21
30.8787
  0
LINE
  8
0
 10
70.7569
 20
30.8787
 11
71
 21
30.9
  0
LINE
  8
0
 10
71
 20
30.9
 11
71.2431
 21
30.8787
  0
LINE
  8
0
 10
71.2431
 20
30.8787
 11
71.4788
 21
30.8156
  0
LINE
  8
0
 10
71.4788
 20
30.8156
 11
71.7
 21
30.7124
  0
LINE
  8
0
 10
71.7
 20
30.7124
 11
71.8999
 21
30.5724
  0
LINE
  8
0
 10
71.8999
 20
30.5724
 11
72.0725
 21
30.3999
  0
LINE
  8
0
 10
72.0725
 20
30.3999
 11
72.2124
 21
30.2
  0
LINE
  8
0
 10
72.2124
 20
30.2
 11
72.3156
 21
29.9788
  0
LINE
  8
0
 10
72.3156
 20
29.9788
 11
72.3787
 21
29.7431
  0
LINE
  8
0
 10
72.3787
 20
29.7431
 11
72.4
 21
29.5
  0
LINE
  8
0
 10
72.4
 20
29.5
 11
72.3787
 21
29.2569
  0
LINE
  8
0
 10
72.3787
 20
29.2569
 11
72.3156
 21
29.0212
  0
LINE
  8
0
 10
72.3156
 20
29.0212
 11
72.2124
 21
28.8
  0
LINE
  8
0
 10
72.2124
 20
28.8
 11
72.0725
 21
28.6001
  0
LINE
  8
0
 10
72.0725
 20
28.6001
 11
71.8999
 21
28.4275
  0
LINE
  8
0
 10
71.8999
 20
28.4275
 11
71.7
 21
28.2876
  0
LINE
  8
0
 10
71.7
 20
28.2876
 11
71.4788
 21
28.1844
  0
LINE
  8
0
 10
71.4788
 20
28.1844
 11
71.2431
 21
28.1213
  0
LINE
  8
0
 10
71.2431
 20
28.1213
 11
71
 21
28.1
  0
LINE
  8
0
 10
71
 20
28.1
 11
70.7569
 21
28.1213
  0
LINE
  8
0
 10
219.691
 20
-1.67171
 11
219.451
 21
-1.60893
  0
LINE
  8
0
 10
219.451
 20
-1.60893
 11
219.223
 21
-1.51187
  0
LINE
  8
0
 10
219.223
 20
-1.51187
 11
219.011
 21
-1.38258
  0
LINE
  8
0
 10
219.011
 20
-1.38258
 11
218.82
 21
-1.22383
  0
LINE
  8
0
 10
218.82
 20
-1.22383
 11
218.654
 21
-1.03899
  0
LINE
  8
0
 10
218.654
 20
-1.03899
 11
218.518
 21
-0.832001
  0
LINE
  8
0
 10
218.518
 20
-0.832001
 11
218.412
 21
-0.607285
  0
LINE
  8
0
 10
218.412
 20
-0.607285
 11
218.341
 21
-0.369629
  0
LINE
  8
0
 10
218.341
 20
-0.369629
 11
218.305
 21
-0.124084
  0
LINE
  8
0
 10
218.305
 20
-0.124084
 11
218.305
 21
0.124084
  0
LINE
  8
0
 10
218.305
 20
0.124084
 11
218.341
 21
0.369629
  0
LINE
  8
0
 10
218.341
 20
0.369629
 11
218.412
 21
0.607285
  0
LINE
  8
0
 10
218.412
 20
0.607285
 11
218.518
 21
0.832001
  0
LINE
  8
0
 10
218.518
 20
0.832001
 11
218.654
 21
1.03899
  0
LINE
  8
0
 10
218.654
 20
1.03899
 11
218.82
 21
1.22383
  0
LINE
  8
0
 10
218.82
 20
1.22383
 11
219.011
 21
1.38258
  0
LINE
  8
0
 10
219.011
 20
1.38258
 11
219.223
 21
1.51187
  0
LINE
  8
0
 10
219.223
 20
1.51187
 11
219.451
 21
1.60893
  0
LINE
  8
0
 10
219.451
 20
1.60893
 11
219.691
 21
1.67171
  0
LINE
  8
0
 10
219.691
 20
1.67171
 11
219.938
 21
1.69885
  0
LINE
  8
0
 10
219.938
 20
1.69885
 11
220.186
 21
1.68979
  0
LINE
  8
0
 10
220.186
 20
1.68979
 11
220.43
 21
1.64471
  0
LINE
  8
0
 10
220.43
 20
1.64471
 11
220.665
 21
1.56458
  0
LINE
  8
0
 10
220.665
 20
1.56458
 11
220.886
 21
1.4511
  0
LINE
  8
0
 10
220.886
 20
1.4511
 11
221.087
 21
1.30669
  0
LINE
  8
0
 10
221.087
 20
1.30669
 11
221.266
 21
1.13443
  0
LINE
  8
0
 10
221.266
 20
1.13443
 11
221.418
 21
0.938004
  0
LINE
  8
0
 10
221.418
 20
0.938004
 11
221.539
 21
0.721573
  0
LINE
  8
0
 10
221.539
 20
0.721573
 11
221.628
 21
0.489761
  0
LINE
  8
0
 10
221.628
 20
0.489761
 11
221.682
 21
0.247513
  0
LINE
  8
0
 10
221.682
 20
0.247513
 11
221.7
 21
0
  0
LINE
  8
0
 10
221.7
 20
0
 11
221.682
 21
-0.247513
  0
LINE
  8
0
 10
221.682
 20
-0.247513
 11
221.628
 21
-0.489761
  0
LINE
  8
0
 10
221.628
 20
-0.489761
 11
221.539
 21
-0.721573
  0
LINE
  8
0
 10
221.539
 20
-0.721573
 11
221.418
 21
-0.938004
  0
LINE
  8
0
 10
221.418
 20
-0.938004
 11
221.266
 21
-1.13443
  0
LINE
  8
0
 10
221.266
 20
-1.13443
 11
221.087
 21
-1.30669
  0
LINE
  8
0
 10
221.087
 20
-1.30669
 11
220.886
 21
-1.4511
  0
LINE
  8
0
 10
220.886
 20
-1.4511
 11
220.665
 21
-1.56458
  0
LINE
  8
0
 10
220.665
 20
-1.56458
 11
220.43
 21
-1.64471
  0
LINE
  8
0
 10
220.43
 20
-1.64471
 11
220.186
 21
-1.68979
  0
LINE
  8
0
 10
220.186
 20
-1.68979
 11
219.938
 21
-1.69885
  0
LINE
  8
0
 10
219.938
 20
-1.69885
 11
219.691
 21
-1.67171
  0
LINE
  8
0
 10
-220.186
 20
-1.68979
 11
-220.43
 21
-1.64471
  0
LINE
  8
0
 10
-220.43
 20
-1.64471
 11
-220.665
 21
-1.56458
  0
LINE
  8
0
 10
-220.665
 20
-1.56458
 11
-220.886
 21
-1.4511
  0
LINE
  8
0
 10
-220.886
 20
-1.4511
 11
-221.087
 21
-1.30669
  0
LINE
  8
0
 10
-221.087
 20
-1.30669
 11
-221.266
 21
-1.13443
  0
LINE
  8
0
 10
-221.266
 20
-1.13443
 11
-221.418
 21
-0.938004
  0
LINE
  8
0
 10
-221.418
 20
-0.938004
 11
-221.539
 21
-0.721573
  0
LINE
  8
0
 10
-221.539
 20
-0.721573
 11
-221.628
 21
-0.489761
  0
LINE
  8
0
 10
-221.628
 20
-0.489761
 11
-221.682
 21
-0.247513
  0
LINE
  8
0
 10
-221.682
 20
-0.247513
 11
-221.7
 21
0
  0
LINE
  8
0
 10
-221.7
 20
0
 11
-221.682
 21
0.247513
  0
LINE
  8
0
 10
-221.682
 20
0.247513
 11
-221.628
 21
0.489761
  0
LINE
  8
0
 10
-221.628
 20
0.489761
 11
-221.539
 21
0.721573
  0
LINE
  8
0
 10
-221.539
 20
0.721573
 11
-221.418
 21
0.938004
  0
LINE
  8
0
 10
-221.418
 20
0.938004
 11
-221.266
 21
1.13443
  0
LINE
  8
0
 10
-221.266
 20
1.13443
 11
-221.087
 21
1.30669
  0
LINE
  8
0
 10
-221.087
 20
1.30669
 11
-220.886
 21
1.4511
  0
LINE
  8
0
 10
-220.886
 20
1.4511
 11
-220.665
 21
1.56458
  0
LINE
  8
0
 10
-220.665
 20
1.56458
 11
-220.43
 21
1.64471
  0
LINE
  8
0
 10
-220.43
 20
1.64471
 11
-220.186
 21
1.68979
  0
LINE
  8
0
 10
-220.186
 20
1.68979
 11
-219.938
 21
1.69885
  0
LINE
  8
0
 10
-219.938
 20
1.69885
 11
-219.691
 21
1.67171
  0
LINE
  8
0
 10
-219.691
 20
1.67171
 11
-219.451
 21
1.60893
  0
LINE
  8
0
 10
-219.451
 20
1.60893
 11
-219.223
 21
1.51187
  0
LINE
  8
0
 10
-219.223
 20
1.51187
 11
-219.011
 21
1.38258
  0
LINE
  8
0
 10
-219.011
 20
1.38258
 11
-218.82
 21
1.22383
  0
LINE
  8
0
 10
-218.82
 20
1.22383
 11
-218.654
 21
1.03899
  0
LINE
  8
0
 10
-218.654
 20
1.03899
 11
-218.518
 21
0.832001
  0
LINE
  8
0
 10
-218.518
 20
0.832001
 11
-218.412
 21
0.607285
  0
LINE
  8
0
 10
-218.412
 20
0.607285
 11
-218.341
 21
0.369629
  0
LINE
  8
0
 10
-218.341
 20
0.369629
 11
-218.305
 21
0.124084
  0
LINE
  8
0
 10
-218.305
 20
0.124084
 11
-218.305
 21
-0.124084
  0
LINE
  8
0
 10
-218.305
 20
-0.124084
 11
-218.341
 21
-0.369629
  0
LINE
  8
0
 10
-218.341
 20
-0.369629
 11
-218.412
 21
-0.607285
  0
LINE
  8
0
 10
-218.412
 20
-0.607285
 11
-218.518
 21
-0.832001
  0
LINE
  8
0
 10
-218.518
 20
-0.832001
 11
-218.654
 21
-1.03899
  0
LINE
  8
0
 10
-218.654
 20
-1.03899
 11
-218.82
 21
-1.22383
  0
LINE
  8
0
 10
-218.82
 20
-1.22383
 11
-219.011
 21
-1.38258
  0
LINE
  8
0
 10
-219.011
 20
-1.38258
 11
-219.223
 21
-1.51187
  0
LINE
  8
0
 10
-219.223
 20
-1.51187
 11
-219.451
 21
-1.60893
  0
LINE
  8
0
 10
-219.451
 20
-1.60893
 11
-219.691
 21
-1.67171
  0
LINE
  8
0
 10
-219.691
 20
-1.67171
 11
-219.938
 21
-1.69885
  0
LINE
  8
0
 10
-219.938
 20
-1.69885
 11
-220.186
 21
-1.68979
  0
LINE
  8
0
 10
128.757
 20
-20.8787
 11
128.521
 21
-20.8156
  0
LINE
  8
0
 10
128.521
 20
-20.8156
 11
128.3
 21
-20.7124
  0
LINE
  8
0
 10
128.3
 20
-20.7124
 11
128.1
 21
-20.5724
  0
LINE
  8
0
 10
128.1
 20
-20.5724
 11
127.928
 21
-20.3999
  0
LINE
  8
0
 10
127.928
 20
-20.3999
 11
127.788
 21
-20.2
  0
LINE
  8
0
 10
127.788
 20
-20.2
 11
127.684
 21
-19.9788
  0
LINE
  8
0
 10
127.684
 20
-19.9788
 11
127.621
 21
-19.7431
  0
LINE
  8
0
 10
127.621
 20
-19.7431
 11
127.6
 21
-19.5
  0
LINE
  8
0
 10
127.6
 20
-19.5
 11
127.621
 21
-19.2569
  0
LINE
  8
0
 10
127.621
 20
-19.2569
 11
127.684
 21
-19.0212
  0
LINE
  8
0
 10
127.684
 20
-19.0212
 11
127.788
 21
-18.8
  0
LINE
  8
0
 10
127.788
 20
-18.8
 11
127.928
 21
-18.6001
  0
LINE
  8
0
 10
127.928
 20
-18.6001
 11
128.1
 21
-18.4275
  0
LINE
  8
0
 10
128.1
 20
-18.4275
 11
128.3
 21
-18.2876
  0
LINE
  8
0
 10
128.3
 20
-18.2876
 11
128.521
 21
-18.1844
  0
LINE
  8
0
 10
128.521
 20
-18.1844
 11
128.757
 21
-18.1213
  0
LINE
  8
0
 10
128.757
 20
-18.1213
 11
129
 21
-18.1
  0
LINE
  8
0
 10
129
 20
-18.1
 11
129.243
 21
-18.1213
  0
LINE
  8
0
 10
129.243
 20
-18.1213
 11
129.479
 21
-18.1844
  0
LINE
  8
0
 10
129.479
 20
-18.1844
 11
129.7
 21
-18.2876
  0
LINE
  8
0
 10
129.7
 20
-18.2876
 11
129.9
 21
-18.4275
  0
LINE
  8
0
 10
129.9
 20
-18.4275
 11
130.072
 21
-18.6001
  0
LINE
  8
0
 10
130.072
 20
-18.6001
 11
130.212
 21
-18.8
  0
LINE
  8
0
 10
130.212
 20
-18.8
 11
130.316
 21
-19.0212
  0
LINE
  8
0
 10
130.316
 20
-19.0212
 11
130.379
 21
-19.2569
  0
LINE
  8
0
 10
130.379
 20
-19.2569
 11
130.4
 21
-19.5
  0
LINE
  8
0
 10
130.4
 20
-19.5
 11
130.379
 21
-19.7431
  0
LINE
  8
0
 10
130.379
 20
-19.7431
 11
130.316
 21
-19.9788
  0
LINE
  8
0
 10
130.316
 20
-19.9788
 11
130.212
 21
-20.2
  0
LINE
  8
0
 10
130.212
 20
-20.2
 11
130.072
 21
-20.3999
  0
LINE
  8
0
 10
130.072
 20
-20.3999
 11
129.9
 21
-20.5724
  0
LINE
  8
0
 10
129.9
 20
-20.5724
 11
129.7
 21
-20.7124
  0
LINE
  8
0
 10
129.7
 20
-20.7124
 11
129.479
 21
-20.8156
  0
LINE
  8
0
 10
129.479
 20
-20.8156
 11
129.243
 21
-20.8787
  0
LINE
  8
0
 10
129.243
 20
-20.8787
 11
129
 21
-20.9
  0
LINE
  8
0
 10
129
 20
-20.9
 11
128.757
 21
-20.8787
  0
LINE
  8
0
 10
70.7569
 20
-20.8787
 11
70.5212
 21
-20.8156
  0
LINE
  8
0
 10
70.5212
 20
-20.8156
 11
70.3
 21
-20.7124
  0
LINE
  8
0
 10
70.3
 20
-20.7124
 11
70.1001
 21
-20.5724
  0
LINE
  8
0
 10
70.1001
 20
-20.5724
 11
69.9275
 21
-20.3999
  0
LINE
  8
0
 10
69.9275
 20
-20.3999
 11
69.7876
 21
-20.2
  0
LINE
  8
0
 10
69.7876
 20
-20.2
 11
69.6844
 21
-19.9788
  0
LINE
  8
0
 10
69.6844
 20
-19.9788
 11
69.6213
 21
-19.7431
  0
LINE
  8
0
 10
69.6213
 20
-19.7431
 11
69.6
 21
-19.5
  0
LINE
  8
0
 10
69.6
 20
-19.5
 11
69.6213
 21
-19.2569
  0
LINE
  8
0
 10
69.6213
 20
-19.2569
 11
69.6844
 21
-19.0212
  0
LINE
  8
0
 10
69.6844
 20
-19.0212
 11
69.7876
 21
-18.8
  0
LINE
  8
0
 10
69.7876
 20
-18.8
 11
69.9275
 21
-18.6001
  0
LINE
  8
0
 10
69.9275
 20
-18.6001
 11
70.1001
 21
-18.4275
  0
LINE
  8
0
 10
70.1001
 20
-18.4275
 11
70.3
 21
-18.2876
  0
LINE
  8
0
 10
70.3
 20
-18.2876
 11
70.5212
 21
-18.1844
  0
LINE
  8
0
 10
70.5212
 20
-18.1844
 11
70.7569
 21
-18.1213
  0
LINE
  8
0
 10
70.7569
 20
-18.1213
 11
71
 21
-18.1
  0
LINE
  8
0
 10
71
 20
-18.1
 11
71.2431
 21
-18.1213
  0
LINE
  8
0
 10
71.2431
 20
-18.1213
 11
71.4788
 21
-18.1844
  0
LINE
  8
0
 10
71.4788
 20
-18.1844
 11
71.7
 21
-18.2876
  0
LINE
  8
0
 10
71.7
 20
-18.2876
 11
71.8999
 21
-18.4275
  0
LINE
  8
0
 10
71.8999
 20
-18.4275
 11
72.0725
 21
-18.6001
  0
LINE
  8
0
 10
72.0725
 20
-18.6001
 11
72.2124
 21
-18.8
  0
LINE
  8
0
 10
72.2124
 20
-18.8
 11
72.3156
 21
-19.0212
  0
LINE
  8
0
 10
72.3156
 20
-19.0212
 11
72.3787
 21
-19.2569
  0
LINE
  8
0
 10
72.3787
 20
-19.2569
 11
72.4
 21
-19.5
  0
LINE
  8
0
 10
72.4
 20
-19.5
 11
72.3787
 21
-19.7431
  0
LINE
  8
0
 10
72.3787
 20
-19.7431
 11
72.3156
 21
-19.9788
  0
LINE
  8
0
 10
72.3156
 20
-19.9788
 11
72.2124
 21
-20.2
  0
LINE
  8
0
 10
72.2124
 20
-20.2
 11
72.0725
 21
-20.3999
  0
LINE
  8
0
 10
72.0725
 20
-20.3999
 11
71.8999
 21
-20.5724
  0
LINE
  8
0
 10
71.8999
 20
-20.5724
 11
71.7
 21
-20.7124
  0
LINE
  8
0
 10
71.7
 20
-20.7124
 11
71.4788
 21
-20.8156
  0
LINE
  8
0
 10
71.4788
 20
-20.8156
 11
71.2431
 21
-20.8787
  0
LINE
  8
0
 10
71.2431
 20
-20.8787
 11
71
 21
-20.9
  0
LINE
  8
0
 10
71
 20
-20.9
 11
70.7569
 21
-20.8787
  0
LINE
  8
0
 10
-142.566
 20
-22.6862
 11
-142.81
 21
-22.6448
  0
LINE
  8
0
 10
-142.81
 20
-22.6448
 11
-143.047
 21
-22.5765
  0
LINE
  8
0
 10
-143.047
 20
-22.5765
 11
-143.275
 21
-22.4821
  0
LINE
  8
0
 10
-143.275
 20
-22.4821
 11
-143.49
 21
-22.3628
  0
LINE
  8
0
 10
-143.49
 20
-22.3628
 11
-143.692
 21
-22.22
  0
LINE
  8
0
 10
-143.692
 20
-22.22
 11
-143.876
 21
-22.0556
  0
LINE
  8
0
 10
-143.876
 20
-22.0556
 11
-144.04
 21
-21.8717
  0
LINE
  8
0
 10
-144.04
 20
-21.8717
 11
-144.183
 21
-21.6705
  0
LINE
  8
0
 10
-144.183
 20
-21.6705
 11
-144.302
 21
-21.4545
  0
LINE
  8
0
 10
-144.302
 20
-21.4545
 11
-144.397
 21
-21.2266
  0
LINE
  8
0
 10
-144.397
 20
-21.2266
 11
-144.465
 21
-20.9895
  0
LINE
  8
0
 10
-144.465
 20
-20.9895
 11
-144.506
 21
-20.7463
  0
LINE
  8
0
 10
-144.506
 20
-20.7463
 11
-144.52
 21
-20.5
  0
LINE
  8
0
 10
-144.52
 20
-20.5
 11
-144.506
 21
-20.2537
  0
LINE
  8
0
 10
-144.506
 20
-20.2537
 11
-144.465
 21
-20.0105
  0
LINE
  8
0
 10
-144.465
 20
-20.0105
 11
-144.397
 21
-19.7734
  0
LINE
  8
0
 10
-144.397
 20
-19.7734
 11
-144.302
 21
-19.5455
  0
LINE
  8
0
 10
-144.302
 20
-19.5455
 11
-144.183
 21
-19.3295
  0
LINE
  8
0
 10
-144.183
 20
-19.3295
 11
-144.04
 21
-19.1283
  0
LINE
  8
0
 10
-144.04
 20
-19.1283
 11
-143.876
 21
-18.9444
  0
LINE
  8
0
 10
-143.876
 20
-18.9444
 11
-143.692
 21
-18.78
  0
LINE
  8
0
 10
-143.692
 20
-18.78
 11
-143.49
 21
-18.6372
  0
LINE
  8
0
 10
-143.49
 20
-18.6372
 11
-143.275
 21
-18.5179
  0
LINE
  8
0
 10
-143.275
 20
-18.5179
 11
-143.047
 21
-18.4234
  0
LINE
  8
0
 10
-143.047
 20
-18.4234
 11
-142.81
 21
-18.3551
  0
LINE
  8
0
 10
-142.81
 20
-18.3551
 11
-142.566
 21
-18.3138
  0
LINE
  8
0
 10
-142.566
 20
-18.3138
 11
-142.32
 21
-18.3
  0
LINE
  8
0
 10
-142.32
 20
-18.3
 11
-142.074
 21
-18.3138
  0
LINE
  8
0
 10
-142.074
 20
-18.3138
 11
-141.83
 21
-18.3551
  0
LINE
  8
0
 10
-141.83
 20
-18.3551
 11
-141.593
 21
-18.4234
  0
LINE
  8
0
 10
-141.593
 20
-18.4234
 11
-141.365
 21
-18.5179
  0
LINE
  8
0
 10
-141.365
 20
-18.5179
 11
-141.15
 21
-18.6372
  0
LINE
  8
0
 10
-141.15
 20
-18.6372
 11
-140.948
 21
-18.78
  0
LINE
  8
0
 10
-140.948
 20
-18.78
 11
-140.764
 21
-18.9444
  0
LINE
  8
0
 10
-140.764
 20
-18.9444
 11
-140.6
 21
-19.1283
  0
LINE
  8
0
 10
-140.6
 20
-19.1283
 11
-140.457
 21
-19.3295
  0
LINE
  8
0
 10
-140.457
 20
-19.3295
 11
-140.338
 21
-19.5455
  0
LINE
  8
0
 10
-140.338
 20
-19.5455
 11
-140.243
 21
-19.7734
  0
LINE
  8
0
 10
-140.243
 20
-19.7734
 11
-140.175
 21
-20.0105
  0
LINE
  8
0
 10
-140.175
 20
-20.0105
 11
-140.134
 21
-20.2537
  0
LINE
  8
0
 10
-140.134
 20
-20.2537
 11
-140.12
 21
-20.5
  0
LINE
  8
0
 10
-140.12
 20
-20.5
 11
-140.134
 21
-20.7463
  0
LINE
  8
0
 10
-140.134
 20
-20.7463
 11
-140.175
 21
-20.9895
  0
LINE
  8
0
 10
-140.175
 20
-20.9895
 11
-140.243
 21
-21.2266
  0
LINE
  8
0
 10
-140.243
 20
-21.2266
 11
-140.338
 21
-21.4545
  0
LINE
  8
0
 10
-140.338
 20
-21.4545
 11
-140.457
 21
-21.6705
  0
LINE
  8
0
 10
-140.457
 20
-21.6705
 11
-140.6
 21
-21.8717
  0
LINE
  8
0
 10
-140.6
 20
-21.8717
 11
-140.764
 21
-22.0556
  0
LINE
  8
0
 10
-140.764
 20
-22.0556
 11
-140.948
 21
-22.22
  0
LINE
  8
0
 10
-140.948
 20
-22.22
 11
-141.15
 21
-22.3628
  0
LINE
  8
0
 10
-141.15
 20
-22.3628
 11
-141.365
 21
-22.4821
  0
LINE
  8
0
 10
-141.365
 20
-22.4821
 11
-141.593
 21
-22.5765
  0
LINE
  8
0
 10
-141.593
 20
-22.5765
 11
-141.83
 21
-22.6448
  0
LINE
  8
0
 10
-141.83
 20
-22.6448
 11
-142.074
 21
-22.6862
  0
LINE
  8
0
 10
-142.074
 20
-22.6862
 11
-142.32
 21
-22.7
  0
LINE
  8
0
 10
-142.32
 20
-22.7
 11
-142.566
 21
-22.6862
  0
LINE
  8
0
 10
-27.5663
 20
-22.6862
 11
-27.8095
 21
-22.6448
  0
LINE
  8
0
 10
-27.8095
 20
-22.6448
 11
-28.0466
 21
-22.5765
  0
LINE
  8
0
 10
-28.0466
 20
-22.5765
 11
-28.2745
 21
-22.4821
  0
LINE
  8
0
 10
-28.2745
 20
-22.4821
 11
-28.4905
 21
-22.3628
  0
LINE
  8
0
 10
-28.4905
 20
-22.3628
 11
-28.6917
 21
-22.22
  0
LINE
  8
0
 10
-28.6917
 20
-22.22
 11
-28.8756
 21
-22.0556
  0
LINE
  8
0
 10
-28.8756
 20
-22.0556
 11
-29.04
 21
-21.8717
  0
LINE
  8
0
 10
-29.04
 20
-21.8717
 11
-29.1828
 21
-21.6705
  0
LINE
  8
0
 10
-29.1828
 20
-21.6705
 11
-29.3021
 21
-21.4545
  0
LINE
  8
0
 10
-29.3021
 20
-21.4545
 11
-29.3965
 21
-21.2266
  0
LINE
  8
0
 10
-29.3965
 20
-21.2266
 11
-29.4648
 21
-20.9895
  0
LINE
  8
0
 10
-29.4648
 20
-20.9895
 11
-29.5062
 21
-20.7463
  0
LINE
  8
0
 10
-29.5062
 20
-20.7463
 11
-29.52
 21
-20.5
  0
LINE
  8
0
 10
-29.52
 20
-20.5
 11
-29.5062
 21
-20.2537
  0
LINE
  8
0
 10
-29.5062
 20
-20.2537
 11
-29.4648
 21
-20.0105
  0
LINE
  8
0
 10
-29.4648
 20
-20.0105
 11
-29.3965
 21
-19.7734
  0
LINE
  8
0
 10
-29.3965
 20
-19.7734
 11
-29.3021
 21
-19.5455
  0
LINE
  8
0
 10
-29.3021
 20
-19.5455
 11
-29.1828
 21
-19.3295
  0
LINE
  8
0
 10
-29.1828
 20
-19.3295
 11
-29.04
 21
-19.1283
  0
LINE
  8
0
 10
-29.04
 20
-19.1283
 11
-28.8756
 21
-18.9444
  0
LINE
  8
0
 10
-28.8756
 20
-18.9444
 11
-28.6917
 21
-18.78
  0
LINE
  8
0
 10
-28.6917
 20
-18.78
 11
-28.4905
 21
-18.6372
  0
LINE
  8
0
 10
-28.4905
 20
-18.6372
 11
-28.2745
 21
-18.5179
  0
LINE
  8
0
 10
-28.2745
 20
-18.5179
 11
-28.0466
 21
-18.4234
  0
LINE
  8
0
 10
-28.0466
 20
-18.4234
 11
-27.8095
 21
-18.3551
  0
LINE
  8
0
 10
-27.8095
 20
-18.3551
 11
-27.5663
 21
-18.3138
  0
LINE
  8
0
 10
-27.5663
 20
-18.3138
 11
-27.32
 21
-18.3
  0
LINE
  8
0
 10
-27.32
 20
-18.3
 11
-27.0737
 21
-18.3138
  0
LINE
  8
0
 10
-27.0737
 20
-18.3138
 11
-26.8304
 21
-18.3551
  0
LINE
  8
0
 10
-26.8304
 20
-18.3551
 11
-26.5934
 21
-18.4234
  0
LINE
  8
0
 10
-26.5934
 20
-18.4234
 11
-26.3654
 21
-18.5179
  0
LINE
  8
0
 10
-26.3654
 20
-18.5179
 11
-26.1495
 21
-18.6372
  0
LINE
  8
0
 10
-26.1495
 20
-18.6372
 11
-25.9483
 21
-18.78
  0
LINE
  8
0
 10
-25.9483
 20
-18.78
 11
-25.7644
 21
-18.9444
  0
LINE
  8
0
 10
-25.7644
 20
-18.9444
 11
-25.6
 21
-19.1283
  0
LINE
  8
0
 10
-25.6
 20
-19.1283
 11
-25.4572
 21
-19.3295
  0
LINE
  8
0
 10
-25.4572
 20
-19.3295
 11
-25.3379
 21
-19.5455
  0
LINE
  8
0
 10
-25.3379
 20
-19.5455
 11
-25.2435
 21
-19.7734
  0
LINE
  8
0
 10
-25.2435
 20
-19.7734
 11
-25.1752
 21
-20.0105
  0
LINE
  8
0
 10
-25.1752
 20
-20.0105
 11
-25.1338
 21
-20.2537
  0
LINE
  8
0
 10
-25.1338
 20
-20.2537
 11
-25.12
 21
-20.5
  0
LINE
  8
0
 10
-25.12
 20
-20.5
 11
-25.1338
 21
-20.7463
  0
LINE
  8
0
 10
-25.1338
 20
-20.7463
 11
-25.1752
 21
-20.9895
  0
LINE
  8
0
 10
-25.1752
 20
-20.9895
 11
-25.2435
 21
-21.2266
  0
LINE
  8
0
 10
-25.2435
 20
-21.2266
 11
-25.3379
 21
-21.4545
  0
LINE
  8
0
 10
-25.3379
 20
-21.4545
 11
-25.4572
 21
-21.6705
  0
LINE
  8
0
 10
-25.4572
 20
-21.6705
 11
-25.6
 21
-21.8717
  0
LINE
  8
0
 10
-25.6
 20
-21.8717
 11
-25.7644
 21
-22.0556
  0
LINE
  8
0
 10
-25.7644
 20
-22.0556
 11
-25.9483
 21
-22.22
  0
LINE
  8
0
 10
-25.9483
 20
-22.22
 11
-26.1495
 21
-22.3628
  0
LINE
  8
0
 10
-26.1495
 20
-22.3628
 11
-26.3654
 21
-22.4821
  0
LINE
  8
0
 10
-26.3654
 20
-22.4821
 11
-26.5934
 21
-22.5765
  0
LINE
  8
0
 10
-26.5934
 20
-22.5765
 11
-26.8304
 21
-22.6448
  0
LINE
  8
0
 10
-26.8304
 20
-22.6448
 11
-27.0737
 21
-22.6862
  0
LINE
  8
0
 10
-27.0737
 20
-22.6862
 11
-27.32
 21
-22.7
  0
LINE
  8
0
 10
-27.32
 20
-22.7
 11
-27.5663
 21
-22.6862
  0
LINE
  8
0
 10
-142.566
 20
-40.6862
 11
-142.81
 21
-40.6448
  0
LINE
  8
0
 10
-142.81
 20
-40.6448
 11
-143.047
 21
-40.5765
  0
LINE
  8
0
 10
-143.047
 20
-40.5765
 11
-143.275
 21
-40.4821
  0
LINE
  8
0
 10
-143.275
 20
-40.4821
 11
-143.49
 21
-40.3628
  0
LINE
  8
0
 10
-143.49
 20
-40.3628
 11
-143.692
 21
-40.22
  0
LINE
  8
0
 10
-143.692
 20
-40.22
 11
-143.876
 21
-40.0556
  0
LINE
  8
0
 10
-143.876
 20
-40.0556
 11
-144.04
 21
-39.8717
  0
LINE
  8
0
 10
-144.04
 20
-39.8717
 11
-144.183
 21
-39.6705
  0
LINE
  8
0
 10
-144.183
 20
-39.6705
 11
-144.302
 21
-39.4545
  0
LINE
  8
0
 10
-144.302
 20
-39.4545
 11
-144.397
 21
-39.2266
  0
LINE
  8
0
 10
-144.397
 20
-39.2266
 11
-144.465
 21
-38.9895
  0
LINE
  8
0
 10
-144.465
 20
-38.9895
 11
-144.506
 21
-38.7463
  0
LINE
  8
0
 10
-144.506
 20
-38.7463
 11
-144.52
 21
-38.5
  0
LINE
  8
0
 10
-144.52
 20
-38.5
 11
-144.506
 21
-38.2537
  0
LINE
  8
0
 10
-144.506
 20
-38.2537
 11
-144.465
 21
-38.0105
  0
LINE
  8
0
 10
-144.465
 20
-38.0105
 11
-144.397
 21
-37.7734
  0
LINE
  8
0
 10
-144.397
 20
-37.7734
 11
-144.302
 21
-37.5455
  0
LINE
  8
0
 10
-144.302
 20
-37.5455
 11
-144.183
 21
-37.3295
  0
LINE
  8
0
 10
-144.183
 20
-37.3295
 11
-144.04
 21
-37.1283
  0
LINE
  8
0
 10
-144.04
 20
-37.1283
 11
-143.876
 21
-36.9444
  0
LINE
  8
0
 10
-143.876
 20
-36.9444
 11
-143.692
 21
-36.78
  0
LINE
  8
0
 10
-143.692
 20
-36.78
 11
-143.49
 21
-36.6372
  0
LINE
  8
0
 10
-143.49
 20
-36.6372
 11
-143.275
 21
-36.5179
  0
LINE
  8
0
 10
-143.275
 20
-36.5179
 11
-143.047
 21
-36.4234
  0
LINE
  8
0
 10
-143.047
 20
-36.4234
 11
-142.81
 21
-36.3551
  0
LINE
  8
0
 10
-142.81
 20
-36.3551
 11
-142.566
 21
-36.3138
  0
LINE
  8
0
 10
-142.566
 20
-36.3138
 11
-142.32
 21
-36.3
  0
LINE
  8
0
 10
-142.32
 20
-36.3
 11
-142.074
 21
-36.3138
  0
LINE
  8
0
 10
-142.074
 20
-36.3138
 11
-141.83
 21
-36.3551
  0
LINE
  8
0
 10
-141.83
 20
-36.3551
 11
-141.593
 21
-36.4234
  0
LINE
  8
0
 10
-141.593
 20
-36.4234
 11
-141.365
 21
-36.5179
  0
LINE
  8
0
 10
-141.365
 20
-36.5179
 11
-141.15
 21
-36.6372
  0
LINE
  8
0
 10
-141.15
 20
-36.6372
 11
-140.948
 21
-36.78
  0
LINE
  8
0
 10
-140.948
 20
-36.78
 11
-140.764
 21
-36.9444
  0
LINE
  8
0
 10
-140.764
 20
-36.9444
 11
-140.6
 21
-37.1283
  0
LINE
  8
0
 10
-140.6
 20
-37.1283
 11
-140.457
 21
-37.3295
  0
LINE
  8
0
 10
-140.457
 20
-37.3295
 11
-140.338
 21
-37.5455
  0
LINE
  8
0
 10
-140.338
 20
-37.5455
 11
-140.243
 21
-37.7734
  0
LINE
  8
0
 10
-140.243
 20
-37.7734
 11
-140.175
 21
-38.0105
  0
LINE
  8
0
 10
-140.175
 20
-38.0105
 11
-140.134
 21
-38.2537
  0
LINE
  8
0
 10
-140.134
 20
-38.2537
 11
-140.12
 21
-38.5
  0
LINE
  8
0
 10
-140.12
 20
-38.5
 11
-140.134
 21
-38.7463
  0
LINE
  8
0
 10
-140.134
 20
-38.7463
 11
-140.175
 21
-38.9895
  0
LINE
  8
0
 10
-140.175
 20
-38.9895
 11
-140.243
 21
-39.2266
  0
LINE
  8
0
 10
-140.243
 20
-39.2266
 11
-140.338
 21
-39.4545
  0
LINE
  8
0
 10
-140.338
 20
-39.4545
 11
-140.457
 21
-39.6705
  0
LINE
  8
0
 10
-140.457
 20
-39.6705
 11
-140.6
 21
-39.8717
  0
LINE
  8
0
 10
-140.6
 20
-39.8717
 11
-140.764
 21
-40.0556
  0
LINE
  8
0
 10
-140.764
 20
-40.0556
 11
-140.948
 21
-40.22
  0
LINE
  8
0
 10
-140.948
 20
-40.22
 11
-141.15
 21
-40.3628
  0
LINE
  8
0
 10
-141.15
 20
-40.3628
 11
-141.365
 21
-40.4821
  0
LINE
  8
0
 10
-141.365
 20
-40.4821
 11
-141.593
 21
-40.5765
  0
LINE
  8
0
 10
-141.593
 20
-40.5765
 11
-141.83
 21
-40.6448
  0
LINE
  8
0
 10
-141.83
 20
-40.6448
 11
-142.074
 21
-40.6862
  0
LINE
  8
0
 10
-142.074
 20
-40.6862
 11
-142.32
 21
-40.7
  0
LINE
  8
0
 10
-142.32
 20
-40.7
 11
-142.566
 21
-40.6862
  0
LINE
  8
0
 10
-27.5663
 20
-40.6862
 11
-27.8095
 21
-40.6448
  0
LINE
  8
0
 10
-27.8095
 20
-40.6448
 11
-28.0466
 21
-40.5765
  0
LINE
  8
0
 10
-28.0466
 20
-40.5765
 11
-28.2745
 21
-40.4821
  0
LINE
  8
0
 10
-28.2745
 20
-40.4821
 11
-28.4905
 21
-40.3628
  0
LINE
  8
0
 10
-28.4905
 20
-40.3628
 11
-28.6917
 21
-40.22
  0
LINE
  8
0
 10
-28.6917
 20
-40.22
 11
-28.8756
 21
-40.0556
  0
LINE
  8
0
 10
-28.8756
 20
-40.0556
 11
-29.04
 21
-39.8717
  0
LINE
  8
0
 10
-29.04
 20
-39.8717
 11
-29.1828
 21
-39.6705
  0
LINE
  8
0
 10
-29.1828
 20
-39.6705
 11
-29.3021
 21
-39.4545
  0
LINE
  8
0
 10
-29.3021
 20
-39.4545
 11
-29.3965
 21
-39.2266
  0
LINE
  8
0
 10
-29.3965
 20
-39.2266
 11
-29.4648
 21
-38.9895
  0
LINE
  8
0
 10
-29.4648
 20
-38.9895
 11
-29.5062
 21
-38.7463
  0
LINE
  8
0
 10
-29.5062
 20
-38.7463
 11
-29.52
 21
-38.5
  0
LINE
  8
0
 10
-29.52
 20
-38.5
 11
-29.5062
 21
-38.2537
  0
LINE
  8
0
 10
-29.5062
 20
-38.2537
 11
-29.4648
 21
-38.0105
  0
LINE
  8
0
 10
-29.4648
 20
-38.0105
 11
-29.3965
 21
-37.7734
  0
LINE
  8
0
 10
-29.3965
 20
-37.7734
 11
-29.3021
 21
-37.5455
  0
LINE
  8
0
 10
-29.3021
 20
-37.5455
 11
-29.1828
 21
-37.3295
  0
LINE
  8
0
 10
-29.1828
 20
-37.3295
 11
-29.04
 21
-37.1283
  0
LINE
  8
0
 10
-29.04
 20
-37.1283
 11
-28.8756
 21
-36.9444
  0
LINE
  8
0
 10
-28.8756
 20
-36.9444
 11
-28.6917
 21
-36.78
  0
LINE
  8
0
 10
-28.6917
 20
-36.78
 11
-28.4905
 21
-36.6372
  0
LINE
  8
0
 10
-28.4905
 20
-36.6372
 11
-28.2745
 21
-36.5179
  0
LINE
  8
0
 10
-28.2745
 20
-36.5179
 11
-28.0466
 21
-36.4234
  0
LINE
  8
0
 10
-28.0466
 20
-36.4234
 11
-27.8095
 21
-36.3551
  0
LINE
  8
0
 10
-27.8095
 20
-36.3551
 11
-27.5663
 21
-36.3138
  0
LINE
  8
0
 10
-27.5663
 20
-36.3138
 11
-27.32
 21
-36.3
  0
LINE
  8
0
 10
-27.32
 20
-36.3
 11
-27.0737
 21
-36.3138
  0
LINE
  8
0
 10
-27.0737
 20
-36.3138
 11
-26.8304
 21
-36.3551
  0
LINE
  8
0
 10
-26.8304
 20
-36.3551
 11
-26.5934
 21
-36.4234
  0
LINE
  8
0
 10
-26.5934
 20
-36.4234
 11
-26.3654
 21
-36.5179
  0
LINE
  8
0
 10
-26.3654
 20
-36.5179
 11
-26.1495
 21
-36.6372
  0
LINE
  8
0
 10
-26.1495
 20
-36.6372
 11
-25.9483
 21
-36.78
  0
LINE
  8
0
 10
-25.9483
 20
-36.78
 11
-25.7644
 21
-36.9444
  0
LINE
  8
0
 10
-25.7644
 20
-36.9444
 11
-25.6
 21
-37.1283
  0
LINE
  8
0
 10
-25.6
 20
-37.1283
 11
-25.4572
 21
-37.3295
  0
LINE
  8
0
 10
-25.4572
 20
-37.3295
 11
-25.3379
 21
-37.5455
  0
LINE
  8
0
 10
-25.3379
 20
-37.5455
 11
-25.2435
 21
-37.7734
  0
LINE
  8
0
 10
-25.2435
 20
-37.7734
 11
-25.1752
 21
-38.0105
  0
LINE
  8
0
 10
-25.1752
 20
-38.0105
 11
-25.1338
 21
-38.2537
  0
LINE
  8
0
 10
-25.1338
 20
-38.2537
 11
-25.12
 21
-38.5
  0
LINE
  8
0
 10
-25.12
 20
-38.5
 11
-25.1338
 21
-38.7463
  0
LINE
  8
0
 10
-25.1338
 20
-38.7463
 11
-25.1752
 21
-38.9895
  0
LINE
  8
0
 10
-25.1752
 20
-38.9895
 11
-25.2435
 21
-39.2266
  0
LINE
  8
0
 10
-25.2435
 20
-39.2266
 11
-25.3379
 21
-39.4545
  0
LINE
  8
0
 10
-25.3379
 20
-39.4545
 11
-25.4572
 21
-39.6705
  0
LINE
  8
0
 10
-25.4572
 20
-39.6705
 11
-25.6
 21
-39.8717
  0
LINE
  8
0
 10
-25.6
 20
-39.8717
 11
-25.7644
 21
-40.0556
  0
LINE
  8
0
 10
-25.7644
 20
-40.0556
 11
-25.9483
 21
-40.22
  0
LINE
  8
0
 10
-25.9483
 20
-40.22
 11
-26.1495
 21
-40.3628
  0
LINE
  8
0
 10
-26.1495
 20
-40.3628
 11
-26.3654
 21
-40.4821
  0
LINE
  8
0
 10
-26.3654
 20
-40.4821
 11
-26.5934
 21
-40.5765
  0
LINE
  8
0
 10
-26.5934
 20
-40.5765
 11
-26.8304
 21
-40.6448
  0
LINE
  8
0
 10
-26.8304
 20
-40.6448
 11
-27.0737
 21
-40.6862
  0
LINE
  8
0
 10
-27.0737
 20
-40.6862
 11
-27.32
 21
-40.7
  0
LINE
  8
0
 10
-27.32
 20
-40.7
 11
-27.5663
 21
-40.6862
  0
LINE
  8
0
 10
-142.566
 20
-54.6862
 11
-142.81
 21
-54.6448
  0
LINE
  8
0
 10
-142.81
 20
-54.6448
 11
-143.047
 21
-54.5765
  0
LINE
  8
0
 10
-143.047
 20
-54.5765
 11
-143.275
 21
-54.4821
  0
LINE
  8
0
 10
-143.275
 20
-54.4821
 11
-143.49
 21
-54.3628
  0
LINE
  8
0
 10
-143.49
 20
-54.3628
 11
-143.692
 21
-54.22
  0
LINE
  8
0
 10
-143.692
 20
-54.22
 11
-143.876
 21
-54.0556
  0
LINE
  8
0
 10
-143.876
 20
-54.0556
 11
-144.04
 21
-53.8717
  0
LINE
  8
0
 10
-144.04
 20
-53.8717
 11
-144.183
 21
-53.6705
  0
LINE
  8
0
 10
-144.183
 20
-53.6705
 11
-144.302
 21
-53.4545
  0
LINE
  8
0
 10
-144.302
 20
-53.4545
 11
-144.397
 21
-53.2266
  0
LINE
  8
0
 10
-144.397
 20
-53.2266
 11
-144.465
 21
-52.9895
  0
LINE
  8
0
 10
-144.465
 20
-52.9895
 11
-144.506
 21
-52.7463
  0
LINE
  8
0
 10
-144.506
 20
-52.7463
 11
-144.52
 21
-52.5
  0
LINE
  8
0
 10
-144.52
 20
-52.5
 11
-144.506
 21
-52.2537
  0
LINE
  8
0
 10
-144.506
 20
-52.2537
 11
-144.465
 21
-52.0105
  0
LINE
  8
0
 10
-144.465
 20
-52.0105
 11
-144.397
 21
-51.7734
  0
LINE
  8
0
 10
-144.397
 20
-51.7734
 11
-144.302
 21
-51.5455
  0
LINE
  8
0
 10
-144.302
 20
-51.5455
 11
-144.183
 21
-51.3295
  0
LINE
  8
0
 10
-144.183
 20
-51.3295
 11
-144.04
 21
-51.1283
  0
LINE
  8
0
 10
-144.04
 20
-51.1283
 11
-143.876
 21
-50.9444
  0
LINE
  8
0
 10
-143.876
 20
-50.9444
 11
-143.692
 21
-50.78
  0
LINE
  8
0
 10
-143.692
 20
-50.78
 11
-143.49
 21
-50.6372
  0
LINE
  8
0
 10
-143.49
 20
-50.6372
 11
-143.275
 21
-50.5179
  0
LINE
  8
0
 10
-143.275
 20
-50.5179
 11
-143.047
 21
-50.4234
  0
LINE
  8
0
 10
-143.047
 20
-50.4234
 11
-142.81
 21
-50.3551
  0
LINE
  8
0
 10
-142.81
 20
-50.3551
 11
-142.566
 21
-50.3138
  0
LINE
  8
0
 10
-142.566
 20
-50.3138
 11
-142.32
 21
-50.3
  0
LINE
  8
0
 10
-142.32
 20
-50.3
 11
-142.074
 21
-50.3138
  0
LINE
  8
0
 10
-142.074
 20
-50.3138
 11
-141.83
 21
-50.3551
  0
LINE
  8
0
 10
-141.83
 20
-50.3551
 11
-141.593
 21
-50.4234
  0
LINE
  8
0
 10
-141.593
 20
-50.4234
 11
-141.365
 21
-50.5179
  0
LINE
  8
0
 10
-141.365
 20
-50.5179
 11
-141.15
 21
-50.6372
  0
LINE
  8
0
 10
-141.15
 20
-50.6372
 11
-140.948
 21
-50.78
  0
LINE
  8
0
 10
-140.948
 20
-50.78
 11
-140.764
 21
-50.9444
  0
LINE
  8
0
 10
-140.764
 20
-50.9444
 11
-140.6
 21
-51.1283
  0
LINE
  8
0
 10
-140.6
 20
-51.1283
 11
-140.457
 21
-51.3295
  0
LINE
  8
0
 10
-140.457
 20
-51.3295
 11
-140.338
 21
-51.5455
  0
LINE
  8
0
 10
-140.338
 20
-51.5455
 11
-140.243
 21
-51.7734
  0
LINE
  8
0
 10
-140.243
 20
-51.7734
 11
-140.175
 21
-52.0105
  0
LINE
  8
0
 10
-140.175
 20
-52.0105
 11
-140.134
 21
-52.2537
  0
LINE
  8
0
 10
-140.134
 20
-52.2537
 11
-140.12
 21
-52.5
  0
LINE
  8
0
 10
-140.12
 20
-52.5
 11
-140.134
 21
-52.7463
  0
LINE
  8
0
 10
-140.134
 20
-52.7463
 11
-140.175
 21
-52.9895
  0
LINE
  8
0
 10
-140.175
 20
-52.9895
 11
-140.243
 21
-53.2266
  0
LINE
  8
0
 10
-140.243
 20
-53.2266
 11
-140.338
 21
-53.4545
  0
LINE
  8
0
 10
-140.338
 20
-53.4545
 11
-140.457
 21
-53.6705
  0
LINE
  8
0
 10
-140.457
 20
-53.6705
 11
-140.6
 21
-53.8717
  0
LINE
  8
0
 10
-140.6
 20
-53.8717
 11
-140.764
 21
-54.0556
  0
LINE
  8
0
 10
-140.764
 20
-54.0556
 11
-140.948
 21
-54.22
  0
LINE
  8
0
 10
-140.948
 20
-54.22
 11
-141.15
 21
-54.3628
  0
LINE
  8
0
 10
-141.15
 20
-54.3628
 11
-141.365
 21
-54.4821
  0
LINE
  8
0
 10
-141.365
 20
-54.4821
 11
-141.593
 21
-54.5765
  0
LINE
  8
0
 10
-141.593
 20
-54.5765
 11
-141.83
 21
-54.6448
  0
LINE
  8
0
 10
-141.83
 20
-54.6448
 11
-142.074
 21
-54.6862
  0
LINE
  8
0
 10
-142.074
 20
-54.6862
 11
-142.32
 21
-54.7
  0
LINE
  8
0
 10
-142.32
 20
-54.7
 11
-142.566
 21
-54.6862
  0
LINE
  8
0
 10
-12.5663
 20
-54.6862
 11
-12.8095
 21
-54.6448
  0
LINE
  8
0
 10
-12.8095
 20
-54.6448
 11
-13.0466
 21
-54.5765
  0
LINE
  8
0
 10
-13.0466
 20
-54.5765
 11
-13.2745
 21
-54.4821
  0
LINE
  8
0
 10
-13.2745
 20
-54.4821
 11
-13.4905
 21
-54.3628
  0
LINE
  8
0
 10
-13.4905
 20
-54.3628
 11
-13.6917
 21
-54.22
  0
LINE
  8
0
 10
-13.6917
 20
-54.22
 11
-13.8756
 21
-54.0556
  0
LINE
  8
0
 10
-13.8756
 20
-54.0556
 11
-14.04
 21
-53.8717
  0
LINE
  8
0
 10
-14.04
 20
-53.8717
 11
-14.1828
 21
-53.6705
  0
LINE
  8
0
 10
-14.1828
 20
-53.6705
 11
-14.3021
 21
-53.4545
  0
LINE
  8
0
 10
-14.3021
 20
-53.4545
 11
-14.3965
 21
-53.2266
  0
LINE
  8
0
 10
-14.3965
 20
-53.2266
 11
-14.4648
 21
-52.9895
  0
LINE
  8
0
 10
-14.4648
 20
-52.9895
 11
-14.5062
 21
-52.7463
  0
LINE
  8
0
 10
-14.5062
 20
-52.7463
 11
-14.52
 21
-52.5
  0
LINE
  8
0
 10
-14.52
 20
-52.5
 11
-14.5062
 21
-52.2537
  0
LINE
  8
0
 10
-14.5062
 20
-52.2537
 11
-14.4648
 21
-52.0105
  0
LINE
  8
0
 10
-14.4648
 20
-52.0105
 11
-14.3965
 21
-51.7734
  0
LINE
  8
0
 10
-14.3965
 20
-51.7734
 11
-14.3021
 21
-51.5455
  0
LINE
  8
0
 10
-14.3021
 20
-51.5455
 11
-14.1828
 21
-51.3295
  0
LINE
  8
0
 10
-14.1828
 20
-51.3295
 11
-14.04
 21
-51.1283
  0
LINE
  8
0
 10
-14.04
 20
-51.1283
 11
-13.8756
 21
-50.9444
  0
LINE
  8
0
 10
-13.8756
 20
-50.9444
 11
-13.6917
 21
-50.78
  0
LINE
  8
0
 10
-13.6917
 20
-50.78
 11
-13.4905
 21
-50.6372
  0
LINE
  8
0
 10
-13.4905
 20
-50.6372
 11
-13.2745
 21
-50.5179
  0
LINE
  8
0
 10
-13.2745
 20
-50.5179
 11
-13.0466
 21
-50.4234
  0
LINE
  8
0
 10
-13.0466
 20
-50.4234
 11
-12.8095
 21
-50.3551
  0
LINE
  8
0
 10
-12.8095
 20
-50.3551
 11
-12.5663
 21
-50.3138
  0
LINE
  8
0
 10
-12.5663
 20
-50.3138
 11
-12.32
 21
-50.3
  0
LINE
  8
0
 10
-12.32
 20
-50.3
 11
-12.0737
 21
-50.3138
  0
LINE
  8
0
 10
-12.0737
 20
-50.3138
 11
-11.8304
 21
-50.3551
  0
LINE
  8
0
 10
-11.8304
 20
-50.3551
 11
-11.5934
 21
-50.4234
  0
LINE
  8
0
 10
-11.5934
 20
-50.4234
 11
-11.3654
 21
-50.5179
  0
LINE
  8
0
 10
-11.3654
 20
-50.5179
 11
-11.1495
 21
-50.6372
  0
LINE
  8
0
 10
-11.1495
 20
-50.6372
 11
-10.9483
 21
-50.78
  0
LINE
  8
0
 10
-10.9483
 20
-50.78
 11
-10.7644
 21
-50.9444
  0
LINE
  8
0
 10
-10.7644
 20
-50.9444
 11
-10.6
 21
-51.1283
  0
LINE
  8
0
 10
-10.6
 20
-51.1283
 11
-10.4572
 21
-51.3295
  0
LINE
  8
0
 10
-10.4572
 20
-51.3295
 11
-10.3379
 21
-51.5455
  0
LINE
  8
0
 10
-10.3379
 20
-51.5455
 11
-10.2435
 21
-51.7734
  0
LINE
  8
0
 10
-10.2435
 20
-51.7734
 11
-10.1752
 21
-52.0105
  0
LINE
  8
0
 10
-10.1752
 20
-52.0105
 11
-10.1338
 21
-52.2537
  0
LINE
  8
0
 10
-10.1338
 20
-52.2537
 11
-10.12
 21
-52.5
  0
LINE
  8
0
 10
-10.12
 20
-52.5
 11
-10.1338
 21
-52.7463
  0
LINE
  8
0
 10
-10.1338
 20
-52.7463
 11
-10.1752
 21
-52.9895
  0
LINE
  8
0
 10
-10.1752
 20
-52.9895
 11
-10.2435
 21
-53.2266
  0
LINE
  8
0
 10
-10.2435
 20
-53.2266
 11
-10.3379
 21
-53.4545
  0
LINE
  8
0
 10
-10.3379
 20
-53.4545
 11
-10.4572
 21
-53.6705
  0
LINE
  8
0
 10
-10.4572
 20
-53.6705
 11
-10.6
 21
-53.8717
  0
LINE
  8
0
 10
-10.6
 20
-53.8717
 11
-10.7644
 21
-54.0556
  0
LINE
  8
0
 10
-10.7644
 20
-54.0556
 11
-10.9483
 21
-54.22
  0
LINE
  8
0
 10
-10.9483
 20
-54.22
 11
-11.1495
 21
-54.3628
  0
LINE
  8
0
 10
-11.1495
 20
-54.3628
 11
-11.3654
 21
-54.4821
  0
LINE
  8
0
 10
-11.3654
 20
-54.4821
 11
-11.5934
 21
-54.5765
  0
LINE
  8
0
 10
-11.5934
 20
-54.5765
 11
-11.8304
 21
-54.6448
  0
LINE
  8
0
 10
-11.8304
 20
-54.6448
 11
-12.0737
 21
-54.6862
  0
LINE
  8
0
 10
-12.0737
 20
-54.6862
 11
-12.32
 21
-54.7
  0
LINE
  8
0
 10
-12.32
 20
-54.7
 11
-12.5663
 21
-54.6862
  0
LINE
  8
0
 10
-12.0663
 20
-77.1862
 11
-12.3095
 21
-77.1448
  0
LINE
  8
0
 10
-12.3095
 20
-77.1448
 11
-12.5466
 21
-77.0765
  0
LINE
  8
0
 10
-12.5466
 20
-77.0765
 11
-12.7745
 21
-76.9821
  0
LINE
  8
0
 10
-12.7745
 20
-76.9821
 11
-12.9905
 21
-76.8628
  0
LINE
  8
0
 10
-12.9905
 20
-76.8628
 11
-13.1917
 21
-76.72
  0
LINE
  8
0
 10
-13.1917
 20
-76.72
 11
-13.3756
 21
-76.5556
  0
LINE
  8
0
 10
-13.3756
 20
-76.5556
 11
-13.54
 21
-76.3717
  0
LINE
  8
0
 10
-13.54
 20
-76.3717
 11
-13.6828
 21
-76.1705
  0
LINE
  8
0
 10
-13.6828
 20
-76.1705
 11
-13.8021
 21
-75.9545
  0
LINE
  8
0
 10
-13.8021
 20
-75.9545
 11
-13.8965
 21
-75.7266
  0
LINE
  8
0
 10
-13.8965
 20
-75.7266
 11
-13.9648
 21
-75.4895
  0
LINE
  8
0
 10
-13.9648
 20
-75.4895
 11
-14.0062
 21
-75.2463
  0
LINE
  8
0
 10
-14.0062
 20
-75.2463
 11
-14.02
 21
-75
  0
LINE
  8
0
 10
-14.02
 20
-75
 11
-14.0062
 21
-74.7537
  0
LINE
  8
0
 10
-14.0062
 20
-74.7537
 11
-13.9648
 21
-74.5105
  0
LINE
  8
0
 10
-13.9648
 20
-74.5105
 11
-13.8965
 21
-74.2734
  0
LINE
  8
0
 10
-13.8965
 20
-74.2734
 11
-13.8021
 21
-74.0455
  0
LINE
  8
0
 10
-13.8021
 20
-74.0455
 11
-13.6828
 21
-73.8295
  0
LINE
  8
0
 10
-13.6828
 20
-73.8295
 11
-13.54
 21
-73.6283
  0
LINE
  8
0
 10
-13.54
 20
-73.6283
 11
-13.3756
 21
-73.4444
  0
LINE
  8
0
 10
-13.3756
 20
-73.4444
 11
-13.1917
 21
-73.28
  0
LINE
  8
0
 10
-13.1917
 20
-73.28
 11
-12.9905
 21
-73.1372
  0
LINE
  8
0
 10
-12.9905
 20
-73.1372
 11
-12.7745
 21
-73.0179
  0
LINE
  8
0
 10
-12.7745
 20
-73.0179
 11
-12.5466
 21
-72.9234
  0
LINE
  8
0
 10
-12.5466
 20
-72.9234
 11
-12.3095
 21
-72.8551
  0
LINE
  8
0
 10
-12.3095
 20
-72.8551
 11
-12.0663
 21
-72.8138
  0
LINE
  8
0
 10
-12.0663
 20
-72.8138
 11
-11.82
 21
-72.8
  0
LINE
  8
0
 10
-11.82
 20
-72.8
 11
-11.5737
 21
-72.8138
  0
LINE
  8
0
 10
-11.5737
 20
-72.8138
 11
-11.3304
 21
-72.8551
  0
LINE
  8
0
 10
-11.3304
 20
-72.8551
 11
-11.0934
 21
-72.9234
  0
LINE
  8
0
 10
-11.0934
 20
-72.9234
 11
-10.8654
 21
-73.0179
  0
LINE
  8
0
 10
-10.8654
 20
-73.0179
 11
-10.6495
 21
-73.1372
  0
LINE
  8
0
 10
-10.6495
 20
-73.1372
 11
-10.4483
 21
-73.28
  0
LINE
  8
0
 10
-10.4483
 20
-73.28
 11
-10.2644
 21
-73.4444
  0
LINE
  8
0
 10
-10.2644
 20
-73.4444
 11
-10.1
 21
-73.6283
  0
LINE
  8
0
 10
-10.1
 20
-73.6283
 11
-9.9572
 21
-73.8295
  0
LINE
  8
0
 10
-9.9572
 20
-73.8295
 11
-9.83786
 21
-74.0455
  0
LINE
  8
0
 10
-9.83786
 20
-74.0455
 11
-9.74345
 21
-74.2734
  0
LINE
  8
0
 10
-9.74345
 20
-74.2734
 11
-9.67516
 21
-74.5105
  0
LINE
  8
0
 10
-9.67516
 20
-74.5105
 11
-9.63382
 21
-74.7537
  0
LINE
  8
0
 10
-9.63382
 20
-74.7537
 11
-9.62
 21
-75
  0
LINE
  8
0
 10
-9.62
 20
-75
 11
-9.63382
 21
-75.2463
  0
LINE
  8
0
 10
-9.63382
 20
-75.2463
 11
-9.67516
 21
-75.4895
  0
LINE
  8
0
 10
-9.67516
 20
-75.4895
 11
-9.74345
 21
-75.7266
  0
LINE
  8
0
 10
-9.74345
 20
-75.7266
 11
-9.83786
 21
-75.9545
  0
LINE
  8
0
 10
-9.83786
 20
-75.9545
 11
-9.9572
 21
-76.1705
  0
LINE
  8
0
 10
-9.9572
 20
-76.1705
 11
-10.1
 21
-76.3717
  0
LINE
  8
0
 10
-10.1
 20
-76.3717
 11
-10.2644
 21
-76.5556
  0
LINE
  8
0
 10
-10.2644
 20
-76.5556
 11
-10.4483
 21
-76.72
  0
LINE
  8
0
 10
-10.4483
 20
-76.72
 11
-10.6495
 21
-76.8628
  0
LINE
  8
0
 10
-10.6495
 20
-76.8628
 11
-10.8654
 21
-76.9821
  0
LINE
  8
0
 10
-10.8654
 20
-76.9821
 11
-11.0934
 21
-77.0765
  0
LINE
  8
0
 10
-11.0934
 20
-77.0765
 11
-11.3304
 21
-77.1448
  0
LINE
  8
0
 10
-11.3304
 20
-77.1448
 11
-11.5737
 21
-77.1862
  0
LINE
  8
0
 10
-11.5737
 20
-77.1862
 11
-11.82
 21
-77.2
  0
LINE
  8
0
 10
-11.82
 20
-77.2
 11
-12.0663
 21
-77.1862
  0
LINE
  8
0
 10
-103.066
 20
-77.1862
 11
-103.31
 21
-77.1448
  0
LINE
  8
0
 10
-103.31
 20
-77.1448
 11
-103.547
 21
-77.0765
  0
LINE
  8
0
 10
-103.547
 20
-77.0765
 11
-103.775
 21
-76.9821
  0
LINE
  8
0
 10
-103.775
 20
-76.9821
 11
-103.99
 21
-76.8628
  0
LINE
  8
0
 10
-103.99
 20
-76.8628
 11
-104.192
 21
-76.72
  0
LINE
  8
0
 10
-104.192
 20
-76.72
 11
-104.376
 21
-76.5556
  0
LINE
  8
0
 10
-104.376
 20
-76.5556
 11
-104.54
 21
-76.3717
  0
LINE
  8
0
 10
-104.54
 20
-76.3717
 11
-104.683
 21
-76.1705
  0
LINE
  8
0
 10
-104.683
 20
-76.1705
 11
-104.802
 21
-75.9545
  0
LINE
  8
0
 10
-104.802
 20
-75.9545
 11
-104.897
 21
-75.7266
  0
LINE
  8
0
 10
-104.897
 20
-75.7266
 11
-104.965
 21
-75.4895
  0
LINE
  8
0
 10
-104.965
 20
-75.4895
 11
-105.006
 21
-75.2463
  0
LINE
  8
0
 10
-105.006
 20
-75.2463
 11
-105.02
 21
-75
  0
LINE
  8
0
 10
-105.02
 20
-75
 11
-105.006
 21
-74.7537
  0
LINE
  8
0
 10
-105.006
 20
-74.7537
 11
-104.965
 21
-74.5105
  0
LINE
  8
0
 10
-104.965
 20
-74.5105
 11
-104.897
 21
-74.2734
  0
LINE
  8
0
 10
-104.897
 20
-74.2734
 11
-104.802
 21
-74.0455
  0
LINE
  8
0
 10
-104.802
 20
-74.0455
 11
-104.683
 21
-73.8295
  0
LINE
  8
0
 10
-104.683
 20
-73.8295
 11
-104.54
 21
-73.6283
  0
LINE
  8
0
 10
-104.54
 20
-73.6283
 11
-104.376
 21
-73.4444
  0
LINE
  8
0
 10
-104.376
 20
-73.4444
 11
-104.192
 21
-73.28
  0
LINE
  8
0
 10
-104.192
 20
-73.28
 11
-103.99
 21
-73.1372
  0
LINE
  8
0
 10
-103.99
 20
-73.1372
 11
-103.775
 21
-73.0179
  0
LINE
  8
0
 10
-103.775
 20
-73.0179
 11
-103.547
 21
-72.9234
  0
LINE
  8
0
 10
-103.547
 20
-72.9234
 11
-103.31
 21
-72.8551
  0
LINE
  8
0
 10
-103.31
 20
-72.8551
 11
-103.066
 21
-72.8138
  0
LINE
  8
0
 10
-103.066
 20
-72.8138
 11
-102.82
 21
-72.8
  0
LINE
  8
0
 10
-102.82
 20
-72.8
 11
-102.574
 21
-72.8138
  0
LINE
  8
0
 10
-102.574
 20
-72.8138
 11
-102.33
 21
-72.8551
  0
LINE
  8
0
 10
-102.33
 20
-72.8551
 11
-102.093
 21
-72.9234
  0
LINE
  8
0
 10
-102.093
 20
-72.9234
 11
-101.865
 21
-73.0179
  0
LINE
  8
0
 10
-101.865
 20
-73.0179
 11
-101.65
 21
-73.1372
  0
LINE
  8
0
 10
-101.65
 20
-73.1372
 11
-101.448
 21
-73.28
  0
LINE
  8
0
 10
-101.448
 20
-73.28
 11
-101.264
 21
-73.4444
  0
LINE
  8
0
 10
-101.264
 20
-73.4444
 11
-101.1
 21
-73.6283
  0
LINE
  8
0
 10
-101.1
 20
-73.6283
 11
-100.957
 21
-73.8295
  0
LINE
  8
0
 10
-100.957
 20
-73.8295
 11
-100.838
 21
-74.0455
  0
LINE
  8
0
 10
-100.838
 20
-74.0455
 11
-100.743
 21
-74.2734
  0
LINE
  8
0
 10
-100.743
 20
-74.2734
 11
-100.675
 21
-74.5105
  0
LINE
  8
0
 10
-100.675
 20
-74.5105
 11
-100.634
 21
-74.7537
  0
LINE
  8
0
 10
-100.634
 20
-74.7537
 11
-100.62
 21
-75
  0
LINE
  8
0
 10
-100.62
 20
-75
 11
-100.634
 21
-75.2463
  0
LINE
  8
0
 10
-100.634
 20
-75.2463
 11
-100.675
 21
-75.4895
  0
LINE
  8
0
 10
-100.675
 20
-75.4895
 11
-100.743
 21
-75.7266
  0
LINE
  8
0
 10
-100.743
 20
-75.7266
 11
-100.838
 21
-75.9545
  0
LINE
  8
0
 10
-100.838
 20
-75.9545
 11
-100.957
 21
-76.1705
  0
LINE
  8
0
 10
-100.957
 20
-76.1705
 11
-101.1
 21
-76.3717
  0
LINE
  8
0
 10
-101.1
 20
-76.3717
 11
-101.264
 21
-76.5556
  0
LINE
  8
0
 10
-101.264
 20
-76.5556
 11
-101.448
 21
-76.72
  0
LINE
  8
0
 10
-101.448
 20
-76.72
 11
-101.65
 21
-76.8628
  0
LINE
  8
0
 10
-101.65
 20
-76.8628
 11
-101.865
 21
-76.9821
  0
LINE
  8
0
 10
-101.865
 20
-76.9821
 11
-102.093
 21
-77.0765
  0
LINE
  8
0
 10
-102.093
 20
-77.0765
 11
-102.33
 21
-77.1448
  0
LINE
  8
0
 10
-102.33
 20
-77.1448
 11
-102.574
 21
-77.1862
  0
LINE
  8
0
 10
-102.574
 20
-77.1862
 11
-102.82
 21
-77.2
  0
LINE
  8
0
 10
-102.82
 20
-77.2
 11
-103.066
 21
-77.1862
  0
LINE
  8
0
 10
-220.186
 20
-87.9398
 11
-220.43
 21
-87.8947
  0
LINE
  8
0
 10
-220.43
 20
-87.8947
 11
-220.665
 21
-87.8146
  0
LINE
  8
0
 10
-220.665
 20
-87.8146
 11
-220.886
 21
-87.7011
  0
LINE
  8
0
 10
-220.886
 20
-87.7011
 11
-221.087
 21
-87.5567
  0
LINE
  8
0
 10
-221.087
 20
-87.5567
 11
-221.266
 21
-87.3844
  0
LINE
  8
0
 10
-221.266
 20
-87.3844
 11
-221.418
 21
-87.188
  0
LINE
  8
0
 10
-221.418
 20
-87.188
 11
-221.539
 21
-86.9716
  0
LINE
  8
0
 10
-221.539
 20
-86.9716
 11
-221.628
 21
-86.7398
  0
LINE
  8
0
 10
-221.628
 20
-86.7398
 11
-221.682
 21
-86.4975
  0
LINE
  8
0
 10
-221.682
 20
-86.4975
 11
-221.7
 21
-86.25
  0
LINE
  8
0
 10
-221.7
 20
-86.25
 11
-221.682
 21
-86.0025
  0
LINE
  8
0
 10
-221.682
 20
-86.0025
 11
-221.628
 21
-85.7602
  0
LINE
  8
0
 10
-221.628
 20
-85.7602
 11
-221.539
 21
-85.5284
  0
LINE
  8
0
 10
-221.539
 20
-85.5284
 11
-221.418
 21
-85.312
  0
LINE
  8
0
 10
-221.418
 20
-85.312
 11
-221.266
 21
-85.1156
  0
LINE
  8
0
 10
-221.266
 20
-85.1156
 11
-221.087
 21
-84.9433
  0
LINE
  8
0
 10
-221.087
 20
-84.9433
 11
-220.886
 21
-84.7989
  0
LINE
  8
0
 10
-220.886
 20
-84.7989
 11
-220.665
 21
-84.6854
  0
LINE
  8
0
 10
-220.665
 20
-84.6854
 11
-220.43
 21
-84.6053
  0
LINE
  8
0
 10
-220.43
 20
-84.6053
 11
-220.186
 21
-84.5602
  0
LINE
  8
0
 10
-220.186
 20
-84.5602
 11
-219.938
 21
-84.5511
  0
LINE
  8
0
 10
-219.938
 20
-84.5511
 11
-219.691
 21
-84.5783
  0
LINE
  8
0
 10
-219.691
 20
-84.5783
 11
-219.451
 21
-84.6411
  0
LINE
  8
0
 10
-219.451
 20
-84.6411
 11
-219.223
 21
-84.7381
  0
LINE
  8
0
 10
-219.223
 20
-84.7381
 11
-219.011
 21
-84.8674
  0
LINE
  8
0
 10
-219.011
 20
-84.8674
 11
-218.82
 21
-85.0262
  0
LINE
  8
0
 10
-218.82
 20
-85.0262
 11
-218.654
 21
-85.211
  0
LINE
  8
0
 10
-218.654
 20
-85.211
 11
-218.518
 21
-85.418
  0
LINE
  8
0
 10
-218.518
 20
-85.418
 11
-218.412
 21
-85.6427
  0
LINE
  8
0
 10
-218.412
 20
-85.6427
 11
-218.341
 21
-85.8804
  0
LINE
  8
0
 10
-218.341
 20
-85.8804
 11
-218.305
 21
-86.1259
  0
LINE
  8
0
 10
-218.305
 20
-86.1259
 11
-218.305
 21
-86.3741
  0
LINE
  8
0
 10
-218.305
 20
-86.3741
 11
-218.341
 21
-86.6196
  0
LINE
  8
0
 10
-218.341
 20
-86.6196
 11
-218.412
 21
-86.8573
  0
LINE
  8
0
 10
-218.412
 20
-86.8573
 11
-218.518
 21
-87.082
  0
LINE
  8
0
 10
-218.518
 20
-87.082
 11
-218.654
 21
-87.289
  0
LINE
  8
0
 10
-218.654
 20
-87.289
 11
-218.82
 21
-87.4738
  0
LINE
  8
0
 10
-218.82
 20
-87.4738
 11
-219.011
 21
-87.6326
  0
LINE
  8
0
 10
-219.011
 20
-87.6326
 11
-219.223
 21
-87.7619
  0
LINE
  8
0
 10
-219.223
 20
-87.7619
 11
-219.451
 21
-87.8589
  0
LINE
  8
0
 10
-219.451
 20
-87.8589
 11
-219.691
 21
-87.9217
  0
LINE
  8
0
 10
-219.691
 20
-87.9217
 11
-219.938
 21
-87.9489
  0
LINE
  8
0
 10
-219.938
 20
-87.9489
 11
-220.186
 21
-87.9398
  0
LINE
  8
0
 10
219.691
 20
-87.9217
 11
219.451
 21
-87.8589
  0
LINE
  8
0
 10
219.451
 20
-87.8589
 11
219.223
 21
-87.7619
  0
LINE
  8
0
 10
219.223
 20
-87.7619
 11
219.011
 21
-87.6326
  0
LINE
  8
0
 10
219.011
 20
-87.6326
 11
218.82
 21
-87.4738
  0
LINE
  8
0
 10
218.82
 20
-87.4738
 11
218.654
 21
-87.289
  0
LINE
  8
0
 10
218.654
 20
-87.289
 11
218.518
 21
-87.082
  0
LINE
  8
0
 10
218.518
 20
-87.082
 11
218.412
 21
-86.8573
  0
LINE
  8
0
 10
218.412
 20
-86.8573
 11
218.341
 21
-86.6196
  0
LINE
  8
0
 10
218.341
 20
-86.6196
 11
218.305
 21
-86.3741
  0
LINE
  8
0
 10
218.305
 20
-86.3741
 11
218.305
 21
-86.1259
  0
LINE
  8
0
 10
218.305
 20
-86.1259
 11
218.341
 21
-85.8804
  0
LINE
  8
0
 10
218.341
 20
-85.8804
 11
218.412
 21
-85.6427
  0
LINE
  8
0
 10
218.412
 20
-85.6427
 11
218.518
 21
-85.418
  0
LINE
  8
0
 10
218.518
 20
-85.418
 11
218.654
 21
-85.211
  0
LINE
  8
0
 10
218.654
 20
-85.211
 11
218.82
 21
-85.0262
  0
LINE
  8
0
 10
218.82
 20
-85.0262
 11
219.011
 21
-84.8674
  0
LINE
  8
0
 10
219.011
 20
-84.8674
 11
219.223
 21
-84.7381
  0
LINE
  8
0
 10
219.223
 20
-84.7381
 11
219.451
 21
-84.6411
  0
LINE
  8
0
 10
219.451
 20
-84.6411
 11
219.691
 21
-84.5783
  0
LINE
  8
0
 10
219.691
 20
-84.5783
 11
219.938
 21
-84.5511
  0
LINE
  8
0
 10
219.938
 20
-84.5511
 11
220.186
 21
-84.5602
  0
LINE
  8
0
 10
220.186
 20
-84.5602
 11
220.43
 21
-84.6053
  0
LINE
  8
0
 10
220.43
 20
-84.6053
 11
220.665
 21
-84.6854
  0
LINE
  8
0
 10
220.665
 20
-84.6854
 11
220.886
 21
-84.7989
  0
LINE
  8
0
 10
220.886
 20
-84.7989
 11
221.087
 21
-84.9433
  0
LINE
  8
0
 10
221.087
 20
-84.9433
 11
221.266
 21
-85.1156
  0
LINE
  8
0
 10
221.266
 20
-85.1156
 11
221.418
 21
-85.312
  0
LINE
  8
0
 10
221.418
 20
-85.312
 11
221.539
 21
-85.5284
  0
LINE
  8
0
 10
221.539
 20
-85.5284
 11
221.628
 21
-85.7602
  0
LINE
  8
0
 10
221.628
 20
-85.7602
 11
221.682
 21
-86.0025
  0
LINE
  8
0
 10
221.682
 20
-86.0025
 11
221.7
 21
-86.25
  0
LINE
  8
0
 10
221.7
 20
-86.25
 11
221.682
 21
-86.4975
  0
LINE
  8
0
 10
221.682
 20
-86.4975
 11
221.628
 21
-86.7398
  0
LINE
  8
0
 10
221.628
 20
-86.7398
 11
221.539
 21
-86.9716
  0
LINE
  8
0
 10
221.539
 20
-86.9716
 11
221.418
 21
-87.188
  0
LINE
  8
0
 10
221.418
 20
-87.188
 11
221.266
 21
-87.3844
  0
LINE
  8
0
 10
221.266
 20
-87.3844
 11
221.087
 21
-87.5567
  0
LINE
  8
0
 10
221.087
 20
-87.5567
 11
220.886
 21
-87.7011
  0
LINE
  8
0
 10
220.886
 20
-87.7011
 11
220.665
 21
-87.8146
  0
LINE
  8
0
 10
220.665
 20
-87.8146
 11
220.43
 21
-87.8947
  0
LINE
  8
0
 10
220.43
 20
-87.8947
 11
220.186
 21
-87.9398
  0
LINE
  8
0
 10
220.186
 20
-87.9398
 11
219.938
 21
-87.9489
  0
LINE
  8
0
 10
219.938
 20
-87.9489
 11
219.691
 21
-87.9217
  0
LINE
  8
0
 10
44.7387
 20
-118.736
 11
44.4802
 21
-118.695
  0
LINE
  8
0
 10
44.4802
 20
-118.695
 11
44.2274
 21
-118.628
  0
LINE
  8
0
 10
44.2274
 20
-118.628
 11
43.9832
 21
-118.534
  0
LINE
  8
0
 10
43.9832
 20
-118.534
 11
43.75
 21
-118.415
  0
LINE
  8
0
 10
43.75
 20
-118.415
 11
43.5305
 21
-118.273
  0
LINE
  8
0
 10
43.5305
 20
-118.273
 11
43.3272
 21
-118.108
  0
LINE
  8
0
 10
43.3272
 20
-118.108
 11
43.1421
 21
-117.923
  0
LINE
  8
0
 10
43.1421
 20
-117.923
 11
42.9774
 21
-117.719
  0
LINE
  8
0
 10
42.9774
 20
-117.719
 11
42.8349
 21
-117.5
  0
LINE
  8
0
 10
42.8349
 20
-117.5
 11
42.7161
 21
-117.267
  0
LINE
  8
0
 10
42.7161
 20
-117.267
 11
42.6224
 21
-117.023
  0
LINE
  8
0
 10
42.6224
 20
-117.023
 11
42.5546
 21
-116.77
  0
LINE
  8
0
 10
42.5546
 20
-116.77
 11
42.5137
 21
-116.511
  0
LINE
  8
0
 10
42.5137
 20
-116.511
 11
42.5
 21
-116.25
  0
LINE
  8
0
 10
42.5
 20
-116.25
 11
42.5137
 21
-115.989
  0
LINE
  8
0
 10
42.5137
 20
-115.989
 11
42.5546
 21
-115.73
  0
LINE
  8
0
 10
42.5546
 20
-115.73
 11
42.6224
 21
-115.477
  0
LINE
  8
0
 10
42.6224
 20
-115.477
 11
42.7161
 21
-115.233
  0
LINE
  8
0
 10
42.7161
 20
-115.233
 11
42.8349
 21
-115
  0
LINE
  8
0
 10
42.8349
 20
-115
 11
42.9774
 21
-114.781
  0
LINE
  8
0
 10
42.9774
 20
-114.781
 11
43.1421
 21
-114.577
  0
LINE
  8
0
 10
43.1421
 20
-114.577
 11
43.3272
 21
-114.392
  0
LINE
  8
0
 10
43.3272
 20
-114.392
 11
43.5305
 21
-114.227
  0
LINE
  8
0
 10
43.5305
 20
-114.227
 11
43.75
 21
-114.085
  0
LINE
  8
0
 10
43.75
 20
-114.085
 11
43.9832
 21
-113.966
  0
LINE
  8
0
 10
43.9832
 20
-113.966
 11
44.2274
 21
-113.872
  0
LINE
  8
0
 10
44.2274
 20
-113.872
 11
44.4802
 21
-113.805
  0
LINE
  8
0
 10
44.4802
 20
-113.805
 11
44.7387
 21
-113.764
  0
LINE
  8
0
 10
44.7387
 20
-113.764
 11
45
 21
-113.75
  0
LINE
  8
0
 10
45
 20
-113.75
 11
45.2613
 21
-113.764
  0
LINE
  8
0
 10
45.2613
 20
-113.764
 11
45.5198
 21
-113.805
  0
LINE
  8
0
 10
45.5198
 20
-113.805
 11
45.7725
 21
-113.872
  0
LINE
  8
0
 10
45.7725
 20
-113.872
 11
46.0168
 21
-113.966
  0
LINE
  8
0
 10
46.0168
 20
-113.966
 11
46.25
 21
-114.085
  0
LINE
  8
0
 10
46.25
 20
-114.085
 11
46.4695
 21
-114.227
  0
LINE
  8
0
 10
46.4695
 20
-114.227
 11
46.6728
 21
-114.392
  0
LINE
  8
0
 10
46.6728
 20
-114.392
 11
46.8578
 21
-114.577
  0
LINE
  8
0
 10
46.8578
 20
-114.577
 11
47.0225
 21
-114.781
  0
LINE
  8
0
 10
47.0225
 20
-114.781
 11
47.1651
 21
-115
  0
LINE
  8
0
 10
47.1651
 20
-115
 11
47.2839
 21
-115.233
  0
LINE
  8
0
 10
47.2839
 20
-115.233
 11
47.3776
 21
-115.477
  0
LINE
  8
0
 10
47.3776
 20
-115.477
 11
47.4454
 21
-115.73
  0
LINE
  8
0
 10
47.4454
 20
-115.73
 11
47.4863
 21
-115.989
  0
LINE
  8
0
 10
47.4863
 20
-115.989
 11
47.5
 21
-116.25
  0
LINE
  8
0
 10
47.5
 20
-116.25
 11
47.4863
 21
-116.511
  0
LINE
  8
0
 10
47.4863
 20
-116.511
 11
47.4454
 21
-116.77
  0
LINE
  8
0
 10
47.4454
 20
-116.77
 11
47.3776
 21
-117.023
  0
LINE
  8
0
 10
47.3776
 20
-117.023
 11
47.2839
 21
-117.267
  0
LINE
  8
0
 10
47.2839
 20
-117.267
 11
47.1651
 21
-117.5
  0
LINE
  8
0
 10
47.1651
 20
-117.5
 11
47.0225
 21
-117.719
  0
LINE
  8
0
 10
47.0225
 20
-117.719
 11
46.8578
 21
-117.923
  0
LINE
  8
0
 10
46.8578
 20
-117.923
 11
46.6728
 21
-118.108
  0
LINE
  8
0
 10
46.6728
 20
-118.108
 11
46.4695
 21
-118.273
  0
LINE
  8
0
 10
46.4695
 20
-118.273
 11
46.25
 21
-118.415
  0
LINE
  8
0
 10
46.25
 20
-118.415
 11
46.0168
 21
-118.534
  0
LINE
  8
0
 10
46.0168
 20
-118.534
 11
45.7725
 21
-118.628
  0
LINE
  8
0
 10
45.7725
 20
-118.628
 11
45.5198
 21
-118.695
  0
LINE
  8
0
 10
45.5198
 20
-118.695
 11
45.2613
 21
-118.736
  0
LINE
  8
0
 10
45.2613
 20
-118.736
 11
45
 21
-118.75
  0
LINE
  8
0
 10
45
 20
-118.75
 11
44.7387
 21
-118.736
  0
LINE
  8
0
 10
-142.566
 20
-132.686
 11
-142.81
 21
-132.645
  0
LINE
  8
0
 10
-142.81
 20
-132.645
 11
-143.047
 21
-132.577
  0
LINE
  8
0
 10
-143.047
 20
-132.577
 11
-143.275
 21
-132.482
  0
LINE
  8
0
 10
-143.275
 20
-132.482
 11
-143.49
 21
-132.363
  0
LINE
  8
0
 10
-143.49
 20
-132.363
 11
-143.692
 21
-132.22
  0
LINE
  8
0
 10
-143.692
 20
-132.22
 11
-143.876
 21
-132.056
  0
LINE
  8
0
 10
-143.876
 20
-132.056
 11
-144.04
 21
-131.872
  0
LINE
  8
0
 10
-144.04
 20
-131.872
 11
-144.183
 21
-131.67
  0
LINE
  8
0
 10
-144.183
 20
-131.67
 11
-144.302
 21
-131.455
  0
LINE
  8
0
 10
-144.302
 20
-131.455
 11
-144.397
 21
-131.227
  0
LINE
  8
0
 10
-144.397
 20
-131.227
 11
-144.465
 21
-130.99
  0
LINE
  8
0
 10
-144.465
 20
-130.99
 11
-144.506
 21
-130.746
  0
LINE
  8
0
 10
-144.506
 20
-130.746
 11
-144.52
 21
-130.5
  0
LINE
  8
0
 10
-144.52
 20
-130.5
 11
-144.506
 21
-130.254
  0
LINE
  8
0
 10
-144.506
 20
-130.254
 11
-144.465
 21
-130.01
  0
LINE
  8
0
 10
-144.465
 20
-130.01
 11
-144.397
 21
-129.773
  0
LINE
  8
0
 10
-144.397
 20
-129.773
 11
-144.302
 21
-129.545
  0
LINE
  8
0
 10
-144.302
 20
-129.545
 11
-144.183
 21
-129.33
  0
LINE
  8
0
 10
-144.183
 20
-129.33
 11
-144.04
 21
-129.128
  0
LINE
  8
0
 10
-144.04
 20
-129.128
 11
-143.876
 21
-128.944
  0
LINE
  8
0
 10
-143.876
 20
-128.944
 11
-143.692
 21
-128.78
  0
LINE
  8
0
 10
-143.692
 20
-128.78
 11
-143.49
 21
-128.637
  0
LINE
  8
0
 10
-143.49
 20
-128.637
 11
-143.275
 21
-128.518
  0
LINE
  8
0
 10
-143.275
 20
-128.518
 11
-143.047
 21
-128.423
  0
LINE
  8
0
 10
-143.047
 20
-128.423
 11
-142.81
 21
-128.355
  0
LINE
  8
0
 10
-142.81
 20
-128.355
 11
-142.566
 21
-128.314
  0
LINE
  8
0
 10
-142.566
 20
-128.314
 11
-142.32
 21
-128.3
  0
LINE
  8
0
 10
-142.32
 20
-128.3
 11
-142.074
 21
-128.314
  0
LINE
  8
0
 10
-142.074
 20
-128.314
 11
-141.83
 21
-128.355
  0
LINE
  8
0
 10
-141.83
 20
-128.355
 11
-141.593
 21
-128.423
  0
LINE
  8
0
 10
-141.593
 20
-128.423
 11
-141.365
 21
-128.518
  0
LINE
  8
0
 10
-141.365
 20
-128.518
 11
-141.15
 21
-128.637
  0
LINE
  8
0
 10
-141.15
 20
-128.637
 11
-140.948
 21
-128.78
  0
LINE
  8
0
 10
-140.948
 20
-128.78
 11
-140.764
 21
-128.944
  0
LINE
  8
0
 10
-140.764
 20
-128.944
 11
-140.6
 21
-129.128
  0
LINE
  8
0
 10
-140.6
 20
-129.128
 11
-140.457
 21
-129.33
  0
LINE
  8
0
 10
-140.457
 20
-129.33
 11
-140.338
 21
-129.545
  0
LINE
  8
0
 10
-140.338
 20
-129.545
 11
-140.243
 21
-129.773
  0
LINE
  8
0
 10
-140.243
 20
-129.773
 11
-140.175
 21
-130.01
  0
LINE
  8
0
 10
-140.175
 20
-130.01
 11
-140.134
 21
-130.254
  0
LINE
  8
0
 10
-140.134
 20
-130.254
 11
-140.12
 21
-130.5
  0
LINE
  8
0
 10
-140.12
 20
-130.5
 11
-140.134
 21
-130.746
  0
LINE
  8
0
 10
-140.134
 20
-130.746
 11
-140.175
 21
-130.99
  0
LINE
  8
0
 10
-140.175
 20
-130.99
 11
-140.243
 21
-131.227
  0
LINE
  8
0
 10
-140.243
 20
-131.227
 11
-140.338
 21
-131.455
  0
LINE
  8
0
 10
-140.338
 20
-131.455
 11
-140.457
 21
-131.67
  0
LINE
  8
0
 10
-140.457
 20
-131.67
 11
-140.6
 21
-131.872
  0
LINE
  8
0
 10
-140.6
 20
-131.872
 11
-140.764
 21
-132.056
  0
LINE
  8
0
 10
-140.764
 20
-132.056
 11
-140.948
 21
-132.22
  0
LINE
  8
0
 10
-140.948
 20
-132.22
 11
-141.15
 21
-132.363
  0
LINE
  8
0
 10
-141.15
 20
-132.363
 11
-141.365
 21
-132.482
  0
LINE
  8
0
 10
-141.365
 20
-132.482
 11
-141.593
 21
-132.577
  0
LINE
  8
0
 10
-141.593
 20
-132.577
 11
-141.83
 21
-132.645
  0
LINE
  8
0
 10
-141.83
 20
-132.645
 11
-142.074
 21
-132.686
  0
LINE
  8
0
 10
-142.074
 20
-132.686
 11
-142.32
 21
-132.7
  0
LINE
  8
0
 10
-142.32
 20
-132.7
 11
-142.566
 21
-132.686
  0
LINE
  8
0
 10
-27.5663
 20
-132.686
 11
-27.8095
 21
-132.645
  0
LINE
  8
0
 10
-27.8095
 20
-132.645
 11
-28.0466
 21
-132.577
  0
LINE
  8
0
 10
-28.0466
 20
-132.577
 11
-28.2745
 21
-132.482
  0
LINE
  8
0
 10
-28.2745
 20
-132.482
 11
-28.4905
 21
-132.363
  0
LINE
  8
0
 10
-28.4905
 20
-132.363
 11
-28.6917
 21
-132.22
  0
LINE
  8
0
 10
-28.6917
 20
-132.22
 11
-28.8756
 21
-132.056
  0
LINE
  8
0
 10
-28.8756
 20
-132.056
 11
-29.04
 21
-131.872
  0
LINE
  8
0
 10
-29.04
 20
-131.872
 11
-29.1828
 21
-131.67
  0
LINE
  8
0
 10
-29.1828
 20
-131.67
 11
-29.3021
 21
-131.455
  0
LINE
  8
0
 10
-29.3021
 20
-131.455
 11
-29.3965
 21
-131.227
  0
LINE
  8
0
 10
-29.3965
 20
-131.227
 11
-29.4648
 21
-130.99
  0
LINE
  8
0
 10
-29.4648
 20
-130.99
 11
-29.5062
 21
-130.746
  0
LINE
  8
0
 10
-29.5062
 20
-130.746
 11
-29.52
 21
-130.5
  0
LINE
  8
0
 10
-29.52
 20
-130.5
 11
-29.5062
 21
-130.254
  0
LINE
  8
0
 10
-29.5062
 20
-130.254
 11
-29.4648
 21
-130.01
  0
LINE
  8
0
 10
-29.4648
 20
-130.01
 11
-29.3965
 21
-129.773
  0
LINE
  8
0
 10
-29.3965
 20
-129.773
 11
-29.3021
 21
-129.545
  0
LINE
  8
0
 10
-29.3021
 20
-129.545
 11
-29.1828
 21
-129.33
  0
LINE
  8
0
 10
-29.1828
 20
-129.33
 11
-29.04
 21
-129.128
  0
LINE
  8
0
 10
-29.04
 20
-129.128
 11
-28.8756
 21
-128.944
  0
LINE
  8
0
 10
-28.8756
 20
-128.944
 11
-28.6917
 21
-128.78
  0
LINE
  8
0
 10
-28.6917
 20
-128.78
 11
-28.4905
 21
-128.637
  0
LINE
  8
0
 10
-28.4905
 20
-128.637
 11
-28.2745
 21
-128.518
  0
LINE
  8
0
 10
-28.2745
 20
-128.518
 11
-28.0466
 21
-128.423
  0
LINE
  8
0
 10
-28.0466
 20
-128.423
 11
-27.8095
 21
-128.355
  0
LINE
  8
0
 10
-27.8095
 20
-128.355
 11
-27.5663
 21
-128.314
  0
LINE
  8
0
 10
-27.5663
 20
-128.314
 11
-27.32
 21
-128.3
  0
LINE
  8
0
 10
-27.32
 20
-128.3
 11
-27.0737
 21
-128.314
  0
LINE
  8
0
 10
-27.0737
 20
-128.314
 11
-26.8304
 21
-128.355
  0
LINE
  8
0
 10
-26.8304
 20
-128.355
 11
-26.5934
 21
-128.423
  0
LINE
  8
0
 10
-26.5934
 20
-128.423
 11
-26.3654
 21
-128.518
  0
LINE
  8
0
 10
-26.3654
 20
-128.518
 11
-26.1495
 21
-128.637
  0
LINE
  8
0
 10
-26.1495
 20
-128.637
 11
-25.9483
 21
-128.78
  0
LINE
  8
0
 10
-25.9483
 20
-128.78
 11
-25.7644
 21
-128.944
  0
LINE
  8
0
 10
-25.7644
 20
-128.944
 11
-25.6
 21
-129.128
  0
LINE
  8
0
 10
-25.6
 20
-129.128
 11
-25.4572
 21
-129.33
  0
LINE
  8
0
 10
-25.4572
 20
-129.33
 11
-25.3379
 21
-129.545
  0
LINE
  8
0
 10
-25.3379
 20
-129.545
 11
-25.2435
 21
-129.773
  0
LINE
  8
0
 10
-25.2435
 20
-129.773
 11
-25.1752
 21
-130.01
  0
LINE
  8
0
 10
-25.1752
 20
-130.01
 11
-25.1338
 21
-130.254
  0
LINE
  8
0
 10
-25.1338
 20
-130.254
 11
-25.12
 21
-130.5
  0
LINE
  8
0
 10
-25.12
 20
-130.5
 11
-25.1338
 21
-130.746
  0
LINE
  8
0
 10
-25.1338
 20
-130.746
 11
-25.1752
 21
-130.99
  0
LINE
  8
0
 10
-25.1752
 20
-130.99
 11
-25.2435
 21
-131.227
  0
LINE
  8
0
 10
-25.2435
 20
-131.227
 11
-25.3379
 21
-131.455
  0
LINE
  8
0
 10
-25.3379
 20
-131.455
 11
-25.4572
 21
-131.67
  0
LINE
  8
0
 10
-25.4572
 20
-131.67
 11
-25.6
 21
-131.872
  0
LINE
  8
0
 10
-25.6
 20
-131.872
 11
-25.7644
 21
-132.056
  0
LINE
  8
0
 10
-25.7644
 20
-132.056
 11
-25.9483
 21
-132.22
  0
LINE
  8
0
 10
-25.9483
 20
-132.22
 11
-26.1495
 21
-132.363
  0
LINE
  8
0
 10
-26.1495
 20
-132.363
 11
-26.3654
 21
-132.482
  0
LINE
  8
0
 10
-26.3654
 20
-132.482
 11
-26.5934
 21
-132.577
  0
LINE
  8
0
 10
-26.5934
 20
-132.577
 11
-26.8304
 21
-132.645
  0
LINE
  8
0
 10
-26.8304
 20
-132.645
 11
-27.0737
 21
-132.686
  0
LINE
  8
0
 10
-27.0737
 20
-132.686
 11
-27.32
 21
-132.7
  0
LINE
  8
0
 10
-27.32
 20
-132.7
 11
-27.5663
 21
-132.686
  0
LINE
  8
0
 10
159.826
 20
-156.445
 11
159.582
 21
-156.404
  0
LINE
  8
0
 10
159.582
 20
-156.404
 11
159.347
 21
-156.324
  0
LINE
  8
0
 10
159.347
 20
-156.324
 11
159.13
 21
-156.206
  0
LINE
  8
0
 10
159.13
 20
-156.206
 11
158.934
 21
-156.054
  0
LINE
  8
0
 10
158.934
 20
-156.054
 11
158.766
 21
-155.871
  0
LINE
  8
0
 10
158.766
 20
-155.871
 11
158.631
 21
-155.664
  0
LINE
  8
0
 10
158.631
 20
-155.664
 11
158.531
 21
-155.437
  0
LINE
  8
0
 10
158.531
 20
-155.437
 11
158.47
 21
-155.197
  0
LINE
  8
0
 10
158.47
 20
-155.197
 11
158.45
 21
-154.95
  0
LINE
  8
0
 10
158.45
 20
-154.95
 11
158.47
 21
-154.703
  0
LINE
  8
0
 10
158.47
 20
-154.703
 11
158.531
 21
-154.463
  0
LINE
  8
0
 10
158.531
 20
-154.463
 11
158.631
 21
-154.236
  0
LINE
  8
0
 10
158.631
 20
-154.236
 11
158.766
 21
-154.029
  0
LINE
  8
0
 10
158.766
 20
-154.029
 11
158.934
 21
-153.846
  0
LINE
  8
0
 10
158.934
 20
-153.846
 11
159.13
 21
-153.694
  0
LINE
  8
0
 10
159.13
 20
-153.694
 11
159.347
 21
-153.576
  0
LINE
  8
0
 10
159.347
 20
-153.576
 11
159.582
 21
-153.496
  0
LINE
  8
0
 10
159.582
 20
-153.496
 11
159.826
 21
-153.455
  0
LINE
  8
0
 10
159.826
 20
-153.455
 11
160.074
 21
-153.455
  0
LINE
  8
0
 10
160.074
 20
-153.455
 11
160.318
 21
-153.496
  0
LINE
  8
0
 10
160.318
 20
-153.496
 11
160.553
 21
-153.576
  0
LINE
  8
0
 10
160.553
 20
-153.576
 11
160.77
 21
-153.694
  0
LINE
  8
0
 10
160.77
 20
-153.694
 11
160.966
 21
-153.846
  0
LINE
  8
0
 10
160.966
 20
-153.846
 11
161.134
 21
-154.029
  0
LINE
  8
0
 10
161.134
 20
-154.029
 11
161.269
 21
-154.236
  0
LINE
  8
0
 10
161.269
 20
-154.236
 11
161.369
 21
-154.463
  0
LINE
  8
0
 10
161.369
 20
-154.463
 11
161.43
 21
-154.703
  0
LINE
  8
0
 10
161.43
 20
-154.703
 11
161.45
 21
-154.95
  0
LINE
  8
0
 10
161.45
 20
-154.95
 11
161.43
 21
-155.197
  0
LINE
  8
0
 10
161.43
 20
-155.197
 11
161.369
 21
-155.437
  0
LINE
  8
0
 10
161.369
 20
-155.437
 11
161.269
 21
-155.664
  0
LINE
  8
0
 10
161.269
 20
-155.664
 11
161.134
 21
-155.871
  0
LINE
  8
0
 10
161.134
 20
-155.871
 11
160.966
 21
-156.054
  0
LINE
  8
0
 10
160.966
 20
-156.054
 11
160.77
 21
-156.206
  0
LINE
  8
0
 10
160.77
 20
-156.206
 11
160.553
 21
-156.324
  0
LINE
  8
0
 10
160.553
 20
-156.324
 11
160.318
 21
-156.404
  0
LINE
  8
0
 10
160.318
 20
-156.404
 11
160.074
 21
-156.445
  0
LINE
  8
0
 10
160.074
 20
-156.445
 11
159.826
 21
-156.445
  0
LINE
  8
0
 10
-160.074
 20
-156.445
 11
-160.318
 21
-156.404
  0
LINE
  8
0
 10
-160.318
 20
-156.404
 11
-160.553
 21
-156.324
  0
LINE
  8
0
 10
-160.553
 20
-156.324
 11
-160.77
 21
-156.206
  0
LINE
  8
0
 10
-160.77
 20
-156.206
 11
-160.966
 21
-156.054
  0
LINE
  8
0
 10
-160.966
 20
-156.054
 11
-161.134
 21
-155.871
  0
LINE
  8
0
 10
-161.134
 20
-155.871
 11
-161.269
 21
-155.664
  0
LINE
  8
0
 10
-161.269
 20
-155.664
 11
-161.369
 21
-155.437
  0
LINE
  8
0
 10
-161.369
 20
-155.437
 11
-161.43
 21
-155.197
  0
LINE
  8
0
 10
-161.43
 20
-155.197
 11
-161.45
 21
-154.95
  0
LINE
  8
0
 10
-161.45
 20
-154.95
 11
-161.43
 21
-154.703
  0
LINE
  8
0
 10
-161.43
 20
-154.703
 11
-161.369
 21
-154.463
  0
LINE
  8
0
 10
-161.369
 20
-154.463
 11
-161.269
 21
-154.236
  0
LINE
  8
0
 10
-161.269
 20
-154.236
 11
-161.134
 21
-154.029
  0
LINE
  8
0
 10
-161.134
 20
-154.029
 11
-160.966
 21
-153.846
  0
LINE
  8
0
 10
-160.966
 20
-153.846
 11
-160.77
 21
-153.694
  0
LINE
  8
0
 10
-160.77
 20
-153.694
 11
-160.553
 21
-153.576
  0
LINE
  8
0
 10
-160.553
 20
-153.576
 11
-160.318
 21
-153.496
  0
LINE
  8
0
 10
-160.318
 20
-153.496
 11
-160.074
 21
-153.455
  0
LINE
  8
0
 10
-160.074
 20
-153.455
 11
-159.826
 21
-153.455
  0
LINE
  8
0
 10
-159.826
 20
-153.455
 11
-159.582
 21
-153.496
  0
LINE
  8
0
 10
-159.582
 20
-153.496
 11
-159.347
 21
-153.576
  0
LINE
  8
0
 10
-159.347
 20
-153.576
 11
-159.13
 21
-153.694
  0
LINE
  8
0
 10
-159.13
 20
-153.694
 11
-158.934
 21
-153.846
  0
LINE
  8
0
 10
-158.934
 20
-153.846
 11
-158.766
 21
-154.029
  0
LINE
  8
0
 10
-158.766
 20
-154.029
 11
-158.631
 21
-154.236
  0
LINE
  8
0
 10
-158.631
 20
-154.236
 11
-158.531
 21
-154.463
  0
LINE
  8
0
 10
-158.531
 20
-154.463
 11
-158.47
 21
-154.703
  0
LINE
  8
0
 10
-158.47
 20
-154.703
 11
-158.45
 21
-154.95
  0
LINE
  8
0
 10
-158.45
 20
-154.95
 11
-158.47
 21
-155.197
  0
LINE
  8
0
 10
-158.47
 20
-155.197
 11
-158.531
 21
-155.437
  0
LINE
  8
0
 10
-158.531
 20
-155.437
 11
-158.631
 21
-155.664
  0
LINE
  8
0
 10
-158.631
 20
-155.664
 11
-158.766
 21
-155.871
  0
LINE
  8
0
 10
-158.766
 20
-155.871
 11
-158.934
 21
-156.054
  0
LINE
  8
0
 10
-158.934
 20
-156.054
 11
-159.13
 21
-156.206
  0
LINE
  8
0
 10
-159.13
 20
-156.206
 11
-159.347
 21
-156.324
  0
LINE
  8
0
 10
-159.347
 20
-156.324
 11
-159.582
 21
-156.404
  0
LINE
  8
0
 10
-159.582
 20
-156.404
 11
-159.826
 21
-156.445
  0
LINE
  8
0
 10
-159.826
 20
-156.445
 11
-160.074
 21
-156.445
  0
LINE
  8
0
 10
44.7387
 20
-166.236
 11
44.4802
 21
-166.195
  0
LINE
  8
0
 10
44.4802
 20
-166.195
 11
44.2274
 21
-166.128
  0
LINE
  8
0
 10
44.2274
 20
-166.128
 11
43.9832
 21
-166.034
  0
LINE
  8
0
 10
43.9832
 20
-166.034
 11
43.75
 21
-165.915
  0
LINE
  8
0
 10
43.75
 20
-165.915
 11
43.5305
 21
-165.773
  0
LINE
  8
0
 10
43.5305
 20
-165.773
 11
43.3272
 21
-165.608
  0
LINE
  8
0
 10
43.3272
 20
-165.608
 11
43.1421
 21
-165.423
  0
LINE
  8
0
 10
43.1421
 20
-165.423
 11
42.9774
 21
-165.219
  0
LINE
  8
0
 10
42.9774
 20
-165.219
 11
42.8349
 21
-165
  0
LINE
  8
0
 10
42.8349
 20
-165
 11
42.7161
 21
-164.767
  0
LINE
  8
0
 10
42.7161
 20
-164.767
 11
42.6224
 21
-164.523
  0
LINE
  8
0
 10
42.6224
 20
-164.523
 11
42.5546
 21
-164.27
  0
LINE
  8
0
 10
42.5546
 20
-164.27
 11
42.5137
 21
-164.011
  0
LINE
  8
0
 10
42.5137
 20
-164.011
 11
42.5
 21
-163.75
  0
LINE
  8
0
 10
42.5
 20
-163.75
 11
42.5137
 21
-163.489
  0
LINE
  8
0
 10
42.5137
 20
-163.489
 11
42.5546
 21
-163.23
  0
LINE
  8
0
 10
42.5546
 20
-163.23
 11
42.6224
 21
-162.977
  0
LINE
  8
0
 10
42.6224
 20
-162.977
 11
42.7161
 21
-162.733
  0
LINE
  8
0
 10
42.7161
 20
-162.733
 11
42.8349
 21
-162.5
  0
LINE
  8
0
 10
42.8349
 20
-162.5
 11
42.9774
 21
-162.281
  0
LINE
  8
0
 10
42.9774
 20
-162.281
 11
43.1421
 21
-162.077
  0
LINE
  8
0
 10
43.1421
 20
-162.077
 11
43.3272
 21
-161.892
  0
LINE
  8
0
 10
43.3272
 20
-161.892
 11
43.5305
 21
-161.727
  0
LINE
  8
0
 10
43.5305
 20
-161.727
 11
43.75
 21
-161.585
  0
LINE
  8
0
 10
43.75
 20
-161.585
 11
43.9832
 21
-161.466
  0
LINE
  8
0
 10
43.9832
 20
-161.466
 11
44.2274
 21
-161.372
  0
LINE
  8
0
 10
44.2274
 20
-161.372
 11
44.4802
 21
-161.305
  0
LINE
  8
0
 10
44.4802
 20
-161.305
 11
44.7387
 21
-161.264
  0
LINE
  8
0
 10
44.7387
 20
-161.264
 11
45
 21
-161.25
  0
LINE
  8
0
 10
45
 20
-161.25
 11
45.2613
 21
-161.264
  0
LINE
  8
0
 10
45.2613
 20
-161.264
 11
45.5198
 21
-161.305
  0
LINE
  8
0
 10
45.5198
 20
-161.305
 11
45.7725
 21
-161.372
  0
LINE
  8
0
 10
45.7725
 20
-161.372
 11
46.0168
 21
-161.466
  0
LINE
  8
0
 10
46.0168
 20
-161.466
 11
46.25
 21
-161.585
  0
LINE
  8
0
 10
46.25
 20
-161.585
 11
46.4695
 21
-161.727
  0
LINE
  8
0
 10
46.4695
 20
-161.727
 11
46.6728
 21
-161.892
  0
LINE
  8
0
 10
46.6728
 20
-161.892
 11
46.8578
 21
-162.077
  0
LINE
  8
0
 10
46.8578
 20
-162.077
 11
47.0225
 21
-162.281
  0
LINE
  8
0
 10
47.0225
 20
-162.281
 11
47.1651
 21
-162.5
  0
LINE
  8
0
 10
47.1651
 20
-162.5
 11
47.2839
 21
-162.733
  0
LINE
  8
0
 10
47.2839
 20
-162.733
 11
47.3776
 21
-162.977
  0
LINE
  8
0
 10
47.3776
 20
-162.977
 11
47.4454
 21
-163.23
  0
LINE
  8
0
 10
47.4454
 20
-163.23
 11
47.4863
 21
-163.489
  0
LINE
  8
0
 10
47.4863
 20
-163.489
 11
47.5
 21
-163.75
  0
LINE
  8
0
 10
47.5
 20
-163.75
 11
47.4863
 21
-164.011
  0
LINE
  8
0
 10
47.4863
 20
-164.011
 11
47.4454
 21
-164.27
  0
LINE
  8
0
 10
47.4454
 20
-164.27
 11
47.3776
 21
-164.523
  0
LINE
  8
0
 10
47.3776
 20
-164.523
 11
47.2839
 21
-164.767
  0
LINE
  8
0
 10
47.2839
 20
-164.767
 11
47.1651
 21
-165
  0
LINE
  8
0
 10
47.1651
 20
-165
 11
47.0225
 21
-165.219
  0
LINE
  8
0
 10
47.0225
 20
-165.219
 11
46.8578
 21
-165.423
  0
LINE
  8
0
 10
46.8578
 20
-165.423
 11
46.6728
 21
-165.608
  0
LINE
  8
0
 10
46.6728
 20
-165.608
 11
46.4695
 21
-165.773
  0
LINE
  8
0
 10
46.4695
 20
-165.773
 11
46.25
 21
-165.915
  0
LINE
  8
0
 10
46.25
 20
-165.915
 11
46.0168
 21
-166.034
  0
LINE
  8
0
 10
46.0168
 20
-166.034
 11
45.7725
 21
-166.128
  0
LINE
  8
0
 10
45.7725
 20
-166.128
 11
45.5198
 21
-166.195
  0
LINE
  8
0
 10
45.5198
 20
-166.195
 11
45.2613
 21
-166.236
  0
LINE
  8
0
 10
45.2613
 20
-166.236
 11
45
 21
-166.25
  0
LINE
  8
0
 10
45
 20
-166.25
 11
44.7387
 21
-166.236
  0
LINE
  8
0
 10
-103.066
 20
-168.186
 11
-103.31
 21
-168.145
  0
LINE
  8
0
 10
-103.31
 20
-168.145
 11
-103.547
 21
-168.077
  0
LINE
  8
0
 10
-103.547
 20
-168.077
 11
-103.775
 21
-167.982
  0
LINE
  8
0
 10
-103.775
 20
-167.982
 11
-103.99
 21
-167.863
  0
LINE
  8
0
 10
-103.99
 20
-167.863
 11
-104.192
 21
-167.72
  0
LINE
  8
0
 10
-104.192
 20
-167.72
 11
-104.376
 21
-167.556
  0
LINE
  8
0
 10
-104.376
 20
-167.556
 11
-104.54
 21
-167.372
  0
LINE
  8
0
 10
-104.54
 20
-167.372
 11
-104.683
 21
-167.17
  0
LINE
  8
0
 10
-104.683
 20
-167.17
 11
-104.802
 21
-166.955
  0
LINE
  8
0
 10
-104.802
 20
-166.955
 11
-104.897
 21
-166.727
  0
LINE
  8
0
 10
-104.897
 20
-166.727
 11
-104.965
 21
-166.49
  0
LINE
  8
0
 10
-104.965
 20
-166.49
 11
-105.006
 21
-166.246
  0
LINE
  8
0
 10
-105.006
 20
-166.246
 11
-105.02
 21
-166
  0
LINE
  8
0
 10
-105.02
 20
-166
 11
-105.006
 21
-165.754
  0
LINE
  8
0
 10
-105.006
 20
-165.754
 11
-104.965
 21
-165.51
  0
LINE
  8
0
 10
-104.965
 20
-165.51
 11
-104.897
 21
-165.273
  0
LINE
  8
0
 10
-104.897
 20
-165.273
 11
-104.802
 21
-165.045
  0
LINE
  8
0
 10
-104.802
 20
-165.045
 11
-104.683
 21
-164.83
  0
LINE
  8
0
 10
-104.683
 20
-164.83
 11
-104.54
 21
-164.628
  0
LINE
  8
0
 10
-104.54
 20
-164.628
 11
-104.376
 21
-164.444
  0
LINE
  8
0
 10
-104.376
 20
-164.444
 11
-104.192
 21
-164.28
  0
LINE
  8
0
 10
-104.192
 20
-164.28
 11
-103.99
 21
-164.137
  0
LINE
  8
0
 10
-103.99
 20
-164.137
 11
-103.775
 21
-164.018
  0
LINE
  8
0
 10
-103.775
 20
-164.018
 11
-103.547
 21
-163.923
  0
LINE
  8
0
 10
-103.547
 20
-163.923
 11
-103.31
 21
-163.855
  0
LINE
  8
0
 10
-103.31
 20
-163.855
 11
-103.066
 21
-163.814
  0
LINE
  8
0
 10
-103.066
 20
-163.814
 11
-102.82
 21
-163.8
  0
LINE
  8
0
 10
-102.82
 20
-163.8
 11
-102.574
 21
-163.814
  0
LINE
  8
0
 10
-102.574
 20
-163.814
 11
-102.33
 21
-163.855
  0
LINE
  8
0
 10
-102.33
 20
-163.855
 11
-102.093
 21
-163.923
  0
LINE
  8
0
 10
-102.093
 20
-163.923
 11
-101.865
 21
-164.018
  0
LINE
  8
0
 10
-101.865
 20
-164.018
 11
-101.65
 21
-164.137
  0
LINE
  8
0
 10
-101.65
 20
-164.137
 11
-101.448
 21
-164.28
  0
LINE
  8
0
 10
-101.448
 20
-164.28
 11
-101.264
 21
-164.444
  0
LINE
  8
0
 10
-101.264
 20
-164.444
 11
-101.1
 21
-164.628
  0
LINE
  8
0
 10
-101.1
 20
-164.628
 11
-100.957
 21
-164.83
  0
LINE
  8
0
 10
-100.957
 20
-164.83
 11
-100.838
 21
-165.045
  0
LINE
  8
0
 10
-100.838
 20
-165.045
 11
-100.743
 21
-165.273
  0
LINE
  8
0
 10
-100.743
 20
-165.273
 11
-100.675
 21
-165.51
  0
LINE
  8
0
 10
-100.675
 20
-165.51
 11
-100.634
 21
-165.754
  0
LINE
  8
0
 10
-100.634
 20
-165.754
 11
-100.62
 21
-166
  0
LINE
  8
0
 10
-100.62
 20
-166
 11
-100.634
 21
-166.246
  0
LINE
  8
0
 10
-100.634
 20
-166.246
 11
-100.675
 21
-166.49
  0
LINE
  8
0
 10
-100.675
 20
-166.49
 11
-100.743
 21
-166.727
  0
LINE
  8
0
 10
-100.743
 20
-166.727
 11
-100.838
 21
-166.955
  0
LINE
  8
0
 10
-100.838
 20
-166.955
 11
-100.957
 21
-167.17
  0
LINE
  8
0
 10
-100.957
 20
-167.17
 11
-101.1
 21
-167.372
  0
LINE
  8
0
 10
-101.1
 20
-167.372
 11
-101.264
 21
-167.556
  0
LINE
  8
0
 10
-101.264
 20
-167.556
 11
-101.448
 21
-167.72
  0
LINE
  8
0
 10
-101.448
 20
-167.72
 11
-101.65
 21
-167.863
  0
LINE
  8
0
 10
-101.65
 20
-167.863
 11
-101.865
 21
-167.982
  0
LINE
  8
0
 10
-101.865
 20
-167.982
 11
-102.093
 21
-168.077
  0
LINE
  8
0
 10
-102.093
 20
-168.077
 11
-102.33
 21
-168.145
  0
LINE
  8
0
 10
-102.33
 20
-168.145
 11
-102.574
 21
-168.186
  0
LINE
  8
0
 10
-102.574
 20
-168.186
 11
-102.82
 21
-168.2
  0
LINE
  8
0
 10
-102.82
 20
-168.2
 11
-103.066
 21
-168.186
  0
LINE
  8
0
 10
-12.0663
 20
-168.186
 11
-12.3095
 21
-168.145
  0
LINE
  8
0
 10
-12.3095
 20
-168.145
 11
-12.5466
 21
-168.077
  0
LINE
  8
0
 10
-12.5466
 20
-168.077
 11
-12.7745
 21
-167.982
  0
LINE
  8
0
 10
-12.7745
 20
-167.982
 11
-12.9905
 21
-167.863
  0
LINE
  8
0
 10
-12.9905
 20
-167.863
 11
-13.1917
 21
-167.72
  0
LINE
  8
0
 10
-13.1917
 20
-167.72
 11
-13.3756
 21
-167.556
  0
LINE
  8
0
 10
-13.3756
 20
-167.556
 11
-13.54
 21
-167.372
  0
LINE
  8
0
 10
-13.54
 20
-167.372
 11
-13.6828
 21
-167.17
  0
LINE
  8
0
 10
-13.6828
 20
-167.17
 11
-13.8021
 21
-166.955
  0
LINE
  8
0
 10
-13.8021
 20
-166.955
 11
-13.8965
 21
-166.727
  0
LINE
  8
0
 10
-13.8965
 20
-166.727
 11
-13.9648
 21
-166.49
  0
LINE
  8
0
 10
-13.9648
 20
-166.49
 11
-14.0062
 21
-166.246
  0
LINE
  8
0
 10
-14.0062
 20
-166.246
 11
-14.02
 21
-166
  0
LINE
  8
0
 10
-14.02
 20
-166
 11
-14.0062
 21
-165.754
  0
LINE
  8
0
 10
-14.0062
 20
-165.754
 11
-13.9648
 21
-165.51
  0
LINE
  8
0
 10
-13.9648
 20
-165.51
 11
-13.8965
 21
-165.273
  0
LINE
  8
0
 10
-13.8965
 20
-165.273
 11
-13.8021
 21
-165.045
  0
LINE
  8
0
 10
-13.8021
 20
-165.045
 11
-13.6828
 21
-164.83
  0
LINE
  8
0
 10
-13.6828
 20
-164.83
 11
-13.54
 21
-164.628
  0
LINE
  8
0
 10
-13.54
 20
-164.628
 11
-13.3756
 21
-164.444
  0
LINE
  8
0
 10
-13.3756
 20
-164.444
 11
-13.1917
 21
-164.28
  0
LINE
  8
0
 10
-13.1917
 20
-164.28
 11
-12.9905
 21
-164.137
  0
LINE
  8
0
 10
-12.9905
 20
-164.137
 11
-12.7745
 21
-164.018
  0
LINE
  8
0
 10
-12.7745
 20
-164.018
 11
-12.5466
 21
-163.923
  0
LINE
  8
0
 10
-12.5466
 20
-163.923
 11
-12.3095
 21
-163.855
  0
LINE
  8
0
 10
-12.3095
 20
-163.855
 11
-12.0663
 21
-163.814
  0
LINE
  8
0
 10
-12.0663
 20
-163.814
 11
-11.82
 21
-163.8
  0
LINE
  8
0
 10
-11.82
 20
-163.8
 11
-11.5737
 21
-163.814
  0
LINE
  8
0
 10
-11.5737
 20
-163.814
 11
-11.3304
 21
-163.855
  0
LINE
  8
0
 10
-11.3304
 20
-163.855
 11
-11.0934
 21
-163.923
  0
LINE
  8
0
 10
-11.0934
 20
-163.923
 11
-10.8654
 21
-164.018
  0
LINE
  8
0
 10
-10.8654
 20
-164.018
 11
-10.6495
 21
-164.137
  0
LINE
  8
0
 10
-10.6495
 20
-164.137
 11
-10.4483
 21
-164.28
  0
LINE
  8
0
 10
-10.4483
 20
-164.28
 11
-10.2644
 21
-164.444
  0
LINE
  8
0
 10
-10.2644
 20
-164.444
 11
-10.1
 21
-164.628
  0
LINE
  8
0
 10
-10.1
 20
-164.628
 11
-9.9572
 21
-164.83
  0
LINE
  8
0
 10
-9.9572
 20
-164.83
 11
-9.83786
 21
-165.045
  0
LINE
  8
0
 10
-9.83786
 20
-165.045
 11
-9.74345
 21
-165.273
  0
LINE
  8
0
 10
-9.74345
 20
-165.273
 11
-9.67516
 21
-165.51
  0
LINE
  8
0
 10
-9.67516
 20
-165.51
 11
-9.63382
 21
-165.754
  0
LINE
  8
0
 10
-9.63382
 20
-165.754
 11
-9.62
 21
-166
  0
LINE
  8
0
 10
-9.62
 20
-166
 11
-9.63382
 21
-166.246
  0
LINE
  8
0
 10
-9.63382
 20
-166.246
 11
-9.67516
 21
-166.49
  0
LINE
  8
0
 10
-9.67516
 20
-166.49
 11
-9.74345
 21
-166.727
  0
LINE
  8
0
 10
-9.74345
 20
-166.727
 11
-9.83786
 21
-166.955
  0
LINE
  8
0
 10
-9.83786
 20
-166.955
 11
-9.9572
 21
-167.17
  0
LINE
  8
0
 10
-9.9572
 20
-167.17
 11
-10.1
 21
-167.372
  0
LINE
  8
0
 10
-10.1
 20
-167.372
 11
-10.2644
 21
-167.556
  0
LINE
  8
0
 10
-10.2644
 20
-167.556
 11
-10.4483
 21
-167.72
  0
LINE
  8
0
 10
-10.4483
 20
-167.72
 11
-10.6495
 21
-167.863
  0
LINE
  8
0
 10
-10.6495
 20
-167.863
 11
-10.8654
 21
-167.982
  0
LINE
  8
0
 10
-10.8654
 20
-167.982
 11
-11.0934
 21
-168.077
  0
LINE
  8
0
 10
-11.0934
 20
-168.077
 11
-11.3304
 21
-168.145
  0
LINE
  8
0
 10
-11.3304
 20
-168.145
 11
-11.5737
 21
-168.186
  0
LINE
  8
0
 10
-11.5737
 20
-168.186
 11
-11.82
 21
-168.2
  0
LINE
  8
0
 10
-11.82
 20
-168.2
 11
-12.0663
 21
-168.186
  0
LINE
  8
0
 10
219.691
 20
-174.172
 11
219.451
 21
-174.109
  0
LINE
  8
0
 10
219.451
 20
-174.109
 11
219.223
 21
-174.012
  0
LINE
  8
0
 10
219.223
 20
-174.012
 11
219.011
 21
-173.883
  0
LINE
  8
0
 10
219.011
 20
-173.883
 11
218.82
 21
-173.724
  0
LINE
  8
0
 10
218.82
 20
-173.724
 11
218.654
 21
-173.539
  0
LINE
  8
0
 10
218.654
 20
-173.539
 11
218.518
 21
-173.332
  0
LINE
  8
0
 10
218.518
 20
-173.332
 11
218.412
 21
-173.107
  0
LINE
  8
0
 10
218.412
 20
-173.107
 11
218.341
 21
-172.87
  0
LINE
  8
0
 10
218.341
 20
-172.87
 11
218.305
 21
-172.624
  0
LINE
  8
0
 10
218.305
 20
-172.624
 11
218.305
 21
-172.376
  0
LINE
  8
0
 10
218.305
 20
-172.376
 11
218.341
 21
-172.13
  0
LINE
  8
0
 10
218.341
 20
-172.13
 11
218.412
 21
-171.893
  0
LINE
  8
0
 10
218.412
 20
-171.893
 11
218.518
 21
-171.668
  0
LINE
  8
0
 10
218.518
 20
-171.668
 11
218.654
 21
-171.461
  0
LINE
  8
0
 10
218.654
 20
-171.461
 11
218.82
 21
-171.276
  0
LINE
  8
0
 10
218.82
 20
-171.276
 11
219.011
 21
-171.117
  0
LINE
  8
0
 10
219.011
 20
-171.117
 11
219.223
 21
-170.988
  0
LINE
  8
0
 10
219.223
 20
-170.988
 11
219.451
 21
-170.891
  0
LINE
  8
0
 10
219.451
 20
-170.891
 11
219.691
 21
-170.828
  0
LINE
  8
0
 10
219.691
 20
-170.828
 11
219.938
 21
-170.801
  0
LINE
  8
0
 10
219.938
 20
-170.801
 11
220.186
 21
-170.81
  0
LINE
  8
0
 10
220.186
 20
-170.81
 11
220.43
 21
-170.855
  0
LINE
  8
0
 10
220.43
 20
-170.855
 11
220.665
 21
-170.935
  0
LINE
  8
0
 10
220.665
 20
-170.935
 11
220.886
 21
-171.049
  0
LINE
  8
0
 10
220.886
 20
-171.049
 11
221.087
 21
-171.193
  0
LINE
  8
0
 10
221.087
 20
-171.193
 11
221.266
 21
-171.366
  0
LINE
  8
0
 10
221.266
 20
-171.366
 11
221.418
 21
-171.562
  0
LINE
  8
0
 10
221.418
 20
-171.562
 11
221.539
 21
-171.778
  0
LINE
  8
0
 10
221.539
 20
-171.778
 11
221.628
 21
-172.01
  0
LINE
  8
0
 10
221.628
 20
-172.01
 11
221.682
 21
-172.252
  0
LINE
  8
0
 10
221.682
 20
-172.252
 11
221.7
 21
-172.5
  0
LINE
  8
0
 10
221.7
 20
-172.5
 11
221.682
 21
-172.748
  0
LINE
  8
0
 10
221.682
 20
-172.748
 11
221.628
 21
-172.99
  0
LINE
  8
0
 10
221.628
 20
-172.99
 11
221.539
 21
-173.222
  0
LINE
  8
0
 10
221.539
 20
-173.222
 11
221.418
 21
-173.438
  0
LINE
  8
0
 10
221.418
 20
-173.438
 11
221.266
 21
-173.634
  0
LINE
  8
0
 10
221.266
 20
-173.634
 11
221.087
 21
-173.807
  0
LINE
  8
0
 10
221.087
 20
-173.807
 11
220.886
 21
-173.951
  0
LINE
  8
0
 10
220.886
 20
-173.951
 11
220.665
 21
-174.065
  0
LINE
  8
0
 10
220.665
 20
-174.065
 11
220.43
 21
-174.145
  0
LINE
  8
0
 10
220.43
 20
-174.145
 11
220.186
 21
-174.19
  0
LINE
  8
0
 10
220.186
 20
-174.19
 11
219.938
 21
-174.199
  0
LINE
  8
0
 10
219.938
 20
-174.199
 11
219.691
 21
-174.172
  0
LINE
  8
0
 10
-220.186
 20
-174.19
 11
-220.43
 21
-174.145
  0
LINE
  8
0
 10
-220.43
 20
-174.145
 11
-220.665
 21
-174.065
  0
LINE
  8
0
 10
-220.665
 20
-174.065
 11
-220.886
 21
-173.951
  0
LINE
  8
0
 10
-220.886
 20
-173.951
 11
-221.087
 21
-173.807
  0
LINE
  8
0
 10
-221.087
 20
-173.807
 11
-221.266
 21
-173.634
  0
LINE
  8
0
 10
-221.266
 20
-173.634
 11
-221.418
 21
-173.438
  0
LINE
  8
0
 10
-221.418
 20
-173.438
 11
-221.539
 21
-173.222
  0
LINE
  8
0
 10
-221.539
 20
-173.222
 11
-221.628
 21
-172.99
  0
LINE
  8
0
 10
-221.628
 20
-172.99
 11
-221.682
 21
-172.748
  0
LINE
  8
0
 10
-221.682
 20
-172.748
 11
-221.7
 21
-172.5
  0
LINE
  8
0
 10
-221.7
 20
-172.5
 11
-221.682
 21
-172.252
  0
LINE
  8
0
 10
-221.682
 20
-172.252
 11
-221.628
 21
-172.01
  0
LINE
  8
0
 10
-221.628
 20
-172.01
 11
-221.539
 21
-171.778
  0
LINE
  8
0
 10
-221.539
 20
-171.778
 11
-221.418
 21
-171.562
  0
LINE
  8
0
 10
-221.418
 20
-171.562
 11
-221.266
 21
-171.366
  0
LINE
  8
0
 10
-221.266
 20
-171.366
 11
-221.087
 21
-171.193
  0
LINE
  8
0
 10
-221.087
 20
-171.193
 11
-220.886
 21
-171.049
  0
LINE
  8
0
 10
-220.886
 20
-171.049
 11
-220.665
 21
-170.935
  0
LINE
  8
0
 10
-220.665
 20
-170.935
 11
-220.43
 21
-170.855
  0
LINE
  8
0
 10
-220.43
 20
-170.855
 11
-220.186
 21
-170.81
  0
LINE
  8
0
 10
-220.186
 20
-170.81
 11
-219.938
 21
-170.801
  0
LINE
  8
0
 10
-219.938
 20
-170.801
 11
-219.691
 21
-170.828
  0
LINE
  8
0
 10
-219.691
 20
-170.828
 11
-219.451
 21
-170.891
  0
LINE
  8
0
 10
-219.451
 20
-170.891
 11
-219.223
 21
-170.988
  0
LINE
  8
0
 10
-219.223
 20
-170.988
 11
-219.011
 21
-171.117
  0
LINE
  8
0
 10
-219.011
 20
-171.117
 11
-218.82
 21
-171.276
  0
LINE
  8
0
 10
-218.82
 20
-171.276
 11
-218.654
 21
-171.461
  0
LINE
  8
0
 10
-218.654
 20
-171.461
 11
-218.518
 21
-171.668
  0
LINE
  8
0
 10
-218.518
 20
-171.668
 11
-218.412
 21
-171.893
  0
LINE
  8
0
 10
-218.412
 20
-171.893
 11
-218.341
 21
-172.13
  0
LINE
  8
0
 10
-218.341
 20
-172.13
 11
-218.305
 21
-172.376
  0
LINE
  8
0
 10
-218.305
 20
-172.376
 11
-218.305
 21
-172.624
  0
LINE
  8
0
 10
-218.305
 20
-172.624
 11
-218.341
 21
-172.87
  0
LINE
  8
0
 10
-218.341
 20
-172.87
 11
-218.412
 21
-173.107
  0
LINE
  8
0
 10
-218.412
 20
-173.107
 11
-218.518
 21
-173.332
  0
LINE
  8
0
 10
-218.518
 20
-173.332
 11
-218.654
 21
-173.539
  0
LINE
  8
0
 10
-218.654
 20
-173.539
 11
-218.82
 21
-173.724
  0
LINE
  8
0
 10
-218.82
 20
-173.724
 11
-219.011
 21
-173.883
  0
LINE
  8
0
 10
-219.011
 20
-173.883
 11
-219.223
 21
-174.012
  0
LINE
  8
0
 10
-219.223
 20
-174.012
 11
-219.451
 21
-174.109
  0
LINE
  8
0
 10
-219.451
 20
-174.109
 11
-219.691
 21
-174.172
  0
LINE
  8
0
 10
-219.691
 20
-174.172
 11
-219.938
 21
-174.199
  0
LINE
  8
0
 10
-219.938
 20
-174.199
 11
-220.186
 21
-174.19
  0
LINE
  8
0
 10
-220.392
 20
-218.729
 11
-220.78
 21
-218.668
  0
LINE
  8
0
 10
-220.78
 20
-218.668
 11
-221.159
 21
-218.566
  0
LINE
  8
0
 10
-221.159
 20
-218.566
 11
-221.525
 21
-218.426
  0
LINE
  8
0
 10
-221.525
 20
-218.426
 11
-221.875
 21
-218.248
  0
LINE
  8
0
 10
-221.875
 20
-218.248
 11
-222.204
 21
-218.034
  0
LINE
  8
0
 10
-222.204
 20
-218.034
 11
-222.509
 21
-217.787
  0
LINE
  8
0
 10
-222.509
 20
-217.787
 11
-222.787
 21
-217.509
  0
LINE
  8
0
 10
-222.787
 20
-217.509
 11
-223.034
 21
-217.204
  0
LINE
  8
0
 10
-223.034
 20
-217.204
 11
-223.248
 21
-216.875
  0
LINE
  8
0
 10
-223.248
 20
-216.875
 11
-223.426
 21
-216.525
  0
LINE
  8
0
 10
-223.426
 20
-216.525
 11
-223.566
 21
-216.159
  0
LINE
  8
0
 10
-223.566
 20
-216.159
 11
-223.668
 21
-215.78
  0
LINE
  8
0
 10
-223.668
 20
-215.78
 11
-223.729
 21
-215.392
  0
LINE
  8
0
 10
-223.729
 20
-215.392
 11
-223.75
 21
-215
  0
LINE
  8
0
 10
-223.75
 20
-215
 11
-223.729
 21
-214.608
  0
LINE
  8
0
 10
-223.729
 20
-214.608
 11
-223.668
 21
-214.22
  0
LINE
  8
0
 10
-223.668
 20
-214.22
 11
-223.566
 21
-213.841
  0
LINE
  8
0
 10
-223.566
 20
-213.841
 11
-223.426
 21
-213.475
  0
LINE
  8
0
 10
-223.426
 20
-213.475
 11
-223.248
 21
-213.125
  0
LINE
  8
0
 10
-223.248
 20
-213.125
 11
-223.034
 21
-212.796
  0
LINE
  8
0
 10
-223.034
 20
-212.796
 11
-222.787
 21
-212.491
  0
LINE
  8
0
 10
-222.787
 20
-212.491
 11
-222.509
 21
-212.213
  0
LINE
  8
0
 10
-222.509
 20
-212.213
 11
-222.204
 21
-211.966
  0
LINE
  8
0
 10
-222.204
 20
-211.966
 11
-221.875
 21
-211.752
  0
LINE
  8
0
 10
-221.875
 20
-211.752
 11
-221.525
 21
-211.574
  0
LINE
  8
0
 10
-221.525
 20
-211.574
 11
-221.159
 21
-211.434
  0
LINE
  8
0
 10
-221.159
 20
-211.434
 11
-220.78
 21
-211.332
  0
LINE
  8
0
 10
-220.78
 20
-211.332
 11
-220.392
 21
-211.271
  0
LINE
  8
0
 10
-220.392
 20
-211.271
 11
-220
 21
-211.25
  0
LINE
  8
0
 10
-220
 20
-211.25
 11
-219.608
 21
-211.271
  0
LINE
  8
0
 10
-219.608
 20
-211.271
 11
-219.22
 21
-211.332
  0
LINE
  8
0
 10
-219.22
 20
-211.332
 11
-218.841
 21
-211.434
  0
LINE
  8
0
 10
-218.841
 20
-211.434
 11
-218.475
 21
-211.574
  0
LINE
  8
0
 10
-218.475
 20
-211.574
 11
-218.125
 21
-211.752
  0
LINE
  8
0
 10
-218.125
 20
-211.752
 11
-217.796
 21
-211.966
  0
LINE
  8
0
 10
-217.796
 20
-211.966
 11
-217.491
 21
-212.213
  0
LINE
  8
0
 10
-217.491
 20
-212.213
 11
-217.213
 21
-212.491
  0
LINE
  8
0
 10
-217.213
 20
-212.491
 11
-216.966
 21
-212.796
  0
LINE
  8
0
 10
-216.966
 20
-212.796
 11
-216.752
 21
-213.125
  0
LINE
  8
0
 10
-216.752
 20
-213.125
 11
-216.574
 21
-213.475
  0
LINE
  8
0
 10
-216.574
 20
-213.475
 11
-216.434
 21
-213.841
  0
LINE
  8
0
 10
-216.434
 20
-213.841
 11
-216.332
 21
-214.22
  0
LINE
  8
0
 10
-216.332
 20
-214.22
 11
-216.271
 21
-214.608
  0
LINE
  8
0
 10
-216.271
 20
-214.608
 11
-216.25
 21
-215
  0
LINE
  8
0
 10
-216.25
 20
-215
 11
-216.271
 21
-215.392
  0
LINE
  8
0
 10
-216.271
 20
-215.392
 11
-216.332
 21
-215.78
  0
LINE
  8
0
 10
-216.332
 20
-215.78
 11
-216.434
 21
-216.159
  0
LINE
  8
0
 10
-216.434
 20
-216.159
 11
-216.574
 21
-216.525
  0
LINE
  8
0
 10
-216.574
 20
-216.525
 11
-216.752
 21
-216.875
  0
LINE
  8
0
 10
-216.752
 20
-216.875
 11
-216.966
 21
-217.204
  0
LINE
  8
0
 10
-216.966
 20
-217.204
 11
-217.213
 21
-217.509
  0
LINE
  8
0
 10
-217.213
 20
-217.509
 11
-217.491
 21
-217.787
  0
LINE
  8
0
 10
-217.491
 20
-217.787
 11
-217.796
 21
-218.034
  0
LINE
  8
0
 10
-217.796
 20
-218.034
 11
-218.125
 21
-218.248
  0
LINE
  8
0
 10
-218.125
 20
-218.248
 11
-218.475
 21
-218.426
  0
LINE
  8
0
 10
-218.475
 20
-218.426
 11
-218.841
 21
-218.566
  0
LINE
  8
0
 10
-218.841
 20
-218.566
 11
-219.22
 21
-218.668
  0
LINE
  8
0
 10
-219.22
 20
-218.668
 11
-219.608
 21
-218.729
  0
LINE
  8
0
 10
-219.608
 20
-218.729
 11
-220
 21
-218.75
  0
LINE
  8
0
 10
-220
 20
-218.75
 11
-220.392
 21
-218.729
  0
LINE
  8
0
 10
219.608
 20
-218.729
 11
219.22
 21
-218.668
  0
LINE
  8
0
 10
219.22
 20
-218.668
 11
218.841
 21
-218.566
  0
LINE
  8
0
 10
218.841
 20
-218.566
 11
218.475
 21
-218.426
  0
LINE
  8
0
 10
218.475
 20
-218.426
 11
218.125
 21
-218.248
  0
LINE
  8
0
 10
218.125
 20
-218.248
 11
217.796
 21
-218.034
  0
LINE
  8
0
 10
217.796
 20
-218.034
 11
217.491
 21
-217.787
  0
LINE
  8
0
 10
217.491
 20
-217.787
 11
217.213
 21
-217.509
  0
LINE
  8
0
 10
217.213
 20
-217.509
 11
216.966
 21
-217.204
  0
LINE
  8
0
 10
216.966
 20
-217.204
 11
216.752
 21
-216.875
  0
LINE
  8
0
 10
216.752
 20
-216.875
 11
216.574
 21
-216.525
  0
LINE
  8
0
 10
216.574
 20
-216.525
 11
216.434
 21
-216.159
  0
LINE
  8
0
 10
216.434
 20
-216.159
 11
216.332
 21
-215.78
  0
LINE
  8
0
 10
216.332
 20
-215.78
 11
216.271
 21
-215.392
  0
LINE
  8
0
 10
216.271
 20
-215.392
 11
216.25
 21
-215
  0
LINE
  8
0
 10
216.25
 20
-215
 11
216.271
 21
-214.608
  0
LINE
  8
0
 10
216.271
 20
-214.608
 11
216.332
 21
-214.22
  0
LINE
  8
0
 10
216.332
 20
-214.22
 11
216.434
 21
-213.841
  0
LINE
  8
0
 10
216.434
 20
-213.841
 11
216.574
 21
-213.475
  0
LINE
  8
0
 10
216.574
 20
-213.475
 11
216.752
 21
-213.125
  0
LINE
  8
0
 10
216.752
 20
-213.125
 11
216.966
 21
-212.796
  0
LINE
  8
0
 10
216.966
 20
-212.796
 11
217.213
 21
-212.491
  0
LINE
  8
0
 10
217.213
 20
-212.491
 11
217.491
 21
-212.213
  0
LINE
  8
0
 10
217.491
 20
-212.213
 11
217.796
 21
-211.966
  0
LINE
  8
0
 10
217.796
 20
-211.966
 11
218.125
 21
-211.752
  0
LINE
  8
0
 10
218.125
 20
-211.752
 11
218.475
 21
-211.574
  0
LINE
  8
0
 10
218.475
 20
-211.574
 11
218.841
 21
-211.434
  0
LINE
  8
0
 10
218.841
 20
-211.434
 11
219.22
 21
-211.332
  0
LINE
  8
0
 10
219.22
 20
-211.332
 11
219.608
 21
-211.271
  0
LINE
  8
0
 10
219.608
 20
-211.271
 11
220
 21
-211.25
  0
LINE
  8
0
 10
220
 20
-211.25
 11
220.392
 21
-211.271
  0
LINE
  8
0
 10
220.392
 20
-211.271
 11
220.78
 21
-211.332
  0
LINE
  8
0
 10
220.78
 20
-211.332
 11
221.159
 21
-211.434
  0
LINE
  8
0
 10
221.159
 20
-211.434
 11
221.525
 21
-211.574
  0
LINE
  8
0
 10
221.525
 20
-211.574
 11
221.875
 21
-211.752
  0
LINE
  8
0
 10
221.875
 20
-211.752
 11
222.204
 21
-211.966
  0
LINE
  8
0
 10
222.204
 20
-211.966
 11
222.509
 21
-212.213
  0
LINE
  8
0
 10
222.509
 20
-212.213
 11
222.787
 21
-212.491
  0
LINE
  8
0
 10
222.787
 20
-212.491
 11
223.034
 21
-212.796
  0
LINE
  8
0
 10
223.034
 20
-212.796
 11
223.248
 21
-213.125
  0
LINE
  8
0
 10
223.248
 20
-213.125
 11
223.426
 21
-213.475
  0
LINE
  8
0
 10
223.426
 20
-213.475
 11
223.566
 21
-213.841
  0
LINE
  8
0
 10
223.566
 20
-213.841
 11
223.668
 21
-214.22
  0
LINE
  8
0
 10
223.668
 20
-214.22
 11
223.729
 21
-214.608
  0
LINE
  8
0
 10
223.729
 20
-214.608
 11
223.75
 21
-215
  0
LINE
  8
0
 10
223.75
 20
-215
 11
223.729
 21
-215.392
  0
LINE
  8
0
 10
223.729
 20
-215.392
 11
223.668
 21
-215.78
  0
LINE
  8
0
 10
223.668
 20
-215.78
 11
223.566
 21
-216.159
  0
LINE
  8
0
 10
223.566
 20
-216.159
 11
223.426
 21
-216.525
  0
LINE
  8
0
 10
223.426
 20
-216.525
 11
223.248
 21
-216.875
  0
LINE
  8
0
 10
223.248
 20
-216.875
 11
223.034
 21
-217.204
  0
LINE
  8
0
 10
223.034
 20
-217.204
 11
222.787
 21
-217.509
  0
LINE
  8
0
 10
222.787
 20
-217.509
 11
222.509
 21
-217.787
  0
LINE
  8
0
 10
222.509
 20
-217.787
 11
222.204
 21
-218.034
  0
LINE
  8
0
 10
222.204
 20
-218.034
 11
221.875
 21
-218.248
  0
LINE
  8
0
 10
221.875
 20
-218.248
 11
221.525
 21
-218.426
  0
LINE
  8
0
 10
221.525
 20
-218.426
 11
221.159
 21
-218.566
  0
LINE
  8
0
 10
221.159
 20
-218.566
 11
220.78
 21
-218.668
  0
LINE
  8
0
 10
220.78
 20
-218.668
 11
220.392
 21
-218.729
  0
LINE
  8
0
 10
220.392
 20
-218.729
 11
220
 21
-218.75
  0
LINE
  8
0
 10
220
 20
-218.75
 11
219.608
 21
-218.729
  0
LINE
  8
0
 10
-177.809
 20
-216.672
 11
-178.049
 21
-216.609
  0
LINE
  8
0
 10
-178.049
 20
-216.609
 11
-178.277
 21
-216.512
  0
LINE
  8
0
 10
-178.277
 20
-216.512
 11
-178.489
 21
-216.383
  0
LINE
  8
0
 10
-178.489
 20
-216.383
 11
-178.68
 21
-216.224
  0
LINE
  8
0
 10
-178.68
 20
-216.224
 11
-178.846
 21
-216.039
  0
LINE
  8
0
 10
-178.846
 20
-216.039
 11
-178.982
 21
-215.832
  0
LINE
  8
0
 10
-178.982
 20
-215.832
 11
-179.088
 21
-215.607
  0
LINE
  8
0
 10
-179.088
 20
-215.607
 11
-179.159
 21
-215.37
  0
LINE
  8
0
 10
-179.159
 20
-215.37
 11
-179.195
 21
-215.124
  0
LINE
  8
0
 10
-179.195
 20
-215.124
 11
-179.195
 21
-214.876
  0
LINE
  8
0
 10
-179.195
 20
-214.876
 11
-179.159
 21
-214.63
  0
LINE
  8
0
 10
-179.159
 20
-214.63
 11
-179.088
 21
-214.393
  0
LINE
  8
0
 10
-179.088
 20
-214.393
 11
-178.982
 21
-214.168
  0
LINE
  8
0
 10
-178.982
 20
-214.168
 11
-178.846
 21
-213.961
  0
LINE
  8
0
 10
-178.846
 20
-213.961
 11
-178.68
 21
-213.776
  0
LINE
  8
0
 10
-178.68
 20
-213.776
 11
-178.489
 21
-213.617
  0
LINE
  8
0
 10
-178.489
 20
-213.617
 11
-178.277
 21
-213.488
  0
LINE
  8
0
 10
-178.277
 20
-213.488
 11
-178.049
 21
-213.391
  0
LINE
  8
0
 10
-178.049
 20
-213.391
 11
-177.809
 21
-213.328
  0
LINE
  8
0
 10
-177.809
 20
-213.328
 11
-177.562
 21
-213.301
  0
LINE
  8
0
 10
-177.562
 20
-213.301
 11
-177.314
 21
-213.31
  0
LINE
  8
0
 10
-177.314
 20
-213.31
 11
-177.07
 21
-213.355
  0
LINE
  8
0
 10
-177.07
 20
-213.355
 11
-176.835
 21
-213.435
  0
LINE
  8
0
 10
-176.835
 20
-213.435
 11
-176.614
 21
-213.549
  0
LINE
  8
0
 10
-176.614
 20
-213.549
 11
-176.413
 21
-213.693
  0
LINE
  8
0
 10
-176.413
 20
-213.693
 11
-176.234
 21
-213.866
  0
LINE
  8
0
 10
-176.234
 20
-213.866
 11
-176.082
 21
-214.062
  0
LINE
  8
0
 10
-176.082
 20
-214.062
 11
-175.961
 21
-214.278
  0
LINE
  8
0
 10
-175.961
 20
-214.278
 11
-175.872
 21
-214.51
  0
LINE
  8
0
 10
-175.872
 20
-214.51
 11
-175.818
 21
-214.752
  0
LINE
  8
0
 10
-175.818
 20
-214.752
 11
-175.8
 21
-215
  0
LINE
  8
0
 10
-175.8
 20
-215
 11
-175.818
 21
-215.248
  0
LINE
  8
0
 10
-175.818
 20
-215.248
 11
-175.872
 21
-215.49
  0
LINE
  8
0
 10
-175.872
 20
-215.49
 11
-175.961
 21
-215.722
  0
LINE
  8
0
 10
-175.961
 20
-215.722
 11
-176.082
 21
-215.938
  0
LINE
  8
0
 10
-176.082
 20
-215.938
 11
-176.234
 21
-216.134
  0
LINE
  8
0
 10
-176.234
 20
-216.134
 11
-176.413
 21
-216.307
  0
LINE
  8
0
 10
-176.413
 20
-216.307
 11
-176.614
 21
-216.451
  0
LINE
  8
0
 10
-176.614
 20
-216.451
 11
-176.835
 21
-216.565
  0
LINE
  8
0
 10
-176.835
 20
-216.565
 11
-177.07
 21
-216.645
  0
LINE
  8
0
 10
-177.07
 20
-216.645
 11
-177.314
 21
-216.69
  0
LINE
  8
0
 10
-177.314
 20
-216.69
 11
-177.562
 21
-216.699
  0
LINE
  8
0
 10
-177.562
 20
-216.699
 11
-177.809
 21
-216.672
  0
LINE
  8
0
 10
177.191
 20
-216.672
 11
176.951
 21
-216.609
  0
LINE
  8
0
 10
176.951
 20
-216.609
 11
176.723
 21
-216.512
  0
LINE
  8
0
 10
176.723
 20
-216.512
 11
176.511
 21
-216.383
  0
LINE
  8
0
 10
176.511
 20
-216.383
 11
176.32
 21
-216.224
  0
LINE
  8
0
 10
176.32
 20
-216.224
 11
176.154
 21
-216.039
  0
LINE
  8
0
 10
176.154
 20
-216.039
 11
176.018
 21
-215.832
  0
LINE
  8
0
 10
176.018
 20
-215.832
 11
175.912
 21
-215.607
  0
LINE
  8
0
 10
175.912
 20
-215.607
 11
175.841
 21
-215.37
  0
LINE
  8
0
 10
175.841
 20
-215.37
 11
175.805
 21
-215.124
  0
LINE
  8
0
 10
175.805
 20
-215.124
 11
175.805
 21
-214.876
  0
LINE
  8
0
 10
175.805
 20
-214.876
 11
175.841
 21
-214.63
  0
LINE
  8
0
 10
175.841
 20
-214.63
 11
175.912
 21
-214.393
  0
LINE
  8
0
 10
175.912
 20
-214.393
 11
176.018
 21
-214.168
  0
LINE
  8
0
 10
176.018
 20
-214.168
 11
176.154
 21
-213.961
  0
LINE
  8
0
 10
176.154
 20
-213.961
 11
176.32
 21
-213.776
  0
LINE
  8
0
 10
176.32
 20
-213.776
 11
176.511
 21
-213.617
  0
LINE
  8
0
 10
176.511
 20
-213.617
 11
176.723
 21
-213.488
  0
LINE
  8
0
 10
176.723
 20
-213.488
 11
176.951
 21
-213.391
  0
LINE
  8
0
 10
176.951
 20
-213.391
 11
177.191
 21
-213.328
  0
LINE
  8
0
 10
177.191
 20
-213.328
 11
177.438
 21
-213.301
  0
LINE
  8
0
 10
177.438
 20
-213.301
 11
177.686
 21
-213.31
  0
LINE
  8
0
 10
177.686
 20
-213.31
 11
177.93
 21
-213.355
  0
LINE
  8
0
 10
177.93
 20
-213.355
 11
178.165
 21
-213.435
  0
LINE
  8
0
 10
178.165
 20
-213.435
 11
178.386
 21
-213.549
  0
LINE
  8
0
 10
178.386
 20
-213.549
 11
178.587
 21
-213.693
  0
LINE
  8
0
 10
178.587
 20
-213.693
 11
178.766
 21
-213.866
  0
LINE
  8
0
 10
178.766
 20
-213.866
 11
178.918
 21
-214.062
  0
LINE
  8
0
 10
178.918
 20
-214.062
 11
179.039
 21
-214.278
  0
LINE
  8
0
 10
179.039
 20
-214.278
 11
179.128
 21
-214.51
  0
LINE
  8
0
 10
179.128
 20
-214.51
 11
179.182
 21
-214.752
  0
LINE
  8
0
 10
179.182
 20
-214.752
 11
179.2
 21
-215
  0
LINE
  8
0
 10
179.2
 20
-215
 11
179.182
 21
-215.248
  0
LINE
  8
0
 10
179.182
 20
-215.248
 11
179.128
 21
-215.49
  0
LINE
  8
0
 10
179.128
 20
-215.49
 11
179.039
 21
-215.722
  0
LINE
  8
0
 10
179.039
 20
-215.722
 11
178.918
 21
-215.938
  0
LINE
  8
0
 10
178.918
 20
-215.938
 11
178.766
 21
-216.134
  0
LINE
  8
0
 10
178.766
 20
-216.134
 11
178.587
 21
-216.307
  0
LINE
  8
0
 10
178.587
 20
-216.307
 11
178.386
 21
-216.451
  0
LINE
  8
0
 10
178.386
 20
-216.451
 11
178.165
 21
-216.565
  0
LINE
  8
0
 10
178.165
 20
-216.565
 11
177.93
 21
-216.645
  0
LINE
  8
0
 10
177.93
 20
-216.645
 11
177.686
 21
-216.69
  0
LINE
  8
0
 10
177.686
 20
-216.69
 11
177.438
 21
-216.699
  0
LINE
  8
0
 10
177.438
 20
-216.699
 11
177.191
 21
-216.672
  0
LINE
  8
0
 10
88.4412
 20
-216.672
 11
88.2011
 21
-216.609
  0
LINE
  8
0
 10
88.2011
 20
-216.609
 11
87.9727
 21
-216.512
  0
LINE
  8
0
 10
87.9727
 20
-216.512
 11
87.7608
 21
-216.383
  0
LINE
  8
0
 10
87.7608
 20
-216.383
 11
87.5701
 21
-216.224
  0
LINE
  8
0
 10
87.5701
 20
-216.224
 11
87.4044
 21
-216.039
  0
LINE
  8
0
 10
87.4044
 20
-216.039
 11
87.2675
 21
-215.832
  0
LINE
  8
0
 10
87.2675
 20
-215.832
 11
87.1622
 21
-215.607
  0
LINE
  8
0
 10
87.1622
 20
-215.607
 11
87.0907
 21
-215.37
  0
LINE
  8
0
 10
87.0907
 20
-215.37
 11
87.0545
 21
-215.124
  0
LINE
  8
0
 10
87.0545
 20
-215.124
 11
87.0545
 21
-214.876
  0
LINE
  8
0
 10
87.0545
 20
-214.876
 11
87.0907
 21
-214.63
  0
LINE
  8
0
 10
87.0907
 20
-214.63
 11
87.1622
 21
-214.393
  0
LINE
  8
0
 10
87.1622
 20
-214.393
 11
87.2675
 21
-214.168
  0
LINE
  8
0
 10
87.2675
 20
-214.168
 11
87.4044
 21
-213.961
  0
LINE
  8
0
 10
87.4044
 20
-213.961
 11
87.5701
 21
-213.776
  0
LINE
  8
0
 10
87.5701
 20
-213.776
 11
87.7608
 21
-213.617
  0
LINE
  8
0
 10
87.7608
 20
-213.617
 11
87.9727
 21
-213.488
  0
LINE
  8
0
 10
87.9727
 20
-213.488
 11
88.2011
 21
-213.391
  0
LINE
  8
0
 10
88.2011
 20
-213.391
 11
88.4412
 21
-213.328
  0
LINE
  8
0
 10
88.4412
 20
-213.328
 11
88.6879
 21
-213.301
  0
LINE
  8
0
 10
88.6879
 20
-213.301
 11
88.9359
 21
-213.31
  0
LINE
  8
0
 10
88.9359
 20
-213.31
 11
89.18
 21
-213.355
  0
LINE
  8
0
 10
89.18
 20
-213.355
 11
89.4149
 21
-213.435
  0
LINE
  8
0
 10
89.4149
 20
-213.435
 11
89.6356
 21
-213.549
  0
LINE
  8
0
 10
89.6356
 20
-213.549
 11
89.8374
 21
-213.693
  0
LINE
  8
0
 10
89.8374
 20
-213.693
 11
90.0161
 21
-213.866
  0
LINE
  8
0
 10
90.0161
 20
-213.866
 11
90.1678
 21
-214.062
  0
LINE
  8
0
 10
90.1678
 20
-214.062
 11
90.2893
 21
-214.278
  0
LINE
  8
0
 10
90.2893
 20
-214.278
 11
90.3779
 21
-214.51
  0
LINE
  8
0
 10
90.3779
 20
-214.51
 11
90.4319
 21
-214.752
  0
LINE
  8
0
 10
90.4319
 20
-214.752
 11
90.45
 21
-215
  0
LINE
  8
0
 10
90.45
 20
-215
 11
90.4319
 21
-215.248
  0
LINE
  8
0
 10
90.4319
 20
-215.248
 11
90.3779
 21
-215.49
  0
LINE
  8
0
 10
90.3779
 20
-215.49
 11
90.2893
 21
-215.722
  0
LINE
  8
0
 10
90.2893
 20
-215.722
 11
90.1678
 21
-215.938
  0
LINE
  8
0
 10
90.1678
 20
-215.938
 11
90.0161
 21
-216.134
  0
LINE
  8
0
 10
90.0161
 20
-216.134
 11
89.8374
 21
-216.307
  0
LINE
  8
0
 10
89.8374
 20
-216.307
 11
89.6356
 21
-216.451
  0
LINE
  8
0
 10
89.6356
 20
-216.451
 11
89.4149
 21
-216.565
  0
LINE
  8
0
 10
89.4149
 20
-216.565
 11
89.18
 21
-216.645
  0
LINE
  8
0
 10
89.18
 20
-216.645
 11
88.9359
 21
-216.69
  0
LINE
  8
0
 10
88.9359
 20
-216.69
 11
88.6879
 21
-216.699
  0
LINE
  8
0
 10
88.6879
 20
-216.699
 11
88.4412
 21
-216.672
  0
LINE
  8
0
 10
-0.308777
 20
-216.672
 11
-0.548889
 21
-216.609
  0
LINE
  8
0
 10
-0.548889
 20
-216.609
 11
-0.777298
 21
-216.512
  0
LINE
  8
0
 10
-0.777298
 20
-216.512
 11
-0.989151
 21
-216.383
  0
LINE
  8
0
 10
-0.989151
 20
-216.383
 11
-1.17992
 21
-216.224
  0
LINE
  8
0
 10
-1.17992
 20
-216.224
 11
-1.34554
 21
-216.039
  0
LINE
  8
0
 10
-1.34554
 20
-216.039
 11
-1.48248
 21
-215.832
  0
LINE
  8
0
 10
-1.48248
 20
-215.832
 11
-1.58781
 21
-215.607
  0
LINE
  8
0
 10
-1.58781
 20
-215.607
 11
-1.65932
 21
-215.37
  0
LINE
  8
0
 10
-1.65932
 20
-215.37
 11
-1.69545
 21
-215.124
  0
LINE
  8
0
 10
-1.69545
 20
-215.124
 11
-1.69545
 21
-214.876
  0
LINE
  8
0
 10
-1.69545
 20
-214.876
 11
-1.65932
 21
-214.63
  0
LINE
  8
0
 10
-1.65932
 20
-214.63
 11
-1.58781
 21
-214.393
  0
LINE
  8
0
 10
-1.58781
 20
-214.393
 11
-1.48248
 21
-214.168
  0
LINE
  8
0
 10
-1.48248
 20
-214.168
 11
-1.34554
 21
-213.961
  0
LINE
  8
0
 10
-1.34554
 20
-213.961
 11
-1.17992
 21
-213.776
  0
LINE
  8
0
 10
-1.17992
 20
-213.776
 11
-0.989151
 21
-213.617
  0
LINE
  8
0
 10
-0.989151
 20
-213.617
 11
-0.777298
 21
-213.488
  0
LINE
  8
0
 10
-0.777298
 20
-213.488
 11
-0.548889
 21
-213.391
  0
LINE
  8
0
 10
-0.548889
 20
-213.391
 11
-0.308777
 21
-213.328
  0
LINE
  8
0
 10
-0.308777
 20
-213.328
 11
-0.0620728
 21
-213.301
  0
LINE
  8
0
 10
-0.0620728
 20
-213.301
 11
0.185928
 21
-213.31
  0
LINE
  8
0
 10
0.185928
 20
-213.31
 11
0.429977
 21
-213.355
  0
LINE
  8
0
 10
0.429977
 20
-213.355
 11
0.664871
 21
-213.435
  0
LINE
  8
0
 10
0.664871
 20
-213.435
 11
0.88559
 21
-213.549
  0
LINE
  8
0
 10
0.88559
 20
-213.549
 11
1.08743
 21
-213.693
  0
LINE
  8
0
 10
1.08743
 20
-213.693
 11
1.2661
 21
-213.866
  0
LINE
  8
0
 10
1.2661
 20
-213.866
 11
1.41779
 21
-214.062
  0
LINE
  8
0
 10
1.41779
 20
-214.062
 11
1.53926
 21
-214.278
  0
LINE
  8
0
 10
1.53926
 20
-214.278
 11
1.62791
 21
-214.51
  0
LINE
  8
0
 10
1.62791
 20
-214.51
 11
1.68187
 21
-214.752
  0
LINE
  8
0
 10
1.68187
 20
-214.752
 11
1.7
 21
-215
  0
LINE
  8
0
 10
1.7
 20
-215
 11
1.68187
 21
-215.248
  0
LINE
  8
0
 10
1.68187
 20
-215.248
 11
1.62791
 21
-215.49
  0
LINE
  8
0
 10
1.62791
 20
-215.49
 11
1.53926
 21
-215.722
  0
LINE
  8
0
 10
1.53926
 20
-215.722
 11
1.41779
 21
-215.938
  0
LINE
  8
0
 10
1.41779
 20
-215.938
 11
1.2661
 21
-216.134
  0
LINE
  8
0
 10
1.2661
 20
-216.134
 11
1.08743
 21
-216.307
  0
LINE
  8
0
 10
1.08743
 20
-216.307
 11
0.88559
 21
-216.451
  0
LINE
  8
0
 10
0.88559
 20
-216.451
 11
0.664871
 21
-216.565
  0
LINE
  8
0
 10
0.664871
 20
-216.565
 11
0.429977
 21
-216.645
  0
LINE
  8
0
 10
0.429977
 20
-216.645
 11
0.185928
 21
-216.69
  0
LINE
  8
0
 10
0.185928
 20
-216.69
 11
-0.0620728
 21
-216.699
  0
LINE
  8
0
 10
-0.0620728
 20
-216.699
 11
-0.308777
 21
-216.672
  0
LINE
  8
0
 10
-89.0588
 20
-216.672
 11
-89.2989
 21
-216.609
  0
LINE
  8
0
 10
-89.2989
 20
-216.609
 11
-89.5273
 21
-216.512
  0
LINE
  8
0
 10
-89.5273
 20
-216.512
 11
-89.7392
 21
-216.383
  0
LINE
  8
0
 10
-89.7392
 20
-216.383
 11
-89.9299
 21
-216.224
  0
LINE
  8
0
 10
-89.9299
 20
-216.224
 11
-90.0955
 21
-216.039
  0
LINE
  8
0
 10
-90.0955
 20
-216.039
 11
-90.2325
 21
-215.832
  0
LINE
  8
0
 10
-90.2325
 20
-215.832
 11
-90.3378
 21
-215.607
  0
LINE
  8
0
 10
-90.3378
 20
-215.607
 11
-90.4093
 21
-215.37
  0
LINE
  8
0
 10
-90.4093
 20
-215.37
 11
-90.4455
 21
-215.124
  0
LINE
  8
0
 10
-90.4455
 20
-215.124
 11
-90.4455
 21
-214.876
  0
LINE
  8
0
 10
-90.4455
 20
-214.876
 11
-90.4093
 21
-214.63
  0
LINE
  8
0
 10
-90.4093
 20
-214.63
 11
-90.3378
 21
-214.393
  0
LINE
  8
0
 10
-90.3378
 20
-214.393
 11
-90.2325
 21
-214.168
  0
LINE
  8
0
 10
-90.2325
 20
-214.168
 11
-90.0955
 21
-213.961
  0
LINE
  8
0
 10
-90.0955
 20
-213.961
 11
-89.9299
 21
-213.776
  0
LINE
  8
0
 10
-89.9299
 20
-213.776
 11
-89.7392
 21
-213.617
  0
LINE
  8
0
 10
-89.7392
 20
-213.617
 11
-89.5273
 21
-213.488
  0
LINE
  8
0
 10
-89.5273
 20
-213.488
 11
-89.2989
 21
-213.391
  0
LINE
  8
0
 10
-89.2989
 20
-213.391
 11
-89.0588
 21
-213.328
  0
LINE
  8
0
 10
-89.0588
 20
-213.328
 11
-88.8121
 21
-213.301
  0
LINE
  8
0
 10
-88.8121
 20
-213.301
 11
-88.5641
 21
-213.31
  0
LINE
  8
0
 10
-88.5641
 20
-213.31
 11
-88.32
 21
-213.355
  0
LINE
  8
0
 10
-88.32
 20
-213.355
 11
-88.0851
 21
-213.435
  0
LINE
  8
0
 10
-88.0851
 20
-213.435
 11
-87.8644
 21
-213.549
  0
LINE
  8
0
 10
-87.8644
 20
-213.549
 11
-87.6626
 21
-213.693
  0
LINE
  8
0
 10
-87.6626
 20
-213.693
 11
-87.4839
 21
-213.866
  0
LINE
  8
0
 10
-87.4839
 20
-213.866
 11
-87.3322
 21
-214.062
  0
LINE
  8
0
 10
-87.3322
 20
-214.062
 11
-87.2107
 21
-214.278
  0
LINE
  8
0
 10
-87.2107
 20
-214.278
 11
-87.1221
 21
-214.51
  0
LINE
  8
0
 10
-87.1221
 20
-214.51
 11
-87.0681
 21
-214.752
  0
LINE
  8
0
 10
-87.0681
 20
-214.752
 11
-87.05
 21
-215
  0
LINE
  8
0
 10
-87.05
 20
-215
 11
-87.0681
 21
-215.248
  0
LINE
  8
0
 10
-87.0681
 20
-215.248
 11
-87.1221
 21
-215.49
  0
LINE
  8
0
 10
-87.1221
 20
-215.49
 11
-87.2107
 21
-215.722
  0
LINE
  8
0
 10
-87.2107
 20
-215.722
 11
-87.3322
 21
-215.938
  0
LINE
  8
0
 10
-87.3322
 20
-215.938
 11
-87.4839
 21
-216.134
  0
LINE
  8
0
 10
-87.4839
 20
-216.134
 11
-87.6626
 21
-216.307
  0
LINE
  8
0
 10
-87.6626
 20
-216.307
 11
-87.8644
 21
-216.451
  0
LINE
  8
0
 10
-87.8644
 20
-216.451
 11
-88.0851
 21
-216.565
  0
LINE
  8
0
 10
-88.0851
 20
-216.565
 11
-88.32
 21
-216.645
  0
LINE
  8
0
 10
-88.32
 20
-216.645
 11
-88.5641
 21
-216.69
  0
LINE
  8
0
 10
-88.5641
 20
-216.69
 11
-88.8121
 21
-216.699
  0
LINE
  8
0
 10
-88.8121
 20
-216.699
 11
-89.0588
 21
-216.672
  0
ENDSEC
  0
SECTION
  2
OBJECTS
  0
DICTIONARY
  0
ENDSEC
  0
EOF
