  0
SECTION
  2
BLOCKS
  0
ENDSEC
  0
SECTION
  2
ENTITIES
  0
LINE
  8
0
 10
237.898
 20
-227.348
 11
238.415
 21
-227.266
  0
LINE
  8
0
 10
238.415
 20
-227.266
 11
238.92
 21
-227.13
  0
LINE
  8
0
 10
238.92
 20
-227.13
 11
239.409
 21
-226.943
  0
LINE
  8
0
 10
239.409
 20
-226.943
 11
239.875
 21
-226.705
  0
LINE
  8
0
 10
239.875
 20
-226.705
 11
240.314
 21
-226.42
  0
LINE
  8
0
 10
240.314
 20
-226.42
 11
240.721
 21
-226.091
  0
LINE
  8
0
 10
240.721
 20
-226.091
 11
241.091
 21
-225.721
  0
LINE
  8
0
 10
241.091
 20
-225.721
 11
241.42
 21
-225.314
  0
LINE
  8
0
 10
241.42
 20
-225.314
 11
241.705
 21
-224.875
  0
LINE
  8
0
 10
241.705
 20
-224.875
 11
241.943
 21
-224.409
  0
LINE
  8
0
 10
241.943
 20
-224.409
 11
242.13
 21
-223.92
  0
LINE
  8
0
 10
242.13
 20
-223.92
 11
242.266
 21
-223.415
  0
LINE
  8
0
 10
242.266
 20
-223.415
 11
242.348
 21
-222.898
  0
LINE
  8
0
 10
242.348
 20
-222.898
 11
242.375
 21
-222.375
  0
LINE
  8
0
 10
242.375
 20
-222.375
 11
242.375
 21
222.375
  0
LINE
  8
0
 10
242.375
 20
222.375
 11
242.348
 21
222.898
  0
LINE
  8
0
 10
242.348
 20
222.898
 11
242.266
 21
223.415
  0
LINE
  8
0
 10
242.266
 20
223.415
 11
242.13
 21
223.92
  0
LINE
  8
0
 10
242.13
 20
223.92
 11
241.943
 21
224.409
  0
LINE
  8
0
 10
241.943
 20
224.409
 11
241.705
 21
224.875
  0
LINE
  8
0
 10
241.705
 20
224.875
 11
241.42
 21
225.314
  0
LINE
  8
0
 10
241.42
 20
225.314
 11
241.091
 21
225.721
  0
LINE
  8
0
 10
241.091
 20
225.721
 11
240.721
 21
226.091
  0
LINE
  8
0
 10
240.721
 20
226.091
 11
240.314
 21
226.42
  0
LINE
  8
0
 10
240.314
 20
226.42
 11
239.875
 21
226.705
  0
LINE
  8
0
 10
239.875
 20
226.705
 11
239.409
 21
226.943
  0
LINE
  8
0
 10
239.409
 20
226.943
 11
238.92
 21
227.13
  0
LINE
  8
0
 10
238.92
 20
227.13
 11
238.415
 21
227.266
  0
LINE
  8
0
 10
238.415
 20
227.266
 11
237.898
 21
227.348
  0
LINE
  8
0
 10
237.898
 20
227.348
 11
237.375
 21
227.375
  0
LINE
  8
0
 10
237.375
 20
227.375
 11
-237.375
 21
227.375
  0
LINE
  8
0
 10
-237.375
 20
227.375
 11
-237.898
 21
227.348
  0
LINE
  8
0
 10
-237.898
 20
227.348
 11
-238.415
 21
227.266
  0
LINE
  8
0
 10
-238.415
 20
227.266
 11
-238.92
 21
227.13
  0
LINE
  8
0
 10
-238.92
 20
227.13
 11
-239.409
 21
226.943
  0
LINE
  8
0
 10
-239.409
 20
226.943
 11
-239.875
 21
226.705
  0
LINE
  8
0
 10
-239.875
 20
226.705
 11
-240.314
 21
226.42
  0
LINE
  8
0
 10
-240.314
 20
226.42
 11
-240.721
 21
226.091
  0
LINE
  8
0
 10
-240.721
 20
226.091
 11
-241.091
 21
225.721
  0
LINE
  8
0
 10
-241.091
 20
225.721
 11
-241.42
 21
225.314
  0
LINE
  8
0
 10
-241.42
 20
225.314
 11
-241.705
 21
224.875
  0
LINE
  8
0
 10
-241.705
 20
224.875
 11
-241.943
 21
224.409
  0
LINE
  8
0
 10
-241.943
 20
224.409
 11
-242.13
 21
223.92
  0
LINE
  8
0
 10
-242.13
 20
223.92
 11
-242.266
 21
223.415
  0
LINE
  8
0
 10
-242.266
 20
223.415
 11
-242.348
 21
222.898
  0
LINE
  8
0
 10
-242.348
 20
222.898
 11
-242.375
 21
222.375
  0
LINE
  8
0
 10
-242.375
 20
222.375
 11
-242.375
 21
-222.375
  0
LINE
  8
0
 10
-242.375
 20
-222.375
 11
-242.348
 21
-222.898
  0
LINE
  8
0
 10
-242.348
 20
-222.898
 11
-242.266
 21
-223.415
  0
LINE
  8
0
 10
-242.266
 20
-223.415
 11
-242.13
 21
-223.92
  0
LINE
  8
0
 10
-242.13
 20
-223.92
 11
-241.943
 21
-224.409
  0
LINE
  8
0
 10
-241.943
 20
-224.409
 11
-241.705
 21
-224.875
  0
LINE
  8
0
 10
-241.705
 20
-224.875
 11
-241.42
 21
-225.314
  0
LINE
  8
0
 10
-241.42
 20
-225.314
 11
-241.091
 21
-225.721
  0
LINE
  8
0
 10
-241.091
 20
-225.721
 11
-240.721
 21
-226.091
  0
LINE
  8
0
 10
-240.721
 20
-226.091
 11
-240.314
 21
-226.42
  0
LINE
  8
0
 10
-240.314
 20
-226.42
 11
-239.875
 21
-226.705
  0
LINE
  8
0
 10
-239.875
 20
-226.705
 11
-239.409
 21
-226.943
  0
LINE
  8
0
 10
-239.409
 20
-226.943
 11
-238.92
 21
-227.13
  0
LINE
  8
0
 10
-238.92
 20
-227.13
 11
-238.415
 21
-227.266
  0
LINE
  8
0
 10
-238.415
 20
-227.266
 11
-237.898
 21
-227.348
  0
LINE
  8
0
 10
-237.898
 20
-227.348
 11
-237.375
 21
-227.375
  0
LINE
  8
0
 10
-237.375
 20
-227.375
 11
237.375
 21
-227.375
  0
LINE
  8
0
 10
237.375
 20
-227.375
 11
237.898
 21
-227.348
  0
LINE
  8
0
 10
-233.023
 20
212.527
 11
-233.54
 21
212.609
  0
LINE
  8
0
 10
-233.54
 20
212.609
 11
-234.045
 21
212.745
  0
LINE
  8
0
 10
-234.045
 20
212.745
 11
-234.534
 21
212.932
  0
LINE
  8
0
 10
-234.534
 20
212.932
 11
-235
 21
213.17
  0
LINE
  8
0
 10
-235
 20
213.17
 11
-235.439
 21
213.455
  0
LINE
  8
0
 10
-235.439
 20
213.455
 11
-235.846
 21
213.784
  0
LINE
  8
0
 10
-235.846
 20
213.784
 11
-236.216
 21
214.154
  0
LINE
  8
0
 10
-236.216
 20
214.154
 11
-236.545
 21
214.561
  0
LINE
  8
0
 10
-236.545
 20
214.561
 11
-236.83
 21
215
  0
LINE
  8
0
 10
-236.83
 20
215
 11
-237.068
 21
215.466
  0
LINE
  8
0
 10
-237.068
 20
215.466
 11
-237.255
 21
215.955
  0
LINE
  8
0
 10
-237.255
 20
215.955
 11
-237.391
 21
216.46
  0
LINE
  8
0
 10
-237.391
 20
216.46
 11
-237.473
 21
216.977
  0
LINE
  8
0
 10
-237.473
 20
216.977
 11
-237.5
 21
217.5
  0
LINE
  8
0
 10
-237.5
 20
217.5
 11
-237.473
 21
218.023
  0
LINE
  8
0
 10
-237.473
 20
218.023
 11
-237.391
 21
218.54
  0
LINE
  8
0
 10
-237.391
 20
218.54
 11
-237.255
 21
219.045
  0
LINE
  8
0
 10
-237.255
 20
219.045
 11
-237.068
 21
219.534
  0
LINE
  8
0
 10
-237.068
 20
219.534
 11
-236.83
 21
220
  0
LINE
  8
0
 10
-236.83
 20
220
 11
-236.545
 21
220.439
  0
LINE
  8
0
 10
-236.545
 20
220.439
 11
-236.216
 21
220.846
  0
LINE
  8
0
 10
-236.216
 20
220.846
 11
-235.846
 21
221.216
  0
LINE
  8
0
 10
-235.846
 20
221.216
 11
-235.439
 21
221.545
  0
LINE
  8
0
 10
-235.439
 20
221.545
 11
-235
 21
221.83
  0
LINE
  8
0
 10
-235
 20
221.83
 11
-234.534
 21
222.068
  0
LINE
  8
0
 10
-234.534
 20
222.068
 11
-234.045
 21
222.255
  0
LINE
  8
0
 10
-234.045
 20
222.255
 11
-233.54
 21
222.391
  0
LINE
  8
0
 10
-233.54
 20
222.391
 11
-233.023
 21
222.473
  0
LINE
  8
0
 10
-233.023
 20
222.473
 11
-232.5
 21
222.5
  0
LINE
  8
0
 10
-232.5
 20
222.5
 11
-231.977
 21
222.473
  0
LINE
  8
0
 10
-231.977
 20
222.473
 11
-231.46
 21
222.391
  0
LINE
  8
0
 10
-231.46
 20
222.391
 11
-230.955
 21
222.255
  0
LINE
  8
0
 10
-230.955
 20
222.255
 11
-230.466
 21
222.068
  0
LINE
  8
0
 10
-230.466
 20
222.068
 11
-230
 21
221.83
  0
LINE
  8
0
 10
-230
 20
221.83
 11
-229.561
 21
221.545
  0
LINE
  8
0
 10
-229.561
 20
221.545
 11
-229.154
 21
221.216
  0
LINE
  8
0
 10
-229.154
 20
221.216
 11
-228.784
 21
220.846
  0
LINE
  8
0
 10
-228.784
 20
220.846
 11
-228.455
 21
220.439
  0
LINE
  8
0
 10
-228.455
 20
220.439
 11
-228.17
 21
220
  0
LINE
  8
0
 10
-228.17
 20
220
 11
-227.932
 21
219.534
  0
LINE
  8
0
 10
-227.932
 20
219.534
 11
-227.745
 21
219.045
  0
LINE
  8
0
 10
-227.745
 20
219.045
 11
-227.609
 21
218.54
  0
LINE
  8
0
 10
-227.609
 20
218.54
 11
-227.527
 21
218.023
  0
LINE
  8
0
 10
-227.527
 20
218.023
 11
-227.5
 21
217.5
  0
LINE
  8
0
 10
-227.5
 20
217.5
 11
-227.527
 21
216.977
  0
LINE
  8
0
 10
-227.527
 20
216.977
 11
-227.609
 21
216.46
  0
LINE
  8
0
 10
-227.609
 20
216.46
 11
-227.745
 21
215.955
  0
LINE
  8
0
 10
-227.745
 20
215.955
 11
-227.932
 21
215.466
  0
LINE
  8
0
 10
-227.932
 20
215.466
 11
-228.17
 21
215
  0
LINE
  8
0
 10
-228.17
 20
215
 11
-228.455
 21
214.561
  0
LINE
  8
0
 10
-228.455
 20
214.561
 11
-228.784
 21
214.154
  0
LINE
  8
0
 10
-228.784
 20
214.154
 11
-229.154
 21
213.784
  0
LINE
  8
0
 10
-229.154
 20
213.784
 11
-229.561
 21
213.455
  0
LINE
  8
0
 10
-229.561
 20
213.455
 11
-230
 21
213.17
  0
LINE
  8
0
 10
-230
 20
213.17
 11
-230.466
 21
212.932
  0
LINE
  8
0
 10
-230.466
 20
212.932
 11
-230.955
 21
212.745
  0
LINE
  8
0
 10
-230.955
 20
212.745
 11
-231.46
 21
212.609
  0
LINE
  8
0
 10
-231.46
 20
212.609
 11
-231.977
 21
212.527
  0
LINE
  8
0
 10
-231.977
 20
212.527
 11
-232.5
 21
212.5
  0
LINE
  8
0
 10
-232.5
 20
212.5
 11
-233.023
 21
212.527
  0
LINE
  8
0
 10
231.977
 20
212.527
 11
231.46
 21
212.609
  0
LINE
  8
0
 10
231.46
 20
212.609
 11
230.955
 21
212.745
  0
LINE
  8
0
 10
230.955
 20
212.745
 11
230.466
 21
212.932
  0
LINE
  8
0
 10
230.466
 20
212.932
 11
230
 21
213.17
  0
LINE
  8
0
 10
230
 20
213.17
 11
229.561
 21
213.455
  0
LINE
  8
0
 10
229.561
 20
213.455
 11
229.154
 21
213.784
  0
LINE
  8
0
 10
229.154
 20
213.784
 11
228.784
 21
214.154
  0
LINE
  8
0
 10
228.784
 20
214.154
 11
228.455
 21
214.561
  0
LINE
  8
0
 10
228.455
 20
214.561
 11
228.17
 21
215
  0
LINE
  8
0
 10
228.17
 20
215
 11
227.932
 21
215.466
  0
LINE
  8
0
 10
227.932
 20
215.466
 11
227.745
 21
215.955
  0
LINE
  8
0
 10
227.745
 20
215.955
 11
227.609
 21
216.46
  0
LINE
  8
0
 10
227.609
 20
216.46
 11
227.527
 21
216.977
  0
LINE
  8
0
 10
227.527
 20
216.977
 11
227.5
 21
217.5
  0
LINE
  8
0
 10
227.5
 20
217.5
 11
227.527
 21
218.023
  0
LINE
  8
0
 10
227.527
 20
218.023
 11
227.609
 21
218.54
  0
LINE
  8
0
 10
227.609
 20
218.54
 11
227.745
 21
219.045
  0
LINE
  8
0
 10
227.745
 20
219.045
 11
227.932
 21
219.534
  0
LINE
  8
0
 10
227.932
 20
219.534
 11
228.17
 21
220
  0
LINE
  8
0
 10
228.17
 20
220
 11
228.455
 21
220.439
  0
LINE
  8
0
 10
228.455
 20
220.439
 11
228.784
 21
220.846
  0
LINE
  8
0
 10
228.784
 20
220.846
 11
229.154
 21
221.216
  0
LINE
  8
0
 10
229.154
 20
221.216
 11
229.561
 21
221.545
  0
LINE
  8
0
 10
229.561
 20
221.545
 11
230
 21
221.83
  0
LINE
  8
0
 10
230
 20
221.83
 11
230.466
 21
222.068
  0
LINE
  8
0
 10
230.466
 20
222.068
 11
230.955
 21
222.255
  0
LINE
  8
0
 10
230.955
 20
222.255
 11
231.46
 21
222.391
  0
LINE
  8
0
 10
231.46
 20
222.391
 11
231.977
 21
222.473
  0
LINE
  8
0
 10
231.977
 20
222.473
 11
232.5
 21
222.5
  0
LINE
  8
0
 10
232.5
 20
222.5
 11
233.023
 21
222.473
  0
LINE
  8
0
 10
233.023
 20
222.473
 11
233.54
 21
222.391
  0
LINE
  8
0
 10
233.54
 20
222.391
 11
234.045
 21
222.255
  0
LINE
  8
0
 10
234.045
 20
222.255
 11
234.534
 21
222.068
  0
LINE
  8
0
 10
234.534
 20
222.068
 11
235
 21
221.83
  0
LINE
  8
0
 10
235
 20
221.83
 11
235.439
 21
221.545
  0
LINE
  8
0
 10
235.439
 20
221.545
 11
235.846
 21
221.216
  0
LINE
  8
0
 10
235.846
 20
221.216
 11
236.216
 21
220.846
  0
LINE
  8
0
 10
236.216
 20
220.846
 11
236.545
 21
220.439
  0
LINE
  8
0
 10
236.545
 20
220.439
 11
236.83
 21
220
  0
LINE
  8
0
 10
236.83
 20
220
 11
237.068
 21
219.534
  0
LINE
  8
0
 10
237.068
 20
219.534
 11
237.255
 21
219.045
  0
LINE
  8
0
 10
237.255
 20
219.045
 11
237.391
 21
218.54
  0
LINE
  8
0
 10
237.391
 20
218.54
 11
237.473
 21
218.023
  0
LINE
  8
0
 10
237.473
 20
218.023
 11
237.5
 21
217.5
  0
LINE
  8
0
 10
237.5
 20
217.5
 11
237.473
 21
216.977
  0
LINE
  8
0
 10
237.473
 20
216.977
 11
237.391
 21
216.46
  0
LINE
  8
0
 10
237.391
 20
216.46
 11
237.255
 21
215.955
  0
LINE
  8
0
 10
237.255
 20
215.955
 11
237.068
 21
215.466
  0
LINE
  8
0
 10
237.068
 20
215.466
 11
236.83
 21
215
  0
LINE
  8
0
 10
236.83
 20
215
 11
236.545
 21
214.561
  0
LINE
  8
0
 10
236.545
 20
214.561
 11
236.216
 21
214.154
  0
LINE
  8
0
 10
236.216
 20
214.154
 11
235.846
 21
213.784
  0
LINE
  8
0
 10
235.846
 20
213.784
 11
235.439
 21
213.455
  0
LINE
  8
0
 10
235.439
 20
213.455
 11
235
 21
213.17
  0
LINE
  8
0
 10
235
 20
213.17
 11
234.534
 21
212.932
  0
LINE
  8
0
 10
234.534
 20
212.932
 11
234.045
 21
212.745
  0
LINE
  8
0
 10
234.045
 20
212.745
 11
233.54
 21
212.609
  0
LINE
  8
0
 10
233.54
 20
212.609
 11
233.023
 21
212.527
  0
LINE
  8
0
 10
233.023
 20
212.527
 11
232.5
 21
212.5
  0
LINE
  8
0
 10
232.5
 20
212.5
 11
231.977
 21
212.527
  0
LINE
  8
0
 10
-96.4358
 20
215.258
 11
-96.6814
 21
215.292
  0
LINE
  8
0
 10
-96.6814
 20
215.292
 11
-96.9217
 21
215.353
  0
LINE
  8
0
 10
-96.9217
 20
215.353
 11
-97.1538
 21
215.44
  0
LINE
  8
0
 10
-97.1538
 20
215.44
 11
-97.375
 21
215.551
  0
LINE
  8
0
 10
-97.375
 20
215.551
 11
-97.5825
 21
215.687
  0
LINE
  8
0
 10
-97.5825
 20
215.687
 11
-97.7739
 21
215.845
  0
LINE
  8
0
 10
-97.7739
 20
215.845
 11
-97.9467
 21
216.022
  0
LINE
  8
0
 10
-97.9467
 20
216.022
 11
-98.099
 21
216.218
  0
LINE
  8
0
 10
-98.099
 20
216.218
 11
-98.2288
 21
216.429
  0
LINE
  8
0
 10
-98.2288
 20
216.429
 11
-98.3346
 21
216.653
  0
LINE
  8
0
 10
-98.3346
 20
216.653
 11
-98.4151
 21
216.888
  0
LINE
  8
0
 10
-98.4151
 20
216.888
 11
-98.4693
 21
217.13
  0
LINE
  8
0
 10
-98.4693
 20
217.13
 11
-98.4966
 21
217.376
  0
LINE
  8
0
 10
-98.4966
 20
217.376
 11
-98.4966
 21
217.624
  0
LINE
  8
0
 10
-98.4966
 20
217.624
 11
-98.4693
 21
217.87
  0
LINE
  8
0
 10
-98.4693
 20
217.87
 11
-98.4151
 21
218.112
  0
LINE
  8
0
 10
-98.4151
 20
218.112
 11
-98.3346
 21
218.347
  0
LINE
  8
0
 10
-98.3346
 20
218.347
 11
-98.2288
 21
218.571
  0
LINE
  8
0
 10
-98.2288
 20
218.571
 11
-98.099
 21
218.782
  0
LINE
  8
0
 10
-98.099
 20
218.782
 11
-97.9467
 21
218.978
  0
LINE
  8
0
 10
-97.9467
 20
218.978
 11
-97.7739
 21
219.155
  0
LINE
  8
0
 10
-97.7739
 20
219.155
 11
-97.5825
 21
219.313
  0
LINE
  8
0
 10
-97.5825
 20
219.313
 11
-97.375
 21
219.449
  0
LINE
  8
0
 10
-97.375
 20
219.449
 11
-97.1538
 21
219.56
  0
LINE
  8
0
 10
-97.1538
 20
219.56
 11
-96.9217
 21
219.647
  0
LINE
  8
0
 10
-96.9217
 20
219.647
 11
-96.6814
 21
219.708
  0
LINE
  8
0
 10
-96.6814
 20
219.708
 11
-96.4358
 21
219.742
  0
LINE
  8
0
 10
-96.4358
 20
219.742
 11
-96.188
 21
219.749
  0
LINE
  8
0
 10
-96.188
 20
219.749
 11
-95.9409
 21
219.729
  0
LINE
  8
0
 10
-95.9409
 20
219.729
 11
-95.6976
 21
219.681
  0
LINE
  8
0
 10
-95.6976
 20
219.681
 11
-95.4611
 21
219.607
  0
LINE
  8
0
 10
-95.4611
 20
219.607
 11
-95.234
 21
219.508
  0
LINE
  8
0
 10
-95.234
 20
219.508
 11
-95.0194
 21
219.384
  0
LINE
  8
0
 10
-95.0194
 20
219.384
 11
-94.8196
 21
219.237
  0
LINE
  8
0
 10
-94.8196
 20
219.237
 11
-94.6372
 21
219.069
  0
LINE
  8
0
 10
-94.6372
 20
219.069
 11
-94.4744
 21
218.882
  0
LINE
  8
0
 10
-94.4744
 20
218.882
 11
-94.3332
 21
218.678
  0
LINE
  8
0
 10
-94.3332
 20
218.678
 11
-94.2152
 21
218.46
  0
LINE
  8
0
 10
-94.2152
 20
218.46
 11
-94.1219
 21
218.231
  0
LINE
  8
0
 10
-94.1219
 20
218.231
 11
-94.0545
 21
217.992
  0
LINE
  8
0
 10
-94.0545
 20
217.992
 11
-94.0137
 21
217.748
  0
LINE
  8
0
 10
-94.0137
 20
217.748
 11
-94
 21
217.5
  0
LINE
  8
0
 10
-94
 20
217.5
 11
-94.0137
 21
217.252
  0
LINE
  8
0
 10
-94.0137
 20
217.252
 11
-94.0545
 21
217.008
  0
LINE
  8
0
 10
-94.0545
 20
217.008
 11
-94.1219
 21
216.769
  0
LINE
  8
0
 10
-94.1219
 20
216.769
 11
-94.2152
 21
216.54
  0
LINE
  8
0
 10
-94.2152
 20
216.54
 11
-94.3332
 21
216.322
  0
LINE
  8
0
 10
-94.3332
 20
216.322
 11
-94.4744
 21
216.118
  0
LINE
  8
0
 10
-94.4744
 20
216.118
 11
-94.6372
 21
215.931
  0
LINE
  8
0
 10
-94.6372
 20
215.931
 11
-94.8196
 21
215.763
  0
LINE
  8
0
 10
-94.8196
 20
215.763
 11
-95.0194
 21
215.616
  0
LINE
  8
0
 10
-95.0194
 20
215.616
 11
-95.234
 21
215.492
  0
LINE
  8
0
 10
-95.234
 20
215.492
 11
-95.4611
 21
215.393
  0
LINE
  8
0
 10
-95.4611
 20
215.393
 11
-95.6976
 21
215.319
  0
LINE
  8
0
 10
-95.6976
 20
215.319
 11
-95.9409
 21
215.271
  0
LINE
  8
0
 10
-95.9409
 20
215.271
 11
-96.188
 21
215.251
  0
LINE
  8
0
 10
-96.188
 20
215.251
 11
-96.4358
 21
215.258
  0
LINE
  8
0
 10
192.314
 20
215.258
 11
192.069
 21
215.292
  0
LINE
  8
0
 10
192.069
 20
215.292
 11
191.828
 21
215.353
  0
LINE
  8
0
 10
191.828
 20
215.353
 11
191.596
 21
215.44
  0
LINE
  8
0
 10
191.596
 20
215.44
 11
191.375
 21
215.551
  0
LINE
  8
0
 10
191.375
 20
215.551
 11
191.167
 21
215.687
  0
LINE
  8
0
 10
191.167
 20
215.687
 11
190.976
 21
215.845
  0
LINE
  8
0
 10
190.976
 20
215.845
 11
190.803
 21
216.022
  0
LINE
  8
0
 10
190.803
 20
216.022
 11
190.651
 21
216.218
  0
LINE
  8
0
 10
190.651
 20
216.218
 11
190.521
 21
216.429
  0
LINE
  8
0
 10
190.521
 20
216.429
 11
190.415
 21
216.653
  0
LINE
  8
0
 10
190.415
 20
216.653
 11
190.335
 21
216.888
  0
LINE
  8
0
 10
190.335
 20
216.888
 11
190.281
 21
217.13
  0
LINE
  8
0
 10
190.281
 20
217.13
 11
190.253
 21
217.376
  0
LINE
  8
0
 10
190.253
 20
217.376
 11
190.253
 21
217.624
  0
LINE
  8
0
 10
190.253
 20
217.624
 11
190.281
 21
217.87
  0
LINE
  8
0
 10
190.281
 20
217.87
 11
190.335
 21
218.112
  0
LINE
  8
0
 10
190.335
 20
218.112
 11
190.415
 21
218.347
  0
LINE
  8
0
 10
190.415
 20
218.347
 11
190.521
 21
218.571
  0
LINE
  8
0
 10
190.521
 20
218.571
 11
190.651
 21
218.782
  0
LINE
  8
0
 10
190.651
 20
218.782
 11
190.803
 21
218.978
  0
LINE
  8
0
 10
190.803
 20
218.978
 11
190.976
 21
219.155
  0
LINE
  8
0
 10
190.976
 20
219.155
 11
191.167
 21
219.313
  0
LINE
  8
0
 10
191.167
 20
219.313
 11
191.375
 21
219.449
  0
LINE
  8
0
 10
191.375
 20
219.449
 11
191.596
 21
219.56
  0
LINE
  8
0
 10
191.596
 20
219.56
 11
191.828
 21
219.647
  0
LINE
  8
0
 10
191.828
 20
219.647
 11
192.069
 21
219.708
  0
LINE
  8
0
 10
192.069
 20
219.708
 11
192.314
 21
219.742
  0
LINE
  8
0
 10
192.314
 20
219.742
 11
192.562
 21
219.749
  0
LINE
  8
0
 10
192.562
 20
219.749
 11
192.809
 21
219.729
  0
LINE
  8
0
 10
192.809
 20
219.729
 11
193.052
 21
219.681
  0
LINE
  8
0
 10
193.052
 20
219.681
 11
193.289
 21
219.607
  0
LINE
  8
0
 10
193.289
 20
219.607
 11
193.516
 21
219.508
  0
LINE
  8
0
 10
193.516
 20
219.508
 11
193.731
 21
219.384
  0
LINE
  8
0
 10
193.731
 20
219.384
 11
193.93
 21
219.237
  0
LINE
  8
0
 10
193.93
 20
219.237
 11
194.113
 21
219.069
  0
LINE
  8
0
 10
194.113
 20
219.069
 11
194.276
 21
218.882
  0
LINE
  8
0
 10
194.276
 20
218.882
 11
194.417
 21
218.678
  0
LINE
  8
0
 10
194.417
 20
218.678
 11
194.535
 21
218.46
  0
LINE
  8
0
 10
194.535
 20
218.46
 11
194.628
 21
218.231
  0
LINE
  8
0
 10
194.628
 20
218.231
 11
194.696
 21
217.992
  0
LINE
  8
0
 10
194.696
 20
217.992
 11
194.736
 21
217.748
  0
LINE
  8
0
 10
194.736
 20
217.748
 11
194.75
 21
217.5
  0
LINE
  8
0
 10
194.75
 20
217.5
 11
194.736
 21
217.252
  0
LINE
  8
0
 10
194.736
 20
217.252
 11
194.696
 21
217.008
  0
LINE
  8
0
 10
194.696
 20
217.008
 11
194.628
 21
216.769
  0
LINE
  8
0
 10
194.628
 20
216.769
 11
194.535
 21
216.54
  0
LINE
  8
0
 10
194.535
 20
216.54
 11
194.417
 21
216.322
  0
LINE
  8
0
 10
194.417
 20
216.322
 11
194.276
 21
216.118
  0
LINE
  8
0
 10
194.276
 20
216.118
 11
194.113
 21
215.931
  0
LINE
  8
0
 10
194.113
 20
215.931
 11
193.93
 21
215.763
  0
LINE
  8
0
 10
193.93
 20
215.763
 11
193.731
 21
215.616
  0
LINE
  8
0
 10
193.731
 20
215.616
 11
193.516
 21
215.492
  0
LINE
  8
0
 10
193.516
 20
215.492
 11
193.289
 21
215.393
  0
LINE
  8
0
 10
193.289
 20
215.393
 11
193.052
 21
215.319
  0
LINE
  8
0
 10
193.052
 20
215.319
 11
192.809
 21
215.271
  0
LINE
  8
0
 10
192.809
 20
215.271
 11
192.562
 21
215.251
  0
LINE
  8
0
 10
192.562
 20
215.251
 11
192.314
 21
215.258
  0
LINE
  8
0
 10
-192.686
 20
215.258
 11
-192.931
 21
215.292
  0
LINE
  8
0
 10
-192.931
 20
215.292
 11
-193.172
 21
215.353
  0
LINE
  8
0
 10
-193.172
 20
215.353
 11
-193.404
 21
215.44
  0
LINE
  8
0
 10
-193.404
 20
215.44
 11
-193.625
 21
215.551
  0
LINE
  8
0
 10
-193.625
 20
215.551
 11
-193.833
 21
215.687
  0
LINE
  8
0
 10
-193.833
 20
215.687
 11
-194.024
 21
215.845
  0
LINE
  8
0
 10
-194.024
 20
215.845
 11
-194.197
 21
216.022
  0
LINE
  8
0
 10
-194.197
 20
216.022
 11
-194.349
 21
216.218
  0
LINE
  8
0
 10
-194.349
 20
216.218
 11
-194.479
 21
216.429
  0
LINE
  8
0
 10
-194.479
 20
216.429
 11
-194.585
 21
216.653
  0
LINE
  8
0
 10
-194.585
 20
216.653
 11
-194.665
 21
216.888
  0
LINE
  8
0
 10
-194.665
 20
216.888
 11
-194.719
 21
217.13
  0
LINE
  8
0
 10
-194.719
 20
217.13
 11
-194.747
 21
217.376
  0
LINE
  8
0
 10
-194.747
 20
217.376
 11
-194.747
 21
217.624
  0
LINE
  8
0
 10
-194.747
 20
217.624
 11
-194.719
 21
217.87
  0
LINE
  8
0
 10
-194.719
 20
217.87
 11
-194.665
 21
218.112
  0
LINE
  8
0
 10
-194.665
 20
218.112
 11
-194.585
 21
218.347
  0
LINE
  8
0
 10
-194.585
 20
218.347
 11
-194.479
 21
218.571
  0
LINE
  8
0
 10
-194.479
 20
218.571
 11
-194.349
 21
218.782
  0
LINE
  8
0
 10
-194.349
 20
218.782
 11
-194.197
 21
218.978
  0
LINE
  8
0
 10
-194.197
 20
218.978
 11
-194.024
 21
219.155
  0
LINE
  8
0
 10
-194.024
 20
219.155
 11
-193.833
 21
219.313
  0
LINE
  8
0
 10
-193.833
 20
219.313
 11
-193.625
 21
219.449
  0
LINE
  8
0
 10
-193.625
 20
219.449
 11
-193.404
 21
219.56
  0
LINE
  8
0
 10
-193.404
 20
219.56
 11
-193.172
 21
219.647
  0
LINE
  8
0
 10
-193.172
 20
219.647
 11
-192.931
 21
219.708
  0
LINE
  8
0
 10
-192.931
 20
219.708
 11
-192.686
 21
219.742
  0
LINE
  8
0
 10
-192.686
 20
219.742
 11
-192.438
 21
219.749
  0
LINE
  8
0
 10
-192.438
 20
219.749
 11
-192.191
 21
219.729
  0
LINE
  8
0
 10
-192.191
 20
219.729
 11
-191.948
 21
219.681
  0
LINE
  8
0
 10
-191.948
 20
219.681
 11
-191.711
 21
219.607
  0
LINE
  8
0
 10
-191.711
 20
219.607
 11
-191.484
 21
219.508
  0
LINE
  8
0
 10
-191.484
 20
219.508
 11
-191.269
 21
219.384
  0
LINE
  8
0
 10
-191.269
 20
219.384
 11
-191.07
 21
219.237
  0
LINE
  8
0
 10
-191.07
 20
219.237
 11
-190.887
 21
219.069
  0
LINE
  8
0
 10
-190.887
 20
219.069
 11
-190.724
 21
218.882
  0
LINE
  8
0
 10
-190.724
 20
218.882
 11
-190.583
 21
218.678
  0
LINE
  8
0
 10
-190.583
 20
218.678
 11
-190.465
 21
218.46
  0
LINE
  8
0
 10
-190.465
 20
218.46
 11
-190.372
 21
218.231
  0
LINE
  8
0
 10
-190.372
 20
218.231
 11
-190.304
 21
217.992
  0
LINE
  8
0
 10
-190.304
 20
217.992
 11
-190.264
 21
217.748
  0
LINE
  8
0
 10
-190.264
 20
217.748
 11
-190.25
 21
217.5
  0
LINE
  8
0
 10
-190.25
 20
217.5
 11
-190.264
 21
217.252
  0
LINE
  8
0
 10
-190.264
 20
217.252
 11
-190.304
 21
217.008
  0
LINE
  8
0
 10
-190.304
 20
217.008
 11
-190.372
 21
216.769
  0
LINE
  8
0
 10
-190.372
 20
216.769
 11
-190.465
 21
216.54
  0
LINE
  8
0
 10
-190.465
 20
216.54
 11
-190.583
 21
216.322
  0
LINE
  8
0
 10
-190.583
 20
216.322
 11
-190.724
 21
216.118
  0
LINE
  8
0
 10
-190.724
 20
216.118
 11
-190.887
 21
215.931
  0
LINE
  8
0
 10
-190.887
 20
215.931
 11
-191.07
 21
215.763
  0
LINE
  8
0
 10
-191.07
 20
215.763
 11
-191.269
 21
215.616
  0
LINE
  8
0
 10
-191.269
 20
215.616
 11
-191.484
 21
215.492
  0
LINE
  8
0
 10
-191.484
 20
215.492
 11
-191.711
 21
215.393
  0
LINE
  8
0
 10
-191.711
 20
215.393
 11
-191.948
 21
215.319
  0
LINE
  8
0
 10
-191.948
 20
215.319
 11
-192.191
 21
215.271
  0
LINE
  8
0
 10
-192.191
 20
215.271
 11
-192.438
 21
215.251
  0
LINE
  8
0
 10
-192.438
 20
215.251
 11
-192.686
 21
215.258
  0
LINE
  8
0
 10
-0.185791
 20
215.258
 11
-0.431335
 21
215.292
  0
LINE
  8
0
 10
-0.431335
 20
215.292
 11
-0.671646
 21
215.353
  0
LINE
  8
0
 10
-0.671646
 20
215.353
 11
-0.903809
 21
215.44
  0
LINE
  8
0
 10
-0.903809
 20
215.44
 11
-1.125
 21
215.551
  0
LINE
  8
0
 10
-1.125
 20
215.551
 11
-1.33252
 21
215.687
  0
LINE
  8
0
 10
-1.33252
 20
215.687
 11
-1.52388
 21
215.845
  0
LINE
  8
0
 10
-1.52388
 20
215.845
 11
-1.69673
 21
216.022
  0
LINE
  8
0
 10
-1.69673
 20
216.022
 11
-1.849
 21
216.218
  0
LINE
  8
0
 10
-1.849
 20
216.218
 11
-1.97881
 21
216.429
  0
LINE
  8
0
 10
-1.97881
 20
216.429
 11
-2.08461
 21
216.653
  0
LINE
  8
0
 10
-2.08461
 20
216.653
 11
-2.1651
 21
216.888
  0
LINE
  8
0
 10
-2.1651
 20
216.888
 11
-2.2193
 21
217.13
  0
LINE
  8
0
 10
-2.2193
 20
217.13
 11
-2.24658
 21
217.376
  0
LINE
  8
0
 10
-2.24658
 20
217.376
 11
-2.24658
 21
217.624
  0
LINE
  8
0
 10
-2.24658
 20
217.624
 11
-2.2193
 21
217.87
  0
LINE
  8
0
 10
-2.2193
 20
217.87
 11
-2.1651
 21
218.112
  0
LINE
  8
0
 10
-2.1651
 20
218.112
 11
-2.08461
 21
218.347
  0
LINE
  8
0
 10
-2.08461
 20
218.347
 11
-1.97881
 21
218.571
  0
LINE
  8
0
 10
-1.97881
 20
218.571
 11
-1.849
 21
218.782
  0
LINE
  8
0
 10
-1.849
 20
218.782
 11
-1.69673
 21
218.978
  0
LINE
  8
0
 10
-1.69673
 20
218.978
 11
-1.52388
 21
219.155
  0
LINE
  8
0
 10
-1.52388
 20
219.155
 11
-1.33252
 21
219.313
  0
LINE
  8
0
 10
-1.33252
 20
219.313
 11
-1.125
 21
219.449
  0
LINE
  8
0
 10
-1.125
 20
219.449
 11
-0.903809
 21
219.56
  0
LINE
  8
0
 10
-0.903809
 20
219.56
 11
-0.671646
 21
219.647
  0
LINE
  8
0
 10
-0.671646
 20
219.647
 11
-0.431335
 21
219.708
  0
LINE
  8
0
 10
-0.431335
 20
219.708
 11
-0.185791
 21
219.742
  0
LINE
  8
0
 10
-0.185791
 20
219.742
 11
0.0619965
 21
219.749
  0
LINE
  8
0
 10
0.0619965
 20
219.749
 11
0.309036
 21
219.729
  0
LINE
  8
0
 10
0.309036
 20
219.729
 11
0.552338
 21
219.681
  0
LINE
  8
0
 10
0.552338
 20
219.681
 11
0.788925
 21
219.607
  0
LINE
  8
0
 10
0.788925
 20
219.607
 11
1.01595
 21
219.508
  0
LINE
  8
0
 10
1.01595
 20
219.508
 11
1.23062
 21
219.384
  0
LINE
  8
0
 10
1.23062
 20
219.384
 11
1.43037
 21
219.237
  0
LINE
  8
0
 10
1.43037
 20
219.237
 11
1.61275
 21
219.069
  0
LINE
  8
0
 10
1.61275
 20
219.069
 11
1.77556
 21
218.882
  0
LINE
  8
0
 10
1.77556
 20
218.882
 11
1.91681
 21
218.678
  0
LINE
  8
0
 10
1.91681
 20
218.678
 11
2.03479
 21
218.46
  0
LINE
  8
0
 10
2.03479
 20
218.46
 11
2.12808
 21
218.231
  0
LINE
  8
0
 10
2.12808
 20
218.231
 11
2.19554
 21
217.992
  0
LINE
  8
0
 10
2.19554
 20
217.992
 11
2.23634
 21
217.748
  0
LINE
  8
0
 10
2.23634
 20
217.748
 11
2.25
 21
217.5
  0
LINE
  8
0
 10
2.25
 20
217.5
 11
2.23634
 21
217.252
  0
LINE
  8
0
 10
2.23634
 20
217.252
 11
2.19554
 21
217.008
  0
LINE
  8
0
 10
2.19554
 20
217.008
 11
2.12808
 21
216.769
  0
LINE
  8
0
 10
2.12808
 20
216.769
 11
2.03479
 21
216.54
  0
LINE
  8
0
 10
2.03479
 20
216.54
 11
1.91681
 21
216.322
  0
LINE
  8
0
 10
1.91681
 20
216.322
 11
1.77556
 21
216.118
  0
LINE
  8
0
 10
1.77556
 20
216.118
 11
1.61275
 21
215.931
  0
LINE
  8
0
 10
1.61275
 20
215.931
 11
1.43037
 21
215.763
  0
LINE
  8
0
 10
1.43037
 20
215.763
 11
1.23062
 21
215.616
  0
LINE
  8
0
 10
1.23062
 20
215.616
 11
1.01595
 21
215.492
  0
LINE
  8
0
 10
1.01595
 20
215.492
 11
0.788925
 21
215.393
  0
LINE
  8
0
 10
0.788925
 20
215.393
 11
0.552338
 21
215.319
  0
LINE
  8
0
 10
0.552338
 20
215.319
 11
0.309036
 21
215.271
  0
LINE
  8
0
 10
0.309036
 20
215.271
 11
0.0619965
 21
215.251
  0
LINE
  8
0
 10
0.0619965
 20
215.251
 11
-0.185791
 21
215.258
  0
LINE
  8
0
 10
96.0642
 20
215.258
 11
95.8186
 21
215.292
  0
LINE
  8
0
 10
95.8186
 20
215.292
 11
95.5783
 21
215.353
  0
LINE
  8
0
 10
95.5783
 20
215.353
 11
95.3462
 21
215.44
  0
LINE
  8
0
 10
95.3462
 20
215.44
 11
95.125
 21
215.551
  0
LINE
  8
0
 10
95.125
 20
215.551
 11
94.9175
 21
215.687
  0
LINE
  8
0
 10
94.9175
 20
215.687
 11
94.7261
 21
215.845
  0
LINE
  8
0
 10
94.7261
 20
215.845
 11
94.5533
 21
216.022
  0
LINE
  8
0
 10
94.5533
 20
216.022
 11
94.401
 21
216.218
  0
LINE
  8
0
 10
94.401
 20
216.218
 11
94.2712
 21
216.429
  0
LINE
  8
0
 10
94.2712
 20
216.429
 11
94.1654
 21
216.653
  0
LINE
  8
0
 10
94.1654
 20
216.653
 11
94.0849
 21
216.888
  0
LINE
  8
0
 10
94.0849
 20
216.888
 11
94.0307
 21
217.13
  0
LINE
  8
0
 10
94.0307
 20
217.13
 11
94.0034
 21
217.376
  0
LINE
  8
0
 10
94.0034
 20
217.376
 11
94.0034
 21
217.624
  0
LINE
  8
0
 10
94.0034
 20
217.624
 11
94.0307
 21
217.87
  0
LINE
  8
0
 10
94.0307
 20
217.87
 11
94.0849
 21
218.112
  0
LINE
  8
0
 10
94.0849
 20
218.112
 11
94.1654
 21
218.347
  0
LINE
  8
0
 10
94.1654
 20
218.347
 11
94.2712
 21
218.571
  0
LINE
  8
0
 10
94.2712
 20
218.571
 11
94.401
 21
218.782
  0
LINE
  8
0
 10
94.401
 20
218.782
 11
94.5533
 21
218.978
  0
LINE
  8
0
 10
94.5533
 20
218.978
 11
94.7261
 21
219.155
  0
LINE
  8
0
 10
94.7261
 20
219.155
 11
94.9175
 21
219.313
  0
LINE
  8
0
 10
94.9175
 20
219.313
 11
95.125
 21
219.449
  0
LINE
  8
0
 10
95.125
 20
219.449
 11
95.3462
 21
219.56
  0
LINE
  8
0
 10
95.3462
 20
219.56
 11
95.5783
 21
219.647
  0
LINE
  8
0
 10
95.5783
 20
219.647
 11
95.8186
 21
219.708
  0
LINE
  8
0
 10
95.8186
 20
219.708
 11
96.0642
 21
219.742
  0
LINE
  8
0
 10
96.0642
 20
219.742
 11
96.312
 21
219.749
  0
LINE
  8
0
 10
96.312
 20
219.749
 11
96.559
 21
219.729
  0
LINE
  8
0
 10
96.559
 20
219.729
 11
96.8023
 21
219.681
  0
LINE
  8
0
 10
96.8023
 20
219.681
 11
97.0389
 21
219.607
  0
LINE
  8
0
 10
97.0389
 20
219.607
 11
97.2659
 21
219.508
  0
LINE
  8
0
 10
97.2659
 20
219.508
 11
97.4806
 21
219.384
  0
LINE
  8
0
 10
97.4806
 20
219.384
 11
97.6804
 21
219.237
  0
LINE
  8
0
 10
97.6804
 20
219.237
 11
97.8628
 21
219.069
  0
LINE
  8
0
 10
97.8628
 20
219.069
 11
98.0256
 21
218.882
  0
LINE
  8
0
 10
98.0256
 20
218.882
 11
98.1668
 21
218.678
  0
LINE
  8
0
 10
98.1668
 20
218.678
 11
98.2848
 21
218.46
  0
LINE
  8
0
 10
98.2848
 20
218.46
 11
98.3781
 21
218.231
  0
LINE
  8
0
 10
98.3781
 20
218.231
 11
98.4455
 21
217.992
  0
LINE
  8
0
 10
98.4455
 20
217.992
 11
98.4863
 21
217.748
  0
LINE
  8
0
 10
98.4863
 20
217.748
 11
98.5
 21
217.5
  0
LINE
  8
0
 10
98.5
 20
217.5
 11
98.4863
 21
217.252
  0
LINE
  8
0
 10
98.4863
 20
217.252
 11
98.4455
 21
217.008
  0
LINE
  8
0
 10
98.4455
 20
217.008
 11
98.3781
 21
216.769
  0
LINE
  8
0
 10
98.3781
 20
216.769
 11
98.2848
 21
216.54
  0
LINE
  8
0
 10
98.2848
 20
216.54
 11
98.1668
 21
216.322
  0
LINE
  8
0
 10
98.1668
 20
216.322
 11
98.0256
 21
216.118
  0
LINE
  8
0
 10
98.0256
 20
216.118
 11
97.8628
 21
215.931
  0
LINE
  8
0
 10
97.8628
 20
215.931
 11
97.6804
 21
215.763
  0
LINE
  8
0
 10
97.6804
 20
215.763
 11
97.4806
 21
215.616
  0
LINE
  8
0
 10
97.4806
 20
215.616
 11
97.2659
 21
215.492
  0
LINE
  8
0
 10
97.2659
 20
215.492
 11
97.0389
 21
215.393
  0
LINE
  8
0
 10
97.0389
 20
215.393
 11
96.8023
 21
215.319
  0
LINE
  8
0
 10
96.8023
 20
215.319
 11
96.559
 21
215.271
  0
LINE
  8
0
 10
96.559
 20
215.271
 11
96.312
 21
215.251
  0
LINE
  8
0
 10
96.312
 20
215.251
 11
96.0642
 21
215.258
  0
LINE
  8
0
 10
-232.809
 20
175.271
 11
-233.052
 21
175.319
  0
LINE
  8
0
 10
-233.052
 20
175.319
 11
-233.289
 21
175.393
  0
LINE
  8
0
 10
-233.289
 20
175.393
 11
-233.516
 21
175.492
  0
LINE
  8
0
 10
-233.516
 20
175.492
 11
-233.731
 21
175.616
  0
LINE
  8
0
 10
-233.731
 20
175.616
 11
-233.93
 21
175.763
  0
LINE
  8
0
 10
-233.93
 20
175.763
 11
-234.113
 21
175.931
  0
LINE
  8
0
 10
-234.113
 20
175.931
 11
-234.276
 21
176.118
  0
LINE
  8
0
 10
-234.276
 20
176.118
 11
-234.417
 21
176.322
  0
LINE
  8
0
 10
-234.417
 20
176.322
 11
-234.535
 21
176.54
  0
LINE
  8
0
 10
-234.535
 20
176.54
 11
-234.628
 21
176.769
  0
LINE
  8
0
 10
-234.628
 20
176.769
 11
-234.696
 21
177.008
  0
LINE
  8
0
 10
-234.696
 20
177.008
 11
-234.736
 21
177.252
  0
LINE
  8
0
 10
-234.736
 20
177.252
 11
-234.75
 21
177.5
  0
LINE
  8
0
 10
-234.75
 20
177.5
 11
-234.736
 21
177.748
  0
LINE
  8
0
 10
-234.736
 20
177.748
 11
-234.696
 21
177.992
  0
LINE
  8
0
 10
-234.696
 20
177.992
 11
-234.628
 21
178.231
  0
LINE
  8
0
 10
-234.628
 20
178.231
 11
-234.535
 21
178.46
  0
LINE
  8
0
 10
-234.535
 20
178.46
 11
-234.417
 21
178.678
  0
LINE
  8
0
 10
-234.417
 20
178.678
 11
-234.276
 21
178.882
  0
LINE
  8
0
 10
-234.276
 20
178.882
 11
-234.113
 21
179.069
  0
LINE
  8
0
 10
-234.113
 20
179.069
 11
-233.93
 21
179.237
  0
LINE
  8
0
 10
-233.93
 20
179.237
 11
-233.731
 21
179.384
  0
LINE
  8
0
 10
-233.731
 20
179.384
 11
-233.516
 21
179.508
  0
LINE
  8
0
 10
-233.516
 20
179.508
 11
-233.289
 21
179.607
  0
LINE
  8
0
 10
-233.289
 20
179.607
 11
-233.052
 21
179.681
  0
LINE
  8
0
 10
-233.052
 20
179.681
 11
-232.809
 21
179.729
  0
LINE
  8
0
 10
-232.809
 20
179.729
 11
-232.562
 21
179.749
  0
LINE
  8
0
 10
-232.562
 20
179.749
 11
-232.314
 21
179.742
  0
LINE
  8
0
 10
-232.314
 20
179.742
 11
-232.069
 21
179.708
  0
LINE
  8
0
 10
-232.069
 20
179.708
 11
-231.828
 21
179.647
  0
LINE
  8
0
 10
-231.828
 20
179.647
 11
-231.596
 21
179.56
  0
LINE
  8
0
 10
-231.596
 20
179.56
 11
-231.375
 21
179.449
  0
LINE
  8
0
 10
-231.375
 20
179.449
 11
-231.167
 21
179.313
  0
LINE
  8
0
 10
-231.167
 20
179.313
 11
-230.976
 21
179.155
  0
LINE
  8
0
 10
-230.976
 20
179.155
 11
-230.803
 21
178.978
  0
LINE
  8
0
 10
-230.803
 20
178.978
 11
-230.651
 21
178.782
  0
LINE
  8
0
 10
-230.651
 20
178.782
 11
-230.521
 21
178.571
  0
LINE
  8
0
 10
-230.521
 20
178.571
 11
-230.415
 21
178.347
  0
LINE
  8
0
 10
-230.415
 20
178.347
 11
-230.335
 21
178.112
  0
LINE
  8
0
 10
-230.335
 20
178.112
 11
-230.281
 21
177.87
  0
LINE
  8
0
 10
-230.281
 20
177.87
 11
-230.253
 21
177.624
  0
LINE
  8
0
 10
-230.253
 20
177.624
 11
-230.253
 21
177.376
  0
LINE
  8
0
 10
-230.253
 20
177.376
 11
-230.281
 21
177.13
  0
LINE
  8
0
 10
-230.281
 20
177.13
 11
-230.335
 21
176.888
  0
LINE
  8
0
 10
-230.335
 20
176.888
 11
-230.415
 21
176.653
  0
LINE
  8
0
 10
-230.415
 20
176.653
 11
-230.521
 21
176.429
  0
LINE
  8
0
 10
-230.521
 20
176.429
 11
-230.651
 21
176.218
  0
LINE
  8
0
 10
-230.651
 20
176.218
 11
-230.803
 21
176.022
  0
LINE
  8
0
 10
-230.803
 20
176.022
 11
-230.976
 21
175.845
  0
LINE
  8
0
 10
-230.976
 20
175.845
 11
-231.167
 21
175.687
  0
LINE
  8
0
 10
-231.167
 20
175.687
 11
-231.375
 21
175.551
  0
LINE
  8
0
 10
-231.375
 20
175.551
 11
-231.596
 21
175.44
  0
LINE
  8
0
 10
-231.596
 20
175.44
 11
-231.828
 21
175.353
  0
LINE
  8
0
 10
-231.828
 20
175.353
 11
-232.069
 21
175.292
  0
LINE
  8
0
 10
-232.069
 20
175.292
 11
-232.314
 21
175.258
  0
LINE
  8
0
 10
-232.314
 20
175.258
 11
-232.562
 21
175.251
  0
LINE
  8
0
 10
-232.562
 20
175.251
 11
-232.809
 21
175.271
  0
LINE
  8
0
 10
232.314
 20
175.258
 11
232.069
 21
175.292
  0
LINE
  8
0
 10
232.069
 20
175.292
 11
231.828
 21
175.353
  0
LINE
  8
0
 10
231.828
 20
175.353
 11
231.596
 21
175.44
  0
LINE
  8
0
 10
231.596
 20
175.44
 11
231.375
 21
175.551
  0
LINE
  8
0
 10
231.375
 20
175.551
 11
231.167
 21
175.687
  0
LINE
  8
0
 10
231.167
 20
175.687
 11
230.976
 21
175.845
  0
LINE
  8
0
 10
230.976
 20
175.845
 11
230.803
 21
176.022
  0
LINE
  8
0
 10
230.803
 20
176.022
 11
230.651
 21
176.218
  0
LINE
  8
0
 10
230.651
 20
176.218
 11
230.521
 21
176.429
  0
LINE
  8
0
 10
230.521
 20
176.429
 11
230.415
 21
176.653
  0
LINE
  8
0
 10
230.415
 20
176.653
 11
230.335
 21
176.888
  0
LINE
  8
0
 10
230.335
 20
176.888
 11
230.281
 21
177.13
  0
LINE
  8
0
 10
230.281
 20
177.13
 11
230.253
 21
177.376
  0
LINE
  8
0
 10
230.253
 20
177.376
 11
230.253
 21
177.624
  0
LINE
  8
0
 10
230.253
 20
177.624
 11
230.281
 21
177.87
  0
LINE
  8
0
 10
230.281
 20
177.87
 11
230.335
 21
178.112
  0
LINE
  8
0
 10
230.335
 20
178.112
 11
230.415
 21
178.347
  0
LINE
  8
0
 10
230.415
 20
178.347
 11
230.521
 21
178.571
  0
LINE
  8
0
 10
230.521
 20
178.571
 11
230.651
 21
178.782
  0
LINE
  8
0
 10
230.651
 20
178.782
 11
230.803
 21
178.978
  0
LINE
  8
0
 10
230.803
 20
178.978
 11
230.976
 21
179.155
  0
LINE
  8
0
 10
230.976
 20
179.155
 11
231.167
 21
179.313
  0
LINE
  8
0
 10
231.167
 20
179.313
 11
231.375
 21
179.449
  0
LINE
  8
0
 10
231.375
 20
179.449
 11
231.596
 21
179.56
  0
LINE
  8
0
 10
231.596
 20
179.56
 11
231.828
 21
179.647
  0
LINE
  8
0
 10
231.828
 20
179.647
 11
232.069
 21
179.708
  0
LINE
  8
0
 10
232.069
 20
179.708
 11
232.314
 21
179.742
  0
LINE
  8
0
 10
232.314
 20
179.742
 11
232.562
 21
179.749
  0
LINE
  8
0
 10
232.562
 20
179.749
 11
232.809
 21
179.729
  0
LINE
  8
0
 10
232.809
 20
179.729
 11
233.052
 21
179.681
  0
LINE
  8
0
 10
233.052
 20
179.681
 11
233.289
 21
179.607
  0
LINE
  8
0
 10
233.289
 20
179.607
 11
233.516
 21
179.508
  0
LINE
  8
0
 10
233.516
 20
179.508
 11
233.731
 21
179.384
  0
LINE
  8
0
 10
233.731
 20
179.384
 11
233.93
 21
179.237
  0
LINE
  8
0
 10
233.93
 20
179.237
 11
234.113
 21
179.069
  0
LINE
  8
0
 10
234.113
 20
179.069
 11
234.276
 21
178.882
  0
LINE
  8
0
 10
234.276
 20
178.882
 11
234.417
 21
178.678
  0
LINE
  8
0
 10
234.417
 20
178.678
 11
234.535
 21
178.46
  0
LINE
  8
0
 10
234.535
 20
178.46
 11
234.628
 21
178.231
  0
LINE
  8
0
 10
234.628
 20
178.231
 11
234.696
 21
177.992
  0
LINE
  8
0
 10
234.696
 20
177.992
 11
234.736
 21
177.748
  0
LINE
  8
0
 10
234.736
 20
177.748
 11
234.75
 21
177.5
  0
LINE
  8
0
 10
234.75
 20
177.5
 11
234.736
 21
177.252
  0
LINE
  8
0
 10
234.736
 20
177.252
 11
234.696
 21
177.008
  0
LINE
  8
0
 10
234.696
 20
177.008
 11
234.628
 21
176.769
  0
LINE
  8
0
 10
234.628
 20
176.769
 11
234.535
 21
176.54
  0
LINE
  8
0
 10
234.535
 20
176.54
 11
234.417
 21
176.322
  0
LINE
  8
0
 10
234.417
 20
176.322
 11
234.276
 21
176.118
  0
LINE
  8
0
 10
234.276
 20
176.118
 11
234.113
 21
175.931
  0
LINE
  8
0
 10
234.113
 20
175.931
 11
233.93
 21
175.763
  0
LINE
  8
0
 10
233.93
 20
175.763
 11
233.731
 21
175.616
  0
LINE
  8
0
 10
233.731
 20
175.616
 11
233.516
 21
175.492
  0
LINE
  8
0
 10
233.516
 20
175.492
 11
233.289
 21
175.393
  0
LINE
  8
0
 10
233.289
 20
175.393
 11
233.052
 21
175.319
  0
LINE
  8
0
 10
233.052
 20
175.319
 11
232.809
 21
175.271
  0
LINE
  8
0
 10
232.809
 20
175.271
 11
232.562
 21
175.251
  0
LINE
  8
0
 10
232.562
 20
175.251
 11
232.314
 21
175.258
  0
LINE
  8
0
 10
91.8767
 20
134.855
 11
91.6328
 21
134.891
  0
LINE
  8
0
 10
91.6328
 20
134.891
 11
91.3972
 21
134.964
  0
LINE
  8
0
 10
91.3972
 20
134.964
 11
91.175
 21
135.071
  0
LINE
  8
0
 10
91.175
 20
135.071
 11
90.9712
 21
135.21
  0
LINE
  8
0
 10
90.9712
 20
135.21
 11
90.7905
 21
135.378
  0
LINE
  8
0
 10
90.7905
 20
135.378
 11
90.6367
 21
135.571
  0
LINE
  8
0
 10
90.6367
 20
135.571
 11
90.5134
 21
135.784
  0
LINE
  8
0
 10
90.5134
 20
135.784
 11
90.4233
 21
136.014
  0
LINE
  8
0
 10
90.4233
 20
136.014
 11
90.3684
 21
136.254
  0
LINE
  8
0
 10
90.3684
 20
136.254
 11
90.35
 21
136.5
  0
LINE
  8
0
 10
90.35
 20
136.5
 11
90.3684
 21
136.746
  0
LINE
  8
0
 10
90.3684
 20
136.746
 11
90.4233
 21
136.986
  0
LINE
  8
0
 10
90.4233
 20
136.986
 11
90.5134
 21
137.216
  0
LINE
  8
0
 10
90.5134
 20
137.216
 11
90.6367
 21
137.429
  0
LINE
  8
0
 10
90.6367
 20
137.429
 11
90.7905
 21
137.622
  0
LINE
  8
0
 10
90.7905
 20
137.622
 11
90.9712
 21
137.79
  0
LINE
  8
0
 10
90.9712
 20
137.79
 11
91.175
 21
137.929
  0
LINE
  8
0
 10
91.175
 20
137.929
 11
91.3972
 21
138.036
  0
LINE
  8
0
 10
91.3972
 20
138.036
 11
91.6328
 21
138.109
  0
LINE
  8
0
 10
91.6328
 20
138.109
 11
91.8767
 21
138.145
  0
LINE
  8
0
 10
91.8767
 20
138.145
 11
92.1233
 21
138.145
  0
LINE
  8
0
 10
92.1233
 20
138.145
 11
92.3672
 21
138.109
  0
LINE
  8
0
 10
92.3672
 20
138.109
 11
92.6028
 21
138.036
  0
LINE
  8
0
 10
92.6028
 20
138.036
 11
92.825
 21
137.929
  0
LINE
  8
0
 10
92.825
 20
137.929
 11
93.0288
 21
137.79
  0
LINE
  8
0
 10
93.0288
 20
137.79
 11
93.2095
 21
137.622
  0
LINE
  8
0
 10
93.2095
 20
137.622
 11
93.3633
 21
137.429
  0
LINE
  8
0
 10
93.3633
 20
137.429
 11
93.4866
 21
137.216
  0
LINE
  8
0
 10
93.4866
 20
137.216
 11
93.5767
 21
136.986
  0
LINE
  8
0
 10
93.5767
 20
136.986
 11
93.6316
 21
136.746
  0
LINE
  8
0
 10
93.6316
 20
136.746
 11
93.65
 21
136.5
  0
LINE
  8
0
 10
93.65
 20
136.5
 11
93.6316
 21
136.254
  0
LINE
  8
0
 10
93.6316
 20
136.254
 11
93.5767
 21
136.014
  0
LINE
  8
0
 10
93.5767
 20
136.014
 11
93.4866
 21
135.784
  0
LINE
  8
0
 10
93.4866
 20
135.784
 11
93.3633
 21
135.571
  0
LINE
  8
0
 10
93.3633
 20
135.571
 11
93.2095
 21
135.378
  0
LINE
  8
0
 10
93.2095
 20
135.378
 11
93.0288
 21
135.21
  0
LINE
  8
0
 10
93.0288
 20
135.21
 11
92.825
 21
135.071
  0
LINE
  8
0
 10
92.825
 20
135.071
 11
92.6028
 21
134.964
  0
LINE
  8
0
 10
92.6028
 20
134.964
 11
92.3672
 21
134.891
  0
LINE
  8
0
 10
92.3672
 20
134.891
 11
92.1233
 21
134.855
  0
LINE
  8
0
 10
92.1233
 20
134.855
 11
91.8767
 21
134.855
  0
LINE
  8
0
 10
-92.1233
 20
134.855
 11
-92.3672
 21
134.891
  0
LINE
  8
0
 10
-92.3672
 20
134.891
 11
-92.6028
 21
134.964
  0
LINE
  8
0
 10
-92.6028
 20
134.964
 11
-92.825
 21
135.071
  0
LINE
  8
0
 10
-92.825
 20
135.071
 11
-93.0288
 21
135.21
  0
LINE
  8
0
 10
-93.0288
 20
135.21
 11
-93.2095
 21
135.378
  0
LINE
  8
0
 10
-93.2095
 20
135.378
 11
-93.3633
 21
135.571
  0
LINE
  8
0
 10
-93.3633
 20
135.571
 11
-93.4866
 21
135.784
  0
LINE
  8
0
 10
-93.4866
 20
135.784
 11
-93.5767
 21
136.014
  0
LINE
  8
0
 10
-93.5767
 20
136.014
 11
-93.6316
 21
136.254
  0
LINE
  8
0
 10
-93.6316
 20
136.254
 11
-93.65
 21
136.5
  0
LINE
  8
0
 10
-93.65
 20
136.5
 11
-93.6316
 21
136.746
  0
LINE
  8
0
 10
-93.6316
 20
136.746
 11
-93.5767
 21
136.986
  0
LINE
  8
0
 10
-93.5767
 20
136.986
 11
-93.4866
 21
137.216
  0
LINE
  8
0
 10
-93.4866
 20
137.216
 11
-93.3633
 21
137.429
  0
LINE
  8
0
 10
-93.3633
 20
137.429
 11
-93.2095
 21
137.622
  0
LINE
  8
0
 10
-93.2095
 20
137.622
 11
-93.0288
 21
137.79
  0
LINE
  8
0
 10
-93.0288
 20
137.79
 11
-92.825
 21
137.929
  0
LINE
  8
0
 10
-92.825
 20
137.929
 11
-92.6028
 21
138.036
  0
LINE
  8
0
 10
-92.6028
 20
138.036
 11
-92.3672
 21
138.109
  0
LINE
  8
0
 10
-92.3672
 20
138.109
 11
-92.1233
 21
138.145
  0
LINE
  8
0
 10
-92.1233
 20
138.145
 11
-91.8767
 21
138.145
  0
LINE
  8
0
 10
-91.8767
 20
138.145
 11
-91.6328
 21
138.109
  0
LINE
  8
0
 10
-91.6328
 20
138.109
 11
-91.3972
 21
138.036
  0
LINE
  8
0
 10
-91.3972
 20
138.036
 11
-91.175
 21
137.929
  0
LINE
  8
0
 10
-91.175
 20
137.929
 11
-90.9712
 21
137.79
  0
LINE
  8
0
 10
-90.9712
 20
137.79
 11
-90.7905
 21
137.622
  0
LINE
  8
0
 10
-90.7905
 20
137.622
 11
-90.6367
 21
137.429
  0
LINE
  8
0
 10
-90.6367
 20
137.429
 11
-90.5134
 21
137.216
  0
LINE
  8
0
 10
-90.5134
 20
137.216
 11
-90.4233
 21
136.986
  0
LINE
  8
0
 10
-90.4233
 20
136.986
 11
-90.3684
 21
136.746
  0
LINE
  8
0
 10
-90.3684
 20
136.746
 11
-90.35
 21
136.5
  0
LINE
  8
0
 10
-90.35
 20
136.5
 11
-90.3684
 21
136.254
  0
LINE
  8
0
 10
-90.3684
 20
136.254
 11
-90.4233
 21
136.014
  0
LINE
  8
0
 10
-90.4233
 20
136.014
 11
-90.5134
 21
135.784
  0
LINE
  8
0
 10
-90.5134
 20
135.784
 11
-90.6367
 21
135.571
  0
LINE
  8
0
 10
-90.6367
 20
135.571
 11
-90.7905
 21
135.378
  0
LINE
  8
0
 10
-90.7905
 20
135.378
 11
-90.9712
 21
135.21
  0
LINE
  8
0
 10
-90.9712
 20
135.21
 11
-91.175
 21
135.071
  0
LINE
  8
0
 10
-91.175
 20
135.071
 11
-91.3972
 21
134.964
  0
LINE
  8
0
 10
-91.3972
 20
134.964
 11
-91.6328
 21
134.891
  0
LINE
  8
0
 10
-91.6328
 20
134.891
 11
-91.8767
 21
134.855
  0
LINE
  8
0
 10
-91.8767
 20
134.855
 11
-92.1233
 21
134.855
  0
LINE
  8
0
 10
117.877
 20
134.855
 11
117.633
 21
134.891
  0
LINE
  8
0
 10
117.633
 20
134.891
 11
117.397
 21
134.964
  0
LINE
  8
0
 10
117.397
 20
134.964
 11
117.175
 21
135.071
  0
LINE
  8
0
 10
117.175
 20
135.071
 11
116.971
 21
135.21
  0
LINE
  8
0
 10
116.971
 20
135.21
 11
116.79
 21
135.378
  0
LINE
  8
0
 10
116.79
 20
135.378
 11
116.637
 21
135.571
  0
LINE
  8
0
 10
116.637
 20
135.571
 11
116.513
 21
135.784
  0
LINE
  8
0
 10
116.513
 20
135.784
 11
116.423
 21
136.014
  0
LINE
  8
0
 10
116.423
 20
136.014
 11
116.368
 21
136.254
  0
LINE
  8
0
 10
116.368
 20
136.254
 11
116.35
 21
136.5
  0
LINE
  8
0
 10
116.35
 20
136.5
 11
116.368
 21
136.746
  0
LINE
  8
0
 10
116.368
 20
136.746
 11
116.423
 21
136.986
  0
LINE
  8
0
 10
116.423
 20
136.986
 11
116.513
 21
137.216
  0
LINE
  8
0
 10
116.513
 20
137.216
 11
116.637
 21
137.429
  0
LINE
  8
0
 10
116.637
 20
137.429
 11
116.79
 21
137.622
  0
LINE
  8
0
 10
116.79
 20
137.622
 11
116.971
 21
137.79
  0
LINE
  8
0
 10
116.971
 20
137.79
 11
117.175
 21
137.929
  0
LINE
  8
0
 10
117.175
 20
137.929
 11
117.397
 21
138.036
  0
LINE
  8
0
 10
117.397
 20
138.036
 11
117.633
 21
138.109
  0
LINE
  8
0
 10
117.633
 20
138.109
 11
117.877
 21
138.145
  0
LINE
  8
0
 10
117.877
 20
138.145
 11
118.123
 21
138.145
  0
LINE
  8
0
 10
118.123
 20
138.145
 11
118.367
 21
138.109
  0
LINE
  8
0
 10
118.367
 20
138.109
 11
118.603
 21
138.036
  0
LINE
  8
0
 10
118.603
 20
138.036
 11
118.825
 21
137.929
  0
LINE
  8
0
 10
118.825
 20
137.929
 11
119.029
 21
137.79
  0
LINE
  8
0
 10
119.029
 20
137.79
 11
119.21
 21
137.622
  0
LINE
  8
0
 10
119.21
 20
137.622
 11
119.363
 21
137.429
  0
LINE
  8
0
 10
119.363
 20
137.429
 11
119.487
 21
137.216
  0
LINE
  8
0
 10
119.487
 20
137.216
 11
119.577
 21
136.986
  0
LINE
  8
0
 10
119.577
 20
136.986
 11
119.632
 21
136.746
  0
LINE
  8
0
 10
119.632
 20
136.746
 11
119.65
 21
136.5
  0
LINE
  8
0
 10
119.65
 20
136.5
 11
119.632
 21
136.254
  0
LINE
  8
0
 10
119.632
 20
136.254
 11
119.577
 21
136.014
  0
LINE
  8
0
 10
119.577
 20
136.014
 11
119.487
 21
135.784
  0
LINE
  8
0
 10
119.487
 20
135.784
 11
119.363
 21
135.571
  0
LINE
  8
0
 10
119.363
 20
135.571
 11
119.21
 21
135.378
  0
LINE
  8
0
 10
119.21
 20
135.378
 11
119.029
 21
135.21
  0
LINE
  8
0
 10
119.029
 20
135.21
 11
118.825
 21
135.071
  0
LINE
  8
0
 10
118.825
 20
135.071
 11
118.603
 21
134.964
  0
LINE
  8
0
 10
118.603
 20
134.964
 11
118.367
 21
134.891
  0
LINE
  8
0
 10
118.367
 20
134.891
 11
118.123
 21
134.855
  0
LINE
  8
0
 10
118.123
 20
134.855
 11
117.877
 21
134.855
  0
LINE
  8
0
 10
-118.123
 20
134.855
 11
-118.367
 21
134.891
  0
LINE
  8
0
 10
-118.367
 20
134.891
 11
-118.603
 21
134.964
  0
LINE
  8
0
 10
-118.603
 20
134.964
 11
-118.825
 21
135.071
  0
LINE
  8
0
 10
-118.825
 20
135.071
 11
-119.029
 21
135.21
  0
LINE
  8
0
 10
-119.029
 20
135.21
 11
-119.21
 21
135.378
  0
LINE
  8
0
 10
-119.21
 20
135.378
 11
-119.363
 21
135.571
  0
LINE
  8
0
 10
-119.363
 20
135.571
 11
-119.487
 21
135.784
  0
LINE
  8
0
 10
-119.487
 20
135.784
 11
-119.577
 21
136.014
  0
LINE
  8
0
 10
-119.577
 20
136.014
 11
-119.632
 21
136.254
  0
LINE
  8
0
 10
-119.632
 20
136.254
 11
-119.65
 21
136.5
  0
LINE
  8
0
 10
-119.65
 20
136.5
 11
-119.632
 21
136.746
  0
LINE
  8
0
 10
-119.632
 20
136.746
 11
-119.577
 21
136.986
  0
LINE
  8
0
 10
-119.577
 20
136.986
 11
-119.487
 21
137.216
  0
LINE
  8
0
 10
-119.487
 20
137.216
 11
-119.363
 21
137.429
  0
LINE
  8
0
 10
-119.363
 20
137.429
 11
-119.21
 21
137.622
  0
LINE
  8
0
 10
-119.21
 20
137.622
 11
-119.029
 21
137.79
  0
LINE
  8
0
 10
-119.029
 20
137.79
 11
-118.825
 21
137.929
  0
LINE
  8
0
 10
-118.825
 20
137.929
 11
-118.603
 21
138.036
  0
LINE
  8
0
 10
-118.603
 20
138.036
 11
-118.367
 21
138.109
  0
LINE
  8
0
 10
-118.367
 20
138.109
 11
-118.123
 21
138.145
  0
LINE
  8
0
 10
-118.123
 20
138.145
 11
-117.877
 21
138.145
  0
LINE
  8
0
 10
-117.877
 20
138.145
 11
-117.633
 21
138.109
  0
LINE
  8
0
 10
-117.633
 20
138.109
 11
-117.397
 21
138.036
  0
LINE
  8
0
 10
-117.397
 20
138.036
 11
-117.175
 21
137.929
  0
LINE
  8
0
 10
-117.175
 20
137.929
 11
-116.971
 21
137.79
  0
LINE
  8
0
 10
-116.971
 20
137.79
 11
-116.79
 21
137.622
  0
LINE
  8
0
 10
-116.79
 20
137.622
 11
-116.637
 21
137.429
  0
LINE
  8
0
 10
-116.637
 20
137.429
 11
-116.513
 21
137.216
  0
LINE
  8
0
 10
-116.513
 20
137.216
 11
-116.423
 21
136.986
  0
LINE
  8
0
 10
-116.423
 20
136.986
 11
-116.368
 21
136.746
  0
LINE
  8
0
 10
-116.368
 20
136.746
 11
-116.35
 21
136.5
  0
LINE
  8
0
 10
-116.35
 20
136.5
 11
-116.368
 21
136.254
  0
LINE
  8
0
 10
-116.368
 20
136.254
 11
-116.423
 21
136.014
  0
LINE
  8
0
 10
-116.423
 20
136.014
 11
-116.513
 21
135.784
  0
LINE
  8
0
 10
-116.513
 20
135.784
 11
-116.637
 21
135.571
  0
LINE
  8
0
 10
-116.637
 20
135.571
 11
-116.79
 21
135.378
  0
LINE
  8
0
 10
-116.79
 20
135.378
 11
-116.971
 21
135.21
  0
LINE
  8
0
 10
-116.971
 20
135.21
 11
-117.175
 21
135.071
  0
LINE
  8
0
 10
-117.175
 20
135.071
 11
-117.397
 21
134.964
  0
LINE
  8
0
 10
-117.397
 20
134.964
 11
-117.633
 21
134.891
  0
LINE
  8
0
 10
-117.633
 20
134.891
 11
-117.877
 21
134.855
  0
LINE
  8
0
 10
-117.877
 20
134.855
 11
-118.123
 21
134.855
  0
LINE
  8
0
 10
-118.123
 20
116.855
 11
-118.367
 21
116.891
  0
LINE
  8
0
 10
-118.367
 20
116.891
 11
-118.603
 21
116.964
  0
LINE
  8
0
 10
-118.603
 20
116.964
 11
-118.825
 21
117.071
  0
LINE
  8
0
 10
-118.825
 20
117.071
 11
-119.029
 21
117.21
  0
LINE
  8
0
 10
-119.029
 20
117.21
 11
-119.21
 21
117.378
  0
LINE
  8
0
 10
-119.21
 20
117.378
 11
-119.363
 21
117.571
  0
LINE
  8
0
 10
-119.363
 20
117.571
 11
-119.487
 21
117.784
  0
LINE
  8
0
 10
-119.487
 20
117.784
 11
-119.577
 21
118.014
  0
LINE
  8
0
 10
-119.577
 20
118.014
 11
-119.632
 21
118.254
  0
LINE
  8
0
 10
-119.632
 20
118.254
 11
-119.65
 21
118.5
  0
LINE
  8
0
 10
-119.65
 20
118.5
 11
-119.632
 21
118.746
  0
LINE
  8
0
 10
-119.632
 20
118.746
 11
-119.577
 21
118.986
  0
LINE
  8
0
 10
-119.577
 20
118.986
 11
-119.487
 21
119.216
  0
LINE
  8
0
 10
-119.487
 20
119.216
 11
-119.363
 21
119.429
  0
LINE
  8
0
 10
-119.363
 20
119.429
 11
-119.21
 21
119.622
  0
LINE
  8
0
 10
-119.21
 20
119.622
 11
-119.029
 21
119.79
  0
LINE
  8
0
 10
-119.029
 20
119.79
 11
-118.825
 21
119.929
  0
LINE
  8
0
 10
-118.825
 20
119.929
 11
-118.603
 21
120.036
  0
LINE
  8
0
 10
-118.603
 20
120.036
 11
-118.367
 21
120.109
  0
LINE
  8
0
 10
-118.367
 20
120.109
 11
-118.123
 21
120.145
  0
LINE
  8
0
 10
-118.123
 20
120.145
 11
-117.877
 21
120.145
  0
LINE
  8
0
 10
-117.877
 20
120.145
 11
-117.633
 21
120.109
  0
LINE
  8
0
 10
-117.633
 20
120.109
 11
-117.397
 21
120.036
  0
LINE
  8
0
 10
-117.397
 20
120.036
 11
-117.175
 21
119.929
  0
LINE
  8
0
 10
-117.175
 20
119.929
 11
-116.971
 21
119.79
  0
LINE
  8
0
 10
-116.971
 20
119.79
 11
-116.79
 21
119.622
  0
LINE
  8
0
 10
-116.79
 20
119.622
 11
-116.637
 21
119.429
  0
LINE
  8
0
 10
-116.637
 20
119.429
 11
-116.513
 21
119.216
  0
LINE
  8
0
 10
-116.513
 20
119.216
 11
-116.423
 21
118.986
  0
LINE
  8
0
 10
-116.423
 20
118.986
 11
-116.368
 21
118.746
  0
LINE
  8
0
 10
-116.368
 20
118.746
 11
-116.35
 21
118.5
  0
LINE
  8
0
 10
-116.35
 20
118.5
 11
-116.368
 21
118.254
  0
LINE
  8
0
 10
-116.368
 20
118.254
 11
-116.423
 21
118.014
  0
LINE
  8
0
 10
-116.423
 20
118.014
 11
-116.513
 21
117.784
  0
LINE
  8
0
 10
-116.513
 20
117.784
 11
-116.637
 21
117.571
  0
LINE
  8
0
 10
-116.637
 20
117.571
 11
-116.79
 21
117.378
  0
LINE
  8
0
 10
-116.79
 20
117.378
 11
-116.971
 21
117.21
  0
LINE
  8
0
 10
-116.971
 20
117.21
 11
-117.175
 21
117.071
  0
LINE
  8
0
 10
-117.175
 20
117.071
 11
-117.397
 21
116.964
  0
LINE
  8
0
 10
-117.397
 20
116.964
 11
-117.633
 21
116.891
  0
LINE
  8
0
 10
-117.633
 20
116.891
 11
-117.877
 21
116.855
  0
LINE
  8
0
 10
-117.877
 20
116.855
 11
-118.123
 21
116.855
  0
LINE
  8
0
 10
-92.1233
 20
116.855
 11
-92.3672
 21
116.891
  0
LINE
  8
0
 10
-92.3672
 20
116.891
 11
-92.6028
 21
116.964
  0
LINE
  8
0
 10
-92.6028
 20
116.964
 11
-92.825
 21
117.071
  0
LINE
  8
0
 10
-92.825
 20
117.071
 11
-93.0288
 21
117.21
  0
LINE
  8
0
 10
-93.0288
 20
117.21
 11
-93.2095
 21
117.378
  0
LINE
  8
0
 10
-93.2095
 20
117.378
 11
-93.3633
 21
117.571
  0
LINE
  8
0
 10
-93.3633
 20
117.571
 11
-93.4866
 21
117.784
  0
LINE
  8
0
 10
-93.4866
 20
117.784
 11
-93.5767
 21
118.014
  0
LINE
  8
0
 10
-93.5767
 20
118.014
 11
-93.6316
 21
118.254
  0
LINE
  8
0
 10
-93.6316
 20
118.254
 11
-93.65
 21
118.5
  0
LINE
  8
0
 10
-93.65
 20
118.5
 11
-93.6316
 21
118.746
  0
LINE
  8
0
 10
-93.6316
 20
118.746
 11
-93.5767
 21
118.986
  0
LINE
  8
0
 10
-93.5767
 20
118.986
 11
-93.4866
 21
119.216
  0
LINE
  8
0
 10
-93.4866
 20
119.216
 11
-93.3633
 21
119.429
  0
LINE
  8
0
 10
-93.3633
 20
119.429
 11
-93.2095
 21
119.622
  0
LINE
  8
0
 10
-93.2095
 20
119.622
 11
-93.0288
 21
119.79
  0
LINE
  8
0
 10
-93.0288
 20
119.79
 11
-92.825
 21
119.929
  0
LINE
  8
0
 10
-92.825
 20
119.929
 11
-92.6028
 21
120.036
  0
LINE
  8
0
 10
-92.6028
 20
120.036
 11
-92.3672
 21
120.109
  0
LINE
  8
0
 10
-92.3672
 20
120.109
 11
-92.1233
 21
120.145
  0
LINE
  8
0
 10
-92.1233
 20
120.145
 11
-91.8767
 21
120.145
  0
LINE
  8
0
 10
-91.8767
 20
120.145
 11
-91.6328
 21
120.109
  0
LINE
  8
0
 10
-91.6328
 20
120.109
 11
-91.3972
 21
120.036
  0
LINE
  8
0
 10
-91.3972
 20
120.036
 11
-91.175
 21
119.929
  0
LINE
  8
0
 10
-91.175
 20
119.929
 11
-90.9712
 21
119.79
  0
LINE
  8
0
 10
-90.9712
 20
119.79
 11
-90.7905
 21
119.622
  0
LINE
  8
0
 10
-90.7905
 20
119.622
 11
-90.6367
 21
119.429
  0
LINE
  8
0
 10
-90.6367
 20
119.429
 11
-90.5134
 21
119.216
  0
LINE
  8
0
 10
-90.5134
 20
119.216
 11
-90.4233
 21
118.986
  0
LINE
  8
0
 10
-90.4233
 20
118.986
 11
-90.3684
 21
118.746
  0
LINE
  8
0
 10
-90.3684
 20
118.746
 11
-90.35
 21
118.5
  0
LINE
  8
0
 10
-90.35
 20
118.5
 11
-90.3684
 21
118.254
  0
LINE
  8
0
 10
-90.3684
 20
118.254
 11
-90.4233
 21
118.014
  0
LINE
  8
0
 10
-90.4233
 20
118.014
 11
-90.5134
 21
117.784
  0
LINE
  8
0
 10
-90.5134
 20
117.784
 11
-90.6367
 21
117.571
  0
LINE
  8
0
 10
-90.6367
 20
117.571
 11
-90.7905
 21
117.378
  0
LINE
  8
0
 10
-90.7905
 20
117.378
 11
-90.9712
 21
117.21
  0
LINE
  8
0
 10
-90.9712
 20
117.21
 11
-91.175
 21
117.071
  0
LINE
  8
0
 10
-91.175
 20
117.071
 11
-91.3972
 21
116.964
  0
LINE
  8
0
 10
-91.3972
 20
116.964
 11
-91.6328
 21
116.891
  0
LINE
  8
0
 10
-91.6328
 20
116.891
 11
-91.8767
 21
116.855
  0
LINE
  8
0
 10
-91.8767
 20
116.855
 11
-92.1233
 21
116.855
  0
LINE
  8
0
 10
117.877
 20
116.855
 11
117.633
 21
116.891
  0
LINE
  8
0
 10
117.633
 20
116.891
 11
117.397
 21
116.964
  0
LINE
  8
0
 10
117.397
 20
116.964
 11
117.175
 21
117.071
  0
LINE
  8
0
 10
117.175
 20
117.071
 11
116.971
 21
117.21
  0
LINE
  8
0
 10
116.971
 20
117.21
 11
116.79
 21
117.378
  0
LINE
  8
0
 10
116.79
 20
117.378
 11
116.637
 21
117.571
  0
LINE
  8
0
 10
116.637
 20
117.571
 11
116.513
 21
117.784
  0
LINE
  8
0
 10
116.513
 20
117.784
 11
116.423
 21
118.014
  0
LINE
  8
0
 10
116.423
 20
118.014
 11
116.368
 21
118.254
  0
LINE
  8
0
 10
116.368
 20
118.254
 11
116.35
 21
118.5
  0
LINE
  8
0
 10
116.35
 20
118.5
 11
116.368
 21
118.746
  0
LINE
  8
0
 10
116.368
 20
118.746
 11
116.423
 21
118.986
  0
LINE
  8
0
 10
116.423
 20
118.986
 11
116.513
 21
119.216
  0
LINE
  8
0
 10
116.513
 20
119.216
 11
116.637
 21
119.429
  0
LINE
  8
0
 10
116.637
 20
119.429
 11
116.79
 21
119.622
  0
LINE
  8
0
 10
116.79
 20
119.622
 11
116.971
 21
119.79
  0
LINE
  8
0
 10
116.971
 20
119.79
 11
117.175
 21
119.929
  0
LINE
  8
0
 10
117.175
 20
119.929
 11
117.397
 21
120.036
  0
LINE
  8
0
 10
117.397
 20
120.036
 11
117.633
 21
120.109
  0
LINE
  8
0
 10
117.633
 20
120.109
 11
117.877
 21
120.145
  0
LINE
  8
0
 10
117.877
 20
120.145
 11
118.123
 21
120.145
  0
LINE
  8
0
 10
118.123
 20
120.145
 11
118.367
 21
120.109
  0
LINE
  8
0
 10
118.367
 20
120.109
 11
118.603
 21
120.036
  0
LINE
  8
0
 10
118.603
 20
120.036
 11
118.825
 21
119.929
  0
LINE
  8
0
 10
118.825
 20
119.929
 11
119.029
 21
119.79
  0
LINE
  8
0
 10
119.029
 20
119.79
 11
119.21
 21
119.622
  0
LINE
  8
0
 10
119.21
 20
119.622
 11
119.363
 21
119.429
  0
LINE
  8
0
 10
119.363
 20
119.429
 11
119.487
 21
119.216
  0
LINE
  8
0
 10
119.487
 20
119.216
 11
119.577
 21
118.986
  0
LINE
  8
0
 10
119.577
 20
118.986
 11
119.632
 21
118.746
  0
LINE
  8
0
 10
119.632
 20
118.746
 11
119.65
 21
118.5
  0
LINE
  8
0
 10
119.65
 20
118.5
 11
119.632
 21
118.254
  0
LINE
  8
0
 10
119.632
 20
118.254
 11
119.577
 21
118.014
  0
LINE
  8
0
 10
119.577
 20
118.014
 11
119.487
 21
117.784
  0
LINE
  8
0
 10
119.487
 20
117.784
 11
119.363
 21
117.571
  0
LINE
  8
0
 10
119.363
 20
117.571
 11
119.21
 21
117.378
  0
LINE
  8
0
 10
119.21
 20
117.378
 11
119.029
 21
117.21
  0
LINE
  8
0
 10
119.029
 20
117.21
 11
118.825
 21
117.071
  0
LINE
  8
0
 10
118.825
 20
117.071
 11
118.603
 21
116.964
  0
LINE
  8
0
 10
118.603
 20
116.964
 11
118.367
 21
116.891
  0
LINE
  8
0
 10
118.367
 20
116.891
 11
118.123
 21
116.855
  0
LINE
  8
0
 10
118.123
 20
116.855
 11
117.877
 21
116.855
  0
LINE
  8
0
 10
91.8767
 20
116.855
 11
91.6328
 21
116.891
  0
LINE
  8
0
 10
91.6328
 20
116.891
 11
91.3972
 21
116.964
  0
LINE
  8
0
 10
91.3972
 20
116.964
 11
91.175
 21
117.071
  0
LINE
  8
0
 10
91.175
 20
117.071
 11
90.9712
 21
117.21
  0
LINE
  8
0
 10
90.9712
 20
117.21
 11
90.7905
 21
117.378
  0
LINE
  8
0
 10
90.7905
 20
117.378
 11
90.6367
 21
117.571
  0
LINE
  8
0
 10
90.6367
 20
117.571
 11
90.5134
 21
117.784
  0
LINE
  8
0
 10
90.5134
 20
117.784
 11
90.4233
 21
118.014
  0
LINE
  8
0
 10
90.4233
 20
118.014
 11
90.3684
 21
118.254
  0
LINE
  8
0
 10
90.3684
 20
118.254
 11
90.35
 21
118.5
  0
LINE
  8
0
 10
90.35
 20
118.5
 11
90.3684
 21
118.746
  0
LINE
  8
0
 10
90.3684
 20
118.746
 11
90.4233
 21
118.986
  0
LINE
  8
0
 10
90.4233
 20
118.986
 11
90.5134
 21
119.216
  0
LINE
  8
0
 10
90.5134
 20
119.216
 11
90.6367
 21
119.429
  0
LINE
  8
0
 10
90.6367
 20
119.429
 11
90.7905
 21
119.622
  0
LINE
  8
0
 10
90.7905
 20
119.622
 11
90.9712
 21
119.79
  0
LINE
  8
0
 10
90.9712
 20
119.79
 11
91.175
 21
119.929
  0
LINE
  8
0
 10
91.175
 20
119.929
 11
91.3972
 21
120.036
  0
LINE
  8
0
 10
91.3972
 20
120.036
 11
91.6328
 21
120.109
  0
LINE
  8
0
 10
91.6328
 20
120.109
 11
91.8767
 21
120.145
  0
LINE
  8
0
 10
91.8767
 20
120.145
 11
92.1233
 21
120.145
  0
LINE
  8
0
 10
92.1233
 20
120.145
 11
92.3672
 21
120.109
  0
LINE
  8
0
 10
92.3672
 20
120.109
 11
92.6028
 21
120.036
  0
LINE
  8
0
 10
92.6028
 20
120.036
 11
92.825
 21
119.929
  0
LINE
  8
0
 10
92.825
 20
119.929
 11
93.0288
 21
119.79
  0
LINE
  8
0
 10
93.0288
 20
119.79
 11
93.2095
 21
119.622
  0
LINE
  8
0
 10
93.2095
 20
119.622
 11
93.3633
 21
119.429
  0
LINE
  8
0
 10
93.3633
 20
119.429
 11
93.4866
 21
119.216
  0
LINE
  8
0
 10
93.4866
 20
119.216
 11
93.5767
 21
118.986
  0
LINE
  8
0
 10
93.5767
 20
118.986
 11
93.6316
 21
118.746
  0
LINE
  8
0
 10
93.6316
 20
118.746
 11
93.65
 21
118.5
  0
LINE
  8
0
 10
93.65
 20
118.5
 11
93.6316
 21
118.254
  0
LINE
  8
0
 10
93.6316
 20
118.254
 11
93.5767
 21
118.014
  0
LINE
  8
0
 10
93.5767
 20
118.014
 11
93.4866
 21
117.784
  0
LINE
  8
0
 10
93.4866
 20
117.784
 11
93.3633
 21
117.571
  0
LINE
  8
0
 10
93.3633
 20
117.571
 11
93.2095
 21
117.378
  0
LINE
  8
0
 10
93.2095
 20
117.378
 11
93.0288
 21
117.21
  0
LINE
  8
0
 10
93.0288
 20
117.21
 11
92.825
 21
117.071
  0
LINE
  8
0
 10
92.825
 20
117.071
 11
92.6028
 21
116.964
  0
LINE
  8
0
 10
92.6028
 20
116.964
 11
92.3672
 21
116.891
  0
LINE
  8
0
 10
92.3672
 20
116.891
 11
92.1233
 21
116.855
  0
LINE
  8
0
 10
92.1233
 20
116.855
 11
91.8767
 21
116.855
  0
LINE
  8
0
 10
-232.809
 20
86.5213
 11
-233.052
 21
86.5688
  0
LINE
  8
0
 10
-233.052
 20
86.5688
 11
-233.289
 21
86.6429
  0
LINE
  8
0
 10
-233.289
 20
86.6429
 11
-233.516
 21
86.7424
  0
LINE
  8
0
 10
-233.516
 20
86.7424
 11
-233.731
 21
86.8664
  0
LINE
  8
0
 10
-233.731
 20
86.8664
 11
-233.93
 21
87.0132
  0
LINE
  8
0
 10
-233.93
 20
87.0132
 11
-234.113
 21
87.1811
  0
LINE
  8
0
 10
-234.113
 20
87.1811
 11
-234.276
 21
87.368
  0
LINE
  8
0
 10
-234.276
 20
87.368
 11
-234.417
 21
87.5717
  0
LINE
  8
0
 10
-234.417
 20
87.5717
 11
-234.535
 21
87.7897
  0
LINE
  8
0
 10
-234.535
 20
87.7897
 11
-234.628
 21
88.0194
  0
LINE
  8
0
 10
-234.628
 20
88.0194
 11
-234.696
 21
88.258
  0
LINE
  8
0
 10
-234.696
 20
88.258
 11
-234.736
 21
88.5025
  0
LINE
  8
0
 10
-234.736
 20
88.5025
 11
-234.75
 21
88.75
  0
LINE
  8
0
 10
-234.75
 20
88.75
 11
-234.736
 21
88.9975
  0
LINE
  8
0
 10
-234.736
 20
88.9975
 11
-234.696
 21
89.242
  0
LINE
  8
0
 10
-234.696
 20
89.242
 11
-234.628
 21
89.4806
  0
LINE
  8
0
 10
-234.628
 20
89.4806
 11
-234.535
 21
89.7102
  0
LINE
  8
0
 10
-234.535
 20
89.7102
 11
-234.417
 21
89.9283
  0
LINE
  8
0
 10
-234.417
 20
89.9283
 11
-234.276
 21
90.132
  0
LINE
  8
0
 10
-234.276
 20
90.132
 11
-234.113
 21
90.3189
  0
LINE
  8
0
 10
-234.113
 20
90.3189
 11
-233.93
 21
90.4868
  0
LINE
  8
0
 10
-233.93
 20
90.4868
 11
-233.731
 21
90.6336
  0
LINE
  8
0
 10
-233.731
 20
90.6336
 11
-233.516
 21
90.7576
  0
LINE
  8
0
 10
-233.516
 20
90.7576
 11
-233.289
 21
90.8571
  0
LINE
  8
0
 10
-233.289
 20
90.8571
 11
-233.052
 21
90.9312
  0
LINE
  8
0
 10
-233.052
 20
90.9312
 11
-232.809
 21
90.9787
  0
LINE
  8
0
 10
-232.809
 20
90.9787
 11
-232.562
 21
90.9991
  0
LINE
  8
0
 10
-232.562
 20
90.9991
 11
-232.314
 21
90.9923
  0
LINE
  8
0
 10
-232.314
 20
90.9923
 11
-232.069
 21
90.9583
  0
LINE
  8
0
 10
-232.069
 20
90.9583
 11
-231.828
 21
90.8974
  0
LINE
  8
0
 10
-231.828
 20
90.8974
 11
-231.596
 21
90.8105
  0
LINE
  8
0
 10
-231.596
 20
90.8105
 11
-231.375
 21
90.6985
  0
LINE
  8
0
 10
-231.375
 20
90.6985
 11
-231.167
 21
90.563
  0
LINE
  8
0
 10
-231.167
 20
90.563
 11
-230.976
 21
90.4054
  0
LINE
  8
0
 10
-230.976
 20
90.4054
 11
-230.803
 21
90.2277
  0
LINE
  8
0
 10
-230.803
 20
90.2277
 11
-230.651
 21
90.0321
  0
LINE
  8
0
 10
-230.651
 20
90.0321
 11
-230.521
 21
89.8209
  0
LINE
  8
0
 10
-230.521
 20
89.8209
 11
-230.415
 21
89.5967
  0
LINE
  8
0
 10
-230.415
 20
89.5967
 11
-230.335
 21
89.3622
  0
LINE
  8
0
 10
-230.335
 20
89.3622
 11
-230.281
 21
89.1203
  0
LINE
  8
0
 10
-230.281
 20
89.1203
 11
-230.253
 21
88.8739
  0
LINE
  8
0
 10
-230.253
 20
88.8739
 11
-230.253
 21
88.6261
  0
LINE
  8
0
 10
-230.253
 20
88.6261
 11
-230.281
 21
88.3797
  0
LINE
  8
0
 10
-230.281
 20
88.3797
 11
-230.335
 21
88.1378
  0
LINE
  8
0
 10
-230.335
 20
88.1378
 11
-230.415
 21
87.9033
  0
LINE
  8
0
 10
-230.415
 20
87.9033
 11
-230.521
 21
87.6791
  0
LINE
  8
0
 10
-230.521
 20
87.6791
 11
-230.651
 21
87.4679
  0
LINE
  8
0
 10
-230.651
 20
87.4679
 11
-230.803
 21
87.2723
  0
LINE
  8
0
 10
-230.803
 20
87.2723
 11
-230.976
 21
87.0946
  0
LINE
  8
0
 10
-230.976
 20
87.0946
 11
-231.167
 21
86.937
  0
LINE
  8
0
 10
-231.167
 20
86.937
 11
-231.375
 21
86.8014
  0
LINE
  8
0
 10
-231.375
 20
86.8014
 11
-231.596
 21
86.6895
  0
LINE
  8
0
 10
-231.596
 20
86.6895
 11
-231.828
 21
86.6026
  0
LINE
  8
0
 10
-231.828
 20
86.6026
 11
-232.069
 21
86.5417
  0
LINE
  8
0
 10
-232.069
 20
86.5417
 11
-232.314
 21
86.5077
  0
LINE
  8
0
 10
-232.314
 20
86.5077
 11
-232.562
 21
86.5009
  0
LINE
  8
0
 10
-232.562
 20
86.5009
 11
-232.809
 21
86.5213
  0
LINE
  8
0
 10
232.314
 20
86.5077
 11
232.069
 21
86.5417
  0
LINE
  8
0
 10
232.069
 20
86.5417
 11
231.828
 21
86.6026
  0
LINE
  8
0
 10
231.828
 20
86.6026
 11
231.596
 21
86.6895
  0
LINE
  8
0
 10
231.596
 20
86.6895
 11
231.375
 21
86.8014
  0
LINE
  8
0
 10
231.375
 20
86.8014
 11
231.167
 21
86.937
  0
LINE
  8
0
 10
231.167
 20
86.937
 11
230.976
 21
87.0946
  0
LINE
  8
0
 10
230.976
 20
87.0946
 11
230.803
 21
87.2723
  0
LINE
  8
0
 10
230.803
 20
87.2723
 11
230.651
 21
87.4679
  0
LINE
  8
0
 10
230.651
 20
87.4679
 11
230.521
 21
87.6791
  0
LINE
  8
0
 10
230.521
 20
87.6791
 11
230.415
 21
87.9033
  0
LINE
  8
0
 10
230.415
 20
87.9033
 11
230.335
 21
88.1378
  0
LINE
  8
0
 10
230.335
 20
88.1378
 11
230.281
 21
88.3797
  0
LINE
  8
0
 10
230.281
 20
88.3797
 11
230.253
 21
88.6261
  0
LINE
  8
0
 10
230.253
 20
88.6261
 11
230.253
 21
88.8739
  0
LINE
  8
0
 10
230.253
 20
88.8739
 11
230.281
 21
89.1203
  0
LINE
  8
0
 10
230.281
 20
89.1203
 11
230.335
 21
89.3622
  0
LINE
  8
0
 10
230.335
 20
89.3622
 11
230.415
 21
89.5967
  0
LINE
  8
0
 10
230.415
 20
89.5967
 11
230.521
 21
89.8209
  0
LINE
  8
0
 10
230.521
 20
89.8209
 11
230.651
 21
90.0321
  0
LINE
  8
0
 10
230.651
 20
90.0321
 11
230.803
 21
90.2277
  0
LINE
  8
0
 10
230.803
 20
90.2277
 11
230.976
 21
90.4054
  0
LINE
  8
0
 10
230.976
 20
90.4054
 11
231.167
 21
90.563
  0
LINE
  8
0
 10
231.167
 20
90.563
 11
231.375
 21
90.6985
  0
LINE
  8
0
 10
231.375
 20
90.6985
 11
231.596
 21
90.8105
  0
LINE
  8
0
 10
231.596
 20
90.8105
 11
231.828
 21
90.8974
  0
LINE
  8
0
 10
231.828
 20
90.8974
 11
232.069
 21
90.9583
  0
LINE
  8
0
 10
232.069
 20
90.9583
 11
232.314
 21
90.9923
  0
LINE
  8
0
 10
232.314
 20
90.9923
 11
232.562
 21
90.9991
  0
LINE
  8
0
 10
232.562
 20
90.9991
 11
232.809
 21
90.9787
  0
LINE
  8
0
 10
232.809
 20
90.9787
 11
233.052
 21
90.9312
  0
LINE
  8
0
 10
233.052
 20
90.9312
 11
233.289
 21
90.8571
  0
LINE
  8
0
 10
233.289
 20
90.8571
 11
233.516
 21
90.7576
  0
LINE
  8
0
 10
233.516
 20
90.7576
 11
233.731
 21
90.6336
  0
LINE
  8
0
 10
233.731
 20
90.6336
 11
233.93
 21
90.4868
  0
LINE
  8
0
 10
233.93
 20
90.4868
 11
234.113
 21
90.3189
  0
LINE
  8
0
 10
234.113
 20
90.3189
 11
234.276
 21
90.132
  0
LINE
  8
0
 10
234.276
 20
90.132
 11
234.417
 21
89.9283
  0
LINE
  8
0
 10
234.417
 20
89.9283
 11
234.535
 21
89.7102
  0
LINE
  8
0
 10
234.535
 20
89.7102
 11
234.628
 21
89.4806
  0
LINE
  8
0
 10
234.628
 20
89.4806
 11
234.696
 21
89.242
  0
LINE
  8
0
 10
234.696
 20
89.242
 11
234.736
 21
88.9975
  0
LINE
  8
0
 10
234.736
 20
88.9975
 11
234.75
 21
88.75
  0
LINE
  8
0
 10
234.75
 20
88.75
 11
234.736
 21
88.5025
  0
LINE
  8
0
 10
234.736
 20
88.5025
 11
234.696
 21
88.258
  0
LINE
  8
0
 10
234.696
 20
88.258
 11
234.628
 21
88.0194
  0
LINE
  8
0
 10
234.628
 20
88.0194
 11
234.535
 21
87.7897
  0
LINE
  8
0
 10
234.535
 20
87.7897
 11
234.417
 21
87.5717
  0
LINE
  8
0
 10
234.417
 20
87.5717
 11
234.276
 21
87.368
  0
LINE
  8
0
 10
234.276
 20
87.368
 11
234.113
 21
87.1811
  0
LINE
  8
0
 10
234.113
 20
87.1811
 11
233.93
 21
87.0132
  0
LINE
  8
0
 10
233.93
 20
87.0132
 11
233.731
 21
86.8664
  0
LINE
  8
0
 10
233.731
 20
86.8664
 11
233.516
 21
86.7424
  0
LINE
  8
0
 10
233.516
 20
86.7424
 11
233.289
 21
86.6429
  0
LINE
  8
0
 10
233.289
 20
86.6429
 11
233.052
 21
86.5688
  0
LINE
  8
0
 10
233.052
 20
86.5688
 11
232.809
 21
86.5213
  0
LINE
  8
0
 10
232.809
 20
86.5213
 11
232.562
 21
86.5009
  0
LINE
  8
0
 10
232.562
 20
86.5009
 11
232.314
 21
86.5077
  0
LINE
  8
0
 10
232.314
 20
-2.24231
 11
232.069
 21
-2.20825
  0
LINE
  8
0
 10
232.069
 20
-2.20825
 11
231.828
 21
-2.1474
  0
LINE
  8
0
 10
231.828
 20
-2.1474
 11
231.596
 21
-2.06049
  0
LINE
  8
0
 10
231.596
 20
-2.06049
 11
231.375
 21
-1.94855
  0
LINE
  8
0
 10
231.375
 20
-1.94855
 11
231.167
 21
-1.81296
  0
LINE
  8
0
 10
231.167
 20
-1.81296
 11
230.976
 21
-1.65536
  0
LINE
  8
0
 10
230.976
 20
-1.65536
 11
230.803
 21
-1.47769
  0
LINE
  8
0
 10
230.803
 20
-1.47769
 11
230.651
 21
-1.28206
  0
LINE
  8
0
 10
230.651
 20
-1.28206
 11
230.521
 21
-1.07088
  0
LINE
  8
0
 10
230.521
 20
-1.07088
 11
230.415
 21
-0.846695
  0
LINE
  8
0
 10
230.415
 20
-0.846695
 11
230.335
 21
-0.612228
  0
LINE
  8
0
 10
230.335
 20
-0.612228
 11
230.281
 21
-0.370331
  0
LINE
  8
0
 10
230.281
 20
-0.370331
 11
230.253
 21
-0.123947
  0
LINE
  8
0
 10
230.253
 20
-0.123947
 11
230.253
 21
0.123947
  0
LINE
  8
0
 10
230.253
 20
0.123947
 11
230.281
 21
0.370331
  0
LINE
  8
0
 10
230.281
 20
0.370331
 11
230.335
 21
0.612228
  0
LINE
  8
0
 10
230.335
 20
0.612228
 11
230.415
 21
0.846695
  0
LINE
  8
0
 10
230.415
 20
0.846695
 11
230.521
 21
1.07088
  0
LINE
  8
0
 10
230.521
 20
1.07088
 11
230.651
 21
1.28206
  0
LINE
  8
0
 10
230.651
 20
1.28206
 11
230.803
 21
1.47769
  0
LINE
  8
0
 10
230.803
 20
1.47769
 11
230.976
 21
1.65536
  0
LINE
  8
0
 10
230.976
 20
1.65536
 11
231.167
 21
1.81296
  0
LINE
  8
0
 10
231.167
 20
1.81296
 11
231.375
 21
1.94855
  0
LINE
  8
0
 10
231.375
 20
1.94855
 11
231.596
 21
2.06049
  0
LINE
  8
0
 10
231.596
 20
2.06049
 11
231.828
 21
2.1474
  0
LINE
  8
0
 10
231.828
 20
2.1474
 11
232.069
 21
2.20825
  0
LINE
  8
0
 10
232.069
 20
2.20825
 11
232.314
 21
2.24231
  0
LINE
  8
0
 10
232.314
 20
2.24231
 11
232.562
 21
2.24915
  0
LINE
  8
0
 10
232.562
 20
2.24915
 11
232.809
 21
2.22867
  0
LINE
  8
0
 10
232.809
 20
2.22867
 11
233.052
 21
2.18114
  0
LINE
  8
0
 10
233.052
 20
2.18114
 11
233.289
 21
2.10715
  0
LINE
  8
0
 10
233.289
 20
2.10715
 11
233.516
 21
2.00757
  0
LINE
  8
0
 10
233.516
 20
2.00757
 11
233.731
 21
1.88362
  0
LINE
  8
0
 10
233.731
 20
1.88362
 11
233.93
 21
1.7368
  0
LINE
  8
0
 10
233.93
 20
1.7368
 11
234.113
 21
1.56891
  0
LINE
  8
0
 10
234.113
 20
1.56891
 11
234.276
 21
1.38197
  0
LINE
  8
0
 10
234.276
 20
1.38197
 11
234.417
 21
1.17825
  0
LINE
  8
0
 10
234.417
 20
1.17825
 11
234.535
 21
0.960236
  0
LINE
  8
0
 10
234.535
 20
0.960236
 11
234.628
 21
0.73056
  0
LINE
  8
0
 10
234.628
 20
0.73056
 11
234.696
 21
0.49202
  0
LINE
  8
0
 10
234.696
 20
0.49202
 11
234.736
 21
0.247513
  0
LINE
  8
0
 10
234.736
 20
0.247513
 11
234.75
 21
0
  0
LINE
  8
0
 10
234.75
 20
0
 11
234.736
 21
-0.247513
  0
LINE
  8
0
 10
234.736
 20
-0.247513
 11
234.696
 21
-0.49202
  0
LINE
  8
0
 10
234.696
 20
-0.49202
 11
234.628
 21
-0.73056
  0
LINE
  8
0
 10
234.628
 20
-0.73056
 11
234.535
 21
-0.960236
  0
LINE
  8
0
 10
234.535
 20
-0.960236
 11
234.417
 21
-1.17825
  0
LINE
  8
0
 10
234.417
 20
-1.17825
 11
234.276
 21
-1.38197
  0
LINE
  8
0
 10
234.276
 20
-1.38197
 11
234.113
 21
-1.56891
  0
LINE
  8
0
 10
234.113
 20
-1.56891
 11
233.93
 21
-1.7368
  0
LINE
  8
0
 10
233.93
 20
-1.7368
 11
233.731
 21
-1.88362
  0
LINE
  8
0
 10
233.731
 20
-1.88362
 11
233.516
 21
-2.00757
  0
LINE
  8
0
 10
233.516
 20
-2.00757
 11
233.289
 21
-2.10715
  0
LINE
  8
0
 10
233.289
 20
-2.10715
 11
233.052
 21
-2.18114
  0
LINE
  8
0
 10
233.052
 20
-2.18114
 11
232.809
 21
-2.22867
  0
LINE
  8
0
 10
232.809
 20
-2.22867
 11
232.562
 21
-2.24915
  0
LINE
  8
0
 10
232.562
 20
-2.24915
 11
232.314
 21
-2.24231
  0
LINE
  8
0
 10
-232.809
 20
-2.22867
 11
-233.052
 21
-2.18114
  0
LINE
  8
0
 10
-233.052
 20
-2.18114
 11
-233.289
 21
-2.10715
  0
LINE
  8
0
 10
-233.289
 20
-2.10715
 11
-233.516
 21
-2.00757
  0
LINE
  8
0
 10
-233.516
 20
-2.00757
 11
-233.731
 21
-1.88362
  0
LINE
  8
0
 10
-233.731
 20
-1.88362
 11
-233.93
 21
-1.7368
  0
LINE
  8
0
 10
-233.93
 20
-1.7368
 11
-234.113
 21
-1.56891
  0
LINE
  8
0
 10
-234.113
 20
-1.56891
 11
-234.276
 21
-1.38197
  0
LINE
  8
0
 10
-234.276
 20
-1.38197
 11
-234.417
 21
-1.17825
  0
LINE
  8
0
 10
-234.417
 20
-1.17825
 11
-234.535
 21
-0.960236
  0
LINE
  8
0
 10
-234.535
 20
-0.960236
 11
-234.628
 21
-0.73056
  0
LINE
  8
0
 10
-234.628
 20
-0.73056
 11
-234.696
 21
-0.49202
  0
LINE
  8
0
 10
-234.696
 20
-0.49202
 11
-234.736
 21
-0.247513
  0
LINE
  8
0
 10
-234.736
 20
-0.247513
 11
-234.75
 21
0
  0
LINE
  8
0
 10
-234.75
 20
0
 11
-234.736
 21
0.247513
  0
LINE
  8
0
 10
-234.736
 20
0.247513
 11
-234.696
 21
0.49202
  0
LINE
  8
0
 10
-234.696
 20
0.49202
 11
-234.628
 21
0.73056
  0
LINE
  8
0
 10
-234.628
 20
0.73056
 11
-234.535
 21
0.960236
  0
LINE
  8
0
 10
-234.535
 20
0.960236
 11
-234.417
 21
1.17825
  0
LINE
  8
0
 10
-234.417
 20
1.17825
 11
-234.276
 21
1.38197
  0
LINE
  8
0
 10
-234.276
 20
1.38197
 11
-234.113
 21
1.56891
  0
LINE
  8
0
 10
-234.113
 20
1.56891
 11
-233.93
 21
1.7368
  0
LINE
  8
0
 10
-233.93
 20
1.7368
 11
-233.731
 21
1.88362
  0
LINE
  8
0
 10
-233.731
 20
1.88362
 11
-233.516
 21
2.00757
  0
LINE
  8
0
 10
-233.516
 20
2.00757
 11
-233.289
 21
2.10715
  0
LINE
  8
0
 10
-233.289
 20
2.10715
 11
-233.052
 21
2.18114
  0
LINE
  8
0
 10
-233.052
 20
2.18114
 11
-232.809
 21
2.22867
  0
LINE
  8
0
 10
-232.809
 20
2.22867
 11
-232.562
 21
2.24915
  0
LINE
  8
0
 10
-232.562
 20
2.24915
 11
-232.314
 21
2.24231
  0
LINE
  8
0
 10
-232.314
 20
2.24231
 11
-232.069
 21
2.20825
  0
LINE
  8
0
 10
-232.069
 20
2.20825
 11
-231.828
 21
2.1474
  0
LINE
  8
0
 10
-231.828
 20
2.1474
 11
-231.596
 21
2.06049
  0
LINE
  8
0
 10
-231.596
 20
2.06049
 11
-231.375
 21
1.94855
  0
LINE
  8
0
 10
-231.375
 20
1.94855
 11
-231.167
 21
1.81296
  0
LINE
  8
0
 10
-231.167
 20
1.81296
 11
-230.976
 21
1.65536
  0
LINE
  8
0
 10
-230.976
 20
1.65536
 11
-230.803
 21
1.47769
  0
LINE
  8
0
 10
-230.803
 20
1.47769
 11
-230.651
 21
1.28206
  0
LINE
  8
0
 10
-230.651
 20
1.28206
 11
-230.521
 21
1.07088
  0
LINE
  8
0
 10
-230.521
 20
1.07088
 11
-230.415
 21
0.846695
  0
LINE
  8
0
 10
-230.415
 20
0.846695
 11
-230.335
 21
0.612228
  0
LINE
  8
0
 10
-230.335
 20
0.612228
 11
-230.281
 21
0.370331
  0
LINE
  8
0
 10
-230.281
 20
0.370331
 11
-230.253
 21
0.123947
  0
LINE
  8
0
 10
-230.253
 20
0.123947
 11
-230.253
 21
-0.123947
  0
LINE
  8
0
 10
-230.253
 20
-0.123947
 11
-230.281
 21
-0.370331
  0
LINE
  8
0
 10
-230.281
 20
-0.370331
 11
-230.335
 21
-0.612228
  0
LINE
  8
0
 10
-230.335
 20
-0.612228
 11
-230.415
 21
-0.846695
  0
LINE
  8
0
 10
-230.415
 20
-0.846695
 11
-230.521
 21
-1.07088
  0
LINE
  8
0
 10
-230.521
 20
-1.07088
 11
-230.651
 21
-1.28206
  0
LINE
  8
0
 10
-230.651
 20
-1.28206
 11
-230.803
 21
-1.47769
  0
LINE
  8
0
 10
-230.803
 20
-1.47769
 11
-230.976
 21
-1.65536
  0
LINE
  8
0
 10
-230.976
 20
-1.65536
 11
-231.167
 21
-1.81296
  0
LINE
  8
0
 10
-231.167
 20
-1.81296
 11
-231.375
 21
-1.94855
  0
LINE
  8
0
 10
-231.375
 20
-1.94855
 11
-231.596
 21
-2.06049
  0
LINE
  8
0
 10
-231.596
 20
-2.06049
 11
-231.828
 21
-2.1474
  0
LINE
  8
0
 10
-231.828
 20
-2.1474
 11
-232.069
 21
-2.20825
  0
LINE
  8
0
 10
-232.069
 20
-2.20825
 11
-232.314
 21
-2.24231
  0
LINE
  8
0
 10
-232.314
 20
-2.24231
 11
-232.562
 21
-2.24915
  0
LINE
  8
0
 10
-232.562
 20
-2.24915
 11
-232.809
 21
-2.22867
  0
LINE
  8
0
 10
-92.1233
 20
-80.1454
 11
-92.3672
 21
-80.1086
  0
LINE
  8
0
 10
-92.3672
 20
-80.1086
 11
-92.6028
 21
-80.0359
  0
LINE
  8
0
 10
-92.6028
 20
-80.0359
 11
-92.825
 21
-79.9289
  0
LINE
  8
0
 10
-92.825
 20
-79.9289
 11
-93.0288
 21
-79.79
  0
LINE
  8
0
 10
-93.0288
 20
-79.79
 11
-93.2095
 21
-79.6223
  0
LINE
  8
0
 10
-93.2095
 20
-79.6223
 11
-93.3633
 21
-79.4295
  0
LINE
  8
0
 10
-93.3633
 20
-79.4295
 11
-93.4866
 21
-79.2159
  0
LINE
  8
0
 10
-93.4866
 20
-79.2159
 11
-93.5767
 21
-78.9863
  0
LINE
  8
0
 10
-93.5767
 20
-78.9863
 11
-93.6316
 21
-78.7459
  0
LINE
  8
0
 10
-93.6316
 20
-78.7459
 11
-93.65
 21
-78.5
  0
LINE
  8
0
 10
-93.65
 20
-78.5
 11
-93.6316
 21
-78.2541
  0
LINE
  8
0
 10
-93.6316
 20
-78.2541
 11
-93.5767
 21
-78.0137
  0
LINE
  8
0
 10
-93.5767
 20
-78.0137
 11
-93.4866
 21
-77.7841
  0
LINE
  8
0
 10
-93.4866
 20
-77.7841
 11
-93.3633
 21
-77.5705
  0
LINE
  8
0
 10
-93.3633
 20
-77.5705
 11
-93.2095
 21
-77.3777
  0
LINE
  8
0
 10
-93.2095
 20
-77.3777
 11
-93.0288
 21
-77.21
  0
LINE
  8
0
 10
-93.0288
 20
-77.21
 11
-92.825
 21
-77.0711
  0
LINE
  8
0
 10
-92.825
 20
-77.0711
 11
-92.6028
 21
-76.9641
  0
LINE
  8
0
 10
-92.6028
 20
-76.9641
 11
-92.3672
 21
-76.8914
  0
LINE
  8
0
 10
-92.3672
 20
-76.8914
 11
-92.1233
 21
-76.8546
  0
LINE
  8
0
 10
-92.1233
 20
-76.8546
 11
-91.8767
 21
-76.8546
  0
LINE
  8
0
 10
-91.8767
 20
-76.8546
 11
-91.6328
 21
-76.8914
  0
LINE
  8
0
 10
-91.6328
 20
-76.8914
 11
-91.3972
 21
-76.9641
  0
LINE
  8
0
 10
-91.3972
 20
-76.9641
 11
-91.175
 21
-77.0711
  0
LINE
  8
0
 10
-91.175
 20
-77.0711
 11
-90.9712
 21
-77.21
  0
LINE
  8
0
 10
-90.9712
 20
-77.21
 11
-90.7905
 21
-77.3777
  0
LINE
  8
0
 10
-90.7905
 20
-77.3777
 11
-90.6367
 21
-77.5705
  0
LINE
  8
0
 10
-90.6367
 20
-77.5705
 11
-90.5134
 21
-77.7841
  0
LINE
  8
0
 10
-90.5134
 20
-77.7841
 11
-90.4233
 21
-78.0137
  0
LINE
  8
0
 10
-90.4233
 20
-78.0137
 11
-90.3684
 21
-78.2541
  0
LINE
  8
0
 10
-90.3684
 20
-78.2541
 11
-90.35
 21
-78.5
  0
LINE
  8
0
 10
-90.35
 20
-78.5
 11
-90.3684
 21
-78.7459
  0
LINE
  8
0
 10
-90.3684
 20
-78.7459
 11
-90.4233
 21
-78.9863
  0
LINE
  8
0
 10
-90.4233
 20
-78.9863
 11
-90.5134
 21
-79.2159
  0
LINE
  8
0
 10
-90.5134
 20
-79.2159
 11
-90.6367
 21
-79.4295
  0
LINE
  8
0
 10
-90.6367
 20
-79.4295
 11
-90.7905
 21
-79.6223
  0
LINE
  8
0
 10
-90.7905
 20
-79.6223
 11
-90.9712
 21
-79.79
  0
LINE
  8
0
 10
-90.9712
 20
-79.79
 11
-91.175
 21
-79.9289
  0
LINE
  8
0
 10
-91.175
 20
-79.9289
 11
-91.3972
 21
-80.0359
  0
LINE
  8
0
 10
-91.3972
 20
-80.0359
 11
-91.6328
 21
-80.1086
  0
LINE
  8
0
 10
-91.6328
 20
-80.1086
 11
-91.8767
 21
-80.1454
  0
LINE
  8
0
 10
-91.8767
 20
-80.1454
 11
-92.1233
 21
-80.1454
  0
LINE
  8
0
 10
91.8767
 20
-80.1454
 11
91.6328
 21
-80.1086
  0
LINE
  8
0
 10
91.6328
 20
-80.1086
 11
91.3972
 21
-80.0359
  0
LINE
  8
0
 10
91.3972
 20
-80.0359
 11
91.175
 21
-79.9289
  0
LINE
  8
0
 10
91.175
 20
-79.9289
 11
90.9712
 21
-79.79
  0
LINE
  8
0
 10
90.9712
 20
-79.79
 11
90.7905
 21
-79.6223
  0
LINE
  8
0
 10
90.7905
 20
-79.6223
 11
90.6367
 21
-79.4295
  0
LINE
  8
0
 10
90.6367
 20
-79.4295
 11
90.5134
 21
-79.2159
  0
LINE
  8
0
 10
90.5134
 20
-79.2159
 11
90.4233
 21
-78.9863
  0
LINE
  8
0
 10
90.4233
 20
-78.9863
 11
90.3684
 21
-78.7459
  0
LINE
  8
0
 10
90.3684
 20
-78.7459
 11
90.35
 21
-78.5
  0
LINE
  8
0
 10
90.35
 20
-78.5
 11
90.3684
 21
-78.2541
  0
LINE
  8
0
 10
90.3684
 20
-78.2541
 11
90.4233
 21
-78.0137
  0
LINE
  8
0
 10
90.4233
 20
-78.0137
 11
90.5134
 21
-77.7841
  0
LINE
  8
0
 10
90.5134
 20
-77.7841
 11
90.6367
 21
-77.5705
  0
LINE
  8
0
 10
90.6367
 20
-77.5705
 11
90.7905
 21
-77.3777
  0
LINE
  8
0
 10
90.7905
 20
-77.3777
 11
90.9712
 21
-77.21
  0
LINE
  8
0
 10
90.9712
 20
-77.21
 11
91.175
 21
-77.0711
  0
LINE
  8
0
 10
91.175
 20
-77.0711
 11
91.3972
 21
-76.9641
  0
LINE
  8
0
 10
91.3972
 20
-76.9641
 11
91.6328
 21
-76.8914
  0
LINE
  8
0
 10
91.6328
 20
-76.8914
 11
91.8767
 21
-76.8546
  0
LINE
  8
0
 10
91.8767
 20
-76.8546
 11
92.1233
 21
-76.8546
  0
LINE
  8
0
 10
92.1233
 20
-76.8546
 11
92.3672
 21
-76.8914
  0
LINE
  8
0
 10
92.3672
 20
-76.8914
 11
92.6028
 21
-76.9641
  0
LINE
  8
0
 10
92.6028
 20
-76.9641
 11
92.825
 21
-77.0711
  0
LINE
  8
0
 10
92.825
 20
-77.0711
 11
93.0288
 21
-77.21
  0
LINE
  8
0
 10
93.0288
 20
-77.21
 11
93.2095
 21
-77.3777
  0
LINE
  8
0
 10
93.2095
 20
-77.3777
 11
93.3633
 21
-77.5705
  0
LINE
  8
0
 10
93.3633
 20
-77.5705
 11
93.4866
 21
-77.7841
  0
LINE
  8
0
 10
93.4866
 20
-77.7841
 11
93.5767
 21
-78.0137
  0
LINE
  8
0
 10
93.5767
 20
-78.0137
 11
93.6316
 21
-78.2541
  0
LINE
  8
0
 10
93.6316
 20
-78.2541
 11
93.65
 21
-78.5
  0
LINE
  8
0
 10
93.65
 20
-78.5
 11
93.6316
 21
-78.7459
  0
LINE
  8
0
 10
93.6316
 20
-78.7459
 11
93.5767
 21
-78.9863
  0
LINE
  8
0
 10
93.5767
 20
-78.9863
 11
93.4866
 21
-79.2159
  0
LINE
  8
0
 10
93.4866
 20
-79.2159
 11
93.3633
 21
-79.4295
  0
LINE
  8
0
 10
93.3633
 20
-79.4295
 11
93.2095
 21
-79.6223
  0
LINE
  8
0
 10
93.2095
 20
-79.6223
 11
93.0288
 21
-79.79
  0
LINE
  8
0
 10
93.0288
 20
-79.79
 11
92.825
 21
-79.9289
  0
LINE
  8
0
 10
92.825
 20
-79.9289
 11
92.6028
 21
-80.0359
  0
LINE
  8
0
 10
92.6028
 20
-80.0359
 11
92.3672
 21
-80.1086
  0
LINE
  8
0
 10
92.3672
 20
-80.1086
 11
92.1233
 21
-80.1454
  0
LINE
  8
0
 10
92.1233
 20
-80.1454
 11
91.8767
 21
-80.1454
  0
LINE
  8
0
 10
-118.123
 20
-80.1454
 11
-118.367
 21
-80.1086
  0
LINE
  8
0
 10
-118.367
 20
-80.1086
 11
-118.603
 21
-80.0359
  0
LINE
  8
0
 10
-118.603
 20
-80.0359
 11
-118.825
 21
-79.9289
  0
LINE
  8
0
 10
-118.825
 20
-79.9289
 11
-119.029
 21
-79.79
  0
LINE
  8
0
 10
-119.029
 20
-79.79
 11
-119.21
 21
-79.6223
  0
LINE
  8
0
 10
-119.21
 20
-79.6223
 11
-119.363
 21
-79.4295
  0
LINE
  8
0
 10
-119.363
 20
-79.4295
 11
-119.487
 21
-79.2159
  0
LINE
  8
0
 10
-119.487
 20
-79.2159
 11
-119.577
 21
-78.9863
  0
LINE
  8
0
 10
-119.577
 20
-78.9863
 11
-119.632
 21
-78.7459
  0
LINE
  8
0
 10
-119.632
 20
-78.7459
 11
-119.65
 21
-78.5
  0
LINE
  8
0
 10
-119.65
 20
-78.5
 11
-119.632
 21
-78.2541
  0
LINE
  8
0
 10
-119.632
 20
-78.2541
 11
-119.577
 21
-78.0137
  0
LINE
  8
0
 10
-119.577
 20
-78.0137
 11
-119.487
 21
-77.7841
  0
LINE
  8
0
 10
-119.487
 20
-77.7841
 11
-119.363
 21
-77.5705
  0
LINE
  8
0
 10
-119.363
 20
-77.5705
 11
-119.21
 21
-77.3777
  0
LINE
  8
0
 10
-119.21
 20
-77.3777
 11
-119.029
 21
-77.21
  0
LINE
  8
0
 10
-119.029
 20
-77.21
 11
-118.825
 21
-77.0711
  0
LINE
  8
0
 10
-118.825
 20
-77.0711
 11
-118.603
 21
-76.9641
  0
LINE
  8
0
 10
-118.603
 20
-76.9641
 11
-118.367
 21
-76.8914
  0
LINE
  8
0
 10
-118.367
 20
-76.8914
 11
-118.123
 21
-76.8546
  0
LINE
  8
0
 10
-118.123
 20
-76.8546
 11
-117.877
 21
-76.8546
  0
LINE
  8
0
 10
-117.877
 20
-76.8546
 11
-117.633
 21
-76.8914
  0
LINE
  8
0
 10
-117.633
 20
-76.8914
 11
-117.397
 21
-76.9641
  0
LINE
  8
0
 10
-117.397
 20
-76.9641
 11
-117.175
 21
-77.0711
  0
LINE
  8
0
 10
-117.175
 20
-77.0711
 11
-116.971
 21
-77.21
  0
LINE
  8
0
 10
-116.971
 20
-77.21
 11
-116.79
 21
-77.3777
  0
LINE
  8
0
 10
-116.79
 20
-77.3777
 11
-116.637
 21
-77.5705
  0
LINE
  8
0
 10
-116.637
 20
-77.5705
 11
-116.513
 21
-77.7841
  0
LINE
  8
0
 10
-116.513
 20
-77.7841
 11
-116.423
 21
-78.0137
  0
LINE
  8
0
 10
-116.423
 20
-78.0137
 11
-116.368
 21
-78.2541
  0
LINE
  8
0
 10
-116.368
 20
-78.2541
 11
-116.35
 21
-78.5
  0
LINE
  8
0
 10
-116.35
 20
-78.5
 11
-116.368
 21
-78.7459
  0
LINE
  8
0
 10
-116.368
 20
-78.7459
 11
-116.423
 21
-78.9863
  0
LINE
  8
0
 10
-116.423
 20
-78.9863
 11
-116.513
 21
-79.2159
  0
LINE
  8
0
 10
-116.513
 20
-79.2159
 11
-116.637
 21
-79.4295
  0
LINE
  8
0
 10
-116.637
 20
-79.4295
 11
-116.79
 21
-79.6223
  0
LINE
  8
0
 10
-116.79
 20
-79.6223
 11
-116.971
 21
-79.79
  0
LINE
  8
0
 10
-116.971
 20
-79.79
 11
-117.175
 21
-79.9289
  0
LINE
  8
0
 10
-117.175
 20
-79.9289
 11
-117.397
 21
-80.0359
  0
LINE
  8
0
 10
-117.397
 20
-80.0359
 11
-117.633
 21
-80.1086
  0
LINE
  8
0
 10
-117.633
 20
-80.1086
 11
-117.877
 21
-80.1454
  0
LINE
  8
0
 10
-117.877
 20
-80.1454
 11
-118.123
 21
-80.1454
  0
LINE
  8
0
 10
117.877
 20
-80.1454
 11
117.633
 21
-80.1086
  0
LINE
  8
0
 10
117.633
 20
-80.1086
 11
117.397
 21
-80.0359
  0
LINE
  8
0
 10
117.397
 20
-80.0359
 11
117.175
 21
-79.9289
  0
LINE
  8
0
 10
117.175
 20
-79.9289
 11
116.971
 21
-79.79
  0
LINE
  8
0
 10
116.971
 20
-79.79
 11
116.79
 21
-79.6223
  0
LINE
  8
0
 10
116.79
 20
-79.6223
 11
116.637
 21
-79.4295
  0
LINE
  8
0
 10
116.637
 20
-79.4295
 11
116.513
 21
-79.2159
  0
LINE
  8
0
 10
116.513
 20
-79.2159
 11
116.423
 21
-78.9863
  0
LINE
  8
0
 10
116.423
 20
-78.9863
 11
116.368
 21
-78.7459
  0
LINE
  8
0
 10
116.368
 20
-78.7459
 11
116.35
 21
-78.5
  0
LINE
  8
0
 10
116.35
 20
-78.5
 11
116.368
 21
-78.2541
  0
LINE
  8
0
 10
116.368
 20
-78.2541
 11
116.423
 21
-78.0137
  0
LINE
  8
0
 10
116.423
 20
-78.0137
 11
116.513
 21
-77.7841
  0
LINE
  8
0
 10
116.513
 20
-77.7841
 11
116.637
 21
-77.5705
  0
LINE
  8
0
 10
116.637
 20
-77.5705
 11
116.79
 21
-77.3777
  0
LINE
  8
0
 10
116.79
 20
-77.3777
 11
116.971
 21
-77.21
  0
LINE
  8
0
 10
116.971
 20
-77.21
 11
117.175
 21
-77.0711
  0
LINE
  8
0
 10
117.175
 20
-77.0711
 11
117.397
 21
-76.9641
  0
LINE
  8
0
 10
117.397
 20
-76.9641
 11
117.633
 21
-76.8914
  0
LINE
  8
0
 10
117.633
 20
-76.8914
 11
117.877
 21
-76.8546
  0
LINE
  8
0
 10
117.877
 20
-76.8546
 11
118.123
 21
-76.8546
  0
LINE
  8
0
 10
118.123
 20
-76.8546
 11
118.367
 21
-76.8914
  0
LINE
  8
0
 10
118.367
 20
-76.8914
 11
118.603
 21
-76.9641
  0
LINE
  8
0
 10
118.603
 20
-76.9641
 11
118.825
 21
-77.0711
  0
LINE
  8
0
 10
118.825
 20
-77.0711
 11
119.029
 21
-77.21
  0
LINE
  8
0
 10
119.029
 20
-77.21
 11
119.21
 21
-77.3777
  0
LINE
  8
0
 10
119.21
 20
-77.3777
 11
119.363
 21
-77.5705
  0
LINE
  8
0
 10
119.363
 20
-77.5705
 11
119.487
 21
-77.7841
  0
LINE
  8
0
 10
119.487
 20
-77.7841
 11
119.577
 21
-78.0137
  0
LINE
  8
0
 10
119.577
 20
-78.0137
 11
119.632
 21
-78.2541
  0
LINE
  8
0
 10
119.632
 20
-78.2541
 11
119.65
 21
-78.5
  0
LINE
  8
0
 10
119.65
 20
-78.5
 11
119.632
 21
-78.7459
  0
LINE
  8
0
 10
119.632
 20
-78.7459
 11
119.577
 21
-78.9863
  0
LINE
  8
0
 10
119.577
 20
-78.9863
 11
119.487
 21
-79.2159
  0
LINE
  8
0
 10
119.487
 20
-79.2159
 11
119.363
 21
-79.4295
  0
LINE
  8
0
 10
119.363
 20
-79.4295
 11
119.21
 21
-79.6223
  0
LINE
  8
0
 10
119.21
 20
-79.6223
 11
119.029
 21
-79.79
  0
LINE
  8
0
 10
119.029
 20
-79.79
 11
118.825
 21
-79.9289
  0
LINE
  8
0
 10
118.825
 20
-79.9289
 11
118.603
 21
-80.0359
  0
LINE
  8
0
 10
118.603
 20
-80.0359
 11
118.367
 21
-80.1086
  0
LINE
  8
0
 10
118.367
 20
-80.1086
 11
118.123
 21
-80.1454
  0
LINE
  8
0
 10
118.123
 20
-80.1454
 11
117.877
 21
-80.1454
  0
LINE
  8
0
 10
232.314
 20
-90.9923
 11
232.069
 21
-90.9583
  0
LINE
  8
0
 10
232.069
 20
-90.9583
 11
231.828
 21
-90.8974
  0
LINE
  8
0
 10
231.828
 20
-90.8974
 11
231.596
 21
-90.8105
  0
LINE
  8
0
 10
231.596
 20
-90.8105
 11
231.375
 21
-90.6985
  0
LINE
  8
0
 10
231.375
 20
-90.6985
 11
231.167
 21
-90.563
  0
LINE
  8
0
 10
231.167
 20
-90.563
 11
230.976
 21
-90.4054
  0
LINE
  8
0
 10
230.976
 20
-90.4054
 11
230.803
 21
-90.2277
  0
LINE
  8
0
 10
230.803
 20
-90.2277
 11
230.651
 21
-90.0321
  0
LINE
  8
0
 10
230.651
 20
-90.0321
 11
230.521
 21
-89.8209
  0
LINE
  8
0
 10
230.521
 20
-89.8209
 11
230.415
 21
-89.5967
  0
LINE
  8
0
 10
230.415
 20
-89.5967
 11
230.335
 21
-89.3622
  0
LINE
  8
0
 10
230.335
 20
-89.3622
 11
230.281
 21
-89.1203
  0
LINE
  8
0
 10
230.281
 20
-89.1203
 11
230.253
 21
-88.8739
  0
LINE
  8
0
 10
230.253
 20
-88.8739
 11
230.253
 21
-88.6261
  0
LINE
  8
0
 10
230.253
 20
-88.6261
 11
230.281
 21
-88.3797
  0
LINE
  8
0
 10
230.281
 20
-88.3797
 11
230.335
 21
-88.1378
  0
LINE
  8
0
 10
230.335
 20
-88.1378
 11
230.415
 21
-87.9033
  0
LINE
  8
0
 10
230.415
 20
-87.9033
 11
230.521
 21
-87.6791
  0
LINE
  8
0
 10
230.521
 20
-87.6791
 11
230.651
 21
-87.4679
  0
LINE
  8
0
 10
230.651
 20
-87.4679
 11
230.803
 21
-87.2723
  0
LINE
  8
0
 10
230.803
 20
-87.2723
 11
230.976
 21
-87.0946
  0
LINE
  8
0
 10
230.976
 20
-87.0946
 11
231.167
 21
-86.937
  0
LINE
  8
0
 10
231.167
 20
-86.937
 11
231.375
 21
-86.8014
  0
LINE
  8
0
 10
231.375
 20
-86.8014
 11
231.596
 21
-86.6895
  0
LINE
  8
0
 10
231.596
 20
-86.6895
 11
231.828
 21
-86.6026
  0
LINE
  8
0
 10
231.828
 20
-86.6026
 11
232.069
 21
-86.5417
  0
LINE
  8
0
 10
232.069
 20
-86.5417
 11
232.314
 21
-86.5077
  0
LINE
  8
0
 10
232.314
 20
-86.5077
 11
232.562
 21
-86.5009
  0
LINE
  8
0
 10
232.562
 20
-86.5009
 11
232.809
 21
-86.5213
  0
LINE
  8
0
 10
232.809
 20
-86.5213
 11
233.052
 21
-86.5688
  0
LINE
  8
0
 10
233.052
 20
-86.5688
 11
233.289
 21
-86.6429
  0
LINE
  8
0
 10
233.289
 20
-86.6429
 11
233.516
 21
-86.7424
  0
LINE
  8
0
 10
233.516
 20
-86.7424
 11
233.731
 21
-86.8664
  0
LINE
  8
0
 10
233.731
 20
-86.8664
 11
233.93
 21
-87.0132
  0
LINE
  8
0
 10
233.93
 20
-87.0132
 11
234.113
 21
-87.1811
  0
LINE
  8
0
 10
234.113
 20
-87.1811
 11
234.276
 21
-87.368
  0
LINE
  8
0
 10
234.276
 20
-87.368
 11
234.417
 21
-87.5717
  0
LINE
  8
0
 10
234.417
 20
-87.5717
 11
234.535
 21
-87.7897
  0
LINE
  8
0
 10
234.535
 20
-87.7897
 11
234.628
 21
-88.0194
  0
LINE
  8
0
 10
234.628
 20
-88.0194
 11
234.696
 21
-88.258
  0
LINE
  8
0
 10
234.696
 20
-88.258
 11
234.736
 21
-88.5025
  0
LINE
  8
0
 10
234.736
 20
-88.5025
 11
234.75
 21
-88.75
  0
LINE
  8
0
 10
234.75
 20
-88.75
 11
234.736
 21
-88.9975
  0
LINE
  8
0
 10
234.736
 20
-88.9975
 11
234.696
 21
-89.242
  0
LINE
  8
0
 10
234.696
 20
-89.242
 11
234.628
 21
-89.4806
  0
LINE
  8
0
 10
234.628
 20
-89.4806
 11
234.535
 21
-89.7102
  0
LINE
  8
0
 10
234.535
 20
-89.7102
 11
234.417
 21
-89.9283
  0
LINE
  8
0
 10
234.417
 20
-89.9283
 11
234.276
 21
-90.132
  0
LINE
  8
0
 10
234.276
 20
-90.132
 11
234.113
 21
-90.3189
  0
LINE
  8
0
 10
234.113
 20
-90.3189
 11
233.93
 21
-90.4868
  0
LINE
  8
0
 10
233.93
 20
-90.4868
 11
233.731
 21
-90.6336
  0
LINE
  8
0
 10
233.731
 20
-90.6336
 11
233.516
 21
-90.7576
  0
LINE
  8
0
 10
233.516
 20
-90.7576
 11
233.289
 21
-90.8571
  0
LINE
  8
0
 10
233.289
 20
-90.8571
 11
233.052
 21
-90.9312
  0
LINE
  8
0
 10
233.052
 20
-90.9312
 11
232.809
 21
-90.9787
  0
LINE
  8
0
 10
232.809
 20
-90.9787
 11
232.562
 21
-90.9991
  0
LINE
  8
0
 10
232.562
 20
-90.9991
 11
232.314
 21
-90.9923
  0
LINE
  8
0
 10
-232.809
 20
-90.9787
 11
-233.052
 21
-90.9312
  0
LINE
  8
0
 10
-233.052
 20
-90.9312
 11
-233.289
 21
-90.8571
  0
LINE
  8
0
 10
-233.289
 20
-90.8571
 11
-233.516
 21
-90.7576
  0
LINE
  8
0
 10
-233.516
 20
-90.7576
 11
-233.731
 21
-90.6336
  0
LINE
  8
0
 10
-233.731
 20
-90.6336
 11
-233.93
 21
-90.4868
  0
LINE
  8
0
 10
-233.93
 20
-90.4868
 11
-234.113
 21
-90.3189
  0
LINE
  8
0
 10
-234.113
 20
-90.3189
 11
-234.276
 21
-90.132
  0
LINE
  8
0
 10
-234.276
 20
-90.132
 11
-234.417
 21
-89.9283
  0
LINE
  8
0
 10
-234.417
 20
-89.9283
 11
-234.535
 21
-89.7102
  0
LINE
  8
0
 10
-234.535
 20
-89.7102
 11
-234.628
 21
-89.4806
  0
LINE
  8
0
 10
-234.628
 20
-89.4806
 11
-234.696
 21
-89.242
  0
LINE
  8
0
 10
-234.696
 20
-89.242
 11
-234.736
 21
-88.9975
  0
LINE
  8
0
 10
-234.736
 20
-88.9975
 11
-234.75
 21
-88.75
  0
LINE
  8
0
 10
-234.75
 20
-88.75
 11
-234.736
 21
-88.5025
  0
LINE
  8
0
 10
-234.736
 20
-88.5025
 11
-234.696
 21
-88.258
  0
LINE
  8
0
 10
-234.696
 20
-88.258
 11
-234.628
 21
-88.0194
  0
LINE
  8
0
 10
-234.628
 20
-88.0194
 11
-234.535
 21
-87.7897
  0
LINE
  8
0
 10
-234.535
 20
-87.7897
 11
-234.417
 21
-87.5717
  0
LINE
  8
0
 10
-234.417
 20
-87.5717
 11
-234.276
 21
-87.368
  0
LINE
  8
0
 10
-234.276
 20
-87.368
 11
-234.113
 21
-87.1811
  0
LINE
  8
0
 10
-234.113
 20
-87.1811
 11
-233.93
 21
-87.0132
  0
LINE
  8
0
 10
-233.93
 20
-87.0132
 11
-233.731
 21
-86.8664
  0
LINE
  8
0
 10
-233.731
 20
-86.8664
 11
-233.516
 21
-86.7424
  0
LINE
  8
0
 10
-233.516
 20
-86.7424
 11
-233.289
 21
-86.6429
  0
LINE
  8
0
 10
-233.289
 20
-86.6429
 11
-233.052
 21
-86.5688
  0
LINE
  8
0
 10
-233.052
 20
-86.5688
 11
-232.809
 21
-86.5213
  0
LINE
  8
0
 10
-232.809
 20
-86.5213
 11
-232.562
 21
-86.5009
  0
LINE
  8
0
 10
-232.562
 20
-86.5009
 11
-232.314
 21
-86.5077
  0
LINE
  8
0
 10
-232.314
 20
-86.5077
 11
-232.069
 21
-86.5417
  0
LINE
  8
0
 10
-232.069
 20
-86.5417
 11
-231.828
 21
-86.6026
  0
LINE
  8
0
 10
-231.828
 20
-86.6026
 11
-231.596
 21
-86.6895
  0
LINE
  8
0
 10
-231.596
 20
-86.6895
 11
-231.375
 21
-86.8014
  0
LINE
  8
0
 10
-231.375
 20
-86.8014
 11
-231.167
 21
-86.937
  0
LINE
  8
0
 10
-231.167
 20
-86.937
 11
-230.976
 21
-87.0946
  0
LINE
  8
0
 10
-230.976
 20
-87.0946
 11
-230.803
 21
-87.2723
  0
LINE
  8
0
 10
-230.803
 20
-87.2723
 11
-230.651
 21
-87.4679
  0
LINE
  8
0
 10
-230.651
 20
-87.4679
 11
-230.521
 21
-87.6791
  0
LINE
  8
0
 10
-230.521
 20
-87.6791
 11
-230.415
 21
-87.9033
  0
LINE
  8
0
 10
-230.415
 20
-87.9033
 11
-230.335
 21
-88.1378
  0
LINE
  8
0
 10
-230.335
 20
-88.1378
 11
-230.281
 21
-88.3797
  0
LINE
  8
0
 10
-230.281
 20
-88.3797
 11
-230.253
 21
-88.6261
  0
LINE
  8
0
 10
-230.253
 20
-88.6261
 11
-230.253
 21
-88.8739
  0
LINE
  8
0
 10
-230.253
 20
-88.8739
 11
-230.281
 21
-89.1203
  0
LINE
  8
0
 10
-230.281
 20
-89.1203
 11
-230.335
 21
-89.3622
  0
LINE
  8
0
 10
-230.335
 20
-89.3622
 11
-230.415
 21
-89.5967
  0
LINE
  8
0
 10
-230.415
 20
-89.5967
 11
-230.521
 21
-89.8209
  0
LINE
  8
0
 10
-230.521
 20
-89.8209
 11
-230.651
 21
-90.0321
  0
LINE
  8
0
 10
-230.651
 20
-90.0321
 11
-230.803
 21
-90.2277
  0
LINE
  8
0
 10
-230.803
 20
-90.2277
 11
-230.976
 21
-90.4054
  0
LINE
  8
0
 10
-230.976
 20
-90.4054
 11
-231.167
 21
-90.563
  0
LINE
  8
0
 10
-231.167
 20
-90.563
 11
-231.375
 21
-90.6985
  0
LINE
  8
0
 10
-231.375
 20
-90.6985
 11
-231.596
 21
-90.8105
  0
LINE
  8
0
 10
-231.596
 20
-90.8105
 11
-231.828
 21
-90.8974
  0
LINE
  8
0
 10
-231.828
 20
-90.8974
 11
-232.069
 21
-90.9583
  0
LINE
  8
0
 10
-232.069
 20
-90.9583
 11
-232.314
 21
-90.9923
  0
LINE
  8
0
 10
-232.314
 20
-90.9923
 11
-232.562
 21
-90.9991
  0
LINE
  8
0
 10
-232.562
 20
-90.9991
 11
-232.809
 21
-90.9787
  0
LINE
  8
0
 10
117.877
 20
-98.1454
 11
117.633
 21
-98.1086
  0
LINE
  8
0
 10
117.633
 20
-98.1086
 11
117.397
 21
-98.0359
  0
LINE
  8
0
 10
117.397
 20
-98.0359
 11
117.175
 21
-97.9289
  0
LINE
  8
0
 10
117.175
 20
-97.9289
 11
116.971
 21
-97.79
  0
LINE
  8
0
 10
116.971
 20
-97.79
 11
116.79
 21
-97.6223
  0
LINE
  8
0
 10
116.79
 20
-97.6223
 11
116.637
 21
-97.4295
  0
LINE
  8
0
 10
116.637
 20
-97.4295
 11
116.513
 21
-97.2159
  0
LINE
  8
0
 10
116.513
 20
-97.2159
 11
116.423
 21
-96.9863
  0
LINE
  8
0
 10
116.423
 20
-96.9863
 11
116.368
 21
-96.7459
  0
LINE
  8
0
 10
116.368
 20
-96.7459
 11
116.35
 21
-96.5
  0
LINE
  8
0
 10
116.35
 20
-96.5
 11
116.368
 21
-96.2541
  0
LINE
  8
0
 10
116.368
 20
-96.2541
 11
116.423
 21
-96.0137
  0
LINE
  8
0
 10
116.423
 20
-96.0137
 11
116.513
 21
-95.7841
  0
LINE
  8
0
 10
116.513
 20
-95.7841
 11
116.637
 21
-95.5705
  0
LINE
  8
0
 10
116.637
 20
-95.5705
 11
116.79
 21
-95.3777
  0
LINE
  8
0
 10
116.79
 20
-95.3777
 11
116.971
 21
-95.21
  0
LINE
  8
0
 10
116.971
 20
-95.21
 11
117.175
 21
-95.0711
  0
LINE
  8
0
 10
117.175
 20
-95.0711
 11
117.397
 21
-94.9641
  0
LINE
  8
0
 10
117.397
 20
-94.9641
 11
117.633
 21
-94.8914
  0
LINE
  8
0
 10
117.633
 20
-94.8914
 11
117.877
 21
-94.8546
  0
LINE
  8
0
 10
117.877
 20
-94.8546
 11
118.123
 21
-94.8546
  0
LINE
  8
0
 10
118.123
 20
-94.8546
 11
118.367
 21
-94.8914
  0
LINE
  8
0
 10
118.367
 20
-94.8914
 11
118.603
 21
-94.9641
  0
LINE
  8
0
 10
118.603
 20
-94.9641
 11
118.825
 21
-95.0711
  0
LINE
  8
0
 10
118.825
 20
-95.0711
 11
119.029
 21
-95.21
  0
LINE
  8
0
 10
119.029
 20
-95.21
 11
119.21
 21
-95.3777
  0
LINE
  8
0
 10
119.21
 20
-95.3777
 11
119.363
 21
-95.5705
  0
LINE
  8
0
 10
119.363
 20
-95.5705
 11
119.487
 21
-95.7841
  0
LINE
  8
0
 10
119.487
 20
-95.7841
 11
119.577
 21
-96.0137
  0
LINE
  8
0
 10
119.577
 20
-96.0137
 11
119.632
 21
-96.2541
  0
LINE
  8
0
 10
119.632
 20
-96.2541
 11
119.65
 21
-96.5
  0
LINE
  8
0
 10
119.65
 20
-96.5
 11
119.632
 21
-96.7459
  0
LINE
  8
0
 10
119.632
 20
-96.7459
 11
119.577
 21
-96.9863
  0
LINE
  8
0
 10
119.577
 20
-96.9863
 11
119.487
 21
-97.2159
  0
LINE
  8
0
 10
119.487
 20
-97.2159
 11
119.363
 21
-97.4295
  0
LINE
  8
0
 10
119.363
 20
-97.4295
 11
119.21
 21
-97.6223
  0
LINE
  8
0
 10
119.21
 20
-97.6223
 11
119.029
 21
-97.79
  0
LINE
  8
0
 10
119.029
 20
-97.79
 11
118.825
 21
-97.9289
  0
LINE
  8
0
 10
118.825
 20
-97.9289
 11
118.603
 21
-98.0359
  0
LINE
  8
0
 10
118.603
 20
-98.0359
 11
118.367
 21
-98.1086
  0
LINE
  8
0
 10
118.367
 20
-98.1086
 11
118.123
 21
-98.1454
  0
LINE
  8
0
 10
118.123
 20
-98.1454
 11
117.877
 21
-98.1454
  0
LINE
  8
0
 10
-118.123
 20
-98.1454
 11
-118.367
 21
-98.1086
  0
LINE
  8
0
 10
-118.367
 20
-98.1086
 11
-118.603
 21
-98.0359
  0
LINE
  8
0
 10
-118.603
 20
-98.0359
 11
-118.825
 21
-97.9289
  0
LINE
  8
0
 10
-118.825
 20
-97.9289
 11
-119.029
 21
-97.79
  0
LINE
  8
0
 10
-119.029
 20
-97.79
 11
-119.21
 21
-97.6223
  0
LINE
  8
0
 10
-119.21
 20
-97.6223
 11
-119.363
 21
-97.4295
  0
LINE
  8
0
 10
-119.363
 20
-97.4295
 11
-119.487
 21
-97.2159
  0
LINE
  8
0
 10
-119.487
 20
-97.2159
 11
-119.577
 21
-96.9863
  0
LINE
  8
0
 10
-119.577
 20
-96.9863
 11
-119.632
 21
-96.7459
  0
LINE
  8
0
 10
-119.632
 20
-96.7459
 11
-119.65
 21
-96.5
  0
LINE
  8
0
 10
-119.65
 20
-96.5
 11
-119.632
 21
-96.2541
  0
LINE
  8
0
 10
-119.632
 20
-96.2541
 11
-119.577
 21
-96.0137
  0
LINE
  8
0
 10
-119.577
 20
-96.0137
 11
-119.487
 21
-95.7841
  0
LINE
  8
0
 10
-119.487
 20
-95.7841
 11
-119.363
 21
-95.5705
  0
LINE
  8
0
 10
-119.363
 20
-95.5705
 11
-119.21
 21
-95.3777
  0
LINE
  8
0
 10
-119.21
 20
-95.3777
 11
-119.029
 21
-95.21
  0
LINE
  8
0
 10
-119.029
 20
-95.21
 11
-118.825
 21
-95.0711
  0
LINE
  8
0
 10
-118.825
 20
-95.0711
 11
-118.603
 21
-94.9641
  0
LINE
  8
0
 10
-118.603
 20
-94.9641
 11
-118.367
 21
-94.8914
  0
LINE
  8
0
 10
-118.367
 20
-94.8914
 11
-118.123
 21
-94.8546
  0
LINE
  8
0
 10
-118.123
 20
-94.8546
 11
-117.877
 21
-94.8546
  0
LINE
  8
0
 10
-117.877
 20
-94.8546
 11
-117.633
 21
-94.8914
  0
LINE
  8
0
 10
-117.633
 20
-94.8914
 11
-117.397
 21
-94.9641
  0
LINE
  8
0
 10
-117.397
 20
-94.9641
 11
-117.175
 21
-95.0711
  0
LINE
  8
0
 10
-117.175
 20
-95.0711
 11
-116.971
 21
-95.21
  0
LINE
  8
0
 10
-116.971
 20
-95.21
 11
-116.79
 21
-95.3777
  0
LINE
  8
0
 10
-116.79
 20
-95.3777
 11
-116.637
 21
-95.5705
  0
LINE
  8
0
 10
-116.637
 20
-95.5705
 11
-116.513
 21
-95.7841
  0
LINE
  8
0
 10
-116.513
 20
-95.7841
 11
-116.423
 21
-96.0137
  0
LINE
  8
0
 10
-116.423
 20
-96.0137
 11
-116.368
 21
-96.2541
  0
LINE
  8
0
 10
-116.368
 20
-96.2541
 11
-116.35
 21
-96.5
  0
LINE
  8
0
 10
-116.35
 20
-96.5
 11
-116.368
 21
-96.7459
  0
LINE
  8
0
 10
-116.368
 20
-96.7459
 11
-116.423
 21
-96.9863
  0
LINE
  8
0
 10
-116.423
 20
-96.9863
 11
-116.513
 21
-97.2159
  0
LINE
  8
0
 10
-116.513
 20
-97.2159
 11
-116.637
 21
-97.4295
  0
LINE
  8
0
 10
-116.637
 20
-97.4295
 11
-116.79
 21
-97.6223
  0
LINE
  8
0
 10
-116.79
 20
-97.6223
 11
-116.971
 21
-97.79
  0
LINE
  8
0
 10
-116.971
 20
-97.79
 11
-117.175
 21
-97.9289
  0
LINE
  8
0
 10
-117.175
 20
-97.9289
 11
-117.397
 21
-98.0359
  0
LINE
  8
0
 10
-117.397
 20
-98.0359
 11
-117.633
 21
-98.1086
  0
LINE
  8
0
 10
-117.633
 20
-98.1086
 11
-117.877
 21
-98.1454
  0
LINE
  8
0
 10
-117.877
 20
-98.1454
 11
-118.123
 21
-98.1454
  0
LINE
  8
0
 10
-92.1233
 20
-98.1454
 11
-92.3672
 21
-98.1086
  0
LINE
  8
0
 10
-92.3672
 20
-98.1086
 11
-92.6028
 21
-98.0359
  0
LINE
  8
0
 10
-92.6028
 20
-98.0359
 11
-92.825
 21
-97.9289
  0
LINE
  8
0
 10
-92.825
 20
-97.9289
 11
-93.0288
 21
-97.79
  0
LINE
  8
0
 10
-93.0288
 20
-97.79
 11
-93.2095
 21
-97.6223
  0
LINE
  8
0
 10
-93.2095
 20
-97.6223
 11
-93.3633
 21
-97.4295
  0
LINE
  8
0
 10
-93.3633
 20
-97.4295
 11
-93.4866
 21
-97.2159
  0
LINE
  8
0
 10
-93.4866
 20
-97.2159
 11
-93.5767
 21
-96.9863
  0
LINE
  8
0
 10
-93.5767
 20
-96.9863
 11
-93.6316
 21
-96.7459
  0
LINE
  8
0
 10
-93.6316
 20
-96.7459
 11
-93.65
 21
-96.5
  0
LINE
  8
0
 10
-93.65
 20
-96.5
 11
-93.6316
 21
-96.2541
  0
LINE
  8
0
 10
-93.6316
 20
-96.2541
 11
-93.5767
 21
-96.0137
  0
LINE
  8
0
 10
-93.5767
 20
-96.0137
 11
-93.4866
 21
-95.7841
  0
LINE
  8
0
 10
-93.4866
 20
-95.7841
 11
-93.3633
 21
-95.5705
  0
LINE
  8
0
 10
-93.3633
 20
-95.5705
 11
-93.2095
 21
-95.3777
  0
LINE
  8
0
 10
-93.2095
 20
-95.3777
 11
-93.0288
 21
-95.21
  0
LINE
  8
0
 10
-93.0288
 20
-95.21
 11
-92.825
 21
-95.0711
  0
LINE
  8
0
 10
-92.825
 20
-95.0711
 11
-92.6028
 21
-94.9641
  0
LINE
  8
0
 10
-92.6028
 20
-94.9641
 11
-92.3672
 21
-94.8914
  0
LINE
  8
0
 10
-92.3672
 20
-94.8914
 11
-92.1233
 21
-94.8546
  0
LINE
  8
0
 10
-92.1233
 20
-94.8546
 11
-91.8767
 21
-94.8546
  0
LINE
  8
0
 10
-91.8767
 20
-94.8546
 11
-91.6328
 21
-94.8914
  0
LINE
  8
0
 10
-91.6328
 20
-94.8914
 11
-91.3972
 21
-94.9641
  0
LINE
  8
0
 10
-91.3972
 20
-94.9641
 11
-91.175
 21
-95.0711
  0
LINE
  8
0
 10
-91.175
 20
-95.0711
 11
-90.9712
 21
-95.21
  0
LINE
  8
0
 10
-90.9712
 20
-95.21
 11
-90.7905
 21
-95.3777
  0
LINE
  8
0
 10
-90.7905
 20
-95.3777
 11
-90.6367
 21
-95.5705
  0
LINE
  8
0
 10
-90.6367
 20
-95.5705
 11
-90.5134
 21
-95.7841
  0
LINE
  8
0
 10
-90.5134
 20
-95.7841
 11
-90.4233
 21
-96.0137
  0
LINE
  8
0
 10
-90.4233
 20
-96.0137
 11
-90.3684
 21
-96.2541
  0
LINE
  8
0
 10
-90.3684
 20
-96.2541
 11
-90.35
 21
-96.5
  0
LINE
  8
0
 10
-90.35
 20
-96.5
 11
-90.3684
 21
-96.7459
  0
LINE
  8
0
 10
-90.3684
 20
-96.7459
 11
-90.4233
 21
-96.9863
  0
LINE
  8
0
 10
-90.4233
 20
-96.9863
 11
-90.5134
 21
-97.2159
  0
LINE
  8
0
 10
-90.5134
 20
-97.2159
 11
-90.6367
 21
-97.4295
  0
LINE
  8
0
 10
-90.6367
 20
-97.4295
 11
-90.7905
 21
-97.6223
  0
LINE
  8
0
 10
-90.7905
 20
-97.6223
 11
-90.9712
 21
-97.79
  0
LINE
  8
0
 10
-90.9712
 20
-97.79
 11
-91.175
 21
-97.9289
  0
LINE
  8
0
 10
-91.175
 20
-97.9289
 11
-91.3972
 21
-98.0359
  0
LINE
  8
0
 10
-91.3972
 20
-98.0359
 11
-91.6328
 21
-98.1086
  0
LINE
  8
0
 10
-91.6328
 20
-98.1086
 11
-91.8767
 21
-98.1454
  0
LINE
  8
0
 10
-91.8767
 20
-98.1454
 11
-92.1233
 21
-98.1454
  0
LINE
  8
0
 10
91.8767
 20
-98.1454
 11
91.6328
 21
-98.1086
  0
LINE
  8
0
 10
91.6328
 20
-98.1086
 11
91.3972
 21
-98.0359
  0
LINE
  8
0
 10
91.3972
 20
-98.0359
 11
91.175
 21
-97.9289
  0
LINE
  8
0
 10
91.175
 20
-97.9289
 11
90.9712
 21
-97.79
  0
LINE
  8
0
 10
90.9712
 20
-97.79
 11
90.7905
 21
-97.6223
  0
LINE
  8
0
 10
90.7905
 20
-97.6223
 11
90.6367
 21
-97.4295
  0
LINE
  8
0
 10
90.6367
 20
-97.4295
 11
90.5134
 21
-97.2159
  0
LINE
  8
0
 10
90.5134
 20
-97.2159
 11
90.4233
 21
-96.9863
  0
LINE
  8
0
 10
90.4233
 20
-96.9863
 11
90.3684
 21
-96.7459
  0
LINE
  8
0
 10
90.3684
 20
-96.7459
 11
90.35
 21
-96.5
  0
LINE
  8
0
 10
90.35
 20
-96.5
 11
90.3684
 21
-96.2541
  0
LINE
  8
0
 10
90.3684
 20
-96.2541
 11
90.4233
 21
-96.0137
  0
LINE
  8
0
 10
90.4233
 20
-96.0137
 11
90.5134
 21
-95.7841
  0
LINE
  8
0
 10
90.5134
 20
-95.7841
 11
90.6367
 21
-95.5705
  0
LINE
  8
0
 10
90.6367
 20
-95.5705
 11
90.7905
 21
-95.3777
  0
LINE
  8
0
 10
90.7905
 20
-95.3777
 11
90.9712
 21
-95.21
  0
LINE
  8
0
 10
90.9712
 20
-95.21
 11
91.175
 21
-95.0711
  0
LINE
  8
0
 10
91.175
 20
-95.0711
 11
91.3972
 21
-94.9641
  0
LINE
  8
0
 10
91.3972
 20
-94.9641
 11
91.6328
 21
-94.8914
  0
LINE
  8
0
 10
91.6328
 20
-94.8914
 11
91.8767
 21
-94.8546
  0
LINE
  8
0
 10
91.8767
 20
-94.8546
 11
92.1233
 21
-94.8546
  0
LINE
  8
0
 10
92.1233
 20
-94.8546
 11
92.3672
 21
-94.8914
  0
LINE
  8
0
 10
92.3672
 20
-94.8914
 11
92.6028
 21
-94.9641
  0
LINE
  8
0
 10
92.6028
 20
-94.9641
 11
92.825
 21
-95.0711
  0
LINE
  8
0
 10
92.825
 20
-95.0711
 11
93.0288
 21
-95.21
  0
LINE
  8
0
 10
93.0288
 20
-95.21
 11
93.2095
 21
-95.3777
  0
LINE
  8
0
 10
93.2095
 20
-95.3777
 11
93.3633
 21
-95.5705
  0
LINE
  8
0
 10
93.3633
 20
-95.5705
 11
93.4866
 21
-95.7841
  0
LINE
  8
0
 10
93.4866
 20
-95.7841
 11
93.5767
 21
-96.0137
  0
LINE
  8
0
 10
93.5767
 20
-96.0137
 11
93.6316
 21
-96.2541
  0
LINE
  8
0
 10
93.6316
 20
-96.2541
 11
93.65
 21
-96.5
  0
LINE
  8
0
 10
93.65
 20
-96.5
 11
93.6316
 21
-96.7459
  0
LINE
  8
0
 10
93.6316
 20
-96.7459
 11
93.5767
 21
-96.9863
  0
LINE
  8
0
 10
93.5767
 20
-96.9863
 11
93.4866
 21
-97.2159
  0
LINE
  8
0
 10
93.4866
 20
-97.2159
 11
93.3633
 21
-97.4295
  0
LINE
  8
0
 10
93.3633
 20
-97.4295
 11
93.2095
 21
-97.6223
  0
LINE
  8
0
 10
93.2095
 20
-97.6223
 11
93.0288
 21
-97.79
  0
LINE
  8
0
 10
93.0288
 20
-97.79
 11
92.825
 21
-97.9289
  0
LINE
  8
0
 10
92.825
 20
-97.9289
 11
92.6028
 21
-98.0359
  0
LINE
  8
0
 10
92.6028
 20
-98.0359
 11
92.3672
 21
-98.1086
  0
LINE
  8
0
 10
92.3672
 20
-98.1086
 11
92.1233
 21
-98.1454
  0
LINE
  8
0
 10
92.1233
 20
-98.1454
 11
91.8767
 21
-98.1454
  0
LINE
  8
0
 10
-232.809
 20
-179.729
 11
-233.052
 21
-179.681
  0
LINE
  8
0
 10
-233.052
 20
-179.681
 11
-233.289
 21
-179.607
  0
LINE
  8
0
 10
-233.289
 20
-179.607
 11
-233.516
 21
-179.508
  0
LINE
  8
0
 10
-233.516
 20
-179.508
 11
-233.731
 21
-179.384
  0
LINE
  8
0
 10
-233.731
 20
-179.384
 11
-233.93
 21
-179.237
  0
LINE
  8
0
 10
-233.93
 20
-179.237
 11
-234.113
 21
-179.069
  0
LINE
  8
0
 10
-234.113
 20
-179.069
 11
-234.276
 21
-178.882
  0
LINE
  8
0
 10
-234.276
 20
-178.882
 11
-234.417
 21
-178.678
  0
LINE
  8
0
 10
-234.417
 20
-178.678
 11
-234.535
 21
-178.46
  0
LINE
  8
0
 10
-234.535
 20
-178.46
 11
-234.628
 21
-178.231
  0
LINE
  8
0
 10
-234.628
 20
-178.231
 11
-234.696
 21
-177.992
  0
LINE
  8
0
 10
-234.696
 20
-177.992
 11
-234.736
 21
-177.748
  0
LINE
  8
0
 10
-234.736
 20
-177.748
 11
-234.75
 21
-177.5
  0
LINE
  8
0
 10
-234.75
 20
-177.5
 11
-234.736
 21
-177.252
  0
LINE
  8
0
 10
-234.736
 20
-177.252
 11
-234.696
 21
-177.008
  0
LINE
  8
0
 10
-234.696
 20
-177.008
 11
-234.628
 21
-176.769
  0
LINE
  8
0
 10
-234.628
 20
-176.769
 11
-234.535
 21
-176.54
  0
LINE
  8
0
 10
-234.535
 20
-176.54
 11
-234.417
 21
-176.322
  0
LINE
  8
0
 10
-234.417
 20
-176.322
 11
-234.276
 21
-176.118
  0
LINE
  8
0
 10
-234.276
 20
-176.118
 11
-234.113
 21
-175.931
  0
LINE
  8
0
 10
-234.113
 20
-175.931
 11
-233.93
 21
-175.763
  0
LINE
  8
0
 10
-233.93
 20
-175.763
 11
-233.731
 21
-175.616
  0
LINE
  8
0
 10
-233.731
 20
-175.616
 11
-233.516
 21
-175.492
  0
LINE
  8
0
 10
-233.516
 20
-175.492
 11
-233.289
 21
-175.393
  0
LINE
  8
0
 10
-233.289
 20
-175.393
 11
-233.052
 21
-175.319
  0
LINE
  8
0
 10
-233.052
 20
-175.319
 11
-232.809
 21
-175.271
  0
LINE
  8
0
 10
-232.809
 20
-175.271
 11
-232.562
 21
-175.251
  0
LINE
  8
0
 10
-232.562
 20
-175.251
 11
-232.314
 21
-175.258
  0
LINE
  8
0
 10
-232.314
 20
-175.258
 11
-232.069
 21
-175.292
  0
LINE
  8
0
 10
-232.069
 20
-175.292
 11
-231.828
 21
-175.353
  0
LINE
  8
0
 10
-231.828
 20
-175.353
 11
-231.596
 21
-175.44
  0
LINE
  8
0
 10
-231.596
 20
-175.44
 11
-231.375
 21
-175.551
  0
LINE
  8
0
 10
-231.375
 20
-175.551
 11
-231.167
 21
-175.687
  0
LINE
  8
0
 10
-231.167
 20
-175.687
 11
-230.976
 21
-175.845
  0
LINE
  8
0
 10
-230.976
 20
-175.845
 11
-230.803
 21
-176.022
  0
LINE
  8
0
 10
-230.803
 20
-176.022
 11
-230.651
 21
-176.218
  0
LINE
  8
0
 10
-230.651
 20
-176.218
 11
-230.521
 21
-176.429
  0
LINE
  8
0
 10
-230.521
 20
-176.429
 11
-230.415
 21
-176.653
  0
LINE
  8
0
 10
-230.415
 20
-176.653
 11
-230.335
 21
-176.888
  0
LINE
  8
0
 10
-230.335
 20
-176.888
 11
-230.281
 21
-177.13
  0
LINE
  8
0
 10
-230.281
 20
-177.13
 11
-230.253
 21
-177.376
  0
LINE
  8
0
 10
-230.253
 20
-177.376
 11
-230.253
 21
-177.624
  0
LINE
  8
0
 10
-230.253
 20
-177.624
 11
-230.281
 21
-177.87
  0
LINE
  8
0
 10
-230.281
 20
-177.87
 11
-230.335
 21
-178.112
  0
LINE
  8
0
 10
-230.335
 20
-178.112
 11
-230.415
 21
-178.347
  0
LINE
  8
0
 10
-230.415
 20
-178.347
 11
-230.521
 21
-178.571
  0
LINE
  8
0
 10
-230.521
 20
-178.571
 11
-230.651
 21
-178.782
  0
LINE
  8
0
 10
-230.651
 20
-178.782
 11
-230.803
 21
-178.978
  0
LINE
  8
0
 10
-230.803
 20
-178.978
 11
-230.976
 21
-179.155
  0
LINE
  8
0
 10
-230.976
 20
-179.155
 11
-231.167
 21
-179.313
  0
LINE
  8
0
 10
-231.167
 20
-179.313
 11
-231.375
 21
-179.449
  0
LINE
  8
0
 10
-231.375
 20
-179.449
 11
-231.596
 21
-179.56
  0
LINE
  8
0
 10
-231.596
 20
-179.56
 11
-231.828
 21
-179.647
  0
LINE
  8
0
 10
-231.828
 20
-179.647
 11
-232.069
 21
-179.708
  0
LINE
  8
0
 10
-232.069
 20
-179.708
 11
-232.314
 21
-179.742
  0
LINE
  8
0
 10
-232.314
 20
-179.742
 11
-232.562
 21
-179.749
  0
LINE
  8
0
 10
-232.562
 20
-179.749
 11
-232.809
 21
-179.729
  0
LINE
  8
0
 10
232.314
 20
-179.742
 11
232.069
 21
-179.708
  0
LINE
  8
0
 10
232.069
 20
-179.708
 11
231.828
 21
-179.647
  0
LINE
  8
0
 10
231.828
 20
-179.647
 11
231.596
 21
-179.56
  0
LINE
  8
0
 10
231.596
 20
-179.56
 11
231.375
 21
-179.449
  0
LINE
  8
0
 10
231.375
 20
-179.449
 11
231.167
 21
-179.313
  0
LINE
  8
0
 10
231.167
 20
-179.313
 11
230.976
 21
-179.155
  0
LINE
  8
0
 10
230.976
 20
-179.155
 11
230.803
 21
-178.978
  0
LINE
  8
0
 10
230.803
 20
-178.978
 11
230.651
 21
-178.782
  0
LINE
  8
0
 10
230.651
 20
-178.782
 11
230.521
 21
-178.571
  0
LINE
  8
0
 10
230.521
 20
-178.571
 11
230.415
 21
-178.347
  0
LINE
  8
0
 10
230.415
 20
-178.347
 11
230.335
 21
-178.112
  0
LINE
  8
0
 10
230.335
 20
-178.112
 11
230.281
 21
-177.87
  0
LINE
  8
0
 10
230.281
 20
-177.87
 11
230.253
 21
-177.624
  0
LINE
  8
0
 10
230.253
 20
-177.624
 11
230.253
 21
-177.376
  0
LINE
  8
0
 10
230.253
 20
-177.376
 11
230.281
 21
-177.13
  0
LINE
  8
0
 10
230.281
 20
-177.13
 11
230.335
 21
-176.888
  0
LINE
  8
0
 10
230.335
 20
-176.888
 11
230.415
 21
-176.653
  0
LINE
  8
0
 10
230.415
 20
-176.653
 11
230.521
 21
-176.429
  0
LINE
  8
0
 10
230.521
 20
-176.429
 11
230.651
 21
-176.218
  0
LINE
  8
0
 10
230.651
 20
-176.218
 11
230.803
 21
-176.022
  0
LINE
  8
0
 10
230.803
 20
-176.022
 11
230.976
 21
-175.845
  0
LINE
  8
0
 10
230.976
 20
-175.845
 11
231.167
 21
-175.687
  0
LINE
  8
0
 10
231.167
 20
-175.687
 11
231.375
 21
-175.551
  0
LINE
  8
0
 10
231.375
 20
-175.551
 11
231.596
 21
-175.44
  0
LINE
  8
0
 10
231.596
 20
-175.44
 11
231.828
 21
-175.353
  0
LINE
  8
0
 10
231.828
 20
-175.353
 11
232.069
 21
-175.292
  0
LINE
  8
0
 10
232.069
 20
-175.292
 11
232.314
 21
-175.258
  0
LINE
  8
0
 10
232.314
 20
-175.258
 11
232.562
 21
-175.251
  0
LINE
  8
0
 10
232.562
 20
-175.251
 11
232.809
 21
-175.271
  0
LINE
  8
0
 10
232.809
 20
-175.271
 11
233.052
 21
-175.319
  0
LINE
  8
0
 10
233.052
 20
-175.319
 11
233.289
 21
-175.393
  0
LINE
  8
0
 10
233.289
 20
-175.393
 11
233.516
 21
-175.492
  0
LINE
  8
0
 10
233.516
 20
-175.492
 11
233.731
 21
-175.616
  0
LINE
  8
0
 10
233.731
 20
-175.616
 11
233.93
 21
-175.763
  0
LINE
  8
0
 10
233.93
 20
-175.763
 11
234.113
 21
-175.931
  0
LINE
  8
0
 10
234.113
 20
-175.931
 11
234.276
 21
-176.118
  0
LINE
  8
0
 10
234.276
 20
-176.118
 11
234.417
 21
-176.322
  0
LINE
  8
0
 10
234.417
 20
-176.322
 11
234.535
 21
-176.54
  0
LINE
  8
0
 10
234.535
 20
-176.54
 11
234.628
 21
-176.769
  0
LINE
  8
0
 10
234.628
 20
-176.769
 11
234.696
 21
-177.008
  0
LINE
  8
0
 10
234.696
 20
-177.008
 11
234.736
 21
-177.252
  0
LINE
  8
0
 10
234.736
 20
-177.252
 11
234.75
 21
-177.5
  0
LINE
  8
0
 10
234.75
 20
-177.5
 11
234.736
 21
-177.748
  0
LINE
  8
0
 10
234.736
 20
-177.748
 11
234.696
 21
-177.992
  0
LINE
  8
0
 10
234.696
 20
-177.992
 11
234.628
 21
-178.231
  0
LINE
  8
0
 10
234.628
 20
-178.231
 11
234.535
 21
-178.46
  0
LINE
  8
0
 10
234.535
 20
-178.46
 11
234.417
 21
-178.678
  0
LINE
  8
0
 10
234.417
 20
-178.678
 11
234.276
 21
-178.882
  0
LINE
  8
0
 10
234.276
 20
-178.882
 11
234.113
 21
-179.069
  0
LINE
  8
0
 10
234.113
 20
-179.069
 11
233.93
 21
-179.237
  0
LINE
  8
0
 10
233.93
 20
-179.237
 11
233.731
 21
-179.384
  0
LINE
  8
0
 10
233.731
 20
-179.384
 11
233.516
 21
-179.508
  0
LINE
  8
0
 10
233.516
 20
-179.508
 11
233.289
 21
-179.607
  0
LINE
  8
0
 10
233.289
 20
-179.607
 11
233.052
 21
-179.681
  0
LINE
  8
0
 10
233.052
 20
-179.681
 11
232.809
 21
-179.729
  0
LINE
  8
0
 10
232.809
 20
-179.729
 11
232.562
 21
-179.749
  0
LINE
  8
0
 10
232.562
 20
-179.749
 11
232.314
 21
-179.742
  0
LINE
  8
0
 10
231.977
 20
-222.473
 11
231.46
 21
-222.391
  0
LINE
  8
0
 10
231.46
 20
-222.391
 11
230.955
 21
-222.255
  0
LINE
  8
0
 10
230.955
 20
-222.255
 11
230.466
 21
-222.068
  0
LINE
  8
0
 10
230.466
 20
-222.068
 11
230
 21
-221.83
  0
LINE
  8
0
 10
230
 20
-221.83
 11
229.561
 21
-221.545
  0
LINE
  8
0
 10
229.561
 20
-221.545
 11
229.154
 21
-221.216
  0
LINE
  8
0
 10
229.154
 20
-221.216
 11
228.784
 21
-220.846
  0
LINE
  8
0
 10
228.784
 20
-220.846
 11
228.455
 21
-220.439
  0
LINE
  8
0
 10
228.455
 20
-220.439
 11
228.17
 21
-220
  0
LINE
  8
0
 10
228.17
 20
-220
 11
227.932
 21
-219.534
  0
LINE
  8
0
 10
227.932
 20
-219.534
 11
227.745
 21
-219.045
  0
LINE
  8
0
 10
227.745
 20
-219.045
 11
227.609
 21
-218.54
  0
LINE
  8
0
 10
227.609
 20
-218.54
 11
227.527
 21
-218.023
  0
LINE
  8
0
 10
227.527
 20
-218.023
 11
227.5
 21
-217.5
  0
LINE
  8
0
 10
227.5
 20
-217.5
 11
227.527
 21
-216.977
  0
LINE
  8
0
 10
227.527
 20
-216.977
 11
227.609
 21
-216.46
  0
LINE
  8
0
 10
227.609
 20
-216.46
 11
227.745
 21
-215.955
  0
LINE
  8
0
 10
227.745
 20
-215.955
 11
227.932
 21
-215.466
  0
LINE
  8
0
 10
227.932
 20
-215.466
 11
228.17
 21
-215
  0
LINE
  8
0
 10
228.17
 20
-215
 11
228.455
 21
-214.561
  0
LINE
  8
0
 10
228.455
 20
-214.561
 11
228.784
 21
-214.154
  0
LINE
  8
0
 10
228.784
 20
-214.154
 11
229.154
 21
-213.784
  0
LINE
  8
0
 10
229.154
 20
-213.784
 11
229.561
 21
-213.455
  0
LINE
  8
0
 10
229.561
 20
-213.455
 11
230
 21
-213.17
  0
LINE
  8
0
 10
230
 20
-213.17
 11
230.466
 21
-212.932
  0
LINE
  8
0
 10
230.466
 20
-212.932
 11
230.955
 21
-212.745
  0
LINE
  8
0
 10
230.955
 20
-212.745
 11
231.46
 21
-212.609
  0
LINE
  8
0
 10
231.46
 20
-212.609
 11
231.977
 21
-212.527
  0
LINE
  8
0
 10
231.977
 20
-212.527
 11
232.5
 21
-212.5
  0
LINE
  8
0
 10
232.5
 20
-212.5
 11
233.023
 21
-212.527
  0
LINE
  8
0
 10
233.023
 20
-212.527
 11
233.54
 21
-212.609
  0
LINE
  8
0
 10
233.54
 20
-212.609
 11
234.045
 21
-212.745
  0
LINE
  8
0
 10
234.045
 20
-212.745
 11
234.534
 21
-212.932
  0
LINE
  8
0
 10
234.534
 20
-212.932
 11
235
 21
-213.17
  0
LINE
  8
0
 10
235
 20
-213.17
 11
235.439
 21
-213.455
  0
LINE
  8
0
 10
235.439
 20
-213.455
 11
235.846
 21
-213.784
  0
LINE
  8
0
 10
235.846
 20
-213.784
 11
236.216
 21
-214.154
  0
LINE
  8
0
 10
236.216
 20
-214.154
 11
236.545
 21
-214.561
  0
LINE
  8
0
 10
236.545
 20
-214.561
 11
236.83
 21
-215
  0
LINE
  8
0
 10
236.83
 20
-215
 11
237.068
 21
-215.466
  0
LINE
  8
0
 10
237.068
 20
-215.466
 11
237.255
 21
-215.955
  0
LINE
  8
0
 10
237.255
 20
-215.955
 11
237.391
 21
-216.46
  0
LINE
  8
0
 10
237.391
 20
-216.46
 11
237.473
 21
-216.977
  0
LINE
  8
0
 10
237.473
 20
-216.977
 11
237.5
 21
-217.5
  0
LINE
  8
0
 10
237.5
 20
-217.5
 11
237.473
 21
-218.023
  0
LINE
  8
0
 10
237.473
 20
-218.023
 11
237.391
 21
-218.54
  0
LINE
  8
0
 10
237.391
 20
-218.54
 11
237.255
 21
-219.045
  0
LINE
  8
0
 10
237.255
 20
-219.045
 11
237.068
 21
-219.534
  0
LINE
  8
0
 10
237.068
 20
-219.534
 11
236.83
 21
-220
  0
LINE
  8
0
 10
236.83
 20
-220
 11
236.545
 21
-220.439
  0
LINE
  8
0
 10
236.545
 20
-220.439
 11
236.216
 21
-220.846
  0
LINE
  8
0
 10
236.216
 20
-220.846
 11
235.846
 21
-221.216
  0
LINE
  8
0
 10
235.846
 20
-221.216
 11
235.439
 21
-221.545
  0
LINE
  8
0
 10
235.439
 20
-221.545
 11
235
 21
-221.83
  0
LINE
  8
0
 10
235
 20
-221.83
 11
234.534
 21
-222.068
  0
LINE
  8
0
 10
234.534
 20
-222.068
 11
234.045
 21
-222.255
  0
LINE
  8
0
 10
234.045
 20
-222.255
 11
233.54
 21
-222.391
  0
LINE
  8
0
 10
233.54
 20
-222.391
 11
233.023
 21
-222.473
  0
LINE
  8
0
 10
233.023
 20
-222.473
 11
232.5
 21
-222.5
  0
LINE
  8
0
 10
232.5
 20
-222.5
 11
231.977
 21
-222.473
  0
LINE
  8
0
 10
-233.023
 20
-222.473
 11
-233.54
 21
-222.391
  0
LINE
  8
0
 10
-233.54
 20
-222.391
 11
-234.045
 21
-222.255
  0
LINE
  8
0
 10
-234.045
 20
-222.255
 11
-234.534
 21
-222.068
  0
LINE
  8
0
 10
-234.534
 20
-222.068
 11
-235
 21
-221.83
  0
LINE
  8
0
 10
-235
 20
-221.83
 11
-235.439
 21
-221.545
  0
LINE
  8
0
 10
-235.439
 20
-221.545
 11
-235.846
 21
-221.216
  0
LINE
  8
0
 10
-235.846
 20
-221.216
 11
-236.216
 21
-220.846
  0
LINE
  8
0
 10
-236.216
 20
-220.846
 11
-236.545
 21
-220.439
  0
LINE
  8
0
 10
-236.545
 20
-220.439
 11
-236.83
 21
-220
  0
LINE
  8
0
 10
-236.83
 20
-220
 11
-237.068
 21
-219.534
  0
LINE
  8
0
 10
-237.068
 20
-219.534
 11
-237.255
 21
-219.045
  0
LINE
  8
0
 10
-237.255
 20
-219.045
 11
-237.391
 21
-218.54
  0
LINE
  8
0
 10
-237.391
 20
-218.54
 11
-237.473
 21
-218.023
  0
LINE
  8
0
 10
-237.473
 20
-218.023
 11
-237.5
 21
-217.5
  0
LINE
  8
0
 10
-237.5
 20
-217.5
 11
-237.473
 21
-216.977
  0
LINE
  8
0
 10
-237.473
 20
-216.977
 11
-237.391
 21
-216.46
  0
LINE
  8
0
 10
-237.391
 20
-216.46
 11
-237.255
 21
-215.955
  0
LINE
  8
0
 10
-237.255
 20
-215.955
 11
-237.068
 21
-215.466
  0
LINE
  8
0
 10
-237.068
 20
-215.466
 11
-236.83
 21
-215
  0
LINE
  8
0
 10
-236.83
 20
-215
 11
-236.545
 21
-214.561
  0
LINE
  8
0
 10
-236.545
 20
-214.561
 11
-236.216
 21
-214.154
  0
LINE
  8
0
 10
-236.216
 20
-214.154
 11
-235.846
 21
-213.784
  0
LINE
  8
0
 10
-235.846
 20
-213.784
 11
-235.439
 21
-213.455
  0
LINE
  8
0
 10
-235.439
 20
-213.455
 11
-235
 21
-213.17
  0
LINE
  8
0
 10
-235
 20
-213.17
 11
-234.534
 21
-212.932
  0
LINE
  8
0
 10
-234.534
 20
-212.932
 11
-234.045
 21
-212.745
  0
LINE
  8
0
 10
-234.045
 20
-212.745
 11
-233.54
 21
-212.609
  0
LINE
  8
0
 10
-233.54
 20
-212.609
 11
-233.023
 21
-212.527
  0
LINE
  8
0
 10
-233.023
 20
-212.527
 11
-232.5
 21
-212.5
  0
LINE
  8
0
 10
-232.5
 20
-212.5
 11
-231.977
 21
-212.527
  0
LINE
  8
0
 10
-231.977
 20
-212.527
 11
-231.46
 21
-212.609
  0
LINE
  8
0
 10
-231.46
 20
-212.609
 11
-230.955
 21
-212.745
  0
LINE
  8
0
 10
-230.955
 20
-212.745
 11
-230.466
 21
-212.932
  0
LINE
  8
0
 10
-230.466
 20
-212.932
 11
-230
 21
-213.17
  0
LINE
  8
0
 10
-230
 20
-213.17
 11
-229.561
 21
-213.455
  0
LINE
  8
0
 10
-229.561
 20
-213.455
 11
-229.154
 21
-213.784
  0
LINE
  8
0
 10
-229.154
 20
-213.784
 11
-228.784
 21
-214.154
  0
LINE
  8
0
 10
-228.784
 20
-214.154
 11
-228.455
 21
-214.561
  0
LINE
  8
0
 10
-228.455
 20
-214.561
 11
-228.17
 21
-215
  0
LINE
  8
0
 10
-228.17
 20
-215
 11
-227.932
 21
-215.466
  0
LINE
  8
0
 10
-227.932
 20
-215.466
 11
-227.745
 21
-215.955
  0
LINE
  8
0
 10
-227.745
 20
-215.955
 11
-227.609
 21
-216.46
  0
LINE
  8
0
 10
-227.609
 20
-216.46
 11
-227.527
 21
-216.977
  0
LINE
  8
0
 10
-227.527
 20
-216.977
 11
-227.5
 21
-217.5
  0
LINE
  8
0
 10
-227.5
 20
-217.5
 11
-227.527
 21
-218.023
  0
LINE
  8
0
 10
-227.527
 20
-218.023
 11
-227.609
 21
-218.54
  0
LINE
  8
0
 10
-227.609
 20
-218.54
 11
-227.745
 21
-219.045
  0
LINE
  8
0
 10
-227.745
 20
-219.045
 11
-227.932
 21
-219.534
  0
LINE
  8
0
 10
-227.932
 20
-219.534
 11
-228.17
 21
-220
  0
LINE
  8
0
 10
-228.17
 20
-220
 11
-228.455
 21
-220.439
  0
LINE
  8
0
 10
-228.455
 20
-220.439
 11
-228.784
 21
-220.846
  0
LINE
  8
0
 10
-228.784
 20
-220.846
 11
-229.154
 21
-221.216
  0
LINE
  8
0
 10
-229.154
 20
-221.216
 11
-229.561
 21
-221.545
  0
LINE
  8
0
 10
-229.561
 20
-221.545
 11
-230
 21
-221.83
  0
LINE
  8
0
 10
-230
 20
-221.83
 11
-230.466
 21
-222.068
  0
LINE
  8
0
 10
-230.466
 20
-222.068
 11
-230.955
 21
-222.255
  0
LINE
  8
0
 10
-230.955
 20
-222.255
 11
-231.46
 21
-222.391
  0
LINE
  8
0
 10
-231.46
 20
-222.391
 11
-231.977
 21
-222.473
  0
LINE
  8
0
 10
-231.977
 20
-222.473
 11
-232.5
 21
-222.5
  0
LINE
  8
0
 10
-232.5
 20
-222.5
 11
-233.023
 21
-222.473
  0
LINE
  8
0
 10
-192.686
 20
-219.742
 11
-192.931
 21
-219.708
  0
LINE
  8
0
 10
-192.931
 20
-219.708
 11
-193.172
 21
-219.647
  0
LINE
  8
0
 10
-193.172
 20
-219.647
 11
-193.404
 21
-219.56
  0
LINE
  8
0
 10
-193.404
 20
-219.56
 11
-193.625
 21
-219.449
  0
LINE
  8
0
 10
-193.625
 20
-219.449
 11
-193.833
 21
-219.313
  0
LINE
  8
0
 10
-193.833
 20
-219.313
 11
-194.024
 21
-219.155
  0
LINE
  8
0
 10
-194.024
 20
-219.155
 11
-194.197
 21
-218.978
  0
LINE
  8
0
 10
-194.197
 20
-218.978
 11
-194.349
 21
-218.782
  0
LINE
  8
0
 10
-194.349
 20
-218.782
 11
-194.479
 21
-218.571
  0
LINE
  8
0
 10
-194.479
 20
-218.571
 11
-194.585
 21
-218.347
  0
LINE
  8
0
 10
-194.585
 20
-218.347
 11
-194.665
 21
-218.112
  0
LINE
  8
0
 10
-194.665
 20
-218.112
 11
-194.719
 21
-217.87
  0
LINE
  8
0
 10
-194.719
 20
-217.87
 11
-194.747
 21
-217.624
  0
LINE
  8
0
 10
-194.747
 20
-217.624
 11
-194.747
 21
-217.376
  0
LINE
  8
0
 10
-194.747
 20
-217.376
 11
-194.719
 21
-217.13
  0
LINE
  8
0
 10
-194.719
 20
-217.13
 11
-194.665
 21
-216.888
  0
LINE
  8
0
 10
-194.665
 20
-216.888
 11
-194.585
 21
-216.653
  0
LINE
  8
0
 10
-194.585
 20
-216.653
 11
-194.479
 21
-216.429
  0
LINE
  8
0
 10
-194.479
 20
-216.429
 11
-194.349
 21
-216.218
  0
LINE
  8
0
 10
-194.349
 20
-216.218
 11
-194.197
 21
-216.022
  0
LINE
  8
0
 10
-194.197
 20
-216.022
 11
-194.024
 21
-215.845
  0
LINE
  8
0
 10
-194.024
 20
-215.845
 11
-193.833
 21
-215.687
  0
LINE
  8
0
 10
-193.833
 20
-215.687
 11
-193.625
 21
-215.551
  0
LINE
  8
0
 10
-193.625
 20
-215.551
 11
-193.404
 21
-215.44
  0
LINE
  8
0
 10
-193.404
 20
-215.44
 11
-193.172
 21
-215.353
  0
LINE
  8
0
 10
-193.172
 20
-215.353
 11
-192.931
 21
-215.292
  0
LINE
  8
0
 10
-192.931
 20
-215.292
 11
-192.686
 21
-215.258
  0
LINE
  8
0
 10
-192.686
 20
-215.258
 11
-192.438
 21
-215.251
  0
LINE
  8
0
 10
-192.438
 20
-215.251
 11
-192.191
 21
-215.271
  0
LINE
  8
0
 10
-192.191
 20
-215.271
 11
-191.948
 21
-215.319
  0
LINE
  8
0
 10
-191.948
 20
-215.319
 11
-191.711
 21
-215.393
  0
LINE
  8
0
 10
-191.711
 20
-215.393
 11
-191.484
 21
-215.492
  0
LINE
  8
0
 10
-191.484
 20
-215.492
 11
-191.269
 21
-215.616
  0
LINE
  8
0
 10
-191.269
 20
-215.616
 11
-191.07
 21
-215.763
  0
LINE
  8
0
 10
-191.07
 20
-215.763
 11
-190.887
 21
-215.931
  0
LINE
  8
0
 10
-190.887
 20
-215.931
 11
-190.724
 21
-216.118
  0
LINE
  8
0
 10
-190.724
 20
-216.118
 11
-190.583
 21
-216.322
  0
LINE
  8
0
 10
-190.583
 20
-216.322
 11
-190.465
 21
-216.54
  0
LINE
  8
0
 10
-190.465
 20
-216.54
 11
-190.372
 21
-216.769
  0
LINE
  8
0
 10
-190.372
 20
-216.769
 11
-190.304
 21
-217.008
  0
LINE
  8
0
 10
-190.304
 20
-217.008
 11
-190.264
 21
-217.252
  0
LINE
  8
0
 10
-190.264
 20
-217.252
 11
-190.25
 21
-217.5
  0
LINE
  8
0
 10
-190.25
 20
-217.5
 11
-190.264
 21
-217.748
  0
LINE
  8
0
 10
-190.264
 20
-217.748
 11
-190.304
 21
-217.992
  0
LINE
  8
0
 10
-190.304
 20
-217.992
 11
-190.372
 21
-218.231
  0
LINE
  8
0
 10
-190.372
 20
-218.231
 11
-190.465
 21
-218.46
  0
LINE
  8
0
 10
-190.465
 20
-218.46
 11
-190.583
 21
-218.678
  0
LINE
  8
0
 10
-190.583
 20
-218.678
 11
-190.724
 21
-218.882
  0
LINE
  8
0
 10
-190.724
 20
-218.882
 11
-190.887
 21
-219.069
  0
LINE
  8
0
 10
-190.887
 20
-219.069
 11
-191.07
 21
-219.237
  0
LINE
  8
0
 10
-191.07
 20
-219.237
 11
-191.269
 21
-219.384
  0
LINE
  8
0
 10
-191.269
 20
-219.384
 11
-191.484
 21
-219.508
  0
LINE
  8
0
 10
-191.484
 20
-219.508
 11
-191.711
 21
-219.607
  0
LINE
  8
0
 10
-191.711
 20
-219.607
 11
-191.948
 21
-219.681
  0
LINE
  8
0
 10
-191.948
 20
-219.681
 11
-192.191
 21
-219.729
  0
LINE
  8
0
 10
-192.191
 20
-219.729
 11
-192.438
 21
-219.749
  0
LINE
  8
0
 10
-192.438
 20
-219.749
 11
-192.686
 21
-219.742
  0
LINE
  8
0
 10
-96.4358
 20
-219.742
 11
-96.6814
 21
-219.708
  0
LINE
  8
0
 10
-96.6814
 20
-219.708
 11
-96.9217
 21
-219.647
  0
LINE
  8
0
 10
-96.9217
 20
-219.647
 11
-97.1538
 21
-219.56
  0
LINE
  8
0
 10
-97.1538
 20
-219.56
 11
-97.375
 21
-219.449
  0
LINE
  8
0
 10
-97.375
 20
-219.449
 11
-97.5825
 21
-219.313
  0
LINE
  8
0
 10
-97.5825
 20
-219.313
 11
-97.7739
 21
-219.155
  0
LINE
  8
0
 10
-97.7739
 20
-219.155
 11
-97.9467
 21
-218.978
  0
LINE
  8
0
 10
-97.9467
 20
-218.978
 11
-98.099
 21
-218.782
  0
LINE
  8
0
 10
-98.099
 20
-218.782
 11
-98.2288
 21
-218.571
  0
LINE
  8
0
 10
-98.2288
 20
-218.571
 11
-98.3346
 21
-218.347
  0
LINE
  8
0
 10
-98.3346
 20
-218.347
 11
-98.4151
 21
-218.112
  0
LINE
  8
0
 10
-98.4151
 20
-218.112
 11
-98.4693
 21
-217.87
  0
LINE
  8
0
 10
-98.4693
 20
-217.87
 11
-98.4966
 21
-217.624
  0
LINE
  8
0
 10
-98.4966
 20
-217.624
 11
-98.4966
 21
-217.376
  0
LINE
  8
0
 10
-98.4966
 20
-217.376
 11
-98.4693
 21
-217.13
  0
LINE
  8
0
 10
-98.4693
 20
-217.13
 11
-98.4151
 21
-216.888
  0
LINE
  8
0
 10
-98.4151
 20
-216.888
 11
-98.3346
 21
-216.653
  0
LINE
  8
0
 10
-98.3346
 20
-216.653
 11
-98.2288
 21
-216.429
  0
LINE
  8
0
 10
-98.2288
 20
-216.429
 11
-98.099
 21
-216.218
  0
LINE
  8
0
 10
-98.099
 20
-216.218
 11
-97.9467
 21
-216.022
  0
LINE
  8
0
 10
-97.9467
 20
-216.022
 11
-97.7739
 21
-215.845
  0
LINE
  8
0
 10
-97.7739
 20
-215.845
 11
-97.5825
 21
-215.687
  0
LINE
  8
0
 10
-97.5825
 20
-215.687
 11
-97.375
 21
-215.551
  0
LINE
  8
0
 10
-97.375
 20
-215.551
 11
-97.1538
 21
-215.44
  0
LINE
  8
0
 10
-97.1538
 20
-215.44
 11
-96.9217
 21
-215.353
  0
LINE
  8
0
 10
-96.9217
 20
-215.353
 11
-96.6814
 21
-215.292
  0
LINE
  8
0
 10
-96.6814
 20
-215.292
 11
-96.4358
 21
-215.258
  0
LINE
  8
0
 10
-96.4358
 20
-215.258
 11
-96.188
 21
-215.251
  0
LINE
  8
0
 10
-96.188
 20
-215.251
 11
-95.9409
 21
-215.271
  0
LINE
  8
0
 10
-95.9409
 20
-215.271
 11
-95.6976
 21
-215.319
  0
LINE
  8
0
 10
-95.6976
 20
-215.319
 11
-95.4611
 21
-215.393
  0
LINE
  8
0
 10
-95.4611
 20
-215.393
 11
-95.234
 21
-215.492
  0
LINE
  8
0
 10
-95.234
 20
-215.492
 11
-95.0194
 21
-215.616
  0
LINE
  8
0
 10
-95.0194
 20
-215.616
 11
-94.8196
 21
-215.763
  0
LINE
  8
0
 10
-94.8196
 20
-215.763
 11
-94.6372
 21
-215.931
  0
LINE
  8
0
 10
-94.6372
 20
-215.931
 11
-94.4744
 21
-216.118
  0
LINE
  8
0
 10
-94.4744
 20
-216.118
 11
-94.3332
 21
-216.322
  0
LINE
  8
0
 10
-94.3332
 20
-216.322
 11
-94.2152
 21
-216.54
  0
LINE
  8
0
 10
-94.2152
 20
-216.54
 11
-94.1219
 21
-216.769
  0
LINE
  8
0
 10
-94.1219
 20
-216.769
 11
-94.0545
 21
-217.008
  0
LINE
  8
0
 10
-94.0545
 20
-217.008
 11
-94.0137
 21
-217.252
  0
LINE
  8
0
 10
-94.0137
 20
-217.252
 11
-94
 21
-217.5
  0
LINE
  8
0
 10
-94
 20
-217.5
 11
-94.0137
 21
-217.748
  0
LINE
  8
0
 10
-94.0137
 20
-217.748
 11
-94.0545
 21
-217.992
  0
LINE
  8
0
 10
-94.0545
 20
-217.992
 11
-94.1219
 21
-218.231
  0
LINE
  8
0
 10
-94.1219
 20
-218.231
 11
-94.2152
 21
-218.46
  0
LINE
  8
0
 10
-94.2152
 20
-218.46
 11
-94.3332
 21
-218.678
  0
LINE
  8
0
 10
-94.3332
 20
-218.678
 11
-94.4744
 21
-218.882
  0
LINE
  8
0
 10
-94.4744
 20
-218.882
 11
-94.6372
 21
-219.069
  0
LINE
  8
0
 10
-94.6372
 20
-219.069
 11
-94.8196
 21
-219.237
  0
LINE
  8
0
 10
-94.8196
 20
-219.237
 11
-95.0194
 21
-219.384
  0
LINE
  8
0
 10
-95.0194
 20
-219.384
 11
-95.234
 21
-219.508
  0
LINE
  8
0
 10
-95.234
 20
-219.508
 11
-95.4611
 21
-219.607
  0
LINE
  8
0
 10
-95.4611
 20
-219.607
 11
-95.6976
 21
-219.681
  0
LINE
  8
0
 10
-95.6976
 20
-219.681
 11
-95.9409
 21
-219.729
  0
LINE
  8
0
 10
-95.9409
 20
-219.729
 11
-96.188
 21
-219.749
  0
LINE
  8
0
 10
-96.188
 20
-219.749
 11
-96.4358
 21
-219.742
  0
LINE
  8
0
 10
96.0642
 20
-219.742
 11
95.8186
 21
-219.708
  0
LINE
  8
0
 10
95.8186
 20
-219.708
 11
95.5783
 21
-219.647
  0
LINE
  8
0
 10
95.5783
 20
-219.647
 11
95.3462
 21
-219.56
  0
LINE
  8
0
 10
95.3462
 20
-219.56
 11
95.125
 21
-219.449
  0
LINE
  8
0
 10
95.125
 20
-219.449
 11
94.9175
 21
-219.313
  0
LINE
  8
0
 10
94.9175
 20
-219.313
 11
94.7261
 21
-219.155
  0
LINE
  8
0
 10
94.7261
 20
-219.155
 11
94.5533
 21
-218.978
  0
LINE
  8
0
 10
94.5533
 20
-218.978
 11
94.401
 21
-218.782
  0
LINE
  8
0
 10
94.401
 20
-218.782
 11
94.2712
 21
-218.571
  0
LINE
  8
0
 10
94.2712
 20
-218.571
 11
94.1654
 21
-218.347
  0
LINE
  8
0
 10
94.1654
 20
-218.347
 11
94.0849
 21
-218.112
  0
LINE
  8
0
 10
94.0849
 20
-218.112
 11
94.0307
 21
-217.87
  0
LINE
  8
0
 10
94.0307
 20
-217.87
 11
94.0034
 21
-217.624
  0
LINE
  8
0
 10
94.0034
 20
-217.624
 11
94.0034
 21
-217.376
  0
LINE
  8
0
 10
94.0034
 20
-217.376
 11
94.0307
 21
-217.13
  0
LINE
  8
0
 10
94.0307
 20
-217.13
 11
94.0849
 21
-216.888
  0
LINE
  8
0
 10
94.0849
 20
-216.888
 11
94.1654
 21
-216.653
  0
LINE
  8
0
 10
94.1654
 20
-216.653
 11
94.2712
 21
-216.429
  0
LINE
  8
0
 10
94.2712
 20
-216.429
 11
94.401
 21
-216.218
  0
LINE
  8
0
 10
94.401
 20
-216.218
 11
94.5533
 21
-216.022
  0
LINE
  8
0
 10
94.5533
 20
-216.022
 11
94.7261
 21
-215.845
  0
LINE
  8
0
 10
94.7261
 20
-215.845
 11
94.9175
 21
-215.687
  0
LINE
  8
0
 10
94.9175
 20
-215.687
 11
95.125
 21
-215.551
  0
LINE
  8
0
 10
95.125
 20
-215.551
 11
95.3462
 21
-215.44
  0
LINE
  8
0
 10
95.3462
 20
-215.44
 11
95.5783
 21
-215.353
  0
LINE
  8
0
 10
95.5783
 20
-215.353
 11
95.8186
 21
-215.292
  0
LINE
  8
0
 10
95.8186
 20
-215.292
 11
96.0642
 21
-215.258
  0
LINE
  8
0
 10
96.0642
 20
-215.258
 11
96.312
 21
-215.251
  0
LINE
  8
0
 10
96.312
 20
-215.251
 11
96.559
 21
-215.271
  0
LINE
  8
0
 10
96.559
 20
-215.271
 11
96.8023
 21
-215.319
  0
LINE
  8
0
 10
96.8023
 20
-215.319
 11
97.0389
 21
-215.393
  0
LINE
  8
0
 10
97.0389
 20
-215.393
 11
97.2659
 21
-215.492
  0
LINE
  8
0
 10
97.2659
 20
-215.492
 11
97.4806
 21
-215.616
  0
LINE
  8
0
 10
97.4806
 20
-215.616
 11
97.6804
 21
-215.763
  0
LINE
  8
0
 10
97.6804
 20
-215.763
 11
97.8628
 21
-215.931
  0
LINE
  8
0
 10
97.8628
 20
-215.931
 11
98.0256
 21
-216.118
  0
LINE
  8
0
 10
98.0256
 20
-216.118
 11
98.1668
 21
-216.322
  0
LINE
  8
0
 10
98.1668
 20
-216.322
 11
98.2848
 21
-216.54
  0
LINE
  8
0
 10
98.2848
 20
-216.54
 11
98.3781
 21
-216.769
  0
LINE
  8
0
 10
98.3781
 20
-216.769
 11
98.4455
 21
-217.008
  0
LINE
  8
0
 10
98.4455
 20
-217.008
 11
98.4863
 21
-217.252
  0
LINE
  8
0
 10
98.4863
 20
-217.252
 11
98.5
 21
-217.5
  0
LINE
  8
0
 10
98.5
 20
-217.5
 11
98.4863
 21
-217.748
  0
LINE
  8
0
 10
98.4863
 20
-217.748
 11
98.4455
 21
-217.992
  0
LINE
  8
0
 10
98.4455
 20
-217.992
 11
98.3781
 21
-218.231
  0
LINE
  8
0
 10
98.3781
 20
-218.231
 11
98.2848
 21
-218.46
  0
LINE
  8
0
 10
98.2848
 20
-218.46
 11
98.1668
 21
-218.678
  0
LINE
  8
0
 10
98.1668
 20
-218.678
 11
98.0256
 21
-218.882
  0
LINE
  8
0
 10
98.0256
 20
-218.882
 11
97.8628
 21
-219.069
  0
LINE
  8
0
 10
97.8628
 20
-219.069
 11
97.6804
 21
-219.237
  0
LINE
  8
0
 10
97.6804
 20
-219.237
 11
97.4806
 21
-219.384
  0
LINE
  8
0
 10
97.4806
 20
-219.384
 11
97.2659
 21
-219.508
  0
LINE
  8
0
 10
97.2659
 20
-219.508
 11
97.0389
 21
-219.607
  0
LINE
  8
0
 10
97.0389
 20
-219.607
 11
96.8023
 21
-219.681
  0
LINE
  8
0
 10
96.8023
 20
-219.681
 11
96.559
 21
-219.729
  0
LINE
  8
0
 10
96.559
 20
-219.729
 11
96.312
 21
-219.749
  0
LINE
  8
0
 10
96.312
 20
-219.749
 11
96.0642
 21
-219.742
  0
LINE
  8
0
 10
192.314
 20
-219.742
 11
192.069
 21
-219.708
  0
LINE
  8
0
 10
192.069
 20
-219.708
 11
191.828
 21
-219.647
  0
LINE
  8
0
 10
191.828
 20
-219.647
 11
191.596
 21
-219.56
  0
LINE
  8
0
 10
191.596
 20
-219.56
 11
191.375
 21
-219.449
  0
LINE
  8
0
 10
191.375
 20
-219.449
 11
191.167
 21
-219.313
  0
LINE
  8
0
 10
191.167
 20
-219.313
 11
190.976
 21
-219.155
  0
LINE
  8
0
 10
190.976
 20
-219.155
 11
190.803
 21
-218.978
  0
LINE
  8
0
 10
190.803
 20
-218.978
 11
190.651
 21
-218.782
  0
LINE
  8
0
 10
190.651
 20
-218.782
 11
190.521
 21
-218.571
  0
LINE
  8
0
 10
190.521
 20
-218.571
 11
190.415
 21
-218.347
  0
LINE
  8
0
 10
190.415
 20
-218.347
 11
190.335
 21
-218.112
  0
LINE
  8
0
 10
190.335
 20
-218.112
 11
190.281
 21
-217.87
  0
LINE
  8
0
 10
190.281
 20
-217.87
 11
190.253
 21
-217.624
  0
LINE
  8
0
 10
190.253
 20
-217.624
 11
190.253
 21
-217.376
  0
LINE
  8
0
 10
190.253
 20
-217.376
 11
190.281
 21
-217.13
  0
LINE
  8
0
 10
190.281
 20
-217.13
 11
190.335
 21
-216.888
  0
LINE
  8
0
 10
190.335
 20
-216.888
 11
190.415
 21
-216.653
  0
LINE
  8
0
 10
190.415
 20
-216.653
 11
190.521
 21
-216.429
  0
LINE
  8
0
 10
190.521
 20
-216.429
 11
190.651
 21
-216.218
  0
LINE
  8
0
 10
190.651
 20
-216.218
 11
190.803
 21
-216.022
  0
LINE
  8
0
 10
190.803
 20
-216.022
 11
190.976
 21
-215.845
  0
LINE
  8
0
 10
190.976
 20
-215.845
 11
191.167
 21
-215.687
  0
LINE
  8
0
 10
191.167
 20
-215.687
 11
191.375
 21
-215.551
  0
LINE
  8
0
 10
191.375
 20
-215.551
 11
191.596
 21
-215.44
  0
LINE
  8
0
 10
191.596
 20
-215.44
 11
191.828
 21
-215.353
  0
LINE
  8
0
 10
191.828
 20
-215.353
 11
192.069
 21
-215.292
  0
LINE
  8
0
 10
192.069
 20
-215.292
 11
192.314
 21
-215.258
  0
LINE
  8
0
 10
192.314
 20
-215.258
 11
192.562
 21
-215.251
  0
LINE
  8
0
 10
192.562
 20
-215.251
 11
192.809
 21
-215.271
  0
LINE
  8
0
 10
192.809
 20
-215.271
 11
193.052
 21
-215.319
  0
LINE
  8
0
 10
193.052
 20
-215.319
 11
193.289
 21
-215.393
  0
LINE
  8
0
 10
193.289
 20
-215.393
 11
193.516
 21
-215.492
  0
LINE
  8
0
 10
193.516
 20
-215.492
 11
193.731
 21
-215.616
  0
LINE
  8
0
 10
193.731
 20
-215.616
 11
193.93
 21
-215.763
  0
LINE
  8
0
 10
193.93
 20
-215.763
 11
194.113
 21
-215.931
  0
LINE
  8
0
 10
194.113
 20
-215.931
 11
194.276
 21
-216.118
  0
LINE
  8
0
 10
194.276
 20
-216.118
 11
194.417
 21
-216.322
  0
LINE
  8
0
 10
194.417
 20
-216.322
 11
194.535
 21
-216.54
  0
LINE
  8
0
 10
194.535
 20
-216.54
 11
194.628
 21
-216.769
  0
LINE
  8
0
 10
194.628
 20
-216.769
 11
194.696
 21
-217.008
  0
LINE
  8
0
 10
194.696
 20
-217.008
 11
194.736
 21
-217.252
  0
LINE
  8
0
 10
194.736
 20
-217.252
 11
194.75
 21
-217.5
  0
LINE
  8
0
 10
194.75
 20
-217.5
 11
194.736
 21
-217.748
  0
LINE
  8
0
 10
194.736
 20
-217.748
 11
194.696
 21
-217.992
  0
LINE
  8
0
 10
194.696
 20
-217.992
 11
194.628
 21
-218.231
  0
LINE
  8
0
 10
194.628
 20
-218.231
 11
194.535
 21
-218.46
  0
LINE
  8
0
 10
194.535
 20
-218.46
 11
194.417
 21
-218.678
  0
LINE
  8
0
 10
194.417
 20
-218.678
 11
194.276
 21
-218.882
  0
LINE
  8
0
 10
194.276
 20
-218.882
 11
194.113
 21
-219.069
  0
LINE
  8
0
 10
194.113
 20
-219.069
 11
193.93
 21
-219.237
  0
LINE
  8
0
 10
193.93
 20
-219.237
 11
193.731
 21
-219.384
  0
LINE
  8
0
 10
193.731
 20
-219.384
 11
193.516
 21
-219.508
  0
LINE
  8
0
 10
193.516
 20
-219.508
 11
193.289
 21
-219.607
  0
LINE
  8
0
 10
193.289
 20
-219.607
 11
193.052
 21
-219.681
  0
LINE
  8
0
 10
193.052
 20
-219.681
 11
192.809
 21
-219.729
  0
LINE
  8
0
 10
192.809
 20
-219.729
 11
192.562
 21
-219.749
  0
LINE
  8
0
 10
192.562
 20
-219.749
 11
192.314
 21
-219.742
  0
LINE
  8
0
 10
-0.185791
 20
-219.742
 11
-0.431335
 21
-219.708
  0
LINE
  8
0
 10
-0.431335
 20
-219.708
 11
-0.671646
 21
-219.647
  0
LINE
  8
0
 10
-0.671646
 20
-219.647
 11
-0.903809
 21
-219.56
  0
LINE
  8
0
 10
-0.903809
 20
-219.56
 11
-1.125
 21
-219.449
  0
LINE
  8
0
 10
-1.125
 20
-219.449
 11
-1.33252
 21
-219.313
  0
LINE
  8
0
 10
-1.33252
 20
-219.313
 11
-1.52388
 21
-219.155
  0
LINE
  8
0
 10
-1.52388
 20
-219.155
 11
-1.69673
 21
-218.978
  0
LINE
  8
0
 10
-1.69673
 20
-218.978
 11
-1.849
 21
-218.782
  0
LINE
  8
0
 10
-1.849
 20
-218.782
 11
-1.97881
 21
-218.571
  0
LINE
  8
0
 10
-1.97881
 20
-218.571
 11
-2.08461
 21
-218.347
  0
LINE
  8
0
 10
-2.08461
 20
-218.347
 11
-2.1651
 21
-218.112
  0
LINE
  8
0
 10
-2.1651
 20
-218.112
 11
-2.2193
 21
-217.87
  0
LINE
  8
0
 10
-2.2193
 20
-217.87
 11
-2.24658
 21
-217.624
  0
LINE
  8
0
 10
-2.24658
 20
-217.624
 11
-2.24658
 21
-217.376
  0
LINE
  8
0
 10
-2.24658
 20
-217.376
 11
-2.2193
 21
-217.13
  0
LINE
  8
0
 10
-2.2193
 20
-217.13
 11
-2.1651
 21
-216.888
  0
LINE
  8
0
 10
-2.1651
 20
-216.888
 11
-2.08461
 21
-216.653
  0
LINE
  8
0
 10
-2.08461
 20
-216.653
 11
-1.97881
 21
-216.429
  0
LINE
  8
0
 10
-1.97881
 20
-216.429
 11
-1.849
 21
-216.218
  0
LINE
  8
0
 10
-1.849
 20
-216.218
 11
-1.69673
 21
-216.022
  0
LINE
  8
0
 10
-1.69673
 20
-216.022
 11
-1.52388
 21
-215.845
  0
LINE
  8
0
 10
-1.52388
 20
-215.845
 11
-1.33252
 21
-215.687
  0
LINE
  8
0
 10
-1.33252
 20
-215.687
 11
-1.125
 21
-215.551
  0
LINE
  8
0
 10
-1.125
 20
-215.551
 11
-0.903809
 21
-215.44
  0
LINE
  8
0
 10
-0.903809
 20
-215.44
 11
-0.671646
 21
-215.353
  0
LINE
  8
0
 10
-0.671646
 20
-215.353
 11
-0.431335
 21
-215.292
  0
LINE
  8
0
 10
-0.431335
 20
-215.292
 11
-0.185791
 21
-215.258
  0
LINE
  8
0
 10
-0.185791
 20
-215.258
 11
0.0619965
 21
-215.251
  0
LINE
  8
0
 10
0.0619965
 20
-215.251
 11
0.309036
 21
-215.271
  0
LINE
  8
0
 10
0.309036
 20
-215.271
 11
0.552338
 21
-215.319
  0
LINE
  8
0
 10
0.552338
 20
-215.319
 11
0.788925
 21
-215.393
  0
LINE
  8
0
 10
0.788925
 20
-215.393
 11
1.01595
 21
-215.492
  0
LINE
  8
0
 10
1.01595
 20
-215.492
 11
1.23062
 21
-215.616
  0
LINE
  8
0
 10
1.23062
 20
-215.616
 11
1.43037
 21
-215.763
  0
LINE
  8
0
 10
1.43037
 20
-215.763
 11
1.61275
 21
-215.931
  0
LINE
  8
0
 10
1.61275
 20
-215.931
 11
1.77556
 21
-216.118
  0
LINE
  8
0
 10
1.77556
 20
-216.118
 11
1.91681
 21
-216.322
  0
LINE
  8
0
 10
1.91681
 20
-216.322
 11
2.03479
 21
-216.54
  0
LINE
  8
0
 10
2.03479
 20
-216.54
 11
2.12808
 21
-216.769
  0
LINE
  8
0
 10
2.12808
 20
-216.769
 11
2.19554
 21
-217.008
  0
LINE
  8
0
 10
2.19554
 20
-217.008
 11
2.23634
 21
-217.252
  0
LINE
  8
0
 10
2.23634
 20
-217.252
 11
2.25
 21
-217.5
  0
LINE
  8
0
 10
2.25
 20
-217.5
 11
2.23634
 21
-217.748
  0
LINE
  8
0
 10
2.23634
 20
-217.748
 11
2.19554
 21
-217.992
  0
LINE
  8
0
 10
2.19554
 20
-217.992
 11
2.12808
 21
-218.231
  0
LINE
  8
0
 10
2.12808
 20
-218.231
 11
2.03479
 21
-218.46
  0
LINE
  8
0
 10
2.03479
 20
-218.46
 11
1.91681
 21
-218.678
  0
LINE
  8
0
 10
1.91681
 20
-218.678
 11
1.77556
 21
-218.882
  0
LINE
  8
0
 10
1.77556
 20
-218.882
 11
1.61275
 21
-219.069
  0
LINE
  8
0
 10
1.61275
 20
-219.069
 11
1.43037
 21
-219.237
  0
LINE
  8
0
 10
1.43037
 20
-219.237
 11
1.23062
 21
-219.384
  0
LINE
  8
0
 10
1.23062
 20
-219.384
 11
1.01595
 21
-219.508
  0
LINE
  8
0
 10
1.01595
 20
-219.508
 11
0.788925
 21
-219.607
  0
LINE
  8
0
 10
0.788925
 20
-219.607
 11
0.552338
 21
-219.681
  0
LINE
  8
0
 10
0.552338
 20
-219.681
 11
0.309036
 21
-219.729
  0
LINE
  8
0
 10
0.309036
 20
-219.729
 11
0.0619965
 21
-219.749
  0
LINE
  8
0
 10
0.0619965
 20
-219.749
 11
-0.185791
 21
-219.742
  0
ENDSEC
  0
SECTION
  2
OBJECTS
  0
DICTIONARY
  0
ENDSEC
  0
EOF
