  0
SECTION
  2
BLOCKS
  0
ENDSEC
  0
SECTION
  2
ENTITIES
  0
LINE
  8
0
 10
324.691
 20
-249.962
 11
324.854
 21
-249.854
  0
LINE
  8
0
 10
324.854
 20
-249.854
 11
324.962
 21
-249.691
  0
LINE
  8
0
 10
324.962
 20
-249.691
 11
325
 21
-249.5
  0
LINE
  8
0
 10
325
 20
-249.5
 11
325
 21
249.5
  0
LINE
  8
0
 10
325
 20
249.5
 11
324.962
 21
249.691
  0
LINE
  8
0
 10
324.962
 20
249.691
 11
324.854
 21
249.854
  0
LINE
  8
0
 10
324.854
 20
249.854
 11
324.691
 21
249.962
  0
LINE
  8
0
 10
324.691
 20
249.962
 11
324.5
 21
250
  0
LINE
  8
0
 10
324.5
 20
250
 11
-324.5
 21
250
  0
LINE
  8
0
 10
-324.5
 20
250
 11
-324.691
 21
249.962
  0
LINE
  8
0
 10
-324.691
 20
249.962
 11
-324.854
 21
249.854
  0
LINE
  8
0
 10
-324.854
 20
249.854
 11
-324.962
 21
249.691
  0
LINE
  8
0
 10
-324.962
 20
249.691
 11
-325
 21
249.5
  0
LINE
  8
0
 10
-325
 20
249.5
 11
-325
 21
-249.5
  0
LINE
  8
0
 10
-325
 20
-249.5
 11
-324.962
 21
-249.691
  0
LINE
  8
0
 10
-324.962
 20
-249.691
 11
-324.854
 21
-249.854
  0
LINE
  8
0
 10
-324.854
 20
-249.854
 11
-324.691
 21
-249.962
  0
LINE
  8
0
 10
-324.691
 20
-249.962
 11
-324.5
 21
-250
  0
LINE
  8
0
 10
-324.5
 20
-250
 11
324.5
 21
-250
  0
LINE
  8
0
 10
324.5
 20
-250
 11
324.691
 21
-249.962
  0
LINE
  8
0
 10
314.691
 20
238.328
 11
314.451
 21
238.391
  0
LINE
  8
0
 10
314.451
 20
238.391
 11
314.223
 21
238.488
  0
LINE
  8
0
 10
314.223
 20
238.488
 11
314.011
 21
238.617
  0
LINE
  8
0
 10
314.011
 20
238.617
 11
313.82
 21
238.776
  0
LINE
  8
0
 10
313.82
 20
238.776
 11
313.654
 21
238.961
  0
LINE
  8
0
 10
313.654
 20
238.961
 11
313.518
 21
239.168
  0
LINE
  8
0
 10
313.518
 20
239.168
 11
313.412
 21
239.393
  0
LINE
  8
0
 10
313.412
 20
239.393
 11
313.341
 21
239.63
  0
LINE
  8
0
 10
313.341
 20
239.63
 11
313.305
 21
239.876
  0
LINE
  8
0
 10
313.305
 20
239.876
 11
313.305
 21
240.124
  0
LINE
  8
0
 10
313.305
 20
240.124
 11
313.341
 21
240.37
  0
LINE
  8
0
 10
313.341
 20
240.37
 11
313.412
 21
240.607
  0
LINE
  8
0
 10
313.412
 20
240.607
 11
313.518
 21
240.832
  0
LINE
  8
0
 10
313.518
 20
240.832
 11
313.654
 21
241.039
  0
LINE
  8
0
 10
313.654
 20
241.039
 11
313.82
 21
241.224
  0
LINE
  8
0
 10
313.82
 20
241.224
 11
314.011
 21
241.383
  0
LINE
  8
0
 10
314.011
 20
241.383
 11
314.223
 21
241.512
  0
LINE
  8
0
 10
314.223
 20
241.512
 11
314.451
 21
241.609
  0
LINE
  8
0
 10
314.451
 20
241.609
 11
314.691
 21
241.672
  0
LINE
  8
0
 10
314.691
 20
241.672
 11
314.938
 21
241.699
  0
LINE
  8
0
 10
314.938
 20
241.699
 11
315.186
 21
241.69
  0
LINE
  8
0
 10
315.186
 20
241.69
 11
315.43
 21
241.645
  0
LINE
  8
0
 10
315.43
 20
241.645
 11
315.665
 21
241.565
  0
LINE
  8
0
 10
315.665
 20
241.565
 11
315.886
 21
241.451
  0
LINE
  8
0
 10
315.886
 20
241.451
 11
316.087
 21
241.307
  0
LINE
  8
0
 10
316.087
 20
241.307
 11
316.266
 21
241.134
  0
LINE
  8
0
 10
316.266
 20
241.134
 11
316.418
 21
240.938
  0
LINE
  8
0
 10
316.418
 20
240.938
 11
316.539
 21
240.722
  0
LINE
  8
0
 10
316.539
 20
240.722
 11
316.628
 21
240.49
  0
LINE
  8
0
 10
316.628
 20
240.49
 11
316.682
 21
240.248
  0
LINE
  8
0
 10
316.682
 20
240.248
 11
316.7
 21
240
  0
LINE
  8
0
 10
316.7
 20
240
 11
316.682
 21
239.752
  0
LINE
  8
0
 10
316.682
 20
239.752
 11
316.628
 21
239.51
  0
LINE
  8
0
 10
316.628
 20
239.51
 11
316.539
 21
239.278
  0
LINE
  8
0
 10
316.539
 20
239.278
 11
316.418
 21
239.062
  0
LINE
  8
0
 10
316.418
 20
239.062
 11
316.266
 21
238.866
  0
LINE
  8
0
 10
316.266
 20
238.866
 11
316.087
 21
238.693
  0
LINE
  8
0
 10
316.087
 20
238.693
 11
315.886
 21
238.549
  0
LINE
  8
0
 10
315.886
 20
238.549
 11
315.665
 21
238.435
  0
LINE
  8
0
 10
315.665
 20
238.435
 11
315.43
 21
238.355
  0
LINE
  8
0
 10
315.43
 20
238.355
 11
315.186
 21
238.31
  0
LINE
  8
0
 10
315.186
 20
238.31
 11
314.938
 21
238.301
  0
LINE
  8
0
 10
314.938
 20
238.301
 11
314.691
 21
238.328
  0
LINE
  8
0
 10
-315.186
 20
238.31
 11
-315.43
 21
238.355
  0
LINE
  8
0
 10
-315.43
 20
238.355
 11
-315.665
 21
238.435
  0
LINE
  8
0
 10
-315.665
 20
238.435
 11
-315.886
 21
238.549
  0
LINE
  8
0
 10
-315.886
 20
238.549
 11
-316.087
 21
238.693
  0
LINE
  8
0
 10
-316.087
 20
238.693
 11
-316.266
 21
238.866
  0
LINE
  8
0
 10
-316.266
 20
238.866
 11
-316.418
 21
239.062
  0
LINE
  8
0
 10
-316.418
 20
239.062
 11
-316.539
 21
239.278
  0
LINE
  8
0
 10
-316.539
 20
239.278
 11
-316.628
 21
239.51
  0
LINE
  8
0
 10
-316.628
 20
239.51
 11
-316.682
 21
239.752
  0
LINE
  8
0
 10
-316.682
 20
239.752
 11
-316.7
 21
240
  0
LINE
  8
0
 10
-316.7
 20
240
 11
-316.682
 21
240.248
  0
LINE
  8
0
 10
-316.682
 20
240.248
 11
-316.628
 21
240.49
  0
LINE
  8
0
 10
-316.628
 20
240.49
 11
-316.539
 21
240.722
  0
LINE
  8
0
 10
-316.539
 20
240.722
 11
-316.418
 21
240.938
  0
LINE
  8
0
 10
-316.418
 20
240.938
 11
-316.266
 21
241.134
  0
LINE
  8
0
 10
-316.266
 20
241.134
 11
-316.087
 21
241.307
  0
LINE
  8
0
 10
-316.087
 20
241.307
 11
-315.886
 21
241.451
  0
LINE
  8
0
 10
-315.886
 20
241.451
 11
-315.665
 21
241.565
  0
LINE
  8
0
 10
-315.665
 20
241.565
 11
-315.43
 21
241.645
  0
LINE
  8
0
 10
-315.43
 20
241.645
 11
-315.186
 21
241.69
  0
LINE
  8
0
 10
-315.186
 20
241.69
 11
-314.938
 21
241.699
  0
LINE
  8
0
 10
-314.938
 20
241.699
 11
-314.691
 21
241.672
  0
LINE
  8
0
 10
-314.691
 20
241.672
 11
-314.451
 21
241.609
  0
LINE
  8
0
 10
-314.451
 20
241.609
 11
-314.223
 21
241.512
  0
LINE
  8
0
 10
-314.223
 20
241.512
 11
-314.011
 21
241.383
  0
LINE
  8
0
 10
-314.011
 20
241.383
 11
-313.82
 21
241.224
  0
LINE
  8
0
 10
-313.82
 20
241.224
 11
-313.654
 21
241.039
  0
LINE
  8
0
 10
-313.654
 20
241.039
 11
-313.518
 21
240.832
  0
LINE
  8
0
 10
-313.518
 20
240.832
 11
-313.412
 21
240.607
  0
LINE
  8
0
 10
-313.412
 20
240.607
 11
-313.341
 21
240.37
  0
LINE
  8
0
 10
-313.341
 20
240.37
 11
-313.305
 21
240.124
  0
LINE
  8
0
 10
-313.305
 20
240.124
 11
-313.305
 21
239.876
  0
LINE
  8
0
 10
-313.305
 20
239.876
 11
-313.341
 21
239.63
  0
LINE
  8
0
 10
-313.341
 20
239.63
 11
-313.412
 21
239.393
  0
LINE
  8
0
 10
-313.412
 20
239.393
 11
-313.518
 21
239.168
  0
LINE
  8
0
 10
-313.518
 20
239.168
 11
-313.654
 21
238.961
  0
LINE
  8
0
 10
-313.654
 20
238.961
 11
-313.82
 21
238.776
  0
LINE
  8
0
 10
-313.82
 20
238.776
 11
-314.011
 21
238.617
  0
LINE
  8
0
 10
-314.011
 20
238.617
 11
-314.223
 21
238.488
  0
LINE
  8
0
 10
-314.223
 20
238.488
 11
-314.451
 21
238.391
  0
LINE
  8
0
 10
-314.451
 20
238.391
 11
-314.691
 21
238.328
  0
LINE
  8
0
 10
-314.691
 20
238.328
 11
-314.938
 21
238.301
  0
LINE
  8
0
 10
-314.938
 20
238.301
 11
-315.186
 21
238.31
  0
LINE
  8
0
 10
-240.523
 20
227.527
 11
-241.04
 21
227.609
  0
LINE
  8
0
 10
-241.04
 20
227.609
 11
-241.545
 21
227.745
  0
LINE
  8
0
 10
-241.545
 20
227.745
 11
-242.034
 21
227.932
  0
LINE
  8
0
 10
-242.034
 20
227.932
 11
-242.5
 21
228.17
  0
LINE
  8
0
 10
-242.5
 20
228.17
 11
-242.939
 21
228.455
  0
LINE
  8
0
 10
-242.939
 20
228.455
 11
-243.346
 21
228.784
  0
LINE
  8
0
 10
-243.346
 20
228.784
 11
-243.716
 21
229.154
  0
LINE
  8
0
 10
-243.716
 20
229.154
 11
-244.045
 21
229.561
  0
LINE
  8
0
 10
-244.045
 20
229.561
 11
-244.33
 21
230
  0
LINE
  8
0
 10
-244.33
 20
230
 11
-244.568
 21
230.466
  0
LINE
  8
0
 10
-244.568
 20
230.466
 11
-244.755
 21
230.955
  0
LINE
  8
0
 10
-244.755
 20
230.955
 11
-244.891
 21
231.46
  0
LINE
  8
0
 10
-244.891
 20
231.46
 11
-244.973
 21
231.977
  0
LINE
  8
0
 10
-244.973
 20
231.977
 11
-245
 21
232.5
  0
LINE
  8
0
 10
-245
 20
232.5
 11
-244.973
 21
233.023
  0
LINE
  8
0
 10
-244.973
 20
233.023
 11
-244.891
 21
233.54
  0
LINE
  8
0
 10
-244.891
 20
233.54
 11
-244.755
 21
234.045
  0
LINE
  8
0
 10
-244.755
 20
234.045
 11
-244.568
 21
234.534
  0
LINE
  8
0
 10
-244.568
 20
234.534
 11
-244.33
 21
235
  0
LINE
  8
0
 10
-244.33
 20
235
 11
-244.045
 21
235.439
  0
LINE
  8
0
 10
-244.045
 20
235.439
 11
-243.716
 21
235.846
  0
LINE
  8
0
 10
-243.716
 20
235.846
 11
-243.346
 21
236.216
  0
LINE
  8
0
 10
-243.346
 20
236.216
 11
-242.939
 21
236.545
  0
LINE
  8
0
 10
-242.939
 20
236.545
 11
-242.5
 21
236.83
  0
LINE
  8
0
 10
-242.5
 20
236.83
 11
-242.034
 21
237.068
  0
LINE
  8
0
 10
-242.034
 20
237.068
 11
-241.545
 21
237.255
  0
LINE
  8
0
 10
-241.545
 20
237.255
 11
-241.04
 21
237.391
  0
LINE
  8
0
 10
-241.04
 20
237.391
 11
-240.523
 21
237.473
  0
LINE
  8
0
 10
-240.523
 20
237.473
 11
-240
 21
237.5
  0
LINE
  8
0
 10
-240
 20
237.5
 11
-239.477
 21
237.473
  0
LINE
  8
0
 10
-239.477
 20
237.473
 11
-238.96
 21
237.391
  0
LINE
  8
0
 10
-238.96
 20
237.391
 11
-238.455
 21
237.255
  0
LINE
  8
0
 10
-238.455
 20
237.255
 11
-237.966
 21
237.068
  0
LINE
  8
0
 10
-237.966
 20
237.068
 11
-237.5
 21
236.83
  0
LINE
  8
0
 10
-237.5
 20
236.83
 11
-237.061
 21
236.545
  0
LINE
  8
0
 10
-237.061
 20
236.545
 11
-236.654
 21
236.216
  0
LINE
  8
0
 10
-236.654
 20
236.216
 11
-236.284
 21
235.846
  0
LINE
  8
0
 10
-236.284
 20
235.846
 11
-235.955
 21
235.439
  0
LINE
  8
0
 10
-235.955
 20
235.439
 11
-235.67
 21
235
  0
LINE
  8
0
 10
-235.67
 20
235
 11
-235.432
 21
234.534
  0
LINE
  8
0
 10
-235.432
 20
234.534
 11
-235.245
 21
234.045
  0
LINE
  8
0
 10
-235.245
 20
234.045
 11
-235.109
 21
233.54
  0
LINE
  8
0
 10
-235.109
 20
233.54
 11
-235.027
 21
233.023
  0
LINE
  8
0
 10
-235.027
 20
233.023
 11
-235
 21
232.5
  0
LINE
  8
0
 10
-235
 20
232.5
 11
-235.027
 21
231.977
  0
LINE
  8
0
 10
-235.027
 20
231.977
 11
-235.109
 21
231.46
  0
LINE
  8
0
 10
-235.109
 20
231.46
 11
-235.245
 21
230.955
  0
LINE
  8
0
 10
-235.245
 20
230.955
 11
-235.432
 21
230.466
  0
LINE
  8
0
 10
-235.432
 20
230.466
 11
-235.67
 21
230
  0
LINE
  8
0
 10
-235.67
 20
230
 11
-235.955
 21
229.561
  0
LINE
  8
0
 10
-235.955
 20
229.561
 11
-236.284
 21
229.154
  0
LINE
  8
0
 10
-236.284
 20
229.154
 11
-236.654
 21
228.784
  0
LINE
  8
0
 10
-236.654
 20
228.784
 11
-237.061
 21
228.455
  0
LINE
  8
0
 10
-237.061
 20
228.455
 11
-237.5
 21
228.17
  0
LINE
  8
0
 10
-237.5
 20
228.17
 11
-237.966
 21
227.932
  0
LINE
  8
0
 10
-237.966
 20
227.932
 11
-238.455
 21
227.745
  0
LINE
  8
0
 10
-238.455
 20
227.745
 11
-238.96
 21
227.609
  0
LINE
  8
0
 10
-238.96
 20
227.609
 11
-239.477
 21
227.527
  0
LINE
  8
0
 10
-239.477
 20
227.527
 11
-240
 21
227.5
  0
LINE
  8
0
 10
-240
 20
227.5
 11
-240.523
 21
227.527
  0
LINE
  8
0
 10
239.477
 20
227.527
 11
238.96
 21
227.609
  0
LINE
  8
0
 10
238.96
 20
227.609
 11
238.455
 21
227.745
  0
LINE
  8
0
 10
238.455
 20
227.745
 11
237.966
 21
227.932
  0
LINE
  8
0
 10
237.966
 20
227.932
 11
237.5
 21
228.17
  0
LINE
  8
0
 10
237.5
 20
228.17
 11
237.061
 21
228.455
  0
LINE
  8
0
 10
237.061
 20
228.455
 11
236.654
 21
228.784
  0
LINE
  8
0
 10
236.654
 20
228.784
 11
236.284
 21
229.154
  0
LINE
  8
0
 10
236.284
 20
229.154
 11
235.955
 21
229.561
  0
LINE
  8
0
 10
235.955
 20
229.561
 11
235.67
 21
230
  0
LINE
  8
0
 10
235.67
 20
230
 11
235.432
 21
230.466
  0
LINE
  8
0
 10
235.432
 20
230.466
 11
235.245
 21
230.955
  0
LINE
  8
0
 10
235.245
 20
230.955
 11
235.109
 21
231.46
  0
LINE
  8
0
 10
235.109
 20
231.46
 11
235.027
 21
231.977
  0
LINE
  8
0
 10
235.027
 20
231.977
 11
235
 21
232.5
  0
LINE
  8
0
 10
235
 20
232.5
 11
235.027
 21
233.023
  0
LINE
  8
0
 10
235.027
 20
233.023
 11
235.109
 21
233.54
  0
LINE
  8
0
 10
235.109
 20
233.54
 11
235.245
 21
234.045
  0
LINE
  8
0
 10
235.245
 20
234.045
 11
235.432
 21
234.534
  0
LINE
  8
0
 10
235.432
 20
234.534
 11
235.67
 21
235
  0
LINE
  8
0
 10
235.67
 20
235
 11
235.955
 21
235.439
  0
LINE
  8
0
 10
235.955
 20
235.439
 11
236.284
 21
235.846
  0
LINE
  8
0
 10
236.284
 20
235.846
 11
236.654
 21
236.216
  0
LINE
  8
0
 10
236.654
 20
236.216
 11
237.061
 21
236.545
  0
LINE
  8
0
 10
237.061
 20
236.545
 11
237.5
 21
236.83
  0
LINE
  8
0
 10
237.5
 20
236.83
 11
237.966
 21
237.068
  0
LINE
  8
0
 10
237.966
 20
237.068
 11
238.455
 21
237.255
  0
LINE
  8
0
 10
238.455
 20
237.255
 11
238.96
 21
237.391
  0
LINE
  8
0
 10
238.96
 20
237.391
 11
239.477
 21
237.473
  0
LINE
  8
0
 10
239.477
 20
237.473
 11
240
 21
237.5
  0
LINE
  8
0
 10
240
 20
237.5
 11
240.523
 21
237.473
  0
LINE
  8
0
 10
240.523
 20
237.473
 11
241.04
 21
237.391
  0
LINE
  8
0
 10
241.04
 20
237.391
 11
241.545
 21
237.255
  0
LINE
  8
0
 10
241.545
 20
237.255
 11
242.034
 21
237.068
  0
LINE
  8
0
 10
242.034
 20
237.068
 11
242.5
 21
236.83
  0
LINE
  8
0
 10
242.5
 20
236.83
 11
242.939
 21
236.545
  0
LINE
  8
0
 10
242.939
 20
236.545
 11
243.346
 21
236.216
  0
LINE
  8
0
 10
243.346
 20
236.216
 11
243.716
 21
235.846
  0
LINE
  8
0
 10
243.716
 20
235.846
 11
244.045
 21
235.439
  0
LINE
  8
0
 10
244.045
 20
235.439
 11
244.33
 21
235
  0
LINE
  8
0
 10
244.33
 20
235
 11
244.568
 21
234.534
  0
LINE
  8
0
 10
244.568
 20
234.534
 11
244.755
 21
234.045
  0
LINE
  8
0
 10
244.755
 20
234.045
 11
244.891
 21
233.54
  0
LINE
  8
0
 10
244.891
 20
233.54
 11
244.973
 21
233.023
  0
LINE
  8
0
 10
244.973
 20
233.023
 11
245
 21
232.5
  0
LINE
  8
0
 10
245
 20
232.5
 11
244.973
 21
231.977
  0
LINE
  8
0
 10
244.973
 20
231.977
 11
244.891
 21
231.46
  0
LINE
  8
0
 10
244.891
 20
231.46
 11
244.755
 21
230.955
  0
LINE
  8
0
 10
244.755
 20
230.955
 11
244.568
 21
230.466
  0
LINE
  8
0
 10
244.568
 20
230.466
 11
244.33
 21
230
  0
LINE
  8
0
 10
244.33
 20
230
 11
244.045
 21
229.561
  0
LINE
  8
0
 10
244.045
 20
229.561
 11
243.716
 21
229.154
  0
LINE
  8
0
 10
243.716
 20
229.154
 11
243.346
 21
228.784
  0
LINE
  8
0
 10
243.346
 20
228.784
 11
242.939
 21
228.455
  0
LINE
  8
0
 10
242.939
 20
228.455
 11
242.5
 21
228.17
  0
LINE
  8
0
 10
242.5
 20
228.17
 11
242.034
 21
227.932
  0
LINE
  8
0
 10
242.034
 20
227.932
 11
241.545
 21
227.745
  0
LINE
  8
0
 10
241.545
 20
227.745
 11
241.04
 21
227.609
  0
LINE
  8
0
 10
241.04
 20
227.609
 11
240.523
 21
227.527
  0
LINE
  8
0
 10
240.523
 20
227.527
 11
240
 21
227.5
  0
LINE
  8
0
 10
240
 20
227.5
 11
239.477
 21
227.527
  0
LINE
  8
0
 10
-190
 20
230.75
 11
-190.249
 21
230.768
  0
LINE
  8
0
 10
-190.249
 20
230.768
 11
-190.493
 21
230.821
  0
LINE
  8
0
 10
-190.493
 20
230.821
 11
-190.727
 21
230.908
  0
LINE
  8
0
 10
-190.727
 20
230.908
 11
-190.946
 21
231.028
  0
LINE
  8
0
 10
-190.946
 20
231.028
 11
-191.146
 21
231.177
  0
LINE
  8
0
 10
-191.146
 20
231.177
 11
-191.323
 21
231.354
  0
LINE
  8
0
 10
-191.323
 20
231.354
 11
-191.472
 21
231.554
  0
LINE
  8
0
 10
-191.472
 20
231.554
 11
-191.592
 21
231.773
  0
LINE
  8
0
 10
-191.592
 20
231.773
 11
-191.679
 21
232.007
  0
LINE
  8
0
 10
-191.679
 20
232.007
 11
-191.732
 21
232.251
  0
LINE
  8
0
 10
-191.732
 20
232.251
 11
-191.75
 21
232.5
  0
LINE
  8
0
 10
-191.75
 20
232.5
 11
-191.732
 21
232.749
  0
LINE
  8
0
 10
-191.732
 20
232.749
 11
-191.679
 21
232.993
  0
LINE
  8
0
 10
-191.679
 20
232.993
 11
-191.592
 21
233.227
  0
LINE
  8
0
 10
-191.592
 20
233.227
 11
-191.472
 21
233.446
  0
LINE
  8
0
 10
-191.472
 20
233.446
 11
-191.323
 21
233.646
  0
LINE
  8
0
 10
-191.323
 20
233.646
 11
-191.146
 21
233.823
  0
LINE
  8
0
 10
-191.146
 20
233.823
 11
-190.946
 21
233.972
  0
LINE
  8
0
 10
-190.946
 20
233.972
 11
-190.727
 21
234.092
  0
LINE
  8
0
 10
-190.727
 20
234.092
 11
-190.493
 21
234.179
  0
LINE
  8
0
 10
-190.493
 20
234.179
 11
-190.249
 21
234.232
  0
LINE
  8
0
 10
-190.249
 20
234.232
 11
-190
 21
234.25
  0
LINE
  8
0
 10
-190
 20
234.25
 11
-71.6667
 21
234.25
  0
LINE
  8
0
 10
-71.6667
 20
234.25
 11
-71.4176
 21
234.232
  0
LINE
  8
0
 10
-71.4176
 20
234.232
 11
-71.1736
 21
234.179
  0
LINE
  8
0
 10
-71.1736
 20
234.179
 11
-70.9397
 21
234.092
  0
LINE
  8
0
 10
-70.9397
 20
234.092
 11
-70.7205
 21
233.972
  0
LINE
  8
0
 10
-70.7205
 20
233.972
 11
-70.5207
 21
233.823
  0
LINE
  8
0
 10
-70.5207
 20
233.823
 11
-70.3441
 21
233.646
  0
LINE
  8
0
 10
-70.3441
 20
233.646
 11
-70.1945
 21
233.446
  0
LINE
  8
0
 10
-70.1945
 20
233.446
 11
-70.0748
 21
233.227
  0
LINE
  8
0
 10
-70.0748
 20
233.227
 11
-69.9875
 21
232.993
  0
LINE
  8
0
 10
-69.9875
 20
232.993
 11
-69.9345
 21
232.749
  0
LINE
  8
0
 10
-69.9345
 20
232.749
 11
-69.9167
 21
232.5
  0
LINE
  8
0
 10
-69.9167
 20
232.5
 11
-69.9345
 21
232.251
  0
LINE
  8
0
 10
-69.9345
 20
232.251
 11
-69.9875
 21
232.007
  0
LINE
  8
0
 10
-69.9875
 20
232.007
 11
-70.0748
 21
231.773
  0
LINE
  8
0
 10
-70.0748
 20
231.773
 11
-70.1945
 21
231.554
  0
LINE
  8
0
 10
-70.1945
 20
231.554
 11
-70.3441
 21
231.354
  0
LINE
  8
0
 10
-70.3441
 20
231.354
 11
-70.5207
 21
231.177
  0
LINE
  8
0
 10
-70.5207
 20
231.177
 11
-70.7205
 21
231.028
  0
LINE
  8
0
 10
-70.7205
 20
231.028
 11
-70.9397
 21
230.908
  0
LINE
  8
0
 10
-70.9397
 20
230.908
 11
-71.1736
 21
230.821
  0
LINE
  8
0
 10
-71.1736
 20
230.821
 11
-71.4176
 21
230.768
  0
LINE
  8
0
 10
-71.4176
 20
230.768
 11
-71.6667
 21
230.75
  0
LINE
  8
0
 10
-71.6667
 20
230.75
 11
-190
 21
230.75
  0
LINE
  8
0
 10
-56.6667
 20
230.75
 11
-56.9157
 21
230.768
  0
LINE
  8
0
 10
-56.9157
 20
230.768
 11
-57.1597
 21
230.821
  0
LINE
  8
0
 10
-57.1597
 20
230.821
 11
-57.3936
 21
230.908
  0
LINE
  8
0
 10
-57.3936
 20
230.908
 11
-57.6128
 21
231.028
  0
LINE
  8
0
 10
-57.6128
 20
231.028
 11
-57.8127
 21
231.177
  0
LINE
  8
0
 10
-57.8127
 20
231.177
 11
-57.9892
 21
231.354
  0
LINE
  8
0
 10
-57.9892
 20
231.354
 11
-58.1389
 21
231.554
  0
LINE
  8
0
 10
-58.1389
 20
231.554
 11
-58.2585
 21
231.773
  0
LINE
  8
0
 10
-58.2585
 20
231.773
 11
-58.3458
 21
232.007
  0
LINE
  8
0
 10
-58.3458
 20
232.007
 11
-58.3988
 21
232.251
  0
LINE
  8
0
 10
-58.3988
 20
232.251
 11
-58.4167
 21
232.5
  0
LINE
  8
0
 10
-58.4167
 20
232.5
 11
-58.3988
 21
232.749
  0
LINE
  8
0
 10
-58.3988
 20
232.749
 11
-58.3458
 21
232.993
  0
LINE
  8
0
 10
-58.3458
 20
232.993
 11
-58.2585
 21
233.227
  0
LINE
  8
0
 10
-58.2585
 20
233.227
 11
-58.1389
 21
233.446
  0
LINE
  8
0
 10
-58.1389
 20
233.446
 11
-57.9892
 21
233.646
  0
LINE
  8
0
 10
-57.9892
 20
233.646
 11
-57.8127
 21
233.823
  0
LINE
  8
0
 10
-57.8127
 20
233.823
 11
-57.6128
 21
233.972
  0
LINE
  8
0
 10
-57.6128
 20
233.972
 11
-57.3936
 21
234.092
  0
LINE
  8
0
 10
-57.3936
 20
234.092
 11
-57.1597
 21
234.179
  0
LINE
  8
0
 10
-57.1597
 20
234.179
 11
-56.9157
 21
234.232
  0
LINE
  8
0
 10
-56.9157
 20
234.232
 11
-56.6667
 21
234.25
  0
LINE
  8
0
 10
-56.6667
 20
234.25
 11
61.6667
 21
234.25
  0
LINE
  8
0
 10
61.6667
 20
234.25
 11
61.9157
 21
234.232
  0
LINE
  8
0
 10
61.9157
 20
234.232
 11
62.1597
 21
234.179
  0
LINE
  8
0
 10
62.1597
 20
234.179
 11
62.3936
 21
234.092
  0
LINE
  8
0
 10
62.3936
 20
234.092
 11
62.6128
 21
233.972
  0
LINE
  8
0
 10
62.6128
 20
233.972
 11
62.8127
 21
233.823
  0
LINE
  8
0
 10
62.8127
 20
233.823
 11
62.9892
 21
233.646
  0
LINE
  8
0
 10
62.9892
 20
233.646
 11
63.1389
 21
233.446
  0
LINE
  8
0
 10
63.1389
 20
233.446
 11
63.2585
 21
233.227
  0
LINE
  8
0
 10
63.2585
 20
233.227
 11
63.3458
 21
232.993
  0
LINE
  8
0
 10
63.3458
 20
232.993
 11
63.3988
 21
232.749
  0
LINE
  8
0
 10
63.3988
 20
232.749
 11
63.4167
 21
232.5
  0
LINE
  8
0
 10
63.4167
 20
232.5
 11
63.3988
 21
232.251
  0
LINE
  8
0
 10
63.3988
 20
232.251
 11
63.3458
 21
232.007
  0
LINE
  8
0
 10
63.3458
 20
232.007
 11
63.2585
 21
231.773
  0
LINE
  8
0
 10
63.2585
 20
231.773
 11
63.1389
 21
231.554
  0
LINE
  8
0
 10
63.1389
 20
231.554
 11
62.9892
 21
231.354
  0
LINE
  8
0
 10
62.9892
 20
231.354
 11
62.8127
 21
231.177
  0
LINE
  8
0
 10
62.8127
 20
231.177
 11
62.6128
 21
231.028
  0
LINE
  8
0
 10
62.6128
 20
231.028
 11
62.3936
 21
230.908
  0
LINE
  8
0
 10
62.3936
 20
230.908
 11
62.1597
 21
230.821
  0
LINE
  8
0
 10
62.1597
 20
230.821
 11
61.9157
 21
230.768
  0
LINE
  8
0
 10
61.9157
 20
230.768
 11
61.6667
 21
230.75
  0
LINE
  8
0
 10
61.6667
 20
230.75
 11
-56.6667
 21
230.75
  0
LINE
  8
0
 10
76.6667
 20
230.75
 11
76.4176
 21
230.768
  0
LINE
  8
0
 10
76.4176
 20
230.768
 11
76.1736
 21
230.821
  0
LINE
  8
0
 10
76.1736
 20
230.821
 11
75.9397
 21
230.908
  0
LINE
  8
0
 10
75.9397
 20
230.908
 11
75.7205
 21
231.028
  0
LINE
  8
0
 10
75.7205
 20
231.028
 11
75.5207
 21
231.177
  0
LINE
  8
0
 10
75.5207
 20
231.177
 11
75.3441
 21
231.354
  0
LINE
  8
0
 10
75.3441
 20
231.354
 11
75.1945
 21
231.554
  0
LINE
  8
0
 10
75.1945
 20
231.554
 11
75.0748
 21
231.773
  0
LINE
  8
0
 10
75.0748
 20
231.773
 11
74.9875
 21
232.007
  0
LINE
  8
0
 10
74.9875
 20
232.007
 11
74.9345
 21
232.251
  0
LINE
  8
0
 10
74.9345
 20
232.251
 11
74.9167
 21
232.5
  0
LINE
  8
0
 10
74.9167
 20
232.5
 11
74.9345
 21
232.749
  0
LINE
  8
0
 10
74.9345
 20
232.749
 11
74.9875
 21
232.993
  0
LINE
  8
0
 10
74.9875
 20
232.993
 11
75.0748
 21
233.227
  0
LINE
  8
0
 10
75.0748
 20
233.227
 11
75.1945
 21
233.446
  0
LINE
  8
0
 10
75.1945
 20
233.446
 11
75.3441
 21
233.646
  0
LINE
  8
0
 10
75.3441
 20
233.646
 11
75.5207
 21
233.823
  0
LINE
  8
0
 10
75.5207
 20
233.823
 11
75.7205
 21
233.972
  0
LINE
  8
0
 10
75.7205
 20
233.972
 11
75.9397
 21
234.092
  0
LINE
  8
0
 10
75.9397
 20
234.092
 11
76.1736
 21
234.179
  0
LINE
  8
0
 10
76.1736
 20
234.179
 11
76.4176
 21
234.232
  0
LINE
  8
0
 10
76.4176
 20
234.232
 11
76.6667
 21
234.25
  0
LINE
  8
0
 10
76.6667
 20
234.25
 11
195
 21
234.25
  0
LINE
  8
0
 10
195
 20
234.25
 11
195.249
 21
234.232
  0
LINE
  8
0
 10
195.249
 20
234.232
 11
195.493
 21
234.179
  0
LINE
  8
0
 10
195.493
 20
234.179
 11
195.727
 21
234.092
  0
LINE
  8
0
 10
195.727
 20
234.092
 11
195.946
 21
233.972
  0
LINE
  8
0
 10
195.946
 20
233.972
 11
196.146
 21
233.823
  0
LINE
  8
0
 10
196.146
 20
233.823
 11
196.323
 21
233.646
  0
LINE
  8
0
 10
196.323
 20
233.646
 11
196.472
 21
233.446
  0
LINE
  8
0
 10
196.472
 20
233.446
 11
196.592
 21
233.227
  0
LINE
  8
0
 10
196.592
 20
233.227
 11
196.679
 21
232.993
  0
LINE
  8
0
 10
196.679
 20
232.993
 11
196.732
 21
232.749
  0
LINE
  8
0
 10
196.732
 20
232.749
 11
196.75
 21
232.5
  0
LINE
  8
0
 10
196.75
 20
232.5
 11
196.732
 21
232.251
  0
LINE
  8
0
 10
196.732
 20
232.251
 11
196.679
 21
232.007
  0
LINE
  8
0
 10
196.679
 20
232.007
 11
196.592
 21
231.773
  0
LINE
  8
0
 10
196.592
 20
231.773
 11
196.472
 21
231.554
  0
LINE
  8
0
 10
196.472
 20
231.554
 11
196.323
 21
231.354
  0
LINE
  8
0
 10
196.323
 20
231.354
 11
196.146
 21
231.177
  0
LINE
  8
0
 10
196.146
 20
231.177
 11
195.946
 21
231.028
  0
LINE
  8
0
 10
195.946
 20
231.028
 11
195.727
 21
230.908
  0
LINE
  8
0
 10
195.727
 20
230.908
 11
195.493
 21
230.821
  0
LINE
  8
0
 10
195.493
 20
230.821
 11
195.249
 21
230.768
  0
LINE
  8
0
 10
195.249
 20
230.768
 11
195
 21
230.75
  0
LINE
  8
0
 10
195
 20
230.75
 11
76.6667
 21
230.75
  0
LINE
  8
0
 10
-210.186
 20
230.81
 11
-210.43
 21
230.855
  0
LINE
  8
0
 10
-210.43
 20
230.855
 11
-210.665
 21
230.935
  0
LINE
  8
0
 10
-210.665
 20
230.935
 11
-210.886
 21
231.049
  0
LINE
  8
0
 10
-210.886
 20
231.049
 11
-211.087
 21
231.193
  0
LINE
  8
0
 10
-211.087
 20
231.193
 11
-211.266
 21
231.366
  0
LINE
  8
0
 10
-211.266
 20
231.366
 11
-211.418
 21
231.562
  0
LINE
  8
0
 10
-211.418
 20
231.562
 11
-211.539
 21
231.778
  0
LINE
  8
0
 10
-211.539
 20
231.778
 11
-211.628
 21
232.01
  0
LINE
  8
0
 10
-211.628
 20
232.01
 11
-211.682
 21
232.252
  0
LINE
  8
0
 10
-211.682
 20
232.252
 11
-211.7
 21
232.5
  0
LINE
  8
0
 10
-211.7
 20
232.5
 11
-211.682
 21
232.748
  0
LINE
  8
0
 10
-211.682
 20
232.748
 11
-211.628
 21
232.99
  0
LINE
  8
0
 10
-211.628
 20
232.99
 11
-211.539
 21
233.222
  0
LINE
  8
0
 10
-211.539
 20
233.222
 11
-211.418
 21
233.438
  0
LINE
  8
0
 10
-211.418
 20
233.438
 11
-211.266
 21
233.634
  0
LINE
  8
0
 10
-211.266
 20
233.634
 11
-211.087
 21
233.807
  0
LINE
  8
0
 10
-211.087
 20
233.807
 11
-210.886
 21
233.951
  0
LINE
  8
0
 10
-210.886
 20
233.951
 11
-210.665
 21
234.065
  0
LINE
  8
0
 10
-210.665
 20
234.065
 11
-210.43
 21
234.145
  0
LINE
  8
0
 10
-210.43
 20
234.145
 11
-210.186
 21
234.19
  0
LINE
  8
0
 10
-210.186
 20
234.19
 11
-209.938
 21
234.199
  0
LINE
  8
0
 10
-209.938
 20
234.199
 11
-209.691
 21
234.172
  0
LINE
  8
0
 10
-209.691
 20
234.172
 11
-209.451
 21
234.109
  0
LINE
  8
0
 10
-209.451
 20
234.109
 11
-209.223
 21
234.012
  0
LINE
  8
0
 10
-209.223
 20
234.012
 11
-209.011
 21
233.883
  0
LINE
  8
0
 10
-209.011
 20
233.883
 11
-208.82
 21
233.724
  0
LINE
  8
0
 10
-208.82
 20
233.724
 11
-208.654
 21
233.539
  0
LINE
  8
0
 10
-208.654
 20
233.539
 11
-208.518
 21
233.332
  0
LINE
  8
0
 10
-208.518
 20
233.332
 11
-208.412
 21
233.107
  0
LINE
  8
0
 10
-208.412
 20
233.107
 11
-208.341
 21
232.87
  0
LINE
  8
0
 10
-208.341
 20
232.87
 11
-208.305
 21
232.624
  0
LINE
  8
0
 10
-208.305
 20
232.624
 11
-208.305
 21
232.376
  0
LINE
  8
0
 10
-208.305
 20
232.376
 11
-208.341
 21
232.13
  0
LINE
  8
0
 10
-208.341
 20
232.13
 11
-208.412
 21
231.893
  0
LINE
  8
0
 10
-208.412
 20
231.893
 11
-208.518
 21
231.668
  0
LINE
  8
0
 10
-208.518
 20
231.668
 11
-208.654
 21
231.461
  0
LINE
  8
0
 10
-208.654
 20
231.461
 11
-208.82
 21
231.276
  0
LINE
  8
0
 10
-208.82
 20
231.276
 11
-209.011
 21
231.117
  0
LINE
  8
0
 10
-209.011
 20
231.117
 11
-209.223
 21
230.988
  0
LINE
  8
0
 10
-209.223
 20
230.988
 11
-209.451
 21
230.891
  0
LINE
  8
0
 10
-209.451
 20
230.891
 11
-209.691
 21
230.828
  0
LINE
  8
0
 10
-209.691
 20
230.828
 11
-209.938
 21
230.801
  0
LINE
  8
0
 10
-209.938
 20
230.801
 11
-210.186
 21
230.81
  0
LINE
  8
0
 10
209.691
 20
230.828
 11
209.451
 21
230.891
  0
LINE
  8
0
 10
209.451
 20
230.891
 11
209.223
 21
230.988
  0
LINE
  8
0
 10
209.223
 20
230.988
 11
209.011
 21
231.117
  0
LINE
  8
0
 10
209.011
 20
231.117
 11
208.82
 21
231.276
  0
LINE
  8
0
 10
208.82
 20
231.276
 11
208.654
 21
231.461
  0
LINE
  8
0
 10
208.654
 20
231.461
 11
208.518
 21
231.668
  0
LINE
  8
0
 10
208.518
 20
231.668
 11
208.412
 21
231.893
  0
LINE
  8
0
 10
208.412
 20
231.893
 11
208.341
 21
232.13
  0
LINE
  8
0
 10
208.341
 20
232.13
 11
208.305
 21
232.376
  0
LINE
  8
0
 10
208.305
 20
232.376
 11
208.305
 21
232.624
  0
LINE
  8
0
 10
208.305
 20
232.624
 11
208.341
 21
232.87
  0
LINE
  8
0
 10
208.341
 20
232.87
 11
208.412
 21
233.107
  0
LINE
  8
0
 10
208.412
 20
233.107
 11
208.518
 21
233.332
  0
LINE
  8
0
 10
208.518
 20
233.332
 11
208.654
 21
233.539
  0
LINE
  8
0
 10
208.654
 20
233.539
 11
208.82
 21
233.724
  0
LINE
  8
0
 10
208.82
 20
233.724
 11
209.011
 21
233.883
  0
LINE
  8
0
 10
209.011
 20
233.883
 11
209.223
 21
234.012
  0
LINE
  8
0
 10
209.223
 20
234.012
 11
209.451
 21
234.109
  0
LINE
  8
0
 10
209.451
 20
234.109
 11
209.691
 21
234.172
  0
LINE
  8
0
 10
209.691
 20
234.172
 11
209.938
 21
234.199
  0
LINE
  8
0
 10
209.938
 20
234.199
 11
210.186
 21
234.19
  0
LINE
  8
0
 10
210.186
 20
234.19
 11
210.43
 21
234.145
  0
LINE
  8
0
 10
210.43
 20
234.145
 11
210.665
 21
234.065
  0
LINE
  8
0
 10
210.665
 20
234.065
 11
210.886
 21
233.951
  0
LINE
  8
0
 10
210.886
 20
233.951
 11
211.087
 21
233.807
  0
LINE
  8
0
 10
211.087
 20
233.807
 11
211.266
 21
233.634
  0
LINE
  8
0
 10
211.266
 20
233.634
 11
211.418
 21
233.438
  0
LINE
  8
0
 10
211.418
 20
233.438
 11
211.539
 21
233.222
  0
LINE
  8
0
 10
211.539
 20
233.222
 11
211.628
 21
232.99
  0
LINE
  8
0
 10
211.628
 20
232.99
 11
211.682
 21
232.748
  0
LINE
  8
0
 10
211.682
 20
232.748
 11
211.7
 21
232.5
  0
LINE
  8
0
 10
211.7
 20
232.5
 11
211.682
 21
232.252
  0
LINE
  8
0
 10
211.682
 20
232.252
 11
211.628
 21
232.01
  0
LINE
  8
0
 10
211.628
 20
232.01
 11
211.539
 21
231.778
  0
LINE
  8
0
 10
211.539
 20
231.778
 11
211.418
 21
231.562
  0
LINE
  8
0
 10
211.418
 20
231.562
 11
211.266
 21
231.366
  0
LINE
  8
0
 10
211.266
 20
231.366
 11
211.087
 21
231.193
  0
LINE
  8
0
 10
211.087
 20
231.193
 11
210.886
 21
231.049
  0
LINE
  8
0
 10
210.886
 20
231.049
 11
210.665
 21
230.935
  0
LINE
  8
0
 10
210.665
 20
230.935
 11
210.43
 21
230.855
  0
LINE
  8
0
 10
210.43
 20
230.855
 11
210.186
 21
230.81
  0
LINE
  8
0
 10
210.186
 20
230.81
 11
209.938
 21
230.801
  0
LINE
  8
0
 10
209.938
 20
230.801
 11
209.691
 21
230.828
  0
LINE
  8
0
 10
268.027
 20
229.355
 11
267.783
 21
229.391
  0
LINE
  8
0
 10
267.783
 20
229.391
 11
267.547
 21
229.464
  0
LINE
  8
0
 10
267.547
 20
229.464
 11
267.325
 21
229.571
  0
LINE
  8
0
 10
267.325
 20
229.571
 11
267.121
 21
229.71
  0
LINE
  8
0
 10
267.121
 20
229.71
 11
266.94
 21
229.878
  0
LINE
  8
0
 10
266.94
 20
229.878
 11
266.787
 21
230.071
  0
LINE
  8
0
 10
266.787
 20
230.071
 11
266.663
 21
230.284
  0
LINE
  8
0
 10
266.663
 20
230.284
 11
266.573
 21
230.514
  0
LINE
  8
0
 10
266.573
 20
230.514
 11
266.518
 21
230.754
  0
LINE
  8
0
 10
266.518
 20
230.754
 11
266.5
 21
231
  0
LINE
  8
0
 10
266.5
 20
231
 11
266.518
 21
231.246
  0
LINE
  8
0
 10
266.518
 20
231.246
 11
266.573
 21
231.486
  0
LINE
  8
0
 10
266.573
 20
231.486
 11
266.663
 21
231.716
  0
LINE
  8
0
 10
266.663
 20
231.716
 11
266.787
 21
231.929
  0
LINE
  8
0
 10
266.787
 20
231.929
 11
266.94
 21
232.122
  0
LINE
  8
0
 10
266.94
 20
232.122
 11
267.121
 21
232.29
  0
LINE
  8
0
 10
267.121
 20
232.29
 11
267.325
 21
232.429
  0
LINE
  8
0
 10
267.325
 20
232.429
 11
267.547
 21
232.536
  0
LINE
  8
0
 10
267.547
 20
232.536
 11
267.783
 21
232.609
  0
LINE
  8
0
 10
267.783
 20
232.609
 11
268.027
 21
232.645
  0
LINE
  8
0
 10
268.027
 20
232.645
 11
276.273
 21
232.645
  0
LINE
  8
0
 10
276.273
 20
232.645
 11
276.517
 21
232.609
  0
LINE
  8
0
 10
276.517
 20
232.609
 11
276.753
 21
232.536
  0
LINE
  8
0
 10
276.753
 20
232.536
 11
276.975
 21
232.429
  0
LINE
  8
0
 10
276.975
 20
232.429
 11
277.179
 21
232.29
  0
LINE
  8
0
 10
277.179
 20
232.29
 11
277.36
 21
232.122
  0
LINE
  8
0
 10
277.36
 20
232.122
 11
277.513
 21
231.929
  0
LINE
  8
0
 10
277.513
 20
231.929
 11
277.637
 21
231.716
  0
LINE
  8
0
 10
277.637
 20
231.716
 11
277.727
 21
231.486
  0
LINE
  8
0
 10
277.727
 20
231.486
 11
277.782
 21
231.246
  0
LINE
  8
0
 10
277.782
 20
231.246
 11
277.8
 21
231
  0
LINE
  8
0
 10
277.8
 20
231
 11
277.782
 21
230.754
  0
LINE
  8
0
 10
277.782
 20
230.754
 11
277.727
 21
230.514
  0
LINE
  8
0
 10
277.727
 20
230.514
 11
277.637
 21
230.284
  0
LINE
  8
0
 10
277.637
 20
230.284
 11
277.513
 21
230.071
  0
LINE
  8
0
 10
277.513
 20
230.071
 11
277.36
 21
229.878
  0
LINE
  8
0
 10
277.36
 20
229.878
 11
277.179
 21
229.71
  0
LINE
  8
0
 10
277.179
 20
229.71
 11
276.975
 21
229.571
  0
LINE
  8
0
 10
276.975
 20
229.571
 11
276.753
 21
229.464
  0
LINE
  8
0
 10
276.753
 20
229.464
 11
276.517
 21
229.391
  0
LINE
  8
0
 10
276.517
 20
229.391
 11
276.273
 21
229.355
  0
LINE
  8
0
 10
276.273
 20
229.355
 11
268.027
 21
229.355
  0
LINE
  8
0
 10
299.027
 20
229.355
 11
298.783
 21
229.391
  0
LINE
  8
0
 10
298.783
 20
229.391
 11
298.547
 21
229.464
  0
LINE
  8
0
 10
298.547
 20
229.464
 11
298.325
 21
229.571
  0
LINE
  8
0
 10
298.325
 20
229.571
 11
298.121
 21
229.71
  0
LINE
  8
0
 10
298.121
 20
229.71
 11
297.94
 21
229.878
  0
LINE
  8
0
 10
297.94
 20
229.878
 11
297.787
 21
230.071
  0
LINE
  8
0
 10
297.787
 20
230.071
 11
297.663
 21
230.284
  0
LINE
  8
0
 10
297.663
 20
230.284
 11
297.573
 21
230.514
  0
LINE
  8
0
 10
297.573
 20
230.514
 11
297.518
 21
230.754
  0
LINE
  8
0
 10
297.518
 20
230.754
 11
297.5
 21
231
  0
LINE
  8
0
 10
297.5
 20
231
 11
297.518
 21
231.246
  0
LINE
  8
0
 10
297.518
 20
231.246
 11
297.573
 21
231.486
  0
LINE
  8
0
 10
297.573
 20
231.486
 11
297.663
 21
231.716
  0
LINE
  8
0
 10
297.663
 20
231.716
 11
297.787
 21
231.929
  0
LINE
  8
0
 10
297.787
 20
231.929
 11
297.94
 21
232.122
  0
LINE
  8
0
 10
297.94
 20
232.122
 11
298.121
 21
232.29
  0
LINE
  8
0
 10
298.121
 20
232.29
 11
298.325
 21
232.429
  0
LINE
  8
0
 10
298.325
 20
232.429
 11
298.547
 21
232.536
  0
LINE
  8
0
 10
298.547
 20
232.536
 11
298.783
 21
232.609
  0
LINE
  8
0
 10
298.783
 20
232.609
 11
299.027
 21
232.645
  0
LINE
  8
0
 10
299.027
 20
232.645
 11
307.273
 21
232.645
  0
LINE
  8
0
 10
307.273
 20
232.645
 11
307.517
 21
232.609
  0
LINE
  8
0
 10
307.517
 20
232.609
 11
307.753
 21
232.536
  0
LINE
  8
0
 10
307.753
 20
232.536
 11
307.975
 21
232.429
  0
LINE
  8
0
 10
307.975
 20
232.429
 11
308.179
 21
232.29
  0
LINE
  8
0
 10
308.179
 20
232.29
 11
308.36
 21
232.122
  0
LINE
  8
0
 10
308.36
 20
232.122
 11
308.513
 21
231.929
  0
LINE
  8
0
 10
308.513
 20
231.929
 11
308.637
 21
231.716
  0
LINE
  8
0
 10
308.637
 20
231.716
 11
308.727
 21
231.486
  0
LINE
  8
0
 10
308.727
 20
231.486
 11
308.782
 21
231.246
  0
LINE
  8
0
 10
308.782
 20
231.246
 11
308.8
 21
231
  0
LINE
  8
0
 10
308.8
 20
231
 11
308.782
 21
230.754
  0
LINE
  8
0
 10
308.782
 20
230.754
 11
308.727
 21
230.514
  0
LINE
  8
0
 10
308.727
 20
230.514
 11
308.637
 21
230.284
  0
LINE
  8
0
 10
308.637
 20
230.284
 11
308.513
 21
230.071
  0
LINE
  8
0
 10
308.513
 20
230.071
 11
308.36
 21
229.878
  0
LINE
  8
0
 10
308.36
 20
229.878
 11
308.179
 21
229.71
  0
LINE
  8
0
 10
308.179
 20
229.71
 11
307.975
 21
229.571
  0
LINE
  8
0
 10
307.975
 20
229.571
 11
307.753
 21
229.464
  0
LINE
  8
0
 10
307.753
 20
229.464
 11
307.517
 21
229.391
  0
LINE
  8
0
 10
307.517
 20
229.391
 11
307.273
 21
229.355
  0
LINE
  8
0
 10
307.273
 20
229.355
 11
299.027
 21
229.355
  0
LINE
  8
0
 10
283.15
 20
203
 11
281.843
 21
203.068
  0
LINE
  8
0
 10
281.843
 20
203.068
 11
280.551
 21
203.273
  0
LINE
  8
0
 10
280.551
 20
203.273
 11
279.287
 21
203.612
  0
LINE
  8
0
 10
279.287
 20
203.612
 11
278.066
 21
204.081
  0
LINE
  8
0
 10
278.066
 20
204.081
 11
276.9
 21
204.675
  0
LINE
  8
0
 10
276.9
 20
204.675
 11
275.803
 21
205.387
  0
LINE
  8
0
 10
275.803
 20
205.387
 11
274.786
 21
206.211
  0
LINE
  8
0
 10
274.786
 20
206.211
 11
273.861
 21
207.136
  0
LINE
  8
0
 10
273.861
 20
207.136
 11
273.037
 21
208.153
  0
LINE
  8
0
 10
273.037
 20
208.153
 11
272.325
 21
209.25
  0
LINE
  8
0
 10
272.325
 20
209.25
 11
271.731
 21
210.416
  0
LINE
  8
0
 10
271.731
 20
210.416
 11
271.262
 21
211.637
  0
LINE
  8
0
 10
271.262
 20
211.637
 11
270.923
 21
212.901
  0
LINE
  8
0
 10
270.923
 20
212.901
 11
270.718
 21
214.193
  0
LINE
  8
0
 10
270.718
 20
214.193
 11
270.65
 21
215.5
  0
LINE
  8
0
 10
270.65
 20
215.5
 11
270.718
 21
216.807
  0
LINE
  8
0
 10
270.718
 20
216.807
 11
270.923
 21
218.099
  0
LINE
  8
0
 10
270.923
 20
218.099
 11
271.262
 21
219.363
  0
LINE
  8
0
 10
271.262
 20
219.363
 11
271.731
 21
220.584
  0
LINE
  8
0
 10
271.731
 20
220.584
 11
272.325
 21
221.75
  0
LINE
  8
0
 10
272.325
 20
221.75
 11
273.037
 21
222.847
  0
LINE
  8
0
 10
273.037
 20
222.847
 11
273.861
 21
223.864
  0
LINE
  8
0
 10
273.861
 20
223.864
 11
274.786
 21
224.789
  0
LINE
  8
0
 10
274.786
 20
224.789
 11
275.803
 21
225.613
  0
LINE
  8
0
 10
275.803
 20
225.613
 11
276.9
 21
226.325
  0
LINE
  8
0
 10
276.9
 20
226.325
 11
278.066
 21
226.919
  0
LINE
  8
0
 10
278.066
 20
226.919
 11
279.287
 21
227.388
  0
LINE
  8
0
 10
279.287
 20
227.388
 11
280.551
 21
227.727
  0
LINE
  8
0
 10
280.551
 20
227.727
 11
281.843
 21
227.932
  0
LINE
  8
0
 10
281.843
 20
227.932
 11
283.15
 21
228
  0
LINE
  8
0
 10
283.15
 20
228
 11
291.15
 21
228
  0
LINE
  8
0
 10
291.15
 20
228
 11
292.457
 21
227.932
  0
LINE
  8
0
 10
292.457
 20
227.932
 11
293.749
 21
227.727
  0
LINE
  8
0
 10
293.749
 20
227.727
 11
295.013
 21
227.388
  0
LINE
  8
0
 10
295.013
 20
227.388
 11
296.234
 21
226.919
  0
LINE
  8
0
 10
296.234
 20
226.919
 11
297.4
 21
226.325
  0
LINE
  8
0
 10
297.4
 20
226.325
 11
298.497
 21
225.613
  0
LINE
  8
0
 10
298.497
 20
225.613
 11
299.514
 21
224.789
  0
LINE
  8
0
 10
299.514
 20
224.789
 11
300.439
 21
223.864
  0
LINE
  8
0
 10
300.439
 20
223.864
 11
301.263
 21
222.847
  0
LINE
  8
0
 10
301.263
 20
222.847
 11
301.975
 21
221.75
  0
LINE
  8
0
 10
301.975
 20
221.75
 11
302.569
 21
220.584
  0
LINE
  8
0
 10
302.569
 20
220.584
 11
303.038
 21
219.363
  0
LINE
  8
0
 10
303.038
 20
219.363
 11
303.377
 21
218.099
  0
LINE
  8
0
 10
303.377
 20
218.099
 11
303.582
 21
216.807
  0
LINE
  8
0
 10
303.582
 20
216.807
 11
303.65
 21
215.5
  0
LINE
  8
0
 10
303.65
 20
215.5
 11
303.582
 21
214.193
  0
LINE
  8
0
 10
303.582
 20
214.193
 11
303.377
 21
212.901
  0
LINE
  8
0
 10
303.377
 20
212.901
 11
303.038
 21
211.637
  0
LINE
  8
0
 10
303.038
 20
211.637
 11
302.569
 21
210.416
  0
LINE
  8
0
 10
302.569
 20
210.416
 11
301.975
 21
209.25
  0
LINE
  8
0
 10
301.975
 20
209.25
 11
301.263
 21
208.153
  0
LINE
  8
0
 10
301.263
 20
208.153
 11
300.439
 21
207.136
  0
LINE
  8
0
 10
300.439
 20
207.136
 11
299.514
 21
206.211
  0
LINE
  8
0
 10
299.514
 20
206.211
 11
298.497
 21
205.387
  0
LINE
  8
0
 10
298.497
 20
205.387
 11
297.4
 21
204.675
  0
LINE
  8
0
 10
297.4
 20
204.675
 11
296.234
 21
204.081
  0
LINE
  8
0
 10
296.234
 20
204.081
 11
295.013
 21
203.612
  0
LINE
  8
0
 10
295.013
 20
203.612
 11
293.749
 21
203.273
  0
LINE
  8
0
 10
293.749
 20
203.273
 11
292.457
 21
203.068
  0
LINE
  8
0
 10
292.457
 20
203.068
 11
291.15
 21
203
  0
LINE
  8
0
 10
291.15
 20
203
 11
283.15
 21
203
  0
LINE
  8
0
 10
-229
 20
-222.5
 11
-229.223
 21
-222.475
  0
LINE
  8
0
 10
-229.223
 20
-222.475
 11
-229.434
 21
-222.401
  0
LINE
  8
0
 10
-229.434
 20
-222.401
 11
-229.623
 21
-222.282
  0
LINE
  8
0
 10
-229.623
 20
-222.282
 11
-229.782
 21
-222.123
  0
LINE
  8
0
 10
-229.782
 20
-222.123
 11
-229.901
 21
-221.934
  0
LINE
  8
0
 10
-229.901
 20
-221.934
 11
-229.975
 21
-221.723
  0
LINE
  8
0
 10
-229.975
 20
-221.723
 11
-230
 21
-221.5
  0
LINE
  8
0
 10
-230
 20
-221.5
 11
-230
 21
221.5
  0
LINE
  8
0
 10
-230
 20
221.5
 11
-229.975
 21
221.723
  0
LINE
  8
0
 10
-229.975
 20
221.723
 11
-229.901
 21
221.934
  0
LINE
  8
0
 10
-229.901
 20
221.934
 11
-229.782
 21
222.123
  0
LINE
  8
0
 10
-229.782
 20
222.123
 11
-229.623
 21
222.282
  0
LINE
  8
0
 10
-229.623
 20
222.282
 11
-229.434
 21
222.401
  0
LINE
  8
0
 10
-229.434
 20
222.401
 11
-229.223
 21
222.475
  0
LINE
  8
0
 10
-229.223
 20
222.475
 11
-229
 21
222.5
  0
LINE
  8
0
 10
-229
 20
222.5
 11
229
 21
222.5
  0
LINE
  8
0
 10
229
 20
222.5
 11
229.223
 21
222.475
  0
LINE
  8
0
 10
229.223
 20
222.475
 11
229.434
 21
222.401
  0
LINE
  8
0
 10
229.434
 20
222.401
 11
229.623
 21
222.282
  0
LINE
  8
0
 10
229.623
 20
222.282
 11
229.782
 21
222.123
  0
LINE
  8
0
 10
229.782
 20
222.123
 11
229.901
 21
221.934
  0
LINE
  8
0
 10
229.901
 20
221.934
 11
229.975
 21
221.723
  0
LINE
  8
0
 10
229.975
 20
221.723
 11
230
 21
221.5
  0
LINE
  8
0
 10
230
 20
221.5
 11
230
 21
-221.5
  0
LINE
  8
0
 10
230
 20
-221.5
 11
229.975
 21
-221.723
  0
LINE
  8
0
 10
229.975
 20
-221.723
 11
229.901
 21
-221.934
  0
LINE
  8
0
 10
229.901
 20
-221.934
 11
229.782
 21
-222.123
  0
LINE
  8
0
 10
229.782
 20
-222.123
 11
229.623
 21
-222.282
  0
LINE
  8
0
 10
229.623
 20
-222.282
 11
229.434
 21
-222.401
  0
LINE
  8
0
 10
229.434
 20
-222.401
 11
229.223
 21
-222.475
  0
LINE
  8
0
 10
229.223
 20
-222.475
 11
229
 21
-222.5
  0
LINE
  8
0
 10
229
 20
-222.5
 11
-229
 21
-222.5
  0
LINE
  8
0
 10
-289.959
 20
213.828
 11
-290.199
 21
213.891
  0
LINE
  8
0
 10
-290.199
 20
213.891
 11
-290.427
 21
213.988
  0
LINE
  8
0
 10
-290.427
 20
213.988
 11
-290.639
 21
214.117
  0
LINE
  8
0
 10
-290.639
 20
214.117
 11
-290.83
 21
214.276
  0
LINE
  8
0
 10
-290.83
 20
214.276
 11
-290.996
 21
214.461
  0
LINE
  8
0
 10
-290.996
 20
214.461
 11
-291.132
 21
214.668
  0
LINE
  8
0
 10
-291.132
 20
214.668
 11
-291.238
 21
214.893
  0
LINE
  8
0
 10
-291.238
 20
214.893
 11
-291.309
 21
215.13
  0
LINE
  8
0
 10
-291.309
 20
215.13
 11
-291.345
 21
215.376
  0
LINE
  8
0
 10
-291.345
 20
215.376
 11
-291.345
 21
215.624
  0
LINE
  8
0
 10
-291.345
 20
215.624
 11
-291.309
 21
215.87
  0
LINE
  8
0
 10
-291.309
 20
215.87
 11
-291.238
 21
216.107
  0
LINE
  8
0
 10
-291.238
 20
216.107
 11
-291.132
 21
216.332
  0
LINE
  8
0
 10
-291.132
 20
216.332
 11
-290.996
 21
216.539
  0
LINE
  8
0
 10
-290.996
 20
216.539
 11
-290.83
 21
216.724
  0
LINE
  8
0
 10
-290.83
 20
216.724
 11
-290.639
 21
216.883
  0
LINE
  8
0
 10
-290.639
 20
216.883
 11
-290.427
 21
217.012
  0
LINE
  8
0
 10
-290.427
 20
217.012
 11
-290.199
 21
217.109
  0
LINE
  8
0
 10
-290.199
 20
217.109
 11
-289.959
 21
217.172
  0
LINE
  8
0
 10
-289.959
 20
217.172
 11
-289.712
 21
217.199
  0
LINE
  8
0
 10
-289.712
 20
217.199
 11
-289.464
 21
217.19
  0
LINE
  8
0
 10
-289.464
 20
217.19
 11
-289.22
 21
217.145
  0
LINE
  8
0
 10
-289.22
 20
217.145
 11
-288.985
 21
217.065
  0
LINE
  8
0
 10
-288.985
 20
217.065
 11
-288.764
 21
216.951
  0
LINE
  8
0
 10
-288.764
 20
216.951
 11
-288.563
 21
216.807
  0
LINE
  8
0
 10
-288.563
 20
216.807
 11
-288.384
 21
216.634
  0
LINE
  8
0
 10
-288.384
 20
216.634
 11
-288.232
 21
216.438
  0
LINE
  8
0
 10
-288.232
 20
216.438
 11
-288.111
 21
216.222
  0
LINE
  8
0
 10
-288.111
 20
216.222
 11
-288.022
 21
215.99
  0
LINE
  8
0
 10
-288.022
 20
215.99
 11
-287.968
 21
215.748
  0
LINE
  8
0
 10
-287.968
 20
215.748
 11
-287.95
 21
215.5
  0
LINE
  8
0
 10
-287.95
 20
215.5
 11
-287.968
 21
215.252
  0
LINE
  8
0
 10
-287.968
 20
215.252
 11
-288.022
 21
215.01
  0
LINE
  8
0
 10
-288.022
 20
215.01
 11
-288.111
 21
214.778
  0
LINE
  8
0
 10
-288.111
 20
214.778
 11
-288.232
 21
214.562
  0
LINE
  8
0
 10
-288.232
 20
214.562
 11
-288.384
 21
214.366
  0
LINE
  8
0
 10
-288.384
 20
214.366
 11
-288.563
 21
214.193
  0
LINE
  8
0
 10
-288.563
 20
214.193
 11
-288.764
 21
214.049
  0
LINE
  8
0
 10
-288.764
 20
214.049
 11
-288.985
 21
213.935
  0
LINE
  8
0
 10
-288.985
 20
213.935
 11
-289.22
 21
213.855
  0
LINE
  8
0
 10
-289.22
 20
213.855
 11
-289.464
 21
213.81
  0
LINE
  8
0
 10
-289.464
 20
213.81
 11
-289.712
 21
213.801
  0
LINE
  8
0
 10
-289.712
 20
213.801
 11
-289.959
 21
213.828
  0
LINE
  8
0
 10
-274.809
 20
202.828
 11
-275.049
 21
202.891
  0
LINE
  8
0
 10
-275.049
 20
202.891
 11
-275.277
 21
202.988
  0
LINE
  8
0
 10
-275.277
 20
202.988
 11
-275.489
 21
203.117
  0
LINE
  8
0
 10
-275.489
 20
203.117
 11
-275.68
 21
203.276
  0
LINE
  8
0
 10
-275.68
 20
203.276
 11
-275.846
 21
203.461
  0
LINE
  8
0
 10
-275.846
 20
203.461
 11
-275.982
 21
203.668
  0
LINE
  8
0
 10
-275.982
 20
203.668
 11
-276.088
 21
203.893
  0
LINE
  8
0
 10
-276.088
 20
203.893
 11
-276.159
 21
204.13
  0
LINE
  8
0
 10
-276.159
 20
204.13
 11
-276.195
 21
204.376
  0
LINE
  8
0
 10
-276.195
 20
204.376
 11
-276.195
 21
204.624
  0
LINE
  8
0
 10
-276.195
 20
204.624
 11
-276.159
 21
204.87
  0
LINE
  8
0
 10
-276.159
 20
204.87
 11
-276.088
 21
205.107
  0
LINE
  8
0
 10
-276.088
 20
205.107
 11
-275.982
 21
205.332
  0
LINE
  8
0
 10
-275.982
 20
205.332
 11
-275.846
 21
205.539
  0
LINE
  8
0
 10
-275.846
 20
205.539
 11
-275.68
 21
205.724
  0
LINE
  8
0
 10
-275.68
 20
205.724
 11
-275.489
 21
205.883
  0
LINE
  8
0
 10
-275.489
 20
205.883
 11
-275.277
 21
206.012
  0
LINE
  8
0
 10
-275.277
 20
206.012
 11
-275.049
 21
206.109
  0
LINE
  8
0
 10
-275.049
 20
206.109
 11
-274.809
 21
206.172
  0
LINE
  8
0
 10
-274.809
 20
206.172
 11
-274.562
 21
206.199
  0
LINE
  8
0
 10
-274.562
 20
206.199
 11
-274.314
 21
206.19
  0
LINE
  8
0
 10
-274.314
 20
206.19
 11
-274.07
 21
206.145
  0
LINE
  8
0
 10
-274.07
 20
206.145
 11
-273.835
 21
206.065
  0
LINE
  8
0
 10
-273.835
 20
206.065
 11
-273.614
 21
205.951
  0
LINE
  8
0
 10
-273.614
 20
205.951
 11
-273.413
 21
205.807
  0
LINE
  8
0
 10
-273.413
 20
205.807
 11
-273.234
 21
205.634
  0
LINE
  8
0
 10
-273.234
 20
205.634
 11
-273.082
 21
205.438
  0
LINE
  8
0
 10
-273.082
 20
205.438
 11
-272.961
 21
205.222
  0
LINE
  8
0
 10
-272.961
 20
205.222
 11
-272.872
 21
204.99
  0
LINE
  8
0
 10
-272.872
 20
204.99
 11
-272.818
 21
204.748
  0
LINE
  8
0
 10
-272.818
 20
204.748
 11
-272.8
 21
204.5
  0
LINE
  8
0
 10
-272.8
 20
204.5
 11
-272.818
 21
204.252
  0
LINE
  8
0
 10
-272.818
 20
204.252
 11
-272.872
 21
204.01
  0
LINE
  8
0
 10
-272.872
 20
204.01
 11
-272.961
 21
203.778
  0
LINE
  8
0
 10
-272.961
 20
203.778
 11
-273.082
 21
203.562
  0
LINE
  8
0
 10
-273.082
 20
203.562
 11
-273.234
 21
203.366
  0
LINE
  8
0
 10
-273.234
 20
203.366
 11
-273.413
 21
203.193
  0
LINE
  8
0
 10
-273.413
 20
203.193
 11
-273.614
 21
203.049
  0
LINE
  8
0
 10
-273.614
 20
203.049
 11
-273.835
 21
202.935
  0
LINE
  8
0
 10
-273.835
 20
202.935
 11
-274.07
 21
202.855
  0
LINE
  8
0
 10
-274.07
 20
202.855
 11
-274.314
 21
202.81
  0
LINE
  8
0
 10
-274.314
 20
202.81
 11
-274.562
 21
202.801
  0
LINE
  8
0
 10
-274.562
 20
202.801
 11
-274.809
 21
202.828
  0
LINE
  8
0
 10
-240.186
 20
200.81
 11
-240.43
 21
200.855
  0
LINE
  8
0
 10
-240.43
 20
200.855
 11
-240.665
 21
200.935
  0
LINE
  8
0
 10
-240.665
 20
200.935
 11
-240.886
 21
201.049
  0
LINE
  8
0
 10
-240.886
 20
201.049
 11
-241.087
 21
201.193
  0
LINE
  8
0
 10
-241.087
 20
201.193
 11
-241.266
 21
201.366
  0
LINE
  8
0
 10
-241.266
 20
201.366
 11
-241.418
 21
201.562
  0
LINE
  8
0
 10
-241.418
 20
201.562
 11
-241.539
 21
201.778
  0
LINE
  8
0
 10
-241.539
 20
201.778
 11
-241.628
 21
202.01
  0
LINE
  8
0
 10
-241.628
 20
202.01
 11
-241.682
 21
202.252
  0
LINE
  8
0
 10
-241.682
 20
202.252
 11
-241.7
 21
202.5
  0
LINE
  8
0
 10
-241.7
 20
202.5
 11
-241.682
 21
202.748
  0
LINE
  8
0
 10
-241.682
 20
202.748
 11
-241.628
 21
202.99
  0
LINE
  8
0
 10
-241.628
 20
202.99
 11
-241.539
 21
203.222
  0
LINE
  8
0
 10
-241.539
 20
203.222
 11
-241.418
 21
203.438
  0
LINE
  8
0
 10
-241.418
 20
203.438
 11
-241.266
 21
203.634
  0
LINE
  8
0
 10
-241.266
 20
203.634
 11
-241.087
 21
203.807
  0
LINE
  8
0
 10
-241.087
 20
203.807
 11
-240.886
 21
203.951
  0
LINE
  8
0
 10
-240.886
 20
203.951
 11
-240.665
 21
204.065
  0
LINE
  8
0
 10
-240.665
 20
204.065
 11
-240.43
 21
204.145
  0
LINE
  8
0
 10
-240.43
 20
204.145
 11
-240.186
 21
204.19
  0
LINE
  8
0
 10
-240.186
 20
204.19
 11
-239.938
 21
204.199
  0
LINE
  8
0
 10
-239.938
 20
204.199
 11
-239.691
 21
204.172
  0
LINE
  8
0
 10
-239.691
 20
204.172
 11
-239.451
 21
204.109
  0
LINE
  8
0
 10
-239.451
 20
204.109
 11
-239.223
 21
204.012
  0
LINE
  8
0
 10
-239.223
 20
204.012
 11
-239.011
 21
203.883
  0
LINE
  8
0
 10
-239.011
 20
203.883
 11
-238.82
 21
203.724
  0
LINE
  8
0
 10
-238.82
 20
203.724
 11
-238.654
 21
203.539
  0
LINE
  8
0
 10
-238.654
 20
203.539
 11
-238.518
 21
203.332
  0
LINE
  8
0
 10
-238.518
 20
203.332
 11
-238.412
 21
203.107
  0
LINE
  8
0
 10
-238.412
 20
203.107
 11
-238.341
 21
202.87
  0
LINE
  8
0
 10
-238.341
 20
202.87
 11
-238.305
 21
202.624
  0
LINE
  8
0
 10
-238.305
 20
202.624
 11
-238.305
 21
202.376
  0
LINE
  8
0
 10
-238.305
 20
202.376
 11
-238.341
 21
202.13
  0
LINE
  8
0
 10
-238.341
 20
202.13
 11
-238.412
 21
201.893
  0
LINE
  8
0
 10
-238.412
 20
201.893
 11
-238.518
 21
201.668
  0
LINE
  8
0
 10
-238.518
 20
201.668
 11
-238.654
 21
201.461
  0
LINE
  8
0
 10
-238.654
 20
201.461
 11
-238.82
 21
201.276
  0
LINE
  8
0
 10
-238.82
 20
201.276
 11
-239.011
 21
201.117
  0
LINE
  8
0
 10
-239.011
 20
201.117
 11
-239.223
 21
200.988
  0
LINE
  8
0
 10
-239.223
 20
200.988
 11
-239.451
 21
200.891
  0
LINE
  8
0
 10
-239.451
 20
200.891
 11
-239.691
 21
200.828
  0
LINE
  8
0
 10
-239.691
 20
200.828
 11
-239.938
 21
200.801
  0
LINE
  8
0
 10
-239.938
 20
200.801
 11
-240.186
 21
200.81
  0
LINE
  8
0
 10
239.691
 20
200.828
 11
239.451
 21
200.891
  0
LINE
  8
0
 10
239.451
 20
200.891
 11
239.223
 21
200.988
  0
LINE
  8
0
 10
239.223
 20
200.988
 11
239.011
 21
201.117
  0
LINE
  8
0
 10
239.011
 20
201.117
 11
238.82
 21
201.276
  0
LINE
  8
0
 10
238.82
 20
201.276
 11
238.654
 21
201.461
  0
LINE
  8
0
 10
238.654
 20
201.461
 11
238.518
 21
201.668
  0
LINE
  8
0
 10
238.518
 20
201.668
 11
238.412
 21
201.893
  0
LINE
  8
0
 10
238.412
 20
201.893
 11
238.341
 21
202.13
  0
LINE
  8
0
 10
238.341
 20
202.13
 11
238.305
 21
202.376
  0
LINE
  8
0
 10
238.305
 20
202.376
 11
238.305
 21
202.624
  0
LINE
  8
0
 10
238.305
 20
202.624
 11
238.341
 21
202.87
  0
LINE
  8
0
 10
238.341
 20
202.87
 11
238.412
 21
203.107
  0
LINE
  8
0
 10
238.412
 20
203.107
 11
238.518
 21
203.332
  0
LINE
  8
0
 10
238.518
 20
203.332
 11
238.654
 21
203.539
  0
LINE
  8
0
 10
238.654
 20
203.539
 11
238.82
 21
203.724
  0
LINE
  8
0
 10
238.82
 20
203.724
 11
239.011
 21
203.883
  0
LINE
  8
0
 10
239.011
 20
203.883
 11
239.223
 21
204.012
  0
LINE
  8
0
 10
239.223
 20
204.012
 11
239.451
 21
204.109
  0
LINE
  8
0
 10
239.451
 20
204.109
 11
239.691
 21
204.172
  0
LINE
  8
0
 10
239.691
 20
204.172
 11
239.938
 21
204.199
  0
LINE
  8
0
 10
239.938
 20
204.199
 11
240.186
 21
204.19
  0
LINE
  8
0
 10
240.186
 20
204.19
 11
240.43
 21
204.145
  0
LINE
  8
0
 10
240.43
 20
204.145
 11
240.665
 21
204.065
  0
LINE
  8
0
 10
240.665
 20
204.065
 11
240.886
 21
203.951
  0
LINE
  8
0
 10
240.886
 20
203.951
 11
241.087
 21
203.807
  0
LINE
  8
0
 10
241.087
 20
203.807
 11
241.266
 21
203.634
  0
LINE
  8
0
 10
241.266
 20
203.634
 11
241.418
 21
203.438
  0
LINE
  8
0
 10
241.418
 20
203.438
 11
241.539
 21
203.222
  0
LINE
  8
0
 10
241.539
 20
203.222
 11
241.628
 21
202.99
  0
LINE
  8
0
 10
241.628
 20
202.99
 11
241.682
 21
202.748
  0
LINE
  8
0
 10
241.682
 20
202.748
 11
241.7
 21
202.5
  0
LINE
  8
0
 10
241.7
 20
202.5
 11
241.682
 21
202.252
  0
LINE
  8
0
 10
241.682
 20
202.252
 11
241.628
 21
202.01
  0
LINE
  8
0
 10
241.628
 20
202.01
 11
241.539
 21
201.778
  0
LINE
  8
0
 10
241.539
 20
201.778
 11
241.418
 21
201.562
  0
LINE
  8
0
 10
241.418
 20
201.562
 11
241.266
 21
201.366
  0
LINE
  8
0
 10
241.266
 20
201.366
 11
241.087
 21
201.193
  0
LINE
  8
0
 10
241.087
 20
201.193
 11
240.886
 21
201.049
  0
LINE
  8
0
 10
240.886
 20
201.049
 11
240.665
 21
200.935
  0
LINE
  8
0
 10
240.665
 20
200.935
 11
240.43
 21
200.855
  0
LINE
  8
0
 10
240.43
 20
200.855
 11
240.186
 21
200.81
  0
LINE
  8
0
 10
240.186
 20
200.81
 11
239.938
 21
200.801
  0
LINE
  8
0
 10
239.938
 20
200.801
 11
239.691
 21
200.828
  0
LINE
  8
0
 10
299.027
 20
198.355
 11
298.783
 21
198.391
  0
LINE
  8
0
 10
298.783
 20
198.391
 11
298.547
 21
198.464
  0
LINE
  8
0
 10
298.547
 20
198.464
 11
298.325
 21
198.571
  0
LINE
  8
0
 10
298.325
 20
198.571
 11
298.121
 21
198.71
  0
LINE
  8
0
 10
298.121
 20
198.71
 11
297.94
 21
198.878
  0
LINE
  8
0
 10
297.94
 20
198.878
 11
297.787
 21
199.071
  0
LINE
  8
0
 10
297.787
 20
199.071
 11
297.663
 21
199.284
  0
LINE
  8
0
 10
297.663
 20
199.284
 11
297.573
 21
199.514
  0
LINE
  8
0
 10
297.573
 20
199.514
 11
297.518
 21
199.754
  0
LINE
  8
0
 10
297.518
 20
199.754
 11
297.5
 21
200
  0
LINE
  8
0
 10
297.5
 20
200
 11
297.518
 21
200.246
  0
LINE
  8
0
 10
297.518
 20
200.246
 11
297.573
 21
200.486
  0
LINE
  8
0
 10
297.573
 20
200.486
 11
297.663
 21
200.716
  0
LINE
  8
0
 10
297.663
 20
200.716
 11
297.787
 21
200.929
  0
LINE
  8
0
 10
297.787
 20
200.929
 11
297.94
 21
201.122
  0
LINE
  8
0
 10
297.94
 20
201.122
 11
298.121
 21
201.29
  0
LINE
  8
0
 10
298.121
 20
201.29
 11
298.325
 21
201.429
  0
LINE
  8
0
 10
298.325
 20
201.429
 11
298.547
 21
201.536
  0
LINE
  8
0
 10
298.547
 20
201.536
 11
298.783
 21
201.609
  0
LINE
  8
0
 10
298.783
 20
201.609
 11
299.027
 21
201.645
  0
LINE
  8
0
 10
299.027
 20
201.645
 11
307.273
 21
201.645
  0
LINE
  8
0
 10
307.273
 20
201.645
 11
307.517
 21
201.609
  0
LINE
  8
0
 10
307.517
 20
201.609
 11
307.753
 21
201.536
  0
LINE
  8
0
 10
307.753
 20
201.536
 11
307.975
 21
201.429
  0
LINE
  8
0
 10
307.975
 20
201.429
 11
308.179
 21
201.29
  0
LINE
  8
0
 10
308.179
 20
201.29
 11
308.36
 21
201.122
  0
LINE
  8
0
 10
308.36
 20
201.122
 11
308.513
 21
200.929
  0
LINE
  8
0
 10
308.513
 20
200.929
 11
308.637
 21
200.716
  0
LINE
  8
0
 10
308.637
 20
200.716
 11
308.727
 21
200.486
  0
LINE
  8
0
 10
308.727
 20
200.486
 11
308.782
 21
200.246
  0
LINE
  8
0
 10
308.782
 20
200.246
 11
308.8
 21
200
  0
LINE
  8
0
 10
308.8
 20
200
 11
308.782
 21
199.754
  0
LINE
  8
0
 10
308.782
 20
199.754
 11
308.727
 21
199.514
  0
LINE
  8
0
 10
308.727
 20
199.514
 11
308.637
 21
199.284
  0
LINE
  8
0
 10
308.637
 20
199.284
 11
308.513
 21
199.071
  0
LINE
  8
0
 10
308.513
 20
199.071
 11
308.36
 21
198.878
  0
LINE
  8
0
 10
308.36
 20
198.878
 11
308.179
 21
198.71
  0
LINE
  8
0
 10
308.179
 20
198.71
 11
307.975
 21
198.571
  0
LINE
  8
0
 10
307.975
 20
198.571
 11
307.753
 21
198.464
  0
LINE
  8
0
 10
307.753
 20
198.464
 11
307.517
 21
198.391
  0
LINE
  8
0
 10
307.517
 20
198.391
 11
307.273
 21
198.355
  0
LINE
  8
0
 10
307.273
 20
198.355
 11
299.027
 21
198.355
  0
LINE
  8
0
 10
268.027
 20
198.355
 11
267.783
 21
198.391
  0
LINE
  8
0
 10
267.783
 20
198.391
 11
267.547
 21
198.464
  0
LINE
  8
0
 10
267.547
 20
198.464
 11
267.325
 21
198.571
  0
LINE
  8
0
 10
267.325
 20
198.571
 11
267.121
 21
198.71
  0
LINE
  8
0
 10
267.121
 20
198.71
 11
266.94
 21
198.878
  0
LINE
  8
0
 10
266.94
 20
198.878
 11
266.787
 21
199.071
  0
LINE
  8
0
 10
266.787
 20
199.071
 11
266.663
 21
199.284
  0
LINE
  8
0
 10
266.663
 20
199.284
 11
266.573
 21
199.514
  0
LINE
  8
0
 10
266.573
 20
199.514
 11
266.518
 21
199.754
  0
LINE
  8
0
 10
266.518
 20
199.754
 11
266.5
 21
200
  0
LINE
  8
0
 10
266.5
 20
200
 11
266.518
 21
200.246
  0
LINE
  8
0
 10
266.518
 20
200.246
 11
266.573
 21
200.486
  0
LINE
  8
0
 10
266.573
 20
200.486
 11
266.663
 21
200.716
  0
LINE
  8
0
 10
266.663
 20
200.716
 11
266.787
 21
200.929
  0
LINE
  8
0
 10
266.787
 20
200.929
 11
266.94
 21
201.122
  0
LINE
  8
0
 10
266.94
 20
201.122
 11
267.121
 21
201.29
  0
LINE
  8
0
 10
267.121
 20
201.29
 11
267.325
 21
201.429
  0
LINE
  8
0
 10
267.325
 20
201.429
 11
267.547
 21
201.536
  0
LINE
  8
0
 10
267.547
 20
201.536
 11
267.783
 21
201.609
  0
LINE
  8
0
 10
267.783
 20
201.609
 11
268.027
 21
201.645
  0
LINE
  8
0
 10
268.027
 20
201.645
 11
276.273
 21
201.645
  0
LINE
  8
0
 10
276.273
 20
201.645
 11
276.517
 21
201.609
  0
LINE
  8
0
 10
276.517
 20
201.609
 11
276.753
 21
201.536
  0
LINE
  8
0
 10
276.753
 20
201.536
 11
276.975
 21
201.429
  0
LINE
  8
0
 10
276.975
 20
201.429
 11
277.179
 21
201.29
  0
LINE
  8
0
 10
277.179
 20
201.29
 11
277.36
 21
201.122
  0
LINE
  8
0
 10
277.36
 20
201.122
 11
277.513
 21
200.929
  0
LINE
  8
0
 10
277.513
 20
200.929
 11
277.637
 21
200.716
  0
LINE
  8
0
 10
277.637
 20
200.716
 11
277.727
 21
200.486
  0
LINE
  8
0
 10
277.727
 20
200.486
 11
277.782
 21
200.246
  0
LINE
  8
0
 10
277.782
 20
200.246
 11
277.8
 21
200
  0
LINE
  8
0
 10
277.8
 20
200
 11
277.782
 21
199.754
  0
LINE
  8
0
 10
277.782
 20
199.754
 11
277.727
 21
199.514
  0
LINE
  8
0
 10
277.727
 20
199.514
 11
277.637
 21
199.284
  0
LINE
  8
0
 10
277.637
 20
199.284
 11
277.513
 21
199.071
  0
LINE
  8
0
 10
277.513
 20
199.071
 11
277.36
 21
198.878
  0
LINE
  8
0
 10
277.36
 20
198.878
 11
277.179
 21
198.71
  0
LINE
  8
0
 10
277.179
 20
198.71
 11
276.975
 21
198.571
  0
LINE
  8
0
 10
276.975
 20
198.571
 11
276.753
 21
198.464
  0
LINE
  8
0
 10
276.753
 20
198.464
 11
276.517
 21
198.391
  0
LINE
  8
0
 10
276.517
 20
198.391
 11
276.273
 21
198.355
  0
LINE
  8
0
 10
276.273
 20
198.355
 11
268.027
 21
198.355
  0
LINE
  8
0
 10
239.751
 20
72.4345
 11
239.507
 21
72.4875
  0
LINE
  8
0
 10
239.507
 20
72.4875
 11
239.273
 21
72.5748
  0
LINE
  8
0
 10
239.273
 20
72.5748
 11
239.054
 21
72.6945
  0
LINE
  8
0
 10
239.054
 20
72.6945
 11
238.854
 21
72.8441
  0
LINE
  8
0
 10
238.854
 20
72.8441
 11
238.677
 21
73.0207
  0
LINE
  8
0
 10
238.677
 20
73.0207
 11
238.528
 21
73.2205
  0
LINE
  8
0
 10
238.528
 20
73.2205
 11
238.408
 21
73.4397
  0
LINE
  8
0
 10
238.408
 20
73.4397
 11
238.321
 21
73.6736
  0
LINE
  8
0
 10
238.321
 20
73.6736
 11
238.268
 21
73.9176
  0
LINE
  8
0
 10
238.268
 20
73.9176
 11
238.25
 21
74.1667
  0
LINE
  8
0
 10
238.25
 20
74.1667
 11
238.25
 21
192.5
  0
LINE
  8
0
 10
238.25
 20
192.5
 11
238.268
 21
192.749
  0
LINE
  8
0
 10
238.268
 20
192.749
 11
238.321
 21
192.993
  0
LINE
  8
0
 10
238.321
 20
192.993
 11
238.408
 21
193.227
  0
LINE
  8
0
 10
238.408
 20
193.227
 11
238.528
 21
193.446
  0
LINE
  8
0
 10
238.528
 20
193.446
 11
238.677
 21
193.646
  0
LINE
  8
0
 10
238.677
 20
193.646
 11
238.854
 21
193.823
  0
LINE
  8
0
 10
238.854
 20
193.823
 11
239.054
 21
193.972
  0
LINE
  8
0
 10
239.054
 20
193.972
 11
239.273
 21
194.092
  0
LINE
  8
0
 10
239.273
 20
194.092
 11
239.507
 21
194.179
  0
LINE
  8
0
 10
239.507
 20
194.179
 11
239.751
 21
194.232
  0
LINE
  8
0
 10
239.751
 20
194.232
 11
240
 21
194.25
  0
LINE
  8
0
 10
240
 20
194.25
 11
240.249
 21
194.232
  0
LINE
  8
0
 10
240.249
 20
194.232
 11
240.493
 21
194.179
  0
LINE
  8
0
 10
240.493
 20
194.179
 11
240.727
 21
194.092
  0
LINE
  8
0
 10
240.727
 20
194.092
 11
240.946
 21
193.972
  0
LINE
  8
0
 10
240.946
 20
193.972
 11
241.146
 21
193.823
  0
LINE
  8
0
 10
241.146
 20
193.823
 11
241.323
 21
193.646
  0
LINE
  8
0
 10
241.323
 20
193.646
 11
241.472
 21
193.446
  0
LINE
  8
0
 10
241.472
 20
193.446
 11
241.592
 21
193.227
  0
LINE
  8
0
 10
241.592
 20
193.227
 11
241.679
 21
192.993
  0
LINE
  8
0
 10
241.679
 20
192.993
 11
241.732
 21
192.749
  0
LINE
  8
0
 10
241.732
 20
192.749
 11
241.75
 21
192.5
  0
LINE
  8
0
 10
241.75
 20
192.5
 11
241.75
 21
74.1667
  0
LINE
  8
0
 10
241.75
 20
74.1667
 11
241.732
 21
73.9176
  0
LINE
  8
0
 10
241.732
 20
73.9176
 11
241.679
 21
73.6736
  0
LINE
  8
0
 10
241.679
 20
73.6736
 11
241.592
 21
73.4397
  0
LINE
  8
0
 10
241.592
 20
73.4397
 11
241.472
 21
73.2205
  0
LINE
  8
0
 10
241.472
 20
73.2205
 11
241.323
 21
73.0207
  0
LINE
  8
0
 10
241.323
 20
73.0207
 11
241.146
 21
72.8441
  0
LINE
  8
0
 10
241.146
 20
72.8441
 11
240.946
 21
72.6945
  0
LINE
  8
0
 10
240.946
 20
72.6945
 11
240.727
 21
72.5748
  0
LINE
  8
0
 10
240.727
 20
72.5748
 11
240.493
 21
72.4875
  0
LINE
  8
0
 10
240.493
 20
72.4875
 11
240.249
 21
72.4345
  0
LINE
  8
0
 10
240.249
 20
72.4345
 11
240
 21
72.4167
  0
LINE
  8
0
 10
240
 20
72.4167
 11
239.751
 21
72.4345
  0
LINE
  8
0
 10
-240.249
 20
72.4345
 11
-240.493
 21
72.4875
  0
LINE
  8
0
 10
-240.493
 20
72.4875
 11
-240.727
 21
72.5748
  0
LINE
  8
0
 10
-240.727
 20
72.5748
 11
-240.946
 21
72.6945
  0
LINE
  8
0
 10
-240.946
 20
72.6945
 11
-241.146
 21
72.8441
  0
LINE
  8
0
 10
-241.146
 20
72.8441
 11
-241.323
 21
73.0207
  0
LINE
  8
0
 10
-241.323
 20
73.0207
 11
-241.472
 21
73.2205
  0
LINE
  8
0
 10
-241.472
 20
73.2205
 11
-241.592
 21
73.4397
  0
LINE
  8
0
 10
-241.592
 20
73.4397
 11
-241.679
 21
73.6736
  0
LINE
  8
0
 10
-241.679
 20
73.6736
 11
-241.732
 21
73.9176
  0
LINE
  8
0
 10
-241.732
 20
73.9176
 11
-241.75
 21
74.1667
  0
LINE
  8
0
 10
-241.75
 20
74.1667
 11
-241.75
 21
192.5
  0
LINE
  8
0
 10
-241.75
 20
192.5
 11
-241.732
 21
192.749
  0
LINE
  8
0
 10
-241.732
 20
192.749
 11
-241.679
 21
192.993
  0
LINE
  8
0
 10
-241.679
 20
192.993
 11
-241.592
 21
193.227
  0
LINE
  8
0
 10
-241.592
 20
193.227
 11
-241.472
 21
193.446
  0
LINE
  8
0
 10
-241.472
 20
193.446
 11
-241.323
 21
193.646
  0
LINE
  8
0
 10
-241.323
 20
193.646
 11
-241.146
 21
193.823
  0
LINE
  8
0
 10
-241.146
 20
193.823
 11
-240.946
 21
193.972
  0
LINE
  8
0
 10
-240.946
 20
193.972
 11
-240.727
 21
194.092
  0
LINE
  8
0
 10
-240.727
 20
194.092
 11
-240.493
 21
194.179
  0
LINE
  8
0
 10
-240.493
 20
194.179
 11
-240.249
 21
194.232
  0
LINE
  8
0
 10
-240.249
 20
194.232
 11
-240
 21
194.25
  0
LINE
  8
0
 10
-240
 20
194.25
 11
-239.751
 21
194.232
  0
LINE
  8
0
 10
-239.751
 20
194.232
 11
-239.507
 21
194.179
  0
LINE
  8
0
 10
-239.507
 20
194.179
 11
-239.273
 21
194.092
  0
LINE
  8
0
 10
-239.273
 20
194.092
 11
-239.054
 21
193.972
  0
LINE
  8
0
 10
-239.054
 20
193.972
 11
-238.854
 21
193.823
  0
LINE
  8
0
 10
-238.854
 20
193.823
 11
-238.677
 21
193.646
  0
LINE
  8
0
 10
-238.677
 20
193.646
 11
-238.528
 21
193.446
  0
LINE
  8
0
 10
-238.528
 20
193.446
 11
-238.408
 21
193.227
  0
LINE
  8
0
 10
-238.408
 20
193.227
 11
-238.321
 21
192.993
  0
LINE
  8
0
 10
-238.321
 20
192.993
 11
-238.268
 21
192.749
  0
LINE
  8
0
 10
-238.268
 20
192.749
 11
-238.25
 21
192.5
  0
LINE
  8
0
 10
-238.25
 20
192.5
 11
-238.25
 21
74.1667
  0
LINE
  8
0
 10
-238.25
 20
74.1667
 11
-238.268
 21
73.9176
  0
LINE
  8
0
 10
-238.268
 20
73.9176
 11
-238.321
 21
73.6736
  0
LINE
  8
0
 10
-238.321
 20
73.6736
 11
-238.408
 21
73.4397
  0
LINE
  8
0
 10
-238.408
 20
73.4397
 11
-238.528
 21
73.2205
  0
LINE
  8
0
 10
-238.528
 20
73.2205
 11
-238.677
 21
73.0207
  0
LINE
  8
0
 10
-238.677
 20
73.0207
 11
-238.854
 21
72.8441
  0
LINE
  8
0
 10
-238.854
 20
72.8441
 11
-239.054
 21
72.6945
  0
LINE
  8
0
 10
-239.054
 20
72.6945
 11
-239.273
 21
72.5748
  0
LINE
  8
0
 10
-239.273
 20
72.5748
 11
-239.507
 21
72.4875
  0
LINE
  8
0
 10
-239.507
 20
72.4875
 11
-239.751
 21
72.4345
  0
LINE
  8
0
 10
-239.751
 20
72.4345
 11
-240
 21
72.4167
  0
LINE
  8
0
 10
-240
 20
72.4167
 11
-240.249
 21
72.4345
  0
LINE
  8
0
 10
304.749
 20
85.1131
 11
304.501
 21
85.1524
  0
LINE
  8
0
 10
304.501
 20
85.1524
 11
304.258
 21
85.2175
  0
LINE
  8
0
 10
304.258
 20
85.2175
 11
304.024
 21
85.3075
  0
LINE
  8
0
 10
304.024
 20
85.3075
 11
303.8
 21
85.4215
  0
LINE
  8
0
 10
303.8
 20
85.4215
 11
303.589
 21
85.5583
  0
LINE
  8
0
 10
303.589
 20
85.5583
 11
303.394
 21
85.7164
  0
LINE
  8
0
 10
303.394
 20
85.7164
 11
303.216
 21
85.8941
  0
LINE
  8
0
 10
303.216
 20
85.8941
 11
303.058
 21
86.0893
  0
LINE
  8
0
 10
303.058
 20
86.0893
 11
302.922
 21
86.3
  0
LINE
  8
0
 10
302.922
 20
86.3
 11
302.807
 21
86.5238
  0
LINE
  8
0
 10
302.807
 20
86.5238
 11
302.717
 21
86.7584
  0
LINE
  8
0
 10
302.717
 20
86.7584
 11
302.652
 21
87.001
  0
LINE
  8
0
 10
302.652
 20
87.001
 11
302.613
 21
87.2491
  0
LINE
  8
0
 10
302.613
 20
87.2491
 11
302.6
 21
87.5
  0
LINE
  8
0
 10
302.6
 20
87.5
 11
302.613
 21
87.7509
  0
LINE
  8
0
 10
302.613
 20
87.7509
 11
302.652
 21
87.999
  0
LINE
  8
0
 10
302.652
 20
87.999
 11
302.717
 21
88.2416
  0
LINE
  8
0
 10
302.717
 20
88.2416
 11
302.807
 21
88.4762
  0
LINE
  8
0
 10
302.807
 20
88.4762
 11
302.922
 21
88.7
  0
LINE
  8
0
 10
302.922
 20
88.7
 11
303.058
 21
88.9107
  0
LINE
  8
0
 10
303.058
 20
88.9107
 11
303.216
 21
89.1059
  0
LINE
  8
0
 10
303.216
 20
89.1059
 11
303.394
 21
89.2835
  0
LINE
  8
0
 10
303.394
 20
89.2835
 11
303.589
 21
89.4416
  0
LINE
  8
0
 10
303.589
 20
89.4416
 11
303.8
 21
89.5785
  0
LINE
  8
0
 10
303.8
 20
89.5785
 11
304.024
 21
89.6925
  0
LINE
  8
0
 10
304.024
 20
89.6925
 11
304.258
 21
89.7825
  0
LINE
  8
0
 10
304.258
 20
89.7825
 11
304.501
 21
89.8475
  0
LINE
  8
0
 10
304.501
 20
89.8475
 11
304.749
 21
89.8869
  0
LINE
  8
0
 10
304.749
 20
89.8869
 11
305
 21
89.9
  0
LINE
  8
0
 10
305
 20
89.9
 11
305.251
 21
89.8869
  0
LINE
  8
0
 10
305.251
 20
89.8869
 11
305.499
 21
89.8475
  0
LINE
  8
0
 10
305.499
 20
89.8475
 11
305.742
 21
89.7825
  0
LINE
  8
0
 10
305.742
 20
89.7825
 11
305.976
 21
89.6925
  0
LINE
  8
0
 10
305.976
 20
89.6925
 11
306.2
 21
89.5785
  0
LINE
  8
0
 10
306.2
 20
89.5785
 11
306.411
 21
89.4416
  0
LINE
  8
0
 10
306.411
 20
89.4416
 11
306.606
 21
89.2835
  0
LINE
  8
0
 10
306.606
 20
89.2835
 11
306.784
 21
89.1059
  0
LINE
  8
0
 10
306.784
 20
89.1059
 11
306.942
 21
88.9107
  0
LINE
  8
0
 10
306.942
 20
88.9107
 11
307.078
 21
88.7
  0
LINE
  8
0
 10
307.078
 20
88.7
 11
307.193
 21
88.4762
  0
LINE
  8
0
 10
307.193
 20
88.4762
 11
307.283
 21
88.2416
  0
LINE
  8
0
 10
307.283
 20
88.2416
 11
307.348
 21
87.999
  0
LINE
  8
0
 10
307.348
 20
87.999
 11
307.387
 21
87.7509
  0
LINE
  8
0
 10
307.387
 20
87.7509
 11
307.4
 21
87.5
  0
LINE
  8
0
 10
307.4
 20
87.5
 11
307.387
 21
87.2491
  0
LINE
  8
0
 10
307.387
 20
87.2491
 11
307.348
 21
87.001
  0
LINE
  8
0
 10
307.348
 20
87.001
 11
307.283
 21
86.7584
  0
LINE
  8
0
 10
307.283
 20
86.7584
 11
307.193
 21
86.5238
  0
LINE
  8
0
 10
307.193
 20
86.5238
 11
307.078
 21
86.3
  0
LINE
  8
0
 10
307.078
 20
86.3
 11
306.942
 21
86.0893
  0
LINE
  8
0
 10
306.942
 20
86.0893
 11
306.784
 21
85.8941
  0
LINE
  8
0
 10
306.784
 20
85.8941
 11
306.606
 21
85.7164
  0
LINE
  8
0
 10
306.606
 20
85.7164
 11
306.411
 21
85.5583
  0
LINE
  8
0
 10
306.411
 20
85.5583
 11
306.2
 21
85.4215
  0
LINE
  8
0
 10
306.2
 20
85.4215
 11
305.976
 21
85.3075
  0
LINE
  8
0
 10
305.976
 20
85.3075
 11
305.742
 21
85.2175
  0
LINE
  8
0
 10
305.742
 20
85.2175
 11
305.499
 21
85.1524
  0
LINE
  8
0
 10
305.499
 20
85.1524
 11
305.251
 21
85.1131
  0
LINE
  8
0
 10
305.251
 20
85.1131
 11
305
 21
85.1
  0
LINE
  8
0
 10
305
 20
85.1
 11
304.749
 21
85.1131
  0
LINE
  8
0
 10
-305.251
 20
85.1131
 11
-305.499
 21
85.1524
  0
LINE
  8
0
 10
-305.499
 20
85.1524
 11
-305.742
 21
85.2175
  0
LINE
  8
0
 10
-305.742
 20
85.2175
 11
-305.976
 21
85.3075
  0
LINE
  8
0
 10
-305.976
 20
85.3075
 11
-306.2
 21
85.4215
  0
LINE
  8
0
 10
-306.2
 20
85.4215
 11
-306.411
 21
85.5583
  0
LINE
  8
0
 10
-306.411
 20
85.5583
 11
-306.606
 21
85.7164
  0
LINE
  8
0
 10
-306.606
 20
85.7164
 11
-306.784
 21
85.8941
  0
LINE
  8
0
 10
-306.784
 20
85.8941
 11
-306.942
 21
86.0893
  0
LINE
  8
0
 10
-306.942
 20
86.0893
 11
-307.078
 21
86.3
  0
LINE
  8
0
 10
-307.078
 20
86.3
 11
-307.193
 21
86.5238
  0
LINE
  8
0
 10
-307.193
 20
86.5238
 11
-307.283
 21
86.7584
  0
LINE
  8
0
 10
-307.283
 20
86.7584
 11
-307.348
 21
87.001
  0
LINE
  8
0
 10
-307.348
 20
87.001
 11
-307.387
 21
87.2491
  0
LINE
  8
0
 10
-307.387
 20
87.2491
 11
-307.4
 21
87.5
  0
LINE
  8
0
 10
-307.4
 20
87.5
 11
-307.387
 21
87.7509
  0
LINE
  8
0
 10
-307.387
 20
87.7509
 11
-307.348
 21
87.999
  0
LINE
  8
0
 10
-307.348
 20
87.999
 11
-307.283
 21
88.2416
  0
LINE
  8
0
 10
-307.283
 20
88.2416
 11
-307.193
 21
88.4762
  0
LINE
  8
0
 10
-307.193
 20
88.4762
 11
-307.078
 21
88.7
  0
LINE
  8
0
 10
-307.078
 20
88.7
 11
-306.942
 21
88.9107
  0
LINE
  8
0
 10
-306.942
 20
88.9107
 11
-306.784
 21
89.1059
  0
LINE
  8
0
 10
-306.784
 20
89.1059
 11
-306.606
 21
89.2835
  0
LINE
  8
0
 10
-306.606
 20
89.2835
 11
-306.411
 21
89.4416
  0
LINE
  8
0
 10
-306.411
 20
89.4416
 11
-306.2
 21
89.5785
  0
LINE
  8
0
 10
-306.2
 20
89.5785
 11
-305.976
 21
89.6925
  0
LINE
  8
0
 10
-305.976
 20
89.6925
 11
-305.742
 21
89.7825
  0
LINE
  8
0
 10
-305.742
 20
89.7825
 11
-305.499
 21
89.8475
  0
LINE
  8
0
 10
-305.499
 20
89.8475
 11
-305.251
 21
89.8869
  0
LINE
  8
0
 10
-305.251
 20
89.8869
 11
-305
 21
89.9
  0
LINE
  8
0
 10
-305
 20
89.9
 11
-304.749
 21
89.8869
  0
LINE
  8
0
 10
-304.749
 20
89.8869
 11
-304.501
 21
89.8475
  0
LINE
  8
0
 10
-304.501
 20
89.8475
 11
-304.258
 21
89.7825
  0
LINE
  8
0
 10
-304.258
 20
89.7825
 11
-304.024
 21
89.6925
  0
LINE
  8
0
 10
-304.024
 20
89.6925
 11
-303.8
 21
89.5785
  0
LINE
  8
0
 10
-303.8
 20
89.5785
 11
-303.589
 21
89.4416
  0
LINE
  8
0
 10
-303.589
 20
89.4416
 11
-303.394
 21
89.2835
  0
LINE
  8
0
 10
-303.394
 20
89.2835
 11
-303.216
 21
89.1059
  0
LINE
  8
0
 10
-303.216
 20
89.1059
 11
-303.058
 21
88.9107
  0
LINE
  8
0
 10
-303.058
 20
88.9107
 11
-302.922
 21
88.7
  0
LINE
  8
0
 10
-302.922
 20
88.7
 11
-302.807
 21
88.4762
  0
LINE
  8
0
 10
-302.807
 20
88.4762
 11
-302.717
 21
88.2416
  0
LINE
  8
0
 10
-302.717
 20
88.2416
 11
-302.652
 21
87.999
  0
LINE
  8
0
 10
-302.652
 20
87.999
 11
-302.613
 21
87.7509
  0
LINE
  8
0
 10
-302.613
 20
87.7509
 11
-302.6
 21
87.5
  0
LINE
  8
0
 10
-302.6
 20
87.5
 11
-302.613
 21
87.2491
  0
LINE
  8
0
 10
-302.613
 20
87.2491
 11
-302.652
 21
87.001
  0
LINE
  8
0
 10
-302.652
 20
87.001
 11
-302.717
 21
86.7584
  0
LINE
  8
0
 10
-302.717
 20
86.7584
 11
-302.807
 21
86.5238
  0
LINE
  8
0
 10
-302.807
 20
86.5238
 11
-302.922
 21
86.3
  0
LINE
  8
0
 10
-302.922
 20
86.3
 11
-303.058
 21
86.0893
  0
LINE
  8
0
 10
-303.058
 20
86.0893
 11
-303.216
 21
85.8941
  0
LINE
  8
0
 10
-303.216
 20
85.8941
 11
-303.394
 21
85.7164
  0
LINE
  8
0
 10
-303.394
 20
85.7164
 11
-303.589
 21
85.5583
  0
LINE
  8
0
 10
-303.589
 20
85.5583
 11
-303.8
 21
85.4215
  0
LINE
  8
0
 10
-303.8
 20
85.4215
 11
-304.024
 21
85.3075
  0
LINE
  8
0
 10
-304.024
 20
85.3075
 11
-304.258
 21
85.2175
  0
LINE
  8
0
 10
-304.258
 20
85.2175
 11
-304.501
 21
85.1524
  0
LINE
  8
0
 10
-304.501
 20
85.1524
 11
-304.749
 21
85.1131
  0
LINE
  8
0
 10
-304.749
 20
85.1131
 11
-305
 21
85.1
  0
LINE
  8
0
 10
-305
 20
85.1
 11
-305.251
 21
85.1131
  0
LINE
  8
0
 10
-305.251
 20
65.1131
 11
-305.499
 21
65.1524
  0
LINE
  8
0
 10
-305.499
 20
65.1524
 11
-305.742
 21
65.2175
  0
LINE
  8
0
 10
-305.742
 20
65.2175
 11
-305.976
 21
65.3075
  0
LINE
  8
0
 10
-305.976
 20
65.3075
 11
-306.2
 21
65.4215
  0
LINE
  8
0
 10
-306.2
 20
65.4215
 11
-306.411
 21
65.5583
  0
LINE
  8
0
 10
-306.411
 20
65.5583
 11
-306.606
 21
65.7164
  0
LINE
  8
0
 10
-306.606
 20
65.7164
 11
-306.784
 21
65.8941
  0
LINE
  8
0
 10
-306.784
 20
65.8941
 11
-306.942
 21
66.0893
  0
LINE
  8
0
 10
-306.942
 20
66.0893
 11
-307.078
 21
66.3
  0
LINE
  8
0
 10
-307.078
 20
66.3
 11
-307.193
 21
66.5238
  0
LINE
  8
0
 10
-307.193
 20
66.5238
 11
-307.283
 21
66.7584
  0
LINE
  8
0
 10
-307.283
 20
66.7584
 11
-307.348
 21
67.001
  0
LINE
  8
0
 10
-307.348
 20
67.001
 11
-307.387
 21
67.2491
  0
LINE
  8
0
 10
-307.387
 20
67.2491
 11
-307.4
 21
67.5
  0
LINE
  8
0
 10
-307.4
 20
67.5
 11
-307.387
 21
67.7509
  0
LINE
  8
0
 10
-307.387
 20
67.7509
 11
-307.348
 21
67.999
  0
LINE
  8
0
 10
-307.348
 20
67.999
 11
-307.283
 21
68.2416
  0
LINE
  8
0
 10
-307.283
 20
68.2416
 11
-307.193
 21
68.4762
  0
LINE
  8
0
 10
-307.193
 20
68.4762
 11
-307.078
 21
68.7
  0
LINE
  8
0
 10
-307.078
 20
68.7
 11
-306.942
 21
68.9107
  0
LINE
  8
0
 10
-306.942
 20
68.9107
 11
-306.784
 21
69.1059
  0
LINE
  8
0
 10
-306.784
 20
69.1059
 11
-306.606
 21
69.2835
  0
LINE
  8
0
 10
-306.606
 20
69.2835
 11
-306.411
 21
69.4416
  0
LINE
  8
0
 10
-306.411
 20
69.4416
 11
-306.2
 21
69.5785
  0
LINE
  8
0
 10
-306.2
 20
69.5785
 11
-305.976
 21
69.6925
  0
LINE
  8
0
 10
-305.976
 20
69.6925
 11
-305.742
 21
69.7825
  0
LINE
  8
0
 10
-305.742
 20
69.7825
 11
-305.499
 21
69.8475
  0
LINE
  8
0
 10
-305.499
 20
69.8475
 11
-305.251
 21
69.8869
  0
LINE
  8
0
 10
-305.251
 20
69.8869
 11
-305
 21
69.9
  0
LINE
  8
0
 10
-305
 20
69.9
 11
-304.749
 21
69.8869
  0
LINE
  8
0
 10
-304.749
 20
69.8869
 11
-304.501
 21
69.8475
  0
LINE
  8
0
 10
-304.501
 20
69.8475
 11
-304.258
 21
69.7825
  0
LINE
  8
0
 10
-304.258
 20
69.7825
 11
-304.024
 21
69.6925
  0
LINE
  8
0
 10
-304.024
 20
69.6925
 11
-303.8
 21
69.5785
  0
LINE
  8
0
 10
-303.8
 20
69.5785
 11
-303.589
 21
69.4416
  0
LINE
  8
0
 10
-303.589
 20
69.4416
 11
-303.394
 21
69.2835
  0
LINE
  8
0
 10
-303.394
 20
69.2835
 11
-303.216
 21
69.1059
  0
LINE
  8
0
 10
-303.216
 20
69.1059
 11
-303.058
 21
68.9107
  0
LINE
  8
0
 10
-303.058
 20
68.9107
 11
-302.922
 21
68.7
  0
LINE
  8
0
 10
-302.922
 20
68.7
 11
-302.807
 21
68.4762
  0
LINE
  8
0
 10
-302.807
 20
68.4762
 11
-302.717
 21
68.2416
  0
LINE
  8
0
 10
-302.717
 20
68.2416
 11
-302.652
 21
67.999
  0
LINE
  8
0
 10
-302.652
 20
67.999
 11
-302.613
 21
67.7509
  0
LINE
  8
0
 10
-302.613
 20
67.7509
 11
-302.6
 21
67.5
  0
LINE
  8
0
 10
-302.6
 20
67.5
 11
-302.613
 21
67.2491
  0
LINE
  8
0
 10
-302.613
 20
67.2491
 11
-302.652
 21
67.001
  0
LINE
  8
0
 10
-302.652
 20
67.001
 11
-302.717
 21
66.7584
  0
LINE
  8
0
 10
-302.717
 20
66.7584
 11
-302.807
 21
66.5238
  0
LINE
  8
0
 10
-302.807
 20
66.5238
 11
-302.922
 21
66.3
  0
LINE
  8
0
 10
-302.922
 20
66.3
 11
-303.058
 21
66.0893
  0
LINE
  8
0
 10
-303.058
 20
66.0893
 11
-303.216
 21
65.8941
  0
LINE
  8
0
 10
-303.216
 20
65.8941
 11
-303.394
 21
65.7164
  0
LINE
  8
0
 10
-303.394
 20
65.7164
 11
-303.589
 21
65.5583
  0
LINE
  8
0
 10
-303.589
 20
65.5583
 11
-303.8
 21
65.4215
  0
LINE
  8
0
 10
-303.8
 20
65.4215
 11
-304.024
 21
65.3075
  0
LINE
  8
0
 10
-304.024
 20
65.3075
 11
-304.258
 21
65.2175
  0
LINE
  8
0
 10
-304.258
 20
65.2175
 11
-304.501
 21
65.1524
  0
LINE
  8
0
 10
-304.501
 20
65.1524
 11
-304.749
 21
65.1131
  0
LINE
  8
0
 10
-304.749
 20
65.1131
 11
-305
 21
65.1
  0
LINE
  8
0
 10
-305
 20
65.1
 11
-305.251
 21
65.1131
  0
LINE
  8
0
 10
304.749
 20
65.1131
 11
304.501
 21
65.1524
  0
LINE
  8
0
 10
304.501
 20
65.1524
 11
304.258
 21
65.2175
  0
LINE
  8
0
 10
304.258
 20
65.2175
 11
304.024
 21
65.3075
  0
LINE
  8
0
 10
304.024
 20
65.3075
 11
303.8
 21
65.4215
  0
LINE
  8
0
 10
303.8
 20
65.4215
 11
303.589
 21
65.5583
  0
LINE
  8
0
 10
303.589
 20
65.5583
 11
303.394
 21
65.7164
  0
LINE
  8
0
 10
303.394
 20
65.7164
 11
303.216
 21
65.8941
  0
LINE
  8
0
 10
303.216
 20
65.8941
 11
303.058
 21
66.0893
  0
LINE
  8
0
 10
303.058
 20
66.0893
 11
302.922
 21
66.3
  0
LINE
  8
0
 10
302.922
 20
66.3
 11
302.807
 21
66.5238
  0
LINE
  8
0
 10
302.807
 20
66.5238
 11
302.717
 21
66.7584
  0
LINE
  8
0
 10
302.717
 20
66.7584
 11
302.652
 21
67.001
  0
LINE
  8
0
 10
302.652
 20
67.001
 11
302.613
 21
67.2491
  0
LINE
  8
0
 10
302.613
 20
67.2491
 11
302.6
 21
67.5
  0
LINE
  8
0
 10
302.6
 20
67.5
 11
302.613
 21
67.7509
  0
LINE
  8
0
 10
302.613
 20
67.7509
 11
302.652
 21
67.999
  0
LINE
  8
0
 10
302.652
 20
67.999
 11
302.717
 21
68.2416
  0
LINE
  8
0
 10
302.717
 20
68.2416
 11
302.807
 21
68.4762
  0
LINE
  8
0
 10
302.807
 20
68.4762
 11
302.922
 21
68.7
  0
LINE
  8
0
 10
302.922
 20
68.7
 11
303.058
 21
68.9107
  0
LINE
  8
0
 10
303.058
 20
68.9107
 11
303.216
 21
69.1059
  0
LINE
  8
0
 10
303.216
 20
69.1059
 11
303.394
 21
69.2835
  0
LINE
  8
0
 10
303.394
 20
69.2835
 11
303.589
 21
69.4416
  0
LINE
  8
0
 10
303.589
 20
69.4416
 11
303.8
 21
69.5785
  0
LINE
  8
0
 10
303.8
 20
69.5785
 11
304.024
 21
69.6925
  0
LINE
  8
0
 10
304.024
 20
69.6925
 11
304.258
 21
69.7825
  0
LINE
  8
0
 10
304.258
 20
69.7825
 11
304.501
 21
69.8475
  0
LINE
  8
0
 10
304.501
 20
69.8475
 11
304.749
 21
69.8869
  0
LINE
  8
0
 10
304.749
 20
69.8869
 11
305
 21
69.9
  0
LINE
  8
0
 10
305
 20
69.9
 11
305.251
 21
69.8869
  0
LINE
  8
0
 10
305.251
 20
69.8869
 11
305.499
 21
69.8475
  0
LINE
  8
0
 10
305.499
 20
69.8475
 11
305.742
 21
69.7825
  0
LINE
  8
0
 10
305.742
 20
69.7825
 11
305.976
 21
69.6925
  0
LINE
  8
0
 10
305.976
 20
69.6925
 11
306.2
 21
69.5785
  0
LINE
  8
0
 10
306.2
 20
69.5785
 11
306.411
 21
69.4416
  0
LINE
  8
0
 10
306.411
 20
69.4416
 11
306.606
 21
69.2835
  0
LINE
  8
0
 10
306.606
 20
69.2835
 11
306.784
 21
69.1059
  0
LINE
  8
0
 10
306.784
 20
69.1059
 11
306.942
 21
68.9107
  0
LINE
  8
0
 10
306.942
 20
68.9107
 11
307.078
 21
68.7
  0
LINE
  8
0
 10
307.078
 20
68.7
 11
307.193
 21
68.4762
  0
LINE
  8
0
 10
307.193
 20
68.4762
 11
307.283
 21
68.2416
  0
LINE
  8
0
 10
307.283
 20
68.2416
 11
307.348
 21
67.999
  0
LINE
  8
0
 10
307.348
 20
67.999
 11
307.387
 21
67.7509
  0
LINE
  8
0
 10
307.387
 20
67.7509
 11
307.4
 21
67.5
  0
LINE
  8
0
 10
307.4
 20
67.5
 11
307.387
 21
67.2491
  0
LINE
  8
0
 10
307.387
 20
67.2491
 11
307.348
 21
67.001
  0
LINE
  8
0
 10
307.348
 20
67.001
 11
307.283
 21
66.7584
  0
LINE
  8
0
 10
307.283
 20
66.7584
 11
307.193
 21
66.5238
  0
LINE
  8
0
 10
307.193
 20
66.5238
 11
307.078
 21
66.3
  0
LINE
  8
0
 10
307.078
 20
66.3
 11
306.942
 21
66.0893
  0
LINE
  8
0
 10
306.942
 20
66.0893
 11
306.784
 21
65.8941
  0
LINE
  8
0
 10
306.784
 20
65.8941
 11
306.606
 21
65.7164
  0
LINE
  8
0
 10
306.606
 20
65.7164
 11
306.411
 21
65.5583
  0
LINE
  8
0
 10
306.411
 20
65.5583
 11
306.2
 21
65.4215
  0
LINE
  8
0
 10
306.2
 20
65.4215
 11
305.976
 21
65.3075
  0
LINE
  8
0
 10
305.976
 20
65.3075
 11
305.742
 21
65.2175
  0
LINE
  8
0
 10
305.742
 20
65.2175
 11
305.499
 21
65.1524
  0
LINE
  8
0
 10
305.499
 20
65.1524
 11
305.251
 21
65.1131
  0
LINE
  8
0
 10
305.251
 20
65.1131
 11
305
 21
65.1
  0
LINE
  8
0
 10
305
 20
65.1
 11
304.749
 21
65.1131
  0
LINE
  8
0
 10
-240.249
 20
-55.8988
 11
-240.493
 21
-55.8458
  0
LINE
  8
0
 10
-240.493
 20
-55.8458
 11
-240.727
 21
-55.7585
  0
LINE
  8
0
 10
-240.727
 20
-55.7585
 11
-240.946
 21
-55.6389
  0
LINE
  8
0
 10
-240.946
 20
-55.6389
 11
-241.146
 21
-55.4892
  0
LINE
  8
0
 10
-241.146
 20
-55.4892
 11
-241.323
 21
-55.3127
  0
LINE
  8
0
 10
-241.323
 20
-55.3127
 11
-241.472
 21
-55.1128
  0
LINE
  8
0
 10
-241.472
 20
-55.1128
 11
-241.592
 21
-54.8936
  0
LINE
  8
0
 10
-241.592
 20
-54.8936
 11
-241.679
 21
-54.6597
  0
LINE
  8
0
 10
-241.679
 20
-54.6597
 11
-241.732
 21
-54.4157
  0
LINE
  8
0
 10
-241.732
 20
-54.4157
 11
-241.75
 21
-54.1667
  0
LINE
  8
0
 10
-241.75
 20
-54.1667
 11
-241.75
 21
64.1667
  0
LINE
  8
0
 10
-241.75
 20
64.1667
 11
-241.732
 21
64.4157
  0
LINE
  8
0
 10
-241.732
 20
64.4157
 11
-241.679
 21
64.6597
  0
LINE
  8
0
 10
-241.679
 20
64.6597
 11
-241.592
 21
64.8936
  0
LINE
  8
0
 10
-241.592
 20
64.8936
 11
-241.472
 21
65.1128
  0
LINE
  8
0
 10
-241.472
 20
65.1128
 11
-241.323
 21
65.3127
  0
LINE
  8
0
 10
-241.323
 20
65.3127
 11
-241.146
 21
65.4892
  0
LINE
  8
0
 10
-241.146
 20
65.4892
 11
-240.946
 21
65.6389
  0
LINE
  8
0
 10
-240.946
 20
65.6389
 11
-240.727
 21
65.7585
  0
LINE
  8
0
 10
-240.727
 20
65.7585
 11
-240.493
 21
65.8458
  0
LINE
  8
0
 10
-240.493
 20
65.8458
 11
-240.249
 21
65.8988
  0
LINE
  8
0
 10
-240.249
 20
65.8988
 11
-240
 21
65.9167
  0
LINE
  8
0
 10
-240
 20
65.9167
 11
-239.751
 21
65.8988
  0
LINE
  8
0
 10
-239.751
 20
65.8988
 11
-239.507
 21
65.8458
  0
LINE
  8
0
 10
-239.507
 20
65.8458
 11
-239.273
 21
65.7585
  0
LINE
  8
0
 10
-239.273
 20
65.7585
 11
-239.054
 21
65.6389
  0
LINE
  8
0
 10
-239.054
 20
65.6389
 11
-238.854
 21
65.4892
  0
LINE
  8
0
 10
-238.854
 20
65.4892
 11
-238.677
 21
65.3127
  0
LINE
  8
0
 10
-238.677
 20
65.3127
 11
-238.528
 21
65.1128
  0
LINE
  8
0
 10
-238.528
 20
65.1128
 11
-238.408
 21
64.8936
  0
LINE
  8
0
 10
-238.408
 20
64.8936
 11
-238.321
 21
64.6597
  0
LINE
  8
0
 10
-238.321
 20
64.6597
 11
-238.268
 21
64.4157
  0
LINE
  8
0
 10
-238.268
 20
64.4157
 11
-238.25
 21
64.1667
  0
LINE
  8
0
 10
-238.25
 20
64.1667
 11
-238.25
 21
-54.1667
  0
LINE
  8
0
 10
-238.25
 20
-54.1667
 11
-238.268
 21
-54.4157
  0
LINE
  8
0
 10
-238.268
 20
-54.4157
 11
-238.321
 21
-54.6597
  0
LINE
  8
0
 10
-238.321
 20
-54.6597
 11
-238.408
 21
-54.8936
  0
LINE
  8
0
 10
-238.408
 20
-54.8936
 11
-238.528
 21
-55.1128
  0
LINE
  8
0
 10
-238.528
 20
-55.1128
 11
-238.677
 21
-55.3127
  0
LINE
  8
0
 10
-238.677
 20
-55.3127
 11
-238.854
 21
-55.4892
  0
LINE
  8
0
 10
-238.854
 20
-55.4892
 11
-239.054
 21
-55.6389
  0
LINE
  8
0
 10
-239.054
 20
-55.6389
 11
-239.273
 21
-55.7585
  0
LINE
  8
0
 10
-239.273
 20
-55.7585
 11
-239.507
 21
-55.8458
  0
LINE
  8
0
 10
-239.507
 20
-55.8458
 11
-239.751
 21
-55.8988
  0
LINE
  8
0
 10
-239.751
 20
-55.8988
 11
-240
 21
-55.9167
  0
LINE
  8
0
 10
-240
 20
-55.9167
 11
-240.249
 21
-55.8988
  0
LINE
  8
0
 10
239.751
 20
-55.8988
 11
239.507
 21
-55.8458
  0
LINE
  8
0
 10
239.507
 20
-55.8458
 11
239.273
 21
-55.7585
  0
LINE
  8
0
 10
239.273
 20
-55.7585
 11
239.054
 21
-55.6389
  0
LINE
  8
0
 10
239.054
 20
-55.6389
 11
238.854
 21
-55.4892
  0
LINE
  8
0
 10
238.854
 20
-55.4892
 11
238.677
 21
-55.3127
  0
LINE
  8
0
 10
238.677
 20
-55.3127
 11
238.528
 21
-55.1128
  0
LINE
  8
0
 10
238.528
 20
-55.1128
 11
238.408
 21
-54.8936
  0
LINE
  8
0
 10
238.408
 20
-54.8936
 11
238.321
 21
-54.6597
  0
LINE
  8
0
 10
238.321
 20
-54.6597
 11
238.268
 21
-54.4157
  0
LINE
  8
0
 10
238.268
 20
-54.4157
 11
238.25
 21
-54.1667
  0
LINE
  8
0
 10
238.25
 20
-54.1667
 11
238.25
 21
64.1667
  0
LINE
  8
0
 10
238.25
 20
64.1667
 11
238.268
 21
64.4157
  0
LINE
  8
0
 10
238.268
 20
64.4157
 11
238.321
 21
64.6597
  0
LINE
  8
0
 10
238.321
 20
64.6597
 11
238.408
 21
64.8936
  0
LINE
  8
0
 10
238.408
 20
64.8936
 11
238.528
 21
65.1128
  0
LINE
  8
0
 10
238.528
 20
65.1128
 11
238.677
 21
65.3127
  0
LINE
  8
0
 10
238.677
 20
65.3127
 11
238.854
 21
65.4892
  0
LINE
  8
0
 10
238.854
 20
65.4892
 11
239.054
 21
65.6389
  0
LINE
  8
0
 10
239.054
 20
65.6389
 11
239.273
 21
65.7585
  0
LINE
  8
0
 10
239.273
 20
65.7585
 11
239.507
 21
65.8458
  0
LINE
  8
0
 10
239.507
 20
65.8458
 11
239.751
 21
65.8988
  0
LINE
  8
0
 10
239.751
 20
65.8988
 11
240
 21
65.9167
  0
LINE
  8
0
 10
240
 20
65.9167
 11
240.249
 21
65.8988
  0
LINE
  8
0
 10
240.249
 20
65.8988
 11
240.493
 21
65.8458
  0
LINE
  8
0
 10
240.493
 20
65.8458
 11
240.727
 21
65.7585
  0
LINE
  8
0
 10
240.727
 20
65.7585
 11
240.946
 21
65.6389
  0
LINE
  8
0
 10
240.946
 20
65.6389
 11
241.146
 21
65.4892
  0
LINE
  8
0
 10
241.146
 20
65.4892
 11
241.323
 21
65.3127
  0
LINE
  8
0
 10
241.323
 20
65.3127
 11
241.472
 21
65.1128
  0
LINE
  8
0
 10
241.472
 20
65.1128
 11
241.592
 21
64.8936
  0
LINE
  8
0
 10
241.592
 20
64.8936
 11
241.679
 21
64.6597
  0
LINE
  8
0
 10
241.679
 20
64.6597
 11
241.732
 21
64.4157
  0
LINE
  8
0
 10
241.732
 20
64.4157
 11
241.75
 21
64.1667
  0
LINE
  8
0
 10
241.75
 20
64.1667
 11
241.75
 21
-54.1667
  0
LINE
  8
0
 10
241.75
 20
-54.1667
 11
241.732
 21
-54.4157
  0
LINE
  8
0
 10
241.732
 20
-54.4157
 11
241.679
 21
-54.6597
  0
LINE
  8
0
 10
241.679
 20
-54.6597
 11
241.592
 21
-54.8936
  0
LINE
  8
0
 10
241.592
 20
-54.8936
 11
241.472
 21
-55.1128
  0
LINE
  8
0
 10
241.472
 20
-55.1128
 11
241.323
 21
-55.3127
  0
LINE
  8
0
 10
241.323
 20
-55.3127
 11
241.146
 21
-55.4892
  0
LINE
  8
0
 10
241.146
 20
-55.4892
 11
240.946
 21
-55.6389
  0
LINE
  8
0
 10
240.946
 20
-55.6389
 11
240.727
 21
-55.7585
  0
LINE
  8
0
 10
240.727
 20
-55.7585
 11
240.493
 21
-55.8458
  0
LINE
  8
0
 10
240.493
 20
-55.8458
 11
240.249
 21
-55.8988
  0
LINE
  8
0
 10
240.249
 20
-55.8988
 11
240
 21
-55.9167
  0
LINE
  8
0
 10
240
 20
-55.9167
 11
239.751
 21
-55.8988
  0
LINE
  8
0
 10
304.603
 20
43.7208
 11
304.21
 21
43.783
  0
LINE
  8
0
 10
304.21
 20
43.783
 11
303.826
 21
43.886
  0
LINE
  8
0
 10
303.826
 20
43.886
 11
303.454
 21
44.0285
  0
LINE
  8
0
 10
303.454
 20
44.0285
 11
303.1
 21
44.2091
  0
LINE
  8
0
 10
303.1
 20
44.2091
 11
302.766
 21
44.4257
  0
LINE
  8
0
 10
302.766
 20
44.4257
 11
302.457
 21
44.676
  0
LINE
  8
0
 10
302.457
 20
44.676
 11
302.176
 21
44.9573
  0
LINE
  8
0
 10
302.176
 20
44.9573
 11
301.926
 21
45.2664
  0
LINE
  8
0
 10
301.926
 20
45.2664
 11
301.709
 21
45.6
  0
LINE
  8
0
 10
301.709
 20
45.6
 11
301.529
 21
45.9544
  0
LINE
  8
0
 10
301.529
 20
45.9544
 11
301.386
 21
46.3257
  0
LINE
  8
0
 10
301.386
 20
46.3257
 11
301.283
 21
46.7099
  0
LINE
  8
0
 10
301.283
 20
46.7099
 11
301.221
 21
47.1028
  0
LINE
  8
0
 10
301.221
 20
47.1028
 11
301.2
 21
47.5
  0
LINE
  8
0
 10
301.2
 20
47.5
 11
301.221
 21
47.8972
  0
LINE
  8
0
 10
301.221
 20
47.8972
 11
301.283
 21
48.2901
  0
LINE
  8
0
 10
301.283
 20
48.2901
 11
301.386
 21
48.6743
  0
LINE
  8
0
 10
301.386
 20
48.6743
 11
301.529
 21
49.0456
  0
LINE
  8
0
 10
301.529
 20
49.0456
 11
301.709
 21
49.4
  0
LINE
  8
0
 10
301.709
 20
49.4
 11
301.926
 21
49.7336
  0
LINE
  8
0
 10
301.926
 20
49.7336
 11
302.176
 21
50.0427
  0
LINE
  8
0
 10
302.176
 20
50.0427
 11
302.457
 21
50.3239
  0
LINE
  8
0
 10
302.457
 20
50.3239
 11
302.766
 21
50.5743
  0
LINE
  8
0
 10
302.766
 20
50.5743
 11
303.1
 21
50.7909
  0
LINE
  8
0
 10
303.1
 20
50.7909
 11
303.454
 21
50.9715
  0
LINE
  8
0
 10
303.454
 20
50.9715
 11
303.826
 21
51.114
  0
LINE
  8
0
 10
303.826
 20
51.114
 11
304.21
 21
51.2169
  0
LINE
  8
0
 10
304.21
 20
51.2169
 11
304.603
 21
51.2792
  0
LINE
  8
0
 10
304.603
 20
51.2792
 11
305
 21
51.3
  0
LINE
  8
0
 10
305
 20
51.3
 11
305.397
 21
51.2792
  0
LINE
  8
0
 10
305.397
 20
51.2792
 11
305.79
 21
51.2169
  0
LINE
  8
0
 10
305.79
 20
51.2169
 11
306.174
 21
51.114
  0
LINE
  8
0
 10
306.174
 20
51.114
 11
306.546
 21
50.9715
  0
LINE
  8
0
 10
306.546
 20
50.9715
 11
306.9
 21
50.7909
  0
LINE
  8
0
 10
306.9
 20
50.7909
 11
307.234
 21
50.5743
  0
LINE
  8
0
 10
307.234
 20
50.5743
 11
307.543
 21
50.3239
  0
LINE
  8
0
 10
307.543
 20
50.3239
 11
307.824
 21
50.0427
  0
LINE
  8
0
 10
307.824
 20
50.0427
 11
308.074
 21
49.7336
  0
LINE
  8
0
 10
308.074
 20
49.7336
 11
308.291
 21
49.4
  0
LINE
  8
0
 10
308.291
 20
49.4
 11
308.471
 21
49.0456
  0
LINE
  8
0
 10
308.471
 20
49.0456
 11
308.614
 21
48.6743
  0
LINE
  8
0
 10
308.614
 20
48.6743
 11
308.717
 21
48.2901
  0
LINE
  8
0
 10
308.717
 20
48.2901
 11
308.779
 21
47.8972
  0
LINE
  8
0
 10
308.779
 20
47.8972
 11
308.8
 21
47.5
  0
LINE
  8
0
 10
308.8
 20
47.5
 11
308.779
 21
47.1028
  0
LINE
  8
0
 10
308.779
 20
47.1028
 11
308.717
 21
46.7099
  0
LINE
  8
0
 10
308.717
 20
46.7099
 11
308.614
 21
46.3257
  0
LINE
  8
0
 10
308.614
 20
46.3257
 11
308.471
 21
45.9544
  0
LINE
  8
0
 10
308.471
 20
45.9544
 11
308.291
 21
45.6
  0
LINE
  8
0
 10
308.291
 20
45.6
 11
308.074
 21
45.2664
  0
LINE
  8
0
 10
308.074
 20
45.2664
 11
307.824
 21
44.9573
  0
LINE
  8
0
 10
307.824
 20
44.9573
 11
307.543
 21
44.676
  0
LINE
  8
0
 10
307.543
 20
44.676
 11
307.234
 21
44.4257
  0
LINE
  8
0
 10
307.234
 20
44.4257
 11
306.9
 21
44.2091
  0
LINE
  8
0
 10
306.9
 20
44.2091
 11
306.546
 21
44.0285
  0
LINE
  8
0
 10
306.546
 20
44.0285
 11
306.174
 21
43.886
  0
LINE
  8
0
 10
306.174
 20
43.886
 11
305.79
 21
43.783
  0
LINE
  8
0
 10
305.79
 20
43.783
 11
305.397
 21
43.7208
  0
LINE
  8
0
 10
305.397
 20
43.7208
 11
305
 21
43.7
  0
LINE
  8
0
 10
305
 20
43.7
 11
304.603
 21
43.7208
  0
LINE
  8
0
 10
-305.397
 20
43.7208
 11
-305.79
 21
43.783
  0
LINE
  8
0
 10
-305.79
 20
43.783
 11
-306.174
 21
43.886
  0
LINE
  8
0
 10
-306.174
 20
43.886
 11
-306.546
 21
44.0285
  0
LINE
  8
0
 10
-306.546
 20
44.0285
 11
-306.9
 21
44.2091
  0
LINE
  8
0
 10
-306.9
 20
44.2091
 11
-307.234
 21
44.4257
  0
LINE
  8
0
 10
-307.234
 20
44.4257
 11
-307.543
 21
44.676
  0
LINE
  8
0
 10
-307.543
 20
44.676
 11
-307.824
 21
44.9573
  0
LINE
  8
0
 10
-307.824
 20
44.9573
 11
-308.074
 21
45.2664
  0
LINE
  8
0
 10
-308.074
 20
45.2664
 11
-308.291
 21
45.6
  0
LINE
  8
0
 10
-308.291
 20
45.6
 11
-308.471
 21
45.9544
  0
LINE
  8
0
 10
-308.471
 20
45.9544
 11
-308.614
 21
46.3257
  0
LINE
  8
0
 10
-308.614
 20
46.3257
 11
-308.717
 21
46.7099
  0
LINE
  8
0
 10
-308.717
 20
46.7099
 11
-308.779
 21
47.1028
  0
LINE
  8
0
 10
-308.779
 20
47.1028
 11
-308.8
 21
47.5
  0
LINE
  8
0
 10
-308.8
 20
47.5
 11
-308.779
 21
47.8972
  0
LINE
  8
0
 10
-308.779
 20
47.8972
 11
-308.717
 21
48.2901
  0
LINE
  8
0
 10
-308.717
 20
48.2901
 11
-308.614
 21
48.6743
  0
LINE
  8
0
 10
-308.614
 20
48.6743
 11
-308.471
 21
49.0456
  0
LINE
  8
0
 10
-308.471
 20
49.0456
 11
-308.291
 21
49.4
  0
LINE
  8
0
 10
-308.291
 20
49.4
 11
-308.074
 21
49.7336
  0
LINE
  8
0
 10
-308.074
 20
49.7336
 11
-307.824
 21
50.0427
  0
LINE
  8
0
 10
-307.824
 20
50.0427
 11
-307.543
 21
50.3239
  0
LINE
  8
0
 10
-307.543
 20
50.3239
 11
-307.234
 21
50.5743
  0
LINE
  8
0
 10
-307.234
 20
50.5743
 11
-306.9
 21
50.7909
  0
LINE
  8
0
 10
-306.9
 20
50.7909
 11
-306.546
 21
50.9715
  0
LINE
  8
0
 10
-306.546
 20
50.9715
 11
-306.174
 21
51.114
  0
LINE
  8
0
 10
-306.174
 20
51.114
 11
-305.79
 21
51.2169
  0
LINE
  8
0
 10
-305.79
 20
51.2169
 11
-305.397
 21
51.2792
  0
LINE
  8
0
 10
-305.397
 20
51.2792
 11
-305
 21
51.3
  0
LINE
  8
0
 10
-305
 20
51.3
 11
-304.603
 21
51.2792
  0
LINE
  8
0
 10
-304.603
 20
51.2792
 11
-304.21
 21
51.2169
  0
LINE
  8
0
 10
-304.21
 20
51.2169
 11
-303.826
 21
51.114
  0
LINE
  8
0
 10
-303.826
 20
51.114
 11
-303.454
 21
50.9715
  0
LINE
  8
0
 10
-303.454
 20
50.9715
 11
-303.1
 21
50.7909
  0
LINE
  8
0
 10
-303.1
 20
50.7909
 11
-302.766
 21
50.5743
  0
LINE
  8
0
 10
-302.766
 20
50.5743
 11
-302.457
 21
50.3239
  0
LINE
  8
0
 10
-302.457
 20
50.3239
 11
-302.176
 21
50.0427
  0
LINE
  8
0
 10
-302.176
 20
50.0427
 11
-301.926
 21
49.7336
  0
LINE
  8
0
 10
-301.926
 20
49.7336
 11
-301.709
 21
49.4
  0
LINE
  8
0
 10
-301.709
 20
49.4
 11
-301.529
 21
49.0456
  0
LINE
  8
0
 10
-301.529
 20
49.0456
 11
-301.386
 21
48.6743
  0
LINE
  8
0
 10
-301.386
 20
48.6743
 11
-301.283
 21
48.2901
  0
LINE
  8
0
 10
-301.283
 20
48.2901
 11
-301.221
 21
47.8972
  0
LINE
  8
0
 10
-301.221
 20
47.8972
 11
-301.2
 21
47.5
  0
LINE
  8
0
 10
-301.2
 20
47.5
 11
-301.221
 21
47.1028
  0
LINE
  8
0
 10
-301.221
 20
47.1028
 11
-301.283
 21
46.7099
  0
LINE
  8
0
 10
-301.283
 20
46.7099
 11
-301.386
 21
46.3257
  0
LINE
  8
0
 10
-301.386
 20
46.3257
 11
-301.529
 21
45.9544
  0
LINE
  8
0
 10
-301.529
 20
45.9544
 11
-301.709
 21
45.6
  0
LINE
  8
0
 10
-301.709
 20
45.6
 11
-301.926
 21
45.2664
  0
LINE
  8
0
 10
-301.926
 20
45.2664
 11
-302.176
 21
44.9573
  0
LINE
  8
0
 10
-302.176
 20
44.9573
 11
-302.457
 21
44.676
  0
LINE
  8
0
 10
-302.457
 20
44.676
 11
-302.766
 21
44.4257
  0
LINE
  8
0
 10
-302.766
 20
44.4257
 11
-303.1
 21
44.2091
  0
LINE
  8
0
 10
-303.1
 20
44.2091
 11
-303.454
 21
44.0285
  0
LINE
  8
0
 10
-303.454
 20
44.0285
 11
-303.826
 21
43.886
  0
LINE
  8
0
 10
-303.826
 20
43.886
 11
-304.21
 21
43.783
  0
LINE
  8
0
 10
-304.21
 20
43.783
 11
-304.603
 21
43.7208
  0
LINE
  8
0
 10
-304.603
 20
43.7208
 11
-305
 21
43.7
  0
LINE
  8
0
 10
-305
 20
43.7
 11
-305.397
 21
43.7208
  0
LINE
  8
0
 10
-305.397
 20
23.7208
 11
-305.79
 21
23.783
  0
LINE
  8
0
 10
-305.79
 20
23.783
 11
-306.174
 21
23.886
  0
LINE
  8
0
 10
-306.174
 20
23.886
 11
-306.546
 21
24.0285
  0
LINE
  8
0
 10
-306.546
 20
24.0285
 11
-306.9
 21
24.2091
  0
LINE
  8
0
 10
-306.9
 20
24.2091
 11
-307.234
 21
24.4257
  0
LINE
  8
0
 10
-307.234
 20
24.4257
 11
-307.543
 21
24.676
  0
LINE
  8
0
 10
-307.543
 20
24.676
 11
-307.824
 21
24.9573
  0
LINE
  8
0
 10
-307.824
 20
24.9573
 11
-308.074
 21
25.2664
  0
LINE
  8
0
 10
-308.074
 20
25.2664
 11
-308.291
 21
25.6
  0
LINE
  8
0
 10
-308.291
 20
25.6
 11
-308.471
 21
25.9544
  0
LINE
  8
0
 10
-308.471
 20
25.9544
 11
-308.614
 21
26.3257
  0
LINE
  8
0
 10
-308.614
 20
26.3257
 11
-308.717
 21
26.7099
  0
LINE
  8
0
 10
-308.717
 20
26.7099
 11
-308.779
 21
27.1028
  0
LINE
  8
0
 10
-308.779
 20
27.1028
 11
-308.8
 21
27.5
  0
LINE
  8
0
 10
-308.8
 20
27.5
 11
-308.779
 21
27.8972
  0
LINE
  8
0
 10
-308.779
 20
27.8972
 11
-308.717
 21
28.2901
  0
LINE
  8
0
 10
-308.717
 20
28.2901
 11
-308.614
 21
28.6743
  0
LINE
  8
0
 10
-308.614
 20
28.6743
 11
-308.471
 21
29.0456
  0
LINE
  8
0
 10
-308.471
 20
29.0456
 11
-308.291
 21
29.4
  0
LINE
  8
0
 10
-308.291
 20
29.4
 11
-308.074
 21
29.7336
  0
LINE
  8
0
 10
-308.074
 20
29.7336
 11
-307.824
 21
30.0427
  0
LINE
  8
0
 10
-307.824
 20
30.0427
 11
-307.543
 21
30.3239
  0
LINE
  8
0
 10
-307.543
 20
30.3239
 11
-307.234
 21
30.5743
  0
LINE
  8
0
 10
-307.234
 20
30.5743
 11
-306.9
 21
30.7909
  0
LINE
  8
0
 10
-306.9
 20
30.7909
 11
-306.546
 21
30.9715
  0
LINE
  8
0
 10
-306.546
 20
30.9715
 11
-306.174
 21
31.114
  0
LINE
  8
0
 10
-306.174
 20
31.114
 11
-305.79
 21
31.2169
  0
LINE
  8
0
 10
-305.79
 20
31.2169
 11
-305.397
 21
31.2792
  0
LINE
  8
0
 10
-305.397
 20
31.2792
 11
-305
 21
31.3
  0
LINE
  8
0
 10
-305
 20
31.3
 11
-304.603
 21
31.2792
  0
LINE
  8
0
 10
-304.603
 20
31.2792
 11
-304.21
 21
31.2169
  0
LINE
  8
0
 10
-304.21
 20
31.2169
 11
-303.826
 21
31.114
  0
LINE
  8
0
 10
-303.826
 20
31.114
 11
-303.454
 21
30.9715
  0
LINE
  8
0
 10
-303.454
 20
30.9715
 11
-303.1
 21
30.7909
  0
LINE
  8
0
 10
-303.1
 20
30.7909
 11
-302.766
 21
30.5743
  0
LINE
  8
0
 10
-302.766
 20
30.5743
 11
-302.457
 21
30.3239
  0
LINE
  8
0
 10
-302.457
 20
30.3239
 11
-302.176
 21
30.0427
  0
LINE
  8
0
 10
-302.176
 20
30.0427
 11
-301.926
 21
29.7336
  0
LINE
  8
0
 10
-301.926
 20
29.7336
 11
-301.709
 21
29.4
  0
LINE
  8
0
 10
-301.709
 20
29.4
 11
-301.529
 21
29.0456
  0
LINE
  8
0
 10
-301.529
 20
29.0456
 11
-301.386
 21
28.6743
  0
LINE
  8
0
 10
-301.386
 20
28.6743
 11
-301.283
 21
28.2901
  0
LINE
  8
0
 10
-301.283
 20
28.2901
 11
-301.221
 21
27.8972
  0
LINE
  8
0
 10
-301.221
 20
27.8972
 11
-301.2
 21
27.5
  0
LINE
  8
0
 10
-301.2
 20
27.5
 11
-301.221
 21
27.1028
  0
LINE
  8
0
 10
-301.221
 20
27.1028
 11
-301.283
 21
26.7099
  0
LINE
  8
0
 10
-301.283
 20
26.7099
 11
-301.386
 21
26.3257
  0
LINE
  8
0
 10
-301.386
 20
26.3257
 11
-301.529
 21
25.9544
  0
LINE
  8
0
 10
-301.529
 20
25.9544
 11
-301.709
 21
25.6
  0
LINE
  8
0
 10
-301.709
 20
25.6
 11
-301.926
 21
25.2664
  0
LINE
  8
0
 10
-301.926
 20
25.2664
 11
-302.176
 21
24.9573
  0
LINE
  8
0
 10
-302.176
 20
24.9573
 11
-302.457
 21
24.676
  0
LINE
  8
0
 10
-302.457
 20
24.676
 11
-302.766
 21
24.4257
  0
LINE
  8
0
 10
-302.766
 20
24.4257
 11
-303.1
 21
24.2091
  0
LINE
  8
0
 10
-303.1
 20
24.2091
 11
-303.454
 21
24.0285
  0
LINE
  8
0
 10
-303.454
 20
24.0285
 11
-303.826
 21
23.886
  0
LINE
  8
0
 10
-303.826
 20
23.886
 11
-304.21
 21
23.783
  0
LINE
  8
0
 10
-304.21
 20
23.783
 11
-304.603
 21
23.7208
  0
LINE
  8
0
 10
-304.603
 20
23.7208
 11
-305
 21
23.7
  0
LINE
  8
0
 10
-305
 20
23.7
 11
-305.397
 21
23.7208
  0
LINE
  8
0
 10
304.603
 20
23.7208
 11
304.21
 21
23.783
  0
LINE
  8
0
 10
304.21
 20
23.783
 11
303.826
 21
23.886
  0
LINE
  8
0
 10
303.826
 20
23.886
 11
303.454
 21
24.0285
  0
LINE
  8
0
 10
303.454
 20
24.0285
 11
303.1
 21
24.2091
  0
LINE
  8
0
 10
303.1
 20
24.2091
 11
302.766
 21
24.4257
  0
LINE
  8
0
 10
302.766
 20
24.4257
 11
302.457
 21
24.676
  0
LINE
  8
0
 10
302.457
 20
24.676
 11
302.176
 21
24.9573
  0
LINE
  8
0
 10
302.176
 20
24.9573
 11
301.926
 21
25.2664
  0
LINE
  8
0
 10
301.926
 20
25.2664
 11
301.709
 21
25.6
  0
LINE
  8
0
 10
301.709
 20
25.6
 11
301.529
 21
25.9544
  0
LINE
  8
0
 10
301.529
 20
25.9544
 11
301.386
 21
26.3257
  0
LINE
  8
0
 10
301.386
 20
26.3257
 11
301.283
 21
26.7099
  0
LINE
  8
0
 10
301.283
 20
26.7099
 11
301.221
 21
27.1028
  0
LINE
  8
0
 10
301.221
 20
27.1028
 11
301.2
 21
27.5
  0
LINE
  8
0
 10
301.2
 20
27.5
 11
301.221
 21
27.8972
  0
LINE
  8
0
 10
301.221
 20
27.8972
 11
301.283
 21
28.2901
  0
LINE
  8
0
 10
301.283
 20
28.2901
 11
301.386
 21
28.6743
  0
LINE
  8
0
 10
301.386
 20
28.6743
 11
301.529
 21
29.0456
  0
LINE
  8
0
 10
301.529
 20
29.0456
 11
301.709
 21
29.4
  0
LINE
  8
0
 10
301.709
 20
29.4
 11
301.926
 21
29.7336
  0
LINE
  8
0
 10
301.926
 20
29.7336
 11
302.176
 21
30.0427
  0
LINE
  8
0
 10
302.176
 20
30.0427
 11
302.457
 21
30.3239
  0
LINE
  8
0
 10
302.457
 20
30.3239
 11
302.766
 21
30.5743
  0
LINE
  8
0
 10
302.766
 20
30.5743
 11
303.1
 21
30.7909
  0
LINE
  8
0
 10
303.1
 20
30.7909
 11
303.454
 21
30.9715
  0
LINE
  8
0
 10
303.454
 20
30.9715
 11
303.826
 21
31.114
  0
LINE
  8
0
 10
303.826
 20
31.114
 11
304.21
 21
31.2169
  0
LINE
  8
0
 10
304.21
 20
31.2169
 11
304.603
 21
31.2792
  0
LINE
  8
0
 10
304.603
 20
31.2792
 11
305
 21
31.3
  0
LINE
  8
0
 10
305
 20
31.3
 11
305.397
 21
31.2792
  0
LINE
  8
0
 10
305.397
 20
31.2792
 11
305.79
 21
31.2169
  0
LINE
  8
0
 10
305.79
 20
31.2169
 11
306.174
 21
31.114
  0
LINE
  8
0
 10
306.174
 20
31.114
 11
306.546
 21
30.9715
  0
LINE
  8
0
 10
306.546
 20
30.9715
 11
306.9
 21
30.7909
  0
LINE
  8
0
 10
306.9
 20
30.7909
 11
307.234
 21
30.5743
  0
LINE
  8
0
 10
307.234
 20
30.5743
 11
307.543
 21
30.3239
  0
LINE
  8
0
 10
307.543
 20
30.3239
 11
307.824
 21
30.0427
  0
LINE
  8
0
 10
307.824
 20
30.0427
 11
308.074
 21
29.7336
  0
LINE
  8
0
 10
308.074
 20
29.7336
 11
308.291
 21
29.4
  0
LINE
  8
0
 10
308.291
 20
29.4
 11
308.471
 21
29.0456
  0
LINE
  8
0
 10
308.471
 20
29.0456
 11
308.614
 21
28.6743
  0
LINE
  8
0
 10
308.614
 20
28.6743
 11
308.717
 21
28.2901
  0
LINE
  8
0
 10
308.717
 20
28.2901
 11
308.779
 21
27.8972
  0
LINE
  8
0
 10
308.779
 20
27.8972
 11
308.8
 21
27.5
  0
LINE
  8
0
 10
308.8
 20
27.5
 11
308.779
 21
27.1028
  0
LINE
  8
0
 10
308.779
 20
27.1028
 11
308.717
 21
26.7099
  0
LINE
  8
0
 10
308.717
 20
26.7099
 11
308.614
 21
26.3257
  0
LINE
  8
0
 10
308.614
 20
26.3257
 11
308.471
 21
25.9544
  0
LINE
  8
0
 10
308.471
 20
25.9544
 11
308.291
 21
25.6
  0
LINE
  8
0
 10
308.291
 20
25.6
 11
308.074
 21
25.2664
  0
LINE
  8
0
 10
308.074
 20
25.2664
 11
307.824
 21
24.9573
  0
LINE
  8
0
 10
307.824
 20
24.9573
 11
307.543
 21
24.676
  0
LINE
  8
0
 10
307.543
 20
24.676
 11
307.234
 21
24.4257
  0
LINE
  8
0
 10
307.234
 20
24.4257
 11
306.9
 21
24.2091
  0
LINE
  8
0
 10
306.9
 20
24.2091
 11
306.546
 21
24.0285
  0
LINE
  8
0
 10
306.546
 20
24.0285
 11
306.174
 21
23.886
  0
LINE
  8
0
 10
306.174
 20
23.886
 11
305.79
 21
23.783
  0
LINE
  8
0
 10
305.79
 20
23.783
 11
305.397
 21
23.7208
  0
LINE
  8
0
 10
305.397
 20
23.7208
 11
305
 21
23.7
  0
LINE
  8
0
 10
305
 20
23.7
 11
304.603
 21
23.7208
  0
LINE
  8
0
 10
304.603
 20
-31.2792
 11
304.21
 21
-31.2169
  0
LINE
  8
0
 10
304.21
 20
-31.2169
 11
303.826
 21
-31.114
  0
LINE
  8
0
 10
303.826
 20
-31.114
 11
303.454
 21
-30.9715
  0
LINE
  8
0
 10
303.454
 20
-30.9715
 11
303.1
 21
-30.7909
  0
LINE
  8
0
 10
303.1
 20
-30.7909
 11
302.766
 21
-30.5743
  0
LINE
  8
0
 10
302.766
 20
-30.5743
 11
302.457
 21
-30.3239
  0
LINE
  8
0
 10
302.457
 20
-30.3239
 11
302.176
 21
-30.0427
  0
LINE
  8
0
 10
302.176
 20
-30.0427
 11
301.926
 21
-29.7336
  0
LINE
  8
0
 10
301.926
 20
-29.7336
 11
301.709
 21
-29.4
  0
LINE
  8
0
 10
301.709
 20
-29.4
 11
301.529
 21
-29.0456
  0
LINE
  8
0
 10
301.529
 20
-29.0456
 11
301.386
 21
-28.6743
  0
LINE
  8
0
 10
301.386
 20
-28.6743
 11
301.283
 21
-28.2901
  0
LINE
  8
0
 10
301.283
 20
-28.2901
 11
301.221
 21
-27.8972
  0
LINE
  8
0
 10
301.221
 20
-27.8972
 11
301.2
 21
-27.5
  0
LINE
  8
0
 10
301.2
 20
-27.5
 11
301.221
 21
-27.1028
  0
LINE
  8
0
 10
301.221
 20
-27.1028
 11
301.283
 21
-26.7099
  0
LINE
  8
0
 10
301.283
 20
-26.7099
 11
301.386
 21
-26.3257
  0
LINE
  8
0
 10
301.386
 20
-26.3257
 11
301.529
 21
-25.9544
  0
LINE
  8
0
 10
301.529
 20
-25.9544
 11
301.709
 21
-25.6
  0
LINE
  8
0
 10
301.709
 20
-25.6
 11
301.926
 21
-25.2664
  0
LINE
  8
0
 10
301.926
 20
-25.2664
 11
302.176
 21
-24.9573
  0
LINE
  8
0
 10
302.176
 20
-24.9573
 11
302.457
 21
-24.676
  0
LINE
  8
0
 10
302.457
 20
-24.676
 11
302.766
 21
-24.4257
  0
LINE
  8
0
 10
302.766
 20
-24.4257
 11
303.1
 21
-24.2091
  0
LINE
  8
0
 10
303.1
 20
-24.2091
 11
303.454
 21
-24.0285
  0
LINE
  8
0
 10
303.454
 20
-24.0285
 11
303.826
 21
-23.886
  0
LINE
  8
0
 10
303.826
 20
-23.886
 11
304.21
 21
-23.783
  0
LINE
  8
0
 10
304.21
 20
-23.783
 11
304.603
 21
-23.7208
  0
LINE
  8
0
 10
304.603
 20
-23.7208
 11
305
 21
-23.7
  0
LINE
  8
0
 10
305
 20
-23.7
 11
305.397
 21
-23.7208
  0
LINE
  8
0
 10
305.397
 20
-23.7208
 11
305.79
 21
-23.783
  0
LINE
  8
0
 10
305.79
 20
-23.783
 11
306.174
 21
-23.886
  0
LINE
  8
0
 10
306.174
 20
-23.886
 11
306.546
 21
-24.0285
  0
LINE
  8
0
 10
306.546
 20
-24.0285
 11
306.9
 21
-24.2091
  0
LINE
  8
0
 10
306.9
 20
-24.2091
 11
307.234
 21
-24.4257
  0
LINE
  8
0
 10
307.234
 20
-24.4257
 11
307.543
 21
-24.676
  0
LINE
  8
0
 10
307.543
 20
-24.676
 11
307.824
 21
-24.9573
  0
LINE
  8
0
 10
307.824
 20
-24.9573
 11
308.074
 21
-25.2664
  0
LINE
  8
0
 10
308.074
 20
-25.2664
 11
308.291
 21
-25.6
  0
LINE
  8
0
 10
308.291
 20
-25.6
 11
308.471
 21
-25.9544
  0
LINE
  8
0
 10
308.471
 20
-25.9544
 11
308.614
 21
-26.3257
  0
LINE
  8
0
 10
308.614
 20
-26.3257
 11
308.717
 21
-26.7099
  0
LINE
  8
0
 10
308.717
 20
-26.7099
 11
308.779
 21
-27.1028
  0
LINE
  8
0
 10
308.779
 20
-27.1028
 11
308.8
 21
-27.5
  0
LINE
  8
0
 10
308.8
 20
-27.5
 11
308.779
 21
-27.8972
  0
LINE
  8
0
 10
308.779
 20
-27.8972
 11
308.717
 21
-28.2901
  0
LINE
  8
0
 10
308.717
 20
-28.2901
 11
308.614
 21
-28.6743
  0
LINE
  8
0
 10
308.614
 20
-28.6743
 11
308.471
 21
-29.0456
  0
LINE
  8
0
 10
308.471
 20
-29.0456
 11
308.291
 21
-29.4
  0
LINE
  8
0
 10
308.291
 20
-29.4
 11
308.074
 21
-29.7336
  0
LINE
  8
0
 10
308.074
 20
-29.7336
 11
307.824
 21
-30.0427
  0
LINE
  8
0
 10
307.824
 20
-30.0427
 11
307.543
 21
-30.3239
  0
LINE
  8
0
 10
307.543
 20
-30.3239
 11
307.234
 21
-30.5743
  0
LINE
  8
0
 10
307.234
 20
-30.5743
 11
306.9
 21
-30.7909
  0
LINE
  8
0
 10
306.9
 20
-30.7909
 11
306.546
 21
-30.9715
  0
LINE
  8
0
 10
306.546
 20
-30.9715
 11
306.174
 21
-31.114
  0
LINE
  8
0
 10
306.174
 20
-31.114
 11
305.79
 21
-31.2169
  0
LINE
  8
0
 10
305.79
 20
-31.2169
 11
305.397
 21
-31.2792
  0
LINE
  8
0
 10
305.397
 20
-31.2792
 11
305
 21
-31.3
  0
LINE
  8
0
 10
305
 20
-31.3
 11
304.603
 21
-31.2792
  0
LINE
  8
0
 10
-305.397
 20
-31.2792
 11
-305.79
 21
-31.2169
  0
LINE
  8
0
 10
-305.79
 20
-31.2169
 11
-306.174
 21
-31.114
  0
LINE
  8
0
 10
-306.174
 20
-31.114
 11
-306.546
 21
-30.9715
  0
LINE
  8
0
 10
-306.546
 20
-30.9715
 11
-306.9
 21
-30.7909
  0
LINE
  8
0
 10
-306.9
 20
-30.7909
 11
-307.234
 21
-30.5743
  0
LINE
  8
0
 10
-307.234
 20
-30.5743
 11
-307.543
 21
-30.3239
  0
LINE
  8
0
 10
-307.543
 20
-30.3239
 11
-307.824
 21
-30.0427
  0
LINE
  8
0
 10
-307.824
 20
-30.0427
 11
-308.074
 21
-29.7336
  0
LINE
  8
0
 10
-308.074
 20
-29.7336
 11
-308.291
 21
-29.4
  0
LINE
  8
0
 10
-308.291
 20
-29.4
 11
-308.471
 21
-29.0456
  0
LINE
  8
0
 10
-308.471
 20
-29.0456
 11
-308.614
 21
-28.6743
  0
LINE
  8
0
 10
-308.614
 20
-28.6743
 11
-308.717
 21
-28.2901
  0
LINE
  8
0
 10
-308.717
 20
-28.2901
 11
-308.779
 21
-27.8972
  0
LINE
  8
0
 10
-308.779
 20
-27.8972
 11
-308.8
 21
-27.5
  0
LINE
  8
0
 10
-308.8
 20
-27.5
 11
-308.779
 21
-27.1028
  0
LINE
  8
0
 10
-308.779
 20
-27.1028
 11
-308.717
 21
-26.7099
  0
LINE
  8
0
 10
-308.717
 20
-26.7099
 11
-308.614
 21
-26.3257
  0
LINE
  8
0
 10
-308.614
 20
-26.3257
 11
-308.471
 21
-25.9544
  0
LINE
  8
0
 10
-308.471
 20
-25.9544
 11
-308.291
 21
-25.6
  0
LINE
  8
0
 10
-308.291
 20
-25.6
 11
-308.074
 21
-25.2664
  0
LINE
  8
0
 10
-308.074
 20
-25.2664
 11
-307.824
 21
-24.9573
  0
LINE
  8
0
 10
-307.824
 20
-24.9573
 11
-307.543
 21
-24.676
  0
LINE
  8
0
 10
-307.543
 20
-24.676
 11
-307.234
 21
-24.4257
  0
LINE
  8
0
 10
-307.234
 20
-24.4257
 11
-306.9
 21
-24.2091
  0
LINE
  8
0
 10
-306.9
 20
-24.2091
 11
-306.546
 21
-24.0285
  0
LINE
  8
0
 10
-306.546
 20
-24.0285
 11
-306.174
 21
-23.886
  0
LINE
  8
0
 10
-306.174
 20
-23.886
 11
-305.79
 21
-23.783
  0
LINE
  8
0
 10
-305.79
 20
-23.783
 11
-305.397
 21
-23.7208
  0
LINE
  8
0
 10
-305.397
 20
-23.7208
 11
-305
 21
-23.7
  0
LINE
  8
0
 10
-305
 20
-23.7
 11
-304.603
 21
-23.7208
  0
LINE
  8
0
 10
-304.603
 20
-23.7208
 11
-304.21
 21
-23.783
  0
LINE
  8
0
 10
-304.21
 20
-23.783
 11
-303.826
 21
-23.886
  0
LINE
  8
0
 10
-303.826
 20
-23.886
 11
-303.454
 21
-24.0285
  0
LINE
  8
0
 10
-303.454
 20
-24.0285
 11
-303.1
 21
-24.2091
  0
LINE
  8
0
 10
-303.1
 20
-24.2091
 11
-302.766
 21
-24.4257
  0
LINE
  8
0
 10
-302.766
 20
-24.4257
 11
-302.457
 21
-24.676
  0
LINE
  8
0
 10
-302.457
 20
-24.676
 11
-302.176
 21
-24.9573
  0
LINE
  8
0
 10
-302.176
 20
-24.9573
 11
-301.926
 21
-25.2664
  0
LINE
  8
0
 10
-301.926
 20
-25.2664
 11
-301.709
 21
-25.6
  0
LINE
  8
0
 10
-301.709
 20
-25.6
 11
-301.529
 21
-25.9544
  0
LINE
  8
0
 10
-301.529
 20
-25.9544
 11
-301.386
 21
-26.3257
  0
LINE
  8
0
 10
-301.386
 20
-26.3257
 11
-301.283
 21
-26.7099
  0
LINE
  8
0
 10
-301.283
 20
-26.7099
 11
-301.221
 21
-27.1028
  0
LINE
  8
0
 10
-301.221
 20
-27.1028
 11
-301.2
 21
-27.5
  0
LINE
  8
0
 10
-301.2
 20
-27.5
 11
-301.221
 21
-27.8972
  0
LINE
  8
0
 10
-301.221
 20
-27.8972
 11
-301.283
 21
-28.2901
  0
LINE
  8
0
 10
-301.283
 20
-28.2901
 11
-301.386
 21
-28.6743
  0
LINE
  8
0
 10
-301.386
 20
-28.6743
 11
-301.529
 21
-29.0456
  0
LINE
  8
0
 10
-301.529
 20
-29.0456
 11
-301.709
 21
-29.4
  0
LINE
  8
0
 10
-301.709
 20
-29.4
 11
-301.926
 21
-29.7336
  0
LINE
  8
0
 10
-301.926
 20
-29.7336
 11
-302.176
 21
-30.0427
  0
LINE
  8
0
 10
-302.176
 20
-30.0427
 11
-302.457
 21
-30.3239
  0
LINE
  8
0
 10
-302.457
 20
-30.3239
 11
-302.766
 21
-30.5743
  0
LINE
  8
0
 10
-302.766
 20
-30.5743
 11
-303.1
 21
-30.7909
  0
LINE
  8
0
 10
-303.1
 20
-30.7909
 11
-303.454
 21
-30.9715
  0
LINE
  8
0
 10
-303.454
 20
-30.9715
 11
-303.826
 21
-31.114
  0
LINE
  8
0
 10
-303.826
 20
-31.114
 11
-304.21
 21
-31.2169
  0
LINE
  8
0
 10
-304.21
 20
-31.2169
 11
-304.603
 21
-31.2792
  0
LINE
  8
0
 10
-304.603
 20
-31.2792
 11
-305
 21
-31.3
  0
LINE
  8
0
 10
-305
 20
-31.3
 11
-305.397
 21
-31.2792
  0
LINE
  8
0
 10
304.603
 20
-51.2792
 11
304.21
 21
-51.2169
  0
LINE
  8
0
 10
304.21
 20
-51.2169
 11
303.826
 21
-51.114
  0
LINE
  8
0
 10
303.826
 20
-51.114
 11
303.454
 21
-50.9715
  0
LINE
  8
0
 10
303.454
 20
-50.9715
 11
303.1
 21
-50.7909
  0
LINE
  8
0
 10
303.1
 20
-50.7909
 11
302.766
 21
-50.5743
  0
LINE
  8
0
 10
302.766
 20
-50.5743
 11
302.457
 21
-50.3239
  0
LINE
  8
0
 10
302.457
 20
-50.3239
 11
302.176
 21
-50.0427
  0
LINE
  8
0
 10
302.176
 20
-50.0427
 11
301.926
 21
-49.7336
  0
LINE
  8
0
 10
301.926
 20
-49.7336
 11
301.709
 21
-49.4
  0
LINE
  8
0
 10
301.709
 20
-49.4
 11
301.529
 21
-49.0456
  0
LINE
  8
0
 10
301.529
 20
-49.0456
 11
301.386
 21
-48.6743
  0
LINE
  8
0
 10
301.386
 20
-48.6743
 11
301.283
 21
-48.2901
  0
LINE
  8
0
 10
301.283
 20
-48.2901
 11
301.221
 21
-47.8972
  0
LINE
  8
0
 10
301.221
 20
-47.8972
 11
301.2
 21
-47.5
  0
LINE
  8
0
 10
301.2
 20
-47.5
 11
301.221
 21
-47.1028
  0
LINE
  8
0
 10
301.221
 20
-47.1028
 11
301.283
 21
-46.7099
  0
LINE
  8
0
 10
301.283
 20
-46.7099
 11
301.386
 21
-46.3257
  0
LINE
  8
0
 10
301.386
 20
-46.3257
 11
301.529
 21
-45.9544
  0
LINE
  8
0
 10
301.529
 20
-45.9544
 11
301.709
 21
-45.6
  0
LINE
  8
0
 10
301.709
 20
-45.6
 11
301.926
 21
-45.2664
  0
LINE
  8
0
 10
301.926
 20
-45.2664
 11
302.176
 21
-44.9573
  0
LINE
  8
0
 10
302.176
 20
-44.9573
 11
302.457
 21
-44.676
  0
LINE
  8
0
 10
302.457
 20
-44.676
 11
302.766
 21
-44.4257
  0
LINE
  8
0
 10
302.766
 20
-44.4257
 11
303.1
 21
-44.2091
  0
LINE
  8
0
 10
303.1
 20
-44.2091
 11
303.454
 21
-44.0285
  0
LINE
  8
0
 10
303.454
 20
-44.0285
 11
303.826
 21
-43.886
  0
LINE
  8
0
 10
303.826
 20
-43.886
 11
304.21
 21
-43.783
  0
LINE
  8
0
 10
304.21
 20
-43.783
 11
304.603
 21
-43.7208
  0
LINE
  8
0
 10
304.603
 20
-43.7208
 11
305
 21
-43.7
  0
LINE
  8
0
 10
305
 20
-43.7
 11
305.397
 21
-43.7208
  0
LINE
  8
0
 10
305.397
 20
-43.7208
 11
305.79
 21
-43.783
  0
LINE
  8
0
 10
305.79
 20
-43.783
 11
306.174
 21
-43.886
  0
LINE
  8
0
 10
306.174
 20
-43.886
 11
306.546
 21
-44.0285
  0
LINE
  8
0
 10
306.546
 20
-44.0285
 11
306.9
 21
-44.2091
  0
LINE
  8
0
 10
306.9
 20
-44.2091
 11
307.234
 21
-44.4257
  0
LINE
  8
0
 10
307.234
 20
-44.4257
 11
307.543
 21
-44.676
  0
LINE
  8
0
 10
307.543
 20
-44.676
 11
307.824
 21
-44.9573
  0
LINE
  8
0
 10
307.824
 20
-44.9573
 11
308.074
 21
-45.2664
  0
LINE
  8
0
 10
308.074
 20
-45.2664
 11
308.291
 21
-45.6
  0
LINE
  8
0
 10
308.291
 20
-45.6
 11
308.471
 21
-45.9544
  0
LINE
  8
0
 10
308.471
 20
-45.9544
 11
308.614
 21
-46.3257
  0
LINE
  8
0
 10
308.614
 20
-46.3257
 11
308.717
 21
-46.7099
  0
LINE
  8
0
 10
308.717
 20
-46.7099
 11
308.779
 21
-47.1028
  0
LINE
  8
0
 10
308.779
 20
-47.1028
 11
308.8
 21
-47.5
  0
LINE
  8
0
 10
308.8
 20
-47.5
 11
308.779
 21
-47.8972
  0
LINE
  8
0
 10
308.779
 20
-47.8972
 11
308.717
 21
-48.2901
  0
LINE
  8
0
 10
308.717
 20
-48.2901
 11
308.614
 21
-48.6743
  0
LINE
  8
0
 10
308.614
 20
-48.6743
 11
308.471
 21
-49.0456
  0
LINE
  8
0
 10
308.471
 20
-49.0456
 11
308.291
 21
-49.4
  0
LINE
  8
0
 10
308.291
 20
-49.4
 11
308.074
 21
-49.7336
  0
LINE
  8
0
 10
308.074
 20
-49.7336
 11
307.824
 21
-50.0427
  0
LINE
  8
0
 10
307.824
 20
-50.0427
 11
307.543
 21
-50.3239
  0
LINE
  8
0
 10
307.543
 20
-50.3239
 11
307.234
 21
-50.5743
  0
LINE
  8
0
 10
307.234
 20
-50.5743
 11
306.9
 21
-50.7909
  0
LINE
  8
0
 10
306.9
 20
-50.7909
 11
306.546
 21
-50.9715
  0
LINE
  8
0
 10
306.546
 20
-50.9715
 11
306.174
 21
-51.114
  0
LINE
  8
0
 10
306.174
 20
-51.114
 11
305.79
 21
-51.2169
  0
LINE
  8
0
 10
305.79
 20
-51.2169
 11
305.397
 21
-51.2792
  0
LINE
  8
0
 10
305.397
 20
-51.2792
 11
305
 21
-51.3
  0
LINE
  8
0
 10
305
 20
-51.3
 11
304.603
 21
-51.2792
  0
LINE
  8
0
 10
-305.397
 20
-51.2792
 11
-305.79
 21
-51.2169
  0
LINE
  8
0
 10
-305.79
 20
-51.2169
 11
-306.174
 21
-51.114
  0
LINE
  8
0
 10
-306.174
 20
-51.114
 11
-306.546
 21
-50.9715
  0
LINE
  8
0
 10
-306.546
 20
-50.9715
 11
-306.9
 21
-50.7909
  0
LINE
  8
0
 10
-306.9
 20
-50.7909
 11
-307.234
 21
-50.5743
  0
LINE
  8
0
 10
-307.234
 20
-50.5743
 11
-307.543
 21
-50.3239
  0
LINE
  8
0
 10
-307.543
 20
-50.3239
 11
-307.824
 21
-50.0427
  0
LINE
  8
0
 10
-307.824
 20
-50.0427
 11
-308.074
 21
-49.7336
  0
LINE
  8
0
 10
-308.074
 20
-49.7336
 11
-308.291
 21
-49.4
  0
LINE
  8
0
 10
-308.291
 20
-49.4
 11
-308.471
 21
-49.0456
  0
LINE
  8
0
 10
-308.471
 20
-49.0456
 11
-308.614
 21
-48.6743
  0
LINE
  8
0
 10
-308.614
 20
-48.6743
 11
-308.717
 21
-48.2901
  0
LINE
  8
0
 10
-308.717
 20
-48.2901
 11
-308.779
 21
-47.8972
  0
LINE
  8
0
 10
-308.779
 20
-47.8972
 11
-308.8
 21
-47.5
  0
LINE
  8
0
 10
-308.8
 20
-47.5
 11
-308.779
 21
-47.1028
  0
LINE
  8
0
 10
-308.779
 20
-47.1028
 11
-308.717
 21
-46.7099
  0
LINE
  8
0
 10
-308.717
 20
-46.7099
 11
-308.614
 21
-46.3257
  0
LINE
  8
0
 10
-308.614
 20
-46.3257
 11
-308.471
 21
-45.9544
  0
LINE
  8
0
 10
-308.471
 20
-45.9544
 11
-308.291
 21
-45.6
  0
LINE
  8
0
 10
-308.291
 20
-45.6
 11
-308.074
 21
-45.2664
  0
LINE
  8
0
 10
-308.074
 20
-45.2664
 11
-307.824
 21
-44.9573
  0
LINE
  8
0
 10
-307.824
 20
-44.9573
 11
-307.543
 21
-44.676
  0
LINE
  8
0
 10
-307.543
 20
-44.676
 11
-307.234
 21
-44.4257
  0
LINE
  8
0
 10
-307.234
 20
-44.4257
 11
-306.9
 21
-44.2091
  0
LINE
  8
0
 10
-306.9
 20
-44.2091
 11
-306.546
 21
-44.0285
  0
LINE
  8
0
 10
-306.546
 20
-44.0285
 11
-306.174
 21
-43.886
  0
LINE
  8
0
 10
-306.174
 20
-43.886
 11
-305.79
 21
-43.783
  0
LINE
  8
0
 10
-305.79
 20
-43.783
 11
-305.397
 21
-43.7208
  0
LINE
  8
0
 10
-305.397
 20
-43.7208
 11
-305
 21
-43.7
  0
LINE
  8
0
 10
-305
 20
-43.7
 11
-304.603
 21
-43.7208
  0
LINE
  8
0
 10
-304.603
 20
-43.7208
 11
-304.21
 21
-43.783
  0
LINE
  8
0
 10
-304.21
 20
-43.783
 11
-303.826
 21
-43.886
  0
LINE
  8
0
 10
-303.826
 20
-43.886
 11
-303.454
 21
-44.0285
  0
LINE
  8
0
 10
-303.454
 20
-44.0285
 11
-303.1
 21
-44.2091
  0
LINE
  8
0
 10
-303.1
 20
-44.2091
 11
-302.766
 21
-44.4257
  0
LINE
  8
0
 10
-302.766
 20
-44.4257
 11
-302.457
 21
-44.676
  0
LINE
  8
0
 10
-302.457
 20
-44.676
 11
-302.176
 21
-44.9573
  0
LINE
  8
0
 10
-302.176
 20
-44.9573
 11
-301.926
 21
-45.2664
  0
LINE
  8
0
 10
-301.926
 20
-45.2664
 11
-301.709
 21
-45.6
  0
LINE
  8
0
 10
-301.709
 20
-45.6
 11
-301.529
 21
-45.9544
  0
LINE
  8
0
 10
-301.529
 20
-45.9544
 11
-301.386
 21
-46.3257
  0
LINE
  8
0
 10
-301.386
 20
-46.3257
 11
-301.283
 21
-46.7099
  0
LINE
  8
0
 10
-301.283
 20
-46.7099
 11
-301.221
 21
-47.1028
  0
LINE
  8
0
 10
-301.221
 20
-47.1028
 11
-301.2
 21
-47.5
  0
LINE
  8
0
 10
-301.2
 20
-47.5
 11
-301.221
 21
-47.8972
  0
LINE
  8
0
 10
-301.221
 20
-47.8972
 11
-301.283
 21
-48.2901
  0
LINE
  8
0
 10
-301.283
 20
-48.2901
 11
-301.386
 21
-48.6743
  0
LINE
  8
0
 10
-301.386
 20
-48.6743
 11
-301.529
 21
-49.0456
  0
LINE
  8
0
 10
-301.529
 20
-49.0456
 11
-301.709
 21
-49.4
  0
LINE
  8
0
 10
-301.709
 20
-49.4
 11
-301.926
 21
-49.7336
  0
LINE
  8
0
 10
-301.926
 20
-49.7336
 11
-302.176
 21
-50.0427
  0
LINE
  8
0
 10
-302.176
 20
-50.0427
 11
-302.457
 21
-50.3239
  0
LINE
  8
0
 10
-302.457
 20
-50.3239
 11
-302.766
 21
-50.5743
  0
LINE
  8
0
 10
-302.766
 20
-50.5743
 11
-303.1
 21
-50.7909
  0
LINE
  8
0
 10
-303.1
 20
-50.7909
 11
-303.454
 21
-50.9715
  0
LINE
  8
0
 10
-303.454
 20
-50.9715
 11
-303.826
 21
-51.114
  0
LINE
  8
0
 10
-303.826
 20
-51.114
 11
-304.21
 21
-51.2169
  0
LINE
  8
0
 10
-304.21
 20
-51.2169
 11
-304.603
 21
-51.2792
  0
LINE
  8
0
 10
-304.603
 20
-51.2792
 11
-305
 21
-51.3
  0
LINE
  8
0
 10
-305
 20
-51.3
 11
-305.397
 21
-51.2792
  0
LINE
  8
0
 10
239.751
 20
-184.232
 11
239.507
 21
-184.179
  0
LINE
  8
0
 10
239.507
 20
-184.179
 11
239.273
 21
-184.092
  0
LINE
  8
0
 10
239.273
 20
-184.092
 11
239.054
 21
-183.972
  0
LINE
  8
0
 10
239.054
 20
-183.972
 11
238.854
 21
-183.823
  0
LINE
  8
0
 10
238.854
 20
-183.823
 11
238.677
 21
-183.646
  0
LINE
  8
0
 10
238.677
 20
-183.646
 11
238.528
 21
-183.446
  0
LINE
  8
0
 10
238.528
 20
-183.446
 11
238.408
 21
-183.227
  0
LINE
  8
0
 10
238.408
 20
-183.227
 11
238.321
 21
-182.993
  0
LINE
  8
0
 10
238.321
 20
-182.993
 11
238.268
 21
-182.749
  0
LINE
  8
0
 10
238.268
 20
-182.749
 11
238.25
 21
-182.5
  0
LINE
  8
0
 10
238.25
 20
-182.5
 11
238.25
 21
-64.1667
  0
LINE
  8
0
 10
238.25
 20
-64.1667
 11
238.268
 21
-63.9176
  0
LINE
  8
0
 10
238.268
 20
-63.9176
 11
238.321
 21
-63.6736
  0
LINE
  8
0
 10
238.321
 20
-63.6736
 11
238.408
 21
-63.4397
  0
LINE
  8
0
 10
238.408
 20
-63.4397
 11
238.528
 21
-63.2205
  0
LINE
  8
0
 10
238.528
 20
-63.2205
 11
238.677
 21
-63.0207
  0
LINE
  8
0
 10
238.677
 20
-63.0207
 11
238.854
 21
-62.8441
  0
LINE
  8
0
 10
238.854
 20
-62.8441
 11
239.054
 21
-62.6945
  0
LINE
  8
0
 10
239.054
 20
-62.6945
 11
239.273
 21
-62.5748
  0
LINE
  8
0
 10
239.273
 20
-62.5748
 11
239.507
 21
-62.4875
  0
LINE
  8
0
 10
239.507
 20
-62.4875
 11
239.751
 21
-62.4345
  0
LINE
  8
0
 10
239.751
 20
-62.4345
 11
240
 21
-62.4167
  0
LINE
  8
0
 10
240
 20
-62.4167
 11
240.249
 21
-62.4345
  0
LINE
  8
0
 10
240.249
 20
-62.4345
 11
240.493
 21
-62.4875
  0
LINE
  8
0
 10
240.493
 20
-62.4875
 11
240.727
 21
-62.5748
  0
LINE
  8
0
 10
240.727
 20
-62.5748
 11
240.946
 21
-62.6945
  0
LINE
  8
0
 10
240.946
 20
-62.6945
 11
241.146
 21
-62.8441
  0
LINE
  8
0
 10
241.146
 20
-62.8441
 11
241.323
 21
-63.0207
  0
LINE
  8
0
 10
241.323
 20
-63.0207
 11
241.472
 21
-63.2205
  0
LINE
  8
0
 10
241.472
 20
-63.2205
 11
241.592
 21
-63.4397
  0
LINE
  8
0
 10
241.592
 20
-63.4397
 11
241.679
 21
-63.6736
  0
LINE
  8
0
 10
241.679
 20
-63.6736
 11
241.732
 21
-63.9176
  0
LINE
  8
0
 10
241.732
 20
-63.9176
 11
241.75
 21
-64.1667
  0
LINE
  8
0
 10
241.75
 20
-64.1667
 11
241.75
 21
-182.5
  0
LINE
  8
0
 10
241.75
 20
-182.5
 11
241.732
 21
-182.749
  0
LINE
  8
0
 10
241.732
 20
-182.749
 11
241.679
 21
-182.993
  0
LINE
  8
0
 10
241.679
 20
-182.993
 11
241.592
 21
-183.227
  0
LINE
  8
0
 10
241.592
 20
-183.227
 11
241.472
 21
-183.446
  0
LINE
  8
0
 10
241.472
 20
-183.446
 11
241.323
 21
-183.646
  0
LINE
  8
0
 10
241.323
 20
-183.646
 11
241.146
 21
-183.823
  0
LINE
  8
0
 10
241.146
 20
-183.823
 11
240.946
 21
-183.972
  0
LINE
  8
0
 10
240.946
 20
-183.972
 11
240.727
 21
-184.092
  0
LINE
  8
0
 10
240.727
 20
-184.092
 11
240.493
 21
-184.179
  0
LINE
  8
0
 10
240.493
 20
-184.179
 11
240.249
 21
-184.232
  0
LINE
  8
0
 10
240.249
 20
-184.232
 11
240
 21
-184.25
  0
LINE
  8
0
 10
240
 20
-184.25
 11
239.751
 21
-184.232
  0
LINE
  8
0
 10
-240.249
 20
-184.232
 11
-240.493
 21
-184.179
  0
LINE
  8
0
 10
-240.493
 20
-184.179
 11
-240.727
 21
-184.092
  0
LINE
  8
0
 10
-240.727
 20
-184.092
 11
-240.946
 21
-183.972
  0
LINE
  8
0
 10
-240.946
 20
-183.972
 11
-241.146
 21
-183.823
  0
LINE
  8
0
 10
-241.146
 20
-183.823
 11
-241.323
 21
-183.646
  0
LINE
  8
0
 10
-241.323
 20
-183.646
 11
-241.472
 21
-183.446
  0
LINE
  8
0
 10
-241.472
 20
-183.446
 11
-241.592
 21
-183.227
  0
LINE
  8
0
 10
-241.592
 20
-183.227
 11
-241.679
 21
-182.993
  0
LINE
  8
0
 10
-241.679
 20
-182.993
 11
-241.732
 21
-182.749
  0
LINE
  8
0
 10
-241.732
 20
-182.749
 11
-241.75
 21
-182.5
  0
LINE
  8
0
 10
-241.75
 20
-182.5
 11
-241.75
 21
-64.1667
  0
LINE
  8
0
 10
-241.75
 20
-64.1667
 11
-241.732
 21
-63.9176
  0
LINE
  8
0
 10
-241.732
 20
-63.9176
 11
-241.679
 21
-63.6736
  0
LINE
  8
0
 10
-241.679
 20
-63.6736
 11
-241.592
 21
-63.4397
  0
LINE
  8
0
 10
-241.592
 20
-63.4397
 11
-241.472
 21
-63.2205
  0
LINE
  8
0
 10
-241.472
 20
-63.2205
 11
-241.323
 21
-63.0207
  0
LINE
  8
0
 10
-241.323
 20
-63.0207
 11
-241.146
 21
-62.8441
  0
LINE
  8
0
 10
-241.146
 20
-62.8441
 11
-240.946
 21
-62.6945
  0
LINE
  8
0
 10
-240.946
 20
-62.6945
 11
-240.727
 21
-62.5748
  0
LINE
  8
0
 10
-240.727
 20
-62.5748
 11
-240.493
 21
-62.4875
  0
LINE
  8
0
 10
-240.493
 20
-62.4875
 11
-240.249
 21
-62.4345
  0
LINE
  8
0
 10
-240.249
 20
-62.4345
 11
-240
 21
-62.4167
  0
LINE
  8
0
 10
-240
 20
-62.4167
 11
-239.751
 21
-62.4345
  0
LINE
  8
0
 10
-239.751
 20
-62.4345
 11
-239.507
 21
-62.4875
  0
LINE
  8
0
 10
-239.507
 20
-62.4875
 11
-239.273
 21
-62.5748
  0
LINE
  8
0
 10
-239.273
 20
-62.5748
 11
-239.054
 21
-62.6945
  0
LINE
  8
0
 10
-239.054
 20
-62.6945
 11
-238.854
 21
-62.8441
  0
LINE
  8
0
 10
-238.854
 20
-62.8441
 11
-238.677
 21
-63.0207
  0
LINE
  8
0
 10
-238.677
 20
-63.0207
 11
-238.528
 21
-63.2205
  0
LINE
  8
0
 10
-238.528
 20
-63.2205
 11
-238.408
 21
-63.4397
  0
LINE
  8
0
 10
-238.408
 20
-63.4397
 11
-238.321
 21
-63.6736
  0
LINE
  8
0
 10
-238.321
 20
-63.6736
 11
-238.268
 21
-63.9176
  0
LINE
  8
0
 10
-238.268
 20
-63.9176
 11
-238.25
 21
-64.1667
  0
LINE
  8
0
 10
-238.25
 20
-64.1667
 11
-238.25
 21
-182.5
  0
LINE
  8
0
 10
-238.25
 20
-182.5
 11
-238.268
 21
-182.749
  0
LINE
  8
0
 10
-238.268
 20
-182.749
 11
-238.321
 21
-182.993
  0
LINE
  8
0
 10
-238.321
 20
-182.993
 11
-238.408
 21
-183.227
  0
LINE
  8
0
 10
-238.408
 20
-183.227
 11
-238.528
 21
-183.446
  0
LINE
  8
0
 10
-238.528
 20
-183.446
 11
-238.677
 21
-183.646
  0
LINE
  8
0
 10
-238.677
 20
-183.646
 11
-238.854
 21
-183.823
  0
LINE
  8
0
 10
-238.854
 20
-183.823
 11
-239.054
 21
-183.972
  0
LINE
  8
0
 10
-239.054
 20
-183.972
 11
-239.273
 21
-184.092
  0
LINE
  8
0
 10
-239.273
 20
-184.092
 11
-239.507
 21
-184.179
  0
LINE
  8
0
 10
-239.507
 20
-184.179
 11
-239.751
 21
-184.232
  0
LINE
  8
0
 10
-239.751
 20
-184.232
 11
-240
 21
-184.25
  0
LINE
  8
0
 10
-240
 20
-184.25
 11
-240.249
 21
-184.232
  0
LINE
  8
0
 10
-305.251
 20
-69.8869
 11
-305.499
 21
-69.8475
  0
LINE
  8
0
 10
-305.499
 20
-69.8475
 11
-305.742
 21
-69.7825
  0
LINE
  8
0
 10
-305.742
 20
-69.7825
 11
-305.976
 21
-69.6925
  0
LINE
  8
0
 10
-305.976
 20
-69.6925
 11
-306.2
 21
-69.5785
  0
LINE
  8
0
 10
-306.2
 20
-69.5785
 11
-306.411
 21
-69.4416
  0
LINE
  8
0
 10
-306.411
 20
-69.4416
 11
-306.606
 21
-69.2835
  0
LINE
  8
0
 10
-306.606
 20
-69.2835
 11
-306.784
 21
-69.1059
  0
LINE
  8
0
 10
-306.784
 20
-69.1059
 11
-306.942
 21
-68.9107
  0
LINE
  8
0
 10
-306.942
 20
-68.9107
 11
-307.078
 21
-68.7
  0
LINE
  8
0
 10
-307.078
 20
-68.7
 11
-307.193
 21
-68.4762
  0
LINE
  8
0
 10
-307.193
 20
-68.4762
 11
-307.283
 21
-68.2416
  0
LINE
  8
0
 10
-307.283
 20
-68.2416
 11
-307.348
 21
-67.999
  0
LINE
  8
0
 10
-307.348
 20
-67.999
 11
-307.387
 21
-67.7509
  0
LINE
  8
0
 10
-307.387
 20
-67.7509
 11
-307.4
 21
-67.5
  0
LINE
  8
0
 10
-307.4
 20
-67.5
 11
-307.387
 21
-67.2491
  0
LINE
  8
0
 10
-307.387
 20
-67.2491
 11
-307.348
 21
-67.001
  0
LINE
  8
0
 10
-307.348
 20
-67.001
 11
-307.283
 21
-66.7584
  0
LINE
  8
0
 10
-307.283
 20
-66.7584
 11
-307.193
 21
-66.5238
  0
LINE
  8
0
 10
-307.193
 20
-66.5238
 11
-307.078
 21
-66.3
  0
LINE
  8
0
 10
-307.078
 20
-66.3
 11
-306.942
 21
-66.0893
  0
LINE
  8
0
 10
-306.942
 20
-66.0893
 11
-306.784
 21
-65.8941
  0
LINE
  8
0
 10
-306.784
 20
-65.8941
 11
-306.606
 21
-65.7164
  0
LINE
  8
0
 10
-306.606
 20
-65.7164
 11
-306.411
 21
-65.5583
  0
LINE
  8
0
 10
-306.411
 20
-65.5583
 11
-306.2
 21
-65.4215
  0
LINE
  8
0
 10
-306.2
 20
-65.4215
 11
-305.976
 21
-65.3075
  0
LINE
  8
0
 10
-305.976
 20
-65.3075
 11
-305.742
 21
-65.2175
  0
LINE
  8
0
 10
-305.742
 20
-65.2175
 11
-305.499
 21
-65.1524
  0
LINE
  8
0
 10
-305.499
 20
-65.1524
 11
-305.251
 21
-65.1131
  0
LINE
  8
0
 10
-305.251
 20
-65.1131
 11
-305
 21
-65.1
  0
LINE
  8
0
 10
-305
 20
-65.1
 11
-304.749
 21
-65.1131
  0
LINE
  8
0
 10
-304.749
 20
-65.1131
 11
-304.501
 21
-65.1524
  0
LINE
  8
0
 10
-304.501
 20
-65.1524
 11
-304.258
 21
-65.2175
  0
LINE
  8
0
 10
-304.258
 20
-65.2175
 11
-304.024
 21
-65.3075
  0
LINE
  8
0
 10
-304.024
 20
-65.3075
 11
-303.8
 21
-65.4215
  0
LINE
  8
0
 10
-303.8
 20
-65.4215
 11
-303.589
 21
-65.5583
  0
LINE
  8
0
 10
-303.589
 20
-65.5583
 11
-303.394
 21
-65.7164
  0
LINE
  8
0
 10
-303.394
 20
-65.7164
 11
-303.216
 21
-65.8941
  0
LINE
  8
0
 10
-303.216
 20
-65.8941
 11
-303.058
 21
-66.0893
  0
LINE
  8
0
 10
-303.058
 20
-66.0893
 11
-302.922
 21
-66.3
  0
LINE
  8
0
 10
-302.922
 20
-66.3
 11
-302.807
 21
-66.5238
  0
LINE
  8
0
 10
-302.807
 20
-66.5238
 11
-302.717
 21
-66.7584
  0
LINE
  8
0
 10
-302.717
 20
-66.7584
 11
-302.652
 21
-67.001
  0
LINE
  8
0
 10
-302.652
 20
-67.001
 11
-302.613
 21
-67.2491
  0
LINE
  8
0
 10
-302.613
 20
-67.2491
 11
-302.6
 21
-67.5
  0
LINE
  8
0
 10
-302.6
 20
-67.5
 11
-302.613
 21
-67.7509
  0
LINE
  8
0
 10
-302.613
 20
-67.7509
 11
-302.652
 21
-67.999
  0
LINE
  8
0
 10
-302.652
 20
-67.999
 11
-302.717
 21
-68.2416
  0
LINE
  8
0
 10
-302.717
 20
-68.2416
 11
-302.807
 21
-68.4762
  0
LINE
  8
0
 10
-302.807
 20
-68.4762
 11
-302.922
 21
-68.7
  0
LINE
  8
0
 10
-302.922
 20
-68.7
 11
-303.058
 21
-68.9107
  0
LINE
  8
0
 10
-303.058
 20
-68.9107
 11
-303.216
 21
-69.1059
  0
LINE
  8
0
 10
-303.216
 20
-69.1059
 11
-303.394
 21
-69.2835
  0
LINE
  8
0
 10
-303.394
 20
-69.2835
 11
-303.589
 21
-69.4416
  0
LINE
  8
0
 10
-303.589
 20
-69.4416
 11
-303.8
 21
-69.5785
  0
LINE
  8
0
 10
-303.8
 20
-69.5785
 11
-304.024
 21
-69.6925
  0
LINE
  8
0
 10
-304.024
 20
-69.6925
 11
-304.258
 21
-69.7825
  0
LINE
  8
0
 10
-304.258
 20
-69.7825
 11
-304.501
 21
-69.8475
  0
LINE
  8
0
 10
-304.501
 20
-69.8475
 11
-304.749
 21
-69.8869
  0
LINE
  8
0
 10
-304.749
 20
-69.8869
 11
-305
 21
-69.9
  0
LINE
  8
0
 10
-305
 20
-69.9
 11
-305.251
 21
-69.8869
  0
LINE
  8
0
 10
304.749
 20
-69.8869
 11
304.501
 21
-69.8475
  0
LINE
  8
0
 10
304.501
 20
-69.8475
 11
304.258
 21
-69.7825
  0
LINE
  8
0
 10
304.258
 20
-69.7825
 11
304.024
 21
-69.6925
  0
LINE
  8
0
 10
304.024
 20
-69.6925
 11
303.8
 21
-69.5785
  0
LINE
  8
0
 10
303.8
 20
-69.5785
 11
303.589
 21
-69.4416
  0
LINE
  8
0
 10
303.589
 20
-69.4416
 11
303.394
 21
-69.2835
  0
LINE
  8
0
 10
303.394
 20
-69.2835
 11
303.216
 21
-69.1059
  0
LINE
  8
0
 10
303.216
 20
-69.1059
 11
303.058
 21
-68.9107
  0
LINE
  8
0
 10
303.058
 20
-68.9107
 11
302.922
 21
-68.7
  0
LINE
  8
0
 10
302.922
 20
-68.7
 11
302.807
 21
-68.4762
  0
LINE
  8
0
 10
302.807
 20
-68.4762
 11
302.717
 21
-68.2416
  0
LINE
  8
0
 10
302.717
 20
-68.2416
 11
302.652
 21
-67.999
  0
LINE
  8
0
 10
302.652
 20
-67.999
 11
302.613
 21
-67.7509
  0
LINE
  8
0
 10
302.613
 20
-67.7509
 11
302.6
 21
-67.5
  0
LINE
  8
0
 10
302.6
 20
-67.5
 11
302.613
 21
-67.2491
  0
LINE
  8
0
 10
302.613
 20
-67.2491
 11
302.652
 21
-67.001
  0
LINE
  8
0
 10
302.652
 20
-67.001
 11
302.717
 21
-66.7584
  0
LINE
  8
0
 10
302.717
 20
-66.7584
 11
302.807
 21
-66.5238
  0
LINE
  8
0
 10
302.807
 20
-66.5238
 11
302.922
 21
-66.3
  0
LINE
  8
0
 10
302.922
 20
-66.3
 11
303.058
 21
-66.0893
  0
LINE
  8
0
 10
303.058
 20
-66.0893
 11
303.216
 21
-65.8941
  0
LINE
  8
0
 10
303.216
 20
-65.8941
 11
303.394
 21
-65.7164
  0
LINE
  8
0
 10
303.394
 20
-65.7164
 11
303.589
 21
-65.5583
  0
LINE
  8
0
 10
303.589
 20
-65.5583
 11
303.8
 21
-65.4215
  0
LINE
  8
0
 10
303.8
 20
-65.4215
 11
304.024
 21
-65.3075
  0
LINE
  8
0
 10
304.024
 20
-65.3075
 11
304.258
 21
-65.2175
  0
LINE
  8
0
 10
304.258
 20
-65.2175
 11
304.501
 21
-65.1524
  0
LINE
  8
0
 10
304.501
 20
-65.1524
 11
304.749
 21
-65.1131
  0
LINE
  8
0
 10
304.749
 20
-65.1131
 11
305
 21
-65.1
  0
LINE
  8
0
 10
305
 20
-65.1
 11
305.251
 21
-65.1131
  0
LINE
  8
0
 10
305.251
 20
-65.1131
 11
305.499
 21
-65.1524
  0
LINE
  8
0
 10
305.499
 20
-65.1524
 11
305.742
 21
-65.2175
  0
LINE
  8
0
 10
305.742
 20
-65.2175
 11
305.976
 21
-65.3075
  0
LINE
  8
0
 10
305.976
 20
-65.3075
 11
306.2
 21
-65.4215
  0
LINE
  8
0
 10
306.2
 20
-65.4215
 11
306.411
 21
-65.5583
  0
LINE
  8
0
 10
306.411
 20
-65.5583
 11
306.606
 21
-65.7164
  0
LINE
  8
0
 10
306.606
 20
-65.7164
 11
306.784
 21
-65.8941
  0
LINE
  8
0
 10
306.784
 20
-65.8941
 11
306.942
 21
-66.0893
  0
LINE
  8
0
 10
306.942
 20
-66.0893
 11
307.078
 21
-66.3
  0
LINE
  8
0
 10
307.078
 20
-66.3
 11
307.193
 21
-66.5238
  0
LINE
  8
0
 10
307.193
 20
-66.5238
 11
307.283
 21
-66.7584
  0
LINE
  8
0
 10
307.283
 20
-66.7584
 11
307.348
 21
-67.001
  0
LINE
  8
0
 10
307.348
 20
-67.001
 11
307.387
 21
-67.2491
  0
LINE
  8
0
 10
307.387
 20
-67.2491
 11
307.4
 21
-67.5
  0
LINE
  8
0
 10
307.4
 20
-67.5
 11
307.387
 21
-67.7509
  0
LINE
  8
0
 10
307.387
 20
-67.7509
 11
307.348
 21
-67.999
  0
LINE
  8
0
 10
307.348
 20
-67.999
 11
307.283
 21
-68.2416
  0
LINE
  8
0
 10
307.283
 20
-68.2416
 11
307.193
 21
-68.4762
  0
LINE
  8
0
 10
307.193
 20
-68.4762
 11
307.078
 21
-68.7
  0
LINE
  8
0
 10
307.078
 20
-68.7
 11
306.942
 21
-68.9107
  0
LINE
  8
0
 10
306.942
 20
-68.9107
 11
306.784
 21
-69.1059
  0
LINE
  8
0
 10
306.784
 20
-69.1059
 11
306.606
 21
-69.2835
  0
LINE
  8
0
 10
306.606
 20
-69.2835
 11
306.411
 21
-69.4416
  0
LINE
  8
0
 10
306.411
 20
-69.4416
 11
306.2
 21
-69.5785
  0
LINE
  8
0
 10
306.2
 20
-69.5785
 11
305.976
 21
-69.6925
  0
LINE
  8
0
 10
305.976
 20
-69.6925
 11
305.742
 21
-69.7825
  0
LINE
  8
0
 10
305.742
 20
-69.7825
 11
305.499
 21
-69.8475
  0
LINE
  8
0
 10
305.499
 20
-69.8475
 11
305.251
 21
-69.8869
  0
LINE
  8
0
 10
305.251
 20
-69.8869
 11
305
 21
-69.9
  0
LINE
  8
0
 10
305
 20
-69.9
 11
304.749
 21
-69.8869
  0
LINE
  8
0
 10
304.749
 20
-89.8869
 11
304.501
 21
-89.8475
  0
LINE
  8
0
 10
304.501
 20
-89.8475
 11
304.258
 21
-89.7825
  0
LINE
  8
0
 10
304.258
 20
-89.7825
 11
304.024
 21
-89.6925
  0
LINE
  8
0
 10
304.024
 20
-89.6925
 11
303.8
 21
-89.5785
  0
LINE
  8
0
 10
303.8
 20
-89.5785
 11
303.589
 21
-89.4416
  0
LINE
  8
0
 10
303.589
 20
-89.4416
 11
303.394
 21
-89.2835
  0
LINE
  8
0
 10
303.394
 20
-89.2835
 11
303.216
 21
-89.1059
  0
LINE
  8
0
 10
303.216
 20
-89.1059
 11
303.058
 21
-88.9107
  0
LINE
  8
0
 10
303.058
 20
-88.9107
 11
302.922
 21
-88.7
  0
LINE
  8
0
 10
302.922
 20
-88.7
 11
302.807
 21
-88.4762
  0
LINE
  8
0
 10
302.807
 20
-88.4762
 11
302.717
 21
-88.2416
  0
LINE
  8
0
 10
302.717
 20
-88.2416
 11
302.652
 21
-87.999
  0
LINE
  8
0
 10
302.652
 20
-87.999
 11
302.613
 21
-87.7509
  0
LINE
  8
0
 10
302.613
 20
-87.7509
 11
302.6
 21
-87.5
  0
LINE
  8
0
 10
302.6
 20
-87.5
 11
302.613
 21
-87.2491
  0
LINE
  8
0
 10
302.613
 20
-87.2491
 11
302.652
 21
-87.001
  0
LINE
  8
0
 10
302.652
 20
-87.001
 11
302.717
 21
-86.7584
  0
LINE
  8
0
 10
302.717
 20
-86.7584
 11
302.807
 21
-86.5238
  0
LINE
  8
0
 10
302.807
 20
-86.5238
 11
302.922
 21
-86.3
  0
LINE
  8
0
 10
302.922
 20
-86.3
 11
303.058
 21
-86.0893
  0
LINE
  8
0
 10
303.058
 20
-86.0893
 11
303.216
 21
-85.8941
  0
LINE
  8
0
 10
303.216
 20
-85.8941
 11
303.394
 21
-85.7164
  0
LINE
  8
0
 10
303.394
 20
-85.7164
 11
303.589
 21
-85.5583
  0
LINE
  8
0
 10
303.589
 20
-85.5583
 11
303.8
 21
-85.4215
  0
LINE
  8
0
 10
303.8
 20
-85.4215
 11
304.024
 21
-85.3075
  0
LINE
  8
0
 10
304.024
 20
-85.3075
 11
304.258
 21
-85.2175
  0
LINE
  8
0
 10
304.258
 20
-85.2175
 11
304.501
 21
-85.1524
  0
LINE
  8
0
 10
304.501
 20
-85.1524
 11
304.749
 21
-85.1131
  0
LINE
  8
0
 10
304.749
 20
-85.1131
 11
305
 21
-85.1
  0
LINE
  8
0
 10
305
 20
-85.1
 11
305.251
 21
-85.1131
  0
LINE
  8
0
 10
305.251
 20
-85.1131
 11
305.499
 21
-85.1524
  0
LINE
  8
0
 10
305.499
 20
-85.1524
 11
305.742
 21
-85.2175
  0
LINE
  8
0
 10
305.742
 20
-85.2175
 11
305.976
 21
-85.3075
  0
LINE
  8
0
 10
305.976
 20
-85.3075
 11
306.2
 21
-85.4215
  0
LINE
  8
0
 10
306.2
 20
-85.4215
 11
306.411
 21
-85.5583
  0
LINE
  8
0
 10
306.411
 20
-85.5583
 11
306.606
 21
-85.7164
  0
LINE
  8
0
 10
306.606
 20
-85.7164
 11
306.784
 21
-85.8941
  0
LINE
  8
0
 10
306.784
 20
-85.8941
 11
306.942
 21
-86.0893
  0
LINE
  8
0
 10
306.942
 20
-86.0893
 11
307.078
 21
-86.3
  0
LINE
  8
0
 10
307.078
 20
-86.3
 11
307.193
 21
-86.5238
  0
LINE
  8
0
 10
307.193
 20
-86.5238
 11
307.283
 21
-86.7584
  0
LINE
  8
0
 10
307.283
 20
-86.7584
 11
307.348
 21
-87.001
  0
LINE
  8
0
 10
307.348
 20
-87.001
 11
307.387
 21
-87.2491
  0
LINE
  8
0
 10
307.387
 20
-87.2491
 11
307.4
 21
-87.5
  0
LINE
  8
0
 10
307.4
 20
-87.5
 11
307.387
 21
-87.7509
  0
LINE
  8
0
 10
307.387
 20
-87.7509
 11
307.348
 21
-87.999
  0
LINE
  8
0
 10
307.348
 20
-87.999
 11
307.283
 21
-88.2416
  0
LINE
  8
0
 10
307.283
 20
-88.2416
 11
307.193
 21
-88.4762
  0
LINE
  8
0
 10
307.193
 20
-88.4762
 11
307.078
 21
-88.7
  0
LINE
  8
0
 10
307.078
 20
-88.7
 11
306.942
 21
-88.9107
  0
LINE
  8
0
 10
306.942
 20
-88.9107
 11
306.784
 21
-89.1059
  0
LINE
  8
0
 10
306.784
 20
-89.1059
 11
306.606
 21
-89.2835
  0
LINE
  8
0
 10
306.606
 20
-89.2835
 11
306.411
 21
-89.4416
  0
LINE
  8
0
 10
306.411
 20
-89.4416
 11
306.2
 21
-89.5785
  0
LINE
  8
0
 10
306.2
 20
-89.5785
 11
305.976
 21
-89.6925
  0
LINE
  8
0
 10
305.976
 20
-89.6925
 11
305.742
 21
-89.7825
  0
LINE
  8
0
 10
305.742
 20
-89.7825
 11
305.499
 21
-89.8475
  0
LINE
  8
0
 10
305.499
 20
-89.8475
 11
305.251
 21
-89.8869
  0
LINE
  8
0
 10
305.251
 20
-89.8869
 11
305
 21
-89.9
  0
LINE
  8
0
 10
305
 20
-89.9
 11
304.749
 21
-89.8869
  0
LINE
  8
0
 10
-305.251
 20
-89.8869
 11
-305.499
 21
-89.8475
  0
LINE
  8
0
 10
-305.499
 20
-89.8475
 11
-305.742
 21
-89.7825
  0
LINE
  8
0
 10
-305.742
 20
-89.7825
 11
-305.976
 21
-89.6925
  0
LINE
  8
0
 10
-305.976
 20
-89.6925
 11
-306.2
 21
-89.5785
  0
LINE
  8
0
 10
-306.2
 20
-89.5785
 11
-306.411
 21
-89.4416
  0
LINE
  8
0
 10
-306.411
 20
-89.4416
 11
-306.606
 21
-89.2835
  0
LINE
  8
0
 10
-306.606
 20
-89.2835
 11
-306.784
 21
-89.1059
  0
LINE
  8
0
 10
-306.784
 20
-89.1059
 11
-306.942
 21
-88.9107
  0
LINE
  8
0
 10
-306.942
 20
-88.9107
 11
-307.078
 21
-88.7
  0
LINE
  8
0
 10
-307.078
 20
-88.7
 11
-307.193
 21
-88.4762
  0
LINE
  8
0
 10
-307.193
 20
-88.4762
 11
-307.283
 21
-88.2416
  0
LINE
  8
0
 10
-307.283
 20
-88.2416
 11
-307.348
 21
-87.999
  0
LINE
  8
0
 10
-307.348
 20
-87.999
 11
-307.387
 21
-87.7509
  0
LINE
  8
0
 10
-307.387
 20
-87.7509
 11
-307.4
 21
-87.5
  0
LINE
  8
0
 10
-307.4
 20
-87.5
 11
-307.387
 21
-87.2491
  0
LINE
  8
0
 10
-307.387
 20
-87.2491
 11
-307.348
 21
-87.001
  0
LINE
  8
0
 10
-307.348
 20
-87.001
 11
-307.283
 21
-86.7584
  0
LINE
  8
0
 10
-307.283
 20
-86.7584
 11
-307.193
 21
-86.5238
  0
LINE
  8
0
 10
-307.193
 20
-86.5238
 11
-307.078
 21
-86.3
  0
LINE
  8
0
 10
-307.078
 20
-86.3
 11
-306.942
 21
-86.0893
  0
LINE
  8
0
 10
-306.942
 20
-86.0893
 11
-306.784
 21
-85.8941
  0
LINE
  8
0
 10
-306.784
 20
-85.8941
 11
-306.606
 21
-85.7164
  0
LINE
  8
0
 10
-306.606
 20
-85.7164
 11
-306.411
 21
-85.5583
  0
LINE
  8
0
 10
-306.411
 20
-85.5583
 11
-306.2
 21
-85.4215
  0
LINE
  8
0
 10
-306.2
 20
-85.4215
 11
-305.976
 21
-85.3075
  0
LINE
  8
0
 10
-305.976
 20
-85.3075
 11
-305.742
 21
-85.2175
  0
LINE
  8
0
 10
-305.742
 20
-85.2175
 11
-305.499
 21
-85.1524
  0
LINE
  8
0
 10
-305.499
 20
-85.1524
 11
-305.251
 21
-85.1131
  0
LINE
  8
0
 10
-305.251
 20
-85.1131
 11
-305
 21
-85.1
  0
LINE
  8
0
 10
-305
 20
-85.1
 11
-304.749
 21
-85.1131
  0
LINE
  8
0
 10
-304.749
 20
-85.1131
 11
-304.501
 21
-85.1524
  0
LINE
  8
0
 10
-304.501
 20
-85.1524
 11
-304.258
 21
-85.2175
  0
LINE
  8
0
 10
-304.258
 20
-85.2175
 11
-304.024
 21
-85.3075
  0
LINE
  8
0
 10
-304.024
 20
-85.3075
 11
-303.8
 21
-85.4215
  0
LINE
  8
0
 10
-303.8
 20
-85.4215
 11
-303.589
 21
-85.5583
  0
LINE
  8
0
 10
-303.589
 20
-85.5583
 11
-303.394
 21
-85.7164
  0
LINE
  8
0
 10
-303.394
 20
-85.7164
 11
-303.216
 21
-85.8941
  0
LINE
  8
0
 10
-303.216
 20
-85.8941
 11
-303.058
 21
-86.0893
  0
LINE
  8
0
 10
-303.058
 20
-86.0893
 11
-302.922
 21
-86.3
  0
LINE
  8
0
 10
-302.922
 20
-86.3
 11
-302.807
 21
-86.5238
  0
LINE
  8
0
 10
-302.807
 20
-86.5238
 11
-302.717
 21
-86.7584
  0
LINE
  8
0
 10
-302.717
 20
-86.7584
 11
-302.652
 21
-87.001
  0
LINE
  8
0
 10
-302.652
 20
-87.001
 11
-302.613
 21
-87.2491
  0
LINE
  8
0
 10
-302.613
 20
-87.2491
 11
-302.6
 21
-87.5
  0
LINE
  8
0
 10
-302.6
 20
-87.5
 11
-302.613
 21
-87.7509
  0
LINE
  8
0
 10
-302.613
 20
-87.7509
 11
-302.652
 21
-87.999
  0
LINE
  8
0
 10
-302.652
 20
-87.999
 11
-302.717
 21
-88.2416
  0
LINE
  8
0
 10
-302.717
 20
-88.2416
 11
-302.807
 21
-88.4762
  0
LINE
  8
0
 10
-302.807
 20
-88.4762
 11
-302.922
 21
-88.7
  0
LINE
  8
0
 10
-302.922
 20
-88.7
 11
-303.058
 21
-88.9107
  0
LINE
  8
0
 10
-303.058
 20
-88.9107
 11
-303.216
 21
-89.1059
  0
LINE
  8
0
 10
-303.216
 20
-89.1059
 11
-303.394
 21
-89.2835
  0
LINE
  8
0
 10
-303.394
 20
-89.2835
 11
-303.589
 21
-89.4416
  0
LINE
  8
0
 10
-303.589
 20
-89.4416
 11
-303.8
 21
-89.5785
  0
LINE
  8
0
 10
-303.8
 20
-89.5785
 11
-304.024
 21
-89.6925
  0
LINE
  8
0
 10
-304.024
 20
-89.6925
 11
-304.258
 21
-89.7825
  0
LINE
  8
0
 10
-304.258
 20
-89.7825
 11
-304.501
 21
-89.8475
  0
LINE
  8
0
 10
-304.501
 20
-89.8475
 11
-304.749
 21
-89.8869
  0
LINE
  8
0
 10
-304.749
 20
-89.8869
 11
-305
 21
-89.9
  0
LINE
  8
0
 10
-305
 20
-89.9
 11
-305.251
 21
-89.8869
  0
LINE
  8
0
 10
299.027
 20
-201.645
 11
298.783
 21
-201.609
  0
LINE
  8
0
 10
298.783
 20
-201.609
 11
298.547
 21
-201.536
  0
LINE
  8
0
 10
298.547
 20
-201.536
 11
298.325
 21
-201.429
  0
LINE
  8
0
 10
298.325
 20
-201.429
 11
298.121
 21
-201.29
  0
LINE
  8
0
 10
298.121
 20
-201.29
 11
297.94
 21
-201.122
  0
LINE
  8
0
 10
297.94
 20
-201.122
 11
297.787
 21
-200.929
  0
LINE
  8
0
 10
297.787
 20
-200.929
 11
297.663
 21
-200.716
  0
LINE
  8
0
 10
297.663
 20
-200.716
 11
297.573
 21
-200.486
  0
LINE
  8
0
 10
297.573
 20
-200.486
 11
297.518
 21
-200.246
  0
LINE
  8
0
 10
297.518
 20
-200.246
 11
297.5
 21
-200
  0
LINE
  8
0
 10
297.5
 20
-200
 11
297.518
 21
-199.754
  0
LINE
  8
0
 10
297.518
 20
-199.754
 11
297.573
 21
-199.514
  0
LINE
  8
0
 10
297.573
 20
-199.514
 11
297.663
 21
-199.284
  0
LINE
  8
0
 10
297.663
 20
-199.284
 11
297.787
 21
-199.071
  0
LINE
  8
0
 10
297.787
 20
-199.071
 11
297.94
 21
-198.878
  0
LINE
  8
0
 10
297.94
 20
-198.878
 11
298.121
 21
-198.71
  0
LINE
  8
0
 10
298.121
 20
-198.71
 11
298.325
 21
-198.571
  0
LINE
  8
0
 10
298.325
 20
-198.571
 11
298.547
 21
-198.464
  0
LINE
  8
0
 10
298.547
 20
-198.464
 11
298.783
 21
-198.391
  0
LINE
  8
0
 10
298.783
 20
-198.391
 11
299.027
 21
-198.355
  0
LINE
  8
0
 10
299.027
 20
-198.355
 11
307.273
 21
-198.355
  0
LINE
  8
0
 10
307.273
 20
-198.355
 11
307.517
 21
-198.391
  0
LINE
  8
0
 10
307.517
 20
-198.391
 11
307.753
 21
-198.464
  0
LINE
  8
0
 10
307.753
 20
-198.464
 11
307.975
 21
-198.571
  0
LINE
  8
0
 10
307.975
 20
-198.571
 11
308.179
 21
-198.71
  0
LINE
  8
0
 10
308.179
 20
-198.71
 11
308.36
 21
-198.878
  0
LINE
  8
0
 10
308.36
 20
-198.878
 11
308.513
 21
-199.071
  0
LINE
  8
0
 10
308.513
 20
-199.071
 11
308.637
 21
-199.284
  0
LINE
  8
0
 10
308.637
 20
-199.284
 11
308.727
 21
-199.514
  0
LINE
  8
0
 10
308.727
 20
-199.514
 11
308.782
 21
-199.754
  0
LINE
  8
0
 10
308.782
 20
-199.754
 11
308.8
 21
-200
  0
LINE
  8
0
 10
308.8
 20
-200
 11
308.782
 21
-200.246
  0
LINE
  8
0
 10
308.782
 20
-200.246
 11
308.727
 21
-200.486
  0
LINE
  8
0
 10
308.727
 20
-200.486
 11
308.637
 21
-200.716
  0
LINE
  8
0
 10
308.637
 20
-200.716
 11
308.513
 21
-200.929
  0
LINE
  8
0
 10
308.513
 20
-200.929
 11
308.36
 21
-201.122
  0
LINE
  8
0
 10
308.36
 20
-201.122
 11
308.179
 21
-201.29
  0
LINE
  8
0
 10
308.179
 20
-201.29
 11
307.975
 21
-201.429
  0
LINE
  8
0
 10
307.975
 20
-201.429
 11
307.753
 21
-201.536
  0
LINE
  8
0
 10
307.753
 20
-201.536
 11
307.517
 21
-201.609
  0
LINE
  8
0
 10
307.517
 20
-201.609
 11
307.273
 21
-201.645
  0
LINE
  8
0
 10
307.273
 20
-201.645
 11
299.027
 21
-201.645
  0
LINE
  8
0
 10
268.027
 20
-201.645
 11
267.783
 21
-201.609
  0
LINE
  8
0
 10
267.783
 20
-201.609
 11
267.547
 21
-201.536
  0
LINE
  8
0
 10
267.547
 20
-201.536
 11
267.325
 21
-201.429
  0
LINE
  8
0
 10
267.325
 20
-201.429
 11
267.121
 21
-201.29
  0
LINE
  8
0
 10
267.121
 20
-201.29
 11
266.94
 21
-201.122
  0
LINE
  8
0
 10
266.94
 20
-201.122
 11
266.787
 21
-200.929
  0
LINE
  8
0
 10
266.787
 20
-200.929
 11
266.663
 21
-200.716
  0
LINE
  8
0
 10
266.663
 20
-200.716
 11
266.573
 21
-200.486
  0
LINE
  8
0
 10
266.573
 20
-200.486
 11
266.518
 21
-200.246
  0
LINE
  8
0
 10
266.518
 20
-200.246
 11
266.5
 21
-200
  0
LINE
  8
0
 10
266.5
 20
-200
 11
266.518
 21
-199.754
  0
LINE
  8
0
 10
266.518
 20
-199.754
 11
266.573
 21
-199.514
  0
LINE
  8
0
 10
266.573
 20
-199.514
 11
266.663
 21
-199.284
  0
LINE
  8
0
 10
266.663
 20
-199.284
 11
266.787
 21
-199.071
  0
LINE
  8
0
 10
266.787
 20
-199.071
 11
266.94
 21
-198.878
  0
LINE
  8
0
 10
266.94
 20
-198.878
 11
267.121
 21
-198.71
  0
LINE
  8
0
 10
267.121
 20
-198.71
 11
267.325
 21
-198.571
  0
LINE
  8
0
 10
267.325
 20
-198.571
 11
267.547
 21
-198.464
  0
LINE
  8
0
 10
267.547
 20
-198.464
 11
267.783
 21
-198.391
  0
LINE
  8
0
 10
267.783
 20
-198.391
 11
268.027
 21
-198.355
  0
LINE
  8
0
 10
268.027
 20
-198.355
 11
276.273
 21
-198.355
  0
LINE
  8
0
 10
276.273
 20
-198.355
 11
276.517
 21
-198.391
  0
LINE
  8
0
 10
276.517
 20
-198.391
 11
276.753
 21
-198.464
  0
LINE
  8
0
 10
276.753
 20
-198.464
 11
276.975
 21
-198.571
  0
LINE
  8
0
 10
276.975
 20
-198.571
 11
277.179
 21
-198.71
  0
LINE
  8
0
 10
277.179
 20
-198.71
 11
277.36
 21
-198.878
  0
LINE
  8
0
 10
277.36
 20
-198.878
 11
277.513
 21
-199.071
  0
LINE
  8
0
 10
277.513
 20
-199.071
 11
277.637
 21
-199.284
  0
LINE
  8
0
 10
277.637
 20
-199.284
 11
277.727
 21
-199.514
  0
LINE
  8
0
 10
277.727
 20
-199.514
 11
277.782
 21
-199.754
  0
LINE
  8
0
 10
277.782
 20
-199.754
 11
277.8
 21
-200
  0
LINE
  8
0
 10
277.8
 20
-200
 11
277.782
 21
-200.246
  0
LINE
  8
0
 10
277.782
 20
-200.246
 11
277.727
 21
-200.486
  0
LINE
  8
0
 10
277.727
 20
-200.486
 11
277.637
 21
-200.716
  0
LINE
  8
0
 10
277.637
 20
-200.716
 11
277.513
 21
-200.929
  0
LINE
  8
0
 10
277.513
 20
-200.929
 11
277.36
 21
-201.122
  0
LINE
  8
0
 10
277.36
 20
-201.122
 11
277.179
 21
-201.29
  0
LINE
  8
0
 10
277.179
 20
-201.29
 11
276.975
 21
-201.429
  0
LINE
  8
0
 10
276.975
 20
-201.429
 11
276.753
 21
-201.536
  0
LINE
  8
0
 10
276.753
 20
-201.536
 11
276.517
 21
-201.609
  0
LINE
  8
0
 10
276.517
 20
-201.609
 11
276.273
 21
-201.645
  0
LINE
  8
0
 10
276.273
 20
-201.645
 11
268.027
 21
-201.645
  0
LINE
  8
0
 10
239.691
 20
-204.172
 11
239.451
 21
-204.109
  0
LINE
  8
0
 10
239.451
 20
-204.109
 11
239.223
 21
-204.012
  0
LINE
  8
0
 10
239.223
 20
-204.012
 11
239.011
 21
-203.883
  0
LINE
  8
0
 10
239.011
 20
-203.883
 11
238.82
 21
-203.724
  0
LINE
  8
0
 10
238.82
 20
-203.724
 11
238.654
 21
-203.539
  0
LINE
  8
0
 10
238.654
 20
-203.539
 11
238.518
 21
-203.332
  0
LINE
  8
0
 10
238.518
 20
-203.332
 11
238.412
 21
-203.107
  0
LINE
  8
0
 10
238.412
 20
-203.107
 11
238.341
 21
-202.87
  0
LINE
  8
0
 10
238.341
 20
-202.87
 11
238.305
 21
-202.624
  0
LINE
  8
0
 10
238.305
 20
-202.624
 11
238.305
 21
-202.376
  0
LINE
  8
0
 10
238.305
 20
-202.376
 11
238.341
 21
-202.13
  0
LINE
  8
0
 10
238.341
 20
-202.13
 11
238.412
 21
-201.893
  0
LINE
  8
0
 10
238.412
 20
-201.893
 11
238.518
 21
-201.668
  0
LINE
  8
0
 10
238.518
 20
-201.668
 11
238.654
 21
-201.461
  0
LINE
  8
0
 10
238.654
 20
-201.461
 11
238.82
 21
-201.276
  0
LINE
  8
0
 10
238.82
 20
-201.276
 11
239.011
 21
-201.117
  0
LINE
  8
0
 10
239.011
 20
-201.117
 11
239.223
 21
-200.988
  0
LINE
  8
0
 10
239.223
 20
-200.988
 11
239.451
 21
-200.891
  0
LINE
  8
0
 10
239.451
 20
-200.891
 11
239.691
 21
-200.828
  0
LINE
  8
0
 10
239.691
 20
-200.828
 11
239.938
 21
-200.801
  0
LINE
  8
0
 10
239.938
 20
-200.801
 11
240.186
 21
-200.81
  0
LINE
  8
0
 10
240.186
 20
-200.81
 11
240.43
 21
-200.855
  0
LINE
  8
0
 10
240.43
 20
-200.855
 11
240.665
 21
-200.935
  0
LINE
  8
0
 10
240.665
 20
-200.935
 11
240.886
 21
-201.049
  0
LINE
  8
0
 10
240.886
 20
-201.049
 11
241.087
 21
-201.193
  0
LINE
  8
0
 10
241.087
 20
-201.193
 11
241.266
 21
-201.366
  0
LINE
  8
0
 10
241.266
 20
-201.366
 11
241.418
 21
-201.562
  0
LINE
  8
0
 10
241.418
 20
-201.562
 11
241.539
 21
-201.778
  0
LINE
  8
0
 10
241.539
 20
-201.778
 11
241.628
 21
-202.01
  0
LINE
  8
0
 10
241.628
 20
-202.01
 11
241.682
 21
-202.252
  0
LINE
  8
0
 10
241.682
 20
-202.252
 11
241.7
 21
-202.5
  0
LINE
  8
0
 10
241.7
 20
-202.5
 11
241.682
 21
-202.748
  0
LINE
  8
0
 10
241.682
 20
-202.748
 11
241.628
 21
-202.99
  0
LINE
  8
0
 10
241.628
 20
-202.99
 11
241.539
 21
-203.222
  0
LINE
  8
0
 10
241.539
 20
-203.222
 11
241.418
 21
-203.438
  0
LINE
  8
0
 10
241.418
 20
-203.438
 11
241.266
 21
-203.634
  0
LINE
  8
0
 10
241.266
 20
-203.634
 11
241.087
 21
-203.807
  0
LINE
  8
0
 10
241.087
 20
-203.807
 11
240.886
 21
-203.951
  0
LINE
  8
0
 10
240.886
 20
-203.951
 11
240.665
 21
-204.065
  0
LINE
  8
0
 10
240.665
 20
-204.065
 11
240.43
 21
-204.145
  0
LINE
  8
0
 10
240.43
 20
-204.145
 11
240.186
 21
-204.19
  0
LINE
  8
0
 10
240.186
 20
-204.19
 11
239.938
 21
-204.199
  0
LINE
  8
0
 10
239.938
 20
-204.199
 11
239.691
 21
-204.172
  0
LINE
  8
0
 10
-240.186
 20
-204.19
 11
-240.43
 21
-204.145
  0
LINE
  8
0
 10
-240.43
 20
-204.145
 11
-240.665
 21
-204.065
  0
LINE
  8
0
 10
-240.665
 20
-204.065
 11
-240.886
 21
-203.951
  0
LINE
  8
0
 10
-240.886
 20
-203.951
 11
-241.087
 21
-203.807
  0
LINE
  8
0
 10
-241.087
 20
-203.807
 11
-241.266
 21
-203.634
  0
LINE
  8
0
 10
-241.266
 20
-203.634
 11
-241.418
 21
-203.438
  0
LINE
  8
0
 10
-241.418
 20
-203.438
 11
-241.539
 21
-203.222
  0
LINE
  8
0
 10
-241.539
 20
-203.222
 11
-241.628
 21
-202.99
  0
LINE
  8
0
 10
-241.628
 20
-202.99
 11
-241.682
 21
-202.748
  0
LINE
  8
0
 10
-241.682
 20
-202.748
 11
-241.7
 21
-202.5
  0
LINE
  8
0
 10
-241.7
 20
-202.5
 11
-241.682
 21
-202.252
  0
LINE
  8
0
 10
-241.682
 20
-202.252
 11
-241.628
 21
-202.01
  0
LINE
  8
0
 10
-241.628
 20
-202.01
 11
-241.539
 21
-201.778
  0
LINE
  8
0
 10
-241.539
 20
-201.778
 11
-241.418
 21
-201.562
  0
LINE
  8
0
 10
-241.418
 20
-201.562
 11
-241.266
 21
-201.366
  0
LINE
  8
0
 10
-241.266
 20
-201.366
 11
-241.087
 21
-201.193
  0
LINE
  8
0
 10
-241.087
 20
-201.193
 11
-240.886
 21
-201.049
  0
LINE
  8
0
 10
-240.886
 20
-201.049
 11
-240.665
 21
-200.935
  0
LINE
  8
0
 10
-240.665
 20
-200.935
 11
-240.43
 21
-200.855
  0
LINE
  8
0
 10
-240.43
 20
-200.855
 11
-240.186
 21
-200.81
  0
LINE
  8
0
 10
-240.186
 20
-200.81
 11
-239.938
 21
-200.801
  0
LINE
  8
0
 10
-239.938
 20
-200.801
 11
-239.691
 21
-200.828
  0
LINE
  8
0
 10
-239.691
 20
-200.828
 11
-239.451
 21
-200.891
  0
LINE
  8
0
 10
-239.451
 20
-200.891
 11
-239.223
 21
-200.988
  0
LINE
  8
0
 10
-239.223
 20
-200.988
 11
-239.011
 21
-201.117
  0
LINE
  8
0
 10
-239.011
 20
-201.117
 11
-238.82
 21
-201.276
  0
LINE
  8
0
 10
-238.82
 20
-201.276
 11
-238.654
 21
-201.461
  0
LINE
  8
0
 10
-238.654
 20
-201.461
 11
-238.518
 21
-201.668
  0
LINE
  8
0
 10
-238.518
 20
-201.668
 11
-238.412
 21
-201.893
  0
LINE
  8
0
 10
-238.412
 20
-201.893
 11
-238.341
 21
-202.13
  0
LINE
  8
0
 10
-238.341
 20
-202.13
 11
-238.305
 21
-202.376
  0
LINE
  8
0
 10
-238.305
 20
-202.376
 11
-238.305
 21
-202.624
  0
LINE
  8
0
 10
-238.305
 20
-202.624
 11
-238.341
 21
-202.87
  0
LINE
  8
0
 10
-238.341
 20
-202.87
 11
-238.412
 21
-203.107
  0
LINE
  8
0
 10
-238.412
 20
-203.107
 11
-238.518
 21
-203.332
  0
LINE
  8
0
 10
-238.518
 20
-203.332
 11
-238.654
 21
-203.539
  0
LINE
  8
0
 10
-238.654
 20
-203.539
 11
-238.82
 21
-203.724
  0
LINE
  8
0
 10
-238.82
 20
-203.724
 11
-239.011
 21
-203.883
  0
LINE
  8
0
 10
-239.011
 20
-203.883
 11
-239.223
 21
-204.012
  0
LINE
  8
0
 10
-239.223
 20
-204.012
 11
-239.451
 21
-204.109
  0
LINE
  8
0
 10
-239.451
 20
-204.109
 11
-239.691
 21
-204.172
  0
LINE
  8
0
 10
-239.691
 20
-204.172
 11
-239.938
 21
-204.199
  0
LINE
  8
0
 10
-239.938
 20
-204.199
 11
-240.186
 21
-204.19
  0
LINE
  8
0
 10
-274.809
 20
-206.172
 11
-275.049
 21
-206.109
  0
LINE
  8
0
 10
-275.049
 20
-206.109
 11
-275.277
 21
-206.012
  0
LINE
  8
0
 10
-275.277
 20
-206.012
 11
-275.489
 21
-205.883
  0
LINE
  8
0
 10
-275.489
 20
-205.883
 11
-275.68
 21
-205.724
  0
LINE
  8
0
 10
-275.68
 20
-205.724
 11
-275.846
 21
-205.539
  0
LINE
  8
0
 10
-275.846
 20
-205.539
 11
-275.982
 21
-205.332
  0
LINE
  8
0
 10
-275.982
 20
-205.332
 11
-276.088
 21
-205.107
  0
LINE
  8
0
 10
-276.088
 20
-205.107
 11
-276.159
 21
-204.87
  0
LINE
  8
0
 10
-276.159
 20
-204.87
 11
-276.195
 21
-204.624
  0
LINE
  8
0
 10
-276.195
 20
-204.624
 11
-276.195
 21
-204.376
  0
LINE
  8
0
 10
-276.195
 20
-204.376
 11
-276.159
 21
-204.13
  0
LINE
  8
0
 10
-276.159
 20
-204.13
 11
-276.088
 21
-203.893
  0
LINE
  8
0
 10
-276.088
 20
-203.893
 11
-275.982
 21
-203.668
  0
LINE
  8
0
 10
-275.982
 20
-203.668
 11
-275.846
 21
-203.461
  0
LINE
  8
0
 10
-275.846
 20
-203.461
 11
-275.68
 21
-203.276
  0
LINE
  8
0
 10
-275.68
 20
-203.276
 11
-275.489
 21
-203.117
  0
LINE
  8
0
 10
-275.489
 20
-203.117
 11
-275.277
 21
-202.988
  0
LINE
  8
0
 10
-275.277
 20
-202.988
 11
-275.049
 21
-202.891
  0
LINE
  8
0
 10
-275.049
 20
-202.891
 11
-274.809
 21
-202.828
  0
LINE
  8
0
 10
-274.809
 20
-202.828
 11
-274.562
 21
-202.801
  0
LINE
  8
0
 10
-274.562
 20
-202.801
 11
-274.314
 21
-202.81
  0
LINE
  8
0
 10
-274.314
 20
-202.81
 11
-274.07
 21
-202.855
  0
LINE
  8
0
 10
-274.07
 20
-202.855
 11
-273.835
 21
-202.935
  0
LINE
  8
0
 10
-273.835
 20
-202.935
 11
-273.614
 21
-203.049
  0
LINE
  8
0
 10
-273.614
 20
-203.049
 11
-273.413
 21
-203.193
  0
LINE
  8
0
 10
-273.413
 20
-203.193
 11
-273.234
 21
-203.366
  0
LINE
  8
0
 10
-273.234
 20
-203.366
 11
-273.082
 21
-203.562
  0
LINE
  8
0
 10
-273.082
 20
-203.562
 11
-272.961
 21
-203.778
  0
LINE
  8
0
 10
-272.961
 20
-203.778
 11
-272.872
 21
-204.01
  0
LINE
  8
0
 10
-272.872
 20
-204.01
 11
-272.818
 21
-204.252
  0
LINE
  8
0
 10
-272.818
 20
-204.252
 11
-272.8
 21
-204.5
  0
LINE
  8
0
 10
-272.8
 20
-204.5
 11
-272.818
 21
-204.748
  0
LINE
  8
0
 10
-272.818
 20
-204.748
 11
-272.872
 21
-204.99
  0
LINE
  8
0
 10
-272.872
 20
-204.99
 11
-272.961
 21
-205.222
  0
LINE
  8
0
 10
-272.961
 20
-205.222
 11
-273.082
 21
-205.438
  0
LINE
  8
0
 10
-273.082
 20
-205.438
 11
-273.234
 21
-205.634
  0
LINE
  8
0
 10
-273.234
 20
-205.634
 11
-273.413
 21
-205.807
  0
LINE
  8
0
 10
-273.413
 20
-205.807
 11
-273.614
 21
-205.951
  0
LINE
  8
0
 10
-273.614
 20
-205.951
 11
-273.835
 21
-206.065
  0
LINE
  8
0
 10
-273.835
 20
-206.065
 11
-274.07
 21
-206.145
  0
LINE
  8
0
 10
-274.07
 20
-206.145
 11
-274.314
 21
-206.19
  0
LINE
  8
0
 10
-274.314
 20
-206.19
 11
-274.562
 21
-206.199
  0
LINE
  8
0
 10
-274.562
 20
-206.199
 11
-274.809
 21
-206.172
  0
LINE
  8
0
 10
283.15
 20
-228
 11
281.843
 21
-227.932
  0
LINE
  8
0
 10
281.843
 20
-227.932
 11
280.551
 21
-227.727
  0
LINE
  8
0
 10
280.551
 20
-227.727
 11
279.287
 21
-227.388
  0
LINE
  8
0
 10
279.287
 20
-227.388
 11
278.066
 21
-226.919
  0
LINE
  8
0
 10
278.066
 20
-226.919
 11
276.9
 21
-226.325
  0
LINE
  8
0
 10
276.9
 20
-226.325
 11
275.803
 21
-225.613
  0
LINE
  8
0
 10
275.803
 20
-225.613
 11
274.786
 21
-224.789
  0
LINE
  8
0
 10
274.786
 20
-224.789
 11
273.861
 21
-223.864
  0
LINE
  8
0
 10
273.861
 20
-223.864
 11
273.037
 21
-222.847
  0
LINE
  8
0
 10
273.037
 20
-222.847
 11
272.325
 21
-221.75
  0
LINE
  8
0
 10
272.325
 20
-221.75
 11
271.731
 21
-220.584
  0
LINE
  8
0
 10
271.731
 20
-220.584
 11
271.262
 21
-219.363
  0
LINE
  8
0
 10
271.262
 20
-219.363
 11
270.923
 21
-218.099
  0
LINE
  8
0
 10
270.923
 20
-218.099
 11
270.718
 21
-216.807
  0
LINE
  8
0
 10
270.718
 20
-216.807
 11
270.65
 21
-215.5
  0
LINE
  8
0
 10
270.65
 20
-215.5
 11
270.718
 21
-214.193
  0
LINE
  8
0
 10
270.718
 20
-214.193
 11
270.923
 21
-212.901
  0
LINE
  8
0
 10
270.923
 20
-212.901
 11
271.262
 21
-211.637
  0
LINE
  8
0
 10
271.262
 20
-211.637
 11
271.731
 21
-210.416
  0
LINE
  8
0
 10
271.731
 20
-210.416
 11
272.325
 21
-209.25
  0
LINE
  8
0
 10
272.325
 20
-209.25
 11
273.037
 21
-208.153
  0
LINE
  8
0
 10
273.037
 20
-208.153
 11
273.861
 21
-207.136
  0
LINE
  8
0
 10
273.861
 20
-207.136
 11
274.786
 21
-206.211
  0
LINE
  8
0
 10
274.786
 20
-206.211
 11
275.803
 21
-205.387
  0
LINE
  8
0
 10
275.803
 20
-205.387
 11
276.9
 21
-204.675
  0
LINE
  8
0
 10
276.9
 20
-204.675
 11
278.066
 21
-204.081
  0
LINE
  8
0
 10
278.066
 20
-204.081
 11
279.287
 21
-203.612
  0
LINE
  8
0
 10
279.287
 20
-203.612
 11
280.551
 21
-203.273
  0
LINE
  8
0
 10
280.551
 20
-203.273
 11
281.843
 21
-203.068
  0
LINE
  8
0
 10
281.843
 20
-203.068
 11
283.15
 21
-203
  0
LINE
  8
0
 10
283.15
 20
-203
 11
291.15
 21
-203
  0
LINE
  8
0
 10
291.15
 20
-203
 11
292.457
 21
-203.068
  0
LINE
  8
0
 10
292.457
 20
-203.068
 11
293.749
 21
-203.273
  0
LINE
  8
0
 10
293.749
 20
-203.273
 11
295.013
 21
-203.612
  0
LINE
  8
0
 10
295.013
 20
-203.612
 11
296.234
 21
-204.081
  0
LINE
  8
0
 10
296.234
 20
-204.081
 11
297.4
 21
-204.675
  0
LINE
  8
0
 10
297.4
 20
-204.675
 11
298.497
 21
-205.387
  0
LINE
  8
0
 10
298.497
 20
-205.387
 11
299.514
 21
-206.211
  0
LINE
  8
0
 10
299.514
 20
-206.211
 11
300.439
 21
-207.136
  0
LINE
  8
0
 10
300.439
 20
-207.136
 11
301.263
 21
-208.153
  0
LINE
  8
0
 10
301.263
 20
-208.153
 11
301.975
 21
-209.25
  0
LINE
  8
0
 10
301.975
 20
-209.25
 11
302.569
 21
-210.416
  0
LINE
  8
0
 10
302.569
 20
-210.416
 11
303.038
 21
-211.637
  0
LINE
  8
0
 10
303.038
 20
-211.637
 11
303.377
 21
-212.901
  0
LINE
  8
0
 10
303.377
 20
-212.901
 11
303.582
 21
-214.193
  0
LINE
  8
0
 10
303.582
 20
-214.193
 11
303.65
 21
-215.5
  0
LINE
  8
0
 10
303.65
 20
-215.5
 11
303.582
 21
-216.807
  0
LINE
  8
0
 10
303.582
 20
-216.807
 11
303.377
 21
-218.099
  0
LINE
  8
0
 10
303.377
 20
-218.099
 11
303.038
 21
-219.363
  0
LINE
  8
0
 10
303.038
 20
-219.363
 11
302.569
 21
-220.584
  0
LINE
  8
0
 10
302.569
 20
-220.584
 11
301.975
 21
-221.75
  0
LINE
  8
0
 10
301.975
 20
-221.75
 11
301.263
 21
-222.847
  0
LINE
  8
0
 10
301.263
 20
-222.847
 11
300.439
 21
-223.864
  0
LINE
  8
0
 10
300.439
 20
-223.864
 11
299.514
 21
-224.789
  0
LINE
  8
0
 10
299.514
 20
-224.789
 11
298.497
 21
-225.613
  0
LINE
  8
0
 10
298.497
 20
-225.613
 11
297.4
 21
-226.325
  0
LINE
  8
0
 10
297.4
 20
-226.325
 11
296.234
 21
-226.919
  0
LINE
  8
0
 10
296.234
 20
-226.919
 11
295.013
 21
-227.388
  0
LINE
  8
0
 10
295.013
 20
-227.388
 11
293.749
 21
-227.727
  0
LINE
  8
0
 10
293.749
 20
-227.727
 11
292.457
 21
-227.932
  0
LINE
  8
0
 10
292.457
 20
-227.932
 11
291.15
 21
-228
  0
LINE
  8
0
 10
291.15
 20
-228
 11
283.15
 21
-228
  0
LINE
  8
0
 10
-289.959
 20
-217.172
 11
-290.199
 21
-217.109
  0
LINE
  8
0
 10
-290.199
 20
-217.109
 11
-290.427
 21
-217.012
  0
LINE
  8
0
 10
-290.427
 20
-217.012
 11
-290.639
 21
-216.883
  0
LINE
  8
0
 10
-290.639
 20
-216.883
 11
-290.83
 21
-216.724
  0
LINE
  8
0
 10
-290.83
 20
-216.724
 11
-290.996
 21
-216.539
  0
LINE
  8
0
 10
-290.996
 20
-216.539
 11
-291.132
 21
-216.332
  0
LINE
  8
0
 10
-291.132
 20
-216.332
 11
-291.238
 21
-216.107
  0
LINE
  8
0
 10
-291.238
 20
-216.107
 11
-291.309
 21
-215.87
  0
LINE
  8
0
 10
-291.309
 20
-215.87
 11
-291.345
 21
-215.624
  0
LINE
  8
0
 10
-291.345
 20
-215.624
 11
-291.345
 21
-215.376
  0
LINE
  8
0
 10
-291.345
 20
-215.376
 11
-291.309
 21
-215.13
  0
LINE
  8
0
 10
-291.309
 20
-215.13
 11
-291.238
 21
-214.893
  0
LINE
  8
0
 10
-291.238
 20
-214.893
 11
-291.132
 21
-214.668
  0
LINE
  8
0
 10
-291.132
 20
-214.668
 11
-290.996
 21
-214.461
  0
LINE
  8
0
 10
-290.996
 20
-214.461
 11
-290.83
 21
-214.276
  0
LINE
  8
0
 10
-290.83
 20
-214.276
 11
-290.639
 21
-214.117
  0
LINE
  8
0
 10
-290.639
 20
-214.117
 11
-290.427
 21
-213.988
  0
LINE
  8
0
 10
-290.427
 20
-213.988
 11
-290.199
 21
-213.891
  0
LINE
  8
0
 10
-290.199
 20
-213.891
 11
-289.959
 21
-213.828
  0
LINE
  8
0
 10
-289.959
 20
-213.828
 11
-289.712
 21
-213.801
  0
LINE
  8
0
 10
-289.712
 20
-213.801
 11
-289.464
 21
-213.81
  0
LINE
  8
0
 10
-289.464
 20
-213.81
 11
-289.22
 21
-213.855
  0
LINE
  8
0
 10
-289.22
 20
-213.855
 11
-288.985
 21
-213.935
  0
LINE
  8
0
 10
-288.985
 20
-213.935
 11
-288.764
 21
-214.049
  0
LINE
  8
0
 10
-288.764
 20
-214.049
 11
-288.563
 21
-214.193
  0
LINE
  8
0
 10
-288.563
 20
-214.193
 11
-288.384
 21
-214.366
  0
LINE
  8
0
 10
-288.384
 20
-214.366
 11
-288.232
 21
-214.562
  0
LINE
  8
0
 10
-288.232
 20
-214.562
 11
-288.111
 21
-214.778
  0
LINE
  8
0
 10
-288.111
 20
-214.778
 11
-288.022
 21
-215.01
  0
LINE
  8
0
 10
-288.022
 20
-215.01
 11
-287.968
 21
-215.252
  0
LINE
  8
0
 10
-287.968
 20
-215.252
 11
-287.95
 21
-215.5
  0
LINE
  8
0
 10
-287.95
 20
-215.5
 11
-287.968
 21
-215.748
  0
LINE
  8
0
 10
-287.968
 20
-215.748
 11
-288.022
 21
-215.99
  0
LINE
  8
0
 10
-288.022
 20
-215.99
 11
-288.111
 21
-216.222
  0
LINE
  8
0
 10
-288.111
 20
-216.222
 11
-288.232
 21
-216.438
  0
LINE
  8
0
 10
-288.232
 20
-216.438
 11
-288.384
 21
-216.634
  0
LINE
  8
0
 10
-288.384
 20
-216.634
 11
-288.563
 21
-216.807
  0
LINE
  8
0
 10
-288.563
 20
-216.807
 11
-288.764
 21
-216.951
  0
LINE
  8
0
 10
-288.764
 20
-216.951
 11
-288.985
 21
-217.065
  0
LINE
  8
0
 10
-288.985
 20
-217.065
 11
-289.22
 21
-217.145
  0
LINE
  8
0
 10
-289.22
 20
-217.145
 11
-289.464
 21
-217.19
  0
LINE
  8
0
 10
-289.464
 20
-217.19
 11
-289.712
 21
-217.199
  0
LINE
  8
0
 10
-289.712
 20
-217.199
 11
-289.959
 21
-217.172
  0
LINE
  8
0
 10
-240.523
 20
-237.473
 11
-241.04
 21
-237.391
  0
LINE
  8
0
 10
-241.04
 20
-237.391
 11
-241.545
 21
-237.255
  0
LINE
  8
0
 10
-241.545
 20
-237.255
 11
-242.034
 21
-237.068
  0
LINE
  8
0
 10
-242.034
 20
-237.068
 11
-242.5
 21
-236.83
  0
LINE
  8
0
 10
-242.5
 20
-236.83
 11
-242.939
 21
-236.545
  0
LINE
  8
0
 10
-242.939
 20
-236.545
 11
-243.346
 21
-236.216
  0
LINE
  8
0
 10
-243.346
 20
-236.216
 11
-243.716
 21
-235.846
  0
LINE
  8
0
 10
-243.716
 20
-235.846
 11
-244.045
 21
-235.439
  0
LINE
  8
0
 10
-244.045
 20
-235.439
 11
-244.33
 21
-235
  0
LINE
  8
0
 10
-244.33
 20
-235
 11
-244.568
 21
-234.534
  0
LINE
  8
0
 10
-244.568
 20
-234.534
 11
-244.755
 21
-234.045
  0
LINE
  8
0
 10
-244.755
 20
-234.045
 11
-244.891
 21
-233.54
  0
LINE
  8
0
 10
-244.891
 20
-233.54
 11
-244.973
 21
-233.023
  0
LINE
  8
0
 10
-244.973
 20
-233.023
 11
-245
 21
-232.5
  0
LINE
  8
0
 10
-245
 20
-232.5
 11
-244.973
 21
-231.977
  0
LINE
  8
0
 10
-244.973
 20
-231.977
 11
-244.891
 21
-231.46
  0
LINE
  8
0
 10
-244.891
 20
-231.46
 11
-244.755
 21
-230.955
  0
LINE
  8
0
 10
-244.755
 20
-230.955
 11
-244.568
 21
-230.466
  0
LINE
  8
0
 10
-244.568
 20
-230.466
 11
-244.33
 21
-230
  0
LINE
  8
0
 10
-244.33
 20
-230
 11
-244.045
 21
-229.561
  0
LINE
  8
0
 10
-244.045
 20
-229.561
 11
-243.716
 21
-229.154
  0
LINE
  8
0
 10
-243.716
 20
-229.154
 11
-243.346
 21
-228.784
  0
LINE
  8
0
 10
-243.346
 20
-228.784
 11
-242.939
 21
-228.455
  0
LINE
  8
0
 10
-242.939
 20
-228.455
 11
-242.5
 21
-228.17
  0
LINE
  8
0
 10
-242.5
 20
-228.17
 11
-242.034
 21
-227.932
  0
LINE
  8
0
 10
-242.034
 20
-227.932
 11
-241.545
 21
-227.745
  0
LINE
  8
0
 10
-241.545
 20
-227.745
 11
-241.04
 21
-227.609
  0
LINE
  8
0
 10
-241.04
 20
-227.609
 11
-240.523
 21
-227.527
  0
LINE
  8
0
 10
-240.523
 20
-227.527
 11
-240
 21
-227.5
  0
LINE
  8
0
 10
-240
 20
-227.5
 11
-239.477
 21
-227.527
  0
LINE
  8
0
 10
-239.477
 20
-227.527
 11
-238.96
 21
-227.609
  0
LINE
  8
0
 10
-238.96
 20
-227.609
 11
-238.455
 21
-227.745
  0
LINE
  8
0
 10
-238.455
 20
-227.745
 11
-237.966
 21
-227.932
  0
LINE
  8
0
 10
-237.966
 20
-227.932
 11
-237.5
 21
-228.17
  0
LINE
  8
0
 10
-237.5
 20
-228.17
 11
-237.061
 21
-228.455
  0
LINE
  8
0
 10
-237.061
 20
-228.455
 11
-236.654
 21
-228.784
  0
LINE
  8
0
 10
-236.654
 20
-228.784
 11
-236.284
 21
-229.154
  0
LINE
  8
0
 10
-236.284
 20
-229.154
 11
-235.955
 21
-229.561
  0
LINE
  8
0
 10
-235.955
 20
-229.561
 11
-235.67
 21
-230
  0
LINE
  8
0
 10
-235.67
 20
-230
 11
-235.432
 21
-230.466
  0
LINE
  8
0
 10
-235.432
 20
-230.466
 11
-235.245
 21
-230.955
  0
LINE
  8
0
 10
-235.245
 20
-230.955
 11
-235.109
 21
-231.46
  0
LINE
  8
0
 10
-235.109
 20
-231.46
 11
-235.027
 21
-231.977
  0
LINE
  8
0
 10
-235.027
 20
-231.977
 11
-235
 21
-232.5
  0
LINE
  8
0
 10
-235
 20
-232.5
 11
-235.027
 21
-233.023
  0
LINE
  8
0
 10
-235.027
 20
-233.023
 11
-235.109
 21
-233.54
  0
LINE
  8
0
 10
-235.109
 20
-233.54
 11
-235.245
 21
-234.045
  0
LINE
  8
0
 10
-235.245
 20
-234.045
 11
-235.432
 21
-234.534
  0
LINE
  8
0
 10
-235.432
 20
-234.534
 11
-235.67
 21
-235
  0
LINE
  8
0
 10
-235.67
 20
-235
 11
-235.955
 21
-235.439
  0
LINE
  8
0
 10
-235.955
 20
-235.439
 11
-236.284
 21
-235.846
  0
LINE
  8
0
 10
-236.284
 20
-235.846
 11
-236.654
 21
-236.216
  0
LINE
  8
0
 10
-236.654
 20
-236.216
 11
-237.061
 21
-236.545
  0
LINE
  8
0
 10
-237.061
 20
-236.545
 11
-237.5
 21
-236.83
  0
LINE
  8
0
 10
-237.5
 20
-236.83
 11
-237.966
 21
-237.068
  0
LINE
  8
0
 10
-237.966
 20
-237.068
 11
-238.455
 21
-237.255
  0
LINE
  8
0
 10
-238.455
 20
-237.255
 11
-238.96
 21
-237.391
  0
LINE
  8
0
 10
-238.96
 20
-237.391
 11
-239.477
 21
-237.473
  0
LINE
  8
0
 10
-239.477
 20
-237.473
 11
-240
 21
-237.5
  0
LINE
  8
0
 10
-240
 20
-237.5
 11
-240.523
 21
-237.473
  0
LINE
  8
0
 10
239.477
 20
-237.473
 11
238.96
 21
-237.391
  0
LINE
  8
0
 10
238.96
 20
-237.391
 11
238.455
 21
-237.255
  0
LINE
  8
0
 10
238.455
 20
-237.255
 11
237.966
 21
-237.068
  0
LINE
  8
0
 10
237.966
 20
-237.068
 11
237.5
 21
-236.83
  0
LINE
  8
0
 10
237.5
 20
-236.83
 11
237.061
 21
-236.545
  0
LINE
  8
0
 10
237.061
 20
-236.545
 11
236.654
 21
-236.216
  0
LINE
  8
0
 10
236.654
 20
-236.216
 11
236.284
 21
-235.846
  0
LINE
  8
0
 10
236.284
 20
-235.846
 11
235.955
 21
-235.439
  0
LINE
  8
0
 10
235.955
 20
-235.439
 11
235.67
 21
-235
  0
LINE
  8
0
 10
235.67
 20
-235
 11
235.432
 21
-234.534
  0
LINE
  8
0
 10
235.432
 20
-234.534
 11
235.245
 21
-234.045
  0
LINE
  8
0
 10
235.245
 20
-234.045
 11
235.109
 21
-233.54
  0
LINE
  8
0
 10
235.109
 20
-233.54
 11
235.027
 21
-233.023
  0
LINE
  8
0
 10
235.027
 20
-233.023
 11
235
 21
-232.5
  0
LINE
  8
0
 10
235
 20
-232.5
 11
235.027
 21
-231.977
  0
LINE
  8
0
 10
235.027
 20
-231.977
 11
235.109
 21
-231.46
  0
LINE
  8
0
 10
235.109
 20
-231.46
 11
235.245
 21
-230.955
  0
LINE
  8
0
 10
235.245
 20
-230.955
 11
235.432
 21
-230.466
  0
LINE
  8
0
 10
235.432
 20
-230.466
 11
235.67
 21
-230
  0
LINE
  8
0
 10
235.67
 20
-230
 11
235.955
 21
-229.561
  0
LINE
  8
0
 10
235.955
 20
-229.561
 11
236.284
 21
-229.154
  0
LINE
  8
0
 10
236.284
 20
-229.154
 11
236.654
 21
-228.784
  0
LINE
  8
0
 10
236.654
 20
-228.784
 11
237.061
 21
-228.455
  0
LINE
  8
0
 10
237.061
 20
-228.455
 11
237.5
 21
-228.17
  0
LINE
  8
0
 10
237.5
 20
-228.17
 11
237.966
 21
-227.932
  0
LINE
  8
0
 10
237.966
 20
-227.932
 11
238.455
 21
-227.745
  0
LINE
  8
0
 10
238.455
 20
-227.745
 11
238.96
 21
-227.609
  0
LINE
  8
0
 10
238.96
 20
-227.609
 11
239.477
 21
-227.527
  0
LINE
  8
0
 10
239.477
 20
-227.527
 11
240
 21
-227.5
  0
LINE
  8
0
 10
240
 20
-227.5
 11
240.523
 21
-227.527
  0
LINE
  8
0
 10
240.523
 20
-227.527
 11
241.04
 21
-227.609
  0
LINE
  8
0
 10
241.04
 20
-227.609
 11
241.545
 21
-227.745
  0
LINE
  8
0
 10
241.545
 20
-227.745
 11
242.034
 21
-227.932
  0
LINE
  8
0
 10
242.034
 20
-227.932
 11
242.5
 21
-228.17
  0
LINE
  8
0
 10
242.5
 20
-228.17
 11
242.939
 21
-228.455
  0
LINE
  8
0
 10
242.939
 20
-228.455
 11
243.346
 21
-228.784
  0
LINE
  8
0
 10
243.346
 20
-228.784
 11
243.716
 21
-229.154
  0
LINE
  8
0
 10
243.716
 20
-229.154
 11
244.045
 21
-229.561
  0
LINE
  8
0
 10
244.045
 20
-229.561
 11
244.33
 21
-230
  0
LINE
  8
0
 10
244.33
 20
-230
 11
244.568
 21
-230.466
  0
LINE
  8
0
 10
244.568
 20
-230.466
 11
244.755
 21
-230.955
  0
LINE
  8
0
 10
244.755
 20
-230.955
 11
244.891
 21
-231.46
  0
LINE
  8
0
 10
244.891
 20
-231.46
 11
244.973
 21
-231.977
  0
LINE
  8
0
 10
244.973
 20
-231.977
 11
245
 21
-232.5
  0
LINE
  8
0
 10
245
 20
-232.5
 11
244.973
 21
-233.023
  0
LINE
  8
0
 10
244.973
 20
-233.023
 11
244.891
 21
-233.54
  0
LINE
  8
0
 10
244.891
 20
-233.54
 11
244.755
 21
-234.045
  0
LINE
  8
0
 10
244.755
 20
-234.045
 11
244.568
 21
-234.534
  0
LINE
  8
0
 10
244.568
 20
-234.534
 11
244.33
 21
-235
  0
LINE
  8
0
 10
244.33
 20
-235
 11
244.045
 21
-235.439
  0
LINE
  8
0
 10
244.045
 20
-235.439
 11
243.716
 21
-235.846
  0
LINE
  8
0
 10
243.716
 20
-235.846
 11
243.346
 21
-236.216
  0
LINE
  8
0
 10
243.346
 20
-236.216
 11
242.939
 21
-236.545
  0
LINE
  8
0
 10
242.939
 20
-236.545
 11
242.5
 21
-236.83
  0
LINE
  8
0
 10
242.5
 20
-236.83
 11
242.034
 21
-237.068
  0
LINE
  8
0
 10
242.034
 20
-237.068
 11
241.545
 21
-237.255
  0
LINE
  8
0
 10
241.545
 20
-237.255
 11
241.04
 21
-237.391
  0
LINE
  8
0
 10
241.04
 20
-237.391
 11
240.523
 21
-237.473
  0
LINE
  8
0
 10
240.523
 20
-237.473
 11
240
 21
-237.5
  0
LINE
  8
0
 10
240
 20
-237.5
 11
239.477
 21
-237.473
  0
LINE
  8
0
 10
268.027
 20
-232.645
 11
267.783
 21
-232.609
  0
LINE
  8
0
 10
267.783
 20
-232.609
 11
267.547
 21
-232.536
  0
LINE
  8
0
 10
267.547
 20
-232.536
 11
267.325
 21
-232.429
  0
LINE
  8
0
 10
267.325
 20
-232.429
 11
267.121
 21
-232.29
  0
LINE
  8
0
 10
267.121
 20
-232.29
 11
266.94
 21
-232.122
  0
LINE
  8
0
 10
266.94
 20
-232.122
 11
266.787
 21
-231.929
  0
LINE
  8
0
 10
266.787
 20
-231.929
 11
266.663
 21
-231.716
  0
LINE
  8
0
 10
266.663
 20
-231.716
 11
266.573
 21
-231.486
  0
LINE
  8
0
 10
266.573
 20
-231.486
 11
266.518
 21
-231.246
  0
LINE
  8
0
 10
266.518
 20
-231.246
 11
266.5
 21
-231
  0
LINE
  8
0
 10
266.5
 20
-231
 11
266.518
 21
-230.754
  0
LINE
  8
0
 10
266.518
 20
-230.754
 11
266.573
 21
-230.514
  0
LINE
  8
0
 10
266.573
 20
-230.514
 11
266.663
 21
-230.284
  0
LINE
  8
0
 10
266.663
 20
-230.284
 11
266.787
 21
-230.071
  0
LINE
  8
0
 10
266.787
 20
-230.071
 11
266.94
 21
-229.878
  0
LINE
  8
0
 10
266.94
 20
-229.878
 11
267.121
 21
-229.71
  0
LINE
  8
0
 10
267.121
 20
-229.71
 11
267.325
 21
-229.571
  0
LINE
  8
0
 10
267.325
 20
-229.571
 11
267.547
 21
-229.464
  0
LINE
  8
0
 10
267.547
 20
-229.464
 11
267.783
 21
-229.391
  0
LINE
  8
0
 10
267.783
 20
-229.391
 11
268.027
 21
-229.355
  0
LINE
  8
0
 10
268.027
 20
-229.355
 11
276.273
 21
-229.355
  0
LINE
  8
0
 10
276.273
 20
-229.355
 11
276.517
 21
-229.391
  0
LINE
  8
0
 10
276.517
 20
-229.391
 11
276.753
 21
-229.464
  0
LINE
  8
0
 10
276.753
 20
-229.464
 11
276.975
 21
-229.571
  0
LINE
  8
0
 10
276.975
 20
-229.571
 11
277.179
 21
-229.71
  0
LINE
  8
0
 10
277.179
 20
-229.71
 11
277.36
 21
-229.878
  0
LINE
  8
0
 10
277.36
 20
-229.878
 11
277.513
 21
-230.071
  0
LINE
  8
0
 10
277.513
 20
-230.071
 11
277.637
 21
-230.284
  0
LINE
  8
0
 10
277.637
 20
-230.284
 11
277.727
 21
-230.514
  0
LINE
  8
0
 10
277.727
 20
-230.514
 11
277.782
 21
-230.754
  0
LINE
  8
0
 10
277.782
 20
-230.754
 11
277.8
 21
-231
  0
LINE
  8
0
 10
277.8
 20
-231
 11
277.782
 21
-231.246
  0
LINE
  8
0
 10
277.782
 20
-231.246
 11
277.727
 21
-231.486
  0
LINE
  8
0
 10
277.727
 20
-231.486
 11
277.637
 21
-231.716
  0
LINE
  8
0
 10
277.637
 20
-231.716
 11
277.513
 21
-231.929
  0
LINE
  8
0
 10
277.513
 20
-231.929
 11
277.36
 21
-232.122
  0
LINE
  8
0
 10
277.36
 20
-232.122
 11
277.179
 21
-232.29
  0
LINE
  8
0
 10
277.179
 20
-232.29
 11
276.975
 21
-232.429
  0
LINE
  8
0
 10
276.975
 20
-232.429
 11
276.753
 21
-232.536
  0
LINE
  8
0
 10
276.753
 20
-232.536
 11
276.517
 21
-232.609
  0
LINE
  8
0
 10
276.517
 20
-232.609
 11
276.273
 21
-232.645
  0
LINE
  8
0
 10
276.273
 20
-232.645
 11
268.027
 21
-232.645
  0
LINE
  8
0
 10
299.027
 20
-232.645
 11
298.783
 21
-232.609
  0
LINE
  8
0
 10
298.783
 20
-232.609
 11
298.547
 21
-232.536
  0
LINE
  8
0
 10
298.547
 20
-232.536
 11
298.325
 21
-232.429
  0
LINE
  8
0
 10
298.325
 20
-232.429
 11
298.121
 21
-232.29
  0
LINE
  8
0
 10
298.121
 20
-232.29
 11
297.94
 21
-232.122
  0
LINE
  8
0
 10
297.94
 20
-232.122
 11
297.787
 21
-231.929
  0
LINE
  8
0
 10
297.787
 20
-231.929
 11
297.663
 21
-231.716
  0
LINE
  8
0
 10
297.663
 20
-231.716
 11
297.573
 21
-231.486
  0
LINE
  8
0
 10
297.573
 20
-231.486
 11
297.518
 21
-231.246
  0
LINE
  8
0
 10
297.518
 20
-231.246
 11
297.5
 21
-231
  0
LINE
  8
0
 10
297.5
 20
-231
 11
297.518
 21
-230.754
  0
LINE
  8
0
 10
297.518
 20
-230.754
 11
297.573
 21
-230.514
  0
LINE
  8
0
 10
297.573
 20
-230.514
 11
297.663
 21
-230.284
  0
LINE
  8
0
 10
297.663
 20
-230.284
 11
297.787
 21
-230.071
  0
LINE
  8
0
 10
297.787
 20
-230.071
 11
297.94
 21
-229.878
  0
LINE
  8
0
 10
297.94
 20
-229.878
 11
298.121
 21
-229.71
  0
LINE
  8
0
 10
298.121
 20
-229.71
 11
298.325
 21
-229.571
  0
LINE
  8
0
 10
298.325
 20
-229.571
 11
298.547
 21
-229.464
  0
LINE
  8
0
 10
298.547
 20
-229.464
 11
298.783
 21
-229.391
  0
LINE
  8
0
 10
298.783
 20
-229.391
 11
299.027
 21
-229.355
  0
LINE
  8
0
 10
299.027
 20
-229.355
 11
307.273
 21
-229.355
  0
LINE
  8
0
 10
307.273
 20
-229.355
 11
307.517
 21
-229.391
  0
LINE
  8
0
 10
307.517
 20
-229.391
 11
307.753
 21
-229.464
  0
LINE
  8
0
 10
307.753
 20
-229.464
 11
307.975
 21
-229.571
  0
LINE
  8
0
 10
307.975
 20
-229.571
 11
308.179
 21
-229.71
  0
LINE
  8
0
 10
308.179
 20
-229.71
 11
308.36
 21
-229.878
  0
LINE
  8
0
 10
308.36
 20
-229.878
 11
308.513
 21
-230.071
  0
LINE
  8
0
 10
308.513
 20
-230.071
 11
308.637
 21
-230.284
  0
LINE
  8
0
 10
308.637
 20
-230.284
 11
308.727
 21
-230.514
  0
LINE
  8
0
 10
308.727
 20
-230.514
 11
308.782
 21
-230.754
  0
LINE
  8
0
 10
308.782
 20
-230.754
 11
308.8
 21
-231
  0
LINE
  8
0
 10
308.8
 20
-231
 11
308.782
 21
-231.246
  0
LINE
  8
0
 10
308.782
 20
-231.246
 11
308.727
 21
-231.486
  0
LINE
  8
0
 10
308.727
 20
-231.486
 11
308.637
 21
-231.716
  0
LINE
  8
0
 10
308.637
 20
-231.716
 11
308.513
 21
-231.929
  0
LINE
  8
0
 10
308.513
 20
-231.929
 11
308.36
 21
-232.122
  0
LINE
  8
0
 10
308.36
 20
-232.122
 11
308.179
 21
-232.29
  0
LINE
  8
0
 10
308.179
 20
-232.29
 11
307.975
 21
-232.429
  0
LINE
  8
0
 10
307.975
 20
-232.429
 11
307.753
 21
-232.536
  0
LINE
  8
0
 10
307.753
 20
-232.536
 11
307.517
 21
-232.609
  0
LINE
  8
0
 10
307.517
 20
-232.609
 11
307.273
 21
-232.645
  0
LINE
  8
0
 10
307.273
 20
-232.645
 11
299.027
 21
-232.645
  0
LINE
  8
0
 10
76.6667
 20
-234.25
 11
76.4176
 21
-234.232
  0
LINE
  8
0
 10
76.4176
 20
-234.232
 11
76.1736
 21
-234.179
  0
LINE
  8
0
 10
76.1736
 20
-234.179
 11
75.9397
 21
-234.092
  0
LINE
  8
0
 10
75.9397
 20
-234.092
 11
75.7205
 21
-233.972
  0
LINE
  8
0
 10
75.7205
 20
-233.972
 11
75.5207
 21
-233.823
  0
LINE
  8
0
 10
75.5207
 20
-233.823
 11
75.3441
 21
-233.646
  0
LINE
  8
0
 10
75.3441
 20
-233.646
 11
75.1945
 21
-233.446
  0
LINE
  8
0
 10
75.1945
 20
-233.446
 11
75.0748
 21
-233.227
  0
LINE
  8
0
 10
75.0748
 20
-233.227
 11
74.9875
 21
-232.993
  0
LINE
  8
0
 10
74.9875
 20
-232.993
 11
74.9345
 21
-232.749
  0
LINE
  8
0
 10
74.9345
 20
-232.749
 11
74.9167
 21
-232.5
  0
LINE
  8
0
 10
74.9167
 20
-232.5
 11
74.9345
 21
-232.251
  0
LINE
  8
0
 10
74.9345
 20
-232.251
 11
74.9875
 21
-232.007
  0
LINE
  8
0
 10
74.9875
 20
-232.007
 11
75.0748
 21
-231.773
  0
LINE
  8
0
 10
75.0748
 20
-231.773
 11
75.1945
 21
-231.554
  0
LINE
  8
0
 10
75.1945
 20
-231.554
 11
75.3441
 21
-231.354
  0
LINE
  8
0
 10
75.3441
 20
-231.354
 11
75.5207
 21
-231.177
  0
LINE
  8
0
 10
75.5207
 20
-231.177
 11
75.7205
 21
-231.028
  0
LINE
  8
0
 10
75.7205
 20
-231.028
 11
75.9397
 21
-230.908
  0
LINE
  8
0
 10
75.9397
 20
-230.908
 11
76.1736
 21
-230.821
  0
LINE
  8
0
 10
76.1736
 20
-230.821
 11
76.4176
 21
-230.768
  0
LINE
  8
0
 10
76.4176
 20
-230.768
 11
76.6667
 21
-230.75
  0
LINE
  8
0
 10
76.6667
 20
-230.75
 11
195
 21
-230.75
  0
LINE
  8
0
 10
195
 20
-230.75
 11
195.249
 21
-230.768
  0
LINE
  8
0
 10
195.249
 20
-230.768
 11
195.493
 21
-230.821
  0
LINE
  8
0
 10
195.493
 20
-230.821
 11
195.727
 21
-230.908
  0
LINE
  8
0
 10
195.727
 20
-230.908
 11
195.946
 21
-231.028
  0
LINE
  8
0
 10
195.946
 20
-231.028
 11
196.146
 21
-231.177
  0
LINE
  8
0
 10
196.146
 20
-231.177
 11
196.323
 21
-231.354
  0
LINE
  8
0
 10
196.323
 20
-231.354
 11
196.472
 21
-231.554
  0
LINE
  8
0
 10
196.472
 20
-231.554
 11
196.592
 21
-231.773
  0
LINE
  8
0
 10
196.592
 20
-231.773
 11
196.679
 21
-232.007
  0
LINE
  8
0
 10
196.679
 20
-232.007
 11
196.732
 21
-232.251
  0
LINE
  8
0
 10
196.732
 20
-232.251
 11
196.75
 21
-232.5
  0
LINE
  8
0
 10
196.75
 20
-232.5
 11
196.732
 21
-232.749
  0
LINE
  8
0
 10
196.732
 20
-232.749
 11
196.679
 21
-232.993
  0
LINE
  8
0
 10
196.679
 20
-232.993
 11
196.592
 21
-233.227
  0
LINE
  8
0
 10
196.592
 20
-233.227
 11
196.472
 21
-233.446
  0
LINE
  8
0
 10
196.472
 20
-233.446
 11
196.323
 21
-233.646
  0
LINE
  8
0
 10
196.323
 20
-233.646
 11
196.146
 21
-233.823
  0
LINE
  8
0
 10
196.146
 20
-233.823
 11
195.946
 21
-233.972
  0
LINE
  8
0
 10
195.946
 20
-233.972
 11
195.727
 21
-234.092
  0
LINE
  8
0
 10
195.727
 20
-234.092
 11
195.493
 21
-234.179
  0
LINE
  8
0
 10
195.493
 20
-234.179
 11
195.249
 21
-234.232
  0
LINE
  8
0
 10
195.249
 20
-234.232
 11
195
 21
-234.25
  0
LINE
  8
0
 10
195
 20
-234.25
 11
76.6667
 21
-234.25
  0
LINE
  8
0
 10
-56.6667
 20
-234.25
 11
-56.9157
 21
-234.232
  0
LINE
  8
0
 10
-56.9157
 20
-234.232
 11
-57.1597
 21
-234.179
  0
LINE
  8
0
 10
-57.1597
 20
-234.179
 11
-57.3936
 21
-234.092
  0
LINE
  8
0
 10
-57.3936
 20
-234.092
 11
-57.6128
 21
-233.972
  0
LINE
  8
0
 10
-57.6128
 20
-233.972
 11
-57.8127
 21
-233.823
  0
LINE
  8
0
 10
-57.8127
 20
-233.823
 11
-57.9892
 21
-233.646
  0
LINE
  8
0
 10
-57.9892
 20
-233.646
 11
-58.1389
 21
-233.446
  0
LINE
  8
0
 10
-58.1389
 20
-233.446
 11
-58.2585
 21
-233.227
  0
LINE
  8
0
 10
-58.2585
 20
-233.227
 11
-58.3458
 21
-232.993
  0
LINE
  8
0
 10
-58.3458
 20
-232.993
 11
-58.3988
 21
-232.749
  0
LINE
  8
0
 10
-58.3988
 20
-232.749
 11
-58.4167
 21
-232.5
  0
LINE
  8
0
 10
-58.4167
 20
-232.5
 11
-58.3988
 21
-232.251
  0
LINE
  8
0
 10
-58.3988
 20
-232.251
 11
-58.3458
 21
-232.007
  0
LINE
  8
0
 10
-58.3458
 20
-232.007
 11
-58.2585
 21
-231.773
  0
LINE
  8
0
 10
-58.2585
 20
-231.773
 11
-58.1389
 21
-231.554
  0
LINE
  8
0
 10
-58.1389
 20
-231.554
 11
-57.9892
 21
-231.354
  0
LINE
  8
0
 10
-57.9892
 20
-231.354
 11
-57.8127
 21
-231.177
  0
LINE
  8
0
 10
-57.8127
 20
-231.177
 11
-57.6128
 21
-231.028
  0
LINE
  8
0
 10
-57.6128
 20
-231.028
 11
-57.3936
 21
-230.908
  0
LINE
  8
0
 10
-57.3936
 20
-230.908
 11
-57.1597
 21
-230.821
  0
LINE
  8
0
 10
-57.1597
 20
-230.821
 11
-56.9157
 21
-230.768
  0
LINE
  8
0
 10
-56.9157
 20
-230.768
 11
-56.6667
 21
-230.75
  0
LINE
  8
0
 10
-56.6667
 20
-230.75
 11
61.6667
 21
-230.75
  0
LINE
  8
0
 10
61.6667
 20
-230.75
 11
61.9157
 21
-230.768
  0
LINE
  8
0
 10
61.9157
 20
-230.768
 11
62.1597
 21
-230.821
  0
LINE
  8
0
 10
62.1597
 20
-230.821
 11
62.3936
 21
-230.908
  0
LINE
  8
0
 10
62.3936
 20
-230.908
 11
62.6128
 21
-231.028
  0
LINE
  8
0
 10
62.6128
 20
-231.028
 11
62.8127
 21
-231.177
  0
LINE
  8
0
 10
62.8127
 20
-231.177
 11
62.9892
 21
-231.354
  0
LINE
  8
0
 10
62.9892
 20
-231.354
 11
63.1389
 21
-231.554
  0
LINE
  8
0
 10
63.1389
 20
-231.554
 11
63.2585
 21
-231.773
  0
LINE
  8
0
 10
63.2585
 20
-231.773
 11
63.3458
 21
-232.007
  0
LINE
  8
0
 10
63.3458
 20
-232.007
 11
63.3988
 21
-232.251
  0
LINE
  8
0
 10
63.3988
 20
-232.251
 11
63.4167
 21
-232.5
  0
LINE
  8
0
 10
63.4167
 20
-232.5
 11
63.3988
 21
-232.749
  0
LINE
  8
0
 10
63.3988
 20
-232.749
 11
63.3458
 21
-232.993
  0
LINE
  8
0
 10
63.3458
 20
-232.993
 11
63.2585
 21
-233.227
  0
LINE
  8
0
 10
63.2585
 20
-233.227
 11
63.1389
 21
-233.446
  0
LINE
  8
0
 10
63.1389
 20
-233.446
 11
62.9892
 21
-233.646
  0
LINE
  8
0
 10
62.9892
 20
-233.646
 11
62.8127
 21
-233.823
  0
LINE
  8
0
 10
62.8127
 20
-233.823
 11
62.6128
 21
-233.972
  0
LINE
  8
0
 10
62.6128
 20
-233.972
 11
62.3936
 21
-234.092
  0
LINE
  8
0
 10
62.3936
 20
-234.092
 11
62.1597
 21
-234.179
  0
LINE
  8
0
 10
62.1597
 20
-234.179
 11
61.9157
 21
-234.232
  0
LINE
  8
0
 10
61.9157
 20
-234.232
 11
61.6667
 21
-234.25
  0
LINE
  8
0
 10
61.6667
 20
-234.25
 11
-56.6667
 21
-234.25
  0
LINE
  8
0
 10
-190
 20
-234.25
 11
-190.249
 21
-234.232
  0
LINE
  8
0
 10
-190.249
 20
-234.232
 11
-190.493
 21
-234.179
  0
LINE
  8
0
 10
-190.493
 20
-234.179
 11
-190.727
 21
-234.092
  0
LINE
  8
0
 10
-190.727
 20
-234.092
 11
-190.946
 21
-233.972
  0
LINE
  8
0
 10
-190.946
 20
-233.972
 11
-191.146
 21
-233.823
  0
LINE
  8
0
 10
-191.146
 20
-233.823
 11
-191.323
 21
-233.646
  0
LINE
  8
0
 10
-191.323
 20
-233.646
 11
-191.472
 21
-233.446
  0
LINE
  8
0
 10
-191.472
 20
-233.446
 11
-191.592
 21
-233.227
  0
LINE
  8
0
 10
-191.592
 20
-233.227
 11
-191.679
 21
-232.993
  0
LINE
  8
0
 10
-191.679
 20
-232.993
 11
-191.732
 21
-232.749
  0
LINE
  8
0
 10
-191.732
 20
-232.749
 11
-191.75
 21
-232.5
  0
LINE
  8
0
 10
-191.75
 20
-232.5
 11
-191.732
 21
-232.251
  0
LINE
  8
0
 10
-191.732
 20
-232.251
 11
-191.679
 21
-232.007
  0
LINE
  8
0
 10
-191.679
 20
-232.007
 11
-191.592
 21
-231.773
  0
LINE
  8
0
 10
-191.592
 20
-231.773
 11
-191.472
 21
-231.554
  0
LINE
  8
0
 10
-191.472
 20
-231.554
 11
-191.323
 21
-231.354
  0
LINE
  8
0
 10
-191.323
 20
-231.354
 11
-191.146
 21
-231.177
  0
LINE
  8
0
 10
-191.146
 20
-231.177
 11
-190.946
 21
-231.028
  0
LINE
  8
0
 10
-190.946
 20
-231.028
 11
-190.727
 21
-230.908
  0
LINE
  8
0
 10
-190.727
 20
-230.908
 11
-190.493
 21
-230.821
  0
LINE
  8
0
 10
-190.493
 20
-230.821
 11
-190.249
 21
-230.768
  0
LINE
  8
0
 10
-190.249
 20
-230.768
 11
-190
 21
-230.75
  0
LINE
  8
0
 10
-190
 20
-230.75
 11
-71.6667
 21
-230.75
  0
LINE
  8
0
 10
-71.6667
 20
-230.75
 11
-71.4176
 21
-230.768
  0
LINE
  8
0
 10
-71.4176
 20
-230.768
 11
-71.1736
 21
-230.821
  0
LINE
  8
0
 10
-71.1736
 20
-230.821
 11
-70.9397
 21
-230.908
  0
LINE
  8
0
 10
-70.9397
 20
-230.908
 11
-70.7205
 21
-231.028
  0
LINE
  8
0
 10
-70.7205
 20
-231.028
 11
-70.5207
 21
-231.177
  0
LINE
  8
0
 10
-70.5207
 20
-231.177
 11
-70.3441
 21
-231.354
  0
LINE
  8
0
 10
-70.3441
 20
-231.354
 11
-70.1945
 21
-231.554
  0
LINE
  8
0
 10
-70.1945
 20
-231.554
 11
-70.0748
 21
-231.773
  0
LINE
  8
0
 10
-70.0748
 20
-231.773
 11
-69.9875
 21
-232.007
  0
LINE
  8
0
 10
-69.9875
 20
-232.007
 11
-69.9345
 21
-232.251
  0
LINE
  8
0
 10
-69.9345
 20
-232.251
 11
-69.9167
 21
-232.5
  0
LINE
  8
0
 10
-69.9167
 20
-232.5
 11
-69.9345
 21
-232.749
  0
LINE
  8
0
 10
-69.9345
 20
-232.749
 11
-69.9875
 21
-232.993
  0
LINE
  8
0
 10
-69.9875
 20
-232.993
 11
-70.0748
 21
-233.227
  0
LINE
  8
0
 10
-70.0748
 20
-233.227
 11
-70.1945
 21
-233.446
  0
LINE
  8
0
 10
-70.1945
 20
-233.446
 11
-70.3441
 21
-233.646
  0
LINE
  8
0
 10
-70.3441
 20
-233.646
 11
-70.5207
 21
-233.823
  0
LINE
  8
0
 10
-70.5207
 20
-233.823
 11
-70.7205
 21
-233.972
  0
LINE
  8
0
 10
-70.7205
 20
-233.972
 11
-70.9397
 21
-234.092
  0
LINE
  8
0
 10
-70.9397
 20
-234.092
 11
-71.1736
 21
-234.179
  0
LINE
  8
0
 10
-71.1736
 20
-234.179
 11
-71.4176
 21
-234.232
  0
LINE
  8
0
 10
-71.4176
 20
-234.232
 11
-71.6667
 21
-234.25
  0
LINE
  8
0
 10
-71.6667
 20
-234.25
 11
-190
 21
-234.25
  0
LINE
  8
0
 10
-210.186
 20
-234.19
 11
-210.43
 21
-234.145
  0
LINE
  8
0
 10
-210.43
 20
-234.145
 11
-210.665
 21
-234.065
  0
LINE
  8
0
 10
-210.665
 20
-234.065
 11
-210.886
 21
-233.951
  0
LINE
  8
0
 10
-210.886
 20
-233.951
 11
-211.087
 21
-233.807
  0
LINE
  8
0
 10
-211.087
 20
-233.807
 11
-211.266
 21
-233.634
  0
LINE
  8
0
 10
-211.266
 20
-233.634
 11
-211.418
 21
-233.438
  0
LINE
  8
0
 10
-211.418
 20
-233.438
 11
-211.539
 21
-233.222
  0
LINE
  8
0
 10
-211.539
 20
-233.222
 11
-211.628
 21
-232.99
  0
LINE
  8
0
 10
-211.628
 20
-232.99
 11
-211.682
 21
-232.748
  0
LINE
  8
0
 10
-211.682
 20
-232.748
 11
-211.7
 21
-232.5
  0
LINE
  8
0
 10
-211.7
 20
-232.5
 11
-211.682
 21
-232.252
  0
LINE
  8
0
 10
-211.682
 20
-232.252
 11
-211.628
 21
-232.01
  0
LINE
  8
0
 10
-211.628
 20
-232.01
 11
-211.539
 21
-231.778
  0
LINE
  8
0
 10
-211.539
 20
-231.778
 11
-211.418
 21
-231.562
  0
LINE
  8
0
 10
-211.418
 20
-231.562
 11
-211.266
 21
-231.366
  0
LINE
  8
0
 10
-211.266
 20
-231.366
 11
-211.087
 21
-231.193
  0
LINE
  8
0
 10
-211.087
 20
-231.193
 11
-210.886
 21
-231.049
  0
LINE
  8
0
 10
-210.886
 20
-231.049
 11
-210.665
 21
-230.935
  0
LINE
  8
0
 10
-210.665
 20
-230.935
 11
-210.43
 21
-230.855
  0
LINE
  8
0
 10
-210.43
 20
-230.855
 11
-210.186
 21
-230.81
  0
LINE
  8
0
 10
-210.186
 20
-230.81
 11
-209.938
 21
-230.801
  0
LINE
  8
0
 10
-209.938
 20
-230.801
 11
-209.691
 21
-230.828
  0
LINE
  8
0
 10
-209.691
 20
-230.828
 11
-209.451
 21
-230.891
  0
LINE
  8
0
 10
-209.451
 20
-230.891
 11
-209.223
 21
-230.988
  0
LINE
  8
0
 10
-209.223
 20
-230.988
 11
-209.011
 21
-231.117
  0
LINE
  8
0
 10
-209.011
 20
-231.117
 11
-208.82
 21
-231.276
  0
LINE
  8
0
 10
-208.82
 20
-231.276
 11
-208.654
 21
-231.461
  0
LINE
  8
0
 10
-208.654
 20
-231.461
 11
-208.518
 21
-231.668
  0
LINE
  8
0
 10
-208.518
 20
-231.668
 11
-208.412
 21
-231.893
  0
LINE
  8
0
 10
-208.412
 20
-231.893
 11
-208.341
 21
-232.13
  0
LINE
  8
0
 10
-208.341
 20
-232.13
 11
-208.305
 21
-232.376
  0
LINE
  8
0
 10
-208.305
 20
-232.376
 11
-208.305
 21
-232.624
  0
LINE
  8
0
 10
-208.305
 20
-232.624
 11
-208.341
 21
-232.87
  0
LINE
  8
0
 10
-208.341
 20
-232.87
 11
-208.412
 21
-233.107
  0
LINE
  8
0
 10
-208.412
 20
-233.107
 11
-208.518
 21
-233.332
  0
LINE
  8
0
 10
-208.518
 20
-233.332
 11
-208.654
 21
-233.539
  0
LINE
  8
0
 10
-208.654
 20
-233.539
 11
-208.82
 21
-233.724
  0
LINE
  8
0
 10
-208.82
 20
-233.724
 11
-209.011
 21
-233.883
  0
LINE
  8
0
 10
-209.011
 20
-233.883
 11
-209.223
 21
-234.012
  0
LINE
  8
0
 10
-209.223
 20
-234.012
 11
-209.451
 21
-234.109
  0
LINE
  8
0
 10
-209.451
 20
-234.109
 11
-209.691
 21
-234.172
  0
LINE
  8
0
 10
-209.691
 20
-234.172
 11
-209.938
 21
-234.199
  0
LINE
  8
0
 10
-209.938
 20
-234.199
 11
-210.186
 21
-234.19
  0
LINE
  8
0
 10
209.691
 20
-234.172
 11
209.451
 21
-234.109
  0
LINE
  8
0
 10
209.451
 20
-234.109
 11
209.223
 21
-234.012
  0
LINE
  8
0
 10
209.223
 20
-234.012
 11
209.011
 21
-233.883
  0
LINE
  8
0
 10
209.011
 20
-233.883
 11
208.82
 21
-233.724
  0
LINE
  8
0
 10
208.82
 20
-233.724
 11
208.654
 21
-233.539
  0
LINE
  8
0
 10
208.654
 20
-233.539
 11
208.518
 21
-233.332
  0
LINE
  8
0
 10
208.518
 20
-233.332
 11
208.412
 21
-233.107
  0
LINE
  8
0
 10
208.412
 20
-233.107
 11
208.341
 21
-232.87
  0
LINE
  8
0
 10
208.341
 20
-232.87
 11
208.305
 21
-232.624
  0
LINE
  8
0
 10
208.305
 20
-232.624
 11
208.305
 21
-232.376
  0
LINE
  8
0
 10
208.305
 20
-232.376
 11
208.341
 21
-232.13
  0
LINE
  8
0
 10
208.341
 20
-232.13
 11
208.412
 21
-231.893
  0
LINE
  8
0
 10
208.412
 20
-231.893
 11
208.518
 21
-231.668
  0
LINE
  8
0
 10
208.518
 20
-231.668
 11
208.654
 21
-231.461
  0
LINE
  8
0
 10
208.654
 20
-231.461
 11
208.82
 21
-231.276
  0
LINE
  8
0
 10
208.82
 20
-231.276
 11
209.011
 21
-231.117
  0
LINE
  8
0
 10
209.011
 20
-231.117
 11
209.223
 21
-230.988
  0
LINE
  8
0
 10
209.223
 20
-230.988
 11
209.451
 21
-230.891
  0
LINE
  8
0
 10
209.451
 20
-230.891
 11
209.691
 21
-230.828
  0
LINE
  8
0
 10
209.691
 20
-230.828
 11
209.938
 21
-230.801
  0
LINE
  8
0
 10
209.938
 20
-230.801
 11
210.186
 21
-230.81
  0
LINE
  8
0
 10
210.186
 20
-230.81
 11
210.43
 21
-230.855
  0
LINE
  8
0
 10
210.43
 20
-230.855
 11
210.665
 21
-230.935
  0
LINE
  8
0
 10
210.665
 20
-230.935
 11
210.886
 21
-231.049
  0
LINE
  8
0
 10
210.886
 20
-231.049
 11
211.087
 21
-231.193
  0
LINE
  8
0
 10
211.087
 20
-231.193
 11
211.266
 21
-231.366
  0
LINE
  8
0
 10
211.266
 20
-231.366
 11
211.418
 21
-231.562
  0
LINE
  8
0
 10
211.418
 20
-231.562
 11
211.539
 21
-231.778
  0
LINE
  8
0
 10
211.539
 20
-231.778
 11
211.628
 21
-232.01
  0
LINE
  8
0
 10
211.628
 20
-232.01
 11
211.682
 21
-232.252
  0
LINE
  8
0
 10
211.682
 20
-232.252
 11
211.7
 21
-232.5
  0
LINE
  8
0
 10
211.7
 20
-232.5
 11
211.682
 21
-232.748
  0
LINE
  8
0
 10
211.682
 20
-232.748
 11
211.628
 21
-232.99
  0
LINE
  8
0
 10
211.628
 20
-232.99
 11
211.539
 21
-233.222
  0
LINE
  8
0
 10
211.539
 20
-233.222
 11
211.418
 21
-233.438
  0
LINE
  8
0
 10
211.418
 20
-233.438
 11
211.266
 21
-233.634
  0
LINE
  8
0
 10
211.266
 20
-233.634
 11
211.087
 21
-233.807
  0
LINE
  8
0
 10
211.087
 20
-233.807
 11
210.886
 21
-233.951
  0
LINE
  8
0
 10
210.886
 20
-233.951
 11
210.665
 21
-234.065
  0
LINE
  8
0
 10
210.665
 20
-234.065
 11
210.43
 21
-234.145
  0
LINE
  8
0
 10
210.43
 20
-234.145
 11
210.186
 21
-234.19
  0
LINE
  8
0
 10
210.186
 20
-234.19
 11
209.938
 21
-234.199
  0
LINE
  8
0
 10
209.938
 20
-234.199
 11
209.691
 21
-234.172
  0
LINE
  8
0
 10
-315.186
 20
-241.69
 11
-315.43
 21
-241.645
  0
LINE
  8
0
 10
-315.43
 20
-241.645
 11
-315.665
 21
-241.565
  0
LINE
  8
0
 10
-315.665
 20
-241.565
 11
-315.886
 21
-241.451
  0
LINE
  8
0
 10
-315.886
 20
-241.451
 11
-316.087
 21
-241.307
  0
LINE
  8
0
 10
-316.087
 20
-241.307
 11
-316.266
 21
-241.134
  0
LINE
  8
0
 10
-316.266
 20
-241.134
 11
-316.418
 21
-240.938
  0
LINE
  8
0
 10
-316.418
 20
-240.938
 11
-316.539
 21
-240.722
  0
LINE
  8
0
 10
-316.539
 20
-240.722
 11
-316.628
 21
-240.49
  0
LINE
  8
0
 10
-316.628
 20
-240.49
 11
-316.682
 21
-240.248
  0
LINE
  8
0
 10
-316.682
 20
-240.248
 11
-316.7
 21
-240
  0
LINE
  8
0
 10
-316.7
 20
-240
 11
-316.682
 21
-239.752
  0
LINE
  8
0
 10
-316.682
 20
-239.752
 11
-316.628
 21
-239.51
  0
LINE
  8
0
 10
-316.628
 20
-239.51
 11
-316.539
 21
-239.278
  0
LINE
  8
0
 10
-316.539
 20
-239.278
 11
-316.418
 21
-239.062
  0
LINE
  8
0
 10
-316.418
 20
-239.062
 11
-316.266
 21
-238.866
  0
LINE
  8
0
 10
-316.266
 20
-238.866
 11
-316.087
 21
-238.693
  0
LINE
  8
0
 10
-316.087
 20
-238.693
 11
-315.886
 21
-238.549
  0
LINE
  8
0
 10
-315.886
 20
-238.549
 11
-315.665
 21
-238.435
  0
LINE
  8
0
 10
-315.665
 20
-238.435
 11
-315.43
 21
-238.355
  0
LINE
  8
0
 10
-315.43
 20
-238.355
 11
-315.186
 21
-238.31
  0
LINE
  8
0
 10
-315.186
 20
-238.31
 11
-314.938
 21
-238.301
  0
LINE
  8
0
 10
-314.938
 20
-238.301
 11
-314.691
 21
-238.328
  0
LINE
  8
0
 10
-314.691
 20
-238.328
 11
-314.451
 21
-238.391
  0
LINE
  8
0
 10
-314.451
 20
-238.391
 11
-314.223
 21
-238.488
  0
LINE
  8
0
 10
-314.223
 20
-238.488
 11
-314.011
 21
-238.617
  0
LINE
  8
0
 10
-314.011
 20
-238.617
 11
-313.82
 21
-238.776
  0
LINE
  8
0
 10
-313.82
 20
-238.776
 11
-313.654
 21
-238.961
  0
LINE
  8
0
 10
-313.654
 20
-238.961
 11
-313.518
 21
-239.168
  0
LINE
  8
0
 10
-313.518
 20
-239.168
 11
-313.412
 21
-239.393
  0
LINE
  8
0
 10
-313.412
 20
-239.393
 11
-313.341
 21
-239.63
  0
LINE
  8
0
 10
-313.341
 20
-239.63
 11
-313.305
 21
-239.876
  0
LINE
  8
0
 10
-313.305
 20
-239.876
 11
-313.305
 21
-240.124
  0
LINE
  8
0
 10
-313.305
 20
-240.124
 11
-313.341
 21
-240.37
  0
LINE
  8
0
 10
-313.341
 20
-240.37
 11
-313.412
 21
-240.607
  0
LINE
  8
0
 10
-313.412
 20
-240.607
 11
-313.518
 21
-240.832
  0
LINE
  8
0
 10
-313.518
 20
-240.832
 11
-313.654
 21
-241.039
  0
LINE
  8
0
 10
-313.654
 20
-241.039
 11
-313.82
 21
-241.224
  0
LINE
  8
0
 10
-313.82
 20
-241.224
 11
-314.011
 21
-241.383
  0
LINE
  8
0
 10
-314.011
 20
-241.383
 11
-314.223
 21
-241.512
  0
LINE
  8
0
 10
-314.223
 20
-241.512
 11
-314.451
 21
-241.609
  0
LINE
  8
0
 10
-314.451
 20
-241.609
 11
-314.691
 21
-241.672
  0
LINE
  8
0
 10
-314.691
 20
-241.672
 11
-314.938
 21
-241.699
  0
LINE
  8
0
 10
-314.938
 20
-241.699
 11
-315.186
 21
-241.69
  0
LINE
  8
0
 10
314.691
 20
-241.672
 11
314.451
 21
-241.609
  0
LINE
  8
0
 10
314.451
 20
-241.609
 11
314.223
 21
-241.512
  0
LINE
  8
0
 10
314.223
 20
-241.512
 11
314.011
 21
-241.383
  0
LINE
  8
0
 10
314.011
 20
-241.383
 11
313.82
 21
-241.224
  0
LINE
  8
0
 10
313.82
 20
-241.224
 11
313.654
 21
-241.039
  0
LINE
  8
0
 10
313.654
 20
-241.039
 11
313.518
 21
-240.832
  0
LINE
  8
0
 10
313.518
 20
-240.832
 11
313.412
 21
-240.607
  0
LINE
  8
0
 10
313.412
 20
-240.607
 11
313.341
 21
-240.37
  0
LINE
  8
0
 10
313.341
 20
-240.37
 11
313.305
 21
-240.124
  0
LINE
  8
0
 10
313.305
 20
-240.124
 11
313.305
 21
-239.876
  0
LINE
  8
0
 10
313.305
 20
-239.876
 11
313.341
 21
-239.63
  0
LINE
  8
0
 10
313.341
 20
-239.63
 11
313.412
 21
-239.393
  0
LINE
  8
0
 10
313.412
 20
-239.393
 11
313.518
 21
-239.168
  0
LINE
  8
0
 10
313.518
 20
-239.168
 11
313.654
 21
-238.961
  0
LINE
  8
0
 10
313.654
 20
-238.961
 11
313.82
 21
-238.776
  0
LINE
  8
0
 10
313.82
 20
-238.776
 11
314.011
 21
-238.617
  0
LINE
  8
0
 10
314.011
 20
-238.617
 11
314.223
 21
-238.488
  0
LINE
  8
0
 10
314.223
 20
-238.488
 11
314.451
 21
-238.391
  0
LINE
  8
0
 10
314.451
 20
-238.391
 11
314.691
 21
-238.328
  0
LINE
  8
0
 10
314.691
 20
-238.328
 11
314.938
 21
-238.301
  0
LINE
  8
0
 10
314.938
 20
-238.301
 11
315.186
 21
-238.31
  0
LINE
  8
0
 10
315.186
 20
-238.31
 11
315.43
 21
-238.355
  0
LINE
  8
0
 10
315.43
 20
-238.355
 11
315.665
 21
-238.435
  0
LINE
  8
0
 10
315.665
 20
-238.435
 11
315.886
 21
-238.549
  0
LINE
  8
0
 10
315.886
 20
-238.549
 11
316.087
 21
-238.693
  0
LINE
  8
0
 10
316.087
 20
-238.693
 11
316.266
 21
-238.866
  0
LINE
  8
0
 10
316.266
 20
-238.866
 11
316.418
 21
-239.062
  0
LINE
  8
0
 10
316.418
 20
-239.062
 11
316.539
 21
-239.278
  0
LINE
  8
0
 10
316.539
 20
-239.278
 11
316.628
 21
-239.51
  0
LINE
  8
0
 10
316.628
 20
-239.51
 11
316.682
 21
-239.752
  0
LINE
  8
0
 10
316.682
 20
-239.752
 11
316.7
 21
-240
  0
LINE
  8
0
 10
316.7
 20
-240
 11
316.682
 21
-240.248
  0
LINE
  8
0
 10
316.682
 20
-240.248
 11
316.628
 21
-240.49
  0
LINE
  8
0
 10
316.628
 20
-240.49
 11
316.539
 21
-240.722
  0
LINE
  8
0
 10
316.539
 20
-240.722
 11
316.418
 21
-240.938
  0
LINE
  8
0
 10
316.418
 20
-240.938
 11
316.266
 21
-241.134
  0
LINE
  8
0
 10
316.266
 20
-241.134
 11
316.087
 21
-241.307
  0
LINE
  8
0
 10
316.087
 20
-241.307
 11
315.886
 21
-241.451
  0
LINE
  8
0
 10
315.886
 20
-241.451
 11
315.665
 21
-241.565
  0
LINE
  8
0
 10
315.665
 20
-241.565
 11
315.43
 21
-241.645
  0
LINE
  8
0
 10
315.43
 20
-241.645
 11
315.186
 21
-241.69
  0
LINE
  8
0
 10
315.186
 20
-241.69
 11
314.938
 21
-241.699
  0
LINE
  8
0
 10
314.938
 20
-241.699
 11
314.691
 21
-241.672
  0
ENDSEC
  0
SECTION
  2
OBJECTS
  0
DICTIONARY
  0
ENDSEC
  0
EOF
