  0
SECTION
  2
BLOCKS
  0
ENDSEC
  0
SECTION
  2
ENTITIES
  0
LINE
  8
0
 10
320.398
 20
-124.798
 11
320.915
 21
-124.716
  0
LINE
  8
0
 10
320.915
 20
-124.716
 11
321.42
 21
-124.58
  0
LINE
  8
0
 10
321.42
 20
-124.58
 11
321.909
 21
-124.393
  0
LINE
  8
0
 10
321.909
 20
-124.393
 11
322.375
 21
-124.155
  0
LINE
  8
0
 10
322.375
 20
-124.155
 11
322.814
 21
-123.87
  0
LINE
  8
0
 10
322.814
 20
-123.87
 11
323.221
 21
-123.541
  0
LINE
  8
0
 10
323.221
 20
-123.541
 11
323.591
 21
-123.171
  0
LINE
  8
0
 10
323.591
 20
-123.171
 11
323.92
 21
-122.764
  0
LINE
  8
0
 10
323.92
 20
-122.764
 11
324.205
 21
-122.325
  0
LINE
  8
0
 10
324.205
 20
-122.325
 11
324.443
 21
-121.859
  0
LINE
  8
0
 10
324.443
 20
-121.859
 11
324.63
 21
-121.37
  0
LINE
  8
0
 10
324.63
 20
-121.37
 11
324.766
 21
-120.865
  0
LINE
  8
0
 10
324.766
 20
-120.865
 11
324.848
 21
-120.348
  0
LINE
  8
0
 10
324.848
 20
-120.348
 11
324.875
 21
-119.825
  0
LINE
  8
0
 10
324.875
 20
-119.825
 11
324.875
 21
119.825
  0
LINE
  8
0
 10
324.875
 20
119.825
 11
324.848
 21
120.348
  0
LINE
  8
0
 10
324.848
 20
120.348
 11
324.766
 21
120.865
  0
LINE
  8
0
 10
324.766
 20
120.865
 11
324.63
 21
121.37
  0
LINE
  8
0
 10
324.63
 20
121.37
 11
324.443
 21
121.859
  0
LINE
  8
0
 10
324.443
 20
121.859
 11
324.205
 21
122.325
  0
LINE
  8
0
 10
324.205
 20
122.325
 11
323.92
 21
122.764
  0
LINE
  8
0
 10
323.92
 20
122.764
 11
323.591
 21
123.171
  0
LINE
  8
0
 10
323.591
 20
123.171
 11
323.221
 21
123.541
  0
LINE
  8
0
 10
323.221
 20
123.541
 11
322.814
 21
123.87
  0
LINE
  8
0
 10
322.814
 20
123.87
 11
322.375
 21
124.155
  0
LINE
  8
0
 10
322.375
 20
124.155
 11
321.909
 21
124.393
  0
LINE
  8
0
 10
321.909
 20
124.393
 11
321.42
 21
124.58
  0
LINE
  8
0
 10
321.42
 20
124.58
 11
320.915
 21
124.716
  0
LINE
  8
0
 10
320.915
 20
124.716
 11
320.398
 21
124.798
  0
LINE
  8
0
 10
320.398
 20
124.798
 11
319.875
 21
124.825
  0
LINE
  8
0
 10
319.875
 20
124.825
 11
-319.875
 21
124.825
  0
LINE
  8
0
 10
-319.875
 20
124.825
 11
-320.398
 21
124.798
  0
LINE
  8
0
 10
-320.398
 20
124.798
 11
-320.915
 21
124.716
  0
LINE
  8
0
 10
-320.915
 20
124.716
 11
-321.42
 21
124.58
  0
LINE
  8
0
 10
-321.42
 20
124.58
 11
-321.909
 21
124.393
  0
LINE
  8
0
 10
-321.909
 20
124.393
 11
-322.375
 21
124.155
  0
LINE
  8
0
 10
-322.375
 20
124.155
 11
-322.814
 21
123.87
  0
LINE
  8
0
 10
-322.814
 20
123.87
 11
-323.221
 21
123.541
  0
LINE
  8
0
 10
-323.221
 20
123.541
 11
-323.591
 21
123.171
  0
LINE
  8
0
 10
-323.591
 20
123.171
 11
-323.92
 21
122.764
  0
LINE
  8
0
 10
-323.92
 20
122.764
 11
-324.205
 21
122.325
  0
LINE
  8
0
 10
-324.205
 20
122.325
 11
-324.443
 21
121.859
  0
LINE
  8
0
 10
-324.443
 20
121.859
 11
-324.63
 21
121.37
  0
LINE
  8
0
 10
-324.63
 20
121.37
 11
-324.766
 21
120.865
  0
LINE
  8
0
 10
-324.766
 20
120.865
 11
-324.848
 21
120.348
  0
LINE
  8
0
 10
-324.848
 20
120.348
 11
-324.875
 21
119.825
  0
LINE
  8
0
 10
-324.875
 20
119.825
 11
-324.875
 21
-119.825
  0
LINE
  8
0
 10
-324.875
 20
-119.825
 11
-324.848
 21
-120.348
  0
LINE
  8
0
 10
-324.848
 20
-120.348
 11
-324.766
 21
-120.865
  0
LINE
  8
0
 10
-324.766
 20
-120.865
 11
-324.63
 21
-121.37
  0
LINE
  8
0
 10
-324.63
 20
-121.37
 11
-324.443
 21
-121.859
  0
LINE
  8
0
 10
-324.443
 20
-121.859
 11
-324.205
 21
-122.325
  0
LINE
  8
0
 10
-324.205
 20
-122.325
 11
-323.92
 21
-122.764
  0
LINE
  8
0
 10
-323.92
 20
-122.764
 11
-323.591
 21
-123.171
  0
LINE
  8
0
 10
-323.591
 20
-123.171
 11
-323.221
 21
-123.541
  0
LINE
  8
0
 10
-323.221
 20
-123.541
 11
-322.814
 21
-123.87
  0
LINE
  8
0
 10
-322.814
 20
-123.87
 11
-322.375
 21
-124.155
  0
LINE
  8
0
 10
-322.375
 20
-124.155
 11
-321.909
 21
-124.393
  0
LINE
  8
0
 10
-321.909
 20
-124.393
 11
-321.42
 21
-124.58
  0
LINE
  8
0
 10
-321.42
 20
-124.58
 11
-320.915
 21
-124.716
  0
LINE
  8
0
 10
-320.915
 20
-124.716
 11
-320.398
 21
-124.798
  0
LINE
  8
0
 10
-320.398
 20
-124.798
 11
-319.875
 21
-124.825
  0
LINE
  8
0
 10
-319.875
 20
-124.825
 11
319.875
 21
-124.825
  0
LINE
  8
0
 10
319.875
 20
-124.825
 11
320.398
 21
-124.798
  0
LINE
  8
0
 10
-315.523
 20
109.977
 11
-316.04
 21
110.059
  0
LINE
  8
0
 10
-316.04
 20
110.059
 11
-316.545
 21
110.195
  0
LINE
  8
0
 10
-316.545
 20
110.195
 11
-317.034
 21
110.382
  0
LINE
  8
0
 10
-317.034
 20
110.382
 11
-317.5
 21
110.62
  0
LINE
  8
0
 10
-317.5
 20
110.62
 11
-317.939
 21
110.905
  0
LINE
  8
0
 10
-317.939
 20
110.905
 11
-318.346
 21
111.234
  0
LINE
  8
0
 10
-318.346
 20
111.234
 11
-318.716
 21
111.604
  0
LINE
  8
0
 10
-318.716
 20
111.604
 11
-319.045
 21
112.011
  0
LINE
  8
0
 10
-319.045
 20
112.011
 11
-319.33
 21
112.45
  0
LINE
  8
0
 10
-319.33
 20
112.45
 11
-319.568
 21
112.916
  0
LINE
  8
0
 10
-319.568
 20
112.916
 11
-319.755
 21
113.405
  0
LINE
  8
0
 10
-319.755
 20
113.405
 11
-319.891
 21
113.91
  0
LINE
  8
0
 10
-319.891
 20
113.91
 11
-319.973
 21
114.427
  0
LINE
  8
0
 10
-319.973
 20
114.427
 11
-320
 21
114.95
  0
LINE
  8
0
 10
-320
 20
114.95
 11
-319.973
 21
115.473
  0
LINE
  8
0
 10
-319.973
 20
115.473
 11
-319.891
 21
115.99
  0
LINE
  8
0
 10
-319.891
 20
115.99
 11
-319.755
 21
116.495
  0
LINE
  8
0
 10
-319.755
 20
116.495
 11
-319.568
 21
116.984
  0
LINE
  8
0
 10
-319.568
 20
116.984
 11
-319.33
 21
117.45
  0
LINE
  8
0
 10
-319.33
 20
117.45
 11
-319.045
 21
117.889
  0
LINE
  8
0
 10
-319.045
 20
117.889
 11
-318.716
 21
118.296
  0
LINE
  8
0
 10
-318.716
 20
118.296
 11
-318.346
 21
118.666
  0
LINE
  8
0
 10
-318.346
 20
118.666
 11
-317.939
 21
118.995
  0
LINE
  8
0
 10
-317.939
 20
118.995
 11
-317.5
 21
119.28
  0
LINE
  8
0
 10
-317.5
 20
119.28
 11
-317.034
 21
119.518
  0
LINE
  8
0
 10
-317.034
 20
119.518
 11
-316.545
 21
119.705
  0
LINE
  8
0
 10
-316.545
 20
119.705
 11
-316.04
 21
119.841
  0
LINE
  8
0
 10
-316.04
 20
119.841
 11
-315.523
 21
119.923
  0
LINE
  8
0
 10
-315.523
 20
119.923
 11
-315
 21
119.95
  0
LINE
  8
0
 10
-315
 20
119.95
 11
-314.477
 21
119.923
  0
LINE
  8
0
 10
-314.477
 20
119.923
 11
-313.96
 21
119.841
  0
LINE
  8
0
 10
-313.96
 20
119.841
 11
-313.455
 21
119.705
  0
LINE
  8
0
 10
-313.455
 20
119.705
 11
-312.966
 21
119.518
  0
LINE
  8
0
 10
-312.966
 20
119.518
 11
-312.5
 21
119.28
  0
LINE
  8
0
 10
-312.5
 20
119.28
 11
-312.061
 21
118.995
  0
LINE
  8
0
 10
-312.061
 20
118.995
 11
-311.654
 21
118.666
  0
LINE
  8
0
 10
-311.654
 20
118.666
 11
-311.284
 21
118.296
  0
LINE
  8
0
 10
-311.284
 20
118.296
 11
-310.955
 21
117.889
  0
LINE
  8
0
 10
-310.955
 20
117.889
 11
-310.67
 21
117.45
  0
LINE
  8
0
 10
-310.67
 20
117.45
 11
-310.432
 21
116.984
  0
LINE
  8
0
 10
-310.432
 20
116.984
 11
-310.245
 21
116.495
  0
LINE
  8
0
 10
-310.245
 20
116.495
 11
-310.109
 21
115.99
  0
LINE
  8
0
 10
-310.109
 20
115.99
 11
-310.027
 21
115.473
  0
LINE
  8
0
 10
-310.027
 20
115.473
 11
-310
 21
114.95
  0
LINE
  8
0
 10
-310
 20
114.95
 11
-310.027
 21
114.427
  0
LINE
  8
0
 10
-310.027
 20
114.427
 11
-310.109
 21
113.91
  0
LINE
  8
0
 10
-310.109
 20
113.91
 11
-310.245
 21
113.405
  0
LINE
  8
0
 10
-310.245
 20
113.405
 11
-310.432
 21
112.916
  0
LINE
  8
0
 10
-310.432
 20
112.916
 11
-310.67
 21
112.45
  0
LINE
  8
0
 10
-310.67
 20
112.45
 11
-310.955
 21
112.011
  0
LINE
  8
0
 10
-310.955
 20
112.011
 11
-311.284
 21
111.604
  0
LINE
  8
0
 10
-311.284
 20
111.604
 11
-311.654
 21
111.234
  0
LINE
  8
0
 10
-311.654
 20
111.234
 11
-312.061
 21
110.905
  0
LINE
  8
0
 10
-312.061
 20
110.905
 11
-312.5
 21
110.62
  0
LINE
  8
0
 10
-312.5
 20
110.62
 11
-312.966
 21
110.382
  0
LINE
  8
0
 10
-312.966
 20
110.382
 11
-313.455
 21
110.195
  0
LINE
  8
0
 10
-313.455
 20
110.195
 11
-313.96
 21
110.059
  0
LINE
  8
0
 10
-313.96
 20
110.059
 11
-314.477
 21
109.977
  0
LINE
  8
0
 10
-314.477
 20
109.977
 11
-315
 21
109.95
  0
LINE
  8
0
 10
-315
 20
109.95
 11
-315.523
 21
109.977
  0
LINE
  8
0
 10
314.477
 20
109.977
 11
313.96
 21
110.059
  0
LINE
  8
0
 10
313.96
 20
110.059
 11
313.455
 21
110.195
  0
LINE
  8
0
 10
313.455
 20
110.195
 11
312.966
 21
110.382
  0
LINE
  8
0
 10
312.966
 20
110.382
 11
312.5
 21
110.62
  0
LINE
  8
0
 10
312.5
 20
110.62
 11
312.061
 21
110.905
  0
LINE
  8
0
 10
312.061
 20
110.905
 11
311.654
 21
111.234
  0
LINE
  8
0
 10
311.654
 20
111.234
 11
311.284
 21
111.604
  0
LINE
  8
0
 10
311.284
 20
111.604
 11
310.955
 21
112.011
  0
LINE
  8
0
 10
310.955
 20
112.011
 11
310.67
 21
112.45
  0
LINE
  8
0
 10
310.67
 20
112.45
 11
310.432
 21
112.916
  0
LINE
  8
0
 10
310.432
 20
112.916
 11
310.245
 21
113.405
  0
LINE
  8
0
 10
310.245
 20
113.405
 11
310.109
 21
113.91
  0
LINE
  8
0
 10
310.109
 20
113.91
 11
310.027
 21
114.427
  0
LINE
  8
0
 10
310.027
 20
114.427
 11
310
 21
114.95
  0
LINE
  8
0
 10
310
 20
114.95
 11
310.027
 21
115.473
  0
LINE
  8
0
 10
310.027
 20
115.473
 11
310.109
 21
115.99
  0
LINE
  8
0
 10
310.109
 20
115.99
 11
310.245
 21
116.495
  0
LINE
  8
0
 10
310.245
 20
116.495
 11
310.432
 21
116.984
  0
LINE
  8
0
 10
310.432
 20
116.984
 11
310.67
 21
117.45
  0
LINE
  8
0
 10
310.67
 20
117.45
 11
310.955
 21
117.889
  0
LINE
  8
0
 10
310.955
 20
117.889
 11
311.284
 21
118.296
  0
LINE
  8
0
 10
311.284
 20
118.296
 11
311.654
 21
118.666
  0
LINE
  8
0
 10
311.654
 20
118.666
 11
312.061
 21
118.995
  0
LINE
  8
0
 10
312.061
 20
118.995
 11
312.5
 21
119.28
  0
LINE
  8
0
 10
312.5
 20
119.28
 11
312.966
 21
119.518
  0
LINE
  8
0
 10
312.966
 20
119.518
 11
313.455
 21
119.705
  0
LINE
  8
0
 10
313.455
 20
119.705
 11
313.96
 21
119.841
  0
LINE
  8
0
 10
313.96
 20
119.841
 11
314.477
 21
119.923
  0
LINE
  8
0
 10
314.477
 20
119.923
 11
315
 21
119.95
  0
LINE
  8
0
 10
315
 20
119.95
 11
315.523
 21
119.923
  0
LINE
  8
0
 10
315.523
 20
119.923
 11
316.04
 21
119.841
  0
LINE
  8
0
 10
316.04
 20
119.841
 11
316.545
 21
119.705
  0
LINE
  8
0
 10
316.545
 20
119.705
 11
317.034
 21
119.518
  0
LINE
  8
0
 10
317.034
 20
119.518
 11
317.5
 21
119.28
  0
LINE
  8
0
 10
317.5
 20
119.28
 11
317.939
 21
118.995
  0
LINE
  8
0
 10
317.939
 20
118.995
 11
318.346
 21
118.666
  0
LINE
  8
0
 10
318.346
 20
118.666
 11
318.716
 21
118.296
  0
LINE
  8
0
 10
318.716
 20
118.296
 11
319.045
 21
117.889
  0
LINE
  8
0
 10
319.045
 20
117.889
 11
319.33
 21
117.45
  0
LINE
  8
0
 10
319.33
 20
117.45
 11
319.568
 21
116.984
  0
LINE
  8
0
 10
319.568
 20
116.984
 11
319.755
 21
116.495
  0
LINE
  8
0
 10
319.755
 20
116.495
 11
319.891
 21
115.99
  0
LINE
  8
0
 10
319.891
 20
115.99
 11
319.973
 21
115.473
  0
LINE
  8
0
 10
319.973
 20
115.473
 11
320
 21
114.95
  0
LINE
  8
0
 10
320
 20
114.95
 11
319.973
 21
114.427
  0
LINE
  8
0
 10
319.973
 20
114.427
 11
319.891
 21
113.91
  0
LINE
  8
0
 10
319.891
 20
113.91
 11
319.755
 21
113.405
  0
LINE
  8
0
 10
319.755
 20
113.405
 11
319.568
 21
112.916
  0
LINE
  8
0
 10
319.568
 20
112.916
 11
319.33
 21
112.45
  0
LINE
  8
0
 10
319.33
 20
112.45
 11
319.045
 21
112.011
  0
LINE
  8
0
 10
319.045
 20
112.011
 11
318.716
 21
111.604
  0
LINE
  8
0
 10
318.716
 20
111.604
 11
318.346
 21
111.234
  0
LINE
  8
0
 10
318.346
 20
111.234
 11
317.939
 21
110.905
  0
LINE
  8
0
 10
317.939
 20
110.905
 11
317.5
 21
110.62
  0
LINE
  8
0
 10
317.5
 20
110.62
 11
317.034
 21
110.382
  0
LINE
  8
0
 10
317.034
 20
110.382
 11
316.545
 21
110.195
  0
LINE
  8
0
 10
316.545
 20
110.195
 11
316.04
 21
110.059
  0
LINE
  8
0
 10
316.04
 20
110.059
 11
315.523
 21
109.977
  0
LINE
  8
0
 10
315.523
 20
109.977
 11
315
 21
109.95
  0
LINE
  8
0
 10
315
 20
109.95
 11
314.477
 21
109.977
  0
LINE
  8
0
 10
163.21
 20
113.305
 11
162.966
 21
113.341
  0
LINE
  8
0
 10
162.966
 20
113.341
 11
162.731
 21
113.414
  0
LINE
  8
0
 10
162.731
 20
113.414
 11
162.508
 21
113.521
  0
LINE
  8
0
 10
162.508
 20
113.521
 11
162.305
 21
113.66
  0
LINE
  8
0
 10
162.305
 20
113.66
 11
162.124
 21
113.828
  0
LINE
  8
0
 10
162.124
 20
113.828
 11
161.97
 21
114.021
  0
LINE
  8
0
 10
161.97
 20
114.021
 11
161.847
 21
114.234
  0
LINE
  8
0
 10
161.847
 20
114.234
 11
161.757
 21
114.464
  0
LINE
  8
0
 10
161.757
 20
114.464
 11
161.702
 21
114.704
  0
LINE
  8
0
 10
161.702
 20
114.704
 11
161.683
 21
114.95
  0
LINE
  8
0
 10
161.683
 20
114.95
 11
161.702
 21
115.196
  0
LINE
  8
0
 10
161.702
 20
115.196
 11
161.757
 21
115.436
  0
LINE
  8
0
 10
161.757
 20
115.436
 11
161.847
 21
115.666
  0
LINE
  8
0
 10
161.847
 20
115.666
 11
161.97
 21
115.879
  0
LINE
  8
0
 10
161.97
 20
115.879
 11
162.124
 21
116.072
  0
LINE
  8
0
 10
162.124
 20
116.072
 11
162.305
 21
116.24
  0
LINE
  8
0
 10
162.305
 20
116.24
 11
162.508
 21
116.379
  0
LINE
  8
0
 10
162.508
 20
116.379
 11
162.731
 21
116.486
  0
LINE
  8
0
 10
162.731
 20
116.486
 11
162.966
 21
116.559
  0
LINE
  8
0
 10
162.966
 20
116.559
 11
163.21
 21
116.595
  0
LINE
  8
0
 10
163.21
 20
116.595
 11
203.457
 21
116.595
  0
LINE
  8
0
 10
203.457
 20
116.595
 11
203.701
 21
116.559
  0
LINE
  8
0
 10
203.701
 20
116.559
 11
203.936
 21
116.486
  0
LINE
  8
0
 10
203.936
 20
116.486
 11
204.158
 21
116.379
  0
LINE
  8
0
 10
204.158
 20
116.379
 11
204.362
 21
116.24
  0
LINE
  8
0
 10
204.362
 20
116.24
 11
204.543
 21
116.072
  0
LINE
  8
0
 10
204.543
 20
116.072
 11
204.697
 21
115.879
  0
LINE
  8
0
 10
204.697
 20
115.879
 11
204.82
 21
115.666
  0
LINE
  8
0
 10
204.82
 20
115.666
 11
204.91
 21
115.436
  0
LINE
  8
0
 10
204.91
 20
115.436
 11
204.965
 21
115.196
  0
LINE
  8
0
 10
204.965
 20
115.196
 11
204.983
 21
114.95
  0
LINE
  8
0
 10
204.983
 20
114.95
 11
204.965
 21
114.704
  0
LINE
  8
0
 10
204.965
 20
114.704
 11
204.91
 21
114.464
  0
LINE
  8
0
 10
204.91
 20
114.464
 11
204.82
 21
114.234
  0
LINE
  8
0
 10
204.82
 20
114.234
 11
204.697
 21
114.021
  0
LINE
  8
0
 10
204.697
 20
114.021
 11
204.543
 21
113.828
  0
LINE
  8
0
 10
204.543
 20
113.828
 11
204.362
 21
113.66
  0
LINE
  8
0
 10
204.362
 20
113.66
 11
204.158
 21
113.521
  0
LINE
  8
0
 10
204.158
 20
113.521
 11
203.936
 21
113.414
  0
LINE
  8
0
 10
203.936
 20
113.414
 11
203.701
 21
113.341
  0
LINE
  8
0
 10
203.701
 20
113.341
 11
203.457
 21
113.305
  0
LINE
  8
0
 10
203.457
 20
113.305
 11
163.21
 21
113.305
  0
LINE
  8
0
 10
-20.1233
 20
113.305
 11
-20.3672
 21
113.341
  0
LINE
  8
0
 10
-20.3672
 20
113.341
 11
-20.6028
 21
113.414
  0
LINE
  8
0
 10
-20.6028
 20
113.414
 11
-20.825
 21
113.521
  0
LINE
  8
0
 10
-20.825
 20
113.521
 11
-21.0287
 21
113.66
  0
LINE
  8
0
 10
-21.0287
 20
113.66
 11
-21.2095
 21
113.828
  0
LINE
  8
0
 10
-21.2095
 20
113.828
 11
-21.3633
 21
114.021
  0
LINE
  8
0
 10
-21.3633
 20
114.021
 11
-21.4866
 21
114.234
  0
LINE
  8
0
 10
-21.4866
 20
114.234
 11
-21.5767
 21
114.464
  0
LINE
  8
0
 10
-21.5767
 20
114.464
 11
-21.6316
 21
114.704
  0
LINE
  8
0
 10
-21.6316
 20
114.704
 11
-21.65
 21
114.95
  0
LINE
  8
0
 10
-21.65
 20
114.95
 11
-21.6316
 21
115.196
  0
LINE
  8
0
 10
-21.6316
 20
115.196
 11
-21.5767
 21
115.436
  0
LINE
  8
0
 10
-21.5767
 20
115.436
 11
-21.4866
 21
115.666
  0
LINE
  8
0
 10
-21.4866
 20
115.666
 11
-21.3633
 21
115.879
  0
LINE
  8
0
 10
-21.3633
 20
115.879
 11
-21.2095
 21
116.072
  0
LINE
  8
0
 10
-21.2095
 20
116.072
 11
-21.0287
 21
116.24
  0
LINE
  8
0
 10
-21.0287
 20
116.24
 11
-20.825
 21
116.379
  0
LINE
  8
0
 10
-20.825
 20
116.379
 11
-20.6028
 21
116.486
  0
LINE
  8
0
 10
-20.6028
 20
116.486
 11
-20.3672
 21
116.559
  0
LINE
  8
0
 10
-20.3672
 20
116.559
 11
-20.1233
 21
116.595
  0
LINE
  8
0
 10
-20.1233
 20
116.595
 11
20.1233
 21
116.595
  0
LINE
  8
0
 10
20.1233
 20
116.595
 11
20.3672
 21
116.559
  0
LINE
  8
0
 10
20.3672
 20
116.559
 11
20.6028
 21
116.486
  0
LINE
  8
0
 10
20.6028
 20
116.486
 11
20.825
 21
116.379
  0
LINE
  8
0
 10
20.825
 20
116.379
 11
21.0287
 21
116.24
  0
LINE
  8
0
 10
21.0287
 20
116.24
 11
21.2095
 21
116.072
  0
LINE
  8
0
 10
21.2095
 20
116.072
 11
21.3633
 21
115.879
  0
LINE
  8
0
 10
21.3633
 20
115.879
 11
21.4866
 21
115.666
  0
LINE
  8
0
 10
21.4866
 20
115.666
 11
21.5767
 21
115.436
  0
LINE
  8
0
 10
21.5767
 20
115.436
 11
21.6316
 21
115.196
  0
LINE
  8
0
 10
21.6316
 20
115.196
 11
21.65
 21
114.95
  0
LINE
  8
0
 10
21.65
 20
114.95
 11
21.6316
 21
114.704
  0
LINE
  8
0
 10
21.6316
 20
114.704
 11
21.5767
 21
114.464
  0
LINE
  8
0
 10
21.5767
 20
114.464
 11
21.4866
 21
114.234
  0
LINE
  8
0
 10
21.4866
 20
114.234
 11
21.3633
 21
114.021
  0
LINE
  8
0
 10
21.3633
 20
114.021
 11
21.2095
 21
113.828
  0
LINE
  8
0
 10
21.2095
 20
113.828
 11
21.0287
 21
113.66
  0
LINE
  8
0
 10
21.0287
 20
113.66
 11
20.825
 21
113.521
  0
LINE
  8
0
 10
20.825
 20
113.521
 11
20.6028
 21
113.414
  0
LINE
  8
0
 10
20.6028
 20
113.414
 11
20.3672
 21
113.341
  0
LINE
  8
0
 10
20.3672
 20
113.341
 11
20.1233
 21
113.305
  0
LINE
  8
0
 10
20.1233
 20
113.305
 11
-20.1233
 21
113.305
  0
LINE
  8
0
 10
254.877
 20
113.305
 11
254.633
 21
113.341
  0
LINE
  8
0
 10
254.633
 20
113.341
 11
254.397
 21
113.414
  0
LINE
  8
0
 10
254.397
 20
113.414
 11
254.175
 21
113.521
  0
LINE
  8
0
 10
254.175
 20
113.521
 11
253.971
 21
113.66
  0
LINE
  8
0
 10
253.971
 20
113.66
 11
253.79
 21
113.828
  0
LINE
  8
0
 10
253.79
 20
113.828
 11
253.637
 21
114.021
  0
LINE
  8
0
 10
253.637
 20
114.021
 11
253.513
 21
114.234
  0
LINE
  8
0
 10
253.513
 20
114.234
 11
253.423
 21
114.464
  0
LINE
  8
0
 10
253.423
 20
114.464
 11
253.368
 21
114.704
  0
LINE
  8
0
 10
253.368
 20
114.704
 11
253.35
 21
114.95
  0
LINE
  8
0
 10
253.35
 20
114.95
 11
253.368
 21
115.196
  0
LINE
  8
0
 10
253.368
 20
115.196
 11
253.423
 21
115.436
  0
LINE
  8
0
 10
253.423
 20
115.436
 11
253.513
 21
115.666
  0
LINE
  8
0
 10
253.513
 20
115.666
 11
253.637
 21
115.879
  0
LINE
  8
0
 10
253.637
 20
115.879
 11
253.79
 21
116.072
  0
LINE
  8
0
 10
253.79
 20
116.072
 11
253.971
 21
116.24
  0
LINE
  8
0
 10
253.971
 20
116.24
 11
254.175
 21
116.379
  0
LINE
  8
0
 10
254.175
 20
116.379
 11
254.397
 21
116.486
  0
LINE
  8
0
 10
254.397
 20
116.486
 11
254.633
 21
116.559
  0
LINE
  8
0
 10
254.633
 20
116.559
 11
254.877
 21
116.595
  0
LINE
  8
0
 10
254.877
 20
116.595
 11
295.123
 21
116.595
  0
LINE
  8
0
 10
295.123
 20
116.595
 11
295.367
 21
116.559
  0
LINE
  8
0
 10
295.367
 20
116.559
 11
295.603
 21
116.486
  0
LINE
  8
0
 10
295.603
 20
116.486
 11
295.825
 21
116.379
  0
LINE
  8
0
 10
295.825
 20
116.379
 11
296.029
 21
116.24
  0
LINE
  8
0
 10
296.029
 20
116.24
 11
296.21
 21
116.072
  0
LINE
  8
0
 10
296.21
 20
116.072
 11
296.363
 21
115.879
  0
LINE
  8
0
 10
296.363
 20
115.879
 11
296.487
 21
115.666
  0
LINE
  8
0
 10
296.487
 20
115.666
 11
296.577
 21
115.436
  0
LINE
  8
0
 10
296.577
 20
115.436
 11
296.632
 21
115.196
  0
LINE
  8
0
 10
296.632
 20
115.196
 11
296.65
 21
114.95
  0
LINE
  8
0
 10
296.65
 20
114.95
 11
296.632
 21
114.704
  0
LINE
  8
0
 10
296.632
 20
114.704
 11
296.577
 21
114.464
  0
LINE
  8
0
 10
296.577
 20
114.464
 11
296.487
 21
114.234
  0
LINE
  8
0
 10
296.487
 20
114.234
 11
296.363
 21
114.021
  0
LINE
  8
0
 10
296.363
 20
114.021
 11
296.21
 21
113.828
  0
LINE
  8
0
 10
296.21
 20
113.828
 11
296.029
 21
113.66
  0
LINE
  8
0
 10
296.029
 20
113.66
 11
295.825
 21
113.521
  0
LINE
  8
0
 10
295.825
 20
113.521
 11
295.603
 21
113.414
  0
LINE
  8
0
 10
295.603
 20
113.414
 11
295.367
 21
113.341
  0
LINE
  8
0
 10
295.367
 20
113.341
 11
295.123
 21
113.305
  0
LINE
  8
0
 10
295.123
 20
113.305
 11
254.877
 21
113.305
  0
LINE
  8
0
 10
71.5434
 20
113.305
 11
71.2995
 21
113.341
  0
LINE
  8
0
 10
71.2995
 20
113.341
 11
71.0638
 21
113.414
  0
LINE
  8
0
 10
71.0638
 20
113.414
 11
70.8417
 21
113.521
  0
LINE
  8
0
 10
70.8417
 20
113.521
 11
70.6379
 21
113.66
  0
LINE
  8
0
 10
70.6379
 20
113.66
 11
70.4571
 21
113.828
  0
LINE
  8
0
 10
70.4571
 20
113.828
 11
70.3034
 21
114.021
  0
LINE
  8
0
 10
70.3034
 20
114.021
 11
70.1801
 21
114.234
  0
LINE
  8
0
 10
70.1801
 20
114.234
 11
70.09
 21
114.464
  0
LINE
  8
0
 10
70.09
 20
114.464
 11
70.0351
 21
114.704
  0
LINE
  8
0
 10
70.0351
 20
114.704
 11
70.0167
 21
114.95
  0
LINE
  8
0
 10
70.0167
 20
114.95
 11
70.0351
 21
115.196
  0
LINE
  8
0
 10
70.0351
 20
115.196
 11
70.09
 21
115.436
  0
LINE
  8
0
 10
70.09
 20
115.436
 11
70.1801
 21
115.666
  0
LINE
  8
0
 10
70.1801
 20
115.666
 11
70.3034
 21
115.879
  0
LINE
  8
0
 10
70.3034
 20
115.879
 11
70.4571
 21
116.072
  0
LINE
  8
0
 10
70.4571
 20
116.072
 11
70.6379
 21
116.24
  0
LINE
  8
0
 10
70.6379
 20
116.24
 11
70.8417
 21
116.379
  0
LINE
  8
0
 10
70.8417
 20
116.379
 11
71.0638
 21
116.486
  0
LINE
  8
0
 10
71.0638
 20
116.486
 11
71.2995
 21
116.559
  0
LINE
  8
0
 10
71.2995
 20
116.559
 11
71.5434
 21
116.595
  0
LINE
  8
0
 10
71.5434
 20
116.595
 11
111.79
 21
116.595
  0
LINE
  8
0
 10
111.79
 20
116.595
 11
112.034
 21
116.559
  0
LINE
  8
0
 10
112.034
 20
116.559
 11
112.269
 21
116.486
  0
LINE
  8
0
 10
112.269
 20
116.486
 11
112.492
 21
116.379
  0
LINE
  8
0
 10
112.492
 20
116.379
 11
112.695
 21
116.24
  0
LINE
  8
0
 10
112.695
 20
116.24
 11
112.876
 21
116.072
  0
LINE
  8
0
 10
112.876
 20
116.072
 11
113.03
 21
115.879
  0
LINE
  8
0
 10
113.03
 20
115.879
 11
113.153
 21
115.666
  0
LINE
  8
0
 10
113.153
 20
115.666
 11
113.243
 21
115.436
  0
LINE
  8
0
 10
113.243
 20
115.436
 11
113.298
 21
115.196
  0
LINE
  8
0
 10
113.298
 20
115.196
 11
113.317
 21
114.95
  0
LINE
  8
0
 10
113.317
 20
114.95
 11
113.298
 21
114.704
  0
LINE
  8
0
 10
113.298
 20
114.704
 11
113.243
 21
114.464
  0
LINE
  8
0
 10
113.243
 20
114.464
 11
113.153
 21
114.234
  0
LINE
  8
0
 10
113.153
 20
114.234
 11
113.03
 21
114.021
  0
LINE
  8
0
 10
113.03
 20
114.021
 11
112.876
 21
113.828
  0
LINE
  8
0
 10
112.876
 20
113.828
 11
112.695
 21
113.66
  0
LINE
  8
0
 10
112.695
 20
113.66
 11
112.492
 21
113.521
  0
LINE
  8
0
 10
112.492
 20
113.521
 11
112.269
 21
113.414
  0
LINE
  8
0
 10
112.269
 20
113.414
 11
112.034
 21
113.341
  0
LINE
  8
0
 10
112.034
 20
113.341
 11
111.79
 21
113.305
  0
LINE
  8
0
 10
111.79
 20
113.305
 11
71.5434
 21
113.305
  0
LINE
  8
0
 10
-111.79
 20
113.305
 11
-112.034
 21
113.341
  0
LINE
  8
0
 10
-112.034
 20
113.341
 11
-112.269
 21
113.414
  0
LINE
  8
0
 10
-112.269
 20
113.414
 11
-112.492
 21
113.521
  0
LINE
  8
0
 10
-112.492
 20
113.521
 11
-112.695
 21
113.66
  0
LINE
  8
0
 10
-112.695
 20
113.66
 11
-112.876
 21
113.828
  0
LINE
  8
0
 10
-112.876
 20
113.828
 11
-113.03
 21
114.021
  0
LINE
  8
0
 10
-113.03
 20
114.021
 11
-113.153
 21
114.234
  0
LINE
  8
0
 10
-113.153
 20
114.234
 11
-113.243
 21
114.464
  0
LINE
  8
0
 10
-113.243
 20
114.464
 11
-113.298
 21
114.704
  0
LINE
  8
0
 10
-113.298
 20
114.704
 11
-113.317
 21
114.95
  0
LINE
  8
0
 10
-113.317
 20
114.95
 11
-113.298
 21
115.196
  0
LINE
  8
0
 10
-113.298
 20
115.196
 11
-113.243
 21
115.436
  0
LINE
  8
0
 10
-113.243
 20
115.436
 11
-113.153
 21
115.666
  0
LINE
  8
0
 10
-113.153
 20
115.666
 11
-113.03
 21
115.879
  0
LINE
  8
0
 10
-113.03
 20
115.879
 11
-112.876
 21
116.072
  0
LINE
  8
0
 10
-112.876
 20
116.072
 11
-112.695
 21
116.24
  0
LINE
  8
0
 10
-112.695
 20
116.24
 11
-112.492
 21
116.379
  0
LINE
  8
0
 10
-112.492
 20
116.379
 11
-112.269
 21
116.486
  0
LINE
  8
0
 10
-112.269
 20
116.486
 11
-112.034
 21
116.559
  0
LINE
  8
0
 10
-112.034
 20
116.559
 11
-111.79
 21
116.595
  0
LINE
  8
0
 10
-111.79
 20
116.595
 11
-71.5434
 21
116.595
  0
LINE
  8
0
 10
-71.5434
 20
116.595
 11
-71.2995
 21
116.559
  0
LINE
  8
0
 10
-71.2995
 20
116.559
 11
-71.0638
 21
116.486
  0
LINE
  8
0
 10
-71.0638
 20
116.486
 11
-70.8417
 21
116.379
  0
LINE
  8
0
 10
-70.8417
 20
116.379
 11
-70.6379
 21
116.24
  0
LINE
  8
0
 10
-70.6379
 20
116.24
 11
-70.4571
 21
116.072
  0
LINE
  8
0
 10
-70.4571
 20
116.072
 11
-70.3034
 21
115.879
  0
LINE
  8
0
 10
-70.3034
 20
115.879
 11
-70.1801
 21
115.666
  0
LINE
  8
0
 10
-70.1801
 20
115.666
 11
-70.09
 21
115.436
  0
LINE
  8
0
 10
-70.09
 20
115.436
 11
-70.0351
 21
115.196
  0
LINE
  8
0
 10
-70.0351
 20
115.196
 11
-70.0167
 21
114.95
  0
LINE
  8
0
 10
-70.0167
 20
114.95
 11
-70.0351
 21
114.704
  0
LINE
  8
0
 10
-70.0351
 20
114.704
 11
-70.09
 21
114.464
  0
LINE
  8
0
 10
-70.09
 20
114.464
 11
-70.1801
 21
114.234
  0
LINE
  8
0
 10
-70.1801
 20
114.234
 11
-70.3034
 21
114.021
  0
LINE
  8
0
 10
-70.3034
 20
114.021
 11
-70.4571
 21
113.828
  0
LINE
  8
0
 10
-70.4571
 20
113.828
 11
-70.6379
 21
113.66
  0
LINE
  8
0
 10
-70.6379
 20
113.66
 11
-70.8417
 21
113.521
  0
LINE
  8
0
 10
-70.8417
 20
113.521
 11
-71.0638
 21
113.414
  0
LINE
  8
0
 10
-71.0638
 20
113.414
 11
-71.2995
 21
113.341
  0
LINE
  8
0
 10
-71.2995
 20
113.341
 11
-71.5434
 21
113.305
  0
LINE
  8
0
 10
-71.5434
 20
113.305
 11
-111.79
 21
113.305
  0
LINE
  8
0
 10
-295.123
 20
113.305
 11
-295.367
 21
113.341
  0
LINE
  8
0
 10
-295.367
 20
113.341
 11
-295.603
 21
113.414
  0
LINE
  8
0
 10
-295.603
 20
113.414
 11
-295.825
 21
113.521
  0
LINE
  8
0
 10
-295.825
 20
113.521
 11
-296.029
 21
113.66
  0
LINE
  8
0
 10
-296.029
 20
113.66
 11
-296.21
 21
113.828
  0
LINE
  8
0
 10
-296.21
 20
113.828
 11
-296.363
 21
114.021
  0
LINE
  8
0
 10
-296.363
 20
114.021
 11
-296.487
 21
114.234
  0
LINE
  8
0
 10
-296.487
 20
114.234
 11
-296.577
 21
114.464
  0
LINE
  8
0
 10
-296.577
 20
114.464
 11
-296.632
 21
114.704
  0
LINE
  8
0
 10
-296.632
 20
114.704
 11
-296.65
 21
114.95
  0
LINE
  8
0
 10
-296.65
 20
114.95
 11
-296.632
 21
115.196
  0
LINE
  8
0
 10
-296.632
 20
115.196
 11
-296.577
 21
115.436
  0
LINE
  8
0
 10
-296.577
 20
115.436
 11
-296.487
 21
115.666
  0
LINE
  8
0
 10
-296.487
 20
115.666
 11
-296.363
 21
115.879
  0
LINE
  8
0
 10
-296.363
 20
115.879
 11
-296.21
 21
116.072
  0
LINE
  8
0
 10
-296.21
 20
116.072
 11
-296.029
 21
116.24
  0
LINE
  8
0
 10
-296.029
 20
116.24
 11
-295.825
 21
116.379
  0
LINE
  8
0
 10
-295.825
 20
116.379
 11
-295.603
 21
116.486
  0
LINE
  8
0
 10
-295.603
 20
116.486
 11
-295.367
 21
116.559
  0
LINE
  8
0
 10
-295.367
 20
116.559
 11
-295.123
 21
116.595
  0
LINE
  8
0
 10
-295.123
 20
116.595
 11
-254.877
 21
116.595
  0
LINE
  8
0
 10
-254.877
 20
116.595
 11
-254.633
 21
116.559
  0
LINE
  8
0
 10
-254.633
 20
116.559
 11
-254.397
 21
116.486
  0
LINE
  8
0
 10
-254.397
 20
116.486
 11
-254.175
 21
116.379
  0
LINE
  8
0
 10
-254.175
 20
116.379
 11
-253.971
 21
116.24
  0
LINE
  8
0
 10
-253.971
 20
116.24
 11
-253.79
 21
116.072
  0
LINE
  8
0
 10
-253.79
 20
116.072
 11
-253.637
 21
115.879
  0
LINE
  8
0
 10
-253.637
 20
115.879
 11
-253.513
 21
115.666
  0
LINE
  8
0
 10
-253.513
 20
115.666
 11
-253.423
 21
115.436
  0
LINE
  8
0
 10
-253.423
 20
115.436
 11
-253.368
 21
115.196
  0
LINE
  8
0
 10
-253.368
 20
115.196
 11
-253.35
 21
114.95
  0
LINE
  8
0
 10
-253.35
 20
114.95
 11
-253.368
 21
114.704
  0
LINE
  8
0
 10
-253.368
 20
114.704
 11
-253.423
 21
114.464
  0
LINE
  8
0
 10
-253.423
 20
114.464
 11
-253.513
 21
114.234
  0
LINE
  8
0
 10
-253.513
 20
114.234
 11
-253.637
 21
114.021
  0
LINE
  8
0
 10
-253.637
 20
114.021
 11
-253.79
 21
113.828
  0
LINE
  8
0
 10
-253.79
 20
113.828
 11
-253.971
 21
113.66
  0
LINE
  8
0
 10
-253.971
 20
113.66
 11
-254.175
 21
113.521
  0
LINE
  8
0
 10
-254.175
 20
113.521
 11
-254.397
 21
113.414
  0
LINE
  8
0
 10
-254.397
 20
113.414
 11
-254.633
 21
113.341
  0
LINE
  8
0
 10
-254.633
 20
113.341
 11
-254.877
 21
113.305
  0
LINE
  8
0
 10
-254.877
 20
113.305
 11
-295.123
 21
113.305
  0
LINE
  8
0
 10
-203.457
 20
113.305
 11
-203.701
 21
113.341
  0
LINE
  8
0
 10
-203.701
 20
113.341
 11
-203.936
 21
113.414
  0
LINE
  8
0
 10
-203.936
 20
113.414
 11
-204.158
 21
113.521
  0
LINE
  8
0
 10
-204.158
 20
113.521
 11
-204.362
 21
113.66
  0
LINE
  8
0
 10
-204.362
 20
113.66
 11
-204.543
 21
113.828
  0
LINE
  8
0
 10
-204.543
 20
113.828
 11
-204.697
 21
114.021
  0
LINE
  8
0
 10
-204.697
 20
114.021
 11
-204.82
 21
114.234
  0
LINE
  8
0
 10
-204.82
 20
114.234
 11
-204.91
 21
114.464
  0
LINE
  8
0
 10
-204.91
 20
114.464
 11
-204.965
 21
114.704
  0
LINE
  8
0
 10
-204.965
 20
114.704
 11
-204.983
 21
114.95
  0
LINE
  8
0
 10
-204.983
 20
114.95
 11
-204.965
 21
115.196
  0
LINE
  8
0
 10
-204.965
 20
115.196
 11
-204.91
 21
115.436
  0
LINE
  8
0
 10
-204.91
 20
115.436
 11
-204.82
 21
115.666
  0
LINE
  8
0
 10
-204.82
 20
115.666
 11
-204.697
 21
115.879
  0
LINE
  8
0
 10
-204.697
 20
115.879
 11
-204.543
 21
116.072
  0
LINE
  8
0
 10
-204.543
 20
116.072
 11
-204.362
 21
116.24
  0
LINE
  8
0
 10
-204.362
 20
116.24
 11
-204.158
 21
116.379
  0
LINE
  8
0
 10
-204.158
 20
116.379
 11
-203.936
 21
116.486
  0
LINE
  8
0
 10
-203.936
 20
116.486
 11
-203.701
 21
116.559
  0
LINE
  8
0
 10
-203.701
 20
116.559
 11
-203.457
 21
116.595
  0
LINE
  8
0
 10
-203.457
 20
116.595
 11
-163.21
 21
116.595
  0
LINE
  8
0
 10
-163.21
 20
116.595
 11
-162.966
 21
116.559
  0
LINE
  8
0
 10
-162.966
 20
116.559
 11
-162.731
 21
116.486
  0
LINE
  8
0
 10
-162.731
 20
116.486
 11
-162.508
 21
116.379
  0
LINE
  8
0
 10
-162.508
 20
116.379
 11
-162.305
 21
116.24
  0
LINE
  8
0
 10
-162.305
 20
116.24
 11
-162.124
 21
116.072
  0
LINE
  8
0
 10
-162.124
 20
116.072
 11
-161.97
 21
115.879
  0
LINE
  8
0
 10
-161.97
 20
115.879
 11
-161.847
 21
115.666
  0
LINE
  8
0
 10
-161.847
 20
115.666
 11
-161.757
 21
115.436
  0
LINE
  8
0
 10
-161.757
 20
115.436
 11
-161.702
 21
115.196
  0
LINE
  8
0
 10
-161.702
 20
115.196
 11
-161.683
 21
114.95
  0
LINE
  8
0
 10
-161.683
 20
114.95
 11
-161.702
 21
114.704
  0
LINE
  8
0
 10
-161.702
 20
114.704
 11
-161.757
 21
114.464
  0
LINE
  8
0
 10
-161.757
 20
114.464
 11
-161.847
 21
114.234
  0
LINE
  8
0
 10
-161.847
 20
114.234
 11
-161.97
 21
114.021
  0
LINE
  8
0
 10
-161.97
 20
114.021
 11
-162.124
 21
113.828
  0
LINE
  8
0
 10
-162.124
 20
113.828
 11
-162.305
 21
113.66
  0
LINE
  8
0
 10
-162.305
 20
113.66
 11
-162.508
 21
113.521
  0
LINE
  8
0
 10
-162.508
 20
113.521
 11
-162.731
 21
113.414
  0
LINE
  8
0
 10
-162.731
 20
113.414
 11
-162.966
 21
113.341
  0
LINE
  8
0
 10
-162.966
 20
113.341
 11
-163.21
 21
113.305
  0
LINE
  8
0
 10
-163.21
 20
113.305
 11
-203.457
 21
113.305
  0
LINE
  8
0
 10
-315.246
 20
53.3184
 11
-315.486
 21
53.3733
  0
LINE
  8
0
 10
-315.486
 20
53.3733
 11
-315.716
 21
53.4634
  0
LINE
  8
0
 10
-315.716
 20
53.4634
 11
-315.929
 21
53.5867
  0
LINE
  8
0
 10
-315.929
 20
53.5867
 11
-316.122
 21
53.7405
  0
LINE
  8
0
 10
-316.122
 20
53.7405
 11
-316.29
 21
53.9212
  0
LINE
  8
0
 10
-316.29
 20
53.9212
 11
-316.429
 21
54.125
  0
LINE
  8
0
 10
-316.429
 20
54.125
 11
-316.536
 21
54.3472
  0
LINE
  8
0
 10
-316.536
 20
54.3472
 11
-316.609
 21
54.5828
  0
LINE
  8
0
 10
-316.609
 20
54.5828
 11
-316.645
 21
54.8267
  0
LINE
  8
0
 10
-316.645
 20
54.8267
 11
-316.645
 21
95.0733
  0
LINE
  8
0
 10
-316.645
 20
95.0733
 11
-316.609
 21
95.3172
  0
LINE
  8
0
 10
-316.609
 20
95.3172
 11
-316.536
 21
95.5528
  0
LINE
  8
0
 10
-316.536
 20
95.5528
 11
-316.429
 21
95.775
  0
LINE
  8
0
 10
-316.429
 20
95.775
 11
-316.29
 21
95.9788
  0
LINE
  8
0
 10
-316.29
 20
95.9788
 11
-316.122
 21
96.1595
  0
LINE
  8
0
 10
-316.122
 20
96.1595
 11
-315.929
 21
96.3133
  0
LINE
  8
0
 10
-315.929
 20
96.3133
 11
-315.716
 21
96.4366
  0
LINE
  8
0
 10
-315.716
 20
96.4366
 11
-315.486
 21
96.5267
  0
LINE
  8
0
 10
-315.486
 20
96.5267
 11
-315.246
 21
96.5816
  0
LINE
  8
0
 10
-315.246
 20
96.5816
 11
-315
 21
96.6
  0
LINE
  8
0
 10
-315
 20
96.6
 11
-314.754
 21
96.5816
  0
LINE
  8
0
 10
-314.754
 20
96.5816
 11
-314.514
 21
96.5267
  0
LINE
  8
0
 10
-314.514
 20
96.5267
 11
-314.284
 21
96.4366
  0
LINE
  8
0
 10
-314.284
 20
96.4366
 11
-314.071
 21
96.3133
  0
LINE
  8
0
 10
-314.071
 20
96.3133
 11
-313.878
 21
96.1595
  0
LINE
  8
0
 10
-313.878
 20
96.1595
 11
-313.71
 21
95.9788
  0
LINE
  8
0
 10
-313.71
 20
95.9788
 11
-313.571
 21
95.775
  0
LINE
  8
0
 10
-313.571
 20
95.775
 11
-313.464
 21
95.5528
  0
LINE
  8
0
 10
-313.464
 20
95.5528
 11
-313.391
 21
95.3172
  0
LINE
  8
0
 10
-313.391
 20
95.3172
 11
-313.355
 21
95.0733
  0
LINE
  8
0
 10
-313.355
 20
95.0733
 11
-313.355
 21
54.8267
  0
LINE
  8
0
 10
-313.355
 20
54.8267
 11
-313.391
 21
54.5828
  0
LINE
  8
0
 10
-313.391
 20
54.5828
 11
-313.464
 21
54.3472
  0
LINE
  8
0
 10
-313.464
 20
54.3472
 11
-313.571
 21
54.125
  0
LINE
  8
0
 10
-313.571
 20
54.125
 11
-313.71
 21
53.9212
  0
LINE
  8
0
 10
-313.71
 20
53.9212
 11
-313.878
 21
53.7405
  0
LINE
  8
0
 10
-313.878
 20
53.7405
 11
-314.071
 21
53.5867
  0
LINE
  8
0
 10
-314.071
 20
53.5867
 11
-314.284
 21
53.4634
  0
LINE
  8
0
 10
-314.284
 20
53.4634
 11
-314.514
 21
53.3733
  0
LINE
  8
0
 10
-314.514
 20
53.3733
 11
-314.754
 21
53.3184
  0
LINE
  8
0
 10
-314.754
 20
53.3184
 11
-315
 21
53.3
  0
LINE
  8
0
 10
-315
 20
53.3
 11
-315.246
 21
53.3184
  0
LINE
  8
0
 10
314.754
 20
53.3184
 11
314.514
 21
53.3733
  0
LINE
  8
0
 10
314.514
 20
53.3733
 11
314.284
 21
53.4634
  0
LINE
  8
0
 10
314.284
 20
53.4634
 11
314.071
 21
53.5867
  0
LINE
  8
0
 10
314.071
 20
53.5867
 11
313.878
 21
53.7405
  0
LINE
  8
0
 10
313.878
 20
53.7405
 11
313.71
 21
53.9212
  0
LINE
  8
0
 10
313.71
 20
53.9212
 11
313.571
 21
54.125
  0
LINE
  8
0
 10
313.571
 20
54.125
 11
313.464
 21
54.3472
  0
LINE
  8
0
 10
313.464
 20
54.3472
 11
313.391
 21
54.5828
  0
LINE
  8
0
 10
313.391
 20
54.5828
 11
313.355
 21
54.8267
  0
LINE
  8
0
 10
313.355
 20
54.8267
 11
313.355
 21
95.0733
  0
LINE
  8
0
 10
313.355
 20
95.0733
 11
313.391
 21
95.3172
  0
LINE
  8
0
 10
313.391
 20
95.3172
 11
313.464
 21
95.5528
  0
LINE
  8
0
 10
313.464
 20
95.5528
 11
313.571
 21
95.775
  0
LINE
  8
0
 10
313.571
 20
95.775
 11
313.71
 21
95.9788
  0
LINE
  8
0
 10
313.71
 20
95.9788
 11
313.878
 21
96.1595
  0
LINE
  8
0
 10
313.878
 20
96.1595
 11
314.071
 21
96.3133
  0
LINE
  8
0
 10
314.071
 20
96.3133
 11
314.284
 21
96.4366
  0
LINE
  8
0
 10
314.284
 20
96.4366
 11
314.514
 21
96.5267
  0
LINE
  8
0
 10
314.514
 20
96.5267
 11
314.754
 21
96.5816
  0
LINE
  8
0
 10
314.754
 20
96.5816
 11
315
 21
96.6
  0
LINE
  8
0
 10
315
 20
96.6
 11
315.246
 21
96.5816
  0
LINE
  8
0
 10
315.246
 20
96.5816
 11
315.486
 21
96.5267
  0
LINE
  8
0
 10
315.486
 20
96.5267
 11
315.716
 21
96.4366
  0
LINE
  8
0
 10
315.716
 20
96.4366
 11
315.929
 21
96.3133
  0
LINE
  8
0
 10
315.929
 20
96.3133
 11
316.122
 21
96.1595
  0
LINE
  8
0
 10
316.122
 20
96.1595
 11
316.29
 21
95.9788
  0
LINE
  8
0
 10
316.29
 20
95.9788
 11
316.429
 21
95.775
  0
LINE
  8
0
 10
316.429
 20
95.775
 11
316.536
 21
95.5528
  0
LINE
  8
0
 10
316.536
 20
95.5528
 11
316.609
 21
95.3172
  0
LINE
  8
0
 10
316.609
 20
95.3172
 11
316.645
 21
95.0733
  0
LINE
  8
0
 10
316.645
 20
95.0733
 11
316.645
 21
54.8267
  0
LINE
  8
0
 10
316.645
 20
54.8267
 11
316.609
 21
54.5828
  0
LINE
  8
0
 10
316.609
 20
54.5828
 11
316.536
 21
54.3472
  0
LINE
  8
0
 10
316.536
 20
54.3472
 11
316.429
 21
54.125
  0
LINE
  8
0
 10
316.429
 20
54.125
 11
316.29
 21
53.9212
  0
LINE
  8
0
 10
316.29
 20
53.9212
 11
316.122
 21
53.7405
  0
LINE
  8
0
 10
316.122
 20
53.7405
 11
315.929
 21
53.5867
  0
LINE
  8
0
 10
315.929
 20
53.5867
 11
315.716
 21
53.4634
  0
LINE
  8
0
 10
315.716
 20
53.4634
 11
315.486
 21
53.3733
  0
LINE
  8
0
 10
315.486
 20
53.3733
 11
315.246
 21
53.3184
  0
LINE
  8
0
 10
315.246
 20
53.3184
 11
315
 21
53.3
  0
LINE
  8
0
 10
315
 20
53.3
 11
314.754
 21
53.3184
  0
LINE
  8
0
 10
314.754
 20
-21.6316
 11
314.514
 21
-21.5767
  0
LINE
  8
0
 10
314.514
 20
-21.5767
 11
314.284
 21
-21.4866
  0
LINE
  8
0
 10
314.284
 20
-21.4866
 11
314.071
 21
-21.3633
  0
LINE
  8
0
 10
314.071
 20
-21.3633
 11
313.878
 21
-21.2095
  0
LINE
  8
0
 10
313.878
 20
-21.2095
 11
313.71
 21
-21.0287
  0
LINE
  8
0
 10
313.71
 20
-21.0287
 11
313.571
 21
-20.825
  0
LINE
  8
0
 10
313.571
 20
-20.825
 11
313.464
 21
-20.6028
  0
LINE
  8
0
 10
313.464
 20
-20.6028
 11
313.391
 21
-20.3672
  0
LINE
  8
0
 10
313.391
 20
-20.3672
 11
313.355
 21
-20.1233
  0
LINE
  8
0
 10
313.355
 20
-20.1233
 11
313.355
 21
20.1233
  0
LINE
  8
0
 10
313.355
 20
20.1233
 11
313.391
 21
20.3672
  0
LINE
  8
0
 10
313.391
 20
20.3672
 11
313.464
 21
20.6028
  0
LINE
  8
0
 10
313.464
 20
20.6028
 11
313.571
 21
20.825
  0
LINE
  8
0
 10
313.571
 20
20.825
 11
313.71
 21
21.0287
  0
LINE
  8
0
 10
313.71
 20
21.0287
 11
313.878
 21
21.2095
  0
LINE
  8
0
 10
313.878
 20
21.2095
 11
314.071
 21
21.3633
  0
LINE
  8
0
 10
314.071
 20
21.3633
 11
314.284
 21
21.4866
  0
LINE
  8
0
 10
314.284
 20
21.4866
 11
314.514
 21
21.5767
  0
LINE
  8
0
 10
314.514
 20
21.5767
 11
314.754
 21
21.6316
  0
LINE
  8
0
 10
314.754
 20
21.6316
 11
315
 21
21.65
  0
LINE
  8
0
 10
315
 20
21.65
 11
315.246
 21
21.6316
  0
LINE
  8
0
 10
315.246
 20
21.6316
 11
315.486
 21
21.5767
  0
LINE
  8
0
 10
315.486
 20
21.5767
 11
315.716
 21
21.4866
  0
LINE
  8
0
 10
315.716
 20
21.4866
 11
315.929
 21
21.3633
  0
LINE
  8
0
 10
315.929
 20
21.3633
 11
316.122
 21
21.2095
  0
LINE
  8
0
 10
316.122
 20
21.2095
 11
316.29
 21
21.0287
  0
LINE
  8
0
 10
316.29
 20
21.0287
 11
316.429
 21
20.825
  0
LINE
  8
0
 10
316.429
 20
20.825
 11
316.536
 21
20.6028
  0
LINE
  8
0
 10
316.536
 20
20.6028
 11
316.609
 21
20.3672
  0
LINE
  8
0
 10
316.609
 20
20.3672
 11
316.645
 21
20.1233
  0
LINE
  8
0
 10
316.645
 20
20.1233
 11
316.645
 21
-20.1233
  0
LINE
  8
0
 10
316.645
 20
-20.1233
 11
316.609
 21
-20.3672
  0
LINE
  8
0
 10
316.609
 20
-20.3672
 11
316.536
 21
-20.6028
  0
LINE
  8
0
 10
316.536
 20
-20.6028
 11
316.429
 21
-20.825
  0
LINE
  8
0
 10
316.429
 20
-20.825
 11
316.29
 21
-21.0287
  0
LINE
  8
0
 10
316.29
 20
-21.0287
 11
316.122
 21
-21.2095
  0
LINE
  8
0
 10
316.122
 20
-21.2095
 11
315.929
 21
-21.3633
  0
LINE
  8
0
 10
315.929
 20
-21.3633
 11
315.716
 21
-21.4866
  0
LINE
  8
0
 10
315.716
 20
-21.4866
 11
315.486
 21
-21.5767
  0
LINE
  8
0
 10
315.486
 20
-21.5767
 11
315.246
 21
-21.6316
  0
LINE
  8
0
 10
315.246
 20
-21.6316
 11
315
 21
-21.65
  0
LINE
  8
0
 10
315
 20
-21.65
 11
314.754
 21
-21.6316
  0
LINE
  8
0
 10
-315.246
 20
-21.6316
 11
-315.486
 21
-21.5767
  0
LINE
  8
0
 10
-315.486
 20
-21.5767
 11
-315.716
 21
-21.4866
  0
LINE
  8
0
 10
-315.716
 20
-21.4866
 11
-315.929
 21
-21.3633
  0
LINE
  8
0
 10
-315.929
 20
-21.3633
 11
-316.122
 21
-21.2095
  0
LINE
  8
0
 10
-316.122
 20
-21.2095
 11
-316.29
 21
-21.0287
  0
LINE
  8
0
 10
-316.29
 20
-21.0287
 11
-316.429
 21
-20.825
  0
LINE
  8
0
 10
-316.429
 20
-20.825
 11
-316.536
 21
-20.6028
  0
LINE
  8
0
 10
-316.536
 20
-20.6028
 11
-316.609
 21
-20.3672
  0
LINE
  8
0
 10
-316.609
 20
-20.3672
 11
-316.645
 21
-20.1233
  0
LINE
  8
0
 10
-316.645
 20
-20.1233
 11
-316.645
 21
20.1233
  0
LINE
  8
0
 10
-316.645
 20
20.1233
 11
-316.609
 21
20.3672
  0
LINE
  8
0
 10
-316.609
 20
20.3672
 11
-316.536
 21
20.6028
  0
LINE
  8
0
 10
-316.536
 20
20.6028
 11
-316.429
 21
20.825
  0
LINE
  8
0
 10
-316.429
 20
20.825
 11
-316.29
 21
21.0287
  0
LINE
  8
0
 10
-316.29
 20
21.0287
 11
-316.122
 21
21.2095
  0
LINE
  8
0
 10
-316.122
 20
21.2095
 11
-315.929
 21
21.3633
  0
LINE
  8
0
 10
-315.929
 20
21.3633
 11
-315.716
 21
21.4866
  0
LINE
  8
0
 10
-315.716
 20
21.4866
 11
-315.486
 21
21.5767
  0
LINE
  8
0
 10
-315.486
 20
21.5767
 11
-315.246
 21
21.6316
  0
LINE
  8
0
 10
-315.246
 20
21.6316
 11
-315
 21
21.65
  0
LINE
  8
0
 10
-315
 20
21.65
 11
-314.754
 21
21.6316
  0
LINE
  8
0
 10
-314.754
 20
21.6316
 11
-314.514
 21
21.5767
  0
LINE
  8
0
 10
-314.514
 20
21.5767
 11
-314.284
 21
21.4866
  0
LINE
  8
0
 10
-314.284
 20
21.4866
 11
-314.071
 21
21.3633
  0
LINE
  8
0
 10
-314.071
 20
21.3633
 11
-313.878
 21
21.2095
  0
LINE
  8
0
 10
-313.878
 20
21.2095
 11
-313.71
 21
21.0287
  0
LINE
  8
0
 10
-313.71
 20
21.0287
 11
-313.571
 21
20.825
  0
LINE
  8
0
 10
-313.571
 20
20.825
 11
-313.464
 21
20.6028
  0
LINE
  8
0
 10
-313.464
 20
20.6028
 11
-313.391
 21
20.3672
  0
LINE
  8
0
 10
-313.391
 20
20.3672
 11
-313.355
 21
20.1233
  0
LINE
  8
0
 10
-313.355
 20
20.1233
 11
-313.355
 21
-20.1233
  0
LINE
  8
0
 10
-313.355
 20
-20.1233
 11
-313.391
 21
-20.3672
  0
LINE
  8
0
 10
-313.391
 20
-20.3672
 11
-313.464
 21
-20.6028
  0
LINE
  8
0
 10
-313.464
 20
-20.6028
 11
-313.571
 21
-20.825
  0
LINE
  8
0
 10
-313.571
 20
-20.825
 11
-313.71
 21
-21.0287
  0
LINE
  8
0
 10
-313.71
 20
-21.0287
 11
-313.878
 21
-21.2095
  0
LINE
  8
0
 10
-313.878
 20
-21.2095
 11
-314.071
 21
-21.3633
  0
LINE
  8
0
 10
-314.071
 20
-21.3633
 11
-314.284
 21
-21.4866
  0
LINE
  8
0
 10
-314.284
 20
-21.4866
 11
-314.514
 21
-21.5767
  0
LINE
  8
0
 10
-314.514
 20
-21.5767
 11
-314.754
 21
-21.6316
  0
LINE
  8
0
 10
-314.754
 20
-21.6316
 11
-315
 21
-21.65
  0
LINE
  8
0
 10
-315
 20
-21.65
 11
-315.246
 21
-21.6316
  0
LINE
  8
0
 10
314.754
 20
-96.5816
 11
314.514
 21
-96.5267
  0
LINE
  8
0
 10
314.514
 20
-96.5267
 11
314.284
 21
-96.4366
  0
LINE
  8
0
 10
314.284
 20
-96.4366
 11
314.071
 21
-96.3133
  0
LINE
  8
0
 10
314.071
 20
-96.3133
 11
313.878
 21
-96.1595
  0
LINE
  8
0
 10
313.878
 20
-96.1595
 11
313.71
 21
-95.9788
  0
LINE
  8
0
 10
313.71
 20
-95.9788
 11
313.571
 21
-95.775
  0
LINE
  8
0
 10
313.571
 20
-95.775
 11
313.464
 21
-95.5528
  0
LINE
  8
0
 10
313.464
 20
-95.5528
 11
313.391
 21
-95.3172
  0
LINE
  8
0
 10
313.391
 20
-95.3172
 11
313.355
 21
-95.0733
  0
LINE
  8
0
 10
313.355
 20
-95.0733
 11
313.355
 21
-54.8267
  0
LINE
  8
0
 10
313.355
 20
-54.8267
 11
313.391
 21
-54.5828
  0
LINE
  8
0
 10
313.391
 20
-54.5828
 11
313.464
 21
-54.3472
  0
LINE
  8
0
 10
313.464
 20
-54.3472
 11
313.571
 21
-54.125
  0
LINE
  8
0
 10
313.571
 20
-54.125
 11
313.71
 21
-53.9212
  0
LINE
  8
0
 10
313.71
 20
-53.9212
 11
313.878
 21
-53.7405
  0
LINE
  8
0
 10
313.878
 20
-53.7405
 11
314.071
 21
-53.5867
  0
LINE
  8
0
 10
314.071
 20
-53.5867
 11
314.284
 21
-53.4634
  0
LINE
  8
0
 10
314.284
 20
-53.4634
 11
314.514
 21
-53.3733
  0
LINE
  8
0
 10
314.514
 20
-53.3733
 11
314.754
 21
-53.3184
  0
LINE
  8
0
 10
314.754
 20
-53.3184
 11
315
 21
-53.3
  0
LINE
  8
0
 10
315
 20
-53.3
 11
315.246
 21
-53.3184
  0
LINE
  8
0
 10
315.246
 20
-53.3184
 11
315.486
 21
-53.3733
  0
LINE
  8
0
 10
315.486
 20
-53.3733
 11
315.716
 21
-53.4634
  0
LINE
  8
0
 10
315.716
 20
-53.4634
 11
315.929
 21
-53.5867
  0
LINE
  8
0
 10
315.929
 20
-53.5867
 11
316.122
 21
-53.7405
  0
LINE
  8
0
 10
316.122
 20
-53.7405
 11
316.29
 21
-53.9212
  0
LINE
  8
0
 10
316.29
 20
-53.9212
 11
316.429
 21
-54.125
  0
LINE
  8
0
 10
316.429
 20
-54.125
 11
316.536
 21
-54.3472
  0
LINE
  8
0
 10
316.536
 20
-54.3472
 11
316.609
 21
-54.5828
  0
LINE
  8
0
 10
316.609
 20
-54.5828
 11
316.645
 21
-54.8267
  0
LINE
  8
0
 10
316.645
 20
-54.8267
 11
316.645
 21
-95.0733
  0
LINE
  8
0
 10
316.645
 20
-95.0733
 11
316.609
 21
-95.3172
  0
LINE
  8
0
 10
316.609
 20
-95.3172
 11
316.536
 21
-95.5528
  0
LINE
  8
0
 10
316.536
 20
-95.5528
 11
316.429
 21
-95.775
  0
LINE
  8
0
 10
316.429
 20
-95.775
 11
316.29
 21
-95.9788
  0
LINE
  8
0
 10
316.29
 20
-95.9788
 11
316.122
 21
-96.1595
  0
LINE
  8
0
 10
316.122
 20
-96.1595
 11
315.929
 21
-96.3133
  0
LINE
  8
0
 10
315.929
 20
-96.3133
 11
315.716
 21
-96.4366
  0
LINE
  8
0
 10
315.716
 20
-96.4366
 11
315.486
 21
-96.5267
  0
LINE
  8
0
 10
315.486
 20
-96.5267
 11
315.246
 21
-96.5816
  0
LINE
  8
0
 10
315.246
 20
-96.5816
 11
315
 21
-96.6
  0
LINE
  8
0
 10
315
 20
-96.6
 11
314.754
 21
-96.5816
  0
LINE
  8
0
 10
-315.246
 20
-96.5816
 11
-315.486
 21
-96.5267
  0
LINE
  8
0
 10
-315.486
 20
-96.5267
 11
-315.716
 21
-96.4366
  0
LINE
  8
0
 10
-315.716
 20
-96.4366
 11
-315.929
 21
-96.3133
  0
LINE
  8
0
 10
-315.929
 20
-96.3133
 11
-316.122
 21
-96.1595
  0
LINE
  8
0
 10
-316.122
 20
-96.1595
 11
-316.29
 21
-95.9788
  0
LINE
  8
0
 10
-316.29
 20
-95.9788
 11
-316.429
 21
-95.775
  0
LINE
  8
0
 10
-316.429
 20
-95.775
 11
-316.536
 21
-95.5528
  0
LINE
  8
0
 10
-316.536
 20
-95.5528
 11
-316.609
 21
-95.3172
  0
LINE
  8
0
 10
-316.609
 20
-95.3172
 11
-316.645
 21
-95.0733
  0
LINE
  8
0
 10
-316.645
 20
-95.0733
 11
-316.645
 21
-54.8267
  0
LINE
  8
0
 10
-316.645
 20
-54.8267
 11
-316.609
 21
-54.5828
  0
LINE
  8
0
 10
-316.609
 20
-54.5828
 11
-316.536
 21
-54.3472
  0
LINE
  8
0
 10
-316.536
 20
-54.3472
 11
-316.429
 21
-54.125
  0
LINE
  8
0
 10
-316.429
 20
-54.125
 11
-316.29
 21
-53.9212
  0
LINE
  8
0
 10
-316.29
 20
-53.9212
 11
-316.122
 21
-53.7405
  0
LINE
  8
0
 10
-316.122
 20
-53.7405
 11
-315.929
 21
-53.5867
  0
LINE
  8
0
 10
-315.929
 20
-53.5867
 11
-315.716
 21
-53.4634
  0
LINE
  8
0
 10
-315.716
 20
-53.4634
 11
-315.486
 21
-53.3733
  0
LINE
  8
0
 10
-315.486
 20
-53.3733
 11
-315.246
 21
-53.3184
  0
LINE
  8
0
 10
-315.246
 20
-53.3184
 11
-315
 21
-53.3
  0
LINE
  8
0
 10
-315
 20
-53.3
 11
-314.754
 21
-53.3184
  0
LINE
  8
0
 10
-314.754
 20
-53.3184
 11
-314.514
 21
-53.3733
  0
LINE
  8
0
 10
-314.514
 20
-53.3733
 11
-314.284
 21
-53.4634
  0
LINE
  8
0
 10
-314.284
 20
-53.4634
 11
-314.071
 21
-53.5867
  0
LINE
  8
0
 10
-314.071
 20
-53.5867
 11
-313.878
 21
-53.7405
  0
LINE
  8
0
 10
-313.878
 20
-53.7405
 11
-313.71
 21
-53.9212
  0
LINE
  8
0
 10
-313.71
 20
-53.9212
 11
-313.571
 21
-54.125
  0
LINE
  8
0
 10
-313.571
 20
-54.125
 11
-313.464
 21
-54.3472
  0
LINE
  8
0
 10
-313.464
 20
-54.3472
 11
-313.391
 21
-54.5828
  0
LINE
  8
0
 10
-313.391
 20
-54.5828
 11
-313.355
 21
-54.8267
  0
LINE
  8
0
 10
-313.355
 20
-54.8267
 11
-313.355
 21
-95.0733
  0
LINE
  8
0
 10
-313.355
 20
-95.0733
 11
-313.391
 21
-95.3172
  0
LINE
  8
0
 10
-313.391
 20
-95.3172
 11
-313.464
 21
-95.5528
  0
LINE
  8
0
 10
-313.464
 20
-95.5528
 11
-313.571
 21
-95.775
  0
LINE
  8
0
 10
-313.571
 20
-95.775
 11
-313.71
 21
-95.9788
  0
LINE
  8
0
 10
-313.71
 20
-95.9788
 11
-313.878
 21
-96.1595
  0
LINE
  8
0
 10
-313.878
 20
-96.1595
 11
-314.071
 21
-96.3133
  0
LINE
  8
0
 10
-314.071
 20
-96.3133
 11
-314.284
 21
-96.4366
  0
LINE
  8
0
 10
-314.284
 20
-96.4366
 11
-314.514
 21
-96.5267
  0
LINE
  8
0
 10
-314.514
 20
-96.5267
 11
-314.754
 21
-96.5816
  0
LINE
  8
0
 10
-314.754
 20
-96.5816
 11
-315
 21
-96.6
  0
LINE
  8
0
 10
-315
 20
-96.6
 11
-315.246
 21
-96.5816
  0
LINE
  8
0
 10
-315.523
 20
-119.923
 11
-316.04
 21
-119.841
  0
LINE
  8
0
 10
-316.04
 20
-119.841
 11
-316.545
 21
-119.705
  0
LINE
  8
0
 10
-316.545
 20
-119.705
 11
-317.034
 21
-119.518
  0
LINE
  8
0
 10
-317.034
 20
-119.518
 11
-317.5
 21
-119.28
  0
LINE
  8
0
 10
-317.5
 20
-119.28
 11
-317.939
 21
-118.995
  0
LINE
  8
0
 10
-317.939
 20
-118.995
 11
-318.346
 21
-118.666
  0
LINE
  8
0
 10
-318.346
 20
-118.666
 11
-318.716
 21
-118.296
  0
LINE
  8
0
 10
-318.716
 20
-118.296
 11
-319.045
 21
-117.889
  0
LINE
  8
0
 10
-319.045
 20
-117.889
 11
-319.33
 21
-117.45
  0
LINE
  8
0
 10
-319.33
 20
-117.45
 11
-319.568
 21
-116.984
  0
LINE
  8
0
 10
-319.568
 20
-116.984
 11
-319.755
 21
-116.495
  0
LINE
  8
0
 10
-319.755
 20
-116.495
 11
-319.891
 21
-115.99
  0
LINE
  8
0
 10
-319.891
 20
-115.99
 11
-319.973
 21
-115.473
  0
LINE
  8
0
 10
-319.973
 20
-115.473
 11
-320
 21
-114.95
  0
LINE
  8
0
 10
-320
 20
-114.95
 11
-319.973
 21
-114.427
  0
LINE
  8
0
 10
-319.973
 20
-114.427
 11
-319.891
 21
-113.91
  0
LINE
  8
0
 10
-319.891
 20
-113.91
 11
-319.755
 21
-113.405
  0
LINE
  8
0
 10
-319.755
 20
-113.405
 11
-319.568
 21
-112.916
  0
LINE
  8
0
 10
-319.568
 20
-112.916
 11
-319.33
 21
-112.45
  0
LINE
  8
0
 10
-319.33
 20
-112.45
 11
-319.045
 21
-112.011
  0
LINE
  8
0
 10
-319.045
 20
-112.011
 11
-318.716
 21
-111.604
  0
LINE
  8
0
 10
-318.716
 20
-111.604
 11
-318.346
 21
-111.234
  0
LINE
  8
0
 10
-318.346
 20
-111.234
 11
-317.939
 21
-110.905
  0
LINE
  8
0
 10
-317.939
 20
-110.905
 11
-317.5
 21
-110.62
  0
LINE
  8
0
 10
-317.5
 20
-110.62
 11
-317.034
 21
-110.382
  0
LINE
  8
0
 10
-317.034
 20
-110.382
 11
-316.545
 21
-110.195
  0
LINE
  8
0
 10
-316.545
 20
-110.195
 11
-316.04
 21
-110.059
  0
LINE
  8
0
 10
-316.04
 20
-110.059
 11
-315.523
 21
-109.977
  0
LINE
  8
0
 10
-315.523
 20
-109.977
 11
-315
 21
-109.95
  0
LINE
  8
0
 10
-315
 20
-109.95
 11
-314.477
 21
-109.977
  0
LINE
  8
0
 10
-314.477
 20
-109.977
 11
-313.96
 21
-110.059
  0
LINE
  8
0
 10
-313.96
 20
-110.059
 11
-313.455
 21
-110.195
  0
LINE
  8
0
 10
-313.455
 20
-110.195
 11
-312.966
 21
-110.382
  0
LINE
  8
0
 10
-312.966
 20
-110.382
 11
-312.5
 21
-110.62
  0
LINE
  8
0
 10
-312.5
 20
-110.62
 11
-312.061
 21
-110.905
  0
LINE
  8
0
 10
-312.061
 20
-110.905
 11
-311.654
 21
-111.234
  0
LINE
  8
0
 10
-311.654
 20
-111.234
 11
-311.284
 21
-111.604
  0
LINE
  8
0
 10
-311.284
 20
-111.604
 11
-310.955
 21
-112.011
  0
LINE
  8
0
 10
-310.955
 20
-112.011
 11
-310.67
 21
-112.45
  0
LINE
  8
0
 10
-310.67
 20
-112.45
 11
-310.432
 21
-112.916
  0
LINE
  8
0
 10
-310.432
 20
-112.916
 11
-310.245
 21
-113.405
  0
LINE
  8
0
 10
-310.245
 20
-113.405
 11
-310.109
 21
-113.91
  0
LINE
  8
0
 10
-310.109
 20
-113.91
 11
-310.027
 21
-114.427
  0
LINE
  8
0
 10
-310.027
 20
-114.427
 11
-310
 21
-114.95
  0
LINE
  8
0
 10
-310
 20
-114.95
 11
-310.027
 21
-115.473
  0
LINE
  8
0
 10
-310.027
 20
-115.473
 11
-310.109
 21
-115.99
  0
LINE
  8
0
 10
-310.109
 20
-115.99
 11
-310.245
 21
-116.495
  0
LINE
  8
0
 10
-310.245
 20
-116.495
 11
-310.432
 21
-116.984
  0
LINE
  8
0
 10
-310.432
 20
-116.984
 11
-310.67
 21
-117.45
  0
LINE
  8
0
 10
-310.67
 20
-117.45
 11
-310.955
 21
-117.889
  0
LINE
  8
0
 10
-310.955
 20
-117.889
 11
-311.284
 21
-118.296
  0
LINE
  8
0
 10
-311.284
 20
-118.296
 11
-311.654
 21
-118.666
  0
LINE
  8
0
 10
-311.654
 20
-118.666
 11
-312.061
 21
-118.995
  0
LINE
  8
0
 10
-312.061
 20
-118.995
 11
-312.5
 21
-119.28
  0
LINE
  8
0
 10
-312.5
 20
-119.28
 11
-312.966
 21
-119.518
  0
LINE
  8
0
 10
-312.966
 20
-119.518
 11
-313.455
 21
-119.705
  0
LINE
  8
0
 10
-313.455
 20
-119.705
 11
-313.96
 21
-119.841
  0
LINE
  8
0
 10
-313.96
 20
-119.841
 11
-314.477
 21
-119.923
  0
LINE
  8
0
 10
-314.477
 20
-119.923
 11
-315
 21
-119.95
  0
LINE
  8
0
 10
-315
 20
-119.95
 11
-315.523
 21
-119.923
  0
LINE
  8
0
 10
314.477
 20
-119.923
 11
313.96
 21
-119.841
  0
LINE
  8
0
 10
313.96
 20
-119.841
 11
313.455
 21
-119.705
  0
LINE
  8
0
 10
313.455
 20
-119.705
 11
312.966
 21
-119.518
  0
LINE
  8
0
 10
312.966
 20
-119.518
 11
312.5
 21
-119.28
  0
LINE
  8
0
 10
312.5
 20
-119.28
 11
312.061
 21
-118.995
  0
LINE
  8
0
 10
312.061
 20
-118.995
 11
311.654
 21
-118.666
  0
LINE
  8
0
 10
311.654
 20
-118.666
 11
311.284
 21
-118.296
  0
LINE
  8
0
 10
311.284
 20
-118.296
 11
310.955
 21
-117.889
  0
LINE
  8
0
 10
310.955
 20
-117.889
 11
310.67
 21
-117.45
  0
LINE
  8
0
 10
310.67
 20
-117.45
 11
310.432
 21
-116.984
  0
LINE
  8
0
 10
310.432
 20
-116.984
 11
310.245
 21
-116.495
  0
LINE
  8
0
 10
310.245
 20
-116.495
 11
310.109
 21
-115.99
  0
LINE
  8
0
 10
310.109
 20
-115.99
 11
310.027
 21
-115.473
  0
LINE
  8
0
 10
310.027
 20
-115.473
 11
310
 21
-114.95
  0
LINE
  8
0
 10
310
 20
-114.95
 11
310.027
 21
-114.427
  0
LINE
  8
0
 10
310.027
 20
-114.427
 11
310.109
 21
-113.91
  0
LINE
  8
0
 10
310.109
 20
-113.91
 11
310.245
 21
-113.405
  0
LINE
  8
0
 10
310.245
 20
-113.405
 11
310.432
 21
-112.916
  0
LINE
  8
0
 10
310.432
 20
-112.916
 11
310.67
 21
-112.45
  0
LINE
  8
0
 10
310.67
 20
-112.45
 11
310.955
 21
-112.011
  0
LINE
  8
0
 10
310.955
 20
-112.011
 11
311.284
 21
-111.604
  0
LINE
  8
0
 10
311.284
 20
-111.604
 11
311.654
 21
-111.234
  0
LINE
  8
0
 10
311.654
 20
-111.234
 11
312.061
 21
-110.905
  0
LINE
  8
0
 10
312.061
 20
-110.905
 11
312.5
 21
-110.62
  0
LINE
  8
0
 10
312.5
 20
-110.62
 11
312.966
 21
-110.382
  0
LINE
  8
0
 10
312.966
 20
-110.382
 11
313.455
 21
-110.195
  0
LINE
  8
0
 10
313.455
 20
-110.195
 11
313.96
 21
-110.059
  0
LINE
  8
0
 10
313.96
 20
-110.059
 11
314.477
 21
-109.977
  0
LINE
  8
0
 10
314.477
 20
-109.977
 11
315
 21
-109.95
  0
LINE
  8
0
 10
315
 20
-109.95
 11
315.523
 21
-109.977
  0
LINE
  8
0
 10
315.523
 20
-109.977
 11
316.04
 21
-110.059
  0
LINE
  8
0
 10
316.04
 20
-110.059
 11
316.545
 21
-110.195
  0
LINE
  8
0
 10
316.545
 20
-110.195
 11
317.034
 21
-110.382
  0
LINE
  8
0
 10
317.034
 20
-110.382
 11
317.5
 21
-110.62
  0
LINE
  8
0
 10
317.5
 20
-110.62
 11
317.939
 21
-110.905
  0
LINE
  8
0
 10
317.939
 20
-110.905
 11
318.346
 21
-111.234
  0
LINE
  8
0
 10
318.346
 20
-111.234
 11
318.716
 21
-111.604
  0
LINE
  8
0
 10
318.716
 20
-111.604
 11
319.045
 21
-112.011
  0
LINE
  8
0
 10
319.045
 20
-112.011
 11
319.33
 21
-112.45
  0
LINE
  8
0
 10
319.33
 20
-112.45
 11
319.568
 21
-112.916
  0
LINE
  8
0
 10
319.568
 20
-112.916
 11
319.755
 21
-113.405
  0
LINE
  8
0
 10
319.755
 20
-113.405
 11
319.891
 21
-113.91
  0
LINE
  8
0
 10
319.891
 20
-113.91
 11
319.973
 21
-114.427
  0
LINE
  8
0
 10
319.973
 20
-114.427
 11
320
 21
-114.95
  0
LINE
  8
0
 10
320
 20
-114.95
 11
319.973
 21
-115.473
  0
LINE
  8
0
 10
319.973
 20
-115.473
 11
319.891
 21
-115.99
  0
LINE
  8
0
 10
319.891
 20
-115.99
 11
319.755
 21
-116.495
  0
LINE
  8
0
 10
319.755
 20
-116.495
 11
319.568
 21
-116.984
  0
LINE
  8
0
 10
319.568
 20
-116.984
 11
319.33
 21
-117.45
  0
LINE
  8
0
 10
319.33
 20
-117.45
 11
319.045
 21
-117.889
  0
LINE
  8
0
 10
319.045
 20
-117.889
 11
318.716
 21
-118.296
  0
LINE
  8
0
 10
318.716
 20
-118.296
 11
318.346
 21
-118.666
  0
LINE
  8
0
 10
318.346
 20
-118.666
 11
317.939
 21
-118.995
  0
LINE
  8
0
 10
317.939
 20
-118.995
 11
317.5
 21
-119.28
  0
LINE
  8
0
 10
317.5
 20
-119.28
 11
317.034
 21
-119.518
  0
LINE
  8
0
 10
317.034
 20
-119.518
 11
316.545
 21
-119.705
  0
LINE
  8
0
 10
316.545
 20
-119.705
 11
316.04
 21
-119.841
  0
LINE
  8
0
 10
316.04
 20
-119.841
 11
315.523
 21
-119.923
  0
LINE
  8
0
 10
315.523
 20
-119.923
 11
315
 21
-119.95
  0
LINE
  8
0
 10
315
 20
-119.95
 11
314.477
 21
-119.923
  0
LINE
  8
0
 10
254.877
 20
-116.595
 11
254.633
 21
-116.559
  0
LINE
  8
0
 10
254.633
 20
-116.559
 11
254.397
 21
-116.486
  0
LINE
  8
0
 10
254.397
 20
-116.486
 11
254.175
 21
-116.379
  0
LINE
  8
0
 10
254.175
 20
-116.379
 11
253.971
 21
-116.24
  0
LINE
  8
0
 10
253.971
 20
-116.24
 11
253.79
 21
-116.072
  0
LINE
  8
0
 10
253.79
 20
-116.072
 11
253.637
 21
-115.879
  0
LINE
  8
0
 10
253.637
 20
-115.879
 11
253.513
 21
-115.666
  0
LINE
  8
0
 10
253.513
 20
-115.666
 11
253.423
 21
-115.436
  0
LINE
  8
0
 10
253.423
 20
-115.436
 11
253.368
 21
-115.196
  0
LINE
  8
0
 10
253.368
 20
-115.196
 11
253.35
 21
-114.95
  0
LINE
  8
0
 10
253.35
 20
-114.95
 11
253.368
 21
-114.704
  0
LINE
  8
0
 10
253.368
 20
-114.704
 11
253.423
 21
-114.464
  0
LINE
  8
0
 10
253.423
 20
-114.464
 11
253.513
 21
-114.234
  0
LINE
  8
0
 10
253.513
 20
-114.234
 11
253.637
 21
-114.021
  0
LINE
  8
0
 10
253.637
 20
-114.021
 11
253.79
 21
-113.828
  0
LINE
  8
0
 10
253.79
 20
-113.828
 11
253.971
 21
-113.66
  0
LINE
  8
0
 10
253.971
 20
-113.66
 11
254.175
 21
-113.521
  0
LINE
  8
0
 10
254.175
 20
-113.521
 11
254.397
 21
-113.414
  0
LINE
  8
0
 10
254.397
 20
-113.414
 11
254.633
 21
-113.341
  0
LINE
  8
0
 10
254.633
 20
-113.341
 11
254.877
 21
-113.305
  0
LINE
  8
0
 10
254.877
 20
-113.305
 11
295.123
 21
-113.305
  0
LINE
  8
0
 10
295.123
 20
-113.305
 11
295.367
 21
-113.341
  0
LINE
  8
0
 10
295.367
 20
-113.341
 11
295.603
 21
-113.414
  0
LINE
  8
0
 10
295.603
 20
-113.414
 11
295.825
 21
-113.521
  0
LINE
  8
0
 10
295.825
 20
-113.521
 11
296.029
 21
-113.66
  0
LINE
  8
0
 10
296.029
 20
-113.66
 11
296.21
 21
-113.828
  0
LINE
  8
0
 10
296.21
 20
-113.828
 11
296.363
 21
-114.021
  0
LINE
  8
0
 10
296.363
 20
-114.021
 11
296.487
 21
-114.234
  0
LINE
  8
0
 10
296.487
 20
-114.234
 11
296.577
 21
-114.464
  0
LINE
  8
0
 10
296.577
 20
-114.464
 11
296.632
 21
-114.704
  0
LINE
  8
0
 10
296.632
 20
-114.704
 11
296.65
 21
-114.95
  0
LINE
  8
0
 10
296.65
 20
-114.95
 11
296.632
 21
-115.196
  0
LINE
  8
0
 10
296.632
 20
-115.196
 11
296.577
 21
-115.436
  0
LINE
  8
0
 10
296.577
 20
-115.436
 11
296.487
 21
-115.666
  0
LINE
  8
0
 10
296.487
 20
-115.666
 11
296.363
 21
-115.879
  0
LINE
  8
0
 10
296.363
 20
-115.879
 11
296.21
 21
-116.072
  0
LINE
  8
0
 10
296.21
 20
-116.072
 11
296.029
 21
-116.24
  0
LINE
  8
0
 10
296.029
 20
-116.24
 11
295.825
 21
-116.379
  0
LINE
  8
0
 10
295.825
 20
-116.379
 11
295.603
 21
-116.486
  0
LINE
  8
0
 10
295.603
 20
-116.486
 11
295.367
 21
-116.559
  0
LINE
  8
0
 10
295.367
 20
-116.559
 11
295.123
 21
-116.595
  0
LINE
  8
0
 10
295.123
 20
-116.595
 11
254.877
 21
-116.595
  0
LINE
  8
0
 10
-203.457
 20
-116.595
 11
-203.701
 21
-116.559
  0
LINE
  8
0
 10
-203.701
 20
-116.559
 11
-203.936
 21
-116.486
  0
LINE
  8
0
 10
-203.936
 20
-116.486
 11
-204.158
 21
-116.379
  0
LINE
  8
0
 10
-204.158
 20
-116.379
 11
-204.362
 21
-116.24
  0
LINE
  8
0
 10
-204.362
 20
-116.24
 11
-204.543
 21
-116.072
  0
LINE
  8
0
 10
-204.543
 20
-116.072
 11
-204.697
 21
-115.879
  0
LINE
  8
0
 10
-204.697
 20
-115.879
 11
-204.82
 21
-115.666
  0
LINE
  8
0
 10
-204.82
 20
-115.666
 11
-204.91
 21
-115.436
  0
LINE
  8
0
 10
-204.91
 20
-115.436
 11
-204.965
 21
-115.196
  0
LINE
  8
0
 10
-204.965
 20
-115.196
 11
-204.983
 21
-114.95
  0
LINE
  8
0
 10
-204.983
 20
-114.95
 11
-204.965
 21
-114.704
  0
LINE
  8
0
 10
-204.965
 20
-114.704
 11
-204.91
 21
-114.464
  0
LINE
  8
0
 10
-204.91
 20
-114.464
 11
-204.82
 21
-114.234
  0
LINE
  8
0
 10
-204.82
 20
-114.234
 11
-204.697
 21
-114.021
  0
LINE
  8
0
 10
-204.697
 20
-114.021
 11
-204.543
 21
-113.828
  0
LINE
  8
0
 10
-204.543
 20
-113.828
 11
-204.362
 21
-113.66
  0
LINE
  8
0
 10
-204.362
 20
-113.66
 11
-204.158
 21
-113.521
  0
LINE
  8
0
 10
-204.158
 20
-113.521
 11
-203.936
 21
-113.414
  0
LINE
  8
0
 10
-203.936
 20
-113.414
 11
-203.701
 21
-113.341
  0
LINE
  8
0
 10
-203.701
 20
-113.341
 11
-203.457
 21
-113.305
  0
LINE
  8
0
 10
-203.457
 20
-113.305
 11
-163.21
 21
-113.305
  0
LINE
  8
0
 10
-163.21
 20
-113.305
 11
-162.966
 21
-113.341
  0
LINE
  8
0
 10
-162.966
 20
-113.341
 11
-162.731
 21
-113.414
  0
LINE
  8
0
 10
-162.731
 20
-113.414
 11
-162.508
 21
-113.521
  0
LINE
  8
0
 10
-162.508
 20
-113.521
 11
-162.305
 21
-113.66
  0
LINE
  8
0
 10
-162.305
 20
-113.66
 11
-162.124
 21
-113.828
  0
LINE
  8
0
 10
-162.124
 20
-113.828
 11
-161.97
 21
-114.021
  0
LINE
  8
0
 10
-161.97
 20
-114.021
 11
-161.847
 21
-114.234
  0
LINE
  8
0
 10
-161.847
 20
-114.234
 11
-161.757
 21
-114.464
  0
LINE
  8
0
 10
-161.757
 20
-114.464
 11
-161.702
 21
-114.704
  0
LINE
  8
0
 10
-161.702
 20
-114.704
 11
-161.683
 21
-114.95
  0
LINE
  8
0
 10
-161.683
 20
-114.95
 11
-161.702
 21
-115.196
  0
LINE
  8
0
 10
-161.702
 20
-115.196
 11
-161.757
 21
-115.436
  0
LINE
  8
0
 10
-161.757
 20
-115.436
 11
-161.847
 21
-115.666
  0
LINE
  8
0
 10
-161.847
 20
-115.666
 11
-161.97
 21
-115.879
  0
LINE
  8
0
 10
-161.97
 20
-115.879
 11
-162.124
 21
-116.072
  0
LINE
  8
0
 10
-162.124
 20
-116.072
 11
-162.305
 21
-116.24
  0
LINE
  8
0
 10
-162.305
 20
-116.24
 11
-162.508
 21
-116.379
  0
LINE
  8
0
 10
-162.508
 20
-116.379
 11
-162.731
 21
-116.486
  0
LINE
  8
0
 10
-162.731
 20
-116.486
 11
-162.966
 21
-116.559
  0
LINE
  8
0
 10
-162.966
 20
-116.559
 11
-163.21
 21
-116.595
  0
LINE
  8
0
 10
-163.21
 20
-116.595
 11
-203.457
 21
-116.595
  0
LINE
  8
0
 10
-111.79
 20
-116.595
 11
-112.034
 21
-116.559
  0
LINE
  8
0
 10
-112.034
 20
-116.559
 11
-112.269
 21
-116.486
  0
LINE
  8
0
 10
-112.269
 20
-116.486
 11
-112.492
 21
-116.379
  0
LINE
  8
0
 10
-112.492
 20
-116.379
 11
-112.695
 21
-116.24
  0
LINE
  8
0
 10
-112.695
 20
-116.24
 11
-112.876
 21
-116.072
  0
LINE
  8
0
 10
-112.876
 20
-116.072
 11
-113.03
 21
-115.879
  0
LINE
  8
0
 10
-113.03
 20
-115.879
 11
-113.153
 21
-115.666
  0
LINE
  8
0
 10
-113.153
 20
-115.666
 11
-113.243
 21
-115.436
  0
LINE
  8
0
 10
-113.243
 20
-115.436
 11
-113.298
 21
-115.196
  0
LINE
  8
0
 10
-113.298
 20
-115.196
 11
-113.317
 21
-114.95
  0
LINE
  8
0
 10
-113.317
 20
-114.95
 11
-113.298
 21
-114.704
  0
LINE
  8
0
 10
-113.298
 20
-114.704
 11
-113.243
 21
-114.464
  0
LINE
  8
0
 10
-113.243
 20
-114.464
 11
-113.153
 21
-114.234
  0
LINE
  8
0
 10
-113.153
 20
-114.234
 11
-113.03
 21
-114.021
  0
LINE
  8
0
 10
-113.03
 20
-114.021
 11
-112.876
 21
-113.828
  0
LINE
  8
0
 10
-112.876
 20
-113.828
 11
-112.695
 21
-113.66
  0
LINE
  8
0
 10
-112.695
 20
-113.66
 11
-112.492
 21
-113.521
  0
LINE
  8
0
 10
-112.492
 20
-113.521
 11
-112.269
 21
-113.414
  0
LINE
  8
0
 10
-112.269
 20
-113.414
 11
-112.034
 21
-113.341
  0
LINE
  8
0
 10
-112.034
 20
-113.341
 11
-111.79
 21
-113.305
  0
LINE
  8
0
 10
-111.79
 20
-113.305
 11
-71.5434
 21
-113.305
  0
LINE
  8
0
 10
-71.5434
 20
-113.305
 11
-71.2995
 21
-113.341
  0
LINE
  8
0
 10
-71.2995
 20
-113.341
 11
-71.0638
 21
-113.414
  0
LINE
  8
0
 10
-71.0638
 20
-113.414
 11
-70.8417
 21
-113.521
  0
LINE
  8
0
 10
-70.8417
 20
-113.521
 11
-70.6379
 21
-113.66
  0
LINE
  8
0
 10
-70.6379
 20
-113.66
 11
-70.4571
 21
-113.828
  0
LINE
  8
0
 10
-70.4571
 20
-113.828
 11
-70.3034
 21
-114.021
  0
LINE
  8
0
 10
-70.3034
 20
-114.021
 11
-70.1801
 21
-114.234
  0
LINE
  8
0
 10
-70.1801
 20
-114.234
 11
-70.09
 21
-114.464
  0
LINE
  8
0
 10
-70.09
 20
-114.464
 11
-70.0351
 21
-114.704
  0
LINE
  8
0
 10
-70.0351
 20
-114.704
 11
-70.0167
 21
-114.95
  0
LINE
  8
0
 10
-70.0167
 20
-114.95
 11
-70.0351
 21
-115.196
  0
LINE
  8
0
 10
-70.0351
 20
-115.196
 11
-70.09
 21
-115.436
  0
LINE
  8
0
 10
-70.09
 20
-115.436
 11
-70.1801
 21
-115.666
  0
LINE
  8
0
 10
-70.1801
 20
-115.666
 11
-70.3034
 21
-115.879
  0
LINE
  8
0
 10
-70.3034
 20
-115.879
 11
-70.4571
 21
-116.072
  0
LINE
  8
0
 10
-70.4571
 20
-116.072
 11
-70.6379
 21
-116.24
  0
LINE
  8
0
 10
-70.6379
 20
-116.24
 11
-70.8417
 21
-116.379
  0
LINE
  8
0
 10
-70.8417
 20
-116.379
 11
-71.0638
 21
-116.486
  0
LINE
  8
0
 10
-71.0638
 20
-116.486
 11
-71.2995
 21
-116.559
  0
LINE
  8
0
 10
-71.2995
 20
-116.559
 11
-71.5434
 21
-116.595
  0
LINE
  8
0
 10
-71.5434
 20
-116.595
 11
-111.79
 21
-116.595
  0
LINE
  8
0
 10
-20.1233
 20
-116.595
 11
-20.3672
 21
-116.559
  0
LINE
  8
0
 10
-20.3672
 20
-116.559
 11
-20.6028
 21
-116.486
  0
LINE
  8
0
 10
-20.6028
 20
-116.486
 11
-20.825
 21
-116.379
  0
LINE
  8
0
 10
-20.825
 20
-116.379
 11
-21.0287
 21
-116.24
  0
LINE
  8
0
 10
-21.0287
 20
-116.24
 11
-21.2095
 21
-116.072
  0
LINE
  8
0
 10
-21.2095
 20
-116.072
 11
-21.3633
 21
-115.879
  0
LINE
  8
0
 10
-21.3633
 20
-115.879
 11
-21.4866
 21
-115.666
  0
LINE
  8
0
 10
-21.4866
 20
-115.666
 11
-21.5767
 21
-115.436
  0
LINE
  8
0
 10
-21.5767
 20
-115.436
 11
-21.6316
 21
-115.196
  0
LINE
  8
0
 10
-21.6316
 20
-115.196
 11
-21.65
 21
-114.95
  0
LINE
  8
0
 10
-21.65
 20
-114.95
 11
-21.6316
 21
-114.704
  0
LINE
  8
0
 10
-21.6316
 20
-114.704
 11
-21.5767
 21
-114.464
  0
LINE
  8
0
 10
-21.5767
 20
-114.464
 11
-21.4866
 21
-114.234
  0
LINE
  8
0
 10
-21.4866
 20
-114.234
 11
-21.3633
 21
-114.021
  0
LINE
  8
0
 10
-21.3633
 20
-114.021
 11
-21.2095
 21
-113.828
  0
LINE
  8
0
 10
-21.2095
 20
-113.828
 11
-21.0287
 21
-113.66
  0
LINE
  8
0
 10
-21.0287
 20
-113.66
 11
-20.825
 21
-113.521
  0
LINE
  8
0
 10
-20.825
 20
-113.521
 11
-20.6028
 21
-113.414
  0
LINE
  8
0
 10
-20.6028
 20
-113.414
 11
-20.3672
 21
-113.341
  0
LINE
  8
0
 10
-20.3672
 20
-113.341
 11
-20.1233
 21
-113.305
  0
LINE
  8
0
 10
-20.1233
 20
-113.305
 11
20.1233
 21
-113.305
  0
LINE
  8
0
 10
20.1233
 20
-113.305
 11
20.3672
 21
-113.341
  0
LINE
  8
0
 10
20.3672
 20
-113.341
 11
20.6028
 21
-113.414
  0
LINE
  8
0
 10
20.6028
 20
-113.414
 11
20.825
 21
-113.521
  0
LINE
  8
0
 10
20.825
 20
-113.521
 11
21.0287
 21
-113.66
  0
LINE
  8
0
 10
21.0287
 20
-113.66
 11
21.2095
 21
-113.828
  0
LINE
  8
0
 10
21.2095
 20
-113.828
 11
21.3633
 21
-114.021
  0
LINE
  8
0
 10
21.3633
 20
-114.021
 11
21.4866
 21
-114.234
  0
LINE
  8
0
 10
21.4866
 20
-114.234
 11
21.5767
 21
-114.464
  0
LINE
  8
0
 10
21.5767
 20
-114.464
 11
21.6316
 21
-114.704
  0
LINE
  8
0
 10
21.6316
 20
-114.704
 11
21.65
 21
-114.95
  0
LINE
  8
0
 10
21.65
 20
-114.95
 11
21.6316
 21
-115.196
  0
LINE
  8
0
 10
21.6316
 20
-115.196
 11
21.5767
 21
-115.436
  0
LINE
  8
0
 10
21.5767
 20
-115.436
 11
21.4866
 21
-115.666
  0
LINE
  8
0
 10
21.4866
 20
-115.666
 11
21.3633
 21
-115.879
  0
LINE
  8
0
 10
21.3633
 20
-115.879
 11
21.2095
 21
-116.072
  0
LINE
  8
0
 10
21.2095
 20
-116.072
 11
21.0287
 21
-116.24
  0
LINE
  8
0
 10
21.0287
 20
-116.24
 11
20.825
 21
-116.379
  0
LINE
  8
0
 10
20.825
 20
-116.379
 11
20.6028
 21
-116.486
  0
LINE
  8
0
 10
20.6028
 20
-116.486
 11
20.3672
 21
-116.559
  0
LINE
  8
0
 10
20.3672
 20
-116.559
 11
20.1233
 21
-116.595
  0
LINE
  8
0
 10
20.1233
 20
-116.595
 11
-20.1233
 21
-116.595
  0
LINE
  8
0
 10
71.5434
 20
-116.595
 11
71.2995
 21
-116.559
  0
LINE
  8
0
 10
71.2995
 20
-116.559
 11
71.0638
 21
-116.486
  0
LINE
  8
0
 10
71.0638
 20
-116.486
 11
70.8417
 21
-116.379
  0
LINE
  8
0
 10
70.8417
 20
-116.379
 11
70.6379
 21
-116.24
  0
LINE
  8
0
 10
70.6379
 20
-116.24
 11
70.4571
 21
-116.072
  0
LINE
  8
0
 10
70.4571
 20
-116.072
 11
70.3034
 21
-115.879
  0
LINE
  8
0
 10
70.3034
 20
-115.879
 11
70.1801
 21
-115.666
  0
LINE
  8
0
 10
70.1801
 20
-115.666
 11
70.09
 21
-115.436
  0
LINE
  8
0
 10
70.09
 20
-115.436
 11
70.0351
 21
-115.196
  0
LINE
  8
0
 10
70.0351
 20
-115.196
 11
70.0167
 21
-114.95
  0
LINE
  8
0
 10
70.0167
 20
-114.95
 11
70.0351
 21
-114.704
  0
LINE
  8
0
 10
70.0351
 20
-114.704
 11
70.09
 21
-114.464
  0
LINE
  8
0
 10
70.09
 20
-114.464
 11
70.1801
 21
-114.234
  0
LINE
  8
0
 10
70.1801
 20
-114.234
 11
70.3034
 21
-114.021
  0
LINE
  8
0
 10
70.3034
 20
-114.021
 11
70.4571
 21
-113.828
  0
LINE
  8
0
 10
70.4571
 20
-113.828
 11
70.6379
 21
-113.66
  0
LINE
  8
0
 10
70.6379
 20
-113.66
 11
70.8417
 21
-113.521
  0
LINE
  8
0
 10
70.8417
 20
-113.521
 11
71.0638
 21
-113.414
  0
LINE
  8
0
 10
71.0638
 20
-113.414
 11
71.2995
 21
-113.341
  0
LINE
  8
0
 10
71.2995
 20
-113.341
 11
71.5434
 21
-113.305
  0
LINE
  8
0
 10
71.5434
 20
-113.305
 11
111.79
 21
-113.305
  0
LINE
  8
0
 10
111.79
 20
-113.305
 11
112.034
 21
-113.341
  0
LINE
  8
0
 10
112.034
 20
-113.341
 11
112.269
 21
-113.414
  0
LINE
  8
0
 10
112.269
 20
-113.414
 11
112.492
 21
-113.521
  0
LINE
  8
0
 10
112.492
 20
-113.521
 11
112.695
 21
-113.66
  0
LINE
  8
0
 10
112.695
 20
-113.66
 11
112.876
 21
-113.828
  0
LINE
  8
0
 10
112.876
 20
-113.828
 11
113.03
 21
-114.021
  0
LINE
  8
0
 10
113.03
 20
-114.021
 11
113.153
 21
-114.234
  0
LINE
  8
0
 10
113.153
 20
-114.234
 11
113.243
 21
-114.464
  0
LINE
  8
0
 10
113.243
 20
-114.464
 11
113.298
 21
-114.704
  0
LINE
  8
0
 10
113.298
 20
-114.704
 11
113.317
 21
-114.95
  0
LINE
  8
0
 10
113.317
 20
-114.95
 11
113.298
 21
-115.196
  0
LINE
  8
0
 10
113.298
 20
-115.196
 11
113.243
 21
-115.436
  0
LINE
  8
0
 10
113.243
 20
-115.436
 11
113.153
 21
-115.666
  0
LINE
  8
0
 10
113.153
 20
-115.666
 11
113.03
 21
-115.879
  0
LINE
  8
0
 10
113.03
 20
-115.879
 11
112.876
 21
-116.072
  0
LINE
  8
0
 10
112.876
 20
-116.072
 11
112.695
 21
-116.24
  0
LINE
  8
0
 10
112.695
 20
-116.24
 11
112.492
 21
-116.379
  0
LINE
  8
0
 10
112.492
 20
-116.379
 11
112.269
 21
-116.486
  0
LINE
  8
0
 10
112.269
 20
-116.486
 11
112.034
 21
-116.559
  0
LINE
  8
0
 10
112.034
 20
-116.559
 11
111.79
 21
-116.595
  0
LINE
  8
0
 10
111.79
 20
-116.595
 11
71.5434
 21
-116.595
  0
LINE
  8
0
 10
-295.123
 20
-116.595
 11
-295.367
 21
-116.559
  0
LINE
  8
0
 10
-295.367
 20
-116.559
 11
-295.603
 21
-116.486
  0
LINE
  8
0
 10
-295.603
 20
-116.486
 11
-295.825
 21
-116.379
  0
LINE
  8
0
 10
-295.825
 20
-116.379
 11
-296.029
 21
-116.24
  0
LINE
  8
0
 10
-296.029
 20
-116.24
 11
-296.21
 21
-116.072
  0
LINE
  8
0
 10
-296.21
 20
-116.072
 11
-296.363
 21
-115.879
  0
LINE
  8
0
 10
-296.363
 20
-115.879
 11
-296.487
 21
-115.666
  0
LINE
  8
0
 10
-296.487
 20
-115.666
 11
-296.577
 21
-115.436
  0
LINE
  8
0
 10
-296.577
 20
-115.436
 11
-296.632
 21
-115.196
  0
LINE
  8
0
 10
-296.632
 20
-115.196
 11
-296.65
 21
-114.95
  0
LINE
  8
0
 10
-296.65
 20
-114.95
 11
-296.632
 21
-114.704
  0
LINE
  8
0
 10
-296.632
 20
-114.704
 11
-296.577
 21
-114.464
  0
LINE
  8
0
 10
-296.577
 20
-114.464
 11
-296.487
 21
-114.234
  0
LINE
  8
0
 10
-296.487
 20
-114.234
 11
-296.363
 21
-114.021
  0
LINE
  8
0
 10
-296.363
 20
-114.021
 11
-296.21
 21
-113.828
  0
LINE
  8
0
 10
-296.21
 20
-113.828
 11
-296.029
 21
-113.66
  0
LINE
  8
0
 10
-296.029
 20
-113.66
 11
-295.825
 21
-113.521
  0
LINE
  8
0
 10
-295.825
 20
-113.521
 11
-295.603
 21
-113.414
  0
LINE
  8
0
 10
-295.603
 20
-113.414
 11
-295.367
 21
-113.341
  0
LINE
  8
0
 10
-295.367
 20
-113.341
 11
-295.123
 21
-113.305
  0
LINE
  8
0
 10
-295.123
 20
-113.305
 11
-254.877
 21
-113.305
  0
LINE
  8
0
 10
-254.877
 20
-113.305
 11
-254.633
 21
-113.341
  0
LINE
  8
0
 10
-254.633
 20
-113.341
 11
-254.397
 21
-113.414
  0
LINE
  8
0
 10
-254.397
 20
-113.414
 11
-254.175
 21
-113.521
  0
LINE
  8
0
 10
-254.175
 20
-113.521
 11
-253.971
 21
-113.66
  0
LINE
  8
0
 10
-253.971
 20
-113.66
 11
-253.79
 21
-113.828
  0
LINE
  8
0
 10
-253.79
 20
-113.828
 11
-253.637
 21
-114.021
  0
LINE
  8
0
 10
-253.637
 20
-114.021
 11
-253.513
 21
-114.234
  0
LINE
  8
0
 10
-253.513
 20
-114.234
 11
-253.423
 21
-114.464
  0
LINE
  8
0
 10
-253.423
 20
-114.464
 11
-253.368
 21
-114.704
  0
LINE
  8
0
 10
-253.368
 20
-114.704
 11
-253.35
 21
-114.95
  0
LINE
  8
0
 10
-253.35
 20
-114.95
 11
-253.368
 21
-115.196
  0
LINE
  8
0
 10
-253.368
 20
-115.196
 11
-253.423
 21
-115.436
  0
LINE
  8
0
 10
-253.423
 20
-115.436
 11
-253.513
 21
-115.666
  0
LINE
  8
0
 10
-253.513
 20
-115.666
 11
-253.637
 21
-115.879
  0
LINE
  8
0
 10
-253.637
 20
-115.879
 11
-253.79
 21
-116.072
  0
LINE
  8
0
 10
-253.79
 20
-116.072
 11
-253.971
 21
-116.24
  0
LINE
  8
0
 10
-253.971
 20
-116.24
 11
-254.175
 21
-116.379
  0
LINE
  8
0
 10
-254.175
 20
-116.379
 11
-254.397
 21
-116.486
  0
LINE
  8
0
 10
-254.397
 20
-116.486
 11
-254.633
 21
-116.559
  0
LINE
  8
0
 10
-254.633
 20
-116.559
 11
-254.877
 21
-116.595
  0
LINE
  8
0
 10
-254.877
 20
-116.595
 11
-295.123
 21
-116.595
  0
LINE
  8
0
 10
163.21
 20
-116.595
 11
162.966
 21
-116.559
  0
LINE
  8
0
 10
162.966
 20
-116.559
 11
162.731
 21
-116.486
  0
LINE
  8
0
 10
162.731
 20
-116.486
 11
162.508
 21
-116.379
  0
LINE
  8
0
 10
162.508
 20
-116.379
 11
162.305
 21
-116.24
  0
LINE
  8
0
 10
162.305
 20
-116.24
 11
162.124
 21
-116.072
  0
LINE
  8
0
 10
162.124
 20
-116.072
 11
161.97
 21
-115.879
  0
LINE
  8
0
 10
161.97
 20
-115.879
 11
161.847
 21
-115.666
  0
LINE
  8
0
 10
161.847
 20
-115.666
 11
161.757
 21
-115.436
  0
LINE
  8
0
 10
161.757
 20
-115.436
 11
161.702
 21
-115.196
  0
LINE
  8
0
 10
161.702
 20
-115.196
 11
161.683
 21
-114.95
  0
LINE
  8
0
 10
161.683
 20
-114.95
 11
161.702
 21
-114.704
  0
LINE
  8
0
 10
161.702
 20
-114.704
 11
161.757
 21
-114.464
  0
LINE
  8
0
 10
161.757
 20
-114.464
 11
161.847
 21
-114.234
  0
LINE
  8
0
 10
161.847
 20
-114.234
 11
161.97
 21
-114.021
  0
LINE
  8
0
 10
161.97
 20
-114.021
 11
162.124
 21
-113.828
  0
LINE
  8
0
 10
162.124
 20
-113.828
 11
162.305
 21
-113.66
  0
LINE
  8
0
 10
162.305
 20
-113.66
 11
162.508
 21
-113.521
  0
LINE
  8
0
 10
162.508
 20
-113.521
 11
162.731
 21
-113.414
  0
LINE
  8
0
 10
162.731
 20
-113.414
 11
162.966
 21
-113.341
  0
LINE
  8
0
 10
162.966
 20
-113.341
 11
163.21
 21
-113.305
  0
LINE
  8
0
 10
163.21
 20
-113.305
 11
203.457
 21
-113.305
  0
LINE
  8
0
 10
203.457
 20
-113.305
 11
203.701
 21
-113.341
  0
LINE
  8
0
 10
203.701
 20
-113.341
 11
203.936
 21
-113.414
  0
LINE
  8
0
 10
203.936
 20
-113.414
 11
204.158
 21
-113.521
  0
LINE
  8
0
 10
204.158
 20
-113.521
 11
204.362
 21
-113.66
  0
LINE
  8
0
 10
204.362
 20
-113.66
 11
204.543
 21
-113.828
  0
LINE
  8
0
 10
204.543
 20
-113.828
 11
204.697
 21
-114.021
  0
LINE
  8
0
 10
204.697
 20
-114.021
 11
204.82
 21
-114.234
  0
LINE
  8
0
 10
204.82
 20
-114.234
 11
204.91
 21
-114.464
  0
LINE
  8
0
 10
204.91
 20
-114.464
 11
204.965
 21
-114.704
  0
LINE
  8
0
 10
204.965
 20
-114.704
 11
204.983
 21
-114.95
  0
LINE
  8
0
 10
204.983
 20
-114.95
 11
204.965
 21
-115.196
  0
LINE
  8
0
 10
204.965
 20
-115.196
 11
204.91
 21
-115.436
  0
LINE
  8
0
 10
204.91
 20
-115.436
 11
204.82
 21
-115.666
  0
LINE
  8
0
 10
204.82
 20
-115.666
 11
204.697
 21
-115.879
  0
LINE
  8
0
 10
204.697
 20
-115.879
 11
204.543
 21
-116.072
  0
LINE
  8
0
 10
204.543
 20
-116.072
 11
204.362
 21
-116.24
  0
LINE
  8
0
 10
204.362
 20
-116.24
 11
204.158
 21
-116.379
  0
LINE
  8
0
 10
204.158
 20
-116.379
 11
203.936
 21
-116.486
  0
LINE
  8
0
 10
203.936
 20
-116.486
 11
203.701
 21
-116.559
  0
LINE
  8
0
 10
203.701
 20
-116.559
 11
203.457
 21
-116.595
  0
LINE
  8
0
 10
203.457
 20
-116.595
 11
163.21
 21
-116.595
  0
ENDSEC
  0
SECTION
  2
OBJECTS
  0
DICTIONARY
  0
ENDSEC
  0
EOF
