  0
SECTION
  2
BLOCKS
  0
ENDSEC
  0
SECTION
  2
ENTITIES
  0
LINE
  8
0
 10
320.398
 20
-124.798
 11
320.915
 21
-124.716
  0
LINE
  8
0
 10
320.915
 20
-124.716
 11
321.42
 21
-124.58
  0
LINE
  8
0
 10
321.42
 20
-124.58
 11
321.909
 21
-124.393
  0
LINE
  8
0
 10
321.909
 20
-124.393
 11
322.375
 21
-124.155
  0
LINE
  8
0
 10
322.375
 20
-124.155
 11
322.814
 21
-123.87
  0
LINE
  8
0
 10
322.814
 20
-123.87
 11
323.221
 21
-123.541
  0
LINE
  8
0
 10
323.221
 20
-123.541
 11
323.591
 21
-123.171
  0
LINE
  8
0
 10
323.591
 20
-123.171
 11
323.92
 21
-122.764
  0
LINE
  8
0
 10
323.92
 20
-122.764
 11
324.205
 21
-122.325
  0
LINE
  8
0
 10
324.205
 20
-122.325
 11
324.443
 21
-121.859
  0
LINE
  8
0
 10
324.443
 20
-121.859
 11
324.63
 21
-121.37
  0
LINE
  8
0
 10
324.63
 20
-121.37
 11
324.766
 21
-120.865
  0
LINE
  8
0
 10
324.766
 20
-120.865
 11
324.848
 21
-120.348
  0
LINE
  8
0
 10
324.848
 20
-120.348
 11
324.875
 21
-119.825
  0
LINE
  8
0
 10
324.875
 20
-119.825
 11
324.875
 21
119.825
  0
LINE
  8
0
 10
324.875
 20
119.825
 11
324.848
 21
120.348
  0
LINE
  8
0
 10
324.848
 20
120.348
 11
324.766
 21
120.865
  0
LINE
  8
0
 10
324.766
 20
120.865
 11
324.63
 21
121.37
  0
LINE
  8
0
 10
324.63
 20
121.37
 11
324.443
 21
121.859
  0
LINE
  8
0
 10
324.443
 20
121.859
 11
324.205
 21
122.325
  0
LINE
  8
0
 10
324.205
 20
122.325
 11
323.92
 21
122.764
  0
LINE
  8
0
 10
323.92
 20
122.764
 11
323.591
 21
123.171
  0
LINE
  8
0
 10
323.591
 20
123.171
 11
323.221
 21
123.541
  0
LINE
  8
0
 10
323.221
 20
123.541
 11
322.814
 21
123.87
  0
LINE
  8
0
 10
322.814
 20
123.87
 11
322.375
 21
124.155
  0
LINE
  8
0
 10
322.375
 20
124.155
 11
321.909
 21
124.393
  0
LINE
  8
0
 10
321.909
 20
124.393
 11
321.42
 21
124.58
  0
LINE
  8
0
 10
321.42
 20
124.58
 11
320.915
 21
124.716
  0
LINE
  8
0
 10
320.915
 20
124.716
 11
320.398
 21
124.798
  0
LINE
  8
0
 10
320.398
 20
124.798
 11
319.875
 21
124.825
  0
LINE
  8
0
 10
319.875
 20
124.825
 11
-319.875
 21
124.825
  0
LINE
  8
0
 10
-319.875
 20
124.825
 11
-320.398
 21
124.798
  0
LINE
  8
0
 10
-320.398
 20
124.798
 11
-320.915
 21
124.716
  0
LINE
  8
0
 10
-320.915
 20
124.716
 11
-321.42
 21
124.58
  0
LINE
  8
0
 10
-321.42
 20
124.58
 11
-321.909
 21
124.393
  0
LINE
  8
0
 10
-321.909
 20
124.393
 11
-322.375
 21
124.155
  0
LINE
  8
0
 10
-322.375
 20
124.155
 11
-322.814
 21
123.87
  0
LINE
  8
0
 10
-322.814
 20
123.87
 11
-323.221
 21
123.541
  0
LINE
  8
0
 10
-323.221
 20
123.541
 11
-323.591
 21
123.171
  0
LINE
  8
0
 10
-323.591
 20
123.171
 11
-323.92
 21
122.764
  0
LINE
  8
0
 10
-323.92
 20
122.764
 11
-324.205
 21
122.325
  0
LINE
  8
0
 10
-324.205
 20
122.325
 11
-324.443
 21
121.859
  0
LINE
  8
0
 10
-324.443
 20
121.859
 11
-324.63
 21
121.37
  0
LINE
  8
0
 10
-324.63
 20
121.37
 11
-324.766
 21
120.865
  0
LINE
  8
0
 10
-324.766
 20
120.865
 11
-324.848
 21
120.348
  0
LINE
  8
0
 10
-324.848
 20
120.348
 11
-324.875
 21
119.825
  0
LINE
  8
0
 10
-324.875
 20
119.825
 11
-324.875
 21
-119.825
  0
LINE
  8
0
 10
-324.875
 20
-119.825
 11
-324.848
 21
-120.348
  0
LINE
  8
0
 10
-324.848
 20
-120.348
 11
-324.766
 21
-120.865
  0
LINE
  8
0
 10
-324.766
 20
-120.865
 11
-324.63
 21
-121.37
  0
LINE
  8
0
 10
-324.63
 20
-121.37
 11
-324.443
 21
-121.859
  0
LINE
  8
0
 10
-324.443
 20
-121.859
 11
-324.205
 21
-122.325
  0
LINE
  8
0
 10
-324.205
 20
-122.325
 11
-323.92
 21
-122.764
  0
LINE
  8
0
 10
-323.92
 20
-122.764
 11
-323.591
 21
-123.171
  0
LINE
  8
0
 10
-323.591
 20
-123.171
 11
-323.221
 21
-123.541
  0
LINE
  8
0
 10
-323.221
 20
-123.541
 11
-322.814
 21
-123.87
  0
LINE
  8
0
 10
-322.814
 20
-123.87
 11
-322.375
 21
-124.155
  0
LINE
  8
0
 10
-322.375
 20
-124.155
 11
-321.909
 21
-124.393
  0
LINE
  8
0
 10
-321.909
 20
-124.393
 11
-321.42
 21
-124.58
  0
LINE
  8
0
 10
-321.42
 20
-124.58
 11
-320.915
 21
-124.716
  0
LINE
  8
0
 10
-320.915
 20
-124.716
 11
-320.398
 21
-124.798
  0
LINE
  8
0
 10
-320.398
 20
-124.798
 11
-319.875
 21
-124.825
  0
LINE
  8
0
 10
-319.875
 20
-124.825
 11
319.875
 21
-124.825
  0
LINE
  8
0
 10
319.875
 20
-124.825
 11
320.398
 21
-124.798
  0
LINE
  8
0
 10
-315.523
 20
109.977
 11
-316.04
 21
110.059
  0
LINE
  8
0
 10
-316.04
 20
110.059
 11
-316.545
 21
110.195
  0
LINE
  8
0
 10
-316.545
 20
110.195
 11
-317.034
 21
110.382
  0
LINE
  8
0
 10
-317.034
 20
110.382
 11
-317.5
 21
110.62
  0
LINE
  8
0
 10
-317.5
 20
110.62
 11
-317.939
 21
110.905
  0
LINE
  8
0
 10
-317.939
 20
110.905
 11
-318.346
 21
111.234
  0
LINE
  8
0
 10
-318.346
 20
111.234
 11
-318.716
 21
111.604
  0
LINE
  8
0
 10
-318.716
 20
111.604
 11
-319.045
 21
112.011
  0
LINE
  8
0
 10
-319.045
 20
112.011
 11
-319.33
 21
112.45
  0
LINE
  8
0
 10
-319.33
 20
112.45
 11
-319.568
 21
112.916
  0
LINE
  8
0
 10
-319.568
 20
112.916
 11
-319.755
 21
113.405
  0
LINE
  8
0
 10
-319.755
 20
113.405
 11
-319.891
 21
113.91
  0
LINE
  8
0
 10
-319.891
 20
113.91
 11
-319.973
 21
114.427
  0
LINE
  8
0
 10
-319.973
 20
114.427
 11
-320
 21
114.95
  0
LINE
  8
0
 10
-320
 20
114.95
 11
-319.973
 21
115.473
  0
LINE
  8
0
 10
-319.973
 20
115.473
 11
-319.891
 21
115.99
  0
LINE
  8
0
 10
-319.891
 20
115.99
 11
-319.755
 21
116.495
  0
LINE
  8
0
 10
-319.755
 20
116.495
 11
-319.568
 21
116.984
  0
LINE
  8
0
 10
-319.568
 20
116.984
 11
-319.33
 21
117.45
  0
LINE
  8
0
 10
-319.33
 20
117.45
 11
-319.045
 21
117.889
  0
LINE
  8
0
 10
-319.045
 20
117.889
 11
-318.716
 21
118.296
  0
LINE
  8
0
 10
-318.716
 20
118.296
 11
-318.346
 21
118.666
  0
LINE
  8
0
 10
-318.346
 20
118.666
 11
-317.939
 21
118.995
  0
LINE
  8
0
 10
-317.939
 20
118.995
 11
-317.5
 21
119.28
  0
LINE
  8
0
 10
-317.5
 20
119.28
 11
-317.034
 21
119.518
  0
LINE
  8
0
 10
-317.034
 20
119.518
 11
-316.545
 21
119.705
  0
LINE
  8
0
 10
-316.545
 20
119.705
 11
-316.04
 21
119.841
  0
LINE
  8
0
 10
-316.04
 20
119.841
 11
-315.523
 21
119.923
  0
LINE
  8
0
 10
-315.523
 20
119.923
 11
-315
 21
119.95
  0
LINE
  8
0
 10
-315
 20
119.95
 11
-314.477
 21
119.923
  0
LINE
  8
0
 10
-314.477
 20
119.923
 11
-313.96
 21
119.841
  0
LINE
  8
0
 10
-313.96
 20
119.841
 11
-313.455
 21
119.705
  0
LINE
  8
0
 10
-313.455
 20
119.705
 11
-312.966
 21
119.518
  0
LINE
  8
0
 10
-312.966
 20
119.518
 11
-312.5
 21
119.28
  0
LINE
  8
0
 10
-312.5
 20
119.28
 11
-312.061
 21
118.995
  0
LINE
  8
0
 10
-312.061
 20
118.995
 11
-311.654
 21
118.666
  0
LINE
  8
0
 10
-311.654
 20
118.666
 11
-311.284
 21
118.296
  0
LINE
  8
0
 10
-311.284
 20
118.296
 11
-310.955
 21
117.889
  0
LINE
  8
0
 10
-310.955
 20
117.889
 11
-310.67
 21
117.45
  0
LINE
  8
0
 10
-310.67
 20
117.45
 11
-310.432
 21
116.984
  0
LINE
  8
0
 10
-310.432
 20
116.984
 11
-310.245
 21
116.495
  0
LINE
  8
0
 10
-310.245
 20
116.495
 11
-310.109
 21
115.99
  0
LINE
  8
0
 10
-310.109
 20
115.99
 11
-310.027
 21
115.473
  0
LINE
  8
0
 10
-310.027
 20
115.473
 11
-310
 21
114.95
  0
LINE
  8
0
 10
-310
 20
114.95
 11
-310.027
 21
114.427
  0
LINE
  8
0
 10
-310.027
 20
114.427
 11
-310.109
 21
113.91
  0
LINE
  8
0
 10
-310.109
 20
113.91
 11
-310.245
 21
113.405
  0
LINE
  8
0
 10
-310.245
 20
113.405
 11
-310.432
 21
112.916
  0
LINE
  8
0
 10
-310.432
 20
112.916
 11
-310.67
 21
112.45
  0
LINE
  8
0
 10
-310.67
 20
112.45
 11
-310.955
 21
112.011
  0
LINE
  8
0
 10
-310.955
 20
112.011
 11
-311.284
 21
111.604
  0
LINE
  8
0
 10
-311.284
 20
111.604
 11
-311.654
 21
111.234
  0
LINE
  8
0
 10
-311.654
 20
111.234
 11
-312.061
 21
110.905
  0
LINE
  8
0
 10
-312.061
 20
110.905
 11
-312.5
 21
110.62
  0
LINE
  8
0
 10
-312.5
 20
110.62
 11
-312.966
 21
110.382
  0
LINE
  8
0
 10
-312.966
 20
110.382
 11
-313.455
 21
110.195
  0
LINE
  8
0
 10
-313.455
 20
110.195
 11
-313.96
 21
110.059
  0
LINE
  8
0
 10
-313.96
 20
110.059
 11
-314.477
 21
109.977
  0
LINE
  8
0
 10
-314.477
 20
109.977
 11
-315
 21
109.95
  0
LINE
  8
0
 10
-315
 20
109.95
 11
-315.523
 21
109.977
  0
LINE
  8
0
 10
314.477
 20
109.977
 11
313.96
 21
110.059
  0
LINE
  8
0
 10
313.96
 20
110.059
 11
313.455
 21
110.195
  0
LINE
  8
0
 10
313.455
 20
110.195
 11
312.966
 21
110.382
  0
LINE
  8
0
 10
312.966
 20
110.382
 11
312.5
 21
110.62
  0
LINE
  8
0
 10
312.5
 20
110.62
 11
312.061
 21
110.905
  0
LINE
  8
0
 10
312.061
 20
110.905
 11
311.654
 21
111.234
  0
LINE
  8
0
 10
311.654
 20
111.234
 11
311.284
 21
111.604
  0
LINE
  8
0
 10
311.284
 20
111.604
 11
310.955
 21
112.011
  0
LINE
  8
0
 10
310.955
 20
112.011
 11
310.67
 21
112.45
  0
LINE
  8
0
 10
310.67
 20
112.45
 11
310.432
 21
112.916
  0
LINE
  8
0
 10
310.432
 20
112.916
 11
310.245
 21
113.405
  0
LINE
  8
0
 10
310.245
 20
113.405
 11
310.109
 21
113.91
  0
LINE
  8
0
 10
310.109
 20
113.91
 11
310.027
 21
114.427
  0
LINE
  8
0
 10
310.027
 20
114.427
 11
310
 21
114.95
  0
LINE
  8
0
 10
310
 20
114.95
 11
310.027
 21
115.473
  0
LINE
  8
0
 10
310.027
 20
115.473
 11
310.109
 21
115.99
  0
LINE
  8
0
 10
310.109
 20
115.99
 11
310.245
 21
116.495
  0
LINE
  8
0
 10
310.245
 20
116.495
 11
310.432
 21
116.984
  0
LINE
  8
0
 10
310.432
 20
116.984
 11
310.67
 21
117.45
  0
LINE
  8
0
 10
310.67
 20
117.45
 11
310.955
 21
117.889
  0
LINE
  8
0
 10
310.955
 20
117.889
 11
311.284
 21
118.296
  0
LINE
  8
0
 10
311.284
 20
118.296
 11
311.654
 21
118.666
  0
LINE
  8
0
 10
311.654
 20
118.666
 11
312.061
 21
118.995
  0
LINE
  8
0
 10
312.061
 20
118.995
 11
312.5
 21
119.28
  0
LINE
  8
0
 10
312.5
 20
119.28
 11
312.966
 21
119.518
  0
LINE
  8
0
 10
312.966
 20
119.518
 11
313.455
 21
119.705
  0
LINE
  8
0
 10
313.455
 20
119.705
 11
313.96
 21
119.841
  0
LINE
  8
0
 10
313.96
 20
119.841
 11
314.477
 21
119.923
  0
LINE
  8
0
 10
314.477
 20
119.923
 11
315
 21
119.95
  0
LINE
  8
0
 10
315
 20
119.95
 11
315.523
 21
119.923
  0
LINE
  8
0
 10
315.523
 20
119.923
 11
316.04
 21
119.841
  0
LINE
  8
0
 10
316.04
 20
119.841
 11
316.545
 21
119.705
  0
LINE
  8
0
 10
316.545
 20
119.705
 11
317.034
 21
119.518
  0
LINE
  8
0
 10
317.034
 20
119.518
 11
317.5
 21
119.28
  0
LINE
  8
0
 10
317.5
 20
119.28
 11
317.939
 21
118.995
  0
LINE
  8
0
 10
317.939
 20
118.995
 11
318.346
 21
118.666
  0
LINE
  8
0
 10
318.346
 20
118.666
 11
318.716
 21
118.296
  0
LINE
  8
0
 10
318.716
 20
118.296
 11
319.045
 21
117.889
  0
LINE
  8
0
 10
319.045
 20
117.889
 11
319.33
 21
117.45
  0
LINE
  8
0
 10
319.33
 20
117.45
 11
319.568
 21
116.984
  0
LINE
  8
0
 10
319.568
 20
116.984
 11
319.755
 21
116.495
  0
LINE
  8
0
 10
319.755
 20
116.495
 11
319.891
 21
115.99
  0
LINE
  8
0
 10
319.891
 20
115.99
 11
319.973
 21
115.473
  0
LINE
  8
0
 10
319.973
 20
115.473
 11
320
 21
114.95
  0
LINE
  8
0
 10
320
 20
114.95
 11
319.973
 21
114.427
  0
LINE
  8
0
 10
319.973
 20
114.427
 11
319.891
 21
113.91
  0
LINE
  8
0
 10
319.891
 20
113.91
 11
319.755
 21
113.405
  0
LINE
  8
0
 10
319.755
 20
113.405
 11
319.568
 21
112.916
  0
LINE
  8
0
 10
319.568
 20
112.916
 11
319.33
 21
112.45
  0
LINE
  8
0
 10
319.33
 20
112.45
 11
319.045
 21
112.011
  0
LINE
  8
0
 10
319.045
 20
112.011
 11
318.716
 21
111.604
  0
LINE
  8
0
 10
318.716
 20
111.604
 11
318.346
 21
111.234
  0
LINE
  8
0
 10
318.346
 20
111.234
 11
317.939
 21
110.905
  0
LINE
  8
0
 10
317.939
 20
110.905
 11
317.5
 21
110.62
  0
LINE
  8
0
 10
317.5
 20
110.62
 11
317.034
 21
110.382
  0
LINE
  8
0
 10
317.034
 20
110.382
 11
316.545
 21
110.195
  0
LINE
  8
0
 10
316.545
 20
110.195
 11
316.04
 21
110.059
  0
LINE
  8
0
 10
316.04
 20
110.059
 11
315.523
 21
109.977
  0
LINE
  8
0
 10
315.523
 20
109.977
 11
315
 21
109.95
  0
LINE
  8
0
 10
315
 20
109.95
 11
314.477
 21
109.977
  0
LINE
  8
0
 10
254.877
 20
113.305
 11
254.633
 21
113.341
  0
LINE
  8
0
 10
254.633
 20
113.341
 11
254.397
 21
113.414
  0
LINE
  8
0
 10
254.397
 20
113.414
 11
254.175
 21
113.521
  0
LINE
  8
0
 10
254.175
 20
113.521
 11
253.971
 21
113.66
  0
LINE
  8
0
 10
253.971
 20
113.66
 11
253.79
 21
113.828
  0
LINE
  8
0
 10
253.79
 20
113.828
 11
253.637
 21
114.021
  0
LINE
  8
0
 10
253.637
 20
114.021
 11
253.513
 21
114.234
  0
LINE
  8
0
 10
253.513
 20
114.234
 11
253.423
 21
114.464
  0
LINE
  8
0
 10
253.423
 20
114.464
 11
253.368
 21
114.704
  0
LINE
  8
0
 10
253.368
 20
114.704
 11
253.35
 21
114.95
  0
LINE
  8
0
 10
253.35
 20
114.95
 11
253.368
 21
115.196
  0
LINE
  8
0
 10
253.368
 20
115.196
 11
253.423
 21
115.436
  0
LINE
  8
0
 10
253.423
 20
115.436
 11
253.513
 21
115.666
  0
LINE
  8
0
 10
253.513
 20
115.666
 11
253.637
 21
115.879
  0
LINE
  8
0
 10
253.637
 20
115.879
 11
253.79
 21
116.072
  0
LINE
  8
0
 10
253.79
 20
116.072
 11
253.971
 21
116.24
  0
LINE
  8
0
 10
253.971
 20
116.24
 11
254.175
 21
116.379
  0
LINE
  8
0
 10
254.175
 20
116.379
 11
254.397
 21
116.486
  0
LINE
  8
0
 10
254.397
 20
116.486
 11
254.633
 21
116.559
  0
LINE
  8
0
 10
254.633
 20
116.559
 11
254.877
 21
116.595
  0
LINE
  8
0
 10
254.877
 20
116.595
 11
295.123
 21
116.595
  0
LINE
  8
0
 10
295.123
 20
116.595
 11
295.367
 21
116.559
  0
LINE
  8
0
 10
295.367
 20
116.559
 11
295.603
 21
116.486
  0
LINE
  8
0
 10
295.603
 20
116.486
 11
295.825
 21
116.379
  0
LINE
  8
0
 10
295.825
 20
116.379
 11
296.029
 21
116.24
  0
LINE
  8
0
 10
296.029
 20
116.24
 11
296.21
 21
116.072
  0
LINE
  8
0
 10
296.21
 20
116.072
 11
296.363
 21
115.879
  0
LINE
  8
0
 10
296.363
 20
115.879
 11
296.487
 21
115.666
  0
LINE
  8
0
 10
296.487
 20
115.666
 11
296.577
 21
115.436
  0
LINE
  8
0
 10
296.577
 20
115.436
 11
296.632
 21
115.196
  0
LINE
  8
0
 10
296.632
 20
115.196
 11
296.65
 21
114.95
  0
LINE
  8
0
 10
296.65
 20
114.95
 11
296.632
 21
114.704
  0
LINE
  8
0
 10
296.632
 20
114.704
 11
296.577
 21
114.464
  0
LINE
  8
0
 10
296.577
 20
114.464
 11
296.487
 21
114.234
  0
LINE
  8
0
 10
296.487
 20
114.234
 11
296.363
 21
114.021
  0
LINE
  8
0
 10
296.363
 20
114.021
 11
296.21
 21
113.828
  0
LINE
  8
0
 10
296.21
 20
113.828
 11
296.029
 21
113.66
  0
LINE
  8
0
 10
296.029
 20
113.66
 11
295.825
 21
113.521
  0
LINE
  8
0
 10
295.825
 20
113.521
 11
295.603
 21
113.414
  0
LINE
  8
0
 10
295.603
 20
113.414
 11
295.367
 21
113.341
  0
LINE
  8
0
 10
295.367
 20
113.341
 11
295.123
 21
113.305
  0
LINE
  8
0
 10
295.123
 20
113.305
 11
254.877
 21
113.305
  0
LINE
  8
0
 10
-111.79
 20
113.305
 11
-112.034
 21
113.341
  0
LINE
  8
0
 10
-112.034
 20
113.341
 11
-112.269
 21
113.414
  0
LINE
  8
0
 10
-112.269
 20
113.414
 11
-112.492
 21
113.521
  0
LINE
  8
0
 10
-112.492
 20
113.521
 11
-112.695
 21
113.66
  0
LINE
  8
0
 10
-112.695
 20
113.66
 11
-112.876
 21
113.828
  0
LINE
  8
0
 10
-112.876
 20
113.828
 11
-113.03
 21
114.021
  0
LINE
  8
0
 10
-113.03
 20
114.021
 11
-113.153
 21
114.234
  0
LINE
  8
0
 10
-113.153
 20
114.234
 11
-113.243
 21
114.464
  0
LINE
  8
0
 10
-113.243
 20
114.464
 11
-113.298
 21
114.704
  0
LINE
  8
0
 10
-113.298
 20
114.704
 11
-113.317
 21
114.95
  0
LINE
  8
0
 10
-113.317
 20
114.95
 11
-113.298
 21
115.196
  0
LINE
  8
0
 10
-113.298
 20
115.196
 11
-113.243
 21
115.436
  0
LINE
  8
0
 10
-113.243
 20
115.436
 11
-113.153
 21
115.666
  0
LINE
  8
0
 10
-113.153
 20
115.666
 11
-113.03
 21
115.879
  0
LINE
  8
0
 10
-113.03
 20
115.879
 11
-112.876
 21
116.072
  0
LINE
  8
0
 10
-112.876
 20
116.072
 11
-112.695
 21
116.24
  0
LINE
  8
0
 10
-112.695
 20
116.24
 11
-112.492
 21
116.379
  0
LINE
  8
0
 10
-112.492
 20
116.379
 11
-112.269
 21
116.486
  0
LINE
  8
0
 10
-112.269
 20
116.486
 11
-112.034
 21
116.559
  0
LINE
  8
0
 10
-112.034
 20
116.559
 11
-111.79
 21
116.595
  0
LINE
  8
0
 10
-111.79
 20
116.595
 11
-71.5434
 21
116.595
  0
LINE
  8
0
 10
-71.5434
 20
116.595
 11
-71.2995
 21
116.559
  0
LINE
  8
0
 10
-71.2995
 20
116.559
 11
-71.0638
 21
116.486
  0
LINE
  8
0
 10
-71.0638
 20
116.486
 11
-70.8417
 21
116.379
  0
LINE
  8
0
 10
-70.8417
 20
116.379
 11
-70.6379
 21
116.24
  0
LINE
  8
0
 10
-70.6379
 20
116.24
 11
-70.4571
 21
116.072
  0
LINE
  8
0
 10
-70.4571
 20
116.072
 11
-70.3034
 21
115.879
  0
LINE
  8
0
 10
-70.3034
 20
115.879
 11
-70.1801
 21
115.666
  0
LINE
  8
0
 10
-70.1801
 20
115.666
 11
-70.09
 21
115.436
  0
LINE
  8
0
 10
-70.09
 20
115.436
 11
-70.0351
 21
115.196
  0
LINE
  8
0
 10
-70.0351
 20
115.196
 11
-70.0167
 21
114.95
  0
LINE
  8
0
 10
-70.0167
 20
114.95
 11
-70.0351
 21
114.704
  0
LINE
  8
0
 10
-70.0351
 20
114.704
 11
-70.09
 21
114.464
  0
LINE
  8
0
 10
-70.09
 20
114.464
 11
-70.1801
 21
114.234
  0
LINE
  8
0
 10
-70.1801
 20
114.234
 11
-70.3034
 21
114.021
  0
LINE
  8
0
 10
-70.3034
 20
114.021
 11
-70.4571
 21
113.828
  0
LINE
  8
0
 10
-70.4571
 20
113.828
 11
-70.6379
 21
113.66
  0
LINE
  8
0
 10
-70.6379
 20
113.66
 11
-70.8417
 21
113.521
  0
LINE
  8
0
 10
-70.8417
 20
113.521
 11
-71.0638
 21
113.414
  0
LINE
  8
0
 10
-71.0638
 20
113.414
 11
-71.2995
 21
113.341
  0
LINE
  8
0
 10
-71.2995
 20
113.341
 11
-71.5434
 21
113.305
  0
LINE
  8
0
 10
-71.5434
 20
113.305
 11
-111.79
 21
113.305
  0
LINE
  8
0
 10
-295.123
 20
113.305
 11
-295.367
 21
113.341
  0
LINE
  8
0
 10
-295.367
 20
113.341
 11
-295.603
 21
113.414
  0
LINE
  8
0
 10
-295.603
 20
113.414
 11
-295.825
 21
113.521
  0
LINE
  8
0
 10
-295.825
 20
113.521
 11
-296.029
 21
113.66
  0
LINE
  8
0
 10
-296.029
 20
113.66
 11
-296.21
 21
113.828
  0
LINE
  8
0
 10
-296.21
 20
113.828
 11
-296.363
 21
114.021
  0
LINE
  8
0
 10
-296.363
 20
114.021
 11
-296.487
 21
114.234
  0
LINE
  8
0
 10
-296.487
 20
114.234
 11
-296.577
 21
114.464
  0
LINE
  8
0
 10
-296.577
 20
114.464
 11
-296.632
 21
114.704
  0
LINE
  8
0
 10
-296.632
 20
114.704
 11
-296.65
 21
114.95
  0
LINE
  8
0
 10
-296.65
 20
114.95
 11
-296.632
 21
115.196
  0
LINE
  8
0
 10
-296.632
 20
115.196
 11
-296.577
 21
115.436
  0
LINE
  8
0
 10
-296.577
 20
115.436
 11
-296.487
 21
115.666
  0
LINE
  8
0
 10
-296.487
 20
115.666
 11
-296.363
 21
115.879
  0
LINE
  8
0
 10
-296.363
 20
115.879
 11
-296.21
 21
116.072
  0
LINE
  8
0
 10
-296.21
 20
116.072
 11
-296.029
 21
116.24
  0
LINE
  8
0
 10
-296.029
 20
116.24
 11
-295.825
 21
116.379
  0
LINE
  8
0
 10
-295.825
 20
116.379
 11
-295.603
 21
116.486
  0
LINE
  8
0
 10
-295.603
 20
116.486
 11
-295.367
 21
116.559
  0
LINE
  8
0
 10
-295.367
 20
116.559
 11
-295.123
 21
116.595
  0
LINE
  8
0
 10
-295.123
 20
116.595
 11
-254.877
 21
116.595
  0
LINE
  8
0
 10
-254.877
 20
116.595
 11
-254.633
 21
116.559
  0
LINE
  8
0
 10
-254.633
 20
116.559
 11
-254.397
 21
116.486
  0
LINE
  8
0
 10
-254.397
 20
116.486
 11
-254.175
 21
116.379
  0
LINE
  8
0
 10
-254.175
 20
116.379
 11
-253.971
 21
116.24
  0
LINE
  8
0
 10
-253.971
 20
116.24
 11
-253.79
 21
116.072
  0
LINE
  8
0
 10
-253.79
 20
116.072
 11
-253.637
 21
115.879
  0
LINE
  8
0
 10
-253.637
 20
115.879
 11
-253.513
 21
115.666
  0
LINE
  8
0
 10
-253.513
 20
115.666
 11
-253.423
 21
115.436
  0
LINE
  8
0
 10
-253.423
 20
115.436
 11
-253.368
 21
115.196
  0
LINE
  8
0
 10
-253.368
 20
115.196
 11
-253.35
 21
114.95
  0
LINE
  8
0
 10
-253.35
 20
114.95
 11
-253.368
 21
114.704
  0
LINE
  8
0
 10
-253.368
 20
114.704
 11
-253.423
 21
114.464
  0
LINE
  8
0
 10
-253.423
 20
114.464
 11
-253.513
 21
114.234
  0
LINE
  8
0
 10
-253.513
 20
114.234
 11
-253.637
 21
114.021
  0
LINE
  8
0
 10
-253.637
 20
114.021
 11
-253.79
 21
113.828
  0
LINE
  8
0
 10
-253.79
 20
113.828
 11
-253.971
 21
113.66
  0
LINE
  8
0
 10
-253.971
 20
113.66
 11
-254.175
 21
113.521
  0
LINE
  8
0
 10
-254.175
 20
113.521
 11
-254.397
 21
113.414
  0
LINE
  8
0
 10
-254.397
 20
113.414
 11
-254.633
 21
113.341
  0
LINE
  8
0
 10
-254.633
 20
113.341
 11
-254.877
 21
113.305
  0
LINE
  8
0
 10
-254.877
 20
113.305
 11
-295.123
 21
113.305
  0
LINE
  8
0
 10
161.757
 20
115.436
 11
161.847
 21
115.666
  0
LINE
  8
0
 10
161.847
 20
115.666
 11
161.97
 21
115.879
  0
LINE
  8
0
 10
161.97
 20
115.879
 11
162.124
 21
116.072
  0
LINE
  8
0
 10
162.124
 20
116.072
 11
162.305
 21
116.24
  0
LINE
  8
0
 10
162.305
 20
116.24
 11
162.508
 21
116.379
  0
LINE
  8
0
 10
162.508
 20
116.379
 11
162.731
 21
116.486
  0
LINE
  8
0
 10
162.731
 20
116.486
 11
162.966
 21
116.559
  0
LINE
  8
0
 10
162.966
 20
116.559
 11
163.21
 21
116.595
  0
LINE
  8
0
 10
163.21
 20
116.595
 11
203.457
 21
116.595
  0
LINE
  8
0
 10
203.457
 20
116.595
 11
203.701
 21
116.559
  0
LINE
  8
0
 10
203.701
 20
116.559
 11
203.936
 21
116.486
  0
LINE
  8
0
 10
203.936
 20
116.486
 11
204.158
 21
116.379
  0
LINE
  8
0
 10
204.158
 20
116.379
 11
204.362
 21
116.24
  0
LINE
  8
0
 10
204.362
 20
116.24
 11
204.543
 21
116.072
  0
LINE
  8
0
 10
204.543
 20
116.072
 11
204.697
 21
115.879
  0
LINE
  8
0
 10
204.697
 20
115.879
 11
204.82
 21
115.666
  0
LINE
  8
0
 10
204.82
 20
115.666
 11
204.91
 21
115.436
  0
LINE
  8
0
 10
204.91
 20
115.436
 11
204.965
 21
115.196
  0
LINE
  8
0
 10
204.965
 20
115.196
 11
204.983
 21
114.95
  0
LINE
  8
0
 10
204.983
 20
114.95
 11
204.965
 21
114.704
  0
LINE
  8
0
 10
204.965
 20
114.704
 11
204.91
 21
114.464
  0
LINE
  8
0
 10
204.91
 20
114.464
 11
204.82
 21
114.234
  0
LINE
  8
0
 10
204.82
 20
114.234
 11
204.697
 21
114.021
  0
LINE
  8
0
 10
204.697
 20
114.021
 11
204.543
 21
113.828
  0
LINE
  8
0
 10
204.543
 20
113.828
 11
204.362
 21
113.66
  0
LINE
  8
0
 10
204.362
 20
113.66
 11
204.158
 21
113.521
  0
LINE
  8
0
 10
204.158
 20
113.521
 11
203.936
 21
113.414
  0
LINE
  8
0
 10
203.936
 20
113.414
 11
203.701
 21
113.341
  0
LINE
  8
0
 10
203.701
 20
113.341
 11
203.457
 21
113.305
  0
LINE
  8
0
 10
203.457
 20
113.305
 11
163.21
 21
113.305
  0
LINE
  8
0
 10
163.21
 20
113.305
 11
162.966
 21
113.341
  0
LINE
  8
0
 10
162.966
 20
113.341
 11
162.731
 21
113.414
  0
LINE
  8
0
 10
162.731
 20
113.414
 11
162.508
 21
113.521
  0
LINE
  8
0
 10
162.508
 20
113.521
 11
162.305
 21
113.66
  0
LINE
  8
0
 10
162.305
 20
113.66
 11
162.124
 21
113.828
  0
LINE
  8
0
 10
162.124
 20
113.828
 11
161.97
 21
114.021
  0
LINE
  8
0
 10
161.97
 20
114.021
 11
161.847
 21
114.234
  0
LINE
  8
0
 10
161.847
 20
114.234
 11
161.757
 21
114.464
  0
LINE
  8
0
 10
161.757
 20
114.464
 11
161.702
 21
114.704
  0
LINE
  8
0
 10
161.702
 20
114.704
 11
161.683
 21
114.95
  0
LINE
  8
0
 10
161.683
 20
114.95
 11
161.702
 21
115.196
  0
LINE
  8
0
 10
161.702
 20
115.196
 11
161.757
 21
115.436
  0
LINE
  8
0
 10
-20.1233
 20
113.305
 11
-20.3672
 21
113.341
  0
LINE
  8
0
 10
-20.3672
 20
113.341
 11
-20.6028
 21
113.414
  0
LINE
  8
0
 10
-20.6028
 20
113.414
 11
-20.825
 21
113.521
  0
LINE
  8
0
 10
-20.825
 20
113.521
 11
-21.0287
 21
113.66
  0
LINE
  8
0
 10
-21.0287
 20
113.66
 11
-21.2095
 21
113.828
  0
LINE
  8
0
 10
-21.2095
 20
113.828
 11
-21.3633
 21
114.021
  0
LINE
  8
0
 10
-21.3633
 20
114.021
 11
-21.4866
 21
114.234
  0
LINE
  8
0
 10
-21.4866
 20
114.234
 11
-21.5767
 21
114.464
  0
LINE
  8
0
 10
-21.5767
 20
114.464
 11
-21.6316
 21
114.704
  0
LINE
  8
0
 10
-21.6316
 20
114.704
 11
-21.65
 21
114.95
  0
LINE
  8
0
 10
-21.65
 20
114.95
 11
-21.6316
 21
115.196
  0
LINE
  8
0
 10
-21.6316
 20
115.196
 11
-21.5767
 21
115.436
  0
LINE
  8
0
 10
-21.5767
 20
115.436
 11
-21.4866
 21
115.666
  0
LINE
  8
0
 10
-21.4866
 20
115.666
 11
-21.3633
 21
115.879
  0
LINE
  8
0
 10
-21.3633
 20
115.879
 11
-21.2095
 21
116.072
  0
LINE
  8
0
 10
-21.2095
 20
116.072
 11
-21.0287
 21
116.24
  0
LINE
  8
0
 10
-21.0287
 20
116.24
 11
-20.825
 21
116.379
  0
LINE
  8
0
 10
-20.825
 20
116.379
 11
-20.6028
 21
116.486
  0
LINE
  8
0
 10
-20.6028
 20
116.486
 11
-20.3672
 21
116.559
  0
LINE
  8
0
 10
-20.3672
 20
116.559
 11
-20.1233
 21
116.595
  0
LINE
  8
0
 10
-20.1233
 20
116.595
 11
20.1233
 21
116.595
  0
LINE
  8
0
 10
20.1233
 20
116.595
 11
20.3672
 21
116.559
  0
LINE
  8
0
 10
20.3672
 20
116.559
 11
20.6028
 21
116.486
  0
LINE
  8
0
 10
20.6028
 20
116.486
 11
20.825
 21
116.379
  0
LINE
  8
0
 10
20.825
 20
116.379
 11
21.0287
 21
116.24
  0
LINE
  8
0
 10
21.0287
 20
116.24
 11
21.2095
 21
116.072
  0
LINE
  8
0
 10
21.2095
 20
116.072
 11
21.3633
 21
115.879
  0
LINE
  8
0
 10
21.3633
 20
115.879
 11
21.4866
 21
115.666
  0
LINE
  8
0
 10
21.4866
 20
115.666
 11
21.5767
 21
115.436
  0
LINE
  8
0
 10
21.5767
 20
115.436
 11
21.6316
 21
115.196
  0
LINE
  8
0
 10
21.6316
 20
115.196
 11
21.65
 21
114.95
  0
LINE
  8
0
 10
21.65
 20
114.95
 11
21.6316
 21
114.704
  0
LINE
  8
0
 10
21.6316
 20
114.704
 11
21.5767
 21
114.464
  0
LINE
  8
0
 10
21.5767
 20
114.464
 11
21.4866
 21
114.234
  0
LINE
  8
0
 10
21.4866
 20
114.234
 11
21.3633
 21
114.021
  0
LINE
  8
0
 10
21.3633
 20
114.021
 11
21.2095
 21
113.828
  0
LINE
  8
0
 10
21.2095
 20
113.828
 11
21.0287
 21
113.66
  0
LINE
  8
0
 10
21.0287
 20
113.66
 11
20.825
 21
113.521
  0
LINE
  8
0
 10
20.825
 20
113.521
 11
20.6028
 21
113.414
  0
LINE
  8
0
 10
20.6028
 20
113.414
 11
20.3672
 21
113.341
  0
LINE
  8
0
 10
20.3672
 20
113.341
 11
20.1233
 21
113.305
  0
LINE
  8
0
 10
20.1233
 20
113.305
 11
-20.1233
 21
113.305
  0
LINE
  8
0
 10
-203.457
 20
113.305
 11
-203.701
 21
113.341
  0
LINE
  8
0
 10
-203.701
 20
113.341
 11
-203.936
 21
113.414
  0
LINE
  8
0
 10
-203.936
 20
113.414
 11
-204.158
 21
113.521
  0
LINE
  8
0
 10
-204.158
 20
113.521
 11
-204.362
 21
113.66
  0
LINE
  8
0
 10
-204.362
 20
113.66
 11
-204.543
 21
113.828
  0
LINE
  8
0
 10
-204.543
 20
113.828
 11
-204.697
 21
114.021
  0
LINE
  8
0
 10
-204.697
 20
114.021
 11
-204.82
 21
114.234
  0
LINE
  8
0
 10
-204.82
 20
114.234
 11
-204.91
 21
114.464
  0
LINE
  8
0
 10
-204.91
 20
114.464
 11
-204.965
 21
114.704
  0
LINE
  8
0
 10
-204.965
 20
114.704
 11
-204.983
 21
114.95
  0
LINE
  8
0
 10
-204.983
 20
114.95
 11
-204.965
 21
115.196
  0
LINE
  8
0
 10
-204.965
 20
115.196
 11
-204.91
 21
115.436
  0
LINE
  8
0
 10
-204.91
 20
115.436
 11
-204.82
 21
115.666
  0
LINE
  8
0
 10
-204.82
 20
115.666
 11
-204.697
 21
115.879
  0
LINE
  8
0
 10
-204.697
 20
115.879
 11
-204.543
 21
116.072
  0
LINE
  8
0
 10
-204.543
 20
116.072
 11
-204.362
 21
116.24
  0
LINE
  8
0
 10
-204.362
 20
116.24
 11
-204.158
 21
116.379
  0
LINE
  8
0
 10
-204.158
 20
116.379
 11
-203.936
 21
116.486
  0
LINE
  8
0
 10
-203.936
 20
116.486
 11
-203.701
 21
116.559
  0
LINE
  8
0
 10
-203.701
 20
116.559
 11
-203.457
 21
116.595
  0
LINE
  8
0
 10
-203.457
 20
116.595
 11
-163.21
 21
116.595
  0
LINE
  8
0
 10
-163.21
 20
116.595
 11
-162.966
 21
116.559
  0
LINE
  8
0
 10
-162.966
 20
116.559
 11
-162.731
 21
116.486
  0
LINE
  8
0
 10
-162.731
 20
116.486
 11
-162.508
 21
116.379
  0
LINE
  8
0
 10
-162.508
 20
116.379
 11
-162.305
 21
116.24
  0
LINE
  8
0
 10
-162.305
 20
116.24
 11
-162.124
 21
116.072
  0
LINE
  8
0
 10
-162.124
 20
116.072
 11
-161.97
 21
115.879
  0
LINE
  8
0
 10
-161.97
 20
115.879
 11
-161.847
 21
115.666
  0
LINE
  8
0
 10
-161.847
 20
115.666
 11
-161.757
 21
115.436
  0
LINE
  8
0
 10
-161.757
 20
115.436
 11
-161.702
 21
115.196
  0
LINE
  8
0
 10
-161.702
 20
115.196
 11
-161.683
 21
114.95
  0
LINE
  8
0
 10
-161.683
 20
114.95
 11
-161.702
 21
114.704
  0
LINE
  8
0
 10
-161.702
 20
114.704
 11
-161.757
 21
114.464
  0
LINE
  8
0
 10
-161.757
 20
114.464
 11
-161.847
 21
114.234
  0
LINE
  8
0
 10
-161.847
 20
114.234
 11
-161.97
 21
114.021
  0
LINE
  8
0
 10
-161.97
 20
114.021
 11
-162.124
 21
113.828
  0
LINE
  8
0
 10
-162.124
 20
113.828
 11
-162.305
 21
113.66
  0
LINE
  8
0
 10
-162.305
 20
113.66
 11
-162.508
 21
113.521
  0
LINE
  8
0
 10
-162.508
 20
113.521
 11
-162.731
 21
113.414
  0
LINE
  8
0
 10
-162.731
 20
113.414
 11
-162.966
 21
113.341
  0
LINE
  8
0
 10
-162.966
 20
113.341
 11
-163.21
 21
113.305
  0
LINE
  8
0
 10
-163.21
 20
113.305
 11
-203.457
 21
113.305
  0
LINE
  8
0
 10
314.754
 20
53.3184
 11
314.514
 21
53.3733
  0
LINE
  8
0
 10
314.514
 20
53.3733
 11
314.284
 21
53.4634
  0
LINE
  8
0
 10
314.284
 20
53.4634
 11
314.071
 21
53.5867
  0
LINE
  8
0
 10
314.071
 20
53.5867
 11
313.878
 21
53.7405
  0
LINE
  8
0
 10
313.878
 20
53.7405
 11
313.71
 21
53.9212
  0
LINE
  8
0
 10
313.71
 20
53.9212
 11
313.571
 21
54.125
  0
LINE
  8
0
 10
313.571
 20
54.125
 11
313.464
 21
54.3472
  0
LINE
  8
0
 10
313.464
 20
54.3472
 11
313.391
 21
54.5828
  0
LINE
  8
0
 10
313.391
 20
54.5828
 11
313.355
 21
54.8267
  0
LINE
  8
0
 10
313.355
 20
54.8267
 11
313.355
 21
95.0733
  0
LINE
  8
0
 10
313.355
 20
95.0733
 11
313.391
 21
95.3172
  0
LINE
  8
0
 10
313.391
 20
95.3172
 11
313.464
 21
95.5528
  0
LINE
  8
0
 10
313.464
 20
95.5528
 11
313.571
 21
95.775
  0
LINE
  8
0
 10
313.571
 20
95.775
 11
313.71
 21
95.9788
  0
LINE
  8
0
 10
313.71
 20
95.9788
 11
313.878
 21
96.1595
  0
LINE
  8
0
 10
313.878
 20
96.1595
 11
314.071
 21
96.3133
  0
LINE
  8
0
 10
314.071
 20
96.3133
 11
314.284
 21
96.4366
  0
LINE
  8
0
 10
314.284
 20
96.4366
 11
314.514
 21
96.5267
  0
LINE
  8
0
 10
314.514
 20
96.5267
 11
314.754
 21
96.5816
  0
LINE
  8
0
 10
314.754
 20
96.5816
 11
315
 21
96.6
  0
LINE
  8
0
 10
315
 20
96.6
 11
315.246
 21
96.5816
  0
LINE
  8
0
 10
315.246
 20
96.5816
 11
315.486
 21
96.5267
  0
LINE
  8
0
 10
315.486
 20
96.5267
 11
315.716
 21
96.4366
  0
LINE
  8
0
 10
315.716
 20
96.4366
 11
315.929
 21
96.3133
  0
LINE
  8
0
 10
315.929
 20
96.3133
 11
316.122
 21
96.1595
  0
LINE
  8
0
 10
316.122
 20
96.1595
 11
316.29
 21
95.9788
  0
LINE
  8
0
 10
316.29
 20
95.9788
 11
316.429
 21
95.775
  0
LINE
  8
0
 10
316.429
 20
95.775
 11
316.536
 21
95.5528
  0
LINE
  8
0
 10
316.536
 20
95.5528
 11
316.609
 21
95.3172
  0
LINE
  8
0
 10
316.609
 20
95.3172
 11
316.645
 21
95.0733
  0
LINE
  8
0
 10
316.645
 20
95.0733
 11
316.645
 21
54.8267
  0
LINE
  8
0
 10
316.645
 20
54.8267
 11
316.609
 21
54.5828
  0
LINE
  8
0
 10
316.609
 20
54.5828
 11
316.536
 21
54.3472
  0
LINE
  8
0
 10
316.536
 20
54.3472
 11
316.429
 21
54.125
  0
LINE
  8
0
 10
316.429
 20
54.125
 11
316.29
 21
53.9212
  0
LINE
  8
0
 10
316.29
 20
53.9212
 11
316.122
 21
53.7405
  0
LINE
  8
0
 10
316.122
 20
53.7405
 11
315.929
 21
53.5867
  0
LINE
  8
0
 10
315.929
 20
53.5867
 11
315.716
 21
53.4634
  0
LINE
  8
0
 10
315.716
 20
53.4634
 11
315.486
 21
53.3733
  0
LINE
  8
0
 10
315.486
 20
53.3733
 11
315.246
 21
53.3184
  0
LINE
  8
0
 10
315.246
 20
53.3184
 11
315
 21
53.3
  0
LINE
  8
0
 10
315
 20
53.3
 11
314.754
 21
53.3184
  0
LINE
  8
0
 10
-315.246
 20
53.3184
 11
-315.486
 21
53.3733
  0
LINE
  8
0
 10
-315.486
 20
53.3733
 11
-315.716
 21
53.4634
  0
LINE
  8
0
 10
-315.716
 20
53.4634
 11
-315.929
 21
53.5867
  0
LINE
  8
0
 10
-315.929
 20
53.5867
 11
-316.122
 21
53.7405
  0
LINE
  8
0
 10
-316.122
 20
53.7405
 11
-316.29
 21
53.9212
  0
LINE
  8
0
 10
-316.29
 20
53.9212
 11
-316.429
 21
54.125
  0
LINE
  8
0
 10
-316.429
 20
54.125
 11
-316.536
 21
54.3472
  0
LINE
  8
0
 10
-316.536
 20
54.3472
 11
-316.609
 21
54.5828
  0
LINE
  8
0
 10
-316.609
 20
54.5828
 11
-316.645
 21
54.8267
  0
LINE
  8
0
 10
-316.645
 20
54.8267
 11
-316.645
 21
95.0733
  0
LINE
  8
0
 10
-316.645
 20
95.0733
 11
-316.609
 21
95.3172
  0
LINE
  8
0
 10
-316.609
 20
95.3172
 11
-316.536
 21
95.5528
  0
LINE
  8
0
 10
-316.536
 20
95.5528
 11
-316.429
 21
95.775
  0
LINE
  8
0
 10
-316.429
 20
95.775
 11
-316.29
 21
95.9788
  0
LINE
  8
0
 10
-316.29
 20
95.9788
 11
-316.122
 21
96.1595
  0
LINE
  8
0
 10
-316.122
 20
96.1595
 11
-315.929
 21
96.3133
  0
LINE
  8
0
 10
-315.929
 20
96.3133
 11
-315.716
 21
96.4366
  0
LINE
  8
0
 10
-315.716
 20
96.4366
 11
-315.486
 21
96.5267
  0
LINE
  8
0
 10
-315.486
 20
96.5267
 11
-315.246
 21
96.5816
  0
LINE
  8
0
 10
-315.246
 20
96.5816
 11
-315
 21
96.6
  0
LINE
  8
0
 10
-315
 20
96.6
 11
-314.754
 21
96.5816
  0
LINE
  8
0
 10
-314.754
 20
96.5816
 11
-314.514
 21
96.5267
  0
LINE
  8
0
 10
-314.514
 20
96.5267
 11
-314.284
 21
96.4366
  0
LINE
  8
0
 10
-314.284
 20
96.4366
 11
-314.071
 21
96.3133
  0
LINE
  8
0
 10
-314.071
 20
96.3133
 11
-313.878
 21
96.1595
  0
LINE
  8
0
 10
-313.878
 20
96.1595
 11
-313.71
 21
95.9788
  0
LINE
  8
0
 10
-313.71
 20
95.9788
 11
-313.571
 21
95.775
  0
LINE
  8
0
 10
-313.571
 20
95.775
 11
-313.464
 21
95.5528
  0
LINE
  8
0
 10
-313.464
 20
95.5528
 11
-313.391
 21
95.3172
  0
LINE
  8
0
 10
-313.391
 20
95.3172
 11
-313.355
 21
95.0733
  0
LINE
  8
0
 10
-313.355
 20
95.0733
 11
-313.355
 21
54.8267
  0
LINE
  8
0
 10
-313.355
 20
54.8267
 11
-313.391
 21
54.5828
  0
LINE
  8
0
 10
-313.391
 20
54.5828
 11
-313.464
 21
54.3472
  0
LINE
  8
0
 10
-313.464
 20
54.3472
 11
-313.571
 21
54.125
  0
LINE
  8
0
 10
-313.571
 20
54.125
 11
-313.71
 21
53.9212
  0
LINE
  8
0
 10
-313.71
 20
53.9212
 11
-313.878
 21
53.7405
  0
LINE
  8
0
 10
-313.878
 20
53.7405
 11
-314.071
 21
53.5867
  0
LINE
  8
0
 10
-314.071
 20
53.5867
 11
-314.284
 21
53.4634
  0
LINE
  8
0
 10
-314.284
 20
53.4634
 11
-314.514
 21
53.3733
  0
LINE
  8
0
 10
-314.514
 20
53.3733
 11
-314.754
 21
53.3184
  0
LINE
  8
0
 10
-314.754
 20
53.3184
 11
-315
 21
53.3
  0
LINE
  8
0
 10
-315
 20
53.3
 11
-315.246
 21
53.3184
  0
LINE
  8
0
 10
134.814
 20
57.7577
 11
134.569
 21
57.7917
  0
LINE
  8
0
 10
134.569
 20
57.7917
 11
134.328
 21
57.8526
  0
LINE
  8
0
 10
134.328
 20
57.8526
 11
134.096
 21
57.9395
  0
LINE
  8
0
 10
134.096
 20
57.9395
 11
133.875
 21
58.0514
  0
LINE
  8
0
 10
133.875
 20
58.0514
 11
133.667
 21
58.187
  0
LINE
  8
0
 10
133.667
 20
58.187
 11
133.476
 21
58.3446
  0
LINE
  8
0
 10
133.476
 20
58.3446
 11
133.303
 21
58.5223
  0
LINE
  8
0
 10
133.303
 20
58.5223
 11
133.151
 21
58.7179
  0
LINE
  8
0
 10
133.151
 20
58.7179
 11
133.021
 21
58.9291
  0
LINE
  8
0
 10
133.021
 20
58.9291
 11
132.915
 21
59.1533
  0
LINE
  8
0
 10
132.915
 20
59.1533
 11
132.835
 21
59.3878
  0
LINE
  8
0
 10
132.835
 20
59.3878
 11
132.781
 21
59.6297
  0
LINE
  8
0
 10
132.781
 20
59.6297
 11
132.753
 21
59.8761
  0
LINE
  8
0
 10
132.753
 20
59.8761
 11
132.753
 21
60.1239
  0
LINE
  8
0
 10
132.753
 20
60.1239
 11
132.781
 21
60.3703
  0
LINE
  8
0
 10
132.781
 20
60.3703
 11
132.835
 21
60.6122
  0
LINE
  8
0
 10
132.835
 20
60.6122
 11
132.915
 21
60.8467
  0
LINE
  8
0
 10
132.915
 20
60.8467
 11
133.021
 21
61.0709
  0
LINE
  8
0
 10
133.021
 20
61.0709
 11
133.151
 21
61.2821
  0
LINE
  8
0
 10
133.151
 20
61.2821
 11
133.303
 21
61.4777
  0
LINE
  8
0
 10
133.303
 20
61.4777
 11
133.476
 21
61.6554
  0
LINE
  8
0
 10
133.476
 20
61.6554
 11
133.667
 21
61.813
  0
LINE
  8
0
 10
133.667
 20
61.813
 11
133.875
 21
61.9485
  0
LINE
  8
0
 10
133.875
 20
61.9485
 11
134.096
 21
62.0605
  0
LINE
  8
0
 10
134.096
 20
62.0605
 11
134.328
 21
62.1474
  0
LINE
  8
0
 10
134.328
 20
62.1474
 11
134.569
 21
62.2083
  0
LINE
  8
0
 10
134.569
 20
62.2083
 11
134.814
 21
62.2423
  0
LINE
  8
0
 10
134.814
 20
62.2423
 11
135.062
 21
62.2491
  0
LINE
  8
0
 10
135.062
 20
62.2491
 11
135.309
 21
62.2287
  0
LINE
  8
0
 10
135.309
 20
62.2287
 11
135.552
 21
62.1812
  0
LINE
  8
0
 10
135.552
 20
62.1812
 11
135.789
 21
62.1071
  0
LINE
  8
0
 10
135.789
 20
62.1071
 11
136.016
 21
62.0076
  0
LINE
  8
0
 10
136.016
 20
62.0076
 11
136.231
 21
61.8836
  0
LINE
  8
0
 10
136.231
 20
61.8836
 11
136.43
 21
61.7368
  0
LINE
  8
0
 10
136.43
 20
61.7368
 11
136.613
 21
61.5689
  0
LINE
  8
0
 10
136.613
 20
61.5689
 11
136.776
 21
61.382
  0
LINE
  8
0
 10
136.776
 20
61.382
 11
136.917
 21
61.1783
  0
LINE
  8
0
 10
136.917
 20
61.1783
 11
137.035
 21
60.9602
  0
LINE
  8
0
 10
137.035
 20
60.9602
 11
137.128
 21
60.7306
  0
LINE
  8
0
 10
137.128
 20
60.7306
 11
137.196
 21
60.492
  0
LINE
  8
0
 10
137.196
 20
60.492
 11
137.236
 21
60.2475
  0
LINE
  8
0
 10
137.236
 20
60.2475
 11
137.25
 21
60
  0
LINE
  8
0
 10
137.25
 20
60
 11
137.236
 21
59.7525
  0
LINE
  8
0
 10
137.236
 20
59.7525
 11
137.196
 21
59.508
  0
LINE
  8
0
 10
137.196
 20
59.508
 11
137.128
 21
59.2694
  0
LINE
  8
0
 10
137.128
 20
59.2694
 11
137.035
 21
59.0397
  0
LINE
  8
0
 10
137.035
 20
59.0397
 11
136.917
 21
58.8217
  0
LINE
  8
0
 10
136.917
 20
58.8217
 11
136.776
 21
58.618
  0
LINE
  8
0
 10
136.776
 20
58.618
 11
136.613
 21
58.4311
  0
LINE
  8
0
 10
136.613
 20
58.4311
 11
136.43
 21
58.2632
  0
LINE
  8
0
 10
136.43
 20
58.2632
 11
136.231
 21
58.1164
  0
LINE
  8
0
 10
136.231
 20
58.1164
 11
136.016
 21
57.9924
  0
LINE
  8
0
 10
136.016
 20
57.9924
 11
135.789
 21
57.8928
  0
LINE
  8
0
 10
135.789
 20
57.8928
 11
135.552
 21
57.8188
  0
LINE
  8
0
 10
135.552
 20
57.8188
 11
135.309
 21
57.7713
  0
LINE
  8
0
 10
135.309
 20
57.7713
 11
135.062
 21
57.7509
  0
LINE
  8
0
 10
135.062
 20
57.7509
 11
134.814
 21
57.7577
  0
LINE
  8
0
 10
-45.1858
 20
57.7577
 11
-45.4314
 21
57.7917
  0
LINE
  8
0
 10
-45.4314
 20
57.7917
 11
-45.6716
 21
57.8526
  0
LINE
  8
0
 10
-45.6716
 20
57.8526
 11
-45.9038
 21
57.9395
  0
LINE
  8
0
 10
-45.9038
 20
57.9395
 11
-46.125
 21
58.0514
  0
LINE
  8
0
 10
-46.125
 20
58.0514
 11
-46.3325
 21
58.187
  0
LINE
  8
0
 10
-46.3325
 20
58.187
 11
-46.5239
 21
58.3446
  0
LINE
  8
0
 10
-46.5239
 20
58.3446
 11
-46.6967
 21
58.5223
  0
LINE
  8
0
 10
-46.6967
 20
58.5223
 11
-46.849
 21
58.7179
  0
LINE
  8
0
 10
-46.849
 20
58.7179
 11
-46.9788
 21
58.9291
  0
LINE
  8
0
 10
-46.9788
 20
58.9291
 11
-47.0846
 21
59.1533
  0
LINE
  8
0
 10
-47.0846
 20
59.1533
 11
-47.1651
 21
59.3878
  0
LINE
  8
0
 10
-47.1651
 20
59.3878
 11
-47.2193
 21
59.6297
  0
LINE
  8
0
 10
-47.2193
 20
59.6297
 11
-47.2466
 21
59.8761
  0
LINE
  8
0
 10
-47.2466
 20
59.8761
 11
-47.2466
 21
60.1239
  0
LINE
  8
0
 10
-47.2466
 20
60.1239
 11
-47.2193
 21
60.3703
  0
LINE
  8
0
 10
-47.2193
 20
60.3703
 11
-47.1651
 21
60.6122
  0
LINE
  8
0
 10
-47.1651
 20
60.6122
 11
-47.0846
 21
60.8467
  0
LINE
  8
0
 10
-47.0846
 20
60.8467
 11
-46.9788
 21
61.0709
  0
LINE
  8
0
 10
-46.9788
 20
61.0709
 11
-46.849
 21
61.2821
  0
LINE
  8
0
 10
-46.849
 20
61.2821
 11
-46.6967
 21
61.4777
  0
LINE
  8
0
 10
-46.6967
 20
61.4777
 11
-46.5239
 21
61.6554
  0
LINE
  8
0
 10
-46.5239
 20
61.6554
 11
-46.3325
 21
61.813
  0
LINE
  8
0
 10
-46.3325
 20
61.813
 11
-46.125
 21
61.9485
  0
LINE
  8
0
 10
-46.125
 20
61.9485
 11
-45.9038
 21
62.0605
  0
LINE
  8
0
 10
-45.9038
 20
62.0605
 11
-45.6716
 21
62.1474
  0
LINE
  8
0
 10
-45.6716
 20
62.1474
 11
-45.4314
 21
62.2083
  0
LINE
  8
0
 10
-45.4314
 20
62.2083
 11
-45.1858
 21
62.2423
  0
LINE
  8
0
 10
-45.1858
 20
62.2423
 11
-44.938
 21
62.2491
  0
LINE
  8
0
 10
-44.938
 20
62.2491
 11
-44.6909
 21
62.2287
  0
LINE
  8
0
 10
-44.6909
 20
62.2287
 11
-44.4476
 21
62.1812
  0
LINE
  8
0
 10
-44.4476
 20
62.1812
 11
-44.2111
 21
62.1071
  0
LINE
  8
0
 10
-44.2111
 20
62.1071
 11
-43.984
 21
62.0076
  0
LINE
  8
0
 10
-43.984
 20
62.0076
 11
-43.7694
 21
61.8836
  0
LINE
  8
0
 10
-43.7694
 20
61.8836
 11
-43.5696
 21
61.7368
  0
LINE
  8
0
 10
-43.5696
 20
61.7368
 11
-43.3872
 21
61.5689
  0
LINE
  8
0
 10
-43.3872
 20
61.5689
 11
-43.2244
 21
61.382
  0
LINE
  8
0
 10
-43.2244
 20
61.382
 11
-43.0832
 21
61.1783
  0
LINE
  8
0
 10
-43.0832
 20
61.1783
 11
-42.9652
 21
60.9602
  0
LINE
  8
0
 10
-42.9652
 20
60.9602
 11
-42.8719
 21
60.7306
  0
LINE
  8
0
 10
-42.8719
 20
60.7306
 11
-42.8045
 21
60.492
  0
LINE
  8
0
 10
-42.8045
 20
60.492
 11
-42.7637
 21
60.2475
  0
LINE
  8
0
 10
-42.7637
 20
60.2475
 11
-42.75
 21
60
  0
LINE
  8
0
 10
-42.75
 20
60
 11
-42.7637
 21
59.7525
  0
LINE
  8
0
 10
-42.7637
 20
59.7525
 11
-42.8045
 21
59.508
  0
LINE
  8
0
 10
-42.8045
 20
59.508
 11
-42.8719
 21
59.2694
  0
LINE
  8
0
 10
-42.8719
 20
59.2694
 11
-42.9652
 21
59.0397
  0
LINE
  8
0
 10
-42.9652
 20
59.0397
 11
-43.0832
 21
58.8217
  0
LINE
  8
0
 10
-43.0832
 20
58.8217
 11
-43.2244
 21
58.618
  0
LINE
  8
0
 10
-43.2244
 20
58.618
 11
-43.3872
 21
58.4311
  0
LINE
  8
0
 10
-43.3872
 20
58.4311
 11
-43.5696
 21
58.2632
  0
LINE
  8
0
 10
-43.5696
 20
58.2632
 11
-43.7694
 21
58.1164
  0
LINE
  8
0
 10
-43.7694
 20
58.1164
 11
-43.984
 21
57.9924
  0
LINE
  8
0
 10
-43.984
 20
57.9924
 11
-44.2111
 21
57.8928
  0
LINE
  8
0
 10
-44.2111
 20
57.8928
 11
-44.4476
 21
57.8188
  0
LINE
  8
0
 10
-44.4476
 20
57.8188
 11
-44.6909
 21
57.7713
  0
LINE
  8
0
 10
-44.6909
 20
57.7713
 11
-44.938
 21
57.7509
  0
LINE
  8
0
 10
-44.938
 20
57.7509
 11
-45.1858
 21
57.7577
  0
LINE
  8
0
 10
-135.186
 20
57.7577
 11
-135.431
 21
57.7917
  0
LINE
  8
0
 10
-135.431
 20
57.7917
 11
-135.672
 21
57.8526
  0
LINE
  8
0
 10
-135.672
 20
57.8526
 11
-135.904
 21
57.9395
  0
LINE
  8
0
 10
-135.904
 20
57.9395
 11
-136.125
 21
58.0514
  0
LINE
  8
0
 10
-136.125
 20
58.0514
 11
-136.333
 21
58.187
  0
LINE
  8
0
 10
-136.333
 20
58.187
 11
-136.524
 21
58.3446
  0
LINE
  8
0
 10
-136.524
 20
58.3446
 11
-136.697
 21
58.5223
  0
LINE
  8
0
 10
-136.697
 20
58.5223
 11
-136.849
 21
58.7179
  0
LINE
  8
0
 10
-136.849
 20
58.7179
 11
-136.979
 21
58.9291
  0
LINE
  8
0
 10
-136.979
 20
58.9291
 11
-137.085
 21
59.1533
  0
LINE
  8
0
 10
-137.085
 20
59.1533
 11
-137.165
 21
59.3878
  0
LINE
  8
0
 10
-137.165
 20
59.3878
 11
-137.219
 21
59.6297
  0
LINE
  8
0
 10
-137.219
 20
59.6297
 11
-137.247
 21
59.8761
  0
LINE
  8
0
 10
-137.247
 20
59.8761
 11
-137.247
 21
60.1239
  0
LINE
  8
0
 10
-137.247
 20
60.1239
 11
-137.219
 21
60.3703
  0
LINE
  8
0
 10
-137.219
 20
60.3703
 11
-137.165
 21
60.6122
  0
LINE
  8
0
 10
-137.165
 20
60.6122
 11
-137.085
 21
60.8467
  0
LINE
  8
0
 10
-137.085
 20
60.8467
 11
-136.979
 21
61.0709
  0
LINE
  8
0
 10
-136.979
 20
61.0709
 11
-136.849
 21
61.2821
  0
LINE
  8
0
 10
-136.849
 20
61.2821
 11
-136.697
 21
61.4777
  0
LINE
  8
0
 10
-136.697
 20
61.4777
 11
-136.524
 21
61.6554
  0
LINE
  8
0
 10
-136.524
 20
61.6554
 11
-136.333
 21
61.813
  0
LINE
  8
0
 10
-136.333
 20
61.813
 11
-136.125
 21
61.9485
  0
LINE
  8
0
 10
-136.125
 20
61.9485
 11
-135.904
 21
62.0605
  0
LINE
  8
0
 10
-135.904
 20
62.0605
 11
-135.672
 21
62.1474
  0
LINE
  8
0
 10
-135.672
 20
62.1474
 11
-135.431
 21
62.2083
  0
LINE
  8
0
 10
-135.431
 20
62.2083
 11
-135.186
 21
62.2423
  0
LINE
  8
0
 10
-135.186
 20
62.2423
 11
-134.938
 21
62.2491
  0
LINE
  8
0
 10
-134.938
 20
62.2491
 11
-134.691
 21
62.2287
  0
LINE
  8
0
 10
-134.691
 20
62.2287
 11
-134.448
 21
62.1812
  0
LINE
  8
0
 10
-134.448
 20
62.1812
 11
-134.211
 21
62.1071
  0
LINE
  8
0
 10
-134.211
 20
62.1071
 11
-133.984
 21
62.0076
  0
LINE
  8
0
 10
-133.984
 20
62.0076
 11
-133.769
 21
61.8836
  0
LINE
  8
0
 10
-133.769
 20
61.8836
 11
-133.57
 21
61.7368
  0
LINE
  8
0
 10
-133.57
 20
61.7368
 11
-133.387
 21
61.5689
  0
LINE
  8
0
 10
-133.387
 20
61.5689
 11
-133.224
 21
61.382
  0
LINE
  8
0
 10
-133.224
 20
61.382
 11
-133.083
 21
61.1783
  0
LINE
  8
0
 10
-133.083
 20
61.1783
 11
-132.965
 21
60.9602
  0
LINE
  8
0
 10
-132.965
 20
60.9602
 11
-132.872
 21
60.7306
  0
LINE
  8
0
 10
-132.872
 20
60.7306
 11
-132.804
 21
60.492
  0
LINE
  8
0
 10
-132.804
 20
60.492
 11
-132.764
 21
60.2475
  0
LINE
  8
0
 10
-132.764
 20
60.2475
 11
-132.75
 21
60
  0
LINE
  8
0
 10
-132.75
 20
60
 11
-132.764
 21
59.7525
  0
LINE
  8
0
 10
-132.764
 20
59.7525
 11
-132.804
 21
59.508
  0
LINE
  8
0
 10
-132.804
 20
59.508
 11
-132.872
 21
59.2694
  0
LINE
  8
0
 10
-132.872
 20
59.2694
 11
-132.965
 21
59.0397
  0
LINE
  8
0
 10
-132.965
 20
59.0397
 11
-133.083
 21
58.8217
  0
LINE
  8
0
 10
-133.083
 20
58.8217
 11
-133.224
 21
58.618
  0
LINE
  8
0
 10
-133.224
 20
58.618
 11
-133.387
 21
58.4311
  0
LINE
  8
0
 10
-133.387
 20
58.4311
 11
-133.57
 21
58.2632
  0
LINE
  8
0
 10
-133.57
 20
58.2632
 11
-133.769
 21
58.1164
  0
LINE
  8
0
 10
-133.769
 20
58.1164
 11
-133.984
 21
57.9924
  0
LINE
  8
0
 10
-133.984
 20
57.9924
 11
-134.211
 21
57.8928
  0
LINE
  8
0
 10
-134.211
 20
57.8928
 11
-134.448
 21
57.8188
  0
LINE
  8
0
 10
-134.448
 20
57.8188
 11
-134.691
 21
57.7713
  0
LINE
  8
0
 10
-134.691
 20
57.7713
 11
-134.938
 21
57.7509
  0
LINE
  8
0
 10
-134.938
 20
57.7509
 11
-135.186
 21
57.7577
  0
LINE
  8
0
 10
224.814
 20
57.7577
 11
224.569
 21
57.7917
  0
LINE
  8
0
 10
224.569
 20
57.7917
 11
224.328
 21
57.8526
  0
LINE
  8
0
 10
224.328
 20
57.8526
 11
224.096
 21
57.9395
  0
LINE
  8
0
 10
224.096
 20
57.9395
 11
223.875
 21
58.0514
  0
LINE
  8
0
 10
223.875
 20
58.0514
 11
223.667
 21
58.187
  0
LINE
  8
0
 10
223.667
 20
58.187
 11
223.476
 21
58.3446
  0
LINE
  8
0
 10
223.476
 20
58.3446
 11
223.303
 21
58.5223
  0
LINE
  8
0
 10
223.303
 20
58.5223
 11
223.151
 21
58.7179
  0
LINE
  8
0
 10
223.151
 20
58.7179
 11
223.021
 21
58.9291
  0
LINE
  8
0
 10
223.021
 20
58.9291
 11
222.915
 21
59.1533
  0
LINE
  8
0
 10
222.915
 20
59.1533
 11
222.835
 21
59.3878
  0
LINE
  8
0
 10
222.835
 20
59.3878
 11
222.781
 21
59.6297
  0
LINE
  8
0
 10
222.781
 20
59.6297
 11
222.753
 21
59.8761
  0
LINE
  8
0
 10
222.753
 20
59.8761
 11
222.753
 21
60.1239
  0
LINE
  8
0
 10
222.753
 20
60.1239
 11
222.781
 21
60.3703
  0
LINE
  8
0
 10
222.781
 20
60.3703
 11
222.835
 21
60.6122
  0
LINE
  8
0
 10
222.835
 20
60.6122
 11
222.915
 21
60.8467
  0
LINE
  8
0
 10
222.915
 20
60.8467
 11
223.021
 21
61.0709
  0
LINE
  8
0
 10
223.021
 20
61.0709
 11
223.151
 21
61.2821
  0
LINE
  8
0
 10
223.151
 20
61.2821
 11
223.303
 21
61.4777
  0
LINE
  8
0
 10
223.303
 20
61.4777
 11
223.476
 21
61.6554
  0
LINE
  8
0
 10
223.476
 20
61.6554
 11
223.667
 21
61.813
  0
LINE
  8
0
 10
223.667
 20
61.813
 11
223.875
 21
61.9485
  0
LINE
  8
0
 10
223.875
 20
61.9485
 11
224.096
 21
62.0605
  0
LINE
  8
0
 10
224.096
 20
62.0605
 11
224.328
 21
62.1474
  0
LINE
  8
0
 10
224.328
 20
62.1474
 11
224.569
 21
62.2083
  0
LINE
  8
0
 10
224.569
 20
62.2083
 11
224.814
 21
62.2423
  0
LINE
  8
0
 10
224.814
 20
62.2423
 11
225.062
 21
62.2491
  0
LINE
  8
0
 10
225.062
 20
62.2491
 11
225.309
 21
62.2287
  0
LINE
  8
0
 10
225.309
 20
62.2287
 11
225.552
 21
62.1812
  0
LINE
  8
0
 10
225.552
 20
62.1812
 11
225.789
 21
62.1071
  0
LINE
  8
0
 10
225.789
 20
62.1071
 11
226.016
 21
62.0076
  0
LINE
  8
0
 10
226.016
 20
62.0076
 11
226.231
 21
61.8836
  0
LINE
  8
0
 10
226.231
 20
61.8836
 11
226.43
 21
61.7368
  0
LINE
  8
0
 10
226.43
 20
61.7368
 11
226.613
 21
61.5689
  0
LINE
  8
0
 10
226.613
 20
61.5689
 11
226.776
 21
61.382
  0
LINE
  8
0
 10
226.776
 20
61.382
 11
226.917
 21
61.1783
  0
LINE
  8
0
 10
226.917
 20
61.1783
 11
227.035
 21
60.9602
  0
LINE
  8
0
 10
227.035
 20
60.9602
 11
227.128
 21
60.7306
  0
LINE
  8
0
 10
227.128
 20
60.7306
 11
227.196
 21
60.492
  0
LINE
  8
0
 10
227.196
 20
60.492
 11
227.236
 21
60.2475
  0
LINE
  8
0
 10
227.236
 20
60.2475
 11
227.25
 21
60
  0
LINE
  8
0
 10
227.25
 20
60
 11
227.236
 21
59.7525
  0
LINE
  8
0
 10
227.236
 20
59.7525
 11
227.196
 21
59.508
  0
LINE
  8
0
 10
227.196
 20
59.508
 11
227.128
 21
59.2694
  0
LINE
  8
0
 10
227.128
 20
59.2694
 11
227.035
 21
59.0397
  0
LINE
  8
0
 10
227.035
 20
59.0397
 11
226.917
 21
58.8217
  0
LINE
  8
0
 10
226.917
 20
58.8217
 11
226.776
 21
58.618
  0
LINE
  8
0
 10
226.776
 20
58.618
 11
226.613
 21
58.4311
  0
LINE
  8
0
 10
226.613
 20
58.4311
 11
226.43
 21
58.2632
  0
LINE
  8
0
 10
226.43
 20
58.2632
 11
226.231
 21
58.1164
  0
LINE
  8
0
 10
226.231
 20
58.1164
 11
226.016
 21
57.9924
  0
LINE
  8
0
 10
226.016
 20
57.9924
 11
225.789
 21
57.8928
  0
LINE
  8
0
 10
225.789
 20
57.8928
 11
225.552
 21
57.8188
  0
LINE
  8
0
 10
225.552
 20
57.8188
 11
225.309
 21
57.7713
  0
LINE
  8
0
 10
225.309
 20
57.7713
 11
225.062
 21
57.7509
  0
LINE
  8
0
 10
225.062
 20
57.7509
 11
224.814
 21
57.7577
  0
LINE
  8
0
 10
-225.186
 20
57.7577
 11
-225.431
 21
57.7917
  0
LINE
  8
0
 10
-225.431
 20
57.7917
 11
-225.672
 21
57.8526
  0
LINE
  8
0
 10
-225.672
 20
57.8526
 11
-225.904
 21
57.9395
  0
LINE
  8
0
 10
-225.904
 20
57.9395
 11
-226.125
 21
58.0514
  0
LINE
  8
0
 10
-226.125
 20
58.0514
 11
-226.333
 21
58.187
  0
LINE
  8
0
 10
-226.333
 20
58.187
 11
-226.524
 21
58.3446
  0
LINE
  8
0
 10
-226.524
 20
58.3446
 11
-226.697
 21
58.5223
  0
LINE
  8
0
 10
-226.697
 20
58.5223
 11
-226.849
 21
58.7179
  0
LINE
  8
0
 10
-226.849
 20
58.7179
 11
-226.979
 21
58.9291
  0
LINE
  8
0
 10
-226.979
 20
58.9291
 11
-227.085
 21
59.1533
  0
LINE
  8
0
 10
-227.085
 20
59.1533
 11
-227.165
 21
59.3878
  0
LINE
  8
0
 10
-227.165
 20
59.3878
 11
-227.219
 21
59.6297
  0
LINE
  8
0
 10
-227.219
 20
59.6297
 11
-227.247
 21
59.8761
  0
LINE
  8
0
 10
-227.247
 20
59.8761
 11
-227.247
 21
60.1239
  0
LINE
  8
0
 10
-227.247
 20
60.1239
 11
-227.219
 21
60.3703
  0
LINE
  8
0
 10
-227.219
 20
60.3703
 11
-227.165
 21
60.6122
  0
LINE
  8
0
 10
-227.165
 20
60.6122
 11
-227.085
 21
60.8467
  0
LINE
  8
0
 10
-227.085
 20
60.8467
 11
-226.979
 21
61.0709
  0
LINE
  8
0
 10
-226.979
 20
61.0709
 11
-226.849
 21
61.2821
  0
LINE
  8
0
 10
-226.849
 20
61.2821
 11
-226.697
 21
61.4777
  0
LINE
  8
0
 10
-226.697
 20
61.4777
 11
-226.524
 21
61.6554
  0
LINE
  8
0
 10
-226.524
 20
61.6554
 11
-226.333
 21
61.813
  0
LINE
  8
0
 10
-226.333
 20
61.813
 11
-226.125
 21
61.9485
  0
LINE
  8
0
 10
-226.125
 20
61.9485
 11
-225.904
 21
62.0605
  0
LINE
  8
0
 10
-225.904
 20
62.0605
 11
-225.672
 21
62.1474
  0
LINE
  8
0
 10
-225.672
 20
62.1474
 11
-225.431
 21
62.2083
  0
LINE
  8
0
 10
-225.431
 20
62.2083
 11
-225.186
 21
62.2423
  0
LINE
  8
0
 10
-225.186
 20
62.2423
 11
-224.938
 21
62.2491
  0
LINE
  8
0
 10
-224.938
 20
62.2491
 11
-224.691
 21
62.2287
  0
LINE
  8
0
 10
-224.691
 20
62.2287
 11
-224.448
 21
62.1812
  0
LINE
  8
0
 10
-224.448
 20
62.1812
 11
-224.211
 21
62.1071
  0
LINE
  8
0
 10
-224.211
 20
62.1071
 11
-223.984
 21
62.0076
  0
LINE
  8
0
 10
-223.984
 20
62.0076
 11
-223.769
 21
61.8836
  0
LINE
  8
0
 10
-223.769
 20
61.8836
 11
-223.57
 21
61.7368
  0
LINE
  8
0
 10
-223.57
 20
61.7368
 11
-223.387
 21
61.5689
  0
LINE
  8
0
 10
-223.387
 20
61.5689
 11
-223.224
 21
61.382
  0
LINE
  8
0
 10
-223.224
 20
61.382
 11
-223.083
 21
61.1783
  0
LINE
  8
0
 10
-223.083
 20
61.1783
 11
-222.965
 21
60.9602
  0
LINE
  8
0
 10
-222.965
 20
60.9602
 11
-222.872
 21
60.7306
  0
LINE
  8
0
 10
-222.872
 20
60.7306
 11
-222.804
 21
60.492
  0
LINE
  8
0
 10
-222.804
 20
60.492
 11
-222.764
 21
60.2475
  0
LINE
  8
0
 10
-222.764
 20
60.2475
 11
-222.75
 21
60
  0
LINE
  8
0
 10
-222.75
 20
60
 11
-222.764
 21
59.7525
  0
LINE
  8
0
 10
-222.764
 20
59.7525
 11
-222.804
 21
59.508
  0
LINE
  8
0
 10
-222.804
 20
59.508
 11
-222.872
 21
59.2694
  0
LINE
  8
0
 10
-222.872
 20
59.2694
 11
-222.965
 21
59.0397
  0
LINE
  8
0
 10
-222.965
 20
59.0397
 11
-223.083
 21
58.8217
  0
LINE
  8
0
 10
-223.083
 20
58.8217
 11
-223.224
 21
58.618
  0
LINE
  8
0
 10
-223.224
 20
58.618
 11
-223.387
 21
58.4311
  0
LINE
  8
0
 10
-223.387
 20
58.4311
 11
-223.57
 21
58.2632
  0
LINE
  8
0
 10
-223.57
 20
58.2632
 11
-223.769
 21
58.1164
  0
LINE
  8
0
 10
-223.769
 20
58.1164
 11
-223.984
 21
57.9924
  0
LINE
  8
0
 10
-223.984
 20
57.9924
 11
-224.211
 21
57.8928
  0
LINE
  8
0
 10
-224.211
 20
57.8928
 11
-224.448
 21
57.8188
  0
LINE
  8
0
 10
-224.448
 20
57.8188
 11
-224.691
 21
57.7713
  0
LINE
  8
0
 10
-224.691
 20
57.7713
 11
-224.938
 21
57.7509
  0
LINE
  8
0
 10
-224.938
 20
57.7509
 11
-225.186
 21
57.7577
  0
LINE
  8
0
 10
44.8142
 20
57.7577
 11
44.5686
 21
57.7917
  0
LINE
  8
0
 10
44.5686
 20
57.7917
 11
44.3283
 21
57.8526
  0
LINE
  8
0
 10
44.3283
 20
57.8526
 11
44.0962
 21
57.9395
  0
LINE
  8
0
 10
44.0962
 20
57.9395
 11
43.875
 21
58.0514
  0
LINE
  8
0
 10
43.875
 20
58.0514
 11
43.6675
 21
58.187
  0
LINE
  8
0
 10
43.6675
 20
58.187
 11
43.4761
 21
58.3446
  0
LINE
  8
0
 10
43.4761
 20
58.3446
 11
43.3033
 21
58.5223
  0
LINE
  8
0
 10
43.3033
 20
58.5223
 11
43.151
 21
58.7179
  0
LINE
  8
0
 10
43.151
 20
58.7179
 11
43.0212
 21
58.9291
  0
LINE
  8
0
 10
43.0212
 20
58.9291
 11
42.9154
 21
59.1533
  0
LINE
  8
0
 10
42.9154
 20
59.1533
 11
42.8349
 21
59.3878
  0
LINE
  8
0
 10
42.8349
 20
59.3878
 11
42.7807
 21
59.6297
  0
LINE
  8
0
 10
42.7807
 20
59.6297
 11
42.7534
 21
59.8761
  0
LINE
  8
0
 10
42.7534
 20
59.8761
 11
42.7534
 21
60.1239
  0
LINE
  8
0
 10
42.7534
 20
60.1239
 11
42.7807
 21
60.3703
  0
LINE
  8
0
 10
42.7807
 20
60.3703
 11
42.8349
 21
60.6122
  0
LINE
  8
0
 10
42.8349
 20
60.6122
 11
42.9154
 21
60.8467
  0
LINE
  8
0
 10
42.9154
 20
60.8467
 11
43.0212
 21
61.0709
  0
LINE
  8
0
 10
43.0212
 20
61.0709
 11
43.151
 21
61.2821
  0
LINE
  8
0
 10
43.151
 20
61.2821
 11
43.3033
 21
61.4777
  0
LINE
  8
0
 10
43.3033
 20
61.4777
 11
43.4761
 21
61.6554
  0
LINE
  8
0
 10
43.4761
 20
61.6554
 11
43.6675
 21
61.813
  0
LINE
  8
0
 10
43.6675
 20
61.813
 11
43.875
 21
61.9485
  0
LINE
  8
0
 10
43.875
 20
61.9485
 11
44.0962
 21
62.0605
  0
LINE
  8
0
 10
44.0962
 20
62.0605
 11
44.3283
 21
62.1474
  0
LINE
  8
0
 10
44.3283
 20
62.1474
 11
44.5686
 21
62.2083
  0
LINE
  8
0
 10
44.5686
 20
62.2083
 11
44.8142
 21
62.2423
  0
LINE
  8
0
 10
44.8142
 20
62.2423
 11
45.062
 21
62.2491
  0
LINE
  8
0
 10
45.062
 20
62.2491
 11
45.309
 21
62.2287
  0
LINE
  8
0
 10
45.309
 20
62.2287
 11
45.5523
 21
62.1812
  0
LINE
  8
0
 10
45.5523
 20
62.1812
 11
45.7889
 21
62.1071
  0
LINE
  8
0
 10
45.7889
 20
62.1071
 11
46.0159
 21
62.0076
  0
LINE
  8
0
 10
46.0159
 20
62.0076
 11
46.2306
 21
61.8836
  0
LINE
  8
0
 10
46.2306
 20
61.8836
 11
46.4304
 21
61.7368
  0
LINE
  8
0
 10
46.4304
 20
61.7368
 11
46.6128
 21
61.5689
  0
LINE
  8
0
 10
46.6128
 20
61.5689
 11
46.7756
 21
61.382
  0
LINE
  8
0
 10
46.7756
 20
61.382
 11
46.9168
 21
61.1783
  0
LINE
  8
0
 10
46.9168
 20
61.1783
 11
47.0348
 21
60.9602
  0
LINE
  8
0
 10
47.0348
 20
60.9602
 11
47.1281
 21
60.7306
  0
LINE
  8
0
 10
47.1281
 20
60.7306
 11
47.1955
 21
60.492
  0
LINE
  8
0
 10
47.1955
 20
60.492
 11
47.2363
 21
60.2475
  0
LINE
  8
0
 10
47.2363
 20
60.2475
 11
47.25
 21
60
  0
LINE
  8
0
 10
47.25
 20
60
 11
47.2363
 21
59.7525
  0
LINE
  8
0
 10
47.2363
 20
59.7525
 11
47.1955
 21
59.508
  0
LINE
  8
0
 10
47.1955
 20
59.508
 11
47.1281
 21
59.2694
  0
LINE
  8
0
 10
47.1281
 20
59.2694
 11
47.0348
 21
59.0397
  0
LINE
  8
0
 10
47.0348
 20
59.0397
 11
46.9168
 21
58.8217
  0
LINE
  8
0
 10
46.9168
 20
58.8217
 11
46.7756
 21
58.618
  0
LINE
  8
0
 10
46.7756
 20
58.618
 11
46.6128
 21
58.4311
  0
LINE
  8
0
 10
46.6128
 20
58.4311
 11
46.4304
 21
58.2632
  0
LINE
  8
0
 10
46.4304
 20
58.2632
 11
46.2306
 21
58.1164
  0
LINE
  8
0
 10
46.2306
 20
58.1164
 11
46.0159
 21
57.9924
  0
LINE
  8
0
 10
46.0159
 20
57.9924
 11
45.7889
 21
57.8928
  0
LINE
  8
0
 10
45.7889
 20
57.8928
 11
45.5523
 21
57.8188
  0
LINE
  8
0
 10
45.5523
 20
57.8188
 11
45.309
 21
57.7713
  0
LINE
  8
0
 10
45.309
 20
57.7713
 11
45.062
 21
57.7509
  0
LINE
  8
0
 10
45.062
 20
57.7509
 11
44.8142
 21
57.7577
  0
LINE
  8
0
 10
-252.5
 20
-52.5
 11
-253.023
 21
-52.4726
  0
LINE
  8
0
 10
-253.023
 20
-52.4726
 11
-253.54
 21
-52.3907
  0
LINE
  8
0
 10
-253.54
 20
-52.3907
 11
-254.045
 21
-52.2553
  0
LINE
  8
0
 10
-254.045
 20
-52.2553
 11
-254.534
 21
-52.0677
  0
LINE
  8
0
 10
-254.534
 20
-52.0677
 11
-255
 21
-51.8301
  0
LINE
  8
0
 10
-255
 20
-51.8301
 11
-255.439
 21
-51.5451
  0
LINE
  8
0
 10
-255.439
 20
-51.5451
 11
-255.846
 21
-51.2157
  0
LINE
  8
0
 10
-255.846
 20
-51.2157
 11
-256.216
 21
-50.8457
  0
LINE
  8
0
 10
-256.216
 20
-50.8457
 11
-256.545
 21
-50.4389
  0
LINE
  8
0
 10
-256.545
 20
-50.4389
 11
-256.83
 21
-50
  0
LINE
  8
0
 10
-256.83
 20
-50
 11
-257.068
 21
-49.5337
  0
LINE
  8
0
 10
-257.068
 20
-49.5337
 11
-257.255
 21
-49.0451
  0
LINE
  8
0
 10
-257.255
 20
-49.0451
 11
-257.391
 21
-48.5396
  0
LINE
  8
0
 10
-257.391
 20
-48.5396
 11
-257.473
 21
-48.0226
  0
LINE
  8
0
 10
-257.473
 20
-48.0226
 11
-257.5
 21
-47.5
  0
LINE
  8
0
 10
-257.5
 20
-47.5
 11
-257.5
 21
47.5
  0
LINE
  8
0
 10
-257.5
 20
47.5
 11
-257.473
 21
48.0226
  0
LINE
  8
0
 10
-257.473
 20
48.0226
 11
-257.391
 21
48.5396
  0
LINE
  8
0
 10
-257.391
 20
48.5396
 11
-257.255
 21
49.0451
  0
LINE
  8
0
 10
-257.255
 20
49.0451
 11
-257.068
 21
49.5337
  0
LINE
  8
0
 10
-257.068
 20
49.5337
 11
-256.83
 21
50
  0
LINE
  8
0
 10
-256.83
 20
50
 11
-256.545
 21
50.4389
  0
LINE
  8
0
 10
-256.545
 20
50.4389
 11
-256.216
 21
50.8457
  0
LINE
  8
0
 10
-256.216
 20
50.8457
 11
-255.846
 21
51.2157
  0
LINE
  8
0
 10
-255.846
 20
51.2157
 11
-255.439
 21
51.5451
  0
LINE
  8
0
 10
-255.439
 20
51.5451
 11
-255
 21
51.8301
  0
LINE
  8
0
 10
-255
 20
51.8301
 11
-254.534
 21
52.0677
  0
LINE
  8
0
 10
-254.534
 20
52.0677
 11
-254.045
 21
52.2553
  0
LINE
  8
0
 10
-254.045
 20
52.2553
 11
-253.54
 21
52.3907
  0
LINE
  8
0
 10
-253.54
 20
52.3907
 11
-253.023
 21
52.4726
  0
LINE
  8
0
 10
-253.023
 20
52.4726
 11
-252.5
 21
52.5
  0
LINE
  8
0
 10
-252.5
 20
52.5
 11
252.5
 21
52.5
  0
LINE
  8
0
 10
252.5
 20
52.5
 11
253.023
 21
52.4726
  0
LINE
  8
0
 10
253.023
 20
52.4726
 11
253.54
 21
52.3907
  0
LINE
  8
0
 10
253.54
 20
52.3907
 11
254.045
 21
52.2553
  0
LINE
  8
0
 10
254.045
 20
52.2553
 11
254.534
 21
52.0677
  0
LINE
  8
0
 10
254.534
 20
52.0677
 11
255
 21
51.8301
  0
LINE
  8
0
 10
255
 20
51.8301
 11
255.439
 21
51.5451
  0
LINE
  8
0
 10
255.439
 20
51.5451
 11
255.846
 21
51.2157
  0
LINE
  8
0
 10
255.846
 20
51.2157
 11
256.216
 21
50.8457
  0
LINE
  8
0
 10
256.216
 20
50.8457
 11
256.545
 21
50.4389
  0
LINE
  8
0
 10
256.545
 20
50.4389
 11
256.83
 21
50
  0
LINE
  8
0
 10
256.83
 20
50
 11
257.068
 21
49.5337
  0
LINE
  8
0
 10
257.068
 20
49.5337
 11
257.255
 21
49.0451
  0
LINE
  8
0
 10
257.255
 20
49.0451
 11
257.391
 21
48.5396
  0
LINE
  8
0
 10
257.391
 20
48.5396
 11
257.473
 21
48.0226
  0
LINE
  8
0
 10
257.473
 20
48.0226
 11
257.5
 21
47.5
  0
LINE
  8
0
 10
257.5
 20
47.5
 11
257.5
 21
-47.5
  0
LINE
  8
0
 10
257.5
 20
-47.5
 11
257.473
 21
-48.0226
  0
LINE
  8
0
 10
257.473
 20
-48.0226
 11
257.391
 21
-48.5396
  0
LINE
  8
0
 10
257.391
 20
-48.5396
 11
257.255
 21
-49.0451
  0
LINE
  8
0
 10
257.255
 20
-49.0451
 11
257.068
 21
-49.5337
  0
LINE
  8
0
 10
257.068
 20
-49.5337
 11
256.83
 21
-50
  0
LINE
  8
0
 10
256.83
 20
-50
 11
256.545
 21
-50.4389
  0
LINE
  8
0
 10
256.545
 20
-50.4389
 11
256.216
 21
-50.8457
  0
LINE
  8
0
 10
256.216
 20
-50.8457
 11
255.846
 21
-51.2157
  0
LINE
  8
0
 10
255.846
 20
-51.2157
 11
255.439
 21
-51.5451
  0
LINE
  8
0
 10
255.439
 20
-51.5451
 11
255
 21
-51.8301
  0
LINE
  8
0
 10
255
 20
-51.8301
 11
254.534
 21
-52.0677
  0
LINE
  8
0
 10
254.534
 20
-52.0677
 11
254.045
 21
-52.2553
  0
LINE
  8
0
 10
254.045
 20
-52.2553
 11
253.54
 21
-52.3907
  0
LINE
  8
0
 10
253.54
 20
-52.3907
 11
253.023
 21
-52.4726
  0
LINE
  8
0
 10
253.023
 20
-52.4726
 11
252.5
 21
-52.5
  0
LINE
  8
0
 10
252.5
 20
-52.5
 11
-252.5
 21
-52.5
  0
LINE
  8
0
 10
-265.309
 20
17.7713
 11
-265.552
 21
17.8188
  0
LINE
  8
0
 10
-265.552
 20
17.8188
 11
-265.789
 21
17.8928
  0
LINE
  8
0
 10
-265.789
 20
17.8928
 11
-266.016
 21
17.9924
  0
LINE
  8
0
 10
-266.016
 20
17.9924
 11
-266.231
 21
18.1164
  0
LINE
  8
0
 10
-266.231
 20
18.1164
 11
-266.43
 21
18.2632
  0
LINE
  8
0
 10
-266.43
 20
18.2632
 11
-266.613
 21
18.4311
  0
LINE
  8
0
 10
-266.613
 20
18.4311
 11
-266.776
 21
18.618
  0
LINE
  8
0
 10
-266.776
 20
18.618
 11
-266.917
 21
18.8217
  0
LINE
  8
0
 10
-266.917
 20
18.8217
 11
-267.035
 21
19.0397
  0
LINE
  8
0
 10
-267.035
 20
19.0397
 11
-267.128
 21
19.2694
  0
LINE
  8
0
 10
-267.128
 20
19.2694
 11
-267.196
 21
19.508
  0
LINE
  8
0
 10
-267.196
 20
19.508
 11
-267.236
 21
19.7525
  0
LINE
  8
0
 10
-267.236
 20
19.7525
 11
-267.25
 21
20
  0
LINE
  8
0
 10
-267.25
 20
20
 11
-267.236
 21
20.2475
  0
LINE
  8
0
 10
-267.236
 20
20.2475
 11
-267.196
 21
20.492
  0
LINE
  8
0
 10
-267.196
 20
20.492
 11
-267.128
 21
20.7306
  0
LINE
  8
0
 10
-267.128
 20
20.7306
 11
-267.035
 21
20.9602
  0
LINE
  8
0
 10
-267.035
 20
20.9602
 11
-266.917
 21
21.1783
  0
LINE
  8
0
 10
-266.917
 20
21.1783
 11
-266.776
 21
21.382
  0
LINE
  8
0
 10
-266.776
 20
21.382
 11
-266.613
 21
21.5689
  0
LINE
  8
0
 10
-266.613
 20
21.5689
 11
-266.43
 21
21.7368
  0
LINE
  8
0
 10
-266.43
 20
21.7368
 11
-266.231
 21
21.8836
  0
LINE
  8
0
 10
-266.231
 20
21.8836
 11
-266.016
 21
22.0076
  0
LINE
  8
0
 10
-266.016
 20
22.0076
 11
-265.789
 21
22.1071
  0
LINE
  8
0
 10
-265.789
 20
22.1071
 11
-265.552
 21
22.1811
  0
LINE
  8
0
 10
-265.552
 20
22.1811
 11
-265.309
 21
22.2287
  0
LINE
  8
0
 10
-265.309
 20
22.2287
 11
-265.062
 21
22.2491
  0
LINE
  8
0
 10
-265.062
 20
22.2491
 11
-264.814
 21
22.2423
  0
LINE
  8
0
 10
-264.814
 20
22.2423
 11
-264.569
 21
22.2083
  0
LINE
  8
0
 10
-264.569
 20
22.2083
 11
-264.328
 21
22.1474
  0
LINE
  8
0
 10
-264.328
 20
22.1474
 11
-264.096
 21
22.0605
  0
LINE
  8
0
 10
-264.096
 20
22.0605
 11
-263.875
 21
21.9485
  0
LINE
  8
0
 10
-263.875
 20
21.9485
 11
-263.667
 21
21.813
  0
LINE
  8
0
 10
-263.667
 20
21.813
 11
-263.476
 21
21.6554
  0
LINE
  8
0
 10
-263.476
 20
21.6554
 11
-263.303
 21
21.4777
  0
LINE
  8
0
 10
-263.303
 20
21.4777
 11
-263.151
 21
21.2821
  0
LINE
  8
0
 10
-263.151
 20
21.2821
 11
-263.021
 21
21.0709
  0
LINE
  8
0
 10
-263.021
 20
21.0709
 11
-262.915
 21
20.8467
  0
LINE
  8
0
 10
-262.915
 20
20.8467
 11
-262.835
 21
20.6122
  0
LINE
  8
0
 10
-262.835
 20
20.6122
 11
-262.781
 21
20.3703
  0
LINE
  8
0
 10
-262.781
 20
20.3703
 11
-262.753
 21
20.1239
  0
LINE
  8
0
 10
-262.753
 20
20.1239
 11
-262.753
 21
19.8761
  0
LINE
  8
0
 10
-262.753
 20
19.8761
 11
-262.781
 21
19.6297
  0
LINE
  8
0
 10
-262.781
 20
19.6297
 11
-262.835
 21
19.3878
  0
LINE
  8
0
 10
-262.835
 20
19.3878
 11
-262.915
 21
19.1533
  0
LINE
  8
0
 10
-262.915
 20
19.1533
 11
-263.021
 21
18.9291
  0
LINE
  8
0
 10
-263.021
 20
18.9291
 11
-263.151
 21
18.7179
  0
LINE
  8
0
 10
-263.151
 20
18.7179
 11
-263.303
 21
18.5223
  0
LINE
  8
0
 10
-263.303
 20
18.5223
 11
-263.476
 21
18.3446
  0
LINE
  8
0
 10
-263.476
 20
18.3446
 11
-263.667
 21
18.187
  0
LINE
  8
0
 10
-263.667
 20
18.187
 11
-263.875
 21
18.0514
  0
LINE
  8
0
 10
-263.875
 20
18.0514
 11
-264.096
 21
17.9395
  0
LINE
  8
0
 10
-264.096
 20
17.9395
 11
-264.328
 21
17.8526
  0
LINE
  8
0
 10
-264.328
 20
17.8526
 11
-264.569
 21
17.7917
  0
LINE
  8
0
 10
-264.569
 20
17.7917
 11
-264.814
 21
17.7577
  0
LINE
  8
0
 10
-264.814
 20
17.7577
 11
-265.062
 21
17.7509
  0
LINE
  8
0
 10
-265.062
 20
17.7509
 11
-265.309
 21
17.7713
  0
LINE
  8
0
 10
264.814
 20
17.7577
 11
264.569
 21
17.7917
  0
LINE
  8
0
 10
264.569
 20
17.7917
 11
264.328
 21
17.8526
  0
LINE
  8
0
 10
264.328
 20
17.8526
 11
264.096
 21
17.9395
  0
LINE
  8
0
 10
264.096
 20
17.9395
 11
263.875
 21
18.0514
  0
LINE
  8
0
 10
263.875
 20
18.0514
 11
263.667
 21
18.187
  0
LINE
  8
0
 10
263.667
 20
18.187
 11
263.476
 21
18.3446
  0
LINE
  8
0
 10
263.476
 20
18.3446
 11
263.303
 21
18.5223
  0
LINE
  8
0
 10
263.303
 20
18.5223
 11
263.151
 21
18.7179
  0
LINE
  8
0
 10
263.151
 20
18.7179
 11
263.021
 21
18.9291
  0
LINE
  8
0
 10
263.021
 20
18.9291
 11
262.915
 21
19.1533
  0
LINE
  8
0
 10
262.915
 20
19.1533
 11
262.835
 21
19.3878
  0
LINE
  8
0
 10
262.835
 20
19.3878
 11
262.781
 21
19.6297
  0
LINE
  8
0
 10
262.781
 20
19.6297
 11
262.753
 21
19.8761
  0
LINE
  8
0
 10
262.753
 20
19.8761
 11
262.753
 21
20.1239
  0
LINE
  8
0
 10
262.753
 20
20.1239
 11
262.781
 21
20.3703
  0
LINE
  8
0
 10
262.781
 20
20.3703
 11
262.835
 21
20.6122
  0
LINE
  8
0
 10
262.835
 20
20.6122
 11
262.915
 21
20.8467
  0
LINE
  8
0
 10
262.915
 20
20.8467
 11
263.021
 21
21.0709
  0
LINE
  8
0
 10
263.021
 20
21.0709
 11
263.151
 21
21.2821
  0
LINE
  8
0
 10
263.151
 20
21.2821
 11
263.303
 21
21.4777
  0
LINE
  8
0
 10
263.303
 20
21.4777
 11
263.476
 21
21.6554
  0
LINE
  8
0
 10
263.476
 20
21.6554
 11
263.667
 21
21.813
  0
LINE
  8
0
 10
263.667
 20
21.813
 11
263.875
 21
21.9485
  0
LINE
  8
0
 10
263.875
 20
21.9485
 11
264.096
 21
22.0605
  0
LINE
  8
0
 10
264.096
 20
22.0605
 11
264.328
 21
22.1474
  0
LINE
  8
0
 10
264.328
 20
22.1474
 11
264.569
 21
22.2083
  0
LINE
  8
0
 10
264.569
 20
22.2083
 11
264.814
 21
22.2423
  0
LINE
  8
0
 10
264.814
 20
22.2423
 11
265.062
 21
22.2491
  0
LINE
  8
0
 10
265.062
 20
22.2491
 11
265.309
 21
22.2287
  0
LINE
  8
0
 10
265.309
 20
22.2287
 11
265.552
 21
22.1811
  0
LINE
  8
0
 10
265.552
 20
22.1811
 11
265.789
 21
22.1071
  0
LINE
  8
0
 10
265.789
 20
22.1071
 11
266.016
 21
22.0076
  0
LINE
  8
0
 10
266.016
 20
22.0076
 11
266.231
 21
21.8836
  0
LINE
  8
0
 10
266.231
 20
21.8836
 11
266.43
 21
21.7368
  0
LINE
  8
0
 10
266.43
 20
21.7368
 11
266.613
 21
21.5689
  0
LINE
  8
0
 10
266.613
 20
21.5689
 11
266.776
 21
21.382
  0
LINE
  8
0
 10
266.776
 20
21.382
 11
266.917
 21
21.1783
  0
LINE
  8
0
 10
266.917
 20
21.1783
 11
267.035
 21
20.9602
  0
LINE
  8
0
 10
267.035
 20
20.9602
 11
267.128
 21
20.7306
  0
LINE
  8
0
 10
267.128
 20
20.7306
 11
267.196
 21
20.492
  0
LINE
  8
0
 10
267.196
 20
20.492
 11
267.236
 21
20.2475
  0
LINE
  8
0
 10
267.236
 20
20.2475
 11
267.25
 21
20
  0
LINE
  8
0
 10
267.25
 20
20
 11
267.236
 21
19.7525
  0
LINE
  8
0
 10
267.236
 20
19.7525
 11
267.196
 21
19.508
  0
LINE
  8
0
 10
267.196
 20
19.508
 11
267.128
 21
19.2694
  0
LINE
  8
0
 10
267.128
 20
19.2694
 11
267.035
 21
19.0397
  0
LINE
  8
0
 10
267.035
 20
19.0397
 11
266.917
 21
18.8217
  0
LINE
  8
0
 10
266.917
 20
18.8217
 11
266.776
 21
18.618
  0
LINE
  8
0
 10
266.776
 20
18.618
 11
266.613
 21
18.4311
  0
LINE
  8
0
 10
266.613
 20
18.4311
 11
266.43
 21
18.2632
  0
LINE
  8
0
 10
266.43
 20
18.2632
 11
266.231
 21
18.1164
  0
LINE
  8
0
 10
266.231
 20
18.1164
 11
266.016
 21
17.9924
  0
LINE
  8
0
 10
266.016
 20
17.9924
 11
265.789
 21
17.8928
  0
LINE
  8
0
 10
265.789
 20
17.8928
 11
265.552
 21
17.8188
  0
LINE
  8
0
 10
265.552
 20
17.8188
 11
265.309
 21
17.7713
  0
LINE
  8
0
 10
265.309
 20
17.7713
 11
265.062
 21
17.7509
  0
LINE
  8
0
 10
265.062
 20
17.7509
 11
264.814
 21
17.7577
  0
LINE
  8
0
 10
-315.246
 20
-21.6316
 11
-315.486
 21
-21.5767
  0
LINE
  8
0
 10
-315.486
 20
-21.5767
 11
-315.716
 21
-21.4866
  0
LINE
  8
0
 10
-315.716
 20
-21.4866
 11
-315.929
 21
-21.3633
  0
LINE
  8
0
 10
-315.929
 20
-21.3633
 11
-316.122
 21
-21.2095
  0
LINE
  8
0
 10
-316.122
 20
-21.2095
 11
-316.29
 21
-21.0287
  0
LINE
  8
0
 10
-316.29
 20
-21.0287
 11
-316.429
 21
-20.825
  0
LINE
  8
0
 10
-316.429
 20
-20.825
 11
-316.536
 21
-20.6028
  0
LINE
  8
0
 10
-316.536
 20
-20.6028
 11
-316.609
 21
-20.3672
  0
LINE
  8
0
 10
-316.609
 20
-20.3672
 11
-316.645
 21
-20.1233
  0
LINE
  8
0
 10
-316.645
 20
-20.1233
 11
-316.645
 21
20.1233
  0
LINE
  8
0
 10
-316.645
 20
20.1233
 11
-316.609
 21
20.3672
  0
LINE
  8
0
 10
-316.609
 20
20.3672
 11
-316.536
 21
20.6028
  0
LINE
  8
0
 10
-316.536
 20
20.6028
 11
-316.429
 21
20.825
  0
LINE
  8
0
 10
-316.429
 20
20.825
 11
-316.29
 21
21.0287
  0
LINE
  8
0
 10
-316.29
 20
21.0287
 11
-316.122
 21
21.2095
  0
LINE
  8
0
 10
-316.122
 20
21.2095
 11
-315.929
 21
21.3633
  0
LINE
  8
0
 10
-315.929
 20
21.3633
 11
-315.716
 21
21.4866
  0
LINE
  8
0
 10
-315.716
 20
21.4866
 11
-315.486
 21
21.5767
  0
LINE
  8
0
 10
-315.486
 20
21.5767
 11
-315.246
 21
21.6316
  0
LINE
  8
0
 10
-315.246
 20
21.6316
 11
-315
 21
21.65
  0
LINE
  8
0
 10
-315
 20
21.65
 11
-314.754
 21
21.6316
  0
LINE
  8
0
 10
-314.754
 20
21.6316
 11
-314.514
 21
21.5767
  0
LINE
  8
0
 10
-314.514
 20
21.5767
 11
-314.284
 21
21.4866
  0
LINE
  8
0
 10
-314.284
 20
21.4866
 11
-314.071
 21
21.3633
  0
LINE
  8
0
 10
-314.071
 20
21.3633
 11
-313.878
 21
21.2095
  0
LINE
  8
0
 10
-313.878
 20
21.2095
 11
-313.71
 21
21.0287
  0
LINE
  8
0
 10
-313.71
 20
21.0287
 11
-313.571
 21
20.825
  0
LINE
  8
0
 10
-313.571
 20
20.825
 11
-313.464
 21
20.6028
  0
LINE
  8
0
 10
-313.464
 20
20.6028
 11
-313.391
 21
20.3672
  0
LINE
  8
0
 10
-313.391
 20
20.3672
 11
-313.355
 21
20.1233
  0
LINE
  8
0
 10
-313.355
 20
20.1233
 11
-313.355
 21
-20.1233
  0
LINE
  8
0
 10
-313.355
 20
-20.1233
 11
-313.391
 21
-20.3672
  0
LINE
  8
0
 10
-313.391
 20
-20.3672
 11
-313.464
 21
-20.6028
  0
LINE
  8
0
 10
-313.464
 20
-20.6028
 11
-313.571
 21
-20.825
  0
LINE
  8
0
 10
-313.571
 20
-20.825
 11
-313.71
 21
-21.0287
  0
LINE
  8
0
 10
-313.71
 20
-21.0287
 11
-313.878
 21
-21.2095
  0
LINE
  8
0
 10
-313.878
 20
-21.2095
 11
-314.071
 21
-21.3633
  0
LINE
  8
0
 10
-314.071
 20
-21.3633
 11
-314.284
 21
-21.4866
  0
LINE
  8
0
 10
-314.284
 20
-21.4866
 11
-314.514
 21
-21.5767
  0
LINE
  8
0
 10
-314.514
 20
-21.5767
 11
-314.754
 21
-21.6316
  0
LINE
  8
0
 10
-314.754
 20
-21.6316
 11
-315
 21
-21.65
  0
LINE
  8
0
 10
-315
 20
-21.65
 11
-315.246
 21
-21.6316
  0
LINE
  8
0
 10
314.754
 20
-21.6316
 11
314.514
 21
-21.5767
  0
LINE
  8
0
 10
314.514
 20
-21.5767
 11
314.284
 21
-21.4866
  0
LINE
  8
0
 10
314.284
 20
-21.4866
 11
314.071
 21
-21.3633
  0
LINE
  8
0
 10
314.071
 20
-21.3633
 11
313.878
 21
-21.2095
  0
LINE
  8
0
 10
313.878
 20
-21.2095
 11
313.71
 21
-21.0287
  0
LINE
  8
0
 10
313.71
 20
-21.0287
 11
313.571
 21
-20.825
  0
LINE
  8
0
 10
313.571
 20
-20.825
 11
313.464
 21
-20.6028
  0
LINE
  8
0
 10
313.464
 20
-20.6028
 11
313.391
 21
-20.3672
  0
LINE
  8
0
 10
313.391
 20
-20.3672
 11
313.355
 21
-20.1233
  0
LINE
  8
0
 10
313.355
 20
-20.1233
 11
313.355
 21
20.1233
  0
LINE
  8
0
 10
313.355
 20
20.1233
 11
313.391
 21
20.3672
  0
LINE
  8
0
 10
313.391
 20
20.3672
 11
313.464
 21
20.6028
  0
LINE
  8
0
 10
313.464
 20
20.6028
 11
313.571
 21
20.825
  0
LINE
  8
0
 10
313.571
 20
20.825
 11
313.71
 21
21.0287
  0
LINE
  8
0
 10
313.71
 20
21.0287
 11
313.878
 21
21.2095
  0
LINE
  8
0
 10
313.878
 20
21.2095
 11
314.071
 21
21.3633
  0
LINE
  8
0
 10
314.071
 20
21.3633
 11
314.284
 21
21.4866
  0
LINE
  8
0
 10
314.284
 20
21.4866
 11
314.514
 21
21.5767
  0
LINE
  8
0
 10
314.514
 20
21.5767
 11
314.754
 21
21.6316
  0
LINE
  8
0
 10
314.754
 20
21.6316
 11
315
 21
21.65
  0
LINE
  8
0
 10
315
 20
21.65
 11
315.246
 21
21.6316
  0
LINE
  8
0
 10
315.246
 20
21.6316
 11
315.486
 21
21.5767
  0
LINE
  8
0
 10
315.486
 20
21.5767
 11
315.716
 21
21.4866
  0
LINE
  8
0
 10
315.716
 20
21.4866
 11
315.929
 21
21.3633
  0
LINE
  8
0
 10
315.929
 20
21.3633
 11
316.122
 21
21.2095
  0
LINE
  8
0
 10
316.122
 20
21.2095
 11
316.29
 21
21.0287
  0
LINE
  8
0
 10
316.29
 20
21.0287
 11
316.429
 21
20.825
  0
LINE
  8
0
 10
316.429
 20
20.825
 11
316.536
 21
20.6028
  0
LINE
  8
0
 10
316.536
 20
20.6028
 11
316.609
 21
20.3672
  0
LINE
  8
0
 10
316.609
 20
20.3672
 11
316.645
 21
20.1233
  0
LINE
  8
0
 10
316.645
 20
20.1233
 11
316.645
 21
-20.1233
  0
LINE
  8
0
 10
316.645
 20
-20.1233
 11
316.609
 21
-20.3672
  0
LINE
  8
0
 10
316.609
 20
-20.3672
 11
316.536
 21
-20.6028
  0
LINE
  8
0
 10
316.536
 20
-20.6028
 11
316.429
 21
-20.825
  0
LINE
  8
0
 10
316.429
 20
-20.825
 11
316.29
 21
-21.0287
  0
LINE
  8
0
 10
316.29
 20
-21.0287
 11
316.122
 21
-21.2095
  0
LINE
  8
0
 10
316.122
 20
-21.2095
 11
315.929
 21
-21.3633
  0
LINE
  8
0
 10
315.929
 20
-21.3633
 11
315.716
 21
-21.4866
  0
LINE
  8
0
 10
315.716
 20
-21.4866
 11
315.486
 21
-21.5767
  0
LINE
  8
0
 10
315.486
 20
-21.5767
 11
315.246
 21
-21.6316
  0
LINE
  8
0
 10
315.246
 20
-21.6316
 11
315
 21
-21.65
  0
LINE
  8
0
 10
315
 20
-21.65
 11
314.754
 21
-21.6316
  0
LINE
  8
0
 10
-265.309
 20
-22.2287
 11
-265.552
 21
-22.1811
  0
LINE
  8
0
 10
-265.552
 20
-22.1811
 11
-265.789
 21
-22.1071
  0
LINE
  8
0
 10
-265.789
 20
-22.1071
 11
-266.016
 21
-22.0076
  0
LINE
  8
0
 10
-266.016
 20
-22.0076
 11
-266.231
 21
-21.8836
  0
LINE
  8
0
 10
-266.231
 20
-21.8836
 11
-266.43
 21
-21.7368
  0
LINE
  8
0
 10
-266.43
 20
-21.7368
 11
-266.613
 21
-21.5689
  0
LINE
  8
0
 10
-266.613
 20
-21.5689
 11
-266.776
 21
-21.382
  0
LINE
  8
0
 10
-266.776
 20
-21.382
 11
-266.917
 21
-21.1783
  0
LINE
  8
0
 10
-266.917
 20
-21.1783
 11
-267.035
 21
-20.9602
  0
LINE
  8
0
 10
-267.035
 20
-20.9602
 11
-267.128
 21
-20.7306
  0
LINE
  8
0
 10
-267.128
 20
-20.7306
 11
-267.196
 21
-20.492
  0
LINE
  8
0
 10
-267.196
 20
-20.492
 11
-267.236
 21
-20.2475
  0
LINE
  8
0
 10
-267.236
 20
-20.2475
 11
-267.25
 21
-20
  0
LINE
  8
0
 10
-267.25
 20
-20
 11
-267.236
 21
-19.7525
  0
LINE
  8
0
 10
-267.236
 20
-19.7525
 11
-267.196
 21
-19.508
  0
LINE
  8
0
 10
-267.196
 20
-19.508
 11
-267.128
 21
-19.2694
  0
LINE
  8
0
 10
-267.128
 20
-19.2694
 11
-267.035
 21
-19.0397
  0
LINE
  8
0
 10
-267.035
 20
-19.0397
 11
-266.917
 21
-18.8217
  0
LINE
  8
0
 10
-266.917
 20
-18.8217
 11
-266.776
 21
-18.618
  0
LINE
  8
0
 10
-266.776
 20
-18.618
 11
-266.613
 21
-18.4311
  0
LINE
  8
0
 10
-266.613
 20
-18.4311
 11
-266.43
 21
-18.2632
  0
LINE
  8
0
 10
-266.43
 20
-18.2632
 11
-266.231
 21
-18.1164
  0
LINE
  8
0
 10
-266.231
 20
-18.1164
 11
-266.016
 21
-17.9924
  0
LINE
  8
0
 10
-266.016
 20
-17.9924
 11
-265.789
 21
-17.8928
  0
LINE
  8
0
 10
-265.789
 20
-17.8928
 11
-265.552
 21
-17.8188
  0
LINE
  8
0
 10
-265.552
 20
-17.8188
 11
-265.309
 21
-17.7713
  0
LINE
  8
0
 10
-265.309
 20
-17.7713
 11
-265.062
 21
-17.7509
  0
LINE
  8
0
 10
-265.062
 20
-17.7509
 11
-264.814
 21
-17.7577
  0
LINE
  8
0
 10
-264.814
 20
-17.7577
 11
-264.569
 21
-17.7917
  0
LINE
  8
0
 10
-264.569
 20
-17.7917
 11
-264.328
 21
-17.8526
  0
LINE
  8
0
 10
-264.328
 20
-17.8526
 11
-264.096
 21
-17.9395
  0
LINE
  8
0
 10
-264.096
 20
-17.9395
 11
-263.875
 21
-18.0514
  0
LINE
  8
0
 10
-263.875
 20
-18.0514
 11
-263.667
 21
-18.187
  0
LINE
  8
0
 10
-263.667
 20
-18.187
 11
-263.476
 21
-18.3446
  0
LINE
  8
0
 10
-263.476
 20
-18.3446
 11
-263.303
 21
-18.5223
  0
LINE
  8
0
 10
-263.303
 20
-18.5223
 11
-263.151
 21
-18.7179
  0
LINE
  8
0
 10
-263.151
 20
-18.7179
 11
-263.021
 21
-18.9291
  0
LINE
  8
0
 10
-263.021
 20
-18.9291
 11
-262.915
 21
-19.1533
  0
LINE
  8
0
 10
-262.915
 20
-19.1533
 11
-262.835
 21
-19.3878
  0
LINE
  8
0
 10
-262.835
 20
-19.3878
 11
-262.781
 21
-19.6297
  0
LINE
  8
0
 10
-262.781
 20
-19.6297
 11
-262.753
 21
-19.8761
  0
LINE
  8
0
 10
-262.753
 20
-19.8761
 11
-262.753
 21
-20.1239
  0
LINE
  8
0
 10
-262.753
 20
-20.1239
 11
-262.781
 21
-20.3703
  0
LINE
  8
0
 10
-262.781
 20
-20.3703
 11
-262.835
 21
-20.6122
  0
LINE
  8
0
 10
-262.835
 20
-20.6122
 11
-262.915
 21
-20.8467
  0
LINE
  8
0
 10
-262.915
 20
-20.8467
 11
-263.021
 21
-21.0709
  0
LINE
  8
0
 10
-263.021
 20
-21.0709
 11
-263.151
 21
-21.2821
  0
LINE
  8
0
 10
-263.151
 20
-21.2821
 11
-263.303
 21
-21.4777
  0
LINE
  8
0
 10
-263.303
 20
-21.4777
 11
-263.476
 21
-21.6554
  0
LINE
  8
0
 10
-263.476
 20
-21.6554
 11
-263.667
 21
-21.813
  0
LINE
  8
0
 10
-263.667
 20
-21.813
 11
-263.875
 21
-21.9485
  0
LINE
  8
0
 10
-263.875
 20
-21.9485
 11
-264.096
 21
-22.0605
  0
LINE
  8
0
 10
-264.096
 20
-22.0605
 11
-264.328
 21
-22.1474
  0
LINE
  8
0
 10
-264.328
 20
-22.1474
 11
-264.569
 21
-22.2083
  0
LINE
  8
0
 10
-264.569
 20
-22.2083
 11
-264.814
 21
-22.2423
  0
LINE
  8
0
 10
-264.814
 20
-22.2423
 11
-265.062
 21
-22.2491
  0
LINE
  8
0
 10
-265.062
 20
-22.2491
 11
-265.309
 21
-22.2287
  0
LINE
  8
0
 10
264.814
 20
-22.2423
 11
264.569
 21
-22.2083
  0
LINE
  8
0
 10
264.569
 20
-22.2083
 11
264.328
 21
-22.1474
  0
LINE
  8
0
 10
264.328
 20
-22.1474
 11
264.096
 21
-22.0605
  0
LINE
  8
0
 10
264.096
 20
-22.0605
 11
263.875
 21
-21.9485
  0
LINE
  8
0
 10
263.875
 20
-21.9485
 11
263.667
 21
-21.813
  0
LINE
  8
0
 10
263.667
 20
-21.813
 11
263.476
 21
-21.6554
  0
LINE
  8
0
 10
263.476
 20
-21.6554
 11
263.303
 21
-21.4777
  0
LINE
  8
0
 10
263.303
 20
-21.4777
 11
263.151
 21
-21.2821
  0
LINE
  8
0
 10
263.151
 20
-21.2821
 11
263.021
 21
-21.0709
  0
LINE
  8
0
 10
263.021
 20
-21.0709
 11
262.915
 21
-20.8467
  0
LINE
  8
0
 10
262.915
 20
-20.8467
 11
262.835
 21
-20.6122
  0
LINE
  8
0
 10
262.835
 20
-20.6122
 11
262.781
 21
-20.3703
  0
LINE
  8
0
 10
262.781
 20
-20.3703
 11
262.753
 21
-20.1239
  0
LINE
  8
0
 10
262.753
 20
-20.1239
 11
262.753
 21
-19.8761
  0
LINE
  8
0
 10
262.753
 20
-19.8761
 11
262.781
 21
-19.6297
  0
LINE
  8
0
 10
262.781
 20
-19.6297
 11
262.835
 21
-19.3878
  0
LINE
  8
0
 10
262.835
 20
-19.3878
 11
262.915
 21
-19.1533
  0
LINE
  8
0
 10
262.915
 20
-19.1533
 11
263.021
 21
-18.9291
  0
LINE
  8
0
 10
263.021
 20
-18.9291
 11
263.151
 21
-18.7179
  0
LINE
  8
0
 10
263.151
 20
-18.7179
 11
263.303
 21
-18.5223
  0
LINE
  8
0
 10
263.303
 20
-18.5223
 11
263.476
 21
-18.3446
  0
LINE
  8
0
 10
263.476
 20
-18.3446
 11
263.667
 21
-18.187
  0
LINE
  8
0
 10
263.667
 20
-18.187
 11
263.875
 21
-18.0514
  0
LINE
  8
0
 10
263.875
 20
-18.0514
 11
264.096
 21
-17.9395
  0
LINE
  8
0
 10
264.096
 20
-17.9395
 11
264.328
 21
-17.8526
  0
LINE
  8
0
 10
264.328
 20
-17.8526
 11
264.569
 21
-17.7917
  0
LINE
  8
0
 10
264.569
 20
-17.7917
 11
264.814
 21
-17.7577
  0
LINE
  8
0
 10
264.814
 20
-17.7577
 11
265.062
 21
-17.7509
  0
LINE
  8
0
 10
265.062
 20
-17.7509
 11
265.309
 21
-17.7713
  0
LINE
  8
0
 10
265.309
 20
-17.7713
 11
265.552
 21
-17.8188
  0
LINE
  8
0
 10
265.552
 20
-17.8188
 11
265.789
 21
-17.8928
  0
LINE
  8
0
 10
265.789
 20
-17.8928
 11
266.016
 21
-17.9924
  0
LINE
  8
0
 10
266.016
 20
-17.9924
 11
266.231
 21
-18.1164
  0
LINE
  8
0
 10
266.231
 20
-18.1164
 11
266.43
 21
-18.2632
  0
LINE
  8
0
 10
266.43
 20
-18.2632
 11
266.613
 21
-18.4311
  0
LINE
  8
0
 10
266.613
 20
-18.4311
 11
266.776
 21
-18.618
  0
LINE
  8
0
 10
266.776
 20
-18.618
 11
266.917
 21
-18.8217
  0
LINE
  8
0
 10
266.917
 20
-18.8217
 11
267.035
 21
-19.0397
  0
LINE
  8
0
 10
267.035
 20
-19.0397
 11
267.128
 21
-19.2694
  0
LINE
  8
0
 10
267.128
 20
-19.2694
 11
267.196
 21
-19.508
  0
LINE
  8
0
 10
267.196
 20
-19.508
 11
267.236
 21
-19.7525
  0
LINE
  8
0
 10
267.236
 20
-19.7525
 11
267.25
 21
-20
  0
LINE
  8
0
 10
267.25
 20
-20
 11
267.236
 21
-20.2475
  0
LINE
  8
0
 10
267.236
 20
-20.2475
 11
267.196
 21
-20.492
  0
LINE
  8
0
 10
267.196
 20
-20.492
 11
267.128
 21
-20.7306
  0
LINE
  8
0
 10
267.128
 20
-20.7306
 11
267.035
 21
-20.9602
  0
LINE
  8
0
 10
267.035
 20
-20.9602
 11
266.917
 21
-21.1783
  0
LINE
  8
0
 10
266.917
 20
-21.1783
 11
266.776
 21
-21.382
  0
LINE
  8
0
 10
266.776
 20
-21.382
 11
266.613
 21
-21.5689
  0
LINE
  8
0
 10
266.613
 20
-21.5689
 11
266.43
 21
-21.7368
  0
LINE
  8
0
 10
266.43
 20
-21.7368
 11
266.231
 21
-21.8836
  0
LINE
  8
0
 10
266.231
 20
-21.8836
 11
266.016
 21
-22.0076
  0
LINE
  8
0
 10
266.016
 20
-22.0076
 11
265.789
 21
-22.1071
  0
LINE
  8
0
 10
265.789
 20
-22.1071
 11
265.552
 21
-22.1811
  0
LINE
  8
0
 10
265.552
 20
-22.1811
 11
265.309
 21
-22.2287
  0
LINE
  8
0
 10
265.309
 20
-22.2287
 11
265.062
 21
-22.2491
  0
LINE
  8
0
 10
265.062
 20
-22.2491
 11
264.814
 21
-22.2423
  0
LINE
  8
0
 10
314.754
 20
-96.5816
 11
314.514
 21
-96.5267
  0
LINE
  8
0
 10
314.514
 20
-96.5267
 11
314.284
 21
-96.4366
  0
LINE
  8
0
 10
314.284
 20
-96.4366
 11
314.071
 21
-96.3133
  0
LINE
  8
0
 10
314.071
 20
-96.3133
 11
313.878
 21
-96.1595
  0
LINE
  8
0
 10
313.878
 20
-96.1595
 11
313.71
 21
-95.9788
  0
LINE
  8
0
 10
313.71
 20
-95.9788
 11
313.571
 21
-95.775
  0
LINE
  8
0
 10
313.571
 20
-95.775
 11
313.464
 21
-95.5528
  0
LINE
  8
0
 10
313.464
 20
-95.5528
 11
313.391
 21
-95.3172
  0
LINE
  8
0
 10
313.391
 20
-95.3172
 11
313.355
 21
-95.0733
  0
LINE
  8
0
 10
313.355
 20
-95.0733
 11
313.355
 21
-54.8267
  0
LINE
  8
0
 10
313.355
 20
-54.8267
 11
313.391
 21
-54.5828
  0
LINE
  8
0
 10
313.391
 20
-54.5828
 11
313.464
 21
-54.3472
  0
LINE
  8
0
 10
313.464
 20
-54.3472
 11
313.571
 21
-54.125
  0
LINE
  8
0
 10
313.571
 20
-54.125
 11
313.71
 21
-53.9212
  0
LINE
  8
0
 10
313.71
 20
-53.9212
 11
313.878
 21
-53.7405
  0
LINE
  8
0
 10
313.878
 20
-53.7405
 11
314.071
 21
-53.5867
  0
LINE
  8
0
 10
314.071
 20
-53.5867
 11
314.284
 21
-53.4634
  0
LINE
  8
0
 10
314.284
 20
-53.4634
 11
314.514
 21
-53.3733
  0
LINE
  8
0
 10
314.514
 20
-53.3733
 11
314.754
 21
-53.3184
  0
LINE
  8
0
 10
314.754
 20
-53.3184
 11
315
 21
-53.3
  0
LINE
  8
0
 10
315
 20
-53.3
 11
315.246
 21
-53.3184
  0
LINE
  8
0
 10
315.246
 20
-53.3184
 11
315.486
 21
-53.3733
  0
LINE
  8
0
 10
315.486
 20
-53.3733
 11
315.716
 21
-53.4634
  0
LINE
  8
0
 10
315.716
 20
-53.4634
 11
315.929
 21
-53.5867
  0
LINE
  8
0
 10
315.929
 20
-53.5867
 11
316.122
 21
-53.7405
  0
LINE
  8
0
 10
316.122
 20
-53.7405
 11
316.29
 21
-53.9212
  0
LINE
  8
0
 10
316.29
 20
-53.9212
 11
316.429
 21
-54.125
  0
LINE
  8
0
 10
316.429
 20
-54.125
 11
316.536
 21
-54.3472
  0
LINE
  8
0
 10
316.536
 20
-54.3472
 11
316.609
 21
-54.5828
  0
LINE
  8
0
 10
316.609
 20
-54.5828
 11
316.645
 21
-54.8267
  0
LINE
  8
0
 10
316.645
 20
-54.8267
 11
316.645
 21
-95.0733
  0
LINE
  8
0
 10
316.645
 20
-95.0733
 11
316.609
 21
-95.3172
  0
LINE
  8
0
 10
316.609
 20
-95.3172
 11
316.536
 21
-95.5528
  0
LINE
  8
0
 10
316.536
 20
-95.5528
 11
316.429
 21
-95.775
  0
LINE
  8
0
 10
316.429
 20
-95.775
 11
316.29
 21
-95.9788
  0
LINE
  8
0
 10
316.29
 20
-95.9788
 11
316.122
 21
-96.1595
  0
LINE
  8
0
 10
316.122
 20
-96.1595
 11
315.929
 21
-96.3133
  0
LINE
  8
0
 10
315.929
 20
-96.3133
 11
315.716
 21
-96.4366
  0
LINE
  8
0
 10
315.716
 20
-96.4366
 11
315.486
 21
-96.5267
  0
LINE
  8
0
 10
315.486
 20
-96.5267
 11
315.246
 21
-96.5816
  0
LINE
  8
0
 10
315.246
 20
-96.5816
 11
315
 21
-96.6
  0
LINE
  8
0
 10
315
 20
-96.6
 11
314.754
 21
-96.5816
  0
LINE
  8
0
 10
-315.246
 20
-96.5816
 11
-315.486
 21
-96.5267
  0
LINE
  8
0
 10
-315.486
 20
-96.5267
 11
-315.716
 21
-96.4366
  0
LINE
  8
0
 10
-315.716
 20
-96.4366
 11
-315.929
 21
-96.3133
  0
LINE
  8
0
 10
-315.929
 20
-96.3133
 11
-316.122
 21
-96.1595
  0
LINE
  8
0
 10
-316.122
 20
-96.1595
 11
-316.29
 21
-95.9788
  0
LINE
  8
0
 10
-316.29
 20
-95.9788
 11
-316.429
 21
-95.775
  0
LINE
  8
0
 10
-316.429
 20
-95.775
 11
-316.536
 21
-95.5528
  0
LINE
  8
0
 10
-316.536
 20
-95.5528
 11
-316.609
 21
-95.3172
  0
LINE
  8
0
 10
-316.609
 20
-95.3172
 11
-316.645
 21
-95.0733
  0
LINE
  8
0
 10
-316.645
 20
-95.0733
 11
-316.645
 21
-54.8267
  0
LINE
  8
0
 10
-316.645
 20
-54.8267
 11
-316.609
 21
-54.5828
  0
LINE
  8
0
 10
-316.609
 20
-54.5828
 11
-316.536
 21
-54.3472
  0
LINE
  8
0
 10
-316.536
 20
-54.3472
 11
-316.429
 21
-54.125
  0
LINE
  8
0
 10
-316.429
 20
-54.125
 11
-316.29
 21
-53.9212
  0
LINE
  8
0
 10
-316.29
 20
-53.9212
 11
-316.122
 21
-53.7405
  0
LINE
  8
0
 10
-316.122
 20
-53.7405
 11
-315.929
 21
-53.5867
  0
LINE
  8
0
 10
-315.929
 20
-53.5867
 11
-315.716
 21
-53.4634
  0
LINE
  8
0
 10
-315.716
 20
-53.4634
 11
-315.486
 21
-53.3733
  0
LINE
  8
0
 10
-315.486
 20
-53.3733
 11
-315.246
 21
-53.3184
  0
LINE
  8
0
 10
-315.246
 20
-53.3184
 11
-315
 21
-53.3
  0
LINE
  8
0
 10
-315
 20
-53.3
 11
-314.754
 21
-53.3184
  0
LINE
  8
0
 10
-314.754
 20
-53.3184
 11
-314.514
 21
-53.3733
  0
LINE
  8
0
 10
-314.514
 20
-53.3733
 11
-314.284
 21
-53.4634
  0
LINE
  8
0
 10
-314.284
 20
-53.4634
 11
-314.071
 21
-53.5867
  0
LINE
  8
0
 10
-314.071
 20
-53.5867
 11
-313.878
 21
-53.7405
  0
LINE
  8
0
 10
-313.878
 20
-53.7405
 11
-313.71
 21
-53.9212
  0
LINE
  8
0
 10
-313.71
 20
-53.9212
 11
-313.571
 21
-54.125
  0
LINE
  8
0
 10
-313.571
 20
-54.125
 11
-313.464
 21
-54.3472
  0
LINE
  8
0
 10
-313.464
 20
-54.3472
 11
-313.391
 21
-54.5828
  0
LINE
  8
0
 10
-313.391
 20
-54.5828
 11
-313.355
 21
-54.8267
  0
LINE
  8
0
 10
-313.355
 20
-54.8267
 11
-313.355
 21
-95.0733
  0
LINE
  8
0
 10
-313.355
 20
-95.0733
 11
-313.391
 21
-95.3172
  0
LINE
  8
0
 10
-313.391
 20
-95.3172
 11
-313.464
 21
-95.5528
  0
LINE
  8
0
 10
-313.464
 20
-95.5528
 11
-313.571
 21
-95.775
  0
LINE
  8
0
 10
-313.571
 20
-95.775
 11
-313.71
 21
-95.9788
  0
LINE
  8
0
 10
-313.71
 20
-95.9788
 11
-313.878
 21
-96.1595
  0
LINE
  8
0
 10
-313.878
 20
-96.1595
 11
-314.071
 21
-96.3133
  0
LINE
  8
0
 10
-314.071
 20
-96.3133
 11
-314.284
 21
-96.4366
  0
LINE
  8
0
 10
-314.284
 20
-96.4366
 11
-314.514
 21
-96.5267
  0
LINE
  8
0
 10
-314.514
 20
-96.5267
 11
-314.754
 21
-96.5816
  0
LINE
  8
0
 10
-314.754
 20
-96.5816
 11
-315
 21
-96.6
  0
LINE
  8
0
 10
-315
 20
-96.6
 11
-315.246
 21
-96.5816
  0
LINE
  8
0
 10
-225.186
 20
-62.2423
 11
-225.431
 21
-62.2083
  0
LINE
  8
0
 10
-225.431
 20
-62.2083
 11
-225.672
 21
-62.1474
  0
LINE
  8
0
 10
-225.672
 20
-62.1474
 11
-225.904
 21
-62.0605
  0
LINE
  8
0
 10
-225.904
 20
-62.0605
 11
-226.125
 21
-61.9485
  0
LINE
  8
0
 10
-226.125
 20
-61.9485
 11
-226.333
 21
-61.813
  0
LINE
  8
0
 10
-226.333
 20
-61.813
 11
-226.524
 21
-61.6554
  0
LINE
  8
0
 10
-226.524
 20
-61.6554
 11
-226.697
 21
-61.4777
  0
LINE
  8
0
 10
-226.697
 20
-61.4777
 11
-226.849
 21
-61.2821
  0
LINE
  8
0
 10
-226.849
 20
-61.2821
 11
-226.979
 21
-61.0709
  0
LINE
  8
0
 10
-226.979
 20
-61.0709
 11
-227.085
 21
-60.8467
  0
LINE
  8
0
 10
-227.085
 20
-60.8467
 11
-227.165
 21
-60.6122
  0
LINE
  8
0
 10
-227.165
 20
-60.6122
 11
-227.219
 21
-60.3703
  0
LINE
  8
0
 10
-227.219
 20
-60.3703
 11
-227.247
 21
-60.1239
  0
LINE
  8
0
 10
-227.247
 20
-60.1239
 11
-227.247
 21
-59.8761
  0
LINE
  8
0
 10
-227.247
 20
-59.8761
 11
-227.219
 21
-59.6297
  0
LINE
  8
0
 10
-227.219
 20
-59.6297
 11
-227.165
 21
-59.3878
  0
LINE
  8
0
 10
-227.165
 20
-59.3878
 11
-227.085
 21
-59.1533
  0
LINE
  8
0
 10
-227.085
 20
-59.1533
 11
-226.979
 21
-58.9291
  0
LINE
  8
0
 10
-226.979
 20
-58.9291
 11
-226.849
 21
-58.7179
  0
LINE
  8
0
 10
-226.849
 20
-58.7179
 11
-226.697
 21
-58.5223
  0
LINE
  8
0
 10
-226.697
 20
-58.5223
 11
-226.524
 21
-58.3446
  0
LINE
  8
0
 10
-226.524
 20
-58.3446
 11
-226.333
 21
-58.187
  0
LINE
  8
0
 10
-226.333
 20
-58.187
 11
-226.125
 21
-58.0514
  0
LINE
  8
0
 10
-226.125
 20
-58.0514
 11
-225.904
 21
-57.9395
  0
LINE
  8
0
 10
-225.904
 20
-57.9395
 11
-225.672
 21
-57.8526
  0
LINE
  8
0
 10
-225.672
 20
-57.8526
 11
-225.431
 21
-57.7917
  0
LINE
  8
0
 10
-225.431
 20
-57.7917
 11
-225.186
 21
-57.7577
  0
LINE
  8
0
 10
-225.186
 20
-57.7577
 11
-224.938
 21
-57.7509
  0
LINE
  8
0
 10
-224.938
 20
-57.7509
 11
-224.691
 21
-57.7713
  0
LINE
  8
0
 10
-224.691
 20
-57.7713
 11
-224.448
 21
-57.8188
  0
LINE
  8
0
 10
-224.448
 20
-57.8188
 11
-224.211
 21
-57.8928
  0
LINE
  8
0
 10
-224.211
 20
-57.8928
 11
-223.984
 21
-57.9924
  0
LINE
  8
0
 10
-223.984
 20
-57.9924
 11
-223.769
 21
-58.1164
  0
LINE
  8
0
 10
-223.769
 20
-58.1164
 11
-223.57
 21
-58.2632
  0
LINE
  8
0
 10
-223.57
 20
-58.2632
 11
-223.387
 21
-58.4311
  0
LINE
  8
0
 10
-223.387
 20
-58.4311
 11
-223.224
 21
-58.618
  0
LINE
  8
0
 10
-223.224
 20
-58.618
 11
-223.083
 21
-58.8217
  0
LINE
  8
0
 10
-223.083
 20
-58.8217
 11
-222.965
 21
-59.0397
  0
LINE
  8
0
 10
-222.965
 20
-59.0397
 11
-222.872
 21
-59.2694
  0
LINE
  8
0
 10
-222.872
 20
-59.2694
 11
-222.804
 21
-59.508
  0
LINE
  8
0
 10
-222.804
 20
-59.508
 11
-222.764
 21
-59.7525
  0
LINE
  8
0
 10
-222.764
 20
-59.7525
 11
-222.75
 21
-60
  0
LINE
  8
0
 10
-222.75
 20
-60
 11
-222.764
 21
-60.2475
  0
LINE
  8
0
 10
-222.764
 20
-60.2475
 11
-222.804
 21
-60.492
  0
LINE
  8
0
 10
-222.804
 20
-60.492
 11
-222.872
 21
-60.7306
  0
LINE
  8
0
 10
-222.872
 20
-60.7306
 11
-222.965
 21
-60.9602
  0
LINE
  8
0
 10
-222.965
 20
-60.9602
 11
-223.083
 21
-61.1783
  0
LINE
  8
0
 10
-223.083
 20
-61.1783
 11
-223.224
 21
-61.382
  0
LINE
  8
0
 10
-223.224
 20
-61.382
 11
-223.387
 21
-61.5689
  0
LINE
  8
0
 10
-223.387
 20
-61.5689
 11
-223.57
 21
-61.7368
  0
LINE
  8
0
 10
-223.57
 20
-61.7368
 11
-223.769
 21
-61.8836
  0
LINE
  8
0
 10
-223.769
 20
-61.8836
 11
-223.984
 21
-62.0076
  0
LINE
  8
0
 10
-223.984
 20
-62.0076
 11
-224.211
 21
-62.1071
  0
LINE
  8
0
 10
-224.211
 20
-62.1071
 11
-224.448
 21
-62.1812
  0
LINE
  8
0
 10
-224.448
 20
-62.1812
 11
-224.691
 21
-62.2287
  0
LINE
  8
0
 10
-224.691
 20
-62.2287
 11
-224.938
 21
-62.2491
  0
LINE
  8
0
 10
-224.938
 20
-62.2491
 11
-225.186
 21
-62.2423
  0
LINE
  8
0
 10
-44.4476
 20
-57.8188
 11
-44.2111
 21
-57.8928
  0
LINE
  8
0
 10
-44.2111
 20
-57.8928
 11
-43.984
 21
-57.9924
  0
LINE
  8
0
 10
-43.984
 20
-57.9924
 11
-43.7694
 21
-58.1164
  0
LINE
  8
0
 10
-43.7694
 20
-58.1164
 11
-43.5696
 21
-58.2632
  0
LINE
  8
0
 10
-43.5696
 20
-58.2632
 11
-43.3872
 21
-58.4311
  0
LINE
  8
0
 10
-43.3872
 20
-58.4311
 11
-43.2244
 21
-58.618
  0
LINE
  8
0
 10
-43.2244
 20
-58.618
 11
-43.0832
 21
-58.8217
  0
LINE
  8
0
 10
-43.0832
 20
-58.8217
 11
-42.9652
 21
-59.0397
  0
LINE
  8
0
 10
-42.9652
 20
-59.0397
 11
-42.8719
 21
-59.2694
  0
LINE
  8
0
 10
-42.8719
 20
-59.2694
 11
-42.8045
 21
-59.508
  0
LINE
  8
0
 10
-42.8045
 20
-59.508
 11
-42.7637
 21
-59.7525
  0
LINE
  8
0
 10
-42.7637
 20
-59.7525
 11
-42.75
 21
-60
  0
LINE
  8
0
 10
-42.75
 20
-60
 11
-42.7637
 21
-60.2475
  0
LINE
  8
0
 10
-42.7637
 20
-60.2475
 11
-42.8045
 21
-60.492
  0
LINE
  8
0
 10
-42.8045
 20
-60.492
 11
-42.8719
 21
-60.7306
  0
LINE
  8
0
 10
-42.8719
 20
-60.7306
 11
-42.9652
 21
-60.9602
  0
LINE
  8
0
 10
-42.9652
 20
-60.9602
 11
-43.0832
 21
-61.1783
  0
LINE
  8
0
 10
-43.0832
 20
-61.1783
 11
-43.2244
 21
-61.382
  0
LINE
  8
0
 10
-43.2244
 20
-61.382
 11
-43.3872
 21
-61.5689
  0
LINE
  8
0
 10
-43.3872
 20
-61.5689
 11
-43.5696
 21
-61.7368
  0
LINE
  8
0
 10
-43.5696
 20
-61.7368
 11
-43.7694
 21
-61.8836
  0
LINE
  8
0
 10
-43.7694
 20
-61.8836
 11
-43.984
 21
-62.0076
  0
LINE
  8
0
 10
-43.984
 20
-62.0076
 11
-44.2111
 21
-62.1071
  0
LINE
  8
0
 10
-44.2111
 20
-62.1071
 11
-44.4476
 21
-62.1812
  0
LINE
  8
0
 10
-44.4476
 20
-62.1812
 11
-44.6909
 21
-62.2287
  0
LINE
  8
0
 10
-44.6909
 20
-62.2287
 11
-44.938
 21
-62.2491
  0
LINE
  8
0
 10
-44.938
 20
-62.2491
 11
-45.1858
 21
-62.2423
  0
LINE
  8
0
 10
-45.1858
 20
-62.2423
 11
-45.4314
 21
-62.2083
  0
LINE
  8
0
 10
-45.4314
 20
-62.2083
 11
-45.6716
 21
-62.1474
  0
LINE
  8
0
 10
-45.6716
 20
-62.1474
 11
-45.9038
 21
-62.0605
  0
LINE
  8
0
 10
-45.9038
 20
-62.0605
 11
-46.125
 21
-61.9485
  0
LINE
  8
0
 10
-46.125
 20
-61.9485
 11
-46.3325
 21
-61.813
  0
LINE
  8
0
 10
-46.3325
 20
-61.813
 11
-46.5239
 21
-61.6554
  0
LINE
  8
0
 10
-46.5239
 20
-61.6554
 11
-46.6967
 21
-61.4777
  0
LINE
  8
0
 10
-46.6967
 20
-61.4777
 11
-46.849
 21
-61.2821
  0
LINE
  8
0
 10
-46.849
 20
-61.2821
 11
-46.9788
 21
-61.0709
  0
LINE
  8
0
 10
-46.9788
 20
-61.0709
 11
-47.0846
 21
-60.8467
  0
LINE
  8
0
 10
-47.0846
 20
-60.8467
 11
-47.1651
 21
-60.6122
  0
LINE
  8
0
 10
-47.1651
 20
-60.6122
 11
-47.2193
 21
-60.3703
  0
LINE
  8
0
 10
-47.2193
 20
-60.3703
 11
-47.2466
 21
-60.1239
  0
LINE
  8
0
 10
-47.2466
 20
-60.1239
 11
-47.2466
 21
-59.8761
  0
LINE
  8
0
 10
-47.2466
 20
-59.8761
 11
-47.2193
 21
-59.6297
  0
LINE
  8
0
 10
-47.2193
 20
-59.6297
 11
-47.1651
 21
-59.3878
  0
LINE
  8
0
 10
-47.1651
 20
-59.3878
 11
-47.0846
 21
-59.1533
  0
LINE
  8
0
 10
-47.0846
 20
-59.1533
 11
-46.9788
 21
-58.9291
  0
LINE
  8
0
 10
-46.9788
 20
-58.9291
 11
-46.849
 21
-58.7179
  0
LINE
  8
0
 10
-46.849
 20
-58.7179
 11
-46.6967
 21
-58.5223
  0
LINE
  8
0
 10
-46.6967
 20
-58.5223
 11
-46.5239
 21
-58.3446
  0
LINE
  8
0
 10
-46.5239
 20
-58.3446
 11
-46.3325
 21
-58.187
  0
LINE
  8
0
 10
-46.3325
 20
-58.187
 11
-46.125
 21
-58.0514
  0
LINE
  8
0
 10
-46.125
 20
-58.0514
 11
-45.9038
 21
-57.9395
  0
LINE
  8
0
 10
-45.9038
 20
-57.9395
 11
-45.6716
 21
-57.8526
  0
LINE
  8
0
 10
-45.6716
 20
-57.8526
 11
-45.4314
 21
-57.7917
  0
LINE
  8
0
 10
-45.4314
 20
-57.7917
 11
-45.1858
 21
-57.7577
  0
LINE
  8
0
 10
-45.1858
 20
-57.7577
 11
-44.938
 21
-57.7509
  0
LINE
  8
0
 10
-44.938
 20
-57.7509
 11
-44.6909
 21
-57.7713
  0
LINE
  8
0
 10
-44.6909
 20
-57.7713
 11
-44.4476
 21
-57.8188
  0
LINE
  8
0
 10
134.814
 20
-62.2423
 11
134.569
 21
-62.2083
  0
LINE
  8
0
 10
134.569
 20
-62.2083
 11
134.328
 21
-62.1474
  0
LINE
  8
0
 10
134.328
 20
-62.1474
 11
134.096
 21
-62.0605
  0
LINE
  8
0
 10
134.096
 20
-62.0605
 11
133.875
 21
-61.9485
  0
LINE
  8
0
 10
133.875
 20
-61.9485
 11
133.667
 21
-61.813
  0
LINE
  8
0
 10
133.667
 20
-61.813
 11
133.476
 21
-61.6554
  0
LINE
  8
0
 10
133.476
 20
-61.6554
 11
133.303
 21
-61.4777
  0
LINE
  8
0
 10
133.303
 20
-61.4777
 11
133.151
 21
-61.2821
  0
LINE
  8
0
 10
133.151
 20
-61.2821
 11
133.021
 21
-61.0709
  0
LINE
  8
0
 10
133.021
 20
-61.0709
 11
132.915
 21
-60.8467
  0
LINE
  8
0
 10
132.915
 20
-60.8467
 11
132.835
 21
-60.6122
  0
LINE
  8
0
 10
132.835
 20
-60.6122
 11
132.781
 21
-60.3703
  0
LINE
  8
0
 10
132.781
 20
-60.3703
 11
132.753
 21
-60.1239
  0
LINE
  8
0
 10
132.753
 20
-60.1239
 11
132.753
 21
-59.8761
  0
LINE
  8
0
 10
132.753
 20
-59.8761
 11
132.781
 21
-59.6297
  0
LINE
  8
0
 10
132.781
 20
-59.6297
 11
132.835
 21
-59.3878
  0
LINE
  8
0
 10
132.835
 20
-59.3878
 11
132.915
 21
-59.1533
  0
LINE
  8
0
 10
132.915
 20
-59.1533
 11
133.021
 21
-58.9291
  0
LINE
  8
0
 10
133.021
 20
-58.9291
 11
133.151
 21
-58.7179
  0
LINE
  8
0
 10
133.151
 20
-58.7179
 11
133.303
 21
-58.5223
  0
LINE
  8
0
 10
133.303
 20
-58.5223
 11
133.476
 21
-58.3446
  0
LINE
  8
0
 10
133.476
 20
-58.3446
 11
133.667
 21
-58.187
  0
LINE
  8
0
 10
133.667
 20
-58.187
 11
133.875
 21
-58.0514
  0
LINE
  8
0
 10
133.875
 20
-58.0514
 11
134.096
 21
-57.9395
  0
LINE
  8
0
 10
134.096
 20
-57.9395
 11
134.328
 21
-57.8526
  0
LINE
  8
0
 10
134.328
 20
-57.8526
 11
134.569
 21
-57.7917
  0
LINE
  8
0
 10
134.569
 20
-57.7917
 11
134.814
 21
-57.7577
  0
LINE
  8
0
 10
134.814
 20
-57.7577
 11
135.062
 21
-57.7509
  0
LINE
  8
0
 10
135.062
 20
-57.7509
 11
135.309
 21
-57.7713
  0
LINE
  8
0
 10
135.309
 20
-57.7713
 11
135.552
 21
-57.8188
  0
LINE
  8
0
 10
135.552
 20
-57.8188
 11
135.789
 21
-57.8928
  0
LINE
  8
0
 10
135.789
 20
-57.8928
 11
136.016
 21
-57.9924
  0
LINE
  8
0
 10
136.016
 20
-57.9924
 11
136.231
 21
-58.1164
  0
LINE
  8
0
 10
136.231
 20
-58.1164
 11
136.43
 21
-58.2632
  0
LINE
  8
0
 10
136.43
 20
-58.2632
 11
136.613
 21
-58.4311
  0
LINE
  8
0
 10
136.613
 20
-58.4311
 11
136.776
 21
-58.618
  0
LINE
  8
0
 10
136.776
 20
-58.618
 11
136.917
 21
-58.8217
  0
LINE
  8
0
 10
136.917
 20
-58.8217
 11
137.035
 21
-59.0397
  0
LINE
  8
0
 10
137.035
 20
-59.0397
 11
137.128
 21
-59.2694
  0
LINE
  8
0
 10
137.128
 20
-59.2694
 11
137.196
 21
-59.508
  0
LINE
  8
0
 10
137.196
 20
-59.508
 11
137.236
 21
-59.7525
  0
LINE
  8
0
 10
137.236
 20
-59.7525
 11
137.25
 21
-60
  0
LINE
  8
0
 10
137.25
 20
-60
 11
137.236
 21
-60.2475
  0
LINE
  8
0
 10
137.236
 20
-60.2475
 11
137.196
 21
-60.492
  0
LINE
  8
0
 10
137.196
 20
-60.492
 11
137.128
 21
-60.7306
  0
LINE
  8
0
 10
137.128
 20
-60.7306
 11
137.035
 21
-60.9602
  0
LINE
  8
0
 10
137.035
 20
-60.9602
 11
136.917
 21
-61.1783
  0
LINE
  8
0
 10
136.917
 20
-61.1783
 11
136.776
 21
-61.382
  0
LINE
  8
0
 10
136.776
 20
-61.382
 11
136.613
 21
-61.5689
  0
LINE
  8
0
 10
136.613
 20
-61.5689
 11
136.43
 21
-61.7368
  0
LINE
  8
0
 10
136.43
 20
-61.7368
 11
136.231
 21
-61.8836
  0
LINE
  8
0
 10
136.231
 20
-61.8836
 11
136.016
 21
-62.0076
  0
LINE
  8
0
 10
136.016
 20
-62.0076
 11
135.789
 21
-62.1071
  0
LINE
  8
0
 10
135.789
 20
-62.1071
 11
135.552
 21
-62.1812
  0
LINE
  8
0
 10
135.552
 20
-62.1812
 11
135.309
 21
-62.2287
  0
LINE
  8
0
 10
135.309
 20
-62.2287
 11
135.062
 21
-62.2491
  0
LINE
  8
0
 10
135.062
 20
-62.2491
 11
134.814
 21
-62.2423
  0
LINE
  8
0
 10
-135.186
 20
-62.2423
 11
-135.431
 21
-62.2083
  0
LINE
  8
0
 10
-135.431
 20
-62.2083
 11
-135.672
 21
-62.1474
  0
LINE
  8
0
 10
-135.672
 20
-62.1474
 11
-135.904
 21
-62.0605
  0
LINE
  8
0
 10
-135.904
 20
-62.0605
 11
-136.125
 21
-61.9485
  0
LINE
  8
0
 10
-136.125
 20
-61.9485
 11
-136.333
 21
-61.813
  0
LINE
  8
0
 10
-136.333
 20
-61.813
 11
-136.524
 21
-61.6554
  0
LINE
  8
0
 10
-136.524
 20
-61.6554
 11
-136.697
 21
-61.4777
  0
LINE
  8
0
 10
-136.697
 20
-61.4777
 11
-136.849
 21
-61.2821
  0
LINE
  8
0
 10
-136.849
 20
-61.2821
 11
-136.979
 21
-61.0709
  0
LINE
  8
0
 10
-136.979
 20
-61.0709
 11
-137.085
 21
-60.8467
  0
LINE
  8
0
 10
-137.085
 20
-60.8467
 11
-137.165
 21
-60.6122
  0
LINE
  8
0
 10
-137.165
 20
-60.6122
 11
-137.219
 21
-60.3703
  0
LINE
  8
0
 10
-137.219
 20
-60.3703
 11
-137.247
 21
-60.1239
  0
LINE
  8
0
 10
-137.247
 20
-60.1239
 11
-137.247
 21
-59.8761
  0
LINE
  8
0
 10
-137.247
 20
-59.8761
 11
-137.219
 21
-59.6297
  0
LINE
  8
0
 10
-137.219
 20
-59.6297
 11
-137.165
 21
-59.3878
  0
LINE
  8
0
 10
-137.165
 20
-59.3878
 11
-137.085
 21
-59.1533
  0
LINE
  8
0
 10
-137.085
 20
-59.1533
 11
-136.979
 21
-58.9291
  0
LINE
  8
0
 10
-136.979
 20
-58.9291
 11
-136.849
 21
-58.7179
  0
LINE
  8
0
 10
-136.849
 20
-58.7179
 11
-136.697
 21
-58.5223
  0
LINE
  8
0
 10
-136.697
 20
-58.5223
 11
-136.524
 21
-58.3446
  0
LINE
  8
0
 10
-136.524
 20
-58.3446
 11
-136.333
 21
-58.187
  0
LINE
  8
0
 10
-136.333
 20
-58.187
 11
-136.125
 21
-58.0514
  0
LINE
  8
0
 10
-136.125
 20
-58.0514
 11
-135.904
 21
-57.9395
  0
LINE
  8
0
 10
-135.904
 20
-57.9395
 11
-135.672
 21
-57.8526
  0
LINE
  8
0
 10
-135.672
 20
-57.8526
 11
-135.431
 21
-57.7917
  0
LINE
  8
0
 10
-135.431
 20
-57.7917
 11
-135.186
 21
-57.7577
  0
LINE
  8
0
 10
-135.186
 20
-57.7577
 11
-134.938
 21
-57.7509
  0
LINE
  8
0
 10
-134.938
 20
-57.7509
 11
-134.691
 21
-57.7713
  0
LINE
  8
0
 10
-134.691
 20
-57.7713
 11
-134.448
 21
-57.8188
  0
LINE
  8
0
 10
-134.448
 20
-57.8188
 11
-134.211
 21
-57.8928
  0
LINE
  8
0
 10
-134.211
 20
-57.8928
 11
-133.984
 21
-57.9924
  0
LINE
  8
0
 10
-133.984
 20
-57.9924
 11
-133.769
 21
-58.1164
  0
LINE
  8
0
 10
-133.769
 20
-58.1164
 11
-133.57
 21
-58.2632
  0
LINE
  8
0
 10
-133.57
 20
-58.2632
 11
-133.387
 21
-58.4311
  0
LINE
  8
0
 10
-133.387
 20
-58.4311
 11
-133.224
 21
-58.618
  0
LINE
  8
0
 10
-133.224
 20
-58.618
 11
-133.083
 21
-58.8217
  0
LINE
  8
0
 10
-133.083
 20
-58.8217
 11
-132.965
 21
-59.0397
  0
LINE
  8
0
 10
-132.965
 20
-59.0397
 11
-132.872
 21
-59.2694
  0
LINE
  8
0
 10
-132.872
 20
-59.2694
 11
-132.804
 21
-59.508
  0
LINE
  8
0
 10
-132.804
 20
-59.508
 11
-132.764
 21
-59.7525
  0
LINE
  8
0
 10
-132.764
 20
-59.7525
 11
-132.75
 21
-60
  0
LINE
  8
0
 10
-132.75
 20
-60
 11
-132.764
 21
-60.2475
  0
LINE
  8
0
 10
-132.764
 20
-60.2475
 11
-132.804
 21
-60.492
  0
LINE
  8
0
 10
-132.804
 20
-60.492
 11
-132.872
 21
-60.7306
  0
LINE
  8
0
 10
-132.872
 20
-60.7306
 11
-132.965
 21
-60.9602
  0
LINE
  8
0
 10
-132.965
 20
-60.9602
 11
-133.083
 21
-61.1783
  0
LINE
  8
0
 10
-133.083
 20
-61.1783
 11
-133.224
 21
-61.382
  0
LINE
  8
0
 10
-133.224
 20
-61.382
 11
-133.387
 21
-61.5689
  0
LINE
  8
0
 10
-133.387
 20
-61.5689
 11
-133.57
 21
-61.7368
  0
LINE
  8
0
 10
-133.57
 20
-61.7368
 11
-133.769
 21
-61.8836
  0
LINE
  8
0
 10
-133.769
 20
-61.8836
 11
-133.984
 21
-62.0076
  0
LINE
  8
0
 10
-133.984
 20
-62.0076
 11
-134.211
 21
-62.1071
  0
LINE
  8
0
 10
-134.211
 20
-62.1071
 11
-134.448
 21
-62.1812
  0
LINE
  8
0
 10
-134.448
 20
-62.1812
 11
-134.691
 21
-62.2287
  0
LINE
  8
0
 10
-134.691
 20
-62.2287
 11
-134.938
 21
-62.2491
  0
LINE
  8
0
 10
-134.938
 20
-62.2491
 11
-135.186
 21
-62.2423
  0
LINE
  8
0
 10
224.814
 20
-62.2423
 11
224.569
 21
-62.2083
  0
LINE
  8
0
 10
224.569
 20
-62.2083
 11
224.328
 21
-62.1474
  0
LINE
  8
0
 10
224.328
 20
-62.1474
 11
224.096
 21
-62.0605
  0
LINE
  8
0
 10
224.096
 20
-62.0605
 11
223.875
 21
-61.9485
  0
LINE
  8
0
 10
223.875
 20
-61.9485
 11
223.667
 21
-61.813
  0
LINE
  8
0
 10
223.667
 20
-61.813
 11
223.476
 21
-61.6554
  0
LINE
  8
0
 10
223.476
 20
-61.6554
 11
223.303
 21
-61.4777
  0
LINE
  8
0
 10
223.303
 20
-61.4777
 11
223.151
 21
-61.2821
  0
LINE
  8
0
 10
223.151
 20
-61.2821
 11
223.021
 21
-61.0709
  0
LINE
  8
0
 10
223.021
 20
-61.0709
 11
222.915
 21
-60.8467
  0
LINE
  8
0
 10
222.915
 20
-60.8467
 11
222.835
 21
-60.6122
  0
LINE
  8
0
 10
222.835
 20
-60.6122
 11
222.781
 21
-60.3703
  0
LINE
  8
0
 10
222.781
 20
-60.3703
 11
222.753
 21
-60.1239
  0
LINE
  8
0
 10
222.753
 20
-60.1239
 11
222.753
 21
-59.8761
  0
LINE
  8
0
 10
222.753
 20
-59.8761
 11
222.781
 21
-59.6297
  0
LINE
  8
0
 10
222.781
 20
-59.6297
 11
222.835
 21
-59.3878
  0
LINE
  8
0
 10
222.835
 20
-59.3878
 11
222.915
 21
-59.1533
  0
LINE
  8
0
 10
222.915
 20
-59.1533
 11
223.021
 21
-58.9291
  0
LINE
  8
0
 10
223.021
 20
-58.9291
 11
223.151
 21
-58.7179
  0
LINE
  8
0
 10
223.151
 20
-58.7179
 11
223.303
 21
-58.5223
  0
LINE
  8
0
 10
223.303
 20
-58.5223
 11
223.476
 21
-58.3446
  0
LINE
  8
0
 10
223.476
 20
-58.3446
 11
223.667
 21
-58.187
  0
LINE
  8
0
 10
223.667
 20
-58.187
 11
223.875
 21
-58.0514
  0
LINE
  8
0
 10
223.875
 20
-58.0514
 11
224.096
 21
-57.9395
  0
LINE
  8
0
 10
224.096
 20
-57.9395
 11
224.328
 21
-57.8526
  0
LINE
  8
0
 10
224.328
 20
-57.8526
 11
224.569
 21
-57.7917
  0
LINE
  8
0
 10
224.569
 20
-57.7917
 11
224.814
 21
-57.7577
  0
LINE
  8
0
 10
224.814
 20
-57.7577
 11
225.062
 21
-57.7509
  0
LINE
  8
0
 10
225.062
 20
-57.7509
 11
225.309
 21
-57.7713
  0
LINE
  8
0
 10
225.309
 20
-57.7713
 11
225.552
 21
-57.8188
  0
LINE
  8
0
 10
225.552
 20
-57.8188
 11
225.789
 21
-57.8928
  0
LINE
  8
0
 10
225.789
 20
-57.8928
 11
226.016
 21
-57.9924
  0
LINE
  8
0
 10
226.016
 20
-57.9924
 11
226.231
 21
-58.1164
  0
LINE
  8
0
 10
226.231
 20
-58.1164
 11
226.43
 21
-58.2632
  0
LINE
  8
0
 10
226.43
 20
-58.2632
 11
226.613
 21
-58.4311
  0
LINE
  8
0
 10
226.613
 20
-58.4311
 11
226.776
 21
-58.618
  0
LINE
  8
0
 10
226.776
 20
-58.618
 11
226.917
 21
-58.8217
  0
LINE
  8
0
 10
226.917
 20
-58.8217
 11
227.035
 21
-59.0397
  0
LINE
  8
0
 10
227.035
 20
-59.0397
 11
227.128
 21
-59.2694
  0
LINE
  8
0
 10
227.128
 20
-59.2694
 11
227.196
 21
-59.508
  0
LINE
  8
0
 10
227.196
 20
-59.508
 11
227.236
 21
-59.7525
  0
LINE
  8
0
 10
227.236
 20
-59.7525
 11
227.25
 21
-60
  0
LINE
  8
0
 10
227.25
 20
-60
 11
227.236
 21
-60.2475
  0
LINE
  8
0
 10
227.236
 20
-60.2475
 11
227.196
 21
-60.492
  0
LINE
  8
0
 10
227.196
 20
-60.492
 11
227.128
 21
-60.7306
  0
LINE
  8
0
 10
227.128
 20
-60.7306
 11
227.035
 21
-60.9602
  0
LINE
  8
0
 10
227.035
 20
-60.9602
 11
226.917
 21
-61.1783
  0
LINE
  8
0
 10
226.917
 20
-61.1783
 11
226.776
 21
-61.382
  0
LINE
  8
0
 10
226.776
 20
-61.382
 11
226.613
 21
-61.5689
  0
LINE
  8
0
 10
226.613
 20
-61.5689
 11
226.43
 21
-61.7368
  0
LINE
  8
0
 10
226.43
 20
-61.7368
 11
226.231
 21
-61.8836
  0
LINE
  8
0
 10
226.231
 20
-61.8836
 11
226.016
 21
-62.0076
  0
LINE
  8
0
 10
226.016
 20
-62.0076
 11
225.789
 21
-62.1071
  0
LINE
  8
0
 10
225.789
 20
-62.1071
 11
225.552
 21
-62.1812
  0
LINE
  8
0
 10
225.552
 20
-62.1812
 11
225.309
 21
-62.2287
  0
LINE
  8
0
 10
225.309
 20
-62.2287
 11
225.062
 21
-62.2491
  0
LINE
  8
0
 10
225.062
 20
-62.2491
 11
224.814
 21
-62.2423
  0
LINE
  8
0
 10
44.8142
 20
-62.2423
 11
44.5686
 21
-62.2083
  0
LINE
  8
0
 10
44.5686
 20
-62.2083
 11
44.3283
 21
-62.1474
  0
LINE
  8
0
 10
44.3283
 20
-62.1474
 11
44.0962
 21
-62.0605
  0
LINE
  8
0
 10
44.0962
 20
-62.0605
 11
43.875
 21
-61.9485
  0
LINE
  8
0
 10
43.875
 20
-61.9485
 11
43.6675
 21
-61.813
  0
LINE
  8
0
 10
43.6675
 20
-61.813
 11
43.4761
 21
-61.6554
  0
LINE
  8
0
 10
43.4761
 20
-61.6554
 11
43.3033
 21
-61.4777
  0
LINE
  8
0
 10
43.3033
 20
-61.4777
 11
43.151
 21
-61.2821
  0
LINE
  8
0
 10
43.151
 20
-61.2821
 11
43.0212
 21
-61.0709
  0
LINE
  8
0
 10
43.0212
 20
-61.0709
 11
42.9154
 21
-60.8467
  0
LINE
  8
0
 10
42.9154
 20
-60.8467
 11
42.8349
 21
-60.6122
  0
LINE
  8
0
 10
42.8349
 20
-60.6122
 11
42.7807
 21
-60.3703
  0
LINE
  8
0
 10
42.7807
 20
-60.3703
 11
42.7534
 21
-60.1239
  0
LINE
  8
0
 10
42.7534
 20
-60.1239
 11
42.7534
 21
-59.8761
  0
LINE
  8
0
 10
42.7534
 20
-59.8761
 11
42.7807
 21
-59.6297
  0
LINE
  8
0
 10
42.7807
 20
-59.6297
 11
42.8349
 21
-59.3878
  0
LINE
  8
0
 10
42.8349
 20
-59.3878
 11
42.9154
 21
-59.1533
  0
LINE
  8
0
 10
42.9154
 20
-59.1533
 11
43.0212
 21
-58.9291
  0
LINE
  8
0
 10
43.0212
 20
-58.9291
 11
43.151
 21
-58.7179
  0
LINE
  8
0
 10
43.151
 20
-58.7179
 11
43.3033
 21
-58.5223
  0
LINE
  8
0
 10
43.3033
 20
-58.5223
 11
43.4761
 21
-58.3446
  0
LINE
  8
0
 10
43.4761
 20
-58.3446
 11
43.6675
 21
-58.187
  0
LINE
  8
0
 10
43.6675
 20
-58.187
 11
43.875
 21
-58.0514
  0
LINE
  8
0
 10
43.875
 20
-58.0514
 11
44.0962
 21
-57.9395
  0
LINE
  8
0
 10
44.0962
 20
-57.9395
 11
44.3283
 21
-57.8526
  0
LINE
  8
0
 10
44.3283
 20
-57.8526
 11
44.5686
 21
-57.7917
  0
LINE
  8
0
 10
44.5686
 20
-57.7917
 11
44.8142
 21
-57.7577
  0
LINE
  8
0
 10
44.8142
 20
-57.7577
 11
45.062
 21
-57.7509
  0
LINE
  8
0
 10
45.062
 20
-57.7509
 11
45.309
 21
-57.7713
  0
LINE
  8
0
 10
45.309
 20
-57.7713
 11
45.5523
 21
-57.8188
  0
LINE
  8
0
 10
45.5523
 20
-57.8188
 11
45.7889
 21
-57.8928
  0
LINE
  8
0
 10
45.7889
 20
-57.8928
 11
46.0159
 21
-57.9924
  0
LINE
  8
0
 10
46.0159
 20
-57.9924
 11
46.2306
 21
-58.1164
  0
LINE
  8
0
 10
46.2306
 20
-58.1164
 11
46.4304
 21
-58.2632
  0
LINE
  8
0
 10
46.4304
 20
-58.2632
 11
46.6128
 21
-58.4311
  0
LINE
  8
0
 10
46.6128
 20
-58.4311
 11
46.7756
 21
-58.618
  0
LINE
  8
0
 10
46.7756
 20
-58.618
 11
46.9168
 21
-58.8217
  0
LINE
  8
0
 10
46.9168
 20
-58.8217
 11
47.0348
 21
-59.0397
  0
LINE
  8
0
 10
47.0348
 20
-59.0397
 11
47.1281
 21
-59.2694
  0
LINE
  8
0
 10
47.1281
 20
-59.2694
 11
47.1955
 21
-59.508
  0
LINE
  8
0
 10
47.1955
 20
-59.508
 11
47.2363
 21
-59.7525
  0
LINE
  8
0
 10
47.2363
 20
-59.7525
 11
47.25
 21
-60
  0
LINE
  8
0
 10
47.25
 20
-60
 11
47.2363
 21
-60.2475
  0
LINE
  8
0
 10
47.2363
 20
-60.2475
 11
47.1955
 21
-60.492
  0
LINE
  8
0
 10
47.1955
 20
-60.492
 11
47.1281
 21
-60.7306
  0
LINE
  8
0
 10
47.1281
 20
-60.7306
 11
47.0348
 21
-60.9602
  0
LINE
  8
0
 10
47.0348
 20
-60.9602
 11
46.9168
 21
-61.1783
  0
LINE
  8
0
 10
46.9168
 20
-61.1783
 11
46.7756
 21
-61.382
  0
LINE
  8
0
 10
46.7756
 20
-61.382
 11
46.6128
 21
-61.5689
  0
LINE
  8
0
 10
46.6128
 20
-61.5689
 11
46.4304
 21
-61.7368
  0
LINE
  8
0
 10
46.4304
 20
-61.7368
 11
46.2306
 21
-61.8836
  0
LINE
  8
0
 10
46.2306
 20
-61.8836
 11
46.0159
 21
-62.0076
  0
LINE
  8
0
 10
46.0159
 20
-62.0076
 11
45.7889
 21
-62.1071
  0
LINE
  8
0
 10
45.7889
 20
-62.1071
 11
45.5523
 21
-62.1812
  0
LINE
  8
0
 10
45.5523
 20
-62.1812
 11
45.309
 21
-62.2287
  0
LINE
  8
0
 10
45.309
 20
-62.2287
 11
45.062
 21
-62.2491
  0
LINE
  8
0
 10
45.062
 20
-62.2491
 11
44.8142
 21
-62.2423
  0
LINE
  8
0
 10
-315.523
 20
-119.923
 11
-316.04
 21
-119.841
  0
LINE
  8
0
 10
-316.04
 20
-119.841
 11
-316.545
 21
-119.705
  0
LINE
  8
0
 10
-316.545
 20
-119.705
 11
-317.034
 21
-119.518
  0
LINE
  8
0
 10
-317.034
 20
-119.518
 11
-317.5
 21
-119.28
  0
LINE
  8
0
 10
-317.5
 20
-119.28
 11
-317.939
 21
-118.995
  0
LINE
  8
0
 10
-317.939
 20
-118.995
 11
-318.346
 21
-118.666
  0
LINE
  8
0
 10
-318.346
 20
-118.666
 11
-318.716
 21
-118.296
  0
LINE
  8
0
 10
-318.716
 20
-118.296
 11
-319.045
 21
-117.889
  0
LINE
  8
0
 10
-319.045
 20
-117.889
 11
-319.33
 21
-117.45
  0
LINE
  8
0
 10
-319.33
 20
-117.45
 11
-319.568
 21
-116.984
  0
LINE
  8
0
 10
-319.568
 20
-116.984
 11
-319.755
 21
-116.495
  0
LINE
  8
0
 10
-319.755
 20
-116.495
 11
-319.891
 21
-115.99
  0
LINE
  8
0
 10
-319.891
 20
-115.99
 11
-319.973
 21
-115.473
  0
LINE
  8
0
 10
-319.973
 20
-115.473
 11
-320
 21
-114.95
  0
LINE
  8
0
 10
-320
 20
-114.95
 11
-319.973
 21
-114.427
  0
LINE
  8
0
 10
-319.973
 20
-114.427
 11
-319.891
 21
-113.91
  0
LINE
  8
0
 10
-319.891
 20
-113.91
 11
-319.755
 21
-113.405
  0
LINE
  8
0
 10
-319.755
 20
-113.405
 11
-319.568
 21
-112.916
  0
LINE
  8
0
 10
-319.568
 20
-112.916
 11
-319.33
 21
-112.45
  0
LINE
  8
0
 10
-319.33
 20
-112.45
 11
-319.045
 21
-112.011
  0
LINE
  8
0
 10
-319.045
 20
-112.011
 11
-318.716
 21
-111.604
  0
LINE
  8
0
 10
-318.716
 20
-111.604
 11
-318.346
 21
-111.234
  0
LINE
  8
0
 10
-318.346
 20
-111.234
 11
-317.939
 21
-110.905
  0
LINE
  8
0
 10
-317.939
 20
-110.905
 11
-317.5
 21
-110.62
  0
LINE
  8
0
 10
-317.5
 20
-110.62
 11
-317.034
 21
-110.382
  0
LINE
  8
0
 10
-317.034
 20
-110.382
 11
-316.545
 21
-110.195
  0
LINE
  8
0
 10
-316.545
 20
-110.195
 11
-316.04
 21
-110.059
  0
LINE
  8
0
 10
-316.04
 20
-110.059
 11
-315.523
 21
-109.977
  0
LINE
  8
0
 10
-315.523
 20
-109.977
 11
-315
 21
-109.95
  0
LINE
  8
0
 10
-315
 20
-109.95
 11
-314.477
 21
-109.977
  0
LINE
  8
0
 10
-314.477
 20
-109.977
 11
-313.96
 21
-110.059
  0
LINE
  8
0
 10
-313.96
 20
-110.059
 11
-313.455
 21
-110.195
  0
LINE
  8
0
 10
-313.455
 20
-110.195
 11
-312.966
 21
-110.382
  0
LINE
  8
0
 10
-312.966
 20
-110.382
 11
-312.5
 21
-110.62
  0
LINE
  8
0
 10
-312.5
 20
-110.62
 11
-312.061
 21
-110.905
  0
LINE
  8
0
 10
-312.061
 20
-110.905
 11
-311.654
 21
-111.234
  0
LINE
  8
0
 10
-311.654
 20
-111.234
 11
-311.284
 21
-111.604
  0
LINE
  8
0
 10
-311.284
 20
-111.604
 11
-310.955
 21
-112.011
  0
LINE
  8
0
 10
-310.955
 20
-112.011
 11
-310.67
 21
-112.45
  0
LINE
  8
0
 10
-310.67
 20
-112.45
 11
-310.432
 21
-112.916
  0
LINE
  8
0
 10
-310.432
 20
-112.916
 11
-310.245
 21
-113.405
  0
LINE
  8
0
 10
-310.245
 20
-113.405
 11
-310.109
 21
-113.91
  0
LINE
  8
0
 10
-310.109
 20
-113.91
 11
-310.027
 21
-114.427
  0
LINE
  8
0
 10
-310.027
 20
-114.427
 11
-310
 21
-114.95
  0
LINE
  8
0
 10
-310
 20
-114.95
 11
-310.027
 21
-115.473
  0
LINE
  8
0
 10
-310.027
 20
-115.473
 11
-310.109
 21
-115.99
  0
LINE
  8
0
 10
-310.109
 20
-115.99
 11
-310.245
 21
-116.495
  0
LINE
  8
0
 10
-310.245
 20
-116.495
 11
-310.432
 21
-116.984
  0
LINE
  8
0
 10
-310.432
 20
-116.984
 11
-310.67
 21
-117.45
  0
LINE
  8
0
 10
-310.67
 20
-117.45
 11
-310.955
 21
-117.889
  0
LINE
  8
0
 10
-310.955
 20
-117.889
 11
-311.284
 21
-118.296
  0
LINE
  8
0
 10
-311.284
 20
-118.296
 11
-311.654
 21
-118.666
  0
LINE
  8
0
 10
-311.654
 20
-118.666
 11
-312.061
 21
-118.995
  0
LINE
  8
0
 10
-312.061
 20
-118.995
 11
-312.5
 21
-119.28
  0
LINE
  8
0
 10
-312.5
 20
-119.28
 11
-312.966
 21
-119.518
  0
LINE
  8
0
 10
-312.966
 20
-119.518
 11
-313.455
 21
-119.705
  0
LINE
  8
0
 10
-313.455
 20
-119.705
 11
-313.96
 21
-119.841
  0
LINE
  8
0
 10
-313.96
 20
-119.841
 11
-314.477
 21
-119.923
  0
LINE
  8
0
 10
-314.477
 20
-119.923
 11
-315
 21
-119.95
  0
LINE
  8
0
 10
-315
 20
-119.95
 11
-315.523
 21
-119.923
  0
LINE
  8
0
 10
314.477
 20
-119.923
 11
313.96
 21
-119.841
  0
LINE
  8
0
 10
313.96
 20
-119.841
 11
313.455
 21
-119.705
  0
LINE
  8
0
 10
313.455
 20
-119.705
 11
312.966
 21
-119.518
  0
LINE
  8
0
 10
312.966
 20
-119.518
 11
312.5
 21
-119.28
  0
LINE
  8
0
 10
312.5
 20
-119.28
 11
312.061
 21
-118.995
  0
LINE
  8
0
 10
312.061
 20
-118.995
 11
311.654
 21
-118.666
  0
LINE
  8
0
 10
311.654
 20
-118.666
 11
311.284
 21
-118.296
  0
LINE
  8
0
 10
311.284
 20
-118.296
 11
310.955
 21
-117.889
  0
LINE
  8
0
 10
310.955
 20
-117.889
 11
310.67
 21
-117.45
  0
LINE
  8
0
 10
310.67
 20
-117.45
 11
310.432
 21
-116.984
  0
LINE
  8
0
 10
310.432
 20
-116.984
 11
310.245
 21
-116.495
  0
LINE
  8
0
 10
310.245
 20
-116.495
 11
310.109
 21
-115.99
  0
LINE
  8
0
 10
310.109
 20
-115.99
 11
310.027
 21
-115.473
  0
LINE
  8
0
 10
310.027
 20
-115.473
 11
310
 21
-114.95
  0
LINE
  8
0
 10
310
 20
-114.95
 11
310.027
 21
-114.427
  0
LINE
  8
0
 10
310.027
 20
-114.427
 11
310.109
 21
-113.91
  0
LINE
  8
0
 10
310.109
 20
-113.91
 11
310.245
 21
-113.405
  0
LINE
  8
0
 10
310.245
 20
-113.405
 11
310.432
 21
-112.916
  0
LINE
  8
0
 10
310.432
 20
-112.916
 11
310.67
 21
-112.45
  0
LINE
  8
0
 10
310.67
 20
-112.45
 11
310.955
 21
-112.011
  0
LINE
  8
0
 10
310.955
 20
-112.011
 11
311.284
 21
-111.604
  0
LINE
  8
0
 10
311.284
 20
-111.604
 11
311.654
 21
-111.234
  0
LINE
  8
0
 10
311.654
 20
-111.234
 11
312.061
 21
-110.905
  0
LINE
  8
0
 10
312.061
 20
-110.905
 11
312.5
 21
-110.62
  0
LINE
  8
0
 10
312.5
 20
-110.62
 11
312.966
 21
-110.382
  0
LINE
  8
0
 10
312.966
 20
-110.382
 11
313.455
 21
-110.195
  0
LINE
  8
0
 10
313.455
 20
-110.195
 11
313.96
 21
-110.059
  0
LINE
  8
0
 10
313.96
 20
-110.059
 11
314.477
 21
-109.977
  0
LINE
  8
0
 10
314.477
 20
-109.977
 11
315
 21
-109.95
  0
LINE
  8
0
 10
315
 20
-109.95
 11
315.523
 21
-109.977
  0
LINE
  8
0
 10
315.523
 20
-109.977
 11
316.04
 21
-110.059
  0
LINE
  8
0
 10
316.04
 20
-110.059
 11
316.545
 21
-110.195
  0
LINE
  8
0
 10
316.545
 20
-110.195
 11
317.034
 21
-110.382
  0
LINE
  8
0
 10
317.034
 20
-110.382
 11
317.5
 21
-110.62
  0
LINE
  8
0
 10
317.5
 20
-110.62
 11
317.939
 21
-110.905
  0
LINE
  8
0
 10
317.939
 20
-110.905
 11
318.346
 21
-111.234
  0
LINE
  8
0
 10
318.346
 20
-111.234
 11
318.716
 21
-111.604
  0
LINE
  8
0
 10
318.716
 20
-111.604
 11
319.045
 21
-112.011
  0
LINE
  8
0
 10
319.045
 20
-112.011
 11
319.33
 21
-112.45
  0
LINE
  8
0
 10
319.33
 20
-112.45
 11
319.568
 21
-112.916
  0
LINE
  8
0
 10
319.568
 20
-112.916
 11
319.755
 21
-113.405
  0
LINE
  8
0
 10
319.755
 20
-113.405
 11
319.891
 21
-113.91
  0
LINE
  8
0
 10
319.891
 20
-113.91
 11
319.973
 21
-114.427
  0
LINE
  8
0
 10
319.973
 20
-114.427
 11
320
 21
-114.95
  0
LINE
  8
0
 10
320
 20
-114.95
 11
319.973
 21
-115.473
  0
LINE
  8
0
 10
319.973
 20
-115.473
 11
319.891
 21
-115.99
  0
LINE
  8
0
 10
319.891
 20
-115.99
 11
319.755
 21
-116.495
  0
LINE
  8
0
 10
319.755
 20
-116.495
 11
319.568
 21
-116.984
  0
LINE
  8
0
 10
319.568
 20
-116.984
 11
319.33
 21
-117.45
  0
LINE
  8
0
 10
319.33
 20
-117.45
 11
319.045
 21
-117.889
  0
LINE
  8
0
 10
319.045
 20
-117.889
 11
318.716
 21
-118.296
  0
LINE
  8
0
 10
318.716
 20
-118.296
 11
318.346
 21
-118.666
  0
LINE
  8
0
 10
318.346
 20
-118.666
 11
317.939
 21
-118.995
  0
LINE
  8
0
 10
317.939
 20
-118.995
 11
317.5
 21
-119.28
  0
LINE
  8
0
 10
317.5
 20
-119.28
 11
317.034
 21
-119.518
  0
LINE
  8
0
 10
317.034
 20
-119.518
 11
316.545
 21
-119.705
  0
LINE
  8
0
 10
316.545
 20
-119.705
 11
316.04
 21
-119.841
  0
LINE
  8
0
 10
316.04
 20
-119.841
 11
315.523
 21
-119.923
  0
LINE
  8
0
 10
315.523
 20
-119.923
 11
315
 21
-119.95
  0
LINE
  8
0
 10
315
 20
-119.95
 11
314.477
 21
-119.923
  0
LINE
  8
0
 10
254.877
 20
-116.595
 11
254.633
 21
-116.559
  0
LINE
  8
0
 10
254.633
 20
-116.559
 11
254.397
 21
-116.486
  0
LINE
  8
0
 10
254.397
 20
-116.486
 11
254.175
 21
-116.379
  0
LINE
  8
0
 10
254.175
 20
-116.379
 11
253.971
 21
-116.24
  0
LINE
  8
0
 10
253.971
 20
-116.24
 11
253.79
 21
-116.072
  0
LINE
  8
0
 10
253.79
 20
-116.072
 11
253.637
 21
-115.879
  0
LINE
  8
0
 10
253.637
 20
-115.879
 11
253.513
 21
-115.666
  0
LINE
  8
0
 10
253.513
 20
-115.666
 11
253.423
 21
-115.436
  0
LINE
  8
0
 10
253.423
 20
-115.436
 11
253.368
 21
-115.196
  0
LINE
  8
0
 10
253.368
 20
-115.196
 11
253.35
 21
-114.95
  0
LINE
  8
0
 10
253.35
 20
-114.95
 11
253.368
 21
-114.704
  0
LINE
  8
0
 10
253.368
 20
-114.704
 11
253.423
 21
-114.464
  0
LINE
  8
0
 10
253.423
 20
-114.464
 11
253.513
 21
-114.234
  0
LINE
  8
0
 10
253.513
 20
-114.234
 11
253.637
 21
-114.021
  0
LINE
  8
0
 10
253.637
 20
-114.021
 11
253.79
 21
-113.828
  0
LINE
  8
0
 10
253.79
 20
-113.828
 11
253.971
 21
-113.66
  0
LINE
  8
0
 10
253.971
 20
-113.66
 11
254.175
 21
-113.521
  0
LINE
  8
0
 10
254.175
 20
-113.521
 11
254.397
 21
-113.414
  0
LINE
  8
0
 10
254.397
 20
-113.414
 11
254.633
 21
-113.341
  0
LINE
  8
0
 10
254.633
 20
-113.341
 11
254.877
 21
-113.305
  0
LINE
  8
0
 10
254.877
 20
-113.305
 11
295.123
 21
-113.305
  0
LINE
  8
0
 10
295.123
 20
-113.305
 11
295.367
 21
-113.341
  0
LINE
  8
0
 10
295.367
 20
-113.341
 11
295.603
 21
-113.414
  0
LINE
  8
0
 10
295.603
 20
-113.414
 11
295.825
 21
-113.521
  0
LINE
  8
0
 10
295.825
 20
-113.521
 11
296.029
 21
-113.66
  0
LINE
  8
0
 10
296.029
 20
-113.66
 11
296.21
 21
-113.828
  0
LINE
  8
0
 10
296.21
 20
-113.828
 11
296.363
 21
-114.021
  0
LINE
  8
0
 10
296.363
 20
-114.021
 11
296.487
 21
-114.234
  0
LINE
  8
0
 10
296.487
 20
-114.234
 11
296.577
 21
-114.464
  0
LINE
  8
0
 10
296.577
 20
-114.464
 11
296.632
 21
-114.704
  0
LINE
  8
0
 10
296.632
 20
-114.704
 11
296.65
 21
-114.95
  0
LINE
  8
0
 10
296.65
 20
-114.95
 11
296.632
 21
-115.196
  0
LINE
  8
0
 10
296.632
 20
-115.196
 11
296.577
 21
-115.436
  0
LINE
  8
0
 10
296.577
 20
-115.436
 11
296.487
 21
-115.666
  0
LINE
  8
0
 10
296.487
 20
-115.666
 11
296.363
 21
-115.879
  0
LINE
  8
0
 10
296.363
 20
-115.879
 11
296.21
 21
-116.072
  0
LINE
  8
0
 10
296.21
 20
-116.072
 11
296.029
 21
-116.24
  0
LINE
  8
0
 10
296.029
 20
-116.24
 11
295.825
 21
-116.379
  0
LINE
  8
0
 10
295.825
 20
-116.379
 11
295.603
 21
-116.486
  0
LINE
  8
0
 10
295.603
 20
-116.486
 11
295.367
 21
-116.559
  0
LINE
  8
0
 10
295.367
 20
-116.559
 11
295.123
 21
-116.595
  0
LINE
  8
0
 10
295.123
 20
-116.595
 11
254.877
 21
-116.595
  0
LINE
  8
0
 10
-203.457
 20
-116.595
 11
-203.701
 21
-116.559
  0
LINE
  8
0
 10
-203.701
 20
-116.559
 11
-203.936
 21
-116.486
  0
LINE
  8
0
 10
-203.936
 20
-116.486
 11
-204.158
 21
-116.379
  0
LINE
  8
0
 10
-204.158
 20
-116.379
 11
-204.362
 21
-116.24
  0
LINE
  8
0
 10
-204.362
 20
-116.24
 11
-204.543
 21
-116.072
  0
LINE
  8
0
 10
-204.543
 20
-116.072
 11
-204.697
 21
-115.879
  0
LINE
  8
0
 10
-204.697
 20
-115.879
 11
-204.82
 21
-115.666
  0
LINE
  8
0
 10
-204.82
 20
-115.666
 11
-204.91
 21
-115.436
  0
LINE
  8
0
 10
-204.91
 20
-115.436
 11
-204.965
 21
-115.196
  0
LINE
  8
0
 10
-204.965
 20
-115.196
 11
-204.983
 21
-114.95
  0
LINE
  8
0
 10
-204.983
 20
-114.95
 11
-204.965
 21
-114.704
  0
LINE
  8
0
 10
-204.965
 20
-114.704
 11
-204.91
 21
-114.464
  0
LINE
  8
0
 10
-204.91
 20
-114.464
 11
-204.82
 21
-114.234
  0
LINE
  8
0
 10
-204.82
 20
-114.234
 11
-204.697
 21
-114.021
  0
LINE
  8
0
 10
-204.697
 20
-114.021
 11
-204.543
 21
-113.828
  0
LINE
  8
0
 10
-204.543
 20
-113.828
 11
-204.362
 21
-113.66
  0
LINE
  8
0
 10
-204.362
 20
-113.66
 11
-204.158
 21
-113.521
  0
LINE
  8
0
 10
-204.158
 20
-113.521
 11
-203.936
 21
-113.414
  0
LINE
  8
0
 10
-203.936
 20
-113.414
 11
-203.701
 21
-113.341
  0
LINE
  8
0
 10
-203.701
 20
-113.341
 11
-203.457
 21
-113.305
  0
LINE
  8
0
 10
-203.457
 20
-113.305
 11
-163.21
 21
-113.305
  0
LINE
  8
0
 10
-163.21
 20
-113.305
 11
-162.966
 21
-113.341
  0
LINE
  8
0
 10
-162.966
 20
-113.341
 11
-162.731
 21
-113.414
  0
LINE
  8
0
 10
-162.731
 20
-113.414
 11
-162.508
 21
-113.521
  0
LINE
  8
0
 10
-162.508
 20
-113.521
 11
-162.305
 21
-113.66
  0
LINE
  8
0
 10
-162.305
 20
-113.66
 11
-162.124
 21
-113.828
  0
LINE
  8
0
 10
-162.124
 20
-113.828
 11
-161.97
 21
-114.021
  0
LINE
  8
0
 10
-161.97
 20
-114.021
 11
-161.847
 21
-114.234
  0
LINE
  8
0
 10
-161.847
 20
-114.234
 11
-161.757
 21
-114.464
  0
LINE
  8
0
 10
-161.757
 20
-114.464
 11
-161.702
 21
-114.704
  0
LINE
  8
0
 10
-161.702
 20
-114.704
 11
-161.683
 21
-114.95
  0
LINE
  8
0
 10
-161.683
 20
-114.95
 11
-161.702
 21
-115.196
  0
LINE
  8
0
 10
-161.702
 20
-115.196
 11
-161.757
 21
-115.436
  0
LINE
  8
0
 10
-161.757
 20
-115.436
 11
-161.847
 21
-115.666
  0
LINE
  8
0
 10
-161.847
 20
-115.666
 11
-161.97
 21
-115.879
  0
LINE
  8
0
 10
-161.97
 20
-115.879
 11
-162.124
 21
-116.072
  0
LINE
  8
0
 10
-162.124
 20
-116.072
 11
-162.305
 21
-116.24
  0
LINE
  8
0
 10
-162.305
 20
-116.24
 11
-162.508
 21
-116.379
  0
LINE
  8
0
 10
-162.508
 20
-116.379
 11
-162.731
 21
-116.486
  0
LINE
  8
0
 10
-162.731
 20
-116.486
 11
-162.966
 21
-116.559
  0
LINE
  8
0
 10
-162.966
 20
-116.559
 11
-163.21
 21
-116.595
  0
LINE
  8
0
 10
-163.21
 20
-116.595
 11
-203.457
 21
-116.595
  0
LINE
  8
0
 10
71.5434
 20
-116.595
 11
71.2995
 21
-116.559
  0
LINE
  8
0
 10
71.2995
 20
-116.559
 11
71.0638
 21
-116.486
  0
LINE
  8
0
 10
71.0638
 20
-116.486
 11
70.8417
 21
-116.379
  0
LINE
  8
0
 10
70.8417
 20
-116.379
 11
70.6379
 21
-116.24
  0
LINE
  8
0
 10
70.6379
 20
-116.24
 11
70.4571
 21
-116.072
  0
LINE
  8
0
 10
70.4571
 20
-116.072
 11
70.3034
 21
-115.879
  0
LINE
  8
0
 10
70.3034
 20
-115.879
 11
70.1801
 21
-115.666
  0
LINE
  8
0
 10
70.1801
 20
-115.666
 11
70.09
 21
-115.436
  0
LINE
  8
0
 10
70.09
 20
-115.436
 11
70.0351
 21
-115.196
  0
LINE
  8
0
 10
70.0351
 20
-115.196
 11
70.0167
 21
-114.95
  0
LINE
  8
0
 10
70.0167
 20
-114.95
 11
70.0351
 21
-114.704
  0
LINE
  8
0
 10
70.0351
 20
-114.704
 11
70.09
 21
-114.464
  0
LINE
  8
0
 10
70.09
 20
-114.464
 11
70.1801
 21
-114.234
  0
LINE
  8
0
 10
70.1801
 20
-114.234
 11
70.3034
 21
-114.021
  0
LINE
  8
0
 10
70.3034
 20
-114.021
 11
70.4571
 21
-113.828
  0
LINE
  8
0
 10
70.4571
 20
-113.828
 11
70.6379
 21
-113.66
  0
LINE
  8
0
 10
70.6379
 20
-113.66
 11
70.8417
 21
-113.521
  0
LINE
  8
0
 10
70.8417
 20
-113.521
 11
71.0638
 21
-113.414
  0
LINE
  8
0
 10
71.0638
 20
-113.414
 11
71.2995
 21
-113.341
  0
LINE
  8
0
 10
71.2995
 20
-113.341
 11
71.5434
 21
-113.305
  0
LINE
  8
0
 10
71.5434
 20
-113.305
 11
111.79
 21
-113.305
  0
LINE
  8
0
 10
111.79
 20
-113.305
 11
112.034
 21
-113.341
  0
LINE
  8
0
 10
112.034
 20
-113.341
 11
112.269
 21
-113.414
  0
LINE
  8
0
 10
112.269
 20
-113.414
 11
112.492
 21
-113.521
  0
LINE
  8
0
 10
112.492
 20
-113.521
 11
112.695
 21
-113.66
  0
LINE
  8
0
 10
112.695
 20
-113.66
 11
112.876
 21
-113.828
  0
LINE
  8
0
 10
112.876
 20
-113.828
 11
113.03
 21
-114.021
  0
LINE
  8
0
 10
113.03
 20
-114.021
 11
113.153
 21
-114.234
  0
LINE
  8
0
 10
113.153
 20
-114.234
 11
113.243
 21
-114.464
  0
LINE
  8
0
 10
113.243
 20
-114.464
 11
113.298
 21
-114.704
  0
LINE
  8
0
 10
113.298
 20
-114.704
 11
113.317
 21
-114.95
  0
LINE
  8
0
 10
113.317
 20
-114.95
 11
113.298
 21
-115.196
  0
LINE
  8
0
 10
113.298
 20
-115.196
 11
113.243
 21
-115.436
  0
LINE
  8
0
 10
113.243
 20
-115.436
 11
113.153
 21
-115.666
  0
LINE
  8
0
 10
113.153
 20
-115.666
 11
113.03
 21
-115.879
  0
LINE
  8
0
 10
113.03
 20
-115.879
 11
112.876
 21
-116.072
  0
LINE
  8
0
 10
112.876
 20
-116.072
 11
112.695
 21
-116.24
  0
LINE
  8
0
 10
112.695
 20
-116.24
 11
112.492
 21
-116.379
  0
LINE
  8
0
 10
112.492
 20
-116.379
 11
112.269
 21
-116.486
  0
LINE
  8
0
 10
112.269
 20
-116.486
 11
112.034
 21
-116.559
  0
LINE
  8
0
 10
112.034
 20
-116.559
 11
111.79
 21
-116.595
  0
LINE
  8
0
 10
111.79
 20
-116.595
 11
71.5434
 21
-116.595
  0
LINE
  8
0
 10
-20.1233
 20
-116.595
 11
-20.3672
 21
-116.559
  0
LINE
  8
0
 10
-20.3672
 20
-116.559
 11
-20.6028
 21
-116.486
  0
LINE
  8
0
 10
-20.6028
 20
-116.486
 11
-20.825
 21
-116.379
  0
LINE
  8
0
 10
-20.825
 20
-116.379
 11
-21.0287
 21
-116.24
  0
LINE
  8
0
 10
-21.0287
 20
-116.24
 11
-21.2095
 21
-116.072
  0
LINE
  8
0
 10
-21.2095
 20
-116.072
 11
-21.3633
 21
-115.879
  0
LINE
  8
0
 10
-21.3633
 20
-115.879
 11
-21.4866
 21
-115.666
  0
LINE
  8
0
 10
-21.4866
 20
-115.666
 11
-21.5767
 21
-115.436
  0
LINE
  8
0
 10
-21.5767
 20
-115.436
 11
-21.6316
 21
-115.196
  0
LINE
  8
0
 10
-21.6316
 20
-115.196
 11
-21.65
 21
-114.95
  0
LINE
  8
0
 10
-21.65
 20
-114.95
 11
-21.6316
 21
-114.704
  0
LINE
  8
0
 10
-21.6316
 20
-114.704
 11
-21.5767
 21
-114.464
  0
LINE
  8
0
 10
-21.5767
 20
-114.464
 11
-21.4866
 21
-114.234
  0
LINE
  8
0
 10
-21.4866
 20
-114.234
 11
-21.3633
 21
-114.021
  0
LINE
  8
0
 10
-21.3633
 20
-114.021
 11
-21.2095
 21
-113.828
  0
LINE
  8
0
 10
-21.2095
 20
-113.828
 11
-21.0287
 21
-113.66
  0
LINE
  8
0
 10
-21.0287
 20
-113.66
 11
-20.825
 21
-113.521
  0
LINE
  8
0
 10
-20.825
 20
-113.521
 11
-20.6028
 21
-113.414
  0
LINE
  8
0
 10
-20.6028
 20
-113.414
 11
-20.3672
 21
-113.341
  0
LINE
  8
0
 10
-20.3672
 20
-113.341
 11
-20.1233
 21
-113.305
  0
LINE
  8
0
 10
-20.1233
 20
-113.305
 11
20.1233
 21
-113.305
  0
LINE
  8
0
 10
20.1233
 20
-113.305
 11
20.3672
 21
-113.341
  0
LINE
  8
0
 10
20.3672
 20
-113.341
 11
20.6028
 21
-113.414
  0
LINE
  8
0
 10
20.6028
 20
-113.414
 11
20.825
 21
-113.521
  0
LINE
  8
0
 10
20.825
 20
-113.521
 11
21.0287
 21
-113.66
  0
LINE
  8
0
 10
21.0287
 20
-113.66
 11
21.2095
 21
-113.828
  0
LINE
  8
0
 10
21.2095
 20
-113.828
 11
21.3633
 21
-114.021
  0
LINE
  8
0
 10
21.3633
 20
-114.021
 11
21.4866
 21
-114.234
  0
LINE
  8
0
 10
21.4866
 20
-114.234
 11
21.5767
 21
-114.464
  0
LINE
  8
0
 10
21.5767
 20
-114.464
 11
21.6316
 21
-114.704
  0
LINE
  8
0
 10
21.6316
 20
-114.704
 11
21.65
 21
-114.95
  0
LINE
  8
0
 10
21.65
 20
-114.95
 11
21.6316
 21
-115.196
  0
LINE
  8
0
 10
21.6316
 20
-115.196
 11
21.5767
 21
-115.436
  0
LINE
  8
0
 10
21.5767
 20
-115.436
 11
21.4866
 21
-115.666
  0
LINE
  8
0
 10
21.4866
 20
-115.666
 11
21.3633
 21
-115.879
  0
LINE
  8
0
 10
21.3633
 20
-115.879
 11
21.2095
 21
-116.072
  0
LINE
  8
0
 10
21.2095
 20
-116.072
 11
21.0287
 21
-116.24
  0
LINE
  8
0
 10
21.0287
 20
-116.24
 11
20.825
 21
-116.379
  0
LINE
  8
0
 10
20.825
 20
-116.379
 11
20.6028
 21
-116.486
  0
LINE
  8
0
 10
20.6028
 20
-116.486
 11
20.3672
 21
-116.559
  0
LINE
  8
0
 10
20.3672
 20
-116.559
 11
20.1233
 21
-116.595
  0
LINE
  8
0
 10
20.1233
 20
-116.595
 11
-20.1233
 21
-116.595
  0
LINE
  8
0
 10
-295.123
 20
-116.595
 11
-295.367
 21
-116.559
  0
LINE
  8
0
 10
-295.367
 20
-116.559
 11
-295.603
 21
-116.486
  0
LINE
  8
0
 10
-295.603
 20
-116.486
 11
-295.825
 21
-116.379
  0
LINE
  8
0
 10
-295.825
 20
-116.379
 11
-296.029
 21
-116.24
  0
LINE
  8
0
 10
-296.029
 20
-116.24
 11
-296.21
 21
-116.072
  0
LINE
  8
0
 10
-296.21
 20
-116.072
 11
-296.363
 21
-115.879
  0
LINE
  8
0
 10
-296.363
 20
-115.879
 11
-296.487
 21
-115.666
  0
LINE
  8
0
 10
-296.487
 20
-115.666
 11
-296.577
 21
-115.436
  0
LINE
  8
0
 10
-296.577
 20
-115.436
 11
-296.632
 21
-115.196
  0
LINE
  8
0
 10
-296.632
 20
-115.196
 11
-296.65
 21
-114.95
  0
LINE
  8
0
 10
-296.65
 20
-114.95
 11
-296.632
 21
-114.704
  0
LINE
  8
0
 10
-296.632
 20
-114.704
 11
-296.577
 21
-114.464
  0
LINE
  8
0
 10
-296.577
 20
-114.464
 11
-296.487
 21
-114.234
  0
LINE
  8
0
 10
-296.487
 20
-114.234
 11
-296.363
 21
-114.021
  0
LINE
  8
0
 10
-296.363
 20
-114.021
 11
-296.21
 21
-113.828
  0
LINE
  8
0
 10
-296.21
 20
-113.828
 11
-296.029
 21
-113.66
  0
LINE
  8
0
 10
-296.029
 20
-113.66
 11
-295.825
 21
-113.521
  0
LINE
  8
0
 10
-295.825
 20
-113.521
 11
-295.603
 21
-113.414
  0
LINE
  8
0
 10
-295.603
 20
-113.414
 11
-295.367
 21
-113.341
  0
LINE
  8
0
 10
-295.367
 20
-113.341
 11
-295.123
 21
-113.305
  0
LINE
  8
0
 10
-295.123
 20
-113.305
 11
-254.877
 21
-113.305
  0
LINE
  8
0
 10
-254.877
 20
-113.305
 11
-254.633
 21
-113.341
  0
LINE
  8
0
 10
-254.633
 20
-113.341
 11
-254.397
 21
-113.414
  0
LINE
  8
0
 10
-254.397
 20
-113.414
 11
-254.175
 21
-113.521
  0
LINE
  8
0
 10
-254.175
 20
-113.521
 11
-253.971
 21
-113.66
  0
LINE
  8
0
 10
-253.971
 20
-113.66
 11
-253.79
 21
-113.828
  0
LINE
  8
0
 10
-253.79
 20
-113.828
 11
-253.637
 21
-114.021
  0
LINE
  8
0
 10
-253.637
 20
-114.021
 11
-253.513
 21
-114.234
  0
LINE
  8
0
 10
-253.513
 20
-114.234
 11
-253.423
 21
-114.464
  0
LINE
  8
0
 10
-253.423
 20
-114.464
 11
-253.368
 21
-114.704
  0
LINE
  8
0
 10
-253.368
 20
-114.704
 11
-253.35
 21
-114.95
  0
LINE
  8
0
 10
-253.35
 20
-114.95
 11
-253.368
 21
-115.196
  0
LINE
  8
0
 10
-253.368
 20
-115.196
 11
-253.423
 21
-115.436
  0
LINE
  8
0
 10
-253.423
 20
-115.436
 11
-253.513
 21
-115.666
  0
LINE
  8
0
 10
-253.513
 20
-115.666
 11
-253.637
 21
-115.879
  0
LINE
  8
0
 10
-253.637
 20
-115.879
 11
-253.79
 21
-116.072
  0
LINE
  8
0
 10
-253.79
 20
-116.072
 11
-253.971
 21
-116.24
  0
LINE
  8
0
 10
-253.971
 20
-116.24
 11
-254.175
 21
-116.379
  0
LINE
  8
0
 10
-254.175
 20
-116.379
 11
-254.397
 21
-116.486
  0
LINE
  8
0
 10
-254.397
 20
-116.486
 11
-254.633
 21
-116.559
  0
LINE
  8
0
 10
-254.633
 20
-116.559
 11
-254.877
 21
-116.595
  0
LINE
  8
0
 10
-254.877
 20
-116.595
 11
-295.123
 21
-116.595
  0
LINE
  8
0
 10
-111.79
 20
-116.595
 11
-112.034
 21
-116.559
  0
LINE
  8
0
 10
-112.034
 20
-116.559
 11
-112.269
 21
-116.486
  0
LINE
  8
0
 10
-112.269
 20
-116.486
 11
-112.492
 21
-116.379
  0
LINE
  8
0
 10
-112.492
 20
-116.379
 11
-112.695
 21
-116.24
  0
LINE
  8
0
 10
-112.695
 20
-116.24
 11
-112.876
 21
-116.072
  0
LINE
  8
0
 10
-112.876
 20
-116.072
 11
-113.03
 21
-115.879
  0
LINE
  8
0
 10
-113.03
 20
-115.879
 11
-113.153
 21
-115.666
  0
LINE
  8
0
 10
-113.153
 20
-115.666
 11
-113.243
 21
-115.436
  0
LINE
  8
0
 10
-113.243
 20
-115.436
 11
-113.298
 21
-115.196
  0
LINE
  8
0
 10
-113.298
 20
-115.196
 11
-113.317
 21
-114.95
  0
LINE
  8
0
 10
-113.317
 20
-114.95
 11
-113.298
 21
-114.704
  0
LINE
  8
0
 10
-113.298
 20
-114.704
 11
-113.243
 21
-114.464
  0
LINE
  8
0
 10
-113.243
 20
-114.464
 11
-113.153
 21
-114.234
  0
LINE
  8
0
 10
-113.153
 20
-114.234
 11
-113.03
 21
-114.021
  0
LINE
  8
0
 10
-113.03
 20
-114.021
 11
-112.876
 21
-113.828
  0
LINE
  8
0
 10
-112.876
 20
-113.828
 11
-112.695
 21
-113.66
  0
LINE
  8
0
 10
-112.695
 20
-113.66
 11
-112.492
 21
-113.521
  0
LINE
  8
0
 10
-112.492
 20
-113.521
 11
-112.269
 21
-113.414
  0
LINE
  8
0
 10
-112.269
 20
-113.414
 11
-112.034
 21
-113.341
  0
LINE
  8
0
 10
-112.034
 20
-113.341
 11
-111.79
 21
-113.305
  0
LINE
  8
0
 10
-111.79
 20
-113.305
 11
-71.5434
 21
-113.305
  0
LINE
  8
0
 10
-71.5434
 20
-113.305
 11
-71.2995
 21
-113.341
  0
LINE
  8
0
 10
-71.2995
 20
-113.341
 11
-71.0638
 21
-113.414
  0
LINE
  8
0
 10
-71.0638
 20
-113.414
 11
-70.8417
 21
-113.521
  0
LINE
  8
0
 10
-70.8417
 20
-113.521
 11
-70.6379
 21
-113.66
  0
LINE
  8
0
 10
-70.6379
 20
-113.66
 11
-70.4571
 21
-113.828
  0
LINE
  8
0
 10
-70.4571
 20
-113.828
 11
-70.3034
 21
-114.021
  0
LINE
  8
0
 10
-70.3034
 20
-114.021
 11
-70.1801
 21
-114.234
  0
LINE
  8
0
 10
-70.1801
 20
-114.234
 11
-70.09
 21
-114.464
  0
LINE
  8
0
 10
-70.09
 20
-114.464
 11
-70.0351
 21
-114.704
  0
LINE
  8
0
 10
-70.0351
 20
-114.704
 11
-70.0167
 21
-114.95
  0
LINE
  8
0
 10
-70.0167
 20
-114.95
 11
-70.0351
 21
-115.196
  0
LINE
  8
0
 10
-70.0351
 20
-115.196
 11
-70.09
 21
-115.436
  0
LINE
  8
0
 10
-70.09
 20
-115.436
 11
-70.1801
 21
-115.666
  0
LINE
  8
0
 10
-70.1801
 20
-115.666
 11
-70.3034
 21
-115.879
  0
LINE
  8
0
 10
-70.3034
 20
-115.879
 11
-70.4571
 21
-116.072
  0
LINE
  8
0
 10
-70.4571
 20
-116.072
 11
-70.6379
 21
-116.24
  0
LINE
  8
0
 10
-70.6379
 20
-116.24
 11
-70.8417
 21
-116.379
  0
LINE
  8
0
 10
-70.8417
 20
-116.379
 11
-71.0638
 21
-116.486
  0
LINE
  8
0
 10
-71.0638
 20
-116.486
 11
-71.2995
 21
-116.559
  0
LINE
  8
0
 10
-71.2995
 20
-116.559
 11
-71.5434
 21
-116.595
  0
LINE
  8
0
 10
-71.5434
 20
-116.595
 11
-111.79
 21
-116.595
  0
LINE
  8
0
 10
163.21
 20
-116.595
 11
162.966
 21
-116.559
  0
LINE
  8
0
 10
162.966
 20
-116.559
 11
162.731
 21
-116.486
  0
LINE
  8
0
 10
162.731
 20
-116.486
 11
162.508
 21
-116.379
  0
LINE
  8
0
 10
162.508
 20
-116.379
 11
162.305
 21
-116.24
  0
LINE
  8
0
 10
162.305
 20
-116.24
 11
162.124
 21
-116.072
  0
LINE
  8
0
 10
162.124
 20
-116.072
 11
161.97
 21
-115.879
  0
LINE
  8
0
 10
161.97
 20
-115.879
 11
161.847
 21
-115.666
  0
LINE
  8
0
 10
161.847
 20
-115.666
 11
161.757
 21
-115.436
  0
LINE
  8
0
 10
161.757
 20
-115.436
 11
161.702
 21
-115.196
  0
LINE
  8
0
 10
161.702
 20
-115.196
 11
161.683
 21
-114.95
  0
LINE
  8
0
 10
161.683
 20
-114.95
 11
161.702
 21
-114.704
  0
LINE
  8
0
 10
161.702
 20
-114.704
 11
161.757
 21
-114.464
  0
LINE
  8
0
 10
161.757
 20
-114.464
 11
161.847
 21
-114.234
  0
LINE
  8
0
 10
161.847
 20
-114.234
 11
161.97
 21
-114.021
  0
LINE
  8
0
 10
161.97
 20
-114.021
 11
162.124
 21
-113.828
  0
LINE
  8
0
 10
162.124
 20
-113.828
 11
162.305
 21
-113.66
  0
LINE
  8
0
 10
162.305
 20
-113.66
 11
162.508
 21
-113.521
  0
LINE
  8
0
 10
162.508
 20
-113.521
 11
162.731
 21
-113.414
  0
LINE
  8
0
 10
162.731
 20
-113.414
 11
162.966
 21
-113.341
  0
LINE
  8
0
 10
162.966
 20
-113.341
 11
163.21
 21
-113.305
  0
LINE
  8
0
 10
163.21
 20
-113.305
 11
203.457
 21
-113.305
  0
LINE
  8
0
 10
203.457
 20
-113.305
 11
203.701
 21
-113.341
  0
LINE
  8
0
 10
203.701
 20
-113.341
 11
203.936
 21
-113.414
  0
LINE
  8
0
 10
203.936
 20
-113.414
 11
204.158
 21
-113.521
  0
LINE
  8
0
 10
204.158
 20
-113.521
 11
204.362
 21
-113.66
  0
LINE
  8
0
 10
204.362
 20
-113.66
 11
204.543
 21
-113.828
  0
LINE
  8
0
 10
204.543
 20
-113.828
 11
204.697
 21
-114.021
  0
LINE
  8
0
 10
204.697
 20
-114.021
 11
204.82
 21
-114.234
  0
LINE
  8
0
 10
204.82
 20
-114.234
 11
204.91
 21
-114.464
  0
LINE
  8
0
 10
204.91
 20
-114.464
 11
204.965
 21
-114.704
  0
LINE
  8
0
 10
204.965
 20
-114.704
 11
204.983
 21
-114.95
  0
LINE
  8
0
 10
204.983
 20
-114.95
 11
204.965
 21
-115.196
  0
LINE
  8
0
 10
204.965
 20
-115.196
 11
204.91
 21
-115.436
  0
LINE
  8
0
 10
204.91
 20
-115.436
 11
204.82
 21
-115.666
  0
LINE
  8
0
 10
204.82
 20
-115.666
 11
204.697
 21
-115.879
  0
LINE
  8
0
 10
204.697
 20
-115.879
 11
204.543
 21
-116.072
  0
LINE
  8
0
 10
204.543
 20
-116.072
 11
204.362
 21
-116.24
  0
LINE
  8
0
 10
204.362
 20
-116.24
 11
204.158
 21
-116.379
  0
LINE
  8
0
 10
204.158
 20
-116.379
 11
203.936
 21
-116.486
  0
LINE
  8
0
 10
203.936
 20
-116.486
 11
203.701
 21
-116.559
  0
LINE
  8
0
 10
203.701
 20
-116.559
 11
203.457
 21
-116.595
  0
LINE
  8
0
 10
203.457
 20
-116.595
 11
163.21
 21
-116.595
  0
LINE
  8
0
 10
113.243
 20
114.464
 11
113.153
 21
114.234
  0
LINE
  8
0
 10
113.153
 20
114.234
 11
113.03
 21
114.021
  0
LINE
  8
0
 10
113.03
 20
114.021
 11
112.876
 21
113.828
  0
LINE
  8
0
 10
112.876
 20
113.828
 11
112.695
 21
113.66
  0
LINE
  8
0
 10
112.695
 20
113.66
 11
112.492
 21
113.521
  0
LINE
  8
0
 10
112.492
 20
113.521
 11
112.269
 21
113.414
  0
LINE
  8
0
 10
112.269
 20
113.414
 11
112.034
 21
113.341
  0
LINE
  8
0
 10
112.034
 20
113.341
 11
111.79
 21
113.305
  0
LINE
  8
0
 10
111.79
 20
113.305
 11
71.5434
 21
113.305
  0
LINE
  8
0
 10
71.5434
 20
113.305
 11
71.2995
 21
113.341
  0
LINE
  8
0
 10
71.2995
 20
113.341
 11
71.0638
 21
113.414
  0
LINE
  8
0
 10
71.0638
 20
113.414
 11
70.8417
 21
113.521
  0
LINE
  8
0
 10
70.8417
 20
113.521
 11
70.6379
 21
113.66
  0
LINE
  8
0
 10
70.6379
 20
113.66
 11
70.4571
 21
113.828
  0
LINE
  8
0
 10
70.4571
 20
113.828
 11
70.3034
 21
114.021
  0
LINE
  8
0
 10
70.3034
 20
114.021
 11
70.1801
 21
114.234
  0
LINE
  8
0
 10
70.1801
 20
114.234
 11
70.09
 21
114.464
  0
LINE
  8
0
 10
70.09
 20
114.464
 11
70.0351
 21
114.704
  0
LINE
  8
0
 10
70.0351
 20
114.704
 11
70.0167
 21
114.95
  0
LINE
  8
0
 10
70.0167
 20
114.95
 11
70.0351
 21
115.196
  0
LINE
  8
0
 10
70.0351
 20
115.196
 11
70.09
 21
115.436
  0
LINE
  8
0
 10
70.09
 20
115.436
 11
70.1801
 21
115.666
  0
LINE
  8
0
 10
70.1801
 20
115.666
 11
70.3034
 21
115.879
  0
LINE
  8
0
 10
70.3034
 20
115.879
 11
70.4571
 21
116.072
  0
LINE
  8
0
 10
70.4571
 20
116.072
 11
70.6379
 21
116.24
  0
LINE
  8
0
 10
70.6379
 20
116.24
 11
70.8417
 21
116.379
  0
LINE
  8
0
 10
70.8417
 20
116.379
 11
71.0638
 21
116.486
  0
LINE
  8
0
 10
71.0638
 20
116.486
 11
71.2995
 21
116.559
  0
LINE
  8
0
 10
71.2995
 20
116.559
 11
71.5434
 21
116.595
  0
LINE
  8
0
 10
71.5434
 20
116.595
 11
111.79
 21
116.595
  0
LINE
  8
0
 10
111.79
 20
116.595
 11
112.034
 21
116.559
  0
LINE
  8
0
 10
112.034
 20
116.559
 11
112.269
 21
116.486
  0
LINE
  8
0
 10
112.269
 20
116.486
 11
112.492
 21
116.379
  0
LINE
  8
0
 10
112.492
 20
116.379
 11
112.695
 21
116.24
  0
LINE
  8
0
 10
112.695
 20
116.24
 11
112.876
 21
116.072
  0
LINE
  8
0
 10
112.876
 20
116.072
 11
113.03
 21
115.879
  0
LINE
  8
0
 10
113.03
 20
115.879
 11
113.153
 21
115.666
  0
LINE
  8
0
 10
113.153
 20
115.666
 11
113.243
 21
115.436
  0
LINE
  8
0
 10
113.243
 20
115.436
 11
113.298
 21
115.196
  0
LINE
  8
0
 10
113.298
 20
115.196
 11
113.317
 21
114.95
  0
LINE
  8
0
 10
113.317
 20
114.95
 11
113.298
 21
114.704
  0
LINE
  8
0
 10
113.298
 20
114.704
 11
113.243
 21
114.464
  0
ENDSEC
  0
SECTION
  2
OBJECTS
  0
DICTIONARY
  0
ENDSEC
  0
EOF
