  0
SECTION
  2
BLOCKS
  0
ENDSEC
  0
SECTION
  2
ENTITIES
  0
LINE
  8
0
 10
320.398
 20
-109.848
 11
320.915
 21
-109.766
  0
LINE
  8
0
 10
320.915
 20
-109.766
 11
321.42
 21
-109.63
  0
LINE
  8
0
 10
321.42
 20
-109.63
 11
321.909
 21
-109.443
  0
LINE
  8
0
 10
321.909
 20
-109.443
 11
322.375
 21
-109.205
  0
LINE
  8
0
 10
322.375
 20
-109.205
 11
322.814
 21
-108.92
  0
LINE
  8
0
 10
322.814
 20
-108.92
 11
323.221
 21
-108.591
  0
LINE
  8
0
 10
323.221
 20
-108.591
 11
323.591
 21
-108.221
  0
LINE
  8
0
 10
323.591
 20
-108.221
 11
323.92
 21
-107.814
  0
LINE
  8
0
 10
323.92
 20
-107.814
 11
324.205
 21
-107.375
  0
LINE
  8
0
 10
324.205
 20
-107.375
 11
324.443
 21
-106.909
  0
LINE
  8
0
 10
324.443
 20
-106.909
 11
324.63
 21
-106.42
  0
LINE
  8
0
 10
324.63
 20
-106.42
 11
324.766
 21
-105.915
  0
LINE
  8
0
 10
324.766
 20
-105.915
 11
324.848
 21
-105.398
  0
LINE
  8
0
 10
324.848
 20
-105.398
 11
324.875
 21
-104.875
  0
LINE
  8
0
 10
324.875
 20
-104.875
 11
324.875
 21
104.875
  0
LINE
  8
0
 10
324.875
 20
104.875
 11
324.848
 21
105.398
  0
LINE
  8
0
 10
324.848
 20
105.398
 11
324.766
 21
105.915
  0
LINE
  8
0
 10
324.766
 20
105.915
 11
324.63
 21
106.42
  0
LINE
  8
0
 10
324.63
 20
106.42
 11
324.443
 21
106.909
  0
LINE
  8
0
 10
324.443
 20
106.909
 11
324.205
 21
107.375
  0
LINE
  8
0
 10
324.205
 20
107.375
 11
323.92
 21
107.814
  0
LINE
  8
0
 10
323.92
 20
107.814
 11
323.591
 21
108.221
  0
LINE
  8
0
 10
323.591
 20
108.221
 11
323.221
 21
108.591
  0
LINE
  8
0
 10
323.221
 20
108.591
 11
322.814
 21
108.92
  0
LINE
  8
0
 10
322.814
 20
108.92
 11
322.375
 21
109.205
  0
LINE
  8
0
 10
322.375
 20
109.205
 11
321.909
 21
109.443
  0
LINE
  8
0
 10
321.909
 20
109.443
 11
321.42
 21
109.63
  0
LINE
  8
0
 10
321.42
 20
109.63
 11
320.915
 21
109.766
  0
LINE
  8
0
 10
320.915
 20
109.766
 11
320.398
 21
109.848
  0
LINE
  8
0
 10
320.398
 20
109.848
 11
319.875
 21
109.875
  0
LINE
  8
0
 10
319.875
 20
109.875
 11
-319.875
 21
109.875
  0
LINE
  8
0
 10
-319.875
 20
109.875
 11
-320.398
 21
109.848
  0
LINE
  8
0
 10
-320.398
 20
109.848
 11
-320.915
 21
109.766
  0
LINE
  8
0
 10
-320.915
 20
109.766
 11
-321.42
 21
109.63
  0
LINE
  8
0
 10
-321.42
 20
109.63
 11
-321.909
 21
109.443
  0
LINE
  8
0
 10
-321.909
 20
109.443
 11
-322.375
 21
109.205
  0
LINE
  8
0
 10
-322.375
 20
109.205
 11
-322.814
 21
108.92
  0
LINE
  8
0
 10
-322.814
 20
108.92
 11
-323.221
 21
108.591
  0
LINE
  8
0
 10
-323.221
 20
108.591
 11
-323.591
 21
108.221
  0
LINE
  8
0
 10
-323.591
 20
108.221
 11
-323.92
 21
107.814
  0
LINE
  8
0
 10
-323.92
 20
107.814
 11
-324.205
 21
107.375
  0
LINE
  8
0
 10
-324.205
 20
107.375
 11
-324.443
 21
106.909
  0
LINE
  8
0
 10
-324.443
 20
106.909
 11
-324.63
 21
106.42
  0
LINE
  8
0
 10
-324.63
 20
106.42
 11
-324.766
 21
105.915
  0
LINE
  8
0
 10
-324.766
 20
105.915
 11
-324.848
 21
105.398
  0
LINE
  8
0
 10
-324.848
 20
105.398
 11
-324.875
 21
104.875
  0
LINE
  8
0
 10
-324.875
 20
104.875
 11
-324.875
 21
-104.875
  0
LINE
  8
0
 10
-324.875
 20
-104.875
 11
-324.848
 21
-105.398
  0
LINE
  8
0
 10
-324.848
 20
-105.398
 11
-324.766
 21
-105.915
  0
LINE
  8
0
 10
-324.766
 20
-105.915
 11
-324.63
 21
-106.42
  0
LINE
  8
0
 10
-324.63
 20
-106.42
 11
-324.443
 21
-106.909
  0
LINE
  8
0
 10
-324.443
 20
-106.909
 11
-324.205
 21
-107.375
  0
LINE
  8
0
 10
-324.205
 20
-107.375
 11
-323.92
 21
-107.814
  0
LINE
  8
0
 10
-323.92
 20
-107.814
 11
-323.591
 21
-108.221
  0
LINE
  8
0
 10
-323.591
 20
-108.221
 11
-323.221
 21
-108.591
  0
LINE
  8
0
 10
-323.221
 20
-108.591
 11
-322.814
 21
-108.92
  0
LINE
  8
0
 10
-322.814
 20
-108.92
 11
-322.375
 21
-109.205
  0
LINE
  8
0
 10
-322.375
 20
-109.205
 11
-321.909
 21
-109.443
  0
LINE
  8
0
 10
-321.909
 20
-109.443
 11
-321.42
 21
-109.63
  0
LINE
  8
0
 10
-321.42
 20
-109.63
 11
-320.915
 21
-109.766
  0
LINE
  8
0
 10
-320.915
 20
-109.766
 11
-320.398
 21
-109.848
  0
LINE
  8
0
 10
-320.398
 20
-109.848
 11
-319.875
 21
-109.875
  0
LINE
  8
0
 10
-319.875
 20
-109.875
 11
319.875
 21
-109.875
  0
LINE
  8
0
 10
319.875
 20
-109.875
 11
320.398
 21
-109.848
  0
LINE
  8
0
 10
294.477
 20
75.0274
 11
293.96
 21
75.1093
  0
LINE
  8
0
 10
293.96
 20
75.1093
 11
293.455
 21
75.2447
  0
LINE
  8
0
 10
293.455
 20
75.2447
 11
292.966
 21
75.4323
  0
LINE
  8
0
 10
292.966
 20
75.4323
 11
292.5
 21
75.6699
  0
LINE
  8
0
 10
292.5
 20
75.6699
 11
292.061
 21
75.9549
  0
LINE
  8
0
 10
292.061
 20
75.9549
 11
291.654
 21
76.2843
  0
LINE
  8
0
 10
291.654
 20
76.2843
 11
291.284
 21
76.6543
  0
LINE
  8
0
 10
291.284
 20
76.6543
 11
290.955
 21
77.0611
  0
LINE
  8
0
 10
290.955
 20
77.0611
 11
290.67
 21
77.5
  0
LINE
  8
0
 10
290.67
 20
77.5
 11
290.432
 21
77.9663
  0
LINE
  8
0
 10
290.432
 20
77.9663
 11
290.245
 21
78.4549
  0
LINE
  8
0
 10
290.245
 20
78.4549
 11
290.109
 21
78.9604
  0
LINE
  8
0
 10
290.109
 20
78.9604
 11
290.027
 21
79.4774
  0
LINE
  8
0
 10
290.027
 20
79.4774
 11
290
 21
80
  0
LINE
  8
0
 10
290
 20
80
 11
290.027
 21
80.5226
  0
LINE
  8
0
 10
290.027
 20
80.5226
 11
290.109
 21
81.0396
  0
LINE
  8
0
 10
290.109
 20
81.0396
 11
290.245
 21
81.5451
  0
LINE
  8
0
 10
290.245
 20
81.5451
 11
290.432
 21
82.0337
  0
LINE
  8
0
 10
290.432
 20
82.0337
 11
290.67
 21
82.5
  0
LINE
  8
0
 10
290.67
 20
82.5
 11
290.955
 21
82.9389
  0
LINE
  8
0
 10
290.955
 20
82.9389
 11
291.284
 21
83.3456
  0
LINE
  8
0
 10
291.284
 20
83.3456
 11
291.654
 21
83.7157
  0
LINE
  8
0
 10
291.654
 20
83.7157
 11
292.061
 21
84.0451
  0
LINE
  8
0
 10
292.061
 20
84.0451
 11
292.5
 21
84.3301
  0
LINE
  8
0
 10
292.5
 20
84.3301
 11
292.966
 21
84.5677
  0
LINE
  8
0
 10
292.966
 20
84.5677
 11
293.455
 21
84.7553
  0
LINE
  8
0
 10
293.455
 20
84.7553
 11
293.96
 21
84.8907
  0
LINE
  8
0
 10
293.96
 20
84.8907
 11
294.477
 21
84.9726
  0
LINE
  8
0
 10
294.477
 20
84.9726
 11
295
 21
85
  0
LINE
  8
0
 10
295
 20
85
 11
295.523
 21
84.9726
  0
LINE
  8
0
 10
295.523
 20
84.9726
 11
296.04
 21
84.8907
  0
LINE
  8
0
 10
296.04
 20
84.8907
 11
296.545
 21
84.7553
  0
LINE
  8
0
 10
296.545
 20
84.7553
 11
297.034
 21
84.5677
  0
LINE
  8
0
 10
297.034
 20
84.5677
 11
297.5
 21
84.3301
  0
LINE
  8
0
 10
297.5
 20
84.3301
 11
297.939
 21
84.0451
  0
LINE
  8
0
 10
297.939
 20
84.0451
 11
298.346
 21
83.7157
  0
LINE
  8
0
 10
298.346
 20
83.7157
 11
298.716
 21
83.3456
  0
LINE
  8
0
 10
298.716
 20
83.3456
 11
299.045
 21
82.9389
  0
LINE
  8
0
 10
299.045
 20
82.9389
 11
299.33
 21
82.5
  0
LINE
  8
0
 10
299.33
 20
82.5
 11
299.568
 21
82.0337
  0
LINE
  8
0
 10
299.568
 20
82.0337
 11
299.755
 21
81.5451
  0
LINE
  8
0
 10
299.755
 20
81.5451
 11
299.891
 21
81.0396
  0
LINE
  8
0
 10
299.891
 20
81.0396
 11
299.973
 21
80.5226
  0
LINE
  8
0
 10
299.973
 20
80.5226
 11
300
 21
80
  0
LINE
  8
0
 10
300
 20
80
 11
299.973
 21
79.4774
  0
LINE
  8
0
 10
299.973
 20
79.4774
 11
299.891
 21
78.9604
  0
LINE
  8
0
 10
299.891
 20
78.9604
 11
299.755
 21
78.4549
  0
LINE
  8
0
 10
299.755
 20
78.4549
 11
299.568
 21
77.9663
  0
LINE
  8
0
 10
299.568
 20
77.9663
 11
299.33
 21
77.5
  0
LINE
  8
0
 10
299.33
 20
77.5
 11
299.045
 21
77.0611
  0
LINE
  8
0
 10
299.045
 20
77.0611
 11
298.716
 21
76.6543
  0
LINE
  8
0
 10
298.716
 20
76.6543
 11
298.346
 21
76.2843
  0
LINE
  8
0
 10
298.346
 20
76.2843
 11
297.939
 21
75.9549
  0
LINE
  8
0
 10
297.939
 20
75.9549
 11
297.5
 21
75.6699
  0
LINE
  8
0
 10
297.5
 20
75.6699
 11
297.034
 21
75.4323
  0
LINE
  8
0
 10
297.034
 20
75.4323
 11
296.545
 21
75.2447
  0
LINE
  8
0
 10
296.545
 20
75.2447
 11
296.04
 21
75.1093
  0
LINE
  8
0
 10
296.04
 20
75.1093
 11
295.523
 21
75.0274
  0
LINE
  8
0
 10
295.523
 20
75.0274
 11
295
 21
75
  0
LINE
  8
0
 10
295
 20
75
 11
294.477
 21
75.0274
  0
LINE
  8
0
 10
-295.523
 20
75.0274
 11
-296.04
 21
75.1093
  0
LINE
  8
0
 10
-296.04
 20
75.1093
 11
-296.545
 21
75.2447
  0
LINE
  8
0
 10
-296.545
 20
75.2447
 11
-297.034
 21
75.4323
  0
LINE
  8
0
 10
-297.034
 20
75.4323
 11
-297.5
 21
75.6699
  0
LINE
  8
0
 10
-297.5
 20
75.6699
 11
-297.939
 21
75.9549
  0
LINE
  8
0
 10
-297.939
 20
75.9549
 11
-298.346
 21
76.2843
  0
LINE
  8
0
 10
-298.346
 20
76.2843
 11
-298.716
 21
76.6543
  0
LINE
  8
0
 10
-298.716
 20
76.6543
 11
-299.045
 21
77.0611
  0
LINE
  8
0
 10
-299.045
 20
77.0611
 11
-299.33
 21
77.5
  0
LINE
  8
0
 10
-299.33
 20
77.5
 11
-299.568
 21
77.9663
  0
LINE
  8
0
 10
-299.568
 20
77.9663
 11
-299.755
 21
78.4549
  0
LINE
  8
0
 10
-299.755
 20
78.4549
 11
-299.891
 21
78.9604
  0
LINE
  8
0
 10
-299.891
 20
78.9604
 11
-299.973
 21
79.4774
  0
LINE
  8
0
 10
-299.973
 20
79.4774
 11
-300
 21
80
  0
LINE
  8
0
 10
-300
 20
80
 11
-299.973
 21
80.5226
  0
LINE
  8
0
 10
-299.973
 20
80.5226
 11
-299.891
 21
81.0396
  0
LINE
  8
0
 10
-299.891
 20
81.0396
 11
-299.755
 21
81.5451
  0
LINE
  8
0
 10
-299.755
 20
81.5451
 11
-299.568
 21
82.0337
  0
LINE
  8
0
 10
-299.568
 20
82.0337
 11
-299.33
 21
82.5
  0
LINE
  8
0
 10
-299.33
 20
82.5
 11
-299.045
 21
82.9389
  0
LINE
  8
0
 10
-299.045
 20
82.9389
 11
-298.716
 21
83.3456
  0
LINE
  8
0
 10
-298.716
 20
83.3456
 11
-298.346
 21
83.7157
  0
LINE
  8
0
 10
-298.346
 20
83.7157
 11
-297.939
 21
84.0451
  0
LINE
  8
0
 10
-297.939
 20
84.0451
 11
-297.5
 21
84.3301
  0
LINE
  8
0
 10
-297.5
 20
84.3301
 11
-297.034
 21
84.5677
  0
LINE
  8
0
 10
-297.034
 20
84.5677
 11
-296.545
 21
84.7553
  0
LINE
  8
0
 10
-296.545
 20
84.7553
 11
-296.04
 21
84.8907
  0
LINE
  8
0
 10
-296.04
 20
84.8907
 11
-295.523
 21
84.9726
  0
LINE
  8
0
 10
-295.523
 20
84.9726
 11
-295
 21
85
  0
LINE
  8
0
 10
-295
 20
85
 11
-294.477
 21
84.9726
  0
LINE
  8
0
 10
-294.477
 20
84.9726
 11
-293.96
 21
84.8907
  0
LINE
  8
0
 10
-293.96
 20
84.8907
 11
-293.455
 21
84.7553
  0
LINE
  8
0
 10
-293.455
 20
84.7553
 11
-292.966
 21
84.5677
  0
LINE
  8
0
 10
-292.966
 20
84.5677
 11
-292.5
 21
84.3301
  0
LINE
  8
0
 10
-292.5
 20
84.3301
 11
-292.061
 21
84.0451
  0
LINE
  8
0
 10
-292.061
 20
84.0451
 11
-291.654
 21
83.7157
  0
LINE
  8
0
 10
-291.654
 20
83.7157
 11
-291.284
 21
83.3456
  0
LINE
  8
0
 10
-291.284
 20
83.3456
 11
-290.955
 21
82.9389
  0
LINE
  8
0
 10
-290.955
 20
82.9389
 11
-290.67
 21
82.5
  0
LINE
  8
0
 10
-290.67
 20
82.5
 11
-290.432
 21
82.0337
  0
LINE
  8
0
 10
-290.432
 20
82.0337
 11
-290.245
 21
81.5451
  0
LINE
  8
0
 10
-290.245
 20
81.5451
 11
-290.109
 21
81.0396
  0
LINE
  8
0
 10
-290.109
 20
81.0396
 11
-290.027
 21
80.5226
  0
LINE
  8
0
 10
-290.027
 20
80.5226
 11
-290
 21
80
  0
LINE
  8
0
 10
-290
 20
80
 11
-290.027
 21
79.4774
  0
LINE
  8
0
 10
-290.027
 20
79.4774
 11
-290.109
 21
78.9604
  0
LINE
  8
0
 10
-290.109
 20
78.9604
 11
-290.245
 21
78.4549
  0
LINE
  8
0
 10
-290.245
 20
78.4549
 11
-290.432
 21
77.9663
  0
LINE
  8
0
 10
-290.432
 20
77.9663
 11
-290.67
 21
77.5
  0
LINE
  8
0
 10
-290.67
 20
77.5
 11
-290.955
 21
77.0611
  0
LINE
  8
0
 10
-290.955
 20
77.0611
 11
-291.284
 21
76.6543
  0
LINE
  8
0
 10
-291.284
 20
76.6543
 11
-291.654
 21
76.2843
  0
LINE
  8
0
 10
-291.654
 20
76.2843
 11
-292.061
 21
75.9549
  0
LINE
  8
0
 10
-292.061
 20
75.9549
 11
-292.5
 21
75.6699
  0
LINE
  8
0
 10
-292.5
 20
75.6699
 11
-292.966
 21
75.4323
  0
LINE
  8
0
 10
-292.966
 20
75.4323
 11
-293.455
 21
75.2447
  0
LINE
  8
0
 10
-293.455
 20
75.2447
 11
-293.96
 21
75.1093
  0
LINE
  8
0
 10
-293.96
 20
75.1093
 11
-294.477
 21
75.0274
  0
LINE
  8
0
 10
-294.477
 20
75.0274
 11
-295
 21
75
  0
LINE
  8
0
 10
-295
 20
75
 11
-295.523
 21
75.0274
  0
LINE
  8
0
 10
149.877
 20
78.3546
 11
149.633
 21
78.3914
  0
LINE
  8
0
 10
149.633
 20
78.3914
 11
149.397
 21
78.4641
  0
LINE
  8
0
 10
149.397
 20
78.4641
 11
149.175
 21
78.5711
  0
LINE
  8
0
 10
149.175
 20
78.5711
 11
148.971
 21
78.71
  0
LINE
  8
0
 10
148.971
 20
78.71
 11
148.79
 21
78.8777
  0
LINE
  8
0
 10
148.79
 20
78.8777
 11
148.637
 21
79.0705
  0
LINE
  8
0
 10
148.637
 20
79.0705
 11
148.513
 21
79.2841
  0
LINE
  8
0
 10
148.513
 20
79.2841
 11
148.423
 21
79.5137
  0
LINE
  8
0
 10
148.423
 20
79.5137
 11
148.368
 21
79.7541
  0
LINE
  8
0
 10
148.368
 20
79.7541
 11
148.35
 21
80
  0
LINE
  8
0
 10
148.35
 20
80
 11
148.368
 21
80.2459
  0
LINE
  8
0
 10
148.368
 20
80.2459
 11
148.423
 21
80.4863
  0
LINE
  8
0
 10
148.423
 20
80.4863
 11
148.513
 21
80.7159
  0
LINE
  8
0
 10
148.513
 20
80.7159
 11
148.637
 21
80.9295
  0
LINE
  8
0
 10
148.637
 20
80.9295
 11
148.79
 21
81.1223
  0
LINE
  8
0
 10
148.79
 20
81.1223
 11
148.971
 21
81.29
  0
LINE
  8
0
 10
148.971
 20
81.29
 11
149.175
 21
81.4289
  0
LINE
  8
0
 10
149.175
 20
81.4289
 11
149.397
 21
81.5359
  0
LINE
  8
0
 10
149.397
 20
81.5359
 11
149.633
 21
81.6086
  0
LINE
  8
0
 10
149.633
 20
81.6086
 11
149.877
 21
81.6454
  0
LINE
  8
0
 10
149.877
 20
81.6454
 11
190.123
 21
81.6454
  0
LINE
  8
0
 10
190.123
 20
81.6454
 11
190.367
 21
81.6086
  0
LINE
  8
0
 10
190.367
 20
81.6086
 11
190.603
 21
81.5359
  0
LINE
  8
0
 10
190.603
 20
81.5359
 11
190.825
 21
81.4289
  0
LINE
  8
0
 10
190.825
 20
81.4289
 11
191.029
 21
81.29
  0
LINE
  8
0
 10
191.029
 20
81.29
 11
191.21
 21
81.1223
  0
LINE
  8
0
 10
191.21
 20
81.1223
 11
191.363
 21
80.9295
  0
LINE
  8
0
 10
191.363
 20
80.9295
 11
191.487
 21
80.7159
  0
LINE
  8
0
 10
191.487
 20
80.7159
 11
191.577
 21
80.4863
  0
LINE
  8
0
 10
191.577
 20
80.4863
 11
191.632
 21
80.2459
  0
LINE
  8
0
 10
191.632
 20
80.2459
 11
191.65
 21
80
  0
LINE
  8
0
 10
191.65
 20
80
 11
191.632
 21
79.7541
  0
LINE
  8
0
 10
191.632
 20
79.7541
 11
191.577
 21
79.5137
  0
LINE
  8
0
 10
191.577
 20
79.5137
 11
191.487
 21
79.2841
  0
LINE
  8
0
 10
191.487
 20
79.2841
 11
191.363
 21
79.0705
  0
LINE
  8
0
 10
191.363
 20
79.0705
 11
191.21
 21
78.8777
  0
LINE
  8
0
 10
191.21
 20
78.8777
 11
191.029
 21
78.71
  0
LINE
  8
0
 10
191.029
 20
78.71
 11
190.825
 21
78.5711
  0
LINE
  8
0
 10
190.825
 20
78.5711
 11
190.603
 21
78.4641
  0
LINE
  8
0
 10
190.603
 20
78.4641
 11
190.367
 21
78.3914
  0
LINE
  8
0
 10
190.367
 20
78.3914
 11
190.123
 21
78.3546
  0
LINE
  8
0
 10
190.123
 20
78.3546
 11
149.877
 21
78.3546
  0
LINE
  8
0
 10
-190.123
 20
78.3546
 11
-190.367
 21
78.3914
  0
LINE
  8
0
 10
-190.367
 20
78.3914
 11
-190.603
 21
78.4641
  0
LINE
  8
0
 10
-190.603
 20
78.4641
 11
-190.825
 21
78.5711
  0
LINE
  8
0
 10
-190.825
 20
78.5711
 11
-191.029
 21
78.71
  0
LINE
  8
0
 10
-191.029
 20
78.71
 11
-191.21
 21
78.8777
  0
LINE
  8
0
 10
-191.21
 20
78.8777
 11
-191.363
 21
79.0705
  0
LINE
  8
0
 10
-191.363
 20
79.0705
 11
-191.487
 21
79.2841
  0
LINE
  8
0
 10
-191.487
 20
79.2841
 11
-191.577
 21
79.5137
  0
LINE
  8
0
 10
-191.577
 20
79.5137
 11
-191.632
 21
79.7541
  0
LINE
  8
0
 10
-191.632
 20
79.7541
 11
-191.65
 21
80
  0
LINE
  8
0
 10
-191.65
 20
80
 11
-191.632
 21
80.2459
  0
LINE
  8
0
 10
-191.632
 20
80.2459
 11
-191.577
 21
80.4863
  0
LINE
  8
0
 10
-191.577
 20
80.4863
 11
-191.487
 21
80.7159
  0
LINE
  8
0
 10
-191.487
 20
80.7159
 11
-191.363
 21
80.9295
  0
LINE
  8
0
 10
-191.363
 20
80.9295
 11
-191.21
 21
81.1223
  0
LINE
  8
0
 10
-191.21
 20
81.1223
 11
-191.029
 21
81.29
  0
LINE
  8
0
 10
-191.029
 20
81.29
 11
-190.825
 21
81.4289
  0
LINE
  8
0
 10
-190.825
 20
81.4289
 11
-190.603
 21
81.5359
  0
LINE
  8
0
 10
-190.603
 20
81.5359
 11
-190.367
 21
81.6086
  0
LINE
  8
0
 10
-190.367
 20
81.6086
 11
-190.123
 21
81.6454
  0
LINE
  8
0
 10
-190.123
 20
81.6454
 11
-149.877
 21
81.6454
  0
LINE
  8
0
 10
-149.877
 20
81.6454
 11
-149.633
 21
81.6086
  0
LINE
  8
0
 10
-149.633
 20
81.6086
 11
-149.397
 21
81.5359
  0
LINE
  8
0
 10
-149.397
 20
81.5359
 11
-149.175
 21
81.4289
  0
LINE
  8
0
 10
-149.175
 20
81.4289
 11
-148.971
 21
81.29
  0
LINE
  8
0
 10
-148.971
 20
81.29
 11
-148.79
 21
81.1223
  0
LINE
  8
0
 10
-148.79
 20
81.1223
 11
-148.637
 21
80.9295
  0
LINE
  8
0
 10
-148.637
 20
80.9295
 11
-148.513
 21
80.7159
  0
LINE
  8
0
 10
-148.513
 20
80.7159
 11
-148.423
 21
80.4863
  0
LINE
  8
0
 10
-148.423
 20
80.4863
 11
-148.368
 21
80.2459
  0
LINE
  8
0
 10
-148.368
 20
80.2459
 11
-148.35
 21
80
  0
LINE
  8
0
 10
-148.35
 20
80
 11
-148.368
 21
79.7541
  0
LINE
  8
0
 10
-148.368
 20
79.7541
 11
-148.423
 21
79.5137
  0
LINE
  8
0
 10
-148.423
 20
79.5137
 11
-148.513
 21
79.2841
  0
LINE
  8
0
 10
-148.513
 20
79.2841
 11
-148.637
 21
79.0705
  0
LINE
  8
0
 10
-148.637
 20
79.0705
 11
-148.79
 21
78.8777
  0
LINE
  8
0
 10
-148.79
 20
78.8777
 11
-148.971
 21
78.71
  0
LINE
  8
0
 10
-148.971
 20
78.71
 11
-149.175
 21
78.5711
  0
LINE
  8
0
 10
-149.175
 20
78.5711
 11
-149.397
 21
78.4641
  0
LINE
  8
0
 10
-149.397
 20
78.4641
 11
-149.633
 21
78.3914
  0
LINE
  8
0
 10
-149.633
 20
78.3914
 11
-149.877
 21
78.3546
  0
LINE
  8
0
 10
-149.877
 20
78.3546
 11
-190.123
 21
78.3546
  0
LINE
  8
0
 10
-105.123
 20
78.3546
 11
-105.367
 21
78.3914
  0
LINE
  8
0
 10
-105.367
 20
78.3914
 11
-105.603
 21
78.4641
  0
LINE
  8
0
 10
-105.603
 20
78.4641
 11
-105.825
 21
78.5711
  0
LINE
  8
0
 10
-105.825
 20
78.5711
 11
-106.029
 21
78.71
  0
LINE
  8
0
 10
-106.029
 20
78.71
 11
-106.21
 21
78.8777
  0
LINE
  8
0
 10
-106.21
 20
78.8777
 11
-106.363
 21
79.0705
  0
LINE
  8
0
 10
-106.363
 20
79.0705
 11
-106.487
 21
79.2841
  0
LINE
  8
0
 10
-106.487
 20
79.2841
 11
-106.577
 21
79.5137
  0
LINE
  8
0
 10
-106.577
 20
79.5137
 11
-106.632
 21
79.7541
  0
LINE
  8
0
 10
-106.632
 20
79.7541
 11
-106.65
 21
80
  0
LINE
  8
0
 10
-106.65
 20
80
 11
-106.632
 21
80.2459
  0
LINE
  8
0
 10
-106.632
 20
80.2459
 11
-106.577
 21
80.4863
  0
LINE
  8
0
 10
-106.577
 20
80.4863
 11
-106.487
 21
80.7159
  0
LINE
  8
0
 10
-106.487
 20
80.7159
 11
-106.363
 21
80.9295
  0
LINE
  8
0
 10
-106.363
 20
80.9295
 11
-106.21
 21
81.1223
  0
LINE
  8
0
 10
-106.21
 20
81.1223
 11
-106.029
 21
81.29
  0
LINE
  8
0
 10
-106.029
 20
81.29
 11
-105.825
 21
81.4289
  0
LINE
  8
0
 10
-105.825
 20
81.4289
 11
-105.603
 21
81.5359
  0
LINE
  8
0
 10
-105.603
 20
81.5359
 11
-105.367
 21
81.6086
  0
LINE
  8
0
 10
-105.367
 20
81.6086
 11
-105.123
 21
81.6454
  0
LINE
  8
0
 10
-105.123
 20
81.6454
 11
-64.8767
 21
81.6454
  0
LINE
  8
0
 10
-64.8767
 20
81.6454
 11
-64.6328
 21
81.6086
  0
LINE
  8
0
 10
-64.6328
 20
81.6086
 11
-64.3972
 21
81.5359
  0
LINE
  8
0
 10
-64.3972
 20
81.5359
 11
-64.175
 21
81.4289
  0
LINE
  8
0
 10
-64.175
 20
81.4289
 11
-63.9712
 21
81.29
  0
LINE
  8
0
 10
-63.9712
 20
81.29
 11
-63.7905
 21
81.1223
  0
LINE
  8
0
 10
-63.7905
 20
81.1223
 11
-63.6367
 21
80.9295
  0
LINE
  8
0
 10
-63.6367
 20
80.9295
 11
-63.5134
 21
80.7159
  0
LINE
  8
0
 10
-63.5134
 20
80.7159
 11
-63.4233
 21
80.4863
  0
LINE
  8
0
 10
-63.4233
 20
80.4863
 11
-63.3684
 21
80.2459
  0
LINE
  8
0
 10
-63.3684
 20
80.2459
 11
-63.35
 21
80
  0
LINE
  8
0
 10
-63.35
 20
80
 11
-63.3684
 21
79.7541
  0
LINE
  8
0
 10
-63.3684
 20
79.7541
 11
-63.4233
 21
79.5137
  0
LINE
  8
0
 10
-63.4233
 20
79.5137
 11
-63.5134
 21
79.2841
  0
LINE
  8
0
 10
-63.5134
 20
79.2841
 11
-63.6367
 21
79.0705
  0
LINE
  8
0
 10
-63.6367
 20
79.0705
 11
-63.7905
 21
78.8777
  0
LINE
  8
0
 10
-63.7905
 20
78.8777
 11
-63.9712
 21
78.71
  0
LINE
  8
0
 10
-63.9712
 20
78.71
 11
-64.175
 21
78.5711
  0
LINE
  8
0
 10
-64.175
 20
78.5711
 11
-64.3972
 21
78.4641
  0
LINE
  8
0
 10
-64.3972
 20
78.4641
 11
-64.6328
 21
78.3914
  0
LINE
  8
0
 10
-64.6328
 20
78.3914
 11
-64.8767
 21
78.3546
  0
LINE
  8
0
 10
-64.8767
 20
78.3546
 11
-105.123
 21
78.3546
  0
LINE
  8
0
 10
-20.1233
 20
78.3546
 11
-20.3672
 21
78.3914
  0
LINE
  8
0
 10
-20.3672
 20
78.3914
 11
-20.6028
 21
78.4641
  0
LINE
  8
0
 10
-20.6028
 20
78.4641
 11
-20.825
 21
78.5711
  0
LINE
  8
0
 10
-20.825
 20
78.5711
 11
-21.0287
 21
78.71
  0
LINE
  8
0
 10
-21.0287
 20
78.71
 11
-21.2095
 21
78.8777
  0
LINE
  8
0
 10
-21.2095
 20
78.8777
 11
-21.3633
 21
79.0705
  0
LINE
  8
0
 10
-21.3633
 20
79.0705
 11
-21.4866
 21
79.2841
  0
LINE
  8
0
 10
-21.4866
 20
79.2841
 11
-21.5767
 21
79.5137
  0
LINE
  8
0
 10
-21.5767
 20
79.5137
 11
-21.6316
 21
79.7541
  0
LINE
  8
0
 10
-21.6316
 20
79.7541
 11
-21.65
 21
80
  0
LINE
  8
0
 10
-21.65
 20
80
 11
-21.6316
 21
80.2459
  0
LINE
  8
0
 10
-21.6316
 20
80.2459
 11
-21.5767
 21
80.4863
  0
LINE
  8
0
 10
-21.5767
 20
80.4863
 11
-21.4866
 21
80.7159
  0
LINE
  8
0
 10
-21.4866
 20
80.7159
 11
-21.3633
 21
80.9295
  0
LINE
  8
0
 10
-21.3633
 20
80.9295
 11
-21.2095
 21
81.1223
  0
LINE
  8
0
 10
-21.2095
 20
81.1223
 11
-21.0287
 21
81.29
  0
LINE
  8
0
 10
-21.0287
 20
81.29
 11
-20.825
 21
81.4289
  0
LINE
  8
0
 10
-20.825
 20
81.4289
 11
-20.6028
 21
81.5359
  0
LINE
  8
0
 10
-20.6028
 20
81.5359
 11
-20.3672
 21
81.6086
  0
LINE
  8
0
 10
-20.3672
 20
81.6086
 11
-20.1233
 21
81.6454
  0
LINE
  8
0
 10
-20.1233
 20
81.6454
 11
20.1233
 21
81.6454
  0
LINE
  8
0
 10
20.1233
 20
81.6454
 11
20.3672
 21
81.6086
  0
LINE
  8
0
 10
20.3672
 20
81.6086
 11
20.6028
 21
81.5359
  0
LINE
  8
0
 10
20.6028
 20
81.5359
 11
20.825
 21
81.4289
  0
LINE
  8
0
 10
20.825
 20
81.4289
 11
21.0287
 21
81.29
  0
LINE
  8
0
 10
21.0287
 20
81.29
 11
21.2095
 21
81.1223
  0
LINE
  8
0
 10
21.2095
 20
81.1223
 11
21.3633
 21
80.9295
  0
LINE
  8
0
 10
21.3633
 20
80.9295
 11
21.4866
 21
80.7159
  0
LINE
  8
0
 10
21.4866
 20
80.7159
 11
21.5767
 21
80.4863
  0
LINE
  8
0
 10
21.5767
 20
80.4863
 11
21.6316
 21
80.2459
  0
LINE
  8
0
 10
21.6316
 20
80.2459
 11
21.65
 21
80
  0
LINE
  8
0
 10
21.65
 20
80
 11
21.6316
 21
79.7541
  0
LINE
  8
0
 10
21.6316
 20
79.7541
 11
21.5767
 21
79.5137
  0
LINE
  8
0
 10
21.5767
 20
79.5137
 11
21.4866
 21
79.2841
  0
LINE
  8
0
 10
21.4866
 20
79.2841
 11
21.3633
 21
79.0705
  0
LINE
  8
0
 10
21.3633
 20
79.0705
 11
21.2095
 21
78.8777
  0
LINE
  8
0
 10
21.2095
 20
78.8777
 11
21.0287
 21
78.71
  0
LINE
  8
0
 10
21.0287
 20
78.71
 11
20.825
 21
78.5711
  0
LINE
  8
0
 10
20.825
 20
78.5711
 11
20.6028
 21
78.4641
  0
LINE
  8
0
 10
20.6028
 20
78.4641
 11
20.3672
 21
78.3914
  0
LINE
  8
0
 10
20.3672
 20
78.3914
 11
20.1233
 21
78.3546
  0
LINE
  8
0
 10
20.1233
 20
78.3546
 11
-20.1233
 21
78.3546
  0
LINE
  8
0
 10
234.877
 20
78.3546
 11
234.633
 21
78.3914
  0
LINE
  8
0
 10
234.633
 20
78.3914
 11
234.397
 21
78.4641
  0
LINE
  8
0
 10
234.397
 20
78.4641
 11
234.175
 21
78.5711
  0
LINE
  8
0
 10
234.175
 20
78.5711
 11
233.971
 21
78.71
  0
LINE
  8
0
 10
233.971
 20
78.71
 11
233.79
 21
78.8777
  0
LINE
  8
0
 10
233.79
 20
78.8777
 11
233.637
 21
79.0705
  0
LINE
  8
0
 10
233.637
 20
79.0705
 11
233.513
 21
79.2841
  0
LINE
  8
0
 10
233.513
 20
79.2841
 11
233.423
 21
79.5137
  0
LINE
  8
0
 10
233.423
 20
79.5137
 11
233.368
 21
79.7541
  0
LINE
  8
0
 10
233.368
 20
79.7541
 11
233.35
 21
80
  0
LINE
  8
0
 10
233.35
 20
80
 11
233.368
 21
80.2459
  0
LINE
  8
0
 10
233.368
 20
80.2459
 11
233.423
 21
80.4863
  0
LINE
  8
0
 10
233.423
 20
80.4863
 11
233.513
 21
80.7159
  0
LINE
  8
0
 10
233.513
 20
80.7159
 11
233.637
 21
80.9295
  0
LINE
  8
0
 10
233.637
 20
80.9295
 11
233.79
 21
81.1223
  0
LINE
  8
0
 10
233.79
 20
81.1223
 11
233.971
 21
81.29
  0
LINE
  8
0
 10
233.971
 20
81.29
 11
234.175
 21
81.4289
  0
LINE
  8
0
 10
234.175
 20
81.4289
 11
234.397
 21
81.5359
  0
LINE
  8
0
 10
234.397
 20
81.5359
 11
234.633
 21
81.6086
  0
LINE
  8
0
 10
234.633
 20
81.6086
 11
234.877
 21
81.6454
  0
LINE
  8
0
 10
234.877
 20
81.6454
 11
275.123
 21
81.6454
  0
LINE
  8
0
 10
275.123
 20
81.6454
 11
275.367
 21
81.6086
  0
LINE
  8
0
 10
275.367
 20
81.6086
 11
275.603
 21
81.5359
  0
LINE
  8
0
 10
275.603
 20
81.5359
 11
275.825
 21
81.4289
  0
LINE
  8
0
 10
275.825
 20
81.4289
 11
276.029
 21
81.29
  0
LINE
  8
0
 10
276.029
 20
81.29
 11
276.21
 21
81.1223
  0
LINE
  8
0
 10
276.21
 20
81.1223
 11
276.363
 21
80.9295
  0
LINE
  8
0
 10
276.363
 20
80.9295
 11
276.487
 21
80.7159
  0
LINE
  8
0
 10
276.487
 20
80.7159
 11
276.577
 21
80.4863
  0
LINE
  8
0
 10
276.577
 20
80.4863
 11
276.632
 21
80.2459
  0
LINE
  8
0
 10
276.632
 20
80.2459
 11
276.65
 21
80
  0
LINE
  8
0
 10
276.65
 20
80
 11
276.632
 21
79.7541
  0
LINE
  8
0
 10
276.632
 20
79.7541
 11
276.577
 21
79.5137
  0
LINE
  8
0
 10
276.577
 20
79.5137
 11
276.487
 21
79.2841
  0
LINE
  8
0
 10
276.487
 20
79.2841
 11
276.363
 21
79.0705
  0
LINE
  8
0
 10
276.363
 20
79.0705
 11
276.21
 21
78.8777
  0
LINE
  8
0
 10
276.21
 20
78.8777
 11
276.029
 21
78.71
  0
LINE
  8
0
 10
276.029
 20
78.71
 11
275.825
 21
78.5711
  0
LINE
  8
0
 10
275.825
 20
78.5711
 11
275.603
 21
78.4641
  0
LINE
  8
0
 10
275.603
 20
78.4641
 11
275.367
 21
78.3914
  0
LINE
  8
0
 10
275.367
 20
78.3914
 11
275.123
 21
78.3546
  0
LINE
  8
0
 10
275.123
 20
78.3546
 11
234.877
 21
78.3546
  0
LINE
  8
0
 10
64.8767
 20
78.3546
 11
64.6328
 21
78.3914
  0
LINE
  8
0
 10
64.6328
 20
78.3914
 11
64.3972
 21
78.4641
  0
LINE
  8
0
 10
64.3972
 20
78.4641
 11
64.175
 21
78.5711
  0
LINE
  8
0
 10
64.175
 20
78.5711
 11
63.9712
 21
78.71
  0
LINE
  8
0
 10
63.9712
 20
78.71
 11
63.7905
 21
78.8777
  0
LINE
  8
0
 10
63.7905
 20
78.8777
 11
63.6367
 21
79.0705
  0
LINE
  8
0
 10
63.6367
 20
79.0705
 11
63.5134
 21
79.2841
  0
LINE
  8
0
 10
63.5134
 20
79.2841
 11
63.4233
 21
79.5137
  0
LINE
  8
0
 10
63.4233
 20
79.5137
 11
63.3684
 21
79.7541
  0
LINE
  8
0
 10
63.3684
 20
79.7541
 11
63.35
 21
80
  0
LINE
  8
0
 10
63.35
 20
80
 11
63.3684
 21
80.2459
  0
LINE
  8
0
 10
63.3684
 20
80.2459
 11
63.4233
 21
80.4863
  0
LINE
  8
0
 10
63.4233
 20
80.4863
 11
63.5134
 21
80.7159
  0
LINE
  8
0
 10
63.5134
 20
80.7159
 11
63.6367
 21
80.9295
  0
LINE
  8
0
 10
63.6367
 20
80.9295
 11
63.7905
 21
81.1223
  0
LINE
  8
0
 10
63.7905
 20
81.1223
 11
63.9712
 21
81.29
  0
LINE
  8
0
 10
63.9712
 20
81.29
 11
64.175
 21
81.4289
  0
LINE
  8
0
 10
64.175
 20
81.4289
 11
64.3972
 21
81.5359
  0
LINE
  8
0
 10
64.3972
 20
81.5359
 11
64.6328
 21
81.6086
  0
LINE
  8
0
 10
64.6328
 20
81.6086
 11
64.8767
 21
81.6454
  0
LINE
  8
0
 10
64.8767
 20
81.6454
 11
105.123
 21
81.6454
  0
LINE
  8
0
 10
105.123
 20
81.6454
 11
105.367
 21
81.6086
  0
LINE
  8
0
 10
105.367
 20
81.6086
 11
105.603
 21
81.5359
  0
LINE
  8
0
 10
105.603
 20
81.5359
 11
105.825
 21
81.4289
  0
LINE
  8
0
 10
105.825
 20
81.4289
 11
106.029
 21
81.29
  0
LINE
  8
0
 10
106.029
 20
81.29
 11
106.21
 21
81.1223
  0
LINE
  8
0
 10
106.21
 20
81.1223
 11
106.363
 21
80.9295
  0
LINE
  8
0
 10
106.363
 20
80.9295
 11
106.487
 21
80.7159
  0
LINE
  8
0
 10
106.487
 20
80.7159
 11
106.577
 21
80.4863
  0
LINE
  8
0
 10
106.577
 20
80.4863
 11
106.632
 21
80.2459
  0
LINE
  8
0
 10
106.632
 20
80.2459
 11
106.65
 21
80
  0
LINE
  8
0
 10
106.65
 20
80
 11
106.632
 21
79.7541
  0
LINE
  8
0
 10
106.632
 20
79.7541
 11
106.577
 21
79.5137
  0
LINE
  8
0
 10
106.577
 20
79.5137
 11
106.487
 21
79.2841
  0
LINE
  8
0
 10
106.487
 20
79.2841
 11
106.363
 21
79.0705
  0
LINE
  8
0
 10
106.363
 20
79.0705
 11
106.21
 21
78.8777
  0
LINE
  8
0
 10
106.21
 20
78.8777
 11
106.029
 21
78.71
  0
LINE
  8
0
 10
106.029
 20
78.71
 11
105.825
 21
78.5711
  0
LINE
  8
0
 10
105.825
 20
78.5711
 11
105.603
 21
78.4641
  0
LINE
  8
0
 10
105.603
 20
78.4641
 11
105.367
 21
78.3914
  0
LINE
  8
0
 10
105.367
 20
78.3914
 11
105.123
 21
78.3546
  0
LINE
  8
0
 10
105.123
 20
78.3546
 11
64.8767
 21
78.3546
  0
LINE
  8
0
 10
-275.123
 20
78.3546
 11
-275.367
 21
78.3914
  0
LINE
  8
0
 10
-275.367
 20
78.3914
 11
-275.603
 21
78.4641
  0
LINE
  8
0
 10
-275.603
 20
78.4641
 11
-275.825
 21
78.5711
  0
LINE
  8
0
 10
-275.825
 20
78.5711
 11
-276.029
 21
78.71
  0
LINE
  8
0
 10
-276.029
 20
78.71
 11
-276.21
 21
78.8777
  0
LINE
  8
0
 10
-276.21
 20
78.8777
 11
-276.363
 21
79.0705
  0
LINE
  8
0
 10
-276.363
 20
79.0705
 11
-276.487
 21
79.2841
  0
LINE
  8
0
 10
-276.487
 20
79.2841
 11
-276.577
 21
79.5137
  0
LINE
  8
0
 10
-276.577
 20
79.5137
 11
-276.632
 21
79.7541
  0
LINE
  8
0
 10
-276.632
 20
79.7541
 11
-276.65
 21
80
  0
LINE
  8
0
 10
-276.65
 20
80
 11
-276.632
 21
80.2459
  0
LINE
  8
0
 10
-276.632
 20
80.2459
 11
-276.577
 21
80.4863
  0
LINE
  8
0
 10
-276.577
 20
80.4863
 11
-276.487
 21
80.7159
  0
LINE
  8
0
 10
-276.487
 20
80.7159
 11
-276.363
 21
80.9295
  0
LINE
  8
0
 10
-276.363
 20
80.9295
 11
-276.21
 21
81.1223
  0
LINE
  8
0
 10
-276.21
 20
81.1223
 11
-276.029
 21
81.29
  0
LINE
  8
0
 10
-276.029
 20
81.29
 11
-275.825
 21
81.4289
  0
LINE
  8
0
 10
-275.825
 20
81.4289
 11
-275.603
 21
81.5359
  0
LINE
  8
0
 10
-275.603
 20
81.5359
 11
-275.367
 21
81.6086
  0
LINE
  8
0
 10
-275.367
 20
81.6086
 11
-275.123
 21
81.6454
  0
LINE
  8
0
 10
-275.123
 20
81.6454
 11
-234.877
 21
81.6454
  0
LINE
  8
0
 10
-234.877
 20
81.6454
 11
-234.633
 21
81.6086
  0
LINE
  8
0
 10
-234.633
 20
81.6086
 11
-234.397
 21
81.5359
  0
LINE
  8
0
 10
-234.397
 20
81.5359
 11
-234.175
 21
81.4289
  0
LINE
  8
0
 10
-234.175
 20
81.4289
 11
-233.971
 21
81.29
  0
LINE
  8
0
 10
-233.971
 20
81.29
 11
-233.79
 21
81.1223
  0
LINE
  8
0
 10
-233.79
 20
81.1223
 11
-233.637
 21
80.9295
  0
LINE
  8
0
 10
-233.637
 20
80.9295
 11
-233.513
 21
80.7159
  0
LINE
  8
0
 10
-233.513
 20
80.7159
 11
-233.423
 21
80.4863
  0
LINE
  8
0
 10
-233.423
 20
80.4863
 11
-233.368
 21
80.2459
  0
LINE
  8
0
 10
-233.368
 20
80.2459
 11
-233.35
 21
80
  0
LINE
  8
0
 10
-233.35
 20
80
 11
-233.368
 21
79.7541
  0
LINE
  8
0
 10
-233.368
 20
79.7541
 11
-233.423
 21
79.5137
  0
LINE
  8
0
 10
-233.423
 20
79.5137
 11
-233.513
 21
79.2841
  0
LINE
  8
0
 10
-233.513
 20
79.2841
 11
-233.637
 21
79.0705
  0
LINE
  8
0
 10
-233.637
 20
79.0705
 11
-233.79
 21
78.8777
  0
LINE
  8
0
 10
-233.79
 20
78.8777
 11
-233.971
 21
78.71
  0
LINE
  8
0
 10
-233.971
 20
78.71
 11
-234.175
 21
78.5711
  0
LINE
  8
0
 10
-234.175
 20
78.5711
 11
-234.397
 21
78.4641
  0
LINE
  8
0
 10
-234.397
 20
78.4641
 11
-234.633
 21
78.3914
  0
LINE
  8
0
 10
-234.633
 20
78.3914
 11
-234.877
 21
78.3546
  0
LINE
  8
0
 10
-234.877
 20
78.3546
 11
-275.123
 21
78.3546
  0
LINE
  8
0
 10
-45.1858
 20
57.7577
 11
-45.4314
 21
57.7917
  0
LINE
  8
0
 10
-45.4314
 20
57.7917
 11
-45.6716
 21
57.8526
  0
LINE
  8
0
 10
-45.6716
 20
57.8526
 11
-45.9038
 21
57.9395
  0
LINE
  8
0
 10
-45.9038
 20
57.9395
 11
-46.125
 21
58.0514
  0
LINE
  8
0
 10
-46.125
 20
58.0514
 11
-46.3325
 21
58.187
  0
LINE
  8
0
 10
-46.3325
 20
58.187
 11
-46.5239
 21
58.3446
  0
LINE
  8
0
 10
-46.5239
 20
58.3446
 11
-46.6967
 21
58.5223
  0
LINE
  8
0
 10
-46.6967
 20
58.5223
 11
-46.849
 21
58.7179
  0
LINE
  8
0
 10
-46.849
 20
58.7179
 11
-46.9788
 21
58.9291
  0
LINE
  8
0
 10
-46.9788
 20
58.9291
 11
-47.0846
 21
59.1533
  0
LINE
  8
0
 10
-47.0846
 20
59.1533
 11
-47.1651
 21
59.3878
  0
LINE
  8
0
 10
-47.1651
 20
59.3878
 11
-47.2193
 21
59.6297
  0
LINE
  8
0
 10
-47.2193
 20
59.6297
 11
-47.2466
 21
59.8761
  0
LINE
  8
0
 10
-47.2466
 20
59.8761
 11
-47.2466
 21
60.1239
  0
LINE
  8
0
 10
-47.2466
 20
60.1239
 11
-47.2193
 21
60.3703
  0
LINE
  8
0
 10
-47.2193
 20
60.3703
 11
-47.1651
 21
60.6122
  0
LINE
  8
0
 10
-47.1651
 20
60.6122
 11
-47.0846
 21
60.8467
  0
LINE
  8
0
 10
-47.0846
 20
60.8467
 11
-46.9788
 21
61.0709
  0
LINE
  8
0
 10
-46.9788
 20
61.0709
 11
-46.849
 21
61.2821
  0
LINE
  8
0
 10
-46.849
 20
61.2821
 11
-46.6967
 21
61.4777
  0
LINE
  8
0
 10
-46.6967
 20
61.4777
 11
-46.5239
 21
61.6554
  0
LINE
  8
0
 10
-46.5239
 20
61.6554
 11
-46.3325
 21
61.813
  0
LINE
  8
0
 10
-46.3325
 20
61.813
 11
-46.125
 21
61.9485
  0
LINE
  8
0
 10
-46.125
 20
61.9485
 11
-45.9038
 21
62.0605
  0
LINE
  8
0
 10
-45.9038
 20
62.0605
 11
-45.6716
 21
62.1474
  0
LINE
  8
0
 10
-45.6716
 20
62.1474
 11
-45.4314
 21
62.2083
  0
LINE
  8
0
 10
-45.4314
 20
62.2083
 11
-45.1858
 21
62.2423
  0
LINE
  8
0
 10
-45.1858
 20
62.2423
 11
-44.938
 21
62.2491
  0
LINE
  8
0
 10
-44.938
 20
62.2491
 11
-44.6909
 21
62.2287
  0
LINE
  8
0
 10
-44.6909
 20
62.2287
 11
-44.4476
 21
62.1812
  0
LINE
  8
0
 10
-44.4476
 20
62.1812
 11
-44.2111
 21
62.1071
  0
LINE
  8
0
 10
-44.2111
 20
62.1071
 11
-43.984
 21
62.0076
  0
LINE
  8
0
 10
-43.984
 20
62.0076
 11
-43.7694
 21
61.8836
  0
LINE
  8
0
 10
-43.7694
 20
61.8836
 11
-43.5696
 21
61.7368
  0
LINE
  8
0
 10
-43.5696
 20
61.7368
 11
-43.3872
 21
61.5689
  0
LINE
  8
0
 10
-43.3872
 20
61.5689
 11
-43.2244
 21
61.382
  0
LINE
  8
0
 10
-43.2244
 20
61.382
 11
-43.0832
 21
61.1783
  0
LINE
  8
0
 10
-43.0832
 20
61.1783
 11
-42.9652
 21
60.9602
  0
LINE
  8
0
 10
-42.9652
 20
60.9602
 11
-42.8719
 21
60.7306
  0
LINE
  8
0
 10
-42.8719
 20
60.7306
 11
-42.8045
 21
60.492
  0
LINE
  8
0
 10
-42.8045
 20
60.492
 11
-42.7637
 21
60.2475
  0
LINE
  8
0
 10
-42.7637
 20
60.2475
 11
-42.75
 21
60
  0
LINE
  8
0
 10
-42.75
 20
60
 11
-42.7637
 21
59.7525
  0
LINE
  8
0
 10
-42.7637
 20
59.7525
 11
-42.8045
 21
59.508
  0
LINE
  8
0
 10
-42.8045
 20
59.508
 11
-42.8719
 21
59.2694
  0
LINE
  8
0
 10
-42.8719
 20
59.2694
 11
-42.9652
 21
59.0397
  0
LINE
  8
0
 10
-42.9652
 20
59.0397
 11
-43.0832
 21
58.8217
  0
LINE
  8
0
 10
-43.0832
 20
58.8217
 11
-43.2244
 21
58.618
  0
LINE
  8
0
 10
-43.2244
 20
58.618
 11
-43.3872
 21
58.4311
  0
LINE
  8
0
 10
-43.3872
 20
58.4311
 11
-43.5696
 21
58.2632
  0
LINE
  8
0
 10
-43.5696
 20
58.2632
 11
-43.7694
 21
58.1164
  0
LINE
  8
0
 10
-43.7694
 20
58.1164
 11
-43.984
 21
57.9924
  0
LINE
  8
0
 10
-43.984
 20
57.9924
 11
-44.2111
 21
57.8928
  0
LINE
  8
0
 10
-44.2111
 20
57.8928
 11
-44.4476
 21
57.8188
  0
LINE
  8
0
 10
-44.4476
 20
57.8188
 11
-44.6909
 21
57.7713
  0
LINE
  8
0
 10
-44.6909
 20
57.7713
 11
-44.938
 21
57.7509
  0
LINE
  8
0
 10
-44.938
 20
57.7509
 11
-45.1858
 21
57.7577
  0
LINE
  8
0
 10
-135.186
 20
57.7577
 11
-135.431
 21
57.7917
  0
LINE
  8
0
 10
-135.431
 20
57.7917
 11
-135.672
 21
57.8526
  0
LINE
  8
0
 10
-135.672
 20
57.8526
 11
-135.904
 21
57.9395
  0
LINE
  8
0
 10
-135.904
 20
57.9395
 11
-136.125
 21
58.0514
  0
LINE
  8
0
 10
-136.125
 20
58.0514
 11
-136.333
 21
58.187
  0
LINE
  8
0
 10
-136.333
 20
58.187
 11
-136.524
 21
58.3446
  0
LINE
  8
0
 10
-136.524
 20
58.3446
 11
-136.697
 21
58.5223
  0
LINE
  8
0
 10
-136.697
 20
58.5223
 11
-136.849
 21
58.7179
  0
LINE
  8
0
 10
-136.849
 20
58.7179
 11
-136.979
 21
58.9291
  0
LINE
  8
0
 10
-136.979
 20
58.9291
 11
-137.085
 21
59.1533
  0
LINE
  8
0
 10
-137.085
 20
59.1533
 11
-137.165
 21
59.3878
  0
LINE
  8
0
 10
-137.165
 20
59.3878
 11
-137.219
 21
59.6297
  0
LINE
  8
0
 10
-137.219
 20
59.6297
 11
-137.247
 21
59.8761
  0
LINE
  8
0
 10
-137.247
 20
59.8761
 11
-137.247
 21
60.1239
  0
LINE
  8
0
 10
-137.247
 20
60.1239
 11
-137.219
 21
60.3703
  0
LINE
  8
0
 10
-137.219
 20
60.3703
 11
-137.165
 21
60.6122
  0
LINE
  8
0
 10
-137.165
 20
60.6122
 11
-137.085
 21
60.8467
  0
LINE
  8
0
 10
-137.085
 20
60.8467
 11
-136.979
 21
61.0709
  0
LINE
  8
0
 10
-136.979
 20
61.0709
 11
-136.849
 21
61.2821
  0
LINE
  8
0
 10
-136.849
 20
61.2821
 11
-136.697
 21
61.4777
  0
LINE
  8
0
 10
-136.697
 20
61.4777
 11
-136.524
 21
61.6554
  0
LINE
  8
0
 10
-136.524
 20
61.6554
 11
-136.333
 21
61.813
  0
LINE
  8
0
 10
-136.333
 20
61.813
 11
-136.125
 21
61.9485
  0
LINE
  8
0
 10
-136.125
 20
61.9485
 11
-135.904
 21
62.0605
  0
LINE
  8
0
 10
-135.904
 20
62.0605
 11
-135.672
 21
62.1474
  0
LINE
  8
0
 10
-135.672
 20
62.1474
 11
-135.431
 21
62.2083
  0
LINE
  8
0
 10
-135.431
 20
62.2083
 11
-135.186
 21
62.2423
  0
LINE
  8
0
 10
-135.186
 20
62.2423
 11
-134.938
 21
62.2491
  0
LINE
  8
0
 10
-134.938
 20
62.2491
 11
-134.691
 21
62.2287
  0
LINE
  8
0
 10
-134.691
 20
62.2287
 11
-134.448
 21
62.1812
  0
LINE
  8
0
 10
-134.448
 20
62.1812
 11
-134.211
 21
62.1071
  0
LINE
  8
0
 10
-134.211
 20
62.1071
 11
-133.984
 21
62.0076
  0
LINE
  8
0
 10
-133.984
 20
62.0076
 11
-133.769
 21
61.8836
  0
LINE
  8
0
 10
-133.769
 20
61.8836
 11
-133.57
 21
61.7368
  0
LINE
  8
0
 10
-133.57
 20
61.7368
 11
-133.387
 21
61.5689
  0
LINE
  8
0
 10
-133.387
 20
61.5689
 11
-133.224
 21
61.382
  0
LINE
  8
0
 10
-133.224
 20
61.382
 11
-133.083
 21
61.1783
  0
LINE
  8
0
 10
-133.083
 20
61.1783
 11
-132.965
 21
60.9602
  0
LINE
  8
0
 10
-132.965
 20
60.9602
 11
-132.872
 21
60.7306
  0
LINE
  8
0
 10
-132.872
 20
60.7306
 11
-132.804
 21
60.492
  0
LINE
  8
0
 10
-132.804
 20
60.492
 11
-132.764
 21
60.2475
  0
LINE
  8
0
 10
-132.764
 20
60.2475
 11
-132.75
 21
60
  0
LINE
  8
0
 10
-132.75
 20
60
 11
-132.764
 21
59.7525
  0
LINE
  8
0
 10
-132.764
 20
59.7525
 11
-132.804
 21
59.508
  0
LINE
  8
0
 10
-132.804
 20
59.508
 11
-132.872
 21
59.2694
  0
LINE
  8
0
 10
-132.872
 20
59.2694
 11
-132.965
 21
59.0397
  0
LINE
  8
0
 10
-132.965
 20
59.0397
 11
-133.083
 21
58.8217
  0
LINE
  8
0
 10
-133.083
 20
58.8217
 11
-133.224
 21
58.618
  0
LINE
  8
0
 10
-133.224
 20
58.618
 11
-133.387
 21
58.4311
  0
LINE
  8
0
 10
-133.387
 20
58.4311
 11
-133.57
 21
58.2632
  0
LINE
  8
0
 10
-133.57
 20
58.2632
 11
-133.769
 21
58.1164
  0
LINE
  8
0
 10
-133.769
 20
58.1164
 11
-133.984
 21
57.9924
  0
LINE
  8
0
 10
-133.984
 20
57.9924
 11
-134.211
 21
57.8928
  0
LINE
  8
0
 10
-134.211
 20
57.8928
 11
-134.448
 21
57.8188
  0
LINE
  8
0
 10
-134.448
 20
57.8188
 11
-134.691
 21
57.7713
  0
LINE
  8
0
 10
-134.691
 20
57.7713
 11
-134.938
 21
57.7509
  0
LINE
  8
0
 10
-134.938
 20
57.7509
 11
-135.186
 21
57.7577
  0
LINE
  8
0
 10
224.814
 20
57.7577
 11
224.569
 21
57.7917
  0
LINE
  8
0
 10
224.569
 20
57.7917
 11
224.328
 21
57.8526
  0
LINE
  8
0
 10
224.328
 20
57.8526
 11
224.096
 21
57.9395
  0
LINE
  8
0
 10
224.096
 20
57.9395
 11
223.875
 21
58.0514
  0
LINE
  8
0
 10
223.875
 20
58.0514
 11
223.667
 21
58.187
  0
LINE
  8
0
 10
223.667
 20
58.187
 11
223.476
 21
58.3446
  0
LINE
  8
0
 10
223.476
 20
58.3446
 11
223.303
 21
58.5223
  0
LINE
  8
0
 10
223.303
 20
58.5223
 11
223.151
 21
58.7179
  0
LINE
  8
0
 10
223.151
 20
58.7179
 11
223.021
 21
58.9291
  0
LINE
  8
0
 10
223.021
 20
58.9291
 11
222.915
 21
59.1533
  0
LINE
  8
0
 10
222.915
 20
59.1533
 11
222.835
 21
59.3878
  0
LINE
  8
0
 10
222.835
 20
59.3878
 11
222.781
 21
59.6297
  0
LINE
  8
0
 10
222.781
 20
59.6297
 11
222.753
 21
59.8761
  0
LINE
  8
0
 10
222.753
 20
59.8761
 11
222.753
 21
60.1239
  0
LINE
  8
0
 10
222.753
 20
60.1239
 11
222.781
 21
60.3703
  0
LINE
  8
0
 10
222.781
 20
60.3703
 11
222.835
 21
60.6122
  0
LINE
  8
0
 10
222.835
 20
60.6122
 11
222.915
 21
60.8467
  0
LINE
  8
0
 10
222.915
 20
60.8467
 11
223.021
 21
61.0709
  0
LINE
  8
0
 10
223.021
 20
61.0709
 11
223.151
 21
61.2821
  0
LINE
  8
0
 10
223.151
 20
61.2821
 11
223.303
 21
61.4777
  0
LINE
  8
0
 10
223.303
 20
61.4777
 11
223.476
 21
61.6554
  0
LINE
  8
0
 10
223.476
 20
61.6554
 11
223.667
 21
61.813
  0
LINE
  8
0
 10
223.667
 20
61.813
 11
223.875
 21
61.9485
  0
LINE
  8
0
 10
223.875
 20
61.9485
 11
224.096
 21
62.0605
  0
LINE
  8
0
 10
224.096
 20
62.0605
 11
224.328
 21
62.1474
  0
LINE
  8
0
 10
224.328
 20
62.1474
 11
224.569
 21
62.2083
  0
LINE
  8
0
 10
224.569
 20
62.2083
 11
224.814
 21
62.2423
  0
LINE
  8
0
 10
224.814
 20
62.2423
 11
225.062
 21
62.2491
  0
LINE
  8
0
 10
225.062
 20
62.2491
 11
225.309
 21
62.2287
  0
LINE
  8
0
 10
225.309
 20
62.2287
 11
225.552
 21
62.1812
  0
LINE
  8
0
 10
225.552
 20
62.1812
 11
225.789
 21
62.1071
  0
LINE
  8
0
 10
225.789
 20
62.1071
 11
226.016
 21
62.0076
  0
LINE
  8
0
 10
226.016
 20
62.0076
 11
226.231
 21
61.8836
  0
LINE
  8
0
 10
226.231
 20
61.8836
 11
226.43
 21
61.7368
  0
LINE
  8
0
 10
226.43
 20
61.7368
 11
226.613
 21
61.5689
  0
LINE
  8
0
 10
226.613
 20
61.5689
 11
226.776
 21
61.382
  0
LINE
  8
0
 10
226.776
 20
61.382
 11
226.917
 21
61.1783
  0
LINE
  8
0
 10
226.917
 20
61.1783
 11
227.035
 21
60.9602
  0
LINE
  8
0
 10
227.035
 20
60.9602
 11
227.128
 21
60.7306
  0
LINE
  8
0
 10
227.128
 20
60.7306
 11
227.196
 21
60.492
  0
LINE
  8
0
 10
227.196
 20
60.492
 11
227.236
 21
60.2475
  0
LINE
  8
0
 10
227.236
 20
60.2475
 11
227.25
 21
60
  0
LINE
  8
0
 10
227.25
 20
60
 11
227.236
 21
59.7525
  0
LINE
  8
0
 10
227.236
 20
59.7525
 11
227.196
 21
59.508
  0
LINE
  8
0
 10
227.196
 20
59.508
 11
227.128
 21
59.2694
  0
LINE
  8
0
 10
227.128
 20
59.2694
 11
227.035
 21
59.0397
  0
LINE
  8
0
 10
227.035
 20
59.0397
 11
226.917
 21
58.8217
  0
LINE
  8
0
 10
226.917
 20
58.8217
 11
226.776
 21
58.618
  0
LINE
  8
0
 10
226.776
 20
58.618
 11
226.613
 21
58.4311
  0
LINE
  8
0
 10
226.613
 20
58.4311
 11
226.43
 21
58.2632
  0
LINE
  8
0
 10
226.43
 20
58.2632
 11
226.231
 21
58.1164
  0
LINE
  8
0
 10
226.231
 20
58.1164
 11
226.016
 21
57.9924
  0
LINE
  8
0
 10
226.016
 20
57.9924
 11
225.789
 21
57.8928
  0
LINE
  8
0
 10
225.789
 20
57.8928
 11
225.552
 21
57.8188
  0
LINE
  8
0
 10
225.552
 20
57.8188
 11
225.309
 21
57.7713
  0
LINE
  8
0
 10
225.309
 20
57.7713
 11
225.062
 21
57.7509
  0
LINE
  8
0
 10
225.062
 20
57.7509
 11
224.814
 21
57.7577
  0
LINE
  8
0
 10
134.814
 20
57.7577
 11
134.569
 21
57.7917
  0
LINE
  8
0
 10
134.569
 20
57.7917
 11
134.328
 21
57.8526
  0
LINE
  8
0
 10
134.328
 20
57.8526
 11
134.096
 21
57.9395
  0
LINE
  8
0
 10
134.096
 20
57.9395
 11
133.875
 21
58.0514
  0
LINE
  8
0
 10
133.875
 20
58.0514
 11
133.667
 21
58.187
  0
LINE
  8
0
 10
133.667
 20
58.187
 11
133.476
 21
58.3446
  0
LINE
  8
0
 10
133.476
 20
58.3446
 11
133.303
 21
58.5223
  0
LINE
  8
0
 10
133.303
 20
58.5223
 11
133.151
 21
58.7179
  0
LINE
  8
0
 10
133.151
 20
58.7179
 11
133.021
 21
58.9291
  0
LINE
  8
0
 10
133.021
 20
58.9291
 11
132.915
 21
59.1533
  0
LINE
  8
0
 10
132.915
 20
59.1533
 11
132.835
 21
59.3878
  0
LINE
  8
0
 10
132.835
 20
59.3878
 11
132.781
 21
59.6297
  0
LINE
  8
0
 10
132.781
 20
59.6297
 11
132.753
 21
59.8761
  0
LINE
  8
0
 10
132.753
 20
59.8761
 11
132.753
 21
60.1239
  0
LINE
  8
0
 10
132.753
 20
60.1239
 11
132.781
 21
60.3703
  0
LINE
  8
0
 10
132.781
 20
60.3703
 11
132.835
 21
60.6122
  0
LINE
  8
0
 10
132.835
 20
60.6122
 11
132.915
 21
60.8467
  0
LINE
  8
0
 10
132.915
 20
60.8467
 11
133.021
 21
61.0709
  0
LINE
  8
0
 10
133.021
 20
61.0709
 11
133.151
 21
61.2821
  0
LINE
  8
0
 10
133.151
 20
61.2821
 11
133.303
 21
61.4777
  0
LINE
  8
0
 10
133.303
 20
61.4777
 11
133.476
 21
61.6554
  0
LINE
  8
0
 10
133.476
 20
61.6554
 11
133.667
 21
61.813
  0
LINE
  8
0
 10
133.667
 20
61.813
 11
133.875
 21
61.9485
  0
LINE
  8
0
 10
133.875
 20
61.9485
 11
134.096
 21
62.0605
  0
LINE
  8
0
 10
134.096
 20
62.0605
 11
134.328
 21
62.1474
  0
LINE
  8
0
 10
134.328
 20
62.1474
 11
134.569
 21
62.2083
  0
LINE
  8
0
 10
134.569
 20
62.2083
 11
134.814
 21
62.2423
  0
LINE
  8
0
 10
134.814
 20
62.2423
 11
135.062
 21
62.2491
  0
LINE
  8
0
 10
135.062
 20
62.2491
 11
135.309
 21
62.2287
  0
LINE
  8
0
 10
135.309
 20
62.2287
 11
135.552
 21
62.1812
  0
LINE
  8
0
 10
135.552
 20
62.1812
 11
135.789
 21
62.1071
  0
LINE
  8
0
 10
135.789
 20
62.1071
 11
136.016
 21
62.0076
  0
LINE
  8
0
 10
136.016
 20
62.0076
 11
136.231
 21
61.8836
  0
LINE
  8
0
 10
136.231
 20
61.8836
 11
136.43
 21
61.7368
  0
LINE
  8
0
 10
136.43
 20
61.7368
 11
136.613
 21
61.5689
  0
LINE
  8
0
 10
136.613
 20
61.5689
 11
136.776
 21
61.382
  0
LINE
  8
0
 10
136.776
 20
61.382
 11
136.917
 21
61.1783
  0
LINE
  8
0
 10
136.917
 20
61.1783
 11
137.035
 21
60.9602
  0
LINE
  8
0
 10
137.035
 20
60.9602
 11
137.128
 21
60.7306
  0
LINE
  8
0
 10
137.128
 20
60.7306
 11
137.196
 21
60.492
  0
LINE
  8
0
 10
137.196
 20
60.492
 11
137.236
 21
60.2475
  0
LINE
  8
0
 10
137.236
 20
60.2475
 11
137.25
 21
60
  0
LINE
  8
0
 10
137.25
 20
60
 11
137.236
 21
59.7525
  0
LINE
  8
0
 10
137.236
 20
59.7525
 11
137.196
 21
59.508
  0
LINE
  8
0
 10
137.196
 20
59.508
 11
137.128
 21
59.2694
  0
LINE
  8
0
 10
137.128
 20
59.2694
 11
137.035
 21
59.0397
  0
LINE
  8
0
 10
137.035
 20
59.0397
 11
136.917
 21
58.8217
  0
LINE
  8
0
 10
136.917
 20
58.8217
 11
136.776
 21
58.618
  0
LINE
  8
0
 10
136.776
 20
58.618
 11
136.613
 21
58.4311
  0
LINE
  8
0
 10
136.613
 20
58.4311
 11
136.43
 21
58.2632
  0
LINE
  8
0
 10
136.43
 20
58.2632
 11
136.231
 21
58.1164
  0
LINE
  8
0
 10
136.231
 20
58.1164
 11
136.016
 21
57.9924
  0
LINE
  8
0
 10
136.016
 20
57.9924
 11
135.789
 21
57.8928
  0
LINE
  8
0
 10
135.789
 20
57.8928
 11
135.552
 21
57.8188
  0
LINE
  8
0
 10
135.552
 20
57.8188
 11
135.309
 21
57.7713
  0
LINE
  8
0
 10
135.309
 20
57.7713
 11
135.062
 21
57.7509
  0
LINE
  8
0
 10
135.062
 20
57.7509
 11
134.814
 21
57.7577
  0
LINE
  8
0
 10
44.8142
 20
57.7577
 11
44.5686
 21
57.7917
  0
LINE
  8
0
 10
44.5686
 20
57.7917
 11
44.3283
 21
57.8526
  0
LINE
  8
0
 10
44.3283
 20
57.8526
 11
44.0962
 21
57.9395
  0
LINE
  8
0
 10
44.0962
 20
57.9395
 11
43.875
 21
58.0514
  0
LINE
  8
0
 10
43.875
 20
58.0514
 11
43.6675
 21
58.187
  0
LINE
  8
0
 10
43.6675
 20
58.187
 11
43.4761
 21
58.3446
  0
LINE
  8
0
 10
43.4761
 20
58.3446
 11
43.3033
 21
58.5223
  0
LINE
  8
0
 10
43.3033
 20
58.5223
 11
43.151
 21
58.7179
  0
LINE
  8
0
 10
43.151
 20
58.7179
 11
43.0212
 21
58.9291
  0
LINE
  8
0
 10
43.0212
 20
58.9291
 11
42.9154
 21
59.1533
  0
LINE
  8
0
 10
42.9154
 20
59.1533
 11
42.8349
 21
59.3878
  0
LINE
  8
0
 10
42.8349
 20
59.3878
 11
42.7807
 21
59.6297
  0
LINE
  8
0
 10
42.7807
 20
59.6297
 11
42.7534
 21
59.8761
  0
LINE
  8
0
 10
42.7534
 20
59.8761
 11
42.7534
 21
60.1239
  0
LINE
  8
0
 10
42.7534
 20
60.1239
 11
42.7807
 21
60.3703
  0
LINE
  8
0
 10
42.7807
 20
60.3703
 11
42.8349
 21
60.6122
  0
LINE
  8
0
 10
42.8349
 20
60.6122
 11
42.9154
 21
60.8467
  0
LINE
  8
0
 10
42.9154
 20
60.8467
 11
43.0212
 21
61.0709
  0
LINE
  8
0
 10
43.0212
 20
61.0709
 11
43.151
 21
61.2821
  0
LINE
  8
0
 10
43.151
 20
61.2821
 11
43.3033
 21
61.4777
  0
LINE
  8
0
 10
43.3033
 20
61.4777
 11
43.4761
 21
61.6554
  0
LINE
  8
0
 10
43.4761
 20
61.6554
 11
43.6675
 21
61.813
  0
LINE
  8
0
 10
43.6675
 20
61.813
 11
43.875
 21
61.9485
  0
LINE
  8
0
 10
43.875
 20
61.9485
 11
44.0962
 21
62.0605
  0
LINE
  8
0
 10
44.0962
 20
62.0605
 11
44.3283
 21
62.1474
  0
LINE
  8
0
 10
44.3283
 20
62.1474
 11
44.5686
 21
62.2083
  0
LINE
  8
0
 10
44.5686
 20
62.2083
 11
44.8142
 21
62.2423
  0
LINE
  8
0
 10
44.8142
 20
62.2423
 11
45.062
 21
62.2491
  0
LINE
  8
0
 10
45.062
 20
62.2491
 11
45.309
 21
62.2287
  0
LINE
  8
0
 10
45.309
 20
62.2287
 11
45.5523
 21
62.1812
  0
LINE
  8
0
 10
45.5523
 20
62.1812
 11
45.7889
 21
62.1071
  0
LINE
  8
0
 10
45.7889
 20
62.1071
 11
46.0159
 21
62.0076
  0
LINE
  8
0
 10
46.0159
 20
62.0076
 11
46.2306
 21
61.8836
  0
LINE
  8
0
 10
46.2306
 20
61.8836
 11
46.4304
 21
61.7368
  0
LINE
  8
0
 10
46.4304
 20
61.7368
 11
46.6128
 21
61.5689
  0
LINE
  8
0
 10
46.6128
 20
61.5689
 11
46.7756
 21
61.382
  0
LINE
  8
0
 10
46.7756
 20
61.382
 11
46.9168
 21
61.1783
  0
LINE
  8
0
 10
46.9168
 20
61.1783
 11
47.0348
 21
60.9602
  0
LINE
  8
0
 10
47.0348
 20
60.9602
 11
47.1281
 21
60.7306
  0
LINE
  8
0
 10
47.1281
 20
60.7306
 11
47.1955
 21
60.492
  0
LINE
  8
0
 10
47.1955
 20
60.492
 11
47.2363
 21
60.2475
  0
LINE
  8
0
 10
47.2363
 20
60.2475
 11
47.25
 21
60
  0
LINE
  8
0
 10
47.25
 20
60
 11
47.2363
 21
59.7525
  0
LINE
  8
0
 10
47.2363
 20
59.7525
 11
47.1955
 21
59.508
  0
LINE
  8
0
 10
47.1955
 20
59.508
 11
47.1281
 21
59.2694
  0
LINE
  8
0
 10
47.1281
 20
59.2694
 11
47.0348
 21
59.0397
  0
LINE
  8
0
 10
47.0348
 20
59.0397
 11
46.9168
 21
58.8217
  0
LINE
  8
0
 10
46.9168
 20
58.8217
 11
46.7756
 21
58.618
  0
LINE
  8
0
 10
46.7756
 20
58.618
 11
46.6128
 21
58.4311
  0
LINE
  8
0
 10
46.6128
 20
58.4311
 11
46.4304
 21
58.2632
  0
LINE
  8
0
 10
46.4304
 20
58.2632
 11
46.2306
 21
58.1164
  0
LINE
  8
0
 10
46.2306
 20
58.1164
 11
46.0159
 21
57.9924
  0
LINE
  8
0
 10
46.0159
 20
57.9924
 11
45.7889
 21
57.8928
  0
LINE
  8
0
 10
45.7889
 20
57.8928
 11
45.5523
 21
57.8188
  0
LINE
  8
0
 10
45.5523
 20
57.8188
 11
45.309
 21
57.7713
  0
LINE
  8
0
 10
45.309
 20
57.7713
 11
45.062
 21
57.7509
  0
LINE
  8
0
 10
45.062
 20
57.7509
 11
44.8142
 21
57.7577
  0
LINE
  8
0
 10
-225.186
 20
57.7577
 11
-225.431
 21
57.7917
  0
LINE
  8
0
 10
-225.431
 20
57.7917
 11
-225.672
 21
57.8526
  0
LINE
  8
0
 10
-225.672
 20
57.8526
 11
-225.904
 21
57.9395
  0
LINE
  8
0
 10
-225.904
 20
57.9395
 11
-226.125
 21
58.0514
  0
LINE
  8
0
 10
-226.125
 20
58.0514
 11
-226.333
 21
58.187
  0
LINE
  8
0
 10
-226.333
 20
58.187
 11
-226.524
 21
58.3446
  0
LINE
  8
0
 10
-226.524
 20
58.3446
 11
-226.697
 21
58.5223
  0
LINE
  8
0
 10
-226.697
 20
58.5223
 11
-226.849
 21
58.7179
  0
LINE
  8
0
 10
-226.849
 20
58.7179
 11
-226.979
 21
58.9291
  0
LINE
  8
0
 10
-226.979
 20
58.9291
 11
-227.085
 21
59.1533
  0
LINE
  8
0
 10
-227.085
 20
59.1533
 11
-227.165
 21
59.3878
  0
LINE
  8
0
 10
-227.165
 20
59.3878
 11
-227.219
 21
59.6297
  0
LINE
  8
0
 10
-227.219
 20
59.6297
 11
-227.247
 21
59.8761
  0
LINE
  8
0
 10
-227.247
 20
59.8761
 11
-227.247
 21
60.1239
  0
LINE
  8
0
 10
-227.247
 20
60.1239
 11
-227.219
 21
60.3703
  0
LINE
  8
0
 10
-227.219
 20
60.3703
 11
-227.165
 21
60.6122
  0
LINE
  8
0
 10
-227.165
 20
60.6122
 11
-227.085
 21
60.8467
  0
LINE
  8
0
 10
-227.085
 20
60.8467
 11
-226.979
 21
61.0709
  0
LINE
  8
0
 10
-226.979
 20
61.0709
 11
-226.849
 21
61.2821
  0
LINE
  8
0
 10
-226.849
 20
61.2821
 11
-226.697
 21
61.4777
  0
LINE
  8
0
 10
-226.697
 20
61.4777
 11
-226.524
 21
61.6554
  0
LINE
  8
0
 10
-226.524
 20
61.6554
 11
-226.333
 21
61.813
  0
LINE
  8
0
 10
-226.333
 20
61.813
 11
-226.125
 21
61.9485
  0
LINE
  8
0
 10
-226.125
 20
61.9485
 11
-225.904
 21
62.0605
  0
LINE
  8
0
 10
-225.904
 20
62.0605
 11
-225.672
 21
62.1474
  0
LINE
  8
0
 10
-225.672
 20
62.1474
 11
-225.431
 21
62.2083
  0
LINE
  8
0
 10
-225.431
 20
62.2083
 11
-225.186
 21
62.2423
  0
LINE
  8
0
 10
-225.186
 20
62.2423
 11
-224.938
 21
62.2491
  0
LINE
  8
0
 10
-224.938
 20
62.2491
 11
-224.691
 21
62.2287
  0
LINE
  8
0
 10
-224.691
 20
62.2287
 11
-224.448
 21
62.1812
  0
LINE
  8
0
 10
-224.448
 20
62.1812
 11
-224.211
 21
62.1071
  0
LINE
  8
0
 10
-224.211
 20
62.1071
 11
-223.984
 21
62.0076
  0
LINE
  8
0
 10
-223.984
 20
62.0076
 11
-223.769
 21
61.8836
  0
LINE
  8
0
 10
-223.769
 20
61.8836
 11
-223.57
 21
61.7368
  0
LINE
  8
0
 10
-223.57
 20
61.7368
 11
-223.387
 21
61.5689
  0
LINE
  8
0
 10
-223.387
 20
61.5689
 11
-223.224
 21
61.382
  0
LINE
  8
0
 10
-223.224
 20
61.382
 11
-223.083
 21
61.1783
  0
LINE
  8
0
 10
-223.083
 20
61.1783
 11
-222.965
 21
60.9602
  0
LINE
  8
0
 10
-222.965
 20
60.9602
 11
-222.872
 21
60.7306
  0
LINE
  8
0
 10
-222.872
 20
60.7306
 11
-222.804
 21
60.492
  0
LINE
  8
0
 10
-222.804
 20
60.492
 11
-222.764
 21
60.2475
  0
LINE
  8
0
 10
-222.764
 20
60.2475
 11
-222.75
 21
60
  0
LINE
  8
0
 10
-222.75
 20
60
 11
-222.764
 21
59.7525
  0
LINE
  8
0
 10
-222.764
 20
59.7525
 11
-222.804
 21
59.508
  0
LINE
  8
0
 10
-222.804
 20
59.508
 11
-222.872
 21
59.2694
  0
LINE
  8
0
 10
-222.872
 20
59.2694
 11
-222.965
 21
59.0397
  0
LINE
  8
0
 10
-222.965
 20
59.0397
 11
-223.083
 21
58.8217
  0
LINE
  8
0
 10
-223.083
 20
58.8217
 11
-223.224
 21
58.618
  0
LINE
  8
0
 10
-223.224
 20
58.618
 11
-223.387
 21
58.4311
  0
LINE
  8
0
 10
-223.387
 20
58.4311
 11
-223.57
 21
58.2632
  0
LINE
  8
0
 10
-223.57
 20
58.2632
 11
-223.769
 21
58.1164
  0
LINE
  8
0
 10
-223.769
 20
58.1164
 11
-223.984
 21
57.9924
  0
LINE
  8
0
 10
-223.984
 20
57.9924
 11
-224.211
 21
57.8928
  0
LINE
  8
0
 10
-224.211
 20
57.8928
 11
-224.448
 21
57.8188
  0
LINE
  8
0
 10
-224.448
 20
57.8188
 11
-224.691
 21
57.7713
  0
LINE
  8
0
 10
-224.691
 20
57.7713
 11
-224.938
 21
57.7509
  0
LINE
  8
0
 10
-224.938
 20
57.7509
 11
-225.186
 21
57.7577
  0
LINE
  8
0
 10
294.754
 20
18.3684
 11
294.514
 21
18.4233
  0
LINE
  8
0
 10
294.514
 20
18.4233
 11
294.284
 21
18.5134
  0
LINE
  8
0
 10
294.284
 20
18.5134
 11
294.071
 21
18.6367
  0
LINE
  8
0
 10
294.071
 20
18.6367
 11
293.878
 21
18.7905
  0
LINE
  8
0
 10
293.878
 20
18.7905
 11
293.71
 21
18.9712
  0
LINE
  8
0
 10
293.71
 20
18.9712
 11
293.571
 21
19.175
  0
LINE
  8
0
 10
293.571
 20
19.175
 11
293.464
 21
19.3972
  0
LINE
  8
0
 10
293.464
 20
19.3972
 11
293.391
 21
19.6328
  0
LINE
  8
0
 10
293.391
 20
19.6328
 11
293.355
 21
19.8767
  0
LINE
  8
0
 10
293.355
 20
19.8767
 11
293.355
 21
60.1233
  0
LINE
  8
0
 10
293.355
 20
60.1233
 11
293.391
 21
60.3672
  0
LINE
  8
0
 10
293.391
 20
60.3672
 11
293.464
 21
60.6028
  0
LINE
  8
0
 10
293.464
 20
60.6028
 11
293.571
 21
60.825
  0
LINE
  8
0
 10
293.571
 20
60.825
 11
293.71
 21
61.0287
  0
LINE
  8
0
 10
293.71
 20
61.0287
 11
293.878
 21
61.2095
  0
LINE
  8
0
 10
293.878
 20
61.2095
 11
294.071
 21
61.3633
  0
LINE
  8
0
 10
294.071
 20
61.3633
 11
294.284
 21
61.4866
  0
LINE
  8
0
 10
294.284
 20
61.4866
 11
294.514
 21
61.5767
  0
LINE
  8
0
 10
294.514
 20
61.5767
 11
294.754
 21
61.6316
  0
LINE
  8
0
 10
294.754
 20
61.6316
 11
295
 21
61.65
  0
LINE
  8
0
 10
295
 20
61.65
 11
295.246
 21
61.6316
  0
LINE
  8
0
 10
295.246
 20
61.6316
 11
295.486
 21
61.5767
  0
LINE
  8
0
 10
295.486
 20
61.5767
 11
295.716
 21
61.4866
  0
LINE
  8
0
 10
295.716
 20
61.4866
 11
295.929
 21
61.3633
  0
LINE
  8
0
 10
295.929
 20
61.3633
 11
296.122
 21
61.2095
  0
LINE
  8
0
 10
296.122
 20
61.2095
 11
296.29
 21
61.0287
  0
LINE
  8
0
 10
296.29
 20
61.0287
 11
296.429
 21
60.825
  0
LINE
  8
0
 10
296.429
 20
60.825
 11
296.536
 21
60.6028
  0
LINE
  8
0
 10
296.536
 20
60.6028
 11
296.609
 21
60.3672
  0
LINE
  8
0
 10
296.609
 20
60.3672
 11
296.645
 21
60.1233
  0
LINE
  8
0
 10
296.645
 20
60.1233
 11
296.645
 21
19.8767
  0
LINE
  8
0
 10
296.645
 20
19.8767
 11
296.609
 21
19.6328
  0
LINE
  8
0
 10
296.609
 20
19.6328
 11
296.536
 21
19.3972
  0
LINE
  8
0
 10
296.536
 20
19.3972
 11
296.429
 21
19.175
  0
LINE
  8
0
 10
296.429
 20
19.175
 11
296.29
 21
18.9712
  0
LINE
  8
0
 10
296.29
 20
18.9712
 11
296.122
 21
18.7905
  0
LINE
  8
0
 10
296.122
 20
18.7905
 11
295.929
 21
18.6367
  0
LINE
  8
0
 10
295.929
 20
18.6367
 11
295.716
 21
18.5134
  0
LINE
  8
0
 10
295.716
 20
18.5134
 11
295.486
 21
18.4233
  0
LINE
  8
0
 10
295.486
 20
18.4233
 11
295.246
 21
18.3684
  0
LINE
  8
0
 10
295.246
 20
18.3684
 11
295
 21
18.35
  0
LINE
  8
0
 10
295
 20
18.35
 11
294.754
 21
18.3684
  0
LINE
  8
0
 10
-295.246
 20
18.3684
 11
-295.486
 21
18.4233
  0
LINE
  8
0
 10
-295.486
 20
18.4233
 11
-295.716
 21
18.5134
  0
LINE
  8
0
 10
-295.716
 20
18.5134
 11
-295.929
 21
18.6367
  0
LINE
  8
0
 10
-295.929
 20
18.6367
 11
-296.122
 21
18.7905
  0
LINE
  8
0
 10
-296.122
 20
18.7905
 11
-296.29
 21
18.9712
  0
LINE
  8
0
 10
-296.29
 20
18.9712
 11
-296.429
 21
19.175
  0
LINE
  8
0
 10
-296.429
 20
19.175
 11
-296.536
 21
19.3972
  0
LINE
  8
0
 10
-296.536
 20
19.3972
 11
-296.609
 21
19.6328
  0
LINE
  8
0
 10
-296.609
 20
19.6328
 11
-296.645
 21
19.8767
  0
LINE
  8
0
 10
-296.645
 20
19.8767
 11
-296.645
 21
60.1233
  0
LINE
  8
0
 10
-296.645
 20
60.1233
 11
-296.609
 21
60.3672
  0
LINE
  8
0
 10
-296.609
 20
60.3672
 11
-296.536
 21
60.6028
  0
LINE
  8
0
 10
-296.536
 20
60.6028
 11
-296.429
 21
60.825
  0
LINE
  8
0
 10
-296.429
 20
60.825
 11
-296.29
 21
61.0287
  0
LINE
  8
0
 10
-296.29
 20
61.0287
 11
-296.122
 21
61.2095
  0
LINE
  8
0
 10
-296.122
 20
61.2095
 11
-295.929
 21
61.3633
  0
LINE
  8
0
 10
-295.929
 20
61.3633
 11
-295.716
 21
61.4866
  0
LINE
  8
0
 10
-295.716
 20
61.4866
 11
-295.486
 21
61.5767
  0
LINE
  8
0
 10
-295.486
 20
61.5767
 11
-295.246
 21
61.6316
  0
LINE
  8
0
 10
-295.246
 20
61.6316
 11
-295
 21
61.65
  0
LINE
  8
0
 10
-295
 20
61.65
 11
-294.754
 21
61.6316
  0
LINE
  8
0
 10
-294.754
 20
61.6316
 11
-294.514
 21
61.5767
  0
LINE
  8
0
 10
-294.514
 20
61.5767
 11
-294.284
 21
61.4866
  0
LINE
  8
0
 10
-294.284
 20
61.4866
 11
-294.071
 21
61.3633
  0
LINE
  8
0
 10
-294.071
 20
61.3633
 11
-293.878
 21
61.2095
  0
LINE
  8
0
 10
-293.878
 20
61.2095
 11
-293.71
 21
61.0287
  0
LINE
  8
0
 10
-293.71
 20
61.0287
 11
-293.571
 21
60.825
  0
LINE
  8
0
 10
-293.571
 20
60.825
 11
-293.464
 21
60.6028
  0
LINE
  8
0
 10
-293.464
 20
60.6028
 11
-293.391
 21
60.3672
  0
LINE
  8
0
 10
-293.391
 20
60.3672
 11
-293.355
 21
60.1233
  0
LINE
  8
0
 10
-293.355
 20
60.1233
 11
-293.355
 21
19.8767
  0
LINE
  8
0
 10
-293.355
 20
19.8767
 11
-293.391
 21
19.6328
  0
LINE
  8
0
 10
-293.391
 20
19.6328
 11
-293.464
 21
19.3972
  0
LINE
  8
0
 10
-293.464
 20
19.3972
 11
-293.571
 21
19.175
  0
LINE
  8
0
 10
-293.571
 20
19.175
 11
-293.71
 21
18.9712
  0
LINE
  8
0
 10
-293.71
 20
18.9712
 11
-293.878
 21
18.7905
  0
LINE
  8
0
 10
-293.878
 20
18.7905
 11
-294.071
 21
18.6367
  0
LINE
  8
0
 10
-294.071
 20
18.6367
 11
-294.284
 21
18.5134
  0
LINE
  8
0
 10
-294.284
 20
18.5134
 11
-294.514
 21
18.4233
  0
LINE
  8
0
 10
-294.514
 20
18.4233
 11
-294.754
 21
18.3684
  0
LINE
  8
0
 10
-294.754
 20
18.3684
 11
-295
 21
18.35
  0
LINE
  8
0
 10
-295
 20
18.35
 11
-295.246
 21
18.3684
  0
LINE
  8
0
 10
-252.5
 20
-52.5
 11
-253.023
 21
-52.4726
  0
LINE
  8
0
 10
-253.023
 20
-52.4726
 11
-253.54
 21
-52.3907
  0
LINE
  8
0
 10
-253.54
 20
-52.3907
 11
-254.045
 21
-52.2553
  0
LINE
  8
0
 10
-254.045
 20
-52.2553
 11
-254.534
 21
-52.0677
  0
LINE
  8
0
 10
-254.534
 20
-52.0677
 11
-255
 21
-51.8301
  0
LINE
  8
0
 10
-255
 20
-51.8301
 11
-255.439
 21
-51.5451
  0
LINE
  8
0
 10
-255.439
 20
-51.5451
 11
-255.846
 21
-51.2157
  0
LINE
  8
0
 10
-255.846
 20
-51.2157
 11
-256.216
 21
-50.8457
  0
LINE
  8
0
 10
-256.216
 20
-50.8457
 11
-256.545
 21
-50.4389
  0
LINE
  8
0
 10
-256.545
 20
-50.4389
 11
-256.83
 21
-50
  0
LINE
  8
0
 10
-256.83
 20
-50
 11
-257.068
 21
-49.5337
  0
LINE
  8
0
 10
-257.068
 20
-49.5337
 11
-257.255
 21
-49.0451
  0
LINE
  8
0
 10
-257.255
 20
-49.0451
 11
-257.391
 21
-48.5396
  0
LINE
  8
0
 10
-257.391
 20
-48.5396
 11
-257.473
 21
-48.0226
  0
LINE
  8
0
 10
-257.473
 20
-48.0226
 11
-257.5
 21
-47.5
  0
LINE
  8
0
 10
-257.5
 20
-47.5
 11
-257.5
 21
47.5
  0
LINE
  8
0
 10
-257.5
 20
47.5
 11
-257.473
 21
48.0226
  0
LINE
  8
0
 10
-257.473
 20
48.0226
 11
-257.391
 21
48.5396
  0
LINE
  8
0
 10
-257.391
 20
48.5396
 11
-257.255
 21
49.0451
  0
LINE
  8
0
 10
-257.255
 20
49.0451
 11
-257.068
 21
49.5337
  0
LINE
  8
0
 10
-257.068
 20
49.5337
 11
-256.83
 21
50
  0
LINE
  8
0
 10
-256.83
 20
50
 11
-256.545
 21
50.4389
  0
LINE
  8
0
 10
-256.545
 20
50.4389
 11
-256.216
 21
50.8457
  0
LINE
  8
0
 10
-256.216
 20
50.8457
 11
-255.846
 21
51.2157
  0
LINE
  8
0
 10
-255.846
 20
51.2157
 11
-255.439
 21
51.5451
  0
LINE
  8
0
 10
-255.439
 20
51.5451
 11
-255
 21
51.8301
  0
LINE
  8
0
 10
-255
 20
51.8301
 11
-254.534
 21
52.0677
  0
LINE
  8
0
 10
-254.534
 20
52.0677
 11
-254.045
 21
52.2553
  0
LINE
  8
0
 10
-254.045
 20
52.2553
 11
-253.54
 21
52.3907
  0
LINE
  8
0
 10
-253.54
 20
52.3907
 11
-253.023
 21
52.4726
  0
LINE
  8
0
 10
-253.023
 20
52.4726
 11
-252.5
 21
52.5
  0
LINE
  8
0
 10
-252.5
 20
52.5
 11
252.5
 21
52.5
  0
LINE
  8
0
 10
252.5
 20
52.5
 11
253.023
 21
52.4726
  0
LINE
  8
0
 10
253.023
 20
52.4726
 11
253.54
 21
52.3907
  0
LINE
  8
0
 10
253.54
 20
52.3907
 11
254.045
 21
52.2553
  0
LINE
  8
0
 10
254.045
 20
52.2553
 11
254.534
 21
52.0677
  0
LINE
  8
0
 10
254.534
 20
52.0677
 11
255
 21
51.8301
  0
LINE
  8
0
 10
255
 20
51.8301
 11
255.439
 21
51.5451
  0
LINE
  8
0
 10
255.439
 20
51.5451
 11
255.846
 21
51.2157
  0
LINE
  8
0
 10
255.846
 20
51.2157
 11
256.216
 21
50.8457
  0
LINE
  8
0
 10
256.216
 20
50.8457
 11
256.545
 21
50.4389
  0
LINE
  8
0
 10
256.545
 20
50.4389
 11
256.83
 21
50
  0
LINE
  8
0
 10
256.83
 20
50
 11
257.068
 21
49.5337
  0
LINE
  8
0
 10
257.068
 20
49.5337
 11
257.255
 21
49.0451
  0
LINE
  8
0
 10
257.255
 20
49.0451
 11
257.391
 21
48.5396
  0
LINE
  8
0
 10
257.391
 20
48.5396
 11
257.473
 21
48.0226
  0
LINE
  8
0
 10
257.473
 20
48.0226
 11
257.5
 21
47.5
  0
LINE
  8
0
 10
257.5
 20
47.5
 11
257.5
 21
-47.5
  0
LINE
  8
0
 10
257.5
 20
-47.5
 11
257.473
 21
-48.0226
  0
LINE
  8
0
 10
257.473
 20
-48.0226
 11
257.391
 21
-48.5396
  0
LINE
  8
0
 10
257.391
 20
-48.5396
 11
257.255
 21
-49.0451
  0
LINE
  8
0
 10
257.255
 20
-49.0451
 11
257.068
 21
-49.5337
  0
LINE
  8
0
 10
257.068
 20
-49.5337
 11
256.83
 21
-50
  0
LINE
  8
0
 10
256.83
 20
-50
 11
256.545
 21
-50.4389
  0
LINE
  8
0
 10
256.545
 20
-50.4389
 11
256.216
 21
-50.8457
  0
LINE
  8
0
 10
256.216
 20
-50.8457
 11
255.846
 21
-51.2157
  0
LINE
  8
0
 10
255.846
 20
-51.2157
 11
255.439
 21
-51.5451
  0
LINE
  8
0
 10
255.439
 20
-51.5451
 11
255
 21
-51.8301
  0
LINE
  8
0
 10
255
 20
-51.8301
 11
254.534
 21
-52.0677
  0
LINE
  8
0
 10
254.534
 20
-52.0677
 11
254.045
 21
-52.2553
  0
LINE
  8
0
 10
254.045
 20
-52.2553
 11
253.54
 21
-52.3907
  0
LINE
  8
0
 10
253.54
 20
-52.3907
 11
253.023
 21
-52.4726
  0
LINE
  8
0
 10
253.023
 20
-52.4726
 11
252.5
 21
-52.5
  0
LINE
  8
0
 10
252.5
 20
-52.5
 11
-252.5
 21
-52.5
  0
LINE
  8
0
 10
264.814
 20
17.7577
 11
264.569
 21
17.7917
  0
LINE
  8
0
 10
264.569
 20
17.7917
 11
264.328
 21
17.8526
  0
LINE
  8
0
 10
264.328
 20
17.8526
 11
264.096
 21
17.9395
  0
LINE
  8
0
 10
264.096
 20
17.9395
 11
263.875
 21
18.0514
  0
LINE
  8
0
 10
263.875
 20
18.0514
 11
263.667
 21
18.187
  0
LINE
  8
0
 10
263.667
 20
18.187
 11
263.476
 21
18.3446
  0
LINE
  8
0
 10
263.476
 20
18.3446
 11
263.303
 21
18.5223
  0
LINE
  8
0
 10
263.303
 20
18.5223
 11
263.151
 21
18.7179
  0
LINE
  8
0
 10
263.151
 20
18.7179
 11
263.021
 21
18.9291
  0
LINE
  8
0
 10
263.021
 20
18.9291
 11
262.915
 21
19.1533
  0
LINE
  8
0
 10
262.915
 20
19.1533
 11
262.835
 21
19.3878
  0
LINE
  8
0
 10
262.835
 20
19.3878
 11
262.781
 21
19.6297
  0
LINE
  8
0
 10
262.781
 20
19.6297
 11
262.753
 21
19.8761
  0
LINE
  8
0
 10
262.753
 20
19.8761
 11
262.753
 21
20.1239
  0
LINE
  8
0
 10
262.753
 20
20.1239
 11
262.781
 21
20.3703
  0
LINE
  8
0
 10
262.781
 20
20.3703
 11
262.835
 21
20.6122
  0
LINE
  8
0
 10
262.835
 20
20.6122
 11
262.915
 21
20.8467
  0
LINE
  8
0
 10
262.915
 20
20.8467
 11
263.021
 21
21.0709
  0
LINE
  8
0
 10
263.021
 20
21.0709
 11
263.151
 21
21.2821
  0
LINE
  8
0
 10
263.151
 20
21.2821
 11
263.303
 21
21.4777
  0
LINE
  8
0
 10
263.303
 20
21.4777
 11
263.476
 21
21.6554
  0
LINE
  8
0
 10
263.476
 20
21.6554
 11
263.667
 21
21.813
  0
LINE
  8
0
 10
263.667
 20
21.813
 11
263.875
 21
21.9485
  0
LINE
  8
0
 10
263.875
 20
21.9485
 11
264.096
 21
22.0605
  0
LINE
  8
0
 10
264.096
 20
22.0605
 11
264.328
 21
22.1474
  0
LINE
  8
0
 10
264.328
 20
22.1474
 11
264.569
 21
22.2083
  0
LINE
  8
0
 10
264.569
 20
22.2083
 11
264.814
 21
22.2423
  0
LINE
  8
0
 10
264.814
 20
22.2423
 11
265.062
 21
22.2491
  0
LINE
  8
0
 10
265.062
 20
22.2491
 11
265.309
 21
22.2287
  0
LINE
  8
0
 10
265.309
 20
22.2287
 11
265.552
 21
22.1811
  0
LINE
  8
0
 10
265.552
 20
22.1811
 11
265.789
 21
22.1071
  0
LINE
  8
0
 10
265.789
 20
22.1071
 11
266.016
 21
22.0076
  0
LINE
  8
0
 10
266.016
 20
22.0076
 11
266.231
 21
21.8836
  0
LINE
  8
0
 10
266.231
 20
21.8836
 11
266.43
 21
21.7368
  0
LINE
  8
0
 10
266.43
 20
21.7368
 11
266.613
 21
21.5689
  0
LINE
  8
0
 10
266.613
 20
21.5689
 11
266.776
 21
21.382
  0
LINE
  8
0
 10
266.776
 20
21.382
 11
266.917
 21
21.1783
  0
LINE
  8
0
 10
266.917
 20
21.1783
 11
267.035
 21
20.9602
  0
LINE
  8
0
 10
267.035
 20
20.9602
 11
267.128
 21
20.7306
  0
LINE
  8
0
 10
267.128
 20
20.7306
 11
267.196
 21
20.492
  0
LINE
  8
0
 10
267.196
 20
20.492
 11
267.236
 21
20.2475
  0
LINE
  8
0
 10
267.236
 20
20.2475
 11
267.25
 21
20
  0
LINE
  8
0
 10
267.25
 20
20
 11
267.236
 21
19.7525
  0
LINE
  8
0
 10
267.236
 20
19.7525
 11
267.196
 21
19.508
  0
LINE
  8
0
 10
267.196
 20
19.508
 11
267.128
 21
19.2694
  0
LINE
  8
0
 10
267.128
 20
19.2694
 11
267.035
 21
19.0397
  0
LINE
  8
0
 10
267.035
 20
19.0397
 11
266.917
 21
18.8217
  0
LINE
  8
0
 10
266.917
 20
18.8217
 11
266.776
 21
18.618
  0
LINE
  8
0
 10
266.776
 20
18.618
 11
266.613
 21
18.4311
  0
LINE
  8
0
 10
266.613
 20
18.4311
 11
266.43
 21
18.2632
  0
LINE
  8
0
 10
266.43
 20
18.2632
 11
266.231
 21
18.1164
  0
LINE
  8
0
 10
266.231
 20
18.1164
 11
266.016
 21
17.9924
  0
LINE
  8
0
 10
266.016
 20
17.9924
 11
265.789
 21
17.8928
  0
LINE
  8
0
 10
265.789
 20
17.8928
 11
265.552
 21
17.8188
  0
LINE
  8
0
 10
265.552
 20
17.8188
 11
265.309
 21
17.7713
  0
LINE
  8
0
 10
265.309
 20
17.7713
 11
265.062
 21
17.7509
  0
LINE
  8
0
 10
265.062
 20
17.7509
 11
264.814
 21
17.7577
  0
LINE
  8
0
 10
-265.309
 20
17.7713
 11
-265.552
 21
17.8188
  0
LINE
  8
0
 10
-265.552
 20
17.8188
 11
-265.789
 21
17.8928
  0
LINE
  8
0
 10
-265.789
 20
17.8928
 11
-266.016
 21
17.9924
  0
LINE
  8
0
 10
-266.016
 20
17.9924
 11
-266.231
 21
18.1164
  0
LINE
  8
0
 10
-266.231
 20
18.1164
 11
-266.43
 21
18.2632
  0
LINE
  8
0
 10
-266.43
 20
18.2632
 11
-266.613
 21
18.4311
  0
LINE
  8
0
 10
-266.613
 20
18.4311
 11
-266.776
 21
18.618
  0
LINE
  8
0
 10
-266.776
 20
18.618
 11
-266.917
 21
18.8217
  0
LINE
  8
0
 10
-266.917
 20
18.8217
 11
-267.035
 21
19.0397
  0
LINE
  8
0
 10
-267.035
 20
19.0397
 11
-267.128
 21
19.2694
  0
LINE
  8
0
 10
-267.128
 20
19.2694
 11
-267.196
 21
19.508
  0
LINE
  8
0
 10
-267.196
 20
19.508
 11
-267.236
 21
19.7525
  0
LINE
  8
0
 10
-267.236
 20
19.7525
 11
-267.25
 21
20
  0
LINE
  8
0
 10
-267.25
 20
20
 11
-267.236
 21
20.2475
  0
LINE
  8
0
 10
-267.236
 20
20.2475
 11
-267.196
 21
20.492
  0
LINE
  8
0
 10
-267.196
 20
20.492
 11
-267.128
 21
20.7306
  0
LINE
  8
0
 10
-267.128
 20
20.7306
 11
-267.035
 21
20.9602
  0
LINE
  8
0
 10
-267.035
 20
20.9602
 11
-266.917
 21
21.1783
  0
LINE
  8
0
 10
-266.917
 20
21.1783
 11
-266.776
 21
21.382
  0
LINE
  8
0
 10
-266.776
 20
21.382
 11
-266.613
 21
21.5689
  0
LINE
  8
0
 10
-266.613
 20
21.5689
 11
-266.43
 21
21.7368
  0
LINE
  8
0
 10
-266.43
 20
21.7368
 11
-266.231
 21
21.8836
  0
LINE
  8
0
 10
-266.231
 20
21.8836
 11
-266.016
 21
22.0076
  0
LINE
  8
0
 10
-266.016
 20
22.0076
 11
-265.789
 21
22.1071
  0
LINE
  8
0
 10
-265.789
 20
22.1071
 11
-265.552
 21
22.1811
  0
LINE
  8
0
 10
-265.552
 20
22.1811
 11
-265.309
 21
22.2287
  0
LINE
  8
0
 10
-265.309
 20
22.2287
 11
-265.062
 21
22.2491
  0
LINE
  8
0
 10
-265.062
 20
22.2491
 11
-264.814
 21
22.2423
  0
LINE
  8
0
 10
-264.814
 20
22.2423
 11
-264.569
 21
22.2083
  0
LINE
  8
0
 10
-264.569
 20
22.2083
 11
-264.328
 21
22.1474
  0
LINE
  8
0
 10
-264.328
 20
22.1474
 11
-264.096
 21
22.0605
  0
LINE
  8
0
 10
-264.096
 20
22.0605
 11
-263.875
 21
21.9485
  0
LINE
  8
0
 10
-263.875
 20
21.9485
 11
-263.667
 21
21.813
  0
LINE
  8
0
 10
-263.667
 20
21.813
 11
-263.476
 21
21.6554
  0
LINE
  8
0
 10
-263.476
 20
21.6554
 11
-263.303
 21
21.4777
  0
LINE
  8
0
 10
-263.303
 20
21.4777
 11
-263.151
 21
21.2821
  0
LINE
  8
0
 10
-263.151
 20
21.2821
 11
-263.021
 21
21.0709
  0
LINE
  8
0
 10
-263.021
 20
21.0709
 11
-262.915
 21
20.8467
  0
LINE
  8
0
 10
-262.915
 20
20.8467
 11
-262.835
 21
20.6122
  0
LINE
  8
0
 10
-262.835
 20
20.6122
 11
-262.781
 21
20.3703
  0
LINE
  8
0
 10
-262.781
 20
20.3703
 11
-262.753
 21
20.1239
  0
LINE
  8
0
 10
-262.753
 20
20.1239
 11
-262.753
 21
19.8761
  0
LINE
  8
0
 10
-262.753
 20
19.8761
 11
-262.781
 21
19.6297
  0
LINE
  8
0
 10
-262.781
 20
19.6297
 11
-262.835
 21
19.3878
  0
LINE
  8
0
 10
-262.835
 20
19.3878
 11
-262.915
 21
19.1533
  0
LINE
  8
0
 10
-262.915
 20
19.1533
 11
-263.021
 21
18.9291
  0
LINE
  8
0
 10
-263.021
 20
18.9291
 11
-263.151
 21
18.7179
  0
LINE
  8
0
 10
-263.151
 20
18.7179
 11
-263.303
 21
18.5223
  0
LINE
  8
0
 10
-263.303
 20
18.5223
 11
-263.476
 21
18.3446
  0
LINE
  8
0
 10
-263.476
 20
18.3446
 11
-263.667
 21
18.187
  0
LINE
  8
0
 10
-263.667
 20
18.187
 11
-263.875
 21
18.0514
  0
LINE
  8
0
 10
-263.875
 20
18.0514
 11
-264.096
 21
17.9395
  0
LINE
  8
0
 10
-264.096
 20
17.9395
 11
-264.328
 21
17.8526
  0
LINE
  8
0
 10
-264.328
 20
17.8526
 11
-264.569
 21
17.7917
  0
LINE
  8
0
 10
-264.569
 20
17.7917
 11
-264.814
 21
17.7577
  0
LINE
  8
0
 10
-264.814
 20
17.7577
 11
-265.062
 21
17.7509
  0
LINE
  8
0
 10
-265.062
 20
17.7509
 11
-265.309
 21
17.7713
  0
LINE
  8
0
 10
-265.309
 20
-22.2287
 11
-265.552
 21
-22.1811
  0
LINE
  8
0
 10
-265.552
 20
-22.1811
 11
-265.789
 21
-22.1071
  0
LINE
  8
0
 10
-265.789
 20
-22.1071
 11
-266.016
 21
-22.0076
  0
LINE
  8
0
 10
-266.016
 20
-22.0076
 11
-266.231
 21
-21.8836
  0
LINE
  8
0
 10
-266.231
 20
-21.8836
 11
-266.43
 21
-21.7368
  0
LINE
  8
0
 10
-266.43
 20
-21.7368
 11
-266.613
 21
-21.5689
  0
LINE
  8
0
 10
-266.613
 20
-21.5689
 11
-266.776
 21
-21.382
  0
LINE
  8
0
 10
-266.776
 20
-21.382
 11
-266.917
 21
-21.1783
  0
LINE
  8
0
 10
-266.917
 20
-21.1783
 11
-267.035
 21
-20.9602
  0
LINE
  8
0
 10
-267.035
 20
-20.9602
 11
-267.128
 21
-20.7306
  0
LINE
  8
0
 10
-267.128
 20
-20.7306
 11
-267.196
 21
-20.492
  0
LINE
  8
0
 10
-267.196
 20
-20.492
 11
-267.236
 21
-20.2475
  0
LINE
  8
0
 10
-267.236
 20
-20.2475
 11
-267.25
 21
-20
  0
LINE
  8
0
 10
-267.25
 20
-20
 11
-267.236
 21
-19.7525
  0
LINE
  8
0
 10
-267.236
 20
-19.7525
 11
-267.196
 21
-19.508
  0
LINE
  8
0
 10
-267.196
 20
-19.508
 11
-267.128
 21
-19.2694
  0
LINE
  8
0
 10
-267.128
 20
-19.2694
 11
-267.035
 21
-19.0397
  0
LINE
  8
0
 10
-267.035
 20
-19.0397
 11
-266.917
 21
-18.8217
  0
LINE
  8
0
 10
-266.917
 20
-18.8217
 11
-266.776
 21
-18.618
  0
LINE
  8
0
 10
-266.776
 20
-18.618
 11
-266.613
 21
-18.4311
  0
LINE
  8
0
 10
-266.613
 20
-18.4311
 11
-266.43
 21
-18.2632
  0
LINE
  8
0
 10
-266.43
 20
-18.2632
 11
-266.231
 21
-18.1164
  0
LINE
  8
0
 10
-266.231
 20
-18.1164
 11
-266.016
 21
-17.9924
  0
LINE
  8
0
 10
-266.016
 20
-17.9924
 11
-265.789
 21
-17.8928
  0
LINE
  8
0
 10
-265.789
 20
-17.8928
 11
-265.552
 21
-17.8188
  0
LINE
  8
0
 10
-265.552
 20
-17.8188
 11
-265.309
 21
-17.7713
  0
LINE
  8
0
 10
-265.309
 20
-17.7713
 11
-265.062
 21
-17.7509
  0
LINE
  8
0
 10
-265.062
 20
-17.7509
 11
-264.814
 21
-17.7577
  0
LINE
  8
0
 10
-264.814
 20
-17.7577
 11
-264.569
 21
-17.7917
  0
LINE
  8
0
 10
-264.569
 20
-17.7917
 11
-264.328
 21
-17.8526
  0
LINE
  8
0
 10
-264.328
 20
-17.8526
 11
-264.096
 21
-17.9395
  0
LINE
  8
0
 10
-264.096
 20
-17.9395
 11
-263.875
 21
-18.0514
  0
LINE
  8
0
 10
-263.875
 20
-18.0514
 11
-263.667
 21
-18.187
  0
LINE
  8
0
 10
-263.667
 20
-18.187
 11
-263.476
 21
-18.3446
  0
LINE
  8
0
 10
-263.476
 20
-18.3446
 11
-263.303
 21
-18.5223
  0
LINE
  8
0
 10
-263.303
 20
-18.5223
 11
-263.151
 21
-18.7179
  0
LINE
  8
0
 10
-263.151
 20
-18.7179
 11
-263.021
 21
-18.9291
  0
LINE
  8
0
 10
-263.021
 20
-18.9291
 11
-262.915
 21
-19.1533
  0
LINE
  8
0
 10
-262.915
 20
-19.1533
 11
-262.835
 21
-19.3878
  0
LINE
  8
0
 10
-262.835
 20
-19.3878
 11
-262.781
 21
-19.6297
  0
LINE
  8
0
 10
-262.781
 20
-19.6297
 11
-262.753
 21
-19.8761
  0
LINE
  8
0
 10
-262.753
 20
-19.8761
 11
-262.753
 21
-20.1239
  0
LINE
  8
0
 10
-262.753
 20
-20.1239
 11
-262.781
 21
-20.3703
  0
LINE
  8
0
 10
-262.781
 20
-20.3703
 11
-262.835
 21
-20.6122
  0
LINE
  8
0
 10
-262.835
 20
-20.6122
 11
-262.915
 21
-20.8467
  0
LINE
  8
0
 10
-262.915
 20
-20.8467
 11
-263.021
 21
-21.0709
  0
LINE
  8
0
 10
-263.021
 20
-21.0709
 11
-263.151
 21
-21.2821
  0
LINE
  8
0
 10
-263.151
 20
-21.2821
 11
-263.303
 21
-21.4777
  0
LINE
  8
0
 10
-263.303
 20
-21.4777
 11
-263.476
 21
-21.6554
  0
LINE
  8
0
 10
-263.476
 20
-21.6554
 11
-263.667
 21
-21.813
  0
LINE
  8
0
 10
-263.667
 20
-21.813
 11
-263.875
 21
-21.9485
  0
LINE
  8
0
 10
-263.875
 20
-21.9485
 11
-264.096
 21
-22.0605
  0
LINE
  8
0
 10
-264.096
 20
-22.0605
 11
-264.328
 21
-22.1474
  0
LINE
  8
0
 10
-264.328
 20
-22.1474
 11
-264.569
 21
-22.2083
  0
LINE
  8
0
 10
-264.569
 20
-22.2083
 11
-264.814
 21
-22.2423
  0
LINE
  8
0
 10
-264.814
 20
-22.2423
 11
-265.062
 21
-22.2491
  0
LINE
  8
0
 10
-265.062
 20
-22.2491
 11
-265.309
 21
-22.2287
  0
LINE
  8
0
 10
264.814
 20
-22.2423
 11
264.569
 21
-22.2083
  0
LINE
  8
0
 10
264.569
 20
-22.2083
 11
264.328
 21
-22.1474
  0
LINE
  8
0
 10
264.328
 20
-22.1474
 11
264.096
 21
-22.0605
  0
LINE
  8
0
 10
264.096
 20
-22.0605
 11
263.875
 21
-21.9485
  0
LINE
  8
0
 10
263.875
 20
-21.9485
 11
263.667
 21
-21.813
  0
LINE
  8
0
 10
263.667
 20
-21.813
 11
263.476
 21
-21.6554
  0
LINE
  8
0
 10
263.476
 20
-21.6554
 11
263.303
 21
-21.4777
  0
LINE
  8
0
 10
263.303
 20
-21.4777
 11
263.151
 21
-21.2821
  0
LINE
  8
0
 10
263.151
 20
-21.2821
 11
263.021
 21
-21.0709
  0
LINE
  8
0
 10
263.021
 20
-21.0709
 11
262.915
 21
-20.8467
  0
LINE
  8
0
 10
262.915
 20
-20.8467
 11
262.835
 21
-20.6122
  0
LINE
  8
0
 10
262.835
 20
-20.6122
 11
262.781
 21
-20.3703
  0
LINE
  8
0
 10
262.781
 20
-20.3703
 11
262.753
 21
-20.1239
  0
LINE
  8
0
 10
262.753
 20
-20.1239
 11
262.753
 21
-19.8761
  0
LINE
  8
0
 10
262.753
 20
-19.8761
 11
262.781
 21
-19.6297
  0
LINE
  8
0
 10
262.781
 20
-19.6297
 11
262.835
 21
-19.3878
  0
LINE
  8
0
 10
262.835
 20
-19.3878
 11
262.915
 21
-19.1533
  0
LINE
  8
0
 10
262.915
 20
-19.1533
 11
263.021
 21
-18.9291
  0
LINE
  8
0
 10
263.021
 20
-18.9291
 11
263.151
 21
-18.7179
  0
LINE
  8
0
 10
263.151
 20
-18.7179
 11
263.303
 21
-18.5223
  0
LINE
  8
0
 10
263.303
 20
-18.5223
 11
263.476
 21
-18.3446
  0
LINE
  8
0
 10
263.476
 20
-18.3446
 11
263.667
 21
-18.187
  0
LINE
  8
0
 10
263.667
 20
-18.187
 11
263.875
 21
-18.0514
  0
LINE
  8
0
 10
263.875
 20
-18.0514
 11
264.096
 21
-17.9395
  0
LINE
  8
0
 10
264.096
 20
-17.9395
 11
264.328
 21
-17.8526
  0
LINE
  8
0
 10
264.328
 20
-17.8526
 11
264.569
 21
-17.7917
  0
LINE
  8
0
 10
264.569
 20
-17.7917
 11
264.814
 21
-17.7577
  0
LINE
  8
0
 10
264.814
 20
-17.7577
 11
265.062
 21
-17.7509
  0
LINE
  8
0
 10
265.062
 20
-17.7509
 11
265.309
 21
-17.7713
  0
LINE
  8
0
 10
265.309
 20
-17.7713
 11
265.552
 21
-17.8188
  0
LINE
  8
0
 10
265.552
 20
-17.8188
 11
265.789
 21
-17.8928
  0
LINE
  8
0
 10
265.789
 20
-17.8928
 11
266.016
 21
-17.9924
  0
LINE
  8
0
 10
266.016
 20
-17.9924
 11
266.231
 21
-18.1164
  0
LINE
  8
0
 10
266.231
 20
-18.1164
 11
266.43
 21
-18.2632
  0
LINE
  8
0
 10
266.43
 20
-18.2632
 11
266.613
 21
-18.4311
  0
LINE
  8
0
 10
266.613
 20
-18.4311
 11
266.776
 21
-18.618
  0
LINE
  8
0
 10
266.776
 20
-18.618
 11
266.917
 21
-18.8217
  0
LINE
  8
0
 10
266.917
 20
-18.8217
 11
267.035
 21
-19.0397
  0
LINE
  8
0
 10
267.035
 20
-19.0397
 11
267.128
 21
-19.2694
  0
LINE
  8
0
 10
267.128
 20
-19.2694
 11
267.196
 21
-19.508
  0
LINE
  8
0
 10
267.196
 20
-19.508
 11
267.236
 21
-19.7525
  0
LINE
  8
0
 10
267.236
 20
-19.7525
 11
267.25
 21
-20
  0
LINE
  8
0
 10
267.25
 20
-20
 11
267.236
 21
-20.2475
  0
LINE
  8
0
 10
267.236
 20
-20.2475
 11
267.196
 21
-20.492
  0
LINE
  8
0
 10
267.196
 20
-20.492
 11
267.128
 21
-20.7306
  0
LINE
  8
0
 10
267.128
 20
-20.7306
 11
267.035
 21
-20.9602
  0
LINE
  8
0
 10
267.035
 20
-20.9602
 11
266.917
 21
-21.1783
  0
LINE
  8
0
 10
266.917
 20
-21.1783
 11
266.776
 21
-21.382
  0
LINE
  8
0
 10
266.776
 20
-21.382
 11
266.613
 21
-21.5689
  0
LINE
  8
0
 10
266.613
 20
-21.5689
 11
266.43
 21
-21.7368
  0
LINE
  8
0
 10
266.43
 20
-21.7368
 11
266.231
 21
-21.8836
  0
LINE
  8
0
 10
266.231
 20
-21.8836
 11
266.016
 21
-22.0076
  0
LINE
  8
0
 10
266.016
 20
-22.0076
 11
265.789
 21
-22.1071
  0
LINE
  8
0
 10
265.789
 20
-22.1071
 11
265.552
 21
-22.1811
  0
LINE
  8
0
 10
265.552
 20
-22.1811
 11
265.309
 21
-22.2287
  0
LINE
  8
0
 10
265.309
 20
-22.2287
 11
265.062
 21
-22.2491
  0
LINE
  8
0
 10
265.062
 20
-22.2491
 11
264.814
 21
-22.2423
  0
LINE
  8
0
 10
-295.246
 20
-61.6316
 11
-295.486
 21
-61.5767
  0
LINE
  8
0
 10
-295.486
 20
-61.5767
 11
-295.716
 21
-61.4866
  0
LINE
  8
0
 10
-295.716
 20
-61.4866
 11
-295.929
 21
-61.3633
  0
LINE
  8
0
 10
-295.929
 20
-61.3633
 11
-296.122
 21
-61.2095
  0
LINE
  8
0
 10
-296.122
 20
-61.2095
 11
-296.29
 21
-61.0287
  0
LINE
  8
0
 10
-296.29
 20
-61.0287
 11
-296.429
 21
-60.825
  0
LINE
  8
0
 10
-296.429
 20
-60.825
 11
-296.536
 21
-60.6028
  0
LINE
  8
0
 10
-296.536
 20
-60.6028
 11
-296.609
 21
-60.3672
  0
LINE
  8
0
 10
-296.609
 20
-60.3672
 11
-296.645
 21
-60.1233
  0
LINE
  8
0
 10
-296.645
 20
-60.1233
 11
-296.645
 21
-19.8767
  0
LINE
  8
0
 10
-296.645
 20
-19.8767
 11
-296.609
 21
-19.6328
  0
LINE
  8
0
 10
-296.609
 20
-19.6328
 11
-296.536
 21
-19.3972
  0
LINE
  8
0
 10
-296.536
 20
-19.3972
 11
-296.429
 21
-19.175
  0
LINE
  8
0
 10
-296.429
 20
-19.175
 11
-296.29
 21
-18.9712
  0
LINE
  8
0
 10
-296.29
 20
-18.9712
 11
-296.122
 21
-18.7905
  0
LINE
  8
0
 10
-296.122
 20
-18.7905
 11
-295.929
 21
-18.6367
  0
LINE
  8
0
 10
-295.929
 20
-18.6367
 11
-295.716
 21
-18.5134
  0
LINE
  8
0
 10
-295.716
 20
-18.5134
 11
-295.486
 21
-18.4233
  0
LINE
  8
0
 10
-295.486
 20
-18.4233
 11
-295.246
 21
-18.3684
  0
LINE
  8
0
 10
-295.246
 20
-18.3684
 11
-295
 21
-18.35
  0
LINE
  8
0
 10
-295
 20
-18.35
 11
-294.754
 21
-18.3684
  0
LINE
  8
0
 10
-294.754
 20
-18.3684
 11
-294.514
 21
-18.4233
  0
LINE
  8
0
 10
-294.514
 20
-18.4233
 11
-294.284
 21
-18.5134
  0
LINE
  8
0
 10
-294.284
 20
-18.5134
 11
-294.071
 21
-18.6367
  0
LINE
  8
0
 10
-294.071
 20
-18.6367
 11
-293.878
 21
-18.7905
  0
LINE
  8
0
 10
-293.878
 20
-18.7905
 11
-293.71
 21
-18.9712
  0
LINE
  8
0
 10
-293.71
 20
-18.9712
 11
-293.571
 21
-19.175
  0
LINE
  8
0
 10
-293.571
 20
-19.175
 11
-293.464
 21
-19.3972
  0
LINE
  8
0
 10
-293.464
 20
-19.3972
 11
-293.391
 21
-19.6328
  0
LINE
  8
0
 10
-293.391
 20
-19.6328
 11
-293.355
 21
-19.8767
  0
LINE
  8
0
 10
-293.355
 20
-19.8767
 11
-293.355
 21
-60.1233
  0
LINE
  8
0
 10
-293.355
 20
-60.1233
 11
-293.391
 21
-60.3672
  0
LINE
  8
0
 10
-293.391
 20
-60.3672
 11
-293.464
 21
-60.6028
  0
LINE
  8
0
 10
-293.464
 20
-60.6028
 11
-293.571
 21
-60.825
  0
LINE
  8
0
 10
-293.571
 20
-60.825
 11
-293.71
 21
-61.0287
  0
LINE
  8
0
 10
-293.71
 20
-61.0287
 11
-293.878
 21
-61.2095
  0
LINE
  8
0
 10
-293.878
 20
-61.2095
 11
-294.071
 21
-61.3633
  0
LINE
  8
0
 10
-294.071
 20
-61.3633
 11
-294.284
 21
-61.4866
  0
LINE
  8
0
 10
-294.284
 20
-61.4866
 11
-294.514
 21
-61.5767
  0
LINE
  8
0
 10
-294.514
 20
-61.5767
 11
-294.754
 21
-61.6316
  0
LINE
  8
0
 10
-294.754
 20
-61.6316
 11
-295
 21
-61.65
  0
LINE
  8
0
 10
-295
 20
-61.65
 11
-295.246
 21
-61.6316
  0
LINE
  8
0
 10
294.754
 20
-61.6316
 11
294.514
 21
-61.5767
  0
LINE
  8
0
 10
294.514
 20
-61.5767
 11
294.284
 21
-61.4866
  0
LINE
  8
0
 10
294.284
 20
-61.4866
 11
294.071
 21
-61.3633
  0
LINE
  8
0
 10
294.071
 20
-61.3633
 11
293.878
 21
-61.2095
  0
LINE
  8
0
 10
293.878
 20
-61.2095
 11
293.71
 21
-61.0287
  0
LINE
  8
0
 10
293.71
 20
-61.0287
 11
293.571
 21
-60.825
  0
LINE
  8
0
 10
293.571
 20
-60.825
 11
293.464
 21
-60.6028
  0
LINE
  8
0
 10
293.464
 20
-60.6028
 11
293.391
 21
-60.3672
  0
LINE
  8
0
 10
293.391
 20
-60.3672
 11
293.355
 21
-60.1233
  0
LINE
  8
0
 10
293.355
 20
-60.1233
 11
293.355
 21
-19.8767
  0
LINE
  8
0
 10
293.355
 20
-19.8767
 11
293.391
 21
-19.6328
  0
LINE
  8
0
 10
293.391
 20
-19.6328
 11
293.464
 21
-19.3972
  0
LINE
  8
0
 10
293.464
 20
-19.3972
 11
293.571
 21
-19.175
  0
LINE
  8
0
 10
293.571
 20
-19.175
 11
293.71
 21
-18.9712
  0
LINE
  8
0
 10
293.71
 20
-18.9712
 11
293.878
 21
-18.7905
  0
LINE
  8
0
 10
293.878
 20
-18.7905
 11
294.071
 21
-18.6367
  0
LINE
  8
0
 10
294.071
 20
-18.6367
 11
294.284
 21
-18.5134
  0
LINE
  8
0
 10
294.284
 20
-18.5134
 11
294.514
 21
-18.4233
  0
LINE
  8
0
 10
294.514
 20
-18.4233
 11
294.754
 21
-18.3684
  0
LINE
  8
0
 10
294.754
 20
-18.3684
 11
295
 21
-18.35
  0
LINE
  8
0
 10
295
 20
-18.35
 11
295.246
 21
-18.3684
  0
LINE
  8
0
 10
295.246
 20
-18.3684
 11
295.486
 21
-18.4233
  0
LINE
  8
0
 10
295.486
 20
-18.4233
 11
295.716
 21
-18.5134
  0
LINE
  8
0
 10
295.716
 20
-18.5134
 11
295.929
 21
-18.6367
  0
LINE
  8
0
 10
295.929
 20
-18.6367
 11
296.122
 21
-18.7905
  0
LINE
  8
0
 10
296.122
 20
-18.7905
 11
296.29
 21
-18.9712
  0
LINE
  8
0
 10
296.29
 20
-18.9712
 11
296.429
 21
-19.175
  0
LINE
  8
0
 10
296.429
 20
-19.175
 11
296.536
 21
-19.3972
  0
LINE
  8
0
 10
296.536
 20
-19.3972
 11
296.609
 21
-19.6328
  0
LINE
  8
0
 10
296.609
 20
-19.6328
 11
296.645
 21
-19.8767
  0
LINE
  8
0
 10
296.645
 20
-19.8767
 11
296.645
 21
-60.1233
  0
LINE
  8
0
 10
296.645
 20
-60.1233
 11
296.609
 21
-60.3672
  0
LINE
  8
0
 10
296.609
 20
-60.3672
 11
296.536
 21
-60.6028
  0
LINE
  8
0
 10
296.536
 20
-60.6028
 11
296.429
 21
-60.825
  0
LINE
  8
0
 10
296.429
 20
-60.825
 11
296.29
 21
-61.0287
  0
LINE
  8
0
 10
296.29
 20
-61.0287
 11
296.122
 21
-61.2095
  0
LINE
  8
0
 10
296.122
 20
-61.2095
 11
295.929
 21
-61.3633
  0
LINE
  8
0
 10
295.929
 20
-61.3633
 11
295.716
 21
-61.4866
  0
LINE
  8
0
 10
295.716
 20
-61.4866
 11
295.486
 21
-61.5767
  0
LINE
  8
0
 10
295.486
 20
-61.5767
 11
295.246
 21
-61.6316
  0
LINE
  8
0
 10
295.246
 20
-61.6316
 11
295
 21
-61.65
  0
LINE
  8
0
 10
295
 20
-61.65
 11
294.754
 21
-61.6316
  0
LINE
  8
0
 10
44.8142
 20
-62.2423
 11
44.5686
 21
-62.2083
  0
LINE
  8
0
 10
44.5686
 20
-62.2083
 11
44.3283
 21
-62.1474
  0
LINE
  8
0
 10
44.3283
 20
-62.1474
 11
44.0962
 21
-62.0605
  0
LINE
  8
0
 10
44.0962
 20
-62.0605
 11
43.875
 21
-61.9485
  0
LINE
  8
0
 10
43.875
 20
-61.9485
 11
43.6675
 21
-61.813
  0
LINE
  8
0
 10
43.6675
 20
-61.813
 11
43.4761
 21
-61.6554
  0
LINE
  8
0
 10
43.4761
 20
-61.6554
 11
43.3033
 21
-61.4777
  0
LINE
  8
0
 10
43.3033
 20
-61.4777
 11
43.151
 21
-61.2821
  0
LINE
  8
0
 10
43.151
 20
-61.2821
 11
43.0212
 21
-61.0709
  0
LINE
  8
0
 10
43.0212
 20
-61.0709
 11
42.9154
 21
-60.8467
  0
LINE
  8
0
 10
42.9154
 20
-60.8467
 11
42.8349
 21
-60.6122
  0
LINE
  8
0
 10
42.8349
 20
-60.6122
 11
42.7807
 21
-60.3703
  0
LINE
  8
0
 10
42.7807
 20
-60.3703
 11
42.7534
 21
-60.1239
  0
LINE
  8
0
 10
42.7534
 20
-60.1239
 11
42.7534
 21
-59.8761
  0
LINE
  8
0
 10
42.7534
 20
-59.8761
 11
42.7807
 21
-59.6297
  0
LINE
  8
0
 10
42.7807
 20
-59.6297
 11
42.8349
 21
-59.3878
  0
LINE
  8
0
 10
42.8349
 20
-59.3878
 11
42.9154
 21
-59.1533
  0
LINE
  8
0
 10
42.9154
 20
-59.1533
 11
43.0212
 21
-58.9291
  0
LINE
  8
0
 10
43.0212
 20
-58.9291
 11
43.151
 21
-58.7179
  0
LINE
  8
0
 10
43.151
 20
-58.7179
 11
43.3033
 21
-58.5223
  0
LINE
  8
0
 10
43.3033
 20
-58.5223
 11
43.4761
 21
-58.3446
  0
LINE
  8
0
 10
43.4761
 20
-58.3446
 11
43.6675
 21
-58.187
  0
LINE
  8
0
 10
43.6675
 20
-58.187
 11
43.875
 21
-58.0514
  0
LINE
  8
0
 10
43.875
 20
-58.0514
 11
44.0962
 21
-57.9395
  0
LINE
  8
0
 10
44.0962
 20
-57.9395
 11
44.3283
 21
-57.8526
  0
LINE
  8
0
 10
44.3283
 20
-57.8526
 11
44.5686
 21
-57.7917
  0
LINE
  8
0
 10
44.5686
 20
-57.7917
 11
44.8142
 21
-57.7577
  0
LINE
  8
0
 10
44.8142
 20
-57.7577
 11
45.062
 21
-57.7509
  0
LINE
  8
0
 10
45.062
 20
-57.7509
 11
45.309
 21
-57.7713
  0
LINE
  8
0
 10
45.309
 20
-57.7713
 11
45.5523
 21
-57.8188
  0
LINE
  8
0
 10
45.5523
 20
-57.8188
 11
45.7889
 21
-57.8928
  0
LINE
  8
0
 10
45.7889
 20
-57.8928
 11
46.0159
 21
-57.9924
  0
LINE
  8
0
 10
46.0159
 20
-57.9924
 11
46.2306
 21
-58.1164
  0
LINE
  8
0
 10
46.2306
 20
-58.1164
 11
46.4304
 21
-58.2632
  0
LINE
  8
0
 10
46.4304
 20
-58.2632
 11
46.6128
 21
-58.4311
  0
LINE
  8
0
 10
46.6128
 20
-58.4311
 11
46.7756
 21
-58.618
  0
LINE
  8
0
 10
46.7756
 20
-58.618
 11
46.9168
 21
-58.8217
  0
LINE
  8
0
 10
46.9168
 20
-58.8217
 11
47.0348
 21
-59.0397
  0
LINE
  8
0
 10
47.0348
 20
-59.0397
 11
47.1281
 21
-59.2694
  0
LINE
  8
0
 10
47.1281
 20
-59.2694
 11
47.1955
 21
-59.508
  0
LINE
  8
0
 10
47.1955
 20
-59.508
 11
47.2363
 21
-59.7525
  0
LINE
  8
0
 10
47.2363
 20
-59.7525
 11
47.25
 21
-60
  0
LINE
  8
0
 10
47.25
 20
-60
 11
47.2363
 21
-60.2475
  0
LINE
  8
0
 10
47.2363
 20
-60.2475
 11
47.1955
 21
-60.492
  0
LINE
  8
0
 10
47.1955
 20
-60.492
 11
47.1281
 21
-60.7306
  0
LINE
  8
0
 10
47.1281
 20
-60.7306
 11
47.0348
 21
-60.9602
  0
LINE
  8
0
 10
47.0348
 20
-60.9602
 11
46.9168
 21
-61.1783
  0
LINE
  8
0
 10
46.9168
 20
-61.1783
 11
46.7756
 21
-61.382
  0
LINE
  8
0
 10
46.7756
 20
-61.382
 11
46.6128
 21
-61.5689
  0
LINE
  8
0
 10
46.6128
 20
-61.5689
 11
46.4304
 21
-61.7368
  0
LINE
  8
0
 10
46.4304
 20
-61.7368
 11
46.2306
 21
-61.8836
  0
LINE
  8
0
 10
46.2306
 20
-61.8836
 11
46.0159
 21
-62.0076
  0
LINE
  8
0
 10
46.0159
 20
-62.0076
 11
45.7889
 21
-62.1071
  0
LINE
  8
0
 10
45.7889
 20
-62.1071
 11
45.5523
 21
-62.1812
  0
LINE
  8
0
 10
45.5523
 20
-62.1812
 11
45.309
 21
-62.2287
  0
LINE
  8
0
 10
45.309
 20
-62.2287
 11
45.062
 21
-62.2491
  0
LINE
  8
0
 10
45.062
 20
-62.2491
 11
44.8142
 21
-62.2423
  0
LINE
  8
0
 10
224.814
 20
-62.2423
 11
224.569
 21
-62.2083
  0
LINE
  8
0
 10
224.569
 20
-62.2083
 11
224.328
 21
-62.1474
  0
LINE
  8
0
 10
224.328
 20
-62.1474
 11
224.096
 21
-62.0605
  0
LINE
  8
0
 10
224.096
 20
-62.0605
 11
223.875
 21
-61.9485
  0
LINE
  8
0
 10
223.875
 20
-61.9485
 11
223.667
 21
-61.813
  0
LINE
  8
0
 10
223.667
 20
-61.813
 11
223.476
 21
-61.6554
  0
LINE
  8
0
 10
223.476
 20
-61.6554
 11
223.303
 21
-61.4777
  0
LINE
  8
0
 10
223.303
 20
-61.4777
 11
223.151
 21
-61.2821
  0
LINE
  8
0
 10
223.151
 20
-61.2821
 11
223.021
 21
-61.0709
  0
LINE
  8
0
 10
223.021
 20
-61.0709
 11
222.915
 21
-60.8467
  0
LINE
  8
0
 10
222.915
 20
-60.8467
 11
222.835
 21
-60.6122
  0
LINE
  8
0
 10
222.835
 20
-60.6122
 11
222.781
 21
-60.3703
  0
LINE
  8
0
 10
222.781
 20
-60.3703
 11
222.753
 21
-60.1239
  0
LINE
  8
0
 10
222.753
 20
-60.1239
 11
222.753
 21
-59.8761
  0
LINE
  8
0
 10
222.753
 20
-59.8761
 11
222.781
 21
-59.6297
  0
LINE
  8
0
 10
222.781
 20
-59.6297
 11
222.835
 21
-59.3878
  0
LINE
  8
0
 10
222.835
 20
-59.3878
 11
222.915
 21
-59.1533
  0
LINE
  8
0
 10
222.915
 20
-59.1533
 11
223.021
 21
-58.9291
  0
LINE
  8
0
 10
223.021
 20
-58.9291
 11
223.151
 21
-58.7179
  0
LINE
  8
0
 10
223.151
 20
-58.7179
 11
223.303
 21
-58.5223
  0
LINE
  8
0
 10
223.303
 20
-58.5223
 11
223.476
 21
-58.3446
  0
LINE
  8
0
 10
223.476
 20
-58.3446
 11
223.667
 21
-58.187
  0
LINE
  8
0
 10
223.667
 20
-58.187
 11
223.875
 21
-58.0514
  0
LINE
  8
0
 10
223.875
 20
-58.0514
 11
224.096
 21
-57.9395
  0
LINE
  8
0
 10
224.096
 20
-57.9395
 11
224.328
 21
-57.8526
  0
LINE
  8
0
 10
224.328
 20
-57.8526
 11
224.569
 21
-57.7917
  0
LINE
  8
0
 10
224.569
 20
-57.7917
 11
224.814
 21
-57.7577
  0
LINE
  8
0
 10
224.814
 20
-57.7577
 11
225.062
 21
-57.7509
  0
LINE
  8
0
 10
225.062
 20
-57.7509
 11
225.309
 21
-57.7713
  0
LINE
  8
0
 10
225.309
 20
-57.7713
 11
225.552
 21
-57.8188
  0
LINE
  8
0
 10
225.552
 20
-57.8188
 11
225.789
 21
-57.8928
  0
LINE
  8
0
 10
225.789
 20
-57.8928
 11
226.016
 21
-57.9924
  0
LINE
  8
0
 10
226.016
 20
-57.9924
 11
226.231
 21
-58.1164
  0
LINE
  8
0
 10
226.231
 20
-58.1164
 11
226.43
 21
-58.2632
  0
LINE
  8
0
 10
226.43
 20
-58.2632
 11
226.613
 21
-58.4311
  0
LINE
  8
0
 10
226.613
 20
-58.4311
 11
226.776
 21
-58.618
  0
LINE
  8
0
 10
226.776
 20
-58.618
 11
226.917
 21
-58.8217
  0
LINE
  8
0
 10
226.917
 20
-58.8217
 11
227.035
 21
-59.0397
  0
LINE
  8
0
 10
227.035
 20
-59.0397
 11
227.128
 21
-59.2694
  0
LINE
  8
0
 10
227.128
 20
-59.2694
 11
227.196
 21
-59.508
  0
LINE
  8
0
 10
227.196
 20
-59.508
 11
227.236
 21
-59.7525
  0
LINE
  8
0
 10
227.236
 20
-59.7525
 11
227.25
 21
-60
  0
LINE
  8
0
 10
227.25
 20
-60
 11
227.236
 21
-60.2475
  0
LINE
  8
0
 10
227.236
 20
-60.2475
 11
227.196
 21
-60.492
  0
LINE
  8
0
 10
227.196
 20
-60.492
 11
227.128
 21
-60.7306
  0
LINE
  8
0
 10
227.128
 20
-60.7306
 11
227.035
 21
-60.9602
  0
LINE
  8
0
 10
227.035
 20
-60.9602
 11
226.917
 21
-61.1783
  0
LINE
  8
0
 10
226.917
 20
-61.1783
 11
226.776
 21
-61.382
  0
LINE
  8
0
 10
226.776
 20
-61.382
 11
226.613
 21
-61.5689
  0
LINE
  8
0
 10
226.613
 20
-61.5689
 11
226.43
 21
-61.7368
  0
LINE
  8
0
 10
226.43
 20
-61.7368
 11
226.231
 21
-61.8836
  0
LINE
  8
0
 10
226.231
 20
-61.8836
 11
226.016
 21
-62.0076
  0
LINE
  8
0
 10
226.016
 20
-62.0076
 11
225.789
 21
-62.1071
  0
LINE
  8
0
 10
225.789
 20
-62.1071
 11
225.552
 21
-62.1812
  0
LINE
  8
0
 10
225.552
 20
-62.1812
 11
225.309
 21
-62.2287
  0
LINE
  8
0
 10
225.309
 20
-62.2287
 11
225.062
 21
-62.2491
  0
LINE
  8
0
 10
225.062
 20
-62.2491
 11
224.814
 21
-62.2423
  0
LINE
  8
0
 10
-135.186
 20
-62.2423
 11
-135.431
 21
-62.2083
  0
LINE
  8
0
 10
-135.431
 20
-62.2083
 11
-135.672
 21
-62.1474
  0
LINE
  8
0
 10
-135.672
 20
-62.1474
 11
-135.904
 21
-62.0605
  0
LINE
  8
0
 10
-135.904
 20
-62.0605
 11
-136.125
 21
-61.9485
  0
LINE
  8
0
 10
-136.125
 20
-61.9485
 11
-136.333
 21
-61.813
  0
LINE
  8
0
 10
-136.333
 20
-61.813
 11
-136.524
 21
-61.6554
  0
LINE
  8
0
 10
-136.524
 20
-61.6554
 11
-136.697
 21
-61.4777
  0
LINE
  8
0
 10
-136.697
 20
-61.4777
 11
-136.849
 21
-61.2821
  0
LINE
  8
0
 10
-136.849
 20
-61.2821
 11
-136.979
 21
-61.0709
  0
LINE
  8
0
 10
-136.979
 20
-61.0709
 11
-137.085
 21
-60.8467
  0
LINE
  8
0
 10
-137.085
 20
-60.8467
 11
-137.165
 21
-60.6122
  0
LINE
  8
0
 10
-137.165
 20
-60.6122
 11
-137.219
 21
-60.3703
  0
LINE
  8
0
 10
-137.219
 20
-60.3703
 11
-137.247
 21
-60.1239
  0
LINE
  8
0
 10
-137.247
 20
-60.1239
 11
-137.247
 21
-59.8761
  0
LINE
  8
0
 10
-137.247
 20
-59.8761
 11
-137.219
 21
-59.6297
  0
LINE
  8
0
 10
-137.219
 20
-59.6297
 11
-137.165
 21
-59.3878
  0
LINE
  8
0
 10
-137.165
 20
-59.3878
 11
-137.085
 21
-59.1533
  0
LINE
  8
0
 10
-137.085
 20
-59.1533
 11
-136.979
 21
-58.9291
  0
LINE
  8
0
 10
-136.979
 20
-58.9291
 11
-136.849
 21
-58.7179
  0
LINE
  8
0
 10
-136.849
 20
-58.7179
 11
-136.697
 21
-58.5223
  0
LINE
  8
0
 10
-136.697
 20
-58.5223
 11
-136.524
 21
-58.3446
  0
LINE
  8
0
 10
-136.524
 20
-58.3446
 11
-136.333
 21
-58.187
  0
LINE
  8
0
 10
-136.333
 20
-58.187
 11
-136.125
 21
-58.0514
  0
LINE
  8
0
 10
-136.125
 20
-58.0514
 11
-135.904
 21
-57.9395
  0
LINE
  8
0
 10
-135.904
 20
-57.9395
 11
-135.672
 21
-57.8526
  0
LINE
  8
0
 10
-135.672
 20
-57.8526
 11
-135.431
 21
-57.7917
  0
LINE
  8
0
 10
-135.431
 20
-57.7917
 11
-135.186
 21
-57.7577
  0
LINE
  8
0
 10
-135.186
 20
-57.7577
 11
-134.938
 21
-57.7509
  0
LINE
  8
0
 10
-134.938
 20
-57.7509
 11
-134.691
 21
-57.7713
  0
LINE
  8
0
 10
-134.691
 20
-57.7713
 11
-134.448
 21
-57.8188
  0
LINE
  8
0
 10
-134.448
 20
-57.8188
 11
-134.211
 21
-57.8928
  0
LINE
  8
0
 10
-134.211
 20
-57.8928
 11
-133.984
 21
-57.9924
  0
LINE
  8
0
 10
-133.984
 20
-57.9924
 11
-133.769
 21
-58.1164
  0
LINE
  8
0
 10
-133.769
 20
-58.1164
 11
-133.57
 21
-58.2632
  0
LINE
  8
0
 10
-133.57
 20
-58.2632
 11
-133.387
 21
-58.4311
  0
LINE
  8
0
 10
-133.387
 20
-58.4311
 11
-133.224
 21
-58.618
  0
LINE
  8
0
 10
-133.224
 20
-58.618
 11
-133.083
 21
-58.8217
  0
LINE
  8
0
 10
-133.083
 20
-58.8217
 11
-132.965
 21
-59.0397
  0
LINE
  8
0
 10
-132.965
 20
-59.0397
 11
-132.872
 21
-59.2694
  0
LINE
  8
0
 10
-132.872
 20
-59.2694
 11
-132.804
 21
-59.508
  0
LINE
  8
0
 10
-132.804
 20
-59.508
 11
-132.764
 21
-59.7525
  0
LINE
  8
0
 10
-132.764
 20
-59.7525
 11
-132.75
 21
-60
  0
LINE
  8
0
 10
-132.75
 20
-60
 11
-132.764
 21
-60.2475
  0
LINE
  8
0
 10
-132.764
 20
-60.2475
 11
-132.804
 21
-60.492
  0
LINE
  8
0
 10
-132.804
 20
-60.492
 11
-132.872
 21
-60.7306
  0
LINE
  8
0
 10
-132.872
 20
-60.7306
 11
-132.965
 21
-60.9602
  0
LINE
  8
0
 10
-132.965
 20
-60.9602
 11
-133.083
 21
-61.1783
  0
LINE
  8
0
 10
-133.083
 20
-61.1783
 11
-133.224
 21
-61.382
  0
LINE
  8
0
 10
-133.224
 20
-61.382
 11
-133.387
 21
-61.5689
  0
LINE
  8
0
 10
-133.387
 20
-61.5689
 11
-133.57
 21
-61.7368
  0
LINE
  8
0
 10
-133.57
 20
-61.7368
 11
-133.769
 21
-61.8836
  0
LINE
  8
0
 10
-133.769
 20
-61.8836
 11
-133.984
 21
-62.0076
  0
LINE
  8
0
 10
-133.984
 20
-62.0076
 11
-134.211
 21
-62.1071
  0
LINE
  8
0
 10
-134.211
 20
-62.1071
 11
-134.448
 21
-62.1812
  0
LINE
  8
0
 10
-134.448
 20
-62.1812
 11
-134.691
 21
-62.2287
  0
LINE
  8
0
 10
-134.691
 20
-62.2287
 11
-134.938
 21
-62.2491
  0
LINE
  8
0
 10
-134.938
 20
-62.2491
 11
-135.186
 21
-62.2423
  0
LINE
  8
0
 10
-225.186
 20
-62.2423
 11
-225.431
 21
-62.2083
  0
LINE
  8
0
 10
-225.431
 20
-62.2083
 11
-225.672
 21
-62.1474
  0
LINE
  8
0
 10
-225.672
 20
-62.1474
 11
-225.904
 21
-62.0605
  0
LINE
  8
0
 10
-225.904
 20
-62.0605
 11
-226.125
 21
-61.9485
  0
LINE
  8
0
 10
-226.125
 20
-61.9485
 11
-226.333
 21
-61.813
  0
LINE
  8
0
 10
-226.333
 20
-61.813
 11
-226.524
 21
-61.6554
  0
LINE
  8
0
 10
-226.524
 20
-61.6554
 11
-226.697
 21
-61.4777
  0
LINE
  8
0
 10
-226.697
 20
-61.4777
 11
-226.849
 21
-61.2821
  0
LINE
  8
0
 10
-226.849
 20
-61.2821
 11
-226.979
 21
-61.0709
  0
LINE
  8
0
 10
-226.979
 20
-61.0709
 11
-227.085
 21
-60.8467
  0
LINE
  8
0
 10
-227.085
 20
-60.8467
 11
-227.165
 21
-60.6122
  0
LINE
  8
0
 10
-227.165
 20
-60.6122
 11
-227.219
 21
-60.3703
  0
LINE
  8
0
 10
-227.219
 20
-60.3703
 11
-227.247
 21
-60.1239
  0
LINE
  8
0
 10
-227.247
 20
-60.1239
 11
-227.247
 21
-59.8761
  0
LINE
  8
0
 10
-227.247
 20
-59.8761
 11
-227.219
 21
-59.6297
  0
LINE
  8
0
 10
-227.219
 20
-59.6297
 11
-227.165
 21
-59.3878
  0
LINE
  8
0
 10
-227.165
 20
-59.3878
 11
-227.085
 21
-59.1533
  0
LINE
  8
0
 10
-227.085
 20
-59.1533
 11
-226.979
 21
-58.9291
  0
LINE
  8
0
 10
-226.979
 20
-58.9291
 11
-226.849
 21
-58.7179
  0
LINE
  8
0
 10
-226.849
 20
-58.7179
 11
-226.697
 21
-58.5223
  0
LINE
  8
0
 10
-226.697
 20
-58.5223
 11
-226.524
 21
-58.3446
  0
LINE
  8
0
 10
-226.524
 20
-58.3446
 11
-226.333
 21
-58.187
  0
LINE
  8
0
 10
-226.333
 20
-58.187
 11
-226.125
 21
-58.0514
  0
LINE
  8
0
 10
-226.125
 20
-58.0514
 11
-225.904
 21
-57.9395
  0
LINE
  8
0
 10
-225.904
 20
-57.9395
 11
-225.672
 21
-57.8526
  0
LINE
  8
0
 10
-225.672
 20
-57.8526
 11
-225.431
 21
-57.7917
  0
LINE
  8
0
 10
-225.431
 20
-57.7917
 11
-225.186
 21
-57.7577
  0
LINE
  8
0
 10
-225.186
 20
-57.7577
 11
-224.938
 21
-57.7509
  0
LINE
  8
0
 10
-224.938
 20
-57.7509
 11
-224.691
 21
-57.7713
  0
LINE
  8
0
 10
-224.691
 20
-57.7713
 11
-224.448
 21
-57.8188
  0
LINE
  8
0
 10
-224.448
 20
-57.8188
 11
-224.211
 21
-57.8928
  0
LINE
  8
0
 10
-224.211
 20
-57.8928
 11
-223.984
 21
-57.9924
  0
LINE
  8
0
 10
-223.984
 20
-57.9924
 11
-223.769
 21
-58.1164
  0
LINE
  8
0
 10
-223.769
 20
-58.1164
 11
-223.57
 21
-58.2632
  0
LINE
  8
0
 10
-223.57
 20
-58.2632
 11
-223.387
 21
-58.4311
  0
LINE
  8
0
 10
-223.387
 20
-58.4311
 11
-223.224
 21
-58.618
  0
LINE
  8
0
 10
-223.224
 20
-58.618
 11
-223.083
 21
-58.8217
  0
LINE
  8
0
 10
-223.083
 20
-58.8217
 11
-222.965
 21
-59.0397
  0
LINE
  8
0
 10
-222.965
 20
-59.0397
 11
-222.872
 21
-59.2694
  0
LINE
  8
0
 10
-222.872
 20
-59.2694
 11
-222.804
 21
-59.508
  0
LINE
  8
0
 10
-222.804
 20
-59.508
 11
-222.764
 21
-59.7525
  0
LINE
  8
0
 10
-222.764
 20
-59.7525
 11
-222.75
 21
-60
  0
LINE
  8
0
 10
-222.75
 20
-60
 11
-222.764
 21
-60.2475
  0
LINE
  8
0
 10
-222.764
 20
-60.2475
 11
-222.804
 21
-60.492
  0
LINE
  8
0
 10
-222.804
 20
-60.492
 11
-222.872
 21
-60.7306
  0
LINE
  8
0
 10
-222.872
 20
-60.7306
 11
-222.965
 21
-60.9602
  0
LINE
  8
0
 10
-222.965
 20
-60.9602
 11
-223.083
 21
-61.1783
  0
LINE
  8
0
 10
-223.083
 20
-61.1783
 11
-223.224
 21
-61.382
  0
LINE
  8
0
 10
-223.224
 20
-61.382
 11
-223.387
 21
-61.5689
  0
LINE
  8
0
 10
-223.387
 20
-61.5689
 11
-223.57
 21
-61.7368
  0
LINE
  8
0
 10
-223.57
 20
-61.7368
 11
-223.769
 21
-61.8836
  0
LINE
  8
0
 10
-223.769
 20
-61.8836
 11
-223.984
 21
-62.0076
  0
LINE
  8
0
 10
-223.984
 20
-62.0076
 11
-224.211
 21
-62.1071
  0
LINE
  8
0
 10
-224.211
 20
-62.1071
 11
-224.448
 21
-62.1812
  0
LINE
  8
0
 10
-224.448
 20
-62.1812
 11
-224.691
 21
-62.2287
  0
LINE
  8
0
 10
-224.691
 20
-62.2287
 11
-224.938
 21
-62.2491
  0
LINE
  8
0
 10
-224.938
 20
-62.2491
 11
-225.186
 21
-62.2423
  0
LINE
  8
0
 10
-45.1858
 20
-62.2423
 11
-45.4314
 21
-62.2083
  0
LINE
  8
0
 10
-45.4314
 20
-62.2083
 11
-45.6716
 21
-62.1474
  0
LINE
  8
0
 10
-45.6716
 20
-62.1474
 11
-45.9038
 21
-62.0605
  0
LINE
  8
0
 10
-45.9038
 20
-62.0605
 11
-46.125
 21
-61.9485
  0
LINE
  8
0
 10
-46.125
 20
-61.9485
 11
-46.3325
 21
-61.813
  0
LINE
  8
0
 10
-46.3325
 20
-61.813
 11
-46.5239
 21
-61.6554
  0
LINE
  8
0
 10
-46.5239
 20
-61.6554
 11
-46.6967
 21
-61.4777
  0
LINE
  8
0
 10
-46.6967
 20
-61.4777
 11
-46.849
 21
-61.2821
  0
LINE
  8
0
 10
-46.849
 20
-61.2821
 11
-46.9788
 21
-61.0709
  0
LINE
  8
0
 10
-46.9788
 20
-61.0709
 11
-47.0846
 21
-60.8467
  0
LINE
  8
0
 10
-47.0846
 20
-60.8467
 11
-47.1651
 21
-60.6122
  0
LINE
  8
0
 10
-47.1651
 20
-60.6122
 11
-47.2193
 21
-60.3703
  0
LINE
  8
0
 10
-47.2193
 20
-60.3703
 11
-47.2466
 21
-60.1239
  0
LINE
  8
0
 10
-47.2466
 20
-60.1239
 11
-47.2466
 21
-59.8761
  0
LINE
  8
0
 10
-47.2466
 20
-59.8761
 11
-47.2193
 21
-59.6297
  0
LINE
  8
0
 10
-47.2193
 20
-59.6297
 11
-47.1651
 21
-59.3878
  0
LINE
  8
0
 10
-47.1651
 20
-59.3878
 11
-47.0846
 21
-59.1533
  0
LINE
  8
0
 10
-47.0846
 20
-59.1533
 11
-46.9788
 21
-58.9291
  0
LINE
  8
0
 10
-46.9788
 20
-58.9291
 11
-46.849
 21
-58.7179
  0
LINE
  8
0
 10
-46.849
 20
-58.7179
 11
-46.6967
 21
-58.5223
  0
LINE
  8
0
 10
-46.6967
 20
-58.5223
 11
-46.5239
 21
-58.3446
  0
LINE
  8
0
 10
-46.5239
 20
-58.3446
 11
-46.3325
 21
-58.187
  0
LINE
  8
0
 10
-46.3325
 20
-58.187
 11
-46.125
 21
-58.0514
  0
LINE
  8
0
 10
-46.125
 20
-58.0514
 11
-45.9038
 21
-57.9395
  0
LINE
  8
0
 10
-45.9038
 20
-57.9395
 11
-45.6716
 21
-57.8526
  0
LINE
  8
0
 10
-45.6716
 20
-57.8526
 11
-45.4314
 21
-57.7917
  0
LINE
  8
0
 10
-45.4314
 20
-57.7917
 11
-45.1858
 21
-57.7577
  0
LINE
  8
0
 10
-45.1858
 20
-57.7577
 11
-44.938
 21
-57.7509
  0
LINE
  8
0
 10
-44.938
 20
-57.7509
 11
-44.6909
 21
-57.7713
  0
LINE
  8
0
 10
-44.6909
 20
-57.7713
 11
-44.4476
 21
-57.8188
  0
LINE
  8
0
 10
-44.4476
 20
-57.8188
 11
-44.2111
 21
-57.8928
  0
LINE
  8
0
 10
-44.2111
 20
-57.8928
 11
-43.984
 21
-57.9924
  0
LINE
  8
0
 10
-43.984
 20
-57.9924
 11
-43.7694
 21
-58.1164
  0
LINE
  8
0
 10
-43.7694
 20
-58.1164
 11
-43.5696
 21
-58.2632
  0
LINE
  8
0
 10
-43.5696
 20
-58.2632
 11
-43.3872
 21
-58.4311
  0
LINE
  8
0
 10
-43.3872
 20
-58.4311
 11
-43.2244
 21
-58.618
  0
LINE
  8
0
 10
-43.2244
 20
-58.618
 11
-43.0832
 21
-58.8217
  0
LINE
  8
0
 10
-43.0832
 20
-58.8217
 11
-42.9652
 21
-59.0397
  0
LINE
  8
0
 10
-42.9652
 20
-59.0397
 11
-42.8719
 21
-59.2694
  0
LINE
  8
0
 10
-42.8719
 20
-59.2694
 11
-42.8045
 21
-59.508
  0
LINE
  8
0
 10
-42.8045
 20
-59.508
 11
-42.7637
 21
-59.7525
  0
LINE
  8
0
 10
-42.7637
 20
-59.7525
 11
-42.75
 21
-60
  0
LINE
  8
0
 10
-42.75
 20
-60
 11
-42.7637
 21
-60.2475
  0
LINE
  8
0
 10
-42.7637
 20
-60.2475
 11
-42.8045
 21
-60.492
  0
LINE
  8
0
 10
-42.8045
 20
-60.492
 11
-42.8719
 21
-60.7306
  0
LINE
  8
0
 10
-42.8719
 20
-60.7306
 11
-42.9652
 21
-60.9602
  0
LINE
  8
0
 10
-42.9652
 20
-60.9602
 11
-43.0832
 21
-61.1783
  0
LINE
  8
0
 10
-43.0832
 20
-61.1783
 11
-43.2244
 21
-61.382
  0
LINE
  8
0
 10
-43.2244
 20
-61.382
 11
-43.3872
 21
-61.5689
  0
LINE
  8
0
 10
-43.3872
 20
-61.5689
 11
-43.5696
 21
-61.7368
  0
LINE
  8
0
 10
-43.5696
 20
-61.7368
 11
-43.7694
 21
-61.8836
  0
LINE
  8
0
 10
-43.7694
 20
-61.8836
 11
-43.984
 21
-62.0076
  0
LINE
  8
0
 10
-43.984
 20
-62.0076
 11
-44.2111
 21
-62.1071
  0
LINE
  8
0
 10
-44.2111
 20
-62.1071
 11
-44.4476
 21
-62.1812
  0
LINE
  8
0
 10
-44.4476
 20
-62.1812
 11
-44.6909
 21
-62.2287
  0
LINE
  8
0
 10
-44.6909
 20
-62.2287
 11
-44.938
 21
-62.2491
  0
LINE
  8
0
 10
-44.938
 20
-62.2491
 11
-45.1858
 21
-62.2423
  0
LINE
  8
0
 10
134.814
 20
-62.2423
 11
134.569
 21
-62.2083
  0
LINE
  8
0
 10
134.569
 20
-62.2083
 11
134.328
 21
-62.1474
  0
LINE
  8
0
 10
134.328
 20
-62.1474
 11
134.096
 21
-62.0605
  0
LINE
  8
0
 10
134.096
 20
-62.0605
 11
133.875
 21
-61.9485
  0
LINE
  8
0
 10
133.875
 20
-61.9485
 11
133.667
 21
-61.813
  0
LINE
  8
0
 10
133.667
 20
-61.813
 11
133.476
 21
-61.6554
  0
LINE
  8
0
 10
133.476
 20
-61.6554
 11
133.303
 21
-61.4777
  0
LINE
  8
0
 10
133.303
 20
-61.4777
 11
133.151
 21
-61.2821
  0
LINE
  8
0
 10
133.151
 20
-61.2821
 11
133.021
 21
-61.0709
  0
LINE
  8
0
 10
133.021
 20
-61.0709
 11
132.915
 21
-60.8467
  0
LINE
  8
0
 10
132.915
 20
-60.8467
 11
132.835
 21
-60.6122
  0
LINE
  8
0
 10
132.835
 20
-60.6122
 11
132.781
 21
-60.3703
  0
LINE
  8
0
 10
132.781
 20
-60.3703
 11
132.753
 21
-60.1239
  0
LINE
  8
0
 10
132.753
 20
-60.1239
 11
132.753
 21
-59.8761
  0
LINE
  8
0
 10
132.753
 20
-59.8761
 11
132.781
 21
-59.6297
  0
LINE
  8
0
 10
132.781
 20
-59.6297
 11
132.835
 21
-59.3878
  0
LINE
  8
0
 10
132.835
 20
-59.3878
 11
132.915
 21
-59.1533
  0
LINE
  8
0
 10
132.915
 20
-59.1533
 11
133.021
 21
-58.9291
  0
LINE
  8
0
 10
133.021
 20
-58.9291
 11
133.151
 21
-58.7179
  0
LINE
  8
0
 10
133.151
 20
-58.7179
 11
133.303
 21
-58.5223
  0
LINE
  8
0
 10
133.303
 20
-58.5223
 11
133.476
 21
-58.3446
  0
LINE
  8
0
 10
133.476
 20
-58.3446
 11
133.667
 21
-58.187
  0
LINE
  8
0
 10
133.667
 20
-58.187
 11
133.875
 21
-58.0514
  0
LINE
  8
0
 10
133.875
 20
-58.0514
 11
134.096
 21
-57.9395
  0
LINE
  8
0
 10
134.096
 20
-57.9395
 11
134.328
 21
-57.8526
  0
LINE
  8
0
 10
134.328
 20
-57.8526
 11
134.569
 21
-57.7917
  0
LINE
  8
0
 10
134.569
 20
-57.7917
 11
134.814
 21
-57.7577
  0
LINE
  8
0
 10
134.814
 20
-57.7577
 11
135.062
 21
-57.7509
  0
LINE
  8
0
 10
135.062
 20
-57.7509
 11
135.309
 21
-57.7713
  0
LINE
  8
0
 10
135.309
 20
-57.7713
 11
135.552
 21
-57.8188
  0
LINE
  8
0
 10
135.552
 20
-57.8188
 11
135.789
 21
-57.8928
  0
LINE
  8
0
 10
135.789
 20
-57.8928
 11
136.016
 21
-57.9924
  0
LINE
  8
0
 10
136.016
 20
-57.9924
 11
136.231
 21
-58.1164
  0
LINE
  8
0
 10
136.231
 20
-58.1164
 11
136.43
 21
-58.2632
  0
LINE
  8
0
 10
136.43
 20
-58.2632
 11
136.613
 21
-58.4311
  0
LINE
  8
0
 10
136.613
 20
-58.4311
 11
136.776
 21
-58.618
  0
LINE
  8
0
 10
136.776
 20
-58.618
 11
136.917
 21
-58.8217
  0
LINE
  8
0
 10
136.917
 20
-58.8217
 11
137.035
 21
-59.0397
  0
LINE
  8
0
 10
137.035
 20
-59.0397
 11
137.128
 21
-59.2694
  0
LINE
  8
0
 10
137.128
 20
-59.2694
 11
137.196
 21
-59.508
  0
LINE
  8
0
 10
137.196
 20
-59.508
 11
137.236
 21
-59.7525
  0
LINE
  8
0
 10
137.236
 20
-59.7525
 11
137.25
 21
-60
  0
LINE
  8
0
 10
137.25
 20
-60
 11
137.236
 21
-60.2475
  0
LINE
  8
0
 10
137.236
 20
-60.2475
 11
137.196
 21
-60.492
  0
LINE
  8
0
 10
137.196
 20
-60.492
 11
137.128
 21
-60.7306
  0
LINE
  8
0
 10
137.128
 20
-60.7306
 11
137.035
 21
-60.9602
  0
LINE
  8
0
 10
137.035
 20
-60.9602
 11
136.917
 21
-61.1783
  0
LINE
  8
0
 10
136.917
 20
-61.1783
 11
136.776
 21
-61.382
  0
LINE
  8
0
 10
136.776
 20
-61.382
 11
136.613
 21
-61.5689
  0
LINE
  8
0
 10
136.613
 20
-61.5689
 11
136.43
 21
-61.7368
  0
LINE
  8
0
 10
136.43
 20
-61.7368
 11
136.231
 21
-61.8836
  0
LINE
  8
0
 10
136.231
 20
-61.8836
 11
136.016
 21
-62.0076
  0
LINE
  8
0
 10
136.016
 20
-62.0076
 11
135.789
 21
-62.1071
  0
LINE
  8
0
 10
135.789
 20
-62.1071
 11
135.552
 21
-62.1812
  0
LINE
  8
0
 10
135.552
 20
-62.1812
 11
135.309
 21
-62.2287
  0
LINE
  8
0
 10
135.309
 20
-62.2287
 11
135.062
 21
-62.2491
  0
LINE
  8
0
 10
135.062
 20
-62.2491
 11
134.814
 21
-62.2423
  0
LINE
  8
0
 10
294.477
 20
-84.9726
 11
293.96
 21
-84.8907
  0
LINE
  8
0
 10
293.96
 20
-84.8907
 11
293.455
 21
-84.7553
  0
LINE
  8
0
 10
293.455
 20
-84.7553
 11
292.966
 21
-84.5677
  0
LINE
  8
0
 10
292.966
 20
-84.5677
 11
292.5
 21
-84.3301
  0
LINE
  8
0
 10
292.5
 20
-84.3301
 11
292.061
 21
-84.0451
  0
LINE
  8
0
 10
292.061
 20
-84.0451
 11
291.654
 21
-83.7157
  0
LINE
  8
0
 10
291.654
 20
-83.7157
 11
291.284
 21
-83.3456
  0
LINE
  8
0
 10
291.284
 20
-83.3456
 11
290.955
 21
-82.9389
  0
LINE
  8
0
 10
290.955
 20
-82.9389
 11
290.67
 21
-82.5
  0
LINE
  8
0
 10
290.67
 20
-82.5
 11
290.432
 21
-82.0337
  0
LINE
  8
0
 10
290.432
 20
-82.0337
 11
290.245
 21
-81.5451
  0
LINE
  8
0
 10
290.245
 20
-81.5451
 11
290.109
 21
-81.0396
  0
LINE
  8
0
 10
290.109
 20
-81.0396
 11
290.027
 21
-80.5226
  0
LINE
  8
0
 10
290.027
 20
-80.5226
 11
290
 21
-80
  0
LINE
  8
0
 10
290
 20
-80
 11
290.027
 21
-79.4774
  0
LINE
  8
0
 10
290.027
 20
-79.4774
 11
290.109
 21
-78.9604
  0
LINE
  8
0
 10
290.109
 20
-78.9604
 11
290.245
 21
-78.4549
  0
LINE
  8
0
 10
290.245
 20
-78.4549
 11
290.432
 21
-77.9663
  0
LINE
  8
0
 10
290.432
 20
-77.9663
 11
290.67
 21
-77.5
  0
LINE
  8
0
 10
290.67
 20
-77.5
 11
290.955
 21
-77.0611
  0
LINE
  8
0
 10
290.955
 20
-77.0611
 11
291.284
 21
-76.6543
  0
LINE
  8
0
 10
291.284
 20
-76.6543
 11
291.654
 21
-76.2843
  0
LINE
  8
0
 10
291.654
 20
-76.2843
 11
292.061
 21
-75.9549
  0
LINE
  8
0
 10
292.061
 20
-75.9549
 11
292.5
 21
-75.6699
  0
LINE
  8
0
 10
292.5
 20
-75.6699
 11
292.966
 21
-75.4323
  0
LINE
  8
0
 10
292.966
 20
-75.4323
 11
293.455
 21
-75.2447
  0
LINE
  8
0
 10
293.455
 20
-75.2447
 11
293.96
 21
-75.1093
  0
LINE
  8
0
 10
293.96
 20
-75.1093
 11
294.477
 21
-75.0274
  0
LINE
  8
0
 10
294.477
 20
-75.0274
 11
295
 21
-75
  0
LINE
  8
0
 10
295
 20
-75
 11
295.523
 21
-75.0274
  0
LINE
  8
0
 10
295.523
 20
-75.0274
 11
296.04
 21
-75.1093
  0
LINE
  8
0
 10
296.04
 20
-75.1093
 11
296.545
 21
-75.2447
  0
LINE
  8
0
 10
296.545
 20
-75.2447
 11
297.034
 21
-75.4323
  0
LINE
  8
0
 10
297.034
 20
-75.4323
 11
297.5
 21
-75.6699
  0
LINE
  8
0
 10
297.5
 20
-75.6699
 11
297.939
 21
-75.9549
  0
LINE
  8
0
 10
297.939
 20
-75.9549
 11
298.346
 21
-76.2843
  0
LINE
  8
0
 10
298.346
 20
-76.2843
 11
298.716
 21
-76.6543
  0
LINE
  8
0
 10
298.716
 20
-76.6543
 11
299.045
 21
-77.0611
  0
LINE
  8
0
 10
299.045
 20
-77.0611
 11
299.33
 21
-77.5
  0
LINE
  8
0
 10
299.33
 20
-77.5
 11
299.568
 21
-77.9663
  0
LINE
  8
0
 10
299.568
 20
-77.9663
 11
299.755
 21
-78.4549
  0
LINE
  8
0
 10
299.755
 20
-78.4549
 11
299.891
 21
-78.9604
  0
LINE
  8
0
 10
299.891
 20
-78.9604
 11
299.973
 21
-79.4774
  0
LINE
  8
0
 10
299.973
 20
-79.4774
 11
300
 21
-80
  0
LINE
  8
0
 10
300
 20
-80
 11
299.973
 21
-80.5226
  0
LINE
  8
0
 10
299.973
 20
-80.5226
 11
299.891
 21
-81.0396
  0
LINE
  8
0
 10
299.891
 20
-81.0396
 11
299.755
 21
-81.5451
  0
LINE
  8
0
 10
299.755
 20
-81.5451
 11
299.568
 21
-82.0337
  0
LINE
  8
0
 10
299.568
 20
-82.0337
 11
299.33
 21
-82.5
  0
LINE
  8
0
 10
299.33
 20
-82.5
 11
299.045
 21
-82.9389
  0
LINE
  8
0
 10
299.045
 20
-82.9389
 11
298.716
 21
-83.3456
  0
LINE
  8
0
 10
298.716
 20
-83.3456
 11
298.346
 21
-83.7157
  0
LINE
  8
0
 10
298.346
 20
-83.7157
 11
297.939
 21
-84.0451
  0
LINE
  8
0
 10
297.939
 20
-84.0451
 11
297.5
 21
-84.3301
  0
LINE
  8
0
 10
297.5
 20
-84.3301
 11
297.034
 21
-84.5677
  0
LINE
  8
0
 10
297.034
 20
-84.5677
 11
296.545
 21
-84.7553
  0
LINE
  8
0
 10
296.545
 20
-84.7553
 11
296.04
 21
-84.8907
  0
LINE
  8
0
 10
296.04
 20
-84.8907
 11
295.523
 21
-84.9726
  0
LINE
  8
0
 10
295.523
 20
-84.9726
 11
295
 21
-85
  0
LINE
  8
0
 10
295
 20
-85
 11
294.477
 21
-84.9726
  0
LINE
  8
0
 10
-295.523
 20
-84.9726
 11
-296.04
 21
-84.8907
  0
LINE
  8
0
 10
-296.04
 20
-84.8907
 11
-296.545
 21
-84.7553
  0
LINE
  8
0
 10
-296.545
 20
-84.7553
 11
-297.034
 21
-84.5677
  0
LINE
  8
0
 10
-297.034
 20
-84.5677
 11
-297.5
 21
-84.3301
  0
LINE
  8
0
 10
-297.5
 20
-84.3301
 11
-297.939
 21
-84.0451
  0
LINE
  8
0
 10
-297.939
 20
-84.0451
 11
-298.346
 21
-83.7157
  0
LINE
  8
0
 10
-298.346
 20
-83.7157
 11
-298.716
 21
-83.3456
  0
LINE
  8
0
 10
-298.716
 20
-83.3456
 11
-299.045
 21
-82.9389
  0
LINE
  8
0
 10
-299.045
 20
-82.9389
 11
-299.33
 21
-82.5
  0
LINE
  8
0
 10
-299.33
 20
-82.5
 11
-299.568
 21
-82.0337
  0
LINE
  8
0
 10
-299.568
 20
-82.0337
 11
-299.755
 21
-81.5451
  0
LINE
  8
0
 10
-299.755
 20
-81.5451
 11
-299.891
 21
-81.0396
  0
LINE
  8
0
 10
-299.891
 20
-81.0396
 11
-299.973
 21
-80.5226
  0
LINE
  8
0
 10
-299.973
 20
-80.5226
 11
-300
 21
-80
  0
LINE
  8
0
 10
-300
 20
-80
 11
-299.973
 21
-79.4774
  0
LINE
  8
0
 10
-299.973
 20
-79.4774
 11
-299.891
 21
-78.9604
  0
LINE
  8
0
 10
-299.891
 20
-78.9604
 11
-299.755
 21
-78.4549
  0
LINE
  8
0
 10
-299.755
 20
-78.4549
 11
-299.568
 21
-77.9663
  0
LINE
  8
0
 10
-299.568
 20
-77.9663
 11
-299.33
 21
-77.5
  0
LINE
  8
0
 10
-299.33
 20
-77.5
 11
-299.045
 21
-77.0611
  0
LINE
  8
0
 10
-299.045
 20
-77.0611
 11
-298.716
 21
-76.6543
  0
LINE
  8
0
 10
-298.716
 20
-76.6543
 11
-298.346
 21
-76.2843
  0
LINE
  8
0
 10
-298.346
 20
-76.2843
 11
-297.939
 21
-75.9549
  0
LINE
  8
0
 10
-297.939
 20
-75.9549
 11
-297.5
 21
-75.6699
  0
LINE
  8
0
 10
-297.5
 20
-75.6699
 11
-297.034
 21
-75.4323
  0
LINE
  8
0
 10
-297.034
 20
-75.4323
 11
-296.545
 21
-75.2447
  0
LINE
  8
0
 10
-296.545
 20
-75.2447
 11
-296.04
 21
-75.1093
  0
LINE
  8
0
 10
-296.04
 20
-75.1093
 11
-295.523
 21
-75.0274
  0
LINE
  8
0
 10
-295.523
 20
-75.0274
 11
-295
 21
-75
  0
LINE
  8
0
 10
-295
 20
-75
 11
-294.477
 21
-75.0274
  0
LINE
  8
0
 10
-294.477
 20
-75.0274
 11
-293.96
 21
-75.1093
  0
LINE
  8
0
 10
-293.96
 20
-75.1093
 11
-293.455
 21
-75.2447
  0
LINE
  8
0
 10
-293.455
 20
-75.2447
 11
-292.966
 21
-75.4323
  0
LINE
  8
0
 10
-292.966
 20
-75.4323
 11
-292.5
 21
-75.6699
  0
LINE
  8
0
 10
-292.5
 20
-75.6699
 11
-292.061
 21
-75.9549
  0
LINE
  8
0
 10
-292.061
 20
-75.9549
 11
-291.654
 21
-76.2843
  0
LINE
  8
0
 10
-291.654
 20
-76.2843
 11
-291.284
 21
-76.6543
  0
LINE
  8
0
 10
-291.284
 20
-76.6543
 11
-290.955
 21
-77.0611
  0
LINE
  8
0
 10
-290.955
 20
-77.0611
 11
-290.67
 21
-77.5
  0
LINE
  8
0
 10
-290.67
 20
-77.5
 11
-290.432
 21
-77.9663
  0
LINE
  8
0
 10
-290.432
 20
-77.9663
 11
-290.245
 21
-78.4549
  0
LINE
  8
0
 10
-290.245
 20
-78.4549
 11
-290.109
 21
-78.9604
  0
LINE
  8
0
 10
-290.109
 20
-78.9604
 11
-290.027
 21
-79.4774
  0
LINE
  8
0
 10
-290.027
 20
-79.4774
 11
-290
 21
-80
  0
LINE
  8
0
 10
-290
 20
-80
 11
-290.027
 21
-80.5226
  0
LINE
  8
0
 10
-290.027
 20
-80.5226
 11
-290.109
 21
-81.0396
  0
LINE
  8
0
 10
-290.109
 20
-81.0396
 11
-290.245
 21
-81.5451
  0
LINE
  8
0
 10
-290.245
 20
-81.5451
 11
-290.432
 21
-82.0337
  0
LINE
  8
0
 10
-290.432
 20
-82.0337
 11
-290.67
 21
-82.5
  0
LINE
  8
0
 10
-290.67
 20
-82.5
 11
-290.955
 21
-82.9389
  0
LINE
  8
0
 10
-290.955
 20
-82.9389
 11
-291.284
 21
-83.3456
  0
LINE
  8
0
 10
-291.284
 20
-83.3456
 11
-291.654
 21
-83.7157
  0
LINE
  8
0
 10
-291.654
 20
-83.7157
 11
-292.061
 21
-84.0451
  0
LINE
  8
0
 10
-292.061
 20
-84.0451
 11
-292.5
 21
-84.3301
  0
LINE
  8
0
 10
-292.5
 20
-84.3301
 11
-292.966
 21
-84.5677
  0
LINE
  8
0
 10
-292.966
 20
-84.5677
 11
-293.455
 21
-84.7553
  0
LINE
  8
0
 10
-293.455
 20
-84.7553
 11
-293.96
 21
-84.8907
  0
LINE
  8
0
 10
-293.96
 20
-84.8907
 11
-294.477
 21
-84.9726
  0
LINE
  8
0
 10
-294.477
 20
-84.9726
 11
-295
 21
-85
  0
LINE
  8
0
 10
-295
 20
-85
 11
-295.523
 21
-84.9726
  0
LINE
  8
0
 10
149.877
 20
-81.6454
 11
149.633
 21
-81.6086
  0
LINE
  8
0
 10
149.633
 20
-81.6086
 11
149.397
 21
-81.5359
  0
LINE
  8
0
 10
149.397
 20
-81.5359
 11
149.175
 21
-81.4289
  0
LINE
  8
0
 10
149.175
 20
-81.4289
 11
148.971
 21
-81.29
  0
LINE
  8
0
 10
148.971
 20
-81.29
 11
148.79
 21
-81.1223
  0
LINE
  8
0
 10
148.79
 20
-81.1223
 11
148.637
 21
-80.9295
  0
LINE
  8
0
 10
148.637
 20
-80.9295
 11
148.513
 21
-80.7159
  0
LINE
  8
0
 10
148.513
 20
-80.7159
 11
148.423
 21
-80.4863
  0
LINE
  8
0
 10
148.423
 20
-80.4863
 11
148.368
 21
-80.2459
  0
LINE
  8
0
 10
148.368
 20
-80.2459
 11
148.35
 21
-80
  0
LINE
  8
0
 10
148.35
 20
-80
 11
148.368
 21
-79.7541
  0
LINE
  8
0
 10
148.368
 20
-79.7541
 11
148.423
 21
-79.5137
  0
LINE
  8
0
 10
148.423
 20
-79.5137
 11
148.513
 21
-79.2841
  0
LINE
  8
0
 10
148.513
 20
-79.2841
 11
148.637
 21
-79.0705
  0
LINE
  8
0
 10
148.637
 20
-79.0705
 11
148.79
 21
-78.8777
  0
LINE
  8
0
 10
148.79
 20
-78.8777
 11
148.971
 21
-78.71
  0
LINE
  8
0
 10
148.971
 20
-78.71
 11
149.175
 21
-78.5711
  0
LINE
  8
0
 10
149.175
 20
-78.5711
 11
149.397
 21
-78.4641
  0
LINE
  8
0
 10
149.397
 20
-78.4641
 11
149.633
 21
-78.3914
  0
LINE
  8
0
 10
149.633
 20
-78.3914
 11
149.877
 21
-78.3546
  0
LINE
  8
0
 10
149.877
 20
-78.3546
 11
190.123
 21
-78.3546
  0
LINE
  8
0
 10
190.123
 20
-78.3546
 11
190.367
 21
-78.3914
  0
LINE
  8
0
 10
190.367
 20
-78.3914
 11
190.603
 21
-78.4641
  0
LINE
  8
0
 10
190.603
 20
-78.4641
 11
190.825
 21
-78.5711
  0
LINE
  8
0
 10
190.825
 20
-78.5711
 11
191.029
 21
-78.71
  0
LINE
  8
0
 10
191.029
 20
-78.71
 11
191.21
 21
-78.8777
  0
LINE
  8
0
 10
191.21
 20
-78.8777
 11
191.363
 21
-79.0705
  0
LINE
  8
0
 10
191.363
 20
-79.0705
 11
191.487
 21
-79.2841
  0
LINE
  8
0
 10
191.487
 20
-79.2841
 11
191.577
 21
-79.5137
  0
LINE
  8
0
 10
191.577
 20
-79.5137
 11
191.632
 21
-79.7541
  0
LINE
  8
0
 10
191.632
 20
-79.7541
 11
191.65
 21
-80
  0
LINE
  8
0
 10
191.65
 20
-80
 11
191.632
 21
-80.2459
  0
LINE
  8
0
 10
191.632
 20
-80.2459
 11
191.577
 21
-80.4863
  0
LINE
  8
0
 10
191.577
 20
-80.4863
 11
191.487
 21
-80.7159
  0
LINE
  8
0
 10
191.487
 20
-80.7159
 11
191.363
 21
-80.9295
  0
LINE
  8
0
 10
191.363
 20
-80.9295
 11
191.21
 21
-81.1223
  0
LINE
  8
0
 10
191.21
 20
-81.1223
 11
191.029
 21
-81.29
  0
LINE
  8
0
 10
191.029
 20
-81.29
 11
190.825
 21
-81.4289
  0
LINE
  8
0
 10
190.825
 20
-81.4289
 11
190.603
 21
-81.5359
  0
LINE
  8
0
 10
190.603
 20
-81.5359
 11
190.367
 21
-81.6086
  0
LINE
  8
0
 10
190.367
 20
-81.6086
 11
190.123
 21
-81.6454
  0
LINE
  8
0
 10
190.123
 20
-81.6454
 11
149.877
 21
-81.6454
  0
LINE
  8
0
 10
-275.123
 20
-81.6454
 11
-275.367
 21
-81.6086
  0
LINE
  8
0
 10
-275.367
 20
-81.6086
 11
-275.603
 21
-81.5359
  0
LINE
  8
0
 10
-275.603
 20
-81.5359
 11
-275.825
 21
-81.4289
  0
LINE
  8
0
 10
-275.825
 20
-81.4289
 11
-276.029
 21
-81.29
  0
LINE
  8
0
 10
-276.029
 20
-81.29
 11
-276.21
 21
-81.1223
  0
LINE
  8
0
 10
-276.21
 20
-81.1223
 11
-276.363
 21
-80.9295
  0
LINE
  8
0
 10
-276.363
 20
-80.9295
 11
-276.487
 21
-80.7159
  0
LINE
  8
0
 10
-276.487
 20
-80.7159
 11
-276.577
 21
-80.4863
  0
LINE
  8
0
 10
-276.577
 20
-80.4863
 11
-276.632
 21
-80.2459
  0
LINE
  8
0
 10
-276.632
 20
-80.2459
 11
-276.65
 21
-80
  0
LINE
  8
0
 10
-276.65
 20
-80
 11
-276.632
 21
-79.7541
  0
LINE
  8
0
 10
-276.632
 20
-79.7541
 11
-276.577
 21
-79.5137
  0
LINE
  8
0
 10
-276.577
 20
-79.5137
 11
-276.487
 21
-79.2841
  0
LINE
  8
0
 10
-276.487
 20
-79.2841
 11
-276.363
 21
-79.0705
  0
LINE
  8
0
 10
-276.363
 20
-79.0705
 11
-276.21
 21
-78.8777
  0
LINE
  8
0
 10
-276.21
 20
-78.8777
 11
-276.029
 21
-78.71
  0
LINE
  8
0
 10
-276.029
 20
-78.71
 11
-275.825
 21
-78.5711
  0
LINE
  8
0
 10
-275.825
 20
-78.5711
 11
-275.603
 21
-78.4641
  0
LINE
  8
0
 10
-275.603
 20
-78.4641
 11
-275.367
 21
-78.3914
  0
LINE
  8
0
 10
-275.367
 20
-78.3914
 11
-275.123
 21
-78.3546
  0
LINE
  8
0
 10
-275.123
 20
-78.3546
 11
-234.877
 21
-78.3546
  0
LINE
  8
0
 10
-234.877
 20
-78.3546
 11
-234.633
 21
-78.3914
  0
LINE
  8
0
 10
-234.633
 20
-78.3914
 11
-234.397
 21
-78.4641
  0
LINE
  8
0
 10
-234.397
 20
-78.4641
 11
-234.175
 21
-78.5711
  0
LINE
  8
0
 10
-234.175
 20
-78.5711
 11
-233.971
 21
-78.71
  0
LINE
  8
0
 10
-233.971
 20
-78.71
 11
-233.79
 21
-78.8777
  0
LINE
  8
0
 10
-233.79
 20
-78.8777
 11
-233.637
 21
-79.0705
  0
LINE
  8
0
 10
-233.637
 20
-79.0705
 11
-233.513
 21
-79.2841
  0
LINE
  8
0
 10
-233.513
 20
-79.2841
 11
-233.423
 21
-79.5137
  0
LINE
  8
0
 10
-233.423
 20
-79.5137
 11
-233.368
 21
-79.7541
  0
LINE
  8
0
 10
-233.368
 20
-79.7541
 11
-233.35
 21
-80
  0
LINE
  8
0
 10
-233.35
 20
-80
 11
-233.368
 21
-80.2459
  0
LINE
  8
0
 10
-233.368
 20
-80.2459
 11
-233.423
 21
-80.4863
  0
LINE
  8
0
 10
-233.423
 20
-80.4863
 11
-233.513
 21
-80.7159
  0
LINE
  8
0
 10
-233.513
 20
-80.7159
 11
-233.637
 21
-80.9295
  0
LINE
  8
0
 10
-233.637
 20
-80.9295
 11
-233.79
 21
-81.1223
  0
LINE
  8
0
 10
-233.79
 20
-81.1223
 11
-233.971
 21
-81.29
  0
LINE
  8
0
 10
-233.971
 20
-81.29
 11
-234.175
 21
-81.4289
  0
LINE
  8
0
 10
-234.175
 20
-81.4289
 11
-234.397
 21
-81.5359
  0
LINE
  8
0
 10
-234.397
 20
-81.5359
 11
-234.633
 21
-81.6086
  0
LINE
  8
0
 10
-234.633
 20
-81.6086
 11
-234.877
 21
-81.6454
  0
LINE
  8
0
 10
-234.877
 20
-81.6454
 11
-275.123
 21
-81.6454
  0
LINE
  8
0
 10
64.8767
 20
-81.6454
 11
64.6328
 21
-81.6086
  0
LINE
  8
0
 10
64.6328
 20
-81.6086
 11
64.3972
 21
-81.5359
  0
LINE
  8
0
 10
64.3972
 20
-81.5359
 11
64.175
 21
-81.4289
  0
LINE
  8
0
 10
64.175
 20
-81.4289
 11
63.9712
 21
-81.29
  0
LINE
  8
0
 10
63.9712
 20
-81.29
 11
63.7905
 21
-81.1223
  0
LINE
  8
0
 10
63.7905
 20
-81.1223
 11
63.6367
 21
-80.9295
  0
LINE
  8
0
 10
63.6367
 20
-80.9295
 11
63.5134
 21
-80.7159
  0
LINE
  8
0
 10
63.5134
 20
-80.7159
 11
63.4233
 21
-80.4863
  0
LINE
  8
0
 10
63.4233
 20
-80.4863
 11
63.3684
 21
-80.2459
  0
LINE
  8
0
 10
63.3684
 20
-80.2459
 11
63.35
 21
-80
  0
LINE
  8
0
 10
63.35
 20
-80
 11
63.3684
 21
-79.7541
  0
LINE
  8
0
 10
63.3684
 20
-79.7541
 11
63.4233
 21
-79.5137
  0
LINE
  8
0
 10
63.4233
 20
-79.5137
 11
63.5134
 21
-79.2841
  0
LINE
  8
0
 10
63.5134
 20
-79.2841
 11
63.6367
 21
-79.0705
  0
LINE
  8
0
 10
63.6367
 20
-79.0705
 11
63.7905
 21
-78.8777
  0
LINE
  8
0
 10
63.7905
 20
-78.8777
 11
63.9712
 21
-78.71
  0
LINE
  8
0
 10
63.9712
 20
-78.71
 11
64.175
 21
-78.5711
  0
LINE
  8
0
 10
64.175
 20
-78.5711
 11
64.3972
 21
-78.4641
  0
LINE
  8
0
 10
64.3972
 20
-78.4641
 11
64.6328
 21
-78.3914
  0
LINE
  8
0
 10
64.6328
 20
-78.3914
 11
64.8767
 21
-78.3546
  0
LINE
  8
0
 10
64.8767
 20
-78.3546
 11
105.123
 21
-78.3546
  0
LINE
  8
0
 10
105.123
 20
-78.3546
 11
105.367
 21
-78.3914
  0
LINE
  8
0
 10
105.367
 20
-78.3914
 11
105.603
 21
-78.4641
  0
LINE
  8
0
 10
105.603
 20
-78.4641
 11
105.825
 21
-78.5711
  0
LINE
  8
0
 10
105.825
 20
-78.5711
 11
106.029
 21
-78.71
  0
LINE
  8
0
 10
106.029
 20
-78.71
 11
106.21
 21
-78.8777
  0
LINE
  8
0
 10
106.21
 20
-78.8777
 11
106.363
 21
-79.0705
  0
LINE
  8
0
 10
106.363
 20
-79.0705
 11
106.487
 21
-79.2841
  0
LINE
  8
0
 10
106.487
 20
-79.2841
 11
106.577
 21
-79.5137
  0
LINE
  8
0
 10
106.577
 20
-79.5137
 11
106.632
 21
-79.7541
  0
LINE
  8
0
 10
106.632
 20
-79.7541
 11
106.65
 21
-80
  0
LINE
  8
0
 10
106.65
 20
-80
 11
106.632
 21
-80.2459
  0
LINE
  8
0
 10
106.632
 20
-80.2459
 11
106.577
 21
-80.4863
  0
LINE
  8
0
 10
106.577
 20
-80.4863
 11
106.487
 21
-80.7159
  0
LINE
  8
0
 10
106.487
 20
-80.7159
 11
106.363
 21
-80.9295
  0
LINE
  8
0
 10
106.363
 20
-80.9295
 11
106.21
 21
-81.1223
  0
LINE
  8
0
 10
106.21
 20
-81.1223
 11
106.029
 21
-81.29
  0
LINE
  8
0
 10
106.029
 20
-81.29
 11
105.825
 21
-81.4289
  0
LINE
  8
0
 10
105.825
 20
-81.4289
 11
105.603
 21
-81.5359
  0
LINE
  8
0
 10
105.603
 20
-81.5359
 11
105.367
 21
-81.6086
  0
LINE
  8
0
 10
105.367
 20
-81.6086
 11
105.123
 21
-81.6454
  0
LINE
  8
0
 10
105.123
 20
-81.6454
 11
64.8767
 21
-81.6454
  0
LINE
  8
0
 10
-20.1233
 20
-81.6454
 11
-20.3672
 21
-81.6086
  0
LINE
  8
0
 10
-20.3672
 20
-81.6086
 11
-20.6028
 21
-81.5359
  0
LINE
  8
0
 10
-20.6028
 20
-81.5359
 11
-20.825
 21
-81.4289
  0
LINE
  8
0
 10
-20.825
 20
-81.4289
 11
-21.0287
 21
-81.29
  0
LINE
  8
0
 10
-21.0287
 20
-81.29
 11
-21.2095
 21
-81.1223
  0
LINE
  8
0
 10
-21.2095
 20
-81.1223
 11
-21.3633
 21
-80.9295
  0
LINE
  8
0
 10
-21.3633
 20
-80.9295
 11
-21.4866
 21
-80.7159
  0
LINE
  8
0
 10
-21.4866
 20
-80.7159
 11
-21.5767
 21
-80.4863
  0
LINE
  8
0
 10
-21.5767
 20
-80.4863
 11
-21.6316
 21
-80.2459
  0
LINE
  8
0
 10
-21.6316
 20
-80.2459
 11
-21.65
 21
-80
  0
LINE
  8
0
 10
-21.65
 20
-80
 11
-21.6316
 21
-79.7541
  0
LINE
  8
0
 10
-21.6316
 20
-79.7541
 11
-21.5767
 21
-79.5137
  0
LINE
  8
0
 10
-21.5767
 20
-79.5137
 11
-21.4866
 21
-79.2841
  0
LINE
  8
0
 10
-21.4866
 20
-79.2841
 11
-21.3633
 21
-79.0705
  0
LINE
  8
0
 10
-21.3633
 20
-79.0705
 11
-21.2095
 21
-78.8777
  0
LINE
  8
0
 10
-21.2095
 20
-78.8777
 11
-21.0287
 21
-78.71
  0
LINE
  8
0
 10
-21.0287
 20
-78.71
 11
-20.825
 21
-78.5711
  0
LINE
  8
0
 10
-20.825
 20
-78.5711
 11
-20.6028
 21
-78.4641
  0
LINE
  8
0
 10
-20.6028
 20
-78.4641
 11
-20.3672
 21
-78.3914
  0
LINE
  8
0
 10
-20.3672
 20
-78.3914
 11
-20.1233
 21
-78.3546
  0
LINE
  8
0
 10
-20.1233
 20
-78.3546
 11
20.1233
 21
-78.3546
  0
LINE
  8
0
 10
20.1233
 20
-78.3546
 11
20.3672
 21
-78.3914
  0
LINE
  8
0
 10
20.3672
 20
-78.3914
 11
20.6028
 21
-78.4641
  0
LINE
  8
0
 10
20.6028
 20
-78.4641
 11
20.825
 21
-78.5711
  0
LINE
  8
0
 10
20.825
 20
-78.5711
 11
21.0287
 21
-78.71
  0
LINE
  8
0
 10
21.0287
 20
-78.71
 11
21.2095
 21
-78.8777
  0
LINE
  8
0
 10
21.2095
 20
-78.8777
 11
21.3633
 21
-79.0705
  0
LINE
  8
0
 10
21.3633
 20
-79.0705
 11
21.4866
 21
-79.2841
  0
LINE
  8
0
 10
21.4866
 20
-79.2841
 11
21.5767
 21
-79.5137
  0
LINE
  8
0
 10
21.5767
 20
-79.5137
 11
21.6316
 21
-79.7541
  0
LINE
  8
0
 10
21.6316
 20
-79.7541
 11
21.65
 21
-80
  0
LINE
  8
0
 10
21.65
 20
-80
 11
21.6316
 21
-80.2459
  0
LINE
  8
0
 10
21.6316
 20
-80.2459
 11
21.5767
 21
-80.4863
  0
LINE
  8
0
 10
21.5767
 20
-80.4863
 11
21.4866
 21
-80.7159
  0
LINE
  8
0
 10
21.4866
 20
-80.7159
 11
21.3633
 21
-80.9295
  0
LINE
  8
0
 10
21.3633
 20
-80.9295
 11
21.2095
 21
-81.1223
  0
LINE
  8
0
 10
21.2095
 20
-81.1223
 11
21.0287
 21
-81.29
  0
LINE
  8
0
 10
21.0287
 20
-81.29
 11
20.825
 21
-81.4289
  0
LINE
  8
0
 10
20.825
 20
-81.4289
 11
20.6028
 21
-81.5359
  0
LINE
  8
0
 10
20.6028
 20
-81.5359
 11
20.3672
 21
-81.6086
  0
LINE
  8
0
 10
20.3672
 20
-81.6086
 11
20.1233
 21
-81.6454
  0
LINE
  8
0
 10
20.1233
 20
-81.6454
 11
-20.1233
 21
-81.6454
  0
LINE
  8
0
 10
-190.123
 20
-81.6454
 11
-190.367
 21
-81.6086
  0
LINE
  8
0
 10
-190.367
 20
-81.6086
 11
-190.603
 21
-81.5359
  0
LINE
  8
0
 10
-190.603
 20
-81.5359
 11
-190.825
 21
-81.4289
  0
LINE
  8
0
 10
-190.825
 20
-81.4289
 11
-191.029
 21
-81.29
  0
LINE
  8
0
 10
-191.029
 20
-81.29
 11
-191.21
 21
-81.1223
  0
LINE
  8
0
 10
-191.21
 20
-81.1223
 11
-191.363
 21
-80.9295
  0
LINE
  8
0
 10
-191.363
 20
-80.9295
 11
-191.487
 21
-80.7159
  0
LINE
  8
0
 10
-191.487
 20
-80.7159
 11
-191.577
 21
-80.4863
  0
LINE
  8
0
 10
-191.577
 20
-80.4863
 11
-191.632
 21
-80.2459
  0
LINE
  8
0
 10
-191.632
 20
-80.2459
 11
-191.65
 21
-80
  0
LINE
  8
0
 10
-191.65
 20
-80
 11
-191.632
 21
-79.7541
  0
LINE
  8
0
 10
-191.632
 20
-79.7541
 11
-191.577
 21
-79.5137
  0
LINE
  8
0
 10
-191.577
 20
-79.5137
 11
-191.487
 21
-79.2841
  0
LINE
  8
0
 10
-191.487
 20
-79.2841
 11
-191.363
 21
-79.0705
  0
LINE
  8
0
 10
-191.363
 20
-79.0705
 11
-191.21
 21
-78.8777
  0
LINE
  8
0
 10
-191.21
 20
-78.8777
 11
-191.029
 21
-78.71
  0
LINE
  8
0
 10
-191.029
 20
-78.71
 11
-190.825
 21
-78.5711
  0
LINE
  8
0
 10
-190.825
 20
-78.5711
 11
-190.603
 21
-78.4641
  0
LINE
  8
0
 10
-190.603
 20
-78.4641
 11
-190.367
 21
-78.3914
  0
LINE
  8
0
 10
-190.367
 20
-78.3914
 11
-190.123
 21
-78.3546
  0
LINE
  8
0
 10
-190.123
 20
-78.3546
 11
-149.877
 21
-78.3546
  0
LINE
  8
0
 10
-149.877
 20
-78.3546
 11
-149.633
 21
-78.3914
  0
LINE
  8
0
 10
-149.633
 20
-78.3914
 11
-149.397
 21
-78.4641
  0
LINE
  8
0
 10
-149.397
 20
-78.4641
 11
-149.175
 21
-78.5711
  0
LINE
  8
0
 10
-149.175
 20
-78.5711
 11
-148.971
 21
-78.71
  0
LINE
  8
0
 10
-148.971
 20
-78.71
 11
-148.79
 21
-78.8777
  0
LINE
  8
0
 10
-148.79
 20
-78.8777
 11
-148.637
 21
-79.0705
  0
LINE
  8
0
 10
-148.637
 20
-79.0705
 11
-148.513
 21
-79.2841
  0
LINE
  8
0
 10
-148.513
 20
-79.2841
 11
-148.423
 21
-79.5137
  0
LINE
  8
0
 10
-148.423
 20
-79.5137
 11
-148.368
 21
-79.7541
  0
LINE
  8
0
 10
-148.368
 20
-79.7541
 11
-148.35
 21
-80
  0
LINE
  8
0
 10
-148.35
 20
-80
 11
-148.368
 21
-80.2459
  0
LINE
  8
0
 10
-148.368
 20
-80.2459
 11
-148.423
 21
-80.4863
  0
LINE
  8
0
 10
-148.423
 20
-80.4863
 11
-148.513
 21
-80.7159
  0
LINE
  8
0
 10
-148.513
 20
-80.7159
 11
-148.637
 21
-80.9295
  0
LINE
  8
0
 10
-148.637
 20
-80.9295
 11
-148.79
 21
-81.1223
  0
LINE
  8
0
 10
-148.79
 20
-81.1223
 11
-148.971
 21
-81.29
  0
LINE
  8
0
 10
-148.971
 20
-81.29
 11
-149.175
 21
-81.4289
  0
LINE
  8
0
 10
-149.175
 20
-81.4289
 11
-149.397
 21
-81.5359
  0
LINE
  8
0
 10
-149.397
 20
-81.5359
 11
-149.633
 21
-81.6086
  0
LINE
  8
0
 10
-149.633
 20
-81.6086
 11
-149.877
 21
-81.6454
  0
LINE
  8
0
 10
-149.877
 20
-81.6454
 11
-190.123
 21
-81.6454
  0
LINE
  8
0
 10
-105.123
 20
-81.6454
 11
-105.367
 21
-81.6086
  0
LINE
  8
0
 10
-105.367
 20
-81.6086
 11
-105.603
 21
-81.5359
  0
LINE
  8
0
 10
-105.603
 20
-81.5359
 11
-105.825
 21
-81.4289
  0
LINE
  8
0
 10
-105.825
 20
-81.4289
 11
-106.029
 21
-81.29
  0
LINE
  8
0
 10
-106.029
 20
-81.29
 11
-106.21
 21
-81.1223
  0
LINE
  8
0
 10
-106.21
 20
-81.1223
 11
-106.363
 21
-80.9295
  0
LINE
  8
0
 10
-106.363
 20
-80.9295
 11
-106.487
 21
-80.7159
  0
LINE
  8
0
 10
-106.487
 20
-80.7159
 11
-106.577
 21
-80.4863
  0
LINE
  8
0
 10
-106.577
 20
-80.4863
 11
-106.632
 21
-80.2459
  0
LINE
  8
0
 10
-106.632
 20
-80.2459
 11
-106.65
 21
-80
  0
LINE
  8
0
 10
-106.65
 20
-80
 11
-106.632
 21
-79.7541
  0
LINE
  8
0
 10
-106.632
 20
-79.7541
 11
-106.577
 21
-79.5137
  0
LINE
  8
0
 10
-106.577
 20
-79.5137
 11
-106.487
 21
-79.2841
  0
LINE
  8
0
 10
-106.487
 20
-79.2841
 11
-106.363
 21
-79.0705
  0
LINE
  8
0
 10
-106.363
 20
-79.0705
 11
-106.21
 21
-78.8777
  0
LINE
  8
0
 10
-106.21
 20
-78.8777
 11
-106.029
 21
-78.71
  0
LINE
  8
0
 10
-106.029
 20
-78.71
 11
-105.825
 21
-78.5711
  0
LINE
  8
0
 10
-105.825
 20
-78.5711
 11
-105.603
 21
-78.4641
  0
LINE
  8
0
 10
-105.603
 20
-78.4641
 11
-105.367
 21
-78.3914
  0
LINE
  8
0
 10
-105.367
 20
-78.3914
 11
-105.123
 21
-78.3546
  0
LINE
  8
0
 10
-105.123
 20
-78.3546
 11
-64.8767
 21
-78.3546
  0
LINE
  8
0
 10
-64.8767
 20
-78.3546
 11
-64.6328
 21
-78.3914
  0
LINE
  8
0
 10
-64.6328
 20
-78.3914
 11
-64.3972
 21
-78.4641
  0
LINE
  8
0
 10
-64.3972
 20
-78.4641
 11
-64.175
 21
-78.5711
  0
LINE
  8
0
 10
-64.175
 20
-78.5711
 11
-63.9712
 21
-78.71
  0
LINE
  8
0
 10
-63.9712
 20
-78.71
 11
-63.7905
 21
-78.8777
  0
LINE
  8
0
 10
-63.7905
 20
-78.8777
 11
-63.6367
 21
-79.0705
  0
LINE
  8
0
 10
-63.6367
 20
-79.0705
 11
-63.5134
 21
-79.2841
  0
LINE
  8
0
 10
-63.5134
 20
-79.2841
 11
-63.4233
 21
-79.5137
  0
LINE
  8
0
 10
-63.4233
 20
-79.5137
 11
-63.3684
 21
-79.7541
  0
LINE
  8
0
 10
-63.3684
 20
-79.7541
 11
-63.35
 21
-80
  0
LINE
  8
0
 10
-63.35
 20
-80
 11
-63.3684
 21
-80.2459
  0
LINE
  8
0
 10
-63.3684
 20
-80.2459
 11
-63.4233
 21
-80.4863
  0
LINE
  8
0
 10
-63.4233
 20
-80.4863
 11
-63.5134
 21
-80.7159
  0
LINE
  8
0
 10
-63.5134
 20
-80.7159
 11
-63.6367
 21
-80.9295
  0
LINE
  8
0
 10
-63.6367
 20
-80.9295
 11
-63.7905
 21
-81.1223
  0
LINE
  8
0
 10
-63.7905
 20
-81.1223
 11
-63.9712
 21
-81.29
  0
LINE
  8
0
 10
-63.9712
 20
-81.29
 11
-64.175
 21
-81.4289
  0
LINE
  8
0
 10
-64.175
 20
-81.4289
 11
-64.3972
 21
-81.5359
  0
LINE
  8
0
 10
-64.3972
 20
-81.5359
 11
-64.6328
 21
-81.6086
  0
LINE
  8
0
 10
-64.6328
 20
-81.6086
 11
-64.8767
 21
-81.6454
  0
LINE
  8
0
 10
-64.8767
 20
-81.6454
 11
-105.123
 21
-81.6454
  0
LINE
  8
0
 10
234.877
 20
-81.6454
 11
234.633
 21
-81.6086
  0
LINE
  8
0
 10
234.633
 20
-81.6086
 11
234.397
 21
-81.5359
  0
LINE
  8
0
 10
234.397
 20
-81.5359
 11
234.175
 21
-81.4289
  0
LINE
  8
0
 10
234.175
 20
-81.4289
 11
233.971
 21
-81.29
  0
LINE
  8
0
 10
233.971
 20
-81.29
 11
233.79
 21
-81.1223
  0
LINE
  8
0
 10
233.79
 20
-81.1223
 11
233.637
 21
-80.9295
  0
LINE
  8
0
 10
233.637
 20
-80.9295
 11
233.513
 21
-80.7159
  0
LINE
  8
0
 10
233.513
 20
-80.7159
 11
233.423
 21
-80.4863
  0
LINE
  8
0
 10
233.423
 20
-80.4863
 11
233.368
 21
-80.2459
  0
LINE
  8
0
 10
233.368
 20
-80.2459
 11
233.35
 21
-80
  0
LINE
  8
0
 10
233.35
 20
-80
 11
233.368
 21
-79.7541
  0
LINE
  8
0
 10
233.368
 20
-79.7541
 11
233.423
 21
-79.5137
  0
LINE
  8
0
 10
233.423
 20
-79.5137
 11
233.513
 21
-79.2841
  0
LINE
  8
0
 10
233.513
 20
-79.2841
 11
233.637
 21
-79.0705
  0
LINE
  8
0
 10
233.637
 20
-79.0705
 11
233.79
 21
-78.8777
  0
LINE
  8
0
 10
233.79
 20
-78.8777
 11
233.971
 21
-78.71
  0
LINE
  8
0
 10
233.971
 20
-78.71
 11
234.175
 21
-78.5711
  0
LINE
  8
0
 10
234.175
 20
-78.5711
 11
234.397
 21
-78.4641
  0
LINE
  8
0
 10
234.397
 20
-78.4641
 11
234.633
 21
-78.3914
  0
LINE
  8
0
 10
234.633
 20
-78.3914
 11
234.877
 21
-78.3546
  0
LINE
  8
0
 10
234.877
 20
-78.3546
 11
275.123
 21
-78.3546
  0
LINE
  8
0
 10
275.123
 20
-78.3546
 11
275.367
 21
-78.3914
  0
LINE
  8
0
 10
275.367
 20
-78.3914
 11
275.603
 21
-78.4641
  0
LINE
  8
0
 10
275.603
 20
-78.4641
 11
275.825
 21
-78.5711
  0
LINE
  8
0
 10
275.825
 20
-78.5711
 11
276.029
 21
-78.71
  0
LINE
  8
0
 10
276.029
 20
-78.71
 11
276.21
 21
-78.8777
  0
LINE
  8
0
 10
276.21
 20
-78.8777
 11
276.363
 21
-79.0705
  0
LINE
  8
0
 10
276.363
 20
-79.0705
 11
276.487
 21
-79.2841
  0
LINE
  8
0
 10
276.487
 20
-79.2841
 11
276.577
 21
-79.5137
  0
LINE
  8
0
 10
276.577
 20
-79.5137
 11
276.632
 21
-79.7541
  0
LINE
  8
0
 10
276.632
 20
-79.7541
 11
276.65
 21
-80
  0
LINE
  8
0
 10
276.65
 20
-80
 11
276.632
 21
-80.2459
  0
LINE
  8
0
 10
276.632
 20
-80.2459
 11
276.577
 21
-80.4863
  0
LINE
  8
0
 10
276.577
 20
-80.4863
 11
276.487
 21
-80.7159
  0
LINE
  8
0
 10
276.487
 20
-80.7159
 11
276.363
 21
-80.9295
  0
LINE
  8
0
 10
276.363
 20
-80.9295
 11
276.21
 21
-81.1223
  0
LINE
  8
0
 10
276.21
 20
-81.1223
 11
276.029
 21
-81.29
  0
LINE
  8
0
 10
276.029
 20
-81.29
 11
275.825
 21
-81.4289
  0
LINE
  8
0
 10
275.825
 20
-81.4289
 11
275.603
 21
-81.5359
  0
LINE
  8
0
 10
275.603
 20
-81.5359
 11
275.367
 21
-81.6086
  0
LINE
  8
0
 10
275.367
 20
-81.6086
 11
275.123
 21
-81.6454
  0
LINE
  8
0
 10
275.123
 20
-81.6454
 11
234.877
 21
-81.6454
  0
ENDSEC
  0
SECTION
  2
OBJECTS
  0
DICTIONARY
  0
ENDSEC
  0
EOF
