  0
SECTION
  2
BLOCKS
  0
ENDSEC
  0
SECTION
  2
ENTITIES
  0
LINE
  8
0
 10
245.398
 20
-109.848
 11
245.915
 21
-109.766
  0
LINE
  8
0
 10
245.915
 20
-109.766
 11
246.42
 21
-109.63
  0
LINE
  8
0
 10
246.42
 20
-109.63
 11
246.909
 21
-109.443
  0
LINE
  8
0
 10
246.909
 20
-109.443
 11
247.375
 21
-109.205
  0
LINE
  8
0
 10
247.375
 20
-109.205
 11
247.814
 21
-108.92
  0
LINE
  8
0
 10
247.814
 20
-108.92
 11
248.221
 21
-108.591
  0
LINE
  8
0
 10
248.221
 20
-108.591
 11
248.591
 21
-108.221
  0
LINE
  8
0
 10
248.591
 20
-108.221
 11
248.92
 21
-107.814
  0
LINE
  8
0
 10
248.92
 20
-107.814
 11
249.205
 21
-107.375
  0
LINE
  8
0
 10
249.205
 20
-107.375
 11
249.443
 21
-106.909
  0
LINE
  8
0
 10
249.443
 20
-106.909
 11
249.63
 21
-106.42
  0
LINE
  8
0
 10
249.63
 20
-106.42
 11
249.766
 21
-105.915
  0
LINE
  8
0
 10
249.766
 20
-105.915
 11
249.848
 21
-105.398
  0
LINE
  8
0
 10
249.848
 20
-105.398
 11
249.875
 21
-104.875
  0
LINE
  8
0
 10
249.875
 20
-104.875
 11
249.875
 21
104.875
  0
LINE
  8
0
 10
249.875
 20
104.875
 11
249.848
 21
105.398
  0
LINE
  8
0
 10
249.848
 20
105.398
 11
249.766
 21
105.915
  0
LINE
  8
0
 10
249.766
 20
105.915
 11
249.63
 21
106.42
  0
LINE
  8
0
 10
249.63
 20
106.42
 11
249.443
 21
106.909
  0
LINE
  8
0
 10
249.443
 20
106.909
 11
249.205
 21
107.375
  0
LINE
  8
0
 10
249.205
 20
107.375
 11
248.92
 21
107.814
  0
LINE
  8
0
 10
248.92
 20
107.814
 11
248.591
 21
108.221
  0
LINE
  8
0
 10
248.591
 20
108.221
 11
248.221
 21
108.591
  0
LINE
  8
0
 10
248.221
 20
108.591
 11
247.814
 21
108.92
  0
LINE
  8
0
 10
247.814
 20
108.92
 11
247.375
 21
109.205
  0
LINE
  8
0
 10
247.375
 20
109.205
 11
246.909
 21
109.443
  0
LINE
  8
0
 10
246.909
 20
109.443
 11
246.42
 21
109.63
  0
LINE
  8
0
 10
246.42
 20
109.63
 11
245.915
 21
109.766
  0
LINE
  8
0
 10
245.915
 20
109.766
 11
245.398
 21
109.848
  0
LINE
  8
0
 10
245.398
 20
109.848
 11
244.875
 21
109.875
  0
LINE
  8
0
 10
244.875
 20
109.875
 11
-244.875
 21
109.875
  0
LINE
  8
0
 10
-244.875
 20
109.875
 11
-245.398
 21
109.848
  0
LINE
  8
0
 10
-245.398
 20
109.848
 11
-245.915
 21
109.766
  0
LINE
  8
0
 10
-245.915
 20
109.766
 11
-246.42
 21
109.63
  0
LINE
  8
0
 10
-246.42
 20
109.63
 11
-246.909
 21
109.443
  0
LINE
  8
0
 10
-246.909
 20
109.443
 11
-247.375
 21
109.205
  0
LINE
  8
0
 10
-247.375
 20
109.205
 11
-247.814
 21
108.92
  0
LINE
  8
0
 10
-247.814
 20
108.92
 11
-248.221
 21
108.591
  0
LINE
  8
0
 10
-248.221
 20
108.591
 11
-248.591
 21
108.221
  0
LINE
  8
0
 10
-248.591
 20
108.221
 11
-248.92
 21
107.814
  0
LINE
  8
0
 10
-248.92
 20
107.814
 11
-249.205
 21
107.375
  0
LINE
  8
0
 10
-249.205
 20
107.375
 11
-249.443
 21
106.909
  0
LINE
  8
0
 10
-249.443
 20
106.909
 11
-249.63
 21
106.42
  0
LINE
  8
0
 10
-249.63
 20
106.42
 11
-249.766
 21
105.915
  0
LINE
  8
0
 10
-249.766
 20
105.915
 11
-249.848
 21
105.398
  0
LINE
  8
0
 10
-249.848
 20
105.398
 11
-249.875
 21
104.875
  0
LINE
  8
0
 10
-249.875
 20
104.875
 11
-249.875
 21
-104.875
  0
LINE
  8
0
 10
-249.875
 20
-104.875
 11
-249.848
 21
-105.398
  0
LINE
  8
0
 10
-249.848
 20
-105.398
 11
-249.766
 21
-105.915
  0
LINE
  8
0
 10
-249.766
 20
-105.915
 11
-249.63
 21
-106.42
  0
LINE
  8
0
 10
-249.63
 20
-106.42
 11
-249.443
 21
-106.909
  0
LINE
  8
0
 10
-249.443
 20
-106.909
 11
-249.205
 21
-107.375
  0
LINE
  8
0
 10
-249.205
 20
-107.375
 11
-248.92
 21
-107.814
  0
LINE
  8
0
 10
-248.92
 20
-107.814
 11
-248.591
 21
-108.221
  0
LINE
  8
0
 10
-248.591
 20
-108.221
 11
-248.221
 21
-108.591
  0
LINE
  8
0
 10
-248.221
 20
-108.591
 11
-247.814
 21
-108.92
  0
LINE
  8
0
 10
-247.814
 20
-108.92
 11
-247.375
 21
-109.205
  0
LINE
  8
0
 10
-247.375
 20
-109.205
 11
-246.909
 21
-109.443
  0
LINE
  8
0
 10
-246.909
 20
-109.443
 11
-246.42
 21
-109.63
  0
LINE
  8
0
 10
-246.42
 20
-109.63
 11
-245.915
 21
-109.766
  0
LINE
  8
0
 10
-245.915
 20
-109.766
 11
-245.398
 21
-109.848
  0
LINE
  8
0
 10
-245.398
 20
-109.848
 11
-244.875
 21
-109.875
  0
LINE
  8
0
 10
-244.875
 20
-109.875
 11
244.875
 21
-109.875
  0
LINE
  8
0
 10
244.875
 20
-109.875
 11
245.398
 21
-109.848
  0
LINE
  8
0
 10
-240.523
 20
75.0274
 11
-241.04
 21
75.1093
  0
LINE
  8
0
 10
-241.04
 20
75.1093
 11
-241.545
 21
75.2447
  0
LINE
  8
0
 10
-241.545
 20
75.2447
 11
-242.034
 21
75.4323
  0
LINE
  8
0
 10
-242.034
 20
75.4323
 11
-242.5
 21
75.6699
  0
LINE
  8
0
 10
-242.5
 20
75.6699
 11
-242.939
 21
75.9549
  0
LINE
  8
0
 10
-242.939
 20
75.9549
 11
-243.346
 21
76.2843
  0
LINE
  8
0
 10
-243.346
 20
76.2843
 11
-243.716
 21
76.6543
  0
LINE
  8
0
 10
-243.716
 20
76.6543
 11
-244.045
 21
77.0611
  0
LINE
  8
0
 10
-244.045
 20
77.0611
 11
-244.33
 21
77.5
  0
LINE
  8
0
 10
-244.33
 20
77.5
 11
-244.568
 21
77.9663
  0
LINE
  8
0
 10
-244.568
 20
77.9663
 11
-244.755
 21
78.4549
  0
LINE
  8
0
 10
-244.755
 20
78.4549
 11
-244.891
 21
78.9604
  0
LINE
  8
0
 10
-244.891
 20
78.9604
 11
-244.973
 21
79.4774
  0
LINE
  8
0
 10
-244.973
 20
79.4774
 11
-245
 21
80
  0
LINE
  8
0
 10
-245
 20
80
 11
-244.973
 21
80.5226
  0
LINE
  8
0
 10
-244.973
 20
80.5226
 11
-244.891
 21
81.0396
  0
LINE
  8
0
 10
-244.891
 20
81.0396
 11
-244.755
 21
81.5451
  0
LINE
  8
0
 10
-244.755
 20
81.5451
 11
-244.568
 21
82.0337
  0
LINE
  8
0
 10
-244.568
 20
82.0337
 11
-244.33
 21
82.5
  0
LINE
  8
0
 10
-244.33
 20
82.5
 11
-244.045
 21
82.9389
  0
LINE
  8
0
 10
-244.045
 20
82.9389
 11
-243.716
 21
83.3456
  0
LINE
  8
0
 10
-243.716
 20
83.3456
 11
-243.346
 21
83.7157
  0
LINE
  8
0
 10
-243.346
 20
83.7157
 11
-242.939
 21
84.0451
  0
LINE
  8
0
 10
-242.939
 20
84.0451
 11
-242.5
 21
84.3301
  0
LINE
  8
0
 10
-242.5
 20
84.3301
 11
-242.034
 21
84.5677
  0
LINE
  8
0
 10
-242.034
 20
84.5677
 11
-241.545
 21
84.7553
  0
LINE
  8
0
 10
-241.545
 20
84.7553
 11
-241.04
 21
84.8907
  0
LINE
  8
0
 10
-241.04
 20
84.8907
 11
-240.523
 21
84.9726
  0
LINE
  8
0
 10
-240.523
 20
84.9726
 11
-240
 21
85
  0
LINE
  8
0
 10
-240
 20
85
 11
-239.477
 21
84.9726
  0
LINE
  8
0
 10
-239.477
 20
84.9726
 11
-238.96
 21
84.8907
  0
LINE
  8
0
 10
-238.96
 20
84.8907
 11
-238.455
 21
84.7553
  0
LINE
  8
0
 10
-238.455
 20
84.7553
 11
-237.966
 21
84.5677
  0
LINE
  8
0
 10
-237.966
 20
84.5677
 11
-237.5
 21
84.3301
  0
LINE
  8
0
 10
-237.5
 20
84.3301
 11
-237.061
 21
84.0451
  0
LINE
  8
0
 10
-237.061
 20
84.0451
 11
-236.654
 21
83.7157
  0
LINE
  8
0
 10
-236.654
 20
83.7157
 11
-236.284
 21
83.3456
  0
LINE
  8
0
 10
-236.284
 20
83.3456
 11
-235.955
 21
82.9389
  0
LINE
  8
0
 10
-235.955
 20
82.9389
 11
-235.67
 21
82.5
  0
LINE
  8
0
 10
-235.67
 20
82.5
 11
-235.432
 21
82.0337
  0
LINE
  8
0
 10
-235.432
 20
82.0337
 11
-235.245
 21
81.5451
  0
LINE
  8
0
 10
-235.245
 20
81.5451
 11
-235.109
 21
81.0396
  0
LINE
  8
0
 10
-235.109
 20
81.0396
 11
-235.027
 21
80.5226
  0
LINE
  8
0
 10
-235.027
 20
80.5226
 11
-235
 21
80
  0
LINE
  8
0
 10
-235
 20
80
 11
-235.027
 21
79.4774
  0
LINE
  8
0
 10
-235.027
 20
79.4774
 11
-235.109
 21
78.9604
  0
LINE
  8
0
 10
-235.109
 20
78.9604
 11
-235.245
 21
78.4549
  0
LINE
  8
0
 10
-235.245
 20
78.4549
 11
-235.432
 21
77.9663
  0
LINE
  8
0
 10
-235.432
 20
77.9663
 11
-235.67
 21
77.5
  0
LINE
  8
0
 10
-235.67
 20
77.5
 11
-235.955
 21
77.0611
  0
LINE
  8
0
 10
-235.955
 20
77.0611
 11
-236.284
 21
76.6543
  0
LINE
  8
0
 10
-236.284
 20
76.6543
 11
-236.654
 21
76.2843
  0
LINE
  8
0
 10
-236.654
 20
76.2843
 11
-237.061
 21
75.9549
  0
LINE
  8
0
 10
-237.061
 20
75.9549
 11
-237.5
 21
75.6699
  0
LINE
  8
0
 10
-237.5
 20
75.6699
 11
-237.966
 21
75.4323
  0
LINE
  8
0
 10
-237.966
 20
75.4323
 11
-238.455
 21
75.2447
  0
LINE
  8
0
 10
-238.455
 20
75.2447
 11
-238.96
 21
75.1093
  0
LINE
  8
0
 10
-238.96
 20
75.1093
 11
-239.477
 21
75.0274
  0
LINE
  8
0
 10
-239.477
 20
75.0274
 11
-240
 21
75
  0
LINE
  8
0
 10
-240
 20
75
 11
-240.523
 21
75.0274
  0
LINE
  8
0
 10
239.477
 20
75.0274
 11
238.96
 21
75.1093
  0
LINE
  8
0
 10
238.96
 20
75.1093
 11
238.455
 21
75.2447
  0
LINE
  8
0
 10
238.455
 20
75.2447
 11
237.966
 21
75.4323
  0
LINE
  8
0
 10
237.966
 20
75.4323
 11
237.5
 21
75.6699
  0
LINE
  8
0
 10
237.5
 20
75.6699
 11
237.061
 21
75.9549
  0
LINE
  8
0
 10
237.061
 20
75.9549
 11
236.654
 21
76.2843
  0
LINE
  8
0
 10
236.654
 20
76.2843
 11
236.284
 21
76.6543
  0
LINE
  8
0
 10
236.284
 20
76.6543
 11
235.955
 21
77.0611
  0
LINE
  8
0
 10
235.955
 20
77.0611
 11
235.67
 21
77.5
  0
LINE
  8
0
 10
235.67
 20
77.5
 11
235.432
 21
77.9663
  0
LINE
  8
0
 10
235.432
 20
77.9663
 11
235.245
 21
78.4549
  0
LINE
  8
0
 10
235.245
 20
78.4549
 11
235.109
 21
78.9604
  0
LINE
  8
0
 10
235.109
 20
78.9604
 11
235.027
 21
79.4774
  0
LINE
  8
0
 10
235.027
 20
79.4774
 11
235
 21
80
  0
LINE
  8
0
 10
235
 20
80
 11
235.027
 21
80.5226
  0
LINE
  8
0
 10
235.027
 20
80.5226
 11
235.109
 21
81.0396
  0
LINE
  8
0
 10
235.109
 20
81.0396
 11
235.245
 21
81.5451
  0
LINE
  8
0
 10
235.245
 20
81.5451
 11
235.432
 21
82.0337
  0
LINE
  8
0
 10
235.432
 20
82.0337
 11
235.67
 21
82.5
  0
LINE
  8
0
 10
235.67
 20
82.5
 11
235.955
 21
82.9389
  0
LINE
  8
0
 10
235.955
 20
82.9389
 11
236.284
 21
83.3456
  0
LINE
  8
0
 10
236.284
 20
83.3456
 11
236.654
 21
83.7157
  0
LINE
  8
0
 10
236.654
 20
83.7157
 11
237.061
 21
84.0451
  0
LINE
  8
0
 10
237.061
 20
84.0451
 11
237.5
 21
84.3301
  0
LINE
  8
0
 10
237.5
 20
84.3301
 11
237.966
 21
84.5677
  0
LINE
  8
0
 10
237.966
 20
84.5677
 11
238.455
 21
84.7553
  0
LINE
  8
0
 10
238.455
 20
84.7553
 11
238.96
 21
84.8907
  0
LINE
  8
0
 10
238.96
 20
84.8907
 11
239.477
 21
84.9726
  0
LINE
  8
0
 10
239.477
 20
84.9726
 11
240
 21
85
  0
LINE
  8
0
 10
240
 20
85
 11
240.523
 21
84.9726
  0
LINE
  8
0
 10
240.523
 20
84.9726
 11
241.04
 21
84.8907
  0
LINE
  8
0
 10
241.04
 20
84.8907
 11
241.545
 21
84.7553
  0
LINE
  8
0
 10
241.545
 20
84.7553
 11
242.034
 21
84.5677
  0
LINE
  8
0
 10
242.034
 20
84.5677
 11
242.5
 21
84.3301
  0
LINE
  8
0
 10
242.5
 20
84.3301
 11
242.939
 21
84.0451
  0
LINE
  8
0
 10
242.939
 20
84.0451
 11
243.346
 21
83.7157
  0
LINE
  8
0
 10
243.346
 20
83.7157
 11
243.716
 21
83.3456
  0
LINE
  8
0
 10
243.716
 20
83.3456
 11
244.045
 21
82.9389
  0
LINE
  8
0
 10
244.045
 20
82.9389
 11
244.33
 21
82.5
  0
LINE
  8
0
 10
244.33
 20
82.5
 11
244.568
 21
82.0337
  0
LINE
  8
0
 10
244.568
 20
82.0337
 11
244.755
 21
81.5451
  0
LINE
  8
0
 10
244.755
 20
81.5451
 11
244.891
 21
81.0396
  0
LINE
  8
0
 10
244.891
 20
81.0396
 11
244.973
 21
80.5226
  0
LINE
  8
0
 10
244.973
 20
80.5226
 11
245
 21
80
  0
LINE
  8
0
 10
245
 20
80
 11
244.973
 21
79.4774
  0
LINE
  8
0
 10
244.973
 20
79.4774
 11
244.891
 21
78.9604
  0
LINE
  8
0
 10
244.891
 20
78.9604
 11
244.755
 21
78.4549
  0
LINE
  8
0
 10
244.755
 20
78.4549
 11
244.568
 21
77.9663
  0
LINE
  8
0
 10
244.568
 20
77.9663
 11
244.33
 21
77.5
  0
LINE
  8
0
 10
244.33
 20
77.5
 11
244.045
 21
77.0611
  0
LINE
  8
0
 10
244.045
 20
77.0611
 11
243.716
 21
76.6543
  0
LINE
  8
0
 10
243.716
 20
76.6543
 11
243.346
 21
76.2843
  0
LINE
  8
0
 10
243.346
 20
76.2843
 11
242.939
 21
75.9549
  0
LINE
  8
0
 10
242.939
 20
75.9549
 11
242.5
 21
75.6699
  0
LINE
  8
0
 10
242.5
 20
75.6699
 11
242.034
 21
75.4323
  0
LINE
  8
0
 10
242.034
 20
75.4323
 11
241.545
 21
75.2447
  0
LINE
  8
0
 10
241.545
 20
75.2447
 11
241.04
 21
75.1093
  0
LINE
  8
0
 10
241.04
 20
75.1093
 11
240.523
 21
75.0274
  0
LINE
  8
0
 10
240.523
 20
75.0274
 11
240
 21
75
  0
LINE
  8
0
 10
240
 20
75
 11
239.477
 21
75.0274
  0
LINE
  8
0
 10
-100.186
 20
77.7577
 11
-100.431
 21
77.7917
  0
LINE
  8
0
 10
-100.431
 20
77.7917
 11
-100.672
 21
77.8526
  0
LINE
  8
0
 10
-100.672
 20
77.8526
 11
-100.904
 21
77.9395
  0
LINE
  8
0
 10
-100.904
 20
77.9395
 11
-101.125
 21
78.0514
  0
LINE
  8
0
 10
-101.125
 20
78.0514
 11
-101.333
 21
78.187
  0
LINE
  8
0
 10
-101.333
 20
78.187
 11
-101.524
 21
78.3446
  0
LINE
  8
0
 10
-101.524
 20
78.3446
 11
-101.697
 21
78.5223
  0
LINE
  8
0
 10
-101.697
 20
78.5223
 11
-101.849
 21
78.7179
  0
LINE
  8
0
 10
-101.849
 20
78.7179
 11
-101.979
 21
78.9291
  0
LINE
  8
0
 10
-101.979
 20
78.9291
 11
-102.085
 21
79.1533
  0
LINE
  8
0
 10
-102.085
 20
79.1533
 11
-102.165
 21
79.3878
  0
LINE
  8
0
 10
-102.165
 20
79.3878
 11
-102.219
 21
79.6297
  0
LINE
  8
0
 10
-102.219
 20
79.6297
 11
-102.247
 21
79.8761
  0
LINE
  8
0
 10
-102.247
 20
79.8761
 11
-102.247
 21
80.1239
  0
LINE
  8
0
 10
-102.247
 20
80.1239
 11
-102.219
 21
80.3703
  0
LINE
  8
0
 10
-102.219
 20
80.3703
 11
-102.165
 21
80.6122
  0
LINE
  8
0
 10
-102.165
 20
80.6122
 11
-102.085
 21
80.8467
  0
LINE
  8
0
 10
-102.085
 20
80.8467
 11
-101.979
 21
81.0709
  0
LINE
  8
0
 10
-101.979
 20
81.0709
 11
-101.849
 21
81.2821
  0
LINE
  8
0
 10
-101.849
 20
81.2821
 11
-101.697
 21
81.4777
  0
LINE
  8
0
 10
-101.697
 20
81.4777
 11
-101.524
 21
81.6554
  0
LINE
  8
0
 10
-101.524
 20
81.6554
 11
-101.333
 21
81.813
  0
LINE
  8
0
 10
-101.333
 20
81.813
 11
-101.125
 21
81.9485
  0
LINE
  8
0
 10
-101.125
 20
81.9485
 11
-100.904
 21
82.0605
  0
LINE
  8
0
 10
-100.904
 20
82.0605
 11
-100.672
 21
82.1474
  0
LINE
  8
0
 10
-100.672
 20
82.1474
 11
-100.431
 21
82.2083
  0
LINE
  8
0
 10
-100.431
 20
82.2083
 11
-100.186
 21
82.2423
  0
LINE
  8
0
 10
-100.186
 20
82.2423
 11
-99.938
 21
82.2491
  0
LINE
  8
0
 10
-99.938
 20
82.2491
 11
-99.6909
 21
82.2287
  0
LINE
  8
0
 10
-99.6909
 20
82.2287
 11
-99.4476
 21
82.1812
  0
LINE
  8
0
 10
-99.4476
 20
82.1812
 11
-99.2111
 21
82.1071
  0
LINE
  8
0
 10
-99.2111
 20
82.1071
 11
-98.984
 21
82.0076
  0
LINE
  8
0
 10
-98.984
 20
82.0076
 11
-98.7694
 21
81.8836
  0
LINE
  8
0
 10
-98.7694
 20
81.8836
 11
-98.5696
 21
81.7368
  0
LINE
  8
0
 10
-98.5696
 20
81.7368
 11
-98.3872
 21
81.5689
  0
LINE
  8
0
 10
-98.3872
 20
81.5689
 11
-98.2244
 21
81.382
  0
LINE
  8
0
 10
-98.2244
 20
81.382
 11
-98.0832
 21
81.1783
  0
LINE
  8
0
 10
-98.0832
 20
81.1783
 11
-97.9652
 21
80.9602
  0
LINE
  8
0
 10
-97.9652
 20
80.9602
 11
-97.8719
 21
80.7306
  0
LINE
  8
0
 10
-97.8719
 20
80.7306
 11
-97.8045
 21
80.492
  0
LINE
  8
0
 10
-97.8045
 20
80.492
 11
-97.7637
 21
80.2475
  0
LINE
  8
0
 10
-97.7637
 20
80.2475
 11
-97.75
 21
80
  0
LINE
  8
0
 10
-97.75
 20
80
 11
-97.7637
 21
79.7525
  0
LINE
  8
0
 10
-97.7637
 20
79.7525
 11
-97.8045
 21
79.508
  0
LINE
  8
0
 10
-97.8045
 20
79.508
 11
-97.8719
 21
79.2694
  0
LINE
  8
0
 10
-97.8719
 20
79.2694
 11
-97.9652
 21
79.0397
  0
LINE
  8
0
 10
-97.9652
 20
79.0397
 11
-98.0832
 21
78.8217
  0
LINE
  8
0
 10
-98.0832
 20
78.8217
 11
-98.2244
 21
78.618
  0
LINE
  8
0
 10
-98.2244
 20
78.618
 11
-98.3872
 21
78.4311
  0
LINE
  8
0
 10
-98.3872
 20
78.4311
 11
-98.5696
 21
78.2632
  0
LINE
  8
0
 10
-98.5696
 20
78.2632
 11
-98.7694
 21
78.1164
  0
LINE
  8
0
 10
-98.7694
 20
78.1164
 11
-98.984
 21
77.9924
  0
LINE
  8
0
 10
-98.984
 20
77.9924
 11
-99.2111
 21
77.8929
  0
LINE
  8
0
 10
-99.2111
 20
77.8929
 11
-99.4476
 21
77.8188
  0
LINE
  8
0
 10
-99.4476
 20
77.8188
 11
-99.6909
 21
77.7713
  0
LINE
  8
0
 10
-99.6909
 20
77.7713
 11
-99.938
 21
77.7509
  0
LINE
  8
0
 10
-99.938
 20
77.7509
 11
-100.186
 21
77.7577
  0
LINE
  8
0
 10
99.8142
 20
77.7577
 11
99.5686
 21
77.7917
  0
LINE
  8
0
 10
99.5686
 20
77.7917
 11
99.3283
 21
77.8526
  0
LINE
  8
0
 10
99.3283
 20
77.8526
 11
99.0962
 21
77.9395
  0
LINE
  8
0
 10
99.0962
 20
77.9395
 11
98.875
 21
78.0514
  0
LINE
  8
0
 10
98.875
 20
78.0514
 11
98.6675
 21
78.187
  0
LINE
  8
0
 10
98.6675
 20
78.187
 11
98.4761
 21
78.3446
  0
LINE
  8
0
 10
98.4761
 20
78.3446
 11
98.3033
 21
78.5223
  0
LINE
  8
0
 10
98.3033
 20
78.5223
 11
98.151
 21
78.7179
  0
LINE
  8
0
 10
98.151
 20
78.7179
 11
98.0212
 21
78.9291
  0
LINE
  8
0
 10
98.0212
 20
78.9291
 11
97.9154
 21
79.1533
  0
LINE
  8
0
 10
97.9154
 20
79.1533
 11
97.8349
 21
79.3878
  0
LINE
  8
0
 10
97.8349
 20
79.3878
 11
97.7807
 21
79.6297
  0
LINE
  8
0
 10
97.7807
 20
79.6297
 11
97.7534
 21
79.8761
  0
LINE
  8
0
 10
97.7534
 20
79.8761
 11
97.7534
 21
80.1239
  0
LINE
  8
0
 10
97.7534
 20
80.1239
 11
97.7807
 21
80.3703
  0
LINE
  8
0
 10
97.7807
 20
80.3703
 11
97.8349
 21
80.6122
  0
LINE
  8
0
 10
97.8349
 20
80.6122
 11
97.9154
 21
80.8467
  0
LINE
  8
0
 10
97.9154
 20
80.8467
 11
98.0212
 21
81.0709
  0
LINE
  8
0
 10
98.0212
 20
81.0709
 11
98.151
 21
81.2821
  0
LINE
  8
0
 10
98.151
 20
81.2821
 11
98.3033
 21
81.4777
  0
LINE
  8
0
 10
98.3033
 20
81.4777
 11
98.4761
 21
81.6554
  0
LINE
  8
0
 10
98.4761
 20
81.6554
 11
98.6675
 21
81.813
  0
LINE
  8
0
 10
98.6675
 20
81.813
 11
98.875
 21
81.9485
  0
LINE
  8
0
 10
98.875
 20
81.9485
 11
99.0962
 21
82.0605
  0
LINE
  8
0
 10
99.0962
 20
82.0605
 11
99.3283
 21
82.1474
  0
LINE
  8
0
 10
99.3283
 20
82.1474
 11
99.5686
 21
82.2083
  0
LINE
  8
0
 10
99.5686
 20
82.2083
 11
99.8142
 21
82.2423
  0
LINE
  8
0
 10
99.8142
 20
82.2423
 11
100.062
 21
82.2491
  0
LINE
  8
0
 10
100.062
 20
82.2491
 11
100.309
 21
82.2287
  0
LINE
  8
0
 10
100.309
 20
82.2287
 11
100.552
 21
82.1812
  0
LINE
  8
0
 10
100.552
 20
82.1812
 11
100.789
 21
82.1071
  0
LINE
  8
0
 10
100.789
 20
82.1071
 11
101.016
 21
82.0076
  0
LINE
  8
0
 10
101.016
 20
82.0076
 11
101.231
 21
81.8836
  0
LINE
  8
0
 10
101.231
 20
81.8836
 11
101.43
 21
81.7368
  0
LINE
  8
0
 10
101.43
 20
81.7368
 11
101.613
 21
81.5689
  0
LINE
  8
0
 10
101.613
 20
81.5689
 11
101.776
 21
81.382
  0
LINE
  8
0
 10
101.776
 20
81.382
 11
101.917
 21
81.1783
  0
LINE
  8
0
 10
101.917
 20
81.1783
 11
102.035
 21
80.9602
  0
LINE
  8
0
 10
102.035
 20
80.9602
 11
102.128
 21
80.7306
  0
LINE
  8
0
 10
102.128
 20
80.7306
 11
102.196
 21
80.492
  0
LINE
  8
0
 10
102.196
 20
80.492
 11
102.236
 21
80.2475
  0
LINE
  8
0
 10
102.236
 20
80.2475
 11
102.25
 21
80
  0
LINE
  8
0
 10
102.25
 20
80
 11
102.236
 21
79.7525
  0
LINE
  8
0
 10
102.236
 20
79.7525
 11
102.196
 21
79.508
  0
LINE
  8
0
 10
102.196
 20
79.508
 11
102.128
 21
79.2694
  0
LINE
  8
0
 10
102.128
 20
79.2694
 11
102.035
 21
79.0397
  0
LINE
  8
0
 10
102.035
 20
79.0397
 11
101.917
 21
78.8217
  0
LINE
  8
0
 10
101.917
 20
78.8217
 11
101.776
 21
78.618
  0
LINE
  8
0
 10
101.776
 20
78.618
 11
101.613
 21
78.4311
  0
LINE
  8
0
 10
101.613
 20
78.4311
 11
101.43
 21
78.2632
  0
LINE
  8
0
 10
101.43
 20
78.2632
 11
101.231
 21
78.1164
  0
LINE
  8
0
 10
101.231
 20
78.1164
 11
101.016
 21
77.9924
  0
LINE
  8
0
 10
101.016
 20
77.9924
 11
100.789
 21
77.8929
  0
LINE
  8
0
 10
100.789
 20
77.8929
 11
100.552
 21
77.8188
  0
LINE
  8
0
 10
100.552
 20
77.8188
 11
100.309
 21
77.7713
  0
LINE
  8
0
 10
100.309
 20
77.7713
 11
100.062
 21
77.7509
  0
LINE
  8
0
 10
100.062
 20
77.7509
 11
99.8142
 21
77.7577
  0
LINE
  8
0
 10
199.814
 20
77.7577
 11
199.569
 21
77.7917
  0
LINE
  8
0
 10
199.569
 20
77.7917
 11
199.328
 21
77.8526
  0
LINE
  8
0
 10
199.328
 20
77.8526
 11
199.096
 21
77.9395
  0
LINE
  8
0
 10
199.096
 20
77.9395
 11
198.875
 21
78.0514
  0
LINE
  8
0
 10
198.875
 20
78.0514
 11
198.667
 21
78.187
  0
LINE
  8
0
 10
198.667
 20
78.187
 11
198.476
 21
78.3446
  0
LINE
  8
0
 10
198.476
 20
78.3446
 11
198.303
 21
78.5223
  0
LINE
  8
0
 10
198.303
 20
78.5223
 11
198.151
 21
78.7179
  0
LINE
  8
0
 10
198.151
 20
78.7179
 11
198.021
 21
78.9291
  0
LINE
  8
0
 10
198.021
 20
78.9291
 11
197.915
 21
79.1533
  0
LINE
  8
0
 10
197.915
 20
79.1533
 11
197.835
 21
79.3878
  0
LINE
  8
0
 10
197.835
 20
79.3878
 11
197.781
 21
79.6297
  0
LINE
  8
0
 10
197.781
 20
79.6297
 11
197.753
 21
79.8761
  0
LINE
  8
0
 10
197.753
 20
79.8761
 11
197.753
 21
80.1239
  0
LINE
  8
0
 10
197.753
 20
80.1239
 11
197.781
 21
80.3703
  0
LINE
  8
0
 10
197.781
 20
80.3703
 11
197.835
 21
80.6122
  0
LINE
  8
0
 10
197.835
 20
80.6122
 11
197.915
 21
80.8467
  0
LINE
  8
0
 10
197.915
 20
80.8467
 11
198.021
 21
81.0709
  0
LINE
  8
0
 10
198.021
 20
81.0709
 11
198.151
 21
81.2821
  0
LINE
  8
0
 10
198.151
 20
81.2821
 11
198.303
 21
81.4777
  0
LINE
  8
0
 10
198.303
 20
81.4777
 11
198.476
 21
81.6554
  0
LINE
  8
0
 10
198.476
 20
81.6554
 11
198.667
 21
81.813
  0
LINE
  8
0
 10
198.667
 20
81.813
 11
198.875
 21
81.9485
  0
LINE
  8
0
 10
198.875
 20
81.9485
 11
199.096
 21
82.0605
  0
LINE
  8
0
 10
199.096
 20
82.0605
 11
199.328
 21
82.1474
  0
LINE
  8
0
 10
199.328
 20
82.1474
 11
199.569
 21
82.2083
  0
LINE
  8
0
 10
199.569
 20
82.2083
 11
199.814
 21
82.2423
  0
LINE
  8
0
 10
199.814
 20
82.2423
 11
200.062
 21
82.2491
  0
LINE
  8
0
 10
200.062
 20
82.2491
 11
200.309
 21
82.2287
  0
LINE
  8
0
 10
200.309
 20
82.2287
 11
200.552
 21
82.1812
  0
LINE
  8
0
 10
200.552
 20
82.1812
 11
200.789
 21
82.1071
  0
LINE
  8
0
 10
200.789
 20
82.1071
 11
201.016
 21
82.0076
  0
LINE
  8
0
 10
201.016
 20
82.0076
 11
201.231
 21
81.8836
  0
LINE
  8
0
 10
201.231
 20
81.8836
 11
201.43
 21
81.7368
  0
LINE
  8
0
 10
201.43
 20
81.7368
 11
201.613
 21
81.5689
  0
LINE
  8
0
 10
201.613
 20
81.5689
 11
201.776
 21
81.382
  0
LINE
  8
0
 10
201.776
 20
81.382
 11
201.917
 21
81.1783
  0
LINE
  8
0
 10
201.917
 20
81.1783
 11
202.035
 21
80.9602
  0
LINE
  8
0
 10
202.035
 20
80.9602
 11
202.128
 21
80.7306
  0
LINE
  8
0
 10
202.128
 20
80.7306
 11
202.196
 21
80.492
  0
LINE
  8
0
 10
202.196
 20
80.492
 11
202.236
 21
80.2475
  0
LINE
  8
0
 10
202.236
 20
80.2475
 11
202.25
 21
80
  0
LINE
  8
0
 10
202.25
 20
80
 11
202.236
 21
79.7525
  0
LINE
  8
0
 10
202.236
 20
79.7525
 11
202.196
 21
79.508
  0
LINE
  8
0
 10
202.196
 20
79.508
 11
202.128
 21
79.2694
  0
LINE
  8
0
 10
202.128
 20
79.2694
 11
202.035
 21
79.0397
  0
LINE
  8
0
 10
202.035
 20
79.0397
 11
201.917
 21
78.8217
  0
LINE
  8
0
 10
201.917
 20
78.8217
 11
201.776
 21
78.618
  0
LINE
  8
0
 10
201.776
 20
78.618
 11
201.613
 21
78.4311
  0
LINE
  8
0
 10
201.613
 20
78.4311
 11
201.43
 21
78.2632
  0
LINE
  8
0
 10
201.43
 20
78.2632
 11
201.231
 21
78.1164
  0
LINE
  8
0
 10
201.231
 20
78.1164
 11
201.016
 21
77.9924
  0
LINE
  8
0
 10
201.016
 20
77.9924
 11
200.789
 21
77.8929
  0
LINE
  8
0
 10
200.789
 20
77.8929
 11
200.552
 21
77.8188
  0
LINE
  8
0
 10
200.552
 20
77.8188
 11
200.309
 21
77.7713
  0
LINE
  8
0
 10
200.309
 20
77.7713
 11
200.062
 21
77.7509
  0
LINE
  8
0
 10
200.062
 20
77.7509
 11
199.814
 21
77.7577
  0
LINE
  8
0
 10
-200.186
 20
77.7577
 11
-200.431
 21
77.7917
  0
LINE
  8
0
 10
-200.431
 20
77.7917
 11
-200.672
 21
77.8526
  0
LINE
  8
0
 10
-200.672
 20
77.8526
 11
-200.904
 21
77.9395
  0
LINE
  8
0
 10
-200.904
 20
77.9395
 11
-201.125
 21
78.0514
  0
LINE
  8
0
 10
-201.125
 20
78.0514
 11
-201.333
 21
78.187
  0
LINE
  8
0
 10
-201.333
 20
78.187
 11
-201.524
 21
78.3446
  0
LINE
  8
0
 10
-201.524
 20
78.3446
 11
-201.697
 21
78.5223
  0
LINE
  8
0
 10
-201.697
 20
78.5223
 11
-201.849
 21
78.7179
  0
LINE
  8
0
 10
-201.849
 20
78.7179
 11
-201.979
 21
78.9291
  0
LINE
  8
0
 10
-201.979
 20
78.9291
 11
-202.085
 21
79.1533
  0
LINE
  8
0
 10
-202.085
 20
79.1533
 11
-202.165
 21
79.3878
  0
LINE
  8
0
 10
-202.165
 20
79.3878
 11
-202.219
 21
79.6297
  0
LINE
  8
0
 10
-202.219
 20
79.6297
 11
-202.247
 21
79.8761
  0
LINE
  8
0
 10
-202.247
 20
79.8761
 11
-202.247
 21
80.1239
  0
LINE
  8
0
 10
-202.247
 20
80.1239
 11
-202.219
 21
80.3703
  0
LINE
  8
0
 10
-202.219
 20
80.3703
 11
-202.165
 21
80.6122
  0
LINE
  8
0
 10
-202.165
 20
80.6122
 11
-202.085
 21
80.8467
  0
LINE
  8
0
 10
-202.085
 20
80.8467
 11
-201.979
 21
81.0709
  0
LINE
  8
0
 10
-201.979
 20
81.0709
 11
-201.849
 21
81.2821
  0
LINE
  8
0
 10
-201.849
 20
81.2821
 11
-201.697
 21
81.4777
  0
LINE
  8
0
 10
-201.697
 20
81.4777
 11
-201.524
 21
81.6554
  0
LINE
  8
0
 10
-201.524
 20
81.6554
 11
-201.333
 21
81.813
  0
LINE
  8
0
 10
-201.333
 20
81.813
 11
-201.125
 21
81.9485
  0
LINE
  8
0
 10
-201.125
 20
81.9485
 11
-200.904
 21
82.0605
  0
LINE
  8
0
 10
-200.904
 20
82.0605
 11
-200.672
 21
82.1474
  0
LINE
  8
0
 10
-200.672
 20
82.1474
 11
-200.431
 21
82.2083
  0
LINE
  8
0
 10
-200.431
 20
82.2083
 11
-200.186
 21
82.2423
  0
LINE
  8
0
 10
-200.186
 20
82.2423
 11
-199.938
 21
82.2491
  0
LINE
  8
0
 10
-199.938
 20
82.2491
 11
-199.691
 21
82.2287
  0
LINE
  8
0
 10
-199.691
 20
82.2287
 11
-199.448
 21
82.1812
  0
LINE
  8
0
 10
-199.448
 20
82.1812
 11
-199.211
 21
82.1071
  0
LINE
  8
0
 10
-199.211
 20
82.1071
 11
-198.984
 21
82.0076
  0
LINE
  8
0
 10
-198.984
 20
82.0076
 11
-198.769
 21
81.8836
  0
LINE
  8
0
 10
-198.769
 20
81.8836
 11
-198.57
 21
81.7368
  0
LINE
  8
0
 10
-198.57
 20
81.7368
 11
-198.387
 21
81.5689
  0
LINE
  8
0
 10
-198.387
 20
81.5689
 11
-198.224
 21
81.382
  0
LINE
  8
0
 10
-198.224
 20
81.382
 11
-198.083
 21
81.1783
  0
LINE
  8
0
 10
-198.083
 20
81.1783
 11
-197.965
 21
80.9602
  0
LINE
  8
0
 10
-197.965
 20
80.9602
 11
-197.872
 21
80.7306
  0
LINE
  8
0
 10
-197.872
 20
80.7306
 11
-197.804
 21
80.492
  0
LINE
  8
0
 10
-197.804
 20
80.492
 11
-197.764
 21
80.2475
  0
LINE
  8
0
 10
-197.764
 20
80.2475
 11
-197.75
 21
80
  0
LINE
  8
0
 10
-197.75
 20
80
 11
-197.764
 21
79.7525
  0
LINE
  8
0
 10
-197.764
 20
79.7525
 11
-197.804
 21
79.508
  0
LINE
  8
0
 10
-197.804
 20
79.508
 11
-197.872
 21
79.2694
  0
LINE
  8
0
 10
-197.872
 20
79.2694
 11
-197.965
 21
79.0397
  0
LINE
  8
0
 10
-197.965
 20
79.0397
 11
-198.083
 21
78.8217
  0
LINE
  8
0
 10
-198.083
 20
78.8217
 11
-198.224
 21
78.618
  0
LINE
  8
0
 10
-198.224
 20
78.618
 11
-198.387
 21
78.4311
  0
LINE
  8
0
 10
-198.387
 20
78.4311
 11
-198.57
 21
78.2632
  0
LINE
  8
0
 10
-198.57
 20
78.2632
 11
-198.769
 21
78.1164
  0
LINE
  8
0
 10
-198.769
 20
78.1164
 11
-198.984
 21
77.9924
  0
LINE
  8
0
 10
-198.984
 20
77.9924
 11
-199.211
 21
77.8929
  0
LINE
  8
0
 10
-199.211
 20
77.8929
 11
-199.448
 21
77.8188
  0
LINE
  8
0
 10
-199.448
 20
77.8188
 11
-199.691
 21
77.7713
  0
LINE
  8
0
 10
-199.691
 20
77.7713
 11
-199.938
 21
77.7509
  0
LINE
  8
0
 10
-199.938
 20
77.7509
 11
-200.186
 21
77.7577
  0
LINE
  8
0
 10
-0.185791
 20
77.7577
 11
-0.431335
 21
77.7917
  0
LINE
  8
0
 10
-0.431335
 20
77.7917
 11
-0.671646
 21
77.8526
  0
LINE
  8
0
 10
-0.671646
 20
77.8526
 11
-0.903809
 21
77.9395
  0
LINE
  8
0
 10
-0.903809
 20
77.9395
 11
-1.125
 21
78.0514
  0
LINE
  8
0
 10
-1.125
 20
78.0514
 11
-1.33252
 21
78.187
  0
LINE
  8
0
 10
-1.33252
 20
78.187
 11
-1.52388
 21
78.3446
  0
LINE
  8
0
 10
-1.52388
 20
78.3446
 11
-1.69673
 21
78.5223
  0
LINE
  8
0
 10
-1.69673
 20
78.5223
 11
-1.849
 21
78.7179
  0
LINE
  8
0
 10
-1.849
 20
78.7179
 11
-1.97881
 21
78.9291
  0
LINE
  8
0
 10
-1.97881
 20
78.9291
 11
-2.08461
 21
79.1533
  0
LINE
  8
0
 10
-2.08461
 20
79.1533
 11
-2.1651
 21
79.3878
  0
LINE
  8
0
 10
-2.1651
 20
79.3878
 11
-2.2193
 21
79.6297
  0
LINE
  8
0
 10
-2.2193
 20
79.6297
 11
-2.24658
 21
79.8761
  0
LINE
  8
0
 10
-2.24658
 20
79.8761
 11
-2.24658
 21
80.1239
  0
LINE
  8
0
 10
-2.24658
 20
80.1239
 11
-2.2193
 21
80.3703
  0
LINE
  8
0
 10
-2.2193
 20
80.3703
 11
-2.1651
 21
80.6122
  0
LINE
  8
0
 10
-2.1651
 20
80.6122
 11
-2.08461
 21
80.8467
  0
LINE
  8
0
 10
-2.08461
 20
80.8467
 11
-1.97881
 21
81.0709
  0
LINE
  8
0
 10
-1.97881
 20
81.0709
 11
-1.849
 21
81.2821
  0
LINE
  8
0
 10
-1.849
 20
81.2821
 11
-1.69673
 21
81.4777
  0
LINE
  8
0
 10
-1.69673
 20
81.4777
 11
-1.52388
 21
81.6554
  0
LINE
  8
0
 10
-1.52388
 20
81.6554
 11
-1.33252
 21
81.813
  0
LINE
  8
0
 10
-1.33252
 20
81.813
 11
-1.125
 21
81.9485
  0
LINE
  8
0
 10
-1.125
 20
81.9485
 11
-0.903809
 21
82.0605
  0
LINE
  8
0
 10
-0.903809
 20
82.0605
 11
-0.671646
 21
82.1474
  0
LINE
  8
0
 10
-0.671646
 20
82.1474
 11
-0.431335
 21
82.2083
  0
LINE
  8
0
 10
-0.431335
 20
82.2083
 11
-0.185791
 21
82.2423
  0
LINE
  8
0
 10
-0.185791
 20
82.2423
 11
0.0619965
 21
82.2491
  0
LINE
  8
0
 10
0.0619965
 20
82.2491
 11
0.309036
 21
82.2287
  0
LINE
  8
0
 10
0.309036
 20
82.2287
 11
0.552338
 21
82.1812
  0
LINE
  8
0
 10
0.552338
 20
82.1812
 11
0.788925
 21
82.1071
  0
LINE
  8
0
 10
0.788925
 20
82.1071
 11
1.01595
 21
82.0076
  0
LINE
  8
0
 10
1.01595
 20
82.0076
 11
1.23062
 21
81.8836
  0
LINE
  8
0
 10
1.23062
 20
81.8836
 11
1.43037
 21
81.7368
  0
LINE
  8
0
 10
1.43037
 20
81.7368
 11
1.61275
 21
81.5689
  0
LINE
  8
0
 10
1.61275
 20
81.5689
 11
1.77556
 21
81.382
  0
LINE
  8
0
 10
1.77556
 20
81.382
 11
1.91681
 21
81.1783
  0
LINE
  8
0
 10
1.91681
 20
81.1783
 11
2.03479
 21
80.9602
  0
LINE
  8
0
 10
2.03479
 20
80.9602
 11
2.12808
 21
80.7306
  0
LINE
  8
0
 10
2.12808
 20
80.7306
 11
2.19554
 21
80.492
  0
LINE
  8
0
 10
2.19554
 20
80.492
 11
2.23634
 21
80.2475
  0
LINE
  8
0
 10
2.23634
 20
80.2475
 11
2.25
 21
80
  0
LINE
  8
0
 10
2.25
 20
80
 11
2.23634
 21
79.7525
  0
LINE
  8
0
 10
2.23634
 20
79.7525
 11
2.19554
 21
79.508
  0
LINE
  8
0
 10
2.19554
 20
79.508
 11
2.12808
 21
79.2694
  0
LINE
  8
0
 10
2.12808
 20
79.2694
 11
2.03479
 21
79.0397
  0
LINE
  8
0
 10
2.03479
 20
79.0397
 11
1.91681
 21
78.8217
  0
LINE
  8
0
 10
1.91681
 20
78.8217
 11
1.77556
 21
78.618
  0
LINE
  8
0
 10
1.77556
 20
78.618
 11
1.61275
 21
78.4311
  0
LINE
  8
0
 10
1.61275
 20
78.4311
 11
1.43037
 21
78.2632
  0
LINE
  8
0
 10
1.43037
 20
78.2632
 11
1.23062
 21
78.1164
  0
LINE
  8
0
 10
1.23062
 20
78.1164
 11
1.01595
 21
77.9924
  0
LINE
  8
0
 10
1.01595
 20
77.9924
 11
0.788925
 21
77.8929
  0
LINE
  8
0
 10
0.788925
 20
77.8929
 11
0.552338
 21
77.8188
  0
LINE
  8
0
 10
0.552338
 20
77.8188
 11
0.309036
 21
77.7713
  0
LINE
  8
0
 10
0.309036
 20
77.7713
 11
0.0619965
 21
77.7509
  0
LINE
  8
0
 10
0.0619965
 20
77.7509
 11
-0.185791
 21
77.7577
  0
LINE
  8
0
 10
-240.309
 20
37.7713
 11
-240.552
 21
37.8188
  0
LINE
  8
0
 10
-240.552
 20
37.8188
 11
-240.789
 21
37.8928
  0
LINE
  8
0
 10
-240.789
 20
37.8928
 11
-241.016
 21
37.9924
  0
LINE
  8
0
 10
-241.016
 20
37.9924
 11
-241.231
 21
38.1164
  0
LINE
  8
0
 10
-241.231
 20
38.1164
 11
-241.43
 21
38.2632
  0
LINE
  8
0
 10
-241.43
 20
38.2632
 11
-241.613
 21
38.4311
  0
LINE
  8
0
 10
-241.613
 20
38.4311
 11
-241.776
 21
38.618
  0
LINE
  8
0
 10
-241.776
 20
38.618
 11
-241.917
 21
38.8217
  0
LINE
  8
0
 10
-241.917
 20
38.8217
 11
-242.035
 21
39.0397
  0
LINE
  8
0
 10
-242.035
 20
39.0397
 11
-242.128
 21
39.2694
  0
LINE
  8
0
 10
-242.128
 20
39.2694
 11
-242.196
 21
39.508
  0
LINE
  8
0
 10
-242.196
 20
39.508
 11
-242.236
 21
39.7525
  0
LINE
  8
0
 10
-242.236
 20
39.7525
 11
-242.25
 21
40
  0
LINE
  8
0
 10
-242.25
 20
40
 11
-242.236
 21
40.2475
  0
LINE
  8
0
 10
-242.236
 20
40.2475
 11
-242.196
 21
40.492
  0
LINE
  8
0
 10
-242.196
 20
40.492
 11
-242.128
 21
40.7306
  0
LINE
  8
0
 10
-242.128
 20
40.7306
 11
-242.035
 21
40.9602
  0
LINE
  8
0
 10
-242.035
 20
40.9602
 11
-241.917
 21
41.1783
  0
LINE
  8
0
 10
-241.917
 20
41.1783
 11
-241.776
 21
41.382
  0
LINE
  8
0
 10
-241.776
 20
41.382
 11
-241.613
 21
41.5689
  0
LINE
  8
0
 10
-241.613
 20
41.5689
 11
-241.43
 21
41.7368
  0
LINE
  8
0
 10
-241.43
 20
41.7368
 11
-241.231
 21
41.8836
  0
LINE
  8
0
 10
-241.231
 20
41.8836
 11
-241.016
 21
42.0076
  0
LINE
  8
0
 10
-241.016
 20
42.0076
 11
-240.789
 21
42.1071
  0
LINE
  8
0
 10
-240.789
 20
42.1071
 11
-240.552
 21
42.1812
  0
LINE
  8
0
 10
-240.552
 20
42.1812
 11
-240.309
 21
42.2287
  0
LINE
  8
0
 10
-240.309
 20
42.2287
 11
-240.062
 21
42.2491
  0
LINE
  8
0
 10
-240.062
 20
42.2491
 11
-239.814
 21
42.2423
  0
LINE
  8
0
 10
-239.814
 20
42.2423
 11
-239.569
 21
42.2083
  0
LINE
  8
0
 10
-239.569
 20
42.2083
 11
-239.328
 21
42.1474
  0
LINE
  8
0
 10
-239.328
 20
42.1474
 11
-239.096
 21
42.0605
  0
LINE
  8
0
 10
-239.096
 20
42.0605
 11
-238.875
 21
41.9485
  0
LINE
  8
0
 10
-238.875
 20
41.9485
 11
-238.667
 21
41.813
  0
LINE
  8
0
 10
-238.667
 20
41.813
 11
-238.476
 21
41.6554
  0
LINE
  8
0
 10
-238.476
 20
41.6554
 11
-238.303
 21
41.4777
  0
LINE
  8
0
 10
-238.303
 20
41.4777
 11
-238.151
 21
41.2821
  0
LINE
  8
0
 10
-238.151
 20
41.2821
 11
-238.021
 21
41.0709
  0
LINE
  8
0
 10
-238.021
 20
41.0709
 11
-237.915
 21
40.8467
  0
LINE
  8
0
 10
-237.915
 20
40.8467
 11
-237.835
 21
40.6122
  0
LINE
  8
0
 10
-237.835
 20
40.6122
 11
-237.781
 21
40.3703
  0
LINE
  8
0
 10
-237.781
 20
40.3703
 11
-237.753
 21
40.1239
  0
LINE
  8
0
 10
-237.753
 20
40.1239
 11
-237.753
 21
39.8761
  0
LINE
  8
0
 10
-237.753
 20
39.8761
 11
-237.781
 21
39.6297
  0
LINE
  8
0
 10
-237.781
 20
39.6297
 11
-237.835
 21
39.3878
  0
LINE
  8
0
 10
-237.835
 20
39.3878
 11
-237.915
 21
39.1533
  0
LINE
  8
0
 10
-237.915
 20
39.1533
 11
-238.021
 21
38.9291
  0
LINE
  8
0
 10
-238.021
 20
38.9291
 11
-238.151
 21
38.7179
  0
LINE
  8
0
 10
-238.151
 20
38.7179
 11
-238.303
 21
38.5223
  0
LINE
  8
0
 10
-238.303
 20
38.5223
 11
-238.476
 21
38.3446
  0
LINE
  8
0
 10
-238.476
 20
38.3446
 11
-238.667
 21
38.187
  0
LINE
  8
0
 10
-238.667
 20
38.187
 11
-238.875
 21
38.0514
  0
LINE
  8
0
 10
-238.875
 20
38.0514
 11
-239.096
 21
37.9395
  0
LINE
  8
0
 10
-239.096
 20
37.9395
 11
-239.328
 21
37.8526
  0
LINE
  8
0
 10
-239.328
 20
37.8526
 11
-239.569
 21
37.7917
  0
LINE
  8
0
 10
-239.569
 20
37.7917
 11
-239.814
 21
37.7577
  0
LINE
  8
0
 10
-239.814
 20
37.7577
 11
-240.062
 21
37.7509
  0
LINE
  8
0
 10
-240.062
 20
37.7509
 11
-240.309
 21
37.7713
  0
LINE
  8
0
 10
239.814
 20
37.7577
 11
239.569
 21
37.7917
  0
LINE
  8
0
 10
239.569
 20
37.7917
 11
239.328
 21
37.8526
  0
LINE
  8
0
 10
239.328
 20
37.8526
 11
239.096
 21
37.9395
  0
LINE
  8
0
 10
239.096
 20
37.9395
 11
238.875
 21
38.0514
  0
LINE
  8
0
 10
238.875
 20
38.0514
 11
238.667
 21
38.187
  0
LINE
  8
0
 10
238.667
 20
38.187
 11
238.476
 21
38.3446
  0
LINE
  8
0
 10
238.476
 20
38.3446
 11
238.303
 21
38.5223
  0
LINE
  8
0
 10
238.303
 20
38.5223
 11
238.151
 21
38.7179
  0
LINE
  8
0
 10
238.151
 20
38.7179
 11
238.021
 21
38.9291
  0
LINE
  8
0
 10
238.021
 20
38.9291
 11
237.915
 21
39.1533
  0
LINE
  8
0
 10
237.915
 20
39.1533
 11
237.835
 21
39.3878
  0
LINE
  8
0
 10
237.835
 20
39.3878
 11
237.781
 21
39.6297
  0
LINE
  8
0
 10
237.781
 20
39.6297
 11
237.753
 21
39.8761
  0
LINE
  8
0
 10
237.753
 20
39.8761
 11
237.753
 21
40.1239
  0
LINE
  8
0
 10
237.753
 20
40.1239
 11
237.781
 21
40.3703
  0
LINE
  8
0
 10
237.781
 20
40.3703
 11
237.835
 21
40.6122
  0
LINE
  8
0
 10
237.835
 20
40.6122
 11
237.915
 21
40.8467
  0
LINE
  8
0
 10
237.915
 20
40.8467
 11
238.021
 21
41.0709
  0
LINE
  8
0
 10
238.021
 20
41.0709
 11
238.151
 21
41.2821
  0
LINE
  8
0
 10
238.151
 20
41.2821
 11
238.303
 21
41.4777
  0
LINE
  8
0
 10
238.303
 20
41.4777
 11
238.476
 21
41.6554
  0
LINE
  8
0
 10
238.476
 20
41.6554
 11
238.667
 21
41.813
  0
LINE
  8
0
 10
238.667
 20
41.813
 11
238.875
 21
41.9485
  0
LINE
  8
0
 10
238.875
 20
41.9485
 11
239.096
 21
42.0605
  0
LINE
  8
0
 10
239.096
 20
42.0605
 11
239.328
 21
42.1474
  0
LINE
  8
0
 10
239.328
 20
42.1474
 11
239.569
 21
42.2083
  0
LINE
  8
0
 10
239.569
 20
42.2083
 11
239.814
 21
42.2423
  0
LINE
  8
0
 10
239.814
 20
42.2423
 11
240.062
 21
42.2491
  0
LINE
  8
0
 10
240.062
 20
42.2491
 11
240.309
 21
42.2287
  0
LINE
  8
0
 10
240.309
 20
42.2287
 11
240.552
 21
42.1812
  0
LINE
  8
0
 10
240.552
 20
42.1812
 11
240.789
 21
42.1071
  0
LINE
  8
0
 10
240.789
 20
42.1071
 11
241.016
 21
42.0076
  0
LINE
  8
0
 10
241.016
 20
42.0076
 11
241.231
 21
41.8836
  0
LINE
  8
0
 10
241.231
 20
41.8836
 11
241.43
 21
41.7368
  0
LINE
  8
0
 10
241.43
 20
41.7368
 11
241.613
 21
41.5689
  0
LINE
  8
0
 10
241.613
 20
41.5689
 11
241.776
 21
41.382
  0
LINE
  8
0
 10
241.776
 20
41.382
 11
241.917
 21
41.1783
  0
LINE
  8
0
 10
241.917
 20
41.1783
 11
242.035
 21
40.9602
  0
LINE
  8
0
 10
242.035
 20
40.9602
 11
242.128
 21
40.7306
  0
LINE
  8
0
 10
242.128
 20
40.7306
 11
242.196
 21
40.492
  0
LINE
  8
0
 10
242.196
 20
40.492
 11
242.236
 21
40.2475
  0
LINE
  8
0
 10
242.236
 20
40.2475
 11
242.25
 21
40
  0
LINE
  8
0
 10
242.25
 20
40
 11
242.236
 21
39.7525
  0
LINE
  8
0
 10
242.236
 20
39.7525
 11
242.196
 21
39.508
  0
LINE
  8
0
 10
242.196
 20
39.508
 11
242.128
 21
39.2694
  0
LINE
  8
0
 10
242.128
 20
39.2694
 11
242.035
 21
39.0397
  0
LINE
  8
0
 10
242.035
 20
39.0397
 11
241.917
 21
38.8217
  0
LINE
  8
0
 10
241.917
 20
38.8217
 11
241.776
 21
38.618
  0
LINE
  8
0
 10
241.776
 20
38.618
 11
241.613
 21
38.4311
  0
LINE
  8
0
 10
241.613
 20
38.4311
 11
241.43
 21
38.2632
  0
LINE
  8
0
 10
241.43
 20
38.2632
 11
241.231
 21
38.1164
  0
LINE
  8
0
 10
241.231
 20
38.1164
 11
241.016
 21
37.9924
  0
LINE
  8
0
 10
241.016
 20
37.9924
 11
240.789
 21
37.8928
  0
LINE
  8
0
 10
240.789
 20
37.8928
 11
240.552
 21
37.8188
  0
LINE
  8
0
 10
240.552
 20
37.8188
 11
240.309
 21
37.7713
  0
LINE
  8
0
 10
240.309
 20
37.7713
 11
240.062
 21
37.7509
  0
LINE
  8
0
 10
240.062
 20
37.7509
 11
239.814
 21
37.7577
  0
LINE
  8
0
 10
-240.309
 20
-62.2287
 11
-240.552
 21
-62.1812
  0
LINE
  8
0
 10
-240.552
 20
-62.1812
 11
-240.789
 21
-62.1071
  0
LINE
  8
0
 10
-240.789
 20
-62.1071
 11
-241.016
 21
-62.0076
  0
LINE
  8
0
 10
-241.016
 20
-62.0076
 11
-241.231
 21
-61.8836
  0
LINE
  8
0
 10
-241.231
 20
-61.8836
 11
-241.43
 21
-61.7368
  0
LINE
  8
0
 10
-241.43
 20
-61.7368
 11
-241.613
 21
-61.5689
  0
LINE
  8
0
 10
-241.613
 20
-61.5689
 11
-241.776
 21
-61.382
  0
LINE
  8
0
 10
-241.776
 20
-61.382
 11
-241.917
 21
-61.1783
  0
LINE
  8
0
 10
-241.917
 20
-61.1783
 11
-242.035
 21
-60.9602
  0
LINE
  8
0
 10
-242.035
 20
-60.9602
 11
-242.128
 21
-60.7306
  0
LINE
  8
0
 10
-242.128
 20
-60.7306
 11
-242.196
 21
-60.492
  0
LINE
  8
0
 10
-242.196
 20
-60.492
 11
-242.236
 21
-60.2475
  0
LINE
  8
0
 10
-242.236
 20
-60.2475
 11
-242.25
 21
-60
  0
LINE
  8
0
 10
-242.25
 20
-60
 11
-242.236
 21
-59.7525
  0
LINE
  8
0
 10
-242.236
 20
-59.7525
 11
-242.196
 21
-59.508
  0
LINE
  8
0
 10
-242.196
 20
-59.508
 11
-242.128
 21
-59.2694
  0
LINE
  8
0
 10
-242.128
 20
-59.2694
 11
-242.035
 21
-59.0397
  0
LINE
  8
0
 10
-242.035
 20
-59.0397
 11
-241.917
 21
-58.8217
  0
LINE
  8
0
 10
-241.917
 20
-58.8217
 11
-241.776
 21
-58.618
  0
LINE
  8
0
 10
-241.776
 20
-58.618
 11
-241.613
 21
-58.4311
  0
LINE
  8
0
 10
-241.613
 20
-58.4311
 11
-241.43
 21
-58.2632
  0
LINE
  8
0
 10
-241.43
 20
-58.2632
 11
-241.231
 21
-58.1164
  0
LINE
  8
0
 10
-241.231
 20
-58.1164
 11
-241.016
 21
-57.9924
  0
LINE
  8
0
 10
-241.016
 20
-57.9924
 11
-240.789
 21
-57.8928
  0
LINE
  8
0
 10
-240.789
 20
-57.8928
 11
-240.552
 21
-57.8188
  0
LINE
  8
0
 10
-240.552
 20
-57.8188
 11
-240.309
 21
-57.7713
  0
LINE
  8
0
 10
-240.309
 20
-57.7713
 11
-240.062
 21
-57.7509
  0
LINE
  8
0
 10
-240.062
 20
-57.7509
 11
-239.814
 21
-57.7577
  0
LINE
  8
0
 10
-239.814
 20
-57.7577
 11
-239.569
 21
-57.7917
  0
LINE
  8
0
 10
-239.569
 20
-57.7917
 11
-239.328
 21
-57.8526
  0
LINE
  8
0
 10
-239.328
 20
-57.8526
 11
-239.096
 21
-57.9395
  0
LINE
  8
0
 10
-239.096
 20
-57.9395
 11
-238.875
 21
-58.0514
  0
LINE
  8
0
 10
-238.875
 20
-58.0514
 11
-238.667
 21
-58.187
  0
LINE
  8
0
 10
-238.667
 20
-58.187
 11
-238.476
 21
-58.3446
  0
LINE
  8
0
 10
-238.476
 20
-58.3446
 11
-238.303
 21
-58.5223
  0
LINE
  8
0
 10
-238.303
 20
-58.5223
 11
-238.151
 21
-58.7179
  0
LINE
  8
0
 10
-238.151
 20
-58.7179
 11
-238.021
 21
-58.9291
  0
LINE
  8
0
 10
-238.021
 20
-58.9291
 11
-237.915
 21
-59.1533
  0
LINE
  8
0
 10
-237.915
 20
-59.1533
 11
-237.835
 21
-59.3878
  0
LINE
  8
0
 10
-237.835
 20
-59.3878
 11
-237.781
 21
-59.6297
  0
LINE
  8
0
 10
-237.781
 20
-59.6297
 11
-237.753
 21
-59.8761
  0
LINE
  8
0
 10
-237.753
 20
-59.8761
 11
-237.753
 21
-60.1239
  0
LINE
  8
0
 10
-237.753
 20
-60.1239
 11
-237.781
 21
-60.3703
  0
LINE
  8
0
 10
-237.781
 20
-60.3703
 11
-237.835
 21
-60.6122
  0
LINE
  8
0
 10
-237.835
 20
-60.6122
 11
-237.915
 21
-60.8467
  0
LINE
  8
0
 10
-237.915
 20
-60.8467
 11
-238.021
 21
-61.0709
  0
LINE
  8
0
 10
-238.021
 20
-61.0709
 11
-238.151
 21
-61.2821
  0
LINE
  8
0
 10
-238.151
 20
-61.2821
 11
-238.303
 21
-61.4777
  0
LINE
  8
0
 10
-238.303
 20
-61.4777
 11
-238.476
 21
-61.6554
  0
LINE
  8
0
 10
-238.476
 20
-61.6554
 11
-238.667
 21
-61.813
  0
LINE
  8
0
 10
-238.667
 20
-61.813
 11
-238.875
 21
-61.9485
  0
LINE
  8
0
 10
-238.875
 20
-61.9485
 11
-239.096
 21
-62.0605
  0
LINE
  8
0
 10
-239.096
 20
-62.0605
 11
-239.328
 21
-62.1474
  0
LINE
  8
0
 10
-239.328
 20
-62.1474
 11
-239.569
 21
-62.2083
  0
LINE
  8
0
 10
-239.569
 20
-62.2083
 11
-239.814
 21
-62.2423
  0
LINE
  8
0
 10
-239.814
 20
-62.2423
 11
-240.062
 21
-62.2491
  0
LINE
  8
0
 10
-240.062
 20
-62.2491
 11
-240.309
 21
-62.2287
  0
LINE
  8
0
 10
239.814
 20
-62.2423
 11
239.569
 21
-62.2083
  0
LINE
  8
0
 10
239.569
 20
-62.2083
 11
239.328
 21
-62.1474
  0
LINE
  8
0
 10
239.328
 20
-62.1474
 11
239.096
 21
-62.0605
  0
LINE
  8
0
 10
239.096
 20
-62.0605
 11
238.875
 21
-61.9485
  0
LINE
  8
0
 10
238.875
 20
-61.9485
 11
238.667
 21
-61.813
  0
LINE
  8
0
 10
238.667
 20
-61.813
 11
238.476
 21
-61.6554
  0
LINE
  8
0
 10
238.476
 20
-61.6554
 11
238.303
 21
-61.4777
  0
LINE
  8
0
 10
238.303
 20
-61.4777
 11
238.151
 21
-61.2821
  0
LINE
  8
0
 10
238.151
 20
-61.2821
 11
238.021
 21
-61.0709
  0
LINE
  8
0
 10
238.021
 20
-61.0709
 11
237.915
 21
-60.8467
  0
LINE
  8
0
 10
237.915
 20
-60.8467
 11
237.835
 21
-60.6122
  0
LINE
  8
0
 10
237.835
 20
-60.6122
 11
237.781
 21
-60.3703
  0
LINE
  8
0
 10
237.781
 20
-60.3703
 11
237.753
 21
-60.1239
  0
LINE
  8
0
 10
237.753
 20
-60.1239
 11
237.753
 21
-59.8761
  0
LINE
  8
0
 10
237.753
 20
-59.8761
 11
237.781
 21
-59.6297
  0
LINE
  8
0
 10
237.781
 20
-59.6297
 11
237.835
 21
-59.3878
  0
LINE
  8
0
 10
237.835
 20
-59.3878
 11
237.915
 21
-59.1533
  0
LINE
  8
0
 10
237.915
 20
-59.1533
 11
238.021
 21
-58.9291
  0
LINE
  8
0
 10
238.021
 20
-58.9291
 11
238.151
 21
-58.7179
  0
LINE
  8
0
 10
238.151
 20
-58.7179
 11
238.303
 21
-58.5223
  0
LINE
  8
0
 10
238.303
 20
-58.5223
 11
238.476
 21
-58.3446
  0
LINE
  8
0
 10
238.476
 20
-58.3446
 11
238.667
 21
-58.187
  0
LINE
  8
0
 10
238.667
 20
-58.187
 11
238.875
 21
-58.0514
  0
LINE
  8
0
 10
238.875
 20
-58.0514
 11
239.096
 21
-57.9395
  0
LINE
  8
0
 10
239.096
 20
-57.9395
 11
239.328
 21
-57.8526
  0
LINE
  8
0
 10
239.328
 20
-57.8526
 11
239.569
 21
-57.7917
  0
LINE
  8
0
 10
239.569
 20
-57.7917
 11
239.814
 21
-57.7577
  0
LINE
  8
0
 10
239.814
 20
-57.7577
 11
240.062
 21
-57.7509
  0
LINE
  8
0
 10
240.062
 20
-57.7509
 11
240.309
 21
-57.7713
  0
LINE
  8
0
 10
240.309
 20
-57.7713
 11
240.552
 21
-57.8188
  0
LINE
  8
0
 10
240.552
 20
-57.8188
 11
240.789
 21
-57.8928
  0
LINE
  8
0
 10
240.789
 20
-57.8928
 11
241.016
 21
-57.9924
  0
LINE
  8
0
 10
241.016
 20
-57.9924
 11
241.231
 21
-58.1164
  0
LINE
  8
0
 10
241.231
 20
-58.1164
 11
241.43
 21
-58.2632
  0
LINE
  8
0
 10
241.43
 20
-58.2632
 11
241.613
 21
-58.4311
  0
LINE
  8
0
 10
241.613
 20
-58.4311
 11
241.776
 21
-58.618
  0
LINE
  8
0
 10
241.776
 20
-58.618
 11
241.917
 21
-58.8217
  0
LINE
  8
0
 10
241.917
 20
-58.8217
 11
242.035
 21
-59.0397
  0
LINE
  8
0
 10
242.035
 20
-59.0397
 11
242.128
 21
-59.2694
  0
LINE
  8
0
 10
242.128
 20
-59.2694
 11
242.196
 21
-59.508
  0
LINE
  8
0
 10
242.196
 20
-59.508
 11
242.236
 21
-59.7525
  0
LINE
  8
0
 10
242.236
 20
-59.7525
 11
242.25
 21
-60
  0
LINE
  8
0
 10
242.25
 20
-60
 11
242.236
 21
-60.2475
  0
LINE
  8
0
 10
242.236
 20
-60.2475
 11
242.196
 21
-60.492
  0
LINE
  8
0
 10
242.196
 20
-60.492
 11
242.128
 21
-60.7306
  0
LINE
  8
0
 10
242.128
 20
-60.7306
 11
242.035
 21
-60.9602
  0
LINE
  8
0
 10
242.035
 20
-60.9602
 11
241.917
 21
-61.1783
  0
LINE
  8
0
 10
241.917
 20
-61.1783
 11
241.776
 21
-61.382
  0
LINE
  8
0
 10
241.776
 20
-61.382
 11
241.613
 21
-61.5689
  0
LINE
  8
0
 10
241.613
 20
-61.5689
 11
241.43
 21
-61.7368
  0
LINE
  8
0
 10
241.43
 20
-61.7368
 11
241.231
 21
-61.8836
  0
LINE
  8
0
 10
241.231
 20
-61.8836
 11
241.016
 21
-62.0076
  0
LINE
  8
0
 10
241.016
 20
-62.0076
 11
240.789
 21
-62.1071
  0
LINE
  8
0
 10
240.789
 20
-62.1071
 11
240.552
 21
-62.1812
  0
LINE
  8
0
 10
240.552
 20
-62.1812
 11
240.309
 21
-62.2287
  0
LINE
  8
0
 10
240.309
 20
-62.2287
 11
240.062
 21
-62.2491
  0
LINE
  8
0
 10
240.062
 20
-62.2491
 11
239.814
 21
-62.2423
  0
LINE
  8
0
 10
-240.523
 20
-104.973
 11
-241.04
 21
-104.891
  0
LINE
  8
0
 10
-241.04
 20
-104.891
 11
-241.545
 21
-104.755
  0
LINE
  8
0
 10
-241.545
 20
-104.755
 11
-242.034
 21
-104.568
  0
LINE
  8
0
 10
-242.034
 20
-104.568
 11
-242.5
 21
-104.33
  0
LINE
  8
0
 10
-242.5
 20
-104.33
 11
-242.939
 21
-104.045
  0
LINE
  8
0
 10
-242.939
 20
-104.045
 11
-243.346
 21
-103.716
  0
LINE
  8
0
 10
-243.346
 20
-103.716
 11
-243.716
 21
-103.346
  0
LINE
  8
0
 10
-243.716
 20
-103.346
 11
-244.045
 21
-102.939
  0
LINE
  8
0
 10
-244.045
 20
-102.939
 11
-244.33
 21
-102.5
  0
LINE
  8
0
 10
-244.33
 20
-102.5
 11
-244.568
 21
-102.034
  0
LINE
  8
0
 10
-244.568
 20
-102.034
 11
-244.755
 21
-101.545
  0
LINE
  8
0
 10
-244.755
 20
-101.545
 11
-244.891
 21
-101.04
  0
LINE
  8
0
 10
-244.891
 20
-101.04
 11
-244.973
 21
-100.523
  0
LINE
  8
0
 10
-244.973
 20
-100.523
 11
-245
 21
-100
  0
LINE
  8
0
 10
-245
 20
-100
 11
-244.973
 21
-99.4774
  0
LINE
  8
0
 10
-244.973
 20
-99.4774
 11
-244.891
 21
-98.9604
  0
LINE
  8
0
 10
-244.891
 20
-98.9604
 11
-244.755
 21
-98.4549
  0
LINE
  8
0
 10
-244.755
 20
-98.4549
 11
-244.568
 21
-97.9663
  0
LINE
  8
0
 10
-244.568
 20
-97.9663
 11
-244.33
 21
-97.5
  0
LINE
  8
0
 10
-244.33
 20
-97.5
 11
-244.045
 21
-97.0611
  0
LINE
  8
0
 10
-244.045
 20
-97.0611
 11
-243.716
 21
-96.6543
  0
LINE
  8
0
 10
-243.716
 20
-96.6543
 11
-243.346
 21
-96.2843
  0
LINE
  8
0
 10
-243.346
 20
-96.2843
 11
-242.939
 21
-95.9549
  0
LINE
  8
0
 10
-242.939
 20
-95.9549
 11
-242.5
 21
-95.6699
  0
LINE
  8
0
 10
-242.5
 20
-95.6699
 11
-242.034
 21
-95.4323
  0
LINE
  8
0
 10
-242.034
 20
-95.4323
 11
-241.545
 21
-95.2447
  0
LINE
  8
0
 10
-241.545
 20
-95.2447
 11
-241.04
 21
-95.1093
  0
LINE
  8
0
 10
-241.04
 20
-95.1093
 11
-240.523
 21
-95.0274
  0
LINE
  8
0
 10
-240.523
 20
-95.0274
 11
-240
 21
-95
  0
LINE
  8
0
 10
-240
 20
-95
 11
-239.477
 21
-95.0274
  0
LINE
  8
0
 10
-239.477
 20
-95.0274
 11
-238.96
 21
-95.1093
  0
LINE
  8
0
 10
-238.96
 20
-95.1093
 11
-238.455
 21
-95.2447
  0
LINE
  8
0
 10
-238.455
 20
-95.2447
 11
-237.966
 21
-95.4323
  0
LINE
  8
0
 10
-237.966
 20
-95.4323
 11
-237.5
 21
-95.6699
  0
LINE
  8
0
 10
-237.5
 20
-95.6699
 11
-237.061
 21
-95.9549
  0
LINE
  8
0
 10
-237.061
 20
-95.9549
 11
-236.654
 21
-96.2843
  0
LINE
  8
0
 10
-236.654
 20
-96.2843
 11
-236.284
 21
-96.6543
  0
LINE
  8
0
 10
-236.284
 20
-96.6543
 11
-235.955
 21
-97.0611
  0
LINE
  8
0
 10
-235.955
 20
-97.0611
 11
-235.67
 21
-97.5
  0
LINE
  8
0
 10
-235.67
 20
-97.5
 11
-235.432
 21
-97.9663
  0
LINE
  8
0
 10
-235.432
 20
-97.9663
 11
-235.245
 21
-98.4549
  0
LINE
  8
0
 10
-235.245
 20
-98.4549
 11
-235.109
 21
-98.9604
  0
LINE
  8
0
 10
-235.109
 20
-98.9604
 11
-235.027
 21
-99.4774
  0
LINE
  8
0
 10
-235.027
 20
-99.4774
 11
-235
 21
-100
  0
LINE
  8
0
 10
-235
 20
-100
 11
-235.027
 21
-100.523
  0
LINE
  8
0
 10
-235.027
 20
-100.523
 11
-235.109
 21
-101.04
  0
LINE
  8
0
 10
-235.109
 20
-101.04
 11
-235.245
 21
-101.545
  0
LINE
  8
0
 10
-235.245
 20
-101.545
 11
-235.432
 21
-102.034
  0
LINE
  8
0
 10
-235.432
 20
-102.034
 11
-235.67
 21
-102.5
  0
LINE
  8
0
 10
-235.67
 20
-102.5
 11
-235.955
 21
-102.939
  0
LINE
  8
0
 10
-235.955
 20
-102.939
 11
-236.284
 21
-103.346
  0
LINE
  8
0
 10
-236.284
 20
-103.346
 11
-236.654
 21
-103.716
  0
LINE
  8
0
 10
-236.654
 20
-103.716
 11
-237.061
 21
-104.045
  0
LINE
  8
0
 10
-237.061
 20
-104.045
 11
-237.5
 21
-104.33
  0
LINE
  8
0
 10
-237.5
 20
-104.33
 11
-237.966
 21
-104.568
  0
LINE
  8
0
 10
-237.966
 20
-104.568
 11
-238.455
 21
-104.755
  0
LINE
  8
0
 10
-238.455
 20
-104.755
 11
-238.96
 21
-104.891
  0
LINE
  8
0
 10
-238.96
 20
-104.891
 11
-239.477
 21
-104.973
  0
LINE
  8
0
 10
-239.477
 20
-104.973
 11
-240
 21
-105
  0
LINE
  8
0
 10
-240
 20
-105
 11
-240.523
 21
-104.973
  0
LINE
  8
0
 10
239.477
 20
-104.973
 11
238.96
 21
-104.891
  0
LINE
  8
0
 10
238.96
 20
-104.891
 11
238.455
 21
-104.755
  0
LINE
  8
0
 10
238.455
 20
-104.755
 11
237.966
 21
-104.568
  0
LINE
  8
0
 10
237.966
 20
-104.568
 11
237.5
 21
-104.33
  0
LINE
  8
0
 10
237.5
 20
-104.33
 11
237.061
 21
-104.045
  0
LINE
  8
0
 10
237.061
 20
-104.045
 11
236.654
 21
-103.716
  0
LINE
  8
0
 10
236.654
 20
-103.716
 11
236.284
 21
-103.346
  0
LINE
  8
0
 10
236.284
 20
-103.346
 11
235.955
 21
-102.939
  0
LINE
  8
0
 10
235.955
 20
-102.939
 11
235.67
 21
-102.5
  0
LINE
  8
0
 10
235.67
 20
-102.5
 11
235.432
 21
-102.034
  0
LINE
  8
0
 10
235.432
 20
-102.034
 11
235.245
 21
-101.545
  0
LINE
  8
0
 10
235.245
 20
-101.545
 11
235.109
 21
-101.04
  0
LINE
  8
0
 10
235.109
 20
-101.04
 11
235.027
 21
-100.523
  0
LINE
  8
0
 10
235.027
 20
-100.523
 11
235
 21
-100
  0
LINE
  8
0
 10
235
 20
-100
 11
235.027
 21
-99.4774
  0
LINE
  8
0
 10
235.027
 20
-99.4774
 11
235.109
 21
-98.9604
  0
LINE
  8
0
 10
235.109
 20
-98.9604
 11
235.245
 21
-98.4549
  0
LINE
  8
0
 10
235.245
 20
-98.4549
 11
235.432
 21
-97.9663
  0
LINE
  8
0
 10
235.432
 20
-97.9663
 11
235.67
 21
-97.5
  0
LINE
  8
0
 10
235.67
 20
-97.5
 11
235.955
 21
-97.0611
  0
LINE
  8
0
 10
235.955
 20
-97.0611
 11
236.284
 21
-96.6543
  0
LINE
  8
0
 10
236.284
 20
-96.6543
 11
236.654
 21
-96.2843
  0
LINE
  8
0
 10
236.654
 20
-96.2843
 11
237.061
 21
-95.9549
  0
LINE
  8
0
 10
237.061
 20
-95.9549
 11
237.5
 21
-95.6699
  0
LINE
  8
0
 10
237.5
 20
-95.6699
 11
237.966
 21
-95.4323
  0
LINE
  8
0
 10
237.966
 20
-95.4323
 11
238.455
 21
-95.2447
  0
LINE
  8
0
 10
238.455
 20
-95.2447
 11
238.96
 21
-95.1093
  0
LINE
  8
0
 10
238.96
 20
-95.1093
 11
239.477
 21
-95.0274
  0
LINE
  8
0
 10
239.477
 20
-95.0274
 11
240
 21
-95
  0
LINE
  8
0
 10
240
 20
-95
 11
240.523
 21
-95.0274
  0
LINE
  8
0
 10
240.523
 20
-95.0274
 11
241.04
 21
-95.1093
  0
LINE
  8
0
 10
241.04
 20
-95.1093
 11
241.545
 21
-95.2447
  0
LINE
  8
0
 10
241.545
 20
-95.2447
 11
242.034
 21
-95.4323
  0
LINE
  8
0
 10
242.034
 20
-95.4323
 11
242.5
 21
-95.6699
  0
LINE
  8
0
 10
242.5
 20
-95.6699
 11
242.939
 21
-95.9549
  0
LINE
  8
0
 10
242.939
 20
-95.9549
 11
243.346
 21
-96.2843
  0
LINE
  8
0
 10
243.346
 20
-96.2843
 11
243.716
 21
-96.6543
  0
LINE
  8
0
 10
243.716
 20
-96.6543
 11
244.045
 21
-97.0611
  0
LINE
  8
0
 10
244.045
 20
-97.0611
 11
244.33
 21
-97.5
  0
LINE
  8
0
 10
244.33
 20
-97.5
 11
244.568
 21
-97.9663
  0
LINE
  8
0
 10
244.568
 20
-97.9663
 11
244.755
 21
-98.4549
  0
LINE
  8
0
 10
244.755
 20
-98.4549
 11
244.891
 21
-98.9604
  0
LINE
  8
0
 10
244.891
 20
-98.9604
 11
244.973
 21
-99.4774
  0
LINE
  8
0
 10
244.973
 20
-99.4774
 11
245
 21
-100
  0
LINE
  8
0
 10
245
 20
-100
 11
244.973
 21
-100.523
  0
LINE
  8
0
 10
244.973
 20
-100.523
 11
244.891
 21
-101.04
  0
LINE
  8
0
 10
244.891
 20
-101.04
 11
244.755
 21
-101.545
  0
LINE
  8
0
 10
244.755
 20
-101.545
 11
244.568
 21
-102.034
  0
LINE
  8
0
 10
244.568
 20
-102.034
 11
244.33
 21
-102.5
  0
LINE
  8
0
 10
244.33
 20
-102.5
 11
244.045
 21
-102.939
  0
LINE
  8
0
 10
244.045
 20
-102.939
 11
243.716
 21
-103.346
  0
LINE
  8
0
 10
243.716
 20
-103.346
 11
243.346
 21
-103.716
  0
LINE
  8
0
 10
243.346
 20
-103.716
 11
242.939
 21
-104.045
  0
LINE
  8
0
 10
242.939
 20
-104.045
 11
242.5
 21
-104.33
  0
LINE
  8
0
 10
242.5
 20
-104.33
 11
242.034
 21
-104.568
  0
LINE
  8
0
 10
242.034
 20
-104.568
 11
241.545
 21
-104.755
  0
LINE
  8
0
 10
241.545
 20
-104.755
 11
241.04
 21
-104.891
  0
LINE
  8
0
 10
241.04
 20
-104.891
 11
240.523
 21
-104.973
  0
LINE
  8
0
 10
240.523
 20
-104.973
 11
240
 21
-105
  0
LINE
  8
0
 10
240
 20
-105
 11
239.477
 21
-104.973
  0
LINE
  8
0
 10
-200.186
 20
-102.242
 11
-200.431
 21
-102.208
  0
LINE
  8
0
 10
-200.431
 20
-102.208
 11
-200.672
 21
-102.147
  0
LINE
  8
0
 10
-200.672
 20
-102.147
 11
-200.904
 21
-102.06
  0
LINE
  8
0
 10
-200.904
 20
-102.06
 11
-201.125
 21
-101.949
  0
LINE
  8
0
 10
-201.125
 20
-101.949
 11
-201.333
 21
-101.813
  0
LINE
  8
0
 10
-201.333
 20
-101.813
 11
-201.524
 21
-101.655
  0
LINE
  8
0
 10
-201.524
 20
-101.655
 11
-201.697
 21
-101.478
  0
LINE
  8
0
 10
-201.697
 20
-101.478
 11
-201.849
 21
-101.282
  0
LINE
  8
0
 10
-201.849
 20
-101.282
 11
-201.979
 21
-101.071
  0
LINE
  8
0
 10
-201.979
 20
-101.071
 11
-202.085
 21
-100.847
  0
LINE
  8
0
 10
-202.085
 20
-100.847
 11
-202.165
 21
-100.612
  0
LINE
  8
0
 10
-202.165
 20
-100.612
 11
-202.219
 21
-100.37
  0
LINE
  8
0
 10
-202.219
 20
-100.37
 11
-202.247
 21
-100.124
  0
LINE
  8
0
 10
-202.247
 20
-100.124
 11
-202.247
 21
-99.8761
  0
LINE
  8
0
 10
-202.247
 20
-99.8761
 11
-202.219
 21
-99.6297
  0
LINE
  8
0
 10
-202.219
 20
-99.6297
 11
-202.165
 21
-99.3878
  0
LINE
  8
0
 10
-202.165
 20
-99.3878
 11
-202.085
 21
-99.1533
  0
LINE
  8
0
 10
-202.085
 20
-99.1533
 11
-201.979
 21
-98.9291
  0
LINE
  8
0
 10
-201.979
 20
-98.9291
 11
-201.849
 21
-98.7179
  0
LINE
  8
0
 10
-201.849
 20
-98.7179
 11
-201.697
 21
-98.5223
  0
LINE
  8
0
 10
-201.697
 20
-98.5223
 11
-201.524
 21
-98.3446
  0
LINE
  8
0
 10
-201.524
 20
-98.3446
 11
-201.333
 21
-98.187
  0
LINE
  8
0
 10
-201.333
 20
-98.187
 11
-201.125
 21
-98.0514
  0
LINE
  8
0
 10
-201.125
 20
-98.0514
 11
-200.904
 21
-97.9395
  0
LINE
  8
0
 10
-200.904
 20
-97.9395
 11
-200.672
 21
-97.8526
  0
LINE
  8
0
 10
-200.672
 20
-97.8526
 11
-200.431
 21
-97.7917
  0
LINE
  8
0
 10
-200.431
 20
-97.7917
 11
-200.186
 21
-97.7577
  0
LINE
  8
0
 10
-200.186
 20
-97.7577
 11
-199.938
 21
-97.7509
  0
LINE
  8
0
 10
-199.938
 20
-97.7509
 11
-199.691
 21
-97.7713
  0
LINE
  8
0
 10
-199.691
 20
-97.7713
 11
-199.448
 21
-97.8188
  0
LINE
  8
0
 10
-199.448
 20
-97.8188
 11
-199.211
 21
-97.8929
  0
LINE
  8
0
 10
-199.211
 20
-97.8929
 11
-198.984
 21
-97.9924
  0
LINE
  8
0
 10
-198.984
 20
-97.9924
 11
-198.769
 21
-98.1164
  0
LINE
  8
0
 10
-198.769
 20
-98.1164
 11
-198.57
 21
-98.2632
  0
LINE
  8
0
 10
-198.57
 20
-98.2632
 11
-198.387
 21
-98.4311
  0
LINE
  8
0
 10
-198.387
 20
-98.4311
 11
-198.224
 21
-98.618
  0
LINE
  8
0
 10
-198.224
 20
-98.618
 11
-198.083
 21
-98.8217
  0
LINE
  8
0
 10
-198.083
 20
-98.8217
 11
-197.965
 21
-99.0397
  0
LINE
  8
0
 10
-197.965
 20
-99.0397
 11
-197.872
 21
-99.2694
  0
LINE
  8
0
 10
-197.872
 20
-99.2694
 11
-197.804
 21
-99.508
  0
LINE
  8
0
 10
-197.804
 20
-99.508
 11
-197.764
 21
-99.7525
  0
LINE
  8
0
 10
-197.764
 20
-99.7525
 11
-197.75
 21
-100
  0
LINE
  8
0
 10
-197.75
 20
-100
 11
-197.764
 21
-100.248
  0
LINE
  8
0
 10
-197.764
 20
-100.248
 11
-197.804
 21
-100.492
  0
LINE
  8
0
 10
-197.804
 20
-100.492
 11
-197.872
 21
-100.731
  0
LINE
  8
0
 10
-197.872
 20
-100.731
 11
-197.965
 21
-100.96
  0
LINE
  8
0
 10
-197.965
 20
-100.96
 11
-198.083
 21
-101.178
  0
LINE
  8
0
 10
-198.083
 20
-101.178
 11
-198.224
 21
-101.382
  0
LINE
  8
0
 10
-198.224
 20
-101.382
 11
-198.387
 21
-101.569
  0
LINE
  8
0
 10
-198.387
 20
-101.569
 11
-198.57
 21
-101.737
  0
LINE
  8
0
 10
-198.57
 20
-101.737
 11
-198.769
 21
-101.884
  0
LINE
  8
0
 10
-198.769
 20
-101.884
 11
-198.984
 21
-102.008
  0
LINE
  8
0
 10
-198.984
 20
-102.008
 11
-199.211
 21
-102.107
  0
LINE
  8
0
 10
-199.211
 20
-102.107
 11
-199.448
 21
-102.181
  0
LINE
  8
0
 10
-199.448
 20
-102.181
 11
-199.691
 21
-102.229
  0
LINE
  8
0
 10
-199.691
 20
-102.229
 11
-199.938
 21
-102.249
  0
LINE
  8
0
 10
-199.938
 20
-102.249
 11
-200.186
 21
-102.242
  0
LINE
  8
0
 10
-100.186
 20
-102.242
 11
-100.431
 21
-102.208
  0
LINE
  8
0
 10
-100.431
 20
-102.208
 11
-100.672
 21
-102.147
  0
LINE
  8
0
 10
-100.672
 20
-102.147
 11
-100.904
 21
-102.06
  0
LINE
  8
0
 10
-100.904
 20
-102.06
 11
-101.125
 21
-101.949
  0
LINE
  8
0
 10
-101.125
 20
-101.949
 11
-101.333
 21
-101.813
  0
LINE
  8
0
 10
-101.333
 20
-101.813
 11
-101.524
 21
-101.655
  0
LINE
  8
0
 10
-101.524
 20
-101.655
 11
-101.697
 21
-101.478
  0
LINE
  8
0
 10
-101.697
 20
-101.478
 11
-101.849
 21
-101.282
  0
LINE
  8
0
 10
-101.849
 20
-101.282
 11
-101.979
 21
-101.071
  0
LINE
  8
0
 10
-101.979
 20
-101.071
 11
-102.085
 21
-100.847
  0
LINE
  8
0
 10
-102.085
 20
-100.847
 11
-102.165
 21
-100.612
  0
LINE
  8
0
 10
-102.165
 20
-100.612
 11
-102.219
 21
-100.37
  0
LINE
  8
0
 10
-102.219
 20
-100.37
 11
-102.247
 21
-100.124
  0
LINE
  8
0
 10
-102.247
 20
-100.124
 11
-102.247
 21
-99.8761
  0
LINE
  8
0
 10
-102.247
 20
-99.8761
 11
-102.219
 21
-99.6297
  0
LINE
  8
0
 10
-102.219
 20
-99.6297
 11
-102.165
 21
-99.3878
  0
LINE
  8
0
 10
-102.165
 20
-99.3878
 11
-102.085
 21
-99.1533
  0
LINE
  8
0
 10
-102.085
 20
-99.1533
 11
-101.979
 21
-98.9291
  0
LINE
  8
0
 10
-101.979
 20
-98.9291
 11
-101.849
 21
-98.7179
  0
LINE
  8
0
 10
-101.849
 20
-98.7179
 11
-101.697
 21
-98.5223
  0
LINE
  8
0
 10
-101.697
 20
-98.5223
 11
-101.524
 21
-98.3446
  0
LINE
  8
0
 10
-101.524
 20
-98.3446
 11
-101.333
 21
-98.187
  0
LINE
  8
0
 10
-101.333
 20
-98.187
 11
-101.125
 21
-98.0514
  0
LINE
  8
0
 10
-101.125
 20
-98.0514
 11
-100.904
 21
-97.9395
  0
LINE
  8
0
 10
-100.904
 20
-97.9395
 11
-100.672
 21
-97.8526
  0
LINE
  8
0
 10
-100.672
 20
-97.8526
 11
-100.431
 21
-97.7917
  0
LINE
  8
0
 10
-100.431
 20
-97.7917
 11
-100.186
 21
-97.7577
  0
LINE
  8
0
 10
-100.186
 20
-97.7577
 11
-99.938
 21
-97.7509
  0
LINE
  8
0
 10
-99.938
 20
-97.7509
 11
-99.6909
 21
-97.7713
  0
LINE
  8
0
 10
-99.6909
 20
-97.7713
 11
-99.4476
 21
-97.8188
  0
LINE
  8
0
 10
-99.4476
 20
-97.8188
 11
-99.2111
 21
-97.8929
  0
LINE
  8
0
 10
-99.2111
 20
-97.8929
 11
-98.984
 21
-97.9924
  0
LINE
  8
0
 10
-98.984
 20
-97.9924
 11
-98.7694
 21
-98.1164
  0
LINE
  8
0
 10
-98.7694
 20
-98.1164
 11
-98.5696
 21
-98.2632
  0
LINE
  8
0
 10
-98.5696
 20
-98.2632
 11
-98.3872
 21
-98.4311
  0
LINE
  8
0
 10
-98.3872
 20
-98.4311
 11
-98.2244
 21
-98.618
  0
LINE
  8
0
 10
-98.2244
 20
-98.618
 11
-98.0832
 21
-98.8217
  0
LINE
  8
0
 10
-98.0832
 20
-98.8217
 11
-97.9652
 21
-99.0397
  0
LINE
  8
0
 10
-97.9652
 20
-99.0397
 11
-97.8719
 21
-99.2694
  0
LINE
  8
0
 10
-97.8719
 20
-99.2694
 11
-97.8045
 21
-99.508
  0
LINE
  8
0
 10
-97.8045
 20
-99.508
 11
-97.7637
 21
-99.7525
  0
LINE
  8
0
 10
-97.7637
 20
-99.7525
 11
-97.75
 21
-100
  0
LINE
  8
0
 10
-97.75
 20
-100
 11
-97.7637
 21
-100.248
  0
LINE
  8
0
 10
-97.7637
 20
-100.248
 11
-97.8045
 21
-100.492
  0
LINE
  8
0
 10
-97.8045
 20
-100.492
 11
-97.8719
 21
-100.731
  0
LINE
  8
0
 10
-97.8719
 20
-100.731
 11
-97.9652
 21
-100.96
  0
LINE
  8
0
 10
-97.9652
 20
-100.96
 11
-98.0832
 21
-101.178
  0
LINE
  8
0
 10
-98.0832
 20
-101.178
 11
-98.2244
 21
-101.382
  0
LINE
  8
0
 10
-98.2244
 20
-101.382
 11
-98.3872
 21
-101.569
  0
LINE
  8
0
 10
-98.3872
 20
-101.569
 11
-98.5696
 21
-101.737
  0
LINE
  8
0
 10
-98.5696
 20
-101.737
 11
-98.7694
 21
-101.884
  0
LINE
  8
0
 10
-98.7694
 20
-101.884
 11
-98.984
 21
-102.008
  0
LINE
  8
0
 10
-98.984
 20
-102.008
 11
-99.2111
 21
-102.107
  0
LINE
  8
0
 10
-99.2111
 20
-102.107
 11
-99.4476
 21
-102.181
  0
LINE
  8
0
 10
-99.4476
 20
-102.181
 11
-99.6909
 21
-102.229
  0
LINE
  8
0
 10
-99.6909
 20
-102.229
 11
-99.938
 21
-102.249
  0
LINE
  8
0
 10
-99.938
 20
-102.249
 11
-100.186
 21
-102.242
  0
LINE
  8
0
 10
99.8142
 20
-102.242
 11
99.5686
 21
-102.208
  0
LINE
  8
0
 10
99.5686
 20
-102.208
 11
99.3283
 21
-102.147
  0
LINE
  8
0
 10
99.3283
 20
-102.147
 11
99.0962
 21
-102.06
  0
LINE
  8
0
 10
99.0962
 20
-102.06
 11
98.875
 21
-101.949
  0
LINE
  8
0
 10
98.875
 20
-101.949
 11
98.6675
 21
-101.813
  0
LINE
  8
0
 10
98.6675
 20
-101.813
 11
98.4761
 21
-101.655
  0
LINE
  8
0
 10
98.4761
 20
-101.655
 11
98.3033
 21
-101.478
  0
LINE
  8
0
 10
98.3033
 20
-101.478
 11
98.151
 21
-101.282
  0
LINE
  8
0
 10
98.151
 20
-101.282
 11
98.0212
 21
-101.071
  0
LINE
  8
0
 10
98.0212
 20
-101.071
 11
97.9154
 21
-100.847
  0
LINE
  8
0
 10
97.9154
 20
-100.847
 11
97.8349
 21
-100.612
  0
LINE
  8
0
 10
97.8349
 20
-100.612
 11
97.7807
 21
-100.37
  0
LINE
  8
0
 10
97.7807
 20
-100.37
 11
97.7534
 21
-100.124
  0
LINE
  8
0
 10
97.7534
 20
-100.124
 11
97.7534
 21
-99.8761
  0
LINE
  8
0
 10
97.7534
 20
-99.8761
 11
97.7807
 21
-99.6297
  0
LINE
  8
0
 10
97.7807
 20
-99.6297
 11
97.8349
 21
-99.3878
  0
LINE
  8
0
 10
97.8349
 20
-99.3878
 11
97.9154
 21
-99.1533
  0
LINE
  8
0
 10
97.9154
 20
-99.1533
 11
98.0212
 21
-98.9291
  0
LINE
  8
0
 10
98.0212
 20
-98.9291
 11
98.151
 21
-98.7179
  0
LINE
  8
0
 10
98.151
 20
-98.7179
 11
98.3033
 21
-98.5223
  0
LINE
  8
0
 10
98.3033
 20
-98.5223
 11
98.4761
 21
-98.3446
  0
LINE
  8
0
 10
98.4761
 20
-98.3446
 11
98.6675
 21
-98.187
  0
LINE
  8
0
 10
98.6675
 20
-98.187
 11
98.875
 21
-98.0514
  0
LINE
  8
0
 10
98.875
 20
-98.0514
 11
99.0962
 21
-97.9395
  0
LINE
  8
0
 10
99.0962
 20
-97.9395
 11
99.3283
 21
-97.8526
  0
LINE
  8
0
 10
99.3283
 20
-97.8526
 11
99.5686
 21
-97.7917
  0
LINE
  8
0
 10
99.5686
 20
-97.7917
 11
99.8142
 21
-97.7577
  0
LINE
  8
0
 10
99.8142
 20
-97.7577
 11
100.062
 21
-97.7509
  0
LINE
  8
0
 10
100.062
 20
-97.7509
 11
100.309
 21
-97.7713
  0
LINE
  8
0
 10
100.309
 20
-97.7713
 11
100.552
 21
-97.8188
  0
LINE
  8
0
 10
100.552
 20
-97.8188
 11
100.789
 21
-97.8929
  0
LINE
  8
0
 10
100.789
 20
-97.8929
 11
101.016
 21
-97.9924
  0
LINE
  8
0
 10
101.016
 20
-97.9924
 11
101.231
 21
-98.1164
  0
LINE
  8
0
 10
101.231
 20
-98.1164
 11
101.43
 21
-98.2632
  0
LINE
  8
0
 10
101.43
 20
-98.2632
 11
101.613
 21
-98.4311
  0
LINE
  8
0
 10
101.613
 20
-98.4311
 11
101.776
 21
-98.618
  0
LINE
  8
0
 10
101.776
 20
-98.618
 11
101.917
 21
-98.8217
  0
LINE
  8
0
 10
101.917
 20
-98.8217
 11
102.035
 21
-99.0397
  0
LINE
  8
0
 10
102.035
 20
-99.0397
 11
102.128
 21
-99.2694
  0
LINE
  8
0
 10
102.128
 20
-99.2694
 11
102.196
 21
-99.508
  0
LINE
  8
0
 10
102.196
 20
-99.508
 11
102.236
 21
-99.7525
  0
LINE
  8
0
 10
102.236
 20
-99.7525
 11
102.25
 21
-100
  0
LINE
  8
0
 10
102.25
 20
-100
 11
102.236
 21
-100.248
  0
LINE
  8
0
 10
102.236
 20
-100.248
 11
102.196
 21
-100.492
  0
LINE
  8
0
 10
102.196
 20
-100.492
 11
102.128
 21
-100.731
  0
LINE
  8
0
 10
102.128
 20
-100.731
 11
102.035
 21
-100.96
  0
LINE
  8
0
 10
102.035
 20
-100.96
 11
101.917
 21
-101.178
  0
LINE
  8
0
 10
101.917
 20
-101.178
 11
101.776
 21
-101.382
  0
LINE
  8
0
 10
101.776
 20
-101.382
 11
101.613
 21
-101.569
  0
LINE
  8
0
 10
101.613
 20
-101.569
 11
101.43
 21
-101.737
  0
LINE
  8
0
 10
101.43
 20
-101.737
 11
101.231
 21
-101.884
  0
LINE
  8
0
 10
101.231
 20
-101.884
 11
101.016
 21
-102.008
  0
LINE
  8
0
 10
101.016
 20
-102.008
 11
100.789
 21
-102.107
  0
LINE
  8
0
 10
100.789
 20
-102.107
 11
100.552
 21
-102.181
  0
LINE
  8
0
 10
100.552
 20
-102.181
 11
100.309
 21
-102.229
  0
LINE
  8
0
 10
100.309
 20
-102.229
 11
100.062
 21
-102.249
  0
LINE
  8
0
 10
100.062
 20
-102.249
 11
99.8142
 21
-102.242
  0
LINE
  8
0
 10
199.814
 20
-102.242
 11
199.569
 21
-102.208
  0
LINE
  8
0
 10
199.569
 20
-102.208
 11
199.328
 21
-102.147
  0
LINE
  8
0
 10
199.328
 20
-102.147
 11
199.096
 21
-102.06
  0
LINE
  8
0
 10
199.096
 20
-102.06
 11
198.875
 21
-101.949
  0
LINE
  8
0
 10
198.875
 20
-101.949
 11
198.667
 21
-101.813
  0
LINE
  8
0
 10
198.667
 20
-101.813
 11
198.476
 21
-101.655
  0
LINE
  8
0
 10
198.476
 20
-101.655
 11
198.303
 21
-101.478
  0
LINE
  8
0
 10
198.303
 20
-101.478
 11
198.151
 21
-101.282
  0
LINE
  8
0
 10
198.151
 20
-101.282
 11
198.021
 21
-101.071
  0
LINE
  8
0
 10
198.021
 20
-101.071
 11
197.915
 21
-100.847
  0
LINE
  8
0
 10
197.915
 20
-100.847
 11
197.835
 21
-100.612
  0
LINE
  8
0
 10
197.835
 20
-100.612
 11
197.781
 21
-100.37
  0
LINE
  8
0
 10
197.781
 20
-100.37
 11
197.753
 21
-100.124
  0
LINE
  8
0
 10
197.753
 20
-100.124
 11
197.753
 21
-99.8761
  0
LINE
  8
0
 10
197.753
 20
-99.8761
 11
197.781
 21
-99.6297
  0
LINE
  8
0
 10
197.781
 20
-99.6297
 11
197.835
 21
-99.3878
  0
LINE
  8
0
 10
197.835
 20
-99.3878
 11
197.915
 21
-99.1533
  0
LINE
  8
0
 10
197.915
 20
-99.1533
 11
198.021
 21
-98.9291
  0
LINE
  8
0
 10
198.021
 20
-98.9291
 11
198.151
 21
-98.7179
  0
LINE
  8
0
 10
198.151
 20
-98.7179
 11
198.303
 21
-98.5223
  0
LINE
  8
0
 10
198.303
 20
-98.5223
 11
198.476
 21
-98.3446
  0
LINE
  8
0
 10
198.476
 20
-98.3446
 11
198.667
 21
-98.187
  0
LINE
  8
0
 10
198.667
 20
-98.187
 11
198.875
 21
-98.0514
  0
LINE
  8
0
 10
198.875
 20
-98.0514
 11
199.096
 21
-97.9395
  0
LINE
  8
0
 10
199.096
 20
-97.9395
 11
199.328
 21
-97.8526
  0
LINE
  8
0
 10
199.328
 20
-97.8526
 11
199.569
 21
-97.7917
  0
LINE
  8
0
 10
199.569
 20
-97.7917
 11
199.814
 21
-97.7577
  0
LINE
  8
0
 10
199.814
 20
-97.7577
 11
200.062
 21
-97.7509
  0
LINE
  8
0
 10
200.062
 20
-97.7509
 11
200.309
 21
-97.7713
  0
LINE
  8
0
 10
200.309
 20
-97.7713
 11
200.552
 21
-97.8188
  0
LINE
  8
0
 10
200.552
 20
-97.8188
 11
200.789
 21
-97.8929
  0
LINE
  8
0
 10
200.789
 20
-97.8929
 11
201.016
 21
-97.9924
  0
LINE
  8
0
 10
201.016
 20
-97.9924
 11
201.231
 21
-98.1164
  0
LINE
  8
0
 10
201.231
 20
-98.1164
 11
201.43
 21
-98.2632
  0
LINE
  8
0
 10
201.43
 20
-98.2632
 11
201.613
 21
-98.4311
  0
LINE
  8
0
 10
201.613
 20
-98.4311
 11
201.776
 21
-98.618
  0
LINE
  8
0
 10
201.776
 20
-98.618
 11
201.917
 21
-98.8217
  0
LINE
  8
0
 10
201.917
 20
-98.8217
 11
202.035
 21
-99.0397
  0
LINE
  8
0
 10
202.035
 20
-99.0397
 11
202.128
 21
-99.2694
  0
LINE
  8
0
 10
202.128
 20
-99.2694
 11
202.196
 21
-99.508
  0
LINE
  8
0
 10
202.196
 20
-99.508
 11
202.236
 21
-99.7525
  0
LINE
  8
0
 10
202.236
 20
-99.7525
 11
202.25
 21
-100
  0
LINE
  8
0
 10
202.25
 20
-100
 11
202.236
 21
-100.248
  0
LINE
  8
0
 10
202.236
 20
-100.248
 11
202.196
 21
-100.492
  0
LINE
  8
0
 10
202.196
 20
-100.492
 11
202.128
 21
-100.731
  0
LINE
  8
0
 10
202.128
 20
-100.731
 11
202.035
 21
-100.96
  0
LINE
  8
0
 10
202.035
 20
-100.96
 11
201.917
 21
-101.178
  0
LINE
  8
0
 10
201.917
 20
-101.178
 11
201.776
 21
-101.382
  0
LINE
  8
0
 10
201.776
 20
-101.382
 11
201.613
 21
-101.569
  0
LINE
  8
0
 10
201.613
 20
-101.569
 11
201.43
 21
-101.737
  0
LINE
  8
0
 10
201.43
 20
-101.737
 11
201.231
 21
-101.884
  0
LINE
  8
0
 10
201.231
 20
-101.884
 11
201.016
 21
-102.008
  0
LINE
  8
0
 10
201.016
 20
-102.008
 11
200.789
 21
-102.107
  0
LINE
  8
0
 10
200.789
 20
-102.107
 11
200.552
 21
-102.181
  0
LINE
  8
0
 10
200.552
 20
-102.181
 11
200.309
 21
-102.229
  0
LINE
  8
0
 10
200.309
 20
-102.229
 11
200.062
 21
-102.249
  0
LINE
  8
0
 10
200.062
 20
-102.249
 11
199.814
 21
-102.242
  0
LINE
  8
0
 10
-0.185791
 20
-102.242
 11
-0.431335
 21
-102.208
  0
LINE
  8
0
 10
-0.431335
 20
-102.208
 11
-0.671646
 21
-102.147
  0
LINE
  8
0
 10
-0.671646
 20
-102.147
 11
-0.903809
 21
-102.06
  0
LINE
  8
0
 10
-0.903809
 20
-102.06
 11
-1.125
 21
-101.949
  0
LINE
  8
0
 10
-1.125
 20
-101.949
 11
-1.33252
 21
-101.813
  0
LINE
  8
0
 10
-1.33252
 20
-101.813
 11
-1.52388
 21
-101.655
  0
LINE
  8
0
 10
-1.52388
 20
-101.655
 11
-1.69673
 21
-101.478
  0
LINE
  8
0
 10
-1.69673
 20
-101.478
 11
-1.849
 21
-101.282
  0
LINE
  8
0
 10
-1.849
 20
-101.282
 11
-1.97881
 21
-101.071
  0
LINE
  8
0
 10
-1.97881
 20
-101.071
 11
-2.08461
 21
-100.847
  0
LINE
  8
0
 10
-2.08461
 20
-100.847
 11
-2.1651
 21
-100.612
  0
LINE
  8
0
 10
-2.1651
 20
-100.612
 11
-2.2193
 21
-100.37
  0
LINE
  8
0
 10
-2.2193
 20
-100.37
 11
-2.24658
 21
-100.124
  0
LINE
  8
0
 10
-2.24658
 20
-100.124
 11
-2.24658
 21
-99.8761
  0
LINE
  8
0
 10
-2.24658
 20
-99.8761
 11
-2.2193
 21
-99.6297
  0
LINE
  8
0
 10
-2.2193
 20
-99.6297
 11
-2.1651
 21
-99.3878
  0
LINE
  8
0
 10
-2.1651
 20
-99.3878
 11
-2.08461
 21
-99.1533
  0
LINE
  8
0
 10
-2.08461
 20
-99.1533
 11
-1.97881
 21
-98.9291
  0
LINE
  8
0
 10
-1.97881
 20
-98.9291
 11
-1.849
 21
-98.7179
  0
LINE
  8
0
 10
-1.849
 20
-98.7179
 11
-1.69673
 21
-98.5223
  0
LINE
  8
0
 10
-1.69673
 20
-98.5223
 11
-1.52388
 21
-98.3446
  0
LINE
  8
0
 10
-1.52388
 20
-98.3446
 11
-1.33252
 21
-98.187
  0
LINE
  8
0
 10
-1.33252
 20
-98.187
 11
-1.125
 21
-98.0514
  0
LINE
  8
0
 10
-1.125
 20
-98.0514
 11
-0.903809
 21
-97.9395
  0
LINE
  8
0
 10
-0.903809
 20
-97.9395
 11
-0.671646
 21
-97.8526
  0
LINE
  8
0
 10
-0.671646
 20
-97.8526
 11
-0.431335
 21
-97.7917
  0
LINE
  8
0
 10
-0.431335
 20
-97.7917
 11
-0.185791
 21
-97.7577
  0
LINE
  8
0
 10
-0.185791
 20
-97.7577
 11
0.0619965
 21
-97.7509
  0
LINE
  8
0
 10
0.0619965
 20
-97.7509
 11
0.309036
 21
-97.7713
  0
LINE
  8
0
 10
0.309036
 20
-97.7713
 11
0.552338
 21
-97.8188
  0
LINE
  8
0
 10
0.552338
 20
-97.8188
 11
0.788925
 21
-97.8929
  0
LINE
  8
0
 10
0.788925
 20
-97.8929
 11
1.01595
 21
-97.9924
  0
LINE
  8
0
 10
1.01595
 20
-97.9924
 11
1.23062
 21
-98.1164
  0
LINE
  8
0
 10
1.23062
 20
-98.1164
 11
1.43037
 21
-98.2632
  0
LINE
  8
0
 10
1.43037
 20
-98.2632
 11
1.61275
 21
-98.4311
  0
LINE
  8
0
 10
1.61275
 20
-98.4311
 11
1.77556
 21
-98.618
  0
LINE
  8
0
 10
1.77556
 20
-98.618
 11
1.91681
 21
-98.8217
  0
LINE
  8
0
 10
1.91681
 20
-98.8217
 11
2.03479
 21
-99.0397
  0
LINE
  8
0
 10
2.03479
 20
-99.0397
 11
2.12808
 21
-99.2694
  0
LINE
  8
0
 10
2.12808
 20
-99.2694
 11
2.19554
 21
-99.508
  0
LINE
  8
0
 10
2.19554
 20
-99.508
 11
2.23634
 21
-99.7525
  0
LINE
  8
0
 10
2.23634
 20
-99.7525
 11
2.25
 21
-100
  0
LINE
  8
0
 10
2.25
 20
-100
 11
2.23634
 21
-100.248
  0
LINE
  8
0
 10
2.23634
 20
-100.248
 11
2.19554
 21
-100.492
  0
LINE
  8
0
 10
2.19554
 20
-100.492
 11
2.12808
 21
-100.731
  0
LINE
  8
0
 10
2.12808
 20
-100.731
 11
2.03479
 21
-100.96
  0
LINE
  8
0
 10
2.03479
 20
-100.96
 11
1.91681
 21
-101.178
  0
LINE
  8
0
 10
1.91681
 20
-101.178
 11
1.77556
 21
-101.382
  0
LINE
  8
0
 10
1.77556
 20
-101.382
 11
1.61275
 21
-101.569
  0
LINE
  8
0
 10
1.61275
 20
-101.569
 11
1.43037
 21
-101.737
  0
LINE
  8
0
 10
1.43037
 20
-101.737
 11
1.23062
 21
-101.884
  0
LINE
  8
0
 10
1.23062
 20
-101.884
 11
1.01595
 21
-102.008
  0
LINE
  8
0
 10
1.01595
 20
-102.008
 11
0.788925
 21
-102.107
  0
LINE
  8
0
 10
0.788925
 20
-102.107
 11
0.552338
 21
-102.181
  0
LINE
  8
0
 10
0.552338
 20
-102.181
 11
0.309036
 21
-102.229
  0
LINE
  8
0
 10
0.309036
 20
-102.229
 11
0.0619965
 21
-102.249
  0
LINE
  8
0
 10
0.0619965
 20
-102.249
 11
-0.185791
 21
-102.242
  0
ENDSEC
  0
SECTION
  2
OBJECTS
  0
DICTIONARY
  0
ENDSEC
  0
EOF
