  0
SECTION
  2
BLOCKS
  0
ENDSEC
  0
SECTION
  2
ENTITIES
  0
LINE
  8
0
 10
298.65
 20
58.75
 11
171.387
 21
58.75
  0
LINE
  8
0
 10
171.387
 20
58.75
 11
171.359
 21
58.216
  0
LINE
  8
0
 10
171.359
 20
58.216
 11
171.236
 21
57.4407
  0
LINE
  8
0
 10
171.236
 20
57.4407
 11
171.033
 21
56.6824
  0
LINE
  8
0
 10
171.033
 20
56.6824
 11
170.752
 21
55.9495
  0
LINE
  8
0
 10
170.752
 20
55.9495
 11
170.395
 21
55.25
  0
LINE
  8
0
 10
170.395
 20
55.25
 11
169.968
 21
54.5916
  0
LINE
  8
0
 10
169.968
 20
54.5916
 11
169.474
 21
53.9815
  0
LINE
  8
0
 10
169.474
 20
53.9815
 11
168.918
 21
53.4264
  0
LINE
  8
0
 10
168.918
 20
53.4264
 11
168.308
 21
52.9324
  0
LINE
  8
0
 10
168.308
 20
52.9324
 11
167.65
 21
52.5048
  0
LINE
  8
0
 10
167.65
 20
52.5048
 11
166.951
 21
52.1484
  0
LINE
  8
0
 10
166.951
 20
52.1484
 11
166.218
 21
51.8671
  0
LINE
  8
0
 10
166.218
 20
51.8671
 11
165.459
 21
51.6639
  0
LINE
  8
0
 10
165.459
 20
51.6639
 11
164.684
 21
51.5411
  0
LINE
  8
0
 10
164.684
 20
51.5411
 11
163.9
 21
51.5
  0
LINE
  8
0
 10
163.9
 20
51.5
 11
163.116
 21
51.5411
  0
LINE
  8
0
 10
163.116
 20
51.5411
 11
162.341
 21
51.6639
  0
LINE
  8
0
 10
162.341
 20
51.6639
 11
161.582
 21
51.8671
  0
LINE
  8
0
 10
161.582
 20
51.8671
 11
160.849
 21
52.1484
  0
LINE
  8
0
 10
160.849
 20
52.1484
 11
160.15
 21
52.5048
  0
LINE
  8
0
 10
160.15
 20
52.5048
 11
159.492
 21
52.9324
  0
LINE
  8
0
 10
159.492
 20
52.9324
 11
158.882
 21
53.4264
  0
LINE
  8
0
 10
158.882
 20
53.4264
 11
158.326
 21
53.9815
  0
LINE
  8
0
 10
158.326
 20
53.9815
 11
157.832
 21
54.5916
  0
LINE
  8
0
 10
157.832
 20
54.5916
 11
157.405
 21
55.25
  0
LINE
  8
0
 10
157.405
 20
55.25
 11
157.048
 21
55.9495
  0
LINE
  8
0
 10
157.048
 20
55.9495
 11
156.767
 21
56.6824
  0
LINE
  8
0
 10
156.767
 20
56.6824
 11
156.564
 21
57.4407
  0
LINE
  8
0
 10
156.564
 20
57.4407
 11
156.441
 21
58.216
  0
LINE
  8
0
 10
156.441
 20
58.216
 11
156.413
 21
58.75
  0
LINE
  8
0
 10
156.413
 20
58.75
 11
82.4869
 21
58.75
  0
LINE
  8
0
 10
82.4869
 20
58.75
 11
82.4589
 21
58.216
  0
LINE
  8
0
 10
82.4589
 20
58.216
 11
82.3361
 21
57.4407
  0
LINE
  8
0
 10
82.3361
 20
57.4407
 11
82.1329
 21
56.6824
  0
LINE
  8
0
 10
82.1329
 20
56.6824
 11
81.8516
 21
55.9495
  0
LINE
  8
0
 10
81.8516
 20
55.9495
 11
81.4952
 21
55.25
  0
LINE
  8
0
 10
81.4952
 20
55.25
 11
81.0676
 21
54.5916
  0
LINE
  8
0
 10
81.0676
 20
54.5916
 11
80.5736
 21
53.9815
  0
LINE
  8
0
 10
80.5736
 20
53.9815
 11
80.0185
 21
53.4264
  0
LINE
  8
0
 10
80.0185
 20
53.4264
 11
79.4084
 21
52.9324
  0
LINE
  8
0
 10
79.4084
 20
52.9324
 11
78.75
 21
52.5048
  0
LINE
  8
0
 10
78.75
 20
52.5048
 11
78.0505
 21
52.1484
  0
LINE
  8
0
 10
78.0505
 20
52.1484
 11
77.3176
 21
51.8671
  0
LINE
  8
0
 10
77.3176
 20
51.8671
 11
76.5593
 21
51.6639
  0
LINE
  8
0
 10
76.5593
 20
51.6639
 11
75.784
 21
51.5411
  0
LINE
  8
0
 10
75.784
 20
51.5411
 11
75
 21
51.5
  0
LINE
  8
0
 10
75
 20
51.5
 11
74.216
 21
51.5411
  0
LINE
  8
0
 10
74.216
 20
51.5411
 11
73.4407
 21
51.6639
  0
LINE
  8
0
 10
73.4407
 20
51.6639
 11
72.6824
 21
51.8671
  0
LINE
  8
0
 10
72.6824
 20
51.8671
 11
71.9495
 21
52.1484
  0
LINE
  8
0
 10
71.9495
 20
52.1484
 11
71.25
 21
52.5048
  0
LINE
  8
0
 10
71.25
 20
52.5048
 11
70.5916
 21
52.9324
  0
LINE
  8
0
 10
70.5916
 20
52.9324
 11
69.9815
 21
53.4264
  0
LINE
  8
0
 10
69.9815
 20
53.4264
 11
69.4264
 21
53.9815
  0
LINE
  8
0
 10
69.4264
 20
53.9815
 11
68.9324
 21
54.5916
  0
LINE
  8
0
 10
68.9324
 20
54.5916
 11
68.5048
 21
55.25
  0
LINE
  8
0
 10
68.5048
 20
55.25
 11
68.1484
 21
55.9495
  0
LINE
  8
0
 10
68.1484
 20
55.9495
 11
67.8671
 21
56.6824
  0
LINE
  8
0
 10
67.8671
 20
56.6824
 11
67.6639
 21
57.4407
  0
LINE
  8
0
 10
67.6639
 20
57.4407
 11
67.5411
 21
58.216
  0
LINE
  8
0
 10
67.5411
 20
58.216
 11
67.5131
 21
58.75
  0
LINE
  8
0
 10
67.5131
 20
58.75
 11
0
 21
58.75
  0
LINE
  8
0
 10
0
 20
58.75
 11
0
 21
0
  0
LINE
  8
0
 10
0
 20
0
 11
298.65
 21
0
  0
LINE
  8
0
 10
298.65
 20
0
 11
298.65
 21
58.75
  0
LINE
  8
0
 10
49.033
 20
44.1154
 11
48.7956
 21
44.1861
  0
LINE
  8
0
 10
48.7956
 20
44.1861
 11
48.5239
 21
44.3255
  0
LINE
  8
0
 10
48.5239
 20
44.3255
 11
47.533
 21
44.969
  0
LINE
  8
0
 10
47.533
 20
44.969
 11
47.465
 21
45.0082
  0
LINE
  8
0
 10
47.465
 20
45.0082
 11
46.136
 21
45.6853
  0
LINE
  8
0
 10
46.136
 20
45.6853
 11
46.0643
 21
45.7173
  0
LINE
  8
0
 10
46.0643
 20
45.7173
 11
44.672
 21
46.2517
  0
LINE
  8
0
 10
44.672
 20
46.2517
 11
44.5971
 21
46.2761
  0
LINE
  8
0
 10
44.5971
 20
46.2761
 11
43.1568
 21
46.662
  0
LINE
  8
0
 10
43.1568
 20
46.662
 11
43.0798
 21
46.6784
  0
LINE
  8
0
 10
43.0798
 20
46.6784
 11
41.6067
 21
46.9117
  0
LINE
  8
0
 10
41.6067
 20
46.9117
 11
41.5286
 21
46.9199
  0
LINE
  8
0
 10
41.5286
 20
46.9199
 11
40.0393
 21
46.9979
  0
LINE
  8
0
 10
40.0393
 20
46.9979
 11
39.9607
 21
46.9979
  0
LINE
  8
0
 10
39.9607
 20
46.9979
 11
38.4714
 21
46.9199
  0
LINE
  8
0
 10
38.4714
 20
46.9199
 11
38.3933
 21
46.9117
  0
LINE
  8
0
 10
38.3933
 20
46.9117
 11
36.9202
 21
46.6784
  0
LINE
  8
0
 10
36.9202
 20
46.6784
 11
36.8432
 21
46.662
  0
LINE
  8
0
 10
36.8432
 20
46.662
 11
35.4029
 21
46.2761
  0
LINE
  8
0
 10
35.4029
 20
46.2761
 11
35.328
 21
46.2517
  0
LINE
  8
0
 10
35.328
 20
46.2517
 11
33.9357
 21
45.7173
  0
LINE
  8
0
 10
33.9357
 20
45.7173
 11
33.864
 21
45.6853
  0
LINE
  8
0
 10
33.864
 20
45.6853
 11
32.535
 21
45.0082
  0
LINE
  8
0
 10
32.535
 20
45.0082
 11
32.467
 21
44.969
  0
LINE
  8
0
 10
32.467
 20
44.969
 11
31.4761
 21
44.3255
  0
LINE
  8
0
 10
31.4761
 20
44.3255
 11
31.2579
 21
44.2081
  0
LINE
  8
0
 10
31.2579
 20
44.2081
 11
31.0234
 21
44.1284
  0
LINE
  8
0
 10
31.0234
 20
44.1284
 11
30.7789
 21
44.0883
  0
LINE
  8
0
 10
30.7789
 20
44.0883
 11
30.5312
 21
44.0889
  0
LINE
  8
0
 10
30.5312
 20
44.0889
 11
30.2869
 21
44.1304
  0
LINE
  8
0
 10
30.2869
 20
44.1304
 11
30.0528
 21
44.2115
  0
LINE
  8
0
 10
30.0528
 20
44.2115
 11
29.8353
 21
44.33
  0
LINE
  8
0
 10
29.8353
 20
44.33
 11
29.5985
 21
44.5228
  0
LINE
  8
0
 10
29.5985
 20
44.5228
 11
29.2405
 21
44.8808
  0
LINE
  8
0
 10
29.2405
 20
44.8808
 11
29.0804
 21
45.0698
  0
LINE
  8
0
 10
29.0804
 20
45.0698
 11
28.9536
 21
45.2827
  0
LINE
  8
0
 10
28.9536
 20
45.2827
 11
28.8635
 21
45.5134
  0
LINE
  8
0
 10
28.8635
 20
45.5134
 11
28.8127
 21
45.7559
  0
LINE
  8
0
 10
28.8127
 20
45.7559
 11
28.8025
 21
46.0034
  0
LINE
  8
0
 10
28.8025
 20
46.0034
 11
28.8331
 21
46.2493
  0
LINE
  8
0
 10
28.8331
 20
46.2493
 11
28.9038
 21
46.4867
  0
LINE
  8
0
 10
28.9038
 20
46.4867
 11
29.0126
 21
46.7093
  0
LINE
  8
0
 10
29.0126
 20
46.7093
 11
29.1566
 21
46.9109
  0
LINE
  8
0
 10
29.1566
 20
46.9109
 11
29.3317
 21
47.0861
  0
LINE
  8
0
 10
29.3317
 20
47.0861
 11
29.4842
 21
47.1995
  0
LINE
  8
0
 10
29.4842
 20
47.1995
 11
30.6841
 21
47.9786
  0
LINE
  8
0
 10
30.6841
 20
47.9786
 11
30.82
 21
48.0571
  0
LINE
  8
0
 10
30.82
 20
48.0571
 11
32.4053
 21
48.8649
  0
LINE
  8
0
 10
32.4053
 20
48.8649
 11
32.5488
 21
48.9288
  0
LINE
  8
0
 10
32.5488
 20
48.9288
 11
34.2098
 21
49.5664
  0
LINE
  8
0
 10
34.2098
 20
49.5664
 11
34.3591
 21
49.6149
  0
LINE
  8
0
 10
34.3591
 20
49.6149
 11
36.0777
 21
50.0754
  0
LINE
  8
0
 10
36.0777
 20
50.0754
 11
36.2313
 21
50.108
  0
LINE
  8
0
 10
36.2313
 20
50.108
 11
37.9887
 21
50.3864
  0
LINE
  8
0
 10
37.9887
 20
50.3864
 11
38.1448
 21
50.4028
  0
LINE
  8
0
 10
38.1448
 20
50.4028
 11
39.9215
 21
50.4959
  0
LINE
  8
0
 10
39.9215
 20
50.4959
 11
40.0785
 21
50.4959
  0
LINE
  8
0
 10
40.0785
 20
50.4959
 11
41.8552
 21
50.4028
  0
LINE
  8
0
 10
41.8552
 20
50.4028
 11
42.0113
 21
50.3864
  0
LINE
  8
0
 10
42.0113
 20
50.3864
 11
43.7687
 21
50.108
  0
LINE
  8
0
 10
43.7687
 20
50.108
 11
43.9223
 21
50.0754
  0
LINE
  8
0
 10
43.9223
 20
50.0754
 11
45.6409
 21
49.6149
  0
LINE
  8
0
 10
45.6409
 20
49.6149
 11
45.7902
 21
49.5664
  0
LINE
  8
0
 10
45.7902
 20
49.5664
 11
47.4512
 21
48.9288
  0
LINE
  8
0
 10
47.4512
 20
48.9288
 11
47.5947
 21
48.8649
  0
LINE
  8
0
 10
47.5947
 20
48.8649
 11
49.18
 21
48.0571
  0
LINE
  8
0
 10
49.18
 20
48.0571
 11
49.3159
 21
47.9786
  0
LINE
  8
0
 10
49.3159
 20
47.9786
 11
50.5158
 21
47.1995
  0
LINE
  8
0
 10
50.5158
 20
47.1995
 11
50.7117
 21
47.0478
  0
LINE
  8
0
 10
50.7117
 20
47.0478
 11
50.88
 21
46.866
  0
LINE
  8
0
 10
50.88
 20
46.866
 11
51.0161
 21
46.659
  0
LINE
  8
0
 10
51.0161
 20
46.659
 11
51.1162
 21
46.4324
  0
LINE
  8
0
 10
51.1162
 20
46.4324
 11
51.1777
 21
46.1924
  0
LINE
  8
0
 10
51.1777
 20
46.1924
 11
51.1988
 21
45.9456
  0
LINE
  8
0
 10
51.1988
 20
45.9456
 11
51.179
 21
45.6986
  0
LINE
  8
0
 10
51.179
 20
45.6986
 11
51.1189
 21
45.4583
  0
LINE
  8
0
 10
51.1189
 20
45.4583
 11
51.02
 21
45.2312
  0
LINE
  8
0
 10
51.02
 20
45.2312
 11
50.8851
 21
45.0234
  0
LINE
  8
0
 10
50.8851
 20
45.0234
 11
50.7595
 21
44.8808
  0
LINE
  8
0
 10
50.7595
 20
44.8808
 11
50.4015
 21
44.5228
  0
LINE
  8
0
 10
50.4015
 20
44.5228
 11
50.2124
 21
44.3627
  0
LINE
  8
0
 10
50.2124
 20
44.3627
 11
49.9996
 21
44.2359
  0
LINE
  8
0
 10
49.9996
 20
44.2359
 11
49.7688
 21
44.1458
  0
LINE
  8
0
 10
49.7688
 20
44.1458
 11
49.5264
 21
44.095
  0
LINE
  8
0
 10
49.5264
 20
44.095
 11
49.2789
 21
44.0847
  0
LINE
  8
0
 10
49.2789
 20
44.0847
 11
49.033
 21
44.1154
  0
LINE
  8
0
 10
119.033
 20
44.1154
 11
118.796
 21
44.1861
  0
LINE
  8
0
 10
118.796
 20
44.1861
 11
118.524
 21
44.3255
  0
LINE
  8
0
 10
118.524
 20
44.3255
 11
117.533
 21
44.969
  0
LINE
  8
0
 10
117.533
 20
44.969
 11
117.465
 21
45.0082
  0
LINE
  8
0
 10
117.465
 20
45.0082
 11
116.136
 21
45.6853
  0
LINE
  8
0
 10
116.136
 20
45.6853
 11
116.064
 21
45.7173
  0
LINE
  8
0
 10
116.064
 20
45.7173
 11
114.672
 21
46.2517
  0
LINE
  8
0
 10
114.672
 20
46.2517
 11
114.597
 21
46.2761
  0
LINE
  8
0
 10
114.597
 20
46.2761
 11
113.157
 21
46.662
  0
LINE
  8
0
 10
113.157
 20
46.662
 11
113.08
 21
46.6784
  0
LINE
  8
0
 10
113.08
 20
46.6784
 11
111.607
 21
46.9117
  0
LINE
  8
0
 10
111.607
 20
46.9117
 11
111.529
 21
46.9199
  0
LINE
  8
0
 10
111.529
 20
46.9199
 11
110.039
 21
46.9979
  0
LINE
  8
0
 10
110.039
 20
46.9979
 11
109.961
 21
46.9979
  0
LINE
  8
0
 10
109.961
 20
46.9979
 11
108.471
 21
46.9199
  0
LINE
  8
0
 10
108.471
 20
46.9199
 11
108.393
 21
46.9117
  0
LINE
  8
0
 10
108.393
 20
46.9117
 11
106.92
 21
46.6784
  0
LINE
  8
0
 10
106.92
 20
46.6784
 11
106.843
 21
46.662
  0
LINE
  8
0
 10
106.843
 20
46.662
 11
105.403
 21
46.2761
  0
LINE
  8
0
 10
105.403
 20
46.2761
 11
105.328
 21
46.2517
  0
LINE
  8
0
 10
105.328
 20
46.2517
 11
103.936
 21
45.7173
  0
LINE
  8
0
 10
103.936
 20
45.7173
 11
103.864
 21
45.6853
  0
LINE
  8
0
 10
103.864
 20
45.6853
 11
102.535
 21
45.0082
  0
LINE
  8
0
 10
102.535
 20
45.0082
 11
102.467
 21
44.969
  0
LINE
  8
0
 10
102.467
 20
44.969
 11
101.476
 21
44.3255
  0
LINE
  8
0
 10
101.476
 20
44.3255
 11
101.258
 21
44.2081
  0
LINE
  8
0
 10
101.258
 20
44.2081
 11
101.023
 21
44.1284
  0
LINE
  8
0
 10
101.023
 20
44.1284
 11
100.779
 21
44.0883
  0
LINE
  8
0
 10
100.779
 20
44.0883
 11
100.531
 21
44.0889
  0
LINE
  8
0
 10
100.531
 20
44.0889
 11
100.287
 21
44.1304
  0
LINE
  8
0
 10
100.287
 20
44.1304
 11
100.053
 21
44.2115
  0
LINE
  8
0
 10
100.053
 20
44.2115
 11
99.8353
 21
44.33
  0
LINE
  8
0
 10
99.8353
 20
44.33
 11
99.5985
 21
44.5228
  0
LINE
  8
0
 10
99.5985
 20
44.5228
 11
99.2405
 21
44.8808
  0
LINE
  8
0
 10
99.2405
 20
44.8808
 11
99.0804
 21
45.0698
  0
LINE
  8
0
 10
99.0804
 20
45.0698
 11
98.9536
 21
45.2827
  0
LINE
  8
0
 10
98.9536
 20
45.2827
 11
98.8635
 21
45.5134
  0
LINE
  8
0
 10
98.8635
 20
45.5134
 11
98.8127
 21
45.7559
  0
LINE
  8
0
 10
98.8127
 20
45.7559
 11
98.8025
 21
46.0034
  0
LINE
  8
0
 10
98.8025
 20
46.0034
 11
98.8331
 21
46.2493
  0
LINE
  8
0
 10
98.8331
 20
46.2493
 11
98.9038
 21
46.4867
  0
LINE
  8
0
 10
98.9038
 20
46.4867
 11
99.0126
 21
46.7093
  0
LINE
  8
0
 10
99.0126
 20
46.7093
 11
99.1566
 21
46.9109
  0
LINE
  8
0
 10
99.1566
 20
46.9109
 11
99.3317
 21
47.0861
  0
LINE
  8
0
 10
99.3317
 20
47.0861
 11
99.4842
 21
47.1995
  0
LINE
  8
0
 10
99.4842
 20
47.1995
 11
100.684
 21
47.9786
  0
LINE
  8
0
 10
100.684
 20
47.9786
 11
100.82
 21
48.0571
  0
LINE
  8
0
 10
100.82
 20
48.0571
 11
102.405
 21
48.8649
  0
LINE
  8
0
 10
102.405
 20
48.8649
 11
102.549
 21
48.9288
  0
LINE
  8
0
 10
102.549
 20
48.9288
 11
104.21
 21
49.5664
  0
LINE
  8
0
 10
104.21
 20
49.5664
 11
104.359
 21
49.6149
  0
LINE
  8
0
 10
104.359
 20
49.6149
 11
106.078
 21
50.0754
  0
LINE
  8
0
 10
106.078
 20
50.0754
 11
106.231
 21
50.108
  0
LINE
  8
0
 10
106.231
 20
50.108
 11
107.989
 21
50.3864
  0
LINE
  8
0
 10
107.989
 20
50.3864
 11
108.145
 21
50.4028
  0
LINE
  8
0
 10
108.145
 20
50.4028
 11
109.921
 21
50.4959
  0
LINE
  8
0
 10
109.921
 20
50.4959
 11
110.079
 21
50.4959
  0
LINE
  8
0
 10
110.079
 20
50.4959
 11
111.855
 21
50.4028
  0
LINE
  8
0
 10
111.855
 20
50.4028
 11
112.011
 21
50.3864
  0
LINE
  8
0
 10
112.011
 20
50.3864
 11
113.769
 21
50.108
  0
LINE
  8
0
 10
113.769
 20
50.108
 11
113.922
 21
50.0754
  0
LINE
  8
0
 10
113.922
 20
50.0754
 11
115.641
 21
49.6149
  0
LINE
  8
0
 10
115.641
 20
49.6149
 11
115.79
 21
49.5664
  0
LINE
  8
0
 10
115.79
 20
49.5664
 11
117.451
 21
48.9288
  0
LINE
  8
0
 10
117.451
 20
48.9288
 11
117.595
 21
48.8649
  0
LINE
  8
0
 10
117.595
 20
48.8649
 11
119.18
 21
48.0571
  0
LINE
  8
0
 10
119.18
 20
48.0571
 11
119.316
 21
47.9786
  0
LINE
  8
0
 10
119.316
 20
47.9786
 11
120.516
 21
47.1995
  0
LINE
  8
0
 10
120.516
 20
47.1995
 11
120.712
 21
47.0478
  0
LINE
  8
0
 10
120.712
 20
47.0478
 11
120.88
 21
46.866
  0
LINE
  8
0
 10
120.88
 20
46.866
 11
121.016
 21
46.659
  0
LINE
  8
0
 10
121.016
 20
46.659
 11
121.116
 21
46.4324
  0
LINE
  8
0
 10
121.116
 20
46.4324
 11
121.178
 21
46.1924
  0
LINE
  8
0
 10
121.178
 20
46.1924
 11
121.199
 21
45.9456
  0
LINE
  8
0
 10
121.199
 20
45.9456
 11
121.179
 21
45.6986
  0
LINE
  8
0
 10
121.179
 20
45.6986
 11
121.119
 21
45.4583
  0
LINE
  8
0
 10
121.119
 20
45.4583
 11
121.02
 21
45.2312
  0
LINE
  8
0
 10
121.02
 20
45.2312
 11
120.885
 21
45.0234
  0
LINE
  8
0
 10
120.885
 20
45.0234
 11
120.759
 21
44.8808
  0
LINE
  8
0
 10
120.759
 20
44.8808
 11
120.401
 21
44.5228
  0
LINE
  8
0
 10
120.401
 20
44.5228
 11
120.212
 21
44.3627
  0
LINE
  8
0
 10
120.212
 20
44.3627
 11
120
 21
44.2359
  0
LINE
  8
0
 10
120
 20
44.2359
 11
119.769
 21
44.1458
  0
LINE
  8
0
 10
119.769
 20
44.1458
 11
119.526
 21
44.095
  0
LINE
  8
0
 10
119.526
 20
44.095
 11
119.279
 21
44.0847
  0
LINE
  8
0
 10
119.279
 20
44.0847
 11
119.033
 21
44.1154
  0
LINE
  8
0
 10
93.8764
 20
46.35
 11
93.6318
 21
46.3869
  0
LINE
  8
0
 10
93.6318
 20
46.3869
 11
93.3955
 21
46.4597
  0
LINE
  8
0
 10
93.3955
 20
46.4597
 11
93.1727
 21
46.567
  0
LINE
  8
0
 10
93.1727
 20
46.567
 11
92.9684
 21
46.7064
  0
LINE
  8
0
 10
92.9684
 20
46.7064
 11
92.7871
 21
46.8746
  0
LINE
  8
0
 10
92.7871
 20
46.8746
 11
92.6329
 21
47.0679
  0
LINE
  8
0
 10
92.6329
 20
47.0679
 11
92.5092
 21
47.2821
  0
LINE
  8
0
 10
92.5092
 20
47.2821
 11
92.4189
 21
47.5123
  0
LINE
  8
0
 10
92.4189
 20
47.5123
 11
92.3639
 21
47.7534
  0
LINE
  8
0
 10
92.3639
 20
47.7534
 11
92.3454
 21
48
  0
LINE
  8
0
 10
92.3454
 20
48
 11
92.3639
 21
48.2466
  0
LINE
  8
0
 10
92.3639
 20
48.2466
 11
92.4189
 21
48.4877
  0
LINE
  8
0
 10
92.4189
 20
48.4877
 11
92.5092
 21
48.7179
  0
LINE
  8
0
 10
92.5092
 20
48.7179
 11
92.6329
 21
48.9321
  0
LINE
  8
0
 10
92.6329
 20
48.9321
 11
92.7871
 21
49.1254
  0
LINE
  8
0
 10
92.7871
 20
49.1254
 11
92.9684
 21
49.2936
  0
LINE
  8
0
 10
92.9684
 20
49.2936
 11
93.1727
 21
49.4329
  0
LINE
  8
0
 10
93.1727
 20
49.4329
 11
93.3955
 21
49.5402
  0
LINE
  8
0
 10
93.3955
 20
49.5402
 11
93.6318
 21
49.6131
  0
LINE
  8
0
 10
93.6318
 20
49.6131
 11
93.8764
 21
49.65
  0
LINE
  8
0
 10
93.8764
 20
49.65
 11
94.1237
 21
49.65
  0
LINE
  8
0
 10
94.1237
 20
49.65
 11
94.3682
 21
49.6131
  0
LINE
  8
0
 10
94.3682
 20
49.6131
 11
94.6045
 21
49.5402
  0
LINE
  8
0
 10
94.6045
 20
49.5402
 11
94.8273
 21
49.4329
  0
LINE
  8
0
 10
94.8273
 20
49.4329
 11
95.0316
 21
49.2936
  0
LINE
  8
0
 10
95.0316
 20
49.2936
 11
95.2129
 21
49.1254
  0
LINE
  8
0
 10
95.2129
 20
49.1254
 11
95.3671
 21
48.9321
  0
LINE
  8
0
 10
95.3671
 20
48.9321
 11
95.4908
 21
48.7179
  0
LINE
  8
0
 10
95.4908
 20
48.7179
 11
95.5811
 21
48.4877
  0
LINE
  8
0
 10
95.5811
 20
48.4877
 11
95.6362
 21
48.2466
  0
LINE
  8
0
 10
95.6362
 20
48.2466
 11
95.6546
 21
48
  0
LINE
  8
0
 10
95.6546
 20
48
 11
95.6362
 21
47.7534
  0
LINE
  8
0
 10
95.6362
 20
47.7534
 11
95.5811
 21
47.5123
  0
LINE
  8
0
 10
95.5811
 20
47.5123
 11
95.4908
 21
47.2821
  0
LINE
  8
0
 10
95.4908
 20
47.2821
 11
95.3671
 21
47.0679
  0
LINE
  8
0
 10
95.3671
 20
47.0679
 11
95.2129
 21
46.8746
  0
LINE
  8
0
 10
95.2129
 20
46.8746
 11
95.0316
 21
46.7064
  0
LINE
  8
0
 10
95.0316
 20
46.7064
 11
94.8273
 21
46.567
  0
LINE
  8
0
 10
94.8273
 20
46.567
 11
94.6045
 21
46.4597
  0
LINE
  8
0
 10
94.6045
 20
46.4597
 11
94.3682
 21
46.3869
  0
LINE
  8
0
 10
94.3682
 20
46.3869
 11
94.1237
 21
46.35
  0
LINE
  8
0
 10
94.1237
 20
46.35
 11
93.8764
 21
46.35
  0
LINE
  8
0
 10
125.876
 20
46.35
 11
125.632
 21
46.3869
  0
LINE
  8
0
 10
125.632
 20
46.3869
 11
125.395
 21
46.4597
  0
LINE
  8
0
 10
125.395
 20
46.4597
 11
125.173
 21
46.567
  0
LINE
  8
0
 10
125.173
 20
46.567
 11
124.968
 21
46.7064
  0
LINE
  8
0
 10
124.968
 20
46.7064
 11
124.787
 21
46.8746
  0
LINE
  8
0
 10
124.787
 20
46.8746
 11
124.633
 21
47.0679
  0
LINE
  8
0
 10
124.633
 20
47.0679
 11
124.509
 21
47.2821
  0
LINE
  8
0
 10
124.509
 20
47.2821
 11
124.419
 21
47.5123
  0
LINE
  8
0
 10
124.419
 20
47.5123
 11
124.364
 21
47.7534
  0
LINE
  8
0
 10
124.364
 20
47.7534
 11
124.345
 21
48
  0
LINE
  8
0
 10
124.345
 20
48
 11
124.364
 21
48.2466
  0
LINE
  8
0
 10
124.364
 20
48.2466
 11
124.419
 21
48.4877
  0
LINE
  8
0
 10
124.419
 20
48.4877
 11
124.509
 21
48.7179
  0
LINE
  8
0
 10
124.509
 20
48.7179
 11
124.633
 21
48.9321
  0
LINE
  8
0
 10
124.633
 20
48.9321
 11
124.787
 21
49.1254
  0
LINE
  8
0
 10
124.787
 20
49.1254
 11
124.968
 21
49.2936
  0
LINE
  8
0
 10
124.968
 20
49.2936
 11
125.173
 21
49.4329
  0
LINE
  8
0
 10
125.173
 20
49.4329
 11
125.395
 21
49.5402
  0
LINE
  8
0
 10
125.395
 20
49.5402
 11
125.632
 21
49.6131
  0
LINE
  8
0
 10
125.632
 20
49.6131
 11
125.876
 21
49.65
  0
LINE
  8
0
 10
125.876
 20
49.65
 11
126.124
 21
49.65
  0
LINE
  8
0
 10
126.124
 20
49.65
 11
126.368
 21
49.6131
  0
LINE
  8
0
 10
126.368
 20
49.6131
 11
126.604
 21
49.5402
  0
LINE
  8
0
 10
126.604
 20
49.5402
 11
126.827
 21
49.4329
  0
LINE
  8
0
 10
126.827
 20
49.4329
 11
127.032
 21
49.2936
  0
LINE
  8
0
 10
127.032
 20
49.2936
 11
127.213
 21
49.1254
  0
LINE
  8
0
 10
127.213
 20
49.1254
 11
127.367
 21
48.9321
  0
LINE
  8
0
 10
127.367
 20
48.9321
 11
127.491
 21
48.7179
  0
LINE
  8
0
 10
127.491
 20
48.7179
 11
127.581
 21
48.4877
  0
LINE
  8
0
 10
127.581
 20
48.4877
 11
127.636
 21
48.2466
  0
LINE
  8
0
 10
127.636
 20
48.2466
 11
127.655
 21
48
  0
LINE
  8
0
 10
127.655
 20
48
 11
127.636
 21
47.7534
  0
LINE
  8
0
 10
127.636
 20
47.7534
 11
127.581
 21
47.5123
  0
LINE
  8
0
 10
127.581
 20
47.5123
 11
127.491
 21
47.2821
  0
LINE
  8
0
 10
127.491
 20
47.2821
 11
127.367
 21
47.0679
  0
LINE
  8
0
 10
127.367
 20
47.0679
 11
127.213
 21
46.8746
  0
LINE
  8
0
 10
127.213
 20
46.8746
 11
127.032
 21
46.7064
  0
LINE
  8
0
 10
127.032
 20
46.7064
 11
126.827
 21
46.567
  0
LINE
  8
0
 10
126.827
 20
46.567
 11
126.604
 21
46.4597
  0
LINE
  8
0
 10
126.604
 20
46.4597
 11
126.368
 21
46.3869
  0
LINE
  8
0
 10
126.368
 20
46.3869
 11
126.124
 21
46.35
  0
LINE
  8
0
 10
126.124
 20
46.35
 11
125.876
 21
46.35
  0
LINE
  8
0
 10
55.8763
 20
46.35
 11
55.6318
 21
46.3869
  0
LINE
  8
0
 10
55.6318
 20
46.3869
 11
55.3955
 21
46.4597
  0
LINE
  8
0
 10
55.3955
 20
46.4597
 11
55.1727
 21
46.567
  0
LINE
  8
0
 10
55.1727
 20
46.567
 11
54.9684
 21
46.7064
  0
LINE
  8
0
 10
54.9684
 20
46.7064
 11
54.7871
 21
46.8746
  0
LINE
  8
0
 10
54.7871
 20
46.8746
 11
54.6329
 21
47.0679
  0
LINE
  8
0
 10
54.6329
 20
47.0679
 11
54.5092
 21
47.2821
  0
LINE
  8
0
 10
54.5092
 20
47.2821
 11
54.4189
 21
47.5123
  0
LINE
  8
0
 10
54.4189
 20
47.5123
 11
54.3638
 21
47.7534
  0
LINE
  8
0
 10
54.3638
 20
47.7534
 11
54.3454
 21
48
  0
LINE
  8
0
 10
54.3454
 20
48
 11
54.3638
 21
48.2466
  0
LINE
  8
0
 10
54.3638
 20
48.2466
 11
54.4189
 21
48.4877
  0
LINE
  8
0
 10
54.4189
 20
48.4877
 11
54.5092
 21
48.7179
  0
LINE
  8
0
 10
54.5092
 20
48.7179
 11
54.6329
 21
48.9321
  0
LINE
  8
0
 10
54.6329
 20
48.9321
 11
54.7871
 21
49.1254
  0
LINE
  8
0
 10
54.7871
 20
49.1254
 11
54.9684
 21
49.2936
  0
LINE
  8
0
 10
54.9684
 20
49.2936
 11
55.1727
 21
49.4329
  0
LINE
  8
0
 10
55.1727
 20
49.4329
 11
55.3955
 21
49.5402
  0
LINE
  8
0
 10
55.3955
 20
49.5402
 11
55.6318
 21
49.6131
  0
LINE
  8
0
 10
55.6318
 20
49.6131
 11
55.8763
 21
49.65
  0
LINE
  8
0
 10
55.8763
 20
49.65
 11
56.1236
 21
49.65
  0
LINE
  8
0
 10
56.1236
 20
49.65
 11
56.3682
 21
49.6131
  0
LINE
  8
0
 10
56.3682
 20
49.6131
 11
56.6045
 21
49.5402
  0
LINE
  8
0
 10
56.6045
 20
49.5402
 11
56.8273
 21
49.4329
  0
LINE
  8
0
 10
56.8273
 20
49.4329
 11
57.0316
 21
49.2936
  0
LINE
  8
0
 10
57.0316
 20
49.2936
 11
57.2129
 21
49.1254
  0
LINE
  8
0
 10
57.2129
 20
49.1254
 11
57.3671
 21
48.9321
  0
LINE
  8
0
 10
57.3671
 20
48.9321
 11
57.4908
 21
48.7179
  0
LINE
  8
0
 10
57.4908
 20
48.7179
 11
57.5811
 21
48.4877
  0
LINE
  8
0
 10
57.5811
 20
48.4877
 11
57.6361
 21
48.2466
  0
LINE
  8
0
 10
57.6361
 20
48.2466
 11
57.6546
 21
48
  0
LINE
  8
0
 10
57.6546
 20
48
 11
57.6361
 21
47.7534
  0
LINE
  8
0
 10
57.6361
 20
47.7534
 11
57.5811
 21
47.5123
  0
LINE
  8
0
 10
57.5811
 20
47.5123
 11
57.4908
 21
47.2821
  0
LINE
  8
0
 10
57.4908
 20
47.2821
 11
57.3671
 21
47.0679
  0
LINE
  8
0
 10
57.3671
 20
47.0679
 11
57.2129
 21
46.8746
  0
LINE
  8
0
 10
57.2129
 20
46.8746
 11
57.0316
 21
46.7064
  0
LINE
  8
0
 10
57.0316
 20
46.7064
 11
56.8273
 21
46.567
  0
LINE
  8
0
 10
56.8273
 20
46.567
 11
56.6045
 21
46.4597
  0
LINE
  8
0
 10
56.6045
 20
46.4597
 11
56.3682
 21
46.3869
  0
LINE
  8
0
 10
56.3682
 20
46.3869
 11
56.1236
 21
46.35
  0
LINE
  8
0
 10
56.1236
 20
46.35
 11
55.8763
 21
46.35
  0
LINE
  8
0
 10
23.8764
 20
46.35
 11
23.6318
 21
46.3869
  0
LINE
  8
0
 10
23.6318
 20
46.3869
 11
23.3955
 21
46.4597
  0
LINE
  8
0
 10
23.3955
 20
46.4597
 11
23.1727
 21
46.567
  0
LINE
  8
0
 10
23.1727
 20
46.567
 11
22.9684
 21
46.7064
  0
LINE
  8
0
 10
22.9684
 20
46.7064
 11
22.7871
 21
46.8746
  0
LINE
  8
0
 10
22.7871
 20
46.8746
 11
22.6329
 21
47.0679
  0
LINE
  8
0
 10
22.6329
 20
47.0679
 11
22.5092
 21
47.2821
  0
LINE
  8
0
 10
22.5092
 20
47.2821
 11
22.4189
 21
47.5123
  0
LINE
  8
0
 10
22.4189
 20
47.5123
 11
22.3639
 21
47.7534
  0
LINE
  8
0
 10
22.3639
 20
47.7534
 11
22.3454
 21
48
  0
LINE
  8
0
 10
22.3454
 20
48
 11
22.3639
 21
48.2466
  0
LINE
  8
0
 10
22.3639
 20
48.2466
 11
22.4189
 21
48.4877
  0
LINE
  8
0
 10
22.4189
 20
48.4877
 11
22.5092
 21
48.7179
  0
LINE
  8
0
 10
22.5092
 20
48.7179
 11
22.6329
 21
48.9321
  0
LINE
  8
0
 10
22.6329
 20
48.9321
 11
22.7871
 21
49.1254
  0
LINE
  8
0
 10
22.7871
 20
49.1254
 11
22.9684
 21
49.2936
  0
LINE
  8
0
 10
22.9684
 20
49.2936
 11
23.1727
 21
49.4329
  0
LINE
  8
0
 10
23.1727
 20
49.4329
 11
23.3955
 21
49.5402
  0
LINE
  8
0
 10
23.3955
 20
49.5402
 11
23.6318
 21
49.6131
  0
LINE
  8
0
 10
23.6318
 20
49.6131
 11
23.8764
 21
49.65
  0
LINE
  8
0
 10
23.8764
 20
49.65
 11
24.1237
 21
49.65
  0
LINE
  8
0
 10
24.1237
 20
49.65
 11
24.3682
 21
49.6131
  0
LINE
  8
0
 10
24.3682
 20
49.6131
 11
24.6045
 21
49.5402
  0
LINE
  8
0
 10
24.6045
 20
49.5402
 11
24.8273
 21
49.4329
  0
LINE
  8
0
 10
24.8273
 20
49.4329
 11
25.0316
 21
49.2936
  0
LINE
  8
0
 10
25.0316
 20
49.2936
 11
25.2129
 21
49.1254
  0
LINE
  8
0
 10
25.2129
 20
49.1254
 11
25.3671
 21
48.9321
  0
LINE
  8
0
 10
25.3671
 20
48.9321
 11
25.4908
 21
48.7179
  0
LINE
  8
0
 10
25.4908
 20
48.7179
 11
25.5811
 21
48.4877
  0
LINE
  8
0
 10
25.5811
 20
48.4877
 11
25.6362
 21
48.2466
  0
LINE
  8
0
 10
25.6362
 20
48.2466
 11
25.6546
 21
48
  0
LINE
  8
0
 10
25.6546
 20
48
 11
25.6362
 21
47.7534
  0
LINE
  8
0
 10
25.6362
 20
47.7534
 11
25.5811
 21
47.5123
  0
LINE
  8
0
 10
25.5811
 20
47.5123
 11
25.4908
 21
47.2821
  0
LINE
  8
0
 10
25.4908
 20
47.2821
 11
25.3671
 21
47.0679
  0
LINE
  8
0
 10
25.3671
 20
47.0679
 11
25.2129
 21
46.8746
  0
LINE
  8
0
 10
25.2129
 20
46.8746
 11
25.0316
 21
46.7064
  0
LINE
  8
0
 10
25.0316
 20
46.7064
 11
24.8273
 21
46.567
  0
LINE
  8
0
 10
24.8273
 20
46.567
 11
24.6045
 21
46.4597
  0
LINE
  8
0
 10
24.6045
 20
46.4597
 11
24.3682
 21
46.3869
  0
LINE
  8
0
 10
24.3682
 20
46.3869
 11
24.1237
 21
46.35
  0
LINE
  8
0
 10
24.1237
 20
46.35
 11
23.8764
 21
46.35
  0
LINE
  8
0
 10
294.091
 20
42.3283
 11
293.851
 21
42.3911
  0
LINE
  8
0
 10
293.851
 20
42.3911
 11
293.623
 21
42.4881
  0
LINE
  8
0
 10
293.623
 20
42.4881
 11
293.411
 21
42.6174
  0
LINE
  8
0
 10
293.411
 20
42.6174
 11
293.22
 21
42.7762
  0
LINE
  8
0
 10
293.22
 20
42.7762
 11
293.054
 21
42.961
  0
LINE
  8
0
 10
293.054
 20
42.961
 11
292.918
 21
43.168
  0
LINE
  8
0
 10
292.918
 20
43.168
 11
292.812
 21
43.3927
  0
LINE
  8
0
 10
292.812
 20
43.3927
 11
292.741
 21
43.6304
  0
LINE
  8
0
 10
292.741
 20
43.6304
 11
292.705
 21
43.8759
  0
LINE
  8
0
 10
292.705
 20
43.8759
 11
292.705
 21
44.1241
  0
LINE
  8
0
 10
292.705
 20
44.1241
 11
292.741
 21
44.3696
  0
LINE
  8
0
 10
292.741
 20
44.3696
 11
292.812
 21
44.6073
  0
LINE
  8
0
 10
292.812
 20
44.6073
 11
292.918
 21
44.832
  0
LINE
  8
0
 10
292.918
 20
44.832
 11
293.054
 21
45.039
  0
LINE
  8
0
 10
293.054
 20
45.039
 11
293.22
 21
45.2238
  0
LINE
  8
0
 10
293.22
 20
45.2238
 11
293.411
 21
45.3826
  0
LINE
  8
0
 10
293.411
 20
45.3826
 11
293.623
 21
45.5119
  0
LINE
  8
0
 10
293.623
 20
45.5119
 11
293.851
 21
45.6089
  0
LINE
  8
0
 10
293.851
 20
45.6089
 11
294.091
 21
45.6717
  0
LINE
  8
0
 10
294.091
 20
45.6717
 11
294.338
 21
45.6989
  0
LINE
  8
0
 10
294.338
 20
45.6989
 11
294.586
 21
45.6898
  0
LINE
  8
0
 10
294.586
 20
45.6898
 11
294.83
 21
45.6447
  0
LINE
  8
0
 10
294.83
 20
45.6447
 11
295.065
 21
45.5646
  0
LINE
  8
0
 10
295.065
 20
45.5646
 11
295.286
 21
45.4511
  0
LINE
  8
0
 10
295.286
 20
45.4511
 11
295.487
 21
45.3067
  0
LINE
  8
0
 10
295.487
 20
45.3067
 11
295.666
 21
45.1344
  0
LINE
  8
0
 10
295.666
 20
45.1344
 11
295.818
 21
44.938
  0
LINE
  8
0
 10
295.818
 20
44.938
 11
295.939
 21
44.7216
  0
LINE
  8
0
 10
295.939
 20
44.7216
 11
296.028
 21
44.4898
  0
LINE
  8
0
 10
296.028
 20
44.4898
 11
296.082
 21
44.2475
  0
LINE
  8
0
 10
296.082
 20
44.2475
 11
296.1
 21
44
  0
LINE
  8
0
 10
296.1
 20
44
 11
296.082
 21
43.7525
  0
LINE
  8
0
 10
296.082
 20
43.7525
 11
296.028
 21
43.5102
  0
LINE
  8
0
 10
296.028
 20
43.5102
 11
295.939
 21
43.2784
  0
LINE
  8
0
 10
295.939
 20
43.2784
 11
295.818
 21
43.062
  0
LINE
  8
0
 10
295.818
 20
43.062
 11
295.666
 21
42.8656
  0
LINE
  8
0
 10
295.666
 20
42.8656
 11
295.487
 21
42.6933
  0
LINE
  8
0
 10
295.487
 20
42.6933
 11
295.286
 21
42.5489
  0
LINE
  8
0
 10
295.286
 20
42.5489
 11
295.065
 21
42.4354
  0
LINE
  8
0
 10
295.065
 20
42.4354
 11
294.83
 21
42.3553
  0
LINE
  8
0
 10
294.83
 20
42.3553
 11
294.586
 21
42.3102
  0
LINE
  8
0
 10
294.586
 20
42.3102
 11
294.338
 21
42.3011
  0
LINE
  8
0
 10
294.338
 20
42.3011
 11
294.091
 21
42.3283
  0
LINE
  8
0
 10
4.31406
 20
42.3102
 11
4.07001
 21
42.3553
  0
LINE
  8
0
 10
4.07001
 20
42.3553
 11
3.83511
 21
42.4354
  0
LINE
  8
0
 10
3.83511
 20
42.4354
 11
3.6144
 21
42.5489
  0
LINE
  8
0
 10
3.6144
 20
42.5489
 11
3.41255
 21
42.6933
  0
LINE
  8
0
 10
3.41255
 20
42.6933
 11
3.23389
 21
42.8656
  0
LINE
  8
0
 10
3.23389
 20
42.8656
 11
3.0822
 21
43.062
  0
LINE
  8
0
 10
3.0822
 20
43.062
 11
2.96072
 21
43.2784
  0
LINE
  8
0
 10
2.96072
 20
43.2784
 11
2.87207
 21
43.5102
  0
LINE
  8
0
 10
2.87207
 20
43.5102
 11
2.81812
 21
43.7525
  0
LINE
  8
0
 10
2.81812
 20
43.7525
 11
2.79999
 21
44
  0
LINE
  8
0
 10
2.79999
 20
44
 11
2.81812
 21
44.2475
  0
LINE
  8
0
 10
2.81812
 20
44.2475
 11
2.87207
 21
44.4898
  0
LINE
  8
0
 10
2.87207
 20
44.4898
 11
2.96072
 21
44.7216
  0
LINE
  8
0
 10
2.96072
 20
44.7216
 11
3.0822
 21
44.938
  0
LINE
  8
0
 10
3.0822
 20
44.938
 11
3.23389
 21
45.1344
  0
LINE
  8
0
 10
3.23389
 20
45.1344
 11
3.41255
 21
45.3067
  0
LINE
  8
0
 10
3.41255
 20
45.3067
 11
3.6144
 21
45.4511
  0
LINE
  8
0
 10
3.6144
 20
45.4511
 11
3.83511
 21
45.5646
  0
LINE
  8
0
 10
3.83511
 20
45.5646
 11
4.07001
 21
45.6447
  0
LINE
  8
0
 10
4.07001
 20
45.6447
 11
4.31406
 21
45.6898
  0
LINE
  8
0
 10
4.31406
 20
45.6898
 11
4.56209
 21
45.6989
  0
LINE
  8
0
 10
4.56209
 20
45.6989
 11
4.80878
 21
45.6717
  0
LINE
  8
0
 10
4.80878
 20
45.6717
 11
5.04889
 21
45.6089
  0
LINE
  8
0
 10
5.04889
 20
45.6089
 11
5.2773
 21
45.5119
  0
LINE
  8
0
 10
5.2773
 20
45.5119
 11
5.48915
 21
45.3826
  0
LINE
  8
0
 10
5.48915
 20
45.3826
 11
5.67992
 21
45.2238
  0
LINE
  8
0
 10
5.67992
 20
45.2238
 11
5.84554
 21
45.039
  0
LINE
  8
0
 10
5.84554
 20
45.039
 11
5.98248
 21
44.832
  0
LINE
  8
0
 10
5.98248
 20
44.832
 11
6.08781
 21
44.6073
  0
LINE
  8
0
 10
6.08781
 20
44.6073
 11
6.15932
 21
44.3696
  0
LINE
  8
0
 10
6.15932
 20
44.3696
 11
6.19547
 21
44.1241
  0
LINE
  8
0
 10
6.19547
 20
44.1241
 11
6.19547
 21
43.8759
  0
LINE
  8
0
 10
6.19547
 20
43.8759
 11
6.15932
 21
43.6304
  0
LINE
  8
0
 10
6.15932
 20
43.6304
 11
6.08781
 21
43.3927
  0
LINE
  8
0
 10
6.08781
 20
43.3927
 11
5.98248
 21
43.168
  0
LINE
  8
0
 10
5.98248
 20
43.168
 11
5.84554
 21
42.961
  0
LINE
  8
0
 10
5.84554
 20
42.961
 11
5.67992
 21
42.7762
  0
LINE
  8
0
 10
5.67992
 20
42.7762
 11
5.48915
 21
42.6174
  0
LINE
  8
0
 10
5.48915
 20
42.6174
 11
5.2773
 21
42.4881
  0
LINE
  8
0
 10
5.2773
 20
42.4881
 11
5.04889
 21
42.3911
  0
LINE
  8
0
 10
5.04889
 20
42.3911
 11
4.80878
 21
42.3283
  0
LINE
  8
0
 10
4.80878
 20
42.3283
 11
4.56209
 21
42.3011
  0
LINE
  8
0
 10
4.56209
 20
42.3011
 11
4.31406
 21
42.3102
  0
LINE
  8
0
 10
34.3583
 20
40.1279
 11
34.1197
 21
40.1946
  0
LINE
  8
0
 10
34.1197
 20
40.1946
 11
33.8954
 21
40.2997
  0
LINE
  8
0
 10
33.8954
 20
40.2997
 11
33.6914
 21
40.4403
  0
LINE
  8
0
 10
33.6914
 20
40.4403
 11
33.5811
 21
40.5402
  0
LINE
  8
0
 10
33.5811
 20
40.5402
 11
33.213
 21
40.9084
  0
LINE
  8
0
 10
33.213
 20
40.9084
 11
33.0528
 21
41.0974
  0
LINE
  8
0
 10
33.0528
 20
41.0974
 11
32.926
 21
41.3102
  0
LINE
  8
0
 10
32.926
 20
41.3102
 11
32.836
 21
41.541
  0
LINE
  8
0
 10
32.836
 20
41.541
 11
32.7851
 21
41.7835
  0
LINE
  8
0
 10
32.7851
 20
41.7835
 11
32.7749
 21
42.031
  0
LINE
  8
0
 10
32.7749
 20
42.031
 11
32.8055
 21
42.2768
  0
LINE
  8
0
 10
32.8055
 20
42.2768
 11
32.8762
 21
42.5143
  0
LINE
  8
0
 10
32.8762
 20
42.5143
 11
32.985
 21
42.7368
  0
LINE
  8
0
 10
32.985
 20
42.7368
 11
33.129
 21
42.9385
  0
LINE
  8
0
 10
33.129
 20
42.9385
 11
33.3042
 21
43.1136
  0
LINE
  8
0
 10
33.3042
 20
43.1136
 11
33.5926
 21
43.3055
  0
LINE
  8
0
 10
33.5926
 20
43.3055
 11
34.6423
 21
43.8403
  0
LINE
  8
0
 10
34.6423
 20
43.8403
 11
34.7857
 21
43.9042
  0
LINE
  8
0
 10
34.7857
 20
43.9042
 11
35.9095
 21
44.3356
  0
LINE
  8
0
 10
35.9095
 20
44.3356
 11
36.0588
 21
44.3841
  0
LINE
  8
0
 10
36.0588
 20
44.3841
 11
37.2211
 21
44.6955
  0
LINE
  8
0
 10
37.2211
 20
44.6955
 11
37.3747
 21
44.7282
  0
LINE
  8
0
 10
37.3747
 20
44.7282
 11
38.5636
 21
44.9165
  0
LINE
  8
0
 10
38.5636
 20
44.9165
 11
38.7197
 21
44.9329
  0
LINE
  8
0
 10
38.7197
 20
44.9329
 11
39.9215
 21
44.9959
  0
LINE
  8
0
 10
39.9215
 20
44.9959
 11
40.0785
 21
44.9959
  0
LINE
  8
0
 10
40.0785
 20
44.9959
 11
41.2803
 21
44.9329
  0
LINE
  8
0
 10
41.2803
 20
44.9329
 11
41.4364
 21
44.9165
  0
LINE
  8
0
 10
41.4364
 20
44.9165
 11
42.6253
 21
44.7282
  0
LINE
  8
0
 10
42.6253
 20
44.7282
 11
42.7789
 21
44.6955
  0
LINE
  8
0
 10
42.7789
 20
44.6955
 11
43.9412
 21
44.3841
  0
LINE
  8
0
 10
43.9412
 20
44.3841
 11
44.0905
 21
44.3356
  0
LINE
  8
0
 10
44.0905
 20
44.3356
 11
45.2143
 21
43.9042
  0
LINE
  8
0
 10
45.2143
 20
43.9042
 11
45.3577
 21
43.8403
  0
LINE
  8
0
 10
45.3577
 20
43.8403
 11
46.4074
 21
43.3055
  0
LINE
  8
0
 10
46.4074
 20
43.3055
 11
46.6181
 21
43.1752
  0
LINE
  8
0
 10
46.6181
 20
43.1752
 11
46.8044
 21
43.012
  0
LINE
  8
0
 10
46.8044
 20
43.012
 11
46.9614
 21
42.8203
  0
LINE
  8
0
 10
46.9614
 20
42.8203
 11
47.0847
 21
42.6054
  0
LINE
  8
0
 10
47.0847
 20
42.6054
 11
47.1709
 21
42.3732
  0
LINE
  8
0
 10
47.1709
 20
42.3732
 11
47.2177
 21
42.1299
  0
LINE
  8
0
 10
47.2177
 20
42.1299
 11
47.2239
 21
41.8822
  0
LINE
  8
0
 10
47.2239
 20
41.8822
 11
47.1892
 21
41.6369
  0
LINE
  8
0
 10
47.1892
 20
41.6369
 11
47.1145
 21
41.4007
  0
LINE
  8
0
 10
47.1145
 20
41.4007
 11
47.0021
 21
41.18
  0
LINE
  8
0
 10
47.0021
 20
41.18
 11
46.787
 21
40.9084
  0
LINE
  8
0
 10
46.787
 20
40.9084
 11
46.4189
 21
40.5402
  0
LINE
  8
0
 10
46.4189
 20
40.5402
 11
46.2298
 21
40.3801
  0
LINE
  8
0
 10
46.2298
 20
40.3801
 11
46.017
 21
40.2533
  0
LINE
  8
0
 10
46.017
 20
40.2533
 11
45.7862
 21
40.1632
  0
LINE
  8
0
 10
45.7862
 20
40.1632
 11
45.5437
 21
40.1124
  0
LINE
  8
0
 10
45.5437
 20
40.1124
 11
45.2962
 21
40.1021
  0
LINE
  8
0
 10
45.2962
 20
40.1021
 11
45.0504
 21
40.1328
  0
LINE
  8
0
 10
45.0504
 20
40.1328
 11
44.8129
 21
40.2034
  0
LINE
  8
0
 10
44.8129
 20
40.2034
 11
44.6772
 21
40.2643
  0
LINE
  8
0
 10
44.6772
 20
40.2643
 11
43.8991
 21
40.6608
  0
LINE
  8
0
 10
43.8991
 20
40.6608
 11
43.8273
 21
40.6928
  0
LINE
  8
0
 10
43.8273
 20
40.6928
 11
42.9724
 21
41.0209
  0
LINE
  8
0
 10
42.9724
 20
41.0209
 11
42.8977
 21
41.0452
  0
LINE
  8
0
 10
42.8977
 20
41.0452
 11
42.0131
 21
41.2822
  0
LINE
  8
0
 10
42.0131
 20
41.2822
 11
41.9364
 21
41.2985
  0
LINE
  8
0
 10
41.9364
 20
41.2985
 11
41.0317
 21
41.4418
  0
LINE
  8
0
 10
41.0317
 20
41.4418
 11
40.9538
 21
41.45
  0
LINE
  8
0
 10
40.9538
 20
41.45
 11
40.0393
 21
41.4979
  0
LINE
  8
0
 10
40.0393
 20
41.4979
 11
39.9607
 21
41.4979
  0
LINE
  8
0
 10
39.9607
 20
41.4979
 11
39.0462
 21
41.45
  0
LINE
  8
0
 10
39.0462
 20
41.45
 11
38.9683
 21
41.4418
  0
LINE
  8
0
 10
38.9683
 20
41.4418
 11
38.0636
 21
41.2985
  0
LINE
  8
0
 10
38.0636
 20
41.2985
 11
37.9869
 21
41.2822
  0
LINE
  8
0
 10
37.9869
 20
41.2822
 11
37.1023
 21
41.0452
  0
LINE
  8
0
 10
37.1023
 20
41.0452
 11
37.0276
 21
41.0209
  0
LINE
  8
0
 10
37.0276
 20
41.0209
 11
36.1727
 21
40.6928
  0
LINE
  8
0
 10
36.1727
 20
40.6928
 11
36.1009
 21
40.6608
  0
LINE
  8
0
 10
36.1009
 20
40.6608
 11
35.3228
 21
40.2643
  0
LINE
  8
0
 10
35.3228
 20
40.2643
 11
35.0935
 21
40.1705
  0
LINE
  8
0
 10
35.0935
 20
40.1705
 11
34.8519
 21
40.1156
  0
LINE
  8
0
 10
34.8519
 20
40.1156
 11
34.6046
 21
40.1013
  0
LINE
  8
0
 10
34.6046
 20
40.1013
 11
34.3583
 21
40.1279
  0
LINE
  8
0
 10
104.358
 20
40.1279
 11
104.12
 21
40.1946
  0
LINE
  8
0
 10
104.12
 20
40.1946
 11
103.895
 21
40.2997
  0
LINE
  8
0
 10
103.895
 20
40.2997
 11
103.691
 21
40.4403
  0
LINE
  8
0
 10
103.691
 20
40.4403
 11
103.581
 21
40.5402
  0
LINE
  8
0
 10
103.581
 20
40.5402
 11
103.213
 21
40.9084
  0
LINE
  8
0
 10
103.213
 20
40.9084
 11
103.053
 21
41.0974
  0
LINE
  8
0
 10
103.053
 20
41.0974
 11
102.926
 21
41.3102
  0
LINE
  8
0
 10
102.926
 20
41.3102
 11
102.836
 21
41.541
  0
LINE
  8
0
 10
102.836
 20
41.541
 11
102.785
 21
41.7835
  0
LINE
  8
0
 10
102.785
 20
41.7835
 11
102.775
 21
42.031
  0
LINE
  8
0
 10
102.775
 20
42.031
 11
102.806
 21
42.2768
  0
LINE
  8
0
 10
102.806
 20
42.2768
 11
102.876
 21
42.5143
  0
LINE
  8
0
 10
102.876
 20
42.5143
 11
102.985
 21
42.7368
  0
LINE
  8
0
 10
102.985
 20
42.7368
 11
103.129
 21
42.9385
  0
LINE
  8
0
 10
103.129
 20
42.9385
 11
103.304
 21
43.1136
  0
LINE
  8
0
 10
103.304
 20
43.1136
 11
103.593
 21
43.3055
  0
LINE
  8
0
 10
103.593
 20
43.3055
 11
104.642
 21
43.8403
  0
LINE
  8
0
 10
104.642
 20
43.8403
 11
104.786
 21
43.9042
  0
LINE
  8
0
 10
104.786
 20
43.9042
 11
105.909
 21
44.3356
  0
LINE
  8
0
 10
105.909
 20
44.3356
 11
106.059
 21
44.3841
  0
LINE
  8
0
 10
106.059
 20
44.3841
 11
107.221
 21
44.6955
  0
LINE
  8
0
 10
107.221
 20
44.6955
 11
107.375
 21
44.7282
  0
LINE
  8
0
 10
107.375
 20
44.7282
 11
108.564
 21
44.9165
  0
LINE
  8
0
 10
108.564
 20
44.9165
 11
108.72
 21
44.9329
  0
LINE
  8
0
 10
108.72
 20
44.9329
 11
109.921
 21
44.9959
  0
LINE
  8
0
 10
109.921
 20
44.9959
 11
110.079
 21
44.9959
  0
LINE
  8
0
 10
110.079
 20
44.9959
 11
111.28
 21
44.9329
  0
LINE
  8
0
 10
111.28
 20
44.9329
 11
111.436
 21
44.9165
  0
LINE
  8
0
 10
111.436
 20
44.9165
 11
112.625
 21
44.7282
  0
LINE
  8
0
 10
112.625
 20
44.7282
 11
112.779
 21
44.6955
  0
LINE
  8
0
 10
112.779
 20
44.6955
 11
113.941
 21
44.3841
  0
LINE
  8
0
 10
113.941
 20
44.3841
 11
114.091
 21
44.3356
  0
LINE
  8
0
 10
114.091
 20
44.3356
 11
115.214
 21
43.9042
  0
LINE
  8
0
 10
115.214
 20
43.9042
 11
115.358
 21
43.8403
  0
LINE
  8
0
 10
115.358
 20
43.8403
 11
116.407
 21
43.3055
  0
LINE
  8
0
 10
116.407
 20
43.3055
 11
116.618
 21
43.1752
  0
LINE
  8
0
 10
116.618
 20
43.1752
 11
116.804
 21
43.012
  0
LINE
  8
0
 10
116.804
 20
43.012
 11
116.961
 21
42.8203
  0
LINE
  8
0
 10
116.961
 20
42.8203
 11
117.085
 21
42.6054
  0
LINE
  8
0
 10
117.085
 20
42.6054
 11
117.171
 21
42.3732
  0
LINE
  8
0
 10
117.171
 20
42.3732
 11
117.218
 21
42.1299
  0
LINE
  8
0
 10
117.218
 20
42.1299
 11
117.224
 21
41.8822
  0
LINE
  8
0
 10
117.224
 20
41.8822
 11
117.189
 21
41.6369
  0
LINE
  8
0
 10
117.189
 20
41.6369
 11
117.115
 21
41.4007
  0
LINE
  8
0
 10
117.115
 20
41.4007
 11
117.002
 21
41.18
  0
LINE
  8
0
 10
117.002
 20
41.18
 11
116.787
 21
40.9084
  0
LINE
  8
0
 10
116.787
 20
40.9084
 11
116.419
 21
40.5402
  0
LINE
  8
0
 10
116.419
 20
40.5402
 11
116.23
 21
40.3801
  0
LINE
  8
0
 10
116.23
 20
40.3801
 11
116.017
 21
40.2533
  0
LINE
  8
0
 10
116.017
 20
40.2533
 11
115.786
 21
40.1632
  0
LINE
  8
0
 10
115.786
 20
40.1632
 11
115.544
 21
40.1124
  0
LINE
  8
0
 10
115.544
 20
40.1124
 11
115.296
 21
40.1021
  0
LINE
  8
0
 10
115.296
 20
40.1021
 11
115.05
 21
40.1328
  0
LINE
  8
0
 10
115.05
 20
40.1328
 11
114.813
 21
40.2034
  0
LINE
  8
0
 10
114.813
 20
40.2034
 11
114.677
 21
40.2643
  0
LINE
  8
0
 10
114.677
 20
40.2643
 11
113.899
 21
40.6608
  0
LINE
  8
0
 10
113.899
 20
40.6608
 11
113.827
 21
40.6928
  0
LINE
  8
0
 10
113.827
 20
40.6928
 11
112.972
 21
41.0209
  0
LINE
  8
0
 10
112.972
 20
41.0209
 11
112.898
 21
41.0452
  0
LINE
  8
0
 10
112.898
 20
41.0452
 11
112.013
 21
41.2822
  0
LINE
  8
0
 10
112.013
 20
41.2822
 11
111.936
 21
41.2985
  0
LINE
  8
0
 10
111.936
 20
41.2985
 11
111.032
 21
41.4418
  0
LINE
  8
0
 10
111.032
 20
41.4418
 11
110.954
 21
41.45
  0
LINE
  8
0
 10
110.954
 20
41.45
 11
110.039
 21
41.4979
  0
LINE
  8
0
 10
110.039
 20
41.4979
 11
109.961
 21
41.4979
  0
LINE
  8
0
 10
109.961
 20
41.4979
 11
109.046
 21
41.45
  0
LINE
  8
0
 10
109.046
 20
41.45
 11
108.968
 21
41.4418
  0
LINE
  8
0
 10
108.968
 20
41.4418
 11
108.064
 21
41.2985
  0
LINE
  8
0
 10
108.064
 20
41.2985
 11
107.987
 21
41.2822
  0
LINE
  8
0
 10
107.987
 20
41.2822
 11
107.102
 21
41.0452
  0
LINE
  8
0
 10
107.102
 20
41.0452
 11
107.028
 21
41.0209
  0
LINE
  8
0
 10
107.028
 20
41.0209
 11
106.173
 21
40.6928
  0
LINE
  8
0
 10
106.173
 20
40.6928
 11
106.101
 21
40.6608
  0
LINE
  8
0
 10
106.101
 20
40.6608
 11
105.323
 21
40.2643
  0
LINE
  8
0
 10
105.323
 20
40.2643
 11
105.094
 21
40.1705
  0
LINE
  8
0
 10
105.094
 20
40.1705
 11
104.852
 21
40.1156
  0
LINE
  8
0
 10
104.852
 20
40.1156
 11
104.605
 21
40.1013
  0
LINE
  8
0
 10
104.605
 20
40.1013
 11
104.358
 21
40.1279
  0
LINE
  8
0
 10
95.7507
 20
20.8331
 11
95.5133
 21
20.9038
  0
LINE
  8
0
 10
95.5133
 20
20.9038
 11
95.2907
 21
21.0126
  0
LINE
  8
0
 10
95.2907
 20
21.0126
 11
95.0891
 21
21.1566
  0
LINE
  8
0
 10
95.0891
 20
21.1566
 11
94.9139
 21
21.3317
  0
LINE
  8
0
 10
94.9139
 20
21.3317
 11
94.8005
 21
21.4842
  0
LINE
  8
0
 10
94.8005
 20
21.4842
 11
94.0214
 21
22.6841
  0
LINE
  8
0
 10
94.0214
 20
22.6841
 11
93.9429
 21
22.82
  0
LINE
  8
0
 10
93.9429
 20
22.82
 11
93.1351
 21
24.4053
  0
LINE
  8
0
 10
93.1351
 20
24.4053
 11
93.0712
 21
24.5488
  0
LINE
  8
0
 10
93.0712
 20
24.5488
 11
92.4336
 21
26.2098
  0
LINE
  8
0
 10
92.4336
 20
26.2098
 11
92.3851
 21
26.3591
  0
LINE
  8
0
 10
92.3851
 20
26.3591
 11
91.9246
 21
28.0777
  0
LINE
  8
0
 10
91.9246
 20
28.0777
 11
91.892
 21
28.2313
  0
LINE
  8
0
 10
91.892
 20
28.2313
 11
91.6136
 21
29.9887
  0
LINE
  8
0
 10
91.6136
 20
29.9887
 11
91.5972
 21
30.1448
  0
LINE
  8
0
 10
91.5972
 20
30.1448
 11
91.5041
 21
31.9215
  0
LINE
  8
0
 10
91.5041
 20
31.9215
 11
91.5041
 21
32.0785
  0
LINE
  8
0
 10
91.5041
 20
32.0785
 11
91.5972
 21
33.8552
  0
LINE
  8
0
 10
91.5972
 20
33.8552
 11
91.6136
 21
34.0113
  0
LINE
  8
0
 10
91.6136
 20
34.0113
 11
91.892
 21
35.7687
  0
LINE
  8
0
 10
91.892
 20
35.7687
 11
91.9246
 21
35.9223
  0
LINE
  8
0
 10
91.9246
 20
35.9223
 11
92.3851
 21
37.6409
  0
LINE
  8
0
 10
92.3851
 20
37.6409
 11
92.4336
 21
37.7902
  0
LINE
  8
0
 10
92.4336
 20
37.7902
 11
93.0712
 21
39.4512
  0
LINE
  8
0
 10
93.0712
 20
39.4512
 11
93.1351
 21
39.5947
  0
LINE
  8
0
 10
93.1351
 20
39.5947
 11
93.9429
 21
41.18
  0
LINE
  8
0
 10
93.9429
 20
41.18
 11
94.0214
 21
41.3159
  0
LINE
  8
0
 10
94.0214
 20
41.3159
 11
94.8005
 21
42.5158
  0
LINE
  8
0
 10
94.8005
 20
42.5158
 11
94.9522
 21
42.7117
  0
LINE
  8
0
 10
94.9522
 20
42.7117
 11
95.134
 21
42.88
  0
LINE
  8
0
 10
95.134
 20
42.88
 11
95.341
 21
43.0161
  0
LINE
  8
0
 10
95.341
 20
43.0161
 11
95.5676
 21
43.1162
  0
LINE
  8
0
 10
95.5676
 20
43.1162
 11
95.8076
 21
43.1777
  0
LINE
  8
0
 10
95.8076
 20
43.1777
 11
96.0544
 21
43.1988
  0
LINE
  8
0
 10
96.0544
 20
43.1988
 11
96.3014
 21
43.179
  0
LINE
  8
0
 10
96.3014
 20
43.179
 11
96.5417
 21
43.1189
  0
LINE
  8
0
 10
96.5417
 20
43.1189
 11
96.7688
 21
43.02
  0
LINE
  8
0
 10
96.7688
 20
43.02
 11
96.9766
 21
42.8851
  0
LINE
  8
0
 10
96.9766
 20
42.8851
 11
97.1192
 21
42.7595
  0
LINE
  8
0
 10
97.1192
 20
42.7595
 11
97.4772
 21
42.4015
  0
LINE
  8
0
 10
97.4772
 20
42.4015
 11
97.6373
 21
42.2124
  0
LINE
  8
0
 10
97.6373
 20
42.2124
 11
97.7641
 21
41.9996
  0
LINE
  8
0
 10
97.7641
 20
41.9996
 11
97.8542
 21
41.7688
  0
LINE
  8
0
 10
97.8542
 20
41.7688
 11
97.905
 21
41.5264
  0
LINE
  8
0
 10
97.905
 20
41.5264
 11
97.9153
 21
41.2789
  0
LINE
  8
0
 10
97.9153
 20
41.2789
 11
97.8846
 21
41.033
  0
LINE
  8
0
 10
97.8846
 20
41.033
 11
97.8139
 21
40.7956
  0
LINE
  8
0
 10
97.8139
 20
40.7956
 11
97.6745
 21
40.5239
  0
LINE
  8
0
 10
97.6745
 20
40.5239
 11
97.031
 21
39.533
  0
LINE
  8
0
 10
97.031
 20
39.533
 11
96.9918
 21
39.465
  0
LINE
  8
0
 10
96.9918
 20
39.465
 11
96.3147
 21
38.136
  0
LINE
  8
0
 10
96.3147
 20
38.136
 11
96.2827
 21
38.0643
  0
LINE
  8
0
 10
96.2827
 20
38.0643
 11
95.7483
 21
36.672
  0
LINE
  8
0
 10
95.7483
 20
36.672
 11
95.7239
 21
36.5971
  0
LINE
  8
0
 10
95.7239
 20
36.5971
 11
95.338
 21
35.1568
  0
LINE
  8
0
 10
95.338
 20
35.1568
 11
95.3216
 21
35.0798
  0
LINE
  8
0
 10
95.3216
 20
35.0798
 11
95.0883
 21
33.6067
  0
LINE
  8
0
 10
95.0883
 20
33.6067
 11
95.0801
 21
33.5286
  0
LINE
  8
0
 10
95.0801
 20
33.5286
 11
95.0021
 21
32.0393
  0
LINE
  8
0
 10
95.0021
 20
32.0393
 11
95.0021
 21
31.9607
  0
LINE
  8
0
 10
95.0021
 20
31.9607
 11
95.0801
 21
30.4714
  0
LINE
  8
0
 10
95.0801
 20
30.4714
 11
95.0883
 21
30.3933
  0
LINE
  8
0
 10
95.0883
 20
30.3933
 11
95.3216
 21
28.9202
  0
LINE
  8
0
 10
95.3216
 20
28.9202
 11
95.338
 21
28.8432
  0
LINE
  8
0
 10
95.338
 20
28.8432
 11
95.7239
 21
27.4029
  0
LINE
  8
0
 10
95.7239
 20
27.4029
 11
95.7483
 21
27.328
  0
LINE
  8
0
 10
95.7483
 20
27.328
 11
96.2827
 21
25.9357
  0
LINE
  8
0
 10
96.2827
 20
25.9357
 11
96.3147
 21
25.864
  0
LINE
  8
0
 10
96.3147
 20
25.864
 11
96.9918
 21
24.535
  0
LINE
  8
0
 10
96.9918
 20
24.535
 11
97.031
 21
24.467
  0
LINE
  8
0
 10
97.031
 20
24.467
 11
97.6745
 21
23.4761
  0
LINE
  8
0
 10
97.6745
 20
23.4761
 11
97.7919
 21
23.2579
  0
LINE
  8
0
 10
97.7919
 20
23.2579
 11
97.8716
 21
23.0234
  0
LINE
  8
0
 10
97.8716
 20
23.0234
 11
97.9117
 21
22.7789
  0
LINE
  8
0
 10
97.9117
 20
22.7789
 11
97.9111
 21
22.5312
  0
LINE
  8
0
 10
97.9111
 20
22.5312
 11
97.8696
 21
22.2869
  0
LINE
  8
0
 10
97.8696
 20
22.2869
 11
97.7885
 21
22.0528
  0
LINE
  8
0
 10
97.7885
 20
22.0528
 11
97.67
 21
21.8353
  0
LINE
  8
0
 10
97.67
 20
21.8353
 11
97.4772
 21
21.5985
  0
LINE
  8
0
 10
97.4772
 20
21.5985
 11
97.1192
 21
21.2405
  0
LINE
  8
0
 10
97.1192
 20
21.2405
 11
96.9302
 21
21.0804
  0
LINE
  8
0
 10
96.9302
 20
21.0804
 11
96.7173
 21
20.9536
  0
LINE
  8
0
 10
96.7173
 20
20.9536
 11
96.4866
 21
20.8635
  0
LINE
  8
0
 10
96.4866
 20
20.8635
 11
96.2441
 21
20.8127
  0
LINE
  8
0
 10
96.2441
 20
20.8127
 11
95.9966
 21
20.8025
  0
LINE
  8
0
 10
95.9966
 20
20.8025
 11
95.7507
 21
20.8331
  0
LINE
  8
0
 10
25.7507
 20
20.8331
 11
25.5133
 21
20.9038
  0
LINE
  8
0
 10
25.5133
 20
20.9038
 11
25.2907
 21
21.0126
  0
LINE
  8
0
 10
25.2907
 20
21.0126
 11
25.0891
 21
21.1566
  0
LINE
  8
0
 10
25.0891
 20
21.1566
 11
24.9139
 21
21.3317
  0
LINE
  8
0
 10
24.9139
 20
21.3317
 11
24.8005
 21
21.4842
  0
LINE
  8
0
 10
24.8005
 20
21.4842
 11
24.0214
 21
22.6841
  0
LINE
  8
0
 10
24.0214
 20
22.6841
 11
23.9429
 21
22.82
  0
LINE
  8
0
 10
23.9429
 20
22.82
 11
23.1351
 21
24.4053
  0
LINE
  8
0
 10
23.1351
 20
24.4053
 11
23.0712
 21
24.5488
  0
LINE
  8
0
 10
23.0712
 20
24.5488
 11
22.4336
 21
26.2098
  0
LINE
  8
0
 10
22.4336
 20
26.2098
 11
22.3851
 21
26.3591
  0
LINE
  8
0
 10
22.3851
 20
26.3591
 11
21.9246
 21
28.0777
  0
LINE
  8
0
 10
21.9246
 20
28.0777
 11
21.892
 21
28.2313
  0
LINE
  8
0
 10
21.892
 20
28.2313
 11
21.6136
 21
29.9887
  0
LINE
  8
0
 10
21.6136
 20
29.9887
 11
21.5972
 21
30.1448
  0
LINE
  8
0
 10
21.5972
 20
30.1448
 11
21.5041
 21
31.9215
  0
LINE
  8
0
 10
21.5041
 20
31.9215
 11
21.5041
 21
32.0785
  0
LINE
  8
0
 10
21.5041
 20
32.0785
 11
21.5972
 21
33.8552
  0
LINE
  8
0
 10
21.5972
 20
33.8552
 11
21.6136
 21
34.0113
  0
LINE
  8
0
 10
21.6136
 20
34.0113
 11
21.892
 21
35.7687
  0
LINE
  8
0
 10
21.892
 20
35.7687
 11
21.9246
 21
35.9223
  0
LINE
  8
0
 10
21.9246
 20
35.9223
 11
22.3851
 21
37.6409
  0
LINE
  8
0
 10
22.3851
 20
37.6409
 11
22.4336
 21
37.7902
  0
LINE
  8
0
 10
22.4336
 20
37.7902
 11
23.0712
 21
39.4512
  0
LINE
  8
0
 10
23.0712
 20
39.4512
 11
23.1351
 21
39.5947
  0
LINE
  8
0
 10
23.1351
 20
39.5947
 11
23.9429
 21
41.18
  0
LINE
  8
0
 10
23.9429
 20
41.18
 11
24.0214
 21
41.3159
  0
LINE
  8
0
 10
24.0214
 20
41.3159
 11
24.8005
 21
42.5158
  0
LINE
  8
0
 10
24.8005
 20
42.5158
 11
24.9522
 21
42.7117
  0
LINE
  8
0
 10
24.9522
 20
42.7117
 11
25.134
 21
42.88
  0
LINE
  8
0
 10
25.134
 20
42.88
 11
25.341
 21
43.0161
  0
LINE
  8
0
 10
25.341
 20
43.0161
 11
25.5676
 21
43.1162
  0
LINE
  8
0
 10
25.5676
 20
43.1162
 11
25.8076
 21
43.1777
  0
LINE
  8
0
 10
25.8076
 20
43.1777
 11
26.0544
 21
43.1988
  0
LINE
  8
0
 10
26.0544
 20
43.1988
 11
26.3014
 21
43.179
  0
LINE
  8
0
 10
26.3014
 20
43.179
 11
26.5417
 21
43.1189
  0
LINE
  8
0
 10
26.5417
 20
43.1189
 11
26.7688
 21
43.02
  0
LINE
  8
0
 10
26.7688
 20
43.02
 11
26.9766
 21
42.8851
  0
LINE
  8
0
 10
26.9766
 20
42.8851
 11
27.1192
 21
42.7595
  0
LINE
  8
0
 10
27.1192
 20
42.7595
 11
27.4772
 21
42.4015
  0
LINE
  8
0
 10
27.4772
 20
42.4015
 11
27.6373
 21
42.2124
  0
LINE
  8
0
 10
27.6373
 20
42.2124
 11
27.7641
 21
41.9996
  0
LINE
  8
0
 10
27.7641
 20
41.9996
 11
27.8542
 21
41.7688
  0
LINE
  8
0
 10
27.8542
 20
41.7688
 11
27.905
 21
41.5264
  0
LINE
  8
0
 10
27.905
 20
41.5264
 11
27.9153
 21
41.2789
  0
LINE
  8
0
 10
27.9153
 20
41.2789
 11
27.8846
 21
41.033
  0
LINE
  8
0
 10
27.8846
 20
41.033
 11
27.8139
 21
40.7956
  0
LINE
  8
0
 10
27.8139
 20
40.7956
 11
27.6745
 21
40.5239
  0
LINE
  8
0
 10
27.6745
 20
40.5239
 11
27.031
 21
39.533
  0
LINE
  8
0
 10
27.031
 20
39.533
 11
26.9918
 21
39.465
  0
LINE
  8
0
 10
26.9918
 20
39.465
 11
26.3147
 21
38.136
  0
LINE
  8
0
 10
26.3147
 20
38.136
 11
26.2827
 21
38.0643
  0
LINE
  8
0
 10
26.2827
 20
38.0643
 11
25.7483
 21
36.672
  0
LINE
  8
0
 10
25.7483
 20
36.672
 11
25.7239
 21
36.5971
  0
LINE
  8
0
 10
25.7239
 20
36.5971
 11
25.338
 21
35.1568
  0
LINE
  8
0
 10
25.338
 20
35.1568
 11
25.3216
 21
35.0798
  0
LINE
  8
0
 10
25.3216
 20
35.0798
 11
25.0883
 21
33.6067
  0
LINE
  8
0
 10
25.0883
 20
33.6067
 11
25.0801
 21
33.5286
  0
LINE
  8
0
 10
25.0801
 20
33.5286
 11
25.0021
 21
32.0393
  0
LINE
  8
0
 10
25.0021
 20
32.0393
 11
25.0021
 21
31.9607
  0
LINE
  8
0
 10
25.0021
 20
31.9607
 11
25.0801
 21
30.4714
  0
LINE
  8
0
 10
25.0801
 20
30.4714
 11
25.0883
 21
30.3933
  0
LINE
  8
0
 10
25.0883
 20
30.3933
 11
25.3216
 21
28.9202
  0
LINE
  8
0
 10
25.3216
 20
28.9202
 11
25.338
 21
28.8432
  0
LINE
  8
0
 10
25.338
 20
28.8432
 11
25.7239
 21
27.4029
  0
LINE
  8
0
 10
25.7239
 20
27.4029
 11
25.7483
 21
27.328
  0
LINE
  8
0
 10
25.7483
 20
27.328
 11
26.2827
 21
25.9357
  0
LINE
  8
0
 10
26.2827
 20
25.9357
 11
26.3147
 21
25.864
  0
LINE
  8
0
 10
26.3147
 20
25.864
 11
26.9918
 21
24.535
  0
LINE
  8
0
 10
26.9918
 20
24.535
 11
27.031
 21
24.467
  0
LINE
  8
0
 10
27.031
 20
24.467
 11
27.6745
 21
23.4761
  0
LINE
  8
0
 10
27.6745
 20
23.4761
 11
27.7919
 21
23.2579
  0
LINE
  8
0
 10
27.7919
 20
23.2579
 11
27.8716
 21
23.0234
  0
LINE
  8
0
 10
27.8716
 20
23.0234
 11
27.9117
 21
22.7789
  0
LINE
  8
0
 10
27.9117
 20
22.7789
 11
27.9111
 21
22.5312
  0
LINE
  8
0
 10
27.9111
 20
22.5312
 11
27.8696
 21
22.2869
  0
LINE
  8
0
 10
27.8696
 20
22.2869
 11
27.7885
 21
22.0528
  0
LINE
  8
0
 10
27.7885
 20
22.0528
 11
27.67
 21
21.8353
  0
LINE
  8
0
 10
27.67
 20
21.8353
 11
27.4772
 21
21.5985
  0
LINE
  8
0
 10
27.4772
 20
21.5985
 11
27.1192
 21
21.2405
  0
LINE
  8
0
 10
27.1192
 20
21.2405
 11
26.9302
 21
21.0804
  0
LINE
  8
0
 10
26.9302
 20
21.0804
 11
26.7173
 21
20.9536
  0
LINE
  8
0
 10
26.7173
 20
20.9536
 11
26.4866
 21
20.8635
  0
LINE
  8
0
 10
26.4866
 20
20.8635
 11
26.2441
 21
20.8127
  0
LINE
  8
0
 10
26.2441
 20
20.8127
 11
25.9966
 21
20.8025
  0
LINE
  8
0
 10
25.9966
 20
20.8025
 11
25.7507
 21
20.8331
  0
LINE
  8
0
 10
123.699
 20
20.821
 11
123.458
 21
20.8811
  0
LINE
  8
0
 10
123.458
 20
20.8811
 11
123.231
 21
20.98
  0
LINE
  8
0
 10
123.231
 20
20.98
 11
123.023
 21
21.1149
  0
LINE
  8
0
 10
123.023
 20
21.1149
 11
122.881
 21
21.2405
  0
LINE
  8
0
 10
122.881
 20
21.2405
 11
122.523
 21
21.5985
  0
LINE
  8
0
 10
122.523
 20
21.5985
 11
122.363
 21
21.7876
  0
LINE
  8
0
 10
122.363
 20
21.7876
 11
122.236
 21
22.0004
  0
LINE
  8
0
 10
122.236
 20
22.0004
 11
122.146
 21
22.2312
  0
LINE
  8
0
 10
122.146
 20
22.2312
 11
122.095
 21
22.4736
  0
LINE
  8
0
 10
122.095
 20
22.4736
 11
122.085
 21
22.7211
  0
LINE
  8
0
 10
122.085
 20
22.7211
 11
122.115
 21
22.967
  0
LINE
  8
0
 10
122.115
 20
22.967
 11
122.186
 21
23.2044
  0
LINE
  8
0
 10
122.186
 20
23.2044
 11
122.325
 21
23.4761
  0
LINE
  8
0
 10
122.325
 20
23.4761
 11
122.969
 21
24.467
  0
LINE
  8
0
 10
122.969
 20
24.467
 11
123.008
 21
24.535
  0
LINE
  8
0
 10
123.008
 20
24.535
 11
123.685
 21
25.864
  0
LINE
  8
0
 10
123.685
 20
25.864
 11
123.717
 21
25.9357
  0
LINE
  8
0
 10
123.717
 20
25.9357
 11
124.252
 21
27.328
  0
LINE
  8
0
 10
124.252
 20
27.328
 11
124.276
 21
27.4029
  0
LINE
  8
0
 10
124.276
 20
27.4029
 11
124.662
 21
28.8432
  0
LINE
  8
0
 10
124.662
 20
28.8432
 11
124.678
 21
28.9202
  0
LINE
  8
0
 10
124.678
 20
28.9202
 11
124.912
 21
30.3933
  0
LINE
  8
0
 10
124.912
 20
30.3933
 11
124.92
 21
30.4714
  0
LINE
  8
0
 10
124.92
 20
30.4714
 11
124.998
 21
31.9607
  0
LINE
  8
0
 10
124.998
 20
31.9607
 11
124.998
 21
32.0393
  0
LINE
  8
0
 10
124.998
 20
32.0393
 11
124.92
 21
33.5286
  0
LINE
  8
0
 10
124.92
 20
33.5286
 11
124.912
 21
33.6067
  0
LINE
  8
0
 10
124.912
 20
33.6067
 11
124.678
 21
35.0798
  0
LINE
  8
0
 10
124.678
 20
35.0798
 11
124.662
 21
35.1568
  0
LINE
  8
0
 10
124.662
 20
35.1568
 11
124.276
 21
36.5971
  0
LINE
  8
0
 10
124.276
 20
36.5971
 11
124.252
 21
36.672
  0
LINE
  8
0
 10
124.252
 20
36.672
 11
123.717
 21
38.0643
  0
LINE
  8
0
 10
123.717
 20
38.0643
 11
123.685
 21
38.136
  0
LINE
  8
0
 10
123.685
 20
38.136
 11
123.008
 21
39.465
  0
LINE
  8
0
 10
123.008
 20
39.465
 11
122.969
 21
39.533
  0
LINE
  8
0
 10
122.969
 20
39.533
 11
122.325
 21
40.5239
  0
LINE
  8
0
 10
122.325
 20
40.5239
 11
122.208
 21
40.7421
  0
LINE
  8
0
 10
122.208
 20
40.7421
 11
122.128
 21
40.9766
  0
LINE
  8
0
 10
122.128
 20
40.9766
 11
122.088
 21
41.2211
  0
LINE
  8
0
 10
122.088
 20
41.2211
 11
122.089
 21
41.4688
  0
LINE
  8
0
 10
122.089
 20
41.4688
 11
122.13
 21
41.7131
  0
LINE
  8
0
 10
122.13
 20
41.7131
 11
122.211
 21
41.9472
  0
LINE
  8
0
 10
122.211
 20
41.9472
 11
122.33
 21
42.1647
  0
LINE
  8
0
 10
122.33
 20
42.1647
 11
122.523
 21
42.4015
  0
LINE
  8
0
 10
122.523
 20
42.4015
 11
122.881
 21
42.7595
  0
LINE
  8
0
 10
122.881
 20
42.7595
 11
123.07
 21
42.9196
  0
LINE
  8
0
 10
123.07
 20
42.9196
 11
123.283
 21
43.0464
  0
LINE
  8
0
 10
123.283
 20
43.0464
 11
123.513
 21
43.1365
  0
LINE
  8
0
 10
123.513
 20
43.1365
 11
123.756
 21
43.1873
  0
LINE
  8
0
 10
123.756
 20
43.1873
 11
124.003
 21
43.1975
  0
LINE
  8
0
 10
124.003
 20
43.1975
 11
124.249
 21
43.1669
  0
LINE
  8
0
 10
124.249
 20
43.1669
 11
124.487
 21
43.0962
  0
LINE
  8
0
 10
124.487
 20
43.0962
 11
124.709
 21
42.9874
  0
LINE
  8
0
 10
124.709
 20
42.9874
 11
124.911
 21
42.8434
  0
LINE
  8
0
 10
124.911
 20
42.8434
 11
125.086
 21
42.6683
  0
LINE
  8
0
 10
125.086
 20
42.6683
 11
125.199
 21
42.5158
  0
LINE
  8
0
 10
125.199
 20
42.5158
 11
125.979
 21
41.3159
  0
LINE
  8
0
 10
125.979
 20
41.3159
 11
126.057
 21
41.18
  0
LINE
  8
0
 10
126.057
 20
41.18
 11
126.865
 21
39.5947
  0
LINE
  8
0
 10
126.865
 20
39.5947
 11
126.929
 21
39.4512
  0
LINE
  8
0
 10
126.929
 20
39.4512
 11
127.566
 21
37.7902
  0
LINE
  8
0
 10
127.566
 20
37.7902
 11
127.615
 21
37.6409
  0
LINE
  8
0
 10
127.615
 20
37.6409
 11
128.075
 21
35.9223
  0
LINE
  8
0
 10
128.075
 20
35.9223
 11
128.108
 21
35.7687
  0
LINE
  8
0
 10
128.108
 20
35.7687
 11
128.386
 21
34.0113
  0
LINE
  8
0
 10
128.386
 20
34.0113
 11
128.403
 21
33.8552
  0
LINE
  8
0
 10
128.403
 20
33.8552
 11
128.496
 21
32.0785
  0
LINE
  8
0
 10
128.496
 20
32.0785
 11
128.496
 21
31.9215
  0
LINE
  8
0
 10
128.496
 20
31.9215
 11
128.403
 21
30.1448
  0
LINE
  8
0
 10
128.403
 20
30.1448
 11
128.386
 21
29.9887
  0
LINE
  8
0
 10
128.386
 20
29.9887
 11
128.108
 21
28.2313
  0
LINE
  8
0
 10
128.108
 20
28.2313
 11
128.075
 21
28.0777
  0
LINE
  8
0
 10
128.075
 20
28.0777
 11
127.615
 21
26.3591
  0
LINE
  8
0
 10
127.615
 20
26.3591
 11
127.566
 21
26.2098
  0
LINE
  8
0
 10
127.566
 20
26.2098
 11
126.929
 21
24.5488
  0
LINE
  8
0
 10
126.929
 20
24.5488
 11
126.865
 21
24.4053
  0
LINE
  8
0
 10
126.865
 20
24.4053
 11
126.057
 21
22.82
  0
LINE
  8
0
 10
126.057
 20
22.82
 11
125.979
 21
22.6841
  0
LINE
  8
0
 10
125.979
 20
22.6841
 11
125.199
 21
21.4842
  0
LINE
  8
0
 10
125.199
 20
21.4842
 11
125.048
 21
21.2883
  0
LINE
  8
0
 10
125.048
 20
21.2883
 11
124.866
 21
21.12
  0
LINE
  8
0
 10
124.866
 20
21.12
 11
124.659
 21
20.9839
  0
LINE
  8
0
 10
124.659
 20
20.9839
 11
124.432
 21
20.8838
  0
LINE
  8
0
 10
124.432
 20
20.8838
 11
124.192
 21
20.8223
  0
LINE
  8
0
 10
124.192
 20
20.8223
 11
123.946
 21
20.8012
  0
LINE
  8
0
 10
123.946
 20
20.8012
 11
123.699
 21
20.821
  0
LINE
  8
0
 10
53.6986
 20
20.821
 11
53.4583
 21
20.8811
  0
LINE
  8
0
 10
53.4583
 20
20.8811
 11
53.2312
 21
20.98
  0
LINE
  8
0
 10
53.2312
 20
20.98
 11
53.0234
 21
21.1149
  0
LINE
  8
0
 10
53.0234
 20
21.1149
 11
52.8808
 21
21.2405
  0
LINE
  8
0
 10
52.8808
 20
21.2405
 11
52.5228
 21
21.5985
  0
LINE
  8
0
 10
52.5228
 20
21.5985
 11
52.3627
 21
21.7876
  0
LINE
  8
0
 10
52.3627
 20
21.7876
 11
52.2359
 21
22.0004
  0
LINE
  8
0
 10
52.2359
 20
22.0004
 11
52.1458
 21
22.2312
  0
LINE
  8
0
 10
52.1458
 20
22.2312
 11
52.095
 21
22.4736
  0
LINE
  8
0
 10
52.095
 20
22.4736
 11
52.0847
 21
22.7211
  0
LINE
  8
0
 10
52.0847
 20
22.7211
 11
52.1154
 21
22.967
  0
LINE
  8
0
 10
52.1154
 20
22.967
 11
52.1861
 21
23.2044
  0
LINE
  8
0
 10
52.1861
 20
23.2044
 11
52.3255
 21
23.4761
  0
LINE
  8
0
 10
52.3255
 20
23.4761
 11
52.969
 21
24.467
  0
LINE
  8
0
 10
52.969
 20
24.467
 11
53.0082
 21
24.535
  0
LINE
  8
0
 10
53.0082
 20
24.535
 11
53.6853
 21
25.864
  0
LINE
  8
0
 10
53.6853
 20
25.864
 11
53.7173
 21
25.9357
  0
LINE
  8
0
 10
53.7173
 20
25.9357
 11
54.2517
 21
27.328
  0
LINE
  8
0
 10
54.2517
 20
27.328
 11
54.2761
 21
27.4029
  0
LINE
  8
0
 10
54.2761
 20
27.4029
 11
54.662
 21
28.8432
  0
LINE
  8
0
 10
54.662
 20
28.8432
 11
54.6784
 21
28.9202
  0
LINE
  8
0
 10
54.6784
 20
28.9202
 11
54.9117
 21
30.3933
  0
LINE
  8
0
 10
54.9117
 20
30.3933
 11
54.9199
 21
30.4714
  0
LINE
  8
0
 10
54.9199
 20
30.4714
 11
54.9979
 21
31.9607
  0
LINE
  8
0
 10
54.9979
 20
31.9607
 11
54.9979
 21
32.0393
  0
LINE
  8
0
 10
54.9979
 20
32.0393
 11
54.9199
 21
33.5286
  0
LINE
  8
0
 10
54.9199
 20
33.5286
 11
54.9117
 21
33.6067
  0
LINE
  8
0
 10
54.9117
 20
33.6067
 11
54.6784
 21
35.0798
  0
LINE
  8
0
 10
54.6784
 20
35.0798
 11
54.662
 21
35.1568
  0
LINE
  8
0
 10
54.662
 20
35.1568
 11
54.2761
 21
36.5971
  0
LINE
  8
0
 10
54.2761
 20
36.5971
 11
54.2517
 21
36.672
  0
LINE
  8
0
 10
54.2517
 20
36.672
 11
53.7173
 21
38.0643
  0
LINE
  8
0
 10
53.7173
 20
38.0643
 11
53.6853
 21
38.136
  0
LINE
  8
0
 10
53.6853
 20
38.136
 11
53.0082
 21
39.465
  0
LINE
  8
0
 10
53.0082
 20
39.465
 11
52.969
 21
39.533
  0
LINE
  8
0
 10
52.969
 20
39.533
 11
52.3255
 21
40.5239
  0
LINE
  8
0
 10
52.3255
 20
40.5239
 11
52.2081
 21
40.7421
  0
LINE
  8
0
 10
52.2081
 20
40.7421
 11
52.1284
 21
40.9766
  0
LINE
  8
0
 10
52.1284
 20
40.9766
 11
52.0883
 21
41.2211
  0
LINE
  8
0
 10
52.0883
 20
41.2211
 11
52.0889
 21
41.4688
  0
LINE
  8
0
 10
52.0889
 20
41.4688
 11
52.1304
 21
41.7131
  0
LINE
  8
0
 10
52.1304
 20
41.7131
 11
52.2115
 21
41.9472
  0
LINE
  8
0
 10
52.2115
 20
41.9472
 11
52.33
 21
42.1647
  0
LINE
  8
0
 10
52.33
 20
42.1647
 11
52.5228
 21
42.4015
  0
LINE
  8
0
 10
52.5228
 20
42.4015
 11
52.8808
 21
42.7595
  0
LINE
  8
0
 10
52.8808
 20
42.7595
 11
53.0698
 21
42.9196
  0
LINE
  8
0
 10
53.0698
 20
42.9196
 11
53.2827
 21
43.0464
  0
LINE
  8
0
 10
53.2827
 20
43.0464
 11
53.5134
 21
43.1365
  0
LINE
  8
0
 10
53.5134
 20
43.1365
 11
53.7559
 21
43.1873
  0
LINE
  8
0
 10
53.7559
 20
43.1873
 11
54.0034
 21
43.1975
  0
LINE
  8
0
 10
54.0034
 20
43.1975
 11
54.2493
 21
43.1669
  0
LINE
  8
0
 10
54.2493
 20
43.1669
 11
54.4867
 21
43.0962
  0
LINE
  8
0
 10
54.4867
 20
43.0962
 11
54.7093
 21
42.9874
  0
LINE
  8
0
 10
54.7093
 20
42.9874
 11
54.9109
 21
42.8434
  0
LINE
  8
0
 10
54.9109
 20
42.8434
 11
55.0861
 21
42.6683
  0
LINE
  8
0
 10
55.0861
 20
42.6683
 11
55.1995
 21
42.5158
  0
LINE
  8
0
 10
55.1995
 20
42.5158
 11
55.9786
 21
41.3159
  0
LINE
  8
0
 10
55.9786
 20
41.3159
 11
56.0571
 21
41.18
  0
LINE
  8
0
 10
56.0571
 20
41.18
 11
56.8649
 21
39.5947
  0
LINE
  8
0
 10
56.8649
 20
39.5947
 11
56.9288
 21
39.4512
  0
LINE
  8
0
 10
56.9288
 20
39.4512
 11
57.5664
 21
37.7902
  0
LINE
  8
0
 10
57.5664
 20
37.7902
 11
57.6149
 21
37.6409
  0
LINE
  8
0
 10
57.6149
 20
37.6409
 11
58.0754
 21
35.9223
  0
LINE
  8
0
 10
58.0754
 20
35.9223
 11
58.108
 21
35.7687
  0
LINE
  8
0
 10
58.108
 20
35.7687
 11
58.3864
 21
34.0113
  0
LINE
  8
0
 10
58.3864
 20
34.0113
 11
58.4028
 21
33.8552
  0
LINE
  8
0
 10
58.4028
 20
33.8552
 11
58.4959
 21
32.0785
  0
LINE
  8
0
 10
58.4959
 20
32.0785
 11
58.4959
 21
31.9215
  0
LINE
  8
0
 10
58.4959
 20
31.9215
 11
58.4028
 21
30.1448
  0
LINE
  8
0
 10
58.4028
 20
30.1448
 11
58.3864
 21
29.9887
  0
LINE
  8
0
 10
58.3864
 20
29.9887
 11
58.108
 21
28.2313
  0
LINE
  8
0
 10
58.108
 20
28.2313
 11
58.0754
 21
28.0777
  0
LINE
  8
0
 10
58.0754
 20
28.0777
 11
57.6149
 21
26.3591
  0
LINE
  8
0
 10
57.6149
 20
26.3591
 11
57.5664
 21
26.2098
  0
LINE
  8
0
 10
57.5664
 20
26.2098
 11
56.9288
 21
24.5488
  0
LINE
  8
0
 10
56.9288
 20
24.5488
 11
56.8649
 21
24.4053
  0
LINE
  8
0
 10
56.8649
 20
24.4053
 11
56.0571
 21
22.82
  0
LINE
  8
0
 10
56.0571
 20
22.82
 11
55.9786
 21
22.6841
  0
LINE
  8
0
 10
55.9786
 20
22.6841
 11
55.1995
 21
21.4842
  0
LINE
  8
0
 10
55.1995
 20
21.4842
 11
55.0478
 21
21.2883
  0
LINE
  8
0
 10
55.0478
 20
21.2883
 11
54.866
 21
21.12
  0
LINE
  8
0
 10
54.866
 20
21.12
 11
54.659
 21
20.9839
  0
LINE
  8
0
 10
54.659
 20
20.9839
 11
54.4324
 21
20.8838
  0
LINE
  8
0
 10
54.4324
 20
20.8838
 11
54.1924
 21
20.8223
  0
LINE
  8
0
 10
54.1924
 20
20.8223
 11
53.9456
 21
20.8012
  0
LINE
  8
0
 10
53.9456
 20
20.8012
 11
53.6986
 21
20.821
  0
LINE
  8
0
 10
49.6369
 20
24.8108
 11
49.4007
 21
24.8855
  0
LINE
  8
0
 10
49.4007
 20
24.8855
 11
49.18
 21
24.9979
  0
LINE
  8
0
 10
49.18
 20
24.9979
 11
48.9084
 21
25.213
  0
LINE
  8
0
 10
48.9084
 20
25.213
 11
48.5402
 21
25.5811
  0
LINE
  8
0
 10
48.5402
 20
25.5811
 11
48.3801
 21
25.7702
  0
LINE
  8
0
 10
48.3801
 20
25.7702
 11
48.2533
 21
25.983
  0
LINE
  8
0
 10
48.2533
 20
25.983
 11
48.1632
 21
26.2138
  0
LINE
  8
0
 10
48.1632
 20
26.2138
 11
48.1124
 21
26.4563
  0
LINE
  8
0
 10
48.1124
 20
26.4563
 11
48.1021
 21
26.7038
  0
LINE
  8
0
 10
48.1021
 20
26.7038
 11
48.1328
 21
26.9496
  0
LINE
  8
0
 10
48.1328
 20
26.9496
 11
48.2034
 21
27.1871
  0
LINE
  8
0
 10
48.2034
 20
27.1871
 11
48.2643
 21
27.3228
  0
LINE
  8
0
 10
48.2643
 20
27.3228
 11
48.6608
 21
28.1009
  0
LINE
  8
0
 10
48.6608
 20
28.1009
 11
48.6928
 21
28.1727
  0
LINE
  8
0
 10
48.6928
 20
28.1727
 11
49.0209
 21
29.0276
  0
LINE
  8
0
 10
49.0209
 20
29.0276
 11
49.0452
 21
29.1023
  0
LINE
  8
0
 10
49.0452
 20
29.1023
 11
49.2822
 21
29.9869
  0
LINE
  8
0
 10
49.2822
 20
29.9869
 11
49.2985
 21
30.0636
  0
LINE
  8
0
 10
49.2985
 20
30.0636
 11
49.4418
 21
30.9683
  0
LINE
  8
0
 10
49.4418
 20
30.9683
 11
49.45
 21
31.0462
  0
LINE
  8
0
 10
49.45
 20
31.0462
 11
49.4979
 21
31.9607
  0
LINE
  8
0
 10
49.4979
 20
31.9607
 11
49.4979
 21
32.0393
  0
LINE
  8
0
 10
49.4979
 20
32.0393
 11
49.45
 21
32.9538
  0
LINE
  8
0
 10
49.45
 20
32.9538
 11
49.4418
 21
33.0317
  0
LINE
  8
0
 10
49.4418
 20
33.0317
 11
49.2985
 21
33.9364
  0
LINE
  8
0
 10
49.2985
 20
33.9364
 11
49.2822
 21
34.0131
  0
LINE
  8
0
 10
49.2822
 20
34.0131
 11
49.0452
 21
34.8977
  0
LINE
  8
0
 10
49.0452
 20
34.8977
 11
49.0209
 21
34.9724
  0
LINE
  8
0
 10
49.0209
 20
34.9724
 11
48.6928
 21
35.8273
  0
LINE
  8
0
 10
48.6928
 20
35.8273
 11
48.6608
 21
35.8991
  0
LINE
  8
0
 10
48.6608
 20
35.8991
 11
48.2643
 21
36.6772
  0
LINE
  8
0
 10
48.2643
 20
36.6772
 11
48.1705
 21
36.9065
  0
LINE
  8
0
 10
48.1705
 20
36.9065
 11
48.1156
 21
37.1481
  0
LINE
  8
0
 10
48.1156
 20
37.1481
 11
48.1013
 21
37.3954
  0
LINE
  8
0
 10
48.1013
 20
37.3954
 11
48.1279
 21
37.6417
  0
LINE
  8
0
 10
48.1279
 20
37.6417
 11
48.1946
 21
37.8803
  0
LINE
  8
0
 10
48.1946
 20
37.8803
 11
48.2997
 21
38.1046
  0
LINE
  8
0
 10
48.2997
 20
38.1046
 11
48.4403
 21
38.3086
  0
LINE
  8
0
 10
48.4403
 20
38.3086
 11
48.5402
 21
38.4189
  0
LINE
  8
0
 10
48.5402
 20
38.4189
 11
48.9084
 21
38.787
  0
LINE
  8
0
 10
48.9084
 20
38.787
 11
49.0974
 21
38.9472
  0
LINE
  8
0
 10
49.0974
 20
38.9472
 11
49.3102
 21
39.074
  0
LINE
  8
0
 10
49.3102
 20
39.074
 11
49.541
 21
39.164
  0
LINE
  8
0
 10
49.541
 20
39.164
 11
49.7835
 21
39.2149
  0
LINE
  8
0
 10
49.7835
 20
39.2149
 11
50.031
 21
39.2251
  0
LINE
  8
0
 10
50.031
 20
39.2251
 11
50.2768
 21
39.1945
  0
LINE
  8
0
 10
50.2768
 20
39.1945
 11
50.5143
 21
39.1238
  0
LINE
  8
0
 10
50.5143
 20
39.1238
 11
50.7368
 21
39.015
  0
LINE
  8
0
 10
50.7368
 20
39.015
 11
50.9385
 21
38.871
  0
LINE
  8
0
 10
50.9385
 20
38.871
 11
51.1136
 21
38.6958
  0
LINE
  8
0
 10
51.1136
 20
38.6958
 11
51.3055
 21
38.4074
  0
LINE
  8
0
 10
51.3055
 20
38.4074
 11
51.8403
 21
37.3577
  0
LINE
  8
0
 10
51.8403
 20
37.3577
 11
51.9042
 21
37.2143
  0
LINE
  8
0
 10
51.9042
 20
37.2143
 11
52.3356
 21
36.0905
  0
LINE
  8
0
 10
52.3356
 20
36.0905
 11
52.3841
 21
35.9412
  0
LINE
  8
0
 10
52.3841
 20
35.9412
 11
52.6955
 21
34.7789
  0
LINE
  8
0
 10
52.6955
 20
34.7789
 11
52.7282
 21
34.6253
  0
LINE
  8
0
 10
52.7282
 20
34.6253
 11
52.9165
 21
33.4364
  0
LINE
  8
0
 10
52.9165
 20
33.4364
 11
52.9329
 21
33.2803
  0
LINE
  8
0
 10
52.9329
 20
33.2803
 11
52.9959
 21
32.0785
  0
LINE
  8
0
 10
52.9959
 20
32.0785
 11
52.9959
 21
31.9215
  0
LINE
  8
0
 10
52.9959
 20
31.9215
 11
52.9329
 21
30.7197
  0
LINE
  8
0
 10
52.9329
 20
30.7197
 11
52.9165
 21
30.5636
  0
LINE
  8
0
 10
52.9165
 20
30.5636
 11
52.7282
 21
29.3747
  0
LINE
  8
0
 10
52.7282
 20
29.3747
 11
52.6955
 21
29.2211
  0
LINE
  8
0
 10
52.6955
 20
29.2211
 11
52.3841
 21
28.0588
  0
LINE
  8
0
 10
52.3841
 20
28.0588
 11
52.3356
 21
27.9095
  0
LINE
  8
0
 10
52.3356
 20
27.9095
 11
51.9042
 21
26.7857
  0
LINE
  8
0
 10
51.9042
 20
26.7857
 11
51.8403
 21
26.6423
  0
LINE
  8
0
 10
51.8403
 20
26.6423
 11
51.3055
 21
25.5926
  0
LINE
  8
0
 10
51.3055
 20
25.5926
 11
51.1752
 21
25.3819
  0
LINE
  8
0
 10
51.1752
 20
25.3819
 11
51.012
 21
25.1956
  0
LINE
  8
0
 10
51.012
 20
25.1956
 11
50.8203
 21
25.0386
  0
LINE
  8
0
 10
50.8203
 20
25.0386
 11
50.6054
 21
24.9153
  0
LINE
  8
0
 10
50.6054
 20
24.9153
 11
50.3732
 21
24.8291
  0
LINE
  8
0
 10
50.3732
 20
24.8291
 11
50.1299
 21
24.7823
  0
LINE
  8
0
 10
50.1299
 20
24.7823
 11
49.8822
 21
24.7761
  0
LINE
  8
0
 10
49.8822
 20
24.7761
 11
49.6369
 21
24.8108
  0
LINE
  8
0
 10
119.637
 20
24.8108
 11
119.401
 21
24.8855
  0
LINE
  8
0
 10
119.401
 20
24.8855
 11
119.18
 21
24.9979
  0
LINE
  8
0
 10
119.18
 20
24.9979
 11
118.908
 21
25.213
  0
LINE
  8
0
 10
118.908
 20
25.213
 11
118.54
 21
25.5811
  0
LINE
  8
0
 10
118.54
 20
25.5811
 11
118.38
 21
25.7702
  0
LINE
  8
0
 10
118.38
 20
25.7702
 11
118.253
 21
25.983
  0
LINE
  8
0
 10
118.253
 20
25.983
 11
118.163
 21
26.2138
  0
LINE
  8
0
 10
118.163
 20
26.2138
 11
118.112
 21
26.4563
  0
LINE
  8
0
 10
118.112
 20
26.4563
 11
118.102
 21
26.7038
  0
LINE
  8
0
 10
118.102
 20
26.7038
 11
118.133
 21
26.9496
  0
LINE
  8
0
 10
118.133
 20
26.9496
 11
118.203
 21
27.1871
  0
LINE
  8
0
 10
118.203
 20
27.1871
 11
118.264
 21
27.3228
  0
LINE
  8
0
 10
118.264
 20
27.3228
 11
118.661
 21
28.1009
  0
LINE
  8
0
 10
118.661
 20
28.1009
 11
118.693
 21
28.1727
  0
LINE
  8
0
 10
118.693
 20
28.1727
 11
119.021
 21
29.0276
  0
LINE
  8
0
 10
119.021
 20
29.0276
 11
119.045
 21
29.1023
  0
LINE
  8
0
 10
119.045
 20
29.1023
 11
119.282
 21
29.9869
  0
LINE
  8
0
 10
119.282
 20
29.9869
 11
119.299
 21
30.0636
  0
LINE
  8
0
 10
119.299
 20
30.0636
 11
119.442
 21
30.9683
  0
LINE
  8
0
 10
119.442
 20
30.9683
 11
119.45
 21
31.0462
  0
LINE
  8
0
 10
119.45
 20
31.0462
 11
119.498
 21
31.9607
  0
LINE
  8
0
 10
119.498
 20
31.9607
 11
119.498
 21
32.0393
  0
LINE
  8
0
 10
119.498
 20
32.0393
 11
119.45
 21
32.9538
  0
LINE
  8
0
 10
119.45
 20
32.9538
 11
119.442
 21
33.0317
  0
LINE
  8
0
 10
119.442
 20
33.0317
 11
119.299
 21
33.9364
  0
LINE
  8
0
 10
119.299
 20
33.9364
 11
119.282
 21
34.0131
  0
LINE
  8
0
 10
119.282
 20
34.0131
 11
119.045
 21
34.8977
  0
LINE
  8
0
 10
119.045
 20
34.8977
 11
119.021
 21
34.9724
  0
LINE
  8
0
 10
119.021
 20
34.9724
 11
118.693
 21
35.8273
  0
LINE
  8
0
 10
118.693
 20
35.8273
 11
118.661
 21
35.8991
  0
LINE
  8
0
 10
118.661
 20
35.8991
 11
118.264
 21
36.6772
  0
LINE
  8
0
 10
118.264
 20
36.6772
 11
118.17
 21
36.9065
  0
LINE
  8
0
 10
118.17
 20
36.9065
 11
118.116
 21
37.1481
  0
LINE
  8
0
 10
118.116
 20
37.1481
 11
118.101
 21
37.3954
  0
LINE
  8
0
 10
118.101
 20
37.3954
 11
118.128
 21
37.6417
  0
LINE
  8
0
 10
118.128
 20
37.6417
 11
118.195
 21
37.8803
  0
LINE
  8
0
 10
118.195
 20
37.8803
 11
118.3
 21
38.1046
  0
LINE
  8
0
 10
118.3
 20
38.1046
 11
118.44
 21
38.3086
  0
LINE
  8
0
 10
118.44
 20
38.3086
 11
118.54
 21
38.4189
  0
LINE
  8
0
 10
118.54
 20
38.4189
 11
118.908
 21
38.787
  0
LINE
  8
0
 10
118.908
 20
38.787
 11
119.097
 21
38.9472
  0
LINE
  8
0
 10
119.097
 20
38.9472
 11
119.31
 21
39.074
  0
LINE
  8
0
 10
119.31
 20
39.074
 11
119.541
 21
39.164
  0
LINE
  8
0
 10
119.541
 20
39.164
 11
119.783
 21
39.2149
  0
LINE
  8
0
 10
119.783
 20
39.2149
 11
120.031
 21
39.2251
  0
LINE
  8
0
 10
120.031
 20
39.2251
 11
120.277
 21
39.1945
  0
LINE
  8
0
 10
120.277
 20
39.1945
 11
120.514
 21
39.1238
  0
LINE
  8
0
 10
120.514
 20
39.1238
 11
120.737
 21
39.015
  0
LINE
  8
0
 10
120.737
 20
39.015
 11
120.938
 21
38.871
  0
LINE
  8
0
 10
120.938
 20
38.871
 11
121.114
 21
38.6958
  0
LINE
  8
0
 10
121.114
 20
38.6958
 11
121.306
 21
38.4074
  0
LINE
  8
0
 10
121.306
 20
38.4074
 11
121.84
 21
37.3577
  0
LINE
  8
0
 10
121.84
 20
37.3577
 11
121.904
 21
37.2143
  0
LINE
  8
0
 10
121.904
 20
37.2143
 11
122.336
 21
36.0905
  0
LINE
  8
0
 10
122.336
 20
36.0905
 11
122.384
 21
35.9412
  0
LINE
  8
0
 10
122.384
 20
35.9412
 11
122.696
 21
34.7789
  0
LINE
  8
0
 10
122.696
 20
34.7789
 11
122.728
 21
34.6253
  0
LINE
  8
0
 10
122.728
 20
34.6253
 11
122.916
 21
33.4364
  0
LINE
  8
0
 10
122.916
 20
33.4364
 11
122.933
 21
33.2803
  0
LINE
  8
0
 10
122.933
 20
33.2803
 11
122.996
 21
32.0785
  0
LINE
  8
0
 10
122.996
 20
32.0785
 11
122.996
 21
31.9215
  0
LINE
  8
0
 10
122.996
 20
31.9215
 11
122.933
 21
30.7197
  0
LINE
  8
0
 10
122.933
 20
30.7197
 11
122.916
 21
30.5636
  0
LINE
  8
0
 10
122.916
 20
30.5636
 11
122.728
 21
29.3747
  0
LINE
  8
0
 10
122.728
 20
29.3747
 11
122.696
 21
29.2211
  0
LINE
  8
0
 10
122.696
 20
29.2211
 11
122.384
 21
28.0588
  0
LINE
  8
0
 10
122.384
 20
28.0588
 11
122.336
 21
27.9095
  0
LINE
  8
0
 10
122.336
 20
27.9095
 11
121.904
 21
26.7857
  0
LINE
  8
0
 10
121.904
 20
26.7857
 11
121.84
 21
26.6423
  0
LINE
  8
0
 10
121.84
 20
26.6423
 11
121.306
 21
25.5926
  0
LINE
  8
0
 10
121.306
 20
25.5926
 11
121.175
 21
25.3819
  0
LINE
  8
0
 10
121.175
 20
25.3819
 11
121.012
 21
25.1956
  0
LINE
  8
0
 10
121.012
 20
25.1956
 11
120.82
 21
25.0386
  0
LINE
  8
0
 10
120.82
 20
25.0386
 11
120.605
 21
24.9153
  0
LINE
  8
0
 10
120.605
 20
24.9153
 11
120.373
 21
24.8291
  0
LINE
  8
0
 10
120.373
 20
24.8291
 11
120.13
 21
24.7823
  0
LINE
  8
0
 10
120.13
 20
24.7823
 11
119.882
 21
24.7761
  0
LINE
  8
0
 10
119.882
 20
24.7761
 11
119.637
 21
24.8108
  0
LINE
  8
0
 10
29.7232
 20
24.8055
 11
29.4857
 21
24.8762
  0
LINE
  8
0
 10
29.4857
 20
24.8762
 11
29.2632
 21
24.985
  0
LINE
  8
0
 10
29.2632
 20
24.985
 11
29.0615
 21
25.129
  0
LINE
  8
0
 10
29.0615
 20
25.129
 11
28.8864
 21
25.3042
  0
LINE
  8
0
 10
28.8864
 20
25.3042
 11
28.6945
 21
25.5926
  0
LINE
  8
0
 10
28.6945
 20
25.5926
 11
28.1597
 21
26.6423
  0
LINE
  8
0
 10
28.1597
 20
26.6423
 11
28.0958
 21
26.7857
  0
LINE
  8
0
 10
28.0958
 20
26.7857
 11
27.6644
 21
27.9095
  0
LINE
  8
0
 10
27.6644
 20
27.9095
 11
27.6159
 21
28.0588
  0
LINE
  8
0
 10
27.6159
 20
28.0588
 11
27.3045
 21
29.2211
  0
LINE
  8
0
 10
27.3045
 20
29.2211
 11
27.2718
 21
29.3747
  0
LINE
  8
0
 10
27.2718
 20
29.3747
 11
27.0835
 21
30.5636
  0
LINE
  8
0
 10
27.0835
 20
30.5636
 11
27.0671
 21
30.7197
  0
LINE
  8
0
 10
27.0671
 20
30.7197
 11
27.0041
 21
31.9215
  0
LINE
  8
0
 10
27.0041
 20
31.9215
 11
27.0041
 21
32.0785
  0
LINE
  8
0
 10
27.0041
 20
32.0785
 11
27.0671
 21
33.2803
  0
LINE
  8
0
 10
27.0671
 20
33.2803
 11
27.0835
 21
33.4364
  0
LINE
  8
0
 10
27.0835
 20
33.4364
 11
27.2718
 21
34.6253
  0
LINE
  8
0
 10
27.2718
 20
34.6253
 11
27.3045
 21
34.7789
  0
LINE
  8
0
 10
27.3045
 20
34.7789
 11
27.6159
 21
35.9412
  0
LINE
  8
0
 10
27.6159
 20
35.9412
 11
27.6644
 21
36.0905
  0
LINE
  8
0
 10
27.6644
 20
36.0905
 11
28.0958
 21
37.2143
  0
LINE
  8
0
 10
28.0958
 20
37.2143
 11
28.1597
 21
37.3577
  0
LINE
  8
0
 10
28.1597
 20
37.3577
 11
28.6945
 21
38.4074
  0
LINE
  8
0
 10
28.6945
 20
38.4074
 11
28.8248
 21
38.6181
  0
LINE
  8
0
 10
28.8248
 20
38.6181
 11
28.988
 21
38.8044
  0
LINE
  8
0
 10
28.988
 20
38.8044
 11
29.1797
 21
38.9614
  0
LINE
  8
0
 10
29.1797
 20
38.9614
 11
29.3946
 21
39.0847
  0
LINE
  8
0
 10
29.3946
 20
39.0847
 11
29.6268
 21
39.1709
  0
LINE
  8
0
 10
29.6268
 20
39.1709
 11
29.8701
 21
39.2177
  0
LINE
  8
0
 10
29.8701
 20
39.2177
 11
30.1178
 21
39.2239
  0
LINE
  8
0
 10
30.1178
 20
39.2239
 11
30.3631
 21
39.1892
  0
LINE
  8
0
 10
30.3631
 20
39.1892
 11
30.5993
 21
39.1145
  0
LINE
  8
0
 10
30.5993
 20
39.1145
 11
30.82
 21
39.0021
  0
LINE
  8
0
 10
30.82
 20
39.0021
 11
31.0916
 21
38.787
  0
LINE
  8
0
 10
31.0916
 20
38.787
 11
31.4598
 21
38.4189
  0
LINE
  8
0
 10
31.4598
 20
38.4189
 11
31.6199
 21
38.2298
  0
LINE
  8
0
 10
31.6199
 20
38.2298
 11
31.7467
 21
38.017
  0
LINE
  8
0
 10
31.7467
 20
38.017
 11
31.8368
 21
37.7862
  0
LINE
  8
0
 10
31.8368
 20
37.7862
 11
31.8876
 21
37.5437
  0
LINE
  8
0
 10
31.8876
 20
37.5437
 11
31.8979
 21
37.2962
  0
LINE
  8
0
 10
31.8979
 20
37.2962
 11
31.8672
 21
37.0504
  0
LINE
  8
0
 10
31.8672
 20
37.0504
 11
31.7966
 21
36.8129
  0
LINE
  8
0
 10
31.7966
 20
36.8129
 11
31.7357
 21
36.6772
  0
LINE
  8
0
 10
31.7357
 20
36.6772
 11
31.3392
 21
35.8991
  0
LINE
  8
0
 10
31.3392
 20
35.8991
 11
31.3072
 21
35.8273
  0
LINE
  8
0
 10
31.3072
 20
35.8273
 11
30.9791
 21
34.9724
  0
LINE
  8
0
 10
30.9791
 20
34.9724
 11
30.9548
 21
34.8977
  0
LINE
  8
0
 10
30.9548
 20
34.8977
 11
30.7178
 21
34.0131
  0
LINE
  8
0
 10
30.7178
 20
34.0131
 11
30.7015
 21
33.9364
  0
LINE
  8
0
 10
30.7015
 20
33.9364
 11
30.5582
 21
33.0317
  0
LINE
  8
0
 10
30.5582
 20
33.0317
 11
30.55
 21
32.9538
  0
LINE
  8
0
 10
30.55
 20
32.9538
 11
30.5021
 21
32.0393
  0
LINE
  8
0
 10
30.5021
 20
32.0393
 11
30.5021
 21
31.9607
  0
LINE
  8
0
 10
30.5021
 20
31.9607
 11
30.55
 21
31.0462
  0
LINE
  8
0
 10
30.55
 20
31.0462
 11
30.5582
 21
30.9683
  0
LINE
  8
0
 10
30.5582
 20
30.9683
 11
30.7015
 21
30.0636
  0
LINE
  8
0
 10
30.7015
 20
30.0636
 11
30.7178
 21
29.9869
  0
LINE
  8
0
 10
30.7178
 20
29.9869
 11
30.9548
 21
29.1023
  0
LINE
  8
0
 10
30.9548
 20
29.1023
 11
30.9791
 21
29.0276
  0
LINE
  8
0
 10
30.9791
 20
29.0276
 11
31.3072
 21
28.1727
  0
LINE
  8
0
 10
31.3072
 20
28.1727
 11
31.3392
 21
28.1009
  0
LINE
  8
0
 10
31.3392
 20
28.1009
 11
31.7357
 21
27.3228
  0
LINE
  8
0
 10
31.7357
 20
27.3228
 11
31.8295
 21
27.0935
  0
LINE
  8
0
 10
31.8295
 20
27.0935
 11
31.8844
 21
26.8519
  0
LINE
  8
0
 10
31.8844
 20
26.8519
 11
31.8987
 21
26.6046
  0
LINE
  8
0
 10
31.8987
 20
26.6046
 11
31.8721
 21
26.3583
  0
LINE
  8
0
 10
31.8721
 20
26.3583
 11
31.8054
 21
26.1197
  0
LINE
  8
0
 10
31.8054
 20
26.1197
 11
31.7003
 21
25.8954
  0
LINE
  8
0
 10
31.7003
 20
25.8954
 11
31.5597
 21
25.6914
  0
LINE
  8
0
 10
31.5597
 20
25.6914
 11
31.4598
 21
25.5811
  0
LINE
  8
0
 10
31.4598
 20
25.5811
 11
31.0916
 21
25.213
  0
LINE
  8
0
 10
31.0916
 20
25.213
 11
30.9026
 21
25.0528
  0
LINE
  8
0
 10
30.9026
 20
25.0528
 11
30.6898
 21
24.926
  0
LINE
  8
0
 10
30.6898
 20
24.926
 11
30.459
 21
24.836
  0
LINE
  8
0
 10
30.459
 20
24.836
 11
30.2165
 21
24.7851
  0
LINE
  8
0
 10
30.2165
 20
24.7851
 11
29.969
 21
24.7749
  0
LINE
  8
0
 10
29.969
 20
24.7749
 11
29.7232
 21
24.8055
  0
LINE
  8
0
 10
99.7232
 20
24.8055
 11
99.4857
 21
24.8762
  0
LINE
  8
0
 10
99.4857
 20
24.8762
 11
99.2632
 21
24.985
  0
LINE
  8
0
 10
99.2632
 20
24.985
 11
99.0615
 21
25.129
  0
LINE
  8
0
 10
99.0615
 20
25.129
 11
98.8864
 21
25.3042
  0
LINE
  8
0
 10
98.8864
 20
25.3042
 11
98.6945
 21
25.5926
  0
LINE
  8
0
 10
98.6945
 20
25.5926
 11
98.1597
 21
26.6423
  0
LINE
  8
0
 10
98.1597
 20
26.6423
 11
98.0958
 21
26.7857
  0
LINE
  8
0
 10
98.0958
 20
26.7857
 11
97.6644
 21
27.9095
  0
LINE
  8
0
 10
97.6644
 20
27.9095
 11
97.6159
 21
28.0588
  0
LINE
  8
0
 10
97.6159
 20
28.0588
 11
97.3045
 21
29.2211
  0
LINE
  8
0
 10
97.3045
 20
29.2211
 11
97.2718
 21
29.3747
  0
LINE
  8
0
 10
97.2718
 20
29.3747
 11
97.0835
 21
30.5636
  0
LINE
  8
0
 10
97.0835
 20
30.5636
 11
97.0671
 21
30.7197
  0
LINE
  8
0
 10
97.0671
 20
30.7197
 11
97.0041
 21
31.9215
  0
LINE
  8
0
 10
97.0041
 20
31.9215
 11
97.0041
 21
32.0785
  0
LINE
  8
0
 10
97.0041
 20
32.0785
 11
97.0671
 21
33.2803
  0
LINE
  8
0
 10
97.0671
 20
33.2803
 11
97.0835
 21
33.4364
  0
LINE
  8
0
 10
97.0835
 20
33.4364
 11
97.2718
 21
34.6253
  0
LINE
  8
0
 10
97.2718
 20
34.6253
 11
97.3045
 21
34.7789
  0
LINE
  8
0
 10
97.3045
 20
34.7789
 11
97.6159
 21
35.9412
  0
LINE
  8
0
 10
97.6159
 20
35.9412
 11
97.6644
 21
36.0905
  0
LINE
  8
0
 10
97.6644
 20
36.0905
 11
98.0958
 21
37.2143
  0
LINE
  8
0
 10
98.0958
 20
37.2143
 11
98.1597
 21
37.3577
  0
LINE
  8
0
 10
98.1597
 20
37.3577
 11
98.6945
 21
38.4074
  0
LINE
  8
0
 10
98.6945
 20
38.4074
 11
98.8248
 21
38.6181
  0
LINE
  8
0
 10
98.8248
 20
38.6181
 11
98.988
 21
38.8044
  0
LINE
  8
0
 10
98.988
 20
38.8044
 11
99.1797
 21
38.9614
  0
LINE
  8
0
 10
99.1797
 20
38.9614
 11
99.3946
 21
39.0847
  0
LINE
  8
0
 10
99.3946
 20
39.0847
 11
99.6268
 21
39.1709
  0
LINE
  8
0
 10
99.6268
 20
39.1709
 11
99.8701
 21
39.2177
  0
LINE
  8
0
 10
99.8701
 20
39.2177
 11
100.118
 21
39.2239
  0
LINE
  8
0
 10
100.118
 20
39.2239
 11
100.363
 21
39.1892
  0
LINE
  8
0
 10
100.363
 20
39.1892
 11
100.599
 21
39.1145
  0
LINE
  8
0
 10
100.599
 20
39.1145
 11
100.82
 21
39.0021
  0
LINE
  8
0
 10
100.82
 20
39.0021
 11
101.092
 21
38.787
  0
LINE
  8
0
 10
101.092
 20
38.787
 11
101.46
 21
38.4189
  0
LINE
  8
0
 10
101.46
 20
38.4189
 11
101.62
 21
38.2298
  0
LINE
  8
0
 10
101.62
 20
38.2298
 11
101.747
 21
38.017
  0
LINE
  8
0
 10
101.747
 20
38.017
 11
101.837
 21
37.7862
  0
LINE
  8
0
 10
101.837
 20
37.7862
 11
101.888
 21
37.5437
  0
LINE
  8
0
 10
101.888
 20
37.5437
 11
101.898
 21
37.2962
  0
LINE
  8
0
 10
101.898
 20
37.2962
 11
101.867
 21
37.0504
  0
LINE
  8
0
 10
101.867
 20
37.0504
 11
101.797
 21
36.8129
  0
LINE
  8
0
 10
101.797
 20
36.8129
 11
101.736
 21
36.6772
  0
LINE
  8
0
 10
101.736
 20
36.6772
 11
101.339
 21
35.8991
  0
LINE
  8
0
 10
101.339
 20
35.8991
 11
101.307
 21
35.8273
  0
LINE
  8
0
 10
101.307
 20
35.8273
 11
100.979
 21
34.9724
  0
LINE
  8
0
 10
100.979
 20
34.9724
 11
100.955
 21
34.8977
  0
LINE
  8
0
 10
100.955
 20
34.8977
 11
100.718
 21
34.0131
  0
LINE
  8
0
 10
100.718
 20
34.0131
 11
100.701
 21
33.9364
  0
LINE
  8
0
 10
100.701
 20
33.9364
 11
100.558
 21
33.0317
  0
LINE
  8
0
 10
100.558
 20
33.0317
 11
100.55
 21
32.9538
  0
LINE
  8
0
 10
100.55
 20
32.9538
 11
100.502
 21
32.0393
  0
LINE
  8
0
 10
100.502
 20
32.0393
 11
100.502
 21
31.9607
  0
LINE
  8
0
 10
100.502
 20
31.9607
 11
100.55
 21
31.0462
  0
LINE
  8
0
 10
100.55
 20
31.0462
 11
100.558
 21
30.9683
  0
LINE
  8
0
 10
100.558
 20
30.9683
 11
100.701
 21
30.0636
  0
LINE
  8
0
 10
100.701
 20
30.0636
 11
100.718
 21
29.9869
  0
LINE
  8
0
 10
100.718
 20
29.9869
 11
100.955
 21
29.1023
  0
LINE
  8
0
 10
100.955
 20
29.1023
 11
100.979
 21
29.0276
  0
LINE
  8
0
 10
100.979
 20
29.0276
 11
101.307
 21
28.1727
  0
LINE
  8
0
 10
101.307
 20
28.1727
 11
101.339
 21
28.1009
  0
LINE
  8
0
 10
101.339
 20
28.1009
 11
101.736
 21
27.3228
  0
LINE
  8
0
 10
101.736
 20
27.3228
 11
101.83
 21
27.0935
  0
LINE
  8
0
 10
101.83
 20
27.0935
 11
101.884
 21
26.8519
  0
LINE
  8
0
 10
101.884
 20
26.8519
 11
101.899
 21
26.6046
  0
LINE
  8
0
 10
101.899
 20
26.6046
 11
101.872
 21
26.3583
  0
LINE
  8
0
 10
101.872
 20
26.3583
 11
101.805
 21
26.1197
  0
LINE
  8
0
 10
101.805
 20
26.1197
 11
101.7
 21
25.8954
  0
LINE
  8
0
 10
101.7
 20
25.8954
 11
101.56
 21
25.6914
  0
LINE
  8
0
 10
101.56
 20
25.6914
 11
101.46
 21
25.5811
  0
LINE
  8
0
 10
101.46
 20
25.5811
 11
101.092
 21
25.213
  0
LINE
  8
0
 10
101.092
 20
25.213
 11
100.903
 21
25.0528
  0
LINE
  8
0
 10
100.903
 20
25.0528
 11
100.69
 21
24.926
  0
LINE
  8
0
 10
100.69
 20
24.926
 11
100.459
 21
24.836
  0
LINE
  8
0
 10
100.459
 20
24.836
 11
100.217
 21
24.7851
  0
LINE
  8
0
 10
100.217
 20
24.7851
 11
99.969
 21
24.7749
  0
LINE
  8
0
 10
99.969
 20
24.7749
 11
99.7232
 21
24.8055
  0
LINE
  8
0
 10
42.79
 20
33.0168
 11
42.5473
 21
33.0583
  0
LINE
  8
0
 10
42.5473
 20
33.0583
 11
42.3115
 21
33.1293
  0
LINE
  8
0
 10
42.3115
 20
33.1293
 11
42.0863
 21
33.2288
  0
LINE
  8
0
 10
42.0863
 20
33.2288
 11
41.8749
 21
33.3552
  0
LINE
  8
0
 10
41.8749
 20
33.3552
 11
41.6807
 21
33.5066
  0
LINE
  8
0
 10
41.6807
 20
33.5066
 11
41.5066
 21
33.6807
  0
LINE
  8
0
 10
41.5066
 20
33.6807
 11
41.3552
 21
33.8749
  0
LINE
  8
0
 10
41.3552
 20
33.8749
 11
41.2288
 21
34.0863
  0
LINE
  8
0
 10
41.2288
 20
34.0863
 11
41.1293
 21
34.3115
  0
LINE
  8
0
 10
41.1293
 20
34.3115
 11
41.0583
 21
34.5473
  0
LINE
  8
0
 10
41.0583
 20
34.5473
 11
41.0168
 21
34.79
  0
LINE
  8
0
 10
41.0168
 20
34.79
 11
41.0054
 21
35.036
  0
LINE
  8
0
 10
41.0054
 20
35.036
 11
41.0244
 21
35.2815
  0
LINE
  8
0
 10
41.0244
 20
35.2815
 11
41.0733
 21
35.5228
  0
LINE
  8
0
 10
41.0733
 20
35.5228
 11
41.1516
 21
35.7563
  0
LINE
  8
0
 10
41.1516
 20
35.7563
 11
41.2579
 21
35.9784
  0
LINE
  8
0
 10
41.2579
 20
35.9784
 11
41.3908
 21
36.1857
  0
LINE
  8
0
 10
41.3908
 20
36.1857
 11
41.5481
 21
36.3752
  0
LINE
  8
0
 10
41.5481
 20
36.3752
 11
41.7275
 21
36.5439
  0
LINE
  8
0
 10
41.7275
 20
36.5439
 11
41.9263
 21
36.6892
  0
LINE
  8
0
 10
41.9263
 20
36.6892
 11
42.1414
 21
36.809
  0
LINE
  8
0
 10
42.1414
 20
36.809
 11
42.3696
 21
36.9015
  0
LINE
  8
0
 10
42.3696
 20
36.9015
 11
42.6075
 21
36.9653
  0
LINE
  8
0
 10
42.6075
 20
36.9653
 11
42.8513
 21
36.9993
  0
LINE
  8
0
 10
42.8513
 20
36.9993
 11
43.0976
 21
37.0031
  0
LINE
  8
0
 10
43.0976
 20
37.0031
 11
43.3424
 21
36.9766
  0
LINE
  8
0
 10
43.3424
 20
36.9766
 11
43.5821
 21
36.9202
  0
LINE
  8
0
 10
43.5821
 20
36.9202
 11
43.813
 21
36.8348
  0
LINE
  8
0
 10
43.813
 20
36.8348
 11
44.0318
 21
36.7216
  0
LINE
  8
0
 10
44.0318
 20
36.7216
 11
44.2349
 21
36.5825
  0
LINE
  8
0
 10
44.2349
 20
36.5825
 11
44.4194
 21
36.4194
  0
LINE
  8
0
 10
44.4194
 20
36.4194
 11
44.5825
 21
36.2349
  0
LINE
  8
0
 10
44.5825
 20
36.2349
 11
44.7216
 21
36.0318
  0
LINE
  8
0
 10
44.7216
 20
36.0318
 11
44.8348
 21
35.813
  0
LINE
  8
0
 10
44.8348
 20
35.813
 11
44.9202
 21
35.5821
  0
LINE
  8
0
 10
44.9202
 20
35.5821
 11
44.9766
 21
35.3424
  0
LINE
  8
0
 10
44.9766
 20
35.3424
 11
45.0031
 21
35.0976
  0
LINE
  8
0
 10
45.0031
 20
35.0976
 11
44.9993
 21
34.8513
  0
LINE
  8
0
 10
44.9993
 20
34.8513
 11
44.9653
 21
34.6075
  0
LINE
  8
0
 10
44.9653
 20
34.6075
 11
44.9015
 21
34.3696
  0
LINE
  8
0
 10
44.9015
 20
34.3696
 11
44.809
 21
34.1414
  0
LINE
  8
0
 10
44.809
 20
34.1414
 11
44.6892
 21
33.9263
  0
LINE
  8
0
 10
44.6892
 20
33.9263
 11
44.5439
 21
33.7275
  0
LINE
  8
0
 10
44.5439
 20
33.7275
 11
44.3752
 21
33.5481
  0
LINE
  8
0
 10
44.3752
 20
33.5481
 11
44.1857
 21
33.3908
  0
LINE
  8
0
 10
44.1857
 20
33.3908
 11
43.9784
 21
33.2579
  0
LINE
  8
0
 10
43.9784
 20
33.2579
 11
43.7563
 21
33.1516
  0
LINE
  8
0
 10
43.7563
 20
33.1516
 11
43.5228
 21
33.0733
  0
LINE
  8
0
 10
43.5228
 20
33.0733
 11
43.2815
 21
33.0244
  0
LINE
  8
0
 10
43.2815
 20
33.0244
 11
43.036
 21
33.0054
  0
LINE
  8
0
 10
43.036
 20
33.0054
 11
42.79
 21
33.0168
  0
LINE
  8
0
 10
36.7185
 20
33.0244
 11
36.4772
 21
33.0733
  0
LINE
  8
0
 10
36.4772
 20
33.0733
 11
36.2437
 21
33.1516
  0
LINE
  8
0
 10
36.2437
 20
33.1516
 11
36.0216
 21
33.2579
  0
LINE
  8
0
 10
36.0216
 20
33.2579
 11
35.8143
 21
33.3908
  0
LINE
  8
0
 10
35.8143
 20
33.3908
 11
35.6248
 21
33.5481
  0
LINE
  8
0
 10
35.6248
 20
33.5481
 11
35.4561
 21
33.7275
  0
LINE
  8
0
 10
35.4561
 20
33.7275
 11
35.3108
 21
33.9263
  0
LINE
  8
0
 10
35.3108
 20
33.9263
 11
35.191
 21
34.1414
  0
LINE
  8
0
 10
35.191
 20
34.1414
 11
35.0985
 21
34.3696
  0
LINE
  8
0
 10
35.0985
 20
34.3696
 11
35.0347
 21
34.6075
  0
LINE
  8
0
 10
35.0347
 20
34.6075
 11
35.0007
 21
34.8513
  0
LINE
  8
0
 10
35.0007
 20
34.8513
 11
34.9969
 21
35.0976
  0
LINE
  8
0
 10
34.9969
 20
35.0976
 11
35.0234
 21
35.3424
  0
LINE
  8
0
 10
35.0234
 20
35.3424
 11
35.0798
 21
35.5821
  0
LINE
  8
0
 10
35.0798
 20
35.5821
 11
35.1652
 21
35.813
  0
LINE
  8
0
 10
35.1652
 20
35.813
 11
35.2784
 21
36.0318
  0
LINE
  8
0
 10
35.2784
 20
36.0318
 11
35.4175
 21
36.2349
  0
LINE
  8
0
 10
35.4175
 20
36.2349
 11
35.5806
 21
36.4194
  0
LINE
  8
0
 10
35.5806
 20
36.4194
 11
35.7651
 21
36.5825
  0
LINE
  8
0
 10
35.7651
 20
36.5825
 11
35.9682
 21
36.7216
  0
LINE
  8
0
 10
35.9682
 20
36.7216
 11
36.187
 21
36.8348
  0
LINE
  8
0
 10
36.187
 20
36.8348
 11
36.4179
 21
36.9202
  0
LINE
  8
0
 10
36.4179
 20
36.9202
 11
36.6576
 21
36.9766
  0
LINE
  8
0
 10
36.6576
 20
36.9766
 11
36.9024
 21
37.0031
  0
LINE
  8
0
 10
36.9024
 20
37.0031
 11
37.1487
 21
36.9993
  0
LINE
  8
0
 10
37.1487
 20
36.9993
 11
37.3925
 21
36.9653
  0
LINE
  8
0
 10
37.3925
 20
36.9653
 11
37.6304
 21
36.9015
  0
LINE
  8
0
 10
37.6304
 20
36.9015
 11
37.8586
 21
36.809
  0
LINE
  8
0
 10
37.8586
 20
36.809
 11
38.0737
 21
36.6892
  0
LINE
  8
0
 10
38.0737
 20
36.6892
 11
38.2725
 21
36.5439
  0
LINE
  8
0
 10
38.2725
 20
36.5439
 11
38.4519
 21
36.3752
  0
LINE
  8
0
 10
38.4519
 20
36.3752
 11
38.6092
 21
36.1857
  0
LINE
  8
0
 10
38.6092
 20
36.1857
 11
38.7421
 21
35.9784
  0
LINE
  8
0
 10
38.7421
 20
35.9784
 11
38.8484
 21
35.7563
  0
LINE
  8
0
 10
38.8484
 20
35.7563
 11
38.9267
 21
35.5228
  0
LINE
  8
0
 10
38.9267
 20
35.5228
 11
38.9756
 21
35.2815
  0
LINE
  8
0
 10
38.9756
 20
35.2815
 11
38.9946
 21
35.036
  0
LINE
  8
0
 10
38.9946
 20
35.036
 11
38.9832
 21
34.79
  0
LINE
  8
0
 10
38.9832
 20
34.79
 11
38.9417
 21
34.5473
  0
LINE
  8
0
 10
38.9417
 20
34.5473
 11
38.8707
 21
34.3115
  0
LINE
  8
0
 10
38.8707
 20
34.3115
 11
38.7712
 21
34.0863
  0
LINE
  8
0
 10
38.7712
 20
34.0863
 11
38.6448
 21
33.8749
  0
LINE
  8
0
 10
38.6448
 20
33.8749
 11
38.4934
 21
33.6807
  0
LINE
  8
0
 10
38.4934
 20
33.6807
 11
38.3193
 21
33.5066
  0
LINE
  8
0
 10
38.3193
 20
33.5066
 11
38.1251
 21
33.3552
  0
LINE
  8
0
 10
38.1251
 20
33.3552
 11
37.9137
 21
33.2288
  0
LINE
  8
0
 10
37.9137
 20
33.2288
 11
37.6885
 21
33.1293
  0
LINE
  8
0
 10
37.6885
 20
33.1293
 11
37.4527
 21
33.0583
  0
LINE
  8
0
 10
37.4527
 20
33.0583
 11
37.21
 21
33.0168
  0
LINE
  8
0
 10
37.21
 20
33.0168
 11
36.964
 21
33.0054
  0
LINE
  8
0
 10
36.964
 20
33.0054
 11
36.7185
 21
33.0244
  0
LINE
  8
0
 10
111.548
 20
36.3752
 11
111.728
 21
36.5439
  0
LINE
  8
0
 10
111.728
 20
36.5439
 11
111.926
 21
36.6892
  0
LINE
  8
0
 10
111.926
 20
36.6892
 11
112.141
 21
36.809
  0
LINE
  8
0
 10
112.141
 20
36.809
 11
112.37
 21
36.9015
  0
LINE
  8
0
 10
112.37
 20
36.9015
 11
112.607
 21
36.9653
  0
LINE
  8
0
 10
112.607
 20
36.9653
 11
112.851
 21
36.9993
  0
LINE
  8
0
 10
112.851
 20
36.9993
 11
113.098
 21
37.0031
  0
LINE
  8
0
 10
113.098
 20
37.0031
 11
113.342
 21
36.9766
  0
LINE
  8
0
 10
113.342
 20
36.9766
 11
113.582
 21
36.9202
  0
LINE
  8
0
 10
113.582
 20
36.9202
 11
113.813
 21
36.8348
  0
LINE
  8
0
 10
113.813
 20
36.8348
 11
114.032
 21
36.7216
  0
LINE
  8
0
 10
114.032
 20
36.7216
 11
114.235
 21
36.5825
  0
LINE
  8
0
 10
114.235
 20
36.5825
 11
114.419
 21
36.4194
  0
LINE
  8
0
 10
114.419
 20
36.4194
 11
114.582
 21
36.2349
  0
LINE
  8
0
 10
114.582
 20
36.2349
 11
114.722
 21
36.0318
  0
LINE
  8
0
 10
114.722
 20
36.0318
 11
114.835
 21
35.813
  0
LINE
  8
0
 10
114.835
 20
35.813
 11
114.92
 21
35.5821
  0
LINE
  8
0
 10
114.92
 20
35.5821
 11
114.977
 21
35.3424
  0
LINE
  8
0
 10
114.977
 20
35.3424
 11
115.003
 21
35.0976
  0
LINE
  8
0
 10
115.003
 20
35.0976
 11
114.999
 21
34.8513
  0
LINE
  8
0
 10
114.999
 20
34.8513
 11
114.965
 21
34.6075
  0
LINE
  8
0
 10
114.965
 20
34.6075
 11
114.902
 21
34.3696
  0
LINE
  8
0
 10
114.902
 20
34.3696
 11
114.809
 21
34.1414
  0
LINE
  8
0
 10
114.809
 20
34.1414
 11
114.689
 21
33.9263
  0
LINE
  8
0
 10
114.689
 20
33.9263
 11
114.544
 21
33.7275
  0
LINE
  8
0
 10
114.544
 20
33.7275
 11
114.375
 21
33.5481
  0
LINE
  8
0
 10
114.375
 20
33.5481
 11
114.186
 21
33.3908
  0
LINE
  8
0
 10
114.186
 20
33.3908
 11
113.978
 21
33.2579
  0
LINE
  8
0
 10
113.978
 20
33.2579
 11
113.756
 21
33.1516
  0
LINE
  8
0
 10
113.756
 20
33.1516
 11
113.523
 21
33.0733
  0
LINE
  8
0
 10
113.523
 20
33.0733
 11
113.282
 21
33.0244
  0
LINE
  8
0
 10
113.282
 20
33.0244
 11
113.036
 21
33.0054
  0
LINE
  8
0
 10
113.036
 20
33.0054
 11
112.79
 21
33.0168
  0
LINE
  8
0
 10
112.79
 20
33.0168
 11
112.547
 21
33.0583
  0
LINE
  8
0
 10
112.547
 20
33.0583
 11
112.312
 21
33.1293
  0
LINE
  8
0
 10
112.312
 20
33.1293
 11
112.086
 21
33.2288
  0
LINE
  8
0
 10
112.086
 20
33.2288
 11
111.875
 21
33.3552
  0
LINE
  8
0
 10
111.875
 20
33.3552
 11
111.681
 21
33.5066
  0
LINE
  8
0
 10
111.681
 20
33.5066
 11
111.507
 21
33.6807
  0
LINE
  8
0
 10
111.507
 20
33.6807
 11
111.355
 21
33.8749
  0
LINE
  8
0
 10
111.355
 20
33.8749
 11
111.229
 21
34.0863
  0
LINE
  8
0
 10
111.229
 20
34.0863
 11
111.129
 21
34.3115
  0
LINE
  8
0
 10
111.129
 20
34.3115
 11
111.058
 21
34.5473
  0
LINE
  8
0
 10
111.058
 20
34.5473
 11
111.017
 21
34.79
  0
LINE
  8
0
 10
111.017
 20
34.79
 11
111.005
 21
35.036
  0
LINE
  8
0
 10
111.005
 20
35.036
 11
111.024
 21
35.2815
  0
LINE
  8
0
 10
111.024
 20
35.2815
 11
111.073
 21
35.5228
  0
LINE
  8
0
 10
111.073
 20
35.5228
 11
111.152
 21
35.7563
  0
LINE
  8
0
 10
111.152
 20
35.7563
 11
111.258
 21
35.9784
  0
LINE
  8
0
 10
111.258
 20
35.9784
 11
111.391
 21
36.1857
  0
LINE
  8
0
 10
111.391
 20
36.1857
 11
111.548
 21
36.3752
  0
LINE
  8
0
 10
106.658
 20
27.0234
 11
106.418
 21
27.0798
  0
LINE
  8
0
 10
106.418
 20
27.0798
 11
106.187
 21
27.1652
  0
LINE
  8
0
 10
106.187
 20
27.1652
 11
105.968
 21
27.2784
  0
LINE
  8
0
 10
105.968
 20
27.2784
 11
105.765
 21
27.4175
  0
LINE
  8
0
 10
105.765
 20
27.4175
 11
105.581
 21
27.5806
  0
LINE
  8
0
 10
105.581
 20
27.5806
 11
105.418
 21
27.7651
  0
LINE
  8
0
 10
105.418
 20
27.7651
 11
105.278
 21
27.9682
  0
LINE
  8
0
 10
105.278
 20
27.9682
 11
105.165
 21
28.187
  0
LINE
  8
0
 10
105.165
 20
28.187
 11
105.08
 21
28.4179
  0
LINE
  8
0
 10
105.08
 20
28.4179
 11
105.023
 21
28.6576
  0
LINE
  8
0
 10
105.023
 20
28.6576
 11
104.997
 21
28.9024
  0
LINE
  8
0
 10
104.997
 20
28.9024
 11
105.001
 21
29.1487
  0
LINE
  8
0
 10
105.001
 20
29.1487
 11
105.035
 21
29.3925
  0
LINE
  8
0
 10
105.035
 20
29.3925
 11
105.098
 21
29.6304
  0
LINE
  8
0
 10
105.098
 20
29.6304
 11
105.191
 21
29.8586
  0
LINE
  8
0
 10
105.191
 20
29.8586
 11
105.311
 21
30.0737
  0
LINE
  8
0
 10
105.311
 20
30.0737
 11
105.456
 21
30.2725
  0
LINE
  8
0
 10
105.456
 20
30.2725
 11
105.625
 21
30.4519
  0
LINE
  8
0
 10
105.625
 20
30.4519
 11
105.814
 21
30.6092
  0
LINE
  8
0
 10
105.814
 20
30.6092
 11
106.022
 21
30.7421
  0
LINE
  8
0
 10
106.022
 20
30.7421
 11
106.244
 21
30.8484
  0
LINE
  8
0
 10
106.244
 20
30.8484
 11
106.477
 21
30.9267
  0
LINE
  8
0
 10
106.477
 20
30.9267
 11
106.718
 21
30.9756
  0
LINE
  8
0
 10
106.718
 20
30.9756
 11
106.964
 21
30.9946
  0
LINE
  8
0
 10
106.964
 20
30.9946
 11
107.21
 21
30.9832
  0
LINE
  8
0
 10
107.21
 20
30.9832
 11
107.453
 21
30.9417
  0
LINE
  8
0
 10
107.453
 20
30.9417
 11
107.688
 21
30.8707
  0
LINE
  8
0
 10
107.688
 20
30.8707
 11
107.914
 21
30.7712
  0
LINE
  8
0
 10
107.914
 20
30.7712
 11
108.125
 21
30.6448
  0
LINE
  8
0
 10
108.125
 20
30.6448
 11
108.319
 21
30.4934
  0
LINE
  8
0
 10
108.319
 20
30.4934
 11
108.493
 21
30.3193
  0
LINE
  8
0
 10
108.493
 20
30.3193
 11
108.645
 21
30.1251
  0
LINE
  8
0
 10
108.645
 20
30.1251
 11
108.771
 21
29.9137
  0
LINE
  8
0
 10
108.771
 20
29.9137
 11
108.871
 21
29.6885
  0
LINE
  8
0
 10
108.871
 20
29.6885
 11
108.942
 21
29.4527
  0
LINE
  8
0
 10
108.942
 20
29.4527
 11
108.983
 21
29.21
  0
LINE
  8
0
 10
108.983
 20
29.21
 11
108.995
 21
28.964
  0
LINE
  8
0
 10
108.995
 20
28.964
 11
108.976
 21
28.7185
  0
LINE
  8
0
 10
108.976
 20
28.7185
 11
108.927
 21
28.4772
  0
LINE
  8
0
 10
108.927
 20
28.4772
 11
108.848
 21
28.2437
  0
LINE
  8
0
 10
108.848
 20
28.2437
 11
108.742
 21
28.0216
  0
LINE
  8
0
 10
108.742
 20
28.0216
 11
108.609
 21
27.8143
  0
LINE
  8
0
 10
108.609
 20
27.8143
 11
108.452
 21
27.6248
  0
LINE
  8
0
 10
108.452
 20
27.6248
 11
108.272
 21
27.4561
  0
LINE
  8
0
 10
108.272
 20
27.4561
 11
108.074
 21
27.3108
  0
LINE
  8
0
 10
108.074
 20
27.3108
 11
107.859
 21
27.191
  0
LINE
  8
0
 10
107.859
 20
27.191
 11
107.63
 21
27.0985
  0
LINE
  8
0
 10
107.63
 20
27.0985
 11
107.393
 21
27.0347
  0
LINE
  8
0
 10
107.393
 20
27.0347
 11
107.149
 21
27.0007
  0
LINE
  8
0
 10
107.149
 20
27.0007
 11
106.902
 21
26.9969
  0
LINE
  8
0
 10
106.902
 20
26.9969
 11
106.658
 21
27.0234
  0
LINE
  8
0
 10
112.851
 20
27.0007
 11
112.607
 21
27.0347
  0
LINE
  8
0
 10
112.607
 20
27.0347
 11
112.37
 21
27.0985
  0
LINE
  8
0
 10
112.37
 20
27.0985
 11
112.141
 21
27.191
  0
LINE
  8
0
 10
112.141
 20
27.191
 11
111.926
 21
27.3108
  0
LINE
  8
0
 10
111.926
 20
27.3108
 11
111.728
 21
27.4561
  0
LINE
  8
0
 10
111.728
 20
27.4561
 11
111.548
 21
27.6248
  0
LINE
  8
0
 10
111.548
 20
27.6248
 11
111.391
 21
27.8143
  0
LINE
  8
0
 10
111.391
 20
27.8143
 11
111.258
 21
28.0216
  0
LINE
  8
0
 10
111.258
 20
28.0216
 11
111.152
 21
28.2437
  0
LINE
  8
0
 10
111.152
 20
28.2437
 11
111.073
 21
28.4772
  0
LINE
  8
0
 10
111.073
 20
28.4772
 11
111.024
 21
28.7185
  0
LINE
  8
0
 10
111.024
 20
28.7185
 11
111.005
 21
28.964
  0
LINE
  8
0
 10
111.005
 20
28.964
 11
111.017
 21
29.21
  0
LINE
  8
0
 10
111.017
 20
29.21
 11
111.058
 21
29.4527
  0
LINE
  8
0
 10
111.058
 20
29.4527
 11
111.129
 21
29.6885
  0
LINE
  8
0
 10
111.129
 20
29.6885
 11
111.229
 21
29.9137
  0
LINE
  8
0
 10
111.229
 20
29.9137
 11
111.355
 21
30.1251
  0
LINE
  8
0
 10
111.355
 20
30.1251
 11
111.507
 21
30.3193
  0
LINE
  8
0
 10
111.507
 20
30.3193
 11
111.681
 21
30.4934
  0
LINE
  8
0
 10
111.681
 20
30.4934
 11
111.875
 21
30.6448
  0
LINE
  8
0
 10
111.875
 20
30.6448
 11
112.086
 21
30.7712
  0
LINE
  8
0
 10
112.086
 20
30.7712
 11
112.312
 21
30.8707
  0
LINE
  8
0
 10
112.312
 20
30.8707
 11
112.547
 21
30.9417
  0
LINE
  8
0
 10
112.547
 20
30.9417
 11
112.79
 21
30.9832
  0
LINE
  8
0
 10
112.79
 20
30.9832
 11
113.036
 21
30.9946
  0
LINE
  8
0
 10
113.036
 20
30.9946
 11
113.282
 21
30.9756
  0
LINE
  8
0
 10
113.282
 20
30.9756
 11
113.523
 21
30.9267
  0
LINE
  8
0
 10
113.523
 20
30.9267
 11
113.756
 21
30.8484
  0
LINE
  8
0
 10
113.756
 20
30.8484
 11
113.978
 21
30.7421
  0
LINE
  8
0
 10
113.978
 20
30.7421
 11
114.186
 21
30.6092
  0
LINE
  8
0
 10
114.186
 20
30.6092
 11
114.375
 21
30.4519
  0
LINE
  8
0
 10
114.375
 20
30.4519
 11
114.544
 21
30.2725
  0
LINE
  8
0
 10
114.544
 20
30.2725
 11
114.689
 21
30.0737
  0
LINE
  8
0
 10
114.689
 20
30.0737
 11
114.809
 21
29.8586
  0
LINE
  8
0
 10
114.809
 20
29.8586
 11
114.902
 21
29.6304
  0
LINE
  8
0
 10
114.902
 20
29.6304
 11
114.965
 21
29.3925
  0
LINE
  8
0
 10
114.965
 20
29.3925
 11
114.999
 21
29.1487
  0
LINE
  8
0
 10
114.999
 20
29.1487
 11
115.003
 21
28.9024
  0
LINE
  8
0
 10
115.003
 20
28.9024
 11
114.977
 21
28.6576
  0
LINE
  8
0
 10
114.977
 20
28.6576
 11
114.92
 21
28.4179
  0
LINE
  8
0
 10
114.92
 20
28.4179
 11
114.835
 21
28.187
  0
LINE
  8
0
 10
114.835
 20
28.187
 11
114.722
 21
27.9682
  0
LINE
  8
0
 10
114.722
 20
27.9682
 11
114.582
 21
27.7651
  0
LINE
  8
0
 10
114.582
 20
27.7651
 11
114.419
 21
27.5806
  0
LINE
  8
0
 10
114.419
 20
27.5806
 11
114.235
 21
27.4175
  0
LINE
  8
0
 10
114.235
 20
27.4175
 11
114.032
 21
27.2784
  0
LINE
  8
0
 10
114.032
 20
27.2784
 11
113.813
 21
27.1652
  0
LINE
  8
0
 10
113.813
 20
27.1652
 11
113.582
 21
27.0798
  0
LINE
  8
0
 10
113.582
 20
27.0798
 11
113.342
 21
27.0234
  0
LINE
  8
0
 10
113.342
 20
27.0234
 11
113.098
 21
26.9969
  0
LINE
  8
0
 10
113.098
 20
26.9969
 11
112.851
 21
27.0007
  0
LINE
  8
0
 10
41.0583
 20
29.4527
 11
41.1293
 21
29.6885
  0
LINE
  8
0
 10
41.1293
 20
29.6885
 11
41.2288
 21
29.9137
  0
LINE
  8
0
 10
41.2288
 20
29.9137
 11
41.3552
 21
30.1251
  0
LINE
  8
0
 10
41.3552
 20
30.1251
 11
41.5066
 21
30.3193
  0
LINE
  8
0
 10
41.5066
 20
30.3193
 11
41.6807
 21
30.4934
  0
LINE
  8
0
 10
41.6807
 20
30.4934
 11
41.8749
 21
30.6448
  0
LINE
  8
0
 10
41.8749
 20
30.6448
 11
42.0863
 21
30.7712
  0
LINE
  8
0
 10
42.0863
 20
30.7712
 11
42.3115
 21
30.8707
  0
LINE
  8
0
 10
42.3115
 20
30.8707
 11
42.5473
 21
30.9417
  0
LINE
  8
0
 10
42.5473
 20
30.9417
 11
42.79
 21
30.9832
  0
LINE
  8
0
 10
42.79
 20
30.9832
 11
43.036
 21
30.9946
  0
LINE
  8
0
 10
43.036
 20
30.9946
 11
43.2815
 21
30.9756
  0
LINE
  8
0
 10
43.2815
 20
30.9756
 11
43.5228
 21
30.9267
  0
LINE
  8
0
 10
43.5228
 20
30.9267
 11
43.7563
 21
30.8484
  0
LINE
  8
0
 10
43.7563
 20
30.8484
 11
43.9784
 21
30.7421
  0
LINE
  8
0
 10
43.9784
 20
30.7421
 11
44.1857
 21
30.6092
  0
LINE
  8
0
 10
44.1857
 20
30.6092
 11
44.3752
 21
30.4519
  0
LINE
  8
0
 10
44.3752
 20
30.4519
 11
44.5439
 21
30.2725
  0
LINE
  8
0
 10
44.5439
 20
30.2725
 11
44.6892
 21
30.0737
  0
LINE
  8
0
 10
44.6892
 20
30.0737
 11
44.809
 21
29.8586
  0
LINE
  8
0
 10
44.809
 20
29.8586
 11
44.9015
 21
29.6304
  0
LINE
  8
0
 10
44.9015
 20
29.6304
 11
44.9653
 21
29.3925
  0
LINE
  8
0
 10
44.9653
 20
29.3925
 11
44.9993
 21
29.1487
  0
LINE
  8
0
 10
44.9993
 20
29.1487
 11
45.0031
 21
28.9024
  0
LINE
  8
0
 10
45.0031
 20
28.9024
 11
44.9766
 21
28.6576
  0
LINE
  8
0
 10
44.9766
 20
28.6576
 11
44.9202
 21
28.4179
  0
LINE
  8
0
 10
44.9202
 20
28.4179
 11
44.8348
 21
28.187
  0
LINE
  8
0
 10
44.8348
 20
28.187
 11
44.7216
 21
27.9682
  0
LINE
  8
0
 10
44.7216
 20
27.9682
 11
44.5825
 21
27.7651
  0
LINE
  8
0
 10
44.5825
 20
27.7651
 11
44.4194
 21
27.5806
  0
LINE
  8
0
 10
44.4194
 20
27.5806
 11
44.2349
 21
27.4175
  0
LINE
  8
0
 10
44.2349
 20
27.4175
 11
44.0318
 21
27.2784
  0
LINE
  8
0
 10
44.0318
 20
27.2784
 11
43.813
 21
27.1652
  0
LINE
  8
0
 10
43.813
 20
27.1652
 11
43.5821
 21
27.0798
  0
LINE
  8
0
 10
43.5821
 20
27.0798
 11
43.3424
 21
27.0234
  0
LINE
  8
0
 10
43.3424
 20
27.0234
 11
43.0976
 21
26.9969
  0
LINE
  8
0
 10
43.0976
 20
26.9969
 11
42.8513
 21
27.0007
  0
LINE
  8
0
 10
42.8513
 20
27.0007
 11
42.6075
 21
27.0347
  0
LINE
  8
0
 10
42.6075
 20
27.0347
 11
42.3696
 21
27.0985
  0
LINE
  8
0
 10
42.3696
 20
27.0985
 11
42.1414
 21
27.191
  0
LINE
  8
0
 10
42.1414
 20
27.191
 11
41.9263
 21
27.3108
  0
LINE
  8
0
 10
41.9263
 20
27.3108
 11
41.7275
 21
27.4561
  0
LINE
  8
0
 10
41.7275
 20
27.4561
 11
41.5481
 21
27.6248
  0
LINE
  8
0
 10
41.5481
 20
27.6248
 11
41.3908
 21
27.8143
  0
LINE
  8
0
 10
41.3908
 20
27.8143
 11
41.2579
 21
28.0216
  0
LINE
  8
0
 10
41.2579
 20
28.0216
 11
41.1516
 21
28.2437
  0
LINE
  8
0
 10
41.1516
 20
28.2437
 11
41.0733
 21
28.4772
  0
LINE
  8
0
 10
41.0733
 20
28.4772
 11
41.0244
 21
28.7185
  0
LINE
  8
0
 10
41.0244
 20
28.7185
 11
41.0054
 21
28.964
  0
LINE
  8
0
 10
41.0054
 20
28.964
 11
41.0168
 21
29.21
  0
LINE
  8
0
 10
41.0168
 20
29.21
 11
41.0583
 21
29.4527
  0
LINE
  8
0
 10
39.9215
 20
19.0041
 11
38.7197
 21
19.0671
  0
LINE
  8
0
 10
38.7197
 20
19.0671
 11
38.5636
 21
19.0835
  0
LINE
  8
0
 10
38.5636
 20
19.0835
 11
37.3747
 21
19.2718
  0
LINE
  8
0
 10
37.3747
 20
19.2718
 11
37.2211
 21
19.3045
  0
LINE
  8
0
 10
37.2211
 20
19.3045
 11
36.0588
 21
19.6159
  0
LINE
  8
0
 10
36.0588
 20
19.6159
 11
35.9095
 21
19.6644
  0
LINE
  8
0
 10
35.9095
 20
19.6644
 11
34.7857
 21
20.0958
  0
LINE
  8
0
 10
34.7857
 20
20.0958
 11
34.6423
 21
20.1597
  0
LINE
  8
0
 10
34.6423
 20
20.1597
 11
33.5926
 21
20.6945
  0
LINE
  8
0
 10
33.5926
 20
20.6945
 11
33.3819
 21
20.8248
  0
LINE
  8
0
 10
33.3819
 20
20.8248
 11
33.1956
 21
20.988
  0
LINE
  8
0
 10
33.1956
 20
20.988
 11
33.0386
 21
21.1797
  0
LINE
  8
0
 10
33.0386
 20
21.1797
 11
32.9153
 21
21.3946
  0
LINE
  8
0
 10
32.9153
 20
21.3946
 11
32.8291
 21
21.6268
  0
LINE
  8
0
 10
32.8291
 20
21.6268
 11
32.7823
 21
21.8701
  0
LINE
  8
0
 10
32.7823
 20
21.8701
 11
32.7761
 21
22.1178
  0
LINE
  8
0
 10
32.7761
 20
22.1178
 11
32.8108
 21
22.3631
  0
LINE
  8
0
 10
32.8108
 20
22.3631
 11
32.8855
 21
22.5993
  0
LINE
  8
0
 10
32.8855
 20
22.5993
 11
32.9979
 21
22.82
  0
LINE
  8
0
 10
32.9979
 20
22.82
 11
33.213
 21
23.0916
  0
LINE
  8
0
 10
33.213
 20
23.0916
 11
33.5811
 21
23.4598
  0
LINE
  8
0
 10
33.5811
 20
23.4598
 11
33.7702
 21
23.6199
  0
LINE
  8
0
 10
33.7702
 20
23.6199
 11
33.983
 21
23.7467
  0
LINE
  8
0
 10
33.983
 20
23.7467
 11
34.2138
 21
23.8368
  0
LINE
  8
0
 10
34.2138
 20
23.8368
 11
34.4563
 21
23.8876
  0
LINE
  8
0
 10
34.4563
 20
23.8876
 11
34.7038
 21
23.8979
  0
LINE
  8
0
 10
34.7038
 20
23.8979
 11
34.9496
 21
23.8672
  0
LINE
  8
0
 10
34.9496
 20
23.8672
 11
35.1871
 21
23.7966
  0
LINE
  8
0
 10
35.1871
 20
23.7966
 11
35.3228
 21
23.7357
  0
LINE
  8
0
 10
35.3228
 20
23.7357
 11
36.1009
 21
23.3392
  0
LINE
  8
0
 10
36.1009
 20
23.3392
 11
36.1727
 21
23.3072
  0
LINE
  8
0
 10
36.1727
 20
23.3072
 11
37.0276
 21
22.9791
  0
LINE
  8
0
 10
37.0276
 20
22.9791
 11
37.1023
 21
22.9548
  0
LINE
  8
0
 10
37.1023
 20
22.9548
 11
37.9869
 21
22.7178
  0
LINE
  8
0
 10
37.9869
 20
22.7178
 11
38.0636
 21
22.7015
  0
LINE
  8
0
 10
38.0636
 20
22.7015
 11
38.9683
 21
22.5582
  0
LINE
  8
0
 10
38.9683
 20
22.5582
 11
39.0462
 21
22.55
  0
LINE
  8
0
 10
39.0462
 20
22.55
 11
39.9607
 21
22.5021
  0
LINE
  8
0
 10
39.9607
 20
22.5021
 11
40.0393
 21
22.5021
  0
LINE
  8
0
 10
40.0393
 20
22.5021
 11
40.9538
 21
22.55
  0
LINE
  8
0
 10
40.9538
 20
22.55
 11
41.0317
 21
22.5582
  0
LINE
  8
0
 10
41.0317
 20
22.5582
 11
41.9364
 21
22.7015
  0
LINE
  8
0
 10
41.9364
 20
22.7015
 11
42.0131
 21
22.7178
  0
LINE
  8
0
 10
42.0131
 20
22.7178
 11
42.8977
 21
22.9548
  0
LINE
  8
0
 10
42.8977
 20
22.9548
 11
42.9724
 21
22.9791
  0
LINE
  8
0
 10
42.9724
 20
22.9791
 11
43.8273
 21
23.3072
  0
LINE
  8
0
 10
43.8273
 20
23.3072
 11
43.8991
 21
23.3392
  0
LINE
  8
0
 10
43.8991
 20
23.3392
 11
44.6772
 21
23.7357
  0
LINE
  8
0
 10
44.6772
 20
23.7357
 11
44.9065
 21
23.8295
  0
LINE
  8
0
 10
44.9065
 20
23.8295
 11
45.1481
 21
23.8844
  0
LINE
  8
0
 10
45.1481
 20
23.8844
 11
45.3954
 21
23.8987
  0
LINE
  8
0
 10
45.3954
 20
23.8987
 11
45.6417
 21
23.8721
  0
LINE
  8
0
 10
45.6417
 20
23.8721
 11
45.8803
 21
23.8054
  0
LINE
  8
0
 10
45.8803
 20
23.8054
 11
46.1046
 21
23.7003
  0
LINE
  8
0
 10
46.1046
 20
23.7003
 11
46.3086
 21
23.5597
  0
LINE
  8
0
 10
46.3086
 20
23.5597
 11
46.4189
 21
23.4598
  0
LINE
  8
0
 10
46.4189
 20
23.4598
 11
46.787
 21
23.0916
  0
LINE
  8
0
 10
46.787
 20
23.0916
 11
46.9472
 21
22.9026
  0
LINE
  8
0
 10
46.9472
 20
22.9026
 11
47.074
 21
22.6898
  0
LINE
  8
0
 10
47.074
 20
22.6898
 11
47.164
 21
22.459
  0
LINE
  8
0
 10
47.164
 20
22.459
 11
47.2149
 21
22.2165
  0
LINE
  8
0
 10
47.2149
 20
22.2165
 11
47.2251
 21
21.969
  0
LINE
  8
0
 10
47.2251
 20
21.969
 11
47.1945
 21
21.7232
  0
LINE
  8
0
 10
47.1945
 20
21.7232
 11
47.1238
 21
21.4857
  0
LINE
  8
0
 10
47.1238
 20
21.4857
 11
47.015
 21
21.2632
  0
LINE
  8
0
 10
47.015
 20
21.2632
 11
46.871
 21
21.0615
  0
LINE
  8
0
 10
46.871
 20
21.0615
 11
46.6958
 21
20.8864
  0
LINE
  8
0
 10
46.6958
 20
20.8864
 11
46.4074
 21
20.6945
  0
LINE
  8
0
 10
46.4074
 20
20.6945
 11
45.3577
 21
20.1597
  0
LINE
  8
0
 10
45.3577
 20
20.1597
 11
45.2143
 21
20.0958
  0
LINE
  8
0
 10
45.2143
 20
20.0958
 11
44.0905
 21
19.6644
  0
LINE
  8
0
 10
44.0905
 20
19.6644
 11
43.9412
 21
19.6159
  0
LINE
  8
0
 10
43.9412
 20
19.6159
 11
42.7789
 21
19.3045
  0
LINE
  8
0
 10
42.7789
 20
19.3045
 11
42.6253
 21
19.2718
  0
LINE
  8
0
 10
42.6253
 20
19.2718
 11
41.4364
 21
19.0835
  0
LINE
  8
0
 10
41.4364
 20
19.0835
 11
41.2803
 21
19.0671
  0
LINE
  8
0
 10
41.2803
 20
19.0671
 11
40.0785
 21
19.0041
  0
LINE
  8
0
 10
40.0785
 20
19.0041
 11
39.9215
 21
19.0041
  0
LINE
  8
0
 10
109.921
 20
19.0041
 11
108.72
 21
19.0671
  0
LINE
  8
0
 10
108.72
 20
19.0671
 11
108.564
 21
19.0835
  0
LINE
  8
0
 10
108.564
 20
19.0835
 11
107.375
 21
19.2718
  0
LINE
  8
0
 10
107.375
 20
19.2718
 11
107.221
 21
19.3045
  0
LINE
  8
0
 10
107.221
 20
19.3045
 11
106.059
 21
19.6159
  0
LINE
  8
0
 10
106.059
 20
19.6159
 11
105.909
 21
19.6644
  0
LINE
  8
0
 10
105.909
 20
19.6644
 11
104.786
 21
20.0958
  0
LINE
  8
0
 10
104.786
 20
20.0958
 11
104.642
 21
20.1597
  0
LINE
  8
0
 10
104.642
 20
20.1597
 11
103.593
 21
20.6945
  0
LINE
  8
0
 10
103.593
 20
20.6945
 11
103.382
 21
20.8248
  0
LINE
  8
0
 10
103.382
 20
20.8248
 11
103.196
 21
20.988
  0
LINE
  8
0
 10
103.196
 20
20.988
 11
103.039
 21
21.1797
  0
LINE
  8
0
 10
103.039
 20
21.1797
 11
102.915
 21
21.3946
  0
LINE
  8
0
 10
102.915
 20
21.3946
 11
102.829
 21
21.6268
  0
LINE
  8
0
 10
102.829
 20
21.6268
 11
102.782
 21
21.8701
  0
LINE
  8
0
 10
102.782
 20
21.8701
 11
102.776
 21
22.1178
  0
LINE
  8
0
 10
102.776
 20
22.1178
 11
102.811
 21
22.3631
  0
LINE
  8
0
 10
102.811
 20
22.3631
 11
102.885
 21
22.5993
  0
LINE
  8
0
 10
102.885
 20
22.5993
 11
102.998
 21
22.82
  0
LINE
  8
0
 10
102.998
 20
22.82
 11
103.213
 21
23.0916
  0
LINE
  8
0
 10
103.213
 20
23.0916
 11
103.581
 21
23.4598
  0
LINE
  8
0
 10
103.581
 20
23.4598
 11
103.77
 21
23.6199
  0
LINE
  8
0
 10
103.77
 20
23.6199
 11
103.983
 21
23.7467
  0
LINE
  8
0
 10
103.983
 20
23.7467
 11
104.214
 21
23.8368
  0
LINE
  8
0
 10
104.214
 20
23.8368
 11
104.456
 21
23.8876
  0
LINE
  8
0
 10
104.456
 20
23.8876
 11
104.704
 21
23.8979
  0
LINE
  8
0
 10
104.704
 20
23.8979
 11
104.95
 21
23.8672
  0
LINE
  8
0
 10
104.95
 20
23.8672
 11
105.187
 21
23.7966
  0
LINE
  8
0
 10
105.187
 20
23.7966
 11
105.323
 21
23.7357
  0
LINE
  8
0
 10
105.323
 20
23.7357
 11
106.101
 21
23.3392
  0
LINE
  8
0
 10
106.101
 20
23.3392
 11
106.173
 21
23.3072
  0
LINE
  8
0
 10
106.173
 20
23.3072
 11
107.028
 21
22.9791
  0
LINE
  8
0
 10
107.028
 20
22.9791
 11
107.102
 21
22.9548
  0
LINE
  8
0
 10
107.102
 20
22.9548
 11
107.987
 21
22.7178
  0
LINE
  8
0
 10
107.987
 20
22.7178
 11
108.064
 21
22.7015
  0
LINE
  8
0
 10
108.064
 20
22.7015
 11
108.968
 21
22.5582
  0
LINE
  8
0
 10
108.968
 20
22.5582
 11
109.046
 21
22.55
  0
LINE
  8
0
 10
109.046
 20
22.55
 11
109.961
 21
22.5021
  0
LINE
  8
0
 10
109.961
 20
22.5021
 11
110.039
 21
22.5021
  0
LINE
  8
0
 10
110.039
 20
22.5021
 11
110.954
 21
22.55
  0
LINE
  8
0
 10
110.954
 20
22.55
 11
111.032
 21
22.5582
  0
LINE
  8
0
 10
111.032
 20
22.5582
 11
111.936
 21
22.7015
  0
LINE
  8
0
 10
111.936
 20
22.7015
 11
112.013
 21
22.7178
  0
LINE
  8
0
 10
112.013
 20
22.7178
 11
112.898
 21
22.9548
  0
LINE
  8
0
 10
112.898
 20
22.9548
 11
112.972
 21
22.9791
  0
LINE
  8
0
 10
112.972
 20
22.9791
 11
113.827
 21
23.3072
  0
LINE
  8
0
 10
113.827
 20
23.3072
 11
113.899
 21
23.3392
  0
LINE
  8
0
 10
113.899
 20
23.3392
 11
114.677
 21
23.7357
  0
LINE
  8
0
 10
114.677
 20
23.7357
 11
114.906
 21
23.8295
  0
LINE
  8
0
 10
114.906
 20
23.8295
 11
115.148
 21
23.8844
  0
LINE
  8
0
 10
115.148
 20
23.8844
 11
115.395
 21
23.8987
  0
LINE
  8
0
 10
115.395
 20
23.8987
 11
115.642
 21
23.8721
  0
LINE
  8
0
 10
115.642
 20
23.8721
 11
115.88
 21
23.8054
  0
LINE
  8
0
 10
115.88
 20
23.8054
 11
116.105
 21
23.7003
  0
LINE
  8
0
 10
116.105
 20
23.7003
 11
116.309
 21
23.5597
  0
LINE
  8
0
 10
116.309
 20
23.5597
 11
116.419
 21
23.4598
  0
LINE
  8
0
 10
116.419
 20
23.4598
 11
116.787
 21
23.0916
  0
LINE
  8
0
 10
116.787
 20
23.0916
 11
116.947
 21
22.9026
  0
LINE
  8
0
 10
116.947
 20
22.9026
 11
117.074
 21
22.6898
  0
LINE
  8
0
 10
117.074
 20
22.6898
 11
117.164
 21
22.459
  0
LINE
  8
0
 10
117.164
 20
22.459
 11
117.215
 21
22.2165
  0
LINE
  8
0
 10
117.215
 20
22.2165
 11
117.225
 21
21.969
  0
LINE
  8
0
 10
117.225
 20
21.969
 11
117.194
 21
21.7232
  0
LINE
  8
0
 10
117.194
 20
21.7232
 11
117.124
 21
21.4857
  0
LINE
  8
0
 10
117.124
 20
21.4857
 11
117.015
 21
21.2632
  0
LINE
  8
0
 10
117.015
 20
21.2632
 11
116.871
 21
21.0615
  0
LINE
  8
0
 10
116.871
 20
21.0615
 11
116.696
 21
20.8864
  0
LINE
  8
0
 10
116.696
 20
20.8864
 11
116.407
 21
20.6945
  0
LINE
  8
0
 10
116.407
 20
20.6945
 11
115.358
 21
20.1597
  0
LINE
  8
0
 10
115.358
 20
20.1597
 11
115.214
 21
20.0958
  0
LINE
  8
0
 10
115.214
 20
20.0958
 11
114.091
 21
19.6644
  0
LINE
  8
0
 10
114.091
 20
19.6644
 11
113.941
 21
19.6159
  0
LINE
  8
0
 10
113.941
 20
19.6159
 11
112.779
 21
19.3045
  0
LINE
  8
0
 10
112.779
 20
19.3045
 11
112.625
 21
19.2718
  0
LINE
  8
0
 10
112.625
 20
19.2718
 11
111.436
 21
19.0835
  0
LINE
  8
0
 10
111.436
 20
19.0835
 11
111.28
 21
19.0671
  0
LINE
  8
0
 10
111.28
 20
19.0671
 11
110.079
 21
19.0041
  0
LINE
  8
0
 10
110.079
 20
19.0041
 11
109.921
 21
19.0041
  0
LINE
  8
0
 10
109.921
 20
13.5041
 11
108.145
 21
13.5972
  0
LINE
  8
0
 10
108.145
 20
13.5972
 11
107.989
 21
13.6136
  0
LINE
  8
0
 10
107.989
 20
13.6136
 11
106.231
 21
13.892
  0
LINE
  8
0
 10
106.231
 20
13.892
 11
106.078
 21
13.9246
  0
LINE
  8
0
 10
106.078
 20
13.9246
 11
104.359
 21
14.3851
  0
LINE
  8
0
 10
104.359
 20
14.3851
 11
104.21
 21
14.4336
  0
LINE
  8
0
 10
104.21
 20
14.4336
 11
102.549
 21
15.0712
  0
LINE
  8
0
 10
102.549
 20
15.0712
 11
102.405
 21
15.1351
  0
LINE
  8
0
 10
102.405
 20
15.1351
 11
100.82
 21
15.9429
  0
LINE
  8
0
 10
100.82
 20
15.9429
 11
100.684
 21
16.0214
  0
LINE
  8
0
 10
100.684
 20
16.0214
 11
99.4842
 21
16.8005
  0
LINE
  8
0
 10
99.4842
 20
16.8005
 11
99.2883
 21
16.9522
  0
LINE
  8
0
 10
99.2883
 20
16.9522
 11
99.12
 21
17.134
  0
LINE
  8
0
 10
99.12
 20
17.134
 11
98.9839
 21
17.341
  0
LINE
  8
0
 10
98.9839
 20
17.341
 11
98.8838
 21
17.5676
  0
LINE
  8
0
 10
98.8838
 20
17.5676
 11
98.8223
 21
17.8076
  0
LINE
  8
0
 10
98.8223
 20
17.8076
 11
98.8012
 21
18.0544
  0
LINE
  8
0
 10
98.8012
 20
18.0544
 11
98.821
 21
18.3014
  0
LINE
  8
0
 10
98.821
 20
18.3014
 11
98.8811
 21
18.5417
  0
LINE
  8
0
 10
98.8811
 20
18.5417
 11
98.98
 21
18.7688
  0
LINE
  8
0
 10
98.98
 20
18.7688
 11
99.1149
 21
18.9766
  0
LINE
  8
0
 10
99.1149
 20
18.9766
 11
99.2405
 21
19.1192
  0
LINE
  8
0
 10
99.2405
 20
19.1192
 11
99.5985
 21
19.4772
  0
LINE
  8
0
 10
99.5985
 20
19.4772
 11
99.7876
 21
19.6373
  0
LINE
  8
0
 10
99.7876
 20
19.6373
 11
100
 21
19.7641
  0
LINE
  8
0
 10
100
 20
19.7641
 11
100.231
 21
19.8542
  0
LINE
  8
0
 10
100.231
 20
19.8542
 11
100.474
 21
19.905
  0
LINE
  8
0
 10
100.474
 20
19.905
 11
100.721
 21
19.9153
  0
LINE
  8
0
 10
100.721
 20
19.9153
 11
100.967
 21
19.8846
  0
LINE
  8
0
 10
100.967
 20
19.8846
 11
101.204
 21
19.8139
  0
LINE
  8
0
 10
101.204
 20
19.8139
 11
101.476
 21
19.6745
  0
LINE
  8
0
 10
101.476
 20
19.6745
 11
102.467
 21
19.031
  0
LINE
  8
0
 10
102.467
 20
19.031
 11
102.535
 21
18.9918
  0
LINE
  8
0
 10
102.535
 20
18.9918
 11
103.864
 21
18.3147
  0
LINE
  8
0
 10
103.864
 20
18.3147
 11
103.936
 21
18.2827
  0
LINE
  8
0
 10
103.936
 20
18.2827
 11
105.328
 21
17.7483
  0
LINE
  8
0
 10
105.328
 20
17.7483
 11
105.403
 21
17.7239
  0
LINE
  8
0
 10
105.403
 20
17.7239
 11
106.843
 21
17.338
  0
LINE
  8
0
 10
106.843
 20
17.338
 11
106.92
 21
17.3216
  0
LINE
  8
0
 10
106.92
 20
17.3216
 11
108.393
 21
17.0883
  0
LINE
  8
0
 10
108.393
 20
17.0883
 11
108.471
 21
17.0801
  0
LINE
  8
0
 10
108.471
 20
17.0801
 11
109.961
 21
17.0021
  0
LINE
  8
0
 10
109.961
 20
17.0021
 11
110.039
 21
17.0021
  0
LINE
  8
0
 10
110.039
 20
17.0021
 11
111.529
 21
17.0801
  0
LINE
  8
0
 10
111.529
 20
17.0801
 11
111.607
 21
17.0883
  0
LINE
  8
0
 10
111.607
 20
17.0883
 11
113.08
 21
17.3216
  0
LINE
  8
0
 10
113.08
 20
17.3216
 11
113.157
 21
17.338
  0
LINE
  8
0
 10
113.157
 20
17.338
 11
114.597
 21
17.7239
  0
LINE
  8
0
 10
114.597
 20
17.7239
 11
114.672
 21
17.7483
  0
LINE
  8
0
 10
114.672
 20
17.7483
 11
116.064
 21
18.2827
  0
LINE
  8
0
 10
116.064
 20
18.2827
 11
116.136
 21
18.3147
  0
LINE
  8
0
 10
116.136
 20
18.3147
 11
117.465
 21
18.9918
  0
LINE
  8
0
 10
117.465
 20
18.9918
 11
117.533
 21
19.031
  0
LINE
  8
0
 10
117.533
 20
19.031
 11
118.524
 21
19.6745
  0
LINE
  8
0
 10
118.524
 20
19.6745
 11
118.742
 21
19.7919
  0
LINE
  8
0
 10
118.742
 20
19.7919
 11
118.977
 21
19.8716
  0
LINE
  8
0
 10
118.977
 20
19.8716
 11
119.221
 21
19.9117
  0
LINE
  8
0
 10
119.221
 20
19.9117
 11
119.469
 21
19.9111
  0
LINE
  8
0
 10
119.469
 20
19.9111
 11
119.713
 21
19.8696
  0
LINE
  8
0
 10
119.713
 20
19.8696
 11
119.947
 21
19.7885
  0
LINE
  8
0
 10
119.947
 20
19.7885
 11
120.165
 21
19.67
  0
LINE
  8
0
 10
120.165
 20
19.67
 11
120.401
 21
19.4772
  0
LINE
  8
0
 10
120.401
 20
19.4772
 11
120.759
 21
19.1192
  0
LINE
  8
0
 10
120.759
 20
19.1192
 11
120.92
 21
18.9302
  0
LINE
  8
0
 10
120.92
 20
18.9302
 11
121.046
 21
18.7173
  0
LINE
  8
0
 10
121.046
 20
18.7173
 11
121.136
 21
18.4866
  0
LINE
  8
0
 10
121.136
 20
18.4866
 11
121.187
 21
18.2441
  0
LINE
  8
0
 10
121.187
 20
18.2441
 11
121.198
 21
17.9966
  0
LINE
  8
0
 10
121.198
 20
17.9966
 11
121.167
 21
17.7507
  0
LINE
  8
0
 10
121.167
 20
17.7507
 11
121.096
 21
17.5133
  0
LINE
  8
0
 10
121.096
 20
17.5133
 11
120.987
 21
17.2907
  0
LINE
  8
0
 10
120.987
 20
17.2907
 11
120.843
 21
17.0891
  0
LINE
  8
0
 10
120.843
 20
17.0891
 11
120.668
 21
16.9139
  0
LINE
  8
0
 10
120.668
 20
16.9139
 11
120.516
 21
16.8005
  0
LINE
  8
0
 10
120.516
 20
16.8005
 11
119.316
 21
16.0214
  0
LINE
  8
0
 10
119.316
 20
16.0214
 11
119.18
 21
15.9429
  0
LINE
  8
0
 10
119.18
 20
15.9429
 11
117.595
 21
15.1351
  0
LINE
  8
0
 10
117.595
 20
15.1351
 11
117.451
 21
15.0712
  0
LINE
  8
0
 10
117.451
 20
15.0712
 11
115.79
 21
14.4336
  0
LINE
  8
0
 10
115.79
 20
14.4336
 11
115.641
 21
14.3851
  0
LINE
  8
0
 10
115.641
 20
14.3851
 11
113.922
 21
13.9246
  0
LINE
  8
0
 10
113.922
 20
13.9246
 11
113.769
 21
13.892
  0
LINE
  8
0
 10
113.769
 20
13.892
 11
112.011
 21
13.6136
  0
LINE
  8
0
 10
112.011
 20
13.6136
 11
111.855
 21
13.5972
  0
LINE
  8
0
 10
111.855
 20
13.5972
 11
110.079
 21
13.5041
  0
LINE
  8
0
 10
110.079
 20
13.5041
 11
109.921
 21
13.5041
  0
LINE
  8
0
 10
39.9215
 20
13.5041
 11
38.1448
 21
13.5972
  0
LINE
  8
0
 10
38.1448
 20
13.5972
 11
37.9887
 21
13.6136
  0
LINE
  8
0
 10
37.9887
 20
13.6136
 11
36.2313
 21
13.892
  0
LINE
  8
0
 10
36.2313
 20
13.892
 11
36.0777
 21
13.9246
  0
LINE
  8
0
 10
36.0777
 20
13.9246
 11
34.3591
 21
14.3851
  0
LINE
  8
0
 10
34.3591
 20
14.3851
 11
34.2098
 21
14.4336
  0
LINE
  8
0
 10
34.2098
 20
14.4336
 11
32.5488
 21
15.0712
  0
LINE
  8
0
 10
32.5488
 20
15.0712
 11
32.4053
 21
15.1351
  0
LINE
  8
0
 10
32.4053
 20
15.1351
 11
30.82
 21
15.9429
  0
LINE
  8
0
 10
30.82
 20
15.9429
 11
30.6841
 21
16.0214
  0
LINE
  8
0
 10
30.6841
 20
16.0214
 11
29.4842
 21
16.8005
  0
LINE
  8
0
 10
29.4842
 20
16.8005
 11
29.2883
 21
16.9522
  0
LINE
  8
0
 10
29.2883
 20
16.9522
 11
29.12
 21
17.134
  0
LINE
  8
0
 10
29.12
 20
17.134
 11
28.9839
 21
17.341
  0
LINE
  8
0
 10
28.9839
 20
17.341
 11
28.8838
 21
17.5676
  0
LINE
  8
0
 10
28.8838
 20
17.5676
 11
28.8223
 21
17.8076
  0
LINE
  8
0
 10
28.8223
 20
17.8076
 11
28.8012
 21
18.0544
  0
LINE
  8
0
 10
28.8012
 20
18.0544
 11
28.821
 21
18.3014
  0
LINE
  8
0
 10
28.821
 20
18.3014
 11
28.8811
 21
18.5417
  0
LINE
  8
0
 10
28.8811
 20
18.5417
 11
28.98
 21
18.7688
  0
LINE
  8
0
 10
28.98
 20
18.7688
 11
29.1149
 21
18.9766
  0
LINE
  8
0
 10
29.1149
 20
18.9766
 11
29.2405
 21
19.1192
  0
LINE
  8
0
 10
29.2405
 20
19.1192
 11
29.5985
 21
19.4772
  0
LINE
  8
0
 10
29.5985
 20
19.4772
 11
29.7876
 21
19.6373
  0
LINE
  8
0
 10
29.7876
 20
19.6373
 11
30.0004
 21
19.7641
  0
LINE
  8
0
 10
30.0004
 20
19.7641
 11
30.2312
 21
19.8542
  0
LINE
  8
0
 10
30.2312
 20
19.8542
 11
30.4736
 21
19.905
  0
LINE
  8
0
 10
30.4736
 20
19.905
 11
30.7211
 21
19.9153
  0
LINE
  8
0
 10
30.7211
 20
19.9153
 11
30.967
 21
19.8846
  0
LINE
  8
0
 10
30.967
 20
19.8846
 11
31.2044
 21
19.8139
  0
LINE
  8
0
 10
31.2044
 20
19.8139
 11
31.4761
 21
19.6745
  0
LINE
  8
0
 10
31.4761
 20
19.6745
 11
32.467
 21
19.031
  0
LINE
  8
0
 10
32.467
 20
19.031
 11
32.535
 21
18.9918
  0
LINE
  8
0
 10
32.535
 20
18.9918
 11
33.864
 21
18.3147
  0
LINE
  8
0
 10
33.864
 20
18.3147
 11
33.9357
 21
18.2827
  0
LINE
  8
0
 10
33.9357
 20
18.2827
 11
35.328
 21
17.7483
  0
LINE
  8
0
 10
35.328
 20
17.7483
 11
35.4029
 21
17.7239
  0
LINE
  8
0
 10
35.4029
 20
17.7239
 11
36.8432
 21
17.338
  0
LINE
  8
0
 10
36.8432
 20
17.338
 11
36.9202
 21
17.3216
  0
LINE
  8
0
 10
36.9202
 20
17.3216
 11
38.3933
 21
17.0883
  0
LINE
  8
0
 10
38.3933
 20
17.0883
 11
38.4714
 21
17.0801
  0
LINE
  8
0
 10
38.4714
 20
17.0801
 11
39.9607
 21
17.0021
  0
LINE
  8
0
 10
39.9607
 20
17.0021
 11
40.0393
 21
17.0021
  0
LINE
  8
0
 10
40.0393
 20
17.0021
 11
41.5286
 21
17.0801
  0
LINE
  8
0
 10
41.5286
 20
17.0801
 11
41.6067
 21
17.0883
  0
LINE
  8
0
 10
41.6067
 20
17.0883
 11
43.0798
 21
17.3216
  0
LINE
  8
0
 10
43.0798
 20
17.3216
 11
43.1568
 21
17.338
  0
LINE
  8
0
 10
43.1568
 20
17.338
 11
44.5971
 21
17.7239
  0
LINE
  8
0
 10
44.5971
 20
17.7239
 11
44.672
 21
17.7483
  0
LINE
  8
0
 10
44.672
 20
17.7483
 11
46.0643
 21
18.2827
  0
LINE
  8
0
 10
46.0643
 20
18.2827
 11
46.136
 21
18.3147
  0
LINE
  8
0
 10
46.136
 20
18.3147
 11
47.465
 21
18.9918
  0
LINE
  8
0
 10
47.465
 20
18.9918
 11
47.533
 21
19.031
  0
LINE
  8
0
 10
47.533
 20
19.031
 11
48.5239
 21
19.6745
  0
LINE
  8
0
 10
48.5239
 20
19.6745
 11
48.7421
 21
19.7919
  0
LINE
  8
0
 10
48.7421
 20
19.7919
 11
48.9766
 21
19.8716
  0
LINE
  8
0
 10
48.9766
 20
19.8716
 11
49.2211
 21
19.9117
  0
LINE
  8
0
 10
49.2211
 20
19.9117
 11
49.4688
 21
19.9111
  0
LINE
  8
0
 10
49.4688
 20
19.9111
 11
49.7131
 21
19.8696
  0
LINE
  8
0
 10
49.7131
 20
19.8696
 11
49.9472
 21
19.7885
  0
LINE
  8
0
 10
49.9472
 20
19.7885
 11
50.1647
 21
19.67
  0
LINE
  8
0
 10
50.1647
 20
19.67
 11
50.4015
 21
19.4772
  0
LINE
  8
0
 10
50.4015
 20
19.4772
 11
50.7595
 21
19.1192
  0
LINE
  8
0
 10
50.7595
 20
19.1192
 11
50.9196
 21
18.9302
  0
LINE
  8
0
 10
50.9196
 20
18.9302
 11
51.0464
 21
18.7173
  0
LINE
  8
0
 10
51.0464
 20
18.7173
 11
51.1365
 21
18.4866
  0
LINE
  8
0
 10
51.1365
 20
18.4866
 11
51.1873
 21
18.2441
  0
LINE
  8
0
 10
51.1873
 20
18.2441
 11
51.1975
 21
17.9966
  0
LINE
  8
0
 10
51.1975
 20
17.9966
 11
51.1669
 21
17.7507
  0
LINE
  8
0
 10
51.1669
 20
17.7507
 11
51.0962
 21
17.5133
  0
LINE
  8
0
 10
51.0962
 20
17.5133
 11
50.9874
 21
17.2907
  0
LINE
  8
0
 10
50.9874
 20
17.2907
 11
50.8434
 21
17.0891
  0
LINE
  8
0
 10
50.8434
 20
17.0891
 11
50.6683
 21
16.9139
  0
LINE
  8
0
 10
50.6683
 20
16.9139
 11
50.5158
 21
16.8005
  0
LINE
  8
0
 10
50.5158
 20
16.8005
 11
49.3159
 21
16.0214
  0
LINE
  8
0
 10
49.3159
 20
16.0214
 11
49.18
 21
15.9429
  0
LINE
  8
0
 10
49.18
 20
15.9429
 11
47.5947
 21
15.1351
  0
LINE
  8
0
 10
47.5947
 20
15.1351
 11
47.4512
 21
15.0712
  0
LINE
  8
0
 10
47.4512
 20
15.0712
 11
45.7902
 21
14.4336
  0
LINE
  8
0
 10
45.7902
 20
14.4336
 11
45.6409
 21
14.3851
  0
LINE
  8
0
 10
45.6409
 20
14.3851
 11
43.9223
 21
13.9246
  0
LINE
  8
0
 10
43.9223
 20
13.9246
 11
43.7687
 21
13.892
  0
LINE
  8
0
 10
43.7687
 20
13.892
 11
42.0113
 21
13.6136
  0
LINE
  8
0
 10
42.0113
 20
13.6136
 11
41.8552
 21
13.5972
  0
LINE
  8
0
 10
41.8552
 20
13.5972
 11
40.0785
 21
13.5041
  0
LINE
  8
0
 10
40.0785
 20
13.5041
 11
39.9215
 21
13.5041
  0
LINE
  8
0
 10
23.8764
 20
14.35
 11
23.6318
 21
14.3869
  0
LINE
  8
0
 10
23.6318
 20
14.3869
 11
23.3955
 21
14.4598
  0
LINE
  8
0
 10
23.3955
 20
14.4598
 11
23.1727
 21
14.5671
  0
LINE
  8
0
 10
23.1727
 20
14.5671
 11
22.9684
 21
14.7064
  0
LINE
  8
0
 10
22.9684
 20
14.7064
 11
22.7871
 21
14.8746
  0
LINE
  8
0
 10
22.7871
 20
14.8746
 11
22.6329
 21
15.0679
  0
LINE
  8
0
 10
22.6329
 20
15.0679
 11
22.5092
 21
15.2821
  0
LINE
  8
0
 10
22.5092
 20
15.2821
 11
22.4189
 21
15.5123
  0
LINE
  8
0
 10
22.4189
 20
15.5123
 11
22.3639
 21
15.7534
  0
LINE
  8
0
 10
22.3639
 20
15.7534
 11
22.3454
 21
16
  0
LINE
  8
0
 10
22.3454
 20
16
 11
22.3639
 21
16.2466
  0
LINE
  8
0
 10
22.3639
 20
16.2466
 11
22.4189
 21
16.4877
  0
LINE
  8
0
 10
22.4189
 20
16.4877
 11
22.5092
 21
16.7179
  0
LINE
  8
0
 10
22.5092
 20
16.7179
 11
22.6329
 21
16.9321
  0
LINE
  8
0
 10
22.6329
 20
16.9321
 11
22.7871
 21
17.1254
  0
LINE
  8
0
 10
22.7871
 20
17.1254
 11
22.9684
 21
17.2936
  0
LINE
  8
0
 10
22.9684
 20
17.2936
 11
23.1727
 21
17.433
  0
LINE
  8
0
 10
23.1727
 20
17.433
 11
23.3955
 21
17.5403
  0
LINE
  8
0
 10
23.3955
 20
17.5403
 11
23.6318
 21
17.6131
  0
LINE
  8
0
 10
23.6318
 20
17.6131
 11
23.8764
 21
17.65
  0
LINE
  8
0
 10
23.8764
 20
17.65
 11
24.1237
 21
17.65
  0
LINE
  8
0
 10
24.1237
 20
17.65
 11
24.3682
 21
17.6131
  0
LINE
  8
0
 10
24.3682
 20
17.6131
 11
24.6045
 21
17.5403
  0
LINE
  8
0
 10
24.6045
 20
17.5403
 11
24.8273
 21
17.433
  0
LINE
  8
0
 10
24.8273
 20
17.433
 11
25.0316
 21
17.2936
  0
LINE
  8
0
 10
25.0316
 20
17.2936
 11
25.2129
 21
17.1254
  0
LINE
  8
0
 10
25.2129
 20
17.1254
 11
25.3671
 21
16.9321
  0
LINE
  8
0
 10
25.3671
 20
16.9321
 11
25.4908
 21
16.7179
  0
LINE
  8
0
 10
25.4908
 20
16.7179
 11
25.5811
 21
16.4877
  0
LINE
  8
0
 10
25.5811
 20
16.4877
 11
25.6362
 21
16.2466
  0
LINE
  8
0
 10
25.6362
 20
16.2466
 11
25.6546
 21
16
  0
LINE
  8
0
 10
25.6546
 20
16
 11
25.6362
 21
15.7534
  0
LINE
  8
0
 10
25.6362
 20
15.7534
 11
25.5811
 21
15.5123
  0
LINE
  8
0
 10
25.5811
 20
15.5123
 11
25.4908
 21
15.2821
  0
LINE
  8
0
 10
25.4908
 20
15.2821
 11
25.3671
 21
15.0679
  0
LINE
  8
0
 10
25.3671
 20
15.0679
 11
25.2129
 21
14.8746
  0
LINE
  8
0
 10
25.2129
 20
14.8746
 11
25.0316
 21
14.7064
  0
LINE
  8
0
 10
25.0316
 20
14.7064
 11
24.8273
 21
14.5671
  0
LINE
  8
0
 10
24.8273
 20
14.5671
 11
24.6045
 21
14.4598
  0
LINE
  8
0
 10
24.6045
 20
14.4598
 11
24.3682
 21
14.3869
  0
LINE
  8
0
 10
24.3682
 20
14.3869
 11
24.1237
 21
14.35
  0
LINE
  8
0
 10
24.1237
 20
14.35
 11
23.8764
 21
14.35
  0
LINE
  8
0
 10
55.8763
 20
14.35
 11
55.6318
 21
14.3869
  0
LINE
  8
0
 10
55.6318
 20
14.3869
 11
55.3955
 21
14.4598
  0
LINE
  8
0
 10
55.3955
 20
14.4598
 11
55.1727
 21
14.5671
  0
LINE
  8
0
 10
55.1727
 20
14.5671
 11
54.9684
 21
14.7064
  0
LINE
  8
0
 10
54.9684
 20
14.7064
 11
54.7871
 21
14.8746
  0
LINE
  8
0
 10
54.7871
 20
14.8746
 11
54.6329
 21
15.0679
  0
LINE
  8
0
 10
54.6329
 20
15.0679
 11
54.5092
 21
15.2821
  0
LINE
  8
0
 10
54.5092
 20
15.2821
 11
54.4189
 21
15.5123
  0
LINE
  8
0
 10
54.4189
 20
15.5123
 11
54.3638
 21
15.7534
  0
LINE
  8
0
 10
54.3638
 20
15.7534
 11
54.3454
 21
16
  0
LINE
  8
0
 10
54.3454
 20
16
 11
54.3638
 21
16.2466
  0
LINE
  8
0
 10
54.3638
 20
16.2466
 11
54.4189
 21
16.4877
  0
LINE
  8
0
 10
54.4189
 20
16.4877
 11
54.5092
 21
16.7179
  0
LINE
  8
0
 10
54.5092
 20
16.7179
 11
54.6329
 21
16.9321
  0
LINE
  8
0
 10
54.6329
 20
16.9321
 11
54.7871
 21
17.1254
  0
LINE
  8
0
 10
54.7871
 20
17.1254
 11
54.9684
 21
17.2936
  0
LINE
  8
0
 10
54.9684
 20
17.2936
 11
55.1727
 21
17.433
  0
LINE
  8
0
 10
55.1727
 20
17.433
 11
55.3955
 21
17.5403
  0
LINE
  8
0
 10
55.3955
 20
17.5403
 11
55.6318
 21
17.6131
  0
LINE
  8
0
 10
55.6318
 20
17.6131
 11
55.8763
 21
17.65
  0
LINE
  8
0
 10
55.8763
 20
17.65
 11
56.1236
 21
17.65
  0
LINE
  8
0
 10
56.1236
 20
17.65
 11
56.3682
 21
17.6131
  0
LINE
  8
0
 10
56.3682
 20
17.6131
 11
56.6045
 21
17.5403
  0
LINE
  8
0
 10
56.6045
 20
17.5403
 11
56.8273
 21
17.433
  0
LINE
  8
0
 10
56.8273
 20
17.433
 11
57.0316
 21
17.2936
  0
LINE
  8
0
 10
57.0316
 20
17.2936
 11
57.2129
 21
17.1254
  0
LINE
  8
0
 10
57.2129
 20
17.1254
 11
57.3671
 21
16.9321
  0
LINE
  8
0
 10
57.3671
 20
16.9321
 11
57.4908
 21
16.7179
  0
LINE
  8
0
 10
57.4908
 20
16.7179
 11
57.5811
 21
16.4877
  0
LINE
  8
0
 10
57.5811
 20
16.4877
 11
57.6361
 21
16.2466
  0
LINE
  8
0
 10
57.6361
 20
16.2466
 11
57.6546
 21
16
  0
LINE
  8
0
 10
57.6546
 20
16
 11
57.6361
 21
15.7534
  0
LINE
  8
0
 10
57.6361
 20
15.7534
 11
57.5811
 21
15.5123
  0
LINE
  8
0
 10
57.5811
 20
15.5123
 11
57.4908
 21
15.2821
  0
LINE
  8
0
 10
57.4908
 20
15.2821
 11
57.3671
 21
15.0679
  0
LINE
  8
0
 10
57.3671
 20
15.0679
 11
57.2129
 21
14.8746
  0
LINE
  8
0
 10
57.2129
 20
14.8746
 11
57.0316
 21
14.7064
  0
LINE
  8
0
 10
57.0316
 20
14.7064
 11
56.8273
 21
14.5671
  0
LINE
  8
0
 10
56.8273
 20
14.5671
 11
56.6045
 21
14.4598
  0
LINE
  8
0
 10
56.6045
 20
14.4598
 11
56.3682
 21
14.3869
  0
LINE
  8
0
 10
56.3682
 20
14.3869
 11
56.1236
 21
14.35
  0
LINE
  8
0
 10
56.1236
 20
14.35
 11
55.8763
 21
14.35
  0
LINE
  8
0
 10
125.876
 20
14.35
 11
125.632
 21
14.3869
  0
LINE
  8
0
 10
125.632
 20
14.3869
 11
125.395
 21
14.4598
  0
LINE
  8
0
 10
125.395
 20
14.4598
 11
125.173
 21
14.5671
  0
LINE
  8
0
 10
125.173
 20
14.5671
 11
124.968
 21
14.7064
  0
LINE
  8
0
 10
124.968
 20
14.7064
 11
124.787
 21
14.8746
  0
LINE
  8
0
 10
124.787
 20
14.8746
 11
124.633
 21
15.0679
  0
LINE
  8
0
 10
124.633
 20
15.0679
 11
124.509
 21
15.2821
  0
LINE
  8
0
 10
124.509
 20
15.2821
 11
124.419
 21
15.5123
  0
LINE
  8
0
 10
124.419
 20
15.5123
 11
124.364
 21
15.7534
  0
LINE
  8
0
 10
124.364
 20
15.7534
 11
124.345
 21
16
  0
LINE
  8
0
 10
124.345
 20
16
 11
124.364
 21
16.2466
  0
LINE
  8
0
 10
124.364
 20
16.2466
 11
124.419
 21
16.4877
  0
LINE
  8
0
 10
124.419
 20
16.4877
 11
124.509
 21
16.7179
  0
LINE
  8
0
 10
124.509
 20
16.7179
 11
124.633
 21
16.9321
  0
LINE
  8
0
 10
124.633
 20
16.9321
 11
124.787
 21
17.1254
  0
LINE
  8
0
 10
124.787
 20
17.1254
 11
124.968
 21
17.2936
  0
LINE
  8
0
 10
124.968
 20
17.2936
 11
125.173
 21
17.433
  0
LINE
  8
0
 10
125.173
 20
17.433
 11
125.395
 21
17.5403
  0
LINE
  8
0
 10
125.395
 20
17.5403
 11
125.632
 21
17.6131
  0
LINE
  8
0
 10
125.632
 20
17.6131
 11
125.876
 21
17.65
  0
LINE
  8
0
 10
125.876
 20
17.65
 11
126.124
 21
17.65
  0
LINE
  8
0
 10
126.124
 20
17.65
 11
126.368
 21
17.6131
  0
LINE
  8
0
 10
126.368
 20
17.6131
 11
126.604
 21
17.5403
  0
LINE
  8
0
 10
126.604
 20
17.5403
 11
126.827
 21
17.433
  0
LINE
  8
0
 10
126.827
 20
17.433
 11
127.032
 21
17.2936
  0
LINE
  8
0
 10
127.032
 20
17.2936
 11
127.213
 21
17.1254
  0
LINE
  8
0
 10
127.213
 20
17.1254
 11
127.367
 21
16.9321
  0
LINE
  8
0
 10
127.367
 20
16.9321
 11
127.491
 21
16.7179
  0
LINE
  8
0
 10
127.491
 20
16.7179
 11
127.581
 21
16.4877
  0
LINE
  8
0
 10
127.581
 20
16.4877
 11
127.636
 21
16.2466
  0
LINE
  8
0
 10
127.636
 20
16.2466
 11
127.655
 21
16
  0
LINE
  8
0
 10
127.655
 20
16
 11
127.636
 21
15.7534
  0
LINE
  8
0
 10
127.636
 20
15.7534
 11
127.581
 21
15.5123
  0
LINE
  8
0
 10
127.581
 20
15.5123
 11
127.491
 21
15.2821
  0
LINE
  8
0
 10
127.491
 20
15.2821
 11
127.367
 21
15.0679
  0
LINE
  8
0
 10
127.367
 20
15.0679
 11
127.213
 21
14.8746
  0
LINE
  8
0
 10
127.213
 20
14.8746
 11
127.032
 21
14.7064
  0
LINE
  8
0
 10
127.032
 20
14.7064
 11
126.827
 21
14.5671
  0
LINE
  8
0
 10
126.827
 20
14.5671
 11
126.604
 21
14.4598
  0
LINE
  8
0
 10
126.604
 20
14.4598
 11
126.368
 21
14.3869
  0
LINE
  8
0
 10
126.368
 20
14.3869
 11
126.124
 21
14.35
  0
LINE
  8
0
 10
126.124
 20
14.35
 11
125.876
 21
14.35
  0
LINE
  8
0
 10
93.8764
 20
14.35
 11
93.6318
 21
14.3869
  0
LINE
  8
0
 10
93.6318
 20
14.3869
 11
93.3955
 21
14.4598
  0
LINE
  8
0
 10
93.3955
 20
14.4598
 11
93.1727
 21
14.5671
  0
LINE
  8
0
 10
93.1727
 20
14.5671
 11
92.9684
 21
14.7064
  0
LINE
  8
0
 10
92.9684
 20
14.7064
 11
92.7871
 21
14.8746
  0
LINE
  8
0
 10
92.7871
 20
14.8746
 11
92.6329
 21
15.0679
  0
LINE
  8
0
 10
92.6329
 20
15.0679
 11
92.5092
 21
15.2821
  0
LINE
  8
0
 10
92.5092
 20
15.2821
 11
92.4189
 21
15.5123
  0
LINE
  8
0
 10
92.4189
 20
15.5123
 11
92.3639
 21
15.7534
  0
LINE
  8
0
 10
92.3639
 20
15.7534
 11
92.3454
 21
16
  0
LINE
  8
0
 10
92.3454
 20
16
 11
92.3639
 21
16.2466
  0
LINE
  8
0
 10
92.3639
 20
16.2466
 11
92.4189
 21
16.4877
  0
LINE
  8
0
 10
92.4189
 20
16.4877
 11
92.5092
 21
16.7179
  0
LINE
  8
0
 10
92.5092
 20
16.7179
 11
92.6329
 21
16.9321
  0
LINE
  8
0
 10
92.6329
 20
16.9321
 11
92.7871
 21
17.1254
  0
LINE
  8
0
 10
92.7871
 20
17.1254
 11
92.9684
 21
17.2936
  0
LINE
  8
0
 10
92.9684
 20
17.2936
 11
93.1727
 21
17.433
  0
LINE
  8
0
 10
93.1727
 20
17.433
 11
93.3955
 21
17.5403
  0
LINE
  8
0
 10
93.3955
 20
17.5403
 11
93.6318
 21
17.6131
  0
LINE
  8
0
 10
93.6318
 20
17.6131
 11
93.8764
 21
17.65
  0
LINE
  8
0
 10
93.8764
 20
17.65
 11
94.1237
 21
17.65
  0
LINE
  8
0
 10
94.1237
 20
17.65
 11
94.3682
 21
17.6131
  0
LINE
  8
0
 10
94.3682
 20
17.6131
 11
94.6045
 21
17.5403
  0
LINE
  8
0
 10
94.6045
 20
17.5403
 11
94.8273
 21
17.433
  0
LINE
  8
0
 10
94.8273
 20
17.433
 11
95.0316
 21
17.2936
  0
LINE
  8
0
 10
95.0316
 20
17.2936
 11
95.2129
 21
17.1254
  0
LINE
  8
0
 10
95.2129
 20
17.1254
 11
95.3671
 21
16.9321
  0
LINE
  8
0
 10
95.3671
 20
16.9321
 11
95.4908
 21
16.7179
  0
LINE
  8
0
 10
95.4908
 20
16.7179
 11
95.5811
 21
16.4877
  0
LINE
  8
0
 10
95.5811
 20
16.4877
 11
95.6362
 21
16.2466
  0
LINE
  8
0
 10
95.6362
 20
16.2466
 11
95.6546
 21
16
  0
LINE
  8
0
 10
95.6546
 20
16
 11
95.6362
 21
15.7534
  0
LINE
  8
0
 10
95.6362
 20
15.7534
 11
95.5811
 21
15.5123
  0
LINE
  8
0
 10
95.5811
 20
15.5123
 11
95.4908
 21
15.2821
  0
LINE
  8
0
 10
95.4908
 20
15.2821
 11
95.3671
 21
15.0679
  0
LINE
  8
0
 10
95.3671
 20
15.0679
 11
95.2129
 21
14.8746
  0
LINE
  8
0
 10
95.2129
 20
14.8746
 11
95.0316
 21
14.7064
  0
LINE
  8
0
 10
95.0316
 20
14.7064
 11
94.8273
 21
14.5671
  0
LINE
  8
0
 10
94.8273
 20
14.5671
 11
94.6045
 21
14.4598
  0
LINE
  8
0
 10
94.6045
 20
14.4598
 11
94.3682
 21
14.3869
  0
LINE
  8
0
 10
94.3682
 20
14.3869
 11
94.1237
 21
14.35
  0
LINE
  8
0
 10
94.1237
 20
14.35
 11
93.8764
 21
14.35
  0
LINE
  8
0
 10
294.091
 20
13.3283
 11
293.851
 21
13.3911
  0
LINE
  8
0
 10
293.851
 20
13.3911
 11
293.623
 21
13.4881
  0
LINE
  8
0
 10
293.623
 20
13.4881
 11
293.411
 21
13.6174
  0
LINE
  8
0
 10
293.411
 20
13.6174
 11
293.22
 21
13.7762
  0
LINE
  8
0
 10
293.22
 20
13.7762
 11
293.054
 21
13.961
  0
LINE
  8
0
 10
293.054
 20
13.961
 11
292.918
 21
14.168
  0
LINE
  8
0
 10
292.918
 20
14.168
 11
292.812
 21
14.3927
  0
LINE
  8
0
 10
292.812
 20
14.3927
 11
292.741
 21
14.6304
  0
LINE
  8
0
 10
292.741
 20
14.6304
 11
292.705
 21
14.8759
  0
LINE
  8
0
 10
292.705
 20
14.8759
 11
292.705
 21
15.1241
  0
LINE
  8
0
 10
292.705
 20
15.1241
 11
292.741
 21
15.3696
  0
LINE
  8
0
 10
292.741
 20
15.3696
 11
292.812
 21
15.6073
  0
LINE
  8
0
 10
292.812
 20
15.6073
 11
292.918
 21
15.832
  0
LINE
  8
0
 10
292.918
 20
15.832
 11
293.054
 21
16.039
  0
LINE
  8
0
 10
293.054
 20
16.039
 11
293.22
 21
16.2238
  0
LINE
  8
0
 10
293.22
 20
16.2238
 11
293.411
 21
16.3826
  0
LINE
  8
0
 10
293.411
 20
16.3826
 11
293.623
 21
16.5119
  0
LINE
  8
0
 10
293.623
 20
16.5119
 11
293.851
 21
16.6089
  0
LINE
  8
0
 10
293.851
 20
16.6089
 11
294.091
 21
16.6717
  0
LINE
  8
0
 10
294.091
 20
16.6717
 11
294.338
 21
16.6989
  0
LINE
  8
0
 10
294.338
 20
16.6989
 11
294.586
 21
16.6898
  0
LINE
  8
0
 10
294.586
 20
16.6898
 11
294.83
 21
16.6447
  0
LINE
  8
0
 10
294.83
 20
16.6447
 11
295.065
 21
16.5646
  0
LINE
  8
0
 10
295.065
 20
16.5646
 11
295.286
 21
16.4511
  0
LINE
  8
0
 10
295.286
 20
16.4511
 11
295.487
 21
16.3067
  0
LINE
  8
0
 10
295.487
 20
16.3067
 11
295.666
 21
16.1344
  0
LINE
  8
0
 10
295.666
 20
16.1344
 11
295.818
 21
15.938
  0
LINE
  8
0
 10
295.818
 20
15.938
 11
295.939
 21
15.7216
  0
LINE
  8
0
 10
295.939
 20
15.7216
 11
296.028
 21
15.4898
  0
LINE
  8
0
 10
296.028
 20
15.4898
 11
296.082
 21
15.2475
  0
LINE
  8
0
 10
296.082
 20
15.2475
 11
296.1
 21
15
  0
LINE
  8
0
 10
296.1
 20
15
 11
296.082
 21
14.7525
  0
LINE
  8
0
 10
296.082
 20
14.7525
 11
296.028
 21
14.5102
  0
LINE
  8
0
 10
296.028
 20
14.5102
 11
295.939
 21
14.2784
  0
LINE
  8
0
 10
295.939
 20
14.2784
 11
295.818
 21
14.062
  0
LINE
  8
0
 10
295.818
 20
14.062
 11
295.666
 21
13.8656
  0
LINE
  8
0
 10
295.666
 20
13.8656
 11
295.487
 21
13.6933
  0
LINE
  8
0
 10
295.487
 20
13.6933
 11
295.286
 21
13.5489
  0
LINE
  8
0
 10
295.286
 20
13.5489
 11
295.065
 21
13.4354
  0
LINE
  8
0
 10
295.065
 20
13.4354
 11
294.83
 21
13.3553
  0
LINE
  8
0
 10
294.83
 20
13.3553
 11
294.586
 21
13.3102
  0
LINE
  8
0
 10
294.586
 20
13.3102
 11
294.338
 21
13.3011
  0
LINE
  8
0
 10
294.338
 20
13.3011
 11
294.091
 21
13.3283
  0
LINE
  8
0
 10
4.31406
 20
13.3102
 11
4.07001
 21
13.3553
  0
LINE
  8
0
 10
4.07001
 20
13.3553
 11
3.83511
 21
13.4354
  0
LINE
  8
0
 10
3.83511
 20
13.4354
 11
3.6144
 21
13.5489
  0
LINE
  8
0
 10
3.6144
 20
13.5489
 11
3.41255
 21
13.6933
  0
LINE
  8
0
 10
3.41255
 20
13.6933
 11
3.23389
 21
13.8656
  0
LINE
  8
0
 10
3.23389
 20
13.8656
 11
3.0822
 21
14.062
  0
LINE
  8
0
 10
3.0822
 20
14.062
 11
2.96072
 21
14.2784
  0
LINE
  8
0
 10
2.96072
 20
14.2784
 11
2.87207
 21
14.5102
  0
LINE
  8
0
 10
2.87207
 20
14.5102
 11
2.81812
 21
14.7525
  0
LINE
  8
0
 10
2.81812
 20
14.7525
 11
2.79999
 21
15
  0
LINE
  8
0
 10
2.79999
 20
15
 11
2.81812
 21
15.2475
  0
LINE
  8
0
 10
2.81812
 20
15.2475
 11
2.87207
 21
15.4898
  0
LINE
  8
0
 10
2.87207
 20
15.4898
 11
2.96072
 21
15.7216
  0
LINE
  8
0
 10
2.96072
 20
15.7216
 11
3.0822
 21
15.938
  0
LINE
  8
0
 10
3.0822
 20
15.938
 11
3.23389
 21
16.1344
  0
LINE
  8
0
 10
3.23389
 20
16.1344
 11
3.41255
 21
16.3067
  0
LINE
  8
0
 10
3.41255
 20
16.3067
 11
3.6144
 21
16.4511
  0
LINE
  8
0
 10
3.6144
 20
16.4511
 11
3.83511
 21
16.5646
  0
LINE
  8
0
 10
3.83511
 20
16.5646
 11
4.07001
 21
16.6447
  0
LINE
  8
0
 10
4.07001
 20
16.6447
 11
4.31406
 21
16.6898
  0
LINE
  8
0
 10
4.31406
 20
16.6898
 11
4.56209
 21
16.6989
  0
LINE
  8
0
 10
4.56209
 20
16.6989
 11
4.80878
 21
16.6717
  0
LINE
  8
0
 10
4.80878
 20
16.6717
 11
5.04889
 21
16.6089
  0
LINE
  8
0
 10
5.04889
 20
16.6089
 11
5.2773
 21
16.5119
  0
LINE
  8
0
 10
5.2773
 20
16.5119
 11
5.48915
 21
16.3826
  0
LINE
  8
0
 10
5.48915
 20
16.3826
 11
5.67992
 21
16.2238
  0
LINE
  8
0
 10
5.67992
 20
16.2238
 11
5.84554
 21
16.039
  0
LINE
  8
0
 10
5.84554
 20
16.039
 11
5.98248
 21
15.832
  0
LINE
  8
0
 10
5.98248
 20
15.832
 11
6.08781
 21
15.6073
  0
LINE
  8
0
 10
6.08781
 20
15.6073
 11
6.15932
 21
15.3696
  0
LINE
  8
0
 10
6.15932
 20
15.3696
 11
6.19547
 21
15.1241
  0
LINE
  8
0
 10
6.19547
 20
15.1241
 11
6.19547
 21
14.8759
  0
LINE
  8
0
 10
6.19547
 20
14.8759
 11
6.15932
 21
14.6304
  0
LINE
  8
0
 10
6.15932
 20
14.6304
 11
6.08781
 21
14.3927
  0
LINE
  8
0
 10
6.08781
 20
14.3927
 11
5.98248
 21
14.168
  0
LINE
  8
0
 10
5.98248
 20
14.168
 11
5.84554
 21
13.961
  0
LINE
  8
0
 10
5.84554
 20
13.961
 11
5.67992
 21
13.7762
  0
LINE
  8
0
 10
5.67992
 20
13.7762
 11
5.48915
 21
13.6174
  0
LINE
  8
0
 10
5.48915
 20
13.6174
 11
5.2773
 21
13.4881
  0
LINE
  8
0
 10
5.2773
 20
13.4881
 11
5.04889
 21
13.3911
  0
LINE
  8
0
 10
5.04889
 20
13.3911
 11
4.80878
 21
13.3283
  0
LINE
  8
0
 10
4.80878
 20
13.3283
 11
4.56209
 21
13.3011
  0
LINE
  8
0
 10
4.56209
 20
13.3011
 11
4.31406
 21
13.3102
  0
LINE
  8
0
 10
108.927
 20
35.5228
 11
108.976
 21
35.2815
  0
LINE
  8
0
 10
108.976
 20
35.2815
 11
108.995
 21
35.036
  0
LINE
  8
0
 10
108.995
 20
35.036
 11
108.983
 21
34.79
  0
LINE
  8
0
 10
108.983
 20
34.79
 11
108.942
 21
34.5473
  0
LINE
  8
0
 10
108.942
 20
34.5473
 11
108.871
 21
34.3115
  0
LINE
  8
0
 10
108.871
 20
34.3115
 11
108.771
 21
34.0863
  0
LINE
  8
0
 10
108.771
 20
34.0863
 11
108.645
 21
33.8749
  0
LINE
  8
0
 10
108.645
 20
33.8749
 11
108.493
 21
33.6807
  0
LINE
  8
0
 10
108.493
 20
33.6807
 11
108.319
 21
33.5066
  0
LINE
  8
0
 10
108.319
 20
33.5066
 11
108.125
 21
33.3552
  0
LINE
  8
0
 10
108.125
 20
33.3552
 11
107.914
 21
33.2288
  0
LINE
  8
0
 10
107.914
 20
33.2288
 11
107.688
 21
33.1293
  0
LINE
  8
0
 10
107.688
 20
33.1293
 11
107.453
 21
33.0583
  0
LINE
  8
0
 10
107.453
 20
33.0583
 11
107.21
 21
33.0168
  0
LINE
  8
0
 10
107.21
 20
33.0168
 11
106.964
 21
33.0054
  0
LINE
  8
0
 10
106.964
 20
33.0054
 11
106.718
 21
33.0244
  0
LINE
  8
0
 10
106.718
 20
33.0244
 11
106.477
 21
33.0733
  0
LINE
  8
0
 10
106.477
 20
33.0733
 11
106.244
 21
33.1516
  0
LINE
  8
0
 10
106.244
 20
33.1516
 11
106.022
 21
33.2579
  0
LINE
  8
0
 10
106.022
 20
33.2579
 11
105.814
 21
33.3908
  0
LINE
  8
0
 10
105.814
 20
33.3908
 11
105.625
 21
33.5481
  0
LINE
  8
0
 10
105.625
 20
33.5481
 11
105.456
 21
33.7275
  0
LINE
  8
0
 10
105.456
 20
33.7275
 11
105.311
 21
33.9263
  0
LINE
  8
0
 10
105.311
 20
33.9263
 11
105.191
 21
34.1414
  0
LINE
  8
0
 10
105.191
 20
34.1414
 11
105.098
 21
34.3696
  0
LINE
  8
0
 10
105.098
 20
34.3696
 11
105.035
 21
34.6075
  0
LINE
  8
0
 10
105.035
 20
34.6075
 11
105.001
 21
34.8513
  0
LINE
  8
0
 10
105.001
 20
34.8513
 11
104.997
 21
35.0976
  0
LINE
  8
0
 10
104.997
 20
35.0976
 11
105.023
 21
35.3424
  0
LINE
  8
0
 10
105.023
 20
35.3424
 11
105.08
 21
35.5821
  0
LINE
  8
0
 10
105.08
 20
35.5821
 11
105.165
 21
35.813
  0
LINE
  8
0
 10
105.165
 20
35.813
 11
105.278
 21
36.0318
  0
LINE
  8
0
 10
105.278
 20
36.0318
 11
105.418
 21
36.2349
  0
LINE
  8
0
 10
105.418
 20
36.2349
 11
105.581
 21
36.4194
  0
LINE
  8
0
 10
105.581
 20
36.4194
 11
105.765
 21
36.5825
  0
LINE
  8
0
 10
105.765
 20
36.5825
 11
105.968
 21
36.7216
  0
LINE
  8
0
 10
105.968
 20
36.7216
 11
106.187
 21
36.8348
  0
LINE
  8
0
 10
106.187
 20
36.8348
 11
106.418
 21
36.9202
  0
LINE
  8
0
 10
106.418
 20
36.9202
 11
106.658
 21
36.9766
  0
LINE
  8
0
 10
106.658
 20
36.9766
 11
106.902
 21
37.0031
  0
LINE
  8
0
 10
106.902
 20
37.0031
 11
107.149
 21
36.9993
  0
LINE
  8
0
 10
107.149
 20
36.9993
 11
107.393
 21
36.9653
  0
LINE
  8
0
 10
107.393
 20
36.9653
 11
107.63
 21
36.9015
  0
LINE
  8
0
 10
107.63
 20
36.9015
 11
107.859
 21
36.809
  0
LINE
  8
0
 10
107.859
 20
36.809
 11
108.074
 21
36.6892
  0
LINE
  8
0
 10
108.074
 20
36.6892
 11
108.272
 21
36.5439
  0
LINE
  8
0
 10
108.272
 20
36.5439
 11
108.452
 21
36.3752
  0
LINE
  8
0
 10
108.452
 20
36.3752
 11
108.609
 21
36.1857
  0
LINE
  8
0
 10
108.609
 20
36.1857
 11
108.742
 21
35.9784
  0
LINE
  8
0
 10
108.742
 20
35.9784
 11
108.848
 21
35.7563
  0
LINE
  8
0
 10
108.848
 20
35.7563
 11
108.927
 21
35.5228
  0
LINE
  8
0
 10
38.9267
 20
28.4772
 11
38.8484
 21
28.2437
  0
LINE
  8
0
 10
38.8484
 20
28.2437
 11
38.7421
 21
28.0216
  0
LINE
  8
0
 10
38.7421
 20
28.0216
 11
38.6092
 21
27.8143
  0
LINE
  8
0
 10
38.6092
 20
27.8143
 11
38.4519
 21
27.6248
  0
LINE
  8
0
 10
38.4519
 20
27.6248
 11
38.2725
 21
27.4561
  0
LINE
  8
0
 10
38.2725
 20
27.4561
 11
38.0737
 21
27.3108
  0
LINE
  8
0
 10
38.0737
 20
27.3108
 11
37.8586
 21
27.191
  0
LINE
  8
0
 10
37.8586
 20
27.191
 11
37.6304
 21
27.0985
  0
LINE
  8
0
 10
37.6304
 20
27.0985
 11
37.3925
 21
27.0347
  0
LINE
  8
0
 10
37.3925
 20
27.0347
 11
37.1487
 21
27.0007
  0
LINE
  8
0
 10
37.1487
 20
27.0007
 11
36.9024
 21
26.9969
  0
LINE
  8
0
 10
36.9024
 20
26.9969
 11
36.6576
 21
27.0234
  0
LINE
  8
0
 10
36.6576
 20
27.0234
 11
36.4179
 21
27.0798
  0
LINE
  8
0
 10
36.4179
 20
27.0798
 11
36.187
 21
27.1652
  0
LINE
  8
0
 10
36.187
 20
27.1652
 11
35.9682
 21
27.2784
  0
LINE
  8
0
 10
35.9682
 20
27.2784
 11
35.7651
 21
27.4175
  0
LINE
  8
0
 10
35.7651
 20
27.4175
 11
35.5806
 21
27.5806
  0
LINE
  8
0
 10
35.5806
 20
27.5806
 11
35.4175
 21
27.7651
  0
LINE
  8
0
 10
35.4175
 20
27.7651
 11
35.2784
 21
27.9682
  0
LINE
  8
0
 10
35.2784
 20
27.9682
 11
35.1652
 21
28.187
  0
LINE
  8
0
 10
35.1652
 20
28.187
 11
35.0798
 21
28.4179
  0
LINE
  8
0
 10
35.0798
 20
28.4179
 11
35.0234
 21
28.6576
  0
LINE
  8
0
 10
35.0234
 20
28.6576
 11
34.9969
 21
28.9024
  0
LINE
  8
0
 10
34.9969
 20
28.9024
 11
35.0007
 21
29.1487
  0
LINE
  8
0
 10
35.0007
 20
29.1487
 11
35.0347
 21
29.3925
  0
LINE
  8
0
 10
35.0347
 20
29.3925
 11
35.0985
 21
29.6304
  0
LINE
  8
0
 10
35.0985
 20
29.6304
 11
35.191
 21
29.8586
  0
LINE
  8
0
 10
35.191
 20
29.8586
 11
35.3108
 21
30.0737
  0
LINE
  8
0
 10
35.3108
 20
30.0737
 11
35.4561
 21
30.2725
  0
LINE
  8
0
 10
35.4561
 20
30.2725
 11
35.6248
 21
30.4519
  0
LINE
  8
0
 10
35.6248
 20
30.4519
 11
35.8143
 21
30.6092
  0
LINE
  8
0
 10
35.8143
 20
30.6092
 11
36.0216
 21
30.7421
  0
LINE
  8
0
 10
36.0216
 20
30.7421
 11
36.2437
 21
30.8484
  0
LINE
  8
0
 10
36.2437
 20
30.8484
 11
36.4772
 21
30.9267
  0
LINE
  8
0
 10
36.4772
 20
30.9267
 11
36.7185
 21
30.9756
  0
LINE
  8
0
 10
36.7185
 20
30.9756
 11
36.964
 21
30.9946
  0
LINE
  8
0
 10
36.964
 20
30.9946
 11
37.21
 21
30.9832
  0
LINE
  8
0
 10
37.21
 20
30.9832
 11
37.4527
 21
30.9417
  0
LINE
  8
0
 10
37.4527
 20
30.9417
 11
37.6885
 21
30.8707
  0
LINE
  8
0
 10
37.6885
 20
30.8707
 11
37.9137
 21
30.7712
  0
LINE
  8
0
 10
37.9137
 20
30.7712
 11
38.1251
 21
30.6448
  0
LINE
  8
0
 10
38.1251
 20
30.6448
 11
38.3193
 21
30.4934
  0
LINE
  8
0
 10
38.3193
 20
30.4934
 11
38.4934
 21
30.3193
  0
LINE
  8
0
 10
38.4934
 20
30.3193
 11
38.6448
 21
30.1251
  0
LINE
  8
0
 10
38.6448
 20
30.1251
 11
38.7712
 21
29.9137
  0
LINE
  8
0
 10
38.7712
 20
29.9137
 11
38.8707
 21
29.6885
  0
LINE
  8
0
 10
38.8707
 20
29.6885
 11
38.9417
 21
29.4527
  0
LINE
  8
0
 10
38.9417
 20
29.4527
 11
38.9832
 21
29.21
  0
LINE
  8
0
 10
38.9832
 20
29.21
 11
38.9946
 21
28.964
  0
LINE
  8
0
 10
38.9946
 20
28.964
 11
38.9756
 21
28.7185
  0
LINE
  8
0
 10
38.9756
 20
28.7185
 11
38.9267
 21
28.4772
  0
ENDSEC
  0
SECTION
  2
OBJECTS
  0
DICTIONARY
  0
ENDSEC
  0
EOF
