  0
SECTION
  2
BLOCKS
  0
ENDSEC
  0
SECTION
  2
ENTITIES
  0
LINE
  8
0
 10
438.65
 20
58.75
 11
0
 21
58.75
  0
LINE
  8
0
 10
0
 20
58.75
 11
0
 21
0
  0
LINE
  8
0
 10
0
 20
0
 11
438.65
 21
0
  0
LINE
  8
0
 10
438.65
 20
0
 11
438.65
 21
58.75
  0
LINE
  8
0
 10
4.31406
 20
42.3102
 11
4.07001
 21
42.3553
  0
LINE
  8
0
 10
4.07001
 20
42.3553
 11
3.83511
 21
42.4354
  0
LINE
  8
0
 10
3.83511
 20
42.4354
 11
3.6144
 21
42.5489
  0
LINE
  8
0
 10
3.6144
 20
42.5489
 11
3.41255
 21
42.6933
  0
LINE
  8
0
 10
3.41255
 20
42.6933
 11
3.23389
 21
42.8656
  0
LINE
  8
0
 10
3.23389
 20
42.8656
 11
3.0822
 21
43.062
  0
LINE
  8
0
 10
3.0822
 20
43.062
 11
2.96072
 21
43.2784
  0
LINE
  8
0
 10
2.96072
 20
43.2784
 11
2.87207
 21
43.5102
  0
LINE
  8
0
 10
2.87207
 20
43.5102
 11
2.81812
 21
43.7525
  0
LINE
  8
0
 10
2.81812
 20
43.7525
 11
2.79999
 21
44
  0
LINE
  8
0
 10
2.79999
 20
44
 11
2.81812
 21
44.2475
  0
LINE
  8
0
 10
2.81812
 20
44.2475
 11
2.87207
 21
44.4898
  0
LINE
  8
0
 10
2.87207
 20
44.4898
 11
2.96072
 21
44.7216
  0
LINE
  8
0
 10
2.96072
 20
44.7216
 11
3.0822
 21
44.938
  0
LINE
  8
0
 10
3.0822
 20
44.938
 11
3.23389
 21
45.1344
  0
LINE
  8
0
 10
3.23389
 20
45.1344
 11
3.41255
 21
45.3067
  0
LINE
  8
0
 10
3.41255
 20
45.3067
 11
3.6144
 21
45.4511
  0
LINE
  8
0
 10
3.6144
 20
45.4511
 11
3.83511
 21
45.5646
  0
LINE
  8
0
 10
3.83511
 20
45.5646
 11
4.07001
 21
45.6447
  0
LINE
  8
0
 10
4.07001
 20
45.6447
 11
4.31406
 21
45.6898
  0
LINE
  8
0
 10
4.31406
 20
45.6898
 11
4.56209
 21
45.6989
  0
LINE
  8
0
 10
4.56209
 20
45.6989
 11
4.80878
 21
45.6717
  0
LINE
  8
0
 10
4.80878
 20
45.6717
 11
5.04889
 21
45.6089
  0
LINE
  8
0
 10
5.04889
 20
45.6089
 11
5.2773
 21
45.5119
  0
LINE
  8
0
 10
5.2773
 20
45.5119
 11
5.48915
 21
45.3826
  0
LINE
  8
0
 10
5.48915
 20
45.3826
 11
5.67992
 21
45.2238
  0
LINE
  8
0
 10
5.67992
 20
45.2238
 11
5.84554
 21
45.039
  0
LINE
  8
0
 10
5.84554
 20
45.039
 11
5.98248
 21
44.832
  0
LINE
  8
0
 10
5.98248
 20
44.832
 11
6.08781
 21
44.6073
  0
LINE
  8
0
 10
6.08781
 20
44.6073
 11
6.15932
 21
44.3696
  0
LINE
  8
0
 10
6.15932
 20
44.3696
 11
6.19547
 21
44.1241
  0
LINE
  8
0
 10
6.19547
 20
44.1241
 11
6.19547
 21
43.8759
  0
LINE
  8
0
 10
6.19547
 20
43.8759
 11
6.15932
 21
43.6304
  0
LINE
  8
0
 10
6.15932
 20
43.6304
 11
6.08781
 21
43.3927
  0
LINE
  8
0
 10
6.08781
 20
43.3927
 11
5.98248
 21
43.168
  0
LINE
  8
0
 10
5.98248
 20
43.168
 11
5.84554
 21
42.961
  0
LINE
  8
0
 10
5.84554
 20
42.961
 11
5.67992
 21
42.7762
  0
LINE
  8
0
 10
5.67992
 20
42.7762
 11
5.48915
 21
42.6174
  0
LINE
  8
0
 10
5.48915
 20
42.6174
 11
5.2773
 21
42.4881
  0
LINE
  8
0
 10
5.2773
 20
42.4881
 11
5.04889
 21
42.3911
  0
LINE
  8
0
 10
5.04889
 20
42.3911
 11
4.80878
 21
42.3283
  0
LINE
  8
0
 10
4.80878
 20
42.3283
 11
4.56209
 21
42.3011
  0
LINE
  8
0
 10
4.56209
 20
42.3011
 11
4.31406
 21
42.3102
  0
LINE
  8
0
 10
434.091
 20
42.3283
 11
433.851
 21
42.3911
  0
LINE
  8
0
 10
433.851
 20
42.3911
 11
433.623
 21
42.4881
  0
LINE
  8
0
 10
433.623
 20
42.4881
 11
433.411
 21
42.6174
  0
LINE
  8
0
 10
433.411
 20
42.6174
 11
433.22
 21
42.7762
  0
LINE
  8
0
 10
433.22
 20
42.7762
 11
433.054
 21
42.961
  0
LINE
  8
0
 10
433.054
 20
42.961
 11
432.918
 21
43.168
  0
LINE
  8
0
 10
432.918
 20
43.168
 11
432.812
 21
43.3927
  0
LINE
  8
0
 10
432.812
 20
43.3927
 11
432.741
 21
43.6304
  0
LINE
  8
0
 10
432.741
 20
43.6304
 11
432.705
 21
43.8759
  0
LINE
  8
0
 10
432.705
 20
43.8759
 11
432.705
 21
44.1241
  0
LINE
  8
0
 10
432.705
 20
44.1241
 11
432.741
 21
44.3696
  0
LINE
  8
0
 10
432.741
 20
44.3696
 11
432.812
 21
44.6073
  0
LINE
  8
0
 10
432.812
 20
44.6073
 11
432.918
 21
44.832
  0
LINE
  8
0
 10
432.918
 20
44.832
 11
433.054
 21
45.039
  0
LINE
  8
0
 10
433.054
 20
45.039
 11
433.22
 21
45.2238
  0
LINE
  8
0
 10
433.22
 20
45.2238
 11
433.411
 21
45.3826
  0
LINE
  8
0
 10
433.411
 20
45.3826
 11
433.623
 21
45.5119
  0
LINE
  8
0
 10
433.623
 20
45.5119
 11
433.851
 21
45.6089
  0
LINE
  8
0
 10
433.851
 20
45.6089
 11
434.091
 21
45.6717
  0
LINE
  8
0
 10
434.091
 20
45.6717
 11
434.338
 21
45.6989
  0
LINE
  8
0
 10
434.338
 20
45.6989
 11
434.586
 21
45.6898
  0
LINE
  8
0
 10
434.586
 20
45.6898
 11
434.83
 21
45.6447
  0
LINE
  8
0
 10
434.83
 20
45.6447
 11
435.065
 21
45.5646
  0
LINE
  8
0
 10
435.065
 20
45.5646
 11
435.286
 21
45.4511
  0
LINE
  8
0
 10
435.286
 20
45.4511
 11
435.487
 21
45.3067
  0
LINE
  8
0
 10
435.487
 20
45.3067
 11
435.666
 21
45.1344
  0
LINE
  8
0
 10
435.666
 20
45.1344
 11
435.818
 21
44.938
  0
LINE
  8
0
 10
435.818
 20
44.938
 11
435.939
 21
44.7216
  0
LINE
  8
0
 10
435.939
 20
44.7216
 11
436.028
 21
44.4898
  0
LINE
  8
0
 10
436.028
 20
44.4898
 11
436.082
 21
44.2475
  0
LINE
  8
0
 10
436.082
 20
44.2475
 11
436.1
 21
44
  0
LINE
  8
0
 10
436.1
 20
44
 11
436.082
 21
43.7525
  0
LINE
  8
0
 10
436.082
 20
43.7525
 11
436.028
 21
43.5102
  0
LINE
  8
0
 10
436.028
 20
43.5102
 11
435.939
 21
43.2784
  0
LINE
  8
0
 10
435.939
 20
43.2784
 11
435.818
 21
43.062
  0
LINE
  8
0
 10
435.818
 20
43.062
 11
435.666
 21
42.8656
  0
LINE
  8
0
 10
435.666
 20
42.8656
 11
435.487
 21
42.6933
  0
LINE
  8
0
 10
435.487
 20
42.6933
 11
435.286
 21
42.5489
  0
LINE
  8
0
 10
435.286
 20
42.5489
 11
435.065
 21
42.4354
  0
LINE
  8
0
 10
435.065
 20
42.4354
 11
434.83
 21
42.3553
  0
LINE
  8
0
 10
434.83
 20
42.3553
 11
434.586
 21
42.3102
  0
LINE
  8
0
 10
434.586
 20
42.3102
 11
434.338
 21
42.3011
  0
LINE
  8
0
 10
434.338
 20
42.3011
 11
434.091
 21
42.3283
  0
LINE
  8
0
 10
88.7404
 20
18.516
 11
87.4947
 21
18.7133
  0
LINE
  8
0
 10
87.4947
 20
18.7133
 11
86.2763
 21
19.0398
  0
LINE
  8
0
 10
86.2763
 20
19.0398
 11
85.0988
 21
19.4918
  0
LINE
  8
0
 10
85.0988
 20
19.4918
 11
83.975
 21
20.0644
  0
LINE
  8
0
 10
83.975
 20
20.0644
 11
82.9172
 21
20.7513
  0
LINE
  8
0
 10
82.9172
 20
20.7513
 11
81.937
 21
21.5451
  0
LINE
  8
0
 10
81.937
 20
21.5451
 11
81.0451
 21
22.437
  0
LINE
  8
0
 10
81.0451
 20
22.437
 11
80.2513
 21
23.4172
  0
LINE
  8
0
 10
80.2513
 20
23.4172
 11
79.5644
 21
24.475
  0
LINE
  8
0
 10
79.5644
 20
24.475
 11
78.9918
 21
25.5988
  0
LINE
  8
0
 10
78.9918
 20
25.5988
 11
78.5398
 21
26.7763
  0
LINE
  8
0
 10
78.5398
 20
26.7763
 11
78.2133
 21
27.9947
  0
LINE
  8
0
 10
78.2133
 20
27.9947
 11
78.016
 21
29.2404
  0
LINE
  8
0
 10
78.016
 20
29.2404
 11
77.95
 21
30.5
  0
LINE
  8
0
 10
77.95
 20
30.5
 11
78.016
 21
31.7596
  0
LINE
  8
0
 10
78.016
 20
31.7596
 11
78.2133
 21
33.0053
  0
LINE
  8
0
 10
78.2133
 20
33.0053
 11
78.5398
 21
34.2236
  0
LINE
  8
0
 10
78.5398
 20
34.2236
 11
78.9918
 21
35.4012
  0
LINE
  8
0
 10
78.9918
 20
35.4012
 11
79.5644
 21
36.525
  0
LINE
  8
0
 10
79.5644
 20
36.525
 11
80.2513
 21
37.5828
  0
LINE
  8
0
 10
80.2513
 20
37.5828
 11
81.0451
 21
38.563
  0
LINE
  8
0
 10
81.0451
 20
38.563
 11
81.937
 21
39.4549
  0
LINE
  8
0
 10
81.937
 20
39.4549
 11
82.9172
 21
40.2486
  0
LINE
  8
0
 10
82.9172
 20
40.2486
 11
83.975
 21
40.9356
  0
LINE
  8
0
 10
83.975
 20
40.9356
 11
85.0988
 21
41.5082
  0
LINE
  8
0
 10
85.0988
 20
41.5082
 11
86.2763
 21
41.9602
  0
LINE
  8
0
 10
86.2763
 20
41.9602
 11
87.4947
 21
42.2867
  0
LINE
  8
0
 10
87.4947
 20
42.2867
 11
88.7404
 21
42.484
  0
LINE
  8
0
 10
88.7404
 20
42.484
 11
90
 21
42.55
  0
LINE
  8
0
 10
90
 20
42.55
 11
91.2596
 21
42.484
  0
LINE
  8
0
 10
91.2596
 20
42.484
 11
92.5053
 21
42.2867
  0
LINE
  8
0
 10
92.5053
 20
42.2867
 11
93.7236
 21
41.9602
  0
LINE
  8
0
 10
93.7236
 20
41.9602
 11
94.9012
 21
41.5082
  0
LINE
  8
0
 10
94.9012
 20
41.5082
 11
96.025
 21
40.9356
  0
LINE
  8
0
 10
96.025
 20
40.9356
 11
97.0828
 21
40.2486
  0
LINE
  8
0
 10
97.0828
 20
40.2486
 11
98.063
 21
39.4549
  0
LINE
  8
0
 10
98.063
 20
39.4549
 11
98.9549
 21
38.563
  0
LINE
  8
0
 10
98.9549
 20
38.563
 11
99.7487
 21
37.5828
  0
LINE
  8
0
 10
99.7487
 20
37.5828
 11
100.436
 21
36.525
  0
LINE
  8
0
 10
100.436
 20
36.525
 11
101.008
 21
35.4012
  0
LINE
  8
0
 10
101.008
 20
35.4012
 11
101.46
 21
34.2236
  0
LINE
  8
0
 10
101.46
 20
34.2236
 11
101.787
 21
33.0053
  0
LINE
  8
0
 10
101.787
 20
33.0053
 11
101.984
 21
31.7596
  0
LINE
  8
0
 10
101.984
 20
31.7596
 11
102.05
 21
30.5
  0
LINE
  8
0
 10
102.05
 20
30.5
 11
101.984
 21
29.2404
  0
LINE
  8
0
 10
101.984
 20
29.2404
 11
101.787
 21
27.9947
  0
LINE
  8
0
 10
101.787
 20
27.9947
 11
101.46
 21
26.7763
  0
LINE
  8
0
 10
101.46
 20
26.7763
 11
101.008
 21
25.5988
  0
LINE
  8
0
 10
101.008
 20
25.5988
 11
100.436
 21
24.475
  0
LINE
  8
0
 10
100.436
 20
24.475
 11
99.7487
 21
23.4172
  0
LINE
  8
0
 10
99.7487
 20
23.4172
 11
98.9549
 21
22.437
  0
LINE
  8
0
 10
98.9549
 20
22.437
 11
98.063
 21
21.5451
  0
LINE
  8
0
 10
98.063
 20
21.5451
 11
97.0828
 21
20.7513
  0
LINE
  8
0
 10
97.0828
 20
20.7513
 11
96.025
 21
20.0644
  0
LINE
  8
0
 10
96.025
 20
20.0644
 11
94.9012
 21
19.4918
  0
LINE
  8
0
 10
94.9012
 20
19.4918
 11
93.7236
 21
19.0398
  0
LINE
  8
0
 10
93.7236
 20
19.0398
 11
92.5053
 21
18.7133
  0
LINE
  8
0
 10
92.5053
 20
18.7133
 11
91.2596
 21
18.516
  0
LINE
  8
0
 10
91.2596
 20
18.516
 11
90
 21
18.45
  0
LINE
  8
0
 10
90
 20
18.45
 11
88.7404
 21
18.516
  0
LINE
  8
0
 10
77.6912
 20
36.8283
 11
77.4511
 21
36.8911
  0
LINE
  8
0
 10
77.4511
 20
36.8911
 11
77.2227
 21
36.9881
  0
LINE
  8
0
 10
77.2227
 20
36.9881
 11
77.0108
 21
37.1174
  0
LINE
  8
0
 10
77.0108
 20
37.1174
 11
76.8201
 21
37.2762
  0
LINE
  8
0
 10
76.8201
 20
37.2762
 11
76.6544
 21
37.461
  0
LINE
  8
0
 10
76.6544
 20
37.461
 11
76.5175
 21
37.668
  0
LINE
  8
0
 10
76.5175
 20
37.668
 11
76.4122
 21
37.8927
  0
LINE
  8
0
 10
76.4122
 20
37.8927
 11
76.3407
 21
38.1304
  0
LINE
  8
0
 10
76.3407
 20
38.1304
 11
76.3045
 21
38.3759
  0
LINE
  8
0
 10
76.3045
 20
38.3759
 11
76.3045
 21
38.6241
  0
LINE
  8
0
 10
76.3045
 20
38.6241
 11
76.3407
 21
38.8696
  0
LINE
  8
0
 10
76.3407
 20
38.8696
 11
76.4122
 21
39.1073
  0
LINE
  8
0
 10
76.4122
 20
39.1073
 11
76.5175
 21
39.332
  0
LINE
  8
0
 10
76.5175
 20
39.332
 11
76.6544
 21
39.539
  0
LINE
  8
0
 10
76.6544
 20
39.539
 11
76.8201
 21
39.7238
  0
LINE
  8
0
 10
76.8201
 20
39.7238
 11
77.0108
 21
39.8826
  0
LINE
  8
0
 10
77.0108
 20
39.8826
 11
77.2227
 21
40.0119
  0
LINE
  8
0
 10
77.2227
 20
40.0119
 11
77.4511
 21
40.1089
  0
LINE
  8
0
 10
77.4511
 20
40.1089
 11
77.6912
 21
40.1717
  0
LINE
  8
0
 10
77.6912
 20
40.1717
 11
77.9379
 21
40.1989
  0
LINE
  8
0
 10
77.9379
 20
40.1989
 11
78.1859
 21
40.1898
  0
LINE
  8
0
 10
78.1859
 20
40.1898
 11
78.43
 21
40.1447
  0
LINE
  8
0
 10
78.43
 20
40.1447
 11
78.6649
 21
40.0646
  0
LINE
  8
0
 10
78.6649
 20
40.0646
 11
78.8856
 21
39.9511
  0
LINE
  8
0
 10
78.8856
 20
39.9511
 11
79.0874
 21
39.8067
  0
LINE
  8
0
 10
79.0874
 20
39.8067
 11
79.2661
 21
39.6344
  0
LINE
  8
0
 10
79.2661
 20
39.6344
 11
79.4178
 21
39.438
  0
LINE
  8
0
 10
79.4178
 20
39.438
 11
79.5393
 21
39.2216
  0
LINE
  8
0
 10
79.5393
 20
39.2216
 11
79.6279
 21
38.9898
  0
LINE
  8
0
 10
79.6279
 20
38.9898
 11
79.6819
 21
38.7475
  0
LINE
  8
0
 10
79.6819
 20
38.7475
 11
79.7
 21
38.5
  0
LINE
  8
0
 10
79.7
 20
38.5
 11
79.6819
 21
38.2525
  0
LINE
  8
0
 10
79.6819
 20
38.2525
 11
79.6279
 21
38.0102
  0
LINE
  8
0
 10
79.6279
 20
38.0102
 11
79.5393
 21
37.7784
  0
LINE
  8
0
 10
79.5393
 20
37.7784
 11
79.4178
 21
37.562
  0
LINE
  8
0
 10
79.4178
 20
37.562
 11
79.2661
 21
37.3656
  0
LINE
  8
0
 10
79.2661
 20
37.3656
 11
79.0874
 21
37.1933
  0
LINE
  8
0
 10
79.0874
 20
37.1933
 11
78.8856
 21
37.0489
  0
LINE
  8
0
 10
78.8856
 20
37.0489
 11
78.6649
 21
36.9354
  0
LINE
  8
0
 10
78.6649
 20
36.9354
 11
78.43
 21
36.8553
  0
LINE
  8
0
 10
78.43
 20
36.8553
 11
78.1859
 21
36.8102
  0
LINE
  8
0
 10
78.1859
 20
36.8102
 11
77.9379
 21
36.8011
  0
LINE
  8
0
 10
77.9379
 20
36.8011
 11
77.6912
 21
36.8283
  0
LINE
  8
0
 10
101.691
 20
20.8283
 11
101.451
 21
20.8911
  0
LINE
  8
0
 10
101.451
 20
20.8911
 11
101.223
 21
20.9881
  0
LINE
  8
0
 10
101.223
 20
20.9881
 11
101.011
 21
21.1174
  0
LINE
  8
0
 10
101.011
 20
21.1174
 11
100.82
 21
21.2762
  0
LINE
  8
0
 10
100.82
 20
21.2762
 11
100.654
 21
21.461
  0
LINE
  8
0
 10
100.654
 20
21.461
 11
100.518
 21
21.668
  0
LINE
  8
0
 10
100.518
 20
21.668
 11
100.412
 21
21.8927
  0
LINE
  8
0
 10
100.412
 20
21.8927
 11
100.341
 21
22.1304
  0
LINE
  8
0
 10
100.341
 20
22.1304
 11
100.305
 21
22.3759
  0
LINE
  8
0
 10
100.305
 20
22.3759
 11
100.305
 21
22.6241
  0
LINE
  8
0
 10
100.305
 20
22.6241
 11
100.341
 21
22.8696
  0
LINE
  8
0
 10
100.341
 20
22.8696
 11
100.412
 21
23.1073
  0
LINE
  8
0
 10
100.412
 20
23.1073
 11
100.518
 21
23.332
  0
LINE
  8
0
 10
100.518
 20
23.332
 11
100.654
 21
23.539
  0
LINE
  8
0
 10
100.654
 20
23.539
 11
100.82
 21
23.7238
  0
LINE
  8
0
 10
100.82
 20
23.7238
 11
101.011
 21
23.8826
  0
LINE
  8
0
 10
101.011
 20
23.8826
 11
101.223
 21
24.0119
  0
LINE
  8
0
 10
101.223
 20
24.0119
 11
101.451
 21
24.1089
  0
LINE
  8
0
 10
101.451
 20
24.1089
 11
101.691
 21
24.1717
  0
LINE
  8
0
 10
101.691
 20
24.1717
 11
101.938
 21
24.1989
  0
LINE
  8
0
 10
101.938
 20
24.1989
 11
102.186
 21
24.1898
  0
LINE
  8
0
 10
102.186
 20
24.1898
 11
102.43
 21
24.1447
  0
LINE
  8
0
 10
102.43
 20
24.1447
 11
102.665
 21
24.0646
  0
LINE
  8
0
 10
102.665
 20
24.0646
 11
102.886
 21
23.9511
  0
LINE
  8
0
 10
102.886
 20
23.9511
 11
103.087
 21
23.8067
  0
LINE
  8
0
 10
103.087
 20
23.8067
 11
103.266
 21
23.6344
  0
LINE
  8
0
 10
103.266
 20
23.6344
 11
103.418
 21
23.438
  0
LINE
  8
0
 10
103.418
 20
23.438
 11
103.539
 21
23.2216
  0
LINE
  8
0
 10
103.539
 20
23.2216
 11
103.628
 21
22.9898
  0
LINE
  8
0
 10
103.628
 20
22.9898
 11
103.682
 21
22.7475
  0
LINE
  8
0
 10
103.682
 20
22.7475
 11
103.7
 21
22.5
  0
LINE
  8
0
 10
103.7
 20
22.5
 11
103.682
 21
22.2525
  0
LINE
  8
0
 10
103.682
 20
22.2525
 11
103.628
 21
22.0102
  0
LINE
  8
0
 10
103.628
 20
22.0102
 11
103.539
 21
21.7784
  0
LINE
  8
0
 10
103.539
 20
21.7784
 11
103.418
 21
21.562
  0
LINE
  8
0
 10
103.418
 20
21.562
 11
103.266
 21
21.3656
  0
LINE
  8
0
 10
103.266
 20
21.3656
 11
103.087
 21
21.1933
  0
LINE
  8
0
 10
103.087
 20
21.1933
 11
102.886
 21
21.0489
  0
LINE
  8
0
 10
102.886
 20
21.0489
 11
102.665
 21
20.9354
  0
LINE
  8
0
 10
102.665
 20
20.9354
 11
102.43
 21
20.8553
  0
LINE
  8
0
 10
102.43
 20
20.8553
 11
102.186
 21
20.8102
  0
LINE
  8
0
 10
102.186
 20
20.8102
 11
101.938
 21
20.8011
  0
LINE
  8
0
 10
101.938
 20
20.8011
 11
101.691
 21
20.8283
  0
LINE
  8
0
 10
4.31406
 20
13.3102
 11
4.07001
 21
13.3553
  0
LINE
  8
0
 10
4.07001
 20
13.3553
 11
3.83511
 21
13.4354
  0
LINE
  8
0
 10
3.83511
 20
13.4354
 11
3.6144
 21
13.5489
  0
LINE
  8
0
 10
3.6144
 20
13.5489
 11
3.41255
 21
13.6933
  0
LINE
  8
0
 10
3.41255
 20
13.6933
 11
3.23389
 21
13.8656
  0
LINE
  8
0
 10
3.23389
 20
13.8656
 11
3.0822
 21
14.062
  0
LINE
  8
0
 10
3.0822
 20
14.062
 11
2.96072
 21
14.2784
  0
LINE
  8
0
 10
2.96072
 20
14.2784
 11
2.87207
 21
14.5102
  0
LINE
  8
0
 10
2.87207
 20
14.5102
 11
2.81812
 21
14.7525
  0
LINE
  8
0
 10
2.81812
 20
14.7525
 11
2.79999
 21
15
  0
LINE
  8
0
 10
2.79999
 20
15
 11
2.81812
 21
15.2475
  0
LINE
  8
0
 10
2.81812
 20
15.2475
 11
2.87207
 21
15.4898
  0
LINE
  8
0
 10
2.87207
 20
15.4898
 11
2.96072
 21
15.7216
  0
LINE
  8
0
 10
2.96072
 20
15.7216
 11
3.0822
 21
15.938
  0
LINE
  8
0
 10
3.0822
 20
15.938
 11
3.23389
 21
16.1344
  0
LINE
  8
0
 10
3.23389
 20
16.1344
 11
3.41255
 21
16.3067
  0
LINE
  8
0
 10
3.41255
 20
16.3067
 11
3.6144
 21
16.4511
  0
LINE
  8
0
 10
3.6144
 20
16.4511
 11
3.83511
 21
16.5646
  0
LINE
  8
0
 10
3.83511
 20
16.5646
 11
4.07001
 21
16.6447
  0
LINE
  8
0
 10
4.07001
 20
16.6447
 11
4.31406
 21
16.6898
  0
LINE
  8
0
 10
4.31406
 20
16.6898
 11
4.56209
 21
16.6989
  0
LINE
  8
0
 10
4.56209
 20
16.6989
 11
4.80878
 21
16.6717
  0
LINE
  8
0
 10
4.80878
 20
16.6717
 11
5.04889
 21
16.6089
  0
LINE
  8
0
 10
5.04889
 20
16.6089
 11
5.2773
 21
16.5119
  0
LINE
  8
0
 10
5.2773
 20
16.5119
 11
5.48915
 21
16.3826
  0
LINE
  8
0
 10
5.48915
 20
16.3826
 11
5.67992
 21
16.2238
  0
LINE
  8
0
 10
5.67992
 20
16.2238
 11
5.84554
 21
16.039
  0
LINE
  8
0
 10
5.84554
 20
16.039
 11
5.98248
 21
15.832
  0
LINE
  8
0
 10
5.98248
 20
15.832
 11
6.08781
 21
15.6073
  0
LINE
  8
0
 10
6.08781
 20
15.6073
 11
6.15932
 21
15.3696
  0
LINE
  8
0
 10
6.15932
 20
15.3696
 11
6.19547
 21
15.1241
  0
LINE
  8
0
 10
6.19547
 20
15.1241
 11
6.19547
 21
14.8759
  0
LINE
  8
0
 10
6.19547
 20
14.8759
 11
6.15932
 21
14.6304
  0
LINE
  8
0
 10
6.15932
 20
14.6304
 11
6.08781
 21
14.3927
  0
LINE
  8
0
 10
6.08781
 20
14.3927
 11
5.98248
 21
14.168
  0
LINE
  8
0
 10
5.98248
 20
14.168
 11
5.84554
 21
13.961
  0
LINE
  8
0
 10
5.84554
 20
13.961
 11
5.67992
 21
13.7762
  0
LINE
  8
0
 10
5.67992
 20
13.7762
 11
5.48915
 21
13.6174
  0
LINE
  8
0
 10
5.48915
 20
13.6174
 11
5.2773
 21
13.4881
  0
LINE
  8
0
 10
5.2773
 20
13.4881
 11
5.04889
 21
13.3911
  0
LINE
  8
0
 10
5.04889
 20
13.3911
 11
4.80878
 21
13.3283
  0
LINE
  8
0
 10
4.80878
 20
13.3283
 11
4.56209
 21
13.3011
  0
LINE
  8
0
 10
4.56209
 20
13.3011
 11
4.31406
 21
13.3102
  0
LINE
  8
0
 10
434.091
 20
13.3283
 11
433.851
 21
13.3911
  0
LINE
  8
0
 10
433.851
 20
13.3911
 11
433.623
 21
13.4881
  0
LINE
  8
0
 10
433.623
 20
13.4881
 11
433.411
 21
13.6174
  0
LINE
  8
0
 10
433.411
 20
13.6174
 11
433.22
 21
13.7762
  0
LINE
  8
0
 10
433.22
 20
13.7762
 11
433.054
 21
13.961
  0
LINE
  8
0
 10
433.054
 20
13.961
 11
432.918
 21
14.168
  0
LINE
  8
0
 10
432.918
 20
14.168
 11
432.812
 21
14.3927
  0
LINE
  8
0
 10
432.812
 20
14.3927
 11
432.741
 21
14.6304
  0
LINE
  8
0
 10
432.741
 20
14.6304
 11
432.705
 21
14.8759
  0
LINE
  8
0
 10
432.705
 20
14.8759
 11
432.705
 21
15.1241
  0
LINE
  8
0
 10
432.705
 20
15.1241
 11
432.741
 21
15.3696
  0
LINE
  8
0
 10
432.741
 20
15.3696
 11
432.812
 21
15.6073
  0
LINE
  8
0
 10
432.812
 20
15.6073
 11
432.918
 21
15.832
  0
LINE
  8
0
 10
432.918
 20
15.832
 11
433.054
 21
16.039
  0
LINE
  8
0
 10
433.054
 20
16.039
 11
433.22
 21
16.2238
  0
LINE
  8
0
 10
433.22
 20
16.2238
 11
433.411
 21
16.3826
  0
LINE
  8
0
 10
433.411
 20
16.3826
 11
433.623
 21
16.5119
  0
LINE
  8
0
 10
433.623
 20
16.5119
 11
433.851
 21
16.6089
  0
LINE
  8
0
 10
433.851
 20
16.6089
 11
434.091
 21
16.6717
  0
LINE
  8
0
 10
434.091
 20
16.6717
 11
434.338
 21
16.6989
  0
LINE
  8
0
 10
434.338
 20
16.6989
 11
434.586
 21
16.6898
  0
LINE
  8
0
 10
434.586
 20
16.6898
 11
434.83
 21
16.6447
  0
LINE
  8
0
 10
434.83
 20
16.6447
 11
435.065
 21
16.5646
  0
LINE
  8
0
 10
435.065
 20
16.5646
 11
435.286
 21
16.4511
  0
LINE
  8
0
 10
435.286
 20
16.4511
 11
435.487
 21
16.3067
  0
LINE
  8
0
 10
435.487
 20
16.3067
 11
435.666
 21
16.1344
  0
LINE
  8
0
 10
435.666
 20
16.1344
 11
435.818
 21
15.938
  0
LINE
  8
0
 10
435.818
 20
15.938
 11
435.939
 21
15.7216
  0
LINE
  8
0
 10
435.939
 20
15.7216
 11
436.028
 21
15.4898
  0
LINE
  8
0
 10
436.028
 20
15.4898
 11
436.082
 21
15.2475
  0
LINE
  8
0
 10
436.082
 20
15.2475
 11
436.1
 21
15
  0
LINE
  8
0
 10
436.1
 20
15
 11
436.082
 21
14.7525
  0
LINE
  8
0
 10
436.082
 20
14.7525
 11
436.028
 21
14.5102
  0
LINE
  8
0
 10
436.028
 20
14.5102
 11
435.939
 21
14.2784
  0
LINE
  8
0
 10
435.939
 20
14.2784
 11
435.818
 21
14.062
  0
LINE
  8
0
 10
435.818
 20
14.062
 11
435.666
 21
13.8656
  0
LINE
  8
0
 10
435.666
 20
13.8656
 11
435.487
 21
13.6933
  0
LINE
  8
0
 10
435.487
 20
13.6933
 11
435.286
 21
13.5489
  0
LINE
  8
0
 10
435.286
 20
13.5489
 11
435.065
 21
13.4354
  0
LINE
  8
0
 10
435.065
 20
13.4354
 11
434.83
 21
13.3553
  0
LINE
  8
0
 10
434.83
 20
13.3553
 11
434.586
 21
13.3102
  0
LINE
  8
0
 10
434.586
 20
13.3102
 11
434.338
 21
13.3011
  0
LINE
  8
0
 10
434.338
 20
13.3011
 11
434.091
 21
13.3283
  0
ENDSEC
  0
SECTION
  2
OBJECTS
  0
DICTIONARY
  0
ENDSEC
  0
EOF
