  0
SECTION
  2
BLOCKS
  0
ENDSEC
  0
SECTION
  2
ENTITIES
  0
LINE
  8
0
 10
349.75
 20
58.75
 11
337.487
 21
58.75
  0
LINE
  8
0
 10
337.487
 20
58.75
 11
337.459
 21
58.216
  0
LINE
  8
0
 10
337.459
 20
58.216
 11
337.336
 21
57.4407
  0
LINE
  8
0
 10
337.336
 20
57.4407
 11
337.133
 21
56.6824
  0
LINE
  8
0
 10
337.133
 20
56.6824
 11
336.852
 21
55.9495
  0
LINE
  8
0
 10
336.852
 20
55.9495
 11
336.495
 21
55.25
  0
LINE
  8
0
 10
336.495
 20
55.25
 11
336.068
 21
54.5916
  0
LINE
  8
0
 10
336.068
 20
54.5916
 11
335.574
 21
53.9815
  0
LINE
  8
0
 10
335.574
 20
53.9815
 11
335.018
 21
53.4264
  0
LINE
  8
0
 10
335.018
 20
53.4264
 11
334.408
 21
52.9324
  0
LINE
  8
0
 10
334.408
 20
52.9324
 11
333.75
 21
52.5048
  0
LINE
  8
0
 10
333.75
 20
52.5048
 11
333.051
 21
52.1484
  0
LINE
  8
0
 10
333.051
 20
52.1484
 11
332.318
 21
51.8671
  0
LINE
  8
0
 10
332.318
 20
51.8671
 11
331.559
 21
51.6639
  0
LINE
  8
0
 10
331.559
 20
51.6639
 11
330.784
 21
51.5411
  0
LINE
  8
0
 10
330.784
 20
51.5411
 11
330
 21
51.5
  0
LINE
  8
0
 10
330
 20
51.5
 11
329.216
 21
51.5411
  0
LINE
  8
0
 10
329.216
 20
51.5411
 11
328.441
 21
51.6639
  0
LINE
  8
0
 10
328.441
 20
51.6639
 11
327.682
 21
51.8671
  0
LINE
  8
0
 10
327.682
 20
51.8671
 11
326.949
 21
52.1484
  0
LINE
  8
0
 10
326.949
 20
52.1484
 11
326.25
 21
52.5048
  0
LINE
  8
0
 10
326.25
 20
52.5048
 11
325.592
 21
52.9324
  0
LINE
  8
0
 10
325.592
 20
52.9324
 11
324.982
 21
53.4264
  0
LINE
  8
0
 10
324.982
 20
53.4264
 11
324.426
 21
53.9815
  0
LINE
  8
0
 10
324.426
 20
53.9815
 11
323.932
 21
54.5916
  0
LINE
  8
0
 10
323.932
 20
54.5916
 11
323.505
 21
55.25
  0
LINE
  8
0
 10
323.505
 20
55.25
 11
323.148
 21
55.9495
  0
LINE
  8
0
 10
323.148
 20
55.9495
 11
322.867
 21
56.6824
  0
LINE
  8
0
 10
322.867
 20
56.6824
 11
322.664
 21
57.4407
  0
LINE
  8
0
 10
322.664
 20
57.4407
 11
322.541
 21
58.216
  0
LINE
  8
0
 10
322.541
 20
58.216
 11
322.513
 21
58.75
  0
LINE
  8
0
 10
322.513
 20
58.75
 11
27.4869
 21
58.75
  0
LINE
  8
0
 10
27.4869
 20
58.75
 11
27.4589
 21
58.216
  0
LINE
  8
0
 10
27.4589
 20
58.216
 11
27.3361
 21
57.4407
  0
LINE
  8
0
 10
27.3361
 20
57.4407
 11
27.1329
 21
56.6824
  0
LINE
  8
0
 10
27.1329
 20
56.6824
 11
26.8516
 21
55.9495
  0
LINE
  8
0
 10
26.8516
 20
55.9495
 11
26.4952
 21
55.25
  0
LINE
  8
0
 10
26.4952
 20
55.25
 11
26.0676
 21
54.5916
  0
LINE
  8
0
 10
26.0676
 20
54.5916
 11
25.5736
 21
53.9815
  0
LINE
  8
0
 10
25.5736
 20
53.9815
 11
25.0185
 21
53.4264
  0
LINE
  8
0
 10
25.0185
 20
53.4264
 11
24.4084
 21
52.9324
  0
LINE
  8
0
 10
24.4084
 20
52.9324
 11
23.75
 21
52.5048
  0
LINE
  8
0
 10
23.75
 20
52.5048
 11
23.0505
 21
52.1484
  0
LINE
  8
0
 10
23.0505
 20
52.1484
 11
22.3176
 21
51.8671
  0
LINE
  8
0
 10
22.3176
 20
51.8671
 11
21.5593
 21
51.6639
  0
LINE
  8
0
 10
21.5593
 20
51.6639
 11
20.784
 21
51.5411
  0
LINE
  8
0
 10
20.784
 20
51.5411
 11
20
 21
51.5
  0
LINE
  8
0
 10
20
 20
51.5
 11
19.216
 21
51.5411
  0
LINE
  8
0
 10
19.216
 20
51.5411
 11
18.4407
 21
51.6639
  0
LINE
  8
0
 10
18.4407
 20
51.6639
 11
17.6824
 21
51.8671
  0
LINE
  8
0
 10
17.6824
 20
51.8671
 11
16.9495
 21
52.1484
  0
LINE
  8
0
 10
16.9495
 20
52.1484
 11
16.25
 21
52.5048
  0
LINE
  8
0
 10
16.25
 20
52.5048
 11
15.5916
 21
52.9324
  0
LINE
  8
0
 10
15.5916
 20
52.9324
 11
14.9815
 21
53.4264
  0
LINE
  8
0
 10
14.9815
 20
53.4264
 11
14.4264
 21
53.9815
  0
LINE
  8
0
 10
14.4264
 20
53.9815
 11
13.9324
 21
54.5916
  0
LINE
  8
0
 10
13.9324
 20
54.5916
 11
13.5048
 21
55.25
  0
LINE
  8
0
 10
13.5048
 20
55.25
 11
13.1484
 21
55.9495
  0
LINE
  8
0
 10
13.1484
 20
55.9495
 11
12.8671
 21
56.6824
  0
LINE
  8
0
 10
12.8671
 20
56.6824
 11
12.6639
 21
57.4407
  0
LINE
  8
0
 10
12.6639
 20
57.4407
 11
12.5411
 21
58.216
  0
LINE
  8
0
 10
12.5411
 20
58.216
 11
12.5131
 21
58.75
  0
LINE
  8
0
 10
12.5131
 20
58.75
 11
0
 21
58.75
  0
LINE
  8
0
 10
0
 20
58.75
 11
0
 21
0
  0
LINE
  8
0
 10
0
 20
0
 11
349.75
 21
0
  0
LINE
  8
0
 10
349.75
 20
0
 11
349.75
 21
58.75
  0
LINE
  8
0
 10
29.9381
 20
55.2526
 11
29.6987
 21
55.3132
  0
LINE
  8
0
 10
29.6987
 20
55.3132
 11
29.492
 21
55.4482
  0
LINE
  8
0
 10
29.492
 20
55.4482
 11
29.3404
 21
55.643
  0
LINE
  8
0
 10
29.3404
 20
55.643
 11
29.2602
 21
55.8766
  0
LINE
  8
0
 10
29.2602
 20
55.8766
 11
29.2602
 21
56.1234
  0
LINE
  8
0
 10
29.2602
 20
56.1234
 11
29.3404
 21
56.3569
  0
LINE
  8
0
 10
29.3404
 20
56.3569
 11
29.492
 21
56.5518
  0
LINE
  8
0
 10
29.492
 20
56.5518
 11
29.6987
 21
56.6868
  0
LINE
  8
0
 10
29.6987
 20
56.6868
 11
29.9381
 21
56.7474
  0
LINE
  8
0
 10
29.9381
 20
56.7474
 11
319.938
 21
56.7474
  0
LINE
  8
0
 10
319.938
 20
56.7474
 11
320.184
 21
56.7271
  0
LINE
  8
0
 10
320.184
 20
56.7271
 11
320.41
 21
56.6279
  0
LINE
  8
0
 10
320.41
 20
56.6279
 11
320.592
 21
56.4606
  0
LINE
  8
0
 10
320.592
 20
56.4606
 11
320.709
 21
56.2435
  0
LINE
  8
0
 10
320.709
 20
56.2435
 11
320.75
 21
56
  0
LINE
  8
0
 10
320.75
 20
56
 11
320.709
 21
55.7565
  0
LINE
  8
0
 10
320.709
 20
55.7565
 11
320.592
 21
55.5393
  0
LINE
  8
0
 10
320.592
 20
55.5393
 11
320.41
 21
55.3721
  0
LINE
  8
0
 10
320.41
 20
55.3721
 11
320.184
 21
55.2729
  0
LINE
  8
0
 10
320.184
 20
55.2729
 11
319.938
 21
55.2526
  0
LINE
  8
0
 10
319.938
 20
55.2526
 11
29.9381
 21
55.2526
  0
LINE
  8
0
 10
29.9381
 20
52.7526
 11
29.6987
 21
52.8132
  0
LINE
  8
0
 10
29.6987
 20
52.8132
 11
29.492
 21
52.9482
  0
LINE
  8
0
 10
29.492
 20
52.9482
 11
29.3404
 21
53.143
  0
LINE
  8
0
 10
29.3404
 20
53.143
 11
29.2602
 21
53.3766
  0
LINE
  8
0
 10
29.2602
 20
53.3766
 11
29.2602
 21
53.6234
  0
LINE
  8
0
 10
29.2602
 20
53.6234
 11
29.3404
 21
53.8569
  0
LINE
  8
0
 10
29.3404
 20
53.8569
 11
29.492
 21
54.0518
  0
LINE
  8
0
 10
29.492
 20
54.0518
 11
29.6987
 21
54.1868
  0
LINE
  8
0
 10
29.6987
 20
54.1868
 11
29.9381
 21
54.2474
  0
LINE
  8
0
 10
29.9381
 20
54.2474
 11
319.938
 21
54.2474
  0
LINE
  8
0
 10
319.938
 20
54.2474
 11
320.184
 21
54.2271
  0
LINE
  8
0
 10
320.184
 20
54.2271
 11
320.41
 21
54.1279
  0
LINE
  8
0
 10
320.41
 20
54.1279
 11
320.592
 21
53.9606
  0
LINE
  8
0
 10
320.592
 20
53.9606
 11
320.709
 21
53.7435
  0
LINE
  8
0
 10
320.709
 20
53.7435
 11
320.75
 21
53.5
  0
LINE
  8
0
 10
320.75
 20
53.5
 11
320.709
 21
53.2565
  0
LINE
  8
0
 10
320.709
 20
53.2565
 11
320.592
 21
53.0393
  0
LINE
  8
0
 10
320.592
 20
53.0393
 11
320.41
 21
52.8721
  0
LINE
  8
0
 10
320.41
 20
52.8721
 11
320.184
 21
52.7729
  0
LINE
  8
0
 10
320.184
 20
52.7729
 11
319.938
 21
52.7526
  0
LINE
  8
0
 10
319.938
 20
52.7526
 11
29.9381
 21
52.7526
  0
LINE
  8
0
 10
29.9381
 20
50.2526
 11
29.6987
 21
50.3132
  0
LINE
  8
0
 10
29.6987
 20
50.3132
 11
29.492
 21
50.4482
  0
LINE
  8
0
 10
29.492
 20
50.4482
 11
29.3404
 21
50.643
  0
LINE
  8
0
 10
29.3404
 20
50.643
 11
29.2602
 21
50.8766
  0
LINE
  8
0
 10
29.2602
 20
50.8766
 11
29.2602
 21
51.1234
  0
LINE
  8
0
 10
29.2602
 20
51.1234
 11
29.3404
 21
51.3569
  0
LINE
  8
0
 10
29.3404
 20
51.3569
 11
29.492
 21
51.5518
  0
LINE
  8
0
 10
29.492
 20
51.5518
 11
29.6987
 21
51.6868
  0
LINE
  8
0
 10
29.6987
 20
51.6868
 11
29.9381
 21
51.7474
  0
LINE
  8
0
 10
29.9381
 20
51.7474
 11
319.938
 21
51.7474
  0
LINE
  8
0
 10
319.938
 20
51.7474
 11
320.184
 21
51.7271
  0
LINE
  8
0
 10
320.184
 20
51.7271
 11
320.41
 21
51.6279
  0
LINE
  8
0
 10
320.41
 20
51.6279
 11
320.592
 21
51.4606
  0
LINE
  8
0
 10
320.592
 20
51.4606
 11
320.709
 21
51.2435
  0
LINE
  8
0
 10
320.709
 20
51.2435
 11
320.75
 21
51
  0
LINE
  8
0
 10
320.75
 20
51
 11
320.709
 21
50.7565
  0
LINE
  8
0
 10
320.709
 20
50.7565
 11
320.592
 21
50.5393
  0
LINE
  8
0
 10
320.592
 20
50.5393
 11
320.41
 21
50.3721
  0
LINE
  8
0
 10
320.41
 20
50.3721
 11
320.184
 21
50.2729
  0
LINE
  8
0
 10
320.184
 20
50.2729
 11
319.938
 21
50.2526
  0
LINE
  8
0
 10
319.938
 20
50.2526
 11
29.9381
 21
50.2526
  0
LINE
  8
0
 10
29.9381
 20
47.7526
 11
29.6987
 21
47.8132
  0
LINE
  8
0
 10
29.6987
 20
47.8132
 11
29.492
 21
47.9482
  0
LINE
  8
0
 10
29.492
 20
47.9482
 11
29.3404
 21
48.143
  0
LINE
  8
0
 10
29.3404
 20
48.143
 11
29.2602
 21
48.3766
  0
LINE
  8
0
 10
29.2602
 20
48.3766
 11
29.2602
 21
48.6234
  0
LINE
  8
0
 10
29.2602
 20
48.6234
 11
29.3404
 21
48.8569
  0
LINE
  8
0
 10
29.3404
 20
48.8569
 11
29.492
 21
49.0518
  0
LINE
  8
0
 10
29.492
 20
49.0518
 11
29.6987
 21
49.1868
  0
LINE
  8
0
 10
29.6987
 20
49.1868
 11
29.9381
 21
49.2474
  0
LINE
  8
0
 10
29.9381
 20
49.2474
 11
319.938
 21
49.2474
  0
LINE
  8
0
 10
319.938
 20
49.2474
 11
320.184
 21
49.2271
  0
LINE
  8
0
 10
320.184
 20
49.2271
 11
320.41
 21
49.1279
  0
LINE
  8
0
 10
320.41
 20
49.1279
 11
320.592
 21
48.9606
  0
LINE
  8
0
 10
320.592
 20
48.9606
 11
320.709
 21
48.7435
  0
LINE
  8
0
 10
320.709
 20
48.7435
 11
320.75
 21
48.5
  0
LINE
  8
0
 10
320.75
 20
48.5
 11
320.709
 21
48.2565
  0
LINE
  8
0
 10
320.709
 20
48.2565
 11
320.592
 21
48.0393
  0
LINE
  8
0
 10
320.592
 20
48.0393
 11
320.41
 21
47.8721
  0
LINE
  8
0
 10
320.41
 20
47.8721
 11
320.184
 21
47.7729
  0
LINE
  8
0
 10
320.184
 20
47.7729
 11
319.938
 21
47.7526
  0
LINE
  8
0
 10
319.938
 20
47.7526
 11
29.9381
 21
47.7526
  0
LINE
  8
0
 10
29.9381
 20
45.2526
 11
29.6987
 21
45.3132
  0
LINE
  8
0
 10
29.6987
 20
45.3132
 11
29.492
 21
45.4482
  0
LINE
  8
0
 10
29.492
 20
45.4482
 11
29.3404
 21
45.643
  0
LINE
  8
0
 10
29.3404
 20
45.643
 11
29.2602
 21
45.8766
  0
LINE
  8
0
 10
29.2602
 20
45.8766
 11
29.2602
 21
46.1234
  0
LINE
  8
0
 10
29.2602
 20
46.1234
 11
29.3404
 21
46.3569
  0
LINE
  8
0
 10
29.3404
 20
46.3569
 11
29.492
 21
46.5518
  0
LINE
  8
0
 10
29.492
 20
46.5518
 11
29.6987
 21
46.6868
  0
LINE
  8
0
 10
29.6987
 20
46.6868
 11
29.9381
 21
46.7474
  0
LINE
  8
0
 10
29.9381
 20
46.7474
 11
319.938
 21
46.7474
  0
LINE
  8
0
 10
319.938
 20
46.7474
 11
320.184
 21
46.7271
  0
LINE
  8
0
 10
320.184
 20
46.7271
 11
320.41
 21
46.6279
  0
LINE
  8
0
 10
320.41
 20
46.6279
 11
320.592
 21
46.4606
  0
LINE
  8
0
 10
320.592
 20
46.4606
 11
320.709
 21
46.2435
  0
LINE
  8
0
 10
320.709
 20
46.2435
 11
320.75
 21
46
  0
LINE
  8
0
 10
320.75
 20
46
 11
320.709
 21
45.7565
  0
LINE
  8
0
 10
320.709
 20
45.7565
 11
320.592
 21
45.5393
  0
LINE
  8
0
 10
320.592
 20
45.5393
 11
320.41
 21
45.3721
  0
LINE
  8
0
 10
320.41
 20
45.3721
 11
320.184
 21
45.2729
  0
LINE
  8
0
 10
320.184
 20
45.2729
 11
319.938
 21
45.2526
  0
LINE
  8
0
 10
319.938
 20
45.2526
 11
29.9381
 21
45.2526
  0
LINE
  8
0
 10
345.191
 20
42.3283
 11
344.951
 21
42.3911
  0
LINE
  8
0
 10
344.951
 20
42.3911
 11
344.723
 21
42.4881
  0
LINE
  8
0
 10
344.723
 20
42.4881
 11
344.511
 21
42.6174
  0
LINE
  8
0
 10
344.511
 20
42.6174
 11
344.32
 21
42.7762
  0
LINE
  8
0
 10
344.32
 20
42.7762
 11
344.154
 21
42.961
  0
LINE
  8
0
 10
344.154
 20
42.961
 11
344.018
 21
43.168
  0
LINE
  8
0
 10
344.018
 20
43.168
 11
343.912
 21
43.3927
  0
LINE
  8
0
 10
343.912
 20
43.3927
 11
343.841
 21
43.6304
  0
LINE
  8
0
 10
343.841
 20
43.6304
 11
343.805
 21
43.8759
  0
LINE
  8
0
 10
343.805
 20
43.8759
 11
343.805
 21
44.1241
  0
LINE
  8
0
 10
343.805
 20
44.1241
 11
343.841
 21
44.3696
  0
LINE
  8
0
 10
343.841
 20
44.3696
 11
343.912
 21
44.6073
  0
LINE
  8
0
 10
343.912
 20
44.6073
 11
344.018
 21
44.832
  0
LINE
  8
0
 10
344.018
 20
44.832
 11
344.154
 21
45.039
  0
LINE
  8
0
 10
344.154
 20
45.039
 11
344.32
 21
45.2238
  0
LINE
  8
0
 10
344.32
 20
45.2238
 11
344.511
 21
45.3826
  0
LINE
  8
0
 10
344.511
 20
45.3826
 11
344.723
 21
45.5119
  0
LINE
  8
0
 10
344.723
 20
45.5119
 11
344.951
 21
45.6089
  0
LINE
  8
0
 10
344.951
 20
45.6089
 11
345.191
 21
45.6717
  0
LINE
  8
0
 10
345.191
 20
45.6717
 11
345.438
 21
45.6989
  0
LINE
  8
0
 10
345.438
 20
45.6989
 11
345.686
 21
45.6898
  0
LINE
  8
0
 10
345.686
 20
45.6898
 11
345.93
 21
45.6447
  0
LINE
  8
0
 10
345.93
 20
45.6447
 11
346.165
 21
45.5646
  0
LINE
  8
0
 10
346.165
 20
45.5646
 11
346.386
 21
45.4511
  0
LINE
  8
0
 10
346.386
 20
45.4511
 11
346.587
 21
45.3067
  0
LINE
  8
0
 10
346.587
 20
45.3067
 11
346.766
 21
45.1344
  0
LINE
  8
0
 10
346.766
 20
45.1344
 11
346.918
 21
44.938
  0
LINE
  8
0
 10
346.918
 20
44.938
 11
347.039
 21
44.7216
  0
LINE
  8
0
 10
347.039
 20
44.7216
 11
347.128
 21
44.4898
  0
LINE
  8
0
 10
347.128
 20
44.4898
 11
347.182
 21
44.2475
  0
LINE
  8
0
 10
347.182
 20
44.2475
 11
347.2
 21
44
  0
LINE
  8
0
 10
347.2
 20
44
 11
347.182
 21
43.7525
  0
LINE
  8
0
 10
347.182
 20
43.7525
 11
347.128
 21
43.5102
  0
LINE
  8
0
 10
347.128
 20
43.5102
 11
347.039
 21
43.2784
  0
LINE
  8
0
 10
347.039
 20
43.2784
 11
346.918
 21
43.062
  0
LINE
  8
0
 10
346.918
 20
43.062
 11
346.766
 21
42.8656
  0
LINE
  8
0
 10
346.766
 20
42.8656
 11
346.587
 21
42.6933
  0
LINE
  8
0
 10
346.587
 20
42.6933
 11
346.386
 21
42.5489
  0
LINE
  8
0
 10
346.386
 20
42.5489
 11
346.165
 21
42.4354
  0
LINE
  8
0
 10
346.165
 20
42.4354
 11
345.93
 21
42.3553
  0
LINE
  8
0
 10
345.93
 20
42.3553
 11
345.686
 21
42.3102
  0
LINE
  8
0
 10
345.686
 20
42.3102
 11
345.438
 21
42.3011
  0
LINE
  8
0
 10
345.438
 20
42.3011
 11
345.191
 21
42.3283
  0
LINE
  8
0
 10
4.31406
 20
42.3102
 11
4.07001
 21
42.3553
  0
LINE
  8
0
 10
4.07001
 20
42.3553
 11
3.83511
 21
42.4354
  0
LINE
  8
0
 10
3.83511
 20
42.4354
 11
3.6144
 21
42.5489
  0
LINE
  8
0
 10
3.6144
 20
42.5489
 11
3.41255
 21
42.6933
  0
LINE
  8
0
 10
3.41255
 20
42.6933
 11
3.23389
 21
42.8656
  0
LINE
  8
0
 10
3.23389
 20
42.8656
 11
3.0822
 21
43.062
  0
LINE
  8
0
 10
3.0822
 20
43.062
 11
2.96072
 21
43.2784
  0
LINE
  8
0
 10
2.96072
 20
43.2784
 11
2.87207
 21
43.5102
  0
LINE
  8
0
 10
2.87207
 20
43.5102
 11
2.81812
 21
43.7525
  0
LINE
  8
0
 10
2.81812
 20
43.7525
 11
2.79999
 21
44
  0
LINE
  8
0
 10
2.79999
 20
44
 11
2.81812
 21
44.2475
  0
LINE
  8
0
 10
2.81812
 20
44.2475
 11
2.87207
 21
44.4898
  0
LINE
  8
0
 10
2.87207
 20
44.4898
 11
2.96072
 21
44.7216
  0
LINE
  8
0
 10
2.96072
 20
44.7216
 11
3.0822
 21
44.938
  0
LINE
  8
0
 10
3.0822
 20
44.938
 11
3.23389
 21
45.1344
  0
LINE
  8
0
 10
3.23389
 20
45.1344
 11
3.41255
 21
45.3067
  0
LINE
  8
0
 10
3.41255
 20
45.3067
 11
3.6144
 21
45.4511
  0
LINE
  8
0
 10
3.6144
 20
45.4511
 11
3.83511
 21
45.5646
  0
LINE
  8
0
 10
3.83511
 20
45.5646
 11
4.07001
 21
45.6447
  0
LINE
  8
0
 10
4.07001
 20
45.6447
 11
4.31406
 21
45.6898
  0
LINE
  8
0
 10
4.31406
 20
45.6898
 11
4.56209
 21
45.6989
  0
LINE
  8
0
 10
4.56209
 20
45.6989
 11
4.80878
 21
45.6717
  0
LINE
  8
0
 10
4.80878
 20
45.6717
 11
5.04889
 21
45.6089
  0
LINE
  8
0
 10
5.04889
 20
45.6089
 11
5.2773
 21
45.5119
  0
LINE
  8
0
 10
5.2773
 20
45.5119
 11
5.48915
 21
45.3826
  0
LINE
  8
0
 10
5.48915
 20
45.3826
 11
5.67992
 21
45.2238
  0
LINE
  8
0
 10
5.67992
 20
45.2238
 11
5.84554
 21
45.039
  0
LINE
  8
0
 10
5.84554
 20
45.039
 11
5.98248
 21
44.832
  0
LINE
  8
0
 10
5.98248
 20
44.832
 11
6.08781
 21
44.6073
  0
LINE
  8
0
 10
6.08781
 20
44.6073
 11
6.15932
 21
44.3696
  0
LINE
  8
0
 10
6.15932
 20
44.3696
 11
6.19547
 21
44.1241
  0
LINE
  8
0
 10
6.19547
 20
44.1241
 11
6.19547
 21
43.8759
  0
LINE
  8
0
 10
6.19547
 20
43.8759
 11
6.15932
 21
43.6304
  0
LINE
  8
0
 10
6.15932
 20
43.6304
 11
6.08781
 21
43.3927
  0
LINE
  8
0
 10
6.08781
 20
43.3927
 11
5.98248
 21
43.168
  0
LINE
  8
0
 10
5.98248
 20
43.168
 11
5.84554
 21
42.961
  0
LINE
  8
0
 10
5.84554
 20
42.961
 11
5.67992
 21
42.7762
  0
LINE
  8
0
 10
5.67992
 20
42.7762
 11
5.48915
 21
42.6174
  0
LINE
  8
0
 10
5.48915
 20
42.6174
 11
5.2773
 21
42.4881
  0
LINE
  8
0
 10
5.2773
 20
42.4881
 11
5.04889
 21
42.3911
  0
LINE
  8
0
 10
5.04889
 20
42.3911
 11
4.80878
 21
42.3283
  0
LINE
  8
0
 10
4.80878
 20
42.3283
 11
4.56209
 21
42.3011
  0
LINE
  8
0
 10
4.56209
 20
42.3011
 11
4.31406
 21
42.3102
  0
LINE
  8
0
 10
29.9381
 20
42.7526
 11
29.6987
 21
42.8132
  0
LINE
  8
0
 10
29.6987
 20
42.8132
 11
29.492
 21
42.9482
  0
LINE
  8
0
 10
29.492
 20
42.9482
 11
29.3404
 21
43.143
  0
LINE
  8
0
 10
29.3404
 20
43.143
 11
29.2602
 21
43.3766
  0
LINE
  8
0
 10
29.2602
 20
43.3766
 11
29.2602
 21
43.6234
  0
LINE
  8
0
 10
29.2602
 20
43.6234
 11
29.3404
 21
43.8569
  0
LINE
  8
0
 10
29.3404
 20
43.8569
 11
29.492
 21
44.0518
  0
LINE
  8
0
 10
29.492
 20
44.0518
 11
29.6987
 21
44.1868
  0
LINE
  8
0
 10
29.6987
 20
44.1868
 11
29.9381
 21
44.2474
  0
LINE
  8
0
 10
29.9381
 20
44.2474
 11
319.938
 21
44.2474
  0
LINE
  8
0
 10
319.938
 20
44.2474
 11
320.184
 21
44.2271
  0
LINE
  8
0
 10
320.184
 20
44.2271
 11
320.41
 21
44.1279
  0
LINE
  8
0
 10
320.41
 20
44.1279
 11
320.592
 21
43.9606
  0
LINE
  8
0
 10
320.592
 20
43.9606
 11
320.709
 21
43.7435
  0
LINE
  8
0
 10
320.709
 20
43.7435
 11
320.75
 21
43.5
  0
LINE
  8
0
 10
320.75
 20
43.5
 11
320.709
 21
43.2565
  0
LINE
  8
0
 10
320.709
 20
43.2565
 11
320.592
 21
43.0393
  0
LINE
  8
0
 10
320.592
 20
43.0393
 11
320.41
 21
42.8721
  0
LINE
  8
0
 10
320.41
 20
42.8721
 11
320.184
 21
42.7729
  0
LINE
  8
0
 10
320.184
 20
42.7729
 11
319.938
 21
42.7526
  0
LINE
  8
0
 10
319.938
 20
42.7526
 11
29.9381
 21
42.7526
  0
LINE
  8
0
 10
29.9381
 20
40.2526
 11
29.6987
 21
40.3132
  0
LINE
  8
0
 10
29.6987
 20
40.3132
 11
29.492
 21
40.4482
  0
LINE
  8
0
 10
29.492
 20
40.4482
 11
29.3404
 21
40.643
  0
LINE
  8
0
 10
29.3404
 20
40.643
 11
29.2602
 21
40.8766
  0
LINE
  8
0
 10
29.2602
 20
40.8766
 11
29.2602
 21
41.1234
  0
LINE
  8
0
 10
29.2602
 20
41.1234
 11
29.3404
 21
41.3569
  0
LINE
  8
0
 10
29.3404
 20
41.3569
 11
29.492
 21
41.5518
  0
LINE
  8
0
 10
29.492
 20
41.5518
 11
29.6987
 21
41.6868
  0
LINE
  8
0
 10
29.6987
 20
41.6868
 11
29.9381
 21
41.7474
  0
LINE
  8
0
 10
29.9381
 20
41.7474
 11
319.938
 21
41.7474
  0
LINE
  8
0
 10
319.938
 20
41.7474
 11
320.184
 21
41.7271
  0
LINE
  8
0
 10
320.184
 20
41.7271
 11
320.41
 21
41.6279
  0
LINE
  8
0
 10
320.41
 20
41.6279
 11
320.592
 21
41.4606
  0
LINE
  8
0
 10
320.592
 20
41.4606
 11
320.709
 21
41.2435
  0
LINE
  8
0
 10
320.709
 20
41.2435
 11
320.75
 21
41
  0
LINE
  8
0
 10
320.75
 20
41
 11
320.709
 21
40.7565
  0
LINE
  8
0
 10
320.709
 20
40.7565
 11
320.592
 21
40.5393
  0
LINE
  8
0
 10
320.592
 20
40.5393
 11
320.41
 21
40.3721
  0
LINE
  8
0
 10
320.41
 20
40.3721
 11
320.184
 21
40.2729
  0
LINE
  8
0
 10
320.184
 20
40.2729
 11
319.938
 21
40.2526
  0
LINE
  8
0
 10
319.938
 20
40.2526
 11
29.9381
 21
40.2526
  0
LINE
  8
0
 10
29.9381
 20
37.7526
 11
29.6987
 21
37.8132
  0
LINE
  8
0
 10
29.6987
 20
37.8132
 11
29.492
 21
37.9482
  0
LINE
  8
0
 10
29.492
 20
37.9482
 11
29.3404
 21
38.143
  0
LINE
  8
0
 10
29.3404
 20
38.143
 11
29.2602
 21
38.3766
  0
LINE
  8
0
 10
29.2602
 20
38.3766
 11
29.2602
 21
38.6234
  0
LINE
  8
0
 10
29.2602
 20
38.6234
 11
29.3404
 21
38.8569
  0
LINE
  8
0
 10
29.3404
 20
38.8569
 11
29.492
 21
39.0518
  0
LINE
  8
0
 10
29.492
 20
39.0518
 11
29.6987
 21
39.1868
  0
LINE
  8
0
 10
29.6987
 20
39.1868
 11
29.9381
 21
39.2474
  0
LINE
  8
0
 10
29.9381
 20
39.2474
 11
319.938
 21
39.2474
  0
LINE
  8
0
 10
319.938
 20
39.2474
 11
320.184
 21
39.2271
  0
LINE
  8
0
 10
320.184
 20
39.2271
 11
320.41
 21
39.1279
  0
LINE
  8
0
 10
320.41
 20
39.1279
 11
320.592
 21
38.9606
  0
LINE
  8
0
 10
320.592
 20
38.9606
 11
320.709
 21
38.7435
  0
LINE
  8
0
 10
320.709
 20
38.7435
 11
320.75
 21
38.5
  0
LINE
  8
0
 10
320.75
 20
38.5
 11
320.709
 21
38.2565
  0
LINE
  8
0
 10
320.709
 20
38.2565
 11
320.592
 21
38.0393
  0
LINE
  8
0
 10
320.592
 20
38.0393
 11
320.41
 21
37.8721
  0
LINE
  8
0
 10
320.41
 20
37.8721
 11
320.184
 21
37.7729
  0
LINE
  8
0
 10
320.184
 20
37.7729
 11
319.938
 21
37.7526
  0
LINE
  8
0
 10
319.938
 20
37.7526
 11
29.9381
 21
37.7526
  0
LINE
  8
0
 10
29.9381
 20
35.2526
 11
29.6987
 21
35.3132
  0
LINE
  8
0
 10
29.6987
 20
35.3132
 11
29.492
 21
35.4482
  0
LINE
  8
0
 10
29.492
 20
35.4482
 11
29.3404
 21
35.643
  0
LINE
  8
0
 10
29.3404
 20
35.643
 11
29.2602
 21
35.8766
  0
LINE
  8
0
 10
29.2602
 20
35.8766
 11
29.2602
 21
36.1234
  0
LINE
  8
0
 10
29.2602
 20
36.1234
 11
29.3404
 21
36.3569
  0
LINE
  8
0
 10
29.3404
 20
36.3569
 11
29.492
 21
36.5518
  0
LINE
  8
0
 10
29.492
 20
36.5518
 11
29.6987
 21
36.6868
  0
LINE
  8
0
 10
29.6987
 20
36.6868
 11
29.9381
 21
36.7474
  0
LINE
  8
0
 10
29.9381
 20
36.7474
 11
319.938
 21
36.7474
  0
LINE
  8
0
 10
319.938
 20
36.7474
 11
320.184
 21
36.7271
  0
LINE
  8
0
 10
320.184
 20
36.7271
 11
320.41
 21
36.6279
  0
LINE
  8
0
 10
320.41
 20
36.6279
 11
320.592
 21
36.4606
  0
LINE
  8
0
 10
320.592
 20
36.4606
 11
320.709
 21
36.2435
  0
LINE
  8
0
 10
320.709
 20
36.2435
 11
320.75
 21
36
  0
LINE
  8
0
 10
320.75
 20
36
 11
320.709
 21
35.7565
  0
LINE
  8
0
 10
320.709
 20
35.7565
 11
320.592
 21
35.5393
  0
LINE
  8
0
 10
320.592
 20
35.5393
 11
320.41
 21
35.3721
  0
LINE
  8
0
 10
320.41
 20
35.3721
 11
320.184
 21
35.2729
  0
LINE
  8
0
 10
320.184
 20
35.2729
 11
319.938
 21
35.2526
  0
LINE
  8
0
 10
319.938
 20
35.2526
 11
29.9381
 21
35.2526
  0
LINE
  8
0
 10
29.9381
 20
32.7526
 11
29.6987
 21
32.8132
  0
LINE
  8
0
 10
29.6987
 20
32.8132
 11
29.492
 21
32.9482
  0
LINE
  8
0
 10
29.492
 20
32.9482
 11
29.3404
 21
33.143
  0
LINE
  8
0
 10
29.3404
 20
33.143
 11
29.2602
 21
33.3766
  0
LINE
  8
0
 10
29.2602
 20
33.3766
 11
29.2602
 21
33.6234
  0
LINE
  8
0
 10
29.2602
 20
33.6234
 11
29.3404
 21
33.8569
  0
LINE
  8
0
 10
29.3404
 20
33.8569
 11
29.492
 21
34.0518
  0
LINE
  8
0
 10
29.492
 20
34.0518
 11
29.6987
 21
34.1868
  0
LINE
  8
0
 10
29.6987
 20
34.1868
 11
29.9381
 21
34.2474
  0
LINE
  8
0
 10
29.9381
 20
34.2474
 11
319.938
 21
34.2474
  0
LINE
  8
0
 10
319.938
 20
34.2474
 11
320.184
 21
34.2271
  0
LINE
  8
0
 10
320.184
 20
34.2271
 11
320.41
 21
34.1279
  0
LINE
  8
0
 10
320.41
 20
34.1279
 11
320.592
 21
33.9606
  0
LINE
  8
0
 10
320.592
 20
33.9606
 11
320.709
 21
33.7435
  0
LINE
  8
0
 10
320.709
 20
33.7435
 11
320.75
 21
33.5
  0
LINE
  8
0
 10
320.75
 20
33.5
 11
320.709
 21
33.2565
  0
LINE
  8
0
 10
320.709
 20
33.2565
 11
320.592
 21
33.0393
  0
LINE
  8
0
 10
320.592
 20
33.0393
 11
320.41
 21
32.8721
  0
LINE
  8
0
 10
320.41
 20
32.8721
 11
320.184
 21
32.7729
  0
LINE
  8
0
 10
320.184
 20
32.7729
 11
319.938
 21
32.7526
  0
LINE
  8
0
 10
319.938
 20
32.7526
 11
29.9381
 21
32.7526
  0
LINE
  8
0
 10
29.9381
 20
30.2526
 11
29.6987
 21
30.3132
  0
LINE
  8
0
 10
29.6987
 20
30.3132
 11
29.492
 21
30.4482
  0
LINE
  8
0
 10
29.492
 20
30.4482
 11
29.3404
 21
30.643
  0
LINE
  8
0
 10
29.3404
 20
30.643
 11
29.2602
 21
30.8765
  0
LINE
  8
0
 10
29.2602
 20
30.8765
 11
29.2602
 21
31.1234
  0
LINE
  8
0
 10
29.2602
 20
31.1234
 11
29.3404
 21
31.3569
  0
LINE
  8
0
 10
29.3404
 20
31.3569
 11
29.492
 21
31.5518
  0
LINE
  8
0
 10
29.492
 20
31.5518
 11
29.6987
 21
31.6868
  0
LINE
  8
0
 10
29.6987
 20
31.6868
 11
29.9381
 21
31.7474
  0
LINE
  8
0
 10
29.9381
 20
31.7474
 11
319.938
 21
31.7474
  0
LINE
  8
0
 10
319.938
 20
31.7474
 11
320.184
 21
31.7271
  0
LINE
  8
0
 10
320.184
 20
31.7271
 11
320.41
 21
31.6279
  0
LINE
  8
0
 10
320.41
 20
31.6279
 11
320.592
 21
31.4606
  0
LINE
  8
0
 10
320.592
 20
31.4606
 11
320.709
 21
31.2435
  0
LINE
  8
0
 10
320.709
 20
31.2435
 11
320.75
 21
31
  0
LINE
  8
0
 10
320.75
 20
31
 11
320.709
 21
30.7565
  0
LINE
  8
0
 10
320.709
 20
30.7565
 11
320.592
 21
30.5393
  0
LINE
  8
0
 10
320.592
 20
30.5393
 11
320.41
 21
30.3721
  0
LINE
  8
0
 10
320.41
 20
30.3721
 11
320.184
 21
30.2729
  0
LINE
  8
0
 10
320.184
 20
30.2729
 11
319.938
 21
30.2526
  0
LINE
  8
0
 10
319.938
 20
30.2526
 11
29.9381
 21
30.2526
  0
LINE
  8
0
 10
29.9381
 20
27.7526
 11
29.6987
 21
27.8132
  0
LINE
  8
0
 10
29.6987
 20
27.8132
 11
29.492
 21
27.9482
  0
LINE
  8
0
 10
29.492
 20
27.9482
 11
29.3404
 21
28.143
  0
LINE
  8
0
 10
29.3404
 20
28.143
 11
29.2602
 21
28.3765
  0
LINE
  8
0
 10
29.2602
 20
28.3765
 11
29.2602
 21
28.6234
  0
LINE
  8
0
 10
29.2602
 20
28.6234
 11
29.3404
 21
28.8569
  0
LINE
  8
0
 10
29.3404
 20
28.8569
 11
29.492
 21
29.0518
  0
LINE
  8
0
 10
29.492
 20
29.0518
 11
29.6987
 21
29.1868
  0
LINE
  8
0
 10
29.6987
 20
29.1868
 11
29.9381
 21
29.2474
  0
LINE
  8
0
 10
29.9381
 20
29.2474
 11
319.938
 21
29.2474
  0
LINE
  8
0
 10
319.938
 20
29.2474
 11
320.184
 21
29.2271
  0
LINE
  8
0
 10
320.184
 20
29.2271
 11
320.41
 21
29.1279
  0
LINE
  8
0
 10
320.41
 20
29.1279
 11
320.592
 21
28.9606
  0
LINE
  8
0
 10
320.592
 20
28.9606
 11
320.709
 21
28.7435
  0
LINE
  8
0
 10
320.709
 20
28.7435
 11
320.75
 21
28.5
  0
LINE
  8
0
 10
320.75
 20
28.5
 11
320.709
 21
28.2565
  0
LINE
  8
0
 10
320.709
 20
28.2565
 11
320.592
 21
28.0393
  0
LINE
  8
0
 10
320.592
 20
28.0393
 11
320.41
 21
27.8721
  0
LINE
  8
0
 10
320.41
 20
27.8721
 11
320.184
 21
27.7729
  0
LINE
  8
0
 10
320.184
 20
27.7729
 11
319.938
 21
27.7526
  0
LINE
  8
0
 10
319.938
 20
27.7526
 11
29.9381
 21
27.7526
  0
LINE
  8
0
 10
29.9381
 20
25.2526
 11
29.6987
 21
25.3132
  0
LINE
  8
0
 10
29.6987
 20
25.3132
 11
29.492
 21
25.4482
  0
LINE
  8
0
 10
29.492
 20
25.4482
 11
29.3404
 21
25.643
  0
LINE
  8
0
 10
29.3404
 20
25.643
 11
29.2602
 21
25.8765
  0
LINE
  8
0
 10
29.2602
 20
25.8765
 11
29.2602
 21
26.1234
  0
LINE
  8
0
 10
29.2602
 20
26.1234
 11
29.3404
 21
26.3569
  0
LINE
  8
0
 10
29.3404
 20
26.3569
 11
29.492
 21
26.5518
  0
LINE
  8
0
 10
29.492
 20
26.5518
 11
29.6987
 21
26.6868
  0
LINE
  8
0
 10
29.6987
 20
26.6868
 11
29.9381
 21
26.7474
  0
LINE
  8
0
 10
29.9381
 20
26.7474
 11
319.938
 21
26.7474
  0
LINE
  8
0
 10
319.938
 20
26.7474
 11
320.184
 21
26.7271
  0
LINE
  8
0
 10
320.184
 20
26.7271
 11
320.41
 21
26.6279
  0
LINE
  8
0
 10
320.41
 20
26.6279
 11
320.592
 21
26.4606
  0
LINE
  8
0
 10
320.592
 20
26.4606
 11
320.709
 21
26.2435
  0
LINE
  8
0
 10
320.709
 20
26.2435
 11
320.75
 21
26
  0
LINE
  8
0
 10
320.75
 20
26
 11
320.709
 21
25.7565
  0
LINE
  8
0
 10
320.709
 20
25.7565
 11
320.592
 21
25.5393
  0
LINE
  8
0
 10
320.592
 20
25.5393
 11
320.41
 21
25.3721
  0
LINE
  8
0
 10
320.41
 20
25.3721
 11
320.184
 21
25.2729
  0
LINE
  8
0
 10
320.184
 20
25.2729
 11
319.938
 21
25.2526
  0
LINE
  8
0
 10
319.938
 20
25.2526
 11
29.9381
 21
25.2526
  0
LINE
  8
0
 10
29.9381
 20
22.7526
 11
29.6987
 21
22.8132
  0
LINE
  8
0
 10
29.6987
 20
22.8132
 11
29.492
 21
22.9482
  0
LINE
  8
0
 10
29.492
 20
22.9482
 11
29.3404
 21
23.143
  0
LINE
  8
0
 10
29.3404
 20
23.143
 11
29.2602
 21
23.3765
  0
LINE
  8
0
 10
29.2602
 20
23.3765
 11
29.2602
 21
23.6234
  0
LINE
  8
0
 10
29.2602
 20
23.6234
 11
29.3404
 21
23.8569
  0
LINE
  8
0
 10
29.3404
 20
23.8569
 11
29.492
 21
24.0518
  0
LINE
  8
0
 10
29.492
 20
24.0518
 11
29.6987
 21
24.1868
  0
LINE
  8
0
 10
29.6987
 20
24.1868
 11
29.9381
 21
24.2474
  0
LINE
  8
0
 10
29.9381
 20
24.2474
 11
319.938
 21
24.2474
  0
LINE
  8
0
 10
319.938
 20
24.2474
 11
320.184
 21
24.2271
  0
LINE
  8
0
 10
320.184
 20
24.2271
 11
320.41
 21
24.1279
  0
LINE
  8
0
 10
320.41
 20
24.1279
 11
320.592
 21
23.9606
  0
LINE
  8
0
 10
320.592
 20
23.9606
 11
320.709
 21
23.7435
  0
LINE
  8
0
 10
320.709
 20
23.7435
 11
320.75
 21
23.5
  0
LINE
  8
0
 10
320.75
 20
23.5
 11
320.709
 21
23.2565
  0
LINE
  8
0
 10
320.709
 20
23.2565
 11
320.592
 21
23.0393
  0
LINE
  8
0
 10
320.592
 20
23.0393
 11
320.41
 21
22.8721
  0
LINE
  8
0
 10
320.41
 20
22.8721
 11
320.184
 21
22.7729
  0
LINE
  8
0
 10
320.184
 20
22.7729
 11
319.938
 21
22.7526
  0
LINE
  8
0
 10
319.938
 20
22.7526
 11
29.9381
 21
22.7526
  0
LINE
  8
0
 10
29.9381
 20
20.2526
 11
29.6987
 21
20.3132
  0
LINE
  8
0
 10
29.6987
 20
20.3132
 11
29.492
 21
20.4482
  0
LINE
  8
0
 10
29.492
 20
20.4482
 11
29.3404
 21
20.643
  0
LINE
  8
0
 10
29.3404
 20
20.643
 11
29.2602
 21
20.8765
  0
LINE
  8
0
 10
29.2602
 20
20.8765
 11
29.2602
 21
21.1234
  0
LINE
  8
0
 10
29.2602
 20
21.1234
 11
29.3404
 21
21.3569
  0
LINE
  8
0
 10
29.3404
 20
21.3569
 11
29.492
 21
21.5518
  0
LINE
  8
0
 10
29.492
 20
21.5518
 11
29.6987
 21
21.6868
  0
LINE
  8
0
 10
29.6987
 20
21.6868
 11
29.9381
 21
21.7474
  0
LINE
  8
0
 10
29.9381
 20
21.7474
 11
319.938
 21
21.7474
  0
LINE
  8
0
 10
319.938
 20
21.7474
 11
320.184
 21
21.7271
  0
LINE
  8
0
 10
320.184
 20
21.7271
 11
320.41
 21
21.6279
  0
LINE
  8
0
 10
320.41
 20
21.6279
 11
320.592
 21
21.4606
  0
LINE
  8
0
 10
320.592
 20
21.4606
 11
320.709
 21
21.2435
  0
LINE
  8
0
 10
320.709
 20
21.2435
 11
320.75
 21
21
  0
LINE
  8
0
 10
320.75
 20
21
 11
320.709
 21
20.7565
  0
LINE
  8
0
 10
320.709
 20
20.7565
 11
320.592
 21
20.5393
  0
LINE
  8
0
 10
320.592
 20
20.5393
 11
320.41
 21
20.3721
  0
LINE
  8
0
 10
320.41
 20
20.3721
 11
320.184
 21
20.2729
  0
LINE
  8
0
 10
320.184
 20
20.2729
 11
319.938
 21
20.2526
  0
LINE
  8
0
 10
319.938
 20
20.2526
 11
29.9381
 21
20.2526
  0
LINE
  8
0
 10
29.9381
 20
17.7526
 11
29.6987
 21
17.8132
  0
LINE
  8
0
 10
29.6987
 20
17.8132
 11
29.492
 21
17.9482
  0
LINE
  8
0
 10
29.492
 20
17.9482
 11
29.3404
 21
18.143
  0
LINE
  8
0
 10
29.3404
 20
18.143
 11
29.2602
 21
18.3765
  0
LINE
  8
0
 10
29.2602
 20
18.3765
 11
29.2602
 21
18.6234
  0
LINE
  8
0
 10
29.2602
 20
18.6234
 11
29.3404
 21
18.8569
  0
LINE
  8
0
 10
29.3404
 20
18.8569
 11
29.492
 21
19.0518
  0
LINE
  8
0
 10
29.492
 20
19.0518
 11
29.6987
 21
19.1868
  0
LINE
  8
0
 10
29.6987
 20
19.1868
 11
29.9381
 21
19.2474
  0
LINE
  8
0
 10
29.9381
 20
19.2474
 11
319.938
 21
19.2474
  0
LINE
  8
0
 10
319.938
 20
19.2474
 11
320.184
 21
19.2271
  0
LINE
  8
0
 10
320.184
 20
19.2271
 11
320.41
 21
19.1279
  0
LINE
  8
0
 10
320.41
 20
19.1279
 11
320.592
 21
18.9606
  0
LINE
  8
0
 10
320.592
 20
18.9606
 11
320.709
 21
18.7435
  0
LINE
  8
0
 10
320.709
 20
18.7435
 11
320.75
 21
18.5
  0
LINE
  8
0
 10
320.75
 20
18.5
 11
320.709
 21
18.2565
  0
LINE
  8
0
 10
320.709
 20
18.2565
 11
320.592
 21
18.0393
  0
LINE
  8
0
 10
320.592
 20
18.0393
 11
320.41
 21
17.8721
  0
LINE
  8
0
 10
320.41
 20
17.8721
 11
320.184
 21
17.7729
  0
LINE
  8
0
 10
320.184
 20
17.7729
 11
319.938
 21
17.7526
  0
LINE
  8
0
 10
319.938
 20
17.7526
 11
29.9381
 21
17.7526
  0
LINE
  8
0
 10
29.9381
 20
15.2525
 11
29.6987
 21
15.3132
  0
LINE
  8
0
 10
29.6987
 20
15.3132
 11
29.492
 21
15.4482
  0
LINE
  8
0
 10
29.492
 20
15.4482
 11
29.3404
 21
15.643
  0
LINE
  8
0
 10
29.3404
 20
15.643
 11
29.2602
 21
15.8765
  0
LINE
  8
0
 10
29.2602
 20
15.8765
 11
29.2602
 21
16.1234
  0
LINE
  8
0
 10
29.2602
 20
16.1234
 11
29.3404
 21
16.3569
  0
LINE
  8
0
 10
29.3404
 20
16.3569
 11
29.492
 21
16.5518
  0
LINE
  8
0
 10
29.492
 20
16.5518
 11
29.6987
 21
16.6868
  0
LINE
  8
0
 10
29.6987
 20
16.6868
 11
29.9381
 21
16.7474
  0
LINE
  8
0
 10
29.9381
 20
16.7474
 11
319.938
 21
16.7474
  0
LINE
  8
0
 10
319.938
 20
16.7474
 11
320.184
 21
16.7271
  0
LINE
  8
0
 10
320.184
 20
16.7271
 11
320.41
 21
16.6279
  0
LINE
  8
0
 10
320.41
 20
16.6279
 11
320.592
 21
16.4606
  0
LINE
  8
0
 10
320.592
 20
16.4606
 11
320.709
 21
16.2435
  0
LINE
  8
0
 10
320.709
 20
16.2435
 11
320.75
 21
16
  0
LINE
  8
0
 10
320.75
 20
16
 11
320.709
 21
15.7565
  0
LINE
  8
0
 10
320.709
 20
15.7565
 11
320.592
 21
15.5393
  0
LINE
  8
0
 10
320.592
 20
15.5393
 11
320.41
 21
15.3721
  0
LINE
  8
0
 10
320.41
 20
15.3721
 11
320.184
 21
15.2729
  0
LINE
  8
0
 10
320.184
 20
15.2729
 11
319.938
 21
15.2525
  0
LINE
  8
0
 10
319.938
 20
15.2525
 11
29.9381
 21
15.2525
  0
LINE
  8
0
 10
4.31406
 20
13.3102
 11
4.07001
 21
13.3553
  0
LINE
  8
0
 10
4.07001
 20
13.3553
 11
3.83511
 21
13.4354
  0
LINE
  8
0
 10
3.83511
 20
13.4354
 11
3.6144
 21
13.5489
  0
LINE
  8
0
 10
3.6144
 20
13.5489
 11
3.41255
 21
13.6933
  0
LINE
  8
0
 10
3.41255
 20
13.6933
 11
3.23389
 21
13.8656
  0
LINE
  8
0
 10
3.23389
 20
13.8656
 11
3.0822
 21
14.062
  0
LINE
  8
0
 10
3.0822
 20
14.062
 11
2.96072
 21
14.2784
  0
LINE
  8
0
 10
2.96072
 20
14.2784
 11
2.87207
 21
14.5102
  0
LINE
  8
0
 10
2.87207
 20
14.5102
 11
2.81812
 21
14.7525
  0
LINE
  8
0
 10
2.81812
 20
14.7525
 11
2.79999
 21
15
  0
LINE
  8
0
 10
2.79999
 20
15
 11
2.81812
 21
15.2475
  0
LINE
  8
0
 10
2.81812
 20
15.2475
 11
2.87207
 21
15.4898
  0
LINE
  8
0
 10
2.87207
 20
15.4898
 11
2.96072
 21
15.7216
  0
LINE
  8
0
 10
2.96072
 20
15.7216
 11
3.0822
 21
15.938
  0
LINE
  8
0
 10
3.0822
 20
15.938
 11
3.23389
 21
16.1344
  0
LINE
  8
0
 10
3.23389
 20
16.1344
 11
3.41255
 21
16.3067
  0
LINE
  8
0
 10
3.41255
 20
16.3067
 11
3.6144
 21
16.4511
  0
LINE
  8
0
 10
3.6144
 20
16.4511
 11
3.83511
 21
16.5646
  0
LINE
  8
0
 10
3.83511
 20
16.5646
 11
4.07001
 21
16.6447
  0
LINE
  8
0
 10
4.07001
 20
16.6447
 11
4.31406
 21
16.6898
  0
LINE
  8
0
 10
4.31406
 20
16.6898
 11
4.56209
 21
16.6989
  0
LINE
  8
0
 10
4.56209
 20
16.6989
 11
4.80878
 21
16.6717
  0
LINE
  8
0
 10
4.80878
 20
16.6717
 11
5.04889
 21
16.6089
  0
LINE
  8
0
 10
5.04889
 20
16.6089
 11
5.2773
 21
16.5119
  0
LINE
  8
0
 10
5.2773
 20
16.5119
 11
5.48915
 21
16.3826
  0
LINE
  8
0
 10
5.48915
 20
16.3826
 11
5.67992
 21
16.2238
  0
LINE
  8
0
 10
5.67992
 20
16.2238
 11
5.84554
 21
16.039
  0
LINE
  8
0
 10
5.84554
 20
16.039
 11
5.98248
 21
15.832
  0
LINE
  8
0
 10
5.98248
 20
15.832
 11
6.08781
 21
15.6073
  0
LINE
  8
0
 10
6.08781
 20
15.6073
 11
6.15932
 21
15.3696
  0
LINE
  8
0
 10
6.15932
 20
15.3696
 11
6.19547
 21
15.1241
  0
LINE
  8
0
 10
6.19547
 20
15.1241
 11
6.19547
 21
14.8759
  0
LINE
  8
0
 10
6.19547
 20
14.8759
 11
6.15932
 21
14.6304
  0
LINE
  8
0
 10
6.15932
 20
14.6304
 11
6.08781
 21
14.3927
  0
LINE
  8
0
 10
6.08781
 20
14.3927
 11
5.98248
 21
14.168
  0
LINE
  8
0
 10
5.98248
 20
14.168
 11
5.84554
 21
13.961
  0
LINE
  8
0
 10
5.84554
 20
13.961
 11
5.67992
 21
13.7762
  0
LINE
  8
0
 10
5.67992
 20
13.7762
 11
5.48915
 21
13.6174
  0
LINE
  8
0
 10
5.48915
 20
13.6174
 11
5.2773
 21
13.4881
  0
LINE
  8
0
 10
5.2773
 20
13.4881
 11
5.04889
 21
13.3911
  0
LINE
  8
0
 10
5.04889
 20
13.3911
 11
4.80878
 21
13.3283
  0
LINE
  8
0
 10
4.80878
 20
13.3283
 11
4.56209
 21
13.3011
  0
LINE
  8
0
 10
4.56209
 20
13.3011
 11
4.31406
 21
13.3102
  0
LINE
  8
0
 10
345.191
 20
13.3283
 11
344.951
 21
13.3911
  0
LINE
  8
0
 10
344.951
 20
13.3911
 11
344.723
 21
13.4881
  0
LINE
  8
0
 10
344.723
 20
13.4881
 11
344.511
 21
13.6174
  0
LINE
  8
0
 10
344.511
 20
13.6174
 11
344.32
 21
13.7762
  0
LINE
  8
0
 10
344.32
 20
13.7762
 11
344.154
 21
13.961
  0
LINE
  8
0
 10
344.154
 20
13.961
 11
344.018
 21
14.168
  0
LINE
  8
0
 10
344.018
 20
14.168
 11
343.912
 21
14.3927
  0
LINE
  8
0
 10
343.912
 20
14.3927
 11
343.841
 21
14.6304
  0
LINE
  8
0
 10
343.841
 20
14.6304
 11
343.805
 21
14.8759
  0
LINE
  8
0
 10
343.805
 20
14.8759
 11
343.805
 21
15.1241
  0
LINE
  8
0
 10
343.805
 20
15.1241
 11
343.841
 21
15.3696
  0
LINE
  8
0
 10
343.841
 20
15.3696
 11
343.912
 21
15.6073
  0
LINE
  8
0
 10
343.912
 20
15.6073
 11
344.018
 21
15.832
  0
LINE
  8
0
 10
344.018
 20
15.832
 11
344.154
 21
16.039
  0
LINE
  8
0
 10
344.154
 20
16.039
 11
344.32
 21
16.2238
  0
LINE
  8
0
 10
344.32
 20
16.2238
 11
344.511
 21
16.3826
  0
LINE
  8
0
 10
344.511
 20
16.3826
 11
344.723
 21
16.5119
  0
LINE
  8
0
 10
344.723
 20
16.5119
 11
344.951
 21
16.6089
  0
LINE
  8
0
 10
344.951
 20
16.6089
 11
345.191
 21
16.6717
  0
LINE
  8
0
 10
345.191
 20
16.6717
 11
345.438
 21
16.6989
  0
LINE
  8
0
 10
345.438
 20
16.6989
 11
345.686
 21
16.6898
  0
LINE
  8
0
 10
345.686
 20
16.6898
 11
345.93
 21
16.6447
  0
LINE
  8
0
 10
345.93
 20
16.6447
 11
346.165
 21
16.5646
  0
LINE
  8
0
 10
346.165
 20
16.5646
 11
346.386
 21
16.4511
  0
LINE
  8
0
 10
346.386
 20
16.4511
 11
346.587
 21
16.3067
  0
LINE
  8
0
 10
346.587
 20
16.3067
 11
346.766
 21
16.1344
  0
LINE
  8
0
 10
346.766
 20
16.1344
 11
346.918
 21
15.938
  0
LINE
  8
0
 10
346.918
 20
15.938
 11
347.039
 21
15.7216
  0
LINE
  8
0
 10
347.039
 20
15.7216
 11
347.128
 21
15.4898
  0
LINE
  8
0
 10
347.128
 20
15.4898
 11
347.182
 21
15.2475
  0
LINE
  8
0
 10
347.182
 20
15.2475
 11
347.2
 21
15
  0
LINE
  8
0
 10
347.2
 20
15
 11
347.182
 21
14.7525
  0
LINE
  8
0
 10
347.182
 20
14.7525
 11
347.128
 21
14.5102
  0
LINE
  8
0
 10
347.128
 20
14.5102
 11
347.039
 21
14.2784
  0
LINE
  8
0
 10
347.039
 20
14.2784
 11
346.918
 21
14.062
  0
LINE
  8
0
 10
346.918
 20
14.062
 11
346.766
 21
13.8656
  0
LINE
  8
0
 10
346.766
 20
13.8656
 11
346.587
 21
13.6933
  0
LINE
  8
0
 10
346.587
 20
13.6933
 11
346.386
 21
13.5489
  0
LINE
  8
0
 10
346.386
 20
13.5489
 11
346.165
 21
13.4354
  0
LINE
  8
0
 10
346.165
 20
13.4354
 11
345.93
 21
13.3553
  0
LINE
  8
0
 10
345.93
 20
13.3553
 11
345.686
 21
13.3102
  0
LINE
  8
0
 10
345.686
 20
13.3102
 11
345.438
 21
13.3011
  0
LINE
  8
0
 10
345.438
 20
13.3011
 11
345.191
 21
13.3283
  0
LINE
  8
0
 10
29.9381
 20
12.7525
 11
29.6987
 21
12.8132
  0
LINE
  8
0
 10
29.6987
 20
12.8132
 11
29.492
 21
12.9482
  0
LINE
  8
0
 10
29.492
 20
12.9482
 11
29.3404
 21
13.143
  0
LINE
  8
0
 10
29.3404
 20
13.143
 11
29.2602
 21
13.3765
  0
LINE
  8
0
 10
29.2602
 20
13.3765
 11
29.2602
 21
13.6234
  0
LINE
  8
0
 10
29.2602
 20
13.6234
 11
29.3404
 21
13.8569
  0
LINE
  8
0
 10
29.3404
 20
13.8569
 11
29.492
 21
14.0518
  0
LINE
  8
0
 10
29.492
 20
14.0518
 11
29.6987
 21
14.1868
  0
LINE
  8
0
 10
29.6987
 20
14.1868
 11
29.9381
 21
14.2474
  0
LINE
  8
0
 10
29.9381
 20
14.2474
 11
319.938
 21
14.2474
  0
LINE
  8
0
 10
319.938
 20
14.2474
 11
320.184
 21
14.2271
  0
LINE
  8
0
 10
320.184
 20
14.2271
 11
320.41
 21
14.1279
  0
LINE
  8
0
 10
320.41
 20
14.1279
 11
320.592
 21
13.9606
  0
LINE
  8
0
 10
320.592
 20
13.9606
 11
320.709
 21
13.7435
  0
LINE
  8
0
 10
320.709
 20
13.7435
 11
320.75
 21
13.5
  0
LINE
  8
0
 10
320.75
 20
13.5
 11
320.709
 21
13.2565
  0
LINE
  8
0
 10
320.709
 20
13.2565
 11
320.592
 21
13.0393
  0
LINE
  8
0
 10
320.592
 20
13.0393
 11
320.41
 21
12.8721
  0
LINE
  8
0
 10
320.41
 20
12.8721
 11
320.184
 21
12.7729
  0
LINE
  8
0
 10
320.184
 20
12.7729
 11
319.938
 21
12.7525
  0
LINE
  8
0
 10
319.938
 20
12.7525
 11
29.9381
 21
12.7525
  0
LINE
  8
0
 10
29.9381
 20
10.2525
 11
29.6987
 21
10.3132
  0
LINE
  8
0
 10
29.6987
 20
10.3132
 11
29.492
 21
10.4482
  0
LINE
  8
0
 10
29.492
 20
10.4482
 11
29.3404
 21
10.643
  0
LINE
  8
0
 10
29.3404
 20
10.643
 11
29.2602
 21
10.8765
  0
LINE
  8
0
 10
29.2602
 20
10.8765
 11
29.2602
 21
11.1234
  0
LINE
  8
0
 10
29.2602
 20
11.1234
 11
29.3404
 21
11.3569
  0
LINE
  8
0
 10
29.3404
 20
11.3569
 11
29.492
 21
11.5518
  0
LINE
  8
0
 10
29.492
 20
11.5518
 11
29.6987
 21
11.6868
  0
LINE
  8
0
 10
29.6987
 20
11.6868
 11
29.9381
 21
11.7474
  0
LINE
  8
0
 10
29.9381
 20
11.7474
 11
319.938
 21
11.7474
  0
LINE
  8
0
 10
319.938
 20
11.7474
 11
320.184
 21
11.7271
  0
LINE
  8
0
 10
320.184
 20
11.7271
 11
320.41
 21
11.6279
  0
LINE
  8
0
 10
320.41
 20
11.6279
 11
320.592
 21
11.4606
  0
LINE
  8
0
 10
320.592
 20
11.4606
 11
320.709
 21
11.2435
  0
LINE
  8
0
 10
320.709
 20
11.2435
 11
320.75
 21
11
  0
LINE
  8
0
 10
320.75
 20
11
 11
320.709
 21
10.7565
  0
LINE
  8
0
 10
320.709
 20
10.7565
 11
320.592
 21
10.5393
  0
LINE
  8
0
 10
320.592
 20
10.5393
 11
320.41
 21
10.3721
  0
LINE
  8
0
 10
320.41
 20
10.3721
 11
320.184
 21
10.2729
  0
LINE
  8
0
 10
320.184
 20
10.2729
 11
319.938
 21
10.2525
  0
LINE
  8
0
 10
319.938
 20
10.2525
 11
29.9381
 21
10.2525
  0
LINE
  8
0
 10
29.9381
 20
7.75255
 11
29.6987
 21
7.81316
  0
LINE
  8
0
 10
29.6987
 20
7.81316
 11
29.492
 21
7.9482
  0
LINE
  8
0
 10
29.492
 20
7.9482
 11
29.3404
 21
8.14304
  0
LINE
  8
0
 10
29.3404
 20
8.14304
 11
29.2602
 21
8.37654
  0
LINE
  8
0
 10
29.2602
 20
8.37654
 11
29.2602
 21
8.62344
  0
LINE
  8
0
 10
29.2602
 20
8.62344
 11
29.3404
 21
8.85695
  0
LINE
  8
0
 10
29.3404
 20
8.85695
 11
29.492
 21
9.05179
  0
LINE
  8
0
 10
29.492
 20
9.05179
 11
29.6987
 21
9.18683
  0
LINE
  8
0
 10
29.6987
 20
9.18683
 11
29.9381
 21
9.24744
  0
LINE
  8
0
 10
29.9381
 20
9.24744
 11
319.938
 21
9.24744
  0
LINE
  8
0
 10
319.938
 20
9.24744
 11
320.184
 21
9.22705
  0
LINE
  8
0
 10
320.184
 20
9.22705
 11
320.41
 21
9.12787
  0
LINE
  8
0
 10
320.41
 20
9.12787
 11
320.592
 21
8.96065
  0
LINE
  8
0
 10
320.592
 20
8.96065
 11
320.709
 21
8.74352
  0
LINE
  8
0
 10
320.709
 20
8.74352
 11
320.75
 21
8.5
  0
LINE
  8
0
 10
320.75
 20
8.5
 11
320.709
 21
8.25647
  0
LINE
  8
0
 10
320.709
 20
8.25647
 11
320.592
 21
8.03934
  0
LINE
  8
0
 10
320.592
 20
8.03934
 11
320.41
 21
7.87212
  0
LINE
  8
0
 10
320.41
 20
7.87212
 11
320.184
 21
7.77295
  0
LINE
  8
0
 10
320.184
 20
7.77295
 11
319.938
 21
7.75255
  0
LINE
  8
0
 10
319.938
 20
7.75255
 11
29.9381
 21
7.75255
  0
LINE
  8
0
 10
29.9381
 20
5.25255
 11
29.6987
 21
5.31316
  0
LINE
  8
0
 10
29.6987
 20
5.31316
 11
29.492
 21
5.4482
  0
LINE
  8
0
 10
29.492
 20
5.4482
 11
29.3404
 21
5.64304
  0
LINE
  8
0
 10
29.3404
 20
5.64304
 11
29.2602
 21
5.87654
  0
LINE
  8
0
 10
29.2602
 20
5.87654
 11
29.2602
 21
6.12344
  0
LINE
  8
0
 10
29.2602
 20
6.12344
 11
29.3404
 21
6.35695
  0
LINE
  8
0
 10
29.3404
 20
6.35695
 11
29.492
 21
6.55179
  0
LINE
  8
0
 10
29.492
 20
6.55179
 11
29.6987
 21
6.68683
  0
LINE
  8
0
 10
29.6987
 20
6.68683
 11
29.9381
 21
6.74744
  0
LINE
  8
0
 10
29.9381
 20
6.74744
 11
319.938
 21
6.74744
  0
LINE
  8
0
 10
319.938
 20
6.74744
 11
320.184
 21
6.72705
  0
LINE
  8
0
 10
320.184
 20
6.72705
 11
320.41
 21
6.62787
  0
LINE
  8
0
 10
320.41
 20
6.62787
 11
320.592
 21
6.46065
  0
LINE
  8
0
 10
320.592
 20
6.46065
 11
320.709
 21
6.24352
  0
LINE
  8
0
 10
320.709
 20
6.24352
 11
320.75
 21
6
  0
LINE
  8
0
 10
320.75
 20
6
 11
320.709
 21
5.75647
  0
LINE
  8
0
 10
320.709
 20
5.75647
 11
320.592
 21
5.53934
  0
LINE
  8
0
 10
320.592
 20
5.53934
 11
320.41
 21
5.37212
  0
LINE
  8
0
 10
320.41
 20
5.37212
 11
320.184
 21
5.27295
  0
LINE
  8
0
 10
320.184
 20
5.27295
 11
319.938
 21
5.25255
  0
LINE
  8
0
 10
319.938
 20
5.25255
 11
29.9381
 21
5.25255
  0
ENDSEC
  0
SECTION
  2
OBJECTS
  0
DICTIONARY
  0
ENDSEC
  0
EOF
