  0
SECTION
  2
BLOCKS
  0
ENDSEC
  0
SECTION
  2
ENTITIES
  0
LINE
  8
0
 10
315.398
 20
-122.298
 11
315.915
 21
-122.216
  0
LINE
  8
0
 10
315.915
 20
-122.216
 11
316.42
 21
-122.08
  0
LINE
  8
0
 10
316.42
 20
-122.08
 11
316.909
 21
-121.893
  0
LINE
  8
0
 10
316.909
 20
-121.893
 11
317.375
 21
-121.655
  0
LINE
  8
0
 10
317.375
 20
-121.655
 11
317.814
 21
-121.37
  0
LINE
  8
0
 10
317.814
 20
-121.37
 11
318.221
 21
-121.041
  0
LINE
  8
0
 10
318.221
 20
-121.041
 11
318.591
 21
-120.671
  0
LINE
  8
0
 10
318.591
 20
-120.671
 11
318.92
 21
-120.264
  0
LINE
  8
0
 10
318.92
 20
-120.264
 11
319.205
 21
-119.825
  0
LINE
  8
0
 10
319.205
 20
-119.825
 11
319.443
 21
-119.359
  0
LINE
  8
0
 10
319.443
 20
-119.359
 11
319.63
 21
-118.87
  0
LINE
  8
0
 10
319.63
 20
-118.87
 11
319.766
 21
-118.365
  0
LINE
  8
0
 10
319.766
 20
-118.365
 11
319.848
 21
-117.848
  0
LINE
  8
0
 10
319.848
 20
-117.848
 11
319.875
 21
-117.325
  0
LINE
  8
0
 10
319.875
 20
-117.325
 11
319.875
 21
117.325
  0
LINE
  8
0
 10
319.875
 20
117.325
 11
319.848
 21
117.848
  0
LINE
  8
0
 10
319.848
 20
117.848
 11
319.766
 21
118.365
  0
LINE
  8
0
 10
319.766
 20
118.365
 11
319.63
 21
118.87
  0
LINE
  8
0
 10
319.63
 20
118.87
 11
319.443
 21
119.359
  0
LINE
  8
0
 10
319.443
 20
119.359
 11
319.205
 21
119.825
  0
LINE
  8
0
 10
319.205
 20
119.825
 11
318.92
 21
120.264
  0
LINE
  8
0
 10
318.92
 20
120.264
 11
318.591
 21
120.671
  0
LINE
  8
0
 10
318.591
 20
120.671
 11
318.221
 21
121.041
  0
LINE
  8
0
 10
318.221
 20
121.041
 11
317.814
 21
121.37
  0
LINE
  8
0
 10
317.814
 20
121.37
 11
317.375
 21
121.655
  0
LINE
  8
0
 10
317.375
 20
121.655
 11
316.909
 21
121.893
  0
LINE
  8
0
 10
316.909
 20
121.893
 11
316.42
 21
122.08
  0
LINE
  8
0
 10
316.42
 20
122.08
 11
315.915
 21
122.216
  0
LINE
  8
0
 10
315.915
 20
122.216
 11
315.398
 21
122.298
  0
LINE
  8
0
 10
315.398
 20
122.298
 11
314.875
 21
122.325
  0
LINE
  8
0
 10
314.875
 20
122.325
 11
-314.875
 21
122.325
  0
LINE
  8
0
 10
-314.875
 20
122.325
 11
-315.398
 21
122.298
  0
LINE
  8
0
 10
-315.398
 20
122.298
 11
-315.915
 21
122.216
  0
LINE
  8
0
 10
-315.915
 20
122.216
 11
-316.42
 21
122.08
  0
LINE
  8
0
 10
-316.42
 20
122.08
 11
-316.909
 21
121.893
  0
LINE
  8
0
 10
-316.909
 20
121.893
 11
-317.375
 21
121.655
  0
LINE
  8
0
 10
-317.375
 20
121.655
 11
-317.814
 21
121.37
  0
LINE
  8
0
 10
-317.814
 20
121.37
 11
-318.221
 21
121.041
  0
LINE
  8
0
 10
-318.221
 20
121.041
 11
-318.591
 21
120.671
  0
LINE
  8
0
 10
-318.591
 20
120.671
 11
-318.92
 21
120.264
  0
LINE
  8
0
 10
-318.92
 20
120.264
 11
-319.205
 21
119.825
  0
LINE
  8
0
 10
-319.205
 20
119.825
 11
-319.443
 21
119.359
  0
LINE
  8
0
 10
-319.443
 20
119.359
 11
-319.63
 21
118.87
  0
LINE
  8
0
 10
-319.63
 20
118.87
 11
-319.766
 21
118.365
  0
LINE
  8
0
 10
-319.766
 20
118.365
 11
-319.848
 21
117.848
  0
LINE
  8
0
 10
-319.848
 20
117.848
 11
-319.875
 21
117.325
  0
LINE
  8
0
 10
-319.875
 20
117.325
 11
-319.875
 21
-117.325
  0
LINE
  8
0
 10
-319.875
 20
-117.325
 11
-319.848
 21
-117.848
  0
LINE
  8
0
 10
-319.848
 20
-117.848
 11
-319.766
 21
-118.365
  0
LINE
  8
0
 10
-319.766
 20
-118.365
 11
-319.63
 21
-118.87
  0
LINE
  8
0
 10
-319.63
 20
-118.87
 11
-319.443
 21
-119.359
  0
LINE
  8
0
 10
-319.443
 20
-119.359
 11
-319.205
 21
-119.825
  0
LINE
  8
0
 10
-319.205
 20
-119.825
 11
-318.92
 21
-120.264
  0
LINE
  8
0
 10
-318.92
 20
-120.264
 11
-318.591
 21
-120.671
  0
LINE
  8
0
 10
-318.591
 20
-120.671
 11
-318.221
 21
-121.041
  0
LINE
  8
0
 10
-318.221
 20
-121.041
 11
-317.814
 21
-121.37
  0
LINE
  8
0
 10
-317.814
 20
-121.37
 11
-317.375
 21
-121.655
  0
LINE
  8
0
 10
-317.375
 20
-121.655
 11
-316.909
 21
-121.893
  0
LINE
  8
0
 10
-316.909
 20
-121.893
 11
-316.42
 21
-122.08
  0
LINE
  8
0
 10
-316.42
 20
-122.08
 11
-315.915
 21
-122.216
  0
LINE
  8
0
 10
-315.915
 20
-122.216
 11
-315.398
 21
-122.298
  0
LINE
  8
0
 10
-315.398
 20
-122.298
 11
-314.875
 21
-122.325
  0
LINE
  8
0
 10
-314.875
 20
-122.325
 11
314.875
 21
-122.325
  0
LINE
  8
0
 10
314.875
 20
-122.325
 11
315.398
 21
-122.298
  0
LINE
  8
0
 10
-312.892
 20
111.221
 11
-313.28
 21
111.282
  0
LINE
  8
0
 10
-313.28
 20
111.282
 11
-313.659
 21
111.384
  0
LINE
  8
0
 10
-313.659
 20
111.384
 11
-314.025
 21
111.524
  0
LINE
  8
0
 10
-314.025
 20
111.524
 11
-314.375
 21
111.702
  0
LINE
  8
0
 10
-314.375
 20
111.702
 11
-314.704
 21
111.916
  0
LINE
  8
0
 10
-314.704
 20
111.916
 11
-315.009
 21
112.163
  0
LINE
  8
0
 10
-315.009
 20
112.163
 11
-315.287
 21
112.441
  0
LINE
  8
0
 10
-315.287
 20
112.441
 11
-315.534
 21
112.746
  0
LINE
  8
0
 10
-315.534
 20
112.746
 11
-315.748
 21
113.075
  0
LINE
  8
0
 10
-315.748
 20
113.075
 11
-315.926
 21
113.425
  0
LINE
  8
0
 10
-315.926
 20
113.425
 11
-316.066
 21
113.791
  0
LINE
  8
0
 10
-316.066
 20
113.791
 11
-316.168
 21
114.17
  0
LINE
  8
0
 10
-316.168
 20
114.17
 11
-316.229
 21
114.558
  0
LINE
  8
0
 10
-316.229
 20
114.558
 11
-316.25
 21
114.95
  0
LINE
  8
0
 10
-316.25
 20
114.95
 11
-316.229
 21
115.342
  0
LINE
  8
0
 10
-316.229
 20
115.342
 11
-316.168
 21
115.73
  0
LINE
  8
0
 10
-316.168
 20
115.73
 11
-316.066
 21
116.109
  0
LINE
  8
0
 10
-316.066
 20
116.109
 11
-315.926
 21
116.475
  0
LINE
  8
0
 10
-315.926
 20
116.475
 11
-315.748
 21
116.825
  0
LINE
  8
0
 10
-315.748
 20
116.825
 11
-315.534
 21
117.154
  0
LINE
  8
0
 10
-315.534
 20
117.154
 11
-315.287
 21
117.459
  0
LINE
  8
0
 10
-315.287
 20
117.459
 11
-315.009
 21
117.737
  0
LINE
  8
0
 10
-315.009
 20
117.737
 11
-314.704
 21
117.984
  0
LINE
  8
0
 10
-314.704
 20
117.984
 11
-314.375
 21
118.198
  0
LINE
  8
0
 10
-314.375
 20
118.198
 11
-314.025
 21
118.376
  0
LINE
  8
0
 10
-314.025
 20
118.376
 11
-313.659
 21
118.516
  0
LINE
  8
0
 10
-313.659
 20
118.516
 11
-313.28
 21
118.618
  0
LINE
  8
0
 10
-313.28
 20
118.618
 11
-312.892
 21
118.679
  0
LINE
  8
0
 10
-312.892
 20
118.679
 11
-312.5
 21
118.7
  0
LINE
  8
0
 10
-312.5
 20
118.7
 11
-312.108
 21
118.679
  0
LINE
  8
0
 10
-312.108
 20
118.679
 11
-311.72
 21
118.618
  0
LINE
  8
0
 10
-311.72
 20
118.618
 11
-311.341
 21
118.516
  0
LINE
  8
0
 10
-311.341
 20
118.516
 11
-310.975
 21
118.376
  0
LINE
  8
0
 10
-310.975
 20
118.376
 11
-310.625
 21
118.198
  0
LINE
  8
0
 10
-310.625
 20
118.198
 11
-310.296
 21
117.984
  0
LINE
  8
0
 10
-310.296
 20
117.984
 11
-309.991
 21
117.737
  0
LINE
  8
0
 10
-309.991
 20
117.737
 11
-309.713
 21
117.459
  0
LINE
  8
0
 10
-309.713
 20
117.459
 11
-309.466
 21
117.154
  0
LINE
  8
0
 10
-309.466
 20
117.154
 11
-309.252
 21
116.825
  0
LINE
  8
0
 10
-309.252
 20
116.825
 11
-309.074
 21
116.475
  0
LINE
  8
0
 10
-309.074
 20
116.475
 11
-308.934
 21
116.109
  0
LINE
  8
0
 10
-308.934
 20
116.109
 11
-308.832
 21
115.73
  0
LINE
  8
0
 10
-308.832
 20
115.73
 11
-308.771
 21
115.342
  0
LINE
  8
0
 10
-308.771
 20
115.342
 11
-308.75
 21
114.95
  0
LINE
  8
0
 10
-308.75
 20
114.95
 11
-308.771
 21
114.558
  0
LINE
  8
0
 10
-308.771
 20
114.558
 11
-308.832
 21
114.17
  0
LINE
  8
0
 10
-308.832
 20
114.17
 11
-308.934
 21
113.791
  0
LINE
  8
0
 10
-308.934
 20
113.791
 11
-309.074
 21
113.425
  0
LINE
  8
0
 10
-309.074
 20
113.425
 11
-309.252
 21
113.075
  0
LINE
  8
0
 10
-309.252
 20
113.075
 11
-309.466
 21
112.746
  0
LINE
  8
0
 10
-309.466
 20
112.746
 11
-309.713
 21
112.441
  0
LINE
  8
0
 10
-309.713
 20
112.441
 11
-309.991
 21
112.163
  0
LINE
  8
0
 10
-309.991
 20
112.163
 11
-310.296
 21
111.916
  0
LINE
  8
0
 10
-310.296
 20
111.916
 11
-310.625
 21
111.702
  0
LINE
  8
0
 10
-310.625
 20
111.702
 11
-310.975
 21
111.524
  0
LINE
  8
0
 10
-310.975
 20
111.524
 11
-311.341
 21
111.384
  0
LINE
  8
0
 10
-311.341
 20
111.384
 11
-311.72
 21
111.282
  0
LINE
  8
0
 10
-311.72
 20
111.282
 11
-312.108
 21
111.221
  0
LINE
  8
0
 10
-312.108
 20
111.221
 11
-312.5
 21
111.2
  0
LINE
  8
0
 10
-312.5
 20
111.2
 11
-312.892
 21
111.221
  0
LINE
  8
0
 10
312.108
 20
111.221
 11
311.72
 21
111.282
  0
LINE
  8
0
 10
311.72
 20
111.282
 11
311.341
 21
111.384
  0
LINE
  8
0
 10
311.341
 20
111.384
 11
310.975
 21
111.524
  0
LINE
  8
0
 10
310.975
 20
111.524
 11
310.625
 21
111.702
  0
LINE
  8
0
 10
310.625
 20
111.702
 11
310.296
 21
111.916
  0
LINE
  8
0
 10
310.296
 20
111.916
 11
309.991
 21
112.163
  0
LINE
  8
0
 10
309.991
 20
112.163
 11
309.713
 21
112.441
  0
LINE
  8
0
 10
309.713
 20
112.441
 11
309.466
 21
112.746
  0
LINE
  8
0
 10
309.466
 20
112.746
 11
309.252
 21
113.075
  0
LINE
  8
0
 10
309.252
 20
113.075
 11
309.074
 21
113.425
  0
LINE
  8
0
 10
309.074
 20
113.425
 11
308.934
 21
113.791
  0
LINE
  8
0
 10
308.934
 20
113.791
 11
308.832
 21
114.17
  0
LINE
  8
0
 10
308.832
 20
114.17
 11
308.771
 21
114.558
  0
LINE
  8
0
 10
308.771
 20
114.558
 11
308.75
 21
114.95
  0
LINE
  8
0
 10
308.75
 20
114.95
 11
308.771
 21
115.342
  0
LINE
  8
0
 10
308.771
 20
115.342
 11
308.832
 21
115.73
  0
LINE
  8
0
 10
308.832
 20
115.73
 11
308.934
 21
116.109
  0
LINE
  8
0
 10
308.934
 20
116.109
 11
309.074
 21
116.475
  0
LINE
  8
0
 10
309.074
 20
116.475
 11
309.252
 21
116.825
  0
LINE
  8
0
 10
309.252
 20
116.825
 11
309.466
 21
117.154
  0
LINE
  8
0
 10
309.466
 20
117.154
 11
309.713
 21
117.459
  0
LINE
  8
0
 10
309.713
 20
117.459
 11
309.991
 21
117.737
  0
LINE
  8
0
 10
309.991
 20
117.737
 11
310.296
 21
117.984
  0
LINE
  8
0
 10
310.296
 20
117.984
 11
310.625
 21
118.198
  0
LINE
  8
0
 10
310.625
 20
118.198
 11
310.975
 21
118.376
  0
LINE
  8
0
 10
310.975
 20
118.376
 11
311.341
 21
118.516
  0
LINE
  8
0
 10
311.341
 20
118.516
 11
311.72
 21
118.618
  0
LINE
  8
0
 10
311.72
 20
118.618
 11
312.108
 21
118.679
  0
LINE
  8
0
 10
312.108
 20
118.679
 11
312.5
 21
118.7
  0
LINE
  8
0
 10
312.5
 20
118.7
 11
312.892
 21
118.679
  0
LINE
  8
0
 10
312.892
 20
118.679
 11
313.28
 21
118.618
  0
LINE
  8
0
 10
313.28
 20
118.618
 11
313.659
 21
118.516
  0
LINE
  8
0
 10
313.659
 20
118.516
 11
314.025
 21
118.376
  0
LINE
  8
0
 10
314.025
 20
118.376
 11
314.375
 21
118.198
  0
LINE
  8
0
 10
314.375
 20
118.198
 11
314.704
 21
117.984
  0
LINE
  8
0
 10
314.704
 20
117.984
 11
315.009
 21
117.737
  0
LINE
  8
0
 10
315.009
 20
117.737
 11
315.287
 21
117.459
  0
LINE
  8
0
 10
315.287
 20
117.459
 11
315.534
 21
117.154
  0
LINE
  8
0
 10
315.534
 20
117.154
 11
315.748
 21
116.825
  0
LINE
  8
0
 10
315.748
 20
116.825
 11
315.926
 21
116.475
  0
LINE
  8
0
 10
315.926
 20
116.475
 11
316.066
 21
116.109
  0
LINE
  8
0
 10
316.066
 20
116.109
 11
316.168
 21
115.73
  0
LINE
  8
0
 10
316.168
 20
115.73
 11
316.229
 21
115.342
  0
LINE
  8
0
 10
316.229
 20
115.342
 11
316.25
 21
114.95
  0
LINE
  8
0
 10
316.25
 20
114.95
 11
316.229
 21
114.558
  0
LINE
  8
0
 10
316.229
 20
114.558
 11
316.168
 21
114.17
  0
LINE
  8
0
 10
316.168
 20
114.17
 11
316.066
 21
113.791
  0
LINE
  8
0
 10
316.066
 20
113.791
 11
315.926
 21
113.425
  0
LINE
  8
0
 10
315.926
 20
113.425
 11
315.748
 21
113.075
  0
LINE
  8
0
 10
315.748
 20
113.075
 11
315.534
 21
112.746
  0
LINE
  8
0
 10
315.534
 20
112.746
 11
315.287
 21
112.441
  0
LINE
  8
0
 10
315.287
 20
112.441
 11
315.009
 21
112.163
  0
LINE
  8
0
 10
315.009
 20
112.163
 11
314.704
 21
111.916
  0
LINE
  8
0
 10
314.704
 20
111.916
 11
314.375
 21
111.702
  0
LINE
  8
0
 10
314.375
 20
111.702
 11
314.025
 21
111.524
  0
LINE
  8
0
 10
314.025
 20
111.524
 11
313.659
 21
111.384
  0
LINE
  8
0
 10
313.659
 20
111.384
 11
313.28
 21
111.282
  0
LINE
  8
0
 10
313.28
 20
111.282
 11
312.892
 21
111.221
  0
LINE
  8
0
 10
312.892
 20
111.221
 11
312.5
 21
111.2
  0
LINE
  8
0
 10
312.5
 20
111.2
 11
312.108
 21
111.221
  0
LINE
  8
0
 10
249.877
 20
113.305
 11
249.633
 21
113.341
  0
LINE
  8
0
 10
249.633
 20
113.341
 11
249.397
 21
113.414
  0
LINE
  8
0
 10
249.397
 20
113.414
 11
249.175
 21
113.521
  0
LINE
  8
0
 10
249.175
 20
113.521
 11
248.971
 21
113.66
  0
LINE
  8
0
 10
248.971
 20
113.66
 11
248.79
 21
113.828
  0
LINE
  8
0
 10
248.79
 20
113.828
 11
248.637
 21
114.021
  0
LINE
  8
0
 10
248.637
 20
114.021
 11
248.513
 21
114.234
  0
LINE
  8
0
 10
248.513
 20
114.234
 11
248.423
 21
114.464
  0
LINE
  8
0
 10
248.423
 20
114.464
 11
248.368
 21
114.704
  0
LINE
  8
0
 10
248.368
 20
114.704
 11
248.35
 21
114.95
  0
LINE
  8
0
 10
248.35
 20
114.95
 11
248.368
 21
115.196
  0
LINE
  8
0
 10
248.368
 20
115.196
 11
248.423
 21
115.436
  0
LINE
  8
0
 10
248.423
 20
115.436
 11
248.513
 21
115.666
  0
LINE
  8
0
 10
248.513
 20
115.666
 11
248.637
 21
115.879
  0
LINE
  8
0
 10
248.637
 20
115.879
 11
248.79
 21
116.072
  0
LINE
  8
0
 10
248.79
 20
116.072
 11
248.971
 21
116.24
  0
LINE
  8
0
 10
248.971
 20
116.24
 11
249.175
 21
116.379
  0
LINE
  8
0
 10
249.175
 20
116.379
 11
249.397
 21
116.486
  0
LINE
  8
0
 10
249.397
 20
116.486
 11
249.633
 21
116.559
  0
LINE
  8
0
 10
249.633
 20
116.559
 11
249.877
 21
116.595
  0
LINE
  8
0
 10
249.877
 20
116.595
 11
290.123
 21
116.595
  0
LINE
  8
0
 10
290.123
 20
116.595
 11
290.367
 21
116.559
  0
LINE
  8
0
 10
290.367
 20
116.559
 11
290.603
 21
116.486
  0
LINE
  8
0
 10
290.603
 20
116.486
 11
290.825
 21
116.379
  0
LINE
  8
0
 10
290.825
 20
116.379
 11
291.029
 21
116.24
  0
LINE
  8
0
 10
291.029
 20
116.24
 11
291.21
 21
116.072
  0
LINE
  8
0
 10
291.21
 20
116.072
 11
291.363
 21
115.879
  0
LINE
  8
0
 10
291.363
 20
115.879
 11
291.487
 21
115.666
  0
LINE
  8
0
 10
291.487
 20
115.666
 11
291.577
 21
115.436
  0
LINE
  8
0
 10
291.577
 20
115.436
 11
291.632
 21
115.196
  0
LINE
  8
0
 10
291.632
 20
115.196
 11
291.65
 21
114.95
  0
LINE
  8
0
 10
291.65
 20
114.95
 11
291.632
 21
114.704
  0
LINE
  8
0
 10
291.632
 20
114.704
 11
291.577
 21
114.464
  0
LINE
  8
0
 10
291.577
 20
114.464
 11
291.487
 21
114.234
  0
LINE
  8
0
 10
291.487
 20
114.234
 11
291.363
 21
114.021
  0
LINE
  8
0
 10
291.363
 20
114.021
 11
291.21
 21
113.828
  0
LINE
  8
0
 10
291.21
 20
113.828
 11
291.029
 21
113.66
  0
LINE
  8
0
 10
291.029
 20
113.66
 11
290.825
 21
113.521
  0
LINE
  8
0
 10
290.825
 20
113.521
 11
290.603
 21
113.414
  0
LINE
  8
0
 10
290.603
 20
113.414
 11
290.367
 21
113.341
  0
LINE
  8
0
 10
290.367
 20
113.341
 11
290.123
 21
113.305
  0
LINE
  8
0
 10
290.123
 20
113.305
 11
249.877
 21
113.305
  0
LINE
  8
0
 10
-200.123
 20
113.305
 11
-200.367
 21
113.341
  0
LINE
  8
0
 10
-200.367
 20
113.341
 11
-200.603
 21
113.414
  0
LINE
  8
0
 10
-200.603
 20
113.414
 11
-200.825
 21
113.521
  0
LINE
  8
0
 10
-200.825
 20
113.521
 11
-201.029
 21
113.66
  0
LINE
  8
0
 10
-201.029
 20
113.66
 11
-201.21
 21
113.828
  0
LINE
  8
0
 10
-201.21
 20
113.828
 11
-201.363
 21
114.021
  0
LINE
  8
0
 10
-201.363
 20
114.021
 11
-201.487
 21
114.234
  0
LINE
  8
0
 10
-201.487
 20
114.234
 11
-201.577
 21
114.464
  0
LINE
  8
0
 10
-201.577
 20
114.464
 11
-201.632
 21
114.704
  0
LINE
  8
0
 10
-201.632
 20
114.704
 11
-201.65
 21
114.95
  0
LINE
  8
0
 10
-201.65
 20
114.95
 11
-201.632
 21
115.196
  0
LINE
  8
0
 10
-201.632
 20
115.196
 11
-201.577
 21
115.436
  0
LINE
  8
0
 10
-201.577
 20
115.436
 11
-201.487
 21
115.666
  0
LINE
  8
0
 10
-201.487
 20
115.666
 11
-201.363
 21
115.879
  0
LINE
  8
0
 10
-201.363
 20
115.879
 11
-201.21
 21
116.072
  0
LINE
  8
0
 10
-201.21
 20
116.072
 11
-201.029
 21
116.24
  0
LINE
  8
0
 10
-201.029
 20
116.24
 11
-200.825
 21
116.379
  0
LINE
  8
0
 10
-200.825
 20
116.379
 11
-200.603
 21
116.486
  0
LINE
  8
0
 10
-200.603
 20
116.486
 11
-200.367
 21
116.559
  0
LINE
  8
0
 10
-200.367
 20
116.559
 11
-200.123
 21
116.595
  0
LINE
  8
0
 10
-200.123
 20
116.595
 11
-159.877
 21
116.595
  0
LINE
  8
0
 10
-159.877
 20
116.595
 11
-159.633
 21
116.559
  0
LINE
  8
0
 10
-159.633
 20
116.559
 11
-159.397
 21
116.486
  0
LINE
  8
0
 10
-159.397
 20
116.486
 11
-159.175
 21
116.379
  0
LINE
  8
0
 10
-159.175
 20
116.379
 11
-158.971
 21
116.24
  0
LINE
  8
0
 10
-158.971
 20
116.24
 11
-158.79
 21
116.072
  0
LINE
  8
0
 10
-158.79
 20
116.072
 11
-158.637
 21
115.879
  0
LINE
  8
0
 10
-158.637
 20
115.879
 11
-158.513
 21
115.666
  0
LINE
  8
0
 10
-158.513
 20
115.666
 11
-158.423
 21
115.436
  0
LINE
  8
0
 10
-158.423
 20
115.436
 11
-158.368
 21
115.196
  0
LINE
  8
0
 10
-158.368
 20
115.196
 11
-158.35
 21
114.95
  0
LINE
  8
0
 10
-158.35
 20
114.95
 11
-158.368
 21
114.704
  0
LINE
  8
0
 10
-158.368
 20
114.704
 11
-158.423
 21
114.464
  0
LINE
  8
0
 10
-158.423
 20
114.464
 11
-158.513
 21
114.234
  0
LINE
  8
0
 10
-158.513
 20
114.234
 11
-158.637
 21
114.021
  0
LINE
  8
0
 10
-158.637
 20
114.021
 11
-158.79
 21
113.828
  0
LINE
  8
0
 10
-158.79
 20
113.828
 11
-158.971
 21
113.66
  0
LINE
  8
0
 10
-158.971
 20
113.66
 11
-159.175
 21
113.521
  0
LINE
  8
0
 10
-159.175
 20
113.521
 11
-159.397
 21
113.414
  0
LINE
  8
0
 10
-159.397
 20
113.414
 11
-159.633
 21
113.341
  0
LINE
  8
0
 10
-159.633
 20
113.341
 11
-159.877
 21
113.305
  0
LINE
  8
0
 10
-159.877
 20
113.305
 11
-200.123
 21
113.305
  0
LINE
  8
0
 10
-110.123
 20
113.305
 11
-110.367
 21
113.341
  0
LINE
  8
0
 10
-110.367
 20
113.341
 11
-110.603
 21
113.414
  0
LINE
  8
0
 10
-110.603
 20
113.414
 11
-110.825
 21
113.521
  0
LINE
  8
0
 10
-110.825
 20
113.521
 11
-111.029
 21
113.66
  0
LINE
  8
0
 10
-111.029
 20
113.66
 11
-111.21
 21
113.828
  0
LINE
  8
0
 10
-111.21
 20
113.828
 11
-111.363
 21
114.021
  0
LINE
  8
0
 10
-111.363
 20
114.021
 11
-111.487
 21
114.234
  0
LINE
  8
0
 10
-111.487
 20
114.234
 11
-111.577
 21
114.464
  0
LINE
  8
0
 10
-111.577
 20
114.464
 11
-111.632
 21
114.704
  0
LINE
  8
0
 10
-111.632
 20
114.704
 11
-111.65
 21
114.95
  0
LINE
  8
0
 10
-111.65
 20
114.95
 11
-111.632
 21
115.196
  0
LINE
  8
0
 10
-111.632
 20
115.196
 11
-111.577
 21
115.436
  0
LINE
  8
0
 10
-111.577
 20
115.436
 11
-111.487
 21
115.666
  0
LINE
  8
0
 10
-111.487
 20
115.666
 11
-111.363
 21
115.879
  0
LINE
  8
0
 10
-111.363
 20
115.879
 11
-111.21
 21
116.072
  0
LINE
  8
0
 10
-111.21
 20
116.072
 11
-111.029
 21
116.24
  0
LINE
  8
0
 10
-111.029
 20
116.24
 11
-110.825
 21
116.379
  0
LINE
  8
0
 10
-110.825
 20
116.379
 11
-110.603
 21
116.486
  0
LINE
  8
0
 10
-110.603
 20
116.486
 11
-110.367
 21
116.559
  0
LINE
  8
0
 10
-110.367
 20
116.559
 11
-110.123
 21
116.595
  0
LINE
  8
0
 10
-110.123
 20
116.595
 11
-69.8767
 21
116.595
  0
LINE
  8
0
 10
-69.8767
 20
116.595
 11
-69.6328
 21
116.559
  0
LINE
  8
0
 10
-69.6328
 20
116.559
 11
-69.3972
 21
116.486
  0
LINE
  8
0
 10
-69.3972
 20
116.486
 11
-69.175
 21
116.379
  0
LINE
  8
0
 10
-69.175
 20
116.379
 11
-68.9712
 21
116.24
  0
LINE
  8
0
 10
-68.9712
 20
116.24
 11
-68.7905
 21
116.072
  0
LINE
  8
0
 10
-68.7905
 20
116.072
 11
-68.6367
 21
115.879
  0
LINE
  8
0
 10
-68.6367
 20
115.879
 11
-68.5134
 21
115.666
  0
LINE
  8
0
 10
-68.5134
 20
115.666
 11
-68.4233
 21
115.436
  0
LINE
  8
0
 10
-68.4233
 20
115.436
 11
-68.3684
 21
115.196
  0
LINE
  8
0
 10
-68.3684
 20
115.196
 11
-68.35
 21
114.95
  0
LINE
  8
0
 10
-68.35
 20
114.95
 11
-68.3684
 21
114.704
  0
LINE
  8
0
 10
-68.3684
 20
114.704
 11
-68.4233
 21
114.464
  0
LINE
  8
0
 10
-68.4233
 20
114.464
 11
-68.5134
 21
114.234
  0
LINE
  8
0
 10
-68.5134
 20
114.234
 11
-68.6367
 21
114.021
  0
LINE
  8
0
 10
-68.6367
 20
114.021
 11
-68.7905
 21
113.828
  0
LINE
  8
0
 10
-68.7905
 20
113.828
 11
-68.9712
 21
113.66
  0
LINE
  8
0
 10
-68.9712
 20
113.66
 11
-69.175
 21
113.521
  0
LINE
  8
0
 10
-69.175
 20
113.521
 11
-69.3972
 21
113.414
  0
LINE
  8
0
 10
-69.3972
 20
113.414
 11
-69.6328
 21
113.341
  0
LINE
  8
0
 10
-69.6328
 20
113.341
 11
-69.8767
 21
113.305
  0
LINE
  8
0
 10
-69.8767
 20
113.305
 11
-110.123
 21
113.305
  0
LINE
  8
0
 10
-290.123
 20
113.305
 11
-290.367
 21
113.341
  0
LINE
  8
0
 10
-290.367
 20
113.341
 11
-290.603
 21
113.414
  0
LINE
  8
0
 10
-290.603
 20
113.414
 11
-290.825
 21
113.521
  0
LINE
  8
0
 10
-290.825
 20
113.521
 11
-291.029
 21
113.66
  0
LINE
  8
0
 10
-291.029
 20
113.66
 11
-291.21
 21
113.828
  0
LINE
  8
0
 10
-291.21
 20
113.828
 11
-291.363
 21
114.021
  0
LINE
  8
0
 10
-291.363
 20
114.021
 11
-291.487
 21
114.234
  0
LINE
  8
0
 10
-291.487
 20
114.234
 11
-291.577
 21
114.464
  0
LINE
  8
0
 10
-291.577
 20
114.464
 11
-291.632
 21
114.704
  0
LINE
  8
0
 10
-291.632
 20
114.704
 11
-291.65
 21
114.95
  0
LINE
  8
0
 10
-291.65
 20
114.95
 11
-291.632
 21
115.196
  0
LINE
  8
0
 10
-291.632
 20
115.196
 11
-291.577
 21
115.436
  0
LINE
  8
0
 10
-291.577
 20
115.436
 11
-291.487
 21
115.666
  0
LINE
  8
0
 10
-291.487
 20
115.666
 11
-291.363
 21
115.879
  0
LINE
  8
0
 10
-291.363
 20
115.879
 11
-291.21
 21
116.072
  0
LINE
  8
0
 10
-291.21
 20
116.072
 11
-291.029
 21
116.24
  0
LINE
  8
0
 10
-291.029
 20
116.24
 11
-290.825
 21
116.379
  0
LINE
  8
0
 10
-290.825
 20
116.379
 11
-290.603
 21
116.486
  0
LINE
  8
0
 10
-290.603
 20
116.486
 11
-290.367
 21
116.559
  0
LINE
  8
0
 10
-290.367
 20
116.559
 11
-290.123
 21
116.595
  0
LINE
  8
0
 10
-290.123
 20
116.595
 11
-249.877
 21
116.595
  0
LINE
  8
0
 10
-249.877
 20
116.595
 11
-249.633
 21
116.559
  0
LINE
  8
0
 10
-249.633
 20
116.559
 11
-249.397
 21
116.486
  0
LINE
  8
0
 10
-249.397
 20
116.486
 11
-249.175
 21
116.379
  0
LINE
  8
0
 10
-249.175
 20
116.379
 11
-248.971
 21
116.24
  0
LINE
  8
0
 10
-248.971
 20
116.24
 11
-248.79
 21
116.072
  0
LINE
  8
0
 10
-248.79
 20
116.072
 11
-248.637
 21
115.879
  0
LINE
  8
0
 10
-248.637
 20
115.879
 11
-248.513
 21
115.666
  0
LINE
  8
0
 10
-248.513
 20
115.666
 11
-248.423
 21
115.436
  0
LINE
  8
0
 10
-248.423
 20
115.436
 11
-248.368
 21
115.196
  0
LINE
  8
0
 10
-248.368
 20
115.196
 11
-248.35
 21
114.95
  0
LINE
  8
0
 10
-248.35
 20
114.95
 11
-248.368
 21
114.704
  0
LINE
  8
0
 10
-248.368
 20
114.704
 11
-248.423
 21
114.464
  0
LINE
  8
0
 10
-248.423
 20
114.464
 11
-248.513
 21
114.234
  0
LINE
  8
0
 10
-248.513
 20
114.234
 11
-248.637
 21
114.021
  0
LINE
  8
0
 10
-248.637
 20
114.021
 11
-248.79
 21
113.828
  0
LINE
  8
0
 10
-248.79
 20
113.828
 11
-248.971
 21
113.66
  0
LINE
  8
0
 10
-248.971
 20
113.66
 11
-249.175
 21
113.521
  0
LINE
  8
0
 10
-249.175
 20
113.521
 11
-249.397
 21
113.414
  0
LINE
  8
0
 10
-249.397
 20
113.414
 11
-249.633
 21
113.341
  0
LINE
  8
0
 10
-249.633
 20
113.341
 11
-249.877
 21
113.305
  0
LINE
  8
0
 10
-249.877
 20
113.305
 11
-290.123
 21
113.305
  0
LINE
  8
0
 10
159.877
 20
113.305
 11
159.633
 21
113.341
  0
LINE
  8
0
 10
159.633
 20
113.341
 11
159.397
 21
113.414
  0
LINE
  8
0
 10
159.397
 20
113.414
 11
159.175
 21
113.521
  0
LINE
  8
0
 10
159.175
 20
113.521
 11
158.971
 21
113.66
  0
LINE
  8
0
 10
158.971
 20
113.66
 11
158.79
 21
113.828
  0
LINE
  8
0
 10
158.79
 20
113.828
 11
158.637
 21
114.021
  0
LINE
  8
0
 10
158.637
 20
114.021
 11
158.513
 21
114.234
  0
LINE
  8
0
 10
158.513
 20
114.234
 11
158.423
 21
114.464
  0
LINE
  8
0
 10
158.423
 20
114.464
 11
158.368
 21
114.704
  0
LINE
  8
0
 10
158.368
 20
114.704
 11
158.35
 21
114.95
  0
LINE
  8
0
 10
158.35
 20
114.95
 11
158.368
 21
115.196
  0
LINE
  8
0
 10
158.368
 20
115.196
 11
158.423
 21
115.436
  0
LINE
  8
0
 10
158.423
 20
115.436
 11
158.513
 21
115.666
  0
LINE
  8
0
 10
158.513
 20
115.666
 11
158.637
 21
115.879
  0
LINE
  8
0
 10
158.637
 20
115.879
 11
158.79
 21
116.072
  0
LINE
  8
0
 10
158.79
 20
116.072
 11
158.971
 21
116.24
  0
LINE
  8
0
 10
158.971
 20
116.24
 11
159.175
 21
116.379
  0
LINE
  8
0
 10
159.175
 20
116.379
 11
159.397
 21
116.486
  0
LINE
  8
0
 10
159.397
 20
116.486
 11
159.633
 21
116.559
  0
LINE
  8
0
 10
159.633
 20
116.559
 11
159.877
 21
116.595
  0
LINE
  8
0
 10
159.877
 20
116.595
 11
200.123
 21
116.595
  0
LINE
  8
0
 10
200.123
 20
116.595
 11
200.367
 21
116.559
  0
LINE
  8
0
 10
200.367
 20
116.559
 11
200.603
 21
116.486
  0
LINE
  8
0
 10
200.603
 20
116.486
 11
200.825
 21
116.379
  0
LINE
  8
0
 10
200.825
 20
116.379
 11
201.029
 21
116.24
  0
LINE
  8
0
 10
201.029
 20
116.24
 11
201.21
 21
116.072
  0
LINE
  8
0
 10
201.21
 20
116.072
 11
201.363
 21
115.879
  0
LINE
  8
0
 10
201.363
 20
115.879
 11
201.487
 21
115.666
  0
LINE
  8
0
 10
201.487
 20
115.666
 11
201.577
 21
115.436
  0
LINE
  8
0
 10
201.577
 20
115.436
 11
201.632
 21
115.196
  0
LINE
  8
0
 10
201.632
 20
115.196
 11
201.65
 21
114.95
  0
LINE
  8
0
 10
201.65
 20
114.95
 11
201.632
 21
114.704
  0
LINE
  8
0
 10
201.632
 20
114.704
 11
201.577
 21
114.464
  0
LINE
  8
0
 10
201.577
 20
114.464
 11
201.487
 21
114.234
  0
LINE
  8
0
 10
201.487
 20
114.234
 11
201.363
 21
114.021
  0
LINE
  8
0
 10
201.363
 20
114.021
 11
201.21
 21
113.828
  0
LINE
  8
0
 10
201.21
 20
113.828
 11
201.029
 21
113.66
  0
LINE
  8
0
 10
201.029
 20
113.66
 11
200.825
 21
113.521
  0
LINE
  8
0
 10
200.825
 20
113.521
 11
200.603
 21
113.414
  0
LINE
  8
0
 10
200.603
 20
113.414
 11
200.367
 21
113.341
  0
LINE
  8
0
 10
200.367
 20
113.341
 11
200.123
 21
113.305
  0
LINE
  8
0
 10
200.123
 20
113.305
 11
159.877
 21
113.305
  0
LINE
  8
0
 10
69.8767
 20
113.305
 11
69.6328
 21
113.341
  0
LINE
  8
0
 10
69.6328
 20
113.341
 11
69.3972
 21
113.414
  0
LINE
  8
0
 10
69.3972
 20
113.414
 11
69.175
 21
113.521
  0
LINE
  8
0
 10
69.175
 20
113.521
 11
68.9712
 21
113.66
  0
LINE
  8
0
 10
68.9712
 20
113.66
 11
68.7905
 21
113.828
  0
LINE
  8
0
 10
68.7905
 20
113.828
 11
68.6367
 21
114.021
  0
LINE
  8
0
 10
68.6367
 20
114.021
 11
68.5134
 21
114.234
  0
LINE
  8
0
 10
68.5134
 20
114.234
 11
68.4233
 21
114.464
  0
LINE
  8
0
 10
68.4233
 20
114.464
 11
68.3684
 21
114.704
  0
LINE
  8
0
 10
68.3684
 20
114.704
 11
68.35
 21
114.95
  0
LINE
  8
0
 10
68.35
 20
114.95
 11
68.3684
 21
115.196
  0
LINE
  8
0
 10
68.3684
 20
115.196
 11
68.4233
 21
115.436
  0
LINE
  8
0
 10
68.4233
 20
115.436
 11
68.5134
 21
115.666
  0
LINE
  8
0
 10
68.5134
 20
115.666
 11
68.6367
 21
115.879
  0
LINE
  8
0
 10
68.6367
 20
115.879
 11
68.7905
 21
116.072
  0
LINE
  8
0
 10
68.7905
 20
116.072
 11
68.9712
 21
116.24
  0
LINE
  8
0
 10
68.9712
 20
116.24
 11
69.175
 21
116.379
  0
LINE
  8
0
 10
69.175
 20
116.379
 11
69.3972
 21
116.486
  0
LINE
  8
0
 10
69.3972
 20
116.486
 11
69.6328
 21
116.559
  0
LINE
  8
0
 10
69.6328
 20
116.559
 11
69.8767
 21
116.595
  0
LINE
  8
0
 10
69.8767
 20
116.595
 11
110.123
 21
116.595
  0
LINE
  8
0
 10
110.123
 20
116.595
 11
110.367
 21
116.559
  0
LINE
  8
0
 10
110.367
 20
116.559
 11
110.603
 21
116.486
  0
LINE
  8
0
 10
110.603
 20
116.486
 11
110.825
 21
116.379
  0
LINE
  8
0
 10
110.825
 20
116.379
 11
111.029
 21
116.24
  0
LINE
  8
0
 10
111.029
 20
116.24
 11
111.21
 21
116.072
  0
LINE
  8
0
 10
111.21
 20
116.072
 11
111.363
 21
115.879
  0
LINE
  8
0
 10
111.363
 20
115.879
 11
111.487
 21
115.666
  0
LINE
  8
0
 10
111.487
 20
115.666
 11
111.577
 21
115.436
  0
LINE
  8
0
 10
111.577
 20
115.436
 11
111.632
 21
115.196
  0
LINE
  8
0
 10
111.632
 20
115.196
 11
111.65
 21
114.95
  0
LINE
  8
0
 10
111.65
 20
114.95
 11
111.632
 21
114.704
  0
LINE
  8
0
 10
111.632
 20
114.704
 11
111.577
 21
114.464
  0
LINE
  8
0
 10
111.577
 20
114.464
 11
111.487
 21
114.234
  0
LINE
  8
0
 10
111.487
 20
114.234
 11
111.363
 21
114.021
  0
LINE
  8
0
 10
111.363
 20
114.021
 11
111.21
 21
113.828
  0
LINE
  8
0
 10
111.21
 20
113.828
 11
111.029
 21
113.66
  0
LINE
  8
0
 10
111.029
 20
113.66
 11
110.825
 21
113.521
  0
LINE
  8
0
 10
110.825
 20
113.521
 11
110.603
 21
113.414
  0
LINE
  8
0
 10
110.603
 20
113.414
 11
110.367
 21
113.341
  0
LINE
  8
0
 10
110.367
 20
113.341
 11
110.123
 21
113.305
  0
LINE
  8
0
 10
110.123
 20
113.305
 11
69.8767
 21
113.305
  0
LINE
  8
0
 10
-20.1233
 20
113.305
 11
-20.3672
 21
113.341
  0
LINE
  8
0
 10
-20.3672
 20
113.341
 11
-20.6028
 21
113.414
  0
LINE
  8
0
 10
-20.6028
 20
113.414
 11
-20.825
 21
113.521
  0
LINE
  8
0
 10
-20.825
 20
113.521
 11
-21.0287
 21
113.66
  0
LINE
  8
0
 10
-21.0287
 20
113.66
 11
-21.2095
 21
113.828
  0
LINE
  8
0
 10
-21.2095
 20
113.828
 11
-21.3633
 21
114.021
  0
LINE
  8
0
 10
-21.3633
 20
114.021
 11
-21.4866
 21
114.234
  0
LINE
  8
0
 10
-21.4866
 20
114.234
 11
-21.5767
 21
114.464
  0
LINE
  8
0
 10
-21.5767
 20
114.464
 11
-21.6316
 21
114.704
  0
LINE
  8
0
 10
-21.6316
 20
114.704
 11
-21.65
 21
114.95
  0
LINE
  8
0
 10
-21.65
 20
114.95
 11
-21.6316
 21
115.196
  0
LINE
  8
0
 10
-21.6316
 20
115.196
 11
-21.5767
 21
115.436
  0
LINE
  8
0
 10
-21.5767
 20
115.436
 11
-21.4866
 21
115.666
  0
LINE
  8
0
 10
-21.4866
 20
115.666
 11
-21.3633
 21
115.879
  0
LINE
  8
0
 10
-21.3633
 20
115.879
 11
-21.2095
 21
116.072
  0
LINE
  8
0
 10
-21.2095
 20
116.072
 11
-21.0287
 21
116.24
  0
LINE
  8
0
 10
-21.0287
 20
116.24
 11
-20.825
 21
116.379
  0
LINE
  8
0
 10
-20.825
 20
116.379
 11
-20.6028
 21
116.486
  0
LINE
  8
0
 10
-20.6028
 20
116.486
 11
-20.3672
 21
116.559
  0
LINE
  8
0
 10
-20.3672
 20
116.559
 11
-20.1233
 21
116.595
  0
LINE
  8
0
 10
-20.1233
 20
116.595
 11
20.1233
 21
116.595
  0
LINE
  8
0
 10
20.1233
 20
116.595
 11
20.3672
 21
116.559
  0
LINE
  8
0
 10
20.3672
 20
116.559
 11
20.6028
 21
116.486
  0
LINE
  8
0
 10
20.6028
 20
116.486
 11
20.825
 21
116.379
  0
LINE
  8
0
 10
20.825
 20
116.379
 11
21.0287
 21
116.24
  0
LINE
  8
0
 10
21.0287
 20
116.24
 11
21.2095
 21
116.072
  0
LINE
  8
0
 10
21.2095
 20
116.072
 11
21.3633
 21
115.879
  0
LINE
  8
0
 10
21.3633
 20
115.879
 11
21.4866
 21
115.666
  0
LINE
  8
0
 10
21.4866
 20
115.666
 11
21.5767
 21
115.436
  0
LINE
  8
0
 10
21.5767
 20
115.436
 11
21.6316
 21
115.196
  0
LINE
  8
0
 10
21.6316
 20
115.196
 11
21.65
 21
114.95
  0
LINE
  8
0
 10
21.65
 20
114.95
 11
21.6316
 21
114.704
  0
LINE
  8
0
 10
21.6316
 20
114.704
 11
21.5767
 21
114.464
  0
LINE
  8
0
 10
21.5767
 20
114.464
 11
21.4866
 21
114.234
  0
LINE
  8
0
 10
21.4866
 20
114.234
 11
21.3633
 21
114.021
  0
LINE
  8
0
 10
21.3633
 20
114.021
 11
21.2095
 21
113.828
  0
LINE
  8
0
 10
21.2095
 20
113.828
 11
21.0287
 21
113.66
  0
LINE
  8
0
 10
21.0287
 20
113.66
 11
20.825
 21
113.521
  0
LINE
  8
0
 10
20.825
 20
113.521
 11
20.6028
 21
113.414
  0
LINE
  8
0
 10
20.6028
 20
113.414
 11
20.3672
 21
113.341
  0
LINE
  8
0
 10
20.3672
 20
113.341
 11
20.1233
 21
113.305
  0
LINE
  8
0
 10
20.1233
 20
113.305
 11
-20.1233
 21
113.305
  0
LINE
  8
0
 10
312.254
 20
50.8184
 11
312.014
 21
50.8733
  0
LINE
  8
0
 10
312.014
 20
50.8733
 11
311.784
 21
50.9634
  0
LINE
  8
0
 10
311.784
 20
50.9634
 11
311.571
 21
51.0867
  0
LINE
  8
0
 10
311.571
 20
51.0867
 11
311.378
 21
51.2405
  0
LINE
  8
0
 10
311.378
 20
51.2405
 11
311.21
 21
51.4212
  0
LINE
  8
0
 10
311.21
 20
51.4212
 11
311.071
 21
51.625
  0
LINE
  8
0
 10
311.071
 20
51.625
 11
310.964
 21
51.8472
  0
LINE
  8
0
 10
310.964
 20
51.8472
 11
310.891
 21
52.0828
  0
LINE
  8
0
 10
310.891
 20
52.0828
 11
310.855
 21
52.3267
  0
LINE
  8
0
 10
310.855
 20
52.3267
 11
310.855
 21
92.5733
  0
LINE
  8
0
 10
310.855
 20
92.5733
 11
310.891
 21
92.8172
  0
LINE
  8
0
 10
310.891
 20
92.8172
 11
310.964
 21
93.0528
  0
LINE
  8
0
 10
310.964
 20
93.0528
 11
311.071
 21
93.275
  0
LINE
  8
0
 10
311.071
 20
93.275
 11
311.21
 21
93.4788
  0
LINE
  8
0
 10
311.21
 20
93.4788
 11
311.378
 21
93.6595
  0
LINE
  8
0
 10
311.378
 20
93.6595
 11
311.571
 21
93.8133
  0
LINE
  8
0
 10
311.571
 20
93.8133
 11
311.784
 21
93.9366
  0
LINE
  8
0
 10
311.784
 20
93.9366
 11
312.014
 21
94.0267
  0
LINE
  8
0
 10
312.014
 20
94.0267
 11
312.254
 21
94.0816
  0
LINE
  8
0
 10
312.254
 20
94.0816
 11
312.5
 21
94.1
  0
LINE
  8
0
 10
312.5
 20
94.1
 11
312.746
 21
94.0816
  0
LINE
  8
0
 10
312.746
 20
94.0816
 11
312.986
 21
94.0267
  0
LINE
  8
0
 10
312.986
 20
94.0267
 11
313.216
 21
93.9366
  0
LINE
  8
0
 10
313.216
 20
93.9366
 11
313.429
 21
93.8133
  0
LINE
  8
0
 10
313.429
 20
93.8133
 11
313.622
 21
93.6595
  0
LINE
  8
0
 10
313.622
 20
93.6595
 11
313.79
 21
93.4788
  0
LINE
  8
0
 10
313.79
 20
93.4788
 11
313.929
 21
93.275
  0
LINE
  8
0
 10
313.929
 20
93.275
 11
314.036
 21
93.0528
  0
LINE
  8
0
 10
314.036
 20
93.0528
 11
314.109
 21
92.8172
  0
LINE
  8
0
 10
314.109
 20
92.8172
 11
314.145
 21
92.5733
  0
LINE
  8
0
 10
314.145
 20
92.5733
 11
314.145
 21
52.3267
  0
LINE
  8
0
 10
314.145
 20
52.3267
 11
314.109
 21
52.0828
  0
LINE
  8
0
 10
314.109
 20
52.0828
 11
314.036
 21
51.8472
  0
LINE
  8
0
 10
314.036
 20
51.8472
 11
313.929
 21
51.625
  0
LINE
  8
0
 10
313.929
 20
51.625
 11
313.79
 21
51.4212
  0
LINE
  8
0
 10
313.79
 20
51.4212
 11
313.622
 21
51.2405
  0
LINE
  8
0
 10
313.622
 20
51.2405
 11
313.429
 21
51.0867
  0
LINE
  8
0
 10
313.429
 20
51.0867
 11
313.216
 21
50.9634
  0
LINE
  8
0
 10
313.216
 20
50.9634
 11
312.986
 21
50.8733
  0
LINE
  8
0
 10
312.986
 20
50.8733
 11
312.746
 21
50.8184
  0
LINE
  8
0
 10
312.746
 20
50.8184
 11
312.5
 21
50.8
  0
LINE
  8
0
 10
312.5
 20
50.8
 11
312.254
 21
50.8184
  0
LINE
  8
0
 10
-312.746
 20
50.8184
 11
-312.986
 21
50.8733
  0
LINE
  8
0
 10
-312.986
 20
50.8733
 11
-313.216
 21
50.9634
  0
LINE
  8
0
 10
-313.216
 20
50.9634
 11
-313.429
 21
51.0867
  0
LINE
  8
0
 10
-313.429
 20
51.0867
 11
-313.622
 21
51.2405
  0
LINE
  8
0
 10
-313.622
 20
51.2405
 11
-313.79
 21
51.4212
  0
LINE
  8
0
 10
-313.79
 20
51.4212
 11
-313.929
 21
51.625
  0
LINE
  8
0
 10
-313.929
 20
51.625
 11
-314.036
 21
51.8472
  0
LINE
  8
0
 10
-314.036
 20
51.8472
 11
-314.109
 21
52.0828
  0
LINE
  8
0
 10
-314.109
 20
52.0828
 11
-314.145
 21
52.3267
  0
LINE
  8
0
 10
-314.145
 20
52.3267
 11
-314.145
 21
92.5733
  0
LINE
  8
0
 10
-314.145
 20
92.5733
 11
-314.109
 21
92.8172
  0
LINE
  8
0
 10
-314.109
 20
92.8172
 11
-314.036
 21
93.0528
  0
LINE
  8
0
 10
-314.036
 20
93.0528
 11
-313.929
 21
93.275
  0
LINE
  8
0
 10
-313.929
 20
93.275
 11
-313.79
 21
93.4788
  0
LINE
  8
0
 10
-313.79
 20
93.4788
 11
-313.622
 21
93.6595
  0
LINE
  8
0
 10
-313.622
 20
93.6595
 11
-313.429
 21
93.8133
  0
LINE
  8
0
 10
-313.429
 20
93.8133
 11
-313.216
 21
93.9366
  0
LINE
  8
0
 10
-313.216
 20
93.9366
 11
-312.986
 21
94.0267
  0
LINE
  8
0
 10
-312.986
 20
94.0267
 11
-312.746
 21
94.0816
  0
LINE
  8
0
 10
-312.746
 20
94.0816
 11
-312.5
 21
94.1
  0
LINE
  8
0
 10
-312.5
 20
94.1
 11
-312.254
 21
94.0816
  0
LINE
  8
0
 10
-312.254
 20
94.0816
 11
-312.014
 21
94.0267
  0
LINE
  8
0
 10
-312.014
 20
94.0267
 11
-311.784
 21
93.9366
  0
LINE
  8
0
 10
-311.784
 20
93.9366
 11
-311.571
 21
93.8133
  0
LINE
  8
0
 10
-311.571
 20
93.8133
 11
-311.378
 21
93.6595
  0
LINE
  8
0
 10
-311.378
 20
93.6595
 11
-311.21
 21
93.4788
  0
LINE
  8
0
 10
-311.21
 20
93.4788
 11
-311.071
 21
93.275
  0
LINE
  8
0
 10
-311.071
 20
93.275
 11
-310.964
 21
93.0528
  0
LINE
  8
0
 10
-310.964
 20
93.0528
 11
-310.891
 21
92.8172
  0
LINE
  8
0
 10
-310.891
 20
92.8172
 11
-310.855
 21
92.5733
  0
LINE
  8
0
 10
-310.855
 20
92.5733
 11
-310.855
 21
52.3267
  0
LINE
  8
0
 10
-310.855
 20
52.3267
 11
-310.891
 21
52.0828
  0
LINE
  8
0
 10
-310.891
 20
52.0828
 11
-310.964
 21
51.8472
  0
LINE
  8
0
 10
-310.964
 20
51.8472
 11
-311.071
 21
51.625
  0
LINE
  8
0
 10
-311.071
 20
51.625
 11
-311.21
 21
51.4212
  0
LINE
  8
0
 10
-311.21
 20
51.4212
 11
-311.378
 21
51.2405
  0
LINE
  8
0
 10
-311.378
 20
51.2405
 11
-311.571
 21
51.0867
  0
LINE
  8
0
 10
-311.571
 20
51.0867
 11
-311.784
 21
50.9634
  0
LINE
  8
0
 10
-311.784
 20
50.9634
 11
-312.014
 21
50.8733
  0
LINE
  8
0
 10
-312.014
 20
50.8733
 11
-312.254
 21
50.8184
  0
LINE
  8
0
 10
-312.254
 20
50.8184
 11
-312.5
 21
50.8
  0
LINE
  8
0
 10
-312.5
 20
50.8
 11
-312.746
 21
50.8184
  0
LINE
  8
0
 10
-312.746
 20
-21.6316
 11
-312.986
 21
-21.5767
  0
LINE
  8
0
 10
-312.986
 20
-21.5767
 11
-313.216
 21
-21.4866
  0
LINE
  8
0
 10
-313.216
 20
-21.4866
 11
-313.429
 21
-21.3633
  0
LINE
  8
0
 10
-313.429
 20
-21.3633
 11
-313.622
 21
-21.2095
  0
LINE
  8
0
 10
-313.622
 20
-21.2095
 11
-313.79
 21
-21.0287
  0
LINE
  8
0
 10
-313.79
 20
-21.0287
 11
-313.929
 21
-20.825
  0
LINE
  8
0
 10
-313.929
 20
-20.825
 11
-314.036
 21
-20.6028
  0
LINE
  8
0
 10
-314.036
 20
-20.6028
 11
-314.109
 21
-20.3672
  0
LINE
  8
0
 10
-314.109
 20
-20.3672
 11
-314.145
 21
-20.1233
  0
LINE
  8
0
 10
-314.145
 20
-20.1233
 11
-314.145
 21
20.1233
  0
LINE
  8
0
 10
-314.145
 20
20.1233
 11
-314.109
 21
20.3672
  0
LINE
  8
0
 10
-314.109
 20
20.3672
 11
-314.036
 21
20.6028
  0
LINE
  8
0
 10
-314.036
 20
20.6028
 11
-313.929
 21
20.825
  0
LINE
  8
0
 10
-313.929
 20
20.825
 11
-313.79
 21
21.0287
  0
LINE
  8
0
 10
-313.79
 20
21.0287
 11
-313.622
 21
21.2095
  0
LINE
  8
0
 10
-313.622
 20
21.2095
 11
-313.429
 21
21.3633
  0
LINE
  8
0
 10
-313.429
 20
21.3633
 11
-313.216
 21
21.4866
  0
LINE
  8
0
 10
-313.216
 20
21.4866
 11
-312.986
 21
21.5767
  0
LINE
  8
0
 10
-312.986
 20
21.5767
 11
-312.746
 21
21.6316
  0
LINE
  8
0
 10
-312.746
 20
21.6316
 11
-312.5
 21
21.65
  0
LINE
  8
0
 10
-312.5
 20
21.65
 11
-312.254
 21
21.6316
  0
LINE
  8
0
 10
-312.254
 20
21.6316
 11
-312.014
 21
21.5767
  0
LINE
  8
0
 10
-312.014
 20
21.5767
 11
-311.784
 21
21.4866
  0
LINE
  8
0
 10
-311.784
 20
21.4866
 11
-311.571
 21
21.3633
  0
LINE
  8
0
 10
-311.571
 20
21.3633
 11
-311.378
 21
21.2095
  0
LINE
  8
0
 10
-311.378
 20
21.2095
 11
-311.21
 21
21.0287
  0
LINE
  8
0
 10
-311.21
 20
21.0287
 11
-311.071
 21
20.825
  0
LINE
  8
0
 10
-311.071
 20
20.825
 11
-310.964
 21
20.6028
  0
LINE
  8
0
 10
-310.964
 20
20.6028
 11
-310.891
 21
20.3672
  0
LINE
  8
0
 10
-310.891
 20
20.3672
 11
-310.855
 21
20.1233
  0
LINE
  8
0
 10
-310.855
 20
20.1233
 11
-310.855
 21
-20.1233
  0
LINE
  8
0
 10
-310.855
 20
-20.1233
 11
-310.891
 21
-20.3672
  0
LINE
  8
0
 10
-310.891
 20
-20.3672
 11
-310.964
 21
-20.6028
  0
LINE
  8
0
 10
-310.964
 20
-20.6028
 11
-311.071
 21
-20.825
  0
LINE
  8
0
 10
-311.071
 20
-20.825
 11
-311.21
 21
-21.0287
  0
LINE
  8
0
 10
-311.21
 20
-21.0287
 11
-311.378
 21
-21.2095
  0
LINE
  8
0
 10
-311.378
 20
-21.2095
 11
-311.571
 21
-21.3633
  0
LINE
  8
0
 10
-311.571
 20
-21.3633
 11
-311.784
 21
-21.4866
  0
LINE
  8
0
 10
-311.784
 20
-21.4866
 11
-312.014
 21
-21.5767
  0
LINE
  8
0
 10
-312.014
 20
-21.5767
 11
-312.254
 21
-21.6316
  0
LINE
  8
0
 10
-312.254
 20
-21.6316
 11
-312.5
 21
-21.65
  0
LINE
  8
0
 10
-312.5
 20
-21.65
 11
-312.746
 21
-21.6316
  0
LINE
  8
0
 10
312.254
 20
-21.6316
 11
312.014
 21
-21.5767
  0
LINE
  8
0
 10
312.014
 20
-21.5767
 11
311.784
 21
-21.4866
  0
LINE
  8
0
 10
311.784
 20
-21.4866
 11
311.571
 21
-21.3633
  0
LINE
  8
0
 10
311.571
 20
-21.3633
 11
311.378
 21
-21.2095
  0
LINE
  8
0
 10
311.378
 20
-21.2095
 11
311.21
 21
-21.0287
  0
LINE
  8
0
 10
311.21
 20
-21.0287
 11
311.071
 21
-20.825
  0
LINE
  8
0
 10
311.071
 20
-20.825
 11
310.964
 21
-20.6028
  0
LINE
  8
0
 10
310.964
 20
-20.6028
 11
310.891
 21
-20.3672
  0
LINE
  8
0
 10
310.891
 20
-20.3672
 11
310.855
 21
-20.1233
  0
LINE
  8
0
 10
310.855
 20
-20.1233
 11
310.855
 21
20.1233
  0
LINE
  8
0
 10
310.855
 20
20.1233
 11
310.891
 21
20.3672
  0
LINE
  8
0
 10
310.891
 20
20.3672
 11
310.964
 21
20.6028
  0
LINE
  8
0
 10
310.964
 20
20.6028
 11
311.071
 21
20.825
  0
LINE
  8
0
 10
311.071
 20
20.825
 11
311.21
 21
21.0287
  0
LINE
  8
0
 10
311.21
 20
21.0287
 11
311.378
 21
21.2095
  0
LINE
  8
0
 10
311.378
 20
21.2095
 11
311.571
 21
21.3633
  0
LINE
  8
0
 10
311.571
 20
21.3633
 11
311.784
 21
21.4866
  0
LINE
  8
0
 10
311.784
 20
21.4866
 11
312.014
 21
21.5767
  0
LINE
  8
0
 10
312.014
 20
21.5767
 11
312.254
 21
21.6316
  0
LINE
  8
0
 10
312.254
 20
21.6316
 11
312.5
 21
21.65
  0
LINE
  8
0
 10
312.5
 20
21.65
 11
312.746
 21
21.6316
  0
LINE
  8
0
 10
312.746
 20
21.6316
 11
312.986
 21
21.5767
  0
LINE
  8
0
 10
312.986
 20
21.5767
 11
313.216
 21
21.4866
  0
LINE
  8
0
 10
313.216
 20
21.4866
 11
313.429
 21
21.3633
  0
LINE
  8
0
 10
313.429
 20
21.3633
 11
313.622
 21
21.2095
  0
LINE
  8
0
 10
313.622
 20
21.2095
 11
313.79
 21
21.0287
  0
LINE
  8
0
 10
313.79
 20
21.0287
 11
313.929
 21
20.825
  0
LINE
  8
0
 10
313.929
 20
20.825
 11
314.036
 21
20.6028
  0
LINE
  8
0
 10
314.036
 20
20.6028
 11
314.109
 21
20.3672
  0
LINE
  8
0
 10
314.109
 20
20.3672
 11
314.145
 21
20.1233
  0
LINE
  8
0
 10
314.145
 20
20.1233
 11
314.145
 21
-20.1233
  0
LINE
  8
0
 10
314.145
 20
-20.1233
 11
314.109
 21
-20.3672
  0
LINE
  8
0
 10
314.109
 20
-20.3672
 11
314.036
 21
-20.6028
  0
LINE
  8
0
 10
314.036
 20
-20.6028
 11
313.929
 21
-20.825
  0
LINE
  8
0
 10
313.929
 20
-20.825
 11
313.79
 21
-21.0287
  0
LINE
  8
0
 10
313.79
 20
-21.0287
 11
313.622
 21
-21.2095
  0
LINE
  8
0
 10
313.622
 20
-21.2095
 11
313.429
 21
-21.3633
  0
LINE
  8
0
 10
313.429
 20
-21.3633
 11
313.216
 21
-21.4866
  0
LINE
  8
0
 10
313.216
 20
-21.4866
 11
312.986
 21
-21.5767
  0
LINE
  8
0
 10
312.986
 20
-21.5767
 11
312.746
 21
-21.6316
  0
LINE
  8
0
 10
312.746
 20
-21.6316
 11
312.5
 21
-21.65
  0
LINE
  8
0
 10
312.5
 20
-21.65
 11
312.254
 21
-21.6316
  0
LINE
  8
0
 10
312.254
 20
-94.0816
 11
312.014
 21
-94.0267
  0
LINE
  8
0
 10
312.014
 20
-94.0267
 11
311.784
 21
-93.9366
  0
LINE
  8
0
 10
311.784
 20
-93.9366
 11
311.571
 21
-93.8133
  0
LINE
  8
0
 10
311.571
 20
-93.8133
 11
311.378
 21
-93.6595
  0
LINE
  8
0
 10
311.378
 20
-93.6595
 11
311.21
 21
-93.4788
  0
LINE
  8
0
 10
311.21
 20
-93.4788
 11
311.071
 21
-93.275
  0
LINE
  8
0
 10
311.071
 20
-93.275
 11
310.964
 21
-93.0528
  0
LINE
  8
0
 10
310.964
 20
-93.0528
 11
310.891
 21
-92.8172
  0
LINE
  8
0
 10
310.891
 20
-92.8172
 11
310.855
 21
-92.5733
  0
LINE
  8
0
 10
310.855
 20
-92.5733
 11
310.855
 21
-52.3267
  0
LINE
  8
0
 10
310.855
 20
-52.3267
 11
310.891
 21
-52.0828
  0
LINE
  8
0
 10
310.891
 20
-52.0828
 11
310.964
 21
-51.8472
  0
LINE
  8
0
 10
310.964
 20
-51.8472
 11
311.071
 21
-51.625
  0
LINE
  8
0
 10
311.071
 20
-51.625
 11
311.21
 21
-51.4212
  0
LINE
  8
0
 10
311.21
 20
-51.4212
 11
311.378
 21
-51.2405
  0
LINE
  8
0
 10
311.378
 20
-51.2405
 11
311.571
 21
-51.0867
  0
LINE
  8
0
 10
311.571
 20
-51.0867
 11
311.784
 21
-50.9634
  0
LINE
  8
0
 10
311.784
 20
-50.9634
 11
312.014
 21
-50.8733
  0
LINE
  8
0
 10
312.014
 20
-50.8733
 11
312.254
 21
-50.8184
  0
LINE
  8
0
 10
312.254
 20
-50.8184
 11
312.5
 21
-50.8
  0
LINE
  8
0
 10
312.5
 20
-50.8
 11
312.746
 21
-50.8184
  0
LINE
  8
0
 10
312.746
 20
-50.8184
 11
312.986
 21
-50.8733
  0
LINE
  8
0
 10
312.986
 20
-50.8733
 11
313.216
 21
-50.9634
  0
LINE
  8
0
 10
313.216
 20
-50.9634
 11
313.429
 21
-51.0867
  0
LINE
  8
0
 10
313.429
 20
-51.0867
 11
313.622
 21
-51.2405
  0
LINE
  8
0
 10
313.622
 20
-51.2405
 11
313.79
 21
-51.4212
  0
LINE
  8
0
 10
313.79
 20
-51.4212
 11
313.929
 21
-51.625
  0
LINE
  8
0
 10
313.929
 20
-51.625
 11
314.036
 21
-51.8472
  0
LINE
  8
0
 10
314.036
 20
-51.8472
 11
314.109
 21
-52.0828
  0
LINE
  8
0
 10
314.109
 20
-52.0828
 11
314.145
 21
-52.3267
  0
LINE
  8
0
 10
314.145
 20
-52.3267
 11
314.145
 21
-92.5733
  0
LINE
  8
0
 10
314.145
 20
-92.5733
 11
314.109
 21
-92.8172
  0
LINE
  8
0
 10
314.109
 20
-92.8172
 11
314.036
 21
-93.0528
  0
LINE
  8
0
 10
314.036
 20
-93.0528
 11
313.929
 21
-93.275
  0
LINE
  8
0
 10
313.929
 20
-93.275
 11
313.79
 21
-93.4788
  0
LINE
  8
0
 10
313.79
 20
-93.4788
 11
313.622
 21
-93.6595
  0
LINE
  8
0
 10
313.622
 20
-93.6595
 11
313.429
 21
-93.8133
  0
LINE
  8
0
 10
313.429
 20
-93.8133
 11
313.216
 21
-93.9366
  0
LINE
  8
0
 10
313.216
 20
-93.9366
 11
312.986
 21
-94.0267
  0
LINE
  8
0
 10
312.986
 20
-94.0267
 11
312.746
 21
-94.0816
  0
LINE
  8
0
 10
312.746
 20
-94.0816
 11
312.5
 21
-94.1
  0
LINE
  8
0
 10
312.5
 20
-94.1
 11
312.254
 21
-94.0816
  0
LINE
  8
0
 10
-312.746
 20
-94.0816
 11
-312.986
 21
-94.0267
  0
LINE
  8
0
 10
-312.986
 20
-94.0267
 11
-313.216
 21
-93.9366
  0
LINE
  8
0
 10
-313.216
 20
-93.9366
 11
-313.429
 21
-93.8133
  0
LINE
  8
0
 10
-313.429
 20
-93.8133
 11
-313.622
 21
-93.6595
  0
LINE
  8
0
 10
-313.622
 20
-93.6595
 11
-313.79
 21
-93.4788
  0
LINE
  8
0
 10
-313.79
 20
-93.4788
 11
-313.929
 21
-93.275
  0
LINE
  8
0
 10
-313.929
 20
-93.275
 11
-314.036
 21
-93.0528
  0
LINE
  8
0
 10
-314.036
 20
-93.0528
 11
-314.109
 21
-92.8172
  0
LINE
  8
0
 10
-314.109
 20
-92.8172
 11
-314.145
 21
-92.5733
  0
LINE
  8
0
 10
-314.145
 20
-92.5733
 11
-314.145
 21
-52.3267
  0
LINE
  8
0
 10
-314.145
 20
-52.3267
 11
-314.109
 21
-52.0828
  0
LINE
  8
0
 10
-314.109
 20
-52.0828
 11
-314.036
 21
-51.8472
  0
LINE
  8
0
 10
-314.036
 20
-51.8472
 11
-313.929
 21
-51.625
  0
LINE
  8
0
 10
-313.929
 20
-51.625
 11
-313.79
 21
-51.4212
  0
LINE
  8
0
 10
-313.79
 20
-51.4212
 11
-313.622
 21
-51.2405
  0
LINE
  8
0
 10
-313.622
 20
-51.2405
 11
-313.429
 21
-51.0867
  0
LINE
  8
0
 10
-313.429
 20
-51.0867
 11
-313.216
 21
-50.9634
  0
LINE
  8
0
 10
-313.216
 20
-50.9634
 11
-312.986
 21
-50.8733
  0
LINE
  8
0
 10
-312.986
 20
-50.8733
 11
-312.746
 21
-50.8184
  0
LINE
  8
0
 10
-312.746
 20
-50.8184
 11
-312.5
 21
-50.8
  0
LINE
  8
0
 10
-312.5
 20
-50.8
 11
-312.254
 21
-50.8184
  0
LINE
  8
0
 10
-312.254
 20
-50.8184
 11
-312.014
 21
-50.8733
  0
LINE
  8
0
 10
-312.014
 20
-50.8733
 11
-311.784
 21
-50.9634
  0
LINE
  8
0
 10
-311.784
 20
-50.9634
 11
-311.571
 21
-51.0867
  0
LINE
  8
0
 10
-311.571
 20
-51.0867
 11
-311.378
 21
-51.2405
  0
LINE
  8
0
 10
-311.378
 20
-51.2405
 11
-311.21
 21
-51.4212
  0
LINE
  8
0
 10
-311.21
 20
-51.4212
 11
-311.071
 21
-51.625
  0
LINE
  8
0
 10
-311.071
 20
-51.625
 11
-310.964
 21
-51.8472
  0
LINE
  8
0
 10
-310.964
 20
-51.8472
 11
-310.891
 21
-52.0828
  0
LINE
  8
0
 10
-310.891
 20
-52.0828
 11
-310.855
 21
-52.3267
  0
LINE
  8
0
 10
-310.855
 20
-52.3267
 11
-310.855
 21
-92.5733
  0
LINE
  8
0
 10
-310.855
 20
-92.5733
 11
-310.891
 21
-92.8172
  0
LINE
  8
0
 10
-310.891
 20
-92.8172
 11
-310.964
 21
-93.0528
  0
LINE
  8
0
 10
-310.964
 20
-93.0528
 11
-311.071
 21
-93.275
  0
LINE
  8
0
 10
-311.071
 20
-93.275
 11
-311.21
 21
-93.4788
  0
LINE
  8
0
 10
-311.21
 20
-93.4788
 11
-311.378
 21
-93.6595
  0
LINE
  8
0
 10
-311.378
 20
-93.6595
 11
-311.571
 21
-93.8133
  0
LINE
  8
0
 10
-311.571
 20
-93.8133
 11
-311.784
 21
-93.9366
  0
LINE
  8
0
 10
-311.784
 20
-93.9366
 11
-312.014
 21
-94.0267
  0
LINE
  8
0
 10
-312.014
 20
-94.0267
 11
-312.254
 21
-94.0816
  0
LINE
  8
0
 10
-312.254
 20
-94.0816
 11
-312.5
 21
-94.1
  0
LINE
  8
0
 10
-312.5
 20
-94.1
 11
-312.746
 21
-94.0816
  0
LINE
  8
0
 10
-312.892
 20
-118.679
 11
-313.28
 21
-118.618
  0
LINE
  8
0
 10
-313.28
 20
-118.618
 11
-313.659
 21
-118.516
  0
LINE
  8
0
 10
-313.659
 20
-118.516
 11
-314.025
 21
-118.376
  0
LINE
  8
0
 10
-314.025
 20
-118.376
 11
-314.375
 21
-118.198
  0
LINE
  8
0
 10
-314.375
 20
-118.198
 11
-314.704
 21
-117.984
  0
LINE
  8
0
 10
-314.704
 20
-117.984
 11
-315.009
 21
-117.737
  0
LINE
  8
0
 10
-315.009
 20
-117.737
 11
-315.287
 21
-117.459
  0
LINE
  8
0
 10
-315.287
 20
-117.459
 11
-315.534
 21
-117.154
  0
LINE
  8
0
 10
-315.534
 20
-117.154
 11
-315.748
 21
-116.825
  0
LINE
  8
0
 10
-315.748
 20
-116.825
 11
-315.926
 21
-116.475
  0
LINE
  8
0
 10
-315.926
 20
-116.475
 11
-316.066
 21
-116.109
  0
LINE
  8
0
 10
-316.066
 20
-116.109
 11
-316.168
 21
-115.73
  0
LINE
  8
0
 10
-316.168
 20
-115.73
 11
-316.229
 21
-115.342
  0
LINE
  8
0
 10
-316.229
 20
-115.342
 11
-316.25
 21
-114.95
  0
LINE
  8
0
 10
-316.25
 20
-114.95
 11
-316.229
 21
-114.558
  0
LINE
  8
0
 10
-316.229
 20
-114.558
 11
-316.168
 21
-114.17
  0
LINE
  8
0
 10
-316.168
 20
-114.17
 11
-316.066
 21
-113.791
  0
LINE
  8
0
 10
-316.066
 20
-113.791
 11
-315.926
 21
-113.425
  0
LINE
  8
0
 10
-315.926
 20
-113.425
 11
-315.748
 21
-113.075
  0
LINE
  8
0
 10
-315.748
 20
-113.075
 11
-315.534
 21
-112.746
  0
LINE
  8
0
 10
-315.534
 20
-112.746
 11
-315.287
 21
-112.441
  0
LINE
  8
0
 10
-315.287
 20
-112.441
 11
-315.009
 21
-112.163
  0
LINE
  8
0
 10
-315.009
 20
-112.163
 11
-314.704
 21
-111.916
  0
LINE
  8
0
 10
-314.704
 20
-111.916
 11
-314.375
 21
-111.702
  0
LINE
  8
0
 10
-314.375
 20
-111.702
 11
-314.025
 21
-111.524
  0
LINE
  8
0
 10
-314.025
 20
-111.524
 11
-313.659
 21
-111.384
  0
LINE
  8
0
 10
-313.659
 20
-111.384
 11
-313.28
 21
-111.282
  0
LINE
  8
0
 10
-313.28
 20
-111.282
 11
-312.892
 21
-111.221
  0
LINE
  8
0
 10
-312.892
 20
-111.221
 11
-312.5
 21
-111.2
  0
LINE
  8
0
 10
-312.5
 20
-111.2
 11
-312.108
 21
-111.221
  0
LINE
  8
0
 10
-312.108
 20
-111.221
 11
-311.72
 21
-111.282
  0
LINE
  8
0
 10
-311.72
 20
-111.282
 11
-311.341
 21
-111.384
  0
LINE
  8
0
 10
-311.341
 20
-111.384
 11
-310.975
 21
-111.524
  0
LINE
  8
0
 10
-310.975
 20
-111.524
 11
-310.625
 21
-111.702
  0
LINE
  8
0
 10
-310.625
 20
-111.702
 11
-310.296
 21
-111.916
  0
LINE
  8
0
 10
-310.296
 20
-111.916
 11
-309.991
 21
-112.163
  0
LINE
  8
0
 10
-309.991
 20
-112.163
 11
-309.713
 21
-112.441
  0
LINE
  8
0
 10
-309.713
 20
-112.441
 11
-309.466
 21
-112.746
  0
LINE
  8
0
 10
-309.466
 20
-112.746
 11
-309.252
 21
-113.075
  0
LINE
  8
0
 10
-309.252
 20
-113.075
 11
-309.074
 21
-113.425
  0
LINE
  8
0
 10
-309.074
 20
-113.425
 11
-308.934
 21
-113.791
  0
LINE
  8
0
 10
-308.934
 20
-113.791
 11
-308.832
 21
-114.17
  0
LINE
  8
0
 10
-308.832
 20
-114.17
 11
-308.771
 21
-114.558
  0
LINE
  8
0
 10
-308.771
 20
-114.558
 11
-308.75
 21
-114.95
  0
LINE
  8
0
 10
-308.75
 20
-114.95
 11
-308.771
 21
-115.342
  0
LINE
  8
0
 10
-308.771
 20
-115.342
 11
-308.832
 21
-115.73
  0
LINE
  8
0
 10
-308.832
 20
-115.73
 11
-308.934
 21
-116.109
  0
LINE
  8
0
 10
-308.934
 20
-116.109
 11
-309.074
 21
-116.475
  0
LINE
  8
0
 10
-309.074
 20
-116.475
 11
-309.252
 21
-116.825
  0
LINE
  8
0
 10
-309.252
 20
-116.825
 11
-309.466
 21
-117.154
  0
LINE
  8
0
 10
-309.466
 20
-117.154
 11
-309.713
 21
-117.459
  0
LINE
  8
0
 10
-309.713
 20
-117.459
 11
-309.991
 21
-117.737
  0
LINE
  8
0
 10
-309.991
 20
-117.737
 11
-310.296
 21
-117.984
  0
LINE
  8
0
 10
-310.296
 20
-117.984
 11
-310.625
 21
-118.198
  0
LINE
  8
0
 10
-310.625
 20
-118.198
 11
-310.975
 21
-118.376
  0
LINE
  8
0
 10
-310.975
 20
-118.376
 11
-311.341
 21
-118.516
  0
LINE
  8
0
 10
-311.341
 20
-118.516
 11
-311.72
 21
-118.618
  0
LINE
  8
0
 10
-311.72
 20
-118.618
 11
-312.108
 21
-118.679
  0
LINE
  8
0
 10
-312.108
 20
-118.679
 11
-312.5
 21
-118.7
  0
LINE
  8
0
 10
-312.5
 20
-118.7
 11
-312.892
 21
-118.679
  0
LINE
  8
0
 10
312.108
 20
-118.679
 11
311.72
 21
-118.618
  0
LINE
  8
0
 10
311.72
 20
-118.618
 11
311.341
 21
-118.516
  0
LINE
  8
0
 10
311.341
 20
-118.516
 11
310.975
 21
-118.376
  0
LINE
  8
0
 10
310.975
 20
-118.376
 11
310.625
 21
-118.198
  0
LINE
  8
0
 10
310.625
 20
-118.198
 11
310.296
 21
-117.984
  0
LINE
  8
0
 10
310.296
 20
-117.984
 11
309.991
 21
-117.737
  0
LINE
  8
0
 10
309.991
 20
-117.737
 11
309.713
 21
-117.459
  0
LINE
  8
0
 10
309.713
 20
-117.459
 11
309.466
 21
-117.154
  0
LINE
  8
0
 10
309.466
 20
-117.154
 11
309.252
 21
-116.825
  0
LINE
  8
0
 10
309.252
 20
-116.825
 11
309.074
 21
-116.475
  0
LINE
  8
0
 10
309.074
 20
-116.475
 11
308.934
 21
-116.109
  0
LINE
  8
0
 10
308.934
 20
-116.109
 11
308.832
 21
-115.73
  0
LINE
  8
0
 10
308.832
 20
-115.73
 11
308.771
 21
-115.342
  0
LINE
  8
0
 10
308.771
 20
-115.342
 11
308.75
 21
-114.95
  0
LINE
  8
0
 10
308.75
 20
-114.95
 11
308.771
 21
-114.558
  0
LINE
  8
0
 10
308.771
 20
-114.558
 11
308.832
 21
-114.17
  0
LINE
  8
0
 10
308.832
 20
-114.17
 11
308.934
 21
-113.791
  0
LINE
  8
0
 10
308.934
 20
-113.791
 11
309.074
 21
-113.425
  0
LINE
  8
0
 10
309.074
 20
-113.425
 11
309.252
 21
-113.075
  0
LINE
  8
0
 10
309.252
 20
-113.075
 11
309.466
 21
-112.746
  0
LINE
  8
0
 10
309.466
 20
-112.746
 11
309.713
 21
-112.441
  0
LINE
  8
0
 10
309.713
 20
-112.441
 11
309.991
 21
-112.163
  0
LINE
  8
0
 10
309.991
 20
-112.163
 11
310.296
 21
-111.916
  0
LINE
  8
0
 10
310.296
 20
-111.916
 11
310.625
 21
-111.702
  0
LINE
  8
0
 10
310.625
 20
-111.702
 11
310.975
 21
-111.524
  0
LINE
  8
0
 10
310.975
 20
-111.524
 11
311.341
 21
-111.384
  0
LINE
  8
0
 10
311.341
 20
-111.384
 11
311.72
 21
-111.282
  0
LINE
  8
0
 10
311.72
 20
-111.282
 11
312.108
 21
-111.221
  0
LINE
  8
0
 10
312.108
 20
-111.221
 11
312.5
 21
-111.2
  0
LINE
  8
0
 10
312.5
 20
-111.2
 11
312.892
 21
-111.221
  0
LINE
  8
0
 10
312.892
 20
-111.221
 11
313.28
 21
-111.282
  0
LINE
  8
0
 10
313.28
 20
-111.282
 11
313.659
 21
-111.384
  0
LINE
  8
0
 10
313.659
 20
-111.384
 11
314.025
 21
-111.524
  0
LINE
  8
0
 10
314.025
 20
-111.524
 11
314.375
 21
-111.702
  0
LINE
  8
0
 10
314.375
 20
-111.702
 11
314.704
 21
-111.916
  0
LINE
  8
0
 10
314.704
 20
-111.916
 11
315.009
 21
-112.163
  0
LINE
  8
0
 10
315.009
 20
-112.163
 11
315.287
 21
-112.441
  0
LINE
  8
0
 10
315.287
 20
-112.441
 11
315.534
 21
-112.746
  0
LINE
  8
0
 10
315.534
 20
-112.746
 11
315.748
 21
-113.075
  0
LINE
  8
0
 10
315.748
 20
-113.075
 11
315.926
 21
-113.425
  0
LINE
  8
0
 10
315.926
 20
-113.425
 11
316.066
 21
-113.791
  0
LINE
  8
0
 10
316.066
 20
-113.791
 11
316.168
 21
-114.17
  0
LINE
  8
0
 10
316.168
 20
-114.17
 11
316.229
 21
-114.558
  0
LINE
  8
0
 10
316.229
 20
-114.558
 11
316.25
 21
-114.95
  0
LINE
  8
0
 10
316.25
 20
-114.95
 11
316.229
 21
-115.342
  0
LINE
  8
0
 10
316.229
 20
-115.342
 11
316.168
 21
-115.73
  0
LINE
  8
0
 10
316.168
 20
-115.73
 11
316.066
 21
-116.109
  0
LINE
  8
0
 10
316.066
 20
-116.109
 11
315.926
 21
-116.475
  0
LINE
  8
0
 10
315.926
 20
-116.475
 11
315.748
 21
-116.825
  0
LINE
  8
0
 10
315.748
 20
-116.825
 11
315.534
 21
-117.154
  0
LINE
  8
0
 10
315.534
 20
-117.154
 11
315.287
 21
-117.459
  0
LINE
  8
0
 10
315.287
 20
-117.459
 11
315.009
 21
-117.737
  0
LINE
  8
0
 10
315.009
 20
-117.737
 11
314.704
 21
-117.984
  0
LINE
  8
0
 10
314.704
 20
-117.984
 11
314.375
 21
-118.198
  0
LINE
  8
0
 10
314.375
 20
-118.198
 11
314.025
 21
-118.376
  0
LINE
  8
0
 10
314.025
 20
-118.376
 11
313.659
 21
-118.516
  0
LINE
  8
0
 10
313.659
 20
-118.516
 11
313.28
 21
-118.618
  0
LINE
  8
0
 10
313.28
 20
-118.618
 11
312.892
 21
-118.679
  0
LINE
  8
0
 10
312.892
 20
-118.679
 11
312.5
 21
-118.7
  0
LINE
  8
0
 10
312.5
 20
-118.7
 11
312.108
 21
-118.679
  0
LINE
  8
0
 10
249.877
 20
-116.595
 11
249.633
 21
-116.559
  0
LINE
  8
0
 10
249.633
 20
-116.559
 11
249.397
 21
-116.486
  0
LINE
  8
0
 10
249.397
 20
-116.486
 11
249.175
 21
-116.379
  0
LINE
  8
0
 10
249.175
 20
-116.379
 11
248.971
 21
-116.24
  0
LINE
  8
0
 10
248.971
 20
-116.24
 11
248.79
 21
-116.072
  0
LINE
  8
0
 10
248.79
 20
-116.072
 11
248.637
 21
-115.879
  0
LINE
  8
0
 10
248.637
 20
-115.879
 11
248.513
 21
-115.666
  0
LINE
  8
0
 10
248.513
 20
-115.666
 11
248.423
 21
-115.436
  0
LINE
  8
0
 10
248.423
 20
-115.436
 11
248.368
 21
-115.196
  0
LINE
  8
0
 10
248.368
 20
-115.196
 11
248.35
 21
-114.95
  0
LINE
  8
0
 10
248.35
 20
-114.95
 11
248.368
 21
-114.704
  0
LINE
  8
0
 10
248.368
 20
-114.704
 11
248.423
 21
-114.464
  0
LINE
  8
0
 10
248.423
 20
-114.464
 11
248.513
 21
-114.234
  0
LINE
  8
0
 10
248.513
 20
-114.234
 11
248.637
 21
-114.021
  0
LINE
  8
0
 10
248.637
 20
-114.021
 11
248.79
 21
-113.828
  0
LINE
  8
0
 10
248.79
 20
-113.828
 11
248.971
 21
-113.66
  0
LINE
  8
0
 10
248.971
 20
-113.66
 11
249.175
 21
-113.521
  0
LINE
  8
0
 10
249.175
 20
-113.521
 11
249.397
 21
-113.414
  0
LINE
  8
0
 10
249.397
 20
-113.414
 11
249.633
 21
-113.341
  0
LINE
  8
0
 10
249.633
 20
-113.341
 11
249.877
 21
-113.305
  0
LINE
  8
0
 10
249.877
 20
-113.305
 11
290.123
 21
-113.305
  0
LINE
  8
0
 10
290.123
 20
-113.305
 11
290.367
 21
-113.341
  0
LINE
  8
0
 10
290.367
 20
-113.341
 11
290.603
 21
-113.414
  0
LINE
  8
0
 10
290.603
 20
-113.414
 11
290.825
 21
-113.521
  0
LINE
  8
0
 10
290.825
 20
-113.521
 11
291.029
 21
-113.66
  0
LINE
  8
0
 10
291.029
 20
-113.66
 11
291.21
 21
-113.828
  0
LINE
  8
0
 10
291.21
 20
-113.828
 11
291.363
 21
-114.021
  0
LINE
  8
0
 10
291.363
 20
-114.021
 11
291.487
 21
-114.234
  0
LINE
  8
0
 10
291.487
 20
-114.234
 11
291.577
 21
-114.464
  0
LINE
  8
0
 10
291.577
 20
-114.464
 11
291.632
 21
-114.704
  0
LINE
  8
0
 10
291.632
 20
-114.704
 11
291.65
 21
-114.95
  0
LINE
  8
0
 10
291.65
 20
-114.95
 11
291.632
 21
-115.196
  0
LINE
  8
0
 10
291.632
 20
-115.196
 11
291.577
 21
-115.436
  0
LINE
  8
0
 10
291.577
 20
-115.436
 11
291.487
 21
-115.666
  0
LINE
  8
0
 10
291.487
 20
-115.666
 11
291.363
 21
-115.879
  0
LINE
  8
0
 10
291.363
 20
-115.879
 11
291.21
 21
-116.072
  0
LINE
  8
0
 10
291.21
 20
-116.072
 11
291.029
 21
-116.24
  0
LINE
  8
0
 10
291.029
 20
-116.24
 11
290.825
 21
-116.379
  0
LINE
  8
0
 10
290.825
 20
-116.379
 11
290.603
 21
-116.486
  0
LINE
  8
0
 10
290.603
 20
-116.486
 11
290.367
 21
-116.559
  0
LINE
  8
0
 10
290.367
 20
-116.559
 11
290.123
 21
-116.595
  0
LINE
  8
0
 10
290.123
 20
-116.595
 11
249.877
 21
-116.595
  0
LINE
  8
0
 10
159.877
 20
-116.595
 11
159.633
 21
-116.559
  0
LINE
  8
0
 10
159.633
 20
-116.559
 11
159.397
 21
-116.486
  0
LINE
  8
0
 10
159.397
 20
-116.486
 11
159.175
 21
-116.379
  0
LINE
  8
0
 10
159.175
 20
-116.379
 11
158.971
 21
-116.24
  0
LINE
  8
0
 10
158.971
 20
-116.24
 11
158.79
 21
-116.072
  0
LINE
  8
0
 10
158.79
 20
-116.072
 11
158.637
 21
-115.879
  0
LINE
  8
0
 10
158.637
 20
-115.879
 11
158.513
 21
-115.666
  0
LINE
  8
0
 10
158.513
 20
-115.666
 11
158.423
 21
-115.436
  0
LINE
  8
0
 10
158.423
 20
-115.436
 11
158.368
 21
-115.196
  0
LINE
  8
0
 10
158.368
 20
-115.196
 11
158.35
 21
-114.95
  0
LINE
  8
0
 10
158.35
 20
-114.95
 11
158.368
 21
-114.704
  0
LINE
  8
0
 10
158.368
 20
-114.704
 11
158.423
 21
-114.464
  0
LINE
  8
0
 10
158.423
 20
-114.464
 11
158.513
 21
-114.234
  0
LINE
  8
0
 10
158.513
 20
-114.234
 11
158.637
 21
-114.021
  0
LINE
  8
0
 10
158.637
 20
-114.021
 11
158.79
 21
-113.828
  0
LINE
  8
0
 10
158.79
 20
-113.828
 11
158.971
 21
-113.66
  0
LINE
  8
0
 10
158.971
 20
-113.66
 11
159.175
 21
-113.521
  0
LINE
  8
0
 10
159.175
 20
-113.521
 11
159.397
 21
-113.414
  0
LINE
  8
0
 10
159.397
 20
-113.414
 11
159.633
 21
-113.341
  0
LINE
  8
0
 10
159.633
 20
-113.341
 11
159.877
 21
-113.305
  0
LINE
  8
0
 10
159.877
 20
-113.305
 11
200.123
 21
-113.305
  0
LINE
  8
0
 10
200.123
 20
-113.305
 11
200.367
 21
-113.341
  0
LINE
  8
0
 10
200.367
 20
-113.341
 11
200.603
 21
-113.414
  0
LINE
  8
0
 10
200.603
 20
-113.414
 11
200.825
 21
-113.521
  0
LINE
  8
0
 10
200.825
 20
-113.521
 11
201.029
 21
-113.66
  0
LINE
  8
0
 10
201.029
 20
-113.66
 11
201.21
 21
-113.828
  0
LINE
  8
0
 10
201.21
 20
-113.828
 11
201.363
 21
-114.021
  0
LINE
  8
0
 10
201.363
 20
-114.021
 11
201.487
 21
-114.234
  0
LINE
  8
0
 10
201.487
 20
-114.234
 11
201.577
 21
-114.464
  0
LINE
  8
0
 10
201.577
 20
-114.464
 11
201.632
 21
-114.704
  0
LINE
  8
0
 10
201.632
 20
-114.704
 11
201.65
 21
-114.95
  0
LINE
  8
0
 10
201.65
 20
-114.95
 11
201.632
 21
-115.196
  0
LINE
  8
0
 10
201.632
 20
-115.196
 11
201.577
 21
-115.436
  0
LINE
  8
0
 10
201.577
 20
-115.436
 11
201.487
 21
-115.666
  0
LINE
  8
0
 10
201.487
 20
-115.666
 11
201.363
 21
-115.879
  0
LINE
  8
0
 10
201.363
 20
-115.879
 11
201.21
 21
-116.072
  0
LINE
  8
0
 10
201.21
 20
-116.072
 11
201.029
 21
-116.24
  0
LINE
  8
0
 10
201.029
 20
-116.24
 11
200.825
 21
-116.379
  0
LINE
  8
0
 10
200.825
 20
-116.379
 11
200.603
 21
-116.486
  0
LINE
  8
0
 10
200.603
 20
-116.486
 11
200.367
 21
-116.559
  0
LINE
  8
0
 10
200.367
 20
-116.559
 11
200.123
 21
-116.595
  0
LINE
  8
0
 10
200.123
 20
-116.595
 11
159.877
 21
-116.595
  0
LINE
  8
0
 10
-200.123
 20
-116.595
 11
-200.367
 21
-116.559
  0
LINE
  8
0
 10
-200.367
 20
-116.559
 11
-200.603
 21
-116.486
  0
LINE
  8
0
 10
-200.603
 20
-116.486
 11
-200.825
 21
-116.379
  0
LINE
  8
0
 10
-200.825
 20
-116.379
 11
-201.029
 21
-116.24
  0
LINE
  8
0
 10
-201.029
 20
-116.24
 11
-201.21
 21
-116.072
  0
LINE
  8
0
 10
-201.21
 20
-116.072
 11
-201.363
 21
-115.879
  0
LINE
  8
0
 10
-201.363
 20
-115.879
 11
-201.487
 21
-115.666
  0
LINE
  8
0
 10
-201.487
 20
-115.666
 11
-201.577
 21
-115.436
  0
LINE
  8
0
 10
-201.577
 20
-115.436
 11
-201.632
 21
-115.196
  0
LINE
  8
0
 10
-201.632
 20
-115.196
 11
-201.65
 21
-114.95
  0
LINE
  8
0
 10
-201.65
 20
-114.95
 11
-201.632
 21
-114.704
  0
LINE
  8
0
 10
-201.632
 20
-114.704
 11
-201.577
 21
-114.464
  0
LINE
  8
0
 10
-201.577
 20
-114.464
 11
-201.487
 21
-114.234
  0
LINE
  8
0
 10
-201.487
 20
-114.234
 11
-201.363
 21
-114.021
  0
LINE
  8
0
 10
-201.363
 20
-114.021
 11
-201.21
 21
-113.828
  0
LINE
  8
0
 10
-201.21
 20
-113.828
 11
-201.029
 21
-113.66
  0
LINE
  8
0
 10
-201.029
 20
-113.66
 11
-200.825
 21
-113.521
  0
LINE
  8
0
 10
-200.825
 20
-113.521
 11
-200.603
 21
-113.414
  0
LINE
  8
0
 10
-200.603
 20
-113.414
 11
-200.367
 21
-113.341
  0
LINE
  8
0
 10
-200.367
 20
-113.341
 11
-200.123
 21
-113.305
  0
LINE
  8
0
 10
-200.123
 20
-113.305
 11
-159.877
 21
-113.305
  0
LINE
  8
0
 10
-159.877
 20
-113.305
 11
-159.633
 21
-113.341
  0
LINE
  8
0
 10
-159.633
 20
-113.341
 11
-159.397
 21
-113.414
  0
LINE
  8
0
 10
-159.397
 20
-113.414
 11
-159.175
 21
-113.521
  0
LINE
  8
0
 10
-159.175
 20
-113.521
 11
-158.971
 21
-113.66
  0
LINE
  8
0
 10
-158.971
 20
-113.66
 11
-158.79
 21
-113.828
  0
LINE
  8
0
 10
-158.79
 20
-113.828
 11
-158.637
 21
-114.021
  0
LINE
  8
0
 10
-158.637
 20
-114.021
 11
-158.513
 21
-114.234
  0
LINE
  8
0
 10
-158.513
 20
-114.234
 11
-158.423
 21
-114.464
  0
LINE
  8
0
 10
-158.423
 20
-114.464
 11
-158.368
 21
-114.704
  0
LINE
  8
0
 10
-158.368
 20
-114.704
 11
-158.35
 21
-114.95
  0
LINE
  8
0
 10
-158.35
 20
-114.95
 11
-158.368
 21
-115.196
  0
LINE
  8
0
 10
-158.368
 20
-115.196
 11
-158.423
 21
-115.436
  0
LINE
  8
0
 10
-158.423
 20
-115.436
 11
-158.513
 21
-115.666
  0
LINE
  8
0
 10
-158.513
 20
-115.666
 11
-158.637
 21
-115.879
  0
LINE
  8
0
 10
-158.637
 20
-115.879
 11
-158.79
 21
-116.072
  0
LINE
  8
0
 10
-158.79
 20
-116.072
 11
-158.971
 21
-116.24
  0
LINE
  8
0
 10
-158.971
 20
-116.24
 11
-159.175
 21
-116.379
  0
LINE
  8
0
 10
-159.175
 20
-116.379
 11
-159.397
 21
-116.486
  0
LINE
  8
0
 10
-159.397
 20
-116.486
 11
-159.633
 21
-116.559
  0
LINE
  8
0
 10
-159.633
 20
-116.559
 11
-159.877
 21
-116.595
  0
LINE
  8
0
 10
-159.877
 20
-116.595
 11
-200.123
 21
-116.595
  0
LINE
  8
0
 10
-290.123
 20
-116.595
 11
-290.367
 21
-116.559
  0
LINE
  8
0
 10
-290.367
 20
-116.559
 11
-290.603
 21
-116.486
  0
LINE
  8
0
 10
-290.603
 20
-116.486
 11
-290.825
 21
-116.379
  0
LINE
  8
0
 10
-290.825
 20
-116.379
 11
-291.029
 21
-116.24
  0
LINE
  8
0
 10
-291.029
 20
-116.24
 11
-291.21
 21
-116.072
  0
LINE
  8
0
 10
-291.21
 20
-116.072
 11
-291.363
 21
-115.879
  0
LINE
  8
0
 10
-291.363
 20
-115.879
 11
-291.487
 21
-115.666
  0
LINE
  8
0
 10
-291.487
 20
-115.666
 11
-291.577
 21
-115.436
  0
LINE
  8
0
 10
-291.577
 20
-115.436
 11
-291.632
 21
-115.196
  0
LINE
  8
0
 10
-291.632
 20
-115.196
 11
-291.65
 21
-114.95
  0
LINE
  8
0
 10
-291.65
 20
-114.95
 11
-291.632
 21
-114.704
  0
LINE
  8
0
 10
-291.632
 20
-114.704
 11
-291.577
 21
-114.464
  0
LINE
  8
0
 10
-291.577
 20
-114.464
 11
-291.487
 21
-114.234
  0
LINE
  8
0
 10
-291.487
 20
-114.234
 11
-291.363
 21
-114.021
  0
LINE
  8
0
 10
-291.363
 20
-114.021
 11
-291.21
 21
-113.828
  0
LINE
  8
0
 10
-291.21
 20
-113.828
 11
-291.029
 21
-113.66
  0
LINE
  8
0
 10
-291.029
 20
-113.66
 11
-290.825
 21
-113.521
  0
LINE
  8
0
 10
-290.825
 20
-113.521
 11
-290.603
 21
-113.414
  0
LINE
  8
0
 10
-290.603
 20
-113.414
 11
-290.367
 21
-113.341
  0
LINE
  8
0
 10
-290.367
 20
-113.341
 11
-290.123
 21
-113.305
  0
LINE
  8
0
 10
-290.123
 20
-113.305
 11
-249.877
 21
-113.305
  0
LINE
  8
0
 10
-249.877
 20
-113.305
 11
-249.633
 21
-113.341
  0
LINE
  8
0
 10
-249.633
 20
-113.341
 11
-249.397
 21
-113.414
  0
LINE
  8
0
 10
-249.397
 20
-113.414
 11
-249.175
 21
-113.521
  0
LINE
  8
0
 10
-249.175
 20
-113.521
 11
-248.971
 21
-113.66
  0
LINE
  8
0
 10
-248.971
 20
-113.66
 11
-248.79
 21
-113.828
  0
LINE
  8
0
 10
-248.79
 20
-113.828
 11
-248.637
 21
-114.021
  0
LINE
  8
0
 10
-248.637
 20
-114.021
 11
-248.513
 21
-114.234
  0
LINE
  8
0
 10
-248.513
 20
-114.234
 11
-248.423
 21
-114.464
  0
LINE
  8
0
 10
-248.423
 20
-114.464
 11
-248.368
 21
-114.704
  0
LINE
  8
0
 10
-248.368
 20
-114.704
 11
-248.35
 21
-114.95
  0
LINE
  8
0
 10
-248.35
 20
-114.95
 11
-248.368
 21
-115.196
  0
LINE
  8
0
 10
-248.368
 20
-115.196
 11
-248.423
 21
-115.436
  0
LINE
  8
0
 10
-248.423
 20
-115.436
 11
-248.513
 21
-115.666
  0
LINE
  8
0
 10
-248.513
 20
-115.666
 11
-248.637
 21
-115.879
  0
LINE
  8
0
 10
-248.637
 20
-115.879
 11
-248.79
 21
-116.072
  0
LINE
  8
0
 10
-248.79
 20
-116.072
 11
-248.971
 21
-116.24
  0
LINE
  8
0
 10
-248.971
 20
-116.24
 11
-249.175
 21
-116.379
  0
LINE
  8
0
 10
-249.175
 20
-116.379
 11
-249.397
 21
-116.486
  0
LINE
  8
0
 10
-249.397
 20
-116.486
 11
-249.633
 21
-116.559
  0
LINE
  8
0
 10
-249.633
 20
-116.559
 11
-249.877
 21
-116.595
  0
LINE
  8
0
 10
-249.877
 20
-116.595
 11
-290.123
 21
-116.595
  0
LINE
  8
0
 10
69.8767
 20
-116.595
 11
69.6328
 21
-116.559
  0
LINE
  8
0
 10
69.6328
 20
-116.559
 11
69.3972
 21
-116.486
  0
LINE
  8
0
 10
69.3972
 20
-116.486
 11
69.175
 21
-116.379
  0
LINE
  8
0
 10
69.175
 20
-116.379
 11
68.9712
 21
-116.24
  0
LINE
  8
0
 10
68.9712
 20
-116.24
 11
68.7905
 21
-116.072
  0
LINE
  8
0
 10
68.7905
 20
-116.072
 11
68.6367
 21
-115.879
  0
LINE
  8
0
 10
68.6367
 20
-115.879
 11
68.5134
 21
-115.666
  0
LINE
  8
0
 10
68.5134
 20
-115.666
 11
68.4233
 21
-115.436
  0
LINE
  8
0
 10
68.4233
 20
-115.436
 11
68.3684
 21
-115.196
  0
LINE
  8
0
 10
68.3684
 20
-115.196
 11
68.35
 21
-114.95
  0
LINE
  8
0
 10
68.35
 20
-114.95
 11
68.3684
 21
-114.704
  0
LINE
  8
0
 10
68.3684
 20
-114.704
 11
68.4233
 21
-114.464
  0
LINE
  8
0
 10
68.4233
 20
-114.464
 11
68.5134
 21
-114.234
  0
LINE
  8
0
 10
68.5134
 20
-114.234
 11
68.6367
 21
-114.021
  0
LINE
  8
0
 10
68.6367
 20
-114.021
 11
68.7905
 21
-113.828
  0
LINE
  8
0
 10
68.7905
 20
-113.828
 11
68.9712
 21
-113.66
  0
LINE
  8
0
 10
68.9712
 20
-113.66
 11
69.175
 21
-113.521
  0
LINE
  8
0
 10
69.175
 20
-113.521
 11
69.3972
 21
-113.414
  0
LINE
  8
0
 10
69.3972
 20
-113.414
 11
69.6328
 21
-113.341
  0
LINE
  8
0
 10
69.6328
 20
-113.341
 11
69.8767
 21
-113.305
  0
LINE
  8
0
 10
69.8767
 20
-113.305
 11
110.123
 21
-113.305
  0
LINE
  8
0
 10
110.123
 20
-113.305
 11
110.367
 21
-113.341
  0
LINE
  8
0
 10
110.367
 20
-113.341
 11
110.603
 21
-113.414
  0
LINE
  8
0
 10
110.603
 20
-113.414
 11
110.825
 21
-113.521
  0
LINE
  8
0
 10
110.825
 20
-113.521
 11
111.029
 21
-113.66
  0
LINE
  8
0
 10
111.029
 20
-113.66
 11
111.21
 21
-113.828
  0
LINE
  8
0
 10
111.21
 20
-113.828
 11
111.363
 21
-114.021
  0
LINE
  8
0
 10
111.363
 20
-114.021
 11
111.487
 21
-114.234
  0
LINE
  8
0
 10
111.487
 20
-114.234
 11
111.577
 21
-114.464
  0
LINE
  8
0
 10
111.577
 20
-114.464
 11
111.632
 21
-114.704
  0
LINE
  8
0
 10
111.632
 20
-114.704
 11
111.65
 21
-114.95
  0
LINE
  8
0
 10
111.65
 20
-114.95
 11
111.632
 21
-115.196
  0
LINE
  8
0
 10
111.632
 20
-115.196
 11
111.577
 21
-115.436
  0
LINE
  8
0
 10
111.577
 20
-115.436
 11
111.487
 21
-115.666
  0
LINE
  8
0
 10
111.487
 20
-115.666
 11
111.363
 21
-115.879
  0
LINE
  8
0
 10
111.363
 20
-115.879
 11
111.21
 21
-116.072
  0
LINE
  8
0
 10
111.21
 20
-116.072
 11
111.029
 21
-116.24
  0
LINE
  8
0
 10
111.029
 20
-116.24
 11
110.825
 21
-116.379
  0
LINE
  8
0
 10
110.825
 20
-116.379
 11
110.603
 21
-116.486
  0
LINE
  8
0
 10
110.603
 20
-116.486
 11
110.367
 21
-116.559
  0
LINE
  8
0
 10
110.367
 20
-116.559
 11
110.123
 21
-116.595
  0
LINE
  8
0
 10
110.123
 20
-116.595
 11
69.8767
 21
-116.595
  0
LINE
  8
0
 10
-20.1233
 20
-116.595
 11
-20.3672
 21
-116.559
  0
LINE
  8
0
 10
-20.3672
 20
-116.559
 11
-20.6028
 21
-116.486
  0
LINE
  8
0
 10
-20.6028
 20
-116.486
 11
-20.825
 21
-116.379
  0
LINE
  8
0
 10
-20.825
 20
-116.379
 11
-21.0287
 21
-116.24
  0
LINE
  8
0
 10
-21.0287
 20
-116.24
 11
-21.2095
 21
-116.072
  0
LINE
  8
0
 10
-21.2095
 20
-116.072
 11
-21.3633
 21
-115.879
  0
LINE
  8
0
 10
-21.3633
 20
-115.879
 11
-21.4866
 21
-115.666
  0
LINE
  8
0
 10
-21.4866
 20
-115.666
 11
-21.5767
 21
-115.436
  0
LINE
  8
0
 10
-21.5767
 20
-115.436
 11
-21.6316
 21
-115.196
  0
LINE
  8
0
 10
-21.6316
 20
-115.196
 11
-21.65
 21
-114.95
  0
LINE
  8
0
 10
-21.65
 20
-114.95
 11
-21.6316
 21
-114.704
  0
LINE
  8
0
 10
-21.6316
 20
-114.704
 11
-21.5767
 21
-114.464
  0
LINE
  8
0
 10
-21.5767
 20
-114.464
 11
-21.4866
 21
-114.234
  0
LINE
  8
0
 10
-21.4866
 20
-114.234
 11
-21.3633
 21
-114.021
  0
LINE
  8
0
 10
-21.3633
 20
-114.021
 11
-21.2095
 21
-113.828
  0
LINE
  8
0
 10
-21.2095
 20
-113.828
 11
-21.0287
 21
-113.66
  0
LINE
  8
0
 10
-21.0287
 20
-113.66
 11
-20.825
 21
-113.521
  0
LINE
  8
0
 10
-20.825
 20
-113.521
 11
-20.6028
 21
-113.414
  0
LINE
  8
0
 10
-20.6028
 20
-113.414
 11
-20.3672
 21
-113.341
  0
LINE
  8
0
 10
-20.3672
 20
-113.341
 11
-20.1233
 21
-113.305
  0
LINE
  8
0
 10
-20.1233
 20
-113.305
 11
20.1233
 21
-113.305
  0
LINE
  8
0
 10
20.1233
 20
-113.305
 11
20.3672
 21
-113.341
  0
LINE
  8
0
 10
20.3672
 20
-113.341
 11
20.6028
 21
-113.414
  0
LINE
  8
0
 10
20.6028
 20
-113.414
 11
20.825
 21
-113.521
  0
LINE
  8
0
 10
20.825
 20
-113.521
 11
21.0287
 21
-113.66
  0
LINE
  8
0
 10
21.0287
 20
-113.66
 11
21.2095
 21
-113.828
  0
LINE
  8
0
 10
21.2095
 20
-113.828
 11
21.3633
 21
-114.021
  0
LINE
  8
0
 10
21.3633
 20
-114.021
 11
21.4866
 21
-114.234
  0
LINE
  8
0
 10
21.4866
 20
-114.234
 11
21.5767
 21
-114.464
  0
LINE
  8
0
 10
21.5767
 20
-114.464
 11
21.6316
 21
-114.704
  0
LINE
  8
0
 10
21.6316
 20
-114.704
 11
21.65
 21
-114.95
  0
LINE
  8
0
 10
21.65
 20
-114.95
 11
21.6316
 21
-115.196
  0
LINE
  8
0
 10
21.6316
 20
-115.196
 11
21.5767
 21
-115.436
  0
LINE
  8
0
 10
21.5767
 20
-115.436
 11
21.4866
 21
-115.666
  0
LINE
  8
0
 10
21.4866
 20
-115.666
 11
21.3633
 21
-115.879
  0
LINE
  8
0
 10
21.3633
 20
-115.879
 11
21.2095
 21
-116.072
  0
LINE
  8
0
 10
21.2095
 20
-116.072
 11
21.0287
 21
-116.24
  0
LINE
  8
0
 10
21.0287
 20
-116.24
 11
20.825
 21
-116.379
  0
LINE
  8
0
 10
20.825
 20
-116.379
 11
20.6028
 21
-116.486
  0
LINE
  8
0
 10
20.6028
 20
-116.486
 11
20.3672
 21
-116.559
  0
LINE
  8
0
 10
20.3672
 20
-116.559
 11
20.1233
 21
-116.595
  0
LINE
  8
0
 10
20.1233
 20
-116.595
 11
-20.1233
 21
-116.595
  0
LINE
  8
0
 10
-110.123
 20
-116.595
 11
-110.367
 21
-116.559
  0
LINE
  8
0
 10
-110.367
 20
-116.559
 11
-110.603
 21
-116.486
  0
LINE
  8
0
 10
-110.603
 20
-116.486
 11
-110.825
 21
-116.379
  0
LINE
  8
0
 10
-110.825
 20
-116.379
 11
-111.029
 21
-116.24
  0
LINE
  8
0
 10
-111.029
 20
-116.24
 11
-111.21
 21
-116.072
  0
LINE
  8
0
 10
-111.21
 20
-116.072
 11
-111.363
 21
-115.879
  0
LINE
  8
0
 10
-111.363
 20
-115.879
 11
-111.487
 21
-115.666
  0
LINE
  8
0
 10
-111.487
 20
-115.666
 11
-111.577
 21
-115.436
  0
LINE
  8
0
 10
-111.577
 20
-115.436
 11
-111.632
 21
-115.196
  0
LINE
  8
0
 10
-111.632
 20
-115.196
 11
-111.65
 21
-114.95
  0
LINE
  8
0
 10
-111.65
 20
-114.95
 11
-111.632
 21
-114.704
  0
LINE
  8
0
 10
-111.632
 20
-114.704
 11
-111.577
 21
-114.464
  0
LINE
  8
0
 10
-111.577
 20
-114.464
 11
-111.487
 21
-114.234
  0
LINE
  8
0
 10
-111.487
 20
-114.234
 11
-111.363
 21
-114.021
  0
LINE
  8
0
 10
-111.363
 20
-114.021
 11
-111.21
 21
-113.828
  0
LINE
  8
0
 10
-111.21
 20
-113.828
 11
-111.029
 21
-113.66
  0
LINE
  8
0
 10
-111.029
 20
-113.66
 11
-110.825
 21
-113.521
  0
LINE
  8
0
 10
-110.825
 20
-113.521
 11
-110.603
 21
-113.414
  0
LINE
  8
0
 10
-110.603
 20
-113.414
 11
-110.367
 21
-113.341
  0
LINE
  8
0
 10
-110.367
 20
-113.341
 11
-110.123
 21
-113.305
  0
LINE
  8
0
 10
-110.123
 20
-113.305
 11
-69.8767
 21
-113.305
  0
LINE
  8
0
 10
-69.8767
 20
-113.305
 11
-69.6328
 21
-113.341
  0
LINE
  8
0
 10
-69.6328
 20
-113.341
 11
-69.3972
 21
-113.414
  0
LINE
  8
0
 10
-69.3972
 20
-113.414
 11
-69.175
 21
-113.521
  0
LINE
  8
0
 10
-69.175
 20
-113.521
 11
-68.9712
 21
-113.66
  0
LINE
  8
0
 10
-68.9712
 20
-113.66
 11
-68.7905
 21
-113.828
  0
LINE
  8
0
 10
-68.7905
 20
-113.828
 11
-68.6367
 21
-114.021
  0
LINE
  8
0
 10
-68.6367
 20
-114.021
 11
-68.5134
 21
-114.234
  0
LINE
  8
0
 10
-68.5134
 20
-114.234
 11
-68.4233
 21
-114.464
  0
LINE
  8
0
 10
-68.4233
 20
-114.464
 11
-68.3684
 21
-114.704
  0
LINE
  8
0
 10
-68.3684
 20
-114.704
 11
-68.35
 21
-114.95
  0
LINE
  8
0
 10
-68.35
 20
-114.95
 11
-68.3684
 21
-115.196
  0
LINE
  8
0
 10
-68.3684
 20
-115.196
 11
-68.4233
 21
-115.436
  0
LINE
  8
0
 10
-68.4233
 20
-115.436
 11
-68.5134
 21
-115.666
  0
LINE
  8
0
 10
-68.5134
 20
-115.666
 11
-68.6367
 21
-115.879
  0
LINE
  8
0
 10
-68.6367
 20
-115.879
 11
-68.7905
 21
-116.072
  0
LINE
  8
0
 10
-68.7905
 20
-116.072
 11
-68.9712
 21
-116.24
  0
LINE
  8
0
 10
-68.9712
 20
-116.24
 11
-69.175
 21
-116.379
  0
LINE
  8
0
 10
-69.175
 20
-116.379
 11
-69.3972
 21
-116.486
  0
LINE
  8
0
 10
-69.3972
 20
-116.486
 11
-69.6328
 21
-116.559
  0
LINE
  8
0
 10
-69.6328
 20
-116.559
 11
-69.8767
 21
-116.595
  0
LINE
  8
0
 10
-69.8767
 20
-116.595
 11
-110.123
 21
-116.595
  0
ENDSEC
  0
SECTION
  2
OBJECTS
  0
DICTIONARY
  0
ENDSEC
  0
EOF
