  0
SECTION
  2
BLOCKS
  0
ENDSEC
  0
SECTION
  2
ENTITIES
  0
LINE
  8
0
 10
315.398
 20
-107.348
 11
315.915
 21
-107.266
  0
LINE
  8
0
 10
315.915
 20
-107.266
 11
316.42
 21
-107.13
  0
LINE
  8
0
 10
316.42
 20
-107.13
 11
316.909
 21
-106.943
  0
LINE
  8
0
 10
316.909
 20
-106.943
 11
317.375
 21
-106.705
  0
LINE
  8
0
 10
317.375
 20
-106.705
 11
317.814
 21
-106.42
  0
LINE
  8
0
 10
317.814
 20
-106.42
 11
318.221
 21
-106.091
  0
LINE
  8
0
 10
318.221
 20
-106.091
 11
318.591
 21
-105.721
  0
LINE
  8
0
 10
318.591
 20
-105.721
 11
318.92
 21
-105.314
  0
LINE
  8
0
 10
318.92
 20
-105.314
 11
319.205
 21
-104.875
  0
LINE
  8
0
 10
319.205
 20
-104.875
 11
319.443
 21
-104.409
  0
LINE
  8
0
 10
319.443
 20
-104.409
 11
319.63
 21
-103.92
  0
LINE
  8
0
 10
319.63
 20
-103.92
 11
319.766
 21
-103.415
  0
LINE
  8
0
 10
319.766
 20
-103.415
 11
319.848
 21
-102.898
  0
LINE
  8
0
 10
319.848
 20
-102.898
 11
319.875
 21
-102.375
  0
LINE
  8
0
 10
319.875
 20
-102.375
 11
319.875
 21
102.375
  0
LINE
  8
0
 10
319.875
 20
102.375
 11
319.848
 21
102.898
  0
LINE
  8
0
 10
319.848
 20
102.898
 11
319.766
 21
103.415
  0
LINE
  8
0
 10
319.766
 20
103.415
 11
319.63
 21
103.92
  0
LINE
  8
0
 10
319.63
 20
103.92
 11
319.443
 21
104.409
  0
LINE
  8
0
 10
319.443
 20
104.409
 11
319.205
 21
104.875
  0
LINE
  8
0
 10
319.205
 20
104.875
 11
318.92
 21
105.314
  0
LINE
  8
0
 10
318.92
 20
105.314
 11
318.591
 21
105.721
  0
LINE
  8
0
 10
318.591
 20
105.721
 11
318.221
 21
106.091
  0
LINE
  8
0
 10
318.221
 20
106.091
 11
317.814
 21
106.42
  0
LINE
  8
0
 10
317.814
 20
106.42
 11
317.375
 21
106.705
  0
LINE
  8
0
 10
317.375
 20
106.705
 11
316.909
 21
106.943
  0
LINE
  8
0
 10
316.909
 20
106.943
 11
316.42
 21
107.13
  0
LINE
  8
0
 10
316.42
 20
107.13
 11
315.915
 21
107.266
  0
LINE
  8
0
 10
315.915
 20
107.266
 11
315.398
 21
107.348
  0
LINE
  8
0
 10
315.398
 20
107.348
 11
314.875
 21
107.375
  0
LINE
  8
0
 10
314.875
 20
107.375
 11
-314.875
 21
107.375
  0
LINE
  8
0
 10
-314.875
 20
107.375
 11
-315.398
 21
107.348
  0
LINE
  8
0
 10
-315.398
 20
107.348
 11
-315.915
 21
107.266
  0
LINE
  8
0
 10
-315.915
 20
107.266
 11
-316.42
 21
107.13
  0
LINE
  8
0
 10
-316.42
 20
107.13
 11
-316.909
 21
106.943
  0
LINE
  8
0
 10
-316.909
 20
106.943
 11
-317.375
 21
106.705
  0
LINE
  8
0
 10
-317.375
 20
106.705
 11
-317.814
 21
106.42
  0
LINE
  8
0
 10
-317.814
 20
106.42
 11
-318.221
 21
106.091
  0
LINE
  8
0
 10
-318.221
 20
106.091
 11
-318.591
 21
105.721
  0
LINE
  8
0
 10
-318.591
 20
105.721
 11
-318.92
 21
105.314
  0
LINE
  8
0
 10
-318.92
 20
105.314
 11
-319.205
 21
104.875
  0
LINE
  8
0
 10
-319.205
 20
104.875
 11
-319.443
 21
104.409
  0
LINE
  8
0
 10
-319.443
 20
104.409
 11
-319.63
 21
103.92
  0
LINE
  8
0
 10
-319.63
 20
103.92
 11
-319.766
 21
103.415
  0
LINE
  8
0
 10
-319.766
 20
103.415
 11
-319.848
 21
102.898
  0
LINE
  8
0
 10
-319.848
 20
102.898
 11
-319.875
 21
102.375
  0
LINE
  8
0
 10
-319.875
 20
102.375
 11
-319.875
 21
-102.375
  0
LINE
  8
0
 10
-319.875
 20
-102.375
 11
-319.848
 21
-102.898
  0
LINE
  8
0
 10
-319.848
 20
-102.898
 11
-319.766
 21
-103.415
  0
LINE
  8
0
 10
-319.766
 20
-103.415
 11
-319.63
 21
-103.92
  0
LINE
  8
0
 10
-319.63
 20
-103.92
 11
-319.443
 21
-104.409
  0
LINE
  8
0
 10
-319.443
 20
-104.409
 11
-319.205
 21
-104.875
  0
LINE
  8
0
 10
-319.205
 20
-104.875
 11
-318.92
 21
-105.314
  0
LINE
  8
0
 10
-318.92
 20
-105.314
 11
-318.591
 21
-105.721
  0
LINE
  8
0
 10
-318.591
 20
-105.721
 11
-318.221
 21
-106.091
  0
LINE
  8
0
 10
-318.221
 20
-106.091
 11
-317.814
 21
-106.42
  0
LINE
  8
0
 10
-317.814
 20
-106.42
 11
-317.375
 21
-106.705
  0
LINE
  8
0
 10
-317.375
 20
-106.705
 11
-316.909
 21
-106.943
  0
LINE
  8
0
 10
-316.909
 20
-106.943
 11
-316.42
 21
-107.13
  0
LINE
  8
0
 10
-316.42
 20
-107.13
 11
-315.915
 21
-107.266
  0
LINE
  8
0
 10
-315.915
 20
-107.266
 11
-315.398
 21
-107.348
  0
LINE
  8
0
 10
-315.398
 20
-107.348
 11
-314.875
 21
-107.375
  0
LINE
  8
0
 10
-314.875
 20
-107.375
 11
314.875
 21
-107.375
  0
LINE
  8
0
 10
314.875
 20
-107.375
 11
315.398
 21
-107.348
  0
LINE
  8
0
 10
297.108
 20
81.2705
 11
296.72
 21
81.3319
  0
LINE
  8
0
 10
296.72
 20
81.3319
 11
296.341
 21
81.4335
  0
LINE
  8
0
 10
296.341
 20
81.4335
 11
295.975
 21
81.5742
  0
LINE
  8
0
 10
295.975
 20
81.5742
 11
295.625
 21
81.7524
  0
LINE
  8
0
 10
295.625
 20
81.7524
 11
295.296
 21
81.9662
  0
LINE
  8
0
 10
295.296
 20
81.9662
 11
294.991
 21
82.2132
  0
LINE
  8
0
 10
294.991
 20
82.2132
 11
294.713
 21
82.4908
  0
LINE
  8
0
 10
294.713
 20
82.4908
 11
294.466
 21
82.7958
  0
LINE
  8
0
 10
294.466
 20
82.7958
 11
294.252
 21
83.125
  0
LINE
  8
0
 10
294.252
 20
83.125
 11
294.074
 21
83.4747
  0
LINE
  8
0
 10
294.074
 20
83.4747
 11
293.934
 21
83.8412
  0
LINE
  8
0
 10
293.934
 20
83.8412
 11
293.832
 21
84.2203
  0
LINE
  8
0
 10
293.832
 20
84.2203
 11
293.771
 21
84.608
  0
LINE
  8
0
 10
293.771
 20
84.608
 11
293.75
 21
85
  0
LINE
  8
0
 10
293.75
 20
85
 11
293.771
 21
85.392
  0
LINE
  8
0
 10
293.771
 20
85.392
 11
293.832
 21
85.7797
  0
LINE
  8
0
 10
293.832
 20
85.7797
 11
293.934
 21
86.1588
  0
LINE
  8
0
 10
293.934
 20
86.1588
 11
294.074
 21
86.5253
  0
LINE
  8
0
 10
294.074
 20
86.5253
 11
294.252
 21
86.875
  0
LINE
  8
0
 10
294.252
 20
86.875
 11
294.466
 21
87.2042
  0
LINE
  8
0
 10
294.466
 20
87.2042
 11
294.713
 21
87.5092
  0
LINE
  8
0
 10
294.713
 20
87.5092
 11
294.991
 21
87.7868
  0
LINE
  8
0
 10
294.991
 20
87.7868
 11
295.296
 21
88.0338
  0
LINE
  8
0
 10
295.296
 20
88.0338
 11
295.625
 21
88.2476
  0
LINE
  8
0
 10
295.625
 20
88.2476
 11
295.975
 21
88.4258
  0
LINE
  8
0
 10
295.975
 20
88.4258
 11
296.341
 21
88.5665
  0
LINE
  8
0
 10
296.341
 20
88.5665
 11
296.72
 21
88.668
  0
LINE
  8
0
 10
296.72
 20
88.668
 11
297.108
 21
88.7294
  0
LINE
  8
0
 10
297.108
 20
88.7294
 11
297.5
 21
88.75
  0
LINE
  8
0
 10
297.5
 20
88.75
 11
297.892
 21
88.7294
  0
LINE
  8
0
 10
297.892
 20
88.7294
 11
298.28
 21
88.668
  0
LINE
  8
0
 10
298.28
 20
88.668
 11
298.659
 21
88.5665
  0
LINE
  8
0
 10
298.659
 20
88.5665
 11
299.025
 21
88.4258
  0
LINE
  8
0
 10
299.025
 20
88.4258
 11
299.375
 21
88.2476
  0
LINE
  8
0
 10
299.375
 20
88.2476
 11
299.704
 21
88.0338
  0
LINE
  8
0
 10
299.704
 20
88.0338
 11
300.009
 21
87.7868
  0
LINE
  8
0
 10
300.009
 20
87.7868
 11
300.287
 21
87.5092
  0
LINE
  8
0
 10
300.287
 20
87.5092
 11
300.534
 21
87.2042
  0
LINE
  8
0
 10
300.534
 20
87.2042
 11
300.748
 21
86.875
  0
LINE
  8
0
 10
300.748
 20
86.875
 11
300.926
 21
86.5253
  0
LINE
  8
0
 10
300.926
 20
86.5253
 11
301.066
 21
86.1588
  0
LINE
  8
0
 10
301.066
 20
86.1588
 11
301.168
 21
85.7797
  0
LINE
  8
0
 10
301.168
 20
85.7797
 11
301.229
 21
85.392
  0
LINE
  8
0
 10
301.229
 20
85.392
 11
301.25
 21
85
  0
LINE
  8
0
 10
301.25
 20
85
 11
301.229
 21
84.608
  0
LINE
  8
0
 10
301.229
 20
84.608
 11
301.168
 21
84.2203
  0
LINE
  8
0
 10
301.168
 20
84.2203
 11
301.066
 21
83.8412
  0
LINE
  8
0
 10
301.066
 20
83.8412
 11
300.926
 21
83.4747
  0
LINE
  8
0
 10
300.926
 20
83.4747
 11
300.748
 21
83.125
  0
LINE
  8
0
 10
300.748
 20
83.125
 11
300.534
 21
82.7958
  0
LINE
  8
0
 10
300.534
 20
82.7958
 11
300.287
 21
82.4908
  0
LINE
  8
0
 10
300.287
 20
82.4908
 11
300.009
 21
82.2132
  0
LINE
  8
0
 10
300.009
 20
82.2132
 11
299.704
 21
81.9662
  0
LINE
  8
0
 10
299.704
 20
81.9662
 11
299.375
 21
81.7524
  0
LINE
  8
0
 10
299.375
 20
81.7524
 11
299.025
 21
81.5742
  0
LINE
  8
0
 10
299.025
 20
81.5742
 11
298.659
 21
81.4335
  0
LINE
  8
0
 10
298.659
 20
81.4335
 11
298.28
 21
81.3319
  0
LINE
  8
0
 10
298.28
 20
81.3319
 11
297.892
 21
81.2705
  0
LINE
  8
0
 10
297.892
 20
81.2705
 11
297.5
 21
81.25
  0
LINE
  8
0
 10
297.5
 20
81.25
 11
297.108
 21
81.2705
  0
LINE
  8
0
 10
-297.892
 20
81.2705
 11
-298.28
 21
81.3319
  0
LINE
  8
0
 10
-298.28
 20
81.3319
 11
-298.659
 21
81.4335
  0
LINE
  8
0
 10
-298.659
 20
81.4335
 11
-299.025
 21
81.5742
  0
LINE
  8
0
 10
-299.025
 20
81.5742
 11
-299.375
 21
81.7524
  0
LINE
  8
0
 10
-299.375
 20
81.7524
 11
-299.704
 21
81.9662
  0
LINE
  8
0
 10
-299.704
 20
81.9662
 11
-300.009
 21
82.2132
  0
LINE
  8
0
 10
-300.009
 20
82.2132
 11
-300.287
 21
82.4908
  0
LINE
  8
0
 10
-300.287
 20
82.4908
 11
-300.534
 21
82.7958
  0
LINE
  8
0
 10
-300.534
 20
82.7958
 11
-300.748
 21
83.125
  0
LINE
  8
0
 10
-300.748
 20
83.125
 11
-300.926
 21
83.4747
  0
LINE
  8
0
 10
-300.926
 20
83.4747
 11
-301.066
 21
83.8412
  0
LINE
  8
0
 10
-301.066
 20
83.8412
 11
-301.168
 21
84.2203
  0
LINE
  8
0
 10
-301.168
 20
84.2203
 11
-301.229
 21
84.608
  0
LINE
  8
0
 10
-301.229
 20
84.608
 11
-301.25
 21
85
  0
LINE
  8
0
 10
-301.25
 20
85
 11
-301.229
 21
85.392
  0
LINE
  8
0
 10
-301.229
 20
85.392
 11
-301.168
 21
85.7797
  0
LINE
  8
0
 10
-301.168
 20
85.7797
 11
-301.066
 21
86.1588
  0
LINE
  8
0
 10
-301.066
 20
86.1588
 11
-300.926
 21
86.5253
  0
LINE
  8
0
 10
-300.926
 20
86.5253
 11
-300.748
 21
86.875
  0
LINE
  8
0
 10
-300.748
 20
86.875
 11
-300.534
 21
87.2042
  0
LINE
  8
0
 10
-300.534
 20
87.2042
 11
-300.287
 21
87.5092
  0
LINE
  8
0
 10
-300.287
 20
87.5092
 11
-300.009
 21
87.7868
  0
LINE
  8
0
 10
-300.009
 20
87.7868
 11
-299.704
 21
88.0338
  0
LINE
  8
0
 10
-299.704
 20
88.0338
 11
-299.375
 21
88.2476
  0
LINE
  8
0
 10
-299.375
 20
88.2476
 11
-299.025
 21
88.4258
  0
LINE
  8
0
 10
-299.025
 20
88.4258
 11
-298.659
 21
88.5665
  0
LINE
  8
0
 10
-298.659
 20
88.5665
 11
-298.28
 21
88.668
  0
LINE
  8
0
 10
-298.28
 20
88.668
 11
-297.892
 21
88.7294
  0
LINE
  8
0
 10
-297.892
 20
88.7294
 11
-297.5
 21
88.75
  0
LINE
  8
0
 10
-297.5
 20
88.75
 11
-297.108
 21
88.7294
  0
LINE
  8
0
 10
-297.108
 20
88.7294
 11
-296.72
 21
88.668
  0
LINE
  8
0
 10
-296.72
 20
88.668
 11
-296.341
 21
88.5665
  0
LINE
  8
0
 10
-296.341
 20
88.5665
 11
-295.975
 21
88.4258
  0
LINE
  8
0
 10
-295.975
 20
88.4258
 11
-295.625
 21
88.2476
  0
LINE
  8
0
 10
-295.625
 20
88.2476
 11
-295.296
 21
88.0338
  0
LINE
  8
0
 10
-295.296
 20
88.0338
 11
-294.991
 21
87.7868
  0
LINE
  8
0
 10
-294.991
 20
87.7868
 11
-294.713
 21
87.5092
  0
LINE
  8
0
 10
-294.713
 20
87.5092
 11
-294.466
 21
87.2042
  0
LINE
  8
0
 10
-294.466
 20
87.2042
 11
-294.252
 21
86.875
  0
LINE
  8
0
 10
-294.252
 20
86.875
 11
-294.074
 21
86.5253
  0
LINE
  8
0
 10
-294.074
 20
86.5253
 11
-293.934
 21
86.1588
  0
LINE
  8
0
 10
-293.934
 20
86.1588
 11
-293.832
 21
85.7797
  0
LINE
  8
0
 10
-293.832
 20
85.7797
 11
-293.771
 21
85.392
  0
LINE
  8
0
 10
-293.771
 20
85.392
 11
-293.75
 21
85
  0
LINE
  8
0
 10
-293.75
 20
85
 11
-293.771
 21
84.608
  0
LINE
  8
0
 10
-293.771
 20
84.608
 11
-293.832
 21
84.2203
  0
LINE
  8
0
 10
-293.832
 20
84.2203
 11
-293.934
 21
83.8412
  0
LINE
  8
0
 10
-293.934
 20
83.8412
 11
-294.074
 21
83.4747
  0
LINE
  8
0
 10
-294.074
 20
83.4747
 11
-294.252
 21
83.125
  0
LINE
  8
0
 10
-294.252
 20
83.125
 11
-294.466
 21
82.7958
  0
LINE
  8
0
 10
-294.466
 20
82.7958
 11
-294.713
 21
82.4908
  0
LINE
  8
0
 10
-294.713
 20
82.4908
 11
-294.991
 21
82.2132
  0
LINE
  8
0
 10
-294.991
 20
82.2132
 11
-295.296
 21
81.9662
  0
LINE
  8
0
 10
-295.296
 20
81.9662
 11
-295.625
 21
81.7524
  0
LINE
  8
0
 10
-295.625
 20
81.7524
 11
-295.975
 21
81.5742
  0
LINE
  8
0
 10
-295.975
 20
81.5742
 11
-296.341
 21
81.4335
  0
LINE
  8
0
 10
-296.341
 20
81.4335
 11
-296.72
 21
81.3319
  0
LINE
  8
0
 10
-296.72
 20
81.3319
 11
-297.108
 21
81.2705
  0
LINE
  8
0
 10
-297.108
 20
81.2705
 11
-297.5
 21
81.25
  0
LINE
  8
0
 10
-297.5
 20
81.25
 11
-297.892
 21
81.2705
  0
LINE
  8
0
 10
64.8767
 20
83.3546
 11
64.6328
 21
83.3914
  0
LINE
  8
0
 10
64.6328
 20
83.3914
 11
64.3972
 21
83.4641
  0
LINE
  8
0
 10
64.3972
 20
83.4641
 11
64.175
 21
83.5711
  0
LINE
  8
0
 10
64.175
 20
83.5711
 11
63.9712
 21
83.71
  0
LINE
  8
0
 10
63.9712
 20
83.71
 11
63.7905
 21
83.8777
  0
LINE
  8
0
 10
63.7905
 20
83.8777
 11
63.6367
 21
84.0705
  0
LINE
  8
0
 10
63.6367
 20
84.0705
 11
63.5134
 21
84.2841
  0
LINE
  8
0
 10
63.5134
 20
84.2841
 11
63.4233
 21
84.5137
  0
LINE
  8
0
 10
63.4233
 20
84.5137
 11
63.3684
 21
84.7541
  0
LINE
  8
0
 10
63.3684
 20
84.7541
 11
63.35
 21
85
  0
LINE
  8
0
 10
63.35
 20
85
 11
63.3684
 21
85.2459
  0
LINE
  8
0
 10
63.3684
 20
85.2459
 11
63.4233
 21
85.4863
  0
LINE
  8
0
 10
63.4233
 20
85.4863
 11
63.5134
 21
85.7159
  0
LINE
  8
0
 10
63.5134
 20
85.7159
 11
63.6367
 21
85.9295
  0
LINE
  8
0
 10
63.6367
 20
85.9295
 11
63.7905
 21
86.1223
  0
LINE
  8
0
 10
63.7905
 20
86.1223
 11
63.9712
 21
86.29
  0
LINE
  8
0
 10
63.9712
 20
86.29
 11
64.175
 21
86.4289
  0
LINE
  8
0
 10
64.175
 20
86.4289
 11
64.3972
 21
86.5359
  0
LINE
  8
0
 10
64.3972
 20
86.5359
 11
64.6328
 21
86.6086
  0
LINE
  8
0
 10
64.6328
 20
86.6086
 11
64.8767
 21
86.6454
  0
LINE
  8
0
 10
64.8767
 20
86.6454
 11
105.123
 21
86.6454
  0
LINE
  8
0
 10
105.123
 20
86.6454
 11
105.367
 21
86.6086
  0
LINE
  8
0
 10
105.367
 20
86.6086
 11
105.603
 21
86.5359
  0
LINE
  8
0
 10
105.603
 20
86.5359
 11
105.825
 21
86.4289
  0
LINE
  8
0
 10
105.825
 20
86.4289
 11
106.029
 21
86.29
  0
LINE
  8
0
 10
106.029
 20
86.29
 11
106.21
 21
86.1223
  0
LINE
  8
0
 10
106.21
 20
86.1223
 11
106.363
 21
85.9295
  0
LINE
  8
0
 10
106.363
 20
85.9295
 11
106.487
 21
85.7159
  0
LINE
  8
0
 10
106.487
 20
85.7159
 11
106.577
 21
85.4863
  0
LINE
  8
0
 10
106.577
 20
85.4863
 11
106.632
 21
85.2459
  0
LINE
  8
0
 10
106.632
 20
85.2459
 11
106.65
 21
85
  0
LINE
  8
0
 10
106.65
 20
85
 11
106.632
 21
84.7541
  0
LINE
  8
0
 10
106.632
 20
84.7541
 11
106.577
 21
84.5137
  0
LINE
  8
0
 10
106.577
 20
84.5137
 11
106.487
 21
84.2841
  0
LINE
  8
0
 10
106.487
 20
84.2841
 11
106.363
 21
84.0705
  0
LINE
  8
0
 10
106.363
 20
84.0705
 11
106.21
 21
83.8777
  0
LINE
  8
0
 10
106.21
 20
83.8777
 11
106.029
 21
83.71
  0
LINE
  8
0
 10
106.029
 20
83.71
 11
105.825
 21
83.5711
  0
LINE
  8
0
 10
105.825
 20
83.5711
 11
105.603
 21
83.4641
  0
LINE
  8
0
 10
105.603
 20
83.4641
 11
105.367
 21
83.3914
  0
LINE
  8
0
 10
105.367
 20
83.3914
 11
105.123
 21
83.3546
  0
LINE
  8
0
 10
105.123
 20
83.3546
 11
64.8767
 21
83.3546
  0
LINE
  8
0
 10
-275.123
 20
83.3546
 11
-275.367
 21
83.3914
  0
LINE
  8
0
 10
-275.367
 20
83.3914
 11
-275.603
 21
83.4641
  0
LINE
  8
0
 10
-275.603
 20
83.4641
 11
-275.825
 21
83.5711
  0
LINE
  8
0
 10
-275.825
 20
83.5711
 11
-276.029
 21
83.71
  0
LINE
  8
0
 10
-276.029
 20
83.71
 11
-276.21
 21
83.8777
  0
LINE
  8
0
 10
-276.21
 20
83.8777
 11
-276.363
 21
84.0705
  0
LINE
  8
0
 10
-276.363
 20
84.0705
 11
-276.487
 21
84.2841
  0
LINE
  8
0
 10
-276.487
 20
84.2841
 11
-276.577
 21
84.5137
  0
LINE
  8
0
 10
-276.577
 20
84.5137
 11
-276.632
 21
84.7541
  0
LINE
  8
0
 10
-276.632
 20
84.7541
 11
-276.65
 21
85
  0
LINE
  8
0
 10
-276.65
 20
85
 11
-276.632
 21
85.2459
  0
LINE
  8
0
 10
-276.632
 20
85.2459
 11
-276.577
 21
85.4863
  0
LINE
  8
0
 10
-276.577
 20
85.4863
 11
-276.487
 21
85.7159
  0
LINE
  8
0
 10
-276.487
 20
85.7159
 11
-276.363
 21
85.9295
  0
LINE
  8
0
 10
-276.363
 20
85.9295
 11
-276.21
 21
86.1223
  0
LINE
  8
0
 10
-276.21
 20
86.1223
 11
-276.029
 21
86.29
  0
LINE
  8
0
 10
-276.029
 20
86.29
 11
-275.825
 21
86.4289
  0
LINE
  8
0
 10
-275.825
 20
86.4289
 11
-275.603
 21
86.5359
  0
LINE
  8
0
 10
-275.603
 20
86.5359
 11
-275.367
 21
86.6086
  0
LINE
  8
0
 10
-275.367
 20
86.6086
 11
-275.123
 21
86.6454
  0
LINE
  8
0
 10
-275.123
 20
86.6454
 11
-234.877
 21
86.6454
  0
LINE
  8
0
 10
-234.877
 20
86.6454
 11
-234.633
 21
86.6086
  0
LINE
  8
0
 10
-234.633
 20
86.6086
 11
-234.397
 21
86.5359
  0
LINE
  8
0
 10
-234.397
 20
86.5359
 11
-234.175
 21
86.4289
  0
LINE
  8
0
 10
-234.175
 20
86.4289
 11
-233.971
 21
86.29
  0
LINE
  8
0
 10
-233.971
 20
86.29
 11
-233.79
 21
86.1223
  0
LINE
  8
0
 10
-233.79
 20
86.1223
 11
-233.637
 21
85.9295
  0
LINE
  8
0
 10
-233.637
 20
85.9295
 11
-233.513
 21
85.7159
  0
LINE
  8
0
 10
-233.513
 20
85.7159
 11
-233.423
 21
85.4863
  0
LINE
  8
0
 10
-233.423
 20
85.4863
 11
-233.368
 21
85.2459
  0
LINE
  8
0
 10
-233.368
 20
85.2459
 11
-233.35
 21
85
  0
LINE
  8
0
 10
-233.35
 20
85
 11
-233.368
 21
84.7541
  0
LINE
  8
0
 10
-233.368
 20
84.7541
 11
-233.423
 21
84.5137
  0
LINE
  8
0
 10
-233.423
 20
84.5137
 11
-233.513
 21
84.2841
  0
LINE
  8
0
 10
-233.513
 20
84.2841
 11
-233.637
 21
84.0705
  0
LINE
  8
0
 10
-233.637
 20
84.0705
 11
-233.79
 21
83.8777
  0
LINE
  8
0
 10
-233.79
 20
83.8777
 11
-233.971
 21
83.71
  0
LINE
  8
0
 10
-233.971
 20
83.71
 11
-234.175
 21
83.5711
  0
LINE
  8
0
 10
-234.175
 20
83.5711
 11
-234.397
 21
83.4641
  0
LINE
  8
0
 10
-234.397
 20
83.4641
 11
-234.633
 21
83.3914
  0
LINE
  8
0
 10
-234.633
 20
83.3914
 11
-234.877
 21
83.3546
  0
LINE
  8
0
 10
-234.877
 20
83.3546
 11
-275.123
 21
83.3546
  0
LINE
  8
0
 10
-190.123
 20
83.3546
 11
-190.367
 21
83.3914
  0
LINE
  8
0
 10
-190.367
 20
83.3914
 11
-190.603
 21
83.4641
  0
LINE
  8
0
 10
-190.603
 20
83.4641
 11
-190.825
 21
83.5711
  0
LINE
  8
0
 10
-190.825
 20
83.5711
 11
-191.029
 21
83.71
  0
LINE
  8
0
 10
-191.029
 20
83.71
 11
-191.21
 21
83.8777
  0
LINE
  8
0
 10
-191.21
 20
83.8777
 11
-191.363
 21
84.0705
  0
LINE
  8
0
 10
-191.363
 20
84.0705
 11
-191.487
 21
84.2841
  0
LINE
  8
0
 10
-191.487
 20
84.2841
 11
-191.577
 21
84.5137
  0
LINE
  8
0
 10
-191.577
 20
84.5137
 11
-191.632
 21
84.7541
  0
LINE
  8
0
 10
-191.632
 20
84.7541
 11
-191.65
 21
85
  0
LINE
  8
0
 10
-191.65
 20
85
 11
-191.632
 21
85.2459
  0
LINE
  8
0
 10
-191.632
 20
85.2459
 11
-191.577
 21
85.4863
  0
LINE
  8
0
 10
-191.577
 20
85.4863
 11
-191.487
 21
85.7159
  0
LINE
  8
0
 10
-191.487
 20
85.7159
 11
-191.363
 21
85.9295
  0
LINE
  8
0
 10
-191.363
 20
85.9295
 11
-191.21
 21
86.1223
  0
LINE
  8
0
 10
-191.21
 20
86.1223
 11
-191.029
 21
86.29
  0
LINE
  8
0
 10
-191.029
 20
86.29
 11
-190.825
 21
86.4289
  0
LINE
  8
0
 10
-190.825
 20
86.4289
 11
-190.603
 21
86.5359
  0
LINE
  8
0
 10
-190.603
 20
86.5359
 11
-190.367
 21
86.6086
  0
LINE
  8
0
 10
-190.367
 20
86.6086
 11
-190.123
 21
86.6454
  0
LINE
  8
0
 10
-190.123
 20
86.6454
 11
-149.877
 21
86.6454
  0
LINE
  8
0
 10
-149.877
 20
86.6454
 11
-149.633
 21
86.6086
  0
LINE
  8
0
 10
-149.633
 20
86.6086
 11
-149.397
 21
86.5359
  0
LINE
  8
0
 10
-149.397
 20
86.5359
 11
-149.175
 21
86.4289
  0
LINE
  8
0
 10
-149.175
 20
86.4289
 11
-148.971
 21
86.29
  0
LINE
  8
0
 10
-148.971
 20
86.29
 11
-148.79
 21
86.1223
  0
LINE
  8
0
 10
-148.79
 20
86.1223
 11
-148.637
 21
85.9295
  0
LINE
  8
0
 10
-148.637
 20
85.9295
 11
-148.513
 21
85.7159
  0
LINE
  8
0
 10
-148.513
 20
85.7159
 11
-148.423
 21
85.4863
  0
LINE
  8
0
 10
-148.423
 20
85.4863
 11
-148.368
 21
85.2459
  0
LINE
  8
0
 10
-148.368
 20
85.2459
 11
-148.35
 21
85
  0
LINE
  8
0
 10
-148.35
 20
85
 11
-148.368
 21
84.7541
  0
LINE
  8
0
 10
-148.368
 20
84.7541
 11
-148.423
 21
84.5137
  0
LINE
  8
0
 10
-148.423
 20
84.5137
 11
-148.513
 21
84.2841
  0
LINE
  8
0
 10
-148.513
 20
84.2841
 11
-148.637
 21
84.0705
  0
LINE
  8
0
 10
-148.637
 20
84.0705
 11
-148.79
 21
83.8777
  0
LINE
  8
0
 10
-148.79
 20
83.8777
 11
-148.971
 21
83.71
  0
LINE
  8
0
 10
-148.971
 20
83.71
 11
-149.175
 21
83.5711
  0
LINE
  8
0
 10
-149.175
 20
83.5711
 11
-149.397
 21
83.4641
  0
LINE
  8
0
 10
-149.397
 20
83.4641
 11
-149.633
 21
83.3914
  0
LINE
  8
0
 10
-149.633
 20
83.3914
 11
-149.877
 21
83.3546
  0
LINE
  8
0
 10
-149.877
 20
83.3546
 11
-190.123
 21
83.3546
  0
LINE
  8
0
 10
-105.123
 20
83.3546
 11
-105.367
 21
83.3914
  0
LINE
  8
0
 10
-105.367
 20
83.3914
 11
-105.603
 21
83.4641
  0
LINE
  8
0
 10
-105.603
 20
83.4641
 11
-105.825
 21
83.5711
  0
LINE
  8
0
 10
-105.825
 20
83.5711
 11
-106.029
 21
83.71
  0
LINE
  8
0
 10
-106.029
 20
83.71
 11
-106.21
 21
83.8777
  0
LINE
  8
0
 10
-106.21
 20
83.8777
 11
-106.363
 21
84.0705
  0
LINE
  8
0
 10
-106.363
 20
84.0705
 11
-106.487
 21
84.2841
  0
LINE
  8
0
 10
-106.487
 20
84.2841
 11
-106.577
 21
84.5137
  0
LINE
  8
0
 10
-106.577
 20
84.5137
 11
-106.632
 21
84.7541
  0
LINE
  8
0
 10
-106.632
 20
84.7541
 11
-106.65
 21
85
  0
LINE
  8
0
 10
-106.65
 20
85
 11
-106.632
 21
85.2459
  0
LINE
  8
0
 10
-106.632
 20
85.2459
 11
-106.577
 21
85.4863
  0
LINE
  8
0
 10
-106.577
 20
85.4863
 11
-106.487
 21
85.7159
  0
LINE
  8
0
 10
-106.487
 20
85.7159
 11
-106.363
 21
85.9295
  0
LINE
  8
0
 10
-106.363
 20
85.9295
 11
-106.21
 21
86.1223
  0
LINE
  8
0
 10
-106.21
 20
86.1223
 11
-106.029
 21
86.29
  0
LINE
  8
0
 10
-106.029
 20
86.29
 11
-105.825
 21
86.4289
  0
LINE
  8
0
 10
-105.825
 20
86.4289
 11
-105.603
 21
86.5359
  0
LINE
  8
0
 10
-105.603
 20
86.5359
 11
-105.367
 21
86.6086
  0
LINE
  8
0
 10
-105.367
 20
86.6086
 11
-105.123
 21
86.6454
  0
LINE
  8
0
 10
-105.123
 20
86.6454
 11
-64.8767
 21
86.6454
  0
LINE
  8
0
 10
-64.8767
 20
86.6454
 11
-64.6328
 21
86.6086
  0
LINE
  8
0
 10
-64.6328
 20
86.6086
 11
-64.3972
 21
86.5359
  0
LINE
  8
0
 10
-64.3972
 20
86.5359
 11
-64.175
 21
86.4289
  0
LINE
  8
0
 10
-64.175
 20
86.4289
 11
-63.9712
 21
86.29
  0
LINE
  8
0
 10
-63.9712
 20
86.29
 11
-63.7905
 21
86.1223
  0
LINE
  8
0
 10
-63.7905
 20
86.1223
 11
-63.6367
 21
85.9295
  0
LINE
  8
0
 10
-63.6367
 20
85.9295
 11
-63.5134
 21
85.7159
  0
LINE
  8
0
 10
-63.5134
 20
85.7159
 11
-63.4233
 21
85.4863
  0
LINE
  8
0
 10
-63.4233
 20
85.4863
 11
-63.3684
 21
85.2459
  0
LINE
  8
0
 10
-63.3684
 20
85.2459
 11
-63.35
 21
85
  0
LINE
  8
0
 10
-63.35
 20
85
 11
-63.3684
 21
84.7541
  0
LINE
  8
0
 10
-63.3684
 20
84.7541
 11
-63.4233
 21
84.5137
  0
LINE
  8
0
 10
-63.4233
 20
84.5137
 11
-63.5134
 21
84.2841
  0
LINE
  8
0
 10
-63.5134
 20
84.2841
 11
-63.6367
 21
84.0705
  0
LINE
  8
0
 10
-63.6367
 20
84.0705
 11
-63.7905
 21
83.8777
  0
LINE
  8
0
 10
-63.7905
 20
83.8777
 11
-63.9712
 21
83.71
  0
LINE
  8
0
 10
-63.9712
 20
83.71
 11
-64.175
 21
83.5711
  0
LINE
  8
0
 10
-64.175
 20
83.5711
 11
-64.3972
 21
83.4641
  0
LINE
  8
0
 10
-64.3972
 20
83.4641
 11
-64.6328
 21
83.3914
  0
LINE
  8
0
 10
-64.6328
 20
83.3914
 11
-64.8767
 21
83.3546
  0
LINE
  8
0
 10
-64.8767
 20
83.3546
 11
-105.123
 21
83.3546
  0
LINE
  8
0
 10
149.877
 20
83.3546
 11
149.633
 21
83.3914
  0
LINE
  8
0
 10
149.633
 20
83.3914
 11
149.397
 21
83.4641
  0
LINE
  8
0
 10
149.397
 20
83.4641
 11
149.175
 21
83.5711
  0
LINE
  8
0
 10
149.175
 20
83.5711
 11
148.971
 21
83.71
  0
LINE
  8
0
 10
148.971
 20
83.71
 11
148.79
 21
83.8777
  0
LINE
  8
0
 10
148.79
 20
83.8777
 11
148.637
 21
84.0705
  0
LINE
  8
0
 10
148.637
 20
84.0705
 11
148.513
 21
84.2841
  0
LINE
  8
0
 10
148.513
 20
84.2841
 11
148.423
 21
84.5137
  0
LINE
  8
0
 10
148.423
 20
84.5137
 11
148.368
 21
84.7541
  0
LINE
  8
0
 10
148.368
 20
84.7541
 11
148.35
 21
85
  0
LINE
  8
0
 10
148.35
 20
85
 11
148.368
 21
85.2459
  0
LINE
  8
0
 10
148.368
 20
85.2459
 11
148.423
 21
85.4863
  0
LINE
  8
0
 10
148.423
 20
85.4863
 11
148.513
 21
85.7159
  0
LINE
  8
0
 10
148.513
 20
85.7159
 11
148.637
 21
85.9295
  0
LINE
  8
0
 10
148.637
 20
85.9295
 11
148.79
 21
86.1223
  0
LINE
  8
0
 10
148.79
 20
86.1223
 11
148.971
 21
86.29
  0
LINE
  8
0
 10
148.971
 20
86.29
 11
149.175
 21
86.4289
  0
LINE
  8
0
 10
149.175
 20
86.4289
 11
149.397
 21
86.5359
  0
LINE
  8
0
 10
149.397
 20
86.5359
 11
149.633
 21
86.6086
  0
LINE
  8
0
 10
149.633
 20
86.6086
 11
149.877
 21
86.6454
  0
LINE
  8
0
 10
149.877
 20
86.6454
 11
190.123
 21
86.6454
  0
LINE
  8
0
 10
190.123
 20
86.6454
 11
190.367
 21
86.6086
  0
LINE
  8
0
 10
190.367
 20
86.6086
 11
190.603
 21
86.5359
  0
LINE
  8
0
 10
190.603
 20
86.5359
 11
190.825
 21
86.4289
  0
LINE
  8
0
 10
190.825
 20
86.4289
 11
191.029
 21
86.29
  0
LINE
  8
0
 10
191.029
 20
86.29
 11
191.21
 21
86.1223
  0
LINE
  8
0
 10
191.21
 20
86.1223
 11
191.363
 21
85.9295
  0
LINE
  8
0
 10
191.363
 20
85.9295
 11
191.487
 21
85.7159
  0
LINE
  8
0
 10
191.487
 20
85.7159
 11
191.577
 21
85.4863
  0
LINE
  8
0
 10
191.577
 20
85.4863
 11
191.632
 21
85.2459
  0
LINE
  8
0
 10
191.632
 20
85.2459
 11
191.65
 21
85
  0
LINE
  8
0
 10
191.65
 20
85
 11
191.632
 21
84.7541
  0
LINE
  8
0
 10
191.632
 20
84.7541
 11
191.577
 21
84.5137
  0
LINE
  8
0
 10
191.577
 20
84.5137
 11
191.487
 21
84.2841
  0
LINE
  8
0
 10
191.487
 20
84.2841
 11
191.363
 21
84.0705
  0
LINE
  8
0
 10
191.363
 20
84.0705
 11
191.21
 21
83.8777
  0
LINE
  8
0
 10
191.21
 20
83.8777
 11
191.029
 21
83.71
  0
LINE
  8
0
 10
191.029
 20
83.71
 11
190.825
 21
83.5711
  0
LINE
  8
0
 10
190.825
 20
83.5711
 11
190.603
 21
83.4641
  0
LINE
  8
0
 10
190.603
 20
83.4641
 11
190.367
 21
83.3914
  0
LINE
  8
0
 10
190.367
 20
83.3914
 11
190.123
 21
83.3546
  0
LINE
  8
0
 10
190.123
 20
83.3546
 11
149.877
 21
83.3546
  0
LINE
  8
0
 10
234.877
 20
83.3546
 11
234.633
 21
83.3914
  0
LINE
  8
0
 10
234.633
 20
83.3914
 11
234.397
 21
83.4641
  0
LINE
  8
0
 10
234.397
 20
83.4641
 11
234.175
 21
83.5711
  0
LINE
  8
0
 10
234.175
 20
83.5711
 11
233.971
 21
83.71
  0
LINE
  8
0
 10
233.971
 20
83.71
 11
233.79
 21
83.8777
  0
LINE
  8
0
 10
233.79
 20
83.8777
 11
233.637
 21
84.0705
  0
LINE
  8
0
 10
233.637
 20
84.0705
 11
233.513
 21
84.2841
  0
LINE
  8
0
 10
233.513
 20
84.2841
 11
233.423
 21
84.5137
  0
LINE
  8
0
 10
233.423
 20
84.5137
 11
233.368
 21
84.7541
  0
LINE
  8
0
 10
233.368
 20
84.7541
 11
233.35
 21
85
  0
LINE
  8
0
 10
233.35
 20
85
 11
233.368
 21
85.2459
  0
LINE
  8
0
 10
233.368
 20
85.2459
 11
233.423
 21
85.4863
  0
LINE
  8
0
 10
233.423
 20
85.4863
 11
233.513
 21
85.7159
  0
LINE
  8
0
 10
233.513
 20
85.7159
 11
233.637
 21
85.9295
  0
LINE
  8
0
 10
233.637
 20
85.9295
 11
233.79
 21
86.1223
  0
LINE
  8
0
 10
233.79
 20
86.1223
 11
233.971
 21
86.29
  0
LINE
  8
0
 10
233.971
 20
86.29
 11
234.175
 21
86.4289
  0
LINE
  8
0
 10
234.175
 20
86.4289
 11
234.397
 21
86.5359
  0
LINE
  8
0
 10
234.397
 20
86.5359
 11
234.633
 21
86.6086
  0
LINE
  8
0
 10
234.633
 20
86.6086
 11
234.877
 21
86.6454
  0
LINE
  8
0
 10
234.877
 20
86.6454
 11
275.123
 21
86.6454
  0
LINE
  8
0
 10
275.123
 20
86.6454
 11
275.367
 21
86.6086
  0
LINE
  8
0
 10
275.367
 20
86.6086
 11
275.603
 21
86.5359
  0
LINE
  8
0
 10
275.603
 20
86.5359
 11
275.825
 21
86.4289
  0
LINE
  8
0
 10
275.825
 20
86.4289
 11
276.029
 21
86.29
  0
LINE
  8
0
 10
276.029
 20
86.29
 11
276.21
 21
86.1223
  0
LINE
  8
0
 10
276.21
 20
86.1223
 11
276.363
 21
85.9295
  0
LINE
  8
0
 10
276.363
 20
85.9295
 11
276.487
 21
85.7159
  0
LINE
  8
0
 10
276.487
 20
85.7159
 11
276.577
 21
85.4863
  0
LINE
  8
0
 10
276.577
 20
85.4863
 11
276.632
 21
85.2459
  0
LINE
  8
0
 10
276.632
 20
85.2459
 11
276.65
 21
85
  0
LINE
  8
0
 10
276.65
 20
85
 11
276.632
 21
84.7541
  0
LINE
  8
0
 10
276.632
 20
84.7541
 11
276.577
 21
84.5137
  0
LINE
  8
0
 10
276.577
 20
84.5137
 11
276.487
 21
84.2841
  0
LINE
  8
0
 10
276.487
 20
84.2841
 11
276.363
 21
84.0705
  0
LINE
  8
0
 10
276.363
 20
84.0705
 11
276.21
 21
83.8777
  0
LINE
  8
0
 10
276.21
 20
83.8777
 11
276.029
 21
83.71
  0
LINE
  8
0
 10
276.029
 20
83.71
 11
275.825
 21
83.5711
  0
LINE
  8
0
 10
275.825
 20
83.5711
 11
275.603
 21
83.4641
  0
LINE
  8
0
 10
275.603
 20
83.4641
 11
275.367
 21
83.3914
  0
LINE
  8
0
 10
275.367
 20
83.3914
 11
275.123
 21
83.3546
  0
LINE
  8
0
 10
275.123
 20
83.3546
 11
234.877
 21
83.3546
  0
LINE
  8
0
 10
-20.1233
 20
83.3546
 11
-20.3672
 21
83.3914
  0
LINE
  8
0
 10
-20.3672
 20
83.3914
 11
-20.6028
 21
83.4641
  0
LINE
  8
0
 10
-20.6028
 20
83.4641
 11
-20.825
 21
83.5711
  0
LINE
  8
0
 10
-20.825
 20
83.5711
 11
-21.0287
 21
83.71
  0
LINE
  8
0
 10
-21.0287
 20
83.71
 11
-21.2095
 21
83.8777
  0
LINE
  8
0
 10
-21.2095
 20
83.8777
 11
-21.3633
 21
84.0705
  0
LINE
  8
0
 10
-21.3633
 20
84.0705
 11
-21.4866
 21
84.2841
  0
LINE
  8
0
 10
-21.4866
 20
84.2841
 11
-21.5767
 21
84.5137
  0
LINE
  8
0
 10
-21.5767
 20
84.5137
 11
-21.6316
 21
84.7541
  0
LINE
  8
0
 10
-21.6316
 20
84.7541
 11
-21.65
 21
85
  0
LINE
  8
0
 10
-21.65
 20
85
 11
-21.6316
 21
85.2459
  0
LINE
  8
0
 10
-21.6316
 20
85.2459
 11
-21.5767
 21
85.4863
  0
LINE
  8
0
 10
-21.5767
 20
85.4863
 11
-21.4866
 21
85.7159
  0
LINE
  8
0
 10
-21.4866
 20
85.7159
 11
-21.3633
 21
85.9295
  0
LINE
  8
0
 10
-21.3633
 20
85.9295
 11
-21.2095
 21
86.1223
  0
LINE
  8
0
 10
-21.2095
 20
86.1223
 11
-21.0287
 21
86.29
  0
LINE
  8
0
 10
-21.0287
 20
86.29
 11
-20.825
 21
86.4289
  0
LINE
  8
0
 10
-20.825
 20
86.4289
 11
-20.6028
 21
86.5359
  0
LINE
  8
0
 10
-20.6028
 20
86.5359
 11
-20.3672
 21
86.6086
  0
LINE
  8
0
 10
-20.3672
 20
86.6086
 11
-20.1233
 21
86.6454
  0
LINE
  8
0
 10
-20.1233
 20
86.6454
 11
20.1233
 21
86.6454
  0
LINE
  8
0
 10
20.1233
 20
86.6454
 11
20.3672
 21
86.6086
  0
LINE
  8
0
 10
20.3672
 20
86.6086
 11
20.6028
 21
86.5359
  0
LINE
  8
0
 10
20.6028
 20
86.5359
 11
20.825
 21
86.4289
  0
LINE
  8
0
 10
20.825
 20
86.4289
 11
21.0287
 21
86.29
  0
LINE
  8
0
 10
21.0287
 20
86.29
 11
21.2095
 21
86.1223
  0
LINE
  8
0
 10
21.2095
 20
86.1223
 11
21.3633
 21
85.9295
  0
LINE
  8
0
 10
21.3633
 20
85.9295
 11
21.4866
 21
85.7159
  0
LINE
  8
0
 10
21.4866
 20
85.7159
 11
21.5767
 21
85.4863
  0
LINE
  8
0
 10
21.5767
 20
85.4863
 11
21.6316
 21
85.2459
  0
LINE
  8
0
 10
21.6316
 20
85.2459
 11
21.65
 21
85
  0
LINE
  8
0
 10
21.65
 20
85
 11
21.6316
 21
84.7541
  0
LINE
  8
0
 10
21.6316
 20
84.7541
 11
21.5767
 21
84.5137
  0
LINE
  8
0
 10
21.5767
 20
84.5137
 11
21.4866
 21
84.2841
  0
LINE
  8
0
 10
21.4866
 20
84.2841
 11
21.3633
 21
84.0705
  0
LINE
  8
0
 10
21.3633
 20
84.0705
 11
21.2095
 21
83.8777
  0
LINE
  8
0
 10
21.2095
 20
83.8777
 11
21.0287
 21
83.71
  0
LINE
  8
0
 10
21.0287
 20
83.71
 11
20.825
 21
83.5711
  0
LINE
  8
0
 10
20.825
 20
83.5711
 11
20.6028
 21
83.4641
  0
LINE
  8
0
 10
20.6028
 20
83.4641
 11
20.3672
 21
83.3914
  0
LINE
  8
0
 10
20.3672
 20
83.3914
 11
20.1233
 21
83.3546
  0
LINE
  8
0
 10
20.1233
 20
83.3546
 11
-20.1233
 21
83.3546
  0
LINE
  8
0
 10
-45.3088
 20
60.8283
 11
-45.5489
 21
60.8911
  0
LINE
  8
0
 10
-45.5489
 20
60.8911
 11
-45.7773
 21
60.9881
  0
LINE
  8
0
 10
-45.7773
 20
60.9881
 11
-45.9892
 21
61.1174
  0
LINE
  8
0
 10
-45.9892
 20
61.1174
 11
-46.1799
 21
61.2762
  0
LINE
  8
0
 10
-46.1799
 20
61.2762
 11
-46.3455
 21
61.461
  0
LINE
  8
0
 10
-46.3455
 20
61.461
 11
-46.4825
 21
61.668
  0
LINE
  8
0
 10
-46.4825
 20
61.668
 11
-46.5878
 21
61.8927
  0
LINE
  8
0
 10
-46.5878
 20
61.8927
 11
-46.6593
 21
62.1304
  0
LINE
  8
0
 10
-46.6593
 20
62.1304
 11
-46.6955
 21
62.3759
  0
LINE
  8
0
 10
-46.6955
 20
62.3759
 11
-46.6955
 21
62.6241
  0
LINE
  8
0
 10
-46.6955
 20
62.6241
 11
-46.6593
 21
62.8696
  0
LINE
  8
0
 10
-46.6593
 20
62.8696
 11
-46.5878
 21
63.1073
  0
LINE
  8
0
 10
-46.5878
 20
63.1073
 11
-46.4825
 21
63.332
  0
LINE
  8
0
 10
-46.4825
 20
63.332
 11
-46.3455
 21
63.539
  0
LINE
  8
0
 10
-46.3455
 20
63.539
 11
-46.1799
 21
63.7238
  0
LINE
  8
0
 10
-46.1799
 20
63.7238
 11
-45.9892
 21
63.8826
  0
LINE
  8
0
 10
-45.9892
 20
63.8826
 11
-45.7773
 21
64.0119
  0
LINE
  8
0
 10
-45.7773
 20
64.0119
 11
-45.5489
 21
64.1089
  0
LINE
  8
0
 10
-45.5489
 20
64.1089
 11
-45.3088
 21
64.1717
  0
LINE
  8
0
 10
-45.3088
 20
64.1717
 11
-45.0621
 21
64.1989
  0
LINE
  8
0
 10
-45.0621
 20
64.1989
 11
-44.8141
 21
64.1898
  0
LINE
  8
0
 10
-44.8141
 20
64.1898
 11
-44.57
 21
64.1447
  0
LINE
  8
0
 10
-44.57
 20
64.1447
 11
-44.3351
 21
64.0646
  0
LINE
  8
0
 10
-44.3351
 20
64.0646
 11
-44.1144
 21
63.9511
  0
LINE
  8
0
 10
-44.1144
 20
63.9511
 11
-43.9126
 21
63.8067
  0
LINE
  8
0
 10
-43.9126
 20
63.8067
 11
-43.7339
 21
63.6344
  0
LINE
  8
0
 10
-43.7339
 20
63.6344
 11
-43.5822
 21
63.438
  0
LINE
  8
0
 10
-43.5822
 20
63.438
 11
-43.4607
 21
63.2216
  0
LINE
  8
0
 10
-43.4607
 20
63.2216
 11
-43.3721
 21
62.9898
  0
LINE
  8
0
 10
-43.3721
 20
62.9898
 11
-43.3181
 21
62.7475
  0
LINE
  8
0
 10
-43.3181
 20
62.7475
 11
-43.3
 21
62.5
  0
LINE
  8
0
 10
-43.3
 20
62.5
 11
-43.3181
 21
62.2525
  0
LINE
  8
0
 10
-43.3181
 20
62.2525
 11
-43.3721
 21
62.0102
  0
LINE
  8
0
 10
-43.3721
 20
62.0102
 11
-43.4607
 21
61.7784
  0
LINE
  8
0
 10
-43.4607
 20
61.7784
 11
-43.5822
 21
61.562
  0
LINE
  8
0
 10
-43.5822
 20
61.562
 11
-43.7339
 21
61.3656
  0
LINE
  8
0
 10
-43.7339
 20
61.3656
 11
-43.9126
 21
61.1933
  0
LINE
  8
0
 10
-43.9126
 20
61.1933
 11
-44.1144
 21
61.0489
  0
LINE
  8
0
 10
-44.1144
 20
61.0489
 11
-44.3351
 21
60.9354
  0
LINE
  8
0
 10
-44.3351
 20
60.9354
 11
-44.57
 21
60.8553
  0
LINE
  8
0
 10
-44.57
 20
60.8553
 11
-44.8141
 21
60.8102
  0
LINE
  8
0
 10
-44.8141
 20
60.8102
 11
-45.0621
 21
60.8011
  0
LINE
  8
0
 10
-45.0621
 20
60.8011
 11
-45.3088
 21
60.8283
  0
LINE
  8
0
 10
44.6912
 20
60.8283
 11
44.4511
 21
60.8911
  0
LINE
  8
0
 10
44.4511
 20
60.8911
 11
44.2227
 21
60.9881
  0
LINE
  8
0
 10
44.2227
 20
60.9881
 11
44.0108
 21
61.1174
  0
LINE
  8
0
 10
44.0108
 20
61.1174
 11
43.8201
 21
61.2762
  0
LINE
  8
0
 10
43.8201
 20
61.2762
 11
43.6544
 21
61.461
  0
LINE
  8
0
 10
43.6544
 20
61.461
 11
43.5175
 21
61.668
  0
LINE
  8
0
 10
43.5175
 20
61.668
 11
43.4122
 21
61.8927
  0
LINE
  8
0
 10
43.4122
 20
61.8927
 11
43.3407
 21
62.1304
  0
LINE
  8
0
 10
43.3407
 20
62.1304
 11
43.3045
 21
62.3759
  0
LINE
  8
0
 10
43.3045
 20
62.3759
 11
43.3045
 21
62.6241
  0
LINE
  8
0
 10
43.3045
 20
62.6241
 11
43.3407
 21
62.8696
  0
LINE
  8
0
 10
43.3407
 20
62.8696
 11
43.4122
 21
63.1073
  0
LINE
  8
0
 10
43.4122
 20
63.1073
 11
43.5175
 21
63.332
  0
LINE
  8
0
 10
43.5175
 20
63.332
 11
43.6544
 21
63.539
  0
LINE
  8
0
 10
43.6544
 20
63.539
 11
43.8201
 21
63.7238
  0
LINE
  8
0
 10
43.8201
 20
63.7238
 11
44.0108
 21
63.8826
  0
LINE
  8
0
 10
44.0108
 20
63.8826
 11
44.2227
 21
64.0119
  0
LINE
  8
0
 10
44.2227
 20
64.0119
 11
44.4511
 21
64.1089
  0
LINE
  8
0
 10
44.4511
 20
64.1089
 11
44.6912
 21
64.1717
  0
LINE
  8
0
 10
44.6912
 20
64.1717
 11
44.9379
 21
64.1989
  0
LINE
  8
0
 10
44.9379
 20
64.1989
 11
45.1859
 21
64.1898
  0
LINE
  8
0
 10
45.1859
 20
64.1898
 11
45.43
 21
64.1447
  0
LINE
  8
0
 10
45.43
 20
64.1447
 11
45.6649
 21
64.0646
  0
LINE
  8
0
 10
45.6649
 20
64.0646
 11
45.8856
 21
63.9511
  0
LINE
  8
0
 10
45.8856
 20
63.9511
 11
46.0874
 21
63.8067
  0
LINE
  8
0
 10
46.0874
 20
63.8067
 11
46.2661
 21
63.6344
  0
LINE
  8
0
 10
46.2661
 20
63.6344
 11
46.4178
 21
63.438
  0
LINE
  8
0
 10
46.4178
 20
63.438
 11
46.5393
 21
63.2216
  0
LINE
  8
0
 10
46.5393
 20
63.2216
 11
46.6279
 21
62.9898
  0
LINE
  8
0
 10
46.6279
 20
62.9898
 11
46.6819
 21
62.7475
  0
LINE
  8
0
 10
46.6819
 20
62.7475
 11
46.7
 21
62.5
  0
LINE
  8
0
 10
46.7
 20
62.5
 11
46.6819
 21
62.2525
  0
LINE
  8
0
 10
46.6819
 20
62.2525
 11
46.6279
 21
62.0102
  0
LINE
  8
0
 10
46.6279
 20
62.0102
 11
46.5393
 21
61.7784
  0
LINE
  8
0
 10
46.5393
 20
61.7784
 11
46.4178
 21
61.562
  0
LINE
  8
0
 10
46.4178
 20
61.562
 11
46.2661
 21
61.3656
  0
LINE
  8
0
 10
46.2661
 20
61.3656
 11
46.0874
 21
61.1933
  0
LINE
  8
0
 10
46.0874
 20
61.1933
 11
45.8856
 21
61.0489
  0
LINE
  8
0
 10
45.8856
 20
61.0489
 11
45.6649
 21
60.9354
  0
LINE
  8
0
 10
45.6649
 20
60.9354
 11
45.43
 21
60.8553
  0
LINE
  8
0
 10
45.43
 20
60.8553
 11
45.1859
 21
60.8102
  0
LINE
  8
0
 10
45.1859
 20
60.8102
 11
44.9379
 21
60.8011
  0
LINE
  8
0
 10
44.9379
 20
60.8011
 11
44.6912
 21
60.8283
  0
LINE
  8
0
 10
224.691
 20
60.8283
 11
224.451
 21
60.8911
  0
LINE
  8
0
 10
224.451
 20
60.8911
 11
224.223
 21
60.9881
  0
LINE
  8
0
 10
224.223
 20
60.9881
 11
224.011
 21
61.1174
  0
LINE
  8
0
 10
224.011
 20
61.1174
 11
223.82
 21
61.2762
  0
LINE
  8
0
 10
223.82
 20
61.2762
 11
223.654
 21
61.461
  0
LINE
  8
0
 10
223.654
 20
61.461
 11
223.518
 21
61.668
  0
LINE
  8
0
 10
223.518
 20
61.668
 11
223.412
 21
61.8927
  0
LINE
  8
0
 10
223.412
 20
61.8927
 11
223.341
 21
62.1304
  0
LINE
  8
0
 10
223.341
 20
62.1304
 11
223.305
 21
62.3759
  0
LINE
  8
0
 10
223.305
 20
62.3759
 11
223.305
 21
62.6241
  0
LINE
  8
0
 10
223.305
 20
62.6241
 11
223.341
 21
62.8696
  0
LINE
  8
0
 10
223.341
 20
62.8696
 11
223.412
 21
63.1073
  0
LINE
  8
0
 10
223.412
 20
63.1073
 11
223.518
 21
63.332
  0
LINE
  8
0
 10
223.518
 20
63.332
 11
223.654
 21
63.539
  0
LINE
  8
0
 10
223.654
 20
63.539
 11
223.82
 21
63.7238
  0
LINE
  8
0
 10
223.82
 20
63.7238
 11
224.011
 21
63.8826
  0
LINE
  8
0
 10
224.011
 20
63.8826
 11
224.223
 21
64.0119
  0
LINE
  8
0
 10
224.223
 20
64.0119
 11
224.451
 21
64.1089
  0
LINE
  8
0
 10
224.451
 20
64.1089
 11
224.691
 21
64.1717
  0
LINE
  8
0
 10
224.691
 20
64.1717
 11
224.938
 21
64.1989
  0
LINE
  8
0
 10
224.938
 20
64.1989
 11
225.186
 21
64.1898
  0
LINE
  8
0
 10
225.186
 20
64.1898
 11
225.43
 21
64.1447
  0
LINE
  8
0
 10
225.43
 20
64.1447
 11
225.665
 21
64.0646
  0
LINE
  8
0
 10
225.665
 20
64.0646
 11
225.886
 21
63.9511
  0
LINE
  8
0
 10
225.886
 20
63.9511
 11
226.087
 21
63.8067
  0
LINE
  8
0
 10
226.087
 20
63.8067
 11
226.266
 21
63.6344
  0
LINE
  8
0
 10
226.266
 20
63.6344
 11
226.418
 21
63.438
  0
LINE
  8
0
 10
226.418
 20
63.438
 11
226.539
 21
63.2216
  0
LINE
  8
0
 10
226.539
 20
63.2216
 11
226.628
 21
62.9898
  0
LINE
  8
0
 10
226.628
 20
62.9898
 11
226.682
 21
62.7475
  0
LINE
  8
0
 10
226.682
 20
62.7475
 11
226.7
 21
62.5
  0
LINE
  8
0
 10
226.7
 20
62.5
 11
226.682
 21
62.2525
  0
LINE
  8
0
 10
226.682
 20
62.2525
 11
226.628
 21
62.0102
  0
LINE
  8
0
 10
226.628
 20
62.0102
 11
226.539
 21
61.7784
  0
LINE
  8
0
 10
226.539
 20
61.7784
 11
226.418
 21
61.562
  0
LINE
  8
0
 10
226.418
 20
61.562
 11
226.266
 21
61.3656
  0
LINE
  8
0
 10
226.266
 20
61.3656
 11
226.087
 21
61.1933
  0
LINE
  8
0
 10
226.087
 20
61.1933
 11
225.886
 21
61.0489
  0
LINE
  8
0
 10
225.886
 20
61.0489
 11
225.665
 21
60.9354
  0
LINE
  8
0
 10
225.665
 20
60.9354
 11
225.43
 21
60.8553
  0
LINE
  8
0
 10
225.43
 20
60.8553
 11
225.186
 21
60.8102
  0
LINE
  8
0
 10
225.186
 20
60.8102
 11
224.938
 21
60.8011
  0
LINE
  8
0
 10
224.938
 20
60.8011
 11
224.691
 21
60.8283
  0
LINE
  8
0
 10
134.691
 20
60.8283
 11
134.451
 21
60.8911
  0
LINE
  8
0
 10
134.451
 20
60.8911
 11
134.223
 21
60.9881
  0
LINE
  8
0
 10
134.223
 20
60.9881
 11
134.011
 21
61.1174
  0
LINE
  8
0
 10
134.011
 20
61.1174
 11
133.82
 21
61.2762
  0
LINE
  8
0
 10
133.82
 20
61.2762
 11
133.654
 21
61.461
  0
LINE
  8
0
 10
133.654
 20
61.461
 11
133.518
 21
61.668
  0
LINE
  8
0
 10
133.518
 20
61.668
 11
133.412
 21
61.8927
  0
LINE
  8
0
 10
133.412
 20
61.8927
 11
133.341
 21
62.1304
  0
LINE
  8
0
 10
133.341
 20
62.1304
 11
133.305
 21
62.3759
  0
LINE
  8
0
 10
133.305
 20
62.3759
 11
133.305
 21
62.6241
  0
LINE
  8
0
 10
133.305
 20
62.6241
 11
133.341
 21
62.8696
  0
LINE
  8
0
 10
133.341
 20
62.8696
 11
133.412
 21
63.1073
  0
LINE
  8
0
 10
133.412
 20
63.1073
 11
133.518
 21
63.332
  0
LINE
  8
0
 10
133.518
 20
63.332
 11
133.654
 21
63.539
  0
LINE
  8
0
 10
133.654
 20
63.539
 11
133.82
 21
63.7238
  0
LINE
  8
0
 10
133.82
 20
63.7238
 11
134.011
 21
63.8826
  0
LINE
  8
0
 10
134.011
 20
63.8826
 11
134.223
 21
64.0119
  0
LINE
  8
0
 10
134.223
 20
64.0119
 11
134.451
 21
64.1089
  0
LINE
  8
0
 10
134.451
 20
64.1089
 11
134.691
 21
64.1717
  0
LINE
  8
0
 10
134.691
 20
64.1717
 11
134.938
 21
64.1989
  0
LINE
  8
0
 10
134.938
 20
64.1989
 11
135.186
 21
64.1898
  0
LINE
  8
0
 10
135.186
 20
64.1898
 11
135.43
 21
64.1447
  0
LINE
  8
0
 10
135.43
 20
64.1447
 11
135.665
 21
64.0646
  0
LINE
  8
0
 10
135.665
 20
64.0646
 11
135.886
 21
63.9511
  0
LINE
  8
0
 10
135.886
 20
63.9511
 11
136.087
 21
63.8067
  0
LINE
  8
0
 10
136.087
 20
63.8067
 11
136.266
 21
63.6344
  0
LINE
  8
0
 10
136.266
 20
63.6344
 11
136.418
 21
63.438
  0
LINE
  8
0
 10
136.418
 20
63.438
 11
136.539
 21
63.2216
  0
LINE
  8
0
 10
136.539
 20
63.2216
 11
136.628
 21
62.9898
  0
LINE
  8
0
 10
136.628
 20
62.9898
 11
136.682
 21
62.7475
  0
LINE
  8
0
 10
136.682
 20
62.7475
 11
136.7
 21
62.5
  0
LINE
  8
0
 10
136.7
 20
62.5
 11
136.682
 21
62.2525
  0
LINE
  8
0
 10
136.682
 20
62.2525
 11
136.628
 21
62.0102
  0
LINE
  8
0
 10
136.628
 20
62.0102
 11
136.539
 21
61.7784
  0
LINE
  8
0
 10
136.539
 20
61.7784
 11
136.418
 21
61.562
  0
LINE
  8
0
 10
136.418
 20
61.562
 11
136.266
 21
61.3656
  0
LINE
  8
0
 10
136.266
 20
61.3656
 11
136.087
 21
61.1933
  0
LINE
  8
0
 10
136.087
 20
61.1933
 11
135.886
 21
61.0489
  0
LINE
  8
0
 10
135.886
 20
61.0489
 11
135.665
 21
60.9354
  0
LINE
  8
0
 10
135.665
 20
60.9354
 11
135.43
 21
60.8553
  0
LINE
  8
0
 10
135.43
 20
60.8553
 11
135.186
 21
60.8102
  0
LINE
  8
0
 10
135.186
 20
60.8102
 11
134.938
 21
60.8011
  0
LINE
  8
0
 10
134.938
 20
60.8011
 11
134.691
 21
60.8283
  0
LINE
  8
0
 10
-135.309
 20
60.8283
 11
-135.549
 21
60.8911
  0
LINE
  8
0
 10
-135.549
 20
60.8911
 11
-135.777
 21
60.9881
  0
LINE
  8
0
 10
-135.777
 20
60.9881
 11
-135.989
 21
61.1174
  0
LINE
  8
0
 10
-135.989
 20
61.1174
 11
-136.18
 21
61.2762
  0
LINE
  8
0
 10
-136.18
 20
61.2762
 11
-136.346
 21
61.461
  0
LINE
  8
0
 10
-136.346
 20
61.461
 11
-136.482
 21
61.668
  0
LINE
  8
0
 10
-136.482
 20
61.668
 11
-136.588
 21
61.8927
  0
LINE
  8
0
 10
-136.588
 20
61.8927
 11
-136.659
 21
62.1304
  0
LINE
  8
0
 10
-136.659
 20
62.1304
 11
-136.695
 21
62.3759
  0
LINE
  8
0
 10
-136.695
 20
62.3759
 11
-136.695
 21
62.6241
  0
LINE
  8
0
 10
-136.695
 20
62.6241
 11
-136.659
 21
62.8696
  0
LINE
  8
0
 10
-136.659
 20
62.8696
 11
-136.588
 21
63.1073
  0
LINE
  8
0
 10
-136.588
 20
63.1073
 11
-136.482
 21
63.332
  0
LINE
  8
0
 10
-136.482
 20
63.332
 11
-136.346
 21
63.539
  0
LINE
  8
0
 10
-136.346
 20
63.539
 11
-136.18
 21
63.7238
  0
LINE
  8
0
 10
-136.18
 20
63.7238
 11
-135.989
 21
63.8826
  0
LINE
  8
0
 10
-135.989
 20
63.8826
 11
-135.777
 21
64.0119
  0
LINE
  8
0
 10
-135.777
 20
64.0119
 11
-135.549
 21
64.1089
  0
LINE
  8
0
 10
-135.549
 20
64.1089
 11
-135.309
 21
64.1717
  0
LINE
  8
0
 10
-135.309
 20
64.1717
 11
-135.062
 21
64.1989
  0
LINE
  8
0
 10
-135.062
 20
64.1989
 11
-134.814
 21
64.1898
  0
LINE
  8
0
 10
-134.814
 20
64.1898
 11
-134.57
 21
64.1447
  0
LINE
  8
0
 10
-134.57
 20
64.1447
 11
-134.335
 21
64.0646
  0
LINE
  8
0
 10
-134.335
 20
64.0646
 11
-134.114
 21
63.9511
  0
LINE
  8
0
 10
-134.114
 20
63.9511
 11
-133.913
 21
63.8067
  0
LINE
  8
0
 10
-133.913
 20
63.8067
 11
-133.734
 21
63.6344
  0
LINE
  8
0
 10
-133.734
 20
63.6344
 11
-133.582
 21
63.438
  0
LINE
  8
0
 10
-133.582
 20
63.438
 11
-133.461
 21
63.2216
  0
LINE
  8
0
 10
-133.461
 20
63.2216
 11
-133.372
 21
62.9898
  0
LINE
  8
0
 10
-133.372
 20
62.9898
 11
-133.318
 21
62.7475
  0
LINE
  8
0
 10
-133.318
 20
62.7475
 11
-133.3
 21
62.5
  0
LINE
  8
0
 10
-133.3
 20
62.5
 11
-133.318
 21
62.2525
  0
LINE
  8
0
 10
-133.318
 20
62.2525
 11
-133.372
 21
62.0102
  0
LINE
  8
0
 10
-133.372
 20
62.0102
 11
-133.461
 21
61.7784
  0
LINE
  8
0
 10
-133.461
 20
61.7784
 11
-133.582
 21
61.562
  0
LINE
  8
0
 10
-133.582
 20
61.562
 11
-133.734
 21
61.3656
  0
LINE
  8
0
 10
-133.734
 20
61.3656
 11
-133.913
 21
61.1933
  0
LINE
  8
0
 10
-133.913
 20
61.1933
 11
-134.114
 21
61.0489
  0
LINE
  8
0
 10
-134.114
 20
61.0489
 11
-134.335
 21
60.9354
  0
LINE
  8
0
 10
-134.335
 20
60.9354
 11
-134.57
 21
60.8553
  0
LINE
  8
0
 10
-134.57
 20
60.8553
 11
-134.814
 21
60.8102
  0
LINE
  8
0
 10
-134.814
 20
60.8102
 11
-135.062
 21
60.8011
  0
LINE
  8
0
 10
-135.062
 20
60.8011
 11
-135.309
 21
60.8283
  0
LINE
  8
0
 10
-225.309
 20
60.8283
 11
-225.549
 21
60.8911
  0
LINE
  8
0
 10
-225.549
 20
60.8911
 11
-225.777
 21
60.9881
  0
LINE
  8
0
 10
-225.777
 20
60.9881
 11
-225.989
 21
61.1174
  0
LINE
  8
0
 10
-225.989
 20
61.1174
 11
-226.18
 21
61.2762
  0
LINE
  8
0
 10
-226.18
 20
61.2762
 11
-226.346
 21
61.461
  0
LINE
  8
0
 10
-226.346
 20
61.461
 11
-226.482
 21
61.668
  0
LINE
  8
0
 10
-226.482
 20
61.668
 11
-226.588
 21
61.8927
  0
LINE
  8
0
 10
-226.588
 20
61.8927
 11
-226.659
 21
62.1304
  0
LINE
  8
0
 10
-226.659
 20
62.1304
 11
-226.695
 21
62.3759
  0
LINE
  8
0
 10
-226.695
 20
62.3759
 11
-226.695
 21
62.6241
  0
LINE
  8
0
 10
-226.695
 20
62.6241
 11
-226.659
 21
62.8696
  0
LINE
  8
0
 10
-226.659
 20
62.8696
 11
-226.588
 21
63.1073
  0
LINE
  8
0
 10
-226.588
 20
63.1073
 11
-226.482
 21
63.332
  0
LINE
  8
0
 10
-226.482
 20
63.332
 11
-226.346
 21
63.539
  0
LINE
  8
0
 10
-226.346
 20
63.539
 11
-226.18
 21
63.7238
  0
LINE
  8
0
 10
-226.18
 20
63.7238
 11
-225.989
 21
63.8826
  0
LINE
  8
0
 10
-225.989
 20
63.8826
 11
-225.777
 21
64.0119
  0
LINE
  8
0
 10
-225.777
 20
64.0119
 11
-225.549
 21
64.1089
  0
LINE
  8
0
 10
-225.549
 20
64.1089
 11
-225.309
 21
64.1717
  0
LINE
  8
0
 10
-225.309
 20
64.1717
 11
-225.062
 21
64.1989
  0
LINE
  8
0
 10
-225.062
 20
64.1989
 11
-224.814
 21
64.1898
  0
LINE
  8
0
 10
-224.814
 20
64.1898
 11
-224.57
 21
64.1447
  0
LINE
  8
0
 10
-224.57
 20
64.1447
 11
-224.335
 21
64.0646
  0
LINE
  8
0
 10
-224.335
 20
64.0646
 11
-224.114
 21
63.9511
  0
LINE
  8
0
 10
-224.114
 20
63.9511
 11
-223.913
 21
63.8067
  0
LINE
  8
0
 10
-223.913
 20
63.8067
 11
-223.734
 21
63.6344
  0
LINE
  8
0
 10
-223.734
 20
63.6344
 11
-223.582
 21
63.438
  0
LINE
  8
0
 10
-223.582
 20
63.438
 11
-223.461
 21
63.2216
  0
LINE
  8
0
 10
-223.461
 20
63.2216
 11
-223.372
 21
62.9898
  0
LINE
  8
0
 10
-223.372
 20
62.9898
 11
-223.318
 21
62.7475
  0
LINE
  8
0
 10
-223.318
 20
62.7475
 11
-223.3
 21
62.5
  0
LINE
  8
0
 10
-223.3
 20
62.5
 11
-223.318
 21
62.2525
  0
LINE
  8
0
 10
-223.318
 20
62.2525
 11
-223.372
 21
62.0102
  0
LINE
  8
0
 10
-223.372
 20
62.0102
 11
-223.461
 21
61.7784
  0
LINE
  8
0
 10
-223.461
 20
61.7784
 11
-223.582
 21
61.562
  0
LINE
  8
0
 10
-223.582
 20
61.562
 11
-223.734
 21
61.3656
  0
LINE
  8
0
 10
-223.734
 20
61.3656
 11
-223.913
 21
61.1933
  0
LINE
  8
0
 10
-223.913
 20
61.1933
 11
-224.114
 21
61.0489
  0
LINE
  8
0
 10
-224.114
 20
61.0489
 11
-224.335
 21
60.9354
  0
LINE
  8
0
 10
-224.335
 20
60.9354
 11
-224.57
 21
60.8553
  0
LINE
  8
0
 10
-224.57
 20
60.8553
 11
-224.814
 21
60.8102
  0
LINE
  8
0
 10
-224.814
 20
60.8102
 11
-225.062
 21
60.8011
  0
LINE
  8
0
 10
-225.062
 20
60.8011
 11
-225.309
 21
60.8283
  0
LINE
  8
0
 10
-297.746
 20
20.8684
 11
-297.986
 21
20.9233
  0
LINE
  8
0
 10
-297.986
 20
20.9233
 11
-298.216
 21
21.0134
  0
LINE
  8
0
 10
-298.216
 20
21.0134
 11
-298.429
 21
21.1367
  0
LINE
  8
0
 10
-298.429
 20
21.1367
 11
-298.622
 21
21.2905
  0
LINE
  8
0
 10
-298.622
 20
21.2905
 11
-298.79
 21
21.4712
  0
LINE
  8
0
 10
-298.79
 20
21.4712
 11
-298.929
 21
21.675
  0
LINE
  8
0
 10
-298.929
 20
21.675
 11
-299.036
 21
21.8972
  0
LINE
  8
0
 10
-299.036
 20
21.8972
 11
-299.109
 21
22.1328
  0
LINE
  8
0
 10
-299.109
 20
22.1328
 11
-299.145
 21
22.3767
  0
LINE
  8
0
 10
-299.145
 20
22.3767
 11
-299.145
 21
62.6233
  0
LINE
  8
0
 10
-299.145
 20
62.6233
 11
-299.109
 21
62.8672
  0
LINE
  8
0
 10
-299.109
 20
62.8672
 11
-299.036
 21
63.1028
  0
LINE
  8
0
 10
-299.036
 20
63.1028
 11
-298.929
 21
63.325
  0
LINE
  8
0
 10
-298.929
 20
63.325
 11
-298.79
 21
63.5287
  0
LINE
  8
0
 10
-298.79
 20
63.5287
 11
-298.622
 21
63.7095
  0
LINE
  8
0
 10
-298.622
 20
63.7095
 11
-298.429
 21
63.8633
  0
LINE
  8
0
 10
-298.429
 20
63.8633
 11
-298.216
 21
63.9866
  0
LINE
  8
0
 10
-298.216
 20
63.9866
 11
-297.986
 21
64.0767
  0
LINE
  8
0
 10
-297.986
 20
64.0767
 11
-297.746
 21
64.1316
  0
LINE
  8
0
 10
-297.746
 20
64.1316
 11
-297.5
 21
64.15
  0
LINE
  8
0
 10
-297.5
 20
64.15
 11
-297.254
 21
64.1316
  0
LINE
  8
0
 10
-297.254
 20
64.1316
 11
-297.014
 21
64.0767
  0
LINE
  8
0
 10
-297.014
 20
64.0767
 11
-296.784
 21
63.9866
  0
LINE
  8
0
 10
-296.784
 20
63.9866
 11
-296.571
 21
63.8633
  0
LINE
  8
0
 10
-296.571
 20
63.8633
 11
-296.378
 21
63.7095
  0
LINE
  8
0
 10
-296.378
 20
63.7095
 11
-296.21
 21
63.5287
  0
LINE
  8
0
 10
-296.21
 20
63.5287
 11
-296.071
 21
63.325
  0
LINE
  8
0
 10
-296.071
 20
63.325
 11
-295.964
 21
63.1028
  0
LINE
  8
0
 10
-295.964
 20
63.1028
 11
-295.891
 21
62.8672
  0
LINE
  8
0
 10
-295.891
 20
62.8672
 11
-295.855
 21
62.6233
  0
LINE
  8
0
 10
-295.855
 20
62.6233
 11
-295.855
 21
22.3767
  0
LINE
  8
0
 10
-295.855
 20
22.3767
 11
-295.891
 21
22.1328
  0
LINE
  8
0
 10
-295.891
 20
22.1328
 11
-295.964
 21
21.8972
  0
LINE
  8
0
 10
-295.964
 20
21.8972
 11
-296.071
 21
21.675
  0
LINE
  8
0
 10
-296.071
 20
21.675
 11
-296.21
 21
21.4712
  0
LINE
  8
0
 10
-296.21
 20
21.4712
 11
-296.378
 21
21.2905
  0
LINE
  8
0
 10
-296.378
 20
21.2905
 11
-296.571
 21
21.1367
  0
LINE
  8
0
 10
-296.571
 20
21.1367
 11
-296.784
 21
21.0134
  0
LINE
  8
0
 10
-296.784
 20
21.0134
 11
-297.014
 21
20.9233
  0
LINE
  8
0
 10
-297.014
 20
20.9233
 11
-297.254
 21
20.8684
  0
LINE
  8
0
 10
-297.254
 20
20.8684
 11
-297.5
 21
20.85
  0
LINE
  8
0
 10
-297.5
 20
20.85
 11
-297.746
 21
20.8684
  0
LINE
  8
0
 10
297.254
 20
20.8684
 11
297.014
 21
20.9233
  0
LINE
  8
0
 10
297.014
 20
20.9233
 11
296.784
 21
21.0134
  0
LINE
  8
0
 10
296.784
 20
21.0134
 11
296.571
 21
21.1367
  0
LINE
  8
0
 10
296.571
 20
21.1367
 11
296.378
 21
21.2905
  0
LINE
  8
0
 10
296.378
 20
21.2905
 11
296.21
 21
21.4712
  0
LINE
  8
0
 10
296.21
 20
21.4712
 11
296.071
 21
21.675
  0
LINE
  8
0
 10
296.071
 20
21.675
 11
295.964
 21
21.8972
  0
LINE
  8
0
 10
295.964
 20
21.8972
 11
295.891
 21
22.1328
  0
LINE
  8
0
 10
295.891
 20
22.1328
 11
295.855
 21
22.3767
  0
LINE
  8
0
 10
295.855
 20
22.3767
 11
295.855
 21
62.6233
  0
LINE
  8
0
 10
295.855
 20
62.6233
 11
295.891
 21
62.8672
  0
LINE
  8
0
 10
295.891
 20
62.8672
 11
295.964
 21
63.1028
  0
LINE
  8
0
 10
295.964
 20
63.1028
 11
296.071
 21
63.325
  0
LINE
  8
0
 10
296.071
 20
63.325
 11
296.21
 21
63.5287
  0
LINE
  8
0
 10
296.21
 20
63.5287
 11
296.378
 21
63.7095
  0
LINE
  8
0
 10
296.378
 20
63.7095
 11
296.571
 21
63.8633
  0
LINE
  8
0
 10
296.571
 20
63.8633
 11
296.784
 21
63.9866
  0
LINE
  8
0
 10
296.784
 20
63.9866
 11
297.014
 21
64.0767
  0
LINE
  8
0
 10
297.014
 20
64.0767
 11
297.254
 21
64.1316
  0
LINE
  8
0
 10
297.254
 20
64.1316
 11
297.5
 21
64.15
  0
LINE
  8
0
 10
297.5
 20
64.15
 11
297.746
 21
64.1316
  0
LINE
  8
0
 10
297.746
 20
64.1316
 11
297.986
 21
64.0767
  0
LINE
  8
0
 10
297.986
 20
64.0767
 11
298.216
 21
63.9866
  0
LINE
  8
0
 10
298.216
 20
63.9866
 11
298.429
 21
63.8633
  0
LINE
  8
0
 10
298.429
 20
63.8633
 11
298.622
 21
63.7095
  0
LINE
  8
0
 10
298.622
 20
63.7095
 11
298.79
 21
63.5287
  0
LINE
  8
0
 10
298.79
 20
63.5287
 11
298.929
 21
63.325
  0
LINE
  8
0
 10
298.929
 20
63.325
 11
299.036
 21
63.1028
  0
LINE
  8
0
 10
299.036
 20
63.1028
 11
299.109
 21
62.8672
  0
LINE
  8
0
 10
299.109
 20
62.8672
 11
299.145
 21
62.6233
  0
LINE
  8
0
 10
299.145
 20
62.6233
 11
299.145
 21
22.3767
  0
LINE
  8
0
 10
299.145
 20
22.3767
 11
299.109
 21
22.1328
  0
LINE
  8
0
 10
299.109
 20
22.1328
 11
299.036
 21
21.8972
  0
LINE
  8
0
 10
299.036
 20
21.8972
 11
298.929
 21
21.675
  0
LINE
  8
0
 10
298.929
 20
21.675
 11
298.79
 21
21.4712
  0
LINE
  8
0
 10
298.79
 20
21.4712
 11
298.622
 21
21.2905
  0
LINE
  8
0
 10
298.622
 20
21.2905
 11
298.429
 21
21.1367
  0
LINE
  8
0
 10
298.429
 20
21.1367
 11
298.216
 21
21.0134
  0
LINE
  8
0
 10
298.216
 20
21.0134
 11
297.986
 21
20.9233
  0
LINE
  8
0
 10
297.986
 20
20.9233
 11
297.746
 21
20.8684
  0
LINE
  8
0
 10
297.746
 20
20.8684
 11
297.5
 21
20.85
  0
LINE
  8
0
 10
297.5
 20
20.85
 11
297.254
 21
20.8684
  0
LINE
  8
0
 10
-252.5
 20
-52.5
 11
-253.023
 21
-52.4726
  0
LINE
  8
0
 10
-253.023
 20
-52.4726
 11
-253.54
 21
-52.3907
  0
LINE
  8
0
 10
-253.54
 20
-52.3907
 11
-254.045
 21
-52.2553
  0
LINE
  8
0
 10
-254.045
 20
-52.2553
 11
-254.534
 21
-52.0677
  0
LINE
  8
0
 10
-254.534
 20
-52.0677
 11
-255
 21
-51.8301
  0
LINE
  8
0
 10
-255
 20
-51.8301
 11
-255.439
 21
-51.5451
  0
LINE
  8
0
 10
-255.439
 20
-51.5451
 11
-255.846
 21
-51.2157
  0
LINE
  8
0
 10
-255.846
 20
-51.2157
 11
-256.216
 21
-50.8457
  0
LINE
  8
0
 10
-256.216
 20
-50.8457
 11
-256.545
 21
-50.4389
  0
LINE
  8
0
 10
-256.545
 20
-50.4389
 11
-256.83
 21
-50
  0
LINE
  8
0
 10
-256.83
 20
-50
 11
-257.068
 21
-49.5337
  0
LINE
  8
0
 10
-257.068
 20
-49.5337
 11
-257.255
 21
-49.0451
  0
LINE
  8
0
 10
-257.255
 20
-49.0451
 11
-257.391
 21
-48.5396
  0
LINE
  8
0
 10
-257.391
 20
-48.5396
 11
-257.473
 21
-48.0226
  0
LINE
  8
0
 10
-257.473
 20
-48.0226
 11
-257.5
 21
-47.5
  0
LINE
  8
0
 10
-257.5
 20
-47.5
 11
-257.5
 21
47.5
  0
LINE
  8
0
 10
-257.5
 20
47.5
 11
-257.473
 21
48.0226
  0
LINE
  8
0
 10
-257.473
 20
48.0226
 11
-257.391
 21
48.5396
  0
LINE
  8
0
 10
-257.391
 20
48.5396
 11
-257.255
 21
49.0451
  0
LINE
  8
0
 10
-257.255
 20
49.0451
 11
-257.068
 21
49.5337
  0
LINE
  8
0
 10
-257.068
 20
49.5337
 11
-256.83
 21
50
  0
LINE
  8
0
 10
-256.83
 20
50
 11
-256.545
 21
50.4389
  0
LINE
  8
0
 10
-256.545
 20
50.4389
 11
-256.216
 21
50.8457
  0
LINE
  8
0
 10
-256.216
 20
50.8457
 11
-255.846
 21
51.2157
  0
LINE
  8
0
 10
-255.846
 20
51.2157
 11
-255.439
 21
51.5451
  0
LINE
  8
0
 10
-255.439
 20
51.5451
 11
-255
 21
51.8301
  0
LINE
  8
0
 10
-255
 20
51.8301
 11
-254.534
 21
52.0677
  0
LINE
  8
0
 10
-254.534
 20
52.0677
 11
-254.045
 21
52.2553
  0
LINE
  8
0
 10
-254.045
 20
52.2553
 11
-253.54
 21
52.3907
  0
LINE
  8
0
 10
-253.54
 20
52.3907
 11
-253.023
 21
52.4726
  0
LINE
  8
0
 10
-253.023
 20
52.4726
 11
-252.5
 21
52.5
  0
LINE
  8
0
 10
-252.5
 20
52.5
 11
252.5
 21
52.5
  0
LINE
  8
0
 10
252.5
 20
52.5
 11
253.023
 21
52.4726
  0
LINE
  8
0
 10
253.023
 20
52.4726
 11
253.54
 21
52.3907
  0
LINE
  8
0
 10
253.54
 20
52.3907
 11
254.045
 21
52.2553
  0
LINE
  8
0
 10
254.045
 20
52.2553
 11
254.534
 21
52.0677
  0
LINE
  8
0
 10
254.534
 20
52.0677
 11
255
 21
51.8301
  0
LINE
  8
0
 10
255
 20
51.8301
 11
255.439
 21
51.5451
  0
LINE
  8
0
 10
255.439
 20
51.5451
 11
255.846
 21
51.2157
  0
LINE
  8
0
 10
255.846
 20
51.2157
 11
256.216
 21
50.8457
  0
LINE
  8
0
 10
256.216
 20
50.8457
 11
256.545
 21
50.4389
  0
LINE
  8
0
 10
256.545
 20
50.4389
 11
256.83
 21
50
  0
LINE
  8
0
 10
256.83
 20
50
 11
257.068
 21
49.5337
  0
LINE
  8
0
 10
257.068
 20
49.5337
 11
257.255
 21
49.0451
  0
LINE
  8
0
 10
257.255
 20
49.0451
 11
257.391
 21
48.5396
  0
LINE
  8
0
 10
257.391
 20
48.5396
 11
257.473
 21
48.0226
  0
LINE
  8
0
 10
257.473
 20
48.0226
 11
257.5
 21
47.5
  0
LINE
  8
0
 10
257.5
 20
47.5
 11
257.5
 21
-47.5
  0
LINE
  8
0
 10
257.5
 20
-47.5
 11
257.473
 21
-48.0226
  0
LINE
  8
0
 10
257.473
 20
-48.0226
 11
257.391
 21
-48.5396
  0
LINE
  8
0
 10
257.391
 20
-48.5396
 11
257.255
 21
-49.0451
  0
LINE
  8
0
 10
257.255
 20
-49.0451
 11
257.068
 21
-49.5337
  0
LINE
  8
0
 10
257.068
 20
-49.5337
 11
256.83
 21
-50
  0
LINE
  8
0
 10
256.83
 20
-50
 11
256.545
 21
-50.4389
  0
LINE
  8
0
 10
256.545
 20
-50.4389
 11
256.216
 21
-50.8457
  0
LINE
  8
0
 10
256.216
 20
-50.8457
 11
255.846
 21
-51.2157
  0
LINE
  8
0
 10
255.846
 20
-51.2157
 11
255.439
 21
-51.5451
  0
LINE
  8
0
 10
255.439
 20
-51.5451
 11
255
 21
-51.8301
  0
LINE
  8
0
 10
255
 20
-51.8301
 11
254.534
 21
-52.0677
  0
LINE
  8
0
 10
254.534
 20
-52.0677
 11
254.045
 21
-52.2553
  0
LINE
  8
0
 10
254.045
 20
-52.2553
 11
253.54
 21
-52.3907
  0
LINE
  8
0
 10
253.54
 20
-52.3907
 11
253.023
 21
-52.4726
  0
LINE
  8
0
 10
253.023
 20
-52.4726
 11
252.5
 21
-52.5
  0
LINE
  8
0
 10
252.5
 20
-52.5
 11
-252.5
 21
-52.5
  0
LINE
  8
0
 10
-267.686
 20
18.3102
 11
-267.93
 21
18.3553
  0
LINE
  8
0
 10
-267.93
 20
18.3553
 11
-268.165
 21
18.4354
  0
LINE
  8
0
 10
-268.165
 20
18.4354
 11
-268.386
 21
18.5489
  0
LINE
  8
0
 10
-268.386
 20
18.5489
 11
-268.587
 21
18.6933
  0
LINE
  8
0
 10
-268.587
 20
18.6933
 11
-268.766
 21
18.8656
  0
LINE
  8
0
 10
-268.766
 20
18.8656
 11
-268.918
 21
19.062
  0
LINE
  8
0
 10
-268.918
 20
19.062
 11
-269.039
 21
19.2784
  0
LINE
  8
0
 10
-269.039
 20
19.2784
 11
-269.128
 21
19.5102
  0
LINE
  8
0
 10
-269.128
 20
19.5102
 11
-269.182
 21
19.7525
  0
LINE
  8
0
 10
-269.182
 20
19.7525
 11
-269.2
 21
20
  0
LINE
  8
0
 10
-269.2
 20
20
 11
-269.182
 21
20.2475
  0
LINE
  8
0
 10
-269.182
 20
20.2475
 11
-269.128
 21
20.4898
  0
LINE
  8
0
 10
-269.128
 20
20.4898
 11
-269.039
 21
20.7216
  0
LINE
  8
0
 10
-269.039
 20
20.7216
 11
-268.918
 21
20.938
  0
LINE
  8
0
 10
-268.918
 20
20.938
 11
-268.766
 21
21.1344
  0
LINE
  8
0
 10
-268.766
 20
21.1344
 11
-268.587
 21
21.3067
  0
LINE
  8
0
 10
-268.587
 20
21.3067
 11
-268.386
 21
21.4511
  0
LINE
  8
0
 10
-268.386
 20
21.4511
 11
-268.165
 21
21.5646
  0
LINE
  8
0
 10
-268.165
 20
21.5646
 11
-267.93
 21
21.6447
  0
LINE
  8
0
 10
-267.93
 20
21.6447
 11
-267.686
 21
21.6898
  0
LINE
  8
0
 10
-267.686
 20
21.6898
 11
-267.438
 21
21.6989
  0
LINE
  8
0
 10
-267.438
 20
21.6989
 11
-267.191
 21
21.6717
  0
LINE
  8
0
 10
-267.191
 20
21.6717
 11
-266.951
 21
21.6089
  0
LINE
  8
0
 10
-266.951
 20
21.6089
 11
-266.723
 21
21.5119
  0
LINE
  8
0
 10
-266.723
 20
21.5119
 11
-266.511
 21
21.3826
  0
LINE
  8
0
 10
-266.511
 20
21.3826
 11
-266.32
 21
21.2238
  0
LINE
  8
0
 10
-266.32
 20
21.2238
 11
-266.154
 21
21.039
  0
LINE
  8
0
 10
-266.154
 20
21.039
 11
-266.018
 21
20.832
  0
LINE
  8
0
 10
-266.018
 20
20.832
 11
-265.912
 21
20.6073
  0
LINE
  8
0
 10
-265.912
 20
20.6073
 11
-265.841
 21
20.3696
  0
LINE
  8
0
 10
-265.841
 20
20.3696
 11
-265.805
 21
20.1241
  0
LINE
  8
0
 10
-265.805
 20
20.1241
 11
-265.805
 21
19.8759
  0
LINE
  8
0
 10
-265.805
 20
19.8759
 11
-265.841
 21
19.6304
  0
LINE
  8
0
 10
-265.841
 20
19.6304
 11
-265.912
 21
19.3927
  0
LINE
  8
0
 10
-265.912
 20
19.3927
 11
-266.018
 21
19.168
  0
LINE
  8
0
 10
-266.018
 20
19.168
 11
-266.154
 21
18.961
  0
LINE
  8
0
 10
-266.154
 20
18.961
 11
-266.32
 21
18.7762
  0
LINE
  8
0
 10
-266.32
 20
18.7762
 11
-266.511
 21
18.6174
  0
LINE
  8
0
 10
-266.511
 20
18.6174
 11
-266.723
 21
18.4881
  0
LINE
  8
0
 10
-266.723
 20
18.4881
 11
-266.951
 21
18.3911
  0
LINE
  8
0
 10
-266.951
 20
18.3911
 11
-267.191
 21
18.3283
  0
LINE
  8
0
 10
-267.191
 20
18.3283
 11
-267.438
 21
18.3011
  0
LINE
  8
0
 10
-267.438
 20
18.3011
 11
-267.686
 21
18.3102
  0
LINE
  8
0
 10
267.191
 20
18.3283
 11
266.951
 21
18.3911
  0
LINE
  8
0
 10
266.951
 20
18.3911
 11
266.723
 21
18.4881
  0
LINE
  8
0
 10
266.723
 20
18.4881
 11
266.511
 21
18.6174
  0
LINE
  8
0
 10
266.511
 20
18.6174
 11
266.32
 21
18.7762
  0
LINE
  8
0
 10
266.32
 20
18.7762
 11
266.154
 21
18.961
  0
LINE
  8
0
 10
266.154
 20
18.961
 11
266.018
 21
19.168
  0
LINE
  8
0
 10
266.018
 20
19.168
 11
265.912
 21
19.3927
  0
LINE
  8
0
 10
265.912
 20
19.3927
 11
265.841
 21
19.6304
  0
LINE
  8
0
 10
265.841
 20
19.6304
 11
265.805
 21
19.8759
  0
LINE
  8
0
 10
265.805
 20
19.8759
 11
265.805
 21
20.1241
  0
LINE
  8
0
 10
265.805
 20
20.1241
 11
265.841
 21
20.3696
  0
LINE
  8
0
 10
265.841
 20
20.3696
 11
265.912
 21
20.6073
  0
LINE
  8
0
 10
265.912
 20
20.6073
 11
266.018
 21
20.832
  0
LINE
  8
0
 10
266.018
 20
20.832
 11
266.154
 21
21.039
  0
LINE
  8
0
 10
266.154
 20
21.039
 11
266.32
 21
21.2238
  0
LINE
  8
0
 10
266.32
 20
21.2238
 11
266.511
 21
21.3826
  0
LINE
  8
0
 10
266.511
 20
21.3826
 11
266.723
 21
21.5119
  0
LINE
  8
0
 10
266.723
 20
21.5119
 11
266.951
 21
21.6089
  0
LINE
  8
0
 10
266.951
 20
21.6089
 11
267.191
 21
21.6717
  0
LINE
  8
0
 10
267.191
 20
21.6717
 11
267.438
 21
21.6989
  0
LINE
  8
0
 10
267.438
 20
21.6989
 11
267.686
 21
21.6898
  0
LINE
  8
0
 10
267.686
 20
21.6898
 11
267.93
 21
21.6447
  0
LINE
  8
0
 10
267.93
 20
21.6447
 11
268.165
 21
21.5646
  0
LINE
  8
0
 10
268.165
 20
21.5646
 11
268.386
 21
21.4511
  0
LINE
  8
0
 10
268.386
 20
21.4511
 11
268.587
 21
21.3067
  0
LINE
  8
0
 10
268.587
 20
21.3067
 11
268.766
 21
21.1344
  0
LINE
  8
0
 10
268.766
 20
21.1344
 11
268.918
 21
20.938
  0
LINE
  8
0
 10
268.918
 20
20.938
 11
269.039
 21
20.7216
  0
LINE
  8
0
 10
269.039
 20
20.7216
 11
269.128
 21
20.4898
  0
LINE
  8
0
 10
269.128
 20
20.4898
 11
269.182
 21
20.2475
  0
LINE
  8
0
 10
269.182
 20
20.2475
 11
269.2
 21
20
  0
LINE
  8
0
 10
269.2
 20
20
 11
269.182
 21
19.7525
  0
LINE
  8
0
 10
269.182
 20
19.7525
 11
269.128
 21
19.5102
  0
LINE
  8
0
 10
269.128
 20
19.5102
 11
269.039
 21
19.2784
  0
LINE
  8
0
 10
269.039
 20
19.2784
 11
268.918
 21
19.062
  0
LINE
  8
0
 10
268.918
 20
19.062
 11
268.766
 21
18.8656
  0
LINE
  8
0
 10
268.766
 20
18.8656
 11
268.587
 21
18.6933
  0
LINE
  8
0
 10
268.587
 20
18.6933
 11
268.386
 21
18.5489
  0
LINE
  8
0
 10
268.386
 20
18.5489
 11
268.165
 21
18.4354
  0
LINE
  8
0
 10
268.165
 20
18.4354
 11
267.93
 21
18.3553
  0
LINE
  8
0
 10
267.93
 20
18.3553
 11
267.686
 21
18.3102
  0
LINE
  8
0
 10
267.686
 20
18.3102
 11
267.438
 21
18.3011
  0
LINE
  8
0
 10
267.438
 20
18.3011
 11
267.191
 21
18.3283
  0
LINE
  8
0
 10
-267.686
 20
-21.6898
 11
-267.93
 21
-21.6447
  0
LINE
  8
0
 10
-267.93
 20
-21.6447
 11
-268.165
 21
-21.5646
  0
LINE
  8
0
 10
-268.165
 20
-21.5646
 11
-268.386
 21
-21.4511
  0
LINE
  8
0
 10
-268.386
 20
-21.4511
 11
-268.587
 21
-21.3067
  0
LINE
  8
0
 10
-268.587
 20
-21.3067
 11
-268.766
 21
-21.1344
  0
LINE
  8
0
 10
-268.766
 20
-21.1344
 11
-268.918
 21
-20.938
  0
LINE
  8
0
 10
-268.918
 20
-20.938
 11
-269.039
 21
-20.7216
  0
LINE
  8
0
 10
-269.039
 20
-20.7216
 11
-269.128
 21
-20.4898
  0
LINE
  8
0
 10
-269.128
 20
-20.4898
 11
-269.182
 21
-20.2475
  0
LINE
  8
0
 10
-269.182
 20
-20.2475
 11
-269.2
 21
-20
  0
LINE
  8
0
 10
-269.2
 20
-20
 11
-269.182
 21
-19.7525
  0
LINE
  8
0
 10
-269.182
 20
-19.7525
 11
-269.128
 21
-19.5102
  0
LINE
  8
0
 10
-269.128
 20
-19.5102
 11
-269.039
 21
-19.2784
  0
LINE
  8
0
 10
-269.039
 20
-19.2784
 11
-268.918
 21
-19.062
  0
LINE
  8
0
 10
-268.918
 20
-19.062
 11
-268.766
 21
-18.8656
  0
LINE
  8
0
 10
-268.766
 20
-18.8656
 11
-268.587
 21
-18.6933
  0
LINE
  8
0
 10
-268.587
 20
-18.6933
 11
-268.386
 21
-18.5489
  0
LINE
  8
0
 10
-268.386
 20
-18.5489
 11
-268.165
 21
-18.4354
  0
LINE
  8
0
 10
-268.165
 20
-18.4354
 11
-267.93
 21
-18.3553
  0
LINE
  8
0
 10
-267.93
 20
-18.3553
 11
-267.686
 21
-18.3102
  0
LINE
  8
0
 10
-267.686
 20
-18.3102
 11
-267.438
 21
-18.3011
  0
LINE
  8
0
 10
-267.438
 20
-18.3011
 11
-267.191
 21
-18.3283
  0
LINE
  8
0
 10
-267.191
 20
-18.3283
 11
-266.951
 21
-18.3911
  0
LINE
  8
0
 10
-266.951
 20
-18.3911
 11
-266.723
 21
-18.4881
  0
LINE
  8
0
 10
-266.723
 20
-18.4881
 11
-266.511
 21
-18.6174
  0
LINE
  8
0
 10
-266.511
 20
-18.6174
 11
-266.32
 21
-18.7762
  0
LINE
  8
0
 10
-266.32
 20
-18.7762
 11
-266.154
 21
-18.961
  0
LINE
  8
0
 10
-266.154
 20
-18.961
 11
-266.018
 21
-19.168
  0
LINE
  8
0
 10
-266.018
 20
-19.168
 11
-265.912
 21
-19.3927
  0
LINE
  8
0
 10
-265.912
 20
-19.3927
 11
-265.841
 21
-19.6304
  0
LINE
  8
0
 10
-265.841
 20
-19.6304
 11
-265.805
 21
-19.8759
  0
LINE
  8
0
 10
-265.805
 20
-19.8759
 11
-265.805
 21
-20.1241
  0
LINE
  8
0
 10
-265.805
 20
-20.1241
 11
-265.841
 21
-20.3696
  0
LINE
  8
0
 10
-265.841
 20
-20.3696
 11
-265.912
 21
-20.6073
  0
LINE
  8
0
 10
-265.912
 20
-20.6073
 11
-266.018
 21
-20.832
  0
LINE
  8
0
 10
-266.018
 20
-20.832
 11
-266.154
 21
-21.039
  0
LINE
  8
0
 10
-266.154
 20
-21.039
 11
-266.32
 21
-21.2238
  0
LINE
  8
0
 10
-266.32
 20
-21.2238
 11
-266.511
 21
-21.3826
  0
LINE
  8
0
 10
-266.511
 20
-21.3826
 11
-266.723
 21
-21.5119
  0
LINE
  8
0
 10
-266.723
 20
-21.5119
 11
-266.951
 21
-21.6089
  0
LINE
  8
0
 10
-266.951
 20
-21.6089
 11
-267.191
 21
-21.6717
  0
LINE
  8
0
 10
-267.191
 20
-21.6717
 11
-267.438
 21
-21.6989
  0
LINE
  8
0
 10
-267.438
 20
-21.6989
 11
-267.686
 21
-21.6898
  0
LINE
  8
0
 10
267.191
 20
-21.6717
 11
266.951
 21
-21.6089
  0
LINE
  8
0
 10
266.951
 20
-21.6089
 11
266.723
 21
-21.5119
  0
LINE
  8
0
 10
266.723
 20
-21.5119
 11
266.511
 21
-21.3826
  0
LINE
  8
0
 10
266.511
 20
-21.3826
 11
266.32
 21
-21.2238
  0
LINE
  8
0
 10
266.32
 20
-21.2238
 11
266.154
 21
-21.039
  0
LINE
  8
0
 10
266.154
 20
-21.039
 11
266.018
 21
-20.832
  0
LINE
  8
0
 10
266.018
 20
-20.832
 11
265.912
 21
-20.6073
  0
LINE
  8
0
 10
265.912
 20
-20.6073
 11
265.841
 21
-20.3696
  0
LINE
  8
0
 10
265.841
 20
-20.3696
 11
265.805
 21
-20.1241
  0
LINE
  8
0
 10
265.805
 20
-20.1241
 11
265.805
 21
-19.8759
  0
LINE
  8
0
 10
265.805
 20
-19.8759
 11
265.841
 21
-19.6304
  0
LINE
  8
0
 10
265.841
 20
-19.6304
 11
265.912
 21
-19.3927
  0
LINE
  8
0
 10
265.912
 20
-19.3927
 11
266.018
 21
-19.168
  0
LINE
  8
0
 10
266.018
 20
-19.168
 11
266.154
 21
-18.961
  0
LINE
  8
0
 10
266.154
 20
-18.961
 11
266.32
 21
-18.7762
  0
LINE
  8
0
 10
266.32
 20
-18.7762
 11
266.511
 21
-18.6174
  0
LINE
  8
0
 10
266.511
 20
-18.6174
 11
266.723
 21
-18.4881
  0
LINE
  8
0
 10
266.723
 20
-18.4881
 11
266.951
 21
-18.3911
  0
LINE
  8
0
 10
266.951
 20
-18.3911
 11
267.191
 21
-18.3283
  0
LINE
  8
0
 10
267.191
 20
-18.3283
 11
267.438
 21
-18.3011
  0
LINE
  8
0
 10
267.438
 20
-18.3011
 11
267.686
 21
-18.3102
  0
LINE
  8
0
 10
267.686
 20
-18.3102
 11
267.93
 21
-18.3553
  0
LINE
  8
0
 10
267.93
 20
-18.3553
 11
268.165
 21
-18.4354
  0
LINE
  8
0
 10
268.165
 20
-18.4354
 11
268.386
 21
-18.5489
  0
LINE
  8
0
 10
268.386
 20
-18.5489
 11
268.587
 21
-18.6933
  0
LINE
  8
0
 10
268.587
 20
-18.6933
 11
268.766
 21
-18.8656
  0
LINE
  8
0
 10
268.766
 20
-18.8656
 11
268.918
 21
-19.062
  0
LINE
  8
0
 10
268.918
 20
-19.062
 11
269.039
 21
-19.2784
  0
LINE
  8
0
 10
269.039
 20
-19.2784
 11
269.128
 21
-19.5102
  0
LINE
  8
0
 10
269.128
 20
-19.5102
 11
269.182
 21
-19.7525
  0
LINE
  8
0
 10
269.182
 20
-19.7525
 11
269.2
 21
-20
  0
LINE
  8
0
 10
269.2
 20
-20
 11
269.182
 21
-20.2475
  0
LINE
  8
0
 10
269.182
 20
-20.2475
 11
269.128
 21
-20.4898
  0
LINE
  8
0
 10
269.128
 20
-20.4898
 11
269.039
 21
-20.7216
  0
LINE
  8
0
 10
269.039
 20
-20.7216
 11
268.918
 21
-20.938
  0
LINE
  8
0
 10
268.918
 20
-20.938
 11
268.766
 21
-21.1344
  0
LINE
  8
0
 10
268.766
 20
-21.1344
 11
268.587
 21
-21.3067
  0
LINE
  8
0
 10
268.587
 20
-21.3067
 11
268.386
 21
-21.4511
  0
LINE
  8
0
 10
268.386
 20
-21.4511
 11
268.165
 21
-21.5646
  0
LINE
  8
0
 10
268.165
 20
-21.5646
 11
267.93
 21
-21.6447
  0
LINE
  8
0
 10
267.93
 20
-21.6447
 11
267.686
 21
-21.6898
  0
LINE
  8
0
 10
267.686
 20
-21.6898
 11
267.438
 21
-21.6989
  0
LINE
  8
0
 10
267.438
 20
-21.6989
 11
267.191
 21
-21.6717
  0
LINE
  8
0
 10
297.254
 20
-64.1316
 11
297.014
 21
-64.0767
  0
LINE
  8
0
 10
297.014
 20
-64.0767
 11
296.784
 21
-63.9866
  0
LINE
  8
0
 10
296.784
 20
-63.9866
 11
296.571
 21
-63.8633
  0
LINE
  8
0
 10
296.571
 20
-63.8633
 11
296.378
 21
-63.7095
  0
LINE
  8
0
 10
296.378
 20
-63.7095
 11
296.21
 21
-63.5287
  0
LINE
  8
0
 10
296.21
 20
-63.5287
 11
296.071
 21
-63.325
  0
LINE
  8
0
 10
296.071
 20
-63.325
 11
295.964
 21
-63.1028
  0
LINE
  8
0
 10
295.964
 20
-63.1028
 11
295.891
 21
-62.8672
  0
LINE
  8
0
 10
295.891
 20
-62.8672
 11
295.855
 21
-62.6233
  0
LINE
  8
0
 10
295.855
 20
-62.6233
 11
295.855
 21
-22.3767
  0
LINE
  8
0
 10
295.855
 20
-22.3767
 11
295.891
 21
-22.1328
  0
LINE
  8
0
 10
295.891
 20
-22.1328
 11
295.964
 21
-21.8972
  0
LINE
  8
0
 10
295.964
 20
-21.8972
 11
296.071
 21
-21.675
  0
LINE
  8
0
 10
296.071
 20
-21.675
 11
296.21
 21
-21.4712
  0
LINE
  8
0
 10
296.21
 20
-21.4712
 11
296.378
 21
-21.2905
  0
LINE
  8
0
 10
296.378
 20
-21.2905
 11
296.571
 21
-21.1367
  0
LINE
  8
0
 10
296.571
 20
-21.1367
 11
296.784
 21
-21.0134
  0
LINE
  8
0
 10
296.784
 20
-21.0134
 11
297.014
 21
-20.9233
  0
LINE
  8
0
 10
297.014
 20
-20.9233
 11
297.254
 21
-20.8684
  0
LINE
  8
0
 10
297.254
 20
-20.8684
 11
297.5
 21
-20.85
  0
LINE
  8
0
 10
297.5
 20
-20.85
 11
297.746
 21
-20.8684
  0
LINE
  8
0
 10
297.746
 20
-20.8684
 11
297.986
 21
-20.9233
  0
LINE
  8
0
 10
297.986
 20
-20.9233
 11
298.216
 21
-21.0134
  0
LINE
  8
0
 10
298.216
 20
-21.0134
 11
298.429
 21
-21.1367
  0
LINE
  8
0
 10
298.429
 20
-21.1367
 11
298.622
 21
-21.2905
  0
LINE
  8
0
 10
298.622
 20
-21.2905
 11
298.79
 21
-21.4712
  0
LINE
  8
0
 10
298.79
 20
-21.4712
 11
298.929
 21
-21.675
  0
LINE
  8
0
 10
298.929
 20
-21.675
 11
299.036
 21
-21.8972
  0
LINE
  8
0
 10
299.036
 20
-21.8972
 11
299.109
 21
-22.1328
  0
LINE
  8
0
 10
299.109
 20
-22.1328
 11
299.145
 21
-22.3767
  0
LINE
  8
0
 10
299.145
 20
-22.3767
 11
299.145
 21
-62.6233
  0
LINE
  8
0
 10
299.145
 20
-62.6233
 11
299.109
 21
-62.8672
  0
LINE
  8
0
 10
299.109
 20
-62.8672
 11
299.036
 21
-63.1028
  0
LINE
  8
0
 10
299.036
 20
-63.1028
 11
298.929
 21
-63.325
  0
LINE
  8
0
 10
298.929
 20
-63.325
 11
298.79
 21
-63.5287
  0
LINE
  8
0
 10
298.79
 20
-63.5287
 11
298.622
 21
-63.7095
  0
LINE
  8
0
 10
298.622
 20
-63.7095
 11
298.429
 21
-63.8633
  0
LINE
  8
0
 10
298.429
 20
-63.8633
 11
298.216
 21
-63.9866
  0
LINE
  8
0
 10
298.216
 20
-63.9866
 11
297.986
 21
-64.0767
  0
LINE
  8
0
 10
297.986
 20
-64.0767
 11
297.746
 21
-64.1316
  0
LINE
  8
0
 10
297.746
 20
-64.1316
 11
297.5
 21
-64.15
  0
LINE
  8
0
 10
297.5
 20
-64.15
 11
297.254
 21
-64.1316
  0
LINE
  8
0
 10
-297.746
 20
-64.1316
 11
-297.986
 21
-64.0767
  0
LINE
  8
0
 10
-297.986
 20
-64.0767
 11
-298.216
 21
-63.9866
  0
LINE
  8
0
 10
-298.216
 20
-63.9866
 11
-298.429
 21
-63.8633
  0
LINE
  8
0
 10
-298.429
 20
-63.8633
 11
-298.622
 21
-63.7095
  0
LINE
  8
0
 10
-298.622
 20
-63.7095
 11
-298.79
 21
-63.5287
  0
LINE
  8
0
 10
-298.79
 20
-63.5287
 11
-298.929
 21
-63.325
  0
LINE
  8
0
 10
-298.929
 20
-63.325
 11
-299.036
 21
-63.1028
  0
LINE
  8
0
 10
-299.036
 20
-63.1028
 11
-299.109
 21
-62.8672
  0
LINE
  8
0
 10
-299.109
 20
-62.8672
 11
-299.145
 21
-62.6233
  0
LINE
  8
0
 10
-299.145
 20
-62.6233
 11
-299.145
 21
-22.3767
  0
LINE
  8
0
 10
-299.145
 20
-22.3767
 11
-299.109
 21
-22.1328
  0
LINE
  8
0
 10
-299.109
 20
-22.1328
 11
-299.036
 21
-21.8972
  0
LINE
  8
0
 10
-299.036
 20
-21.8972
 11
-298.929
 21
-21.675
  0
LINE
  8
0
 10
-298.929
 20
-21.675
 11
-298.79
 21
-21.4712
  0
LINE
  8
0
 10
-298.79
 20
-21.4712
 11
-298.622
 21
-21.2905
  0
LINE
  8
0
 10
-298.622
 20
-21.2905
 11
-298.429
 21
-21.1367
  0
LINE
  8
0
 10
-298.429
 20
-21.1367
 11
-298.216
 21
-21.0134
  0
LINE
  8
0
 10
-298.216
 20
-21.0134
 11
-297.986
 21
-20.9233
  0
LINE
  8
0
 10
-297.986
 20
-20.9233
 11
-297.746
 21
-20.8684
  0
LINE
  8
0
 10
-297.746
 20
-20.8684
 11
-297.5
 21
-20.85
  0
LINE
  8
0
 10
-297.5
 20
-20.85
 11
-297.254
 21
-20.8684
  0
LINE
  8
0
 10
-297.254
 20
-20.8684
 11
-297.014
 21
-20.9233
  0
LINE
  8
0
 10
-297.014
 20
-20.9233
 11
-296.784
 21
-21.0134
  0
LINE
  8
0
 10
-296.784
 20
-21.0134
 11
-296.571
 21
-21.1367
  0
LINE
  8
0
 10
-296.571
 20
-21.1367
 11
-296.378
 21
-21.2905
  0
LINE
  8
0
 10
-296.378
 20
-21.2905
 11
-296.21
 21
-21.4712
  0
LINE
  8
0
 10
-296.21
 20
-21.4712
 11
-296.071
 21
-21.675
  0
LINE
  8
0
 10
-296.071
 20
-21.675
 11
-295.964
 21
-21.8972
  0
LINE
  8
0
 10
-295.964
 20
-21.8972
 11
-295.891
 21
-22.1328
  0
LINE
  8
0
 10
-295.891
 20
-22.1328
 11
-295.855
 21
-22.3767
  0
LINE
  8
0
 10
-295.855
 20
-22.3767
 11
-295.855
 21
-62.6233
  0
LINE
  8
0
 10
-295.855
 20
-62.6233
 11
-295.891
 21
-62.8672
  0
LINE
  8
0
 10
-295.891
 20
-62.8672
 11
-295.964
 21
-63.1028
  0
LINE
  8
0
 10
-295.964
 20
-63.1028
 11
-296.071
 21
-63.325
  0
LINE
  8
0
 10
-296.071
 20
-63.325
 11
-296.21
 21
-63.5287
  0
LINE
  8
0
 10
-296.21
 20
-63.5287
 11
-296.378
 21
-63.7095
  0
LINE
  8
0
 10
-296.378
 20
-63.7095
 11
-296.571
 21
-63.8633
  0
LINE
  8
0
 10
-296.571
 20
-63.8633
 11
-296.784
 21
-63.9866
  0
LINE
  8
0
 10
-296.784
 20
-63.9866
 11
-297.014
 21
-64.0767
  0
LINE
  8
0
 10
-297.014
 20
-64.0767
 11
-297.254
 21
-64.1316
  0
LINE
  8
0
 10
-297.254
 20
-64.1316
 11
-297.5
 21
-64.15
  0
LINE
  8
0
 10
-297.5
 20
-64.15
 11
-297.746
 21
-64.1316
  0
LINE
  8
0
 10
-225.309
 20
-64.1717
 11
-225.549
 21
-64.1089
  0
LINE
  8
0
 10
-225.549
 20
-64.1089
 11
-225.777
 21
-64.0119
  0
LINE
  8
0
 10
-225.777
 20
-64.0119
 11
-225.989
 21
-63.8826
  0
LINE
  8
0
 10
-225.989
 20
-63.8826
 11
-226.18
 21
-63.7238
  0
LINE
  8
0
 10
-226.18
 20
-63.7238
 11
-226.346
 21
-63.539
  0
LINE
  8
0
 10
-226.346
 20
-63.539
 11
-226.482
 21
-63.332
  0
LINE
  8
0
 10
-226.482
 20
-63.332
 11
-226.588
 21
-63.1073
  0
LINE
  8
0
 10
-226.588
 20
-63.1073
 11
-226.659
 21
-62.8696
  0
LINE
  8
0
 10
-226.659
 20
-62.8696
 11
-226.695
 21
-62.6241
  0
LINE
  8
0
 10
-226.695
 20
-62.6241
 11
-226.695
 21
-62.3759
  0
LINE
  8
0
 10
-226.695
 20
-62.3759
 11
-226.659
 21
-62.1304
  0
LINE
  8
0
 10
-226.659
 20
-62.1304
 11
-226.588
 21
-61.8927
  0
LINE
  8
0
 10
-226.588
 20
-61.8927
 11
-226.482
 21
-61.668
  0
LINE
  8
0
 10
-226.482
 20
-61.668
 11
-226.346
 21
-61.461
  0
LINE
  8
0
 10
-226.346
 20
-61.461
 11
-226.18
 21
-61.2762
  0
LINE
  8
0
 10
-226.18
 20
-61.2762
 11
-225.989
 21
-61.1174
  0
LINE
  8
0
 10
-225.989
 20
-61.1174
 11
-225.777
 21
-60.9881
  0
LINE
  8
0
 10
-225.777
 20
-60.9881
 11
-225.549
 21
-60.8911
  0
LINE
  8
0
 10
-225.549
 20
-60.8911
 11
-225.309
 21
-60.8283
  0
LINE
  8
0
 10
-225.309
 20
-60.8283
 11
-225.062
 21
-60.8011
  0
LINE
  8
0
 10
-225.062
 20
-60.8011
 11
-224.814
 21
-60.8102
  0
LINE
  8
0
 10
-224.814
 20
-60.8102
 11
-224.57
 21
-60.8553
  0
LINE
  8
0
 10
-224.57
 20
-60.8553
 11
-224.335
 21
-60.9354
  0
LINE
  8
0
 10
-224.335
 20
-60.9354
 11
-224.114
 21
-61.0489
  0
LINE
  8
0
 10
-224.114
 20
-61.0489
 11
-223.913
 21
-61.1933
  0
LINE
  8
0
 10
-223.913
 20
-61.1933
 11
-223.734
 21
-61.3656
  0
LINE
  8
0
 10
-223.734
 20
-61.3656
 11
-223.582
 21
-61.562
  0
LINE
  8
0
 10
-223.582
 20
-61.562
 11
-223.461
 21
-61.7784
  0
LINE
  8
0
 10
-223.461
 20
-61.7784
 11
-223.372
 21
-62.0102
  0
LINE
  8
0
 10
-223.372
 20
-62.0102
 11
-223.318
 21
-62.2525
  0
LINE
  8
0
 10
-223.318
 20
-62.2525
 11
-223.3
 21
-62.5
  0
LINE
  8
0
 10
-223.3
 20
-62.5
 11
-223.318
 21
-62.7475
  0
LINE
  8
0
 10
-223.318
 20
-62.7475
 11
-223.372
 21
-62.9898
  0
LINE
  8
0
 10
-223.372
 20
-62.9898
 11
-223.461
 21
-63.2216
  0
LINE
  8
0
 10
-223.461
 20
-63.2216
 11
-223.582
 21
-63.438
  0
LINE
  8
0
 10
-223.582
 20
-63.438
 11
-223.734
 21
-63.6344
  0
LINE
  8
0
 10
-223.734
 20
-63.6344
 11
-223.913
 21
-63.8067
  0
LINE
  8
0
 10
-223.913
 20
-63.8067
 11
-224.114
 21
-63.9511
  0
LINE
  8
0
 10
-224.114
 20
-63.9511
 11
-224.335
 21
-64.0646
  0
LINE
  8
0
 10
-224.335
 20
-64.0646
 11
-224.57
 21
-64.1447
  0
LINE
  8
0
 10
-224.57
 20
-64.1447
 11
-224.814
 21
-64.1898
  0
LINE
  8
0
 10
-224.814
 20
-64.1898
 11
-225.062
 21
-64.1989
  0
LINE
  8
0
 10
-225.062
 20
-64.1989
 11
-225.309
 21
-64.1717
  0
LINE
  8
0
 10
-45.3088
 20
-64.1717
 11
-45.5489
 21
-64.1089
  0
LINE
  8
0
 10
-45.5489
 20
-64.1089
 11
-45.7773
 21
-64.0119
  0
LINE
  8
0
 10
-45.7773
 20
-64.0119
 11
-45.9892
 21
-63.8826
  0
LINE
  8
0
 10
-45.9892
 20
-63.8826
 11
-46.1799
 21
-63.7238
  0
LINE
  8
0
 10
-46.1799
 20
-63.7238
 11
-46.3455
 21
-63.539
  0
LINE
  8
0
 10
-46.3455
 20
-63.539
 11
-46.4825
 21
-63.332
  0
LINE
  8
0
 10
-46.4825
 20
-63.332
 11
-46.5878
 21
-63.1073
  0
LINE
  8
0
 10
-46.5878
 20
-63.1073
 11
-46.6593
 21
-62.8696
  0
LINE
  8
0
 10
-46.6593
 20
-62.8696
 11
-46.6955
 21
-62.6241
  0
LINE
  8
0
 10
-46.6955
 20
-62.6241
 11
-46.6955
 21
-62.3759
  0
LINE
  8
0
 10
-46.6955
 20
-62.3759
 11
-46.6593
 21
-62.1304
  0
LINE
  8
0
 10
-46.6593
 20
-62.1304
 11
-46.5878
 21
-61.8927
  0
LINE
  8
0
 10
-46.5878
 20
-61.8927
 11
-46.4825
 21
-61.668
  0
LINE
  8
0
 10
-46.4825
 20
-61.668
 11
-46.3455
 21
-61.461
  0
LINE
  8
0
 10
-46.3455
 20
-61.461
 11
-46.1799
 21
-61.2762
  0
LINE
  8
0
 10
-46.1799
 20
-61.2762
 11
-45.9892
 21
-61.1174
  0
LINE
  8
0
 10
-45.9892
 20
-61.1174
 11
-45.7773
 21
-60.9881
  0
LINE
  8
0
 10
-45.7773
 20
-60.9881
 11
-45.5489
 21
-60.8911
  0
LINE
  8
0
 10
-45.5489
 20
-60.8911
 11
-45.3088
 21
-60.8283
  0
LINE
  8
0
 10
-45.3088
 20
-60.8283
 11
-45.0621
 21
-60.8011
  0
LINE
  8
0
 10
-45.0621
 20
-60.8011
 11
-44.8141
 21
-60.8102
  0
LINE
  8
0
 10
-44.8141
 20
-60.8102
 11
-44.57
 21
-60.8553
  0
LINE
  8
0
 10
-44.57
 20
-60.8553
 11
-44.3351
 21
-60.9354
  0
LINE
  8
0
 10
-44.3351
 20
-60.9354
 11
-44.1144
 21
-61.0489
  0
LINE
  8
0
 10
-44.1144
 20
-61.0489
 11
-43.9126
 21
-61.1933
  0
LINE
  8
0
 10
-43.9126
 20
-61.1933
 11
-43.7339
 21
-61.3656
  0
LINE
  8
0
 10
-43.7339
 20
-61.3656
 11
-43.5822
 21
-61.562
  0
LINE
  8
0
 10
-43.5822
 20
-61.562
 11
-43.4607
 21
-61.7784
  0
LINE
  8
0
 10
-43.4607
 20
-61.7784
 11
-43.3721
 21
-62.0102
  0
LINE
  8
0
 10
-43.3721
 20
-62.0102
 11
-43.3181
 21
-62.2525
  0
LINE
  8
0
 10
-43.3181
 20
-62.2525
 11
-43.3
 21
-62.5
  0
LINE
  8
0
 10
-43.3
 20
-62.5
 11
-43.3181
 21
-62.7475
  0
LINE
  8
0
 10
-43.3181
 20
-62.7475
 11
-43.3721
 21
-62.9898
  0
LINE
  8
0
 10
-43.3721
 20
-62.9898
 11
-43.4607
 21
-63.2216
  0
LINE
  8
0
 10
-43.4607
 20
-63.2216
 11
-43.5822
 21
-63.438
  0
LINE
  8
0
 10
-43.5822
 20
-63.438
 11
-43.7339
 21
-63.6344
  0
LINE
  8
0
 10
-43.7339
 20
-63.6344
 11
-43.9126
 21
-63.8067
  0
LINE
  8
0
 10
-43.9126
 20
-63.8067
 11
-44.1144
 21
-63.9511
  0
LINE
  8
0
 10
-44.1144
 20
-63.9511
 11
-44.3351
 21
-64.0646
  0
LINE
  8
0
 10
-44.3351
 20
-64.0646
 11
-44.57
 21
-64.1447
  0
LINE
  8
0
 10
-44.57
 20
-64.1447
 11
-44.8141
 21
-64.1898
  0
LINE
  8
0
 10
-44.8141
 20
-64.1898
 11
-45.0621
 21
-64.1989
  0
LINE
  8
0
 10
-45.0621
 20
-64.1989
 11
-45.3088
 21
-64.1717
  0
LINE
  8
0
 10
44.6912
 20
-64.1717
 11
44.4511
 21
-64.1089
  0
LINE
  8
0
 10
44.4511
 20
-64.1089
 11
44.2227
 21
-64.0119
  0
LINE
  8
0
 10
44.2227
 20
-64.0119
 11
44.0108
 21
-63.8826
  0
LINE
  8
0
 10
44.0108
 20
-63.8826
 11
43.8201
 21
-63.7238
  0
LINE
  8
0
 10
43.8201
 20
-63.7238
 11
43.6544
 21
-63.539
  0
LINE
  8
0
 10
43.6544
 20
-63.539
 11
43.5175
 21
-63.332
  0
LINE
  8
0
 10
43.5175
 20
-63.332
 11
43.4122
 21
-63.1073
  0
LINE
  8
0
 10
43.4122
 20
-63.1073
 11
43.3407
 21
-62.8696
  0
LINE
  8
0
 10
43.3407
 20
-62.8696
 11
43.3045
 21
-62.6241
  0
LINE
  8
0
 10
43.3045
 20
-62.6241
 11
43.3045
 21
-62.3759
  0
LINE
  8
0
 10
43.3045
 20
-62.3759
 11
43.3407
 21
-62.1304
  0
LINE
  8
0
 10
43.3407
 20
-62.1304
 11
43.4122
 21
-61.8927
  0
LINE
  8
0
 10
43.4122
 20
-61.8927
 11
43.5175
 21
-61.668
  0
LINE
  8
0
 10
43.5175
 20
-61.668
 11
43.6544
 21
-61.461
  0
LINE
  8
0
 10
43.6544
 20
-61.461
 11
43.8201
 21
-61.2762
  0
LINE
  8
0
 10
43.8201
 20
-61.2762
 11
44.0108
 21
-61.1174
  0
LINE
  8
0
 10
44.0108
 20
-61.1174
 11
44.2227
 21
-60.9881
  0
LINE
  8
0
 10
44.2227
 20
-60.9881
 11
44.4511
 21
-60.8911
  0
LINE
  8
0
 10
44.4511
 20
-60.8911
 11
44.6912
 21
-60.8283
  0
LINE
  8
0
 10
44.6912
 20
-60.8283
 11
44.9379
 21
-60.8011
  0
LINE
  8
0
 10
44.9379
 20
-60.8011
 11
45.1859
 21
-60.8102
  0
LINE
  8
0
 10
45.1859
 20
-60.8102
 11
45.43
 21
-60.8553
  0
LINE
  8
0
 10
45.43
 20
-60.8553
 11
45.6649
 21
-60.9354
  0
LINE
  8
0
 10
45.6649
 20
-60.9354
 11
45.8856
 21
-61.0489
  0
LINE
  8
0
 10
45.8856
 20
-61.0489
 11
46.0874
 21
-61.1933
  0
LINE
  8
0
 10
46.0874
 20
-61.1933
 11
46.2661
 21
-61.3656
  0
LINE
  8
0
 10
46.2661
 20
-61.3656
 11
46.4178
 21
-61.562
  0
LINE
  8
0
 10
46.4178
 20
-61.562
 11
46.5393
 21
-61.7784
  0
LINE
  8
0
 10
46.5393
 20
-61.7784
 11
46.6279
 21
-62.0102
  0
LINE
  8
0
 10
46.6279
 20
-62.0102
 11
46.6819
 21
-62.2525
  0
LINE
  8
0
 10
46.6819
 20
-62.2525
 11
46.7
 21
-62.5
  0
LINE
  8
0
 10
46.7
 20
-62.5
 11
46.6819
 21
-62.7475
  0
LINE
  8
0
 10
46.6819
 20
-62.7475
 11
46.6279
 21
-62.9898
  0
LINE
  8
0
 10
46.6279
 20
-62.9898
 11
46.5393
 21
-63.2216
  0
LINE
  8
0
 10
46.5393
 20
-63.2216
 11
46.4178
 21
-63.438
  0
LINE
  8
0
 10
46.4178
 20
-63.438
 11
46.2661
 21
-63.6344
  0
LINE
  8
0
 10
46.2661
 20
-63.6344
 11
46.0874
 21
-63.8067
  0
LINE
  8
0
 10
46.0874
 20
-63.8067
 11
45.8856
 21
-63.9511
  0
LINE
  8
0
 10
45.8856
 20
-63.9511
 11
45.6649
 21
-64.0646
  0
LINE
  8
0
 10
45.6649
 20
-64.0646
 11
45.43
 21
-64.1447
  0
LINE
  8
0
 10
45.43
 20
-64.1447
 11
45.1859
 21
-64.1898
  0
LINE
  8
0
 10
45.1859
 20
-64.1898
 11
44.9379
 21
-64.1989
  0
LINE
  8
0
 10
44.9379
 20
-64.1989
 11
44.6912
 21
-64.1717
  0
LINE
  8
0
 10
134.691
 20
-64.1717
 11
134.451
 21
-64.1089
  0
LINE
  8
0
 10
134.451
 20
-64.1089
 11
134.223
 21
-64.0119
  0
LINE
  8
0
 10
134.223
 20
-64.0119
 11
134.011
 21
-63.8826
  0
LINE
  8
0
 10
134.011
 20
-63.8826
 11
133.82
 21
-63.7238
  0
LINE
  8
0
 10
133.82
 20
-63.7238
 11
133.654
 21
-63.539
  0
LINE
  8
0
 10
133.654
 20
-63.539
 11
133.518
 21
-63.332
  0
LINE
  8
0
 10
133.518
 20
-63.332
 11
133.412
 21
-63.1073
  0
LINE
  8
0
 10
133.412
 20
-63.1073
 11
133.341
 21
-62.8696
  0
LINE
  8
0
 10
133.341
 20
-62.8696
 11
133.305
 21
-62.6241
  0
LINE
  8
0
 10
133.305
 20
-62.6241
 11
133.305
 21
-62.3759
  0
LINE
  8
0
 10
133.305
 20
-62.3759
 11
133.341
 21
-62.1304
  0
LINE
  8
0
 10
133.341
 20
-62.1304
 11
133.412
 21
-61.8927
  0
LINE
  8
0
 10
133.412
 20
-61.8927
 11
133.518
 21
-61.668
  0
LINE
  8
0
 10
133.518
 20
-61.668
 11
133.654
 21
-61.461
  0
LINE
  8
0
 10
133.654
 20
-61.461
 11
133.82
 21
-61.2762
  0
LINE
  8
0
 10
133.82
 20
-61.2762
 11
134.011
 21
-61.1174
  0
LINE
  8
0
 10
134.011
 20
-61.1174
 11
134.223
 21
-60.9881
  0
LINE
  8
0
 10
134.223
 20
-60.9881
 11
134.451
 21
-60.8911
  0
LINE
  8
0
 10
134.451
 20
-60.8911
 11
134.691
 21
-60.8283
  0
LINE
  8
0
 10
134.691
 20
-60.8283
 11
134.938
 21
-60.8011
  0
LINE
  8
0
 10
134.938
 20
-60.8011
 11
135.186
 21
-60.8102
  0
LINE
  8
0
 10
135.186
 20
-60.8102
 11
135.43
 21
-60.8553
  0
LINE
  8
0
 10
135.43
 20
-60.8553
 11
135.665
 21
-60.9354
  0
LINE
  8
0
 10
135.665
 20
-60.9354
 11
135.886
 21
-61.0489
  0
LINE
  8
0
 10
135.886
 20
-61.0489
 11
136.087
 21
-61.1933
  0
LINE
  8
0
 10
136.087
 20
-61.1933
 11
136.266
 21
-61.3656
  0
LINE
  8
0
 10
136.266
 20
-61.3656
 11
136.418
 21
-61.562
  0
LINE
  8
0
 10
136.418
 20
-61.562
 11
136.539
 21
-61.7784
  0
LINE
  8
0
 10
136.539
 20
-61.7784
 11
136.628
 21
-62.0102
  0
LINE
  8
0
 10
136.628
 20
-62.0102
 11
136.682
 21
-62.2525
  0
LINE
  8
0
 10
136.682
 20
-62.2525
 11
136.7
 21
-62.5
  0
LINE
  8
0
 10
136.7
 20
-62.5
 11
136.682
 21
-62.7475
  0
LINE
  8
0
 10
136.682
 20
-62.7475
 11
136.628
 21
-62.9898
  0
LINE
  8
0
 10
136.628
 20
-62.9898
 11
136.539
 21
-63.2216
  0
LINE
  8
0
 10
136.539
 20
-63.2216
 11
136.418
 21
-63.438
  0
LINE
  8
0
 10
136.418
 20
-63.438
 11
136.266
 21
-63.6344
  0
LINE
  8
0
 10
136.266
 20
-63.6344
 11
136.087
 21
-63.8067
  0
LINE
  8
0
 10
136.087
 20
-63.8067
 11
135.886
 21
-63.9511
  0
LINE
  8
0
 10
135.886
 20
-63.9511
 11
135.665
 21
-64.0646
  0
LINE
  8
0
 10
135.665
 20
-64.0646
 11
135.43
 21
-64.1447
  0
LINE
  8
0
 10
135.43
 20
-64.1447
 11
135.186
 21
-64.1898
  0
LINE
  8
0
 10
135.186
 20
-64.1898
 11
134.938
 21
-64.1989
  0
LINE
  8
0
 10
134.938
 20
-64.1989
 11
134.691
 21
-64.1717
  0
LINE
  8
0
 10
224.691
 20
-64.1717
 11
224.451
 21
-64.1089
  0
LINE
  8
0
 10
224.451
 20
-64.1089
 11
224.223
 21
-64.0119
  0
LINE
  8
0
 10
224.223
 20
-64.0119
 11
224.011
 21
-63.8826
  0
LINE
  8
0
 10
224.011
 20
-63.8826
 11
223.82
 21
-63.7238
  0
LINE
  8
0
 10
223.82
 20
-63.7238
 11
223.654
 21
-63.539
  0
LINE
  8
0
 10
223.654
 20
-63.539
 11
223.518
 21
-63.332
  0
LINE
  8
0
 10
223.518
 20
-63.332
 11
223.412
 21
-63.1073
  0
LINE
  8
0
 10
223.412
 20
-63.1073
 11
223.341
 21
-62.8696
  0
LINE
  8
0
 10
223.341
 20
-62.8696
 11
223.305
 21
-62.6241
  0
LINE
  8
0
 10
223.305
 20
-62.6241
 11
223.305
 21
-62.3759
  0
LINE
  8
0
 10
223.305
 20
-62.3759
 11
223.341
 21
-62.1304
  0
LINE
  8
0
 10
223.341
 20
-62.1304
 11
223.412
 21
-61.8927
  0
LINE
  8
0
 10
223.412
 20
-61.8927
 11
223.518
 21
-61.668
  0
LINE
  8
0
 10
223.518
 20
-61.668
 11
223.654
 21
-61.461
  0
LINE
  8
0
 10
223.654
 20
-61.461
 11
223.82
 21
-61.2762
  0
LINE
  8
0
 10
223.82
 20
-61.2762
 11
224.011
 21
-61.1174
  0
LINE
  8
0
 10
224.011
 20
-61.1174
 11
224.223
 21
-60.9881
  0
LINE
  8
0
 10
224.223
 20
-60.9881
 11
224.451
 21
-60.8911
  0
LINE
  8
0
 10
224.451
 20
-60.8911
 11
224.691
 21
-60.8283
  0
LINE
  8
0
 10
224.691
 20
-60.8283
 11
224.938
 21
-60.8011
  0
LINE
  8
0
 10
224.938
 20
-60.8011
 11
225.186
 21
-60.8102
  0
LINE
  8
0
 10
225.186
 20
-60.8102
 11
225.43
 21
-60.8553
  0
LINE
  8
0
 10
225.43
 20
-60.8553
 11
225.665
 21
-60.9354
  0
LINE
  8
0
 10
225.665
 20
-60.9354
 11
225.886
 21
-61.0489
  0
LINE
  8
0
 10
225.886
 20
-61.0489
 11
226.087
 21
-61.1933
  0
LINE
  8
0
 10
226.087
 20
-61.1933
 11
226.266
 21
-61.3656
  0
LINE
  8
0
 10
226.266
 20
-61.3656
 11
226.418
 21
-61.562
  0
LINE
  8
0
 10
226.418
 20
-61.562
 11
226.539
 21
-61.7784
  0
LINE
  8
0
 10
226.539
 20
-61.7784
 11
226.628
 21
-62.0102
  0
LINE
  8
0
 10
226.628
 20
-62.0102
 11
226.682
 21
-62.2525
  0
LINE
  8
0
 10
226.682
 20
-62.2525
 11
226.7
 21
-62.5
  0
LINE
  8
0
 10
226.7
 20
-62.5
 11
226.682
 21
-62.7475
  0
LINE
  8
0
 10
226.682
 20
-62.7475
 11
226.628
 21
-62.9898
  0
LINE
  8
0
 10
226.628
 20
-62.9898
 11
226.539
 21
-63.2216
  0
LINE
  8
0
 10
226.539
 20
-63.2216
 11
226.418
 21
-63.438
  0
LINE
  8
0
 10
226.418
 20
-63.438
 11
226.266
 21
-63.6344
  0
LINE
  8
0
 10
226.266
 20
-63.6344
 11
226.087
 21
-63.8067
  0
LINE
  8
0
 10
226.087
 20
-63.8067
 11
225.886
 21
-63.9511
  0
LINE
  8
0
 10
225.886
 20
-63.9511
 11
225.665
 21
-64.0646
  0
LINE
  8
0
 10
225.665
 20
-64.0646
 11
225.43
 21
-64.1447
  0
LINE
  8
0
 10
225.43
 20
-64.1447
 11
225.186
 21
-64.1898
  0
LINE
  8
0
 10
225.186
 20
-64.1898
 11
224.938
 21
-64.1989
  0
LINE
  8
0
 10
224.938
 20
-64.1989
 11
224.691
 21
-64.1717
  0
LINE
  8
0
 10
-135.309
 20
-64.1717
 11
-135.549
 21
-64.1089
  0
LINE
  8
0
 10
-135.549
 20
-64.1089
 11
-135.777
 21
-64.0119
  0
LINE
  8
0
 10
-135.777
 20
-64.0119
 11
-135.989
 21
-63.8826
  0
LINE
  8
0
 10
-135.989
 20
-63.8826
 11
-136.18
 21
-63.7238
  0
LINE
  8
0
 10
-136.18
 20
-63.7238
 11
-136.346
 21
-63.539
  0
LINE
  8
0
 10
-136.346
 20
-63.539
 11
-136.482
 21
-63.332
  0
LINE
  8
0
 10
-136.482
 20
-63.332
 11
-136.588
 21
-63.1073
  0
LINE
  8
0
 10
-136.588
 20
-63.1073
 11
-136.659
 21
-62.8696
  0
LINE
  8
0
 10
-136.659
 20
-62.8696
 11
-136.695
 21
-62.6241
  0
LINE
  8
0
 10
-136.695
 20
-62.6241
 11
-136.695
 21
-62.3759
  0
LINE
  8
0
 10
-136.695
 20
-62.3759
 11
-136.659
 21
-62.1304
  0
LINE
  8
0
 10
-136.659
 20
-62.1304
 11
-136.588
 21
-61.8927
  0
LINE
  8
0
 10
-136.588
 20
-61.8927
 11
-136.482
 21
-61.668
  0
LINE
  8
0
 10
-136.482
 20
-61.668
 11
-136.346
 21
-61.461
  0
LINE
  8
0
 10
-136.346
 20
-61.461
 11
-136.18
 21
-61.2762
  0
LINE
  8
0
 10
-136.18
 20
-61.2762
 11
-135.989
 21
-61.1174
  0
LINE
  8
0
 10
-135.989
 20
-61.1174
 11
-135.777
 21
-60.9881
  0
LINE
  8
0
 10
-135.777
 20
-60.9881
 11
-135.549
 21
-60.8911
  0
LINE
  8
0
 10
-135.549
 20
-60.8911
 11
-135.309
 21
-60.8283
  0
LINE
  8
0
 10
-135.309
 20
-60.8283
 11
-135.062
 21
-60.8011
  0
LINE
  8
0
 10
-135.062
 20
-60.8011
 11
-134.814
 21
-60.8102
  0
LINE
  8
0
 10
-134.814
 20
-60.8102
 11
-134.57
 21
-60.8553
  0
LINE
  8
0
 10
-134.57
 20
-60.8553
 11
-134.335
 21
-60.9354
  0
LINE
  8
0
 10
-134.335
 20
-60.9354
 11
-134.114
 21
-61.0489
  0
LINE
  8
0
 10
-134.114
 20
-61.0489
 11
-133.913
 21
-61.1933
  0
LINE
  8
0
 10
-133.913
 20
-61.1933
 11
-133.734
 21
-61.3656
  0
LINE
  8
0
 10
-133.734
 20
-61.3656
 11
-133.582
 21
-61.562
  0
LINE
  8
0
 10
-133.582
 20
-61.562
 11
-133.461
 21
-61.7784
  0
LINE
  8
0
 10
-133.461
 20
-61.7784
 11
-133.372
 21
-62.0102
  0
LINE
  8
0
 10
-133.372
 20
-62.0102
 11
-133.318
 21
-62.2525
  0
LINE
  8
0
 10
-133.318
 20
-62.2525
 11
-133.3
 21
-62.5
  0
LINE
  8
0
 10
-133.3
 20
-62.5
 11
-133.318
 21
-62.7475
  0
LINE
  8
0
 10
-133.318
 20
-62.7475
 11
-133.372
 21
-62.9898
  0
LINE
  8
0
 10
-133.372
 20
-62.9898
 11
-133.461
 21
-63.2216
  0
LINE
  8
0
 10
-133.461
 20
-63.2216
 11
-133.582
 21
-63.438
  0
LINE
  8
0
 10
-133.582
 20
-63.438
 11
-133.734
 21
-63.6344
  0
LINE
  8
0
 10
-133.734
 20
-63.6344
 11
-133.913
 21
-63.8067
  0
LINE
  8
0
 10
-133.913
 20
-63.8067
 11
-134.114
 21
-63.9511
  0
LINE
  8
0
 10
-134.114
 20
-63.9511
 11
-134.335
 21
-64.0646
  0
LINE
  8
0
 10
-134.335
 20
-64.0646
 11
-134.57
 21
-64.1447
  0
LINE
  8
0
 10
-134.57
 20
-64.1447
 11
-134.814
 21
-64.1898
  0
LINE
  8
0
 10
-134.814
 20
-64.1898
 11
-135.062
 21
-64.1989
  0
LINE
  8
0
 10
-135.062
 20
-64.1989
 11
-135.309
 21
-64.1717
  0
LINE
  8
0
 10
-297.892
 20
-88.7294
 11
-298.28
 21
-88.668
  0
LINE
  8
0
 10
-298.28
 20
-88.668
 11
-298.659
 21
-88.5665
  0
LINE
  8
0
 10
-298.659
 20
-88.5665
 11
-299.025
 21
-88.4258
  0
LINE
  8
0
 10
-299.025
 20
-88.4258
 11
-299.375
 21
-88.2476
  0
LINE
  8
0
 10
-299.375
 20
-88.2476
 11
-299.704
 21
-88.0338
  0
LINE
  8
0
 10
-299.704
 20
-88.0338
 11
-300.009
 21
-87.7868
  0
LINE
  8
0
 10
-300.009
 20
-87.7868
 11
-300.287
 21
-87.5092
  0
LINE
  8
0
 10
-300.287
 20
-87.5092
 11
-300.534
 21
-87.2042
  0
LINE
  8
0
 10
-300.534
 20
-87.2042
 11
-300.748
 21
-86.875
  0
LINE
  8
0
 10
-300.748
 20
-86.875
 11
-300.926
 21
-86.5253
  0
LINE
  8
0
 10
-300.926
 20
-86.5253
 11
-301.066
 21
-86.1588
  0
LINE
  8
0
 10
-301.066
 20
-86.1588
 11
-301.168
 21
-85.7797
  0
LINE
  8
0
 10
-301.168
 20
-85.7797
 11
-301.229
 21
-85.392
  0
LINE
  8
0
 10
-301.229
 20
-85.392
 11
-301.25
 21
-85
  0
LINE
  8
0
 10
-301.25
 20
-85
 11
-301.229
 21
-84.608
  0
LINE
  8
0
 10
-301.229
 20
-84.608
 11
-301.168
 21
-84.2203
  0
LINE
  8
0
 10
-301.168
 20
-84.2203
 11
-301.066
 21
-83.8412
  0
LINE
  8
0
 10
-301.066
 20
-83.8412
 11
-300.926
 21
-83.4747
  0
LINE
  8
0
 10
-300.926
 20
-83.4747
 11
-300.748
 21
-83.125
  0
LINE
  8
0
 10
-300.748
 20
-83.125
 11
-300.534
 21
-82.7958
  0
LINE
  8
0
 10
-300.534
 20
-82.7958
 11
-300.287
 21
-82.4908
  0
LINE
  8
0
 10
-300.287
 20
-82.4908
 11
-300.009
 21
-82.2132
  0
LINE
  8
0
 10
-300.009
 20
-82.2132
 11
-299.704
 21
-81.9662
  0
LINE
  8
0
 10
-299.704
 20
-81.9662
 11
-299.375
 21
-81.7524
  0
LINE
  8
0
 10
-299.375
 20
-81.7524
 11
-299.025
 21
-81.5742
  0
LINE
  8
0
 10
-299.025
 20
-81.5742
 11
-298.659
 21
-81.4335
  0
LINE
  8
0
 10
-298.659
 20
-81.4335
 11
-298.28
 21
-81.3319
  0
LINE
  8
0
 10
-298.28
 20
-81.3319
 11
-297.892
 21
-81.2705
  0
LINE
  8
0
 10
-297.892
 20
-81.2705
 11
-297.5
 21
-81.25
  0
LINE
  8
0
 10
-297.5
 20
-81.25
 11
-297.108
 21
-81.2705
  0
LINE
  8
0
 10
-297.108
 20
-81.2705
 11
-296.72
 21
-81.3319
  0
LINE
  8
0
 10
-296.72
 20
-81.3319
 11
-296.341
 21
-81.4335
  0
LINE
  8
0
 10
-296.341
 20
-81.4335
 11
-295.975
 21
-81.5742
  0
LINE
  8
0
 10
-295.975
 20
-81.5742
 11
-295.625
 21
-81.7524
  0
LINE
  8
0
 10
-295.625
 20
-81.7524
 11
-295.296
 21
-81.9662
  0
LINE
  8
0
 10
-295.296
 20
-81.9662
 11
-294.991
 21
-82.2132
  0
LINE
  8
0
 10
-294.991
 20
-82.2132
 11
-294.713
 21
-82.4908
  0
LINE
  8
0
 10
-294.713
 20
-82.4908
 11
-294.466
 21
-82.7958
  0
LINE
  8
0
 10
-294.466
 20
-82.7958
 11
-294.252
 21
-83.125
  0
LINE
  8
0
 10
-294.252
 20
-83.125
 11
-294.074
 21
-83.4747
  0
LINE
  8
0
 10
-294.074
 20
-83.4747
 11
-293.934
 21
-83.8412
  0
LINE
  8
0
 10
-293.934
 20
-83.8412
 11
-293.832
 21
-84.2203
  0
LINE
  8
0
 10
-293.832
 20
-84.2203
 11
-293.771
 21
-84.608
  0
LINE
  8
0
 10
-293.771
 20
-84.608
 11
-293.75
 21
-85
  0
LINE
  8
0
 10
-293.75
 20
-85
 11
-293.771
 21
-85.392
  0
LINE
  8
0
 10
-293.771
 20
-85.392
 11
-293.832
 21
-85.7797
  0
LINE
  8
0
 10
-293.832
 20
-85.7797
 11
-293.934
 21
-86.1588
  0
LINE
  8
0
 10
-293.934
 20
-86.1588
 11
-294.074
 21
-86.5253
  0
LINE
  8
0
 10
-294.074
 20
-86.5253
 11
-294.252
 21
-86.875
  0
LINE
  8
0
 10
-294.252
 20
-86.875
 11
-294.466
 21
-87.2042
  0
LINE
  8
0
 10
-294.466
 20
-87.2042
 11
-294.713
 21
-87.5092
  0
LINE
  8
0
 10
-294.713
 20
-87.5092
 11
-294.991
 21
-87.7868
  0
LINE
  8
0
 10
-294.991
 20
-87.7868
 11
-295.296
 21
-88.0338
  0
LINE
  8
0
 10
-295.296
 20
-88.0338
 11
-295.625
 21
-88.2476
  0
LINE
  8
0
 10
-295.625
 20
-88.2476
 11
-295.975
 21
-88.4258
  0
LINE
  8
0
 10
-295.975
 20
-88.4258
 11
-296.341
 21
-88.5665
  0
LINE
  8
0
 10
-296.341
 20
-88.5665
 11
-296.72
 21
-88.668
  0
LINE
  8
0
 10
-296.72
 20
-88.668
 11
-297.108
 21
-88.7294
  0
LINE
  8
0
 10
-297.108
 20
-88.7294
 11
-297.5
 21
-88.75
  0
LINE
  8
0
 10
-297.5
 20
-88.75
 11
-297.892
 21
-88.7294
  0
LINE
  8
0
 10
297.108
 20
-88.7294
 11
296.72
 21
-88.668
  0
LINE
  8
0
 10
296.72
 20
-88.668
 11
296.341
 21
-88.5665
  0
LINE
  8
0
 10
296.341
 20
-88.5665
 11
295.975
 21
-88.4258
  0
LINE
  8
0
 10
295.975
 20
-88.4258
 11
295.625
 21
-88.2476
  0
LINE
  8
0
 10
295.625
 20
-88.2476
 11
295.296
 21
-88.0338
  0
LINE
  8
0
 10
295.296
 20
-88.0338
 11
294.991
 21
-87.7868
  0
LINE
  8
0
 10
294.991
 20
-87.7868
 11
294.713
 21
-87.5092
  0
LINE
  8
0
 10
294.713
 20
-87.5092
 11
294.466
 21
-87.2042
  0
LINE
  8
0
 10
294.466
 20
-87.2042
 11
294.252
 21
-86.875
  0
LINE
  8
0
 10
294.252
 20
-86.875
 11
294.074
 21
-86.5253
  0
LINE
  8
0
 10
294.074
 20
-86.5253
 11
293.934
 21
-86.1588
  0
LINE
  8
0
 10
293.934
 20
-86.1588
 11
293.832
 21
-85.7797
  0
LINE
  8
0
 10
293.832
 20
-85.7797
 11
293.771
 21
-85.392
  0
LINE
  8
0
 10
293.771
 20
-85.392
 11
293.75
 21
-85
  0
LINE
  8
0
 10
293.75
 20
-85
 11
293.771
 21
-84.608
  0
LINE
  8
0
 10
293.771
 20
-84.608
 11
293.832
 21
-84.2203
  0
LINE
  8
0
 10
293.832
 20
-84.2203
 11
293.934
 21
-83.8412
  0
LINE
  8
0
 10
293.934
 20
-83.8412
 11
294.074
 21
-83.4747
  0
LINE
  8
0
 10
294.074
 20
-83.4747
 11
294.252
 21
-83.125
  0
LINE
  8
0
 10
294.252
 20
-83.125
 11
294.466
 21
-82.7958
  0
LINE
  8
0
 10
294.466
 20
-82.7958
 11
294.713
 21
-82.4908
  0
LINE
  8
0
 10
294.713
 20
-82.4908
 11
294.991
 21
-82.2132
  0
LINE
  8
0
 10
294.991
 20
-82.2132
 11
295.296
 21
-81.9662
  0
LINE
  8
0
 10
295.296
 20
-81.9662
 11
295.625
 21
-81.7524
  0
LINE
  8
0
 10
295.625
 20
-81.7524
 11
295.975
 21
-81.5742
  0
LINE
  8
0
 10
295.975
 20
-81.5742
 11
296.341
 21
-81.4335
  0
LINE
  8
0
 10
296.341
 20
-81.4335
 11
296.72
 21
-81.3319
  0
LINE
  8
0
 10
296.72
 20
-81.3319
 11
297.108
 21
-81.2705
  0
LINE
  8
0
 10
297.108
 20
-81.2705
 11
297.5
 21
-81.25
  0
LINE
  8
0
 10
297.5
 20
-81.25
 11
297.892
 21
-81.2705
  0
LINE
  8
0
 10
297.892
 20
-81.2705
 11
298.28
 21
-81.3319
  0
LINE
  8
0
 10
298.28
 20
-81.3319
 11
298.659
 21
-81.4335
  0
LINE
  8
0
 10
298.659
 20
-81.4335
 11
299.025
 21
-81.5742
  0
LINE
  8
0
 10
299.025
 20
-81.5742
 11
299.375
 21
-81.7524
  0
LINE
  8
0
 10
299.375
 20
-81.7524
 11
299.704
 21
-81.9662
  0
LINE
  8
0
 10
299.704
 20
-81.9662
 11
300.009
 21
-82.2132
  0
LINE
  8
0
 10
300.009
 20
-82.2132
 11
300.287
 21
-82.4908
  0
LINE
  8
0
 10
300.287
 20
-82.4908
 11
300.534
 21
-82.7958
  0
LINE
  8
0
 10
300.534
 20
-82.7958
 11
300.748
 21
-83.125
  0
LINE
  8
0
 10
300.748
 20
-83.125
 11
300.926
 21
-83.4747
  0
LINE
  8
0
 10
300.926
 20
-83.4747
 11
301.066
 21
-83.8412
  0
LINE
  8
0
 10
301.066
 20
-83.8412
 11
301.168
 21
-84.2203
  0
LINE
  8
0
 10
301.168
 20
-84.2203
 11
301.229
 21
-84.608
  0
LINE
  8
0
 10
301.229
 20
-84.608
 11
301.25
 21
-85
  0
LINE
  8
0
 10
301.25
 20
-85
 11
301.229
 21
-85.392
  0
LINE
  8
0
 10
301.229
 20
-85.392
 11
301.168
 21
-85.7797
  0
LINE
  8
0
 10
301.168
 20
-85.7797
 11
301.066
 21
-86.1588
  0
LINE
  8
0
 10
301.066
 20
-86.1588
 11
300.926
 21
-86.5253
  0
LINE
  8
0
 10
300.926
 20
-86.5253
 11
300.748
 21
-86.875
  0
LINE
  8
0
 10
300.748
 20
-86.875
 11
300.534
 21
-87.2042
  0
LINE
  8
0
 10
300.534
 20
-87.2042
 11
300.287
 21
-87.5092
  0
LINE
  8
0
 10
300.287
 20
-87.5092
 11
300.009
 21
-87.7868
  0
LINE
  8
0
 10
300.009
 20
-87.7868
 11
299.704
 21
-88.0338
  0
LINE
  8
0
 10
299.704
 20
-88.0338
 11
299.375
 21
-88.2476
  0
LINE
  8
0
 10
299.375
 20
-88.2476
 11
299.025
 21
-88.4258
  0
LINE
  8
0
 10
299.025
 20
-88.4258
 11
298.659
 21
-88.5665
  0
LINE
  8
0
 10
298.659
 20
-88.5665
 11
298.28
 21
-88.668
  0
LINE
  8
0
 10
298.28
 20
-88.668
 11
297.892
 21
-88.7294
  0
LINE
  8
0
 10
297.892
 20
-88.7294
 11
297.5
 21
-88.75
  0
LINE
  8
0
 10
297.5
 20
-88.75
 11
297.108
 21
-88.7294
  0
LINE
  8
0
 10
234.877
 20
-86.6454
 11
234.633
 21
-86.6086
  0
LINE
  8
0
 10
234.633
 20
-86.6086
 11
234.397
 21
-86.5359
  0
LINE
  8
0
 10
234.397
 20
-86.5359
 11
234.175
 21
-86.4289
  0
LINE
  8
0
 10
234.175
 20
-86.4289
 11
233.971
 21
-86.29
  0
LINE
  8
0
 10
233.971
 20
-86.29
 11
233.79
 21
-86.1223
  0
LINE
  8
0
 10
233.79
 20
-86.1223
 11
233.637
 21
-85.9295
  0
LINE
  8
0
 10
233.637
 20
-85.9295
 11
233.513
 21
-85.7159
  0
LINE
  8
0
 10
233.513
 20
-85.7159
 11
233.423
 21
-85.4863
  0
LINE
  8
0
 10
233.423
 20
-85.4863
 11
233.368
 21
-85.2459
  0
LINE
  8
0
 10
233.368
 20
-85.2459
 11
233.35
 21
-85
  0
LINE
  8
0
 10
233.35
 20
-85
 11
233.368
 21
-84.7541
  0
LINE
  8
0
 10
233.368
 20
-84.7541
 11
233.423
 21
-84.5137
  0
LINE
  8
0
 10
233.423
 20
-84.5137
 11
233.513
 21
-84.2841
  0
LINE
  8
0
 10
233.513
 20
-84.2841
 11
233.637
 21
-84.0705
  0
LINE
  8
0
 10
233.637
 20
-84.0705
 11
233.79
 21
-83.8777
  0
LINE
  8
0
 10
233.79
 20
-83.8777
 11
233.971
 21
-83.71
  0
LINE
  8
0
 10
233.971
 20
-83.71
 11
234.175
 21
-83.5711
  0
LINE
  8
0
 10
234.175
 20
-83.5711
 11
234.397
 21
-83.4641
  0
LINE
  8
0
 10
234.397
 20
-83.4641
 11
234.633
 21
-83.3914
  0
LINE
  8
0
 10
234.633
 20
-83.3914
 11
234.877
 21
-83.3546
  0
LINE
  8
0
 10
234.877
 20
-83.3546
 11
275.123
 21
-83.3546
  0
LINE
  8
0
 10
275.123
 20
-83.3546
 11
275.367
 21
-83.3914
  0
LINE
  8
0
 10
275.367
 20
-83.3914
 11
275.603
 21
-83.4641
  0
LINE
  8
0
 10
275.603
 20
-83.4641
 11
275.825
 21
-83.5711
  0
LINE
  8
0
 10
275.825
 20
-83.5711
 11
276.029
 21
-83.71
  0
LINE
  8
0
 10
276.029
 20
-83.71
 11
276.21
 21
-83.8777
  0
LINE
  8
0
 10
276.21
 20
-83.8777
 11
276.363
 21
-84.0705
  0
LINE
  8
0
 10
276.363
 20
-84.0705
 11
276.487
 21
-84.2841
  0
LINE
  8
0
 10
276.487
 20
-84.2841
 11
276.577
 21
-84.5137
  0
LINE
  8
0
 10
276.577
 20
-84.5137
 11
276.632
 21
-84.7541
  0
LINE
  8
0
 10
276.632
 20
-84.7541
 11
276.65
 21
-85
  0
LINE
  8
0
 10
276.65
 20
-85
 11
276.632
 21
-85.2459
  0
LINE
  8
0
 10
276.632
 20
-85.2459
 11
276.577
 21
-85.4863
  0
LINE
  8
0
 10
276.577
 20
-85.4863
 11
276.487
 21
-85.7159
  0
LINE
  8
0
 10
276.487
 20
-85.7159
 11
276.363
 21
-85.9295
  0
LINE
  8
0
 10
276.363
 20
-85.9295
 11
276.21
 21
-86.1223
  0
LINE
  8
0
 10
276.21
 20
-86.1223
 11
276.029
 21
-86.29
  0
LINE
  8
0
 10
276.029
 20
-86.29
 11
275.825
 21
-86.4289
  0
LINE
  8
0
 10
275.825
 20
-86.4289
 11
275.603
 21
-86.5359
  0
LINE
  8
0
 10
275.603
 20
-86.5359
 11
275.367
 21
-86.6086
  0
LINE
  8
0
 10
275.367
 20
-86.6086
 11
275.123
 21
-86.6454
  0
LINE
  8
0
 10
275.123
 20
-86.6454
 11
234.877
 21
-86.6454
  0
LINE
  8
0
 10
149.877
 20
-86.6454
 11
149.633
 21
-86.6086
  0
LINE
  8
0
 10
149.633
 20
-86.6086
 11
149.397
 21
-86.5359
  0
LINE
  8
0
 10
149.397
 20
-86.5359
 11
149.175
 21
-86.4289
  0
LINE
  8
0
 10
149.175
 20
-86.4289
 11
148.971
 21
-86.29
  0
LINE
  8
0
 10
148.971
 20
-86.29
 11
148.79
 21
-86.1223
  0
LINE
  8
0
 10
148.79
 20
-86.1223
 11
148.637
 21
-85.9295
  0
LINE
  8
0
 10
148.637
 20
-85.9295
 11
148.513
 21
-85.7159
  0
LINE
  8
0
 10
148.513
 20
-85.7159
 11
148.423
 21
-85.4863
  0
LINE
  8
0
 10
148.423
 20
-85.4863
 11
148.368
 21
-85.2459
  0
LINE
  8
0
 10
148.368
 20
-85.2459
 11
148.35
 21
-85
  0
LINE
  8
0
 10
148.35
 20
-85
 11
148.368
 21
-84.7541
  0
LINE
  8
0
 10
148.368
 20
-84.7541
 11
148.423
 21
-84.5137
  0
LINE
  8
0
 10
148.423
 20
-84.5137
 11
148.513
 21
-84.2841
  0
LINE
  8
0
 10
148.513
 20
-84.2841
 11
148.637
 21
-84.0705
  0
LINE
  8
0
 10
148.637
 20
-84.0705
 11
148.79
 21
-83.8777
  0
LINE
  8
0
 10
148.79
 20
-83.8777
 11
148.971
 21
-83.71
  0
LINE
  8
0
 10
148.971
 20
-83.71
 11
149.175
 21
-83.5711
  0
LINE
  8
0
 10
149.175
 20
-83.5711
 11
149.397
 21
-83.4641
  0
LINE
  8
0
 10
149.397
 20
-83.4641
 11
149.633
 21
-83.3914
  0
LINE
  8
0
 10
149.633
 20
-83.3914
 11
149.877
 21
-83.3546
  0
LINE
  8
0
 10
149.877
 20
-83.3546
 11
190.123
 21
-83.3546
  0
LINE
  8
0
 10
190.123
 20
-83.3546
 11
190.367
 21
-83.3914
  0
LINE
  8
0
 10
190.367
 20
-83.3914
 11
190.603
 21
-83.4641
  0
LINE
  8
0
 10
190.603
 20
-83.4641
 11
190.825
 21
-83.5711
  0
LINE
  8
0
 10
190.825
 20
-83.5711
 11
191.029
 21
-83.71
  0
LINE
  8
0
 10
191.029
 20
-83.71
 11
191.21
 21
-83.8777
  0
LINE
  8
0
 10
191.21
 20
-83.8777
 11
191.363
 21
-84.0705
  0
LINE
  8
0
 10
191.363
 20
-84.0705
 11
191.487
 21
-84.2841
  0
LINE
  8
0
 10
191.487
 20
-84.2841
 11
191.577
 21
-84.5137
  0
LINE
  8
0
 10
191.577
 20
-84.5137
 11
191.632
 21
-84.7541
  0
LINE
  8
0
 10
191.632
 20
-84.7541
 11
191.65
 21
-85
  0
LINE
  8
0
 10
191.65
 20
-85
 11
191.632
 21
-85.2459
  0
LINE
  8
0
 10
191.632
 20
-85.2459
 11
191.577
 21
-85.4863
  0
LINE
  8
0
 10
191.577
 20
-85.4863
 11
191.487
 21
-85.7159
  0
LINE
  8
0
 10
191.487
 20
-85.7159
 11
191.363
 21
-85.9295
  0
LINE
  8
0
 10
191.363
 20
-85.9295
 11
191.21
 21
-86.1223
  0
LINE
  8
0
 10
191.21
 20
-86.1223
 11
191.029
 21
-86.29
  0
LINE
  8
0
 10
191.029
 20
-86.29
 11
190.825
 21
-86.4289
  0
LINE
  8
0
 10
190.825
 20
-86.4289
 11
190.603
 21
-86.5359
  0
LINE
  8
0
 10
190.603
 20
-86.5359
 11
190.367
 21
-86.6086
  0
LINE
  8
0
 10
190.367
 20
-86.6086
 11
190.123
 21
-86.6454
  0
LINE
  8
0
 10
190.123
 20
-86.6454
 11
149.877
 21
-86.6454
  0
LINE
  8
0
 10
-275.123
 20
-86.6454
 11
-275.367
 21
-86.6086
  0
LINE
  8
0
 10
-275.367
 20
-86.6086
 11
-275.603
 21
-86.5359
  0
LINE
  8
0
 10
-275.603
 20
-86.5359
 11
-275.825
 21
-86.4289
  0
LINE
  8
0
 10
-275.825
 20
-86.4289
 11
-276.029
 21
-86.29
  0
LINE
  8
0
 10
-276.029
 20
-86.29
 11
-276.21
 21
-86.1223
  0
LINE
  8
0
 10
-276.21
 20
-86.1223
 11
-276.363
 21
-85.9295
  0
LINE
  8
0
 10
-276.363
 20
-85.9295
 11
-276.487
 21
-85.7159
  0
LINE
  8
0
 10
-276.487
 20
-85.7159
 11
-276.577
 21
-85.4863
  0
LINE
  8
0
 10
-276.577
 20
-85.4863
 11
-276.632
 21
-85.2459
  0
LINE
  8
0
 10
-276.632
 20
-85.2459
 11
-276.65
 21
-85
  0
LINE
  8
0
 10
-276.65
 20
-85
 11
-276.632
 21
-84.7541
  0
LINE
  8
0
 10
-276.632
 20
-84.7541
 11
-276.577
 21
-84.5137
  0
LINE
  8
0
 10
-276.577
 20
-84.5137
 11
-276.487
 21
-84.2841
  0
LINE
  8
0
 10
-276.487
 20
-84.2841
 11
-276.363
 21
-84.0705
  0
LINE
  8
0
 10
-276.363
 20
-84.0705
 11
-276.21
 21
-83.8777
  0
LINE
  8
0
 10
-276.21
 20
-83.8777
 11
-276.029
 21
-83.71
  0
LINE
  8
0
 10
-276.029
 20
-83.71
 11
-275.825
 21
-83.5711
  0
LINE
  8
0
 10
-275.825
 20
-83.5711
 11
-275.603
 21
-83.4641
  0
LINE
  8
0
 10
-275.603
 20
-83.4641
 11
-275.367
 21
-83.3914
  0
LINE
  8
0
 10
-275.367
 20
-83.3914
 11
-275.123
 21
-83.3546
  0
LINE
  8
0
 10
-275.123
 20
-83.3546
 11
-234.877
 21
-83.3546
  0
LINE
  8
0
 10
-234.877
 20
-83.3546
 11
-234.633
 21
-83.3914
  0
LINE
  8
0
 10
-234.633
 20
-83.3914
 11
-234.397
 21
-83.4641
  0
LINE
  8
0
 10
-234.397
 20
-83.4641
 11
-234.175
 21
-83.5711
  0
LINE
  8
0
 10
-234.175
 20
-83.5711
 11
-233.971
 21
-83.71
  0
LINE
  8
0
 10
-233.971
 20
-83.71
 11
-233.79
 21
-83.8777
  0
LINE
  8
0
 10
-233.79
 20
-83.8777
 11
-233.637
 21
-84.0705
  0
LINE
  8
0
 10
-233.637
 20
-84.0705
 11
-233.513
 21
-84.2841
  0
LINE
  8
0
 10
-233.513
 20
-84.2841
 11
-233.423
 21
-84.5137
  0
LINE
  8
0
 10
-233.423
 20
-84.5137
 11
-233.368
 21
-84.7541
  0
LINE
  8
0
 10
-233.368
 20
-84.7541
 11
-233.35
 21
-85
  0
LINE
  8
0
 10
-233.35
 20
-85
 11
-233.368
 21
-85.2459
  0
LINE
  8
0
 10
-233.368
 20
-85.2459
 11
-233.423
 21
-85.4863
  0
LINE
  8
0
 10
-233.423
 20
-85.4863
 11
-233.513
 21
-85.7159
  0
LINE
  8
0
 10
-233.513
 20
-85.7159
 11
-233.637
 21
-85.9295
  0
LINE
  8
0
 10
-233.637
 20
-85.9295
 11
-233.79
 21
-86.1223
  0
LINE
  8
0
 10
-233.79
 20
-86.1223
 11
-233.971
 21
-86.29
  0
LINE
  8
0
 10
-233.971
 20
-86.29
 11
-234.175
 21
-86.4289
  0
LINE
  8
0
 10
-234.175
 20
-86.4289
 11
-234.397
 21
-86.5359
  0
LINE
  8
0
 10
-234.397
 20
-86.5359
 11
-234.633
 21
-86.6086
  0
LINE
  8
0
 10
-234.633
 20
-86.6086
 11
-234.877
 21
-86.6454
  0
LINE
  8
0
 10
-234.877
 20
-86.6454
 11
-275.123
 21
-86.6454
  0
LINE
  8
0
 10
-20.1233
 20
-86.6454
 11
-20.3672
 21
-86.6086
  0
LINE
  8
0
 10
-20.3672
 20
-86.6086
 11
-20.6028
 21
-86.5359
  0
LINE
  8
0
 10
-20.6028
 20
-86.5359
 11
-20.825
 21
-86.4289
  0
LINE
  8
0
 10
-20.825
 20
-86.4289
 11
-21.0287
 21
-86.29
  0
LINE
  8
0
 10
-21.0287
 20
-86.29
 11
-21.2095
 21
-86.1223
  0
LINE
  8
0
 10
-21.2095
 20
-86.1223
 11
-21.3633
 21
-85.9295
  0
LINE
  8
0
 10
-21.3633
 20
-85.9295
 11
-21.4866
 21
-85.7159
  0
LINE
  8
0
 10
-21.4866
 20
-85.7159
 11
-21.5767
 21
-85.4863
  0
LINE
  8
0
 10
-21.5767
 20
-85.4863
 11
-21.6316
 21
-85.2459
  0
LINE
  8
0
 10
-21.6316
 20
-85.2459
 11
-21.65
 21
-85
  0
LINE
  8
0
 10
-21.65
 20
-85
 11
-21.6316
 21
-84.7541
  0
LINE
  8
0
 10
-21.6316
 20
-84.7541
 11
-21.5767
 21
-84.5137
  0
LINE
  8
0
 10
-21.5767
 20
-84.5137
 11
-21.4866
 21
-84.2841
  0
LINE
  8
0
 10
-21.4866
 20
-84.2841
 11
-21.3633
 21
-84.0705
  0
LINE
  8
0
 10
-21.3633
 20
-84.0705
 11
-21.2095
 21
-83.8777
  0
LINE
  8
0
 10
-21.2095
 20
-83.8777
 11
-21.0287
 21
-83.71
  0
LINE
  8
0
 10
-21.0287
 20
-83.71
 11
-20.825
 21
-83.5711
  0
LINE
  8
0
 10
-20.825
 20
-83.5711
 11
-20.6028
 21
-83.4641
  0
LINE
  8
0
 10
-20.6028
 20
-83.4641
 11
-20.3672
 21
-83.3914
  0
LINE
  8
0
 10
-20.3672
 20
-83.3914
 11
-20.1233
 21
-83.3546
  0
LINE
  8
0
 10
-20.1233
 20
-83.3546
 11
20.1233
 21
-83.3546
  0
LINE
  8
0
 10
20.1233
 20
-83.3546
 11
20.3672
 21
-83.3914
  0
LINE
  8
0
 10
20.3672
 20
-83.3914
 11
20.6028
 21
-83.4641
  0
LINE
  8
0
 10
20.6028
 20
-83.4641
 11
20.825
 21
-83.5711
  0
LINE
  8
0
 10
20.825
 20
-83.5711
 11
21.0287
 21
-83.71
  0
LINE
  8
0
 10
21.0287
 20
-83.71
 11
21.2095
 21
-83.8777
  0
LINE
  8
0
 10
21.2095
 20
-83.8777
 11
21.3633
 21
-84.0705
  0
LINE
  8
0
 10
21.3633
 20
-84.0705
 11
21.4866
 21
-84.2841
  0
LINE
  8
0
 10
21.4866
 20
-84.2841
 11
21.5767
 21
-84.5137
  0
LINE
  8
0
 10
21.5767
 20
-84.5137
 11
21.6316
 21
-84.7541
  0
LINE
  8
0
 10
21.6316
 20
-84.7541
 11
21.65
 21
-85
  0
LINE
  8
0
 10
21.65
 20
-85
 11
21.6316
 21
-85.2459
  0
LINE
  8
0
 10
21.6316
 20
-85.2459
 11
21.5767
 21
-85.4863
  0
LINE
  8
0
 10
21.5767
 20
-85.4863
 11
21.4866
 21
-85.7159
  0
LINE
  8
0
 10
21.4866
 20
-85.7159
 11
21.3633
 21
-85.9295
  0
LINE
  8
0
 10
21.3633
 20
-85.9295
 11
21.2095
 21
-86.1223
  0
LINE
  8
0
 10
21.2095
 20
-86.1223
 11
21.0287
 21
-86.29
  0
LINE
  8
0
 10
21.0287
 20
-86.29
 11
20.825
 21
-86.4289
  0
LINE
  8
0
 10
20.825
 20
-86.4289
 11
20.6028
 21
-86.5359
  0
LINE
  8
0
 10
20.6028
 20
-86.5359
 11
20.3672
 21
-86.6086
  0
LINE
  8
0
 10
20.3672
 20
-86.6086
 11
20.1233
 21
-86.6454
  0
LINE
  8
0
 10
20.1233
 20
-86.6454
 11
-20.1233
 21
-86.6454
  0
LINE
  8
0
 10
64.8767
 20
-86.6454
 11
64.6328
 21
-86.6086
  0
LINE
  8
0
 10
64.6328
 20
-86.6086
 11
64.3972
 21
-86.5359
  0
LINE
  8
0
 10
64.3972
 20
-86.5359
 11
64.175
 21
-86.4289
  0
LINE
  8
0
 10
64.175
 20
-86.4289
 11
63.9712
 21
-86.29
  0
LINE
  8
0
 10
63.9712
 20
-86.29
 11
63.7905
 21
-86.1223
  0
LINE
  8
0
 10
63.7905
 20
-86.1223
 11
63.6367
 21
-85.9295
  0
LINE
  8
0
 10
63.6367
 20
-85.9295
 11
63.5134
 21
-85.7159
  0
LINE
  8
0
 10
63.5134
 20
-85.7159
 11
63.4233
 21
-85.4863
  0
LINE
  8
0
 10
63.4233
 20
-85.4863
 11
63.3684
 21
-85.2459
  0
LINE
  8
0
 10
63.3684
 20
-85.2459
 11
63.35
 21
-85
  0
LINE
  8
0
 10
63.35
 20
-85
 11
63.3684
 21
-84.7541
  0
LINE
  8
0
 10
63.3684
 20
-84.7541
 11
63.4233
 21
-84.5137
  0
LINE
  8
0
 10
63.4233
 20
-84.5137
 11
63.5134
 21
-84.2841
  0
LINE
  8
0
 10
63.5134
 20
-84.2841
 11
63.6367
 21
-84.0705
  0
LINE
  8
0
 10
63.6367
 20
-84.0705
 11
63.7905
 21
-83.8777
  0
LINE
  8
0
 10
63.7905
 20
-83.8777
 11
63.9712
 21
-83.71
  0
LINE
  8
0
 10
63.9712
 20
-83.71
 11
64.175
 21
-83.5711
  0
LINE
  8
0
 10
64.175
 20
-83.5711
 11
64.3972
 21
-83.4641
  0
LINE
  8
0
 10
64.3972
 20
-83.4641
 11
64.6328
 21
-83.3914
  0
LINE
  8
0
 10
64.6328
 20
-83.3914
 11
64.8767
 21
-83.3546
  0
LINE
  8
0
 10
64.8767
 20
-83.3546
 11
105.123
 21
-83.3546
  0
LINE
  8
0
 10
105.123
 20
-83.3546
 11
105.367
 21
-83.3914
  0
LINE
  8
0
 10
105.367
 20
-83.3914
 11
105.603
 21
-83.4641
  0
LINE
  8
0
 10
105.603
 20
-83.4641
 11
105.825
 21
-83.5711
  0
LINE
  8
0
 10
105.825
 20
-83.5711
 11
106.029
 21
-83.71
  0
LINE
  8
0
 10
106.029
 20
-83.71
 11
106.21
 21
-83.8777
  0
LINE
  8
0
 10
106.21
 20
-83.8777
 11
106.363
 21
-84.0705
  0
LINE
  8
0
 10
106.363
 20
-84.0705
 11
106.487
 21
-84.2841
  0
LINE
  8
0
 10
106.487
 20
-84.2841
 11
106.577
 21
-84.5137
  0
LINE
  8
0
 10
106.577
 20
-84.5137
 11
106.632
 21
-84.7541
  0
LINE
  8
0
 10
106.632
 20
-84.7541
 11
106.65
 21
-85
  0
LINE
  8
0
 10
106.65
 20
-85
 11
106.632
 21
-85.2459
  0
LINE
  8
0
 10
106.632
 20
-85.2459
 11
106.577
 21
-85.4863
  0
LINE
  8
0
 10
106.577
 20
-85.4863
 11
106.487
 21
-85.7159
  0
LINE
  8
0
 10
106.487
 20
-85.7159
 11
106.363
 21
-85.9295
  0
LINE
  8
0
 10
106.363
 20
-85.9295
 11
106.21
 21
-86.1223
  0
LINE
  8
0
 10
106.21
 20
-86.1223
 11
106.029
 21
-86.29
  0
LINE
  8
0
 10
106.029
 20
-86.29
 11
105.825
 21
-86.4289
  0
LINE
  8
0
 10
105.825
 20
-86.4289
 11
105.603
 21
-86.5359
  0
LINE
  8
0
 10
105.603
 20
-86.5359
 11
105.367
 21
-86.6086
  0
LINE
  8
0
 10
105.367
 20
-86.6086
 11
105.123
 21
-86.6454
  0
LINE
  8
0
 10
105.123
 20
-86.6454
 11
64.8767
 21
-86.6454
  0
LINE
  8
0
 10
-190.123
 20
-86.6454
 11
-190.367
 21
-86.6086
  0
LINE
  8
0
 10
-190.367
 20
-86.6086
 11
-190.603
 21
-86.5359
  0
LINE
  8
0
 10
-190.603
 20
-86.5359
 11
-190.825
 21
-86.4289
  0
LINE
  8
0
 10
-190.825
 20
-86.4289
 11
-191.029
 21
-86.29
  0
LINE
  8
0
 10
-191.029
 20
-86.29
 11
-191.21
 21
-86.1223
  0
LINE
  8
0
 10
-191.21
 20
-86.1223
 11
-191.363
 21
-85.9295
  0
LINE
  8
0
 10
-191.363
 20
-85.9295
 11
-191.487
 21
-85.7159
  0
LINE
  8
0
 10
-191.487
 20
-85.7159
 11
-191.577
 21
-85.4863
  0
LINE
  8
0
 10
-191.577
 20
-85.4863
 11
-191.632
 21
-85.2459
  0
LINE
  8
0
 10
-191.632
 20
-85.2459
 11
-191.65
 21
-85
  0
LINE
  8
0
 10
-191.65
 20
-85
 11
-191.632
 21
-84.7541
  0
LINE
  8
0
 10
-191.632
 20
-84.7541
 11
-191.577
 21
-84.5137
  0
LINE
  8
0
 10
-191.577
 20
-84.5137
 11
-191.487
 21
-84.2841
  0
LINE
  8
0
 10
-191.487
 20
-84.2841
 11
-191.363
 21
-84.0705
  0
LINE
  8
0
 10
-191.363
 20
-84.0705
 11
-191.21
 21
-83.8777
  0
LINE
  8
0
 10
-191.21
 20
-83.8777
 11
-191.029
 21
-83.71
  0
LINE
  8
0
 10
-191.029
 20
-83.71
 11
-190.825
 21
-83.5711
  0
LINE
  8
0
 10
-190.825
 20
-83.5711
 11
-190.603
 21
-83.4641
  0
LINE
  8
0
 10
-190.603
 20
-83.4641
 11
-190.367
 21
-83.3914
  0
LINE
  8
0
 10
-190.367
 20
-83.3914
 11
-190.123
 21
-83.3546
  0
LINE
  8
0
 10
-190.123
 20
-83.3546
 11
-149.877
 21
-83.3546
  0
LINE
  8
0
 10
-149.877
 20
-83.3546
 11
-149.633
 21
-83.3914
  0
LINE
  8
0
 10
-149.633
 20
-83.3914
 11
-149.397
 21
-83.4641
  0
LINE
  8
0
 10
-149.397
 20
-83.4641
 11
-149.175
 21
-83.5711
  0
LINE
  8
0
 10
-149.175
 20
-83.5711
 11
-148.971
 21
-83.71
  0
LINE
  8
0
 10
-148.971
 20
-83.71
 11
-148.79
 21
-83.8777
  0
LINE
  8
0
 10
-148.79
 20
-83.8777
 11
-148.637
 21
-84.0705
  0
LINE
  8
0
 10
-148.637
 20
-84.0705
 11
-148.513
 21
-84.2841
  0
LINE
  8
0
 10
-148.513
 20
-84.2841
 11
-148.423
 21
-84.5137
  0
LINE
  8
0
 10
-148.423
 20
-84.5137
 11
-148.368
 21
-84.7541
  0
LINE
  8
0
 10
-148.368
 20
-84.7541
 11
-148.35
 21
-85
  0
LINE
  8
0
 10
-148.35
 20
-85
 11
-148.368
 21
-85.2459
  0
LINE
  8
0
 10
-148.368
 20
-85.2459
 11
-148.423
 21
-85.4863
  0
LINE
  8
0
 10
-148.423
 20
-85.4863
 11
-148.513
 21
-85.7159
  0
LINE
  8
0
 10
-148.513
 20
-85.7159
 11
-148.637
 21
-85.9295
  0
LINE
  8
0
 10
-148.637
 20
-85.9295
 11
-148.79
 21
-86.1223
  0
LINE
  8
0
 10
-148.79
 20
-86.1223
 11
-148.971
 21
-86.29
  0
LINE
  8
0
 10
-148.971
 20
-86.29
 11
-149.175
 21
-86.4289
  0
LINE
  8
0
 10
-149.175
 20
-86.4289
 11
-149.397
 21
-86.5359
  0
LINE
  8
0
 10
-149.397
 20
-86.5359
 11
-149.633
 21
-86.6086
  0
LINE
  8
0
 10
-149.633
 20
-86.6086
 11
-149.877
 21
-86.6454
  0
LINE
  8
0
 10
-149.877
 20
-86.6454
 11
-190.123
 21
-86.6454
  0
LINE
  8
0
 10
-105.123
 20
-86.6454
 11
-105.367
 21
-86.6086
  0
LINE
  8
0
 10
-105.367
 20
-86.6086
 11
-105.603
 21
-86.5359
  0
LINE
  8
0
 10
-105.603
 20
-86.5359
 11
-105.825
 21
-86.4289
  0
LINE
  8
0
 10
-105.825
 20
-86.4289
 11
-106.029
 21
-86.29
  0
LINE
  8
0
 10
-106.029
 20
-86.29
 11
-106.21
 21
-86.1223
  0
LINE
  8
0
 10
-106.21
 20
-86.1223
 11
-106.363
 21
-85.9295
  0
LINE
  8
0
 10
-106.363
 20
-85.9295
 11
-106.487
 21
-85.7159
  0
LINE
  8
0
 10
-106.487
 20
-85.7159
 11
-106.577
 21
-85.4863
  0
LINE
  8
0
 10
-106.577
 20
-85.4863
 11
-106.632
 21
-85.2459
  0
LINE
  8
0
 10
-106.632
 20
-85.2459
 11
-106.65
 21
-85
  0
LINE
  8
0
 10
-106.65
 20
-85
 11
-106.632
 21
-84.7541
  0
LINE
  8
0
 10
-106.632
 20
-84.7541
 11
-106.577
 21
-84.5137
  0
LINE
  8
0
 10
-106.577
 20
-84.5137
 11
-106.487
 21
-84.2841
  0
LINE
  8
0
 10
-106.487
 20
-84.2841
 11
-106.363
 21
-84.0705
  0
LINE
  8
0
 10
-106.363
 20
-84.0705
 11
-106.21
 21
-83.8777
  0
LINE
  8
0
 10
-106.21
 20
-83.8777
 11
-106.029
 21
-83.71
  0
LINE
  8
0
 10
-106.029
 20
-83.71
 11
-105.825
 21
-83.5711
  0
LINE
  8
0
 10
-105.825
 20
-83.5711
 11
-105.603
 21
-83.4641
  0
LINE
  8
0
 10
-105.603
 20
-83.4641
 11
-105.367
 21
-83.3914
  0
LINE
  8
0
 10
-105.367
 20
-83.3914
 11
-105.123
 21
-83.3546
  0
LINE
  8
0
 10
-105.123
 20
-83.3546
 11
-64.8767
 21
-83.3546
  0
LINE
  8
0
 10
-64.8767
 20
-83.3546
 11
-64.6328
 21
-83.3914
  0
LINE
  8
0
 10
-64.6328
 20
-83.3914
 11
-64.3972
 21
-83.4641
  0
LINE
  8
0
 10
-64.3972
 20
-83.4641
 11
-64.175
 21
-83.5711
  0
LINE
  8
0
 10
-64.175
 20
-83.5711
 11
-63.9712
 21
-83.71
  0
LINE
  8
0
 10
-63.9712
 20
-83.71
 11
-63.7905
 21
-83.8777
  0
LINE
  8
0
 10
-63.7905
 20
-83.8777
 11
-63.6367
 21
-84.0705
  0
LINE
  8
0
 10
-63.6367
 20
-84.0705
 11
-63.5134
 21
-84.2841
  0
LINE
  8
0
 10
-63.5134
 20
-84.2841
 11
-63.4233
 21
-84.5137
  0
LINE
  8
0
 10
-63.4233
 20
-84.5137
 11
-63.3684
 21
-84.7541
  0
LINE
  8
0
 10
-63.3684
 20
-84.7541
 11
-63.35
 21
-85
  0
LINE
  8
0
 10
-63.35
 20
-85
 11
-63.3684
 21
-85.2459
  0
LINE
  8
0
 10
-63.3684
 20
-85.2459
 11
-63.4233
 21
-85.4863
  0
LINE
  8
0
 10
-63.4233
 20
-85.4863
 11
-63.5134
 21
-85.7159
  0
LINE
  8
0
 10
-63.5134
 20
-85.7159
 11
-63.6367
 21
-85.9295
  0
LINE
  8
0
 10
-63.6367
 20
-85.9295
 11
-63.7905
 21
-86.1223
  0
LINE
  8
0
 10
-63.7905
 20
-86.1223
 11
-63.9712
 21
-86.29
  0
LINE
  8
0
 10
-63.9712
 20
-86.29
 11
-64.175
 21
-86.4289
  0
LINE
  8
0
 10
-64.175
 20
-86.4289
 11
-64.3972
 21
-86.5359
  0
LINE
  8
0
 10
-64.3972
 20
-86.5359
 11
-64.6328
 21
-86.6086
  0
LINE
  8
0
 10
-64.6328
 20
-86.6086
 11
-64.8767
 21
-86.6454
  0
LINE
  8
0
 10
-64.8767
 20
-86.6454
 11
-105.123
 21
-86.6454
  0
ENDSEC
  0
SECTION
  2
OBJECTS
  0
DICTIONARY
  0
ENDSEC
  0
EOF
