  0
SECTION
  2
BLOCKS
  0
ENDSEC
  0
SECTION
  2
ENTITIES
  0
LINE
  8
0
 10
315.398
 20
-117.298
 11
315.915
 21
-117.216
  0
LINE
  8
0
 10
315.915
 20
-117.216
 11
316.42
 21
-117.08
  0
LINE
  8
0
 10
316.42
 20
-117.08
 11
316.909
 21
-116.893
  0
LINE
  8
0
 10
316.909
 20
-116.893
 11
317.375
 21
-116.655
  0
LINE
  8
0
 10
317.375
 20
-116.655
 11
317.814
 21
-116.37
  0
LINE
  8
0
 10
317.814
 20
-116.37
 11
318.221
 21
-116.041
  0
LINE
  8
0
 10
318.221
 20
-116.041
 11
318.591
 21
-115.671
  0
LINE
  8
0
 10
318.591
 20
-115.671
 11
318.92
 21
-115.264
  0
LINE
  8
0
 10
318.92
 20
-115.264
 11
319.205
 21
-114.825
  0
LINE
  8
0
 10
319.205
 20
-114.825
 11
319.443
 21
-114.359
  0
LINE
  8
0
 10
319.443
 20
-114.359
 11
319.63
 21
-113.87
  0
LINE
  8
0
 10
319.63
 20
-113.87
 11
319.766
 21
-113.365
  0
LINE
  8
0
 10
319.766
 20
-113.365
 11
319.848
 21
-112.848
  0
LINE
  8
0
 10
319.848
 20
-112.848
 11
319.875
 21
-112.325
  0
LINE
  8
0
 10
319.875
 20
-112.325
 11
319.875
 21
112.325
  0
LINE
  8
0
 10
319.875
 20
112.325
 11
319.848
 21
112.848
  0
LINE
  8
0
 10
319.848
 20
112.848
 11
319.766
 21
113.365
  0
LINE
  8
0
 10
319.766
 20
113.365
 11
319.63
 21
113.87
  0
LINE
  8
0
 10
319.63
 20
113.87
 11
319.443
 21
114.359
  0
LINE
  8
0
 10
319.443
 20
114.359
 11
319.205
 21
114.825
  0
LINE
  8
0
 10
319.205
 20
114.825
 11
318.92
 21
115.264
  0
LINE
  8
0
 10
318.92
 20
115.264
 11
318.591
 21
115.671
  0
LINE
  8
0
 10
318.591
 20
115.671
 11
318.221
 21
116.041
  0
LINE
  8
0
 10
318.221
 20
116.041
 11
317.814
 21
116.37
  0
LINE
  8
0
 10
317.814
 20
116.37
 11
317.375
 21
116.655
  0
LINE
  8
0
 10
317.375
 20
116.655
 11
316.909
 21
116.893
  0
LINE
  8
0
 10
316.909
 20
116.893
 11
316.42
 21
117.08
  0
LINE
  8
0
 10
316.42
 20
117.08
 11
315.915
 21
117.216
  0
LINE
  8
0
 10
315.915
 20
117.216
 11
315.398
 21
117.298
  0
LINE
  8
0
 10
315.398
 20
117.298
 11
314.875
 21
117.325
  0
LINE
  8
0
 10
314.875
 20
117.325
 11
-314.875
 21
117.325
  0
LINE
  8
0
 10
-314.875
 20
117.325
 11
-315.398
 21
117.298
  0
LINE
  8
0
 10
-315.398
 20
117.298
 11
-315.915
 21
117.216
  0
LINE
  8
0
 10
-315.915
 20
117.216
 11
-316.42
 21
117.08
  0
LINE
  8
0
 10
-316.42
 20
117.08
 11
-316.909
 21
116.893
  0
LINE
  8
0
 10
-316.909
 20
116.893
 11
-317.375
 21
116.655
  0
LINE
  8
0
 10
-317.375
 20
116.655
 11
-317.814
 21
116.37
  0
LINE
  8
0
 10
-317.814
 20
116.37
 11
-318.221
 21
116.041
  0
LINE
  8
0
 10
-318.221
 20
116.041
 11
-318.591
 21
115.671
  0
LINE
  8
0
 10
-318.591
 20
115.671
 11
-318.92
 21
115.264
  0
LINE
  8
0
 10
-318.92
 20
115.264
 11
-319.205
 21
114.825
  0
LINE
  8
0
 10
-319.205
 20
114.825
 11
-319.443
 21
114.359
  0
LINE
  8
0
 10
-319.443
 20
114.359
 11
-319.63
 21
113.87
  0
LINE
  8
0
 10
-319.63
 20
113.87
 11
-319.766
 21
113.365
  0
LINE
  8
0
 10
-319.766
 20
113.365
 11
-319.848
 21
112.848
  0
LINE
  8
0
 10
-319.848
 20
112.848
 11
-319.875
 21
112.325
  0
LINE
  8
0
 10
-319.875
 20
112.325
 11
-319.875
 21
-112.325
  0
LINE
  8
0
 10
-319.875
 20
-112.325
 11
-319.848
 21
-112.848
  0
LINE
  8
0
 10
-319.848
 20
-112.848
 11
-319.766
 21
-113.365
  0
LINE
  8
0
 10
-319.766
 20
-113.365
 11
-319.63
 21
-113.87
  0
LINE
  8
0
 10
-319.63
 20
-113.87
 11
-319.443
 21
-114.359
  0
LINE
  8
0
 10
-319.443
 20
-114.359
 11
-319.205
 21
-114.825
  0
LINE
  8
0
 10
-319.205
 20
-114.825
 11
-318.92
 21
-115.264
  0
LINE
  8
0
 10
-318.92
 20
-115.264
 11
-318.591
 21
-115.671
  0
LINE
  8
0
 10
-318.591
 20
-115.671
 11
-318.221
 21
-116.041
  0
LINE
  8
0
 10
-318.221
 20
-116.041
 11
-317.814
 21
-116.37
  0
LINE
  8
0
 10
-317.814
 20
-116.37
 11
-317.375
 21
-116.655
  0
LINE
  8
0
 10
-317.375
 20
-116.655
 11
-316.909
 21
-116.893
  0
LINE
  8
0
 10
-316.909
 20
-116.893
 11
-316.42
 21
-117.08
  0
LINE
  8
0
 10
-316.42
 20
-117.08
 11
-315.915
 21
-117.216
  0
LINE
  8
0
 10
-315.915
 20
-117.216
 11
-315.398
 21
-117.298
  0
LINE
  8
0
 10
-315.398
 20
-117.298
 11
-314.875
 21
-117.325
  0
LINE
  8
0
 10
-314.875
 20
-117.325
 11
314.875
 21
-117.325
  0
LINE
  8
0
 10
314.875
 20
-117.325
 11
315.398
 21
-117.298
  0
LINE
  8
0
 10
-312.892
 20
106.221
 11
-313.28
 21
106.282
  0
LINE
  8
0
 10
-313.28
 20
106.282
 11
-313.659
 21
106.384
  0
LINE
  8
0
 10
-313.659
 20
106.384
 11
-314.025
 21
106.524
  0
LINE
  8
0
 10
-314.025
 20
106.524
 11
-314.375
 21
106.702
  0
LINE
  8
0
 10
-314.375
 20
106.702
 11
-314.704
 21
106.916
  0
LINE
  8
0
 10
-314.704
 20
106.916
 11
-315.009
 21
107.163
  0
LINE
  8
0
 10
-315.009
 20
107.163
 11
-315.287
 21
107.441
  0
LINE
  8
0
 10
-315.287
 20
107.441
 11
-315.534
 21
107.746
  0
LINE
  8
0
 10
-315.534
 20
107.746
 11
-315.748
 21
108.075
  0
LINE
  8
0
 10
-315.748
 20
108.075
 11
-315.926
 21
108.425
  0
LINE
  8
0
 10
-315.926
 20
108.425
 11
-316.066
 21
108.791
  0
LINE
  8
0
 10
-316.066
 20
108.791
 11
-316.168
 21
109.17
  0
LINE
  8
0
 10
-316.168
 20
109.17
 11
-316.229
 21
109.558
  0
LINE
  8
0
 10
-316.229
 20
109.558
 11
-316.25
 21
109.95
  0
LINE
  8
0
 10
-316.25
 20
109.95
 11
-316.229
 21
110.342
  0
LINE
  8
0
 10
-316.229
 20
110.342
 11
-316.168
 21
110.73
  0
LINE
  8
0
 10
-316.168
 20
110.73
 11
-316.066
 21
111.109
  0
LINE
  8
0
 10
-316.066
 20
111.109
 11
-315.926
 21
111.475
  0
LINE
  8
0
 10
-315.926
 20
111.475
 11
-315.748
 21
111.825
  0
LINE
  8
0
 10
-315.748
 20
111.825
 11
-315.534
 21
112.154
  0
LINE
  8
0
 10
-315.534
 20
112.154
 11
-315.287
 21
112.459
  0
LINE
  8
0
 10
-315.287
 20
112.459
 11
-315.009
 21
112.737
  0
LINE
  8
0
 10
-315.009
 20
112.737
 11
-314.704
 21
112.984
  0
LINE
  8
0
 10
-314.704
 20
112.984
 11
-314.375
 21
113.198
  0
LINE
  8
0
 10
-314.375
 20
113.198
 11
-314.025
 21
113.376
  0
LINE
  8
0
 10
-314.025
 20
113.376
 11
-313.659
 21
113.516
  0
LINE
  8
0
 10
-313.659
 20
113.516
 11
-313.28
 21
113.618
  0
LINE
  8
0
 10
-313.28
 20
113.618
 11
-312.892
 21
113.679
  0
LINE
  8
0
 10
-312.892
 20
113.679
 11
-312.5
 21
113.7
  0
LINE
  8
0
 10
-312.5
 20
113.7
 11
-312.108
 21
113.679
  0
LINE
  8
0
 10
-312.108
 20
113.679
 11
-311.72
 21
113.618
  0
LINE
  8
0
 10
-311.72
 20
113.618
 11
-311.341
 21
113.516
  0
LINE
  8
0
 10
-311.341
 20
113.516
 11
-310.975
 21
113.376
  0
LINE
  8
0
 10
-310.975
 20
113.376
 11
-310.625
 21
113.198
  0
LINE
  8
0
 10
-310.625
 20
113.198
 11
-310.296
 21
112.984
  0
LINE
  8
0
 10
-310.296
 20
112.984
 11
-309.991
 21
112.737
  0
LINE
  8
0
 10
-309.991
 20
112.737
 11
-309.713
 21
112.459
  0
LINE
  8
0
 10
-309.713
 20
112.459
 11
-309.466
 21
112.154
  0
LINE
  8
0
 10
-309.466
 20
112.154
 11
-309.252
 21
111.825
  0
LINE
  8
0
 10
-309.252
 20
111.825
 11
-309.074
 21
111.475
  0
LINE
  8
0
 10
-309.074
 20
111.475
 11
-308.934
 21
111.109
  0
LINE
  8
0
 10
-308.934
 20
111.109
 11
-308.832
 21
110.73
  0
LINE
  8
0
 10
-308.832
 20
110.73
 11
-308.771
 21
110.342
  0
LINE
  8
0
 10
-308.771
 20
110.342
 11
-308.75
 21
109.95
  0
LINE
  8
0
 10
-308.75
 20
109.95
 11
-308.771
 21
109.558
  0
LINE
  8
0
 10
-308.771
 20
109.558
 11
-308.832
 21
109.17
  0
LINE
  8
0
 10
-308.832
 20
109.17
 11
-308.934
 21
108.791
  0
LINE
  8
0
 10
-308.934
 20
108.791
 11
-309.074
 21
108.425
  0
LINE
  8
0
 10
-309.074
 20
108.425
 11
-309.252
 21
108.075
  0
LINE
  8
0
 10
-309.252
 20
108.075
 11
-309.466
 21
107.746
  0
LINE
  8
0
 10
-309.466
 20
107.746
 11
-309.713
 21
107.441
  0
LINE
  8
0
 10
-309.713
 20
107.441
 11
-309.991
 21
107.163
  0
LINE
  8
0
 10
-309.991
 20
107.163
 11
-310.296
 21
106.916
  0
LINE
  8
0
 10
-310.296
 20
106.916
 11
-310.625
 21
106.702
  0
LINE
  8
0
 10
-310.625
 20
106.702
 11
-310.975
 21
106.524
  0
LINE
  8
0
 10
-310.975
 20
106.524
 11
-311.341
 21
106.384
  0
LINE
  8
0
 10
-311.341
 20
106.384
 11
-311.72
 21
106.282
  0
LINE
  8
0
 10
-311.72
 20
106.282
 11
-312.108
 21
106.221
  0
LINE
  8
0
 10
-312.108
 20
106.221
 11
-312.5
 21
106.2
  0
LINE
  8
0
 10
-312.5
 20
106.2
 11
-312.892
 21
106.221
  0
LINE
  8
0
 10
312.108
 20
106.221
 11
311.72
 21
106.282
  0
LINE
  8
0
 10
311.72
 20
106.282
 11
311.341
 21
106.384
  0
LINE
  8
0
 10
311.341
 20
106.384
 11
310.975
 21
106.524
  0
LINE
  8
0
 10
310.975
 20
106.524
 11
310.625
 21
106.702
  0
LINE
  8
0
 10
310.625
 20
106.702
 11
310.296
 21
106.916
  0
LINE
  8
0
 10
310.296
 20
106.916
 11
309.991
 21
107.163
  0
LINE
  8
0
 10
309.991
 20
107.163
 11
309.713
 21
107.441
  0
LINE
  8
0
 10
309.713
 20
107.441
 11
309.466
 21
107.746
  0
LINE
  8
0
 10
309.466
 20
107.746
 11
309.252
 21
108.075
  0
LINE
  8
0
 10
309.252
 20
108.075
 11
309.074
 21
108.425
  0
LINE
  8
0
 10
309.074
 20
108.425
 11
308.934
 21
108.791
  0
LINE
  8
0
 10
308.934
 20
108.791
 11
308.832
 21
109.17
  0
LINE
  8
0
 10
308.832
 20
109.17
 11
308.771
 21
109.558
  0
LINE
  8
0
 10
308.771
 20
109.558
 11
308.75
 21
109.95
  0
LINE
  8
0
 10
308.75
 20
109.95
 11
308.771
 21
110.342
  0
LINE
  8
0
 10
308.771
 20
110.342
 11
308.832
 21
110.73
  0
LINE
  8
0
 10
308.832
 20
110.73
 11
308.934
 21
111.109
  0
LINE
  8
0
 10
308.934
 20
111.109
 11
309.074
 21
111.475
  0
LINE
  8
0
 10
309.074
 20
111.475
 11
309.252
 21
111.825
  0
LINE
  8
0
 10
309.252
 20
111.825
 11
309.466
 21
112.154
  0
LINE
  8
0
 10
309.466
 20
112.154
 11
309.713
 21
112.459
  0
LINE
  8
0
 10
309.713
 20
112.459
 11
309.991
 21
112.737
  0
LINE
  8
0
 10
309.991
 20
112.737
 11
310.296
 21
112.984
  0
LINE
  8
0
 10
310.296
 20
112.984
 11
310.625
 21
113.198
  0
LINE
  8
0
 10
310.625
 20
113.198
 11
310.975
 21
113.376
  0
LINE
  8
0
 10
310.975
 20
113.376
 11
311.341
 21
113.516
  0
LINE
  8
0
 10
311.341
 20
113.516
 11
311.72
 21
113.618
  0
LINE
  8
0
 10
311.72
 20
113.618
 11
312.108
 21
113.679
  0
LINE
  8
0
 10
312.108
 20
113.679
 11
312.5
 21
113.7
  0
LINE
  8
0
 10
312.5
 20
113.7
 11
312.892
 21
113.679
  0
LINE
  8
0
 10
312.892
 20
113.679
 11
313.28
 21
113.618
  0
LINE
  8
0
 10
313.28
 20
113.618
 11
313.659
 21
113.516
  0
LINE
  8
0
 10
313.659
 20
113.516
 11
314.025
 21
113.376
  0
LINE
  8
0
 10
314.025
 20
113.376
 11
314.375
 21
113.198
  0
LINE
  8
0
 10
314.375
 20
113.198
 11
314.704
 21
112.984
  0
LINE
  8
0
 10
314.704
 20
112.984
 11
315.009
 21
112.737
  0
LINE
  8
0
 10
315.009
 20
112.737
 11
315.287
 21
112.459
  0
LINE
  8
0
 10
315.287
 20
112.459
 11
315.534
 21
112.154
  0
LINE
  8
0
 10
315.534
 20
112.154
 11
315.748
 21
111.825
  0
LINE
  8
0
 10
315.748
 20
111.825
 11
315.926
 21
111.475
  0
LINE
  8
0
 10
315.926
 20
111.475
 11
316.066
 21
111.109
  0
LINE
  8
0
 10
316.066
 20
111.109
 11
316.168
 21
110.73
  0
LINE
  8
0
 10
316.168
 20
110.73
 11
316.229
 21
110.342
  0
LINE
  8
0
 10
316.229
 20
110.342
 11
316.25
 21
109.95
  0
LINE
  8
0
 10
316.25
 20
109.95
 11
316.229
 21
109.558
  0
LINE
  8
0
 10
316.229
 20
109.558
 11
316.168
 21
109.17
  0
LINE
  8
0
 10
316.168
 20
109.17
 11
316.066
 21
108.791
  0
LINE
  8
0
 10
316.066
 20
108.791
 11
315.926
 21
108.425
  0
LINE
  8
0
 10
315.926
 20
108.425
 11
315.748
 21
108.075
  0
LINE
  8
0
 10
315.748
 20
108.075
 11
315.534
 21
107.746
  0
LINE
  8
0
 10
315.534
 20
107.746
 11
315.287
 21
107.441
  0
LINE
  8
0
 10
315.287
 20
107.441
 11
315.009
 21
107.163
  0
LINE
  8
0
 10
315.009
 20
107.163
 11
314.704
 21
106.916
  0
LINE
  8
0
 10
314.704
 20
106.916
 11
314.375
 21
106.702
  0
LINE
  8
0
 10
314.375
 20
106.702
 11
314.025
 21
106.524
  0
LINE
  8
0
 10
314.025
 20
106.524
 11
313.659
 21
106.384
  0
LINE
  8
0
 10
313.659
 20
106.384
 11
313.28
 21
106.282
  0
LINE
  8
0
 10
313.28
 20
106.282
 11
312.892
 21
106.221
  0
LINE
  8
0
 10
312.892
 20
106.221
 11
312.5
 21
106.2
  0
LINE
  8
0
 10
312.5
 20
106.2
 11
312.108
 21
106.221
  0
LINE
  8
0
 10
249.877
 20
108.305
 11
249.633
 21
108.341
  0
LINE
  8
0
 10
249.633
 20
108.341
 11
249.397
 21
108.414
  0
LINE
  8
0
 10
249.397
 20
108.414
 11
249.175
 21
108.521
  0
LINE
  8
0
 10
249.175
 20
108.521
 11
248.971
 21
108.66
  0
LINE
  8
0
 10
248.971
 20
108.66
 11
248.79
 21
108.828
  0
LINE
  8
0
 10
248.79
 20
108.828
 11
248.637
 21
109.021
  0
LINE
  8
0
 10
248.637
 20
109.021
 11
248.513
 21
109.234
  0
LINE
  8
0
 10
248.513
 20
109.234
 11
248.423
 21
109.464
  0
LINE
  8
0
 10
248.423
 20
109.464
 11
248.368
 21
109.704
  0
LINE
  8
0
 10
248.368
 20
109.704
 11
248.35
 21
109.95
  0
LINE
  8
0
 10
248.35
 20
109.95
 11
248.368
 21
110.196
  0
LINE
  8
0
 10
248.368
 20
110.196
 11
248.423
 21
110.436
  0
LINE
  8
0
 10
248.423
 20
110.436
 11
248.513
 21
110.666
  0
LINE
  8
0
 10
248.513
 20
110.666
 11
248.637
 21
110.879
  0
LINE
  8
0
 10
248.637
 20
110.879
 11
248.79
 21
111.072
  0
LINE
  8
0
 10
248.79
 20
111.072
 11
248.971
 21
111.24
  0
LINE
  8
0
 10
248.971
 20
111.24
 11
249.175
 21
111.379
  0
LINE
  8
0
 10
249.175
 20
111.379
 11
249.397
 21
111.486
  0
LINE
  8
0
 10
249.397
 20
111.486
 11
249.633
 21
111.559
  0
LINE
  8
0
 10
249.633
 20
111.559
 11
249.877
 21
111.595
  0
LINE
  8
0
 10
249.877
 20
111.595
 11
290.123
 21
111.595
  0
LINE
  8
0
 10
290.123
 20
111.595
 11
290.367
 21
111.559
  0
LINE
  8
0
 10
290.367
 20
111.559
 11
290.603
 21
111.486
  0
LINE
  8
0
 10
290.603
 20
111.486
 11
290.825
 21
111.379
  0
LINE
  8
0
 10
290.825
 20
111.379
 11
291.029
 21
111.24
  0
LINE
  8
0
 10
291.029
 20
111.24
 11
291.21
 21
111.072
  0
LINE
  8
0
 10
291.21
 20
111.072
 11
291.363
 21
110.879
  0
LINE
  8
0
 10
291.363
 20
110.879
 11
291.487
 21
110.666
  0
LINE
  8
0
 10
291.487
 20
110.666
 11
291.577
 21
110.436
  0
LINE
  8
0
 10
291.577
 20
110.436
 11
291.632
 21
110.196
  0
LINE
  8
0
 10
291.632
 20
110.196
 11
291.65
 21
109.95
  0
LINE
  8
0
 10
291.65
 20
109.95
 11
291.632
 21
109.704
  0
LINE
  8
0
 10
291.632
 20
109.704
 11
291.577
 21
109.464
  0
LINE
  8
0
 10
291.577
 20
109.464
 11
291.487
 21
109.234
  0
LINE
  8
0
 10
291.487
 20
109.234
 11
291.363
 21
109.021
  0
LINE
  8
0
 10
291.363
 20
109.021
 11
291.21
 21
108.828
  0
LINE
  8
0
 10
291.21
 20
108.828
 11
291.029
 21
108.66
  0
LINE
  8
0
 10
291.029
 20
108.66
 11
290.825
 21
108.521
  0
LINE
  8
0
 10
290.825
 20
108.521
 11
290.603
 21
108.414
  0
LINE
  8
0
 10
290.603
 20
108.414
 11
290.367
 21
108.341
  0
LINE
  8
0
 10
290.367
 20
108.341
 11
290.123
 21
108.305
  0
LINE
  8
0
 10
290.123
 20
108.305
 11
249.877
 21
108.305
  0
LINE
  8
0
 10
-200.123
 20
108.305
 11
-200.367
 21
108.341
  0
LINE
  8
0
 10
-200.367
 20
108.341
 11
-200.603
 21
108.414
  0
LINE
  8
0
 10
-200.603
 20
108.414
 11
-200.825
 21
108.521
  0
LINE
  8
0
 10
-200.825
 20
108.521
 11
-201.029
 21
108.66
  0
LINE
  8
0
 10
-201.029
 20
108.66
 11
-201.21
 21
108.828
  0
LINE
  8
0
 10
-201.21
 20
108.828
 11
-201.363
 21
109.021
  0
LINE
  8
0
 10
-201.363
 20
109.021
 11
-201.487
 21
109.234
  0
LINE
  8
0
 10
-201.487
 20
109.234
 11
-201.577
 21
109.464
  0
LINE
  8
0
 10
-201.577
 20
109.464
 11
-201.632
 21
109.704
  0
LINE
  8
0
 10
-201.632
 20
109.704
 11
-201.65
 21
109.95
  0
LINE
  8
0
 10
-201.65
 20
109.95
 11
-201.632
 21
110.196
  0
LINE
  8
0
 10
-201.632
 20
110.196
 11
-201.577
 21
110.436
  0
LINE
  8
0
 10
-201.577
 20
110.436
 11
-201.487
 21
110.666
  0
LINE
  8
0
 10
-201.487
 20
110.666
 11
-201.363
 21
110.879
  0
LINE
  8
0
 10
-201.363
 20
110.879
 11
-201.21
 21
111.072
  0
LINE
  8
0
 10
-201.21
 20
111.072
 11
-201.029
 21
111.24
  0
LINE
  8
0
 10
-201.029
 20
111.24
 11
-200.825
 21
111.379
  0
LINE
  8
0
 10
-200.825
 20
111.379
 11
-200.603
 21
111.486
  0
LINE
  8
0
 10
-200.603
 20
111.486
 11
-200.367
 21
111.559
  0
LINE
  8
0
 10
-200.367
 20
111.559
 11
-200.123
 21
111.595
  0
LINE
  8
0
 10
-200.123
 20
111.595
 11
-159.877
 21
111.595
  0
LINE
  8
0
 10
-159.877
 20
111.595
 11
-159.633
 21
111.559
  0
LINE
  8
0
 10
-159.633
 20
111.559
 11
-159.397
 21
111.486
  0
LINE
  8
0
 10
-159.397
 20
111.486
 11
-159.175
 21
111.379
  0
LINE
  8
0
 10
-159.175
 20
111.379
 11
-158.971
 21
111.24
  0
LINE
  8
0
 10
-158.971
 20
111.24
 11
-158.79
 21
111.072
  0
LINE
  8
0
 10
-158.79
 20
111.072
 11
-158.637
 21
110.879
  0
LINE
  8
0
 10
-158.637
 20
110.879
 11
-158.513
 21
110.666
  0
LINE
  8
0
 10
-158.513
 20
110.666
 11
-158.423
 21
110.436
  0
LINE
  8
0
 10
-158.423
 20
110.436
 11
-158.368
 21
110.196
  0
LINE
  8
0
 10
-158.368
 20
110.196
 11
-158.35
 21
109.95
  0
LINE
  8
0
 10
-158.35
 20
109.95
 11
-158.368
 21
109.704
  0
LINE
  8
0
 10
-158.368
 20
109.704
 11
-158.423
 21
109.464
  0
LINE
  8
0
 10
-158.423
 20
109.464
 11
-158.513
 21
109.234
  0
LINE
  8
0
 10
-158.513
 20
109.234
 11
-158.637
 21
109.021
  0
LINE
  8
0
 10
-158.637
 20
109.021
 11
-158.79
 21
108.828
  0
LINE
  8
0
 10
-158.79
 20
108.828
 11
-158.971
 21
108.66
  0
LINE
  8
0
 10
-158.971
 20
108.66
 11
-159.175
 21
108.521
  0
LINE
  8
0
 10
-159.175
 20
108.521
 11
-159.397
 21
108.414
  0
LINE
  8
0
 10
-159.397
 20
108.414
 11
-159.633
 21
108.341
  0
LINE
  8
0
 10
-159.633
 20
108.341
 11
-159.877
 21
108.305
  0
LINE
  8
0
 10
-159.877
 20
108.305
 11
-200.123
 21
108.305
  0
LINE
  8
0
 10
-110.123
 20
108.305
 11
-110.367
 21
108.341
  0
LINE
  8
0
 10
-110.367
 20
108.341
 11
-110.603
 21
108.414
  0
LINE
  8
0
 10
-110.603
 20
108.414
 11
-110.825
 21
108.521
  0
LINE
  8
0
 10
-110.825
 20
108.521
 11
-111.029
 21
108.66
  0
LINE
  8
0
 10
-111.029
 20
108.66
 11
-111.21
 21
108.828
  0
LINE
  8
0
 10
-111.21
 20
108.828
 11
-111.363
 21
109.021
  0
LINE
  8
0
 10
-111.363
 20
109.021
 11
-111.487
 21
109.234
  0
LINE
  8
0
 10
-111.487
 20
109.234
 11
-111.577
 21
109.464
  0
LINE
  8
0
 10
-111.577
 20
109.464
 11
-111.632
 21
109.704
  0
LINE
  8
0
 10
-111.632
 20
109.704
 11
-111.65
 21
109.95
  0
LINE
  8
0
 10
-111.65
 20
109.95
 11
-111.632
 21
110.196
  0
LINE
  8
0
 10
-111.632
 20
110.196
 11
-111.577
 21
110.436
  0
LINE
  8
0
 10
-111.577
 20
110.436
 11
-111.487
 21
110.666
  0
LINE
  8
0
 10
-111.487
 20
110.666
 11
-111.363
 21
110.879
  0
LINE
  8
0
 10
-111.363
 20
110.879
 11
-111.21
 21
111.072
  0
LINE
  8
0
 10
-111.21
 20
111.072
 11
-111.029
 21
111.24
  0
LINE
  8
0
 10
-111.029
 20
111.24
 11
-110.825
 21
111.379
  0
LINE
  8
0
 10
-110.825
 20
111.379
 11
-110.603
 21
111.486
  0
LINE
  8
0
 10
-110.603
 20
111.486
 11
-110.367
 21
111.559
  0
LINE
  8
0
 10
-110.367
 20
111.559
 11
-110.123
 21
111.595
  0
LINE
  8
0
 10
-110.123
 20
111.595
 11
-69.8767
 21
111.595
  0
LINE
  8
0
 10
-69.8767
 20
111.595
 11
-69.6328
 21
111.559
  0
LINE
  8
0
 10
-69.6328
 20
111.559
 11
-69.3972
 21
111.486
  0
LINE
  8
0
 10
-69.3972
 20
111.486
 11
-69.175
 21
111.379
  0
LINE
  8
0
 10
-69.175
 20
111.379
 11
-68.9712
 21
111.24
  0
LINE
  8
0
 10
-68.9712
 20
111.24
 11
-68.7905
 21
111.072
  0
LINE
  8
0
 10
-68.7905
 20
111.072
 11
-68.6367
 21
110.879
  0
LINE
  8
0
 10
-68.6367
 20
110.879
 11
-68.5134
 21
110.666
  0
LINE
  8
0
 10
-68.5134
 20
110.666
 11
-68.4233
 21
110.436
  0
LINE
  8
0
 10
-68.4233
 20
110.436
 11
-68.3684
 21
110.196
  0
LINE
  8
0
 10
-68.3684
 20
110.196
 11
-68.35
 21
109.95
  0
LINE
  8
0
 10
-68.35
 20
109.95
 11
-68.3684
 21
109.704
  0
LINE
  8
0
 10
-68.3684
 20
109.704
 11
-68.4233
 21
109.464
  0
LINE
  8
0
 10
-68.4233
 20
109.464
 11
-68.5134
 21
109.234
  0
LINE
  8
0
 10
-68.5134
 20
109.234
 11
-68.6367
 21
109.021
  0
LINE
  8
0
 10
-68.6367
 20
109.021
 11
-68.7905
 21
108.828
  0
LINE
  8
0
 10
-68.7905
 20
108.828
 11
-68.9712
 21
108.66
  0
LINE
  8
0
 10
-68.9712
 20
108.66
 11
-69.175
 21
108.521
  0
LINE
  8
0
 10
-69.175
 20
108.521
 11
-69.3972
 21
108.414
  0
LINE
  8
0
 10
-69.3972
 20
108.414
 11
-69.6328
 21
108.341
  0
LINE
  8
0
 10
-69.6328
 20
108.341
 11
-69.8767
 21
108.305
  0
LINE
  8
0
 10
-69.8767
 20
108.305
 11
-110.123
 21
108.305
  0
LINE
  8
0
 10
-290.123
 20
108.305
 11
-290.367
 21
108.341
  0
LINE
  8
0
 10
-290.367
 20
108.341
 11
-290.603
 21
108.414
  0
LINE
  8
0
 10
-290.603
 20
108.414
 11
-290.825
 21
108.521
  0
LINE
  8
0
 10
-290.825
 20
108.521
 11
-291.029
 21
108.66
  0
LINE
  8
0
 10
-291.029
 20
108.66
 11
-291.21
 21
108.828
  0
LINE
  8
0
 10
-291.21
 20
108.828
 11
-291.363
 21
109.021
  0
LINE
  8
0
 10
-291.363
 20
109.021
 11
-291.487
 21
109.234
  0
LINE
  8
0
 10
-291.487
 20
109.234
 11
-291.577
 21
109.464
  0
LINE
  8
0
 10
-291.577
 20
109.464
 11
-291.632
 21
109.704
  0
LINE
  8
0
 10
-291.632
 20
109.704
 11
-291.65
 21
109.95
  0
LINE
  8
0
 10
-291.65
 20
109.95
 11
-291.632
 21
110.196
  0
LINE
  8
0
 10
-291.632
 20
110.196
 11
-291.577
 21
110.436
  0
LINE
  8
0
 10
-291.577
 20
110.436
 11
-291.487
 21
110.666
  0
LINE
  8
0
 10
-291.487
 20
110.666
 11
-291.363
 21
110.879
  0
LINE
  8
0
 10
-291.363
 20
110.879
 11
-291.21
 21
111.072
  0
LINE
  8
0
 10
-291.21
 20
111.072
 11
-291.029
 21
111.24
  0
LINE
  8
0
 10
-291.029
 20
111.24
 11
-290.825
 21
111.379
  0
LINE
  8
0
 10
-290.825
 20
111.379
 11
-290.603
 21
111.486
  0
LINE
  8
0
 10
-290.603
 20
111.486
 11
-290.367
 21
111.559
  0
LINE
  8
0
 10
-290.367
 20
111.559
 11
-290.123
 21
111.595
  0
LINE
  8
0
 10
-290.123
 20
111.595
 11
-249.877
 21
111.595
  0
LINE
  8
0
 10
-249.877
 20
111.595
 11
-249.633
 21
111.559
  0
LINE
  8
0
 10
-249.633
 20
111.559
 11
-249.397
 21
111.486
  0
LINE
  8
0
 10
-249.397
 20
111.486
 11
-249.175
 21
111.379
  0
LINE
  8
0
 10
-249.175
 20
111.379
 11
-248.971
 21
111.24
  0
LINE
  8
0
 10
-248.971
 20
111.24
 11
-248.79
 21
111.072
  0
LINE
  8
0
 10
-248.79
 20
111.072
 11
-248.637
 21
110.879
  0
LINE
  8
0
 10
-248.637
 20
110.879
 11
-248.513
 21
110.666
  0
LINE
  8
0
 10
-248.513
 20
110.666
 11
-248.423
 21
110.436
  0
LINE
  8
0
 10
-248.423
 20
110.436
 11
-248.368
 21
110.196
  0
LINE
  8
0
 10
-248.368
 20
110.196
 11
-248.35
 21
109.95
  0
LINE
  8
0
 10
-248.35
 20
109.95
 11
-248.368
 21
109.704
  0
LINE
  8
0
 10
-248.368
 20
109.704
 11
-248.423
 21
109.464
  0
LINE
  8
0
 10
-248.423
 20
109.464
 11
-248.513
 21
109.234
  0
LINE
  8
0
 10
-248.513
 20
109.234
 11
-248.637
 21
109.021
  0
LINE
  8
0
 10
-248.637
 20
109.021
 11
-248.79
 21
108.828
  0
LINE
  8
0
 10
-248.79
 20
108.828
 11
-248.971
 21
108.66
  0
LINE
  8
0
 10
-248.971
 20
108.66
 11
-249.175
 21
108.521
  0
LINE
  8
0
 10
-249.175
 20
108.521
 11
-249.397
 21
108.414
  0
LINE
  8
0
 10
-249.397
 20
108.414
 11
-249.633
 21
108.341
  0
LINE
  8
0
 10
-249.633
 20
108.341
 11
-249.877
 21
108.305
  0
LINE
  8
0
 10
-249.877
 20
108.305
 11
-290.123
 21
108.305
  0
LINE
  8
0
 10
159.877
 20
108.305
 11
159.633
 21
108.341
  0
LINE
  8
0
 10
159.633
 20
108.341
 11
159.397
 21
108.414
  0
LINE
  8
0
 10
159.397
 20
108.414
 11
159.175
 21
108.521
  0
LINE
  8
0
 10
159.175
 20
108.521
 11
158.971
 21
108.66
  0
LINE
  8
0
 10
158.971
 20
108.66
 11
158.79
 21
108.828
  0
LINE
  8
0
 10
158.79
 20
108.828
 11
158.637
 21
109.021
  0
LINE
  8
0
 10
158.637
 20
109.021
 11
158.513
 21
109.234
  0
LINE
  8
0
 10
158.513
 20
109.234
 11
158.423
 21
109.464
  0
LINE
  8
0
 10
158.423
 20
109.464
 11
158.368
 21
109.704
  0
LINE
  8
0
 10
158.368
 20
109.704
 11
158.35
 21
109.95
  0
LINE
  8
0
 10
158.35
 20
109.95
 11
158.368
 21
110.196
  0
LINE
  8
0
 10
158.368
 20
110.196
 11
158.423
 21
110.436
  0
LINE
  8
0
 10
158.423
 20
110.436
 11
158.513
 21
110.666
  0
LINE
  8
0
 10
158.513
 20
110.666
 11
158.637
 21
110.879
  0
LINE
  8
0
 10
158.637
 20
110.879
 11
158.79
 21
111.072
  0
LINE
  8
0
 10
158.79
 20
111.072
 11
158.971
 21
111.24
  0
LINE
  8
0
 10
158.971
 20
111.24
 11
159.175
 21
111.379
  0
LINE
  8
0
 10
159.175
 20
111.379
 11
159.397
 21
111.486
  0
LINE
  8
0
 10
159.397
 20
111.486
 11
159.633
 21
111.559
  0
LINE
  8
0
 10
159.633
 20
111.559
 11
159.877
 21
111.595
  0
LINE
  8
0
 10
159.877
 20
111.595
 11
200.123
 21
111.595
  0
LINE
  8
0
 10
200.123
 20
111.595
 11
200.367
 21
111.559
  0
LINE
  8
0
 10
200.367
 20
111.559
 11
200.603
 21
111.486
  0
LINE
  8
0
 10
200.603
 20
111.486
 11
200.825
 21
111.379
  0
LINE
  8
0
 10
200.825
 20
111.379
 11
201.029
 21
111.24
  0
LINE
  8
0
 10
201.029
 20
111.24
 11
201.21
 21
111.072
  0
LINE
  8
0
 10
201.21
 20
111.072
 11
201.363
 21
110.879
  0
LINE
  8
0
 10
201.363
 20
110.879
 11
201.487
 21
110.666
  0
LINE
  8
0
 10
201.487
 20
110.666
 11
201.577
 21
110.436
  0
LINE
  8
0
 10
201.577
 20
110.436
 11
201.632
 21
110.196
  0
LINE
  8
0
 10
201.632
 20
110.196
 11
201.65
 21
109.95
  0
LINE
  8
0
 10
201.65
 20
109.95
 11
201.632
 21
109.704
  0
LINE
  8
0
 10
201.632
 20
109.704
 11
201.577
 21
109.464
  0
LINE
  8
0
 10
201.577
 20
109.464
 11
201.487
 21
109.234
  0
LINE
  8
0
 10
201.487
 20
109.234
 11
201.363
 21
109.021
  0
LINE
  8
0
 10
201.363
 20
109.021
 11
201.21
 21
108.828
  0
LINE
  8
0
 10
201.21
 20
108.828
 11
201.029
 21
108.66
  0
LINE
  8
0
 10
201.029
 20
108.66
 11
200.825
 21
108.521
  0
LINE
  8
0
 10
200.825
 20
108.521
 11
200.603
 21
108.414
  0
LINE
  8
0
 10
200.603
 20
108.414
 11
200.367
 21
108.341
  0
LINE
  8
0
 10
200.367
 20
108.341
 11
200.123
 21
108.305
  0
LINE
  8
0
 10
200.123
 20
108.305
 11
159.877
 21
108.305
  0
LINE
  8
0
 10
69.8767
 20
108.305
 11
69.6328
 21
108.341
  0
LINE
  8
0
 10
69.6328
 20
108.341
 11
69.3972
 21
108.414
  0
LINE
  8
0
 10
69.3972
 20
108.414
 11
69.175
 21
108.521
  0
LINE
  8
0
 10
69.175
 20
108.521
 11
68.9712
 21
108.66
  0
LINE
  8
0
 10
68.9712
 20
108.66
 11
68.7905
 21
108.828
  0
LINE
  8
0
 10
68.7905
 20
108.828
 11
68.6367
 21
109.021
  0
LINE
  8
0
 10
68.6367
 20
109.021
 11
68.5134
 21
109.234
  0
LINE
  8
0
 10
68.5134
 20
109.234
 11
68.4233
 21
109.464
  0
LINE
  8
0
 10
68.4233
 20
109.464
 11
68.3684
 21
109.704
  0
LINE
  8
0
 10
68.3684
 20
109.704
 11
68.35
 21
109.95
  0
LINE
  8
0
 10
68.35
 20
109.95
 11
68.3684
 21
110.196
  0
LINE
  8
0
 10
68.3684
 20
110.196
 11
68.4233
 21
110.436
  0
LINE
  8
0
 10
68.4233
 20
110.436
 11
68.5134
 21
110.666
  0
LINE
  8
0
 10
68.5134
 20
110.666
 11
68.6367
 21
110.879
  0
LINE
  8
0
 10
68.6367
 20
110.879
 11
68.7905
 21
111.072
  0
LINE
  8
0
 10
68.7905
 20
111.072
 11
68.9712
 21
111.24
  0
LINE
  8
0
 10
68.9712
 20
111.24
 11
69.175
 21
111.379
  0
LINE
  8
0
 10
69.175
 20
111.379
 11
69.3972
 21
111.486
  0
LINE
  8
0
 10
69.3972
 20
111.486
 11
69.6328
 21
111.559
  0
LINE
  8
0
 10
69.6328
 20
111.559
 11
69.8767
 21
111.595
  0
LINE
  8
0
 10
69.8767
 20
111.595
 11
110.123
 21
111.595
  0
LINE
  8
0
 10
110.123
 20
111.595
 11
110.367
 21
111.559
  0
LINE
  8
0
 10
110.367
 20
111.559
 11
110.603
 21
111.486
  0
LINE
  8
0
 10
110.603
 20
111.486
 11
110.825
 21
111.379
  0
LINE
  8
0
 10
110.825
 20
111.379
 11
111.029
 21
111.24
  0
LINE
  8
0
 10
111.029
 20
111.24
 11
111.21
 21
111.072
  0
LINE
  8
0
 10
111.21
 20
111.072
 11
111.363
 21
110.879
  0
LINE
  8
0
 10
111.363
 20
110.879
 11
111.487
 21
110.666
  0
LINE
  8
0
 10
111.487
 20
110.666
 11
111.577
 21
110.436
  0
LINE
  8
0
 10
111.577
 20
110.436
 11
111.632
 21
110.196
  0
LINE
  8
0
 10
111.632
 20
110.196
 11
111.65
 21
109.95
  0
LINE
  8
0
 10
111.65
 20
109.95
 11
111.632
 21
109.704
  0
LINE
  8
0
 10
111.632
 20
109.704
 11
111.577
 21
109.464
  0
LINE
  8
0
 10
111.577
 20
109.464
 11
111.487
 21
109.234
  0
LINE
  8
0
 10
111.487
 20
109.234
 11
111.363
 21
109.021
  0
LINE
  8
0
 10
111.363
 20
109.021
 11
111.21
 21
108.828
  0
LINE
  8
0
 10
111.21
 20
108.828
 11
111.029
 21
108.66
  0
LINE
  8
0
 10
111.029
 20
108.66
 11
110.825
 21
108.521
  0
LINE
  8
0
 10
110.825
 20
108.521
 11
110.603
 21
108.414
  0
LINE
  8
0
 10
110.603
 20
108.414
 11
110.367
 21
108.341
  0
LINE
  8
0
 10
110.367
 20
108.341
 11
110.123
 21
108.305
  0
LINE
  8
0
 10
110.123
 20
108.305
 11
69.8767
 21
108.305
  0
LINE
  8
0
 10
-20.1233
 20
108.305
 11
-20.3672
 21
108.341
  0
LINE
  8
0
 10
-20.3672
 20
108.341
 11
-20.6028
 21
108.414
  0
LINE
  8
0
 10
-20.6028
 20
108.414
 11
-20.825
 21
108.521
  0
LINE
  8
0
 10
-20.825
 20
108.521
 11
-21.0287
 21
108.66
  0
LINE
  8
0
 10
-21.0287
 20
108.66
 11
-21.2095
 21
108.828
  0
LINE
  8
0
 10
-21.2095
 20
108.828
 11
-21.3633
 21
109.021
  0
LINE
  8
0
 10
-21.3633
 20
109.021
 11
-21.4866
 21
109.234
  0
LINE
  8
0
 10
-21.4866
 20
109.234
 11
-21.5767
 21
109.464
  0
LINE
  8
0
 10
-21.5767
 20
109.464
 11
-21.6316
 21
109.704
  0
LINE
  8
0
 10
-21.6316
 20
109.704
 11
-21.65
 21
109.95
  0
LINE
  8
0
 10
-21.65
 20
109.95
 11
-21.6316
 21
110.196
  0
LINE
  8
0
 10
-21.6316
 20
110.196
 11
-21.5767
 21
110.436
  0
LINE
  8
0
 10
-21.5767
 20
110.436
 11
-21.4866
 21
110.666
  0
LINE
  8
0
 10
-21.4866
 20
110.666
 11
-21.3633
 21
110.879
  0
LINE
  8
0
 10
-21.3633
 20
110.879
 11
-21.2095
 21
111.072
  0
LINE
  8
0
 10
-21.2095
 20
111.072
 11
-21.0287
 21
111.24
  0
LINE
  8
0
 10
-21.0287
 20
111.24
 11
-20.825
 21
111.379
  0
LINE
  8
0
 10
-20.825
 20
111.379
 11
-20.6028
 21
111.486
  0
LINE
  8
0
 10
-20.6028
 20
111.486
 11
-20.3672
 21
111.559
  0
LINE
  8
0
 10
-20.3672
 20
111.559
 11
-20.1233
 21
111.595
  0
LINE
  8
0
 10
-20.1233
 20
111.595
 11
20.1233
 21
111.595
  0
LINE
  8
0
 10
20.1233
 20
111.595
 11
20.3672
 21
111.559
  0
LINE
  8
0
 10
20.3672
 20
111.559
 11
20.6028
 21
111.486
  0
LINE
  8
0
 10
20.6028
 20
111.486
 11
20.825
 21
111.379
  0
LINE
  8
0
 10
20.825
 20
111.379
 11
21.0287
 21
111.24
  0
LINE
  8
0
 10
21.0287
 20
111.24
 11
21.2095
 21
111.072
  0
LINE
  8
0
 10
21.2095
 20
111.072
 11
21.3633
 21
110.879
  0
LINE
  8
0
 10
21.3633
 20
110.879
 11
21.4866
 21
110.666
  0
LINE
  8
0
 10
21.4866
 20
110.666
 11
21.5767
 21
110.436
  0
LINE
  8
0
 10
21.5767
 20
110.436
 11
21.6316
 21
110.196
  0
LINE
  8
0
 10
21.6316
 20
110.196
 11
21.65
 21
109.95
  0
LINE
  8
0
 10
21.65
 20
109.95
 11
21.6316
 21
109.704
  0
LINE
  8
0
 10
21.6316
 20
109.704
 11
21.5767
 21
109.464
  0
LINE
  8
0
 10
21.5767
 20
109.464
 11
21.4866
 21
109.234
  0
LINE
  8
0
 10
21.4866
 20
109.234
 11
21.3633
 21
109.021
  0
LINE
  8
0
 10
21.3633
 20
109.021
 11
21.2095
 21
108.828
  0
LINE
  8
0
 10
21.2095
 20
108.828
 11
21.0287
 21
108.66
  0
LINE
  8
0
 10
21.0287
 20
108.66
 11
20.825
 21
108.521
  0
LINE
  8
0
 10
20.825
 20
108.521
 11
20.6028
 21
108.414
  0
LINE
  8
0
 10
20.6028
 20
108.414
 11
20.3672
 21
108.341
  0
LINE
  8
0
 10
20.3672
 20
108.341
 11
20.1233
 21
108.305
  0
LINE
  8
0
 10
20.1233
 20
108.305
 11
-20.1233
 21
108.305
  0
LINE
  8
0
 10
312.254
 20
45.8184
 11
312.014
 21
45.8733
  0
LINE
  8
0
 10
312.014
 20
45.8733
 11
311.784
 21
45.9634
  0
LINE
  8
0
 10
311.784
 20
45.9634
 11
311.571
 21
46.0867
  0
LINE
  8
0
 10
311.571
 20
46.0867
 11
311.378
 21
46.2405
  0
LINE
  8
0
 10
311.378
 20
46.2405
 11
311.21
 21
46.4212
  0
LINE
  8
0
 10
311.21
 20
46.4212
 11
311.071
 21
46.625
  0
LINE
  8
0
 10
311.071
 20
46.625
 11
310.964
 21
46.8472
  0
LINE
  8
0
 10
310.964
 20
46.8472
 11
310.891
 21
47.0828
  0
LINE
  8
0
 10
310.891
 20
47.0828
 11
310.855
 21
47.3267
  0
LINE
  8
0
 10
310.855
 20
47.3267
 11
310.855
 21
87.5733
  0
LINE
  8
0
 10
310.855
 20
87.5733
 11
310.891
 21
87.8172
  0
LINE
  8
0
 10
310.891
 20
87.8172
 11
310.964
 21
88.0528
  0
LINE
  8
0
 10
310.964
 20
88.0528
 11
311.071
 21
88.275
  0
LINE
  8
0
 10
311.071
 20
88.275
 11
311.21
 21
88.4788
  0
LINE
  8
0
 10
311.21
 20
88.4788
 11
311.378
 21
88.6595
  0
LINE
  8
0
 10
311.378
 20
88.6595
 11
311.571
 21
88.8133
  0
LINE
  8
0
 10
311.571
 20
88.8133
 11
311.784
 21
88.9366
  0
LINE
  8
0
 10
311.784
 20
88.9366
 11
312.014
 21
89.0267
  0
LINE
  8
0
 10
312.014
 20
89.0267
 11
312.254
 21
89.0816
  0
LINE
  8
0
 10
312.254
 20
89.0816
 11
312.5
 21
89.1
  0
LINE
  8
0
 10
312.5
 20
89.1
 11
312.746
 21
89.0816
  0
LINE
  8
0
 10
312.746
 20
89.0816
 11
312.986
 21
89.0267
  0
LINE
  8
0
 10
312.986
 20
89.0267
 11
313.216
 21
88.9366
  0
LINE
  8
0
 10
313.216
 20
88.9366
 11
313.429
 21
88.8133
  0
LINE
  8
0
 10
313.429
 20
88.8133
 11
313.622
 21
88.6595
  0
LINE
  8
0
 10
313.622
 20
88.6595
 11
313.79
 21
88.4788
  0
LINE
  8
0
 10
313.79
 20
88.4788
 11
313.929
 21
88.275
  0
LINE
  8
0
 10
313.929
 20
88.275
 11
314.036
 21
88.0528
  0
LINE
  8
0
 10
314.036
 20
88.0528
 11
314.109
 21
87.8172
  0
LINE
  8
0
 10
314.109
 20
87.8172
 11
314.145
 21
87.5733
  0
LINE
  8
0
 10
314.145
 20
87.5733
 11
314.145
 21
47.3267
  0
LINE
  8
0
 10
314.145
 20
47.3267
 11
314.109
 21
47.0828
  0
LINE
  8
0
 10
314.109
 20
47.0828
 11
314.036
 21
46.8472
  0
LINE
  8
0
 10
314.036
 20
46.8472
 11
313.929
 21
46.625
  0
LINE
  8
0
 10
313.929
 20
46.625
 11
313.79
 21
46.4212
  0
LINE
  8
0
 10
313.79
 20
46.4212
 11
313.622
 21
46.2405
  0
LINE
  8
0
 10
313.622
 20
46.2405
 11
313.429
 21
46.0867
  0
LINE
  8
0
 10
313.429
 20
46.0867
 11
313.216
 21
45.9634
  0
LINE
  8
0
 10
313.216
 20
45.9634
 11
312.986
 21
45.8733
  0
LINE
  8
0
 10
312.986
 20
45.8733
 11
312.746
 21
45.8184
  0
LINE
  8
0
 10
312.746
 20
45.8184
 11
312.5
 21
45.8
  0
LINE
  8
0
 10
312.5
 20
45.8
 11
312.254
 21
45.8184
  0
LINE
  8
0
 10
-312.746
 20
45.8184
 11
-312.986
 21
45.8733
  0
LINE
  8
0
 10
-312.986
 20
45.8733
 11
-313.216
 21
45.9634
  0
LINE
  8
0
 10
-313.216
 20
45.9634
 11
-313.429
 21
46.0867
  0
LINE
  8
0
 10
-313.429
 20
46.0867
 11
-313.622
 21
46.2405
  0
LINE
  8
0
 10
-313.622
 20
46.2405
 11
-313.79
 21
46.4212
  0
LINE
  8
0
 10
-313.79
 20
46.4212
 11
-313.929
 21
46.625
  0
LINE
  8
0
 10
-313.929
 20
46.625
 11
-314.036
 21
46.8472
  0
LINE
  8
0
 10
-314.036
 20
46.8472
 11
-314.109
 21
47.0828
  0
LINE
  8
0
 10
-314.109
 20
47.0828
 11
-314.145
 21
47.3267
  0
LINE
  8
0
 10
-314.145
 20
47.3267
 11
-314.145
 21
87.5733
  0
LINE
  8
0
 10
-314.145
 20
87.5733
 11
-314.109
 21
87.8172
  0
LINE
  8
0
 10
-314.109
 20
87.8172
 11
-314.036
 21
88.0528
  0
LINE
  8
0
 10
-314.036
 20
88.0528
 11
-313.929
 21
88.275
  0
LINE
  8
0
 10
-313.929
 20
88.275
 11
-313.79
 21
88.4788
  0
LINE
  8
0
 10
-313.79
 20
88.4788
 11
-313.622
 21
88.6595
  0
LINE
  8
0
 10
-313.622
 20
88.6595
 11
-313.429
 21
88.8133
  0
LINE
  8
0
 10
-313.429
 20
88.8133
 11
-313.216
 21
88.9366
  0
LINE
  8
0
 10
-313.216
 20
88.9366
 11
-312.986
 21
89.0267
  0
LINE
  8
0
 10
-312.986
 20
89.0267
 11
-312.746
 21
89.0816
  0
LINE
  8
0
 10
-312.746
 20
89.0816
 11
-312.5
 21
89.1
  0
LINE
  8
0
 10
-312.5
 20
89.1
 11
-312.254
 21
89.0816
  0
LINE
  8
0
 10
-312.254
 20
89.0816
 11
-312.014
 21
89.0267
  0
LINE
  8
0
 10
-312.014
 20
89.0267
 11
-311.784
 21
88.9366
  0
LINE
  8
0
 10
-311.784
 20
88.9366
 11
-311.571
 21
88.8133
  0
LINE
  8
0
 10
-311.571
 20
88.8133
 11
-311.378
 21
88.6595
  0
LINE
  8
0
 10
-311.378
 20
88.6595
 11
-311.21
 21
88.4788
  0
LINE
  8
0
 10
-311.21
 20
88.4788
 11
-311.071
 21
88.275
  0
LINE
  8
0
 10
-311.071
 20
88.275
 11
-310.964
 21
88.0528
  0
LINE
  8
0
 10
-310.964
 20
88.0528
 11
-310.891
 21
87.8172
  0
LINE
  8
0
 10
-310.891
 20
87.8172
 11
-310.855
 21
87.5733
  0
LINE
  8
0
 10
-310.855
 20
87.5733
 11
-310.855
 21
47.3267
  0
LINE
  8
0
 10
-310.855
 20
47.3267
 11
-310.891
 21
47.0828
  0
LINE
  8
0
 10
-310.891
 20
47.0828
 11
-310.964
 21
46.8472
  0
LINE
  8
0
 10
-310.964
 20
46.8472
 11
-311.071
 21
46.625
  0
LINE
  8
0
 10
-311.071
 20
46.625
 11
-311.21
 21
46.4212
  0
LINE
  8
0
 10
-311.21
 20
46.4212
 11
-311.378
 21
46.2405
  0
LINE
  8
0
 10
-311.378
 20
46.2405
 11
-311.571
 21
46.0867
  0
LINE
  8
0
 10
-311.571
 20
46.0867
 11
-311.784
 21
45.9634
  0
LINE
  8
0
 10
-311.784
 20
45.9634
 11
-312.014
 21
45.8733
  0
LINE
  8
0
 10
-312.014
 20
45.8733
 11
-312.254
 21
45.8184
  0
LINE
  8
0
 10
-312.254
 20
45.8184
 11
-312.5
 21
45.8
  0
LINE
  8
0
 10
-312.5
 20
45.8
 11
-312.746
 21
45.8184
  0
LINE
  8
0
 10
-312.746
 20
-21.6316
 11
-312.986
 21
-21.5767
  0
LINE
  8
0
 10
-312.986
 20
-21.5767
 11
-313.216
 21
-21.4866
  0
LINE
  8
0
 10
-313.216
 20
-21.4866
 11
-313.429
 21
-21.3633
  0
LINE
  8
0
 10
-313.429
 20
-21.3633
 11
-313.622
 21
-21.2095
  0
LINE
  8
0
 10
-313.622
 20
-21.2095
 11
-313.79
 21
-21.0287
  0
LINE
  8
0
 10
-313.79
 20
-21.0287
 11
-313.929
 21
-20.825
  0
LINE
  8
0
 10
-313.929
 20
-20.825
 11
-314.036
 21
-20.6028
  0
LINE
  8
0
 10
-314.036
 20
-20.6028
 11
-314.109
 21
-20.3672
  0
LINE
  8
0
 10
-314.109
 20
-20.3672
 11
-314.145
 21
-20.1233
  0
LINE
  8
0
 10
-314.145
 20
-20.1233
 11
-314.145
 21
20.1233
  0
LINE
  8
0
 10
-314.145
 20
20.1233
 11
-314.109
 21
20.3672
  0
LINE
  8
0
 10
-314.109
 20
20.3672
 11
-314.036
 21
20.6028
  0
LINE
  8
0
 10
-314.036
 20
20.6028
 11
-313.929
 21
20.825
  0
LINE
  8
0
 10
-313.929
 20
20.825
 11
-313.79
 21
21.0287
  0
LINE
  8
0
 10
-313.79
 20
21.0287
 11
-313.622
 21
21.2095
  0
LINE
  8
0
 10
-313.622
 20
21.2095
 11
-313.429
 21
21.3633
  0
LINE
  8
0
 10
-313.429
 20
21.3633
 11
-313.216
 21
21.4866
  0
LINE
  8
0
 10
-313.216
 20
21.4866
 11
-312.986
 21
21.5767
  0
LINE
  8
0
 10
-312.986
 20
21.5767
 11
-312.746
 21
21.6316
  0
LINE
  8
0
 10
-312.746
 20
21.6316
 11
-312.5
 21
21.65
  0
LINE
  8
0
 10
-312.5
 20
21.65
 11
-312.254
 21
21.6316
  0
LINE
  8
0
 10
-312.254
 20
21.6316
 11
-312.014
 21
21.5767
  0
LINE
  8
0
 10
-312.014
 20
21.5767
 11
-311.784
 21
21.4866
  0
LINE
  8
0
 10
-311.784
 20
21.4866
 11
-311.571
 21
21.3633
  0
LINE
  8
0
 10
-311.571
 20
21.3633
 11
-311.378
 21
21.2095
  0
LINE
  8
0
 10
-311.378
 20
21.2095
 11
-311.21
 21
21.0287
  0
LINE
  8
0
 10
-311.21
 20
21.0287
 11
-311.071
 21
20.825
  0
LINE
  8
0
 10
-311.071
 20
20.825
 11
-310.964
 21
20.6028
  0
LINE
  8
0
 10
-310.964
 20
20.6028
 11
-310.891
 21
20.3672
  0
LINE
  8
0
 10
-310.891
 20
20.3672
 11
-310.855
 21
20.1233
  0
LINE
  8
0
 10
-310.855
 20
20.1233
 11
-310.855
 21
-20.1233
  0
LINE
  8
0
 10
-310.855
 20
-20.1233
 11
-310.891
 21
-20.3672
  0
LINE
  8
0
 10
-310.891
 20
-20.3672
 11
-310.964
 21
-20.6028
  0
LINE
  8
0
 10
-310.964
 20
-20.6028
 11
-311.071
 21
-20.825
  0
LINE
  8
0
 10
-311.071
 20
-20.825
 11
-311.21
 21
-21.0287
  0
LINE
  8
0
 10
-311.21
 20
-21.0287
 11
-311.378
 21
-21.2095
  0
LINE
  8
0
 10
-311.378
 20
-21.2095
 11
-311.571
 21
-21.3633
  0
LINE
  8
0
 10
-311.571
 20
-21.3633
 11
-311.784
 21
-21.4866
  0
LINE
  8
0
 10
-311.784
 20
-21.4866
 11
-312.014
 21
-21.5767
  0
LINE
  8
0
 10
-312.014
 20
-21.5767
 11
-312.254
 21
-21.6316
  0
LINE
  8
0
 10
-312.254
 20
-21.6316
 11
-312.5
 21
-21.65
  0
LINE
  8
0
 10
-312.5
 20
-21.65
 11
-312.746
 21
-21.6316
  0
LINE
  8
0
 10
312.254
 20
-21.6316
 11
312.014
 21
-21.5767
  0
LINE
  8
0
 10
312.014
 20
-21.5767
 11
311.784
 21
-21.4866
  0
LINE
  8
0
 10
311.784
 20
-21.4866
 11
311.571
 21
-21.3633
  0
LINE
  8
0
 10
311.571
 20
-21.3633
 11
311.378
 21
-21.2095
  0
LINE
  8
0
 10
311.378
 20
-21.2095
 11
311.21
 21
-21.0287
  0
LINE
  8
0
 10
311.21
 20
-21.0287
 11
311.071
 21
-20.825
  0
LINE
  8
0
 10
311.071
 20
-20.825
 11
310.964
 21
-20.6028
  0
LINE
  8
0
 10
310.964
 20
-20.6028
 11
310.891
 21
-20.3672
  0
LINE
  8
0
 10
310.891
 20
-20.3672
 11
310.855
 21
-20.1233
  0
LINE
  8
0
 10
310.855
 20
-20.1233
 11
310.855
 21
20.1233
  0
LINE
  8
0
 10
310.855
 20
20.1233
 11
310.891
 21
20.3672
  0
LINE
  8
0
 10
310.891
 20
20.3672
 11
310.964
 21
20.6028
  0
LINE
  8
0
 10
310.964
 20
20.6028
 11
311.071
 21
20.825
  0
LINE
  8
0
 10
311.071
 20
20.825
 11
311.21
 21
21.0287
  0
LINE
  8
0
 10
311.21
 20
21.0287
 11
311.378
 21
21.2095
  0
LINE
  8
0
 10
311.378
 20
21.2095
 11
311.571
 21
21.3633
  0
LINE
  8
0
 10
311.571
 20
21.3633
 11
311.784
 21
21.4866
  0
LINE
  8
0
 10
311.784
 20
21.4866
 11
312.014
 21
21.5767
  0
LINE
  8
0
 10
312.014
 20
21.5767
 11
312.254
 21
21.6316
  0
LINE
  8
0
 10
312.254
 20
21.6316
 11
312.5
 21
21.65
  0
LINE
  8
0
 10
312.5
 20
21.65
 11
312.746
 21
21.6316
  0
LINE
  8
0
 10
312.746
 20
21.6316
 11
312.986
 21
21.5767
  0
LINE
  8
0
 10
312.986
 20
21.5767
 11
313.216
 21
21.4866
  0
LINE
  8
0
 10
313.216
 20
21.4866
 11
313.429
 21
21.3633
  0
LINE
  8
0
 10
313.429
 20
21.3633
 11
313.622
 21
21.2095
  0
LINE
  8
0
 10
313.622
 20
21.2095
 11
313.79
 21
21.0287
  0
LINE
  8
0
 10
313.79
 20
21.0287
 11
313.929
 21
20.825
  0
LINE
  8
0
 10
313.929
 20
20.825
 11
314.036
 21
20.6028
  0
LINE
  8
0
 10
314.036
 20
20.6028
 11
314.109
 21
20.3672
  0
LINE
  8
0
 10
314.109
 20
20.3672
 11
314.145
 21
20.1233
  0
LINE
  8
0
 10
314.145
 20
20.1233
 11
314.145
 21
-20.1233
  0
LINE
  8
0
 10
314.145
 20
-20.1233
 11
314.109
 21
-20.3672
  0
LINE
  8
0
 10
314.109
 20
-20.3672
 11
314.036
 21
-20.6028
  0
LINE
  8
0
 10
314.036
 20
-20.6028
 11
313.929
 21
-20.825
  0
LINE
  8
0
 10
313.929
 20
-20.825
 11
313.79
 21
-21.0287
  0
LINE
  8
0
 10
313.79
 20
-21.0287
 11
313.622
 21
-21.2095
  0
LINE
  8
0
 10
313.622
 20
-21.2095
 11
313.429
 21
-21.3633
  0
LINE
  8
0
 10
313.429
 20
-21.3633
 11
313.216
 21
-21.4866
  0
LINE
  8
0
 10
313.216
 20
-21.4866
 11
312.986
 21
-21.5767
  0
LINE
  8
0
 10
312.986
 20
-21.5767
 11
312.746
 21
-21.6316
  0
LINE
  8
0
 10
312.746
 20
-21.6316
 11
312.5
 21
-21.65
  0
LINE
  8
0
 10
312.5
 20
-21.65
 11
312.254
 21
-21.6316
  0
LINE
  8
0
 10
312.254
 20
-89.0816
 11
312.014
 21
-89.0267
  0
LINE
  8
0
 10
312.014
 20
-89.0267
 11
311.784
 21
-88.9366
  0
LINE
  8
0
 10
311.784
 20
-88.9366
 11
311.571
 21
-88.8133
  0
LINE
  8
0
 10
311.571
 20
-88.8133
 11
311.378
 21
-88.6595
  0
LINE
  8
0
 10
311.378
 20
-88.6595
 11
311.21
 21
-88.4788
  0
LINE
  8
0
 10
311.21
 20
-88.4788
 11
311.071
 21
-88.275
  0
LINE
  8
0
 10
311.071
 20
-88.275
 11
310.964
 21
-88.0528
  0
LINE
  8
0
 10
310.964
 20
-88.0528
 11
310.891
 21
-87.8172
  0
LINE
  8
0
 10
310.891
 20
-87.8172
 11
310.855
 21
-87.5733
  0
LINE
  8
0
 10
310.855
 20
-87.5733
 11
310.855
 21
-47.3267
  0
LINE
  8
0
 10
310.855
 20
-47.3267
 11
310.891
 21
-47.0828
  0
LINE
  8
0
 10
310.891
 20
-47.0828
 11
310.964
 21
-46.8472
  0
LINE
  8
0
 10
310.964
 20
-46.8472
 11
311.071
 21
-46.625
  0
LINE
  8
0
 10
311.071
 20
-46.625
 11
311.21
 21
-46.4212
  0
LINE
  8
0
 10
311.21
 20
-46.4212
 11
311.378
 21
-46.2405
  0
LINE
  8
0
 10
311.378
 20
-46.2405
 11
311.571
 21
-46.0867
  0
LINE
  8
0
 10
311.571
 20
-46.0867
 11
311.784
 21
-45.9634
  0
LINE
  8
0
 10
311.784
 20
-45.9634
 11
312.014
 21
-45.8733
  0
LINE
  8
0
 10
312.014
 20
-45.8733
 11
312.254
 21
-45.8184
  0
LINE
  8
0
 10
312.254
 20
-45.8184
 11
312.5
 21
-45.8
  0
LINE
  8
0
 10
312.5
 20
-45.8
 11
312.746
 21
-45.8184
  0
LINE
  8
0
 10
312.746
 20
-45.8184
 11
312.986
 21
-45.8733
  0
LINE
  8
0
 10
312.986
 20
-45.8733
 11
313.216
 21
-45.9634
  0
LINE
  8
0
 10
313.216
 20
-45.9634
 11
313.429
 21
-46.0867
  0
LINE
  8
0
 10
313.429
 20
-46.0867
 11
313.622
 21
-46.2405
  0
LINE
  8
0
 10
313.622
 20
-46.2405
 11
313.79
 21
-46.4212
  0
LINE
  8
0
 10
313.79
 20
-46.4212
 11
313.929
 21
-46.625
  0
LINE
  8
0
 10
313.929
 20
-46.625
 11
314.036
 21
-46.8472
  0
LINE
  8
0
 10
314.036
 20
-46.8472
 11
314.109
 21
-47.0828
  0
LINE
  8
0
 10
314.109
 20
-47.0828
 11
314.145
 21
-47.3267
  0
LINE
  8
0
 10
314.145
 20
-47.3267
 11
314.145
 21
-87.5733
  0
LINE
  8
0
 10
314.145
 20
-87.5733
 11
314.109
 21
-87.8172
  0
LINE
  8
0
 10
314.109
 20
-87.8172
 11
314.036
 21
-88.0528
  0
LINE
  8
0
 10
314.036
 20
-88.0528
 11
313.929
 21
-88.275
  0
LINE
  8
0
 10
313.929
 20
-88.275
 11
313.79
 21
-88.4788
  0
LINE
  8
0
 10
313.79
 20
-88.4788
 11
313.622
 21
-88.6595
  0
LINE
  8
0
 10
313.622
 20
-88.6595
 11
313.429
 21
-88.8133
  0
LINE
  8
0
 10
313.429
 20
-88.8133
 11
313.216
 21
-88.9366
  0
LINE
  8
0
 10
313.216
 20
-88.9366
 11
312.986
 21
-89.0267
  0
LINE
  8
0
 10
312.986
 20
-89.0267
 11
312.746
 21
-89.0816
  0
LINE
  8
0
 10
312.746
 20
-89.0816
 11
312.5
 21
-89.1
  0
LINE
  8
0
 10
312.5
 20
-89.1
 11
312.254
 21
-89.0816
  0
LINE
  8
0
 10
-312.746
 20
-89.0816
 11
-312.986
 21
-89.0267
  0
LINE
  8
0
 10
-312.986
 20
-89.0267
 11
-313.216
 21
-88.9366
  0
LINE
  8
0
 10
-313.216
 20
-88.9366
 11
-313.429
 21
-88.8133
  0
LINE
  8
0
 10
-313.429
 20
-88.8133
 11
-313.622
 21
-88.6595
  0
LINE
  8
0
 10
-313.622
 20
-88.6595
 11
-313.79
 21
-88.4788
  0
LINE
  8
0
 10
-313.79
 20
-88.4788
 11
-313.929
 21
-88.275
  0
LINE
  8
0
 10
-313.929
 20
-88.275
 11
-314.036
 21
-88.0528
  0
LINE
  8
0
 10
-314.036
 20
-88.0528
 11
-314.109
 21
-87.8172
  0
LINE
  8
0
 10
-314.109
 20
-87.8172
 11
-314.145
 21
-87.5733
  0
LINE
  8
0
 10
-314.145
 20
-87.5733
 11
-314.145
 21
-47.3267
  0
LINE
  8
0
 10
-314.145
 20
-47.3267
 11
-314.109
 21
-47.0828
  0
LINE
  8
0
 10
-314.109
 20
-47.0828
 11
-314.036
 21
-46.8472
  0
LINE
  8
0
 10
-314.036
 20
-46.8472
 11
-313.929
 21
-46.625
  0
LINE
  8
0
 10
-313.929
 20
-46.625
 11
-313.79
 21
-46.4212
  0
LINE
  8
0
 10
-313.79
 20
-46.4212
 11
-313.622
 21
-46.2405
  0
LINE
  8
0
 10
-313.622
 20
-46.2405
 11
-313.429
 21
-46.0867
  0
LINE
  8
0
 10
-313.429
 20
-46.0867
 11
-313.216
 21
-45.9634
  0
LINE
  8
0
 10
-313.216
 20
-45.9634
 11
-312.986
 21
-45.8733
  0
LINE
  8
0
 10
-312.986
 20
-45.8733
 11
-312.746
 21
-45.8184
  0
LINE
  8
0
 10
-312.746
 20
-45.8184
 11
-312.5
 21
-45.8
  0
LINE
  8
0
 10
-312.5
 20
-45.8
 11
-312.254
 21
-45.8184
  0
LINE
  8
0
 10
-312.254
 20
-45.8184
 11
-312.014
 21
-45.8733
  0
LINE
  8
0
 10
-312.014
 20
-45.8733
 11
-311.784
 21
-45.9634
  0
LINE
  8
0
 10
-311.784
 20
-45.9634
 11
-311.571
 21
-46.0867
  0
LINE
  8
0
 10
-311.571
 20
-46.0867
 11
-311.378
 21
-46.2405
  0
LINE
  8
0
 10
-311.378
 20
-46.2405
 11
-311.21
 21
-46.4212
  0
LINE
  8
0
 10
-311.21
 20
-46.4212
 11
-311.071
 21
-46.625
  0
LINE
  8
0
 10
-311.071
 20
-46.625
 11
-310.964
 21
-46.8472
  0
LINE
  8
0
 10
-310.964
 20
-46.8472
 11
-310.891
 21
-47.0828
  0
LINE
  8
0
 10
-310.891
 20
-47.0828
 11
-310.855
 21
-47.3267
  0
LINE
  8
0
 10
-310.855
 20
-47.3267
 11
-310.855
 21
-87.5733
  0
LINE
  8
0
 10
-310.855
 20
-87.5733
 11
-310.891
 21
-87.8172
  0
LINE
  8
0
 10
-310.891
 20
-87.8172
 11
-310.964
 21
-88.0528
  0
LINE
  8
0
 10
-310.964
 20
-88.0528
 11
-311.071
 21
-88.275
  0
LINE
  8
0
 10
-311.071
 20
-88.275
 11
-311.21
 21
-88.4788
  0
LINE
  8
0
 10
-311.21
 20
-88.4788
 11
-311.378
 21
-88.6595
  0
LINE
  8
0
 10
-311.378
 20
-88.6595
 11
-311.571
 21
-88.8133
  0
LINE
  8
0
 10
-311.571
 20
-88.8133
 11
-311.784
 21
-88.9366
  0
LINE
  8
0
 10
-311.784
 20
-88.9366
 11
-312.014
 21
-89.0267
  0
LINE
  8
0
 10
-312.014
 20
-89.0267
 11
-312.254
 21
-89.0816
  0
LINE
  8
0
 10
-312.254
 20
-89.0816
 11
-312.5
 21
-89.1
  0
LINE
  8
0
 10
-312.5
 20
-89.1
 11
-312.746
 21
-89.0816
  0
LINE
  8
0
 10
-312.892
 20
-113.679
 11
-313.28
 21
-113.618
  0
LINE
  8
0
 10
-313.28
 20
-113.618
 11
-313.659
 21
-113.516
  0
LINE
  8
0
 10
-313.659
 20
-113.516
 11
-314.025
 21
-113.376
  0
LINE
  8
0
 10
-314.025
 20
-113.376
 11
-314.375
 21
-113.198
  0
LINE
  8
0
 10
-314.375
 20
-113.198
 11
-314.704
 21
-112.984
  0
LINE
  8
0
 10
-314.704
 20
-112.984
 11
-315.009
 21
-112.737
  0
LINE
  8
0
 10
-315.009
 20
-112.737
 11
-315.287
 21
-112.459
  0
LINE
  8
0
 10
-315.287
 20
-112.459
 11
-315.534
 21
-112.154
  0
LINE
  8
0
 10
-315.534
 20
-112.154
 11
-315.748
 21
-111.825
  0
LINE
  8
0
 10
-315.748
 20
-111.825
 11
-315.926
 21
-111.475
  0
LINE
  8
0
 10
-315.926
 20
-111.475
 11
-316.066
 21
-111.109
  0
LINE
  8
0
 10
-316.066
 20
-111.109
 11
-316.168
 21
-110.73
  0
LINE
  8
0
 10
-316.168
 20
-110.73
 11
-316.229
 21
-110.342
  0
LINE
  8
0
 10
-316.229
 20
-110.342
 11
-316.25
 21
-109.95
  0
LINE
  8
0
 10
-316.25
 20
-109.95
 11
-316.229
 21
-109.558
  0
LINE
  8
0
 10
-316.229
 20
-109.558
 11
-316.168
 21
-109.17
  0
LINE
  8
0
 10
-316.168
 20
-109.17
 11
-316.066
 21
-108.791
  0
LINE
  8
0
 10
-316.066
 20
-108.791
 11
-315.926
 21
-108.425
  0
LINE
  8
0
 10
-315.926
 20
-108.425
 11
-315.748
 21
-108.075
  0
LINE
  8
0
 10
-315.748
 20
-108.075
 11
-315.534
 21
-107.746
  0
LINE
  8
0
 10
-315.534
 20
-107.746
 11
-315.287
 21
-107.441
  0
LINE
  8
0
 10
-315.287
 20
-107.441
 11
-315.009
 21
-107.163
  0
LINE
  8
0
 10
-315.009
 20
-107.163
 11
-314.704
 21
-106.916
  0
LINE
  8
0
 10
-314.704
 20
-106.916
 11
-314.375
 21
-106.702
  0
LINE
  8
0
 10
-314.375
 20
-106.702
 11
-314.025
 21
-106.524
  0
LINE
  8
0
 10
-314.025
 20
-106.524
 11
-313.659
 21
-106.384
  0
LINE
  8
0
 10
-313.659
 20
-106.384
 11
-313.28
 21
-106.282
  0
LINE
  8
0
 10
-313.28
 20
-106.282
 11
-312.892
 21
-106.221
  0
LINE
  8
0
 10
-312.892
 20
-106.221
 11
-312.5
 21
-106.2
  0
LINE
  8
0
 10
-312.5
 20
-106.2
 11
-312.108
 21
-106.221
  0
LINE
  8
0
 10
-312.108
 20
-106.221
 11
-311.72
 21
-106.282
  0
LINE
  8
0
 10
-311.72
 20
-106.282
 11
-311.341
 21
-106.384
  0
LINE
  8
0
 10
-311.341
 20
-106.384
 11
-310.975
 21
-106.524
  0
LINE
  8
0
 10
-310.975
 20
-106.524
 11
-310.625
 21
-106.702
  0
LINE
  8
0
 10
-310.625
 20
-106.702
 11
-310.296
 21
-106.916
  0
LINE
  8
0
 10
-310.296
 20
-106.916
 11
-309.991
 21
-107.163
  0
LINE
  8
0
 10
-309.991
 20
-107.163
 11
-309.713
 21
-107.441
  0
LINE
  8
0
 10
-309.713
 20
-107.441
 11
-309.466
 21
-107.746
  0
LINE
  8
0
 10
-309.466
 20
-107.746
 11
-309.252
 21
-108.075
  0
LINE
  8
0
 10
-309.252
 20
-108.075
 11
-309.074
 21
-108.425
  0
LINE
  8
0
 10
-309.074
 20
-108.425
 11
-308.934
 21
-108.791
  0
LINE
  8
0
 10
-308.934
 20
-108.791
 11
-308.832
 21
-109.17
  0
LINE
  8
0
 10
-308.832
 20
-109.17
 11
-308.771
 21
-109.558
  0
LINE
  8
0
 10
-308.771
 20
-109.558
 11
-308.75
 21
-109.95
  0
LINE
  8
0
 10
-308.75
 20
-109.95
 11
-308.771
 21
-110.342
  0
LINE
  8
0
 10
-308.771
 20
-110.342
 11
-308.832
 21
-110.73
  0
LINE
  8
0
 10
-308.832
 20
-110.73
 11
-308.934
 21
-111.109
  0
LINE
  8
0
 10
-308.934
 20
-111.109
 11
-309.074
 21
-111.475
  0
LINE
  8
0
 10
-309.074
 20
-111.475
 11
-309.252
 21
-111.825
  0
LINE
  8
0
 10
-309.252
 20
-111.825
 11
-309.466
 21
-112.154
  0
LINE
  8
0
 10
-309.466
 20
-112.154
 11
-309.713
 21
-112.459
  0
LINE
  8
0
 10
-309.713
 20
-112.459
 11
-309.991
 21
-112.737
  0
LINE
  8
0
 10
-309.991
 20
-112.737
 11
-310.296
 21
-112.984
  0
LINE
  8
0
 10
-310.296
 20
-112.984
 11
-310.625
 21
-113.198
  0
LINE
  8
0
 10
-310.625
 20
-113.198
 11
-310.975
 21
-113.376
  0
LINE
  8
0
 10
-310.975
 20
-113.376
 11
-311.341
 21
-113.516
  0
LINE
  8
0
 10
-311.341
 20
-113.516
 11
-311.72
 21
-113.618
  0
LINE
  8
0
 10
-311.72
 20
-113.618
 11
-312.108
 21
-113.679
  0
LINE
  8
0
 10
-312.108
 20
-113.679
 11
-312.5
 21
-113.7
  0
LINE
  8
0
 10
-312.5
 20
-113.7
 11
-312.892
 21
-113.679
  0
LINE
  8
0
 10
312.108
 20
-113.679
 11
311.72
 21
-113.618
  0
LINE
  8
0
 10
311.72
 20
-113.618
 11
311.341
 21
-113.516
  0
LINE
  8
0
 10
311.341
 20
-113.516
 11
310.975
 21
-113.376
  0
LINE
  8
0
 10
310.975
 20
-113.376
 11
310.625
 21
-113.198
  0
LINE
  8
0
 10
310.625
 20
-113.198
 11
310.296
 21
-112.984
  0
LINE
  8
0
 10
310.296
 20
-112.984
 11
309.991
 21
-112.737
  0
LINE
  8
0
 10
309.991
 20
-112.737
 11
309.713
 21
-112.459
  0
LINE
  8
0
 10
309.713
 20
-112.459
 11
309.466
 21
-112.154
  0
LINE
  8
0
 10
309.466
 20
-112.154
 11
309.252
 21
-111.825
  0
LINE
  8
0
 10
309.252
 20
-111.825
 11
309.074
 21
-111.475
  0
LINE
  8
0
 10
309.074
 20
-111.475
 11
308.934
 21
-111.109
  0
LINE
  8
0
 10
308.934
 20
-111.109
 11
308.832
 21
-110.73
  0
LINE
  8
0
 10
308.832
 20
-110.73
 11
308.771
 21
-110.342
  0
LINE
  8
0
 10
308.771
 20
-110.342
 11
308.75
 21
-109.95
  0
LINE
  8
0
 10
308.75
 20
-109.95
 11
308.771
 21
-109.558
  0
LINE
  8
0
 10
308.771
 20
-109.558
 11
308.832
 21
-109.17
  0
LINE
  8
0
 10
308.832
 20
-109.17
 11
308.934
 21
-108.791
  0
LINE
  8
0
 10
308.934
 20
-108.791
 11
309.074
 21
-108.425
  0
LINE
  8
0
 10
309.074
 20
-108.425
 11
309.252
 21
-108.075
  0
LINE
  8
0
 10
309.252
 20
-108.075
 11
309.466
 21
-107.746
  0
LINE
  8
0
 10
309.466
 20
-107.746
 11
309.713
 21
-107.441
  0
LINE
  8
0
 10
309.713
 20
-107.441
 11
309.991
 21
-107.163
  0
LINE
  8
0
 10
309.991
 20
-107.163
 11
310.296
 21
-106.916
  0
LINE
  8
0
 10
310.296
 20
-106.916
 11
310.625
 21
-106.702
  0
LINE
  8
0
 10
310.625
 20
-106.702
 11
310.975
 21
-106.524
  0
LINE
  8
0
 10
310.975
 20
-106.524
 11
311.341
 21
-106.384
  0
LINE
  8
0
 10
311.341
 20
-106.384
 11
311.72
 21
-106.282
  0
LINE
  8
0
 10
311.72
 20
-106.282
 11
312.108
 21
-106.221
  0
LINE
  8
0
 10
312.108
 20
-106.221
 11
312.5
 21
-106.2
  0
LINE
  8
0
 10
312.5
 20
-106.2
 11
312.892
 21
-106.221
  0
LINE
  8
0
 10
312.892
 20
-106.221
 11
313.28
 21
-106.282
  0
LINE
  8
0
 10
313.28
 20
-106.282
 11
313.659
 21
-106.384
  0
LINE
  8
0
 10
313.659
 20
-106.384
 11
314.025
 21
-106.524
  0
LINE
  8
0
 10
314.025
 20
-106.524
 11
314.375
 21
-106.702
  0
LINE
  8
0
 10
314.375
 20
-106.702
 11
314.704
 21
-106.916
  0
LINE
  8
0
 10
314.704
 20
-106.916
 11
315.009
 21
-107.163
  0
LINE
  8
0
 10
315.009
 20
-107.163
 11
315.287
 21
-107.441
  0
LINE
  8
0
 10
315.287
 20
-107.441
 11
315.534
 21
-107.746
  0
LINE
  8
0
 10
315.534
 20
-107.746
 11
315.748
 21
-108.075
  0
LINE
  8
0
 10
315.748
 20
-108.075
 11
315.926
 21
-108.425
  0
LINE
  8
0
 10
315.926
 20
-108.425
 11
316.066
 21
-108.791
  0
LINE
  8
0
 10
316.066
 20
-108.791
 11
316.168
 21
-109.17
  0
LINE
  8
0
 10
316.168
 20
-109.17
 11
316.229
 21
-109.558
  0
LINE
  8
0
 10
316.229
 20
-109.558
 11
316.25
 21
-109.95
  0
LINE
  8
0
 10
316.25
 20
-109.95
 11
316.229
 21
-110.342
  0
LINE
  8
0
 10
316.229
 20
-110.342
 11
316.168
 21
-110.73
  0
LINE
  8
0
 10
316.168
 20
-110.73
 11
316.066
 21
-111.109
  0
LINE
  8
0
 10
316.066
 20
-111.109
 11
315.926
 21
-111.475
  0
LINE
  8
0
 10
315.926
 20
-111.475
 11
315.748
 21
-111.825
  0
LINE
  8
0
 10
315.748
 20
-111.825
 11
315.534
 21
-112.154
  0
LINE
  8
0
 10
315.534
 20
-112.154
 11
315.287
 21
-112.459
  0
LINE
  8
0
 10
315.287
 20
-112.459
 11
315.009
 21
-112.737
  0
LINE
  8
0
 10
315.009
 20
-112.737
 11
314.704
 21
-112.984
  0
LINE
  8
0
 10
314.704
 20
-112.984
 11
314.375
 21
-113.198
  0
LINE
  8
0
 10
314.375
 20
-113.198
 11
314.025
 21
-113.376
  0
LINE
  8
0
 10
314.025
 20
-113.376
 11
313.659
 21
-113.516
  0
LINE
  8
0
 10
313.659
 20
-113.516
 11
313.28
 21
-113.618
  0
LINE
  8
0
 10
313.28
 20
-113.618
 11
312.892
 21
-113.679
  0
LINE
  8
0
 10
312.892
 20
-113.679
 11
312.5
 21
-113.7
  0
LINE
  8
0
 10
312.5
 20
-113.7
 11
312.108
 21
-113.679
  0
LINE
  8
0
 10
249.877
 20
-111.595
 11
249.633
 21
-111.559
  0
LINE
  8
0
 10
249.633
 20
-111.559
 11
249.397
 21
-111.486
  0
LINE
  8
0
 10
249.397
 20
-111.486
 11
249.175
 21
-111.379
  0
LINE
  8
0
 10
249.175
 20
-111.379
 11
248.971
 21
-111.24
  0
LINE
  8
0
 10
248.971
 20
-111.24
 11
248.79
 21
-111.072
  0
LINE
  8
0
 10
248.79
 20
-111.072
 11
248.637
 21
-110.879
  0
LINE
  8
0
 10
248.637
 20
-110.879
 11
248.513
 21
-110.666
  0
LINE
  8
0
 10
248.513
 20
-110.666
 11
248.423
 21
-110.436
  0
LINE
  8
0
 10
248.423
 20
-110.436
 11
248.368
 21
-110.196
  0
LINE
  8
0
 10
248.368
 20
-110.196
 11
248.35
 21
-109.95
  0
LINE
  8
0
 10
248.35
 20
-109.95
 11
248.368
 21
-109.704
  0
LINE
  8
0
 10
248.368
 20
-109.704
 11
248.423
 21
-109.464
  0
LINE
  8
0
 10
248.423
 20
-109.464
 11
248.513
 21
-109.234
  0
LINE
  8
0
 10
248.513
 20
-109.234
 11
248.637
 21
-109.021
  0
LINE
  8
0
 10
248.637
 20
-109.021
 11
248.79
 21
-108.828
  0
LINE
  8
0
 10
248.79
 20
-108.828
 11
248.971
 21
-108.66
  0
LINE
  8
0
 10
248.971
 20
-108.66
 11
249.175
 21
-108.521
  0
LINE
  8
0
 10
249.175
 20
-108.521
 11
249.397
 21
-108.414
  0
LINE
  8
0
 10
249.397
 20
-108.414
 11
249.633
 21
-108.341
  0
LINE
  8
0
 10
249.633
 20
-108.341
 11
249.877
 21
-108.305
  0
LINE
  8
0
 10
249.877
 20
-108.305
 11
290.123
 21
-108.305
  0
LINE
  8
0
 10
290.123
 20
-108.305
 11
290.367
 21
-108.341
  0
LINE
  8
0
 10
290.367
 20
-108.341
 11
290.603
 21
-108.414
  0
LINE
  8
0
 10
290.603
 20
-108.414
 11
290.825
 21
-108.521
  0
LINE
  8
0
 10
290.825
 20
-108.521
 11
291.029
 21
-108.66
  0
LINE
  8
0
 10
291.029
 20
-108.66
 11
291.21
 21
-108.828
  0
LINE
  8
0
 10
291.21
 20
-108.828
 11
291.363
 21
-109.021
  0
LINE
  8
0
 10
291.363
 20
-109.021
 11
291.487
 21
-109.234
  0
LINE
  8
0
 10
291.487
 20
-109.234
 11
291.577
 21
-109.464
  0
LINE
  8
0
 10
291.577
 20
-109.464
 11
291.632
 21
-109.704
  0
LINE
  8
0
 10
291.632
 20
-109.704
 11
291.65
 21
-109.95
  0
LINE
  8
0
 10
291.65
 20
-109.95
 11
291.632
 21
-110.196
  0
LINE
  8
0
 10
291.632
 20
-110.196
 11
291.577
 21
-110.436
  0
LINE
  8
0
 10
291.577
 20
-110.436
 11
291.487
 21
-110.666
  0
LINE
  8
0
 10
291.487
 20
-110.666
 11
291.363
 21
-110.879
  0
LINE
  8
0
 10
291.363
 20
-110.879
 11
291.21
 21
-111.072
  0
LINE
  8
0
 10
291.21
 20
-111.072
 11
291.029
 21
-111.24
  0
LINE
  8
0
 10
291.029
 20
-111.24
 11
290.825
 21
-111.379
  0
LINE
  8
0
 10
290.825
 20
-111.379
 11
290.603
 21
-111.486
  0
LINE
  8
0
 10
290.603
 20
-111.486
 11
290.367
 21
-111.559
  0
LINE
  8
0
 10
290.367
 20
-111.559
 11
290.123
 21
-111.595
  0
LINE
  8
0
 10
290.123
 20
-111.595
 11
249.877
 21
-111.595
  0
LINE
  8
0
 10
159.877
 20
-111.595
 11
159.633
 21
-111.559
  0
LINE
  8
0
 10
159.633
 20
-111.559
 11
159.397
 21
-111.486
  0
LINE
  8
0
 10
159.397
 20
-111.486
 11
159.175
 21
-111.379
  0
LINE
  8
0
 10
159.175
 20
-111.379
 11
158.971
 21
-111.24
  0
LINE
  8
0
 10
158.971
 20
-111.24
 11
158.79
 21
-111.072
  0
LINE
  8
0
 10
158.79
 20
-111.072
 11
158.637
 21
-110.879
  0
LINE
  8
0
 10
158.637
 20
-110.879
 11
158.513
 21
-110.666
  0
LINE
  8
0
 10
158.513
 20
-110.666
 11
158.423
 21
-110.436
  0
LINE
  8
0
 10
158.423
 20
-110.436
 11
158.368
 21
-110.196
  0
LINE
  8
0
 10
158.368
 20
-110.196
 11
158.35
 21
-109.95
  0
LINE
  8
0
 10
158.35
 20
-109.95
 11
158.368
 21
-109.704
  0
LINE
  8
0
 10
158.368
 20
-109.704
 11
158.423
 21
-109.464
  0
LINE
  8
0
 10
158.423
 20
-109.464
 11
158.513
 21
-109.234
  0
LINE
  8
0
 10
158.513
 20
-109.234
 11
158.637
 21
-109.021
  0
LINE
  8
0
 10
158.637
 20
-109.021
 11
158.79
 21
-108.828
  0
LINE
  8
0
 10
158.79
 20
-108.828
 11
158.971
 21
-108.66
  0
LINE
  8
0
 10
158.971
 20
-108.66
 11
159.175
 21
-108.521
  0
LINE
  8
0
 10
159.175
 20
-108.521
 11
159.397
 21
-108.414
  0
LINE
  8
0
 10
159.397
 20
-108.414
 11
159.633
 21
-108.341
  0
LINE
  8
0
 10
159.633
 20
-108.341
 11
159.877
 21
-108.305
  0
LINE
  8
0
 10
159.877
 20
-108.305
 11
200.123
 21
-108.305
  0
LINE
  8
0
 10
200.123
 20
-108.305
 11
200.367
 21
-108.341
  0
LINE
  8
0
 10
200.367
 20
-108.341
 11
200.603
 21
-108.414
  0
LINE
  8
0
 10
200.603
 20
-108.414
 11
200.825
 21
-108.521
  0
LINE
  8
0
 10
200.825
 20
-108.521
 11
201.029
 21
-108.66
  0
LINE
  8
0
 10
201.029
 20
-108.66
 11
201.21
 21
-108.828
  0
LINE
  8
0
 10
201.21
 20
-108.828
 11
201.363
 21
-109.021
  0
LINE
  8
0
 10
201.363
 20
-109.021
 11
201.487
 21
-109.234
  0
LINE
  8
0
 10
201.487
 20
-109.234
 11
201.577
 21
-109.464
  0
LINE
  8
0
 10
201.577
 20
-109.464
 11
201.632
 21
-109.704
  0
LINE
  8
0
 10
201.632
 20
-109.704
 11
201.65
 21
-109.95
  0
LINE
  8
0
 10
201.65
 20
-109.95
 11
201.632
 21
-110.196
  0
LINE
  8
0
 10
201.632
 20
-110.196
 11
201.577
 21
-110.436
  0
LINE
  8
0
 10
201.577
 20
-110.436
 11
201.487
 21
-110.666
  0
LINE
  8
0
 10
201.487
 20
-110.666
 11
201.363
 21
-110.879
  0
LINE
  8
0
 10
201.363
 20
-110.879
 11
201.21
 21
-111.072
  0
LINE
  8
0
 10
201.21
 20
-111.072
 11
201.029
 21
-111.24
  0
LINE
  8
0
 10
201.029
 20
-111.24
 11
200.825
 21
-111.379
  0
LINE
  8
0
 10
200.825
 20
-111.379
 11
200.603
 21
-111.486
  0
LINE
  8
0
 10
200.603
 20
-111.486
 11
200.367
 21
-111.559
  0
LINE
  8
0
 10
200.367
 20
-111.559
 11
200.123
 21
-111.595
  0
LINE
  8
0
 10
200.123
 20
-111.595
 11
159.877
 21
-111.595
  0
LINE
  8
0
 10
-200.123
 20
-111.595
 11
-200.367
 21
-111.559
  0
LINE
  8
0
 10
-200.367
 20
-111.559
 11
-200.603
 21
-111.486
  0
LINE
  8
0
 10
-200.603
 20
-111.486
 11
-200.825
 21
-111.379
  0
LINE
  8
0
 10
-200.825
 20
-111.379
 11
-201.029
 21
-111.24
  0
LINE
  8
0
 10
-201.029
 20
-111.24
 11
-201.21
 21
-111.072
  0
LINE
  8
0
 10
-201.21
 20
-111.072
 11
-201.363
 21
-110.879
  0
LINE
  8
0
 10
-201.363
 20
-110.879
 11
-201.487
 21
-110.666
  0
LINE
  8
0
 10
-201.487
 20
-110.666
 11
-201.577
 21
-110.436
  0
LINE
  8
0
 10
-201.577
 20
-110.436
 11
-201.632
 21
-110.196
  0
LINE
  8
0
 10
-201.632
 20
-110.196
 11
-201.65
 21
-109.95
  0
LINE
  8
0
 10
-201.65
 20
-109.95
 11
-201.632
 21
-109.704
  0
LINE
  8
0
 10
-201.632
 20
-109.704
 11
-201.577
 21
-109.464
  0
LINE
  8
0
 10
-201.577
 20
-109.464
 11
-201.487
 21
-109.234
  0
LINE
  8
0
 10
-201.487
 20
-109.234
 11
-201.363
 21
-109.021
  0
LINE
  8
0
 10
-201.363
 20
-109.021
 11
-201.21
 21
-108.828
  0
LINE
  8
0
 10
-201.21
 20
-108.828
 11
-201.029
 21
-108.66
  0
LINE
  8
0
 10
-201.029
 20
-108.66
 11
-200.825
 21
-108.521
  0
LINE
  8
0
 10
-200.825
 20
-108.521
 11
-200.603
 21
-108.414
  0
LINE
  8
0
 10
-200.603
 20
-108.414
 11
-200.367
 21
-108.341
  0
LINE
  8
0
 10
-200.367
 20
-108.341
 11
-200.123
 21
-108.305
  0
LINE
  8
0
 10
-200.123
 20
-108.305
 11
-159.877
 21
-108.305
  0
LINE
  8
0
 10
-159.877
 20
-108.305
 11
-159.633
 21
-108.341
  0
LINE
  8
0
 10
-159.633
 20
-108.341
 11
-159.397
 21
-108.414
  0
LINE
  8
0
 10
-159.397
 20
-108.414
 11
-159.175
 21
-108.521
  0
LINE
  8
0
 10
-159.175
 20
-108.521
 11
-158.971
 21
-108.66
  0
LINE
  8
0
 10
-158.971
 20
-108.66
 11
-158.79
 21
-108.828
  0
LINE
  8
0
 10
-158.79
 20
-108.828
 11
-158.637
 21
-109.021
  0
LINE
  8
0
 10
-158.637
 20
-109.021
 11
-158.513
 21
-109.234
  0
LINE
  8
0
 10
-158.513
 20
-109.234
 11
-158.423
 21
-109.464
  0
LINE
  8
0
 10
-158.423
 20
-109.464
 11
-158.368
 21
-109.704
  0
LINE
  8
0
 10
-158.368
 20
-109.704
 11
-158.35
 21
-109.95
  0
LINE
  8
0
 10
-158.35
 20
-109.95
 11
-158.368
 21
-110.196
  0
LINE
  8
0
 10
-158.368
 20
-110.196
 11
-158.423
 21
-110.436
  0
LINE
  8
0
 10
-158.423
 20
-110.436
 11
-158.513
 21
-110.666
  0
LINE
  8
0
 10
-158.513
 20
-110.666
 11
-158.637
 21
-110.879
  0
LINE
  8
0
 10
-158.637
 20
-110.879
 11
-158.79
 21
-111.072
  0
LINE
  8
0
 10
-158.79
 20
-111.072
 11
-158.971
 21
-111.24
  0
LINE
  8
0
 10
-158.971
 20
-111.24
 11
-159.175
 21
-111.379
  0
LINE
  8
0
 10
-159.175
 20
-111.379
 11
-159.397
 21
-111.486
  0
LINE
  8
0
 10
-159.397
 20
-111.486
 11
-159.633
 21
-111.559
  0
LINE
  8
0
 10
-159.633
 20
-111.559
 11
-159.877
 21
-111.595
  0
LINE
  8
0
 10
-159.877
 20
-111.595
 11
-200.123
 21
-111.595
  0
LINE
  8
0
 10
-290.123
 20
-111.595
 11
-290.367
 21
-111.559
  0
LINE
  8
0
 10
-290.367
 20
-111.559
 11
-290.603
 21
-111.486
  0
LINE
  8
0
 10
-290.603
 20
-111.486
 11
-290.825
 21
-111.379
  0
LINE
  8
0
 10
-290.825
 20
-111.379
 11
-291.029
 21
-111.24
  0
LINE
  8
0
 10
-291.029
 20
-111.24
 11
-291.21
 21
-111.072
  0
LINE
  8
0
 10
-291.21
 20
-111.072
 11
-291.363
 21
-110.879
  0
LINE
  8
0
 10
-291.363
 20
-110.879
 11
-291.487
 21
-110.666
  0
LINE
  8
0
 10
-291.487
 20
-110.666
 11
-291.577
 21
-110.436
  0
LINE
  8
0
 10
-291.577
 20
-110.436
 11
-291.632
 21
-110.196
  0
LINE
  8
0
 10
-291.632
 20
-110.196
 11
-291.65
 21
-109.95
  0
LINE
  8
0
 10
-291.65
 20
-109.95
 11
-291.632
 21
-109.704
  0
LINE
  8
0
 10
-291.632
 20
-109.704
 11
-291.577
 21
-109.464
  0
LINE
  8
0
 10
-291.577
 20
-109.464
 11
-291.487
 21
-109.234
  0
LINE
  8
0
 10
-291.487
 20
-109.234
 11
-291.363
 21
-109.021
  0
LINE
  8
0
 10
-291.363
 20
-109.021
 11
-291.21
 21
-108.828
  0
LINE
  8
0
 10
-291.21
 20
-108.828
 11
-291.029
 21
-108.66
  0
LINE
  8
0
 10
-291.029
 20
-108.66
 11
-290.825
 21
-108.521
  0
LINE
  8
0
 10
-290.825
 20
-108.521
 11
-290.603
 21
-108.414
  0
LINE
  8
0
 10
-290.603
 20
-108.414
 11
-290.367
 21
-108.341
  0
LINE
  8
0
 10
-290.367
 20
-108.341
 11
-290.123
 21
-108.305
  0
LINE
  8
0
 10
-290.123
 20
-108.305
 11
-249.877
 21
-108.305
  0
LINE
  8
0
 10
-249.877
 20
-108.305
 11
-249.633
 21
-108.341
  0
LINE
  8
0
 10
-249.633
 20
-108.341
 11
-249.397
 21
-108.414
  0
LINE
  8
0
 10
-249.397
 20
-108.414
 11
-249.175
 21
-108.521
  0
LINE
  8
0
 10
-249.175
 20
-108.521
 11
-248.971
 21
-108.66
  0
LINE
  8
0
 10
-248.971
 20
-108.66
 11
-248.79
 21
-108.828
  0
LINE
  8
0
 10
-248.79
 20
-108.828
 11
-248.637
 21
-109.021
  0
LINE
  8
0
 10
-248.637
 20
-109.021
 11
-248.513
 21
-109.234
  0
LINE
  8
0
 10
-248.513
 20
-109.234
 11
-248.423
 21
-109.464
  0
LINE
  8
0
 10
-248.423
 20
-109.464
 11
-248.368
 21
-109.704
  0
LINE
  8
0
 10
-248.368
 20
-109.704
 11
-248.35
 21
-109.95
  0
LINE
  8
0
 10
-248.35
 20
-109.95
 11
-248.368
 21
-110.196
  0
LINE
  8
0
 10
-248.368
 20
-110.196
 11
-248.423
 21
-110.436
  0
LINE
  8
0
 10
-248.423
 20
-110.436
 11
-248.513
 21
-110.666
  0
LINE
  8
0
 10
-248.513
 20
-110.666
 11
-248.637
 21
-110.879
  0
LINE
  8
0
 10
-248.637
 20
-110.879
 11
-248.79
 21
-111.072
  0
LINE
  8
0
 10
-248.79
 20
-111.072
 11
-248.971
 21
-111.24
  0
LINE
  8
0
 10
-248.971
 20
-111.24
 11
-249.175
 21
-111.379
  0
LINE
  8
0
 10
-249.175
 20
-111.379
 11
-249.397
 21
-111.486
  0
LINE
  8
0
 10
-249.397
 20
-111.486
 11
-249.633
 21
-111.559
  0
LINE
  8
0
 10
-249.633
 20
-111.559
 11
-249.877
 21
-111.595
  0
LINE
  8
0
 10
-249.877
 20
-111.595
 11
-290.123
 21
-111.595
  0
LINE
  8
0
 10
69.8767
 20
-111.595
 11
69.6328
 21
-111.559
  0
LINE
  8
0
 10
69.6328
 20
-111.559
 11
69.3972
 21
-111.486
  0
LINE
  8
0
 10
69.3972
 20
-111.486
 11
69.175
 21
-111.379
  0
LINE
  8
0
 10
69.175
 20
-111.379
 11
68.9712
 21
-111.24
  0
LINE
  8
0
 10
68.9712
 20
-111.24
 11
68.7905
 21
-111.072
  0
LINE
  8
0
 10
68.7905
 20
-111.072
 11
68.6367
 21
-110.879
  0
LINE
  8
0
 10
68.6367
 20
-110.879
 11
68.5134
 21
-110.666
  0
LINE
  8
0
 10
68.5134
 20
-110.666
 11
68.4233
 21
-110.436
  0
LINE
  8
0
 10
68.4233
 20
-110.436
 11
68.3684
 21
-110.196
  0
LINE
  8
0
 10
68.3684
 20
-110.196
 11
68.35
 21
-109.95
  0
LINE
  8
0
 10
68.35
 20
-109.95
 11
68.3684
 21
-109.704
  0
LINE
  8
0
 10
68.3684
 20
-109.704
 11
68.4233
 21
-109.464
  0
LINE
  8
0
 10
68.4233
 20
-109.464
 11
68.5134
 21
-109.234
  0
LINE
  8
0
 10
68.5134
 20
-109.234
 11
68.6367
 21
-109.021
  0
LINE
  8
0
 10
68.6367
 20
-109.021
 11
68.7905
 21
-108.828
  0
LINE
  8
0
 10
68.7905
 20
-108.828
 11
68.9712
 21
-108.66
  0
LINE
  8
0
 10
68.9712
 20
-108.66
 11
69.175
 21
-108.521
  0
LINE
  8
0
 10
69.175
 20
-108.521
 11
69.3972
 21
-108.414
  0
LINE
  8
0
 10
69.3972
 20
-108.414
 11
69.6328
 21
-108.341
  0
LINE
  8
0
 10
69.6328
 20
-108.341
 11
69.8767
 21
-108.305
  0
LINE
  8
0
 10
69.8767
 20
-108.305
 11
110.123
 21
-108.305
  0
LINE
  8
0
 10
110.123
 20
-108.305
 11
110.367
 21
-108.341
  0
LINE
  8
0
 10
110.367
 20
-108.341
 11
110.603
 21
-108.414
  0
LINE
  8
0
 10
110.603
 20
-108.414
 11
110.825
 21
-108.521
  0
LINE
  8
0
 10
110.825
 20
-108.521
 11
111.029
 21
-108.66
  0
LINE
  8
0
 10
111.029
 20
-108.66
 11
111.21
 21
-108.828
  0
LINE
  8
0
 10
111.21
 20
-108.828
 11
111.363
 21
-109.021
  0
LINE
  8
0
 10
111.363
 20
-109.021
 11
111.487
 21
-109.234
  0
LINE
  8
0
 10
111.487
 20
-109.234
 11
111.577
 21
-109.464
  0
LINE
  8
0
 10
111.577
 20
-109.464
 11
111.632
 21
-109.704
  0
LINE
  8
0
 10
111.632
 20
-109.704
 11
111.65
 21
-109.95
  0
LINE
  8
0
 10
111.65
 20
-109.95
 11
111.632
 21
-110.196
  0
LINE
  8
0
 10
111.632
 20
-110.196
 11
111.577
 21
-110.436
  0
LINE
  8
0
 10
111.577
 20
-110.436
 11
111.487
 21
-110.666
  0
LINE
  8
0
 10
111.487
 20
-110.666
 11
111.363
 21
-110.879
  0
LINE
  8
0
 10
111.363
 20
-110.879
 11
111.21
 21
-111.072
  0
LINE
  8
0
 10
111.21
 20
-111.072
 11
111.029
 21
-111.24
  0
LINE
  8
0
 10
111.029
 20
-111.24
 11
110.825
 21
-111.379
  0
LINE
  8
0
 10
110.825
 20
-111.379
 11
110.603
 21
-111.486
  0
LINE
  8
0
 10
110.603
 20
-111.486
 11
110.367
 21
-111.559
  0
LINE
  8
0
 10
110.367
 20
-111.559
 11
110.123
 21
-111.595
  0
LINE
  8
0
 10
110.123
 20
-111.595
 11
69.8767
 21
-111.595
  0
LINE
  8
0
 10
-20.1233
 20
-111.595
 11
-20.3672
 21
-111.559
  0
LINE
  8
0
 10
-20.3672
 20
-111.559
 11
-20.6028
 21
-111.486
  0
LINE
  8
0
 10
-20.6028
 20
-111.486
 11
-20.825
 21
-111.379
  0
LINE
  8
0
 10
-20.825
 20
-111.379
 11
-21.0287
 21
-111.24
  0
LINE
  8
0
 10
-21.0287
 20
-111.24
 11
-21.2095
 21
-111.072
  0
LINE
  8
0
 10
-21.2095
 20
-111.072
 11
-21.3633
 21
-110.879
  0
LINE
  8
0
 10
-21.3633
 20
-110.879
 11
-21.4866
 21
-110.666
  0
LINE
  8
0
 10
-21.4866
 20
-110.666
 11
-21.5767
 21
-110.436
  0
LINE
  8
0
 10
-21.5767
 20
-110.436
 11
-21.6316
 21
-110.196
  0
LINE
  8
0
 10
-21.6316
 20
-110.196
 11
-21.65
 21
-109.95
  0
LINE
  8
0
 10
-21.65
 20
-109.95
 11
-21.6316
 21
-109.704
  0
LINE
  8
0
 10
-21.6316
 20
-109.704
 11
-21.5767
 21
-109.464
  0
LINE
  8
0
 10
-21.5767
 20
-109.464
 11
-21.4866
 21
-109.234
  0
LINE
  8
0
 10
-21.4866
 20
-109.234
 11
-21.3633
 21
-109.021
  0
LINE
  8
0
 10
-21.3633
 20
-109.021
 11
-21.2095
 21
-108.828
  0
LINE
  8
0
 10
-21.2095
 20
-108.828
 11
-21.0287
 21
-108.66
  0
LINE
  8
0
 10
-21.0287
 20
-108.66
 11
-20.825
 21
-108.521
  0
LINE
  8
0
 10
-20.825
 20
-108.521
 11
-20.6028
 21
-108.414
  0
LINE
  8
0
 10
-20.6028
 20
-108.414
 11
-20.3672
 21
-108.341
  0
LINE
  8
0
 10
-20.3672
 20
-108.341
 11
-20.1233
 21
-108.305
  0
LINE
  8
0
 10
-20.1233
 20
-108.305
 11
20.1233
 21
-108.305
  0
LINE
  8
0
 10
20.1233
 20
-108.305
 11
20.3672
 21
-108.341
  0
LINE
  8
0
 10
20.3672
 20
-108.341
 11
20.6028
 21
-108.414
  0
LINE
  8
0
 10
20.6028
 20
-108.414
 11
20.825
 21
-108.521
  0
LINE
  8
0
 10
20.825
 20
-108.521
 11
21.0287
 21
-108.66
  0
LINE
  8
0
 10
21.0287
 20
-108.66
 11
21.2095
 21
-108.828
  0
LINE
  8
0
 10
21.2095
 20
-108.828
 11
21.3633
 21
-109.021
  0
LINE
  8
0
 10
21.3633
 20
-109.021
 11
21.4866
 21
-109.234
  0
LINE
  8
0
 10
21.4866
 20
-109.234
 11
21.5767
 21
-109.464
  0
LINE
  8
0
 10
21.5767
 20
-109.464
 11
21.6316
 21
-109.704
  0
LINE
  8
0
 10
21.6316
 20
-109.704
 11
21.65
 21
-109.95
  0
LINE
  8
0
 10
21.65
 20
-109.95
 11
21.6316
 21
-110.196
  0
LINE
  8
0
 10
21.6316
 20
-110.196
 11
21.5767
 21
-110.436
  0
LINE
  8
0
 10
21.5767
 20
-110.436
 11
21.4866
 21
-110.666
  0
LINE
  8
0
 10
21.4866
 20
-110.666
 11
21.3633
 21
-110.879
  0
LINE
  8
0
 10
21.3633
 20
-110.879
 11
21.2095
 21
-111.072
  0
LINE
  8
0
 10
21.2095
 20
-111.072
 11
21.0287
 21
-111.24
  0
LINE
  8
0
 10
21.0287
 20
-111.24
 11
20.825
 21
-111.379
  0
LINE
  8
0
 10
20.825
 20
-111.379
 11
20.6028
 21
-111.486
  0
LINE
  8
0
 10
20.6028
 20
-111.486
 11
20.3672
 21
-111.559
  0
LINE
  8
0
 10
20.3672
 20
-111.559
 11
20.1233
 21
-111.595
  0
LINE
  8
0
 10
20.1233
 20
-111.595
 11
-20.1233
 21
-111.595
  0
LINE
  8
0
 10
-110.123
 20
-111.595
 11
-110.367
 21
-111.559
  0
LINE
  8
0
 10
-110.367
 20
-111.559
 11
-110.603
 21
-111.486
  0
LINE
  8
0
 10
-110.603
 20
-111.486
 11
-110.825
 21
-111.379
  0
LINE
  8
0
 10
-110.825
 20
-111.379
 11
-111.029
 21
-111.24
  0
LINE
  8
0
 10
-111.029
 20
-111.24
 11
-111.21
 21
-111.072
  0
LINE
  8
0
 10
-111.21
 20
-111.072
 11
-111.363
 21
-110.879
  0
LINE
  8
0
 10
-111.363
 20
-110.879
 11
-111.487
 21
-110.666
  0
LINE
  8
0
 10
-111.487
 20
-110.666
 11
-111.577
 21
-110.436
  0
LINE
  8
0
 10
-111.577
 20
-110.436
 11
-111.632
 21
-110.196
  0
LINE
  8
0
 10
-111.632
 20
-110.196
 11
-111.65
 21
-109.95
  0
LINE
  8
0
 10
-111.65
 20
-109.95
 11
-111.632
 21
-109.704
  0
LINE
  8
0
 10
-111.632
 20
-109.704
 11
-111.577
 21
-109.464
  0
LINE
  8
0
 10
-111.577
 20
-109.464
 11
-111.487
 21
-109.234
  0
LINE
  8
0
 10
-111.487
 20
-109.234
 11
-111.363
 21
-109.021
  0
LINE
  8
0
 10
-111.363
 20
-109.021
 11
-111.21
 21
-108.828
  0
LINE
  8
0
 10
-111.21
 20
-108.828
 11
-111.029
 21
-108.66
  0
LINE
  8
0
 10
-111.029
 20
-108.66
 11
-110.825
 21
-108.521
  0
LINE
  8
0
 10
-110.825
 20
-108.521
 11
-110.603
 21
-108.414
  0
LINE
  8
0
 10
-110.603
 20
-108.414
 11
-110.367
 21
-108.341
  0
LINE
  8
0
 10
-110.367
 20
-108.341
 11
-110.123
 21
-108.305
  0
LINE
  8
0
 10
-110.123
 20
-108.305
 11
-69.8767
 21
-108.305
  0
LINE
  8
0
 10
-69.8767
 20
-108.305
 11
-69.6328
 21
-108.341
  0
LINE
  8
0
 10
-69.6328
 20
-108.341
 11
-69.3972
 21
-108.414
  0
LINE
  8
0
 10
-69.3972
 20
-108.414
 11
-69.175
 21
-108.521
  0
LINE
  8
0
 10
-69.175
 20
-108.521
 11
-68.9712
 21
-108.66
  0
LINE
  8
0
 10
-68.9712
 20
-108.66
 11
-68.7905
 21
-108.828
  0
LINE
  8
0
 10
-68.7905
 20
-108.828
 11
-68.6367
 21
-109.021
  0
LINE
  8
0
 10
-68.6367
 20
-109.021
 11
-68.5134
 21
-109.234
  0
LINE
  8
0
 10
-68.5134
 20
-109.234
 11
-68.4233
 21
-109.464
  0
LINE
  8
0
 10
-68.4233
 20
-109.464
 11
-68.3684
 21
-109.704
  0
LINE
  8
0
 10
-68.3684
 20
-109.704
 11
-68.35
 21
-109.95
  0
LINE
  8
0
 10
-68.35
 20
-109.95
 11
-68.3684
 21
-110.196
  0
LINE
  8
0
 10
-68.3684
 20
-110.196
 11
-68.4233
 21
-110.436
  0
LINE
  8
0
 10
-68.4233
 20
-110.436
 11
-68.5134
 21
-110.666
  0
LINE
  8
0
 10
-68.5134
 20
-110.666
 11
-68.6367
 21
-110.879
  0
LINE
  8
0
 10
-68.6367
 20
-110.879
 11
-68.7905
 21
-111.072
  0
LINE
  8
0
 10
-68.7905
 20
-111.072
 11
-68.9712
 21
-111.24
  0
LINE
  8
0
 10
-68.9712
 20
-111.24
 11
-69.175
 21
-111.379
  0
LINE
  8
0
 10
-69.175
 20
-111.379
 11
-69.3972
 21
-111.486
  0
LINE
  8
0
 10
-69.3972
 20
-111.486
 11
-69.6328
 21
-111.559
  0
LINE
  8
0
 10
-69.6328
 20
-111.559
 11
-69.8767
 21
-111.595
  0
LINE
  8
0
 10
-69.8767
 20
-111.595
 11
-110.123
 21
-111.595
  0
ENDSEC
  0
SECTION
  2
OBJECTS
  0
DICTIONARY
  0
ENDSEC
  0
EOF
