  0
SECTION
  2
BLOCKS
  0
ENDSEC
  0
SECTION
  2
ENTITIES
  0
LINE
  8
0
 10
230.398
 20
-107.348
 11
230.915
 21
-107.266
  0
LINE
  8
0
 10
230.915
 20
-107.266
 11
231.42
 21
-107.13
  0
LINE
  8
0
 10
231.42
 20
-107.13
 11
231.909
 21
-106.943
  0
LINE
  8
0
 10
231.909
 20
-106.943
 11
232.375
 21
-106.705
  0
LINE
  8
0
 10
232.375
 20
-106.705
 11
232.814
 21
-106.42
  0
LINE
  8
0
 10
232.814
 20
-106.42
 11
233.221
 21
-106.091
  0
LINE
  8
0
 10
233.221
 20
-106.091
 11
233.591
 21
-105.721
  0
LINE
  8
0
 10
233.591
 20
-105.721
 11
233.92
 21
-105.314
  0
LINE
  8
0
 10
233.92
 20
-105.314
 11
234.205
 21
-104.875
  0
LINE
  8
0
 10
234.205
 20
-104.875
 11
234.443
 21
-104.409
  0
LINE
  8
0
 10
234.443
 20
-104.409
 11
234.63
 21
-103.92
  0
LINE
  8
0
 10
234.63
 20
-103.92
 11
234.766
 21
-103.415
  0
LINE
  8
0
 10
234.766
 20
-103.415
 11
234.848
 21
-102.898
  0
LINE
  8
0
 10
234.848
 20
-102.898
 11
234.875
 21
-102.375
  0
LINE
  8
0
 10
234.875
 20
-102.375
 11
234.875
 21
102.375
  0
LINE
  8
0
 10
234.875
 20
102.375
 11
234.848
 21
102.898
  0
LINE
  8
0
 10
234.848
 20
102.898
 11
234.766
 21
103.415
  0
LINE
  8
0
 10
234.766
 20
103.415
 11
234.63
 21
103.92
  0
LINE
  8
0
 10
234.63
 20
103.92
 11
234.443
 21
104.409
  0
LINE
  8
0
 10
234.443
 20
104.409
 11
234.205
 21
104.875
  0
LINE
  8
0
 10
234.205
 20
104.875
 11
233.92
 21
105.314
  0
LINE
  8
0
 10
233.92
 20
105.314
 11
233.591
 21
105.721
  0
LINE
  8
0
 10
233.591
 20
105.721
 11
233.221
 21
106.091
  0
LINE
  8
0
 10
233.221
 20
106.091
 11
232.814
 21
106.42
  0
LINE
  8
0
 10
232.814
 20
106.42
 11
232.375
 21
106.705
  0
LINE
  8
0
 10
232.375
 20
106.705
 11
231.909
 21
106.943
  0
LINE
  8
0
 10
231.909
 20
106.943
 11
231.42
 21
107.13
  0
LINE
  8
0
 10
231.42
 20
107.13
 11
230.915
 21
107.266
  0
LINE
  8
0
 10
230.915
 20
107.266
 11
230.398
 21
107.348
  0
LINE
  8
0
 10
230.398
 20
107.348
 11
229.875
 21
107.375
  0
LINE
  8
0
 10
229.875
 20
107.375
 11
-229.875
 21
107.375
  0
LINE
  8
0
 10
-229.875
 20
107.375
 11
-230.398
 21
107.348
  0
LINE
  8
0
 10
-230.398
 20
107.348
 11
-230.915
 21
107.266
  0
LINE
  8
0
 10
-230.915
 20
107.266
 11
-231.42
 21
107.13
  0
LINE
  8
0
 10
-231.42
 20
107.13
 11
-231.909
 21
106.943
  0
LINE
  8
0
 10
-231.909
 20
106.943
 11
-232.375
 21
106.705
  0
LINE
  8
0
 10
-232.375
 20
106.705
 11
-232.814
 21
106.42
  0
LINE
  8
0
 10
-232.814
 20
106.42
 11
-233.221
 21
106.091
  0
LINE
  8
0
 10
-233.221
 20
106.091
 11
-233.591
 21
105.721
  0
LINE
  8
0
 10
-233.591
 20
105.721
 11
-233.92
 21
105.314
  0
LINE
  8
0
 10
-233.92
 20
105.314
 11
-234.205
 21
104.875
  0
LINE
  8
0
 10
-234.205
 20
104.875
 11
-234.443
 21
104.409
  0
LINE
  8
0
 10
-234.443
 20
104.409
 11
-234.63
 21
103.92
  0
LINE
  8
0
 10
-234.63
 20
103.92
 11
-234.766
 21
103.415
  0
LINE
  8
0
 10
-234.766
 20
103.415
 11
-234.848
 21
102.898
  0
LINE
  8
0
 10
-234.848
 20
102.898
 11
-234.875
 21
102.375
  0
LINE
  8
0
 10
-234.875
 20
102.375
 11
-234.875
 21
-102.375
  0
LINE
  8
0
 10
-234.875
 20
-102.375
 11
-234.848
 21
-102.898
  0
LINE
  8
0
 10
-234.848
 20
-102.898
 11
-234.766
 21
-103.415
  0
LINE
  8
0
 10
-234.766
 20
-103.415
 11
-234.63
 21
-103.92
  0
LINE
  8
0
 10
-234.63
 20
-103.92
 11
-234.443
 21
-104.409
  0
LINE
  8
0
 10
-234.443
 20
-104.409
 11
-234.205
 21
-104.875
  0
LINE
  8
0
 10
-234.205
 20
-104.875
 11
-233.92
 21
-105.314
  0
LINE
  8
0
 10
-233.92
 20
-105.314
 11
-233.591
 21
-105.721
  0
LINE
  8
0
 10
-233.591
 20
-105.721
 11
-233.221
 21
-106.091
  0
LINE
  8
0
 10
-233.221
 20
-106.091
 11
-232.814
 21
-106.42
  0
LINE
  8
0
 10
-232.814
 20
-106.42
 11
-232.375
 21
-106.705
  0
LINE
  8
0
 10
-232.375
 20
-106.705
 11
-231.909
 21
-106.943
  0
LINE
  8
0
 10
-231.909
 20
-106.943
 11
-231.42
 21
-107.13
  0
LINE
  8
0
 10
-231.42
 20
-107.13
 11
-230.915
 21
-107.266
  0
LINE
  8
0
 10
-230.915
 20
-107.266
 11
-230.398
 21
-107.348
  0
LINE
  8
0
 10
-230.398
 20
-107.348
 11
-229.875
 21
-107.375
  0
LINE
  8
0
 10
-229.875
 20
-107.375
 11
229.875
 21
-107.375
  0
LINE
  8
0
 10
229.875
 20
-107.375
 11
230.398
 21
-107.348
  0
LINE
  8
0
 10
-227.892
 20
81.2705
 11
-228.28
 21
81.3319
  0
LINE
  8
0
 10
-228.28
 20
81.3319
 11
-228.659
 21
81.4335
  0
LINE
  8
0
 10
-228.659
 20
81.4335
 11
-229.025
 21
81.5742
  0
LINE
  8
0
 10
-229.025
 20
81.5742
 11
-229.375
 21
81.7524
  0
LINE
  8
0
 10
-229.375
 20
81.7524
 11
-229.704
 21
81.9662
  0
LINE
  8
0
 10
-229.704
 20
81.9662
 11
-230.009
 21
82.2132
  0
LINE
  8
0
 10
-230.009
 20
82.2132
 11
-230.287
 21
82.4908
  0
LINE
  8
0
 10
-230.287
 20
82.4908
 11
-230.534
 21
82.7958
  0
LINE
  8
0
 10
-230.534
 20
82.7958
 11
-230.748
 21
83.125
  0
LINE
  8
0
 10
-230.748
 20
83.125
 11
-230.926
 21
83.4747
  0
LINE
  8
0
 10
-230.926
 20
83.4747
 11
-231.066
 21
83.8412
  0
LINE
  8
0
 10
-231.066
 20
83.8412
 11
-231.168
 21
84.2203
  0
LINE
  8
0
 10
-231.168
 20
84.2203
 11
-231.229
 21
84.608
  0
LINE
  8
0
 10
-231.229
 20
84.608
 11
-231.25
 21
85
  0
LINE
  8
0
 10
-231.25
 20
85
 11
-231.229
 21
85.392
  0
LINE
  8
0
 10
-231.229
 20
85.392
 11
-231.168
 21
85.7797
  0
LINE
  8
0
 10
-231.168
 20
85.7797
 11
-231.066
 21
86.1588
  0
LINE
  8
0
 10
-231.066
 20
86.1588
 11
-230.926
 21
86.5253
  0
LINE
  8
0
 10
-230.926
 20
86.5253
 11
-230.748
 21
86.875
  0
LINE
  8
0
 10
-230.748
 20
86.875
 11
-230.534
 21
87.2042
  0
LINE
  8
0
 10
-230.534
 20
87.2042
 11
-230.287
 21
87.5092
  0
LINE
  8
0
 10
-230.287
 20
87.5092
 11
-230.009
 21
87.7868
  0
LINE
  8
0
 10
-230.009
 20
87.7868
 11
-229.704
 21
88.0338
  0
LINE
  8
0
 10
-229.704
 20
88.0338
 11
-229.375
 21
88.2476
  0
LINE
  8
0
 10
-229.375
 20
88.2476
 11
-229.025
 21
88.4258
  0
LINE
  8
0
 10
-229.025
 20
88.4258
 11
-228.659
 21
88.5665
  0
LINE
  8
0
 10
-228.659
 20
88.5665
 11
-228.28
 21
88.668
  0
LINE
  8
0
 10
-228.28
 20
88.668
 11
-227.892
 21
88.7294
  0
LINE
  8
0
 10
-227.892
 20
88.7294
 11
-227.5
 21
88.75
  0
LINE
  8
0
 10
-227.5
 20
88.75
 11
-227.108
 21
88.7294
  0
LINE
  8
0
 10
-227.108
 20
88.7294
 11
-226.72
 21
88.668
  0
LINE
  8
0
 10
-226.72
 20
88.668
 11
-226.341
 21
88.5665
  0
LINE
  8
0
 10
-226.341
 20
88.5665
 11
-225.975
 21
88.4258
  0
LINE
  8
0
 10
-225.975
 20
88.4258
 11
-225.625
 21
88.2476
  0
LINE
  8
0
 10
-225.625
 20
88.2476
 11
-225.296
 21
88.0338
  0
LINE
  8
0
 10
-225.296
 20
88.0338
 11
-224.991
 21
87.7868
  0
LINE
  8
0
 10
-224.991
 20
87.7868
 11
-224.713
 21
87.5092
  0
LINE
  8
0
 10
-224.713
 20
87.5092
 11
-224.466
 21
87.2042
  0
LINE
  8
0
 10
-224.466
 20
87.2042
 11
-224.252
 21
86.875
  0
LINE
  8
0
 10
-224.252
 20
86.875
 11
-224.074
 21
86.5253
  0
LINE
  8
0
 10
-224.074
 20
86.5253
 11
-223.934
 21
86.1588
  0
LINE
  8
0
 10
-223.934
 20
86.1588
 11
-223.832
 21
85.7797
  0
LINE
  8
0
 10
-223.832
 20
85.7797
 11
-223.771
 21
85.392
  0
LINE
  8
0
 10
-223.771
 20
85.392
 11
-223.75
 21
85
  0
LINE
  8
0
 10
-223.75
 20
85
 11
-223.771
 21
84.608
  0
LINE
  8
0
 10
-223.771
 20
84.608
 11
-223.832
 21
84.2203
  0
LINE
  8
0
 10
-223.832
 20
84.2203
 11
-223.934
 21
83.8412
  0
LINE
  8
0
 10
-223.934
 20
83.8412
 11
-224.074
 21
83.4747
  0
LINE
  8
0
 10
-224.074
 20
83.4747
 11
-224.252
 21
83.125
  0
LINE
  8
0
 10
-224.252
 20
83.125
 11
-224.466
 21
82.7958
  0
LINE
  8
0
 10
-224.466
 20
82.7958
 11
-224.713
 21
82.4908
  0
LINE
  8
0
 10
-224.713
 20
82.4908
 11
-224.991
 21
82.2132
  0
LINE
  8
0
 10
-224.991
 20
82.2132
 11
-225.296
 21
81.9662
  0
LINE
  8
0
 10
-225.296
 20
81.9662
 11
-225.625
 21
81.7524
  0
LINE
  8
0
 10
-225.625
 20
81.7524
 11
-225.975
 21
81.5742
  0
LINE
  8
0
 10
-225.975
 20
81.5742
 11
-226.341
 21
81.4335
  0
LINE
  8
0
 10
-226.341
 20
81.4335
 11
-226.72
 21
81.3319
  0
LINE
  8
0
 10
-226.72
 20
81.3319
 11
-227.108
 21
81.2705
  0
LINE
  8
0
 10
-227.108
 20
81.2705
 11
-227.5
 21
81.25
  0
LINE
  8
0
 10
-227.5
 20
81.25
 11
-227.892
 21
81.2705
  0
LINE
  8
0
 10
227.108
 20
81.2705
 11
226.72
 21
81.3319
  0
LINE
  8
0
 10
226.72
 20
81.3319
 11
226.341
 21
81.4335
  0
LINE
  8
0
 10
226.341
 20
81.4335
 11
225.975
 21
81.5742
  0
LINE
  8
0
 10
225.975
 20
81.5742
 11
225.625
 21
81.7524
  0
LINE
  8
0
 10
225.625
 20
81.7524
 11
225.296
 21
81.9662
  0
LINE
  8
0
 10
225.296
 20
81.9662
 11
224.991
 21
82.2132
  0
LINE
  8
0
 10
224.991
 20
82.2132
 11
224.713
 21
82.4908
  0
LINE
  8
0
 10
224.713
 20
82.4908
 11
224.466
 21
82.7958
  0
LINE
  8
0
 10
224.466
 20
82.7958
 11
224.252
 21
83.125
  0
LINE
  8
0
 10
224.252
 20
83.125
 11
224.074
 21
83.4747
  0
LINE
  8
0
 10
224.074
 20
83.4747
 11
223.934
 21
83.8412
  0
LINE
  8
0
 10
223.934
 20
83.8412
 11
223.832
 21
84.2203
  0
LINE
  8
0
 10
223.832
 20
84.2203
 11
223.771
 21
84.608
  0
LINE
  8
0
 10
223.771
 20
84.608
 11
223.75
 21
85
  0
LINE
  8
0
 10
223.75
 20
85
 11
223.771
 21
85.392
  0
LINE
  8
0
 10
223.771
 20
85.392
 11
223.832
 21
85.7797
  0
LINE
  8
0
 10
223.832
 20
85.7797
 11
223.934
 21
86.1588
  0
LINE
  8
0
 10
223.934
 20
86.1588
 11
224.074
 21
86.5253
  0
LINE
  8
0
 10
224.074
 20
86.5253
 11
224.252
 21
86.875
  0
LINE
  8
0
 10
224.252
 20
86.875
 11
224.466
 21
87.2042
  0
LINE
  8
0
 10
224.466
 20
87.2042
 11
224.713
 21
87.5092
  0
LINE
  8
0
 10
224.713
 20
87.5092
 11
224.991
 21
87.7868
  0
LINE
  8
0
 10
224.991
 20
87.7868
 11
225.296
 21
88.0338
  0
LINE
  8
0
 10
225.296
 20
88.0338
 11
225.625
 21
88.2476
  0
LINE
  8
0
 10
225.625
 20
88.2476
 11
225.975
 21
88.4258
  0
LINE
  8
0
 10
225.975
 20
88.4258
 11
226.341
 21
88.5665
  0
LINE
  8
0
 10
226.341
 20
88.5665
 11
226.72
 21
88.668
  0
LINE
  8
0
 10
226.72
 20
88.668
 11
227.108
 21
88.7294
  0
LINE
  8
0
 10
227.108
 20
88.7294
 11
227.5
 21
88.75
  0
LINE
  8
0
 10
227.5
 20
88.75
 11
227.892
 21
88.7294
  0
LINE
  8
0
 10
227.892
 20
88.7294
 11
228.28
 21
88.668
  0
LINE
  8
0
 10
228.28
 20
88.668
 11
228.659
 21
88.5665
  0
LINE
  8
0
 10
228.659
 20
88.5665
 11
229.025
 21
88.4258
  0
LINE
  8
0
 10
229.025
 20
88.4258
 11
229.375
 21
88.2476
  0
LINE
  8
0
 10
229.375
 20
88.2476
 11
229.704
 21
88.0338
  0
LINE
  8
0
 10
229.704
 20
88.0338
 11
230.009
 21
87.7868
  0
LINE
  8
0
 10
230.009
 20
87.7868
 11
230.287
 21
87.5092
  0
LINE
  8
0
 10
230.287
 20
87.5092
 11
230.534
 21
87.2042
  0
LINE
  8
0
 10
230.534
 20
87.2042
 11
230.748
 21
86.875
  0
LINE
  8
0
 10
230.748
 20
86.875
 11
230.926
 21
86.5253
  0
LINE
  8
0
 10
230.926
 20
86.5253
 11
231.066
 21
86.1588
  0
LINE
  8
0
 10
231.066
 20
86.1588
 11
231.168
 21
85.7797
  0
LINE
  8
0
 10
231.168
 20
85.7797
 11
231.229
 21
85.392
  0
LINE
  8
0
 10
231.229
 20
85.392
 11
231.25
 21
85
  0
LINE
  8
0
 10
231.25
 20
85
 11
231.229
 21
84.608
  0
LINE
  8
0
 10
231.229
 20
84.608
 11
231.168
 21
84.2203
  0
LINE
  8
0
 10
231.168
 20
84.2203
 11
231.066
 21
83.8412
  0
LINE
  8
0
 10
231.066
 20
83.8412
 11
230.926
 21
83.4747
  0
LINE
  8
0
 10
230.926
 20
83.4747
 11
230.748
 21
83.125
  0
LINE
  8
0
 10
230.748
 20
83.125
 11
230.534
 21
82.7958
  0
LINE
  8
0
 10
230.534
 20
82.7958
 11
230.287
 21
82.4908
  0
LINE
  8
0
 10
230.287
 20
82.4908
 11
230.009
 21
82.2132
  0
LINE
  8
0
 10
230.009
 20
82.2132
 11
229.704
 21
81.9662
  0
LINE
  8
0
 10
229.704
 20
81.9662
 11
229.375
 21
81.7524
  0
LINE
  8
0
 10
229.375
 20
81.7524
 11
229.025
 21
81.5742
  0
LINE
  8
0
 10
229.025
 20
81.5742
 11
228.659
 21
81.4335
  0
LINE
  8
0
 10
228.659
 20
81.4335
 11
228.28
 21
81.3319
  0
LINE
  8
0
 10
228.28
 20
81.3319
 11
227.892
 21
81.2705
  0
LINE
  8
0
 10
227.892
 20
81.2705
 11
227.5
 21
81.25
  0
LINE
  8
0
 10
227.5
 20
81.25
 11
227.108
 21
81.2705
  0
LINE
  8
0
 10
-185.309
 20
83.3283
 11
-185.549
 21
83.3911
  0
LINE
  8
0
 10
-185.549
 20
83.3911
 11
-185.777
 21
83.4881
  0
LINE
  8
0
 10
-185.777
 20
83.4881
 11
-185.989
 21
83.6174
  0
LINE
  8
0
 10
-185.989
 20
83.6174
 11
-186.18
 21
83.7762
  0
LINE
  8
0
 10
-186.18
 20
83.7762
 11
-186.346
 21
83.961
  0
LINE
  8
0
 10
-186.346
 20
83.961
 11
-186.482
 21
84.168
  0
LINE
  8
0
 10
-186.482
 20
84.168
 11
-186.588
 21
84.3927
  0
LINE
  8
0
 10
-186.588
 20
84.3927
 11
-186.659
 21
84.6304
  0
LINE
  8
0
 10
-186.659
 20
84.6304
 11
-186.695
 21
84.8759
  0
LINE
  8
0
 10
-186.695
 20
84.8759
 11
-186.695
 21
85.1241
  0
LINE
  8
0
 10
-186.695
 20
85.1241
 11
-186.659
 21
85.3696
  0
LINE
  8
0
 10
-186.659
 20
85.3696
 11
-186.588
 21
85.6073
  0
LINE
  8
0
 10
-186.588
 20
85.6073
 11
-186.482
 21
85.832
  0
LINE
  8
0
 10
-186.482
 20
85.832
 11
-186.346
 21
86.039
  0
LINE
  8
0
 10
-186.346
 20
86.039
 11
-186.18
 21
86.2238
  0
LINE
  8
0
 10
-186.18
 20
86.2238
 11
-185.989
 21
86.3826
  0
LINE
  8
0
 10
-185.989
 20
86.3826
 11
-185.777
 21
86.5119
  0
LINE
  8
0
 10
-185.777
 20
86.5119
 11
-185.549
 21
86.6089
  0
LINE
  8
0
 10
-185.549
 20
86.6089
 11
-185.309
 21
86.6717
  0
LINE
  8
0
 10
-185.309
 20
86.6717
 11
-185.062
 21
86.6989
  0
LINE
  8
0
 10
-185.062
 20
86.6989
 11
-184.814
 21
86.6898
  0
LINE
  8
0
 10
-184.814
 20
86.6898
 11
-184.57
 21
86.6447
  0
LINE
  8
0
 10
-184.57
 20
86.6447
 11
-184.335
 21
86.5646
  0
LINE
  8
0
 10
-184.335
 20
86.5646
 11
-184.114
 21
86.4511
  0
LINE
  8
0
 10
-184.114
 20
86.4511
 11
-183.913
 21
86.3067
  0
LINE
  8
0
 10
-183.913
 20
86.3067
 11
-183.734
 21
86.1344
  0
LINE
  8
0
 10
-183.734
 20
86.1344
 11
-183.582
 21
85.938
  0
LINE
  8
0
 10
-183.582
 20
85.938
 11
-183.461
 21
85.7216
  0
LINE
  8
0
 10
-183.461
 20
85.7216
 11
-183.372
 21
85.4898
  0
LINE
  8
0
 10
-183.372
 20
85.4898
 11
-183.318
 21
85.2475
  0
LINE
  8
0
 10
-183.318
 20
85.2475
 11
-183.3
 21
85
  0
LINE
  8
0
 10
-183.3
 20
85
 11
-183.318
 21
84.7525
  0
LINE
  8
0
 10
-183.318
 20
84.7525
 11
-183.372
 21
84.5102
  0
LINE
  8
0
 10
-183.372
 20
84.5102
 11
-183.461
 21
84.2784
  0
LINE
  8
0
 10
-183.461
 20
84.2784
 11
-183.582
 21
84.062
  0
LINE
  8
0
 10
-183.582
 20
84.062
 11
-183.734
 21
83.8656
  0
LINE
  8
0
 10
-183.734
 20
83.8656
 11
-183.913
 21
83.6933
  0
LINE
  8
0
 10
-183.913
 20
83.6933
 11
-184.114
 21
83.5489
  0
LINE
  8
0
 10
-184.114
 20
83.5489
 11
-184.335
 21
83.4354
  0
LINE
  8
0
 10
-184.335
 20
83.4354
 11
-184.57
 21
83.3553
  0
LINE
  8
0
 10
-184.57
 20
83.3553
 11
-184.814
 21
83.3102
  0
LINE
  8
0
 10
-184.814
 20
83.3102
 11
-185.062
 21
83.3011
  0
LINE
  8
0
 10
-185.062
 20
83.3011
 11
-185.309
 21
83.3283
  0
LINE
  8
0
 10
-0.308777
 20
83.3283
 11
-0.548889
 21
83.3911
  0
LINE
  8
0
 10
-0.548889
 20
83.3911
 11
-0.777298
 21
83.4881
  0
LINE
  8
0
 10
-0.777298
 20
83.4881
 11
-0.989151
 21
83.6174
  0
LINE
  8
0
 10
-0.989151
 20
83.6174
 11
-1.17992
 21
83.7762
  0
LINE
  8
0
 10
-1.17992
 20
83.7762
 11
-1.34554
 21
83.961
  0
LINE
  8
0
 10
-1.34554
 20
83.961
 11
-1.48248
 21
84.168
  0
LINE
  8
0
 10
-1.48248
 20
84.168
 11
-1.58781
 21
84.3927
  0
LINE
  8
0
 10
-1.58781
 20
84.3927
 11
-1.65932
 21
84.6304
  0
LINE
  8
0
 10
-1.65932
 20
84.6304
 11
-1.69545
 21
84.8759
  0
LINE
  8
0
 10
-1.69545
 20
84.8759
 11
-1.69545
 21
85.1241
  0
LINE
  8
0
 10
-1.69545
 20
85.1241
 11
-1.65932
 21
85.3696
  0
LINE
  8
0
 10
-1.65932
 20
85.3696
 11
-1.58781
 21
85.6073
  0
LINE
  8
0
 10
-1.58781
 20
85.6073
 11
-1.48248
 21
85.832
  0
LINE
  8
0
 10
-1.48248
 20
85.832
 11
-1.34554
 21
86.039
  0
LINE
  8
0
 10
-1.34554
 20
86.039
 11
-1.17992
 21
86.2238
  0
LINE
  8
0
 10
-1.17992
 20
86.2238
 11
-0.989151
 21
86.3826
  0
LINE
  8
0
 10
-0.989151
 20
86.3826
 11
-0.777298
 21
86.5119
  0
LINE
  8
0
 10
-0.777298
 20
86.5119
 11
-0.548889
 21
86.6089
  0
LINE
  8
0
 10
-0.548889
 20
86.6089
 11
-0.308777
 21
86.6717
  0
LINE
  8
0
 10
-0.308777
 20
86.6717
 11
-0.0620728
 21
86.6989
  0
LINE
  8
0
 10
-0.0620728
 20
86.6989
 11
0.185928
 21
86.6898
  0
LINE
  8
0
 10
0.185928
 20
86.6898
 11
0.429977
 21
86.6447
  0
LINE
  8
0
 10
0.429977
 20
86.6447
 11
0.664871
 21
86.5646
  0
LINE
  8
0
 10
0.664871
 20
86.5646
 11
0.88559
 21
86.4511
  0
LINE
  8
0
 10
0.88559
 20
86.4511
 11
1.08743
 21
86.3067
  0
LINE
  8
0
 10
1.08743
 20
86.3067
 11
1.2661
 21
86.1344
  0
LINE
  8
0
 10
1.2661
 20
86.1344
 11
1.41779
 21
85.938
  0
LINE
  8
0
 10
1.41779
 20
85.938
 11
1.53926
 21
85.7216
  0
LINE
  8
0
 10
1.53926
 20
85.7216
 11
1.62791
 21
85.4898
  0
LINE
  8
0
 10
1.62791
 20
85.4898
 11
1.68187
 21
85.2475
  0
LINE
  8
0
 10
1.68187
 20
85.2475
 11
1.7
 21
85
  0
LINE
  8
0
 10
1.7
 20
85
 11
1.68187
 21
84.7525
  0
LINE
  8
0
 10
1.68187
 20
84.7525
 11
1.62791
 21
84.5102
  0
LINE
  8
0
 10
1.62791
 20
84.5102
 11
1.53926
 21
84.2784
  0
LINE
  8
0
 10
1.53926
 20
84.2784
 11
1.41779
 21
84.062
  0
LINE
  8
0
 10
1.41779
 20
84.062
 11
1.2661
 21
83.8656
  0
LINE
  8
0
 10
1.2661
 20
83.8656
 11
1.08743
 21
83.6933
  0
LINE
  8
0
 10
1.08743
 20
83.6933
 11
0.88559
 21
83.5489
  0
LINE
  8
0
 10
0.88559
 20
83.5489
 11
0.664871
 21
83.4354
  0
LINE
  8
0
 10
0.664871
 20
83.4354
 11
0.429977
 21
83.3553
  0
LINE
  8
0
 10
0.429977
 20
83.3553
 11
0.185928
 21
83.3102
  0
LINE
  8
0
 10
0.185928
 20
83.3102
 11
-0.0620728
 21
83.3011
  0
LINE
  8
0
 10
-0.0620728
 20
83.3011
 11
-0.308777
 21
83.3283
  0
LINE
  8
0
 10
184.691
 20
83.3283
 11
184.451
 21
83.3911
  0
LINE
  8
0
 10
184.451
 20
83.3911
 11
184.223
 21
83.4881
  0
LINE
  8
0
 10
184.223
 20
83.4881
 11
184.011
 21
83.6174
  0
LINE
  8
0
 10
184.011
 20
83.6174
 11
183.82
 21
83.7762
  0
LINE
  8
0
 10
183.82
 20
83.7762
 11
183.654
 21
83.961
  0
LINE
  8
0
 10
183.654
 20
83.961
 11
183.518
 21
84.168
  0
LINE
  8
0
 10
183.518
 20
84.168
 11
183.412
 21
84.3927
  0
LINE
  8
0
 10
183.412
 20
84.3927
 11
183.341
 21
84.6304
  0
LINE
  8
0
 10
183.341
 20
84.6304
 11
183.305
 21
84.8759
  0
LINE
  8
0
 10
183.305
 20
84.8759
 11
183.305
 21
85.1241
  0
LINE
  8
0
 10
183.305
 20
85.1241
 11
183.341
 21
85.3696
  0
LINE
  8
0
 10
183.341
 20
85.3696
 11
183.412
 21
85.6073
  0
LINE
  8
0
 10
183.412
 20
85.6073
 11
183.518
 21
85.832
  0
LINE
  8
0
 10
183.518
 20
85.832
 11
183.654
 21
86.039
  0
LINE
  8
0
 10
183.654
 20
86.039
 11
183.82
 21
86.2238
  0
LINE
  8
0
 10
183.82
 20
86.2238
 11
184.011
 21
86.3826
  0
LINE
  8
0
 10
184.011
 20
86.3826
 11
184.223
 21
86.5119
  0
LINE
  8
0
 10
184.223
 20
86.5119
 11
184.451
 21
86.6089
  0
LINE
  8
0
 10
184.451
 20
86.6089
 11
184.691
 21
86.6717
  0
LINE
  8
0
 10
184.691
 20
86.6717
 11
184.938
 21
86.6989
  0
LINE
  8
0
 10
184.938
 20
86.6989
 11
185.186
 21
86.6898
  0
LINE
  8
0
 10
185.186
 20
86.6898
 11
185.43
 21
86.6447
  0
LINE
  8
0
 10
185.43
 20
86.6447
 11
185.665
 21
86.5646
  0
LINE
  8
0
 10
185.665
 20
86.5646
 11
185.886
 21
86.4511
  0
LINE
  8
0
 10
185.886
 20
86.4511
 11
186.087
 21
86.3067
  0
LINE
  8
0
 10
186.087
 20
86.3067
 11
186.266
 21
86.1344
  0
LINE
  8
0
 10
186.266
 20
86.1344
 11
186.418
 21
85.938
  0
LINE
  8
0
 10
186.418
 20
85.938
 11
186.539
 21
85.7216
  0
LINE
  8
0
 10
186.539
 20
85.7216
 11
186.628
 21
85.4898
  0
LINE
  8
0
 10
186.628
 20
85.4898
 11
186.682
 21
85.2475
  0
LINE
  8
0
 10
186.682
 20
85.2475
 11
186.7
 21
85
  0
LINE
  8
0
 10
186.7
 20
85
 11
186.682
 21
84.7525
  0
LINE
  8
0
 10
186.682
 20
84.7525
 11
186.628
 21
84.5102
  0
LINE
  8
0
 10
186.628
 20
84.5102
 11
186.539
 21
84.2784
  0
LINE
  8
0
 10
186.539
 20
84.2784
 11
186.418
 21
84.062
  0
LINE
  8
0
 10
186.418
 20
84.062
 11
186.266
 21
83.8656
  0
LINE
  8
0
 10
186.266
 20
83.8656
 11
186.087
 21
83.6933
  0
LINE
  8
0
 10
186.087
 20
83.6933
 11
185.886
 21
83.5489
  0
LINE
  8
0
 10
185.886
 20
83.5489
 11
185.665
 21
83.4354
  0
LINE
  8
0
 10
185.665
 20
83.4354
 11
185.43
 21
83.3553
  0
LINE
  8
0
 10
185.43
 20
83.3553
 11
185.186
 21
83.3102
  0
LINE
  8
0
 10
185.186
 20
83.3102
 11
184.938
 21
83.3011
  0
LINE
  8
0
 10
184.938
 20
83.3011
 11
184.691
 21
83.3283
  0
LINE
  8
0
 10
-92.8088
 20
83.3283
 11
-93.0489
 21
83.3911
  0
LINE
  8
0
 10
-93.0489
 20
83.3911
 11
-93.2773
 21
83.4881
  0
LINE
  8
0
 10
-93.2773
 20
83.4881
 11
-93.4892
 21
83.6174
  0
LINE
  8
0
 10
-93.4892
 20
83.6174
 11
-93.6799
 21
83.7762
  0
LINE
  8
0
 10
-93.6799
 20
83.7762
 11
-93.8455
 21
83.961
  0
LINE
  8
0
 10
-93.8455
 20
83.961
 11
-93.9825
 21
84.168
  0
LINE
  8
0
 10
-93.9825
 20
84.168
 11
-94.0878
 21
84.3927
  0
LINE
  8
0
 10
-94.0878
 20
84.3927
 11
-94.1593
 21
84.6304
  0
LINE
  8
0
 10
-94.1593
 20
84.6304
 11
-94.1955
 21
84.8759
  0
LINE
  8
0
 10
-94.1955
 20
84.8759
 11
-94.1955
 21
85.1241
  0
LINE
  8
0
 10
-94.1955
 20
85.1241
 11
-94.1593
 21
85.3696
  0
LINE
  8
0
 10
-94.1593
 20
85.3696
 11
-94.0878
 21
85.6073
  0
LINE
  8
0
 10
-94.0878
 20
85.6073
 11
-93.9825
 21
85.832
  0
LINE
  8
0
 10
-93.9825
 20
85.832
 11
-93.8455
 21
86.039
  0
LINE
  8
0
 10
-93.8455
 20
86.039
 11
-93.6799
 21
86.2238
  0
LINE
  8
0
 10
-93.6799
 20
86.2238
 11
-93.4892
 21
86.3826
  0
LINE
  8
0
 10
-93.4892
 20
86.3826
 11
-93.2773
 21
86.5119
  0
LINE
  8
0
 10
-93.2773
 20
86.5119
 11
-93.0489
 21
86.6089
  0
LINE
  8
0
 10
-93.0489
 20
86.6089
 11
-92.8088
 21
86.6717
  0
LINE
  8
0
 10
-92.8088
 20
86.6717
 11
-92.5621
 21
86.6989
  0
LINE
  8
0
 10
-92.5621
 20
86.6989
 11
-92.3141
 21
86.6898
  0
LINE
  8
0
 10
-92.3141
 20
86.6898
 11
-92.07
 21
86.6447
  0
LINE
  8
0
 10
-92.07
 20
86.6447
 11
-91.8351
 21
86.5646
  0
LINE
  8
0
 10
-91.8351
 20
86.5646
 11
-91.6144
 21
86.4511
  0
LINE
  8
0
 10
-91.6144
 20
86.4511
 11
-91.4126
 21
86.3067
  0
LINE
  8
0
 10
-91.4126
 20
86.3067
 11
-91.2339
 21
86.1344
  0
LINE
  8
0
 10
-91.2339
 20
86.1344
 11
-91.0822
 21
85.938
  0
LINE
  8
0
 10
-91.0822
 20
85.938
 11
-90.9607
 21
85.7216
  0
LINE
  8
0
 10
-90.9607
 20
85.7216
 11
-90.8721
 21
85.4898
  0
LINE
  8
0
 10
-90.8721
 20
85.4898
 11
-90.8181
 21
85.2475
  0
LINE
  8
0
 10
-90.8181
 20
85.2475
 11
-90.8
 21
85
  0
LINE
  8
0
 10
-90.8
 20
85
 11
-90.8181
 21
84.7525
  0
LINE
  8
0
 10
-90.8181
 20
84.7525
 11
-90.8721
 21
84.5102
  0
LINE
  8
0
 10
-90.8721
 20
84.5102
 11
-90.9607
 21
84.2784
  0
LINE
  8
0
 10
-90.9607
 20
84.2784
 11
-91.0822
 21
84.062
  0
LINE
  8
0
 10
-91.0822
 20
84.062
 11
-91.2339
 21
83.8656
  0
LINE
  8
0
 10
-91.2339
 20
83.8656
 11
-91.4126
 21
83.6933
  0
LINE
  8
0
 10
-91.4126
 20
83.6933
 11
-91.6144
 21
83.5489
  0
LINE
  8
0
 10
-91.6144
 20
83.5489
 11
-91.8351
 21
83.4354
  0
LINE
  8
0
 10
-91.8351
 20
83.4354
 11
-92.07
 21
83.3553
  0
LINE
  8
0
 10
-92.07
 20
83.3553
 11
-92.3141
 21
83.3102
  0
LINE
  8
0
 10
-92.3141
 20
83.3102
 11
-92.5621
 21
83.3011
  0
LINE
  8
0
 10
-92.5621
 20
83.3011
 11
-92.8088
 21
83.3283
  0
LINE
  8
0
 10
92.1912
 20
83.3283
 11
91.9511
 21
83.3911
  0
LINE
  8
0
 10
91.9511
 20
83.3911
 11
91.7227
 21
83.4881
  0
LINE
  8
0
 10
91.7227
 20
83.4881
 11
91.5108
 21
83.6174
  0
LINE
  8
0
 10
91.5108
 20
83.6174
 11
91.3201
 21
83.7762
  0
LINE
  8
0
 10
91.3201
 20
83.7762
 11
91.1544
 21
83.961
  0
LINE
  8
0
 10
91.1544
 20
83.961
 11
91.0175
 21
84.168
  0
LINE
  8
0
 10
91.0175
 20
84.168
 11
90.9122
 21
84.3927
  0
LINE
  8
0
 10
90.9122
 20
84.3927
 11
90.8407
 21
84.6304
  0
LINE
  8
0
 10
90.8407
 20
84.6304
 11
90.8045
 21
84.8759
  0
LINE
  8
0
 10
90.8045
 20
84.8759
 11
90.8045
 21
85.1241
  0
LINE
  8
0
 10
90.8045
 20
85.1241
 11
90.8407
 21
85.3696
  0
LINE
  8
0
 10
90.8407
 20
85.3696
 11
90.9122
 21
85.6073
  0
LINE
  8
0
 10
90.9122
 20
85.6073
 11
91.0175
 21
85.832
  0
LINE
  8
0
 10
91.0175
 20
85.832
 11
91.1544
 21
86.039
  0
LINE
  8
0
 10
91.1544
 20
86.039
 11
91.3201
 21
86.2238
  0
LINE
  8
0
 10
91.3201
 20
86.2238
 11
91.5108
 21
86.3826
  0
LINE
  8
0
 10
91.5108
 20
86.3826
 11
91.7227
 21
86.5119
  0
LINE
  8
0
 10
91.7227
 20
86.5119
 11
91.9511
 21
86.6089
  0
LINE
  8
0
 10
91.9511
 20
86.6089
 11
92.1912
 21
86.6717
  0
LINE
  8
0
 10
92.1912
 20
86.6717
 11
92.4379
 21
86.6989
  0
LINE
  8
0
 10
92.4379
 20
86.6989
 11
92.6859
 21
86.6898
  0
LINE
  8
0
 10
92.6859
 20
86.6898
 11
92.93
 21
86.6447
  0
LINE
  8
0
 10
92.93
 20
86.6447
 11
93.1649
 21
86.5646
  0
LINE
  8
0
 10
93.1649
 20
86.5646
 11
93.3856
 21
86.4511
  0
LINE
  8
0
 10
93.3856
 20
86.4511
 11
93.5874
 21
86.3067
  0
LINE
  8
0
 10
93.5874
 20
86.3067
 11
93.7661
 21
86.1344
  0
LINE
  8
0
 10
93.7661
 20
86.1344
 11
93.9178
 21
85.938
  0
LINE
  8
0
 10
93.9178
 20
85.938
 11
94.0393
 21
85.7216
  0
LINE
  8
0
 10
94.0393
 20
85.7216
 11
94.1279
 21
85.4898
  0
LINE
  8
0
 10
94.1279
 20
85.4898
 11
94.1819
 21
85.2475
  0
LINE
  8
0
 10
94.1819
 20
85.2475
 11
94.2
 21
85
  0
LINE
  8
0
 10
94.2
 20
85
 11
94.1819
 21
84.7525
  0
LINE
  8
0
 10
94.1819
 20
84.7525
 11
94.1279
 21
84.5102
  0
LINE
  8
0
 10
94.1279
 20
84.5102
 11
94.0393
 21
84.2784
  0
LINE
  8
0
 10
94.0393
 20
84.2784
 11
93.9178
 21
84.062
  0
LINE
  8
0
 10
93.9178
 20
84.062
 11
93.7661
 21
83.8656
  0
LINE
  8
0
 10
93.7661
 20
83.8656
 11
93.5874
 21
83.6933
  0
LINE
  8
0
 10
93.5874
 20
83.6933
 11
93.3856
 21
83.5489
  0
LINE
  8
0
 10
93.3856
 20
83.5489
 11
93.1649
 21
83.4354
  0
LINE
  8
0
 10
93.1649
 20
83.4354
 11
92.93
 21
83.3553
  0
LINE
  8
0
 10
92.93
 20
83.3553
 11
92.6859
 21
83.3102
  0
LINE
  8
0
 10
92.6859
 20
83.3102
 11
92.4379
 21
83.3011
  0
LINE
  8
0
 10
92.4379
 20
83.3011
 11
92.1912
 21
83.3283
  0
LINE
  8
0
 10
-227.686
 20
40.8102
 11
-227.93
 21
40.8553
  0
LINE
  8
0
 10
-227.93
 20
40.8553
 11
-228.165
 21
40.9354
  0
LINE
  8
0
 10
-228.165
 20
40.9354
 11
-228.386
 21
41.0489
  0
LINE
  8
0
 10
-228.386
 20
41.0489
 11
-228.587
 21
41.1933
  0
LINE
  8
0
 10
-228.587
 20
41.1933
 11
-228.766
 21
41.3656
  0
LINE
  8
0
 10
-228.766
 20
41.3656
 11
-228.918
 21
41.562
  0
LINE
  8
0
 10
-228.918
 20
41.562
 11
-229.039
 21
41.7784
  0
LINE
  8
0
 10
-229.039
 20
41.7784
 11
-229.128
 21
42.0102
  0
LINE
  8
0
 10
-229.128
 20
42.0102
 11
-229.182
 21
42.2525
  0
LINE
  8
0
 10
-229.182
 20
42.2525
 11
-229.2
 21
42.5
  0
LINE
  8
0
 10
-229.2
 20
42.5
 11
-229.182
 21
42.7475
  0
LINE
  8
0
 10
-229.182
 20
42.7475
 11
-229.128
 21
42.9898
  0
LINE
  8
0
 10
-229.128
 20
42.9898
 11
-229.039
 21
43.2216
  0
LINE
  8
0
 10
-229.039
 20
43.2216
 11
-228.918
 21
43.438
  0
LINE
  8
0
 10
-228.918
 20
43.438
 11
-228.766
 21
43.6344
  0
LINE
  8
0
 10
-228.766
 20
43.6344
 11
-228.587
 21
43.8067
  0
LINE
  8
0
 10
-228.587
 20
43.8067
 11
-228.386
 21
43.9511
  0
LINE
  8
0
 10
-228.386
 20
43.9511
 11
-228.165
 21
44.0646
  0
LINE
  8
0
 10
-228.165
 20
44.0646
 11
-227.93
 21
44.1447
  0
LINE
  8
0
 10
-227.93
 20
44.1447
 11
-227.686
 21
44.1898
  0
LINE
  8
0
 10
-227.686
 20
44.1898
 11
-227.438
 21
44.1989
  0
LINE
  8
0
 10
-227.438
 20
44.1989
 11
-227.191
 21
44.1717
  0
LINE
  8
0
 10
-227.191
 20
44.1717
 11
-226.951
 21
44.1089
  0
LINE
  8
0
 10
-226.951
 20
44.1089
 11
-226.723
 21
44.0119
  0
LINE
  8
0
 10
-226.723
 20
44.0119
 11
-226.511
 21
43.8826
  0
LINE
  8
0
 10
-226.511
 20
43.8826
 11
-226.32
 21
43.7238
  0
LINE
  8
0
 10
-226.32
 20
43.7238
 11
-226.154
 21
43.539
  0
LINE
  8
0
 10
-226.154
 20
43.539
 11
-226.018
 21
43.332
  0
LINE
  8
0
 10
-226.018
 20
43.332
 11
-225.912
 21
43.1073
  0
LINE
  8
0
 10
-225.912
 20
43.1073
 11
-225.841
 21
42.8696
  0
LINE
  8
0
 10
-225.841
 20
42.8696
 11
-225.805
 21
42.6241
  0
LINE
  8
0
 10
-225.805
 20
42.6241
 11
-225.805
 21
42.3759
  0
LINE
  8
0
 10
-225.805
 20
42.3759
 11
-225.841
 21
42.1304
  0
LINE
  8
0
 10
-225.841
 20
42.1304
 11
-225.912
 21
41.8927
  0
LINE
  8
0
 10
-225.912
 20
41.8927
 11
-226.018
 21
41.668
  0
LINE
  8
0
 10
-226.018
 20
41.668
 11
-226.154
 21
41.461
  0
LINE
  8
0
 10
-226.154
 20
41.461
 11
-226.32
 21
41.2762
  0
LINE
  8
0
 10
-226.32
 20
41.2762
 11
-226.511
 21
41.1174
  0
LINE
  8
0
 10
-226.511
 20
41.1174
 11
-226.723
 21
40.9881
  0
LINE
  8
0
 10
-226.723
 20
40.9881
 11
-226.951
 21
40.8911
  0
LINE
  8
0
 10
-226.951
 20
40.8911
 11
-227.191
 21
40.8283
  0
LINE
  8
0
 10
-227.191
 20
40.8283
 11
-227.438
 21
40.8011
  0
LINE
  8
0
 10
-227.438
 20
40.8011
 11
-227.686
 21
40.8102
  0
LINE
  8
0
 10
227.191
 20
40.8283
 11
226.951
 21
40.8911
  0
LINE
  8
0
 10
226.951
 20
40.8911
 11
226.723
 21
40.9881
  0
LINE
  8
0
 10
226.723
 20
40.9881
 11
226.511
 21
41.1174
  0
LINE
  8
0
 10
226.511
 20
41.1174
 11
226.32
 21
41.2762
  0
LINE
  8
0
 10
226.32
 20
41.2762
 11
226.154
 21
41.461
  0
LINE
  8
0
 10
226.154
 20
41.461
 11
226.018
 21
41.668
  0
LINE
  8
0
 10
226.018
 20
41.668
 11
225.912
 21
41.8927
  0
LINE
  8
0
 10
225.912
 20
41.8927
 11
225.841
 21
42.1304
  0
LINE
  8
0
 10
225.841
 20
42.1304
 11
225.805
 21
42.3759
  0
LINE
  8
0
 10
225.805
 20
42.3759
 11
225.805
 21
42.6241
  0
LINE
  8
0
 10
225.805
 20
42.6241
 11
225.841
 21
42.8696
  0
LINE
  8
0
 10
225.841
 20
42.8696
 11
225.912
 21
43.1073
  0
LINE
  8
0
 10
225.912
 20
43.1073
 11
226.018
 21
43.332
  0
LINE
  8
0
 10
226.018
 20
43.332
 11
226.154
 21
43.539
  0
LINE
  8
0
 10
226.154
 20
43.539
 11
226.32
 21
43.7238
  0
LINE
  8
0
 10
226.32
 20
43.7238
 11
226.511
 21
43.8826
  0
LINE
  8
0
 10
226.511
 20
43.8826
 11
226.723
 21
44.0119
  0
LINE
  8
0
 10
226.723
 20
44.0119
 11
226.951
 21
44.1089
  0
LINE
  8
0
 10
226.951
 20
44.1089
 11
227.191
 21
44.1717
  0
LINE
  8
0
 10
227.191
 20
44.1717
 11
227.438
 21
44.1989
  0
LINE
  8
0
 10
227.438
 20
44.1989
 11
227.686
 21
44.1898
  0
LINE
  8
0
 10
227.686
 20
44.1898
 11
227.93
 21
44.1447
  0
LINE
  8
0
 10
227.93
 20
44.1447
 11
228.165
 21
44.0646
  0
LINE
  8
0
 10
228.165
 20
44.0646
 11
228.386
 21
43.9511
  0
LINE
  8
0
 10
228.386
 20
43.9511
 11
228.587
 21
43.8067
  0
LINE
  8
0
 10
228.587
 20
43.8067
 11
228.766
 21
43.6344
  0
LINE
  8
0
 10
228.766
 20
43.6344
 11
228.918
 21
43.438
  0
LINE
  8
0
 10
228.918
 20
43.438
 11
229.039
 21
43.2216
  0
LINE
  8
0
 10
229.039
 20
43.2216
 11
229.128
 21
42.9898
  0
LINE
  8
0
 10
229.128
 20
42.9898
 11
229.182
 21
42.7475
  0
LINE
  8
0
 10
229.182
 20
42.7475
 11
229.2
 21
42.5
  0
LINE
  8
0
 10
229.2
 20
42.5
 11
229.182
 21
42.2525
  0
LINE
  8
0
 10
229.182
 20
42.2525
 11
229.128
 21
42.0102
  0
LINE
  8
0
 10
229.128
 20
42.0102
 11
229.039
 21
41.7784
  0
LINE
  8
0
 10
229.039
 20
41.7784
 11
228.918
 21
41.562
  0
LINE
  8
0
 10
228.918
 20
41.562
 11
228.766
 21
41.3656
  0
LINE
  8
0
 10
228.766
 20
41.3656
 11
228.587
 21
41.1933
  0
LINE
  8
0
 10
228.587
 20
41.1933
 11
228.386
 21
41.0489
  0
LINE
  8
0
 10
228.386
 20
41.0489
 11
228.165
 21
40.9354
  0
LINE
  8
0
 10
228.165
 20
40.9354
 11
227.93
 21
40.8553
  0
LINE
  8
0
 10
227.93
 20
40.8553
 11
227.686
 21
40.8102
  0
LINE
  8
0
 10
227.686
 20
40.8102
 11
227.438
 21
40.8011
  0
LINE
  8
0
 10
227.438
 20
40.8011
 11
227.191
 21
40.8283
  0
LINE
  8
0
 10
227.191
 20
-59.1717
 11
226.951
 21
-59.1089
  0
LINE
  8
0
 10
226.951
 20
-59.1089
 11
226.723
 21
-59.0119
  0
LINE
  8
0
 10
226.723
 20
-59.0119
 11
226.511
 21
-58.8826
  0
LINE
  8
0
 10
226.511
 20
-58.8826
 11
226.32
 21
-58.7238
  0
LINE
  8
0
 10
226.32
 20
-58.7238
 11
226.154
 21
-58.539
  0
LINE
  8
0
 10
226.154
 20
-58.539
 11
226.018
 21
-58.332
  0
LINE
  8
0
 10
226.018
 20
-58.332
 11
225.912
 21
-58.1073
  0
LINE
  8
0
 10
225.912
 20
-58.1073
 11
225.841
 21
-57.8696
  0
LINE
  8
0
 10
225.841
 20
-57.8696
 11
225.805
 21
-57.6241
  0
LINE
  8
0
 10
225.805
 20
-57.6241
 11
225.805
 21
-57.3759
  0
LINE
  8
0
 10
225.805
 20
-57.3759
 11
225.841
 21
-57.1304
  0
LINE
  8
0
 10
225.841
 20
-57.1304
 11
225.912
 21
-56.8927
  0
LINE
  8
0
 10
225.912
 20
-56.8927
 11
226.018
 21
-56.668
  0
LINE
  8
0
 10
226.018
 20
-56.668
 11
226.154
 21
-56.461
  0
LINE
  8
0
 10
226.154
 20
-56.461
 11
226.32
 21
-56.2762
  0
LINE
  8
0
 10
226.32
 20
-56.2762
 11
226.511
 21
-56.1174
  0
LINE
  8
0
 10
226.511
 20
-56.1174
 11
226.723
 21
-55.9881
  0
LINE
  8
0
 10
226.723
 20
-55.9881
 11
226.951
 21
-55.8911
  0
LINE
  8
0
 10
226.951
 20
-55.8911
 11
227.191
 21
-55.8283
  0
LINE
  8
0
 10
227.191
 20
-55.8283
 11
227.438
 21
-55.8011
  0
LINE
  8
0
 10
227.438
 20
-55.8011
 11
227.686
 21
-55.8102
  0
LINE
  8
0
 10
227.686
 20
-55.8102
 11
227.93
 21
-55.8553
  0
LINE
  8
0
 10
227.93
 20
-55.8553
 11
228.165
 21
-55.9354
  0
LINE
  8
0
 10
228.165
 20
-55.9354
 11
228.386
 21
-56.0489
  0
LINE
  8
0
 10
228.386
 20
-56.0489
 11
228.587
 21
-56.1933
  0
LINE
  8
0
 10
228.587
 20
-56.1933
 11
228.766
 21
-56.3656
  0
LINE
  8
0
 10
228.766
 20
-56.3656
 11
228.918
 21
-56.562
  0
LINE
  8
0
 10
228.918
 20
-56.562
 11
229.039
 21
-56.7784
  0
LINE
  8
0
 10
229.039
 20
-56.7784
 11
229.128
 21
-57.0102
  0
LINE
  8
0
 10
229.128
 20
-57.0102
 11
229.182
 21
-57.2525
  0
LINE
  8
0
 10
229.182
 20
-57.2525
 11
229.2
 21
-57.5
  0
LINE
  8
0
 10
229.2
 20
-57.5
 11
229.182
 21
-57.7475
  0
LINE
  8
0
 10
229.182
 20
-57.7475
 11
229.128
 21
-57.9898
  0
LINE
  8
0
 10
229.128
 20
-57.9898
 11
229.039
 21
-58.2216
  0
LINE
  8
0
 10
229.039
 20
-58.2216
 11
228.918
 21
-58.438
  0
LINE
  8
0
 10
228.918
 20
-58.438
 11
228.766
 21
-58.6344
  0
LINE
  8
0
 10
228.766
 20
-58.6344
 11
228.587
 21
-58.8067
  0
LINE
  8
0
 10
228.587
 20
-58.8067
 11
228.386
 21
-58.9511
  0
LINE
  8
0
 10
228.386
 20
-58.9511
 11
228.165
 21
-59.0646
  0
LINE
  8
0
 10
228.165
 20
-59.0646
 11
227.93
 21
-59.1447
  0
LINE
  8
0
 10
227.93
 20
-59.1447
 11
227.686
 21
-59.1898
  0
LINE
  8
0
 10
227.686
 20
-59.1898
 11
227.438
 21
-59.1989
  0
LINE
  8
0
 10
227.438
 20
-59.1989
 11
227.191
 21
-59.1717
  0
LINE
  8
0
 10
-227.686
 20
-59.1898
 11
-227.93
 21
-59.1447
  0
LINE
  8
0
 10
-227.93
 20
-59.1447
 11
-228.165
 21
-59.0646
  0
LINE
  8
0
 10
-228.165
 20
-59.0646
 11
-228.386
 21
-58.9511
  0
LINE
  8
0
 10
-228.386
 20
-58.9511
 11
-228.587
 21
-58.8067
  0
LINE
  8
0
 10
-228.587
 20
-58.8067
 11
-228.766
 21
-58.6344
  0
LINE
  8
0
 10
-228.766
 20
-58.6344
 11
-228.918
 21
-58.438
  0
LINE
  8
0
 10
-228.918
 20
-58.438
 11
-229.039
 21
-58.2216
  0
LINE
  8
0
 10
-229.039
 20
-58.2216
 11
-229.128
 21
-57.9898
  0
LINE
  8
0
 10
-229.128
 20
-57.9898
 11
-229.182
 21
-57.7475
  0
LINE
  8
0
 10
-229.182
 20
-57.7475
 11
-229.2
 21
-57.5
  0
LINE
  8
0
 10
-229.2
 20
-57.5
 11
-229.182
 21
-57.2525
  0
LINE
  8
0
 10
-229.182
 20
-57.2525
 11
-229.128
 21
-57.0102
  0
LINE
  8
0
 10
-229.128
 20
-57.0102
 11
-229.039
 21
-56.7784
  0
LINE
  8
0
 10
-229.039
 20
-56.7784
 11
-228.918
 21
-56.562
  0
LINE
  8
0
 10
-228.918
 20
-56.562
 11
-228.766
 21
-56.3656
  0
LINE
  8
0
 10
-228.766
 20
-56.3656
 11
-228.587
 21
-56.1933
  0
LINE
  8
0
 10
-228.587
 20
-56.1933
 11
-228.386
 21
-56.0489
  0
LINE
  8
0
 10
-228.386
 20
-56.0489
 11
-228.165
 21
-55.9354
  0
LINE
  8
0
 10
-228.165
 20
-55.9354
 11
-227.93
 21
-55.8553
  0
LINE
  8
0
 10
-227.93
 20
-55.8553
 11
-227.686
 21
-55.8102
  0
LINE
  8
0
 10
-227.686
 20
-55.8102
 11
-227.438
 21
-55.8011
  0
LINE
  8
0
 10
-227.438
 20
-55.8011
 11
-227.191
 21
-55.8283
  0
LINE
  8
0
 10
-227.191
 20
-55.8283
 11
-226.951
 21
-55.8911
  0
LINE
  8
0
 10
-226.951
 20
-55.8911
 11
-226.723
 21
-55.9881
  0
LINE
  8
0
 10
-226.723
 20
-55.9881
 11
-226.511
 21
-56.1174
  0
LINE
  8
0
 10
-226.511
 20
-56.1174
 11
-226.32
 21
-56.2762
  0
LINE
  8
0
 10
-226.32
 20
-56.2762
 11
-226.154
 21
-56.461
  0
LINE
  8
0
 10
-226.154
 20
-56.461
 11
-226.018
 21
-56.668
  0
LINE
  8
0
 10
-226.018
 20
-56.668
 11
-225.912
 21
-56.8927
  0
LINE
  8
0
 10
-225.912
 20
-56.8927
 11
-225.841
 21
-57.1304
  0
LINE
  8
0
 10
-225.841
 20
-57.1304
 11
-225.805
 21
-57.3759
  0
LINE
  8
0
 10
-225.805
 20
-57.3759
 11
-225.805
 21
-57.6241
  0
LINE
  8
0
 10
-225.805
 20
-57.6241
 11
-225.841
 21
-57.8696
  0
LINE
  8
0
 10
-225.841
 20
-57.8696
 11
-225.912
 21
-58.1073
  0
LINE
  8
0
 10
-225.912
 20
-58.1073
 11
-226.018
 21
-58.332
  0
LINE
  8
0
 10
-226.018
 20
-58.332
 11
-226.154
 21
-58.539
  0
LINE
  8
0
 10
-226.154
 20
-58.539
 11
-226.32
 21
-58.7238
  0
LINE
  8
0
 10
-226.32
 20
-58.7238
 11
-226.511
 21
-58.8826
  0
LINE
  8
0
 10
-226.511
 20
-58.8826
 11
-226.723
 21
-59.0119
  0
LINE
  8
0
 10
-226.723
 20
-59.0119
 11
-226.951
 21
-59.1089
  0
LINE
  8
0
 10
-226.951
 20
-59.1089
 11
-227.191
 21
-59.1717
  0
LINE
  8
0
 10
-227.191
 20
-59.1717
 11
-227.438
 21
-59.1989
  0
LINE
  8
0
 10
-227.438
 20
-59.1989
 11
-227.686
 21
-59.1898
  0
LINE
  8
0
 10
-227.892
 20
-103.729
 11
-228.28
 21
-103.668
  0
LINE
  8
0
 10
-228.28
 20
-103.668
 11
-228.659
 21
-103.566
  0
LINE
  8
0
 10
-228.659
 20
-103.566
 11
-229.025
 21
-103.426
  0
LINE
  8
0
 10
-229.025
 20
-103.426
 11
-229.375
 21
-103.248
  0
LINE
  8
0
 10
-229.375
 20
-103.248
 11
-229.704
 21
-103.034
  0
LINE
  8
0
 10
-229.704
 20
-103.034
 11
-230.009
 21
-102.787
  0
LINE
  8
0
 10
-230.009
 20
-102.787
 11
-230.287
 21
-102.509
  0
LINE
  8
0
 10
-230.287
 20
-102.509
 11
-230.534
 21
-102.204
  0
LINE
  8
0
 10
-230.534
 20
-102.204
 11
-230.748
 21
-101.875
  0
LINE
  8
0
 10
-230.748
 20
-101.875
 11
-230.926
 21
-101.525
  0
LINE
  8
0
 10
-230.926
 20
-101.525
 11
-231.066
 21
-101.159
  0
LINE
  8
0
 10
-231.066
 20
-101.159
 11
-231.168
 21
-100.78
  0
LINE
  8
0
 10
-231.168
 20
-100.78
 11
-231.229
 21
-100.392
  0
LINE
  8
0
 10
-231.229
 20
-100.392
 11
-231.25
 21
-100
  0
LINE
  8
0
 10
-231.25
 20
-100
 11
-231.229
 21
-99.608
  0
LINE
  8
0
 10
-231.229
 20
-99.608
 11
-231.168
 21
-99.2203
  0
LINE
  8
0
 10
-231.168
 20
-99.2203
 11
-231.066
 21
-98.8412
  0
LINE
  8
0
 10
-231.066
 20
-98.8412
 11
-230.926
 21
-98.4747
  0
LINE
  8
0
 10
-230.926
 20
-98.4747
 11
-230.748
 21
-98.125
  0
LINE
  8
0
 10
-230.748
 20
-98.125
 11
-230.534
 21
-97.7958
  0
LINE
  8
0
 10
-230.534
 20
-97.7958
 11
-230.287
 21
-97.4908
  0
LINE
  8
0
 10
-230.287
 20
-97.4908
 11
-230.009
 21
-97.2132
  0
LINE
  8
0
 10
-230.009
 20
-97.2132
 11
-229.704
 21
-96.9662
  0
LINE
  8
0
 10
-229.704
 20
-96.9662
 11
-229.375
 21
-96.7524
  0
LINE
  8
0
 10
-229.375
 20
-96.7524
 11
-229.025
 21
-96.5742
  0
LINE
  8
0
 10
-229.025
 20
-96.5742
 11
-228.659
 21
-96.4335
  0
LINE
  8
0
 10
-228.659
 20
-96.4335
 11
-228.28
 21
-96.3319
  0
LINE
  8
0
 10
-228.28
 20
-96.3319
 11
-227.892
 21
-96.2705
  0
LINE
  8
0
 10
-227.892
 20
-96.2705
 11
-227.5
 21
-96.25
  0
LINE
  8
0
 10
-227.5
 20
-96.25
 11
-227.108
 21
-96.2705
  0
LINE
  8
0
 10
-227.108
 20
-96.2705
 11
-226.72
 21
-96.3319
  0
LINE
  8
0
 10
-226.72
 20
-96.3319
 11
-226.341
 21
-96.4335
  0
LINE
  8
0
 10
-226.341
 20
-96.4335
 11
-225.975
 21
-96.5742
  0
LINE
  8
0
 10
-225.975
 20
-96.5742
 11
-225.625
 21
-96.7524
  0
LINE
  8
0
 10
-225.625
 20
-96.7524
 11
-225.296
 21
-96.9662
  0
LINE
  8
0
 10
-225.296
 20
-96.9662
 11
-224.991
 21
-97.2132
  0
LINE
  8
0
 10
-224.991
 20
-97.2132
 11
-224.713
 21
-97.4908
  0
LINE
  8
0
 10
-224.713
 20
-97.4908
 11
-224.466
 21
-97.7958
  0
LINE
  8
0
 10
-224.466
 20
-97.7958
 11
-224.252
 21
-98.125
  0
LINE
  8
0
 10
-224.252
 20
-98.125
 11
-224.074
 21
-98.4747
  0
LINE
  8
0
 10
-224.074
 20
-98.4747
 11
-223.934
 21
-98.8412
  0
LINE
  8
0
 10
-223.934
 20
-98.8412
 11
-223.832
 21
-99.2203
  0
LINE
  8
0
 10
-223.832
 20
-99.2203
 11
-223.771
 21
-99.608
  0
LINE
  8
0
 10
-223.771
 20
-99.608
 11
-223.75
 21
-100
  0
LINE
  8
0
 10
-223.75
 20
-100
 11
-223.771
 21
-100.392
  0
LINE
  8
0
 10
-223.771
 20
-100.392
 11
-223.832
 21
-100.78
  0
LINE
  8
0
 10
-223.832
 20
-100.78
 11
-223.934
 21
-101.159
  0
LINE
  8
0
 10
-223.934
 20
-101.159
 11
-224.074
 21
-101.525
  0
LINE
  8
0
 10
-224.074
 20
-101.525
 11
-224.252
 21
-101.875
  0
LINE
  8
0
 10
-224.252
 20
-101.875
 11
-224.466
 21
-102.204
  0
LINE
  8
0
 10
-224.466
 20
-102.204
 11
-224.713
 21
-102.509
  0
LINE
  8
0
 10
-224.713
 20
-102.509
 11
-224.991
 21
-102.787
  0
LINE
  8
0
 10
-224.991
 20
-102.787
 11
-225.296
 21
-103.034
  0
LINE
  8
0
 10
-225.296
 20
-103.034
 11
-225.625
 21
-103.248
  0
LINE
  8
0
 10
-225.625
 20
-103.248
 11
-225.975
 21
-103.426
  0
LINE
  8
0
 10
-225.975
 20
-103.426
 11
-226.341
 21
-103.566
  0
LINE
  8
0
 10
-226.341
 20
-103.566
 11
-226.72
 21
-103.668
  0
LINE
  8
0
 10
-226.72
 20
-103.668
 11
-227.108
 21
-103.729
  0
LINE
  8
0
 10
-227.108
 20
-103.729
 11
-227.5
 21
-103.75
  0
LINE
  8
0
 10
-227.5
 20
-103.75
 11
-227.892
 21
-103.729
  0
LINE
  8
0
 10
227.108
 20
-103.729
 11
226.72
 21
-103.668
  0
LINE
  8
0
 10
226.72
 20
-103.668
 11
226.341
 21
-103.566
  0
LINE
  8
0
 10
226.341
 20
-103.566
 11
225.975
 21
-103.426
  0
LINE
  8
0
 10
225.975
 20
-103.426
 11
225.625
 21
-103.248
  0
LINE
  8
0
 10
225.625
 20
-103.248
 11
225.296
 21
-103.034
  0
LINE
  8
0
 10
225.296
 20
-103.034
 11
224.991
 21
-102.787
  0
LINE
  8
0
 10
224.991
 20
-102.787
 11
224.713
 21
-102.509
  0
LINE
  8
0
 10
224.713
 20
-102.509
 11
224.466
 21
-102.204
  0
LINE
  8
0
 10
224.466
 20
-102.204
 11
224.252
 21
-101.875
  0
LINE
  8
0
 10
224.252
 20
-101.875
 11
224.074
 21
-101.525
  0
LINE
  8
0
 10
224.074
 20
-101.525
 11
223.934
 21
-101.159
  0
LINE
  8
0
 10
223.934
 20
-101.159
 11
223.832
 21
-100.78
  0
LINE
  8
0
 10
223.832
 20
-100.78
 11
223.771
 21
-100.392
  0
LINE
  8
0
 10
223.771
 20
-100.392
 11
223.75
 21
-100
  0
LINE
  8
0
 10
223.75
 20
-100
 11
223.771
 21
-99.608
  0
LINE
  8
0
 10
223.771
 20
-99.608
 11
223.832
 21
-99.2203
  0
LINE
  8
0
 10
223.832
 20
-99.2203
 11
223.934
 21
-98.8412
  0
LINE
  8
0
 10
223.934
 20
-98.8412
 11
224.074
 21
-98.4747
  0
LINE
  8
0
 10
224.074
 20
-98.4747
 11
224.252
 21
-98.125
  0
LINE
  8
0
 10
224.252
 20
-98.125
 11
224.466
 21
-97.7958
  0
LINE
  8
0
 10
224.466
 20
-97.7958
 11
224.713
 21
-97.4908
  0
LINE
  8
0
 10
224.713
 20
-97.4908
 11
224.991
 21
-97.2132
  0
LINE
  8
0
 10
224.991
 20
-97.2132
 11
225.296
 21
-96.9662
  0
LINE
  8
0
 10
225.296
 20
-96.9662
 11
225.625
 21
-96.7524
  0
LINE
  8
0
 10
225.625
 20
-96.7524
 11
225.975
 21
-96.5742
  0
LINE
  8
0
 10
225.975
 20
-96.5742
 11
226.341
 21
-96.4335
  0
LINE
  8
0
 10
226.341
 20
-96.4335
 11
226.72
 21
-96.3319
  0
LINE
  8
0
 10
226.72
 20
-96.3319
 11
227.108
 21
-96.2705
  0
LINE
  8
0
 10
227.108
 20
-96.2705
 11
227.5
 21
-96.25
  0
LINE
  8
0
 10
227.5
 20
-96.25
 11
227.892
 21
-96.2705
  0
LINE
  8
0
 10
227.892
 20
-96.2705
 11
228.28
 21
-96.3319
  0
LINE
  8
0
 10
228.28
 20
-96.3319
 11
228.659
 21
-96.4335
  0
LINE
  8
0
 10
228.659
 20
-96.4335
 11
229.025
 21
-96.5742
  0
LINE
  8
0
 10
229.025
 20
-96.5742
 11
229.375
 21
-96.7524
  0
LINE
  8
0
 10
229.375
 20
-96.7524
 11
229.704
 21
-96.9662
  0
LINE
  8
0
 10
229.704
 20
-96.9662
 11
230.009
 21
-97.2132
  0
LINE
  8
0
 10
230.009
 20
-97.2132
 11
230.287
 21
-97.4908
  0
LINE
  8
0
 10
230.287
 20
-97.4908
 11
230.534
 21
-97.7958
  0
LINE
  8
0
 10
230.534
 20
-97.7958
 11
230.748
 21
-98.125
  0
LINE
  8
0
 10
230.748
 20
-98.125
 11
230.926
 21
-98.4747
  0
LINE
  8
0
 10
230.926
 20
-98.4747
 11
231.066
 21
-98.8412
  0
LINE
  8
0
 10
231.066
 20
-98.8412
 11
231.168
 21
-99.2203
  0
LINE
  8
0
 10
231.168
 20
-99.2203
 11
231.229
 21
-99.608
  0
LINE
  8
0
 10
231.229
 20
-99.608
 11
231.25
 21
-100
  0
LINE
  8
0
 10
231.25
 20
-100
 11
231.229
 21
-100.392
  0
LINE
  8
0
 10
231.229
 20
-100.392
 11
231.168
 21
-100.78
  0
LINE
  8
0
 10
231.168
 20
-100.78
 11
231.066
 21
-101.159
  0
LINE
  8
0
 10
231.066
 20
-101.159
 11
230.926
 21
-101.525
  0
LINE
  8
0
 10
230.926
 20
-101.525
 11
230.748
 21
-101.875
  0
LINE
  8
0
 10
230.748
 20
-101.875
 11
230.534
 21
-102.204
  0
LINE
  8
0
 10
230.534
 20
-102.204
 11
230.287
 21
-102.509
  0
LINE
  8
0
 10
230.287
 20
-102.509
 11
230.009
 21
-102.787
  0
LINE
  8
0
 10
230.009
 20
-102.787
 11
229.704
 21
-103.034
  0
LINE
  8
0
 10
229.704
 20
-103.034
 11
229.375
 21
-103.248
  0
LINE
  8
0
 10
229.375
 20
-103.248
 11
229.025
 21
-103.426
  0
LINE
  8
0
 10
229.025
 20
-103.426
 11
228.659
 21
-103.566
  0
LINE
  8
0
 10
228.659
 20
-103.566
 11
228.28
 21
-103.668
  0
LINE
  8
0
 10
228.28
 20
-103.668
 11
227.892
 21
-103.729
  0
LINE
  8
0
 10
227.892
 20
-103.729
 11
227.5
 21
-103.75
  0
LINE
  8
0
 10
227.5
 20
-103.75
 11
227.108
 21
-103.729
  0
LINE
  8
0
 10
-185.309
 20
-101.672
 11
-185.549
 21
-101.609
  0
LINE
  8
0
 10
-185.549
 20
-101.609
 11
-185.777
 21
-101.512
  0
LINE
  8
0
 10
-185.777
 20
-101.512
 11
-185.989
 21
-101.383
  0
LINE
  8
0
 10
-185.989
 20
-101.383
 11
-186.18
 21
-101.224
  0
LINE
  8
0
 10
-186.18
 20
-101.224
 11
-186.346
 21
-101.039
  0
LINE
  8
0
 10
-186.346
 20
-101.039
 11
-186.482
 21
-100.832
  0
LINE
  8
0
 10
-186.482
 20
-100.832
 11
-186.588
 21
-100.607
  0
LINE
  8
0
 10
-186.588
 20
-100.607
 11
-186.659
 21
-100.37
  0
LINE
  8
0
 10
-186.659
 20
-100.37
 11
-186.695
 21
-100.124
  0
LINE
  8
0
 10
-186.695
 20
-100.124
 11
-186.695
 21
-99.8759
  0
LINE
  8
0
 10
-186.695
 20
-99.8759
 11
-186.659
 21
-99.6304
  0
LINE
  8
0
 10
-186.659
 20
-99.6304
 11
-186.588
 21
-99.3927
  0
LINE
  8
0
 10
-186.588
 20
-99.3927
 11
-186.482
 21
-99.168
  0
LINE
  8
0
 10
-186.482
 20
-99.168
 11
-186.346
 21
-98.961
  0
LINE
  8
0
 10
-186.346
 20
-98.961
 11
-186.18
 21
-98.7762
  0
LINE
  8
0
 10
-186.18
 20
-98.7762
 11
-185.989
 21
-98.6174
  0
LINE
  8
0
 10
-185.989
 20
-98.6174
 11
-185.777
 21
-98.4881
  0
LINE
  8
0
 10
-185.777
 20
-98.4881
 11
-185.549
 21
-98.3911
  0
LINE
  8
0
 10
-185.549
 20
-98.3911
 11
-185.309
 21
-98.3283
  0
LINE
  8
0
 10
-185.309
 20
-98.3283
 11
-185.062
 21
-98.3011
  0
LINE
  8
0
 10
-185.062
 20
-98.3011
 11
-184.814
 21
-98.3102
  0
LINE
  8
0
 10
-184.814
 20
-98.3102
 11
-184.57
 21
-98.3553
  0
LINE
  8
0
 10
-184.57
 20
-98.3553
 11
-184.335
 21
-98.4354
  0
LINE
  8
0
 10
-184.335
 20
-98.4354
 11
-184.114
 21
-98.5489
  0
LINE
  8
0
 10
-184.114
 20
-98.5489
 11
-183.913
 21
-98.6933
  0
LINE
  8
0
 10
-183.913
 20
-98.6933
 11
-183.734
 21
-98.8656
  0
LINE
  8
0
 10
-183.734
 20
-98.8656
 11
-183.582
 21
-99.062
  0
LINE
  8
0
 10
-183.582
 20
-99.062
 11
-183.461
 21
-99.2784
  0
LINE
  8
0
 10
-183.461
 20
-99.2784
 11
-183.372
 21
-99.5102
  0
LINE
  8
0
 10
-183.372
 20
-99.5102
 11
-183.318
 21
-99.7525
  0
LINE
  8
0
 10
-183.318
 20
-99.7525
 11
-183.3
 21
-100
  0
LINE
  8
0
 10
-183.3
 20
-100
 11
-183.318
 21
-100.248
  0
LINE
  8
0
 10
-183.318
 20
-100.248
 11
-183.372
 21
-100.49
  0
LINE
  8
0
 10
-183.372
 20
-100.49
 11
-183.461
 21
-100.722
  0
LINE
  8
0
 10
-183.461
 20
-100.722
 11
-183.582
 21
-100.938
  0
LINE
  8
0
 10
-183.582
 20
-100.938
 11
-183.734
 21
-101.134
  0
LINE
  8
0
 10
-183.734
 20
-101.134
 11
-183.913
 21
-101.307
  0
LINE
  8
0
 10
-183.913
 20
-101.307
 11
-184.114
 21
-101.451
  0
LINE
  8
0
 10
-184.114
 20
-101.451
 11
-184.335
 21
-101.565
  0
LINE
  8
0
 10
-184.335
 20
-101.565
 11
-184.57
 21
-101.645
  0
LINE
  8
0
 10
-184.57
 20
-101.645
 11
-184.814
 21
-101.69
  0
LINE
  8
0
 10
-184.814
 20
-101.69
 11
-185.062
 21
-101.699
  0
LINE
  8
0
 10
-185.062
 20
-101.699
 11
-185.309
 21
-101.672
  0
LINE
  8
0
 10
184.691
 20
-101.672
 11
184.451
 21
-101.609
  0
LINE
  8
0
 10
184.451
 20
-101.609
 11
184.223
 21
-101.512
  0
LINE
  8
0
 10
184.223
 20
-101.512
 11
184.011
 21
-101.383
  0
LINE
  8
0
 10
184.011
 20
-101.383
 11
183.82
 21
-101.224
  0
LINE
  8
0
 10
183.82
 20
-101.224
 11
183.654
 21
-101.039
  0
LINE
  8
0
 10
183.654
 20
-101.039
 11
183.518
 21
-100.832
  0
LINE
  8
0
 10
183.518
 20
-100.832
 11
183.412
 21
-100.607
  0
LINE
  8
0
 10
183.412
 20
-100.607
 11
183.341
 21
-100.37
  0
LINE
  8
0
 10
183.341
 20
-100.37
 11
183.305
 21
-100.124
  0
LINE
  8
0
 10
183.305
 20
-100.124
 11
183.305
 21
-99.8759
  0
LINE
  8
0
 10
183.305
 20
-99.8759
 11
183.341
 21
-99.6304
  0
LINE
  8
0
 10
183.341
 20
-99.6304
 11
183.412
 21
-99.3927
  0
LINE
  8
0
 10
183.412
 20
-99.3927
 11
183.518
 21
-99.168
  0
LINE
  8
0
 10
183.518
 20
-99.168
 11
183.654
 21
-98.961
  0
LINE
  8
0
 10
183.654
 20
-98.961
 11
183.82
 21
-98.7762
  0
LINE
  8
0
 10
183.82
 20
-98.7762
 11
184.011
 21
-98.6174
  0
LINE
  8
0
 10
184.011
 20
-98.6174
 11
184.223
 21
-98.4881
  0
LINE
  8
0
 10
184.223
 20
-98.4881
 11
184.451
 21
-98.3911
  0
LINE
  8
0
 10
184.451
 20
-98.3911
 11
184.691
 21
-98.3283
  0
LINE
  8
0
 10
184.691
 20
-98.3283
 11
184.938
 21
-98.3011
  0
LINE
  8
0
 10
184.938
 20
-98.3011
 11
185.186
 21
-98.3102
  0
LINE
  8
0
 10
185.186
 20
-98.3102
 11
185.43
 21
-98.3553
  0
LINE
  8
0
 10
185.43
 20
-98.3553
 11
185.665
 21
-98.4354
  0
LINE
  8
0
 10
185.665
 20
-98.4354
 11
185.886
 21
-98.5489
  0
LINE
  8
0
 10
185.886
 20
-98.5489
 11
186.087
 21
-98.6933
  0
LINE
  8
0
 10
186.087
 20
-98.6933
 11
186.266
 21
-98.8656
  0
LINE
  8
0
 10
186.266
 20
-98.8656
 11
186.418
 21
-99.062
  0
LINE
  8
0
 10
186.418
 20
-99.062
 11
186.539
 21
-99.2784
  0
LINE
  8
0
 10
186.539
 20
-99.2784
 11
186.628
 21
-99.5102
  0
LINE
  8
0
 10
186.628
 20
-99.5102
 11
186.682
 21
-99.7525
  0
LINE
  8
0
 10
186.682
 20
-99.7525
 11
186.7
 21
-100
  0
LINE
  8
0
 10
186.7
 20
-100
 11
186.682
 21
-100.248
  0
LINE
  8
0
 10
186.682
 20
-100.248
 11
186.628
 21
-100.49
  0
LINE
  8
0
 10
186.628
 20
-100.49
 11
186.539
 21
-100.722
  0
LINE
  8
0
 10
186.539
 20
-100.722
 11
186.418
 21
-100.938
  0
LINE
  8
0
 10
186.418
 20
-100.938
 11
186.266
 21
-101.134
  0
LINE
  8
0
 10
186.266
 20
-101.134
 11
186.087
 21
-101.307
  0
LINE
  8
0
 10
186.087
 20
-101.307
 11
185.886
 21
-101.451
  0
LINE
  8
0
 10
185.886
 20
-101.451
 11
185.665
 21
-101.565
  0
LINE
  8
0
 10
185.665
 20
-101.565
 11
185.43
 21
-101.645
  0
LINE
  8
0
 10
185.43
 20
-101.645
 11
185.186
 21
-101.69
  0
LINE
  8
0
 10
185.186
 20
-101.69
 11
184.938
 21
-101.699
  0
LINE
  8
0
 10
184.938
 20
-101.699
 11
184.691
 21
-101.672
  0
LINE
  8
0
 10
92.1912
 20
-101.672
 11
91.9511
 21
-101.609
  0
LINE
  8
0
 10
91.9511
 20
-101.609
 11
91.7227
 21
-101.512
  0
LINE
  8
0
 10
91.7227
 20
-101.512
 11
91.5108
 21
-101.383
  0
LINE
  8
0
 10
91.5108
 20
-101.383
 11
91.3201
 21
-101.224
  0
LINE
  8
0
 10
91.3201
 20
-101.224
 11
91.1544
 21
-101.039
  0
LINE
  8
0
 10
91.1544
 20
-101.039
 11
91.0175
 21
-100.832
  0
LINE
  8
0
 10
91.0175
 20
-100.832
 11
90.9122
 21
-100.607
  0
LINE
  8
0
 10
90.9122
 20
-100.607
 11
90.8407
 21
-100.37
  0
LINE
  8
0
 10
90.8407
 20
-100.37
 11
90.8045
 21
-100.124
  0
LINE
  8
0
 10
90.8045
 20
-100.124
 11
90.8045
 21
-99.8759
  0
LINE
  8
0
 10
90.8045
 20
-99.8759
 11
90.8407
 21
-99.6304
  0
LINE
  8
0
 10
90.8407
 20
-99.6304
 11
90.9122
 21
-99.3927
  0
LINE
  8
0
 10
90.9122
 20
-99.3927
 11
91.0175
 21
-99.168
  0
LINE
  8
0
 10
91.0175
 20
-99.168
 11
91.1544
 21
-98.961
  0
LINE
  8
0
 10
91.1544
 20
-98.961
 11
91.3201
 21
-98.7762
  0
LINE
  8
0
 10
91.3201
 20
-98.7762
 11
91.5108
 21
-98.6174
  0
LINE
  8
0
 10
91.5108
 20
-98.6174
 11
91.7227
 21
-98.4881
  0
LINE
  8
0
 10
91.7227
 20
-98.4881
 11
91.9511
 21
-98.3911
  0
LINE
  8
0
 10
91.9511
 20
-98.3911
 11
92.1912
 21
-98.3283
  0
LINE
  8
0
 10
92.1912
 20
-98.3283
 11
92.4379
 21
-98.3011
  0
LINE
  8
0
 10
92.4379
 20
-98.3011
 11
92.6859
 21
-98.3102
  0
LINE
  8
0
 10
92.6859
 20
-98.3102
 11
92.93
 21
-98.3553
  0
LINE
  8
0
 10
92.93
 20
-98.3553
 11
93.1649
 21
-98.4354
  0
LINE
  8
0
 10
93.1649
 20
-98.4354
 11
93.3856
 21
-98.5489
  0
LINE
  8
0
 10
93.3856
 20
-98.5489
 11
93.5874
 21
-98.6933
  0
LINE
  8
0
 10
93.5874
 20
-98.6933
 11
93.7661
 21
-98.8656
  0
LINE
  8
0
 10
93.7661
 20
-98.8656
 11
93.9178
 21
-99.062
  0
LINE
  8
0
 10
93.9178
 20
-99.062
 11
94.0393
 21
-99.2784
  0
LINE
  8
0
 10
94.0393
 20
-99.2784
 11
94.1279
 21
-99.5102
  0
LINE
  8
0
 10
94.1279
 20
-99.5102
 11
94.1819
 21
-99.7525
  0
LINE
  8
0
 10
94.1819
 20
-99.7525
 11
94.2
 21
-100
  0
LINE
  8
0
 10
94.2
 20
-100
 11
94.1819
 21
-100.248
  0
LINE
  8
0
 10
94.1819
 20
-100.248
 11
94.1279
 21
-100.49
  0
LINE
  8
0
 10
94.1279
 20
-100.49
 11
94.0393
 21
-100.722
  0
LINE
  8
0
 10
94.0393
 20
-100.722
 11
93.9178
 21
-100.938
  0
LINE
  8
0
 10
93.9178
 20
-100.938
 11
93.7661
 21
-101.134
  0
LINE
  8
0
 10
93.7661
 20
-101.134
 11
93.5874
 21
-101.307
  0
LINE
  8
0
 10
93.5874
 20
-101.307
 11
93.3856
 21
-101.451
  0
LINE
  8
0
 10
93.3856
 20
-101.451
 11
93.1649
 21
-101.565
  0
LINE
  8
0
 10
93.1649
 20
-101.565
 11
92.93
 21
-101.645
  0
LINE
  8
0
 10
92.93
 20
-101.645
 11
92.6859
 21
-101.69
  0
LINE
  8
0
 10
92.6859
 20
-101.69
 11
92.4379
 21
-101.699
  0
LINE
  8
0
 10
92.4379
 20
-101.699
 11
92.1912
 21
-101.672
  0
LINE
  8
0
 10
-0.308777
 20
-101.672
 11
-0.548889
 21
-101.609
  0
LINE
  8
0
 10
-0.548889
 20
-101.609
 11
-0.777298
 21
-101.512
  0
LINE
  8
0
 10
-0.777298
 20
-101.512
 11
-0.989151
 21
-101.383
  0
LINE
  8
0
 10
-0.989151
 20
-101.383
 11
-1.17992
 21
-101.224
  0
LINE
  8
0
 10
-1.17992
 20
-101.224
 11
-1.34554
 21
-101.039
  0
LINE
  8
0
 10
-1.34554
 20
-101.039
 11
-1.48248
 21
-100.832
  0
LINE
  8
0
 10
-1.48248
 20
-100.832
 11
-1.58781
 21
-100.607
  0
LINE
  8
0
 10
-1.58781
 20
-100.607
 11
-1.65932
 21
-100.37
  0
LINE
  8
0
 10
-1.65932
 20
-100.37
 11
-1.69545
 21
-100.124
  0
LINE
  8
0
 10
-1.69545
 20
-100.124
 11
-1.69545
 21
-99.8759
  0
LINE
  8
0
 10
-1.69545
 20
-99.8759
 11
-1.65932
 21
-99.6304
  0
LINE
  8
0
 10
-1.65932
 20
-99.6304
 11
-1.58781
 21
-99.3927
  0
LINE
  8
0
 10
-1.58781
 20
-99.3927
 11
-1.48248
 21
-99.168
  0
LINE
  8
0
 10
-1.48248
 20
-99.168
 11
-1.34554
 21
-98.961
  0
LINE
  8
0
 10
-1.34554
 20
-98.961
 11
-1.17992
 21
-98.7762
  0
LINE
  8
0
 10
-1.17992
 20
-98.7762
 11
-0.989151
 21
-98.6174
  0
LINE
  8
0
 10
-0.989151
 20
-98.6174
 11
-0.777298
 21
-98.4881
  0
LINE
  8
0
 10
-0.777298
 20
-98.4881
 11
-0.548889
 21
-98.3911
  0
LINE
  8
0
 10
-0.548889
 20
-98.3911
 11
-0.308777
 21
-98.3283
  0
LINE
  8
0
 10
-0.308777
 20
-98.3283
 11
-0.0620728
 21
-98.3011
  0
LINE
  8
0
 10
-0.0620728
 20
-98.3011
 11
0.185928
 21
-98.3102
  0
LINE
  8
0
 10
0.185928
 20
-98.3102
 11
0.429977
 21
-98.3553
  0
LINE
  8
0
 10
0.429977
 20
-98.3553
 11
0.664871
 21
-98.4354
  0
LINE
  8
0
 10
0.664871
 20
-98.4354
 11
0.88559
 21
-98.5489
  0
LINE
  8
0
 10
0.88559
 20
-98.5489
 11
1.08743
 21
-98.6933
  0
LINE
  8
0
 10
1.08743
 20
-98.6933
 11
1.2661
 21
-98.8656
  0
LINE
  8
0
 10
1.2661
 20
-98.8656
 11
1.41779
 21
-99.062
  0
LINE
  8
0
 10
1.41779
 20
-99.062
 11
1.53926
 21
-99.2784
  0
LINE
  8
0
 10
1.53926
 20
-99.2784
 11
1.62791
 21
-99.5102
  0
LINE
  8
0
 10
1.62791
 20
-99.5102
 11
1.68187
 21
-99.7525
  0
LINE
  8
0
 10
1.68187
 20
-99.7525
 11
1.7
 21
-100
  0
LINE
  8
0
 10
1.7
 20
-100
 11
1.68187
 21
-100.248
  0
LINE
  8
0
 10
1.68187
 20
-100.248
 11
1.62791
 21
-100.49
  0
LINE
  8
0
 10
1.62791
 20
-100.49
 11
1.53926
 21
-100.722
  0
LINE
  8
0
 10
1.53926
 20
-100.722
 11
1.41779
 21
-100.938
  0
LINE
  8
0
 10
1.41779
 20
-100.938
 11
1.2661
 21
-101.134
  0
LINE
  8
0
 10
1.2661
 20
-101.134
 11
1.08743
 21
-101.307
  0
LINE
  8
0
 10
1.08743
 20
-101.307
 11
0.88559
 21
-101.451
  0
LINE
  8
0
 10
0.88559
 20
-101.451
 11
0.664871
 21
-101.565
  0
LINE
  8
0
 10
0.664871
 20
-101.565
 11
0.429977
 21
-101.645
  0
LINE
  8
0
 10
0.429977
 20
-101.645
 11
0.185928
 21
-101.69
  0
LINE
  8
0
 10
0.185928
 20
-101.69
 11
-0.0620728
 21
-101.699
  0
LINE
  8
0
 10
-0.0620728
 20
-101.699
 11
-0.308777
 21
-101.672
  0
LINE
  8
0
 10
-92.8088
 20
-101.672
 11
-93.0489
 21
-101.609
  0
LINE
  8
0
 10
-93.0489
 20
-101.609
 11
-93.2773
 21
-101.512
  0
LINE
  8
0
 10
-93.2773
 20
-101.512
 11
-93.4892
 21
-101.383
  0
LINE
  8
0
 10
-93.4892
 20
-101.383
 11
-93.6799
 21
-101.224
  0
LINE
  8
0
 10
-93.6799
 20
-101.224
 11
-93.8455
 21
-101.039
  0
LINE
  8
0
 10
-93.8455
 20
-101.039
 11
-93.9825
 21
-100.832
  0
LINE
  8
0
 10
-93.9825
 20
-100.832
 11
-94.0878
 21
-100.607
  0
LINE
  8
0
 10
-94.0878
 20
-100.607
 11
-94.1593
 21
-100.37
  0
LINE
  8
0
 10
-94.1593
 20
-100.37
 11
-94.1955
 21
-100.124
  0
LINE
  8
0
 10
-94.1955
 20
-100.124
 11
-94.1955
 21
-99.8759
  0
LINE
  8
0
 10
-94.1955
 20
-99.8759
 11
-94.1593
 21
-99.6304
  0
LINE
  8
0
 10
-94.1593
 20
-99.6304
 11
-94.0878
 21
-99.3927
  0
LINE
  8
0
 10
-94.0878
 20
-99.3927
 11
-93.9825
 21
-99.168
  0
LINE
  8
0
 10
-93.9825
 20
-99.168
 11
-93.8455
 21
-98.961
  0
LINE
  8
0
 10
-93.8455
 20
-98.961
 11
-93.6799
 21
-98.7762
  0
LINE
  8
0
 10
-93.6799
 20
-98.7762
 11
-93.4892
 21
-98.6174
  0
LINE
  8
0
 10
-93.4892
 20
-98.6174
 11
-93.2773
 21
-98.4881
  0
LINE
  8
0
 10
-93.2773
 20
-98.4881
 11
-93.0489
 21
-98.3911
  0
LINE
  8
0
 10
-93.0489
 20
-98.3911
 11
-92.8088
 21
-98.3283
  0
LINE
  8
0
 10
-92.8088
 20
-98.3283
 11
-92.5621
 21
-98.3011
  0
LINE
  8
0
 10
-92.5621
 20
-98.3011
 11
-92.3141
 21
-98.3102
  0
LINE
  8
0
 10
-92.3141
 20
-98.3102
 11
-92.07
 21
-98.3553
  0
LINE
  8
0
 10
-92.07
 20
-98.3553
 11
-91.8351
 21
-98.4354
  0
LINE
  8
0
 10
-91.8351
 20
-98.4354
 11
-91.6144
 21
-98.5489
  0
LINE
  8
0
 10
-91.6144
 20
-98.5489
 11
-91.4126
 21
-98.6933
  0
LINE
  8
0
 10
-91.4126
 20
-98.6933
 11
-91.2339
 21
-98.8656
  0
LINE
  8
0
 10
-91.2339
 20
-98.8656
 11
-91.0822
 21
-99.062
  0
LINE
  8
0
 10
-91.0822
 20
-99.062
 11
-90.9607
 21
-99.2784
  0
LINE
  8
0
 10
-90.9607
 20
-99.2784
 11
-90.8721
 21
-99.5102
  0
LINE
  8
0
 10
-90.8721
 20
-99.5102
 11
-90.8181
 21
-99.7525
  0
LINE
  8
0
 10
-90.8181
 20
-99.7525
 11
-90.8
 21
-100
  0
LINE
  8
0
 10
-90.8
 20
-100
 11
-90.8181
 21
-100.248
  0
LINE
  8
0
 10
-90.8181
 20
-100.248
 11
-90.8721
 21
-100.49
  0
LINE
  8
0
 10
-90.8721
 20
-100.49
 11
-90.9607
 21
-100.722
  0
LINE
  8
0
 10
-90.9607
 20
-100.722
 11
-91.0822
 21
-100.938
  0
LINE
  8
0
 10
-91.0822
 20
-100.938
 11
-91.2339
 21
-101.134
  0
LINE
  8
0
 10
-91.2339
 20
-101.134
 11
-91.4126
 21
-101.307
  0
LINE
  8
0
 10
-91.4126
 20
-101.307
 11
-91.6144
 21
-101.451
  0
LINE
  8
0
 10
-91.6144
 20
-101.451
 11
-91.8351
 21
-101.565
  0
LINE
  8
0
 10
-91.8351
 20
-101.565
 11
-92.07
 21
-101.645
  0
LINE
  8
0
 10
-92.07
 20
-101.645
 11
-92.3141
 21
-101.69
  0
LINE
  8
0
 10
-92.3141
 20
-101.69
 11
-92.5621
 21
-101.699
  0
LINE
  8
0
 10
-92.5621
 20
-101.699
 11
-92.8088
 21
-101.672
  0
ENDSEC
  0
SECTION
  2
OBJECTS
  0
DICTIONARY
  0
ENDSEC
  0
EOF
