  0
SECTION
  2
BLOCKS
  0
ENDSEC
  0
SECTION
  2
ENTITIES
  0
LINE
  8
0
 10
318.691
 20
-232.462
 11
318.854
 21
-232.354
  0
LINE
  8
0
 10
318.854
 20
-232.354
 11
318.962
 21
-232.191
  0
LINE
  8
0
 10
318.962
 20
-232.191
 11
319
 21
-232
  0
LINE
  8
0
 10
319
 20
-232
 11
319
 21
232
  0
LINE
  8
0
 10
319
 20
232
 11
318.962
 21
232.191
  0
LINE
  8
0
 10
318.962
 20
232.191
 11
318.854
 21
232.354
  0
LINE
  8
0
 10
318.854
 20
232.354
 11
318.691
 21
232.462
  0
LINE
  8
0
 10
318.691
 20
232.462
 11
318.5
 21
232.5
  0
LINE
  8
0
 10
318.5
 20
232.5
 11
-318.5
 21
232.5
  0
LINE
  8
0
 10
-318.5
 20
232.5
 11
-318.691
 21
232.462
  0
LINE
  8
0
 10
-318.691
 20
232.462
 11
-318.854
 21
232.354
  0
LINE
  8
0
 10
-318.854
 20
232.354
 11
-318.962
 21
232.191
  0
LINE
  8
0
 10
-318.962
 20
232.191
 11
-319
 21
232
  0
LINE
  8
0
 10
-319
 20
232
 11
-319
 21
-232
  0
LINE
  8
0
 10
-319
 20
-232
 11
-318.962
 21
-232.191
  0
LINE
  8
0
 10
-318.962
 20
-232.191
 11
-318.854
 21
-232.354
  0
LINE
  8
0
 10
-318.854
 20
-232.354
 11
-318.691
 21
-232.462
  0
LINE
  8
0
 10
-318.691
 20
-232.462
 11
-318.5
 21
-232.5
  0
LINE
  8
0
 10
-318.5
 20
-232.5
 11
318.5
 21
-232.5
  0
LINE
  8
0
 10
318.5
 20
-232.5
 11
318.691
 21
-232.462
  0
LINE
  8
0
 10
311.191
 20
223.328
 11
310.951
 21
223.391
  0
LINE
  8
0
 10
310.951
 20
223.391
 11
310.723
 21
223.488
  0
LINE
  8
0
 10
310.723
 20
223.488
 11
310.511
 21
223.617
  0
LINE
  8
0
 10
310.511
 20
223.617
 11
310.32
 21
223.776
  0
LINE
  8
0
 10
310.32
 20
223.776
 11
310.154
 21
223.961
  0
LINE
  8
0
 10
310.154
 20
223.961
 11
310.018
 21
224.168
  0
LINE
  8
0
 10
310.018
 20
224.168
 11
309.912
 21
224.393
  0
LINE
  8
0
 10
309.912
 20
224.393
 11
309.841
 21
224.63
  0
LINE
  8
0
 10
309.841
 20
224.63
 11
309.805
 21
224.876
  0
LINE
  8
0
 10
309.805
 20
224.876
 11
309.805
 21
225.124
  0
LINE
  8
0
 10
309.805
 20
225.124
 11
309.841
 21
225.37
  0
LINE
  8
0
 10
309.841
 20
225.37
 11
309.912
 21
225.607
  0
LINE
  8
0
 10
309.912
 20
225.607
 11
310.018
 21
225.832
  0
LINE
  8
0
 10
310.018
 20
225.832
 11
310.154
 21
226.039
  0
LINE
  8
0
 10
310.154
 20
226.039
 11
310.32
 21
226.224
  0
LINE
  8
0
 10
310.32
 20
226.224
 11
310.511
 21
226.383
  0
LINE
  8
0
 10
310.511
 20
226.383
 11
310.723
 21
226.512
  0
LINE
  8
0
 10
310.723
 20
226.512
 11
310.951
 21
226.609
  0
LINE
  8
0
 10
310.951
 20
226.609
 11
311.191
 21
226.672
  0
LINE
  8
0
 10
311.191
 20
226.672
 11
311.438
 21
226.699
  0
LINE
  8
0
 10
311.438
 20
226.699
 11
311.686
 21
226.69
  0
LINE
  8
0
 10
311.686
 20
226.69
 11
311.93
 21
226.645
  0
LINE
  8
0
 10
311.93
 20
226.645
 11
312.165
 21
226.565
  0
LINE
  8
0
 10
312.165
 20
226.565
 11
312.386
 21
226.451
  0
LINE
  8
0
 10
312.386
 20
226.451
 11
312.587
 21
226.307
  0
LINE
  8
0
 10
312.587
 20
226.307
 11
312.766
 21
226.134
  0
LINE
  8
0
 10
312.766
 20
226.134
 11
312.918
 21
225.938
  0
LINE
  8
0
 10
312.918
 20
225.938
 11
313.039
 21
225.722
  0
LINE
  8
0
 10
313.039
 20
225.722
 11
313.128
 21
225.49
  0
LINE
  8
0
 10
313.128
 20
225.49
 11
313.182
 21
225.248
  0
LINE
  8
0
 10
313.182
 20
225.248
 11
313.2
 21
225
  0
LINE
  8
0
 10
313.2
 20
225
 11
313.182
 21
224.752
  0
LINE
  8
0
 10
313.182
 20
224.752
 11
313.128
 21
224.51
  0
LINE
  8
0
 10
313.128
 20
224.51
 11
313.039
 21
224.278
  0
LINE
  8
0
 10
313.039
 20
224.278
 11
312.918
 21
224.062
  0
LINE
  8
0
 10
312.918
 20
224.062
 11
312.766
 21
223.866
  0
LINE
  8
0
 10
312.766
 20
223.866
 11
312.587
 21
223.693
  0
LINE
  8
0
 10
312.587
 20
223.693
 11
312.386
 21
223.549
  0
LINE
  8
0
 10
312.386
 20
223.549
 11
312.165
 21
223.435
  0
LINE
  8
0
 10
312.165
 20
223.435
 11
311.93
 21
223.355
  0
LINE
  8
0
 10
311.93
 20
223.355
 11
311.686
 21
223.31
  0
LINE
  8
0
 10
311.686
 20
223.31
 11
311.438
 21
223.301
  0
LINE
  8
0
 10
311.438
 20
223.301
 11
311.191
 21
223.328
  0
LINE
  8
0
 10
-311.686
 20
223.31
 11
-311.93
 21
223.355
  0
LINE
  8
0
 10
-311.93
 20
223.355
 11
-312.165
 21
223.435
  0
LINE
  8
0
 10
-312.165
 20
223.435
 11
-312.386
 21
223.549
  0
LINE
  8
0
 10
-312.386
 20
223.549
 11
-312.587
 21
223.693
  0
LINE
  8
0
 10
-312.587
 20
223.693
 11
-312.766
 21
223.866
  0
LINE
  8
0
 10
-312.766
 20
223.866
 11
-312.918
 21
224.062
  0
LINE
  8
0
 10
-312.918
 20
224.062
 11
-313.039
 21
224.278
  0
LINE
  8
0
 10
-313.039
 20
224.278
 11
-313.128
 21
224.51
  0
LINE
  8
0
 10
-313.128
 20
224.51
 11
-313.182
 21
224.752
  0
LINE
  8
0
 10
-313.182
 20
224.752
 11
-313.2
 21
225
  0
LINE
  8
0
 10
-313.2
 20
225
 11
-313.182
 21
225.248
  0
LINE
  8
0
 10
-313.182
 20
225.248
 11
-313.128
 21
225.49
  0
LINE
  8
0
 10
-313.128
 20
225.49
 11
-313.039
 21
225.722
  0
LINE
  8
0
 10
-313.039
 20
225.722
 11
-312.918
 21
225.938
  0
LINE
  8
0
 10
-312.918
 20
225.938
 11
-312.766
 21
226.134
  0
LINE
  8
0
 10
-312.766
 20
226.134
 11
-312.587
 21
226.307
  0
LINE
  8
0
 10
-312.587
 20
226.307
 11
-312.386
 21
226.451
  0
LINE
  8
0
 10
-312.386
 20
226.451
 11
-312.165
 21
226.565
  0
LINE
  8
0
 10
-312.165
 20
226.565
 11
-311.93
 21
226.645
  0
LINE
  8
0
 10
-311.93
 20
226.645
 11
-311.686
 21
226.69
  0
LINE
  8
0
 10
-311.686
 20
226.69
 11
-311.438
 21
226.699
  0
LINE
  8
0
 10
-311.438
 20
226.699
 11
-311.191
 21
226.672
  0
LINE
  8
0
 10
-311.191
 20
226.672
 11
-310.951
 21
226.609
  0
LINE
  8
0
 10
-310.951
 20
226.609
 11
-310.723
 21
226.512
  0
LINE
  8
0
 10
-310.723
 20
226.512
 11
-310.511
 21
226.383
  0
LINE
  8
0
 10
-310.511
 20
226.383
 11
-310.32
 21
226.224
  0
LINE
  8
0
 10
-310.32
 20
226.224
 11
-310.154
 21
226.039
  0
LINE
  8
0
 10
-310.154
 20
226.039
 11
-310.018
 21
225.832
  0
LINE
  8
0
 10
-310.018
 20
225.832
 11
-309.912
 21
225.607
  0
LINE
  8
0
 10
-309.912
 20
225.607
 11
-309.841
 21
225.37
  0
LINE
  8
0
 10
-309.841
 20
225.37
 11
-309.805
 21
225.124
  0
LINE
  8
0
 10
-309.805
 20
225.124
 11
-309.805
 21
224.876
  0
LINE
  8
0
 10
-309.805
 20
224.876
 11
-309.841
 21
224.63
  0
LINE
  8
0
 10
-309.841
 20
224.63
 11
-309.912
 21
224.393
  0
LINE
  8
0
 10
-309.912
 20
224.393
 11
-310.018
 21
224.168
  0
LINE
  8
0
 10
-310.018
 20
224.168
 11
-310.154
 21
223.961
  0
LINE
  8
0
 10
-310.154
 20
223.961
 11
-310.32
 21
223.776
  0
LINE
  8
0
 10
-310.32
 20
223.776
 11
-310.511
 21
223.617
  0
LINE
  8
0
 10
-310.511
 20
223.617
 11
-310.723
 21
223.488
  0
LINE
  8
0
 10
-310.723
 20
223.488
 11
-310.951
 21
223.391
  0
LINE
  8
0
 10
-310.951
 20
223.391
 11
-311.191
 21
223.328
  0
LINE
  8
0
 10
-311.191
 20
223.328
 11
-311.438
 21
223.301
  0
LINE
  8
0
 10
-311.438
 20
223.301
 11
-311.686
 21
223.31
  0
LINE
  8
0
 10
237.108
 20
216.271
 11
236.72
 21
216.332
  0
LINE
  8
0
 10
236.72
 20
216.332
 11
236.341
 21
216.434
  0
LINE
  8
0
 10
236.341
 20
216.434
 11
235.975
 21
216.574
  0
LINE
  8
0
 10
235.975
 20
216.574
 11
235.625
 21
216.752
  0
LINE
  8
0
 10
235.625
 20
216.752
 11
235.296
 21
216.966
  0
LINE
  8
0
 10
235.296
 20
216.966
 11
234.991
 21
217.213
  0
LINE
  8
0
 10
234.991
 20
217.213
 11
234.713
 21
217.491
  0
LINE
  8
0
 10
234.713
 20
217.491
 11
234.466
 21
217.796
  0
LINE
  8
0
 10
234.466
 20
217.796
 11
234.252
 21
218.125
  0
LINE
  8
0
 10
234.252
 20
218.125
 11
234.074
 21
218.475
  0
LINE
  8
0
 10
234.074
 20
218.475
 11
233.934
 21
218.841
  0
LINE
  8
0
 10
233.934
 20
218.841
 11
233.832
 21
219.22
  0
LINE
  8
0
 10
233.832
 20
219.22
 11
233.771
 21
219.608
  0
LINE
  8
0
 10
233.771
 20
219.608
 11
233.75
 21
220
  0
LINE
  8
0
 10
233.75
 20
220
 11
233.771
 21
220.392
  0
LINE
  8
0
 10
233.771
 20
220.392
 11
233.832
 21
220.78
  0
LINE
  8
0
 10
233.832
 20
220.78
 11
233.934
 21
221.159
  0
LINE
  8
0
 10
233.934
 20
221.159
 11
234.074
 21
221.525
  0
LINE
  8
0
 10
234.074
 20
221.525
 11
234.252
 21
221.875
  0
LINE
  8
0
 10
234.252
 20
221.875
 11
234.466
 21
222.204
  0
LINE
  8
0
 10
234.466
 20
222.204
 11
234.713
 21
222.509
  0
LINE
  8
0
 10
234.713
 20
222.509
 11
234.991
 21
222.787
  0
LINE
  8
0
 10
234.991
 20
222.787
 11
235.296
 21
223.034
  0
LINE
  8
0
 10
235.296
 20
223.034
 11
235.625
 21
223.248
  0
LINE
  8
0
 10
235.625
 20
223.248
 11
235.975
 21
223.426
  0
LINE
  8
0
 10
235.975
 20
223.426
 11
236.341
 21
223.566
  0
LINE
  8
0
 10
236.341
 20
223.566
 11
236.72
 21
223.668
  0
LINE
  8
0
 10
236.72
 20
223.668
 11
237.108
 21
223.729
  0
LINE
  8
0
 10
237.108
 20
223.729
 11
237.5
 21
223.75
  0
LINE
  8
0
 10
237.5
 20
223.75
 11
237.892
 21
223.729
  0
LINE
  8
0
 10
237.892
 20
223.729
 11
238.28
 21
223.668
  0
LINE
  8
0
 10
238.28
 20
223.668
 11
238.659
 21
223.566
  0
LINE
  8
0
 10
238.659
 20
223.566
 11
239.025
 21
223.426
  0
LINE
  8
0
 10
239.025
 20
223.426
 11
239.375
 21
223.248
  0
LINE
  8
0
 10
239.375
 20
223.248
 11
239.704
 21
223.034
  0
LINE
  8
0
 10
239.704
 20
223.034
 11
240.009
 21
222.787
  0
LINE
  8
0
 10
240.009
 20
222.787
 11
240.287
 21
222.509
  0
LINE
  8
0
 10
240.287
 20
222.509
 11
240.534
 21
222.204
  0
LINE
  8
0
 10
240.534
 20
222.204
 11
240.748
 21
221.875
  0
LINE
  8
0
 10
240.748
 20
221.875
 11
240.926
 21
221.525
  0
LINE
  8
0
 10
240.926
 20
221.525
 11
241.066
 21
221.159
  0
LINE
  8
0
 10
241.066
 20
221.159
 11
241.168
 21
220.78
  0
LINE
  8
0
 10
241.168
 20
220.78
 11
241.229
 21
220.392
  0
LINE
  8
0
 10
241.229
 20
220.392
 11
241.25
 21
220
  0
LINE
  8
0
 10
241.25
 20
220
 11
241.229
 21
219.608
  0
LINE
  8
0
 10
241.229
 20
219.608
 11
241.168
 21
219.22
  0
LINE
  8
0
 10
241.168
 20
219.22
 11
241.066
 21
218.841
  0
LINE
  8
0
 10
241.066
 20
218.841
 11
240.926
 21
218.475
  0
LINE
  8
0
 10
240.926
 20
218.475
 11
240.748
 21
218.125
  0
LINE
  8
0
 10
240.748
 20
218.125
 11
240.534
 21
217.796
  0
LINE
  8
0
 10
240.534
 20
217.796
 11
240.287
 21
217.491
  0
LINE
  8
0
 10
240.287
 20
217.491
 11
240.009
 21
217.213
  0
LINE
  8
0
 10
240.009
 20
217.213
 11
239.704
 21
216.966
  0
LINE
  8
0
 10
239.704
 20
216.966
 11
239.375
 21
216.752
  0
LINE
  8
0
 10
239.375
 20
216.752
 11
239.025
 21
216.574
  0
LINE
  8
0
 10
239.025
 20
216.574
 11
238.659
 21
216.434
  0
LINE
  8
0
 10
238.659
 20
216.434
 11
238.28
 21
216.332
  0
LINE
  8
0
 10
238.28
 20
216.332
 11
237.892
 21
216.271
  0
LINE
  8
0
 10
237.892
 20
216.271
 11
237.5
 21
216.25
  0
LINE
  8
0
 10
237.5
 20
216.25
 11
237.108
 21
216.271
  0
LINE
  8
0
 10
-237.892
 20
216.271
 11
-238.28
 21
216.332
  0
LINE
  8
0
 10
-238.28
 20
216.332
 11
-238.659
 21
216.434
  0
LINE
  8
0
 10
-238.659
 20
216.434
 11
-239.025
 21
216.574
  0
LINE
  8
0
 10
-239.025
 20
216.574
 11
-239.375
 21
216.752
  0
LINE
  8
0
 10
-239.375
 20
216.752
 11
-239.704
 21
216.966
  0
LINE
  8
0
 10
-239.704
 20
216.966
 11
-240.009
 21
217.213
  0
LINE
  8
0
 10
-240.009
 20
217.213
 11
-240.287
 21
217.491
  0
LINE
  8
0
 10
-240.287
 20
217.491
 11
-240.534
 21
217.796
  0
LINE
  8
0
 10
-240.534
 20
217.796
 11
-240.748
 21
218.125
  0
LINE
  8
0
 10
-240.748
 20
218.125
 11
-240.926
 21
218.475
  0
LINE
  8
0
 10
-240.926
 20
218.475
 11
-241.066
 21
218.841
  0
LINE
  8
0
 10
-241.066
 20
218.841
 11
-241.168
 21
219.22
  0
LINE
  8
0
 10
-241.168
 20
219.22
 11
-241.229
 21
219.608
  0
LINE
  8
0
 10
-241.229
 20
219.608
 11
-241.25
 21
220
  0
LINE
  8
0
 10
-241.25
 20
220
 11
-241.229
 21
220.392
  0
LINE
  8
0
 10
-241.229
 20
220.392
 11
-241.168
 21
220.78
  0
LINE
  8
0
 10
-241.168
 20
220.78
 11
-241.066
 21
221.159
  0
LINE
  8
0
 10
-241.066
 20
221.159
 11
-240.926
 21
221.525
  0
LINE
  8
0
 10
-240.926
 20
221.525
 11
-240.748
 21
221.875
  0
LINE
  8
0
 10
-240.748
 20
221.875
 11
-240.534
 21
222.204
  0
LINE
  8
0
 10
-240.534
 20
222.204
 11
-240.287
 21
222.509
  0
LINE
  8
0
 10
-240.287
 20
222.509
 11
-240.009
 21
222.787
  0
LINE
  8
0
 10
-240.009
 20
222.787
 11
-239.704
 21
223.034
  0
LINE
  8
0
 10
-239.704
 20
223.034
 11
-239.375
 21
223.248
  0
LINE
  8
0
 10
-239.375
 20
223.248
 11
-239.025
 21
223.426
  0
LINE
  8
0
 10
-239.025
 20
223.426
 11
-238.659
 21
223.566
  0
LINE
  8
0
 10
-238.659
 20
223.566
 11
-238.28
 21
223.668
  0
LINE
  8
0
 10
-238.28
 20
223.668
 11
-237.892
 21
223.729
  0
LINE
  8
0
 10
-237.892
 20
223.729
 11
-237.5
 21
223.75
  0
LINE
  8
0
 10
-237.5
 20
223.75
 11
-237.108
 21
223.729
  0
LINE
  8
0
 10
-237.108
 20
223.729
 11
-236.72
 21
223.668
  0
LINE
  8
0
 10
-236.72
 20
223.668
 11
-236.341
 21
223.566
  0
LINE
  8
0
 10
-236.341
 20
223.566
 11
-235.975
 21
223.426
  0
LINE
  8
0
 10
-235.975
 20
223.426
 11
-235.625
 21
223.248
  0
LINE
  8
0
 10
-235.625
 20
223.248
 11
-235.296
 21
223.034
  0
LINE
  8
0
 10
-235.296
 20
223.034
 11
-234.991
 21
222.787
  0
LINE
  8
0
 10
-234.991
 20
222.787
 11
-234.713
 21
222.509
  0
LINE
  8
0
 10
-234.713
 20
222.509
 11
-234.466
 21
222.204
  0
LINE
  8
0
 10
-234.466
 20
222.204
 11
-234.252
 21
221.875
  0
LINE
  8
0
 10
-234.252
 20
221.875
 11
-234.074
 21
221.525
  0
LINE
  8
0
 10
-234.074
 20
221.525
 11
-233.934
 21
221.159
  0
LINE
  8
0
 10
-233.934
 20
221.159
 11
-233.832
 21
220.78
  0
LINE
  8
0
 10
-233.832
 20
220.78
 11
-233.771
 21
220.392
  0
LINE
  8
0
 10
-233.771
 20
220.392
 11
-233.75
 21
220
  0
LINE
  8
0
 10
-233.75
 20
220
 11
-233.771
 21
219.608
  0
LINE
  8
0
 10
-233.771
 20
219.608
 11
-233.832
 21
219.22
  0
LINE
  8
0
 10
-233.832
 20
219.22
 11
-233.934
 21
218.841
  0
LINE
  8
0
 10
-233.934
 20
218.841
 11
-234.074
 21
218.475
  0
LINE
  8
0
 10
-234.074
 20
218.475
 11
-234.252
 21
218.125
  0
LINE
  8
0
 10
-234.252
 20
218.125
 11
-234.466
 21
217.796
  0
LINE
  8
0
 10
-234.466
 20
217.796
 11
-234.713
 21
217.491
  0
LINE
  8
0
 10
-234.713
 20
217.491
 11
-234.991
 21
217.213
  0
LINE
  8
0
 10
-234.991
 20
217.213
 11
-235.296
 21
216.966
  0
LINE
  8
0
 10
-235.296
 20
216.966
 11
-235.625
 21
216.752
  0
LINE
  8
0
 10
-235.625
 20
216.752
 11
-235.975
 21
216.574
  0
LINE
  8
0
 10
-235.975
 20
216.574
 11
-236.341
 21
216.434
  0
LINE
  8
0
 10
-236.341
 20
216.434
 11
-236.72
 21
216.332
  0
LINE
  8
0
 10
-236.72
 20
216.332
 11
-237.108
 21
216.271
  0
LINE
  8
0
 10
-237.108
 20
216.271
 11
-237.5
 21
216.25
  0
LINE
  8
0
 10
-237.5
 20
216.25
 11
-237.892
 21
216.271
  0
LINE
  8
0
 10
257.827
 20
219.355
 11
257.583
 21
219.391
  0
LINE
  8
0
 10
257.583
 20
219.391
 11
257.347
 21
219.464
  0
LINE
  8
0
 10
257.347
 20
219.464
 11
257.125
 21
219.571
  0
LINE
  8
0
 10
257.125
 20
219.571
 11
256.921
 21
219.71
  0
LINE
  8
0
 10
256.921
 20
219.71
 11
256.74
 21
219.878
  0
LINE
  8
0
 10
256.74
 20
219.878
 11
256.587
 21
220.071
  0
LINE
  8
0
 10
256.587
 20
220.071
 11
256.463
 21
220.284
  0
LINE
  8
0
 10
256.463
 20
220.284
 11
256.373
 21
220.514
  0
LINE
  8
0
 10
256.373
 20
220.514
 11
256.318
 21
220.754
  0
LINE
  8
0
 10
256.318
 20
220.754
 11
256.3
 21
221
  0
LINE
  8
0
 10
256.3
 20
221
 11
256.318
 21
221.246
  0
LINE
  8
0
 10
256.318
 20
221.246
 11
256.373
 21
221.486
  0
LINE
  8
0
 10
256.373
 20
221.486
 11
256.463
 21
221.716
  0
LINE
  8
0
 10
256.463
 20
221.716
 11
256.587
 21
221.929
  0
LINE
  8
0
 10
256.587
 20
221.929
 11
256.74
 21
222.122
  0
LINE
  8
0
 10
256.74
 20
222.122
 11
256.921
 21
222.29
  0
LINE
  8
0
 10
256.921
 20
222.29
 11
257.125
 21
222.429
  0
LINE
  8
0
 10
257.125
 20
222.429
 11
257.347
 21
222.536
  0
LINE
  8
0
 10
257.347
 20
222.536
 11
257.583
 21
222.609
  0
LINE
  8
0
 10
257.583
 20
222.609
 11
257.827
 21
222.645
  0
LINE
  8
0
 10
257.827
 20
222.645
 11
266.073
 21
222.645
  0
LINE
  8
0
 10
266.073
 20
222.645
 11
266.317
 21
222.609
  0
LINE
  8
0
 10
266.317
 20
222.609
 11
266.553
 21
222.536
  0
LINE
  8
0
 10
266.553
 20
222.536
 11
266.775
 21
222.429
  0
LINE
  8
0
 10
266.775
 20
222.429
 11
266.979
 21
222.29
  0
LINE
  8
0
 10
266.979
 20
222.29
 11
267.16
 21
222.122
  0
LINE
  8
0
 10
267.16
 20
222.122
 11
267.313
 21
221.929
  0
LINE
  8
0
 10
267.313
 20
221.929
 11
267.437
 21
221.716
  0
LINE
  8
0
 10
267.437
 20
221.716
 11
267.527
 21
221.486
  0
LINE
  8
0
 10
267.527
 20
221.486
 11
267.582
 21
221.246
  0
LINE
  8
0
 10
267.582
 20
221.246
 11
267.6
 21
221
  0
LINE
  8
0
 10
267.6
 20
221
 11
267.582
 21
220.754
  0
LINE
  8
0
 10
267.582
 20
220.754
 11
267.527
 21
220.514
  0
LINE
  8
0
 10
267.527
 20
220.514
 11
267.437
 21
220.284
  0
LINE
  8
0
 10
267.437
 20
220.284
 11
267.313
 21
220.071
  0
LINE
  8
0
 10
267.313
 20
220.071
 11
267.16
 21
219.878
  0
LINE
  8
0
 10
267.16
 20
219.878
 11
266.979
 21
219.71
  0
LINE
  8
0
 10
266.979
 20
219.71
 11
266.775
 21
219.571
  0
LINE
  8
0
 10
266.775
 20
219.571
 11
266.553
 21
219.464
  0
LINE
  8
0
 10
266.553
 20
219.464
 11
266.317
 21
219.391
  0
LINE
  8
0
 10
266.317
 20
219.391
 11
266.073
 21
219.355
  0
LINE
  8
0
 10
266.073
 20
219.355
 11
257.827
 21
219.355
  0
LINE
  8
0
 10
288.827
 20
219.355
 11
288.583
 21
219.391
  0
LINE
  8
0
 10
288.583
 20
219.391
 11
288.347
 21
219.464
  0
LINE
  8
0
 10
288.347
 20
219.464
 11
288.125
 21
219.571
  0
LINE
  8
0
 10
288.125
 20
219.571
 11
287.921
 21
219.71
  0
LINE
  8
0
 10
287.921
 20
219.71
 11
287.74
 21
219.878
  0
LINE
  8
0
 10
287.74
 20
219.878
 11
287.587
 21
220.071
  0
LINE
  8
0
 10
287.587
 20
220.071
 11
287.463
 21
220.284
  0
LINE
  8
0
 10
287.463
 20
220.284
 11
287.373
 21
220.514
  0
LINE
  8
0
 10
287.373
 20
220.514
 11
287.318
 21
220.754
  0
LINE
  8
0
 10
287.318
 20
220.754
 11
287.3
 21
221
  0
LINE
  8
0
 10
287.3
 20
221
 11
287.318
 21
221.246
  0
LINE
  8
0
 10
287.318
 20
221.246
 11
287.373
 21
221.486
  0
LINE
  8
0
 10
287.373
 20
221.486
 11
287.463
 21
221.716
  0
LINE
  8
0
 10
287.463
 20
221.716
 11
287.587
 21
221.929
  0
LINE
  8
0
 10
287.587
 20
221.929
 11
287.74
 21
222.122
  0
LINE
  8
0
 10
287.74
 20
222.122
 11
287.921
 21
222.29
  0
LINE
  8
0
 10
287.921
 20
222.29
 11
288.125
 21
222.429
  0
LINE
  8
0
 10
288.125
 20
222.429
 11
288.347
 21
222.536
  0
LINE
  8
0
 10
288.347
 20
222.536
 11
288.583
 21
222.609
  0
LINE
  8
0
 10
288.583
 20
222.609
 11
288.827
 21
222.645
  0
LINE
  8
0
 10
288.827
 20
222.645
 11
297.073
 21
222.645
  0
LINE
  8
0
 10
297.073
 20
222.645
 11
297.317
 21
222.609
  0
LINE
  8
0
 10
297.317
 20
222.609
 11
297.553
 21
222.536
  0
LINE
  8
0
 10
297.553
 20
222.536
 11
297.775
 21
222.429
  0
LINE
  8
0
 10
297.775
 20
222.429
 11
297.979
 21
222.29
  0
LINE
  8
0
 10
297.979
 20
222.29
 11
298.16
 21
222.122
  0
LINE
  8
0
 10
298.16
 20
222.122
 11
298.313
 21
221.929
  0
LINE
  8
0
 10
298.313
 20
221.929
 11
298.437
 21
221.716
  0
LINE
  8
0
 10
298.437
 20
221.716
 11
298.527
 21
221.486
  0
LINE
  8
0
 10
298.527
 20
221.486
 11
298.582
 21
221.246
  0
LINE
  8
0
 10
298.582
 20
221.246
 11
298.6
 21
221
  0
LINE
  8
0
 10
298.6
 20
221
 11
298.582
 21
220.754
  0
LINE
  8
0
 10
298.582
 20
220.754
 11
298.527
 21
220.514
  0
LINE
  8
0
 10
298.527
 20
220.514
 11
298.437
 21
220.284
  0
LINE
  8
0
 10
298.437
 20
220.284
 11
298.313
 21
220.071
  0
LINE
  8
0
 10
298.313
 20
220.071
 11
298.16
 21
219.878
  0
LINE
  8
0
 10
298.16
 20
219.878
 11
297.979
 21
219.71
  0
LINE
  8
0
 10
297.979
 20
219.71
 11
297.775
 21
219.571
  0
LINE
  8
0
 10
297.775
 20
219.571
 11
297.553
 21
219.464
  0
LINE
  8
0
 10
297.553
 20
219.464
 11
297.317
 21
219.391
  0
LINE
  8
0
 10
297.317
 20
219.391
 11
297.073
 21
219.355
  0
LINE
  8
0
 10
297.073
 20
219.355
 11
288.827
 21
219.355
  0
LINE
  8
0
 10
-219.5
 20
218.25
 11
-219.749
 21
218.268
  0
LINE
  8
0
 10
-219.749
 20
218.268
 11
-219.993
 21
218.321
  0
LINE
  8
0
 10
-219.993
 20
218.321
 11
-220.227
 21
218.408
  0
LINE
  8
0
 10
-220.227
 20
218.408
 11
-220.446
 21
218.528
  0
LINE
  8
0
 10
-220.446
 20
218.528
 11
-220.646
 21
218.677
  0
LINE
  8
0
 10
-220.646
 20
218.677
 11
-220.823
 21
218.854
  0
LINE
  8
0
 10
-220.823
 20
218.854
 11
-220.972
 21
219.054
  0
LINE
  8
0
 10
-220.972
 20
219.054
 11
-221.092
 21
219.273
  0
LINE
  8
0
 10
-221.092
 20
219.273
 11
-221.179
 21
219.507
  0
LINE
  8
0
 10
-221.179
 20
219.507
 11
-221.232
 21
219.751
  0
LINE
  8
0
 10
-221.232
 20
219.751
 11
-221.25
 21
220
  0
LINE
  8
0
 10
-221.25
 20
220
 11
-221.232
 21
220.249
  0
LINE
  8
0
 10
-221.232
 20
220.249
 11
-221.179
 21
220.493
  0
LINE
  8
0
 10
-221.179
 20
220.493
 11
-221.092
 21
220.727
  0
LINE
  8
0
 10
-221.092
 20
220.727
 11
-220.972
 21
220.946
  0
LINE
  8
0
 10
-220.972
 20
220.946
 11
-220.823
 21
221.146
  0
LINE
  8
0
 10
-220.823
 20
221.146
 11
-220.646
 21
221.323
  0
LINE
  8
0
 10
-220.646
 20
221.323
 11
-220.446
 21
221.472
  0
LINE
  8
0
 10
-220.446
 20
221.472
 11
-220.227
 21
221.592
  0
LINE
  8
0
 10
-220.227
 20
221.592
 11
-219.993
 21
221.679
  0
LINE
  8
0
 10
-219.993
 20
221.679
 11
-219.749
 21
221.732
  0
LINE
  8
0
 10
-219.749
 20
221.732
 11
-219.5
 21
221.75
  0
LINE
  8
0
 10
-219.5
 20
221.75
 11
-119.5
 21
221.75
  0
LINE
  8
0
 10
-119.5
 20
221.75
 11
-119.251
 21
221.732
  0
LINE
  8
0
 10
-119.251
 20
221.732
 11
-119.007
 21
221.679
  0
LINE
  8
0
 10
-119.007
 20
221.679
 11
-118.773
 21
221.592
  0
LINE
  8
0
 10
-118.773
 20
221.592
 11
-118.554
 21
221.472
  0
LINE
  8
0
 10
-118.554
 20
221.472
 11
-118.354
 21
221.323
  0
LINE
  8
0
 10
-118.354
 20
221.323
 11
-118.177
 21
221.146
  0
LINE
  8
0
 10
-118.177
 20
221.146
 11
-118.028
 21
220.946
  0
LINE
  8
0
 10
-118.028
 20
220.946
 11
-117.908
 21
220.727
  0
LINE
  8
0
 10
-117.908
 20
220.727
 11
-117.821
 21
220.493
  0
LINE
  8
0
 10
-117.821
 20
220.493
 11
-117.768
 21
220.249
  0
LINE
  8
0
 10
-117.768
 20
220.249
 11
-117.75
 21
220
  0
LINE
  8
0
 10
-117.75
 20
220
 11
-117.768
 21
219.751
  0
LINE
  8
0
 10
-117.768
 20
219.751
 11
-117.821
 21
219.507
  0
LINE
  8
0
 10
-117.821
 20
219.507
 11
-117.908
 21
219.273
  0
LINE
  8
0
 10
-117.908
 20
219.273
 11
-118.028
 21
219.054
  0
LINE
  8
0
 10
-118.028
 20
219.054
 11
-118.177
 21
218.854
  0
LINE
  8
0
 10
-118.177
 20
218.854
 11
-118.354
 21
218.677
  0
LINE
  8
0
 10
-118.354
 20
218.677
 11
-118.554
 21
218.528
  0
LINE
  8
0
 10
-118.554
 20
218.528
 11
-118.773
 21
218.408
  0
LINE
  8
0
 10
-118.773
 20
218.408
 11
-119.007
 21
218.321
  0
LINE
  8
0
 10
-119.007
 20
218.321
 11
-119.251
 21
218.268
  0
LINE
  8
0
 10
-119.251
 20
218.268
 11
-119.5
 21
218.25
  0
LINE
  8
0
 10
-119.5
 20
218.25
 11
-219.5
 21
218.25
  0
LINE
  8
0
 10
-106.5
 20
218.25
 11
-106.749
 21
218.268
  0
LINE
  8
0
 10
-106.749
 20
218.268
 11
-106.993
 21
218.321
  0
LINE
  8
0
 10
-106.993
 20
218.321
 11
-107.227
 21
218.408
  0
LINE
  8
0
 10
-107.227
 20
218.408
 11
-107.446
 21
218.528
  0
LINE
  8
0
 10
-107.446
 20
218.528
 11
-107.646
 21
218.677
  0
LINE
  8
0
 10
-107.646
 20
218.677
 11
-107.823
 21
218.854
  0
LINE
  8
0
 10
-107.823
 20
218.854
 11
-107.972
 21
219.054
  0
LINE
  8
0
 10
-107.972
 20
219.054
 11
-108.092
 21
219.273
  0
LINE
  8
0
 10
-108.092
 20
219.273
 11
-108.179
 21
219.507
  0
LINE
  8
0
 10
-108.179
 20
219.507
 11
-108.232
 21
219.751
  0
LINE
  8
0
 10
-108.232
 20
219.751
 11
-108.25
 21
220
  0
LINE
  8
0
 10
-108.25
 20
220
 11
-108.232
 21
220.249
  0
LINE
  8
0
 10
-108.232
 20
220.249
 11
-108.179
 21
220.493
  0
LINE
  8
0
 10
-108.179
 20
220.493
 11
-108.092
 21
220.727
  0
LINE
  8
0
 10
-108.092
 20
220.727
 11
-107.972
 21
220.946
  0
LINE
  8
0
 10
-107.972
 20
220.946
 11
-107.823
 21
221.146
  0
LINE
  8
0
 10
-107.823
 20
221.146
 11
-107.646
 21
221.323
  0
LINE
  8
0
 10
-107.646
 20
221.323
 11
-107.446
 21
221.472
  0
LINE
  8
0
 10
-107.446
 20
221.472
 11
-107.227
 21
221.592
  0
LINE
  8
0
 10
-107.227
 20
221.592
 11
-106.993
 21
221.679
  0
LINE
  8
0
 10
-106.993
 20
221.679
 11
-106.749
 21
221.732
  0
LINE
  8
0
 10
-106.749
 20
221.732
 11
-106.5
 21
221.75
  0
LINE
  8
0
 10
-106.5
 20
221.75
 11
-6.5
 21
221.75
  0
LINE
  8
0
 10
-6.5
 20
221.75
 11
-6.25095
 21
221.732
  0
LINE
  8
0
 10
-6.25095
 20
221.732
 11
-6.00696
 21
221.679
  0
LINE
  8
0
 10
-6.00696
 20
221.679
 11
-5.77301
 21
221.592
  0
LINE
  8
0
 10
-5.77301
 20
221.592
 11
-5.55386
 21
221.472
  0
LINE
  8
0
 10
-5.55386
 20
221.472
 11
-5.35399
 21
221.323
  0
LINE
  8
0
 10
-5.35399
 20
221.323
 11
-5.17743
 21
221.146
  0
LINE
  8
0
 10
-5.17743
 20
221.146
 11
-5.0278
 21
220.946
  0
LINE
  8
0
 10
-5.0278
 20
220.946
 11
-4.90814
 21
220.727
  0
LINE
  8
0
 10
-4.90814
 20
220.727
 11
-4.82088
 21
220.493
  0
LINE
  8
0
 10
-4.82088
 20
220.493
 11
-4.76781
 21
220.249
  0
LINE
  8
0
 10
-4.76781
 20
220.249
 11
-4.75
 21
220
  0
LINE
  8
0
 10
-4.75
 20
220
 11
-4.76781
 21
219.751
  0
LINE
  8
0
 10
-4.76781
 20
219.751
 11
-4.82088
 21
219.507
  0
LINE
  8
0
 10
-4.82088
 20
219.507
 11
-4.90814
 21
219.273
  0
LINE
  8
0
 10
-4.90814
 20
219.273
 11
-5.0278
 21
219.054
  0
LINE
  8
0
 10
-5.0278
 20
219.054
 11
-5.17743
 21
218.854
  0
LINE
  8
0
 10
-5.17743
 20
218.854
 11
-5.35399
 21
218.677
  0
LINE
  8
0
 10
-5.35399
 20
218.677
 11
-5.55386
 21
218.528
  0
LINE
  8
0
 10
-5.55386
 20
218.528
 11
-5.77301
 21
218.408
  0
LINE
  8
0
 10
-5.77301
 20
218.408
 11
-6.00696
 21
218.321
  0
LINE
  8
0
 10
-6.00696
 20
218.321
 11
-6.25095
 21
218.268
  0
LINE
  8
0
 10
-6.25095
 20
218.268
 11
-6.5
 21
218.25
  0
LINE
  8
0
 10
-6.5
 20
218.25
 11
-106.5
 21
218.25
  0
LINE
  8
0
 10
6.5
 20
218.25
 11
6.25095
 21
218.268
  0
LINE
  8
0
 10
6.25095
 20
218.268
 11
6.00696
 21
218.321
  0
LINE
  8
0
 10
6.00696
 20
218.321
 11
5.77301
 21
218.408
  0
LINE
  8
0
 10
5.77301
 20
218.408
 11
5.55386
 21
218.528
  0
LINE
  8
0
 10
5.55386
 20
218.528
 11
5.35399
 21
218.677
  0
LINE
  8
0
 10
5.35399
 20
218.677
 11
5.17743
 21
218.854
  0
LINE
  8
0
 10
5.17743
 20
218.854
 11
5.0278
 21
219.054
  0
LINE
  8
0
 10
5.0278
 20
219.054
 11
4.90814
 21
219.273
  0
LINE
  8
0
 10
4.90814
 20
219.273
 11
4.82088
 21
219.507
  0
LINE
  8
0
 10
4.82088
 20
219.507
 11
4.76781
 21
219.751
  0
LINE
  8
0
 10
4.76781
 20
219.751
 11
4.75
 21
220
  0
LINE
  8
0
 10
4.75
 20
220
 11
4.76781
 21
220.249
  0
LINE
  8
0
 10
4.76781
 20
220.249
 11
4.82088
 21
220.493
  0
LINE
  8
0
 10
4.82088
 20
220.493
 11
4.90814
 21
220.727
  0
LINE
  8
0
 10
4.90814
 20
220.727
 11
5.0278
 21
220.946
  0
LINE
  8
0
 10
5.0278
 20
220.946
 11
5.17743
 21
221.146
  0
LINE
  8
0
 10
5.17743
 20
221.146
 11
5.35399
 21
221.323
  0
LINE
  8
0
 10
5.35399
 20
221.323
 11
5.55386
 21
221.472
  0
LINE
  8
0
 10
5.55386
 20
221.472
 11
5.77301
 21
221.592
  0
LINE
  8
0
 10
5.77301
 20
221.592
 11
6.00696
 21
221.679
  0
LINE
  8
0
 10
6.00696
 20
221.679
 11
6.25095
 21
221.732
  0
LINE
  8
0
 10
6.25095
 20
221.732
 11
6.5
 21
221.75
  0
LINE
  8
0
 10
6.5
 20
221.75
 11
106.5
 21
221.75
  0
LINE
  8
0
 10
106.5
 20
221.75
 11
106.749
 21
221.732
  0
LINE
  8
0
 10
106.749
 20
221.732
 11
106.993
 21
221.679
  0
LINE
  8
0
 10
106.993
 20
221.679
 11
107.227
 21
221.592
  0
LINE
  8
0
 10
107.227
 20
221.592
 11
107.446
 21
221.472
  0
LINE
  8
0
 10
107.446
 20
221.472
 11
107.646
 21
221.323
  0
LINE
  8
0
 10
107.646
 20
221.323
 11
107.823
 21
221.146
  0
LINE
  8
0
 10
107.823
 20
221.146
 11
107.972
 21
220.946
  0
LINE
  8
0
 10
107.972
 20
220.946
 11
108.092
 21
220.727
  0
LINE
  8
0
 10
108.092
 20
220.727
 11
108.179
 21
220.493
  0
LINE
  8
0
 10
108.179
 20
220.493
 11
108.232
 21
220.249
  0
LINE
  8
0
 10
108.232
 20
220.249
 11
108.25
 21
220
  0
LINE
  8
0
 10
108.25
 20
220
 11
108.232
 21
219.751
  0
LINE
  8
0
 10
108.232
 20
219.751
 11
108.179
 21
219.507
  0
LINE
  8
0
 10
108.179
 20
219.507
 11
108.092
 21
219.273
  0
LINE
  8
0
 10
108.092
 20
219.273
 11
107.972
 21
219.054
  0
LINE
  8
0
 10
107.972
 20
219.054
 11
107.823
 21
218.854
  0
LINE
  8
0
 10
107.823
 20
218.854
 11
107.646
 21
218.677
  0
LINE
  8
0
 10
107.646
 20
218.677
 11
107.446
 21
218.528
  0
LINE
  8
0
 10
107.446
 20
218.528
 11
107.227
 21
218.408
  0
LINE
  8
0
 10
107.227
 20
218.408
 11
106.993
 21
218.321
  0
LINE
  8
0
 10
106.993
 20
218.321
 11
106.749
 21
218.268
  0
LINE
  8
0
 10
106.749
 20
218.268
 11
106.5
 21
218.25
  0
LINE
  8
0
 10
106.5
 20
218.25
 11
6.5
 21
218.25
  0
LINE
  8
0
 10
119.5
 20
218.25
 11
119.251
 21
218.268
  0
LINE
  8
0
 10
119.251
 20
218.268
 11
119.007
 21
218.321
  0
LINE
  8
0
 10
119.007
 20
218.321
 11
118.773
 21
218.408
  0
LINE
  8
0
 10
118.773
 20
218.408
 11
118.554
 21
218.528
  0
LINE
  8
0
 10
118.554
 20
218.528
 11
118.354
 21
218.677
  0
LINE
  8
0
 10
118.354
 20
218.677
 11
118.177
 21
218.854
  0
LINE
  8
0
 10
118.177
 20
218.854
 11
118.028
 21
219.054
  0
LINE
  8
0
 10
118.028
 20
219.054
 11
117.908
 21
219.273
  0
LINE
  8
0
 10
117.908
 20
219.273
 11
117.821
 21
219.507
  0
LINE
  8
0
 10
117.821
 20
219.507
 11
117.768
 21
219.751
  0
LINE
  8
0
 10
117.768
 20
219.751
 11
117.75
 21
220
  0
LINE
  8
0
 10
117.75
 20
220
 11
117.768
 21
220.249
  0
LINE
  8
0
 10
117.768
 20
220.249
 11
117.821
 21
220.493
  0
LINE
  8
0
 10
117.821
 20
220.493
 11
117.908
 21
220.727
  0
LINE
  8
0
 10
117.908
 20
220.727
 11
118.028
 21
220.946
  0
LINE
  8
0
 10
118.028
 20
220.946
 11
118.177
 21
221.146
  0
LINE
  8
0
 10
118.177
 20
221.146
 11
118.354
 21
221.323
  0
LINE
  8
0
 10
118.354
 20
221.323
 11
118.554
 21
221.472
  0
LINE
  8
0
 10
118.554
 20
221.472
 11
118.773
 21
221.592
  0
LINE
  8
0
 10
118.773
 20
221.592
 11
119.007
 21
221.679
  0
LINE
  8
0
 10
119.007
 20
221.679
 11
119.251
 21
221.732
  0
LINE
  8
0
 10
119.251
 20
221.732
 11
119.5
 21
221.75
  0
LINE
  8
0
 10
119.5
 20
221.75
 11
219.5
 21
221.75
  0
LINE
  8
0
 10
219.5
 20
221.75
 11
219.749
 21
221.732
  0
LINE
  8
0
 10
219.749
 20
221.732
 11
219.993
 21
221.679
  0
LINE
  8
0
 10
219.993
 20
221.679
 11
220.227
 21
221.592
  0
LINE
  8
0
 10
220.227
 20
221.592
 11
220.446
 21
221.472
  0
LINE
  8
0
 10
220.446
 20
221.472
 11
220.646
 21
221.323
  0
LINE
  8
0
 10
220.646
 20
221.323
 11
220.823
 21
221.146
  0
LINE
  8
0
 10
220.823
 20
221.146
 11
220.972
 21
220.946
  0
LINE
  8
0
 10
220.972
 20
220.946
 11
221.092
 21
220.727
  0
LINE
  8
0
 10
221.092
 20
220.727
 11
221.179
 21
220.493
  0
LINE
  8
0
 10
221.179
 20
220.493
 11
221.232
 21
220.249
  0
LINE
  8
0
 10
221.232
 20
220.249
 11
221.25
 21
220
  0
LINE
  8
0
 10
221.25
 20
220
 11
221.232
 21
219.751
  0
LINE
  8
0
 10
221.232
 20
219.751
 11
221.179
 21
219.507
  0
LINE
  8
0
 10
221.179
 20
219.507
 11
221.092
 21
219.273
  0
LINE
  8
0
 10
221.092
 20
219.273
 11
220.972
 21
219.054
  0
LINE
  8
0
 10
220.972
 20
219.054
 11
220.823
 21
218.854
  0
LINE
  8
0
 10
220.823
 20
218.854
 11
220.646
 21
218.677
  0
LINE
  8
0
 10
220.646
 20
218.677
 11
220.446
 21
218.528
  0
LINE
  8
0
 10
220.446
 20
218.528
 11
220.227
 21
218.408
  0
LINE
  8
0
 10
220.227
 20
218.408
 11
219.993
 21
218.321
  0
LINE
  8
0
 10
219.993
 20
218.321
 11
219.749
 21
218.268
  0
LINE
  8
0
 10
219.749
 20
218.268
 11
219.5
 21
218.25
  0
LINE
  8
0
 10
219.5
 20
218.25
 11
119.5
 21
218.25
  0
LINE
  8
0
 10
-227.686
 20
218.31
 11
-227.93
 21
218.355
  0
LINE
  8
0
 10
-227.93
 20
218.355
 11
-228.165
 21
218.435
  0
LINE
  8
0
 10
-228.165
 20
218.435
 11
-228.386
 21
218.549
  0
LINE
  8
0
 10
-228.386
 20
218.549
 11
-228.587
 21
218.693
  0
LINE
  8
0
 10
-228.587
 20
218.693
 11
-228.766
 21
218.866
  0
LINE
  8
0
 10
-228.766
 20
218.866
 11
-228.918
 21
219.062
  0
LINE
  8
0
 10
-228.918
 20
219.062
 11
-229.039
 21
219.278
  0
LINE
  8
0
 10
-229.039
 20
219.278
 11
-229.128
 21
219.51
  0
LINE
  8
0
 10
-229.128
 20
219.51
 11
-229.182
 21
219.752
  0
LINE
  8
0
 10
-229.182
 20
219.752
 11
-229.2
 21
220
  0
LINE
  8
0
 10
-229.2
 20
220
 11
-229.182
 21
220.248
  0
LINE
  8
0
 10
-229.182
 20
220.248
 11
-229.128
 21
220.49
  0
LINE
  8
0
 10
-229.128
 20
220.49
 11
-229.039
 21
220.722
  0
LINE
  8
0
 10
-229.039
 20
220.722
 11
-228.918
 21
220.938
  0
LINE
  8
0
 10
-228.918
 20
220.938
 11
-228.766
 21
221.134
  0
LINE
  8
0
 10
-228.766
 20
221.134
 11
-228.587
 21
221.307
  0
LINE
  8
0
 10
-228.587
 20
221.307
 11
-228.386
 21
221.451
  0
LINE
  8
0
 10
-228.386
 20
221.451
 11
-228.165
 21
221.565
  0
LINE
  8
0
 10
-228.165
 20
221.565
 11
-227.93
 21
221.645
  0
LINE
  8
0
 10
-227.93
 20
221.645
 11
-227.686
 21
221.69
  0
LINE
  8
0
 10
-227.686
 20
221.69
 11
-227.438
 21
221.699
  0
LINE
  8
0
 10
-227.438
 20
221.699
 11
-227.191
 21
221.672
  0
LINE
  8
0
 10
-227.191
 20
221.672
 11
-226.951
 21
221.609
  0
LINE
  8
0
 10
-226.951
 20
221.609
 11
-226.723
 21
221.512
  0
LINE
  8
0
 10
-226.723
 20
221.512
 11
-226.511
 21
221.383
  0
LINE
  8
0
 10
-226.511
 20
221.383
 11
-226.32
 21
221.224
  0
LINE
  8
0
 10
-226.32
 20
221.224
 11
-226.154
 21
221.039
  0
LINE
  8
0
 10
-226.154
 20
221.039
 11
-226.018
 21
220.832
  0
LINE
  8
0
 10
-226.018
 20
220.832
 11
-225.912
 21
220.607
  0
LINE
  8
0
 10
-225.912
 20
220.607
 11
-225.841
 21
220.37
  0
LINE
  8
0
 10
-225.841
 20
220.37
 11
-225.805
 21
220.124
  0
LINE
  8
0
 10
-225.805
 20
220.124
 11
-225.805
 21
219.876
  0
LINE
  8
0
 10
-225.805
 20
219.876
 11
-225.841
 21
219.63
  0
LINE
  8
0
 10
-225.841
 20
219.63
 11
-225.912
 21
219.393
  0
LINE
  8
0
 10
-225.912
 20
219.393
 11
-226.018
 21
219.168
  0
LINE
  8
0
 10
-226.018
 20
219.168
 11
-226.154
 21
218.961
  0
LINE
  8
0
 10
-226.154
 20
218.961
 11
-226.32
 21
218.776
  0
LINE
  8
0
 10
-226.32
 20
218.776
 11
-226.511
 21
218.617
  0
LINE
  8
0
 10
-226.511
 20
218.617
 11
-226.723
 21
218.488
  0
LINE
  8
0
 10
-226.723
 20
218.488
 11
-226.951
 21
218.391
  0
LINE
  8
0
 10
-226.951
 20
218.391
 11
-227.191
 21
218.328
  0
LINE
  8
0
 10
-227.191
 20
218.328
 11
-227.438
 21
218.301
  0
LINE
  8
0
 10
-227.438
 20
218.301
 11
-227.686
 21
218.31
  0
LINE
  8
0
 10
227.191
 20
218.328
 11
226.951
 21
218.391
  0
LINE
  8
0
 10
226.951
 20
218.391
 11
226.723
 21
218.488
  0
LINE
  8
0
 10
226.723
 20
218.488
 11
226.511
 21
218.617
  0
LINE
  8
0
 10
226.511
 20
218.617
 11
226.32
 21
218.776
  0
LINE
  8
0
 10
226.32
 20
218.776
 11
226.154
 21
218.961
  0
LINE
  8
0
 10
226.154
 20
218.961
 11
226.018
 21
219.168
  0
LINE
  8
0
 10
226.018
 20
219.168
 11
225.912
 21
219.393
  0
LINE
  8
0
 10
225.912
 20
219.393
 11
225.841
 21
219.63
  0
LINE
  8
0
 10
225.841
 20
219.63
 11
225.805
 21
219.876
  0
LINE
  8
0
 10
225.805
 20
219.876
 11
225.805
 21
220.124
  0
LINE
  8
0
 10
225.805
 20
220.124
 11
225.841
 21
220.37
  0
LINE
  8
0
 10
225.841
 20
220.37
 11
225.912
 21
220.607
  0
LINE
  8
0
 10
225.912
 20
220.607
 11
226.018
 21
220.832
  0
LINE
  8
0
 10
226.018
 20
220.832
 11
226.154
 21
221.039
  0
LINE
  8
0
 10
226.154
 20
221.039
 11
226.32
 21
221.224
  0
LINE
  8
0
 10
226.32
 20
221.224
 11
226.511
 21
221.383
  0
LINE
  8
0
 10
226.511
 20
221.383
 11
226.723
 21
221.512
  0
LINE
  8
0
 10
226.723
 20
221.512
 11
226.951
 21
221.609
  0
LINE
  8
0
 10
226.951
 20
221.609
 11
227.191
 21
221.672
  0
LINE
  8
0
 10
227.191
 20
221.672
 11
227.438
 21
221.699
  0
LINE
  8
0
 10
227.438
 20
221.699
 11
227.686
 21
221.69
  0
LINE
  8
0
 10
227.686
 20
221.69
 11
227.93
 21
221.645
  0
LINE
  8
0
 10
227.93
 20
221.645
 11
228.165
 21
221.565
  0
LINE
  8
0
 10
228.165
 20
221.565
 11
228.386
 21
221.451
  0
LINE
  8
0
 10
228.386
 20
221.451
 11
228.587
 21
221.307
  0
LINE
  8
0
 10
228.587
 20
221.307
 11
228.766
 21
221.134
  0
LINE
  8
0
 10
228.766
 20
221.134
 11
228.918
 21
220.938
  0
LINE
  8
0
 10
228.918
 20
220.938
 11
229.039
 21
220.722
  0
LINE
  8
0
 10
229.039
 20
220.722
 11
229.128
 21
220.49
  0
LINE
  8
0
 10
229.128
 20
220.49
 11
229.182
 21
220.248
  0
LINE
  8
0
 10
229.182
 20
220.248
 11
229.2
 21
220
  0
LINE
  8
0
 10
229.2
 20
220
 11
229.182
 21
219.752
  0
LINE
  8
0
 10
229.182
 20
219.752
 11
229.128
 21
219.51
  0
LINE
  8
0
 10
229.128
 20
219.51
 11
229.039
 21
219.278
  0
LINE
  8
0
 10
229.039
 20
219.278
 11
228.918
 21
219.062
  0
LINE
  8
0
 10
228.918
 20
219.062
 11
228.766
 21
218.866
  0
LINE
  8
0
 10
228.766
 20
218.866
 11
228.587
 21
218.693
  0
LINE
  8
0
 10
228.587
 20
218.693
 11
228.386
 21
218.549
  0
LINE
  8
0
 10
228.386
 20
218.549
 11
228.165
 21
218.435
  0
LINE
  8
0
 10
228.165
 20
218.435
 11
227.93
 21
218.355
  0
LINE
  8
0
 10
227.93
 20
218.355
 11
227.686
 21
218.31
  0
LINE
  8
0
 10
227.686
 20
218.31
 11
227.438
 21
218.301
  0
LINE
  8
0
 10
227.438
 20
218.301
 11
227.191
 21
218.328
  0
LINE
  8
0
 10
272.95
 20
193
 11
271.643
 21
193.068
  0
LINE
  8
0
 10
271.643
 20
193.068
 11
270.351
 21
193.273
  0
LINE
  8
0
 10
270.351
 20
193.273
 11
269.087
 21
193.612
  0
LINE
  8
0
 10
269.087
 20
193.612
 11
267.866
 21
194.081
  0
LINE
  8
0
 10
267.866
 20
194.081
 11
266.7
 21
194.675
  0
LINE
  8
0
 10
266.7
 20
194.675
 11
265.603
 21
195.387
  0
LINE
  8
0
 10
265.603
 20
195.387
 11
264.586
 21
196.211
  0
LINE
  8
0
 10
264.586
 20
196.211
 11
263.661
 21
197.136
  0
LINE
  8
0
 10
263.661
 20
197.136
 11
262.837
 21
198.153
  0
LINE
  8
0
 10
262.837
 20
198.153
 11
262.125
 21
199.25
  0
LINE
  8
0
 10
262.125
 20
199.25
 11
261.531
 21
200.416
  0
LINE
  8
0
 10
261.531
 20
200.416
 11
261.062
 21
201.637
  0
LINE
  8
0
 10
261.062
 20
201.637
 11
260.723
 21
202.901
  0
LINE
  8
0
 10
260.723
 20
202.901
 11
260.518
 21
204.193
  0
LINE
  8
0
 10
260.518
 20
204.193
 11
260.45
 21
205.5
  0
LINE
  8
0
 10
260.45
 20
205.5
 11
260.518
 21
206.807
  0
LINE
  8
0
 10
260.518
 20
206.807
 11
260.723
 21
208.099
  0
LINE
  8
0
 10
260.723
 20
208.099
 11
261.062
 21
209.363
  0
LINE
  8
0
 10
261.062
 20
209.363
 11
261.531
 21
210.584
  0
LINE
  8
0
 10
261.531
 20
210.584
 11
262.125
 21
211.75
  0
LINE
  8
0
 10
262.125
 20
211.75
 11
262.837
 21
212.847
  0
LINE
  8
0
 10
262.837
 20
212.847
 11
263.661
 21
213.864
  0
LINE
  8
0
 10
263.661
 20
213.864
 11
264.586
 21
214.789
  0
LINE
  8
0
 10
264.586
 20
214.789
 11
265.603
 21
215.613
  0
LINE
  8
0
 10
265.603
 20
215.613
 11
266.7
 21
216.325
  0
LINE
  8
0
 10
266.7
 20
216.325
 11
267.866
 21
216.919
  0
LINE
  8
0
 10
267.866
 20
216.919
 11
269.087
 21
217.388
  0
LINE
  8
0
 10
269.087
 20
217.388
 11
270.351
 21
217.727
  0
LINE
  8
0
 10
270.351
 20
217.727
 11
271.643
 21
217.932
  0
LINE
  8
0
 10
271.643
 20
217.932
 11
272.95
 21
218
  0
LINE
  8
0
 10
272.95
 20
218
 11
280.95
 21
218
  0
LINE
  8
0
 10
280.95
 20
218
 11
282.257
 21
217.932
  0
LINE
  8
0
 10
282.257
 20
217.932
 11
283.549
 21
217.727
  0
LINE
  8
0
 10
283.549
 20
217.727
 11
284.813
 21
217.388
  0
LINE
  8
0
 10
284.813
 20
217.388
 11
286.034
 21
216.919
  0
LINE
  8
0
 10
286.034
 20
216.919
 11
287.2
 21
216.325
  0
LINE
  8
0
 10
287.2
 20
216.325
 11
288.297
 21
215.613
  0
LINE
  8
0
 10
288.297
 20
215.613
 11
289.314
 21
214.789
  0
LINE
  8
0
 10
289.314
 20
214.789
 11
290.239
 21
213.864
  0
LINE
  8
0
 10
290.239
 20
213.864
 11
291.063
 21
212.847
  0
LINE
  8
0
 10
291.063
 20
212.847
 11
291.775
 21
211.75
  0
LINE
  8
0
 10
291.775
 20
211.75
 11
292.369
 21
210.584
  0
LINE
  8
0
 10
292.369
 20
210.584
 11
292.838
 21
209.363
  0
LINE
  8
0
 10
292.838
 20
209.363
 11
293.177
 21
208.099
  0
LINE
  8
0
 10
293.177
 20
208.099
 11
293.382
 21
206.807
  0
LINE
  8
0
 10
293.382
 20
206.807
 11
293.45
 21
205.5
  0
LINE
  8
0
 10
293.45
 20
205.5
 11
293.382
 21
204.193
  0
LINE
  8
0
 10
293.382
 20
204.193
 11
293.177
 21
202.901
  0
LINE
  8
0
 10
293.177
 20
202.901
 11
292.838
 21
201.637
  0
LINE
  8
0
 10
292.838
 20
201.637
 11
292.369
 21
200.416
  0
LINE
  8
0
 10
292.369
 20
200.416
 11
291.775
 21
199.25
  0
LINE
  8
0
 10
291.775
 20
199.25
 11
291.063
 21
198.153
  0
LINE
  8
0
 10
291.063
 20
198.153
 11
290.239
 21
197.136
  0
LINE
  8
0
 10
290.239
 20
197.136
 11
289.314
 21
196.211
  0
LINE
  8
0
 10
289.314
 20
196.211
 11
288.297
 21
195.387
  0
LINE
  8
0
 10
288.297
 20
195.387
 11
287.2
 21
194.675
  0
LINE
  8
0
 10
287.2
 20
194.675
 11
286.034
 21
194.081
  0
LINE
  8
0
 10
286.034
 20
194.081
 11
284.813
 21
193.612
  0
LINE
  8
0
 10
284.813
 20
193.612
 11
283.549
 21
193.273
  0
LINE
  8
0
 10
283.549
 20
193.273
 11
282.257
 21
193.068
  0
LINE
  8
0
 10
282.257
 20
193.068
 11
280.95
 21
193
  0
LINE
  8
0
 10
280.95
 20
193
 11
272.95
 21
193
  0
LINE
  8
0
 10
-229
 20
-212.5
 11
-229.223
 21
-212.475
  0
LINE
  8
0
 10
-229.223
 20
-212.475
 11
-229.434
 21
-212.401
  0
LINE
  8
0
 10
-229.434
 20
-212.401
 11
-229.623
 21
-212.282
  0
LINE
  8
0
 10
-229.623
 20
-212.282
 11
-229.782
 21
-212.123
  0
LINE
  8
0
 10
-229.782
 20
-212.123
 11
-229.901
 21
-211.934
  0
LINE
  8
0
 10
-229.901
 20
-211.934
 11
-229.975
 21
-211.723
  0
LINE
  8
0
 10
-229.975
 20
-211.723
 11
-230
 21
-211.5
  0
LINE
  8
0
 10
-230
 20
-211.5
 11
-230
 21
211.5
  0
LINE
  8
0
 10
-230
 20
211.5
 11
-229.975
 21
211.723
  0
LINE
  8
0
 10
-229.975
 20
211.723
 11
-229.901
 21
211.934
  0
LINE
  8
0
 10
-229.901
 20
211.934
 11
-229.782
 21
212.123
  0
LINE
  8
0
 10
-229.782
 20
212.123
 11
-229.623
 21
212.282
  0
LINE
  8
0
 10
-229.623
 20
212.282
 11
-229.434
 21
212.401
  0
LINE
  8
0
 10
-229.434
 20
212.401
 11
-229.223
 21
212.475
  0
LINE
  8
0
 10
-229.223
 20
212.475
 11
-229
 21
212.5
  0
LINE
  8
0
 10
-229
 20
212.5
 11
229
 21
212.5
  0
LINE
  8
0
 10
229
 20
212.5
 11
229.223
 21
212.475
  0
LINE
  8
0
 10
229.223
 20
212.475
 11
229.434
 21
212.401
  0
LINE
  8
0
 10
229.434
 20
212.401
 11
229.623
 21
212.282
  0
LINE
  8
0
 10
229.623
 20
212.282
 11
229.782
 21
212.123
  0
LINE
  8
0
 10
229.782
 20
212.123
 11
229.901
 21
211.934
  0
LINE
  8
0
 10
229.901
 20
211.934
 11
229.975
 21
211.723
  0
LINE
  8
0
 10
229.975
 20
211.723
 11
230
 21
211.5
  0
LINE
  8
0
 10
230
 20
211.5
 11
230
 21
-211.5
  0
LINE
  8
0
 10
230
 20
-211.5
 11
229.975
 21
-211.723
  0
LINE
  8
0
 10
229.975
 20
-211.723
 11
229.901
 21
-211.934
  0
LINE
  8
0
 10
229.901
 20
-211.934
 11
229.782
 21
-212.123
  0
LINE
  8
0
 10
229.782
 20
-212.123
 11
229.623
 21
-212.282
  0
LINE
  8
0
 10
229.623
 20
-212.282
 11
229.434
 21
-212.401
  0
LINE
  8
0
 10
229.434
 20
-212.401
 11
229.223
 21
-212.475
  0
LINE
  8
0
 10
229.223
 20
-212.475
 11
229
 21
-212.5
  0
LINE
  8
0
 10
229
 20
-212.5
 11
-229
 21
-212.5
  0
LINE
  8
0
 10
-237.686
 20
208.31
 11
-237.93
 21
208.355
  0
LINE
  8
0
 10
-237.93
 20
208.355
 11
-238.165
 21
208.435
  0
LINE
  8
0
 10
-238.165
 20
208.435
 11
-238.386
 21
208.549
  0
LINE
  8
0
 10
-238.386
 20
208.549
 11
-238.587
 21
208.693
  0
LINE
  8
0
 10
-238.587
 20
208.693
 11
-238.766
 21
208.866
  0
LINE
  8
0
 10
-238.766
 20
208.866
 11
-238.918
 21
209.062
  0
LINE
  8
0
 10
-238.918
 20
209.062
 11
-239.039
 21
209.278
  0
LINE
  8
0
 10
-239.039
 20
209.278
 11
-239.128
 21
209.51
  0
LINE
  8
0
 10
-239.128
 20
209.51
 11
-239.182
 21
209.752
  0
LINE
  8
0
 10
-239.182
 20
209.752
 11
-239.2
 21
210
  0
LINE
  8
0
 10
-239.2
 20
210
 11
-239.182
 21
210.248
  0
LINE
  8
0
 10
-239.182
 20
210.248
 11
-239.128
 21
210.49
  0
LINE
  8
0
 10
-239.128
 20
210.49
 11
-239.039
 21
210.722
  0
LINE
  8
0
 10
-239.039
 20
210.722
 11
-238.918
 21
210.938
  0
LINE
  8
0
 10
-238.918
 20
210.938
 11
-238.766
 21
211.134
  0
LINE
  8
0
 10
-238.766
 20
211.134
 11
-238.587
 21
211.307
  0
LINE
  8
0
 10
-238.587
 20
211.307
 11
-238.386
 21
211.451
  0
LINE
  8
0
 10
-238.386
 20
211.451
 11
-238.165
 21
211.565
  0
LINE
  8
0
 10
-238.165
 20
211.565
 11
-237.93
 21
211.645
  0
LINE
  8
0
 10
-237.93
 20
211.645
 11
-237.686
 21
211.69
  0
LINE
  8
0
 10
-237.686
 20
211.69
 11
-237.438
 21
211.699
  0
LINE
  8
0
 10
-237.438
 20
211.699
 11
-237.191
 21
211.672
  0
LINE
  8
0
 10
-237.191
 20
211.672
 11
-236.951
 21
211.609
  0
LINE
  8
0
 10
-236.951
 20
211.609
 11
-236.723
 21
211.512
  0
LINE
  8
0
 10
-236.723
 20
211.512
 11
-236.511
 21
211.383
  0
LINE
  8
0
 10
-236.511
 20
211.383
 11
-236.32
 21
211.224
  0
LINE
  8
0
 10
-236.32
 20
211.224
 11
-236.154
 21
211.039
  0
LINE
  8
0
 10
-236.154
 20
211.039
 11
-236.018
 21
210.832
  0
LINE
  8
0
 10
-236.018
 20
210.832
 11
-235.912
 21
210.607
  0
LINE
  8
0
 10
-235.912
 20
210.607
 11
-235.841
 21
210.37
  0
LINE
  8
0
 10
-235.841
 20
210.37
 11
-235.805
 21
210.124
  0
LINE
  8
0
 10
-235.805
 20
210.124
 11
-235.805
 21
209.876
  0
LINE
  8
0
 10
-235.805
 20
209.876
 11
-235.841
 21
209.63
  0
LINE
  8
0
 10
-235.841
 20
209.63
 11
-235.912
 21
209.393
  0
LINE
  8
0
 10
-235.912
 20
209.393
 11
-236.018
 21
209.168
  0
LINE
  8
0
 10
-236.018
 20
209.168
 11
-236.154
 21
208.961
  0
LINE
  8
0
 10
-236.154
 20
208.961
 11
-236.32
 21
208.776
  0
LINE
  8
0
 10
-236.32
 20
208.776
 11
-236.511
 21
208.617
  0
LINE
  8
0
 10
-236.511
 20
208.617
 11
-236.723
 21
208.488
  0
LINE
  8
0
 10
-236.723
 20
208.488
 11
-236.951
 21
208.391
  0
LINE
  8
0
 10
-236.951
 20
208.391
 11
-237.191
 21
208.328
  0
LINE
  8
0
 10
-237.191
 20
208.328
 11
-237.438
 21
208.301
  0
LINE
  8
0
 10
-237.438
 20
208.301
 11
-237.686
 21
208.31
  0
LINE
  8
0
 10
237.191
 20
208.328
 11
236.951
 21
208.391
  0
LINE
  8
0
 10
236.951
 20
208.391
 11
236.723
 21
208.488
  0
LINE
  8
0
 10
236.723
 20
208.488
 11
236.511
 21
208.617
  0
LINE
  8
0
 10
236.511
 20
208.617
 11
236.32
 21
208.776
  0
LINE
  8
0
 10
236.32
 20
208.776
 11
236.154
 21
208.961
  0
LINE
  8
0
 10
236.154
 20
208.961
 11
236.018
 21
209.168
  0
LINE
  8
0
 10
236.018
 20
209.168
 11
235.912
 21
209.393
  0
LINE
  8
0
 10
235.912
 20
209.393
 11
235.841
 21
209.63
  0
LINE
  8
0
 10
235.841
 20
209.63
 11
235.805
 21
209.876
  0
LINE
  8
0
 10
235.805
 20
209.876
 11
235.805
 21
210.124
  0
LINE
  8
0
 10
235.805
 20
210.124
 11
235.841
 21
210.37
  0
LINE
  8
0
 10
235.841
 20
210.37
 11
235.912
 21
210.607
  0
LINE
  8
0
 10
235.912
 20
210.607
 11
236.018
 21
210.832
  0
LINE
  8
0
 10
236.018
 20
210.832
 11
236.154
 21
211.039
  0
LINE
  8
0
 10
236.154
 20
211.039
 11
236.32
 21
211.224
  0
LINE
  8
0
 10
236.32
 20
211.224
 11
236.511
 21
211.383
  0
LINE
  8
0
 10
236.511
 20
211.383
 11
236.723
 21
211.512
  0
LINE
  8
0
 10
236.723
 20
211.512
 11
236.951
 21
211.609
  0
LINE
  8
0
 10
236.951
 20
211.609
 11
237.191
 21
211.672
  0
LINE
  8
0
 10
237.191
 20
211.672
 11
237.438
 21
211.699
  0
LINE
  8
0
 10
237.438
 20
211.699
 11
237.686
 21
211.69
  0
LINE
  8
0
 10
237.686
 20
211.69
 11
237.93
 21
211.645
  0
LINE
  8
0
 10
237.93
 20
211.645
 11
238.165
 21
211.565
  0
LINE
  8
0
 10
238.165
 20
211.565
 11
238.386
 21
211.451
  0
LINE
  8
0
 10
238.386
 20
211.451
 11
238.587
 21
211.307
  0
LINE
  8
0
 10
238.587
 20
211.307
 11
238.766
 21
211.134
  0
LINE
  8
0
 10
238.766
 20
211.134
 11
238.918
 21
210.938
  0
LINE
  8
0
 10
238.918
 20
210.938
 11
239.039
 21
210.722
  0
LINE
  8
0
 10
239.039
 20
210.722
 11
239.128
 21
210.49
  0
LINE
  8
0
 10
239.128
 20
210.49
 11
239.182
 21
210.248
  0
LINE
  8
0
 10
239.182
 20
210.248
 11
239.2
 21
210
  0
LINE
  8
0
 10
239.2
 20
210
 11
239.182
 21
209.752
  0
LINE
  8
0
 10
239.182
 20
209.752
 11
239.128
 21
209.51
  0
LINE
  8
0
 10
239.128
 20
209.51
 11
239.039
 21
209.278
  0
LINE
  8
0
 10
239.039
 20
209.278
 11
238.918
 21
209.062
  0
LINE
  8
0
 10
238.918
 20
209.062
 11
238.766
 21
208.866
  0
LINE
  8
0
 10
238.766
 20
208.866
 11
238.587
 21
208.693
  0
LINE
  8
0
 10
238.587
 20
208.693
 11
238.386
 21
208.549
  0
LINE
  8
0
 10
238.386
 20
208.549
 11
238.165
 21
208.435
  0
LINE
  8
0
 10
238.165
 20
208.435
 11
237.93
 21
208.355
  0
LINE
  8
0
 10
237.93
 20
208.355
 11
237.686
 21
208.31
  0
LINE
  8
0
 10
237.686
 20
208.31
 11
237.438
 21
208.301
  0
LINE
  8
0
 10
237.438
 20
208.301
 11
237.191
 21
208.328
  0
LINE
  8
0
 10
-279.759
 20
203.828
 11
-279.999
 21
203.891
  0
LINE
  8
0
 10
-279.999
 20
203.891
 11
-280.227
 21
203.988
  0
LINE
  8
0
 10
-280.227
 20
203.988
 11
-280.439
 21
204.117
  0
LINE
  8
0
 10
-280.439
 20
204.117
 11
-280.63
 21
204.276
  0
LINE
  8
0
 10
-280.63
 20
204.276
 11
-280.796
 21
204.461
  0
LINE
  8
0
 10
-280.796
 20
204.461
 11
-280.932
 21
204.668
  0
LINE
  8
0
 10
-280.932
 20
204.668
 11
-281.038
 21
204.893
  0
LINE
  8
0
 10
-281.038
 20
204.893
 11
-281.109
 21
205.13
  0
LINE
  8
0
 10
-281.109
 20
205.13
 11
-281.145
 21
205.376
  0
LINE
  8
0
 10
-281.145
 20
205.376
 11
-281.145
 21
205.624
  0
LINE
  8
0
 10
-281.145
 20
205.624
 11
-281.109
 21
205.87
  0
LINE
  8
0
 10
-281.109
 20
205.87
 11
-281.038
 21
206.107
  0
LINE
  8
0
 10
-281.038
 20
206.107
 11
-280.932
 21
206.332
  0
LINE
  8
0
 10
-280.932
 20
206.332
 11
-280.796
 21
206.539
  0
LINE
  8
0
 10
-280.796
 20
206.539
 11
-280.63
 21
206.724
  0
LINE
  8
0
 10
-280.63
 20
206.724
 11
-280.439
 21
206.883
  0
LINE
  8
0
 10
-280.439
 20
206.883
 11
-280.227
 21
207.012
  0
LINE
  8
0
 10
-280.227
 20
207.012
 11
-279.999
 21
207.109
  0
LINE
  8
0
 10
-279.999
 20
207.109
 11
-279.759
 21
207.172
  0
LINE
  8
0
 10
-279.759
 20
207.172
 11
-279.512
 21
207.199
  0
LINE
  8
0
 10
-279.512
 20
207.199
 11
-279.264
 21
207.19
  0
LINE
  8
0
 10
-279.264
 20
207.19
 11
-279.02
 21
207.145
  0
LINE
  8
0
 10
-279.02
 20
207.145
 11
-278.785
 21
207.065
  0
LINE
  8
0
 10
-278.785
 20
207.065
 11
-278.564
 21
206.951
  0
LINE
  8
0
 10
-278.564
 20
206.951
 11
-278.363
 21
206.807
  0
LINE
  8
0
 10
-278.363
 20
206.807
 11
-278.184
 21
206.634
  0
LINE
  8
0
 10
-278.184
 20
206.634
 11
-278.032
 21
206.438
  0
LINE
  8
0
 10
-278.032
 20
206.438
 11
-277.911
 21
206.222
  0
LINE
  8
0
 10
-277.911
 20
206.222
 11
-277.822
 21
205.99
  0
LINE
  8
0
 10
-277.822
 20
205.99
 11
-277.768
 21
205.748
  0
LINE
  8
0
 10
-277.768
 20
205.748
 11
-277.75
 21
205.5
  0
LINE
  8
0
 10
-277.75
 20
205.5
 11
-277.768
 21
205.252
  0
LINE
  8
0
 10
-277.768
 20
205.252
 11
-277.822
 21
205.01
  0
LINE
  8
0
 10
-277.822
 20
205.01
 11
-277.911
 21
204.778
  0
LINE
  8
0
 10
-277.911
 20
204.778
 11
-278.032
 21
204.562
  0
LINE
  8
0
 10
-278.032
 20
204.562
 11
-278.184
 21
204.366
  0
LINE
  8
0
 10
-278.184
 20
204.366
 11
-278.363
 21
204.193
  0
LINE
  8
0
 10
-278.363
 20
204.193
 11
-278.564
 21
204.049
  0
LINE
  8
0
 10
-278.564
 20
204.049
 11
-278.785
 21
203.935
  0
LINE
  8
0
 10
-278.785
 20
203.935
 11
-279.02
 21
203.855
  0
LINE
  8
0
 10
-279.02
 20
203.855
 11
-279.264
 21
203.81
  0
LINE
  8
0
 10
-279.264
 20
203.81
 11
-279.512
 21
203.801
  0
LINE
  8
0
 10
-279.512
 20
203.801
 11
-279.759
 21
203.828
  0
LINE
  8
0
 10
-237.749
 20
108.268
 11
-237.993
 21
108.321
  0
LINE
  8
0
 10
-237.993
 20
108.321
 11
-238.227
 21
108.408
  0
LINE
  8
0
 10
-238.227
 20
108.408
 11
-238.446
 21
108.528
  0
LINE
  8
0
 10
-238.446
 20
108.528
 11
-238.646
 21
108.677
  0
LINE
  8
0
 10
-238.646
 20
108.677
 11
-238.823
 21
108.854
  0
LINE
  8
0
 10
-238.823
 20
108.854
 11
-238.972
 21
109.054
  0
LINE
  8
0
 10
-238.972
 20
109.054
 11
-239.092
 21
109.273
  0
LINE
  8
0
 10
-239.092
 20
109.273
 11
-239.179
 21
109.507
  0
LINE
  8
0
 10
-239.179
 20
109.507
 11
-239.232
 21
109.751
  0
LINE
  8
0
 10
-239.232
 20
109.751
 11
-239.25
 21
110
  0
LINE
  8
0
 10
-239.25
 20
110
 11
-239.25
 21
200
  0
LINE
  8
0
 10
-239.25
 20
200
 11
-239.232
 21
200.249
  0
LINE
  8
0
 10
-239.232
 20
200.249
 11
-239.179
 21
200.493
  0
LINE
  8
0
 10
-239.179
 20
200.493
 11
-239.092
 21
200.727
  0
LINE
  8
0
 10
-239.092
 20
200.727
 11
-238.972
 21
200.946
  0
LINE
  8
0
 10
-238.972
 20
200.946
 11
-238.823
 21
201.146
  0
LINE
  8
0
 10
-238.823
 20
201.146
 11
-238.646
 21
201.323
  0
LINE
  8
0
 10
-238.646
 20
201.323
 11
-238.446
 21
201.472
  0
LINE
  8
0
 10
-238.446
 20
201.472
 11
-238.227
 21
201.592
  0
LINE
  8
0
 10
-238.227
 20
201.592
 11
-237.993
 21
201.679
  0
LINE
  8
0
 10
-237.993
 20
201.679
 11
-237.749
 21
201.732
  0
LINE
  8
0
 10
-237.749
 20
201.732
 11
-237.5
 21
201.75
  0
LINE
  8
0
 10
-237.5
 20
201.75
 11
-237.251
 21
201.732
  0
LINE
  8
0
 10
-237.251
 20
201.732
 11
-237.007
 21
201.679
  0
LINE
  8
0
 10
-237.007
 20
201.679
 11
-236.773
 21
201.592
  0
LINE
  8
0
 10
-236.773
 20
201.592
 11
-236.554
 21
201.472
  0
LINE
  8
0
 10
-236.554
 20
201.472
 11
-236.354
 21
201.323
  0
LINE
  8
0
 10
-236.354
 20
201.323
 11
-236.177
 21
201.146
  0
LINE
  8
0
 10
-236.177
 20
201.146
 11
-236.028
 21
200.946
  0
LINE
  8
0
 10
-236.028
 20
200.946
 11
-235.908
 21
200.727
  0
LINE
  8
0
 10
-235.908
 20
200.727
 11
-235.821
 21
200.493
  0
LINE
  8
0
 10
-235.821
 20
200.493
 11
-235.768
 21
200.249
  0
LINE
  8
0
 10
-235.768
 20
200.249
 11
-235.75
 21
200
  0
LINE
  8
0
 10
-235.75
 20
200
 11
-235.75
 21
110
  0
LINE
  8
0
 10
-235.75
 20
110
 11
-235.768
 21
109.751
  0
LINE
  8
0
 10
-235.768
 20
109.751
 11
-235.821
 21
109.507
  0
LINE
  8
0
 10
-235.821
 20
109.507
 11
-235.908
 21
109.273
  0
LINE
  8
0
 10
-235.908
 20
109.273
 11
-236.028
 21
109.054
  0
LINE
  8
0
 10
-236.028
 20
109.054
 11
-236.177
 21
108.854
  0
LINE
  8
0
 10
-236.177
 20
108.854
 11
-236.354
 21
108.677
  0
LINE
  8
0
 10
-236.354
 20
108.677
 11
-236.554
 21
108.528
  0
LINE
  8
0
 10
-236.554
 20
108.528
 11
-236.773
 21
108.408
  0
LINE
  8
0
 10
-236.773
 20
108.408
 11
-237.007
 21
108.321
  0
LINE
  8
0
 10
-237.007
 20
108.321
 11
-237.251
 21
108.268
  0
LINE
  8
0
 10
-237.251
 20
108.268
 11
-237.5
 21
108.25
  0
LINE
  8
0
 10
-237.5
 20
108.25
 11
-237.749
 21
108.268
  0
LINE
  8
0
 10
237.251
 20
108.268
 11
237.007
 21
108.321
  0
LINE
  8
0
 10
237.007
 20
108.321
 11
236.773
 21
108.408
  0
LINE
  8
0
 10
236.773
 20
108.408
 11
236.554
 21
108.528
  0
LINE
  8
0
 10
236.554
 20
108.528
 11
236.354
 21
108.677
  0
LINE
  8
0
 10
236.354
 20
108.677
 11
236.177
 21
108.854
  0
LINE
  8
0
 10
236.177
 20
108.854
 11
236.028
 21
109.054
  0
LINE
  8
0
 10
236.028
 20
109.054
 11
235.908
 21
109.273
  0
LINE
  8
0
 10
235.908
 20
109.273
 11
235.821
 21
109.507
  0
LINE
  8
0
 10
235.821
 20
109.507
 11
235.768
 21
109.751
  0
LINE
  8
0
 10
235.768
 20
109.751
 11
235.75
 21
110
  0
LINE
  8
0
 10
235.75
 20
110
 11
235.75
 21
200
  0
LINE
  8
0
 10
235.75
 20
200
 11
235.768
 21
200.249
  0
LINE
  8
0
 10
235.768
 20
200.249
 11
235.821
 21
200.493
  0
LINE
  8
0
 10
235.821
 20
200.493
 11
235.908
 21
200.727
  0
LINE
  8
0
 10
235.908
 20
200.727
 11
236.028
 21
200.946
  0
LINE
  8
0
 10
236.028
 20
200.946
 11
236.177
 21
201.146
  0
LINE
  8
0
 10
236.177
 20
201.146
 11
236.354
 21
201.323
  0
LINE
  8
0
 10
236.354
 20
201.323
 11
236.554
 21
201.472
  0
LINE
  8
0
 10
236.554
 20
201.472
 11
236.773
 21
201.592
  0
LINE
  8
0
 10
236.773
 20
201.592
 11
237.007
 21
201.679
  0
LINE
  8
0
 10
237.007
 20
201.679
 11
237.251
 21
201.732
  0
LINE
  8
0
 10
237.251
 20
201.732
 11
237.5
 21
201.75
  0
LINE
  8
0
 10
237.5
 20
201.75
 11
237.749
 21
201.732
  0
LINE
  8
0
 10
237.749
 20
201.732
 11
237.993
 21
201.679
  0
LINE
  8
0
 10
237.993
 20
201.679
 11
238.227
 21
201.592
  0
LINE
  8
0
 10
238.227
 20
201.592
 11
238.446
 21
201.472
  0
LINE
  8
0
 10
238.446
 20
201.472
 11
238.646
 21
201.323
  0
LINE
  8
0
 10
238.646
 20
201.323
 11
238.823
 21
201.146
  0
LINE
  8
0
 10
238.823
 20
201.146
 11
238.972
 21
200.946
  0
LINE
  8
0
 10
238.972
 20
200.946
 11
239.092
 21
200.727
  0
LINE
  8
0
 10
239.092
 20
200.727
 11
239.179
 21
200.493
  0
LINE
  8
0
 10
239.179
 20
200.493
 11
239.232
 21
200.249
  0
LINE
  8
0
 10
239.232
 20
200.249
 11
239.25
 21
200
  0
LINE
  8
0
 10
239.25
 20
200
 11
239.25
 21
110
  0
LINE
  8
0
 10
239.25
 20
110
 11
239.232
 21
109.751
  0
LINE
  8
0
 10
239.232
 20
109.751
 11
239.179
 21
109.507
  0
LINE
  8
0
 10
239.179
 20
109.507
 11
239.092
 21
109.273
  0
LINE
  8
0
 10
239.092
 20
109.273
 11
238.972
 21
109.054
  0
LINE
  8
0
 10
238.972
 20
109.054
 11
238.823
 21
108.854
  0
LINE
  8
0
 10
238.823
 20
108.854
 11
238.646
 21
108.677
  0
LINE
  8
0
 10
238.646
 20
108.677
 11
238.446
 21
108.528
  0
LINE
  8
0
 10
238.446
 20
108.528
 11
238.227
 21
108.408
  0
LINE
  8
0
 10
238.227
 20
108.408
 11
237.993
 21
108.321
  0
LINE
  8
0
 10
237.993
 20
108.321
 11
237.749
 21
108.268
  0
LINE
  8
0
 10
237.749
 20
108.268
 11
237.5
 21
108.25
  0
LINE
  8
0
 10
237.5
 20
108.25
 11
237.251
 21
108.268
  0
LINE
  8
0
 10
-264.809
 20
192.828
 11
-265.049
 21
192.891
  0
LINE
  8
0
 10
-265.049
 20
192.891
 11
-265.277
 21
192.988
  0
LINE
  8
0
 10
-265.277
 20
192.988
 11
-265.489
 21
193.117
  0
LINE
  8
0
 10
-265.489
 20
193.117
 11
-265.68
 21
193.276
  0
LINE
  8
0
 10
-265.68
 20
193.276
 11
-265.846
 21
193.461
  0
LINE
  8
0
 10
-265.846
 20
193.461
 11
-265.982
 21
193.668
  0
LINE
  8
0
 10
-265.982
 20
193.668
 11
-266.088
 21
193.893
  0
LINE
  8
0
 10
-266.088
 20
193.893
 11
-266.159
 21
194.13
  0
LINE
  8
0
 10
-266.159
 20
194.13
 11
-266.195
 21
194.376
  0
LINE
  8
0
 10
-266.195
 20
194.376
 11
-266.195
 21
194.624
  0
LINE
  8
0
 10
-266.195
 20
194.624
 11
-266.159
 21
194.87
  0
LINE
  8
0
 10
-266.159
 20
194.87
 11
-266.088
 21
195.107
  0
LINE
  8
0
 10
-266.088
 20
195.107
 11
-265.982
 21
195.332
  0
LINE
  8
0
 10
-265.982
 20
195.332
 11
-265.846
 21
195.539
  0
LINE
  8
0
 10
-265.846
 20
195.539
 11
-265.68
 21
195.724
  0
LINE
  8
0
 10
-265.68
 20
195.724
 11
-265.489
 21
195.883
  0
LINE
  8
0
 10
-265.489
 20
195.883
 11
-265.277
 21
196.012
  0
LINE
  8
0
 10
-265.277
 20
196.012
 11
-265.049
 21
196.109
  0
LINE
  8
0
 10
-265.049
 20
196.109
 11
-264.809
 21
196.172
  0
LINE
  8
0
 10
-264.809
 20
196.172
 11
-264.562
 21
196.199
  0
LINE
  8
0
 10
-264.562
 20
196.199
 11
-264.314
 21
196.19
  0
LINE
  8
0
 10
-264.314
 20
196.19
 11
-264.07
 21
196.145
  0
LINE
  8
0
 10
-264.07
 20
196.145
 11
-263.835
 21
196.065
  0
LINE
  8
0
 10
-263.835
 20
196.065
 11
-263.614
 21
195.951
  0
LINE
  8
0
 10
-263.614
 20
195.951
 11
-263.413
 21
195.807
  0
LINE
  8
0
 10
-263.413
 20
195.807
 11
-263.234
 21
195.634
  0
LINE
  8
0
 10
-263.234
 20
195.634
 11
-263.082
 21
195.438
  0
LINE
  8
0
 10
-263.082
 20
195.438
 11
-262.961
 21
195.222
  0
LINE
  8
0
 10
-262.961
 20
195.222
 11
-262.872
 21
194.99
  0
LINE
  8
0
 10
-262.872
 20
194.99
 11
-262.818
 21
194.748
  0
LINE
  8
0
 10
-262.818
 20
194.748
 11
-262.8
 21
194.5
  0
LINE
  8
0
 10
-262.8
 20
194.5
 11
-262.818
 21
194.252
  0
LINE
  8
0
 10
-262.818
 20
194.252
 11
-262.872
 21
194.01
  0
LINE
  8
0
 10
-262.872
 20
194.01
 11
-262.961
 21
193.778
  0
LINE
  8
0
 10
-262.961
 20
193.778
 11
-263.082
 21
193.562
  0
LINE
  8
0
 10
-263.082
 20
193.562
 11
-263.234
 21
193.366
  0
LINE
  8
0
 10
-263.234
 20
193.366
 11
-263.413
 21
193.193
  0
LINE
  8
0
 10
-263.413
 20
193.193
 11
-263.614
 21
193.049
  0
LINE
  8
0
 10
-263.614
 20
193.049
 11
-263.835
 21
192.935
  0
LINE
  8
0
 10
-263.835
 20
192.935
 11
-264.07
 21
192.855
  0
LINE
  8
0
 10
-264.07
 20
192.855
 11
-264.314
 21
192.81
  0
LINE
  8
0
 10
-264.314
 20
192.81
 11
-264.562
 21
192.801
  0
LINE
  8
0
 10
-264.562
 20
192.801
 11
-264.809
 21
192.828
  0
LINE
  8
0
 10
257.827
 20
188.355
 11
257.583
 21
188.391
  0
LINE
  8
0
 10
257.583
 20
188.391
 11
257.347
 21
188.464
  0
LINE
  8
0
 10
257.347
 20
188.464
 11
257.125
 21
188.571
  0
LINE
  8
0
 10
257.125
 20
188.571
 11
256.921
 21
188.71
  0
LINE
  8
0
 10
256.921
 20
188.71
 11
256.74
 21
188.878
  0
LINE
  8
0
 10
256.74
 20
188.878
 11
256.587
 21
189.071
  0
LINE
  8
0
 10
256.587
 20
189.071
 11
256.463
 21
189.284
  0
LINE
  8
0
 10
256.463
 20
189.284
 11
256.373
 21
189.514
  0
LINE
  8
0
 10
256.373
 20
189.514
 11
256.318
 21
189.754
  0
LINE
  8
0
 10
256.318
 20
189.754
 11
256.3
 21
190
  0
LINE
  8
0
 10
256.3
 20
190
 11
256.318
 21
190.246
  0
LINE
  8
0
 10
256.318
 20
190.246
 11
256.373
 21
190.486
  0
LINE
  8
0
 10
256.373
 20
190.486
 11
256.463
 21
190.716
  0
LINE
  8
0
 10
256.463
 20
190.716
 11
256.587
 21
190.929
  0
LINE
  8
0
 10
256.587
 20
190.929
 11
256.74
 21
191.122
  0
LINE
  8
0
 10
256.74
 20
191.122
 11
256.921
 21
191.29
  0
LINE
  8
0
 10
256.921
 20
191.29
 11
257.125
 21
191.429
  0
LINE
  8
0
 10
257.125
 20
191.429
 11
257.347
 21
191.536
  0
LINE
  8
0
 10
257.347
 20
191.536
 11
257.583
 21
191.609
  0
LINE
  8
0
 10
257.583
 20
191.609
 11
257.827
 21
191.645
  0
LINE
  8
0
 10
257.827
 20
191.645
 11
266.073
 21
191.645
  0
LINE
  8
0
 10
266.073
 20
191.645
 11
266.317
 21
191.609
  0
LINE
  8
0
 10
266.317
 20
191.609
 11
266.553
 21
191.536
  0
LINE
  8
0
 10
266.553
 20
191.536
 11
266.775
 21
191.429
  0
LINE
  8
0
 10
266.775
 20
191.429
 11
266.979
 21
191.29
  0
LINE
  8
0
 10
266.979
 20
191.29
 11
267.16
 21
191.122
  0
LINE
  8
0
 10
267.16
 20
191.122
 11
267.313
 21
190.929
  0
LINE
  8
0
 10
267.313
 20
190.929
 11
267.437
 21
190.716
  0
LINE
  8
0
 10
267.437
 20
190.716
 11
267.527
 21
190.486
  0
LINE
  8
0
 10
267.527
 20
190.486
 11
267.582
 21
190.246
  0
LINE
  8
0
 10
267.582
 20
190.246
 11
267.6
 21
190
  0
LINE
  8
0
 10
267.6
 20
190
 11
267.582
 21
189.754
  0
LINE
  8
0
 10
267.582
 20
189.754
 11
267.527
 21
189.514
  0
LINE
  8
0
 10
267.527
 20
189.514
 11
267.437
 21
189.284
  0
LINE
  8
0
 10
267.437
 20
189.284
 11
267.313
 21
189.071
  0
LINE
  8
0
 10
267.313
 20
189.071
 11
267.16
 21
188.878
  0
LINE
  8
0
 10
267.16
 20
188.878
 11
266.979
 21
188.71
  0
LINE
  8
0
 10
266.979
 20
188.71
 11
266.775
 21
188.571
  0
LINE
  8
0
 10
266.775
 20
188.571
 11
266.553
 21
188.464
  0
LINE
  8
0
 10
266.553
 20
188.464
 11
266.317
 21
188.391
  0
LINE
  8
0
 10
266.317
 20
188.391
 11
266.073
 21
188.355
  0
LINE
  8
0
 10
266.073
 20
188.355
 11
257.827
 21
188.355
  0
LINE
  8
0
 10
288.827
 20
188.355
 11
288.583
 21
188.391
  0
LINE
  8
0
 10
288.583
 20
188.391
 11
288.347
 21
188.464
  0
LINE
  8
0
 10
288.347
 20
188.464
 11
288.125
 21
188.571
  0
LINE
  8
0
 10
288.125
 20
188.571
 11
287.921
 21
188.71
  0
LINE
  8
0
 10
287.921
 20
188.71
 11
287.74
 21
188.878
  0
LINE
  8
0
 10
287.74
 20
188.878
 11
287.587
 21
189.071
  0
LINE
  8
0
 10
287.587
 20
189.071
 11
287.463
 21
189.284
  0
LINE
  8
0
 10
287.463
 20
189.284
 11
287.373
 21
189.514
  0
LINE
  8
0
 10
287.373
 20
189.514
 11
287.318
 21
189.754
  0
LINE
  8
0
 10
287.318
 20
189.754
 11
287.3
 21
190
  0
LINE
  8
0
 10
287.3
 20
190
 11
287.318
 21
190.246
  0
LINE
  8
0
 10
287.318
 20
190.246
 11
287.373
 21
190.486
  0
LINE
  8
0
 10
287.373
 20
190.486
 11
287.463
 21
190.716
  0
LINE
  8
0
 10
287.463
 20
190.716
 11
287.587
 21
190.929
  0
LINE
  8
0
 10
287.587
 20
190.929
 11
287.74
 21
191.122
  0
LINE
  8
0
 10
287.74
 20
191.122
 11
287.921
 21
191.29
  0
LINE
  8
0
 10
287.921
 20
191.29
 11
288.125
 21
191.429
  0
LINE
  8
0
 10
288.125
 20
191.429
 11
288.347
 21
191.536
  0
LINE
  8
0
 10
288.347
 20
191.536
 11
288.583
 21
191.609
  0
LINE
  8
0
 10
288.583
 20
191.609
 11
288.827
 21
191.645
  0
LINE
  8
0
 10
288.827
 20
191.645
 11
297.073
 21
191.645
  0
LINE
  8
0
 10
297.073
 20
191.645
 11
297.317
 21
191.609
  0
LINE
  8
0
 10
297.317
 20
191.609
 11
297.553
 21
191.536
  0
LINE
  8
0
 10
297.553
 20
191.536
 11
297.775
 21
191.429
  0
LINE
  8
0
 10
297.775
 20
191.429
 11
297.979
 21
191.29
  0
LINE
  8
0
 10
297.979
 20
191.29
 11
298.16
 21
191.122
  0
LINE
  8
0
 10
298.16
 20
191.122
 11
298.313
 21
190.929
  0
LINE
  8
0
 10
298.313
 20
190.929
 11
298.437
 21
190.716
  0
LINE
  8
0
 10
298.437
 20
190.716
 11
298.527
 21
190.486
  0
LINE
  8
0
 10
298.527
 20
190.486
 11
298.582
 21
190.246
  0
LINE
  8
0
 10
298.582
 20
190.246
 11
298.6
 21
190
  0
LINE
  8
0
 10
298.6
 20
190
 11
298.582
 21
189.754
  0
LINE
  8
0
 10
298.582
 20
189.754
 11
298.527
 21
189.514
  0
LINE
  8
0
 10
298.527
 20
189.514
 11
298.437
 21
189.284
  0
LINE
  8
0
 10
298.437
 20
189.284
 11
298.313
 21
189.071
  0
LINE
  8
0
 10
298.313
 20
189.071
 11
298.16
 21
188.878
  0
LINE
  8
0
 10
298.16
 20
188.878
 11
297.979
 21
188.71
  0
LINE
  8
0
 10
297.979
 20
188.71
 11
297.775
 21
188.571
  0
LINE
  8
0
 10
297.775
 20
188.571
 11
297.553
 21
188.464
  0
LINE
  8
0
 10
297.553
 20
188.464
 11
297.317
 21
188.391
  0
LINE
  8
0
 10
297.317
 20
188.391
 11
297.073
 21
188.355
  0
LINE
  8
0
 10
297.073
 20
188.355
 11
288.827
 21
188.355
  0
LINE
  8
0
 10
237.251
 20
4.93448
 11
237.007
 21
4.98755
  0
LINE
  8
0
 10
237.007
 20
4.98755
 11
236.773
 21
5.0748
  0
LINE
  8
0
 10
236.773
 20
5.0748
 11
236.554
 21
5.19446
  0
LINE
  8
0
 10
236.554
 20
5.19446
 11
236.354
 21
5.3441
  0
LINE
  8
0
 10
236.354
 20
5.3441
 11
236.177
 21
5.52065
  0
LINE
  8
0
 10
236.177
 20
5.52065
 11
236.028
 21
5.72054
  0
LINE
  8
0
 10
236.028
 20
5.72054
 11
235.908
 21
5.93968
  0
LINE
  8
0
 10
235.908
 20
5.93968
 11
235.821
 21
6.17363
  0
LINE
  8
0
 10
235.821
 20
6.17363
 11
235.768
 21
6.4176
  0
LINE
  8
0
 10
235.768
 20
6.4176
 11
235.75
 21
6.66666
  0
LINE
  8
0
 10
235.75
 20
6.66666
 11
235.75
 21
96.6667
  0
LINE
  8
0
 10
235.75
 20
96.6667
 11
235.768
 21
96.9157
  0
LINE
  8
0
 10
235.768
 20
96.9157
 11
235.821
 21
97.1597
  0
LINE
  8
0
 10
235.821
 20
97.1597
 11
235.908
 21
97.3936
  0
LINE
  8
0
 10
235.908
 20
97.3936
 11
236.028
 21
97.6128
  0
LINE
  8
0
 10
236.028
 20
97.6128
 11
236.177
 21
97.8127
  0
LINE
  8
0
 10
236.177
 20
97.8127
 11
236.354
 21
97.9892
  0
LINE
  8
0
 10
236.354
 20
97.9892
 11
236.554
 21
98.1389
  0
LINE
  8
0
 10
236.554
 20
98.1389
 11
236.773
 21
98.2585
  0
LINE
  8
0
 10
236.773
 20
98.2585
 11
237.007
 21
98.3458
  0
LINE
  8
0
 10
237.007
 20
98.3458
 11
237.251
 21
98.3988
  0
LINE
  8
0
 10
237.251
 20
98.3988
 11
237.5
 21
98.4167
  0
LINE
  8
0
 10
237.5
 20
98.4167
 11
237.749
 21
98.3988
  0
LINE
  8
0
 10
237.749
 20
98.3988
 11
237.993
 21
98.3458
  0
LINE
  8
0
 10
237.993
 20
98.3458
 11
238.227
 21
98.2585
  0
LINE
  8
0
 10
238.227
 20
98.2585
 11
238.446
 21
98.1389
  0
LINE
  8
0
 10
238.446
 20
98.1389
 11
238.646
 21
97.9892
  0
LINE
  8
0
 10
238.646
 20
97.9892
 11
238.823
 21
97.8127
  0
LINE
  8
0
 10
238.823
 20
97.8127
 11
238.972
 21
97.6128
  0
LINE
  8
0
 10
238.972
 20
97.6128
 11
239.092
 21
97.3936
  0
LINE
  8
0
 10
239.092
 20
97.3936
 11
239.179
 21
97.1597
  0
LINE
  8
0
 10
239.179
 20
97.1597
 11
239.232
 21
96.9157
  0
LINE
  8
0
 10
239.232
 20
96.9157
 11
239.25
 21
96.6667
  0
LINE
  8
0
 10
239.25
 20
96.6667
 11
239.25
 21
6.66666
  0
LINE
  8
0
 10
239.25
 20
6.66666
 11
239.232
 21
6.4176
  0
LINE
  8
0
 10
239.232
 20
6.4176
 11
239.179
 21
6.17363
  0
LINE
  8
0
 10
239.179
 20
6.17363
 11
239.092
 21
5.93968
  0
LINE
  8
0
 10
239.092
 20
5.93968
 11
238.972
 21
5.72054
  0
LINE
  8
0
 10
238.972
 20
5.72054
 11
238.823
 21
5.52065
  0
LINE
  8
0
 10
238.823
 20
5.52065
 11
238.646
 21
5.3441
  0
LINE
  8
0
 10
238.646
 20
5.3441
 11
238.446
 21
5.19446
  0
LINE
  8
0
 10
238.446
 20
5.19446
 11
238.227
 21
5.0748
  0
LINE
  8
0
 10
238.227
 20
5.0748
 11
237.993
 21
4.98755
  0
LINE
  8
0
 10
237.993
 20
4.98755
 11
237.749
 21
4.93448
  0
LINE
  8
0
 10
237.749
 20
4.93448
 11
237.5
 21
4.91666
  0
LINE
  8
0
 10
237.5
 20
4.91666
 11
237.251
 21
4.93448
  0
LINE
  8
0
 10
-237.749
 20
4.93448
 11
-237.993
 21
4.98755
  0
LINE
  8
0
 10
-237.993
 20
4.98755
 11
-238.227
 21
5.0748
  0
LINE
  8
0
 10
-238.227
 20
5.0748
 11
-238.446
 21
5.19446
  0
LINE
  8
0
 10
-238.446
 20
5.19446
 11
-238.646
 21
5.3441
  0
LINE
  8
0
 10
-238.646
 20
5.3441
 11
-238.823
 21
5.52065
  0
LINE
  8
0
 10
-238.823
 20
5.52065
 11
-238.972
 21
5.72054
  0
LINE
  8
0
 10
-238.972
 20
5.72054
 11
-239.092
 21
5.93968
  0
LINE
  8
0
 10
-239.092
 20
5.93968
 11
-239.179
 21
6.17363
  0
LINE
  8
0
 10
-239.179
 20
6.17363
 11
-239.232
 21
6.4176
  0
LINE
  8
0
 10
-239.232
 20
6.4176
 11
-239.25
 21
6.66666
  0
LINE
  8
0
 10
-239.25
 20
6.66666
 11
-239.25
 21
96.6667
  0
LINE
  8
0
 10
-239.25
 20
96.6667
 11
-239.232
 21
96.9157
  0
LINE
  8
0
 10
-239.232
 20
96.9157
 11
-239.179
 21
97.1597
  0
LINE
  8
0
 10
-239.179
 20
97.1597
 11
-239.092
 21
97.3936
  0
LINE
  8
0
 10
-239.092
 20
97.3936
 11
-238.972
 21
97.6128
  0
LINE
  8
0
 10
-238.972
 20
97.6128
 11
-238.823
 21
97.8127
  0
LINE
  8
0
 10
-238.823
 20
97.8127
 11
-238.646
 21
97.9892
  0
LINE
  8
0
 10
-238.646
 20
97.9892
 11
-238.446
 21
98.1389
  0
LINE
  8
0
 10
-238.446
 20
98.1389
 11
-238.227
 21
98.2585
  0
LINE
  8
0
 10
-238.227
 20
98.2585
 11
-237.993
 21
98.3458
  0
LINE
  8
0
 10
-237.993
 20
98.3458
 11
-237.749
 21
98.3988
  0
LINE
  8
0
 10
-237.749
 20
98.3988
 11
-237.5
 21
98.4167
  0
LINE
  8
0
 10
-237.5
 20
98.4167
 11
-237.251
 21
98.3988
  0
LINE
  8
0
 10
-237.251
 20
98.3988
 11
-237.007
 21
98.3458
  0
LINE
  8
0
 10
-237.007
 20
98.3458
 11
-236.773
 21
98.2585
  0
LINE
  8
0
 10
-236.773
 20
98.2585
 11
-236.554
 21
98.1389
  0
LINE
  8
0
 10
-236.554
 20
98.1389
 11
-236.354
 21
97.9892
  0
LINE
  8
0
 10
-236.354
 20
97.9892
 11
-236.177
 21
97.8127
  0
LINE
  8
0
 10
-236.177
 20
97.8127
 11
-236.028
 21
97.6128
  0
LINE
  8
0
 10
-236.028
 20
97.6128
 11
-235.908
 21
97.3936
  0
LINE
  8
0
 10
-235.908
 20
97.3936
 11
-235.821
 21
97.1597
  0
LINE
  8
0
 10
-235.821
 20
97.1597
 11
-235.768
 21
96.9157
  0
LINE
  8
0
 10
-235.768
 20
96.9157
 11
-235.75
 21
96.6667
  0
LINE
  8
0
 10
-235.75
 20
96.6667
 11
-235.75
 21
6.66666
  0
LINE
  8
0
 10
-235.75
 20
6.66666
 11
-235.768
 21
6.4176
  0
LINE
  8
0
 10
-235.768
 20
6.4176
 11
-235.821
 21
6.17363
  0
LINE
  8
0
 10
-235.821
 20
6.17363
 11
-235.908
 21
5.93968
  0
LINE
  8
0
 10
-235.908
 20
5.93968
 11
-236.028
 21
5.72054
  0
LINE
  8
0
 10
-236.028
 20
5.72054
 11
-236.177
 21
5.52065
  0
LINE
  8
0
 10
-236.177
 20
5.52065
 11
-236.354
 21
5.3441
  0
LINE
  8
0
 10
-236.354
 20
5.3441
 11
-236.554
 21
5.19446
  0
LINE
  8
0
 10
-236.554
 20
5.19446
 11
-236.773
 21
5.0748
  0
LINE
  8
0
 10
-236.773
 20
5.0748
 11
-237.007
 21
4.98755
  0
LINE
  8
0
 10
-237.007
 20
4.98755
 11
-237.251
 21
4.93448
  0
LINE
  8
0
 10
-237.251
 20
4.93448
 11
-237.5
 21
4.91666
  0
LINE
  8
0
 10
-237.5
 20
4.91666
 11
-237.749
 21
4.93448
  0
LINE
  8
0
 10
-300.251
 20
70.1131
 11
-300.499
 21
70.1524
  0
LINE
  8
0
 10
-300.499
 20
70.1524
 11
-300.742
 21
70.2175
  0
LINE
  8
0
 10
-300.742
 20
70.2175
 11
-300.976
 21
70.3075
  0
LINE
  8
0
 10
-300.976
 20
70.3075
 11
-301.2
 21
70.4215
  0
LINE
  8
0
 10
-301.2
 20
70.4215
 11
-301.411
 21
70.5583
  0
LINE
  8
0
 10
-301.411
 20
70.5583
 11
-301.606
 21
70.7164
  0
LINE
  8
0
 10
-301.606
 20
70.7164
 11
-301.784
 21
70.8941
  0
LINE
  8
0
 10
-301.784
 20
70.8941
 11
-301.942
 21
71.0893
  0
LINE
  8
0
 10
-301.942
 20
71.0893
 11
-302.078
 21
71.3
  0
LINE
  8
0
 10
-302.078
 20
71.3
 11
-302.193
 21
71.5238
  0
LINE
  8
0
 10
-302.193
 20
71.5238
 11
-302.283
 21
71.7584
  0
LINE
  8
0
 10
-302.283
 20
71.7584
 11
-302.348
 21
72.001
  0
LINE
  8
0
 10
-302.348
 20
72.001
 11
-302.387
 21
72.2491
  0
LINE
  8
0
 10
-302.387
 20
72.2491
 11
-302.4
 21
72.5
  0
LINE
  8
0
 10
-302.4
 20
72.5
 11
-302.387
 21
72.7509
  0
LINE
  8
0
 10
-302.387
 20
72.7509
 11
-302.348
 21
72.999
  0
LINE
  8
0
 10
-302.348
 20
72.999
 11
-302.283
 21
73.2416
  0
LINE
  8
0
 10
-302.283
 20
73.2416
 11
-302.193
 21
73.4762
  0
LINE
  8
0
 10
-302.193
 20
73.4762
 11
-302.078
 21
73.7
  0
LINE
  8
0
 10
-302.078
 20
73.7
 11
-301.942
 21
73.9107
  0
LINE
  8
0
 10
-301.942
 20
73.9107
 11
-301.784
 21
74.1059
  0
LINE
  8
0
 10
-301.784
 20
74.1059
 11
-301.606
 21
74.2835
  0
LINE
  8
0
 10
-301.606
 20
74.2835
 11
-301.411
 21
74.4416
  0
LINE
  8
0
 10
-301.411
 20
74.4416
 11
-301.2
 21
74.5785
  0
LINE
  8
0
 10
-301.2
 20
74.5785
 11
-300.976
 21
74.6925
  0
LINE
  8
0
 10
-300.976
 20
74.6925
 11
-300.742
 21
74.7825
  0
LINE
  8
0
 10
-300.742
 20
74.7825
 11
-300.499
 21
74.8475
  0
LINE
  8
0
 10
-300.499
 20
74.8475
 11
-300.251
 21
74.8869
  0
LINE
  8
0
 10
-300.251
 20
74.8869
 11
-300
 21
74.9
  0
LINE
  8
0
 10
-300
 20
74.9
 11
-299.749
 21
74.8869
  0
LINE
  8
0
 10
-299.749
 20
74.8869
 11
-299.501
 21
74.8475
  0
LINE
  8
0
 10
-299.501
 20
74.8475
 11
-299.258
 21
74.7825
  0
LINE
  8
0
 10
-299.258
 20
74.7825
 11
-299.024
 21
74.6925
  0
LINE
  8
0
 10
-299.024
 20
74.6925
 11
-298.8
 21
74.5785
  0
LINE
  8
0
 10
-298.8
 20
74.5785
 11
-298.589
 21
74.4416
  0
LINE
  8
0
 10
-298.589
 20
74.4416
 11
-298.394
 21
74.2835
  0
LINE
  8
0
 10
-298.394
 20
74.2835
 11
-298.216
 21
74.1059
  0
LINE
  8
0
 10
-298.216
 20
74.1059
 11
-298.058
 21
73.9107
  0
LINE
  8
0
 10
-298.058
 20
73.9107
 11
-297.922
 21
73.7
  0
LINE
  8
0
 10
-297.922
 20
73.7
 11
-297.807
 21
73.4762
  0
LINE
  8
0
 10
-297.807
 20
73.4762
 11
-297.717
 21
73.2416
  0
LINE
  8
0
 10
-297.717
 20
73.2416
 11
-297.652
 21
72.999
  0
LINE
  8
0
 10
-297.652
 20
72.999
 11
-297.613
 21
72.7509
  0
LINE
  8
0
 10
-297.613
 20
72.7509
 11
-297.6
 21
72.5
  0
LINE
  8
0
 10
-297.6
 20
72.5
 11
-297.613
 21
72.2491
  0
LINE
  8
0
 10
-297.613
 20
72.2491
 11
-297.652
 21
72.001
  0
LINE
  8
0
 10
-297.652
 20
72.001
 11
-297.717
 21
71.7584
  0
LINE
  8
0
 10
-297.717
 20
71.7584
 11
-297.807
 21
71.5238
  0
LINE
  8
0
 10
-297.807
 20
71.5238
 11
-297.922
 21
71.3
  0
LINE
  8
0
 10
-297.922
 20
71.3
 11
-298.058
 21
71.0893
  0
LINE
  8
0
 10
-298.058
 20
71.0893
 11
-298.216
 21
70.8941
  0
LINE
  8
0
 10
-298.216
 20
70.8941
 11
-298.394
 21
70.7164
  0
LINE
  8
0
 10
-298.394
 20
70.7164
 11
-298.589
 21
70.5583
  0
LINE
  8
0
 10
-298.589
 20
70.5583
 11
-298.8
 21
70.4215
  0
LINE
  8
0
 10
-298.8
 20
70.4215
 11
-299.024
 21
70.3075
  0
LINE
  8
0
 10
-299.024
 20
70.3075
 11
-299.258
 21
70.2175
  0
LINE
  8
0
 10
-299.258
 20
70.2175
 11
-299.501
 21
70.1524
  0
LINE
  8
0
 10
-299.501
 20
70.1524
 11
-299.749
 21
70.1131
  0
LINE
  8
0
 10
-299.749
 20
70.1131
 11
-300
 21
70.1
  0
LINE
  8
0
 10
-300
 20
70.1
 11
-300.251
 21
70.1131
  0
LINE
  8
0
 10
299.749
 20
70.1131
 11
299.501
 21
70.1524
  0
LINE
  8
0
 10
299.501
 20
70.1524
 11
299.258
 21
70.2175
  0
LINE
  8
0
 10
299.258
 20
70.2175
 11
299.024
 21
70.3075
  0
LINE
  8
0
 10
299.024
 20
70.3075
 11
298.8
 21
70.4215
  0
LINE
  8
0
 10
298.8
 20
70.4215
 11
298.589
 21
70.5583
  0
LINE
  8
0
 10
298.589
 20
70.5583
 11
298.394
 21
70.7164
  0
LINE
  8
0
 10
298.394
 20
70.7164
 11
298.216
 21
70.8941
  0
LINE
  8
0
 10
298.216
 20
70.8941
 11
298.058
 21
71.0893
  0
LINE
  8
0
 10
298.058
 20
71.0893
 11
297.922
 21
71.3
  0
LINE
  8
0
 10
297.922
 20
71.3
 11
297.807
 21
71.5238
  0
LINE
  8
0
 10
297.807
 20
71.5238
 11
297.717
 21
71.7584
  0
LINE
  8
0
 10
297.717
 20
71.7584
 11
297.652
 21
72.001
  0
LINE
  8
0
 10
297.652
 20
72.001
 11
297.613
 21
72.2491
  0
LINE
  8
0
 10
297.613
 20
72.2491
 11
297.6
 21
72.5
  0
LINE
  8
0
 10
297.6
 20
72.5
 11
297.613
 21
72.7509
  0
LINE
  8
0
 10
297.613
 20
72.7509
 11
297.652
 21
72.999
  0
LINE
  8
0
 10
297.652
 20
72.999
 11
297.717
 21
73.2416
  0
LINE
  8
0
 10
297.717
 20
73.2416
 11
297.807
 21
73.4762
  0
LINE
  8
0
 10
297.807
 20
73.4762
 11
297.922
 21
73.7
  0
LINE
  8
0
 10
297.922
 20
73.7
 11
298.058
 21
73.9107
  0
LINE
  8
0
 10
298.058
 20
73.9107
 11
298.216
 21
74.1059
  0
LINE
  8
0
 10
298.216
 20
74.1059
 11
298.394
 21
74.2835
  0
LINE
  8
0
 10
298.394
 20
74.2835
 11
298.589
 21
74.4416
  0
LINE
  8
0
 10
298.589
 20
74.4416
 11
298.8
 21
74.5785
  0
LINE
  8
0
 10
298.8
 20
74.5785
 11
299.024
 21
74.6925
  0
LINE
  8
0
 10
299.024
 20
74.6925
 11
299.258
 21
74.7825
  0
LINE
  8
0
 10
299.258
 20
74.7825
 11
299.501
 21
74.8475
  0
LINE
  8
0
 10
299.501
 20
74.8475
 11
299.749
 21
74.8869
  0
LINE
  8
0
 10
299.749
 20
74.8869
 11
300
 21
74.9
  0
LINE
  8
0
 10
300
 20
74.9
 11
300.251
 21
74.8869
  0
LINE
  8
0
 10
300.251
 20
74.8869
 11
300.499
 21
74.8475
  0
LINE
  8
0
 10
300.499
 20
74.8475
 11
300.742
 21
74.7825
  0
LINE
  8
0
 10
300.742
 20
74.7825
 11
300.976
 21
74.6925
  0
LINE
  8
0
 10
300.976
 20
74.6925
 11
301.2
 21
74.5785
  0
LINE
  8
0
 10
301.2
 20
74.5785
 11
301.411
 21
74.4416
  0
LINE
  8
0
 10
301.411
 20
74.4416
 11
301.606
 21
74.2835
  0
LINE
  8
0
 10
301.606
 20
74.2835
 11
301.784
 21
74.1059
  0
LINE
  8
0
 10
301.784
 20
74.1059
 11
301.942
 21
73.9107
  0
LINE
  8
0
 10
301.942
 20
73.9107
 11
302.078
 21
73.7
  0
LINE
  8
0
 10
302.078
 20
73.7
 11
302.193
 21
73.4762
  0
LINE
  8
0
 10
302.193
 20
73.4762
 11
302.283
 21
73.2416
  0
LINE
  8
0
 10
302.283
 20
73.2416
 11
302.348
 21
72.999
  0
LINE
  8
0
 10
302.348
 20
72.999
 11
302.387
 21
72.7509
  0
LINE
  8
0
 10
302.387
 20
72.7509
 11
302.4
 21
72.5
  0
LINE
  8
0
 10
302.4
 20
72.5
 11
302.387
 21
72.2491
  0
LINE
  8
0
 10
302.387
 20
72.2491
 11
302.348
 21
72.001
  0
LINE
  8
0
 10
302.348
 20
72.001
 11
302.283
 21
71.7584
  0
LINE
  8
0
 10
302.283
 20
71.7584
 11
302.193
 21
71.5238
  0
LINE
  8
0
 10
302.193
 20
71.5238
 11
302.078
 21
71.3
  0
LINE
  8
0
 10
302.078
 20
71.3
 11
301.942
 21
71.0893
  0
LINE
  8
0
 10
301.942
 20
71.0893
 11
301.784
 21
70.8941
  0
LINE
  8
0
 10
301.784
 20
70.8941
 11
301.606
 21
70.7164
  0
LINE
  8
0
 10
301.606
 20
70.7164
 11
301.411
 21
70.5583
  0
LINE
  8
0
 10
301.411
 20
70.5583
 11
301.2
 21
70.4215
  0
LINE
  8
0
 10
301.2
 20
70.4215
 11
300.976
 21
70.3075
  0
LINE
  8
0
 10
300.976
 20
70.3075
 11
300.742
 21
70.2175
  0
LINE
  8
0
 10
300.742
 20
70.2175
 11
300.499
 21
70.1524
  0
LINE
  8
0
 10
300.499
 20
70.1524
 11
300.251
 21
70.1131
  0
LINE
  8
0
 10
300.251
 20
70.1131
 11
300
 21
70.1
  0
LINE
  8
0
 10
300
 20
70.1
 11
299.749
 21
70.1131
  0
LINE
  8
0
 10
299.749
 20
50.1131
 11
299.501
 21
50.1524
  0
LINE
  8
0
 10
299.501
 20
50.1524
 11
299.258
 21
50.2175
  0
LINE
  8
0
 10
299.258
 20
50.2175
 11
299.024
 21
50.3075
  0
LINE
  8
0
 10
299.024
 20
50.3075
 11
298.8
 21
50.4215
  0
LINE
  8
0
 10
298.8
 20
50.4215
 11
298.589
 21
50.5583
  0
LINE
  8
0
 10
298.589
 20
50.5583
 11
298.394
 21
50.7164
  0
LINE
  8
0
 10
298.394
 20
50.7164
 11
298.216
 21
50.8941
  0
LINE
  8
0
 10
298.216
 20
50.8941
 11
298.058
 21
51.0893
  0
LINE
  8
0
 10
298.058
 20
51.0893
 11
297.922
 21
51.3
  0
LINE
  8
0
 10
297.922
 20
51.3
 11
297.807
 21
51.5238
  0
LINE
  8
0
 10
297.807
 20
51.5238
 11
297.717
 21
51.7583
  0
LINE
  8
0
 10
297.717
 20
51.7583
 11
297.652
 21
52.001
  0
LINE
  8
0
 10
297.652
 20
52.001
 11
297.613
 21
52.2491
  0
LINE
  8
0
 10
297.613
 20
52.2491
 11
297.6
 21
52.5
  0
LINE
  8
0
 10
297.6
 20
52.5
 11
297.613
 21
52.7509
  0
LINE
  8
0
 10
297.613
 20
52.7509
 11
297.652
 21
52.999
  0
LINE
  8
0
 10
297.652
 20
52.999
 11
297.717
 21
53.2416
  0
LINE
  8
0
 10
297.717
 20
53.2416
 11
297.807
 21
53.4762
  0
LINE
  8
0
 10
297.807
 20
53.4762
 11
297.922
 21
53.7
  0
LINE
  8
0
 10
297.922
 20
53.7
 11
298.058
 21
53.9107
  0
LINE
  8
0
 10
298.058
 20
53.9107
 11
298.216
 21
54.1059
  0
LINE
  8
0
 10
298.216
 20
54.1059
 11
298.394
 21
54.2835
  0
LINE
  8
0
 10
298.394
 20
54.2835
 11
298.589
 21
54.4416
  0
LINE
  8
0
 10
298.589
 20
54.4416
 11
298.8
 21
54.5785
  0
LINE
  8
0
 10
298.8
 20
54.5785
 11
299.024
 21
54.6925
  0
LINE
  8
0
 10
299.024
 20
54.6925
 11
299.258
 21
54.7825
  0
LINE
  8
0
 10
299.258
 20
54.7825
 11
299.501
 21
54.8475
  0
LINE
  8
0
 10
299.501
 20
54.8475
 11
299.749
 21
54.8868
  0
LINE
  8
0
 10
299.749
 20
54.8868
 11
300
 21
54.9
  0
LINE
  8
0
 10
300
 20
54.9
 11
300.251
 21
54.8868
  0
LINE
  8
0
 10
300.251
 20
54.8868
 11
300.499
 21
54.8475
  0
LINE
  8
0
 10
300.499
 20
54.8475
 11
300.742
 21
54.7825
  0
LINE
  8
0
 10
300.742
 20
54.7825
 11
300.976
 21
54.6925
  0
LINE
  8
0
 10
300.976
 20
54.6925
 11
301.2
 21
54.5785
  0
LINE
  8
0
 10
301.2
 20
54.5785
 11
301.411
 21
54.4416
  0
LINE
  8
0
 10
301.411
 20
54.4416
 11
301.606
 21
54.2835
  0
LINE
  8
0
 10
301.606
 20
54.2835
 11
301.784
 21
54.1059
  0
LINE
  8
0
 10
301.784
 20
54.1059
 11
301.942
 21
53.9107
  0
LINE
  8
0
 10
301.942
 20
53.9107
 11
302.078
 21
53.7
  0
LINE
  8
0
 10
302.078
 20
53.7
 11
302.193
 21
53.4762
  0
LINE
  8
0
 10
302.193
 20
53.4762
 11
302.283
 21
53.2416
  0
LINE
  8
0
 10
302.283
 20
53.2416
 11
302.348
 21
52.999
  0
LINE
  8
0
 10
302.348
 20
52.999
 11
302.387
 21
52.7509
  0
LINE
  8
0
 10
302.387
 20
52.7509
 11
302.4
 21
52.5
  0
LINE
  8
0
 10
302.4
 20
52.5
 11
302.387
 21
52.2491
  0
LINE
  8
0
 10
302.387
 20
52.2491
 11
302.348
 21
52.001
  0
LINE
  8
0
 10
302.348
 20
52.001
 11
302.283
 21
51.7583
  0
LINE
  8
0
 10
302.283
 20
51.7583
 11
302.193
 21
51.5238
  0
LINE
  8
0
 10
302.193
 20
51.5238
 11
302.078
 21
51.3
  0
LINE
  8
0
 10
302.078
 20
51.3
 11
301.942
 21
51.0893
  0
LINE
  8
0
 10
301.942
 20
51.0893
 11
301.784
 21
50.8941
  0
LINE
  8
0
 10
301.784
 20
50.8941
 11
301.606
 21
50.7164
  0
LINE
  8
0
 10
301.606
 20
50.7164
 11
301.411
 21
50.5583
  0
LINE
  8
0
 10
301.411
 20
50.5583
 11
301.2
 21
50.4215
  0
LINE
  8
0
 10
301.2
 20
50.4215
 11
300.976
 21
50.3075
  0
LINE
  8
0
 10
300.976
 20
50.3075
 11
300.742
 21
50.2175
  0
LINE
  8
0
 10
300.742
 20
50.2175
 11
300.499
 21
50.1524
  0
LINE
  8
0
 10
300.499
 20
50.1524
 11
300.251
 21
50.1131
  0
LINE
  8
0
 10
300.251
 20
50.1131
 11
300
 21
50.1
  0
LINE
  8
0
 10
300
 20
50.1
 11
299.749
 21
50.1131
  0
LINE
  8
0
 10
-300.251
 20
50.1131
 11
-300.499
 21
50.1524
  0
LINE
  8
0
 10
-300.499
 20
50.1524
 11
-300.742
 21
50.2175
  0
LINE
  8
0
 10
-300.742
 20
50.2175
 11
-300.976
 21
50.3075
  0
LINE
  8
0
 10
-300.976
 20
50.3075
 11
-301.2
 21
50.4215
  0
LINE
  8
0
 10
-301.2
 20
50.4215
 11
-301.411
 21
50.5583
  0
LINE
  8
0
 10
-301.411
 20
50.5583
 11
-301.606
 21
50.7164
  0
LINE
  8
0
 10
-301.606
 20
50.7164
 11
-301.784
 21
50.8941
  0
LINE
  8
0
 10
-301.784
 20
50.8941
 11
-301.942
 21
51.0893
  0
LINE
  8
0
 10
-301.942
 20
51.0893
 11
-302.078
 21
51.3
  0
LINE
  8
0
 10
-302.078
 20
51.3
 11
-302.193
 21
51.5238
  0
LINE
  8
0
 10
-302.193
 20
51.5238
 11
-302.283
 21
51.7583
  0
LINE
  8
0
 10
-302.283
 20
51.7583
 11
-302.348
 21
52.001
  0
LINE
  8
0
 10
-302.348
 20
52.001
 11
-302.387
 21
52.2491
  0
LINE
  8
0
 10
-302.387
 20
52.2491
 11
-302.4
 21
52.5
  0
LINE
  8
0
 10
-302.4
 20
52.5
 11
-302.387
 21
52.7509
  0
LINE
  8
0
 10
-302.387
 20
52.7509
 11
-302.348
 21
52.999
  0
LINE
  8
0
 10
-302.348
 20
52.999
 11
-302.283
 21
53.2416
  0
LINE
  8
0
 10
-302.283
 20
53.2416
 11
-302.193
 21
53.4762
  0
LINE
  8
0
 10
-302.193
 20
53.4762
 11
-302.078
 21
53.7
  0
LINE
  8
0
 10
-302.078
 20
53.7
 11
-301.942
 21
53.9107
  0
LINE
  8
0
 10
-301.942
 20
53.9107
 11
-301.784
 21
54.1059
  0
LINE
  8
0
 10
-301.784
 20
54.1059
 11
-301.606
 21
54.2835
  0
LINE
  8
0
 10
-301.606
 20
54.2835
 11
-301.411
 21
54.4416
  0
LINE
  8
0
 10
-301.411
 20
54.4416
 11
-301.2
 21
54.5785
  0
LINE
  8
0
 10
-301.2
 20
54.5785
 11
-300.976
 21
54.6925
  0
LINE
  8
0
 10
-300.976
 20
54.6925
 11
-300.742
 21
54.7825
  0
LINE
  8
0
 10
-300.742
 20
54.7825
 11
-300.499
 21
54.8475
  0
LINE
  8
0
 10
-300.499
 20
54.8475
 11
-300.251
 21
54.8868
  0
LINE
  8
0
 10
-300.251
 20
54.8868
 11
-300
 21
54.9
  0
LINE
  8
0
 10
-300
 20
54.9
 11
-299.749
 21
54.8868
  0
LINE
  8
0
 10
-299.749
 20
54.8868
 11
-299.501
 21
54.8475
  0
LINE
  8
0
 10
-299.501
 20
54.8475
 11
-299.258
 21
54.7825
  0
LINE
  8
0
 10
-299.258
 20
54.7825
 11
-299.024
 21
54.6925
  0
LINE
  8
0
 10
-299.024
 20
54.6925
 11
-298.8
 21
54.5785
  0
LINE
  8
0
 10
-298.8
 20
54.5785
 11
-298.589
 21
54.4416
  0
LINE
  8
0
 10
-298.589
 20
54.4416
 11
-298.394
 21
54.2835
  0
LINE
  8
0
 10
-298.394
 20
54.2835
 11
-298.216
 21
54.1059
  0
LINE
  8
0
 10
-298.216
 20
54.1059
 11
-298.058
 21
53.9107
  0
LINE
  8
0
 10
-298.058
 20
53.9107
 11
-297.922
 21
53.7
  0
LINE
  8
0
 10
-297.922
 20
53.7
 11
-297.807
 21
53.4762
  0
LINE
  8
0
 10
-297.807
 20
53.4762
 11
-297.717
 21
53.2416
  0
LINE
  8
0
 10
-297.717
 20
53.2416
 11
-297.652
 21
52.999
  0
LINE
  8
0
 10
-297.652
 20
52.999
 11
-297.613
 21
52.7509
  0
LINE
  8
0
 10
-297.613
 20
52.7509
 11
-297.6
 21
52.5
  0
LINE
  8
0
 10
-297.6
 20
52.5
 11
-297.613
 21
52.2491
  0
LINE
  8
0
 10
-297.613
 20
52.2491
 11
-297.652
 21
52.001
  0
LINE
  8
0
 10
-297.652
 20
52.001
 11
-297.717
 21
51.7583
  0
LINE
  8
0
 10
-297.717
 20
51.7583
 11
-297.807
 21
51.5238
  0
LINE
  8
0
 10
-297.807
 20
51.5238
 11
-297.922
 21
51.3
  0
LINE
  8
0
 10
-297.922
 20
51.3
 11
-298.058
 21
51.0893
  0
LINE
  8
0
 10
-298.058
 20
51.0893
 11
-298.216
 21
50.8941
  0
LINE
  8
0
 10
-298.216
 20
50.8941
 11
-298.394
 21
50.7164
  0
LINE
  8
0
 10
-298.394
 20
50.7164
 11
-298.589
 21
50.5583
  0
LINE
  8
0
 10
-298.589
 20
50.5583
 11
-298.8
 21
50.4215
  0
LINE
  8
0
 10
-298.8
 20
50.4215
 11
-299.024
 21
50.3075
  0
LINE
  8
0
 10
-299.024
 20
50.3075
 11
-299.258
 21
50.2175
  0
LINE
  8
0
 10
-299.258
 20
50.2175
 11
-299.501
 21
50.1524
  0
LINE
  8
0
 10
-299.501
 20
50.1524
 11
-299.749
 21
50.1131
  0
LINE
  8
0
 10
-299.749
 20
50.1131
 11
-300
 21
50.1
  0
LINE
  8
0
 10
-300
 20
50.1
 11
-300.251
 21
50.1131
  0
LINE
  8
0
 10
299.603
 20
28.7208
 11
299.21
 21
28.783
  0
LINE
  8
0
 10
299.21
 20
28.783
 11
298.826
 21
28.886
  0
LINE
  8
0
 10
298.826
 20
28.886
 11
298.454
 21
29.0285
  0
LINE
  8
0
 10
298.454
 20
29.0285
 11
298.1
 21
29.2091
  0
LINE
  8
0
 10
298.1
 20
29.2091
 11
297.766
 21
29.4257
  0
LINE
  8
0
 10
297.766
 20
29.4257
 11
297.457
 21
29.676
  0
LINE
  8
0
 10
297.457
 20
29.676
 11
297.176
 21
29.9573
  0
LINE
  8
0
 10
297.176
 20
29.9573
 11
296.926
 21
30.2664
  0
LINE
  8
0
 10
296.926
 20
30.2664
 11
296.709
 21
30.6
  0
LINE
  8
0
 10
296.709
 20
30.6
 11
296.529
 21
30.9544
  0
LINE
  8
0
 10
296.529
 20
30.9544
 11
296.386
 21
31.3257
  0
LINE
  8
0
 10
296.386
 20
31.3257
 11
296.283
 21
31.7099
  0
LINE
  8
0
 10
296.283
 20
31.7099
 11
296.221
 21
32.1028
  0
LINE
  8
0
 10
296.221
 20
32.1028
 11
296.2
 21
32.5
  0
LINE
  8
0
 10
296.2
 20
32.5
 11
296.221
 21
32.8972
  0
LINE
  8
0
 10
296.221
 20
32.8972
 11
296.283
 21
33.2901
  0
LINE
  8
0
 10
296.283
 20
33.2901
 11
296.386
 21
33.6743
  0
LINE
  8
0
 10
296.386
 20
33.6743
 11
296.529
 21
34.0456
  0
LINE
  8
0
 10
296.529
 20
34.0456
 11
296.709
 21
34.4
  0
LINE
  8
0
 10
296.709
 20
34.4
 11
296.926
 21
34.7336
  0
LINE
  8
0
 10
296.926
 20
34.7336
 11
297.176
 21
35.0427
  0
LINE
  8
0
 10
297.176
 20
35.0427
 11
297.457
 21
35.3239
  0
LINE
  8
0
 10
297.457
 20
35.3239
 11
297.766
 21
35.5743
  0
LINE
  8
0
 10
297.766
 20
35.5743
 11
298.1
 21
35.7909
  0
LINE
  8
0
 10
298.1
 20
35.7909
 11
298.454
 21
35.9715
  0
LINE
  8
0
 10
298.454
 20
35.9715
 11
298.826
 21
36.114
  0
LINE
  8
0
 10
298.826
 20
36.114
 11
299.21
 21
36.2169
  0
LINE
  8
0
 10
299.21
 20
36.2169
 11
299.603
 21
36.2792
  0
LINE
  8
0
 10
299.603
 20
36.2792
 11
300
 21
36.3
  0
LINE
  8
0
 10
300
 20
36.3
 11
300.397
 21
36.2792
  0
LINE
  8
0
 10
300.397
 20
36.2792
 11
300.79
 21
36.2169
  0
LINE
  8
0
 10
300.79
 20
36.2169
 11
301.174
 21
36.114
  0
LINE
  8
0
 10
301.174
 20
36.114
 11
301.546
 21
35.9715
  0
LINE
  8
0
 10
301.546
 20
35.9715
 11
301.9
 21
35.7909
  0
LINE
  8
0
 10
301.9
 20
35.7909
 11
302.234
 21
35.5743
  0
LINE
  8
0
 10
302.234
 20
35.5743
 11
302.543
 21
35.3239
  0
LINE
  8
0
 10
302.543
 20
35.3239
 11
302.824
 21
35.0427
  0
LINE
  8
0
 10
302.824
 20
35.0427
 11
303.074
 21
34.7336
  0
LINE
  8
0
 10
303.074
 20
34.7336
 11
303.291
 21
34.4
  0
LINE
  8
0
 10
303.291
 20
34.4
 11
303.471
 21
34.0456
  0
LINE
  8
0
 10
303.471
 20
34.0456
 11
303.614
 21
33.6743
  0
LINE
  8
0
 10
303.614
 20
33.6743
 11
303.717
 21
33.2901
  0
LINE
  8
0
 10
303.717
 20
33.2901
 11
303.779
 21
32.8972
  0
LINE
  8
0
 10
303.779
 20
32.8972
 11
303.8
 21
32.5
  0
LINE
  8
0
 10
303.8
 20
32.5
 11
303.779
 21
32.1028
  0
LINE
  8
0
 10
303.779
 20
32.1028
 11
303.717
 21
31.7099
  0
LINE
  8
0
 10
303.717
 20
31.7099
 11
303.614
 21
31.3257
  0
LINE
  8
0
 10
303.614
 20
31.3257
 11
303.471
 21
30.9544
  0
LINE
  8
0
 10
303.471
 20
30.9544
 11
303.291
 21
30.6
  0
LINE
  8
0
 10
303.291
 20
30.6
 11
303.074
 21
30.2664
  0
LINE
  8
0
 10
303.074
 20
30.2664
 11
302.824
 21
29.9573
  0
LINE
  8
0
 10
302.824
 20
29.9573
 11
302.543
 21
29.676
  0
LINE
  8
0
 10
302.543
 20
29.676
 11
302.234
 21
29.4257
  0
LINE
  8
0
 10
302.234
 20
29.4257
 11
301.9
 21
29.2091
  0
LINE
  8
0
 10
301.9
 20
29.2091
 11
301.546
 21
29.0285
  0
LINE
  8
0
 10
301.546
 20
29.0285
 11
301.174
 21
28.886
  0
LINE
  8
0
 10
301.174
 20
28.886
 11
300.79
 21
28.783
  0
LINE
  8
0
 10
300.79
 20
28.783
 11
300.397
 21
28.7208
  0
LINE
  8
0
 10
300.397
 20
28.7208
 11
300
 21
28.7
  0
LINE
  8
0
 10
300
 20
28.7
 11
299.603
 21
28.7208
  0
LINE
  8
0
 10
-300.397
 20
28.7208
 11
-300.79
 21
28.783
  0
LINE
  8
0
 10
-300.79
 20
28.783
 11
-301.174
 21
28.886
  0
LINE
  8
0
 10
-301.174
 20
28.886
 11
-301.546
 21
29.0285
  0
LINE
  8
0
 10
-301.546
 20
29.0285
 11
-301.9
 21
29.2091
  0
LINE
  8
0
 10
-301.9
 20
29.2091
 11
-302.234
 21
29.4257
  0
LINE
  8
0
 10
-302.234
 20
29.4257
 11
-302.543
 21
29.676
  0
LINE
  8
0
 10
-302.543
 20
29.676
 11
-302.824
 21
29.9573
  0
LINE
  8
0
 10
-302.824
 20
29.9573
 11
-303.074
 21
30.2664
  0
LINE
  8
0
 10
-303.074
 20
30.2664
 11
-303.291
 21
30.6
  0
LINE
  8
0
 10
-303.291
 20
30.6
 11
-303.471
 21
30.9544
  0
LINE
  8
0
 10
-303.471
 20
30.9544
 11
-303.614
 21
31.3257
  0
LINE
  8
0
 10
-303.614
 20
31.3257
 11
-303.717
 21
31.7099
  0
LINE
  8
0
 10
-303.717
 20
31.7099
 11
-303.779
 21
32.1028
  0
LINE
  8
0
 10
-303.779
 20
32.1028
 11
-303.8
 21
32.5
  0
LINE
  8
0
 10
-303.8
 20
32.5
 11
-303.779
 21
32.8972
  0
LINE
  8
0
 10
-303.779
 20
32.8972
 11
-303.717
 21
33.2901
  0
LINE
  8
0
 10
-303.717
 20
33.2901
 11
-303.614
 21
33.6743
  0
LINE
  8
0
 10
-303.614
 20
33.6743
 11
-303.471
 21
34.0456
  0
LINE
  8
0
 10
-303.471
 20
34.0456
 11
-303.291
 21
34.4
  0
LINE
  8
0
 10
-303.291
 20
34.4
 11
-303.074
 21
34.7336
  0
LINE
  8
0
 10
-303.074
 20
34.7336
 11
-302.824
 21
35.0427
  0
LINE
  8
0
 10
-302.824
 20
35.0427
 11
-302.543
 21
35.3239
  0
LINE
  8
0
 10
-302.543
 20
35.3239
 11
-302.234
 21
35.5743
  0
LINE
  8
0
 10
-302.234
 20
35.5743
 11
-301.9
 21
35.7909
  0
LINE
  8
0
 10
-301.9
 20
35.7909
 11
-301.546
 21
35.9715
  0
LINE
  8
0
 10
-301.546
 20
35.9715
 11
-301.174
 21
36.114
  0
LINE
  8
0
 10
-301.174
 20
36.114
 11
-300.79
 21
36.2169
  0
LINE
  8
0
 10
-300.79
 20
36.2169
 11
-300.397
 21
36.2792
  0
LINE
  8
0
 10
-300.397
 20
36.2792
 11
-300
 21
36.3
  0
LINE
  8
0
 10
-300
 20
36.3
 11
-299.603
 21
36.2792
  0
LINE
  8
0
 10
-299.603
 20
36.2792
 11
-299.21
 21
36.2169
  0
LINE
  8
0
 10
-299.21
 20
36.2169
 11
-298.826
 21
36.114
  0
LINE
  8
0
 10
-298.826
 20
36.114
 11
-298.454
 21
35.9715
  0
LINE
  8
0
 10
-298.454
 20
35.9715
 11
-298.1
 21
35.7909
  0
LINE
  8
0
 10
-298.1
 20
35.7909
 11
-297.766
 21
35.5743
  0
LINE
  8
0
 10
-297.766
 20
35.5743
 11
-297.457
 21
35.3239
  0
LINE
  8
0
 10
-297.457
 20
35.3239
 11
-297.176
 21
35.0427
  0
LINE
  8
0
 10
-297.176
 20
35.0427
 11
-296.926
 21
34.7336
  0
LINE
  8
0
 10
-296.926
 20
34.7336
 11
-296.709
 21
34.4
  0
LINE
  8
0
 10
-296.709
 20
34.4
 11
-296.529
 21
34.0456
  0
LINE
  8
0
 10
-296.529
 20
34.0456
 11
-296.386
 21
33.6743
  0
LINE
  8
0
 10
-296.386
 20
33.6743
 11
-296.283
 21
33.2901
  0
LINE
  8
0
 10
-296.283
 20
33.2901
 11
-296.221
 21
32.8972
  0
LINE
  8
0
 10
-296.221
 20
32.8972
 11
-296.2
 21
32.5
  0
LINE
  8
0
 10
-296.2
 20
32.5
 11
-296.221
 21
32.1028
  0
LINE
  8
0
 10
-296.221
 20
32.1028
 11
-296.283
 21
31.7099
  0
LINE
  8
0
 10
-296.283
 20
31.7099
 11
-296.386
 21
31.3257
  0
LINE
  8
0
 10
-296.386
 20
31.3257
 11
-296.529
 21
30.9544
  0
LINE
  8
0
 10
-296.529
 20
30.9544
 11
-296.709
 21
30.6
  0
LINE
  8
0
 10
-296.709
 20
30.6
 11
-296.926
 21
30.2664
  0
LINE
  8
0
 10
-296.926
 20
30.2664
 11
-297.176
 21
29.9573
  0
LINE
  8
0
 10
-297.176
 20
29.9573
 11
-297.457
 21
29.676
  0
LINE
  8
0
 10
-297.457
 20
29.676
 11
-297.766
 21
29.4257
  0
LINE
  8
0
 10
-297.766
 20
29.4257
 11
-298.1
 21
29.2091
  0
LINE
  8
0
 10
-298.1
 20
29.2091
 11
-298.454
 21
29.0285
  0
LINE
  8
0
 10
-298.454
 20
29.0285
 11
-298.826
 21
28.886
  0
LINE
  8
0
 10
-298.826
 20
28.886
 11
-299.21
 21
28.783
  0
LINE
  8
0
 10
-299.21
 20
28.783
 11
-299.603
 21
28.7208
  0
LINE
  8
0
 10
-299.603
 20
28.7208
 11
-300
 21
28.7
  0
LINE
  8
0
 10
-300
 20
28.7
 11
-300.397
 21
28.7208
  0
LINE
  8
0
 10
-300.397
 20
8.72081
 11
-300.79
 21
8.78304
  0
LINE
  8
0
 10
-300.79
 20
8.78304
 11
-301.174
 21
8.88597
  0
LINE
  8
0
 10
-301.174
 20
8.88597
 11
-301.546
 21
9.02852
  0
LINE
  8
0
 10
-301.546
 20
9.02852
 11
-301.9
 21
9.20909
  0
LINE
  8
0
 10
-301.9
 20
9.20909
 11
-302.234
 21
9.42572
  0
LINE
  8
0
 10
-302.234
 20
9.42572
 11
-302.543
 21
9.67604
  0
LINE
  8
0
 10
-302.543
 20
9.67604
 11
-302.824
 21
9.95729
  0
LINE
  8
0
 10
-302.824
 20
9.95729
 11
-303.074
 21
10.2664
  0
LINE
  8
0
 10
-303.074
 20
10.2664
 11
-303.291
 21
10.6
  0
LINE
  8
0
 10
-303.291
 20
10.6
 11
-303.471
 21
10.9544
  0
LINE
  8
0
 10
-303.471
 20
10.9544
 11
-303.614
 21
11.3257
  0
LINE
  8
0
 10
-303.614
 20
11.3257
 11
-303.717
 21
11.7099
  0
LINE
  8
0
 10
-303.717
 20
11.7099
 11
-303.779
 21
12.1028
  0
LINE
  8
0
 10
-303.779
 20
12.1028
 11
-303.8
 21
12.5
  0
LINE
  8
0
 10
-303.8
 20
12.5
 11
-303.779
 21
12.8972
  0
LINE
  8
0
 10
-303.779
 20
12.8972
 11
-303.717
 21
13.2901
  0
LINE
  8
0
 10
-303.717
 20
13.2901
 11
-303.614
 21
13.6743
  0
LINE
  8
0
 10
-303.614
 20
13.6743
 11
-303.471
 21
14.0456
  0
LINE
  8
0
 10
-303.471
 20
14.0456
 11
-303.291
 21
14.4
  0
LINE
  8
0
 10
-303.291
 20
14.4
 11
-303.074
 21
14.7336
  0
LINE
  8
0
 10
-303.074
 20
14.7336
 11
-302.824
 21
15.0427
  0
LINE
  8
0
 10
-302.824
 20
15.0427
 11
-302.543
 21
15.3239
  0
LINE
  8
0
 10
-302.543
 20
15.3239
 11
-302.234
 21
15.5743
  0
LINE
  8
0
 10
-302.234
 20
15.5743
 11
-301.9
 21
15.7909
  0
LINE
  8
0
 10
-301.9
 20
15.7909
 11
-301.546
 21
15.9715
  0
LINE
  8
0
 10
-301.546
 20
15.9715
 11
-301.174
 21
16.114
  0
LINE
  8
0
 10
-301.174
 20
16.114
 11
-300.79
 21
16.2169
  0
LINE
  8
0
 10
-300.79
 20
16.2169
 11
-300.397
 21
16.2792
  0
LINE
  8
0
 10
-300.397
 20
16.2792
 11
-300
 21
16.3
  0
LINE
  8
0
 10
-300
 20
16.3
 11
-299.603
 21
16.2792
  0
LINE
  8
0
 10
-299.603
 20
16.2792
 11
-299.21
 21
16.2169
  0
LINE
  8
0
 10
-299.21
 20
16.2169
 11
-298.826
 21
16.114
  0
LINE
  8
0
 10
-298.826
 20
16.114
 11
-298.454
 21
15.9715
  0
LINE
  8
0
 10
-298.454
 20
15.9715
 11
-298.1
 21
15.7909
  0
LINE
  8
0
 10
-298.1
 20
15.7909
 11
-297.766
 21
15.5743
  0
LINE
  8
0
 10
-297.766
 20
15.5743
 11
-297.457
 21
15.3239
  0
LINE
  8
0
 10
-297.457
 20
15.3239
 11
-297.176
 21
15.0427
  0
LINE
  8
0
 10
-297.176
 20
15.0427
 11
-296.926
 21
14.7336
  0
LINE
  8
0
 10
-296.926
 20
14.7336
 11
-296.709
 21
14.4
  0
LINE
  8
0
 10
-296.709
 20
14.4
 11
-296.529
 21
14.0456
  0
LINE
  8
0
 10
-296.529
 20
14.0456
 11
-296.386
 21
13.6743
  0
LINE
  8
0
 10
-296.386
 20
13.6743
 11
-296.283
 21
13.2901
  0
LINE
  8
0
 10
-296.283
 20
13.2901
 11
-296.221
 21
12.8972
  0
LINE
  8
0
 10
-296.221
 20
12.8972
 11
-296.2
 21
12.5
  0
LINE
  8
0
 10
-296.2
 20
12.5
 11
-296.221
 21
12.1028
  0
LINE
  8
0
 10
-296.221
 20
12.1028
 11
-296.283
 21
11.7099
  0
LINE
  8
0
 10
-296.283
 20
11.7099
 11
-296.386
 21
11.3257
  0
LINE
  8
0
 10
-296.386
 20
11.3257
 11
-296.529
 21
10.9544
  0
LINE
  8
0
 10
-296.529
 20
10.9544
 11
-296.709
 21
10.6
  0
LINE
  8
0
 10
-296.709
 20
10.6
 11
-296.926
 21
10.2664
  0
LINE
  8
0
 10
-296.926
 20
10.2664
 11
-297.176
 21
9.95729
  0
LINE
  8
0
 10
-297.176
 20
9.95729
 11
-297.457
 21
9.67604
  0
LINE
  8
0
 10
-297.457
 20
9.67604
 11
-297.766
 21
9.42572
  0
LINE
  8
0
 10
-297.766
 20
9.42572
 11
-298.1
 21
9.20909
  0
LINE
  8
0
 10
-298.1
 20
9.20909
 11
-298.454
 21
9.02852
  0
LINE
  8
0
 10
-298.454
 20
9.02852
 11
-298.826
 21
8.88597
  0
LINE
  8
0
 10
-298.826
 20
8.88597
 11
-299.21
 21
8.78304
  0
LINE
  8
0
 10
-299.21
 20
8.78304
 11
-299.603
 21
8.72081
  0
LINE
  8
0
 10
-299.603
 20
8.72081
 11
-300
 21
8.7
  0
LINE
  8
0
 10
-300
 20
8.7
 11
-300.397
 21
8.72081
  0
LINE
  8
0
 10
299.603
 20
8.72081
 11
299.21
 21
8.78304
  0
LINE
  8
0
 10
299.21
 20
8.78304
 11
298.826
 21
8.88597
  0
LINE
  8
0
 10
298.826
 20
8.88597
 11
298.454
 21
9.02852
  0
LINE
  8
0
 10
298.454
 20
9.02852
 11
298.1
 21
9.20909
  0
LINE
  8
0
 10
298.1
 20
9.20909
 11
297.766
 21
9.42572
  0
LINE
  8
0
 10
297.766
 20
9.42572
 11
297.457
 21
9.67604
  0
LINE
  8
0
 10
297.457
 20
9.67604
 11
297.176
 21
9.95729
  0
LINE
  8
0
 10
297.176
 20
9.95729
 11
296.926
 21
10.2664
  0
LINE
  8
0
 10
296.926
 20
10.2664
 11
296.709
 21
10.6
  0
LINE
  8
0
 10
296.709
 20
10.6
 11
296.529
 21
10.9544
  0
LINE
  8
0
 10
296.529
 20
10.9544
 11
296.386
 21
11.3257
  0
LINE
  8
0
 10
296.386
 20
11.3257
 11
296.283
 21
11.7099
  0
LINE
  8
0
 10
296.283
 20
11.7099
 11
296.221
 21
12.1028
  0
LINE
  8
0
 10
296.221
 20
12.1028
 11
296.2
 21
12.5
  0
LINE
  8
0
 10
296.2
 20
12.5
 11
296.221
 21
12.8972
  0
LINE
  8
0
 10
296.221
 20
12.8972
 11
296.283
 21
13.2901
  0
LINE
  8
0
 10
296.283
 20
13.2901
 11
296.386
 21
13.6743
  0
LINE
  8
0
 10
296.386
 20
13.6743
 11
296.529
 21
14.0456
  0
LINE
  8
0
 10
296.529
 20
14.0456
 11
296.709
 21
14.4
  0
LINE
  8
0
 10
296.709
 20
14.4
 11
296.926
 21
14.7336
  0
LINE
  8
0
 10
296.926
 20
14.7336
 11
297.176
 21
15.0427
  0
LINE
  8
0
 10
297.176
 20
15.0427
 11
297.457
 21
15.3239
  0
LINE
  8
0
 10
297.457
 20
15.3239
 11
297.766
 21
15.5743
  0
LINE
  8
0
 10
297.766
 20
15.5743
 11
298.1
 21
15.7909
  0
LINE
  8
0
 10
298.1
 20
15.7909
 11
298.454
 21
15.9715
  0
LINE
  8
0
 10
298.454
 20
15.9715
 11
298.826
 21
16.114
  0
LINE
  8
0
 10
298.826
 20
16.114
 11
299.21
 21
16.2169
  0
LINE
  8
0
 10
299.21
 20
16.2169
 11
299.603
 21
16.2792
  0
LINE
  8
0
 10
299.603
 20
16.2792
 11
300
 21
16.3
  0
LINE
  8
0
 10
300
 20
16.3
 11
300.397
 21
16.2792
  0
LINE
  8
0
 10
300.397
 20
16.2792
 11
300.79
 21
16.2169
  0
LINE
  8
0
 10
300.79
 20
16.2169
 11
301.174
 21
16.114
  0
LINE
  8
0
 10
301.174
 20
16.114
 11
301.546
 21
15.9715
  0
LINE
  8
0
 10
301.546
 20
15.9715
 11
301.9
 21
15.7909
  0
LINE
  8
0
 10
301.9
 20
15.7909
 11
302.234
 21
15.5743
  0
LINE
  8
0
 10
302.234
 20
15.5743
 11
302.543
 21
15.3239
  0
LINE
  8
0
 10
302.543
 20
15.3239
 11
302.824
 21
15.0427
  0
LINE
  8
0
 10
302.824
 20
15.0427
 11
303.074
 21
14.7336
  0
LINE
  8
0
 10
303.074
 20
14.7336
 11
303.291
 21
14.4
  0
LINE
  8
0
 10
303.291
 20
14.4
 11
303.471
 21
14.0456
  0
LINE
  8
0
 10
303.471
 20
14.0456
 11
303.614
 21
13.6743
  0
LINE
  8
0
 10
303.614
 20
13.6743
 11
303.717
 21
13.2901
  0
LINE
  8
0
 10
303.717
 20
13.2901
 11
303.779
 21
12.8972
  0
LINE
  8
0
 10
303.779
 20
12.8972
 11
303.8
 21
12.5
  0
LINE
  8
0
 10
303.8
 20
12.5
 11
303.779
 21
12.1028
  0
LINE
  8
0
 10
303.779
 20
12.1028
 11
303.717
 21
11.7099
  0
LINE
  8
0
 10
303.717
 20
11.7099
 11
303.614
 21
11.3257
  0
LINE
  8
0
 10
303.614
 20
11.3257
 11
303.471
 21
10.9544
  0
LINE
  8
0
 10
303.471
 20
10.9544
 11
303.291
 21
10.6
  0
LINE
  8
0
 10
303.291
 20
10.6
 11
303.074
 21
10.2664
  0
LINE
  8
0
 10
303.074
 20
10.2664
 11
302.824
 21
9.95729
  0
LINE
  8
0
 10
302.824
 20
9.95729
 11
302.543
 21
9.67604
  0
LINE
  8
0
 10
302.543
 20
9.67604
 11
302.234
 21
9.42572
  0
LINE
  8
0
 10
302.234
 20
9.42572
 11
301.9
 21
9.20909
  0
LINE
  8
0
 10
301.9
 20
9.20909
 11
301.546
 21
9.02852
  0
LINE
  8
0
 10
301.546
 20
9.02852
 11
301.174
 21
8.88597
  0
LINE
  8
0
 10
301.174
 20
8.88597
 11
300.79
 21
8.78304
  0
LINE
  8
0
 10
300.79
 20
8.78304
 11
300.397
 21
8.72081
  0
LINE
  8
0
 10
300.397
 20
8.72081
 11
300
 21
8.7
  0
LINE
  8
0
 10
300
 20
8.7
 11
299.603
 21
8.72081
  0
LINE
  8
0
 10
237.251
 20
-98.3988
 11
237.007
 21
-98.3458
  0
LINE
  8
0
 10
237.007
 20
-98.3458
 11
236.773
 21
-98.2585
  0
LINE
  8
0
 10
236.773
 20
-98.2585
 11
236.554
 21
-98.1389
  0
LINE
  8
0
 10
236.554
 20
-98.1389
 11
236.354
 21
-97.9892
  0
LINE
  8
0
 10
236.354
 20
-97.9892
 11
236.177
 21
-97.8127
  0
LINE
  8
0
 10
236.177
 20
-97.8127
 11
236.028
 21
-97.6128
  0
LINE
  8
0
 10
236.028
 20
-97.6128
 11
235.908
 21
-97.3936
  0
LINE
  8
0
 10
235.908
 20
-97.3936
 11
235.821
 21
-97.1597
  0
LINE
  8
0
 10
235.821
 20
-97.1597
 11
235.768
 21
-96.9157
  0
LINE
  8
0
 10
235.768
 20
-96.9157
 11
235.75
 21
-96.6667
  0
LINE
  8
0
 10
235.75
 20
-96.6667
 11
235.75
 21
-6.66666
  0
LINE
  8
0
 10
235.75
 20
-6.66666
 11
235.768
 21
-6.4176
  0
LINE
  8
0
 10
235.768
 20
-6.4176
 11
235.821
 21
-6.17363
  0
LINE
  8
0
 10
235.821
 20
-6.17363
 11
235.908
 21
-5.93968
  0
LINE
  8
0
 10
235.908
 20
-5.93968
 11
236.028
 21
-5.72054
  0
LINE
  8
0
 10
236.028
 20
-5.72054
 11
236.177
 21
-5.52065
  0
LINE
  8
0
 10
236.177
 20
-5.52065
 11
236.354
 21
-5.3441
  0
LINE
  8
0
 10
236.354
 20
-5.3441
 11
236.554
 21
-5.19446
  0
LINE
  8
0
 10
236.554
 20
-5.19446
 11
236.773
 21
-5.0748
  0
LINE
  8
0
 10
236.773
 20
-5.0748
 11
237.007
 21
-4.98755
  0
LINE
  8
0
 10
237.007
 20
-4.98755
 11
237.251
 21
-4.93448
  0
LINE
  8
0
 10
237.251
 20
-4.93448
 11
237.5
 21
-4.91666
  0
LINE
  8
0
 10
237.5
 20
-4.91666
 11
237.749
 21
-4.93448
  0
LINE
  8
0
 10
237.749
 20
-4.93448
 11
237.993
 21
-4.98755
  0
LINE
  8
0
 10
237.993
 20
-4.98755
 11
238.227
 21
-5.0748
  0
LINE
  8
0
 10
238.227
 20
-5.0748
 11
238.446
 21
-5.19446
  0
LINE
  8
0
 10
238.446
 20
-5.19446
 11
238.646
 21
-5.3441
  0
LINE
  8
0
 10
238.646
 20
-5.3441
 11
238.823
 21
-5.52065
  0
LINE
  8
0
 10
238.823
 20
-5.52065
 11
238.972
 21
-5.72054
  0
LINE
  8
0
 10
238.972
 20
-5.72054
 11
239.092
 21
-5.93968
  0
LINE
  8
0
 10
239.092
 20
-5.93968
 11
239.179
 21
-6.17363
  0
LINE
  8
0
 10
239.179
 20
-6.17363
 11
239.232
 21
-6.4176
  0
LINE
  8
0
 10
239.232
 20
-6.4176
 11
239.25
 21
-6.66666
  0
LINE
  8
0
 10
239.25
 20
-6.66666
 11
239.25
 21
-96.6667
  0
LINE
  8
0
 10
239.25
 20
-96.6667
 11
239.232
 21
-96.9157
  0
LINE
  8
0
 10
239.232
 20
-96.9157
 11
239.179
 21
-97.1597
  0
LINE
  8
0
 10
239.179
 20
-97.1597
 11
239.092
 21
-97.3936
  0
LINE
  8
0
 10
239.092
 20
-97.3936
 11
238.972
 21
-97.6128
  0
LINE
  8
0
 10
238.972
 20
-97.6128
 11
238.823
 21
-97.8127
  0
LINE
  8
0
 10
238.823
 20
-97.8127
 11
238.646
 21
-97.9892
  0
LINE
  8
0
 10
238.646
 20
-97.9892
 11
238.446
 21
-98.1389
  0
LINE
  8
0
 10
238.446
 20
-98.1389
 11
238.227
 21
-98.2585
  0
LINE
  8
0
 10
238.227
 20
-98.2585
 11
237.993
 21
-98.3458
  0
LINE
  8
0
 10
237.993
 20
-98.3458
 11
237.749
 21
-98.3988
  0
LINE
  8
0
 10
237.749
 20
-98.3988
 11
237.5
 21
-98.4167
  0
LINE
  8
0
 10
237.5
 20
-98.4167
 11
237.251
 21
-98.3988
  0
LINE
  8
0
 10
-237.749
 20
-98.3988
 11
-237.993
 21
-98.3458
  0
LINE
  8
0
 10
-237.993
 20
-98.3458
 11
-238.227
 21
-98.2585
  0
LINE
  8
0
 10
-238.227
 20
-98.2585
 11
-238.446
 21
-98.1389
  0
LINE
  8
0
 10
-238.446
 20
-98.1389
 11
-238.646
 21
-97.9892
  0
LINE
  8
0
 10
-238.646
 20
-97.9892
 11
-238.823
 21
-97.8127
  0
LINE
  8
0
 10
-238.823
 20
-97.8127
 11
-238.972
 21
-97.6128
  0
LINE
  8
0
 10
-238.972
 20
-97.6128
 11
-239.092
 21
-97.3936
  0
LINE
  8
0
 10
-239.092
 20
-97.3936
 11
-239.179
 21
-97.1597
  0
LINE
  8
0
 10
-239.179
 20
-97.1597
 11
-239.232
 21
-96.9157
  0
LINE
  8
0
 10
-239.232
 20
-96.9157
 11
-239.25
 21
-96.6667
  0
LINE
  8
0
 10
-239.25
 20
-96.6667
 11
-239.25
 21
-6.66666
  0
LINE
  8
0
 10
-239.25
 20
-6.66666
 11
-239.232
 21
-6.4176
  0
LINE
  8
0
 10
-239.232
 20
-6.4176
 11
-239.179
 21
-6.17363
  0
LINE
  8
0
 10
-239.179
 20
-6.17363
 11
-239.092
 21
-5.93968
  0
LINE
  8
0
 10
-239.092
 20
-5.93968
 11
-238.972
 21
-5.72054
  0
LINE
  8
0
 10
-238.972
 20
-5.72054
 11
-238.823
 21
-5.52065
  0
LINE
  8
0
 10
-238.823
 20
-5.52065
 11
-238.646
 21
-5.3441
  0
LINE
  8
0
 10
-238.646
 20
-5.3441
 11
-238.446
 21
-5.19446
  0
LINE
  8
0
 10
-238.446
 20
-5.19446
 11
-238.227
 21
-5.0748
  0
LINE
  8
0
 10
-238.227
 20
-5.0748
 11
-237.993
 21
-4.98755
  0
LINE
  8
0
 10
-237.993
 20
-4.98755
 11
-237.749
 21
-4.93448
  0
LINE
  8
0
 10
-237.749
 20
-4.93448
 11
-237.5
 21
-4.91666
  0
LINE
  8
0
 10
-237.5
 20
-4.91666
 11
-237.251
 21
-4.93448
  0
LINE
  8
0
 10
-237.251
 20
-4.93448
 11
-237.007
 21
-4.98755
  0
LINE
  8
0
 10
-237.007
 20
-4.98755
 11
-236.773
 21
-5.0748
  0
LINE
  8
0
 10
-236.773
 20
-5.0748
 11
-236.554
 21
-5.19446
  0
LINE
  8
0
 10
-236.554
 20
-5.19446
 11
-236.354
 21
-5.3441
  0
LINE
  8
0
 10
-236.354
 20
-5.3441
 11
-236.177
 21
-5.52065
  0
LINE
  8
0
 10
-236.177
 20
-5.52065
 11
-236.028
 21
-5.72054
  0
LINE
  8
0
 10
-236.028
 20
-5.72054
 11
-235.908
 21
-5.93968
  0
LINE
  8
0
 10
-235.908
 20
-5.93968
 11
-235.821
 21
-6.17363
  0
LINE
  8
0
 10
-235.821
 20
-6.17363
 11
-235.768
 21
-6.4176
  0
LINE
  8
0
 10
-235.768
 20
-6.4176
 11
-235.75
 21
-6.66666
  0
LINE
  8
0
 10
-235.75
 20
-6.66666
 11
-235.75
 21
-96.6667
  0
LINE
  8
0
 10
-235.75
 20
-96.6667
 11
-235.768
 21
-96.9157
  0
LINE
  8
0
 10
-235.768
 20
-96.9157
 11
-235.821
 21
-97.1597
  0
LINE
  8
0
 10
-235.821
 20
-97.1597
 11
-235.908
 21
-97.3936
  0
LINE
  8
0
 10
-235.908
 20
-97.3936
 11
-236.028
 21
-97.6128
  0
LINE
  8
0
 10
-236.028
 20
-97.6128
 11
-236.177
 21
-97.8127
  0
LINE
  8
0
 10
-236.177
 20
-97.8127
 11
-236.354
 21
-97.9892
  0
LINE
  8
0
 10
-236.354
 20
-97.9892
 11
-236.554
 21
-98.1389
  0
LINE
  8
0
 10
-236.554
 20
-98.1389
 11
-236.773
 21
-98.2585
  0
LINE
  8
0
 10
-236.773
 20
-98.2585
 11
-237.007
 21
-98.3458
  0
LINE
  8
0
 10
-237.007
 20
-98.3458
 11
-237.251
 21
-98.3988
  0
LINE
  8
0
 10
-237.251
 20
-98.3988
 11
-237.5
 21
-98.4167
  0
LINE
  8
0
 10
-237.5
 20
-98.4167
 11
-237.749
 21
-98.3988
  0
LINE
  8
0
 10
299.603
 20
-16.2792
 11
299.21
 21
-16.2169
  0
LINE
  8
0
 10
299.21
 20
-16.2169
 11
298.826
 21
-16.114
  0
LINE
  8
0
 10
298.826
 20
-16.114
 11
298.454
 21
-15.9715
  0
LINE
  8
0
 10
298.454
 20
-15.9715
 11
298.1
 21
-15.7909
  0
LINE
  8
0
 10
298.1
 20
-15.7909
 11
297.766
 21
-15.5743
  0
LINE
  8
0
 10
297.766
 20
-15.5743
 11
297.457
 21
-15.3239
  0
LINE
  8
0
 10
297.457
 20
-15.3239
 11
297.176
 21
-15.0427
  0
LINE
  8
0
 10
297.176
 20
-15.0427
 11
296.926
 21
-14.7336
  0
LINE
  8
0
 10
296.926
 20
-14.7336
 11
296.709
 21
-14.4
  0
LINE
  8
0
 10
296.709
 20
-14.4
 11
296.529
 21
-14.0456
  0
LINE
  8
0
 10
296.529
 20
-14.0456
 11
296.386
 21
-13.6743
  0
LINE
  8
0
 10
296.386
 20
-13.6743
 11
296.283
 21
-13.2901
  0
LINE
  8
0
 10
296.283
 20
-13.2901
 11
296.221
 21
-12.8972
  0
LINE
  8
0
 10
296.221
 20
-12.8972
 11
296.2
 21
-12.5
  0
LINE
  8
0
 10
296.2
 20
-12.5
 11
296.221
 21
-12.1028
  0
LINE
  8
0
 10
296.221
 20
-12.1028
 11
296.283
 21
-11.7099
  0
LINE
  8
0
 10
296.283
 20
-11.7099
 11
296.386
 21
-11.3257
  0
LINE
  8
0
 10
296.386
 20
-11.3257
 11
296.529
 21
-10.9544
  0
LINE
  8
0
 10
296.529
 20
-10.9544
 11
296.709
 21
-10.6
  0
LINE
  8
0
 10
296.709
 20
-10.6
 11
296.926
 21
-10.2664
  0
LINE
  8
0
 10
296.926
 20
-10.2664
 11
297.176
 21
-9.95729
  0
LINE
  8
0
 10
297.176
 20
-9.95729
 11
297.457
 21
-9.67604
  0
LINE
  8
0
 10
297.457
 20
-9.67604
 11
297.766
 21
-9.42572
  0
LINE
  8
0
 10
297.766
 20
-9.42572
 11
298.1
 21
-9.20909
  0
LINE
  8
0
 10
298.1
 20
-9.20909
 11
298.454
 21
-9.02852
  0
LINE
  8
0
 10
298.454
 20
-9.02852
 11
298.826
 21
-8.88597
  0
LINE
  8
0
 10
298.826
 20
-8.88597
 11
299.21
 21
-8.78304
  0
LINE
  8
0
 10
299.21
 20
-8.78304
 11
299.603
 21
-8.72081
  0
LINE
  8
0
 10
299.603
 20
-8.72081
 11
300
 21
-8.7
  0
LINE
  8
0
 10
300
 20
-8.7
 11
300.397
 21
-8.72081
  0
LINE
  8
0
 10
300.397
 20
-8.72081
 11
300.79
 21
-8.78304
  0
LINE
  8
0
 10
300.79
 20
-8.78304
 11
301.174
 21
-8.88597
  0
LINE
  8
0
 10
301.174
 20
-8.88597
 11
301.546
 21
-9.02852
  0
LINE
  8
0
 10
301.546
 20
-9.02852
 11
301.9
 21
-9.20909
  0
LINE
  8
0
 10
301.9
 20
-9.20909
 11
302.234
 21
-9.42572
  0
LINE
  8
0
 10
302.234
 20
-9.42572
 11
302.543
 21
-9.67604
  0
LINE
  8
0
 10
302.543
 20
-9.67604
 11
302.824
 21
-9.95729
  0
LINE
  8
0
 10
302.824
 20
-9.95729
 11
303.074
 21
-10.2664
  0
LINE
  8
0
 10
303.074
 20
-10.2664
 11
303.291
 21
-10.6
  0
LINE
  8
0
 10
303.291
 20
-10.6
 11
303.471
 21
-10.9544
  0
LINE
  8
0
 10
303.471
 20
-10.9544
 11
303.614
 21
-11.3257
  0
LINE
  8
0
 10
303.614
 20
-11.3257
 11
303.717
 21
-11.7099
  0
LINE
  8
0
 10
303.717
 20
-11.7099
 11
303.779
 21
-12.1028
  0
LINE
  8
0
 10
303.779
 20
-12.1028
 11
303.8
 21
-12.5
  0
LINE
  8
0
 10
303.8
 20
-12.5
 11
303.779
 21
-12.8972
  0
LINE
  8
0
 10
303.779
 20
-12.8972
 11
303.717
 21
-13.2901
  0
LINE
  8
0
 10
303.717
 20
-13.2901
 11
303.614
 21
-13.6743
  0
LINE
  8
0
 10
303.614
 20
-13.6743
 11
303.471
 21
-14.0456
  0
LINE
  8
0
 10
303.471
 20
-14.0456
 11
303.291
 21
-14.4
  0
LINE
  8
0
 10
303.291
 20
-14.4
 11
303.074
 21
-14.7336
  0
LINE
  8
0
 10
303.074
 20
-14.7336
 11
302.824
 21
-15.0427
  0
LINE
  8
0
 10
302.824
 20
-15.0427
 11
302.543
 21
-15.3239
  0
LINE
  8
0
 10
302.543
 20
-15.3239
 11
302.234
 21
-15.5743
  0
LINE
  8
0
 10
302.234
 20
-15.5743
 11
301.9
 21
-15.7909
  0
LINE
  8
0
 10
301.9
 20
-15.7909
 11
301.546
 21
-15.9715
  0
LINE
  8
0
 10
301.546
 20
-15.9715
 11
301.174
 21
-16.114
  0
LINE
  8
0
 10
301.174
 20
-16.114
 11
300.79
 21
-16.2169
  0
LINE
  8
0
 10
300.79
 20
-16.2169
 11
300.397
 21
-16.2792
  0
LINE
  8
0
 10
300.397
 20
-16.2792
 11
300
 21
-16.3
  0
LINE
  8
0
 10
300
 20
-16.3
 11
299.603
 21
-16.2792
  0
LINE
  8
0
 10
-300.397
 20
-16.2792
 11
-300.79
 21
-16.2169
  0
LINE
  8
0
 10
-300.79
 20
-16.2169
 11
-301.174
 21
-16.114
  0
LINE
  8
0
 10
-301.174
 20
-16.114
 11
-301.546
 21
-15.9715
  0
LINE
  8
0
 10
-301.546
 20
-15.9715
 11
-301.9
 21
-15.7909
  0
LINE
  8
0
 10
-301.9
 20
-15.7909
 11
-302.234
 21
-15.5743
  0
LINE
  8
0
 10
-302.234
 20
-15.5743
 11
-302.543
 21
-15.3239
  0
LINE
  8
0
 10
-302.543
 20
-15.3239
 11
-302.824
 21
-15.0427
  0
LINE
  8
0
 10
-302.824
 20
-15.0427
 11
-303.074
 21
-14.7336
  0
LINE
  8
0
 10
-303.074
 20
-14.7336
 11
-303.291
 21
-14.4
  0
LINE
  8
0
 10
-303.291
 20
-14.4
 11
-303.471
 21
-14.0456
  0
LINE
  8
0
 10
-303.471
 20
-14.0456
 11
-303.614
 21
-13.6743
  0
LINE
  8
0
 10
-303.614
 20
-13.6743
 11
-303.717
 21
-13.2901
  0
LINE
  8
0
 10
-303.717
 20
-13.2901
 11
-303.779
 21
-12.8972
  0
LINE
  8
0
 10
-303.779
 20
-12.8972
 11
-303.8
 21
-12.5
  0
LINE
  8
0
 10
-303.8
 20
-12.5
 11
-303.779
 21
-12.1028
  0
LINE
  8
0
 10
-303.779
 20
-12.1028
 11
-303.717
 21
-11.7099
  0
LINE
  8
0
 10
-303.717
 20
-11.7099
 11
-303.614
 21
-11.3257
  0
LINE
  8
0
 10
-303.614
 20
-11.3257
 11
-303.471
 21
-10.9544
  0
LINE
  8
0
 10
-303.471
 20
-10.9544
 11
-303.291
 21
-10.6
  0
LINE
  8
0
 10
-303.291
 20
-10.6
 11
-303.074
 21
-10.2664
  0
LINE
  8
0
 10
-303.074
 20
-10.2664
 11
-302.824
 21
-9.95729
  0
LINE
  8
0
 10
-302.824
 20
-9.95729
 11
-302.543
 21
-9.67604
  0
LINE
  8
0
 10
-302.543
 20
-9.67604
 11
-302.234
 21
-9.42572
  0
LINE
  8
0
 10
-302.234
 20
-9.42572
 11
-301.9
 21
-9.20909
  0
LINE
  8
0
 10
-301.9
 20
-9.20909
 11
-301.546
 21
-9.02852
  0
LINE
  8
0
 10
-301.546
 20
-9.02852
 11
-301.174
 21
-8.88597
  0
LINE
  8
0
 10
-301.174
 20
-8.88597
 11
-300.79
 21
-8.78304
  0
LINE
  8
0
 10
-300.79
 20
-8.78304
 11
-300.397
 21
-8.72081
  0
LINE
  8
0
 10
-300.397
 20
-8.72081
 11
-300
 21
-8.7
  0
LINE
  8
0
 10
-300
 20
-8.7
 11
-299.603
 21
-8.72081
  0
LINE
  8
0
 10
-299.603
 20
-8.72081
 11
-299.21
 21
-8.78304
  0
LINE
  8
0
 10
-299.21
 20
-8.78304
 11
-298.826
 21
-8.88597
  0
LINE
  8
0
 10
-298.826
 20
-8.88597
 11
-298.454
 21
-9.02852
  0
LINE
  8
0
 10
-298.454
 20
-9.02852
 11
-298.1
 21
-9.20909
  0
LINE
  8
0
 10
-298.1
 20
-9.20909
 11
-297.766
 21
-9.42572
  0
LINE
  8
0
 10
-297.766
 20
-9.42572
 11
-297.457
 21
-9.67604
  0
LINE
  8
0
 10
-297.457
 20
-9.67604
 11
-297.176
 21
-9.95729
  0
LINE
  8
0
 10
-297.176
 20
-9.95729
 11
-296.926
 21
-10.2664
  0
LINE
  8
0
 10
-296.926
 20
-10.2664
 11
-296.709
 21
-10.6
  0
LINE
  8
0
 10
-296.709
 20
-10.6
 11
-296.529
 21
-10.9544
  0
LINE
  8
0
 10
-296.529
 20
-10.9544
 11
-296.386
 21
-11.3257
  0
LINE
  8
0
 10
-296.386
 20
-11.3257
 11
-296.283
 21
-11.7099
  0
LINE
  8
0
 10
-296.283
 20
-11.7099
 11
-296.221
 21
-12.1028
  0
LINE
  8
0
 10
-296.221
 20
-12.1028
 11
-296.2
 21
-12.5
  0
LINE
  8
0
 10
-296.2
 20
-12.5
 11
-296.221
 21
-12.8972
  0
LINE
  8
0
 10
-296.221
 20
-12.8972
 11
-296.283
 21
-13.2901
  0
LINE
  8
0
 10
-296.283
 20
-13.2901
 11
-296.386
 21
-13.6743
  0
LINE
  8
0
 10
-296.386
 20
-13.6743
 11
-296.529
 21
-14.0456
  0
LINE
  8
0
 10
-296.529
 20
-14.0456
 11
-296.709
 21
-14.4
  0
LINE
  8
0
 10
-296.709
 20
-14.4
 11
-296.926
 21
-14.7336
  0
LINE
  8
0
 10
-296.926
 20
-14.7336
 11
-297.176
 21
-15.0427
  0
LINE
  8
0
 10
-297.176
 20
-15.0427
 11
-297.457
 21
-15.3239
  0
LINE
  8
0
 10
-297.457
 20
-15.3239
 11
-297.766
 21
-15.5743
  0
LINE
  8
0
 10
-297.766
 20
-15.5743
 11
-298.1
 21
-15.7909
  0
LINE
  8
0
 10
-298.1
 20
-15.7909
 11
-298.454
 21
-15.9715
  0
LINE
  8
0
 10
-298.454
 20
-15.9715
 11
-298.826
 21
-16.114
  0
LINE
  8
0
 10
-298.826
 20
-16.114
 11
-299.21
 21
-16.2169
  0
LINE
  8
0
 10
-299.21
 20
-16.2169
 11
-299.603
 21
-16.2792
  0
LINE
  8
0
 10
-299.603
 20
-16.2792
 11
-300
 21
-16.3
  0
LINE
  8
0
 10
-300
 20
-16.3
 11
-300.397
 21
-16.2792
  0
LINE
  8
0
 10
299.603
 20
-36.2792
 11
299.21
 21
-36.2169
  0
LINE
  8
0
 10
299.21
 20
-36.2169
 11
298.826
 21
-36.114
  0
LINE
  8
0
 10
298.826
 20
-36.114
 11
298.454
 21
-35.9715
  0
LINE
  8
0
 10
298.454
 20
-35.9715
 11
298.1
 21
-35.7909
  0
LINE
  8
0
 10
298.1
 20
-35.7909
 11
297.766
 21
-35.5743
  0
LINE
  8
0
 10
297.766
 20
-35.5743
 11
297.457
 21
-35.3239
  0
LINE
  8
0
 10
297.457
 20
-35.3239
 11
297.176
 21
-35.0427
  0
LINE
  8
0
 10
297.176
 20
-35.0427
 11
296.926
 21
-34.7336
  0
LINE
  8
0
 10
296.926
 20
-34.7336
 11
296.709
 21
-34.4
  0
LINE
  8
0
 10
296.709
 20
-34.4
 11
296.529
 21
-34.0456
  0
LINE
  8
0
 10
296.529
 20
-34.0456
 11
296.386
 21
-33.6743
  0
LINE
  8
0
 10
296.386
 20
-33.6743
 11
296.283
 21
-33.2901
  0
LINE
  8
0
 10
296.283
 20
-33.2901
 11
296.221
 21
-32.8972
  0
LINE
  8
0
 10
296.221
 20
-32.8972
 11
296.2
 21
-32.5
  0
LINE
  8
0
 10
296.2
 20
-32.5
 11
296.221
 21
-32.1028
  0
LINE
  8
0
 10
296.221
 20
-32.1028
 11
296.283
 21
-31.7099
  0
LINE
  8
0
 10
296.283
 20
-31.7099
 11
296.386
 21
-31.3257
  0
LINE
  8
0
 10
296.386
 20
-31.3257
 11
296.529
 21
-30.9544
  0
LINE
  8
0
 10
296.529
 20
-30.9544
 11
296.709
 21
-30.6
  0
LINE
  8
0
 10
296.709
 20
-30.6
 11
296.926
 21
-30.2664
  0
LINE
  8
0
 10
296.926
 20
-30.2664
 11
297.176
 21
-29.9573
  0
LINE
  8
0
 10
297.176
 20
-29.9573
 11
297.457
 21
-29.676
  0
LINE
  8
0
 10
297.457
 20
-29.676
 11
297.766
 21
-29.4257
  0
LINE
  8
0
 10
297.766
 20
-29.4257
 11
298.1
 21
-29.2091
  0
LINE
  8
0
 10
298.1
 20
-29.2091
 11
298.454
 21
-29.0285
  0
LINE
  8
0
 10
298.454
 20
-29.0285
 11
298.826
 21
-28.886
  0
LINE
  8
0
 10
298.826
 20
-28.886
 11
299.21
 21
-28.783
  0
LINE
  8
0
 10
299.21
 20
-28.783
 11
299.603
 21
-28.7208
  0
LINE
  8
0
 10
299.603
 20
-28.7208
 11
300
 21
-28.7
  0
LINE
  8
0
 10
300
 20
-28.7
 11
300.397
 21
-28.7208
  0
LINE
  8
0
 10
300.397
 20
-28.7208
 11
300.79
 21
-28.783
  0
LINE
  8
0
 10
300.79
 20
-28.783
 11
301.174
 21
-28.886
  0
LINE
  8
0
 10
301.174
 20
-28.886
 11
301.546
 21
-29.0285
  0
LINE
  8
0
 10
301.546
 20
-29.0285
 11
301.9
 21
-29.2091
  0
LINE
  8
0
 10
301.9
 20
-29.2091
 11
302.234
 21
-29.4257
  0
LINE
  8
0
 10
302.234
 20
-29.4257
 11
302.543
 21
-29.676
  0
LINE
  8
0
 10
302.543
 20
-29.676
 11
302.824
 21
-29.9573
  0
LINE
  8
0
 10
302.824
 20
-29.9573
 11
303.074
 21
-30.2664
  0
LINE
  8
0
 10
303.074
 20
-30.2664
 11
303.291
 21
-30.6
  0
LINE
  8
0
 10
303.291
 20
-30.6
 11
303.471
 21
-30.9544
  0
LINE
  8
0
 10
303.471
 20
-30.9544
 11
303.614
 21
-31.3257
  0
LINE
  8
0
 10
303.614
 20
-31.3257
 11
303.717
 21
-31.7099
  0
LINE
  8
0
 10
303.717
 20
-31.7099
 11
303.779
 21
-32.1028
  0
LINE
  8
0
 10
303.779
 20
-32.1028
 11
303.8
 21
-32.5
  0
LINE
  8
0
 10
303.8
 20
-32.5
 11
303.779
 21
-32.8972
  0
LINE
  8
0
 10
303.779
 20
-32.8972
 11
303.717
 21
-33.2901
  0
LINE
  8
0
 10
303.717
 20
-33.2901
 11
303.614
 21
-33.6743
  0
LINE
  8
0
 10
303.614
 20
-33.6743
 11
303.471
 21
-34.0456
  0
LINE
  8
0
 10
303.471
 20
-34.0456
 11
303.291
 21
-34.4
  0
LINE
  8
0
 10
303.291
 20
-34.4
 11
303.074
 21
-34.7336
  0
LINE
  8
0
 10
303.074
 20
-34.7336
 11
302.824
 21
-35.0427
  0
LINE
  8
0
 10
302.824
 20
-35.0427
 11
302.543
 21
-35.3239
  0
LINE
  8
0
 10
302.543
 20
-35.3239
 11
302.234
 21
-35.5743
  0
LINE
  8
0
 10
302.234
 20
-35.5743
 11
301.9
 21
-35.7909
  0
LINE
  8
0
 10
301.9
 20
-35.7909
 11
301.546
 21
-35.9715
  0
LINE
  8
0
 10
301.546
 20
-35.9715
 11
301.174
 21
-36.114
  0
LINE
  8
0
 10
301.174
 20
-36.114
 11
300.79
 21
-36.2169
  0
LINE
  8
0
 10
300.79
 20
-36.2169
 11
300.397
 21
-36.2792
  0
LINE
  8
0
 10
300.397
 20
-36.2792
 11
300
 21
-36.3
  0
LINE
  8
0
 10
300
 20
-36.3
 11
299.603
 21
-36.2792
  0
LINE
  8
0
 10
-300.397
 20
-36.2792
 11
-300.79
 21
-36.2169
  0
LINE
  8
0
 10
-300.79
 20
-36.2169
 11
-301.174
 21
-36.114
  0
LINE
  8
0
 10
-301.174
 20
-36.114
 11
-301.546
 21
-35.9715
  0
LINE
  8
0
 10
-301.546
 20
-35.9715
 11
-301.9
 21
-35.7909
  0
LINE
  8
0
 10
-301.9
 20
-35.7909
 11
-302.234
 21
-35.5743
  0
LINE
  8
0
 10
-302.234
 20
-35.5743
 11
-302.543
 21
-35.3239
  0
LINE
  8
0
 10
-302.543
 20
-35.3239
 11
-302.824
 21
-35.0427
  0
LINE
  8
0
 10
-302.824
 20
-35.0427
 11
-303.074
 21
-34.7336
  0
LINE
  8
0
 10
-303.074
 20
-34.7336
 11
-303.291
 21
-34.4
  0
LINE
  8
0
 10
-303.291
 20
-34.4
 11
-303.471
 21
-34.0456
  0
LINE
  8
0
 10
-303.471
 20
-34.0456
 11
-303.614
 21
-33.6743
  0
LINE
  8
0
 10
-303.614
 20
-33.6743
 11
-303.717
 21
-33.2901
  0
LINE
  8
0
 10
-303.717
 20
-33.2901
 11
-303.779
 21
-32.8972
  0
LINE
  8
0
 10
-303.779
 20
-32.8972
 11
-303.8
 21
-32.5
  0
LINE
  8
0
 10
-303.8
 20
-32.5
 11
-303.779
 21
-32.1028
  0
LINE
  8
0
 10
-303.779
 20
-32.1028
 11
-303.717
 21
-31.7099
  0
LINE
  8
0
 10
-303.717
 20
-31.7099
 11
-303.614
 21
-31.3257
  0
LINE
  8
0
 10
-303.614
 20
-31.3257
 11
-303.471
 21
-30.9544
  0
LINE
  8
0
 10
-303.471
 20
-30.9544
 11
-303.291
 21
-30.6
  0
LINE
  8
0
 10
-303.291
 20
-30.6
 11
-303.074
 21
-30.2664
  0
LINE
  8
0
 10
-303.074
 20
-30.2664
 11
-302.824
 21
-29.9573
  0
LINE
  8
0
 10
-302.824
 20
-29.9573
 11
-302.543
 21
-29.676
  0
LINE
  8
0
 10
-302.543
 20
-29.676
 11
-302.234
 21
-29.4257
  0
LINE
  8
0
 10
-302.234
 20
-29.4257
 11
-301.9
 21
-29.2091
  0
LINE
  8
0
 10
-301.9
 20
-29.2091
 11
-301.546
 21
-29.0285
  0
LINE
  8
0
 10
-301.546
 20
-29.0285
 11
-301.174
 21
-28.886
  0
LINE
  8
0
 10
-301.174
 20
-28.886
 11
-300.79
 21
-28.783
  0
LINE
  8
0
 10
-300.79
 20
-28.783
 11
-300.397
 21
-28.7208
  0
LINE
  8
0
 10
-300.397
 20
-28.7208
 11
-300
 21
-28.7
  0
LINE
  8
0
 10
-300
 20
-28.7
 11
-299.603
 21
-28.7208
  0
LINE
  8
0
 10
-299.603
 20
-28.7208
 11
-299.21
 21
-28.783
  0
LINE
  8
0
 10
-299.21
 20
-28.783
 11
-298.826
 21
-28.886
  0
LINE
  8
0
 10
-298.826
 20
-28.886
 11
-298.454
 21
-29.0285
  0
LINE
  8
0
 10
-298.454
 20
-29.0285
 11
-298.1
 21
-29.2091
  0
LINE
  8
0
 10
-298.1
 20
-29.2091
 11
-297.766
 21
-29.4257
  0
LINE
  8
0
 10
-297.766
 20
-29.4257
 11
-297.457
 21
-29.676
  0
LINE
  8
0
 10
-297.457
 20
-29.676
 11
-297.176
 21
-29.9573
  0
LINE
  8
0
 10
-297.176
 20
-29.9573
 11
-296.926
 21
-30.2664
  0
LINE
  8
0
 10
-296.926
 20
-30.2664
 11
-296.709
 21
-30.6
  0
LINE
  8
0
 10
-296.709
 20
-30.6
 11
-296.529
 21
-30.9544
  0
LINE
  8
0
 10
-296.529
 20
-30.9544
 11
-296.386
 21
-31.3257
  0
LINE
  8
0
 10
-296.386
 20
-31.3257
 11
-296.283
 21
-31.7099
  0
LINE
  8
0
 10
-296.283
 20
-31.7099
 11
-296.221
 21
-32.1028
  0
LINE
  8
0
 10
-296.221
 20
-32.1028
 11
-296.2
 21
-32.5
  0
LINE
  8
0
 10
-296.2
 20
-32.5
 11
-296.221
 21
-32.8972
  0
LINE
  8
0
 10
-296.221
 20
-32.8972
 11
-296.283
 21
-33.2901
  0
LINE
  8
0
 10
-296.283
 20
-33.2901
 11
-296.386
 21
-33.6743
  0
LINE
  8
0
 10
-296.386
 20
-33.6743
 11
-296.529
 21
-34.0456
  0
LINE
  8
0
 10
-296.529
 20
-34.0456
 11
-296.709
 21
-34.4
  0
LINE
  8
0
 10
-296.709
 20
-34.4
 11
-296.926
 21
-34.7336
  0
LINE
  8
0
 10
-296.926
 20
-34.7336
 11
-297.176
 21
-35.0427
  0
LINE
  8
0
 10
-297.176
 20
-35.0427
 11
-297.457
 21
-35.3239
  0
LINE
  8
0
 10
-297.457
 20
-35.3239
 11
-297.766
 21
-35.5743
  0
LINE
  8
0
 10
-297.766
 20
-35.5743
 11
-298.1
 21
-35.7909
  0
LINE
  8
0
 10
-298.1
 20
-35.7909
 11
-298.454
 21
-35.9715
  0
LINE
  8
0
 10
-298.454
 20
-35.9715
 11
-298.826
 21
-36.114
  0
LINE
  8
0
 10
-298.826
 20
-36.114
 11
-299.21
 21
-36.2169
  0
LINE
  8
0
 10
-299.21
 20
-36.2169
 11
-299.603
 21
-36.2792
  0
LINE
  8
0
 10
-299.603
 20
-36.2792
 11
-300
 21
-36.3
  0
LINE
  8
0
 10
-300
 20
-36.3
 11
-300.397
 21
-36.2792
  0
LINE
  8
0
 10
299.749
 20
-54.8868
 11
299.501
 21
-54.8475
  0
LINE
  8
0
 10
299.501
 20
-54.8475
 11
299.258
 21
-54.7825
  0
LINE
  8
0
 10
299.258
 20
-54.7825
 11
299.024
 21
-54.6925
  0
LINE
  8
0
 10
299.024
 20
-54.6925
 11
298.8
 21
-54.5785
  0
LINE
  8
0
 10
298.8
 20
-54.5785
 11
298.589
 21
-54.4416
  0
LINE
  8
0
 10
298.589
 20
-54.4416
 11
298.394
 21
-54.2835
  0
LINE
  8
0
 10
298.394
 20
-54.2835
 11
298.216
 21
-54.1059
  0
LINE
  8
0
 10
298.216
 20
-54.1059
 11
298.058
 21
-53.9107
  0
LINE
  8
0
 10
298.058
 20
-53.9107
 11
297.922
 21
-53.7
  0
LINE
  8
0
 10
297.922
 20
-53.7
 11
297.807
 21
-53.4762
  0
LINE
  8
0
 10
297.807
 20
-53.4762
 11
297.717
 21
-53.2416
  0
LINE
  8
0
 10
297.717
 20
-53.2416
 11
297.652
 21
-52.999
  0
LINE
  8
0
 10
297.652
 20
-52.999
 11
297.613
 21
-52.7509
  0
LINE
  8
0
 10
297.613
 20
-52.7509
 11
297.6
 21
-52.5
  0
LINE
  8
0
 10
297.6
 20
-52.5
 11
297.613
 21
-52.2491
  0
LINE
  8
0
 10
297.613
 20
-52.2491
 11
297.652
 21
-52.001
  0
LINE
  8
0
 10
297.652
 20
-52.001
 11
297.717
 21
-51.7583
  0
LINE
  8
0
 10
297.717
 20
-51.7583
 11
297.807
 21
-51.5238
  0
LINE
  8
0
 10
297.807
 20
-51.5238
 11
297.922
 21
-51.3
  0
LINE
  8
0
 10
297.922
 20
-51.3
 11
298.058
 21
-51.0893
  0
LINE
  8
0
 10
298.058
 20
-51.0893
 11
298.216
 21
-50.8941
  0
LINE
  8
0
 10
298.216
 20
-50.8941
 11
298.394
 21
-50.7164
  0
LINE
  8
0
 10
298.394
 20
-50.7164
 11
298.589
 21
-50.5583
  0
LINE
  8
0
 10
298.589
 20
-50.5583
 11
298.8
 21
-50.4215
  0
LINE
  8
0
 10
298.8
 20
-50.4215
 11
299.024
 21
-50.3075
  0
LINE
  8
0
 10
299.024
 20
-50.3075
 11
299.258
 21
-50.2175
  0
LINE
  8
0
 10
299.258
 20
-50.2175
 11
299.501
 21
-50.1524
  0
LINE
  8
0
 10
299.501
 20
-50.1524
 11
299.749
 21
-50.1131
  0
LINE
  8
0
 10
299.749
 20
-50.1131
 11
300
 21
-50.1
  0
LINE
  8
0
 10
300
 20
-50.1
 11
300.251
 21
-50.1131
  0
LINE
  8
0
 10
300.251
 20
-50.1131
 11
300.499
 21
-50.1524
  0
LINE
  8
0
 10
300.499
 20
-50.1524
 11
300.742
 21
-50.2175
  0
LINE
  8
0
 10
300.742
 20
-50.2175
 11
300.976
 21
-50.3075
  0
LINE
  8
0
 10
300.976
 20
-50.3075
 11
301.2
 21
-50.4215
  0
LINE
  8
0
 10
301.2
 20
-50.4215
 11
301.411
 21
-50.5583
  0
LINE
  8
0
 10
301.411
 20
-50.5583
 11
301.606
 21
-50.7164
  0
LINE
  8
0
 10
301.606
 20
-50.7164
 11
301.784
 21
-50.8941
  0
LINE
  8
0
 10
301.784
 20
-50.8941
 11
301.942
 21
-51.0893
  0
LINE
  8
0
 10
301.942
 20
-51.0893
 11
302.078
 21
-51.3
  0
LINE
  8
0
 10
302.078
 20
-51.3
 11
302.193
 21
-51.5238
  0
LINE
  8
0
 10
302.193
 20
-51.5238
 11
302.283
 21
-51.7583
  0
LINE
  8
0
 10
302.283
 20
-51.7583
 11
302.348
 21
-52.001
  0
LINE
  8
0
 10
302.348
 20
-52.001
 11
302.387
 21
-52.2491
  0
LINE
  8
0
 10
302.387
 20
-52.2491
 11
302.4
 21
-52.5
  0
LINE
  8
0
 10
302.4
 20
-52.5
 11
302.387
 21
-52.7509
  0
LINE
  8
0
 10
302.387
 20
-52.7509
 11
302.348
 21
-52.999
  0
LINE
  8
0
 10
302.348
 20
-52.999
 11
302.283
 21
-53.2416
  0
LINE
  8
0
 10
302.283
 20
-53.2416
 11
302.193
 21
-53.4762
  0
LINE
  8
0
 10
302.193
 20
-53.4762
 11
302.078
 21
-53.7
  0
LINE
  8
0
 10
302.078
 20
-53.7
 11
301.942
 21
-53.9107
  0
LINE
  8
0
 10
301.942
 20
-53.9107
 11
301.784
 21
-54.1059
  0
LINE
  8
0
 10
301.784
 20
-54.1059
 11
301.606
 21
-54.2835
  0
LINE
  8
0
 10
301.606
 20
-54.2835
 11
301.411
 21
-54.4416
  0
LINE
  8
0
 10
301.411
 20
-54.4416
 11
301.2
 21
-54.5785
  0
LINE
  8
0
 10
301.2
 20
-54.5785
 11
300.976
 21
-54.6925
  0
LINE
  8
0
 10
300.976
 20
-54.6925
 11
300.742
 21
-54.7825
  0
LINE
  8
0
 10
300.742
 20
-54.7825
 11
300.499
 21
-54.8475
  0
LINE
  8
0
 10
300.499
 20
-54.8475
 11
300.251
 21
-54.8868
  0
LINE
  8
0
 10
300.251
 20
-54.8868
 11
300
 21
-54.9
  0
LINE
  8
0
 10
300
 20
-54.9
 11
299.749
 21
-54.8868
  0
LINE
  8
0
 10
-300.251
 20
-54.8868
 11
-300.499
 21
-54.8475
  0
LINE
  8
0
 10
-300.499
 20
-54.8475
 11
-300.742
 21
-54.7825
  0
LINE
  8
0
 10
-300.742
 20
-54.7825
 11
-300.976
 21
-54.6925
  0
LINE
  8
0
 10
-300.976
 20
-54.6925
 11
-301.2
 21
-54.5785
  0
LINE
  8
0
 10
-301.2
 20
-54.5785
 11
-301.411
 21
-54.4416
  0
LINE
  8
0
 10
-301.411
 20
-54.4416
 11
-301.606
 21
-54.2835
  0
LINE
  8
0
 10
-301.606
 20
-54.2835
 11
-301.784
 21
-54.1059
  0
LINE
  8
0
 10
-301.784
 20
-54.1059
 11
-301.942
 21
-53.9107
  0
LINE
  8
0
 10
-301.942
 20
-53.9107
 11
-302.078
 21
-53.7
  0
LINE
  8
0
 10
-302.078
 20
-53.7
 11
-302.193
 21
-53.4762
  0
LINE
  8
0
 10
-302.193
 20
-53.4762
 11
-302.283
 21
-53.2416
  0
LINE
  8
0
 10
-302.283
 20
-53.2416
 11
-302.348
 21
-52.999
  0
LINE
  8
0
 10
-302.348
 20
-52.999
 11
-302.387
 21
-52.7509
  0
LINE
  8
0
 10
-302.387
 20
-52.7509
 11
-302.4
 21
-52.5
  0
LINE
  8
0
 10
-302.4
 20
-52.5
 11
-302.387
 21
-52.2491
  0
LINE
  8
0
 10
-302.387
 20
-52.2491
 11
-302.348
 21
-52.001
  0
LINE
  8
0
 10
-302.348
 20
-52.001
 11
-302.283
 21
-51.7583
  0
LINE
  8
0
 10
-302.283
 20
-51.7583
 11
-302.193
 21
-51.5238
  0
LINE
  8
0
 10
-302.193
 20
-51.5238
 11
-302.078
 21
-51.3
  0
LINE
  8
0
 10
-302.078
 20
-51.3
 11
-301.942
 21
-51.0893
  0
LINE
  8
0
 10
-301.942
 20
-51.0893
 11
-301.784
 21
-50.8941
  0
LINE
  8
0
 10
-301.784
 20
-50.8941
 11
-301.606
 21
-50.7164
  0
LINE
  8
0
 10
-301.606
 20
-50.7164
 11
-301.411
 21
-50.5583
  0
LINE
  8
0
 10
-301.411
 20
-50.5583
 11
-301.2
 21
-50.4215
  0
LINE
  8
0
 10
-301.2
 20
-50.4215
 11
-300.976
 21
-50.3075
  0
LINE
  8
0
 10
-300.976
 20
-50.3075
 11
-300.742
 21
-50.2175
  0
LINE
  8
0
 10
-300.742
 20
-50.2175
 11
-300.499
 21
-50.1524
  0
LINE
  8
0
 10
-300.499
 20
-50.1524
 11
-300.251
 21
-50.1131
  0
LINE
  8
0
 10
-300.251
 20
-50.1131
 11
-300
 21
-50.1
  0
LINE
  8
0
 10
-300
 20
-50.1
 11
-299.749
 21
-50.1131
  0
LINE
  8
0
 10
-299.749
 20
-50.1131
 11
-299.501
 21
-50.1524
  0
LINE
  8
0
 10
-299.501
 20
-50.1524
 11
-299.258
 21
-50.2175
  0
LINE
  8
0
 10
-299.258
 20
-50.2175
 11
-299.024
 21
-50.3075
  0
LINE
  8
0
 10
-299.024
 20
-50.3075
 11
-298.8
 21
-50.4215
  0
LINE
  8
0
 10
-298.8
 20
-50.4215
 11
-298.589
 21
-50.5583
  0
LINE
  8
0
 10
-298.589
 20
-50.5583
 11
-298.394
 21
-50.7164
  0
LINE
  8
0
 10
-298.394
 20
-50.7164
 11
-298.216
 21
-50.8941
  0
LINE
  8
0
 10
-298.216
 20
-50.8941
 11
-298.058
 21
-51.0893
  0
LINE
  8
0
 10
-298.058
 20
-51.0893
 11
-297.922
 21
-51.3
  0
LINE
  8
0
 10
-297.922
 20
-51.3
 11
-297.807
 21
-51.5238
  0
LINE
  8
0
 10
-297.807
 20
-51.5238
 11
-297.717
 21
-51.7583
  0
LINE
  8
0
 10
-297.717
 20
-51.7583
 11
-297.652
 21
-52.001
  0
LINE
  8
0
 10
-297.652
 20
-52.001
 11
-297.613
 21
-52.2491
  0
LINE
  8
0
 10
-297.613
 20
-52.2491
 11
-297.6
 21
-52.5
  0
LINE
  8
0
 10
-297.6
 20
-52.5
 11
-297.613
 21
-52.7509
  0
LINE
  8
0
 10
-297.613
 20
-52.7509
 11
-297.652
 21
-52.999
  0
LINE
  8
0
 10
-297.652
 20
-52.999
 11
-297.717
 21
-53.2416
  0
LINE
  8
0
 10
-297.717
 20
-53.2416
 11
-297.807
 21
-53.4762
  0
LINE
  8
0
 10
-297.807
 20
-53.4762
 11
-297.922
 21
-53.7
  0
LINE
  8
0
 10
-297.922
 20
-53.7
 11
-298.058
 21
-53.9107
  0
LINE
  8
0
 10
-298.058
 20
-53.9107
 11
-298.216
 21
-54.1059
  0
LINE
  8
0
 10
-298.216
 20
-54.1059
 11
-298.394
 21
-54.2835
  0
LINE
  8
0
 10
-298.394
 20
-54.2835
 11
-298.589
 21
-54.4416
  0
LINE
  8
0
 10
-298.589
 20
-54.4416
 11
-298.8
 21
-54.5785
  0
LINE
  8
0
 10
-298.8
 20
-54.5785
 11
-299.024
 21
-54.6925
  0
LINE
  8
0
 10
-299.024
 20
-54.6925
 11
-299.258
 21
-54.7825
  0
LINE
  8
0
 10
-299.258
 20
-54.7825
 11
-299.501
 21
-54.8475
  0
LINE
  8
0
 10
-299.501
 20
-54.8475
 11
-299.749
 21
-54.8868
  0
LINE
  8
0
 10
-299.749
 20
-54.8868
 11
-300
 21
-54.9
  0
LINE
  8
0
 10
-300
 20
-54.9
 11
-300.251
 21
-54.8868
  0
LINE
  8
0
 10
-300.251
 20
-74.8869
 11
-300.499
 21
-74.8475
  0
LINE
  8
0
 10
-300.499
 20
-74.8475
 11
-300.742
 21
-74.7825
  0
LINE
  8
0
 10
-300.742
 20
-74.7825
 11
-300.976
 21
-74.6925
  0
LINE
  8
0
 10
-300.976
 20
-74.6925
 11
-301.2
 21
-74.5785
  0
LINE
  8
0
 10
-301.2
 20
-74.5785
 11
-301.411
 21
-74.4416
  0
LINE
  8
0
 10
-301.411
 20
-74.4416
 11
-301.606
 21
-74.2835
  0
LINE
  8
0
 10
-301.606
 20
-74.2835
 11
-301.784
 21
-74.1059
  0
LINE
  8
0
 10
-301.784
 20
-74.1059
 11
-301.942
 21
-73.9107
  0
LINE
  8
0
 10
-301.942
 20
-73.9107
 11
-302.078
 21
-73.7
  0
LINE
  8
0
 10
-302.078
 20
-73.7
 11
-302.193
 21
-73.4762
  0
LINE
  8
0
 10
-302.193
 20
-73.4762
 11
-302.283
 21
-73.2416
  0
LINE
  8
0
 10
-302.283
 20
-73.2416
 11
-302.348
 21
-72.999
  0
LINE
  8
0
 10
-302.348
 20
-72.999
 11
-302.387
 21
-72.7509
  0
LINE
  8
0
 10
-302.387
 20
-72.7509
 11
-302.4
 21
-72.5
  0
LINE
  8
0
 10
-302.4
 20
-72.5
 11
-302.387
 21
-72.2491
  0
LINE
  8
0
 10
-302.387
 20
-72.2491
 11
-302.348
 21
-72.001
  0
LINE
  8
0
 10
-302.348
 20
-72.001
 11
-302.283
 21
-71.7584
  0
LINE
  8
0
 10
-302.283
 20
-71.7584
 11
-302.193
 21
-71.5238
  0
LINE
  8
0
 10
-302.193
 20
-71.5238
 11
-302.078
 21
-71.3
  0
LINE
  8
0
 10
-302.078
 20
-71.3
 11
-301.942
 21
-71.0893
  0
LINE
  8
0
 10
-301.942
 20
-71.0893
 11
-301.784
 21
-70.8941
  0
LINE
  8
0
 10
-301.784
 20
-70.8941
 11
-301.606
 21
-70.7164
  0
LINE
  8
0
 10
-301.606
 20
-70.7164
 11
-301.411
 21
-70.5583
  0
LINE
  8
0
 10
-301.411
 20
-70.5583
 11
-301.2
 21
-70.4215
  0
LINE
  8
0
 10
-301.2
 20
-70.4215
 11
-300.976
 21
-70.3075
  0
LINE
  8
0
 10
-300.976
 20
-70.3075
 11
-300.742
 21
-70.2175
  0
LINE
  8
0
 10
-300.742
 20
-70.2175
 11
-300.499
 21
-70.1524
  0
LINE
  8
0
 10
-300.499
 20
-70.1524
 11
-300.251
 21
-70.1131
  0
LINE
  8
0
 10
-300.251
 20
-70.1131
 11
-300
 21
-70.1
  0
LINE
  8
0
 10
-300
 20
-70.1
 11
-299.749
 21
-70.1131
  0
LINE
  8
0
 10
-299.749
 20
-70.1131
 11
-299.501
 21
-70.1524
  0
LINE
  8
0
 10
-299.501
 20
-70.1524
 11
-299.258
 21
-70.2175
  0
LINE
  8
0
 10
-299.258
 20
-70.2175
 11
-299.024
 21
-70.3075
  0
LINE
  8
0
 10
-299.024
 20
-70.3075
 11
-298.8
 21
-70.4215
  0
LINE
  8
0
 10
-298.8
 20
-70.4215
 11
-298.589
 21
-70.5583
  0
LINE
  8
0
 10
-298.589
 20
-70.5583
 11
-298.394
 21
-70.7164
  0
LINE
  8
0
 10
-298.394
 20
-70.7164
 11
-298.216
 21
-70.8941
  0
LINE
  8
0
 10
-298.216
 20
-70.8941
 11
-298.058
 21
-71.0893
  0
LINE
  8
0
 10
-298.058
 20
-71.0893
 11
-297.922
 21
-71.3
  0
LINE
  8
0
 10
-297.922
 20
-71.3
 11
-297.807
 21
-71.5238
  0
LINE
  8
0
 10
-297.807
 20
-71.5238
 11
-297.717
 21
-71.7584
  0
LINE
  8
0
 10
-297.717
 20
-71.7584
 11
-297.652
 21
-72.001
  0
LINE
  8
0
 10
-297.652
 20
-72.001
 11
-297.613
 21
-72.2491
  0
LINE
  8
0
 10
-297.613
 20
-72.2491
 11
-297.6
 21
-72.5
  0
LINE
  8
0
 10
-297.6
 20
-72.5
 11
-297.613
 21
-72.7509
  0
LINE
  8
0
 10
-297.613
 20
-72.7509
 11
-297.652
 21
-72.999
  0
LINE
  8
0
 10
-297.652
 20
-72.999
 11
-297.717
 21
-73.2416
  0
LINE
  8
0
 10
-297.717
 20
-73.2416
 11
-297.807
 21
-73.4762
  0
LINE
  8
0
 10
-297.807
 20
-73.4762
 11
-297.922
 21
-73.7
  0
LINE
  8
0
 10
-297.922
 20
-73.7
 11
-298.058
 21
-73.9107
  0
LINE
  8
0
 10
-298.058
 20
-73.9107
 11
-298.216
 21
-74.1059
  0
LINE
  8
0
 10
-298.216
 20
-74.1059
 11
-298.394
 21
-74.2835
  0
LINE
  8
0
 10
-298.394
 20
-74.2835
 11
-298.589
 21
-74.4416
  0
LINE
  8
0
 10
-298.589
 20
-74.4416
 11
-298.8
 21
-74.5785
  0
LINE
  8
0
 10
-298.8
 20
-74.5785
 11
-299.024
 21
-74.6925
  0
LINE
  8
0
 10
-299.024
 20
-74.6925
 11
-299.258
 21
-74.7825
  0
LINE
  8
0
 10
-299.258
 20
-74.7825
 11
-299.501
 21
-74.8475
  0
LINE
  8
0
 10
-299.501
 20
-74.8475
 11
-299.749
 21
-74.8869
  0
LINE
  8
0
 10
-299.749
 20
-74.8869
 11
-300
 21
-74.9
  0
LINE
  8
0
 10
-300
 20
-74.9
 11
-300.251
 21
-74.8869
  0
LINE
  8
0
 10
299.749
 20
-74.8869
 11
299.501
 21
-74.8475
  0
LINE
  8
0
 10
299.501
 20
-74.8475
 11
299.258
 21
-74.7825
  0
LINE
  8
0
 10
299.258
 20
-74.7825
 11
299.024
 21
-74.6925
  0
LINE
  8
0
 10
299.024
 20
-74.6925
 11
298.8
 21
-74.5785
  0
LINE
  8
0
 10
298.8
 20
-74.5785
 11
298.589
 21
-74.4416
  0
LINE
  8
0
 10
298.589
 20
-74.4416
 11
298.394
 21
-74.2835
  0
LINE
  8
0
 10
298.394
 20
-74.2835
 11
298.216
 21
-74.1059
  0
LINE
  8
0
 10
298.216
 20
-74.1059
 11
298.058
 21
-73.9107
  0
LINE
  8
0
 10
298.058
 20
-73.9107
 11
297.922
 21
-73.7
  0
LINE
  8
0
 10
297.922
 20
-73.7
 11
297.807
 21
-73.4762
  0
LINE
  8
0
 10
297.807
 20
-73.4762
 11
297.717
 21
-73.2416
  0
LINE
  8
0
 10
297.717
 20
-73.2416
 11
297.652
 21
-72.999
  0
LINE
  8
0
 10
297.652
 20
-72.999
 11
297.613
 21
-72.7509
  0
LINE
  8
0
 10
297.613
 20
-72.7509
 11
297.6
 21
-72.5
  0
LINE
  8
0
 10
297.6
 20
-72.5
 11
297.613
 21
-72.2491
  0
LINE
  8
0
 10
297.613
 20
-72.2491
 11
297.652
 21
-72.001
  0
LINE
  8
0
 10
297.652
 20
-72.001
 11
297.717
 21
-71.7584
  0
LINE
  8
0
 10
297.717
 20
-71.7584
 11
297.807
 21
-71.5238
  0
LINE
  8
0
 10
297.807
 20
-71.5238
 11
297.922
 21
-71.3
  0
LINE
  8
0
 10
297.922
 20
-71.3
 11
298.058
 21
-71.0893
  0
LINE
  8
0
 10
298.058
 20
-71.0893
 11
298.216
 21
-70.8941
  0
LINE
  8
0
 10
298.216
 20
-70.8941
 11
298.394
 21
-70.7164
  0
LINE
  8
0
 10
298.394
 20
-70.7164
 11
298.589
 21
-70.5583
  0
LINE
  8
0
 10
298.589
 20
-70.5583
 11
298.8
 21
-70.4215
  0
LINE
  8
0
 10
298.8
 20
-70.4215
 11
299.024
 21
-70.3075
  0
LINE
  8
0
 10
299.024
 20
-70.3075
 11
299.258
 21
-70.2175
  0
LINE
  8
0
 10
299.258
 20
-70.2175
 11
299.501
 21
-70.1524
  0
LINE
  8
0
 10
299.501
 20
-70.1524
 11
299.749
 21
-70.1131
  0
LINE
  8
0
 10
299.749
 20
-70.1131
 11
300
 21
-70.1
  0
LINE
  8
0
 10
300
 20
-70.1
 11
300.251
 21
-70.1131
  0
LINE
  8
0
 10
300.251
 20
-70.1131
 11
300.499
 21
-70.1524
  0
LINE
  8
0
 10
300.499
 20
-70.1524
 11
300.742
 21
-70.2175
  0
LINE
  8
0
 10
300.742
 20
-70.2175
 11
300.976
 21
-70.3075
  0
LINE
  8
0
 10
300.976
 20
-70.3075
 11
301.2
 21
-70.4215
  0
LINE
  8
0
 10
301.2
 20
-70.4215
 11
301.411
 21
-70.5583
  0
LINE
  8
0
 10
301.411
 20
-70.5583
 11
301.606
 21
-70.7164
  0
LINE
  8
0
 10
301.606
 20
-70.7164
 11
301.784
 21
-70.8941
  0
LINE
  8
0
 10
301.784
 20
-70.8941
 11
301.942
 21
-71.0893
  0
LINE
  8
0
 10
301.942
 20
-71.0893
 11
302.078
 21
-71.3
  0
LINE
  8
0
 10
302.078
 20
-71.3
 11
302.193
 21
-71.5238
  0
LINE
  8
0
 10
302.193
 20
-71.5238
 11
302.283
 21
-71.7584
  0
LINE
  8
0
 10
302.283
 20
-71.7584
 11
302.348
 21
-72.001
  0
LINE
  8
0
 10
302.348
 20
-72.001
 11
302.387
 21
-72.2491
  0
LINE
  8
0
 10
302.387
 20
-72.2491
 11
302.4
 21
-72.5
  0
LINE
  8
0
 10
302.4
 20
-72.5
 11
302.387
 21
-72.7509
  0
LINE
  8
0
 10
302.387
 20
-72.7509
 11
302.348
 21
-72.999
  0
LINE
  8
0
 10
302.348
 20
-72.999
 11
302.283
 21
-73.2416
  0
LINE
  8
0
 10
302.283
 20
-73.2416
 11
302.193
 21
-73.4762
  0
LINE
  8
0
 10
302.193
 20
-73.4762
 11
302.078
 21
-73.7
  0
LINE
  8
0
 10
302.078
 20
-73.7
 11
301.942
 21
-73.9107
  0
LINE
  8
0
 10
301.942
 20
-73.9107
 11
301.784
 21
-74.1059
  0
LINE
  8
0
 10
301.784
 20
-74.1059
 11
301.606
 21
-74.2835
  0
LINE
  8
0
 10
301.606
 20
-74.2835
 11
301.411
 21
-74.4416
  0
LINE
  8
0
 10
301.411
 20
-74.4416
 11
301.2
 21
-74.5785
  0
LINE
  8
0
 10
301.2
 20
-74.5785
 11
300.976
 21
-74.6925
  0
LINE
  8
0
 10
300.976
 20
-74.6925
 11
300.742
 21
-74.7825
  0
LINE
  8
0
 10
300.742
 20
-74.7825
 11
300.499
 21
-74.8475
  0
LINE
  8
0
 10
300.499
 20
-74.8475
 11
300.251
 21
-74.8869
  0
LINE
  8
0
 10
300.251
 20
-74.8869
 11
300
 21
-74.9
  0
LINE
  8
0
 10
300
 20
-74.9
 11
299.749
 21
-74.8869
  0
LINE
  8
0
 10
-237.749
 20
-201.732
 11
-237.993
 21
-201.679
  0
LINE
  8
0
 10
-237.993
 20
-201.679
 11
-238.227
 21
-201.592
  0
LINE
  8
0
 10
-238.227
 20
-201.592
 11
-238.446
 21
-201.472
  0
LINE
  8
0
 10
-238.446
 20
-201.472
 11
-238.646
 21
-201.323
  0
LINE
  8
0
 10
-238.646
 20
-201.323
 11
-238.823
 21
-201.146
  0
LINE
  8
0
 10
-238.823
 20
-201.146
 11
-238.972
 21
-200.946
  0
LINE
  8
0
 10
-238.972
 20
-200.946
 11
-239.092
 21
-200.727
  0
LINE
  8
0
 10
-239.092
 20
-200.727
 11
-239.179
 21
-200.493
  0
LINE
  8
0
 10
-239.179
 20
-200.493
 11
-239.232
 21
-200.249
  0
LINE
  8
0
 10
-239.232
 20
-200.249
 11
-239.25
 21
-200
  0
LINE
  8
0
 10
-239.25
 20
-200
 11
-239.25
 21
-110
  0
LINE
  8
0
 10
-239.25
 20
-110
 11
-239.232
 21
-109.751
  0
LINE
  8
0
 10
-239.232
 20
-109.751
 11
-239.179
 21
-109.507
  0
LINE
  8
0
 10
-239.179
 20
-109.507
 11
-239.092
 21
-109.273
  0
LINE
  8
0
 10
-239.092
 20
-109.273
 11
-238.972
 21
-109.054
  0
LINE
  8
0
 10
-238.972
 20
-109.054
 11
-238.823
 21
-108.854
  0
LINE
  8
0
 10
-238.823
 20
-108.854
 11
-238.646
 21
-108.677
  0
LINE
  8
0
 10
-238.646
 20
-108.677
 11
-238.446
 21
-108.528
  0
LINE
  8
0
 10
-238.446
 20
-108.528
 11
-238.227
 21
-108.408
  0
LINE
  8
0
 10
-238.227
 20
-108.408
 11
-237.993
 21
-108.321
  0
LINE
  8
0
 10
-237.993
 20
-108.321
 11
-237.749
 21
-108.268
  0
LINE
  8
0
 10
-237.749
 20
-108.268
 11
-237.5
 21
-108.25
  0
LINE
  8
0
 10
-237.5
 20
-108.25
 11
-237.251
 21
-108.268
  0
LINE
  8
0
 10
-237.251
 20
-108.268
 11
-237.007
 21
-108.321
  0
LINE
  8
0
 10
-237.007
 20
-108.321
 11
-236.773
 21
-108.408
  0
LINE
  8
0
 10
-236.773
 20
-108.408
 11
-236.554
 21
-108.528
  0
LINE
  8
0
 10
-236.554
 20
-108.528
 11
-236.354
 21
-108.677
  0
LINE
  8
0
 10
-236.354
 20
-108.677
 11
-236.177
 21
-108.854
  0
LINE
  8
0
 10
-236.177
 20
-108.854
 11
-236.028
 21
-109.054
  0
LINE
  8
0
 10
-236.028
 20
-109.054
 11
-235.908
 21
-109.273
  0
LINE
  8
0
 10
-235.908
 20
-109.273
 11
-235.821
 21
-109.507
  0
LINE
  8
0
 10
-235.821
 20
-109.507
 11
-235.768
 21
-109.751
  0
LINE
  8
0
 10
-235.768
 20
-109.751
 11
-235.75
 21
-110
  0
LINE
  8
0
 10
-235.75
 20
-110
 11
-235.75
 21
-200
  0
LINE
  8
0
 10
-235.75
 20
-200
 11
-235.768
 21
-200.249
  0
LINE
  8
0
 10
-235.768
 20
-200.249
 11
-235.821
 21
-200.493
  0
LINE
  8
0
 10
-235.821
 20
-200.493
 11
-235.908
 21
-200.727
  0
LINE
  8
0
 10
-235.908
 20
-200.727
 11
-236.028
 21
-200.946
  0
LINE
  8
0
 10
-236.028
 20
-200.946
 11
-236.177
 21
-201.146
  0
LINE
  8
0
 10
-236.177
 20
-201.146
 11
-236.354
 21
-201.323
  0
LINE
  8
0
 10
-236.354
 20
-201.323
 11
-236.554
 21
-201.472
  0
LINE
  8
0
 10
-236.554
 20
-201.472
 11
-236.773
 21
-201.592
  0
LINE
  8
0
 10
-236.773
 20
-201.592
 11
-237.007
 21
-201.679
  0
LINE
  8
0
 10
-237.007
 20
-201.679
 11
-237.251
 21
-201.732
  0
LINE
  8
0
 10
-237.251
 20
-201.732
 11
-237.5
 21
-201.75
  0
LINE
  8
0
 10
-237.5
 20
-201.75
 11
-237.749
 21
-201.732
  0
LINE
  8
0
 10
237.251
 20
-201.732
 11
237.007
 21
-201.679
  0
LINE
  8
0
 10
237.007
 20
-201.679
 11
236.773
 21
-201.592
  0
LINE
  8
0
 10
236.773
 20
-201.592
 11
236.554
 21
-201.472
  0
LINE
  8
0
 10
236.554
 20
-201.472
 11
236.354
 21
-201.323
  0
LINE
  8
0
 10
236.354
 20
-201.323
 11
236.177
 21
-201.146
  0
LINE
  8
0
 10
236.177
 20
-201.146
 11
236.028
 21
-200.946
  0
LINE
  8
0
 10
236.028
 20
-200.946
 11
235.908
 21
-200.727
  0
LINE
  8
0
 10
235.908
 20
-200.727
 11
235.821
 21
-200.493
  0
LINE
  8
0
 10
235.821
 20
-200.493
 11
235.768
 21
-200.249
  0
LINE
  8
0
 10
235.768
 20
-200.249
 11
235.75
 21
-200
  0
LINE
  8
0
 10
235.75
 20
-200
 11
235.75
 21
-110
  0
LINE
  8
0
 10
235.75
 20
-110
 11
235.768
 21
-109.751
  0
LINE
  8
0
 10
235.768
 20
-109.751
 11
235.821
 21
-109.507
  0
LINE
  8
0
 10
235.821
 20
-109.507
 11
235.908
 21
-109.273
  0
LINE
  8
0
 10
235.908
 20
-109.273
 11
236.028
 21
-109.054
  0
LINE
  8
0
 10
236.028
 20
-109.054
 11
236.177
 21
-108.854
  0
LINE
  8
0
 10
236.177
 20
-108.854
 11
236.354
 21
-108.677
  0
LINE
  8
0
 10
236.354
 20
-108.677
 11
236.554
 21
-108.528
  0
LINE
  8
0
 10
236.554
 20
-108.528
 11
236.773
 21
-108.408
  0
LINE
  8
0
 10
236.773
 20
-108.408
 11
237.007
 21
-108.321
  0
LINE
  8
0
 10
237.007
 20
-108.321
 11
237.251
 21
-108.268
  0
LINE
  8
0
 10
237.251
 20
-108.268
 11
237.5
 21
-108.25
  0
LINE
  8
0
 10
237.5
 20
-108.25
 11
237.749
 21
-108.268
  0
LINE
  8
0
 10
237.749
 20
-108.268
 11
237.993
 21
-108.321
  0
LINE
  8
0
 10
237.993
 20
-108.321
 11
238.227
 21
-108.408
  0
LINE
  8
0
 10
238.227
 20
-108.408
 11
238.446
 21
-108.528
  0
LINE
  8
0
 10
238.446
 20
-108.528
 11
238.646
 21
-108.677
  0
LINE
  8
0
 10
238.646
 20
-108.677
 11
238.823
 21
-108.854
  0
LINE
  8
0
 10
238.823
 20
-108.854
 11
238.972
 21
-109.054
  0
LINE
  8
0
 10
238.972
 20
-109.054
 11
239.092
 21
-109.273
  0
LINE
  8
0
 10
239.092
 20
-109.273
 11
239.179
 21
-109.507
  0
LINE
  8
0
 10
239.179
 20
-109.507
 11
239.232
 21
-109.751
  0
LINE
  8
0
 10
239.232
 20
-109.751
 11
239.25
 21
-110
  0
LINE
  8
0
 10
239.25
 20
-110
 11
239.25
 21
-200
  0
LINE
  8
0
 10
239.25
 20
-200
 11
239.232
 21
-200.249
  0
LINE
  8
0
 10
239.232
 20
-200.249
 11
239.179
 21
-200.493
  0
LINE
  8
0
 10
239.179
 20
-200.493
 11
239.092
 21
-200.727
  0
LINE
  8
0
 10
239.092
 20
-200.727
 11
238.972
 21
-200.946
  0
LINE
  8
0
 10
238.972
 20
-200.946
 11
238.823
 21
-201.146
  0
LINE
  8
0
 10
238.823
 20
-201.146
 11
238.646
 21
-201.323
  0
LINE
  8
0
 10
238.646
 20
-201.323
 11
238.446
 21
-201.472
  0
LINE
  8
0
 10
238.446
 20
-201.472
 11
238.227
 21
-201.592
  0
LINE
  8
0
 10
238.227
 20
-201.592
 11
237.993
 21
-201.679
  0
LINE
  8
0
 10
237.993
 20
-201.679
 11
237.749
 21
-201.732
  0
LINE
  8
0
 10
237.749
 20
-201.732
 11
237.5
 21
-201.75
  0
LINE
  8
0
 10
237.5
 20
-201.75
 11
237.251
 21
-201.732
  0
LINE
  8
0
 10
288.827
 20
-191.645
 11
288.583
 21
-191.609
  0
LINE
  8
0
 10
288.583
 20
-191.609
 11
288.347
 21
-191.536
  0
LINE
  8
0
 10
288.347
 20
-191.536
 11
288.125
 21
-191.429
  0
LINE
  8
0
 10
288.125
 20
-191.429
 11
287.921
 21
-191.29
  0
LINE
  8
0
 10
287.921
 20
-191.29
 11
287.74
 21
-191.122
  0
LINE
  8
0
 10
287.74
 20
-191.122
 11
287.587
 21
-190.929
  0
LINE
  8
0
 10
287.587
 20
-190.929
 11
287.463
 21
-190.716
  0
LINE
  8
0
 10
287.463
 20
-190.716
 11
287.373
 21
-190.486
  0
LINE
  8
0
 10
287.373
 20
-190.486
 11
287.318
 21
-190.246
  0
LINE
  8
0
 10
287.318
 20
-190.246
 11
287.3
 21
-190
  0
LINE
  8
0
 10
287.3
 20
-190
 11
287.318
 21
-189.754
  0
LINE
  8
0
 10
287.318
 20
-189.754
 11
287.373
 21
-189.514
  0
LINE
  8
0
 10
287.373
 20
-189.514
 11
287.463
 21
-189.284
  0
LINE
  8
0
 10
287.463
 20
-189.284
 11
287.587
 21
-189.071
  0
LINE
  8
0
 10
287.587
 20
-189.071
 11
287.74
 21
-188.878
  0
LINE
  8
0
 10
287.74
 20
-188.878
 11
287.921
 21
-188.71
  0
LINE
  8
0
 10
287.921
 20
-188.71
 11
288.125
 21
-188.571
  0
LINE
  8
0
 10
288.125
 20
-188.571
 11
288.347
 21
-188.464
  0
LINE
  8
0
 10
288.347
 20
-188.464
 11
288.583
 21
-188.391
  0
LINE
  8
0
 10
288.583
 20
-188.391
 11
288.827
 21
-188.355
  0
LINE
  8
0
 10
288.827
 20
-188.355
 11
297.073
 21
-188.355
  0
LINE
  8
0
 10
297.073
 20
-188.355
 11
297.317
 21
-188.391
  0
LINE
  8
0
 10
297.317
 20
-188.391
 11
297.553
 21
-188.464
  0
LINE
  8
0
 10
297.553
 20
-188.464
 11
297.775
 21
-188.571
  0
LINE
  8
0
 10
297.775
 20
-188.571
 11
297.979
 21
-188.71
  0
LINE
  8
0
 10
297.979
 20
-188.71
 11
298.16
 21
-188.878
  0
LINE
  8
0
 10
298.16
 20
-188.878
 11
298.313
 21
-189.071
  0
LINE
  8
0
 10
298.313
 20
-189.071
 11
298.437
 21
-189.284
  0
LINE
  8
0
 10
298.437
 20
-189.284
 11
298.527
 21
-189.514
  0
LINE
  8
0
 10
298.527
 20
-189.514
 11
298.582
 21
-189.754
  0
LINE
  8
0
 10
298.582
 20
-189.754
 11
298.6
 21
-190
  0
LINE
  8
0
 10
298.6
 20
-190
 11
298.582
 21
-190.246
  0
LINE
  8
0
 10
298.582
 20
-190.246
 11
298.527
 21
-190.486
  0
LINE
  8
0
 10
298.527
 20
-190.486
 11
298.437
 21
-190.716
  0
LINE
  8
0
 10
298.437
 20
-190.716
 11
298.313
 21
-190.929
  0
LINE
  8
0
 10
298.313
 20
-190.929
 11
298.16
 21
-191.122
  0
LINE
  8
0
 10
298.16
 20
-191.122
 11
297.979
 21
-191.29
  0
LINE
  8
0
 10
297.979
 20
-191.29
 11
297.775
 21
-191.429
  0
LINE
  8
0
 10
297.775
 20
-191.429
 11
297.553
 21
-191.536
  0
LINE
  8
0
 10
297.553
 20
-191.536
 11
297.317
 21
-191.609
  0
LINE
  8
0
 10
297.317
 20
-191.609
 11
297.073
 21
-191.645
  0
LINE
  8
0
 10
297.073
 20
-191.645
 11
288.827
 21
-191.645
  0
LINE
  8
0
 10
257.827
 20
-191.645
 11
257.583
 21
-191.609
  0
LINE
  8
0
 10
257.583
 20
-191.609
 11
257.347
 21
-191.536
  0
LINE
  8
0
 10
257.347
 20
-191.536
 11
257.125
 21
-191.429
  0
LINE
  8
0
 10
257.125
 20
-191.429
 11
256.921
 21
-191.29
  0
LINE
  8
0
 10
256.921
 20
-191.29
 11
256.74
 21
-191.122
  0
LINE
  8
0
 10
256.74
 20
-191.122
 11
256.587
 21
-190.929
  0
LINE
  8
0
 10
256.587
 20
-190.929
 11
256.463
 21
-190.716
  0
LINE
  8
0
 10
256.463
 20
-190.716
 11
256.373
 21
-190.486
  0
LINE
  8
0
 10
256.373
 20
-190.486
 11
256.318
 21
-190.246
  0
LINE
  8
0
 10
256.318
 20
-190.246
 11
256.3
 21
-190
  0
LINE
  8
0
 10
256.3
 20
-190
 11
256.318
 21
-189.754
  0
LINE
  8
0
 10
256.318
 20
-189.754
 11
256.373
 21
-189.514
  0
LINE
  8
0
 10
256.373
 20
-189.514
 11
256.463
 21
-189.284
  0
LINE
  8
0
 10
256.463
 20
-189.284
 11
256.587
 21
-189.071
  0
LINE
  8
0
 10
256.587
 20
-189.071
 11
256.74
 21
-188.878
  0
LINE
  8
0
 10
256.74
 20
-188.878
 11
256.921
 21
-188.71
  0
LINE
  8
0
 10
256.921
 20
-188.71
 11
257.125
 21
-188.571
  0
LINE
  8
0
 10
257.125
 20
-188.571
 11
257.347
 21
-188.464
  0
LINE
  8
0
 10
257.347
 20
-188.464
 11
257.583
 21
-188.391
  0
LINE
  8
0
 10
257.583
 20
-188.391
 11
257.827
 21
-188.355
  0
LINE
  8
0
 10
257.827
 20
-188.355
 11
266.073
 21
-188.355
  0
LINE
  8
0
 10
266.073
 20
-188.355
 11
266.317
 21
-188.391
  0
LINE
  8
0
 10
266.317
 20
-188.391
 11
266.553
 21
-188.464
  0
LINE
  8
0
 10
266.553
 20
-188.464
 11
266.775
 21
-188.571
  0
LINE
  8
0
 10
266.775
 20
-188.571
 11
266.979
 21
-188.71
  0
LINE
  8
0
 10
266.979
 20
-188.71
 11
267.16
 21
-188.878
  0
LINE
  8
0
 10
267.16
 20
-188.878
 11
267.313
 21
-189.071
  0
LINE
  8
0
 10
267.313
 20
-189.071
 11
267.437
 21
-189.284
  0
LINE
  8
0
 10
267.437
 20
-189.284
 11
267.527
 21
-189.514
  0
LINE
  8
0
 10
267.527
 20
-189.514
 11
267.582
 21
-189.754
  0
LINE
  8
0
 10
267.582
 20
-189.754
 11
267.6
 21
-190
  0
LINE
  8
0
 10
267.6
 20
-190
 11
267.582
 21
-190.246
  0
LINE
  8
0
 10
267.582
 20
-190.246
 11
267.527
 21
-190.486
  0
LINE
  8
0
 10
267.527
 20
-190.486
 11
267.437
 21
-190.716
  0
LINE
  8
0
 10
267.437
 20
-190.716
 11
267.313
 21
-190.929
  0
LINE
  8
0
 10
267.313
 20
-190.929
 11
267.16
 21
-191.122
  0
LINE
  8
0
 10
267.16
 20
-191.122
 11
266.979
 21
-191.29
  0
LINE
  8
0
 10
266.979
 20
-191.29
 11
266.775
 21
-191.429
  0
LINE
  8
0
 10
266.775
 20
-191.429
 11
266.553
 21
-191.536
  0
LINE
  8
0
 10
266.553
 20
-191.536
 11
266.317
 21
-191.609
  0
LINE
  8
0
 10
266.317
 20
-191.609
 11
266.073
 21
-191.645
  0
LINE
  8
0
 10
266.073
 20
-191.645
 11
257.827
 21
-191.645
  0
LINE
  8
0
 10
-264.809
 20
-196.172
 11
-265.049
 21
-196.109
  0
LINE
  8
0
 10
-265.049
 20
-196.109
 11
-265.277
 21
-196.012
  0
LINE
  8
0
 10
-265.277
 20
-196.012
 11
-265.489
 21
-195.883
  0
LINE
  8
0
 10
-265.489
 20
-195.883
 11
-265.68
 21
-195.724
  0
LINE
  8
0
 10
-265.68
 20
-195.724
 11
-265.846
 21
-195.539
  0
LINE
  8
0
 10
-265.846
 20
-195.539
 11
-265.982
 21
-195.332
  0
LINE
  8
0
 10
-265.982
 20
-195.332
 11
-266.088
 21
-195.107
  0
LINE
  8
0
 10
-266.088
 20
-195.107
 11
-266.159
 21
-194.87
  0
LINE
  8
0
 10
-266.159
 20
-194.87
 11
-266.195
 21
-194.624
  0
LINE
  8
0
 10
-266.195
 20
-194.624
 11
-266.195
 21
-194.376
  0
LINE
  8
0
 10
-266.195
 20
-194.376
 11
-266.159
 21
-194.13
  0
LINE
  8
0
 10
-266.159
 20
-194.13
 11
-266.088
 21
-193.893
  0
LINE
  8
0
 10
-266.088
 20
-193.893
 11
-265.982
 21
-193.668
  0
LINE
  8
0
 10
-265.982
 20
-193.668
 11
-265.846
 21
-193.461
  0
LINE
  8
0
 10
-265.846
 20
-193.461
 11
-265.68
 21
-193.276
  0
LINE
  8
0
 10
-265.68
 20
-193.276
 11
-265.489
 21
-193.117
  0
LINE
  8
0
 10
-265.489
 20
-193.117
 11
-265.277
 21
-192.988
  0
LINE
  8
0
 10
-265.277
 20
-192.988
 11
-265.049
 21
-192.891
  0
LINE
  8
0
 10
-265.049
 20
-192.891
 11
-264.809
 21
-192.828
  0
LINE
  8
0
 10
-264.809
 20
-192.828
 11
-264.562
 21
-192.801
  0
LINE
  8
0
 10
-264.562
 20
-192.801
 11
-264.314
 21
-192.81
  0
LINE
  8
0
 10
-264.314
 20
-192.81
 11
-264.07
 21
-192.855
  0
LINE
  8
0
 10
-264.07
 20
-192.855
 11
-263.835
 21
-192.935
  0
LINE
  8
0
 10
-263.835
 20
-192.935
 11
-263.614
 21
-193.049
  0
LINE
  8
0
 10
-263.614
 20
-193.049
 11
-263.413
 21
-193.193
  0
LINE
  8
0
 10
-263.413
 20
-193.193
 11
-263.234
 21
-193.366
  0
LINE
  8
0
 10
-263.234
 20
-193.366
 11
-263.082
 21
-193.562
  0
LINE
  8
0
 10
-263.082
 20
-193.562
 11
-262.961
 21
-193.778
  0
LINE
  8
0
 10
-262.961
 20
-193.778
 11
-262.872
 21
-194.01
  0
LINE
  8
0
 10
-262.872
 20
-194.01
 11
-262.818
 21
-194.252
  0
LINE
  8
0
 10
-262.818
 20
-194.252
 11
-262.8
 21
-194.5
  0
LINE
  8
0
 10
-262.8
 20
-194.5
 11
-262.818
 21
-194.748
  0
LINE
  8
0
 10
-262.818
 20
-194.748
 11
-262.872
 21
-194.99
  0
LINE
  8
0
 10
-262.872
 20
-194.99
 11
-262.961
 21
-195.222
  0
LINE
  8
0
 10
-262.961
 20
-195.222
 11
-263.082
 21
-195.438
  0
LINE
  8
0
 10
-263.082
 20
-195.438
 11
-263.234
 21
-195.634
  0
LINE
  8
0
 10
-263.234
 20
-195.634
 11
-263.413
 21
-195.807
  0
LINE
  8
0
 10
-263.413
 20
-195.807
 11
-263.614
 21
-195.951
  0
LINE
  8
0
 10
-263.614
 20
-195.951
 11
-263.835
 21
-196.065
  0
LINE
  8
0
 10
-263.835
 20
-196.065
 11
-264.07
 21
-196.145
  0
LINE
  8
0
 10
-264.07
 20
-196.145
 11
-264.314
 21
-196.19
  0
LINE
  8
0
 10
-264.314
 20
-196.19
 11
-264.562
 21
-196.199
  0
LINE
  8
0
 10
-264.562
 20
-196.199
 11
-264.809
 21
-196.172
  0
LINE
  8
0
 10
272.95
 20
-218
 11
271.643
 21
-217.932
  0
LINE
  8
0
 10
271.643
 20
-217.932
 11
270.351
 21
-217.727
  0
LINE
  8
0
 10
270.351
 20
-217.727
 11
269.087
 21
-217.388
  0
LINE
  8
0
 10
269.087
 20
-217.388
 11
267.866
 21
-216.919
  0
LINE
  8
0
 10
267.866
 20
-216.919
 11
266.7
 21
-216.325
  0
LINE
  8
0
 10
266.7
 20
-216.325
 11
265.603
 21
-215.613
  0
LINE
  8
0
 10
265.603
 20
-215.613
 11
264.586
 21
-214.789
  0
LINE
  8
0
 10
264.586
 20
-214.789
 11
263.661
 21
-213.864
  0
LINE
  8
0
 10
263.661
 20
-213.864
 11
262.837
 21
-212.847
  0
LINE
  8
0
 10
262.837
 20
-212.847
 11
262.125
 21
-211.75
  0
LINE
  8
0
 10
262.125
 20
-211.75
 11
261.531
 21
-210.584
  0
LINE
  8
0
 10
261.531
 20
-210.584
 11
261.062
 21
-209.363
  0
LINE
  8
0
 10
261.062
 20
-209.363
 11
260.723
 21
-208.099
  0
LINE
  8
0
 10
260.723
 20
-208.099
 11
260.518
 21
-206.807
  0
LINE
  8
0
 10
260.518
 20
-206.807
 11
260.45
 21
-205.5
  0
LINE
  8
0
 10
260.45
 20
-205.5
 11
260.518
 21
-204.193
  0
LINE
  8
0
 10
260.518
 20
-204.193
 11
260.723
 21
-202.901
  0
LINE
  8
0
 10
260.723
 20
-202.901
 11
261.062
 21
-201.637
  0
LINE
  8
0
 10
261.062
 20
-201.637
 11
261.531
 21
-200.416
  0
LINE
  8
0
 10
261.531
 20
-200.416
 11
262.125
 21
-199.25
  0
LINE
  8
0
 10
262.125
 20
-199.25
 11
262.837
 21
-198.153
  0
LINE
  8
0
 10
262.837
 20
-198.153
 11
263.661
 21
-197.136
  0
LINE
  8
0
 10
263.661
 20
-197.136
 11
264.586
 21
-196.211
  0
LINE
  8
0
 10
264.586
 20
-196.211
 11
265.603
 21
-195.387
  0
LINE
  8
0
 10
265.603
 20
-195.387
 11
266.7
 21
-194.675
  0
LINE
  8
0
 10
266.7
 20
-194.675
 11
267.866
 21
-194.081
  0
LINE
  8
0
 10
267.866
 20
-194.081
 11
269.087
 21
-193.612
  0
LINE
  8
0
 10
269.087
 20
-193.612
 11
270.351
 21
-193.273
  0
LINE
  8
0
 10
270.351
 20
-193.273
 11
271.643
 21
-193.068
  0
LINE
  8
0
 10
271.643
 20
-193.068
 11
272.95
 21
-193
  0
LINE
  8
0
 10
272.95
 20
-193
 11
280.95
 21
-193
  0
LINE
  8
0
 10
280.95
 20
-193
 11
282.257
 21
-193.068
  0
LINE
  8
0
 10
282.257
 20
-193.068
 11
283.549
 21
-193.273
  0
LINE
  8
0
 10
283.549
 20
-193.273
 11
284.813
 21
-193.612
  0
LINE
  8
0
 10
284.813
 20
-193.612
 11
286.034
 21
-194.081
  0
LINE
  8
0
 10
286.034
 20
-194.081
 11
287.2
 21
-194.675
  0
LINE
  8
0
 10
287.2
 20
-194.675
 11
288.297
 21
-195.387
  0
LINE
  8
0
 10
288.297
 20
-195.387
 11
289.314
 21
-196.211
  0
LINE
  8
0
 10
289.314
 20
-196.211
 11
290.239
 21
-197.136
  0
LINE
  8
0
 10
290.239
 20
-197.136
 11
291.063
 21
-198.153
  0
LINE
  8
0
 10
291.063
 20
-198.153
 11
291.775
 21
-199.25
  0
LINE
  8
0
 10
291.775
 20
-199.25
 11
292.369
 21
-200.416
  0
LINE
  8
0
 10
292.369
 20
-200.416
 11
292.838
 21
-201.637
  0
LINE
  8
0
 10
292.838
 20
-201.637
 11
293.177
 21
-202.901
  0
LINE
  8
0
 10
293.177
 20
-202.901
 11
293.382
 21
-204.193
  0
LINE
  8
0
 10
293.382
 20
-204.193
 11
293.45
 21
-205.5
  0
LINE
  8
0
 10
293.45
 20
-205.5
 11
293.382
 21
-206.807
  0
LINE
  8
0
 10
293.382
 20
-206.807
 11
293.177
 21
-208.099
  0
LINE
  8
0
 10
293.177
 20
-208.099
 11
292.838
 21
-209.363
  0
LINE
  8
0
 10
292.838
 20
-209.363
 11
292.369
 21
-210.584
  0
LINE
  8
0
 10
292.369
 20
-210.584
 11
291.775
 21
-211.75
  0
LINE
  8
0
 10
291.775
 20
-211.75
 11
291.063
 21
-212.847
  0
LINE
  8
0
 10
291.063
 20
-212.847
 11
290.239
 21
-213.864
  0
LINE
  8
0
 10
290.239
 20
-213.864
 11
289.314
 21
-214.789
  0
LINE
  8
0
 10
289.314
 20
-214.789
 11
288.297
 21
-215.613
  0
LINE
  8
0
 10
288.297
 20
-215.613
 11
287.2
 21
-216.325
  0
LINE
  8
0
 10
287.2
 20
-216.325
 11
286.034
 21
-216.919
  0
LINE
  8
0
 10
286.034
 20
-216.919
 11
284.813
 21
-217.388
  0
LINE
  8
0
 10
284.813
 20
-217.388
 11
283.549
 21
-217.727
  0
LINE
  8
0
 10
283.549
 20
-217.727
 11
282.257
 21
-217.932
  0
LINE
  8
0
 10
282.257
 20
-217.932
 11
280.95
 21
-218
  0
LINE
  8
0
 10
280.95
 20
-218
 11
272.95
 21
-218
  0
LINE
  8
0
 10
-279.759
 20
-207.172
 11
-279.999
 21
-207.109
  0
LINE
  8
0
 10
-279.999
 20
-207.109
 11
-280.227
 21
-207.012
  0
LINE
  8
0
 10
-280.227
 20
-207.012
 11
-280.439
 21
-206.883
  0
LINE
  8
0
 10
-280.439
 20
-206.883
 11
-280.63
 21
-206.724
  0
LINE
  8
0
 10
-280.63
 20
-206.724
 11
-280.796
 21
-206.539
  0
LINE
  8
0
 10
-280.796
 20
-206.539
 11
-280.932
 21
-206.332
  0
LINE
  8
0
 10
-280.932
 20
-206.332
 11
-281.038
 21
-206.107
  0
LINE
  8
0
 10
-281.038
 20
-206.107
 11
-281.109
 21
-205.87
  0
LINE
  8
0
 10
-281.109
 20
-205.87
 11
-281.145
 21
-205.624
  0
LINE
  8
0
 10
-281.145
 20
-205.624
 11
-281.145
 21
-205.376
  0
LINE
  8
0
 10
-281.145
 20
-205.376
 11
-281.109
 21
-205.13
  0
LINE
  8
0
 10
-281.109
 20
-205.13
 11
-281.038
 21
-204.893
  0
LINE
  8
0
 10
-281.038
 20
-204.893
 11
-280.932
 21
-204.668
  0
LINE
  8
0
 10
-280.932
 20
-204.668
 11
-280.796
 21
-204.461
  0
LINE
  8
0
 10
-280.796
 20
-204.461
 11
-280.63
 21
-204.276
  0
LINE
  8
0
 10
-280.63
 20
-204.276
 11
-280.439
 21
-204.117
  0
LINE
  8
0
 10
-280.439
 20
-204.117
 11
-280.227
 21
-203.988
  0
LINE
  8
0
 10
-280.227
 20
-203.988
 11
-279.999
 21
-203.891
  0
LINE
  8
0
 10
-279.999
 20
-203.891
 11
-279.759
 21
-203.828
  0
LINE
  8
0
 10
-279.759
 20
-203.828
 11
-279.512
 21
-203.801
  0
LINE
  8
0
 10
-279.512
 20
-203.801
 11
-279.264
 21
-203.81
  0
LINE
  8
0
 10
-279.264
 20
-203.81
 11
-279.02
 21
-203.855
  0
LINE
  8
0
 10
-279.02
 20
-203.855
 11
-278.785
 21
-203.935
  0
LINE
  8
0
 10
-278.785
 20
-203.935
 11
-278.564
 21
-204.049
  0
LINE
  8
0
 10
-278.564
 20
-204.049
 11
-278.363
 21
-204.193
  0
LINE
  8
0
 10
-278.363
 20
-204.193
 11
-278.184
 21
-204.366
  0
LINE
  8
0
 10
-278.184
 20
-204.366
 11
-278.032
 21
-204.562
  0
LINE
  8
0
 10
-278.032
 20
-204.562
 11
-277.911
 21
-204.778
  0
LINE
  8
0
 10
-277.911
 20
-204.778
 11
-277.822
 21
-205.01
  0
LINE
  8
0
 10
-277.822
 20
-205.01
 11
-277.768
 21
-205.252
  0
LINE
  8
0
 10
-277.768
 20
-205.252
 11
-277.75
 21
-205.5
  0
LINE
  8
0
 10
-277.75
 20
-205.5
 11
-277.768
 21
-205.748
  0
LINE
  8
0
 10
-277.768
 20
-205.748
 11
-277.822
 21
-205.99
  0
LINE
  8
0
 10
-277.822
 20
-205.99
 11
-277.911
 21
-206.222
  0
LINE
  8
0
 10
-277.911
 20
-206.222
 11
-278.032
 21
-206.438
  0
LINE
  8
0
 10
-278.032
 20
-206.438
 11
-278.184
 21
-206.634
  0
LINE
  8
0
 10
-278.184
 20
-206.634
 11
-278.363
 21
-206.807
  0
LINE
  8
0
 10
-278.363
 20
-206.807
 11
-278.564
 21
-206.951
  0
LINE
  8
0
 10
-278.564
 20
-206.951
 11
-278.785
 21
-207.065
  0
LINE
  8
0
 10
-278.785
 20
-207.065
 11
-279.02
 21
-207.145
  0
LINE
  8
0
 10
-279.02
 20
-207.145
 11
-279.264
 21
-207.19
  0
LINE
  8
0
 10
-279.264
 20
-207.19
 11
-279.512
 21
-207.199
  0
LINE
  8
0
 10
-279.512
 20
-207.199
 11
-279.759
 21
-207.172
  0
LINE
  8
0
 10
-237.686
 20
-211.69
 11
-237.93
 21
-211.645
  0
LINE
  8
0
 10
-237.93
 20
-211.645
 11
-238.165
 21
-211.565
  0
LINE
  8
0
 10
-238.165
 20
-211.565
 11
-238.386
 21
-211.451
  0
LINE
  8
0
 10
-238.386
 20
-211.451
 11
-238.587
 21
-211.307
  0
LINE
  8
0
 10
-238.587
 20
-211.307
 11
-238.766
 21
-211.134
  0
LINE
  8
0
 10
-238.766
 20
-211.134
 11
-238.918
 21
-210.938
  0
LINE
  8
0
 10
-238.918
 20
-210.938
 11
-239.039
 21
-210.722
  0
LINE
  8
0
 10
-239.039
 20
-210.722
 11
-239.128
 21
-210.49
  0
LINE
  8
0
 10
-239.128
 20
-210.49
 11
-239.182
 21
-210.248
  0
LINE
  8
0
 10
-239.182
 20
-210.248
 11
-239.2
 21
-210
  0
LINE
  8
0
 10
-239.2
 20
-210
 11
-239.182
 21
-209.752
  0
LINE
  8
0
 10
-239.182
 20
-209.752
 11
-239.128
 21
-209.51
  0
LINE
  8
0
 10
-239.128
 20
-209.51
 11
-239.039
 21
-209.278
  0
LINE
  8
0
 10
-239.039
 20
-209.278
 11
-238.918
 21
-209.062
  0
LINE
  8
0
 10
-238.918
 20
-209.062
 11
-238.766
 21
-208.866
  0
LINE
  8
0
 10
-238.766
 20
-208.866
 11
-238.587
 21
-208.693
  0
LINE
  8
0
 10
-238.587
 20
-208.693
 11
-238.386
 21
-208.549
  0
LINE
  8
0
 10
-238.386
 20
-208.549
 11
-238.165
 21
-208.435
  0
LINE
  8
0
 10
-238.165
 20
-208.435
 11
-237.93
 21
-208.355
  0
LINE
  8
0
 10
-237.93
 20
-208.355
 11
-237.686
 21
-208.31
  0
LINE
  8
0
 10
-237.686
 20
-208.31
 11
-237.438
 21
-208.301
  0
LINE
  8
0
 10
-237.438
 20
-208.301
 11
-237.191
 21
-208.328
  0
LINE
  8
0
 10
-237.191
 20
-208.328
 11
-236.951
 21
-208.391
  0
LINE
  8
0
 10
-236.951
 20
-208.391
 11
-236.723
 21
-208.488
  0
LINE
  8
0
 10
-236.723
 20
-208.488
 11
-236.511
 21
-208.617
  0
LINE
  8
0
 10
-236.511
 20
-208.617
 11
-236.32
 21
-208.776
  0
LINE
  8
0
 10
-236.32
 20
-208.776
 11
-236.154
 21
-208.961
  0
LINE
  8
0
 10
-236.154
 20
-208.961
 11
-236.018
 21
-209.168
  0
LINE
  8
0
 10
-236.018
 20
-209.168
 11
-235.912
 21
-209.393
  0
LINE
  8
0
 10
-235.912
 20
-209.393
 11
-235.841
 21
-209.63
  0
LINE
  8
0
 10
-235.841
 20
-209.63
 11
-235.805
 21
-209.876
  0
LINE
  8
0
 10
-235.805
 20
-209.876
 11
-235.805
 21
-210.124
  0
LINE
  8
0
 10
-235.805
 20
-210.124
 11
-235.841
 21
-210.37
  0
LINE
  8
0
 10
-235.841
 20
-210.37
 11
-235.912
 21
-210.607
  0
LINE
  8
0
 10
-235.912
 20
-210.607
 11
-236.018
 21
-210.832
  0
LINE
  8
0
 10
-236.018
 20
-210.832
 11
-236.154
 21
-211.039
  0
LINE
  8
0
 10
-236.154
 20
-211.039
 11
-236.32
 21
-211.224
  0
LINE
  8
0
 10
-236.32
 20
-211.224
 11
-236.511
 21
-211.383
  0
LINE
  8
0
 10
-236.511
 20
-211.383
 11
-236.723
 21
-211.512
  0
LINE
  8
0
 10
-236.723
 20
-211.512
 11
-236.951
 21
-211.609
  0
LINE
  8
0
 10
-236.951
 20
-211.609
 11
-237.191
 21
-211.672
  0
LINE
  8
0
 10
-237.191
 20
-211.672
 11
-237.438
 21
-211.699
  0
LINE
  8
0
 10
-237.438
 20
-211.699
 11
-237.686
 21
-211.69
  0
LINE
  8
0
 10
237.191
 20
-211.672
 11
236.951
 21
-211.609
  0
LINE
  8
0
 10
236.951
 20
-211.609
 11
236.723
 21
-211.512
  0
LINE
  8
0
 10
236.723
 20
-211.512
 11
236.511
 21
-211.383
  0
LINE
  8
0
 10
236.511
 20
-211.383
 11
236.32
 21
-211.224
  0
LINE
  8
0
 10
236.32
 20
-211.224
 11
236.154
 21
-211.039
  0
LINE
  8
0
 10
236.154
 20
-211.039
 11
236.018
 21
-210.832
  0
LINE
  8
0
 10
236.018
 20
-210.832
 11
235.912
 21
-210.607
  0
LINE
  8
0
 10
235.912
 20
-210.607
 11
235.841
 21
-210.37
  0
LINE
  8
0
 10
235.841
 20
-210.37
 11
235.805
 21
-210.124
  0
LINE
  8
0
 10
235.805
 20
-210.124
 11
235.805
 21
-209.876
  0
LINE
  8
0
 10
235.805
 20
-209.876
 11
235.841
 21
-209.63
  0
LINE
  8
0
 10
235.841
 20
-209.63
 11
235.912
 21
-209.393
  0
LINE
  8
0
 10
235.912
 20
-209.393
 11
236.018
 21
-209.168
  0
LINE
  8
0
 10
236.018
 20
-209.168
 11
236.154
 21
-208.961
  0
LINE
  8
0
 10
236.154
 20
-208.961
 11
236.32
 21
-208.776
  0
LINE
  8
0
 10
236.32
 20
-208.776
 11
236.511
 21
-208.617
  0
LINE
  8
0
 10
236.511
 20
-208.617
 11
236.723
 21
-208.488
  0
LINE
  8
0
 10
236.723
 20
-208.488
 11
236.951
 21
-208.391
  0
LINE
  8
0
 10
236.951
 20
-208.391
 11
237.191
 21
-208.328
  0
LINE
  8
0
 10
237.191
 20
-208.328
 11
237.438
 21
-208.301
  0
LINE
  8
0
 10
237.438
 20
-208.301
 11
237.686
 21
-208.31
  0
LINE
  8
0
 10
237.686
 20
-208.31
 11
237.93
 21
-208.355
  0
LINE
  8
0
 10
237.93
 20
-208.355
 11
238.165
 21
-208.435
  0
LINE
  8
0
 10
238.165
 20
-208.435
 11
238.386
 21
-208.549
  0
LINE
  8
0
 10
238.386
 20
-208.549
 11
238.587
 21
-208.693
  0
LINE
  8
0
 10
238.587
 20
-208.693
 11
238.766
 21
-208.866
  0
LINE
  8
0
 10
238.766
 20
-208.866
 11
238.918
 21
-209.062
  0
LINE
  8
0
 10
238.918
 20
-209.062
 11
239.039
 21
-209.278
  0
LINE
  8
0
 10
239.039
 20
-209.278
 11
239.128
 21
-209.51
  0
LINE
  8
0
 10
239.128
 20
-209.51
 11
239.182
 21
-209.752
  0
LINE
  8
0
 10
239.182
 20
-209.752
 11
239.2
 21
-210
  0
LINE
  8
0
 10
239.2
 20
-210
 11
239.182
 21
-210.248
  0
LINE
  8
0
 10
239.182
 20
-210.248
 11
239.128
 21
-210.49
  0
LINE
  8
0
 10
239.128
 20
-210.49
 11
239.039
 21
-210.722
  0
LINE
  8
0
 10
239.039
 20
-210.722
 11
238.918
 21
-210.938
  0
LINE
  8
0
 10
238.918
 20
-210.938
 11
238.766
 21
-211.134
  0
LINE
  8
0
 10
238.766
 20
-211.134
 11
238.587
 21
-211.307
  0
LINE
  8
0
 10
238.587
 20
-211.307
 11
238.386
 21
-211.451
  0
LINE
  8
0
 10
238.386
 20
-211.451
 11
238.165
 21
-211.565
  0
LINE
  8
0
 10
238.165
 20
-211.565
 11
237.93
 21
-211.645
  0
LINE
  8
0
 10
237.93
 20
-211.645
 11
237.686
 21
-211.69
  0
LINE
  8
0
 10
237.686
 20
-211.69
 11
237.438
 21
-211.699
  0
LINE
  8
0
 10
237.438
 20
-211.699
 11
237.191
 21
-211.672
  0
LINE
  8
0
 10
237.108
 20
-223.729
 11
236.72
 21
-223.668
  0
LINE
  8
0
 10
236.72
 20
-223.668
 11
236.341
 21
-223.566
  0
LINE
  8
0
 10
236.341
 20
-223.566
 11
235.975
 21
-223.426
  0
LINE
  8
0
 10
235.975
 20
-223.426
 11
235.625
 21
-223.248
  0
LINE
  8
0
 10
235.625
 20
-223.248
 11
235.296
 21
-223.034
  0
LINE
  8
0
 10
235.296
 20
-223.034
 11
234.991
 21
-222.787
  0
LINE
  8
0
 10
234.991
 20
-222.787
 11
234.713
 21
-222.509
  0
LINE
  8
0
 10
234.713
 20
-222.509
 11
234.466
 21
-222.204
  0
LINE
  8
0
 10
234.466
 20
-222.204
 11
234.252
 21
-221.875
  0
LINE
  8
0
 10
234.252
 20
-221.875
 11
234.074
 21
-221.525
  0
LINE
  8
0
 10
234.074
 20
-221.525
 11
233.934
 21
-221.159
  0
LINE
  8
0
 10
233.934
 20
-221.159
 11
233.832
 21
-220.78
  0
LINE
  8
0
 10
233.832
 20
-220.78
 11
233.771
 21
-220.392
  0
LINE
  8
0
 10
233.771
 20
-220.392
 11
233.75
 21
-220
  0
LINE
  8
0
 10
233.75
 20
-220
 11
233.771
 21
-219.608
  0
LINE
  8
0
 10
233.771
 20
-219.608
 11
233.832
 21
-219.22
  0
LINE
  8
0
 10
233.832
 20
-219.22
 11
233.934
 21
-218.841
  0
LINE
  8
0
 10
233.934
 20
-218.841
 11
234.074
 21
-218.475
  0
LINE
  8
0
 10
234.074
 20
-218.475
 11
234.252
 21
-218.125
  0
LINE
  8
0
 10
234.252
 20
-218.125
 11
234.466
 21
-217.796
  0
LINE
  8
0
 10
234.466
 20
-217.796
 11
234.713
 21
-217.491
  0
LINE
  8
0
 10
234.713
 20
-217.491
 11
234.991
 21
-217.213
  0
LINE
  8
0
 10
234.991
 20
-217.213
 11
235.296
 21
-216.966
  0
LINE
  8
0
 10
235.296
 20
-216.966
 11
235.625
 21
-216.752
  0
LINE
  8
0
 10
235.625
 20
-216.752
 11
235.975
 21
-216.574
  0
LINE
  8
0
 10
235.975
 20
-216.574
 11
236.341
 21
-216.434
  0
LINE
  8
0
 10
236.341
 20
-216.434
 11
236.72
 21
-216.332
  0
LINE
  8
0
 10
236.72
 20
-216.332
 11
237.108
 21
-216.271
  0
LINE
  8
0
 10
237.108
 20
-216.271
 11
237.5
 21
-216.25
  0
LINE
  8
0
 10
237.5
 20
-216.25
 11
237.892
 21
-216.271
  0
LINE
  8
0
 10
237.892
 20
-216.271
 11
238.28
 21
-216.332
  0
LINE
  8
0
 10
238.28
 20
-216.332
 11
238.659
 21
-216.434
  0
LINE
  8
0
 10
238.659
 20
-216.434
 11
239.025
 21
-216.574
  0
LINE
  8
0
 10
239.025
 20
-216.574
 11
239.375
 21
-216.752
  0
LINE
  8
0
 10
239.375
 20
-216.752
 11
239.704
 21
-216.966
  0
LINE
  8
0
 10
239.704
 20
-216.966
 11
240.009
 21
-217.213
  0
LINE
  8
0
 10
240.009
 20
-217.213
 11
240.287
 21
-217.491
  0
LINE
  8
0
 10
240.287
 20
-217.491
 11
240.534
 21
-217.796
  0
LINE
  8
0
 10
240.534
 20
-217.796
 11
240.748
 21
-218.125
  0
LINE
  8
0
 10
240.748
 20
-218.125
 11
240.926
 21
-218.475
  0
LINE
  8
0
 10
240.926
 20
-218.475
 11
241.066
 21
-218.841
  0
LINE
  8
0
 10
241.066
 20
-218.841
 11
241.168
 21
-219.22
  0
LINE
  8
0
 10
241.168
 20
-219.22
 11
241.229
 21
-219.608
  0
LINE
  8
0
 10
241.229
 20
-219.608
 11
241.25
 21
-220
  0
LINE
  8
0
 10
241.25
 20
-220
 11
241.229
 21
-220.392
  0
LINE
  8
0
 10
241.229
 20
-220.392
 11
241.168
 21
-220.78
  0
LINE
  8
0
 10
241.168
 20
-220.78
 11
241.066
 21
-221.159
  0
LINE
  8
0
 10
241.066
 20
-221.159
 11
240.926
 21
-221.525
  0
LINE
  8
0
 10
240.926
 20
-221.525
 11
240.748
 21
-221.875
  0
LINE
  8
0
 10
240.748
 20
-221.875
 11
240.534
 21
-222.204
  0
LINE
  8
0
 10
240.534
 20
-222.204
 11
240.287
 21
-222.509
  0
LINE
  8
0
 10
240.287
 20
-222.509
 11
240.009
 21
-222.787
  0
LINE
  8
0
 10
240.009
 20
-222.787
 11
239.704
 21
-223.034
  0
LINE
  8
0
 10
239.704
 20
-223.034
 11
239.375
 21
-223.248
  0
LINE
  8
0
 10
239.375
 20
-223.248
 11
239.025
 21
-223.426
  0
LINE
  8
0
 10
239.025
 20
-223.426
 11
238.659
 21
-223.566
  0
LINE
  8
0
 10
238.659
 20
-223.566
 11
238.28
 21
-223.668
  0
LINE
  8
0
 10
238.28
 20
-223.668
 11
237.892
 21
-223.729
  0
LINE
  8
0
 10
237.892
 20
-223.729
 11
237.5
 21
-223.75
  0
LINE
  8
0
 10
237.5
 20
-223.75
 11
237.108
 21
-223.729
  0
LINE
  8
0
 10
-237.892
 20
-223.729
 11
-238.28
 21
-223.668
  0
LINE
  8
0
 10
-238.28
 20
-223.668
 11
-238.659
 21
-223.566
  0
LINE
  8
0
 10
-238.659
 20
-223.566
 11
-239.025
 21
-223.426
  0
LINE
  8
0
 10
-239.025
 20
-223.426
 11
-239.375
 21
-223.248
  0
LINE
  8
0
 10
-239.375
 20
-223.248
 11
-239.704
 21
-223.034
  0
LINE
  8
0
 10
-239.704
 20
-223.034
 11
-240.009
 21
-222.787
  0
LINE
  8
0
 10
-240.009
 20
-222.787
 11
-240.287
 21
-222.509
  0
LINE
  8
0
 10
-240.287
 20
-222.509
 11
-240.534
 21
-222.204
  0
LINE
  8
0
 10
-240.534
 20
-222.204
 11
-240.748
 21
-221.875
  0
LINE
  8
0
 10
-240.748
 20
-221.875
 11
-240.926
 21
-221.525
  0
LINE
  8
0
 10
-240.926
 20
-221.525
 11
-241.066
 21
-221.159
  0
LINE
  8
0
 10
-241.066
 20
-221.159
 11
-241.168
 21
-220.78
  0
LINE
  8
0
 10
-241.168
 20
-220.78
 11
-241.229
 21
-220.392
  0
LINE
  8
0
 10
-241.229
 20
-220.392
 11
-241.25
 21
-220
  0
LINE
  8
0
 10
-241.25
 20
-220
 11
-241.229
 21
-219.608
  0
LINE
  8
0
 10
-241.229
 20
-219.608
 11
-241.168
 21
-219.22
  0
LINE
  8
0
 10
-241.168
 20
-219.22
 11
-241.066
 21
-218.841
  0
LINE
  8
0
 10
-241.066
 20
-218.841
 11
-240.926
 21
-218.475
  0
LINE
  8
0
 10
-240.926
 20
-218.475
 11
-240.748
 21
-218.125
  0
LINE
  8
0
 10
-240.748
 20
-218.125
 11
-240.534
 21
-217.796
  0
LINE
  8
0
 10
-240.534
 20
-217.796
 11
-240.287
 21
-217.491
  0
LINE
  8
0
 10
-240.287
 20
-217.491
 11
-240.009
 21
-217.213
  0
LINE
  8
0
 10
-240.009
 20
-217.213
 11
-239.704
 21
-216.966
  0
LINE
  8
0
 10
-239.704
 20
-216.966
 11
-239.375
 21
-216.752
  0
LINE
  8
0
 10
-239.375
 20
-216.752
 11
-239.025
 21
-216.574
  0
LINE
  8
0
 10
-239.025
 20
-216.574
 11
-238.659
 21
-216.434
  0
LINE
  8
0
 10
-238.659
 20
-216.434
 11
-238.28
 21
-216.332
  0
LINE
  8
0
 10
-238.28
 20
-216.332
 11
-237.892
 21
-216.271
  0
LINE
  8
0
 10
-237.892
 20
-216.271
 11
-237.5
 21
-216.25
  0
LINE
  8
0
 10
-237.5
 20
-216.25
 11
-237.108
 21
-216.271
  0
LINE
  8
0
 10
-237.108
 20
-216.271
 11
-236.72
 21
-216.332
  0
LINE
  8
0
 10
-236.72
 20
-216.332
 11
-236.341
 21
-216.434
  0
LINE
  8
0
 10
-236.341
 20
-216.434
 11
-235.975
 21
-216.574
  0
LINE
  8
0
 10
-235.975
 20
-216.574
 11
-235.625
 21
-216.752
  0
LINE
  8
0
 10
-235.625
 20
-216.752
 11
-235.296
 21
-216.966
  0
LINE
  8
0
 10
-235.296
 20
-216.966
 11
-234.991
 21
-217.213
  0
LINE
  8
0
 10
-234.991
 20
-217.213
 11
-234.713
 21
-217.491
  0
LINE
  8
0
 10
-234.713
 20
-217.491
 11
-234.466
 21
-217.796
  0
LINE
  8
0
 10
-234.466
 20
-217.796
 11
-234.252
 21
-218.125
  0
LINE
  8
0
 10
-234.252
 20
-218.125
 11
-234.074
 21
-218.475
  0
LINE
  8
0
 10
-234.074
 20
-218.475
 11
-233.934
 21
-218.841
  0
LINE
  8
0
 10
-233.934
 20
-218.841
 11
-233.832
 21
-219.22
  0
LINE
  8
0
 10
-233.832
 20
-219.22
 11
-233.771
 21
-219.608
  0
LINE
  8
0
 10
-233.771
 20
-219.608
 11
-233.75
 21
-220
  0
LINE
  8
0
 10
-233.75
 20
-220
 11
-233.771
 21
-220.392
  0
LINE
  8
0
 10
-233.771
 20
-220.392
 11
-233.832
 21
-220.78
  0
LINE
  8
0
 10
-233.832
 20
-220.78
 11
-233.934
 21
-221.159
  0
LINE
  8
0
 10
-233.934
 20
-221.159
 11
-234.074
 21
-221.525
  0
LINE
  8
0
 10
-234.074
 20
-221.525
 11
-234.252
 21
-221.875
  0
LINE
  8
0
 10
-234.252
 20
-221.875
 11
-234.466
 21
-222.204
  0
LINE
  8
0
 10
-234.466
 20
-222.204
 11
-234.713
 21
-222.509
  0
LINE
  8
0
 10
-234.713
 20
-222.509
 11
-234.991
 21
-222.787
  0
LINE
  8
0
 10
-234.991
 20
-222.787
 11
-235.296
 21
-223.034
  0
LINE
  8
0
 10
-235.296
 20
-223.034
 11
-235.625
 21
-223.248
  0
LINE
  8
0
 10
-235.625
 20
-223.248
 11
-235.975
 21
-223.426
  0
LINE
  8
0
 10
-235.975
 20
-223.426
 11
-236.341
 21
-223.566
  0
LINE
  8
0
 10
-236.341
 20
-223.566
 11
-236.72
 21
-223.668
  0
LINE
  8
0
 10
-236.72
 20
-223.668
 11
-237.108
 21
-223.729
  0
LINE
  8
0
 10
-237.108
 20
-223.729
 11
-237.5
 21
-223.75
  0
LINE
  8
0
 10
-237.5
 20
-223.75
 11
-237.892
 21
-223.729
  0
LINE
  8
0
 10
6.5
 20
-221.75
 11
6.25095
 21
-221.732
  0
LINE
  8
0
 10
6.25095
 20
-221.732
 11
6.00696
 21
-221.679
  0
LINE
  8
0
 10
6.00696
 20
-221.679
 11
5.77301
 21
-221.592
  0
LINE
  8
0
 10
5.77301
 20
-221.592
 11
5.55386
 21
-221.472
  0
LINE
  8
0
 10
5.55386
 20
-221.472
 11
5.35399
 21
-221.323
  0
LINE
  8
0
 10
5.35399
 20
-221.323
 11
5.17743
 21
-221.146
  0
LINE
  8
0
 10
5.17743
 20
-221.146
 11
5.0278
 21
-220.946
  0
LINE
  8
0
 10
5.0278
 20
-220.946
 11
4.90814
 21
-220.727
  0
LINE
  8
0
 10
4.90814
 20
-220.727
 11
4.82088
 21
-220.493
  0
LINE
  8
0
 10
4.82088
 20
-220.493
 11
4.76781
 21
-220.249
  0
LINE
  8
0
 10
4.76781
 20
-220.249
 11
4.75
 21
-220
  0
LINE
  8
0
 10
4.75
 20
-220
 11
4.76781
 21
-219.751
  0
LINE
  8
0
 10
4.76781
 20
-219.751
 11
4.82088
 21
-219.507
  0
LINE
  8
0
 10
4.82088
 20
-219.507
 11
4.90814
 21
-219.273
  0
LINE
  8
0
 10
4.90814
 20
-219.273
 11
5.0278
 21
-219.054
  0
LINE
  8
0
 10
5.0278
 20
-219.054
 11
5.17743
 21
-218.854
  0
LINE
  8
0
 10
5.17743
 20
-218.854
 11
5.35399
 21
-218.677
  0
LINE
  8
0
 10
5.35399
 20
-218.677
 11
5.55386
 21
-218.528
  0
LINE
  8
0
 10
5.55386
 20
-218.528
 11
5.77301
 21
-218.408
  0
LINE
  8
0
 10
5.77301
 20
-218.408
 11
6.00696
 21
-218.321
  0
LINE
  8
0
 10
6.00696
 20
-218.321
 11
6.25095
 21
-218.268
  0
LINE
  8
0
 10
6.25095
 20
-218.268
 11
6.5
 21
-218.25
  0
LINE
  8
0
 10
6.5
 20
-218.25
 11
106.5
 21
-218.25
  0
LINE
  8
0
 10
106.5
 20
-218.25
 11
106.749
 21
-218.268
  0
LINE
  8
0
 10
106.749
 20
-218.268
 11
106.993
 21
-218.321
  0
LINE
  8
0
 10
106.993
 20
-218.321
 11
107.227
 21
-218.408
  0
LINE
  8
0
 10
107.227
 20
-218.408
 11
107.446
 21
-218.528
  0
LINE
  8
0
 10
107.446
 20
-218.528
 11
107.646
 21
-218.677
  0
LINE
  8
0
 10
107.646
 20
-218.677
 11
107.823
 21
-218.854
  0
LINE
  8
0
 10
107.823
 20
-218.854
 11
107.972
 21
-219.054
  0
LINE
  8
0
 10
107.972
 20
-219.054
 11
108.092
 21
-219.273
  0
LINE
  8
0
 10
108.092
 20
-219.273
 11
108.179
 21
-219.507
  0
LINE
  8
0
 10
108.179
 20
-219.507
 11
108.232
 21
-219.751
  0
LINE
  8
0
 10
108.232
 20
-219.751
 11
108.25
 21
-220
  0
LINE
  8
0
 10
108.25
 20
-220
 11
108.232
 21
-220.249
  0
LINE
  8
0
 10
108.232
 20
-220.249
 11
108.179
 21
-220.493
  0
LINE
  8
0
 10
108.179
 20
-220.493
 11
108.092
 21
-220.727
  0
LINE
  8
0
 10
108.092
 20
-220.727
 11
107.972
 21
-220.946
  0
LINE
  8
0
 10
107.972
 20
-220.946
 11
107.823
 21
-221.146
  0
LINE
  8
0
 10
107.823
 20
-221.146
 11
107.646
 21
-221.323
  0
LINE
  8
0
 10
107.646
 20
-221.323
 11
107.446
 21
-221.472
  0
LINE
  8
0
 10
107.446
 20
-221.472
 11
107.227
 21
-221.592
  0
LINE
  8
0
 10
107.227
 20
-221.592
 11
106.993
 21
-221.679
  0
LINE
  8
0
 10
106.993
 20
-221.679
 11
106.749
 21
-221.732
  0
LINE
  8
0
 10
106.749
 20
-221.732
 11
106.5
 21
-221.75
  0
LINE
  8
0
 10
106.5
 20
-221.75
 11
6.5
 21
-221.75
  0
LINE
  8
0
 10
119.5
 20
-221.75
 11
119.251
 21
-221.732
  0
LINE
  8
0
 10
119.251
 20
-221.732
 11
119.007
 21
-221.679
  0
LINE
  8
0
 10
119.007
 20
-221.679
 11
118.773
 21
-221.592
  0
LINE
  8
0
 10
118.773
 20
-221.592
 11
118.554
 21
-221.472
  0
LINE
  8
0
 10
118.554
 20
-221.472
 11
118.354
 21
-221.323
  0
LINE
  8
0
 10
118.354
 20
-221.323
 11
118.177
 21
-221.146
  0
LINE
  8
0
 10
118.177
 20
-221.146
 11
118.028
 21
-220.946
  0
LINE
  8
0
 10
118.028
 20
-220.946
 11
117.908
 21
-220.727
  0
LINE
  8
0
 10
117.908
 20
-220.727
 11
117.821
 21
-220.493
  0
LINE
  8
0
 10
117.821
 20
-220.493
 11
117.768
 21
-220.249
  0
LINE
  8
0
 10
117.768
 20
-220.249
 11
117.75
 21
-220
  0
LINE
  8
0
 10
117.75
 20
-220
 11
117.768
 21
-219.751
  0
LINE
  8
0
 10
117.768
 20
-219.751
 11
117.821
 21
-219.507
  0
LINE
  8
0
 10
117.821
 20
-219.507
 11
117.908
 21
-219.273
  0
LINE
  8
0
 10
117.908
 20
-219.273
 11
118.028
 21
-219.054
  0
LINE
  8
0
 10
118.028
 20
-219.054
 11
118.177
 21
-218.854
  0
LINE
  8
0
 10
118.177
 20
-218.854
 11
118.354
 21
-218.677
  0
LINE
  8
0
 10
118.354
 20
-218.677
 11
118.554
 21
-218.528
  0
LINE
  8
0
 10
118.554
 20
-218.528
 11
118.773
 21
-218.408
  0
LINE
  8
0
 10
118.773
 20
-218.408
 11
119.007
 21
-218.321
  0
LINE
  8
0
 10
119.007
 20
-218.321
 11
119.251
 21
-218.268
  0
LINE
  8
0
 10
119.251
 20
-218.268
 11
119.5
 21
-218.25
  0
LINE
  8
0
 10
119.5
 20
-218.25
 11
219.5
 21
-218.25
  0
LINE
  8
0
 10
219.5
 20
-218.25
 11
219.749
 21
-218.268
  0
LINE
  8
0
 10
219.749
 20
-218.268
 11
219.993
 21
-218.321
  0
LINE
  8
0
 10
219.993
 20
-218.321
 11
220.227
 21
-218.408
  0
LINE
  8
0
 10
220.227
 20
-218.408
 11
220.446
 21
-218.528
  0
LINE
  8
0
 10
220.446
 20
-218.528
 11
220.646
 21
-218.677
  0
LINE
  8
0
 10
220.646
 20
-218.677
 11
220.823
 21
-218.854
  0
LINE
  8
0
 10
220.823
 20
-218.854
 11
220.972
 21
-219.054
  0
LINE
  8
0
 10
220.972
 20
-219.054
 11
221.092
 21
-219.273
  0
LINE
  8
0
 10
221.092
 20
-219.273
 11
221.179
 21
-219.507
  0
LINE
  8
0
 10
221.179
 20
-219.507
 11
221.232
 21
-219.751
  0
LINE
  8
0
 10
221.232
 20
-219.751
 11
221.25
 21
-220
  0
LINE
  8
0
 10
221.25
 20
-220
 11
221.232
 21
-220.249
  0
LINE
  8
0
 10
221.232
 20
-220.249
 11
221.179
 21
-220.493
  0
LINE
  8
0
 10
221.179
 20
-220.493
 11
221.092
 21
-220.727
  0
LINE
  8
0
 10
221.092
 20
-220.727
 11
220.972
 21
-220.946
  0
LINE
  8
0
 10
220.972
 20
-220.946
 11
220.823
 21
-221.146
  0
LINE
  8
0
 10
220.823
 20
-221.146
 11
220.646
 21
-221.323
  0
LINE
  8
0
 10
220.646
 20
-221.323
 11
220.446
 21
-221.472
  0
LINE
  8
0
 10
220.446
 20
-221.472
 11
220.227
 21
-221.592
  0
LINE
  8
0
 10
220.227
 20
-221.592
 11
219.993
 21
-221.679
  0
LINE
  8
0
 10
219.993
 20
-221.679
 11
219.749
 21
-221.732
  0
LINE
  8
0
 10
219.749
 20
-221.732
 11
219.5
 21
-221.75
  0
LINE
  8
0
 10
219.5
 20
-221.75
 11
119.5
 21
-221.75
  0
LINE
  8
0
 10
-106.5
 20
-221.75
 11
-106.749
 21
-221.732
  0
LINE
  8
0
 10
-106.749
 20
-221.732
 11
-106.993
 21
-221.679
  0
LINE
  8
0
 10
-106.993
 20
-221.679
 11
-107.227
 21
-221.592
  0
LINE
  8
0
 10
-107.227
 20
-221.592
 11
-107.446
 21
-221.472
  0
LINE
  8
0
 10
-107.446
 20
-221.472
 11
-107.646
 21
-221.323
  0
LINE
  8
0
 10
-107.646
 20
-221.323
 11
-107.823
 21
-221.146
  0
LINE
  8
0
 10
-107.823
 20
-221.146
 11
-107.972
 21
-220.946
  0
LINE
  8
0
 10
-107.972
 20
-220.946
 11
-108.092
 21
-220.727
  0
LINE
  8
0
 10
-108.092
 20
-220.727
 11
-108.179
 21
-220.493
  0
LINE
  8
0
 10
-108.179
 20
-220.493
 11
-108.232
 21
-220.249
  0
LINE
  8
0
 10
-108.232
 20
-220.249
 11
-108.25
 21
-220
  0
LINE
  8
0
 10
-108.25
 20
-220
 11
-108.232
 21
-219.751
  0
LINE
  8
0
 10
-108.232
 20
-219.751
 11
-108.179
 21
-219.507
  0
LINE
  8
0
 10
-108.179
 20
-219.507
 11
-108.092
 21
-219.273
  0
LINE
  8
0
 10
-108.092
 20
-219.273
 11
-107.972
 21
-219.054
  0
LINE
  8
0
 10
-107.972
 20
-219.054
 11
-107.823
 21
-218.854
  0
LINE
  8
0
 10
-107.823
 20
-218.854
 11
-107.646
 21
-218.677
  0
LINE
  8
0
 10
-107.646
 20
-218.677
 11
-107.446
 21
-218.528
  0
LINE
  8
0
 10
-107.446
 20
-218.528
 11
-107.227
 21
-218.408
  0
LINE
  8
0
 10
-107.227
 20
-218.408
 11
-106.993
 21
-218.321
  0
LINE
  8
0
 10
-106.993
 20
-218.321
 11
-106.749
 21
-218.268
  0
LINE
  8
0
 10
-106.749
 20
-218.268
 11
-106.5
 21
-218.25
  0
LINE
  8
0
 10
-106.5
 20
-218.25
 11
-6.5
 21
-218.25
  0
LINE
  8
0
 10
-6.5
 20
-218.25
 11
-6.25095
 21
-218.268
  0
LINE
  8
0
 10
-6.25095
 20
-218.268
 11
-6.00696
 21
-218.321
  0
LINE
  8
0
 10
-6.00696
 20
-218.321
 11
-5.77301
 21
-218.408
  0
LINE
  8
0
 10
-5.77301
 20
-218.408
 11
-5.55386
 21
-218.528
  0
LINE
  8
0
 10
-5.55386
 20
-218.528
 11
-5.35399
 21
-218.677
  0
LINE
  8
0
 10
-5.35399
 20
-218.677
 11
-5.17743
 21
-218.854
  0
LINE
  8
0
 10
-5.17743
 20
-218.854
 11
-5.0278
 21
-219.054
  0
LINE
  8
0
 10
-5.0278
 20
-219.054
 11
-4.90814
 21
-219.273
  0
LINE
  8
0
 10
-4.90814
 20
-219.273
 11
-4.82088
 21
-219.507
  0
LINE
  8
0
 10
-4.82088
 20
-219.507
 11
-4.76781
 21
-219.751
  0
LINE
  8
0
 10
-4.76781
 20
-219.751
 11
-4.75
 21
-220
  0
LINE
  8
0
 10
-4.75
 20
-220
 11
-4.76781
 21
-220.249
  0
LINE
  8
0
 10
-4.76781
 20
-220.249
 11
-4.82088
 21
-220.493
  0
LINE
  8
0
 10
-4.82088
 20
-220.493
 11
-4.90814
 21
-220.727
  0
LINE
  8
0
 10
-4.90814
 20
-220.727
 11
-5.0278
 21
-220.946
  0
LINE
  8
0
 10
-5.0278
 20
-220.946
 11
-5.17743
 21
-221.146
  0
LINE
  8
0
 10
-5.17743
 20
-221.146
 11
-5.35399
 21
-221.323
  0
LINE
  8
0
 10
-5.35399
 20
-221.323
 11
-5.55386
 21
-221.472
  0
LINE
  8
0
 10
-5.55386
 20
-221.472
 11
-5.77301
 21
-221.592
  0
LINE
  8
0
 10
-5.77301
 20
-221.592
 11
-6.00696
 21
-221.679
  0
LINE
  8
0
 10
-6.00696
 20
-221.679
 11
-6.25095
 21
-221.732
  0
LINE
  8
0
 10
-6.25095
 20
-221.732
 11
-6.5
 21
-221.75
  0
LINE
  8
0
 10
-6.5
 20
-221.75
 11
-106.5
 21
-221.75
  0
LINE
  8
0
 10
-219.5
 20
-221.75
 11
-219.749
 21
-221.732
  0
LINE
  8
0
 10
-219.749
 20
-221.732
 11
-219.993
 21
-221.679
  0
LINE
  8
0
 10
-219.993
 20
-221.679
 11
-220.227
 21
-221.592
  0
LINE
  8
0
 10
-220.227
 20
-221.592
 11
-220.446
 21
-221.472
  0
LINE
  8
0
 10
-220.446
 20
-221.472
 11
-220.646
 21
-221.323
  0
LINE
  8
0
 10
-220.646
 20
-221.323
 11
-220.823
 21
-221.146
  0
LINE
  8
0
 10
-220.823
 20
-221.146
 11
-220.972
 21
-220.946
  0
LINE
  8
0
 10
-220.972
 20
-220.946
 11
-221.092
 21
-220.727
  0
LINE
  8
0
 10
-221.092
 20
-220.727
 11
-221.179
 21
-220.493
  0
LINE
  8
0
 10
-221.179
 20
-220.493
 11
-221.232
 21
-220.249
  0
LINE
  8
0
 10
-221.232
 20
-220.249
 11
-221.25
 21
-220
  0
LINE
  8
0
 10
-221.25
 20
-220
 11
-221.232
 21
-219.751
  0
LINE
  8
0
 10
-221.232
 20
-219.751
 11
-221.179
 21
-219.507
  0
LINE
  8
0
 10
-221.179
 20
-219.507
 11
-221.092
 21
-219.273
  0
LINE
  8
0
 10
-221.092
 20
-219.273
 11
-220.972
 21
-219.054
  0
LINE
  8
0
 10
-220.972
 20
-219.054
 11
-220.823
 21
-218.854
  0
LINE
  8
0
 10
-220.823
 20
-218.854
 11
-220.646
 21
-218.677
  0
LINE
  8
0
 10
-220.646
 20
-218.677
 11
-220.446
 21
-218.528
  0
LINE
  8
0
 10
-220.446
 20
-218.528
 11
-220.227
 21
-218.408
  0
LINE
  8
0
 10
-220.227
 20
-218.408
 11
-219.993
 21
-218.321
  0
LINE
  8
0
 10
-219.993
 20
-218.321
 11
-219.749
 21
-218.268
  0
LINE
  8
0
 10
-219.749
 20
-218.268
 11
-219.5
 21
-218.25
  0
LINE
  8
0
 10
-219.5
 20
-218.25
 11
-119.5
 21
-218.25
  0
LINE
  8
0
 10
-119.5
 20
-218.25
 11
-119.251
 21
-218.268
  0
LINE
  8
0
 10
-119.251
 20
-218.268
 11
-119.007
 21
-218.321
  0
LINE
  8
0
 10
-119.007
 20
-218.321
 11
-118.773
 21
-218.408
  0
LINE
  8
0
 10
-118.773
 20
-218.408
 11
-118.554
 21
-218.528
  0
LINE
  8
0
 10
-118.554
 20
-218.528
 11
-118.354
 21
-218.677
  0
LINE
  8
0
 10
-118.354
 20
-218.677
 11
-118.177
 21
-218.854
  0
LINE
  8
0
 10
-118.177
 20
-218.854
 11
-118.028
 21
-219.054
  0
LINE
  8
0
 10
-118.028
 20
-219.054
 11
-117.908
 21
-219.273
  0
LINE
  8
0
 10
-117.908
 20
-219.273
 11
-117.821
 21
-219.507
  0
LINE
  8
0
 10
-117.821
 20
-219.507
 11
-117.768
 21
-219.751
  0
LINE
  8
0
 10
-117.768
 20
-219.751
 11
-117.75
 21
-220
  0
LINE
  8
0
 10
-117.75
 20
-220
 11
-117.768
 21
-220.249
  0
LINE
  8
0
 10
-117.768
 20
-220.249
 11
-117.821
 21
-220.493
  0
LINE
  8
0
 10
-117.821
 20
-220.493
 11
-117.908
 21
-220.727
  0
LINE
  8
0
 10
-117.908
 20
-220.727
 11
-118.028
 21
-220.946
  0
LINE
  8
0
 10
-118.028
 20
-220.946
 11
-118.177
 21
-221.146
  0
LINE
  8
0
 10
-118.177
 20
-221.146
 11
-118.354
 21
-221.323
  0
LINE
  8
0
 10
-118.354
 20
-221.323
 11
-118.554
 21
-221.472
  0
LINE
  8
0
 10
-118.554
 20
-221.472
 11
-118.773
 21
-221.592
  0
LINE
  8
0
 10
-118.773
 20
-221.592
 11
-119.007
 21
-221.679
  0
LINE
  8
0
 10
-119.007
 20
-221.679
 11
-119.251
 21
-221.732
  0
LINE
  8
0
 10
-119.251
 20
-221.732
 11
-119.5
 21
-221.75
  0
LINE
  8
0
 10
-119.5
 20
-221.75
 11
-219.5
 21
-221.75
  0
LINE
  8
0
 10
-227.686
 20
-221.69
 11
-227.93
 21
-221.645
  0
LINE
  8
0
 10
-227.93
 20
-221.645
 11
-228.165
 21
-221.565
  0
LINE
  8
0
 10
-228.165
 20
-221.565
 11
-228.386
 21
-221.451
  0
LINE
  8
0
 10
-228.386
 20
-221.451
 11
-228.587
 21
-221.307
  0
LINE
  8
0
 10
-228.587
 20
-221.307
 11
-228.766
 21
-221.134
  0
LINE
  8
0
 10
-228.766
 20
-221.134
 11
-228.918
 21
-220.938
  0
LINE
  8
0
 10
-228.918
 20
-220.938
 11
-229.039
 21
-220.722
  0
LINE
  8
0
 10
-229.039
 20
-220.722
 11
-229.128
 21
-220.49
  0
LINE
  8
0
 10
-229.128
 20
-220.49
 11
-229.182
 21
-220.248
  0
LINE
  8
0
 10
-229.182
 20
-220.248
 11
-229.2
 21
-220
  0
LINE
  8
0
 10
-229.2
 20
-220
 11
-229.182
 21
-219.752
  0
LINE
  8
0
 10
-229.182
 20
-219.752
 11
-229.128
 21
-219.51
  0
LINE
  8
0
 10
-229.128
 20
-219.51
 11
-229.039
 21
-219.278
  0
LINE
  8
0
 10
-229.039
 20
-219.278
 11
-228.918
 21
-219.062
  0
LINE
  8
0
 10
-228.918
 20
-219.062
 11
-228.766
 21
-218.866
  0
LINE
  8
0
 10
-228.766
 20
-218.866
 11
-228.587
 21
-218.693
  0
LINE
  8
0
 10
-228.587
 20
-218.693
 11
-228.386
 21
-218.549
  0
LINE
  8
0
 10
-228.386
 20
-218.549
 11
-228.165
 21
-218.435
  0
LINE
  8
0
 10
-228.165
 20
-218.435
 11
-227.93
 21
-218.355
  0
LINE
  8
0
 10
-227.93
 20
-218.355
 11
-227.686
 21
-218.31
  0
LINE
  8
0
 10
-227.686
 20
-218.31
 11
-227.438
 21
-218.301
  0
LINE
  8
0
 10
-227.438
 20
-218.301
 11
-227.191
 21
-218.328
  0
LINE
  8
0
 10
-227.191
 20
-218.328
 11
-226.951
 21
-218.391
  0
LINE
  8
0
 10
-226.951
 20
-218.391
 11
-226.723
 21
-218.488
  0
LINE
  8
0
 10
-226.723
 20
-218.488
 11
-226.511
 21
-218.617
  0
LINE
  8
0
 10
-226.511
 20
-218.617
 11
-226.32
 21
-218.776
  0
LINE
  8
0
 10
-226.32
 20
-218.776
 11
-226.154
 21
-218.961
  0
LINE
  8
0
 10
-226.154
 20
-218.961
 11
-226.018
 21
-219.168
  0
LINE
  8
0
 10
-226.018
 20
-219.168
 11
-225.912
 21
-219.393
  0
LINE
  8
0
 10
-225.912
 20
-219.393
 11
-225.841
 21
-219.63
  0
LINE
  8
0
 10
-225.841
 20
-219.63
 11
-225.805
 21
-219.876
  0
LINE
  8
0
 10
-225.805
 20
-219.876
 11
-225.805
 21
-220.124
  0
LINE
  8
0
 10
-225.805
 20
-220.124
 11
-225.841
 21
-220.37
  0
LINE
  8
0
 10
-225.841
 20
-220.37
 11
-225.912
 21
-220.607
  0
LINE
  8
0
 10
-225.912
 20
-220.607
 11
-226.018
 21
-220.832
  0
LINE
  8
0
 10
-226.018
 20
-220.832
 11
-226.154
 21
-221.039
  0
LINE
  8
0
 10
-226.154
 20
-221.039
 11
-226.32
 21
-221.224
  0
LINE
  8
0
 10
-226.32
 20
-221.224
 11
-226.511
 21
-221.383
  0
LINE
  8
0
 10
-226.511
 20
-221.383
 11
-226.723
 21
-221.512
  0
LINE
  8
0
 10
-226.723
 20
-221.512
 11
-226.951
 21
-221.609
  0
LINE
  8
0
 10
-226.951
 20
-221.609
 11
-227.191
 21
-221.672
  0
LINE
  8
0
 10
-227.191
 20
-221.672
 11
-227.438
 21
-221.699
  0
LINE
  8
0
 10
-227.438
 20
-221.699
 11
-227.686
 21
-221.69
  0
LINE
  8
0
 10
227.191
 20
-221.672
 11
226.951
 21
-221.609
  0
LINE
  8
0
 10
226.951
 20
-221.609
 11
226.723
 21
-221.512
  0
LINE
  8
0
 10
226.723
 20
-221.512
 11
226.511
 21
-221.383
  0
LINE
  8
0
 10
226.511
 20
-221.383
 11
226.32
 21
-221.224
  0
LINE
  8
0
 10
226.32
 20
-221.224
 11
226.154
 21
-221.039
  0
LINE
  8
0
 10
226.154
 20
-221.039
 11
226.018
 21
-220.832
  0
LINE
  8
0
 10
226.018
 20
-220.832
 11
225.912
 21
-220.607
  0
LINE
  8
0
 10
225.912
 20
-220.607
 11
225.841
 21
-220.37
  0
LINE
  8
0
 10
225.841
 20
-220.37
 11
225.805
 21
-220.124
  0
LINE
  8
0
 10
225.805
 20
-220.124
 11
225.805
 21
-219.876
  0
LINE
  8
0
 10
225.805
 20
-219.876
 11
225.841
 21
-219.63
  0
LINE
  8
0
 10
225.841
 20
-219.63
 11
225.912
 21
-219.393
  0
LINE
  8
0
 10
225.912
 20
-219.393
 11
226.018
 21
-219.168
  0
LINE
  8
0
 10
226.018
 20
-219.168
 11
226.154
 21
-218.961
  0
LINE
  8
0
 10
226.154
 20
-218.961
 11
226.32
 21
-218.776
  0
LINE
  8
0
 10
226.32
 20
-218.776
 11
226.511
 21
-218.617
  0
LINE
  8
0
 10
226.511
 20
-218.617
 11
226.723
 21
-218.488
  0
LINE
  8
0
 10
226.723
 20
-218.488
 11
226.951
 21
-218.391
  0
LINE
  8
0
 10
226.951
 20
-218.391
 11
227.191
 21
-218.328
  0
LINE
  8
0
 10
227.191
 20
-218.328
 11
227.438
 21
-218.301
  0
LINE
  8
0
 10
227.438
 20
-218.301
 11
227.686
 21
-218.31
  0
LINE
  8
0
 10
227.686
 20
-218.31
 11
227.93
 21
-218.355
  0
LINE
  8
0
 10
227.93
 20
-218.355
 11
228.165
 21
-218.435
  0
LINE
  8
0
 10
228.165
 20
-218.435
 11
228.386
 21
-218.549
  0
LINE
  8
0
 10
228.386
 20
-218.549
 11
228.587
 21
-218.693
  0
LINE
  8
0
 10
228.587
 20
-218.693
 11
228.766
 21
-218.866
  0
LINE
  8
0
 10
228.766
 20
-218.866
 11
228.918
 21
-219.062
  0
LINE
  8
0
 10
228.918
 20
-219.062
 11
229.039
 21
-219.278
  0
LINE
  8
0
 10
229.039
 20
-219.278
 11
229.128
 21
-219.51
  0
LINE
  8
0
 10
229.128
 20
-219.51
 11
229.182
 21
-219.752
  0
LINE
  8
0
 10
229.182
 20
-219.752
 11
229.2
 21
-220
  0
LINE
  8
0
 10
229.2
 20
-220
 11
229.182
 21
-220.248
  0
LINE
  8
0
 10
229.182
 20
-220.248
 11
229.128
 21
-220.49
  0
LINE
  8
0
 10
229.128
 20
-220.49
 11
229.039
 21
-220.722
  0
LINE
  8
0
 10
229.039
 20
-220.722
 11
228.918
 21
-220.938
  0
LINE
  8
0
 10
228.918
 20
-220.938
 11
228.766
 21
-221.134
  0
LINE
  8
0
 10
228.766
 20
-221.134
 11
228.587
 21
-221.307
  0
LINE
  8
0
 10
228.587
 20
-221.307
 11
228.386
 21
-221.451
  0
LINE
  8
0
 10
228.386
 20
-221.451
 11
228.165
 21
-221.565
  0
LINE
  8
0
 10
228.165
 20
-221.565
 11
227.93
 21
-221.645
  0
LINE
  8
0
 10
227.93
 20
-221.645
 11
227.686
 21
-221.69
  0
LINE
  8
0
 10
227.686
 20
-221.69
 11
227.438
 21
-221.699
  0
LINE
  8
0
 10
227.438
 20
-221.699
 11
227.191
 21
-221.672
  0
LINE
  8
0
 10
288.827
 20
-222.645
 11
288.583
 21
-222.609
  0
LINE
  8
0
 10
288.583
 20
-222.609
 11
288.347
 21
-222.536
  0
LINE
  8
0
 10
288.347
 20
-222.536
 11
288.125
 21
-222.429
  0
LINE
  8
0
 10
288.125
 20
-222.429
 11
287.921
 21
-222.29
  0
LINE
  8
0
 10
287.921
 20
-222.29
 11
287.74
 21
-222.122
  0
LINE
  8
0
 10
287.74
 20
-222.122
 11
287.587
 21
-221.929
  0
LINE
  8
0
 10
287.587
 20
-221.929
 11
287.463
 21
-221.716
  0
LINE
  8
0
 10
287.463
 20
-221.716
 11
287.373
 21
-221.486
  0
LINE
  8
0
 10
287.373
 20
-221.486
 11
287.318
 21
-221.246
  0
LINE
  8
0
 10
287.318
 20
-221.246
 11
287.3
 21
-221
  0
LINE
  8
0
 10
287.3
 20
-221
 11
287.318
 21
-220.754
  0
LINE
  8
0
 10
287.318
 20
-220.754
 11
287.373
 21
-220.514
  0
LINE
  8
0
 10
287.373
 20
-220.514
 11
287.463
 21
-220.284
  0
LINE
  8
0
 10
287.463
 20
-220.284
 11
287.587
 21
-220.071
  0
LINE
  8
0
 10
287.587
 20
-220.071
 11
287.74
 21
-219.878
  0
LINE
  8
0
 10
287.74
 20
-219.878
 11
287.921
 21
-219.71
  0
LINE
  8
0
 10
287.921
 20
-219.71
 11
288.125
 21
-219.571
  0
LINE
  8
0
 10
288.125
 20
-219.571
 11
288.347
 21
-219.464
  0
LINE
  8
0
 10
288.347
 20
-219.464
 11
288.583
 21
-219.391
  0
LINE
  8
0
 10
288.583
 20
-219.391
 11
288.827
 21
-219.355
  0
LINE
  8
0
 10
288.827
 20
-219.355
 11
297.073
 21
-219.355
  0
LINE
  8
0
 10
297.073
 20
-219.355
 11
297.317
 21
-219.391
  0
LINE
  8
0
 10
297.317
 20
-219.391
 11
297.553
 21
-219.464
  0
LINE
  8
0
 10
297.553
 20
-219.464
 11
297.775
 21
-219.571
  0
LINE
  8
0
 10
297.775
 20
-219.571
 11
297.979
 21
-219.71
  0
LINE
  8
0
 10
297.979
 20
-219.71
 11
298.16
 21
-219.878
  0
LINE
  8
0
 10
298.16
 20
-219.878
 11
298.313
 21
-220.071
  0
LINE
  8
0
 10
298.313
 20
-220.071
 11
298.437
 21
-220.284
  0
LINE
  8
0
 10
298.437
 20
-220.284
 11
298.527
 21
-220.514
  0
LINE
  8
0
 10
298.527
 20
-220.514
 11
298.582
 21
-220.754
  0
LINE
  8
0
 10
298.582
 20
-220.754
 11
298.6
 21
-221
  0
LINE
  8
0
 10
298.6
 20
-221
 11
298.582
 21
-221.246
  0
LINE
  8
0
 10
298.582
 20
-221.246
 11
298.527
 21
-221.486
  0
LINE
  8
0
 10
298.527
 20
-221.486
 11
298.437
 21
-221.716
  0
LINE
  8
0
 10
298.437
 20
-221.716
 11
298.313
 21
-221.929
  0
LINE
  8
0
 10
298.313
 20
-221.929
 11
298.16
 21
-222.122
  0
LINE
  8
0
 10
298.16
 20
-222.122
 11
297.979
 21
-222.29
  0
LINE
  8
0
 10
297.979
 20
-222.29
 11
297.775
 21
-222.429
  0
LINE
  8
0
 10
297.775
 20
-222.429
 11
297.553
 21
-222.536
  0
LINE
  8
0
 10
297.553
 20
-222.536
 11
297.317
 21
-222.609
  0
LINE
  8
0
 10
297.317
 20
-222.609
 11
297.073
 21
-222.645
  0
LINE
  8
0
 10
297.073
 20
-222.645
 11
288.827
 21
-222.645
  0
LINE
  8
0
 10
257.827
 20
-222.645
 11
257.583
 21
-222.609
  0
LINE
  8
0
 10
257.583
 20
-222.609
 11
257.347
 21
-222.536
  0
LINE
  8
0
 10
257.347
 20
-222.536
 11
257.125
 21
-222.429
  0
LINE
  8
0
 10
257.125
 20
-222.429
 11
256.921
 21
-222.29
  0
LINE
  8
0
 10
256.921
 20
-222.29
 11
256.74
 21
-222.122
  0
LINE
  8
0
 10
256.74
 20
-222.122
 11
256.587
 21
-221.929
  0
LINE
  8
0
 10
256.587
 20
-221.929
 11
256.463
 21
-221.716
  0
LINE
  8
0
 10
256.463
 20
-221.716
 11
256.373
 21
-221.486
  0
LINE
  8
0
 10
256.373
 20
-221.486
 11
256.318
 21
-221.246
  0
LINE
  8
0
 10
256.318
 20
-221.246
 11
256.3
 21
-221
  0
LINE
  8
0
 10
256.3
 20
-221
 11
256.318
 21
-220.754
  0
LINE
  8
0
 10
256.318
 20
-220.754
 11
256.373
 21
-220.514
  0
LINE
  8
0
 10
256.373
 20
-220.514
 11
256.463
 21
-220.284
  0
LINE
  8
0
 10
256.463
 20
-220.284
 11
256.587
 21
-220.071
  0
LINE
  8
0
 10
256.587
 20
-220.071
 11
256.74
 21
-219.878
  0
LINE
  8
0
 10
256.74
 20
-219.878
 11
256.921
 21
-219.71
  0
LINE
  8
0
 10
256.921
 20
-219.71
 11
257.125
 21
-219.571
  0
LINE
  8
0
 10
257.125
 20
-219.571
 11
257.347
 21
-219.464
  0
LINE
  8
0
 10
257.347
 20
-219.464
 11
257.583
 21
-219.391
  0
LINE
  8
0
 10
257.583
 20
-219.391
 11
257.827
 21
-219.355
  0
LINE
  8
0
 10
257.827
 20
-219.355
 11
266.073
 21
-219.355
  0
LINE
  8
0
 10
266.073
 20
-219.355
 11
266.317
 21
-219.391
  0
LINE
  8
0
 10
266.317
 20
-219.391
 11
266.553
 21
-219.464
  0
LINE
  8
0
 10
266.553
 20
-219.464
 11
266.775
 21
-219.571
  0
LINE
  8
0
 10
266.775
 20
-219.571
 11
266.979
 21
-219.71
  0
LINE
  8
0
 10
266.979
 20
-219.71
 11
267.16
 21
-219.878
  0
LINE
  8
0
 10
267.16
 20
-219.878
 11
267.313
 21
-220.071
  0
LINE
  8
0
 10
267.313
 20
-220.071
 11
267.437
 21
-220.284
  0
LINE
  8
0
 10
267.437
 20
-220.284
 11
267.527
 21
-220.514
  0
LINE
  8
0
 10
267.527
 20
-220.514
 11
267.582
 21
-220.754
  0
LINE
  8
0
 10
267.582
 20
-220.754
 11
267.6
 21
-221
  0
LINE
  8
0
 10
267.6
 20
-221
 11
267.582
 21
-221.246
  0
LINE
  8
0
 10
267.582
 20
-221.246
 11
267.527
 21
-221.486
  0
LINE
  8
0
 10
267.527
 20
-221.486
 11
267.437
 21
-221.716
  0
LINE
  8
0
 10
267.437
 20
-221.716
 11
267.313
 21
-221.929
  0
LINE
  8
0
 10
267.313
 20
-221.929
 11
267.16
 21
-222.122
  0
LINE
  8
0
 10
267.16
 20
-222.122
 11
266.979
 21
-222.29
  0
LINE
  8
0
 10
266.979
 20
-222.29
 11
266.775
 21
-222.429
  0
LINE
  8
0
 10
266.775
 20
-222.429
 11
266.553
 21
-222.536
  0
LINE
  8
0
 10
266.553
 20
-222.536
 11
266.317
 21
-222.609
  0
LINE
  8
0
 10
266.317
 20
-222.609
 11
266.073
 21
-222.645
  0
LINE
  8
0
 10
266.073
 20
-222.645
 11
257.827
 21
-222.645
  0
LINE
  8
0
 10
-311.686
 20
-226.69
 11
-311.93
 21
-226.645
  0
LINE
  8
0
 10
-311.93
 20
-226.645
 11
-312.165
 21
-226.565
  0
LINE
  8
0
 10
-312.165
 20
-226.565
 11
-312.386
 21
-226.451
  0
LINE
  8
0
 10
-312.386
 20
-226.451
 11
-312.587
 21
-226.307
  0
LINE
  8
0
 10
-312.587
 20
-226.307
 11
-312.766
 21
-226.134
  0
LINE
  8
0
 10
-312.766
 20
-226.134
 11
-312.918
 21
-225.938
  0
LINE
  8
0
 10
-312.918
 20
-225.938
 11
-313.039
 21
-225.722
  0
LINE
  8
0
 10
-313.039
 20
-225.722
 11
-313.128
 21
-225.49
  0
LINE
  8
0
 10
-313.128
 20
-225.49
 11
-313.182
 21
-225.248
  0
LINE
  8
0
 10
-313.182
 20
-225.248
 11
-313.2
 21
-225
  0
LINE
  8
0
 10
-313.2
 20
-225
 11
-313.182
 21
-224.752
  0
LINE
  8
0
 10
-313.182
 20
-224.752
 11
-313.128
 21
-224.51
  0
LINE
  8
0
 10
-313.128
 20
-224.51
 11
-313.039
 21
-224.278
  0
LINE
  8
0
 10
-313.039
 20
-224.278
 11
-312.918
 21
-224.062
  0
LINE
  8
0
 10
-312.918
 20
-224.062
 11
-312.766
 21
-223.866
  0
LINE
  8
0
 10
-312.766
 20
-223.866
 11
-312.587
 21
-223.693
  0
LINE
  8
0
 10
-312.587
 20
-223.693
 11
-312.386
 21
-223.549
  0
LINE
  8
0
 10
-312.386
 20
-223.549
 11
-312.165
 21
-223.435
  0
LINE
  8
0
 10
-312.165
 20
-223.435
 11
-311.93
 21
-223.355
  0
LINE
  8
0
 10
-311.93
 20
-223.355
 11
-311.686
 21
-223.31
  0
LINE
  8
0
 10
-311.686
 20
-223.31
 11
-311.438
 21
-223.301
  0
LINE
  8
0
 10
-311.438
 20
-223.301
 11
-311.191
 21
-223.328
  0
LINE
  8
0
 10
-311.191
 20
-223.328
 11
-310.951
 21
-223.391
  0
LINE
  8
0
 10
-310.951
 20
-223.391
 11
-310.723
 21
-223.488
  0
LINE
  8
0
 10
-310.723
 20
-223.488
 11
-310.511
 21
-223.617
  0
LINE
  8
0
 10
-310.511
 20
-223.617
 11
-310.32
 21
-223.776
  0
LINE
  8
0
 10
-310.32
 20
-223.776
 11
-310.154
 21
-223.961
  0
LINE
  8
0
 10
-310.154
 20
-223.961
 11
-310.018
 21
-224.168
  0
LINE
  8
0
 10
-310.018
 20
-224.168
 11
-309.912
 21
-224.393
  0
LINE
  8
0
 10
-309.912
 20
-224.393
 11
-309.841
 21
-224.63
  0
LINE
  8
0
 10
-309.841
 20
-224.63
 11
-309.805
 21
-224.876
  0
LINE
  8
0
 10
-309.805
 20
-224.876
 11
-309.805
 21
-225.124
  0
LINE
  8
0
 10
-309.805
 20
-225.124
 11
-309.841
 21
-225.37
  0
LINE
  8
0
 10
-309.841
 20
-225.37
 11
-309.912
 21
-225.607
  0
LINE
  8
0
 10
-309.912
 20
-225.607
 11
-310.018
 21
-225.832
  0
LINE
  8
0
 10
-310.018
 20
-225.832
 11
-310.154
 21
-226.039
  0
LINE
  8
0
 10
-310.154
 20
-226.039
 11
-310.32
 21
-226.224
  0
LINE
  8
0
 10
-310.32
 20
-226.224
 11
-310.511
 21
-226.383
  0
LINE
  8
0
 10
-310.511
 20
-226.383
 11
-310.723
 21
-226.512
  0
LINE
  8
0
 10
-310.723
 20
-226.512
 11
-310.951
 21
-226.609
  0
LINE
  8
0
 10
-310.951
 20
-226.609
 11
-311.191
 21
-226.672
  0
LINE
  8
0
 10
-311.191
 20
-226.672
 11
-311.438
 21
-226.699
  0
LINE
  8
0
 10
-311.438
 20
-226.699
 11
-311.686
 21
-226.69
  0
LINE
  8
0
 10
311.191
 20
-226.672
 11
310.951
 21
-226.609
  0
LINE
  8
0
 10
310.951
 20
-226.609
 11
310.723
 21
-226.512
  0
LINE
  8
0
 10
310.723
 20
-226.512
 11
310.511
 21
-226.383
  0
LINE
  8
0
 10
310.511
 20
-226.383
 11
310.32
 21
-226.224
  0
LINE
  8
0
 10
310.32
 20
-226.224
 11
310.154
 21
-226.039
  0
LINE
  8
0
 10
310.154
 20
-226.039
 11
310.018
 21
-225.832
  0
LINE
  8
0
 10
310.018
 20
-225.832
 11
309.912
 21
-225.607
  0
LINE
  8
0
 10
309.912
 20
-225.607
 11
309.841
 21
-225.37
  0
LINE
  8
0
 10
309.841
 20
-225.37
 11
309.805
 21
-225.124
  0
LINE
  8
0
 10
309.805
 20
-225.124
 11
309.805
 21
-224.876
  0
LINE
  8
0
 10
309.805
 20
-224.876
 11
309.841
 21
-224.63
  0
LINE
  8
0
 10
309.841
 20
-224.63
 11
309.912
 21
-224.393
  0
LINE
  8
0
 10
309.912
 20
-224.393
 11
310.018
 21
-224.168
  0
LINE
  8
0
 10
310.018
 20
-224.168
 11
310.154
 21
-223.961
  0
LINE
  8
0
 10
310.154
 20
-223.961
 11
310.32
 21
-223.776
  0
LINE
  8
0
 10
310.32
 20
-223.776
 11
310.511
 21
-223.617
  0
LINE
  8
0
 10
310.511
 20
-223.617
 11
310.723
 21
-223.488
  0
LINE
  8
0
 10
310.723
 20
-223.488
 11
310.951
 21
-223.391
  0
LINE
  8
0
 10
310.951
 20
-223.391
 11
311.191
 21
-223.328
  0
LINE
  8
0
 10
311.191
 20
-223.328
 11
311.438
 21
-223.301
  0
LINE
  8
0
 10
311.438
 20
-223.301
 11
311.686
 21
-223.31
  0
LINE
  8
0
 10
311.686
 20
-223.31
 11
311.93
 21
-223.355
  0
LINE
  8
0
 10
311.93
 20
-223.355
 11
312.165
 21
-223.435
  0
LINE
  8
0
 10
312.165
 20
-223.435
 11
312.386
 21
-223.549
  0
LINE
  8
0
 10
312.386
 20
-223.549
 11
312.587
 21
-223.693
  0
LINE
  8
0
 10
312.587
 20
-223.693
 11
312.766
 21
-223.866
  0
LINE
  8
0
 10
312.766
 20
-223.866
 11
312.918
 21
-224.062
  0
LINE
  8
0
 10
312.918
 20
-224.062
 11
313.039
 21
-224.278
  0
LINE
  8
0
 10
313.039
 20
-224.278
 11
313.128
 21
-224.51
  0
LINE
  8
0
 10
313.128
 20
-224.51
 11
313.182
 21
-224.752
  0
LINE
  8
0
 10
313.182
 20
-224.752
 11
313.2
 21
-225
  0
LINE
  8
0
 10
313.2
 20
-225
 11
313.182
 21
-225.248
  0
LINE
  8
0
 10
313.182
 20
-225.248
 11
313.128
 21
-225.49
  0
LINE
  8
0
 10
313.128
 20
-225.49
 11
313.039
 21
-225.722
  0
LINE
  8
0
 10
313.039
 20
-225.722
 11
312.918
 21
-225.938
  0
LINE
  8
0
 10
312.918
 20
-225.938
 11
312.766
 21
-226.134
  0
LINE
  8
0
 10
312.766
 20
-226.134
 11
312.587
 21
-226.307
  0
LINE
  8
0
 10
312.587
 20
-226.307
 11
312.386
 21
-226.451
  0
LINE
  8
0
 10
312.386
 20
-226.451
 11
312.165
 21
-226.565
  0
LINE
  8
0
 10
312.165
 20
-226.565
 11
311.93
 21
-226.645
  0
LINE
  8
0
 10
311.93
 20
-226.645
 11
311.686
 21
-226.69
  0
LINE
  8
0
 10
311.686
 20
-226.69
 11
311.438
 21
-226.699
  0
LINE
  8
0
 10
311.438
 20
-226.699
 11
311.191
 21
-226.672
  0
ENDSEC
  0
SECTION
  2
OBJECTS
  0
DICTIONARY
  0
ENDSEC
  0
EOF
