  0
SECTION
  2
BLOCKS
  0
ENDSEC
  0
SECTION
  2
ENTITIES
  0
LINE
  8
0
 10
314.398
 20
-116.048
 11
314.915
 21
-115.966
  0
LINE
  8
0
 10
314.915
 20
-115.966
 11
315.42
 21
-115.83
  0
LINE
  8
0
 10
315.42
 20
-115.83
 11
315.909
 21
-115.643
  0
LINE
  8
0
 10
315.909
 20
-115.643
 11
316.375
 21
-115.405
  0
LINE
  8
0
 10
316.375
 20
-115.405
 11
316.814
 21
-115.12
  0
LINE
  8
0
 10
316.814
 20
-115.12
 11
317.221
 21
-114.791
  0
LINE
  8
0
 10
317.221
 20
-114.791
 11
317.591
 21
-114.421
  0
LINE
  8
0
 10
317.591
 20
-114.421
 11
317.92
 21
-114.014
  0
LINE
  8
0
 10
317.92
 20
-114.014
 11
318.205
 21
-113.575
  0
LINE
  8
0
 10
318.205
 20
-113.575
 11
318.443
 21
-113.109
  0
LINE
  8
0
 10
318.443
 20
-113.109
 11
318.63
 21
-112.62
  0
LINE
  8
0
 10
318.63
 20
-112.62
 11
318.766
 21
-112.115
  0
LINE
  8
0
 10
318.766
 20
-112.115
 11
318.848
 21
-111.598
  0
LINE
  8
0
 10
318.848
 20
-111.598
 11
318.875
 21
-111.075
  0
LINE
  8
0
 10
318.875
 20
-111.075
 11
318.875
 21
111.075
  0
LINE
  8
0
 10
318.875
 20
111.075
 11
318.848
 21
111.598
  0
LINE
  8
0
 10
318.848
 20
111.598
 11
318.766
 21
112.115
  0
LINE
  8
0
 10
318.766
 20
112.115
 11
318.63
 21
112.62
  0
LINE
  8
0
 10
318.63
 20
112.62
 11
318.443
 21
113.109
  0
LINE
  8
0
 10
318.443
 20
113.109
 11
318.205
 21
113.575
  0
LINE
  8
0
 10
318.205
 20
113.575
 11
317.92
 21
114.014
  0
LINE
  8
0
 10
317.92
 20
114.014
 11
317.591
 21
114.421
  0
LINE
  8
0
 10
317.591
 20
114.421
 11
317.221
 21
114.791
  0
LINE
  8
0
 10
317.221
 20
114.791
 11
316.814
 21
115.12
  0
LINE
  8
0
 10
316.814
 20
115.12
 11
316.375
 21
115.405
  0
LINE
  8
0
 10
316.375
 20
115.405
 11
315.909
 21
115.643
  0
LINE
  8
0
 10
315.909
 20
115.643
 11
315.42
 21
115.83
  0
LINE
  8
0
 10
315.42
 20
115.83
 11
314.915
 21
115.966
  0
LINE
  8
0
 10
314.915
 20
115.966
 11
314.398
 21
116.048
  0
LINE
  8
0
 10
314.398
 20
116.048
 11
313.875
 21
116.075
  0
LINE
  8
0
 10
313.875
 20
116.075
 11
-313.875
 21
116.075
  0
LINE
  8
0
 10
-313.875
 20
116.075
 11
-314.398
 21
116.048
  0
LINE
  8
0
 10
-314.398
 20
116.048
 11
-314.915
 21
115.966
  0
LINE
  8
0
 10
-314.915
 20
115.966
 11
-315.42
 21
115.83
  0
LINE
  8
0
 10
-315.42
 20
115.83
 11
-315.909
 21
115.643
  0
LINE
  8
0
 10
-315.909
 20
115.643
 11
-316.375
 21
115.405
  0
LINE
  8
0
 10
-316.375
 20
115.405
 11
-316.814
 21
115.12
  0
LINE
  8
0
 10
-316.814
 20
115.12
 11
-317.221
 21
114.791
  0
LINE
  8
0
 10
-317.221
 20
114.791
 11
-317.591
 21
114.421
  0
LINE
  8
0
 10
-317.591
 20
114.421
 11
-317.92
 21
114.014
  0
LINE
  8
0
 10
-317.92
 20
114.014
 11
-318.205
 21
113.575
  0
LINE
  8
0
 10
-318.205
 20
113.575
 11
-318.443
 21
113.109
  0
LINE
  8
0
 10
-318.443
 20
113.109
 11
-318.63
 21
112.62
  0
LINE
  8
0
 10
-318.63
 20
112.62
 11
-318.766
 21
112.115
  0
LINE
  8
0
 10
-318.766
 20
112.115
 11
-318.848
 21
111.598
  0
LINE
  8
0
 10
-318.848
 20
111.598
 11
-318.875
 21
111.075
  0
LINE
  8
0
 10
-318.875
 20
111.075
 11
-318.875
 21
-111.075
  0
LINE
  8
0
 10
-318.875
 20
-111.075
 11
-318.848
 21
-111.598
  0
LINE
  8
0
 10
-318.848
 20
-111.598
 11
-318.766
 21
-112.115
  0
LINE
  8
0
 10
-318.766
 20
-112.115
 11
-318.63
 21
-112.62
  0
LINE
  8
0
 10
-318.63
 20
-112.62
 11
-318.443
 21
-113.109
  0
LINE
  8
0
 10
-318.443
 20
-113.109
 11
-318.205
 21
-113.575
  0
LINE
  8
0
 10
-318.205
 20
-113.575
 11
-317.92
 21
-114.014
  0
LINE
  8
0
 10
-317.92
 20
-114.014
 11
-317.591
 21
-114.421
  0
LINE
  8
0
 10
-317.591
 20
-114.421
 11
-317.221
 21
-114.791
  0
LINE
  8
0
 10
-317.221
 20
-114.791
 11
-316.814
 21
-115.12
  0
LINE
  8
0
 10
-316.814
 20
-115.12
 11
-316.375
 21
-115.405
  0
LINE
  8
0
 10
-316.375
 20
-115.405
 11
-315.909
 21
-115.643
  0
LINE
  8
0
 10
-315.909
 20
-115.643
 11
-315.42
 21
-115.83
  0
LINE
  8
0
 10
-315.42
 20
-115.83
 11
-314.915
 21
-115.966
  0
LINE
  8
0
 10
-314.915
 20
-115.966
 11
-314.398
 21
-116.048
  0
LINE
  8
0
 10
-314.398
 20
-116.048
 11
-313.875
 21
-116.075
  0
LINE
  8
0
 10
-313.875
 20
-116.075
 11
313.875
 21
-116.075
  0
LINE
  8
0
 10
313.875
 20
-116.075
 11
314.398
 21
-116.048
  0
LINE
  8
0
 10
311.108
 20
104.971
 11
310.72
 21
105.032
  0
LINE
  8
0
 10
310.72
 20
105.032
 11
310.341
 21
105.134
  0
LINE
  8
0
 10
310.341
 20
105.134
 11
309.975
 21
105.274
  0
LINE
  8
0
 10
309.975
 20
105.274
 11
309.625
 21
105.452
  0
LINE
  8
0
 10
309.625
 20
105.452
 11
309.296
 21
105.666
  0
LINE
  8
0
 10
309.296
 20
105.666
 11
308.991
 21
105.913
  0
LINE
  8
0
 10
308.991
 20
105.913
 11
308.713
 21
106.191
  0
LINE
  8
0
 10
308.713
 20
106.191
 11
308.466
 21
106.496
  0
LINE
  8
0
 10
308.466
 20
106.496
 11
308.252
 21
106.825
  0
LINE
  8
0
 10
308.252
 20
106.825
 11
308.074
 21
107.175
  0
LINE
  8
0
 10
308.074
 20
107.175
 11
307.934
 21
107.541
  0
LINE
  8
0
 10
307.934
 20
107.541
 11
307.832
 21
107.92
  0
LINE
  8
0
 10
307.832
 20
107.92
 11
307.771
 21
108.308
  0
LINE
  8
0
 10
307.771
 20
108.308
 11
307.75
 21
108.7
  0
LINE
  8
0
 10
307.75
 20
108.7
 11
307.771
 21
109.092
  0
LINE
  8
0
 10
307.771
 20
109.092
 11
307.832
 21
109.48
  0
LINE
  8
0
 10
307.832
 20
109.48
 11
307.934
 21
109.859
  0
LINE
  8
0
 10
307.934
 20
109.859
 11
308.074
 21
110.225
  0
LINE
  8
0
 10
308.074
 20
110.225
 11
308.252
 21
110.575
  0
LINE
  8
0
 10
308.252
 20
110.575
 11
308.466
 21
110.904
  0
LINE
  8
0
 10
308.466
 20
110.904
 11
308.713
 21
111.209
  0
LINE
  8
0
 10
308.713
 20
111.209
 11
308.991
 21
111.487
  0
LINE
  8
0
 10
308.991
 20
111.487
 11
309.296
 21
111.734
  0
LINE
  8
0
 10
309.296
 20
111.734
 11
309.625
 21
111.948
  0
LINE
  8
0
 10
309.625
 20
111.948
 11
309.975
 21
112.126
  0
LINE
  8
0
 10
309.975
 20
112.126
 11
310.341
 21
112.266
  0
LINE
  8
0
 10
310.341
 20
112.266
 11
310.72
 21
112.368
  0
LINE
  8
0
 10
310.72
 20
112.368
 11
311.108
 21
112.429
  0
LINE
  8
0
 10
311.108
 20
112.429
 11
311.5
 21
112.45
  0
LINE
  8
0
 10
311.5
 20
112.45
 11
311.892
 21
112.429
  0
LINE
  8
0
 10
311.892
 20
112.429
 11
312.28
 21
112.368
  0
LINE
  8
0
 10
312.28
 20
112.368
 11
312.659
 21
112.266
  0
LINE
  8
0
 10
312.659
 20
112.266
 11
313.025
 21
112.126
  0
LINE
  8
0
 10
313.025
 20
112.126
 11
313.375
 21
111.948
  0
LINE
  8
0
 10
313.375
 20
111.948
 11
313.704
 21
111.734
  0
LINE
  8
0
 10
313.704
 20
111.734
 11
314.009
 21
111.487
  0
LINE
  8
0
 10
314.009
 20
111.487
 11
314.287
 21
111.209
  0
LINE
  8
0
 10
314.287
 20
111.209
 11
314.534
 21
110.904
  0
LINE
  8
0
 10
314.534
 20
110.904
 11
314.748
 21
110.575
  0
LINE
  8
0
 10
314.748
 20
110.575
 11
314.926
 21
110.225
  0
LINE
  8
0
 10
314.926
 20
110.225
 11
315.066
 21
109.859
  0
LINE
  8
0
 10
315.066
 20
109.859
 11
315.168
 21
109.48
  0
LINE
  8
0
 10
315.168
 20
109.48
 11
315.229
 21
109.092
  0
LINE
  8
0
 10
315.229
 20
109.092
 11
315.25
 21
108.7
  0
LINE
  8
0
 10
315.25
 20
108.7
 11
315.229
 21
108.308
  0
LINE
  8
0
 10
315.229
 20
108.308
 11
315.168
 21
107.92
  0
LINE
  8
0
 10
315.168
 20
107.92
 11
315.066
 21
107.541
  0
LINE
  8
0
 10
315.066
 20
107.541
 11
314.926
 21
107.175
  0
LINE
  8
0
 10
314.926
 20
107.175
 11
314.748
 21
106.825
  0
LINE
  8
0
 10
314.748
 20
106.825
 11
314.534
 21
106.496
  0
LINE
  8
0
 10
314.534
 20
106.496
 11
314.287
 21
106.191
  0
LINE
  8
0
 10
314.287
 20
106.191
 11
314.009
 21
105.913
  0
LINE
  8
0
 10
314.009
 20
105.913
 11
313.704
 21
105.666
  0
LINE
  8
0
 10
313.704
 20
105.666
 11
313.375
 21
105.452
  0
LINE
  8
0
 10
313.375
 20
105.452
 11
313.025
 21
105.274
  0
LINE
  8
0
 10
313.025
 20
105.274
 11
312.659
 21
105.134
  0
LINE
  8
0
 10
312.659
 20
105.134
 11
312.28
 21
105.032
  0
LINE
  8
0
 10
312.28
 20
105.032
 11
311.892
 21
104.971
  0
LINE
  8
0
 10
311.892
 20
104.971
 11
311.5
 21
104.95
  0
LINE
  8
0
 10
311.5
 20
104.95
 11
311.108
 21
104.971
  0
LINE
  8
0
 10
-311.892
 20
104.971
 11
-312.28
 21
105.032
  0
LINE
  8
0
 10
-312.28
 20
105.032
 11
-312.659
 21
105.134
  0
LINE
  8
0
 10
-312.659
 20
105.134
 11
-313.025
 21
105.274
  0
LINE
  8
0
 10
-313.025
 20
105.274
 11
-313.375
 21
105.452
  0
LINE
  8
0
 10
-313.375
 20
105.452
 11
-313.704
 21
105.666
  0
LINE
  8
0
 10
-313.704
 20
105.666
 11
-314.009
 21
105.913
  0
LINE
  8
0
 10
-314.009
 20
105.913
 11
-314.287
 21
106.191
  0
LINE
  8
0
 10
-314.287
 20
106.191
 11
-314.534
 21
106.496
  0
LINE
  8
0
 10
-314.534
 20
106.496
 11
-314.748
 21
106.825
  0
LINE
  8
0
 10
-314.748
 20
106.825
 11
-314.926
 21
107.175
  0
LINE
  8
0
 10
-314.926
 20
107.175
 11
-315.066
 21
107.541
  0
LINE
  8
0
 10
-315.066
 20
107.541
 11
-315.168
 21
107.92
  0
LINE
  8
0
 10
-315.168
 20
107.92
 11
-315.229
 21
108.308
  0
LINE
  8
0
 10
-315.229
 20
108.308
 11
-315.25
 21
108.7
  0
LINE
  8
0
 10
-315.25
 20
108.7
 11
-315.229
 21
109.092
  0
LINE
  8
0
 10
-315.229
 20
109.092
 11
-315.168
 21
109.48
  0
LINE
  8
0
 10
-315.168
 20
109.48
 11
-315.066
 21
109.859
  0
LINE
  8
0
 10
-315.066
 20
109.859
 11
-314.926
 21
110.225
  0
LINE
  8
0
 10
-314.926
 20
110.225
 11
-314.748
 21
110.575
  0
LINE
  8
0
 10
-314.748
 20
110.575
 11
-314.534
 21
110.904
  0
LINE
  8
0
 10
-314.534
 20
110.904
 11
-314.287
 21
111.209
  0
LINE
  8
0
 10
-314.287
 20
111.209
 11
-314.009
 21
111.487
  0
LINE
  8
0
 10
-314.009
 20
111.487
 11
-313.704
 21
111.734
  0
LINE
  8
0
 10
-313.704
 20
111.734
 11
-313.375
 21
111.948
  0
LINE
  8
0
 10
-313.375
 20
111.948
 11
-313.025
 21
112.126
  0
LINE
  8
0
 10
-313.025
 20
112.126
 11
-312.659
 21
112.266
  0
LINE
  8
0
 10
-312.659
 20
112.266
 11
-312.28
 21
112.368
  0
LINE
  8
0
 10
-312.28
 20
112.368
 11
-311.892
 21
112.429
  0
LINE
  8
0
 10
-311.892
 20
112.429
 11
-311.5
 21
112.45
  0
LINE
  8
0
 10
-311.5
 20
112.45
 11
-311.108
 21
112.429
  0
LINE
  8
0
 10
-311.108
 20
112.429
 11
-310.72
 21
112.368
  0
LINE
  8
0
 10
-310.72
 20
112.368
 11
-310.341
 21
112.266
  0
LINE
  8
0
 10
-310.341
 20
112.266
 11
-309.975
 21
112.126
  0
LINE
  8
0
 10
-309.975
 20
112.126
 11
-309.625
 21
111.948
  0
LINE
  8
0
 10
-309.625
 20
111.948
 11
-309.296
 21
111.734
  0
LINE
  8
0
 10
-309.296
 20
111.734
 11
-308.991
 21
111.487
  0
LINE
  8
0
 10
-308.991
 20
111.487
 11
-308.713
 21
111.209
  0
LINE
  8
0
 10
-308.713
 20
111.209
 11
-308.466
 21
110.904
  0
LINE
  8
0
 10
-308.466
 20
110.904
 11
-308.252
 21
110.575
  0
LINE
  8
0
 10
-308.252
 20
110.575
 11
-308.074
 21
110.225
  0
LINE
  8
0
 10
-308.074
 20
110.225
 11
-307.934
 21
109.859
  0
LINE
  8
0
 10
-307.934
 20
109.859
 11
-307.832
 21
109.48
  0
LINE
  8
0
 10
-307.832
 20
109.48
 11
-307.771
 21
109.092
  0
LINE
  8
0
 10
-307.771
 20
109.092
 11
-307.75
 21
108.7
  0
LINE
  8
0
 10
-307.75
 20
108.7
 11
-307.771
 21
108.308
  0
LINE
  8
0
 10
-307.771
 20
108.308
 11
-307.832
 21
107.92
  0
LINE
  8
0
 10
-307.832
 20
107.92
 11
-307.934
 21
107.541
  0
LINE
  8
0
 10
-307.934
 20
107.541
 11
-308.074
 21
107.175
  0
LINE
  8
0
 10
-308.074
 20
107.175
 11
-308.252
 21
106.825
  0
LINE
  8
0
 10
-308.252
 20
106.825
 11
-308.466
 21
106.496
  0
LINE
  8
0
 10
-308.466
 20
106.496
 11
-308.713
 21
106.191
  0
LINE
  8
0
 10
-308.713
 20
106.191
 11
-308.991
 21
105.913
  0
LINE
  8
0
 10
-308.991
 20
105.913
 11
-309.296
 21
105.666
  0
LINE
  8
0
 10
-309.296
 20
105.666
 11
-309.625
 21
105.452
  0
LINE
  8
0
 10
-309.625
 20
105.452
 11
-309.975
 21
105.274
  0
LINE
  8
0
 10
-309.975
 20
105.274
 11
-310.341
 21
105.134
  0
LINE
  8
0
 10
-310.341
 20
105.134
 11
-310.72
 21
105.032
  0
LINE
  8
0
 10
-310.72
 20
105.032
 11
-311.108
 21
104.971
  0
LINE
  8
0
 10
-311.108
 20
104.971
 11
-311.5
 21
104.95
  0
LINE
  8
0
 10
-311.5
 20
104.95
 11
-311.892
 21
104.971
  0
LINE
  8
0
 10
248.877
 20
107.055
 11
248.633
 21
107.091
  0
LINE
  8
0
 10
248.633
 20
107.091
 11
248.397
 21
107.164
  0
LINE
  8
0
 10
248.397
 20
107.164
 11
248.175
 21
107.271
  0
LINE
  8
0
 10
248.175
 20
107.271
 11
247.971
 21
107.41
  0
LINE
  8
0
 10
247.971
 20
107.41
 11
247.79
 21
107.578
  0
LINE
  8
0
 10
247.79
 20
107.578
 11
247.637
 21
107.771
  0
LINE
  8
0
 10
247.637
 20
107.771
 11
247.513
 21
107.984
  0
LINE
  8
0
 10
247.513
 20
107.984
 11
247.423
 21
108.214
  0
LINE
  8
0
 10
247.423
 20
108.214
 11
247.368
 21
108.454
  0
LINE
  8
0
 10
247.368
 20
108.454
 11
247.35
 21
108.7
  0
LINE
  8
0
 10
247.35
 20
108.7
 11
247.368
 21
108.946
  0
LINE
  8
0
 10
247.368
 20
108.946
 11
247.423
 21
109.186
  0
LINE
  8
0
 10
247.423
 20
109.186
 11
247.513
 21
109.416
  0
LINE
  8
0
 10
247.513
 20
109.416
 11
247.637
 21
109.629
  0
LINE
  8
0
 10
247.637
 20
109.629
 11
247.79
 21
109.822
  0
LINE
  8
0
 10
247.79
 20
109.822
 11
247.971
 21
109.99
  0
LINE
  8
0
 10
247.971
 20
109.99
 11
248.175
 21
110.129
  0
LINE
  8
0
 10
248.175
 20
110.129
 11
248.397
 21
110.236
  0
LINE
  8
0
 10
248.397
 20
110.236
 11
248.633
 21
110.309
  0
LINE
  8
0
 10
248.633
 20
110.309
 11
248.877
 21
110.345
  0
LINE
  8
0
 10
248.877
 20
110.345
 11
289.123
 21
110.345
  0
LINE
  8
0
 10
289.123
 20
110.345
 11
289.367
 21
110.309
  0
LINE
  8
0
 10
289.367
 20
110.309
 11
289.603
 21
110.236
  0
LINE
  8
0
 10
289.603
 20
110.236
 11
289.825
 21
110.129
  0
LINE
  8
0
 10
289.825
 20
110.129
 11
290.029
 21
109.99
  0
LINE
  8
0
 10
290.029
 20
109.99
 11
290.21
 21
109.822
  0
LINE
  8
0
 10
290.21
 20
109.822
 11
290.363
 21
109.629
  0
LINE
  8
0
 10
290.363
 20
109.629
 11
290.487
 21
109.416
  0
LINE
  8
0
 10
290.487
 20
109.416
 11
290.577
 21
109.186
  0
LINE
  8
0
 10
290.577
 20
109.186
 11
290.632
 21
108.946
  0
LINE
  8
0
 10
290.632
 20
108.946
 11
290.65
 21
108.7
  0
LINE
  8
0
 10
290.65
 20
108.7
 11
290.632
 21
108.454
  0
LINE
  8
0
 10
290.632
 20
108.454
 11
290.577
 21
108.214
  0
LINE
  8
0
 10
290.577
 20
108.214
 11
290.487
 21
107.984
  0
LINE
  8
0
 10
290.487
 20
107.984
 11
290.363
 21
107.771
  0
LINE
  8
0
 10
290.363
 20
107.771
 11
290.21
 21
107.578
  0
LINE
  8
0
 10
290.21
 20
107.578
 11
290.029
 21
107.41
  0
LINE
  8
0
 10
290.029
 20
107.41
 11
289.825
 21
107.271
  0
LINE
  8
0
 10
289.825
 20
107.271
 11
289.603
 21
107.164
  0
LINE
  8
0
 10
289.603
 20
107.164
 11
289.367
 21
107.091
  0
LINE
  8
0
 10
289.367
 20
107.091
 11
289.123
 21
107.055
  0
LINE
  8
0
 10
289.123
 20
107.055
 11
248.877
 21
107.055
  0
LINE
  8
0
 10
-111.243
 20
109.186
 11
-111.153
 21
109.416
  0
LINE
  8
0
 10
-111.153
 20
109.416
 11
-111.03
 21
109.629
  0
LINE
  8
0
 10
-111.03
 20
109.629
 11
-110.876
 21
109.822
  0
LINE
  8
0
 10
-110.876
 20
109.822
 11
-110.695
 21
109.99
  0
LINE
  8
0
 10
-110.695
 20
109.99
 11
-110.492
 21
110.129
  0
LINE
  8
0
 10
-110.492
 20
110.129
 11
-110.269
 21
110.236
  0
LINE
  8
0
 10
-110.269
 20
110.236
 11
-110.034
 21
110.309
  0
LINE
  8
0
 10
-110.034
 20
110.309
 11
-109.79
 21
110.345
  0
LINE
  8
0
 10
-109.79
 20
110.345
 11
-69.5434
 21
110.345
  0
LINE
  8
0
 10
-69.5434
 20
110.345
 11
-69.2995
 21
110.309
  0
LINE
  8
0
 10
-69.2995
 20
110.309
 11
-69.0638
 21
110.236
  0
LINE
  8
0
 10
-69.0638
 20
110.236
 11
-68.8417
 21
110.129
  0
LINE
  8
0
 10
-68.8417
 20
110.129
 11
-68.6379
 21
109.99
  0
LINE
  8
0
 10
-68.6379
 20
109.99
 11
-68.4571
 21
109.822
  0
LINE
  8
0
 10
-68.4571
 20
109.822
 11
-68.3034
 21
109.629
  0
LINE
  8
0
 10
-68.3034
 20
109.629
 11
-68.1801
 21
109.416
  0
LINE
  8
0
 10
-68.1801
 20
109.416
 11
-68.09
 21
109.186
  0
LINE
  8
0
 10
-68.09
 20
109.186
 11
-68.0351
 21
108.946
  0
LINE
  8
0
 10
-68.0351
 20
108.946
 11
-68.0167
 21
108.7
  0
LINE
  8
0
 10
-68.0167
 20
108.7
 11
-68.0351
 21
108.454
  0
LINE
  8
0
 10
-68.0351
 20
108.454
 11
-68.09
 21
108.214
  0
LINE
  8
0
 10
-68.09
 20
108.214
 11
-68.1801
 21
107.984
  0
LINE
  8
0
 10
-68.1801
 20
107.984
 11
-68.3034
 21
107.771
  0
LINE
  8
0
 10
-68.3034
 20
107.771
 11
-68.4571
 21
107.578
  0
LINE
  8
0
 10
-68.4571
 20
107.578
 11
-68.6379
 21
107.41
  0
LINE
  8
0
 10
-68.6379
 20
107.41
 11
-68.8417
 21
107.271
  0
LINE
  8
0
 10
-68.8417
 20
107.271
 11
-69.0638
 21
107.164
  0
LINE
  8
0
 10
-69.0638
 20
107.164
 11
-69.2995
 21
107.091
  0
LINE
  8
0
 10
-69.2995
 20
107.091
 11
-69.5434
 21
107.055
  0
LINE
  8
0
 10
-69.5434
 20
107.055
 11
-109.79
 21
107.055
  0
LINE
  8
0
 10
-109.79
 20
107.055
 11
-110.034
 21
107.091
  0
LINE
  8
0
 10
-110.034
 20
107.091
 11
-110.269
 21
107.164
  0
LINE
  8
0
 10
-110.269
 20
107.164
 11
-110.492
 21
107.271
  0
LINE
  8
0
 10
-110.492
 20
107.271
 11
-110.695
 21
107.41
  0
LINE
  8
0
 10
-110.695
 20
107.41
 11
-110.876
 21
107.578
  0
LINE
  8
0
 10
-110.876
 20
107.578
 11
-111.03
 21
107.771
  0
LINE
  8
0
 10
-111.03
 20
107.771
 11
-111.153
 21
107.984
  0
LINE
  8
0
 10
-111.153
 20
107.984
 11
-111.243
 21
108.214
  0
LINE
  8
0
 10
-111.243
 20
108.214
 11
-111.298
 21
108.454
  0
LINE
  8
0
 10
-111.298
 20
108.454
 11
-111.317
 21
108.7
  0
LINE
  8
0
 10
-111.317
 20
108.7
 11
-111.298
 21
108.946
  0
LINE
  8
0
 10
-111.298
 20
108.946
 11
-111.243
 21
109.186
  0
LINE
  8
0
 10
-289.123
 20
107.055
 11
-289.367
 21
107.091
  0
LINE
  8
0
 10
-289.367
 20
107.091
 11
-289.603
 21
107.164
  0
LINE
  8
0
 10
-289.603
 20
107.164
 11
-289.825
 21
107.271
  0
LINE
  8
0
 10
-289.825
 20
107.271
 11
-290.029
 21
107.41
  0
LINE
  8
0
 10
-290.029
 20
107.41
 11
-290.21
 21
107.578
  0
LINE
  8
0
 10
-290.21
 20
107.578
 11
-290.363
 21
107.771
  0
LINE
  8
0
 10
-290.363
 20
107.771
 11
-290.487
 21
107.984
  0
LINE
  8
0
 10
-290.487
 20
107.984
 11
-290.577
 21
108.214
  0
LINE
  8
0
 10
-290.577
 20
108.214
 11
-290.632
 21
108.454
  0
LINE
  8
0
 10
-290.632
 20
108.454
 11
-290.65
 21
108.7
  0
LINE
  8
0
 10
-290.65
 20
108.7
 11
-290.632
 21
108.946
  0
LINE
  8
0
 10
-290.632
 20
108.946
 11
-290.577
 21
109.186
  0
LINE
  8
0
 10
-290.577
 20
109.186
 11
-290.487
 21
109.416
  0
LINE
  8
0
 10
-290.487
 20
109.416
 11
-290.363
 21
109.629
  0
LINE
  8
0
 10
-290.363
 20
109.629
 11
-290.21
 21
109.822
  0
LINE
  8
0
 10
-290.21
 20
109.822
 11
-290.029
 21
109.99
  0
LINE
  8
0
 10
-290.029
 20
109.99
 11
-289.825
 21
110.129
  0
LINE
  8
0
 10
-289.825
 20
110.129
 11
-289.603
 21
110.236
  0
LINE
  8
0
 10
-289.603
 20
110.236
 11
-289.367
 21
110.309
  0
LINE
  8
0
 10
-289.367
 20
110.309
 11
-289.123
 21
110.345
  0
LINE
  8
0
 10
-289.123
 20
110.345
 11
-248.877
 21
110.345
  0
LINE
  8
0
 10
-248.877
 20
110.345
 11
-248.633
 21
110.309
  0
LINE
  8
0
 10
-248.633
 20
110.309
 11
-248.397
 21
110.236
  0
LINE
  8
0
 10
-248.397
 20
110.236
 11
-248.175
 21
110.129
  0
LINE
  8
0
 10
-248.175
 20
110.129
 11
-247.971
 21
109.99
  0
LINE
  8
0
 10
-247.971
 20
109.99
 11
-247.79
 21
109.822
  0
LINE
  8
0
 10
-247.79
 20
109.822
 11
-247.637
 21
109.629
  0
LINE
  8
0
 10
-247.637
 20
109.629
 11
-247.513
 21
109.416
  0
LINE
  8
0
 10
-247.513
 20
109.416
 11
-247.423
 21
109.186
  0
LINE
  8
0
 10
-247.423
 20
109.186
 11
-247.368
 21
108.946
  0
LINE
  8
0
 10
-247.368
 20
108.946
 11
-247.35
 21
108.7
  0
LINE
  8
0
 10
-247.35
 20
108.7
 11
-247.368
 21
108.454
  0
LINE
  8
0
 10
-247.368
 20
108.454
 11
-247.423
 21
108.214
  0
LINE
  8
0
 10
-247.423
 20
108.214
 11
-247.513
 21
107.984
  0
LINE
  8
0
 10
-247.513
 20
107.984
 11
-247.637
 21
107.771
  0
LINE
  8
0
 10
-247.637
 20
107.771
 11
-247.79
 21
107.578
  0
LINE
  8
0
 10
-247.79
 20
107.578
 11
-247.971
 21
107.41
  0
LINE
  8
0
 10
-247.971
 20
107.41
 11
-248.175
 21
107.271
  0
LINE
  8
0
 10
-248.175
 20
107.271
 11
-248.397
 21
107.164
  0
LINE
  8
0
 10
-248.397
 20
107.164
 11
-248.633
 21
107.091
  0
LINE
  8
0
 10
-248.633
 20
107.091
 11
-248.877
 21
107.055
  0
LINE
  8
0
 10
-248.877
 20
107.055
 11
-289.123
 21
107.055
  0
LINE
  8
0
 10
157.757
 20
109.186
 11
157.847
 21
109.416
  0
LINE
  8
0
 10
157.847
 20
109.416
 11
157.97
 21
109.629
  0
LINE
  8
0
 10
157.97
 20
109.629
 11
158.124
 21
109.822
  0
LINE
  8
0
 10
158.124
 20
109.822
 11
158.305
 21
109.99
  0
LINE
  8
0
 10
158.305
 20
109.99
 11
158.508
 21
110.129
  0
LINE
  8
0
 10
158.508
 20
110.129
 11
158.731
 21
110.236
  0
LINE
  8
0
 10
158.731
 20
110.236
 11
158.966
 21
110.309
  0
LINE
  8
0
 10
158.966
 20
110.309
 11
159.21
 21
110.345
  0
LINE
  8
0
 10
159.21
 20
110.345
 11
199.457
 21
110.345
  0
LINE
  8
0
 10
199.457
 20
110.345
 11
199.701
 21
110.309
  0
LINE
  8
0
 10
199.701
 20
110.309
 11
199.936
 21
110.236
  0
LINE
  8
0
 10
199.936
 20
110.236
 11
200.158
 21
110.129
  0
LINE
  8
0
 10
200.158
 20
110.129
 11
200.362
 21
109.99
  0
LINE
  8
0
 10
200.362
 20
109.99
 11
200.543
 21
109.822
  0
LINE
  8
0
 10
200.543
 20
109.822
 11
200.697
 21
109.629
  0
LINE
  8
0
 10
200.697
 20
109.629
 11
200.82
 21
109.416
  0
LINE
  8
0
 10
200.82
 20
109.416
 11
200.91
 21
109.186
  0
LINE
  8
0
 10
200.91
 20
109.186
 11
200.965
 21
108.946
  0
LINE
  8
0
 10
200.965
 20
108.946
 11
200.983
 21
108.7
  0
LINE
  8
0
 10
200.983
 20
108.7
 11
200.965
 21
108.454
  0
LINE
  8
0
 10
200.965
 20
108.454
 11
200.91
 21
108.214
  0
LINE
  8
0
 10
200.91
 20
108.214
 11
200.82
 21
107.984
  0
LINE
  8
0
 10
200.82
 20
107.984
 11
200.697
 21
107.771
  0
LINE
  8
0
 10
200.697
 20
107.771
 11
200.543
 21
107.578
  0
LINE
  8
0
 10
200.543
 20
107.578
 11
200.362
 21
107.41
  0
LINE
  8
0
 10
200.362
 20
107.41
 11
200.158
 21
107.271
  0
LINE
  8
0
 10
200.158
 20
107.271
 11
199.936
 21
107.164
  0
LINE
  8
0
 10
199.936
 20
107.164
 11
199.701
 21
107.091
  0
LINE
  8
0
 10
199.701
 20
107.091
 11
199.457
 21
107.055
  0
LINE
  8
0
 10
199.457
 20
107.055
 11
159.21
 21
107.055
  0
LINE
  8
0
 10
159.21
 20
107.055
 11
158.966
 21
107.091
  0
LINE
  8
0
 10
158.966
 20
107.091
 11
158.731
 21
107.164
  0
LINE
  8
0
 10
158.731
 20
107.164
 11
158.508
 21
107.271
  0
LINE
  8
0
 10
158.508
 20
107.271
 11
158.305
 21
107.41
  0
LINE
  8
0
 10
158.305
 20
107.41
 11
158.124
 21
107.578
  0
LINE
  8
0
 10
158.124
 20
107.578
 11
157.97
 21
107.771
  0
LINE
  8
0
 10
157.97
 20
107.771
 11
157.847
 21
107.984
  0
LINE
  8
0
 10
157.847
 20
107.984
 11
157.757
 21
108.214
  0
LINE
  8
0
 10
157.757
 20
108.214
 11
157.702
 21
108.454
  0
LINE
  8
0
 10
157.702
 20
108.454
 11
157.683
 21
108.7
  0
LINE
  8
0
 10
157.683
 20
108.7
 11
157.702
 21
108.946
  0
LINE
  8
0
 10
157.702
 20
108.946
 11
157.757
 21
109.186
  0
LINE
  8
0
 10
-311.746
 20
44.5684
 11
-311.986
 21
44.6233
  0
LINE
  8
0
 10
-311.986
 20
44.6233
 11
-312.216
 21
44.7134
  0
LINE
  8
0
 10
-312.216
 20
44.7134
 11
-312.429
 21
44.8367
  0
LINE
  8
0
 10
-312.429
 20
44.8367
 11
-312.622
 21
44.9905
  0
LINE
  8
0
 10
-312.622
 20
44.9905
 11
-312.79
 21
45.1712
  0
LINE
  8
0
 10
-312.79
 20
45.1712
 11
-312.929
 21
45.375
  0
LINE
  8
0
 10
-312.929
 20
45.375
 11
-313.036
 21
45.5972
  0
LINE
  8
0
 10
-313.036
 20
45.5972
 11
-313.109
 21
45.8328
  0
LINE
  8
0
 10
-313.109
 20
45.8328
 11
-313.145
 21
46.0767
  0
LINE
  8
0
 10
-313.145
 20
46.0767
 11
-313.145
 21
86.3233
  0
LINE
  8
0
 10
-313.145
 20
86.3233
 11
-313.109
 21
86.5672
  0
LINE
  8
0
 10
-313.109
 20
86.5672
 11
-313.036
 21
86.8028
  0
LINE
  8
0
 10
-313.036
 20
86.8028
 11
-312.929
 21
87.025
  0
LINE
  8
0
 10
-312.929
 20
87.025
 11
-312.79
 21
87.2288
  0
LINE
  8
0
 10
-312.79
 20
87.2288
 11
-312.622
 21
87.4095
  0
LINE
  8
0
 10
-312.622
 20
87.4095
 11
-312.429
 21
87.5633
  0
LINE
  8
0
 10
-312.429
 20
87.5633
 11
-312.216
 21
87.6866
  0
LINE
  8
0
 10
-312.216
 20
87.6866
 11
-311.986
 21
87.7767
  0
LINE
  8
0
 10
-311.986
 20
87.7767
 11
-311.746
 21
87.8316
  0
LINE
  8
0
 10
-311.746
 20
87.8316
 11
-311.5
 21
87.85
  0
LINE
  8
0
 10
-311.5
 20
87.85
 11
-311.254
 21
87.8316
  0
LINE
  8
0
 10
-311.254
 20
87.8316
 11
-311.014
 21
87.7767
  0
LINE
  8
0
 10
-311.014
 20
87.7767
 11
-310.784
 21
87.6866
  0
LINE
  8
0
 10
-310.784
 20
87.6866
 11
-310.571
 21
87.5633
  0
LINE
  8
0
 10
-310.571
 20
87.5633
 11
-310.378
 21
87.4095
  0
LINE
  8
0
 10
-310.378
 20
87.4095
 11
-310.21
 21
87.2288
  0
LINE
  8
0
 10
-310.21
 20
87.2288
 11
-310.071
 21
87.025
  0
LINE
  8
0
 10
-310.071
 20
87.025
 11
-309.964
 21
86.8028
  0
LINE
  8
0
 10
-309.964
 20
86.8028
 11
-309.891
 21
86.5672
  0
LINE
  8
0
 10
-309.891
 20
86.5672
 11
-309.855
 21
86.3233
  0
LINE
  8
0
 10
-309.855
 20
86.3233
 11
-309.855
 21
46.0767
  0
LINE
  8
0
 10
-309.855
 20
46.0767
 11
-309.891
 21
45.8328
  0
LINE
  8
0
 10
-309.891
 20
45.8328
 11
-309.964
 21
45.5972
  0
LINE
  8
0
 10
-309.964
 20
45.5972
 11
-310.071
 21
45.375
  0
LINE
  8
0
 10
-310.071
 20
45.375
 11
-310.21
 21
45.1712
  0
LINE
  8
0
 10
-310.21
 20
45.1712
 11
-310.378
 21
44.9905
  0
LINE
  8
0
 10
-310.378
 20
44.9905
 11
-310.571
 21
44.8367
  0
LINE
  8
0
 10
-310.571
 20
44.8367
 11
-310.784
 21
44.7134
  0
LINE
  8
0
 10
-310.784
 20
44.7134
 11
-311.014
 21
44.6233
  0
LINE
  8
0
 10
-311.014
 20
44.6233
 11
-311.254
 21
44.5684
  0
LINE
  8
0
 10
-311.254
 20
44.5684
 11
-311.5
 21
44.55
  0
LINE
  8
0
 10
-311.5
 20
44.55
 11
-311.746
 21
44.5684
  0
LINE
  8
0
 10
311.254
 20
44.5684
 11
311.014
 21
44.6233
  0
LINE
  8
0
 10
311.014
 20
44.6233
 11
310.784
 21
44.7134
  0
LINE
  8
0
 10
310.784
 20
44.7134
 11
310.571
 21
44.8367
  0
LINE
  8
0
 10
310.571
 20
44.8367
 11
310.378
 21
44.9905
  0
LINE
  8
0
 10
310.378
 20
44.9905
 11
310.21
 21
45.1712
  0
LINE
  8
0
 10
310.21
 20
45.1712
 11
310.071
 21
45.375
  0
LINE
  8
0
 10
310.071
 20
45.375
 11
309.964
 21
45.5972
  0
LINE
  8
0
 10
309.964
 20
45.5972
 11
309.891
 21
45.8328
  0
LINE
  8
0
 10
309.891
 20
45.8328
 11
309.855
 21
46.0767
  0
LINE
  8
0
 10
309.855
 20
46.0767
 11
309.855
 21
86.3233
  0
LINE
  8
0
 10
309.855
 20
86.3233
 11
309.891
 21
86.5672
  0
LINE
  8
0
 10
309.891
 20
86.5672
 11
309.964
 21
86.8028
  0
LINE
  8
0
 10
309.964
 20
86.8028
 11
310.071
 21
87.025
  0
LINE
  8
0
 10
310.071
 20
87.025
 11
310.21
 21
87.2288
  0
LINE
  8
0
 10
310.21
 20
87.2288
 11
310.378
 21
87.4095
  0
LINE
  8
0
 10
310.378
 20
87.4095
 11
310.571
 21
87.5633
  0
LINE
  8
0
 10
310.571
 20
87.5633
 11
310.784
 21
87.6866
  0
LINE
  8
0
 10
310.784
 20
87.6866
 11
311.014
 21
87.7767
  0
LINE
  8
0
 10
311.014
 20
87.7767
 11
311.254
 21
87.8316
  0
LINE
  8
0
 10
311.254
 20
87.8316
 11
311.5
 21
87.85
  0
LINE
  8
0
 10
311.5
 20
87.85
 11
311.746
 21
87.8316
  0
LINE
  8
0
 10
311.746
 20
87.8316
 11
311.986
 21
87.7767
  0
LINE
  8
0
 10
311.986
 20
87.7767
 11
312.216
 21
87.6866
  0
LINE
  8
0
 10
312.216
 20
87.6866
 11
312.429
 21
87.5633
  0
LINE
  8
0
 10
312.429
 20
87.5633
 11
312.622
 21
87.4095
  0
LINE
  8
0
 10
312.622
 20
87.4095
 11
312.79
 21
87.2288
  0
LINE
  8
0
 10
312.79
 20
87.2288
 11
312.929
 21
87.025
  0
LINE
  8
0
 10
312.929
 20
87.025
 11
313.036
 21
86.8028
  0
LINE
  8
0
 10
313.036
 20
86.8028
 11
313.109
 21
86.5672
  0
LINE
  8
0
 10
313.109
 20
86.5672
 11
313.145
 21
86.3233
  0
LINE
  8
0
 10
313.145
 20
86.3233
 11
313.145
 21
46.0767
  0
LINE
  8
0
 10
313.145
 20
46.0767
 11
313.109
 21
45.8328
  0
LINE
  8
0
 10
313.109
 20
45.8328
 11
313.036
 21
45.5972
  0
LINE
  8
0
 10
313.036
 20
45.5972
 11
312.929
 21
45.375
  0
LINE
  8
0
 10
312.929
 20
45.375
 11
312.79
 21
45.1712
  0
LINE
  8
0
 10
312.79
 20
45.1712
 11
312.622
 21
44.9905
  0
LINE
  8
0
 10
312.622
 20
44.9905
 11
312.429
 21
44.8367
  0
LINE
  8
0
 10
312.429
 20
44.8367
 11
312.216
 21
44.7134
  0
LINE
  8
0
 10
312.216
 20
44.7134
 11
311.986
 21
44.6233
  0
LINE
  8
0
 10
311.986
 20
44.6233
 11
311.746
 21
44.5684
  0
LINE
  8
0
 10
311.746
 20
44.5684
 11
311.5
 21
44.55
  0
LINE
  8
0
 10
311.5
 20
44.55
 11
311.254
 21
44.5684
  0
LINE
  8
0
 10
-225.309
 20
60.8283
 11
-225.549
 21
60.8911
  0
LINE
  8
0
 10
-225.549
 20
60.8911
 11
-225.777
 21
60.9881
  0
LINE
  8
0
 10
-225.777
 20
60.9881
 11
-225.989
 21
61.1174
  0
LINE
  8
0
 10
-225.989
 20
61.1174
 11
-226.18
 21
61.2762
  0
LINE
  8
0
 10
-226.18
 20
61.2762
 11
-226.346
 21
61.461
  0
LINE
  8
0
 10
-226.346
 20
61.461
 11
-226.482
 21
61.668
  0
LINE
  8
0
 10
-226.482
 20
61.668
 11
-226.588
 21
61.8927
  0
LINE
  8
0
 10
-226.588
 20
61.8927
 11
-226.659
 21
62.1304
  0
LINE
  8
0
 10
-226.659
 20
62.1304
 11
-226.695
 21
62.3759
  0
LINE
  8
0
 10
-226.695
 20
62.3759
 11
-226.695
 21
62.6241
  0
LINE
  8
0
 10
-226.695
 20
62.6241
 11
-226.659
 21
62.8696
  0
LINE
  8
0
 10
-226.659
 20
62.8696
 11
-226.588
 21
63.1073
  0
LINE
  8
0
 10
-226.588
 20
63.1073
 11
-226.482
 21
63.332
  0
LINE
  8
0
 10
-226.482
 20
63.332
 11
-226.346
 21
63.539
  0
LINE
  8
0
 10
-226.346
 20
63.539
 11
-226.18
 21
63.7238
  0
LINE
  8
0
 10
-226.18
 20
63.7238
 11
-225.989
 21
63.8826
  0
LINE
  8
0
 10
-225.989
 20
63.8826
 11
-225.777
 21
64.0119
  0
LINE
  8
0
 10
-225.777
 20
64.0119
 11
-225.549
 21
64.1089
  0
LINE
  8
0
 10
-225.549
 20
64.1089
 11
-225.309
 21
64.1717
  0
LINE
  8
0
 10
-225.309
 20
64.1717
 11
-225.062
 21
64.1989
  0
LINE
  8
0
 10
-225.062
 20
64.1989
 11
-224.814
 21
64.1898
  0
LINE
  8
0
 10
-224.814
 20
64.1898
 11
-224.57
 21
64.1447
  0
LINE
  8
0
 10
-224.57
 20
64.1447
 11
-224.335
 21
64.0646
  0
LINE
  8
0
 10
-224.335
 20
64.0646
 11
-224.114
 21
63.9511
  0
LINE
  8
0
 10
-224.114
 20
63.9511
 11
-223.913
 21
63.8067
  0
LINE
  8
0
 10
-223.913
 20
63.8067
 11
-223.734
 21
63.6344
  0
LINE
  8
0
 10
-223.734
 20
63.6344
 11
-223.582
 21
63.438
  0
LINE
  8
0
 10
-223.582
 20
63.438
 11
-223.461
 21
63.2216
  0
LINE
  8
0
 10
-223.461
 20
63.2216
 11
-223.372
 21
62.9898
  0
LINE
  8
0
 10
-223.372
 20
62.9898
 11
-223.318
 21
62.7475
  0
LINE
  8
0
 10
-223.318
 20
62.7475
 11
-223.3
 21
62.5
  0
LINE
  8
0
 10
-223.3
 20
62.5
 11
-223.318
 21
62.2525
  0
LINE
  8
0
 10
-223.318
 20
62.2525
 11
-223.372
 21
62.0102
  0
LINE
  8
0
 10
-223.372
 20
62.0102
 11
-223.461
 21
61.7784
  0
LINE
  8
0
 10
-223.461
 20
61.7784
 11
-223.582
 21
61.562
  0
LINE
  8
0
 10
-223.582
 20
61.562
 11
-223.734
 21
61.3656
  0
LINE
  8
0
 10
-223.734
 20
61.3656
 11
-223.913
 21
61.1933
  0
LINE
  8
0
 10
-223.913
 20
61.1933
 11
-224.114
 21
61.0489
  0
LINE
  8
0
 10
-224.114
 20
61.0489
 11
-224.335
 21
60.9354
  0
LINE
  8
0
 10
-224.335
 20
60.9354
 11
-224.57
 21
60.8553
  0
LINE
  8
0
 10
-224.57
 20
60.8553
 11
-224.814
 21
60.8102
  0
LINE
  8
0
 10
-224.814
 20
60.8102
 11
-225.062
 21
60.8011
  0
LINE
  8
0
 10
-225.062
 20
60.8011
 11
-225.309
 21
60.8283
  0
LINE
  8
0
 10
-45.3088
 20
60.8283
 11
-45.5489
 21
60.8911
  0
LINE
  8
0
 10
-45.5489
 20
60.8911
 11
-45.7773
 21
60.9881
  0
LINE
  8
0
 10
-45.7773
 20
60.9881
 11
-45.9892
 21
61.1174
  0
LINE
  8
0
 10
-45.9892
 20
61.1174
 11
-46.1799
 21
61.2762
  0
LINE
  8
0
 10
-46.1799
 20
61.2762
 11
-46.3455
 21
61.461
  0
LINE
  8
0
 10
-46.3455
 20
61.461
 11
-46.4825
 21
61.668
  0
LINE
  8
0
 10
-46.4825
 20
61.668
 11
-46.5878
 21
61.8927
  0
LINE
  8
0
 10
-46.5878
 20
61.8927
 11
-46.6593
 21
62.1304
  0
LINE
  8
0
 10
-46.6593
 20
62.1304
 11
-46.6955
 21
62.3759
  0
LINE
  8
0
 10
-46.6955
 20
62.3759
 11
-46.6955
 21
62.6241
  0
LINE
  8
0
 10
-46.6955
 20
62.6241
 11
-46.6593
 21
62.8696
  0
LINE
  8
0
 10
-46.6593
 20
62.8696
 11
-46.5878
 21
63.1073
  0
LINE
  8
0
 10
-46.5878
 20
63.1073
 11
-46.4825
 21
63.332
  0
LINE
  8
0
 10
-46.4825
 20
63.332
 11
-46.3455
 21
63.539
  0
LINE
  8
0
 10
-46.3455
 20
63.539
 11
-46.1799
 21
63.7238
  0
LINE
  8
0
 10
-46.1799
 20
63.7238
 11
-45.9892
 21
63.8826
  0
LINE
  8
0
 10
-45.9892
 20
63.8826
 11
-45.7773
 21
64.0119
  0
LINE
  8
0
 10
-45.7773
 20
64.0119
 11
-45.5489
 21
64.1089
  0
LINE
  8
0
 10
-45.5489
 20
64.1089
 11
-45.3088
 21
64.1717
  0
LINE
  8
0
 10
-45.3088
 20
64.1717
 11
-45.0621
 21
64.1989
  0
LINE
  8
0
 10
-45.0621
 20
64.1989
 11
-44.8141
 21
64.1898
  0
LINE
  8
0
 10
-44.8141
 20
64.1898
 11
-44.57
 21
64.1447
  0
LINE
  8
0
 10
-44.57
 20
64.1447
 11
-44.3351
 21
64.0646
  0
LINE
  8
0
 10
-44.3351
 20
64.0646
 11
-44.1144
 21
63.9511
  0
LINE
  8
0
 10
-44.1144
 20
63.9511
 11
-43.9126
 21
63.8067
  0
LINE
  8
0
 10
-43.9126
 20
63.8067
 11
-43.7339
 21
63.6344
  0
LINE
  8
0
 10
-43.7339
 20
63.6344
 11
-43.5822
 21
63.438
  0
LINE
  8
0
 10
-43.5822
 20
63.438
 11
-43.4607
 21
63.2216
  0
LINE
  8
0
 10
-43.4607
 20
63.2216
 11
-43.3721
 21
62.9898
  0
LINE
  8
0
 10
-43.3721
 20
62.9898
 11
-43.3181
 21
62.7475
  0
LINE
  8
0
 10
-43.3181
 20
62.7475
 11
-43.3
 21
62.5
  0
LINE
  8
0
 10
-43.3
 20
62.5
 11
-43.3181
 21
62.2525
  0
LINE
  8
0
 10
-43.3181
 20
62.2525
 11
-43.3721
 21
62.0102
  0
LINE
  8
0
 10
-43.3721
 20
62.0102
 11
-43.4607
 21
61.7784
  0
LINE
  8
0
 10
-43.4607
 20
61.7784
 11
-43.5822
 21
61.562
  0
LINE
  8
0
 10
-43.5822
 20
61.562
 11
-43.7339
 21
61.3656
  0
LINE
  8
0
 10
-43.7339
 20
61.3656
 11
-43.9126
 21
61.1933
  0
LINE
  8
0
 10
-43.9126
 20
61.1933
 11
-44.1144
 21
61.0489
  0
LINE
  8
0
 10
-44.1144
 20
61.0489
 11
-44.3351
 21
60.9354
  0
LINE
  8
0
 10
-44.3351
 20
60.9354
 11
-44.57
 21
60.8553
  0
LINE
  8
0
 10
-44.57
 20
60.8553
 11
-44.8141
 21
60.8102
  0
LINE
  8
0
 10
-44.8141
 20
60.8102
 11
-45.0621
 21
60.8011
  0
LINE
  8
0
 10
-45.0621
 20
60.8011
 11
-45.3088
 21
60.8283
  0
LINE
  8
0
 10
44.6912
 20
60.8283
 11
44.4511
 21
60.8911
  0
LINE
  8
0
 10
44.4511
 20
60.8911
 11
44.2227
 21
60.9881
  0
LINE
  8
0
 10
44.2227
 20
60.9881
 11
44.0108
 21
61.1174
  0
LINE
  8
0
 10
44.0108
 20
61.1174
 11
43.8201
 21
61.2762
  0
LINE
  8
0
 10
43.8201
 20
61.2762
 11
43.6544
 21
61.461
  0
LINE
  8
0
 10
43.6544
 20
61.461
 11
43.5175
 21
61.668
  0
LINE
  8
0
 10
43.5175
 20
61.668
 11
43.4122
 21
61.8927
  0
LINE
  8
0
 10
43.4122
 20
61.8927
 11
43.3407
 21
62.1304
  0
LINE
  8
0
 10
43.3407
 20
62.1304
 11
43.3045
 21
62.3759
  0
LINE
  8
0
 10
43.3045
 20
62.3759
 11
43.3045
 21
62.6241
  0
LINE
  8
0
 10
43.3045
 20
62.6241
 11
43.3407
 21
62.8696
  0
LINE
  8
0
 10
43.3407
 20
62.8696
 11
43.4122
 21
63.1073
  0
LINE
  8
0
 10
43.4122
 20
63.1073
 11
43.5175
 21
63.332
  0
LINE
  8
0
 10
43.5175
 20
63.332
 11
43.6544
 21
63.539
  0
LINE
  8
0
 10
43.6544
 20
63.539
 11
43.8201
 21
63.7238
  0
LINE
  8
0
 10
43.8201
 20
63.7238
 11
44.0108
 21
63.8826
  0
LINE
  8
0
 10
44.0108
 20
63.8826
 11
44.2227
 21
64.0119
  0
LINE
  8
0
 10
44.2227
 20
64.0119
 11
44.4511
 21
64.1089
  0
LINE
  8
0
 10
44.4511
 20
64.1089
 11
44.6912
 21
64.1717
  0
LINE
  8
0
 10
44.6912
 20
64.1717
 11
44.9379
 21
64.1989
  0
LINE
  8
0
 10
44.9379
 20
64.1989
 11
45.1859
 21
64.1898
  0
LINE
  8
0
 10
45.1859
 20
64.1898
 11
45.43
 21
64.1447
  0
LINE
  8
0
 10
45.43
 20
64.1447
 11
45.6649
 21
64.0646
  0
LINE
  8
0
 10
45.6649
 20
64.0646
 11
45.8856
 21
63.9511
  0
LINE
  8
0
 10
45.8856
 20
63.9511
 11
46.0874
 21
63.8067
  0
LINE
  8
0
 10
46.0874
 20
63.8067
 11
46.2661
 21
63.6344
  0
LINE
  8
0
 10
46.2661
 20
63.6344
 11
46.4178
 21
63.438
  0
LINE
  8
0
 10
46.4178
 20
63.438
 11
46.5393
 21
63.2216
  0
LINE
  8
0
 10
46.5393
 20
63.2216
 11
46.6279
 21
62.9898
  0
LINE
  8
0
 10
46.6279
 20
62.9898
 11
46.6819
 21
62.7475
  0
LINE
  8
0
 10
46.6819
 20
62.7475
 11
46.7
 21
62.5
  0
LINE
  8
0
 10
46.7
 20
62.5
 11
46.6819
 21
62.2525
  0
LINE
  8
0
 10
46.6819
 20
62.2525
 11
46.6279
 21
62.0102
  0
LINE
  8
0
 10
46.6279
 20
62.0102
 11
46.5393
 21
61.7784
  0
LINE
  8
0
 10
46.5393
 20
61.7784
 11
46.4178
 21
61.562
  0
LINE
  8
0
 10
46.4178
 20
61.562
 11
46.2661
 21
61.3656
  0
LINE
  8
0
 10
46.2661
 20
61.3656
 11
46.0874
 21
61.1933
  0
LINE
  8
0
 10
46.0874
 20
61.1933
 11
45.8856
 21
61.0489
  0
LINE
  8
0
 10
45.8856
 20
61.0489
 11
45.6649
 21
60.9354
  0
LINE
  8
0
 10
45.6649
 20
60.9354
 11
45.43
 21
60.8553
  0
LINE
  8
0
 10
45.43
 20
60.8553
 11
45.1859
 21
60.8102
  0
LINE
  8
0
 10
45.1859
 20
60.8102
 11
44.9379
 21
60.8011
  0
LINE
  8
0
 10
44.9379
 20
60.8011
 11
44.6912
 21
60.8283
  0
LINE
  8
0
 10
224.691
 20
60.8283
 11
224.451
 21
60.8911
  0
LINE
  8
0
 10
224.451
 20
60.8911
 11
224.223
 21
60.9881
  0
LINE
  8
0
 10
224.223
 20
60.9881
 11
224.011
 21
61.1174
  0
LINE
  8
0
 10
224.011
 20
61.1174
 11
223.82
 21
61.2762
  0
LINE
  8
0
 10
223.82
 20
61.2762
 11
223.654
 21
61.461
  0
LINE
  8
0
 10
223.654
 20
61.461
 11
223.518
 21
61.668
  0
LINE
  8
0
 10
223.518
 20
61.668
 11
223.412
 21
61.8927
  0
LINE
  8
0
 10
223.412
 20
61.8927
 11
223.341
 21
62.1304
  0
LINE
  8
0
 10
223.341
 20
62.1304
 11
223.305
 21
62.3759
  0
LINE
  8
0
 10
223.305
 20
62.3759
 11
223.305
 21
62.6241
  0
LINE
  8
0
 10
223.305
 20
62.6241
 11
223.341
 21
62.8696
  0
LINE
  8
0
 10
223.341
 20
62.8696
 11
223.412
 21
63.1073
  0
LINE
  8
0
 10
223.412
 20
63.1073
 11
223.518
 21
63.332
  0
LINE
  8
0
 10
223.518
 20
63.332
 11
223.654
 21
63.539
  0
LINE
  8
0
 10
223.654
 20
63.539
 11
223.82
 21
63.7238
  0
LINE
  8
0
 10
223.82
 20
63.7238
 11
224.011
 21
63.8826
  0
LINE
  8
0
 10
224.011
 20
63.8826
 11
224.223
 21
64.0119
  0
LINE
  8
0
 10
224.223
 20
64.0119
 11
224.451
 21
64.1089
  0
LINE
  8
0
 10
224.451
 20
64.1089
 11
224.691
 21
64.1717
  0
LINE
  8
0
 10
224.691
 20
64.1717
 11
224.938
 21
64.1989
  0
LINE
  8
0
 10
224.938
 20
64.1989
 11
225.186
 21
64.1898
  0
LINE
  8
0
 10
225.186
 20
64.1898
 11
225.43
 21
64.1447
  0
LINE
  8
0
 10
225.43
 20
64.1447
 11
225.665
 21
64.0646
  0
LINE
  8
0
 10
225.665
 20
64.0646
 11
225.886
 21
63.9511
  0
LINE
  8
0
 10
225.886
 20
63.9511
 11
226.087
 21
63.8067
  0
LINE
  8
0
 10
226.087
 20
63.8067
 11
226.266
 21
63.6344
  0
LINE
  8
0
 10
226.266
 20
63.6344
 11
226.418
 21
63.438
  0
LINE
  8
0
 10
226.418
 20
63.438
 11
226.539
 21
63.2216
  0
LINE
  8
0
 10
226.539
 20
63.2216
 11
226.628
 21
62.9898
  0
LINE
  8
0
 10
226.628
 20
62.9898
 11
226.682
 21
62.7475
  0
LINE
  8
0
 10
226.682
 20
62.7475
 11
226.7
 21
62.5
  0
LINE
  8
0
 10
226.7
 20
62.5
 11
226.682
 21
62.2525
  0
LINE
  8
0
 10
226.682
 20
62.2525
 11
226.628
 21
62.0102
  0
LINE
  8
0
 10
226.628
 20
62.0102
 11
226.539
 21
61.7784
  0
LINE
  8
0
 10
226.539
 20
61.7784
 11
226.418
 21
61.562
  0
LINE
  8
0
 10
226.418
 20
61.562
 11
226.266
 21
61.3656
  0
LINE
  8
0
 10
226.266
 20
61.3656
 11
226.087
 21
61.1933
  0
LINE
  8
0
 10
226.087
 20
61.1933
 11
225.886
 21
61.0489
  0
LINE
  8
0
 10
225.886
 20
61.0489
 11
225.665
 21
60.9354
  0
LINE
  8
0
 10
225.665
 20
60.9354
 11
225.43
 21
60.8553
  0
LINE
  8
0
 10
225.43
 20
60.8553
 11
225.186
 21
60.8102
  0
LINE
  8
0
 10
225.186
 20
60.8102
 11
224.938
 21
60.8011
  0
LINE
  8
0
 10
224.938
 20
60.8011
 11
224.691
 21
60.8283
  0
LINE
  8
0
 10
134.691
 20
60.8283
 11
134.451
 21
60.8911
  0
LINE
  8
0
 10
134.451
 20
60.8911
 11
134.223
 21
60.9881
  0
LINE
  8
0
 10
134.223
 20
60.9881
 11
134.011
 21
61.1174
  0
LINE
  8
0
 10
134.011
 20
61.1174
 11
133.82
 21
61.2762
  0
LINE
  8
0
 10
133.82
 20
61.2762
 11
133.654
 21
61.461
  0
LINE
  8
0
 10
133.654
 20
61.461
 11
133.518
 21
61.668
  0
LINE
  8
0
 10
133.518
 20
61.668
 11
133.412
 21
61.8927
  0
LINE
  8
0
 10
133.412
 20
61.8927
 11
133.341
 21
62.1304
  0
LINE
  8
0
 10
133.341
 20
62.1304
 11
133.305
 21
62.3759
  0
LINE
  8
0
 10
133.305
 20
62.3759
 11
133.305
 21
62.6241
  0
LINE
  8
0
 10
133.305
 20
62.6241
 11
133.341
 21
62.8696
  0
LINE
  8
0
 10
133.341
 20
62.8696
 11
133.412
 21
63.1073
  0
LINE
  8
0
 10
133.412
 20
63.1073
 11
133.518
 21
63.332
  0
LINE
  8
0
 10
133.518
 20
63.332
 11
133.654
 21
63.539
  0
LINE
  8
0
 10
133.654
 20
63.539
 11
133.82
 21
63.7238
  0
LINE
  8
0
 10
133.82
 20
63.7238
 11
134.011
 21
63.8826
  0
LINE
  8
0
 10
134.011
 20
63.8826
 11
134.223
 21
64.0119
  0
LINE
  8
0
 10
134.223
 20
64.0119
 11
134.451
 21
64.1089
  0
LINE
  8
0
 10
134.451
 20
64.1089
 11
134.691
 21
64.1717
  0
LINE
  8
0
 10
134.691
 20
64.1717
 11
134.938
 21
64.1989
  0
LINE
  8
0
 10
134.938
 20
64.1989
 11
135.186
 21
64.1898
  0
LINE
  8
0
 10
135.186
 20
64.1898
 11
135.43
 21
64.1447
  0
LINE
  8
0
 10
135.43
 20
64.1447
 11
135.665
 21
64.0646
  0
LINE
  8
0
 10
135.665
 20
64.0646
 11
135.886
 21
63.9511
  0
LINE
  8
0
 10
135.886
 20
63.9511
 11
136.087
 21
63.8067
  0
LINE
  8
0
 10
136.087
 20
63.8067
 11
136.266
 21
63.6344
  0
LINE
  8
0
 10
136.266
 20
63.6344
 11
136.418
 21
63.438
  0
LINE
  8
0
 10
136.418
 20
63.438
 11
136.539
 21
63.2216
  0
LINE
  8
0
 10
136.539
 20
63.2216
 11
136.628
 21
62.9898
  0
LINE
  8
0
 10
136.628
 20
62.9898
 11
136.682
 21
62.7475
  0
LINE
  8
0
 10
136.682
 20
62.7475
 11
136.7
 21
62.5
  0
LINE
  8
0
 10
136.7
 20
62.5
 11
136.682
 21
62.2525
  0
LINE
  8
0
 10
136.682
 20
62.2525
 11
136.628
 21
62.0102
  0
LINE
  8
0
 10
136.628
 20
62.0102
 11
136.539
 21
61.7784
  0
LINE
  8
0
 10
136.539
 20
61.7784
 11
136.418
 21
61.562
  0
LINE
  8
0
 10
136.418
 20
61.562
 11
136.266
 21
61.3656
  0
LINE
  8
0
 10
136.266
 20
61.3656
 11
136.087
 21
61.1933
  0
LINE
  8
0
 10
136.087
 20
61.1933
 11
135.886
 21
61.0489
  0
LINE
  8
0
 10
135.886
 20
61.0489
 11
135.665
 21
60.9354
  0
LINE
  8
0
 10
135.665
 20
60.9354
 11
135.43
 21
60.8553
  0
LINE
  8
0
 10
135.43
 20
60.8553
 11
135.186
 21
60.8102
  0
LINE
  8
0
 10
135.186
 20
60.8102
 11
134.938
 21
60.8011
  0
LINE
  8
0
 10
134.938
 20
60.8011
 11
134.691
 21
60.8283
  0
LINE
  8
0
 10
-135.309
 20
60.8283
 11
-135.549
 21
60.8911
  0
LINE
  8
0
 10
-135.549
 20
60.8911
 11
-135.777
 21
60.9881
  0
LINE
  8
0
 10
-135.777
 20
60.9881
 11
-135.989
 21
61.1174
  0
LINE
  8
0
 10
-135.989
 20
61.1174
 11
-136.18
 21
61.2762
  0
LINE
  8
0
 10
-136.18
 20
61.2762
 11
-136.346
 21
61.461
  0
LINE
  8
0
 10
-136.346
 20
61.461
 11
-136.482
 21
61.668
  0
LINE
  8
0
 10
-136.482
 20
61.668
 11
-136.588
 21
61.8927
  0
LINE
  8
0
 10
-136.588
 20
61.8927
 11
-136.659
 21
62.1304
  0
LINE
  8
0
 10
-136.659
 20
62.1304
 11
-136.695
 21
62.3759
  0
LINE
  8
0
 10
-136.695
 20
62.3759
 11
-136.695
 21
62.6241
  0
LINE
  8
0
 10
-136.695
 20
62.6241
 11
-136.659
 21
62.8696
  0
LINE
  8
0
 10
-136.659
 20
62.8696
 11
-136.588
 21
63.1073
  0
LINE
  8
0
 10
-136.588
 20
63.1073
 11
-136.482
 21
63.332
  0
LINE
  8
0
 10
-136.482
 20
63.332
 11
-136.346
 21
63.539
  0
LINE
  8
0
 10
-136.346
 20
63.539
 11
-136.18
 21
63.7238
  0
LINE
  8
0
 10
-136.18
 20
63.7238
 11
-135.989
 21
63.8826
  0
LINE
  8
0
 10
-135.989
 20
63.8826
 11
-135.777
 21
64.0119
  0
LINE
  8
0
 10
-135.777
 20
64.0119
 11
-135.549
 21
64.1089
  0
LINE
  8
0
 10
-135.549
 20
64.1089
 11
-135.309
 21
64.1717
  0
LINE
  8
0
 10
-135.309
 20
64.1717
 11
-135.062
 21
64.1989
  0
LINE
  8
0
 10
-135.062
 20
64.1989
 11
-134.814
 21
64.1898
  0
LINE
  8
0
 10
-134.814
 20
64.1898
 11
-134.57
 21
64.1447
  0
LINE
  8
0
 10
-134.57
 20
64.1447
 11
-134.335
 21
64.0646
  0
LINE
  8
0
 10
-134.335
 20
64.0646
 11
-134.114
 21
63.9511
  0
LINE
  8
0
 10
-134.114
 20
63.9511
 11
-133.913
 21
63.8067
  0
LINE
  8
0
 10
-133.913
 20
63.8067
 11
-133.734
 21
63.6344
  0
LINE
  8
0
 10
-133.734
 20
63.6344
 11
-133.582
 21
63.438
  0
LINE
  8
0
 10
-133.582
 20
63.438
 11
-133.461
 21
63.2216
  0
LINE
  8
0
 10
-133.461
 20
63.2216
 11
-133.372
 21
62.9898
  0
LINE
  8
0
 10
-133.372
 20
62.9898
 11
-133.318
 21
62.7475
  0
LINE
  8
0
 10
-133.318
 20
62.7475
 11
-133.3
 21
62.5
  0
LINE
  8
0
 10
-133.3
 20
62.5
 11
-133.318
 21
62.2525
  0
LINE
  8
0
 10
-133.318
 20
62.2525
 11
-133.372
 21
62.0102
  0
LINE
  8
0
 10
-133.372
 20
62.0102
 11
-133.461
 21
61.7784
  0
LINE
  8
0
 10
-133.461
 20
61.7784
 11
-133.582
 21
61.562
  0
LINE
  8
0
 10
-133.582
 20
61.562
 11
-133.734
 21
61.3656
  0
LINE
  8
0
 10
-133.734
 20
61.3656
 11
-133.913
 21
61.1933
  0
LINE
  8
0
 10
-133.913
 20
61.1933
 11
-134.114
 21
61.0489
  0
LINE
  8
0
 10
-134.114
 20
61.0489
 11
-134.335
 21
60.9354
  0
LINE
  8
0
 10
-134.335
 20
60.9354
 11
-134.57
 21
60.8553
  0
LINE
  8
0
 10
-134.57
 20
60.8553
 11
-134.814
 21
60.8102
  0
LINE
  8
0
 10
-134.814
 20
60.8102
 11
-135.062
 21
60.8011
  0
LINE
  8
0
 10
-135.062
 20
60.8011
 11
-135.309
 21
60.8283
  0
LINE
  8
0
 10
-252.5
 20
-52.5
 11
-253.023
 21
-52.4726
  0
LINE
  8
0
 10
-253.023
 20
-52.4726
 11
-253.54
 21
-52.3907
  0
LINE
  8
0
 10
-253.54
 20
-52.3907
 11
-254.045
 21
-52.2553
  0
LINE
  8
0
 10
-254.045
 20
-52.2553
 11
-254.534
 21
-52.0677
  0
LINE
  8
0
 10
-254.534
 20
-52.0677
 11
-255
 21
-51.8301
  0
LINE
  8
0
 10
-255
 20
-51.8301
 11
-255.439
 21
-51.5451
  0
LINE
  8
0
 10
-255.439
 20
-51.5451
 11
-255.846
 21
-51.2157
  0
LINE
  8
0
 10
-255.846
 20
-51.2157
 11
-256.216
 21
-50.8457
  0
LINE
  8
0
 10
-256.216
 20
-50.8457
 11
-256.545
 21
-50.4389
  0
LINE
  8
0
 10
-256.545
 20
-50.4389
 11
-256.83
 21
-50
  0
LINE
  8
0
 10
-256.83
 20
-50
 11
-257.068
 21
-49.5337
  0
LINE
  8
0
 10
-257.068
 20
-49.5337
 11
-257.255
 21
-49.0451
  0
LINE
  8
0
 10
-257.255
 20
-49.0451
 11
-257.391
 21
-48.5396
  0
LINE
  8
0
 10
-257.391
 20
-48.5396
 11
-257.473
 21
-48.0226
  0
LINE
  8
0
 10
-257.473
 20
-48.0226
 11
-257.5
 21
-47.5
  0
LINE
  8
0
 10
-257.5
 20
-47.5
 11
-257.5
 21
47.5
  0
LINE
  8
0
 10
-257.5
 20
47.5
 11
-257.473
 21
48.0226
  0
LINE
  8
0
 10
-257.473
 20
48.0226
 11
-257.391
 21
48.5396
  0
LINE
  8
0
 10
-257.391
 20
48.5396
 11
-257.255
 21
49.0451
  0
LINE
  8
0
 10
-257.255
 20
49.0451
 11
-257.068
 21
49.5337
  0
LINE
  8
0
 10
-257.068
 20
49.5337
 11
-256.83
 21
50
  0
LINE
  8
0
 10
-256.83
 20
50
 11
-256.545
 21
50.4389
  0
LINE
  8
0
 10
-256.545
 20
50.4389
 11
-256.216
 21
50.8457
  0
LINE
  8
0
 10
-256.216
 20
50.8457
 11
-255.846
 21
51.2157
  0
LINE
  8
0
 10
-255.846
 20
51.2157
 11
-255.439
 21
51.5451
  0
LINE
  8
0
 10
-255.439
 20
51.5451
 11
-255
 21
51.8301
  0
LINE
  8
0
 10
-255
 20
51.8301
 11
-254.534
 21
52.0677
  0
LINE
  8
0
 10
-254.534
 20
52.0677
 11
-254.045
 21
52.2553
  0
LINE
  8
0
 10
-254.045
 20
52.2553
 11
-253.54
 21
52.3907
  0
LINE
  8
0
 10
-253.54
 20
52.3907
 11
-253.023
 21
52.4726
  0
LINE
  8
0
 10
-253.023
 20
52.4726
 11
-252.5
 21
52.5
  0
LINE
  8
0
 10
-252.5
 20
52.5
 11
252.5
 21
52.5
  0
LINE
  8
0
 10
252.5
 20
52.5
 11
253.023
 21
52.4726
  0
LINE
  8
0
 10
253.023
 20
52.4726
 11
253.54
 21
52.3907
  0
LINE
  8
0
 10
253.54
 20
52.3907
 11
254.045
 21
52.2553
  0
LINE
  8
0
 10
254.045
 20
52.2553
 11
254.534
 21
52.0677
  0
LINE
  8
0
 10
254.534
 20
52.0677
 11
255
 21
51.8301
  0
LINE
  8
0
 10
255
 20
51.8301
 11
255.439
 21
51.5451
  0
LINE
  8
0
 10
255.439
 20
51.5451
 11
255.846
 21
51.2157
  0
LINE
  8
0
 10
255.846
 20
51.2157
 11
256.216
 21
50.8457
  0
LINE
  8
0
 10
256.216
 20
50.8457
 11
256.545
 21
50.4389
  0
LINE
  8
0
 10
256.545
 20
50.4389
 11
256.83
 21
50
  0
LINE
  8
0
 10
256.83
 20
50
 11
257.068
 21
49.5337
  0
LINE
  8
0
 10
257.068
 20
49.5337
 11
257.255
 21
49.0451
  0
LINE
  8
0
 10
257.255
 20
49.0451
 11
257.391
 21
48.5396
  0
LINE
  8
0
 10
257.391
 20
48.5396
 11
257.473
 21
48.0226
  0
LINE
  8
0
 10
257.473
 20
48.0226
 11
257.5
 21
47.5
  0
LINE
  8
0
 10
257.5
 20
47.5
 11
257.5
 21
-47.5
  0
LINE
  8
0
 10
257.5
 20
-47.5
 11
257.473
 21
-48.0226
  0
LINE
  8
0
 10
257.473
 20
-48.0226
 11
257.391
 21
-48.5396
  0
LINE
  8
0
 10
257.391
 20
-48.5396
 11
257.255
 21
-49.0451
  0
LINE
  8
0
 10
257.255
 20
-49.0451
 11
257.068
 21
-49.5337
  0
LINE
  8
0
 10
257.068
 20
-49.5337
 11
256.83
 21
-50
  0
LINE
  8
0
 10
256.83
 20
-50
 11
256.545
 21
-50.4389
  0
LINE
  8
0
 10
256.545
 20
-50.4389
 11
256.216
 21
-50.8457
  0
LINE
  8
0
 10
256.216
 20
-50.8457
 11
255.846
 21
-51.2157
  0
LINE
  8
0
 10
255.846
 20
-51.2157
 11
255.439
 21
-51.5451
  0
LINE
  8
0
 10
255.439
 20
-51.5451
 11
255
 21
-51.8301
  0
LINE
  8
0
 10
255
 20
-51.8301
 11
254.534
 21
-52.0677
  0
LINE
  8
0
 10
254.534
 20
-52.0677
 11
254.045
 21
-52.2553
  0
LINE
  8
0
 10
254.045
 20
-52.2553
 11
253.54
 21
-52.3907
  0
LINE
  8
0
 10
253.54
 20
-52.3907
 11
253.023
 21
-52.4726
  0
LINE
  8
0
 10
253.023
 20
-52.4726
 11
252.5
 21
-52.5
  0
LINE
  8
0
 10
252.5
 20
-52.5
 11
-252.5
 21
-52.5
  0
LINE
  8
0
 10
-267.686
 20
18.3102
 11
-267.93
 21
18.3553
  0
LINE
  8
0
 10
-267.93
 20
18.3553
 11
-268.165
 21
18.4354
  0
LINE
  8
0
 10
-268.165
 20
18.4354
 11
-268.386
 21
18.5489
  0
LINE
  8
0
 10
-268.386
 20
18.5489
 11
-268.587
 21
18.6933
  0
LINE
  8
0
 10
-268.587
 20
18.6933
 11
-268.766
 21
18.8656
  0
LINE
  8
0
 10
-268.766
 20
18.8656
 11
-268.918
 21
19.062
  0
LINE
  8
0
 10
-268.918
 20
19.062
 11
-269.039
 21
19.2784
  0
LINE
  8
0
 10
-269.039
 20
19.2784
 11
-269.128
 21
19.5102
  0
LINE
  8
0
 10
-269.128
 20
19.5102
 11
-269.182
 21
19.7525
  0
LINE
  8
0
 10
-269.182
 20
19.7525
 11
-269.2
 21
20
  0
LINE
  8
0
 10
-269.2
 20
20
 11
-269.182
 21
20.2475
  0
LINE
  8
0
 10
-269.182
 20
20.2475
 11
-269.128
 21
20.4898
  0
LINE
  8
0
 10
-269.128
 20
20.4898
 11
-269.039
 21
20.7216
  0
LINE
  8
0
 10
-269.039
 20
20.7216
 11
-268.918
 21
20.938
  0
LINE
  8
0
 10
-268.918
 20
20.938
 11
-268.766
 21
21.1344
  0
LINE
  8
0
 10
-268.766
 20
21.1344
 11
-268.587
 21
21.3067
  0
LINE
  8
0
 10
-268.587
 20
21.3067
 11
-268.386
 21
21.4511
  0
LINE
  8
0
 10
-268.386
 20
21.4511
 11
-268.165
 21
21.5646
  0
LINE
  8
0
 10
-268.165
 20
21.5646
 11
-267.93
 21
21.6447
  0
LINE
  8
0
 10
-267.93
 20
21.6447
 11
-267.686
 21
21.6898
  0
LINE
  8
0
 10
-267.686
 20
21.6898
 11
-267.438
 21
21.6989
  0
LINE
  8
0
 10
-267.438
 20
21.6989
 11
-267.191
 21
21.6717
  0
LINE
  8
0
 10
-267.191
 20
21.6717
 11
-266.951
 21
21.6089
  0
LINE
  8
0
 10
-266.951
 20
21.6089
 11
-266.723
 21
21.5119
  0
LINE
  8
0
 10
-266.723
 20
21.5119
 11
-266.511
 21
21.3826
  0
LINE
  8
0
 10
-266.511
 20
21.3826
 11
-266.32
 21
21.2238
  0
LINE
  8
0
 10
-266.32
 20
21.2238
 11
-266.154
 21
21.039
  0
LINE
  8
0
 10
-266.154
 20
21.039
 11
-266.018
 21
20.832
  0
LINE
  8
0
 10
-266.018
 20
20.832
 11
-265.912
 21
20.6073
  0
LINE
  8
0
 10
-265.912
 20
20.6073
 11
-265.841
 21
20.3696
  0
LINE
  8
0
 10
-265.841
 20
20.3696
 11
-265.805
 21
20.1241
  0
LINE
  8
0
 10
-265.805
 20
20.1241
 11
-265.805
 21
19.8759
  0
LINE
  8
0
 10
-265.805
 20
19.8759
 11
-265.841
 21
19.6304
  0
LINE
  8
0
 10
-265.841
 20
19.6304
 11
-265.912
 21
19.3927
  0
LINE
  8
0
 10
-265.912
 20
19.3927
 11
-266.018
 21
19.168
  0
LINE
  8
0
 10
-266.018
 20
19.168
 11
-266.154
 21
18.961
  0
LINE
  8
0
 10
-266.154
 20
18.961
 11
-266.32
 21
18.7762
  0
LINE
  8
0
 10
-266.32
 20
18.7762
 11
-266.511
 21
18.6174
  0
LINE
  8
0
 10
-266.511
 20
18.6174
 11
-266.723
 21
18.4881
  0
LINE
  8
0
 10
-266.723
 20
18.4881
 11
-266.951
 21
18.3911
  0
LINE
  8
0
 10
-266.951
 20
18.3911
 11
-267.191
 21
18.3283
  0
LINE
  8
0
 10
-267.191
 20
18.3283
 11
-267.438
 21
18.3011
  0
LINE
  8
0
 10
-267.438
 20
18.3011
 11
-267.686
 21
18.3102
  0
LINE
  8
0
 10
267.191
 20
18.3283
 11
266.951
 21
18.3911
  0
LINE
  8
0
 10
266.951
 20
18.3911
 11
266.723
 21
18.4881
  0
LINE
  8
0
 10
266.723
 20
18.4881
 11
266.511
 21
18.6174
  0
LINE
  8
0
 10
266.511
 20
18.6174
 11
266.32
 21
18.7762
  0
LINE
  8
0
 10
266.32
 20
18.7762
 11
266.154
 21
18.961
  0
LINE
  8
0
 10
266.154
 20
18.961
 11
266.018
 21
19.168
  0
LINE
  8
0
 10
266.018
 20
19.168
 11
265.912
 21
19.3927
  0
LINE
  8
0
 10
265.912
 20
19.3927
 11
265.841
 21
19.6304
  0
LINE
  8
0
 10
265.841
 20
19.6304
 11
265.805
 21
19.8759
  0
LINE
  8
0
 10
265.805
 20
19.8759
 11
265.805
 21
20.1241
  0
LINE
  8
0
 10
265.805
 20
20.1241
 11
265.841
 21
20.3696
  0
LINE
  8
0
 10
265.841
 20
20.3696
 11
265.912
 21
20.6073
  0
LINE
  8
0
 10
265.912
 20
20.6073
 11
266.018
 21
20.832
  0
LINE
  8
0
 10
266.018
 20
20.832
 11
266.154
 21
21.039
  0
LINE
  8
0
 10
266.154
 20
21.039
 11
266.32
 21
21.2238
  0
LINE
  8
0
 10
266.32
 20
21.2238
 11
266.511
 21
21.3826
  0
LINE
  8
0
 10
266.511
 20
21.3826
 11
266.723
 21
21.5119
  0
LINE
  8
0
 10
266.723
 20
21.5119
 11
266.951
 21
21.6089
  0
LINE
  8
0
 10
266.951
 20
21.6089
 11
267.191
 21
21.6717
  0
LINE
  8
0
 10
267.191
 20
21.6717
 11
267.438
 21
21.6989
  0
LINE
  8
0
 10
267.438
 20
21.6989
 11
267.686
 21
21.6898
  0
LINE
  8
0
 10
267.686
 20
21.6898
 11
267.93
 21
21.6447
  0
LINE
  8
0
 10
267.93
 20
21.6447
 11
268.165
 21
21.5646
  0
LINE
  8
0
 10
268.165
 20
21.5646
 11
268.386
 21
21.4511
  0
LINE
  8
0
 10
268.386
 20
21.4511
 11
268.587
 21
21.3067
  0
LINE
  8
0
 10
268.587
 20
21.3067
 11
268.766
 21
21.1344
  0
LINE
  8
0
 10
268.766
 20
21.1344
 11
268.918
 21
20.938
  0
LINE
  8
0
 10
268.918
 20
20.938
 11
269.039
 21
20.7216
  0
LINE
  8
0
 10
269.039
 20
20.7216
 11
269.128
 21
20.4898
  0
LINE
  8
0
 10
269.128
 20
20.4898
 11
269.182
 21
20.2475
  0
LINE
  8
0
 10
269.182
 20
20.2475
 11
269.2
 21
20
  0
LINE
  8
0
 10
269.2
 20
20
 11
269.182
 21
19.7525
  0
LINE
  8
0
 10
269.182
 20
19.7525
 11
269.128
 21
19.5102
  0
LINE
  8
0
 10
269.128
 20
19.5102
 11
269.039
 21
19.2784
  0
LINE
  8
0
 10
269.039
 20
19.2784
 11
268.918
 21
19.062
  0
LINE
  8
0
 10
268.918
 20
19.062
 11
268.766
 21
18.8656
  0
LINE
  8
0
 10
268.766
 20
18.8656
 11
268.587
 21
18.6933
  0
LINE
  8
0
 10
268.587
 20
18.6933
 11
268.386
 21
18.5489
  0
LINE
  8
0
 10
268.386
 20
18.5489
 11
268.165
 21
18.4354
  0
LINE
  8
0
 10
268.165
 20
18.4354
 11
267.93
 21
18.3553
  0
LINE
  8
0
 10
267.93
 20
18.3553
 11
267.686
 21
18.3102
  0
LINE
  8
0
 10
267.686
 20
18.3102
 11
267.438
 21
18.3011
  0
LINE
  8
0
 10
267.438
 20
18.3011
 11
267.191
 21
18.3283
  0
LINE
  8
0
 10
311.254
 20
-21.6316
 11
311.014
 21
-21.5767
  0
LINE
  8
0
 10
311.014
 20
-21.5767
 11
310.784
 21
-21.4866
  0
LINE
  8
0
 10
310.784
 20
-21.4866
 11
310.571
 21
-21.3633
  0
LINE
  8
0
 10
310.571
 20
-21.3633
 11
310.378
 21
-21.2095
  0
LINE
  8
0
 10
310.378
 20
-21.2095
 11
310.21
 21
-21.0287
  0
LINE
  8
0
 10
310.21
 20
-21.0287
 11
310.071
 21
-20.825
  0
LINE
  8
0
 10
310.071
 20
-20.825
 11
309.964
 21
-20.6028
  0
LINE
  8
0
 10
309.964
 20
-20.6028
 11
309.891
 21
-20.3672
  0
LINE
  8
0
 10
309.891
 20
-20.3672
 11
309.855
 21
-20.1233
  0
LINE
  8
0
 10
309.855
 20
-20.1233
 11
309.855
 21
20.1233
  0
LINE
  8
0
 10
309.855
 20
20.1233
 11
309.891
 21
20.3672
  0
LINE
  8
0
 10
309.891
 20
20.3672
 11
309.964
 21
20.6028
  0
LINE
  8
0
 10
309.964
 20
20.6028
 11
310.071
 21
20.825
  0
LINE
  8
0
 10
310.071
 20
20.825
 11
310.21
 21
21.0287
  0
LINE
  8
0
 10
310.21
 20
21.0287
 11
310.378
 21
21.2095
  0
LINE
  8
0
 10
310.378
 20
21.2095
 11
310.571
 21
21.3633
  0
LINE
  8
0
 10
310.571
 20
21.3633
 11
310.784
 21
21.4866
  0
LINE
  8
0
 10
310.784
 20
21.4866
 11
311.014
 21
21.5767
  0
LINE
  8
0
 10
311.014
 20
21.5767
 11
311.254
 21
21.6316
  0
LINE
  8
0
 10
311.254
 20
21.6316
 11
311.5
 21
21.65
  0
LINE
  8
0
 10
311.5
 20
21.65
 11
311.746
 21
21.6316
  0
LINE
  8
0
 10
311.746
 20
21.6316
 11
311.986
 21
21.5767
  0
LINE
  8
0
 10
311.986
 20
21.5767
 11
312.216
 21
21.4866
  0
LINE
  8
0
 10
312.216
 20
21.4866
 11
312.429
 21
21.3633
  0
LINE
  8
0
 10
312.429
 20
21.3633
 11
312.622
 21
21.2095
  0
LINE
  8
0
 10
312.622
 20
21.2095
 11
312.79
 21
21.0287
  0
LINE
  8
0
 10
312.79
 20
21.0287
 11
312.929
 21
20.825
  0
LINE
  8
0
 10
312.929
 20
20.825
 11
313.036
 21
20.6028
  0
LINE
  8
0
 10
313.036
 20
20.6028
 11
313.109
 21
20.3672
  0
LINE
  8
0
 10
313.109
 20
20.3672
 11
313.145
 21
20.1233
  0
LINE
  8
0
 10
313.145
 20
20.1233
 11
313.145
 21
-20.1233
  0
LINE
  8
0
 10
313.145
 20
-20.1233
 11
313.109
 21
-20.3672
  0
LINE
  8
0
 10
313.109
 20
-20.3672
 11
313.036
 21
-20.6028
  0
LINE
  8
0
 10
313.036
 20
-20.6028
 11
312.929
 21
-20.825
  0
LINE
  8
0
 10
312.929
 20
-20.825
 11
312.79
 21
-21.0287
  0
LINE
  8
0
 10
312.79
 20
-21.0287
 11
312.622
 21
-21.2095
  0
LINE
  8
0
 10
312.622
 20
-21.2095
 11
312.429
 21
-21.3633
  0
LINE
  8
0
 10
312.429
 20
-21.3633
 11
312.216
 21
-21.4866
  0
LINE
  8
0
 10
312.216
 20
-21.4866
 11
311.986
 21
-21.5767
  0
LINE
  8
0
 10
311.986
 20
-21.5767
 11
311.746
 21
-21.6316
  0
LINE
  8
0
 10
311.746
 20
-21.6316
 11
311.5
 21
-21.65
  0
LINE
  8
0
 10
311.5
 20
-21.65
 11
311.254
 21
-21.6316
  0
LINE
  8
0
 10
-311.746
 20
-21.6316
 11
-311.986
 21
-21.5767
  0
LINE
  8
0
 10
-311.986
 20
-21.5767
 11
-312.216
 21
-21.4866
  0
LINE
  8
0
 10
-312.216
 20
-21.4866
 11
-312.429
 21
-21.3633
  0
LINE
  8
0
 10
-312.429
 20
-21.3633
 11
-312.622
 21
-21.2095
  0
LINE
  8
0
 10
-312.622
 20
-21.2095
 11
-312.79
 21
-21.0287
  0
LINE
  8
0
 10
-312.79
 20
-21.0287
 11
-312.929
 21
-20.825
  0
LINE
  8
0
 10
-312.929
 20
-20.825
 11
-313.036
 21
-20.6028
  0
LINE
  8
0
 10
-313.036
 20
-20.6028
 11
-313.109
 21
-20.3672
  0
LINE
  8
0
 10
-313.109
 20
-20.3672
 11
-313.145
 21
-20.1233
  0
LINE
  8
0
 10
-313.145
 20
-20.1233
 11
-313.145
 21
20.1233
  0
LINE
  8
0
 10
-313.145
 20
20.1233
 11
-313.109
 21
20.3672
  0
LINE
  8
0
 10
-313.109
 20
20.3672
 11
-313.036
 21
20.6028
  0
LINE
  8
0
 10
-313.036
 20
20.6028
 11
-312.929
 21
20.825
  0
LINE
  8
0
 10
-312.929
 20
20.825
 11
-312.79
 21
21.0287
  0
LINE
  8
0
 10
-312.79
 20
21.0287
 11
-312.622
 21
21.2095
  0
LINE
  8
0
 10
-312.622
 20
21.2095
 11
-312.429
 21
21.3633
  0
LINE
  8
0
 10
-312.429
 20
21.3633
 11
-312.216
 21
21.4866
  0
LINE
  8
0
 10
-312.216
 20
21.4866
 11
-311.986
 21
21.5767
  0
LINE
  8
0
 10
-311.986
 20
21.5767
 11
-311.746
 21
21.6316
  0
LINE
  8
0
 10
-311.746
 20
21.6316
 11
-311.5
 21
21.65
  0
LINE
  8
0
 10
-311.5
 20
21.65
 11
-311.254
 21
21.6316
  0
LINE
  8
0
 10
-311.254
 20
21.6316
 11
-311.014
 21
21.5767
  0
LINE
  8
0
 10
-311.014
 20
21.5767
 11
-310.784
 21
21.4866
  0
LINE
  8
0
 10
-310.784
 20
21.4866
 11
-310.571
 21
21.3633
  0
LINE
  8
0
 10
-310.571
 20
21.3633
 11
-310.378
 21
21.2095
  0
LINE
  8
0
 10
-310.378
 20
21.2095
 11
-310.21
 21
21.0287
  0
LINE
  8
0
 10
-310.21
 20
21.0287
 11
-310.071
 21
20.825
  0
LINE
  8
0
 10
-310.071
 20
20.825
 11
-309.964
 21
20.6028
  0
LINE
  8
0
 10
-309.964
 20
20.6028
 11
-309.891
 21
20.3672
  0
LINE
  8
0
 10
-309.891
 20
20.3672
 11
-309.855
 21
20.1233
  0
LINE
  8
0
 10
-309.855
 20
20.1233
 11
-309.855
 21
-20.1233
  0
LINE
  8
0
 10
-309.855
 20
-20.1233
 11
-309.891
 21
-20.3672
  0
LINE
  8
0
 10
-309.891
 20
-20.3672
 11
-309.964
 21
-20.6028
  0
LINE
  8
0
 10
-309.964
 20
-20.6028
 11
-310.071
 21
-20.825
  0
LINE
  8
0
 10
-310.071
 20
-20.825
 11
-310.21
 21
-21.0287
  0
LINE
  8
0
 10
-310.21
 20
-21.0287
 11
-310.378
 21
-21.2095
  0
LINE
  8
0
 10
-310.378
 20
-21.2095
 11
-310.571
 21
-21.3633
  0
LINE
  8
0
 10
-310.571
 20
-21.3633
 11
-310.784
 21
-21.4866
  0
LINE
  8
0
 10
-310.784
 20
-21.4866
 11
-311.014
 21
-21.5767
  0
LINE
  8
0
 10
-311.014
 20
-21.5767
 11
-311.254
 21
-21.6316
  0
LINE
  8
0
 10
-311.254
 20
-21.6316
 11
-311.5
 21
-21.65
  0
LINE
  8
0
 10
-311.5
 20
-21.65
 11
-311.746
 21
-21.6316
  0
LINE
  8
0
 10
-267.686
 20
-21.6898
 11
-267.93
 21
-21.6447
  0
LINE
  8
0
 10
-267.93
 20
-21.6447
 11
-268.165
 21
-21.5646
  0
LINE
  8
0
 10
-268.165
 20
-21.5646
 11
-268.386
 21
-21.4511
  0
LINE
  8
0
 10
-268.386
 20
-21.4511
 11
-268.587
 21
-21.3067
  0
LINE
  8
0
 10
-268.587
 20
-21.3067
 11
-268.766
 21
-21.1344
  0
LINE
  8
0
 10
-268.766
 20
-21.1344
 11
-268.918
 21
-20.938
  0
LINE
  8
0
 10
-268.918
 20
-20.938
 11
-269.039
 21
-20.7216
  0
LINE
  8
0
 10
-269.039
 20
-20.7216
 11
-269.128
 21
-20.4898
  0
LINE
  8
0
 10
-269.128
 20
-20.4898
 11
-269.182
 21
-20.2475
  0
LINE
  8
0
 10
-269.182
 20
-20.2475
 11
-269.2
 21
-20
  0
LINE
  8
0
 10
-269.2
 20
-20
 11
-269.182
 21
-19.7525
  0
LINE
  8
0
 10
-269.182
 20
-19.7525
 11
-269.128
 21
-19.5102
  0
LINE
  8
0
 10
-269.128
 20
-19.5102
 11
-269.039
 21
-19.2784
  0
LINE
  8
0
 10
-269.039
 20
-19.2784
 11
-268.918
 21
-19.062
  0
LINE
  8
0
 10
-268.918
 20
-19.062
 11
-268.766
 21
-18.8656
  0
LINE
  8
0
 10
-268.766
 20
-18.8656
 11
-268.587
 21
-18.6933
  0
LINE
  8
0
 10
-268.587
 20
-18.6933
 11
-268.386
 21
-18.5489
  0
LINE
  8
0
 10
-268.386
 20
-18.5489
 11
-268.165
 21
-18.4354
  0
LINE
  8
0
 10
-268.165
 20
-18.4354
 11
-267.93
 21
-18.3553
  0
LINE
  8
0
 10
-267.93
 20
-18.3553
 11
-267.686
 21
-18.3102
  0
LINE
  8
0
 10
-267.686
 20
-18.3102
 11
-267.438
 21
-18.3011
  0
LINE
  8
0
 10
-267.438
 20
-18.3011
 11
-267.191
 21
-18.3283
  0
LINE
  8
0
 10
-267.191
 20
-18.3283
 11
-266.951
 21
-18.3911
  0
LINE
  8
0
 10
-266.951
 20
-18.3911
 11
-266.723
 21
-18.4881
  0
LINE
  8
0
 10
-266.723
 20
-18.4881
 11
-266.511
 21
-18.6174
  0
LINE
  8
0
 10
-266.511
 20
-18.6174
 11
-266.32
 21
-18.7762
  0
LINE
  8
0
 10
-266.32
 20
-18.7762
 11
-266.154
 21
-18.961
  0
LINE
  8
0
 10
-266.154
 20
-18.961
 11
-266.018
 21
-19.168
  0
LINE
  8
0
 10
-266.018
 20
-19.168
 11
-265.912
 21
-19.3927
  0
LINE
  8
0
 10
-265.912
 20
-19.3927
 11
-265.841
 21
-19.6304
  0
LINE
  8
0
 10
-265.841
 20
-19.6304
 11
-265.805
 21
-19.8759
  0
LINE
  8
0
 10
-265.805
 20
-19.8759
 11
-265.805
 21
-20.1241
  0
LINE
  8
0
 10
-265.805
 20
-20.1241
 11
-265.841
 21
-20.3696
  0
LINE
  8
0
 10
-265.841
 20
-20.3696
 11
-265.912
 21
-20.6073
  0
LINE
  8
0
 10
-265.912
 20
-20.6073
 11
-266.018
 21
-20.832
  0
LINE
  8
0
 10
-266.018
 20
-20.832
 11
-266.154
 21
-21.039
  0
LINE
  8
0
 10
-266.154
 20
-21.039
 11
-266.32
 21
-21.2238
  0
LINE
  8
0
 10
-266.32
 20
-21.2238
 11
-266.511
 21
-21.3826
  0
LINE
  8
0
 10
-266.511
 20
-21.3826
 11
-266.723
 21
-21.5119
  0
LINE
  8
0
 10
-266.723
 20
-21.5119
 11
-266.951
 21
-21.6089
  0
LINE
  8
0
 10
-266.951
 20
-21.6089
 11
-267.191
 21
-21.6717
  0
LINE
  8
0
 10
-267.191
 20
-21.6717
 11
-267.438
 21
-21.6989
  0
LINE
  8
0
 10
-267.438
 20
-21.6989
 11
-267.686
 21
-21.6898
  0
LINE
  8
0
 10
267.191
 20
-21.6717
 11
266.951
 21
-21.6089
  0
LINE
  8
0
 10
266.951
 20
-21.6089
 11
266.723
 21
-21.5119
  0
LINE
  8
0
 10
266.723
 20
-21.5119
 11
266.511
 21
-21.3826
  0
LINE
  8
0
 10
266.511
 20
-21.3826
 11
266.32
 21
-21.2238
  0
LINE
  8
0
 10
266.32
 20
-21.2238
 11
266.154
 21
-21.039
  0
LINE
  8
0
 10
266.154
 20
-21.039
 11
266.018
 21
-20.832
  0
LINE
  8
0
 10
266.018
 20
-20.832
 11
265.912
 21
-20.6073
  0
LINE
  8
0
 10
265.912
 20
-20.6073
 11
265.841
 21
-20.3696
  0
LINE
  8
0
 10
265.841
 20
-20.3696
 11
265.805
 21
-20.1241
  0
LINE
  8
0
 10
265.805
 20
-20.1241
 11
265.805
 21
-19.8759
  0
LINE
  8
0
 10
265.805
 20
-19.8759
 11
265.841
 21
-19.6304
  0
LINE
  8
0
 10
265.841
 20
-19.6304
 11
265.912
 21
-19.3927
  0
LINE
  8
0
 10
265.912
 20
-19.3927
 11
266.018
 21
-19.168
  0
LINE
  8
0
 10
266.018
 20
-19.168
 11
266.154
 21
-18.961
  0
LINE
  8
0
 10
266.154
 20
-18.961
 11
266.32
 21
-18.7762
  0
LINE
  8
0
 10
266.32
 20
-18.7762
 11
266.511
 21
-18.6174
  0
LINE
  8
0
 10
266.511
 20
-18.6174
 11
266.723
 21
-18.4881
  0
LINE
  8
0
 10
266.723
 20
-18.4881
 11
266.951
 21
-18.3911
  0
LINE
  8
0
 10
266.951
 20
-18.3911
 11
267.191
 21
-18.3283
  0
LINE
  8
0
 10
267.191
 20
-18.3283
 11
267.438
 21
-18.3011
  0
LINE
  8
0
 10
267.438
 20
-18.3011
 11
267.686
 21
-18.3102
  0
LINE
  8
0
 10
267.686
 20
-18.3102
 11
267.93
 21
-18.3553
  0
LINE
  8
0
 10
267.93
 20
-18.3553
 11
268.165
 21
-18.4354
  0
LINE
  8
0
 10
268.165
 20
-18.4354
 11
268.386
 21
-18.5489
  0
LINE
  8
0
 10
268.386
 20
-18.5489
 11
268.587
 21
-18.6933
  0
LINE
  8
0
 10
268.587
 20
-18.6933
 11
268.766
 21
-18.8656
  0
LINE
  8
0
 10
268.766
 20
-18.8656
 11
268.918
 21
-19.062
  0
LINE
  8
0
 10
268.918
 20
-19.062
 11
269.039
 21
-19.2784
  0
LINE
  8
0
 10
269.039
 20
-19.2784
 11
269.128
 21
-19.5102
  0
LINE
  8
0
 10
269.128
 20
-19.5102
 11
269.182
 21
-19.7525
  0
LINE
  8
0
 10
269.182
 20
-19.7525
 11
269.2
 21
-20
  0
LINE
  8
0
 10
269.2
 20
-20
 11
269.182
 21
-20.2475
  0
LINE
  8
0
 10
269.182
 20
-20.2475
 11
269.128
 21
-20.4898
  0
LINE
  8
0
 10
269.128
 20
-20.4898
 11
269.039
 21
-20.7216
  0
LINE
  8
0
 10
269.039
 20
-20.7216
 11
268.918
 21
-20.938
  0
LINE
  8
0
 10
268.918
 20
-20.938
 11
268.766
 21
-21.1344
  0
LINE
  8
0
 10
268.766
 20
-21.1344
 11
268.587
 21
-21.3067
  0
LINE
  8
0
 10
268.587
 20
-21.3067
 11
268.386
 21
-21.4511
  0
LINE
  8
0
 10
268.386
 20
-21.4511
 11
268.165
 21
-21.5646
  0
LINE
  8
0
 10
268.165
 20
-21.5646
 11
267.93
 21
-21.6447
  0
LINE
  8
0
 10
267.93
 20
-21.6447
 11
267.686
 21
-21.6898
  0
LINE
  8
0
 10
267.686
 20
-21.6898
 11
267.438
 21
-21.6989
  0
LINE
  8
0
 10
267.438
 20
-21.6989
 11
267.191
 21
-21.6717
  0
LINE
  8
0
 10
-311.746
 20
-87.8316
 11
-311.986
 21
-87.7767
  0
LINE
  8
0
 10
-311.986
 20
-87.7767
 11
-312.216
 21
-87.6866
  0
LINE
  8
0
 10
-312.216
 20
-87.6866
 11
-312.429
 21
-87.5633
  0
LINE
  8
0
 10
-312.429
 20
-87.5633
 11
-312.622
 21
-87.4095
  0
LINE
  8
0
 10
-312.622
 20
-87.4095
 11
-312.79
 21
-87.2288
  0
LINE
  8
0
 10
-312.79
 20
-87.2288
 11
-312.929
 21
-87.025
  0
LINE
  8
0
 10
-312.929
 20
-87.025
 11
-313.036
 21
-86.8028
  0
LINE
  8
0
 10
-313.036
 20
-86.8028
 11
-313.109
 21
-86.5672
  0
LINE
  8
0
 10
-313.109
 20
-86.5672
 11
-313.145
 21
-86.3233
  0
LINE
  8
0
 10
-313.145
 20
-86.3233
 11
-313.145
 21
-46.0767
  0
LINE
  8
0
 10
-313.145
 20
-46.0767
 11
-313.109
 21
-45.8328
  0
LINE
  8
0
 10
-313.109
 20
-45.8328
 11
-313.036
 21
-45.5972
  0
LINE
  8
0
 10
-313.036
 20
-45.5972
 11
-312.929
 21
-45.375
  0
LINE
  8
0
 10
-312.929
 20
-45.375
 11
-312.79
 21
-45.1712
  0
LINE
  8
0
 10
-312.79
 20
-45.1712
 11
-312.622
 21
-44.9905
  0
LINE
  8
0
 10
-312.622
 20
-44.9905
 11
-312.429
 21
-44.8367
  0
LINE
  8
0
 10
-312.429
 20
-44.8367
 11
-312.216
 21
-44.7134
  0
LINE
  8
0
 10
-312.216
 20
-44.7134
 11
-311.986
 21
-44.6233
  0
LINE
  8
0
 10
-311.986
 20
-44.6233
 11
-311.746
 21
-44.5684
  0
LINE
  8
0
 10
-311.746
 20
-44.5684
 11
-311.5
 21
-44.55
  0
LINE
  8
0
 10
-311.5
 20
-44.55
 11
-311.254
 21
-44.5684
  0
LINE
  8
0
 10
-311.254
 20
-44.5684
 11
-311.014
 21
-44.6233
  0
LINE
  8
0
 10
-311.014
 20
-44.6233
 11
-310.784
 21
-44.7134
  0
LINE
  8
0
 10
-310.784
 20
-44.7134
 11
-310.571
 21
-44.8367
  0
LINE
  8
0
 10
-310.571
 20
-44.8367
 11
-310.378
 21
-44.9905
  0
LINE
  8
0
 10
-310.378
 20
-44.9905
 11
-310.21
 21
-45.1712
  0
LINE
  8
0
 10
-310.21
 20
-45.1712
 11
-310.071
 21
-45.375
  0
LINE
  8
0
 10
-310.071
 20
-45.375
 11
-309.964
 21
-45.5972
  0
LINE
  8
0
 10
-309.964
 20
-45.5972
 11
-309.891
 21
-45.8328
  0
LINE
  8
0
 10
-309.891
 20
-45.8328
 11
-309.855
 21
-46.0767
  0
LINE
  8
0
 10
-309.855
 20
-46.0767
 11
-309.855
 21
-86.3233
  0
LINE
  8
0
 10
-309.855
 20
-86.3233
 11
-309.891
 21
-86.5672
  0
LINE
  8
0
 10
-309.891
 20
-86.5672
 11
-309.964
 21
-86.8028
  0
LINE
  8
0
 10
-309.964
 20
-86.8028
 11
-310.071
 21
-87.025
  0
LINE
  8
0
 10
-310.071
 20
-87.025
 11
-310.21
 21
-87.2288
  0
LINE
  8
0
 10
-310.21
 20
-87.2288
 11
-310.378
 21
-87.4095
  0
LINE
  8
0
 10
-310.378
 20
-87.4095
 11
-310.571
 21
-87.5633
  0
LINE
  8
0
 10
-310.571
 20
-87.5633
 11
-310.784
 21
-87.6866
  0
LINE
  8
0
 10
-310.784
 20
-87.6866
 11
-311.014
 21
-87.7767
  0
LINE
  8
0
 10
-311.014
 20
-87.7767
 11
-311.254
 21
-87.8316
  0
LINE
  8
0
 10
-311.254
 20
-87.8316
 11
-311.5
 21
-87.85
  0
LINE
  8
0
 10
-311.5
 20
-87.85
 11
-311.746
 21
-87.8316
  0
LINE
  8
0
 10
311.254
 20
-87.8316
 11
311.014
 21
-87.7767
  0
LINE
  8
0
 10
311.014
 20
-87.7767
 11
310.784
 21
-87.6866
  0
LINE
  8
0
 10
310.784
 20
-87.6866
 11
310.571
 21
-87.5633
  0
LINE
  8
0
 10
310.571
 20
-87.5633
 11
310.378
 21
-87.4095
  0
LINE
  8
0
 10
310.378
 20
-87.4095
 11
310.21
 21
-87.2288
  0
LINE
  8
0
 10
310.21
 20
-87.2288
 11
310.071
 21
-87.025
  0
LINE
  8
0
 10
310.071
 20
-87.025
 11
309.964
 21
-86.8028
  0
LINE
  8
0
 10
309.964
 20
-86.8028
 11
309.891
 21
-86.5672
  0
LINE
  8
0
 10
309.891
 20
-86.5672
 11
309.855
 21
-86.3233
  0
LINE
  8
0
 10
309.855
 20
-86.3233
 11
309.855
 21
-46.0767
  0
LINE
  8
0
 10
309.855
 20
-46.0767
 11
309.891
 21
-45.8328
  0
LINE
  8
0
 10
309.891
 20
-45.8328
 11
309.964
 21
-45.5972
  0
LINE
  8
0
 10
309.964
 20
-45.5972
 11
310.071
 21
-45.375
  0
LINE
  8
0
 10
310.071
 20
-45.375
 11
310.21
 21
-45.1712
  0
LINE
  8
0
 10
310.21
 20
-45.1712
 11
310.378
 21
-44.9905
  0
LINE
  8
0
 10
310.378
 20
-44.9905
 11
310.571
 21
-44.8367
  0
LINE
  8
0
 10
310.571
 20
-44.8367
 11
310.784
 21
-44.7134
  0
LINE
  8
0
 10
310.784
 20
-44.7134
 11
311.014
 21
-44.6233
  0
LINE
  8
0
 10
311.014
 20
-44.6233
 11
311.254
 21
-44.5684
  0
LINE
  8
0
 10
311.254
 20
-44.5684
 11
311.5
 21
-44.55
  0
LINE
  8
0
 10
311.5
 20
-44.55
 11
311.746
 21
-44.5684
  0
LINE
  8
0
 10
311.746
 20
-44.5684
 11
311.986
 21
-44.6233
  0
LINE
  8
0
 10
311.986
 20
-44.6233
 11
312.216
 21
-44.7134
  0
LINE
  8
0
 10
312.216
 20
-44.7134
 11
312.429
 21
-44.8367
  0
LINE
  8
0
 10
312.429
 20
-44.8367
 11
312.622
 21
-44.9905
  0
LINE
  8
0
 10
312.622
 20
-44.9905
 11
312.79
 21
-45.1712
  0
LINE
  8
0
 10
312.79
 20
-45.1712
 11
312.929
 21
-45.375
  0
LINE
  8
0
 10
312.929
 20
-45.375
 11
313.036
 21
-45.5972
  0
LINE
  8
0
 10
313.036
 20
-45.5972
 11
313.109
 21
-45.8328
  0
LINE
  8
0
 10
313.109
 20
-45.8328
 11
313.145
 21
-46.0767
  0
LINE
  8
0
 10
313.145
 20
-46.0767
 11
313.145
 21
-86.3233
  0
LINE
  8
0
 10
313.145
 20
-86.3233
 11
313.109
 21
-86.5672
  0
LINE
  8
0
 10
313.109
 20
-86.5672
 11
313.036
 21
-86.8028
  0
LINE
  8
0
 10
313.036
 20
-86.8028
 11
312.929
 21
-87.025
  0
LINE
  8
0
 10
312.929
 20
-87.025
 11
312.79
 21
-87.2288
  0
LINE
  8
0
 10
312.79
 20
-87.2288
 11
312.622
 21
-87.4095
  0
LINE
  8
0
 10
312.622
 20
-87.4095
 11
312.429
 21
-87.5633
  0
LINE
  8
0
 10
312.429
 20
-87.5633
 11
312.216
 21
-87.6866
  0
LINE
  8
0
 10
312.216
 20
-87.6866
 11
311.986
 21
-87.7767
  0
LINE
  8
0
 10
311.986
 20
-87.7767
 11
311.746
 21
-87.8316
  0
LINE
  8
0
 10
311.746
 20
-87.8316
 11
311.5
 21
-87.85
  0
LINE
  8
0
 10
311.5
 20
-87.85
 11
311.254
 21
-87.8316
  0
LINE
  8
0
 10
-44.57
 20
-60.8553
 11
-44.3351
 21
-60.9354
  0
LINE
  8
0
 10
-44.3351
 20
-60.9354
 11
-44.1144
 21
-61.0489
  0
LINE
  8
0
 10
-44.1144
 20
-61.0489
 11
-43.9126
 21
-61.1933
  0
LINE
  8
0
 10
-43.9126
 20
-61.1933
 11
-43.7339
 21
-61.3656
  0
LINE
  8
0
 10
-43.7339
 20
-61.3656
 11
-43.5822
 21
-61.562
  0
LINE
  8
0
 10
-43.5822
 20
-61.562
 11
-43.4607
 21
-61.7784
  0
LINE
  8
0
 10
-43.4607
 20
-61.7784
 11
-43.3721
 21
-62.0102
  0
LINE
  8
0
 10
-43.3721
 20
-62.0102
 11
-43.3181
 21
-62.2525
  0
LINE
  8
0
 10
-43.3181
 20
-62.2525
 11
-43.3
 21
-62.5
  0
LINE
  8
0
 10
-43.3
 20
-62.5
 11
-43.3181
 21
-62.7475
  0
LINE
  8
0
 10
-43.3181
 20
-62.7475
 11
-43.3721
 21
-62.9898
  0
LINE
  8
0
 10
-43.3721
 20
-62.9898
 11
-43.4607
 21
-63.2216
  0
LINE
  8
0
 10
-43.4607
 20
-63.2216
 11
-43.5822
 21
-63.438
  0
LINE
  8
0
 10
-43.5822
 20
-63.438
 11
-43.7339
 21
-63.6344
  0
LINE
  8
0
 10
-43.7339
 20
-63.6344
 11
-43.9126
 21
-63.8067
  0
LINE
  8
0
 10
-43.9126
 20
-63.8067
 11
-44.1144
 21
-63.9511
  0
LINE
  8
0
 10
-44.1144
 20
-63.9511
 11
-44.3351
 21
-64.0646
  0
LINE
  8
0
 10
-44.3351
 20
-64.0646
 11
-44.57
 21
-64.1447
  0
LINE
  8
0
 10
-44.57
 20
-64.1447
 11
-44.8141
 21
-64.1898
  0
LINE
  8
0
 10
-44.8141
 20
-64.1898
 11
-45.0621
 21
-64.1989
  0
LINE
  8
0
 10
-45.0621
 20
-64.1989
 11
-45.3088
 21
-64.1717
  0
LINE
  8
0
 10
-45.3088
 20
-64.1717
 11
-45.5489
 21
-64.1089
  0
LINE
  8
0
 10
-45.5489
 20
-64.1089
 11
-45.7773
 21
-64.0119
  0
LINE
  8
0
 10
-45.7773
 20
-64.0119
 11
-45.9892
 21
-63.8826
  0
LINE
  8
0
 10
-45.9892
 20
-63.8826
 11
-46.1799
 21
-63.7238
  0
LINE
  8
0
 10
-46.1799
 20
-63.7238
 11
-46.3455
 21
-63.539
  0
LINE
  8
0
 10
-46.3455
 20
-63.539
 11
-46.4825
 21
-63.332
  0
LINE
  8
0
 10
-46.4825
 20
-63.332
 11
-46.5878
 21
-63.1073
  0
LINE
  8
0
 10
-46.5878
 20
-63.1073
 11
-46.6593
 21
-62.8696
  0
LINE
  8
0
 10
-46.6593
 20
-62.8696
 11
-46.6955
 21
-62.6241
  0
LINE
  8
0
 10
-46.6955
 20
-62.6241
 11
-46.6955
 21
-62.3759
  0
LINE
  8
0
 10
-46.6955
 20
-62.3759
 11
-46.6593
 21
-62.1304
  0
LINE
  8
0
 10
-46.6593
 20
-62.1304
 11
-46.5878
 21
-61.8927
  0
LINE
  8
0
 10
-46.5878
 20
-61.8927
 11
-46.4825
 21
-61.668
  0
LINE
  8
0
 10
-46.4825
 20
-61.668
 11
-46.3455
 21
-61.461
  0
LINE
  8
0
 10
-46.3455
 20
-61.461
 11
-46.1799
 21
-61.2762
  0
LINE
  8
0
 10
-46.1799
 20
-61.2762
 11
-45.9892
 21
-61.1174
  0
LINE
  8
0
 10
-45.9892
 20
-61.1174
 11
-45.7773
 21
-60.9881
  0
LINE
  8
0
 10
-45.7773
 20
-60.9881
 11
-45.5489
 21
-60.8911
  0
LINE
  8
0
 10
-45.5489
 20
-60.8911
 11
-45.3088
 21
-60.8283
  0
LINE
  8
0
 10
-45.3088
 20
-60.8283
 11
-45.0621
 21
-60.8011
  0
LINE
  8
0
 10
-45.0621
 20
-60.8011
 11
-44.8141
 21
-60.8102
  0
LINE
  8
0
 10
-44.8141
 20
-60.8102
 11
-44.57
 21
-60.8553
  0
LINE
  8
0
 10
134.691
 20
-64.1717
 11
134.451
 21
-64.1089
  0
LINE
  8
0
 10
134.451
 20
-64.1089
 11
134.223
 21
-64.0119
  0
LINE
  8
0
 10
134.223
 20
-64.0119
 11
134.011
 21
-63.8826
  0
LINE
  8
0
 10
134.011
 20
-63.8826
 11
133.82
 21
-63.7238
  0
LINE
  8
0
 10
133.82
 20
-63.7238
 11
133.654
 21
-63.539
  0
LINE
  8
0
 10
133.654
 20
-63.539
 11
133.518
 21
-63.332
  0
LINE
  8
0
 10
133.518
 20
-63.332
 11
133.412
 21
-63.1073
  0
LINE
  8
0
 10
133.412
 20
-63.1073
 11
133.341
 21
-62.8696
  0
LINE
  8
0
 10
133.341
 20
-62.8696
 11
133.305
 21
-62.6241
  0
LINE
  8
0
 10
133.305
 20
-62.6241
 11
133.305
 21
-62.3759
  0
LINE
  8
0
 10
133.305
 20
-62.3759
 11
133.341
 21
-62.1304
  0
LINE
  8
0
 10
133.341
 20
-62.1304
 11
133.412
 21
-61.8927
  0
LINE
  8
0
 10
133.412
 20
-61.8927
 11
133.518
 21
-61.668
  0
LINE
  8
0
 10
133.518
 20
-61.668
 11
133.654
 21
-61.461
  0
LINE
  8
0
 10
133.654
 20
-61.461
 11
133.82
 21
-61.2762
  0
LINE
  8
0
 10
133.82
 20
-61.2762
 11
134.011
 21
-61.1174
  0
LINE
  8
0
 10
134.011
 20
-61.1174
 11
134.223
 21
-60.9881
  0
LINE
  8
0
 10
134.223
 20
-60.9881
 11
134.451
 21
-60.8911
  0
LINE
  8
0
 10
134.451
 20
-60.8911
 11
134.691
 21
-60.8283
  0
LINE
  8
0
 10
134.691
 20
-60.8283
 11
134.938
 21
-60.8011
  0
LINE
  8
0
 10
134.938
 20
-60.8011
 11
135.186
 21
-60.8102
  0
LINE
  8
0
 10
135.186
 20
-60.8102
 11
135.43
 21
-60.8553
  0
LINE
  8
0
 10
135.43
 20
-60.8553
 11
135.665
 21
-60.9354
  0
LINE
  8
0
 10
135.665
 20
-60.9354
 11
135.886
 21
-61.0489
  0
LINE
  8
0
 10
135.886
 20
-61.0489
 11
136.087
 21
-61.1933
  0
LINE
  8
0
 10
136.087
 20
-61.1933
 11
136.266
 21
-61.3656
  0
LINE
  8
0
 10
136.266
 20
-61.3656
 11
136.418
 21
-61.562
  0
LINE
  8
0
 10
136.418
 20
-61.562
 11
136.539
 21
-61.7784
  0
LINE
  8
0
 10
136.539
 20
-61.7784
 11
136.628
 21
-62.0102
  0
LINE
  8
0
 10
136.628
 20
-62.0102
 11
136.682
 21
-62.2525
  0
LINE
  8
0
 10
136.682
 20
-62.2525
 11
136.7
 21
-62.5
  0
LINE
  8
0
 10
136.7
 20
-62.5
 11
136.682
 21
-62.7475
  0
LINE
  8
0
 10
136.682
 20
-62.7475
 11
136.628
 21
-62.9898
  0
LINE
  8
0
 10
136.628
 20
-62.9898
 11
136.539
 21
-63.2216
  0
LINE
  8
0
 10
136.539
 20
-63.2216
 11
136.418
 21
-63.438
  0
LINE
  8
0
 10
136.418
 20
-63.438
 11
136.266
 21
-63.6344
  0
LINE
  8
0
 10
136.266
 20
-63.6344
 11
136.087
 21
-63.8067
  0
LINE
  8
0
 10
136.087
 20
-63.8067
 11
135.886
 21
-63.9511
  0
LINE
  8
0
 10
135.886
 20
-63.9511
 11
135.665
 21
-64.0646
  0
LINE
  8
0
 10
135.665
 20
-64.0646
 11
135.43
 21
-64.1447
  0
LINE
  8
0
 10
135.43
 20
-64.1447
 11
135.186
 21
-64.1898
  0
LINE
  8
0
 10
135.186
 20
-64.1898
 11
134.938
 21
-64.1989
  0
LINE
  8
0
 10
134.938
 20
-64.1989
 11
134.691
 21
-64.1717
  0
LINE
  8
0
 10
-225.309
 20
-64.1717
 11
-225.549
 21
-64.1089
  0
LINE
  8
0
 10
-225.549
 20
-64.1089
 11
-225.777
 21
-64.0119
  0
LINE
  8
0
 10
-225.777
 20
-64.0119
 11
-225.989
 21
-63.8826
  0
LINE
  8
0
 10
-225.989
 20
-63.8826
 11
-226.18
 21
-63.7238
  0
LINE
  8
0
 10
-226.18
 20
-63.7238
 11
-226.346
 21
-63.539
  0
LINE
  8
0
 10
-226.346
 20
-63.539
 11
-226.482
 21
-63.332
  0
LINE
  8
0
 10
-226.482
 20
-63.332
 11
-226.588
 21
-63.1073
  0
LINE
  8
0
 10
-226.588
 20
-63.1073
 11
-226.659
 21
-62.8696
  0
LINE
  8
0
 10
-226.659
 20
-62.8696
 11
-226.695
 21
-62.6241
  0
LINE
  8
0
 10
-226.695
 20
-62.6241
 11
-226.695
 21
-62.3759
  0
LINE
  8
0
 10
-226.695
 20
-62.3759
 11
-226.659
 21
-62.1304
  0
LINE
  8
0
 10
-226.659
 20
-62.1304
 11
-226.588
 21
-61.8927
  0
LINE
  8
0
 10
-226.588
 20
-61.8927
 11
-226.482
 21
-61.668
  0
LINE
  8
0
 10
-226.482
 20
-61.668
 11
-226.346
 21
-61.461
  0
LINE
  8
0
 10
-226.346
 20
-61.461
 11
-226.18
 21
-61.2762
  0
LINE
  8
0
 10
-226.18
 20
-61.2762
 11
-225.989
 21
-61.1174
  0
LINE
  8
0
 10
-225.989
 20
-61.1174
 11
-225.777
 21
-60.9881
  0
LINE
  8
0
 10
-225.777
 20
-60.9881
 11
-225.549
 21
-60.8911
  0
LINE
  8
0
 10
-225.549
 20
-60.8911
 11
-225.309
 21
-60.8283
  0
LINE
  8
0
 10
-225.309
 20
-60.8283
 11
-225.062
 21
-60.8011
  0
LINE
  8
0
 10
-225.062
 20
-60.8011
 11
-224.814
 21
-60.8102
  0
LINE
  8
0
 10
-224.814
 20
-60.8102
 11
-224.57
 21
-60.8553
  0
LINE
  8
0
 10
-224.57
 20
-60.8553
 11
-224.335
 21
-60.9354
  0
LINE
  8
0
 10
-224.335
 20
-60.9354
 11
-224.114
 21
-61.0489
  0
LINE
  8
0
 10
-224.114
 20
-61.0489
 11
-223.913
 21
-61.1933
  0
LINE
  8
0
 10
-223.913
 20
-61.1933
 11
-223.734
 21
-61.3656
  0
LINE
  8
0
 10
-223.734
 20
-61.3656
 11
-223.582
 21
-61.562
  0
LINE
  8
0
 10
-223.582
 20
-61.562
 11
-223.461
 21
-61.7784
  0
LINE
  8
0
 10
-223.461
 20
-61.7784
 11
-223.372
 21
-62.0102
  0
LINE
  8
0
 10
-223.372
 20
-62.0102
 11
-223.318
 21
-62.2525
  0
LINE
  8
0
 10
-223.318
 20
-62.2525
 11
-223.3
 21
-62.5
  0
LINE
  8
0
 10
-223.3
 20
-62.5
 11
-223.318
 21
-62.7475
  0
LINE
  8
0
 10
-223.318
 20
-62.7475
 11
-223.372
 21
-62.9898
  0
LINE
  8
0
 10
-223.372
 20
-62.9898
 11
-223.461
 21
-63.2216
  0
LINE
  8
0
 10
-223.461
 20
-63.2216
 11
-223.582
 21
-63.438
  0
LINE
  8
0
 10
-223.582
 20
-63.438
 11
-223.734
 21
-63.6344
  0
LINE
  8
0
 10
-223.734
 20
-63.6344
 11
-223.913
 21
-63.8067
  0
LINE
  8
0
 10
-223.913
 20
-63.8067
 11
-224.114
 21
-63.9511
  0
LINE
  8
0
 10
-224.114
 20
-63.9511
 11
-224.335
 21
-64.0646
  0
LINE
  8
0
 10
-224.335
 20
-64.0646
 11
-224.57
 21
-64.1447
  0
LINE
  8
0
 10
-224.57
 20
-64.1447
 11
-224.814
 21
-64.1898
  0
LINE
  8
0
 10
-224.814
 20
-64.1898
 11
-225.062
 21
-64.1989
  0
LINE
  8
0
 10
-225.062
 20
-64.1989
 11
-225.309
 21
-64.1717
  0
LINE
  8
0
 10
-135.309
 20
-64.1717
 11
-135.549
 21
-64.1089
  0
LINE
  8
0
 10
-135.549
 20
-64.1089
 11
-135.777
 21
-64.0119
  0
LINE
  8
0
 10
-135.777
 20
-64.0119
 11
-135.989
 21
-63.8826
  0
LINE
  8
0
 10
-135.989
 20
-63.8826
 11
-136.18
 21
-63.7238
  0
LINE
  8
0
 10
-136.18
 20
-63.7238
 11
-136.346
 21
-63.539
  0
LINE
  8
0
 10
-136.346
 20
-63.539
 11
-136.482
 21
-63.332
  0
LINE
  8
0
 10
-136.482
 20
-63.332
 11
-136.588
 21
-63.1073
  0
LINE
  8
0
 10
-136.588
 20
-63.1073
 11
-136.659
 21
-62.8696
  0
LINE
  8
0
 10
-136.659
 20
-62.8696
 11
-136.695
 21
-62.6241
  0
LINE
  8
0
 10
-136.695
 20
-62.6241
 11
-136.695
 21
-62.3759
  0
LINE
  8
0
 10
-136.695
 20
-62.3759
 11
-136.659
 21
-62.1304
  0
LINE
  8
0
 10
-136.659
 20
-62.1304
 11
-136.588
 21
-61.8927
  0
LINE
  8
0
 10
-136.588
 20
-61.8927
 11
-136.482
 21
-61.668
  0
LINE
  8
0
 10
-136.482
 20
-61.668
 11
-136.346
 21
-61.461
  0
LINE
  8
0
 10
-136.346
 20
-61.461
 11
-136.18
 21
-61.2762
  0
LINE
  8
0
 10
-136.18
 20
-61.2762
 11
-135.989
 21
-61.1174
  0
LINE
  8
0
 10
-135.989
 20
-61.1174
 11
-135.777
 21
-60.9881
  0
LINE
  8
0
 10
-135.777
 20
-60.9881
 11
-135.549
 21
-60.8911
  0
LINE
  8
0
 10
-135.549
 20
-60.8911
 11
-135.309
 21
-60.8283
  0
LINE
  8
0
 10
-135.309
 20
-60.8283
 11
-135.062
 21
-60.8011
  0
LINE
  8
0
 10
-135.062
 20
-60.8011
 11
-134.814
 21
-60.8102
  0
LINE
  8
0
 10
-134.814
 20
-60.8102
 11
-134.57
 21
-60.8553
  0
LINE
  8
0
 10
-134.57
 20
-60.8553
 11
-134.335
 21
-60.9354
  0
LINE
  8
0
 10
-134.335
 20
-60.9354
 11
-134.114
 21
-61.0489
  0
LINE
  8
0
 10
-134.114
 20
-61.0489
 11
-133.913
 21
-61.1933
  0
LINE
  8
0
 10
-133.913
 20
-61.1933
 11
-133.734
 21
-61.3656
  0
LINE
  8
0
 10
-133.734
 20
-61.3656
 11
-133.582
 21
-61.562
  0
LINE
  8
0
 10
-133.582
 20
-61.562
 11
-133.461
 21
-61.7784
  0
LINE
  8
0
 10
-133.461
 20
-61.7784
 11
-133.372
 21
-62.0102
  0
LINE
  8
0
 10
-133.372
 20
-62.0102
 11
-133.318
 21
-62.2525
  0
LINE
  8
0
 10
-133.318
 20
-62.2525
 11
-133.3
 21
-62.5
  0
LINE
  8
0
 10
-133.3
 20
-62.5
 11
-133.318
 21
-62.7475
  0
LINE
  8
0
 10
-133.318
 20
-62.7475
 11
-133.372
 21
-62.9898
  0
LINE
  8
0
 10
-133.372
 20
-62.9898
 11
-133.461
 21
-63.2216
  0
LINE
  8
0
 10
-133.461
 20
-63.2216
 11
-133.582
 21
-63.438
  0
LINE
  8
0
 10
-133.582
 20
-63.438
 11
-133.734
 21
-63.6344
  0
LINE
  8
0
 10
-133.734
 20
-63.6344
 11
-133.913
 21
-63.8067
  0
LINE
  8
0
 10
-133.913
 20
-63.8067
 11
-134.114
 21
-63.9511
  0
LINE
  8
0
 10
-134.114
 20
-63.9511
 11
-134.335
 21
-64.0646
  0
LINE
  8
0
 10
-134.335
 20
-64.0646
 11
-134.57
 21
-64.1447
  0
LINE
  8
0
 10
-134.57
 20
-64.1447
 11
-134.814
 21
-64.1898
  0
LINE
  8
0
 10
-134.814
 20
-64.1898
 11
-135.062
 21
-64.1989
  0
LINE
  8
0
 10
-135.062
 20
-64.1989
 11
-135.309
 21
-64.1717
  0
LINE
  8
0
 10
224.691
 20
-64.1717
 11
224.451
 21
-64.1089
  0
LINE
  8
0
 10
224.451
 20
-64.1089
 11
224.223
 21
-64.0119
  0
LINE
  8
0
 10
224.223
 20
-64.0119
 11
224.011
 21
-63.8826
  0
LINE
  8
0
 10
224.011
 20
-63.8826
 11
223.82
 21
-63.7238
  0
LINE
  8
0
 10
223.82
 20
-63.7238
 11
223.654
 21
-63.539
  0
LINE
  8
0
 10
223.654
 20
-63.539
 11
223.518
 21
-63.332
  0
LINE
  8
0
 10
223.518
 20
-63.332
 11
223.412
 21
-63.1073
  0
LINE
  8
0
 10
223.412
 20
-63.1073
 11
223.341
 21
-62.8696
  0
LINE
  8
0
 10
223.341
 20
-62.8696
 11
223.305
 21
-62.6241
  0
LINE
  8
0
 10
223.305
 20
-62.6241
 11
223.305
 21
-62.3759
  0
LINE
  8
0
 10
223.305
 20
-62.3759
 11
223.341
 21
-62.1304
  0
LINE
  8
0
 10
223.341
 20
-62.1304
 11
223.412
 21
-61.8927
  0
LINE
  8
0
 10
223.412
 20
-61.8927
 11
223.518
 21
-61.668
  0
LINE
  8
0
 10
223.518
 20
-61.668
 11
223.654
 21
-61.461
  0
LINE
  8
0
 10
223.654
 20
-61.461
 11
223.82
 21
-61.2762
  0
LINE
  8
0
 10
223.82
 20
-61.2762
 11
224.011
 21
-61.1174
  0
LINE
  8
0
 10
224.011
 20
-61.1174
 11
224.223
 21
-60.9881
  0
LINE
  8
0
 10
224.223
 20
-60.9881
 11
224.451
 21
-60.8911
  0
LINE
  8
0
 10
224.451
 20
-60.8911
 11
224.691
 21
-60.8283
  0
LINE
  8
0
 10
224.691
 20
-60.8283
 11
224.938
 21
-60.8011
  0
LINE
  8
0
 10
224.938
 20
-60.8011
 11
225.186
 21
-60.8102
  0
LINE
  8
0
 10
225.186
 20
-60.8102
 11
225.43
 21
-60.8553
  0
LINE
  8
0
 10
225.43
 20
-60.8553
 11
225.665
 21
-60.9354
  0
LINE
  8
0
 10
225.665
 20
-60.9354
 11
225.886
 21
-61.0489
  0
LINE
  8
0
 10
225.886
 20
-61.0489
 11
226.087
 21
-61.1933
  0
LINE
  8
0
 10
226.087
 20
-61.1933
 11
226.266
 21
-61.3656
  0
LINE
  8
0
 10
226.266
 20
-61.3656
 11
226.418
 21
-61.562
  0
LINE
  8
0
 10
226.418
 20
-61.562
 11
226.539
 21
-61.7784
  0
LINE
  8
0
 10
226.539
 20
-61.7784
 11
226.628
 21
-62.0102
  0
LINE
  8
0
 10
226.628
 20
-62.0102
 11
226.682
 21
-62.2525
  0
LINE
  8
0
 10
226.682
 20
-62.2525
 11
226.7
 21
-62.5
  0
LINE
  8
0
 10
226.7
 20
-62.5
 11
226.682
 21
-62.7475
  0
LINE
  8
0
 10
226.682
 20
-62.7475
 11
226.628
 21
-62.9898
  0
LINE
  8
0
 10
226.628
 20
-62.9898
 11
226.539
 21
-63.2216
  0
LINE
  8
0
 10
226.539
 20
-63.2216
 11
226.418
 21
-63.438
  0
LINE
  8
0
 10
226.418
 20
-63.438
 11
226.266
 21
-63.6344
  0
LINE
  8
0
 10
226.266
 20
-63.6344
 11
226.087
 21
-63.8067
  0
LINE
  8
0
 10
226.087
 20
-63.8067
 11
225.886
 21
-63.9511
  0
LINE
  8
0
 10
225.886
 20
-63.9511
 11
225.665
 21
-64.0646
  0
LINE
  8
0
 10
225.665
 20
-64.0646
 11
225.43
 21
-64.1447
  0
LINE
  8
0
 10
225.43
 20
-64.1447
 11
225.186
 21
-64.1898
  0
LINE
  8
0
 10
225.186
 20
-64.1898
 11
224.938
 21
-64.1989
  0
LINE
  8
0
 10
224.938
 20
-64.1989
 11
224.691
 21
-64.1717
  0
LINE
  8
0
 10
44.6912
 20
-64.1717
 11
44.4511
 21
-64.1089
  0
LINE
  8
0
 10
44.4511
 20
-64.1089
 11
44.2227
 21
-64.0119
  0
LINE
  8
0
 10
44.2227
 20
-64.0119
 11
44.0108
 21
-63.8826
  0
LINE
  8
0
 10
44.0108
 20
-63.8826
 11
43.8201
 21
-63.7238
  0
LINE
  8
0
 10
43.8201
 20
-63.7238
 11
43.6544
 21
-63.539
  0
LINE
  8
0
 10
43.6544
 20
-63.539
 11
43.5175
 21
-63.332
  0
LINE
  8
0
 10
43.5175
 20
-63.332
 11
43.4122
 21
-63.1073
  0
LINE
  8
0
 10
43.4122
 20
-63.1073
 11
43.3407
 21
-62.8696
  0
LINE
  8
0
 10
43.3407
 20
-62.8696
 11
43.3045
 21
-62.6241
  0
LINE
  8
0
 10
43.3045
 20
-62.6241
 11
43.3045
 21
-62.3759
  0
LINE
  8
0
 10
43.3045
 20
-62.3759
 11
43.3407
 21
-62.1304
  0
LINE
  8
0
 10
43.3407
 20
-62.1304
 11
43.4122
 21
-61.8927
  0
LINE
  8
0
 10
43.4122
 20
-61.8927
 11
43.5175
 21
-61.668
  0
LINE
  8
0
 10
43.5175
 20
-61.668
 11
43.6544
 21
-61.461
  0
LINE
  8
0
 10
43.6544
 20
-61.461
 11
43.8201
 21
-61.2762
  0
LINE
  8
0
 10
43.8201
 20
-61.2762
 11
44.0108
 21
-61.1174
  0
LINE
  8
0
 10
44.0108
 20
-61.1174
 11
44.2227
 21
-60.9881
  0
LINE
  8
0
 10
44.2227
 20
-60.9881
 11
44.4511
 21
-60.8911
  0
LINE
  8
0
 10
44.4511
 20
-60.8911
 11
44.6912
 21
-60.8283
  0
LINE
  8
0
 10
44.6912
 20
-60.8283
 11
44.9379
 21
-60.8011
  0
LINE
  8
0
 10
44.9379
 20
-60.8011
 11
45.1859
 21
-60.8102
  0
LINE
  8
0
 10
45.1859
 20
-60.8102
 11
45.43
 21
-60.8553
  0
LINE
  8
0
 10
45.43
 20
-60.8553
 11
45.6649
 21
-60.9354
  0
LINE
  8
0
 10
45.6649
 20
-60.9354
 11
45.8856
 21
-61.0489
  0
LINE
  8
0
 10
45.8856
 20
-61.0489
 11
46.0874
 21
-61.1933
  0
LINE
  8
0
 10
46.0874
 20
-61.1933
 11
46.2661
 21
-61.3656
  0
LINE
  8
0
 10
46.2661
 20
-61.3656
 11
46.4178
 21
-61.562
  0
LINE
  8
0
 10
46.4178
 20
-61.562
 11
46.5393
 21
-61.7784
  0
LINE
  8
0
 10
46.5393
 20
-61.7784
 11
46.6279
 21
-62.0102
  0
LINE
  8
0
 10
46.6279
 20
-62.0102
 11
46.6819
 21
-62.2525
  0
LINE
  8
0
 10
46.6819
 20
-62.2525
 11
46.7
 21
-62.5
  0
LINE
  8
0
 10
46.7
 20
-62.5
 11
46.6819
 21
-62.7475
  0
LINE
  8
0
 10
46.6819
 20
-62.7475
 11
46.6279
 21
-62.9898
  0
LINE
  8
0
 10
46.6279
 20
-62.9898
 11
46.5393
 21
-63.2216
  0
LINE
  8
0
 10
46.5393
 20
-63.2216
 11
46.4178
 21
-63.438
  0
LINE
  8
0
 10
46.4178
 20
-63.438
 11
46.2661
 21
-63.6344
  0
LINE
  8
0
 10
46.2661
 20
-63.6344
 11
46.0874
 21
-63.8067
  0
LINE
  8
0
 10
46.0874
 20
-63.8067
 11
45.8856
 21
-63.9511
  0
LINE
  8
0
 10
45.8856
 20
-63.9511
 11
45.6649
 21
-64.0646
  0
LINE
  8
0
 10
45.6649
 20
-64.0646
 11
45.43
 21
-64.1447
  0
LINE
  8
0
 10
45.43
 20
-64.1447
 11
45.1859
 21
-64.1898
  0
LINE
  8
0
 10
45.1859
 20
-64.1898
 11
44.9379
 21
-64.1989
  0
LINE
  8
0
 10
44.9379
 20
-64.1989
 11
44.6912
 21
-64.1717
  0
LINE
  8
0
 10
-311.892
 20
-112.429
 11
-312.28
 21
-112.368
  0
LINE
  8
0
 10
-312.28
 20
-112.368
 11
-312.659
 21
-112.266
  0
LINE
  8
0
 10
-312.659
 20
-112.266
 11
-313.025
 21
-112.126
  0
LINE
  8
0
 10
-313.025
 20
-112.126
 11
-313.375
 21
-111.948
  0
LINE
  8
0
 10
-313.375
 20
-111.948
 11
-313.704
 21
-111.734
  0
LINE
  8
0
 10
-313.704
 20
-111.734
 11
-314.009
 21
-111.487
  0
LINE
  8
0
 10
-314.009
 20
-111.487
 11
-314.287
 21
-111.209
  0
LINE
  8
0
 10
-314.287
 20
-111.209
 11
-314.534
 21
-110.904
  0
LINE
  8
0
 10
-314.534
 20
-110.904
 11
-314.748
 21
-110.575
  0
LINE
  8
0
 10
-314.748
 20
-110.575
 11
-314.926
 21
-110.225
  0
LINE
  8
0
 10
-314.926
 20
-110.225
 11
-315.066
 21
-109.859
  0
LINE
  8
0
 10
-315.066
 20
-109.859
 11
-315.168
 21
-109.48
  0
LINE
  8
0
 10
-315.168
 20
-109.48
 11
-315.229
 21
-109.092
  0
LINE
  8
0
 10
-315.229
 20
-109.092
 11
-315.25
 21
-108.7
  0
LINE
  8
0
 10
-315.25
 20
-108.7
 11
-315.229
 21
-108.308
  0
LINE
  8
0
 10
-315.229
 20
-108.308
 11
-315.168
 21
-107.92
  0
LINE
  8
0
 10
-315.168
 20
-107.92
 11
-315.066
 21
-107.541
  0
LINE
  8
0
 10
-315.066
 20
-107.541
 11
-314.926
 21
-107.175
  0
LINE
  8
0
 10
-314.926
 20
-107.175
 11
-314.748
 21
-106.825
  0
LINE
  8
0
 10
-314.748
 20
-106.825
 11
-314.534
 21
-106.496
  0
LINE
  8
0
 10
-314.534
 20
-106.496
 11
-314.287
 21
-106.191
  0
LINE
  8
0
 10
-314.287
 20
-106.191
 11
-314.009
 21
-105.913
  0
LINE
  8
0
 10
-314.009
 20
-105.913
 11
-313.704
 21
-105.666
  0
LINE
  8
0
 10
-313.704
 20
-105.666
 11
-313.375
 21
-105.452
  0
LINE
  8
0
 10
-313.375
 20
-105.452
 11
-313.025
 21
-105.274
  0
LINE
  8
0
 10
-313.025
 20
-105.274
 11
-312.659
 21
-105.134
  0
LINE
  8
0
 10
-312.659
 20
-105.134
 11
-312.28
 21
-105.032
  0
LINE
  8
0
 10
-312.28
 20
-105.032
 11
-311.892
 21
-104.971
  0
LINE
  8
0
 10
-311.892
 20
-104.971
 11
-311.5
 21
-104.95
  0
LINE
  8
0
 10
-311.5
 20
-104.95
 11
-311.108
 21
-104.971
  0
LINE
  8
0
 10
-311.108
 20
-104.971
 11
-310.72
 21
-105.032
  0
LINE
  8
0
 10
-310.72
 20
-105.032
 11
-310.341
 21
-105.134
  0
LINE
  8
0
 10
-310.341
 20
-105.134
 11
-309.975
 21
-105.274
  0
LINE
  8
0
 10
-309.975
 20
-105.274
 11
-309.625
 21
-105.452
  0
LINE
  8
0
 10
-309.625
 20
-105.452
 11
-309.296
 21
-105.666
  0
LINE
  8
0
 10
-309.296
 20
-105.666
 11
-308.991
 21
-105.913
  0
LINE
  8
0
 10
-308.991
 20
-105.913
 11
-308.713
 21
-106.191
  0
LINE
  8
0
 10
-308.713
 20
-106.191
 11
-308.466
 21
-106.496
  0
LINE
  8
0
 10
-308.466
 20
-106.496
 11
-308.252
 21
-106.825
  0
LINE
  8
0
 10
-308.252
 20
-106.825
 11
-308.074
 21
-107.175
  0
LINE
  8
0
 10
-308.074
 20
-107.175
 11
-307.934
 21
-107.541
  0
LINE
  8
0
 10
-307.934
 20
-107.541
 11
-307.832
 21
-107.92
  0
LINE
  8
0
 10
-307.832
 20
-107.92
 11
-307.771
 21
-108.308
  0
LINE
  8
0
 10
-307.771
 20
-108.308
 11
-307.75
 21
-108.7
  0
LINE
  8
0
 10
-307.75
 20
-108.7
 11
-307.771
 21
-109.092
  0
LINE
  8
0
 10
-307.771
 20
-109.092
 11
-307.832
 21
-109.48
  0
LINE
  8
0
 10
-307.832
 20
-109.48
 11
-307.934
 21
-109.859
  0
LINE
  8
0
 10
-307.934
 20
-109.859
 11
-308.074
 21
-110.225
  0
LINE
  8
0
 10
-308.074
 20
-110.225
 11
-308.252
 21
-110.575
  0
LINE
  8
0
 10
-308.252
 20
-110.575
 11
-308.466
 21
-110.904
  0
LINE
  8
0
 10
-308.466
 20
-110.904
 11
-308.713
 21
-111.209
  0
LINE
  8
0
 10
-308.713
 20
-111.209
 11
-308.991
 21
-111.487
  0
LINE
  8
0
 10
-308.991
 20
-111.487
 11
-309.296
 21
-111.734
  0
LINE
  8
0
 10
-309.296
 20
-111.734
 11
-309.625
 21
-111.948
  0
LINE
  8
0
 10
-309.625
 20
-111.948
 11
-309.975
 21
-112.126
  0
LINE
  8
0
 10
-309.975
 20
-112.126
 11
-310.341
 21
-112.266
  0
LINE
  8
0
 10
-310.341
 20
-112.266
 11
-310.72
 21
-112.368
  0
LINE
  8
0
 10
-310.72
 20
-112.368
 11
-311.108
 21
-112.429
  0
LINE
  8
0
 10
-311.108
 20
-112.429
 11
-311.5
 21
-112.45
  0
LINE
  8
0
 10
-311.5
 20
-112.45
 11
-311.892
 21
-112.429
  0
LINE
  8
0
 10
311.108
 20
-112.429
 11
310.72
 21
-112.368
  0
LINE
  8
0
 10
310.72
 20
-112.368
 11
310.341
 21
-112.266
  0
LINE
  8
0
 10
310.341
 20
-112.266
 11
309.975
 21
-112.126
  0
LINE
  8
0
 10
309.975
 20
-112.126
 11
309.625
 21
-111.948
  0
LINE
  8
0
 10
309.625
 20
-111.948
 11
309.296
 21
-111.734
  0
LINE
  8
0
 10
309.296
 20
-111.734
 11
308.991
 21
-111.487
  0
LINE
  8
0
 10
308.991
 20
-111.487
 11
308.713
 21
-111.209
  0
LINE
  8
0
 10
308.713
 20
-111.209
 11
308.466
 21
-110.904
  0
LINE
  8
0
 10
308.466
 20
-110.904
 11
308.252
 21
-110.575
  0
LINE
  8
0
 10
308.252
 20
-110.575
 11
308.074
 21
-110.225
  0
LINE
  8
0
 10
308.074
 20
-110.225
 11
307.934
 21
-109.859
  0
LINE
  8
0
 10
307.934
 20
-109.859
 11
307.832
 21
-109.48
  0
LINE
  8
0
 10
307.832
 20
-109.48
 11
307.771
 21
-109.092
  0
LINE
  8
0
 10
307.771
 20
-109.092
 11
307.75
 21
-108.7
  0
LINE
  8
0
 10
307.75
 20
-108.7
 11
307.771
 21
-108.308
  0
LINE
  8
0
 10
307.771
 20
-108.308
 11
307.832
 21
-107.92
  0
LINE
  8
0
 10
307.832
 20
-107.92
 11
307.934
 21
-107.541
  0
LINE
  8
0
 10
307.934
 20
-107.541
 11
308.074
 21
-107.175
  0
LINE
  8
0
 10
308.074
 20
-107.175
 11
308.252
 21
-106.825
  0
LINE
  8
0
 10
308.252
 20
-106.825
 11
308.466
 21
-106.496
  0
LINE
  8
0
 10
308.466
 20
-106.496
 11
308.713
 21
-106.191
  0
LINE
  8
0
 10
308.713
 20
-106.191
 11
308.991
 21
-105.913
  0
LINE
  8
0
 10
308.991
 20
-105.913
 11
309.296
 21
-105.666
  0
LINE
  8
0
 10
309.296
 20
-105.666
 11
309.625
 21
-105.452
  0
LINE
  8
0
 10
309.625
 20
-105.452
 11
309.975
 21
-105.274
  0
LINE
  8
0
 10
309.975
 20
-105.274
 11
310.341
 21
-105.134
  0
LINE
  8
0
 10
310.341
 20
-105.134
 11
310.72
 21
-105.032
  0
LINE
  8
0
 10
310.72
 20
-105.032
 11
311.108
 21
-104.971
  0
LINE
  8
0
 10
311.108
 20
-104.971
 11
311.5
 21
-104.95
  0
LINE
  8
0
 10
311.5
 20
-104.95
 11
311.892
 21
-104.971
  0
LINE
  8
0
 10
311.892
 20
-104.971
 11
312.28
 21
-105.032
  0
LINE
  8
0
 10
312.28
 20
-105.032
 11
312.659
 21
-105.134
  0
LINE
  8
0
 10
312.659
 20
-105.134
 11
313.025
 21
-105.274
  0
LINE
  8
0
 10
313.025
 20
-105.274
 11
313.375
 21
-105.452
  0
LINE
  8
0
 10
313.375
 20
-105.452
 11
313.704
 21
-105.666
  0
LINE
  8
0
 10
313.704
 20
-105.666
 11
314.009
 21
-105.913
  0
LINE
  8
0
 10
314.009
 20
-105.913
 11
314.287
 21
-106.191
  0
LINE
  8
0
 10
314.287
 20
-106.191
 11
314.534
 21
-106.496
  0
LINE
  8
0
 10
314.534
 20
-106.496
 11
314.748
 21
-106.825
  0
LINE
  8
0
 10
314.748
 20
-106.825
 11
314.926
 21
-107.175
  0
LINE
  8
0
 10
314.926
 20
-107.175
 11
315.066
 21
-107.541
  0
LINE
  8
0
 10
315.066
 20
-107.541
 11
315.168
 21
-107.92
  0
LINE
  8
0
 10
315.168
 20
-107.92
 11
315.229
 21
-108.308
  0
LINE
  8
0
 10
315.229
 20
-108.308
 11
315.25
 21
-108.7
  0
LINE
  8
0
 10
315.25
 20
-108.7
 11
315.229
 21
-109.092
  0
LINE
  8
0
 10
315.229
 20
-109.092
 11
315.168
 21
-109.48
  0
LINE
  8
0
 10
315.168
 20
-109.48
 11
315.066
 21
-109.859
  0
LINE
  8
0
 10
315.066
 20
-109.859
 11
314.926
 21
-110.225
  0
LINE
  8
0
 10
314.926
 20
-110.225
 11
314.748
 21
-110.575
  0
LINE
  8
0
 10
314.748
 20
-110.575
 11
314.534
 21
-110.904
  0
LINE
  8
0
 10
314.534
 20
-110.904
 11
314.287
 21
-111.209
  0
LINE
  8
0
 10
314.287
 20
-111.209
 11
314.009
 21
-111.487
  0
LINE
  8
0
 10
314.009
 20
-111.487
 11
313.704
 21
-111.734
  0
LINE
  8
0
 10
313.704
 20
-111.734
 11
313.375
 21
-111.948
  0
LINE
  8
0
 10
313.375
 20
-111.948
 11
313.025
 21
-112.126
  0
LINE
  8
0
 10
313.025
 20
-112.126
 11
312.659
 21
-112.266
  0
LINE
  8
0
 10
312.659
 20
-112.266
 11
312.28
 21
-112.368
  0
LINE
  8
0
 10
312.28
 20
-112.368
 11
311.892
 21
-112.429
  0
LINE
  8
0
 10
311.892
 20
-112.429
 11
311.5
 21
-112.45
  0
LINE
  8
0
 10
311.5
 20
-112.45
 11
311.108
 21
-112.429
  0
LINE
  8
0
 10
69.5434
 20
-110.345
 11
69.2995
 21
-110.309
  0
LINE
  8
0
 10
69.2995
 20
-110.309
 11
69.0638
 21
-110.236
  0
LINE
  8
0
 10
69.0638
 20
-110.236
 11
68.8417
 21
-110.129
  0
LINE
  8
0
 10
68.8417
 20
-110.129
 11
68.6379
 21
-109.99
  0
LINE
  8
0
 10
68.6379
 20
-109.99
 11
68.4571
 21
-109.822
  0
LINE
  8
0
 10
68.4571
 20
-109.822
 11
68.3034
 21
-109.629
  0
LINE
  8
0
 10
68.3034
 20
-109.629
 11
68.1801
 21
-109.416
  0
LINE
  8
0
 10
68.1801
 20
-109.416
 11
68.09
 21
-109.186
  0
LINE
  8
0
 10
68.09
 20
-109.186
 11
68.0351
 21
-108.946
  0
LINE
  8
0
 10
68.0351
 20
-108.946
 11
68.0167
 21
-108.7
  0
LINE
  8
0
 10
68.0167
 20
-108.7
 11
68.0351
 21
-108.454
  0
LINE
  8
0
 10
68.0351
 20
-108.454
 11
68.09
 21
-108.214
  0
LINE
  8
0
 10
68.09
 20
-108.214
 11
68.1801
 21
-107.984
  0
LINE
  8
0
 10
68.1801
 20
-107.984
 11
68.3034
 21
-107.771
  0
LINE
  8
0
 10
68.3034
 20
-107.771
 11
68.4571
 21
-107.578
  0
LINE
  8
0
 10
68.4571
 20
-107.578
 11
68.6379
 21
-107.41
  0
LINE
  8
0
 10
68.6379
 20
-107.41
 11
68.8417
 21
-107.271
  0
LINE
  8
0
 10
68.8417
 20
-107.271
 11
69.0638
 21
-107.164
  0
LINE
  8
0
 10
69.0638
 20
-107.164
 11
69.2995
 21
-107.091
  0
LINE
  8
0
 10
69.2995
 20
-107.091
 11
69.5434
 21
-107.055
  0
LINE
  8
0
 10
69.5434
 20
-107.055
 11
109.79
 21
-107.055
  0
LINE
  8
0
 10
109.79
 20
-107.055
 11
110.034
 21
-107.091
  0
LINE
  8
0
 10
110.034
 20
-107.091
 11
110.269
 21
-107.164
  0
LINE
  8
0
 10
110.269
 20
-107.164
 11
110.492
 21
-107.271
  0
LINE
  8
0
 10
110.492
 20
-107.271
 11
110.695
 21
-107.41
  0
LINE
  8
0
 10
110.695
 20
-107.41
 11
110.876
 21
-107.578
  0
LINE
  8
0
 10
110.876
 20
-107.578
 11
111.03
 21
-107.771
  0
LINE
  8
0
 10
111.03
 20
-107.771
 11
111.153
 21
-107.984
  0
LINE
  8
0
 10
111.153
 20
-107.984
 11
111.243
 21
-108.214
  0
LINE
  8
0
 10
111.243
 20
-108.214
 11
111.298
 21
-108.454
  0
LINE
  8
0
 10
111.298
 20
-108.454
 11
111.317
 21
-108.7
  0
LINE
  8
0
 10
111.317
 20
-108.7
 11
111.298
 21
-108.946
  0
LINE
  8
0
 10
111.298
 20
-108.946
 11
111.243
 21
-109.186
  0
LINE
  8
0
 10
111.243
 20
-109.186
 11
111.153
 21
-109.416
  0
LINE
  8
0
 10
111.153
 20
-109.416
 11
111.03
 21
-109.629
  0
LINE
  8
0
 10
111.03
 20
-109.629
 11
110.876
 21
-109.822
  0
LINE
  8
0
 10
110.876
 20
-109.822
 11
110.695
 21
-109.99
  0
LINE
  8
0
 10
110.695
 20
-109.99
 11
110.492
 21
-110.129
  0
LINE
  8
0
 10
110.492
 20
-110.129
 11
110.269
 21
-110.236
  0
LINE
  8
0
 10
110.269
 20
-110.236
 11
110.034
 21
-110.309
  0
LINE
  8
0
 10
110.034
 20
-110.309
 11
109.79
 21
-110.345
  0
LINE
  8
0
 10
109.79
 20
-110.345
 11
69.5434
 21
-110.345
  0
LINE
  8
0
 10
-20.1233
 20
-110.345
 11
-20.3672
 21
-110.309
  0
LINE
  8
0
 10
-20.3672
 20
-110.309
 11
-20.6028
 21
-110.236
  0
LINE
  8
0
 10
-20.6028
 20
-110.236
 11
-20.825
 21
-110.129
  0
LINE
  8
0
 10
-20.825
 20
-110.129
 11
-21.0287
 21
-109.99
  0
LINE
  8
0
 10
-21.0287
 20
-109.99
 11
-21.2095
 21
-109.822
  0
LINE
  8
0
 10
-21.2095
 20
-109.822
 11
-21.3633
 21
-109.629
  0
LINE
  8
0
 10
-21.3633
 20
-109.629
 11
-21.4866
 21
-109.416
  0
LINE
  8
0
 10
-21.4866
 20
-109.416
 11
-21.5767
 21
-109.186
  0
LINE
  8
0
 10
-21.5767
 20
-109.186
 11
-21.6316
 21
-108.946
  0
LINE
  8
0
 10
-21.6316
 20
-108.946
 11
-21.65
 21
-108.7
  0
LINE
  8
0
 10
-21.65
 20
-108.7
 11
-21.6316
 21
-108.454
  0
LINE
  8
0
 10
-21.6316
 20
-108.454
 11
-21.5767
 21
-108.214
  0
LINE
  8
0
 10
-21.5767
 20
-108.214
 11
-21.4866
 21
-107.984
  0
LINE
  8
0
 10
-21.4866
 20
-107.984
 11
-21.3633
 21
-107.771
  0
LINE
  8
0
 10
-21.3633
 20
-107.771
 11
-21.2095
 21
-107.578
  0
LINE
  8
0
 10
-21.2095
 20
-107.578
 11
-21.0287
 21
-107.41
  0
LINE
  8
0
 10
-21.0287
 20
-107.41
 11
-20.825
 21
-107.271
  0
LINE
  8
0
 10
-20.825
 20
-107.271
 11
-20.6028
 21
-107.164
  0
LINE
  8
0
 10
-20.6028
 20
-107.164
 11
-20.3672
 21
-107.091
  0
LINE
  8
0
 10
-20.3672
 20
-107.091
 11
-20.1233
 21
-107.055
  0
LINE
  8
0
 10
-20.1233
 20
-107.055
 11
20.1233
 21
-107.055
  0
LINE
  8
0
 10
20.1233
 20
-107.055
 11
20.3672
 21
-107.091
  0
LINE
  8
0
 10
20.3672
 20
-107.091
 11
20.6028
 21
-107.164
  0
LINE
  8
0
 10
20.6028
 20
-107.164
 11
20.825
 21
-107.271
  0
LINE
  8
0
 10
20.825
 20
-107.271
 11
21.0287
 21
-107.41
  0
LINE
  8
0
 10
21.0287
 20
-107.41
 11
21.2095
 21
-107.578
  0
LINE
  8
0
 10
21.2095
 20
-107.578
 11
21.3633
 21
-107.771
  0
LINE
  8
0
 10
21.3633
 20
-107.771
 11
21.4866
 21
-107.984
  0
LINE
  8
0
 10
21.4866
 20
-107.984
 11
21.5767
 21
-108.214
  0
LINE
  8
0
 10
21.5767
 20
-108.214
 11
21.6316
 21
-108.454
  0
LINE
  8
0
 10
21.6316
 20
-108.454
 11
21.65
 21
-108.7
  0
LINE
  8
0
 10
21.65
 20
-108.7
 11
21.6316
 21
-108.946
  0
LINE
  8
0
 10
21.6316
 20
-108.946
 11
21.5767
 21
-109.186
  0
LINE
  8
0
 10
21.5767
 20
-109.186
 11
21.4866
 21
-109.416
  0
LINE
  8
0
 10
21.4866
 20
-109.416
 11
21.3633
 21
-109.629
  0
LINE
  8
0
 10
21.3633
 20
-109.629
 11
21.2095
 21
-109.822
  0
LINE
  8
0
 10
21.2095
 20
-109.822
 11
21.0287
 21
-109.99
  0
LINE
  8
0
 10
21.0287
 20
-109.99
 11
20.825
 21
-110.129
  0
LINE
  8
0
 10
20.825
 20
-110.129
 11
20.6028
 21
-110.236
  0
LINE
  8
0
 10
20.6028
 20
-110.236
 11
20.3672
 21
-110.309
  0
LINE
  8
0
 10
20.3672
 20
-110.309
 11
20.1233
 21
-110.345
  0
LINE
  8
0
 10
20.1233
 20
-110.345
 11
-20.1233
 21
-110.345
  0
LINE
  8
0
 10
-109.79
 20
-110.345
 11
-110.034
 21
-110.309
  0
LINE
  8
0
 10
-110.034
 20
-110.309
 11
-110.269
 21
-110.236
  0
LINE
  8
0
 10
-110.269
 20
-110.236
 11
-110.492
 21
-110.129
  0
LINE
  8
0
 10
-110.492
 20
-110.129
 11
-110.695
 21
-109.99
  0
LINE
  8
0
 10
-110.695
 20
-109.99
 11
-110.876
 21
-109.822
  0
LINE
  8
0
 10
-110.876
 20
-109.822
 11
-111.03
 21
-109.629
  0
LINE
  8
0
 10
-111.03
 20
-109.629
 11
-111.153
 21
-109.416
  0
LINE
  8
0
 10
-111.153
 20
-109.416
 11
-111.243
 21
-109.186
  0
LINE
  8
0
 10
-111.243
 20
-109.186
 11
-111.298
 21
-108.946
  0
LINE
  8
0
 10
-111.298
 20
-108.946
 11
-111.317
 21
-108.7
  0
LINE
  8
0
 10
-111.317
 20
-108.7
 11
-111.298
 21
-108.454
  0
LINE
  8
0
 10
-111.298
 20
-108.454
 11
-111.243
 21
-108.214
  0
LINE
  8
0
 10
-111.243
 20
-108.214
 11
-111.153
 21
-107.984
  0
LINE
  8
0
 10
-111.153
 20
-107.984
 11
-111.03
 21
-107.771
  0
LINE
  8
0
 10
-111.03
 20
-107.771
 11
-110.876
 21
-107.578
  0
LINE
  8
0
 10
-110.876
 20
-107.578
 11
-110.695
 21
-107.41
  0
LINE
  8
0
 10
-110.695
 20
-107.41
 11
-110.492
 21
-107.271
  0
LINE
  8
0
 10
-110.492
 20
-107.271
 11
-110.269
 21
-107.164
  0
LINE
  8
0
 10
-110.269
 20
-107.164
 11
-110.034
 21
-107.091
  0
LINE
  8
0
 10
-110.034
 20
-107.091
 11
-109.79
 21
-107.055
  0
LINE
  8
0
 10
-109.79
 20
-107.055
 11
-69.5434
 21
-107.055
  0
LINE
  8
0
 10
-69.5434
 20
-107.055
 11
-69.2995
 21
-107.091
  0
LINE
  8
0
 10
-69.2995
 20
-107.091
 11
-69.0638
 21
-107.164
  0
LINE
  8
0
 10
-69.0638
 20
-107.164
 11
-68.8417
 21
-107.271
  0
LINE
  8
0
 10
-68.8417
 20
-107.271
 11
-68.6379
 21
-107.41
  0
LINE
  8
0
 10
-68.6379
 20
-107.41
 11
-68.4571
 21
-107.578
  0
LINE
  8
0
 10
-68.4571
 20
-107.578
 11
-68.3034
 21
-107.771
  0
LINE
  8
0
 10
-68.3034
 20
-107.771
 11
-68.1801
 21
-107.984
  0
LINE
  8
0
 10
-68.1801
 20
-107.984
 11
-68.09
 21
-108.214
  0
LINE
  8
0
 10
-68.09
 20
-108.214
 11
-68.0351
 21
-108.454
  0
LINE
  8
0
 10
-68.0351
 20
-108.454
 11
-68.0167
 21
-108.7
  0
LINE
  8
0
 10
-68.0167
 20
-108.7
 11
-68.0351
 21
-108.946
  0
LINE
  8
0
 10
-68.0351
 20
-108.946
 11
-68.09
 21
-109.186
  0
LINE
  8
0
 10
-68.09
 20
-109.186
 11
-68.1801
 21
-109.416
  0
LINE
  8
0
 10
-68.1801
 20
-109.416
 11
-68.3034
 21
-109.629
  0
LINE
  8
0
 10
-68.3034
 20
-109.629
 11
-68.4571
 21
-109.822
  0
LINE
  8
0
 10
-68.4571
 20
-109.822
 11
-68.6379
 21
-109.99
  0
LINE
  8
0
 10
-68.6379
 20
-109.99
 11
-68.8417
 21
-110.129
  0
LINE
  8
0
 10
-68.8417
 20
-110.129
 11
-69.0638
 21
-110.236
  0
LINE
  8
0
 10
-69.0638
 20
-110.236
 11
-69.2995
 21
-110.309
  0
LINE
  8
0
 10
-69.2995
 20
-110.309
 11
-69.5434
 21
-110.345
  0
LINE
  8
0
 10
-69.5434
 20
-110.345
 11
-109.79
 21
-110.345
  0
LINE
  8
0
 10
-289.123
 20
-110.345
 11
-289.367
 21
-110.309
  0
LINE
  8
0
 10
-289.367
 20
-110.309
 11
-289.603
 21
-110.236
  0
LINE
  8
0
 10
-289.603
 20
-110.236
 11
-289.825
 21
-110.129
  0
LINE
  8
0
 10
-289.825
 20
-110.129
 11
-290.029
 21
-109.99
  0
LINE
  8
0
 10
-290.029
 20
-109.99
 11
-290.21
 21
-109.822
  0
LINE
  8
0
 10
-290.21
 20
-109.822
 11
-290.363
 21
-109.629
  0
LINE
  8
0
 10
-290.363
 20
-109.629
 11
-290.487
 21
-109.416
  0
LINE
  8
0
 10
-290.487
 20
-109.416
 11
-290.577
 21
-109.186
  0
LINE
  8
0
 10
-290.577
 20
-109.186
 11
-290.632
 21
-108.946
  0
LINE
  8
0
 10
-290.632
 20
-108.946
 11
-290.65
 21
-108.7
  0
LINE
  8
0
 10
-290.65
 20
-108.7
 11
-290.632
 21
-108.454
  0
LINE
  8
0
 10
-290.632
 20
-108.454
 11
-290.577
 21
-108.214
  0
LINE
  8
0
 10
-290.577
 20
-108.214
 11
-290.487
 21
-107.984
  0
LINE
  8
0
 10
-290.487
 20
-107.984
 11
-290.363
 21
-107.771
  0
LINE
  8
0
 10
-290.363
 20
-107.771
 11
-290.21
 21
-107.578
  0
LINE
  8
0
 10
-290.21
 20
-107.578
 11
-290.029
 21
-107.41
  0
LINE
  8
0
 10
-290.029
 20
-107.41
 11
-289.825
 21
-107.271
  0
LINE
  8
0
 10
-289.825
 20
-107.271
 11
-289.603
 21
-107.164
  0
LINE
  8
0
 10
-289.603
 20
-107.164
 11
-289.367
 21
-107.091
  0
LINE
  8
0
 10
-289.367
 20
-107.091
 11
-289.123
 21
-107.055
  0
LINE
  8
0
 10
-289.123
 20
-107.055
 11
-248.877
 21
-107.055
  0
LINE
  8
0
 10
-248.877
 20
-107.055
 11
-248.633
 21
-107.091
  0
LINE
  8
0
 10
-248.633
 20
-107.091
 11
-248.397
 21
-107.164
  0
LINE
  8
0
 10
-248.397
 20
-107.164
 11
-248.175
 21
-107.271
  0
LINE
  8
0
 10
-248.175
 20
-107.271
 11
-247.971
 21
-107.41
  0
LINE
  8
0
 10
-247.971
 20
-107.41
 11
-247.79
 21
-107.578
  0
LINE
  8
0
 10
-247.79
 20
-107.578
 11
-247.637
 21
-107.771
  0
LINE
  8
0
 10
-247.637
 20
-107.771
 11
-247.513
 21
-107.984
  0
LINE
  8
0
 10
-247.513
 20
-107.984
 11
-247.423
 21
-108.214
  0
LINE
  8
0
 10
-247.423
 20
-108.214
 11
-247.368
 21
-108.454
  0
LINE
  8
0
 10
-247.368
 20
-108.454
 11
-247.35
 21
-108.7
  0
LINE
  8
0
 10
-247.35
 20
-108.7
 11
-247.368
 21
-108.946
  0
LINE
  8
0
 10
-247.368
 20
-108.946
 11
-247.423
 21
-109.186
  0
LINE
  8
0
 10
-247.423
 20
-109.186
 11
-247.513
 21
-109.416
  0
LINE
  8
0
 10
-247.513
 20
-109.416
 11
-247.637
 21
-109.629
  0
LINE
  8
0
 10
-247.637
 20
-109.629
 11
-247.79
 21
-109.822
  0
LINE
  8
0
 10
-247.79
 20
-109.822
 11
-247.971
 21
-109.99
  0
LINE
  8
0
 10
-247.971
 20
-109.99
 11
-248.175
 21
-110.129
  0
LINE
  8
0
 10
-248.175
 20
-110.129
 11
-248.397
 21
-110.236
  0
LINE
  8
0
 10
-248.397
 20
-110.236
 11
-248.633
 21
-110.309
  0
LINE
  8
0
 10
-248.633
 20
-110.309
 11
-248.877
 21
-110.345
  0
LINE
  8
0
 10
-248.877
 20
-110.345
 11
-289.123
 21
-110.345
  0
LINE
  8
0
 10
159.21
 20
-110.345
 11
158.966
 21
-110.309
  0
LINE
  8
0
 10
158.966
 20
-110.309
 11
158.731
 21
-110.236
  0
LINE
  8
0
 10
158.731
 20
-110.236
 11
158.508
 21
-110.129
  0
LINE
  8
0
 10
158.508
 20
-110.129
 11
158.305
 21
-109.99
  0
LINE
  8
0
 10
158.305
 20
-109.99
 11
158.124
 21
-109.822
  0
LINE
  8
0
 10
158.124
 20
-109.822
 11
157.97
 21
-109.629
  0
LINE
  8
0
 10
157.97
 20
-109.629
 11
157.847
 21
-109.416
  0
LINE
  8
0
 10
157.847
 20
-109.416
 11
157.757
 21
-109.186
  0
LINE
  8
0
 10
157.757
 20
-109.186
 11
157.702
 21
-108.946
  0
LINE
  8
0
 10
157.702
 20
-108.946
 11
157.683
 21
-108.7
  0
LINE
  8
0
 10
157.683
 20
-108.7
 11
157.702
 21
-108.454
  0
LINE
  8
0
 10
157.702
 20
-108.454
 11
157.757
 21
-108.214
  0
LINE
  8
0
 10
157.757
 20
-108.214
 11
157.847
 21
-107.984
  0
LINE
  8
0
 10
157.847
 20
-107.984
 11
157.97
 21
-107.771
  0
LINE
  8
0
 10
157.97
 20
-107.771
 11
158.124
 21
-107.578
  0
LINE
  8
0
 10
158.124
 20
-107.578
 11
158.305
 21
-107.41
  0
LINE
  8
0
 10
158.305
 20
-107.41
 11
158.508
 21
-107.271
  0
LINE
  8
0
 10
158.508
 20
-107.271
 11
158.731
 21
-107.164
  0
LINE
  8
0
 10
158.731
 20
-107.164
 11
158.966
 21
-107.091
  0
LINE
  8
0
 10
158.966
 20
-107.091
 11
159.21
 21
-107.055
  0
LINE
  8
0
 10
159.21
 20
-107.055
 11
199.457
 21
-107.055
  0
LINE
  8
0
 10
199.457
 20
-107.055
 11
199.701
 21
-107.091
  0
LINE
  8
0
 10
199.701
 20
-107.091
 11
199.936
 21
-107.164
  0
LINE
  8
0
 10
199.936
 20
-107.164
 11
200.158
 21
-107.271
  0
LINE
  8
0
 10
200.158
 20
-107.271
 11
200.362
 21
-107.41
  0
LINE
  8
0
 10
200.362
 20
-107.41
 11
200.543
 21
-107.578
  0
LINE
  8
0
 10
200.543
 20
-107.578
 11
200.697
 21
-107.771
  0
LINE
  8
0
 10
200.697
 20
-107.771
 11
200.82
 21
-107.984
  0
LINE
  8
0
 10
200.82
 20
-107.984
 11
200.91
 21
-108.214
  0
LINE
  8
0
 10
200.91
 20
-108.214
 11
200.965
 21
-108.454
  0
LINE
  8
0
 10
200.965
 20
-108.454
 11
200.983
 21
-108.7
  0
LINE
  8
0
 10
200.983
 20
-108.7
 11
200.965
 21
-108.946
  0
LINE
  8
0
 10
200.965
 20
-108.946
 11
200.91
 21
-109.186
  0
LINE
  8
0
 10
200.91
 20
-109.186
 11
200.82
 21
-109.416
  0
LINE
  8
0
 10
200.82
 20
-109.416
 11
200.697
 21
-109.629
  0
LINE
  8
0
 10
200.697
 20
-109.629
 11
200.543
 21
-109.822
  0
LINE
  8
0
 10
200.543
 20
-109.822
 11
200.362
 21
-109.99
  0
LINE
  8
0
 10
200.362
 20
-109.99
 11
200.158
 21
-110.129
  0
LINE
  8
0
 10
200.158
 20
-110.129
 11
199.936
 21
-110.236
  0
LINE
  8
0
 10
199.936
 20
-110.236
 11
199.701
 21
-110.309
  0
LINE
  8
0
 10
199.701
 20
-110.309
 11
199.457
 21
-110.345
  0
LINE
  8
0
 10
199.457
 20
-110.345
 11
159.21
 21
-110.345
  0
LINE
  8
0
 10
-199.457
 20
-110.345
 11
-199.701
 21
-110.309
  0
LINE
  8
0
 10
-199.701
 20
-110.309
 11
-199.936
 21
-110.236
  0
LINE
  8
0
 10
-199.936
 20
-110.236
 11
-200.158
 21
-110.129
  0
LINE
  8
0
 10
-200.158
 20
-110.129
 11
-200.362
 21
-109.99
  0
LINE
  8
0
 10
-200.362
 20
-109.99
 11
-200.543
 21
-109.822
  0
LINE
  8
0
 10
-200.543
 20
-109.822
 11
-200.697
 21
-109.629
  0
LINE
  8
0
 10
-200.697
 20
-109.629
 11
-200.82
 21
-109.416
  0
LINE
  8
0
 10
-200.82
 20
-109.416
 11
-200.91
 21
-109.186
  0
LINE
  8
0
 10
-200.91
 20
-109.186
 11
-200.965
 21
-108.946
  0
LINE
  8
0
 10
-200.965
 20
-108.946
 11
-200.983
 21
-108.7
  0
LINE
  8
0
 10
-200.983
 20
-108.7
 11
-200.965
 21
-108.454
  0
LINE
  8
0
 10
-200.965
 20
-108.454
 11
-200.91
 21
-108.214
  0
LINE
  8
0
 10
-200.91
 20
-108.214
 11
-200.82
 21
-107.984
  0
LINE
  8
0
 10
-200.82
 20
-107.984
 11
-200.697
 21
-107.771
  0
LINE
  8
0
 10
-200.697
 20
-107.771
 11
-200.543
 21
-107.578
  0
LINE
  8
0
 10
-200.543
 20
-107.578
 11
-200.362
 21
-107.41
  0
LINE
  8
0
 10
-200.362
 20
-107.41
 11
-200.158
 21
-107.271
  0
LINE
  8
0
 10
-200.158
 20
-107.271
 11
-199.936
 21
-107.164
  0
LINE
  8
0
 10
-199.936
 20
-107.164
 11
-199.701
 21
-107.091
  0
LINE
  8
0
 10
-199.701
 20
-107.091
 11
-199.457
 21
-107.055
  0
LINE
  8
0
 10
-199.457
 20
-107.055
 11
-159.21
 21
-107.055
  0
LINE
  8
0
 10
-159.21
 20
-107.055
 11
-158.966
 21
-107.091
  0
LINE
  8
0
 10
-158.966
 20
-107.091
 11
-158.731
 21
-107.164
  0
LINE
  8
0
 10
-158.731
 20
-107.164
 11
-158.508
 21
-107.271
  0
LINE
  8
0
 10
-158.508
 20
-107.271
 11
-158.305
 21
-107.41
  0
LINE
  8
0
 10
-158.305
 20
-107.41
 11
-158.124
 21
-107.578
  0
LINE
  8
0
 10
-158.124
 20
-107.578
 11
-157.97
 21
-107.771
  0
LINE
  8
0
 10
-157.97
 20
-107.771
 11
-157.847
 21
-107.984
  0
LINE
  8
0
 10
-157.847
 20
-107.984
 11
-157.757
 21
-108.214
  0
LINE
  8
0
 10
-157.757
 20
-108.214
 11
-157.702
 21
-108.454
  0
LINE
  8
0
 10
-157.702
 20
-108.454
 11
-157.683
 21
-108.7
  0
LINE
  8
0
 10
-157.683
 20
-108.7
 11
-157.702
 21
-108.946
  0
LINE
  8
0
 10
-157.702
 20
-108.946
 11
-157.757
 21
-109.186
  0
LINE
  8
0
 10
-157.757
 20
-109.186
 11
-157.847
 21
-109.416
  0
LINE
  8
0
 10
-157.847
 20
-109.416
 11
-157.97
 21
-109.629
  0
LINE
  8
0
 10
-157.97
 20
-109.629
 11
-158.124
 21
-109.822
  0
LINE
  8
0
 10
-158.124
 20
-109.822
 11
-158.305
 21
-109.99
  0
LINE
  8
0
 10
-158.305
 20
-109.99
 11
-158.508
 21
-110.129
  0
LINE
  8
0
 10
-158.508
 20
-110.129
 11
-158.731
 21
-110.236
  0
LINE
  8
0
 10
-158.731
 20
-110.236
 11
-158.966
 21
-110.309
  0
LINE
  8
0
 10
-158.966
 20
-110.309
 11
-159.21
 21
-110.345
  0
LINE
  8
0
 10
-159.21
 20
-110.345
 11
-199.457
 21
-110.345
  0
LINE
  8
0
 10
248.877
 20
-110.345
 11
248.633
 21
-110.309
  0
LINE
  8
0
 10
248.633
 20
-110.309
 11
248.397
 21
-110.236
  0
LINE
  8
0
 10
248.397
 20
-110.236
 11
248.175
 21
-110.129
  0
LINE
  8
0
 10
248.175
 20
-110.129
 11
247.971
 21
-109.99
  0
LINE
  8
0
 10
247.971
 20
-109.99
 11
247.79
 21
-109.822
  0
LINE
  8
0
 10
247.79
 20
-109.822
 11
247.637
 21
-109.629
  0
LINE
  8
0
 10
247.637
 20
-109.629
 11
247.513
 21
-109.416
  0
LINE
  8
0
 10
247.513
 20
-109.416
 11
247.423
 21
-109.186
  0
LINE
  8
0
 10
247.423
 20
-109.186
 11
247.368
 21
-108.946
  0
LINE
  8
0
 10
247.368
 20
-108.946
 11
247.35
 21
-108.7
  0
LINE
  8
0
 10
247.35
 20
-108.7
 11
247.368
 21
-108.454
  0
LINE
  8
0
 10
247.368
 20
-108.454
 11
247.423
 21
-108.214
  0
LINE
  8
0
 10
247.423
 20
-108.214
 11
247.513
 21
-107.984
  0
LINE
  8
0
 10
247.513
 20
-107.984
 11
247.637
 21
-107.771
  0
LINE
  8
0
 10
247.637
 20
-107.771
 11
247.79
 21
-107.578
  0
LINE
  8
0
 10
247.79
 20
-107.578
 11
247.971
 21
-107.41
  0
LINE
  8
0
 10
247.971
 20
-107.41
 11
248.175
 21
-107.271
  0
LINE
  8
0
 10
248.175
 20
-107.271
 11
248.397
 21
-107.164
  0
LINE
  8
0
 10
248.397
 20
-107.164
 11
248.633
 21
-107.091
  0
LINE
  8
0
 10
248.633
 20
-107.091
 11
248.877
 21
-107.055
  0
LINE
  8
0
 10
248.877
 20
-107.055
 11
289.123
 21
-107.055
  0
LINE
  8
0
 10
289.123
 20
-107.055
 11
289.367
 21
-107.091
  0
LINE
  8
0
 10
289.367
 20
-107.091
 11
289.603
 21
-107.164
  0
LINE
  8
0
 10
289.603
 20
-107.164
 11
289.825
 21
-107.271
  0
LINE
  8
0
 10
289.825
 20
-107.271
 11
290.029
 21
-107.41
  0
LINE
  8
0
 10
290.029
 20
-107.41
 11
290.21
 21
-107.578
  0
LINE
  8
0
 10
290.21
 20
-107.578
 11
290.363
 21
-107.771
  0
LINE
  8
0
 10
290.363
 20
-107.771
 11
290.487
 21
-107.984
  0
LINE
  8
0
 10
290.487
 20
-107.984
 11
290.577
 21
-108.214
  0
LINE
  8
0
 10
290.577
 20
-108.214
 11
290.632
 21
-108.454
  0
LINE
  8
0
 10
290.632
 20
-108.454
 11
290.65
 21
-108.7
  0
LINE
  8
0
 10
290.65
 20
-108.7
 11
290.632
 21
-108.946
  0
LINE
  8
0
 10
290.632
 20
-108.946
 11
290.577
 21
-109.186
  0
LINE
  8
0
 10
290.577
 20
-109.186
 11
290.487
 21
-109.416
  0
LINE
  8
0
 10
290.487
 20
-109.416
 11
290.363
 21
-109.629
  0
LINE
  8
0
 10
290.363
 20
-109.629
 11
290.21
 21
-109.822
  0
LINE
  8
0
 10
290.21
 20
-109.822
 11
290.029
 21
-109.99
  0
LINE
  8
0
 10
290.029
 20
-109.99
 11
289.825
 21
-110.129
  0
LINE
  8
0
 10
289.825
 20
-110.129
 11
289.603
 21
-110.236
  0
LINE
  8
0
 10
289.603
 20
-110.236
 11
289.367
 21
-110.309
  0
LINE
  8
0
 10
289.367
 20
-110.309
 11
289.123
 21
-110.345
  0
LINE
  8
0
 10
289.123
 20
-110.345
 11
248.877
 21
-110.345
  0
LINE
  8
0
 10
-157.757
 20
108.214
 11
-157.847
 21
107.984
  0
LINE
  8
0
 10
-157.847
 20
107.984
 11
-157.97
 21
107.771
  0
LINE
  8
0
 10
-157.97
 20
107.771
 11
-158.124
 21
107.578
  0
LINE
  8
0
 10
-158.124
 20
107.578
 11
-158.305
 21
107.41
  0
LINE
  8
0
 10
-158.305
 20
107.41
 11
-158.508
 21
107.271
  0
LINE
  8
0
 10
-158.508
 20
107.271
 11
-158.731
 21
107.164
  0
LINE
  8
0
 10
-158.731
 20
107.164
 11
-158.966
 21
107.091
  0
LINE
  8
0
 10
-158.966
 20
107.091
 11
-159.21
 21
107.055
  0
LINE
  8
0
 10
-159.21
 20
107.055
 11
-199.457
 21
107.055
  0
LINE
  8
0
 10
-199.457
 20
107.055
 11
-199.701
 21
107.091
  0
LINE
  8
0
 10
-199.701
 20
107.091
 11
-199.936
 21
107.164
  0
LINE
  8
0
 10
-199.936
 20
107.164
 11
-200.158
 21
107.271
  0
LINE
  8
0
 10
-200.158
 20
107.271
 11
-200.362
 21
107.41
  0
LINE
  8
0
 10
-200.362
 20
107.41
 11
-200.543
 21
107.578
  0
LINE
  8
0
 10
-200.543
 20
107.578
 11
-200.697
 21
107.771
  0
LINE
  8
0
 10
-200.697
 20
107.771
 11
-200.82
 21
107.984
  0
LINE
  8
0
 10
-200.82
 20
107.984
 11
-200.91
 21
108.214
  0
LINE
  8
0
 10
-200.91
 20
108.214
 11
-200.965
 21
108.454
  0
LINE
  8
0
 10
-200.965
 20
108.454
 11
-200.983
 21
108.7
  0
LINE
  8
0
 10
-200.983
 20
108.7
 11
-200.965
 21
108.946
  0
LINE
  8
0
 10
-200.965
 20
108.946
 11
-200.91
 21
109.186
  0
LINE
  8
0
 10
-200.91
 20
109.186
 11
-200.82
 21
109.416
  0
LINE
  8
0
 10
-200.82
 20
109.416
 11
-200.697
 21
109.629
  0
LINE
  8
0
 10
-200.697
 20
109.629
 11
-200.543
 21
109.822
  0
LINE
  8
0
 10
-200.543
 20
109.822
 11
-200.362
 21
109.99
  0
LINE
  8
0
 10
-200.362
 20
109.99
 11
-200.158
 21
110.129
  0
LINE
  8
0
 10
-200.158
 20
110.129
 11
-199.936
 21
110.236
  0
LINE
  8
0
 10
-199.936
 20
110.236
 11
-199.701
 21
110.309
  0
LINE
  8
0
 10
-199.701
 20
110.309
 11
-199.457
 21
110.345
  0
LINE
  8
0
 10
-199.457
 20
110.345
 11
-159.21
 21
110.345
  0
LINE
  8
0
 10
-159.21
 20
110.345
 11
-158.966
 21
110.309
  0
LINE
  8
0
 10
-158.966
 20
110.309
 11
-158.731
 21
110.236
  0
LINE
  8
0
 10
-158.731
 20
110.236
 11
-158.508
 21
110.129
  0
LINE
  8
0
 10
-158.508
 20
110.129
 11
-158.305
 21
109.99
  0
LINE
  8
0
 10
-158.305
 20
109.99
 11
-158.124
 21
109.822
  0
LINE
  8
0
 10
-158.124
 20
109.822
 11
-157.97
 21
109.629
  0
LINE
  8
0
 10
-157.97
 20
109.629
 11
-157.847
 21
109.416
  0
LINE
  8
0
 10
-157.847
 20
109.416
 11
-157.757
 21
109.186
  0
LINE
  8
0
 10
-157.757
 20
109.186
 11
-157.702
 21
108.946
  0
LINE
  8
0
 10
-157.702
 20
108.946
 11
-157.683
 21
108.7
  0
LINE
  8
0
 10
-157.683
 20
108.7
 11
-157.702
 21
108.454
  0
LINE
  8
0
 10
-157.702
 20
108.454
 11
-157.757
 21
108.214
  0
LINE
  8
0
 10
21.5767
 20
108.214
 11
21.4866
 21
107.984
  0
LINE
  8
0
 10
21.4866
 20
107.984
 11
21.3633
 21
107.771
  0
LINE
  8
0
 10
21.3633
 20
107.771
 11
21.2095
 21
107.578
  0
LINE
  8
0
 10
21.2095
 20
107.578
 11
21.0287
 21
107.41
  0
LINE
  8
0
 10
21.0287
 20
107.41
 11
20.825
 21
107.271
  0
LINE
  8
0
 10
20.825
 20
107.271
 11
20.6028
 21
107.164
  0
LINE
  8
0
 10
20.6028
 20
107.164
 11
20.3672
 21
107.091
  0
LINE
  8
0
 10
20.3672
 20
107.091
 11
20.1233
 21
107.055
  0
LINE
  8
0
 10
20.1233
 20
107.055
 11
-20.1233
 21
107.055
  0
LINE
  8
0
 10
-20.1233
 20
107.055
 11
-20.3672
 21
107.091
  0
LINE
  8
0
 10
-20.3672
 20
107.091
 11
-20.6028
 21
107.164
  0
LINE
  8
0
 10
-20.6028
 20
107.164
 11
-20.825
 21
107.271
  0
LINE
  8
0
 10
-20.825
 20
107.271
 11
-21.0287
 21
107.41
  0
LINE
  8
0
 10
-21.0287
 20
107.41
 11
-21.2095
 21
107.578
  0
LINE
  8
0
 10
-21.2095
 20
107.578
 11
-21.3633
 21
107.771
  0
LINE
  8
0
 10
-21.3633
 20
107.771
 11
-21.4866
 21
107.984
  0
LINE
  8
0
 10
-21.4866
 20
107.984
 11
-21.5767
 21
108.214
  0
LINE
  8
0
 10
-21.5767
 20
108.214
 11
-21.6316
 21
108.454
  0
LINE
  8
0
 10
-21.6316
 20
108.454
 11
-21.65
 21
108.7
  0
LINE
  8
0
 10
-21.65
 20
108.7
 11
-21.6316
 21
108.946
  0
LINE
  8
0
 10
-21.6316
 20
108.946
 11
-21.5767
 21
109.186
  0
LINE
  8
0
 10
-21.5767
 20
109.186
 11
-21.4866
 21
109.416
  0
LINE
  8
0
 10
-21.4866
 20
109.416
 11
-21.3633
 21
109.629
  0
LINE
  8
0
 10
-21.3633
 20
109.629
 11
-21.2095
 21
109.822
  0
LINE
  8
0
 10
-21.2095
 20
109.822
 11
-21.0287
 21
109.99
  0
LINE
  8
0
 10
-21.0287
 20
109.99
 11
-20.825
 21
110.129
  0
LINE
  8
0
 10
-20.825
 20
110.129
 11
-20.6028
 21
110.236
  0
LINE
  8
0
 10
-20.6028
 20
110.236
 11
-20.3672
 21
110.309
  0
LINE
  8
0
 10
-20.3672
 20
110.309
 11
-20.1233
 21
110.345
  0
LINE
  8
0
 10
-20.1233
 20
110.345
 11
20.1233
 21
110.345
  0
LINE
  8
0
 10
20.1233
 20
110.345
 11
20.3672
 21
110.309
  0
LINE
  8
0
 10
20.3672
 20
110.309
 11
20.6028
 21
110.236
  0
LINE
  8
0
 10
20.6028
 20
110.236
 11
20.825
 21
110.129
  0
LINE
  8
0
 10
20.825
 20
110.129
 11
21.0287
 21
109.99
  0
LINE
  8
0
 10
21.0287
 20
109.99
 11
21.2095
 21
109.822
  0
LINE
  8
0
 10
21.2095
 20
109.822
 11
21.3633
 21
109.629
  0
LINE
  8
0
 10
21.3633
 20
109.629
 11
21.4866
 21
109.416
  0
LINE
  8
0
 10
21.4866
 20
109.416
 11
21.5767
 21
109.186
  0
LINE
  8
0
 10
21.5767
 20
109.186
 11
21.6316
 21
108.946
  0
LINE
  8
0
 10
21.6316
 20
108.946
 11
21.65
 21
108.7
  0
LINE
  8
0
 10
21.65
 20
108.7
 11
21.6316
 21
108.454
  0
LINE
  8
0
 10
21.6316
 20
108.454
 11
21.5767
 21
108.214
  0
LINE
  8
0
 10
68.09
 20
109.186
 11
68.1801
 21
109.416
  0
LINE
  8
0
 10
68.1801
 20
109.416
 11
68.3034
 21
109.629
  0
LINE
  8
0
 10
68.3034
 20
109.629
 11
68.4571
 21
109.822
  0
LINE
  8
0
 10
68.4571
 20
109.822
 11
68.6379
 21
109.99
  0
LINE
  8
0
 10
68.6379
 20
109.99
 11
68.8417
 21
110.129
  0
LINE
  8
0
 10
68.8417
 20
110.129
 11
69.0638
 21
110.236
  0
LINE
  8
0
 10
69.0638
 20
110.236
 11
69.2995
 21
110.309
  0
LINE
  8
0
 10
69.2995
 20
110.309
 11
69.5434
 21
110.345
  0
LINE
  8
0
 10
69.5434
 20
110.345
 11
109.79
 21
110.345
  0
LINE
  8
0
 10
109.79
 20
110.345
 11
110.034
 21
110.309
  0
LINE
  8
0
 10
110.034
 20
110.309
 11
110.269
 21
110.236
  0
LINE
  8
0
 10
110.269
 20
110.236
 11
110.492
 21
110.129
  0
LINE
  8
0
 10
110.492
 20
110.129
 11
110.695
 21
109.99
  0
LINE
  8
0
 10
110.695
 20
109.99
 11
110.876
 21
109.822
  0
LINE
  8
0
 10
110.876
 20
109.822
 11
111.03
 21
109.629
  0
LINE
  8
0
 10
111.03
 20
109.629
 11
111.153
 21
109.416
  0
LINE
  8
0
 10
111.153
 20
109.416
 11
111.243
 21
109.186
  0
LINE
  8
0
 10
111.243
 20
109.186
 11
111.298
 21
108.946
  0
LINE
  8
0
 10
111.298
 20
108.946
 11
111.317
 21
108.7
  0
LINE
  8
0
 10
111.317
 20
108.7
 11
111.298
 21
108.454
  0
LINE
  8
0
 10
111.298
 20
108.454
 11
111.243
 21
108.214
  0
LINE
  8
0
 10
111.243
 20
108.214
 11
111.153
 21
107.984
  0
LINE
  8
0
 10
111.153
 20
107.984
 11
111.03
 21
107.771
  0
LINE
  8
0
 10
111.03
 20
107.771
 11
110.876
 21
107.578
  0
LINE
  8
0
 10
110.876
 20
107.578
 11
110.695
 21
107.41
  0
LINE
  8
0
 10
110.695
 20
107.41
 11
110.492
 21
107.271
  0
LINE
  8
0
 10
110.492
 20
107.271
 11
110.269
 21
107.164
  0
LINE
  8
0
 10
110.269
 20
107.164
 11
110.034
 21
107.091
  0
LINE
  8
0
 10
110.034
 20
107.091
 11
109.79
 21
107.055
  0
LINE
  8
0
 10
109.79
 20
107.055
 11
69.5434
 21
107.055
  0
LINE
  8
0
 10
69.5434
 20
107.055
 11
69.2995
 21
107.091
  0
LINE
  8
0
 10
69.2995
 20
107.091
 11
69.0638
 21
107.164
  0
LINE
  8
0
 10
69.0638
 20
107.164
 11
68.8417
 21
107.271
  0
LINE
  8
0
 10
68.8417
 20
107.271
 11
68.6379
 21
107.41
  0
LINE
  8
0
 10
68.6379
 20
107.41
 11
68.4571
 21
107.578
  0
LINE
  8
0
 10
68.4571
 20
107.578
 11
68.3034
 21
107.771
  0
LINE
  8
0
 10
68.3034
 20
107.771
 11
68.1801
 21
107.984
  0
LINE
  8
0
 10
68.1801
 20
107.984
 11
68.09
 21
108.214
  0
LINE
  8
0
 10
68.09
 20
108.214
 11
68.0351
 21
108.454
  0
LINE
  8
0
 10
68.0351
 20
108.454
 11
68.0167
 21
108.7
  0
LINE
  8
0
 10
68.0167
 20
108.7
 11
68.0351
 21
108.946
  0
LINE
  8
0
 10
68.0351
 20
108.946
 11
68.09
 21
109.186
  0
ENDSEC
  0
SECTION
  2
OBJECTS
  0
DICTIONARY
  0
ENDSEC
  0
EOF
