  0
SECTION
  2
BLOCKS
  0
ENDSEC
  0
SECTION
  2
ENTITIES
  0
LINE
  8
0
 10
314.398
 20
-116.048
 11
314.915
 21
-115.966
  0
LINE
  8
0
 10
314.915
 20
-115.966
 11
315.42
 21
-115.83
  0
LINE
  8
0
 10
315.42
 20
-115.83
 11
315.909
 21
-115.643
  0
LINE
  8
0
 10
315.909
 20
-115.643
 11
316.375
 21
-115.405
  0
LINE
  8
0
 10
316.375
 20
-115.405
 11
316.814
 21
-115.12
  0
LINE
  8
0
 10
316.814
 20
-115.12
 11
317.221
 21
-114.791
  0
LINE
  8
0
 10
317.221
 20
-114.791
 11
317.591
 21
-114.421
  0
LINE
  8
0
 10
317.591
 20
-114.421
 11
317.92
 21
-114.014
  0
LINE
  8
0
 10
317.92
 20
-114.014
 11
318.205
 21
-113.575
  0
LINE
  8
0
 10
318.205
 20
-113.575
 11
318.443
 21
-113.109
  0
LINE
  8
0
 10
318.443
 20
-113.109
 11
318.63
 21
-112.62
  0
LINE
  8
0
 10
318.63
 20
-112.62
 11
318.766
 21
-112.115
  0
LINE
  8
0
 10
318.766
 20
-112.115
 11
318.848
 21
-111.598
  0
LINE
  8
0
 10
318.848
 20
-111.598
 11
318.875
 21
-111.075
  0
LINE
  8
0
 10
318.875
 20
-111.075
 11
318.875
 21
111.075
  0
LINE
  8
0
 10
318.875
 20
111.075
 11
318.848
 21
111.598
  0
LINE
  8
0
 10
318.848
 20
111.598
 11
318.766
 21
112.115
  0
LINE
  8
0
 10
318.766
 20
112.115
 11
318.63
 21
112.62
  0
LINE
  8
0
 10
318.63
 20
112.62
 11
318.443
 21
113.109
  0
LINE
  8
0
 10
318.443
 20
113.109
 11
318.205
 21
113.575
  0
LINE
  8
0
 10
318.205
 20
113.575
 11
317.92
 21
114.014
  0
LINE
  8
0
 10
317.92
 20
114.014
 11
317.591
 21
114.421
  0
LINE
  8
0
 10
317.591
 20
114.421
 11
317.221
 21
114.791
  0
LINE
  8
0
 10
317.221
 20
114.791
 11
316.814
 21
115.12
  0
LINE
  8
0
 10
316.814
 20
115.12
 11
316.375
 21
115.405
  0
LINE
  8
0
 10
316.375
 20
115.405
 11
315.909
 21
115.643
  0
LINE
  8
0
 10
315.909
 20
115.643
 11
315.42
 21
115.83
  0
LINE
  8
0
 10
315.42
 20
115.83
 11
314.915
 21
115.966
  0
LINE
  8
0
 10
314.915
 20
115.966
 11
314.398
 21
116.048
  0
LINE
  8
0
 10
314.398
 20
116.048
 11
313.875
 21
116.075
  0
LINE
  8
0
 10
313.875
 20
116.075
 11
-313.875
 21
116.075
  0
LINE
  8
0
 10
-313.875
 20
116.075
 11
-314.398
 21
116.048
  0
LINE
  8
0
 10
-314.398
 20
116.048
 11
-314.915
 21
115.966
  0
LINE
  8
0
 10
-314.915
 20
115.966
 11
-315.42
 21
115.83
  0
LINE
  8
0
 10
-315.42
 20
115.83
 11
-315.909
 21
115.643
  0
LINE
  8
0
 10
-315.909
 20
115.643
 11
-316.375
 21
115.405
  0
LINE
  8
0
 10
-316.375
 20
115.405
 11
-316.814
 21
115.12
  0
LINE
  8
0
 10
-316.814
 20
115.12
 11
-317.221
 21
114.791
  0
LINE
  8
0
 10
-317.221
 20
114.791
 11
-317.591
 21
114.421
  0
LINE
  8
0
 10
-317.591
 20
114.421
 11
-317.92
 21
114.014
  0
LINE
  8
0
 10
-317.92
 20
114.014
 11
-318.205
 21
113.575
  0
LINE
  8
0
 10
-318.205
 20
113.575
 11
-318.443
 21
113.109
  0
LINE
  8
0
 10
-318.443
 20
113.109
 11
-318.63
 21
112.62
  0
LINE
  8
0
 10
-318.63
 20
112.62
 11
-318.766
 21
112.115
  0
LINE
  8
0
 10
-318.766
 20
112.115
 11
-318.848
 21
111.598
  0
LINE
  8
0
 10
-318.848
 20
111.598
 11
-318.875
 21
111.075
  0
LINE
  8
0
 10
-318.875
 20
111.075
 11
-318.875
 21
-111.075
  0
LINE
  8
0
 10
-318.875
 20
-111.075
 11
-318.848
 21
-111.598
  0
LINE
  8
0
 10
-318.848
 20
-111.598
 11
-318.766
 21
-112.115
  0
LINE
  8
0
 10
-318.766
 20
-112.115
 11
-318.63
 21
-112.62
  0
LINE
  8
0
 10
-318.63
 20
-112.62
 11
-318.443
 21
-113.109
  0
LINE
  8
0
 10
-318.443
 20
-113.109
 11
-318.205
 21
-113.575
  0
LINE
  8
0
 10
-318.205
 20
-113.575
 11
-317.92
 21
-114.014
  0
LINE
  8
0
 10
-317.92
 20
-114.014
 11
-317.591
 21
-114.421
  0
LINE
  8
0
 10
-317.591
 20
-114.421
 11
-317.221
 21
-114.791
  0
LINE
  8
0
 10
-317.221
 20
-114.791
 11
-316.814
 21
-115.12
  0
LINE
  8
0
 10
-316.814
 20
-115.12
 11
-316.375
 21
-115.405
  0
LINE
  8
0
 10
-316.375
 20
-115.405
 11
-315.909
 21
-115.643
  0
LINE
  8
0
 10
-315.909
 20
-115.643
 11
-315.42
 21
-115.83
  0
LINE
  8
0
 10
-315.42
 20
-115.83
 11
-314.915
 21
-115.966
  0
LINE
  8
0
 10
-314.915
 20
-115.966
 11
-314.398
 21
-116.048
  0
LINE
  8
0
 10
-314.398
 20
-116.048
 11
-313.875
 21
-116.075
  0
LINE
  8
0
 10
-313.875
 20
-116.075
 11
313.875
 21
-116.075
  0
LINE
  8
0
 10
313.875
 20
-116.075
 11
314.398
 21
-116.048
  0
LINE
  8
0
 10
-311.892
 20
104.971
 11
-312.28
 21
105.032
  0
LINE
  8
0
 10
-312.28
 20
105.032
 11
-312.659
 21
105.134
  0
LINE
  8
0
 10
-312.659
 20
105.134
 11
-313.025
 21
105.274
  0
LINE
  8
0
 10
-313.025
 20
105.274
 11
-313.375
 21
105.452
  0
LINE
  8
0
 10
-313.375
 20
105.452
 11
-313.704
 21
105.666
  0
LINE
  8
0
 10
-313.704
 20
105.666
 11
-314.009
 21
105.913
  0
LINE
  8
0
 10
-314.009
 20
105.913
 11
-314.287
 21
106.191
  0
LINE
  8
0
 10
-314.287
 20
106.191
 11
-314.534
 21
106.496
  0
LINE
  8
0
 10
-314.534
 20
106.496
 11
-314.748
 21
106.825
  0
LINE
  8
0
 10
-314.748
 20
106.825
 11
-314.926
 21
107.175
  0
LINE
  8
0
 10
-314.926
 20
107.175
 11
-315.066
 21
107.541
  0
LINE
  8
0
 10
-315.066
 20
107.541
 11
-315.168
 21
107.92
  0
LINE
  8
0
 10
-315.168
 20
107.92
 11
-315.229
 21
108.308
  0
LINE
  8
0
 10
-315.229
 20
108.308
 11
-315.25
 21
108.7
  0
LINE
  8
0
 10
-315.25
 20
108.7
 11
-315.229
 21
109.092
  0
LINE
  8
0
 10
-315.229
 20
109.092
 11
-315.168
 21
109.48
  0
LINE
  8
0
 10
-315.168
 20
109.48
 11
-315.066
 21
109.859
  0
LINE
  8
0
 10
-315.066
 20
109.859
 11
-314.926
 21
110.225
  0
LINE
  8
0
 10
-314.926
 20
110.225
 11
-314.748
 21
110.575
  0
LINE
  8
0
 10
-314.748
 20
110.575
 11
-314.534
 21
110.904
  0
LINE
  8
0
 10
-314.534
 20
110.904
 11
-314.287
 21
111.209
  0
LINE
  8
0
 10
-314.287
 20
111.209
 11
-314.009
 21
111.487
  0
LINE
  8
0
 10
-314.009
 20
111.487
 11
-313.704
 21
111.734
  0
LINE
  8
0
 10
-313.704
 20
111.734
 11
-313.375
 21
111.948
  0
LINE
  8
0
 10
-313.375
 20
111.948
 11
-313.025
 21
112.126
  0
LINE
  8
0
 10
-313.025
 20
112.126
 11
-312.659
 21
112.266
  0
LINE
  8
0
 10
-312.659
 20
112.266
 11
-312.28
 21
112.368
  0
LINE
  8
0
 10
-312.28
 20
112.368
 11
-311.892
 21
112.429
  0
LINE
  8
0
 10
-311.892
 20
112.429
 11
-311.5
 21
112.45
  0
LINE
  8
0
 10
-311.5
 20
112.45
 11
-311.108
 21
112.429
  0
LINE
  8
0
 10
-311.108
 20
112.429
 11
-310.72
 21
112.368
  0
LINE
  8
0
 10
-310.72
 20
112.368
 11
-310.341
 21
112.266
  0
LINE
  8
0
 10
-310.341
 20
112.266
 11
-309.975
 21
112.126
  0
LINE
  8
0
 10
-309.975
 20
112.126
 11
-309.625
 21
111.948
  0
LINE
  8
0
 10
-309.625
 20
111.948
 11
-309.296
 21
111.734
  0
LINE
  8
0
 10
-309.296
 20
111.734
 11
-308.991
 21
111.487
  0
LINE
  8
0
 10
-308.991
 20
111.487
 11
-308.713
 21
111.209
  0
LINE
  8
0
 10
-308.713
 20
111.209
 11
-308.466
 21
110.904
  0
LINE
  8
0
 10
-308.466
 20
110.904
 11
-308.252
 21
110.575
  0
LINE
  8
0
 10
-308.252
 20
110.575
 11
-308.074
 21
110.225
  0
LINE
  8
0
 10
-308.074
 20
110.225
 11
-307.934
 21
109.859
  0
LINE
  8
0
 10
-307.934
 20
109.859
 11
-307.832
 21
109.48
  0
LINE
  8
0
 10
-307.832
 20
109.48
 11
-307.771
 21
109.092
  0
LINE
  8
0
 10
-307.771
 20
109.092
 11
-307.75
 21
108.7
  0
LINE
  8
0
 10
-307.75
 20
108.7
 11
-307.771
 21
108.308
  0
LINE
  8
0
 10
-307.771
 20
108.308
 11
-307.832
 21
107.92
  0
LINE
  8
0
 10
-307.832
 20
107.92
 11
-307.934
 21
107.541
  0
LINE
  8
0
 10
-307.934
 20
107.541
 11
-308.074
 21
107.175
  0
LINE
  8
0
 10
-308.074
 20
107.175
 11
-308.252
 21
106.825
  0
LINE
  8
0
 10
-308.252
 20
106.825
 11
-308.466
 21
106.496
  0
LINE
  8
0
 10
-308.466
 20
106.496
 11
-308.713
 21
106.191
  0
LINE
  8
0
 10
-308.713
 20
106.191
 11
-308.991
 21
105.913
  0
LINE
  8
0
 10
-308.991
 20
105.913
 11
-309.296
 21
105.666
  0
LINE
  8
0
 10
-309.296
 20
105.666
 11
-309.625
 21
105.452
  0
LINE
  8
0
 10
-309.625
 20
105.452
 11
-309.975
 21
105.274
  0
LINE
  8
0
 10
-309.975
 20
105.274
 11
-310.341
 21
105.134
  0
LINE
  8
0
 10
-310.341
 20
105.134
 11
-310.72
 21
105.032
  0
LINE
  8
0
 10
-310.72
 20
105.032
 11
-311.108
 21
104.971
  0
LINE
  8
0
 10
-311.108
 20
104.971
 11
-311.5
 21
104.95
  0
LINE
  8
0
 10
-311.5
 20
104.95
 11
-311.892
 21
104.971
  0
LINE
  8
0
 10
311.108
 20
104.971
 11
310.72
 21
105.032
  0
LINE
  8
0
 10
310.72
 20
105.032
 11
310.341
 21
105.134
  0
LINE
  8
0
 10
310.341
 20
105.134
 11
309.975
 21
105.274
  0
LINE
  8
0
 10
309.975
 20
105.274
 11
309.625
 21
105.452
  0
LINE
  8
0
 10
309.625
 20
105.452
 11
309.296
 21
105.666
  0
LINE
  8
0
 10
309.296
 20
105.666
 11
308.991
 21
105.913
  0
LINE
  8
0
 10
308.991
 20
105.913
 11
308.713
 21
106.191
  0
LINE
  8
0
 10
308.713
 20
106.191
 11
308.466
 21
106.496
  0
LINE
  8
0
 10
308.466
 20
106.496
 11
308.252
 21
106.825
  0
LINE
  8
0
 10
308.252
 20
106.825
 11
308.074
 21
107.175
  0
LINE
  8
0
 10
308.074
 20
107.175
 11
307.934
 21
107.541
  0
LINE
  8
0
 10
307.934
 20
107.541
 11
307.832
 21
107.92
  0
LINE
  8
0
 10
307.832
 20
107.92
 11
307.771
 21
108.308
  0
LINE
  8
0
 10
307.771
 20
108.308
 11
307.75
 21
108.7
  0
LINE
  8
0
 10
307.75
 20
108.7
 11
307.771
 21
109.092
  0
LINE
  8
0
 10
307.771
 20
109.092
 11
307.832
 21
109.48
  0
LINE
  8
0
 10
307.832
 20
109.48
 11
307.934
 21
109.859
  0
LINE
  8
0
 10
307.934
 20
109.859
 11
308.074
 21
110.225
  0
LINE
  8
0
 10
308.074
 20
110.225
 11
308.252
 21
110.575
  0
LINE
  8
0
 10
308.252
 20
110.575
 11
308.466
 21
110.904
  0
LINE
  8
0
 10
308.466
 20
110.904
 11
308.713
 21
111.209
  0
LINE
  8
0
 10
308.713
 20
111.209
 11
308.991
 21
111.487
  0
LINE
  8
0
 10
308.991
 20
111.487
 11
309.296
 21
111.734
  0
LINE
  8
0
 10
309.296
 20
111.734
 11
309.625
 21
111.948
  0
LINE
  8
0
 10
309.625
 20
111.948
 11
309.975
 21
112.126
  0
LINE
  8
0
 10
309.975
 20
112.126
 11
310.341
 21
112.266
  0
LINE
  8
0
 10
310.341
 20
112.266
 11
310.72
 21
112.368
  0
LINE
  8
0
 10
310.72
 20
112.368
 11
311.108
 21
112.429
  0
LINE
  8
0
 10
311.108
 20
112.429
 11
311.5
 21
112.45
  0
LINE
  8
0
 10
311.5
 20
112.45
 11
311.892
 21
112.429
  0
LINE
  8
0
 10
311.892
 20
112.429
 11
312.28
 21
112.368
  0
LINE
  8
0
 10
312.28
 20
112.368
 11
312.659
 21
112.266
  0
LINE
  8
0
 10
312.659
 20
112.266
 11
313.025
 21
112.126
  0
LINE
  8
0
 10
313.025
 20
112.126
 11
313.375
 21
111.948
  0
LINE
  8
0
 10
313.375
 20
111.948
 11
313.704
 21
111.734
  0
LINE
  8
0
 10
313.704
 20
111.734
 11
314.009
 21
111.487
  0
LINE
  8
0
 10
314.009
 20
111.487
 11
314.287
 21
111.209
  0
LINE
  8
0
 10
314.287
 20
111.209
 11
314.534
 21
110.904
  0
LINE
  8
0
 10
314.534
 20
110.904
 11
314.748
 21
110.575
  0
LINE
  8
0
 10
314.748
 20
110.575
 11
314.926
 21
110.225
  0
LINE
  8
0
 10
314.926
 20
110.225
 11
315.066
 21
109.859
  0
LINE
  8
0
 10
315.066
 20
109.859
 11
315.168
 21
109.48
  0
LINE
  8
0
 10
315.168
 20
109.48
 11
315.229
 21
109.092
  0
LINE
  8
0
 10
315.229
 20
109.092
 11
315.25
 21
108.7
  0
LINE
  8
0
 10
315.25
 20
108.7
 11
315.229
 21
108.308
  0
LINE
  8
0
 10
315.229
 20
108.308
 11
315.168
 21
107.92
  0
LINE
  8
0
 10
315.168
 20
107.92
 11
315.066
 21
107.541
  0
LINE
  8
0
 10
315.066
 20
107.541
 11
314.926
 21
107.175
  0
LINE
  8
0
 10
314.926
 20
107.175
 11
314.748
 21
106.825
  0
LINE
  8
0
 10
314.748
 20
106.825
 11
314.534
 21
106.496
  0
LINE
  8
0
 10
314.534
 20
106.496
 11
314.287
 21
106.191
  0
LINE
  8
0
 10
314.287
 20
106.191
 11
314.009
 21
105.913
  0
LINE
  8
0
 10
314.009
 20
105.913
 11
313.704
 21
105.666
  0
LINE
  8
0
 10
313.704
 20
105.666
 11
313.375
 21
105.452
  0
LINE
  8
0
 10
313.375
 20
105.452
 11
313.025
 21
105.274
  0
LINE
  8
0
 10
313.025
 20
105.274
 11
312.659
 21
105.134
  0
LINE
  8
0
 10
312.659
 20
105.134
 11
312.28
 21
105.032
  0
LINE
  8
0
 10
312.28
 20
105.032
 11
311.892
 21
104.971
  0
LINE
  8
0
 10
311.892
 20
104.971
 11
311.5
 21
104.95
  0
LINE
  8
0
 10
311.5
 20
104.95
 11
311.108
 21
104.971
  0
LINE
  8
0
 10
248.877
 20
107.055
 11
248.633
 21
107.091
  0
LINE
  8
0
 10
248.633
 20
107.091
 11
248.397
 21
107.164
  0
LINE
  8
0
 10
248.397
 20
107.164
 11
248.175
 21
107.271
  0
LINE
  8
0
 10
248.175
 20
107.271
 11
247.971
 21
107.41
  0
LINE
  8
0
 10
247.971
 20
107.41
 11
247.79
 21
107.578
  0
LINE
  8
0
 10
247.79
 20
107.578
 11
247.637
 21
107.771
  0
LINE
  8
0
 10
247.637
 20
107.771
 11
247.513
 21
107.984
  0
LINE
  8
0
 10
247.513
 20
107.984
 11
247.423
 21
108.214
  0
LINE
  8
0
 10
247.423
 20
108.214
 11
247.368
 21
108.454
  0
LINE
  8
0
 10
247.368
 20
108.454
 11
247.35
 21
108.7
  0
LINE
  8
0
 10
247.35
 20
108.7
 11
247.368
 21
108.946
  0
LINE
  8
0
 10
247.368
 20
108.946
 11
247.423
 21
109.186
  0
LINE
  8
0
 10
247.423
 20
109.186
 11
247.513
 21
109.416
  0
LINE
  8
0
 10
247.513
 20
109.416
 11
247.637
 21
109.629
  0
LINE
  8
0
 10
247.637
 20
109.629
 11
247.79
 21
109.822
  0
LINE
  8
0
 10
247.79
 20
109.822
 11
247.971
 21
109.99
  0
LINE
  8
0
 10
247.971
 20
109.99
 11
248.175
 21
110.129
  0
LINE
  8
0
 10
248.175
 20
110.129
 11
248.397
 21
110.236
  0
LINE
  8
0
 10
248.397
 20
110.236
 11
248.633
 21
110.309
  0
LINE
  8
0
 10
248.633
 20
110.309
 11
248.877
 21
110.345
  0
LINE
  8
0
 10
248.877
 20
110.345
 11
289.123
 21
110.345
  0
LINE
  8
0
 10
289.123
 20
110.345
 11
289.367
 21
110.309
  0
LINE
  8
0
 10
289.367
 20
110.309
 11
289.603
 21
110.236
  0
LINE
  8
0
 10
289.603
 20
110.236
 11
289.825
 21
110.129
  0
LINE
  8
0
 10
289.825
 20
110.129
 11
290.029
 21
109.99
  0
LINE
  8
0
 10
290.029
 20
109.99
 11
290.21
 21
109.822
  0
LINE
  8
0
 10
290.21
 20
109.822
 11
290.363
 21
109.629
  0
LINE
  8
0
 10
290.363
 20
109.629
 11
290.487
 21
109.416
  0
LINE
  8
0
 10
290.487
 20
109.416
 11
290.577
 21
109.186
  0
LINE
  8
0
 10
290.577
 20
109.186
 11
290.632
 21
108.946
  0
LINE
  8
0
 10
290.632
 20
108.946
 11
290.65
 21
108.7
  0
LINE
  8
0
 10
290.65
 20
108.7
 11
290.632
 21
108.454
  0
LINE
  8
0
 10
290.632
 20
108.454
 11
290.577
 21
108.214
  0
LINE
  8
0
 10
290.577
 20
108.214
 11
290.487
 21
107.984
  0
LINE
  8
0
 10
290.487
 20
107.984
 11
290.363
 21
107.771
  0
LINE
  8
0
 10
290.363
 20
107.771
 11
290.21
 21
107.578
  0
LINE
  8
0
 10
290.21
 20
107.578
 11
290.029
 21
107.41
  0
LINE
  8
0
 10
290.029
 20
107.41
 11
289.825
 21
107.271
  0
LINE
  8
0
 10
289.825
 20
107.271
 11
289.603
 21
107.164
  0
LINE
  8
0
 10
289.603
 20
107.164
 11
289.367
 21
107.091
  0
LINE
  8
0
 10
289.367
 20
107.091
 11
289.123
 21
107.055
  0
LINE
  8
0
 10
289.123
 20
107.055
 11
248.877
 21
107.055
  0
LINE
  8
0
 10
-199.457
 20
107.055
 11
-199.701
 21
107.091
  0
LINE
  8
0
 10
-199.701
 20
107.091
 11
-199.936
 21
107.164
  0
LINE
  8
0
 10
-199.936
 20
107.164
 11
-200.158
 21
107.271
  0
LINE
  8
0
 10
-200.158
 20
107.271
 11
-200.362
 21
107.41
  0
LINE
  8
0
 10
-200.362
 20
107.41
 11
-200.543
 21
107.578
  0
LINE
  8
0
 10
-200.543
 20
107.578
 11
-200.697
 21
107.771
  0
LINE
  8
0
 10
-200.697
 20
107.771
 11
-200.82
 21
107.984
  0
LINE
  8
0
 10
-200.82
 20
107.984
 11
-200.91
 21
108.214
  0
LINE
  8
0
 10
-200.91
 20
108.214
 11
-200.965
 21
108.454
  0
LINE
  8
0
 10
-200.965
 20
108.454
 11
-200.983
 21
108.7
  0
LINE
  8
0
 10
-200.983
 20
108.7
 11
-200.965
 21
108.946
  0
LINE
  8
0
 10
-200.965
 20
108.946
 11
-200.91
 21
109.186
  0
LINE
  8
0
 10
-200.91
 20
109.186
 11
-200.82
 21
109.416
  0
LINE
  8
0
 10
-200.82
 20
109.416
 11
-200.697
 21
109.629
  0
LINE
  8
0
 10
-200.697
 20
109.629
 11
-200.543
 21
109.822
  0
LINE
  8
0
 10
-200.543
 20
109.822
 11
-200.362
 21
109.99
  0
LINE
  8
0
 10
-200.362
 20
109.99
 11
-200.158
 21
110.129
  0
LINE
  8
0
 10
-200.158
 20
110.129
 11
-199.936
 21
110.236
  0
LINE
  8
0
 10
-199.936
 20
110.236
 11
-199.701
 21
110.309
  0
LINE
  8
0
 10
-199.701
 20
110.309
 11
-199.457
 21
110.345
  0
LINE
  8
0
 10
-199.457
 20
110.345
 11
-159.21
 21
110.345
  0
LINE
  8
0
 10
-159.21
 20
110.345
 11
-158.966
 21
110.309
  0
LINE
  8
0
 10
-158.966
 20
110.309
 11
-158.731
 21
110.236
  0
LINE
  8
0
 10
-158.731
 20
110.236
 11
-158.508
 21
110.129
  0
LINE
  8
0
 10
-158.508
 20
110.129
 11
-158.305
 21
109.99
  0
LINE
  8
0
 10
-158.305
 20
109.99
 11
-158.124
 21
109.822
  0
LINE
  8
0
 10
-158.124
 20
109.822
 11
-157.97
 21
109.629
  0
LINE
  8
0
 10
-157.97
 20
109.629
 11
-157.847
 21
109.416
  0
LINE
  8
0
 10
-157.847
 20
109.416
 11
-157.757
 21
109.186
  0
LINE
  8
0
 10
-157.757
 20
109.186
 11
-157.702
 21
108.946
  0
LINE
  8
0
 10
-157.702
 20
108.946
 11
-157.683
 21
108.7
  0
LINE
  8
0
 10
-157.683
 20
108.7
 11
-157.702
 21
108.454
  0
LINE
  8
0
 10
-157.702
 20
108.454
 11
-157.757
 21
108.214
  0
LINE
  8
0
 10
-157.757
 20
108.214
 11
-157.847
 21
107.984
  0
LINE
  8
0
 10
-157.847
 20
107.984
 11
-157.97
 21
107.771
  0
LINE
  8
0
 10
-157.97
 20
107.771
 11
-158.124
 21
107.578
  0
LINE
  8
0
 10
-158.124
 20
107.578
 11
-158.305
 21
107.41
  0
LINE
  8
0
 10
-158.305
 20
107.41
 11
-158.508
 21
107.271
  0
LINE
  8
0
 10
-158.508
 20
107.271
 11
-158.731
 21
107.164
  0
LINE
  8
0
 10
-158.731
 20
107.164
 11
-158.966
 21
107.091
  0
LINE
  8
0
 10
-158.966
 20
107.091
 11
-159.21
 21
107.055
  0
LINE
  8
0
 10
-159.21
 20
107.055
 11
-199.457
 21
107.055
  0
LINE
  8
0
 10
-109.79
 20
107.055
 11
-110.034
 21
107.091
  0
LINE
  8
0
 10
-110.034
 20
107.091
 11
-110.269
 21
107.164
  0
LINE
  8
0
 10
-110.269
 20
107.164
 11
-110.492
 21
107.271
  0
LINE
  8
0
 10
-110.492
 20
107.271
 11
-110.695
 21
107.41
  0
LINE
  8
0
 10
-110.695
 20
107.41
 11
-110.876
 21
107.578
  0
LINE
  8
0
 10
-110.876
 20
107.578
 11
-111.03
 21
107.771
  0
LINE
  8
0
 10
-111.03
 20
107.771
 11
-111.153
 21
107.984
  0
LINE
  8
0
 10
-111.153
 20
107.984
 11
-111.243
 21
108.214
  0
LINE
  8
0
 10
-111.243
 20
108.214
 11
-111.298
 21
108.454
  0
LINE
  8
0
 10
-111.298
 20
108.454
 11
-111.317
 21
108.7
  0
LINE
  8
0
 10
-111.317
 20
108.7
 11
-111.298
 21
108.946
  0
LINE
  8
0
 10
-111.298
 20
108.946
 11
-111.243
 21
109.186
  0
LINE
  8
0
 10
-111.243
 20
109.186
 11
-111.153
 21
109.416
  0
LINE
  8
0
 10
-111.153
 20
109.416
 11
-111.03
 21
109.629
  0
LINE
  8
0
 10
-111.03
 20
109.629
 11
-110.876
 21
109.822
  0
LINE
  8
0
 10
-110.876
 20
109.822
 11
-110.695
 21
109.99
  0
LINE
  8
0
 10
-110.695
 20
109.99
 11
-110.492
 21
110.129
  0
LINE
  8
0
 10
-110.492
 20
110.129
 11
-110.269
 21
110.236
  0
LINE
  8
0
 10
-110.269
 20
110.236
 11
-110.034
 21
110.309
  0
LINE
  8
0
 10
-110.034
 20
110.309
 11
-109.79
 21
110.345
  0
LINE
  8
0
 10
-109.79
 20
110.345
 11
-69.5434
 21
110.345
  0
LINE
  8
0
 10
-69.5434
 20
110.345
 11
-69.2995
 21
110.309
  0
LINE
  8
0
 10
-69.2995
 20
110.309
 11
-69.0638
 21
110.236
  0
LINE
  8
0
 10
-69.0638
 20
110.236
 11
-68.8417
 21
110.129
  0
LINE
  8
0
 10
-68.8417
 20
110.129
 11
-68.6379
 21
109.99
  0
LINE
  8
0
 10
-68.6379
 20
109.99
 11
-68.4571
 21
109.822
  0
LINE
  8
0
 10
-68.4571
 20
109.822
 11
-68.3034
 21
109.629
  0
LINE
  8
0
 10
-68.3034
 20
109.629
 11
-68.1801
 21
109.416
  0
LINE
  8
0
 10
-68.1801
 20
109.416
 11
-68.09
 21
109.186
  0
LINE
  8
0
 10
-68.09
 20
109.186
 11
-68.0351
 21
108.946
  0
LINE
  8
0
 10
-68.0351
 20
108.946
 11
-68.0167
 21
108.7
  0
LINE
  8
0
 10
-68.0167
 20
108.7
 11
-68.0351
 21
108.454
  0
LINE
  8
0
 10
-68.0351
 20
108.454
 11
-68.09
 21
108.214
  0
LINE
  8
0
 10
-68.09
 20
108.214
 11
-68.1801
 21
107.984
  0
LINE
  8
0
 10
-68.1801
 20
107.984
 11
-68.3034
 21
107.771
  0
LINE
  8
0
 10
-68.3034
 20
107.771
 11
-68.4571
 21
107.578
  0
LINE
  8
0
 10
-68.4571
 20
107.578
 11
-68.6379
 21
107.41
  0
LINE
  8
0
 10
-68.6379
 20
107.41
 11
-68.8417
 21
107.271
  0
LINE
  8
0
 10
-68.8417
 20
107.271
 11
-69.0638
 21
107.164
  0
LINE
  8
0
 10
-69.0638
 20
107.164
 11
-69.2995
 21
107.091
  0
LINE
  8
0
 10
-69.2995
 20
107.091
 11
-69.5434
 21
107.055
  0
LINE
  8
0
 10
-69.5434
 20
107.055
 11
-109.79
 21
107.055
  0
LINE
  8
0
 10
-289.123
 20
107.055
 11
-289.367
 21
107.091
  0
LINE
  8
0
 10
-289.367
 20
107.091
 11
-289.603
 21
107.164
  0
LINE
  8
0
 10
-289.603
 20
107.164
 11
-289.825
 21
107.271
  0
LINE
  8
0
 10
-289.825
 20
107.271
 11
-290.029
 21
107.41
  0
LINE
  8
0
 10
-290.029
 20
107.41
 11
-290.21
 21
107.578
  0
LINE
  8
0
 10
-290.21
 20
107.578
 11
-290.363
 21
107.771
  0
LINE
  8
0
 10
-290.363
 20
107.771
 11
-290.487
 21
107.984
  0
LINE
  8
0
 10
-290.487
 20
107.984
 11
-290.577
 21
108.214
  0
LINE
  8
0
 10
-290.577
 20
108.214
 11
-290.632
 21
108.454
  0
LINE
  8
0
 10
-290.632
 20
108.454
 11
-290.65
 21
108.7
  0
LINE
  8
0
 10
-290.65
 20
108.7
 11
-290.632
 21
108.946
  0
LINE
  8
0
 10
-290.632
 20
108.946
 11
-290.577
 21
109.186
  0
LINE
  8
0
 10
-290.577
 20
109.186
 11
-290.487
 21
109.416
  0
LINE
  8
0
 10
-290.487
 20
109.416
 11
-290.363
 21
109.629
  0
LINE
  8
0
 10
-290.363
 20
109.629
 11
-290.21
 21
109.822
  0
LINE
  8
0
 10
-290.21
 20
109.822
 11
-290.029
 21
109.99
  0
LINE
  8
0
 10
-290.029
 20
109.99
 11
-289.825
 21
110.129
  0
LINE
  8
0
 10
-289.825
 20
110.129
 11
-289.603
 21
110.236
  0
LINE
  8
0
 10
-289.603
 20
110.236
 11
-289.367
 21
110.309
  0
LINE
  8
0
 10
-289.367
 20
110.309
 11
-289.123
 21
110.345
  0
LINE
  8
0
 10
-289.123
 20
110.345
 11
-248.877
 21
110.345
  0
LINE
  8
0
 10
-248.877
 20
110.345
 11
-248.633
 21
110.309
  0
LINE
  8
0
 10
-248.633
 20
110.309
 11
-248.397
 21
110.236
  0
LINE
  8
0
 10
-248.397
 20
110.236
 11
-248.175
 21
110.129
  0
LINE
  8
0
 10
-248.175
 20
110.129
 11
-247.971
 21
109.99
  0
LINE
  8
0
 10
-247.971
 20
109.99
 11
-247.79
 21
109.822
  0
LINE
  8
0
 10
-247.79
 20
109.822
 11
-247.637
 21
109.629
  0
LINE
  8
0
 10
-247.637
 20
109.629
 11
-247.513
 21
109.416
  0
LINE
  8
0
 10
-247.513
 20
109.416
 11
-247.423
 21
109.186
  0
LINE
  8
0
 10
-247.423
 20
109.186
 11
-247.368
 21
108.946
  0
LINE
  8
0
 10
-247.368
 20
108.946
 11
-247.35
 21
108.7
  0
LINE
  8
0
 10
-247.35
 20
108.7
 11
-247.368
 21
108.454
  0
LINE
  8
0
 10
-247.368
 20
108.454
 11
-247.423
 21
108.214
  0
LINE
  8
0
 10
-247.423
 20
108.214
 11
-247.513
 21
107.984
  0
LINE
  8
0
 10
-247.513
 20
107.984
 11
-247.637
 21
107.771
  0
LINE
  8
0
 10
-247.637
 20
107.771
 11
-247.79
 21
107.578
  0
LINE
  8
0
 10
-247.79
 20
107.578
 11
-247.971
 21
107.41
  0
LINE
  8
0
 10
-247.971
 20
107.41
 11
-248.175
 21
107.271
  0
LINE
  8
0
 10
-248.175
 20
107.271
 11
-248.397
 21
107.164
  0
LINE
  8
0
 10
-248.397
 20
107.164
 11
-248.633
 21
107.091
  0
LINE
  8
0
 10
-248.633
 20
107.091
 11
-248.877
 21
107.055
  0
LINE
  8
0
 10
-248.877
 20
107.055
 11
-289.123
 21
107.055
  0
LINE
  8
0
 10
159.21
 20
107.055
 11
158.966
 21
107.091
  0
LINE
  8
0
 10
158.966
 20
107.091
 11
158.731
 21
107.164
  0
LINE
  8
0
 10
158.731
 20
107.164
 11
158.508
 21
107.271
  0
LINE
  8
0
 10
158.508
 20
107.271
 11
158.305
 21
107.41
  0
LINE
  8
0
 10
158.305
 20
107.41
 11
158.124
 21
107.578
  0
LINE
  8
0
 10
158.124
 20
107.578
 11
157.97
 21
107.771
  0
LINE
  8
0
 10
157.97
 20
107.771
 11
157.847
 21
107.984
  0
LINE
  8
0
 10
157.847
 20
107.984
 11
157.757
 21
108.214
  0
LINE
  8
0
 10
157.757
 20
108.214
 11
157.702
 21
108.454
  0
LINE
  8
0
 10
157.702
 20
108.454
 11
157.683
 21
108.7
  0
LINE
  8
0
 10
157.683
 20
108.7
 11
157.702
 21
108.946
  0
LINE
  8
0
 10
157.702
 20
108.946
 11
157.757
 21
109.186
  0
LINE
  8
0
 10
157.757
 20
109.186
 11
157.847
 21
109.416
  0
LINE
  8
0
 10
157.847
 20
109.416
 11
157.97
 21
109.629
  0
LINE
  8
0
 10
157.97
 20
109.629
 11
158.124
 21
109.822
  0
LINE
  8
0
 10
158.124
 20
109.822
 11
158.305
 21
109.99
  0
LINE
  8
0
 10
158.305
 20
109.99
 11
158.508
 21
110.129
  0
LINE
  8
0
 10
158.508
 20
110.129
 11
158.731
 21
110.236
  0
LINE
  8
0
 10
158.731
 20
110.236
 11
158.966
 21
110.309
  0
LINE
  8
0
 10
158.966
 20
110.309
 11
159.21
 21
110.345
  0
LINE
  8
0
 10
159.21
 20
110.345
 11
199.457
 21
110.345
  0
LINE
  8
0
 10
199.457
 20
110.345
 11
199.701
 21
110.309
  0
LINE
  8
0
 10
199.701
 20
110.309
 11
199.936
 21
110.236
  0
LINE
  8
0
 10
199.936
 20
110.236
 11
200.158
 21
110.129
  0
LINE
  8
0
 10
200.158
 20
110.129
 11
200.362
 21
109.99
  0
LINE
  8
0
 10
200.362
 20
109.99
 11
200.543
 21
109.822
  0
LINE
  8
0
 10
200.543
 20
109.822
 11
200.697
 21
109.629
  0
LINE
  8
0
 10
200.697
 20
109.629
 11
200.82
 21
109.416
  0
LINE
  8
0
 10
200.82
 20
109.416
 11
200.91
 21
109.186
  0
LINE
  8
0
 10
200.91
 20
109.186
 11
200.965
 21
108.946
  0
LINE
  8
0
 10
200.965
 20
108.946
 11
200.983
 21
108.7
  0
LINE
  8
0
 10
200.983
 20
108.7
 11
200.965
 21
108.454
  0
LINE
  8
0
 10
200.965
 20
108.454
 11
200.91
 21
108.214
  0
LINE
  8
0
 10
200.91
 20
108.214
 11
200.82
 21
107.984
  0
LINE
  8
0
 10
200.82
 20
107.984
 11
200.697
 21
107.771
  0
LINE
  8
0
 10
200.697
 20
107.771
 11
200.543
 21
107.578
  0
LINE
  8
0
 10
200.543
 20
107.578
 11
200.362
 21
107.41
  0
LINE
  8
0
 10
200.362
 20
107.41
 11
200.158
 21
107.271
  0
LINE
  8
0
 10
200.158
 20
107.271
 11
199.936
 21
107.164
  0
LINE
  8
0
 10
199.936
 20
107.164
 11
199.701
 21
107.091
  0
LINE
  8
0
 10
199.701
 20
107.091
 11
199.457
 21
107.055
  0
LINE
  8
0
 10
199.457
 20
107.055
 11
159.21
 21
107.055
  0
LINE
  8
0
 10
69.5434
 20
107.055
 11
69.2995
 21
107.091
  0
LINE
  8
0
 10
69.2995
 20
107.091
 11
69.0638
 21
107.164
  0
LINE
  8
0
 10
69.0638
 20
107.164
 11
68.8417
 21
107.271
  0
LINE
  8
0
 10
68.8417
 20
107.271
 11
68.6379
 21
107.41
  0
LINE
  8
0
 10
68.6379
 20
107.41
 11
68.4571
 21
107.578
  0
LINE
  8
0
 10
68.4571
 20
107.578
 11
68.3034
 21
107.771
  0
LINE
  8
0
 10
68.3034
 20
107.771
 11
68.1801
 21
107.984
  0
LINE
  8
0
 10
68.1801
 20
107.984
 11
68.09
 21
108.214
  0
LINE
  8
0
 10
68.09
 20
108.214
 11
68.0351
 21
108.454
  0
LINE
  8
0
 10
68.0351
 20
108.454
 11
68.0167
 21
108.7
  0
LINE
  8
0
 10
68.0167
 20
108.7
 11
68.0351
 21
108.946
  0
LINE
  8
0
 10
68.0351
 20
108.946
 11
68.09
 21
109.186
  0
LINE
  8
0
 10
68.09
 20
109.186
 11
68.1801
 21
109.416
  0
LINE
  8
0
 10
68.1801
 20
109.416
 11
68.3034
 21
109.629
  0
LINE
  8
0
 10
68.3034
 20
109.629
 11
68.4571
 21
109.822
  0
LINE
  8
0
 10
68.4571
 20
109.822
 11
68.6379
 21
109.99
  0
LINE
  8
0
 10
68.6379
 20
109.99
 11
68.8417
 21
110.129
  0
LINE
  8
0
 10
68.8417
 20
110.129
 11
69.0638
 21
110.236
  0
LINE
  8
0
 10
69.0638
 20
110.236
 11
69.2995
 21
110.309
  0
LINE
  8
0
 10
69.2995
 20
110.309
 11
69.5434
 21
110.345
  0
LINE
  8
0
 10
69.5434
 20
110.345
 11
109.79
 21
110.345
  0
LINE
  8
0
 10
109.79
 20
110.345
 11
110.034
 21
110.309
  0
LINE
  8
0
 10
110.034
 20
110.309
 11
110.269
 21
110.236
  0
LINE
  8
0
 10
110.269
 20
110.236
 11
110.492
 21
110.129
  0
LINE
  8
0
 10
110.492
 20
110.129
 11
110.695
 21
109.99
  0
LINE
  8
0
 10
110.695
 20
109.99
 11
110.876
 21
109.822
  0
LINE
  8
0
 10
110.876
 20
109.822
 11
111.03
 21
109.629
  0
LINE
  8
0
 10
111.03
 20
109.629
 11
111.153
 21
109.416
  0
LINE
  8
0
 10
111.153
 20
109.416
 11
111.243
 21
109.186
  0
LINE
  8
0
 10
111.243
 20
109.186
 11
111.298
 21
108.946
  0
LINE
  8
0
 10
111.298
 20
108.946
 11
111.317
 21
108.7
  0
LINE
  8
0
 10
111.317
 20
108.7
 11
111.298
 21
108.454
  0
LINE
  8
0
 10
111.298
 20
108.454
 11
111.243
 21
108.214
  0
LINE
  8
0
 10
111.243
 20
108.214
 11
111.153
 21
107.984
  0
LINE
  8
0
 10
111.153
 20
107.984
 11
111.03
 21
107.771
  0
LINE
  8
0
 10
111.03
 20
107.771
 11
110.876
 21
107.578
  0
LINE
  8
0
 10
110.876
 20
107.578
 11
110.695
 21
107.41
  0
LINE
  8
0
 10
110.695
 20
107.41
 11
110.492
 21
107.271
  0
LINE
  8
0
 10
110.492
 20
107.271
 11
110.269
 21
107.164
  0
LINE
  8
0
 10
110.269
 20
107.164
 11
110.034
 21
107.091
  0
LINE
  8
0
 10
110.034
 20
107.091
 11
109.79
 21
107.055
  0
LINE
  8
0
 10
109.79
 20
107.055
 11
69.5434
 21
107.055
  0
LINE
  8
0
 10
-20.1233
 20
107.055
 11
-20.3672
 21
107.091
  0
LINE
  8
0
 10
-20.3672
 20
107.091
 11
-20.6028
 21
107.164
  0
LINE
  8
0
 10
-20.6028
 20
107.164
 11
-20.825
 21
107.271
  0
LINE
  8
0
 10
-20.825
 20
107.271
 11
-21.0287
 21
107.41
  0
LINE
  8
0
 10
-21.0287
 20
107.41
 11
-21.2095
 21
107.578
  0
LINE
  8
0
 10
-21.2095
 20
107.578
 11
-21.3633
 21
107.771
  0
LINE
  8
0
 10
-21.3633
 20
107.771
 11
-21.4866
 21
107.984
  0
LINE
  8
0
 10
-21.4866
 20
107.984
 11
-21.5767
 21
108.214
  0
LINE
  8
0
 10
-21.5767
 20
108.214
 11
-21.6316
 21
108.454
  0
LINE
  8
0
 10
-21.6316
 20
108.454
 11
-21.65
 21
108.7
  0
LINE
  8
0
 10
-21.65
 20
108.7
 11
-21.6316
 21
108.946
  0
LINE
  8
0
 10
-21.6316
 20
108.946
 11
-21.5767
 21
109.186
  0
LINE
  8
0
 10
-21.5767
 20
109.186
 11
-21.4866
 21
109.416
  0
LINE
  8
0
 10
-21.4866
 20
109.416
 11
-21.3633
 21
109.629
  0
LINE
  8
0
 10
-21.3633
 20
109.629
 11
-21.2095
 21
109.822
  0
LINE
  8
0
 10
-21.2095
 20
109.822
 11
-21.0287
 21
109.99
  0
LINE
  8
0
 10
-21.0287
 20
109.99
 11
-20.825
 21
110.129
  0
LINE
  8
0
 10
-20.825
 20
110.129
 11
-20.6028
 21
110.236
  0
LINE
  8
0
 10
-20.6028
 20
110.236
 11
-20.3672
 21
110.309
  0
LINE
  8
0
 10
-20.3672
 20
110.309
 11
-20.1233
 21
110.345
  0
LINE
  8
0
 10
-20.1233
 20
110.345
 11
20.1233
 21
110.345
  0
LINE
  8
0
 10
20.1233
 20
110.345
 11
20.3672
 21
110.309
  0
LINE
  8
0
 10
20.3672
 20
110.309
 11
20.6028
 21
110.236
  0
LINE
  8
0
 10
20.6028
 20
110.236
 11
20.825
 21
110.129
  0
LINE
  8
0
 10
20.825
 20
110.129
 11
21.0287
 21
109.99
  0
LINE
  8
0
 10
21.0287
 20
109.99
 11
21.2095
 21
109.822
  0
LINE
  8
0
 10
21.2095
 20
109.822
 11
21.3633
 21
109.629
  0
LINE
  8
0
 10
21.3633
 20
109.629
 11
21.4866
 21
109.416
  0
LINE
  8
0
 10
21.4866
 20
109.416
 11
21.5767
 21
109.186
  0
LINE
  8
0
 10
21.5767
 20
109.186
 11
21.6316
 21
108.946
  0
LINE
  8
0
 10
21.6316
 20
108.946
 11
21.65
 21
108.7
  0
LINE
  8
0
 10
21.65
 20
108.7
 11
21.6316
 21
108.454
  0
LINE
  8
0
 10
21.6316
 20
108.454
 11
21.5767
 21
108.214
  0
LINE
  8
0
 10
21.5767
 20
108.214
 11
21.4866
 21
107.984
  0
LINE
  8
0
 10
21.4866
 20
107.984
 11
21.3633
 21
107.771
  0
LINE
  8
0
 10
21.3633
 20
107.771
 11
21.2095
 21
107.578
  0
LINE
  8
0
 10
21.2095
 20
107.578
 11
21.0287
 21
107.41
  0
LINE
  8
0
 10
21.0287
 20
107.41
 11
20.825
 21
107.271
  0
LINE
  8
0
 10
20.825
 20
107.271
 11
20.6028
 21
107.164
  0
LINE
  8
0
 10
20.6028
 20
107.164
 11
20.3672
 21
107.091
  0
LINE
  8
0
 10
20.3672
 20
107.091
 11
20.1233
 21
107.055
  0
LINE
  8
0
 10
20.1233
 20
107.055
 11
-20.1233
 21
107.055
  0
LINE
  8
0
 10
311.254
 20
44.5684
 11
311.014
 21
44.6233
  0
LINE
  8
0
 10
311.014
 20
44.6233
 11
310.784
 21
44.7134
  0
LINE
  8
0
 10
310.784
 20
44.7134
 11
310.571
 21
44.8367
  0
LINE
  8
0
 10
310.571
 20
44.8367
 11
310.378
 21
44.9905
  0
LINE
  8
0
 10
310.378
 20
44.9905
 11
310.21
 21
45.1712
  0
LINE
  8
0
 10
310.21
 20
45.1712
 11
310.071
 21
45.375
  0
LINE
  8
0
 10
310.071
 20
45.375
 11
309.964
 21
45.5972
  0
LINE
  8
0
 10
309.964
 20
45.5972
 11
309.891
 21
45.8328
  0
LINE
  8
0
 10
309.891
 20
45.8328
 11
309.855
 21
46.0767
  0
LINE
  8
0
 10
309.855
 20
46.0767
 11
309.855
 21
86.3233
  0
LINE
  8
0
 10
309.855
 20
86.3233
 11
309.891
 21
86.5672
  0
LINE
  8
0
 10
309.891
 20
86.5672
 11
309.964
 21
86.8028
  0
LINE
  8
0
 10
309.964
 20
86.8028
 11
310.071
 21
87.025
  0
LINE
  8
0
 10
310.071
 20
87.025
 11
310.21
 21
87.2288
  0
LINE
  8
0
 10
310.21
 20
87.2288
 11
310.378
 21
87.4095
  0
LINE
  8
0
 10
310.378
 20
87.4095
 11
310.571
 21
87.5633
  0
LINE
  8
0
 10
310.571
 20
87.5633
 11
310.784
 21
87.6866
  0
LINE
  8
0
 10
310.784
 20
87.6866
 11
311.014
 21
87.7767
  0
LINE
  8
0
 10
311.014
 20
87.7767
 11
311.254
 21
87.8316
  0
LINE
  8
0
 10
311.254
 20
87.8316
 11
311.5
 21
87.85
  0
LINE
  8
0
 10
311.5
 20
87.85
 11
311.746
 21
87.8316
  0
LINE
  8
0
 10
311.746
 20
87.8316
 11
311.986
 21
87.7767
  0
LINE
  8
0
 10
311.986
 20
87.7767
 11
312.216
 21
87.6866
  0
LINE
  8
0
 10
312.216
 20
87.6866
 11
312.429
 21
87.5633
  0
LINE
  8
0
 10
312.429
 20
87.5633
 11
312.622
 21
87.4095
  0
LINE
  8
0
 10
312.622
 20
87.4095
 11
312.79
 21
87.2288
  0
LINE
  8
0
 10
312.79
 20
87.2288
 11
312.929
 21
87.025
  0
LINE
  8
0
 10
312.929
 20
87.025
 11
313.036
 21
86.8028
  0
LINE
  8
0
 10
313.036
 20
86.8028
 11
313.109
 21
86.5672
  0
LINE
  8
0
 10
313.109
 20
86.5672
 11
313.145
 21
86.3233
  0
LINE
  8
0
 10
313.145
 20
86.3233
 11
313.145
 21
46.0767
  0
LINE
  8
0
 10
313.145
 20
46.0767
 11
313.109
 21
45.8328
  0
LINE
  8
0
 10
313.109
 20
45.8328
 11
313.036
 21
45.5972
  0
LINE
  8
0
 10
313.036
 20
45.5972
 11
312.929
 21
45.375
  0
LINE
  8
0
 10
312.929
 20
45.375
 11
312.79
 21
45.1712
  0
LINE
  8
0
 10
312.79
 20
45.1712
 11
312.622
 21
44.9905
  0
LINE
  8
0
 10
312.622
 20
44.9905
 11
312.429
 21
44.8367
  0
LINE
  8
0
 10
312.429
 20
44.8367
 11
312.216
 21
44.7134
  0
LINE
  8
0
 10
312.216
 20
44.7134
 11
311.986
 21
44.6233
  0
LINE
  8
0
 10
311.986
 20
44.6233
 11
311.746
 21
44.5684
  0
LINE
  8
0
 10
311.746
 20
44.5684
 11
311.5
 21
44.55
  0
LINE
  8
0
 10
311.5
 20
44.55
 11
311.254
 21
44.5684
  0
LINE
  8
0
 10
-311.746
 20
44.5684
 11
-311.986
 21
44.6233
  0
LINE
  8
0
 10
-311.986
 20
44.6233
 11
-312.216
 21
44.7134
  0
LINE
  8
0
 10
-312.216
 20
44.7134
 11
-312.429
 21
44.8367
  0
LINE
  8
0
 10
-312.429
 20
44.8367
 11
-312.622
 21
44.9905
  0
LINE
  8
0
 10
-312.622
 20
44.9905
 11
-312.79
 21
45.1712
  0
LINE
  8
0
 10
-312.79
 20
45.1712
 11
-312.929
 21
45.375
  0
LINE
  8
0
 10
-312.929
 20
45.375
 11
-313.036
 21
45.5972
  0
LINE
  8
0
 10
-313.036
 20
45.5972
 11
-313.109
 21
45.8328
  0
LINE
  8
0
 10
-313.109
 20
45.8328
 11
-313.145
 21
46.0767
  0
LINE
  8
0
 10
-313.145
 20
46.0767
 11
-313.145
 21
86.3233
  0
LINE
  8
0
 10
-313.145
 20
86.3233
 11
-313.109
 21
86.5672
  0
LINE
  8
0
 10
-313.109
 20
86.5672
 11
-313.036
 21
86.8028
  0
LINE
  8
0
 10
-313.036
 20
86.8028
 11
-312.929
 21
87.025
  0
LINE
  8
0
 10
-312.929
 20
87.025
 11
-312.79
 21
87.2288
  0
LINE
  8
0
 10
-312.79
 20
87.2288
 11
-312.622
 21
87.4095
  0
LINE
  8
0
 10
-312.622
 20
87.4095
 11
-312.429
 21
87.5633
  0
LINE
  8
0
 10
-312.429
 20
87.5633
 11
-312.216
 21
87.6866
  0
LINE
  8
0
 10
-312.216
 20
87.6866
 11
-311.986
 21
87.7767
  0
LINE
  8
0
 10
-311.986
 20
87.7767
 11
-311.746
 21
87.8316
  0
LINE
  8
0
 10
-311.746
 20
87.8316
 11
-311.5
 21
87.85
  0
LINE
  8
0
 10
-311.5
 20
87.85
 11
-311.254
 21
87.8316
  0
LINE
  8
0
 10
-311.254
 20
87.8316
 11
-311.014
 21
87.7767
  0
LINE
  8
0
 10
-311.014
 20
87.7767
 11
-310.784
 21
87.6866
  0
LINE
  8
0
 10
-310.784
 20
87.6866
 11
-310.571
 21
87.5633
  0
LINE
  8
0
 10
-310.571
 20
87.5633
 11
-310.378
 21
87.4095
  0
LINE
  8
0
 10
-310.378
 20
87.4095
 11
-310.21
 21
87.2288
  0
LINE
  8
0
 10
-310.21
 20
87.2288
 11
-310.071
 21
87.025
  0
LINE
  8
0
 10
-310.071
 20
87.025
 11
-309.964
 21
86.8028
  0
LINE
  8
0
 10
-309.964
 20
86.8028
 11
-309.891
 21
86.5672
  0
LINE
  8
0
 10
-309.891
 20
86.5672
 11
-309.855
 21
86.3233
  0
LINE
  8
0
 10
-309.855
 20
86.3233
 11
-309.855
 21
46.0767
  0
LINE
  8
0
 10
-309.855
 20
46.0767
 11
-309.891
 21
45.8328
  0
LINE
  8
0
 10
-309.891
 20
45.8328
 11
-309.964
 21
45.5972
  0
LINE
  8
0
 10
-309.964
 20
45.5972
 11
-310.071
 21
45.375
  0
LINE
  8
0
 10
-310.071
 20
45.375
 11
-310.21
 21
45.1712
  0
LINE
  8
0
 10
-310.21
 20
45.1712
 11
-310.378
 21
44.9905
  0
LINE
  8
0
 10
-310.378
 20
44.9905
 11
-310.571
 21
44.8367
  0
LINE
  8
0
 10
-310.571
 20
44.8367
 11
-310.784
 21
44.7134
  0
LINE
  8
0
 10
-310.784
 20
44.7134
 11
-311.014
 21
44.6233
  0
LINE
  8
0
 10
-311.014
 20
44.6233
 11
-311.254
 21
44.5684
  0
LINE
  8
0
 10
-311.254
 20
44.5684
 11
-311.5
 21
44.55
  0
LINE
  8
0
 10
-311.5
 20
44.55
 11
-311.746
 21
44.5684
  0
LINE
  8
0
 10
-311.746
 20
-21.6316
 11
-311.986
 21
-21.5767
  0
LINE
  8
0
 10
-311.986
 20
-21.5767
 11
-312.216
 21
-21.4866
  0
LINE
  8
0
 10
-312.216
 20
-21.4866
 11
-312.429
 21
-21.3633
  0
LINE
  8
0
 10
-312.429
 20
-21.3633
 11
-312.622
 21
-21.2095
  0
LINE
  8
0
 10
-312.622
 20
-21.2095
 11
-312.79
 21
-21.0287
  0
LINE
  8
0
 10
-312.79
 20
-21.0287
 11
-312.929
 21
-20.825
  0
LINE
  8
0
 10
-312.929
 20
-20.825
 11
-313.036
 21
-20.6028
  0
LINE
  8
0
 10
-313.036
 20
-20.6028
 11
-313.109
 21
-20.3672
  0
LINE
  8
0
 10
-313.109
 20
-20.3672
 11
-313.145
 21
-20.1233
  0
LINE
  8
0
 10
-313.145
 20
-20.1233
 11
-313.145
 21
20.1233
  0
LINE
  8
0
 10
-313.145
 20
20.1233
 11
-313.109
 21
20.3672
  0
LINE
  8
0
 10
-313.109
 20
20.3672
 11
-313.036
 21
20.6028
  0
LINE
  8
0
 10
-313.036
 20
20.6028
 11
-312.929
 21
20.825
  0
LINE
  8
0
 10
-312.929
 20
20.825
 11
-312.79
 21
21.0287
  0
LINE
  8
0
 10
-312.79
 20
21.0287
 11
-312.622
 21
21.2095
  0
LINE
  8
0
 10
-312.622
 20
21.2095
 11
-312.429
 21
21.3633
  0
LINE
  8
0
 10
-312.429
 20
21.3633
 11
-312.216
 21
21.4866
  0
LINE
  8
0
 10
-312.216
 20
21.4866
 11
-311.986
 21
21.5767
  0
LINE
  8
0
 10
-311.986
 20
21.5767
 11
-311.746
 21
21.6316
  0
LINE
  8
0
 10
-311.746
 20
21.6316
 11
-311.5
 21
21.65
  0
LINE
  8
0
 10
-311.5
 20
21.65
 11
-311.254
 21
21.6316
  0
LINE
  8
0
 10
-311.254
 20
21.6316
 11
-311.014
 21
21.5767
  0
LINE
  8
0
 10
-311.014
 20
21.5767
 11
-310.784
 21
21.4866
  0
LINE
  8
0
 10
-310.784
 20
21.4866
 11
-310.571
 21
21.3633
  0
LINE
  8
0
 10
-310.571
 20
21.3633
 11
-310.378
 21
21.2095
  0
LINE
  8
0
 10
-310.378
 20
21.2095
 11
-310.21
 21
21.0287
  0
LINE
  8
0
 10
-310.21
 20
21.0287
 11
-310.071
 21
20.825
  0
LINE
  8
0
 10
-310.071
 20
20.825
 11
-309.964
 21
20.6028
  0
LINE
  8
0
 10
-309.964
 20
20.6028
 11
-309.891
 21
20.3672
  0
LINE
  8
0
 10
-309.891
 20
20.3672
 11
-309.855
 21
20.1233
  0
LINE
  8
0
 10
-309.855
 20
20.1233
 11
-309.855
 21
-20.1233
  0
LINE
  8
0
 10
-309.855
 20
-20.1233
 11
-309.891
 21
-20.3672
  0
LINE
  8
0
 10
-309.891
 20
-20.3672
 11
-309.964
 21
-20.6028
  0
LINE
  8
0
 10
-309.964
 20
-20.6028
 11
-310.071
 21
-20.825
  0
LINE
  8
0
 10
-310.071
 20
-20.825
 11
-310.21
 21
-21.0287
  0
LINE
  8
0
 10
-310.21
 20
-21.0287
 11
-310.378
 21
-21.2095
  0
LINE
  8
0
 10
-310.378
 20
-21.2095
 11
-310.571
 21
-21.3633
  0
LINE
  8
0
 10
-310.571
 20
-21.3633
 11
-310.784
 21
-21.4866
  0
LINE
  8
0
 10
-310.784
 20
-21.4866
 11
-311.014
 21
-21.5767
  0
LINE
  8
0
 10
-311.014
 20
-21.5767
 11
-311.254
 21
-21.6316
  0
LINE
  8
0
 10
-311.254
 20
-21.6316
 11
-311.5
 21
-21.65
  0
LINE
  8
0
 10
-311.5
 20
-21.65
 11
-311.746
 21
-21.6316
  0
LINE
  8
0
 10
311.254
 20
-21.6316
 11
311.014
 21
-21.5767
  0
LINE
  8
0
 10
311.014
 20
-21.5767
 11
310.784
 21
-21.4866
  0
LINE
  8
0
 10
310.784
 20
-21.4866
 11
310.571
 21
-21.3633
  0
LINE
  8
0
 10
310.571
 20
-21.3633
 11
310.378
 21
-21.2095
  0
LINE
  8
0
 10
310.378
 20
-21.2095
 11
310.21
 21
-21.0287
  0
LINE
  8
0
 10
310.21
 20
-21.0287
 11
310.071
 21
-20.825
  0
LINE
  8
0
 10
310.071
 20
-20.825
 11
309.964
 21
-20.6028
  0
LINE
  8
0
 10
309.964
 20
-20.6028
 11
309.891
 21
-20.3672
  0
LINE
  8
0
 10
309.891
 20
-20.3672
 11
309.855
 21
-20.1233
  0
LINE
  8
0
 10
309.855
 20
-20.1233
 11
309.855
 21
20.1233
  0
LINE
  8
0
 10
309.855
 20
20.1233
 11
309.891
 21
20.3672
  0
LINE
  8
0
 10
309.891
 20
20.3672
 11
309.964
 21
20.6028
  0
LINE
  8
0
 10
309.964
 20
20.6028
 11
310.071
 21
20.825
  0
LINE
  8
0
 10
310.071
 20
20.825
 11
310.21
 21
21.0287
  0
LINE
  8
0
 10
310.21
 20
21.0287
 11
310.378
 21
21.2095
  0
LINE
  8
0
 10
310.378
 20
21.2095
 11
310.571
 21
21.3633
  0
LINE
  8
0
 10
310.571
 20
21.3633
 11
310.784
 21
21.4866
  0
LINE
  8
0
 10
310.784
 20
21.4866
 11
311.014
 21
21.5767
  0
LINE
  8
0
 10
311.014
 20
21.5767
 11
311.254
 21
21.6316
  0
LINE
  8
0
 10
311.254
 20
21.6316
 11
311.5
 21
21.65
  0
LINE
  8
0
 10
311.5
 20
21.65
 11
311.746
 21
21.6316
  0
LINE
  8
0
 10
311.746
 20
21.6316
 11
311.986
 21
21.5767
  0
LINE
  8
0
 10
311.986
 20
21.5767
 11
312.216
 21
21.4866
  0
LINE
  8
0
 10
312.216
 20
21.4866
 11
312.429
 21
21.3633
  0
LINE
  8
0
 10
312.429
 20
21.3633
 11
312.622
 21
21.2095
  0
LINE
  8
0
 10
312.622
 20
21.2095
 11
312.79
 21
21.0287
  0
LINE
  8
0
 10
312.79
 20
21.0287
 11
312.929
 21
20.825
  0
LINE
  8
0
 10
312.929
 20
20.825
 11
313.036
 21
20.6028
  0
LINE
  8
0
 10
313.036
 20
20.6028
 11
313.109
 21
20.3672
  0
LINE
  8
0
 10
313.109
 20
20.3672
 11
313.145
 21
20.1233
  0
LINE
  8
0
 10
313.145
 20
20.1233
 11
313.145
 21
-20.1233
  0
LINE
  8
0
 10
313.145
 20
-20.1233
 11
313.109
 21
-20.3672
  0
LINE
  8
0
 10
313.109
 20
-20.3672
 11
313.036
 21
-20.6028
  0
LINE
  8
0
 10
313.036
 20
-20.6028
 11
312.929
 21
-20.825
  0
LINE
  8
0
 10
312.929
 20
-20.825
 11
312.79
 21
-21.0287
  0
LINE
  8
0
 10
312.79
 20
-21.0287
 11
312.622
 21
-21.2095
  0
LINE
  8
0
 10
312.622
 20
-21.2095
 11
312.429
 21
-21.3633
  0
LINE
  8
0
 10
312.429
 20
-21.3633
 11
312.216
 21
-21.4866
  0
LINE
  8
0
 10
312.216
 20
-21.4866
 11
311.986
 21
-21.5767
  0
LINE
  8
0
 10
311.986
 20
-21.5767
 11
311.746
 21
-21.6316
  0
LINE
  8
0
 10
311.746
 20
-21.6316
 11
311.5
 21
-21.65
  0
LINE
  8
0
 10
311.5
 20
-21.65
 11
311.254
 21
-21.6316
  0
LINE
  8
0
 10
311.254
 20
-87.8316
 11
311.014
 21
-87.7767
  0
LINE
  8
0
 10
311.014
 20
-87.7767
 11
310.784
 21
-87.6866
  0
LINE
  8
0
 10
310.784
 20
-87.6866
 11
310.571
 21
-87.5633
  0
LINE
  8
0
 10
310.571
 20
-87.5633
 11
310.378
 21
-87.4095
  0
LINE
  8
0
 10
310.378
 20
-87.4095
 11
310.21
 21
-87.2288
  0
LINE
  8
0
 10
310.21
 20
-87.2288
 11
310.071
 21
-87.025
  0
LINE
  8
0
 10
310.071
 20
-87.025
 11
309.964
 21
-86.8028
  0
LINE
  8
0
 10
309.964
 20
-86.8028
 11
309.891
 21
-86.5672
  0
LINE
  8
0
 10
309.891
 20
-86.5672
 11
309.855
 21
-86.3233
  0
LINE
  8
0
 10
309.855
 20
-86.3233
 11
309.855
 21
-46.0767
  0
LINE
  8
0
 10
309.855
 20
-46.0767
 11
309.891
 21
-45.8328
  0
LINE
  8
0
 10
309.891
 20
-45.8328
 11
309.964
 21
-45.5972
  0
LINE
  8
0
 10
309.964
 20
-45.5972
 11
310.071
 21
-45.375
  0
LINE
  8
0
 10
310.071
 20
-45.375
 11
310.21
 21
-45.1712
  0
LINE
  8
0
 10
310.21
 20
-45.1712
 11
310.378
 21
-44.9905
  0
LINE
  8
0
 10
310.378
 20
-44.9905
 11
310.571
 21
-44.8367
  0
LINE
  8
0
 10
310.571
 20
-44.8367
 11
310.784
 21
-44.7134
  0
LINE
  8
0
 10
310.784
 20
-44.7134
 11
311.014
 21
-44.6233
  0
LINE
  8
0
 10
311.014
 20
-44.6233
 11
311.254
 21
-44.5684
  0
LINE
  8
0
 10
311.254
 20
-44.5684
 11
311.5
 21
-44.55
  0
LINE
  8
0
 10
311.5
 20
-44.55
 11
311.746
 21
-44.5684
  0
LINE
  8
0
 10
311.746
 20
-44.5684
 11
311.986
 21
-44.6233
  0
LINE
  8
0
 10
311.986
 20
-44.6233
 11
312.216
 21
-44.7134
  0
LINE
  8
0
 10
312.216
 20
-44.7134
 11
312.429
 21
-44.8367
  0
LINE
  8
0
 10
312.429
 20
-44.8367
 11
312.622
 21
-44.9905
  0
LINE
  8
0
 10
312.622
 20
-44.9905
 11
312.79
 21
-45.1712
  0
LINE
  8
0
 10
312.79
 20
-45.1712
 11
312.929
 21
-45.375
  0
LINE
  8
0
 10
312.929
 20
-45.375
 11
313.036
 21
-45.5972
  0
LINE
  8
0
 10
313.036
 20
-45.5972
 11
313.109
 21
-45.8328
  0
LINE
  8
0
 10
313.109
 20
-45.8328
 11
313.145
 21
-46.0767
  0
LINE
  8
0
 10
313.145
 20
-46.0767
 11
313.145
 21
-86.3233
  0
LINE
  8
0
 10
313.145
 20
-86.3233
 11
313.109
 21
-86.5672
  0
LINE
  8
0
 10
313.109
 20
-86.5672
 11
313.036
 21
-86.8028
  0
LINE
  8
0
 10
313.036
 20
-86.8028
 11
312.929
 21
-87.025
  0
LINE
  8
0
 10
312.929
 20
-87.025
 11
312.79
 21
-87.2288
  0
LINE
  8
0
 10
312.79
 20
-87.2288
 11
312.622
 21
-87.4095
  0
LINE
  8
0
 10
312.622
 20
-87.4095
 11
312.429
 21
-87.5633
  0
LINE
  8
0
 10
312.429
 20
-87.5633
 11
312.216
 21
-87.6866
  0
LINE
  8
0
 10
312.216
 20
-87.6866
 11
311.986
 21
-87.7767
  0
LINE
  8
0
 10
311.986
 20
-87.7767
 11
311.746
 21
-87.8316
  0
LINE
  8
0
 10
311.746
 20
-87.8316
 11
311.5
 21
-87.85
  0
LINE
  8
0
 10
311.5
 20
-87.85
 11
311.254
 21
-87.8316
  0
LINE
  8
0
 10
-311.746
 20
-87.8316
 11
-311.986
 21
-87.7767
  0
LINE
  8
0
 10
-311.986
 20
-87.7767
 11
-312.216
 21
-87.6866
  0
LINE
  8
0
 10
-312.216
 20
-87.6866
 11
-312.429
 21
-87.5633
  0
LINE
  8
0
 10
-312.429
 20
-87.5633
 11
-312.622
 21
-87.4095
  0
LINE
  8
0
 10
-312.622
 20
-87.4095
 11
-312.79
 21
-87.2288
  0
LINE
  8
0
 10
-312.79
 20
-87.2288
 11
-312.929
 21
-87.025
  0
LINE
  8
0
 10
-312.929
 20
-87.025
 11
-313.036
 21
-86.8028
  0
LINE
  8
0
 10
-313.036
 20
-86.8028
 11
-313.109
 21
-86.5672
  0
LINE
  8
0
 10
-313.109
 20
-86.5672
 11
-313.145
 21
-86.3233
  0
LINE
  8
0
 10
-313.145
 20
-86.3233
 11
-313.145
 21
-46.0767
  0
LINE
  8
0
 10
-313.145
 20
-46.0767
 11
-313.109
 21
-45.8328
  0
LINE
  8
0
 10
-313.109
 20
-45.8328
 11
-313.036
 21
-45.5972
  0
LINE
  8
0
 10
-313.036
 20
-45.5972
 11
-312.929
 21
-45.375
  0
LINE
  8
0
 10
-312.929
 20
-45.375
 11
-312.79
 21
-45.1712
  0
LINE
  8
0
 10
-312.79
 20
-45.1712
 11
-312.622
 21
-44.9905
  0
LINE
  8
0
 10
-312.622
 20
-44.9905
 11
-312.429
 21
-44.8367
  0
LINE
  8
0
 10
-312.429
 20
-44.8367
 11
-312.216
 21
-44.7134
  0
LINE
  8
0
 10
-312.216
 20
-44.7134
 11
-311.986
 21
-44.6233
  0
LINE
  8
0
 10
-311.986
 20
-44.6233
 11
-311.746
 21
-44.5684
  0
LINE
  8
0
 10
-311.746
 20
-44.5684
 11
-311.5
 21
-44.55
  0
LINE
  8
0
 10
-311.5
 20
-44.55
 11
-311.254
 21
-44.5684
  0
LINE
  8
0
 10
-311.254
 20
-44.5684
 11
-311.014
 21
-44.6233
  0
LINE
  8
0
 10
-311.014
 20
-44.6233
 11
-310.784
 21
-44.7134
  0
LINE
  8
0
 10
-310.784
 20
-44.7134
 11
-310.571
 21
-44.8367
  0
LINE
  8
0
 10
-310.571
 20
-44.8367
 11
-310.378
 21
-44.9905
  0
LINE
  8
0
 10
-310.378
 20
-44.9905
 11
-310.21
 21
-45.1712
  0
LINE
  8
0
 10
-310.21
 20
-45.1712
 11
-310.071
 21
-45.375
  0
LINE
  8
0
 10
-310.071
 20
-45.375
 11
-309.964
 21
-45.5972
  0
LINE
  8
0
 10
-309.964
 20
-45.5972
 11
-309.891
 21
-45.8328
  0
LINE
  8
0
 10
-309.891
 20
-45.8328
 11
-309.855
 21
-46.0767
  0
LINE
  8
0
 10
-309.855
 20
-46.0767
 11
-309.855
 21
-86.3233
  0
LINE
  8
0
 10
-309.855
 20
-86.3233
 11
-309.891
 21
-86.5672
  0
LINE
  8
0
 10
-309.891
 20
-86.5672
 11
-309.964
 21
-86.8028
  0
LINE
  8
0
 10
-309.964
 20
-86.8028
 11
-310.071
 21
-87.025
  0
LINE
  8
0
 10
-310.071
 20
-87.025
 11
-310.21
 21
-87.2288
  0
LINE
  8
0
 10
-310.21
 20
-87.2288
 11
-310.378
 21
-87.4095
  0
LINE
  8
0
 10
-310.378
 20
-87.4095
 11
-310.571
 21
-87.5633
  0
LINE
  8
0
 10
-310.571
 20
-87.5633
 11
-310.784
 21
-87.6866
  0
LINE
  8
0
 10
-310.784
 20
-87.6866
 11
-311.014
 21
-87.7767
  0
LINE
  8
0
 10
-311.014
 20
-87.7767
 11
-311.254
 21
-87.8316
  0
LINE
  8
0
 10
-311.254
 20
-87.8316
 11
-311.5
 21
-87.85
  0
LINE
  8
0
 10
-311.5
 20
-87.85
 11
-311.746
 21
-87.8316
  0
LINE
  8
0
 10
-311.892
 20
-112.429
 11
-312.28
 21
-112.368
  0
LINE
  8
0
 10
-312.28
 20
-112.368
 11
-312.659
 21
-112.266
  0
LINE
  8
0
 10
-312.659
 20
-112.266
 11
-313.025
 21
-112.126
  0
LINE
  8
0
 10
-313.025
 20
-112.126
 11
-313.375
 21
-111.948
  0
LINE
  8
0
 10
-313.375
 20
-111.948
 11
-313.704
 21
-111.734
  0
LINE
  8
0
 10
-313.704
 20
-111.734
 11
-314.009
 21
-111.487
  0
LINE
  8
0
 10
-314.009
 20
-111.487
 11
-314.287
 21
-111.209
  0
LINE
  8
0
 10
-314.287
 20
-111.209
 11
-314.534
 21
-110.904
  0
LINE
  8
0
 10
-314.534
 20
-110.904
 11
-314.748
 21
-110.575
  0
LINE
  8
0
 10
-314.748
 20
-110.575
 11
-314.926
 21
-110.225
  0
LINE
  8
0
 10
-314.926
 20
-110.225
 11
-315.066
 21
-109.859
  0
LINE
  8
0
 10
-315.066
 20
-109.859
 11
-315.168
 21
-109.48
  0
LINE
  8
0
 10
-315.168
 20
-109.48
 11
-315.229
 21
-109.092
  0
LINE
  8
0
 10
-315.229
 20
-109.092
 11
-315.25
 21
-108.7
  0
LINE
  8
0
 10
-315.25
 20
-108.7
 11
-315.229
 21
-108.308
  0
LINE
  8
0
 10
-315.229
 20
-108.308
 11
-315.168
 21
-107.92
  0
LINE
  8
0
 10
-315.168
 20
-107.92
 11
-315.066
 21
-107.541
  0
LINE
  8
0
 10
-315.066
 20
-107.541
 11
-314.926
 21
-107.175
  0
LINE
  8
0
 10
-314.926
 20
-107.175
 11
-314.748
 21
-106.825
  0
LINE
  8
0
 10
-314.748
 20
-106.825
 11
-314.534
 21
-106.496
  0
LINE
  8
0
 10
-314.534
 20
-106.496
 11
-314.287
 21
-106.191
  0
LINE
  8
0
 10
-314.287
 20
-106.191
 11
-314.009
 21
-105.913
  0
LINE
  8
0
 10
-314.009
 20
-105.913
 11
-313.704
 21
-105.666
  0
LINE
  8
0
 10
-313.704
 20
-105.666
 11
-313.375
 21
-105.452
  0
LINE
  8
0
 10
-313.375
 20
-105.452
 11
-313.025
 21
-105.274
  0
LINE
  8
0
 10
-313.025
 20
-105.274
 11
-312.659
 21
-105.134
  0
LINE
  8
0
 10
-312.659
 20
-105.134
 11
-312.28
 21
-105.032
  0
LINE
  8
0
 10
-312.28
 20
-105.032
 11
-311.892
 21
-104.971
  0
LINE
  8
0
 10
-311.892
 20
-104.971
 11
-311.5
 21
-104.95
  0
LINE
  8
0
 10
-311.5
 20
-104.95
 11
-311.108
 21
-104.971
  0
LINE
  8
0
 10
-311.108
 20
-104.971
 11
-310.72
 21
-105.032
  0
LINE
  8
0
 10
-310.72
 20
-105.032
 11
-310.341
 21
-105.134
  0
LINE
  8
0
 10
-310.341
 20
-105.134
 11
-309.975
 21
-105.274
  0
LINE
  8
0
 10
-309.975
 20
-105.274
 11
-309.625
 21
-105.452
  0
LINE
  8
0
 10
-309.625
 20
-105.452
 11
-309.296
 21
-105.666
  0
LINE
  8
0
 10
-309.296
 20
-105.666
 11
-308.991
 21
-105.913
  0
LINE
  8
0
 10
-308.991
 20
-105.913
 11
-308.713
 21
-106.191
  0
LINE
  8
0
 10
-308.713
 20
-106.191
 11
-308.466
 21
-106.496
  0
LINE
  8
0
 10
-308.466
 20
-106.496
 11
-308.252
 21
-106.825
  0
LINE
  8
0
 10
-308.252
 20
-106.825
 11
-308.074
 21
-107.175
  0
LINE
  8
0
 10
-308.074
 20
-107.175
 11
-307.934
 21
-107.541
  0
LINE
  8
0
 10
-307.934
 20
-107.541
 11
-307.832
 21
-107.92
  0
LINE
  8
0
 10
-307.832
 20
-107.92
 11
-307.771
 21
-108.308
  0
LINE
  8
0
 10
-307.771
 20
-108.308
 11
-307.75
 21
-108.7
  0
LINE
  8
0
 10
-307.75
 20
-108.7
 11
-307.771
 21
-109.092
  0
LINE
  8
0
 10
-307.771
 20
-109.092
 11
-307.832
 21
-109.48
  0
LINE
  8
0
 10
-307.832
 20
-109.48
 11
-307.934
 21
-109.859
  0
LINE
  8
0
 10
-307.934
 20
-109.859
 11
-308.074
 21
-110.225
  0
LINE
  8
0
 10
-308.074
 20
-110.225
 11
-308.252
 21
-110.575
  0
LINE
  8
0
 10
-308.252
 20
-110.575
 11
-308.466
 21
-110.904
  0
LINE
  8
0
 10
-308.466
 20
-110.904
 11
-308.713
 21
-111.209
  0
LINE
  8
0
 10
-308.713
 20
-111.209
 11
-308.991
 21
-111.487
  0
LINE
  8
0
 10
-308.991
 20
-111.487
 11
-309.296
 21
-111.734
  0
LINE
  8
0
 10
-309.296
 20
-111.734
 11
-309.625
 21
-111.948
  0
LINE
  8
0
 10
-309.625
 20
-111.948
 11
-309.975
 21
-112.126
  0
LINE
  8
0
 10
-309.975
 20
-112.126
 11
-310.341
 21
-112.266
  0
LINE
  8
0
 10
-310.341
 20
-112.266
 11
-310.72
 21
-112.368
  0
LINE
  8
0
 10
-310.72
 20
-112.368
 11
-311.108
 21
-112.429
  0
LINE
  8
0
 10
-311.108
 20
-112.429
 11
-311.5
 21
-112.45
  0
LINE
  8
0
 10
-311.5
 20
-112.45
 11
-311.892
 21
-112.429
  0
LINE
  8
0
 10
311.108
 20
-112.429
 11
310.72
 21
-112.368
  0
LINE
  8
0
 10
310.72
 20
-112.368
 11
310.341
 21
-112.266
  0
LINE
  8
0
 10
310.341
 20
-112.266
 11
309.975
 21
-112.126
  0
LINE
  8
0
 10
309.975
 20
-112.126
 11
309.625
 21
-111.948
  0
LINE
  8
0
 10
309.625
 20
-111.948
 11
309.296
 21
-111.734
  0
LINE
  8
0
 10
309.296
 20
-111.734
 11
308.991
 21
-111.487
  0
LINE
  8
0
 10
308.991
 20
-111.487
 11
308.713
 21
-111.209
  0
LINE
  8
0
 10
308.713
 20
-111.209
 11
308.466
 21
-110.904
  0
LINE
  8
0
 10
308.466
 20
-110.904
 11
308.252
 21
-110.575
  0
LINE
  8
0
 10
308.252
 20
-110.575
 11
308.074
 21
-110.225
  0
LINE
  8
0
 10
308.074
 20
-110.225
 11
307.934
 21
-109.859
  0
LINE
  8
0
 10
307.934
 20
-109.859
 11
307.832
 21
-109.48
  0
LINE
  8
0
 10
307.832
 20
-109.48
 11
307.771
 21
-109.092
  0
LINE
  8
0
 10
307.771
 20
-109.092
 11
307.75
 21
-108.7
  0
LINE
  8
0
 10
307.75
 20
-108.7
 11
307.771
 21
-108.308
  0
LINE
  8
0
 10
307.771
 20
-108.308
 11
307.832
 21
-107.92
  0
LINE
  8
0
 10
307.832
 20
-107.92
 11
307.934
 21
-107.541
  0
LINE
  8
0
 10
307.934
 20
-107.541
 11
308.074
 21
-107.175
  0
LINE
  8
0
 10
308.074
 20
-107.175
 11
308.252
 21
-106.825
  0
LINE
  8
0
 10
308.252
 20
-106.825
 11
308.466
 21
-106.496
  0
LINE
  8
0
 10
308.466
 20
-106.496
 11
308.713
 21
-106.191
  0
LINE
  8
0
 10
308.713
 20
-106.191
 11
308.991
 21
-105.913
  0
LINE
  8
0
 10
308.991
 20
-105.913
 11
309.296
 21
-105.666
  0
LINE
  8
0
 10
309.296
 20
-105.666
 11
309.625
 21
-105.452
  0
LINE
  8
0
 10
309.625
 20
-105.452
 11
309.975
 21
-105.274
  0
LINE
  8
0
 10
309.975
 20
-105.274
 11
310.341
 21
-105.134
  0
LINE
  8
0
 10
310.341
 20
-105.134
 11
310.72
 21
-105.032
  0
LINE
  8
0
 10
310.72
 20
-105.032
 11
311.108
 21
-104.971
  0
LINE
  8
0
 10
311.108
 20
-104.971
 11
311.5
 21
-104.95
  0
LINE
  8
0
 10
311.5
 20
-104.95
 11
311.892
 21
-104.971
  0
LINE
  8
0
 10
311.892
 20
-104.971
 11
312.28
 21
-105.032
  0
LINE
  8
0
 10
312.28
 20
-105.032
 11
312.659
 21
-105.134
  0
LINE
  8
0
 10
312.659
 20
-105.134
 11
313.025
 21
-105.274
  0
LINE
  8
0
 10
313.025
 20
-105.274
 11
313.375
 21
-105.452
  0
LINE
  8
0
 10
313.375
 20
-105.452
 11
313.704
 21
-105.666
  0
LINE
  8
0
 10
313.704
 20
-105.666
 11
314.009
 21
-105.913
  0
LINE
  8
0
 10
314.009
 20
-105.913
 11
314.287
 21
-106.191
  0
LINE
  8
0
 10
314.287
 20
-106.191
 11
314.534
 21
-106.496
  0
LINE
  8
0
 10
314.534
 20
-106.496
 11
314.748
 21
-106.825
  0
LINE
  8
0
 10
314.748
 20
-106.825
 11
314.926
 21
-107.175
  0
LINE
  8
0
 10
314.926
 20
-107.175
 11
315.066
 21
-107.541
  0
LINE
  8
0
 10
315.066
 20
-107.541
 11
315.168
 21
-107.92
  0
LINE
  8
0
 10
315.168
 20
-107.92
 11
315.229
 21
-108.308
  0
LINE
  8
0
 10
315.229
 20
-108.308
 11
315.25
 21
-108.7
  0
LINE
  8
0
 10
315.25
 20
-108.7
 11
315.229
 21
-109.092
  0
LINE
  8
0
 10
315.229
 20
-109.092
 11
315.168
 21
-109.48
  0
LINE
  8
0
 10
315.168
 20
-109.48
 11
315.066
 21
-109.859
  0
LINE
  8
0
 10
315.066
 20
-109.859
 11
314.926
 21
-110.225
  0
LINE
  8
0
 10
314.926
 20
-110.225
 11
314.748
 21
-110.575
  0
LINE
  8
0
 10
314.748
 20
-110.575
 11
314.534
 21
-110.904
  0
LINE
  8
0
 10
314.534
 20
-110.904
 11
314.287
 21
-111.209
  0
LINE
  8
0
 10
314.287
 20
-111.209
 11
314.009
 21
-111.487
  0
LINE
  8
0
 10
314.009
 20
-111.487
 11
313.704
 21
-111.734
  0
LINE
  8
0
 10
313.704
 20
-111.734
 11
313.375
 21
-111.948
  0
LINE
  8
0
 10
313.375
 20
-111.948
 11
313.025
 21
-112.126
  0
LINE
  8
0
 10
313.025
 20
-112.126
 11
312.659
 21
-112.266
  0
LINE
  8
0
 10
312.659
 20
-112.266
 11
312.28
 21
-112.368
  0
LINE
  8
0
 10
312.28
 20
-112.368
 11
311.892
 21
-112.429
  0
LINE
  8
0
 10
311.892
 20
-112.429
 11
311.5
 21
-112.45
  0
LINE
  8
0
 10
311.5
 20
-112.45
 11
311.108
 21
-112.429
  0
LINE
  8
0
 10
248.877
 20
-110.345
 11
248.633
 21
-110.309
  0
LINE
  8
0
 10
248.633
 20
-110.309
 11
248.397
 21
-110.236
  0
LINE
  8
0
 10
248.397
 20
-110.236
 11
248.175
 21
-110.129
  0
LINE
  8
0
 10
248.175
 20
-110.129
 11
247.971
 21
-109.99
  0
LINE
  8
0
 10
247.971
 20
-109.99
 11
247.79
 21
-109.822
  0
LINE
  8
0
 10
247.79
 20
-109.822
 11
247.637
 21
-109.629
  0
LINE
  8
0
 10
247.637
 20
-109.629
 11
247.513
 21
-109.416
  0
LINE
  8
0
 10
247.513
 20
-109.416
 11
247.423
 21
-109.186
  0
LINE
  8
0
 10
247.423
 20
-109.186
 11
247.368
 21
-108.946
  0
LINE
  8
0
 10
247.368
 20
-108.946
 11
247.35
 21
-108.7
  0
LINE
  8
0
 10
247.35
 20
-108.7
 11
247.368
 21
-108.454
  0
LINE
  8
0
 10
247.368
 20
-108.454
 11
247.423
 21
-108.214
  0
LINE
  8
0
 10
247.423
 20
-108.214
 11
247.513
 21
-107.984
  0
LINE
  8
0
 10
247.513
 20
-107.984
 11
247.637
 21
-107.771
  0
LINE
  8
0
 10
247.637
 20
-107.771
 11
247.79
 21
-107.578
  0
LINE
  8
0
 10
247.79
 20
-107.578
 11
247.971
 21
-107.41
  0
LINE
  8
0
 10
247.971
 20
-107.41
 11
248.175
 21
-107.271
  0
LINE
  8
0
 10
248.175
 20
-107.271
 11
248.397
 21
-107.164
  0
LINE
  8
0
 10
248.397
 20
-107.164
 11
248.633
 21
-107.091
  0
LINE
  8
0
 10
248.633
 20
-107.091
 11
248.877
 21
-107.055
  0
LINE
  8
0
 10
248.877
 20
-107.055
 11
289.123
 21
-107.055
  0
LINE
  8
0
 10
289.123
 20
-107.055
 11
289.367
 21
-107.091
  0
LINE
  8
0
 10
289.367
 20
-107.091
 11
289.603
 21
-107.164
  0
LINE
  8
0
 10
289.603
 20
-107.164
 11
289.825
 21
-107.271
  0
LINE
  8
0
 10
289.825
 20
-107.271
 11
290.029
 21
-107.41
  0
LINE
  8
0
 10
290.029
 20
-107.41
 11
290.21
 21
-107.578
  0
LINE
  8
0
 10
290.21
 20
-107.578
 11
290.363
 21
-107.771
  0
LINE
  8
0
 10
290.363
 20
-107.771
 11
290.487
 21
-107.984
  0
LINE
  8
0
 10
290.487
 20
-107.984
 11
290.577
 21
-108.214
  0
LINE
  8
0
 10
290.577
 20
-108.214
 11
290.632
 21
-108.454
  0
LINE
  8
0
 10
290.632
 20
-108.454
 11
290.65
 21
-108.7
  0
LINE
  8
0
 10
290.65
 20
-108.7
 11
290.632
 21
-108.946
  0
LINE
  8
0
 10
290.632
 20
-108.946
 11
290.577
 21
-109.186
  0
LINE
  8
0
 10
290.577
 20
-109.186
 11
290.487
 21
-109.416
  0
LINE
  8
0
 10
290.487
 20
-109.416
 11
290.363
 21
-109.629
  0
LINE
  8
0
 10
290.363
 20
-109.629
 11
290.21
 21
-109.822
  0
LINE
  8
0
 10
290.21
 20
-109.822
 11
290.029
 21
-109.99
  0
LINE
  8
0
 10
290.029
 20
-109.99
 11
289.825
 21
-110.129
  0
LINE
  8
0
 10
289.825
 20
-110.129
 11
289.603
 21
-110.236
  0
LINE
  8
0
 10
289.603
 20
-110.236
 11
289.367
 21
-110.309
  0
LINE
  8
0
 10
289.367
 20
-110.309
 11
289.123
 21
-110.345
  0
LINE
  8
0
 10
289.123
 20
-110.345
 11
248.877
 21
-110.345
  0
LINE
  8
0
 10
159.21
 20
-110.345
 11
158.966
 21
-110.309
  0
LINE
  8
0
 10
158.966
 20
-110.309
 11
158.731
 21
-110.236
  0
LINE
  8
0
 10
158.731
 20
-110.236
 11
158.508
 21
-110.129
  0
LINE
  8
0
 10
158.508
 20
-110.129
 11
158.305
 21
-109.99
  0
LINE
  8
0
 10
158.305
 20
-109.99
 11
158.124
 21
-109.822
  0
LINE
  8
0
 10
158.124
 20
-109.822
 11
157.97
 21
-109.629
  0
LINE
  8
0
 10
157.97
 20
-109.629
 11
157.847
 21
-109.416
  0
LINE
  8
0
 10
157.847
 20
-109.416
 11
157.757
 21
-109.186
  0
LINE
  8
0
 10
157.757
 20
-109.186
 11
157.702
 21
-108.946
  0
LINE
  8
0
 10
157.702
 20
-108.946
 11
157.683
 21
-108.7
  0
LINE
  8
0
 10
157.683
 20
-108.7
 11
157.702
 21
-108.454
  0
LINE
  8
0
 10
157.702
 20
-108.454
 11
157.757
 21
-108.214
  0
LINE
  8
0
 10
157.757
 20
-108.214
 11
157.847
 21
-107.984
  0
LINE
  8
0
 10
157.847
 20
-107.984
 11
157.97
 21
-107.771
  0
LINE
  8
0
 10
157.97
 20
-107.771
 11
158.124
 21
-107.578
  0
LINE
  8
0
 10
158.124
 20
-107.578
 11
158.305
 21
-107.41
  0
LINE
  8
0
 10
158.305
 20
-107.41
 11
158.508
 21
-107.271
  0
LINE
  8
0
 10
158.508
 20
-107.271
 11
158.731
 21
-107.164
  0
LINE
  8
0
 10
158.731
 20
-107.164
 11
158.966
 21
-107.091
  0
LINE
  8
0
 10
158.966
 20
-107.091
 11
159.21
 21
-107.055
  0
LINE
  8
0
 10
159.21
 20
-107.055
 11
199.457
 21
-107.055
  0
LINE
  8
0
 10
199.457
 20
-107.055
 11
199.701
 21
-107.091
  0
LINE
  8
0
 10
199.701
 20
-107.091
 11
199.936
 21
-107.164
  0
LINE
  8
0
 10
199.936
 20
-107.164
 11
200.158
 21
-107.271
  0
LINE
  8
0
 10
200.158
 20
-107.271
 11
200.362
 21
-107.41
  0
LINE
  8
0
 10
200.362
 20
-107.41
 11
200.543
 21
-107.578
  0
LINE
  8
0
 10
200.543
 20
-107.578
 11
200.697
 21
-107.771
  0
LINE
  8
0
 10
200.697
 20
-107.771
 11
200.82
 21
-107.984
  0
LINE
  8
0
 10
200.82
 20
-107.984
 11
200.91
 21
-108.214
  0
LINE
  8
0
 10
200.91
 20
-108.214
 11
200.965
 21
-108.454
  0
LINE
  8
0
 10
200.965
 20
-108.454
 11
200.983
 21
-108.7
  0
LINE
  8
0
 10
200.983
 20
-108.7
 11
200.965
 21
-108.946
  0
LINE
  8
0
 10
200.965
 20
-108.946
 11
200.91
 21
-109.186
  0
LINE
  8
0
 10
200.91
 20
-109.186
 11
200.82
 21
-109.416
  0
LINE
  8
0
 10
200.82
 20
-109.416
 11
200.697
 21
-109.629
  0
LINE
  8
0
 10
200.697
 20
-109.629
 11
200.543
 21
-109.822
  0
LINE
  8
0
 10
200.543
 20
-109.822
 11
200.362
 21
-109.99
  0
LINE
  8
0
 10
200.362
 20
-109.99
 11
200.158
 21
-110.129
  0
LINE
  8
0
 10
200.158
 20
-110.129
 11
199.936
 21
-110.236
  0
LINE
  8
0
 10
199.936
 20
-110.236
 11
199.701
 21
-110.309
  0
LINE
  8
0
 10
199.701
 20
-110.309
 11
199.457
 21
-110.345
  0
LINE
  8
0
 10
199.457
 20
-110.345
 11
159.21
 21
-110.345
  0
LINE
  8
0
 10
-199.457
 20
-110.345
 11
-199.701
 21
-110.309
  0
LINE
  8
0
 10
-199.701
 20
-110.309
 11
-199.936
 21
-110.236
  0
LINE
  8
0
 10
-199.936
 20
-110.236
 11
-200.158
 21
-110.129
  0
LINE
  8
0
 10
-200.158
 20
-110.129
 11
-200.362
 21
-109.99
  0
LINE
  8
0
 10
-200.362
 20
-109.99
 11
-200.543
 21
-109.822
  0
LINE
  8
0
 10
-200.543
 20
-109.822
 11
-200.697
 21
-109.629
  0
LINE
  8
0
 10
-200.697
 20
-109.629
 11
-200.82
 21
-109.416
  0
LINE
  8
0
 10
-200.82
 20
-109.416
 11
-200.91
 21
-109.186
  0
LINE
  8
0
 10
-200.91
 20
-109.186
 11
-200.965
 21
-108.946
  0
LINE
  8
0
 10
-200.965
 20
-108.946
 11
-200.983
 21
-108.7
  0
LINE
  8
0
 10
-200.983
 20
-108.7
 11
-200.965
 21
-108.454
  0
LINE
  8
0
 10
-200.965
 20
-108.454
 11
-200.91
 21
-108.214
  0
LINE
  8
0
 10
-200.91
 20
-108.214
 11
-200.82
 21
-107.984
  0
LINE
  8
0
 10
-200.82
 20
-107.984
 11
-200.697
 21
-107.771
  0
LINE
  8
0
 10
-200.697
 20
-107.771
 11
-200.543
 21
-107.578
  0
LINE
  8
0
 10
-200.543
 20
-107.578
 11
-200.362
 21
-107.41
  0
LINE
  8
0
 10
-200.362
 20
-107.41
 11
-200.158
 21
-107.271
  0
LINE
  8
0
 10
-200.158
 20
-107.271
 11
-199.936
 21
-107.164
  0
LINE
  8
0
 10
-199.936
 20
-107.164
 11
-199.701
 21
-107.091
  0
LINE
  8
0
 10
-199.701
 20
-107.091
 11
-199.457
 21
-107.055
  0
LINE
  8
0
 10
-199.457
 20
-107.055
 11
-159.21
 21
-107.055
  0
LINE
  8
0
 10
-159.21
 20
-107.055
 11
-158.966
 21
-107.091
  0
LINE
  8
0
 10
-158.966
 20
-107.091
 11
-158.731
 21
-107.164
  0
LINE
  8
0
 10
-158.731
 20
-107.164
 11
-158.508
 21
-107.271
  0
LINE
  8
0
 10
-158.508
 20
-107.271
 11
-158.305
 21
-107.41
  0
LINE
  8
0
 10
-158.305
 20
-107.41
 11
-158.124
 21
-107.578
  0
LINE
  8
0
 10
-158.124
 20
-107.578
 11
-157.97
 21
-107.771
  0
LINE
  8
0
 10
-157.97
 20
-107.771
 11
-157.847
 21
-107.984
  0
LINE
  8
0
 10
-157.847
 20
-107.984
 11
-157.757
 21
-108.214
  0
LINE
  8
0
 10
-157.757
 20
-108.214
 11
-157.702
 21
-108.454
  0
LINE
  8
0
 10
-157.702
 20
-108.454
 11
-157.683
 21
-108.7
  0
LINE
  8
0
 10
-157.683
 20
-108.7
 11
-157.702
 21
-108.946
  0
LINE
  8
0
 10
-157.702
 20
-108.946
 11
-157.757
 21
-109.186
  0
LINE
  8
0
 10
-157.757
 20
-109.186
 11
-157.847
 21
-109.416
  0
LINE
  8
0
 10
-157.847
 20
-109.416
 11
-157.97
 21
-109.629
  0
LINE
  8
0
 10
-157.97
 20
-109.629
 11
-158.124
 21
-109.822
  0
LINE
  8
0
 10
-158.124
 20
-109.822
 11
-158.305
 21
-109.99
  0
LINE
  8
0
 10
-158.305
 20
-109.99
 11
-158.508
 21
-110.129
  0
LINE
  8
0
 10
-158.508
 20
-110.129
 11
-158.731
 21
-110.236
  0
LINE
  8
0
 10
-158.731
 20
-110.236
 11
-158.966
 21
-110.309
  0
LINE
  8
0
 10
-158.966
 20
-110.309
 11
-159.21
 21
-110.345
  0
LINE
  8
0
 10
-159.21
 20
-110.345
 11
-199.457
 21
-110.345
  0
LINE
  8
0
 10
-289.123
 20
-110.345
 11
-289.367
 21
-110.309
  0
LINE
  8
0
 10
-289.367
 20
-110.309
 11
-289.603
 21
-110.236
  0
LINE
  8
0
 10
-289.603
 20
-110.236
 11
-289.825
 21
-110.129
  0
LINE
  8
0
 10
-289.825
 20
-110.129
 11
-290.029
 21
-109.99
  0
LINE
  8
0
 10
-290.029
 20
-109.99
 11
-290.21
 21
-109.822
  0
LINE
  8
0
 10
-290.21
 20
-109.822
 11
-290.363
 21
-109.629
  0
LINE
  8
0
 10
-290.363
 20
-109.629
 11
-290.487
 21
-109.416
  0
LINE
  8
0
 10
-290.487
 20
-109.416
 11
-290.577
 21
-109.186
  0
LINE
  8
0
 10
-290.577
 20
-109.186
 11
-290.632
 21
-108.946
  0
LINE
  8
0
 10
-290.632
 20
-108.946
 11
-290.65
 21
-108.7
  0
LINE
  8
0
 10
-290.65
 20
-108.7
 11
-290.632
 21
-108.454
  0
LINE
  8
0
 10
-290.632
 20
-108.454
 11
-290.577
 21
-108.214
  0
LINE
  8
0
 10
-290.577
 20
-108.214
 11
-290.487
 21
-107.984
  0
LINE
  8
0
 10
-290.487
 20
-107.984
 11
-290.363
 21
-107.771
  0
LINE
  8
0
 10
-290.363
 20
-107.771
 11
-290.21
 21
-107.578
  0
LINE
  8
0
 10
-290.21
 20
-107.578
 11
-290.029
 21
-107.41
  0
LINE
  8
0
 10
-290.029
 20
-107.41
 11
-289.825
 21
-107.271
  0
LINE
  8
0
 10
-289.825
 20
-107.271
 11
-289.603
 21
-107.164
  0
LINE
  8
0
 10
-289.603
 20
-107.164
 11
-289.367
 21
-107.091
  0
LINE
  8
0
 10
-289.367
 20
-107.091
 11
-289.123
 21
-107.055
  0
LINE
  8
0
 10
-289.123
 20
-107.055
 11
-248.877
 21
-107.055
  0
LINE
  8
0
 10
-248.877
 20
-107.055
 11
-248.633
 21
-107.091
  0
LINE
  8
0
 10
-248.633
 20
-107.091
 11
-248.397
 21
-107.164
  0
LINE
  8
0
 10
-248.397
 20
-107.164
 11
-248.175
 21
-107.271
  0
LINE
  8
0
 10
-248.175
 20
-107.271
 11
-247.971
 21
-107.41
  0
LINE
  8
0
 10
-247.971
 20
-107.41
 11
-247.79
 21
-107.578
  0
LINE
  8
0
 10
-247.79
 20
-107.578
 11
-247.637
 21
-107.771
  0
LINE
  8
0
 10
-247.637
 20
-107.771
 11
-247.513
 21
-107.984
  0
LINE
  8
0
 10
-247.513
 20
-107.984
 11
-247.423
 21
-108.214
  0
LINE
  8
0
 10
-247.423
 20
-108.214
 11
-247.368
 21
-108.454
  0
LINE
  8
0
 10
-247.368
 20
-108.454
 11
-247.35
 21
-108.7
  0
LINE
  8
0
 10
-247.35
 20
-108.7
 11
-247.368
 21
-108.946
  0
LINE
  8
0
 10
-247.368
 20
-108.946
 11
-247.423
 21
-109.186
  0
LINE
  8
0
 10
-247.423
 20
-109.186
 11
-247.513
 21
-109.416
  0
LINE
  8
0
 10
-247.513
 20
-109.416
 11
-247.637
 21
-109.629
  0
LINE
  8
0
 10
-247.637
 20
-109.629
 11
-247.79
 21
-109.822
  0
LINE
  8
0
 10
-247.79
 20
-109.822
 11
-247.971
 21
-109.99
  0
LINE
  8
0
 10
-247.971
 20
-109.99
 11
-248.175
 21
-110.129
  0
LINE
  8
0
 10
-248.175
 20
-110.129
 11
-248.397
 21
-110.236
  0
LINE
  8
0
 10
-248.397
 20
-110.236
 11
-248.633
 21
-110.309
  0
LINE
  8
0
 10
-248.633
 20
-110.309
 11
-248.877
 21
-110.345
  0
LINE
  8
0
 10
-248.877
 20
-110.345
 11
-289.123
 21
-110.345
  0
LINE
  8
0
 10
69.5434
 20
-110.345
 11
69.2995
 21
-110.309
  0
LINE
  8
0
 10
69.2995
 20
-110.309
 11
69.0638
 21
-110.236
  0
LINE
  8
0
 10
69.0638
 20
-110.236
 11
68.8417
 21
-110.129
  0
LINE
  8
0
 10
68.8417
 20
-110.129
 11
68.6379
 21
-109.99
  0
LINE
  8
0
 10
68.6379
 20
-109.99
 11
68.4571
 21
-109.822
  0
LINE
  8
0
 10
68.4571
 20
-109.822
 11
68.3034
 21
-109.629
  0
LINE
  8
0
 10
68.3034
 20
-109.629
 11
68.1801
 21
-109.416
  0
LINE
  8
0
 10
68.1801
 20
-109.416
 11
68.09
 21
-109.186
  0
LINE
  8
0
 10
68.09
 20
-109.186
 11
68.0351
 21
-108.946
  0
LINE
  8
0
 10
68.0351
 20
-108.946
 11
68.0167
 21
-108.7
  0
LINE
  8
0
 10
68.0167
 20
-108.7
 11
68.0351
 21
-108.454
  0
LINE
  8
0
 10
68.0351
 20
-108.454
 11
68.09
 21
-108.214
  0
LINE
  8
0
 10
68.09
 20
-108.214
 11
68.1801
 21
-107.984
  0
LINE
  8
0
 10
68.1801
 20
-107.984
 11
68.3034
 21
-107.771
  0
LINE
  8
0
 10
68.3034
 20
-107.771
 11
68.4571
 21
-107.578
  0
LINE
  8
0
 10
68.4571
 20
-107.578
 11
68.6379
 21
-107.41
  0
LINE
  8
0
 10
68.6379
 20
-107.41
 11
68.8417
 21
-107.271
  0
LINE
  8
0
 10
68.8417
 20
-107.271
 11
69.0638
 21
-107.164
  0
LINE
  8
0
 10
69.0638
 20
-107.164
 11
69.2995
 21
-107.091
  0
LINE
  8
0
 10
69.2995
 20
-107.091
 11
69.5434
 21
-107.055
  0
LINE
  8
0
 10
69.5434
 20
-107.055
 11
109.79
 21
-107.055
  0
LINE
  8
0
 10
109.79
 20
-107.055
 11
110.034
 21
-107.091
  0
LINE
  8
0
 10
110.034
 20
-107.091
 11
110.269
 21
-107.164
  0
LINE
  8
0
 10
110.269
 20
-107.164
 11
110.492
 21
-107.271
  0
LINE
  8
0
 10
110.492
 20
-107.271
 11
110.695
 21
-107.41
  0
LINE
  8
0
 10
110.695
 20
-107.41
 11
110.876
 21
-107.578
  0
LINE
  8
0
 10
110.876
 20
-107.578
 11
111.03
 21
-107.771
  0
LINE
  8
0
 10
111.03
 20
-107.771
 11
111.153
 21
-107.984
  0
LINE
  8
0
 10
111.153
 20
-107.984
 11
111.243
 21
-108.214
  0
LINE
  8
0
 10
111.243
 20
-108.214
 11
111.298
 21
-108.454
  0
LINE
  8
0
 10
111.298
 20
-108.454
 11
111.317
 21
-108.7
  0
LINE
  8
0
 10
111.317
 20
-108.7
 11
111.298
 21
-108.946
  0
LINE
  8
0
 10
111.298
 20
-108.946
 11
111.243
 21
-109.186
  0
LINE
  8
0
 10
111.243
 20
-109.186
 11
111.153
 21
-109.416
  0
LINE
  8
0
 10
111.153
 20
-109.416
 11
111.03
 21
-109.629
  0
LINE
  8
0
 10
111.03
 20
-109.629
 11
110.876
 21
-109.822
  0
LINE
  8
0
 10
110.876
 20
-109.822
 11
110.695
 21
-109.99
  0
LINE
  8
0
 10
110.695
 20
-109.99
 11
110.492
 21
-110.129
  0
LINE
  8
0
 10
110.492
 20
-110.129
 11
110.269
 21
-110.236
  0
LINE
  8
0
 10
110.269
 20
-110.236
 11
110.034
 21
-110.309
  0
LINE
  8
0
 10
110.034
 20
-110.309
 11
109.79
 21
-110.345
  0
LINE
  8
0
 10
109.79
 20
-110.345
 11
69.5434
 21
-110.345
  0
LINE
  8
0
 10
-20.1233
 20
-110.345
 11
-20.3672
 21
-110.309
  0
LINE
  8
0
 10
-20.3672
 20
-110.309
 11
-20.6028
 21
-110.236
  0
LINE
  8
0
 10
-20.6028
 20
-110.236
 11
-20.825
 21
-110.129
  0
LINE
  8
0
 10
-20.825
 20
-110.129
 11
-21.0287
 21
-109.99
  0
LINE
  8
0
 10
-21.0287
 20
-109.99
 11
-21.2095
 21
-109.822
  0
LINE
  8
0
 10
-21.2095
 20
-109.822
 11
-21.3633
 21
-109.629
  0
LINE
  8
0
 10
-21.3633
 20
-109.629
 11
-21.4866
 21
-109.416
  0
LINE
  8
0
 10
-21.4866
 20
-109.416
 11
-21.5767
 21
-109.186
  0
LINE
  8
0
 10
-21.5767
 20
-109.186
 11
-21.6316
 21
-108.946
  0
LINE
  8
0
 10
-21.6316
 20
-108.946
 11
-21.65
 21
-108.7
  0
LINE
  8
0
 10
-21.65
 20
-108.7
 11
-21.6316
 21
-108.454
  0
LINE
  8
0
 10
-21.6316
 20
-108.454
 11
-21.5767
 21
-108.214
  0
LINE
  8
0
 10
-21.5767
 20
-108.214
 11
-21.4866
 21
-107.984
  0
LINE
  8
0
 10
-21.4866
 20
-107.984
 11
-21.3633
 21
-107.771
  0
LINE
  8
0
 10
-21.3633
 20
-107.771
 11
-21.2095
 21
-107.578
  0
LINE
  8
0
 10
-21.2095
 20
-107.578
 11
-21.0287
 21
-107.41
  0
LINE
  8
0
 10
-21.0287
 20
-107.41
 11
-20.825
 21
-107.271
  0
LINE
  8
0
 10
-20.825
 20
-107.271
 11
-20.6028
 21
-107.164
  0
LINE
  8
0
 10
-20.6028
 20
-107.164
 11
-20.3672
 21
-107.091
  0
LINE
  8
0
 10
-20.3672
 20
-107.091
 11
-20.1233
 21
-107.055
  0
LINE
  8
0
 10
-20.1233
 20
-107.055
 11
20.1233
 21
-107.055
  0
LINE
  8
0
 10
20.1233
 20
-107.055
 11
20.3672
 21
-107.091
  0
LINE
  8
0
 10
20.3672
 20
-107.091
 11
20.6028
 21
-107.164
  0
LINE
  8
0
 10
20.6028
 20
-107.164
 11
20.825
 21
-107.271
  0
LINE
  8
0
 10
20.825
 20
-107.271
 11
21.0287
 21
-107.41
  0
LINE
  8
0
 10
21.0287
 20
-107.41
 11
21.2095
 21
-107.578
  0
LINE
  8
0
 10
21.2095
 20
-107.578
 11
21.3633
 21
-107.771
  0
LINE
  8
0
 10
21.3633
 20
-107.771
 11
21.4866
 21
-107.984
  0
LINE
  8
0
 10
21.4866
 20
-107.984
 11
21.5767
 21
-108.214
  0
LINE
  8
0
 10
21.5767
 20
-108.214
 11
21.6316
 21
-108.454
  0
LINE
  8
0
 10
21.6316
 20
-108.454
 11
21.65
 21
-108.7
  0
LINE
  8
0
 10
21.65
 20
-108.7
 11
21.6316
 21
-108.946
  0
LINE
  8
0
 10
21.6316
 20
-108.946
 11
21.5767
 21
-109.186
  0
LINE
  8
0
 10
21.5767
 20
-109.186
 11
21.4866
 21
-109.416
  0
LINE
  8
0
 10
21.4866
 20
-109.416
 11
21.3633
 21
-109.629
  0
LINE
  8
0
 10
21.3633
 20
-109.629
 11
21.2095
 21
-109.822
  0
LINE
  8
0
 10
21.2095
 20
-109.822
 11
21.0287
 21
-109.99
  0
LINE
  8
0
 10
21.0287
 20
-109.99
 11
20.825
 21
-110.129
  0
LINE
  8
0
 10
20.825
 20
-110.129
 11
20.6028
 21
-110.236
  0
LINE
  8
0
 10
20.6028
 20
-110.236
 11
20.3672
 21
-110.309
  0
LINE
  8
0
 10
20.3672
 20
-110.309
 11
20.1233
 21
-110.345
  0
LINE
  8
0
 10
20.1233
 20
-110.345
 11
-20.1233
 21
-110.345
  0
LINE
  8
0
 10
-109.79
 20
-110.345
 11
-110.034
 21
-110.309
  0
LINE
  8
0
 10
-110.034
 20
-110.309
 11
-110.269
 21
-110.236
  0
LINE
  8
0
 10
-110.269
 20
-110.236
 11
-110.492
 21
-110.129
  0
LINE
  8
0
 10
-110.492
 20
-110.129
 11
-110.695
 21
-109.99
  0
LINE
  8
0
 10
-110.695
 20
-109.99
 11
-110.876
 21
-109.822
  0
LINE
  8
0
 10
-110.876
 20
-109.822
 11
-111.03
 21
-109.629
  0
LINE
  8
0
 10
-111.03
 20
-109.629
 11
-111.153
 21
-109.416
  0
LINE
  8
0
 10
-111.153
 20
-109.416
 11
-111.243
 21
-109.186
  0
LINE
  8
0
 10
-111.243
 20
-109.186
 11
-111.298
 21
-108.946
  0
LINE
  8
0
 10
-111.298
 20
-108.946
 11
-111.317
 21
-108.7
  0
LINE
  8
0
 10
-111.317
 20
-108.7
 11
-111.298
 21
-108.454
  0
LINE
  8
0
 10
-111.298
 20
-108.454
 11
-111.243
 21
-108.214
  0
LINE
  8
0
 10
-111.243
 20
-108.214
 11
-111.153
 21
-107.984
  0
LINE
  8
0
 10
-111.153
 20
-107.984
 11
-111.03
 21
-107.771
  0
LINE
  8
0
 10
-111.03
 20
-107.771
 11
-110.876
 21
-107.578
  0
LINE
  8
0
 10
-110.876
 20
-107.578
 11
-110.695
 21
-107.41
  0
LINE
  8
0
 10
-110.695
 20
-107.41
 11
-110.492
 21
-107.271
  0
LINE
  8
0
 10
-110.492
 20
-107.271
 11
-110.269
 21
-107.164
  0
LINE
  8
0
 10
-110.269
 20
-107.164
 11
-110.034
 21
-107.091
  0
LINE
  8
0
 10
-110.034
 20
-107.091
 11
-109.79
 21
-107.055
  0
LINE
  8
0
 10
-109.79
 20
-107.055
 11
-69.5434
 21
-107.055
  0
LINE
  8
0
 10
-69.5434
 20
-107.055
 11
-69.2995
 21
-107.091
  0
LINE
  8
0
 10
-69.2995
 20
-107.091
 11
-69.0638
 21
-107.164
  0
LINE
  8
0
 10
-69.0638
 20
-107.164
 11
-68.8417
 21
-107.271
  0
LINE
  8
0
 10
-68.8417
 20
-107.271
 11
-68.6379
 21
-107.41
  0
LINE
  8
0
 10
-68.6379
 20
-107.41
 11
-68.4571
 21
-107.578
  0
LINE
  8
0
 10
-68.4571
 20
-107.578
 11
-68.3034
 21
-107.771
  0
LINE
  8
0
 10
-68.3034
 20
-107.771
 11
-68.1801
 21
-107.984
  0
LINE
  8
0
 10
-68.1801
 20
-107.984
 11
-68.09
 21
-108.214
  0
LINE
  8
0
 10
-68.09
 20
-108.214
 11
-68.0351
 21
-108.454
  0
LINE
  8
0
 10
-68.0351
 20
-108.454
 11
-68.0167
 21
-108.7
  0
LINE
  8
0
 10
-68.0167
 20
-108.7
 11
-68.0351
 21
-108.946
  0
LINE
  8
0
 10
-68.0351
 20
-108.946
 11
-68.09
 21
-109.186
  0
LINE
  8
0
 10
-68.09
 20
-109.186
 11
-68.1801
 21
-109.416
  0
LINE
  8
0
 10
-68.1801
 20
-109.416
 11
-68.3034
 21
-109.629
  0
LINE
  8
0
 10
-68.3034
 20
-109.629
 11
-68.4571
 21
-109.822
  0
LINE
  8
0
 10
-68.4571
 20
-109.822
 11
-68.6379
 21
-109.99
  0
LINE
  8
0
 10
-68.6379
 20
-109.99
 11
-68.8417
 21
-110.129
  0
LINE
  8
0
 10
-68.8417
 20
-110.129
 11
-69.0638
 21
-110.236
  0
LINE
  8
0
 10
-69.0638
 20
-110.236
 11
-69.2995
 21
-110.309
  0
LINE
  8
0
 10
-69.2995
 20
-110.309
 11
-69.5434
 21
-110.345
  0
LINE
  8
0
 10
-69.5434
 20
-110.345
 11
-109.79
 21
-110.345
  0
ENDSEC
  0
SECTION
  2
OBJECTS
  0
DICTIONARY
  0
ENDSEC
  0
EOF
