  0
SECTION
  2
BLOCKS
  0
ENDSEC
  0
SECTION
  2
ENTITIES
  0
LINE
  8
0
 10
227.898
 20
-227.348
 11
228.415
 21
-227.266
  0
LINE
  8
0
 10
228.415
 20
-227.266
 11
228.92
 21
-227.13
  0
LINE
  8
0
 10
228.92
 20
-227.13
 11
229.409
 21
-226.943
  0
LINE
  8
0
 10
229.409
 20
-226.943
 11
229.875
 21
-226.705
  0
LINE
  8
0
 10
229.875
 20
-226.705
 11
230.314
 21
-226.42
  0
LINE
  8
0
 10
230.314
 20
-226.42
 11
230.721
 21
-226.091
  0
LINE
  8
0
 10
230.721
 20
-226.091
 11
231.091
 21
-225.721
  0
LINE
  8
0
 10
231.091
 20
-225.721
 11
231.42
 21
-225.314
  0
LINE
  8
0
 10
231.42
 20
-225.314
 11
231.705
 21
-224.875
  0
LINE
  8
0
 10
231.705
 20
-224.875
 11
231.943
 21
-224.409
  0
LINE
  8
0
 10
231.943
 20
-224.409
 11
232.13
 21
-223.92
  0
LINE
  8
0
 10
232.13
 20
-223.92
 11
232.266
 21
-223.415
  0
LINE
  8
0
 10
232.266
 20
-223.415
 11
232.348
 21
-222.898
  0
LINE
  8
0
 10
232.348
 20
-222.898
 11
232.375
 21
-222.375
  0
LINE
  8
0
 10
232.375
 20
-222.375
 11
232.375
 21
222.375
  0
LINE
  8
0
 10
232.375
 20
222.375
 11
232.348
 21
222.898
  0
LINE
  8
0
 10
232.348
 20
222.898
 11
232.266
 21
223.415
  0
LINE
  8
0
 10
232.266
 20
223.415
 11
232.13
 21
223.92
  0
LINE
  8
0
 10
232.13
 20
223.92
 11
231.943
 21
224.409
  0
LINE
  8
0
 10
231.943
 20
224.409
 11
231.705
 21
224.875
  0
LINE
  8
0
 10
231.705
 20
224.875
 11
231.42
 21
225.314
  0
LINE
  8
0
 10
231.42
 20
225.314
 11
231.091
 21
225.721
  0
LINE
  8
0
 10
231.091
 20
225.721
 11
230.721
 21
226.091
  0
LINE
  8
0
 10
230.721
 20
226.091
 11
230.314
 21
226.42
  0
LINE
  8
0
 10
230.314
 20
226.42
 11
229.875
 21
226.705
  0
LINE
  8
0
 10
229.875
 20
226.705
 11
229.409
 21
226.943
  0
LINE
  8
0
 10
229.409
 20
226.943
 11
228.92
 21
227.13
  0
LINE
  8
0
 10
228.92
 20
227.13
 11
228.415
 21
227.266
  0
LINE
  8
0
 10
228.415
 20
227.266
 11
227.898
 21
227.348
  0
LINE
  8
0
 10
227.898
 20
227.348
 11
227.375
 21
227.375
  0
LINE
  8
0
 10
227.375
 20
227.375
 11
-227.375
 21
227.375
  0
LINE
  8
0
 10
-227.375
 20
227.375
 11
-227.898
 21
227.348
  0
LINE
  8
0
 10
-227.898
 20
227.348
 11
-228.415
 21
227.266
  0
LINE
  8
0
 10
-228.415
 20
227.266
 11
-228.92
 21
227.13
  0
LINE
  8
0
 10
-228.92
 20
227.13
 11
-229.409
 21
226.943
  0
LINE
  8
0
 10
-229.409
 20
226.943
 11
-229.875
 21
226.705
  0
LINE
  8
0
 10
-229.875
 20
226.705
 11
-230.314
 21
226.42
  0
LINE
  8
0
 10
-230.314
 20
226.42
 11
-230.721
 21
226.091
  0
LINE
  8
0
 10
-230.721
 20
226.091
 11
-231.091
 21
225.721
  0
LINE
  8
0
 10
-231.091
 20
225.721
 11
-231.42
 21
225.314
  0
LINE
  8
0
 10
-231.42
 20
225.314
 11
-231.705
 21
224.875
  0
LINE
  8
0
 10
-231.705
 20
224.875
 11
-231.943
 21
224.409
  0
LINE
  8
0
 10
-231.943
 20
224.409
 11
-232.13
 21
223.92
  0
LINE
  8
0
 10
-232.13
 20
223.92
 11
-232.266
 21
223.415
  0
LINE
  8
0
 10
-232.266
 20
223.415
 11
-232.348
 21
222.898
  0
LINE
  8
0
 10
-232.348
 20
222.898
 11
-232.375
 21
222.375
  0
LINE
  8
0
 10
-232.375
 20
222.375
 11
-232.375
 21
-222.375
  0
LINE
  8
0
 10
-232.375
 20
-222.375
 11
-232.348
 21
-222.898
  0
LINE
  8
0
 10
-232.348
 20
-222.898
 11
-232.266
 21
-223.415
  0
LINE
  8
0
 10
-232.266
 20
-223.415
 11
-232.13
 21
-223.92
  0
LINE
  8
0
 10
-232.13
 20
-223.92
 11
-231.943
 21
-224.409
  0
LINE
  8
0
 10
-231.943
 20
-224.409
 11
-231.705
 21
-224.875
  0
LINE
  8
0
 10
-231.705
 20
-224.875
 11
-231.42
 21
-225.314
  0
LINE
  8
0
 10
-231.42
 20
-225.314
 11
-231.091
 21
-225.721
  0
LINE
  8
0
 10
-231.091
 20
-225.721
 11
-230.721
 21
-226.091
  0
LINE
  8
0
 10
-230.721
 20
-226.091
 11
-230.314
 21
-226.42
  0
LINE
  8
0
 10
-230.314
 20
-226.42
 11
-229.875
 21
-226.705
  0
LINE
  8
0
 10
-229.875
 20
-226.705
 11
-229.409
 21
-226.943
  0
LINE
  8
0
 10
-229.409
 20
-226.943
 11
-228.92
 21
-227.13
  0
LINE
  8
0
 10
-228.92
 20
-227.13
 11
-228.415
 21
-227.266
  0
LINE
  8
0
 10
-228.415
 20
-227.266
 11
-227.898
 21
-227.348
  0
LINE
  8
0
 10
-227.898
 20
-227.348
 11
-227.375
 21
-227.375
  0
LINE
  8
0
 10
-227.375
 20
-227.375
 11
227.375
 21
-227.375
  0
LINE
  8
0
 10
227.375
 20
-227.375
 11
227.898
 21
-227.348
  0
LINE
  8
0
 10
221.977
 20
212.527
 11
221.46
 21
212.609
  0
LINE
  8
0
 10
221.46
 20
212.609
 11
220.955
 21
212.745
  0
LINE
  8
0
 10
220.955
 20
212.745
 11
220.466
 21
212.932
  0
LINE
  8
0
 10
220.466
 20
212.932
 11
220
 21
213.17
  0
LINE
  8
0
 10
220
 20
213.17
 11
219.561
 21
213.455
  0
LINE
  8
0
 10
219.561
 20
213.455
 11
219.154
 21
213.784
  0
LINE
  8
0
 10
219.154
 20
213.784
 11
218.784
 21
214.154
  0
LINE
  8
0
 10
218.784
 20
214.154
 11
218.455
 21
214.561
  0
LINE
  8
0
 10
218.455
 20
214.561
 11
218.17
 21
215
  0
LINE
  8
0
 10
218.17
 20
215
 11
217.932
 21
215.466
  0
LINE
  8
0
 10
217.932
 20
215.466
 11
217.745
 21
215.955
  0
LINE
  8
0
 10
217.745
 20
215.955
 11
217.609
 21
216.46
  0
LINE
  8
0
 10
217.609
 20
216.46
 11
217.527
 21
216.977
  0
LINE
  8
0
 10
217.527
 20
216.977
 11
217.5
 21
217.5
  0
LINE
  8
0
 10
217.5
 20
217.5
 11
217.527
 21
218.023
  0
LINE
  8
0
 10
217.527
 20
218.023
 11
217.609
 21
218.54
  0
LINE
  8
0
 10
217.609
 20
218.54
 11
217.745
 21
219.045
  0
LINE
  8
0
 10
217.745
 20
219.045
 11
217.932
 21
219.534
  0
LINE
  8
0
 10
217.932
 20
219.534
 11
218.17
 21
220
  0
LINE
  8
0
 10
218.17
 20
220
 11
218.455
 21
220.439
  0
LINE
  8
0
 10
218.455
 20
220.439
 11
218.784
 21
220.846
  0
LINE
  8
0
 10
218.784
 20
220.846
 11
219.154
 21
221.216
  0
LINE
  8
0
 10
219.154
 20
221.216
 11
219.561
 21
221.545
  0
LINE
  8
0
 10
219.561
 20
221.545
 11
220
 21
221.83
  0
LINE
  8
0
 10
220
 20
221.83
 11
220.466
 21
222.068
  0
LINE
  8
0
 10
220.466
 20
222.068
 11
220.955
 21
222.255
  0
LINE
  8
0
 10
220.955
 20
222.255
 11
221.46
 21
222.391
  0
LINE
  8
0
 10
221.46
 20
222.391
 11
221.977
 21
222.473
  0
LINE
  8
0
 10
221.977
 20
222.473
 11
222.5
 21
222.5
  0
LINE
  8
0
 10
222.5
 20
222.5
 11
223.023
 21
222.473
  0
LINE
  8
0
 10
223.023
 20
222.473
 11
223.54
 21
222.391
  0
LINE
  8
0
 10
223.54
 20
222.391
 11
224.045
 21
222.255
  0
LINE
  8
0
 10
224.045
 20
222.255
 11
224.534
 21
222.068
  0
LINE
  8
0
 10
224.534
 20
222.068
 11
225
 21
221.83
  0
LINE
  8
0
 10
225
 20
221.83
 11
225.439
 21
221.545
  0
LINE
  8
0
 10
225.439
 20
221.545
 11
225.846
 21
221.216
  0
LINE
  8
0
 10
225.846
 20
221.216
 11
226.216
 21
220.846
  0
LINE
  8
0
 10
226.216
 20
220.846
 11
226.545
 21
220.439
  0
LINE
  8
0
 10
226.545
 20
220.439
 11
226.83
 21
220
  0
LINE
  8
0
 10
226.83
 20
220
 11
227.068
 21
219.534
  0
LINE
  8
0
 10
227.068
 20
219.534
 11
227.255
 21
219.045
  0
LINE
  8
0
 10
227.255
 20
219.045
 11
227.391
 21
218.54
  0
LINE
  8
0
 10
227.391
 20
218.54
 11
227.473
 21
218.023
  0
LINE
  8
0
 10
227.473
 20
218.023
 11
227.5
 21
217.5
  0
LINE
  8
0
 10
227.5
 20
217.5
 11
227.473
 21
216.977
  0
LINE
  8
0
 10
227.473
 20
216.977
 11
227.391
 21
216.46
  0
LINE
  8
0
 10
227.391
 20
216.46
 11
227.255
 21
215.955
  0
LINE
  8
0
 10
227.255
 20
215.955
 11
227.068
 21
215.466
  0
LINE
  8
0
 10
227.068
 20
215.466
 11
226.83
 21
215
  0
LINE
  8
0
 10
226.83
 20
215
 11
226.545
 21
214.561
  0
LINE
  8
0
 10
226.545
 20
214.561
 11
226.216
 21
214.154
  0
LINE
  8
0
 10
226.216
 20
214.154
 11
225.846
 21
213.784
  0
LINE
  8
0
 10
225.846
 20
213.784
 11
225.439
 21
213.455
  0
LINE
  8
0
 10
225.439
 20
213.455
 11
225
 21
213.17
  0
LINE
  8
0
 10
225
 20
213.17
 11
224.534
 21
212.932
  0
LINE
  8
0
 10
224.534
 20
212.932
 11
224.045
 21
212.745
  0
LINE
  8
0
 10
224.045
 20
212.745
 11
223.54
 21
212.609
  0
LINE
  8
0
 10
223.54
 20
212.609
 11
223.023
 21
212.527
  0
LINE
  8
0
 10
223.023
 20
212.527
 11
222.5
 21
212.5
  0
LINE
  8
0
 10
222.5
 20
212.5
 11
221.977
 21
212.527
  0
LINE
  8
0
 10
-223.023
 20
212.527
 11
-223.54
 21
212.609
  0
LINE
  8
0
 10
-223.54
 20
212.609
 11
-224.045
 21
212.745
  0
LINE
  8
0
 10
-224.045
 20
212.745
 11
-224.534
 21
212.932
  0
LINE
  8
0
 10
-224.534
 20
212.932
 11
-225
 21
213.17
  0
LINE
  8
0
 10
-225
 20
213.17
 11
-225.439
 21
213.455
  0
LINE
  8
0
 10
-225.439
 20
213.455
 11
-225.846
 21
213.784
  0
LINE
  8
0
 10
-225.846
 20
213.784
 11
-226.216
 21
214.154
  0
LINE
  8
0
 10
-226.216
 20
214.154
 11
-226.545
 21
214.561
  0
LINE
  8
0
 10
-226.545
 20
214.561
 11
-226.83
 21
215
  0
LINE
  8
0
 10
-226.83
 20
215
 11
-227.068
 21
215.466
  0
LINE
  8
0
 10
-227.068
 20
215.466
 11
-227.255
 21
215.955
  0
LINE
  8
0
 10
-227.255
 20
215.955
 11
-227.391
 21
216.46
  0
LINE
  8
0
 10
-227.391
 20
216.46
 11
-227.473
 21
216.977
  0
LINE
  8
0
 10
-227.473
 20
216.977
 11
-227.5
 21
217.5
  0
LINE
  8
0
 10
-227.5
 20
217.5
 11
-227.473
 21
218.023
  0
LINE
  8
0
 10
-227.473
 20
218.023
 11
-227.391
 21
218.54
  0
LINE
  8
0
 10
-227.391
 20
218.54
 11
-227.255
 21
219.045
  0
LINE
  8
0
 10
-227.255
 20
219.045
 11
-227.068
 21
219.534
  0
LINE
  8
0
 10
-227.068
 20
219.534
 11
-226.83
 21
220
  0
LINE
  8
0
 10
-226.83
 20
220
 11
-226.545
 21
220.439
  0
LINE
  8
0
 10
-226.545
 20
220.439
 11
-226.216
 21
220.846
  0
LINE
  8
0
 10
-226.216
 20
220.846
 11
-225.846
 21
221.216
  0
LINE
  8
0
 10
-225.846
 20
221.216
 11
-225.439
 21
221.545
  0
LINE
  8
0
 10
-225.439
 20
221.545
 11
-225
 21
221.83
  0
LINE
  8
0
 10
-225
 20
221.83
 11
-224.534
 21
222.068
  0
LINE
  8
0
 10
-224.534
 20
222.068
 11
-224.045
 21
222.255
  0
LINE
  8
0
 10
-224.045
 20
222.255
 11
-223.54
 21
222.391
  0
LINE
  8
0
 10
-223.54
 20
222.391
 11
-223.023
 21
222.473
  0
LINE
  8
0
 10
-223.023
 20
222.473
 11
-222.5
 21
222.5
  0
LINE
  8
0
 10
-222.5
 20
222.5
 11
-221.977
 21
222.473
  0
LINE
  8
0
 10
-221.977
 20
222.473
 11
-221.46
 21
222.391
  0
LINE
  8
0
 10
-221.46
 20
222.391
 11
-220.955
 21
222.255
  0
LINE
  8
0
 10
-220.955
 20
222.255
 11
-220.466
 21
222.068
  0
LINE
  8
0
 10
-220.466
 20
222.068
 11
-220
 21
221.83
  0
LINE
  8
0
 10
-220
 20
221.83
 11
-219.561
 21
221.545
  0
LINE
  8
0
 10
-219.561
 20
221.545
 11
-219.154
 21
221.216
  0
LINE
  8
0
 10
-219.154
 20
221.216
 11
-218.784
 21
220.846
  0
LINE
  8
0
 10
-218.784
 20
220.846
 11
-218.455
 21
220.439
  0
LINE
  8
0
 10
-218.455
 20
220.439
 11
-218.17
 21
220
  0
LINE
  8
0
 10
-218.17
 20
220
 11
-217.932
 21
219.534
  0
LINE
  8
0
 10
-217.932
 20
219.534
 11
-217.745
 21
219.045
  0
LINE
  8
0
 10
-217.745
 20
219.045
 11
-217.609
 21
218.54
  0
LINE
  8
0
 10
-217.609
 20
218.54
 11
-217.527
 21
218.023
  0
LINE
  8
0
 10
-217.527
 20
218.023
 11
-217.5
 21
217.5
  0
LINE
  8
0
 10
-217.5
 20
217.5
 11
-217.527
 21
216.977
  0
LINE
  8
0
 10
-217.527
 20
216.977
 11
-217.609
 21
216.46
  0
LINE
  8
0
 10
-217.609
 20
216.46
 11
-217.745
 21
215.955
  0
LINE
  8
0
 10
-217.745
 20
215.955
 11
-217.932
 21
215.466
  0
LINE
  8
0
 10
-217.932
 20
215.466
 11
-218.17
 21
215
  0
LINE
  8
0
 10
-218.17
 20
215
 11
-218.455
 21
214.561
  0
LINE
  8
0
 10
-218.455
 20
214.561
 11
-218.784
 21
214.154
  0
LINE
  8
0
 10
-218.784
 20
214.154
 11
-219.154
 21
213.784
  0
LINE
  8
0
 10
-219.154
 20
213.784
 11
-219.561
 21
213.455
  0
LINE
  8
0
 10
-219.561
 20
213.455
 11
-220
 21
213.17
  0
LINE
  8
0
 10
-220
 20
213.17
 11
-220.466
 21
212.932
  0
LINE
  8
0
 10
-220.466
 20
212.932
 11
-220.955
 21
212.745
  0
LINE
  8
0
 10
-220.955
 20
212.745
 11
-221.46
 21
212.609
  0
LINE
  8
0
 10
-221.46
 20
212.609
 11
-221.977
 21
212.527
  0
LINE
  8
0
 10
-221.977
 20
212.527
 11
-222.5
 21
212.5
  0
LINE
  8
0
 10
-222.5
 20
212.5
 11
-223.023
 21
212.527
  0
LINE
  8
0
 10
91.0642
 20
215.258
 11
90.8186
 21
215.292
  0
LINE
  8
0
 10
90.8186
 20
215.292
 11
90.5783
 21
215.353
  0
LINE
  8
0
 10
90.5783
 20
215.353
 11
90.3462
 21
215.44
  0
LINE
  8
0
 10
90.3462
 20
215.44
 11
90.125
 21
215.551
  0
LINE
  8
0
 10
90.125
 20
215.551
 11
89.9175
 21
215.687
  0
LINE
  8
0
 10
89.9175
 20
215.687
 11
89.7261
 21
215.845
  0
LINE
  8
0
 10
89.7261
 20
215.845
 11
89.5533
 21
216.022
  0
LINE
  8
0
 10
89.5533
 20
216.022
 11
89.401
 21
216.218
  0
LINE
  8
0
 10
89.401
 20
216.218
 11
89.2712
 21
216.429
  0
LINE
  8
0
 10
89.2712
 20
216.429
 11
89.1654
 21
216.653
  0
LINE
  8
0
 10
89.1654
 20
216.653
 11
89.0849
 21
216.888
  0
LINE
  8
0
 10
89.0849
 20
216.888
 11
89.0307
 21
217.13
  0
LINE
  8
0
 10
89.0307
 20
217.13
 11
89.0034
 21
217.376
  0
LINE
  8
0
 10
89.0034
 20
217.376
 11
89.0034
 21
217.624
  0
LINE
  8
0
 10
89.0034
 20
217.624
 11
89.0307
 21
217.87
  0
LINE
  8
0
 10
89.0307
 20
217.87
 11
89.0849
 21
218.112
  0
LINE
  8
0
 10
89.0849
 20
218.112
 11
89.1654
 21
218.347
  0
LINE
  8
0
 10
89.1654
 20
218.347
 11
89.2712
 21
218.571
  0
LINE
  8
0
 10
89.2712
 20
218.571
 11
89.401
 21
218.782
  0
LINE
  8
0
 10
89.401
 20
218.782
 11
89.5533
 21
218.978
  0
LINE
  8
0
 10
89.5533
 20
218.978
 11
89.7261
 21
219.155
  0
LINE
  8
0
 10
89.7261
 20
219.155
 11
89.9175
 21
219.313
  0
LINE
  8
0
 10
89.9175
 20
219.313
 11
90.125
 21
219.449
  0
LINE
  8
0
 10
90.125
 20
219.449
 11
90.3462
 21
219.56
  0
LINE
  8
0
 10
90.3462
 20
219.56
 11
90.5783
 21
219.647
  0
LINE
  8
0
 10
90.5783
 20
219.647
 11
90.8186
 21
219.708
  0
LINE
  8
0
 10
90.8186
 20
219.708
 11
91.0642
 21
219.742
  0
LINE
  8
0
 10
91.0642
 20
219.742
 11
91.312
 21
219.749
  0
LINE
  8
0
 10
91.312
 20
219.749
 11
91.559
 21
219.729
  0
LINE
  8
0
 10
91.559
 20
219.729
 11
91.8023
 21
219.681
  0
LINE
  8
0
 10
91.8023
 20
219.681
 11
92.0389
 21
219.607
  0
LINE
  8
0
 10
92.0389
 20
219.607
 11
92.2659
 21
219.508
  0
LINE
  8
0
 10
92.2659
 20
219.508
 11
92.4806
 21
219.384
  0
LINE
  8
0
 10
92.4806
 20
219.384
 11
92.6804
 21
219.237
  0
LINE
  8
0
 10
92.6804
 20
219.237
 11
92.8628
 21
219.069
  0
LINE
  8
0
 10
92.8628
 20
219.069
 11
93.0256
 21
218.882
  0
LINE
  8
0
 10
93.0256
 20
218.882
 11
93.1668
 21
218.678
  0
LINE
  8
0
 10
93.1668
 20
218.678
 11
93.2848
 21
218.46
  0
LINE
  8
0
 10
93.2848
 20
218.46
 11
93.3781
 21
218.231
  0
LINE
  8
0
 10
93.3781
 20
218.231
 11
93.4455
 21
217.992
  0
LINE
  8
0
 10
93.4455
 20
217.992
 11
93.4863
 21
217.748
  0
LINE
  8
0
 10
93.4863
 20
217.748
 11
93.5
 21
217.5
  0
LINE
  8
0
 10
93.5
 20
217.5
 11
93.4863
 21
217.252
  0
LINE
  8
0
 10
93.4863
 20
217.252
 11
93.4455
 21
217.008
  0
LINE
  8
0
 10
93.4455
 20
217.008
 11
93.3781
 21
216.769
  0
LINE
  8
0
 10
93.3781
 20
216.769
 11
93.2848
 21
216.54
  0
LINE
  8
0
 10
93.2848
 20
216.54
 11
93.1668
 21
216.322
  0
LINE
  8
0
 10
93.1668
 20
216.322
 11
93.0256
 21
216.118
  0
LINE
  8
0
 10
93.0256
 20
216.118
 11
92.8628
 21
215.931
  0
LINE
  8
0
 10
92.8628
 20
215.931
 11
92.6804
 21
215.763
  0
LINE
  8
0
 10
92.6804
 20
215.763
 11
92.4806
 21
215.616
  0
LINE
  8
0
 10
92.4806
 20
215.616
 11
92.2659
 21
215.492
  0
LINE
  8
0
 10
92.2659
 20
215.492
 11
92.0389
 21
215.393
  0
LINE
  8
0
 10
92.0389
 20
215.393
 11
91.8023
 21
215.319
  0
LINE
  8
0
 10
91.8023
 20
215.319
 11
91.559
 21
215.271
  0
LINE
  8
0
 10
91.559
 20
215.271
 11
91.312
 21
215.251
  0
LINE
  8
0
 10
91.312
 20
215.251
 11
91.0642
 21
215.258
  0
LINE
  8
0
 10
-0.185791
 20
215.258
 11
-0.431335
 21
215.292
  0
LINE
  8
0
 10
-0.431335
 20
215.292
 11
-0.671646
 21
215.353
  0
LINE
  8
0
 10
-0.671646
 20
215.353
 11
-0.903809
 21
215.44
  0
LINE
  8
0
 10
-0.903809
 20
215.44
 11
-1.125
 21
215.551
  0
LINE
  8
0
 10
-1.125
 20
215.551
 11
-1.33252
 21
215.687
  0
LINE
  8
0
 10
-1.33252
 20
215.687
 11
-1.52388
 21
215.845
  0
LINE
  8
0
 10
-1.52388
 20
215.845
 11
-1.69673
 21
216.022
  0
LINE
  8
0
 10
-1.69673
 20
216.022
 11
-1.849
 21
216.218
  0
LINE
  8
0
 10
-1.849
 20
216.218
 11
-1.97881
 21
216.429
  0
LINE
  8
0
 10
-1.97881
 20
216.429
 11
-2.08461
 21
216.653
  0
LINE
  8
0
 10
-2.08461
 20
216.653
 11
-2.1651
 21
216.888
  0
LINE
  8
0
 10
-2.1651
 20
216.888
 11
-2.2193
 21
217.13
  0
LINE
  8
0
 10
-2.2193
 20
217.13
 11
-2.24658
 21
217.376
  0
LINE
  8
0
 10
-2.24658
 20
217.376
 11
-2.24658
 21
217.624
  0
LINE
  8
0
 10
-2.24658
 20
217.624
 11
-2.2193
 21
217.87
  0
LINE
  8
0
 10
-2.2193
 20
217.87
 11
-2.1651
 21
218.112
  0
LINE
  8
0
 10
-2.1651
 20
218.112
 11
-2.08461
 21
218.347
  0
LINE
  8
0
 10
-2.08461
 20
218.347
 11
-1.97881
 21
218.571
  0
LINE
  8
0
 10
-1.97881
 20
218.571
 11
-1.849
 21
218.782
  0
LINE
  8
0
 10
-1.849
 20
218.782
 11
-1.69673
 21
218.978
  0
LINE
  8
0
 10
-1.69673
 20
218.978
 11
-1.52388
 21
219.155
  0
LINE
  8
0
 10
-1.52388
 20
219.155
 11
-1.33252
 21
219.313
  0
LINE
  8
0
 10
-1.33252
 20
219.313
 11
-1.125
 21
219.449
  0
LINE
  8
0
 10
-1.125
 20
219.449
 11
-0.903809
 21
219.56
  0
LINE
  8
0
 10
-0.903809
 20
219.56
 11
-0.671646
 21
219.647
  0
LINE
  8
0
 10
-0.671646
 20
219.647
 11
-0.431335
 21
219.708
  0
LINE
  8
0
 10
-0.431335
 20
219.708
 11
-0.185791
 21
219.742
  0
LINE
  8
0
 10
-0.185791
 20
219.742
 11
0.0619965
 21
219.749
  0
LINE
  8
0
 10
0.0619965
 20
219.749
 11
0.309036
 21
219.729
  0
LINE
  8
0
 10
0.309036
 20
219.729
 11
0.552338
 21
219.681
  0
LINE
  8
0
 10
0.552338
 20
219.681
 11
0.788925
 21
219.607
  0
LINE
  8
0
 10
0.788925
 20
219.607
 11
1.01595
 21
219.508
  0
LINE
  8
0
 10
1.01595
 20
219.508
 11
1.23062
 21
219.384
  0
LINE
  8
0
 10
1.23062
 20
219.384
 11
1.43037
 21
219.237
  0
LINE
  8
0
 10
1.43037
 20
219.237
 11
1.61275
 21
219.069
  0
LINE
  8
0
 10
1.61275
 20
219.069
 11
1.77556
 21
218.882
  0
LINE
  8
0
 10
1.77556
 20
218.882
 11
1.91681
 21
218.678
  0
LINE
  8
0
 10
1.91681
 20
218.678
 11
2.03479
 21
218.46
  0
LINE
  8
0
 10
2.03479
 20
218.46
 11
2.12808
 21
218.231
  0
LINE
  8
0
 10
2.12808
 20
218.231
 11
2.19554
 21
217.992
  0
LINE
  8
0
 10
2.19554
 20
217.992
 11
2.23634
 21
217.748
  0
LINE
  8
0
 10
2.23634
 20
217.748
 11
2.25
 21
217.5
  0
LINE
  8
0
 10
2.25
 20
217.5
 11
2.23634
 21
217.252
  0
LINE
  8
0
 10
2.23634
 20
217.252
 11
2.19554
 21
217.008
  0
LINE
  8
0
 10
2.19554
 20
217.008
 11
2.12808
 21
216.769
  0
LINE
  8
0
 10
2.12808
 20
216.769
 11
2.03479
 21
216.54
  0
LINE
  8
0
 10
2.03479
 20
216.54
 11
1.91681
 21
216.322
  0
LINE
  8
0
 10
1.91681
 20
216.322
 11
1.77556
 21
216.118
  0
LINE
  8
0
 10
1.77556
 20
216.118
 11
1.61275
 21
215.931
  0
LINE
  8
0
 10
1.61275
 20
215.931
 11
1.43037
 21
215.763
  0
LINE
  8
0
 10
1.43037
 20
215.763
 11
1.23062
 21
215.616
  0
LINE
  8
0
 10
1.23062
 20
215.616
 11
1.01595
 21
215.492
  0
LINE
  8
0
 10
1.01595
 20
215.492
 11
0.788925
 21
215.393
  0
LINE
  8
0
 10
0.788925
 20
215.393
 11
0.552338
 21
215.319
  0
LINE
  8
0
 10
0.552338
 20
215.319
 11
0.309036
 21
215.271
  0
LINE
  8
0
 10
0.309036
 20
215.271
 11
0.0619965
 21
215.251
  0
LINE
  8
0
 10
0.0619965
 20
215.251
 11
-0.185791
 21
215.258
  0
LINE
  8
0
 10
182.314
 20
215.258
 11
182.069
 21
215.292
  0
LINE
  8
0
 10
182.069
 20
215.292
 11
181.828
 21
215.353
  0
LINE
  8
0
 10
181.828
 20
215.353
 11
181.596
 21
215.44
  0
LINE
  8
0
 10
181.596
 20
215.44
 11
181.375
 21
215.551
  0
LINE
  8
0
 10
181.375
 20
215.551
 11
181.167
 21
215.687
  0
LINE
  8
0
 10
181.167
 20
215.687
 11
180.976
 21
215.845
  0
LINE
  8
0
 10
180.976
 20
215.845
 11
180.803
 21
216.022
  0
LINE
  8
0
 10
180.803
 20
216.022
 11
180.651
 21
216.218
  0
LINE
  8
0
 10
180.651
 20
216.218
 11
180.521
 21
216.429
  0
LINE
  8
0
 10
180.521
 20
216.429
 11
180.415
 21
216.653
  0
LINE
  8
0
 10
180.415
 20
216.653
 11
180.335
 21
216.888
  0
LINE
  8
0
 10
180.335
 20
216.888
 11
180.281
 21
217.13
  0
LINE
  8
0
 10
180.281
 20
217.13
 11
180.253
 21
217.376
  0
LINE
  8
0
 10
180.253
 20
217.376
 11
180.253
 21
217.624
  0
LINE
  8
0
 10
180.253
 20
217.624
 11
180.281
 21
217.87
  0
LINE
  8
0
 10
180.281
 20
217.87
 11
180.335
 21
218.112
  0
LINE
  8
0
 10
180.335
 20
218.112
 11
180.415
 21
218.347
  0
LINE
  8
0
 10
180.415
 20
218.347
 11
180.521
 21
218.571
  0
LINE
  8
0
 10
180.521
 20
218.571
 11
180.651
 21
218.782
  0
LINE
  8
0
 10
180.651
 20
218.782
 11
180.803
 21
218.978
  0
LINE
  8
0
 10
180.803
 20
218.978
 11
180.976
 21
219.155
  0
LINE
  8
0
 10
180.976
 20
219.155
 11
181.167
 21
219.313
  0
LINE
  8
0
 10
181.167
 20
219.313
 11
181.375
 21
219.449
  0
LINE
  8
0
 10
181.375
 20
219.449
 11
181.596
 21
219.56
  0
LINE
  8
0
 10
181.596
 20
219.56
 11
181.828
 21
219.647
  0
LINE
  8
0
 10
181.828
 20
219.647
 11
182.069
 21
219.708
  0
LINE
  8
0
 10
182.069
 20
219.708
 11
182.314
 21
219.742
  0
LINE
  8
0
 10
182.314
 20
219.742
 11
182.562
 21
219.749
  0
LINE
  8
0
 10
182.562
 20
219.749
 11
182.809
 21
219.729
  0
LINE
  8
0
 10
182.809
 20
219.729
 11
183.052
 21
219.681
  0
LINE
  8
0
 10
183.052
 20
219.681
 11
183.289
 21
219.607
  0
LINE
  8
0
 10
183.289
 20
219.607
 11
183.516
 21
219.508
  0
LINE
  8
0
 10
183.516
 20
219.508
 11
183.731
 21
219.384
  0
LINE
  8
0
 10
183.731
 20
219.384
 11
183.93
 21
219.237
  0
LINE
  8
0
 10
183.93
 20
219.237
 11
184.113
 21
219.069
  0
LINE
  8
0
 10
184.113
 20
219.069
 11
184.276
 21
218.882
  0
LINE
  8
0
 10
184.276
 20
218.882
 11
184.417
 21
218.678
  0
LINE
  8
0
 10
184.417
 20
218.678
 11
184.535
 21
218.46
  0
LINE
  8
0
 10
184.535
 20
218.46
 11
184.628
 21
218.231
  0
LINE
  8
0
 10
184.628
 20
218.231
 11
184.696
 21
217.992
  0
LINE
  8
0
 10
184.696
 20
217.992
 11
184.736
 21
217.748
  0
LINE
  8
0
 10
184.736
 20
217.748
 11
184.75
 21
217.5
  0
LINE
  8
0
 10
184.75
 20
217.5
 11
184.736
 21
217.252
  0
LINE
  8
0
 10
184.736
 20
217.252
 11
184.696
 21
217.008
  0
LINE
  8
0
 10
184.696
 20
217.008
 11
184.628
 21
216.769
  0
LINE
  8
0
 10
184.628
 20
216.769
 11
184.535
 21
216.54
  0
LINE
  8
0
 10
184.535
 20
216.54
 11
184.417
 21
216.322
  0
LINE
  8
0
 10
184.417
 20
216.322
 11
184.276
 21
216.118
  0
LINE
  8
0
 10
184.276
 20
216.118
 11
184.113
 21
215.931
  0
LINE
  8
0
 10
184.113
 20
215.931
 11
183.93
 21
215.763
  0
LINE
  8
0
 10
183.93
 20
215.763
 11
183.731
 21
215.616
  0
LINE
  8
0
 10
183.731
 20
215.616
 11
183.516
 21
215.492
  0
LINE
  8
0
 10
183.516
 20
215.492
 11
183.289
 21
215.393
  0
LINE
  8
0
 10
183.289
 20
215.393
 11
183.052
 21
215.319
  0
LINE
  8
0
 10
183.052
 20
215.319
 11
182.809
 21
215.271
  0
LINE
  8
0
 10
182.809
 20
215.271
 11
182.562
 21
215.251
  0
LINE
  8
0
 10
182.562
 20
215.251
 11
182.314
 21
215.258
  0
LINE
  8
0
 10
-182.686
 20
215.258
 11
-182.931
 21
215.292
  0
LINE
  8
0
 10
-182.931
 20
215.292
 11
-183.172
 21
215.353
  0
LINE
  8
0
 10
-183.172
 20
215.353
 11
-183.404
 21
215.44
  0
LINE
  8
0
 10
-183.404
 20
215.44
 11
-183.625
 21
215.551
  0
LINE
  8
0
 10
-183.625
 20
215.551
 11
-183.833
 21
215.687
  0
LINE
  8
0
 10
-183.833
 20
215.687
 11
-184.024
 21
215.845
  0
LINE
  8
0
 10
-184.024
 20
215.845
 11
-184.197
 21
216.022
  0
LINE
  8
0
 10
-184.197
 20
216.022
 11
-184.349
 21
216.218
  0
LINE
  8
0
 10
-184.349
 20
216.218
 11
-184.479
 21
216.429
  0
LINE
  8
0
 10
-184.479
 20
216.429
 11
-184.585
 21
216.653
  0
LINE
  8
0
 10
-184.585
 20
216.653
 11
-184.665
 21
216.888
  0
LINE
  8
0
 10
-184.665
 20
216.888
 11
-184.719
 21
217.13
  0
LINE
  8
0
 10
-184.719
 20
217.13
 11
-184.747
 21
217.376
  0
LINE
  8
0
 10
-184.747
 20
217.376
 11
-184.747
 21
217.624
  0
LINE
  8
0
 10
-184.747
 20
217.624
 11
-184.719
 21
217.87
  0
LINE
  8
0
 10
-184.719
 20
217.87
 11
-184.665
 21
218.112
  0
LINE
  8
0
 10
-184.665
 20
218.112
 11
-184.585
 21
218.347
  0
LINE
  8
0
 10
-184.585
 20
218.347
 11
-184.479
 21
218.571
  0
LINE
  8
0
 10
-184.479
 20
218.571
 11
-184.349
 21
218.782
  0
LINE
  8
0
 10
-184.349
 20
218.782
 11
-184.197
 21
218.978
  0
LINE
  8
0
 10
-184.197
 20
218.978
 11
-184.024
 21
219.155
  0
LINE
  8
0
 10
-184.024
 20
219.155
 11
-183.833
 21
219.313
  0
LINE
  8
0
 10
-183.833
 20
219.313
 11
-183.625
 21
219.449
  0
LINE
  8
0
 10
-183.625
 20
219.449
 11
-183.404
 21
219.56
  0
LINE
  8
0
 10
-183.404
 20
219.56
 11
-183.172
 21
219.647
  0
LINE
  8
0
 10
-183.172
 20
219.647
 11
-182.931
 21
219.708
  0
LINE
  8
0
 10
-182.931
 20
219.708
 11
-182.686
 21
219.742
  0
LINE
  8
0
 10
-182.686
 20
219.742
 11
-182.438
 21
219.749
  0
LINE
  8
0
 10
-182.438
 20
219.749
 11
-182.191
 21
219.729
  0
LINE
  8
0
 10
-182.191
 20
219.729
 11
-181.948
 21
219.681
  0
LINE
  8
0
 10
-181.948
 20
219.681
 11
-181.711
 21
219.607
  0
LINE
  8
0
 10
-181.711
 20
219.607
 11
-181.484
 21
219.508
  0
LINE
  8
0
 10
-181.484
 20
219.508
 11
-181.269
 21
219.384
  0
LINE
  8
0
 10
-181.269
 20
219.384
 11
-181.07
 21
219.237
  0
LINE
  8
0
 10
-181.07
 20
219.237
 11
-180.887
 21
219.069
  0
LINE
  8
0
 10
-180.887
 20
219.069
 11
-180.724
 21
218.882
  0
LINE
  8
0
 10
-180.724
 20
218.882
 11
-180.583
 21
218.678
  0
LINE
  8
0
 10
-180.583
 20
218.678
 11
-180.465
 21
218.46
  0
LINE
  8
0
 10
-180.465
 20
218.46
 11
-180.372
 21
218.231
  0
LINE
  8
0
 10
-180.372
 20
218.231
 11
-180.304
 21
217.992
  0
LINE
  8
0
 10
-180.304
 20
217.992
 11
-180.264
 21
217.748
  0
LINE
  8
0
 10
-180.264
 20
217.748
 11
-180.25
 21
217.5
  0
LINE
  8
0
 10
-180.25
 20
217.5
 11
-180.264
 21
217.252
  0
LINE
  8
0
 10
-180.264
 20
217.252
 11
-180.304
 21
217.008
  0
LINE
  8
0
 10
-180.304
 20
217.008
 11
-180.372
 21
216.769
  0
LINE
  8
0
 10
-180.372
 20
216.769
 11
-180.465
 21
216.54
  0
LINE
  8
0
 10
-180.465
 20
216.54
 11
-180.583
 21
216.322
  0
LINE
  8
0
 10
-180.583
 20
216.322
 11
-180.724
 21
216.118
  0
LINE
  8
0
 10
-180.724
 20
216.118
 11
-180.887
 21
215.931
  0
LINE
  8
0
 10
-180.887
 20
215.931
 11
-181.07
 21
215.763
  0
LINE
  8
0
 10
-181.07
 20
215.763
 11
-181.269
 21
215.616
  0
LINE
  8
0
 10
-181.269
 20
215.616
 11
-181.484
 21
215.492
  0
LINE
  8
0
 10
-181.484
 20
215.492
 11
-181.711
 21
215.393
  0
LINE
  8
0
 10
-181.711
 20
215.393
 11
-181.948
 21
215.319
  0
LINE
  8
0
 10
-181.948
 20
215.319
 11
-182.191
 21
215.271
  0
LINE
  8
0
 10
-182.191
 20
215.271
 11
-182.438
 21
215.251
  0
LINE
  8
0
 10
-182.438
 20
215.251
 11
-182.686
 21
215.258
  0
LINE
  8
0
 10
-91.4358
 20
215.258
 11
-91.6814
 21
215.292
  0
LINE
  8
0
 10
-91.6814
 20
215.292
 11
-91.9217
 21
215.353
  0
LINE
  8
0
 10
-91.9217
 20
215.353
 11
-92.1538
 21
215.44
  0
LINE
  8
0
 10
-92.1538
 20
215.44
 11
-92.375
 21
215.551
  0
LINE
  8
0
 10
-92.375
 20
215.551
 11
-92.5825
 21
215.687
  0
LINE
  8
0
 10
-92.5825
 20
215.687
 11
-92.7739
 21
215.845
  0
LINE
  8
0
 10
-92.7739
 20
215.845
 11
-92.9467
 21
216.022
  0
LINE
  8
0
 10
-92.9467
 20
216.022
 11
-93.099
 21
216.218
  0
LINE
  8
0
 10
-93.099
 20
216.218
 11
-93.2288
 21
216.429
  0
LINE
  8
0
 10
-93.2288
 20
216.429
 11
-93.3346
 21
216.653
  0
LINE
  8
0
 10
-93.3346
 20
216.653
 11
-93.4151
 21
216.888
  0
LINE
  8
0
 10
-93.4151
 20
216.888
 11
-93.4693
 21
217.13
  0
LINE
  8
0
 10
-93.4693
 20
217.13
 11
-93.4966
 21
217.376
  0
LINE
  8
0
 10
-93.4966
 20
217.376
 11
-93.4966
 21
217.624
  0
LINE
  8
0
 10
-93.4966
 20
217.624
 11
-93.4693
 21
217.87
  0
LINE
  8
0
 10
-93.4693
 20
217.87
 11
-93.4151
 21
218.112
  0
LINE
  8
0
 10
-93.4151
 20
218.112
 11
-93.3346
 21
218.347
  0
LINE
  8
0
 10
-93.3346
 20
218.347
 11
-93.2288
 21
218.571
  0
LINE
  8
0
 10
-93.2288
 20
218.571
 11
-93.099
 21
218.782
  0
LINE
  8
0
 10
-93.099
 20
218.782
 11
-92.9467
 21
218.978
  0
LINE
  8
0
 10
-92.9467
 20
218.978
 11
-92.7739
 21
219.155
  0
LINE
  8
0
 10
-92.7739
 20
219.155
 11
-92.5825
 21
219.313
  0
LINE
  8
0
 10
-92.5825
 20
219.313
 11
-92.375
 21
219.449
  0
LINE
  8
0
 10
-92.375
 20
219.449
 11
-92.1538
 21
219.56
  0
LINE
  8
0
 10
-92.1538
 20
219.56
 11
-91.9217
 21
219.647
  0
LINE
  8
0
 10
-91.9217
 20
219.647
 11
-91.6814
 21
219.708
  0
LINE
  8
0
 10
-91.6814
 20
219.708
 11
-91.4358
 21
219.742
  0
LINE
  8
0
 10
-91.4358
 20
219.742
 11
-91.188
 21
219.749
  0
LINE
  8
0
 10
-91.188
 20
219.749
 11
-90.9409
 21
219.729
  0
LINE
  8
0
 10
-90.9409
 20
219.729
 11
-90.6976
 21
219.681
  0
LINE
  8
0
 10
-90.6976
 20
219.681
 11
-90.4611
 21
219.607
  0
LINE
  8
0
 10
-90.4611
 20
219.607
 11
-90.234
 21
219.508
  0
LINE
  8
0
 10
-90.234
 20
219.508
 11
-90.0194
 21
219.384
  0
LINE
  8
0
 10
-90.0194
 20
219.384
 11
-89.8196
 21
219.237
  0
LINE
  8
0
 10
-89.8196
 20
219.237
 11
-89.6372
 21
219.069
  0
LINE
  8
0
 10
-89.6372
 20
219.069
 11
-89.4744
 21
218.882
  0
LINE
  8
0
 10
-89.4744
 20
218.882
 11
-89.3332
 21
218.678
  0
LINE
  8
0
 10
-89.3332
 20
218.678
 11
-89.2152
 21
218.46
  0
LINE
  8
0
 10
-89.2152
 20
218.46
 11
-89.1219
 21
218.231
  0
LINE
  8
0
 10
-89.1219
 20
218.231
 11
-89.0545
 21
217.992
  0
LINE
  8
0
 10
-89.0545
 20
217.992
 11
-89.0137
 21
217.748
  0
LINE
  8
0
 10
-89.0137
 20
217.748
 11
-89
 21
217.5
  0
LINE
  8
0
 10
-89
 20
217.5
 11
-89.0137
 21
217.252
  0
LINE
  8
0
 10
-89.0137
 20
217.252
 11
-89.0545
 21
217.008
  0
LINE
  8
0
 10
-89.0545
 20
217.008
 11
-89.1219
 21
216.769
  0
LINE
  8
0
 10
-89.1219
 20
216.769
 11
-89.2152
 21
216.54
  0
LINE
  8
0
 10
-89.2152
 20
216.54
 11
-89.3332
 21
216.322
  0
LINE
  8
0
 10
-89.3332
 20
216.322
 11
-89.4744
 21
216.118
  0
LINE
  8
0
 10
-89.4744
 20
216.118
 11
-89.6372
 21
215.931
  0
LINE
  8
0
 10
-89.6372
 20
215.931
 11
-89.8196
 21
215.763
  0
LINE
  8
0
 10
-89.8196
 20
215.763
 11
-90.0194
 21
215.616
  0
LINE
  8
0
 10
-90.0194
 20
215.616
 11
-90.234
 21
215.492
  0
LINE
  8
0
 10
-90.234
 20
215.492
 11
-90.4611
 21
215.393
  0
LINE
  8
0
 10
-90.4611
 20
215.393
 11
-90.6976
 21
215.319
  0
LINE
  8
0
 10
-90.6976
 20
215.319
 11
-90.9409
 21
215.271
  0
LINE
  8
0
 10
-90.9409
 20
215.271
 11
-91.188
 21
215.251
  0
LINE
  8
0
 10
-91.188
 20
215.251
 11
-91.4358
 21
215.258
  0
LINE
  8
0
 10
222.314
 20
175.258
 11
222.069
 21
175.292
  0
LINE
  8
0
 10
222.069
 20
175.292
 11
221.828
 21
175.353
  0
LINE
  8
0
 10
221.828
 20
175.353
 11
221.596
 21
175.44
  0
LINE
  8
0
 10
221.596
 20
175.44
 11
221.375
 21
175.551
  0
LINE
  8
0
 10
221.375
 20
175.551
 11
221.167
 21
175.687
  0
LINE
  8
0
 10
221.167
 20
175.687
 11
220.976
 21
175.845
  0
LINE
  8
0
 10
220.976
 20
175.845
 11
220.803
 21
176.022
  0
LINE
  8
0
 10
220.803
 20
176.022
 11
220.651
 21
176.218
  0
LINE
  8
0
 10
220.651
 20
176.218
 11
220.521
 21
176.429
  0
LINE
  8
0
 10
220.521
 20
176.429
 11
220.415
 21
176.653
  0
LINE
  8
0
 10
220.415
 20
176.653
 11
220.335
 21
176.888
  0
LINE
  8
0
 10
220.335
 20
176.888
 11
220.281
 21
177.13
  0
LINE
  8
0
 10
220.281
 20
177.13
 11
220.253
 21
177.376
  0
LINE
  8
0
 10
220.253
 20
177.376
 11
220.253
 21
177.624
  0
LINE
  8
0
 10
220.253
 20
177.624
 11
220.281
 21
177.87
  0
LINE
  8
0
 10
220.281
 20
177.87
 11
220.335
 21
178.112
  0
LINE
  8
0
 10
220.335
 20
178.112
 11
220.415
 21
178.347
  0
LINE
  8
0
 10
220.415
 20
178.347
 11
220.521
 21
178.571
  0
LINE
  8
0
 10
220.521
 20
178.571
 11
220.651
 21
178.782
  0
LINE
  8
0
 10
220.651
 20
178.782
 11
220.803
 21
178.978
  0
LINE
  8
0
 10
220.803
 20
178.978
 11
220.976
 21
179.155
  0
LINE
  8
0
 10
220.976
 20
179.155
 11
221.167
 21
179.313
  0
LINE
  8
0
 10
221.167
 20
179.313
 11
221.375
 21
179.449
  0
LINE
  8
0
 10
221.375
 20
179.449
 11
221.596
 21
179.56
  0
LINE
  8
0
 10
221.596
 20
179.56
 11
221.828
 21
179.647
  0
LINE
  8
0
 10
221.828
 20
179.647
 11
222.069
 21
179.708
  0
LINE
  8
0
 10
222.069
 20
179.708
 11
222.314
 21
179.742
  0
LINE
  8
0
 10
222.314
 20
179.742
 11
222.562
 21
179.749
  0
LINE
  8
0
 10
222.562
 20
179.749
 11
222.809
 21
179.729
  0
LINE
  8
0
 10
222.809
 20
179.729
 11
223.052
 21
179.681
  0
LINE
  8
0
 10
223.052
 20
179.681
 11
223.289
 21
179.607
  0
LINE
  8
0
 10
223.289
 20
179.607
 11
223.516
 21
179.508
  0
LINE
  8
0
 10
223.516
 20
179.508
 11
223.731
 21
179.384
  0
LINE
  8
0
 10
223.731
 20
179.384
 11
223.93
 21
179.237
  0
LINE
  8
0
 10
223.93
 20
179.237
 11
224.113
 21
179.069
  0
LINE
  8
0
 10
224.113
 20
179.069
 11
224.276
 21
178.882
  0
LINE
  8
0
 10
224.276
 20
178.882
 11
224.417
 21
178.678
  0
LINE
  8
0
 10
224.417
 20
178.678
 11
224.535
 21
178.46
  0
LINE
  8
0
 10
224.535
 20
178.46
 11
224.628
 21
178.231
  0
LINE
  8
0
 10
224.628
 20
178.231
 11
224.696
 21
177.992
  0
LINE
  8
0
 10
224.696
 20
177.992
 11
224.736
 21
177.748
  0
LINE
  8
0
 10
224.736
 20
177.748
 11
224.75
 21
177.5
  0
LINE
  8
0
 10
224.75
 20
177.5
 11
224.736
 21
177.252
  0
LINE
  8
0
 10
224.736
 20
177.252
 11
224.696
 21
177.008
  0
LINE
  8
0
 10
224.696
 20
177.008
 11
224.628
 21
176.769
  0
LINE
  8
0
 10
224.628
 20
176.769
 11
224.535
 21
176.54
  0
LINE
  8
0
 10
224.535
 20
176.54
 11
224.417
 21
176.322
  0
LINE
  8
0
 10
224.417
 20
176.322
 11
224.276
 21
176.118
  0
LINE
  8
0
 10
224.276
 20
176.118
 11
224.113
 21
175.931
  0
LINE
  8
0
 10
224.113
 20
175.931
 11
223.93
 21
175.763
  0
LINE
  8
0
 10
223.93
 20
175.763
 11
223.731
 21
175.616
  0
LINE
  8
0
 10
223.731
 20
175.616
 11
223.516
 21
175.492
  0
LINE
  8
0
 10
223.516
 20
175.492
 11
223.289
 21
175.393
  0
LINE
  8
0
 10
223.289
 20
175.393
 11
223.052
 21
175.319
  0
LINE
  8
0
 10
223.052
 20
175.319
 11
222.809
 21
175.271
  0
LINE
  8
0
 10
222.809
 20
175.271
 11
222.562
 21
175.251
  0
LINE
  8
0
 10
222.562
 20
175.251
 11
222.314
 21
175.258
  0
LINE
  8
0
 10
-222.809
 20
175.271
 11
-223.052
 21
175.319
  0
LINE
  8
0
 10
-223.052
 20
175.319
 11
-223.289
 21
175.393
  0
LINE
  8
0
 10
-223.289
 20
175.393
 11
-223.516
 21
175.492
  0
LINE
  8
0
 10
-223.516
 20
175.492
 11
-223.731
 21
175.616
  0
LINE
  8
0
 10
-223.731
 20
175.616
 11
-223.93
 21
175.763
  0
LINE
  8
0
 10
-223.93
 20
175.763
 11
-224.113
 21
175.931
  0
LINE
  8
0
 10
-224.113
 20
175.931
 11
-224.276
 21
176.118
  0
LINE
  8
0
 10
-224.276
 20
176.118
 11
-224.417
 21
176.322
  0
LINE
  8
0
 10
-224.417
 20
176.322
 11
-224.535
 21
176.54
  0
LINE
  8
0
 10
-224.535
 20
176.54
 11
-224.628
 21
176.769
  0
LINE
  8
0
 10
-224.628
 20
176.769
 11
-224.696
 21
177.008
  0
LINE
  8
0
 10
-224.696
 20
177.008
 11
-224.736
 21
177.252
  0
LINE
  8
0
 10
-224.736
 20
177.252
 11
-224.75
 21
177.5
  0
LINE
  8
0
 10
-224.75
 20
177.5
 11
-224.736
 21
177.748
  0
LINE
  8
0
 10
-224.736
 20
177.748
 11
-224.696
 21
177.992
  0
LINE
  8
0
 10
-224.696
 20
177.992
 11
-224.628
 21
178.231
  0
LINE
  8
0
 10
-224.628
 20
178.231
 11
-224.535
 21
178.46
  0
LINE
  8
0
 10
-224.535
 20
178.46
 11
-224.417
 21
178.678
  0
LINE
  8
0
 10
-224.417
 20
178.678
 11
-224.276
 21
178.882
  0
LINE
  8
0
 10
-224.276
 20
178.882
 11
-224.113
 21
179.069
  0
LINE
  8
0
 10
-224.113
 20
179.069
 11
-223.93
 21
179.237
  0
LINE
  8
0
 10
-223.93
 20
179.237
 11
-223.731
 21
179.384
  0
LINE
  8
0
 10
-223.731
 20
179.384
 11
-223.516
 21
179.508
  0
LINE
  8
0
 10
-223.516
 20
179.508
 11
-223.289
 21
179.607
  0
LINE
  8
0
 10
-223.289
 20
179.607
 11
-223.052
 21
179.681
  0
LINE
  8
0
 10
-223.052
 20
179.681
 11
-222.809
 21
179.729
  0
LINE
  8
0
 10
-222.809
 20
179.729
 11
-222.562
 21
179.749
  0
LINE
  8
0
 10
-222.562
 20
179.749
 11
-222.314
 21
179.742
  0
LINE
  8
0
 10
-222.314
 20
179.742
 11
-222.069
 21
179.708
  0
LINE
  8
0
 10
-222.069
 20
179.708
 11
-221.828
 21
179.647
  0
LINE
  8
0
 10
-221.828
 20
179.647
 11
-221.596
 21
179.56
  0
LINE
  8
0
 10
-221.596
 20
179.56
 11
-221.375
 21
179.449
  0
LINE
  8
0
 10
-221.375
 20
179.449
 11
-221.167
 21
179.313
  0
LINE
  8
0
 10
-221.167
 20
179.313
 11
-220.976
 21
179.155
  0
LINE
  8
0
 10
-220.976
 20
179.155
 11
-220.803
 21
178.978
  0
LINE
  8
0
 10
-220.803
 20
178.978
 11
-220.651
 21
178.782
  0
LINE
  8
0
 10
-220.651
 20
178.782
 11
-220.521
 21
178.571
  0
LINE
  8
0
 10
-220.521
 20
178.571
 11
-220.415
 21
178.347
  0
LINE
  8
0
 10
-220.415
 20
178.347
 11
-220.335
 21
178.112
  0
LINE
  8
0
 10
-220.335
 20
178.112
 11
-220.281
 21
177.87
  0
LINE
  8
0
 10
-220.281
 20
177.87
 11
-220.253
 21
177.624
  0
LINE
  8
0
 10
-220.253
 20
177.624
 11
-220.253
 21
177.376
  0
LINE
  8
0
 10
-220.253
 20
177.376
 11
-220.281
 21
177.13
  0
LINE
  8
0
 10
-220.281
 20
177.13
 11
-220.335
 21
176.888
  0
LINE
  8
0
 10
-220.335
 20
176.888
 11
-220.415
 21
176.653
  0
LINE
  8
0
 10
-220.415
 20
176.653
 11
-220.521
 21
176.429
  0
LINE
  8
0
 10
-220.521
 20
176.429
 11
-220.651
 21
176.218
  0
LINE
  8
0
 10
-220.651
 20
176.218
 11
-220.803
 21
176.022
  0
LINE
  8
0
 10
-220.803
 20
176.022
 11
-220.976
 21
175.845
  0
LINE
  8
0
 10
-220.976
 20
175.845
 11
-221.167
 21
175.687
  0
LINE
  8
0
 10
-221.167
 20
175.687
 11
-221.375
 21
175.551
  0
LINE
  8
0
 10
-221.375
 20
175.551
 11
-221.596
 21
175.44
  0
LINE
  8
0
 10
-221.596
 20
175.44
 11
-221.828
 21
175.353
  0
LINE
  8
0
 10
-221.828
 20
175.353
 11
-222.069
 21
175.292
  0
LINE
  8
0
 10
-222.069
 20
175.292
 11
-222.314
 21
175.258
  0
LINE
  8
0
 10
-222.314
 20
175.258
 11
-222.562
 21
175.251
  0
LINE
  8
0
 10
-222.562
 20
175.251
 11
-222.809
 21
175.271
  0
LINE
  8
0
 10
-85.3589
 20
108.571
 11
-86.7029
 21
108.784
  0
LINE
  8
0
 10
-86.7029
 20
108.784
 11
-88.0172
 21
109.136
  0
LINE
  8
0
 10
-88.0172
 20
109.136
 11
-89.2876
 21
109.624
  0
LINE
  8
0
 10
-89.2876
 20
109.624
 11
-90.5
 21
110.242
  0
LINE
  8
0
 10
-90.5
 20
110.242
 11
-91.6412
 21
110.983
  0
LINE
  8
0
 10
-91.6412
 20
110.983
 11
-92.6987
 21
111.839
  0
LINE
  8
0
 10
-92.6987
 20
111.839
 11
-93.6609
 21
112.801
  0
LINE
  8
0
 10
-93.6609
 20
112.801
 11
-94.5172
 21
113.859
  0
LINE
  8
0
 10
-94.5172
 20
113.859
 11
-95.2583
 21
115
  0
LINE
  8
0
 10
-95.2583
 20
115
 11
-95.8761
 21
116.212
  0
LINE
  8
0
 10
-95.8761
 20
116.212
 11
-96.3637
 21
117.483
  0
LINE
  8
0
 10
-96.3637
 20
117.483
 11
-96.7159
 21
118.797
  0
LINE
  8
0
 10
-96.7159
 20
118.797
 11
-96.9288
 21
120.141
  0
LINE
  8
0
 10
-96.9288
 20
120.141
 11
-97
 21
121.5
  0
LINE
  8
0
 10
-97
 20
121.5
 11
-96.9288
 21
122.859
  0
LINE
  8
0
 10
-96.9288
 20
122.859
 11
-96.7159
 21
124.203
  0
LINE
  8
0
 10
-96.7159
 20
124.203
 11
-96.3637
 21
125.517
  0
LINE
  8
0
 10
-96.3637
 20
125.517
 11
-95.8761
 21
126.788
  0
LINE
  8
0
 10
-95.8761
 20
126.788
 11
-95.2583
 21
128
  0
LINE
  8
0
 10
-95.2583
 20
128
 11
-94.5172
 21
129.141
  0
LINE
  8
0
 10
-94.5172
 20
129.141
 11
-93.6609
 21
130.199
  0
LINE
  8
0
 10
-93.6609
 20
130.199
 11
-92.6987
 21
131.161
  0
LINE
  8
0
 10
-92.6987
 20
131.161
 11
-91.6412
 21
132.017
  0
LINE
  8
0
 10
-91.6412
 20
132.017
 11
-90.5
 21
132.758
  0
LINE
  8
0
 10
-90.5
 20
132.758
 11
-89.2876
 21
133.376
  0
LINE
  8
0
 10
-89.2876
 20
133.376
 11
-88.0172
 21
133.864
  0
LINE
  8
0
 10
-88.0172
 20
133.864
 11
-86.7029
 21
134.216
  0
LINE
  8
0
 10
-86.7029
 20
134.216
 11
-85.3589
 21
134.429
  0
LINE
  8
0
 10
-85.3589
 20
134.429
 11
-84
 21
134.5
  0
LINE
  8
0
 10
-84
 20
134.5
 11
-82.6411
 21
134.429
  0
LINE
  8
0
 10
-82.6411
 20
134.429
 11
-81.2971
 21
134.216
  0
LINE
  8
0
 10
-81.2971
 20
134.216
 11
-79.9828
 21
133.864
  0
LINE
  8
0
 10
-79.9828
 20
133.864
 11
-78.7124
 21
133.376
  0
LINE
  8
0
 10
-78.7124
 20
133.376
 11
-77.5
 21
132.758
  0
LINE
  8
0
 10
-77.5
 20
132.758
 11
-76.3588
 21
132.017
  0
LINE
  8
0
 10
-76.3588
 20
132.017
 11
-75.3013
 21
131.161
  0
LINE
  8
0
 10
-75.3013
 20
131.161
 11
-74.3391
 21
130.199
  0
LINE
  8
0
 10
-74.3391
 20
130.199
 11
-73.4828
 21
129.141
  0
LINE
  8
0
 10
-73.4828
 20
129.141
 11
-72.7417
 21
128
  0
LINE
  8
0
 10
-72.7417
 20
128
 11
-72.1239
 21
126.788
  0
LINE
  8
0
 10
-72.1239
 20
126.788
 11
-71.6363
 21
125.517
  0
LINE
  8
0
 10
-71.6363
 20
125.517
 11
-71.2841
 21
124.203
  0
LINE
  8
0
 10
-71.2841
 20
124.203
 11
-71.0712
 21
122.859
  0
LINE
  8
0
 10
-71.0712
 20
122.859
 11
-71
 21
121.5
  0
LINE
  8
0
 10
-71
 20
121.5
 11
-71.0712
 21
120.141
  0
LINE
  8
0
 10
-71.0712
 20
120.141
 11
-71.2841
 21
118.797
  0
LINE
  8
0
 10
-71.2841
 20
118.797
 11
-71.6363
 21
117.483
  0
LINE
  8
0
 10
-71.6363
 20
117.483
 11
-72.1239
 21
116.212
  0
LINE
  8
0
 10
-72.1239
 20
116.212
 11
-72.7417
 21
115
  0
LINE
  8
0
 10
-72.7417
 20
115
 11
-73.4828
 21
113.859
  0
LINE
  8
0
 10
-73.4828
 20
113.859
 11
-74.3391
 21
112.801
  0
LINE
  8
0
 10
-74.3391
 20
112.801
 11
-75.3013
 21
111.839
  0
LINE
  8
0
 10
-75.3013
 20
111.839
 11
-76.3588
 21
110.983
  0
LINE
  8
0
 10
-76.3588
 20
110.983
 11
-77.5
 21
110.242
  0
LINE
  8
0
 10
-77.5
 20
110.242
 11
-78.7124
 21
109.624
  0
LINE
  8
0
 10
-78.7124
 20
109.624
 11
-79.9828
 21
109.136
  0
LINE
  8
0
 10
-79.9828
 20
109.136
 11
-81.2971
 21
108.784
  0
LINE
  8
0
 10
-81.2971
 20
108.784
 11
-82.6411
 21
108.571
  0
LINE
  8
0
 10
-82.6411
 20
108.571
 11
-84
 21
108.5
  0
LINE
  8
0
 10
-84
 20
108.5
 11
-85.3589
 21
108.571
  0
LINE
  8
0
 10
185.376
 20
129.005
 11
185.132
 21
129.046
  0
LINE
  8
0
 10
185.132
 20
129.046
 11
184.897
 21
129.126
  0
LINE
  8
0
 10
184.897
 20
129.126
 11
184.68
 21
129.244
  0
LINE
  8
0
 10
184.68
 20
129.244
 11
184.484
 21
129.396
  0
LINE
  8
0
 10
184.484
 20
129.396
 11
184.316
 21
129.579
  0
LINE
  8
0
 10
184.316
 20
129.579
 11
184.181
 21
129.786
  0
LINE
  8
0
 10
184.181
 20
129.786
 11
184.081
 21
130.013
  0
LINE
  8
0
 10
184.081
 20
130.013
 11
184.02
 21
130.253
  0
LINE
  8
0
 10
184.02
 20
130.253
 11
184
 21
130.5
  0
LINE
  8
0
 10
184
 20
130.5
 11
184.02
 21
130.747
  0
LINE
  8
0
 10
184.02
 20
130.747
 11
184.081
 21
130.987
  0
LINE
  8
0
 10
184.081
 20
130.987
 11
184.181
 21
131.214
  0
LINE
  8
0
 10
184.181
 20
131.214
 11
184.316
 21
131.421
  0
LINE
  8
0
 10
184.316
 20
131.421
 11
184.484
 21
131.604
  0
LINE
  8
0
 10
184.484
 20
131.604
 11
184.68
 21
131.756
  0
LINE
  8
0
 10
184.68
 20
131.756
 11
184.897
 21
131.874
  0
LINE
  8
0
 10
184.897
 20
131.874
 11
185.132
 21
131.954
  0
LINE
  8
0
 10
185.132
 20
131.954
 11
185.376
 21
131.995
  0
LINE
  8
0
 10
185.376
 20
131.995
 11
185.624
 21
131.995
  0
LINE
  8
0
 10
185.624
 20
131.995
 11
185.868
 21
131.954
  0
LINE
  8
0
 10
185.868
 20
131.954
 11
186.103
 21
131.874
  0
LINE
  8
0
 10
186.103
 20
131.874
 11
186.32
 21
131.756
  0
LINE
  8
0
 10
186.32
 20
131.756
 11
186.516
 21
131.604
  0
LINE
  8
0
 10
186.516
 20
131.604
 11
186.684
 21
131.421
  0
LINE
  8
0
 10
186.684
 20
131.421
 11
186.819
 21
131.214
  0
LINE
  8
0
 10
186.819
 20
131.214
 11
186.919
 21
130.987
  0
LINE
  8
0
 10
186.919
 20
130.987
 11
186.98
 21
130.747
  0
LINE
  8
0
 10
186.98
 20
130.747
 11
187
 21
130.5
  0
LINE
  8
0
 10
187
 20
130.5
 11
186.98
 21
130.253
  0
LINE
  8
0
 10
186.98
 20
130.253
 11
186.919
 21
130.013
  0
LINE
  8
0
 10
186.919
 20
130.013
 11
186.819
 21
129.786
  0
LINE
  8
0
 10
186.819
 20
129.786
 11
186.684
 21
129.579
  0
LINE
  8
0
 10
186.684
 20
129.579
 11
186.516
 21
129.396
  0
LINE
  8
0
 10
186.516
 20
129.396
 11
186.32
 21
129.244
  0
LINE
  8
0
 10
186.32
 20
129.244
 11
186.103
 21
129.126
  0
LINE
  8
0
 10
186.103
 20
129.126
 11
185.868
 21
129.046
  0
LINE
  8
0
 10
185.868
 20
129.046
 11
185.624
 21
129.005
  0
LINE
  8
0
 10
185.624
 20
129.005
 11
185.376
 21
129.005
  0
LINE
  8
0
 10
-185.624
 20
129.005
 11
-185.868
 21
129.046
  0
LINE
  8
0
 10
-185.868
 20
129.046
 11
-186.103
 21
129.126
  0
LINE
  8
0
 10
-186.103
 20
129.126
 11
-186.32
 21
129.244
  0
LINE
  8
0
 10
-186.32
 20
129.244
 11
-186.516
 21
129.396
  0
LINE
  8
0
 10
-186.516
 20
129.396
 11
-186.684
 21
129.579
  0
LINE
  8
0
 10
-186.684
 20
129.579
 11
-186.819
 21
129.786
  0
LINE
  8
0
 10
-186.819
 20
129.786
 11
-186.919
 21
130.013
  0
LINE
  8
0
 10
-186.919
 20
130.013
 11
-186.98
 21
130.253
  0
LINE
  8
0
 10
-186.98
 20
130.253
 11
-187
 21
130.5
  0
LINE
  8
0
 10
-187
 20
130.5
 11
-186.98
 21
130.747
  0
LINE
  8
0
 10
-186.98
 20
130.747
 11
-186.919
 21
130.987
  0
LINE
  8
0
 10
-186.919
 20
130.987
 11
-186.819
 21
131.214
  0
LINE
  8
0
 10
-186.819
 20
131.214
 11
-186.684
 21
131.421
  0
LINE
  8
0
 10
-186.684
 20
131.421
 11
-186.516
 21
131.604
  0
LINE
  8
0
 10
-186.516
 20
131.604
 11
-186.32
 21
131.756
  0
LINE
  8
0
 10
-186.32
 20
131.756
 11
-186.103
 21
131.874
  0
LINE
  8
0
 10
-186.103
 20
131.874
 11
-185.868
 21
131.954
  0
LINE
  8
0
 10
-185.868
 20
131.954
 11
-185.624
 21
131.995
  0
LINE
  8
0
 10
-185.624
 20
131.995
 11
-185.376
 21
131.995
  0
LINE
  8
0
 10
-185.376
 20
131.995
 11
-185.132
 21
131.954
  0
LINE
  8
0
 10
-185.132
 20
131.954
 11
-184.897
 21
131.874
  0
LINE
  8
0
 10
-184.897
 20
131.874
 11
-184.68
 21
131.756
  0
LINE
  8
0
 10
-184.68
 20
131.756
 11
-184.484
 21
131.604
  0
LINE
  8
0
 10
-184.484
 20
131.604
 11
-184.316
 21
131.421
  0
LINE
  8
0
 10
-184.316
 20
131.421
 11
-184.181
 21
131.214
  0
LINE
  8
0
 10
-184.181
 20
131.214
 11
-184.081
 21
130.987
  0
LINE
  8
0
 10
-184.081
 20
130.987
 11
-184.02
 21
130.747
  0
LINE
  8
0
 10
-184.02
 20
130.747
 11
-184
 21
130.5
  0
LINE
  8
0
 10
-184
 20
130.5
 11
-184.02
 21
130.253
  0
LINE
  8
0
 10
-184.02
 20
130.253
 11
-184.081
 21
130.013
  0
LINE
  8
0
 10
-184.081
 20
130.013
 11
-184.181
 21
129.786
  0
LINE
  8
0
 10
-184.181
 20
129.786
 11
-184.316
 21
129.579
  0
LINE
  8
0
 10
-184.316
 20
129.579
 11
-184.484
 21
129.396
  0
LINE
  8
0
 10
-184.484
 20
129.396
 11
-184.68
 21
129.244
  0
LINE
  8
0
 10
-184.68
 20
129.244
 11
-184.897
 21
129.126
  0
LINE
  8
0
 10
-184.897
 20
129.126
 11
-185.132
 21
129.046
  0
LINE
  8
0
 10
-185.132
 20
129.046
 11
-185.376
 21
129.005
  0
LINE
  8
0
 10
-185.376
 20
129.005
 11
-185.624
 21
129.005
  0
LINE
  8
0
 10
69.6864
 20
117.016
 11
69.3763
 21
117.066
  0
LINE
  8
0
 10
69.3763
 20
117.066
 11
69.073
 21
117.147
  0
LINE
  8
0
 10
69.073
 20
117.147
 11
68.7798
 21
117.259
  0
LINE
  8
0
 10
68.7798
 20
117.259
 11
68.5
 21
117.402
  0
LINE
  8
0
 10
68.5
 20
117.402
 11
68.2366
 21
117.573
  0
LINE
  8
0
 10
68.2366
 20
117.573
 11
67.9926
 21
117.771
  0
LINE
  8
0
 10
67.9926
 20
117.771
 11
67.7706
 21
117.993
  0
LINE
  8
0
 10
67.7706
 20
117.993
 11
67.573
 21
118.237
  0
LINE
  8
0
 10
67.573
 20
118.237
 11
67.4019
 21
118.5
  0
LINE
  8
0
 10
67.4019
 20
118.5
 11
67.2594
 21
118.78
  0
LINE
  8
0
 10
67.2594
 20
118.78
 11
67.1468
 21
119.073
  0
LINE
  8
0
 10
67.1468
 20
119.073
 11
67.0656
 21
119.376
  0
LINE
  8
0
 10
67.0656
 20
119.376
 11
67.0164
 21
119.686
  0
LINE
  8
0
 10
67.0164
 20
119.686
 11
67
 21
120
  0
LINE
  8
0
 10
67
 20
120
 11
67.0164
 21
120.314
  0
LINE
  8
0
 10
67.0164
 20
120.314
 11
67.0656
 21
120.624
  0
LINE
  8
0
 10
67.0656
 20
120.624
 11
67.1468
 21
120.927
  0
LINE
  8
0
 10
67.1468
 20
120.927
 11
67.2594
 21
121.22
  0
LINE
  8
0
 10
67.2594
 20
121.22
 11
67.4019
 21
121.5
  0
LINE
  8
0
 10
67.4019
 20
121.5
 11
67.573
 21
121.763
  0
LINE
  8
0
 10
67.573
 20
121.763
 11
67.7706
 21
122.007
  0
LINE
  8
0
 10
67.7706
 20
122.007
 11
67.9926
 21
122.229
  0
LINE
  8
0
 10
67.9926
 20
122.229
 11
68.2366
 21
122.427
  0
LINE
  8
0
 10
68.2366
 20
122.427
 11
68.5
 21
122.598
  0
LINE
  8
0
 10
68.5
 20
122.598
 11
68.7798
 21
122.741
  0
LINE
  8
0
 10
68.7798
 20
122.741
 11
69.073
 21
122.853
  0
LINE
  8
0
 10
69.073
 20
122.853
 11
69.3763
 21
122.934
  0
LINE
  8
0
 10
69.3763
 20
122.934
 11
69.6864
 21
122.984
  0
LINE
  8
0
 10
69.6864
 20
122.984
 11
70
 21
123
  0
LINE
  8
0
 10
70
 20
123
 11
70.3136
 21
122.984
  0
LINE
  8
0
 10
70.3136
 20
122.984
 11
70.6237
 21
122.934
  0
LINE
  8
0
 10
70.6237
 20
122.934
 11
70.927
 21
122.853
  0
LINE
  8
0
 10
70.927
 20
122.853
 11
71.2202
 21
122.741
  0
LINE
  8
0
 10
71.2202
 20
122.741
 11
71.5
 21
122.598
  0
LINE
  8
0
 10
71.5
 20
122.598
 11
71.7634
 21
122.427
  0
LINE
  8
0
 10
71.7634
 20
122.427
 11
72.0074
 21
122.229
  0
LINE
  8
0
 10
72.0074
 20
122.229
 11
72.2294
 21
122.007
  0
LINE
  8
0
 10
72.2294
 20
122.007
 11
72.427
 21
121.763
  0
LINE
  8
0
 10
72.427
 20
121.763
 11
72.5981
 21
121.5
  0
LINE
  8
0
 10
72.5981
 20
121.5
 11
72.7406
 21
121.22
  0
LINE
  8
0
 10
72.7406
 20
121.22
 11
72.8532
 21
120.927
  0
LINE
  8
0
 10
72.8532
 20
120.927
 11
72.9344
 21
120.624
  0
LINE
  8
0
 10
72.9344
 20
120.624
 11
72.9836
 21
120.314
  0
LINE
  8
0
 10
72.9836
 20
120.314
 11
73
 21
120
  0
LINE
  8
0
 10
73
 20
120
 11
72.9836
 21
119.686
  0
LINE
  8
0
 10
72.9836
 20
119.686
 11
72.9344
 21
119.376
  0
LINE
  8
0
 10
72.9344
 20
119.376
 11
72.8532
 21
119.073
  0
LINE
  8
0
 10
72.8532
 20
119.073
 11
72.7406
 21
118.78
  0
LINE
  8
0
 10
72.7406
 20
118.78
 11
72.5981
 21
118.5
  0
LINE
  8
0
 10
72.5981
 20
118.5
 11
72.427
 21
118.237
  0
LINE
  8
0
 10
72.427
 20
118.237
 11
72.2294
 21
117.993
  0
LINE
  8
0
 10
72.2294
 20
117.993
 11
72.0074
 21
117.771
  0
LINE
  8
0
 10
72.0074
 20
117.771
 11
71.7634
 21
117.573
  0
LINE
  8
0
 10
71.7634
 20
117.573
 11
71.5
 21
117.402
  0
LINE
  8
0
 10
71.5
 20
117.402
 11
71.2202
 21
117.259
  0
LINE
  8
0
 10
71.2202
 20
117.259
 11
70.927
 21
117.147
  0
LINE
  8
0
 10
70.927
 20
117.147
 11
70.6237
 21
117.066
  0
LINE
  8
0
 10
70.6237
 20
117.066
 11
70.3136
 21
117.016
  0
LINE
  8
0
 10
70.3136
 20
117.016
 11
70
 21
117
  0
LINE
  8
0
 10
70
 20
117
 11
69.6864
 21
117.016
  0
LINE
  8
0
 10
-157.746
 20
88.8138
 11
-157.99
 21
88.8551
  0
LINE
  8
0
 10
-157.99
 20
88.8551
 11
-158.227
 21
88.9234
  0
LINE
  8
0
 10
-158.227
 20
88.9234
 11
-158.455
 21
89.0179
  0
LINE
  8
0
 10
-158.455
 20
89.0179
 11
-158.67
 21
89.1372
  0
LINE
  8
0
 10
-158.67
 20
89.1372
 11
-158.872
 21
89.28
  0
LINE
  8
0
 10
-158.872
 20
89.28
 11
-159.056
 21
89.4444
  0
LINE
  8
0
 10
-159.056
 20
89.4444
 11
-159.22
 21
89.6283
  0
LINE
  8
0
 10
-159.22
 20
89.6283
 11
-159.363
 21
89.8295
  0
LINE
  8
0
 10
-159.363
 20
89.8295
 11
-159.482
 21
90.0455
  0
LINE
  8
0
 10
-159.482
 20
90.0455
 11
-159.577
 21
90.2734
  0
LINE
  8
0
 10
-159.577
 20
90.2734
 11
-159.645
 21
90.5105
  0
LINE
  8
0
 10
-159.645
 20
90.5105
 11
-159.686
 21
90.7537
  0
LINE
  8
0
 10
-159.686
 20
90.7537
 11
-159.7
 21
91
  0
LINE
  8
0
 10
-159.7
 20
91
 11
-159.686
 21
91.2463
  0
LINE
  8
0
 10
-159.686
 20
91.2463
 11
-159.645
 21
91.4895
  0
LINE
  8
0
 10
-159.645
 20
91.4895
 11
-159.577
 21
91.7266
  0
LINE
  8
0
 10
-159.577
 20
91.7266
 11
-159.482
 21
91.9545
  0
LINE
  8
0
 10
-159.482
 20
91.9545
 11
-159.363
 21
92.1705
  0
LINE
  8
0
 10
-159.363
 20
92.1705
 11
-159.22
 21
92.3717
  0
LINE
  8
0
 10
-159.22
 20
92.3717
 11
-159.056
 21
92.5556
  0
LINE
  8
0
 10
-159.056
 20
92.5556
 11
-158.872
 21
92.72
  0
LINE
  8
0
 10
-158.872
 20
92.72
 11
-158.67
 21
92.8628
  0
LINE
  8
0
 10
-158.67
 20
92.8628
 11
-158.455
 21
92.9821
  0
LINE
  8
0
 10
-158.455
 20
92.9821
 11
-158.227
 21
93.0765
  0
LINE
  8
0
 10
-158.227
 20
93.0765
 11
-157.99
 21
93.1448
  0
LINE
  8
0
 10
-157.99
 20
93.1448
 11
-157.746
 21
93.1862
  0
LINE
  8
0
 10
-157.746
 20
93.1862
 11
-157.5
 21
93.2
  0
LINE
  8
0
 10
-157.5
 20
93.2
 11
-157.254
 21
93.1862
  0
LINE
  8
0
 10
-157.254
 20
93.1862
 11
-157.01
 21
93.1448
  0
LINE
  8
0
 10
-157.01
 20
93.1448
 11
-156.773
 21
93.0765
  0
LINE
  8
0
 10
-156.773
 20
93.0765
 11
-156.545
 21
92.9821
  0
LINE
  8
0
 10
-156.545
 20
92.9821
 11
-156.33
 21
92.8628
  0
LINE
  8
0
 10
-156.33
 20
92.8628
 11
-156.128
 21
92.72
  0
LINE
  8
0
 10
-156.128
 20
92.72
 11
-155.944
 21
92.5556
  0
LINE
  8
0
 10
-155.944
 20
92.5556
 11
-155.78
 21
92.3717
  0
LINE
  8
0
 10
-155.78
 20
92.3717
 11
-155.637
 21
92.1705
  0
LINE
  8
0
 10
-155.637
 20
92.1705
 11
-155.518
 21
91.9545
  0
LINE
  8
0
 10
-155.518
 20
91.9545
 11
-155.423
 21
91.7266
  0
LINE
  8
0
 10
-155.423
 20
91.7266
 11
-155.355
 21
91.4895
  0
LINE
  8
0
 10
-155.355
 20
91.4895
 11
-155.314
 21
91.2463
  0
LINE
  8
0
 10
-155.314
 20
91.2463
 11
-155.3
 21
91
  0
LINE
  8
0
 10
-155.3
 20
91
 11
-155.314
 21
90.7537
  0
LINE
  8
0
 10
-155.314
 20
90.7537
 11
-155.355
 21
90.5105
  0
LINE
  8
0
 10
-155.355
 20
90.5105
 11
-155.423
 21
90.2734
  0
LINE
  8
0
 10
-155.423
 20
90.2734
 11
-155.518
 21
90.0455
  0
LINE
  8
0
 10
-155.518
 20
90.0455
 11
-155.637
 21
89.8295
  0
LINE
  8
0
 10
-155.637
 20
89.8295
 11
-155.78
 21
89.6283
  0
LINE
  8
0
 10
-155.78
 20
89.6283
 11
-155.944
 21
89.4444
  0
LINE
  8
0
 10
-155.944
 20
89.4444
 11
-156.128
 21
89.28
  0
LINE
  8
0
 10
-156.128
 20
89.28
 11
-156.33
 21
89.1372
  0
LINE
  8
0
 10
-156.33
 20
89.1372
 11
-156.545
 21
89.0179
  0
LINE
  8
0
 10
-156.545
 20
89.0179
 11
-156.773
 21
88.9234
  0
LINE
  8
0
 10
-156.773
 20
88.9234
 11
-157.01
 21
88.8551
  0
LINE
  8
0
 10
-157.01
 20
88.8551
 11
-157.254
 21
88.8138
  0
LINE
  8
0
 10
-157.254
 20
88.8138
 11
-157.5
 21
88.8
  0
LINE
  8
0
 10
-157.5
 20
88.8
 11
-157.746
 21
88.8138
  0
LINE
  8
0
 10
-42.7463
 20
88.8138
 11
-42.9895
 21
88.8551
  0
LINE
  8
0
 10
-42.9895
 20
88.8551
 11
-43.2266
 21
88.9234
  0
LINE
  8
0
 10
-43.2266
 20
88.9234
 11
-43.4545
 21
89.0179
  0
LINE
  8
0
 10
-43.4545
 20
89.0179
 11
-43.6705
 21
89.1372
  0
LINE
  8
0
 10
-43.6705
 20
89.1372
 11
-43.8717
 21
89.28
  0
LINE
  8
0
 10
-43.8717
 20
89.28
 11
-44.0556
 21
89.4444
  0
LINE
  8
0
 10
-44.0556
 20
89.4444
 11
-44.22
 21
89.6283
  0
LINE
  8
0
 10
-44.22
 20
89.6283
 11
-44.3628
 21
89.8295
  0
LINE
  8
0
 10
-44.3628
 20
89.8295
 11
-44.4821
 21
90.0455
  0
LINE
  8
0
 10
-44.4821
 20
90.0455
 11
-44.5765
 21
90.2734
  0
LINE
  8
0
 10
-44.5765
 20
90.2734
 11
-44.6448
 21
90.5105
  0
LINE
  8
0
 10
-44.6448
 20
90.5105
 11
-44.6862
 21
90.7537
  0
LINE
  8
0
 10
-44.6862
 20
90.7537
 11
-44.7
 21
91
  0
LINE
  8
0
 10
-44.7
 20
91
 11
-44.6862
 21
91.2463
  0
LINE
  8
0
 10
-44.6862
 20
91.2463
 11
-44.6448
 21
91.4895
  0
LINE
  8
0
 10
-44.6448
 20
91.4895
 11
-44.5765
 21
91.7266
  0
LINE
  8
0
 10
-44.5765
 20
91.7266
 11
-44.4821
 21
91.9545
  0
LINE
  8
0
 10
-44.4821
 20
91.9545
 11
-44.3628
 21
92.1705
  0
LINE
  8
0
 10
-44.3628
 20
92.1705
 11
-44.22
 21
92.3717
  0
LINE
  8
0
 10
-44.22
 20
92.3717
 11
-44.0556
 21
92.5556
  0
LINE
  8
0
 10
-44.0556
 20
92.5556
 11
-43.8717
 21
92.72
  0
LINE
  8
0
 10
-43.8717
 20
92.72
 11
-43.6705
 21
92.8628
  0
LINE
  8
0
 10
-43.6705
 20
92.8628
 11
-43.4545
 21
92.9821
  0
LINE
  8
0
 10
-43.4545
 20
92.9821
 11
-43.2266
 21
93.0765
  0
LINE
  8
0
 10
-43.2266
 20
93.0765
 11
-42.9895
 21
93.1448
  0
LINE
  8
0
 10
-42.9895
 20
93.1448
 11
-42.7463
 21
93.1862
  0
LINE
  8
0
 10
-42.7463
 20
93.1862
 11
-42.5
 21
93.2
  0
LINE
  8
0
 10
-42.5
 20
93.2
 11
-42.2537
 21
93.1862
  0
LINE
  8
0
 10
-42.2537
 20
93.1862
 11
-42.0105
 21
93.1448
  0
LINE
  8
0
 10
-42.0105
 20
93.1448
 11
-41.7734
 21
93.0765
  0
LINE
  8
0
 10
-41.7734
 20
93.0765
 11
-41.5455
 21
92.9821
  0
LINE
  8
0
 10
-41.5455
 20
92.9821
 11
-41.3295
 21
92.8628
  0
LINE
  8
0
 10
-41.3295
 20
92.8628
 11
-41.1283
 21
92.72
  0
LINE
  8
0
 10
-41.1283
 20
92.72
 11
-40.9444
 21
92.5556
  0
LINE
  8
0
 10
-40.9444
 20
92.5556
 11
-40.78
 21
92.3717
  0
LINE
  8
0
 10
-40.78
 20
92.3717
 11
-40.6372
 21
92.1705
  0
LINE
  8
0
 10
-40.6372
 20
92.1705
 11
-40.5179
 21
91.9545
  0
LINE
  8
0
 10
-40.5179
 20
91.9545
 11
-40.4234
 21
91.7266
  0
LINE
  8
0
 10
-40.4234
 20
91.7266
 11
-40.3551
 21
91.4895
  0
LINE
  8
0
 10
-40.3551
 20
91.4895
 11
-40.3138
 21
91.2463
  0
LINE
  8
0
 10
-40.3138
 20
91.2463
 11
-40.3
 21
91
  0
LINE
  8
0
 10
-40.3
 20
91
 11
-40.3138
 21
90.7537
  0
LINE
  8
0
 10
-40.3138
 20
90.7537
 11
-40.3551
 21
90.5105
  0
LINE
  8
0
 10
-40.3551
 20
90.5105
 11
-40.4234
 21
90.2734
  0
LINE
  8
0
 10
-40.4234
 20
90.2734
 11
-40.5179
 21
90.0455
  0
LINE
  8
0
 10
-40.5179
 20
90.0455
 11
-40.6372
 21
89.8295
  0
LINE
  8
0
 10
-40.6372
 20
89.8295
 11
-40.78
 21
89.6283
  0
LINE
  8
0
 10
-40.78
 20
89.6283
 11
-40.9444
 21
89.4444
  0
LINE
  8
0
 10
-40.9444
 20
89.4444
 11
-41.1283
 21
89.28
  0
LINE
  8
0
 10
-41.1283
 20
89.28
 11
-41.3295
 21
89.1372
  0
LINE
  8
0
 10
-41.3295
 20
89.1372
 11
-41.5455
 21
89.0179
  0
LINE
  8
0
 10
-41.5455
 20
89.0179
 11
-41.7734
 21
88.9234
  0
LINE
  8
0
 10
-41.7734
 20
88.9234
 11
-42.0105
 21
88.8551
  0
LINE
  8
0
 10
-42.0105
 20
88.8551
 11
-42.2537
 21
88.8138
  0
LINE
  8
0
 10
-42.2537
 20
88.8138
 11
-42.5
 21
88.8
  0
LINE
  8
0
 10
-42.5
 20
88.8
 11
-42.7463
 21
88.8138
  0
LINE
  8
0
 10
-27.7463
 20
88.8138
 11
-27.9895
 21
88.8551
  0
LINE
  8
0
 10
-27.9895
 20
88.8551
 11
-28.2266
 21
88.9234
  0
LINE
  8
0
 10
-28.2266
 20
88.9234
 11
-28.4545
 21
89.0179
  0
LINE
  8
0
 10
-28.4545
 20
89.0179
 11
-28.6705
 21
89.1372
  0
LINE
  8
0
 10
-28.6705
 20
89.1372
 11
-28.8717
 21
89.28
  0
LINE
  8
0
 10
-28.8717
 20
89.28
 11
-29.0556
 21
89.4444
  0
LINE
  8
0
 10
-29.0556
 20
89.4444
 11
-29.22
 21
89.6283
  0
LINE
  8
0
 10
-29.22
 20
89.6283
 11
-29.3628
 21
89.8295
  0
LINE
  8
0
 10
-29.3628
 20
89.8295
 11
-29.4821
 21
90.0455
  0
LINE
  8
0
 10
-29.4821
 20
90.0455
 11
-29.5765
 21
90.2734
  0
LINE
  8
0
 10
-29.5765
 20
90.2734
 11
-29.6448
 21
90.5105
  0
LINE
  8
0
 10
-29.6448
 20
90.5105
 11
-29.6862
 21
90.7537
  0
LINE
  8
0
 10
-29.6862
 20
90.7537
 11
-29.7
 21
91
  0
LINE
  8
0
 10
-29.7
 20
91
 11
-29.6862
 21
91.2463
  0
LINE
  8
0
 10
-29.6862
 20
91.2463
 11
-29.6448
 21
91.4895
  0
LINE
  8
0
 10
-29.6448
 20
91.4895
 11
-29.5765
 21
91.7266
  0
LINE
  8
0
 10
-29.5765
 20
91.7266
 11
-29.4821
 21
91.9545
  0
LINE
  8
0
 10
-29.4821
 20
91.9545
 11
-29.3628
 21
92.1705
  0
LINE
  8
0
 10
-29.3628
 20
92.1705
 11
-29.22
 21
92.3717
  0
LINE
  8
0
 10
-29.22
 20
92.3717
 11
-29.0556
 21
92.5556
  0
LINE
  8
0
 10
-29.0556
 20
92.5556
 11
-28.8717
 21
92.72
  0
LINE
  8
0
 10
-28.8717
 20
92.72
 11
-28.6705
 21
92.8628
  0
LINE
  8
0
 10
-28.6705
 20
92.8628
 11
-28.4545
 21
92.9821
  0
LINE
  8
0
 10
-28.4545
 20
92.9821
 11
-28.2266
 21
93.0765
  0
LINE
  8
0
 10
-28.2266
 20
93.0765
 11
-27.9895
 21
93.1448
  0
LINE
  8
0
 10
-27.9895
 20
93.1448
 11
-27.7463
 21
93.1862
  0
LINE
  8
0
 10
-27.7463
 20
93.1862
 11
-27.5
 21
93.2
  0
LINE
  8
0
 10
-27.5
 20
93.2
 11
-27.2537
 21
93.1862
  0
LINE
  8
0
 10
-27.2537
 20
93.1862
 11
-27.0105
 21
93.1448
  0
LINE
  8
0
 10
-27.0105
 20
93.1448
 11
-26.7734
 21
93.0765
  0
LINE
  8
0
 10
-26.7734
 20
93.0765
 11
-26.5455
 21
92.9821
  0
LINE
  8
0
 10
-26.5455
 20
92.9821
 11
-26.3295
 21
92.8628
  0
LINE
  8
0
 10
-26.3295
 20
92.8628
 11
-26.1283
 21
92.72
  0
LINE
  8
0
 10
-26.1283
 20
92.72
 11
-25.9444
 21
92.5556
  0
LINE
  8
0
 10
-25.9444
 20
92.5556
 11
-25.78
 21
92.3717
  0
LINE
  8
0
 10
-25.78
 20
92.3717
 11
-25.6372
 21
92.1705
  0
LINE
  8
0
 10
-25.6372
 20
92.1705
 11
-25.5179
 21
91.9545
  0
LINE
  8
0
 10
-25.5179
 20
91.9545
 11
-25.4234
 21
91.7266
  0
LINE
  8
0
 10
-25.4234
 20
91.7266
 11
-25.3551
 21
91.4895
  0
LINE
  8
0
 10
-25.3551
 20
91.4895
 11
-25.3138
 21
91.2463
  0
LINE
  8
0
 10
-25.3138
 20
91.2463
 11
-25.3
 21
91
  0
LINE
  8
0
 10
-25.3
 20
91
 11
-25.3138
 21
90.7537
  0
LINE
  8
0
 10
-25.3138
 20
90.7537
 11
-25.3551
 21
90.5105
  0
LINE
  8
0
 10
-25.3551
 20
90.5105
 11
-25.4234
 21
90.2734
  0
LINE
  8
0
 10
-25.4234
 20
90.2734
 11
-25.5179
 21
90.0455
  0
LINE
  8
0
 10
-25.5179
 20
90.0455
 11
-25.6372
 21
89.8295
  0
LINE
  8
0
 10
-25.6372
 20
89.8295
 11
-25.78
 21
89.6283
  0
LINE
  8
0
 10
-25.78
 20
89.6283
 11
-25.9444
 21
89.4444
  0
LINE
  8
0
 10
-25.9444
 20
89.4444
 11
-26.1283
 21
89.28
  0
LINE
  8
0
 10
-26.1283
 20
89.28
 11
-26.3295
 21
89.1372
  0
LINE
  8
0
 10
-26.3295
 20
89.1372
 11
-26.5455
 21
89.0179
  0
LINE
  8
0
 10
-26.5455
 20
89.0179
 11
-26.7734
 21
88.9234
  0
LINE
  8
0
 10
-26.7734
 20
88.9234
 11
-27.0105
 21
88.8551
  0
LINE
  8
0
 10
-27.0105
 20
88.8551
 11
-27.2537
 21
88.8138
  0
LINE
  8
0
 10
-27.2537
 20
88.8138
 11
-27.5
 21
88.8
  0
LINE
  8
0
 10
-27.5
 20
88.8
 11
-27.7463
 21
88.8138
  0
LINE
  8
0
 10
222.314
 20
86.5077
 11
222.069
 21
86.5417
  0
LINE
  8
0
 10
222.069
 20
86.5417
 11
221.828
 21
86.6026
  0
LINE
  8
0
 10
221.828
 20
86.6026
 11
221.596
 21
86.6895
  0
LINE
  8
0
 10
221.596
 20
86.6895
 11
221.375
 21
86.8014
  0
LINE
  8
0
 10
221.375
 20
86.8014
 11
221.167
 21
86.937
  0
LINE
  8
0
 10
221.167
 20
86.937
 11
220.976
 21
87.0946
  0
LINE
  8
0
 10
220.976
 20
87.0946
 11
220.803
 21
87.2723
  0
LINE
  8
0
 10
220.803
 20
87.2723
 11
220.651
 21
87.4679
  0
LINE
  8
0
 10
220.651
 20
87.4679
 11
220.521
 21
87.6791
  0
LINE
  8
0
 10
220.521
 20
87.6791
 11
220.415
 21
87.9033
  0
LINE
  8
0
 10
220.415
 20
87.9033
 11
220.335
 21
88.1378
  0
LINE
  8
0
 10
220.335
 20
88.1378
 11
220.281
 21
88.3797
  0
LINE
  8
0
 10
220.281
 20
88.3797
 11
220.253
 21
88.6261
  0
LINE
  8
0
 10
220.253
 20
88.6261
 11
220.253
 21
88.8739
  0
LINE
  8
0
 10
220.253
 20
88.8739
 11
220.281
 21
89.1203
  0
LINE
  8
0
 10
220.281
 20
89.1203
 11
220.335
 21
89.3622
  0
LINE
  8
0
 10
220.335
 20
89.3622
 11
220.415
 21
89.5967
  0
LINE
  8
0
 10
220.415
 20
89.5967
 11
220.521
 21
89.8209
  0
LINE
  8
0
 10
220.521
 20
89.8209
 11
220.651
 21
90.0321
  0
LINE
  8
0
 10
220.651
 20
90.0321
 11
220.803
 21
90.2277
  0
LINE
  8
0
 10
220.803
 20
90.2277
 11
220.976
 21
90.4054
  0
LINE
  8
0
 10
220.976
 20
90.4054
 11
221.167
 21
90.563
  0
LINE
  8
0
 10
221.167
 20
90.563
 11
221.375
 21
90.6985
  0
LINE
  8
0
 10
221.375
 20
90.6985
 11
221.596
 21
90.8105
  0
LINE
  8
0
 10
221.596
 20
90.8105
 11
221.828
 21
90.8974
  0
LINE
  8
0
 10
221.828
 20
90.8974
 11
222.069
 21
90.9583
  0
LINE
  8
0
 10
222.069
 20
90.9583
 11
222.314
 21
90.9923
  0
LINE
  8
0
 10
222.314
 20
90.9923
 11
222.562
 21
90.9991
  0
LINE
  8
0
 10
222.562
 20
90.9991
 11
222.809
 21
90.9787
  0
LINE
  8
0
 10
222.809
 20
90.9787
 11
223.052
 21
90.9312
  0
LINE
  8
0
 10
223.052
 20
90.9312
 11
223.289
 21
90.8571
  0
LINE
  8
0
 10
223.289
 20
90.8571
 11
223.516
 21
90.7576
  0
LINE
  8
0
 10
223.516
 20
90.7576
 11
223.731
 21
90.6336
  0
LINE
  8
0
 10
223.731
 20
90.6336
 11
223.93
 21
90.4868
  0
LINE
  8
0
 10
223.93
 20
90.4868
 11
224.113
 21
90.3189
  0
LINE
  8
0
 10
224.113
 20
90.3189
 11
224.276
 21
90.132
  0
LINE
  8
0
 10
224.276
 20
90.132
 11
224.417
 21
89.9283
  0
LINE
  8
0
 10
224.417
 20
89.9283
 11
224.535
 21
89.7102
  0
LINE
  8
0
 10
224.535
 20
89.7102
 11
224.628
 21
89.4806
  0
LINE
  8
0
 10
224.628
 20
89.4806
 11
224.696
 21
89.242
  0
LINE
  8
0
 10
224.696
 20
89.242
 11
224.736
 21
88.9975
  0
LINE
  8
0
 10
224.736
 20
88.9975
 11
224.75
 21
88.75
  0
LINE
  8
0
 10
224.75
 20
88.75
 11
224.736
 21
88.5025
  0
LINE
  8
0
 10
224.736
 20
88.5025
 11
224.696
 21
88.258
  0
LINE
  8
0
 10
224.696
 20
88.258
 11
224.628
 21
88.0194
  0
LINE
  8
0
 10
224.628
 20
88.0194
 11
224.535
 21
87.7897
  0
LINE
  8
0
 10
224.535
 20
87.7897
 11
224.417
 21
87.5717
  0
LINE
  8
0
 10
224.417
 20
87.5717
 11
224.276
 21
87.368
  0
LINE
  8
0
 10
224.276
 20
87.368
 11
224.113
 21
87.1811
  0
LINE
  8
0
 10
224.113
 20
87.1811
 11
223.93
 21
87.0132
  0
LINE
  8
0
 10
223.93
 20
87.0132
 11
223.731
 21
86.8664
  0
LINE
  8
0
 10
223.731
 20
86.8664
 11
223.516
 21
86.7424
  0
LINE
  8
0
 10
223.516
 20
86.7424
 11
223.289
 21
86.6429
  0
LINE
  8
0
 10
223.289
 20
86.6429
 11
223.052
 21
86.5688
  0
LINE
  8
0
 10
223.052
 20
86.5688
 11
222.809
 21
86.5213
  0
LINE
  8
0
 10
222.809
 20
86.5213
 11
222.562
 21
86.5009
  0
LINE
  8
0
 10
222.562
 20
86.5009
 11
222.314
 21
86.5077
  0
LINE
  8
0
 10
-222.809
 20
86.5213
 11
-223.052
 21
86.5688
  0
LINE
  8
0
 10
-223.052
 20
86.5688
 11
-223.289
 21
86.6429
  0
LINE
  8
0
 10
-223.289
 20
86.6429
 11
-223.516
 21
86.7424
  0
LINE
  8
0
 10
-223.516
 20
86.7424
 11
-223.731
 21
86.8664
  0
LINE
  8
0
 10
-223.731
 20
86.8664
 11
-223.93
 21
87.0132
  0
LINE
  8
0
 10
-223.93
 20
87.0132
 11
-224.113
 21
87.1811
  0
LINE
  8
0
 10
-224.113
 20
87.1811
 11
-224.276
 21
87.368
  0
LINE
  8
0
 10
-224.276
 20
87.368
 11
-224.417
 21
87.5717
  0
LINE
  8
0
 10
-224.417
 20
87.5717
 11
-224.535
 21
87.7897
  0
LINE
  8
0
 10
-224.535
 20
87.7897
 11
-224.628
 21
88.0194
  0
LINE
  8
0
 10
-224.628
 20
88.0194
 11
-224.696
 21
88.258
  0
LINE
  8
0
 10
-224.696
 20
88.258
 11
-224.736
 21
88.5025
  0
LINE
  8
0
 10
-224.736
 20
88.5025
 11
-224.75
 21
88.75
  0
LINE
  8
0
 10
-224.75
 20
88.75
 11
-224.736
 21
88.9975
  0
LINE
  8
0
 10
-224.736
 20
88.9975
 11
-224.696
 21
89.242
  0
LINE
  8
0
 10
-224.696
 20
89.242
 11
-224.628
 21
89.4806
  0
LINE
  8
0
 10
-224.628
 20
89.4806
 11
-224.535
 21
89.7102
  0
LINE
  8
0
 10
-224.535
 20
89.7102
 11
-224.417
 21
89.9283
  0
LINE
  8
0
 10
-224.417
 20
89.9283
 11
-224.276
 21
90.132
  0
LINE
  8
0
 10
-224.276
 20
90.132
 11
-224.113
 21
90.3189
  0
LINE
  8
0
 10
-224.113
 20
90.3189
 11
-223.93
 21
90.4868
  0
LINE
  8
0
 10
-223.93
 20
90.4868
 11
-223.731
 21
90.6336
  0
LINE
  8
0
 10
-223.731
 20
90.6336
 11
-223.516
 21
90.7576
  0
LINE
  8
0
 10
-223.516
 20
90.7576
 11
-223.289
 21
90.8571
  0
LINE
  8
0
 10
-223.289
 20
90.8571
 11
-223.052
 21
90.9312
  0
LINE
  8
0
 10
-223.052
 20
90.9312
 11
-222.809
 21
90.9787
  0
LINE
  8
0
 10
-222.809
 20
90.9787
 11
-222.562
 21
90.9991
  0
LINE
  8
0
 10
-222.562
 20
90.9991
 11
-222.314
 21
90.9923
  0
LINE
  8
0
 10
-222.314
 20
90.9923
 11
-222.069
 21
90.9583
  0
LINE
  8
0
 10
-222.069
 20
90.9583
 11
-221.828
 21
90.8974
  0
LINE
  8
0
 10
-221.828
 20
90.8974
 11
-221.596
 21
90.8105
  0
LINE
  8
0
 10
-221.596
 20
90.8105
 11
-221.375
 21
90.6985
  0
LINE
  8
0
 10
-221.375
 20
90.6985
 11
-221.167
 21
90.563
  0
LINE
  8
0
 10
-221.167
 20
90.563
 11
-220.976
 21
90.4054
  0
LINE
  8
0
 10
-220.976
 20
90.4054
 11
-220.803
 21
90.2277
  0
LINE
  8
0
 10
-220.803
 20
90.2277
 11
-220.651
 21
90.0321
  0
LINE
  8
0
 10
-220.651
 20
90.0321
 11
-220.521
 21
89.8209
  0
LINE
  8
0
 10
-220.521
 20
89.8209
 11
-220.415
 21
89.5967
  0
LINE
  8
0
 10
-220.415
 20
89.5967
 11
-220.335
 21
89.3622
  0
LINE
  8
0
 10
-220.335
 20
89.3622
 11
-220.281
 21
89.1203
  0
LINE
  8
0
 10
-220.281
 20
89.1203
 11
-220.253
 21
88.8739
  0
LINE
  8
0
 10
-220.253
 20
88.8739
 11
-220.253
 21
88.6261
  0
LINE
  8
0
 10
-220.253
 20
88.6261
 11
-220.281
 21
88.3797
  0
LINE
  8
0
 10
-220.281
 20
88.3797
 11
-220.335
 21
88.1378
  0
LINE
  8
0
 10
-220.335
 20
88.1378
 11
-220.415
 21
87.9033
  0
LINE
  8
0
 10
-220.415
 20
87.9033
 11
-220.521
 21
87.6791
  0
LINE
  8
0
 10
-220.521
 20
87.6791
 11
-220.651
 21
87.4679
  0
LINE
  8
0
 10
-220.651
 20
87.4679
 11
-220.803
 21
87.2723
  0
LINE
  8
0
 10
-220.803
 20
87.2723
 11
-220.976
 21
87.0946
  0
LINE
  8
0
 10
-220.976
 20
87.0946
 11
-221.167
 21
86.937
  0
LINE
  8
0
 10
-221.167
 20
86.937
 11
-221.375
 21
86.8014
  0
LINE
  8
0
 10
-221.375
 20
86.8014
 11
-221.596
 21
86.6895
  0
LINE
  8
0
 10
-221.596
 20
86.6895
 11
-221.828
 21
86.6026
  0
LINE
  8
0
 10
-221.828
 20
86.6026
 11
-222.069
 21
86.5417
  0
LINE
  8
0
 10
-222.069
 20
86.5417
 11
-222.314
 21
86.5077
  0
LINE
  8
0
 10
-222.314
 20
86.5077
 11
-222.562
 21
86.5009
  0
LINE
  8
0
 10
-222.562
 20
86.5009
 11
-222.809
 21
86.5213
  0
LINE
  8
0
 10
159.739
 20
66.2637
 11
159.48
 21
66.3046
  0
LINE
  8
0
 10
159.48
 20
66.3046
 11
159.227
 21
66.3724
  0
LINE
  8
0
 10
159.227
 20
66.3724
 11
158.983
 21
66.4661
  0
LINE
  8
0
 10
158.983
 20
66.4661
 11
158.75
 21
66.5849
  0
LINE
  8
0
 10
158.75
 20
66.5849
 11
158.531
 21
66.7274
  0
LINE
  8
0
 10
158.531
 20
66.7274
 11
158.327
 21
66.8921
  0
LINE
  8
0
 10
158.327
 20
66.8921
 11
158.142
 21
67.0772
  0
LINE
  8
0
 10
158.142
 20
67.0772
 11
157.977
 21
67.2805
  0
LINE
  8
0
 10
157.977
 20
67.2805
 11
157.835
 21
67.5
  0
LINE
  8
0
 10
157.835
 20
67.5
 11
157.716
 21
67.7332
  0
LINE
  8
0
 10
157.716
 20
67.7332
 11
157.622
 21
67.9774
  0
LINE
  8
0
 10
157.622
 20
67.9774
 11
157.555
 21
68.2302
  0
LINE
  8
0
 10
157.555
 20
68.2302
 11
157.514
 21
68.4887
  0
LINE
  8
0
 10
157.514
 20
68.4887
 11
157.5
 21
68.75
  0
LINE
  8
0
 10
157.5
 20
68.75
 11
157.514
 21
69.0113
  0
LINE
  8
0
 10
157.514
 20
69.0113
 11
157.555
 21
69.2698
  0
LINE
  8
0
 10
157.555
 20
69.2698
 11
157.622
 21
69.5225
  0
LINE
  8
0
 10
157.622
 20
69.5225
 11
157.716
 21
69.7668
  0
LINE
  8
0
 10
157.716
 20
69.7668
 11
157.835
 21
70
  0
LINE
  8
0
 10
157.835
 20
70
 11
157.977
 21
70.2195
  0
LINE
  8
0
 10
157.977
 20
70.2195
 11
158.142
 21
70.4228
  0
LINE
  8
0
 10
158.142
 20
70.4228
 11
158.327
 21
70.6079
  0
LINE
  8
0
 10
158.327
 20
70.6079
 11
158.531
 21
70.7725
  0
LINE
  8
0
 10
158.531
 20
70.7725
 11
158.75
 21
70.9151
  0
LINE
  8
0
 10
158.75
 20
70.9151
 11
158.983
 21
71.0339
  0
LINE
  8
0
 10
158.983
 20
71.0339
 11
159.227
 21
71.1276
  0
LINE
  8
0
 10
159.227
 20
71.1276
 11
159.48
 21
71.1954
  0
LINE
  8
0
 10
159.48
 20
71.1954
 11
159.739
 21
71.2363
  0
LINE
  8
0
 10
159.739
 20
71.2363
 11
160
 21
71.25
  0
LINE
  8
0
 10
160
 20
71.25
 11
160.261
 21
71.2363
  0
LINE
  8
0
 10
160.261
 20
71.2363
 11
160.52
 21
71.1954
  0
LINE
  8
0
 10
160.52
 20
71.1954
 11
160.773
 21
71.1276
  0
LINE
  8
0
 10
160.773
 20
71.1276
 11
161.017
 21
71.0339
  0
LINE
  8
0
 10
161.017
 20
71.0339
 11
161.25
 21
70.9151
  0
LINE
  8
0
 10
161.25
 20
70.9151
 11
161.469
 21
70.7725
  0
LINE
  8
0
 10
161.469
 20
70.7725
 11
161.673
 21
70.6079
  0
LINE
  8
0
 10
161.673
 20
70.6079
 11
161.858
 21
70.4228
  0
LINE
  8
0
 10
161.858
 20
70.4228
 11
162.023
 21
70.2195
  0
LINE
  8
0
 10
162.023
 20
70.2195
 11
162.165
 21
70
  0
LINE
  8
0
 10
162.165
 20
70
 11
162.284
 21
69.7668
  0
LINE
  8
0
 10
162.284
 20
69.7668
 11
162.378
 21
69.5225
  0
LINE
  8
0
 10
162.378
 20
69.5225
 11
162.445
 21
69.2698
  0
LINE
  8
0
 10
162.445
 20
69.2698
 11
162.486
 21
69.0113
  0
LINE
  8
0
 10
162.486
 20
69.0113
 11
162.5
 21
68.75
  0
LINE
  8
0
 10
162.5
 20
68.75
 11
162.486
 21
68.4887
  0
LINE
  8
0
 10
162.486
 20
68.4887
 11
162.445
 21
68.2302
  0
LINE
  8
0
 10
162.445
 20
68.2302
 11
162.378
 21
67.9774
  0
LINE
  8
0
 10
162.378
 20
67.9774
 11
162.284
 21
67.7332
  0
LINE
  8
0
 10
162.284
 20
67.7332
 11
162.165
 21
67.5
  0
LINE
  8
0
 10
162.165
 20
67.5
 11
162.023
 21
67.2805
  0
LINE
  8
0
 10
162.023
 20
67.2805
 11
161.858
 21
67.0772
  0
LINE
  8
0
 10
161.858
 20
67.0772
 11
161.673
 21
66.8921
  0
LINE
  8
0
 10
161.673
 20
66.8921
 11
161.469
 21
66.7274
  0
LINE
  8
0
 10
161.469
 20
66.7274
 11
161.25
 21
66.5849
  0
LINE
  8
0
 10
161.25
 20
66.5849
 11
161.017
 21
66.4661
  0
LINE
  8
0
 10
161.017
 20
66.4661
 11
160.773
 21
66.3724
  0
LINE
  8
0
 10
160.773
 20
66.3724
 11
160.52
 21
66.3046
  0
LINE
  8
0
 10
160.52
 20
66.3046
 11
160.261
 21
66.2637
  0
LINE
  8
0
 10
160.261
 20
66.2637
 11
160
 21
66.25
  0
LINE
  8
0
 10
160
 20
66.25
 11
159.739
 21
66.2637
  0
LINE
  8
0
 10
159.739
 20
18.7637
 11
159.48
 21
18.8046
  0
LINE
  8
0
 10
159.48
 20
18.8046
 11
159.227
 21
18.8724
  0
LINE
  8
0
 10
159.227
 20
18.8724
 11
158.983
 21
18.9661
  0
LINE
  8
0
 10
158.983
 20
18.9661
 11
158.75
 21
19.0849
  0
LINE
  8
0
 10
158.75
 20
19.0849
 11
158.531
 21
19.2274
  0
LINE
  8
0
 10
158.531
 20
19.2274
 11
158.327
 21
19.3921
  0
LINE
  8
0
 10
158.327
 20
19.3921
 11
158.142
 21
19.5772
  0
LINE
  8
0
 10
158.142
 20
19.5772
 11
157.977
 21
19.7805
  0
LINE
  8
0
 10
157.977
 20
19.7805
 11
157.835
 21
20
  0
LINE
  8
0
 10
157.835
 20
20
 11
157.716
 21
20.2332
  0
LINE
  8
0
 10
157.716
 20
20.2332
 11
157.622
 21
20.4774
  0
LINE
  8
0
 10
157.622
 20
20.4774
 11
157.555
 21
20.7302
  0
LINE
  8
0
 10
157.555
 20
20.7302
 11
157.514
 21
20.9887
  0
LINE
  8
0
 10
157.514
 20
20.9887
 11
157.5
 21
21.25
  0
LINE
  8
0
 10
157.5
 20
21.25
 11
157.514
 21
21.5113
  0
LINE
  8
0
 10
157.514
 20
21.5113
 11
157.555
 21
21.7698
  0
LINE
  8
0
 10
157.555
 20
21.7698
 11
157.622
 21
22.0225
  0
LINE
  8
0
 10
157.622
 20
22.0225
 11
157.716
 21
22.2668
  0
LINE
  8
0
 10
157.716
 20
22.2668
 11
157.835
 21
22.5
  0
LINE
  8
0
 10
157.835
 20
22.5
 11
157.977
 21
22.7195
  0
LINE
  8
0
 10
157.977
 20
22.7195
 11
158.142
 21
22.9228
  0
LINE
  8
0
 10
158.142
 20
22.9228
 11
158.327
 21
23.1078
  0
LINE
  8
0
 10
158.327
 20
23.1078
 11
158.531
 21
23.2725
  0
LINE
  8
0
 10
158.531
 20
23.2725
 11
158.75
 21
23.4151
  0
LINE
  8
0
 10
158.75
 20
23.4151
 11
158.983
 21
23.5339
  0
LINE
  8
0
 10
158.983
 20
23.5339
 11
159.227
 21
23.6276
  0
LINE
  8
0
 10
159.227
 20
23.6276
 11
159.48
 21
23.6954
  0
LINE
  8
0
 10
159.48
 20
23.6954
 11
159.739
 21
23.7363
  0
LINE
  8
0
 10
159.739
 20
23.7363
 11
160
 21
23.75
  0
LINE
  8
0
 10
160
 20
23.75
 11
160.261
 21
23.7363
  0
LINE
  8
0
 10
160.261
 20
23.7363
 11
160.52
 21
23.6954
  0
LINE
  8
0
 10
160.52
 20
23.6954
 11
160.773
 21
23.6276
  0
LINE
  8
0
 10
160.773
 20
23.6276
 11
161.017
 21
23.5339
  0
LINE
  8
0
 10
161.017
 20
23.5339
 11
161.25
 21
23.4151
  0
LINE
  8
0
 10
161.25
 20
23.4151
 11
161.469
 21
23.2725
  0
LINE
  8
0
 10
161.469
 20
23.2725
 11
161.673
 21
23.1078
  0
LINE
  8
0
 10
161.673
 20
23.1078
 11
161.858
 21
22.9228
  0
LINE
  8
0
 10
161.858
 20
22.9228
 11
162.023
 21
22.7195
  0
LINE
  8
0
 10
162.023
 20
22.7195
 11
162.165
 21
22.5
  0
LINE
  8
0
 10
162.165
 20
22.5
 11
162.284
 21
22.2668
  0
LINE
  8
0
 10
162.284
 20
22.2668
 11
162.378
 21
22.0225
  0
LINE
  8
0
 10
162.378
 20
22.0225
 11
162.445
 21
21.7698
  0
LINE
  8
0
 10
162.445
 20
21.7698
 11
162.486
 21
21.5113
  0
LINE
  8
0
 10
162.486
 20
21.5113
 11
162.5
 21
21.25
  0
LINE
  8
0
 10
162.5
 20
21.25
 11
162.486
 21
20.9887
  0
LINE
  8
0
 10
162.486
 20
20.9887
 11
162.445
 21
20.7302
  0
LINE
  8
0
 10
162.445
 20
20.7302
 11
162.378
 21
20.4774
  0
LINE
  8
0
 10
162.378
 20
20.4774
 11
162.284
 21
20.2332
  0
LINE
  8
0
 10
162.284
 20
20.2332
 11
162.165
 21
20
  0
LINE
  8
0
 10
162.165
 20
20
 11
162.023
 21
19.7805
  0
LINE
  8
0
 10
162.023
 20
19.7805
 11
161.858
 21
19.5772
  0
LINE
  8
0
 10
161.858
 20
19.5772
 11
161.673
 21
19.3921
  0
LINE
  8
0
 10
161.673
 20
19.3921
 11
161.469
 21
19.2274
  0
LINE
  8
0
 10
161.469
 20
19.2274
 11
161.25
 21
19.0849
  0
LINE
  8
0
 10
161.25
 20
19.0849
 11
161.017
 21
18.9661
  0
LINE
  8
0
 10
161.017
 20
18.9661
 11
160.773
 21
18.8724
  0
LINE
  8
0
 10
160.773
 20
18.8724
 11
160.52
 21
18.8046
  0
LINE
  8
0
 10
160.52
 20
18.8046
 11
160.261
 21
18.7637
  0
LINE
  8
0
 10
160.261
 20
18.7637
 11
160
 21
18.75
  0
LINE
  8
0
 10
160
 20
18.75
 11
159.739
 21
18.7637
  0
LINE
  8
0
 10
-222.809
 20
-2.22867
 11
-223.052
 21
-2.18114
  0
LINE
  8
0
 10
-223.052
 20
-2.18114
 11
-223.289
 21
-2.10715
  0
LINE
  8
0
 10
-223.289
 20
-2.10715
 11
-223.516
 21
-2.00757
  0
LINE
  8
0
 10
-223.516
 20
-2.00757
 11
-223.731
 21
-1.88362
  0
LINE
  8
0
 10
-223.731
 20
-1.88362
 11
-223.93
 21
-1.7368
  0
LINE
  8
0
 10
-223.93
 20
-1.7368
 11
-224.113
 21
-1.56891
  0
LINE
  8
0
 10
-224.113
 20
-1.56891
 11
-224.276
 21
-1.38197
  0
LINE
  8
0
 10
-224.276
 20
-1.38197
 11
-224.417
 21
-1.17825
  0
LINE
  8
0
 10
-224.417
 20
-1.17825
 11
-224.535
 21
-0.960236
  0
LINE
  8
0
 10
-224.535
 20
-0.960236
 11
-224.628
 21
-0.73056
  0
LINE
  8
0
 10
-224.628
 20
-0.73056
 11
-224.696
 21
-0.49202
  0
LINE
  8
0
 10
-224.696
 20
-0.49202
 11
-224.736
 21
-0.247513
  0
LINE
  8
0
 10
-224.736
 20
-0.247513
 11
-224.75
 21
0
  0
LINE
  8
0
 10
-224.75
 20
0
 11
-224.736
 21
0.247513
  0
LINE
  8
0
 10
-224.736
 20
0.247513
 11
-224.696
 21
0.49202
  0
LINE
  8
0
 10
-224.696
 20
0.49202
 11
-224.628
 21
0.73056
  0
LINE
  8
0
 10
-224.628
 20
0.73056
 11
-224.535
 21
0.960236
  0
LINE
  8
0
 10
-224.535
 20
0.960236
 11
-224.417
 21
1.17825
  0
LINE
  8
0
 10
-224.417
 20
1.17825
 11
-224.276
 21
1.38197
  0
LINE
  8
0
 10
-224.276
 20
1.38197
 11
-224.113
 21
1.56891
  0
LINE
  8
0
 10
-224.113
 20
1.56891
 11
-223.93
 21
1.7368
  0
LINE
  8
0
 10
-223.93
 20
1.7368
 11
-223.731
 21
1.88362
  0
LINE
  8
0
 10
-223.731
 20
1.88362
 11
-223.516
 21
2.00757
  0
LINE
  8
0
 10
-223.516
 20
2.00757
 11
-223.289
 21
2.10715
  0
LINE
  8
0
 10
-223.289
 20
2.10715
 11
-223.052
 21
2.18114
  0
LINE
  8
0
 10
-223.052
 20
2.18114
 11
-222.809
 21
2.22867
  0
LINE
  8
0
 10
-222.809
 20
2.22867
 11
-222.562
 21
2.24915
  0
LINE
  8
0
 10
-222.562
 20
2.24915
 11
-222.314
 21
2.24231
  0
LINE
  8
0
 10
-222.314
 20
2.24231
 11
-222.069
 21
2.20825
  0
LINE
  8
0
 10
-222.069
 20
2.20825
 11
-221.828
 21
2.1474
  0
LINE
  8
0
 10
-221.828
 20
2.1474
 11
-221.596
 21
2.06049
  0
LINE
  8
0
 10
-221.596
 20
2.06049
 11
-221.375
 21
1.94855
  0
LINE
  8
0
 10
-221.375
 20
1.94855
 11
-221.167
 21
1.81296
  0
LINE
  8
0
 10
-221.167
 20
1.81296
 11
-220.976
 21
1.65536
  0
LINE
  8
0
 10
-220.976
 20
1.65536
 11
-220.803
 21
1.47769
  0
LINE
  8
0
 10
-220.803
 20
1.47769
 11
-220.651
 21
1.28206
  0
LINE
  8
0
 10
-220.651
 20
1.28206
 11
-220.521
 21
1.07088
  0
LINE
  8
0
 10
-220.521
 20
1.07088
 11
-220.415
 21
0.846695
  0
LINE
  8
0
 10
-220.415
 20
0.846695
 11
-220.335
 21
0.612228
  0
LINE
  8
0
 10
-220.335
 20
0.612228
 11
-220.281
 21
0.370331
  0
LINE
  8
0
 10
-220.281
 20
0.370331
 11
-220.253
 21
0.123947
  0
LINE
  8
0
 10
-220.253
 20
0.123947
 11
-220.253
 21
-0.123947
  0
LINE
  8
0
 10
-220.253
 20
-0.123947
 11
-220.281
 21
-0.370331
  0
LINE
  8
0
 10
-220.281
 20
-0.370331
 11
-220.335
 21
-0.612228
  0
LINE
  8
0
 10
-220.335
 20
-0.612228
 11
-220.415
 21
-0.846695
  0
LINE
  8
0
 10
-220.415
 20
-0.846695
 11
-220.521
 21
-1.07088
  0
LINE
  8
0
 10
-220.521
 20
-1.07088
 11
-220.651
 21
-1.28206
  0
LINE
  8
0
 10
-220.651
 20
-1.28206
 11
-220.803
 21
-1.47769
  0
LINE
  8
0
 10
-220.803
 20
-1.47769
 11
-220.976
 21
-1.65536
  0
LINE
  8
0
 10
-220.976
 20
-1.65536
 11
-221.167
 21
-1.81296
  0
LINE
  8
0
 10
-221.167
 20
-1.81296
 11
-221.375
 21
-1.94855
  0
LINE
  8
0
 10
-221.375
 20
-1.94855
 11
-221.596
 21
-2.06049
  0
LINE
  8
0
 10
-221.596
 20
-2.06049
 11
-221.828
 21
-2.1474
  0
LINE
  8
0
 10
-221.828
 20
-2.1474
 11
-222.069
 21
-2.20825
  0
LINE
  8
0
 10
-222.069
 20
-2.20825
 11
-222.314
 21
-2.24231
  0
LINE
  8
0
 10
-222.314
 20
-2.24231
 11
-222.562
 21
-2.24915
  0
LINE
  8
0
 10
-222.562
 20
-2.24915
 11
-222.809
 21
-2.22867
  0
LINE
  8
0
 10
222.314
 20
-2.24231
 11
222.069
 21
-2.20825
  0
LINE
  8
0
 10
222.069
 20
-2.20825
 11
221.828
 21
-2.1474
  0
LINE
  8
0
 10
221.828
 20
-2.1474
 11
221.596
 21
-2.06049
  0
LINE
  8
0
 10
221.596
 20
-2.06049
 11
221.375
 21
-1.94855
  0
LINE
  8
0
 10
221.375
 20
-1.94855
 11
221.167
 21
-1.81296
  0
LINE
  8
0
 10
221.167
 20
-1.81296
 11
220.976
 21
-1.65536
  0
LINE
  8
0
 10
220.976
 20
-1.65536
 11
220.803
 21
-1.47769
  0
LINE
  8
0
 10
220.803
 20
-1.47769
 11
220.651
 21
-1.28206
  0
LINE
  8
0
 10
220.651
 20
-1.28206
 11
220.521
 21
-1.07088
  0
LINE
  8
0
 10
220.521
 20
-1.07088
 11
220.415
 21
-0.846695
  0
LINE
  8
0
 10
220.415
 20
-0.846695
 11
220.335
 21
-0.612228
  0
LINE
  8
0
 10
220.335
 20
-0.612228
 11
220.281
 21
-0.370331
  0
LINE
  8
0
 10
220.281
 20
-0.370331
 11
220.253
 21
-0.123947
  0
LINE
  8
0
 10
220.253
 20
-0.123947
 11
220.253
 21
0.123947
  0
LINE
  8
0
 10
220.253
 20
0.123947
 11
220.281
 21
0.370331
  0
LINE
  8
0
 10
220.281
 20
0.370331
 11
220.335
 21
0.612228
  0
LINE
  8
0
 10
220.335
 20
0.612228
 11
220.415
 21
0.846695
  0
LINE
  8
0
 10
220.415
 20
0.846695
 11
220.521
 21
1.07088
  0
LINE
  8
0
 10
220.521
 20
1.07088
 11
220.651
 21
1.28206
  0
LINE
  8
0
 10
220.651
 20
1.28206
 11
220.803
 21
1.47769
  0
LINE
  8
0
 10
220.803
 20
1.47769
 11
220.976
 21
1.65536
  0
LINE
  8
0
 10
220.976
 20
1.65536
 11
221.167
 21
1.81296
  0
LINE
  8
0
 10
221.167
 20
1.81296
 11
221.375
 21
1.94855
  0
LINE
  8
0
 10
221.375
 20
1.94855
 11
221.596
 21
2.06049
  0
LINE
  8
0
 10
221.596
 20
2.06049
 11
221.828
 21
2.1474
  0
LINE
  8
0
 10
221.828
 20
2.1474
 11
222.069
 21
2.20825
  0
LINE
  8
0
 10
222.069
 20
2.20825
 11
222.314
 21
2.24231
  0
LINE
  8
0
 10
222.314
 20
2.24231
 11
222.562
 21
2.24915
  0
LINE
  8
0
 10
222.562
 20
2.24915
 11
222.809
 21
2.22867
  0
LINE
  8
0
 10
222.809
 20
2.22867
 11
223.052
 21
2.18114
  0
LINE
  8
0
 10
223.052
 20
2.18114
 11
223.289
 21
2.10715
  0
LINE
  8
0
 10
223.289
 20
2.10715
 11
223.516
 21
2.00757
  0
LINE
  8
0
 10
223.516
 20
2.00757
 11
223.731
 21
1.88362
  0
LINE
  8
0
 10
223.731
 20
1.88362
 11
223.93
 21
1.7368
  0
LINE
  8
0
 10
223.93
 20
1.7368
 11
224.113
 21
1.56891
  0
LINE
  8
0
 10
224.113
 20
1.56891
 11
224.276
 21
1.38197
  0
LINE
  8
0
 10
224.276
 20
1.38197
 11
224.417
 21
1.17825
  0
LINE
  8
0
 10
224.417
 20
1.17825
 11
224.535
 21
0.960236
  0
LINE
  8
0
 10
224.535
 20
0.960236
 11
224.628
 21
0.73056
  0
LINE
  8
0
 10
224.628
 20
0.73056
 11
224.696
 21
0.49202
  0
LINE
  8
0
 10
224.696
 20
0.49202
 11
224.736
 21
0.247513
  0
LINE
  8
0
 10
224.736
 20
0.247513
 11
224.75
 21
0
  0
LINE
  8
0
 10
224.75
 20
0
 11
224.736
 21
-0.247513
  0
LINE
  8
0
 10
224.736
 20
-0.247513
 11
224.696
 21
-0.49202
  0
LINE
  8
0
 10
224.696
 20
-0.49202
 11
224.628
 21
-0.73056
  0
LINE
  8
0
 10
224.628
 20
-0.73056
 11
224.535
 21
-0.960236
  0
LINE
  8
0
 10
224.535
 20
-0.960236
 11
224.417
 21
-1.17825
  0
LINE
  8
0
 10
224.417
 20
-1.17825
 11
224.276
 21
-1.38197
  0
LINE
  8
0
 10
224.276
 20
-1.38197
 11
224.113
 21
-1.56891
  0
LINE
  8
0
 10
224.113
 20
-1.56891
 11
223.93
 21
-1.7368
  0
LINE
  8
0
 10
223.93
 20
-1.7368
 11
223.731
 21
-1.88362
  0
LINE
  8
0
 10
223.731
 20
-1.88362
 11
223.516
 21
-2.00757
  0
LINE
  8
0
 10
223.516
 20
-2.00757
 11
223.289
 21
-2.10715
  0
LINE
  8
0
 10
223.289
 20
-2.10715
 11
223.052
 21
-2.18114
  0
LINE
  8
0
 10
223.052
 20
-2.18114
 11
222.809
 21
-2.22867
  0
LINE
  8
0
 10
222.809
 20
-2.22867
 11
222.562
 21
-2.24915
  0
LINE
  8
0
 10
222.562
 20
-2.24915
 11
222.314
 21
-2.24231
  0
LINE
  8
0
 10
-157.746
 20
-3.18616
 11
-157.99
 21
-3.14484
  0
LINE
  8
0
 10
-157.99
 20
-3.14484
 11
-158.227
 21
-3.07654
  0
LINE
  8
0
 10
-158.227
 20
-3.07654
 11
-158.455
 21
-2.98212
  0
LINE
  8
0
 10
-158.455
 20
-2.98212
 11
-158.67
 21
-2.86279
  0
LINE
  8
0
 10
-158.67
 20
-2.86279
 11
-158.872
 21
-2.72002
  0
LINE
  8
0
 10
-158.872
 20
-2.72002
 11
-159.056
 21
-2.55563
  0
LINE
  8
0
 10
-159.056
 20
-2.55563
 11
-159.22
 21
-2.37167
  0
LINE
  8
0
 10
-159.22
 20
-2.37167
 11
-159.363
 21
-2.17046
  0
LINE
  8
0
 10
-159.363
 20
-2.17046
 11
-159.482
 21
-1.95454
  0
LINE
  8
0
 10
-159.482
 20
-1.95454
 11
-159.577
 21
-1.72661
  0
LINE
  8
0
 10
-159.577
 20
-1.72661
 11
-159.645
 21
-1.48953
  0
LINE
  8
0
 10
-159.645
 20
-1.48953
 11
-159.686
 21
-1.24631
  0
LINE
  8
0
 10
-159.686
 20
-1.24631
 11
-159.7
 21
-1
  0
LINE
  8
0
 10
-159.7
 20
-1
 11
-159.686
 21
-0.753677
  0
LINE
  8
0
 10
-159.686
 20
-0.753677
 11
-159.645
 21
-0.510452
  0
LINE
  8
0
 10
-159.645
 20
-0.510452
 11
-159.577
 21
-0.273376
  0
LINE
  8
0
 10
-159.577
 20
-0.273376
 11
-159.482
 21
-0.0454407
  0
LINE
  8
0
 10
-159.482
 20
-0.0454407
 11
-159.363
 21
0.170471
  0
LINE
  8
0
 10
-159.363
 20
0.170471
 11
-159.22
 21
0.371674
  0
LINE
  8
0
 10
-159.22
 20
0.371674
 11
-159.056
 21
0.555634
  0
LINE
  8
0
 10
-159.056
 20
0.555634
 11
-158.872
 21
0.720016
  0
LINE
  8
0
 10
-158.872
 20
0.720016
 11
-158.67
 21
0.862793
  0
LINE
  8
0
 10
-158.67
 20
0.862793
 11
-158.455
 21
0.982132
  0
LINE
  8
0
 10
-158.455
 20
0.982132
 11
-158.227
 21
1.07654
  0
LINE
  8
0
 10
-158.227
 20
1.07654
 11
-157.99
 21
1.14484
  0
LINE
  8
0
 10
-157.99
 20
1.14484
 11
-157.746
 21
1.18616
  0
LINE
  8
0
 10
-157.746
 20
1.18616
 11
-157.5
 21
1.2
  0
LINE
  8
0
 10
-157.5
 20
1.2
 11
-157.254
 21
1.18616
  0
LINE
  8
0
 10
-157.254
 20
1.18616
 11
-157.01
 21
1.14484
  0
LINE
  8
0
 10
-157.01
 20
1.14484
 11
-156.773
 21
1.07654
  0
LINE
  8
0
 10
-156.773
 20
1.07654
 11
-156.545
 21
0.982132
  0
LINE
  8
0
 10
-156.545
 20
0.982132
 11
-156.33
 21
0.862793
  0
LINE
  8
0
 10
-156.33
 20
0.862793
 11
-156.128
 21
0.720016
  0
LINE
  8
0
 10
-156.128
 20
0.720016
 11
-155.944
 21
0.555634
  0
LINE
  8
0
 10
-155.944
 20
0.555634
 11
-155.78
 21
0.371674
  0
LINE
  8
0
 10
-155.78
 20
0.371674
 11
-155.637
 21
0.170471
  0
LINE
  8
0
 10
-155.637
 20
0.170471
 11
-155.518
 21
-0.0454407
  0
LINE
  8
0
 10
-155.518
 20
-0.0454407
 11
-155.423
 21
-0.273376
  0
LINE
  8
0
 10
-155.423
 20
-0.273376
 11
-155.355
 21
-0.510452
  0
LINE
  8
0
 10
-155.355
 20
-0.510452
 11
-155.314
 21
-0.753677
  0
LINE
  8
0
 10
-155.314
 20
-0.753677
 11
-155.3
 21
-1
  0
LINE
  8
0
 10
-155.3
 20
-1
 11
-155.314
 21
-1.24631
  0
LINE
  8
0
 10
-155.314
 20
-1.24631
 11
-155.355
 21
-1.48953
  0
LINE
  8
0
 10
-155.355
 20
-1.48953
 11
-155.423
 21
-1.72661
  0
LINE
  8
0
 10
-155.423
 20
-1.72661
 11
-155.518
 21
-1.95454
  0
LINE
  8
0
 10
-155.518
 20
-1.95454
 11
-155.637
 21
-2.17046
  0
LINE
  8
0
 10
-155.637
 20
-2.17046
 11
-155.78
 21
-2.37167
  0
LINE
  8
0
 10
-155.78
 20
-2.37167
 11
-155.944
 21
-2.55563
  0
LINE
  8
0
 10
-155.944
 20
-2.55563
 11
-156.128
 21
-2.72002
  0
LINE
  8
0
 10
-156.128
 20
-2.72002
 11
-156.33
 21
-2.86279
  0
LINE
  8
0
 10
-156.33
 20
-2.86279
 11
-156.545
 21
-2.98212
  0
LINE
  8
0
 10
-156.545
 20
-2.98212
 11
-156.773
 21
-3.07654
  0
LINE
  8
0
 10
-156.773
 20
-3.07654
 11
-157.01
 21
-3.14484
  0
LINE
  8
0
 10
-157.01
 20
-3.14484
 11
-157.254
 21
-3.18616
  0
LINE
  8
0
 10
-157.254
 20
-3.18616
 11
-157.5
 21
-3.2
  0
LINE
  8
0
 10
-157.5
 20
-3.2
 11
-157.746
 21
-3.18616
  0
LINE
  8
0
 10
-42.7463
 20
-3.18616
 11
-42.9895
 21
-3.14484
  0
LINE
  8
0
 10
-42.9895
 20
-3.14484
 11
-43.2266
 21
-3.07654
  0
LINE
  8
0
 10
-43.2266
 20
-3.07654
 11
-43.4545
 21
-2.98212
  0
LINE
  8
0
 10
-43.4545
 20
-2.98212
 11
-43.6705
 21
-2.86279
  0
LINE
  8
0
 10
-43.6705
 20
-2.86279
 11
-43.8717
 21
-2.72002
  0
LINE
  8
0
 10
-43.8717
 20
-2.72002
 11
-44.0556
 21
-2.55563
  0
LINE
  8
0
 10
-44.0556
 20
-2.55563
 11
-44.22
 21
-2.37167
  0
LINE
  8
0
 10
-44.22
 20
-2.37167
 11
-44.3628
 21
-2.17046
  0
LINE
  8
0
 10
-44.3628
 20
-2.17046
 11
-44.4821
 21
-1.95454
  0
LINE
  8
0
 10
-44.4821
 20
-1.95454
 11
-44.5765
 21
-1.72661
  0
LINE
  8
0
 10
-44.5765
 20
-1.72661
 11
-44.6448
 21
-1.48953
  0
LINE
  8
0
 10
-44.6448
 20
-1.48953
 11
-44.6862
 21
-1.24631
  0
LINE
  8
0
 10
-44.6862
 20
-1.24631
 11
-44.7
 21
-1
  0
LINE
  8
0
 10
-44.7
 20
-1
 11
-44.6862
 21
-0.753677
  0
LINE
  8
0
 10
-44.6862
 20
-0.753677
 11
-44.6448
 21
-0.510452
  0
LINE
  8
0
 10
-44.6448
 20
-0.510452
 11
-44.5765
 21
-0.273376
  0
LINE
  8
0
 10
-44.5765
 20
-0.273376
 11
-44.4821
 21
-0.0454407
  0
LINE
  8
0
 10
-44.4821
 20
-0.0454407
 11
-44.3628
 21
0.170471
  0
LINE
  8
0
 10
-44.3628
 20
0.170471
 11
-44.22
 21
0.371674
  0
LINE
  8
0
 10
-44.22
 20
0.371674
 11
-44.0556
 21
0.555634
  0
LINE
  8
0
 10
-44.0556
 20
0.555634
 11
-43.8717
 21
0.720016
  0
LINE
  8
0
 10
-43.8717
 20
0.720016
 11
-43.6705
 21
0.862793
  0
LINE
  8
0
 10
-43.6705
 20
0.862793
 11
-43.4545
 21
0.982132
  0
LINE
  8
0
 10
-43.4545
 20
0.982132
 11
-43.2266
 21
1.07654
  0
LINE
  8
0
 10
-43.2266
 20
1.07654
 11
-42.9895
 21
1.14484
  0
LINE
  8
0
 10
-42.9895
 20
1.14484
 11
-42.7463
 21
1.18616
  0
LINE
  8
0
 10
-42.7463
 20
1.18616
 11
-42.5
 21
1.2
  0
LINE
  8
0
 10
-42.5
 20
1.2
 11
-42.2537
 21
1.18616
  0
LINE
  8
0
 10
-42.2537
 20
1.18616
 11
-42.0105
 21
1.14484
  0
LINE
  8
0
 10
-42.0105
 20
1.14484
 11
-41.7734
 21
1.07654
  0
LINE
  8
0
 10
-41.7734
 20
1.07654
 11
-41.5455
 21
0.982132
  0
LINE
  8
0
 10
-41.5455
 20
0.982132
 11
-41.3295
 21
0.862793
  0
LINE
  8
0
 10
-41.3295
 20
0.862793
 11
-41.1283
 21
0.720016
  0
LINE
  8
0
 10
-41.1283
 20
0.720016
 11
-40.9444
 21
0.555634
  0
LINE
  8
0
 10
-40.9444
 20
0.555634
 11
-40.78
 21
0.371674
  0
LINE
  8
0
 10
-40.78
 20
0.371674
 11
-40.6372
 21
0.170471
  0
LINE
  8
0
 10
-40.6372
 20
0.170471
 11
-40.5179
 21
-0.0454407
  0
LINE
  8
0
 10
-40.5179
 20
-0.0454407
 11
-40.4234
 21
-0.273376
  0
LINE
  8
0
 10
-40.4234
 20
-0.273376
 11
-40.3551
 21
-0.510452
  0
LINE
  8
0
 10
-40.3551
 20
-0.510452
 11
-40.3138
 21
-0.753677
  0
LINE
  8
0
 10
-40.3138
 20
-0.753677
 11
-40.3
 21
-1
  0
LINE
  8
0
 10
-40.3
 20
-1
 11
-40.3138
 21
-1.24631
  0
LINE
  8
0
 10
-40.3138
 20
-1.24631
 11
-40.3551
 21
-1.48953
  0
LINE
  8
0
 10
-40.3551
 20
-1.48953
 11
-40.4234
 21
-1.72661
  0
LINE
  8
0
 10
-40.4234
 20
-1.72661
 11
-40.5179
 21
-1.95454
  0
LINE
  8
0
 10
-40.5179
 20
-1.95454
 11
-40.6372
 21
-2.17046
  0
LINE
  8
0
 10
-40.6372
 20
-2.17046
 11
-40.78
 21
-2.37167
  0
LINE
  8
0
 10
-40.78
 20
-2.37167
 11
-40.9444
 21
-2.55563
  0
LINE
  8
0
 10
-40.9444
 20
-2.55563
 11
-41.1283
 21
-2.72002
  0
LINE
  8
0
 10
-41.1283
 20
-2.72002
 11
-41.3295
 21
-2.86279
  0
LINE
  8
0
 10
-41.3295
 20
-2.86279
 11
-41.5455
 21
-2.98212
  0
LINE
  8
0
 10
-41.5455
 20
-2.98212
 11
-41.7734
 21
-3.07654
  0
LINE
  8
0
 10
-41.7734
 20
-3.07654
 11
-42.0105
 21
-3.14484
  0
LINE
  8
0
 10
-42.0105
 20
-3.14484
 11
-42.2537
 21
-3.18616
  0
LINE
  8
0
 10
-42.2537
 20
-3.18616
 11
-42.5
 21
-3.2
  0
LINE
  8
0
 10
-42.5
 20
-3.2
 11
-42.7463
 21
-3.18616
  0
LINE
  8
0
 10
-42.7463
 20
-21.1862
 11
-42.9895
 21
-21.1448
  0
LINE
  8
0
 10
-42.9895
 20
-21.1448
 11
-43.2266
 21
-21.0765
  0
LINE
  8
0
 10
-43.2266
 20
-21.0765
 11
-43.4545
 21
-20.9821
  0
LINE
  8
0
 10
-43.4545
 20
-20.9821
 11
-43.6705
 21
-20.8628
  0
LINE
  8
0
 10
-43.6705
 20
-20.8628
 11
-43.8717
 21
-20.72
  0
LINE
  8
0
 10
-43.8717
 20
-20.72
 11
-44.0556
 21
-20.5556
  0
LINE
  8
0
 10
-44.0556
 20
-20.5556
 11
-44.22
 21
-20.3717
  0
LINE
  8
0
 10
-44.22
 20
-20.3717
 11
-44.3628
 21
-20.1705
  0
LINE
  8
0
 10
-44.3628
 20
-20.1705
 11
-44.4821
 21
-19.9545
  0
LINE
  8
0
 10
-44.4821
 20
-19.9545
 11
-44.5765
 21
-19.7266
  0
LINE
  8
0
 10
-44.5765
 20
-19.7266
 11
-44.6448
 21
-19.4895
  0
LINE
  8
0
 10
-44.6448
 20
-19.4895
 11
-44.6862
 21
-19.2463
  0
LINE
  8
0
 10
-44.6862
 20
-19.2463
 11
-44.7
 21
-19
  0
LINE
  8
0
 10
-44.7
 20
-19
 11
-44.6862
 21
-18.7537
  0
LINE
  8
0
 10
-44.6862
 20
-18.7537
 11
-44.6448
 21
-18.5105
  0
LINE
  8
0
 10
-44.6448
 20
-18.5105
 11
-44.5765
 21
-18.2734
  0
LINE
  8
0
 10
-44.5765
 20
-18.2734
 11
-44.4821
 21
-18.0455
  0
LINE
  8
0
 10
-44.4821
 20
-18.0455
 11
-44.3628
 21
-17.8295
  0
LINE
  8
0
 10
-44.3628
 20
-17.8295
 11
-44.22
 21
-17.6283
  0
LINE
  8
0
 10
-44.22
 20
-17.6283
 11
-44.0556
 21
-17.4444
  0
LINE
  8
0
 10
-44.0556
 20
-17.4444
 11
-43.8717
 21
-17.28
  0
LINE
  8
0
 10
-43.8717
 20
-17.28
 11
-43.6705
 21
-17.1372
  0
LINE
  8
0
 10
-43.6705
 20
-17.1372
 11
-43.4545
 21
-17.0179
  0
LINE
  8
0
 10
-43.4545
 20
-17.0179
 11
-43.2266
 21
-16.9234
  0
LINE
  8
0
 10
-43.2266
 20
-16.9234
 11
-42.9895
 21
-16.8551
  0
LINE
  8
0
 10
-42.9895
 20
-16.8551
 11
-42.7463
 21
-16.8138
  0
LINE
  8
0
 10
-42.7463
 20
-16.8138
 11
-42.5
 21
-16.8
  0
LINE
  8
0
 10
-42.5
 20
-16.8
 11
-42.2537
 21
-16.8138
  0
LINE
  8
0
 10
-42.2537
 20
-16.8138
 11
-42.0105
 21
-16.8551
  0
LINE
  8
0
 10
-42.0105
 20
-16.8551
 11
-41.7734
 21
-16.9234
  0
LINE
  8
0
 10
-41.7734
 20
-16.9234
 11
-41.5455
 21
-17.0179
  0
LINE
  8
0
 10
-41.5455
 20
-17.0179
 11
-41.3295
 21
-17.1372
  0
LINE
  8
0
 10
-41.3295
 20
-17.1372
 11
-41.1283
 21
-17.28
  0
LINE
  8
0
 10
-41.1283
 20
-17.28
 11
-40.9444
 21
-17.4444
  0
LINE
  8
0
 10
-40.9444
 20
-17.4444
 11
-40.78
 21
-17.6283
  0
LINE
  8
0
 10
-40.78
 20
-17.6283
 11
-40.6372
 21
-17.8295
  0
LINE
  8
0
 10
-40.6372
 20
-17.8295
 11
-40.5179
 21
-18.0455
  0
LINE
  8
0
 10
-40.5179
 20
-18.0455
 11
-40.4234
 21
-18.2734
  0
LINE
  8
0
 10
-40.4234
 20
-18.2734
 11
-40.3551
 21
-18.5105
  0
LINE
  8
0
 10
-40.3551
 20
-18.5105
 11
-40.3138
 21
-18.7537
  0
LINE
  8
0
 10
-40.3138
 20
-18.7537
 11
-40.3
 21
-19
  0
LINE
  8
0
 10
-40.3
 20
-19
 11
-40.3138
 21
-19.2463
  0
LINE
  8
0
 10
-40.3138
 20
-19.2463
 11
-40.3551
 21
-19.4895
  0
LINE
  8
0
 10
-40.3551
 20
-19.4895
 11
-40.4234
 21
-19.7266
  0
LINE
  8
0
 10
-40.4234
 20
-19.7266
 11
-40.5179
 21
-19.9545
  0
LINE
  8
0
 10
-40.5179
 20
-19.9545
 11
-40.6372
 21
-20.1705
  0
LINE
  8
0
 10
-40.6372
 20
-20.1705
 11
-40.78
 21
-20.3717
  0
LINE
  8
0
 10
-40.78
 20
-20.3717
 11
-40.9444
 21
-20.5556
  0
LINE
  8
0
 10
-40.9444
 20
-20.5556
 11
-41.1283
 21
-20.72
  0
LINE
  8
0
 10
-41.1283
 20
-20.72
 11
-41.3295
 21
-20.8628
  0
LINE
  8
0
 10
-41.3295
 20
-20.8628
 11
-41.5455
 21
-20.9821
  0
LINE
  8
0
 10
-41.5455
 20
-20.9821
 11
-41.7734
 21
-21.0765
  0
LINE
  8
0
 10
-41.7734
 20
-21.0765
 11
-42.0105
 21
-21.1448
  0
LINE
  8
0
 10
-42.0105
 20
-21.1448
 11
-42.2537
 21
-21.1862
  0
LINE
  8
0
 10
-42.2537
 20
-21.1862
 11
-42.5
 21
-21.2
  0
LINE
  8
0
 10
-42.5
 20
-21.2
 11
-42.7463
 21
-21.1862
  0
LINE
  8
0
 10
-157.746
 20
-21.1862
 11
-157.99
 21
-21.1448
  0
LINE
  8
0
 10
-157.99
 20
-21.1448
 11
-158.227
 21
-21.0765
  0
LINE
  8
0
 10
-158.227
 20
-21.0765
 11
-158.455
 21
-20.9821
  0
LINE
  8
0
 10
-158.455
 20
-20.9821
 11
-158.67
 21
-20.8628
  0
LINE
  8
0
 10
-158.67
 20
-20.8628
 11
-158.872
 21
-20.72
  0
LINE
  8
0
 10
-158.872
 20
-20.72
 11
-159.056
 21
-20.5556
  0
LINE
  8
0
 10
-159.056
 20
-20.5556
 11
-159.22
 21
-20.3717
  0
LINE
  8
0
 10
-159.22
 20
-20.3717
 11
-159.363
 21
-20.1705
  0
LINE
  8
0
 10
-159.363
 20
-20.1705
 11
-159.482
 21
-19.9545
  0
LINE
  8
0
 10
-159.482
 20
-19.9545
 11
-159.577
 21
-19.7266
  0
LINE
  8
0
 10
-159.577
 20
-19.7266
 11
-159.645
 21
-19.4895
  0
LINE
  8
0
 10
-159.645
 20
-19.4895
 11
-159.686
 21
-19.2463
  0
LINE
  8
0
 10
-159.686
 20
-19.2463
 11
-159.7
 21
-19
  0
LINE
  8
0
 10
-159.7
 20
-19
 11
-159.686
 21
-18.7537
  0
LINE
  8
0
 10
-159.686
 20
-18.7537
 11
-159.645
 21
-18.5105
  0
LINE
  8
0
 10
-159.645
 20
-18.5105
 11
-159.577
 21
-18.2734
  0
LINE
  8
0
 10
-159.577
 20
-18.2734
 11
-159.482
 21
-18.0455
  0
LINE
  8
0
 10
-159.482
 20
-18.0455
 11
-159.363
 21
-17.8295
  0
LINE
  8
0
 10
-159.363
 20
-17.8295
 11
-159.22
 21
-17.6283
  0
LINE
  8
0
 10
-159.22
 20
-17.6283
 11
-159.056
 21
-17.4444
  0
LINE
  8
0
 10
-159.056
 20
-17.4444
 11
-158.872
 21
-17.28
  0
LINE
  8
0
 10
-158.872
 20
-17.28
 11
-158.67
 21
-17.1372
  0
LINE
  8
0
 10
-158.67
 20
-17.1372
 11
-158.455
 21
-17.0179
  0
LINE
  8
0
 10
-158.455
 20
-17.0179
 11
-158.227
 21
-16.9234
  0
LINE
  8
0
 10
-158.227
 20
-16.9234
 11
-157.99
 21
-16.8551
  0
LINE
  8
0
 10
-157.99
 20
-16.8551
 11
-157.746
 21
-16.8138
  0
LINE
  8
0
 10
-157.746
 20
-16.8138
 11
-157.5
 21
-16.8
  0
LINE
  8
0
 10
-157.5
 20
-16.8
 11
-157.254
 21
-16.8138
  0
LINE
  8
0
 10
-157.254
 20
-16.8138
 11
-157.01
 21
-16.8551
  0
LINE
  8
0
 10
-157.01
 20
-16.8551
 11
-156.773
 21
-16.9234
  0
LINE
  8
0
 10
-156.773
 20
-16.9234
 11
-156.545
 21
-17.0179
  0
LINE
  8
0
 10
-156.545
 20
-17.0179
 11
-156.33
 21
-17.1372
  0
LINE
  8
0
 10
-156.33
 20
-17.1372
 11
-156.128
 21
-17.28
  0
LINE
  8
0
 10
-156.128
 20
-17.28
 11
-155.944
 21
-17.4444
  0
LINE
  8
0
 10
-155.944
 20
-17.4444
 11
-155.78
 21
-17.6283
  0
LINE
  8
0
 10
-155.78
 20
-17.6283
 11
-155.637
 21
-17.8295
  0
LINE
  8
0
 10
-155.637
 20
-17.8295
 11
-155.518
 21
-18.0455
  0
LINE
  8
0
 10
-155.518
 20
-18.0455
 11
-155.423
 21
-18.2734
  0
LINE
  8
0
 10
-155.423
 20
-18.2734
 11
-155.355
 21
-18.5105
  0
LINE
  8
0
 10
-155.355
 20
-18.5105
 11
-155.314
 21
-18.7537
  0
LINE
  8
0
 10
-155.314
 20
-18.7537
 11
-155.3
 21
-19
  0
LINE
  8
0
 10
-155.3
 20
-19
 11
-155.314
 21
-19.2463
  0
LINE
  8
0
 10
-155.314
 20
-19.2463
 11
-155.355
 21
-19.4895
  0
LINE
  8
0
 10
-155.355
 20
-19.4895
 11
-155.423
 21
-19.7266
  0
LINE
  8
0
 10
-155.423
 20
-19.7266
 11
-155.518
 21
-19.9545
  0
LINE
  8
0
 10
-155.518
 20
-19.9545
 11
-155.637
 21
-20.1705
  0
LINE
  8
0
 10
-155.637
 20
-20.1705
 11
-155.78
 21
-20.3717
  0
LINE
  8
0
 10
-155.78
 20
-20.3717
 11
-155.944
 21
-20.5556
  0
LINE
  8
0
 10
-155.944
 20
-20.5556
 11
-156.128
 21
-20.72
  0
LINE
  8
0
 10
-156.128
 20
-20.72
 11
-156.33
 21
-20.8628
  0
LINE
  8
0
 10
-156.33
 20
-20.8628
 11
-156.545
 21
-20.9821
  0
LINE
  8
0
 10
-156.545
 20
-20.9821
 11
-156.773
 21
-21.0765
  0
LINE
  8
0
 10
-156.773
 20
-21.0765
 11
-157.01
 21
-21.1448
  0
LINE
  8
0
 10
-157.01
 20
-21.1448
 11
-157.254
 21
-21.1862
  0
LINE
  8
0
 10
-157.254
 20
-21.1862
 11
-157.5
 21
-21.2
  0
LINE
  8
0
 10
-157.5
 20
-21.2
 11
-157.746
 21
-21.1862
  0
LINE
  8
0
 10
-27.7463
 20
-35.1862
 11
-27.9895
 21
-35.1448
  0
LINE
  8
0
 10
-27.9895
 20
-35.1448
 11
-28.2266
 21
-35.0765
  0
LINE
  8
0
 10
-28.2266
 20
-35.0765
 11
-28.4545
 21
-34.9821
  0
LINE
  8
0
 10
-28.4545
 20
-34.9821
 11
-28.6705
 21
-34.8628
  0
LINE
  8
0
 10
-28.6705
 20
-34.8628
 11
-28.8717
 21
-34.72
  0
LINE
  8
0
 10
-28.8717
 20
-34.72
 11
-29.0556
 21
-34.5556
  0
LINE
  8
0
 10
-29.0556
 20
-34.5556
 11
-29.22
 21
-34.3717
  0
LINE
  8
0
 10
-29.22
 20
-34.3717
 11
-29.3628
 21
-34.1705
  0
LINE
  8
0
 10
-29.3628
 20
-34.1705
 11
-29.4821
 21
-33.9545
  0
LINE
  8
0
 10
-29.4821
 20
-33.9545
 11
-29.5765
 21
-33.7266
  0
LINE
  8
0
 10
-29.5765
 20
-33.7266
 11
-29.6448
 21
-33.4895
  0
LINE
  8
0
 10
-29.6448
 20
-33.4895
 11
-29.6862
 21
-33.2463
  0
LINE
  8
0
 10
-29.6862
 20
-33.2463
 11
-29.7
 21
-33
  0
LINE
  8
0
 10
-29.7
 20
-33
 11
-29.6862
 21
-32.7537
  0
LINE
  8
0
 10
-29.6862
 20
-32.7537
 11
-29.6448
 21
-32.5105
  0
LINE
  8
0
 10
-29.6448
 20
-32.5105
 11
-29.5765
 21
-32.2734
  0
LINE
  8
0
 10
-29.5765
 20
-32.2734
 11
-29.4821
 21
-32.0455
  0
LINE
  8
0
 10
-29.4821
 20
-32.0455
 11
-29.3628
 21
-31.8295
  0
LINE
  8
0
 10
-29.3628
 20
-31.8295
 11
-29.22
 21
-31.6283
  0
LINE
  8
0
 10
-29.22
 20
-31.6283
 11
-29.0556
 21
-31.4444
  0
LINE
  8
0
 10
-29.0556
 20
-31.4444
 11
-28.8717
 21
-31.28
  0
LINE
  8
0
 10
-28.8717
 20
-31.28
 11
-28.6705
 21
-31.1372
  0
LINE
  8
0
 10
-28.6705
 20
-31.1372
 11
-28.4545
 21
-31.0179
  0
LINE
  8
0
 10
-28.4545
 20
-31.0179
 11
-28.2266
 21
-30.9234
  0
LINE
  8
0
 10
-28.2266
 20
-30.9234
 11
-27.9895
 21
-30.8551
  0
LINE
  8
0
 10
-27.9895
 20
-30.8551
 11
-27.7463
 21
-30.8138
  0
LINE
  8
0
 10
-27.7463
 20
-30.8138
 11
-27.5
 21
-30.8
  0
LINE
  8
0
 10
-27.5
 20
-30.8
 11
-27.2537
 21
-30.8138
  0
LINE
  8
0
 10
-27.2537
 20
-30.8138
 11
-27.0105
 21
-30.8551
  0
LINE
  8
0
 10
-27.0105
 20
-30.8551
 11
-26.7734
 21
-30.9234
  0
LINE
  8
0
 10
-26.7734
 20
-30.9234
 11
-26.5455
 21
-31.0179
  0
LINE
  8
0
 10
-26.5455
 20
-31.0179
 11
-26.3295
 21
-31.1372
  0
LINE
  8
0
 10
-26.3295
 20
-31.1372
 11
-26.1283
 21
-31.28
  0
LINE
  8
0
 10
-26.1283
 20
-31.28
 11
-25.9444
 21
-31.4444
  0
LINE
  8
0
 10
-25.9444
 20
-31.4444
 11
-25.78
 21
-31.6283
  0
LINE
  8
0
 10
-25.78
 20
-31.6283
 11
-25.6372
 21
-31.8295
  0
LINE
  8
0
 10
-25.6372
 20
-31.8295
 11
-25.5179
 21
-32.0455
  0
LINE
  8
0
 10
-25.5179
 20
-32.0455
 11
-25.4234
 21
-32.2734
  0
LINE
  8
0
 10
-25.4234
 20
-32.2734
 11
-25.3551
 21
-32.5105
  0
LINE
  8
0
 10
-25.3551
 20
-32.5105
 11
-25.3138
 21
-32.7537
  0
LINE
  8
0
 10
-25.3138
 20
-32.7537
 11
-25.3
 21
-33
  0
LINE
  8
0
 10
-25.3
 20
-33
 11
-25.3138
 21
-33.2463
  0
LINE
  8
0
 10
-25.3138
 20
-33.2463
 11
-25.3551
 21
-33.4895
  0
LINE
  8
0
 10
-25.3551
 20
-33.4895
 11
-25.4234
 21
-33.7266
  0
LINE
  8
0
 10
-25.4234
 20
-33.7266
 11
-25.5179
 21
-33.9545
  0
LINE
  8
0
 10
-25.5179
 20
-33.9545
 11
-25.6372
 21
-34.1705
  0
LINE
  8
0
 10
-25.6372
 20
-34.1705
 11
-25.78
 21
-34.3717
  0
LINE
  8
0
 10
-25.78
 20
-34.3717
 11
-25.9444
 21
-34.5556
  0
LINE
  8
0
 10
-25.9444
 20
-34.5556
 11
-26.1283
 21
-34.72
  0
LINE
  8
0
 10
-26.1283
 20
-34.72
 11
-26.3295
 21
-34.8628
  0
LINE
  8
0
 10
-26.3295
 20
-34.8628
 11
-26.5455
 21
-34.9821
  0
LINE
  8
0
 10
-26.5455
 20
-34.9821
 11
-26.7734
 21
-35.0765
  0
LINE
  8
0
 10
-26.7734
 20
-35.0765
 11
-27.0105
 21
-35.1448
  0
LINE
  8
0
 10
-27.0105
 20
-35.1448
 11
-27.2537
 21
-35.1862
  0
LINE
  8
0
 10
-27.2537
 20
-35.1862
 11
-27.5
 21
-35.2
  0
LINE
  8
0
 10
-27.5
 20
-35.2
 11
-27.7463
 21
-35.1862
  0
LINE
  8
0
 10
-157.746
 20
-35.1862
 11
-157.99
 21
-35.1448
  0
LINE
  8
0
 10
-157.99
 20
-35.1448
 11
-158.227
 21
-35.0765
  0
LINE
  8
0
 10
-158.227
 20
-35.0765
 11
-158.455
 21
-34.9821
  0
LINE
  8
0
 10
-158.455
 20
-34.9821
 11
-158.67
 21
-34.8628
  0
LINE
  8
0
 10
-158.67
 20
-34.8628
 11
-158.872
 21
-34.72
  0
LINE
  8
0
 10
-158.872
 20
-34.72
 11
-159.056
 21
-34.5556
  0
LINE
  8
0
 10
-159.056
 20
-34.5556
 11
-159.22
 21
-34.3717
  0
LINE
  8
0
 10
-159.22
 20
-34.3717
 11
-159.363
 21
-34.1705
  0
LINE
  8
0
 10
-159.363
 20
-34.1705
 11
-159.482
 21
-33.9545
  0
LINE
  8
0
 10
-159.482
 20
-33.9545
 11
-159.577
 21
-33.7266
  0
LINE
  8
0
 10
-159.577
 20
-33.7266
 11
-159.645
 21
-33.4895
  0
LINE
  8
0
 10
-159.645
 20
-33.4895
 11
-159.686
 21
-33.2463
  0
LINE
  8
0
 10
-159.686
 20
-33.2463
 11
-159.7
 21
-33
  0
LINE
  8
0
 10
-159.7
 20
-33
 11
-159.686
 21
-32.7537
  0
LINE
  8
0
 10
-159.686
 20
-32.7537
 11
-159.645
 21
-32.5105
  0
LINE
  8
0
 10
-159.645
 20
-32.5105
 11
-159.577
 21
-32.2734
  0
LINE
  8
0
 10
-159.577
 20
-32.2734
 11
-159.482
 21
-32.0455
  0
LINE
  8
0
 10
-159.482
 20
-32.0455
 11
-159.363
 21
-31.8295
  0
LINE
  8
0
 10
-159.363
 20
-31.8295
 11
-159.22
 21
-31.6283
  0
LINE
  8
0
 10
-159.22
 20
-31.6283
 11
-159.056
 21
-31.4444
  0
LINE
  8
0
 10
-159.056
 20
-31.4444
 11
-158.872
 21
-31.28
  0
LINE
  8
0
 10
-158.872
 20
-31.28
 11
-158.67
 21
-31.1372
  0
LINE
  8
0
 10
-158.67
 20
-31.1372
 11
-158.455
 21
-31.0179
  0
LINE
  8
0
 10
-158.455
 20
-31.0179
 11
-158.227
 21
-30.9234
  0
LINE
  8
0
 10
-158.227
 20
-30.9234
 11
-157.99
 21
-30.8551
  0
LINE
  8
0
 10
-157.99
 20
-30.8551
 11
-157.746
 21
-30.8138
  0
LINE
  8
0
 10
-157.746
 20
-30.8138
 11
-157.5
 21
-30.8
  0
LINE
  8
0
 10
-157.5
 20
-30.8
 11
-157.254
 21
-30.8138
  0
LINE
  8
0
 10
-157.254
 20
-30.8138
 11
-157.01
 21
-30.8551
  0
LINE
  8
0
 10
-157.01
 20
-30.8551
 11
-156.773
 21
-30.9234
  0
LINE
  8
0
 10
-156.773
 20
-30.9234
 11
-156.545
 21
-31.0179
  0
LINE
  8
0
 10
-156.545
 20
-31.0179
 11
-156.33
 21
-31.1372
  0
LINE
  8
0
 10
-156.33
 20
-31.1372
 11
-156.128
 21
-31.28
  0
LINE
  8
0
 10
-156.128
 20
-31.28
 11
-155.944
 21
-31.4444
  0
LINE
  8
0
 10
-155.944
 20
-31.4444
 11
-155.78
 21
-31.6283
  0
LINE
  8
0
 10
-155.78
 20
-31.6283
 11
-155.637
 21
-31.8295
  0
LINE
  8
0
 10
-155.637
 20
-31.8295
 11
-155.518
 21
-32.0455
  0
LINE
  8
0
 10
-155.518
 20
-32.0455
 11
-155.423
 21
-32.2734
  0
LINE
  8
0
 10
-155.423
 20
-32.2734
 11
-155.355
 21
-32.5105
  0
LINE
  8
0
 10
-155.355
 20
-32.5105
 11
-155.314
 21
-32.7537
  0
LINE
  8
0
 10
-155.314
 20
-32.7537
 11
-155.3
 21
-33
  0
LINE
  8
0
 10
-155.3
 20
-33
 11
-155.314
 21
-33.2463
  0
LINE
  8
0
 10
-155.314
 20
-33.2463
 11
-155.355
 21
-33.4895
  0
LINE
  8
0
 10
-155.355
 20
-33.4895
 11
-155.423
 21
-33.7266
  0
LINE
  8
0
 10
-155.423
 20
-33.7266
 11
-155.518
 21
-33.9545
  0
LINE
  8
0
 10
-155.518
 20
-33.9545
 11
-155.637
 21
-34.1705
  0
LINE
  8
0
 10
-155.637
 20
-34.1705
 11
-155.78
 21
-34.3717
  0
LINE
  8
0
 10
-155.78
 20
-34.3717
 11
-155.944
 21
-34.5556
  0
LINE
  8
0
 10
-155.944
 20
-34.5556
 11
-156.128
 21
-34.72
  0
LINE
  8
0
 10
-156.128
 20
-34.72
 11
-156.33
 21
-34.8628
  0
LINE
  8
0
 10
-156.33
 20
-34.8628
 11
-156.545
 21
-34.9821
  0
LINE
  8
0
 10
-156.545
 20
-34.9821
 11
-156.773
 21
-35.0765
  0
LINE
  8
0
 10
-156.773
 20
-35.0765
 11
-157.01
 21
-35.1448
  0
LINE
  8
0
 10
-157.01
 20
-35.1448
 11
-157.254
 21
-35.1862
  0
LINE
  8
0
 10
-157.254
 20
-35.1862
 11
-157.5
 21
-35.2
  0
LINE
  8
0
 10
-157.5
 20
-35.2
 11
-157.746
 21
-35.1862
  0
LINE
  8
0
 10
-27.2463
 20
-57.6862
 11
-27.4895
 21
-57.6448
  0
LINE
  8
0
 10
-27.4895
 20
-57.6448
 11
-27.7266
 21
-57.5765
  0
LINE
  8
0
 10
-27.7266
 20
-57.5765
 11
-27.9545
 21
-57.4821
  0
LINE
  8
0
 10
-27.9545
 20
-57.4821
 11
-28.1705
 21
-57.3628
  0
LINE
  8
0
 10
-28.1705
 20
-57.3628
 11
-28.3717
 21
-57.22
  0
LINE
  8
0
 10
-28.3717
 20
-57.22
 11
-28.5556
 21
-57.0556
  0
LINE
  8
0
 10
-28.5556
 20
-57.0556
 11
-28.72
 21
-56.8717
  0
LINE
  8
0
 10
-28.72
 20
-56.8717
 11
-28.8628
 21
-56.6705
  0
LINE
  8
0
 10
-28.8628
 20
-56.6705
 11
-28.9821
 21
-56.4545
  0
LINE
  8
0
 10
-28.9821
 20
-56.4545
 11
-29.0765
 21
-56.2266
  0
LINE
  8
0
 10
-29.0765
 20
-56.2266
 11
-29.1448
 21
-55.9895
  0
LINE
  8
0
 10
-29.1448
 20
-55.9895
 11
-29.1862
 21
-55.7463
  0
LINE
  8
0
 10
-29.1862
 20
-55.7463
 11
-29.2
 21
-55.5
  0
LINE
  8
0
 10
-29.2
 20
-55.5
 11
-29.1862
 21
-55.2537
  0
LINE
  8
0
 10
-29.1862
 20
-55.2537
 11
-29.1448
 21
-55.0105
  0
LINE
  8
0
 10
-29.1448
 20
-55.0105
 11
-29.0765
 21
-54.7734
  0
LINE
  8
0
 10
-29.0765
 20
-54.7734
 11
-28.9821
 21
-54.5455
  0
LINE
  8
0
 10
-28.9821
 20
-54.5455
 11
-28.8628
 21
-54.3295
  0
LINE
  8
0
 10
-28.8628
 20
-54.3295
 11
-28.72
 21
-54.1283
  0
LINE
  8
0
 10
-28.72
 20
-54.1283
 11
-28.5556
 21
-53.9444
  0
LINE
  8
0
 10
-28.5556
 20
-53.9444
 11
-28.3717
 21
-53.78
  0
LINE
  8
0
 10
-28.3717
 20
-53.78
 11
-28.1705
 21
-53.6372
  0
LINE
  8
0
 10
-28.1705
 20
-53.6372
 11
-27.9545
 21
-53.5179
  0
LINE
  8
0
 10
-27.9545
 20
-53.5179
 11
-27.7266
 21
-53.4234
  0
LINE
  8
0
 10
-27.7266
 20
-53.4234
 11
-27.4895
 21
-53.3551
  0
LINE
  8
0
 10
-27.4895
 20
-53.3551
 11
-27.2463
 21
-53.3138
  0
LINE
  8
0
 10
-27.2463
 20
-53.3138
 11
-27
 21
-53.3
  0
LINE
  8
0
 10
-27
 20
-53.3
 11
-26.7537
 21
-53.3138
  0
LINE
  8
0
 10
-26.7537
 20
-53.3138
 11
-26.5105
 21
-53.3551
  0
LINE
  8
0
 10
-26.5105
 20
-53.3551
 11
-26.2734
 21
-53.4234
  0
LINE
  8
0
 10
-26.2734
 20
-53.4234
 11
-26.0455
 21
-53.5179
  0
LINE
  8
0
 10
-26.0455
 20
-53.5179
 11
-25.8295
 21
-53.6372
  0
LINE
  8
0
 10
-25.8295
 20
-53.6372
 11
-25.6283
 21
-53.78
  0
LINE
  8
0
 10
-25.6283
 20
-53.78
 11
-25.4444
 21
-53.9444
  0
LINE
  8
0
 10
-25.4444
 20
-53.9444
 11
-25.28
 21
-54.1283
  0
LINE
  8
0
 10
-25.28
 20
-54.1283
 11
-25.1372
 21
-54.3295
  0
LINE
  8
0
 10
-25.1372
 20
-54.3295
 11
-25.0179
 21
-54.5455
  0
LINE
  8
0
 10
-25.0179
 20
-54.5455
 11
-24.9234
 21
-54.7734
  0
LINE
  8
0
 10
-24.9234
 20
-54.7734
 11
-24.8551
 21
-55.0105
  0
LINE
  8
0
 10
-24.8551
 20
-55.0105
 11
-24.8138
 21
-55.2537
  0
LINE
  8
0
 10
-24.8138
 20
-55.2537
 11
-24.8
 21
-55.5
  0
LINE
  8
0
 10
-24.8
 20
-55.5
 11
-24.8138
 21
-55.7463
  0
LINE
  8
0
 10
-24.8138
 20
-55.7463
 11
-24.8551
 21
-55.9895
  0
LINE
  8
0
 10
-24.8551
 20
-55.9895
 11
-24.9234
 21
-56.2266
  0
LINE
  8
0
 10
-24.9234
 20
-56.2266
 11
-25.0179
 21
-56.4545
  0
LINE
  8
0
 10
-25.0179
 20
-56.4545
 11
-25.1372
 21
-56.6705
  0
LINE
  8
0
 10
-25.1372
 20
-56.6705
 11
-25.28
 21
-56.8717
  0
LINE
  8
0
 10
-25.28
 20
-56.8717
 11
-25.4444
 21
-57.0556
  0
LINE
  8
0
 10
-25.4444
 20
-57.0556
 11
-25.6283
 21
-57.22
  0
LINE
  8
0
 10
-25.6283
 20
-57.22
 11
-25.8295
 21
-57.3628
  0
LINE
  8
0
 10
-25.8295
 20
-57.3628
 11
-26.0455
 21
-57.4821
  0
LINE
  8
0
 10
-26.0455
 20
-57.4821
 11
-26.2734
 21
-57.5765
  0
LINE
  8
0
 10
-26.2734
 20
-57.5765
 11
-26.5105
 21
-57.6448
  0
LINE
  8
0
 10
-26.5105
 20
-57.6448
 11
-26.7537
 21
-57.6862
  0
LINE
  8
0
 10
-26.7537
 20
-57.6862
 11
-27
 21
-57.7
  0
LINE
  8
0
 10
-27
 20
-57.7
 11
-27.2463
 21
-57.6862
  0
LINE
  8
0
 10
-118.246
 20
-57.6862
 11
-118.49
 21
-57.6448
  0
LINE
  8
0
 10
-118.49
 20
-57.6448
 11
-118.727
 21
-57.5765
  0
LINE
  8
0
 10
-118.727
 20
-57.5765
 11
-118.955
 21
-57.4821
  0
LINE
  8
0
 10
-118.955
 20
-57.4821
 11
-119.17
 21
-57.3628
  0
LINE
  8
0
 10
-119.17
 20
-57.3628
 11
-119.372
 21
-57.22
  0
LINE
  8
0
 10
-119.372
 20
-57.22
 11
-119.556
 21
-57.0556
  0
LINE
  8
0
 10
-119.556
 20
-57.0556
 11
-119.72
 21
-56.8717
  0
LINE
  8
0
 10
-119.72
 20
-56.8717
 11
-119.863
 21
-56.6705
  0
LINE
  8
0
 10
-119.863
 20
-56.6705
 11
-119.982
 21
-56.4545
  0
LINE
  8
0
 10
-119.982
 20
-56.4545
 11
-120.077
 21
-56.2266
  0
LINE
  8
0
 10
-120.077
 20
-56.2266
 11
-120.145
 21
-55.9895
  0
LINE
  8
0
 10
-120.145
 20
-55.9895
 11
-120.186
 21
-55.7463
  0
LINE
  8
0
 10
-120.186
 20
-55.7463
 11
-120.2
 21
-55.5
  0
LINE
  8
0
 10
-120.2
 20
-55.5
 11
-120.186
 21
-55.2537
  0
LINE
  8
0
 10
-120.186
 20
-55.2537
 11
-120.145
 21
-55.0105
  0
LINE
  8
0
 10
-120.145
 20
-55.0105
 11
-120.077
 21
-54.7734
  0
LINE
  8
0
 10
-120.077
 20
-54.7734
 11
-119.982
 21
-54.5455
  0
LINE
  8
0
 10
-119.982
 20
-54.5455
 11
-119.863
 21
-54.3295
  0
LINE
  8
0
 10
-119.863
 20
-54.3295
 11
-119.72
 21
-54.1283
  0
LINE
  8
0
 10
-119.72
 20
-54.1283
 11
-119.556
 21
-53.9444
  0
LINE
  8
0
 10
-119.556
 20
-53.9444
 11
-119.372
 21
-53.78
  0
LINE
  8
0
 10
-119.372
 20
-53.78
 11
-119.17
 21
-53.6372
  0
LINE
  8
0
 10
-119.17
 20
-53.6372
 11
-118.955
 21
-53.5179
  0
LINE
  8
0
 10
-118.955
 20
-53.5179
 11
-118.727
 21
-53.4234
  0
LINE
  8
0
 10
-118.727
 20
-53.4234
 11
-118.49
 21
-53.3551
  0
LINE
  8
0
 10
-118.49
 20
-53.3551
 11
-118.246
 21
-53.3138
  0
LINE
  8
0
 10
-118.246
 20
-53.3138
 11
-118
 21
-53.3
  0
LINE
  8
0
 10
-118
 20
-53.3
 11
-117.754
 21
-53.3138
  0
LINE
  8
0
 10
-117.754
 20
-53.3138
 11
-117.51
 21
-53.3551
  0
LINE
  8
0
 10
-117.51
 20
-53.3551
 11
-117.273
 21
-53.4234
  0
LINE
  8
0
 10
-117.273
 20
-53.4234
 11
-117.045
 21
-53.5179
  0
LINE
  8
0
 10
-117.045
 20
-53.5179
 11
-116.83
 21
-53.6372
  0
LINE
  8
0
 10
-116.83
 20
-53.6372
 11
-116.628
 21
-53.78
  0
LINE
  8
0
 10
-116.628
 20
-53.78
 11
-116.444
 21
-53.9444
  0
LINE
  8
0
 10
-116.444
 20
-53.9444
 11
-116.28
 21
-54.1283
  0
LINE
  8
0
 10
-116.28
 20
-54.1283
 11
-116.137
 21
-54.3295
  0
LINE
  8
0
 10
-116.137
 20
-54.3295
 11
-116.018
 21
-54.5455
  0
LINE
  8
0
 10
-116.018
 20
-54.5455
 11
-115.923
 21
-54.7734
  0
LINE
  8
0
 10
-115.923
 20
-54.7734
 11
-115.855
 21
-55.0105
  0
LINE
  8
0
 10
-115.855
 20
-55.0105
 11
-115.814
 21
-55.2537
  0
LINE
  8
0
 10
-115.814
 20
-55.2537
 11
-115.8
 21
-55.5
  0
LINE
  8
0
 10
-115.8
 20
-55.5
 11
-115.814
 21
-55.7463
  0
LINE
  8
0
 10
-115.814
 20
-55.7463
 11
-115.855
 21
-55.9895
  0
LINE
  8
0
 10
-115.855
 20
-55.9895
 11
-115.923
 21
-56.2266
  0
LINE
  8
0
 10
-115.923
 20
-56.2266
 11
-116.018
 21
-56.4545
  0
LINE
  8
0
 10
-116.018
 20
-56.4545
 11
-116.137
 21
-56.6705
  0
LINE
  8
0
 10
-116.137
 20
-56.6705
 11
-116.28
 21
-56.8717
  0
LINE
  8
0
 10
-116.28
 20
-56.8717
 11
-116.444
 21
-57.0556
  0
LINE
  8
0
 10
-116.444
 20
-57.0556
 11
-116.628
 21
-57.22
  0
LINE
  8
0
 10
-116.628
 20
-57.22
 11
-116.83
 21
-57.3628
  0
LINE
  8
0
 10
-116.83
 20
-57.3628
 11
-117.045
 21
-57.4821
  0
LINE
  8
0
 10
-117.045
 20
-57.4821
 11
-117.273
 21
-57.5765
  0
LINE
  8
0
 10
-117.273
 20
-57.5765
 11
-117.51
 21
-57.6448
  0
LINE
  8
0
 10
-117.51
 20
-57.6448
 11
-117.754
 21
-57.6862
  0
LINE
  8
0
 10
-117.754
 20
-57.6862
 11
-118
 21
-57.7
  0
LINE
  8
0
 10
-118
 20
-57.7
 11
-118.246
 21
-57.6862
  0
LINE
  8
0
 10
-222.809
 20
-90.9787
 11
-223.052
 21
-90.9312
  0
LINE
  8
0
 10
-223.052
 20
-90.9312
 11
-223.289
 21
-90.8571
  0
LINE
  8
0
 10
-223.289
 20
-90.8571
 11
-223.516
 21
-90.7576
  0
LINE
  8
0
 10
-223.516
 20
-90.7576
 11
-223.731
 21
-90.6336
  0
LINE
  8
0
 10
-223.731
 20
-90.6336
 11
-223.93
 21
-90.4868
  0
LINE
  8
0
 10
-223.93
 20
-90.4868
 11
-224.113
 21
-90.3189
  0
LINE
  8
0
 10
-224.113
 20
-90.3189
 11
-224.276
 21
-90.132
  0
LINE
  8
0
 10
-224.276
 20
-90.132
 11
-224.417
 21
-89.9283
  0
LINE
  8
0
 10
-224.417
 20
-89.9283
 11
-224.535
 21
-89.7102
  0
LINE
  8
0
 10
-224.535
 20
-89.7102
 11
-224.628
 21
-89.4806
  0
LINE
  8
0
 10
-224.628
 20
-89.4806
 11
-224.696
 21
-89.242
  0
LINE
  8
0
 10
-224.696
 20
-89.242
 11
-224.736
 21
-88.9975
  0
LINE
  8
0
 10
-224.736
 20
-88.9975
 11
-224.75
 21
-88.75
  0
LINE
  8
0
 10
-224.75
 20
-88.75
 11
-224.736
 21
-88.5025
  0
LINE
  8
0
 10
-224.736
 20
-88.5025
 11
-224.696
 21
-88.258
  0
LINE
  8
0
 10
-224.696
 20
-88.258
 11
-224.628
 21
-88.0194
  0
LINE
  8
0
 10
-224.628
 20
-88.0194
 11
-224.535
 21
-87.7897
  0
LINE
  8
0
 10
-224.535
 20
-87.7897
 11
-224.417
 21
-87.5717
  0
LINE
  8
0
 10
-224.417
 20
-87.5717
 11
-224.276
 21
-87.368
  0
LINE
  8
0
 10
-224.276
 20
-87.368
 11
-224.113
 21
-87.1811
  0
LINE
  8
0
 10
-224.113
 20
-87.1811
 11
-223.93
 21
-87.0132
  0
LINE
  8
0
 10
-223.93
 20
-87.0132
 11
-223.731
 21
-86.8664
  0
LINE
  8
0
 10
-223.731
 20
-86.8664
 11
-223.516
 21
-86.7424
  0
LINE
  8
0
 10
-223.516
 20
-86.7424
 11
-223.289
 21
-86.6429
  0
LINE
  8
0
 10
-223.289
 20
-86.6429
 11
-223.052
 21
-86.5688
  0
LINE
  8
0
 10
-223.052
 20
-86.5688
 11
-222.809
 21
-86.5213
  0
LINE
  8
0
 10
-222.809
 20
-86.5213
 11
-222.562
 21
-86.5009
  0
LINE
  8
0
 10
-222.562
 20
-86.5009
 11
-222.314
 21
-86.5077
  0
LINE
  8
0
 10
-222.314
 20
-86.5077
 11
-222.069
 21
-86.5417
  0
LINE
  8
0
 10
-222.069
 20
-86.5417
 11
-221.828
 21
-86.6026
  0
LINE
  8
0
 10
-221.828
 20
-86.6026
 11
-221.596
 21
-86.6895
  0
LINE
  8
0
 10
-221.596
 20
-86.6895
 11
-221.375
 21
-86.8014
  0
LINE
  8
0
 10
-221.375
 20
-86.8014
 11
-221.167
 21
-86.937
  0
LINE
  8
0
 10
-221.167
 20
-86.937
 11
-220.976
 21
-87.0946
  0
LINE
  8
0
 10
-220.976
 20
-87.0946
 11
-220.803
 21
-87.2723
  0
LINE
  8
0
 10
-220.803
 20
-87.2723
 11
-220.651
 21
-87.4679
  0
LINE
  8
0
 10
-220.651
 20
-87.4679
 11
-220.521
 21
-87.6791
  0
LINE
  8
0
 10
-220.521
 20
-87.6791
 11
-220.415
 21
-87.9033
  0
LINE
  8
0
 10
-220.415
 20
-87.9033
 11
-220.335
 21
-88.1378
  0
LINE
  8
0
 10
-220.335
 20
-88.1378
 11
-220.281
 21
-88.3797
  0
LINE
  8
0
 10
-220.281
 20
-88.3797
 11
-220.253
 21
-88.6261
  0
LINE
  8
0
 10
-220.253
 20
-88.6261
 11
-220.253
 21
-88.8739
  0
LINE
  8
0
 10
-220.253
 20
-88.8739
 11
-220.281
 21
-89.1203
  0
LINE
  8
0
 10
-220.281
 20
-89.1203
 11
-220.335
 21
-89.3622
  0
LINE
  8
0
 10
-220.335
 20
-89.3622
 11
-220.415
 21
-89.5967
  0
LINE
  8
0
 10
-220.415
 20
-89.5967
 11
-220.521
 21
-89.8209
  0
LINE
  8
0
 10
-220.521
 20
-89.8209
 11
-220.651
 21
-90.0321
  0
LINE
  8
0
 10
-220.651
 20
-90.0321
 11
-220.803
 21
-90.2277
  0
LINE
  8
0
 10
-220.803
 20
-90.2277
 11
-220.976
 21
-90.4054
  0
LINE
  8
0
 10
-220.976
 20
-90.4054
 11
-221.167
 21
-90.563
  0
LINE
  8
0
 10
-221.167
 20
-90.563
 11
-221.375
 21
-90.6985
  0
LINE
  8
0
 10
-221.375
 20
-90.6985
 11
-221.596
 21
-90.8105
  0
LINE
  8
0
 10
-221.596
 20
-90.8105
 11
-221.828
 21
-90.8974
  0
LINE
  8
0
 10
-221.828
 20
-90.8974
 11
-222.069
 21
-90.9583
  0
LINE
  8
0
 10
-222.069
 20
-90.9583
 11
-222.314
 21
-90.9923
  0
LINE
  8
0
 10
-222.314
 20
-90.9923
 11
-222.562
 21
-90.9991
  0
LINE
  8
0
 10
-222.562
 20
-90.9991
 11
-222.809
 21
-90.9787
  0
LINE
  8
0
 10
222.314
 20
-90.9923
 11
222.069
 21
-90.9583
  0
LINE
  8
0
 10
222.069
 20
-90.9583
 11
221.828
 21
-90.8974
  0
LINE
  8
0
 10
221.828
 20
-90.8974
 11
221.596
 21
-90.8105
  0
LINE
  8
0
 10
221.596
 20
-90.8105
 11
221.375
 21
-90.6985
  0
LINE
  8
0
 10
221.375
 20
-90.6985
 11
221.167
 21
-90.563
  0
LINE
  8
0
 10
221.167
 20
-90.563
 11
220.976
 21
-90.4054
  0
LINE
  8
0
 10
220.976
 20
-90.4054
 11
220.803
 21
-90.2277
  0
LINE
  8
0
 10
220.803
 20
-90.2277
 11
220.651
 21
-90.0321
  0
LINE
  8
0
 10
220.651
 20
-90.0321
 11
220.521
 21
-89.8209
  0
LINE
  8
0
 10
220.521
 20
-89.8209
 11
220.415
 21
-89.5967
  0
LINE
  8
0
 10
220.415
 20
-89.5967
 11
220.335
 21
-89.3622
  0
LINE
  8
0
 10
220.335
 20
-89.3622
 11
220.281
 21
-89.1203
  0
LINE
  8
0
 10
220.281
 20
-89.1203
 11
220.253
 21
-88.8739
  0
LINE
  8
0
 10
220.253
 20
-88.8739
 11
220.253
 21
-88.6261
  0
LINE
  8
0
 10
220.253
 20
-88.6261
 11
220.281
 21
-88.3797
  0
LINE
  8
0
 10
220.281
 20
-88.3797
 11
220.335
 21
-88.1378
  0
LINE
  8
0
 10
220.335
 20
-88.1378
 11
220.415
 21
-87.9033
  0
LINE
  8
0
 10
220.415
 20
-87.9033
 11
220.521
 21
-87.6791
  0
LINE
  8
0
 10
220.521
 20
-87.6791
 11
220.651
 21
-87.4679
  0
LINE
  8
0
 10
220.651
 20
-87.4679
 11
220.803
 21
-87.2723
  0
LINE
  8
0
 10
220.803
 20
-87.2723
 11
220.976
 21
-87.0946
  0
LINE
  8
0
 10
220.976
 20
-87.0946
 11
221.167
 21
-86.937
  0
LINE
  8
0
 10
221.167
 20
-86.937
 11
221.375
 21
-86.8014
  0
LINE
  8
0
 10
221.375
 20
-86.8014
 11
221.596
 21
-86.6895
  0
LINE
  8
0
 10
221.596
 20
-86.6895
 11
221.828
 21
-86.6026
  0
LINE
  8
0
 10
221.828
 20
-86.6026
 11
222.069
 21
-86.5417
  0
LINE
  8
0
 10
222.069
 20
-86.5417
 11
222.314
 21
-86.5077
  0
LINE
  8
0
 10
222.314
 20
-86.5077
 11
222.562
 21
-86.5009
  0
LINE
  8
0
 10
222.562
 20
-86.5009
 11
222.809
 21
-86.5213
  0
LINE
  8
0
 10
222.809
 20
-86.5213
 11
223.052
 21
-86.5688
  0
LINE
  8
0
 10
223.052
 20
-86.5688
 11
223.289
 21
-86.6429
  0
LINE
  8
0
 10
223.289
 20
-86.6429
 11
223.516
 21
-86.7424
  0
LINE
  8
0
 10
223.516
 20
-86.7424
 11
223.731
 21
-86.8664
  0
LINE
  8
0
 10
223.731
 20
-86.8664
 11
223.93
 21
-87.0132
  0
LINE
  8
0
 10
223.93
 20
-87.0132
 11
224.113
 21
-87.1811
  0
LINE
  8
0
 10
224.113
 20
-87.1811
 11
224.276
 21
-87.368
  0
LINE
  8
0
 10
224.276
 20
-87.368
 11
224.417
 21
-87.5717
  0
LINE
  8
0
 10
224.417
 20
-87.5717
 11
224.535
 21
-87.7897
  0
LINE
  8
0
 10
224.535
 20
-87.7897
 11
224.628
 21
-88.0194
  0
LINE
  8
0
 10
224.628
 20
-88.0194
 11
224.696
 21
-88.258
  0
LINE
  8
0
 10
224.696
 20
-88.258
 11
224.736
 21
-88.5025
  0
LINE
  8
0
 10
224.736
 20
-88.5025
 11
224.75
 21
-88.75
  0
LINE
  8
0
 10
224.75
 20
-88.75
 11
224.736
 21
-88.9975
  0
LINE
  8
0
 10
224.736
 20
-88.9975
 11
224.696
 21
-89.242
  0
LINE
  8
0
 10
224.696
 20
-89.242
 11
224.628
 21
-89.4806
  0
LINE
  8
0
 10
224.628
 20
-89.4806
 11
224.535
 21
-89.7102
  0
LINE
  8
0
 10
224.535
 20
-89.7102
 11
224.417
 21
-89.9283
  0
LINE
  8
0
 10
224.417
 20
-89.9283
 11
224.276
 21
-90.132
  0
LINE
  8
0
 10
224.276
 20
-90.132
 11
224.113
 21
-90.3189
  0
LINE
  8
0
 10
224.113
 20
-90.3189
 11
223.93
 21
-90.4868
  0
LINE
  8
0
 10
223.93
 20
-90.4868
 11
223.731
 21
-90.6336
  0
LINE
  8
0
 10
223.731
 20
-90.6336
 11
223.516
 21
-90.7576
  0
LINE
  8
0
 10
223.516
 20
-90.7576
 11
223.289
 21
-90.8571
  0
LINE
  8
0
 10
223.289
 20
-90.8571
 11
223.052
 21
-90.9312
  0
LINE
  8
0
 10
223.052
 20
-90.9312
 11
222.809
 21
-90.9787
  0
LINE
  8
0
 10
222.809
 20
-90.9787
 11
222.562
 21
-90.9991
  0
LINE
  8
0
 10
222.562
 20
-90.9991
 11
222.314
 21
-90.9923
  0
LINE
  8
0
 10
-42.7463
 20
-113.186
 11
-42.9895
 21
-113.145
  0
LINE
  8
0
 10
-42.9895
 20
-113.145
 11
-43.2266
 21
-113.077
  0
LINE
  8
0
 10
-43.2266
 20
-113.077
 11
-43.4545
 21
-112.982
  0
LINE
  8
0
 10
-43.4545
 20
-112.982
 11
-43.6705
 21
-112.863
  0
LINE
  8
0
 10
-43.6705
 20
-112.863
 11
-43.8717
 21
-112.72
  0
LINE
  8
0
 10
-43.8717
 20
-112.72
 11
-44.0556
 21
-112.556
  0
LINE
  8
0
 10
-44.0556
 20
-112.556
 11
-44.22
 21
-112.372
  0
LINE
  8
0
 10
-44.22
 20
-112.372
 11
-44.3628
 21
-112.17
  0
LINE
  8
0
 10
-44.3628
 20
-112.17
 11
-44.4821
 21
-111.955
  0
LINE
  8
0
 10
-44.4821
 20
-111.955
 11
-44.5765
 21
-111.727
  0
LINE
  8
0
 10
-44.5765
 20
-111.727
 11
-44.6448
 21
-111.49
  0
LINE
  8
0
 10
-44.6448
 20
-111.49
 11
-44.6862
 21
-111.246
  0
LINE
  8
0
 10
-44.6862
 20
-111.246
 11
-44.7
 21
-111
  0
LINE
  8
0
 10
-44.7
 20
-111
 11
-44.6862
 21
-110.754
  0
LINE
  8
0
 10
-44.6862
 20
-110.754
 11
-44.6448
 21
-110.51
  0
LINE
  8
0
 10
-44.6448
 20
-110.51
 11
-44.5765
 21
-110.273
  0
LINE
  8
0
 10
-44.5765
 20
-110.273
 11
-44.4821
 21
-110.045
  0
LINE
  8
0
 10
-44.4821
 20
-110.045
 11
-44.3628
 21
-109.83
  0
LINE
  8
0
 10
-44.3628
 20
-109.83
 11
-44.22
 21
-109.628
  0
LINE
  8
0
 10
-44.22
 20
-109.628
 11
-44.0556
 21
-109.444
  0
LINE
  8
0
 10
-44.0556
 20
-109.444
 11
-43.8717
 21
-109.28
  0
LINE
  8
0
 10
-43.8717
 20
-109.28
 11
-43.6705
 21
-109.137
  0
LINE
  8
0
 10
-43.6705
 20
-109.137
 11
-43.4545
 21
-109.018
  0
LINE
  8
0
 10
-43.4545
 20
-109.018
 11
-43.2266
 21
-108.923
  0
LINE
  8
0
 10
-43.2266
 20
-108.923
 11
-42.9895
 21
-108.855
  0
LINE
  8
0
 10
-42.9895
 20
-108.855
 11
-42.7463
 21
-108.814
  0
LINE
  8
0
 10
-42.7463
 20
-108.814
 11
-42.5
 21
-108.8
  0
LINE
  8
0
 10
-42.5
 20
-108.8
 11
-42.2537
 21
-108.814
  0
LINE
  8
0
 10
-42.2537
 20
-108.814
 11
-42.0105
 21
-108.855
  0
LINE
  8
0
 10
-42.0105
 20
-108.855
 11
-41.7734
 21
-108.923
  0
LINE
  8
0
 10
-41.7734
 20
-108.923
 11
-41.5455
 21
-109.018
  0
LINE
  8
0
 10
-41.5455
 20
-109.018
 11
-41.3295
 21
-109.137
  0
LINE
  8
0
 10
-41.3295
 20
-109.137
 11
-41.1283
 21
-109.28
  0
LINE
  8
0
 10
-41.1283
 20
-109.28
 11
-40.9444
 21
-109.444
  0
LINE
  8
0
 10
-40.9444
 20
-109.444
 11
-40.78
 21
-109.628
  0
LINE
  8
0
 10
-40.78
 20
-109.628
 11
-40.6372
 21
-109.83
  0
LINE
  8
0
 10
-40.6372
 20
-109.83
 11
-40.5179
 21
-110.045
  0
LINE
  8
0
 10
-40.5179
 20
-110.045
 11
-40.4234
 21
-110.273
  0
LINE
  8
0
 10
-40.4234
 20
-110.273
 11
-40.3551
 21
-110.51
  0
LINE
  8
0
 10
-40.3551
 20
-110.51
 11
-40.3138
 21
-110.754
  0
LINE
  8
0
 10
-40.3138
 20
-110.754
 11
-40.3
 21
-111
  0
LINE
  8
0
 10
-40.3
 20
-111
 11
-40.3138
 21
-111.246
  0
LINE
  8
0
 10
-40.3138
 20
-111.246
 11
-40.3551
 21
-111.49
  0
LINE
  8
0
 10
-40.3551
 20
-111.49
 11
-40.4234
 21
-111.727
  0
LINE
  8
0
 10
-40.4234
 20
-111.727
 11
-40.5179
 21
-111.955
  0
LINE
  8
0
 10
-40.5179
 20
-111.955
 11
-40.6372
 21
-112.17
  0
LINE
  8
0
 10
-40.6372
 20
-112.17
 11
-40.78
 21
-112.372
  0
LINE
  8
0
 10
-40.78
 20
-112.372
 11
-40.9444
 21
-112.556
  0
LINE
  8
0
 10
-40.9444
 20
-112.556
 11
-41.1283
 21
-112.72
  0
LINE
  8
0
 10
-41.1283
 20
-112.72
 11
-41.3295
 21
-112.863
  0
LINE
  8
0
 10
-41.3295
 20
-112.863
 11
-41.5455
 21
-112.982
  0
LINE
  8
0
 10
-41.5455
 20
-112.982
 11
-41.7734
 21
-113.077
  0
LINE
  8
0
 10
-41.7734
 20
-113.077
 11
-42.0105
 21
-113.145
  0
LINE
  8
0
 10
-42.0105
 20
-113.145
 11
-42.2537
 21
-113.186
  0
LINE
  8
0
 10
-42.2537
 20
-113.186
 11
-42.5
 21
-113.2
  0
LINE
  8
0
 10
-42.5
 20
-113.2
 11
-42.7463
 21
-113.186
  0
LINE
  8
0
 10
-157.746
 20
-113.186
 11
-157.99
 21
-113.145
  0
LINE
  8
0
 10
-157.99
 20
-113.145
 11
-158.227
 21
-113.077
  0
LINE
  8
0
 10
-158.227
 20
-113.077
 11
-158.455
 21
-112.982
  0
LINE
  8
0
 10
-158.455
 20
-112.982
 11
-158.67
 21
-112.863
  0
LINE
  8
0
 10
-158.67
 20
-112.863
 11
-158.872
 21
-112.72
  0
LINE
  8
0
 10
-158.872
 20
-112.72
 11
-159.056
 21
-112.556
  0
LINE
  8
0
 10
-159.056
 20
-112.556
 11
-159.22
 21
-112.372
  0
LINE
  8
0
 10
-159.22
 20
-112.372
 11
-159.363
 21
-112.17
  0
LINE
  8
0
 10
-159.363
 20
-112.17
 11
-159.482
 21
-111.955
  0
LINE
  8
0
 10
-159.482
 20
-111.955
 11
-159.577
 21
-111.727
  0
LINE
  8
0
 10
-159.577
 20
-111.727
 11
-159.645
 21
-111.49
  0
LINE
  8
0
 10
-159.645
 20
-111.49
 11
-159.686
 21
-111.246
  0
LINE
  8
0
 10
-159.686
 20
-111.246
 11
-159.7
 21
-111
  0
LINE
  8
0
 10
-159.7
 20
-111
 11
-159.686
 21
-110.754
  0
LINE
  8
0
 10
-159.686
 20
-110.754
 11
-159.645
 21
-110.51
  0
LINE
  8
0
 10
-159.645
 20
-110.51
 11
-159.577
 21
-110.273
  0
LINE
  8
0
 10
-159.577
 20
-110.273
 11
-159.482
 21
-110.045
  0
LINE
  8
0
 10
-159.482
 20
-110.045
 11
-159.363
 21
-109.83
  0
LINE
  8
0
 10
-159.363
 20
-109.83
 11
-159.22
 21
-109.628
  0
LINE
  8
0
 10
-159.22
 20
-109.628
 11
-159.056
 21
-109.444
  0
LINE
  8
0
 10
-159.056
 20
-109.444
 11
-158.872
 21
-109.28
  0
LINE
  8
0
 10
-158.872
 20
-109.28
 11
-158.67
 21
-109.137
  0
LINE
  8
0
 10
-158.67
 20
-109.137
 11
-158.455
 21
-109.018
  0
LINE
  8
0
 10
-158.455
 20
-109.018
 11
-158.227
 21
-108.923
  0
LINE
  8
0
 10
-158.227
 20
-108.923
 11
-157.99
 21
-108.855
  0
LINE
  8
0
 10
-157.99
 20
-108.855
 11
-157.746
 21
-108.814
  0
LINE
  8
0
 10
-157.746
 20
-108.814
 11
-157.5
 21
-108.8
  0
LINE
  8
0
 10
-157.5
 20
-108.8
 11
-157.254
 21
-108.814
  0
LINE
  8
0
 10
-157.254
 20
-108.814
 11
-157.01
 21
-108.855
  0
LINE
  8
0
 10
-157.01
 20
-108.855
 11
-156.773
 21
-108.923
  0
LINE
  8
0
 10
-156.773
 20
-108.923
 11
-156.545
 21
-109.018
  0
LINE
  8
0
 10
-156.545
 20
-109.018
 11
-156.33
 21
-109.137
  0
LINE
  8
0
 10
-156.33
 20
-109.137
 11
-156.128
 21
-109.28
  0
LINE
  8
0
 10
-156.128
 20
-109.28
 11
-155.944
 21
-109.444
  0
LINE
  8
0
 10
-155.944
 20
-109.444
 11
-155.78
 21
-109.628
  0
LINE
  8
0
 10
-155.78
 20
-109.628
 11
-155.637
 21
-109.83
  0
LINE
  8
0
 10
-155.637
 20
-109.83
 11
-155.518
 21
-110.045
  0
LINE
  8
0
 10
-155.518
 20
-110.045
 11
-155.423
 21
-110.273
  0
LINE
  8
0
 10
-155.423
 20
-110.273
 11
-155.355
 21
-110.51
  0
LINE
  8
0
 10
-155.355
 20
-110.51
 11
-155.314
 21
-110.754
  0
LINE
  8
0
 10
-155.314
 20
-110.754
 11
-155.3
 21
-111
  0
LINE
  8
0
 10
-155.3
 20
-111
 11
-155.314
 21
-111.246
  0
LINE
  8
0
 10
-155.314
 20
-111.246
 11
-155.355
 21
-111.49
  0
LINE
  8
0
 10
-155.355
 20
-111.49
 11
-155.423
 21
-111.727
  0
LINE
  8
0
 10
-155.423
 20
-111.727
 11
-155.518
 21
-111.955
  0
LINE
  8
0
 10
-155.518
 20
-111.955
 11
-155.637
 21
-112.17
  0
LINE
  8
0
 10
-155.637
 20
-112.17
 11
-155.78
 21
-112.372
  0
LINE
  8
0
 10
-155.78
 20
-112.372
 11
-155.944
 21
-112.556
  0
LINE
  8
0
 10
-155.944
 20
-112.556
 11
-156.128
 21
-112.72
  0
LINE
  8
0
 10
-156.128
 20
-112.72
 11
-156.33
 21
-112.863
  0
LINE
  8
0
 10
-156.33
 20
-112.863
 11
-156.545
 21
-112.982
  0
LINE
  8
0
 10
-156.545
 20
-112.982
 11
-156.773
 21
-113.077
  0
LINE
  8
0
 10
-156.773
 20
-113.077
 11
-157.01
 21
-113.145
  0
LINE
  8
0
 10
-157.01
 20
-113.145
 11
-157.254
 21
-113.186
  0
LINE
  8
0
 10
-157.254
 20
-113.186
 11
-157.5
 21
-113.2
  0
LINE
  8
0
 10
-157.5
 20
-113.2
 11
-157.746
 21
-113.186
  0
LINE
  8
0
 10
98.7569
 20
-127.879
 11
98.5212
 21
-127.816
  0
LINE
  8
0
 10
98.5212
 20
-127.816
 11
98.3
 21
-127.712
  0
LINE
  8
0
 10
98.3
 20
-127.712
 11
98.1001
 21
-127.572
  0
LINE
  8
0
 10
98.1001
 20
-127.572
 11
97.9275
 21
-127.4
  0
LINE
  8
0
 10
97.9275
 20
-127.4
 11
97.7876
 21
-127.2
  0
LINE
  8
0
 10
97.7876
 20
-127.2
 11
97.6844
 21
-126.979
  0
LINE
  8
0
 10
97.6844
 20
-126.979
 11
97.6213
 21
-126.743
  0
LINE
  8
0
 10
97.6213
 20
-126.743
 11
97.6
 21
-126.5
  0
LINE
  8
0
 10
97.6
 20
-126.5
 11
97.6213
 21
-126.257
  0
LINE
  8
0
 10
97.6213
 20
-126.257
 11
97.6844
 21
-126.021
  0
LINE
  8
0
 10
97.6844
 20
-126.021
 11
97.7876
 21
-125.8
  0
LINE
  8
0
 10
97.7876
 20
-125.8
 11
97.9275
 21
-125.6
  0
LINE
  8
0
 10
97.9275
 20
-125.6
 11
98.1001
 21
-125.428
  0
LINE
  8
0
 10
98.1001
 20
-125.428
 11
98.3
 21
-125.288
  0
LINE
  8
0
 10
98.3
 20
-125.288
 11
98.5212
 21
-125.184
  0
LINE
  8
0
 10
98.5212
 20
-125.184
 11
98.7569
 21
-125.121
  0
LINE
  8
0
 10
98.7569
 20
-125.121
 11
99
 21
-125.1
  0
LINE
  8
0
 10
99
 20
-125.1
 11
99.2431
 21
-125.121
  0
LINE
  8
0
 10
99.2431
 20
-125.121
 11
99.4788
 21
-125.184
  0
LINE
  8
0
 10
99.4788
 20
-125.184
 11
99.7
 21
-125.288
  0
LINE
  8
0
 10
99.7
 20
-125.288
 11
99.8999
 21
-125.428
  0
LINE
  8
0
 10
99.8999
 20
-125.428
 11
100.072
 21
-125.6
  0
LINE
  8
0
 10
100.072
 20
-125.6
 11
100.212
 21
-125.8
  0
LINE
  8
0
 10
100.212
 20
-125.8
 11
100.316
 21
-126.021
  0
LINE
  8
0
 10
100.316
 20
-126.021
 11
100.379
 21
-126.257
  0
LINE
  8
0
 10
100.379
 20
-126.257
 11
100.4
 21
-126.5
  0
LINE
  8
0
 10
100.4
 20
-126.5
 11
100.379
 21
-126.743
  0
LINE
  8
0
 10
100.379
 20
-126.743
 11
100.316
 21
-126.979
  0
LINE
  8
0
 10
100.316
 20
-126.979
 11
100.212
 21
-127.2
  0
LINE
  8
0
 10
100.212
 20
-127.2
 11
100.072
 21
-127.4
  0
LINE
  8
0
 10
100.072
 20
-127.4
 11
99.8999
 21
-127.572
  0
LINE
  8
0
 10
99.8999
 20
-127.572
 11
99.7
 21
-127.712
  0
LINE
  8
0
 10
99.7
 20
-127.712
 11
99.4788
 21
-127.816
  0
LINE
  8
0
 10
99.4788
 20
-127.816
 11
99.2431
 21
-127.879
  0
LINE
  8
0
 10
99.2431
 20
-127.879
 11
99
 21
-127.9
  0
LINE
  8
0
 10
99
 20
-127.9
 11
98.7569
 21
-127.879
  0
LINE
  8
0
 10
40.7569
 20
-127.879
 11
40.5212
 21
-127.816
  0
LINE
  8
0
 10
40.5212
 20
-127.816
 11
40.3
 21
-127.712
  0
LINE
  8
0
 10
40.3
 20
-127.712
 11
40.1001
 21
-127.572
  0
LINE
  8
0
 10
40.1001
 20
-127.572
 11
39.9275
 21
-127.4
  0
LINE
  8
0
 10
39.9275
 20
-127.4
 11
39.7876
 21
-127.2
  0
LINE
  8
0
 10
39.7876
 20
-127.2
 11
39.6844
 21
-126.979
  0
LINE
  8
0
 10
39.6844
 20
-126.979
 11
39.6213
 21
-126.743
  0
LINE
  8
0
 10
39.6213
 20
-126.743
 11
39.6
 21
-126.5
  0
LINE
  8
0
 10
39.6
 20
-126.5
 11
39.6213
 21
-126.257
  0
LINE
  8
0
 10
39.6213
 20
-126.257
 11
39.6844
 21
-126.021
  0
LINE
  8
0
 10
39.6844
 20
-126.021
 11
39.7876
 21
-125.8
  0
LINE
  8
0
 10
39.7876
 20
-125.8
 11
39.9275
 21
-125.6
  0
LINE
  8
0
 10
39.9275
 20
-125.6
 11
40.1001
 21
-125.428
  0
LINE
  8
0
 10
40.1001
 20
-125.428
 11
40.3
 21
-125.288
  0
LINE
  8
0
 10
40.3
 20
-125.288
 11
40.5212
 21
-125.184
  0
LINE
  8
0
 10
40.5212
 20
-125.184
 11
40.7569
 21
-125.121
  0
LINE
  8
0
 10
40.7569
 20
-125.121
 11
41
 21
-125.1
  0
LINE
  8
0
 10
41
 20
-125.1
 11
41.2431
 21
-125.121
  0
LINE
  8
0
 10
41.2431
 20
-125.121
 11
41.4788
 21
-125.184
  0
LINE
  8
0
 10
41.4788
 20
-125.184
 11
41.7
 21
-125.288
  0
LINE
  8
0
 10
41.7
 20
-125.288
 11
41.8999
 21
-125.428
  0
LINE
  8
0
 10
41.8999
 20
-125.428
 11
42.0725
 21
-125.6
  0
LINE
  8
0
 10
42.0725
 20
-125.6
 11
42.2124
 21
-125.8
  0
LINE
  8
0
 10
42.2124
 20
-125.8
 11
42.3156
 21
-126.021
  0
LINE
  8
0
 10
42.3156
 20
-126.021
 11
42.3787
 21
-126.257
  0
LINE
  8
0
 10
42.3787
 20
-126.257
 11
42.4
 21
-126.5
  0
LINE
  8
0
 10
42.4
 20
-126.5
 11
42.3787
 21
-126.743
  0
LINE
  8
0
 10
42.3787
 20
-126.743
 11
42.3156
 21
-126.979
  0
LINE
  8
0
 10
42.3156
 20
-126.979
 11
42.2124
 21
-127.2
  0
LINE
  8
0
 10
42.2124
 20
-127.2
 11
42.0725
 21
-127.4
  0
LINE
  8
0
 10
42.0725
 20
-127.4
 11
41.8999
 21
-127.572
  0
LINE
  8
0
 10
41.8999
 20
-127.572
 11
41.7
 21
-127.712
  0
LINE
  8
0
 10
41.7
 20
-127.712
 11
41.4788
 21
-127.816
  0
LINE
  8
0
 10
41.4788
 20
-127.816
 11
41.2431
 21
-127.879
  0
LINE
  8
0
 10
41.2431
 20
-127.879
 11
41
 21
-127.9
  0
LINE
  8
0
 10
41
 20
-127.9
 11
40.7569
 21
-127.879
  0
LINE
  8
0
 10
-118.246
 20
-148.686
 11
-118.49
 21
-148.645
  0
LINE
  8
0
 10
-118.49
 20
-148.645
 11
-118.727
 21
-148.577
  0
LINE
  8
0
 10
-118.727
 20
-148.577
 11
-118.955
 21
-148.482
  0
LINE
  8
0
 10
-118.955
 20
-148.482
 11
-119.17
 21
-148.363
  0
LINE
  8
0
 10
-119.17
 20
-148.363
 11
-119.372
 21
-148.22
  0
LINE
  8
0
 10
-119.372
 20
-148.22
 11
-119.556
 21
-148.056
  0
LINE
  8
0
 10
-119.556
 20
-148.056
 11
-119.72
 21
-147.872
  0
LINE
  8
0
 10
-119.72
 20
-147.872
 11
-119.863
 21
-147.67
  0
LINE
  8
0
 10
-119.863
 20
-147.67
 11
-119.982
 21
-147.455
  0
LINE
  8
0
 10
-119.982
 20
-147.455
 11
-120.077
 21
-147.227
  0
LINE
  8
0
 10
-120.077
 20
-147.227
 11
-120.145
 21
-146.99
  0
LINE
  8
0
 10
-120.145
 20
-146.99
 11
-120.186
 21
-146.746
  0
LINE
  8
0
 10
-120.186
 20
-146.746
 11
-120.2
 21
-146.5
  0
LINE
  8
0
 10
-120.2
 20
-146.5
 11
-120.186
 21
-146.254
  0
LINE
  8
0
 10
-120.186
 20
-146.254
 11
-120.145
 21
-146.01
  0
LINE
  8
0
 10
-120.145
 20
-146.01
 11
-120.077
 21
-145.773
  0
LINE
  8
0
 10
-120.077
 20
-145.773
 11
-119.982
 21
-145.545
  0
LINE
  8
0
 10
-119.982
 20
-145.545
 11
-119.863
 21
-145.33
  0
LINE
  8
0
 10
-119.863
 20
-145.33
 11
-119.72
 21
-145.128
  0
LINE
  8
0
 10
-119.72
 20
-145.128
 11
-119.556
 21
-144.944
  0
LINE
  8
0
 10
-119.556
 20
-144.944
 11
-119.372
 21
-144.78
  0
LINE
  8
0
 10
-119.372
 20
-144.78
 11
-119.17
 21
-144.637
  0
LINE
  8
0
 10
-119.17
 20
-144.637
 11
-118.955
 21
-144.518
  0
LINE
  8
0
 10
-118.955
 20
-144.518
 11
-118.727
 21
-144.423
  0
LINE
  8
0
 10
-118.727
 20
-144.423
 11
-118.49
 21
-144.355
  0
LINE
  8
0
 10
-118.49
 20
-144.355
 11
-118.246
 21
-144.314
  0
LINE
  8
0
 10
-118.246
 20
-144.314
 11
-118
 21
-144.3
  0
LINE
  8
0
 10
-118
 20
-144.3
 11
-117.754
 21
-144.314
  0
LINE
  8
0
 10
-117.754
 20
-144.314
 11
-117.51
 21
-144.355
  0
LINE
  8
0
 10
-117.51
 20
-144.355
 11
-117.273
 21
-144.423
  0
LINE
  8
0
 10
-117.273
 20
-144.423
 11
-117.045
 21
-144.518
  0
LINE
  8
0
 10
-117.045
 20
-144.518
 11
-116.83
 21
-144.637
  0
LINE
  8
0
 10
-116.83
 20
-144.637
 11
-116.628
 21
-144.78
  0
LINE
  8
0
 10
-116.628
 20
-144.78
 11
-116.444
 21
-144.944
  0
LINE
  8
0
 10
-116.444
 20
-144.944
 11
-116.28
 21
-145.128
  0
LINE
  8
0
 10
-116.28
 20
-145.128
 11
-116.137
 21
-145.33
  0
LINE
  8
0
 10
-116.137
 20
-145.33
 11
-116.018
 21
-145.545
  0
LINE
  8
0
 10
-116.018
 20
-145.545
 11
-115.923
 21
-145.773
  0
LINE
  8
0
 10
-115.923
 20
-145.773
 11
-115.855
 21
-146.01
  0
LINE
  8
0
 10
-115.855
 20
-146.01
 11
-115.814
 21
-146.254
  0
LINE
  8
0
 10
-115.814
 20
-146.254
 11
-115.8
 21
-146.5
  0
LINE
  8
0
 10
-115.8
 20
-146.5
 11
-115.814
 21
-146.746
  0
LINE
  8
0
 10
-115.814
 20
-146.746
 11
-115.855
 21
-146.99
  0
LINE
  8
0
 10
-115.855
 20
-146.99
 11
-115.923
 21
-147.227
  0
LINE
  8
0
 10
-115.923
 20
-147.227
 11
-116.018
 21
-147.455
  0
LINE
  8
0
 10
-116.018
 20
-147.455
 11
-116.137
 21
-147.67
  0
LINE
  8
0
 10
-116.137
 20
-147.67
 11
-116.28
 21
-147.872
  0
LINE
  8
0
 10
-116.28
 20
-147.872
 11
-116.444
 21
-148.056
  0
LINE
  8
0
 10
-116.444
 20
-148.056
 11
-116.628
 21
-148.22
  0
LINE
  8
0
 10
-116.628
 20
-148.22
 11
-116.83
 21
-148.363
  0
LINE
  8
0
 10
-116.83
 20
-148.363
 11
-117.045
 21
-148.482
  0
LINE
  8
0
 10
-117.045
 20
-148.482
 11
-117.273
 21
-148.577
  0
LINE
  8
0
 10
-117.273
 20
-148.577
 11
-117.51
 21
-148.645
  0
LINE
  8
0
 10
-117.51
 20
-148.645
 11
-117.754
 21
-148.686
  0
LINE
  8
0
 10
-117.754
 20
-148.686
 11
-118
 21
-148.7
  0
LINE
  8
0
 10
-118
 20
-148.7
 11
-118.246
 21
-148.686
  0
LINE
  8
0
 10
-27.2463
 20
-148.686
 11
-27.4895
 21
-148.645
  0
LINE
  8
0
 10
-27.4895
 20
-148.645
 11
-27.7266
 21
-148.577
  0
LINE
  8
0
 10
-27.7266
 20
-148.577
 11
-27.9545
 21
-148.482
  0
LINE
  8
0
 10
-27.9545
 20
-148.482
 11
-28.1705
 21
-148.363
  0
LINE
  8
0
 10
-28.1705
 20
-148.363
 11
-28.3717
 21
-148.22
  0
LINE
  8
0
 10
-28.3717
 20
-148.22
 11
-28.5556
 21
-148.056
  0
LINE
  8
0
 10
-28.5556
 20
-148.056
 11
-28.72
 21
-147.872
  0
LINE
  8
0
 10
-28.72
 20
-147.872
 11
-28.8628
 21
-147.67
  0
LINE
  8
0
 10
-28.8628
 20
-147.67
 11
-28.9821
 21
-147.455
  0
LINE
  8
0
 10
-28.9821
 20
-147.455
 11
-29.0765
 21
-147.227
  0
LINE
  8
0
 10
-29.0765
 20
-147.227
 11
-29.1448
 21
-146.99
  0
LINE
  8
0
 10
-29.1448
 20
-146.99
 11
-29.1862
 21
-146.746
  0
LINE
  8
0
 10
-29.1862
 20
-146.746
 11
-29.2
 21
-146.5
  0
LINE
  8
0
 10
-29.2
 20
-146.5
 11
-29.1862
 21
-146.254
  0
LINE
  8
0
 10
-29.1862
 20
-146.254
 11
-29.1448
 21
-146.01
  0
LINE
  8
0
 10
-29.1448
 20
-146.01
 11
-29.0765
 21
-145.773
  0
LINE
  8
0
 10
-29.0765
 20
-145.773
 11
-28.9821
 21
-145.545
  0
LINE
  8
0
 10
-28.9821
 20
-145.545
 11
-28.8628
 21
-145.33
  0
LINE
  8
0
 10
-28.8628
 20
-145.33
 11
-28.72
 21
-145.128
  0
LINE
  8
0
 10
-28.72
 20
-145.128
 11
-28.5556
 21
-144.944
  0
LINE
  8
0
 10
-28.5556
 20
-144.944
 11
-28.3717
 21
-144.78
  0
LINE
  8
0
 10
-28.3717
 20
-144.78
 11
-28.1705
 21
-144.637
  0
LINE
  8
0
 10
-28.1705
 20
-144.637
 11
-27.9545
 21
-144.518
  0
LINE
  8
0
 10
-27.9545
 20
-144.518
 11
-27.7266
 21
-144.423
  0
LINE
  8
0
 10
-27.7266
 20
-144.423
 11
-27.4895
 21
-144.355
  0
LINE
  8
0
 10
-27.4895
 20
-144.355
 11
-27.2463
 21
-144.314
  0
LINE
  8
0
 10
-27.2463
 20
-144.314
 11
-27
 21
-144.3
  0
LINE
  8
0
 10
-27
 20
-144.3
 11
-26.7537
 21
-144.314
  0
LINE
  8
0
 10
-26.7537
 20
-144.314
 11
-26.5105
 21
-144.355
  0
LINE
  8
0
 10
-26.5105
 20
-144.355
 11
-26.2734
 21
-144.423
  0
LINE
  8
0
 10
-26.2734
 20
-144.423
 11
-26.0455
 21
-144.518
  0
LINE
  8
0
 10
-26.0455
 20
-144.518
 11
-25.8295
 21
-144.637
  0
LINE
  8
0
 10
-25.8295
 20
-144.637
 11
-25.6283
 21
-144.78
  0
LINE
  8
0
 10
-25.6283
 20
-144.78
 11
-25.4444
 21
-144.944
  0
LINE
  8
0
 10
-25.4444
 20
-144.944
 11
-25.28
 21
-145.128
  0
LINE
  8
0
 10
-25.28
 20
-145.128
 11
-25.1372
 21
-145.33
  0
LINE
  8
0
 10
-25.1372
 20
-145.33
 11
-25.0179
 21
-145.545
  0
LINE
  8
0
 10
-25.0179
 20
-145.545
 11
-24.9234
 21
-145.773
  0
LINE
  8
0
 10
-24.9234
 20
-145.773
 11
-24.8551
 21
-146.01
  0
LINE
  8
0
 10
-24.8551
 20
-146.01
 11
-24.8138
 21
-146.254
  0
LINE
  8
0
 10
-24.8138
 20
-146.254
 11
-24.8
 21
-146.5
  0
LINE
  8
0
 10
-24.8
 20
-146.5
 11
-24.8138
 21
-146.746
  0
LINE
  8
0
 10
-24.8138
 20
-146.746
 11
-24.8551
 21
-146.99
  0
LINE
  8
0
 10
-24.8551
 20
-146.99
 11
-24.9234
 21
-147.227
  0
LINE
  8
0
 10
-24.9234
 20
-147.227
 11
-25.0179
 21
-147.455
  0
LINE
  8
0
 10
-25.0179
 20
-147.455
 11
-25.1372
 21
-147.67
  0
LINE
  8
0
 10
-25.1372
 20
-147.67
 11
-25.28
 21
-147.872
  0
LINE
  8
0
 10
-25.28
 20
-147.872
 11
-25.4444
 21
-148.056
  0
LINE
  8
0
 10
-25.4444
 20
-148.056
 11
-25.6283
 21
-148.22
  0
LINE
  8
0
 10
-25.6283
 20
-148.22
 11
-25.8295
 21
-148.363
  0
LINE
  8
0
 10
-25.8295
 20
-148.363
 11
-26.0455
 21
-148.482
  0
LINE
  8
0
 10
-26.0455
 20
-148.482
 11
-26.2734
 21
-148.577
  0
LINE
  8
0
 10
-26.2734
 20
-148.577
 11
-26.5105
 21
-148.645
  0
LINE
  8
0
 10
-26.5105
 20
-148.645
 11
-26.7537
 21
-148.686
  0
LINE
  8
0
 10
-26.7537
 20
-148.686
 11
-27
 21
-148.7
  0
LINE
  8
0
 10
-27
 20
-148.7
 11
-27.2463
 21
-148.686
  0
LINE
  8
0
 10
98.7569
 20
-176.879
 11
98.5212
 21
-176.816
  0
LINE
  8
0
 10
98.5212
 20
-176.816
 11
98.3
 21
-176.712
  0
LINE
  8
0
 10
98.3
 20
-176.712
 11
98.1001
 21
-176.572
  0
LINE
  8
0
 10
98.1001
 20
-176.572
 11
97.9275
 21
-176.4
  0
LINE
  8
0
 10
97.9275
 20
-176.4
 11
97.7876
 21
-176.2
  0
LINE
  8
0
 10
97.7876
 20
-176.2
 11
97.6844
 21
-175.979
  0
LINE
  8
0
 10
97.6844
 20
-175.979
 11
97.6213
 21
-175.743
  0
LINE
  8
0
 10
97.6213
 20
-175.743
 11
97.6
 21
-175.5
  0
LINE
  8
0
 10
97.6
 20
-175.5
 11
97.6213
 21
-175.257
  0
LINE
  8
0
 10
97.6213
 20
-175.257
 11
97.6844
 21
-175.021
  0
LINE
  8
0
 10
97.6844
 20
-175.021
 11
97.7876
 21
-174.8
  0
LINE
  8
0
 10
97.7876
 20
-174.8
 11
97.9275
 21
-174.6
  0
LINE
  8
0
 10
97.9275
 20
-174.6
 11
98.1001
 21
-174.428
  0
LINE
  8
0
 10
98.1001
 20
-174.428
 11
98.3
 21
-174.288
  0
LINE
  8
0
 10
98.3
 20
-174.288
 11
98.5212
 21
-174.184
  0
LINE
  8
0
 10
98.5212
 20
-174.184
 11
98.7569
 21
-174.121
  0
LINE
  8
0
 10
98.7569
 20
-174.121
 11
99
 21
-174.1
  0
LINE
  8
0
 10
99
 20
-174.1
 11
99.2431
 21
-174.121
  0
LINE
  8
0
 10
99.2431
 20
-174.121
 11
99.4788
 21
-174.184
  0
LINE
  8
0
 10
99.4788
 20
-174.184
 11
99.7
 21
-174.288
  0
LINE
  8
0
 10
99.7
 20
-174.288
 11
99.8999
 21
-174.428
  0
LINE
  8
0
 10
99.8999
 20
-174.428
 11
100.072
 21
-174.6
  0
LINE
  8
0
 10
100.072
 20
-174.6
 11
100.212
 21
-174.8
  0
LINE
  8
0
 10
100.212
 20
-174.8
 11
100.316
 21
-175.021
  0
LINE
  8
0
 10
100.316
 20
-175.021
 11
100.379
 21
-175.257
  0
LINE
  8
0
 10
100.379
 20
-175.257
 11
100.4
 21
-175.5
  0
LINE
  8
0
 10
100.4
 20
-175.5
 11
100.379
 21
-175.743
  0
LINE
  8
0
 10
100.379
 20
-175.743
 11
100.316
 21
-175.979
  0
LINE
  8
0
 10
100.316
 20
-175.979
 11
100.212
 21
-176.2
  0
LINE
  8
0
 10
100.212
 20
-176.2
 11
100.072
 21
-176.4
  0
LINE
  8
0
 10
100.072
 20
-176.4
 11
99.8999
 21
-176.572
  0
LINE
  8
0
 10
99.8999
 20
-176.572
 11
99.7
 21
-176.712
  0
LINE
  8
0
 10
99.7
 20
-176.712
 11
99.4788
 21
-176.816
  0
LINE
  8
0
 10
99.4788
 20
-176.816
 11
99.2431
 21
-176.879
  0
LINE
  8
0
 10
99.2431
 20
-176.879
 11
99
 21
-176.9
  0
LINE
  8
0
 10
99
 20
-176.9
 11
98.7569
 21
-176.879
  0
LINE
  8
0
 10
40.7569
 20
-176.879
 11
40.5212
 21
-176.816
  0
LINE
  8
0
 10
40.5212
 20
-176.816
 11
40.3
 21
-176.712
  0
LINE
  8
0
 10
40.3
 20
-176.712
 11
40.1001
 21
-176.572
  0
LINE
  8
0
 10
40.1001
 20
-176.572
 11
39.9275
 21
-176.4
  0
LINE
  8
0
 10
39.9275
 20
-176.4
 11
39.7876
 21
-176.2
  0
LINE
  8
0
 10
39.7876
 20
-176.2
 11
39.6844
 21
-175.979
  0
LINE
  8
0
 10
39.6844
 20
-175.979
 11
39.6213
 21
-175.743
  0
LINE
  8
0
 10
39.6213
 20
-175.743
 11
39.6
 21
-175.5
  0
LINE
  8
0
 10
39.6
 20
-175.5
 11
39.6213
 21
-175.257
  0
LINE
  8
0
 10
39.6213
 20
-175.257
 11
39.6844
 21
-175.021
  0
LINE
  8
0
 10
39.6844
 20
-175.021
 11
39.7876
 21
-174.8
  0
LINE
  8
0
 10
39.7876
 20
-174.8
 11
39.9275
 21
-174.6
  0
LINE
  8
0
 10
39.9275
 20
-174.6
 11
40.1001
 21
-174.428
  0
LINE
  8
0
 10
40.1001
 20
-174.428
 11
40.3
 21
-174.288
  0
LINE
  8
0
 10
40.3
 20
-174.288
 11
40.5212
 21
-174.184
  0
LINE
  8
0
 10
40.5212
 20
-174.184
 11
40.7569
 21
-174.121
  0
LINE
  8
0
 10
40.7569
 20
-174.121
 11
41
 21
-174.1
  0
LINE
  8
0
 10
41
 20
-174.1
 11
41.2431
 21
-174.121
  0
LINE
  8
0
 10
41.2431
 20
-174.121
 11
41.4788
 21
-174.184
  0
LINE
  8
0
 10
41.4788
 20
-174.184
 11
41.7
 21
-174.288
  0
LINE
  8
0
 10
41.7
 20
-174.288
 11
41.8999
 21
-174.428
  0
LINE
  8
0
 10
41.8999
 20
-174.428
 11
42.0725
 21
-174.6
  0
LINE
  8
0
 10
42.0725
 20
-174.6
 11
42.2124
 21
-174.8
  0
LINE
  8
0
 10
42.2124
 20
-174.8
 11
42.3156
 21
-175.021
  0
LINE
  8
0
 10
42.3156
 20
-175.021
 11
42.3787
 21
-175.257
  0
LINE
  8
0
 10
42.3787
 20
-175.257
 11
42.4
 21
-175.5
  0
LINE
  8
0
 10
42.4
 20
-175.5
 11
42.3787
 21
-175.743
  0
LINE
  8
0
 10
42.3787
 20
-175.743
 11
42.3156
 21
-175.979
  0
LINE
  8
0
 10
42.3156
 20
-175.979
 11
42.2124
 21
-176.2
  0
LINE
  8
0
 10
42.2124
 20
-176.2
 11
42.0725
 21
-176.4
  0
LINE
  8
0
 10
42.0725
 20
-176.4
 11
41.8999
 21
-176.572
  0
LINE
  8
0
 10
41.8999
 20
-176.572
 11
41.7
 21
-176.712
  0
LINE
  8
0
 10
41.7
 20
-176.712
 11
41.4788
 21
-176.816
  0
LINE
  8
0
 10
41.4788
 20
-176.816
 11
41.2431
 21
-176.879
  0
LINE
  8
0
 10
41.2431
 20
-176.879
 11
41
 21
-176.9
  0
LINE
  8
0
 10
41
 20
-176.9
 11
40.7569
 21
-176.879
  0
LINE
  8
0
 10
-222.809
 20
-179.729
 11
-223.052
 21
-179.681
  0
LINE
  8
0
 10
-223.052
 20
-179.681
 11
-223.289
 21
-179.607
  0
LINE
  8
0
 10
-223.289
 20
-179.607
 11
-223.516
 21
-179.508
  0
LINE
  8
0
 10
-223.516
 20
-179.508
 11
-223.731
 21
-179.384
  0
LINE
  8
0
 10
-223.731
 20
-179.384
 11
-223.93
 21
-179.237
  0
LINE
  8
0
 10
-223.93
 20
-179.237
 11
-224.113
 21
-179.069
  0
LINE
  8
0
 10
-224.113
 20
-179.069
 11
-224.276
 21
-178.882
  0
LINE
  8
0
 10
-224.276
 20
-178.882
 11
-224.417
 21
-178.678
  0
LINE
  8
0
 10
-224.417
 20
-178.678
 11
-224.535
 21
-178.46
  0
LINE
  8
0
 10
-224.535
 20
-178.46
 11
-224.628
 21
-178.231
  0
LINE
  8
0
 10
-224.628
 20
-178.231
 11
-224.696
 21
-177.992
  0
LINE
  8
0
 10
-224.696
 20
-177.992
 11
-224.736
 21
-177.748
  0
LINE
  8
0
 10
-224.736
 20
-177.748
 11
-224.75
 21
-177.5
  0
LINE
  8
0
 10
-224.75
 20
-177.5
 11
-224.736
 21
-177.252
  0
LINE
  8
0
 10
-224.736
 20
-177.252
 11
-224.696
 21
-177.008
  0
LINE
  8
0
 10
-224.696
 20
-177.008
 11
-224.628
 21
-176.769
  0
LINE
  8
0
 10
-224.628
 20
-176.769
 11
-224.535
 21
-176.54
  0
LINE
  8
0
 10
-224.535
 20
-176.54
 11
-224.417
 21
-176.322
  0
LINE
  8
0
 10
-224.417
 20
-176.322
 11
-224.276
 21
-176.118
  0
LINE
  8
0
 10
-224.276
 20
-176.118
 11
-224.113
 21
-175.931
  0
LINE
  8
0
 10
-224.113
 20
-175.931
 11
-223.93
 21
-175.763
  0
LINE
  8
0
 10
-223.93
 20
-175.763
 11
-223.731
 21
-175.616
  0
LINE
  8
0
 10
-223.731
 20
-175.616
 11
-223.516
 21
-175.492
  0
LINE
  8
0
 10
-223.516
 20
-175.492
 11
-223.289
 21
-175.393
  0
LINE
  8
0
 10
-223.289
 20
-175.393
 11
-223.052
 21
-175.319
  0
LINE
  8
0
 10
-223.052
 20
-175.319
 11
-222.809
 21
-175.271
  0
LINE
  8
0
 10
-222.809
 20
-175.271
 11
-222.562
 21
-175.251
  0
LINE
  8
0
 10
-222.562
 20
-175.251
 11
-222.314
 21
-175.258
  0
LINE
  8
0
 10
-222.314
 20
-175.258
 11
-222.069
 21
-175.292
  0
LINE
  8
0
 10
-222.069
 20
-175.292
 11
-221.828
 21
-175.353
  0
LINE
  8
0
 10
-221.828
 20
-175.353
 11
-221.596
 21
-175.44
  0
LINE
  8
0
 10
-221.596
 20
-175.44
 11
-221.375
 21
-175.551
  0
LINE
  8
0
 10
-221.375
 20
-175.551
 11
-221.167
 21
-175.687
  0
LINE
  8
0
 10
-221.167
 20
-175.687
 11
-220.976
 21
-175.845
  0
LINE
  8
0
 10
-220.976
 20
-175.845
 11
-220.803
 21
-176.022
  0
LINE
  8
0
 10
-220.803
 20
-176.022
 11
-220.651
 21
-176.218
  0
LINE
  8
0
 10
-220.651
 20
-176.218
 11
-220.521
 21
-176.429
  0
LINE
  8
0
 10
-220.521
 20
-176.429
 11
-220.415
 21
-176.653
  0
LINE
  8
0
 10
-220.415
 20
-176.653
 11
-220.335
 21
-176.888
  0
LINE
  8
0
 10
-220.335
 20
-176.888
 11
-220.281
 21
-177.13
  0
LINE
  8
0
 10
-220.281
 20
-177.13
 11
-220.253
 21
-177.376
  0
LINE
  8
0
 10
-220.253
 20
-177.376
 11
-220.253
 21
-177.624
  0
LINE
  8
0
 10
-220.253
 20
-177.624
 11
-220.281
 21
-177.87
  0
LINE
  8
0
 10
-220.281
 20
-177.87
 11
-220.335
 21
-178.112
  0
LINE
  8
0
 10
-220.335
 20
-178.112
 11
-220.415
 21
-178.347
  0
LINE
  8
0
 10
-220.415
 20
-178.347
 11
-220.521
 21
-178.571
  0
LINE
  8
0
 10
-220.521
 20
-178.571
 11
-220.651
 21
-178.782
  0
LINE
  8
0
 10
-220.651
 20
-178.782
 11
-220.803
 21
-178.978
  0
LINE
  8
0
 10
-220.803
 20
-178.978
 11
-220.976
 21
-179.155
  0
LINE
  8
0
 10
-220.976
 20
-179.155
 11
-221.167
 21
-179.313
  0
LINE
  8
0
 10
-221.167
 20
-179.313
 11
-221.375
 21
-179.449
  0
LINE
  8
0
 10
-221.375
 20
-179.449
 11
-221.596
 21
-179.56
  0
LINE
  8
0
 10
-221.596
 20
-179.56
 11
-221.828
 21
-179.647
  0
LINE
  8
0
 10
-221.828
 20
-179.647
 11
-222.069
 21
-179.708
  0
LINE
  8
0
 10
-222.069
 20
-179.708
 11
-222.314
 21
-179.742
  0
LINE
  8
0
 10
-222.314
 20
-179.742
 11
-222.562
 21
-179.749
  0
LINE
  8
0
 10
-222.562
 20
-179.749
 11
-222.809
 21
-179.729
  0
LINE
  8
0
 10
222.314
 20
-179.742
 11
222.069
 21
-179.708
  0
LINE
  8
0
 10
222.069
 20
-179.708
 11
221.828
 21
-179.647
  0
LINE
  8
0
 10
221.828
 20
-179.647
 11
221.596
 21
-179.56
  0
LINE
  8
0
 10
221.596
 20
-179.56
 11
221.375
 21
-179.449
  0
LINE
  8
0
 10
221.375
 20
-179.449
 11
221.167
 21
-179.313
  0
LINE
  8
0
 10
221.167
 20
-179.313
 11
220.976
 21
-179.155
  0
LINE
  8
0
 10
220.976
 20
-179.155
 11
220.803
 21
-178.978
  0
LINE
  8
0
 10
220.803
 20
-178.978
 11
220.651
 21
-178.782
  0
LINE
  8
0
 10
220.651
 20
-178.782
 11
220.521
 21
-178.571
  0
LINE
  8
0
 10
220.521
 20
-178.571
 11
220.415
 21
-178.347
  0
LINE
  8
0
 10
220.415
 20
-178.347
 11
220.335
 21
-178.112
  0
LINE
  8
0
 10
220.335
 20
-178.112
 11
220.281
 21
-177.87
  0
LINE
  8
0
 10
220.281
 20
-177.87
 11
220.253
 21
-177.624
  0
LINE
  8
0
 10
220.253
 20
-177.624
 11
220.253
 21
-177.376
  0
LINE
  8
0
 10
220.253
 20
-177.376
 11
220.281
 21
-177.13
  0
LINE
  8
0
 10
220.281
 20
-177.13
 11
220.335
 21
-176.888
  0
LINE
  8
0
 10
220.335
 20
-176.888
 11
220.415
 21
-176.653
  0
LINE
  8
0
 10
220.415
 20
-176.653
 11
220.521
 21
-176.429
  0
LINE
  8
0
 10
220.521
 20
-176.429
 11
220.651
 21
-176.218
  0
LINE
  8
0
 10
220.651
 20
-176.218
 11
220.803
 21
-176.022
  0
LINE
  8
0
 10
220.803
 20
-176.022
 11
220.976
 21
-175.845
  0
LINE
  8
0
 10
220.976
 20
-175.845
 11
221.167
 21
-175.687
  0
LINE
  8
0
 10
221.167
 20
-175.687
 11
221.375
 21
-175.551
  0
LINE
  8
0
 10
221.375
 20
-175.551
 11
221.596
 21
-175.44
  0
LINE
  8
0
 10
221.596
 20
-175.44
 11
221.828
 21
-175.353
  0
LINE
  8
0
 10
221.828
 20
-175.353
 11
222.069
 21
-175.292
  0
LINE
  8
0
 10
222.069
 20
-175.292
 11
222.314
 21
-175.258
  0
LINE
  8
0
 10
222.314
 20
-175.258
 11
222.562
 21
-175.251
  0
LINE
  8
0
 10
222.562
 20
-175.251
 11
222.809
 21
-175.271
  0
LINE
  8
0
 10
222.809
 20
-175.271
 11
223.052
 21
-175.319
  0
LINE
  8
0
 10
223.052
 20
-175.319
 11
223.289
 21
-175.393
  0
LINE
  8
0
 10
223.289
 20
-175.393
 11
223.516
 21
-175.492
  0
LINE
  8
0
 10
223.516
 20
-175.492
 11
223.731
 21
-175.616
  0
LINE
  8
0
 10
223.731
 20
-175.616
 11
223.93
 21
-175.763
  0
LINE
  8
0
 10
223.93
 20
-175.763
 11
224.113
 21
-175.931
  0
LINE
  8
0
 10
224.113
 20
-175.931
 11
224.276
 21
-176.118
  0
LINE
  8
0
 10
224.276
 20
-176.118
 11
224.417
 21
-176.322
  0
LINE
  8
0
 10
224.417
 20
-176.322
 11
224.535
 21
-176.54
  0
LINE
  8
0
 10
224.535
 20
-176.54
 11
224.628
 21
-176.769
  0
LINE
  8
0
 10
224.628
 20
-176.769
 11
224.696
 21
-177.008
  0
LINE
  8
0
 10
224.696
 20
-177.008
 11
224.736
 21
-177.252
  0
LINE
  8
0
 10
224.736
 20
-177.252
 11
224.75
 21
-177.5
  0
LINE
  8
0
 10
224.75
 20
-177.5
 11
224.736
 21
-177.748
  0
LINE
  8
0
 10
224.736
 20
-177.748
 11
224.696
 21
-177.992
  0
LINE
  8
0
 10
224.696
 20
-177.992
 11
224.628
 21
-178.231
  0
LINE
  8
0
 10
224.628
 20
-178.231
 11
224.535
 21
-178.46
  0
LINE
  8
0
 10
224.535
 20
-178.46
 11
224.417
 21
-178.678
  0
LINE
  8
0
 10
224.417
 20
-178.678
 11
224.276
 21
-178.882
  0
LINE
  8
0
 10
224.276
 20
-178.882
 11
224.113
 21
-179.069
  0
LINE
  8
0
 10
224.113
 20
-179.069
 11
223.93
 21
-179.237
  0
LINE
  8
0
 10
223.93
 20
-179.237
 11
223.731
 21
-179.384
  0
LINE
  8
0
 10
223.731
 20
-179.384
 11
223.516
 21
-179.508
  0
LINE
  8
0
 10
223.516
 20
-179.508
 11
223.289
 21
-179.607
  0
LINE
  8
0
 10
223.289
 20
-179.607
 11
223.052
 21
-179.681
  0
LINE
  8
0
 10
223.052
 20
-179.681
 11
222.809
 21
-179.729
  0
LINE
  8
0
 10
222.809
 20
-179.729
 11
222.562
 21
-179.749
  0
LINE
  8
0
 10
222.562
 20
-179.749
 11
222.314
 21
-179.742
  0
LINE
  8
0
 10
185.376
 20
-181.995
 11
185.132
 21
-181.954
  0
LINE
  8
0
 10
185.132
 20
-181.954
 11
184.897
 21
-181.874
  0
LINE
  8
0
 10
184.897
 20
-181.874
 11
184.68
 21
-181.756
  0
LINE
  8
0
 10
184.68
 20
-181.756
 11
184.484
 21
-181.604
  0
LINE
  8
0
 10
184.484
 20
-181.604
 11
184.316
 21
-181.421
  0
LINE
  8
0
 10
184.316
 20
-181.421
 11
184.181
 21
-181.214
  0
LINE
  8
0
 10
184.181
 20
-181.214
 11
184.081
 21
-180.987
  0
LINE
  8
0
 10
184.081
 20
-180.987
 11
184.02
 21
-180.747
  0
LINE
  8
0
 10
184.02
 20
-180.747
 11
184
 21
-180.5
  0
LINE
  8
0
 10
184
 20
-180.5
 11
184.02
 21
-180.253
  0
LINE
  8
0
 10
184.02
 20
-180.253
 11
184.081
 21
-180.013
  0
LINE
  8
0
 10
184.081
 20
-180.013
 11
184.181
 21
-179.786
  0
LINE
  8
0
 10
184.181
 20
-179.786
 11
184.316
 21
-179.579
  0
LINE
  8
0
 10
184.316
 20
-179.579
 11
184.484
 21
-179.396
  0
LINE
  8
0
 10
184.484
 20
-179.396
 11
184.68
 21
-179.244
  0
LINE
  8
0
 10
184.68
 20
-179.244
 11
184.897
 21
-179.126
  0
LINE
  8
0
 10
184.897
 20
-179.126
 11
185.132
 21
-179.046
  0
LINE
  8
0
 10
185.132
 20
-179.046
 11
185.376
 21
-179.005
  0
LINE
  8
0
 10
185.376
 20
-179.005
 11
185.624
 21
-179.005
  0
LINE
  8
0
 10
185.624
 20
-179.005
 11
185.868
 21
-179.046
  0
LINE
  8
0
 10
185.868
 20
-179.046
 11
186.103
 21
-179.126
  0
LINE
  8
0
 10
186.103
 20
-179.126
 11
186.32
 21
-179.244
  0
LINE
  8
0
 10
186.32
 20
-179.244
 11
186.516
 21
-179.396
  0
LINE
  8
0
 10
186.516
 20
-179.396
 11
186.684
 21
-179.579
  0
LINE
  8
0
 10
186.684
 20
-179.579
 11
186.819
 21
-179.786
  0
LINE
  8
0
 10
186.819
 20
-179.786
 11
186.919
 21
-180.013
  0
LINE
  8
0
 10
186.919
 20
-180.013
 11
186.98
 21
-180.253
  0
LINE
  8
0
 10
186.98
 20
-180.253
 11
187
 21
-180.5
  0
LINE
  8
0
 10
187
 20
-180.5
 11
186.98
 21
-180.747
  0
LINE
  8
0
 10
186.98
 20
-180.747
 11
186.919
 21
-180.987
  0
LINE
  8
0
 10
186.919
 20
-180.987
 11
186.819
 21
-181.214
  0
LINE
  8
0
 10
186.819
 20
-181.214
 11
186.684
 21
-181.421
  0
LINE
  8
0
 10
186.684
 20
-181.421
 11
186.516
 21
-181.604
  0
LINE
  8
0
 10
186.516
 20
-181.604
 11
186.32
 21
-181.756
  0
LINE
  8
0
 10
186.32
 20
-181.756
 11
186.103
 21
-181.874
  0
LINE
  8
0
 10
186.103
 20
-181.874
 11
185.868
 21
-181.954
  0
LINE
  8
0
 10
185.868
 20
-181.954
 11
185.624
 21
-181.995
  0
LINE
  8
0
 10
185.624
 20
-181.995
 11
185.376
 21
-181.995
  0
LINE
  8
0
 10
-185.624
 20
-181.995
 11
-185.868
 21
-181.954
  0
LINE
  8
0
 10
-185.868
 20
-181.954
 11
-186.103
 21
-181.874
  0
LINE
  8
0
 10
-186.103
 20
-181.874
 11
-186.32
 21
-181.756
  0
LINE
  8
0
 10
-186.32
 20
-181.756
 11
-186.516
 21
-181.604
  0
LINE
  8
0
 10
-186.516
 20
-181.604
 11
-186.684
 21
-181.421
  0
LINE
  8
0
 10
-186.684
 20
-181.421
 11
-186.819
 21
-181.214
  0
LINE
  8
0
 10
-186.819
 20
-181.214
 11
-186.919
 21
-180.987
  0
LINE
  8
0
 10
-186.919
 20
-180.987
 11
-186.98
 21
-180.747
  0
LINE
  8
0
 10
-186.98
 20
-180.747
 11
-187
 21
-180.5
  0
LINE
  8
0
 10
-187
 20
-180.5
 11
-186.98
 21
-180.253
  0
LINE
  8
0
 10
-186.98
 20
-180.253
 11
-186.919
 21
-180.013
  0
LINE
  8
0
 10
-186.919
 20
-180.013
 11
-186.819
 21
-179.786
  0
LINE
  8
0
 10
-186.819
 20
-179.786
 11
-186.684
 21
-179.579
  0
LINE
  8
0
 10
-186.684
 20
-179.579
 11
-186.516
 21
-179.396
  0
LINE
  8
0
 10
-186.516
 20
-179.396
 11
-186.32
 21
-179.244
  0
LINE
  8
0
 10
-186.32
 20
-179.244
 11
-186.103
 21
-179.126
  0
LINE
  8
0
 10
-186.103
 20
-179.126
 11
-185.868
 21
-179.046
  0
LINE
  8
0
 10
-185.868
 20
-179.046
 11
-185.624
 21
-179.005
  0
LINE
  8
0
 10
-185.624
 20
-179.005
 11
-185.376
 21
-179.005
  0
LINE
  8
0
 10
-185.376
 20
-179.005
 11
-185.132
 21
-179.046
  0
LINE
  8
0
 10
-185.132
 20
-179.046
 11
-184.897
 21
-179.126
  0
LINE
  8
0
 10
-184.897
 20
-179.126
 11
-184.68
 21
-179.244
  0
LINE
  8
0
 10
-184.68
 20
-179.244
 11
-184.484
 21
-179.396
  0
LINE
  8
0
 10
-184.484
 20
-179.396
 11
-184.316
 21
-179.579
  0
LINE
  8
0
 10
-184.316
 20
-179.579
 11
-184.181
 21
-179.786
  0
LINE
  8
0
 10
-184.181
 20
-179.786
 11
-184.081
 21
-180.013
  0
LINE
  8
0
 10
-184.081
 20
-180.013
 11
-184.02
 21
-180.253
  0
LINE
  8
0
 10
-184.02
 20
-180.253
 11
-184
 21
-180.5
  0
LINE
  8
0
 10
-184
 20
-180.5
 11
-184.02
 21
-180.747
  0
LINE
  8
0
 10
-184.02
 20
-180.747
 11
-184.081
 21
-180.987
  0
LINE
  8
0
 10
-184.081
 20
-180.987
 11
-184.181
 21
-181.214
  0
LINE
  8
0
 10
-184.181
 20
-181.214
 11
-184.316
 21
-181.421
  0
LINE
  8
0
 10
-184.316
 20
-181.421
 11
-184.484
 21
-181.604
  0
LINE
  8
0
 10
-184.484
 20
-181.604
 11
-184.68
 21
-181.756
  0
LINE
  8
0
 10
-184.68
 20
-181.756
 11
-184.897
 21
-181.874
  0
LINE
  8
0
 10
-184.897
 20
-181.874
 11
-185.132
 21
-181.954
  0
LINE
  8
0
 10
-185.132
 20
-181.954
 11
-185.376
 21
-181.995
  0
LINE
  8
0
 10
-185.376
 20
-181.995
 11
-185.624
 21
-181.995
  0
LINE
  8
0
 10
-223.023
 20
-222.473
 11
-223.54
 21
-222.391
  0
LINE
  8
0
 10
-223.54
 20
-222.391
 11
-224.045
 21
-222.255
  0
LINE
  8
0
 10
-224.045
 20
-222.255
 11
-224.534
 21
-222.068
  0
LINE
  8
0
 10
-224.534
 20
-222.068
 11
-225
 21
-221.83
  0
LINE
  8
0
 10
-225
 20
-221.83
 11
-225.439
 21
-221.545
  0
LINE
  8
0
 10
-225.439
 20
-221.545
 11
-225.846
 21
-221.216
  0
LINE
  8
0
 10
-225.846
 20
-221.216
 11
-226.216
 21
-220.846
  0
LINE
  8
0
 10
-226.216
 20
-220.846
 11
-226.545
 21
-220.439
  0
LINE
  8
0
 10
-226.545
 20
-220.439
 11
-226.83
 21
-220
  0
LINE
  8
0
 10
-226.83
 20
-220
 11
-227.068
 21
-219.534
  0
LINE
  8
0
 10
-227.068
 20
-219.534
 11
-227.255
 21
-219.045
  0
LINE
  8
0
 10
-227.255
 20
-219.045
 11
-227.391
 21
-218.54
  0
LINE
  8
0
 10
-227.391
 20
-218.54
 11
-227.473
 21
-218.023
  0
LINE
  8
0
 10
-227.473
 20
-218.023
 11
-227.5
 21
-217.5
  0
LINE
  8
0
 10
-227.5
 20
-217.5
 11
-227.473
 21
-216.977
  0
LINE
  8
0
 10
-227.473
 20
-216.977
 11
-227.391
 21
-216.46
  0
LINE
  8
0
 10
-227.391
 20
-216.46
 11
-227.255
 21
-215.955
  0
LINE
  8
0
 10
-227.255
 20
-215.955
 11
-227.068
 21
-215.466
  0
LINE
  8
0
 10
-227.068
 20
-215.466
 11
-226.83
 21
-215
  0
LINE
  8
0
 10
-226.83
 20
-215
 11
-226.545
 21
-214.561
  0
LINE
  8
0
 10
-226.545
 20
-214.561
 11
-226.216
 21
-214.154
  0
LINE
  8
0
 10
-226.216
 20
-214.154
 11
-225.846
 21
-213.784
  0
LINE
  8
0
 10
-225.846
 20
-213.784
 11
-225.439
 21
-213.455
  0
LINE
  8
0
 10
-225.439
 20
-213.455
 11
-225
 21
-213.17
  0
LINE
  8
0
 10
-225
 20
-213.17
 11
-224.534
 21
-212.932
  0
LINE
  8
0
 10
-224.534
 20
-212.932
 11
-224.045
 21
-212.745
  0
LINE
  8
0
 10
-224.045
 20
-212.745
 11
-223.54
 21
-212.609
  0
LINE
  8
0
 10
-223.54
 20
-212.609
 11
-223.023
 21
-212.527
  0
LINE
  8
0
 10
-223.023
 20
-212.527
 11
-222.5
 21
-212.5
  0
LINE
  8
0
 10
-222.5
 20
-212.5
 11
-221.977
 21
-212.527
  0
LINE
  8
0
 10
-221.977
 20
-212.527
 11
-221.46
 21
-212.609
  0
LINE
  8
0
 10
-221.46
 20
-212.609
 11
-220.955
 21
-212.745
  0
LINE
  8
0
 10
-220.955
 20
-212.745
 11
-220.466
 21
-212.932
  0
LINE
  8
0
 10
-220.466
 20
-212.932
 11
-220
 21
-213.17
  0
LINE
  8
0
 10
-220
 20
-213.17
 11
-219.561
 21
-213.455
  0
LINE
  8
0
 10
-219.561
 20
-213.455
 11
-219.154
 21
-213.784
  0
LINE
  8
0
 10
-219.154
 20
-213.784
 11
-218.784
 21
-214.154
  0
LINE
  8
0
 10
-218.784
 20
-214.154
 11
-218.455
 21
-214.561
  0
LINE
  8
0
 10
-218.455
 20
-214.561
 11
-218.17
 21
-215
  0
LINE
  8
0
 10
-218.17
 20
-215
 11
-217.932
 21
-215.466
  0
LINE
  8
0
 10
-217.932
 20
-215.466
 11
-217.745
 21
-215.955
  0
LINE
  8
0
 10
-217.745
 20
-215.955
 11
-217.609
 21
-216.46
  0
LINE
  8
0
 10
-217.609
 20
-216.46
 11
-217.527
 21
-216.977
  0
LINE
  8
0
 10
-217.527
 20
-216.977
 11
-217.5
 21
-217.5
  0
LINE
  8
0
 10
-217.5
 20
-217.5
 11
-217.527
 21
-218.023
  0
LINE
  8
0
 10
-217.527
 20
-218.023
 11
-217.609
 21
-218.54
  0
LINE
  8
0
 10
-217.609
 20
-218.54
 11
-217.745
 21
-219.045
  0
LINE
  8
0
 10
-217.745
 20
-219.045
 11
-217.932
 21
-219.534
  0
LINE
  8
0
 10
-217.932
 20
-219.534
 11
-218.17
 21
-220
  0
LINE
  8
0
 10
-218.17
 20
-220
 11
-218.455
 21
-220.439
  0
LINE
  8
0
 10
-218.455
 20
-220.439
 11
-218.784
 21
-220.846
  0
LINE
  8
0
 10
-218.784
 20
-220.846
 11
-219.154
 21
-221.216
  0
LINE
  8
0
 10
-219.154
 20
-221.216
 11
-219.561
 21
-221.545
  0
LINE
  8
0
 10
-219.561
 20
-221.545
 11
-220
 21
-221.83
  0
LINE
  8
0
 10
-220
 20
-221.83
 11
-220.466
 21
-222.068
  0
LINE
  8
0
 10
-220.466
 20
-222.068
 11
-220.955
 21
-222.255
  0
LINE
  8
0
 10
-220.955
 20
-222.255
 11
-221.46
 21
-222.391
  0
LINE
  8
0
 10
-221.46
 20
-222.391
 11
-221.977
 21
-222.473
  0
LINE
  8
0
 10
-221.977
 20
-222.473
 11
-222.5
 21
-222.5
  0
LINE
  8
0
 10
-222.5
 20
-222.5
 11
-223.023
 21
-222.473
  0
LINE
  8
0
 10
221.977
 20
-222.473
 11
221.46
 21
-222.391
  0
LINE
  8
0
 10
221.46
 20
-222.391
 11
220.955
 21
-222.255
  0
LINE
  8
0
 10
220.955
 20
-222.255
 11
220.466
 21
-222.068
  0
LINE
  8
0
 10
220.466
 20
-222.068
 11
220
 21
-221.83
  0
LINE
  8
0
 10
220
 20
-221.83
 11
219.561
 21
-221.545
  0
LINE
  8
0
 10
219.561
 20
-221.545
 11
219.154
 21
-221.216
  0
LINE
  8
0
 10
219.154
 20
-221.216
 11
218.784
 21
-220.846
  0
LINE
  8
0
 10
218.784
 20
-220.846
 11
218.455
 21
-220.439
  0
LINE
  8
0
 10
218.455
 20
-220.439
 11
218.17
 21
-220
  0
LINE
  8
0
 10
218.17
 20
-220
 11
217.932
 21
-219.534
  0
LINE
  8
0
 10
217.932
 20
-219.534
 11
217.745
 21
-219.045
  0
LINE
  8
0
 10
217.745
 20
-219.045
 11
217.609
 21
-218.54
  0
LINE
  8
0
 10
217.609
 20
-218.54
 11
217.527
 21
-218.023
  0
LINE
  8
0
 10
217.527
 20
-218.023
 11
217.5
 21
-217.5
  0
LINE
  8
0
 10
217.5
 20
-217.5
 11
217.527
 21
-216.977
  0
LINE
  8
0
 10
217.527
 20
-216.977
 11
217.609
 21
-216.46
  0
LINE
  8
0
 10
217.609
 20
-216.46
 11
217.745
 21
-215.955
  0
LINE
  8
0
 10
217.745
 20
-215.955
 11
217.932
 21
-215.466
  0
LINE
  8
0
 10
217.932
 20
-215.466
 11
218.17
 21
-215
  0
LINE
  8
0
 10
218.17
 20
-215
 11
218.455
 21
-214.561
  0
LINE
  8
0
 10
218.455
 20
-214.561
 11
218.784
 21
-214.154
  0
LINE
  8
0
 10
218.784
 20
-214.154
 11
219.154
 21
-213.784
  0
LINE
  8
0
 10
219.154
 20
-213.784
 11
219.561
 21
-213.455
  0
LINE
  8
0
 10
219.561
 20
-213.455
 11
220
 21
-213.17
  0
LINE
  8
0
 10
220
 20
-213.17
 11
220.466
 21
-212.932
  0
LINE
  8
0
 10
220.466
 20
-212.932
 11
220.955
 21
-212.745
  0
LINE
  8
0
 10
220.955
 20
-212.745
 11
221.46
 21
-212.609
  0
LINE
  8
0
 10
221.46
 20
-212.609
 11
221.977
 21
-212.527
  0
LINE
  8
0
 10
221.977
 20
-212.527
 11
222.5
 21
-212.5
  0
LINE
  8
0
 10
222.5
 20
-212.5
 11
223.023
 21
-212.527
  0
LINE
  8
0
 10
223.023
 20
-212.527
 11
223.54
 21
-212.609
  0
LINE
  8
0
 10
223.54
 20
-212.609
 11
224.045
 21
-212.745
  0
LINE
  8
0
 10
224.045
 20
-212.745
 11
224.534
 21
-212.932
  0
LINE
  8
0
 10
224.534
 20
-212.932
 11
225
 21
-213.17
  0
LINE
  8
0
 10
225
 20
-213.17
 11
225.439
 21
-213.455
  0
LINE
  8
0
 10
225.439
 20
-213.455
 11
225.846
 21
-213.784
  0
LINE
  8
0
 10
225.846
 20
-213.784
 11
226.216
 21
-214.154
  0
LINE
  8
0
 10
226.216
 20
-214.154
 11
226.545
 21
-214.561
  0
LINE
  8
0
 10
226.545
 20
-214.561
 11
226.83
 21
-215
  0
LINE
  8
0
 10
226.83
 20
-215
 11
227.068
 21
-215.466
  0
LINE
  8
0
 10
227.068
 20
-215.466
 11
227.255
 21
-215.955
  0
LINE
  8
0
 10
227.255
 20
-215.955
 11
227.391
 21
-216.46
  0
LINE
  8
0
 10
227.391
 20
-216.46
 11
227.473
 21
-216.977
  0
LINE
  8
0
 10
227.473
 20
-216.977
 11
227.5
 21
-217.5
  0
LINE
  8
0
 10
227.5
 20
-217.5
 11
227.473
 21
-218.023
  0
LINE
  8
0
 10
227.473
 20
-218.023
 11
227.391
 21
-218.54
  0
LINE
  8
0
 10
227.391
 20
-218.54
 11
227.255
 21
-219.045
  0
LINE
  8
0
 10
227.255
 20
-219.045
 11
227.068
 21
-219.534
  0
LINE
  8
0
 10
227.068
 20
-219.534
 11
226.83
 21
-220
  0
LINE
  8
0
 10
226.83
 20
-220
 11
226.545
 21
-220.439
  0
LINE
  8
0
 10
226.545
 20
-220.439
 11
226.216
 21
-220.846
  0
LINE
  8
0
 10
226.216
 20
-220.846
 11
225.846
 21
-221.216
  0
LINE
  8
0
 10
225.846
 20
-221.216
 11
225.439
 21
-221.545
  0
LINE
  8
0
 10
225.439
 20
-221.545
 11
225
 21
-221.83
  0
LINE
  8
0
 10
225
 20
-221.83
 11
224.534
 21
-222.068
  0
LINE
  8
0
 10
224.534
 20
-222.068
 11
224.045
 21
-222.255
  0
LINE
  8
0
 10
224.045
 20
-222.255
 11
223.54
 21
-222.391
  0
LINE
  8
0
 10
223.54
 20
-222.391
 11
223.023
 21
-222.473
  0
LINE
  8
0
 10
223.023
 20
-222.473
 11
222.5
 21
-222.5
  0
LINE
  8
0
 10
222.5
 20
-222.5
 11
221.977
 21
-222.473
  0
LINE
  8
0
 10
-182.686
 20
-219.742
 11
-182.931
 21
-219.708
  0
LINE
  8
0
 10
-182.931
 20
-219.708
 11
-183.172
 21
-219.647
  0
LINE
  8
0
 10
-183.172
 20
-219.647
 11
-183.404
 21
-219.56
  0
LINE
  8
0
 10
-183.404
 20
-219.56
 11
-183.625
 21
-219.449
  0
LINE
  8
0
 10
-183.625
 20
-219.449
 11
-183.833
 21
-219.313
  0
LINE
  8
0
 10
-183.833
 20
-219.313
 11
-184.024
 21
-219.155
  0
LINE
  8
0
 10
-184.024
 20
-219.155
 11
-184.197
 21
-218.978
  0
LINE
  8
0
 10
-184.197
 20
-218.978
 11
-184.349
 21
-218.782
  0
LINE
  8
0
 10
-184.349
 20
-218.782
 11
-184.479
 21
-218.571
  0
LINE
  8
0
 10
-184.479
 20
-218.571
 11
-184.585
 21
-218.347
  0
LINE
  8
0
 10
-184.585
 20
-218.347
 11
-184.665
 21
-218.112
  0
LINE
  8
0
 10
-184.665
 20
-218.112
 11
-184.719
 21
-217.87
  0
LINE
  8
0
 10
-184.719
 20
-217.87
 11
-184.747
 21
-217.624
  0
LINE
  8
0
 10
-184.747
 20
-217.624
 11
-184.747
 21
-217.376
  0
LINE
  8
0
 10
-184.747
 20
-217.376
 11
-184.719
 21
-217.13
  0
LINE
  8
0
 10
-184.719
 20
-217.13
 11
-184.665
 21
-216.888
  0
LINE
  8
0
 10
-184.665
 20
-216.888
 11
-184.585
 21
-216.653
  0
LINE
  8
0
 10
-184.585
 20
-216.653
 11
-184.479
 21
-216.429
  0
LINE
  8
0
 10
-184.479
 20
-216.429
 11
-184.349
 21
-216.218
  0
LINE
  8
0
 10
-184.349
 20
-216.218
 11
-184.197
 21
-216.022
  0
LINE
  8
0
 10
-184.197
 20
-216.022
 11
-184.024
 21
-215.845
  0
LINE
  8
0
 10
-184.024
 20
-215.845
 11
-183.833
 21
-215.687
  0
LINE
  8
0
 10
-183.833
 20
-215.687
 11
-183.625
 21
-215.551
  0
LINE
  8
0
 10
-183.625
 20
-215.551
 11
-183.404
 21
-215.44
  0
LINE
  8
0
 10
-183.404
 20
-215.44
 11
-183.172
 21
-215.353
  0
LINE
  8
0
 10
-183.172
 20
-215.353
 11
-182.931
 21
-215.292
  0
LINE
  8
0
 10
-182.931
 20
-215.292
 11
-182.686
 21
-215.258
  0
LINE
  8
0
 10
-182.686
 20
-215.258
 11
-182.438
 21
-215.251
  0
LINE
  8
0
 10
-182.438
 20
-215.251
 11
-182.191
 21
-215.271
  0
LINE
  8
0
 10
-182.191
 20
-215.271
 11
-181.948
 21
-215.319
  0
LINE
  8
0
 10
-181.948
 20
-215.319
 11
-181.711
 21
-215.393
  0
LINE
  8
0
 10
-181.711
 20
-215.393
 11
-181.484
 21
-215.492
  0
LINE
  8
0
 10
-181.484
 20
-215.492
 11
-181.269
 21
-215.616
  0
LINE
  8
0
 10
-181.269
 20
-215.616
 11
-181.07
 21
-215.763
  0
LINE
  8
0
 10
-181.07
 20
-215.763
 11
-180.887
 21
-215.931
  0
LINE
  8
0
 10
-180.887
 20
-215.931
 11
-180.724
 21
-216.118
  0
LINE
  8
0
 10
-180.724
 20
-216.118
 11
-180.583
 21
-216.322
  0
LINE
  8
0
 10
-180.583
 20
-216.322
 11
-180.465
 21
-216.54
  0
LINE
  8
0
 10
-180.465
 20
-216.54
 11
-180.372
 21
-216.769
  0
LINE
  8
0
 10
-180.372
 20
-216.769
 11
-180.304
 21
-217.008
  0
LINE
  8
0
 10
-180.304
 20
-217.008
 11
-180.264
 21
-217.252
  0
LINE
  8
0
 10
-180.264
 20
-217.252
 11
-180.25
 21
-217.5
  0
LINE
  8
0
 10
-180.25
 20
-217.5
 11
-180.264
 21
-217.748
  0
LINE
  8
0
 10
-180.264
 20
-217.748
 11
-180.304
 21
-217.992
  0
LINE
  8
0
 10
-180.304
 20
-217.992
 11
-180.372
 21
-218.231
  0
LINE
  8
0
 10
-180.372
 20
-218.231
 11
-180.465
 21
-218.46
  0
LINE
  8
0
 10
-180.465
 20
-218.46
 11
-180.583
 21
-218.678
  0
LINE
  8
0
 10
-180.583
 20
-218.678
 11
-180.724
 21
-218.882
  0
LINE
  8
0
 10
-180.724
 20
-218.882
 11
-180.887
 21
-219.069
  0
LINE
  8
0
 10
-180.887
 20
-219.069
 11
-181.07
 21
-219.237
  0
LINE
  8
0
 10
-181.07
 20
-219.237
 11
-181.269
 21
-219.384
  0
LINE
  8
0
 10
-181.269
 20
-219.384
 11
-181.484
 21
-219.508
  0
LINE
  8
0
 10
-181.484
 20
-219.508
 11
-181.711
 21
-219.607
  0
LINE
  8
0
 10
-181.711
 20
-219.607
 11
-181.948
 21
-219.681
  0
LINE
  8
0
 10
-181.948
 20
-219.681
 11
-182.191
 21
-219.729
  0
LINE
  8
0
 10
-182.191
 20
-219.729
 11
-182.438
 21
-219.749
  0
LINE
  8
0
 10
-182.438
 20
-219.749
 11
-182.686
 21
-219.742
  0
LINE
  8
0
 10
-91.4358
 20
-219.742
 11
-91.6814
 21
-219.708
  0
LINE
  8
0
 10
-91.6814
 20
-219.708
 11
-91.9217
 21
-219.647
  0
LINE
  8
0
 10
-91.9217
 20
-219.647
 11
-92.1538
 21
-219.56
  0
LINE
  8
0
 10
-92.1538
 20
-219.56
 11
-92.375
 21
-219.449
  0
LINE
  8
0
 10
-92.375
 20
-219.449
 11
-92.5825
 21
-219.313
  0
LINE
  8
0
 10
-92.5825
 20
-219.313
 11
-92.7739
 21
-219.155
  0
LINE
  8
0
 10
-92.7739
 20
-219.155
 11
-92.9467
 21
-218.978
  0
LINE
  8
0
 10
-92.9467
 20
-218.978
 11
-93.099
 21
-218.782
  0
LINE
  8
0
 10
-93.099
 20
-218.782
 11
-93.2288
 21
-218.571
  0
LINE
  8
0
 10
-93.2288
 20
-218.571
 11
-93.3346
 21
-218.347
  0
LINE
  8
0
 10
-93.3346
 20
-218.347
 11
-93.4151
 21
-218.112
  0
LINE
  8
0
 10
-93.4151
 20
-218.112
 11
-93.4693
 21
-217.87
  0
LINE
  8
0
 10
-93.4693
 20
-217.87
 11
-93.4966
 21
-217.624
  0
LINE
  8
0
 10
-93.4966
 20
-217.624
 11
-93.4966
 21
-217.376
  0
LINE
  8
0
 10
-93.4966
 20
-217.376
 11
-93.4693
 21
-217.13
  0
LINE
  8
0
 10
-93.4693
 20
-217.13
 11
-93.4151
 21
-216.888
  0
LINE
  8
0
 10
-93.4151
 20
-216.888
 11
-93.3346
 21
-216.653
  0
LINE
  8
0
 10
-93.3346
 20
-216.653
 11
-93.2288
 21
-216.429
  0
LINE
  8
0
 10
-93.2288
 20
-216.429
 11
-93.099
 21
-216.218
  0
LINE
  8
0
 10
-93.099
 20
-216.218
 11
-92.9467
 21
-216.022
  0
LINE
  8
0
 10
-92.9467
 20
-216.022
 11
-92.7739
 21
-215.845
  0
LINE
  8
0
 10
-92.7739
 20
-215.845
 11
-92.5825
 21
-215.687
  0
LINE
  8
0
 10
-92.5825
 20
-215.687
 11
-92.375
 21
-215.551
  0
LINE
  8
0
 10
-92.375
 20
-215.551
 11
-92.1538
 21
-215.44
  0
LINE
  8
0
 10
-92.1538
 20
-215.44
 11
-91.9217
 21
-215.353
  0
LINE
  8
0
 10
-91.9217
 20
-215.353
 11
-91.6814
 21
-215.292
  0
LINE
  8
0
 10
-91.6814
 20
-215.292
 11
-91.4358
 21
-215.258
  0
LINE
  8
0
 10
-91.4358
 20
-215.258
 11
-91.188
 21
-215.251
  0
LINE
  8
0
 10
-91.188
 20
-215.251
 11
-90.9409
 21
-215.271
  0
LINE
  8
0
 10
-90.9409
 20
-215.271
 11
-90.6976
 21
-215.319
  0
LINE
  8
0
 10
-90.6976
 20
-215.319
 11
-90.4611
 21
-215.393
  0
LINE
  8
0
 10
-90.4611
 20
-215.393
 11
-90.234
 21
-215.492
  0
LINE
  8
0
 10
-90.234
 20
-215.492
 11
-90.0194
 21
-215.616
  0
LINE
  8
0
 10
-90.0194
 20
-215.616
 11
-89.8196
 21
-215.763
  0
LINE
  8
0
 10
-89.8196
 20
-215.763
 11
-89.6372
 21
-215.931
  0
LINE
  8
0
 10
-89.6372
 20
-215.931
 11
-89.4744
 21
-216.118
  0
LINE
  8
0
 10
-89.4744
 20
-216.118
 11
-89.3332
 21
-216.322
  0
LINE
  8
0
 10
-89.3332
 20
-216.322
 11
-89.2152
 21
-216.54
  0
LINE
  8
0
 10
-89.2152
 20
-216.54
 11
-89.1219
 21
-216.769
  0
LINE
  8
0
 10
-89.1219
 20
-216.769
 11
-89.0545
 21
-217.008
  0
LINE
  8
0
 10
-89.0545
 20
-217.008
 11
-89.0137
 21
-217.252
  0
LINE
  8
0
 10
-89.0137
 20
-217.252
 11
-89
 21
-217.5
  0
LINE
  8
0
 10
-89
 20
-217.5
 11
-89.0137
 21
-217.748
  0
LINE
  8
0
 10
-89.0137
 20
-217.748
 11
-89.0545
 21
-217.992
  0
LINE
  8
0
 10
-89.0545
 20
-217.992
 11
-89.1219
 21
-218.231
  0
LINE
  8
0
 10
-89.1219
 20
-218.231
 11
-89.2152
 21
-218.46
  0
LINE
  8
0
 10
-89.2152
 20
-218.46
 11
-89.3332
 21
-218.678
  0
LINE
  8
0
 10
-89.3332
 20
-218.678
 11
-89.4744
 21
-218.882
  0
LINE
  8
0
 10
-89.4744
 20
-218.882
 11
-89.6372
 21
-219.069
  0
LINE
  8
0
 10
-89.6372
 20
-219.069
 11
-89.8196
 21
-219.237
  0
LINE
  8
0
 10
-89.8196
 20
-219.237
 11
-90.0194
 21
-219.384
  0
LINE
  8
0
 10
-90.0194
 20
-219.384
 11
-90.234
 21
-219.508
  0
LINE
  8
0
 10
-90.234
 20
-219.508
 11
-90.4611
 21
-219.607
  0
LINE
  8
0
 10
-90.4611
 20
-219.607
 11
-90.6976
 21
-219.681
  0
LINE
  8
0
 10
-90.6976
 20
-219.681
 11
-90.9409
 21
-219.729
  0
LINE
  8
0
 10
-90.9409
 20
-219.729
 11
-91.188
 21
-219.749
  0
LINE
  8
0
 10
-91.188
 20
-219.749
 11
-91.4358
 21
-219.742
  0
LINE
  8
0
 10
91.0642
 20
-219.742
 11
90.8186
 21
-219.708
  0
LINE
  8
0
 10
90.8186
 20
-219.708
 11
90.5783
 21
-219.647
  0
LINE
  8
0
 10
90.5783
 20
-219.647
 11
90.3462
 21
-219.56
  0
LINE
  8
0
 10
90.3462
 20
-219.56
 11
90.125
 21
-219.449
  0
LINE
  8
0
 10
90.125
 20
-219.449
 11
89.9175
 21
-219.313
  0
LINE
  8
0
 10
89.9175
 20
-219.313
 11
89.7261
 21
-219.155
  0
LINE
  8
0
 10
89.7261
 20
-219.155
 11
89.5533
 21
-218.978
  0
LINE
  8
0
 10
89.5533
 20
-218.978
 11
89.401
 21
-218.782
  0
LINE
  8
0
 10
89.401
 20
-218.782
 11
89.2712
 21
-218.571
  0
LINE
  8
0
 10
89.2712
 20
-218.571
 11
89.1654
 21
-218.347
  0
LINE
  8
0
 10
89.1654
 20
-218.347
 11
89.0849
 21
-218.112
  0
LINE
  8
0
 10
89.0849
 20
-218.112
 11
89.0307
 21
-217.87
  0
LINE
  8
0
 10
89.0307
 20
-217.87
 11
89.0034
 21
-217.624
  0
LINE
  8
0
 10
89.0034
 20
-217.624
 11
89.0034
 21
-217.376
  0
LINE
  8
0
 10
89.0034
 20
-217.376
 11
89.0307
 21
-217.13
  0
LINE
  8
0
 10
89.0307
 20
-217.13
 11
89.0849
 21
-216.888
  0
LINE
  8
0
 10
89.0849
 20
-216.888
 11
89.1654
 21
-216.653
  0
LINE
  8
0
 10
89.1654
 20
-216.653
 11
89.2712
 21
-216.429
  0
LINE
  8
0
 10
89.2712
 20
-216.429
 11
89.401
 21
-216.218
  0
LINE
  8
0
 10
89.401
 20
-216.218
 11
89.5533
 21
-216.022
  0
LINE
  8
0
 10
89.5533
 20
-216.022
 11
89.7261
 21
-215.845
  0
LINE
  8
0
 10
89.7261
 20
-215.845
 11
89.9175
 21
-215.687
  0
LINE
  8
0
 10
89.9175
 20
-215.687
 11
90.125
 21
-215.551
  0
LINE
  8
0
 10
90.125
 20
-215.551
 11
90.3462
 21
-215.44
  0
LINE
  8
0
 10
90.3462
 20
-215.44
 11
90.5783
 21
-215.353
  0
LINE
  8
0
 10
90.5783
 20
-215.353
 11
90.8186
 21
-215.292
  0
LINE
  8
0
 10
90.8186
 20
-215.292
 11
91.0642
 21
-215.258
  0
LINE
  8
0
 10
91.0642
 20
-215.258
 11
91.312
 21
-215.251
  0
LINE
  8
0
 10
91.312
 20
-215.251
 11
91.559
 21
-215.271
  0
LINE
  8
0
 10
91.559
 20
-215.271
 11
91.8023
 21
-215.319
  0
LINE
  8
0
 10
91.8023
 20
-215.319
 11
92.0389
 21
-215.393
  0
LINE
  8
0
 10
92.0389
 20
-215.393
 11
92.2659
 21
-215.492
  0
LINE
  8
0
 10
92.2659
 20
-215.492
 11
92.4806
 21
-215.616
  0
LINE
  8
0
 10
92.4806
 20
-215.616
 11
92.6804
 21
-215.763
  0
LINE
  8
0
 10
92.6804
 20
-215.763
 11
92.8628
 21
-215.931
  0
LINE
  8
0
 10
92.8628
 20
-215.931
 11
93.0256
 21
-216.118
  0
LINE
  8
0
 10
93.0256
 20
-216.118
 11
93.1668
 21
-216.322
  0
LINE
  8
0
 10
93.1668
 20
-216.322
 11
93.2848
 21
-216.54
  0
LINE
  8
0
 10
93.2848
 20
-216.54
 11
93.3781
 21
-216.769
  0
LINE
  8
0
 10
93.3781
 20
-216.769
 11
93.4455
 21
-217.008
  0
LINE
  8
0
 10
93.4455
 20
-217.008
 11
93.4863
 21
-217.252
  0
LINE
  8
0
 10
93.4863
 20
-217.252
 11
93.5
 21
-217.5
  0
LINE
  8
0
 10
93.5
 20
-217.5
 11
93.4863
 21
-217.748
  0
LINE
  8
0
 10
93.4863
 20
-217.748
 11
93.4455
 21
-217.992
  0
LINE
  8
0
 10
93.4455
 20
-217.992
 11
93.3781
 21
-218.231
  0
LINE
  8
0
 10
93.3781
 20
-218.231
 11
93.2848
 21
-218.46
  0
LINE
  8
0
 10
93.2848
 20
-218.46
 11
93.1668
 21
-218.678
  0
LINE
  8
0
 10
93.1668
 20
-218.678
 11
93.0256
 21
-218.882
  0
LINE
  8
0
 10
93.0256
 20
-218.882
 11
92.8628
 21
-219.069
  0
LINE
  8
0
 10
92.8628
 20
-219.069
 11
92.6804
 21
-219.237
  0
LINE
  8
0
 10
92.6804
 20
-219.237
 11
92.4806
 21
-219.384
  0
LINE
  8
0
 10
92.4806
 20
-219.384
 11
92.2659
 21
-219.508
  0
LINE
  8
0
 10
92.2659
 20
-219.508
 11
92.0389
 21
-219.607
  0
LINE
  8
0
 10
92.0389
 20
-219.607
 11
91.8023
 21
-219.681
  0
LINE
  8
0
 10
91.8023
 20
-219.681
 11
91.559
 21
-219.729
  0
LINE
  8
0
 10
91.559
 20
-219.729
 11
91.312
 21
-219.749
  0
LINE
  8
0
 10
91.312
 20
-219.749
 11
91.0642
 21
-219.742
  0
LINE
  8
0
 10
182.314
 20
-219.742
 11
182.069
 21
-219.708
  0
LINE
  8
0
 10
182.069
 20
-219.708
 11
181.828
 21
-219.647
  0
LINE
  8
0
 10
181.828
 20
-219.647
 11
181.596
 21
-219.56
  0
LINE
  8
0
 10
181.596
 20
-219.56
 11
181.375
 21
-219.449
  0
LINE
  8
0
 10
181.375
 20
-219.449
 11
181.167
 21
-219.313
  0
LINE
  8
0
 10
181.167
 20
-219.313
 11
180.976
 21
-219.155
  0
LINE
  8
0
 10
180.976
 20
-219.155
 11
180.803
 21
-218.978
  0
LINE
  8
0
 10
180.803
 20
-218.978
 11
180.651
 21
-218.782
  0
LINE
  8
0
 10
180.651
 20
-218.782
 11
180.521
 21
-218.571
  0
LINE
  8
0
 10
180.521
 20
-218.571
 11
180.415
 21
-218.347
  0
LINE
  8
0
 10
180.415
 20
-218.347
 11
180.335
 21
-218.112
  0
LINE
  8
0
 10
180.335
 20
-218.112
 11
180.281
 21
-217.87
  0
LINE
  8
0
 10
180.281
 20
-217.87
 11
180.253
 21
-217.624
  0
LINE
  8
0
 10
180.253
 20
-217.624
 11
180.253
 21
-217.376
  0
LINE
  8
0
 10
180.253
 20
-217.376
 11
180.281
 21
-217.13
  0
LINE
  8
0
 10
180.281
 20
-217.13
 11
180.335
 21
-216.888
  0
LINE
  8
0
 10
180.335
 20
-216.888
 11
180.415
 21
-216.653
  0
LINE
  8
0
 10
180.415
 20
-216.653
 11
180.521
 21
-216.429
  0
LINE
  8
0
 10
180.521
 20
-216.429
 11
180.651
 21
-216.218
  0
LINE
  8
0
 10
180.651
 20
-216.218
 11
180.803
 21
-216.022
  0
LINE
  8
0
 10
180.803
 20
-216.022
 11
180.976
 21
-215.845
  0
LINE
  8
0
 10
180.976
 20
-215.845
 11
181.167
 21
-215.687
  0
LINE
  8
0
 10
181.167
 20
-215.687
 11
181.375
 21
-215.551
  0
LINE
  8
0
 10
181.375
 20
-215.551
 11
181.596
 21
-215.44
  0
LINE
  8
0
 10
181.596
 20
-215.44
 11
181.828
 21
-215.353
  0
LINE
  8
0
 10
181.828
 20
-215.353
 11
182.069
 21
-215.292
  0
LINE
  8
0
 10
182.069
 20
-215.292
 11
182.314
 21
-215.258
  0
LINE
  8
0
 10
182.314
 20
-215.258
 11
182.562
 21
-215.251
  0
LINE
  8
0
 10
182.562
 20
-215.251
 11
182.809
 21
-215.271
  0
LINE
  8
0
 10
182.809
 20
-215.271
 11
183.052
 21
-215.319
  0
LINE
  8
0
 10
183.052
 20
-215.319
 11
183.289
 21
-215.393
  0
LINE
  8
0
 10
183.289
 20
-215.393
 11
183.516
 21
-215.492
  0
LINE
  8
0
 10
183.516
 20
-215.492
 11
183.731
 21
-215.616
  0
LINE
  8
0
 10
183.731
 20
-215.616
 11
183.93
 21
-215.763
  0
LINE
  8
0
 10
183.93
 20
-215.763
 11
184.113
 21
-215.931
  0
LINE
  8
0
 10
184.113
 20
-215.931
 11
184.276
 21
-216.118
  0
LINE
  8
0
 10
184.276
 20
-216.118
 11
184.417
 21
-216.322
  0
LINE
  8
0
 10
184.417
 20
-216.322
 11
184.535
 21
-216.54
  0
LINE
  8
0
 10
184.535
 20
-216.54
 11
184.628
 21
-216.769
  0
LINE
  8
0
 10
184.628
 20
-216.769
 11
184.696
 21
-217.008
  0
LINE
  8
0
 10
184.696
 20
-217.008
 11
184.736
 21
-217.252
  0
LINE
  8
0
 10
184.736
 20
-217.252
 11
184.75
 21
-217.5
  0
LINE
  8
0
 10
184.75
 20
-217.5
 11
184.736
 21
-217.748
  0
LINE
  8
0
 10
184.736
 20
-217.748
 11
184.696
 21
-217.992
  0
LINE
  8
0
 10
184.696
 20
-217.992
 11
184.628
 21
-218.231
  0
LINE
  8
0
 10
184.628
 20
-218.231
 11
184.535
 21
-218.46
  0
LINE
  8
0
 10
184.535
 20
-218.46
 11
184.417
 21
-218.678
  0
LINE
  8
0
 10
184.417
 20
-218.678
 11
184.276
 21
-218.882
  0
LINE
  8
0
 10
184.276
 20
-218.882
 11
184.113
 21
-219.069
  0
LINE
  8
0
 10
184.113
 20
-219.069
 11
183.93
 21
-219.237
  0
LINE
  8
0
 10
183.93
 20
-219.237
 11
183.731
 21
-219.384
  0
LINE
  8
0
 10
183.731
 20
-219.384
 11
183.516
 21
-219.508
  0
LINE
  8
0
 10
183.516
 20
-219.508
 11
183.289
 21
-219.607
  0
LINE
  8
0
 10
183.289
 20
-219.607
 11
183.052
 21
-219.681
  0
LINE
  8
0
 10
183.052
 20
-219.681
 11
182.809
 21
-219.729
  0
LINE
  8
0
 10
182.809
 20
-219.729
 11
182.562
 21
-219.749
  0
LINE
  8
0
 10
182.562
 20
-219.749
 11
182.314
 21
-219.742
  0
LINE
  8
0
 10
-0.185791
 20
-219.742
 11
-0.431335
 21
-219.708
  0
LINE
  8
0
 10
-0.431335
 20
-219.708
 11
-0.671646
 21
-219.647
  0
LINE
  8
0
 10
-0.671646
 20
-219.647
 11
-0.903809
 21
-219.56
  0
LINE
  8
0
 10
-0.903809
 20
-219.56
 11
-1.125
 21
-219.449
  0
LINE
  8
0
 10
-1.125
 20
-219.449
 11
-1.33252
 21
-219.313
  0
LINE
  8
0
 10
-1.33252
 20
-219.313
 11
-1.52388
 21
-219.155
  0
LINE
  8
0
 10
-1.52388
 20
-219.155
 11
-1.69673
 21
-218.978
  0
LINE
  8
0
 10
-1.69673
 20
-218.978
 11
-1.849
 21
-218.782
  0
LINE
  8
0
 10
-1.849
 20
-218.782
 11
-1.97881
 21
-218.571
  0
LINE
  8
0
 10
-1.97881
 20
-218.571
 11
-2.08461
 21
-218.347
  0
LINE
  8
0
 10
-2.08461
 20
-218.347
 11
-2.1651
 21
-218.112
  0
LINE
  8
0
 10
-2.1651
 20
-218.112
 11
-2.2193
 21
-217.87
  0
LINE
  8
0
 10
-2.2193
 20
-217.87
 11
-2.24658
 21
-217.624
  0
LINE
  8
0
 10
-2.24658
 20
-217.624
 11
-2.24658
 21
-217.376
  0
LINE
  8
0
 10
-2.24658
 20
-217.376
 11
-2.2193
 21
-217.13
  0
LINE
  8
0
 10
-2.2193
 20
-217.13
 11
-2.1651
 21
-216.888
  0
LINE
  8
0
 10
-2.1651
 20
-216.888
 11
-2.08461
 21
-216.653
  0
LINE
  8
0
 10
-2.08461
 20
-216.653
 11
-1.97881
 21
-216.429
  0
LINE
  8
0
 10
-1.97881
 20
-216.429
 11
-1.849
 21
-216.218
  0
LINE
  8
0
 10
-1.849
 20
-216.218
 11
-1.69673
 21
-216.022
  0
LINE
  8
0
 10
-1.69673
 20
-216.022
 11
-1.52388
 21
-215.845
  0
LINE
  8
0
 10
-1.52388
 20
-215.845
 11
-1.33252
 21
-215.687
  0
LINE
  8
0
 10
-1.33252
 20
-215.687
 11
-1.125
 21
-215.551
  0
LINE
  8
0
 10
-1.125
 20
-215.551
 11
-0.903809
 21
-215.44
  0
LINE
  8
0
 10
-0.903809
 20
-215.44
 11
-0.671646
 21
-215.353
  0
LINE
  8
0
 10
-0.671646
 20
-215.353
 11
-0.431335
 21
-215.292
  0
LINE
  8
0
 10
-0.431335
 20
-215.292
 11
-0.185791
 21
-215.258
  0
LINE
  8
0
 10
-0.185791
 20
-215.258
 11
0.0619965
 21
-215.251
  0
LINE
  8
0
 10
0.0619965
 20
-215.251
 11
0.309036
 21
-215.271
  0
LINE
  8
0
 10
0.309036
 20
-215.271
 11
0.552338
 21
-215.319
  0
LINE
  8
0
 10
0.552338
 20
-215.319
 11
0.788925
 21
-215.393
  0
LINE
  8
0
 10
0.788925
 20
-215.393
 11
1.01595
 21
-215.492
  0
LINE
  8
0
 10
1.01595
 20
-215.492
 11
1.23062
 21
-215.616
  0
LINE
  8
0
 10
1.23062
 20
-215.616
 11
1.43037
 21
-215.763
  0
LINE
  8
0
 10
1.43037
 20
-215.763
 11
1.61275
 21
-215.931
  0
LINE
  8
0
 10
1.61275
 20
-215.931
 11
1.77556
 21
-216.118
  0
LINE
  8
0
 10
1.77556
 20
-216.118
 11
1.91681
 21
-216.322
  0
LINE
  8
0
 10
1.91681
 20
-216.322
 11
2.03479
 21
-216.54
  0
LINE
  8
0
 10
2.03479
 20
-216.54
 11
2.12808
 21
-216.769
  0
LINE
  8
0
 10
2.12808
 20
-216.769
 11
2.19554
 21
-217.008
  0
LINE
  8
0
 10
2.19554
 20
-217.008
 11
2.23634
 21
-217.252
  0
LINE
  8
0
 10
2.23634
 20
-217.252
 11
2.25
 21
-217.5
  0
LINE
  8
0
 10
2.25
 20
-217.5
 11
2.23634
 21
-217.748
  0
LINE
  8
0
 10
2.23634
 20
-217.748
 11
2.19554
 21
-217.992
  0
LINE
  8
0
 10
2.19554
 20
-217.992
 11
2.12808
 21
-218.231
  0
LINE
  8
0
 10
2.12808
 20
-218.231
 11
2.03479
 21
-218.46
  0
LINE
  8
0
 10
2.03479
 20
-218.46
 11
1.91681
 21
-218.678
  0
LINE
  8
0
 10
1.91681
 20
-218.678
 11
1.77556
 21
-218.882
  0
LINE
  8
0
 10
1.77556
 20
-218.882
 11
1.61275
 21
-219.069
  0
LINE
  8
0
 10
1.61275
 20
-219.069
 11
1.43037
 21
-219.237
  0
LINE
  8
0
 10
1.43037
 20
-219.237
 11
1.23062
 21
-219.384
  0
LINE
  8
0
 10
1.23062
 20
-219.384
 11
1.01595
 21
-219.508
  0
LINE
  8
0
 10
1.01595
 20
-219.508
 11
0.788925
 21
-219.607
  0
LINE
  8
0
 10
0.788925
 20
-219.607
 11
0.552338
 21
-219.681
  0
LINE
  8
0
 10
0.552338
 20
-219.681
 11
0.309036
 21
-219.729
  0
LINE
  8
0
 10
0.309036
 20
-219.729
 11
0.0619965
 21
-219.749
  0
LINE
  8
0
 10
0.0619965
 20
-219.749
 11
-0.185791
 21
-219.742
  0
ENDSEC
  0
SECTION
  2
OBJECTS
  0
DICTIONARY
  0
ENDSEC
  0
EOF
