  0
SECTION
  2
BLOCKS
  0
ENDSEC
  0
SECTION
  2
ENTITIES
  0
LINE
  8
0
 10
320.398
 20
-119.798
 11
320.915
 21
-119.716
  0
LINE
  8
0
 10
320.915
 20
-119.716
 11
321.42
 21
-119.58
  0
LINE
  8
0
 10
321.42
 20
-119.58
 11
321.909
 21
-119.393
  0
LINE
  8
0
 10
321.909
 20
-119.393
 11
322.375
 21
-119.155
  0
LINE
  8
0
 10
322.375
 20
-119.155
 11
322.814
 21
-118.87
  0
LINE
  8
0
 10
322.814
 20
-118.87
 11
323.221
 21
-118.541
  0
LINE
  8
0
 10
323.221
 20
-118.541
 11
323.591
 21
-118.171
  0
LINE
  8
0
 10
323.591
 20
-118.171
 11
323.92
 21
-117.764
  0
LINE
  8
0
 10
323.92
 20
-117.764
 11
324.205
 21
-117.325
  0
LINE
  8
0
 10
324.205
 20
-117.325
 11
324.443
 21
-116.859
  0
LINE
  8
0
 10
324.443
 20
-116.859
 11
324.63
 21
-116.37
  0
LINE
  8
0
 10
324.63
 20
-116.37
 11
324.766
 21
-115.865
  0
LINE
  8
0
 10
324.766
 20
-115.865
 11
324.848
 21
-115.348
  0
LINE
  8
0
 10
324.848
 20
-115.348
 11
324.875
 21
-114.825
  0
LINE
  8
0
 10
324.875
 20
-114.825
 11
324.875
 21
114.825
  0
LINE
  8
0
 10
324.875
 20
114.825
 11
324.848
 21
115.348
  0
LINE
  8
0
 10
324.848
 20
115.348
 11
324.766
 21
115.865
  0
LINE
  8
0
 10
324.766
 20
115.865
 11
324.63
 21
116.37
  0
LINE
  8
0
 10
324.63
 20
116.37
 11
324.443
 21
116.859
  0
LINE
  8
0
 10
324.443
 20
116.859
 11
324.205
 21
117.325
  0
LINE
  8
0
 10
324.205
 20
117.325
 11
323.92
 21
117.764
  0
LINE
  8
0
 10
323.92
 20
117.764
 11
323.591
 21
118.171
  0
LINE
  8
0
 10
323.591
 20
118.171
 11
323.221
 21
118.541
  0
LINE
  8
0
 10
323.221
 20
118.541
 11
322.814
 21
118.87
  0
LINE
  8
0
 10
322.814
 20
118.87
 11
322.375
 21
119.155
  0
LINE
  8
0
 10
322.375
 20
119.155
 11
321.909
 21
119.393
  0
LINE
  8
0
 10
321.909
 20
119.393
 11
321.42
 21
119.58
  0
LINE
  8
0
 10
321.42
 20
119.58
 11
320.915
 21
119.716
  0
LINE
  8
0
 10
320.915
 20
119.716
 11
320.398
 21
119.798
  0
LINE
  8
0
 10
320.398
 20
119.798
 11
319.875
 21
119.825
  0
LINE
  8
0
 10
319.875
 20
119.825
 11
-319.875
 21
119.825
  0
LINE
  8
0
 10
-319.875
 20
119.825
 11
-320.398
 21
119.798
  0
LINE
  8
0
 10
-320.398
 20
119.798
 11
-320.915
 21
119.716
  0
LINE
  8
0
 10
-320.915
 20
119.716
 11
-321.42
 21
119.58
  0
LINE
  8
0
 10
-321.42
 20
119.58
 11
-321.909
 21
119.393
  0
LINE
  8
0
 10
-321.909
 20
119.393
 11
-322.375
 21
119.155
  0
LINE
  8
0
 10
-322.375
 20
119.155
 11
-322.814
 21
118.87
  0
LINE
  8
0
 10
-322.814
 20
118.87
 11
-323.221
 21
118.541
  0
LINE
  8
0
 10
-323.221
 20
118.541
 11
-323.591
 21
118.171
  0
LINE
  8
0
 10
-323.591
 20
118.171
 11
-323.92
 21
117.764
  0
LINE
  8
0
 10
-323.92
 20
117.764
 11
-324.205
 21
117.325
  0
LINE
  8
0
 10
-324.205
 20
117.325
 11
-324.443
 21
116.859
  0
LINE
  8
0
 10
-324.443
 20
116.859
 11
-324.63
 21
116.37
  0
LINE
  8
0
 10
-324.63
 20
116.37
 11
-324.766
 21
115.865
  0
LINE
  8
0
 10
-324.766
 20
115.865
 11
-324.848
 21
115.348
  0
LINE
  8
0
 10
-324.848
 20
115.348
 11
-324.875
 21
114.825
  0
LINE
  8
0
 10
-324.875
 20
114.825
 11
-324.875
 21
-114.825
  0
LINE
  8
0
 10
-324.875
 20
-114.825
 11
-324.848
 21
-115.348
  0
LINE
  8
0
 10
-324.848
 20
-115.348
 11
-324.766
 21
-115.865
  0
LINE
  8
0
 10
-324.766
 20
-115.865
 11
-324.63
 21
-116.37
  0
LINE
  8
0
 10
-324.63
 20
-116.37
 11
-324.443
 21
-116.859
  0
LINE
  8
0
 10
-324.443
 20
-116.859
 11
-324.205
 21
-117.325
  0
LINE
  8
0
 10
-324.205
 20
-117.325
 11
-323.92
 21
-117.764
  0
LINE
  8
0
 10
-323.92
 20
-117.764
 11
-323.591
 21
-118.171
  0
LINE
  8
0
 10
-323.591
 20
-118.171
 11
-323.221
 21
-118.541
  0
LINE
  8
0
 10
-323.221
 20
-118.541
 11
-322.814
 21
-118.87
  0
LINE
  8
0
 10
-322.814
 20
-118.87
 11
-322.375
 21
-119.155
  0
LINE
  8
0
 10
-322.375
 20
-119.155
 11
-321.909
 21
-119.393
  0
LINE
  8
0
 10
-321.909
 20
-119.393
 11
-321.42
 21
-119.58
  0
LINE
  8
0
 10
-321.42
 20
-119.58
 11
-320.915
 21
-119.716
  0
LINE
  8
0
 10
-320.915
 20
-119.716
 11
-320.398
 21
-119.798
  0
LINE
  8
0
 10
-320.398
 20
-119.798
 11
-319.875
 21
-119.825
  0
LINE
  8
0
 10
-319.875
 20
-119.825
 11
319.875
 21
-119.825
  0
LINE
  8
0
 10
319.875
 20
-119.825
 11
320.398
 21
-119.798
  0
LINE
  8
0
 10
-315.523
 20
104.977
 11
-316.04
 21
105.059
  0
LINE
  8
0
 10
-316.04
 20
105.059
 11
-316.545
 21
105.195
  0
LINE
  8
0
 10
-316.545
 20
105.195
 11
-317.034
 21
105.382
  0
LINE
  8
0
 10
-317.034
 20
105.382
 11
-317.5
 21
105.62
  0
LINE
  8
0
 10
-317.5
 20
105.62
 11
-317.939
 21
105.905
  0
LINE
  8
0
 10
-317.939
 20
105.905
 11
-318.346
 21
106.234
  0
LINE
  8
0
 10
-318.346
 20
106.234
 11
-318.716
 21
106.604
  0
LINE
  8
0
 10
-318.716
 20
106.604
 11
-319.045
 21
107.011
  0
LINE
  8
0
 10
-319.045
 20
107.011
 11
-319.33
 21
107.45
  0
LINE
  8
0
 10
-319.33
 20
107.45
 11
-319.568
 21
107.916
  0
LINE
  8
0
 10
-319.568
 20
107.916
 11
-319.755
 21
108.405
  0
LINE
  8
0
 10
-319.755
 20
108.405
 11
-319.891
 21
108.91
  0
LINE
  8
0
 10
-319.891
 20
108.91
 11
-319.973
 21
109.427
  0
LINE
  8
0
 10
-319.973
 20
109.427
 11
-320
 21
109.95
  0
LINE
  8
0
 10
-320
 20
109.95
 11
-319.973
 21
110.473
  0
LINE
  8
0
 10
-319.973
 20
110.473
 11
-319.891
 21
110.99
  0
LINE
  8
0
 10
-319.891
 20
110.99
 11
-319.755
 21
111.495
  0
LINE
  8
0
 10
-319.755
 20
111.495
 11
-319.568
 21
111.984
  0
LINE
  8
0
 10
-319.568
 20
111.984
 11
-319.33
 21
112.45
  0
LINE
  8
0
 10
-319.33
 20
112.45
 11
-319.045
 21
112.889
  0
LINE
  8
0
 10
-319.045
 20
112.889
 11
-318.716
 21
113.296
  0
LINE
  8
0
 10
-318.716
 20
113.296
 11
-318.346
 21
113.666
  0
LINE
  8
0
 10
-318.346
 20
113.666
 11
-317.939
 21
113.995
  0
LINE
  8
0
 10
-317.939
 20
113.995
 11
-317.5
 21
114.28
  0
LINE
  8
0
 10
-317.5
 20
114.28
 11
-317.034
 21
114.518
  0
LINE
  8
0
 10
-317.034
 20
114.518
 11
-316.545
 21
114.705
  0
LINE
  8
0
 10
-316.545
 20
114.705
 11
-316.04
 21
114.841
  0
LINE
  8
0
 10
-316.04
 20
114.841
 11
-315.523
 21
114.923
  0
LINE
  8
0
 10
-315.523
 20
114.923
 11
-315
 21
114.95
  0
LINE
  8
0
 10
-315
 20
114.95
 11
-314.477
 21
114.923
  0
LINE
  8
0
 10
-314.477
 20
114.923
 11
-313.96
 21
114.841
  0
LINE
  8
0
 10
-313.96
 20
114.841
 11
-313.455
 21
114.705
  0
LINE
  8
0
 10
-313.455
 20
114.705
 11
-312.966
 21
114.518
  0
LINE
  8
0
 10
-312.966
 20
114.518
 11
-312.5
 21
114.28
  0
LINE
  8
0
 10
-312.5
 20
114.28
 11
-312.061
 21
113.995
  0
LINE
  8
0
 10
-312.061
 20
113.995
 11
-311.654
 21
113.666
  0
LINE
  8
0
 10
-311.654
 20
113.666
 11
-311.284
 21
113.296
  0
LINE
  8
0
 10
-311.284
 20
113.296
 11
-310.955
 21
112.889
  0
LINE
  8
0
 10
-310.955
 20
112.889
 11
-310.67
 21
112.45
  0
LINE
  8
0
 10
-310.67
 20
112.45
 11
-310.432
 21
111.984
  0
LINE
  8
0
 10
-310.432
 20
111.984
 11
-310.245
 21
111.495
  0
LINE
  8
0
 10
-310.245
 20
111.495
 11
-310.109
 21
110.99
  0
LINE
  8
0
 10
-310.109
 20
110.99
 11
-310.027
 21
110.473
  0
LINE
  8
0
 10
-310.027
 20
110.473
 11
-310
 21
109.95
  0
LINE
  8
0
 10
-310
 20
109.95
 11
-310.027
 21
109.427
  0
LINE
  8
0
 10
-310.027
 20
109.427
 11
-310.109
 21
108.91
  0
LINE
  8
0
 10
-310.109
 20
108.91
 11
-310.245
 21
108.405
  0
LINE
  8
0
 10
-310.245
 20
108.405
 11
-310.432
 21
107.916
  0
LINE
  8
0
 10
-310.432
 20
107.916
 11
-310.67
 21
107.45
  0
LINE
  8
0
 10
-310.67
 20
107.45
 11
-310.955
 21
107.011
  0
LINE
  8
0
 10
-310.955
 20
107.011
 11
-311.284
 21
106.604
  0
LINE
  8
0
 10
-311.284
 20
106.604
 11
-311.654
 21
106.234
  0
LINE
  8
0
 10
-311.654
 20
106.234
 11
-312.061
 21
105.905
  0
LINE
  8
0
 10
-312.061
 20
105.905
 11
-312.5
 21
105.62
  0
LINE
  8
0
 10
-312.5
 20
105.62
 11
-312.966
 21
105.382
  0
LINE
  8
0
 10
-312.966
 20
105.382
 11
-313.455
 21
105.195
  0
LINE
  8
0
 10
-313.455
 20
105.195
 11
-313.96
 21
105.059
  0
LINE
  8
0
 10
-313.96
 20
105.059
 11
-314.477
 21
104.977
  0
LINE
  8
0
 10
-314.477
 20
104.977
 11
-315
 21
104.95
  0
LINE
  8
0
 10
-315
 20
104.95
 11
-315.523
 21
104.977
  0
LINE
  8
0
 10
314.477
 20
104.977
 11
313.96
 21
105.059
  0
LINE
  8
0
 10
313.96
 20
105.059
 11
313.455
 21
105.195
  0
LINE
  8
0
 10
313.455
 20
105.195
 11
312.966
 21
105.382
  0
LINE
  8
0
 10
312.966
 20
105.382
 11
312.5
 21
105.62
  0
LINE
  8
0
 10
312.5
 20
105.62
 11
312.061
 21
105.905
  0
LINE
  8
0
 10
312.061
 20
105.905
 11
311.654
 21
106.234
  0
LINE
  8
0
 10
311.654
 20
106.234
 11
311.284
 21
106.604
  0
LINE
  8
0
 10
311.284
 20
106.604
 11
310.955
 21
107.011
  0
LINE
  8
0
 10
310.955
 20
107.011
 11
310.67
 21
107.45
  0
LINE
  8
0
 10
310.67
 20
107.45
 11
310.432
 21
107.916
  0
LINE
  8
0
 10
310.432
 20
107.916
 11
310.245
 21
108.405
  0
LINE
  8
0
 10
310.245
 20
108.405
 11
310.109
 21
108.91
  0
LINE
  8
0
 10
310.109
 20
108.91
 11
310.027
 21
109.427
  0
LINE
  8
0
 10
310.027
 20
109.427
 11
310
 21
109.95
  0
LINE
  8
0
 10
310
 20
109.95
 11
310.027
 21
110.473
  0
LINE
  8
0
 10
310.027
 20
110.473
 11
310.109
 21
110.99
  0
LINE
  8
0
 10
310.109
 20
110.99
 11
310.245
 21
111.495
  0
LINE
  8
0
 10
310.245
 20
111.495
 11
310.432
 21
111.984
  0
LINE
  8
0
 10
310.432
 20
111.984
 11
310.67
 21
112.45
  0
LINE
  8
0
 10
310.67
 20
112.45
 11
310.955
 21
112.889
  0
LINE
  8
0
 10
310.955
 20
112.889
 11
311.284
 21
113.296
  0
LINE
  8
0
 10
311.284
 20
113.296
 11
311.654
 21
113.666
  0
LINE
  8
0
 10
311.654
 20
113.666
 11
312.061
 21
113.995
  0
LINE
  8
0
 10
312.061
 20
113.995
 11
312.5
 21
114.28
  0
LINE
  8
0
 10
312.5
 20
114.28
 11
312.966
 21
114.518
  0
LINE
  8
0
 10
312.966
 20
114.518
 11
313.455
 21
114.705
  0
LINE
  8
0
 10
313.455
 20
114.705
 11
313.96
 21
114.841
  0
LINE
  8
0
 10
313.96
 20
114.841
 11
314.477
 21
114.923
  0
LINE
  8
0
 10
314.477
 20
114.923
 11
315
 21
114.95
  0
LINE
  8
0
 10
315
 20
114.95
 11
315.523
 21
114.923
  0
LINE
  8
0
 10
315.523
 20
114.923
 11
316.04
 21
114.841
  0
LINE
  8
0
 10
316.04
 20
114.841
 11
316.545
 21
114.705
  0
LINE
  8
0
 10
316.545
 20
114.705
 11
317.034
 21
114.518
  0
LINE
  8
0
 10
317.034
 20
114.518
 11
317.5
 21
114.28
  0
LINE
  8
0
 10
317.5
 20
114.28
 11
317.939
 21
113.995
  0
LINE
  8
0
 10
317.939
 20
113.995
 11
318.346
 21
113.666
  0
LINE
  8
0
 10
318.346
 20
113.666
 11
318.716
 21
113.296
  0
LINE
  8
0
 10
318.716
 20
113.296
 11
319.045
 21
112.889
  0
LINE
  8
0
 10
319.045
 20
112.889
 11
319.33
 21
112.45
  0
LINE
  8
0
 10
319.33
 20
112.45
 11
319.568
 21
111.984
  0
LINE
  8
0
 10
319.568
 20
111.984
 11
319.755
 21
111.495
  0
LINE
  8
0
 10
319.755
 20
111.495
 11
319.891
 21
110.99
  0
LINE
  8
0
 10
319.891
 20
110.99
 11
319.973
 21
110.473
  0
LINE
  8
0
 10
319.973
 20
110.473
 11
320
 21
109.95
  0
LINE
  8
0
 10
320
 20
109.95
 11
319.973
 21
109.427
  0
LINE
  8
0
 10
319.973
 20
109.427
 11
319.891
 21
108.91
  0
LINE
  8
0
 10
319.891
 20
108.91
 11
319.755
 21
108.405
  0
LINE
  8
0
 10
319.755
 20
108.405
 11
319.568
 21
107.916
  0
LINE
  8
0
 10
319.568
 20
107.916
 11
319.33
 21
107.45
  0
LINE
  8
0
 10
319.33
 20
107.45
 11
319.045
 21
107.011
  0
LINE
  8
0
 10
319.045
 20
107.011
 11
318.716
 21
106.604
  0
LINE
  8
0
 10
318.716
 20
106.604
 11
318.346
 21
106.234
  0
LINE
  8
0
 10
318.346
 20
106.234
 11
317.939
 21
105.905
  0
LINE
  8
0
 10
317.939
 20
105.905
 11
317.5
 21
105.62
  0
LINE
  8
0
 10
317.5
 20
105.62
 11
317.034
 21
105.382
  0
LINE
  8
0
 10
317.034
 20
105.382
 11
316.545
 21
105.195
  0
LINE
  8
0
 10
316.545
 20
105.195
 11
316.04
 21
105.059
  0
LINE
  8
0
 10
316.04
 20
105.059
 11
315.523
 21
104.977
  0
LINE
  8
0
 10
315.523
 20
104.977
 11
315
 21
104.95
  0
LINE
  8
0
 10
315
 20
104.95
 11
314.477
 21
104.977
  0
LINE
  8
0
 10
163.21
 20
108.305
 11
162.966
 21
108.341
  0
LINE
  8
0
 10
162.966
 20
108.341
 11
162.731
 21
108.414
  0
LINE
  8
0
 10
162.731
 20
108.414
 11
162.508
 21
108.521
  0
LINE
  8
0
 10
162.508
 20
108.521
 11
162.305
 21
108.66
  0
LINE
  8
0
 10
162.305
 20
108.66
 11
162.124
 21
108.828
  0
LINE
  8
0
 10
162.124
 20
108.828
 11
161.97
 21
109.021
  0
LINE
  8
0
 10
161.97
 20
109.021
 11
161.847
 21
109.234
  0
LINE
  8
0
 10
161.847
 20
109.234
 11
161.757
 21
109.464
  0
LINE
  8
0
 10
161.757
 20
109.464
 11
161.702
 21
109.704
  0
LINE
  8
0
 10
161.702
 20
109.704
 11
161.683
 21
109.95
  0
LINE
  8
0
 10
161.683
 20
109.95
 11
161.702
 21
110.196
  0
LINE
  8
0
 10
161.702
 20
110.196
 11
161.757
 21
110.436
  0
LINE
  8
0
 10
161.757
 20
110.436
 11
161.847
 21
110.666
  0
LINE
  8
0
 10
161.847
 20
110.666
 11
161.97
 21
110.879
  0
LINE
  8
0
 10
161.97
 20
110.879
 11
162.124
 21
111.072
  0
LINE
  8
0
 10
162.124
 20
111.072
 11
162.305
 21
111.24
  0
LINE
  8
0
 10
162.305
 20
111.24
 11
162.508
 21
111.379
  0
LINE
  8
0
 10
162.508
 20
111.379
 11
162.731
 21
111.486
  0
LINE
  8
0
 10
162.731
 20
111.486
 11
162.966
 21
111.559
  0
LINE
  8
0
 10
162.966
 20
111.559
 11
163.21
 21
111.595
  0
LINE
  8
0
 10
163.21
 20
111.595
 11
203.457
 21
111.595
  0
LINE
  8
0
 10
203.457
 20
111.595
 11
203.701
 21
111.559
  0
LINE
  8
0
 10
203.701
 20
111.559
 11
203.936
 21
111.486
  0
LINE
  8
0
 10
203.936
 20
111.486
 11
204.158
 21
111.379
  0
LINE
  8
0
 10
204.158
 20
111.379
 11
204.362
 21
111.24
  0
LINE
  8
0
 10
204.362
 20
111.24
 11
204.543
 21
111.072
  0
LINE
  8
0
 10
204.543
 20
111.072
 11
204.697
 21
110.879
  0
LINE
  8
0
 10
204.697
 20
110.879
 11
204.82
 21
110.666
  0
LINE
  8
0
 10
204.82
 20
110.666
 11
204.91
 21
110.436
  0
LINE
  8
0
 10
204.91
 20
110.436
 11
204.965
 21
110.196
  0
LINE
  8
0
 10
204.965
 20
110.196
 11
204.983
 21
109.95
  0
LINE
  8
0
 10
204.983
 20
109.95
 11
204.965
 21
109.704
  0
LINE
  8
0
 10
204.965
 20
109.704
 11
204.91
 21
109.464
  0
LINE
  8
0
 10
204.91
 20
109.464
 11
204.82
 21
109.234
  0
LINE
  8
0
 10
204.82
 20
109.234
 11
204.697
 21
109.021
  0
LINE
  8
0
 10
204.697
 20
109.021
 11
204.543
 21
108.828
  0
LINE
  8
0
 10
204.543
 20
108.828
 11
204.362
 21
108.66
  0
LINE
  8
0
 10
204.362
 20
108.66
 11
204.158
 21
108.521
  0
LINE
  8
0
 10
204.158
 20
108.521
 11
203.936
 21
108.414
  0
LINE
  8
0
 10
203.936
 20
108.414
 11
203.701
 21
108.341
  0
LINE
  8
0
 10
203.701
 20
108.341
 11
203.457
 21
108.305
  0
LINE
  8
0
 10
203.457
 20
108.305
 11
163.21
 21
108.305
  0
LINE
  8
0
 10
-295.123
 20
108.305
 11
-295.367
 21
108.341
  0
LINE
  8
0
 10
-295.367
 20
108.341
 11
-295.603
 21
108.414
  0
LINE
  8
0
 10
-295.603
 20
108.414
 11
-295.825
 21
108.521
  0
LINE
  8
0
 10
-295.825
 20
108.521
 11
-296.029
 21
108.66
  0
LINE
  8
0
 10
-296.029
 20
108.66
 11
-296.21
 21
108.828
  0
LINE
  8
0
 10
-296.21
 20
108.828
 11
-296.363
 21
109.021
  0
LINE
  8
0
 10
-296.363
 20
109.021
 11
-296.487
 21
109.234
  0
LINE
  8
0
 10
-296.487
 20
109.234
 11
-296.577
 21
109.464
  0
LINE
  8
0
 10
-296.577
 20
109.464
 11
-296.632
 21
109.704
  0
LINE
  8
0
 10
-296.632
 20
109.704
 11
-296.65
 21
109.95
  0
LINE
  8
0
 10
-296.65
 20
109.95
 11
-296.632
 21
110.196
  0
LINE
  8
0
 10
-296.632
 20
110.196
 11
-296.577
 21
110.436
  0
LINE
  8
0
 10
-296.577
 20
110.436
 11
-296.487
 21
110.666
  0
LINE
  8
0
 10
-296.487
 20
110.666
 11
-296.363
 21
110.879
  0
LINE
  8
0
 10
-296.363
 20
110.879
 11
-296.21
 21
111.072
  0
LINE
  8
0
 10
-296.21
 20
111.072
 11
-296.029
 21
111.24
  0
LINE
  8
0
 10
-296.029
 20
111.24
 11
-295.825
 21
111.379
  0
LINE
  8
0
 10
-295.825
 20
111.379
 11
-295.603
 21
111.486
  0
LINE
  8
0
 10
-295.603
 20
111.486
 11
-295.367
 21
111.559
  0
LINE
  8
0
 10
-295.367
 20
111.559
 11
-295.123
 21
111.595
  0
LINE
  8
0
 10
-295.123
 20
111.595
 11
-254.877
 21
111.595
  0
LINE
  8
0
 10
-254.877
 20
111.595
 11
-254.633
 21
111.559
  0
LINE
  8
0
 10
-254.633
 20
111.559
 11
-254.397
 21
111.486
  0
LINE
  8
0
 10
-254.397
 20
111.486
 11
-254.175
 21
111.379
  0
LINE
  8
0
 10
-254.175
 20
111.379
 11
-253.971
 21
111.24
  0
LINE
  8
0
 10
-253.971
 20
111.24
 11
-253.79
 21
111.072
  0
LINE
  8
0
 10
-253.79
 20
111.072
 11
-253.637
 21
110.879
  0
LINE
  8
0
 10
-253.637
 20
110.879
 11
-253.513
 21
110.666
  0
LINE
  8
0
 10
-253.513
 20
110.666
 11
-253.423
 21
110.436
  0
LINE
  8
0
 10
-253.423
 20
110.436
 11
-253.368
 21
110.196
  0
LINE
  8
0
 10
-253.368
 20
110.196
 11
-253.35
 21
109.95
  0
LINE
  8
0
 10
-253.35
 20
109.95
 11
-253.368
 21
109.704
  0
LINE
  8
0
 10
-253.368
 20
109.704
 11
-253.423
 21
109.464
  0
LINE
  8
0
 10
-253.423
 20
109.464
 11
-253.513
 21
109.234
  0
LINE
  8
0
 10
-253.513
 20
109.234
 11
-253.637
 21
109.021
  0
LINE
  8
0
 10
-253.637
 20
109.021
 11
-253.79
 21
108.828
  0
LINE
  8
0
 10
-253.79
 20
108.828
 11
-253.971
 21
108.66
  0
LINE
  8
0
 10
-253.971
 20
108.66
 11
-254.175
 21
108.521
  0
LINE
  8
0
 10
-254.175
 20
108.521
 11
-254.397
 21
108.414
  0
LINE
  8
0
 10
-254.397
 20
108.414
 11
-254.633
 21
108.341
  0
LINE
  8
0
 10
-254.633
 20
108.341
 11
-254.877
 21
108.305
  0
LINE
  8
0
 10
-254.877
 20
108.305
 11
-295.123
 21
108.305
  0
LINE
  8
0
 10
-20.1233
 20
108.305
 11
-20.3672
 21
108.341
  0
LINE
  8
0
 10
-20.3672
 20
108.341
 11
-20.6028
 21
108.414
  0
LINE
  8
0
 10
-20.6028
 20
108.414
 11
-20.825
 21
108.521
  0
LINE
  8
0
 10
-20.825
 20
108.521
 11
-21.0287
 21
108.66
  0
LINE
  8
0
 10
-21.0287
 20
108.66
 11
-21.2095
 21
108.828
  0
LINE
  8
0
 10
-21.2095
 20
108.828
 11
-21.3633
 21
109.021
  0
LINE
  8
0
 10
-21.3633
 20
109.021
 11
-21.4866
 21
109.234
  0
LINE
  8
0
 10
-21.4866
 20
109.234
 11
-21.5767
 21
109.464
  0
LINE
  8
0
 10
-21.5767
 20
109.464
 11
-21.6316
 21
109.704
  0
LINE
  8
0
 10
-21.6316
 20
109.704
 11
-21.65
 21
109.95
  0
LINE
  8
0
 10
-21.65
 20
109.95
 11
-21.6316
 21
110.196
  0
LINE
  8
0
 10
-21.6316
 20
110.196
 11
-21.5767
 21
110.436
  0
LINE
  8
0
 10
-21.5767
 20
110.436
 11
-21.4866
 21
110.666
  0
LINE
  8
0
 10
-21.4866
 20
110.666
 11
-21.3633
 21
110.879
  0
LINE
  8
0
 10
-21.3633
 20
110.879
 11
-21.2095
 21
111.072
  0
LINE
  8
0
 10
-21.2095
 20
111.072
 11
-21.0287
 21
111.24
  0
LINE
  8
0
 10
-21.0287
 20
111.24
 11
-20.825
 21
111.379
  0
LINE
  8
0
 10
-20.825
 20
111.379
 11
-20.6028
 21
111.486
  0
LINE
  8
0
 10
-20.6028
 20
111.486
 11
-20.3672
 21
111.559
  0
LINE
  8
0
 10
-20.3672
 20
111.559
 11
-20.1233
 21
111.595
  0
LINE
  8
0
 10
-20.1233
 20
111.595
 11
20.1233
 21
111.595
  0
LINE
  8
0
 10
20.1233
 20
111.595
 11
20.3672
 21
111.559
  0
LINE
  8
0
 10
20.3672
 20
111.559
 11
20.6028
 21
111.486
  0
LINE
  8
0
 10
20.6028
 20
111.486
 11
20.825
 21
111.379
  0
LINE
  8
0
 10
20.825
 20
111.379
 11
21.0287
 21
111.24
  0
LINE
  8
0
 10
21.0287
 20
111.24
 11
21.2095
 21
111.072
  0
LINE
  8
0
 10
21.2095
 20
111.072
 11
21.3633
 21
110.879
  0
LINE
  8
0
 10
21.3633
 20
110.879
 11
21.4866
 21
110.666
  0
LINE
  8
0
 10
21.4866
 20
110.666
 11
21.5767
 21
110.436
  0
LINE
  8
0
 10
21.5767
 20
110.436
 11
21.6316
 21
110.196
  0
LINE
  8
0
 10
21.6316
 20
110.196
 11
21.65
 21
109.95
  0
LINE
  8
0
 10
21.65
 20
109.95
 11
21.6316
 21
109.704
  0
LINE
  8
0
 10
21.6316
 20
109.704
 11
21.5767
 21
109.464
  0
LINE
  8
0
 10
21.5767
 20
109.464
 11
21.4866
 21
109.234
  0
LINE
  8
0
 10
21.4866
 20
109.234
 11
21.3633
 21
109.021
  0
LINE
  8
0
 10
21.3633
 20
109.021
 11
21.2095
 21
108.828
  0
LINE
  8
0
 10
21.2095
 20
108.828
 11
21.0287
 21
108.66
  0
LINE
  8
0
 10
21.0287
 20
108.66
 11
20.825
 21
108.521
  0
LINE
  8
0
 10
20.825
 20
108.521
 11
20.6028
 21
108.414
  0
LINE
  8
0
 10
20.6028
 20
108.414
 11
20.3672
 21
108.341
  0
LINE
  8
0
 10
20.3672
 20
108.341
 11
20.1233
 21
108.305
  0
LINE
  8
0
 10
20.1233
 20
108.305
 11
-20.1233
 21
108.305
  0
LINE
  8
0
 10
71.5434
 20
108.305
 11
71.2995
 21
108.341
  0
LINE
  8
0
 10
71.2995
 20
108.341
 11
71.0638
 21
108.414
  0
LINE
  8
0
 10
71.0638
 20
108.414
 11
70.8417
 21
108.521
  0
LINE
  8
0
 10
70.8417
 20
108.521
 11
70.6379
 21
108.66
  0
LINE
  8
0
 10
70.6379
 20
108.66
 11
70.4571
 21
108.828
  0
LINE
  8
0
 10
70.4571
 20
108.828
 11
70.3034
 21
109.021
  0
LINE
  8
0
 10
70.3034
 20
109.021
 11
70.1801
 21
109.234
  0
LINE
  8
0
 10
70.1801
 20
109.234
 11
70.09
 21
109.464
  0
LINE
  8
0
 10
70.09
 20
109.464
 11
70.0351
 21
109.704
  0
LINE
  8
0
 10
70.0351
 20
109.704
 11
70.0167
 21
109.95
  0
LINE
  8
0
 10
70.0167
 20
109.95
 11
70.0351
 21
110.196
  0
LINE
  8
0
 10
70.0351
 20
110.196
 11
70.09
 21
110.436
  0
LINE
  8
0
 10
70.09
 20
110.436
 11
70.1801
 21
110.666
  0
LINE
  8
0
 10
70.1801
 20
110.666
 11
70.3034
 21
110.879
  0
LINE
  8
0
 10
70.3034
 20
110.879
 11
70.4571
 21
111.072
  0
LINE
  8
0
 10
70.4571
 20
111.072
 11
70.6379
 21
111.24
  0
LINE
  8
0
 10
70.6379
 20
111.24
 11
70.8417
 21
111.379
  0
LINE
  8
0
 10
70.8417
 20
111.379
 11
71.0638
 21
111.486
  0
LINE
  8
0
 10
71.0638
 20
111.486
 11
71.2995
 21
111.559
  0
LINE
  8
0
 10
71.2995
 20
111.559
 11
71.5434
 21
111.595
  0
LINE
  8
0
 10
71.5434
 20
111.595
 11
111.79
 21
111.595
  0
LINE
  8
0
 10
111.79
 20
111.595
 11
112.034
 21
111.559
  0
LINE
  8
0
 10
112.034
 20
111.559
 11
112.269
 21
111.486
  0
LINE
  8
0
 10
112.269
 20
111.486
 11
112.492
 21
111.379
  0
LINE
  8
0
 10
112.492
 20
111.379
 11
112.695
 21
111.24
  0
LINE
  8
0
 10
112.695
 20
111.24
 11
112.876
 21
111.072
  0
LINE
  8
0
 10
112.876
 20
111.072
 11
113.03
 21
110.879
  0
LINE
  8
0
 10
113.03
 20
110.879
 11
113.153
 21
110.666
  0
LINE
  8
0
 10
113.153
 20
110.666
 11
113.243
 21
110.436
  0
LINE
  8
0
 10
113.243
 20
110.436
 11
113.298
 21
110.196
  0
LINE
  8
0
 10
113.298
 20
110.196
 11
113.317
 21
109.95
  0
LINE
  8
0
 10
113.317
 20
109.95
 11
113.298
 21
109.704
  0
LINE
  8
0
 10
113.298
 20
109.704
 11
113.243
 21
109.464
  0
LINE
  8
0
 10
113.243
 20
109.464
 11
113.153
 21
109.234
  0
LINE
  8
0
 10
113.153
 20
109.234
 11
113.03
 21
109.021
  0
LINE
  8
0
 10
113.03
 20
109.021
 11
112.876
 21
108.828
  0
LINE
  8
0
 10
112.876
 20
108.828
 11
112.695
 21
108.66
  0
LINE
  8
0
 10
112.695
 20
108.66
 11
112.492
 21
108.521
  0
LINE
  8
0
 10
112.492
 20
108.521
 11
112.269
 21
108.414
  0
LINE
  8
0
 10
112.269
 20
108.414
 11
112.034
 21
108.341
  0
LINE
  8
0
 10
112.034
 20
108.341
 11
111.79
 21
108.305
  0
LINE
  8
0
 10
111.79
 20
108.305
 11
71.5434
 21
108.305
  0
LINE
  8
0
 10
254.877
 20
108.305
 11
254.633
 21
108.341
  0
LINE
  8
0
 10
254.633
 20
108.341
 11
254.397
 21
108.414
  0
LINE
  8
0
 10
254.397
 20
108.414
 11
254.175
 21
108.521
  0
LINE
  8
0
 10
254.175
 20
108.521
 11
253.971
 21
108.66
  0
LINE
  8
0
 10
253.971
 20
108.66
 11
253.79
 21
108.828
  0
LINE
  8
0
 10
253.79
 20
108.828
 11
253.637
 21
109.021
  0
LINE
  8
0
 10
253.637
 20
109.021
 11
253.513
 21
109.234
  0
LINE
  8
0
 10
253.513
 20
109.234
 11
253.423
 21
109.464
  0
LINE
  8
0
 10
253.423
 20
109.464
 11
253.368
 21
109.704
  0
LINE
  8
0
 10
253.368
 20
109.704
 11
253.35
 21
109.95
  0
LINE
  8
0
 10
253.35
 20
109.95
 11
253.368
 21
110.196
  0
LINE
  8
0
 10
253.368
 20
110.196
 11
253.423
 21
110.436
  0
LINE
  8
0
 10
253.423
 20
110.436
 11
253.513
 21
110.666
  0
LINE
  8
0
 10
253.513
 20
110.666
 11
253.637
 21
110.879
  0
LINE
  8
0
 10
253.637
 20
110.879
 11
253.79
 21
111.072
  0
LINE
  8
0
 10
253.79
 20
111.072
 11
253.971
 21
111.24
  0
LINE
  8
0
 10
253.971
 20
111.24
 11
254.175
 21
111.379
  0
LINE
  8
0
 10
254.175
 20
111.379
 11
254.397
 21
111.486
  0
LINE
  8
0
 10
254.397
 20
111.486
 11
254.633
 21
111.559
  0
LINE
  8
0
 10
254.633
 20
111.559
 11
254.877
 21
111.595
  0
LINE
  8
0
 10
254.877
 20
111.595
 11
295.123
 21
111.595
  0
LINE
  8
0
 10
295.123
 20
111.595
 11
295.367
 21
111.559
  0
LINE
  8
0
 10
295.367
 20
111.559
 11
295.603
 21
111.486
  0
LINE
  8
0
 10
295.603
 20
111.486
 11
295.825
 21
111.379
  0
LINE
  8
0
 10
295.825
 20
111.379
 11
296.029
 21
111.24
  0
LINE
  8
0
 10
296.029
 20
111.24
 11
296.21
 21
111.072
  0
LINE
  8
0
 10
296.21
 20
111.072
 11
296.363
 21
110.879
  0
LINE
  8
0
 10
296.363
 20
110.879
 11
296.487
 21
110.666
  0
LINE
  8
0
 10
296.487
 20
110.666
 11
296.577
 21
110.436
  0
LINE
  8
0
 10
296.577
 20
110.436
 11
296.632
 21
110.196
  0
LINE
  8
0
 10
296.632
 20
110.196
 11
296.65
 21
109.95
  0
LINE
  8
0
 10
296.65
 20
109.95
 11
296.632
 21
109.704
  0
LINE
  8
0
 10
296.632
 20
109.704
 11
296.577
 21
109.464
  0
LINE
  8
0
 10
296.577
 20
109.464
 11
296.487
 21
109.234
  0
LINE
  8
0
 10
296.487
 20
109.234
 11
296.363
 21
109.021
  0
LINE
  8
0
 10
296.363
 20
109.021
 11
296.21
 21
108.828
  0
LINE
  8
0
 10
296.21
 20
108.828
 11
296.029
 21
108.66
  0
LINE
  8
0
 10
296.029
 20
108.66
 11
295.825
 21
108.521
  0
LINE
  8
0
 10
295.825
 20
108.521
 11
295.603
 21
108.414
  0
LINE
  8
0
 10
295.603
 20
108.414
 11
295.367
 21
108.341
  0
LINE
  8
0
 10
295.367
 20
108.341
 11
295.123
 21
108.305
  0
LINE
  8
0
 10
295.123
 20
108.305
 11
254.877
 21
108.305
  0
LINE
  8
0
 10
-203.457
 20
108.305
 11
-203.701
 21
108.341
  0
LINE
  8
0
 10
-203.701
 20
108.341
 11
-203.936
 21
108.414
  0
LINE
  8
0
 10
-203.936
 20
108.414
 11
-204.158
 21
108.521
  0
LINE
  8
0
 10
-204.158
 20
108.521
 11
-204.362
 21
108.66
  0
LINE
  8
0
 10
-204.362
 20
108.66
 11
-204.543
 21
108.828
  0
LINE
  8
0
 10
-204.543
 20
108.828
 11
-204.697
 21
109.021
  0
LINE
  8
0
 10
-204.697
 20
109.021
 11
-204.82
 21
109.234
  0
LINE
  8
0
 10
-204.82
 20
109.234
 11
-204.91
 21
109.464
  0
LINE
  8
0
 10
-204.91
 20
109.464
 11
-204.965
 21
109.704
  0
LINE
  8
0
 10
-204.965
 20
109.704
 11
-204.983
 21
109.95
  0
LINE
  8
0
 10
-204.983
 20
109.95
 11
-204.965
 21
110.196
  0
LINE
  8
0
 10
-204.965
 20
110.196
 11
-204.91
 21
110.436
  0
LINE
  8
0
 10
-204.91
 20
110.436
 11
-204.82
 21
110.666
  0
LINE
  8
0
 10
-204.82
 20
110.666
 11
-204.697
 21
110.879
  0
LINE
  8
0
 10
-204.697
 20
110.879
 11
-204.543
 21
111.072
  0
LINE
  8
0
 10
-204.543
 20
111.072
 11
-204.362
 21
111.24
  0
LINE
  8
0
 10
-204.362
 20
111.24
 11
-204.158
 21
111.379
  0
LINE
  8
0
 10
-204.158
 20
111.379
 11
-203.936
 21
111.486
  0
LINE
  8
0
 10
-203.936
 20
111.486
 11
-203.701
 21
111.559
  0
LINE
  8
0
 10
-203.701
 20
111.559
 11
-203.457
 21
111.595
  0
LINE
  8
0
 10
-203.457
 20
111.595
 11
-163.21
 21
111.595
  0
LINE
  8
0
 10
-163.21
 20
111.595
 11
-162.966
 21
111.559
  0
LINE
  8
0
 10
-162.966
 20
111.559
 11
-162.731
 21
111.486
  0
LINE
  8
0
 10
-162.731
 20
111.486
 11
-162.508
 21
111.379
  0
LINE
  8
0
 10
-162.508
 20
111.379
 11
-162.305
 21
111.24
  0
LINE
  8
0
 10
-162.305
 20
111.24
 11
-162.124
 21
111.072
  0
LINE
  8
0
 10
-162.124
 20
111.072
 11
-161.97
 21
110.879
  0
LINE
  8
0
 10
-161.97
 20
110.879
 11
-161.847
 21
110.666
  0
LINE
  8
0
 10
-161.847
 20
110.666
 11
-161.757
 21
110.436
  0
LINE
  8
0
 10
-161.757
 20
110.436
 11
-161.702
 21
110.196
  0
LINE
  8
0
 10
-161.702
 20
110.196
 11
-161.683
 21
109.95
  0
LINE
  8
0
 10
-161.683
 20
109.95
 11
-161.702
 21
109.704
  0
LINE
  8
0
 10
-161.702
 20
109.704
 11
-161.757
 21
109.464
  0
LINE
  8
0
 10
-161.757
 20
109.464
 11
-161.847
 21
109.234
  0
LINE
  8
0
 10
-161.847
 20
109.234
 11
-161.97
 21
109.021
  0
LINE
  8
0
 10
-161.97
 20
109.021
 11
-162.124
 21
108.828
  0
LINE
  8
0
 10
-162.124
 20
108.828
 11
-162.305
 21
108.66
  0
LINE
  8
0
 10
-162.305
 20
108.66
 11
-162.508
 21
108.521
  0
LINE
  8
0
 10
-162.508
 20
108.521
 11
-162.731
 21
108.414
  0
LINE
  8
0
 10
-162.731
 20
108.414
 11
-162.966
 21
108.341
  0
LINE
  8
0
 10
-162.966
 20
108.341
 11
-163.21
 21
108.305
  0
LINE
  8
0
 10
-163.21
 20
108.305
 11
-203.457
 21
108.305
  0
LINE
  8
0
 10
-111.79
 20
108.305
 11
-112.034
 21
108.341
  0
LINE
  8
0
 10
-112.034
 20
108.341
 11
-112.269
 21
108.414
  0
LINE
  8
0
 10
-112.269
 20
108.414
 11
-112.492
 21
108.521
  0
LINE
  8
0
 10
-112.492
 20
108.521
 11
-112.695
 21
108.66
  0
LINE
  8
0
 10
-112.695
 20
108.66
 11
-112.876
 21
108.828
  0
LINE
  8
0
 10
-112.876
 20
108.828
 11
-113.03
 21
109.021
  0
LINE
  8
0
 10
-113.03
 20
109.021
 11
-113.153
 21
109.234
  0
LINE
  8
0
 10
-113.153
 20
109.234
 11
-113.243
 21
109.464
  0
LINE
  8
0
 10
-113.243
 20
109.464
 11
-113.298
 21
109.704
  0
LINE
  8
0
 10
-113.298
 20
109.704
 11
-113.317
 21
109.95
  0
LINE
  8
0
 10
-113.317
 20
109.95
 11
-113.298
 21
110.196
  0
LINE
  8
0
 10
-113.298
 20
110.196
 11
-113.243
 21
110.436
  0
LINE
  8
0
 10
-113.243
 20
110.436
 11
-113.153
 21
110.666
  0
LINE
  8
0
 10
-113.153
 20
110.666
 11
-113.03
 21
110.879
  0
LINE
  8
0
 10
-113.03
 20
110.879
 11
-112.876
 21
111.072
  0
LINE
  8
0
 10
-112.876
 20
111.072
 11
-112.695
 21
111.24
  0
LINE
  8
0
 10
-112.695
 20
111.24
 11
-112.492
 21
111.379
  0
LINE
  8
0
 10
-112.492
 20
111.379
 11
-112.269
 21
111.486
  0
LINE
  8
0
 10
-112.269
 20
111.486
 11
-112.034
 21
111.559
  0
LINE
  8
0
 10
-112.034
 20
111.559
 11
-111.79
 21
111.595
  0
LINE
  8
0
 10
-111.79
 20
111.595
 11
-71.5434
 21
111.595
  0
LINE
  8
0
 10
-71.5434
 20
111.595
 11
-71.2995
 21
111.559
  0
LINE
  8
0
 10
-71.2995
 20
111.559
 11
-71.0638
 21
111.486
  0
LINE
  8
0
 10
-71.0638
 20
111.486
 11
-70.8417
 21
111.379
  0
LINE
  8
0
 10
-70.8417
 20
111.379
 11
-70.6379
 21
111.24
  0
LINE
  8
0
 10
-70.6379
 20
111.24
 11
-70.4571
 21
111.072
  0
LINE
  8
0
 10
-70.4571
 20
111.072
 11
-70.3034
 21
110.879
  0
LINE
  8
0
 10
-70.3034
 20
110.879
 11
-70.1801
 21
110.666
  0
LINE
  8
0
 10
-70.1801
 20
110.666
 11
-70.09
 21
110.436
  0
LINE
  8
0
 10
-70.09
 20
110.436
 11
-70.0351
 21
110.196
  0
LINE
  8
0
 10
-70.0351
 20
110.196
 11
-70.0167
 21
109.95
  0
LINE
  8
0
 10
-70.0167
 20
109.95
 11
-70.0351
 21
109.704
  0
LINE
  8
0
 10
-70.0351
 20
109.704
 11
-70.09
 21
109.464
  0
LINE
  8
0
 10
-70.09
 20
109.464
 11
-70.1801
 21
109.234
  0
LINE
  8
0
 10
-70.1801
 20
109.234
 11
-70.3034
 21
109.021
  0
LINE
  8
0
 10
-70.3034
 20
109.021
 11
-70.4571
 21
108.828
  0
LINE
  8
0
 10
-70.4571
 20
108.828
 11
-70.6379
 21
108.66
  0
LINE
  8
0
 10
-70.6379
 20
108.66
 11
-70.8417
 21
108.521
  0
LINE
  8
0
 10
-70.8417
 20
108.521
 11
-71.0638
 21
108.414
  0
LINE
  8
0
 10
-71.0638
 20
108.414
 11
-71.2995
 21
108.341
  0
LINE
  8
0
 10
-71.2995
 20
108.341
 11
-71.5434
 21
108.305
  0
LINE
  8
0
 10
-71.5434
 20
108.305
 11
-111.79
 21
108.305
  0
LINE
  8
0
 10
314.754
 20
48.3184
 11
314.514
 21
48.3733
  0
LINE
  8
0
 10
314.514
 20
48.3733
 11
314.284
 21
48.4634
  0
LINE
  8
0
 10
314.284
 20
48.4634
 11
314.071
 21
48.5867
  0
LINE
  8
0
 10
314.071
 20
48.5867
 11
313.878
 21
48.7405
  0
LINE
  8
0
 10
313.878
 20
48.7405
 11
313.71
 21
48.9212
  0
LINE
  8
0
 10
313.71
 20
48.9212
 11
313.571
 21
49.125
  0
LINE
  8
0
 10
313.571
 20
49.125
 11
313.464
 21
49.3472
  0
LINE
  8
0
 10
313.464
 20
49.3472
 11
313.391
 21
49.5828
  0
LINE
  8
0
 10
313.391
 20
49.5828
 11
313.355
 21
49.8267
  0
LINE
  8
0
 10
313.355
 20
49.8267
 11
313.355
 21
90.0733
  0
LINE
  8
0
 10
313.355
 20
90.0733
 11
313.391
 21
90.3172
  0
LINE
  8
0
 10
313.391
 20
90.3172
 11
313.464
 21
90.5528
  0
LINE
  8
0
 10
313.464
 20
90.5528
 11
313.571
 21
90.775
  0
LINE
  8
0
 10
313.571
 20
90.775
 11
313.71
 21
90.9788
  0
LINE
  8
0
 10
313.71
 20
90.9788
 11
313.878
 21
91.1595
  0
LINE
  8
0
 10
313.878
 20
91.1595
 11
314.071
 21
91.3133
  0
LINE
  8
0
 10
314.071
 20
91.3133
 11
314.284
 21
91.4366
  0
LINE
  8
0
 10
314.284
 20
91.4366
 11
314.514
 21
91.5267
  0
LINE
  8
0
 10
314.514
 20
91.5267
 11
314.754
 21
91.5816
  0
LINE
  8
0
 10
314.754
 20
91.5816
 11
315
 21
91.6
  0
LINE
  8
0
 10
315
 20
91.6
 11
315.246
 21
91.5816
  0
LINE
  8
0
 10
315.246
 20
91.5816
 11
315.486
 21
91.5267
  0
LINE
  8
0
 10
315.486
 20
91.5267
 11
315.716
 21
91.4366
  0
LINE
  8
0
 10
315.716
 20
91.4366
 11
315.929
 21
91.3133
  0
LINE
  8
0
 10
315.929
 20
91.3133
 11
316.122
 21
91.1595
  0
LINE
  8
0
 10
316.122
 20
91.1595
 11
316.29
 21
90.9788
  0
LINE
  8
0
 10
316.29
 20
90.9788
 11
316.429
 21
90.775
  0
LINE
  8
0
 10
316.429
 20
90.775
 11
316.536
 21
90.5528
  0
LINE
  8
0
 10
316.536
 20
90.5528
 11
316.609
 21
90.3172
  0
LINE
  8
0
 10
316.609
 20
90.3172
 11
316.645
 21
90.0733
  0
LINE
  8
0
 10
316.645
 20
90.0733
 11
316.645
 21
49.8267
  0
LINE
  8
0
 10
316.645
 20
49.8267
 11
316.609
 21
49.5828
  0
LINE
  8
0
 10
316.609
 20
49.5828
 11
316.536
 21
49.3472
  0
LINE
  8
0
 10
316.536
 20
49.3472
 11
316.429
 21
49.125
  0
LINE
  8
0
 10
316.429
 20
49.125
 11
316.29
 21
48.9212
  0
LINE
  8
0
 10
316.29
 20
48.9212
 11
316.122
 21
48.7405
  0
LINE
  8
0
 10
316.122
 20
48.7405
 11
315.929
 21
48.5867
  0
LINE
  8
0
 10
315.929
 20
48.5867
 11
315.716
 21
48.4634
  0
LINE
  8
0
 10
315.716
 20
48.4634
 11
315.486
 21
48.3733
  0
LINE
  8
0
 10
315.486
 20
48.3733
 11
315.246
 21
48.3184
  0
LINE
  8
0
 10
315.246
 20
48.3184
 11
315
 21
48.3
  0
LINE
  8
0
 10
315
 20
48.3
 11
314.754
 21
48.3184
  0
LINE
  8
0
 10
-315.246
 20
48.3184
 11
-315.486
 21
48.3733
  0
LINE
  8
0
 10
-315.486
 20
48.3733
 11
-315.716
 21
48.4634
  0
LINE
  8
0
 10
-315.716
 20
48.4634
 11
-315.929
 21
48.5867
  0
LINE
  8
0
 10
-315.929
 20
48.5867
 11
-316.122
 21
48.7405
  0
LINE
  8
0
 10
-316.122
 20
48.7405
 11
-316.29
 21
48.9212
  0
LINE
  8
0
 10
-316.29
 20
48.9212
 11
-316.429
 21
49.125
  0
LINE
  8
0
 10
-316.429
 20
49.125
 11
-316.536
 21
49.3472
  0
LINE
  8
0
 10
-316.536
 20
49.3472
 11
-316.609
 21
49.5828
  0
LINE
  8
0
 10
-316.609
 20
49.5828
 11
-316.645
 21
49.8267
  0
LINE
  8
0
 10
-316.645
 20
49.8267
 11
-316.645
 21
90.0733
  0
LINE
  8
0
 10
-316.645
 20
90.0733
 11
-316.609
 21
90.3172
  0
LINE
  8
0
 10
-316.609
 20
90.3172
 11
-316.536
 21
90.5528
  0
LINE
  8
0
 10
-316.536
 20
90.5528
 11
-316.429
 21
90.775
  0
LINE
  8
0
 10
-316.429
 20
90.775
 11
-316.29
 21
90.9788
  0
LINE
  8
0
 10
-316.29
 20
90.9788
 11
-316.122
 21
91.1595
  0
LINE
  8
0
 10
-316.122
 20
91.1595
 11
-315.929
 21
91.3133
  0
LINE
  8
0
 10
-315.929
 20
91.3133
 11
-315.716
 21
91.4366
  0
LINE
  8
0
 10
-315.716
 20
91.4366
 11
-315.486
 21
91.5267
  0
LINE
  8
0
 10
-315.486
 20
91.5267
 11
-315.246
 21
91.5816
  0
LINE
  8
0
 10
-315.246
 20
91.5816
 11
-315
 21
91.6
  0
LINE
  8
0
 10
-315
 20
91.6
 11
-314.754
 21
91.5816
  0
LINE
  8
0
 10
-314.754
 20
91.5816
 11
-314.514
 21
91.5267
  0
LINE
  8
0
 10
-314.514
 20
91.5267
 11
-314.284
 21
91.4366
  0
LINE
  8
0
 10
-314.284
 20
91.4366
 11
-314.071
 21
91.3133
  0
LINE
  8
0
 10
-314.071
 20
91.3133
 11
-313.878
 21
91.1595
  0
LINE
  8
0
 10
-313.878
 20
91.1595
 11
-313.71
 21
90.9788
  0
LINE
  8
0
 10
-313.71
 20
90.9788
 11
-313.571
 21
90.775
  0
LINE
  8
0
 10
-313.571
 20
90.775
 11
-313.464
 21
90.5528
  0
LINE
  8
0
 10
-313.464
 20
90.5528
 11
-313.391
 21
90.3172
  0
LINE
  8
0
 10
-313.391
 20
90.3172
 11
-313.355
 21
90.0733
  0
LINE
  8
0
 10
-313.355
 20
90.0733
 11
-313.355
 21
49.8267
  0
LINE
  8
0
 10
-313.355
 20
49.8267
 11
-313.391
 21
49.5828
  0
LINE
  8
0
 10
-313.391
 20
49.5828
 11
-313.464
 21
49.3472
  0
LINE
  8
0
 10
-313.464
 20
49.3472
 11
-313.571
 21
49.125
  0
LINE
  8
0
 10
-313.571
 20
49.125
 11
-313.71
 21
48.9212
  0
LINE
  8
0
 10
-313.71
 20
48.9212
 11
-313.878
 21
48.7405
  0
LINE
  8
0
 10
-313.878
 20
48.7405
 11
-314.071
 21
48.5867
  0
LINE
  8
0
 10
-314.071
 20
48.5867
 11
-314.284
 21
48.4634
  0
LINE
  8
0
 10
-314.284
 20
48.4634
 11
-314.514
 21
48.3733
  0
LINE
  8
0
 10
-314.514
 20
48.3733
 11
-314.754
 21
48.3184
  0
LINE
  8
0
 10
-314.754
 20
48.3184
 11
-315
 21
48.3
  0
LINE
  8
0
 10
-315
 20
48.3
 11
-315.246
 21
48.3184
  0
LINE
  8
0
 10
314.754
 20
-21.6316
 11
314.514
 21
-21.5767
  0
LINE
  8
0
 10
314.514
 20
-21.5767
 11
314.284
 21
-21.4866
  0
LINE
  8
0
 10
314.284
 20
-21.4866
 11
314.071
 21
-21.3633
  0
LINE
  8
0
 10
314.071
 20
-21.3633
 11
313.878
 21
-21.2095
  0
LINE
  8
0
 10
313.878
 20
-21.2095
 11
313.71
 21
-21.0287
  0
LINE
  8
0
 10
313.71
 20
-21.0287
 11
313.571
 21
-20.825
  0
LINE
  8
0
 10
313.571
 20
-20.825
 11
313.464
 21
-20.6028
  0
LINE
  8
0
 10
313.464
 20
-20.6028
 11
313.391
 21
-20.3672
  0
LINE
  8
0
 10
313.391
 20
-20.3672
 11
313.355
 21
-20.1233
  0
LINE
  8
0
 10
313.355
 20
-20.1233
 11
313.355
 21
20.1233
  0
LINE
  8
0
 10
313.355
 20
20.1233
 11
313.391
 21
20.3672
  0
LINE
  8
0
 10
313.391
 20
20.3672
 11
313.464
 21
20.6028
  0
LINE
  8
0
 10
313.464
 20
20.6028
 11
313.571
 21
20.825
  0
LINE
  8
0
 10
313.571
 20
20.825
 11
313.71
 21
21.0287
  0
LINE
  8
0
 10
313.71
 20
21.0287
 11
313.878
 21
21.2095
  0
LINE
  8
0
 10
313.878
 20
21.2095
 11
314.071
 21
21.3633
  0
LINE
  8
0
 10
314.071
 20
21.3633
 11
314.284
 21
21.4866
  0
LINE
  8
0
 10
314.284
 20
21.4866
 11
314.514
 21
21.5767
  0
LINE
  8
0
 10
314.514
 20
21.5767
 11
314.754
 21
21.6316
  0
LINE
  8
0
 10
314.754
 20
21.6316
 11
315
 21
21.65
  0
LINE
  8
0
 10
315
 20
21.65
 11
315.246
 21
21.6316
  0
LINE
  8
0
 10
315.246
 20
21.6316
 11
315.486
 21
21.5767
  0
LINE
  8
0
 10
315.486
 20
21.5767
 11
315.716
 21
21.4866
  0
LINE
  8
0
 10
315.716
 20
21.4866
 11
315.929
 21
21.3633
  0
LINE
  8
0
 10
315.929
 20
21.3633
 11
316.122
 21
21.2095
  0
LINE
  8
0
 10
316.122
 20
21.2095
 11
316.29
 21
21.0287
  0
LINE
  8
0
 10
316.29
 20
21.0287
 11
316.429
 21
20.825
  0
LINE
  8
0
 10
316.429
 20
20.825
 11
316.536
 21
20.6028
  0
LINE
  8
0
 10
316.536
 20
20.6028
 11
316.609
 21
20.3672
  0
LINE
  8
0
 10
316.609
 20
20.3672
 11
316.645
 21
20.1233
  0
LINE
  8
0
 10
316.645
 20
20.1233
 11
316.645
 21
-20.1233
  0
LINE
  8
0
 10
316.645
 20
-20.1233
 11
316.609
 21
-20.3672
  0
LINE
  8
0
 10
316.609
 20
-20.3672
 11
316.536
 21
-20.6028
  0
LINE
  8
0
 10
316.536
 20
-20.6028
 11
316.429
 21
-20.825
  0
LINE
  8
0
 10
316.429
 20
-20.825
 11
316.29
 21
-21.0287
  0
LINE
  8
0
 10
316.29
 20
-21.0287
 11
316.122
 21
-21.2095
  0
LINE
  8
0
 10
316.122
 20
-21.2095
 11
315.929
 21
-21.3633
  0
LINE
  8
0
 10
315.929
 20
-21.3633
 11
315.716
 21
-21.4866
  0
LINE
  8
0
 10
315.716
 20
-21.4866
 11
315.486
 21
-21.5767
  0
LINE
  8
0
 10
315.486
 20
-21.5767
 11
315.246
 21
-21.6316
  0
LINE
  8
0
 10
315.246
 20
-21.6316
 11
315
 21
-21.65
  0
LINE
  8
0
 10
315
 20
-21.65
 11
314.754
 21
-21.6316
  0
LINE
  8
0
 10
-315.246
 20
-21.6316
 11
-315.486
 21
-21.5767
  0
LINE
  8
0
 10
-315.486
 20
-21.5767
 11
-315.716
 21
-21.4866
  0
LINE
  8
0
 10
-315.716
 20
-21.4866
 11
-315.929
 21
-21.3633
  0
LINE
  8
0
 10
-315.929
 20
-21.3633
 11
-316.122
 21
-21.2095
  0
LINE
  8
0
 10
-316.122
 20
-21.2095
 11
-316.29
 21
-21.0287
  0
LINE
  8
0
 10
-316.29
 20
-21.0287
 11
-316.429
 21
-20.825
  0
LINE
  8
0
 10
-316.429
 20
-20.825
 11
-316.536
 21
-20.6028
  0
LINE
  8
0
 10
-316.536
 20
-20.6028
 11
-316.609
 21
-20.3672
  0
LINE
  8
0
 10
-316.609
 20
-20.3672
 11
-316.645
 21
-20.1233
  0
LINE
  8
0
 10
-316.645
 20
-20.1233
 11
-316.645
 21
20.1233
  0
LINE
  8
0
 10
-316.645
 20
20.1233
 11
-316.609
 21
20.3672
  0
LINE
  8
0
 10
-316.609
 20
20.3672
 11
-316.536
 21
20.6028
  0
LINE
  8
0
 10
-316.536
 20
20.6028
 11
-316.429
 21
20.825
  0
LINE
  8
0
 10
-316.429
 20
20.825
 11
-316.29
 21
21.0287
  0
LINE
  8
0
 10
-316.29
 20
21.0287
 11
-316.122
 21
21.2095
  0
LINE
  8
0
 10
-316.122
 20
21.2095
 11
-315.929
 21
21.3633
  0
LINE
  8
0
 10
-315.929
 20
21.3633
 11
-315.716
 21
21.4866
  0
LINE
  8
0
 10
-315.716
 20
21.4866
 11
-315.486
 21
21.5767
  0
LINE
  8
0
 10
-315.486
 20
21.5767
 11
-315.246
 21
21.6316
  0
LINE
  8
0
 10
-315.246
 20
21.6316
 11
-315
 21
21.65
  0
LINE
  8
0
 10
-315
 20
21.65
 11
-314.754
 21
21.6316
  0
LINE
  8
0
 10
-314.754
 20
21.6316
 11
-314.514
 21
21.5767
  0
LINE
  8
0
 10
-314.514
 20
21.5767
 11
-314.284
 21
21.4866
  0
LINE
  8
0
 10
-314.284
 20
21.4866
 11
-314.071
 21
21.3633
  0
LINE
  8
0
 10
-314.071
 20
21.3633
 11
-313.878
 21
21.2095
  0
LINE
  8
0
 10
-313.878
 20
21.2095
 11
-313.71
 21
21.0287
  0
LINE
  8
0
 10
-313.71
 20
21.0287
 11
-313.571
 21
20.825
  0
LINE
  8
0
 10
-313.571
 20
20.825
 11
-313.464
 21
20.6028
  0
LINE
  8
0
 10
-313.464
 20
20.6028
 11
-313.391
 21
20.3672
  0
LINE
  8
0
 10
-313.391
 20
20.3672
 11
-313.355
 21
20.1233
  0
LINE
  8
0
 10
-313.355
 20
20.1233
 11
-313.355
 21
-20.1233
  0
LINE
  8
0
 10
-313.355
 20
-20.1233
 11
-313.391
 21
-20.3672
  0
LINE
  8
0
 10
-313.391
 20
-20.3672
 11
-313.464
 21
-20.6028
  0
LINE
  8
0
 10
-313.464
 20
-20.6028
 11
-313.571
 21
-20.825
  0
LINE
  8
0
 10
-313.571
 20
-20.825
 11
-313.71
 21
-21.0287
  0
LINE
  8
0
 10
-313.71
 20
-21.0287
 11
-313.878
 21
-21.2095
  0
LINE
  8
0
 10
-313.878
 20
-21.2095
 11
-314.071
 21
-21.3633
  0
LINE
  8
0
 10
-314.071
 20
-21.3633
 11
-314.284
 21
-21.4866
  0
LINE
  8
0
 10
-314.284
 20
-21.4866
 11
-314.514
 21
-21.5767
  0
LINE
  8
0
 10
-314.514
 20
-21.5767
 11
-314.754
 21
-21.6316
  0
LINE
  8
0
 10
-314.754
 20
-21.6316
 11
-315
 21
-21.65
  0
LINE
  8
0
 10
-315
 20
-21.65
 11
-315.246
 21
-21.6316
  0
LINE
  8
0
 10
314.754
 20
-91.5816
 11
314.514
 21
-91.5267
  0
LINE
  8
0
 10
314.514
 20
-91.5267
 11
314.284
 21
-91.4366
  0
LINE
  8
0
 10
314.284
 20
-91.4366
 11
314.071
 21
-91.3133
  0
LINE
  8
0
 10
314.071
 20
-91.3133
 11
313.878
 21
-91.1595
  0
LINE
  8
0
 10
313.878
 20
-91.1595
 11
313.71
 21
-90.9788
  0
LINE
  8
0
 10
313.71
 20
-90.9788
 11
313.571
 21
-90.775
  0
LINE
  8
0
 10
313.571
 20
-90.775
 11
313.464
 21
-90.5528
  0
LINE
  8
0
 10
313.464
 20
-90.5528
 11
313.391
 21
-90.3172
  0
LINE
  8
0
 10
313.391
 20
-90.3172
 11
313.355
 21
-90.0733
  0
LINE
  8
0
 10
313.355
 20
-90.0733
 11
313.355
 21
-49.8267
  0
LINE
  8
0
 10
313.355
 20
-49.8267
 11
313.391
 21
-49.5828
  0
LINE
  8
0
 10
313.391
 20
-49.5828
 11
313.464
 21
-49.3472
  0
LINE
  8
0
 10
313.464
 20
-49.3472
 11
313.571
 21
-49.125
  0
LINE
  8
0
 10
313.571
 20
-49.125
 11
313.71
 21
-48.9212
  0
LINE
  8
0
 10
313.71
 20
-48.9212
 11
313.878
 21
-48.7405
  0
LINE
  8
0
 10
313.878
 20
-48.7405
 11
314.071
 21
-48.5867
  0
LINE
  8
0
 10
314.071
 20
-48.5867
 11
314.284
 21
-48.4634
  0
LINE
  8
0
 10
314.284
 20
-48.4634
 11
314.514
 21
-48.3733
  0
LINE
  8
0
 10
314.514
 20
-48.3733
 11
314.754
 21
-48.3184
  0
LINE
  8
0
 10
314.754
 20
-48.3184
 11
315
 21
-48.3
  0
LINE
  8
0
 10
315
 20
-48.3
 11
315.246
 21
-48.3184
  0
LINE
  8
0
 10
315.246
 20
-48.3184
 11
315.486
 21
-48.3733
  0
LINE
  8
0
 10
315.486
 20
-48.3733
 11
315.716
 21
-48.4634
  0
LINE
  8
0
 10
315.716
 20
-48.4634
 11
315.929
 21
-48.5867
  0
LINE
  8
0
 10
315.929
 20
-48.5867
 11
316.122
 21
-48.7405
  0
LINE
  8
0
 10
316.122
 20
-48.7405
 11
316.29
 21
-48.9212
  0
LINE
  8
0
 10
316.29
 20
-48.9212
 11
316.429
 21
-49.125
  0
LINE
  8
0
 10
316.429
 20
-49.125
 11
316.536
 21
-49.3472
  0
LINE
  8
0
 10
316.536
 20
-49.3472
 11
316.609
 21
-49.5828
  0
LINE
  8
0
 10
316.609
 20
-49.5828
 11
316.645
 21
-49.8267
  0
LINE
  8
0
 10
316.645
 20
-49.8267
 11
316.645
 21
-90.0733
  0
LINE
  8
0
 10
316.645
 20
-90.0733
 11
316.609
 21
-90.3172
  0
LINE
  8
0
 10
316.609
 20
-90.3172
 11
316.536
 21
-90.5528
  0
LINE
  8
0
 10
316.536
 20
-90.5528
 11
316.429
 21
-90.775
  0
LINE
  8
0
 10
316.429
 20
-90.775
 11
316.29
 21
-90.9788
  0
LINE
  8
0
 10
316.29
 20
-90.9788
 11
316.122
 21
-91.1595
  0
LINE
  8
0
 10
316.122
 20
-91.1595
 11
315.929
 21
-91.3133
  0
LINE
  8
0
 10
315.929
 20
-91.3133
 11
315.716
 21
-91.4366
  0
LINE
  8
0
 10
315.716
 20
-91.4366
 11
315.486
 21
-91.5267
  0
LINE
  8
0
 10
315.486
 20
-91.5267
 11
315.246
 21
-91.5816
  0
LINE
  8
0
 10
315.246
 20
-91.5816
 11
315
 21
-91.6
  0
LINE
  8
0
 10
315
 20
-91.6
 11
314.754
 21
-91.5816
  0
LINE
  8
0
 10
-315.246
 20
-91.5816
 11
-315.486
 21
-91.5267
  0
LINE
  8
0
 10
-315.486
 20
-91.5267
 11
-315.716
 21
-91.4366
  0
LINE
  8
0
 10
-315.716
 20
-91.4366
 11
-315.929
 21
-91.3133
  0
LINE
  8
0
 10
-315.929
 20
-91.3133
 11
-316.122
 21
-91.1595
  0
LINE
  8
0
 10
-316.122
 20
-91.1595
 11
-316.29
 21
-90.9788
  0
LINE
  8
0
 10
-316.29
 20
-90.9788
 11
-316.429
 21
-90.775
  0
LINE
  8
0
 10
-316.429
 20
-90.775
 11
-316.536
 21
-90.5528
  0
LINE
  8
0
 10
-316.536
 20
-90.5528
 11
-316.609
 21
-90.3172
  0
LINE
  8
0
 10
-316.609
 20
-90.3172
 11
-316.645
 21
-90.0733
  0
LINE
  8
0
 10
-316.645
 20
-90.0733
 11
-316.645
 21
-49.8267
  0
LINE
  8
0
 10
-316.645
 20
-49.8267
 11
-316.609
 21
-49.5828
  0
LINE
  8
0
 10
-316.609
 20
-49.5828
 11
-316.536
 21
-49.3472
  0
LINE
  8
0
 10
-316.536
 20
-49.3472
 11
-316.429
 21
-49.125
  0
LINE
  8
0
 10
-316.429
 20
-49.125
 11
-316.29
 21
-48.9212
  0
LINE
  8
0
 10
-316.29
 20
-48.9212
 11
-316.122
 21
-48.7405
  0
LINE
  8
0
 10
-316.122
 20
-48.7405
 11
-315.929
 21
-48.5867
  0
LINE
  8
0
 10
-315.929
 20
-48.5867
 11
-315.716
 21
-48.4634
  0
LINE
  8
0
 10
-315.716
 20
-48.4634
 11
-315.486
 21
-48.3733
  0
LINE
  8
0
 10
-315.486
 20
-48.3733
 11
-315.246
 21
-48.3184
  0
LINE
  8
0
 10
-315.246
 20
-48.3184
 11
-315
 21
-48.3
  0
LINE
  8
0
 10
-315
 20
-48.3
 11
-314.754
 21
-48.3184
  0
LINE
  8
0
 10
-314.754
 20
-48.3184
 11
-314.514
 21
-48.3733
  0
LINE
  8
0
 10
-314.514
 20
-48.3733
 11
-314.284
 21
-48.4634
  0
LINE
  8
0
 10
-314.284
 20
-48.4634
 11
-314.071
 21
-48.5867
  0
LINE
  8
0
 10
-314.071
 20
-48.5867
 11
-313.878
 21
-48.7405
  0
LINE
  8
0
 10
-313.878
 20
-48.7405
 11
-313.71
 21
-48.9212
  0
LINE
  8
0
 10
-313.71
 20
-48.9212
 11
-313.571
 21
-49.125
  0
LINE
  8
0
 10
-313.571
 20
-49.125
 11
-313.464
 21
-49.3472
  0
LINE
  8
0
 10
-313.464
 20
-49.3472
 11
-313.391
 21
-49.5828
  0
LINE
  8
0
 10
-313.391
 20
-49.5828
 11
-313.355
 21
-49.8267
  0
LINE
  8
0
 10
-313.355
 20
-49.8267
 11
-313.355
 21
-90.0733
  0
LINE
  8
0
 10
-313.355
 20
-90.0733
 11
-313.391
 21
-90.3172
  0
LINE
  8
0
 10
-313.391
 20
-90.3172
 11
-313.464
 21
-90.5528
  0
LINE
  8
0
 10
-313.464
 20
-90.5528
 11
-313.571
 21
-90.775
  0
LINE
  8
0
 10
-313.571
 20
-90.775
 11
-313.71
 21
-90.9788
  0
LINE
  8
0
 10
-313.71
 20
-90.9788
 11
-313.878
 21
-91.1595
  0
LINE
  8
0
 10
-313.878
 20
-91.1595
 11
-314.071
 21
-91.3133
  0
LINE
  8
0
 10
-314.071
 20
-91.3133
 11
-314.284
 21
-91.4366
  0
LINE
  8
0
 10
-314.284
 20
-91.4366
 11
-314.514
 21
-91.5267
  0
LINE
  8
0
 10
-314.514
 20
-91.5267
 11
-314.754
 21
-91.5816
  0
LINE
  8
0
 10
-314.754
 20
-91.5816
 11
-315
 21
-91.6
  0
LINE
  8
0
 10
-315
 20
-91.6
 11
-315.246
 21
-91.5816
  0
LINE
  8
0
 10
-315.523
 20
-114.923
 11
-316.04
 21
-114.841
  0
LINE
  8
0
 10
-316.04
 20
-114.841
 11
-316.545
 21
-114.705
  0
LINE
  8
0
 10
-316.545
 20
-114.705
 11
-317.034
 21
-114.518
  0
LINE
  8
0
 10
-317.034
 20
-114.518
 11
-317.5
 21
-114.28
  0
LINE
  8
0
 10
-317.5
 20
-114.28
 11
-317.939
 21
-113.995
  0
LINE
  8
0
 10
-317.939
 20
-113.995
 11
-318.346
 21
-113.666
  0
LINE
  8
0
 10
-318.346
 20
-113.666
 11
-318.716
 21
-113.296
  0
LINE
  8
0
 10
-318.716
 20
-113.296
 11
-319.045
 21
-112.889
  0
LINE
  8
0
 10
-319.045
 20
-112.889
 11
-319.33
 21
-112.45
  0
LINE
  8
0
 10
-319.33
 20
-112.45
 11
-319.568
 21
-111.984
  0
LINE
  8
0
 10
-319.568
 20
-111.984
 11
-319.755
 21
-111.495
  0
LINE
  8
0
 10
-319.755
 20
-111.495
 11
-319.891
 21
-110.99
  0
LINE
  8
0
 10
-319.891
 20
-110.99
 11
-319.973
 21
-110.473
  0
LINE
  8
0
 10
-319.973
 20
-110.473
 11
-320
 21
-109.95
  0
LINE
  8
0
 10
-320
 20
-109.95
 11
-319.973
 21
-109.427
  0
LINE
  8
0
 10
-319.973
 20
-109.427
 11
-319.891
 21
-108.91
  0
LINE
  8
0
 10
-319.891
 20
-108.91
 11
-319.755
 21
-108.405
  0
LINE
  8
0
 10
-319.755
 20
-108.405
 11
-319.568
 21
-107.916
  0
LINE
  8
0
 10
-319.568
 20
-107.916
 11
-319.33
 21
-107.45
  0
LINE
  8
0
 10
-319.33
 20
-107.45
 11
-319.045
 21
-107.011
  0
LINE
  8
0
 10
-319.045
 20
-107.011
 11
-318.716
 21
-106.604
  0
LINE
  8
0
 10
-318.716
 20
-106.604
 11
-318.346
 21
-106.234
  0
LINE
  8
0
 10
-318.346
 20
-106.234
 11
-317.939
 21
-105.905
  0
LINE
  8
0
 10
-317.939
 20
-105.905
 11
-317.5
 21
-105.62
  0
LINE
  8
0
 10
-317.5
 20
-105.62
 11
-317.034
 21
-105.382
  0
LINE
  8
0
 10
-317.034
 20
-105.382
 11
-316.545
 21
-105.195
  0
LINE
  8
0
 10
-316.545
 20
-105.195
 11
-316.04
 21
-105.059
  0
LINE
  8
0
 10
-316.04
 20
-105.059
 11
-315.523
 21
-104.977
  0
LINE
  8
0
 10
-315.523
 20
-104.977
 11
-315
 21
-104.95
  0
LINE
  8
0
 10
-315
 20
-104.95
 11
-314.477
 21
-104.977
  0
LINE
  8
0
 10
-314.477
 20
-104.977
 11
-313.96
 21
-105.059
  0
LINE
  8
0
 10
-313.96
 20
-105.059
 11
-313.455
 21
-105.195
  0
LINE
  8
0
 10
-313.455
 20
-105.195
 11
-312.966
 21
-105.382
  0
LINE
  8
0
 10
-312.966
 20
-105.382
 11
-312.5
 21
-105.62
  0
LINE
  8
0
 10
-312.5
 20
-105.62
 11
-312.061
 21
-105.905
  0
LINE
  8
0
 10
-312.061
 20
-105.905
 11
-311.654
 21
-106.234
  0
LINE
  8
0
 10
-311.654
 20
-106.234
 11
-311.284
 21
-106.604
  0
LINE
  8
0
 10
-311.284
 20
-106.604
 11
-310.955
 21
-107.011
  0
LINE
  8
0
 10
-310.955
 20
-107.011
 11
-310.67
 21
-107.45
  0
LINE
  8
0
 10
-310.67
 20
-107.45
 11
-310.432
 21
-107.916
  0
LINE
  8
0
 10
-310.432
 20
-107.916
 11
-310.245
 21
-108.405
  0
LINE
  8
0
 10
-310.245
 20
-108.405
 11
-310.109
 21
-108.91
  0
LINE
  8
0
 10
-310.109
 20
-108.91
 11
-310.027
 21
-109.427
  0
LINE
  8
0
 10
-310.027
 20
-109.427
 11
-310
 21
-109.95
  0
LINE
  8
0
 10
-310
 20
-109.95
 11
-310.027
 21
-110.473
  0
LINE
  8
0
 10
-310.027
 20
-110.473
 11
-310.109
 21
-110.99
  0
LINE
  8
0
 10
-310.109
 20
-110.99
 11
-310.245
 21
-111.495
  0
LINE
  8
0
 10
-310.245
 20
-111.495
 11
-310.432
 21
-111.984
  0
LINE
  8
0
 10
-310.432
 20
-111.984
 11
-310.67
 21
-112.45
  0
LINE
  8
0
 10
-310.67
 20
-112.45
 11
-310.955
 21
-112.889
  0
LINE
  8
0
 10
-310.955
 20
-112.889
 11
-311.284
 21
-113.296
  0
LINE
  8
0
 10
-311.284
 20
-113.296
 11
-311.654
 21
-113.666
  0
LINE
  8
0
 10
-311.654
 20
-113.666
 11
-312.061
 21
-113.995
  0
LINE
  8
0
 10
-312.061
 20
-113.995
 11
-312.5
 21
-114.28
  0
LINE
  8
0
 10
-312.5
 20
-114.28
 11
-312.966
 21
-114.518
  0
LINE
  8
0
 10
-312.966
 20
-114.518
 11
-313.455
 21
-114.705
  0
LINE
  8
0
 10
-313.455
 20
-114.705
 11
-313.96
 21
-114.841
  0
LINE
  8
0
 10
-313.96
 20
-114.841
 11
-314.477
 21
-114.923
  0
LINE
  8
0
 10
-314.477
 20
-114.923
 11
-315
 21
-114.95
  0
LINE
  8
0
 10
-315
 20
-114.95
 11
-315.523
 21
-114.923
  0
LINE
  8
0
 10
314.477
 20
-114.923
 11
313.96
 21
-114.841
  0
LINE
  8
0
 10
313.96
 20
-114.841
 11
313.455
 21
-114.705
  0
LINE
  8
0
 10
313.455
 20
-114.705
 11
312.966
 21
-114.518
  0
LINE
  8
0
 10
312.966
 20
-114.518
 11
312.5
 21
-114.28
  0
LINE
  8
0
 10
312.5
 20
-114.28
 11
312.061
 21
-113.995
  0
LINE
  8
0
 10
312.061
 20
-113.995
 11
311.654
 21
-113.666
  0
LINE
  8
0
 10
311.654
 20
-113.666
 11
311.284
 21
-113.296
  0
LINE
  8
0
 10
311.284
 20
-113.296
 11
310.955
 21
-112.889
  0
LINE
  8
0
 10
310.955
 20
-112.889
 11
310.67
 21
-112.45
  0
LINE
  8
0
 10
310.67
 20
-112.45
 11
310.432
 21
-111.984
  0
LINE
  8
0
 10
310.432
 20
-111.984
 11
310.245
 21
-111.495
  0
LINE
  8
0
 10
310.245
 20
-111.495
 11
310.109
 21
-110.99
  0
LINE
  8
0
 10
310.109
 20
-110.99
 11
310.027
 21
-110.473
  0
LINE
  8
0
 10
310.027
 20
-110.473
 11
310
 21
-109.95
  0
LINE
  8
0
 10
310
 20
-109.95
 11
310.027
 21
-109.427
  0
LINE
  8
0
 10
310.027
 20
-109.427
 11
310.109
 21
-108.91
  0
LINE
  8
0
 10
310.109
 20
-108.91
 11
310.245
 21
-108.405
  0
LINE
  8
0
 10
310.245
 20
-108.405
 11
310.432
 21
-107.916
  0
LINE
  8
0
 10
310.432
 20
-107.916
 11
310.67
 21
-107.45
  0
LINE
  8
0
 10
310.67
 20
-107.45
 11
310.955
 21
-107.011
  0
LINE
  8
0
 10
310.955
 20
-107.011
 11
311.284
 21
-106.604
  0
LINE
  8
0
 10
311.284
 20
-106.604
 11
311.654
 21
-106.234
  0
LINE
  8
0
 10
311.654
 20
-106.234
 11
312.061
 21
-105.905
  0
LINE
  8
0
 10
312.061
 20
-105.905
 11
312.5
 21
-105.62
  0
LINE
  8
0
 10
312.5
 20
-105.62
 11
312.966
 21
-105.382
  0
LINE
  8
0
 10
312.966
 20
-105.382
 11
313.455
 21
-105.195
  0
LINE
  8
0
 10
313.455
 20
-105.195
 11
313.96
 21
-105.059
  0
LINE
  8
0
 10
313.96
 20
-105.059
 11
314.477
 21
-104.977
  0
LINE
  8
0
 10
314.477
 20
-104.977
 11
315
 21
-104.95
  0
LINE
  8
0
 10
315
 20
-104.95
 11
315.523
 21
-104.977
  0
LINE
  8
0
 10
315.523
 20
-104.977
 11
316.04
 21
-105.059
  0
LINE
  8
0
 10
316.04
 20
-105.059
 11
316.545
 21
-105.195
  0
LINE
  8
0
 10
316.545
 20
-105.195
 11
317.034
 21
-105.382
  0
LINE
  8
0
 10
317.034
 20
-105.382
 11
317.5
 21
-105.62
  0
LINE
  8
0
 10
317.5
 20
-105.62
 11
317.939
 21
-105.905
  0
LINE
  8
0
 10
317.939
 20
-105.905
 11
318.346
 21
-106.234
  0
LINE
  8
0
 10
318.346
 20
-106.234
 11
318.716
 21
-106.604
  0
LINE
  8
0
 10
318.716
 20
-106.604
 11
319.045
 21
-107.011
  0
LINE
  8
0
 10
319.045
 20
-107.011
 11
319.33
 21
-107.45
  0
LINE
  8
0
 10
319.33
 20
-107.45
 11
319.568
 21
-107.916
  0
LINE
  8
0
 10
319.568
 20
-107.916
 11
319.755
 21
-108.405
  0
LINE
  8
0
 10
319.755
 20
-108.405
 11
319.891
 21
-108.91
  0
LINE
  8
0
 10
319.891
 20
-108.91
 11
319.973
 21
-109.427
  0
LINE
  8
0
 10
319.973
 20
-109.427
 11
320
 21
-109.95
  0
LINE
  8
0
 10
320
 20
-109.95
 11
319.973
 21
-110.473
  0
LINE
  8
0
 10
319.973
 20
-110.473
 11
319.891
 21
-110.99
  0
LINE
  8
0
 10
319.891
 20
-110.99
 11
319.755
 21
-111.495
  0
LINE
  8
0
 10
319.755
 20
-111.495
 11
319.568
 21
-111.984
  0
LINE
  8
0
 10
319.568
 20
-111.984
 11
319.33
 21
-112.45
  0
LINE
  8
0
 10
319.33
 20
-112.45
 11
319.045
 21
-112.889
  0
LINE
  8
0
 10
319.045
 20
-112.889
 11
318.716
 21
-113.296
  0
LINE
  8
0
 10
318.716
 20
-113.296
 11
318.346
 21
-113.666
  0
LINE
  8
0
 10
318.346
 20
-113.666
 11
317.939
 21
-113.995
  0
LINE
  8
0
 10
317.939
 20
-113.995
 11
317.5
 21
-114.28
  0
LINE
  8
0
 10
317.5
 20
-114.28
 11
317.034
 21
-114.518
  0
LINE
  8
0
 10
317.034
 20
-114.518
 11
316.545
 21
-114.705
  0
LINE
  8
0
 10
316.545
 20
-114.705
 11
316.04
 21
-114.841
  0
LINE
  8
0
 10
316.04
 20
-114.841
 11
315.523
 21
-114.923
  0
LINE
  8
0
 10
315.523
 20
-114.923
 11
315
 21
-114.95
  0
LINE
  8
0
 10
315
 20
-114.95
 11
314.477
 21
-114.923
  0
LINE
  8
0
 10
254.877
 20
-111.595
 11
254.633
 21
-111.559
  0
LINE
  8
0
 10
254.633
 20
-111.559
 11
254.397
 21
-111.486
  0
LINE
  8
0
 10
254.397
 20
-111.486
 11
254.175
 21
-111.379
  0
LINE
  8
0
 10
254.175
 20
-111.379
 11
253.971
 21
-111.24
  0
LINE
  8
0
 10
253.971
 20
-111.24
 11
253.79
 21
-111.072
  0
LINE
  8
0
 10
253.79
 20
-111.072
 11
253.637
 21
-110.879
  0
LINE
  8
0
 10
253.637
 20
-110.879
 11
253.513
 21
-110.666
  0
LINE
  8
0
 10
253.513
 20
-110.666
 11
253.423
 21
-110.436
  0
LINE
  8
0
 10
253.423
 20
-110.436
 11
253.368
 21
-110.196
  0
LINE
  8
0
 10
253.368
 20
-110.196
 11
253.35
 21
-109.95
  0
LINE
  8
0
 10
253.35
 20
-109.95
 11
253.368
 21
-109.704
  0
LINE
  8
0
 10
253.368
 20
-109.704
 11
253.423
 21
-109.464
  0
LINE
  8
0
 10
253.423
 20
-109.464
 11
253.513
 21
-109.234
  0
LINE
  8
0
 10
253.513
 20
-109.234
 11
253.637
 21
-109.021
  0
LINE
  8
0
 10
253.637
 20
-109.021
 11
253.79
 21
-108.828
  0
LINE
  8
0
 10
253.79
 20
-108.828
 11
253.971
 21
-108.66
  0
LINE
  8
0
 10
253.971
 20
-108.66
 11
254.175
 21
-108.521
  0
LINE
  8
0
 10
254.175
 20
-108.521
 11
254.397
 21
-108.414
  0
LINE
  8
0
 10
254.397
 20
-108.414
 11
254.633
 21
-108.341
  0
LINE
  8
0
 10
254.633
 20
-108.341
 11
254.877
 21
-108.305
  0
LINE
  8
0
 10
254.877
 20
-108.305
 11
295.123
 21
-108.305
  0
LINE
  8
0
 10
295.123
 20
-108.305
 11
295.367
 21
-108.341
  0
LINE
  8
0
 10
295.367
 20
-108.341
 11
295.603
 21
-108.414
  0
LINE
  8
0
 10
295.603
 20
-108.414
 11
295.825
 21
-108.521
  0
LINE
  8
0
 10
295.825
 20
-108.521
 11
296.029
 21
-108.66
  0
LINE
  8
0
 10
296.029
 20
-108.66
 11
296.21
 21
-108.828
  0
LINE
  8
0
 10
296.21
 20
-108.828
 11
296.363
 21
-109.021
  0
LINE
  8
0
 10
296.363
 20
-109.021
 11
296.487
 21
-109.234
  0
LINE
  8
0
 10
296.487
 20
-109.234
 11
296.577
 21
-109.464
  0
LINE
  8
0
 10
296.577
 20
-109.464
 11
296.632
 21
-109.704
  0
LINE
  8
0
 10
296.632
 20
-109.704
 11
296.65
 21
-109.95
  0
LINE
  8
0
 10
296.65
 20
-109.95
 11
296.632
 21
-110.196
  0
LINE
  8
0
 10
296.632
 20
-110.196
 11
296.577
 21
-110.436
  0
LINE
  8
0
 10
296.577
 20
-110.436
 11
296.487
 21
-110.666
  0
LINE
  8
0
 10
296.487
 20
-110.666
 11
296.363
 21
-110.879
  0
LINE
  8
0
 10
296.363
 20
-110.879
 11
296.21
 21
-111.072
  0
LINE
  8
0
 10
296.21
 20
-111.072
 11
296.029
 21
-111.24
  0
LINE
  8
0
 10
296.029
 20
-111.24
 11
295.825
 21
-111.379
  0
LINE
  8
0
 10
295.825
 20
-111.379
 11
295.603
 21
-111.486
  0
LINE
  8
0
 10
295.603
 20
-111.486
 11
295.367
 21
-111.559
  0
LINE
  8
0
 10
295.367
 20
-111.559
 11
295.123
 21
-111.595
  0
LINE
  8
0
 10
295.123
 20
-111.595
 11
254.877
 21
-111.595
  0
LINE
  8
0
 10
-203.457
 20
-111.595
 11
-203.701
 21
-111.559
  0
LINE
  8
0
 10
-203.701
 20
-111.559
 11
-203.936
 21
-111.486
  0
LINE
  8
0
 10
-203.936
 20
-111.486
 11
-204.158
 21
-111.379
  0
LINE
  8
0
 10
-204.158
 20
-111.379
 11
-204.362
 21
-111.24
  0
LINE
  8
0
 10
-204.362
 20
-111.24
 11
-204.543
 21
-111.072
  0
LINE
  8
0
 10
-204.543
 20
-111.072
 11
-204.697
 21
-110.879
  0
LINE
  8
0
 10
-204.697
 20
-110.879
 11
-204.82
 21
-110.666
  0
LINE
  8
0
 10
-204.82
 20
-110.666
 11
-204.91
 21
-110.436
  0
LINE
  8
0
 10
-204.91
 20
-110.436
 11
-204.965
 21
-110.196
  0
LINE
  8
0
 10
-204.965
 20
-110.196
 11
-204.983
 21
-109.95
  0
LINE
  8
0
 10
-204.983
 20
-109.95
 11
-204.965
 21
-109.704
  0
LINE
  8
0
 10
-204.965
 20
-109.704
 11
-204.91
 21
-109.464
  0
LINE
  8
0
 10
-204.91
 20
-109.464
 11
-204.82
 21
-109.234
  0
LINE
  8
0
 10
-204.82
 20
-109.234
 11
-204.697
 21
-109.021
  0
LINE
  8
0
 10
-204.697
 20
-109.021
 11
-204.543
 21
-108.828
  0
LINE
  8
0
 10
-204.543
 20
-108.828
 11
-204.362
 21
-108.66
  0
LINE
  8
0
 10
-204.362
 20
-108.66
 11
-204.158
 21
-108.521
  0
LINE
  8
0
 10
-204.158
 20
-108.521
 11
-203.936
 21
-108.414
  0
LINE
  8
0
 10
-203.936
 20
-108.414
 11
-203.701
 21
-108.341
  0
LINE
  8
0
 10
-203.701
 20
-108.341
 11
-203.457
 21
-108.305
  0
LINE
  8
0
 10
-203.457
 20
-108.305
 11
-163.21
 21
-108.305
  0
LINE
  8
0
 10
-163.21
 20
-108.305
 11
-162.966
 21
-108.341
  0
LINE
  8
0
 10
-162.966
 20
-108.341
 11
-162.731
 21
-108.414
  0
LINE
  8
0
 10
-162.731
 20
-108.414
 11
-162.508
 21
-108.521
  0
LINE
  8
0
 10
-162.508
 20
-108.521
 11
-162.305
 21
-108.66
  0
LINE
  8
0
 10
-162.305
 20
-108.66
 11
-162.124
 21
-108.828
  0
LINE
  8
0
 10
-162.124
 20
-108.828
 11
-161.97
 21
-109.021
  0
LINE
  8
0
 10
-161.97
 20
-109.021
 11
-161.847
 21
-109.234
  0
LINE
  8
0
 10
-161.847
 20
-109.234
 11
-161.757
 21
-109.464
  0
LINE
  8
0
 10
-161.757
 20
-109.464
 11
-161.702
 21
-109.704
  0
LINE
  8
0
 10
-161.702
 20
-109.704
 11
-161.683
 21
-109.95
  0
LINE
  8
0
 10
-161.683
 20
-109.95
 11
-161.702
 21
-110.196
  0
LINE
  8
0
 10
-161.702
 20
-110.196
 11
-161.757
 21
-110.436
  0
LINE
  8
0
 10
-161.757
 20
-110.436
 11
-161.847
 21
-110.666
  0
LINE
  8
0
 10
-161.847
 20
-110.666
 11
-161.97
 21
-110.879
  0
LINE
  8
0
 10
-161.97
 20
-110.879
 11
-162.124
 21
-111.072
  0
LINE
  8
0
 10
-162.124
 20
-111.072
 11
-162.305
 21
-111.24
  0
LINE
  8
0
 10
-162.305
 20
-111.24
 11
-162.508
 21
-111.379
  0
LINE
  8
0
 10
-162.508
 20
-111.379
 11
-162.731
 21
-111.486
  0
LINE
  8
0
 10
-162.731
 20
-111.486
 11
-162.966
 21
-111.559
  0
LINE
  8
0
 10
-162.966
 20
-111.559
 11
-163.21
 21
-111.595
  0
LINE
  8
0
 10
-163.21
 20
-111.595
 11
-203.457
 21
-111.595
  0
LINE
  8
0
 10
-111.79
 20
-111.595
 11
-112.034
 21
-111.559
  0
LINE
  8
0
 10
-112.034
 20
-111.559
 11
-112.269
 21
-111.486
  0
LINE
  8
0
 10
-112.269
 20
-111.486
 11
-112.492
 21
-111.379
  0
LINE
  8
0
 10
-112.492
 20
-111.379
 11
-112.695
 21
-111.24
  0
LINE
  8
0
 10
-112.695
 20
-111.24
 11
-112.876
 21
-111.072
  0
LINE
  8
0
 10
-112.876
 20
-111.072
 11
-113.03
 21
-110.879
  0
LINE
  8
0
 10
-113.03
 20
-110.879
 11
-113.153
 21
-110.666
  0
LINE
  8
0
 10
-113.153
 20
-110.666
 11
-113.243
 21
-110.436
  0
LINE
  8
0
 10
-113.243
 20
-110.436
 11
-113.298
 21
-110.196
  0
LINE
  8
0
 10
-113.298
 20
-110.196
 11
-113.317
 21
-109.95
  0
LINE
  8
0
 10
-113.317
 20
-109.95
 11
-113.298
 21
-109.704
  0
LINE
  8
0
 10
-113.298
 20
-109.704
 11
-113.243
 21
-109.464
  0
LINE
  8
0
 10
-113.243
 20
-109.464
 11
-113.153
 21
-109.234
  0
LINE
  8
0
 10
-113.153
 20
-109.234
 11
-113.03
 21
-109.021
  0
LINE
  8
0
 10
-113.03
 20
-109.021
 11
-112.876
 21
-108.828
  0
LINE
  8
0
 10
-112.876
 20
-108.828
 11
-112.695
 21
-108.66
  0
LINE
  8
0
 10
-112.695
 20
-108.66
 11
-112.492
 21
-108.521
  0
LINE
  8
0
 10
-112.492
 20
-108.521
 11
-112.269
 21
-108.414
  0
LINE
  8
0
 10
-112.269
 20
-108.414
 11
-112.034
 21
-108.341
  0
LINE
  8
0
 10
-112.034
 20
-108.341
 11
-111.79
 21
-108.305
  0
LINE
  8
0
 10
-111.79
 20
-108.305
 11
-71.5434
 21
-108.305
  0
LINE
  8
0
 10
-71.5434
 20
-108.305
 11
-71.2995
 21
-108.341
  0
LINE
  8
0
 10
-71.2995
 20
-108.341
 11
-71.0638
 21
-108.414
  0
LINE
  8
0
 10
-71.0638
 20
-108.414
 11
-70.8417
 21
-108.521
  0
LINE
  8
0
 10
-70.8417
 20
-108.521
 11
-70.6379
 21
-108.66
  0
LINE
  8
0
 10
-70.6379
 20
-108.66
 11
-70.4571
 21
-108.828
  0
LINE
  8
0
 10
-70.4571
 20
-108.828
 11
-70.3034
 21
-109.021
  0
LINE
  8
0
 10
-70.3034
 20
-109.021
 11
-70.1801
 21
-109.234
  0
LINE
  8
0
 10
-70.1801
 20
-109.234
 11
-70.09
 21
-109.464
  0
LINE
  8
0
 10
-70.09
 20
-109.464
 11
-70.0351
 21
-109.704
  0
LINE
  8
0
 10
-70.0351
 20
-109.704
 11
-70.0167
 21
-109.95
  0
LINE
  8
0
 10
-70.0167
 20
-109.95
 11
-70.0351
 21
-110.196
  0
LINE
  8
0
 10
-70.0351
 20
-110.196
 11
-70.09
 21
-110.436
  0
LINE
  8
0
 10
-70.09
 20
-110.436
 11
-70.1801
 21
-110.666
  0
LINE
  8
0
 10
-70.1801
 20
-110.666
 11
-70.3034
 21
-110.879
  0
LINE
  8
0
 10
-70.3034
 20
-110.879
 11
-70.4571
 21
-111.072
  0
LINE
  8
0
 10
-70.4571
 20
-111.072
 11
-70.6379
 21
-111.24
  0
LINE
  8
0
 10
-70.6379
 20
-111.24
 11
-70.8417
 21
-111.379
  0
LINE
  8
0
 10
-70.8417
 20
-111.379
 11
-71.0638
 21
-111.486
  0
LINE
  8
0
 10
-71.0638
 20
-111.486
 11
-71.2995
 21
-111.559
  0
LINE
  8
0
 10
-71.2995
 20
-111.559
 11
-71.5434
 21
-111.595
  0
LINE
  8
0
 10
-71.5434
 20
-111.595
 11
-111.79
 21
-111.595
  0
LINE
  8
0
 10
-20.1233
 20
-111.595
 11
-20.3672
 21
-111.559
  0
LINE
  8
0
 10
-20.3672
 20
-111.559
 11
-20.6028
 21
-111.486
  0
LINE
  8
0
 10
-20.6028
 20
-111.486
 11
-20.825
 21
-111.379
  0
LINE
  8
0
 10
-20.825
 20
-111.379
 11
-21.0287
 21
-111.24
  0
LINE
  8
0
 10
-21.0287
 20
-111.24
 11
-21.2095
 21
-111.072
  0
LINE
  8
0
 10
-21.2095
 20
-111.072
 11
-21.3633
 21
-110.879
  0
LINE
  8
0
 10
-21.3633
 20
-110.879
 11
-21.4866
 21
-110.666
  0
LINE
  8
0
 10
-21.4866
 20
-110.666
 11
-21.5767
 21
-110.436
  0
LINE
  8
0
 10
-21.5767
 20
-110.436
 11
-21.6316
 21
-110.196
  0
LINE
  8
0
 10
-21.6316
 20
-110.196
 11
-21.65
 21
-109.95
  0
LINE
  8
0
 10
-21.65
 20
-109.95
 11
-21.6316
 21
-109.704
  0
LINE
  8
0
 10
-21.6316
 20
-109.704
 11
-21.5767
 21
-109.464
  0
LINE
  8
0
 10
-21.5767
 20
-109.464
 11
-21.4866
 21
-109.234
  0
LINE
  8
0
 10
-21.4866
 20
-109.234
 11
-21.3633
 21
-109.021
  0
LINE
  8
0
 10
-21.3633
 20
-109.021
 11
-21.2095
 21
-108.828
  0
LINE
  8
0
 10
-21.2095
 20
-108.828
 11
-21.0287
 21
-108.66
  0
LINE
  8
0
 10
-21.0287
 20
-108.66
 11
-20.825
 21
-108.521
  0
LINE
  8
0
 10
-20.825
 20
-108.521
 11
-20.6028
 21
-108.414
  0
LINE
  8
0
 10
-20.6028
 20
-108.414
 11
-20.3672
 21
-108.341
  0
LINE
  8
0
 10
-20.3672
 20
-108.341
 11
-20.1233
 21
-108.305
  0
LINE
  8
0
 10
-20.1233
 20
-108.305
 11
20.1233
 21
-108.305
  0
LINE
  8
0
 10
20.1233
 20
-108.305
 11
20.3672
 21
-108.341
  0
LINE
  8
0
 10
20.3672
 20
-108.341
 11
20.6028
 21
-108.414
  0
LINE
  8
0
 10
20.6028
 20
-108.414
 11
20.825
 21
-108.521
  0
LINE
  8
0
 10
20.825
 20
-108.521
 11
21.0287
 21
-108.66
  0
LINE
  8
0
 10
21.0287
 20
-108.66
 11
21.2095
 21
-108.828
  0
LINE
  8
0
 10
21.2095
 20
-108.828
 11
21.3633
 21
-109.021
  0
LINE
  8
0
 10
21.3633
 20
-109.021
 11
21.4866
 21
-109.234
  0
LINE
  8
0
 10
21.4866
 20
-109.234
 11
21.5767
 21
-109.464
  0
LINE
  8
0
 10
21.5767
 20
-109.464
 11
21.6316
 21
-109.704
  0
LINE
  8
0
 10
21.6316
 20
-109.704
 11
21.65
 21
-109.95
  0
LINE
  8
0
 10
21.65
 20
-109.95
 11
21.6316
 21
-110.196
  0
LINE
  8
0
 10
21.6316
 20
-110.196
 11
21.5767
 21
-110.436
  0
LINE
  8
0
 10
21.5767
 20
-110.436
 11
21.4866
 21
-110.666
  0
LINE
  8
0
 10
21.4866
 20
-110.666
 11
21.3633
 21
-110.879
  0
LINE
  8
0
 10
21.3633
 20
-110.879
 11
21.2095
 21
-111.072
  0
LINE
  8
0
 10
21.2095
 20
-111.072
 11
21.0287
 21
-111.24
  0
LINE
  8
0
 10
21.0287
 20
-111.24
 11
20.825
 21
-111.379
  0
LINE
  8
0
 10
20.825
 20
-111.379
 11
20.6028
 21
-111.486
  0
LINE
  8
0
 10
20.6028
 20
-111.486
 11
20.3672
 21
-111.559
  0
LINE
  8
0
 10
20.3672
 20
-111.559
 11
20.1233
 21
-111.595
  0
LINE
  8
0
 10
20.1233
 20
-111.595
 11
-20.1233
 21
-111.595
  0
LINE
  8
0
 10
71.5434
 20
-111.595
 11
71.2995
 21
-111.559
  0
LINE
  8
0
 10
71.2995
 20
-111.559
 11
71.0638
 21
-111.486
  0
LINE
  8
0
 10
71.0638
 20
-111.486
 11
70.8417
 21
-111.379
  0
LINE
  8
0
 10
70.8417
 20
-111.379
 11
70.6379
 21
-111.24
  0
LINE
  8
0
 10
70.6379
 20
-111.24
 11
70.4571
 21
-111.072
  0
LINE
  8
0
 10
70.4571
 20
-111.072
 11
70.3034
 21
-110.879
  0
LINE
  8
0
 10
70.3034
 20
-110.879
 11
70.1801
 21
-110.666
  0
LINE
  8
0
 10
70.1801
 20
-110.666
 11
70.09
 21
-110.436
  0
LINE
  8
0
 10
70.09
 20
-110.436
 11
70.0351
 21
-110.196
  0
LINE
  8
0
 10
70.0351
 20
-110.196
 11
70.0167
 21
-109.95
  0
LINE
  8
0
 10
70.0167
 20
-109.95
 11
70.0351
 21
-109.704
  0
LINE
  8
0
 10
70.0351
 20
-109.704
 11
70.09
 21
-109.464
  0
LINE
  8
0
 10
70.09
 20
-109.464
 11
70.1801
 21
-109.234
  0
LINE
  8
0
 10
70.1801
 20
-109.234
 11
70.3034
 21
-109.021
  0
LINE
  8
0
 10
70.3034
 20
-109.021
 11
70.4571
 21
-108.828
  0
LINE
  8
0
 10
70.4571
 20
-108.828
 11
70.6379
 21
-108.66
  0
LINE
  8
0
 10
70.6379
 20
-108.66
 11
70.8417
 21
-108.521
  0
LINE
  8
0
 10
70.8417
 20
-108.521
 11
71.0638
 21
-108.414
  0
LINE
  8
0
 10
71.0638
 20
-108.414
 11
71.2995
 21
-108.341
  0
LINE
  8
0
 10
71.2995
 20
-108.341
 11
71.5434
 21
-108.305
  0
LINE
  8
0
 10
71.5434
 20
-108.305
 11
111.79
 21
-108.305
  0
LINE
  8
0
 10
111.79
 20
-108.305
 11
112.034
 21
-108.341
  0
LINE
  8
0
 10
112.034
 20
-108.341
 11
112.269
 21
-108.414
  0
LINE
  8
0
 10
112.269
 20
-108.414
 11
112.492
 21
-108.521
  0
LINE
  8
0
 10
112.492
 20
-108.521
 11
112.695
 21
-108.66
  0
LINE
  8
0
 10
112.695
 20
-108.66
 11
112.876
 21
-108.828
  0
LINE
  8
0
 10
112.876
 20
-108.828
 11
113.03
 21
-109.021
  0
LINE
  8
0
 10
113.03
 20
-109.021
 11
113.153
 21
-109.234
  0
LINE
  8
0
 10
113.153
 20
-109.234
 11
113.243
 21
-109.464
  0
LINE
  8
0
 10
113.243
 20
-109.464
 11
113.298
 21
-109.704
  0
LINE
  8
0
 10
113.298
 20
-109.704
 11
113.317
 21
-109.95
  0
LINE
  8
0
 10
113.317
 20
-109.95
 11
113.298
 21
-110.196
  0
LINE
  8
0
 10
113.298
 20
-110.196
 11
113.243
 21
-110.436
  0
LINE
  8
0
 10
113.243
 20
-110.436
 11
113.153
 21
-110.666
  0
LINE
  8
0
 10
113.153
 20
-110.666
 11
113.03
 21
-110.879
  0
LINE
  8
0
 10
113.03
 20
-110.879
 11
112.876
 21
-111.072
  0
LINE
  8
0
 10
112.876
 20
-111.072
 11
112.695
 21
-111.24
  0
LINE
  8
0
 10
112.695
 20
-111.24
 11
112.492
 21
-111.379
  0
LINE
  8
0
 10
112.492
 20
-111.379
 11
112.269
 21
-111.486
  0
LINE
  8
0
 10
112.269
 20
-111.486
 11
112.034
 21
-111.559
  0
LINE
  8
0
 10
112.034
 20
-111.559
 11
111.79
 21
-111.595
  0
LINE
  8
0
 10
111.79
 20
-111.595
 11
71.5434
 21
-111.595
  0
LINE
  8
0
 10
-295.123
 20
-111.595
 11
-295.367
 21
-111.559
  0
LINE
  8
0
 10
-295.367
 20
-111.559
 11
-295.603
 21
-111.486
  0
LINE
  8
0
 10
-295.603
 20
-111.486
 11
-295.825
 21
-111.379
  0
LINE
  8
0
 10
-295.825
 20
-111.379
 11
-296.029
 21
-111.24
  0
LINE
  8
0
 10
-296.029
 20
-111.24
 11
-296.21
 21
-111.072
  0
LINE
  8
0
 10
-296.21
 20
-111.072
 11
-296.363
 21
-110.879
  0
LINE
  8
0
 10
-296.363
 20
-110.879
 11
-296.487
 21
-110.666
  0
LINE
  8
0
 10
-296.487
 20
-110.666
 11
-296.577
 21
-110.436
  0
LINE
  8
0
 10
-296.577
 20
-110.436
 11
-296.632
 21
-110.196
  0
LINE
  8
0
 10
-296.632
 20
-110.196
 11
-296.65
 21
-109.95
  0
LINE
  8
0
 10
-296.65
 20
-109.95
 11
-296.632
 21
-109.704
  0
LINE
  8
0
 10
-296.632
 20
-109.704
 11
-296.577
 21
-109.464
  0
LINE
  8
0
 10
-296.577
 20
-109.464
 11
-296.487
 21
-109.234
  0
LINE
  8
0
 10
-296.487
 20
-109.234
 11
-296.363
 21
-109.021
  0
LINE
  8
0
 10
-296.363
 20
-109.021
 11
-296.21
 21
-108.828
  0
LINE
  8
0
 10
-296.21
 20
-108.828
 11
-296.029
 21
-108.66
  0
LINE
  8
0
 10
-296.029
 20
-108.66
 11
-295.825
 21
-108.521
  0
LINE
  8
0
 10
-295.825
 20
-108.521
 11
-295.603
 21
-108.414
  0
LINE
  8
0
 10
-295.603
 20
-108.414
 11
-295.367
 21
-108.341
  0
LINE
  8
0
 10
-295.367
 20
-108.341
 11
-295.123
 21
-108.305
  0
LINE
  8
0
 10
-295.123
 20
-108.305
 11
-254.877
 21
-108.305
  0
LINE
  8
0
 10
-254.877
 20
-108.305
 11
-254.633
 21
-108.341
  0
LINE
  8
0
 10
-254.633
 20
-108.341
 11
-254.397
 21
-108.414
  0
LINE
  8
0
 10
-254.397
 20
-108.414
 11
-254.175
 21
-108.521
  0
LINE
  8
0
 10
-254.175
 20
-108.521
 11
-253.971
 21
-108.66
  0
LINE
  8
0
 10
-253.971
 20
-108.66
 11
-253.79
 21
-108.828
  0
LINE
  8
0
 10
-253.79
 20
-108.828
 11
-253.637
 21
-109.021
  0
LINE
  8
0
 10
-253.637
 20
-109.021
 11
-253.513
 21
-109.234
  0
LINE
  8
0
 10
-253.513
 20
-109.234
 11
-253.423
 21
-109.464
  0
LINE
  8
0
 10
-253.423
 20
-109.464
 11
-253.368
 21
-109.704
  0
LINE
  8
0
 10
-253.368
 20
-109.704
 11
-253.35
 21
-109.95
  0
LINE
  8
0
 10
-253.35
 20
-109.95
 11
-253.368
 21
-110.196
  0
LINE
  8
0
 10
-253.368
 20
-110.196
 11
-253.423
 21
-110.436
  0
LINE
  8
0
 10
-253.423
 20
-110.436
 11
-253.513
 21
-110.666
  0
LINE
  8
0
 10
-253.513
 20
-110.666
 11
-253.637
 21
-110.879
  0
LINE
  8
0
 10
-253.637
 20
-110.879
 11
-253.79
 21
-111.072
  0
LINE
  8
0
 10
-253.79
 20
-111.072
 11
-253.971
 21
-111.24
  0
LINE
  8
0
 10
-253.971
 20
-111.24
 11
-254.175
 21
-111.379
  0
LINE
  8
0
 10
-254.175
 20
-111.379
 11
-254.397
 21
-111.486
  0
LINE
  8
0
 10
-254.397
 20
-111.486
 11
-254.633
 21
-111.559
  0
LINE
  8
0
 10
-254.633
 20
-111.559
 11
-254.877
 21
-111.595
  0
LINE
  8
0
 10
-254.877
 20
-111.595
 11
-295.123
 21
-111.595
  0
LINE
  8
0
 10
163.21
 20
-111.595
 11
162.966
 21
-111.559
  0
LINE
  8
0
 10
162.966
 20
-111.559
 11
162.731
 21
-111.486
  0
LINE
  8
0
 10
162.731
 20
-111.486
 11
162.508
 21
-111.379
  0
LINE
  8
0
 10
162.508
 20
-111.379
 11
162.305
 21
-111.24
  0
LINE
  8
0
 10
162.305
 20
-111.24
 11
162.124
 21
-111.072
  0
LINE
  8
0
 10
162.124
 20
-111.072
 11
161.97
 21
-110.879
  0
LINE
  8
0
 10
161.97
 20
-110.879
 11
161.847
 21
-110.666
  0
LINE
  8
0
 10
161.847
 20
-110.666
 11
161.757
 21
-110.436
  0
LINE
  8
0
 10
161.757
 20
-110.436
 11
161.702
 21
-110.196
  0
LINE
  8
0
 10
161.702
 20
-110.196
 11
161.683
 21
-109.95
  0
LINE
  8
0
 10
161.683
 20
-109.95
 11
161.702
 21
-109.704
  0
LINE
  8
0
 10
161.702
 20
-109.704
 11
161.757
 21
-109.464
  0
LINE
  8
0
 10
161.757
 20
-109.464
 11
161.847
 21
-109.234
  0
LINE
  8
0
 10
161.847
 20
-109.234
 11
161.97
 21
-109.021
  0
LINE
  8
0
 10
161.97
 20
-109.021
 11
162.124
 21
-108.828
  0
LINE
  8
0
 10
162.124
 20
-108.828
 11
162.305
 21
-108.66
  0
LINE
  8
0
 10
162.305
 20
-108.66
 11
162.508
 21
-108.521
  0
LINE
  8
0
 10
162.508
 20
-108.521
 11
162.731
 21
-108.414
  0
LINE
  8
0
 10
162.731
 20
-108.414
 11
162.966
 21
-108.341
  0
LINE
  8
0
 10
162.966
 20
-108.341
 11
163.21
 21
-108.305
  0
LINE
  8
0
 10
163.21
 20
-108.305
 11
203.457
 21
-108.305
  0
LINE
  8
0
 10
203.457
 20
-108.305
 11
203.701
 21
-108.341
  0
LINE
  8
0
 10
203.701
 20
-108.341
 11
203.936
 21
-108.414
  0
LINE
  8
0
 10
203.936
 20
-108.414
 11
204.158
 21
-108.521
  0
LINE
  8
0
 10
204.158
 20
-108.521
 11
204.362
 21
-108.66
  0
LINE
  8
0
 10
204.362
 20
-108.66
 11
204.543
 21
-108.828
  0
LINE
  8
0
 10
204.543
 20
-108.828
 11
204.697
 21
-109.021
  0
LINE
  8
0
 10
204.697
 20
-109.021
 11
204.82
 21
-109.234
  0
LINE
  8
0
 10
204.82
 20
-109.234
 11
204.91
 21
-109.464
  0
LINE
  8
0
 10
204.91
 20
-109.464
 11
204.965
 21
-109.704
  0
LINE
  8
0
 10
204.965
 20
-109.704
 11
204.983
 21
-109.95
  0
LINE
  8
0
 10
204.983
 20
-109.95
 11
204.965
 21
-110.196
  0
LINE
  8
0
 10
204.965
 20
-110.196
 11
204.91
 21
-110.436
  0
LINE
  8
0
 10
204.91
 20
-110.436
 11
204.82
 21
-110.666
  0
LINE
  8
0
 10
204.82
 20
-110.666
 11
204.697
 21
-110.879
  0
LINE
  8
0
 10
204.697
 20
-110.879
 11
204.543
 21
-111.072
  0
LINE
  8
0
 10
204.543
 20
-111.072
 11
204.362
 21
-111.24
  0
LINE
  8
0
 10
204.362
 20
-111.24
 11
204.158
 21
-111.379
  0
LINE
  8
0
 10
204.158
 20
-111.379
 11
203.936
 21
-111.486
  0
LINE
  8
0
 10
203.936
 20
-111.486
 11
203.701
 21
-111.559
  0
LINE
  8
0
 10
203.701
 20
-111.559
 11
203.457
 21
-111.595
  0
LINE
  8
0
 10
203.457
 20
-111.595
 11
163.21
 21
-111.595
  0
ENDSEC
  0
SECTION
  2
OBJECTS
  0
DICTIONARY
  0
ENDSEC
  0
EOF
