  0
SECTION
  2
BLOCKS
  0
ENDSEC
  0
SECTION
  2
ENTITIES
  0
LINE
  8
0
 10
68.284
 20
-83.4589
 11
69.0593
 21
-83.3361
  0
LINE
  8
0
 10
69.0593
 20
-83.3361
 11
69.8176
 21
-83.1329
  0
LINE
  8
0
 10
69.8176
 20
-83.1329
 11
70.5505
 21
-82.8516
  0
LINE
  8
0
 10
70.5505
 20
-82.8516
 11
71.25
 21
-82.4952
  0
LINE
  8
0
 10
71.25
 20
-82.4952
 11
71.9084
 21
-82.0676
  0
LINE
  8
0
 10
71.9084
 20
-82.0676
 11
72.5185
 21
-81.5736
  0
LINE
  8
0
 10
72.5185
 20
-81.5736
 11
73.0736
 21
-81.0185
  0
LINE
  8
0
 10
73.0736
 20
-81.0185
 11
73.5676
 21
-80.4084
  0
LINE
  8
0
 10
73.5676
 20
-80.4084
 11
73.9952
 21
-79.75
  0
LINE
  8
0
 10
73.9952
 20
-79.75
 11
74.3516
 21
-79.0505
  0
LINE
  8
0
 10
74.3516
 20
-79.0505
 11
74.6329
 21
-78.3176
  0
LINE
  8
0
 10
74.6329
 20
-78.3176
 11
74.8361
 21
-77.5593
  0
LINE
  8
0
 10
74.8361
 20
-77.5593
 11
74.9589
 21
-76.784
  0
LINE
  8
0
 10
74.9589
 20
-76.784
 11
75
 21
-76
  0
LINE
  8
0
 10
75
 20
-76
 11
75
 21
-16.7
  0
LINE
  8
0
 10
75
 20
-16.7
 11
75.0274
 21
-16.1774
  0
LINE
  8
0
 10
75.0274
 20
-16.1774
 11
75.1093
 21
-15.6604
  0
LINE
  8
0
 10
75.1093
 20
-15.6604
 11
75.2447
 21
-15.1549
  0
LINE
  8
0
 10
75.2447
 20
-15.1549
 11
75.4323
 21
-14.6663
  0
LINE
  8
0
 10
75.4323
 20
-14.6663
 11
75.6699
 21
-14.2
  0
LINE
  8
0
 10
75.6699
 20
-14.2
 11
75.9549
 21
-13.7611
  0
LINE
  8
0
 10
75.9549
 20
-13.7611
 11
76.2843
 21
-13.3544
  0
LINE
  8
0
 10
76.2843
 20
-13.3544
 11
76.6544
 21
-12.9843
  0
LINE
  8
0
 10
76.6544
 20
-12.9843
 11
77.0611
 21
-12.6549
  0
LINE
  8
0
 10
77.0611
 20
-12.6549
 11
77.5
 21
-12.3699
  0
LINE
  8
0
 10
77.5
 20
-12.3699
 11
77.9663
 21
-12.1323
  0
LINE
  8
0
 10
77.9663
 20
-12.1323
 11
78.4549
 21
-11.9447
  0
LINE
  8
0
 10
78.4549
 20
-11.9447
 11
78.9604
 21
-11.8093
  0
LINE
  8
0
 10
78.9604
 20
-11.8093
 11
79.4774
 21
-11.7274
  0
LINE
  8
0
 10
79.4774
 20
-11.7274
 11
80.784
 21
-11.6589
  0
LINE
  8
0
 10
80.784
 20
-11.6589
 11
81.5593
 21
-11.5361
  0
LINE
  8
0
 10
81.5593
 20
-11.5361
 11
82.3176
 21
-11.3329
  0
LINE
  8
0
 10
82.3176
 20
-11.3329
 11
83.0505
 21
-11.0516
  0
LINE
  8
0
 10
83.0505
 20
-11.0516
 11
83.75
 21
-10.6952
  0
LINE
  8
0
 10
83.75
 20
-10.6952
 11
84.4084
 21
-10.2676
  0
LINE
  8
0
 10
84.4084
 20
-10.2676
 11
85.0185
 21
-9.77357
  0
LINE
  8
0
 10
85.0185
 20
-9.77357
 11
85.5736
 21
-9.21848
  0
LINE
  8
0
 10
85.5736
 20
-9.21848
 11
86.0676
 21
-8.60838
  0
LINE
  8
0
 10
86.0676
 20
-8.60838
 11
86.4952
 21
-7.95
  0
LINE
  8
0
 10
86.4952
 20
-7.95
 11
86.8516
 21
-7.25052
  0
LINE
  8
0
 10
86.8516
 20
-7.25052
 11
87.1329
 21
-6.51762
  0
LINE
  8
0
 10
87.1329
 20
-6.51762
 11
87.3361
 21
-5.75932
  0
LINE
  8
0
 10
87.3361
 20
-5.75932
 11
87.4589
 21
-4.98396
  0
LINE
  8
0
 10
87.4589
 20
-4.98396
 11
87.5
 21
-4.2
  0
LINE
  8
0
 10
87.5
 20
-4.2
 11
87.5
 21
-1.69885
  0
LINE
  8
0
 10
87.5
 20
-1.69885
 11
79.9379
 21
-1.69885
  0
LINE
  8
0
 10
79.9379
 20
-1.69885
 11
79.6912
 21
-1.67171
  0
LINE
  8
0
 10
79.6912
 20
-1.67171
 11
79.4511
 21
-1.60893
  0
LINE
  8
0
 10
79.4511
 20
-1.60893
 11
79.2227
 21
-1.51187
  0
LINE
  8
0
 10
79.2227
 20
-1.51187
 11
79.0108
 21
-1.38258
  0
LINE
  8
0
 10
79.0108
 20
-1.38258
 11
78.8201
 21
-1.22383
  0
LINE
  8
0
 10
78.8201
 20
-1.22383
 11
78.6544
 21
-1.03899
  0
LINE
  8
0
 10
78.6544
 20
-1.03899
 11
78.5175
 21
-0.832001
  0
LINE
  8
0
 10
78.5175
 20
-0.832001
 11
78.4122
 21
-0.607285
  0
LINE
  8
0
 10
78.4122
 20
-0.607285
 11
78.3407
 21
-0.369629
  0
LINE
  8
0
 10
78.3407
 20
-0.369629
 11
78.3045
 21
-0.124084
  0
LINE
  8
0
 10
78.3045
 20
-0.124084
 11
78.3045
 21
0.124084
  0
LINE
  8
0
 10
78.3045
 20
0.124084
 11
78.3407
 21
0.369629
  0
LINE
  8
0
 10
78.3407
 20
0.369629
 11
78.4122
 21
0.607285
  0
LINE
  8
0
 10
78.4122
 20
0.607285
 11
78.5175
 21
0.832001
  0
LINE
  8
0
 10
78.5175
 20
0.832001
 11
78.6544
 21
1.03899
  0
LINE
  8
0
 10
78.6544
 20
1.03899
 11
78.8201
 21
1.22383
  0
LINE
  8
0
 10
78.8201
 20
1.22383
 11
79.0108
 21
1.38258
  0
LINE
  8
0
 10
79.0108
 20
1.38258
 11
79.2227
 21
1.51187
  0
LINE
  8
0
 10
79.2227
 20
1.51187
 11
79.4511
 21
1.60893
  0
LINE
  8
0
 10
79.4511
 20
1.60893
 11
79.6912
 21
1.67171
  0
LINE
  8
0
 10
79.6912
 20
1.67171
 11
79.9379
 21
1.69885
  0
LINE
  8
0
 10
79.9379
 20
1.69885
 11
87.5
 21
1.69885
  0
LINE
  8
0
 10
87.5
 20
1.69885
 11
87.5
 21
4.2
  0
LINE
  8
0
 10
87.5
 20
4.2
 11
87.4589
 21
4.98396
  0
LINE
  8
0
 10
87.4589
 20
4.98396
 11
87.3361
 21
5.75932
  0
LINE
  8
0
 10
87.3361
 20
5.75932
 11
87.1329
 21
6.51762
  0
LINE
  8
0
 10
87.1329
 20
6.51762
 11
86.8516
 21
7.25052
  0
LINE
  8
0
 10
86.8516
 20
7.25052
 11
86.4952
 21
7.95
  0
LINE
  8
0
 10
86.4952
 20
7.95
 11
86.0676
 21
8.60838
  0
LINE
  8
0
 10
86.0676
 20
8.60838
 11
85.5736
 21
9.21848
  0
LINE
  8
0
 10
85.5736
 20
9.21848
 11
85.0185
 21
9.77357
  0
LINE
  8
0
 10
85.0185
 20
9.77357
 11
84.4084
 21
10.2676
  0
LINE
  8
0
 10
84.4084
 20
10.2676
 11
83.75
 21
10.6952
  0
LINE
  8
0
 10
83.75
 20
10.6952
 11
83.0505
 21
11.0516
  0
LINE
  8
0
 10
83.0505
 20
11.0516
 11
82.3176
 21
11.3329
  0
LINE
  8
0
 10
82.3176
 20
11.3329
 11
81.5593
 21
11.5361
  0
LINE
  8
0
 10
81.5593
 20
11.5361
 11
80.784
 21
11.6589
  0
LINE
  8
0
 10
80.784
 20
11.6589
 11
79.4774
 21
11.7274
  0
LINE
  8
0
 10
79.4774
 20
11.7274
 11
78.9604
 21
11.8093
  0
LINE
  8
0
 10
78.9604
 20
11.8093
 11
78.4549
 21
11.9447
  0
LINE
  8
0
 10
78.4549
 20
11.9447
 11
77.9663
 21
12.1323
  0
LINE
  8
0
 10
77.9663
 20
12.1323
 11
77.5
 21
12.3699
  0
LINE
  8
0
 10
77.5
 20
12.3699
 11
77.0611
 21
12.6549
  0
LINE
  8
0
 10
77.0611
 20
12.6549
 11
76.6544
 21
12.9843
  0
LINE
  8
0
 10
76.6544
 20
12.9843
 11
76.2843
 21
13.3544
  0
LINE
  8
0
 10
76.2843
 20
13.3544
 11
75.9549
 21
13.7611
  0
LINE
  8
0
 10
75.9549
 20
13.7611
 11
75.6699
 21
14.2
  0
LINE
  8
0
 10
75.6699
 20
14.2
 11
75.4323
 21
14.6663
  0
LINE
  8
0
 10
75.4323
 20
14.6663
 11
75.2447
 21
15.1549
  0
LINE
  8
0
 10
75.2447
 20
15.1549
 11
75.1093
 21
15.6604
  0
LINE
  8
0
 10
75.1093
 20
15.6604
 11
75.0274
 21
16.1774
  0
LINE
  8
0
 10
75.0274
 20
16.1774
 11
75
 21
16.7
  0
LINE
  8
0
 10
75
 20
16.7
 11
75
 21
76
  0
LINE
  8
0
 10
75
 20
76
 11
74.9589
 21
76.784
  0
LINE
  8
0
 10
74.9589
 20
76.784
 11
74.8361
 21
77.5593
  0
LINE
  8
0
 10
74.8361
 20
77.5593
 11
74.6329
 21
78.3176
  0
LINE
  8
0
 10
74.6329
 20
78.3176
 11
74.3516
 21
79.0505
  0
LINE
  8
0
 10
74.3516
 20
79.0505
 11
73.9952
 21
79.75
  0
LINE
  8
0
 10
73.9952
 20
79.75
 11
73.5676
 21
80.4084
  0
LINE
  8
0
 10
73.5676
 20
80.4084
 11
73.0736
 21
81.0185
  0
LINE
  8
0
 10
73.0736
 20
81.0185
 11
72.5185
 21
81.5736
  0
LINE
  8
0
 10
72.5185
 20
81.5736
 11
71.9084
 21
82.0676
  0
LINE
  8
0
 10
71.9084
 20
82.0676
 11
71.25
 21
82.4952
  0
LINE
  8
0
 10
71.25
 20
82.4952
 11
70.5505
 21
82.8516
  0
LINE
  8
0
 10
70.5505
 20
82.8516
 11
69.8176
 21
83.1329
  0
LINE
  8
0
 10
69.8176
 20
83.1329
 11
69.0593
 21
83.3361
  0
LINE
  8
0
 10
69.0593
 20
83.3361
 11
68.284
 21
83.4589
  0
LINE
  8
0
 10
68.284
 20
83.4589
 11
67.5
 21
83.5
  0
LINE
  8
0
 10
67.5
 20
83.5
 11
-67.5
 21
83.5
  0
LINE
  8
0
 10
-67.5
 20
83.5
 11
-68.284
 21
83.4589
  0
LINE
  8
0
 10
-68.284
 20
83.4589
 11
-69.0593
 21
83.3361
  0
LINE
  8
0
 10
-69.0593
 20
83.3361
 11
-69.8176
 21
83.1329
  0
LINE
  8
0
 10
-69.8176
 20
83.1329
 11
-70.5505
 21
82.8516
  0
LINE
  8
0
 10
-70.5505
 20
82.8516
 11
-71.25
 21
82.4952
  0
LINE
  8
0
 10
-71.25
 20
82.4952
 11
-71.9084
 21
82.0676
  0
LINE
  8
0
 10
-71.9084
 20
82.0676
 11
-72.5185
 21
81.5736
  0
LINE
  8
0
 10
-72.5185
 20
81.5736
 11
-73.0736
 21
81.0185
  0
LINE
  8
0
 10
-73.0736
 20
81.0185
 11
-73.5676
 21
80.4084
  0
LINE
  8
0
 10
-73.5676
 20
80.4084
 11
-73.9952
 21
79.75
  0
LINE
  8
0
 10
-73.9952
 20
79.75
 11
-74.3516
 21
79.0505
  0
LINE
  8
0
 10
-74.3516
 20
79.0505
 11
-74.6329
 21
78.3176
  0
LINE
  8
0
 10
-74.6329
 20
78.3176
 11
-74.8361
 21
77.5593
  0
LINE
  8
0
 10
-74.8361
 20
77.5593
 11
-74.9589
 21
76.784
  0
LINE
  8
0
 10
-74.9589
 20
76.784
 11
-75
 21
76
  0
LINE
  8
0
 10
-75
 20
76
 11
-75
 21
66.7
  0
LINE
  8
0
 10
-75
 20
66.7
 11
-75.0274
 21
66.1774
  0
LINE
  8
0
 10
-75.0274
 20
66.1774
 11
-75.1093
 21
65.6604
  0
LINE
  8
0
 10
-75.1093
 20
65.6604
 11
-75.2447
 21
65.1549
  0
LINE
  8
0
 10
-75.2447
 20
65.1549
 11
-75.4323
 21
64.6663
  0
LINE
  8
0
 10
-75.4323
 20
64.6663
 11
-75.6699
 21
64.2
  0
LINE
  8
0
 10
-75.6699
 20
64.2
 11
-75.9549
 21
63.7611
  0
LINE
  8
0
 10
-75.9549
 20
63.7611
 11
-76.2843
 21
63.3544
  0
LINE
  8
0
 10
-76.2843
 20
63.3544
 11
-76.6544
 21
62.9843
  0
LINE
  8
0
 10
-76.6544
 20
62.9843
 11
-77.0611
 21
62.6549
  0
LINE
  8
0
 10
-77.0611
 20
62.6549
 11
-77.5
 21
62.3699
  0
LINE
  8
0
 10
-77.5
 20
62.3699
 11
-77.9663
 21
62.1323
  0
LINE
  8
0
 10
-77.9663
 20
62.1323
 11
-78.4549
 21
61.9447
  0
LINE
  8
0
 10
-78.4549
 20
61.9447
 11
-78.9604
 21
61.8093
  0
LINE
  8
0
 10
-78.9604
 20
61.8093
 11
-79.4774
 21
61.7274
  0
LINE
  8
0
 10
-79.4774
 20
61.7274
 11
-80.784
 21
61.6589
  0
LINE
  8
0
 10
-80.784
 20
61.6589
 11
-81.5593
 21
61.5361
  0
LINE
  8
0
 10
-81.5593
 20
61.5361
 11
-82.3176
 21
61.3329
  0
LINE
  8
0
 10
-82.3176
 20
61.3329
 11
-83.0505
 21
61.0516
  0
LINE
  8
0
 10
-83.0505
 20
61.0516
 11
-83.75
 21
60.6952
  0
LINE
  8
0
 10
-83.75
 20
60.6952
 11
-84.4084
 21
60.2676
  0
LINE
  8
0
 10
-84.4084
 20
60.2676
 11
-85.0185
 21
59.7736
  0
LINE
  8
0
 10
-85.0185
 20
59.7736
 11
-85.5736
 21
59.2185
  0
LINE
  8
0
 10
-85.5736
 20
59.2185
 11
-86.0676
 21
58.6084
  0
LINE
  8
0
 10
-86.0676
 20
58.6084
 11
-86.4952
 21
57.95
  0
LINE
  8
0
 10
-86.4952
 20
57.95
 11
-86.8516
 21
57.2505
  0
LINE
  8
0
 10
-86.8516
 20
57.2505
 11
-87.1329
 21
56.5176
  0
LINE
  8
0
 10
-87.1329
 20
56.5176
 11
-87.3361
 21
55.7593
  0
LINE
  8
0
 10
-87.3361
 20
55.7593
 11
-87.4589
 21
54.984
  0
LINE
  8
0
 10
-87.4589
 20
54.984
 11
-87.5
 21
54.2
  0
LINE
  8
0
 10
-87.5
 20
54.2
 11
-87.5
 21
51.6989
  0
LINE
  8
0
 10
-87.5
 20
51.6989
 11
-79.9379
 21
51.6989
  0
LINE
  8
0
 10
-79.9379
 20
51.6989
 11
-79.6912
 21
51.6717
  0
LINE
  8
0
 10
-79.6912
 20
51.6717
 11
-79.4511
 21
51.6089
  0
LINE
  8
0
 10
-79.4511
 20
51.6089
 11
-79.2227
 21
51.5119
  0
LINE
  8
0
 10
-79.2227
 20
51.5119
 11
-79.0108
 21
51.3826
  0
LINE
  8
0
 10
-79.0108
 20
51.3826
 11
-78.8201
 21
51.2238
  0
LINE
  8
0
 10
-78.8201
 20
51.2238
 11
-78.6544
 21
51.039
  0
LINE
  8
0
 10
-78.6544
 20
51.039
 11
-78.5175
 21
50.832
  0
LINE
  8
0
 10
-78.5175
 20
50.832
 11
-78.4122
 21
50.6073
  0
LINE
  8
0
 10
-78.4122
 20
50.6073
 11
-78.3407
 21
50.3696
  0
LINE
  8
0
 10
-78.3407
 20
50.3696
 11
-78.3045
 21
50.1241
  0
LINE
  8
0
 10
-78.3045
 20
50.1241
 11
-78.3045
 21
49.8759
  0
LINE
  8
0
 10
-78.3045
 20
49.8759
 11
-78.3407
 21
49.6304
  0
LINE
  8
0
 10
-78.3407
 20
49.6304
 11
-78.4122
 21
49.3927
  0
LINE
  8
0
 10
-78.4122
 20
49.3927
 11
-78.5175
 21
49.168
  0
LINE
  8
0
 10
-78.5175
 20
49.168
 11
-78.6544
 21
48.961
  0
LINE
  8
0
 10
-78.6544
 20
48.961
 11
-78.8201
 21
48.7762
  0
LINE
  8
0
 10
-78.8201
 20
48.7762
 11
-79.0108
 21
48.6174
  0
LINE
  8
0
 10
-79.0108
 20
48.6174
 11
-79.2227
 21
48.4881
  0
LINE
  8
0
 10
-79.2227
 20
48.4881
 11
-79.4511
 21
48.3911
  0
LINE
  8
0
 10
-79.4511
 20
48.3911
 11
-79.6912
 21
48.3283
  0
LINE
  8
0
 10
-79.6912
 20
48.3283
 11
-79.9379
 21
48.3011
  0
LINE
  8
0
 10
-79.9379
 20
48.3011
 11
-87.5
 21
48.3011
  0
LINE
  8
0
 10
-87.5
 20
48.3011
 11
-87.5
 21
45.8
  0
LINE
  8
0
 10
-87.5
 20
45.8
 11
-87.4589
 21
45.016
  0
LINE
  8
0
 10
-87.4589
 20
45.016
 11
-87.3361
 21
44.2407
  0
LINE
  8
0
 10
-87.3361
 20
44.2407
 11
-87.1329
 21
43.4824
  0
LINE
  8
0
 10
-87.1329
 20
43.4824
 11
-86.8516
 21
42.7495
  0
LINE
  8
0
 10
-86.8516
 20
42.7495
 11
-86.4952
 21
42.05
  0
LINE
  8
0
 10
-86.4952
 20
42.05
 11
-86.0676
 21
41.3916
  0
LINE
  8
0
 10
-86.0676
 20
41.3916
 11
-85.5736
 21
40.7815
  0
LINE
  8
0
 10
-85.5736
 20
40.7815
 11
-85.0185
 21
40.2264
  0
LINE
  8
0
 10
-85.0185
 20
40.2264
 11
-84.4084
 21
39.7324
  0
LINE
  8
0
 10
-84.4084
 20
39.7324
 11
-83.75
 21
39.3048
  0
LINE
  8
0
 10
-83.75
 20
39.3048
 11
-83.0505
 21
38.9484
  0
LINE
  8
0
 10
-83.0505
 20
38.9484
 11
-82.3176
 21
38.6671
  0
LINE
  8
0
 10
-82.3176
 20
38.6671
 11
-81.5593
 21
38.4639
  0
LINE
  8
0
 10
-81.5593
 20
38.4639
 11
-80.784
 21
38.3411
  0
LINE
  8
0
 10
-80.784
 20
38.3411
 11
-79.4774
 21
38.2726
  0
LINE
  8
0
 10
-79.4774
 20
38.2726
 11
-78.9604
 21
38.1907
  0
LINE
  8
0
 10
-78.9604
 20
38.1907
 11
-78.4549
 21
38.0553
  0
LINE
  8
0
 10
-78.4549
 20
38.0553
 11
-77.9663
 21
37.8677
  0
LINE
  8
0
 10
-77.9663
 20
37.8677
 11
-77.5
 21
37.6301
  0
LINE
  8
0
 10
-77.5
 20
37.6301
 11
-77.0611
 21
37.3451
  0
LINE
  8
0
 10
-77.0611
 20
37.3451
 11
-76.6544
 21
37.0157
  0
LINE
  8
0
 10
-76.6544
 20
37.0157
 11
-76.2843
 21
36.6456
  0
LINE
  8
0
 10
-76.2843
 20
36.6456
 11
-75.9549
 21
36.2389
  0
LINE
  8
0
 10
-75.9549
 20
36.2389
 11
-75.6699
 21
35.8
  0
LINE
  8
0
 10
-75.6699
 20
35.8
 11
-75.4323
 21
35.3337
  0
LINE
  8
0
 10
-75.4323
 20
35.3337
 11
-75.2447
 21
34.8451
  0
LINE
  8
0
 10
-75.2447
 20
34.8451
 11
-75.1093
 21
34.3396
  0
LINE
  8
0
 10
-75.1093
 20
34.3396
 11
-75.0274
 21
33.8226
  0
LINE
  8
0
 10
-75.0274
 20
33.8226
 11
-75
 21
33.3
  0
LINE
  8
0
 10
-75
 20
33.3
 11
-75
 21
-33.3
  0
LINE
  8
0
 10
-75
 20
-33.3
 11
-75.0274
 21
-33.8226
  0
LINE
  8
0
 10
-75.0274
 20
-33.8226
 11
-75.1093
 21
-34.3396
  0
LINE
  8
0
 10
-75.1093
 20
-34.3396
 11
-75.2447
 21
-34.8451
  0
LINE
  8
0
 10
-75.2447
 20
-34.8451
 11
-75.4323
 21
-35.3337
  0
LINE
  8
0
 10
-75.4323
 20
-35.3337
 11
-75.6699
 21
-35.8
  0
LINE
  8
0
 10
-75.6699
 20
-35.8
 11
-75.9549
 21
-36.2389
  0
LINE
  8
0
 10
-75.9549
 20
-36.2389
 11
-76.2843
 21
-36.6456
  0
LINE
  8
0
 10
-76.2843
 20
-36.6456
 11
-76.6544
 21
-37.0157
  0
LINE
  8
0
 10
-76.6544
 20
-37.0157
 11
-77.0611
 21
-37.3451
  0
LINE
  8
0
 10
-77.0611
 20
-37.3451
 11
-77.5
 21
-37.6301
  0
LINE
  8
0
 10
-77.5
 20
-37.6301
 11
-77.9663
 21
-37.8677
  0
LINE
  8
0
 10
-77.9663
 20
-37.8677
 11
-78.4549
 21
-38.0553
  0
LINE
  8
0
 10
-78.4549
 20
-38.0553
 11
-78.9604
 21
-38.1907
  0
LINE
  8
0
 10
-78.9604
 20
-38.1907
 11
-79.4774
 21
-38.2726
  0
LINE
  8
0
 10
-79.4774
 20
-38.2726
 11
-80.784
 21
-38.3411
  0
LINE
  8
0
 10
-80.784
 20
-38.3411
 11
-81.5593
 21
-38.4639
  0
LINE
  8
0
 10
-81.5593
 20
-38.4639
 11
-82.3176
 21
-38.6671
  0
LINE
  8
0
 10
-82.3176
 20
-38.6671
 11
-83.0505
 21
-38.9484
  0
LINE
  8
0
 10
-83.0505
 20
-38.9484
 11
-83.75
 21
-39.3048
  0
LINE
  8
0
 10
-83.75
 20
-39.3048
 11
-84.4084
 21
-39.7324
  0
LINE
  8
0
 10
-84.4084
 20
-39.7324
 11
-85.0185
 21
-40.2264
  0
LINE
  8
0
 10
-85.0185
 20
-40.2264
 11
-85.5736
 21
-40.7815
  0
LINE
  8
0
 10
-85.5736
 20
-40.7815
 11
-86.0676
 21
-41.3916
  0
LINE
  8
0
 10
-86.0676
 20
-41.3916
 11
-86.4952
 21
-42.05
  0
LINE
  8
0
 10
-86.4952
 20
-42.05
 11
-86.8516
 21
-42.7495
  0
LINE
  8
0
 10
-86.8516
 20
-42.7495
 11
-87.1329
 21
-43.4824
  0
LINE
  8
0
 10
-87.1329
 20
-43.4824
 11
-87.3361
 21
-44.2407
  0
LINE
  8
0
 10
-87.3361
 20
-44.2407
 11
-87.4589
 21
-45.016
  0
LINE
  8
0
 10
-87.4589
 20
-45.016
 11
-87.5
 21
-45.8
  0
LINE
  8
0
 10
-87.5
 20
-45.8
 11
-87.5
 21
-48.3011
  0
LINE
  8
0
 10
-87.5
 20
-48.3011
 11
-79.9379
 21
-48.3011
  0
LINE
  8
0
 10
-79.9379
 20
-48.3011
 11
-79.6912
 21
-48.3283
  0
LINE
  8
0
 10
-79.6912
 20
-48.3283
 11
-79.4511
 21
-48.3911
  0
LINE
  8
0
 10
-79.4511
 20
-48.3911
 11
-79.2227
 21
-48.4881
  0
LINE
  8
0
 10
-79.2227
 20
-48.4881
 11
-79.0108
 21
-48.6174
  0
LINE
  8
0
 10
-79.0108
 20
-48.6174
 11
-78.8201
 21
-48.7762
  0
LINE
  8
0
 10
-78.8201
 20
-48.7762
 11
-78.6544
 21
-48.961
  0
LINE
  8
0
 10
-78.6544
 20
-48.961
 11
-78.5175
 21
-49.168
  0
LINE
  8
0
 10
-78.5175
 20
-49.168
 11
-78.4122
 21
-49.3927
  0
LINE
  8
0
 10
-78.4122
 20
-49.3927
 11
-78.3407
 21
-49.6304
  0
LINE
  8
0
 10
-78.3407
 20
-49.6304
 11
-78.3045
 21
-49.8759
  0
LINE
  8
0
 10
-78.3045
 20
-49.8759
 11
-78.3045
 21
-50.1241
  0
LINE
  8
0
 10
-78.3045
 20
-50.1241
 11
-78.3407
 21
-50.3696
  0
LINE
  8
0
 10
-78.3407
 20
-50.3696
 11
-78.4122
 21
-50.6073
  0
LINE
  8
0
 10
-78.4122
 20
-50.6073
 11
-78.5175
 21
-50.832
  0
LINE
  8
0
 10
-78.5175
 20
-50.832
 11
-78.6544
 21
-51.039
  0
LINE
  8
0
 10
-78.6544
 20
-51.039
 11
-78.8201
 21
-51.2238
  0
LINE
  8
0
 10
-78.8201
 20
-51.2238
 11
-79.0108
 21
-51.3826
  0
LINE
  8
0
 10
-79.0108
 20
-51.3826
 11
-79.2227
 21
-51.5119
  0
LINE
  8
0
 10
-79.2227
 20
-51.5119
 11
-79.4511
 21
-51.6089
  0
LINE
  8
0
 10
-79.4511
 20
-51.6089
 11
-79.6912
 21
-51.6717
  0
LINE
  8
0
 10
-79.6912
 20
-51.6717
 11
-79.9379
 21
-51.6989
  0
LINE
  8
0
 10
-79.9379
 20
-51.6989
 11
-87.5
 21
-51.6989
  0
LINE
  8
0
 10
-87.5
 20
-51.6989
 11
-87.5
 21
-54.2
  0
LINE
  8
0
 10
-87.5
 20
-54.2
 11
-87.4589
 21
-54.984
  0
LINE
  8
0
 10
-87.4589
 20
-54.984
 11
-87.3361
 21
-55.7593
  0
LINE
  8
0
 10
-87.3361
 20
-55.7593
 11
-87.1329
 21
-56.5176
  0
LINE
  8
0
 10
-87.1329
 20
-56.5176
 11
-86.8516
 21
-57.2505
  0
LINE
  8
0
 10
-86.8516
 20
-57.2505
 11
-86.4952
 21
-57.95
  0
LINE
  8
0
 10
-86.4952
 20
-57.95
 11
-86.0676
 21
-58.6084
  0
LINE
  8
0
 10
-86.0676
 20
-58.6084
 11
-85.5736
 21
-59.2185
  0
LINE
  8
0
 10
-85.5736
 20
-59.2185
 11
-85.0185
 21
-59.7736
  0
LINE
  8
0
 10
-85.0185
 20
-59.7736
 11
-84.4084
 21
-60.2676
  0
LINE
  8
0
 10
-84.4084
 20
-60.2676
 11
-83.75
 21
-60.6952
  0
LINE
  8
0
 10
-83.75
 20
-60.6952
 11
-83.0505
 21
-61.0516
  0
LINE
  8
0
 10
-83.0505
 20
-61.0516
 11
-82.3176
 21
-61.3329
  0
LINE
  8
0
 10
-82.3176
 20
-61.3329
 11
-81.5593
 21
-61.5361
  0
LINE
  8
0
 10
-81.5593
 20
-61.5361
 11
-80.784
 21
-61.6589
  0
LINE
  8
0
 10
-80.784
 20
-61.6589
 11
-79.4774
 21
-61.7274
  0
LINE
  8
0
 10
-79.4774
 20
-61.7274
 11
-78.9604
 21
-61.8093
  0
LINE
  8
0
 10
-78.9604
 20
-61.8093
 11
-78.4549
 21
-61.9447
  0
LINE
  8
0
 10
-78.4549
 20
-61.9447
 11
-77.9663
 21
-62.1323
  0
LINE
  8
0
 10
-77.9663
 20
-62.1323
 11
-77.5
 21
-62.3699
  0
LINE
  8
0
 10
-77.5
 20
-62.3699
 11
-77.0611
 21
-62.6549
  0
LINE
  8
0
 10
-77.0611
 20
-62.6549
 11
-76.6544
 21
-62.9843
  0
LINE
  8
0
 10
-76.6544
 20
-62.9843
 11
-76.2843
 21
-63.3544
  0
LINE
  8
0
 10
-76.2843
 20
-63.3544
 11
-75.9549
 21
-63.7611
  0
LINE
  8
0
 10
-75.9549
 20
-63.7611
 11
-75.6699
 21
-64.2
  0
LINE
  8
0
 10
-75.6699
 20
-64.2
 11
-75.4323
 21
-64.6663
  0
LINE
  8
0
 10
-75.4323
 20
-64.6663
 11
-75.2447
 21
-65.1549
  0
LINE
  8
0
 10
-75.2447
 20
-65.1549
 11
-75.1093
 21
-65.6604
  0
LINE
  8
0
 10
-75.1093
 20
-65.6604
 11
-75.0274
 21
-66.1774
  0
LINE
  8
0
 10
-75.0274
 20
-66.1774
 11
-75
 21
-66.7
  0
LINE
  8
0
 10
-75
 20
-66.7
 11
-75
 21
-76
  0
LINE
  8
0
 10
-75
 20
-76
 11
-74.9589
 21
-76.784
  0
LINE
  8
0
 10
-74.9589
 20
-76.784
 11
-74.8361
 21
-77.5593
  0
LINE
  8
0
 10
-74.8361
 20
-77.5593
 11
-74.6329
 21
-78.3176
  0
LINE
  8
0
 10
-74.6329
 20
-78.3176
 11
-74.3516
 21
-79.0505
  0
LINE
  8
0
 10
-74.3516
 20
-79.0505
 11
-73.9952
 21
-79.75
  0
LINE
  8
0
 10
-73.9952
 20
-79.75
 11
-73.5676
 21
-80.4084
  0
LINE
  8
0
 10
-73.5676
 20
-80.4084
 11
-73.0736
 21
-81.0185
  0
LINE
  8
0
 10
-73.0736
 20
-81.0185
 11
-72.5185
 21
-81.5736
  0
LINE
  8
0
 10
-72.5185
 20
-81.5736
 11
-71.9084
 21
-82.0676
  0
LINE
  8
0
 10
-71.9084
 20
-82.0676
 11
-71.25
 21
-82.4952
  0
LINE
  8
0
 10
-71.25
 20
-82.4952
 11
-70.5505
 21
-82.8516
  0
LINE
  8
0
 10
-70.5505
 20
-82.8516
 11
-69.8176
 21
-83.1329
  0
LINE
  8
0
 10
-69.8176
 20
-83.1329
 11
-69.0593
 21
-83.3361
  0
LINE
  8
0
 10
-69.0593
 20
-83.3361
 11
-68.284
 21
-83.4589
  0
LINE
  8
0
 10
-68.284
 20
-83.4589
 11
-67.5
 21
-83.5
  0
LINE
  8
0
 10
-67.5
 20
-83.5
 11
67.5
 21
-83.5
  0
LINE
  8
0
 10
67.5
 20
-83.5
 11
68.284
 21
-83.4589
  0
LINE
  8
0
 10
69.8165
 20
-36.5894
 11
69.576
 21
-36.5428
  0
LINE
  8
0
 10
69.576
 20
-36.5428
 11
69.3455
 21
-36.46
  0
LINE
  8
0
 10
69.3455
 20
-36.46
 11
69.1303
 21
-36.343
  0
LINE
  8
0
 10
69.1303
 20
-36.343
 11
68.9355
 21
-36.1945
  0
LINE
  8
0
 10
68.9355
 20
-36.1945
 11
68.7656
 21
-36.018
  0
LINE
  8
0
 10
68.7656
 20
-36.018
 11
68.6247
 21
-35.8176
  0
LINE
  8
0
 10
68.6247
 20
-35.8176
 11
68.516
 21
-35.5981
  0
LINE
  8
0
 10
68.516
 20
-35.5981
 11
68.4421
 21
-35.3646
  0
LINE
  8
0
 10
68.4421
 20
-35.3646
 11
68.4047
 21
-35.1225
  0
LINE
  8
0
 10
68.4047
 20
-35.1225
 11
68.4047
 21
-34.8775
  0
LINE
  8
0
 10
68.4047
 20
-34.8775
 11
68.4421
 21
-34.6354
  0
LINE
  8
0
 10
68.4421
 20
-34.6354
 11
68.516
 21
-34.4019
  0
LINE
  8
0
 10
68.516
 20
-34.4019
 11
68.6247
 21
-34.1824
  0
LINE
  8
0
 10
68.6247
 20
-34.1824
 11
68.7656
 21
-33.982
  0
LINE
  8
0
 10
68.7656
 20
-33.982
 11
68.9355
 21
-33.8055
  0
LINE
  8
0
 10
68.9355
 20
-33.8055
 11
69.1303
 21
-33.657
  0
LINE
  8
0
 10
69.1303
 20
-33.657
 11
69.3455
 21
-33.54
  0
LINE
  8
0
 10
69.3455
 20
-33.54
 11
69.576
 21
-33.4572
  0
LINE
  8
0
 10
69.576
 20
-33.4572
 11
69.8165
 21
-33.4106
  0
LINE
  8
0
 10
69.8165
 20
-33.4106
 11
70.0613
 21
-33.4012
  0
LINE
  8
0
 10
70.0613
 20
-33.4012
 11
70.3046
 21
-33.4293
  0
LINE
  8
0
 10
70.3046
 20
-33.4293
 11
70.5408
 21
-33.4942
  0
LINE
  8
0
 10
70.5408
 20
-33.4942
 11
70.7643
 21
-33.5944
  0
LINE
  8
0
 10
70.7643
 20
-33.5944
 11
70.97
 21
-33.7275
  0
LINE
  8
0
 10
70.97
 20
-33.7275
 11
71.1528
 21
-33.8905
  0
LINE
  8
0
 10
71.1528
 20
-33.8905
 11
71.3087
 21
-34.0795
  0
LINE
  8
0
 10
71.3087
 20
-34.0795
 11
71.4339
 21
-34.29
  0
LINE
  8
0
 10
71.4339
 20
-34.29
 11
71.5254
 21
-34.5172
  0
LINE
  8
0
 10
71.5254
 20
-34.5172
 11
71.5812
 21
-34.7558
  0
LINE
  8
0
 10
71.5812
 20
-34.7558
 11
71.6
 21
-35
  0
LINE
  8
0
 10
71.6
 20
-35
 11
71.5812
 21
-35.2442
  0
LINE
  8
0
 10
71.5812
 20
-35.2442
 11
71.5254
 21
-35.4827
  0
LINE
  8
0
 10
71.5254
 20
-35.4827
 11
71.4339
 21
-35.7099
  0
LINE
  8
0
 10
71.4339
 20
-35.7099
 11
71.3087
 21
-35.9205
  0
LINE
  8
0
 10
71.3087
 20
-35.9205
 11
71.1528
 21
-36.1095
  0
LINE
  8
0
 10
71.1528
 20
-36.1095
 11
70.97
 21
-36.2725
  0
LINE
  8
0
 10
70.97
 20
-36.2725
 11
70.7643
 21
-36.4056
  0
LINE
  8
0
 10
70.7643
 20
-36.4056
 11
70.5408
 21
-36.5058
  0
LINE
  8
0
 10
70.5408
 20
-36.5058
 11
70.3046
 21
-36.5707
  0
LINE
  8
0
 10
70.3046
 20
-36.5707
 11
70.0613
 21
-36.5988
  0
LINE
  8
0
 10
70.0613
 20
-36.5988
 11
69.8165
 21
-36.5894
  0
LINE
  8
0
 10
69.8165
 20
-56.5894
 11
69.576
 21
-56.5428
  0
LINE
  8
0
 10
69.576
 20
-56.5428
 11
69.3455
 21
-56.46
  0
LINE
  8
0
 10
69.3455
 20
-56.46
 11
69.1303
 21
-56.343
  0
LINE
  8
0
 10
69.1303
 20
-56.343
 11
68.9355
 21
-56.1945
  0
LINE
  8
0
 10
68.9355
 20
-56.1945
 11
68.7656
 21
-56.018
  0
LINE
  8
0
 10
68.7656
 20
-56.018
 11
68.6247
 21
-55.8176
  0
LINE
  8
0
 10
68.6247
 20
-55.8176
 11
68.516
 21
-55.5981
  0
LINE
  8
0
 10
68.516
 20
-55.5981
 11
68.4421
 21
-55.3646
  0
LINE
  8
0
 10
68.4421
 20
-55.3646
 11
68.4047
 21
-55.1225
  0
LINE
  8
0
 10
68.4047
 20
-55.1225
 11
68.4047
 21
-54.8775
  0
LINE
  8
0
 10
68.4047
 20
-54.8775
 11
68.4421
 21
-54.6354
  0
LINE
  8
0
 10
68.4421
 20
-54.6354
 11
68.516
 21
-54.4019
  0
LINE
  8
0
 10
68.516
 20
-54.4019
 11
68.6247
 21
-54.1824
  0
LINE
  8
0
 10
68.6247
 20
-54.1824
 11
68.7656
 21
-53.982
  0
LINE
  8
0
 10
68.7656
 20
-53.982
 11
68.9355
 21
-53.8055
  0
LINE
  8
0
 10
68.9355
 20
-53.8055
 11
69.1303
 21
-53.657
  0
LINE
  8
0
 10
69.1303
 20
-53.657
 11
69.3455
 21
-53.54
  0
LINE
  8
0
 10
69.3455
 20
-53.54
 11
69.576
 21
-53.4572
  0
LINE
  8
0
 10
69.576
 20
-53.4572
 11
69.8165
 21
-53.4106
  0
LINE
  8
0
 10
69.8165
 20
-53.4106
 11
70.0613
 21
-53.4012
  0
LINE
  8
0
 10
70.0613
 20
-53.4012
 11
70.3046
 21
-53.4293
  0
LINE
  8
0
 10
70.3046
 20
-53.4293
 11
70.5408
 21
-53.4942
  0
LINE
  8
0
 10
70.5408
 20
-53.4942
 11
70.7643
 21
-53.5944
  0
LINE
  8
0
 10
70.7643
 20
-53.5944
 11
70.97
 21
-53.7275
  0
LINE
  8
0
 10
70.97
 20
-53.7275
 11
71.1528
 21
-53.8905
  0
LINE
  8
0
 10
71.1528
 20
-53.8905
 11
71.3087
 21
-54.0795
  0
LINE
  8
0
 10
71.3087
 20
-54.0795
 11
71.4339
 21
-54.29
  0
LINE
  8
0
 10
71.4339
 20
-54.29
 11
71.5254
 21
-54.5172
  0
LINE
  8
0
 10
71.5254
 20
-54.5172
 11
71.5812
 21
-54.7558
  0
LINE
  8
0
 10
71.5812
 20
-54.7558
 11
71.6
 21
-55
  0
LINE
  8
0
 10
71.6
 20
-55
 11
71.5812
 21
-55.2442
  0
LINE
  8
0
 10
71.5812
 20
-55.2442
 11
71.5254
 21
-55.4827
  0
LINE
  8
0
 10
71.5254
 20
-55.4827
 11
71.4339
 21
-55.7099
  0
LINE
  8
0
 10
71.4339
 20
-55.7099
 11
71.3087
 21
-55.9205
  0
LINE
  8
0
 10
71.3087
 20
-55.9205
 11
71.1528
 21
-56.1095
  0
LINE
  8
0
 10
71.1528
 20
-56.1095
 11
70.97
 21
-56.2725
  0
LINE
  8
0
 10
70.97
 20
-56.2725
 11
70.7643
 21
-56.4056
  0
LINE
  8
0
 10
70.7643
 20
-56.4056
 11
70.5408
 21
-56.5058
  0
LINE
  8
0
 10
70.5408
 20
-56.5058
 11
70.3046
 21
-56.5707
  0
LINE
  8
0
 10
70.3046
 20
-56.5707
 11
70.0613
 21
-56.5988
  0
LINE
  8
0
 10
70.0613
 20
-56.5988
 11
69.8165
 21
-56.5894
  0
ENDSEC
  0
SECTION
  2
OBJECTS
  0
DICTIONARY
  0
ENDSEC
  0
EOF
