  0
SECTION
  2
BLOCKS
  0
ENDSEC
  0
SECTION
  2
ENTITIES
  0
LINE
  8
0
 10
114.591
 20
-114.89
 11
116.658
 21
-114.563
  0
LINE
  8
0
 10
116.658
 20
-114.563
 11
118.68
 21
-114.021
  0
LINE
  8
0
 10
118.68
 20
-114.021
 11
120.635
 21
-113.271
  0
LINE
  8
0
 10
120.635
 20
-113.271
 11
122.5
 21
-112.32
  0
LINE
  8
0
 10
122.5
 20
-112.32
 11
124.256
 21
-111.18
  0
LINE
  8
0
 10
124.256
 20
-111.18
 11
125.883
 21
-109.863
  0
LINE
  8
0
 10
125.883
 20
-109.863
 11
127.363
 21
-108.383
  0
LINE
  8
0
 10
127.363
 20
-108.383
 11
128.68
 21
-106.756
  0
LINE
  8
0
 10
128.68
 20
-106.756
 11
129.82
 21
-105
  0
LINE
  8
0
 10
129.82
 20
-105
 11
130.771
 21
-103.135
  0
LINE
  8
0
 10
130.771
 20
-103.135
 11
131.521
 21
-101.18
  0
LINE
  8
0
 10
131.521
 20
-101.18
 11
132.063
 21
-99.1582
  0
LINE
  8
0
 10
132.063
 20
-99.1582
 11
132.39
 21
-97.0906
  0
LINE
  8
0
 10
132.39
 20
-97.0906
 11
132.5
 21
-95
  0
LINE
  8
0
 10
132.5
 20
-95
 11
132.5
 21
95
  0
LINE
  8
0
 10
132.5
 20
95
 11
132.39
 21
97.0906
  0
LINE
  8
0
 10
132.39
 20
97.0906
 11
132.063
 21
99.1582
  0
LINE
  8
0
 10
132.063
 20
99.1582
 11
131.521
 21
101.18
  0
LINE
  8
0
 10
131.521
 20
101.18
 11
130.771
 21
103.135
  0
LINE
  8
0
 10
130.771
 20
103.135
 11
129.82
 21
105
  0
LINE
  8
0
 10
129.82
 20
105
 11
128.68
 21
106.756
  0
LINE
  8
0
 10
128.68
 20
106.756
 11
127.363
 21
108.383
  0
LINE
  8
0
 10
127.363
 20
108.383
 11
125.883
 21
109.863
  0
LINE
  8
0
 10
125.883
 20
109.863
 11
124.256
 21
111.18
  0
LINE
  8
0
 10
124.256
 20
111.18
 11
122.5
 21
112.32
  0
LINE
  8
0
 10
122.5
 20
112.32
 11
120.635
 21
113.271
  0
LINE
  8
0
 10
120.635
 20
113.271
 11
118.68
 21
114.021
  0
LINE
  8
0
 10
118.68
 20
114.021
 11
116.658
 21
114.563
  0
LINE
  8
0
 10
116.658
 20
114.563
 11
114.591
 21
114.89
  0
LINE
  8
0
 10
114.591
 20
114.89
 11
112.5
 21
115
  0
LINE
  8
0
 10
112.5
 20
115
 11
3
 21
115
  0
LINE
  8
0
 10
3
 20
115
 11
2.73868
 21
114.986
  0
LINE
  8
0
 10
2.73868
 20
114.986
 11
2.48021
 21
114.945
  0
LINE
  8
0
 10
2.48021
 20
114.945
 11
2.22745
 21
114.878
  0
LINE
  8
0
 10
2.22745
 20
114.878
 11
1.98315
 21
114.784
  0
LINE
  8
0
 10
1.98315
 20
114.784
 11
1.75
 21
114.665
  0
LINE
  8
0
 10
1.75
 20
114.665
 11
1.53053
 21
114.523
  0
LINE
  8
0
 10
1.53053
 20
114.523
 11
1.32716
 21
114.358
  0
LINE
  8
0
 10
1.32716
 20
114.358
 11
1.14214
 21
114.173
  0
LINE
  8
0
 10
1.14214
 20
114.173
 11
0.977448
 21
113.969
  0
LINE
  8
0
 10
0.977448
 20
113.969
 11
0.83493
 21
113.75
  0
LINE
  8
0
 10
0.83493
 20
113.75
 11
0.716125
 21
113.517
  0
LINE
  8
0
 10
0.716125
 20
113.517
 11
0.622345
 21
113.273
  0
LINE
  8
0
 10
0.622345
 20
113.273
 11
0.554626
 21
113.02
  0
LINE
  8
0
 10
0.554626
 20
113.02
 11
0.513687
 21
112.761
  0
LINE
  8
0
 10
0.513687
 20
112.761
 11
0.5
 21
112.5
  0
LINE
  8
0
 10
0.5
 20
112.5
 11
0.5
 21
-112.5
  0
LINE
  8
0
 10
0.5
 20
-112.5
 11
0.513687
 21
-112.761
  0
LINE
  8
0
 10
0.513687
 20
-112.761
 11
0.554626
 21
-113.02
  0
LINE
  8
0
 10
0.554626
 20
-113.02
 11
0.622345
 21
-113.273
  0
LINE
  8
0
 10
0.622345
 20
-113.273
 11
0.716125
 21
-113.517
  0
LINE
  8
0
 10
0.716125
 20
-113.517
 11
0.83493
 21
-113.75
  0
LINE
  8
0
 10
0.83493
 20
-113.75
 11
0.977448
 21
-113.969
  0
LINE
  8
0
 10
0.977448
 20
-113.969
 11
1.14214
 21
-114.173
  0
LINE
  8
0
 10
1.14214
 20
-114.173
 11
1.32716
 21
-114.358
  0
LINE
  8
0
 10
1.32716
 20
-114.358
 11
1.53053
 21
-114.523
  0
LINE
  8
0
 10
1.53053
 20
-114.523
 11
1.75
 21
-114.665
  0
LINE
  8
0
 10
1.75
 20
-114.665
 11
1.98315
 21
-114.784
  0
LINE
  8
0
 10
1.98315
 20
-114.784
 11
2.22745
 21
-114.878
  0
LINE
  8
0
 10
2.22745
 20
-114.878
 11
2.48021
 21
-114.945
  0
LINE
  8
0
 10
2.48021
 20
-114.945
 11
2.73868
 21
-114.986
  0
LINE
  8
0
 10
2.73868
 20
-114.986
 11
3
 21
-115
  0
LINE
  8
0
 10
3
 20
-115
 11
112.5
 21
-115
  0
LINE
  8
0
 10
112.5
 20
-115
 11
114.591
 21
-114.89
  0
ENDSEC
  0
SECTION
  2
OBJECTS
  0
DICTIONARY
  0
ENDSEC
  0
EOF
