solid OpenSCAD_Model
  facet normal 0 0 -1
    outer loop
      vertex 112.5 -115 0
      vertex 132.5 -95 0
      vertex 132.39 -97.0906 0
    endloop
  endfacet
  facet normal -0 0 -1
    outer loop
      vertex 132.5 -95 0
      vertex 0.5 -112.5 0
      vertex 132.5 95 0
    endloop
  endfacet
  facet normal 0 0 -1
    outer loop
      vertex 112.5 -115 0
      vertex 132.39 -97.0906 0
      vertex 132.063 -99.1582 0
    endloop
  endfacet
  facet normal 0 0 -1
    outer loop
      vertex 0.5 112.5 0
      vertex 132.5 95 0
      vertex 0.5 -112.5 0
    endloop
  endfacet
  facet normal 0 0 -1
    outer loop
      vertex 112.5 -115 0
      vertex 132.063 -99.1582 0
      vertex 131.521 -101.18 0
    endloop
  endfacet
  facet normal 0 -0 -1
    outer loop
      vertex 112.5 115 0
      vertex 132.5 95 0
      vertex 0.5 112.5 0
    endloop
  endfacet
  facet normal 0 0 -1
    outer loop
      vertex 112.5 -115 0
      vertex 131.521 -101.18 0
      vertex 130.771 -103.135 0
    endloop
  endfacet
  facet normal 0 0 -1
    outer loop
      vertex 132.5 95 0
      vertex 112.5 115 0
      vertex 132.39 97.0906 0
    endloop
  endfacet
  facet normal 0 0 -1
    outer loop
      vertex 112.5 -115 0
      vertex 130.771 -103.135 0
      vertex 129.82 -105 0
    endloop
  endfacet
  facet normal 0 0 -1
    outer loop
      vertex 132.5 -95 0
      vertex 112.5 -115 0
      vertex 0.5 -112.5 0
    endloop
  endfacet
  facet normal 0 0 -1
    outer loop
      vertex 112.5 -115 0
      vertex 129.82 -105 0
      vertex 128.68 -106.756 0
    endloop
  endfacet
  facet normal 0 0 -1
    outer loop
      vertex 132.39 97.0906 0
      vertex 112.5 115 0
      vertex 132.063 99.1582 0
    endloop
  endfacet
  facet normal 0 0 -1
    outer loop
      vertex 112.5 -115 0
      vertex 128.68 -106.756 0
      vertex 127.363 -108.383 0
    endloop
  endfacet
  facet normal 0 0 -1
    outer loop
      vertex 130.771 103.135 0
      vertex 112.5 115 0
      vertex 129.82 105 0
    endloop
  endfacet
  facet normal 0 0 -1
    outer loop
      vertex 112.5 -115 0
      vertex 127.363 -108.383 0
      vertex 125.883 -109.863 0
    endloop
  endfacet
  facet normal 0 0 -1
    outer loop
      vertex 129.82 105 0
      vertex 112.5 115 0
      vertex 128.68 106.756 0
    endloop
  endfacet
  facet normal 0 0 -1
    outer loop
      vertex 112.5 -115 0
      vertex 125.883 -109.863 0
      vertex 124.256 -111.18 0
    endloop
  endfacet
  facet normal 0 0 -1
    outer loop
      vertex 128.68 106.756 0
      vertex 112.5 115 0
      vertex 127.363 108.383 0
    endloop
  endfacet
  facet normal 0 0 -1
    outer loop
      vertex 112.5 -115 0
      vertex 124.256 -111.18 0
      vertex 122.5 -112.32 0
    endloop
  endfacet
  facet normal 0 0 -1
    outer loop
      vertex 127.363 108.383 0
      vertex 112.5 115 0
      vertex 125.883 109.863 0
    endloop
  endfacet
  facet normal 0 0 -1
    outer loop
      vertex 112.5 -115 0
      vertex 122.5 -112.32 0
      vertex 120.635 -113.271 0
    endloop
  endfacet
  facet normal 0 0 -1
    outer loop
      vertex 125.883 109.863 0
      vertex 112.5 115 0
      vertex 124.256 111.18 0
    endloop
  endfacet
  facet normal 0 0 -1
    outer loop
      vertex 112.5 -115 0
      vertex 120.635 -113.271 0
      vertex 118.68 -114.021 0
    endloop
  endfacet
  facet normal 0 0 -1
    outer loop
      vertex 124.256 111.18 0
      vertex 112.5 115 0
      vertex 122.5 112.32 0
    endloop
  endfacet
  facet normal 0 0 -1
    outer loop
      vertex 112.5 -115 0
      vertex 118.68 -114.021 0
      vertex 116.658 -114.563 0
    endloop
  endfacet
  facet normal 0 0 -1
    outer loop
      vertex 122.5 112.32 0
      vertex 112.5 115 0
      vertex 120.635 113.271 0
    endloop
  endfacet
  facet normal 0 0 -1
    outer loop
      vertex 112.5 -115 0
      vertex 116.658 -114.563 0
      vertex 114.591 -114.89 0
    endloop
  endfacet
  facet normal 0 0 -1
    outer loop
      vertex 120.635 113.271 0
      vertex 112.5 115 0
      vertex 118.68 114.021 0
    endloop
  endfacet
  facet normal 0 0 -1
    outer loop
      vertex 118.68 114.021 0
      vertex 112.5 115 0
      vertex 116.658 114.563 0
    endloop
  endfacet
  facet normal 0 0 -1
    outer loop
      vertex 116.658 114.563 0
      vertex 112.5 115 0
      vertex 114.591 114.89 0
    endloop
  endfacet
  facet normal 0 0 -1
    outer loop
      vertex 0.5 -112.5 0
      vertex 112.5 -115 0
      vertex 3 -115 0
    endloop
  endfacet
  facet normal 0 0 -1
    outer loop
      vertex 132.063 99.1582 0
      vertex 112.5 115 0
      vertex 131.521 101.18 0
    endloop
  endfacet
  facet normal 0 0 -1
    outer loop
      vertex 0.5 -112.5 0
      vertex 3 -115 0
      vertex 2.73868 -114.986 0
    endloop
  endfacet
  facet normal 0 0 -1
    outer loop
      vertex 131.521 101.18 0
      vertex 112.5 115 0
      vertex 130.771 103.135 0
    endloop
  endfacet
  facet normal 0 0 -1
    outer loop
      vertex 0.5 -112.5 0
      vertex 2.73868 -114.986 0
      vertex 2.48021 -114.945 0
    endloop
  endfacet
  facet normal -0 0 -1
    outer loop
      vertex 112.5 115 0
      vertex 0.5 112.5 0
      vertex 3 115 0
    endloop
  endfacet
  facet normal 0 0 -1
    outer loop
      vertex 0.5 -112.5 0
      vertex 2.48021 -114.945 0
      vertex 2.22745 -114.878 0
    endloop
  endfacet
  facet normal 0 0 -1
    outer loop
      vertex 3 115 0
      vertex 0.5 112.5 0
      vertex 2.73868 114.986 0
    endloop
  endfacet
  facet normal 0 0 -1
    outer loop
      vertex 0.5 -112.5 0
      vertex 2.22745 -114.878 0
      vertex 1.98315 -114.784 0
    endloop
  endfacet
  facet normal 0 0 -1
    outer loop
      vertex 2.73868 114.986 0
      vertex 0.5 112.5 0
      vertex 2.48021 114.945 0
    endloop
  endfacet
  facet normal 0 0 -1
    outer loop
      vertex 0.5 -112.5 0
      vertex 1.98315 -114.784 0
      vertex 1.75 -114.665 0
    endloop
  endfacet
  facet normal 0 0 -1
    outer loop
      vertex 2.48021 114.945 0
      vertex 0.5 112.5 0
      vertex 2.22745 114.878 0
    endloop
  endfacet
  facet normal 0 0 -1
    outer loop
      vertex 0.5 -112.5 0
      vertex 1.75 -114.665 0
      vertex 1.53053 -114.523 0
    endloop
  endfacet
  facet normal 0 0 -1
    outer loop
      vertex 2.22745 114.878 0
      vertex 0.5 112.5 0
      vertex 1.98315 114.784 0
    endloop
  endfacet
  facet normal 0 0 -1
    outer loop
      vertex 0.5 -112.5 0
      vertex 1.53053 -114.523 0
      vertex 1.32716 -114.358 0
    endloop
  endfacet
  facet normal 0 0 -1
    outer loop
      vertex 1.98315 114.784 0
      vertex 0.5 112.5 0
      vertex 1.75 114.665 0
    endloop
  endfacet
  facet normal 0 0 -1
    outer loop
      vertex 0.5 -112.5 0
      vertex 1.32716 -114.358 0
      vertex 1.14214 -114.173 0
    endloop
  endfacet
  facet normal 0 0 -1
    outer loop
      vertex 1.75 114.665 0
      vertex 0.5 112.5 0
      vertex 1.53053 114.523 0
    endloop
  endfacet
  facet normal 0 0 -1
    outer loop
      vertex 0.5 -112.5 0
      vertex 1.14214 -114.173 0
      vertex 0.977448 -113.969 0
    endloop
  endfacet
  facet normal 0 0 -1
    outer loop
      vertex 1.53053 114.523 0
      vertex 0.5 112.5 0
      vertex 1.32716 114.358 0
    endloop
  endfacet
  facet normal 0 0 -1
    outer loop
      vertex 0.5 -112.5 0
      vertex 0.977448 -113.969 0
      vertex 0.83493 -113.75 0
    endloop
  endfacet
  facet normal 0 0 -1
    outer loop
      vertex 1.32716 114.358 0
      vertex 0.5 112.5 0
      vertex 1.14214 114.173 0
    endloop
  endfacet
  facet normal 0 0 -1
    outer loop
      vertex 0.5 -112.5 0
      vertex 0.83493 -113.75 0
      vertex 0.716125 -113.517 0
    endloop
  endfacet
  facet normal 0 0 -1
    outer loop
      vertex 1.14214 114.173 0
      vertex 0.5 112.5 0
      vertex 0.977448 113.969 0
    endloop
  endfacet
  facet normal 0 0 -1
    outer loop
      vertex 0.5 -112.5 0
      vertex 0.716125 -113.517 0
      vertex 0.622345 -113.273 0
    endloop
  endfacet
  facet normal 0 0 -1
    outer loop
      vertex 0.977448 113.969 0
      vertex 0.5 112.5 0
      vertex 0.83493 113.75 0
    endloop
  endfacet
  facet normal 0 0 -1
    outer loop
      vertex 0.5 -112.5 0
      vertex 0.622345 -113.273 0
      vertex 0.554626 -113.02 0
    endloop
  endfacet
  facet normal 0 0 -1
    outer loop
      vertex 0.83493 113.75 0
      vertex 0.5 112.5 0
      vertex 0.716125 113.517 0
    endloop
  endfacet
  facet normal 0 0 -1
    outer loop
      vertex 0.5 -112.5 0
      vertex 0.554626 -113.02 0
      vertex 0.513687 -112.761 0
    endloop
  endfacet
  facet normal 0 0 -1
    outer loop
      vertex 0.716125 113.517 0
      vertex 0.5 112.5 0
      vertex 0.622345 113.273 0
    endloop
  endfacet
  facet normal 0 0 -1
    outer loop
      vertex 0.622345 113.273 0
      vertex 0.5 112.5 0
      vertex 0.554626 113.02 0
    endloop
  endfacet
  facet normal 0 0 -1
    outer loop
      vertex 0.554626 113.02 0
      vertex 0.5 112.5 0
      vertex 0.513687 112.761 0
    endloop
  endfacet
  facet normal -0.987737 -0.156127 0
    outer loop
      vertex 0.554626 -113.02 0
      vertex 0.513687 -112.761 6.35
      vertex 0.513687 -112.761 0
    endloop
  endfacet
  facet normal -0.987737 -0.156127 0
    outer loop
      vertex 0.513687 -112.761 6.35
      vertex 0.554626 -113.02 0
      vertex 0.554626 -113.02 6.35
    endloop
  endfacet
  facet normal -1 0 0
    outer loop
      vertex 0.5 -112.5 0
      vertex 0.5 112.5 6.35
      vertex 0.5 112.5 0
    endloop
  endfacet
  facet normal -1 -0 0
    outer loop
      vertex 0.5 112.5 6.35
      vertex 0.5 -112.5 0
      vertex 0.5 -112.5 6.35
    endloop
  endfacet
  facet normal 0.998619 0.0525438 0
    outer loop
      vertex 132.5 95 6.35
      vertex 132.39 97.0906 0
      vertex 132.39 97.0906 6.35
    endloop
  endfacet
  facet normal 0.998619 0.0525438 0
    outer loop
      vertex 132.39 97.0906 0
      vertex 132.5 95 6.35
      vertex 132.5 95 0
    endloop
  endfacet
  facet normal -0.998628 -0.0523687 0
    outer loop
      vertex 0.513687 -112.761 0
      vertex 0.5 -112.5 6.35
      vertex 0.5 -112.5 0
    endloop
  endfacet
  facet normal -0.998628 -0.0523687 0
    outer loop
      vertex 0.5 -112.5 6.35
      vertex 0.513687 -112.761 0
      vertex 0.513687 -112.761 6.35
    endloop
  endfacet
  facet normal -0.83815 0.54544 0
    outer loop
      vertex 0.83493 113.75 0
      vertex 0.977448 113.969 6.35
      vertex 0.977448 113.969 0
    endloop
  endfacet
  facet normal -0.83815 0.54544 0
    outer loop
      vertex 0.977448 113.969 6.35
      vertex 0.83493 113.75 0
      vertex 0.83493 113.75 6.35
    endloop
  endfacet
  facet normal 0 0 1
    outer loop
      vertex 112.5 115 6.35
      vertex 132.5 95 6.35
      vertex 132.39 97.0906 6.35
    endloop
  endfacet
  facet normal 0 0 1
    outer loop
      vertex 132.5 95 6.35
      vertex 0.5 112.5 6.35
      vertex 132.5 -95 6.35
    endloop
  endfacet
  facet normal 0 0 1
    outer loop
      vertex 112.5 115 6.35
      vertex 132.39 97.0906 6.35
      vertex 132.063 99.1582 6.35
    endloop
  endfacet
  facet normal 0 0 1
    outer loop
      vertex 0.5 -112.5 6.35
      vertex 132.5 -95 6.35
      vertex 0.5 112.5 6.35
    endloop
  endfacet
  facet normal 0 0 1
    outer loop
      vertex 112.5 115 6.35
      vertex 132.063 99.1582 6.35
      vertex 131.521 101.18 6.35
    endloop
  endfacet
  facet normal 0 -0 1
    outer loop
      vertex 112.5 -115 6.35
      vertex 132.5 -95 6.35
      vertex 0.5 -112.5 6.35
    endloop
  endfacet
  facet normal 0 0 1
    outer loop
      vertex 112.5 115 6.35
      vertex 131.521 101.18 6.35
      vertex 130.771 103.135 6.35
    endloop
  endfacet
  facet normal 0 0 1
    outer loop
      vertex 132.5 -95 6.35
      vertex 112.5 -115 6.35
      vertex 132.39 -97.0906 6.35
    endloop
  endfacet
  facet normal 0 0 1
    outer loop
      vertex 112.5 115 6.35
      vertex 130.771 103.135 6.35
      vertex 129.82 105 6.35
    endloop
  endfacet
  facet normal 0 0 1
    outer loop
      vertex 132.5 95 6.35
      vertex 112.5 115 6.35
      vertex 0.5 112.5 6.35
    endloop
  endfacet
  facet normal 0 0 1
    outer loop
      vertex 112.5 115 6.35
      vertex 129.82 105 6.35
      vertex 128.68 106.756 6.35
    endloop
  endfacet
  facet normal 0 0 1
    outer loop
      vertex 132.39 -97.0906 6.35
      vertex 112.5 -115 6.35
      vertex 132.063 -99.1582 6.35
    endloop
  endfacet
  facet normal 0 0 1
    outer loop
      vertex 112.5 115 6.35
      vertex 128.68 106.756 6.35
      vertex 127.363 108.383 6.35
    endloop
  endfacet
  facet normal 0 0 1
    outer loop
      vertex 130.771 -103.135 6.35
      vertex 112.5 -115 6.35
      vertex 129.82 -105 6.35
    endloop
  endfacet
  facet normal 0 0 1
    outer loop
      vertex 112.5 115 6.35
      vertex 127.363 108.383 6.35
      vertex 125.883 109.863 6.35
    endloop
  endfacet
  facet normal 0 0 1
    outer loop
      vertex 129.82 -105 6.35
      vertex 112.5 -115 6.35
      vertex 128.68 -106.756 6.35
    endloop
  endfacet
  facet normal 0 0 1
    outer loop
      vertex 112.5 115 6.35
      vertex 125.883 109.863 6.35
      vertex 124.256 111.18 6.35
    endloop
  endfacet
  facet normal 0 0 1
    outer loop
      vertex 128.68 -106.756 6.35
      vertex 112.5 -115 6.35
      vertex 127.363 -108.383 6.35
    endloop
  endfacet
  facet normal 0 0 1
    outer loop
      vertex 112.5 115 6.35
      vertex 124.256 111.18 6.35
      vertex 122.5 112.32 6.35
    endloop
  endfacet
  facet normal 0 0 1
    outer loop
      vertex 127.363 -108.383 6.35
      vertex 112.5 -115 6.35
      vertex 125.883 -109.863 6.35
    endloop
  endfacet
  facet normal 0 0 1
    outer loop
      vertex 112.5 115 6.35
      vertex 122.5 112.32 6.35
      vertex 120.635 113.271 6.35
    endloop
  endfacet
  facet normal 0 0 1
    outer loop
      vertex 125.883 -109.863 6.35
      vertex 112.5 -115 6.35
      vertex 124.256 -111.18 6.35
    endloop
  endfacet
  facet normal 0 0 1
    outer loop
      vertex 112.5 115 6.35
      vertex 120.635 113.271 6.35
      vertex 118.68 114.021 6.35
    endloop
  endfacet
  facet normal 0 0 1
    outer loop
      vertex 124.256 -111.18 6.35
      vertex 112.5 -115 6.35
      vertex 122.5 -112.32 6.35
    endloop
  endfacet
  facet normal 0 0 1
    outer loop
      vertex 112.5 115 6.35
      vertex 118.68 114.021 6.35
      vertex 116.658 114.563 6.35
    endloop
  endfacet
  facet normal 0 0 1
    outer loop
      vertex 122.5 -112.32 6.35
      vertex 112.5 -115 6.35
      vertex 120.635 -113.271 6.35
    endloop
  endfacet
  facet normal 0 0 1
    outer loop
      vertex 112.5 115 6.35
      vertex 116.658 114.563 6.35
      vertex 114.591 114.89 6.35
    endloop
  endfacet
  facet normal 0 0 1
    outer loop
      vertex 120.635 -113.271 6.35
      vertex 112.5 -115 6.35
      vertex 118.68 -114.021 6.35
    endloop
  endfacet
  facet normal 0 0 1
    outer loop
      vertex 118.68 -114.021 6.35
      vertex 112.5 -115 6.35
      vertex 116.658 -114.563 6.35
    endloop
  endfacet
  facet normal 0 0 1
    outer loop
      vertex 116.658 -114.563 6.35
      vertex 112.5 -115 6.35
      vertex 114.591 -114.89 6.35
    endloop
  endfacet
  facet normal 0 0 1
    outer loop
      vertex 0.5 112.5 6.35
      vertex 112.5 115 6.35
      vertex 3 115 6.35
    endloop
  endfacet
  facet normal 0 0 1
    outer loop
      vertex 132.063 -99.1582 6.35
      vertex 112.5 -115 6.35
      vertex 131.521 -101.18 6.35
    endloop
  endfacet
  facet normal 0 0 1
    outer loop
      vertex 0.5 112.5 6.35
      vertex 3 115 6.35
      vertex 2.73868 114.986 6.35
    endloop
  endfacet
  facet normal 0 0 1
    outer loop
      vertex 131.521 -101.18 6.35
      vertex 112.5 -115 6.35
      vertex 130.771 -103.135 6.35
    endloop
  endfacet
  facet normal 0 0 1
    outer loop
      vertex 0.5 112.5 6.35
      vertex 2.73868 114.986 6.35
      vertex 2.48021 114.945 6.35
    endloop
  endfacet
  facet normal 0 0 1
    outer loop
      vertex 112.5 -115 6.35
      vertex 0.5 -112.5 6.35
      vertex 3 -115 6.35
    endloop
  endfacet
  facet normal 0 0 1
    outer loop
      vertex 0.5 112.5 6.35
      vertex 2.48021 114.945 6.35
      vertex 2.22745 114.878 6.35
    endloop
  endfacet
  facet normal 0 0 1
    outer loop
      vertex 3 -115 6.35
      vertex 0.5 -112.5 6.35
      vertex 2.73868 -114.986 6.35
    endloop
  endfacet
  facet normal 0 0 1
    outer loop
      vertex 0.5 112.5 6.35
      vertex 2.22745 114.878 6.35
      vertex 1.98315 114.784 6.35
    endloop
  endfacet
  facet normal 0 0 1
    outer loop
      vertex 2.73868 -114.986 6.35
      vertex 0.5 -112.5 6.35
      vertex 2.48021 -114.945 6.35
    endloop
  endfacet
  facet normal 0 0 1
    outer loop
      vertex 0.5 112.5 6.35
      vertex 1.98315 114.784 6.35
      vertex 1.75 114.665 6.35
    endloop
  endfacet
  facet normal 0 0 1
    outer loop
      vertex 2.48021 -114.945 6.35
      vertex 0.5 -112.5 6.35
      vertex 2.22745 -114.878 6.35
    endloop
  endfacet
  facet normal 0 0 1
    outer loop
      vertex 0.5 112.5 6.35
      vertex 1.75 114.665 6.35
      vertex 1.53053 114.523 6.35
    endloop
  endfacet
  facet normal 0 0 1
    outer loop
      vertex 2.22745 -114.878 6.35
      vertex 0.5 -112.5 6.35
      vertex 1.98315 -114.784 6.35
    endloop
  endfacet
  facet normal 0 0 1
    outer loop
      vertex 0.5 112.5 6.35
      vertex 1.53053 114.523 6.35
      vertex 1.32716 114.358 6.35
    endloop
  endfacet
  facet normal 0 0 1
    outer loop
      vertex 1.98315 -114.784 6.35
      vertex 0.5 -112.5 6.35
      vertex 1.75 -114.665 6.35
    endloop
  endfacet
  facet normal 0 0 1
    outer loop
      vertex 0.5 112.5 6.35
      vertex 1.32716 114.358 6.35
      vertex 1.14214 114.173 6.35
    endloop
  endfacet
  facet normal 0 0 1
    outer loop
      vertex 1.75 -114.665 6.35
      vertex 0.5 -112.5 6.35
      vertex 1.53053 -114.523 6.35
    endloop
  endfacet
  facet normal 0 0 1
    outer loop
      vertex 0.5 112.5 6.35
      vertex 1.14214 114.173 6.35
      vertex 0.977448 113.969 6.35
    endloop
  endfacet
  facet normal 0 0 1
    outer loop
      vertex 1.53053 -114.523 6.35
      vertex 0.5 -112.5 6.35
      vertex 1.32716 -114.358 6.35
    endloop
  endfacet
  facet normal 0 0 1
    outer loop
      vertex 0.5 112.5 6.35
      vertex 0.977448 113.969 6.35
      vertex 0.83493 113.75 6.35
    endloop
  endfacet
  facet normal 0 0 1
    outer loop
      vertex 1.32716 -114.358 6.35
      vertex 0.5 -112.5 6.35
      vertex 1.14214 -114.173 6.35
    endloop
  endfacet
  facet normal 0 0 1
    outer loop
      vertex 0.5 112.5 6.35
      vertex 0.83493 113.75 6.35
      vertex 0.716125 113.517 6.35
    endloop
  endfacet
  facet normal 0 0 1
    outer loop
      vertex 1.14214 -114.173 6.35
      vertex 0.5 -112.5 6.35
      vertex 0.977448 -113.969 6.35
    endloop
  endfacet
  facet normal 0 0 1
    outer loop
      vertex 0.5 112.5 6.35
      vertex 0.716125 113.517 6.35
      vertex 0.622345 113.273 6.35
    endloop
  endfacet
  facet normal 0 0 1
    outer loop
      vertex 0.977448 -113.969 6.35
      vertex 0.5 -112.5 6.35
      vertex 0.83493 -113.75 6.35
    endloop
  endfacet
  facet normal 0 0 1
    outer loop
      vertex 0.5 112.5 6.35
      vertex 0.622345 113.273 6.35
      vertex 0.554626 113.02 6.35
    endloop
  endfacet
  facet normal 0 0 1
    outer loop
      vertex 0.83493 -113.75 6.35
      vertex 0.5 -112.5 6.35
      vertex 0.716125 -113.517 6.35
    endloop
  endfacet
  facet normal 0 0 1
    outer loop
      vertex 0.5 112.5 6.35
      vertex 0.554626 113.02 6.35
      vertex 0.513687 112.761 6.35
    endloop
  endfacet
  facet normal 0 0 1
    outer loop
      vertex 0.716125 -113.517 6.35
      vertex 0.5 -112.5 6.35
      vertex 0.622345 -113.273 6.35
    endloop
  endfacet
  facet normal 0 0 1
    outer loop
      vertex 0.622345 -113.273 6.35
      vertex 0.5 -112.5 6.35
      vertex 0.554626 -113.02 6.35
    endloop
  endfacet
  facet normal 0 0 1
    outer loop
      vertex 0.554626 -113.02 6.35
      vertex 0.5 -112.5 6.35
      vertex 0.513687 -112.761 6.35
    endloop
  endfacet
  facet normal 0.156257 0.987716 -0
    outer loop
      vertex 116.658 114.563 0
      vertex 114.591 114.89 6.35
      vertex 116.658 114.563 6.35
    endloop
  endfacet
  facet normal 0.156257 0.987716 0
    outer loop
      vertex 114.591 114.89 6.35
      vertex 116.658 114.563 0
      vertex 114.591 114.89 0
    endloop
  endfacet
  facet normal -0.998628 0.0523687 0
    outer loop
      vertex 0.5 112.5 0
      vertex 0.513687 112.761 6.35
      vertex 0.513687 112.761 0
    endloop
  endfacet
  facet normal -0.998628 0.0523687 0
    outer loop
      vertex 0.513687 112.761 6.35
      vertex 0.5 112.5 0
      vertex 0.5 112.5 6.35
    endloop
  endfacet
  facet normal 1 -0 0
    outer loop
      vertex 132.5 -95 6.35
      vertex 132.5 95 0
      vertex 132.5 95 6.35
    endloop
  endfacet
  facet normal 1 0 0
    outer loop
      vertex 132.5 95 0
      vertex 132.5 -95 6.35
      vertex 132.5 -95 0
    endloop
  endfacet
  facet normal 0.777267 0.629171 0
    outer loop
      vertex 128.68 106.756 6.35
      vertex 127.363 108.383 0
      vertex 127.363 108.383 6.35
    endloop
  endfacet
  facet normal 0.777267 0.629171 0
    outer loop
      vertex 127.363 108.383 0
      vertex 128.68 106.756 6.35
      vertex 128.68 106.756 0
    endloop
  endfacet
  facet normal 0 1 -0
    outer loop
      vertex 112.5 115 0
      vertex 3 115 6.35
      vertex 112.5 115 6.35
    endloop
  endfacet
  facet normal 0 1 0
    outer loop
      vertex 3 115 6.35
      vertex 112.5 115 0
      vertex 3 115 0
    endloop
  endfacet
  facet normal 0.0525338 0.998619 -0
    outer loop
      vertex 114.591 114.89 0
      vertex 112.5 115 6.35
      vertex 114.591 114.89 6.35
    endloop
  endfacet
  facet normal 0.0525338 0.998619 0
    outer loop
      vertex 112.5 115 6.35
      vertex 114.591 114.89 0
      vertex 112.5 115 0
    endloop
  endfacet
  facet normal -0.93343 0.358759 0
    outer loop
      vertex 0.622345 113.273 0
      vertex 0.716125 113.517 6.35
      vertex 0.716125 113.517 0
    endloop
  endfacet
  facet normal -0.93343 0.358759 0
    outer loop
      vertex 0.716125 113.517 6.35
      vertex 0.622345 113.273 0
      vertex 0.622345 113.273 6.35
    endloop
  endfacet
  facet normal -0.890874 0.45425 0
    outer loop
      vertex 0.716125 113.517 0
      vertex 0.83493 113.75 6.35
      vertex 0.83493 113.75 0
    endloop
  endfacet
  facet normal -0.890874 0.45425 0
    outer loop
      vertex 0.83493 113.75 6.35
      vertex 0.716125 113.517 0
      vertex 0.716125 113.517 6.35
    endloop
  endfacet
  facet normal 0.965895 -0.258935 0
    outer loop
      vertex 131.521 -101.18 6.35
      vertex 132.063 -99.1582 0
      vertex 132.063 -99.1582 6.35
    endloop
  endfacet
  facet normal 0.965895 -0.258935 0
    outer loop
      vertex 132.063 -99.1582 0
      vertex 131.521 -101.18 6.35
      vertex 131.521 -101.18 0
    endloop
  endfacet
  facet normal 0.890864 -0.454269 0
    outer loop
      vertex 129.82 -105 6.35
      vertex 130.771 -103.135 0
      vertex 130.771 -103.135 6.35
    endloop
  endfacet
  facet normal 0.890864 -0.454269 0
    outer loop
      vertex 130.771 -103.135 0
      vertex 129.82 -105 6.35
      vertex 129.82 -105 0
    endloop
  endfacet
  facet normal 0.987723 -0.156213 0
    outer loop
      vertex 132.063 -99.1582 6.35
      vertex 132.39 -97.0906 0
      vertex 132.39 -97.0906 6.35
    endloop
  endfacet
  facet normal 0.987723 -0.156213 0
    outer loop
      vertex 132.39 -97.0906 0
      vertex 132.063 -99.1582 6.35
      vertex 132.063 -99.1582 0
    endloop
  endfacet
  facet normal 0 -1 0
    outer loop
      vertex 3 -115 0
      vertex 112.5 -115 6.35
      vertex 3 -115 6.35
    endloop
  endfacet
  facet normal 0 -1 -0
    outer loop
      vertex 112.5 -115 6.35
      vertex 3 -115 0
      vertex 112.5 -115 0
    endloop
  endfacet
  facet normal 0.933653 0.358179 0
    outer loop
      vertex 131.521 101.18 6.35
      vertex 130.771 103.135 0
      vertex 130.771 103.135 6.35
    endloop
  endfacet
  facet normal 0.933653 0.358179 0
    outer loop
      vertex 130.771 103.135 0
      vertex 131.521 101.18 6.35
      vertex 131.521 101.18 0
    endloop
  endfacet
  facet normal 0.987723 0.156213 0
    outer loop
      vertex 132.39 97.0906 6.35
      vertex 132.063 99.1582 0
      vertex 132.063 99.1582 6.35
    endloop
  endfacet
  facet normal 0.987723 0.156213 0
    outer loop
      vertex 132.063 99.1582 0
      vertex 132.39 97.0906 6.35
      vertex 132.39 97.0906 0
    endloop
  endfacet
  facet normal 0.890864 0.454269 0
    outer loop
      vertex 130.771 103.135 6.35
      vertex 129.82 105 0
      vertex 129.82 105 6.35
    endloop
  endfacet
  facet normal 0.890864 0.454269 0
    outer loop
      vertex 129.82 105 0
      vertex 130.771 103.135 6.35
      vertex 130.771 103.135 0
    endloop
  endfacet
  facet normal 0.454269 0.890864 -0
    outer loop
      vertex 122.5 112.32 0
      vertex 120.635 113.271 6.35
      vertex 122.5 112.32 6.35
    endloop
  endfacet
  facet normal 0.454269 0.890864 0
    outer loop
      vertex 120.635 113.271 6.35
      vertex 122.5 112.32 0
      vertex 120.635 113.271 0
    endloop
  endfacet
  facet normal 0.629171 0.777267 -0
    outer loop
      vertex 125.883 109.863 0
      vertex 124.256 111.18 6.35
      vertex 125.883 109.863 6.35
    endloop
  endfacet
  facet normal 0.629171 0.777267 0
    outer loop
      vertex 124.256 111.18 6.35
      vertex 125.883 109.863 0
      vertex 124.256 111.18 0
    endloop
  endfacet
  facet normal -0.45461 0.890691 0
    outer loop
      vertex 1.98315 114.784 0
      vertex 1.75 114.665 6.35
      vertex 1.98315 114.784 6.35
    endloop
  endfacet
  facet normal -0.45461 0.890691 0
    outer loop
      vertex 1.75 114.665 6.35
      vertex 1.98315 114.784 0
      vertex 1.75 114.665 0
    endloop
  endfacet
  facet normal -0.987737 0.156127 0
    outer loop
      vertex 0.513687 112.761 0
      vertex 0.554626 113.02 6.35
      vertex 0.554626 113.02 0
    endloop
  endfacet
  facet normal -0.987737 0.156127 0
    outer loop
      vertex 0.554626 113.02 6.35
      vertex 0.513687 112.761 0
      vertex 0.513687 112.761 6.35
    endloop
  endfacet
  facet normal -0.965995 0.258562 0
    outer loop
      vertex 0.554626 113.02 0
      vertex 0.622345 113.273 6.35
      vertex 0.622345 113.273 0
    endloop
  endfacet
  facet normal -0.965995 0.258562 0
    outer loop
      vertex 0.622345 113.273 6.35
      vertex 0.554626 113.02 0
      vertex 0.554626 113.02 6.35
    endloop
  endfacet
  facet normal 0.933653 -0.358179 0
    outer loop
      vertex 130.771 -103.135 6.35
      vertex 131.521 -101.18 0
      vertex 131.521 -101.18 6.35
    endloop
  endfacet
  facet normal 0.933653 -0.358179 0
    outer loop
      vertex 131.521 -101.18 0
      vertex 130.771 -103.135 6.35
      vertex 130.771 -103.135 0
    endloop
  endfacet
  facet normal 0.998619 -0.0525438 0
    outer loop
      vertex 132.39 -97.0906 6.35
      vertex 132.5 -95 0
      vertex 132.5 -95 6.35
    endloop
  endfacet
  facet normal 0.998619 -0.0525438 0
    outer loop
      vertex 132.5 -95 0
      vertex 132.39 -97.0906 6.35
      vertex 132.39 -97.0906 0
    endloop
  endfacet
  facet normal 0.156257 -0.987716 0
    outer loop
      vertex 114.591 -114.89 0
      vertex 116.658 -114.563 6.35
      vertex 114.591 -114.89 6.35
    endloop
  endfacet
  facet normal 0.156257 -0.987716 0
    outer loop
      vertex 116.658 -114.563 6.35
      vertex 114.591 -114.89 0
      vertex 116.658 -114.563 0
    endloop
  endfacet
  facet normal 0.358179 -0.933653 0
    outer loop
      vertex 118.68 -114.021 0
      vertex 120.635 -113.271 6.35
      vertex 118.68 -114.021 6.35
    endloop
  endfacet
  facet normal 0.358179 -0.933653 0
    outer loop
      vertex 120.635 -113.271 6.35
      vertex 118.68 -114.021 0
      vertex 120.635 -113.271 0
    endloop
  endfacet
  facet normal 0.544518 -0.838749 0
    outer loop
      vertex 122.5 -112.32 0
      vertex 124.256 -111.18 6.35
      vertex 122.5 -112.32 6.35
    endloop
  endfacet
  facet normal 0.544518 -0.838749 0
    outer loop
      vertex 124.256 -111.18 6.35
      vertex 122.5 -112.32 0
      vertex 124.256 -111.18 0
    endloop
  endfacet
  facet normal 0.707107 -0.707107 0
    outer loop
      vertex 125.883 -109.863 6.35
      vertex 127.363 -108.383 0
      vertex 127.363 -108.383 6.35
    endloop
  endfacet
  facet normal 0.707107 -0.707107 0
    outer loop
      vertex 127.363 -108.383 0
      vertex 125.883 -109.863 6.35
      vertex 125.883 -109.863 0
    endloop
  endfacet
  facet normal 0.0525338 -0.998619 0
    outer loop
      vertex 112.5 -115 0
      vertex 114.591 -114.89 6.35
      vertex 112.5 -115 6.35
    endloop
  endfacet
  facet normal 0.0525338 -0.998619 0
    outer loop
      vertex 114.591 -114.89 6.35
      vertex 112.5 -115 0
      vertex 114.591 -114.89 0
    endloop
  endfacet
  facet normal -0.890874 -0.45425 0
    outer loop
      vertex 0.83493 -113.75 0
      vertex 0.716125 -113.517 6.35
      vertex 0.716125 -113.517 0
    endloop
  endfacet
  facet normal -0.890874 -0.45425 0
    outer loop
      vertex 0.716125 -113.517 6.35
      vertex 0.83493 -113.75 0
      vertex 0.83493 -113.75 6.35
    endloop
  endfacet
  facet normal 0.965895 0.258935 0
    outer loop
      vertex 132.063 99.1582 6.35
      vertex 131.521 101.18 0
      vertex 131.521 101.18 6.35
    endloop
  endfacet
  facet normal 0.965895 0.258935 0
    outer loop
      vertex 131.521 101.18 0
      vertex 132.063 99.1582 6.35
      vertex 132.063 99.1582 0
    endloop
  endfacet
  facet normal 0.838749 0.544518 0
    outer loop
      vertex 129.82 105 6.35
      vertex 128.68 106.756 0
      vertex 128.68 106.756 6.35
    endloop
  endfacet
  facet normal 0.838749 0.544518 0
    outer loop
      vertex 128.68 106.756 0
      vertex 129.82 105 6.35
      vertex 129.82 105 0
    endloop
  endfacet
  facet normal 0.358179 0.933653 -0
    outer loop
      vertex 120.635 113.271 0
      vertex 118.68 114.021 6.35
      vertex 120.635 113.271 6.35
    endloop
  endfacet
  facet normal 0.358179 0.933653 0
    outer loop
      vertex 118.68 114.021 6.35
      vertex 120.635 113.271 0
      vertex 118.68 114.021 0
    endloop
  endfacet
  facet normal 0.258911 0.965901 -0
    outer loop
      vertex 118.68 114.021 0
      vertex 116.658 114.563 6.35
      vertex 118.68 114.021 6.35
    endloop
  endfacet
  facet normal 0.258911 0.965901 0
    outer loop
      vertex 116.658 114.563 6.35
      vertex 118.68 114.021 0
      vertex 116.658 114.563 0
    endloop
  endfacet
  facet normal 0.544518 0.838749 -0
    outer loop
      vertex 124.256 111.18 0
      vertex 122.5 112.32 6.35
      vertex 124.256 111.18 6.35
    endloop
  endfacet
  facet normal 0.544518 0.838749 0
    outer loop
      vertex 122.5 112.32 6.35
      vertex 124.256 111.18 0
      vertex 122.5 112.32 0
    endloop
  endfacet
  facet normal 0.707107 0.707107 0
    outer loop
      vertex 127.363 108.383 6.35
      vertex 125.883 109.863 0
      vertex 125.883 109.863 6.35
    endloop
  endfacet
  facet normal 0.707107 0.707107 0
    outer loop
      vertex 125.883 109.863 0
      vertex 127.363 108.383 6.35
      vertex 127.363 108.383 0
    endloop
  endfacet
  facet normal -0.630045 0.776559 0
    outer loop
      vertex 1.53053 114.523 0
      vertex 1.32716 114.358 6.35
      vertex 1.53053 114.523 6.35
    endloop
  endfacet
  facet normal -0.630045 0.776559 0
    outer loop
      vertex 1.32716 114.358 6.35
      vertex 1.53053 114.523 0
      vertex 1.32716 114.358 0
    endloop
  endfacet
  facet normal -0.256225 0.966617 0
    outer loop
      vertex 2.48021 114.945 0
      vertex 2.22745 114.878 6.35
      vertex 2.48021 114.945 6.35
    endloop
  endfacet
  facet normal -0.256225 0.966617 0
    outer loop
      vertex 2.22745 114.878 6.35
      vertex 2.48021 114.945 0
      vertex 2.22745 114.878 0
    endloop
  endfacet
  facet normal -0.0534974 0.998568 0
    outer loop
      vertex 3 115 0
      vertex 2.73868 114.986 6.35
      vertex 3 115 6.35
    endloop
  endfacet
  facet normal -0.0534974 0.998568 0
    outer loop
      vertex 2.73868 114.986 6.35
      vertex 3 115 0
      vertex 2.73868 114.986 0
    endloop
  endfacet
  facet normal -0.359107 0.933296 0
    outer loop
      vertex 2.22745 114.878 0
      vertex 1.98315 114.784 6.35
      vertex 2.22745 114.878 6.35
    endloop
  endfacet
  facet normal -0.359107 0.933296 0
    outer loop
      vertex 1.98315 114.784 6.35
      vertex 2.22745 114.878 0
      vertex 1.98315 114.784 0
    endloop
  endfacet
  facet normal -0.543224 0.839588 0
    outer loop
      vertex 1.75 114.665 0
      vertex 1.53053 114.523 6.35
      vertex 1.75 114.665 6.35
    endloop
  endfacet
  facet normal -0.543224 0.839588 0
    outer loop
      vertex 1.53053 114.523 6.35
      vertex 1.75 114.665 0
      vertex 1.53053 114.523 0
    endloop
  endfacet
  facet normal 0.258911 -0.965901 0
    outer loop
      vertex 116.658 -114.563 0
      vertex 118.68 -114.021 6.35
      vertex 116.658 -114.563 6.35
    endloop
  endfacet
  facet normal 0.258911 -0.965901 0
    outer loop
      vertex 118.68 -114.021 6.35
      vertex 116.658 -114.563 0
      vertex 118.68 -114.021 0
    endloop
  endfacet
  facet normal 0.454269 -0.890864 0
    outer loop
      vertex 120.635 -113.271 0
      vertex 122.5 -112.32 6.35
      vertex 120.635 -113.271 6.35
    endloop
  endfacet
  facet normal 0.454269 -0.890864 0
    outer loop
      vertex 122.5 -112.32 6.35
      vertex 120.635 -113.271 0
      vertex 122.5 -112.32 0
    endloop
  endfacet
  facet normal 0.629171 -0.777267 0
    outer loop
      vertex 124.256 -111.18 0
      vertex 125.883 -109.863 6.35
      vertex 124.256 -111.18 6.35
    endloop
  endfacet
  facet normal 0.629171 -0.777267 0
    outer loop
      vertex 125.883 -109.863 6.35
      vertex 124.256 -111.18 0
      vertex 125.883 -109.863 0
    endloop
  endfacet
  facet normal 0.777267 -0.629171 0
    outer loop
      vertex 127.363 -108.383 6.35
      vertex 128.68 -106.756 0
      vertex 128.68 -106.756 6.35
    endloop
  endfacet
  facet normal 0.777267 -0.629171 0
    outer loop
      vertex 128.68 -106.756 0
      vertex 127.363 -108.383 6.35
      vertex 127.363 -108.383 0
    endloop
  endfacet
  facet normal -0.965995 -0.258562 0
    outer loop
      vertex 0.622345 -113.273 0
      vertex 0.554626 -113.02 6.35
      vertex 0.554626 -113.02 0
    endloop
  endfacet
  facet normal -0.965995 -0.258562 0
    outer loop
      vertex 0.554626 -113.02 6.35
      vertex 0.622345 -113.273 0
      vertex 0.622345 -113.273 6.35
    endloop
  endfacet
  facet normal -0.156667 0.987651 0
    outer loop
      vertex 2.73868 114.986 0
      vertex 2.48021 114.945 6.35
      vertex 2.73868 114.986 6.35
    endloop
  endfacet
  facet normal -0.156667 0.987651 0
    outer loop
      vertex 2.48021 114.945 6.35
      vertex 2.73868 114.986 0
      vertex 2.48021 114.945 0
    endloop
  endfacet
  facet normal -0.707069 0.707145 0
    outer loop
      vertex 1.14214 114.173 0
      vertex 1.32716 114.358 6.35
      vertex 1.32716 114.358 0
    endloop
  endfacet
  facet normal -0.707069 0.707145 0
    outer loop
      vertex 1.32716 114.358 6.35
      vertex 1.14214 114.173 0
      vertex 1.14214 114.173 6.35
    endloop
  endfacet
  facet normal -0.778085 0.628159 0
    outer loop
      vertex 0.977448 113.969 0
      vertex 1.14214 114.173 6.35
      vertex 1.14214 114.173 0
    endloop
  endfacet
  facet normal -0.778085 0.628159 0
    outer loop
      vertex 1.14214 114.173 6.35
      vertex 0.977448 113.969 0
      vertex 0.977448 113.969 6.35
    endloop
  endfacet
  facet normal 0.838749 -0.544518 0
    outer loop
      vertex 128.68 -106.756 6.35
      vertex 129.82 -105 0
      vertex 129.82 -105 6.35
    endloop
  endfacet
  facet normal 0.838749 -0.544518 0
    outer loop
      vertex 129.82 -105 0
      vertex 128.68 -106.756 6.35
      vertex 128.68 -106.756 0
    endloop
  endfacet
  facet normal -0.543224 -0.839588 0
    outer loop
      vertex 1.53053 -114.523 0
      vertex 1.75 -114.665 6.35
      vertex 1.53053 -114.523 6.35
    endloop
  endfacet
  facet normal -0.543224 -0.839588 -0
    outer loop
      vertex 1.75 -114.665 6.35
      vertex 1.53053 -114.523 0
      vertex 1.75 -114.665 0
    endloop
  endfacet
  facet normal -0.359107 -0.933296 0
    outer loop
      vertex 1.98315 -114.784 0
      vertex 2.22745 -114.878 6.35
      vertex 1.98315 -114.784 6.35
    endloop
  endfacet
  facet normal -0.359107 -0.933296 -0
    outer loop
      vertex 2.22745 -114.878 6.35
      vertex 1.98315 -114.784 0
      vertex 2.22745 -114.878 0
    endloop
  endfacet
  facet normal -0.256225 -0.966617 0
    outer loop
      vertex 2.22745 -114.878 0
      vertex 2.48021 -114.945 6.35
      vertex 2.22745 -114.878 6.35
    endloop
  endfacet
  facet normal -0.256225 -0.966617 -0
    outer loop
      vertex 2.48021 -114.945 6.35
      vertex 2.22745 -114.878 0
      vertex 2.48021 -114.945 0
    endloop
  endfacet
  facet normal -0.0534974 -0.998568 0
    outer loop
      vertex 2.73868 -114.986 0
      vertex 3 -115 6.35
      vertex 2.73868 -114.986 6.35
    endloop
  endfacet
  facet normal -0.0534974 -0.998568 -0
    outer loop
      vertex 3 -115 6.35
      vertex 2.73868 -114.986 0
      vertex 3 -115 0
    endloop
  endfacet
  facet normal -0.83815 -0.54544 0
    outer loop
      vertex 0.977448 -113.969 0
      vertex 0.83493 -113.75 6.35
      vertex 0.83493 -113.75 0
    endloop
  endfacet
  facet normal -0.83815 -0.54544 0
    outer loop
      vertex 0.83493 -113.75 6.35
      vertex 0.977448 -113.969 0
      vertex 0.977448 -113.969 6.35
    endloop
  endfacet
  facet normal -0.707069 -0.707145 0
    outer loop
      vertex 1.32716 -114.358 0
      vertex 1.14214 -114.173 6.35
      vertex 1.14214 -114.173 0
    endloop
  endfacet
  facet normal -0.707069 -0.707145 0
    outer loop
      vertex 1.14214 -114.173 6.35
      vertex 1.32716 -114.358 0
      vertex 1.32716 -114.358 6.35
    endloop
  endfacet
  facet normal -0.93343 -0.358759 0
    outer loop
      vertex 0.716125 -113.517 0
      vertex 0.622345 -113.273 6.35
      vertex 0.622345 -113.273 0
    endloop
  endfacet
  facet normal -0.93343 -0.358759 0
    outer loop
      vertex 0.622345 -113.273 6.35
      vertex 0.716125 -113.517 0
      vertex 0.716125 -113.517 6.35
    endloop
  endfacet
  facet normal -0.45461 -0.890691 0
    outer loop
      vertex 1.75 -114.665 0
      vertex 1.98315 -114.784 6.35
      vertex 1.75 -114.665 6.35
    endloop
  endfacet
  facet normal -0.45461 -0.890691 -0
    outer loop
      vertex 1.98315 -114.784 6.35
      vertex 1.75 -114.665 0
      vertex 1.98315 -114.784 0
    endloop
  endfacet
  facet normal -0.156667 -0.987651 0
    outer loop
      vertex 2.48021 -114.945 0
      vertex 2.73868 -114.986 6.35
      vertex 2.48021 -114.945 6.35
    endloop
  endfacet
  facet normal -0.156667 -0.987651 -0
    outer loop
      vertex 2.73868 -114.986 6.35
      vertex 2.48021 -114.945 0
      vertex 2.73868 -114.986 0
    endloop
  endfacet
  facet normal -0.778085 -0.628159 0
    outer loop
      vertex 1.14214 -114.173 0
      vertex 0.977448 -113.969 6.35
      vertex 0.977448 -113.969 0
    endloop
  endfacet
  facet normal -0.778085 -0.628159 0
    outer loop
      vertex 0.977448 -113.969 6.35
      vertex 1.14214 -114.173 0
      vertex 1.14214 -114.173 6.35
    endloop
  endfacet
  facet normal -0.630045 -0.776559 0
    outer loop
      vertex 1.32716 -114.358 0
      vertex 1.53053 -114.523 6.35
      vertex 1.32716 -114.358 6.35
    endloop
  endfacet
  facet normal -0.630045 -0.776559 -0
    outer loop
      vertex 1.53053 -114.523 6.35
      vertex 1.32716 -114.358 0
      vertex 1.53053 -114.523 0
    endloop
  endfacet
endsolid OpenSCAD_Model
