  0
SECTION
  2
BLOCKS
  0
ENDSEC
  0
SECTION
  2
ENTITIES
  0
LINE
  8
0
 10
58.65
 20
58.75
 11
0
 21
58.75
  0
LINE
  8
0
 10
0
 20
58.75
 11
0
 21
43.75
  0
LINE
  8
0
 10
0
 20
43.75
 11
2.81866
 21
43.75
  0
LINE
  8
0
 10
2.81866
 20
43.75
 11
2.81812
 21
43.7525
  0
LINE
  8
0
 10
2.81812
 20
43.7525
 11
2.79999
 21
44
  0
LINE
  8
0
 10
2.79999
 20
44
 11
2.81812
 21
44.2475
  0
LINE
  8
0
 10
2.81812
 20
44.2475
 11
2.87207
 21
44.4898
  0
LINE
  8
0
 10
2.87207
 20
44.4898
 11
2.96072
 21
44.7216
  0
LINE
  8
0
 10
2.96072
 20
44.7216
 11
3.0822
 21
44.938
  0
LINE
  8
0
 10
3.0822
 20
44.938
 11
3.23389
 21
45.1344
  0
LINE
  8
0
 10
3.23389
 20
45.1344
 11
3.41255
 21
45.3067
  0
LINE
  8
0
 10
3.41255
 20
45.3067
 11
3.6144
 21
45.4511
  0
LINE
  8
0
 10
3.6144
 20
45.4511
 11
3.83511
 21
45.5646
  0
LINE
  8
0
 10
3.83511
 20
45.5646
 11
4.07001
 21
45.6447
  0
LINE
  8
0
 10
4.07001
 20
45.6447
 11
4.31406
 21
45.6898
  0
LINE
  8
0
 10
4.31406
 20
45.6898
 11
4.56209
 21
45.6989
  0
LINE
  8
0
 10
4.56209
 20
45.6989
 11
4.80878
 21
45.6717
  0
LINE
  8
0
 10
4.80878
 20
45.6717
 11
5.04889
 21
45.6089
  0
LINE
  8
0
 10
5.04889
 20
45.6089
 11
5.2773
 21
45.5119
  0
LINE
  8
0
 10
5.2773
 20
45.5119
 11
5.48915
 21
45.3826
  0
LINE
  8
0
 10
5.48915
 20
45.3826
 11
5.67992
 21
45.2238
  0
LINE
  8
0
 10
5.67992
 20
45.2238
 11
5.84554
 21
45.039
  0
LINE
  8
0
 10
5.84554
 20
45.039
 11
5.98248
 21
44.832
  0
LINE
  8
0
 10
5.98248
 20
44.832
 11
6.08781
 21
44.6073
  0
LINE
  8
0
 10
6.08781
 20
44.6073
 11
6.15932
 21
44.3696
  0
LINE
  8
0
 10
6.15932
 20
44.3696
 11
6.19547
 21
44.1241
  0
LINE
  8
0
 10
6.19547
 20
44.1241
 11
6.19547
 21
43.8759
  0
LINE
  8
0
 10
6.19547
 20
43.8759
 11
6.17693
 21
43.75
  0
LINE
  8
0
 10
6.17693
 20
43.75
 11
38.9
 21
43.75
  0
LINE
  8
0
 10
38.9
 20
43.75
 11
38.9
 21
15.25
  0
LINE
  8
0
 10
38.9
 20
15.25
 11
6.17693
 21
15.25
  0
LINE
  8
0
 10
6.17693
 20
15.25
 11
6.19547
 21
15.1241
  0
LINE
  8
0
 10
6.19547
 20
15.1241
 11
6.19547
 21
14.8759
  0
LINE
  8
0
 10
6.19547
 20
14.8759
 11
6.15932
 21
14.6304
  0
LINE
  8
0
 10
6.15932
 20
14.6304
 11
6.08781
 21
14.3927
  0
LINE
  8
0
 10
6.08781
 20
14.3927
 11
5.98248
 21
14.168
  0
LINE
  8
0
 10
5.98248
 20
14.168
 11
5.84554
 21
13.961
  0
LINE
  8
0
 10
5.84554
 20
13.961
 11
5.67992
 21
13.7762
  0
LINE
  8
0
 10
5.67992
 20
13.7762
 11
5.48915
 21
13.6174
  0
LINE
  8
0
 10
5.48915
 20
13.6174
 11
5.2773
 21
13.4881
  0
LINE
  8
0
 10
5.2773
 20
13.4881
 11
5.04889
 21
13.3911
  0
LINE
  8
0
 10
5.04889
 20
13.3911
 11
4.80878
 21
13.3283
  0
LINE
  8
0
 10
4.80878
 20
13.3283
 11
4.56209
 21
13.3011
  0
LINE
  8
0
 10
4.56209
 20
13.3011
 11
4.31406
 21
13.3102
  0
LINE
  8
0
 10
4.31406
 20
13.3102
 11
4.07001
 21
13.3553
  0
LINE
  8
0
 10
4.07001
 20
13.3553
 11
3.83511
 21
13.4354
  0
LINE
  8
0
 10
3.83511
 20
13.4354
 11
3.6144
 21
13.5489
  0
LINE
  8
0
 10
3.6144
 20
13.5489
 11
3.41255
 21
13.6933
  0
LINE
  8
0
 10
3.41255
 20
13.6933
 11
3.23389
 21
13.8656
  0
LINE
  8
0
 10
3.23389
 20
13.8656
 11
3.0822
 21
14.062
  0
LINE
  8
0
 10
3.0822
 20
14.062
 11
2.96072
 21
14.2784
  0
LINE
  8
0
 10
2.96072
 20
14.2784
 11
2.87207
 21
14.5102
  0
LINE
  8
0
 10
2.87207
 20
14.5102
 11
2.81812
 21
14.7525
  0
LINE
  8
0
 10
2.81812
 20
14.7525
 11
2.79999
 21
15
  0
LINE
  8
0
 10
2.79999
 20
15
 11
2.81812
 21
15.2475
  0
LINE
  8
0
 10
2.81812
 20
15.2475
 11
2.81866
 21
15.25
  0
LINE
  8
0
 10
2.81866
 20
15.25
 11
0
 21
15.25
  0
LINE
  8
0
 10
0
 20
15.25
 11
0
 21
0
  0
LINE
  8
0
 10
0
 20
0
 11
58.65
 21
0
  0
LINE
  8
0
 10
58.65
 20
0
 11
58.65
 21
58.75
  0
LINE
  8
0
 10
10.0912
 20
47.6783
 11
9.85109
 21
47.741
  0
LINE
  8
0
 10
9.85109
 20
47.741
 11
9.62268
 21
47.8381
  0
LINE
  8
0
 10
9.62268
 20
47.8381
 11
9.41083
 21
47.9674
  0
LINE
  8
0
 10
9.41083
 20
47.9674
 11
9.22006
 21
48.1262
  0
LINE
  8
0
 10
9.22006
 20
48.1262
 11
9.05444
 21
48.311
  0
LINE
  8
0
 10
9.05444
 20
48.311
 11
8.91751
 21
48.518
  0
LINE
  8
0
 10
8.91751
 20
48.518
 11
8.81216
 21
48.7427
  0
LINE
  8
0
 10
8.81216
 20
48.7427
 11
8.74066
 21
48.9804
  0
LINE
  8
0
 10
8.74066
 20
48.9804
 11
8.70453
 21
49.2259
  0
LINE
  8
0
 10
8.70453
 20
49.2259
 11
8.70453
 21
49.4741
  0
LINE
  8
0
 10
8.70453
 20
49.4741
 11
8.74066
 21
49.7196
  0
LINE
  8
0
 10
8.74066
 20
49.7196
 11
8.81216
 21
49.9573
  0
LINE
  8
0
 10
8.81216
 20
49.9573
 11
8.91751
 21
50.182
  0
LINE
  8
0
 10
8.91751
 20
50.182
 11
9.05444
 21
50.389
  0
LINE
  8
0
 10
9.05444
 20
50.389
 11
9.22006
 21
50.5738
  0
LINE
  8
0
 10
9.22006
 20
50.5738
 11
9.41083
 21
50.7326
  0
LINE
  8
0
 10
9.41083
 20
50.7326
 11
9.62268
 21
50.8619
  0
LINE
  8
0
 10
9.62268
 20
50.8619
 11
9.85109
 21
50.9589
  0
LINE
  8
0
 10
9.85109
 20
50.9589
 11
10.0912
 21
51.0217
  0
LINE
  8
0
 10
10.0912
 20
51.0217
 11
10.3379
 21
51.0489
  0
LINE
  8
0
 10
10.3379
 20
51.0489
 11
10.5859
 21
51.0398
  0
LINE
  8
0
 10
10.5859
 20
51.0398
 11
10.83
 21
50.9947
  0
LINE
  8
0
 10
10.83
 20
50.9947
 11
11.0649
 21
50.9146
  0
LINE
  8
0
 10
11.0649
 20
50.9146
 11
11.2856
 21
50.8011
  0
LINE
  8
0
 10
11.2856
 20
50.8011
 11
11.4874
 21
50.6567
  0
LINE
  8
0
 10
11.4874
 20
50.6567
 11
11.6661
 21
50.4844
  0
LINE
  8
0
 10
11.6661
 20
50.4844
 11
11.8178
 21
50.288
  0
LINE
  8
0
 10
11.8178
 20
50.288
 11
11.9393
 21
50.0716
  0
LINE
  8
0
 10
11.9393
 20
50.0716
 11
12.0279
 21
49.8398
  0
LINE
  8
0
 10
12.0279
 20
49.8398
 11
12.0819
 21
49.5975
  0
LINE
  8
0
 10
12.0819
 20
49.5975
 11
12.1
 21
49.35
  0
LINE
  8
0
 10
12.1
 20
49.35
 11
12.0819
 21
49.1025
  0
LINE
  8
0
 10
12.0819
 20
49.1025
 11
12.0279
 21
48.8602
  0
LINE
  8
0
 10
12.0279
 20
48.8602
 11
11.9393
 21
48.6284
  0
LINE
  8
0
 10
11.9393
 20
48.6284
 11
11.8178
 21
48.412
  0
LINE
  8
0
 10
11.8178
 20
48.412
 11
11.6661
 21
48.2155
  0
LINE
  8
0
 10
11.6661
 20
48.2155
 11
11.4874
 21
48.0433
  0
LINE
  8
0
 10
11.4874
 20
48.0433
 11
11.2856
 21
47.8989
  0
LINE
  8
0
 10
11.2856
 20
47.8989
 11
11.0649
 21
47.7854
  0
LINE
  8
0
 10
11.0649
 20
47.7854
 11
10.83
 21
47.7053
  0
LINE
  8
0
 10
10.83
 20
47.7053
 11
10.5859
 21
47.6602
  0
LINE
  8
0
 10
10.5859
 20
47.6602
 11
10.3379
 21
47.6511
  0
LINE
  8
0
 10
10.3379
 20
47.6511
 11
10.0912
 21
47.6783
  0
LINE
  8
0
 10
54.0912
 20
42.3283
 11
53.8511
 21
42.3911
  0
LINE
  8
0
 10
53.8511
 20
42.3911
 11
53.6227
 21
42.4881
  0
LINE
  8
0
 10
53.6227
 20
42.4881
 11
53.4108
 21
42.6174
  0
LINE
  8
0
 10
53.4108
 20
42.6174
 11
53.2201
 21
42.7762
  0
LINE
  8
0
 10
53.2201
 20
42.7762
 11
53.0544
 21
42.961
  0
LINE
  8
0
 10
53.0544
 20
42.961
 11
52.9175
 21
43.168
  0
LINE
  8
0
 10
52.9175
 20
43.168
 11
52.8122
 21
43.3927
  0
LINE
  8
0
 10
52.8122
 20
43.3927
 11
52.7407
 21
43.6304
  0
LINE
  8
0
 10
52.7407
 20
43.6304
 11
52.7045
 21
43.8759
  0
LINE
  8
0
 10
52.7045
 20
43.8759
 11
52.7045
 21
44.1241
  0
LINE
  8
0
 10
52.7045
 20
44.1241
 11
52.7407
 21
44.3696
  0
LINE
  8
0
 10
52.7407
 20
44.3696
 11
52.8122
 21
44.6073
  0
LINE
  8
0
 10
52.8122
 20
44.6073
 11
52.9175
 21
44.832
  0
LINE
  8
0
 10
52.9175
 20
44.832
 11
53.0544
 21
45.039
  0
LINE
  8
0
 10
53.0544
 20
45.039
 11
53.2201
 21
45.2238
  0
LINE
  8
0
 10
53.2201
 20
45.2238
 11
53.4108
 21
45.3826
  0
LINE
  8
0
 10
53.4108
 20
45.3826
 11
53.6227
 21
45.5119
  0
LINE
  8
0
 10
53.6227
 20
45.5119
 11
53.8511
 21
45.6089
  0
LINE
  8
0
 10
53.8511
 20
45.6089
 11
54.0912
 21
45.6717
  0
LINE
  8
0
 10
54.0912
 20
45.6717
 11
54.3379
 21
45.6989
  0
LINE
  8
0
 10
54.3379
 20
45.6989
 11
54.5859
 21
45.6898
  0
LINE
  8
0
 10
54.5859
 20
45.6898
 11
54.83
 21
45.6447
  0
LINE
  8
0
 10
54.83
 20
45.6447
 11
55.0649
 21
45.5646
  0
LINE
  8
0
 10
55.0649
 20
45.5646
 11
55.2856
 21
45.4511
  0
LINE
  8
0
 10
55.2856
 20
45.4511
 11
55.4874
 21
45.3067
  0
LINE
  8
0
 10
55.4874
 20
45.3067
 11
55.6661
 21
45.1344
  0
LINE
  8
0
 10
55.6661
 20
45.1344
 11
55.8178
 21
44.938
  0
LINE
  8
0
 10
55.8178
 20
44.938
 11
55.9393
 21
44.7216
  0
LINE
  8
0
 10
55.9393
 20
44.7216
 11
56.0279
 21
44.4898
  0
LINE
  8
0
 10
56.0279
 20
44.4898
 11
56.0819
 21
44.2475
  0
LINE
  8
0
 10
56.0819
 20
44.2475
 11
56.1
 21
44
  0
LINE
  8
0
 10
56.1
 20
44
 11
56.0819
 21
43.7525
  0
LINE
  8
0
 10
56.0819
 20
43.7525
 11
56.0279
 21
43.5102
  0
LINE
  8
0
 10
56.0279
 20
43.5102
 11
55.9393
 21
43.2784
  0
LINE
  8
0
 10
55.9393
 20
43.2784
 11
55.8178
 21
43.062
  0
LINE
  8
0
 10
55.8178
 20
43.062
 11
55.6661
 21
42.8656
  0
LINE
  8
0
 10
55.6661
 20
42.8656
 11
55.4874
 21
42.6933
  0
LINE
  8
0
 10
55.4874
 20
42.6933
 11
55.2856
 21
42.5489
  0
LINE
  8
0
 10
55.2856
 20
42.5489
 11
55.0649
 21
42.4354
  0
LINE
  8
0
 10
55.0649
 20
42.4354
 11
54.83
 21
42.3553
  0
LINE
  8
0
 10
54.83
 20
42.3553
 11
54.5859
 21
42.3102
  0
LINE
  8
0
 10
54.5859
 20
42.3102
 11
54.3379
 21
42.3011
  0
LINE
  8
0
 10
54.3379
 20
42.3011
 11
54.0912
 21
42.3283
  0
LINE
  8
0
 10
54.0912
 20
13.3283
 11
53.8511
 21
13.3911
  0
LINE
  8
0
 10
53.8511
 20
13.3911
 11
53.6227
 21
13.4881
  0
LINE
  8
0
 10
53.6227
 20
13.4881
 11
53.4108
 21
13.6174
  0
LINE
  8
0
 10
53.4108
 20
13.6174
 11
53.2201
 21
13.7762
  0
LINE
  8
0
 10
53.2201
 20
13.7762
 11
53.0544
 21
13.961
  0
LINE
  8
0
 10
53.0544
 20
13.961
 11
52.9175
 21
14.168
  0
LINE
  8
0
 10
52.9175
 20
14.168
 11
52.8122
 21
14.3927
  0
LINE
  8
0
 10
52.8122
 20
14.3927
 11
52.7407
 21
14.6304
  0
LINE
  8
0
 10
52.7407
 20
14.6304
 11
52.7045
 21
14.8759
  0
LINE
  8
0
 10
52.7045
 20
14.8759
 11
52.7045
 21
15.1241
  0
LINE
  8
0
 10
52.7045
 20
15.1241
 11
52.7407
 21
15.3696
  0
LINE
  8
0
 10
52.7407
 20
15.3696
 11
52.8122
 21
15.6073
  0
LINE
  8
0
 10
52.8122
 20
15.6073
 11
52.9175
 21
15.832
  0
LINE
  8
0
 10
52.9175
 20
15.832
 11
53.0544
 21
16.039
  0
LINE
  8
0
 10
53.0544
 20
16.039
 11
53.2201
 21
16.2238
  0
LINE
  8
0
 10
53.2201
 20
16.2238
 11
53.4108
 21
16.3826
  0
LINE
  8
0
 10
53.4108
 20
16.3826
 11
53.6227
 21
16.5119
  0
LINE
  8
0
 10
53.6227
 20
16.5119
 11
53.8511
 21
16.6089
  0
LINE
  8
0
 10
53.8511
 20
16.6089
 11
54.0912
 21
16.6717
  0
LINE
  8
0
 10
54.0912
 20
16.6717
 11
54.3379
 21
16.6989
  0
LINE
  8
0
 10
54.3379
 20
16.6989
 11
54.5859
 21
16.6898
  0
LINE
  8
0
 10
54.5859
 20
16.6898
 11
54.83
 21
16.6447
  0
LINE
  8
0
 10
54.83
 20
16.6447
 11
55.0649
 21
16.5646
  0
LINE
  8
0
 10
55.0649
 20
16.5646
 11
55.2856
 21
16.4511
  0
LINE
  8
0
 10
55.2856
 20
16.4511
 11
55.4874
 21
16.3067
  0
LINE
  8
0
 10
55.4874
 20
16.3067
 11
55.6661
 21
16.1344
  0
LINE
  8
0
 10
55.6661
 20
16.1344
 11
55.8178
 21
15.938
  0
LINE
  8
0
 10
55.8178
 20
15.938
 11
55.9393
 21
15.7216
  0
LINE
  8
0
 10
55.9393
 20
15.7216
 11
56.0279
 21
15.4898
  0
LINE
  8
0
 10
56.0279
 20
15.4898
 11
56.0819
 21
15.2475
  0
LINE
  8
0
 10
56.0819
 20
15.2475
 11
56.1
 21
15
  0
LINE
  8
0
 10
56.1
 20
15
 11
56.0819
 21
14.7525
  0
LINE
  8
0
 10
56.0819
 20
14.7525
 11
56.0279
 21
14.5102
  0
LINE
  8
0
 10
56.0279
 20
14.5102
 11
55.9393
 21
14.2784
  0
LINE
  8
0
 10
55.9393
 20
14.2784
 11
55.8178
 21
14.062
  0
LINE
  8
0
 10
55.8178
 20
14.062
 11
55.6661
 21
13.8656
  0
LINE
  8
0
 10
55.6661
 20
13.8656
 11
55.4874
 21
13.6933
  0
LINE
  8
0
 10
55.4874
 20
13.6933
 11
55.2856
 21
13.5489
  0
LINE
  8
0
 10
55.2856
 20
13.5489
 11
55.0649
 21
13.4354
  0
LINE
  8
0
 10
55.0649
 20
13.4354
 11
54.83
 21
13.3553
  0
LINE
  8
0
 10
54.83
 20
13.3553
 11
54.5859
 21
13.3102
  0
LINE
  8
0
 10
54.5859
 20
13.3102
 11
54.3379
 21
13.3011
  0
LINE
  8
0
 10
54.3379
 20
13.3011
 11
54.0912
 21
13.3283
  0
LINE
  8
0
 10
10.0912
 20
7.97827
 11
9.85109
 21
8.04105
  0
LINE
  8
0
 10
9.85109
 20
8.04105
 11
9.62268
 21
8.13811
  0
LINE
  8
0
 10
9.62268
 20
8.13811
 11
9.41083
 21
8.2674
  0
LINE
  8
0
 10
9.41083
 20
8.2674
 11
9.22006
 21
8.42616
  0
LINE
  8
0
 10
9.22006
 20
8.42616
 11
9.05444
 21
8.61099
  0
LINE
  8
0
 10
9.05444
 20
8.61099
 11
8.91751
 21
8.81798
  0
LINE
  8
0
 10
8.91751
 20
8.81798
 11
8.81216
 21
9.04269
  0
LINE
  8
0
 10
8.81216
 20
9.04269
 11
8.74066
 21
9.28036
  0
LINE
  8
0
 10
8.74066
 20
9.28036
 11
8.70453
 21
9.52589
  0
LINE
  8
0
 10
8.70453
 20
9.52589
 11
8.70453
 21
9.77408
  0
LINE
  8
0
 10
8.70453
 20
9.77408
 11
8.74066
 21
10.0196
  0
LINE
  8
0
 10
8.74066
 20
10.0196
 11
8.81216
 21
10.2573
  0
LINE
  8
0
 10
8.81216
 20
10.2573
 11
8.91751
 21
10.482
  0
LINE
  8
0
 10
8.91751
 20
10.482
 11
9.05444
 21
10.689
  0
LINE
  8
0
 10
9.05444
 20
10.689
 11
9.22006
 21
10.8738
  0
LINE
  8
0
 10
9.22006
 20
10.8738
 11
9.41083
 21
11.0326
  0
LINE
  8
0
 10
9.41083
 20
11.0326
 11
9.62268
 21
11.1619
  0
LINE
  8
0
 10
9.62268
 20
11.1619
 11
9.85109
 21
11.2589
  0
LINE
  8
0
 10
9.85109
 20
11.2589
 11
10.0912
 21
11.3217
  0
LINE
  8
0
 10
10.0912
 20
11.3217
 11
10.3379
 21
11.3489
  0
LINE
  8
0
 10
10.3379
 20
11.3489
 11
10.5859
 21
11.3398
  0
LINE
  8
0
 10
10.5859
 20
11.3398
 11
10.83
 21
11.2947
  0
LINE
  8
0
 10
10.83
 20
11.2947
 11
11.0649
 21
11.2146
  0
LINE
  8
0
 10
11.0649
 20
11.2146
 11
11.2856
 21
11.1011
  0
LINE
  8
0
 10
11.2856
 20
11.1011
 11
11.4874
 21
10.9567
  0
LINE
  8
0
 10
11.4874
 20
10.9567
 11
11.6661
 21
10.7844
  0
LINE
  8
0
 10
11.6661
 20
10.7844
 11
11.8178
 21
10.588
  0
LINE
  8
0
 10
11.8178
 20
10.588
 11
11.9393
 21
10.3716
  0
LINE
  8
0
 10
11.9393
 20
10.3716
 11
12.0279
 21
10.1398
  0
LINE
  8
0
 10
12.0279
 20
10.1398
 11
12.0819
 21
9.89751
  0
LINE
  8
0
 10
12.0819
 20
9.89751
 11
12.1
 21
9.64999
  0
LINE
  8
0
 10
12.1
 20
9.64999
 11
12.0819
 21
9.40247
  0
LINE
  8
0
 10
12.0819
 20
9.40247
 11
12.0279
 21
9.16022
  0
LINE
  8
0
 10
12.0279
 20
9.16022
 11
11.9393
 21
8.92842
  0
LINE
  8
0
 10
11.9393
 20
8.92842
 11
11.8178
 21
8.71199
  0
LINE
  8
0
 10
11.8178
 20
8.71199
 11
11.6661
 21
8.51555
  0
LINE
  8
0
 10
11.6661
 20
8.51555
 11
11.4874
 21
8.34329
  0
LINE
  8
0
 10
11.4874
 20
8.34329
 11
11.2856
 21
8.19888
  0
LINE
  8
0
 10
11.2856
 20
8.19888
 11
11.0649
 21
8.0854
  0
LINE
  8
0
 10
11.0649
 20
8.0854
 11
10.83
 21
8.00526
  0
LINE
  8
0
 10
10.83
 20
8.00526
 11
10.5859
 21
7.96019
  0
LINE
  8
0
 10
10.5859
 20
7.96019
 11
10.3379
 21
7.95113
  0
LINE
  8
0
 10
10.3379
 20
7.95113
 11
10.0912
 21
7.97827
  0
ENDSEC
  0
SECTION
  2
OBJECTS
  0
DICTIONARY
  0
ENDSEC
  0
EOF
