  0
SECTION
  2
BLOCKS
  0
ENDSEC
  0
SECTION
  2
ENTITIES
  0
LINE
  8
0
 10
118.65
 20
58.75
 11
106.387
 21
58.75
  0
LINE
  8
0
 10
106.387
 20
58.75
 11
106.359
 21
58.216
  0
LINE
  8
0
 10
106.359
 20
58.216
 11
106.236
 21
57.4407
  0
LINE
  8
0
 10
106.236
 20
57.4407
 11
106.033
 21
56.6824
  0
LINE
  8
0
 10
106.033
 20
56.6824
 11
105.752
 21
55.9495
  0
LINE
  8
0
 10
105.752
 20
55.9495
 11
105.395
 21
55.25
  0
LINE
  8
0
 10
105.395
 20
55.25
 11
104.968
 21
54.5916
  0
LINE
  8
0
 10
104.968
 20
54.5916
 11
104.474
 21
53.9815
  0
LINE
  8
0
 10
104.474
 20
53.9815
 11
103.918
 21
53.4264
  0
LINE
  8
0
 10
103.918
 20
53.4264
 11
103.308
 21
52.9324
  0
LINE
  8
0
 10
103.308
 20
52.9324
 11
102.65
 21
52.5048
  0
LINE
  8
0
 10
102.65
 20
52.5048
 11
101.951
 21
52.1484
  0
LINE
  8
0
 10
101.951
 20
52.1484
 11
101.218
 21
51.8671
  0
LINE
  8
0
 10
101.218
 20
51.8671
 11
100.459
 21
51.6639
  0
LINE
  8
0
 10
100.459
 20
51.6639
 11
99.684
 21
51.5411
  0
LINE
  8
0
 10
99.684
 20
51.5411
 11
98.9
 21
51.5
  0
LINE
  8
0
 10
98.9
 20
51.5
 11
98.116
 21
51.5411
  0
LINE
  8
0
 10
98.116
 20
51.5411
 11
97.3407
 21
51.6639
  0
LINE
  8
0
 10
97.3407
 20
51.6639
 11
96.5824
 21
51.8671
  0
LINE
  8
0
 10
96.5824
 20
51.8671
 11
95.8495
 21
52.1484
  0
LINE
  8
0
 10
95.8495
 20
52.1484
 11
95.15
 21
52.5048
  0
LINE
  8
0
 10
95.15
 20
52.5048
 11
94.4916
 21
52.9324
  0
LINE
  8
0
 10
94.4916
 20
52.9324
 11
93.8815
 21
53.4264
  0
LINE
  8
0
 10
93.8815
 20
53.4264
 11
93.3264
 21
53.9815
  0
LINE
  8
0
 10
93.3264
 20
53.9815
 11
92.8324
 21
54.5916
  0
LINE
  8
0
 10
92.8324
 20
54.5916
 11
92.4048
 21
55.25
  0
LINE
  8
0
 10
92.4048
 20
55.25
 11
92.0484
 21
55.9495
  0
LINE
  8
0
 10
92.0484
 20
55.9495
 11
91.7671
 21
56.6824
  0
LINE
  8
0
 10
91.7671
 20
56.6824
 11
91.5639
 21
57.4407
  0
LINE
  8
0
 10
91.5639
 20
57.4407
 11
91.4411
 21
58.216
  0
LINE
  8
0
 10
91.4411
 20
58.216
 11
91.4131
 21
58.75
  0
LINE
  8
0
 10
91.4131
 20
58.75
 11
27.4869
 21
58.75
  0
LINE
  8
0
 10
27.4869
 20
58.75
 11
27.4589
 21
58.216
  0
LINE
  8
0
 10
27.4589
 20
58.216
 11
27.3361
 21
57.4407
  0
LINE
  8
0
 10
27.3361
 20
57.4407
 11
27.1329
 21
56.6824
  0
LINE
  8
0
 10
27.1329
 20
56.6824
 11
26.8516
 21
55.9495
  0
LINE
  8
0
 10
26.8516
 20
55.9495
 11
26.4952
 21
55.25
  0
LINE
  8
0
 10
26.4952
 20
55.25
 11
26.0676
 21
54.5916
  0
LINE
  8
0
 10
26.0676
 20
54.5916
 11
25.5736
 21
53.9815
  0
LINE
  8
0
 10
25.5736
 20
53.9815
 11
25.0185
 21
53.4264
  0
LINE
  8
0
 10
25.0185
 20
53.4264
 11
24.4084
 21
52.9324
  0
LINE
  8
0
 10
24.4084
 20
52.9324
 11
23.75
 21
52.5048
  0
LINE
  8
0
 10
23.75
 20
52.5048
 11
23.0505
 21
52.1484
  0
LINE
  8
0
 10
23.0505
 20
52.1484
 11
22.3176
 21
51.8671
  0
LINE
  8
0
 10
22.3176
 20
51.8671
 11
21.5593
 21
51.6639
  0
LINE
  8
0
 10
21.5593
 20
51.6639
 11
20.784
 21
51.5411
  0
LINE
  8
0
 10
20.784
 20
51.5411
 11
20
 21
51.5
  0
LINE
  8
0
 10
20
 20
51.5
 11
19.216
 21
51.5411
  0
LINE
  8
0
 10
19.216
 20
51.5411
 11
18.4407
 21
51.6639
  0
LINE
  8
0
 10
18.4407
 20
51.6639
 11
17.6824
 21
51.8671
  0
LINE
  8
0
 10
17.6824
 20
51.8671
 11
16.9495
 21
52.1484
  0
LINE
  8
0
 10
16.9495
 20
52.1484
 11
16.25
 21
52.5048
  0
LINE
  8
0
 10
16.25
 20
52.5048
 11
15.5916
 21
52.9324
  0
LINE
  8
0
 10
15.5916
 20
52.9324
 11
14.9815
 21
53.4264
  0
LINE
  8
0
 10
14.9815
 20
53.4264
 11
14.4264
 21
53.9815
  0
LINE
  8
0
 10
14.4264
 20
53.9815
 11
13.9324
 21
54.5916
  0
LINE
  8
0
 10
13.9324
 20
54.5916
 11
13.5048
 21
55.25
  0
LINE
  8
0
 10
13.5048
 20
55.25
 11
13.1484
 21
55.9495
  0
LINE
  8
0
 10
13.1484
 20
55.9495
 11
12.8671
 21
56.6824
  0
LINE
  8
0
 10
12.8671
 20
56.6824
 11
12.6639
 21
57.4407
  0
LINE
  8
0
 10
12.6639
 20
57.4407
 11
12.5411
 21
58.216
  0
LINE
  8
0
 10
12.5411
 20
58.216
 11
12.5131
 21
58.75
  0
LINE
  8
0
 10
12.5131
 20
58.75
 11
0
 21
58.75
  0
LINE
  8
0
 10
0
 20
58.75
 11
0
 21
0
  0
LINE
  8
0
 10
0
 20
0
 11
118.65
 21
0
  0
LINE
  8
0
 10
118.65
 20
0
 11
118.65
 21
58.75
  0
LINE
  8
0
 10
4.31406
 20
42.3102
 11
4.07001
 21
42.3553
  0
LINE
  8
0
 10
4.07001
 20
42.3553
 11
3.83511
 21
42.4354
  0
LINE
  8
0
 10
3.83511
 20
42.4354
 11
3.6144
 21
42.5489
  0
LINE
  8
0
 10
3.6144
 20
42.5489
 11
3.41255
 21
42.6933
  0
LINE
  8
0
 10
3.41255
 20
42.6933
 11
3.23389
 21
42.8656
  0
LINE
  8
0
 10
3.23389
 20
42.8656
 11
3.0822
 21
43.062
  0
LINE
  8
0
 10
3.0822
 20
43.062
 11
2.96072
 21
43.2784
  0
LINE
  8
0
 10
2.96072
 20
43.2784
 11
2.87207
 21
43.5102
  0
LINE
  8
0
 10
2.87207
 20
43.5102
 11
2.81812
 21
43.7525
  0
LINE
  8
0
 10
2.81812
 20
43.7525
 11
2.79999
 21
44
  0
LINE
  8
0
 10
2.79999
 20
44
 11
2.81812
 21
44.2475
  0
LINE
  8
0
 10
2.81812
 20
44.2475
 11
2.87207
 21
44.4898
  0
LINE
  8
0
 10
2.87207
 20
44.4898
 11
2.96072
 21
44.7216
  0
LINE
  8
0
 10
2.96072
 20
44.7216
 11
3.0822
 21
44.938
  0
LINE
  8
0
 10
3.0822
 20
44.938
 11
3.23389
 21
45.1344
  0
LINE
  8
0
 10
3.23389
 20
45.1344
 11
3.41255
 21
45.3067
  0
LINE
  8
0
 10
3.41255
 20
45.3067
 11
3.6144
 21
45.4511
  0
LINE
  8
0
 10
3.6144
 20
45.4511
 11
3.83511
 21
45.5646
  0
LINE
  8
0
 10
3.83511
 20
45.5646
 11
4.07001
 21
45.6447
  0
LINE
  8
0
 10
4.07001
 20
45.6447
 11
4.31406
 21
45.6898
  0
LINE
  8
0
 10
4.31406
 20
45.6898
 11
4.56209
 21
45.6989
  0
LINE
  8
0
 10
4.56209
 20
45.6989
 11
4.80878
 21
45.6717
  0
LINE
  8
0
 10
4.80878
 20
45.6717
 11
5.04889
 21
45.6089
  0
LINE
  8
0
 10
5.04889
 20
45.6089
 11
5.2773
 21
45.5119
  0
LINE
  8
0
 10
5.2773
 20
45.5119
 11
5.48915
 21
45.3826
  0
LINE
  8
0
 10
5.48915
 20
45.3826
 11
5.67992
 21
45.2238
  0
LINE
  8
0
 10
5.67992
 20
45.2238
 11
5.84554
 21
45.039
  0
LINE
  8
0
 10
5.84554
 20
45.039
 11
5.98248
 21
44.832
  0
LINE
  8
0
 10
5.98248
 20
44.832
 11
6.08781
 21
44.6073
  0
LINE
  8
0
 10
6.08781
 20
44.6073
 11
6.15932
 21
44.3696
  0
LINE
  8
0
 10
6.15932
 20
44.3696
 11
6.19547
 21
44.1241
  0
LINE
  8
0
 10
6.19547
 20
44.1241
 11
6.19547
 21
43.8759
  0
LINE
  8
0
 10
6.19547
 20
43.8759
 11
6.15932
 21
43.6304
  0
LINE
  8
0
 10
6.15932
 20
43.6304
 11
6.08781
 21
43.3927
  0
LINE
  8
0
 10
6.08781
 20
43.3927
 11
5.98248
 21
43.168
  0
LINE
  8
0
 10
5.98248
 20
43.168
 11
5.84554
 21
42.961
  0
LINE
  8
0
 10
5.84554
 20
42.961
 11
5.67992
 21
42.7762
  0
LINE
  8
0
 10
5.67992
 20
42.7762
 11
5.48915
 21
42.6174
  0
LINE
  8
0
 10
5.48915
 20
42.6174
 11
5.2773
 21
42.4881
  0
LINE
  8
0
 10
5.2773
 20
42.4881
 11
5.04889
 21
42.3911
  0
LINE
  8
0
 10
5.04889
 20
42.3911
 11
4.80878
 21
42.3283
  0
LINE
  8
0
 10
4.80878
 20
42.3283
 11
4.56209
 21
42.3011
  0
LINE
  8
0
 10
4.56209
 20
42.3011
 11
4.31406
 21
42.3102
  0
LINE
  8
0
 10
114.091
 20
42.3283
 11
113.851
 21
42.3911
  0
LINE
  8
0
 10
113.851
 20
42.3911
 11
113.623
 21
42.4881
  0
LINE
  8
0
 10
113.623
 20
42.4881
 11
113.411
 21
42.6174
  0
LINE
  8
0
 10
113.411
 20
42.6174
 11
113.22
 21
42.7762
  0
LINE
  8
0
 10
113.22
 20
42.7762
 11
113.054
 21
42.961
  0
LINE
  8
0
 10
113.054
 20
42.961
 11
112.918
 21
43.168
  0
LINE
  8
0
 10
112.918
 20
43.168
 11
112.812
 21
43.3927
  0
LINE
  8
0
 10
112.812
 20
43.3927
 11
112.741
 21
43.6304
  0
LINE
  8
0
 10
112.741
 20
43.6304
 11
112.705
 21
43.8759
  0
LINE
  8
0
 10
112.705
 20
43.8759
 11
112.705
 21
44.1241
  0
LINE
  8
0
 10
112.705
 20
44.1241
 11
112.741
 21
44.3696
  0
LINE
  8
0
 10
112.741
 20
44.3696
 11
112.812
 21
44.6073
  0
LINE
  8
0
 10
112.812
 20
44.6073
 11
112.918
 21
44.832
  0
LINE
  8
0
 10
112.918
 20
44.832
 11
113.054
 21
45.039
  0
LINE
  8
0
 10
113.054
 20
45.039
 11
113.22
 21
45.2238
  0
LINE
  8
0
 10
113.22
 20
45.2238
 11
113.411
 21
45.3826
  0
LINE
  8
0
 10
113.411
 20
45.3826
 11
113.623
 21
45.5119
  0
LINE
  8
0
 10
113.623
 20
45.5119
 11
113.851
 21
45.6089
  0
LINE
  8
0
 10
113.851
 20
45.6089
 11
114.091
 21
45.6717
  0
LINE
  8
0
 10
114.091
 20
45.6717
 11
114.338
 21
45.6989
  0
LINE
  8
0
 10
114.338
 20
45.6989
 11
114.586
 21
45.6898
  0
LINE
  8
0
 10
114.586
 20
45.6898
 11
114.83
 21
45.6447
  0
LINE
  8
0
 10
114.83
 20
45.6447
 11
115.065
 21
45.5646
  0
LINE
  8
0
 10
115.065
 20
45.5646
 11
115.286
 21
45.4511
  0
LINE
  8
0
 10
115.286
 20
45.4511
 11
115.487
 21
45.3067
  0
LINE
  8
0
 10
115.487
 20
45.3067
 11
115.666
 21
45.1344
  0
LINE
  8
0
 10
115.666
 20
45.1344
 11
115.818
 21
44.938
  0
LINE
  8
0
 10
115.818
 20
44.938
 11
115.939
 21
44.7216
  0
LINE
  8
0
 10
115.939
 20
44.7216
 11
116.028
 21
44.4898
  0
LINE
  8
0
 10
116.028
 20
44.4898
 11
116.082
 21
44.2475
  0
LINE
  8
0
 10
116.082
 20
44.2475
 11
116.1
 21
44
  0
LINE
  8
0
 10
116.1
 20
44
 11
116.082
 21
43.7525
  0
LINE
  8
0
 10
116.082
 20
43.7525
 11
116.028
 21
43.5102
  0
LINE
  8
0
 10
116.028
 20
43.5102
 11
115.939
 21
43.2784
  0
LINE
  8
0
 10
115.939
 20
43.2784
 11
115.818
 21
43.062
  0
LINE
  8
0
 10
115.818
 20
43.062
 11
115.666
 21
42.8656
  0
LINE
  8
0
 10
115.666
 20
42.8656
 11
115.487
 21
42.6933
  0
LINE
  8
0
 10
115.487
 20
42.6933
 11
115.286
 21
42.5489
  0
LINE
  8
0
 10
115.286
 20
42.5489
 11
115.065
 21
42.4354
  0
LINE
  8
0
 10
115.065
 20
42.4354
 11
114.83
 21
42.3553
  0
LINE
  8
0
 10
114.83
 20
42.3553
 11
114.586
 21
42.3102
  0
LINE
  8
0
 10
114.586
 20
42.3102
 11
114.338
 21
42.3011
  0
LINE
  8
0
 10
114.338
 20
42.3011
 11
114.091
 21
42.3283
  0
LINE
  8
0
 10
4.31406
 20
13.3102
 11
4.07001
 21
13.3553
  0
LINE
  8
0
 10
4.07001
 20
13.3553
 11
3.83511
 21
13.4354
  0
LINE
  8
0
 10
3.83511
 20
13.4354
 11
3.6144
 21
13.5489
  0
LINE
  8
0
 10
3.6144
 20
13.5489
 11
3.41255
 21
13.6933
  0
LINE
  8
0
 10
3.41255
 20
13.6933
 11
3.23389
 21
13.8656
  0
LINE
  8
0
 10
3.23389
 20
13.8656
 11
3.0822
 21
14.062
  0
LINE
  8
0
 10
3.0822
 20
14.062
 11
2.96072
 21
14.2784
  0
LINE
  8
0
 10
2.96072
 20
14.2784
 11
2.87207
 21
14.5102
  0
LINE
  8
0
 10
2.87207
 20
14.5102
 11
2.81812
 21
14.7525
  0
LINE
  8
0
 10
2.81812
 20
14.7525
 11
2.79999
 21
15
  0
LINE
  8
0
 10
2.79999
 20
15
 11
2.81812
 21
15.2475
  0
LINE
  8
0
 10
2.81812
 20
15.2475
 11
2.87207
 21
15.4898
  0
LINE
  8
0
 10
2.87207
 20
15.4898
 11
2.96072
 21
15.7216
  0
LINE
  8
0
 10
2.96072
 20
15.7216
 11
3.0822
 21
15.938
  0
LINE
  8
0
 10
3.0822
 20
15.938
 11
3.23389
 21
16.1344
  0
LINE
  8
0
 10
3.23389
 20
16.1344
 11
3.41255
 21
16.3067
  0
LINE
  8
0
 10
3.41255
 20
16.3067
 11
3.6144
 21
16.4511
  0
LINE
  8
0
 10
3.6144
 20
16.4511
 11
3.83511
 21
16.5646
  0
LINE
  8
0
 10
3.83511
 20
16.5646
 11
4.07001
 21
16.6447
  0
LINE
  8
0
 10
4.07001
 20
16.6447
 11
4.31406
 21
16.6898
  0
LINE
  8
0
 10
4.31406
 20
16.6898
 11
4.56209
 21
16.6989
  0
LINE
  8
0
 10
4.56209
 20
16.6989
 11
4.80878
 21
16.6717
  0
LINE
  8
0
 10
4.80878
 20
16.6717
 11
5.04889
 21
16.6089
  0
LINE
  8
0
 10
5.04889
 20
16.6089
 11
5.2773
 21
16.5119
  0
LINE
  8
0
 10
5.2773
 20
16.5119
 11
5.48915
 21
16.3826
  0
LINE
  8
0
 10
5.48915
 20
16.3826
 11
5.67992
 21
16.2238
  0
LINE
  8
0
 10
5.67992
 20
16.2238
 11
5.84554
 21
16.039
  0
LINE
  8
0
 10
5.84554
 20
16.039
 11
5.98248
 21
15.832
  0
LINE
  8
0
 10
5.98248
 20
15.832
 11
6.08781
 21
15.6073
  0
LINE
  8
0
 10
6.08781
 20
15.6073
 11
6.15932
 21
15.3696
  0
LINE
  8
0
 10
6.15932
 20
15.3696
 11
6.19547
 21
15.1241
  0
LINE
  8
0
 10
6.19547
 20
15.1241
 11
6.19547
 21
14.8759
  0
LINE
  8
0
 10
6.19547
 20
14.8759
 11
6.15932
 21
14.6304
  0
LINE
  8
0
 10
6.15932
 20
14.6304
 11
6.08781
 21
14.3927
  0
LINE
  8
0
 10
6.08781
 20
14.3927
 11
5.98248
 21
14.168
  0
LINE
  8
0
 10
5.98248
 20
14.168
 11
5.84554
 21
13.961
  0
LINE
  8
0
 10
5.84554
 20
13.961
 11
5.67992
 21
13.7762
  0
LINE
  8
0
 10
5.67992
 20
13.7762
 11
5.48915
 21
13.6174
  0
LINE
  8
0
 10
5.48915
 20
13.6174
 11
5.2773
 21
13.4881
  0
LINE
  8
0
 10
5.2773
 20
13.4881
 11
5.04889
 21
13.3911
  0
LINE
  8
0
 10
5.04889
 20
13.3911
 11
4.80878
 21
13.3283
  0
LINE
  8
0
 10
4.80878
 20
13.3283
 11
4.56209
 21
13.3011
  0
LINE
  8
0
 10
4.56209
 20
13.3011
 11
4.31406
 21
13.3102
  0
LINE
  8
0
 10
114.091
 20
13.3283
 11
113.851
 21
13.3911
  0
LINE
  8
0
 10
113.851
 20
13.3911
 11
113.623
 21
13.4881
  0
LINE
  8
0
 10
113.623
 20
13.4881
 11
113.411
 21
13.6174
  0
LINE
  8
0
 10
113.411
 20
13.6174
 11
113.22
 21
13.7762
  0
LINE
  8
0
 10
113.22
 20
13.7762
 11
113.054
 21
13.961
  0
LINE
  8
0
 10
113.054
 20
13.961
 11
112.918
 21
14.168
  0
LINE
  8
0
 10
112.918
 20
14.168
 11
112.812
 21
14.3927
  0
LINE
  8
0
 10
112.812
 20
14.3927
 11
112.741
 21
14.6304
  0
LINE
  8
0
 10
112.741
 20
14.6304
 11
112.705
 21
14.8759
  0
LINE
  8
0
 10
112.705
 20
14.8759
 11
112.705
 21
15.1241
  0
LINE
  8
0
 10
112.705
 20
15.1241
 11
112.741
 21
15.3696
  0
LINE
  8
0
 10
112.741
 20
15.3696
 11
112.812
 21
15.6073
  0
LINE
  8
0
 10
112.812
 20
15.6073
 11
112.918
 21
15.832
  0
LINE
  8
0
 10
112.918
 20
15.832
 11
113.054
 21
16.039
  0
LINE
  8
0
 10
113.054
 20
16.039
 11
113.22
 21
16.2238
  0
LINE
  8
0
 10
113.22
 20
16.2238
 11
113.411
 21
16.3826
  0
LINE
  8
0
 10
113.411
 20
16.3826
 11
113.623
 21
16.5119
  0
LINE
  8
0
 10
113.623
 20
16.5119
 11
113.851
 21
16.6089
  0
LINE
  8
0
 10
113.851
 20
16.6089
 11
114.091
 21
16.6717
  0
LINE
  8
0
 10
114.091
 20
16.6717
 11
114.338
 21
16.6989
  0
LINE
  8
0
 10
114.338
 20
16.6989
 11
114.586
 21
16.6898
  0
LINE
  8
0
 10
114.586
 20
16.6898
 11
114.83
 21
16.6447
  0
LINE
  8
0
 10
114.83
 20
16.6447
 11
115.065
 21
16.5646
  0
LINE
  8
0
 10
115.065
 20
16.5646
 11
115.286
 21
16.4511
  0
LINE
  8
0
 10
115.286
 20
16.4511
 11
115.487
 21
16.3067
  0
LINE
  8
0
 10
115.487
 20
16.3067
 11
115.666
 21
16.1344
  0
LINE
  8
0
 10
115.666
 20
16.1344
 11
115.818
 21
15.938
  0
LINE
  8
0
 10
115.818
 20
15.938
 11
115.939
 21
15.7216
  0
LINE
  8
0
 10
115.939
 20
15.7216
 11
116.028
 21
15.4898
  0
LINE
  8
0
 10
116.028
 20
15.4898
 11
116.082
 21
15.2475
  0
LINE
  8
0
 10
116.082
 20
15.2475
 11
116.1
 21
15
  0
LINE
  8
0
 10
116.1
 20
15
 11
116.082
 21
14.7525
  0
LINE
  8
0
 10
116.082
 20
14.7525
 11
116.028
 21
14.5102
  0
LINE
  8
0
 10
116.028
 20
14.5102
 11
115.939
 21
14.2784
  0
LINE
  8
0
 10
115.939
 20
14.2784
 11
115.818
 21
14.062
  0
LINE
  8
0
 10
115.818
 20
14.062
 11
115.666
 21
13.8656
  0
LINE
  8
0
 10
115.666
 20
13.8656
 11
115.487
 21
13.6933
  0
LINE
  8
0
 10
115.487
 20
13.6933
 11
115.286
 21
13.5489
  0
LINE
  8
0
 10
115.286
 20
13.5489
 11
115.065
 21
13.4354
  0
LINE
  8
0
 10
115.065
 20
13.4354
 11
114.83
 21
13.3553
  0
LINE
  8
0
 10
114.83
 20
13.3553
 11
114.586
 21
13.3102
  0
LINE
  8
0
 10
114.586
 20
13.3102
 11
114.338
 21
13.3011
  0
LINE
  8
0
 10
114.338
 20
13.3011
 11
114.091
 21
13.3283
  0
ENDSEC
  0
SECTION
  2
OBJECTS
  0
DICTIONARY
  0
ENDSEC
  0
EOF
