  0
SECTION
  2
BLOCKS
  0
ENDSEC
  0
SECTION
  2
ENTITIES
  0
LINE
  8
0
 10
77.2884
 20
-59.7483
 11
78.7358
 21
-59.5191
  0
LINE
  8
0
 10
78.7358
 20
-59.5191
 11
80.1512
 21
-59.1398
  0
LINE
  8
0
 10
80.1512
 20
-59.1398
 11
81.5193
 21
-58.6146
  0
LINE
  8
0
 10
81.5193
 20
-58.6146
 11
82.825
 21
-57.9494
  0
LINE
  8
0
 10
82.825
 20
-57.9494
 11
84.054
 21
-57.1512
  0
LINE
  8
0
 10
84.054
 20
-57.1512
 11
84.8645
 21
-56.4949
  0
LINE
  8
0
 10
84.8645
 20
-56.4949
 11
19.8761
 21
-56.4949
  0
LINE
  8
0
 10
19.8761
 20
-56.4949
 11
19.6318
 21
-56.4541
  0
LINE
  8
0
 10
19.6318
 20
-56.4541
 11
19.3974
 21
-56.3737
  0
LINE
  8
0
 10
19.3974
 20
-56.3737
 11
19.1796
 21
-56.2557
  0
LINE
  8
0
 10
19.1796
 20
-56.2557
 11
18.9841
 21
-56.1036
  0
LINE
  8
0
 10
18.9841
 20
-56.1036
 11
18.8163
 21
-55.9213
  0
LINE
  8
0
 10
18.8163
 20
-55.9213
 11
18.6808
 21
-55.7139
  0
LINE
  8
0
 10
18.6808
 20
-55.7139
 11
18.5813
 21
-55.487
  0
LINE
  8
0
 10
18.5813
 20
-55.487
 11
18.5204
 21
-55.2469
  0
LINE
  8
0
 10
18.5204
 20
-55.2469
 11
18.5
 21
-55
  0
LINE
  8
0
 10
18.5
 20
-55
 11
18.5204
 21
-54.7531
  0
LINE
  8
0
 10
18.5204
 20
-54.7531
 11
18.5813
 21
-54.5129
  0
LINE
  8
0
 10
18.5813
 20
-54.5129
 11
18.6808
 21
-54.2861
  0
LINE
  8
0
 10
18.6808
 20
-54.2861
 11
18.8163
 21
-54.0787
  0
LINE
  8
0
 10
18.8163
 20
-54.0787
 11
18.9841
 21
-53.8964
  0
LINE
  8
0
 10
18.9841
 20
-53.8964
 11
19.1796
 21
-53.7442
  0
LINE
  8
0
 10
19.1796
 20
-53.7442
 11
19.3974
 21
-53.6263
  0
LINE
  8
0
 10
19.3974
 20
-53.6263
 11
19.6318
 21
-53.5459
  0
LINE
  8
0
 10
19.6318
 20
-53.5459
 11
19.8761
 21
-53.5051
  0
LINE
  8
0
 10
19.8761
 20
-53.5051
 11
87.5077
 21
-53.5051
  0
LINE
  8
0
 10
87.5077
 20
-53.5051
 11
87.9494
 21
-52.825
  0
LINE
  8
0
 10
87.9494
 20
-52.825
 11
88.6146
 21
-51.5193
  0
LINE
  8
0
 10
88.6146
 20
-51.5193
 11
89.1398
 21
-50.1512
  0
LINE
  8
0
 10
89.1398
 20
-50.1512
 11
89.4496
 21
-48.9949
  0
LINE
  8
0
 10
89.4496
 20
-48.9949
 11
19.8761
 21
-48.9949
  0
LINE
  8
0
 10
19.8761
 20
-48.9949
 11
19.6318
 21
-48.9541
  0
LINE
  8
0
 10
19.6318
 20
-48.9541
 11
19.3974
 21
-48.8737
  0
LINE
  8
0
 10
19.3974
 20
-48.8737
 11
19.1796
 21
-48.7557
  0
LINE
  8
0
 10
19.1796
 20
-48.7557
 11
18.9841
 21
-48.6036
  0
LINE
  8
0
 10
18.9841
 20
-48.6036
 11
18.8163
 21
-48.4213
  0
LINE
  8
0
 10
18.8163
 20
-48.4213
 11
18.6808
 21
-48.2139
  0
LINE
  8
0
 10
18.6808
 20
-48.2139
 11
18.5813
 21
-47.987
  0
LINE
  8
0
 10
18.5813
 20
-47.987
 11
18.5204
 21
-47.7469
  0
LINE
  8
0
 10
18.5204
 20
-47.7469
 11
18.5
 21
-47.5
  0
LINE
  8
0
 10
18.5
 20
-47.5
 11
18.5204
 21
-47.2531
  0
LINE
  8
0
 10
18.5204
 20
-47.2531
 11
18.5813
 21
-47.0129
  0
LINE
  8
0
 10
18.5813
 20
-47.0129
 11
18.6808
 21
-46.7861
  0
LINE
  8
0
 10
18.6808
 20
-46.7861
 11
18.8163
 21
-46.5787
  0
LINE
  8
0
 10
18.8163
 20
-46.5787
 11
18.9841
 21
-46.3964
  0
LINE
  8
0
 10
18.9841
 20
-46.3964
 11
19.1796
 21
-46.2442
  0
LINE
  8
0
 10
19.1796
 20
-46.2442
 11
19.3974
 21
-46.1263
  0
LINE
  8
0
 10
19.3974
 20
-46.1263
 11
19.6318
 21
-46.0459
  0
LINE
  8
0
 10
19.6318
 20
-46.0459
 11
19.8761
 21
-46.0051
  0
LINE
  8
0
 10
19.8761
 20
-46.0051
 11
89.8156
 21
-46.0051
  0
LINE
  8
0
 10
89.8156
 20
-46.0051
 11
89.825
 21
-45.825
  0
LINE
  8
0
 10
89.825
 20
-45.825
 11
89.825
 21
-41.4949
  0
LINE
  8
0
 10
89.825
 20
-41.4949
 11
71.7508
 21
-41.4949
  0
LINE
  8
0
 10
71.7508
 20
-41.4949
 11
71.715
 21
-41.5392
  0
LINE
  8
0
 10
71.715
 20
-41.5392
 11
71.5392
 21
-41.715
  0
LINE
  8
0
 10
71.5392
 20
-41.715
 11
71.346
 21
-41.8714
  0
LINE
  8
0
 10
71.346
 20
-41.8714
 11
71.1375
 21
-42.0068
  0
LINE
  8
0
 10
71.1375
 20
-42.0068
 11
70.916
 21
-42.1197
  0
LINE
  8
0
 10
70.916
 20
-42.1197
 11
70.6839
 21
-42.2088
  0
LINE
  8
0
 10
70.6839
 20
-42.2088
 11
70.4438
 21
-42.2731
  0
LINE
  8
0
 10
70.4438
 20
-42.2731
 11
70.1983
 21
-42.312
  0
LINE
  8
0
 10
70.1983
 20
-42.312
 11
69.95
 21
-42.325
  0
LINE
  8
0
 10
69.95
 20
-42.325
 11
69.7017
 21
-42.312
  0
LINE
  8
0
 10
69.7017
 20
-42.312
 11
69.4562
 21
-42.2731
  0
LINE
  8
0
 10
69.4562
 20
-42.2731
 11
69.2161
 21
-42.2088
  0
LINE
  8
0
 10
69.2161
 20
-42.2088
 11
68.984
 21
-42.1197
  0
LINE
  8
0
 10
68.984
 20
-42.1197
 11
68.7625
 21
-42.0068
  0
LINE
  8
0
 10
68.7625
 20
-42.0068
 11
68.554
 21
-41.8714
  0
LINE
  8
0
 10
68.554
 20
-41.8714
 11
68.3608
 21
-41.715
  0
LINE
  8
0
 10
68.3608
 20
-41.715
 11
68.185
 21
-41.5392
  0
LINE
  8
0
 10
68.185
 20
-41.5392
 11
68.1491
 21
-41.4949
  0
LINE
  8
0
 10
68.1491
 20
-41.4949
 11
19.8761
 21
-41.4949
  0
LINE
  8
0
 10
19.8761
 20
-41.4949
 11
19.6318
 21
-41.4541
  0
LINE
  8
0
 10
19.6318
 20
-41.4541
 11
19.3974
 21
-41.3737
  0
LINE
  8
0
 10
19.3974
 20
-41.3737
 11
19.1796
 21
-41.2557
  0
LINE
  8
0
 10
19.1796
 20
-41.2557
 11
18.9841
 21
-41.1036
  0
LINE
  8
0
 10
18.9841
 20
-41.1036
 11
18.8163
 21
-40.9213
  0
LINE
  8
0
 10
18.8163
 20
-40.9213
 11
18.6808
 21
-40.7139
  0
LINE
  8
0
 10
18.6808
 20
-40.7139
 11
18.5813
 21
-40.487
  0
LINE
  8
0
 10
18.5813
 20
-40.487
 11
18.5204
 21
-40.2469
  0
LINE
  8
0
 10
18.5204
 20
-40.2469
 11
18.5
 21
-40
  0
LINE
  8
0
 10
18.5
 20
-40
 11
18.5204
 21
-39.7531
  0
LINE
  8
0
 10
18.5204
 20
-39.7531
 11
18.5813
 21
-39.5129
  0
LINE
  8
0
 10
18.5813
 20
-39.5129
 11
18.6808
 21
-39.2861
  0
LINE
  8
0
 10
18.6808
 20
-39.2861
 11
18.8163
 21
-39.0787
  0
LINE
  8
0
 10
18.8163
 20
-39.0787
 11
18.9841
 21
-38.8964
  0
LINE
  8
0
 10
18.9841
 20
-38.8964
 11
19.1796
 21
-38.7442
  0
LINE
  8
0
 10
19.1796
 20
-38.7442
 11
19.3974
 21
-38.6263
  0
LINE
  8
0
 10
19.3974
 20
-38.6263
 11
19.6318
 21
-38.5459
  0
LINE
  8
0
 10
19.6318
 20
-38.5459
 11
19.8761
 21
-38.5051
  0
LINE
  8
0
 10
19.8761
 20
-38.5051
 11
68.0682
 21
-38.5051
  0
LINE
  8
0
 10
68.0682
 20
-38.5051
 11
68.185
 21
-38.3608
  0
LINE
  8
0
 10
68.185
 20
-38.3608
 11
68.3608
 21
-38.185
  0
LINE
  8
0
 10
68.3608
 20
-38.185
 11
68.554
 21
-38.0286
  0
LINE
  8
0
 10
68.554
 20
-38.0286
 11
68.7625
 21
-37.8932
  0
LINE
  8
0
 10
68.7625
 20
-37.8932
 11
68.984
 21
-37.7803
  0
LINE
  8
0
 10
68.984
 20
-37.7803
 11
69.2161
 21
-37.6912
  0
LINE
  8
0
 10
69.2161
 20
-37.6912
 11
69.4562
 21
-37.6269
  0
LINE
  8
0
 10
69.4562
 20
-37.6269
 11
69.7017
 21
-37.588
  0
LINE
  8
0
 10
69.7017
 20
-37.588
 11
69.95
 21
-37.575
  0
LINE
  8
0
 10
69.95
 20
-37.575
 11
70.1983
 21
-37.588
  0
LINE
  8
0
 10
70.1983
 20
-37.588
 11
70.4438
 21
-37.6269
  0
LINE
  8
0
 10
70.4438
 20
-37.6269
 11
70.6839
 21
-37.6912
  0
LINE
  8
0
 10
70.6839
 20
-37.6912
 11
70.916
 21
-37.7803
  0
LINE
  8
0
 10
70.916
 20
-37.7803
 11
71.1375
 21
-37.8932
  0
LINE
  8
0
 10
71.1375
 20
-37.8932
 11
71.346
 21
-38.0286
  0
LINE
  8
0
 10
71.346
 20
-38.0286
 11
71.5392
 21
-38.185
  0
LINE
  8
0
 10
71.5392
 20
-38.185
 11
71.715
 21
-38.3608
  0
LINE
  8
0
 10
71.715
 20
-38.3608
 11
71.8318
 21
-38.5051
  0
LINE
  8
0
 10
71.8318
 20
-38.5051
 11
89.825
 21
-38.5051
  0
LINE
  8
0
 10
89.825
 20
-38.5051
 11
89.825
 21
-33.9949
  0
LINE
  8
0
 10
89.825
 20
-33.9949
 11
19.8761
 21
-33.9949
  0
LINE
  8
0
 10
19.8761
 20
-33.9949
 11
19.6318
 21
-33.9541
  0
LINE
  8
0
 10
19.6318
 20
-33.9541
 11
19.3974
 21
-33.8737
  0
LINE
  8
0
 10
19.3974
 20
-33.8737
 11
19.1796
 21
-33.7557
  0
LINE
  8
0
 10
19.1796
 20
-33.7557
 11
18.9841
 21
-33.6036
  0
LINE
  8
0
 10
18.9841
 20
-33.6036
 11
18.8163
 21
-33.4213
  0
LINE
  8
0
 10
18.8163
 20
-33.4213
 11
18.6808
 21
-33.2139
  0
LINE
  8
0
 10
18.6808
 20
-33.2139
 11
18.5813
 21
-32.987
  0
LINE
  8
0
 10
18.5813
 20
-32.987
 11
18.5204
 21
-32.7469
  0
LINE
  8
0
 10
18.5204
 20
-32.7469
 11
18.5
 21
-32.5
  0
LINE
  8
0
 10
18.5
 20
-32.5
 11
18.5204
 21
-32.2531
  0
LINE
  8
0
 10
18.5204
 20
-32.2531
 11
18.5813
 21
-32.0129
  0
LINE
  8
0
 10
18.5813
 20
-32.0129
 11
18.6808
 21
-31.7861
  0
LINE
  8
0
 10
18.6808
 20
-31.7861
 11
18.8163
 21
-31.5787
  0
LINE
  8
0
 10
18.8163
 20
-31.5787
 11
18.9841
 21
-31.3964
  0
LINE
  8
0
 10
18.9841
 20
-31.3964
 11
19.1796
 21
-31.2442
  0
LINE
  8
0
 10
19.1796
 20
-31.2442
 11
19.3974
 21
-31.1263
  0
LINE
  8
0
 10
19.3974
 20
-31.1263
 11
19.6318
 21
-31.0459
  0
LINE
  8
0
 10
19.6318
 20
-31.0459
 11
19.8761
 21
-31.0051
  0
LINE
  8
0
 10
19.8761
 20
-31.0051
 11
89.825
 21
-31.0051
  0
LINE
  8
0
 10
89.825
 20
-31.0051
 11
89.825
 21
-26.4949
  0
LINE
  8
0
 10
89.825
 20
-26.4949
 11
19.8761
 21
-26.4949
  0
LINE
  8
0
 10
19.8761
 20
-26.4949
 11
19.6318
 21
-26.4541
  0
LINE
  8
0
 10
19.6318
 20
-26.4541
 11
19.3974
 21
-26.3737
  0
LINE
  8
0
 10
19.3974
 20
-26.3737
 11
19.1796
 21
-26.2557
  0
LINE
  8
0
 10
19.1796
 20
-26.2557
 11
18.9841
 21
-26.1036
  0
LINE
  8
0
 10
18.9841
 20
-26.1036
 11
18.8163
 21
-25.9213
  0
LINE
  8
0
 10
18.8163
 20
-25.9213
 11
18.6808
 21
-25.7139
  0
LINE
  8
0
 10
18.6808
 20
-25.7139
 11
18.5813
 21
-25.487
  0
LINE
  8
0
 10
18.5813
 20
-25.487
 11
18.5204
 21
-25.2469
  0
LINE
  8
0
 10
18.5204
 20
-25.2469
 11
18.5
 21
-25
  0
LINE
  8
0
 10
18.5
 20
-25
 11
18.5204
 21
-24.7531
  0
LINE
  8
0
 10
18.5204
 20
-24.7531
 11
18.5813
 21
-24.5129
  0
LINE
  8
0
 10
18.5813
 20
-24.5129
 11
18.6808
 21
-24.2861
  0
LINE
  8
0
 10
18.6808
 20
-24.2861
 11
18.8163
 21
-24.0787
  0
LINE
  8
0
 10
18.8163
 20
-24.0787
 11
18.9841
 21
-23.8964
  0
LINE
  8
0
 10
18.9841
 20
-23.8964
 11
19.1796
 21
-23.7442
  0
LINE
  8
0
 10
19.1796
 20
-23.7442
 11
19.3974
 21
-23.6263
  0
LINE
  8
0
 10
19.3974
 20
-23.6263
 11
19.6318
 21
-23.5459
  0
LINE
  8
0
 10
19.6318
 20
-23.5459
 11
19.8761
 21
-23.5051
  0
LINE
  8
0
 10
19.8761
 20
-23.5051
 11
89.825
 21
-23.5051
  0
LINE
  8
0
 10
89.825
 20
-23.5051
 11
89.825
 21
-18.9949
  0
LINE
  8
0
 10
89.825
 20
-18.9949
 11
19.8761
 21
-18.9949
  0
LINE
  8
0
 10
19.8761
 20
-18.9949
 11
19.6318
 21
-18.9541
  0
LINE
  8
0
 10
19.6318
 20
-18.9541
 11
19.3974
 21
-18.8737
  0
LINE
  8
0
 10
19.3974
 20
-18.8737
 11
19.1796
 21
-18.7557
  0
LINE
  8
0
 10
19.1796
 20
-18.7557
 11
18.9841
 21
-18.6036
  0
LINE
  8
0
 10
18.9841
 20
-18.6036
 11
18.8163
 21
-18.4213
  0
LINE
  8
0
 10
18.8163
 20
-18.4213
 11
18.6808
 21
-18.2139
  0
LINE
  8
0
 10
18.6808
 20
-18.2139
 11
18.5813
 21
-17.987
  0
LINE
  8
0
 10
18.5813
 20
-17.987
 11
18.5204
 21
-17.7469
  0
LINE
  8
0
 10
18.5204
 20
-17.7469
 11
18.5
 21
-17.5
  0
LINE
  8
0
 10
18.5
 20
-17.5
 11
18.5204
 21
-17.2531
  0
LINE
  8
0
 10
18.5204
 20
-17.2531
 11
18.5813
 21
-17.0129
  0
LINE
  8
0
 10
18.5813
 20
-17.0129
 11
18.6808
 21
-16.7861
  0
LINE
  8
0
 10
18.6808
 20
-16.7861
 11
18.8163
 21
-16.5787
  0
LINE
  8
0
 10
18.8163
 20
-16.5787
 11
18.9841
 21
-16.3964
  0
LINE
  8
0
 10
18.9841
 20
-16.3964
 11
19.1796
 21
-16.2442
  0
LINE
  8
0
 10
19.1796
 20
-16.2442
 11
19.3974
 21
-16.1263
  0
LINE
  8
0
 10
19.3974
 20
-16.1263
 11
19.6318
 21
-16.0459
  0
LINE
  8
0
 10
19.6318
 20
-16.0459
 11
19.8761
 21
-16.0051
  0
LINE
  8
0
 10
19.8761
 20
-16.0051
 11
89.825
 21
-16.0051
  0
LINE
  8
0
 10
89.825
 20
-16.0051
 11
89.825
 21
-11.4949
  0
LINE
  8
0
 10
89.825
 20
-11.4949
 11
19.8761
 21
-11.4949
  0
LINE
  8
0
 10
19.8761
 20
-11.4949
 11
19.6318
 21
-11.4541
  0
LINE
  8
0
 10
19.6318
 20
-11.4541
 11
19.3974
 21
-11.3737
  0
LINE
  8
0
 10
19.3974
 20
-11.3737
 11
19.1796
 21
-11.2557
  0
LINE
  8
0
 10
19.1796
 20
-11.2557
 11
18.9841
 21
-11.1036
  0
LINE
  8
0
 10
18.9841
 20
-11.1036
 11
18.8163
 21
-10.9213
  0
LINE
  8
0
 10
18.8163
 20
-10.9213
 11
18.6808
 21
-10.7139
  0
LINE
  8
0
 10
18.6808
 20
-10.7139
 11
18.5813
 21
-10.487
  0
LINE
  8
0
 10
18.5813
 20
-10.487
 11
18.5204
 21
-10.2469
  0
LINE
  8
0
 10
18.5204
 20
-10.2469
 11
18.5
 21
-10
  0
LINE
  8
0
 10
18.5
 20
-10
 11
18.5204
 21
-9.7531
  0
LINE
  8
0
 10
18.5204
 20
-9.7531
 11
18.5813
 21
-9.51294
  0
LINE
  8
0
 10
18.5813
 20
-9.51294
 11
18.6808
 21
-9.28607
  0
LINE
  8
0
 10
18.6808
 20
-9.28607
 11
18.8163
 21
-9.07867
  0
LINE
  8
0
 10
18.8163
 20
-9.07867
 11
18.9841
 21
-8.89641
  0
LINE
  8
0
 10
18.9841
 20
-8.89641
 11
19.1796
 21
-8.74425
  0
LINE
  8
0
 10
19.1796
 20
-8.74425
 11
19.3974
 21
-8.62633
  0
LINE
  8
0
 10
19.3974
 20
-8.62633
 11
19.6318
 21
-8.5459
  0
LINE
  8
0
 10
19.6318
 20
-8.5459
 11
19.8761
 21
-8.50511
  0
LINE
  8
0
 10
19.8761
 20
-8.50511
 11
89.825
 21
-8.50511
  0
LINE
  8
0
 10
89.825
 20
-8.50511
 11
89.825
 21
-3.99487
  0
LINE
  8
0
 10
89.825
 20
-3.99487
 11
19.8761
 21
-3.99487
  0
LINE
  8
0
 10
19.8761
 20
-3.99487
 11
19.6318
 21
-3.95409
  0
LINE
  8
0
 10
19.6318
 20
-3.95409
 11
19.3974
 21
-3.87366
  0
LINE
  8
0
 10
19.3974
 20
-3.87366
 11
19.1796
 21
-3.75574
  0
LINE
  8
0
 10
19.1796
 20
-3.75574
 11
18.9841
 21
-3.60358
  0
LINE
  8
0
 10
18.9841
 20
-3.60358
 11
18.8163
 21
-3.42131
  0
LINE
  8
0
 10
18.8163
 20
-3.42131
 11
18.6808
 21
-3.21391
  0
LINE
  8
0
 10
18.6808
 20
-3.21391
 11
18.5813
 21
-2.98705
  0
LINE
  8
0
 10
18.5813
 20
-2.98705
 11
18.5204
 21
-2.74689
  0
LINE
  8
0
 10
18.5204
 20
-2.74689
 11
18.5
 21
-2.5
  0
LINE
  8
0
 10
18.5
 20
-2.5
 11
18.5204
 21
-2.2531
  0
LINE
  8
0
 10
18.5204
 20
-2.2531
 11
18.5813
 21
-2.01294
  0
LINE
  8
0
 10
18.5813
 20
-2.01294
 11
18.6808
 21
-1.78607
  0
LINE
  8
0
 10
18.6808
 20
-1.78607
 11
18.8163
 21
-1.57867
  0
LINE
  8
0
 10
18.8163
 20
-1.57867
 11
18.9841
 21
-1.39641
  0
LINE
  8
0
 10
18.9841
 20
-1.39641
 11
19.1796
 21
-1.24425
  0
LINE
  8
0
 10
19.1796
 20
-1.24425
 11
19.3974
 21
-1.12633
  0
LINE
  8
0
 10
19.3974
 20
-1.12633
 11
19.6318
 21
-1.0459
  0
LINE
  8
0
 10
19.6318
 20
-1.0459
 11
19.8761
 21
-1.00511
  0
LINE
  8
0
 10
19.8761
 20
-1.00511
 11
89.825
 21
-1.00511
  0
LINE
  8
0
 10
89.825
 20
-1.00511
 11
89.825
 21
3.50511
  0
LINE
  8
0
 10
89.825
 20
3.50511
 11
19.8761
 21
3.50511
  0
LINE
  8
0
 10
19.8761
 20
3.50511
 11
19.6318
 21
3.5459
  0
LINE
  8
0
 10
19.6318
 20
3.5459
 11
19.3974
 21
3.62633
  0
LINE
  8
0
 10
19.3974
 20
3.62633
 11
19.1796
 21
3.74425
  0
LINE
  8
0
 10
19.1796
 20
3.74425
 11
18.9841
 21
3.89641
  0
LINE
  8
0
 10
18.9841
 20
3.89641
 11
18.8163
 21
4.07867
  0
LINE
  8
0
 10
18.8163
 20
4.07867
 11
18.6808
 21
4.28607
  0
LINE
  8
0
 10
18.6808
 20
4.28607
 11
18.5813
 21
4.51294
  0
LINE
  8
0
 10
18.5813
 20
4.51294
 11
18.5204
 21
4.7531
  0
LINE
  8
0
 10
18.5204
 20
4.7531
 11
18.5
 21
5
  0
LINE
  8
0
 10
18.5
 20
5
 11
18.5204
 21
5.24689
  0
LINE
  8
0
 10
18.5204
 20
5.24689
 11
18.5813
 21
5.48705
  0
LINE
  8
0
 10
18.5813
 20
5.48705
 11
18.6808
 21
5.71391
  0
LINE
  8
0
 10
18.6808
 20
5.71391
 11
18.8163
 21
5.92131
  0
LINE
  8
0
 10
18.8163
 20
5.92131
 11
18.9841
 21
6.10358
  0
LINE
  8
0
 10
18.9841
 20
6.10358
 11
19.1796
 21
6.25574
  0
LINE
  8
0
 10
19.1796
 20
6.25574
 11
19.3974
 21
6.37366
  0
LINE
  8
0
 10
19.3974
 20
6.37366
 11
19.6318
 21
6.45409
  0
LINE
  8
0
 10
19.6318
 20
6.45409
 11
19.8761
 21
6.49487
  0
LINE
  8
0
 10
19.8761
 20
6.49487
 11
89.825
 21
6.49487
  0
LINE
  8
0
 10
89.825
 20
6.49487
 11
89.825
 21
11.0051
  0
LINE
  8
0
 10
89.825
 20
11.0051
 11
19.8761
 21
11.0051
  0
LINE
  8
0
 10
19.8761
 20
11.0051
 11
19.6318
 21
11.0459
  0
LINE
  8
0
 10
19.6318
 20
11.0459
 11
19.3974
 21
11.1263
  0
LINE
  8
0
 10
19.3974
 20
11.1263
 11
19.1796
 21
11.2442
  0
LINE
  8
0
 10
19.1796
 20
11.2442
 11
18.9841
 21
11.3964
  0
LINE
  8
0
 10
18.9841
 20
11.3964
 11
18.8163
 21
11.5787
  0
LINE
  8
0
 10
18.8163
 20
11.5787
 11
18.6808
 21
11.7861
  0
LINE
  8
0
 10
18.6808
 20
11.7861
 11
18.5813
 21
12.0129
  0
LINE
  8
0
 10
18.5813
 20
12.0129
 11
18.5204
 21
12.2531
  0
LINE
  8
0
 10
18.5204
 20
12.2531
 11
18.5
 21
12.5
  0
LINE
  8
0
 10
18.5
 20
12.5
 11
18.5204
 21
12.7469
  0
LINE
  8
0
 10
18.5204
 20
12.7469
 11
18.5813
 21
12.987
  0
LINE
  8
0
 10
18.5813
 20
12.987
 11
18.6808
 21
13.2139
  0
LINE
  8
0
 10
18.6808
 20
13.2139
 11
18.8163
 21
13.4213
  0
LINE
  8
0
 10
18.8163
 20
13.4213
 11
18.9841
 21
13.6036
  0
LINE
  8
0
 10
18.9841
 20
13.6036
 11
19.1796
 21
13.7557
  0
LINE
  8
0
 10
19.1796
 20
13.7557
 11
19.3974
 21
13.8737
  0
LINE
  8
0
 10
19.3974
 20
13.8737
 11
19.6318
 21
13.9541
  0
LINE
  8
0
 10
19.6318
 20
13.9541
 11
19.8761
 21
13.9949
  0
LINE
  8
0
 10
19.8761
 20
13.9949
 11
89.825
 21
13.9949
  0
LINE
  8
0
 10
89.825
 20
13.9949
 11
89.825
 21
18.5051
  0
LINE
  8
0
 10
89.825
 20
18.5051
 11
19.8761
 21
18.5051
  0
LINE
  8
0
 10
19.8761
 20
18.5051
 11
19.6318
 21
18.5459
  0
LINE
  8
0
 10
19.6318
 20
18.5459
 11
19.3974
 21
18.6263
  0
LINE
  8
0
 10
19.3974
 20
18.6263
 11
19.1796
 21
18.7442
  0
LINE
  8
0
 10
19.1796
 20
18.7442
 11
18.9841
 21
18.8964
  0
LINE
  8
0
 10
18.9841
 20
18.8964
 11
18.8163
 21
19.0787
  0
LINE
  8
0
 10
18.8163
 20
19.0787
 11
18.6808
 21
19.2861
  0
LINE
  8
0
 10
18.6808
 20
19.2861
 11
18.5813
 21
19.5129
  0
LINE
  8
0
 10
18.5813
 20
19.5129
 11
18.5204
 21
19.7531
  0
LINE
  8
0
 10
18.5204
 20
19.7531
 11
18.5
 21
20
  0
LINE
  8
0
 10
18.5
 20
20
 11
18.5204
 21
20.2469
  0
LINE
  8
0
 10
18.5204
 20
20.2469
 11
18.5813
 21
20.487
  0
LINE
  8
0
 10
18.5813
 20
20.487
 11
18.6808
 21
20.7139
  0
LINE
  8
0
 10
18.6808
 20
20.7139
 11
18.8163
 21
20.9213
  0
LINE
  8
0
 10
18.8163
 20
20.9213
 11
18.9841
 21
21.1036
  0
LINE
  8
0
 10
18.9841
 20
21.1036
 11
19.1796
 21
21.2557
  0
LINE
  8
0
 10
19.1796
 20
21.2557
 11
19.3974
 21
21.3737
  0
LINE
  8
0
 10
19.3974
 20
21.3737
 11
19.6318
 21
21.4541
  0
LINE
  8
0
 10
19.6318
 20
21.4541
 11
19.8761
 21
21.4949
  0
LINE
  8
0
 10
19.8761
 20
21.4949
 11
89.825
 21
21.4949
  0
LINE
  8
0
 10
89.825
 20
21.4949
 11
89.825
 21
26.0051
  0
LINE
  8
0
 10
89.825
 20
26.0051
 11
19.8761
 21
26.0051
  0
LINE
  8
0
 10
19.8761
 20
26.0051
 11
19.6318
 21
26.0459
  0
LINE
  8
0
 10
19.6318
 20
26.0459
 11
19.3974
 21
26.1263
  0
LINE
  8
0
 10
19.3974
 20
26.1263
 11
19.1796
 21
26.2442
  0
LINE
  8
0
 10
19.1796
 20
26.2442
 11
18.9841
 21
26.3964
  0
LINE
  8
0
 10
18.9841
 20
26.3964
 11
18.8163
 21
26.5787
  0
LINE
  8
0
 10
18.8163
 20
26.5787
 11
18.6808
 21
26.7861
  0
LINE
  8
0
 10
18.6808
 20
26.7861
 11
18.5813
 21
27.0129
  0
LINE
  8
0
 10
18.5813
 20
27.0129
 11
18.5204
 21
27.2531
  0
LINE
  8
0
 10
18.5204
 20
27.2531
 11
18.5
 21
27.5
  0
LINE
  8
0
 10
18.5
 20
27.5
 11
18.5204
 21
27.7469
  0
LINE
  8
0
 10
18.5204
 20
27.7469
 11
18.5813
 21
27.987
  0
LINE
  8
0
 10
18.5813
 20
27.987
 11
18.6808
 21
28.2139
  0
LINE
  8
0
 10
18.6808
 20
28.2139
 11
18.8163
 21
28.4213
  0
LINE
  8
0
 10
18.8163
 20
28.4213
 11
18.9841
 21
28.6036
  0
LINE
  8
0
 10
18.9841
 20
28.6036
 11
19.1796
 21
28.7557
  0
LINE
  8
0
 10
19.1796
 20
28.7557
 11
19.3974
 21
28.8737
  0
LINE
  8
0
 10
19.3974
 20
28.8737
 11
19.6318
 21
28.9541
  0
LINE
  8
0
 10
19.6318
 20
28.9541
 11
19.8761
 21
28.9949
  0
LINE
  8
0
 10
19.8761
 20
28.9949
 11
89.825
 21
28.9949
  0
LINE
  8
0
 10
89.825
 20
28.9949
 11
89.825
 21
33.5051
  0
LINE
  8
0
 10
89.825
 20
33.5051
 11
19.8761
 21
33.5051
  0
LINE
  8
0
 10
19.8761
 20
33.5051
 11
19.6318
 21
33.5459
  0
LINE
  8
0
 10
19.6318
 20
33.5459
 11
19.3974
 21
33.6263
  0
LINE
  8
0
 10
19.3974
 20
33.6263
 11
19.1796
 21
33.7442
  0
LINE
  8
0
 10
19.1796
 20
33.7442
 11
18.9841
 21
33.8964
  0
LINE
  8
0
 10
18.9841
 20
33.8964
 11
18.8163
 21
34.0787
  0
LINE
  8
0
 10
18.8163
 20
34.0787
 11
18.6808
 21
34.2861
  0
LINE
  8
0
 10
18.6808
 20
34.2861
 11
18.5813
 21
34.5129
  0
LINE
  8
0
 10
18.5813
 20
34.5129
 11
18.5204
 21
34.7531
  0
LINE
  8
0
 10
18.5204
 20
34.7531
 11
18.5
 21
35
  0
LINE
  8
0
 10
18.5
 20
35
 11
18.5204
 21
35.2469
  0
LINE
  8
0
 10
18.5204
 20
35.2469
 11
18.5813
 21
35.487
  0
LINE
  8
0
 10
18.5813
 20
35.487
 11
18.6808
 21
35.7139
  0
LINE
  8
0
 10
18.6808
 20
35.7139
 11
18.8163
 21
35.9213
  0
LINE
  8
0
 10
18.8163
 20
35.9213
 11
18.9841
 21
36.1036
  0
LINE
  8
0
 10
18.9841
 20
36.1036
 11
19.1796
 21
36.2558
  0
LINE
  8
0
 10
19.1796
 20
36.2558
 11
19.3974
 21
36.3737
  0
LINE
  8
0
 10
19.3974
 20
36.3737
 11
19.6318
 21
36.4541
  0
LINE
  8
0
 10
19.6318
 20
36.4541
 11
19.8761
 21
36.4949
  0
LINE
  8
0
 10
19.8761
 20
36.4949
 11
89.825
 21
36.4949
  0
LINE
  8
0
 10
89.825
 20
36.4949
 11
89.825
 21
41.0051
  0
LINE
  8
0
 10
89.825
 20
41.0051
 11
72.0742
 21
41.0051
  0
LINE
  8
0
 10
72.0742
 20
41.0051
 11
72.1197
 21
40.916
  0
LINE
  8
0
 10
72.1197
 20
40.916
 11
72.2088
 21
40.6839
  0
LINE
  8
0
 10
72.2088
 20
40.6839
 11
72.2731
 21
40.4438
  0
LINE
  8
0
 10
72.2731
 20
40.4438
 11
72.312
 21
40.1982
  0
LINE
  8
0
 10
72.312
 20
40.1982
 11
72.325
 21
39.95
  0
LINE
  8
0
 10
72.325
 20
39.95
 11
72.312
 21
39.7017
  0
LINE
  8
0
 10
72.312
 20
39.7017
 11
72.2731
 21
39.4562
  0
LINE
  8
0
 10
72.2731
 20
39.4562
 11
72.2088
 21
39.2161
  0
LINE
  8
0
 10
72.2088
 20
39.2161
 11
72.1197
 21
38.984
  0
LINE
  8
0
 10
72.1197
 20
38.984
 11
72.0068
 21
38.7625
  0
LINE
  8
0
 10
72.0068
 20
38.7625
 11
71.8714
 21
38.554
  0
LINE
  8
0
 10
71.8714
 20
38.554
 11
71.715
 21
38.3608
  0
LINE
  8
0
 10
71.715
 20
38.3608
 11
71.5392
 21
38.185
  0
LINE
  8
0
 10
71.5392
 20
38.185
 11
71.346
 21
38.0286
  0
LINE
  8
0
 10
71.346
 20
38.0286
 11
71.1375
 21
37.8932
  0
LINE
  8
0
 10
71.1375
 20
37.8932
 11
70.916
 21
37.7803
  0
LINE
  8
0
 10
70.916
 20
37.7803
 11
70.6839
 21
37.6912
  0
LINE
  8
0
 10
70.6839
 20
37.6912
 11
70.4438
 21
37.6269
  0
LINE
  8
0
 10
70.4438
 20
37.6269
 11
70.1983
 21
37.588
  0
LINE
  8
0
 10
70.1983
 20
37.588
 11
69.95
 21
37.575
  0
LINE
  8
0
 10
69.95
 20
37.575
 11
69.7017
 21
37.588
  0
LINE
  8
0
 10
69.7017
 20
37.588
 11
69.4562
 21
37.6269
  0
LINE
  8
0
 10
69.4562
 20
37.6269
 11
69.2161
 21
37.6912
  0
LINE
  8
0
 10
69.2161
 20
37.6912
 11
68.984
 21
37.7803
  0
LINE
  8
0
 10
68.984
 20
37.7803
 11
68.7625
 21
37.8932
  0
LINE
  8
0
 10
68.7625
 20
37.8932
 11
68.554
 21
38.0286
  0
LINE
  8
0
 10
68.554
 20
38.0286
 11
68.3608
 21
38.185
  0
LINE
  8
0
 10
68.3608
 20
38.185
 11
68.185
 21
38.3608
  0
LINE
  8
0
 10
68.185
 20
38.3608
 11
68.0286
 21
38.554
  0
LINE
  8
0
 10
68.0286
 20
38.554
 11
67.8932
 21
38.7625
  0
LINE
  8
0
 10
67.8932
 20
38.7625
 11
67.7803
 21
38.984
  0
LINE
  8
0
 10
67.7803
 20
38.984
 11
67.6912
 21
39.2161
  0
LINE
  8
0
 10
67.6912
 20
39.2161
 11
67.6269
 21
39.4562
  0
LINE
  8
0
 10
67.6269
 20
39.4562
 11
67.588
 21
39.7017
  0
LINE
  8
0
 10
67.588
 20
39.7017
 11
67.575
 21
39.95
  0
LINE
  8
0
 10
67.575
 20
39.95
 11
67.588
 21
40.1982
  0
LINE
  8
0
 10
67.588
 20
40.1982
 11
67.6269
 21
40.4438
  0
LINE
  8
0
 10
67.6269
 20
40.4438
 11
67.6912
 21
40.6839
  0
LINE
  8
0
 10
67.6912
 20
40.6839
 11
67.7803
 21
40.916
  0
LINE
  8
0
 10
67.7803
 20
40.916
 11
67.8257
 21
41.0051
  0
LINE
  8
0
 10
67.8257
 20
41.0051
 11
19.8761
 21
41.0051
  0
LINE
  8
0
 10
19.8761
 20
41.0051
 11
19.6318
 21
41.0459
  0
LINE
  8
0
 10
19.6318
 20
41.0459
 11
19.3974
 21
41.1263
  0
LINE
  8
0
 10
19.3974
 20
41.1263
 11
19.1796
 21
41.2442
  0
LINE
  8
0
 10
19.1796
 20
41.2442
 11
18.9841
 21
41.3964
  0
LINE
  8
0
 10
18.9841
 20
41.3964
 11
18.8163
 21
41.5787
  0
LINE
  8
0
 10
18.8163
 20
41.5787
 11
18.6808
 21
41.7861
  0
LINE
  8
0
 10
18.6808
 20
41.7861
 11
18.5813
 21
42.0129
  0
LINE
  8
0
 10
18.5813
 20
42.0129
 11
18.5204
 21
42.2531
  0
LINE
  8
0
 10
18.5204
 20
42.2531
 11
18.5
 21
42.5
  0
LINE
  8
0
 10
18.5
 20
42.5
 11
18.5204
 21
42.7469
  0
LINE
  8
0
 10
18.5204
 20
42.7469
 11
18.5813
 21
42.987
  0
LINE
  8
0
 10
18.5813
 20
42.987
 11
18.6808
 21
43.2139
  0
LINE
  8
0
 10
18.6808
 20
43.2139
 11
18.8163
 21
43.4213
  0
LINE
  8
0
 10
18.8163
 20
43.4213
 11
18.9841
 21
43.6036
  0
LINE
  8
0
 10
18.9841
 20
43.6036
 11
19.1796
 21
43.7558
  0
LINE
  8
0
 10
19.1796
 20
43.7558
 11
19.3974
 21
43.8737
  0
LINE
  8
0
 10
19.3974
 20
43.8737
 11
19.6318
 21
43.9541
  0
LINE
  8
0
 10
19.6318
 20
43.9541
 11
19.8761
 21
43.9949
  0
LINE
  8
0
 10
19.8761
 20
43.9949
 11
89.825
 21
43.9949
  0
LINE
  8
0
 10
89.825
 20
43.9949
 11
89.825
 21
45.825
  0
LINE
  8
0
 10
89.825
 20
45.825
 11
89.7483
 21
47.2884
  0
LINE
  8
0
 10
89.7483
 20
47.2884
 11
89.5556
 21
48.5051
  0
LINE
  8
0
 10
89.5556
 20
48.5051
 11
19.8761
 21
48.5051
  0
LINE
  8
0
 10
19.8761
 20
48.5051
 11
19.6318
 21
48.5459
  0
LINE
  8
0
 10
19.6318
 20
48.5459
 11
19.3974
 21
48.6263
  0
LINE
  8
0
 10
19.3974
 20
48.6263
 11
19.1796
 21
48.7442
  0
LINE
  8
0
 10
19.1796
 20
48.7442
 11
18.9841
 21
48.8964
  0
LINE
  8
0
 10
18.9841
 20
48.8964
 11
18.8163
 21
49.0787
  0
LINE
  8
0
 10
18.8163
 20
49.0787
 11
18.6808
 21
49.2861
  0
LINE
  8
0
 10
18.6808
 20
49.2861
 11
18.5813
 21
49.5129
  0
LINE
  8
0
 10
18.5813
 20
49.5129
 11
18.5204
 21
49.7531
  0
LINE
  8
0
 10
18.5204
 20
49.7531
 11
18.5
 21
50
  0
LINE
  8
0
 10
18.5
 20
50
 11
18.5204
 21
50.2469
  0
LINE
  8
0
 10
18.5204
 20
50.2469
 11
18.5813
 21
50.487
  0
LINE
  8
0
 10
18.5813
 20
50.487
 11
18.6808
 21
50.7139
  0
LINE
  8
0
 10
18.6808
 20
50.7139
 11
18.8163
 21
50.9213
  0
LINE
  8
0
 10
18.8163
 20
50.9213
 11
18.9841
 21
51.1036
  0
LINE
  8
0
 10
18.9841
 20
51.1036
 11
19.1796
 21
51.2558
  0
LINE
  8
0
 10
19.1796
 20
51.2558
 11
19.3974
 21
51.3737
  0
LINE
  8
0
 10
19.3974
 20
51.3737
 11
19.6318
 21
51.4541
  0
LINE
  8
0
 10
19.6318
 20
51.4541
 11
19.8761
 21
51.4949
  0
LINE
  8
0
 10
19.8761
 20
51.4949
 11
88.624
 21
51.4949
  0
LINE
  8
0
 10
88.624
 20
51.4949
 11
88.6146
 21
51.5193
  0
LINE
  8
0
 10
88.6146
 20
51.5193
 11
87.9494
 21
52.825
  0
LINE
  8
0
 10
87.9494
 20
52.825
 11
87.1512
 21
54.054
  0
LINE
  8
0
 10
87.1512
 20
54.054
 11
86.229
 21
55.1928
  0
LINE
  8
0
 10
86.229
 20
55.1928
 11
85.4167
 21
56.0051
  0
LINE
  8
0
 10
85.4167
 20
56.0051
 11
19.8761
 21
56.0051
  0
LINE
  8
0
 10
19.8761
 20
56.0051
 11
19.6318
 21
56.0459
  0
LINE
  8
0
 10
19.6318
 20
56.0459
 11
19.3974
 21
56.1263
  0
LINE
  8
0
 10
19.3974
 20
56.1263
 11
19.1796
 21
56.2442
  0
LINE
  8
0
 10
19.1796
 20
56.2442
 11
18.9841
 21
56.3964
  0
LINE
  8
0
 10
18.9841
 20
56.3964
 11
18.8163
 21
56.5787
  0
LINE
  8
0
 10
18.8163
 20
56.5787
 11
18.6808
 21
56.7861
  0
LINE
  8
0
 10
18.6808
 20
56.7861
 11
18.5813
 21
57.0129
  0
LINE
  8
0
 10
18.5813
 20
57.0129
 11
18.5204
 21
57.2531
  0
LINE
  8
0
 10
18.5204
 20
57.2531
 11
18.5
 21
57.5
  0
LINE
  8
0
 10
18.5
 20
57.5
 11
18.5204
 21
57.7469
  0
LINE
  8
0
 10
18.5204
 20
57.7469
 11
18.5813
 21
57.987
  0
LINE
  8
0
 10
18.5813
 20
57.987
 11
18.6808
 21
58.2139
  0
LINE
  8
0
 10
18.6808
 20
58.2139
 11
18.8163
 21
58.4213
  0
LINE
  8
0
 10
18.8163
 20
58.4213
 11
18.9841
 21
58.6036
  0
LINE
  8
0
 10
18.9841
 20
58.6036
 11
19.1796
 21
58.7558
  0
LINE
  8
0
 10
19.1796
 20
58.7558
 11
19.3974
 21
58.8737
  0
LINE
  8
0
 10
19.3974
 20
58.8737
 11
19.6318
 21
58.9541
  0
LINE
  8
0
 10
19.6318
 20
58.9541
 11
19.8761
 21
58.9949
  0
LINE
  8
0
 10
19.8761
 20
58.9949
 11
80.5287
 21
58.9949
  0
LINE
  8
0
 10
80.5287
 20
58.9949
 11
80.1512
 21
59.1398
  0
LINE
  8
0
 10
80.1512
 20
59.1398
 11
78.7358
 21
59.5191
  0
LINE
  8
0
 10
78.7358
 20
59.5191
 11
77.2884
 21
59.7483
  0
LINE
  8
0
 10
77.2884
 20
59.7483
 11
75.825
 21
59.825
  0
LINE
  8
0
 10
75.825
 20
59.825
 11
-75.825
 21
59.825
  0
LINE
  8
0
 10
-75.825
 20
59.825
 11
-77.2884
 21
59.7483
  0
LINE
  8
0
 10
-77.2884
 20
59.7483
 11
-78.7358
 21
59.5191
  0
LINE
  8
0
 10
-78.7358
 20
59.5191
 11
-80.1512
 21
59.1398
  0
LINE
  8
0
 10
-80.1512
 20
59.1398
 11
-81.5193
 21
58.6146
  0
LINE
  8
0
 10
-81.5193
 20
58.6146
 11
-82.825
 21
57.9494
  0
LINE
  8
0
 10
-82.825
 20
57.9494
 11
-84.054
 21
57.1512
  0
LINE
  8
0
 10
-84.054
 20
57.1512
 11
-85.1928
 21
56.229
  0
LINE
  8
0
 10
-85.1928
 20
56.229
 11
-86.229
 21
55.1928
  0
LINE
  8
0
 10
-86.229
 20
55.1928
 11
-87.1512
 21
54.054
  0
LINE
  8
0
 10
-87.1512
 20
54.054
 11
-87.9494
 21
52.825
  0
LINE
  8
0
 10
-87.9494
 20
52.825
 11
-88.6146
 21
51.5193
  0
LINE
  8
0
 10
-88.6146
 20
51.5193
 11
-89.1398
 21
50.1512
  0
LINE
  8
0
 10
-89.1398
 20
50.1512
 11
-89.5191
 21
48.7358
  0
LINE
  8
0
 10
-89.5191
 20
48.7358
 11
-89.7483
 21
47.2884
  0
LINE
  8
0
 10
-89.7483
 20
47.2884
 11
-89.825
 21
45.825
  0
LINE
  8
0
 10
-89.825
 20
45.825
 11
-89.825
 21
-45.825
  0
LINE
  8
0
 10
-89.825
 20
-45.825
 11
-89.7483
 21
-47.2884
  0
LINE
  8
0
 10
-89.7483
 20
-47.2884
 11
-89.5191
 21
-48.7358
  0
LINE
  8
0
 10
-89.5191
 20
-48.7358
 11
-89.1398
 21
-50.1512
  0
LINE
  8
0
 10
-89.1398
 20
-50.1512
 11
-88.6146
 21
-51.5193
  0
LINE
  8
0
 10
-88.6146
 20
-51.5193
 11
-87.9494
 21
-52.825
  0
LINE
  8
0
 10
-87.9494
 20
-52.825
 11
-87.1512
 21
-54.054
  0
LINE
  8
0
 10
-87.1512
 20
-54.054
 11
-86.229
 21
-55.1928
  0
LINE
  8
0
 10
-86.229
 20
-55.1928
 11
-85.1928
 21
-56.229
  0
LINE
  8
0
 10
-85.1928
 20
-56.229
 11
-84.054
 21
-57.1512
  0
LINE
  8
0
 10
-84.054
 20
-57.1512
 11
-82.825
 21
-57.9494
  0
LINE
  8
0
 10
-82.825
 20
-57.9494
 11
-81.5193
 21
-58.6146
  0
LINE
  8
0
 10
-81.5193
 20
-58.6146
 11
-80.1512
 21
-59.1398
  0
LINE
  8
0
 10
-80.1512
 20
-59.1398
 11
-78.7358
 21
-59.5191
  0
LINE
  8
0
 10
-78.7358
 20
-59.5191
 11
-77.2884
 21
-59.7483
  0
LINE
  8
0
 10
-77.2884
 20
-59.7483
 11
-75.825
 21
-59.825
  0
LINE
  8
0
 10
-75.825
 20
-59.825
 11
75.825
 21
-59.825
  0
LINE
  8
0
 10
75.825
 20
-59.825
 11
77.2884
 21
-59.7483
  0
LINE
  8
0
 10
-70.1983
 20
37.588
 11
-70.4438
 21
37.6269
  0
LINE
  8
0
 10
-70.4438
 20
37.6269
 11
-70.6839
 21
37.6912
  0
LINE
  8
0
 10
-70.6839
 20
37.6912
 11
-70.916
 21
37.7803
  0
LINE
  8
0
 10
-70.916
 20
37.7803
 11
-71.1375
 21
37.8932
  0
LINE
  8
0
 10
-71.1375
 20
37.8932
 11
-71.346
 21
38.0286
  0
LINE
  8
0
 10
-71.346
 20
38.0286
 11
-71.5392
 21
38.185
  0
LINE
  8
0
 10
-71.5392
 20
38.185
 11
-71.715
 21
38.3608
  0
LINE
  8
0
 10
-71.715
 20
38.3608
 11
-71.8714
 21
38.554
  0
LINE
  8
0
 10
-71.8714
 20
38.554
 11
-72.0068
 21
38.7625
  0
LINE
  8
0
 10
-72.0068
 20
38.7625
 11
-72.1197
 21
38.984
  0
LINE
  8
0
 10
-72.1197
 20
38.984
 11
-72.2088
 21
39.2161
  0
LINE
  8
0
 10
-72.2088
 20
39.2161
 11
-72.2731
 21
39.4562
  0
LINE
  8
0
 10
-72.2731
 20
39.4562
 11
-72.312
 21
39.7017
  0
LINE
  8
0
 10
-72.312
 20
39.7017
 11
-72.325
 21
39.95
  0
LINE
  8
0
 10
-72.325
 20
39.95
 11
-72.312
 21
40.1982
  0
LINE
  8
0
 10
-72.312
 20
40.1982
 11
-72.2731
 21
40.4438
  0
LINE
  8
0
 10
-72.2731
 20
40.4438
 11
-72.2088
 21
40.6839
  0
LINE
  8
0
 10
-72.2088
 20
40.6839
 11
-72.1197
 21
40.916
  0
LINE
  8
0
 10
-72.1197
 20
40.916
 11
-72.0068
 21
41.1375
  0
LINE
  8
0
 10
-72.0068
 20
41.1375
 11
-71.8714
 21
41.346
  0
LINE
  8
0
 10
-71.8714
 20
41.346
 11
-71.715
 21
41.5392
  0
LINE
  8
0
 10
-71.715
 20
41.5392
 11
-71.5392
 21
41.715
  0
LINE
  8
0
 10
-71.5392
 20
41.715
 11
-71.346
 21
41.8714
  0
LINE
  8
0
 10
-71.346
 20
41.8714
 11
-71.1375
 21
42.0068
  0
LINE
  8
0
 10
-71.1375
 20
42.0068
 11
-70.916
 21
42.1197
  0
LINE
  8
0
 10
-70.916
 20
42.1197
 11
-70.6839
 21
42.2088
  0
LINE
  8
0
 10
-70.6839
 20
42.2088
 11
-70.4438
 21
42.2731
  0
LINE
  8
0
 10
-70.4438
 20
42.2731
 11
-70.1983
 21
42.312
  0
LINE
  8
0
 10
-70.1983
 20
42.312
 11
-69.95
 21
42.325
  0
LINE
  8
0
 10
-69.95
 20
42.325
 11
-69.7017
 21
42.312
  0
LINE
  8
0
 10
-69.7017
 20
42.312
 11
-69.4562
 21
42.2731
  0
LINE
  8
0
 10
-69.4562
 20
42.2731
 11
-69.2161
 21
42.2088
  0
LINE
  8
0
 10
-69.2161
 20
42.2088
 11
-68.984
 21
42.1197
  0
LINE
  8
0
 10
-68.984
 20
42.1197
 11
-68.7625
 21
42.0068
  0
LINE
  8
0
 10
-68.7625
 20
42.0068
 11
-68.554
 21
41.8714
  0
LINE
  8
0
 10
-68.554
 20
41.8714
 11
-68.3608
 21
41.715
  0
LINE
  8
0
 10
-68.3608
 20
41.715
 11
-68.185
 21
41.5392
  0
LINE
  8
0
 10
-68.185
 20
41.5392
 11
-68.0286
 21
41.346
  0
LINE
  8
0
 10
-68.0286
 20
41.346
 11
-67.8932
 21
41.1375
  0
LINE
  8
0
 10
-67.8932
 20
41.1375
 11
-67.7803
 21
40.916
  0
LINE
  8
0
 10
-67.7803
 20
40.916
 11
-67.6912
 21
40.6839
  0
LINE
  8
0
 10
-67.6912
 20
40.6839
 11
-67.6269
 21
40.4438
  0
LINE
  8
0
 10
-67.6269
 20
40.4438
 11
-67.588
 21
40.1982
  0
LINE
  8
0
 10
-67.588
 20
40.1982
 11
-67.575
 21
39.95
  0
LINE
  8
0
 10
-67.575
 20
39.95
 11
-67.588
 21
39.7017
  0
LINE
  8
0
 10
-67.588
 20
39.7017
 11
-67.6269
 21
39.4562
  0
LINE
  8
0
 10
-67.6269
 20
39.4562
 11
-67.6912
 21
39.2161
  0
LINE
  8
0
 10
-67.6912
 20
39.2161
 11
-67.7803
 21
38.984
  0
LINE
  8
0
 10
-67.7803
 20
38.984
 11
-67.8932
 21
38.7625
  0
LINE
  8
0
 10
-67.8932
 20
38.7625
 11
-68.0286
 21
38.554
  0
LINE
  8
0
 10
-68.0286
 20
38.554
 11
-68.185
 21
38.3608
  0
LINE
  8
0
 10
-68.185
 20
38.3608
 11
-68.3608
 21
38.185
  0
LINE
  8
0
 10
-68.3608
 20
38.185
 11
-68.554
 21
38.0286
  0
LINE
  8
0
 10
-68.554
 20
38.0286
 11
-68.7625
 21
37.8932
  0
LINE
  8
0
 10
-68.7625
 20
37.8932
 11
-68.984
 21
37.7803
  0
LINE
  8
0
 10
-68.984
 20
37.7803
 11
-69.2161
 21
37.6912
  0
LINE
  8
0
 10
-69.2161
 20
37.6912
 11
-69.4562
 21
37.6269
  0
LINE
  8
0
 10
-69.4562
 20
37.6269
 11
-69.7017
 21
37.588
  0
LINE
  8
0
 10
-69.7017
 20
37.588
 11
-69.95
 21
37.575
  0
LINE
  8
0
 10
-69.95
 20
37.575
 11
-70.1983
 21
37.588
  0
LINE
  8
0
 10
-70.1983
 20
-42.312
 11
-70.4438
 21
-42.2731
  0
LINE
  8
0
 10
-70.4438
 20
-42.2731
 11
-70.6839
 21
-42.2088
  0
LINE
  8
0
 10
-70.6839
 20
-42.2088
 11
-70.916
 21
-42.1197
  0
LINE
  8
0
 10
-70.916
 20
-42.1197
 11
-71.1375
 21
-42.0068
  0
LINE
  8
0
 10
-71.1375
 20
-42.0068
 11
-71.346
 21
-41.8714
  0
LINE
  8
0
 10
-71.346
 20
-41.8714
 11
-71.5392
 21
-41.715
  0
LINE
  8
0
 10
-71.5392
 20
-41.715
 11
-71.715
 21
-41.5392
  0
LINE
  8
0
 10
-71.715
 20
-41.5392
 11
-71.8714
 21
-41.346
  0
LINE
  8
0
 10
-71.8714
 20
-41.346
 11
-72.0068
 21
-41.1375
  0
LINE
  8
0
 10
-72.0068
 20
-41.1375
 11
-72.1197
 21
-40.916
  0
LINE
  8
0
 10
-72.1197
 20
-40.916
 11
-72.2088
 21
-40.6839
  0
LINE
  8
0
 10
-72.2088
 20
-40.6839
 11
-72.2731
 21
-40.4438
  0
LINE
  8
0
 10
-72.2731
 20
-40.4438
 11
-72.312
 21
-40.1982
  0
LINE
  8
0
 10
-72.312
 20
-40.1982
 11
-72.325
 21
-39.95
  0
LINE
  8
0
 10
-72.325
 20
-39.95
 11
-72.312
 21
-39.7017
  0
LINE
  8
0
 10
-72.312
 20
-39.7017
 11
-72.2731
 21
-39.4562
  0
LINE
  8
0
 10
-72.2731
 20
-39.4562
 11
-72.2088
 21
-39.2161
  0
LINE
  8
0
 10
-72.2088
 20
-39.2161
 11
-72.1197
 21
-38.984
  0
LINE
  8
0
 10
-72.1197
 20
-38.984
 11
-72.0068
 21
-38.7625
  0
LINE
  8
0
 10
-72.0068
 20
-38.7625
 11
-71.8714
 21
-38.554
  0
LINE
  8
0
 10
-71.8714
 20
-38.554
 11
-71.715
 21
-38.3608
  0
LINE
  8
0
 10
-71.715
 20
-38.3608
 11
-71.5392
 21
-38.185
  0
LINE
  8
0
 10
-71.5392
 20
-38.185
 11
-71.346
 21
-38.0286
  0
LINE
  8
0
 10
-71.346
 20
-38.0286
 11
-71.1375
 21
-37.8932
  0
LINE
  8
0
 10
-71.1375
 20
-37.8932
 11
-70.916
 21
-37.7803
  0
LINE
  8
0
 10
-70.916
 20
-37.7803
 11
-70.6839
 21
-37.6912
  0
LINE
  8
0
 10
-70.6839
 20
-37.6912
 11
-70.4438
 21
-37.6269
  0
LINE
  8
0
 10
-70.4438
 20
-37.6269
 11
-70.1983
 21
-37.588
  0
LINE
  8
0
 10
-70.1983
 20
-37.588
 11
-69.95
 21
-37.575
  0
LINE
  8
0
 10
-69.95
 20
-37.575
 11
-69.7017
 21
-37.588
  0
LINE
  8
0
 10
-69.7017
 20
-37.588
 11
-69.4562
 21
-37.6269
  0
LINE
  8
0
 10
-69.4562
 20
-37.6269
 11
-69.2161
 21
-37.6912
  0
LINE
  8
0
 10
-69.2161
 20
-37.6912
 11
-68.984
 21
-37.7803
  0
LINE
  8
0
 10
-68.984
 20
-37.7803
 11
-68.7625
 21
-37.8932
  0
LINE
  8
0
 10
-68.7625
 20
-37.8932
 11
-68.554
 21
-38.0286
  0
LINE
  8
0
 10
-68.554
 20
-38.0286
 11
-68.3608
 21
-38.185
  0
LINE
  8
0
 10
-68.3608
 20
-38.185
 11
-68.185
 21
-38.3608
  0
LINE
  8
0
 10
-68.185
 20
-38.3608
 11
-68.0286
 21
-38.554
  0
LINE
  8
0
 10
-68.0286
 20
-38.554
 11
-67.8932
 21
-38.7625
  0
LINE
  8
0
 10
-67.8932
 20
-38.7625
 11
-67.7803
 21
-38.984
  0
LINE
  8
0
 10
-67.7803
 20
-38.984
 11
-67.6912
 21
-39.2161
  0
LINE
  8
0
 10
-67.6912
 20
-39.2161
 11
-67.6269
 21
-39.4562
  0
LINE
  8
0
 10
-67.6269
 20
-39.4562
 11
-67.588
 21
-39.7017
  0
LINE
  8
0
 10
-67.588
 20
-39.7017
 11
-67.575
 21
-39.95
  0
LINE
  8
0
 10
-67.575
 20
-39.95
 11
-67.588
 21
-40.1982
  0
LINE
  8
0
 10
-67.588
 20
-40.1982
 11
-67.6269
 21
-40.4438
  0
LINE
  8
0
 10
-67.6269
 20
-40.4438
 11
-67.6912
 21
-40.6839
  0
LINE
  8
0
 10
-67.6912
 20
-40.6839
 11
-67.7803
 21
-40.916
  0
LINE
  8
0
 10
-67.7803
 20
-40.916
 11
-67.8932
 21
-41.1375
  0
LINE
  8
0
 10
-67.8932
 20
-41.1375
 11
-68.0286
 21
-41.346
  0
LINE
  8
0
 10
-68.0286
 20
-41.346
 11
-68.185
 21
-41.5392
  0
LINE
  8
0
 10
-68.185
 20
-41.5392
 11
-68.3608
 21
-41.715
  0
LINE
  8
0
 10
-68.3608
 20
-41.715
 11
-68.554
 21
-41.8714
  0
LINE
  8
0
 10
-68.554
 20
-41.8714
 11
-68.7625
 21
-42.0068
  0
LINE
  8
0
 10
-68.7625
 20
-42.0068
 11
-68.984
 21
-42.1197
  0
LINE
  8
0
 10
-68.984
 20
-42.1197
 11
-69.2161
 21
-42.2088
  0
LINE
  8
0
 10
-69.2161
 20
-42.2088
 11
-69.4562
 21
-42.2731
  0
LINE
  8
0
 10
-69.4562
 20
-42.2731
 11
-69.7017
 21
-42.312
  0
LINE
  8
0
 10
-69.7017
 20
-42.312
 11
-69.95
 21
-42.325
  0
LINE
  8
0
 10
-69.95
 20
-42.325
 11
-70.1983
 21
-42.312
  0
ENDSEC
  0
SECTION
  2
OBJECTS
  0
DICTIONARY
  0
ENDSEC
  0
EOF
