  0
SECTION
  2
BLOCKS
  0
ENDSEC
  0
SECTION
  2
ENTITIES
  0
LINE
  8
0
 10
58.65
 20
23.6799
 11
58.1597
 21
24.6423
  0
LINE
  8
0
 10
58.1597
 20
24.6423
 11
58.0958
 21
24.7857
  0
LINE
  8
0
 10
58.0958
 20
24.7857
 11
57.6644
 21
25.9095
  0
LINE
  8
0
 10
57.6644
 20
25.9095
 11
57.6159
 21
26.0588
  0
LINE
  8
0
 10
57.6159
 20
26.0588
 11
57.3045
 21
27.2211
  0
LINE
  8
0
 10
57.3045
 20
27.2211
 11
57.2718
 21
27.3747
  0
LINE
  8
0
 10
57.2718
 20
27.3747
 11
57.0835
 21
28.5636
  0
LINE
  8
0
 10
57.0835
 20
28.5636
 11
57.0671
 21
28.7197
  0
LINE
  8
0
 10
57.0671
 20
28.7197
 11
57.0041
 21
29.9215
  0
LINE
  8
0
 10
57.0041
 20
29.9215
 11
57.0041
 21
30.0785
  0
LINE
  8
0
 10
57.0041
 20
30.0785
 11
57.0671
 21
31.2803
  0
LINE
  8
0
 10
57.0671
 20
31.2803
 11
57.0835
 21
31.4364
  0
LINE
  8
0
 10
57.0835
 20
31.4364
 11
57.2718
 21
32.6253
  0
LINE
  8
0
 10
57.2718
 20
32.6253
 11
57.3045
 21
32.7789
  0
LINE
  8
0
 10
57.3045
 20
32.7789
 11
57.6159
 21
33.9412
  0
LINE
  8
0
 10
57.6159
 20
33.9412
 11
57.6644
 21
34.0905
  0
LINE
  8
0
 10
57.6644
 20
34.0905
 11
58.0958
 21
35.2143
  0
LINE
  8
0
 10
58.0958
 20
35.2143
 11
58.1597
 21
35.3577
  0
LINE
  8
0
 10
58.1597
 20
35.3577
 11
58.65
 21
36.3201
  0
LINE
  8
0
 10
58.65
 20
36.3201
 11
58.65
 21
58.75
  0
LINE
  8
0
 10
58.65
 20
58.75
 11
0
 21
58.75
  0
LINE
  8
0
 10
0
 20
58.75
 11
0
 21
0
  0
LINE
  8
0
 10
0
 20
0
 11
58.65
 21
0
  0
LINE
  8
0
 10
58.65
 20
0
 11
58.65
 21
23.6799
  0
LINE
  8
0
 10
54.0912
 20
42.3283
 11
53.8511
 21
42.3911
  0
LINE
  8
0
 10
53.8511
 20
42.3911
 11
53.6227
 21
42.4881
  0
LINE
  8
0
 10
53.6227
 20
42.4881
 11
53.4108
 21
42.6174
  0
LINE
  8
0
 10
53.4108
 20
42.6174
 11
53.2201
 21
42.7762
  0
LINE
  8
0
 10
53.2201
 20
42.7762
 11
53.0544
 21
42.961
  0
LINE
  8
0
 10
53.0544
 20
42.961
 11
52.9175
 21
43.168
  0
LINE
  8
0
 10
52.9175
 20
43.168
 11
52.8122
 21
43.3927
  0
LINE
  8
0
 10
52.8122
 20
43.3927
 11
52.7407
 21
43.6304
  0
LINE
  8
0
 10
52.7407
 20
43.6304
 11
52.7045
 21
43.8759
  0
LINE
  8
0
 10
52.7045
 20
43.8759
 11
52.7045
 21
44.1241
  0
LINE
  8
0
 10
52.7045
 20
44.1241
 11
52.7407
 21
44.3696
  0
LINE
  8
0
 10
52.7407
 20
44.3696
 11
52.8122
 21
44.6073
  0
LINE
  8
0
 10
52.8122
 20
44.6073
 11
52.8919
 21
44.7773
  0
LINE
  8
0
 10
52.8919
 20
44.7773
 11
52.7871
 21
44.8746
  0
LINE
  8
0
 10
52.7871
 20
44.8746
 11
52.6329
 21
45.0679
  0
LINE
  8
0
 10
52.6329
 20
45.0679
 11
52.5092
 21
45.2821
  0
LINE
  8
0
 10
52.5092
 20
45.2821
 11
52.4189
 21
45.5123
  0
LINE
  8
0
 10
52.4189
 20
45.5123
 11
52.3639
 21
45.7534
  0
LINE
  8
0
 10
52.3639
 20
45.7534
 11
52.3454
 21
46
  0
LINE
  8
0
 10
52.3454
 20
46
 11
52.3639
 21
46.2466
  0
LINE
  8
0
 10
52.3639
 20
46.2466
 11
52.4189
 21
46.4877
  0
LINE
  8
0
 10
52.4189
 20
46.4877
 11
52.5092
 21
46.7179
  0
LINE
  8
0
 10
52.5092
 20
46.7179
 11
52.6329
 21
46.9321
  0
LINE
  8
0
 10
52.6329
 20
46.9321
 11
52.7871
 21
47.1254
  0
LINE
  8
0
 10
52.7871
 20
47.1254
 11
52.9684
 21
47.2936
  0
LINE
  8
0
 10
52.9684
 20
47.2936
 11
53.1727
 21
47.4329
  0
LINE
  8
0
 10
53.1727
 20
47.4329
 11
53.3955
 21
47.5402
  0
LINE
  8
0
 10
53.3955
 20
47.5402
 11
53.6318
 21
47.6131
  0
LINE
  8
0
 10
53.6318
 20
47.6131
 11
53.8764
 21
47.65
  0
LINE
  8
0
 10
53.8764
 20
47.65
 11
54.1237
 21
47.65
  0
LINE
  8
0
 10
54.1237
 20
47.65
 11
54.3682
 21
47.6131
  0
LINE
  8
0
 10
54.3682
 20
47.6131
 11
54.6045
 21
47.5402
  0
LINE
  8
0
 10
54.6045
 20
47.5402
 11
54.8273
 21
47.4329
  0
LINE
  8
0
 10
54.8273
 20
47.4329
 11
55.0316
 21
47.2936
  0
LINE
  8
0
 10
55.0316
 20
47.2936
 11
55.2129
 21
47.1254
  0
LINE
  8
0
 10
55.2129
 20
47.1254
 11
55.3671
 21
46.9321
  0
LINE
  8
0
 10
55.3671
 20
46.9321
 11
55.4908
 21
46.7179
  0
LINE
  8
0
 10
55.4908
 20
46.7179
 11
55.5811
 21
46.4877
  0
LINE
  8
0
 10
55.5811
 20
46.4877
 11
55.6362
 21
46.2466
  0
LINE
  8
0
 10
55.6362
 20
46.2466
 11
55.6546
 21
46
  0
LINE
  8
0
 10
55.6546
 20
46
 11
55.6362
 21
45.7534
  0
LINE
  8
0
 10
55.6362
 20
45.7534
 11
55.5811
 21
45.5123
  0
LINE
  8
0
 10
55.5811
 20
45.5123
 11
55.4969
 21
45.2976
  0
LINE
  8
0
 10
55.4969
 20
45.2976
 11
55.6661
 21
45.1344
  0
LINE
  8
0
 10
55.6661
 20
45.1344
 11
55.8178
 21
44.938
  0
LINE
  8
0
 10
55.8178
 20
44.938
 11
55.9393
 21
44.7216
  0
LINE
  8
0
 10
55.9393
 20
44.7216
 11
56.0279
 21
44.4898
  0
LINE
  8
0
 10
56.0279
 20
44.4898
 11
56.0819
 21
44.2475
  0
LINE
  8
0
 10
56.0819
 20
44.2475
 11
56.1
 21
44
  0
LINE
  8
0
 10
56.1
 20
44
 11
56.0819
 21
43.7525
  0
LINE
  8
0
 10
56.0819
 20
43.7525
 11
56.0279
 21
43.5102
  0
LINE
  8
0
 10
56.0279
 20
43.5102
 11
55.9393
 21
43.2784
  0
LINE
  8
0
 10
55.9393
 20
43.2784
 11
55.8178
 21
43.062
  0
LINE
  8
0
 10
55.8178
 20
43.062
 11
55.6661
 21
42.8656
  0
LINE
  8
0
 10
55.6661
 20
42.8656
 11
55.4874
 21
42.6933
  0
LINE
  8
0
 10
55.4874
 20
42.6933
 11
55.2856
 21
42.5489
  0
LINE
  8
0
 10
55.2856
 20
42.5489
 11
55.0649
 21
42.4354
  0
LINE
  8
0
 10
55.0649
 20
42.4354
 11
54.83
 21
42.3553
  0
LINE
  8
0
 10
54.83
 20
42.3553
 11
54.5859
 21
42.3102
  0
LINE
  8
0
 10
54.5859
 20
42.3102
 11
54.3379
 21
42.3011
  0
LINE
  8
0
 10
54.3379
 20
42.3011
 11
54.0912
 21
42.3283
  0
LINE
  8
0
 10
4.31406
 20
42.3102
 11
4.07001
 21
42.3553
  0
LINE
  8
0
 10
4.07001
 20
42.3553
 11
3.83511
 21
42.4354
  0
LINE
  8
0
 10
3.83511
 20
42.4354
 11
3.6144
 21
42.5489
  0
LINE
  8
0
 10
3.6144
 20
42.5489
 11
3.41255
 21
42.6933
  0
LINE
  8
0
 10
3.41255
 20
42.6933
 11
3.23389
 21
42.8656
  0
LINE
  8
0
 10
3.23389
 20
42.8656
 11
3.0822
 21
43.062
  0
LINE
  8
0
 10
3.0822
 20
43.062
 11
2.96072
 21
43.2784
  0
LINE
  8
0
 10
2.96072
 20
43.2784
 11
2.87207
 21
43.5102
  0
LINE
  8
0
 10
2.87207
 20
43.5102
 11
2.81812
 21
43.7525
  0
LINE
  8
0
 10
2.81812
 20
43.7525
 11
2.79999
 21
44
  0
LINE
  8
0
 10
2.79999
 20
44
 11
2.81812
 21
44.2475
  0
LINE
  8
0
 10
2.81812
 20
44.2475
 11
2.87207
 21
44.4898
  0
LINE
  8
0
 10
2.87207
 20
44.4898
 11
2.96072
 21
44.7216
  0
LINE
  8
0
 10
2.96072
 20
44.7216
 11
3.0822
 21
44.938
  0
LINE
  8
0
 10
3.0822
 20
44.938
 11
3.23389
 21
45.1344
  0
LINE
  8
0
 10
3.23389
 20
45.1344
 11
3.41255
 21
45.3067
  0
LINE
  8
0
 10
3.41255
 20
45.3067
 11
3.6144
 21
45.4511
  0
LINE
  8
0
 10
3.6144
 20
45.4511
 11
3.83511
 21
45.5646
  0
LINE
  8
0
 10
3.83511
 20
45.5646
 11
4.07001
 21
45.6447
  0
LINE
  8
0
 10
4.07001
 20
45.6447
 11
4.31406
 21
45.6898
  0
LINE
  8
0
 10
4.31406
 20
45.6898
 11
4.56209
 21
45.6989
  0
LINE
  8
0
 10
4.56209
 20
45.6989
 11
4.80878
 21
45.6717
  0
LINE
  8
0
 10
4.80878
 20
45.6717
 11
5.04889
 21
45.6089
  0
LINE
  8
0
 10
5.04889
 20
45.6089
 11
5.2773
 21
45.5119
  0
LINE
  8
0
 10
5.2773
 20
45.5119
 11
5.48915
 21
45.3826
  0
LINE
  8
0
 10
5.48915
 20
45.3826
 11
5.67992
 21
45.2238
  0
LINE
  8
0
 10
5.67992
 20
45.2238
 11
5.84554
 21
45.039
  0
LINE
  8
0
 10
5.84554
 20
45.039
 11
5.98248
 21
44.832
  0
LINE
  8
0
 10
5.98248
 20
44.832
 11
6.08781
 21
44.6073
  0
LINE
  8
0
 10
6.08781
 20
44.6073
 11
6.15932
 21
44.3696
  0
LINE
  8
0
 10
6.15932
 20
44.3696
 11
6.19547
 21
44.1241
  0
LINE
  8
0
 10
6.19547
 20
44.1241
 11
6.19547
 21
43.8759
  0
LINE
  8
0
 10
6.19547
 20
43.8759
 11
6.15932
 21
43.6304
  0
LINE
  8
0
 10
6.15932
 20
43.6304
 11
6.08781
 21
43.3927
  0
LINE
  8
0
 10
6.08781
 20
43.3927
 11
5.98248
 21
43.168
  0
LINE
  8
0
 10
5.98248
 20
43.168
 11
5.84554
 21
42.961
  0
LINE
  8
0
 10
5.84554
 20
42.961
 11
5.67992
 21
42.7762
  0
LINE
  8
0
 10
5.67992
 20
42.7762
 11
5.48915
 21
42.6174
  0
LINE
  8
0
 10
5.48915
 20
42.6174
 11
5.2773
 21
42.4881
  0
LINE
  8
0
 10
5.2773
 20
42.4881
 11
5.04889
 21
42.3911
  0
LINE
  8
0
 10
5.04889
 20
42.3911
 11
4.80878
 21
42.3283
  0
LINE
  8
0
 10
4.80878
 20
42.3283
 11
4.56209
 21
42.3011
  0
LINE
  8
0
 10
4.56209
 20
42.3011
 11
4.31406
 21
42.3102
  0
LINE
  8
0
 10
55.7507
 20
18.8331
 11
55.5133
 21
18.9038
  0
LINE
  8
0
 10
55.5133
 20
18.9038
 11
55.2907
 21
19.0126
  0
LINE
  8
0
 10
55.2907
 20
19.0126
 11
55.0891
 21
19.1566
  0
LINE
  8
0
 10
55.0891
 20
19.1566
 11
54.9139
 21
19.3317
  0
LINE
  8
0
 10
54.9139
 20
19.3317
 11
54.8005
 21
19.4842
  0
LINE
  8
0
 10
54.8005
 20
19.4842
 11
54.0214
 21
20.6841
  0
LINE
  8
0
 10
54.0214
 20
20.6841
 11
53.9429
 21
20.82
  0
LINE
  8
0
 10
53.9429
 20
20.82
 11
53.1351
 21
22.4053
  0
LINE
  8
0
 10
53.1351
 20
22.4053
 11
53.0712
 21
22.5488
  0
LINE
  8
0
 10
53.0712
 20
22.5488
 11
52.4336
 21
24.2098
  0
LINE
  8
0
 10
52.4336
 20
24.2098
 11
52.3851
 21
24.3591
  0
LINE
  8
0
 10
52.3851
 20
24.3591
 11
51.9246
 21
26.0777
  0
LINE
  8
0
 10
51.9246
 20
26.0777
 11
51.892
 21
26.2313
  0
LINE
  8
0
 10
51.892
 20
26.2313
 11
51.6136
 21
27.9887
  0
LINE
  8
0
 10
51.6136
 20
27.9887
 11
51.5972
 21
28.1448
  0
LINE
  8
0
 10
51.5972
 20
28.1448
 11
51.5041
 21
29.9215
  0
LINE
  8
0
 10
51.5041
 20
29.9215
 11
51.5041
 21
30.0785
  0
LINE
  8
0
 10
51.5041
 20
30.0785
 11
51.5972
 21
31.8552
  0
LINE
  8
0
 10
51.5972
 20
31.8552
 11
51.6136
 21
32.0113
  0
LINE
  8
0
 10
51.6136
 20
32.0113
 11
51.892
 21
33.7687
  0
LINE
  8
0
 10
51.892
 20
33.7687
 11
51.9246
 21
33.9223
  0
LINE
  8
0
 10
51.9246
 20
33.9223
 11
52.3851
 21
35.6409
  0
LINE
  8
0
 10
52.3851
 20
35.6409
 11
52.4336
 21
35.7902
  0
LINE
  8
0
 10
52.4336
 20
35.7902
 11
53.0712
 21
37.4512
  0
LINE
  8
0
 10
53.0712
 20
37.4512
 11
53.1351
 21
37.5947
  0
LINE
  8
0
 10
53.1351
 20
37.5947
 11
53.9429
 21
39.18
  0
LINE
  8
0
 10
53.9429
 20
39.18
 11
54.0214
 21
39.3159
  0
LINE
  8
0
 10
54.0214
 20
39.3159
 11
54.8005
 21
40.5158
  0
LINE
  8
0
 10
54.8005
 20
40.5158
 11
54.9522
 21
40.7117
  0
LINE
  8
0
 10
54.9522
 20
40.7117
 11
55.134
 21
40.88
  0
LINE
  8
0
 10
55.134
 20
40.88
 11
55.341
 21
41.0161
  0
LINE
  8
0
 10
55.341
 20
41.0161
 11
55.5676
 21
41.1162
  0
LINE
  8
0
 10
55.5676
 20
41.1162
 11
55.8076
 21
41.1777
  0
LINE
  8
0
 10
55.8076
 20
41.1777
 11
56.0544
 21
41.1988
  0
LINE
  8
0
 10
56.0544
 20
41.1988
 11
56.3014
 21
41.179
  0
LINE
  8
0
 10
56.3014
 20
41.179
 11
56.5417
 21
41.1189
  0
LINE
  8
0
 10
56.5417
 20
41.1189
 11
56.7688
 21
41.02
  0
LINE
  8
0
 10
56.7688
 20
41.02
 11
56.9766
 21
40.8851
  0
LINE
  8
0
 10
56.9766
 20
40.8851
 11
57.1192
 21
40.7595
  0
LINE
  8
0
 10
57.1192
 20
40.7595
 11
57.4772
 21
40.4015
  0
LINE
  8
0
 10
57.4772
 20
40.4015
 11
57.6373
 21
40.2124
  0
LINE
  8
0
 10
57.6373
 20
40.2124
 11
57.7641
 21
39.9996
  0
LINE
  8
0
 10
57.7641
 20
39.9996
 11
57.8542
 21
39.7688
  0
LINE
  8
0
 10
57.8542
 20
39.7688
 11
57.905
 21
39.5264
  0
LINE
  8
0
 10
57.905
 20
39.5264
 11
57.9153
 21
39.2789
  0
LINE
  8
0
 10
57.9153
 20
39.2789
 11
57.8846
 21
39.033
  0
LINE
  8
0
 10
57.8846
 20
39.033
 11
57.8139
 21
38.7956
  0
LINE
  8
0
 10
57.8139
 20
38.7956
 11
57.6745
 21
38.5239
  0
LINE
  8
0
 10
57.6745
 20
38.5239
 11
57.031
 21
37.533
  0
LINE
  8
0
 10
57.031
 20
37.533
 11
56.9918
 21
37.465
  0
LINE
  8
0
 10
56.9918
 20
37.465
 11
56.3147
 21
36.136
  0
LINE
  8
0
 10
56.3147
 20
36.136
 11
56.2827
 21
36.0643
  0
LINE
  8
0
 10
56.2827
 20
36.0643
 11
55.7483
 21
34.672
  0
LINE
  8
0
 10
55.7483
 20
34.672
 11
55.7239
 21
34.5971
  0
LINE
  8
0
 10
55.7239
 20
34.5971
 11
55.338
 21
33.1568
  0
LINE
  8
0
 10
55.338
 20
33.1568
 11
55.3216
 21
33.0798
  0
LINE
  8
0
 10
55.3216
 20
33.0798
 11
55.0883
 21
31.6067
  0
LINE
  8
0
 10
55.0883
 20
31.6067
 11
55.0801
 21
31.5286
  0
LINE
  8
0
 10
55.0801
 20
31.5286
 11
55.0021
 21
30.0393
  0
LINE
  8
0
 10
55.0021
 20
30.0393
 11
55.0021
 21
29.9607
  0
LINE
  8
0
 10
55.0021
 20
29.9607
 11
55.0801
 21
28.4714
  0
LINE
  8
0
 10
55.0801
 20
28.4714
 11
55.0883
 21
28.3933
  0
LINE
  8
0
 10
55.0883
 20
28.3933
 11
55.3216
 21
26.9202
  0
LINE
  8
0
 10
55.3216
 20
26.9202
 11
55.338
 21
26.8432
  0
LINE
  8
0
 10
55.338
 20
26.8432
 11
55.7239
 21
25.4029
  0
LINE
  8
0
 10
55.7239
 20
25.4029
 11
55.7483
 21
25.328
  0
LINE
  8
0
 10
55.7483
 20
25.328
 11
56.2827
 21
23.9357
  0
LINE
  8
0
 10
56.2827
 20
23.9357
 11
56.3147
 21
23.864
  0
LINE
  8
0
 10
56.3147
 20
23.864
 11
56.9918
 21
22.535
  0
LINE
  8
0
 10
56.9918
 20
22.535
 11
57.031
 21
22.467
  0
LINE
  8
0
 10
57.031
 20
22.467
 11
57.6745
 21
21.4761
  0
LINE
  8
0
 10
57.6745
 20
21.4761
 11
57.7919
 21
21.2579
  0
LINE
  8
0
 10
57.7919
 20
21.2579
 11
57.8716
 21
21.0234
  0
LINE
  8
0
 10
57.8716
 20
21.0234
 11
57.9117
 21
20.7789
  0
LINE
  8
0
 10
57.9117
 20
20.7789
 11
57.9111
 21
20.5312
  0
LINE
  8
0
 10
57.9111
 20
20.5312
 11
57.8696
 21
20.2869
  0
LINE
  8
0
 10
57.8696
 20
20.2869
 11
57.7885
 21
20.0528
  0
LINE
  8
0
 10
57.7885
 20
20.0528
 11
57.67
 21
19.8353
  0
LINE
  8
0
 10
57.67
 20
19.8353
 11
57.4772
 21
19.5985
  0
LINE
  8
0
 10
57.4772
 20
19.5985
 11
57.1192
 21
19.2405
  0
LINE
  8
0
 10
57.1192
 20
19.2405
 11
56.9302
 21
19.0804
  0
LINE
  8
0
 10
56.9302
 20
19.0804
 11
56.7173
 21
18.9536
  0
LINE
  8
0
 10
56.7173
 20
18.9536
 11
56.4866
 21
18.8635
  0
LINE
  8
0
 10
56.4866
 20
18.8635
 11
56.2441
 21
18.8127
  0
LINE
  8
0
 10
56.2441
 20
18.8127
 11
55.9966
 21
18.8025
  0
LINE
  8
0
 10
55.9966
 20
18.8025
 11
55.7507
 21
18.8331
  0
LINE
  8
0
 10
4.31406
 20
13.3102
 11
4.07001
 21
13.3553
  0
LINE
  8
0
 10
4.07001
 20
13.3553
 11
3.83511
 21
13.4354
  0
LINE
  8
0
 10
3.83511
 20
13.4354
 11
3.6144
 21
13.5489
  0
LINE
  8
0
 10
3.6144
 20
13.5489
 11
3.41255
 21
13.6933
  0
LINE
  8
0
 10
3.41255
 20
13.6933
 11
3.23389
 21
13.8656
  0
LINE
  8
0
 10
3.23389
 20
13.8656
 11
3.0822
 21
14.062
  0
LINE
  8
0
 10
3.0822
 20
14.062
 11
2.96072
 21
14.2784
  0
LINE
  8
0
 10
2.96072
 20
14.2784
 11
2.87207
 21
14.5102
  0
LINE
  8
0
 10
2.87207
 20
14.5102
 11
2.81812
 21
14.7525
  0
LINE
  8
0
 10
2.81812
 20
14.7525
 11
2.79999
 21
15
  0
LINE
  8
0
 10
2.79999
 20
15
 11
2.81812
 21
15.2475
  0
LINE
  8
0
 10
2.81812
 20
15.2475
 11
2.87207
 21
15.4898
  0
LINE
  8
0
 10
2.87207
 20
15.4898
 11
2.96072
 21
15.7216
  0
LINE
  8
0
 10
2.96072
 20
15.7216
 11
3.0822
 21
15.938
  0
LINE
  8
0
 10
3.0822
 20
15.938
 11
3.23389
 21
16.1344
  0
LINE
  8
0
 10
3.23389
 20
16.1344
 11
3.41255
 21
16.3067
  0
LINE
  8
0
 10
3.41255
 20
16.3067
 11
3.6144
 21
16.4511
  0
LINE
  8
0
 10
3.6144
 20
16.4511
 11
3.83511
 21
16.5646
  0
LINE
  8
0
 10
3.83511
 20
16.5646
 11
4.07001
 21
16.6447
  0
LINE
  8
0
 10
4.07001
 20
16.6447
 11
4.31406
 21
16.6898
  0
LINE
  8
0
 10
4.31406
 20
16.6898
 11
4.56209
 21
16.6989
  0
LINE
  8
0
 10
4.56209
 20
16.6989
 11
4.80878
 21
16.6717
  0
LINE
  8
0
 10
4.80878
 20
16.6717
 11
5.04889
 21
16.6089
  0
LINE
  8
0
 10
5.04889
 20
16.6089
 11
5.2773
 21
16.5119
  0
LINE
  8
0
 10
5.2773
 20
16.5119
 11
5.48915
 21
16.3826
  0
LINE
  8
0
 10
5.48915
 20
16.3826
 11
5.67992
 21
16.2238
  0
LINE
  8
0
 10
5.67992
 20
16.2238
 11
5.84554
 21
16.039
  0
LINE
  8
0
 10
5.84554
 20
16.039
 11
5.98248
 21
15.832
  0
LINE
  8
0
 10
5.98248
 20
15.832
 11
6.08781
 21
15.6073
  0
LINE
  8
0
 10
6.08781
 20
15.6073
 11
6.15932
 21
15.3696
  0
LINE
  8
0
 10
6.15932
 20
15.3696
 11
6.19547
 21
15.1241
  0
LINE
  8
0
 10
6.19547
 20
15.1241
 11
6.19547
 21
14.8759
  0
LINE
  8
0
 10
6.19547
 20
14.8759
 11
6.15932
 21
14.6304
  0
LINE
  8
0
 10
6.15932
 20
14.6304
 11
6.08781
 21
14.3927
  0
LINE
  8
0
 10
6.08781
 20
14.3927
 11
5.98248
 21
14.168
  0
LINE
  8
0
 10
5.98248
 20
14.168
 11
5.84554
 21
13.961
  0
LINE
  8
0
 10
5.84554
 20
13.961
 11
5.67992
 21
13.7762
  0
LINE
  8
0
 10
5.67992
 20
13.7762
 11
5.48915
 21
13.6174
  0
LINE
  8
0
 10
5.48915
 20
13.6174
 11
5.2773
 21
13.4881
  0
LINE
  8
0
 10
5.2773
 20
13.4881
 11
5.04889
 21
13.3911
  0
LINE
  8
0
 10
5.04889
 20
13.3911
 11
4.80878
 21
13.3283
  0
LINE
  8
0
 10
4.80878
 20
13.3283
 11
4.56209
 21
13.3011
  0
LINE
  8
0
 10
4.56209
 20
13.3011
 11
4.31406
 21
13.3102
  0
LINE
  8
0
 10
53.8764
 20
12.35
 11
53.6318
 21
12.3869
  0
LINE
  8
0
 10
53.6318
 20
12.3869
 11
53.3955
 21
12.4598
  0
LINE
  8
0
 10
53.3955
 20
12.4598
 11
53.1727
 21
12.5671
  0
LINE
  8
0
 10
53.1727
 20
12.5671
 11
52.9684
 21
12.7064
  0
LINE
  8
0
 10
52.9684
 20
12.7064
 11
52.7871
 21
12.8746
  0
LINE
  8
0
 10
52.7871
 20
12.8746
 11
52.6329
 21
13.0679
  0
LINE
  8
0
 10
52.6329
 20
13.0679
 11
52.5092
 21
13.2821
  0
LINE
  8
0
 10
52.5092
 20
13.2821
 11
52.4189
 21
13.5123
  0
LINE
  8
0
 10
52.4189
 20
13.5123
 11
52.3639
 21
13.7534
  0
LINE
  8
0
 10
52.3639
 20
13.7534
 11
52.3454
 21
14
  0
LINE
  8
0
 10
52.3454
 20
14
 11
52.3639
 21
14.2466
  0
LINE
  8
0
 10
52.3639
 20
14.2466
 11
52.4189
 21
14.4877
  0
LINE
  8
0
 10
52.4189
 20
14.4877
 11
52.5092
 21
14.7179
  0
LINE
  8
0
 10
52.5092
 20
14.7179
 11
52.6329
 21
14.9321
  0
LINE
  8
0
 10
52.6329
 20
14.9321
 11
52.7045
 21
15.0219
  0
LINE
  8
0
 10
52.7045
 20
15.0219
 11
52.7045
 21
15.1241
  0
LINE
  8
0
 10
52.7045
 20
15.1241
 11
52.7407
 21
15.3696
  0
LINE
  8
0
 10
52.7407
 20
15.3696
 11
52.8122
 21
15.6073
  0
LINE
  8
0
 10
52.8122
 20
15.6073
 11
52.9175
 21
15.832
  0
LINE
  8
0
 10
52.9175
 20
15.832
 11
53.0544
 21
16.039
  0
LINE
  8
0
 10
53.0544
 20
16.039
 11
53.2201
 21
16.2238
  0
LINE
  8
0
 10
53.2201
 20
16.2238
 11
53.4108
 21
16.3826
  0
LINE
  8
0
 10
53.4108
 20
16.3826
 11
53.6227
 21
16.5119
  0
LINE
  8
0
 10
53.6227
 20
16.5119
 11
53.8511
 21
16.6089
  0
LINE
  8
0
 10
53.8511
 20
16.6089
 11
54.0912
 21
16.6717
  0
LINE
  8
0
 10
54.0912
 20
16.6717
 11
54.3379
 21
16.6989
  0
LINE
  8
0
 10
54.3379
 20
16.6989
 11
54.5859
 21
16.6898
  0
LINE
  8
0
 10
54.5859
 20
16.6898
 11
54.83
 21
16.6447
  0
LINE
  8
0
 10
54.83
 20
16.6447
 11
55.0649
 21
16.5646
  0
LINE
  8
0
 10
55.0649
 20
16.5646
 11
55.2856
 21
16.4511
  0
LINE
  8
0
 10
55.2856
 20
16.4511
 11
55.4874
 21
16.3067
  0
LINE
  8
0
 10
55.4874
 20
16.3067
 11
55.6661
 21
16.1344
  0
LINE
  8
0
 10
55.6661
 20
16.1344
 11
55.8178
 21
15.938
  0
LINE
  8
0
 10
55.8178
 20
15.938
 11
55.9393
 21
15.7216
  0
LINE
  8
0
 10
55.9393
 20
15.7216
 11
56.0279
 21
15.4898
  0
LINE
  8
0
 10
56.0279
 20
15.4898
 11
56.0819
 21
15.2475
  0
LINE
  8
0
 10
56.0819
 20
15.2475
 11
56.1
 21
15
  0
LINE
  8
0
 10
56.1
 20
15
 11
56.0819
 21
14.7525
  0
LINE
  8
0
 10
56.0819
 20
14.7525
 11
56.0279
 21
14.5102
  0
LINE
  8
0
 10
56.0279
 20
14.5102
 11
55.9393
 21
14.2784
  0
LINE
  8
0
 10
55.9393
 20
14.2784
 11
55.8178
 21
14.062
  0
LINE
  8
0
 10
55.8178
 20
14.062
 11
55.6661
 21
13.8656
  0
LINE
  8
0
 10
55.6661
 20
13.8656
 11
55.6429
 21
13.8432
  0
LINE
  8
0
 10
55.6429
 20
13.8432
 11
55.6362
 21
13.7534
  0
LINE
  8
0
 10
55.6362
 20
13.7534
 11
55.5811
 21
13.5123
  0
LINE
  8
0
 10
55.5811
 20
13.5123
 11
55.4908
 21
13.2821
  0
LINE
  8
0
 10
55.4908
 20
13.2821
 11
55.3671
 21
13.0679
  0
LINE
  8
0
 10
55.3671
 20
13.0679
 11
55.2129
 21
12.8746
  0
LINE
  8
0
 10
55.2129
 20
12.8746
 11
55.0316
 21
12.7064
  0
LINE
  8
0
 10
55.0316
 20
12.7064
 11
54.8273
 21
12.5671
  0
LINE
  8
0
 10
54.8273
 20
12.5671
 11
54.6045
 21
12.4598
  0
LINE
  8
0
 10
54.6045
 20
12.4598
 11
54.3682
 21
12.3869
  0
LINE
  8
0
 10
54.3682
 20
12.3869
 11
54.1237
 21
12.35
  0
LINE
  8
0
 10
54.1237
 20
12.35
 11
53.8764
 21
12.35
  0
ENDSEC
  0
SECTION
  2
OBJECTS
  0
DICTIONARY
  0
ENDSEC
  0
EOF
