  0
SECTION
  2
BLOCKS
  0
ENDSEC
  0
SECTION
  2
ENTITIES
  0
LINE
  8
0
 10
145.398
 20
-149.848
 11
145.915
 21
-149.766
  0
LINE
  8
0
 10
145.915
 20
-149.766
 11
146.42
 21
-149.63
  0
LINE
  8
0
 10
146.42
 20
-149.63
 11
146.909
 21
-149.443
  0
LINE
  8
0
 10
146.909
 20
-149.443
 11
147.375
 21
-149.205
  0
LINE
  8
0
 10
147.375
 20
-149.205
 11
147.814
 21
-148.92
  0
LINE
  8
0
 10
147.814
 20
-148.92
 11
148.221
 21
-148.591
  0
LINE
  8
0
 10
148.221
 20
-148.591
 11
148.591
 21
-148.221
  0
LINE
  8
0
 10
148.591
 20
-148.221
 11
148.92
 21
-147.814
  0
LINE
  8
0
 10
148.92
 20
-147.814
 11
149.205
 21
-147.375
  0
LINE
  8
0
 10
149.205
 20
-147.375
 11
149.443
 21
-146.909
  0
LINE
  8
0
 10
149.443
 20
-146.909
 11
149.63
 21
-146.42
  0
LINE
  8
0
 10
149.63
 20
-146.42
 11
149.766
 21
-145.915
  0
LINE
  8
0
 10
149.766
 20
-145.915
 11
149.848
 21
-145.398
  0
LINE
  8
0
 10
149.848
 20
-145.398
 11
149.875
 21
-144.875
  0
LINE
  8
0
 10
149.875
 20
-144.875
 11
149.875
 21
144.875
  0
LINE
  8
0
 10
149.875
 20
144.875
 11
149.848
 21
145.398
  0
LINE
  8
0
 10
149.848
 20
145.398
 11
149.766
 21
145.915
  0
LINE
  8
0
 10
149.766
 20
145.915
 11
149.63
 21
146.42
  0
LINE
  8
0
 10
149.63
 20
146.42
 11
149.443
 21
146.909
  0
LINE
  8
0
 10
149.443
 20
146.909
 11
149.205
 21
147.375
  0
LINE
  8
0
 10
149.205
 20
147.375
 11
148.92
 21
147.814
  0
LINE
  8
0
 10
148.92
 20
147.814
 11
148.591
 21
148.221
  0
LINE
  8
0
 10
148.591
 20
148.221
 11
148.221
 21
148.591
  0
LINE
  8
0
 10
148.221
 20
148.591
 11
147.814
 21
148.92
  0
LINE
  8
0
 10
147.814
 20
148.92
 11
147.375
 21
149.205
  0
LINE
  8
0
 10
147.375
 20
149.205
 11
146.909
 21
149.443
  0
LINE
  8
0
 10
146.909
 20
149.443
 11
146.42
 21
149.63
  0
LINE
  8
0
 10
146.42
 20
149.63
 11
145.915
 21
149.766
  0
LINE
  8
0
 10
145.915
 20
149.766
 11
145.398
 21
149.848
  0
LINE
  8
0
 10
145.398
 20
149.848
 11
144.875
 21
149.875
  0
LINE
  8
0
 10
144.875
 20
149.875
 11
-144.875
 21
149.875
  0
LINE
  8
0
 10
-144.875
 20
149.875
 11
-145.398
 21
149.848
  0
LINE
  8
0
 10
-145.398
 20
149.848
 11
-145.915
 21
149.766
  0
LINE
  8
0
 10
-145.915
 20
149.766
 11
-146.42
 21
149.63
  0
LINE
  8
0
 10
-146.42
 20
149.63
 11
-146.909
 21
149.443
  0
LINE
  8
0
 10
-146.909
 20
149.443
 11
-147.375
 21
149.205
  0
LINE
  8
0
 10
-147.375
 20
149.205
 11
-147.814
 21
148.92
  0
LINE
  8
0
 10
-147.814
 20
148.92
 11
-148.221
 21
148.591
  0
LINE
  8
0
 10
-148.221
 20
148.591
 11
-148.591
 21
148.221
  0
LINE
  8
0
 10
-148.591
 20
148.221
 11
-148.92
 21
147.814
  0
LINE
  8
0
 10
-148.92
 20
147.814
 11
-149.205
 21
147.375
  0
LINE
  8
0
 10
-149.205
 20
147.375
 11
-149.443
 21
146.909
  0
LINE
  8
0
 10
-149.443
 20
146.909
 11
-149.63
 21
146.42
  0
LINE
  8
0
 10
-149.63
 20
146.42
 11
-149.766
 21
145.915
  0
LINE
  8
0
 10
-149.766
 20
145.915
 11
-149.848
 21
145.398
  0
LINE
  8
0
 10
-149.848
 20
145.398
 11
-149.875
 21
144.875
  0
LINE
  8
0
 10
-149.875
 20
144.875
 11
-149.875
 21
-144.875
  0
LINE
  8
0
 10
-149.875
 20
-144.875
 11
-149.848
 21
-145.398
  0
LINE
  8
0
 10
-149.848
 20
-145.398
 11
-149.766
 21
-145.915
  0
LINE
  8
0
 10
-149.766
 20
-145.915
 11
-149.63
 21
-146.42
  0
LINE
  8
0
 10
-149.63
 20
-146.42
 11
-149.443
 21
-146.909
  0
LINE
  8
0
 10
-149.443
 20
-146.909
 11
-149.205
 21
-147.375
  0
LINE
  8
0
 10
-149.205
 20
-147.375
 11
-148.92
 21
-147.814
  0
LINE
  8
0
 10
-148.92
 20
-147.814
 11
-148.591
 21
-148.221
  0
LINE
  8
0
 10
-148.591
 20
-148.221
 11
-148.221
 21
-148.591
  0
LINE
  8
0
 10
-148.221
 20
-148.591
 11
-147.814
 21
-148.92
  0
LINE
  8
0
 10
-147.814
 20
-148.92
 11
-147.375
 21
-149.205
  0
LINE
  8
0
 10
-147.375
 20
-149.205
 11
-146.909
 21
-149.443
  0
LINE
  8
0
 10
-146.909
 20
-149.443
 11
-146.42
 21
-149.63
  0
LINE
  8
0
 10
-146.42
 20
-149.63
 11
-145.915
 21
-149.766
  0
LINE
  8
0
 10
-145.915
 20
-149.766
 11
-145.398
 21
-149.848
  0
LINE
  8
0
 10
-145.398
 20
-149.848
 11
-144.875
 21
-149.875
  0
LINE
  8
0
 10
-144.875
 20
-149.875
 11
144.875
 21
-149.875
  0
LINE
  8
0
 10
144.875
 20
-149.875
 11
145.398
 21
-149.848
  0
LINE
  8
0
 10
142.108
 20
138.771
 11
141.72
 21
138.832
  0
LINE
  8
0
 10
141.72
 20
138.832
 11
141.341
 21
138.934
  0
LINE
  8
0
 10
141.341
 20
138.934
 11
140.975
 21
139.074
  0
LINE
  8
0
 10
140.975
 20
139.074
 11
140.625
 21
139.252
  0
LINE
  8
0
 10
140.625
 20
139.252
 11
140.296
 21
139.466
  0
LINE
  8
0
 10
140.296
 20
139.466
 11
139.991
 21
139.713
  0
LINE
  8
0
 10
139.991
 20
139.713
 11
139.713
 21
139.991
  0
LINE
  8
0
 10
139.713
 20
139.991
 11
139.466
 21
140.296
  0
LINE
  8
0
 10
139.466
 20
140.296
 11
139.252
 21
140.625
  0
LINE
  8
0
 10
139.252
 20
140.625
 11
139.074
 21
140.975
  0
LINE
  8
0
 10
139.074
 20
140.975
 11
138.934
 21
141.341
  0
LINE
  8
0
 10
138.934
 20
141.341
 11
138.832
 21
141.72
  0
LINE
  8
0
 10
138.832
 20
141.72
 11
138.771
 21
142.108
  0
LINE
  8
0
 10
138.771
 20
142.108
 11
138.75
 21
142.5
  0
LINE
  8
0
 10
138.75
 20
142.5
 11
138.771
 21
142.892
  0
LINE
  8
0
 10
138.771
 20
142.892
 11
138.832
 21
143.28
  0
LINE
  8
0
 10
138.832
 20
143.28
 11
138.934
 21
143.659
  0
LINE
  8
0
 10
138.934
 20
143.659
 11
139.074
 21
144.025
  0
LINE
  8
0
 10
139.074
 20
144.025
 11
139.252
 21
144.375
  0
LINE
  8
0
 10
139.252
 20
144.375
 11
139.466
 21
144.704
  0
LINE
  8
0
 10
139.466
 20
144.704
 11
139.713
 21
145.009
  0
LINE
  8
0
 10
139.713
 20
145.009
 11
139.991
 21
145.287
  0
LINE
  8
0
 10
139.991
 20
145.287
 11
140.296
 21
145.534
  0
LINE
  8
0
 10
140.296
 20
145.534
 11
140.625
 21
145.748
  0
LINE
  8
0
 10
140.625
 20
145.748
 11
140.975
 21
145.926
  0
LINE
  8
0
 10
140.975
 20
145.926
 11
141.341
 21
146.066
  0
LINE
  8
0
 10
141.341
 20
146.066
 11
141.72
 21
146.168
  0
LINE
  8
0
 10
141.72
 20
146.168
 11
142.108
 21
146.229
  0
LINE
  8
0
 10
142.108
 20
146.229
 11
142.5
 21
146.25
  0
LINE
  8
0
 10
142.5
 20
146.25
 11
142.892
 21
146.229
  0
LINE
  8
0
 10
142.892
 20
146.229
 11
143.28
 21
146.168
  0
LINE
  8
0
 10
143.28
 20
146.168
 11
143.659
 21
146.066
  0
LINE
  8
0
 10
143.659
 20
146.066
 11
144.025
 21
145.926
  0
LINE
  8
0
 10
144.025
 20
145.926
 11
144.375
 21
145.748
  0
LINE
  8
0
 10
144.375
 20
145.748
 11
144.704
 21
145.534
  0
LINE
  8
0
 10
144.704
 20
145.534
 11
145.009
 21
145.287
  0
LINE
  8
0
 10
145.009
 20
145.287
 11
145.287
 21
145.009
  0
LINE
  8
0
 10
145.287
 20
145.009
 11
145.534
 21
144.704
  0
LINE
  8
0
 10
145.534
 20
144.704
 11
145.748
 21
144.375
  0
LINE
  8
0
 10
145.748
 20
144.375
 11
145.926
 21
144.025
  0
LINE
  8
0
 10
145.926
 20
144.025
 11
146.066
 21
143.659
  0
LINE
  8
0
 10
146.066
 20
143.659
 11
146.168
 21
143.28
  0
LINE
  8
0
 10
146.168
 20
143.28
 11
146.229
 21
142.892
  0
LINE
  8
0
 10
146.229
 20
142.892
 11
146.25
 21
142.5
  0
LINE
  8
0
 10
146.25
 20
142.5
 11
146.229
 21
142.108
  0
LINE
  8
0
 10
146.229
 20
142.108
 11
146.168
 21
141.72
  0
LINE
  8
0
 10
146.168
 20
141.72
 11
146.066
 21
141.341
  0
LINE
  8
0
 10
146.066
 20
141.341
 11
145.926
 21
140.975
  0
LINE
  8
0
 10
145.926
 20
140.975
 11
145.748
 21
140.625
  0
LINE
  8
0
 10
145.748
 20
140.625
 11
145.534
 21
140.296
  0
LINE
  8
0
 10
145.534
 20
140.296
 11
145.287
 21
139.991
  0
LINE
  8
0
 10
145.287
 20
139.991
 11
145.009
 21
139.713
  0
LINE
  8
0
 10
145.009
 20
139.713
 11
144.704
 21
139.466
  0
LINE
  8
0
 10
144.704
 20
139.466
 11
144.375
 21
139.252
  0
LINE
  8
0
 10
144.375
 20
139.252
 11
144.025
 21
139.074
  0
LINE
  8
0
 10
144.025
 20
139.074
 11
143.659
 21
138.934
  0
LINE
  8
0
 10
143.659
 20
138.934
 11
143.28
 21
138.832
  0
LINE
  8
0
 10
143.28
 20
138.832
 11
142.892
 21
138.771
  0
LINE
  8
0
 10
142.892
 20
138.771
 11
142.5
 21
138.75
  0
LINE
  8
0
 10
142.5
 20
138.75
 11
142.108
 21
138.771
  0
LINE
  8
0
 10
-142.892
 20
138.771
 11
-143.28
 21
138.832
  0
LINE
  8
0
 10
-143.28
 20
138.832
 11
-143.659
 21
138.934
  0
LINE
  8
0
 10
-143.659
 20
138.934
 11
-144.025
 21
139.074
  0
LINE
  8
0
 10
-144.025
 20
139.074
 11
-144.375
 21
139.252
  0
LINE
  8
0
 10
-144.375
 20
139.252
 11
-144.704
 21
139.466
  0
LINE
  8
0
 10
-144.704
 20
139.466
 11
-145.009
 21
139.713
  0
LINE
  8
0
 10
-145.009
 20
139.713
 11
-145.287
 21
139.991
  0
LINE
  8
0
 10
-145.287
 20
139.991
 11
-145.534
 21
140.296
  0
LINE
  8
0
 10
-145.534
 20
140.296
 11
-145.748
 21
140.625
  0
LINE
  8
0
 10
-145.748
 20
140.625
 11
-145.926
 21
140.975
  0
LINE
  8
0
 10
-145.926
 20
140.975
 11
-146.066
 21
141.341
  0
LINE
  8
0
 10
-146.066
 20
141.341
 11
-146.168
 21
141.72
  0
LINE
  8
0
 10
-146.168
 20
141.72
 11
-146.229
 21
142.108
  0
LINE
  8
0
 10
-146.229
 20
142.108
 11
-146.25
 21
142.5
  0
LINE
  8
0
 10
-146.25
 20
142.5
 11
-146.229
 21
142.892
  0
LINE
  8
0
 10
-146.229
 20
142.892
 11
-146.168
 21
143.28
  0
LINE
  8
0
 10
-146.168
 20
143.28
 11
-146.066
 21
143.659
  0
LINE
  8
0
 10
-146.066
 20
143.659
 11
-145.926
 21
144.025
  0
LINE
  8
0
 10
-145.926
 20
144.025
 11
-145.748
 21
144.375
  0
LINE
  8
0
 10
-145.748
 20
144.375
 11
-145.534
 21
144.704
  0
LINE
  8
0
 10
-145.534
 20
144.704
 11
-145.287
 21
145.009
  0
LINE
  8
0
 10
-145.287
 20
145.009
 11
-145.009
 21
145.287
  0
LINE
  8
0
 10
-145.009
 20
145.287
 11
-144.704
 21
145.534
  0
LINE
  8
0
 10
-144.704
 20
145.534
 11
-144.375
 21
145.748
  0
LINE
  8
0
 10
-144.375
 20
145.748
 11
-144.025
 21
145.926
  0
LINE
  8
0
 10
-144.025
 20
145.926
 11
-143.659
 21
146.066
  0
LINE
  8
0
 10
-143.659
 20
146.066
 11
-143.28
 21
146.168
  0
LINE
  8
0
 10
-143.28
 20
146.168
 11
-142.892
 21
146.229
  0
LINE
  8
0
 10
-142.892
 20
146.229
 11
-142.5
 21
146.25
  0
LINE
  8
0
 10
-142.5
 20
146.25
 11
-142.108
 21
146.229
  0
LINE
  8
0
 10
-142.108
 20
146.229
 11
-141.72
 21
146.168
  0
LINE
  8
0
 10
-141.72
 20
146.168
 11
-141.341
 21
146.066
  0
LINE
  8
0
 10
-141.341
 20
146.066
 11
-140.975
 21
145.926
  0
LINE
  8
0
 10
-140.975
 20
145.926
 11
-140.625
 21
145.748
  0
LINE
  8
0
 10
-140.625
 20
145.748
 11
-140.296
 21
145.534
  0
LINE
  8
0
 10
-140.296
 20
145.534
 11
-139.991
 21
145.287
  0
LINE
  8
0
 10
-139.991
 20
145.287
 11
-139.713
 21
145.009
  0
LINE
  8
0
 10
-139.713
 20
145.009
 11
-139.466
 21
144.704
  0
LINE
  8
0
 10
-139.466
 20
144.704
 11
-139.252
 21
144.375
  0
LINE
  8
0
 10
-139.252
 20
144.375
 11
-139.074
 21
144.025
  0
LINE
  8
0
 10
-139.074
 20
144.025
 11
-138.934
 21
143.659
  0
LINE
  8
0
 10
-138.934
 20
143.659
 11
-138.832
 21
143.28
  0
LINE
  8
0
 10
-138.832
 20
143.28
 11
-138.771
 21
142.892
  0
LINE
  8
0
 10
-138.771
 20
142.892
 11
-138.75
 21
142.5
  0
LINE
  8
0
 10
-138.75
 20
142.5
 11
-138.771
 21
142.108
  0
LINE
  8
0
 10
-138.771
 20
142.108
 11
-138.832
 21
141.72
  0
LINE
  8
0
 10
-138.832
 20
141.72
 11
-138.934
 21
141.341
  0
LINE
  8
0
 10
-138.934
 20
141.341
 11
-139.074
 21
140.975
  0
LINE
  8
0
 10
-139.074
 20
140.975
 11
-139.252
 21
140.625
  0
LINE
  8
0
 10
-139.252
 20
140.625
 11
-139.466
 21
140.296
  0
LINE
  8
0
 10
-139.466
 20
140.296
 11
-139.713
 21
139.991
  0
LINE
  8
0
 10
-139.713
 20
139.991
 11
-139.991
 21
139.713
  0
LINE
  8
0
 10
-139.991
 20
139.713
 11
-140.296
 21
139.466
  0
LINE
  8
0
 10
-140.296
 20
139.466
 11
-140.625
 21
139.252
  0
LINE
  8
0
 10
-140.625
 20
139.252
 11
-140.975
 21
139.074
  0
LINE
  8
0
 10
-140.975
 20
139.074
 11
-141.341
 21
138.934
  0
LINE
  8
0
 10
-141.341
 20
138.934
 11
-141.72
 21
138.832
  0
LINE
  8
0
 10
-141.72
 20
138.832
 11
-142.108
 21
138.771
  0
LINE
  8
0
 10
-142.108
 20
138.771
 11
-142.5
 21
138.75
  0
LINE
  8
0
 10
-142.5
 20
138.75
 11
-142.892
 21
138.771
  0
LINE
  8
0
 10
99.6912
 20
140.828
 11
99.4511
 21
140.891
  0
LINE
  8
0
 10
99.4511
 20
140.891
 11
99.2227
 21
140.988
  0
LINE
  8
0
 10
99.2227
 20
140.988
 11
99.0108
 21
141.117
  0
LINE
  8
0
 10
99.0108
 20
141.117
 11
98.8201
 21
141.276
  0
LINE
  8
0
 10
98.8201
 20
141.276
 11
98.6544
 21
141.461
  0
LINE
  8
0
 10
98.6544
 20
141.461
 11
98.5175
 21
141.668
  0
LINE
  8
0
 10
98.5175
 20
141.668
 11
98.4122
 21
141.893
  0
LINE
  8
0
 10
98.4122
 20
141.893
 11
98.3407
 21
142.13
  0
LINE
  8
0
 10
98.3407
 20
142.13
 11
98.3045
 21
142.376
  0
LINE
  8
0
 10
98.3045
 20
142.376
 11
98.3045
 21
142.624
  0
LINE
  8
0
 10
98.3045
 20
142.624
 11
98.3407
 21
142.87
  0
LINE
  8
0
 10
98.3407
 20
142.87
 11
98.4122
 21
143.107
  0
LINE
  8
0
 10
98.4122
 20
143.107
 11
98.5175
 21
143.332
  0
LINE
  8
0
 10
98.5175
 20
143.332
 11
98.6544
 21
143.539
  0
LINE
  8
0
 10
98.6544
 20
143.539
 11
98.8201
 21
143.724
  0
LINE
  8
0
 10
98.8201
 20
143.724
 11
99.0108
 21
143.883
  0
LINE
  8
0
 10
99.0108
 20
143.883
 11
99.2227
 21
144.012
  0
LINE
  8
0
 10
99.2227
 20
144.012
 11
99.4511
 21
144.109
  0
LINE
  8
0
 10
99.4511
 20
144.109
 11
99.6912
 21
144.172
  0
LINE
  8
0
 10
99.6912
 20
144.172
 11
99.9379
 21
144.199
  0
LINE
  8
0
 10
99.9379
 20
144.199
 11
100.186
 21
144.19
  0
LINE
  8
0
 10
100.186
 20
144.19
 11
100.43
 21
144.145
  0
LINE
  8
0
 10
100.43
 20
144.145
 11
100.665
 21
144.065
  0
LINE
  8
0
 10
100.665
 20
144.065
 11
100.886
 21
143.951
  0
LINE
  8
0
 10
100.886
 20
143.951
 11
101.087
 21
143.807
  0
LINE
  8
0
 10
101.087
 20
143.807
 11
101.266
 21
143.634
  0
LINE
  8
0
 10
101.266
 20
143.634
 11
101.418
 21
143.438
  0
LINE
  8
0
 10
101.418
 20
143.438
 11
101.539
 21
143.222
  0
LINE
  8
0
 10
101.539
 20
143.222
 11
101.628
 21
142.99
  0
LINE
  8
0
 10
101.628
 20
142.99
 11
101.682
 21
142.748
  0
LINE
  8
0
 10
101.682
 20
142.748
 11
101.7
 21
142.5
  0
LINE
  8
0
 10
101.7
 20
142.5
 11
101.682
 21
142.252
  0
LINE
  8
0
 10
101.682
 20
142.252
 11
101.628
 21
142.01
  0
LINE
  8
0
 10
101.628
 20
142.01
 11
101.539
 21
141.778
  0
LINE
  8
0
 10
101.539
 20
141.778
 11
101.418
 21
141.562
  0
LINE
  8
0
 10
101.418
 20
141.562
 11
101.266
 21
141.366
  0
LINE
  8
0
 10
101.266
 20
141.366
 11
101.087
 21
141.193
  0
LINE
  8
0
 10
101.087
 20
141.193
 11
100.886
 21
141.049
  0
LINE
  8
0
 10
100.886
 20
141.049
 11
100.665
 21
140.935
  0
LINE
  8
0
 10
100.665
 20
140.935
 11
100.43
 21
140.855
  0
LINE
  8
0
 10
100.43
 20
140.855
 11
100.186
 21
140.81
  0
LINE
  8
0
 10
100.186
 20
140.81
 11
99.9379
 21
140.801
  0
LINE
  8
0
 10
99.9379
 20
140.801
 11
99.6912
 21
140.828
  0
LINE
  8
0
 10
-100.309
 20
140.828
 11
-100.549
 21
140.891
  0
LINE
  8
0
 10
-100.549
 20
140.891
 11
-100.777
 21
140.988
  0
LINE
  8
0
 10
-100.777
 20
140.988
 11
-100.989
 21
141.117
  0
LINE
  8
0
 10
-100.989
 20
141.117
 11
-101.18
 21
141.276
  0
LINE
  8
0
 10
-101.18
 20
141.276
 11
-101.346
 21
141.461
  0
LINE
  8
0
 10
-101.346
 20
141.461
 11
-101.482
 21
141.668
  0
LINE
  8
0
 10
-101.482
 20
141.668
 11
-101.588
 21
141.893
  0
LINE
  8
0
 10
-101.588
 20
141.893
 11
-101.659
 21
142.13
  0
LINE
  8
0
 10
-101.659
 20
142.13
 11
-101.695
 21
142.376
  0
LINE
  8
0
 10
-101.695
 20
142.376
 11
-101.695
 21
142.624
  0
LINE
  8
0
 10
-101.695
 20
142.624
 11
-101.659
 21
142.87
  0
LINE
  8
0
 10
-101.659
 20
142.87
 11
-101.588
 21
143.107
  0
LINE
  8
0
 10
-101.588
 20
143.107
 11
-101.482
 21
143.332
  0
LINE
  8
0
 10
-101.482
 20
143.332
 11
-101.346
 21
143.539
  0
LINE
  8
0
 10
-101.346
 20
143.539
 11
-101.18
 21
143.724
  0
LINE
  8
0
 10
-101.18
 20
143.724
 11
-100.989
 21
143.883
  0
LINE
  8
0
 10
-100.989
 20
143.883
 11
-100.777
 21
144.012
  0
LINE
  8
0
 10
-100.777
 20
144.012
 11
-100.549
 21
144.109
  0
LINE
  8
0
 10
-100.549
 20
144.109
 11
-100.309
 21
144.172
  0
LINE
  8
0
 10
-100.309
 20
144.172
 11
-100.062
 21
144.199
  0
LINE
  8
0
 10
-100.062
 20
144.199
 11
-99.8141
 21
144.19
  0
LINE
  8
0
 10
-99.8141
 20
144.19
 11
-99.57
 21
144.145
  0
LINE
  8
0
 10
-99.57
 20
144.145
 11
-99.3351
 21
144.065
  0
LINE
  8
0
 10
-99.3351
 20
144.065
 11
-99.1144
 21
143.951
  0
LINE
  8
0
 10
-99.1144
 20
143.951
 11
-98.9126
 21
143.807
  0
LINE
  8
0
 10
-98.9126
 20
143.807
 11
-98.7339
 21
143.634
  0
LINE
  8
0
 10
-98.7339
 20
143.634
 11
-98.5822
 21
143.438
  0
LINE
  8
0
 10
-98.5822
 20
143.438
 11
-98.4607
 21
143.222
  0
LINE
  8
0
 10
-98.4607
 20
143.222
 11
-98.3721
 21
142.99
  0
LINE
  8
0
 10
-98.3721
 20
142.99
 11
-98.3181
 21
142.748
  0
LINE
  8
0
 10
-98.3181
 20
142.748
 11
-98.3
 21
142.5
  0
LINE
  8
0
 10
-98.3
 20
142.5
 11
-98.3181
 21
142.252
  0
LINE
  8
0
 10
-98.3181
 20
142.252
 11
-98.3721
 21
142.01
  0
LINE
  8
0
 10
-98.3721
 20
142.01
 11
-98.4607
 21
141.778
  0
LINE
  8
0
 10
-98.4607
 20
141.778
 11
-98.5822
 21
141.562
  0
LINE
  8
0
 10
-98.5822
 20
141.562
 11
-98.7339
 21
141.366
  0
LINE
  8
0
 10
-98.7339
 20
141.366
 11
-98.9126
 21
141.193
  0
LINE
  8
0
 10
-98.9126
 20
141.193
 11
-99.1144
 21
141.049
  0
LINE
  8
0
 10
-99.1144
 20
141.049
 11
-99.3351
 21
140.935
  0
LINE
  8
0
 10
-99.3351
 20
140.935
 11
-99.57
 21
140.855
  0
LINE
  8
0
 10
-99.57
 20
140.855
 11
-99.8141
 21
140.81
  0
LINE
  8
0
 10
-99.8141
 20
140.81
 11
-100.062
 21
140.801
  0
LINE
  8
0
 10
-100.062
 20
140.801
 11
-100.309
 21
140.828
  0
LINE
  8
0
 10
-0.308777
 20
140.828
 11
-0.548889
 21
140.891
  0
LINE
  8
0
 10
-0.548889
 20
140.891
 11
-0.777298
 21
140.988
  0
LINE
  8
0
 10
-0.777298
 20
140.988
 11
-0.989151
 21
141.117
  0
LINE
  8
0
 10
-0.989151
 20
141.117
 11
-1.17992
 21
141.276
  0
LINE
  8
0
 10
-1.17992
 20
141.276
 11
-1.34554
 21
141.461
  0
LINE
  8
0
 10
-1.34554
 20
141.461
 11
-1.48248
 21
141.668
  0
LINE
  8
0
 10
-1.48248
 20
141.668
 11
-1.58781
 21
141.893
  0
LINE
  8
0
 10
-1.58781
 20
141.893
 11
-1.65932
 21
142.13
  0
LINE
  8
0
 10
-1.65932
 20
142.13
 11
-1.69545
 21
142.376
  0
LINE
  8
0
 10
-1.69545
 20
142.376
 11
-1.69545
 21
142.624
  0
LINE
  8
0
 10
-1.69545
 20
142.624
 11
-1.65932
 21
142.87
  0
LINE
  8
0
 10
-1.65932
 20
142.87
 11
-1.58781
 21
143.107
  0
LINE
  8
0
 10
-1.58781
 20
143.107
 11
-1.48248
 21
143.332
  0
LINE
  8
0
 10
-1.48248
 20
143.332
 11
-1.34554
 21
143.539
  0
LINE
  8
0
 10
-1.34554
 20
143.539
 11
-1.17992
 21
143.724
  0
LINE
  8
0
 10
-1.17992
 20
143.724
 11
-0.989151
 21
143.883
  0
LINE
  8
0
 10
-0.989151
 20
143.883
 11
-0.777298
 21
144.012
  0
LINE
  8
0
 10
-0.777298
 20
144.012
 11
-0.548889
 21
144.109
  0
LINE
  8
0
 10
-0.548889
 20
144.109
 11
-0.308777
 21
144.172
  0
LINE
  8
0
 10
-0.308777
 20
144.172
 11
-0.0620728
 21
144.199
  0
LINE
  8
0
 10
-0.0620728
 20
144.199
 11
0.185928
 21
144.19
  0
LINE
  8
0
 10
0.185928
 20
144.19
 11
0.429977
 21
144.145
  0
LINE
  8
0
 10
0.429977
 20
144.145
 11
0.664871
 21
144.065
  0
LINE
  8
0
 10
0.664871
 20
144.065
 11
0.88559
 21
143.951
  0
LINE
  8
0
 10
0.88559
 20
143.951
 11
1.08743
 21
143.807
  0
LINE
  8
0
 10
1.08743
 20
143.807
 11
1.2661
 21
143.634
  0
LINE
  8
0
 10
1.2661
 20
143.634
 11
1.41779
 21
143.438
  0
LINE
  8
0
 10
1.41779
 20
143.438
 11
1.53926
 21
143.222
  0
LINE
  8
0
 10
1.53926
 20
143.222
 11
1.62791
 21
142.99
  0
LINE
  8
0
 10
1.62791
 20
142.99
 11
1.68187
 21
142.748
  0
LINE
  8
0
 10
1.68187
 20
142.748
 11
1.7
 21
142.5
  0
LINE
  8
0
 10
1.7
 20
142.5
 11
1.68187
 21
142.252
  0
LINE
  8
0
 10
1.68187
 20
142.252
 11
1.62791
 21
142.01
  0
LINE
  8
0
 10
1.62791
 20
142.01
 11
1.53926
 21
141.778
  0
LINE
  8
0
 10
1.53926
 20
141.778
 11
1.41779
 21
141.562
  0
LINE
  8
0
 10
1.41779
 20
141.562
 11
1.2661
 21
141.366
  0
LINE
  8
0
 10
1.2661
 20
141.366
 11
1.08743
 21
141.193
  0
LINE
  8
0
 10
1.08743
 20
141.193
 11
0.88559
 21
141.049
  0
LINE
  8
0
 10
0.88559
 20
141.049
 11
0.664871
 21
140.935
  0
LINE
  8
0
 10
0.664871
 20
140.935
 11
0.429977
 21
140.855
  0
LINE
  8
0
 10
0.429977
 20
140.855
 11
0.185928
 21
140.81
  0
LINE
  8
0
 10
0.185928
 20
140.81
 11
-0.0620728
 21
140.801
  0
LINE
  8
0
 10
-0.0620728
 20
140.801
 11
-0.308777
 21
140.828
  0
LINE
  8
0
 10
-85.3589
 20
88.5712
 11
-86.7029
 21
88.7841
  0
LINE
  8
0
 10
-86.7029
 20
88.7841
 11
-88.0172
 21
89.1363
  0
LINE
  8
0
 10
-88.0172
 20
89.1363
 11
-89.2876
 21
89.6239
  0
LINE
  8
0
 10
-89.2876
 20
89.6239
 11
-90.5
 21
90.2417
  0
LINE
  8
0
 10
-90.5
 20
90.2417
 11
-91.6412
 21
90.9828
  0
LINE
  8
0
 10
-91.6412
 20
90.9828
 11
-92.6987
 21
91.8391
  0
LINE
  8
0
 10
-92.6987
 20
91.8391
 11
-93.6609
 21
92.8013
  0
LINE
  8
0
 10
-93.6609
 20
92.8013
 11
-94.5172
 21
93.8588
  0
LINE
  8
0
 10
-94.5172
 20
93.8588
 11
-95.2583
 21
95
  0
LINE
  8
0
 10
-95.2583
 20
95
 11
-95.8761
 21
96.2124
  0
LINE
  8
0
 10
-95.8761
 20
96.2124
 11
-96.3637
 21
97.4828
  0
LINE
  8
0
 10
-96.3637
 20
97.4828
 11
-96.7159
 21
98.7971
  0
LINE
  8
0
 10
-96.7159
 20
98.7971
 11
-96.9288
 21
100.141
  0
LINE
  8
0
 10
-96.9288
 20
100.141
 11
-97
 21
101.5
  0
LINE
  8
0
 10
-97
 20
101.5
 11
-96.9288
 21
102.859
  0
LINE
  8
0
 10
-96.9288
 20
102.859
 11
-96.7159
 21
104.203
  0
LINE
  8
0
 10
-96.7159
 20
104.203
 11
-96.3637
 21
105.517
  0
LINE
  8
0
 10
-96.3637
 20
105.517
 11
-95.8761
 21
106.788
  0
LINE
  8
0
 10
-95.8761
 20
106.788
 11
-95.2583
 21
108
  0
LINE
  8
0
 10
-95.2583
 20
108
 11
-94.5172
 21
109.141
  0
LINE
  8
0
 10
-94.5172
 20
109.141
 11
-93.6609
 21
110.199
  0
LINE
  8
0
 10
-93.6609
 20
110.199
 11
-92.6987
 21
111.161
  0
LINE
  8
0
 10
-92.6987
 20
111.161
 11
-91.6412
 21
112.017
  0
LINE
  8
0
 10
-91.6412
 20
112.017
 11
-90.5
 21
112.758
  0
LINE
  8
0
 10
-90.5
 20
112.758
 11
-89.2876
 21
113.376
  0
LINE
  8
0
 10
-89.2876
 20
113.376
 11
-88.0172
 21
113.864
  0
LINE
  8
0
 10
-88.0172
 20
113.864
 11
-86.7029
 21
114.216
  0
LINE
  8
0
 10
-86.7029
 20
114.216
 11
-85.3589
 21
114.429
  0
LINE
  8
0
 10
-85.3589
 20
114.429
 11
-84
 21
114.5
  0
LINE
  8
0
 10
-84
 20
114.5
 11
-82.6411
 21
114.429
  0
LINE
  8
0
 10
-82.6411
 20
114.429
 11
-81.2971
 21
114.216
  0
LINE
  8
0
 10
-81.2971
 20
114.216
 11
-79.9828
 21
113.864
  0
LINE
  8
0
 10
-79.9828
 20
113.864
 11
-78.7124
 21
113.376
  0
LINE
  8
0
 10
-78.7124
 20
113.376
 11
-77.5
 21
112.758
  0
LINE
  8
0
 10
-77.5
 20
112.758
 11
-76.3588
 21
112.017
  0
LINE
  8
0
 10
-76.3588
 20
112.017
 11
-75.3013
 21
111.161
  0
LINE
  8
0
 10
-75.3013
 20
111.161
 11
-74.3391
 21
110.199
  0
LINE
  8
0
 10
-74.3391
 20
110.199
 11
-73.4828
 21
109.141
  0
LINE
  8
0
 10
-73.4828
 20
109.141
 11
-72.7417
 21
108
  0
LINE
  8
0
 10
-72.7417
 20
108
 11
-72.1239
 21
106.788
  0
LINE
  8
0
 10
-72.1239
 20
106.788
 11
-71.6363
 21
105.517
  0
LINE
  8
0
 10
-71.6363
 20
105.517
 11
-71.2841
 21
104.203
  0
LINE
  8
0
 10
-71.2841
 20
104.203
 11
-71.0712
 21
102.859
  0
LINE
  8
0
 10
-71.0712
 20
102.859
 11
-71
 21
101.5
  0
LINE
  8
0
 10
-71
 20
101.5
 11
-71.0712
 21
100.141
  0
LINE
  8
0
 10
-71.0712
 20
100.141
 11
-71.2841
 21
98.7971
  0
LINE
  8
0
 10
-71.2841
 20
98.7971
 11
-71.6363
 21
97.4828
  0
LINE
  8
0
 10
-71.6363
 20
97.4828
 11
-72.1239
 21
96.2124
  0
LINE
  8
0
 10
-72.1239
 20
96.2124
 11
-72.7417
 21
95
  0
LINE
  8
0
 10
-72.7417
 20
95
 11
-73.4828
 21
93.8588
  0
LINE
  8
0
 10
-73.4828
 20
93.8588
 11
-74.3391
 21
92.8013
  0
LINE
  8
0
 10
-74.3391
 20
92.8013
 11
-75.3013
 21
91.8391
  0
LINE
  8
0
 10
-75.3013
 20
91.8391
 11
-76.3588
 21
90.9828
  0
LINE
  8
0
 10
-76.3588
 20
90.9828
 11
-77.5
 21
90.2417
  0
LINE
  8
0
 10
-77.5
 20
90.2417
 11
-78.7124
 21
89.6239
  0
LINE
  8
0
 10
-78.7124
 20
89.6239
 11
-79.9828
 21
89.1363
  0
LINE
  8
0
 10
-79.9828
 20
89.1363
 11
-81.2971
 21
88.7841
  0
LINE
  8
0
 10
-81.2971
 20
88.7841
 11
-82.6411
 21
88.5712
  0
LINE
  8
0
 10
-82.6411
 20
88.5712
 11
-84
 21
88.5
  0
LINE
  8
0
 10
-84
 20
88.5
 11
-85.3589
 21
88.5712
  0
LINE
  8
0
 10
142.191
 20
98.3283
 11
141.951
 21
98.3911
  0
LINE
  8
0
 10
141.951
 20
98.3911
 11
141.723
 21
98.4881
  0
LINE
  8
0
 10
141.723
 20
98.4881
 11
141.511
 21
98.6174
  0
LINE
  8
0
 10
141.511
 20
98.6174
 11
141.32
 21
98.7762
  0
LINE
  8
0
 10
141.32
 20
98.7762
 11
141.154
 21
98.961
  0
LINE
  8
0
 10
141.154
 20
98.961
 11
141.018
 21
99.168
  0
LINE
  8
0
 10
141.018
 20
99.168
 11
140.912
 21
99.3927
  0
LINE
  8
0
 10
140.912
 20
99.3927
 11
140.841
 21
99.6304
  0
LINE
  8
0
 10
140.841
 20
99.6304
 11
140.805
 21
99.8759
  0
LINE
  8
0
 10
140.805
 20
99.8759
 11
140.805
 21
100.124
  0
LINE
  8
0
 10
140.805
 20
100.124
 11
140.841
 21
100.37
  0
LINE
  8
0
 10
140.841
 20
100.37
 11
140.912
 21
100.607
  0
LINE
  8
0
 10
140.912
 20
100.607
 11
141.018
 21
100.832
  0
LINE
  8
0
 10
141.018
 20
100.832
 11
141.154
 21
101.039
  0
LINE
  8
0
 10
141.154
 20
101.039
 11
141.32
 21
101.224
  0
LINE
  8
0
 10
141.32
 20
101.224
 11
141.511
 21
101.383
  0
LINE
  8
0
 10
141.511
 20
101.383
 11
141.723
 21
101.512
  0
LINE
  8
0
 10
141.723
 20
101.512
 11
141.951
 21
101.609
  0
LINE
  8
0
 10
141.951
 20
101.609
 11
142.191
 21
101.672
  0
LINE
  8
0
 10
142.191
 20
101.672
 11
142.438
 21
101.699
  0
LINE
  8
0
 10
142.438
 20
101.699
 11
142.686
 21
101.69
  0
LINE
  8
0
 10
142.686
 20
101.69
 11
142.93
 21
101.645
  0
LINE
  8
0
 10
142.93
 20
101.645
 11
143.165
 21
101.565
  0
LINE
  8
0
 10
143.165
 20
101.565
 11
143.386
 21
101.451
  0
LINE
  8
0
 10
143.386
 20
101.451
 11
143.587
 21
101.307
  0
LINE
  8
0
 10
143.587
 20
101.307
 11
143.766
 21
101.134
  0
LINE
  8
0
 10
143.766
 20
101.134
 11
143.918
 21
100.938
  0
LINE
  8
0
 10
143.918
 20
100.938
 11
144.039
 21
100.722
  0
LINE
  8
0
 10
144.039
 20
100.722
 11
144.128
 21
100.49
  0
LINE
  8
0
 10
144.128
 20
100.49
 11
144.182
 21
100.248
  0
LINE
  8
0
 10
144.182
 20
100.248
 11
144.2
 21
100
  0
LINE
  8
0
 10
144.2
 20
100
 11
144.182
 21
99.7525
  0
LINE
  8
0
 10
144.182
 20
99.7525
 11
144.128
 21
99.5102
  0
LINE
  8
0
 10
144.128
 20
99.5102
 11
144.039
 21
99.2784
  0
LINE
  8
0
 10
144.039
 20
99.2784
 11
143.918
 21
99.062
  0
LINE
  8
0
 10
143.918
 20
99.062
 11
143.766
 21
98.8656
  0
LINE
  8
0
 10
143.766
 20
98.8656
 11
143.587
 21
98.6933
  0
LINE
  8
0
 10
143.587
 20
98.6933
 11
143.386
 21
98.5489
  0
LINE
  8
0
 10
143.386
 20
98.5489
 11
143.165
 21
98.4354
  0
LINE
  8
0
 10
143.165
 20
98.4354
 11
142.93
 21
98.3553
  0
LINE
  8
0
 10
142.93
 20
98.3553
 11
142.686
 21
98.3102
  0
LINE
  8
0
 10
142.686
 20
98.3102
 11
142.438
 21
98.3011
  0
LINE
  8
0
 10
142.438
 20
98.3011
 11
142.191
 21
98.3283
  0
LINE
  8
0
 10
-142.686
 20
98.3102
 11
-142.93
 21
98.3553
  0
LINE
  8
0
 10
-142.93
 20
98.3553
 11
-143.165
 21
98.4354
  0
LINE
  8
0
 10
-143.165
 20
98.4354
 11
-143.386
 21
98.5489
  0
LINE
  8
0
 10
-143.386
 20
98.5489
 11
-143.587
 21
98.6933
  0
LINE
  8
0
 10
-143.587
 20
98.6933
 11
-143.766
 21
98.8656
  0
LINE
  8
0
 10
-143.766
 20
98.8656
 11
-143.918
 21
99.062
  0
LINE
  8
0
 10
-143.918
 20
99.062
 11
-144.039
 21
99.2784
  0
LINE
  8
0
 10
-144.039
 20
99.2784
 11
-144.128
 21
99.5102
  0
LINE
  8
0
 10
-144.128
 20
99.5102
 11
-144.182
 21
99.7525
  0
LINE
  8
0
 10
-144.182
 20
99.7525
 11
-144.2
 21
100
  0
LINE
  8
0
 10
-144.2
 20
100
 11
-144.182
 21
100.248
  0
LINE
  8
0
 10
-144.182
 20
100.248
 11
-144.128
 21
100.49
  0
LINE
  8
0
 10
-144.128
 20
100.49
 11
-144.039
 21
100.722
  0
LINE
  8
0
 10
-144.039
 20
100.722
 11
-143.918
 21
100.938
  0
LINE
  8
0
 10
-143.918
 20
100.938
 11
-143.766
 21
101.134
  0
LINE
  8
0
 10
-143.766
 20
101.134
 11
-143.587
 21
101.307
  0
LINE
  8
0
 10
-143.587
 20
101.307
 11
-143.386
 21
101.451
  0
LINE
  8
0
 10
-143.386
 20
101.451
 11
-143.165
 21
101.565
  0
LINE
  8
0
 10
-143.165
 20
101.565
 11
-142.93
 21
101.645
  0
LINE
  8
0
 10
-142.93
 20
101.645
 11
-142.686
 21
101.69
  0
LINE
  8
0
 10
-142.686
 20
101.69
 11
-142.438
 21
101.699
  0
LINE
  8
0
 10
-142.438
 20
101.699
 11
-142.191
 21
101.672
  0
LINE
  8
0
 10
-142.191
 20
101.672
 11
-141.951
 21
101.609
  0
LINE
  8
0
 10
-141.951
 20
101.609
 11
-141.723
 21
101.512
  0
LINE
  8
0
 10
-141.723
 20
101.512
 11
-141.511
 21
101.383
  0
LINE
  8
0
 10
-141.511
 20
101.383
 11
-141.32
 21
101.224
  0
LINE
  8
0
 10
-141.32
 20
101.224
 11
-141.154
 21
101.039
  0
LINE
  8
0
 10
-141.154
 20
101.039
 11
-141.018
 21
100.832
  0
LINE
  8
0
 10
-141.018
 20
100.832
 11
-140.912
 21
100.607
  0
LINE
  8
0
 10
-140.912
 20
100.607
 11
-140.841
 21
100.37
  0
LINE
  8
0
 10
-140.841
 20
100.37
 11
-140.805
 21
100.124
  0
LINE
  8
0
 10
-140.805
 20
100.124
 11
-140.805
 21
99.8759
  0
LINE
  8
0
 10
-140.805
 20
99.8759
 11
-140.841
 21
99.6304
  0
LINE
  8
0
 10
-140.841
 20
99.6304
 11
-140.912
 21
99.3927
  0
LINE
  8
0
 10
-140.912
 20
99.3927
 11
-141.018
 21
99.168
  0
LINE
  8
0
 10
-141.018
 20
99.168
 11
-141.154
 21
98.961
  0
LINE
  8
0
 10
-141.154
 20
98.961
 11
-141.32
 21
98.7762
  0
LINE
  8
0
 10
-141.32
 20
98.7762
 11
-141.511
 21
98.6174
  0
LINE
  8
0
 10
-141.511
 20
98.6174
 11
-141.723
 21
98.4881
  0
LINE
  8
0
 10
-141.723
 20
98.4881
 11
-141.951
 21
98.3911
  0
LINE
  8
0
 10
-141.951
 20
98.3911
 11
-142.191
 21
98.3283
  0
LINE
  8
0
 10
-142.191
 20
98.3283
 11
-142.438
 21
98.3011
  0
LINE
  8
0
 10
-142.438
 20
98.3011
 11
-142.686
 21
98.3102
  0
LINE
  8
0
 10
-142.566
 20
69.3138
 11
-142.81
 21
69.3551
  0
LINE
  8
0
 10
-142.81
 20
69.3551
 11
-143.047
 21
69.4234
  0
LINE
  8
0
 10
-143.047
 20
69.4234
 11
-143.275
 21
69.5179
  0
LINE
  8
0
 10
-143.275
 20
69.5179
 11
-143.49
 21
69.6372
  0
LINE
  8
0
 10
-143.49
 20
69.6372
 11
-143.692
 21
69.78
  0
LINE
  8
0
 10
-143.692
 20
69.78
 11
-143.876
 21
69.9444
  0
LINE
  8
0
 10
-143.876
 20
69.9444
 11
-144.04
 21
70.1283
  0
LINE
  8
0
 10
-144.04
 20
70.1283
 11
-144.183
 21
70.3295
  0
LINE
  8
0
 10
-144.183
 20
70.3295
 11
-144.302
 21
70.5455
  0
LINE
  8
0
 10
-144.302
 20
70.5455
 11
-144.397
 21
70.7734
  0
LINE
  8
0
 10
-144.397
 20
70.7734
 11
-144.465
 21
71.0105
  0
LINE
  8
0
 10
-144.465
 20
71.0105
 11
-144.506
 21
71.2537
  0
LINE
  8
0
 10
-144.506
 20
71.2537
 11
-144.52
 21
71.5
  0
LINE
  8
0
 10
-144.52
 20
71.5
 11
-144.506
 21
71.7463
  0
LINE
  8
0
 10
-144.506
 20
71.7463
 11
-144.465
 21
71.9895
  0
LINE
  8
0
 10
-144.465
 20
71.9895
 11
-144.397
 21
72.2266
  0
LINE
  8
0
 10
-144.397
 20
72.2266
 11
-144.302
 21
72.4545
  0
LINE
  8
0
 10
-144.302
 20
72.4545
 11
-144.183
 21
72.6705
  0
LINE
  8
0
 10
-144.183
 20
72.6705
 11
-144.04
 21
72.8717
  0
LINE
  8
0
 10
-144.04
 20
72.8717
 11
-143.876
 21
73.0556
  0
LINE
  8
0
 10
-143.876
 20
73.0556
 11
-143.692
 21
73.22
  0
LINE
  8
0
 10
-143.692
 20
73.22
 11
-143.49
 21
73.3628
  0
LINE
  8
0
 10
-143.49
 20
73.3628
 11
-143.275
 21
73.4821
  0
LINE
  8
0
 10
-143.275
 20
73.4821
 11
-143.047
 21
73.5765
  0
LINE
  8
0
 10
-143.047
 20
73.5765
 11
-142.81
 21
73.6448
  0
LINE
  8
0
 10
-142.81
 20
73.6448
 11
-142.566
 21
73.6862
  0
LINE
  8
0
 10
-142.566
 20
73.6862
 11
-142.32
 21
73.7
  0
LINE
  8
0
 10
-142.32
 20
73.7
 11
-142.074
 21
73.6862
  0
LINE
  8
0
 10
-142.074
 20
73.6862
 11
-141.83
 21
73.6448
  0
LINE
  8
0
 10
-141.83
 20
73.6448
 11
-141.593
 21
73.5765
  0
LINE
  8
0
 10
-141.593
 20
73.5765
 11
-141.365
 21
73.4821
  0
LINE
  8
0
 10
-141.365
 20
73.4821
 11
-141.15
 21
73.3628
  0
LINE
  8
0
 10
-141.15
 20
73.3628
 11
-140.948
 21
73.22
  0
LINE
  8
0
 10
-140.948
 20
73.22
 11
-140.764
 21
73.0556
  0
LINE
  8
0
 10
-140.764
 20
73.0556
 11
-140.6
 21
72.8717
  0
LINE
  8
0
 10
-140.6
 20
72.8717
 11
-140.457
 21
72.6705
  0
LINE
  8
0
 10
-140.457
 20
72.6705
 11
-140.338
 21
72.4545
  0
LINE
  8
0
 10
-140.338
 20
72.4545
 11
-140.243
 21
72.2266
  0
LINE
  8
0
 10
-140.243
 20
72.2266
 11
-140.175
 21
71.9895
  0
LINE
  8
0
 10
-140.175
 20
71.9895
 11
-140.134
 21
71.7463
  0
LINE
  8
0
 10
-140.134
 20
71.7463
 11
-140.12
 21
71.5
  0
LINE
  8
0
 10
-140.12
 20
71.5
 11
-140.134
 21
71.2537
  0
LINE
  8
0
 10
-140.134
 20
71.2537
 11
-140.175
 21
71.0105
  0
LINE
  8
0
 10
-140.175
 20
71.0105
 11
-140.243
 21
70.7734
  0
LINE
  8
0
 10
-140.243
 20
70.7734
 11
-140.338
 21
70.5455
  0
LINE
  8
0
 10
-140.338
 20
70.5455
 11
-140.457
 21
70.3295
  0
LINE
  8
0
 10
-140.457
 20
70.3295
 11
-140.6
 21
70.1283
  0
LINE
  8
0
 10
-140.6
 20
70.1283
 11
-140.764
 21
69.9444
  0
LINE
  8
0
 10
-140.764
 20
69.9444
 11
-140.948
 21
69.78
  0
LINE
  8
0
 10
-140.948
 20
69.78
 11
-141.15
 21
69.6372
  0
LINE
  8
0
 10
-141.15
 20
69.6372
 11
-141.365
 21
69.5179
  0
LINE
  8
0
 10
-141.365
 20
69.5179
 11
-141.593
 21
69.4234
  0
LINE
  8
0
 10
-141.593
 20
69.4234
 11
-141.83
 21
69.3551
  0
LINE
  8
0
 10
-141.83
 20
69.3551
 11
-142.074
 21
69.3138
  0
LINE
  8
0
 10
-142.074
 20
69.3138
 11
-142.32
 21
69.3
  0
LINE
  8
0
 10
-142.32
 20
69.3
 11
-142.566
 21
69.3138
  0
LINE
  8
0
 10
-12.5663
 20
69.3138
 11
-12.8095
 21
69.3551
  0
LINE
  8
0
 10
-12.8095
 20
69.3551
 11
-13.0466
 21
69.4234
  0
LINE
  8
0
 10
-13.0466
 20
69.4234
 11
-13.2745
 21
69.5179
  0
LINE
  8
0
 10
-13.2745
 20
69.5179
 11
-13.4905
 21
69.6372
  0
LINE
  8
0
 10
-13.4905
 20
69.6372
 11
-13.6917
 21
69.78
  0
LINE
  8
0
 10
-13.6917
 20
69.78
 11
-13.8756
 21
69.9444
  0
LINE
  8
0
 10
-13.8756
 20
69.9444
 11
-14.04
 21
70.1283
  0
LINE
  8
0
 10
-14.04
 20
70.1283
 11
-14.1828
 21
70.3295
  0
LINE
  8
0
 10
-14.1828
 20
70.3295
 11
-14.3021
 21
70.5455
  0
LINE
  8
0
 10
-14.3021
 20
70.5455
 11
-14.3965
 21
70.7734
  0
LINE
  8
0
 10
-14.3965
 20
70.7734
 11
-14.4648
 21
71.0105
  0
LINE
  8
0
 10
-14.4648
 20
71.0105
 11
-14.5062
 21
71.2537
  0
LINE
  8
0
 10
-14.5062
 20
71.2537
 11
-14.52
 21
71.5
  0
LINE
  8
0
 10
-14.52
 20
71.5
 11
-14.5062
 21
71.7463
  0
LINE
  8
0
 10
-14.5062
 20
71.7463
 11
-14.4648
 21
71.9895
  0
LINE
  8
0
 10
-14.4648
 20
71.9895
 11
-14.3965
 21
72.2266
  0
LINE
  8
0
 10
-14.3965
 20
72.2266
 11
-14.3021
 21
72.4545
  0
LINE
  8
0
 10
-14.3021
 20
72.4545
 11
-14.1828
 21
72.6705
  0
LINE
  8
0
 10
-14.1828
 20
72.6705
 11
-14.04
 21
72.8717
  0
LINE
  8
0
 10
-14.04
 20
72.8717
 11
-13.8756
 21
73.0556
  0
LINE
  8
0
 10
-13.8756
 20
73.0556
 11
-13.6917
 21
73.22
  0
LINE
  8
0
 10
-13.6917
 20
73.22
 11
-13.4905
 21
73.3628
  0
LINE
  8
0
 10
-13.4905
 20
73.3628
 11
-13.2745
 21
73.4821
  0
LINE
  8
0
 10
-13.2745
 20
73.4821
 11
-13.0466
 21
73.5765
  0
LINE
  8
0
 10
-13.0466
 20
73.5765
 11
-12.8095
 21
73.6448
  0
LINE
  8
0
 10
-12.8095
 20
73.6448
 11
-12.5663
 21
73.6862
  0
LINE
  8
0
 10
-12.5663
 20
73.6862
 11
-12.32
 21
73.7
  0
LINE
  8
0
 10
-12.32
 20
73.7
 11
-12.0737
 21
73.6862
  0
LINE
  8
0
 10
-12.0737
 20
73.6862
 11
-11.8304
 21
73.6448
  0
LINE
  8
0
 10
-11.8304
 20
73.6448
 11
-11.5934
 21
73.5765
  0
LINE
  8
0
 10
-11.5934
 20
73.5765
 11
-11.3654
 21
73.4821
  0
LINE
  8
0
 10
-11.3654
 20
73.4821
 11
-11.1495
 21
73.3628
  0
LINE
  8
0
 10
-11.1495
 20
73.3628
 11
-10.9483
 21
73.22
  0
LINE
  8
0
 10
-10.9483
 20
73.22
 11
-10.7644
 21
73.0556
  0
LINE
  8
0
 10
-10.7644
 20
73.0556
 11
-10.6
 21
72.8717
  0
LINE
  8
0
 10
-10.6
 20
72.8717
 11
-10.4572
 21
72.6705
  0
LINE
  8
0
 10
-10.4572
 20
72.6705
 11
-10.3379
 21
72.4545
  0
LINE
  8
0
 10
-10.3379
 20
72.4545
 11
-10.2435
 21
72.2266
  0
LINE
  8
0
 10
-10.2435
 20
72.2266
 11
-10.1752
 21
71.9895
  0
LINE
  8
0
 10
-10.1752
 20
71.9895
 11
-10.1338
 21
71.7463
  0
LINE
  8
0
 10
-10.1338
 20
71.7463
 11
-10.12
 21
71.5
  0
LINE
  8
0
 10
-10.12
 20
71.5
 11
-10.1338
 21
71.2537
  0
LINE
  8
0
 10
-10.1338
 20
71.2537
 11
-10.1752
 21
71.0105
  0
LINE
  8
0
 10
-10.1752
 20
71.0105
 11
-10.2435
 21
70.7734
  0
LINE
  8
0
 10
-10.2435
 20
70.7734
 11
-10.3379
 21
70.5455
  0
LINE
  8
0
 10
-10.3379
 20
70.5455
 11
-10.4572
 21
70.3295
  0
LINE
  8
0
 10
-10.4572
 20
70.3295
 11
-10.6
 21
70.1283
  0
LINE
  8
0
 10
-10.6
 20
70.1283
 11
-10.7644
 21
69.9444
  0
LINE
  8
0
 10
-10.7644
 20
69.9444
 11
-10.9483
 21
69.78
  0
LINE
  8
0
 10
-10.9483
 20
69.78
 11
-11.1495
 21
69.6372
  0
LINE
  8
0
 10
-11.1495
 20
69.6372
 11
-11.3654
 21
69.5179
  0
LINE
  8
0
 10
-11.3654
 20
69.5179
 11
-11.5934
 21
69.4234
  0
LINE
  8
0
 10
-11.5934
 20
69.4234
 11
-11.8304
 21
69.3551
  0
LINE
  8
0
 10
-11.8304
 20
69.3551
 11
-12.0737
 21
69.3138
  0
LINE
  8
0
 10
-12.0737
 20
69.3138
 11
-12.32
 21
69.3
  0
LINE
  8
0
 10
-12.32
 20
69.3
 11
-12.5663
 21
69.3138
  0
LINE
  8
0
 10
-27.5663
 20
69.3138
 11
-27.8095
 21
69.3551
  0
LINE
  8
0
 10
-27.8095
 20
69.3551
 11
-28.0466
 21
69.4234
  0
LINE
  8
0
 10
-28.0466
 20
69.4234
 11
-28.2745
 21
69.5179
  0
LINE
  8
0
 10
-28.2745
 20
69.5179
 11
-28.4905
 21
69.6372
  0
LINE
  8
0
 10
-28.4905
 20
69.6372
 11
-28.6917
 21
69.78
  0
LINE
  8
0
 10
-28.6917
 20
69.78
 11
-28.8756
 21
69.9444
  0
LINE
  8
0
 10
-28.8756
 20
69.9444
 11
-29.04
 21
70.1283
  0
LINE
  8
0
 10
-29.04
 20
70.1283
 11
-29.1828
 21
70.3295
  0
LINE
  8
0
 10
-29.1828
 20
70.3295
 11
-29.3021
 21
70.5455
  0
LINE
  8
0
 10
-29.3021
 20
70.5455
 11
-29.3965
 21
70.7734
  0
LINE
  8
0
 10
-29.3965
 20
70.7734
 11
-29.4648
 21
71.0105
  0
LINE
  8
0
 10
-29.4648
 20
71.0105
 11
-29.5062
 21
71.2537
  0
LINE
  8
0
 10
-29.5062
 20
71.2537
 11
-29.52
 21
71.5
  0
LINE
  8
0
 10
-29.52
 20
71.5
 11
-29.5062
 21
71.7463
  0
LINE
  8
0
 10
-29.5062
 20
71.7463
 11
-29.4648
 21
71.9895
  0
LINE
  8
0
 10
-29.4648
 20
71.9895
 11
-29.3965
 21
72.2266
  0
LINE
  8
0
 10
-29.3965
 20
72.2266
 11
-29.3021
 21
72.4545
  0
LINE
  8
0
 10
-29.3021
 20
72.4545
 11
-29.1828
 21
72.6705
  0
LINE
  8
0
 10
-29.1828
 20
72.6705
 11
-29.04
 21
72.8717
  0
LINE
  8
0
 10
-29.04
 20
72.8717
 11
-28.8756
 21
73.0556
  0
LINE
  8
0
 10
-28.8756
 20
73.0556
 11
-28.6917
 21
73.22
  0
LINE
  8
0
 10
-28.6917
 20
73.22
 11
-28.4905
 21
73.3628
  0
LINE
  8
0
 10
-28.4905
 20
73.3628
 11
-28.2745
 21
73.4821
  0
LINE
  8
0
 10
-28.2745
 20
73.4821
 11
-28.0466
 21
73.5765
  0
LINE
  8
0
 10
-28.0466
 20
73.5765
 11
-27.8095
 21
73.6448
  0
LINE
  8
0
 10
-27.8095
 20
73.6448
 11
-27.5663
 21
73.6862
  0
LINE
  8
0
 10
-27.5663
 20
73.6862
 11
-27.32
 21
73.7
  0
LINE
  8
0
 10
-27.32
 20
73.7
 11
-27.0737
 21
73.6862
  0
LINE
  8
0
 10
-27.0737
 20
73.6862
 11
-26.8304
 21
73.6448
  0
LINE
  8
0
 10
-26.8304
 20
73.6448
 11
-26.5934
 21
73.5765
  0
LINE
  8
0
 10
-26.5934
 20
73.5765
 11
-26.3654
 21
73.4821
  0
LINE
  8
0
 10
-26.3654
 20
73.4821
 11
-26.1495
 21
73.3628
  0
LINE
  8
0
 10
-26.1495
 20
73.3628
 11
-25.9483
 21
73.22
  0
LINE
  8
0
 10
-25.9483
 20
73.22
 11
-25.7644
 21
73.0556
  0
LINE
  8
0
 10
-25.7644
 20
73.0556
 11
-25.6
 21
72.8717
  0
LINE
  8
0
 10
-25.6
 20
72.8717
 11
-25.4572
 21
72.6705
  0
LINE
  8
0
 10
-25.4572
 20
72.6705
 11
-25.3379
 21
72.4545
  0
LINE
  8
0
 10
-25.3379
 20
72.4545
 11
-25.2435
 21
72.2266
  0
LINE
  8
0
 10
-25.2435
 20
72.2266
 11
-25.1752
 21
71.9895
  0
LINE
  8
0
 10
-25.1752
 20
71.9895
 11
-25.1338
 21
71.7463
  0
LINE
  8
0
 10
-25.1338
 20
71.7463
 11
-25.12
 21
71.5
  0
LINE
  8
0
 10
-25.12
 20
71.5
 11
-25.1338
 21
71.2537
  0
LINE
  8
0
 10
-25.1338
 20
71.2537
 11
-25.1752
 21
71.0105
  0
LINE
  8
0
 10
-25.1752
 20
71.0105
 11
-25.2435
 21
70.7734
  0
LINE
  8
0
 10
-25.2435
 20
70.7734
 11
-25.3379
 21
70.5455
  0
LINE
  8
0
 10
-25.3379
 20
70.5455
 11
-25.4572
 21
70.3295
  0
LINE
  8
0
 10
-25.4572
 20
70.3295
 11
-25.6
 21
70.1283
  0
LINE
  8
0
 10
-25.6
 20
70.1283
 11
-25.7644
 21
69.9444
  0
LINE
  8
0
 10
-25.7644
 20
69.9444
 11
-25.9483
 21
69.78
  0
LINE
  8
0
 10
-25.9483
 20
69.78
 11
-26.1495
 21
69.6372
  0
LINE
  8
0
 10
-26.1495
 20
69.6372
 11
-26.3654
 21
69.5179
  0
LINE
  8
0
 10
-26.3654
 20
69.5179
 11
-26.5934
 21
69.4234
  0
LINE
  8
0
 10
-26.5934
 20
69.4234
 11
-26.8304
 21
69.3551
  0
LINE
  8
0
 10
-26.8304
 20
69.3551
 11
-27.0737
 21
69.3138
  0
LINE
  8
0
 10
-27.0737
 20
69.3138
 11
-27.32
 21
69.3
  0
LINE
  8
0
 10
-27.32
 20
69.3
 11
-27.5663
 21
69.3138
  0
LINE
  8
0
 10
99.1864
 20
58.0164
 11
98.8763
 21
58.0656
  0
LINE
  8
0
 10
98.8763
 20
58.0656
 11
98.573
 21
58.1468
  0
LINE
  8
0
 10
98.573
 20
58.1468
 11
98.2798
 21
58.2594
  0
LINE
  8
0
 10
98.2798
 20
58.2594
 11
98
 21
58.4019
  0
LINE
  8
0
 10
98
 20
58.4019
 11
97.7366
 21
58.5729
  0
LINE
  8
0
 10
97.7366
 20
58.5729
 11
97.4926
 21
58.7706
  0
LINE
  8
0
 10
97.4926
 20
58.7706
 11
97.2706
 21
58.9926
  0
LINE
  8
0
 10
97.2706
 20
58.9926
 11
97.073
 21
59.2366
  0
LINE
  8
0
 10
97.073
 20
59.2366
 11
96.9019
 21
59.5
  0
LINE
  8
0
 10
96.9019
 20
59.5
 11
96.7594
 21
59.7798
  0
LINE
  8
0
 10
96.7594
 20
59.7798
 11
96.6468
 21
60.0729
  0
LINE
  8
0
 10
96.6468
 20
60.0729
 11
96.5656
 21
60.3763
  0
LINE
  8
0
 10
96.5656
 20
60.3763
 11
96.5164
 21
60.6864
  0
LINE
  8
0
 10
96.5164
 20
60.6864
 11
96.5
 21
61
  0
LINE
  8
0
 10
96.5
 20
61
 11
96.5164
 21
61.3136
  0
LINE
  8
0
 10
96.5164
 20
61.3136
 11
96.5656
 21
61.6237
  0
LINE
  8
0
 10
96.5656
 20
61.6237
 11
96.6468
 21
61.927
  0
LINE
  8
0
 10
96.6468
 20
61.927
 11
96.7594
 21
62.2202
  0
LINE
  8
0
 10
96.7594
 20
62.2202
 11
96.9019
 21
62.5
  0
LINE
  8
0
 10
96.9019
 20
62.5
 11
97.073
 21
62.7634
  0
LINE
  8
0
 10
97.073
 20
62.7634
 11
97.2706
 21
63.0074
  0
LINE
  8
0
 10
97.2706
 20
63.0074
 11
97.4926
 21
63.2294
  0
LINE
  8
0
 10
97.4926
 20
63.2294
 11
97.7366
 21
63.427
  0
LINE
  8
0
 10
97.7366
 20
63.427
 11
98
 21
63.5981
  0
LINE
  8
0
 10
98
 20
63.5981
 11
98.2798
 21
63.7406
  0
LINE
  8
0
 10
98.2798
 20
63.7406
 11
98.573
 21
63.8532
  0
LINE
  8
0
 10
98.573
 20
63.8532
 11
98.8763
 21
63.9344
  0
LINE
  8
0
 10
98.8763
 20
63.9344
 11
99.1864
 21
63.9836
  0
LINE
  8
0
 10
99.1864
 20
63.9836
 11
99.5
 21
64
  0
LINE
  8
0
 10
99.5
 20
64
 11
99.8136
 21
63.9836
  0
LINE
  8
0
 10
99.8136
 20
63.9836
 11
100.124
 21
63.9344
  0
LINE
  8
0
 10
100.124
 20
63.9344
 11
100.427
 21
63.8532
  0
LINE
  8
0
 10
100.427
 20
63.8532
 11
100.72
 21
63.7406
  0
LINE
  8
0
 10
100.72
 20
63.7406
 11
101
 21
63.5981
  0
LINE
  8
0
 10
101
 20
63.5981
 11
101.263
 21
63.427
  0
LINE
  8
0
 10
101.263
 20
63.427
 11
101.507
 21
63.2294
  0
LINE
  8
0
 10
101.507
 20
63.2294
 11
101.729
 21
63.0074
  0
LINE
  8
0
 10
101.729
 20
63.0074
 11
101.927
 21
62.7634
  0
LINE
  8
0
 10
101.927
 20
62.7634
 11
102.098
 21
62.5
  0
LINE
  8
0
 10
102.098
 20
62.5
 11
102.241
 21
62.2202
  0
LINE
  8
0
 10
102.241
 20
62.2202
 11
102.353
 21
61.927
  0
LINE
  8
0
 10
102.353
 20
61.927
 11
102.434
 21
61.6237
  0
LINE
  8
0
 10
102.434
 20
61.6237
 11
102.484
 21
61.3136
  0
LINE
  8
0
 10
102.484
 20
61.3136
 11
102.5
 21
61
  0
LINE
  8
0
 10
102.5
 20
61
 11
102.484
 21
60.6864
  0
LINE
  8
0
 10
102.484
 20
60.6864
 11
102.434
 21
60.3763
  0
LINE
  8
0
 10
102.434
 20
60.3763
 11
102.353
 21
60.0729
  0
LINE
  8
0
 10
102.353
 20
60.0729
 11
102.241
 21
59.7798
  0
LINE
  8
0
 10
102.241
 20
59.7798
 11
102.098
 21
59.5
  0
LINE
  8
0
 10
102.098
 20
59.5
 11
101.927
 21
59.2366
  0
LINE
  8
0
 10
101.927
 20
59.2366
 11
101.729
 21
58.9926
  0
LINE
  8
0
 10
101.729
 20
58.9926
 11
101.507
 21
58.7706
  0
LINE
  8
0
 10
101.507
 20
58.7706
 11
101.263
 21
58.5729
  0
LINE
  8
0
 10
101.263
 20
58.5729
 11
101
 21
58.4019
  0
LINE
  8
0
 10
101
 20
58.4019
 11
100.72
 21
58.2594
  0
LINE
  8
0
 10
100.72
 20
58.2594
 11
100.427
 21
58.1468
  0
LINE
  8
0
 10
100.427
 20
58.1468
 11
100.124
 21
58.0656
  0
LINE
  8
0
 10
100.124
 20
58.0656
 11
99.8136
 21
58.0164
  0
LINE
  8
0
 10
99.8136
 20
58.0164
 11
99.5
 21
58
  0
LINE
  8
0
 10
99.5
 20
58
 11
99.1864
 21
58.0164
  0
LINE
  8
0
 10
14.1864
 20
58.0164
 11
13.8763
 21
58.0656
  0
LINE
  8
0
 10
13.8763
 20
58.0656
 11
13.5729
 21
58.1468
  0
LINE
  8
0
 10
13.5729
 20
58.1468
 11
13.2798
 21
58.2594
  0
LINE
  8
0
 10
13.2798
 20
58.2594
 11
13
 21
58.4019
  0
LINE
  8
0
 10
13
 20
58.4019
 11
12.7366
 21
58.5729
  0
LINE
  8
0
 10
12.7366
 20
58.5729
 11
12.4926
 21
58.7706
  0
LINE
  8
0
 10
12.4926
 20
58.7706
 11
12.2706
 21
58.9926
  0
LINE
  8
0
 10
12.2706
 20
58.9926
 11
12.0729
 21
59.2366
  0
LINE
  8
0
 10
12.0729
 20
59.2366
 11
11.9019
 21
59.5
  0
LINE
  8
0
 10
11.9019
 20
59.5
 11
11.7594
 21
59.7798
  0
LINE
  8
0
 10
11.7594
 20
59.7798
 11
11.6468
 21
60.0729
  0
LINE
  8
0
 10
11.6468
 20
60.0729
 11
11.5656
 21
60.3763
  0
LINE
  8
0
 10
11.5656
 20
60.3763
 11
11.5164
 21
60.6864
  0
LINE
  8
0
 10
11.5164
 20
60.6864
 11
11.5
 21
61
  0
LINE
  8
0
 10
11.5
 20
61
 11
11.5164
 21
61.3136
  0
LINE
  8
0
 10
11.5164
 20
61.3136
 11
11.5656
 21
61.6237
  0
LINE
  8
0
 10
11.5656
 20
61.6237
 11
11.6468
 21
61.927
  0
LINE
  8
0
 10
11.6468
 20
61.927
 11
11.7594
 21
62.2202
  0
LINE
  8
0
 10
11.7594
 20
62.2202
 11
11.9019
 21
62.5
  0
LINE
  8
0
 10
11.9019
 20
62.5
 11
12.0729
 21
62.7634
  0
LINE
  8
0
 10
12.0729
 20
62.7634
 11
12.2706
 21
63.0074
  0
LINE
  8
0
 10
12.2706
 20
63.0074
 11
12.4926
 21
63.2294
  0
LINE
  8
0
 10
12.4926
 20
63.2294
 11
12.7366
 21
63.427
  0
LINE
  8
0
 10
12.7366
 20
63.427
 11
13
 21
63.5981
  0
LINE
  8
0
 10
13
 20
63.5981
 11
13.2798
 21
63.7406
  0
LINE
  8
0
 10
13.2798
 20
63.7406
 11
13.5729
 21
63.8532
  0
LINE
  8
0
 10
13.5729
 20
63.8532
 11
13.8763
 21
63.9344
  0
LINE
  8
0
 10
13.8763
 20
63.9344
 11
14.1864
 21
63.9836
  0
LINE
  8
0
 10
14.1864
 20
63.9836
 11
14.5
 21
64
  0
LINE
  8
0
 10
14.5
 20
64
 11
14.8136
 21
63.9836
  0
LINE
  8
0
 10
14.8136
 20
63.9836
 11
15.1237
 21
63.9344
  0
LINE
  8
0
 10
15.1237
 20
63.9344
 11
15.427
 21
63.8532
  0
LINE
  8
0
 10
15.427
 20
63.8532
 11
15.7202
 21
63.7406
  0
LINE
  8
0
 10
15.7202
 20
63.7406
 11
16
 21
63.5981
  0
LINE
  8
0
 10
16
 20
63.5981
 11
16.2634
 21
63.427
  0
LINE
  8
0
 10
16.2634
 20
63.427
 11
16.5074
 21
63.2294
  0
LINE
  8
0
 10
16.5074
 20
63.2294
 11
16.7294
 21
63.0074
  0
LINE
  8
0
 10
16.7294
 20
63.0074
 11
16.927
 21
62.7634
  0
LINE
  8
0
 10
16.927
 20
62.7634
 11
17.0981
 21
62.5
  0
LINE
  8
0
 10
17.0981
 20
62.5
 11
17.2406
 21
62.2202
  0
LINE
  8
0
 10
17.2406
 20
62.2202
 11
17.3532
 21
61.927
  0
LINE
  8
0
 10
17.3532
 20
61.927
 11
17.4344
 21
61.6237
  0
LINE
  8
0
 10
17.4344
 20
61.6237
 11
17.4836
 21
61.3136
  0
LINE
  8
0
 10
17.4836
 20
61.3136
 11
17.5
 21
61
  0
LINE
  8
0
 10
17.5
 20
61
 11
17.4836
 21
60.6864
  0
LINE
  8
0
 10
17.4836
 20
60.6864
 11
17.4344
 21
60.3763
  0
LINE
  8
0
 10
17.4344
 20
60.3763
 11
17.3532
 21
60.0729
  0
LINE
  8
0
 10
17.3532
 20
60.0729
 11
17.2406
 21
59.7798
  0
LINE
  8
0
 10
17.2406
 20
59.7798
 11
17.0981
 21
59.5
  0
LINE
  8
0
 10
17.0981
 20
59.5
 11
16.927
 21
59.2366
  0
LINE
  8
0
 10
16.927
 20
59.2366
 11
16.7294
 21
58.9926
  0
LINE
  8
0
 10
16.7294
 20
58.9926
 11
16.5074
 21
58.7706
  0
LINE
  8
0
 10
16.5074
 20
58.7706
 11
16.2634
 21
58.5729
  0
LINE
  8
0
 10
16.2634
 20
58.5729
 11
16
 21
58.4019
  0
LINE
  8
0
 10
16
 20
58.4019
 11
15.7202
 21
58.2594
  0
LINE
  8
0
 10
15.7202
 20
58.2594
 11
15.427
 21
58.1468
  0
LINE
  8
0
 10
15.427
 20
58.1468
 11
15.1237
 21
58.0656
  0
LINE
  8
0
 10
15.1237
 20
58.0656
 11
14.8136
 21
58.0164
  0
LINE
  8
0
 10
14.8136
 20
58.0164
 11
14.5
 21
58
  0
LINE
  8
0
 10
14.5
 20
58
 11
14.1864
 21
58.0164
  0
LINE
  8
0
 10
-70.0739
 20
13.4551
 11
-70.3182
 21
13.4959
  0
LINE
  8
0
 10
-70.3182
 20
13.4959
 11
-70.5525
 21
13.5763
  0
LINE
  8
0
 10
-70.5525
 20
13.5763
 11
-70.7704
 21
13.6942
  0
LINE
  8
0
 10
-70.7704
 20
13.6942
 11
-70.9659
 21
13.8464
  0
LINE
  8
0
 10
-70.9659
 20
13.8464
 11
-71.1337
 21
14.0287
  0
LINE
  8
0
 10
-71.1337
 20
14.0287
 11
-71.2692
 21
14.2361
  0
LINE
  8
0
 10
-71.2692
 20
14.2361
 11
-71.3687
 21
14.4629
  0
LINE
  8
0
 10
-71.3687
 20
14.4629
 11
-71.4295
 21
14.7031
  0
LINE
  8
0
 10
-71.4295
 20
14.7031
 11
-71.45
 21
14.95
  0
LINE
  8
0
 10
-71.45
 20
14.95
 11
-71.4295
 21
15.1969
  0
LINE
  8
0
 10
-71.4295
 20
15.1969
 11
-71.3687
 21
15.437
  0
LINE
  8
0
 10
-71.3687
 20
15.437
 11
-71.2692
 21
15.6639
  0
LINE
  8
0
 10
-71.2692
 20
15.6639
 11
-71.1337
 21
15.8713
  0
LINE
  8
0
 10
-71.1337
 20
15.8713
 11
-70.9659
 21
16.0536
  0
LINE
  8
0
 10
-70.9659
 20
16.0536
 11
-70.7704
 21
16.2057
  0
LINE
  8
0
 10
-70.7704
 20
16.2057
 11
-70.5525
 21
16.3237
  0
LINE
  8
0
 10
-70.5525
 20
16.3237
 11
-70.3182
 21
16.4041
  0
LINE
  8
0
 10
-70.3182
 20
16.4041
 11
-70.0739
 21
16.4449
  0
LINE
  8
0
 10
-70.0739
 20
16.4449
 11
-69.8261
 21
16.4449
  0
LINE
  8
0
 10
-69.8261
 20
16.4449
 11
-69.5818
 21
16.4041
  0
LINE
  8
0
 10
-69.5818
 20
16.4041
 11
-69.3475
 21
16.3237
  0
LINE
  8
0
 10
-69.3475
 20
16.3237
 11
-69.1296
 21
16.2057
  0
LINE
  8
0
 10
-69.1296
 20
16.2057
 11
-68.9341
 21
16.0536
  0
LINE
  8
0
 10
-68.9341
 20
16.0536
 11
-68.7663
 21
15.8713
  0
LINE
  8
0
 10
-68.7663
 20
15.8713
 11
-68.6308
 21
15.6639
  0
LINE
  8
0
 10
-68.6308
 20
15.6639
 11
-68.5313
 21
15.437
  0
LINE
  8
0
 10
-68.5313
 20
15.437
 11
-68.4705
 21
15.1969
  0
LINE
  8
0
 10
-68.4705
 20
15.1969
 11
-68.45
 21
14.95
  0
LINE
  8
0
 10
-68.45
 20
14.95
 11
-68.4705
 21
14.7031
  0
LINE
  8
0
 10
-68.4705
 20
14.7031
 11
-68.5313
 21
14.4629
  0
LINE
  8
0
 10
-68.5313
 20
14.4629
 11
-68.6308
 21
14.2361
  0
LINE
  8
0
 10
-68.6308
 20
14.2361
 11
-68.7663
 21
14.0287
  0
LINE
  8
0
 10
-68.7663
 20
14.0287
 11
-68.9341
 21
13.8464
  0
LINE
  8
0
 10
-68.9341
 20
13.8464
 11
-69.1296
 21
13.6942
  0
LINE
  8
0
 10
-69.1296
 20
13.6942
 11
-69.3475
 21
13.5763
  0
LINE
  8
0
 10
-69.3475
 20
13.5763
 11
-69.5818
 21
13.4959
  0
LINE
  8
0
 10
-69.5818
 20
13.4959
 11
-69.8261
 21
13.4551
  0
LINE
  8
0
 10
-69.8261
 20
13.4551
 11
-70.0739
 21
13.4551
  0
LINE
  8
0
 10
69.8261
 20
13.4551
 11
69.5818
 21
13.4959
  0
LINE
  8
0
 10
69.5818
 20
13.4959
 11
69.3475
 21
13.5763
  0
LINE
  8
0
 10
69.3475
 20
13.5763
 11
69.1296
 21
13.6942
  0
LINE
  8
0
 10
69.1296
 20
13.6942
 11
68.9341
 21
13.8464
  0
LINE
  8
0
 10
68.9341
 20
13.8464
 11
68.7663
 21
14.0287
  0
LINE
  8
0
 10
68.7663
 20
14.0287
 11
68.6308
 21
14.2361
  0
LINE
  8
0
 10
68.6308
 20
14.2361
 11
68.5313
 21
14.4629
  0
LINE
  8
0
 10
68.5313
 20
14.4629
 11
68.4705
 21
14.7031
  0
LINE
  8
0
 10
68.4705
 20
14.7031
 11
68.45
 21
14.95
  0
LINE
  8
0
 10
68.45
 20
14.95
 11
68.4705
 21
15.1969
  0
LINE
  8
0
 10
68.4705
 20
15.1969
 11
68.5313
 21
15.437
  0
LINE
  8
0
 10
68.5313
 20
15.437
 11
68.6308
 21
15.6639
  0
LINE
  8
0
 10
68.6308
 20
15.6639
 11
68.7663
 21
15.8713
  0
LINE
  8
0
 10
68.7663
 20
15.8713
 11
68.9341
 21
16.0536
  0
LINE
  8
0
 10
68.9341
 20
16.0536
 11
69.1296
 21
16.2057
  0
LINE
  8
0
 10
69.1296
 20
16.2057
 11
69.3475
 21
16.3237
  0
LINE
  8
0
 10
69.3475
 20
16.3237
 11
69.5818
 21
16.4041
  0
LINE
  8
0
 10
69.5818
 20
16.4041
 11
69.8261
 21
16.4449
  0
LINE
  8
0
 10
69.8261
 20
16.4449
 11
70.0739
 21
16.4449
  0
LINE
  8
0
 10
70.0739
 20
16.4449
 11
70.3182
 21
16.4041
  0
LINE
  8
0
 10
70.3182
 20
16.4041
 11
70.5525
 21
16.3237
  0
LINE
  8
0
 10
70.5525
 20
16.3237
 11
70.7704
 21
16.2057
  0
LINE
  8
0
 10
70.7704
 20
16.2057
 11
70.9659
 21
16.0536
  0
LINE
  8
0
 10
70.9659
 20
16.0536
 11
71.1337
 21
15.8713
  0
LINE
  8
0
 10
71.1337
 20
15.8713
 11
71.2692
 21
15.6639
  0
LINE
  8
0
 10
71.2692
 20
15.6639
 11
71.3687
 21
15.437
  0
LINE
  8
0
 10
71.3687
 20
15.437
 11
71.4295
 21
15.1969
  0
LINE
  8
0
 10
71.4295
 20
15.1969
 11
71.45
 21
14.95
  0
LINE
  8
0
 10
71.45
 20
14.95
 11
71.4295
 21
14.7031
  0
LINE
  8
0
 10
71.4295
 20
14.7031
 11
71.3687
 21
14.4629
  0
LINE
  8
0
 10
71.3687
 20
14.4629
 11
71.2692
 21
14.2361
  0
LINE
  8
0
 10
71.2692
 20
14.2361
 11
71.1337
 21
14.0287
  0
LINE
  8
0
 10
71.1337
 20
14.0287
 11
70.9659
 21
13.8464
  0
LINE
  8
0
 10
70.9659
 20
13.8464
 11
70.7704
 21
13.6942
  0
LINE
  8
0
 10
70.7704
 20
13.6942
 11
70.5525
 21
13.5763
  0
LINE
  8
0
 10
70.5525
 20
13.5763
 11
70.3182
 21
13.4959
  0
LINE
  8
0
 10
70.3182
 20
13.4959
 11
70.0739
 21
13.4551
  0
LINE
  8
0
 10
70.0739
 20
13.4551
 11
69.8261
 21
13.4551
  0
LINE
  8
0
 10
-142.686
 20
-1.68979
 11
-142.93
 21
-1.64471
  0
LINE
  8
0
 10
-142.93
 20
-1.64471
 11
-143.165
 21
-1.56458
  0
LINE
  8
0
 10
-143.165
 20
-1.56458
 11
-143.386
 21
-1.4511
  0
LINE
  8
0
 10
-143.386
 20
-1.4511
 11
-143.587
 21
-1.30669
  0
LINE
  8
0
 10
-143.587
 20
-1.30669
 11
-143.766
 21
-1.13443
  0
LINE
  8
0
 10
-143.766
 20
-1.13443
 11
-143.918
 21
-0.938004
  0
LINE
  8
0
 10
-143.918
 20
-0.938004
 11
-144.039
 21
-0.721573
  0
LINE
  8
0
 10
-144.039
 20
-0.721573
 11
-144.128
 21
-0.489761
  0
LINE
  8
0
 10
-144.128
 20
-0.489761
 11
-144.182
 21
-0.247513
  0
LINE
  8
0
 10
-144.182
 20
-0.247513
 11
-144.2
 21
0
  0
LINE
  8
0
 10
-144.2
 20
0
 11
-144.182
 21
0.247513
  0
LINE
  8
0
 10
-144.182
 20
0.247513
 11
-144.128
 21
0.489761
  0
LINE
  8
0
 10
-144.128
 20
0.489761
 11
-144.039
 21
0.721573
  0
LINE
  8
0
 10
-144.039
 20
0.721573
 11
-143.918
 21
0.938004
  0
LINE
  8
0
 10
-143.918
 20
0.938004
 11
-143.766
 21
1.13443
  0
LINE
  8
0
 10
-143.766
 20
1.13443
 11
-143.587
 21
1.30669
  0
LINE
  8
0
 10
-143.587
 20
1.30669
 11
-143.386
 21
1.4511
  0
LINE
  8
0
 10
-143.386
 20
1.4511
 11
-143.165
 21
1.56458
  0
LINE
  8
0
 10
-143.165
 20
1.56458
 11
-142.93
 21
1.64471
  0
LINE
  8
0
 10
-142.93
 20
1.64471
 11
-142.686
 21
1.68979
  0
LINE
  8
0
 10
-142.686
 20
1.68979
 11
-142.438
 21
1.69885
  0
LINE
  8
0
 10
-142.438
 20
1.69885
 11
-142.191
 21
1.67171
  0
LINE
  8
0
 10
-142.191
 20
1.67171
 11
-141.951
 21
1.60893
  0
LINE
  8
0
 10
-141.951
 20
1.60893
 11
-141.723
 21
1.51187
  0
LINE
  8
0
 10
-141.723
 20
1.51187
 11
-141.511
 21
1.38258
  0
LINE
  8
0
 10
-141.511
 20
1.38258
 11
-141.32
 21
1.22383
  0
LINE
  8
0
 10
-141.32
 20
1.22383
 11
-141.154
 21
1.03899
  0
LINE
  8
0
 10
-141.154
 20
1.03899
 11
-141.018
 21
0.832001
  0
LINE
  8
0
 10
-141.018
 20
0.832001
 11
-140.912
 21
0.607285
  0
LINE
  8
0
 10
-140.912
 20
0.607285
 11
-140.841
 21
0.369629
  0
LINE
  8
0
 10
-140.841
 20
0.369629
 11
-140.805
 21
0.124084
  0
LINE
  8
0
 10
-140.805
 20
0.124084
 11
-140.805
 21
-0.124084
  0
LINE
  8
0
 10
-140.805
 20
-0.124084
 11
-140.841
 21
-0.369629
  0
LINE
  8
0
 10
-140.841
 20
-0.369629
 11
-140.912
 21
-0.607285
  0
LINE
  8
0
 10
-140.912
 20
-0.607285
 11
-141.018
 21
-0.832001
  0
LINE
  8
0
 10
-141.018
 20
-0.832001
 11
-141.154
 21
-1.03899
  0
LINE
  8
0
 10
-141.154
 20
-1.03899
 11
-141.32
 21
-1.22383
  0
LINE
  8
0
 10
-141.32
 20
-1.22383
 11
-141.511
 21
-1.38258
  0
LINE
  8
0
 10
-141.511
 20
-1.38258
 11
-141.723
 21
-1.51187
  0
LINE
  8
0
 10
-141.723
 20
-1.51187
 11
-141.951
 21
-1.60893
  0
LINE
  8
0
 10
-141.951
 20
-1.60893
 11
-142.191
 21
-1.67171
  0
LINE
  8
0
 10
-142.191
 20
-1.67171
 11
-142.438
 21
-1.69885
  0
LINE
  8
0
 10
-142.438
 20
-1.69885
 11
-142.686
 21
-1.68979
  0
LINE
  8
0
 10
142.191
 20
-1.67171
 11
141.951
 21
-1.60893
  0
LINE
  8
0
 10
141.951
 20
-1.60893
 11
141.723
 21
-1.51187
  0
LINE
  8
0
 10
141.723
 20
-1.51187
 11
141.511
 21
-1.38258
  0
LINE
  8
0
 10
141.511
 20
-1.38258
 11
141.32
 21
-1.22383
  0
LINE
  8
0
 10
141.32
 20
-1.22383
 11
141.154
 21
-1.03899
  0
LINE
  8
0
 10
141.154
 20
-1.03899
 11
141.018
 21
-0.832001
  0
LINE
  8
0
 10
141.018
 20
-0.832001
 11
140.912
 21
-0.607285
  0
LINE
  8
0
 10
140.912
 20
-0.607285
 11
140.841
 21
-0.369629
  0
LINE
  8
0
 10
140.841
 20
-0.369629
 11
140.805
 21
-0.124084
  0
LINE
  8
0
 10
140.805
 20
-0.124084
 11
140.805
 21
0.124084
  0
LINE
  8
0
 10
140.805
 20
0.124084
 11
140.841
 21
0.369629
  0
LINE
  8
0
 10
140.841
 20
0.369629
 11
140.912
 21
0.607285
  0
LINE
  8
0
 10
140.912
 20
0.607285
 11
141.018
 21
0.832001
  0
LINE
  8
0
 10
141.018
 20
0.832001
 11
141.154
 21
1.03899
  0
LINE
  8
0
 10
141.154
 20
1.03899
 11
141.32
 21
1.22383
  0
LINE
  8
0
 10
141.32
 20
1.22383
 11
141.511
 21
1.38258
  0
LINE
  8
0
 10
141.511
 20
1.38258
 11
141.723
 21
1.51187
  0
LINE
  8
0
 10
141.723
 20
1.51187
 11
141.951
 21
1.60893
  0
LINE
  8
0
 10
141.951
 20
1.60893
 11
142.191
 21
1.67171
  0
LINE
  8
0
 10
142.191
 20
1.67171
 11
142.438
 21
1.69885
  0
LINE
  8
0
 10
142.438
 20
1.69885
 11
142.686
 21
1.68979
  0
LINE
  8
0
 10
142.686
 20
1.68979
 11
142.93
 21
1.64471
  0
LINE
  8
0
 10
142.93
 20
1.64471
 11
143.165
 21
1.56458
  0
LINE
  8
0
 10
143.165
 20
1.56458
 11
143.386
 21
1.4511
  0
LINE
  8
0
 10
143.386
 20
1.4511
 11
143.587
 21
1.30669
  0
LINE
  8
0
 10
143.587
 20
1.30669
 11
143.766
 21
1.13443
  0
LINE
  8
0
 10
143.766
 20
1.13443
 11
143.918
 21
0.938004
  0
LINE
  8
0
 10
143.918
 20
0.938004
 11
144.039
 21
0.721573
  0
LINE
  8
0
 10
144.039
 20
0.721573
 11
144.128
 21
0.489761
  0
LINE
  8
0
 10
144.128
 20
0.489761
 11
144.182
 21
0.247513
  0
LINE
  8
0
 10
144.182
 20
0.247513
 11
144.2
 21
0
  0
LINE
  8
0
 10
144.2
 20
0
 11
144.182
 21
-0.247513
  0
LINE
  8
0
 10
144.182
 20
-0.247513
 11
144.128
 21
-0.489761
  0
LINE
  8
0
 10
144.128
 20
-0.489761
 11
144.039
 21
-0.721573
  0
LINE
  8
0
 10
144.039
 20
-0.721573
 11
143.918
 21
-0.938004
  0
LINE
  8
0
 10
143.918
 20
-0.938004
 11
143.766
 21
-1.13443
  0
LINE
  8
0
 10
143.766
 20
-1.13443
 11
143.587
 21
-1.30669
  0
LINE
  8
0
 10
143.587
 20
-1.30669
 11
143.386
 21
-1.4511
  0
LINE
  8
0
 10
143.386
 20
-1.4511
 11
143.165
 21
-1.56458
  0
LINE
  8
0
 10
143.165
 20
-1.56458
 11
142.93
 21
-1.64471
  0
LINE
  8
0
 10
142.93
 20
-1.64471
 11
142.686
 21
-1.68979
  0
LINE
  8
0
 10
142.686
 20
-1.68979
 11
142.438
 21
-1.69885
  0
LINE
  8
0
 10
142.438
 20
-1.69885
 11
142.191
 21
-1.67171
  0
LINE
  8
0
 10
-142.566
 20
-22.6862
 11
-142.81
 21
-22.6448
  0
LINE
  8
0
 10
-142.81
 20
-22.6448
 11
-143.047
 21
-22.5765
  0
LINE
  8
0
 10
-143.047
 20
-22.5765
 11
-143.275
 21
-22.4821
  0
LINE
  8
0
 10
-143.275
 20
-22.4821
 11
-143.49
 21
-22.3628
  0
LINE
  8
0
 10
-143.49
 20
-22.3628
 11
-143.692
 21
-22.22
  0
LINE
  8
0
 10
-143.692
 20
-22.22
 11
-143.876
 21
-22.0556
  0
LINE
  8
0
 10
-143.876
 20
-22.0556
 11
-144.04
 21
-21.8717
  0
LINE
  8
0
 10
-144.04
 20
-21.8717
 11
-144.183
 21
-21.6705
  0
LINE
  8
0
 10
-144.183
 20
-21.6705
 11
-144.302
 21
-21.4545
  0
LINE
  8
0
 10
-144.302
 20
-21.4545
 11
-144.397
 21
-21.2266
  0
LINE
  8
0
 10
-144.397
 20
-21.2266
 11
-144.465
 21
-20.9895
  0
LINE
  8
0
 10
-144.465
 20
-20.9895
 11
-144.506
 21
-20.7463
  0
LINE
  8
0
 10
-144.506
 20
-20.7463
 11
-144.52
 21
-20.5
  0
LINE
  8
0
 10
-144.52
 20
-20.5
 11
-144.506
 21
-20.2537
  0
LINE
  8
0
 10
-144.506
 20
-20.2537
 11
-144.465
 21
-20.0105
  0
LINE
  8
0
 10
-144.465
 20
-20.0105
 11
-144.397
 21
-19.7734
  0
LINE
  8
0
 10
-144.397
 20
-19.7734
 11
-144.302
 21
-19.5455
  0
LINE
  8
0
 10
-144.302
 20
-19.5455
 11
-144.183
 21
-19.3295
  0
LINE
  8
0
 10
-144.183
 20
-19.3295
 11
-144.04
 21
-19.1283
  0
LINE
  8
0
 10
-144.04
 20
-19.1283
 11
-143.876
 21
-18.9444
  0
LINE
  8
0
 10
-143.876
 20
-18.9444
 11
-143.692
 21
-18.78
  0
LINE
  8
0
 10
-143.692
 20
-18.78
 11
-143.49
 21
-18.6372
  0
LINE
  8
0
 10
-143.49
 20
-18.6372
 11
-143.275
 21
-18.5179
  0
LINE
  8
0
 10
-143.275
 20
-18.5179
 11
-143.047
 21
-18.4234
  0
LINE
  8
0
 10
-143.047
 20
-18.4234
 11
-142.81
 21
-18.3551
  0
LINE
  8
0
 10
-142.81
 20
-18.3551
 11
-142.566
 21
-18.3138
  0
LINE
  8
0
 10
-142.566
 20
-18.3138
 11
-142.32
 21
-18.3
  0
LINE
  8
0
 10
-142.32
 20
-18.3
 11
-142.074
 21
-18.3138
  0
LINE
  8
0
 10
-142.074
 20
-18.3138
 11
-141.83
 21
-18.3551
  0
LINE
  8
0
 10
-141.83
 20
-18.3551
 11
-141.593
 21
-18.4234
  0
LINE
  8
0
 10
-141.593
 20
-18.4234
 11
-141.365
 21
-18.5179
  0
LINE
  8
0
 10
-141.365
 20
-18.5179
 11
-141.15
 21
-18.6372
  0
LINE
  8
0
 10
-141.15
 20
-18.6372
 11
-140.948
 21
-18.78
  0
LINE
  8
0
 10
-140.948
 20
-18.78
 11
-140.764
 21
-18.9444
  0
LINE
  8
0
 10
-140.764
 20
-18.9444
 11
-140.6
 21
-19.1283
  0
LINE
  8
0
 10
-140.6
 20
-19.1283
 11
-140.457
 21
-19.3295
  0
LINE
  8
0
 10
-140.457
 20
-19.3295
 11
-140.338
 21
-19.5455
  0
LINE
  8
0
 10
-140.338
 20
-19.5455
 11
-140.243
 21
-19.7734
  0
LINE
  8
0
 10
-140.243
 20
-19.7734
 11
-140.175
 21
-20.0105
  0
LINE
  8
0
 10
-140.175
 20
-20.0105
 11
-140.134
 21
-20.2537
  0
LINE
  8
0
 10
-140.134
 20
-20.2537
 11
-140.12
 21
-20.5
  0
LINE
  8
0
 10
-140.12
 20
-20.5
 11
-140.134
 21
-20.7463
  0
LINE
  8
0
 10
-140.134
 20
-20.7463
 11
-140.175
 21
-20.9895
  0
LINE
  8
0
 10
-140.175
 20
-20.9895
 11
-140.243
 21
-21.2266
  0
LINE
  8
0
 10
-140.243
 20
-21.2266
 11
-140.338
 21
-21.4545
  0
LINE
  8
0
 10
-140.338
 20
-21.4545
 11
-140.457
 21
-21.6705
  0
LINE
  8
0
 10
-140.457
 20
-21.6705
 11
-140.6
 21
-21.8717
  0
LINE
  8
0
 10
-140.6
 20
-21.8717
 11
-140.764
 21
-22.0556
  0
LINE
  8
0
 10
-140.764
 20
-22.0556
 11
-140.948
 21
-22.22
  0
LINE
  8
0
 10
-140.948
 20
-22.22
 11
-141.15
 21
-22.3628
  0
LINE
  8
0
 10
-141.15
 20
-22.3628
 11
-141.365
 21
-22.4821
  0
LINE
  8
0
 10
-141.365
 20
-22.4821
 11
-141.593
 21
-22.5765
  0
LINE
  8
0
 10
-141.593
 20
-22.5765
 11
-141.83
 21
-22.6448
  0
LINE
  8
0
 10
-141.83
 20
-22.6448
 11
-142.074
 21
-22.6862
  0
LINE
  8
0
 10
-142.074
 20
-22.6862
 11
-142.32
 21
-22.7
  0
LINE
  8
0
 10
-142.32
 20
-22.7
 11
-142.566
 21
-22.6862
  0
LINE
  8
0
 10
-27.5663
 20
-22.6862
 11
-27.8095
 21
-22.6448
  0
LINE
  8
0
 10
-27.8095
 20
-22.6448
 11
-28.0466
 21
-22.5765
  0
LINE
  8
0
 10
-28.0466
 20
-22.5765
 11
-28.2745
 21
-22.4821
  0
LINE
  8
0
 10
-28.2745
 20
-22.4821
 11
-28.4905
 21
-22.3628
  0
LINE
  8
0
 10
-28.4905
 20
-22.3628
 11
-28.6917
 21
-22.22
  0
LINE
  8
0
 10
-28.6917
 20
-22.22
 11
-28.8756
 21
-22.0556
  0
LINE
  8
0
 10
-28.8756
 20
-22.0556
 11
-29.04
 21
-21.8717
  0
LINE
  8
0
 10
-29.04
 20
-21.8717
 11
-29.1828
 21
-21.6705
  0
LINE
  8
0
 10
-29.1828
 20
-21.6705
 11
-29.3021
 21
-21.4545
  0
LINE
  8
0
 10
-29.3021
 20
-21.4545
 11
-29.3965
 21
-21.2266
  0
LINE
  8
0
 10
-29.3965
 20
-21.2266
 11
-29.4648
 21
-20.9895
  0
LINE
  8
0
 10
-29.4648
 20
-20.9895
 11
-29.5062
 21
-20.7463
  0
LINE
  8
0
 10
-29.5062
 20
-20.7463
 11
-29.52
 21
-20.5
  0
LINE
  8
0
 10
-29.52
 20
-20.5
 11
-29.5062
 21
-20.2537
  0
LINE
  8
0
 10
-29.5062
 20
-20.2537
 11
-29.4648
 21
-20.0105
  0
LINE
  8
0
 10
-29.4648
 20
-20.0105
 11
-29.3965
 21
-19.7734
  0
LINE
  8
0
 10
-29.3965
 20
-19.7734
 11
-29.3021
 21
-19.5455
  0
LINE
  8
0
 10
-29.3021
 20
-19.5455
 11
-29.1828
 21
-19.3295
  0
LINE
  8
0
 10
-29.1828
 20
-19.3295
 11
-29.04
 21
-19.1283
  0
LINE
  8
0
 10
-29.04
 20
-19.1283
 11
-28.8756
 21
-18.9444
  0
LINE
  8
0
 10
-28.8756
 20
-18.9444
 11
-28.6917
 21
-18.78
  0
LINE
  8
0
 10
-28.6917
 20
-18.78
 11
-28.4905
 21
-18.6372
  0
LINE
  8
0
 10
-28.4905
 20
-18.6372
 11
-28.2745
 21
-18.5179
  0
LINE
  8
0
 10
-28.2745
 20
-18.5179
 11
-28.0466
 21
-18.4234
  0
LINE
  8
0
 10
-28.0466
 20
-18.4234
 11
-27.8095
 21
-18.3551
  0
LINE
  8
0
 10
-27.8095
 20
-18.3551
 11
-27.5663
 21
-18.3138
  0
LINE
  8
0
 10
-27.5663
 20
-18.3138
 11
-27.32
 21
-18.3
  0
LINE
  8
0
 10
-27.32
 20
-18.3
 11
-27.0737
 21
-18.3138
  0
LINE
  8
0
 10
-27.0737
 20
-18.3138
 11
-26.8304
 21
-18.3551
  0
LINE
  8
0
 10
-26.8304
 20
-18.3551
 11
-26.5934
 21
-18.4234
  0
LINE
  8
0
 10
-26.5934
 20
-18.4234
 11
-26.3654
 21
-18.5179
  0
LINE
  8
0
 10
-26.3654
 20
-18.5179
 11
-26.1495
 21
-18.6372
  0
LINE
  8
0
 10
-26.1495
 20
-18.6372
 11
-25.9483
 21
-18.78
  0
LINE
  8
0
 10
-25.9483
 20
-18.78
 11
-25.7644
 21
-18.9444
  0
LINE
  8
0
 10
-25.7644
 20
-18.9444
 11
-25.6
 21
-19.1283
  0
LINE
  8
0
 10
-25.6
 20
-19.1283
 11
-25.4572
 21
-19.3295
  0
LINE
  8
0
 10
-25.4572
 20
-19.3295
 11
-25.3379
 21
-19.5455
  0
LINE
  8
0
 10
-25.3379
 20
-19.5455
 11
-25.2435
 21
-19.7734
  0
LINE
  8
0
 10
-25.2435
 20
-19.7734
 11
-25.1752
 21
-20.0105
  0
LINE
  8
0
 10
-25.1752
 20
-20.0105
 11
-25.1338
 21
-20.2537
  0
LINE
  8
0
 10
-25.1338
 20
-20.2537
 11
-25.12
 21
-20.5
  0
LINE
  8
0
 10
-25.12
 20
-20.5
 11
-25.1338
 21
-20.7463
  0
LINE
  8
0
 10
-25.1338
 20
-20.7463
 11
-25.1752
 21
-20.9895
  0
LINE
  8
0
 10
-25.1752
 20
-20.9895
 11
-25.2435
 21
-21.2266
  0
LINE
  8
0
 10
-25.2435
 20
-21.2266
 11
-25.3379
 21
-21.4545
  0
LINE
  8
0
 10
-25.3379
 20
-21.4545
 11
-25.4572
 21
-21.6705
  0
LINE
  8
0
 10
-25.4572
 20
-21.6705
 11
-25.6
 21
-21.8717
  0
LINE
  8
0
 10
-25.6
 20
-21.8717
 11
-25.7644
 21
-22.0556
  0
LINE
  8
0
 10
-25.7644
 20
-22.0556
 11
-25.9483
 21
-22.22
  0
LINE
  8
0
 10
-25.9483
 20
-22.22
 11
-26.1495
 21
-22.3628
  0
LINE
  8
0
 10
-26.1495
 20
-22.3628
 11
-26.3654
 21
-22.4821
  0
LINE
  8
0
 10
-26.3654
 20
-22.4821
 11
-26.5934
 21
-22.5765
  0
LINE
  8
0
 10
-26.5934
 20
-22.5765
 11
-26.8304
 21
-22.6448
  0
LINE
  8
0
 10
-26.8304
 20
-22.6448
 11
-27.0737
 21
-22.6862
  0
LINE
  8
0
 10
-27.0737
 20
-22.6862
 11
-27.32
 21
-22.7
  0
LINE
  8
0
 10
-27.32
 20
-22.7
 11
-27.5663
 21
-22.6862
  0
LINE
  8
0
 10
-142.566
 20
-40.6862
 11
-142.81
 21
-40.6448
  0
LINE
  8
0
 10
-142.81
 20
-40.6448
 11
-143.047
 21
-40.5765
  0
LINE
  8
0
 10
-143.047
 20
-40.5765
 11
-143.275
 21
-40.4821
  0
LINE
  8
0
 10
-143.275
 20
-40.4821
 11
-143.49
 21
-40.3628
  0
LINE
  8
0
 10
-143.49
 20
-40.3628
 11
-143.692
 21
-40.22
  0
LINE
  8
0
 10
-143.692
 20
-40.22
 11
-143.876
 21
-40.0556
  0
LINE
  8
0
 10
-143.876
 20
-40.0556
 11
-144.04
 21
-39.8717
  0
LINE
  8
0
 10
-144.04
 20
-39.8717
 11
-144.183
 21
-39.6705
  0
LINE
  8
0
 10
-144.183
 20
-39.6705
 11
-144.302
 21
-39.4545
  0
LINE
  8
0
 10
-144.302
 20
-39.4545
 11
-144.397
 21
-39.2266
  0
LINE
  8
0
 10
-144.397
 20
-39.2266
 11
-144.465
 21
-38.9895
  0
LINE
  8
0
 10
-144.465
 20
-38.9895
 11
-144.506
 21
-38.7463
  0
LINE
  8
0
 10
-144.506
 20
-38.7463
 11
-144.52
 21
-38.5
  0
LINE
  8
0
 10
-144.52
 20
-38.5
 11
-144.506
 21
-38.2537
  0
LINE
  8
0
 10
-144.506
 20
-38.2537
 11
-144.465
 21
-38.0105
  0
LINE
  8
0
 10
-144.465
 20
-38.0105
 11
-144.397
 21
-37.7734
  0
LINE
  8
0
 10
-144.397
 20
-37.7734
 11
-144.302
 21
-37.5455
  0
LINE
  8
0
 10
-144.302
 20
-37.5455
 11
-144.183
 21
-37.3295
  0
LINE
  8
0
 10
-144.183
 20
-37.3295
 11
-144.04
 21
-37.1283
  0
LINE
  8
0
 10
-144.04
 20
-37.1283
 11
-143.876
 21
-36.9444
  0
LINE
  8
0
 10
-143.876
 20
-36.9444
 11
-143.692
 21
-36.78
  0
LINE
  8
0
 10
-143.692
 20
-36.78
 11
-143.49
 21
-36.6372
  0
LINE
  8
0
 10
-143.49
 20
-36.6372
 11
-143.275
 21
-36.5179
  0
LINE
  8
0
 10
-143.275
 20
-36.5179
 11
-143.047
 21
-36.4234
  0
LINE
  8
0
 10
-143.047
 20
-36.4234
 11
-142.81
 21
-36.3551
  0
LINE
  8
0
 10
-142.81
 20
-36.3551
 11
-142.566
 21
-36.3138
  0
LINE
  8
0
 10
-142.566
 20
-36.3138
 11
-142.32
 21
-36.3
  0
LINE
  8
0
 10
-142.32
 20
-36.3
 11
-142.074
 21
-36.3138
  0
LINE
  8
0
 10
-142.074
 20
-36.3138
 11
-141.83
 21
-36.3551
  0
LINE
  8
0
 10
-141.83
 20
-36.3551
 11
-141.593
 21
-36.4234
  0
LINE
  8
0
 10
-141.593
 20
-36.4234
 11
-141.365
 21
-36.5179
  0
LINE
  8
0
 10
-141.365
 20
-36.5179
 11
-141.15
 21
-36.6372
  0
LINE
  8
0
 10
-141.15
 20
-36.6372
 11
-140.948
 21
-36.78
  0
LINE
  8
0
 10
-140.948
 20
-36.78
 11
-140.764
 21
-36.9444
  0
LINE
  8
0
 10
-140.764
 20
-36.9444
 11
-140.6
 21
-37.1283
  0
LINE
  8
0
 10
-140.6
 20
-37.1283
 11
-140.457
 21
-37.3295
  0
LINE
  8
0
 10
-140.457
 20
-37.3295
 11
-140.338
 21
-37.5455
  0
LINE
  8
0
 10
-140.338
 20
-37.5455
 11
-140.243
 21
-37.7734
  0
LINE
  8
0
 10
-140.243
 20
-37.7734
 11
-140.175
 21
-38.0105
  0
LINE
  8
0
 10
-140.175
 20
-38.0105
 11
-140.134
 21
-38.2537
  0
LINE
  8
0
 10
-140.134
 20
-38.2537
 11
-140.12
 21
-38.5
  0
LINE
  8
0
 10
-140.12
 20
-38.5
 11
-140.134
 21
-38.7463
  0
LINE
  8
0
 10
-140.134
 20
-38.7463
 11
-140.175
 21
-38.9895
  0
LINE
  8
0
 10
-140.175
 20
-38.9895
 11
-140.243
 21
-39.2266
  0
LINE
  8
0
 10
-140.243
 20
-39.2266
 11
-140.338
 21
-39.4545
  0
LINE
  8
0
 10
-140.338
 20
-39.4545
 11
-140.457
 21
-39.6705
  0
LINE
  8
0
 10
-140.457
 20
-39.6705
 11
-140.6
 21
-39.8717
  0
LINE
  8
0
 10
-140.6
 20
-39.8717
 11
-140.764
 21
-40.0556
  0
LINE
  8
0
 10
-140.764
 20
-40.0556
 11
-140.948
 21
-40.22
  0
LINE
  8
0
 10
-140.948
 20
-40.22
 11
-141.15
 21
-40.3628
  0
LINE
  8
0
 10
-141.15
 20
-40.3628
 11
-141.365
 21
-40.4821
  0
LINE
  8
0
 10
-141.365
 20
-40.4821
 11
-141.593
 21
-40.5765
  0
LINE
  8
0
 10
-141.593
 20
-40.5765
 11
-141.83
 21
-40.6448
  0
LINE
  8
0
 10
-141.83
 20
-40.6448
 11
-142.074
 21
-40.6862
  0
LINE
  8
0
 10
-142.074
 20
-40.6862
 11
-142.32
 21
-40.7
  0
LINE
  8
0
 10
-142.32
 20
-40.7
 11
-142.566
 21
-40.6862
  0
LINE
  8
0
 10
-27.5663
 20
-40.6862
 11
-27.8095
 21
-40.6448
  0
LINE
  8
0
 10
-27.8095
 20
-40.6448
 11
-28.0466
 21
-40.5765
  0
LINE
  8
0
 10
-28.0466
 20
-40.5765
 11
-28.2745
 21
-40.4821
  0
LINE
  8
0
 10
-28.2745
 20
-40.4821
 11
-28.4905
 21
-40.3628
  0
LINE
  8
0
 10
-28.4905
 20
-40.3628
 11
-28.6917
 21
-40.22
  0
LINE
  8
0
 10
-28.6917
 20
-40.22
 11
-28.8756
 21
-40.0556
  0
LINE
  8
0
 10
-28.8756
 20
-40.0556
 11
-29.04
 21
-39.8717
  0
LINE
  8
0
 10
-29.04
 20
-39.8717
 11
-29.1828
 21
-39.6705
  0
LINE
  8
0
 10
-29.1828
 20
-39.6705
 11
-29.3021
 21
-39.4545
  0
LINE
  8
0
 10
-29.3021
 20
-39.4545
 11
-29.3965
 21
-39.2266
  0
LINE
  8
0
 10
-29.3965
 20
-39.2266
 11
-29.4648
 21
-38.9895
  0
LINE
  8
0
 10
-29.4648
 20
-38.9895
 11
-29.5062
 21
-38.7463
  0
LINE
  8
0
 10
-29.5062
 20
-38.7463
 11
-29.52
 21
-38.5
  0
LINE
  8
0
 10
-29.52
 20
-38.5
 11
-29.5062
 21
-38.2537
  0
LINE
  8
0
 10
-29.5062
 20
-38.2537
 11
-29.4648
 21
-38.0105
  0
LINE
  8
0
 10
-29.4648
 20
-38.0105
 11
-29.3965
 21
-37.7734
  0
LINE
  8
0
 10
-29.3965
 20
-37.7734
 11
-29.3021
 21
-37.5455
  0
LINE
  8
0
 10
-29.3021
 20
-37.5455
 11
-29.1828
 21
-37.3295
  0
LINE
  8
0
 10
-29.1828
 20
-37.3295
 11
-29.04
 21
-37.1283
  0
LINE
  8
0
 10
-29.04
 20
-37.1283
 11
-28.8756
 21
-36.9444
  0
LINE
  8
0
 10
-28.8756
 20
-36.9444
 11
-28.6917
 21
-36.78
  0
LINE
  8
0
 10
-28.6917
 20
-36.78
 11
-28.4905
 21
-36.6372
  0
LINE
  8
0
 10
-28.4905
 20
-36.6372
 11
-28.2745
 21
-36.5179
  0
LINE
  8
0
 10
-28.2745
 20
-36.5179
 11
-28.0466
 21
-36.4234
  0
LINE
  8
0
 10
-28.0466
 20
-36.4234
 11
-27.8095
 21
-36.3551
  0
LINE
  8
0
 10
-27.8095
 20
-36.3551
 11
-27.5663
 21
-36.3138
  0
LINE
  8
0
 10
-27.5663
 20
-36.3138
 11
-27.32
 21
-36.3
  0
LINE
  8
0
 10
-27.32
 20
-36.3
 11
-27.0737
 21
-36.3138
  0
LINE
  8
0
 10
-27.0737
 20
-36.3138
 11
-26.8304
 21
-36.3551
  0
LINE
  8
0
 10
-26.8304
 20
-36.3551
 11
-26.5934
 21
-36.4234
  0
LINE
  8
0
 10
-26.5934
 20
-36.4234
 11
-26.3654
 21
-36.5179
  0
LINE
  8
0
 10
-26.3654
 20
-36.5179
 11
-26.1495
 21
-36.6372
  0
LINE
  8
0
 10
-26.1495
 20
-36.6372
 11
-25.9483
 21
-36.78
  0
LINE
  8
0
 10
-25.9483
 20
-36.78
 11
-25.7644
 21
-36.9444
  0
LINE
  8
0
 10
-25.7644
 20
-36.9444
 11
-25.6
 21
-37.1283
  0
LINE
  8
0
 10
-25.6
 20
-37.1283
 11
-25.4572
 21
-37.3295
  0
LINE
  8
0
 10
-25.4572
 20
-37.3295
 11
-25.3379
 21
-37.5455
  0
LINE
  8
0
 10
-25.3379
 20
-37.5455
 11
-25.2435
 21
-37.7734
  0
LINE
  8
0
 10
-25.2435
 20
-37.7734
 11
-25.1752
 21
-38.0105
  0
LINE
  8
0
 10
-25.1752
 20
-38.0105
 11
-25.1338
 21
-38.2537
  0
LINE
  8
0
 10
-25.1338
 20
-38.2537
 11
-25.12
 21
-38.5
  0
LINE
  8
0
 10
-25.12
 20
-38.5
 11
-25.1338
 21
-38.7463
  0
LINE
  8
0
 10
-25.1338
 20
-38.7463
 11
-25.1752
 21
-38.9895
  0
LINE
  8
0
 10
-25.1752
 20
-38.9895
 11
-25.2435
 21
-39.2266
  0
LINE
  8
0
 10
-25.2435
 20
-39.2266
 11
-25.3379
 21
-39.4545
  0
LINE
  8
0
 10
-25.3379
 20
-39.4545
 11
-25.4572
 21
-39.6705
  0
LINE
  8
0
 10
-25.4572
 20
-39.6705
 11
-25.6
 21
-39.8717
  0
LINE
  8
0
 10
-25.6
 20
-39.8717
 11
-25.7644
 21
-40.0556
  0
LINE
  8
0
 10
-25.7644
 20
-40.0556
 11
-25.9483
 21
-40.22
  0
LINE
  8
0
 10
-25.9483
 20
-40.22
 11
-26.1495
 21
-40.3628
  0
LINE
  8
0
 10
-26.1495
 20
-40.3628
 11
-26.3654
 21
-40.4821
  0
LINE
  8
0
 10
-26.3654
 20
-40.4821
 11
-26.5934
 21
-40.5765
  0
LINE
  8
0
 10
-26.5934
 20
-40.5765
 11
-26.8304
 21
-40.6448
  0
LINE
  8
0
 10
-26.8304
 20
-40.6448
 11
-27.0737
 21
-40.6862
  0
LINE
  8
0
 10
-27.0737
 20
-40.6862
 11
-27.32
 21
-40.7
  0
LINE
  8
0
 10
-27.32
 20
-40.7
 11
-27.5663
 21
-40.6862
  0
LINE
  8
0
 10
-12.5663
 20
-54.6862
 11
-12.8095
 21
-54.6448
  0
LINE
  8
0
 10
-12.8095
 20
-54.6448
 11
-13.0466
 21
-54.5765
  0
LINE
  8
0
 10
-13.0466
 20
-54.5765
 11
-13.2745
 21
-54.4821
  0
LINE
  8
0
 10
-13.2745
 20
-54.4821
 11
-13.4905
 21
-54.3628
  0
LINE
  8
0
 10
-13.4905
 20
-54.3628
 11
-13.6917
 21
-54.22
  0
LINE
  8
0
 10
-13.6917
 20
-54.22
 11
-13.8756
 21
-54.0556
  0
LINE
  8
0
 10
-13.8756
 20
-54.0556
 11
-14.04
 21
-53.8717
  0
LINE
  8
0
 10
-14.04
 20
-53.8717
 11
-14.1828
 21
-53.6705
  0
LINE
  8
0
 10
-14.1828
 20
-53.6705
 11
-14.3021
 21
-53.4545
  0
LINE
  8
0
 10
-14.3021
 20
-53.4545
 11
-14.3965
 21
-53.2266
  0
LINE
  8
0
 10
-14.3965
 20
-53.2266
 11
-14.4648
 21
-52.9895
  0
LINE
  8
0
 10
-14.4648
 20
-52.9895
 11
-14.5062
 21
-52.7463
  0
LINE
  8
0
 10
-14.5062
 20
-52.7463
 11
-14.52
 21
-52.5
  0
LINE
  8
0
 10
-14.52
 20
-52.5
 11
-14.5062
 21
-52.2537
  0
LINE
  8
0
 10
-14.5062
 20
-52.2537
 11
-14.4648
 21
-52.0105
  0
LINE
  8
0
 10
-14.4648
 20
-52.0105
 11
-14.3965
 21
-51.7734
  0
LINE
  8
0
 10
-14.3965
 20
-51.7734
 11
-14.3021
 21
-51.5455
  0
LINE
  8
0
 10
-14.3021
 20
-51.5455
 11
-14.1828
 21
-51.3295
  0
LINE
  8
0
 10
-14.1828
 20
-51.3295
 11
-14.04
 21
-51.1283
  0
LINE
  8
0
 10
-14.04
 20
-51.1283
 11
-13.8756
 21
-50.9444
  0
LINE
  8
0
 10
-13.8756
 20
-50.9444
 11
-13.6917
 21
-50.78
  0
LINE
  8
0
 10
-13.6917
 20
-50.78
 11
-13.4905
 21
-50.6372
  0
LINE
  8
0
 10
-13.4905
 20
-50.6372
 11
-13.2745
 21
-50.5179
  0
LINE
  8
0
 10
-13.2745
 20
-50.5179
 11
-13.0466
 21
-50.4234
  0
LINE
  8
0
 10
-13.0466
 20
-50.4234
 11
-12.8095
 21
-50.3551
  0
LINE
  8
0
 10
-12.8095
 20
-50.3551
 11
-12.5663
 21
-50.3138
  0
LINE
  8
0
 10
-12.5663
 20
-50.3138
 11
-12.32
 21
-50.3
  0
LINE
  8
0
 10
-12.32
 20
-50.3
 11
-12.0737
 21
-50.3138
  0
LINE
  8
0
 10
-12.0737
 20
-50.3138
 11
-11.8304
 21
-50.3551
  0
LINE
  8
0
 10
-11.8304
 20
-50.3551
 11
-11.5934
 21
-50.4234
  0
LINE
  8
0
 10
-11.5934
 20
-50.4234
 11
-11.3654
 21
-50.5179
  0
LINE
  8
0
 10
-11.3654
 20
-50.5179
 11
-11.1495
 21
-50.6372
  0
LINE
  8
0
 10
-11.1495
 20
-50.6372
 11
-10.9483
 21
-50.78
  0
LINE
  8
0
 10
-10.9483
 20
-50.78
 11
-10.7644
 21
-50.9444
  0
LINE
  8
0
 10
-10.7644
 20
-50.9444
 11
-10.6
 21
-51.1283
  0
LINE
  8
0
 10
-10.6
 20
-51.1283
 11
-10.4572
 21
-51.3295
  0
LINE
  8
0
 10
-10.4572
 20
-51.3295
 11
-10.3379
 21
-51.5455
  0
LINE
  8
0
 10
-10.3379
 20
-51.5455
 11
-10.2435
 21
-51.7734
  0
LINE
  8
0
 10
-10.2435
 20
-51.7734
 11
-10.1752
 21
-52.0105
  0
LINE
  8
0
 10
-10.1752
 20
-52.0105
 11
-10.1338
 21
-52.2537
  0
LINE
  8
0
 10
-10.1338
 20
-52.2537
 11
-10.12
 21
-52.5
  0
LINE
  8
0
 10
-10.12
 20
-52.5
 11
-10.1338
 21
-52.7463
  0
LINE
  8
0
 10
-10.1338
 20
-52.7463
 11
-10.1752
 21
-52.9895
  0
LINE
  8
0
 10
-10.1752
 20
-52.9895
 11
-10.2435
 21
-53.2266
  0
LINE
  8
0
 10
-10.2435
 20
-53.2266
 11
-10.3379
 21
-53.4545
  0
LINE
  8
0
 10
-10.3379
 20
-53.4545
 11
-10.4572
 21
-53.6705
  0
LINE
  8
0
 10
-10.4572
 20
-53.6705
 11
-10.6
 21
-53.8717
  0
LINE
  8
0
 10
-10.6
 20
-53.8717
 11
-10.7644
 21
-54.0556
  0
LINE
  8
0
 10
-10.7644
 20
-54.0556
 11
-10.9483
 21
-54.22
  0
LINE
  8
0
 10
-10.9483
 20
-54.22
 11
-11.1495
 21
-54.3628
  0
LINE
  8
0
 10
-11.1495
 20
-54.3628
 11
-11.3654
 21
-54.4821
  0
LINE
  8
0
 10
-11.3654
 20
-54.4821
 11
-11.5934
 21
-54.5765
  0
LINE
  8
0
 10
-11.5934
 20
-54.5765
 11
-11.8304
 21
-54.6448
  0
LINE
  8
0
 10
-11.8304
 20
-54.6448
 11
-12.0737
 21
-54.6862
  0
LINE
  8
0
 10
-12.0737
 20
-54.6862
 11
-12.32
 21
-54.7
  0
LINE
  8
0
 10
-12.32
 20
-54.7
 11
-12.5663
 21
-54.6862
  0
LINE
  8
0
 10
-142.566
 20
-54.6862
 11
-142.81
 21
-54.6448
  0
LINE
  8
0
 10
-142.81
 20
-54.6448
 11
-143.047
 21
-54.5765
  0
LINE
  8
0
 10
-143.047
 20
-54.5765
 11
-143.275
 21
-54.4821
  0
LINE
  8
0
 10
-143.275
 20
-54.4821
 11
-143.49
 21
-54.3628
  0
LINE
  8
0
 10
-143.49
 20
-54.3628
 11
-143.692
 21
-54.22
  0
LINE
  8
0
 10
-143.692
 20
-54.22
 11
-143.876
 21
-54.0556
  0
LINE
  8
0
 10
-143.876
 20
-54.0556
 11
-144.04
 21
-53.8717
  0
LINE
  8
0
 10
-144.04
 20
-53.8717
 11
-144.183
 21
-53.6705
  0
LINE
  8
0
 10
-144.183
 20
-53.6705
 11
-144.302
 21
-53.4545
  0
LINE
  8
0
 10
-144.302
 20
-53.4545
 11
-144.397
 21
-53.2266
  0
LINE
  8
0
 10
-144.397
 20
-53.2266
 11
-144.465
 21
-52.9895
  0
LINE
  8
0
 10
-144.465
 20
-52.9895
 11
-144.506
 21
-52.7463
  0
LINE
  8
0
 10
-144.506
 20
-52.7463
 11
-144.52
 21
-52.5
  0
LINE
  8
0
 10
-144.52
 20
-52.5
 11
-144.506
 21
-52.2537
  0
LINE
  8
0
 10
-144.506
 20
-52.2537
 11
-144.465
 21
-52.0105
  0
LINE
  8
0
 10
-144.465
 20
-52.0105
 11
-144.397
 21
-51.7734
  0
LINE
  8
0
 10
-144.397
 20
-51.7734
 11
-144.302
 21
-51.5455
  0
LINE
  8
0
 10
-144.302
 20
-51.5455
 11
-144.183
 21
-51.3295
  0
LINE
  8
0
 10
-144.183
 20
-51.3295
 11
-144.04
 21
-51.1283
  0
LINE
  8
0
 10
-144.04
 20
-51.1283
 11
-143.876
 21
-50.9444
  0
LINE
  8
0
 10
-143.876
 20
-50.9444
 11
-143.692
 21
-50.78
  0
LINE
  8
0
 10
-143.692
 20
-50.78
 11
-143.49
 21
-50.6372
  0
LINE
  8
0
 10
-143.49
 20
-50.6372
 11
-143.275
 21
-50.5179
  0
LINE
  8
0
 10
-143.275
 20
-50.5179
 11
-143.047
 21
-50.4234
  0
LINE
  8
0
 10
-143.047
 20
-50.4234
 11
-142.81
 21
-50.3551
  0
LINE
  8
0
 10
-142.81
 20
-50.3551
 11
-142.566
 21
-50.3138
  0
LINE
  8
0
 10
-142.566
 20
-50.3138
 11
-142.32
 21
-50.3
  0
LINE
  8
0
 10
-142.32
 20
-50.3
 11
-142.074
 21
-50.3138
  0
LINE
  8
0
 10
-142.074
 20
-50.3138
 11
-141.83
 21
-50.3551
  0
LINE
  8
0
 10
-141.83
 20
-50.3551
 11
-141.593
 21
-50.4234
  0
LINE
  8
0
 10
-141.593
 20
-50.4234
 11
-141.365
 21
-50.5179
  0
LINE
  8
0
 10
-141.365
 20
-50.5179
 11
-141.15
 21
-50.6372
  0
LINE
  8
0
 10
-141.15
 20
-50.6372
 11
-140.948
 21
-50.78
  0
LINE
  8
0
 10
-140.948
 20
-50.78
 11
-140.764
 21
-50.9444
  0
LINE
  8
0
 10
-140.764
 20
-50.9444
 11
-140.6
 21
-51.1283
  0
LINE
  8
0
 10
-140.6
 20
-51.1283
 11
-140.457
 21
-51.3295
  0
LINE
  8
0
 10
-140.457
 20
-51.3295
 11
-140.338
 21
-51.5455
  0
LINE
  8
0
 10
-140.338
 20
-51.5455
 11
-140.243
 21
-51.7734
  0
LINE
  8
0
 10
-140.243
 20
-51.7734
 11
-140.175
 21
-52.0105
  0
LINE
  8
0
 10
-140.175
 20
-52.0105
 11
-140.134
 21
-52.2537
  0
LINE
  8
0
 10
-140.134
 20
-52.2537
 11
-140.12
 21
-52.5
  0
LINE
  8
0
 10
-140.12
 20
-52.5
 11
-140.134
 21
-52.7463
  0
LINE
  8
0
 10
-140.134
 20
-52.7463
 11
-140.175
 21
-52.9895
  0
LINE
  8
0
 10
-140.175
 20
-52.9895
 11
-140.243
 21
-53.2266
  0
LINE
  8
0
 10
-140.243
 20
-53.2266
 11
-140.338
 21
-53.4545
  0
LINE
  8
0
 10
-140.338
 20
-53.4545
 11
-140.457
 21
-53.6705
  0
LINE
  8
0
 10
-140.457
 20
-53.6705
 11
-140.6
 21
-53.8717
  0
LINE
  8
0
 10
-140.6
 20
-53.8717
 11
-140.764
 21
-54.0556
  0
LINE
  8
0
 10
-140.764
 20
-54.0556
 11
-140.948
 21
-54.22
  0
LINE
  8
0
 10
-140.948
 20
-54.22
 11
-141.15
 21
-54.3628
  0
LINE
  8
0
 10
-141.15
 20
-54.3628
 11
-141.365
 21
-54.4821
  0
LINE
  8
0
 10
-141.365
 20
-54.4821
 11
-141.593
 21
-54.5765
  0
LINE
  8
0
 10
-141.593
 20
-54.5765
 11
-141.83
 21
-54.6448
  0
LINE
  8
0
 10
-141.83
 20
-54.6448
 11
-142.074
 21
-54.6862
  0
LINE
  8
0
 10
-142.074
 20
-54.6862
 11
-142.32
 21
-54.7
  0
LINE
  8
0
 10
-142.32
 20
-54.7
 11
-142.566
 21
-54.6862
  0
LINE
  8
0
 10
99.1864
 20
-66.9836
 11
98.8763
 21
-66.9344
  0
LINE
  8
0
 10
98.8763
 20
-66.9344
 11
98.573
 21
-66.8532
  0
LINE
  8
0
 10
98.573
 20
-66.8532
 11
98.2798
 21
-66.7406
  0
LINE
  8
0
 10
98.2798
 20
-66.7406
 11
98
 21
-66.5981
  0
LINE
  8
0
 10
98
 20
-66.5981
 11
97.7366
 21
-66.427
  0
LINE
  8
0
 10
97.7366
 20
-66.427
 11
97.4926
 21
-66.2294
  0
LINE
  8
0
 10
97.4926
 20
-66.2294
 11
97.2706
 21
-66.0074
  0
LINE
  8
0
 10
97.2706
 20
-66.0074
 11
97.073
 21
-65.7634
  0
LINE
  8
0
 10
97.073
 20
-65.7634
 11
96.9019
 21
-65.5
  0
LINE
  8
0
 10
96.9019
 20
-65.5
 11
96.7594
 21
-65.2202
  0
LINE
  8
0
 10
96.7594
 20
-65.2202
 11
96.6468
 21
-64.927
  0
LINE
  8
0
 10
96.6468
 20
-64.927
 11
96.5656
 21
-64.6237
  0
LINE
  8
0
 10
96.5656
 20
-64.6237
 11
96.5164
 21
-64.3136
  0
LINE
  8
0
 10
96.5164
 20
-64.3136
 11
96.5
 21
-64
  0
LINE
  8
0
 10
96.5
 20
-64
 11
96.5164
 21
-63.6864
  0
LINE
  8
0
 10
96.5164
 20
-63.6864
 11
96.5656
 21
-63.3763
  0
LINE
  8
0
 10
96.5656
 20
-63.3763
 11
96.6468
 21
-63.0729
  0
LINE
  8
0
 10
96.6468
 20
-63.0729
 11
96.7594
 21
-62.7798
  0
LINE
  8
0
 10
96.7594
 20
-62.7798
 11
96.9019
 21
-62.5
  0
LINE
  8
0
 10
96.9019
 20
-62.5
 11
97.073
 21
-62.2366
  0
LINE
  8
0
 10
97.073
 20
-62.2366
 11
97.2706
 21
-61.9926
  0
LINE
  8
0
 10
97.2706
 20
-61.9926
 11
97.4926
 21
-61.7706
  0
LINE
  8
0
 10
97.4926
 20
-61.7706
 11
97.7366
 21
-61.5729
  0
LINE
  8
0
 10
97.7366
 20
-61.5729
 11
98
 21
-61.4019
  0
LINE
  8
0
 10
98
 20
-61.4019
 11
98.2798
 21
-61.2594
  0
LINE
  8
0
 10
98.2798
 20
-61.2594
 11
98.573
 21
-61.1468
  0
LINE
  8
0
 10
98.573
 20
-61.1468
 11
98.8763
 21
-61.0656
  0
LINE
  8
0
 10
98.8763
 20
-61.0656
 11
99.1864
 21
-61.0164
  0
LINE
  8
0
 10
99.1864
 20
-61.0164
 11
99.5
 21
-61
  0
LINE
  8
0
 10
99.5
 20
-61
 11
99.8136
 21
-61.0164
  0
LINE
  8
0
 10
99.8136
 20
-61.0164
 11
100.124
 21
-61.0656
  0
LINE
  8
0
 10
100.124
 20
-61.0656
 11
100.427
 21
-61.1468
  0
LINE
  8
0
 10
100.427
 20
-61.1468
 11
100.72
 21
-61.2594
  0
LINE
  8
0
 10
100.72
 20
-61.2594
 11
101
 21
-61.4019
  0
LINE
  8
0
 10
101
 20
-61.4019
 11
101.263
 21
-61.5729
  0
LINE
  8
0
 10
101.263
 20
-61.5729
 11
101.507
 21
-61.7706
  0
LINE
  8
0
 10
101.507
 20
-61.7706
 11
101.729
 21
-61.9926
  0
LINE
  8
0
 10
101.729
 20
-61.9926
 11
101.927
 21
-62.2366
  0
LINE
  8
0
 10
101.927
 20
-62.2366
 11
102.098
 21
-62.5
  0
LINE
  8
0
 10
102.098
 20
-62.5
 11
102.241
 21
-62.7798
  0
LINE
  8
0
 10
102.241
 20
-62.7798
 11
102.353
 21
-63.0729
  0
LINE
  8
0
 10
102.353
 20
-63.0729
 11
102.434
 21
-63.3763
  0
LINE
  8
0
 10
102.434
 20
-63.3763
 11
102.484
 21
-63.6864
  0
LINE
  8
0
 10
102.484
 20
-63.6864
 11
102.5
 21
-64
  0
LINE
  8
0
 10
102.5
 20
-64
 11
102.484
 21
-64.3136
  0
LINE
  8
0
 10
102.484
 20
-64.3136
 11
102.434
 21
-64.6237
  0
LINE
  8
0
 10
102.434
 20
-64.6237
 11
102.353
 21
-64.927
  0
LINE
  8
0
 10
102.353
 20
-64.927
 11
102.241
 21
-65.2202
  0
LINE
  8
0
 10
102.241
 20
-65.2202
 11
102.098
 21
-65.5
  0
LINE
  8
0
 10
102.098
 20
-65.5
 11
101.927
 21
-65.7634
  0
LINE
  8
0
 10
101.927
 20
-65.7634
 11
101.729
 21
-66.0074
  0
LINE
  8
0
 10
101.729
 20
-66.0074
 11
101.507
 21
-66.2294
  0
LINE
  8
0
 10
101.507
 20
-66.2294
 11
101.263
 21
-66.427
  0
LINE
  8
0
 10
101.263
 20
-66.427
 11
101
 21
-66.5981
  0
LINE
  8
0
 10
101
 20
-66.5981
 11
100.72
 21
-66.7406
  0
LINE
  8
0
 10
100.72
 20
-66.7406
 11
100.427
 21
-66.8532
  0
LINE
  8
0
 10
100.427
 20
-66.8532
 11
100.124
 21
-66.9344
  0
LINE
  8
0
 10
100.124
 20
-66.9344
 11
99.8136
 21
-66.9836
  0
LINE
  8
0
 10
99.8136
 20
-66.9836
 11
99.5
 21
-67
  0
LINE
  8
0
 10
99.5
 20
-67
 11
99.1864
 21
-66.9836
  0
LINE
  8
0
 10
14.1864
 20
-66.9836
 11
13.8763
 21
-66.9344
  0
LINE
  8
0
 10
13.8763
 20
-66.9344
 11
13.5729
 21
-66.8532
  0
LINE
  8
0
 10
13.5729
 20
-66.8532
 11
13.2798
 21
-66.7406
  0
LINE
  8
0
 10
13.2798
 20
-66.7406
 11
13
 21
-66.5981
  0
LINE
  8
0
 10
13
 20
-66.5981
 11
12.7366
 21
-66.427
  0
LINE
  8
0
 10
12.7366
 20
-66.427
 11
12.4926
 21
-66.2294
  0
LINE
  8
0
 10
12.4926
 20
-66.2294
 11
12.2706
 21
-66.0074
  0
LINE
  8
0
 10
12.2706
 20
-66.0074
 11
12.0729
 21
-65.7634
  0
LINE
  8
0
 10
12.0729
 20
-65.7634
 11
11.9019
 21
-65.5
  0
LINE
  8
0
 10
11.9019
 20
-65.5
 11
11.7594
 21
-65.2202
  0
LINE
  8
0
 10
11.7594
 20
-65.2202
 11
11.6468
 21
-64.927
  0
LINE
  8
0
 10
11.6468
 20
-64.927
 11
11.5656
 21
-64.6237
  0
LINE
  8
0
 10
11.5656
 20
-64.6237
 11
11.5164
 21
-64.3136
  0
LINE
  8
0
 10
11.5164
 20
-64.3136
 11
11.5
 21
-64
  0
LINE
  8
0
 10
11.5
 20
-64
 11
11.5164
 21
-63.6864
  0
LINE
  8
0
 10
11.5164
 20
-63.6864
 11
11.5656
 21
-63.3763
  0
LINE
  8
0
 10
11.5656
 20
-63.3763
 11
11.6468
 21
-63.0729
  0
LINE
  8
0
 10
11.6468
 20
-63.0729
 11
11.7594
 21
-62.7798
  0
LINE
  8
0
 10
11.7594
 20
-62.7798
 11
11.9019
 21
-62.5
  0
LINE
  8
0
 10
11.9019
 20
-62.5
 11
12.0729
 21
-62.2366
  0
LINE
  8
0
 10
12.0729
 20
-62.2366
 11
12.2706
 21
-61.9926
  0
LINE
  8
0
 10
12.2706
 20
-61.9926
 11
12.4926
 21
-61.7706
  0
LINE
  8
0
 10
12.4926
 20
-61.7706
 11
12.7366
 21
-61.5729
  0
LINE
  8
0
 10
12.7366
 20
-61.5729
 11
13
 21
-61.4019
  0
LINE
  8
0
 10
13
 20
-61.4019
 11
13.2798
 21
-61.2594
  0
LINE
  8
0
 10
13.2798
 20
-61.2594
 11
13.5729
 21
-61.1468
  0
LINE
  8
0
 10
13.5729
 20
-61.1468
 11
13.8763
 21
-61.0656
  0
LINE
  8
0
 10
13.8763
 20
-61.0656
 11
14.1864
 21
-61.0164
  0
LINE
  8
0
 10
14.1864
 20
-61.0164
 11
14.5
 21
-61
  0
LINE
  8
0
 10
14.5
 20
-61
 11
14.8136
 21
-61.0164
  0
LINE
  8
0
 10
14.8136
 20
-61.0164
 11
15.1237
 21
-61.0656
  0
LINE
  8
0
 10
15.1237
 20
-61.0656
 11
15.427
 21
-61.1468
  0
LINE
  8
0
 10
15.427
 20
-61.1468
 11
15.7202
 21
-61.2594
  0
LINE
  8
0
 10
15.7202
 20
-61.2594
 11
16
 21
-61.4019
  0
LINE
  8
0
 10
16
 20
-61.4019
 11
16.2634
 21
-61.5729
  0
LINE
  8
0
 10
16.2634
 20
-61.5729
 11
16.5074
 21
-61.7706
  0
LINE
  8
0
 10
16.5074
 20
-61.7706
 11
16.7294
 21
-61.9926
  0
LINE
  8
0
 10
16.7294
 20
-61.9926
 11
16.927
 21
-62.2366
  0
LINE
  8
0
 10
16.927
 20
-62.2366
 11
17.0981
 21
-62.5
  0
LINE
  8
0
 10
17.0981
 20
-62.5
 11
17.2406
 21
-62.7798
  0
LINE
  8
0
 10
17.2406
 20
-62.7798
 11
17.3532
 21
-63.0729
  0
LINE
  8
0
 10
17.3532
 20
-63.0729
 11
17.4344
 21
-63.3763
  0
LINE
  8
0
 10
17.4344
 20
-63.3763
 11
17.4836
 21
-63.6864
  0
LINE
  8
0
 10
17.4836
 20
-63.6864
 11
17.5
 21
-64
  0
LINE
  8
0
 10
17.5
 20
-64
 11
17.4836
 21
-64.3136
  0
LINE
  8
0
 10
17.4836
 20
-64.3136
 11
17.4344
 21
-64.6237
  0
LINE
  8
0
 10
17.4344
 20
-64.6237
 11
17.3532
 21
-64.927
  0
LINE
  8
0
 10
17.3532
 20
-64.927
 11
17.2406
 21
-65.2202
  0
LINE
  8
0
 10
17.2406
 20
-65.2202
 11
17.0981
 21
-65.5
  0
LINE
  8
0
 10
17.0981
 20
-65.5
 11
16.927
 21
-65.7634
  0
LINE
  8
0
 10
16.927
 20
-65.7634
 11
16.7294
 21
-66.0074
  0
LINE
  8
0
 10
16.7294
 20
-66.0074
 11
16.5074
 21
-66.2294
  0
LINE
  8
0
 10
16.5074
 20
-66.2294
 11
16.2634
 21
-66.427
  0
LINE
  8
0
 10
16.2634
 20
-66.427
 11
16
 21
-66.5981
  0
LINE
  8
0
 10
16
 20
-66.5981
 11
15.7202
 21
-66.7406
  0
LINE
  8
0
 10
15.7202
 20
-66.7406
 11
15.427
 21
-66.8532
  0
LINE
  8
0
 10
15.427
 20
-66.8532
 11
15.1237
 21
-66.9344
  0
LINE
  8
0
 10
15.1237
 20
-66.9344
 11
14.8136
 21
-66.9836
  0
LINE
  8
0
 10
14.8136
 20
-66.9836
 11
14.5
 21
-67
  0
LINE
  8
0
 10
14.5
 20
-67
 11
14.1864
 21
-66.9836
  0
LINE
  8
0
 10
69.8261
 20
-66.4449
 11
69.5818
 21
-66.4041
  0
LINE
  8
0
 10
69.5818
 20
-66.4041
 11
69.3475
 21
-66.3237
  0
LINE
  8
0
 10
69.3475
 20
-66.3237
 11
69.1296
 21
-66.2057
  0
LINE
  8
0
 10
69.1296
 20
-66.2057
 11
68.9341
 21
-66.0536
  0
LINE
  8
0
 10
68.9341
 20
-66.0536
 11
68.7663
 21
-65.8713
  0
LINE
  8
0
 10
68.7663
 20
-65.8713
 11
68.6308
 21
-65.6639
  0
LINE
  8
0
 10
68.6308
 20
-65.6639
 11
68.5313
 21
-65.437
  0
LINE
  8
0
 10
68.5313
 20
-65.437
 11
68.4705
 21
-65.1969
  0
LINE
  8
0
 10
68.4705
 20
-65.1969
 11
68.45
 21
-64.95
  0
LINE
  8
0
 10
68.45
 20
-64.95
 11
68.4705
 21
-64.7031
  0
LINE
  8
0
 10
68.4705
 20
-64.7031
 11
68.5313
 21
-64.463
  0
LINE
  8
0
 10
68.5313
 20
-64.463
 11
68.6308
 21
-64.2361
  0
LINE
  8
0
 10
68.6308
 20
-64.2361
 11
68.7663
 21
-64.0287
  0
LINE
  8
0
 10
68.7663
 20
-64.0287
 11
68.9341
 21
-63.8464
  0
LINE
  8
0
 10
68.9341
 20
-63.8464
 11
69.1296
 21
-63.6942
  0
LINE
  8
0
 10
69.1296
 20
-63.6942
 11
69.3475
 21
-63.5763
  0
LINE
  8
0
 10
69.3475
 20
-63.5763
 11
69.5818
 21
-63.4959
  0
LINE
  8
0
 10
69.5818
 20
-63.4959
 11
69.8261
 21
-63.4551
  0
LINE
  8
0
 10
69.8261
 20
-63.4551
 11
70.0739
 21
-63.4551
  0
LINE
  8
0
 10
70.0739
 20
-63.4551
 11
70.3182
 21
-63.4959
  0
LINE
  8
0
 10
70.3182
 20
-63.4959
 11
70.5525
 21
-63.5763
  0
LINE
  8
0
 10
70.5525
 20
-63.5763
 11
70.7704
 21
-63.6942
  0
LINE
  8
0
 10
70.7704
 20
-63.6942
 11
70.9659
 21
-63.8464
  0
LINE
  8
0
 10
70.9659
 20
-63.8464
 11
71.1337
 21
-64.0287
  0
LINE
  8
0
 10
71.1337
 20
-64.0287
 11
71.2692
 21
-64.2361
  0
LINE
  8
0
 10
71.2692
 20
-64.2361
 11
71.3687
 21
-64.463
  0
LINE
  8
0
 10
71.3687
 20
-64.463
 11
71.4295
 21
-64.7031
  0
LINE
  8
0
 10
71.4295
 20
-64.7031
 11
71.45
 21
-64.95
  0
LINE
  8
0
 10
71.45
 20
-64.95
 11
71.4295
 21
-65.1969
  0
LINE
  8
0
 10
71.4295
 20
-65.1969
 11
71.3687
 21
-65.437
  0
LINE
  8
0
 10
71.3687
 20
-65.437
 11
71.2692
 21
-65.6639
  0
LINE
  8
0
 10
71.2692
 20
-65.6639
 11
71.1337
 21
-65.8713
  0
LINE
  8
0
 10
71.1337
 20
-65.8713
 11
70.9659
 21
-66.0536
  0
LINE
  8
0
 10
70.9659
 20
-66.0536
 11
70.7704
 21
-66.2057
  0
LINE
  8
0
 10
70.7704
 20
-66.2057
 11
70.5525
 21
-66.3237
  0
LINE
  8
0
 10
70.5525
 20
-66.3237
 11
70.3182
 21
-66.4041
  0
LINE
  8
0
 10
70.3182
 20
-66.4041
 11
70.0739
 21
-66.4449
  0
LINE
  8
0
 10
70.0739
 20
-66.4449
 11
69.8261
 21
-66.4449
  0
LINE
  8
0
 10
-70.0739
 20
-66.4449
 11
-70.3182
 21
-66.4041
  0
LINE
  8
0
 10
-70.3182
 20
-66.4041
 11
-70.5525
 21
-66.3237
  0
LINE
  8
0
 10
-70.5525
 20
-66.3237
 11
-70.7704
 21
-66.2057
  0
LINE
  8
0
 10
-70.7704
 20
-66.2057
 11
-70.9659
 21
-66.0536
  0
LINE
  8
0
 10
-70.9659
 20
-66.0536
 11
-71.1337
 21
-65.8713
  0
LINE
  8
0
 10
-71.1337
 20
-65.8713
 11
-71.2692
 21
-65.6639
  0
LINE
  8
0
 10
-71.2692
 20
-65.6639
 11
-71.3687
 21
-65.437
  0
LINE
  8
0
 10
-71.3687
 20
-65.437
 11
-71.4295
 21
-65.1969
  0
LINE
  8
0
 10
-71.4295
 20
-65.1969
 11
-71.45
 21
-64.95
  0
LINE
  8
0
 10
-71.45
 20
-64.95
 11
-71.4295
 21
-64.7031
  0
LINE
  8
0
 10
-71.4295
 20
-64.7031
 11
-71.3687
 21
-64.463
  0
LINE
  8
0
 10
-71.3687
 20
-64.463
 11
-71.2692
 21
-64.2361
  0
LINE
  8
0
 10
-71.2692
 20
-64.2361
 11
-71.1337
 21
-64.0287
  0
LINE
  8
0
 10
-71.1337
 20
-64.0287
 11
-70.9659
 21
-63.8464
  0
LINE
  8
0
 10
-70.9659
 20
-63.8464
 11
-70.7704
 21
-63.6942
  0
LINE
  8
0
 10
-70.7704
 20
-63.6942
 11
-70.5525
 21
-63.5763
  0
LINE
  8
0
 10
-70.5525
 20
-63.5763
 11
-70.3182
 21
-63.4959
  0
LINE
  8
0
 10
-70.3182
 20
-63.4959
 11
-70.0739
 21
-63.4551
  0
LINE
  8
0
 10
-70.0739
 20
-63.4551
 11
-69.8261
 21
-63.4551
  0
LINE
  8
0
 10
-69.8261
 20
-63.4551
 11
-69.5818
 21
-63.4959
  0
LINE
  8
0
 10
-69.5818
 20
-63.4959
 11
-69.3475
 21
-63.5763
  0
LINE
  8
0
 10
-69.3475
 20
-63.5763
 11
-69.1296
 21
-63.6942
  0
LINE
  8
0
 10
-69.1296
 20
-63.6942
 11
-68.9341
 21
-63.8464
  0
LINE
  8
0
 10
-68.9341
 20
-63.8464
 11
-68.7663
 21
-64.0287
  0
LINE
  8
0
 10
-68.7663
 20
-64.0287
 11
-68.6308
 21
-64.2361
  0
LINE
  8
0
 10
-68.6308
 20
-64.2361
 11
-68.5313
 21
-64.463
  0
LINE
  8
0
 10
-68.5313
 20
-64.463
 11
-68.4705
 21
-64.7031
  0
LINE
  8
0
 10
-68.4705
 20
-64.7031
 11
-68.45
 21
-64.95
  0
LINE
  8
0
 10
-68.45
 20
-64.95
 11
-68.4705
 21
-65.1969
  0
LINE
  8
0
 10
-68.4705
 20
-65.1969
 11
-68.5313
 21
-65.437
  0
LINE
  8
0
 10
-68.5313
 20
-65.437
 11
-68.6308
 21
-65.6639
  0
LINE
  8
0
 10
-68.6308
 20
-65.6639
 11
-68.7663
 21
-65.8713
  0
LINE
  8
0
 10
-68.7663
 20
-65.8713
 11
-68.9341
 21
-66.0536
  0
LINE
  8
0
 10
-68.9341
 20
-66.0536
 11
-69.1296
 21
-66.2057
  0
LINE
  8
0
 10
-69.1296
 20
-66.2057
 11
-69.3475
 21
-66.3237
  0
LINE
  8
0
 10
-69.3475
 20
-66.3237
 11
-69.5818
 21
-66.4041
  0
LINE
  8
0
 10
-69.5818
 20
-66.4041
 11
-69.8261
 21
-66.4449
  0
LINE
  8
0
 10
-69.8261
 20
-66.4449
 11
-70.0739
 21
-66.4449
  0
LINE
  8
0
 10
142.191
 20
-101.672
 11
141.951
 21
-101.609
  0
LINE
  8
0
 10
141.951
 20
-101.609
 11
141.723
 21
-101.512
  0
LINE
  8
0
 10
141.723
 20
-101.512
 11
141.511
 21
-101.383
  0
LINE
  8
0
 10
141.511
 20
-101.383
 11
141.32
 21
-101.224
  0
LINE
  8
0
 10
141.32
 20
-101.224
 11
141.154
 21
-101.039
  0
LINE
  8
0
 10
141.154
 20
-101.039
 11
141.018
 21
-100.832
  0
LINE
  8
0
 10
141.018
 20
-100.832
 11
140.912
 21
-100.607
  0
LINE
  8
0
 10
140.912
 20
-100.607
 11
140.841
 21
-100.37
  0
LINE
  8
0
 10
140.841
 20
-100.37
 11
140.805
 21
-100.124
  0
LINE
  8
0
 10
140.805
 20
-100.124
 11
140.805
 21
-99.8759
  0
LINE
  8
0
 10
140.805
 20
-99.8759
 11
140.841
 21
-99.6304
  0
LINE
  8
0
 10
140.841
 20
-99.6304
 11
140.912
 21
-99.3927
  0
LINE
  8
0
 10
140.912
 20
-99.3927
 11
141.018
 21
-99.168
  0
LINE
  8
0
 10
141.018
 20
-99.168
 11
141.154
 21
-98.961
  0
LINE
  8
0
 10
141.154
 20
-98.961
 11
141.32
 21
-98.7762
  0
LINE
  8
0
 10
141.32
 20
-98.7762
 11
141.511
 21
-98.6174
  0
LINE
  8
0
 10
141.511
 20
-98.6174
 11
141.723
 21
-98.4881
  0
LINE
  8
0
 10
141.723
 20
-98.4881
 11
141.951
 21
-98.3911
  0
LINE
  8
0
 10
141.951
 20
-98.3911
 11
142.191
 21
-98.3283
  0
LINE
  8
0
 10
142.191
 20
-98.3283
 11
142.438
 21
-98.3011
  0
LINE
  8
0
 10
142.438
 20
-98.3011
 11
142.686
 21
-98.3102
  0
LINE
  8
0
 10
142.686
 20
-98.3102
 11
142.93
 21
-98.3553
  0
LINE
  8
0
 10
142.93
 20
-98.3553
 11
143.165
 21
-98.4354
  0
LINE
  8
0
 10
143.165
 20
-98.4354
 11
143.386
 21
-98.5489
  0
LINE
  8
0
 10
143.386
 20
-98.5489
 11
143.587
 21
-98.6933
  0
LINE
  8
0
 10
143.587
 20
-98.6933
 11
143.766
 21
-98.8656
  0
LINE
  8
0
 10
143.766
 20
-98.8656
 11
143.918
 21
-99.062
  0
LINE
  8
0
 10
143.918
 20
-99.062
 11
144.039
 21
-99.2784
  0
LINE
  8
0
 10
144.039
 20
-99.2784
 11
144.128
 21
-99.5102
  0
LINE
  8
0
 10
144.128
 20
-99.5102
 11
144.182
 21
-99.7525
  0
LINE
  8
0
 10
144.182
 20
-99.7525
 11
144.2
 21
-100
  0
LINE
  8
0
 10
144.2
 20
-100
 11
144.182
 21
-100.248
  0
LINE
  8
0
 10
144.182
 20
-100.248
 11
144.128
 21
-100.49
  0
LINE
  8
0
 10
144.128
 20
-100.49
 11
144.039
 21
-100.722
  0
LINE
  8
0
 10
144.039
 20
-100.722
 11
143.918
 21
-100.938
  0
LINE
  8
0
 10
143.918
 20
-100.938
 11
143.766
 21
-101.134
  0
LINE
  8
0
 10
143.766
 20
-101.134
 11
143.587
 21
-101.307
  0
LINE
  8
0
 10
143.587
 20
-101.307
 11
143.386
 21
-101.451
  0
LINE
  8
0
 10
143.386
 20
-101.451
 11
143.165
 21
-101.565
  0
LINE
  8
0
 10
143.165
 20
-101.565
 11
142.93
 21
-101.645
  0
LINE
  8
0
 10
142.93
 20
-101.645
 11
142.686
 21
-101.69
  0
LINE
  8
0
 10
142.686
 20
-101.69
 11
142.438
 21
-101.699
  0
LINE
  8
0
 10
142.438
 20
-101.699
 11
142.191
 21
-101.672
  0
LINE
  8
0
 10
-142.686
 20
-101.69
 11
-142.93
 21
-101.645
  0
LINE
  8
0
 10
-142.93
 20
-101.645
 11
-143.165
 21
-101.565
  0
LINE
  8
0
 10
-143.165
 20
-101.565
 11
-143.386
 21
-101.451
  0
LINE
  8
0
 10
-143.386
 20
-101.451
 11
-143.587
 21
-101.307
  0
LINE
  8
0
 10
-143.587
 20
-101.307
 11
-143.766
 21
-101.134
  0
LINE
  8
0
 10
-143.766
 20
-101.134
 11
-143.918
 21
-100.938
  0
LINE
  8
0
 10
-143.918
 20
-100.938
 11
-144.039
 21
-100.722
  0
LINE
  8
0
 10
-144.039
 20
-100.722
 11
-144.128
 21
-100.49
  0
LINE
  8
0
 10
-144.128
 20
-100.49
 11
-144.182
 21
-100.248
  0
LINE
  8
0
 10
-144.182
 20
-100.248
 11
-144.2
 21
-100
  0
LINE
  8
0
 10
-144.2
 20
-100
 11
-144.182
 21
-99.7525
  0
LINE
  8
0
 10
-144.182
 20
-99.7525
 11
-144.128
 21
-99.5102
  0
LINE
  8
0
 10
-144.128
 20
-99.5102
 11
-144.039
 21
-99.2784
  0
LINE
  8
0
 10
-144.039
 20
-99.2784
 11
-143.918
 21
-99.062
  0
LINE
  8
0
 10
-143.918
 20
-99.062
 11
-143.766
 21
-98.8656
  0
LINE
  8
0
 10
-143.766
 20
-98.8656
 11
-143.587
 21
-98.6933
  0
LINE
  8
0
 10
-143.587
 20
-98.6933
 11
-143.386
 21
-98.5489
  0
LINE
  8
0
 10
-143.386
 20
-98.5489
 11
-143.165
 21
-98.4354
  0
LINE
  8
0
 10
-143.165
 20
-98.4354
 11
-142.93
 21
-98.3553
  0
LINE
  8
0
 10
-142.93
 20
-98.3553
 11
-142.686
 21
-98.3102
  0
LINE
  8
0
 10
-142.686
 20
-98.3102
 11
-142.438
 21
-98.3011
  0
LINE
  8
0
 10
-142.438
 20
-98.3011
 11
-142.191
 21
-98.3283
  0
LINE
  8
0
 10
-142.191
 20
-98.3283
 11
-141.951
 21
-98.3911
  0
LINE
  8
0
 10
-141.951
 20
-98.3911
 11
-141.723
 21
-98.4881
  0
LINE
  8
0
 10
-141.723
 20
-98.4881
 11
-141.511
 21
-98.6174
  0
LINE
  8
0
 10
-141.511
 20
-98.6174
 11
-141.32
 21
-98.7762
  0
LINE
  8
0
 10
-141.32
 20
-98.7762
 11
-141.154
 21
-98.961
  0
LINE
  8
0
 10
-141.154
 20
-98.961
 11
-141.018
 21
-99.168
  0
LINE
  8
0
 10
-141.018
 20
-99.168
 11
-140.912
 21
-99.3927
  0
LINE
  8
0
 10
-140.912
 20
-99.3927
 11
-140.841
 21
-99.6304
  0
LINE
  8
0
 10
-140.841
 20
-99.6304
 11
-140.805
 21
-99.8759
  0
LINE
  8
0
 10
-140.805
 20
-99.8759
 11
-140.805
 21
-100.124
  0
LINE
  8
0
 10
-140.805
 20
-100.124
 11
-140.841
 21
-100.37
  0
LINE
  8
0
 10
-140.841
 20
-100.37
 11
-140.912
 21
-100.607
  0
LINE
  8
0
 10
-140.912
 20
-100.607
 11
-141.018
 21
-100.832
  0
LINE
  8
0
 10
-141.018
 20
-100.832
 11
-141.154
 21
-101.039
  0
LINE
  8
0
 10
-141.154
 20
-101.039
 11
-141.32
 21
-101.224
  0
LINE
  8
0
 10
-141.32
 20
-101.224
 11
-141.511
 21
-101.383
  0
LINE
  8
0
 10
-141.511
 20
-101.383
 11
-141.723
 21
-101.512
  0
LINE
  8
0
 10
-141.723
 20
-101.512
 11
-141.951
 21
-101.609
  0
LINE
  8
0
 10
-141.951
 20
-101.609
 11
-142.191
 21
-101.672
  0
LINE
  8
0
 10
-142.191
 20
-101.672
 11
-142.438
 21
-101.699
  0
LINE
  8
0
 10
-142.438
 20
-101.699
 11
-142.686
 21
-101.69
  0
LINE
  8
0
 10
-27.5663
 20
-132.686
 11
-27.8095
 21
-132.645
  0
LINE
  8
0
 10
-27.8095
 20
-132.645
 11
-28.0466
 21
-132.577
  0
LINE
  8
0
 10
-28.0466
 20
-132.577
 11
-28.2745
 21
-132.482
  0
LINE
  8
0
 10
-28.2745
 20
-132.482
 11
-28.4905
 21
-132.363
  0
LINE
  8
0
 10
-28.4905
 20
-132.363
 11
-28.6917
 21
-132.22
  0
LINE
  8
0
 10
-28.6917
 20
-132.22
 11
-28.8756
 21
-132.056
  0
LINE
  8
0
 10
-28.8756
 20
-132.056
 11
-29.04
 21
-131.872
  0
LINE
  8
0
 10
-29.04
 20
-131.872
 11
-29.1828
 21
-131.67
  0
LINE
  8
0
 10
-29.1828
 20
-131.67
 11
-29.3021
 21
-131.455
  0
LINE
  8
0
 10
-29.3021
 20
-131.455
 11
-29.3965
 21
-131.227
  0
LINE
  8
0
 10
-29.3965
 20
-131.227
 11
-29.4648
 21
-130.99
  0
LINE
  8
0
 10
-29.4648
 20
-130.99
 11
-29.5062
 21
-130.746
  0
LINE
  8
0
 10
-29.5062
 20
-130.746
 11
-29.52
 21
-130.5
  0
LINE
  8
0
 10
-29.52
 20
-130.5
 11
-29.5062
 21
-130.254
  0
LINE
  8
0
 10
-29.5062
 20
-130.254
 11
-29.4648
 21
-130.01
  0
LINE
  8
0
 10
-29.4648
 20
-130.01
 11
-29.3965
 21
-129.773
  0
LINE
  8
0
 10
-29.3965
 20
-129.773
 11
-29.3021
 21
-129.545
  0
LINE
  8
0
 10
-29.3021
 20
-129.545
 11
-29.1828
 21
-129.33
  0
LINE
  8
0
 10
-29.1828
 20
-129.33
 11
-29.04
 21
-129.128
  0
LINE
  8
0
 10
-29.04
 20
-129.128
 11
-28.8756
 21
-128.944
  0
LINE
  8
0
 10
-28.8756
 20
-128.944
 11
-28.6917
 21
-128.78
  0
LINE
  8
0
 10
-28.6917
 20
-128.78
 11
-28.4905
 21
-128.637
  0
LINE
  8
0
 10
-28.4905
 20
-128.637
 11
-28.2745
 21
-128.518
  0
LINE
  8
0
 10
-28.2745
 20
-128.518
 11
-28.0466
 21
-128.423
  0
LINE
  8
0
 10
-28.0466
 20
-128.423
 11
-27.8095
 21
-128.355
  0
LINE
  8
0
 10
-27.8095
 20
-128.355
 11
-27.5663
 21
-128.314
  0
LINE
  8
0
 10
-27.5663
 20
-128.314
 11
-27.32
 21
-128.3
  0
LINE
  8
0
 10
-27.32
 20
-128.3
 11
-27.0737
 21
-128.314
  0
LINE
  8
0
 10
-27.0737
 20
-128.314
 11
-26.8304
 21
-128.355
  0
LINE
  8
0
 10
-26.8304
 20
-128.355
 11
-26.5934
 21
-128.423
  0
LINE
  8
0
 10
-26.5934
 20
-128.423
 11
-26.3654
 21
-128.518
  0
LINE
  8
0
 10
-26.3654
 20
-128.518
 11
-26.1495
 21
-128.637
  0
LINE
  8
0
 10
-26.1495
 20
-128.637
 11
-25.9483
 21
-128.78
  0
LINE
  8
0
 10
-25.9483
 20
-128.78
 11
-25.7644
 21
-128.944
  0
LINE
  8
0
 10
-25.7644
 20
-128.944
 11
-25.6
 21
-129.128
  0
LINE
  8
0
 10
-25.6
 20
-129.128
 11
-25.4572
 21
-129.33
  0
LINE
  8
0
 10
-25.4572
 20
-129.33
 11
-25.3379
 21
-129.545
  0
LINE
  8
0
 10
-25.3379
 20
-129.545
 11
-25.2435
 21
-129.773
  0
LINE
  8
0
 10
-25.2435
 20
-129.773
 11
-25.1752
 21
-130.01
  0
LINE
  8
0
 10
-25.1752
 20
-130.01
 11
-25.1338
 21
-130.254
  0
LINE
  8
0
 10
-25.1338
 20
-130.254
 11
-25.12
 21
-130.5
  0
LINE
  8
0
 10
-25.12
 20
-130.5
 11
-25.1338
 21
-130.746
  0
LINE
  8
0
 10
-25.1338
 20
-130.746
 11
-25.1752
 21
-130.99
  0
LINE
  8
0
 10
-25.1752
 20
-130.99
 11
-25.2435
 21
-131.227
  0
LINE
  8
0
 10
-25.2435
 20
-131.227
 11
-25.3379
 21
-131.455
  0
LINE
  8
0
 10
-25.3379
 20
-131.455
 11
-25.4572
 21
-131.67
  0
LINE
  8
0
 10
-25.4572
 20
-131.67
 11
-25.6
 21
-131.872
  0
LINE
  8
0
 10
-25.6
 20
-131.872
 11
-25.7644
 21
-132.056
  0
LINE
  8
0
 10
-25.7644
 20
-132.056
 11
-25.9483
 21
-132.22
  0
LINE
  8
0
 10
-25.9483
 20
-132.22
 11
-26.1495
 21
-132.363
  0
LINE
  8
0
 10
-26.1495
 20
-132.363
 11
-26.3654
 21
-132.482
  0
LINE
  8
0
 10
-26.3654
 20
-132.482
 11
-26.5934
 21
-132.577
  0
LINE
  8
0
 10
-26.5934
 20
-132.577
 11
-26.8304
 21
-132.645
  0
LINE
  8
0
 10
-26.8304
 20
-132.645
 11
-27.0737
 21
-132.686
  0
LINE
  8
0
 10
-27.0737
 20
-132.686
 11
-27.32
 21
-132.7
  0
LINE
  8
0
 10
-27.32
 20
-132.7
 11
-27.5663
 21
-132.686
  0
LINE
  8
0
 10
-142.566
 20
-132.686
 11
-142.81
 21
-132.645
  0
LINE
  8
0
 10
-142.81
 20
-132.645
 11
-143.047
 21
-132.577
  0
LINE
  8
0
 10
-143.047
 20
-132.577
 11
-143.275
 21
-132.482
  0
LINE
  8
0
 10
-143.275
 20
-132.482
 11
-143.49
 21
-132.363
  0
LINE
  8
0
 10
-143.49
 20
-132.363
 11
-143.692
 21
-132.22
  0
LINE
  8
0
 10
-143.692
 20
-132.22
 11
-143.876
 21
-132.056
  0
LINE
  8
0
 10
-143.876
 20
-132.056
 11
-144.04
 21
-131.872
  0
LINE
  8
0
 10
-144.04
 20
-131.872
 11
-144.183
 21
-131.67
  0
LINE
  8
0
 10
-144.183
 20
-131.67
 11
-144.302
 21
-131.455
  0
LINE
  8
0
 10
-144.302
 20
-131.455
 11
-144.397
 21
-131.227
  0
LINE
  8
0
 10
-144.397
 20
-131.227
 11
-144.465
 21
-130.99
  0
LINE
  8
0
 10
-144.465
 20
-130.99
 11
-144.506
 21
-130.746
  0
LINE
  8
0
 10
-144.506
 20
-130.746
 11
-144.52
 21
-130.5
  0
LINE
  8
0
 10
-144.52
 20
-130.5
 11
-144.506
 21
-130.254
  0
LINE
  8
0
 10
-144.506
 20
-130.254
 11
-144.465
 21
-130.01
  0
LINE
  8
0
 10
-144.465
 20
-130.01
 11
-144.397
 21
-129.773
  0
LINE
  8
0
 10
-144.397
 20
-129.773
 11
-144.302
 21
-129.545
  0
LINE
  8
0
 10
-144.302
 20
-129.545
 11
-144.183
 21
-129.33
  0
LINE
  8
0
 10
-144.183
 20
-129.33
 11
-144.04
 21
-129.128
  0
LINE
  8
0
 10
-144.04
 20
-129.128
 11
-143.876
 21
-128.944
  0
LINE
  8
0
 10
-143.876
 20
-128.944
 11
-143.692
 21
-128.78
  0
LINE
  8
0
 10
-143.692
 20
-128.78
 11
-143.49
 21
-128.637
  0
LINE
  8
0
 10
-143.49
 20
-128.637
 11
-143.275
 21
-128.518
  0
LINE
  8
0
 10
-143.275
 20
-128.518
 11
-143.047
 21
-128.423
  0
LINE
  8
0
 10
-143.047
 20
-128.423
 11
-142.81
 21
-128.355
  0
LINE
  8
0
 10
-142.81
 20
-128.355
 11
-142.566
 21
-128.314
  0
LINE
  8
0
 10
-142.566
 20
-128.314
 11
-142.32
 21
-128.3
  0
LINE
  8
0
 10
-142.32
 20
-128.3
 11
-142.074
 21
-128.314
  0
LINE
  8
0
 10
-142.074
 20
-128.314
 11
-141.83
 21
-128.355
  0
LINE
  8
0
 10
-141.83
 20
-128.355
 11
-141.593
 21
-128.423
  0
LINE
  8
0
 10
-141.593
 20
-128.423
 11
-141.365
 21
-128.518
  0
LINE
  8
0
 10
-141.365
 20
-128.518
 11
-141.15
 21
-128.637
  0
LINE
  8
0
 10
-141.15
 20
-128.637
 11
-140.948
 21
-128.78
  0
LINE
  8
0
 10
-140.948
 20
-128.78
 11
-140.764
 21
-128.944
  0
LINE
  8
0
 10
-140.764
 20
-128.944
 11
-140.6
 21
-129.128
  0
LINE
  8
0
 10
-140.6
 20
-129.128
 11
-140.457
 21
-129.33
  0
LINE
  8
0
 10
-140.457
 20
-129.33
 11
-140.338
 21
-129.545
  0
LINE
  8
0
 10
-140.338
 20
-129.545
 11
-140.243
 21
-129.773
  0
LINE
  8
0
 10
-140.243
 20
-129.773
 11
-140.175
 21
-130.01
  0
LINE
  8
0
 10
-140.175
 20
-130.01
 11
-140.134
 21
-130.254
  0
LINE
  8
0
 10
-140.134
 20
-130.254
 11
-140.12
 21
-130.5
  0
LINE
  8
0
 10
-140.12
 20
-130.5
 11
-140.134
 21
-130.746
  0
LINE
  8
0
 10
-140.134
 20
-130.746
 11
-140.175
 21
-130.99
  0
LINE
  8
0
 10
-140.175
 20
-130.99
 11
-140.243
 21
-131.227
  0
LINE
  8
0
 10
-140.243
 20
-131.227
 11
-140.338
 21
-131.455
  0
LINE
  8
0
 10
-140.338
 20
-131.455
 11
-140.457
 21
-131.67
  0
LINE
  8
0
 10
-140.457
 20
-131.67
 11
-140.6
 21
-131.872
  0
LINE
  8
0
 10
-140.6
 20
-131.872
 11
-140.764
 21
-132.056
  0
LINE
  8
0
 10
-140.764
 20
-132.056
 11
-140.948
 21
-132.22
  0
LINE
  8
0
 10
-140.948
 20
-132.22
 11
-141.15
 21
-132.363
  0
LINE
  8
0
 10
-141.15
 20
-132.363
 11
-141.365
 21
-132.482
  0
LINE
  8
0
 10
-141.365
 20
-132.482
 11
-141.593
 21
-132.577
  0
LINE
  8
0
 10
-141.593
 20
-132.577
 11
-141.83
 21
-132.645
  0
LINE
  8
0
 10
-141.83
 20
-132.645
 11
-142.074
 21
-132.686
  0
LINE
  8
0
 10
-142.074
 20
-132.686
 11
-142.32
 21
-132.7
  0
LINE
  8
0
 10
-142.32
 20
-132.7
 11
-142.566
 21
-132.686
  0
LINE
  8
0
 10
-142.892
 20
-146.229
 11
-143.28
 21
-146.168
  0
LINE
  8
0
 10
-143.28
 20
-146.168
 11
-143.659
 21
-146.066
  0
LINE
  8
0
 10
-143.659
 20
-146.066
 11
-144.025
 21
-145.926
  0
LINE
  8
0
 10
-144.025
 20
-145.926
 11
-144.375
 21
-145.748
  0
LINE
  8
0
 10
-144.375
 20
-145.748
 11
-144.704
 21
-145.534
  0
LINE
  8
0
 10
-144.704
 20
-145.534
 11
-145.009
 21
-145.287
  0
LINE
  8
0
 10
-145.009
 20
-145.287
 11
-145.287
 21
-145.009
  0
LINE
  8
0
 10
-145.287
 20
-145.009
 11
-145.534
 21
-144.704
  0
LINE
  8
0
 10
-145.534
 20
-144.704
 11
-145.748
 21
-144.375
  0
LINE
  8
0
 10
-145.748
 20
-144.375
 11
-145.926
 21
-144.025
  0
LINE
  8
0
 10
-145.926
 20
-144.025
 11
-146.066
 21
-143.659
  0
LINE
  8
0
 10
-146.066
 20
-143.659
 11
-146.168
 21
-143.28
  0
LINE
  8
0
 10
-146.168
 20
-143.28
 11
-146.229
 21
-142.892
  0
LINE
  8
0
 10
-146.229
 20
-142.892
 11
-146.25
 21
-142.5
  0
LINE
  8
0
 10
-146.25
 20
-142.5
 11
-146.229
 21
-142.108
  0
LINE
  8
0
 10
-146.229
 20
-142.108
 11
-146.168
 21
-141.72
  0
LINE
  8
0
 10
-146.168
 20
-141.72
 11
-146.066
 21
-141.341
  0
LINE
  8
0
 10
-146.066
 20
-141.341
 11
-145.926
 21
-140.975
  0
LINE
  8
0
 10
-145.926
 20
-140.975
 11
-145.748
 21
-140.625
  0
LINE
  8
0
 10
-145.748
 20
-140.625
 11
-145.534
 21
-140.296
  0
LINE
  8
0
 10
-145.534
 20
-140.296
 11
-145.287
 21
-139.991
  0
LINE
  8
0
 10
-145.287
 20
-139.991
 11
-145.009
 21
-139.713
  0
LINE
  8
0
 10
-145.009
 20
-139.713
 11
-144.704
 21
-139.466
  0
LINE
  8
0
 10
-144.704
 20
-139.466
 11
-144.375
 21
-139.252
  0
LINE
  8
0
 10
-144.375
 20
-139.252
 11
-144.025
 21
-139.074
  0
LINE
  8
0
 10
-144.025
 20
-139.074
 11
-143.659
 21
-138.934
  0
LINE
  8
0
 10
-143.659
 20
-138.934
 11
-143.28
 21
-138.832
  0
LINE
  8
0
 10
-143.28
 20
-138.832
 11
-142.892
 21
-138.771
  0
LINE
  8
0
 10
-142.892
 20
-138.771
 11
-142.5
 21
-138.75
  0
LINE
  8
0
 10
-142.5
 20
-138.75
 11
-142.108
 21
-138.771
  0
LINE
  8
0
 10
-142.108
 20
-138.771
 11
-141.72
 21
-138.832
  0
LINE
  8
0
 10
-141.72
 20
-138.832
 11
-141.341
 21
-138.934
  0
LINE
  8
0
 10
-141.341
 20
-138.934
 11
-140.975
 21
-139.074
  0
LINE
  8
0
 10
-140.975
 20
-139.074
 11
-140.625
 21
-139.252
  0
LINE
  8
0
 10
-140.625
 20
-139.252
 11
-140.296
 21
-139.466
  0
LINE
  8
0
 10
-140.296
 20
-139.466
 11
-139.991
 21
-139.713
  0
LINE
  8
0
 10
-139.991
 20
-139.713
 11
-139.713
 21
-139.991
  0
LINE
  8
0
 10
-139.713
 20
-139.991
 11
-139.466
 21
-140.296
  0
LINE
  8
0
 10
-139.466
 20
-140.296
 11
-139.252
 21
-140.625
  0
LINE
  8
0
 10
-139.252
 20
-140.625
 11
-139.074
 21
-140.975
  0
LINE
  8
0
 10
-139.074
 20
-140.975
 11
-138.934
 21
-141.341
  0
LINE
  8
0
 10
-138.934
 20
-141.341
 11
-138.832
 21
-141.72
  0
LINE
  8
0
 10
-138.832
 20
-141.72
 11
-138.771
 21
-142.108
  0
LINE
  8
0
 10
-138.771
 20
-142.108
 11
-138.75
 21
-142.5
  0
LINE
  8
0
 10
-138.75
 20
-142.5
 11
-138.771
 21
-142.892
  0
LINE
  8
0
 10
-138.771
 20
-142.892
 11
-138.832
 21
-143.28
  0
LINE
  8
0
 10
-138.832
 20
-143.28
 11
-138.934
 21
-143.659
  0
LINE
  8
0
 10
-138.934
 20
-143.659
 11
-139.074
 21
-144.025
  0
LINE
  8
0
 10
-139.074
 20
-144.025
 11
-139.252
 21
-144.375
  0
LINE
  8
0
 10
-139.252
 20
-144.375
 11
-139.466
 21
-144.704
  0
LINE
  8
0
 10
-139.466
 20
-144.704
 11
-139.713
 21
-145.009
  0
LINE
  8
0
 10
-139.713
 20
-145.009
 11
-139.991
 21
-145.287
  0
LINE
  8
0
 10
-139.991
 20
-145.287
 11
-140.296
 21
-145.534
  0
LINE
  8
0
 10
-140.296
 20
-145.534
 11
-140.625
 21
-145.748
  0
LINE
  8
0
 10
-140.625
 20
-145.748
 11
-140.975
 21
-145.926
  0
LINE
  8
0
 10
-140.975
 20
-145.926
 11
-141.341
 21
-146.066
  0
LINE
  8
0
 10
-141.341
 20
-146.066
 11
-141.72
 21
-146.168
  0
LINE
  8
0
 10
-141.72
 20
-146.168
 11
-142.108
 21
-146.229
  0
LINE
  8
0
 10
-142.108
 20
-146.229
 11
-142.5
 21
-146.25
  0
LINE
  8
0
 10
-142.5
 20
-146.25
 11
-142.892
 21
-146.229
  0
LINE
  8
0
 10
142.108
 20
-146.229
 11
141.72
 21
-146.168
  0
LINE
  8
0
 10
141.72
 20
-146.168
 11
141.341
 21
-146.066
  0
LINE
  8
0
 10
141.341
 20
-146.066
 11
140.975
 21
-145.926
  0
LINE
  8
0
 10
140.975
 20
-145.926
 11
140.625
 21
-145.748
  0
LINE
  8
0
 10
140.625
 20
-145.748
 11
140.296
 21
-145.534
  0
LINE
  8
0
 10
140.296
 20
-145.534
 11
139.991
 21
-145.287
  0
LINE
  8
0
 10
139.991
 20
-145.287
 11
139.713
 21
-145.009
  0
LINE
  8
0
 10
139.713
 20
-145.009
 11
139.466
 21
-144.704
  0
LINE
  8
0
 10
139.466
 20
-144.704
 11
139.252
 21
-144.375
  0
LINE
  8
0
 10
139.252
 20
-144.375
 11
139.074
 21
-144.025
  0
LINE
  8
0
 10
139.074
 20
-144.025
 11
138.934
 21
-143.659
  0
LINE
  8
0
 10
138.934
 20
-143.659
 11
138.832
 21
-143.28
  0
LINE
  8
0
 10
138.832
 20
-143.28
 11
138.771
 21
-142.892
  0
LINE
  8
0
 10
138.771
 20
-142.892
 11
138.75
 21
-142.5
  0
LINE
  8
0
 10
138.75
 20
-142.5
 11
138.771
 21
-142.108
  0
LINE
  8
0
 10
138.771
 20
-142.108
 11
138.832
 21
-141.72
  0
LINE
  8
0
 10
138.832
 20
-141.72
 11
138.934
 21
-141.341
  0
LINE
  8
0
 10
138.934
 20
-141.341
 11
139.074
 21
-140.975
  0
LINE
  8
0
 10
139.074
 20
-140.975
 11
139.252
 21
-140.625
  0
LINE
  8
0
 10
139.252
 20
-140.625
 11
139.466
 21
-140.296
  0
LINE
  8
0
 10
139.466
 20
-140.296
 11
139.713
 21
-139.991
  0
LINE
  8
0
 10
139.713
 20
-139.991
 11
139.991
 21
-139.713
  0
LINE
  8
0
 10
139.991
 20
-139.713
 11
140.296
 21
-139.466
  0
LINE
  8
0
 10
140.296
 20
-139.466
 11
140.625
 21
-139.252
  0
LINE
  8
0
 10
140.625
 20
-139.252
 11
140.975
 21
-139.074
  0
LINE
  8
0
 10
140.975
 20
-139.074
 11
141.341
 21
-138.934
  0
LINE
  8
0
 10
141.341
 20
-138.934
 11
141.72
 21
-138.832
  0
LINE
  8
0
 10
141.72
 20
-138.832
 11
142.108
 21
-138.771
  0
LINE
  8
0
 10
142.108
 20
-138.771
 11
142.5
 21
-138.75
  0
LINE
  8
0
 10
142.5
 20
-138.75
 11
142.892
 21
-138.771
  0
LINE
  8
0
 10
142.892
 20
-138.771
 11
143.28
 21
-138.832
  0
LINE
  8
0
 10
143.28
 20
-138.832
 11
143.659
 21
-138.934
  0
LINE
  8
0
 10
143.659
 20
-138.934
 11
144.025
 21
-139.074
  0
LINE
  8
0
 10
144.025
 20
-139.074
 11
144.375
 21
-139.252
  0
LINE
  8
0
 10
144.375
 20
-139.252
 11
144.704
 21
-139.466
  0
LINE
  8
0
 10
144.704
 20
-139.466
 11
145.009
 21
-139.713
  0
LINE
  8
0
 10
145.009
 20
-139.713
 11
145.287
 21
-139.991
  0
LINE
  8
0
 10
145.287
 20
-139.991
 11
145.534
 21
-140.296
  0
LINE
  8
0
 10
145.534
 20
-140.296
 11
145.748
 21
-140.625
  0
LINE
  8
0
 10
145.748
 20
-140.625
 11
145.926
 21
-140.975
  0
LINE
  8
0
 10
145.926
 20
-140.975
 11
146.066
 21
-141.341
  0
LINE
  8
0
 10
146.066
 20
-141.341
 11
146.168
 21
-141.72
  0
LINE
  8
0
 10
146.168
 20
-141.72
 11
146.229
 21
-142.108
  0
LINE
  8
0
 10
146.229
 20
-142.108
 11
146.25
 21
-142.5
  0
LINE
  8
0
 10
146.25
 20
-142.5
 11
146.229
 21
-142.892
  0
LINE
  8
0
 10
146.229
 20
-142.892
 11
146.168
 21
-143.28
  0
LINE
  8
0
 10
146.168
 20
-143.28
 11
146.066
 21
-143.659
  0
LINE
  8
0
 10
146.066
 20
-143.659
 11
145.926
 21
-144.025
  0
LINE
  8
0
 10
145.926
 20
-144.025
 11
145.748
 21
-144.375
  0
LINE
  8
0
 10
145.748
 20
-144.375
 11
145.534
 21
-144.704
  0
LINE
  8
0
 10
145.534
 20
-144.704
 11
145.287
 21
-145.009
  0
LINE
  8
0
 10
145.287
 20
-145.009
 11
145.009
 21
-145.287
  0
LINE
  8
0
 10
145.009
 20
-145.287
 11
144.704
 21
-145.534
  0
LINE
  8
0
 10
144.704
 20
-145.534
 11
144.375
 21
-145.748
  0
LINE
  8
0
 10
144.375
 20
-145.748
 11
144.025
 21
-145.926
  0
LINE
  8
0
 10
144.025
 20
-145.926
 11
143.659
 21
-146.066
  0
LINE
  8
0
 10
143.659
 20
-146.066
 11
143.28
 21
-146.168
  0
LINE
  8
0
 10
143.28
 20
-146.168
 11
142.892
 21
-146.229
  0
LINE
  8
0
 10
142.892
 20
-146.229
 11
142.5
 21
-146.25
  0
LINE
  8
0
 10
142.5
 20
-146.25
 11
142.108
 21
-146.229
  0
LINE
  8
0
 10
99.6912
 20
-144.172
 11
99.4511
 21
-144.109
  0
LINE
  8
0
 10
99.4511
 20
-144.109
 11
99.2227
 21
-144.012
  0
LINE
  8
0
 10
99.2227
 20
-144.012
 11
99.0108
 21
-143.883
  0
LINE
  8
0
 10
99.0108
 20
-143.883
 11
98.8201
 21
-143.724
  0
LINE
  8
0
 10
98.8201
 20
-143.724
 11
98.6544
 21
-143.539
  0
LINE
  8
0
 10
98.6544
 20
-143.539
 11
98.5175
 21
-143.332
  0
LINE
  8
0
 10
98.5175
 20
-143.332
 11
98.4122
 21
-143.107
  0
LINE
  8
0
 10
98.4122
 20
-143.107
 11
98.3407
 21
-142.87
  0
LINE
  8
0
 10
98.3407
 20
-142.87
 11
98.3045
 21
-142.624
  0
LINE
  8
0
 10
98.3045
 20
-142.624
 11
98.3045
 21
-142.376
  0
LINE
  8
0
 10
98.3045
 20
-142.376
 11
98.3407
 21
-142.13
  0
LINE
  8
0
 10
98.3407
 20
-142.13
 11
98.4122
 21
-141.893
  0
LINE
  8
0
 10
98.4122
 20
-141.893
 11
98.5175
 21
-141.668
  0
LINE
  8
0
 10
98.5175
 20
-141.668
 11
98.6544
 21
-141.461
  0
LINE
  8
0
 10
98.6544
 20
-141.461
 11
98.8201
 21
-141.276
  0
LINE
  8
0
 10
98.8201
 20
-141.276
 11
99.0108
 21
-141.117
  0
LINE
  8
0
 10
99.0108
 20
-141.117
 11
99.2227
 21
-140.988
  0
LINE
  8
0
 10
99.2227
 20
-140.988
 11
99.4511
 21
-140.891
  0
LINE
  8
0
 10
99.4511
 20
-140.891
 11
99.6912
 21
-140.828
  0
LINE
  8
0
 10
99.6912
 20
-140.828
 11
99.9379
 21
-140.801
  0
LINE
  8
0
 10
99.9379
 20
-140.801
 11
100.186
 21
-140.81
  0
LINE
  8
0
 10
100.186
 20
-140.81
 11
100.43
 21
-140.855
  0
LINE
  8
0
 10
100.43
 20
-140.855
 11
100.665
 21
-140.935
  0
LINE
  8
0
 10
100.665
 20
-140.935
 11
100.886
 21
-141.049
  0
LINE
  8
0
 10
100.886
 20
-141.049
 11
101.087
 21
-141.193
  0
LINE
  8
0
 10
101.087
 20
-141.193
 11
101.266
 21
-141.366
  0
LINE
  8
0
 10
101.266
 20
-141.366
 11
101.418
 21
-141.562
  0
LINE
  8
0
 10
101.418
 20
-141.562
 11
101.539
 21
-141.778
  0
LINE
  8
0
 10
101.539
 20
-141.778
 11
101.628
 21
-142.01
  0
LINE
  8
0
 10
101.628
 20
-142.01
 11
101.682
 21
-142.252
  0
LINE
  8
0
 10
101.682
 20
-142.252
 11
101.7
 21
-142.5
  0
LINE
  8
0
 10
101.7
 20
-142.5
 11
101.682
 21
-142.748
  0
LINE
  8
0
 10
101.682
 20
-142.748
 11
101.628
 21
-142.99
  0
LINE
  8
0
 10
101.628
 20
-142.99
 11
101.539
 21
-143.222
  0
LINE
  8
0
 10
101.539
 20
-143.222
 11
101.418
 21
-143.438
  0
LINE
  8
0
 10
101.418
 20
-143.438
 11
101.266
 21
-143.634
  0
LINE
  8
0
 10
101.266
 20
-143.634
 11
101.087
 21
-143.807
  0
LINE
  8
0
 10
101.087
 20
-143.807
 11
100.886
 21
-143.951
  0
LINE
  8
0
 10
100.886
 20
-143.951
 11
100.665
 21
-144.065
  0
LINE
  8
0
 10
100.665
 20
-144.065
 11
100.43
 21
-144.145
  0
LINE
  8
0
 10
100.43
 20
-144.145
 11
100.186
 21
-144.19
  0
LINE
  8
0
 10
100.186
 20
-144.19
 11
99.9379
 21
-144.199
  0
LINE
  8
0
 10
99.9379
 20
-144.199
 11
99.6912
 21
-144.172
  0
LINE
  8
0
 10
-0.308777
 20
-144.172
 11
-0.548889
 21
-144.109
  0
LINE
  8
0
 10
-0.548889
 20
-144.109
 11
-0.777298
 21
-144.012
  0
LINE
  8
0
 10
-0.777298
 20
-144.012
 11
-0.989151
 21
-143.883
  0
LINE
  8
0
 10
-0.989151
 20
-143.883
 11
-1.17992
 21
-143.724
  0
LINE
  8
0
 10
-1.17992
 20
-143.724
 11
-1.34554
 21
-143.539
  0
LINE
  8
0
 10
-1.34554
 20
-143.539
 11
-1.48248
 21
-143.332
  0
LINE
  8
0
 10
-1.48248
 20
-143.332
 11
-1.58781
 21
-143.107
  0
LINE
  8
0
 10
-1.58781
 20
-143.107
 11
-1.65932
 21
-142.87
  0
LINE
  8
0
 10
-1.65932
 20
-142.87
 11
-1.69545
 21
-142.624
  0
LINE
  8
0
 10
-1.69545
 20
-142.624
 11
-1.69545
 21
-142.376
  0
LINE
  8
0
 10
-1.69545
 20
-142.376
 11
-1.65932
 21
-142.13
  0
LINE
  8
0
 10
-1.65932
 20
-142.13
 11
-1.58781
 21
-141.893
  0
LINE
  8
0
 10
-1.58781
 20
-141.893
 11
-1.48248
 21
-141.668
  0
LINE
  8
0
 10
-1.48248
 20
-141.668
 11
-1.34554
 21
-141.461
  0
LINE
  8
0
 10
-1.34554
 20
-141.461
 11
-1.17992
 21
-141.276
  0
LINE
  8
0
 10
-1.17992
 20
-141.276
 11
-0.989151
 21
-141.117
  0
LINE
  8
0
 10
-0.989151
 20
-141.117
 11
-0.777298
 21
-140.988
  0
LINE
  8
0
 10
-0.777298
 20
-140.988
 11
-0.548889
 21
-140.891
  0
LINE
  8
0
 10
-0.548889
 20
-140.891
 11
-0.308777
 21
-140.828
  0
LINE
  8
0
 10
-0.308777
 20
-140.828
 11
-0.0620728
 21
-140.801
  0
LINE
  8
0
 10
-0.0620728
 20
-140.801
 11
0.185928
 21
-140.81
  0
LINE
  8
0
 10
0.185928
 20
-140.81
 11
0.429977
 21
-140.855
  0
LINE
  8
0
 10
0.429977
 20
-140.855
 11
0.664871
 21
-140.935
  0
LINE
  8
0
 10
0.664871
 20
-140.935
 11
0.88559
 21
-141.049
  0
LINE
  8
0
 10
0.88559
 20
-141.049
 11
1.08743
 21
-141.193
  0
LINE
  8
0
 10
1.08743
 20
-141.193
 11
1.2661
 21
-141.366
  0
LINE
  8
0
 10
1.2661
 20
-141.366
 11
1.41779
 21
-141.562
  0
LINE
  8
0
 10
1.41779
 20
-141.562
 11
1.53926
 21
-141.778
  0
LINE
  8
0
 10
1.53926
 20
-141.778
 11
1.62791
 21
-142.01
  0
LINE
  8
0
 10
1.62791
 20
-142.01
 11
1.68187
 21
-142.252
  0
LINE
  8
0
 10
1.68187
 20
-142.252
 11
1.7
 21
-142.5
  0
LINE
  8
0
 10
1.7
 20
-142.5
 11
1.68187
 21
-142.748
  0
LINE
  8
0
 10
1.68187
 20
-142.748
 11
1.62791
 21
-142.99
  0
LINE
  8
0
 10
1.62791
 20
-142.99
 11
1.53926
 21
-143.222
  0
LINE
  8
0
 10
1.53926
 20
-143.222
 11
1.41779
 21
-143.438
  0
LINE
  8
0
 10
1.41779
 20
-143.438
 11
1.2661
 21
-143.634
  0
LINE
  8
0
 10
1.2661
 20
-143.634
 11
1.08743
 21
-143.807
  0
LINE
  8
0
 10
1.08743
 20
-143.807
 11
0.88559
 21
-143.951
  0
LINE
  8
0
 10
0.88559
 20
-143.951
 11
0.664871
 21
-144.065
  0
LINE
  8
0
 10
0.664871
 20
-144.065
 11
0.429977
 21
-144.145
  0
LINE
  8
0
 10
0.429977
 20
-144.145
 11
0.185928
 21
-144.19
  0
LINE
  8
0
 10
0.185928
 20
-144.19
 11
-0.0620728
 21
-144.199
  0
LINE
  8
0
 10
-0.0620728
 20
-144.199
 11
-0.308777
 21
-144.172
  0
LINE
  8
0
 10
-100.309
 20
-144.172
 11
-100.549
 21
-144.109
  0
LINE
  8
0
 10
-100.549
 20
-144.109
 11
-100.777
 21
-144.012
  0
LINE
  8
0
 10
-100.777
 20
-144.012
 11
-100.989
 21
-143.883
  0
LINE
  8
0
 10
-100.989
 20
-143.883
 11
-101.18
 21
-143.724
  0
LINE
  8
0
 10
-101.18
 20
-143.724
 11
-101.346
 21
-143.539
  0
LINE
  8
0
 10
-101.346
 20
-143.539
 11
-101.482
 21
-143.332
  0
LINE
  8
0
 10
-101.482
 20
-143.332
 11
-101.588
 21
-143.107
  0
LINE
  8
0
 10
-101.588
 20
-143.107
 11
-101.659
 21
-142.87
  0
LINE
  8
0
 10
-101.659
 20
-142.87
 11
-101.695
 21
-142.624
  0
LINE
  8
0
 10
-101.695
 20
-142.624
 11
-101.695
 21
-142.376
  0
LINE
  8
0
 10
-101.695
 20
-142.376
 11
-101.659
 21
-142.13
  0
LINE
  8
0
 10
-101.659
 20
-142.13
 11
-101.588
 21
-141.893
  0
LINE
  8
0
 10
-101.588
 20
-141.893
 11
-101.482
 21
-141.668
  0
LINE
  8
0
 10
-101.482
 20
-141.668
 11
-101.346
 21
-141.461
  0
LINE
  8
0
 10
-101.346
 20
-141.461
 11
-101.18
 21
-141.276
  0
LINE
  8
0
 10
-101.18
 20
-141.276
 11
-100.989
 21
-141.117
  0
LINE
  8
0
 10
-100.989
 20
-141.117
 11
-100.777
 21
-140.988
  0
LINE
  8
0
 10
-100.777
 20
-140.988
 11
-100.549
 21
-140.891
  0
LINE
  8
0
 10
-100.549
 20
-140.891
 11
-100.309
 21
-140.828
  0
LINE
  8
0
 10
-100.309
 20
-140.828
 11
-100.062
 21
-140.801
  0
LINE
  8
0
 10
-100.062
 20
-140.801
 11
-99.8141
 21
-140.81
  0
LINE
  8
0
 10
-99.8141
 20
-140.81
 11
-99.57
 21
-140.855
  0
LINE
  8
0
 10
-99.57
 20
-140.855
 11
-99.3351
 21
-140.935
  0
LINE
  8
0
 10
-99.3351
 20
-140.935
 11
-99.1144
 21
-141.049
  0
LINE
  8
0
 10
-99.1144
 20
-141.049
 11
-98.9126
 21
-141.193
  0
LINE
  8
0
 10
-98.9126
 20
-141.193
 11
-98.7339
 21
-141.366
  0
LINE
  8
0
 10
-98.7339
 20
-141.366
 11
-98.5822
 21
-141.562
  0
LINE
  8
0
 10
-98.5822
 20
-141.562
 11
-98.4607
 21
-141.778
  0
LINE
  8
0
 10
-98.4607
 20
-141.778
 11
-98.3721
 21
-142.01
  0
LINE
  8
0
 10
-98.3721
 20
-142.01
 11
-98.3181
 21
-142.252
  0
LINE
  8
0
 10
-98.3181
 20
-142.252
 11
-98.3
 21
-142.5
  0
LINE
  8
0
 10
-98.3
 20
-142.5
 11
-98.3181
 21
-142.748
  0
LINE
  8
0
 10
-98.3181
 20
-142.748
 11
-98.3721
 21
-142.99
  0
LINE
  8
0
 10
-98.3721
 20
-142.99
 11
-98.4607
 21
-143.222
  0
LINE
  8
0
 10
-98.4607
 20
-143.222
 11
-98.5822
 21
-143.438
  0
LINE
  8
0
 10
-98.5822
 20
-143.438
 11
-98.7339
 21
-143.634
  0
LINE
  8
0
 10
-98.7339
 20
-143.634
 11
-98.9126
 21
-143.807
  0
LINE
  8
0
 10
-98.9126
 20
-143.807
 11
-99.1144
 21
-143.951
  0
LINE
  8
0
 10
-99.1144
 20
-143.951
 11
-99.3351
 21
-144.065
  0
LINE
  8
0
 10
-99.3351
 20
-144.065
 11
-99.57
 21
-144.145
  0
LINE
  8
0
 10
-99.57
 20
-144.145
 11
-99.8141
 21
-144.19
  0
LINE
  8
0
 10
-99.8141
 20
-144.19
 11
-100.062
 21
-144.199
  0
LINE
  8
0
 10
-100.062
 20
-144.199
 11
-100.309
 21
-144.172
  0
ENDSEC
  0
SECTION
  2
OBJECTS
  0
DICTIONARY
  0
ENDSEC
  0
EOF
