  0
SECTION
  2
BLOCKS
  0
ENDSEC
  0
SECTION
  2
ENTITIES
  0
LINE
  8
0
 10
145.398
 20
-149.848
 11
145.915
 21
-149.766
  0
LINE
  8
0
 10
145.915
 20
-149.766
 11
146.42
 21
-149.63
  0
LINE
  8
0
 10
146.42
 20
-149.63
 11
146.909
 21
-149.443
  0
LINE
  8
0
 10
146.909
 20
-149.443
 11
147.375
 21
-149.205
  0
LINE
  8
0
 10
147.375
 20
-149.205
 11
147.814
 21
-148.92
  0
LINE
  8
0
 10
147.814
 20
-148.92
 11
148.221
 21
-148.591
  0
LINE
  8
0
 10
148.221
 20
-148.591
 11
148.591
 21
-148.221
  0
LINE
  8
0
 10
148.591
 20
-148.221
 11
148.92
 21
-147.814
  0
LINE
  8
0
 10
148.92
 20
-147.814
 11
149.205
 21
-147.375
  0
LINE
  8
0
 10
149.205
 20
-147.375
 11
149.443
 21
-146.909
  0
LINE
  8
0
 10
149.443
 20
-146.909
 11
149.63
 21
-146.42
  0
LINE
  8
0
 10
149.63
 20
-146.42
 11
149.766
 21
-145.915
  0
LINE
  8
0
 10
149.766
 20
-145.915
 11
149.848
 21
-145.398
  0
LINE
  8
0
 10
149.848
 20
-145.398
 11
149.875
 21
-144.875
  0
LINE
  8
0
 10
149.875
 20
-144.875
 11
149.875
 21
144.875
  0
LINE
  8
0
 10
149.875
 20
144.875
 11
149.848
 21
145.398
  0
LINE
  8
0
 10
149.848
 20
145.398
 11
149.766
 21
145.915
  0
LINE
  8
0
 10
149.766
 20
145.915
 11
149.63
 21
146.42
  0
LINE
  8
0
 10
149.63
 20
146.42
 11
149.443
 21
146.909
  0
LINE
  8
0
 10
149.443
 20
146.909
 11
149.205
 21
147.375
  0
LINE
  8
0
 10
149.205
 20
147.375
 11
148.92
 21
147.814
  0
LINE
  8
0
 10
148.92
 20
147.814
 11
148.591
 21
148.221
  0
LINE
  8
0
 10
148.591
 20
148.221
 11
148.221
 21
148.591
  0
LINE
  8
0
 10
148.221
 20
148.591
 11
147.814
 21
148.92
  0
LINE
  8
0
 10
147.814
 20
148.92
 11
147.375
 21
149.205
  0
LINE
  8
0
 10
147.375
 20
149.205
 11
146.909
 21
149.443
  0
LINE
  8
0
 10
146.909
 20
149.443
 11
146.42
 21
149.63
  0
LINE
  8
0
 10
146.42
 20
149.63
 11
145.915
 21
149.766
  0
LINE
  8
0
 10
145.915
 20
149.766
 11
145.398
 21
149.848
  0
LINE
  8
0
 10
145.398
 20
149.848
 11
144.875
 21
149.875
  0
LINE
  8
0
 10
144.875
 20
149.875
 11
-144.875
 21
149.875
  0
LINE
  8
0
 10
-144.875
 20
149.875
 11
-145.398
 21
149.848
  0
LINE
  8
0
 10
-145.398
 20
149.848
 11
-145.915
 21
149.766
  0
LINE
  8
0
 10
-145.915
 20
149.766
 11
-146.42
 21
149.63
  0
LINE
  8
0
 10
-146.42
 20
149.63
 11
-146.909
 21
149.443
  0
LINE
  8
0
 10
-146.909
 20
149.443
 11
-147.375
 21
149.205
  0
LINE
  8
0
 10
-147.375
 20
149.205
 11
-147.814
 21
148.92
  0
LINE
  8
0
 10
-147.814
 20
148.92
 11
-148.221
 21
148.591
  0
LINE
  8
0
 10
-148.221
 20
148.591
 11
-148.591
 21
148.221
  0
LINE
  8
0
 10
-148.591
 20
148.221
 11
-148.92
 21
147.814
  0
LINE
  8
0
 10
-148.92
 20
147.814
 11
-149.205
 21
147.375
  0
LINE
  8
0
 10
-149.205
 20
147.375
 11
-149.443
 21
146.909
  0
LINE
  8
0
 10
-149.443
 20
146.909
 11
-149.63
 21
146.42
  0
LINE
  8
0
 10
-149.63
 20
146.42
 11
-149.766
 21
145.915
  0
LINE
  8
0
 10
-149.766
 20
145.915
 11
-149.848
 21
145.398
  0
LINE
  8
0
 10
-149.848
 20
145.398
 11
-149.875
 21
144.875
  0
LINE
  8
0
 10
-149.875
 20
144.875
 11
-149.875
 21
-144.875
  0
LINE
  8
0
 10
-149.875
 20
-144.875
 11
-149.848
 21
-145.398
  0
LINE
  8
0
 10
-149.848
 20
-145.398
 11
-149.766
 21
-145.915
  0
LINE
  8
0
 10
-149.766
 20
-145.915
 11
-149.63
 21
-146.42
  0
LINE
  8
0
 10
-149.63
 20
-146.42
 11
-149.443
 21
-146.909
  0
LINE
  8
0
 10
-149.443
 20
-146.909
 11
-149.205
 21
-147.375
  0
LINE
  8
0
 10
-149.205
 20
-147.375
 11
-148.92
 21
-147.814
  0
LINE
  8
0
 10
-148.92
 20
-147.814
 11
-148.591
 21
-148.221
  0
LINE
  8
0
 10
-148.591
 20
-148.221
 11
-148.221
 21
-148.591
  0
LINE
  8
0
 10
-148.221
 20
-148.591
 11
-147.814
 21
-148.92
  0
LINE
  8
0
 10
-147.814
 20
-148.92
 11
-147.375
 21
-149.205
  0
LINE
  8
0
 10
-147.375
 20
-149.205
 11
-146.909
 21
-149.443
  0
LINE
  8
0
 10
-146.909
 20
-149.443
 11
-146.42
 21
-149.63
  0
LINE
  8
0
 10
-146.42
 20
-149.63
 11
-145.915
 21
-149.766
  0
LINE
  8
0
 10
-145.915
 20
-149.766
 11
-145.398
 21
-149.848
  0
LINE
  8
0
 10
-145.398
 20
-149.848
 11
-144.875
 21
-149.875
  0
LINE
  8
0
 10
-144.875
 20
-149.875
 11
144.875
 21
-149.875
  0
LINE
  8
0
 10
144.875
 20
-149.875
 11
145.398
 21
-149.848
  0
LINE
  8
0
 10
142.108
 20
138.771
 11
141.72
 21
138.832
  0
LINE
  8
0
 10
141.72
 20
138.832
 11
141.341
 21
138.934
  0
LINE
  8
0
 10
141.341
 20
138.934
 11
140.975
 21
139.074
  0
LINE
  8
0
 10
140.975
 20
139.074
 11
140.625
 21
139.252
  0
LINE
  8
0
 10
140.625
 20
139.252
 11
140.296
 21
139.466
  0
LINE
  8
0
 10
140.296
 20
139.466
 11
139.991
 21
139.713
  0
LINE
  8
0
 10
139.991
 20
139.713
 11
139.713
 21
139.991
  0
LINE
  8
0
 10
139.713
 20
139.991
 11
139.466
 21
140.296
  0
LINE
  8
0
 10
139.466
 20
140.296
 11
139.252
 21
140.625
  0
LINE
  8
0
 10
139.252
 20
140.625
 11
139.074
 21
140.975
  0
LINE
  8
0
 10
139.074
 20
140.975
 11
138.934
 21
141.341
  0
LINE
  8
0
 10
138.934
 20
141.341
 11
138.832
 21
141.72
  0
LINE
  8
0
 10
138.832
 20
141.72
 11
138.771
 21
142.108
  0
LINE
  8
0
 10
138.771
 20
142.108
 11
138.75
 21
142.5
  0
LINE
  8
0
 10
138.75
 20
142.5
 11
138.771
 21
142.892
  0
LINE
  8
0
 10
138.771
 20
142.892
 11
138.832
 21
143.28
  0
LINE
  8
0
 10
138.832
 20
143.28
 11
138.934
 21
143.659
  0
LINE
  8
0
 10
138.934
 20
143.659
 11
139.074
 21
144.025
  0
LINE
  8
0
 10
139.074
 20
144.025
 11
139.252
 21
144.375
  0
LINE
  8
0
 10
139.252
 20
144.375
 11
139.466
 21
144.704
  0
LINE
  8
0
 10
139.466
 20
144.704
 11
139.713
 21
145.009
  0
LINE
  8
0
 10
139.713
 20
145.009
 11
139.991
 21
145.287
  0
LINE
  8
0
 10
139.991
 20
145.287
 11
140.296
 21
145.534
  0
LINE
  8
0
 10
140.296
 20
145.534
 11
140.625
 21
145.748
  0
LINE
  8
0
 10
140.625
 20
145.748
 11
140.975
 21
145.926
  0
LINE
  8
0
 10
140.975
 20
145.926
 11
141.341
 21
146.066
  0
LINE
  8
0
 10
141.341
 20
146.066
 11
141.72
 21
146.168
  0
LINE
  8
0
 10
141.72
 20
146.168
 11
142.108
 21
146.229
  0
LINE
  8
0
 10
142.108
 20
146.229
 11
142.5
 21
146.25
  0
LINE
  8
0
 10
142.5
 20
146.25
 11
142.892
 21
146.229
  0
LINE
  8
0
 10
142.892
 20
146.229
 11
143.28
 21
146.168
  0
LINE
  8
0
 10
143.28
 20
146.168
 11
143.659
 21
146.066
  0
LINE
  8
0
 10
143.659
 20
146.066
 11
144.025
 21
145.926
  0
LINE
  8
0
 10
144.025
 20
145.926
 11
144.375
 21
145.748
  0
LINE
  8
0
 10
144.375
 20
145.748
 11
144.704
 21
145.534
  0
LINE
  8
0
 10
144.704
 20
145.534
 11
145.009
 21
145.287
  0
LINE
  8
0
 10
145.009
 20
145.287
 11
145.287
 21
145.009
  0
LINE
  8
0
 10
145.287
 20
145.009
 11
145.534
 21
144.704
  0
LINE
  8
0
 10
145.534
 20
144.704
 11
145.748
 21
144.375
  0
LINE
  8
0
 10
145.748
 20
144.375
 11
145.926
 21
144.025
  0
LINE
  8
0
 10
145.926
 20
144.025
 11
146.066
 21
143.659
  0
LINE
  8
0
 10
146.066
 20
143.659
 11
146.168
 21
143.28
  0
LINE
  8
0
 10
146.168
 20
143.28
 11
146.229
 21
142.892
  0
LINE
  8
0
 10
146.229
 20
142.892
 11
146.25
 21
142.5
  0
LINE
  8
0
 10
146.25
 20
142.5
 11
146.229
 21
142.108
  0
LINE
  8
0
 10
146.229
 20
142.108
 11
146.168
 21
141.72
  0
LINE
  8
0
 10
146.168
 20
141.72
 11
146.066
 21
141.341
  0
LINE
  8
0
 10
146.066
 20
141.341
 11
145.926
 21
140.975
  0
LINE
  8
0
 10
145.926
 20
140.975
 11
145.748
 21
140.625
  0
LINE
  8
0
 10
145.748
 20
140.625
 11
145.534
 21
140.296
  0
LINE
  8
0
 10
145.534
 20
140.296
 11
145.287
 21
139.991
  0
LINE
  8
0
 10
145.287
 20
139.991
 11
145.009
 21
139.713
  0
LINE
  8
0
 10
145.009
 20
139.713
 11
144.704
 21
139.466
  0
LINE
  8
0
 10
144.704
 20
139.466
 11
144.375
 21
139.252
  0
LINE
  8
0
 10
144.375
 20
139.252
 11
144.025
 21
139.074
  0
LINE
  8
0
 10
144.025
 20
139.074
 11
143.659
 21
138.934
  0
LINE
  8
0
 10
143.659
 20
138.934
 11
143.28
 21
138.832
  0
LINE
  8
0
 10
143.28
 20
138.832
 11
142.892
 21
138.771
  0
LINE
  8
0
 10
142.892
 20
138.771
 11
142.5
 21
138.75
  0
LINE
  8
0
 10
142.5
 20
138.75
 11
142.108
 21
138.771
  0
LINE
  8
0
 10
-142.892
 20
138.771
 11
-143.28
 21
138.832
  0
LINE
  8
0
 10
-143.28
 20
138.832
 11
-143.659
 21
138.934
  0
LINE
  8
0
 10
-143.659
 20
138.934
 11
-144.025
 21
139.074
  0
LINE
  8
0
 10
-144.025
 20
139.074
 11
-144.375
 21
139.252
  0
LINE
  8
0
 10
-144.375
 20
139.252
 11
-144.704
 21
139.466
  0
LINE
  8
0
 10
-144.704
 20
139.466
 11
-145.009
 21
139.713
  0
LINE
  8
0
 10
-145.009
 20
139.713
 11
-145.287
 21
139.991
  0
LINE
  8
0
 10
-145.287
 20
139.991
 11
-145.534
 21
140.296
  0
LINE
  8
0
 10
-145.534
 20
140.296
 11
-145.748
 21
140.625
  0
LINE
  8
0
 10
-145.748
 20
140.625
 11
-145.926
 21
140.975
  0
LINE
  8
0
 10
-145.926
 20
140.975
 11
-146.066
 21
141.341
  0
LINE
  8
0
 10
-146.066
 20
141.341
 11
-146.168
 21
141.72
  0
LINE
  8
0
 10
-146.168
 20
141.72
 11
-146.229
 21
142.108
  0
LINE
  8
0
 10
-146.229
 20
142.108
 11
-146.25
 21
142.5
  0
LINE
  8
0
 10
-146.25
 20
142.5
 11
-146.229
 21
142.892
  0
LINE
  8
0
 10
-146.229
 20
142.892
 11
-146.168
 21
143.28
  0
LINE
  8
0
 10
-146.168
 20
143.28
 11
-146.066
 21
143.659
  0
LINE
  8
0
 10
-146.066
 20
143.659
 11
-145.926
 21
144.025
  0
LINE
  8
0
 10
-145.926
 20
144.025
 11
-145.748
 21
144.375
  0
LINE
  8
0
 10
-145.748
 20
144.375
 11
-145.534
 21
144.704
  0
LINE
  8
0
 10
-145.534
 20
144.704
 11
-145.287
 21
145.009
  0
LINE
  8
0
 10
-145.287
 20
145.009
 11
-145.009
 21
145.287
  0
LINE
  8
0
 10
-145.009
 20
145.287
 11
-144.704
 21
145.534
  0
LINE
  8
0
 10
-144.704
 20
145.534
 11
-144.375
 21
145.748
  0
LINE
  8
0
 10
-144.375
 20
145.748
 11
-144.025
 21
145.926
  0
LINE
  8
0
 10
-144.025
 20
145.926
 11
-143.659
 21
146.066
  0
LINE
  8
0
 10
-143.659
 20
146.066
 11
-143.28
 21
146.168
  0
LINE
  8
0
 10
-143.28
 20
146.168
 11
-142.892
 21
146.229
  0
LINE
  8
0
 10
-142.892
 20
146.229
 11
-142.5
 21
146.25
  0
LINE
  8
0
 10
-142.5
 20
146.25
 11
-142.108
 21
146.229
  0
LINE
  8
0
 10
-142.108
 20
146.229
 11
-141.72
 21
146.168
  0
LINE
  8
0
 10
-141.72
 20
146.168
 11
-141.341
 21
146.066
  0
LINE
  8
0
 10
-141.341
 20
146.066
 11
-140.975
 21
145.926
  0
LINE
  8
0
 10
-140.975
 20
145.926
 11
-140.625
 21
145.748
  0
LINE
  8
0
 10
-140.625
 20
145.748
 11
-140.296
 21
145.534
  0
LINE
  8
0
 10
-140.296
 20
145.534
 11
-139.991
 21
145.287
  0
LINE
  8
0
 10
-139.991
 20
145.287
 11
-139.713
 21
145.009
  0
LINE
  8
0
 10
-139.713
 20
145.009
 11
-139.466
 21
144.704
  0
LINE
  8
0
 10
-139.466
 20
144.704
 11
-139.252
 21
144.375
  0
LINE
  8
0
 10
-139.252
 20
144.375
 11
-139.074
 21
144.025
  0
LINE
  8
0
 10
-139.074
 20
144.025
 11
-138.934
 21
143.659
  0
LINE
  8
0
 10
-138.934
 20
143.659
 11
-138.832
 21
143.28
  0
LINE
  8
0
 10
-138.832
 20
143.28
 11
-138.771
 21
142.892
  0
LINE
  8
0
 10
-138.771
 20
142.892
 11
-138.75
 21
142.5
  0
LINE
  8
0
 10
-138.75
 20
142.5
 11
-138.771
 21
142.108
  0
LINE
  8
0
 10
-138.771
 20
142.108
 11
-138.832
 21
141.72
  0
LINE
  8
0
 10
-138.832
 20
141.72
 11
-138.934
 21
141.341
  0
LINE
  8
0
 10
-138.934
 20
141.341
 11
-139.074
 21
140.975
  0
LINE
  8
0
 10
-139.074
 20
140.975
 11
-139.252
 21
140.625
  0
LINE
  8
0
 10
-139.252
 20
140.625
 11
-139.466
 21
140.296
  0
LINE
  8
0
 10
-139.466
 20
140.296
 11
-139.713
 21
139.991
  0
LINE
  8
0
 10
-139.713
 20
139.991
 11
-139.991
 21
139.713
  0
LINE
  8
0
 10
-139.991
 20
139.713
 11
-140.296
 21
139.466
  0
LINE
  8
0
 10
-140.296
 20
139.466
 11
-140.625
 21
139.252
  0
LINE
  8
0
 10
-140.625
 20
139.252
 11
-140.975
 21
139.074
  0
LINE
  8
0
 10
-140.975
 20
139.074
 11
-141.341
 21
138.934
  0
LINE
  8
0
 10
-141.341
 20
138.934
 11
-141.72
 21
138.832
  0
LINE
  8
0
 10
-141.72
 20
138.832
 11
-142.108
 21
138.771
  0
LINE
  8
0
 10
-142.108
 20
138.771
 11
-142.5
 21
138.75
  0
LINE
  8
0
 10
-142.5
 20
138.75
 11
-142.892
 21
138.771
  0
LINE
  8
0
 10
99.6912
 20
140.828
 11
99.4511
 21
140.891
  0
LINE
  8
0
 10
99.4511
 20
140.891
 11
99.2227
 21
140.988
  0
LINE
  8
0
 10
99.2227
 20
140.988
 11
99.0108
 21
141.117
  0
LINE
  8
0
 10
99.0108
 20
141.117
 11
98.8201
 21
141.276
  0
LINE
  8
0
 10
98.8201
 20
141.276
 11
98.6544
 21
141.461
  0
LINE
  8
0
 10
98.6544
 20
141.461
 11
98.5175
 21
141.668
  0
LINE
  8
0
 10
98.5175
 20
141.668
 11
98.4122
 21
141.893
  0
LINE
  8
0
 10
98.4122
 20
141.893
 11
98.3407
 21
142.13
  0
LINE
  8
0
 10
98.3407
 20
142.13
 11
98.3045
 21
142.376
  0
LINE
  8
0
 10
98.3045
 20
142.376
 11
98.3045
 21
142.624
  0
LINE
  8
0
 10
98.3045
 20
142.624
 11
98.3407
 21
142.87
  0
LINE
  8
0
 10
98.3407
 20
142.87
 11
98.4122
 21
143.107
  0
LINE
  8
0
 10
98.4122
 20
143.107
 11
98.5175
 21
143.332
  0
LINE
  8
0
 10
98.5175
 20
143.332
 11
98.6544
 21
143.539
  0
LINE
  8
0
 10
98.6544
 20
143.539
 11
98.8201
 21
143.724
  0
LINE
  8
0
 10
98.8201
 20
143.724
 11
99.0108
 21
143.883
  0
LINE
  8
0
 10
99.0108
 20
143.883
 11
99.2227
 21
144.012
  0
LINE
  8
0
 10
99.2227
 20
144.012
 11
99.4511
 21
144.109
  0
LINE
  8
0
 10
99.4511
 20
144.109
 11
99.6912
 21
144.172
  0
LINE
  8
0
 10
99.6912
 20
144.172
 11
99.9379
 21
144.199
  0
LINE
  8
0
 10
99.9379
 20
144.199
 11
100.186
 21
144.19
  0
LINE
  8
0
 10
100.186
 20
144.19
 11
100.43
 21
144.145
  0
LINE
  8
0
 10
100.43
 20
144.145
 11
100.665
 21
144.065
  0
LINE
  8
0
 10
100.665
 20
144.065
 11
100.886
 21
143.951
  0
LINE
  8
0
 10
100.886
 20
143.951
 11
101.087
 21
143.807
  0
LINE
  8
0
 10
101.087
 20
143.807
 11
101.266
 21
143.634
  0
LINE
  8
0
 10
101.266
 20
143.634
 11
101.418
 21
143.438
  0
LINE
  8
0
 10
101.418
 20
143.438
 11
101.539
 21
143.222
  0
LINE
  8
0
 10
101.539
 20
143.222
 11
101.628
 21
142.99
  0
LINE
  8
0
 10
101.628
 20
142.99
 11
101.682
 21
142.748
  0
LINE
  8
0
 10
101.682
 20
142.748
 11
101.7
 21
142.5
  0
LINE
  8
0
 10
101.7
 20
142.5
 11
101.682
 21
142.252
  0
LINE
  8
0
 10
101.682
 20
142.252
 11
101.628
 21
142.01
  0
LINE
  8
0
 10
101.628
 20
142.01
 11
101.539
 21
141.778
  0
LINE
  8
0
 10
101.539
 20
141.778
 11
101.418
 21
141.562
  0
LINE
  8
0
 10
101.418
 20
141.562
 11
101.266
 21
141.366
  0
LINE
  8
0
 10
101.266
 20
141.366
 11
101.087
 21
141.193
  0
LINE
  8
0
 10
101.087
 20
141.193
 11
100.886
 21
141.049
  0
LINE
  8
0
 10
100.886
 20
141.049
 11
100.665
 21
140.935
  0
LINE
  8
0
 10
100.665
 20
140.935
 11
100.43
 21
140.855
  0
LINE
  8
0
 10
100.43
 20
140.855
 11
100.186
 21
140.81
  0
LINE
  8
0
 10
100.186
 20
140.81
 11
99.9379
 21
140.801
  0
LINE
  8
0
 10
99.9379
 20
140.801
 11
99.6912
 21
140.828
  0
LINE
  8
0
 10
-100.309
 20
140.828
 11
-100.549
 21
140.891
  0
LINE
  8
0
 10
-100.549
 20
140.891
 11
-100.777
 21
140.988
  0
LINE
  8
0
 10
-100.777
 20
140.988
 11
-100.989
 21
141.117
  0
LINE
  8
0
 10
-100.989
 20
141.117
 11
-101.18
 21
141.276
  0
LINE
  8
0
 10
-101.18
 20
141.276
 11
-101.346
 21
141.461
  0
LINE
  8
0
 10
-101.346
 20
141.461
 11
-101.482
 21
141.668
  0
LINE
  8
0
 10
-101.482
 20
141.668
 11
-101.588
 21
141.893
  0
LINE
  8
0
 10
-101.588
 20
141.893
 11
-101.659
 21
142.13
  0
LINE
  8
0
 10
-101.659
 20
142.13
 11
-101.695
 21
142.376
  0
LINE
  8
0
 10
-101.695
 20
142.376
 11
-101.695
 21
142.624
  0
LINE
  8
0
 10
-101.695
 20
142.624
 11
-101.659
 21
142.87
  0
LINE
  8
0
 10
-101.659
 20
142.87
 11
-101.588
 21
143.107
  0
LINE
  8
0
 10
-101.588
 20
143.107
 11
-101.482
 21
143.332
  0
LINE
  8
0
 10
-101.482
 20
143.332
 11
-101.346
 21
143.539
  0
LINE
  8
0
 10
-101.346
 20
143.539
 11
-101.18
 21
143.724
  0
LINE
  8
0
 10
-101.18
 20
143.724
 11
-100.989
 21
143.883
  0
LINE
  8
0
 10
-100.989
 20
143.883
 11
-100.777
 21
144.012
  0
LINE
  8
0
 10
-100.777
 20
144.012
 11
-100.549
 21
144.109
  0
LINE
  8
0
 10
-100.549
 20
144.109
 11
-100.309
 21
144.172
  0
LINE
  8
0
 10
-100.309
 20
144.172
 11
-100.062
 21
144.199
  0
LINE
  8
0
 10
-100.062
 20
144.199
 11
-99.8141
 21
144.19
  0
LINE
  8
0
 10
-99.8141
 20
144.19
 11
-99.57
 21
144.145
  0
LINE
  8
0
 10
-99.57
 20
144.145
 11
-99.3351
 21
144.065
  0
LINE
  8
0
 10
-99.3351
 20
144.065
 11
-99.1144
 21
143.951
  0
LINE
  8
0
 10
-99.1144
 20
143.951
 11
-98.9126
 21
143.807
  0
LINE
  8
0
 10
-98.9126
 20
143.807
 11
-98.7339
 21
143.634
  0
LINE
  8
0
 10
-98.7339
 20
143.634
 11
-98.5822
 21
143.438
  0
LINE
  8
0
 10
-98.5822
 20
143.438
 11
-98.4607
 21
143.222
  0
LINE
  8
0
 10
-98.4607
 20
143.222
 11
-98.3721
 21
142.99
  0
LINE
  8
0
 10
-98.3721
 20
142.99
 11
-98.3181
 21
142.748
  0
LINE
  8
0
 10
-98.3181
 20
142.748
 11
-98.3
 21
142.5
  0
LINE
  8
0
 10
-98.3
 20
142.5
 11
-98.3181
 21
142.252
  0
LINE
  8
0
 10
-98.3181
 20
142.252
 11
-98.3721
 21
142.01
  0
LINE
  8
0
 10
-98.3721
 20
142.01
 11
-98.4607
 21
141.778
  0
LINE
  8
0
 10
-98.4607
 20
141.778
 11
-98.5822
 21
141.562
  0
LINE
  8
0
 10
-98.5822
 20
141.562
 11
-98.7339
 21
141.366
  0
LINE
  8
0
 10
-98.7339
 20
141.366
 11
-98.9126
 21
141.193
  0
LINE
  8
0
 10
-98.9126
 20
141.193
 11
-99.1144
 21
141.049
  0
LINE
  8
0
 10
-99.1144
 20
141.049
 11
-99.3351
 21
140.935
  0
LINE
  8
0
 10
-99.3351
 20
140.935
 11
-99.57
 21
140.855
  0
LINE
  8
0
 10
-99.57
 20
140.855
 11
-99.8141
 21
140.81
  0
LINE
  8
0
 10
-99.8141
 20
140.81
 11
-100.062
 21
140.801
  0
LINE
  8
0
 10
-100.062
 20
140.801
 11
-100.309
 21
140.828
  0
LINE
  8
0
 10
-0.308777
 20
140.828
 11
-0.548889
 21
140.891
  0
LINE
  8
0
 10
-0.548889
 20
140.891
 11
-0.777298
 21
140.988
  0
LINE
  8
0
 10
-0.777298
 20
140.988
 11
-0.989151
 21
141.117
  0
LINE
  8
0
 10
-0.989151
 20
141.117
 11
-1.17992
 21
141.276
  0
LINE
  8
0
 10
-1.17992
 20
141.276
 11
-1.34554
 21
141.461
  0
LINE
  8
0
 10
-1.34554
 20
141.461
 11
-1.48248
 21
141.668
  0
LINE
  8
0
 10
-1.48248
 20
141.668
 11
-1.58781
 21
141.893
  0
LINE
  8
0
 10
-1.58781
 20
141.893
 11
-1.65932
 21
142.13
  0
LINE
  8
0
 10
-1.65932
 20
142.13
 11
-1.69545
 21
142.376
  0
LINE
  8
0
 10
-1.69545
 20
142.376
 11
-1.69545
 21
142.624
  0
LINE
  8
0
 10
-1.69545
 20
142.624
 11
-1.65932
 21
142.87
  0
LINE
  8
0
 10
-1.65932
 20
142.87
 11
-1.58781
 21
143.107
  0
LINE
  8
0
 10
-1.58781
 20
143.107
 11
-1.48248
 21
143.332
  0
LINE
  8
0
 10
-1.48248
 20
143.332
 11
-1.34554
 21
143.539
  0
LINE
  8
0
 10
-1.34554
 20
143.539
 11
-1.17992
 21
143.724
  0
LINE
  8
0
 10
-1.17992
 20
143.724
 11
-0.989151
 21
143.883
  0
LINE
  8
0
 10
-0.989151
 20
143.883
 11
-0.777298
 21
144.012
  0
LINE
  8
0
 10
-0.777298
 20
144.012
 11
-0.548889
 21
144.109
  0
LINE
  8
0
 10
-0.548889
 20
144.109
 11
-0.308777
 21
144.172
  0
LINE
  8
0
 10
-0.308777
 20
144.172
 11
-0.0620728
 21
144.199
  0
LINE
  8
0
 10
-0.0620728
 20
144.199
 11
0.185928
 21
144.19
  0
LINE
  8
0
 10
0.185928
 20
144.19
 11
0.429977
 21
144.145
  0
LINE
  8
0
 10
0.429977
 20
144.145
 11
0.664871
 21
144.065
  0
LINE
  8
0
 10
0.664871
 20
144.065
 11
0.88559
 21
143.951
  0
LINE
  8
0
 10
0.88559
 20
143.951
 11
1.08743
 21
143.807
  0
LINE
  8
0
 10
1.08743
 20
143.807
 11
1.2661
 21
143.634
  0
LINE
  8
0
 10
1.2661
 20
143.634
 11
1.41779
 21
143.438
  0
LINE
  8
0
 10
1.41779
 20
143.438
 11
1.53926
 21
143.222
  0
LINE
  8
0
 10
1.53926
 20
143.222
 11
1.62791
 21
142.99
  0
LINE
  8
0
 10
1.62791
 20
142.99
 11
1.68187
 21
142.748
  0
LINE
  8
0
 10
1.68187
 20
142.748
 11
1.7
 21
142.5
  0
LINE
  8
0
 10
1.7
 20
142.5
 11
1.68187
 21
142.252
  0
LINE
  8
0
 10
1.68187
 20
142.252
 11
1.62791
 21
142.01
  0
LINE
  8
0
 10
1.62791
 20
142.01
 11
1.53926
 21
141.778
  0
LINE
  8
0
 10
1.53926
 20
141.778
 11
1.41779
 21
141.562
  0
LINE
  8
0
 10
1.41779
 20
141.562
 11
1.2661
 21
141.366
  0
LINE
  8
0
 10
1.2661
 20
141.366
 11
1.08743
 21
141.193
  0
LINE
  8
0
 10
1.08743
 20
141.193
 11
0.88559
 21
141.049
  0
LINE
  8
0
 10
0.88559
 20
141.049
 11
0.664871
 21
140.935
  0
LINE
  8
0
 10
0.664871
 20
140.935
 11
0.429977
 21
140.855
  0
LINE
  8
0
 10
0.429977
 20
140.855
 11
0.185928
 21
140.81
  0
LINE
  8
0
 10
0.185928
 20
140.81
 11
-0.0620728
 21
140.801
  0
LINE
  8
0
 10
-0.0620728
 20
140.801
 11
-0.308777
 21
140.828
  0
LINE
  8
0
 10
-87.6859
 20
98.3102
 11
-87.93
 21
98.3553
  0
LINE
  8
0
 10
-87.93
 20
98.3553
 11
-88.1649
 21
98.4354
  0
LINE
  8
0
 10
-88.1649
 20
98.4354
 11
-88.3856
 21
98.5489
  0
LINE
  8
0
 10
-88.3856
 20
98.5489
 11
-88.5874
 21
98.6933
  0
LINE
  8
0
 10
-88.5874
 20
98.6933
 11
-88.7661
 21
98.8656
  0
LINE
  8
0
 10
-88.7661
 20
98.8656
 11
-88.9178
 21
99.062
  0
LINE
  8
0
 10
-88.9178
 20
99.062
 11
-89.0393
 21
99.2784
  0
LINE
  8
0
 10
-89.0393
 20
99.2784
 11
-89.1279
 21
99.5102
  0
LINE
  8
0
 10
-89.1279
 20
99.5102
 11
-89.1819
 21
99.7525
  0
LINE
  8
0
 10
-89.1819
 20
99.7525
 11
-89.2
 21
100
  0
LINE
  8
0
 10
-89.2
 20
100
 11
-89.1819
 21
100.248
  0
LINE
  8
0
 10
-89.1819
 20
100.248
 11
-89.1279
 21
100.49
  0
LINE
  8
0
 10
-89.1279
 20
100.49
 11
-89.0393
 21
100.722
  0
LINE
  8
0
 10
-89.0393
 20
100.722
 11
-88.9178
 21
100.938
  0
LINE
  8
0
 10
-88.9178
 20
100.938
 11
-88.7661
 21
101.134
  0
LINE
  8
0
 10
-88.7661
 20
101.134
 11
-88.5874
 21
101.307
  0
LINE
  8
0
 10
-88.5874
 20
101.307
 11
-88.3856
 21
101.451
  0
LINE
  8
0
 10
-88.3856
 20
101.451
 11
-88.1649
 21
101.565
  0
LINE
  8
0
 10
-88.1649
 20
101.565
 11
-87.93
 21
101.645
  0
LINE
  8
0
 10
-87.93
 20
101.645
 11
-87.6859
 21
101.69
  0
LINE
  8
0
 10
-87.6859
 20
101.69
 11
-87.4379
 21
101.699
  0
LINE
  8
0
 10
-87.4379
 20
101.699
 11
-87.1912
 21
101.672
  0
LINE
  8
0
 10
-87.1912
 20
101.672
 11
-86.9511
 21
101.609
  0
LINE
  8
0
 10
-86.9511
 20
101.609
 11
-86.7227
 21
101.512
  0
LINE
  8
0
 10
-86.7227
 20
101.512
 11
-86.5108
 21
101.383
  0
LINE
  8
0
 10
-86.5108
 20
101.383
 11
-86.3201
 21
101.224
  0
LINE
  8
0
 10
-86.3201
 20
101.224
 11
-86.1544
 21
101.039
  0
LINE
  8
0
 10
-86.1544
 20
101.039
 11
-86.0175
 21
100.832
  0
LINE
  8
0
 10
-86.0175
 20
100.832
 11
-85.9122
 21
100.607
  0
LINE
  8
0
 10
-85.9122
 20
100.607
 11
-85.8407
 21
100.37
  0
LINE
  8
0
 10
-85.8407
 20
100.37
 11
-85.8045
 21
100.124
  0
LINE
  8
0
 10
-85.8045
 20
100.124
 11
-85.8045
 21
99.8759
  0
LINE
  8
0
 10
-85.8045
 20
99.8759
 11
-85.8407
 21
99.6304
  0
LINE
  8
0
 10
-85.8407
 20
99.6304
 11
-85.9122
 21
99.3927
  0
LINE
  8
0
 10
-85.9122
 20
99.3927
 11
-86.0175
 21
99.168
  0
LINE
  8
0
 10
-86.0175
 20
99.168
 11
-86.1544
 21
98.961
  0
LINE
  8
0
 10
-86.1544
 20
98.961
 11
-86.3201
 21
98.7762
  0
LINE
  8
0
 10
-86.3201
 20
98.7762
 11
-86.5108
 21
98.6174
  0
LINE
  8
0
 10
-86.5108
 20
98.6174
 11
-86.7227
 21
98.4881
  0
LINE
  8
0
 10
-86.7227
 20
98.4881
 11
-86.9511
 21
98.3911
  0
LINE
  8
0
 10
-86.9511
 20
98.3911
 11
-87.1912
 21
98.3283
  0
LINE
  8
0
 10
-87.1912
 20
98.3283
 11
-87.4379
 21
98.3011
  0
LINE
  8
0
 10
-87.4379
 20
98.3011
 11
-87.6859
 21
98.3102
  0
LINE
  8
0
 10
-142.686
 20
98.3102
 11
-142.93
 21
98.3553
  0
LINE
  8
0
 10
-142.93
 20
98.3553
 11
-143.165
 21
98.4354
  0
LINE
  8
0
 10
-143.165
 20
98.4354
 11
-143.386
 21
98.5489
  0
LINE
  8
0
 10
-143.386
 20
98.5489
 11
-143.587
 21
98.6933
  0
LINE
  8
0
 10
-143.587
 20
98.6933
 11
-143.766
 21
98.8656
  0
LINE
  8
0
 10
-143.766
 20
98.8656
 11
-143.918
 21
99.062
  0
LINE
  8
0
 10
-143.918
 20
99.062
 11
-144.039
 21
99.2784
  0
LINE
  8
0
 10
-144.039
 20
99.2784
 11
-144.128
 21
99.5102
  0
LINE
  8
0
 10
-144.128
 20
99.5102
 11
-144.182
 21
99.7525
  0
LINE
  8
0
 10
-144.182
 20
99.7525
 11
-144.2
 21
100
  0
LINE
  8
0
 10
-144.2
 20
100
 11
-144.182
 21
100.248
  0
LINE
  8
0
 10
-144.182
 20
100.248
 11
-144.128
 21
100.49
  0
LINE
  8
0
 10
-144.128
 20
100.49
 11
-144.039
 21
100.722
  0
LINE
  8
0
 10
-144.039
 20
100.722
 11
-143.918
 21
100.938
  0
LINE
  8
0
 10
-143.918
 20
100.938
 11
-143.766
 21
101.134
  0
LINE
  8
0
 10
-143.766
 20
101.134
 11
-143.587
 21
101.307
  0
LINE
  8
0
 10
-143.587
 20
101.307
 11
-143.386
 21
101.451
  0
LINE
  8
0
 10
-143.386
 20
101.451
 11
-143.165
 21
101.565
  0
LINE
  8
0
 10
-143.165
 20
101.565
 11
-142.93
 21
101.645
  0
LINE
  8
0
 10
-142.93
 20
101.645
 11
-142.686
 21
101.69
  0
LINE
  8
0
 10
-142.686
 20
101.69
 11
-142.438
 21
101.699
  0
LINE
  8
0
 10
-142.438
 20
101.699
 11
-142.191
 21
101.672
  0
LINE
  8
0
 10
-142.191
 20
101.672
 11
-141.951
 21
101.609
  0
LINE
  8
0
 10
-141.951
 20
101.609
 11
-141.723
 21
101.512
  0
LINE
  8
0
 10
-141.723
 20
101.512
 11
-141.511
 21
101.383
  0
LINE
  8
0
 10
-141.511
 20
101.383
 11
-141.32
 21
101.224
  0
LINE
  8
0
 10
-141.32
 20
101.224
 11
-141.154
 21
101.039
  0
LINE
  8
0
 10
-141.154
 20
101.039
 11
-141.018
 21
100.832
  0
LINE
  8
0
 10
-141.018
 20
100.832
 11
-140.912
 21
100.607
  0
LINE
  8
0
 10
-140.912
 20
100.607
 11
-140.841
 21
100.37
  0
LINE
  8
0
 10
-140.841
 20
100.37
 11
-140.805
 21
100.124
  0
LINE
  8
0
 10
-140.805
 20
100.124
 11
-140.805
 21
99.8759
  0
LINE
  8
0
 10
-140.805
 20
99.8759
 11
-140.841
 21
99.6304
  0
LINE
  8
0
 10
-140.841
 20
99.6304
 11
-140.912
 21
99.3927
  0
LINE
  8
0
 10
-140.912
 20
99.3927
 11
-141.018
 21
99.168
  0
LINE
  8
0
 10
-141.018
 20
99.168
 11
-141.154
 21
98.961
  0
LINE
  8
0
 10
-141.154
 20
98.961
 11
-141.32
 21
98.7762
  0
LINE
  8
0
 10
-141.32
 20
98.7762
 11
-141.511
 21
98.6174
  0
LINE
  8
0
 10
-141.511
 20
98.6174
 11
-141.723
 21
98.4881
  0
LINE
  8
0
 10
-141.723
 20
98.4881
 11
-141.951
 21
98.3911
  0
LINE
  8
0
 10
-141.951
 20
98.3911
 11
-142.191
 21
98.3283
  0
LINE
  8
0
 10
-142.191
 20
98.3283
 11
-142.438
 21
98.3011
  0
LINE
  8
0
 10
-142.438
 20
98.3011
 11
-142.686
 21
98.3102
  0
LINE
  8
0
 10
87.1912
 20
98.3283
 11
86.9511
 21
98.3911
  0
LINE
  8
0
 10
86.9511
 20
98.3911
 11
86.7227
 21
98.4881
  0
LINE
  8
0
 10
86.7227
 20
98.4881
 11
86.5108
 21
98.6174
  0
LINE
  8
0
 10
86.5108
 20
98.6174
 11
86.3201
 21
98.7762
  0
LINE
  8
0
 10
86.3201
 20
98.7762
 11
86.1544
 21
98.961
  0
LINE
  8
0
 10
86.1544
 20
98.961
 11
86.0175
 21
99.168
  0
LINE
  8
0
 10
86.0175
 20
99.168
 11
85.9122
 21
99.3927
  0
LINE
  8
0
 10
85.9122
 20
99.3927
 11
85.8407
 21
99.6304
  0
LINE
  8
0
 10
85.8407
 20
99.6304
 11
85.8045
 21
99.8759
  0
LINE
  8
0
 10
85.8045
 20
99.8759
 11
85.8045
 21
100.124
  0
LINE
  8
0
 10
85.8045
 20
100.124
 11
85.8407
 21
100.37
  0
LINE
  8
0
 10
85.8407
 20
100.37
 11
85.9122
 21
100.607
  0
LINE
  8
0
 10
85.9122
 20
100.607
 11
86.0175
 21
100.832
  0
LINE
  8
0
 10
86.0175
 20
100.832
 11
86.1544
 21
101.039
  0
LINE
  8
0
 10
86.1544
 20
101.039
 11
86.3201
 21
101.224
  0
LINE
  8
0
 10
86.3201
 20
101.224
 11
86.5108
 21
101.383
  0
LINE
  8
0
 10
86.5108
 20
101.383
 11
86.7227
 21
101.512
  0
LINE
  8
0
 10
86.7227
 20
101.512
 11
86.9511
 21
101.609
  0
LINE
  8
0
 10
86.9511
 20
101.609
 11
87.1912
 21
101.672
  0
LINE
  8
0
 10
87.1912
 20
101.672
 11
87.4379
 21
101.699
  0
LINE
  8
0
 10
87.4379
 20
101.699
 11
87.6859
 21
101.69
  0
LINE
  8
0
 10
87.6859
 20
101.69
 11
87.93
 21
101.645
  0
LINE
  8
0
 10
87.93
 20
101.645
 11
88.1649
 21
101.565
  0
LINE
  8
0
 10
88.1649
 20
101.565
 11
88.3856
 21
101.451
  0
LINE
  8
0
 10
88.3856
 20
101.451
 11
88.5874
 21
101.307
  0
LINE
  8
0
 10
88.5874
 20
101.307
 11
88.7661
 21
101.134
  0
LINE
  8
0
 10
88.7661
 20
101.134
 11
88.9178
 21
100.938
  0
LINE
  8
0
 10
88.9178
 20
100.938
 11
89.0393
 21
100.722
  0
LINE
  8
0
 10
89.0393
 20
100.722
 11
89.1279
 21
100.49
  0
LINE
  8
0
 10
89.1279
 20
100.49
 11
89.1819
 21
100.248
  0
LINE
  8
0
 10
89.1819
 20
100.248
 11
89.2
 21
100
  0
LINE
  8
0
 10
89.2
 20
100
 11
89.1819
 21
99.7525
  0
LINE
  8
0
 10
89.1819
 20
99.7525
 11
89.1279
 21
99.5102
  0
LINE
  8
0
 10
89.1279
 20
99.5102
 11
89.0393
 21
99.2784
  0
LINE
  8
0
 10
89.0393
 20
99.2784
 11
88.9178
 21
99.062
  0
LINE
  8
0
 10
88.9178
 20
99.062
 11
88.7661
 21
98.8656
  0
LINE
  8
0
 10
88.7661
 20
98.8656
 11
88.5874
 21
98.6933
  0
LINE
  8
0
 10
88.5874
 20
98.6933
 11
88.3856
 21
98.5489
  0
LINE
  8
0
 10
88.3856
 20
98.5489
 11
88.1649
 21
98.4354
  0
LINE
  8
0
 10
88.1649
 20
98.4354
 11
87.93
 21
98.3553
  0
LINE
  8
0
 10
87.93
 20
98.3553
 11
87.6859
 21
98.3102
  0
LINE
  8
0
 10
87.6859
 20
98.3102
 11
87.4379
 21
98.3011
  0
LINE
  8
0
 10
87.4379
 20
98.3011
 11
87.1912
 21
98.3283
  0
LINE
  8
0
 10
142.191
 20
98.3283
 11
141.951
 21
98.3911
  0
LINE
  8
0
 10
141.951
 20
98.3911
 11
141.723
 21
98.4881
  0
LINE
  8
0
 10
141.723
 20
98.4881
 11
141.511
 21
98.6174
  0
LINE
  8
0
 10
141.511
 20
98.6174
 11
141.32
 21
98.7762
  0
LINE
  8
0
 10
141.32
 20
98.7762
 11
141.154
 21
98.961
  0
LINE
  8
0
 10
141.154
 20
98.961
 11
141.018
 21
99.168
  0
LINE
  8
0
 10
141.018
 20
99.168
 11
140.912
 21
99.3927
  0
LINE
  8
0
 10
140.912
 20
99.3927
 11
140.841
 21
99.6304
  0
LINE
  8
0
 10
140.841
 20
99.6304
 11
140.805
 21
99.8759
  0
LINE
  8
0
 10
140.805
 20
99.8759
 11
140.805
 21
100.124
  0
LINE
  8
0
 10
140.805
 20
100.124
 11
140.841
 21
100.37
  0
LINE
  8
0
 10
140.841
 20
100.37
 11
140.912
 21
100.607
  0
LINE
  8
0
 10
140.912
 20
100.607
 11
141.018
 21
100.832
  0
LINE
  8
0
 10
141.018
 20
100.832
 11
141.154
 21
101.039
  0
LINE
  8
0
 10
141.154
 20
101.039
 11
141.32
 21
101.224
  0
LINE
  8
0
 10
141.32
 20
101.224
 11
141.511
 21
101.383
  0
LINE
  8
0
 10
141.511
 20
101.383
 11
141.723
 21
101.512
  0
LINE
  8
0
 10
141.723
 20
101.512
 11
141.951
 21
101.609
  0
LINE
  8
0
 10
141.951
 20
101.609
 11
142.191
 21
101.672
  0
LINE
  8
0
 10
142.191
 20
101.672
 11
142.438
 21
101.699
  0
LINE
  8
0
 10
142.438
 20
101.699
 11
142.686
 21
101.69
  0
LINE
  8
0
 10
142.686
 20
101.69
 11
142.93
 21
101.645
  0
LINE
  8
0
 10
142.93
 20
101.645
 11
143.165
 21
101.565
  0
LINE
  8
0
 10
143.165
 20
101.565
 11
143.386
 21
101.451
  0
LINE
  8
0
 10
143.386
 20
101.451
 11
143.587
 21
101.307
  0
LINE
  8
0
 10
143.587
 20
101.307
 11
143.766
 21
101.134
  0
LINE
  8
0
 10
143.766
 20
101.134
 11
143.918
 21
100.938
  0
LINE
  8
0
 10
143.918
 20
100.938
 11
144.039
 21
100.722
  0
LINE
  8
0
 10
144.039
 20
100.722
 11
144.128
 21
100.49
  0
LINE
  8
0
 10
144.128
 20
100.49
 11
144.182
 21
100.248
  0
LINE
  8
0
 10
144.182
 20
100.248
 11
144.2
 21
100
  0
LINE
  8
0
 10
144.2
 20
100
 11
144.182
 21
99.7525
  0
LINE
  8
0
 10
144.182
 20
99.7525
 11
144.128
 21
99.5102
  0
LINE
  8
0
 10
144.128
 20
99.5102
 11
144.039
 21
99.2784
  0
LINE
  8
0
 10
144.039
 20
99.2784
 11
143.918
 21
99.062
  0
LINE
  8
0
 10
143.918
 20
99.062
 11
143.766
 21
98.8656
  0
LINE
  8
0
 10
143.766
 20
98.8656
 11
143.587
 21
98.6933
  0
LINE
  8
0
 10
143.587
 20
98.6933
 11
143.386
 21
98.5489
  0
LINE
  8
0
 10
143.386
 20
98.5489
 11
143.165
 21
98.4354
  0
LINE
  8
0
 10
143.165
 20
98.4354
 11
142.93
 21
98.3553
  0
LINE
  8
0
 10
142.93
 20
98.3553
 11
142.686
 21
98.3102
  0
LINE
  8
0
 10
142.686
 20
98.3102
 11
142.438
 21
98.3011
  0
LINE
  8
0
 10
142.438
 20
98.3011
 11
142.191
 21
98.3283
  0
LINE
  8
0
 10
-130.623
 20
51.3546
 11
-130.867
 21
51.3914
  0
LINE
  8
0
 10
-130.867
 20
51.3914
 11
-131.103
 21
51.4641
  0
LINE
  8
0
 10
-131.103
 20
51.4641
 11
-131.325
 21
51.571
  0
LINE
  8
0
 10
-131.325
 20
51.571
 11
-131.529
 21
51.71
  0
LINE
  8
0
 10
-131.529
 20
51.71
 11
-131.71
 21
51.8777
  0
LINE
  8
0
 10
-131.71
 20
51.8777
 11
-131.863
 21
52.0705
  0
LINE
  8
0
 10
-131.863
 20
52.0705
 11
-131.987
 21
52.2841
  0
LINE
  8
0
 10
-131.987
 20
52.2841
 11
-132.077
 21
52.5136
  0
LINE
  8
0
 10
-132.077
 20
52.5136
 11
-132.132
 21
52.7541
  0
LINE
  8
0
 10
-132.132
 20
52.7541
 11
-132.15
 21
53
  0
LINE
  8
0
 10
-132.15
 20
53
 11
-132.132
 21
53.2459
  0
LINE
  8
0
 10
-132.132
 20
53.2459
 11
-132.077
 21
53.4863
  0
LINE
  8
0
 10
-132.077
 20
53.4863
 11
-131.987
 21
53.7159
  0
LINE
  8
0
 10
-131.987
 20
53.7159
 11
-131.863
 21
53.9295
  0
LINE
  8
0
 10
-131.863
 20
53.9295
 11
-131.71
 21
54.1223
  0
LINE
  8
0
 10
-131.71
 20
54.1223
 11
-131.529
 21
54.29
  0
LINE
  8
0
 10
-131.529
 20
54.29
 11
-131.325
 21
54.4289
  0
LINE
  8
0
 10
-131.325
 20
54.4289
 11
-131.103
 21
54.5359
  0
LINE
  8
0
 10
-131.103
 20
54.5359
 11
-130.867
 21
54.6086
  0
LINE
  8
0
 10
-130.867
 20
54.6086
 11
-130.623
 21
54.6454
  0
LINE
  8
0
 10
-130.623
 20
54.6454
 11
-130.377
 21
54.6454
  0
LINE
  8
0
 10
-130.377
 20
54.6454
 11
-130.133
 21
54.6086
  0
LINE
  8
0
 10
-130.133
 20
54.6086
 11
-129.897
 21
54.5359
  0
LINE
  8
0
 10
-129.897
 20
54.5359
 11
-129.675
 21
54.4289
  0
LINE
  8
0
 10
-129.675
 20
54.4289
 11
-129.471
 21
54.29
  0
LINE
  8
0
 10
-129.471
 20
54.29
 11
-129.29
 21
54.1223
  0
LINE
  8
0
 10
-129.29
 20
54.1223
 11
-129.137
 21
53.9295
  0
LINE
  8
0
 10
-129.137
 20
53.9295
 11
-129.013
 21
53.7159
  0
LINE
  8
0
 10
-129.013
 20
53.7159
 11
-128.923
 21
53.4863
  0
LINE
  8
0
 10
-128.923
 20
53.4863
 11
-128.868
 21
53.2459
  0
LINE
  8
0
 10
-128.868
 20
53.2459
 11
-128.85
 21
53
  0
LINE
  8
0
 10
-128.85
 20
53
 11
-128.868
 21
52.7541
  0
LINE
  8
0
 10
-128.868
 20
52.7541
 11
-128.923
 21
52.5136
  0
LINE
  8
0
 10
-128.923
 20
52.5136
 11
-129.013
 21
52.2841
  0
LINE
  8
0
 10
-129.013
 20
52.2841
 11
-129.137
 21
52.0705
  0
LINE
  8
0
 10
-129.137
 20
52.0705
 11
-129.29
 21
51.8777
  0
LINE
  8
0
 10
-129.29
 20
51.8777
 11
-129.471
 21
51.71
  0
LINE
  8
0
 10
-129.471
 20
51.71
 11
-129.675
 21
51.571
  0
LINE
  8
0
 10
-129.675
 20
51.571
 11
-129.897
 21
51.4641
  0
LINE
  8
0
 10
-129.897
 20
51.4641
 11
-130.133
 21
51.3914
  0
LINE
  8
0
 10
-130.133
 20
51.3914
 11
-130.377
 21
51.3546
  0
LINE
  8
0
 10
-130.377
 20
51.3546
 11
-130.623
 21
51.3546
  0
LINE
  8
0
 10
-99.6233
 20
51.3546
 11
-99.8672
 21
51.3914
  0
LINE
  8
0
 10
-99.8672
 20
51.3914
 11
-100.103
 21
51.4641
  0
LINE
  8
0
 10
-100.103
 20
51.4641
 11
-100.325
 21
51.571
  0
LINE
  8
0
 10
-100.325
 20
51.571
 11
-100.529
 21
51.71
  0
LINE
  8
0
 10
-100.529
 20
51.71
 11
-100.71
 21
51.8777
  0
LINE
  8
0
 10
-100.71
 20
51.8777
 11
-100.863
 21
52.0705
  0
LINE
  8
0
 10
-100.863
 20
52.0705
 11
-100.987
 21
52.2841
  0
LINE
  8
0
 10
-100.987
 20
52.2841
 11
-101.077
 21
52.5136
  0
LINE
  8
0
 10
-101.077
 20
52.5136
 11
-101.132
 21
52.7541
  0
LINE
  8
0
 10
-101.132
 20
52.7541
 11
-101.15
 21
53
  0
LINE
  8
0
 10
-101.15
 20
53
 11
-101.132
 21
53.2459
  0
LINE
  8
0
 10
-101.132
 20
53.2459
 11
-101.077
 21
53.4863
  0
LINE
  8
0
 10
-101.077
 20
53.4863
 11
-100.987
 21
53.7159
  0
LINE
  8
0
 10
-100.987
 20
53.7159
 11
-100.863
 21
53.9295
  0
LINE
  8
0
 10
-100.863
 20
53.9295
 11
-100.71
 21
54.1223
  0
LINE
  8
0
 10
-100.71
 20
54.1223
 11
-100.529
 21
54.29
  0
LINE
  8
0
 10
-100.529
 20
54.29
 11
-100.325
 21
54.4289
  0
LINE
  8
0
 10
-100.325
 20
54.4289
 11
-100.103
 21
54.5359
  0
LINE
  8
0
 10
-100.103
 20
54.5359
 11
-99.8672
 21
54.6086
  0
LINE
  8
0
 10
-99.8672
 20
54.6086
 11
-99.6233
 21
54.6454
  0
LINE
  8
0
 10
-99.6233
 20
54.6454
 11
-99.3767
 21
54.6454
  0
LINE
  8
0
 10
-99.3767
 20
54.6454
 11
-99.1328
 21
54.6086
  0
LINE
  8
0
 10
-99.1328
 20
54.6086
 11
-98.8972
 21
54.5359
  0
LINE
  8
0
 10
-98.8972
 20
54.5359
 11
-98.675
 21
54.4289
  0
LINE
  8
0
 10
-98.675
 20
54.4289
 11
-98.4712
 21
54.29
  0
LINE
  8
0
 10
-98.4712
 20
54.29
 11
-98.2905
 21
54.1223
  0
LINE
  8
0
 10
-98.2905
 20
54.1223
 11
-98.1367
 21
53.9295
  0
LINE
  8
0
 10
-98.1367
 20
53.9295
 11
-98.0134
 21
53.7159
  0
LINE
  8
0
 10
-98.0134
 20
53.7159
 11
-97.9233
 21
53.4863
  0
LINE
  8
0
 10
-97.9233
 20
53.4863
 11
-97.8684
 21
53.2459
  0
LINE
  8
0
 10
-97.8684
 20
53.2459
 11
-97.85
 21
53
  0
LINE
  8
0
 10
-97.85
 20
53
 11
-97.8684
 21
52.7541
  0
LINE
  8
0
 10
-97.8684
 20
52.7541
 11
-97.9233
 21
52.5136
  0
LINE
  8
0
 10
-97.9233
 20
52.5136
 11
-98.0134
 21
52.2841
  0
LINE
  8
0
 10
-98.0134
 20
52.2841
 11
-98.1367
 21
52.0705
  0
LINE
  8
0
 10
-98.1367
 20
52.0705
 11
-98.2905
 21
51.8777
  0
LINE
  8
0
 10
-98.2905
 20
51.8777
 11
-98.4712
 21
51.71
  0
LINE
  8
0
 10
-98.4712
 20
51.71
 11
-98.675
 21
51.571
  0
LINE
  8
0
 10
-98.675
 20
51.571
 11
-98.8972
 21
51.4641
  0
LINE
  8
0
 10
-98.8972
 20
51.4641
 11
-99.1328
 21
51.3914
  0
LINE
  8
0
 10
-99.1328
 20
51.3914
 11
-99.3767
 21
51.3546
  0
LINE
  8
0
 10
-99.3767
 20
51.3546
 11
-99.6233
 21
51.3546
  0
LINE
  8
0
 10
-116.202
 20
26.063
 11
-117.391
 21
26.2513
  0
LINE
  8
0
 10
-117.391
 20
26.2513
 11
-118.554
 21
26.5629
  0
LINE
  8
0
 10
-118.554
 20
26.5629
 11
-119.677
 21
26.9942
  0
LINE
  8
0
 10
-119.677
 20
26.9942
 11
-120.75
 21
27.5407
  0
LINE
  8
0
 10
-120.75
 20
27.5407
 11
-121.76
 21
28.1963
  0
LINE
  8
0
 10
-121.76
 20
28.1963
 11
-122.695
 21
28.9538
  0
LINE
  8
0
 10
-122.695
 20
28.9538
 11
-123.546
 21
29.805
  0
LINE
  8
0
 10
-123.546
 20
29.805
 11
-124.304
 21
30.7405
  0
LINE
  8
0
 10
-124.304
 20
30.7405
 11
-124.959
 21
31.75
  0
LINE
  8
0
 10
-124.959
 20
31.75
 11
-125.506
 21
32.8225
  0
LINE
  8
0
 10
-125.506
 20
32.8225
 11
-125.937
 21
33.9463
  0
LINE
  8
0
 10
-125.937
 20
33.9463
 11
-126.249
 21
35.109
  0
LINE
  8
0
 10
-126.249
 20
35.109
 11
-126.437
 21
36.2979
  0
LINE
  8
0
 10
-126.437
 20
36.2979
 11
-126.5
 21
37.5
  0
LINE
  8
0
 10
-126.5
 20
37.5
 11
-126.437
 21
38.7021
  0
LINE
  8
0
 10
-126.437
 20
38.7021
 11
-126.249
 21
39.891
  0
LINE
  8
0
 10
-126.249
 20
39.891
 11
-125.937
 21
41.0537
  0
LINE
  8
0
 10
-125.937
 20
41.0537
 11
-125.506
 21
42.1775
  0
LINE
  8
0
 10
-125.506
 20
42.1775
 11
-124.959
 21
43.25
  0
LINE
  8
0
 10
-124.959
 20
43.25
 11
-124.304
 21
44.2595
  0
LINE
  8
0
 10
-124.304
 20
44.2595
 11
-123.546
 21
45.195
  0
LINE
  8
0
 10
-123.546
 20
45.195
 11
-122.695
 21
46.0462
  0
LINE
  8
0
 10
-122.695
 20
46.0462
 11
-121.76
 21
46.8037
  0
LINE
  8
0
 10
-121.76
 20
46.8037
 11
-120.75
 21
47.4593
  0
LINE
  8
0
 10
-120.75
 20
47.4593
 11
-119.677
 21
48.0058
  0
LINE
  8
0
 10
-119.677
 20
48.0058
 11
-118.554
 21
48.4371
  0
LINE
  8
0
 10
-118.554
 20
48.4371
 11
-117.391
 21
48.7487
  0
LINE
  8
0
 10
-117.391
 20
48.7487
 11
-116.202
 21
48.937
  0
LINE
  8
0
 10
-116.202
 20
48.937
 11
-115
 21
49
  0
LINE
  8
0
 10
-115
 20
49
 11
-113.798
 21
48.937
  0
LINE
  8
0
 10
-113.798
 20
48.937
 11
-112.609
 21
48.7487
  0
LINE
  8
0
 10
-112.609
 20
48.7487
 11
-111.446
 21
48.4371
  0
LINE
  8
0
 10
-111.446
 20
48.4371
 11
-110.323
 21
48.0058
  0
LINE
  8
0
 10
-110.323
 20
48.0058
 11
-109.25
 21
47.4593
  0
LINE
  8
0
 10
-109.25
 20
47.4593
 11
-108.24
 21
46.8037
  0
LINE
  8
0
 10
-108.24
 20
46.8037
 11
-107.305
 21
46.0462
  0
LINE
  8
0
 10
-107.305
 20
46.0462
 11
-106.454
 21
45.195
  0
LINE
  8
0
 10
-106.454
 20
45.195
 11
-105.696
 21
44.2595
  0
LINE
  8
0
 10
-105.696
 20
44.2595
 11
-105.041
 21
43.25
  0
LINE
  8
0
 10
-105.041
 20
43.25
 11
-104.494
 21
42.1775
  0
LINE
  8
0
 10
-104.494
 20
42.1775
 11
-104.063
 21
41.0537
  0
LINE
  8
0
 10
-104.063
 20
41.0537
 11
-103.751
 21
39.891
  0
LINE
  8
0
 10
-103.751
 20
39.891
 11
-103.563
 21
38.7021
  0
LINE
  8
0
 10
-103.563
 20
38.7021
 11
-103.5
 21
37.5
  0
LINE
  8
0
 10
-103.5
 20
37.5
 11
-103.563
 21
36.2979
  0
LINE
  8
0
 10
-103.563
 20
36.2979
 11
-103.751
 21
35.109
  0
LINE
  8
0
 10
-103.751
 20
35.109
 11
-104.063
 21
33.9463
  0
LINE
  8
0
 10
-104.063
 20
33.9463
 11
-104.494
 21
32.8225
  0
LINE
  8
0
 10
-104.494
 20
32.8225
 11
-105.041
 21
31.75
  0
LINE
  8
0
 10
-105.041
 20
31.75
 11
-105.696
 21
30.7405
  0
LINE
  8
0
 10
-105.696
 20
30.7405
 11
-106.454
 21
29.805
  0
LINE
  8
0
 10
-106.454
 20
29.805
 11
-107.305
 21
28.9538
  0
LINE
  8
0
 10
-107.305
 20
28.9538
 11
-108.24
 21
28.1963
  0
LINE
  8
0
 10
-108.24
 20
28.1963
 11
-109.25
 21
27.5407
  0
LINE
  8
0
 10
-109.25
 20
27.5407
 11
-110.323
 21
26.9942
  0
LINE
  8
0
 10
-110.323
 20
26.9942
 11
-111.446
 21
26.5629
  0
LINE
  8
0
 10
-111.446
 20
26.5629
 11
-112.609
 21
26.2513
  0
LINE
  8
0
 10
-112.609
 20
26.2513
 11
-113.798
 21
26.063
  0
LINE
  8
0
 10
-113.798
 20
26.063
 11
-115
 21
26
  0
LINE
  8
0
 10
-115
 20
26
 11
-116.202
 21
26.063
  0
LINE
  8
0
 10
-99.6233
 20
20.3546
 11
-99.8672
 21
20.3914
  0
LINE
  8
0
 10
-99.8672
 20
20.3914
 11
-100.103
 21
20.4641
  0
LINE
  8
0
 10
-100.103
 20
20.4641
 11
-100.325
 21
20.571
  0
LINE
  8
0
 10
-100.325
 20
20.571
 11
-100.529
 21
20.71
  0
LINE
  8
0
 10
-100.529
 20
20.71
 11
-100.71
 21
20.8777
  0
LINE
  8
0
 10
-100.71
 20
20.8777
 11
-100.863
 21
21.0705
  0
LINE
  8
0
 10
-100.863
 20
21.0705
 11
-100.987
 21
21.2841
  0
LINE
  8
0
 10
-100.987
 20
21.2841
 11
-101.077
 21
21.5136
  0
LINE
  8
0
 10
-101.077
 20
21.5136
 11
-101.132
 21
21.7541
  0
LINE
  8
0
 10
-101.132
 20
21.7541
 11
-101.15
 21
22
  0
LINE
  8
0
 10
-101.15
 20
22
 11
-101.132
 21
22.2459
  0
LINE
  8
0
 10
-101.132
 20
22.2459
 11
-101.077
 21
22.4863
  0
LINE
  8
0
 10
-101.077
 20
22.4863
 11
-100.987
 21
22.7159
  0
LINE
  8
0
 10
-100.987
 20
22.7159
 11
-100.863
 21
22.9295
  0
LINE
  8
0
 10
-100.863
 20
22.9295
 11
-100.71
 21
23.1223
  0
LINE
  8
0
 10
-100.71
 20
23.1223
 11
-100.529
 21
23.29
  0
LINE
  8
0
 10
-100.529
 20
23.29
 11
-100.325
 21
23.4289
  0
LINE
  8
0
 10
-100.325
 20
23.4289
 11
-100.103
 21
23.5359
  0
LINE
  8
0
 10
-100.103
 20
23.5359
 11
-99.8672
 21
23.6086
  0
LINE
  8
0
 10
-99.8672
 20
23.6086
 11
-99.6233
 21
23.6454
  0
LINE
  8
0
 10
-99.6233
 20
23.6454
 11
-99.3767
 21
23.6454
  0
LINE
  8
0
 10
-99.3767
 20
23.6454
 11
-99.1328
 21
23.6086
  0
LINE
  8
0
 10
-99.1328
 20
23.6086
 11
-98.8972
 21
23.5359
  0
LINE
  8
0
 10
-98.8972
 20
23.5359
 11
-98.675
 21
23.4289
  0
LINE
  8
0
 10
-98.675
 20
23.4289
 11
-98.4712
 21
23.29
  0
LINE
  8
0
 10
-98.4712
 20
23.29
 11
-98.2905
 21
23.1223
  0
LINE
  8
0
 10
-98.2905
 20
23.1223
 11
-98.1367
 21
22.9295
  0
LINE
  8
0
 10
-98.1367
 20
22.9295
 11
-98.0134
 21
22.7159
  0
LINE
  8
0
 10
-98.0134
 20
22.7159
 11
-97.9233
 21
22.4863
  0
LINE
  8
0
 10
-97.9233
 20
22.4863
 11
-97.8684
 21
22.2459
  0
LINE
  8
0
 10
-97.8684
 20
22.2459
 11
-97.85
 21
22
  0
LINE
  8
0
 10
-97.85
 20
22
 11
-97.8684
 21
21.7541
  0
LINE
  8
0
 10
-97.8684
 20
21.7541
 11
-97.9233
 21
21.5136
  0
LINE
  8
0
 10
-97.9233
 20
21.5136
 11
-98.0134
 21
21.2841
  0
LINE
  8
0
 10
-98.0134
 20
21.2841
 11
-98.1367
 21
21.0705
  0
LINE
  8
0
 10
-98.1367
 20
21.0705
 11
-98.2905
 21
20.8777
  0
LINE
  8
0
 10
-98.2905
 20
20.8777
 11
-98.4712
 21
20.71
  0
LINE
  8
0
 10
-98.4712
 20
20.71
 11
-98.675
 21
20.571
  0
LINE
  8
0
 10
-98.675
 20
20.571
 11
-98.8972
 21
20.4641
  0
LINE
  8
0
 10
-98.8972
 20
20.4641
 11
-99.1328
 21
20.3914
  0
LINE
  8
0
 10
-99.1328
 20
20.3914
 11
-99.3767
 21
20.3546
  0
LINE
  8
0
 10
-99.3767
 20
20.3546
 11
-99.6233
 21
20.3546
  0
LINE
  8
0
 10
-130.623
 20
20.3546
 11
-130.867
 21
20.3914
  0
LINE
  8
0
 10
-130.867
 20
20.3914
 11
-131.103
 21
20.4641
  0
LINE
  8
0
 10
-131.103
 20
20.4641
 11
-131.325
 21
20.571
  0
LINE
  8
0
 10
-131.325
 20
20.571
 11
-131.529
 21
20.71
  0
LINE
  8
0
 10
-131.529
 20
20.71
 11
-131.71
 21
20.8777
  0
LINE
  8
0
 10
-131.71
 20
20.8777
 11
-131.863
 21
21.0705
  0
LINE
  8
0
 10
-131.863
 20
21.0705
 11
-131.987
 21
21.2841
  0
LINE
  8
0
 10
-131.987
 20
21.2841
 11
-132.077
 21
21.5136
  0
LINE
  8
0
 10
-132.077
 20
21.5136
 11
-132.132
 21
21.7541
  0
LINE
  8
0
 10
-132.132
 20
21.7541
 11
-132.15
 21
22
  0
LINE
  8
0
 10
-132.15
 20
22
 11
-132.132
 21
22.2459
  0
LINE
  8
0
 10
-132.132
 20
22.2459
 11
-132.077
 21
22.4863
  0
LINE
  8
0
 10
-132.077
 20
22.4863
 11
-131.987
 21
22.7159
  0
LINE
  8
0
 10
-131.987
 20
22.7159
 11
-131.863
 21
22.9295
  0
LINE
  8
0
 10
-131.863
 20
22.9295
 11
-131.71
 21
23.1223
  0
LINE
  8
0
 10
-131.71
 20
23.1223
 11
-131.529
 21
23.29
  0
LINE
  8
0
 10
-131.529
 20
23.29
 11
-131.325
 21
23.4289
  0
LINE
  8
0
 10
-131.325
 20
23.4289
 11
-131.103
 21
23.5359
  0
LINE
  8
0
 10
-131.103
 20
23.5359
 11
-130.867
 21
23.6086
  0
LINE
  8
0
 10
-130.867
 20
23.6086
 11
-130.623
 21
23.6454
  0
LINE
  8
0
 10
-130.623
 20
23.6454
 11
-130.377
 21
23.6454
  0
LINE
  8
0
 10
-130.377
 20
23.6454
 11
-130.133
 21
23.6086
  0
LINE
  8
0
 10
-130.133
 20
23.6086
 11
-129.897
 21
23.5359
  0
LINE
  8
0
 10
-129.897
 20
23.5359
 11
-129.675
 21
23.4289
  0
LINE
  8
0
 10
-129.675
 20
23.4289
 11
-129.471
 21
23.29
  0
LINE
  8
0
 10
-129.471
 20
23.29
 11
-129.29
 21
23.1223
  0
LINE
  8
0
 10
-129.29
 20
23.1223
 11
-129.137
 21
22.9295
  0
LINE
  8
0
 10
-129.137
 20
22.9295
 11
-129.013
 21
22.7159
  0
LINE
  8
0
 10
-129.013
 20
22.7159
 11
-128.923
 21
22.4863
  0
LINE
  8
0
 10
-128.923
 20
22.4863
 11
-128.868
 21
22.2459
  0
LINE
  8
0
 10
-128.868
 20
22.2459
 11
-128.85
 21
22
  0
LINE
  8
0
 10
-128.85
 20
22
 11
-128.868
 21
21.7541
  0
LINE
  8
0
 10
-128.868
 20
21.7541
 11
-128.923
 21
21.5136
  0
LINE
  8
0
 10
-128.923
 20
21.5136
 11
-129.013
 21
21.2841
  0
LINE
  8
0
 10
-129.013
 20
21.2841
 11
-129.137
 21
21.0705
  0
LINE
  8
0
 10
-129.137
 20
21.0705
 11
-129.29
 21
20.8777
  0
LINE
  8
0
 10
-129.29
 20
20.8777
 11
-129.471
 21
20.71
  0
LINE
  8
0
 10
-129.471
 20
20.71
 11
-129.675
 21
20.571
  0
LINE
  8
0
 10
-129.675
 20
20.571
 11
-129.897
 21
20.4641
  0
LINE
  8
0
 10
-129.897
 20
20.4641
 11
-130.133
 21
20.3914
  0
LINE
  8
0
 10
-130.133
 20
20.3914
 11
-130.377
 21
20.3546
  0
LINE
  8
0
 10
-130.377
 20
20.3546
 11
-130.623
 21
20.3546
  0
LINE
  8
0
 10
99.3767
 20
1.3546
 11
99.1328
 21
1.39136
  0
LINE
  8
0
 10
99.1328
 20
1.39136
 11
98.8972
 21
1.46405
  0
LINE
  8
0
 10
98.8972
 20
1.46405
 11
98.675
 21
1.57104
  0
LINE
  8
0
 10
98.675
 20
1.57104
 11
98.4712
 21
1.70998
  0
LINE
  8
0
 10
98.4712
 20
1.70998
 11
98.2905
 21
1.8777
  0
LINE
  8
0
 10
98.2905
 20
1.8777
 11
98.1367
 21
2.07051
  0
LINE
  8
0
 10
98.1367
 20
2.07051
 11
98.0134
 21
2.28409
  0
LINE
  8
0
 10
98.0134
 20
2.28409
 11
97.9233
 21
2.51364
  0
LINE
  8
0
 10
97.9233
 20
2.51364
 11
97.8684
 21
2.75407
  0
LINE
  8
0
 10
97.8684
 20
2.75407
 11
97.85
 21
3
  0
LINE
  8
0
 10
97.85
 20
3
 11
97.8684
 21
3.24591
  0
LINE
  8
0
 10
97.8684
 20
3.24591
 11
97.9233
 21
3.48634
  0
LINE
  8
0
 10
97.9233
 20
3.48634
 11
98.0134
 21
3.7159
  0
LINE
  8
0
 10
98.0134
 20
3.7159
 11
98.1367
 21
3.92947
  0
LINE
  8
0
 10
98.1367
 20
3.92947
 11
98.2905
 21
4.12228
  0
LINE
  8
0
 10
98.2905
 20
4.12228
 11
98.4712
 21
4.29001
  0
LINE
  8
0
 10
98.4712
 20
4.29001
 11
98.675
 21
4.42894
  0
LINE
  8
0
 10
98.675
 20
4.42894
 11
98.8972
 21
4.53593
  0
LINE
  8
0
 10
98.8972
 20
4.53593
 11
99.1328
 21
4.60863
  0
LINE
  8
0
 10
99.1328
 20
4.60863
 11
99.3767
 21
4.64539
  0
LINE
  8
0
 10
99.3767
 20
4.64539
 11
99.6233
 21
4.64539
  0
LINE
  8
0
 10
99.6233
 20
4.64539
 11
99.8672
 21
4.60863
  0
LINE
  8
0
 10
99.8672
 20
4.60863
 11
100.103
 21
4.53593
  0
LINE
  8
0
 10
100.103
 20
4.53593
 11
100.325
 21
4.42894
  0
LINE
  8
0
 10
100.325
 20
4.42894
 11
100.529
 21
4.29001
  0
LINE
  8
0
 10
100.529
 20
4.29001
 11
100.71
 21
4.12228
  0
LINE
  8
0
 10
100.71
 20
4.12228
 11
100.863
 21
3.92947
  0
LINE
  8
0
 10
100.863
 20
3.92947
 11
100.987
 21
3.7159
  0
LINE
  8
0
 10
100.987
 20
3.7159
 11
101.077
 21
3.48634
  0
LINE
  8
0
 10
101.077
 20
3.48634
 11
101.132
 21
3.24591
  0
LINE
  8
0
 10
101.132
 20
3.24591
 11
101.15
 21
3
  0
LINE
  8
0
 10
101.15
 20
3
 11
101.132
 21
2.75407
  0
LINE
  8
0
 10
101.132
 20
2.75407
 11
101.077
 21
2.51364
  0
LINE
  8
0
 10
101.077
 20
2.51364
 11
100.987
 21
2.28409
  0
LINE
  8
0
 10
100.987
 20
2.28409
 11
100.863
 21
2.07051
  0
LINE
  8
0
 10
100.863
 20
2.07051
 11
100.71
 21
1.8777
  0
LINE
  8
0
 10
100.71
 20
1.8777
 11
100.529
 21
1.70998
  0
LINE
  8
0
 10
100.529
 20
1.70998
 11
100.325
 21
1.57104
  0
LINE
  8
0
 10
100.325
 20
1.57104
 11
100.103
 21
1.46405
  0
LINE
  8
0
 10
100.103
 20
1.46405
 11
99.8672
 21
1.39136
  0
LINE
  8
0
 10
99.8672
 20
1.39136
 11
99.6233
 21
1.3546
  0
LINE
  8
0
 10
99.6233
 20
1.3546
 11
99.3767
 21
1.3546
  0
LINE
  8
0
 10
130.377
 20
1.3546
 11
130.133
 21
1.39136
  0
LINE
  8
0
 10
130.133
 20
1.39136
 11
129.897
 21
1.46405
  0
LINE
  8
0
 10
129.897
 20
1.46405
 11
129.675
 21
1.57104
  0
LINE
  8
0
 10
129.675
 20
1.57104
 11
129.471
 21
1.70998
  0
LINE
  8
0
 10
129.471
 20
1.70998
 11
129.29
 21
1.8777
  0
LINE
  8
0
 10
129.29
 20
1.8777
 11
129.137
 21
2.07051
  0
LINE
  8
0
 10
129.137
 20
2.07051
 11
129.013
 21
2.28409
  0
LINE
  8
0
 10
129.013
 20
2.28409
 11
128.923
 21
2.51364
  0
LINE
  8
0
 10
128.923
 20
2.51364
 11
128.868
 21
2.75407
  0
LINE
  8
0
 10
128.868
 20
2.75407
 11
128.85
 21
3
  0
LINE
  8
0
 10
128.85
 20
3
 11
128.868
 21
3.24591
  0
LINE
  8
0
 10
128.868
 20
3.24591
 11
128.923
 21
3.48634
  0
LINE
  8
0
 10
128.923
 20
3.48634
 11
129.013
 21
3.7159
  0
LINE
  8
0
 10
129.013
 20
3.7159
 11
129.137
 21
3.92947
  0
LINE
  8
0
 10
129.137
 20
3.92947
 11
129.29
 21
4.12228
  0
LINE
  8
0
 10
129.29
 20
4.12228
 11
129.471
 21
4.29001
  0
LINE
  8
0
 10
129.471
 20
4.29001
 11
129.675
 21
4.42894
  0
LINE
  8
0
 10
129.675
 20
4.42894
 11
129.897
 21
4.53593
  0
LINE
  8
0
 10
129.897
 20
4.53593
 11
130.133
 21
4.60863
  0
LINE
  8
0
 10
130.133
 20
4.60863
 11
130.377
 21
4.64539
  0
LINE
  8
0
 10
130.377
 20
4.64539
 11
130.623
 21
4.64539
  0
LINE
  8
0
 10
130.623
 20
4.64539
 11
130.867
 21
4.60863
  0
LINE
  8
0
 10
130.867
 20
4.60863
 11
131.103
 21
4.53593
  0
LINE
  8
0
 10
131.103
 20
4.53593
 11
131.325
 21
4.42894
  0
LINE
  8
0
 10
131.325
 20
4.42894
 11
131.529
 21
4.29001
  0
LINE
  8
0
 10
131.529
 20
4.29001
 11
131.71
 21
4.12228
  0
LINE
  8
0
 10
131.71
 20
4.12228
 11
131.863
 21
3.92947
  0
LINE
  8
0
 10
131.863
 20
3.92947
 11
131.987
 21
3.7159
  0
LINE
  8
0
 10
131.987
 20
3.7159
 11
132.077
 21
3.48634
  0
LINE
  8
0
 10
132.077
 20
3.48634
 11
132.132
 21
3.24591
  0
LINE
  8
0
 10
132.132
 20
3.24591
 11
132.15
 21
3
  0
LINE
  8
0
 10
132.15
 20
3
 11
132.132
 21
2.75407
  0
LINE
  8
0
 10
132.132
 20
2.75407
 11
132.077
 21
2.51364
  0
LINE
  8
0
 10
132.077
 20
2.51364
 11
131.987
 21
2.28409
  0
LINE
  8
0
 10
131.987
 20
2.28409
 11
131.863
 21
2.07051
  0
LINE
  8
0
 10
131.863
 20
2.07051
 11
131.71
 21
1.8777
  0
LINE
  8
0
 10
131.71
 20
1.8777
 11
131.529
 21
1.70998
  0
LINE
  8
0
 10
131.529
 20
1.70998
 11
131.325
 21
1.57104
  0
LINE
  8
0
 10
131.325
 20
1.57104
 11
131.103
 21
1.46405
  0
LINE
  8
0
 10
131.103
 20
1.46405
 11
130.867
 21
1.39136
  0
LINE
  8
0
 10
130.867
 20
1.39136
 11
130.623
 21
1.3546
  0
LINE
  8
0
 10
130.623
 20
1.3546
 11
130.377
 21
1.3546
  0
LINE
  8
0
 10
142.191
 20
-1.67171
 11
141.951
 21
-1.60893
  0
LINE
  8
0
 10
141.951
 20
-1.60893
 11
141.723
 21
-1.51187
  0
LINE
  8
0
 10
141.723
 20
-1.51187
 11
141.511
 21
-1.38258
  0
LINE
  8
0
 10
141.511
 20
-1.38258
 11
141.32
 21
-1.22383
  0
LINE
  8
0
 10
141.32
 20
-1.22383
 11
141.154
 21
-1.03899
  0
LINE
  8
0
 10
141.154
 20
-1.03899
 11
141.018
 21
-0.832001
  0
LINE
  8
0
 10
141.018
 20
-0.832001
 11
140.912
 21
-0.607285
  0
LINE
  8
0
 10
140.912
 20
-0.607285
 11
140.841
 21
-0.369629
  0
LINE
  8
0
 10
140.841
 20
-0.369629
 11
140.805
 21
-0.124084
  0
LINE
  8
0
 10
140.805
 20
-0.124084
 11
140.805
 21
0.124084
  0
LINE
  8
0
 10
140.805
 20
0.124084
 11
140.841
 21
0.369629
  0
LINE
  8
0
 10
140.841
 20
0.369629
 11
140.912
 21
0.607285
  0
LINE
  8
0
 10
140.912
 20
0.607285
 11
141.018
 21
0.832001
  0
LINE
  8
0
 10
141.018
 20
0.832001
 11
141.154
 21
1.03899
  0
LINE
  8
0
 10
141.154
 20
1.03899
 11
141.32
 21
1.22383
  0
LINE
  8
0
 10
141.32
 20
1.22383
 11
141.511
 21
1.38258
  0
LINE
  8
0
 10
141.511
 20
1.38258
 11
141.723
 21
1.51187
  0
LINE
  8
0
 10
141.723
 20
1.51187
 11
141.951
 21
1.60893
  0
LINE
  8
0
 10
141.951
 20
1.60893
 11
142.191
 21
1.67171
  0
LINE
  8
0
 10
142.191
 20
1.67171
 11
142.438
 21
1.69885
  0
LINE
  8
0
 10
142.438
 20
1.69885
 11
142.686
 21
1.68979
  0
LINE
  8
0
 10
142.686
 20
1.68979
 11
142.93
 21
1.64471
  0
LINE
  8
0
 10
142.93
 20
1.64471
 11
143.165
 21
1.56458
  0
LINE
  8
0
 10
143.165
 20
1.56458
 11
143.386
 21
1.4511
  0
LINE
  8
0
 10
143.386
 20
1.4511
 11
143.587
 21
1.30669
  0
LINE
  8
0
 10
143.587
 20
1.30669
 11
143.766
 21
1.13443
  0
LINE
  8
0
 10
143.766
 20
1.13443
 11
143.918
 21
0.938004
  0
LINE
  8
0
 10
143.918
 20
0.938004
 11
144.039
 21
0.721573
  0
LINE
  8
0
 10
144.039
 20
0.721573
 11
144.128
 21
0.489761
  0
LINE
  8
0
 10
144.128
 20
0.489761
 11
144.182
 21
0.247513
  0
LINE
  8
0
 10
144.182
 20
0.247513
 11
144.2
 21
0
  0
LINE
  8
0
 10
144.2
 20
0
 11
144.182
 21
-0.247513
  0
LINE
  8
0
 10
144.182
 20
-0.247513
 11
144.128
 21
-0.489761
  0
LINE
  8
0
 10
144.128
 20
-0.489761
 11
144.039
 21
-0.721573
  0
LINE
  8
0
 10
144.039
 20
-0.721573
 11
143.918
 21
-0.938004
  0
LINE
  8
0
 10
143.918
 20
-0.938004
 11
143.766
 21
-1.13443
  0
LINE
  8
0
 10
143.766
 20
-1.13443
 11
143.587
 21
-1.30669
  0
LINE
  8
0
 10
143.587
 20
-1.30669
 11
143.386
 21
-1.4511
  0
LINE
  8
0
 10
143.386
 20
-1.4511
 11
143.165
 21
-1.56458
  0
LINE
  8
0
 10
143.165
 20
-1.56458
 11
142.93
 21
-1.64471
  0
LINE
  8
0
 10
142.93
 20
-1.64471
 11
142.686
 21
-1.68979
  0
LINE
  8
0
 10
142.686
 20
-1.68979
 11
142.438
 21
-1.69885
  0
LINE
  8
0
 10
142.438
 20
-1.69885
 11
142.191
 21
-1.67171
  0
LINE
  8
0
 10
87.1912
 20
-1.67171
 11
86.9511
 21
-1.60893
  0
LINE
  8
0
 10
86.9511
 20
-1.60893
 11
86.7227
 21
-1.51187
  0
LINE
  8
0
 10
86.7227
 20
-1.51187
 11
86.5108
 21
-1.38258
  0
LINE
  8
0
 10
86.5108
 20
-1.38258
 11
86.3201
 21
-1.22383
  0
LINE
  8
0
 10
86.3201
 20
-1.22383
 11
86.1544
 21
-1.03899
  0
LINE
  8
0
 10
86.1544
 20
-1.03899
 11
86.0175
 21
-0.832001
  0
LINE
  8
0
 10
86.0175
 20
-0.832001
 11
85.9122
 21
-0.607285
  0
LINE
  8
0
 10
85.9122
 20
-0.607285
 11
85.8407
 21
-0.369629
  0
LINE
  8
0
 10
85.8407
 20
-0.369629
 11
85.8045
 21
-0.124084
  0
LINE
  8
0
 10
85.8045
 20
-0.124084
 11
85.8045
 21
0.124084
  0
LINE
  8
0
 10
85.8045
 20
0.124084
 11
85.8407
 21
0.369629
  0
LINE
  8
0
 10
85.8407
 20
0.369629
 11
85.9122
 21
0.607285
  0
LINE
  8
0
 10
85.9122
 20
0.607285
 11
86.0175
 21
0.832001
  0
LINE
  8
0
 10
86.0175
 20
0.832001
 11
86.1544
 21
1.03899
  0
LINE
  8
0
 10
86.1544
 20
1.03899
 11
86.3201
 21
1.22383
  0
LINE
  8
0
 10
86.3201
 20
1.22383
 11
86.5108
 21
1.38258
  0
LINE
  8
0
 10
86.5108
 20
1.38258
 11
86.7227
 21
1.51187
  0
LINE
  8
0
 10
86.7227
 20
1.51187
 11
86.9511
 21
1.60893
  0
LINE
  8
0
 10
86.9511
 20
1.60893
 11
87.1912
 21
1.67171
  0
LINE
  8
0
 10
87.1912
 20
1.67171
 11
87.4379
 21
1.69885
  0
LINE
  8
0
 10
87.4379
 20
1.69885
 11
87.6859
 21
1.68979
  0
LINE
  8
0
 10
87.6859
 20
1.68979
 11
87.93
 21
1.64471
  0
LINE
  8
0
 10
87.93
 20
1.64471
 11
88.1649
 21
1.56458
  0
LINE
  8
0
 10
88.1649
 20
1.56458
 11
88.3856
 21
1.4511
  0
LINE
  8
0
 10
88.3856
 20
1.4511
 11
88.5874
 21
1.30669
  0
LINE
  8
0
 10
88.5874
 20
1.30669
 11
88.7661
 21
1.13443
  0
LINE
  8
0
 10
88.7661
 20
1.13443
 11
88.9178
 21
0.938004
  0
LINE
  8
0
 10
88.9178
 20
0.938004
 11
89.0393
 21
0.721573
  0
LINE
  8
0
 10
89.0393
 20
0.721573
 11
89.1279
 21
0.489761
  0
LINE
  8
0
 10
89.1279
 20
0.489761
 11
89.1819
 21
0.247513
  0
LINE
  8
0
 10
89.1819
 20
0.247513
 11
89.2
 21
0
  0
LINE
  8
0
 10
89.2
 20
0
 11
89.1819
 21
-0.247513
  0
LINE
  8
0
 10
89.1819
 20
-0.247513
 11
89.1279
 21
-0.489761
  0
LINE
  8
0
 10
89.1279
 20
-0.489761
 11
89.0393
 21
-0.721573
  0
LINE
  8
0
 10
89.0393
 20
-0.721573
 11
88.9178
 21
-0.938004
  0
LINE
  8
0
 10
88.9178
 20
-0.938004
 11
88.7661
 21
-1.13443
  0
LINE
  8
0
 10
88.7661
 20
-1.13443
 11
88.5874
 21
-1.30669
  0
LINE
  8
0
 10
88.5874
 20
-1.30669
 11
88.3856
 21
-1.4511
  0
LINE
  8
0
 10
88.3856
 20
-1.4511
 11
88.1649
 21
-1.56458
  0
LINE
  8
0
 10
88.1649
 20
-1.56458
 11
87.93
 21
-1.64471
  0
LINE
  8
0
 10
87.93
 20
-1.64471
 11
87.6859
 21
-1.68979
  0
LINE
  8
0
 10
87.6859
 20
-1.68979
 11
87.4379
 21
-1.69885
  0
LINE
  8
0
 10
87.4379
 20
-1.69885
 11
87.1912
 21
-1.67171
  0
LINE
  8
0
 10
-142.686
 20
-1.68979
 11
-142.93
 21
-1.64471
  0
LINE
  8
0
 10
-142.93
 20
-1.64471
 11
-143.165
 21
-1.56458
  0
LINE
  8
0
 10
-143.165
 20
-1.56458
 11
-143.386
 21
-1.4511
  0
LINE
  8
0
 10
-143.386
 20
-1.4511
 11
-143.587
 21
-1.30669
  0
LINE
  8
0
 10
-143.587
 20
-1.30669
 11
-143.766
 21
-1.13443
  0
LINE
  8
0
 10
-143.766
 20
-1.13443
 11
-143.918
 21
-0.938004
  0
LINE
  8
0
 10
-143.918
 20
-0.938004
 11
-144.039
 21
-0.721573
  0
LINE
  8
0
 10
-144.039
 20
-0.721573
 11
-144.128
 21
-0.489761
  0
LINE
  8
0
 10
-144.128
 20
-0.489761
 11
-144.182
 21
-0.247513
  0
LINE
  8
0
 10
-144.182
 20
-0.247513
 11
-144.2
 21
0
  0
LINE
  8
0
 10
-144.2
 20
0
 11
-144.182
 21
0.247513
  0
LINE
  8
0
 10
-144.182
 20
0.247513
 11
-144.128
 21
0.489761
  0
LINE
  8
0
 10
-144.128
 20
0.489761
 11
-144.039
 21
0.721573
  0
LINE
  8
0
 10
-144.039
 20
0.721573
 11
-143.918
 21
0.938004
  0
LINE
  8
0
 10
-143.918
 20
0.938004
 11
-143.766
 21
1.13443
  0
LINE
  8
0
 10
-143.766
 20
1.13443
 11
-143.587
 21
1.30669
  0
LINE
  8
0
 10
-143.587
 20
1.30669
 11
-143.386
 21
1.4511
  0
LINE
  8
0
 10
-143.386
 20
1.4511
 11
-143.165
 21
1.56458
  0
LINE
  8
0
 10
-143.165
 20
1.56458
 11
-142.93
 21
1.64471
  0
LINE
  8
0
 10
-142.93
 20
1.64471
 11
-142.686
 21
1.68979
  0
LINE
  8
0
 10
-142.686
 20
1.68979
 11
-142.438
 21
1.69885
  0
LINE
  8
0
 10
-142.438
 20
1.69885
 11
-142.191
 21
1.67171
  0
LINE
  8
0
 10
-142.191
 20
1.67171
 11
-141.951
 21
1.60893
  0
LINE
  8
0
 10
-141.951
 20
1.60893
 11
-141.723
 21
1.51187
  0
LINE
  8
0
 10
-141.723
 20
1.51187
 11
-141.511
 21
1.38258
  0
LINE
  8
0
 10
-141.511
 20
1.38258
 11
-141.32
 21
1.22383
  0
LINE
  8
0
 10
-141.32
 20
1.22383
 11
-141.154
 21
1.03899
  0
LINE
  8
0
 10
-141.154
 20
1.03899
 11
-141.018
 21
0.832001
  0
LINE
  8
0
 10
-141.018
 20
0.832001
 11
-140.912
 21
0.607285
  0
LINE
  8
0
 10
-140.912
 20
0.607285
 11
-140.841
 21
0.369629
  0
LINE
  8
0
 10
-140.841
 20
0.369629
 11
-140.805
 21
0.124084
  0
LINE
  8
0
 10
-140.805
 20
0.124084
 11
-140.805
 21
-0.124084
  0
LINE
  8
0
 10
-140.805
 20
-0.124084
 11
-140.841
 21
-0.369629
  0
LINE
  8
0
 10
-140.841
 20
-0.369629
 11
-140.912
 21
-0.607285
  0
LINE
  8
0
 10
-140.912
 20
-0.607285
 11
-141.018
 21
-0.832001
  0
LINE
  8
0
 10
-141.018
 20
-0.832001
 11
-141.154
 21
-1.03899
  0
LINE
  8
0
 10
-141.154
 20
-1.03899
 11
-141.32
 21
-1.22383
  0
LINE
  8
0
 10
-141.32
 20
-1.22383
 11
-141.511
 21
-1.38258
  0
LINE
  8
0
 10
-141.511
 20
-1.38258
 11
-141.723
 21
-1.51187
  0
LINE
  8
0
 10
-141.723
 20
-1.51187
 11
-141.951
 21
-1.60893
  0
LINE
  8
0
 10
-141.951
 20
-1.60893
 11
-142.191
 21
-1.67171
  0
LINE
  8
0
 10
-142.191
 20
-1.67171
 11
-142.438
 21
-1.69885
  0
LINE
  8
0
 10
-142.438
 20
-1.69885
 11
-142.686
 21
-1.68979
  0
LINE
  8
0
 10
-87.6859
 20
-1.68979
 11
-87.93
 21
-1.64471
  0
LINE
  8
0
 10
-87.93
 20
-1.64471
 11
-88.1649
 21
-1.56458
  0
LINE
  8
0
 10
-88.1649
 20
-1.56458
 11
-88.3856
 21
-1.4511
  0
LINE
  8
0
 10
-88.3856
 20
-1.4511
 11
-88.5874
 21
-1.30669
  0
LINE
  8
0
 10
-88.5874
 20
-1.30669
 11
-88.7661
 21
-1.13443
  0
LINE
  8
0
 10
-88.7661
 20
-1.13443
 11
-88.9178
 21
-0.938004
  0
LINE
  8
0
 10
-88.9178
 20
-0.938004
 11
-89.0393
 21
-0.721573
  0
LINE
  8
0
 10
-89.0393
 20
-0.721573
 11
-89.1279
 21
-0.489761
  0
LINE
  8
0
 10
-89.1279
 20
-0.489761
 11
-89.1819
 21
-0.247513
  0
LINE
  8
0
 10
-89.1819
 20
-0.247513
 11
-89.2
 21
0
  0
LINE
  8
0
 10
-89.2
 20
0
 11
-89.1819
 21
0.247513
  0
LINE
  8
0
 10
-89.1819
 20
0.247513
 11
-89.1279
 21
0.489761
  0
LINE
  8
0
 10
-89.1279
 20
0.489761
 11
-89.0393
 21
0.721573
  0
LINE
  8
0
 10
-89.0393
 20
0.721573
 11
-88.9178
 21
0.938004
  0
LINE
  8
0
 10
-88.9178
 20
0.938004
 11
-88.7661
 21
1.13443
  0
LINE
  8
0
 10
-88.7661
 20
1.13443
 11
-88.5874
 21
1.30669
  0
LINE
  8
0
 10
-88.5874
 20
1.30669
 11
-88.3856
 21
1.4511
  0
LINE
  8
0
 10
-88.3856
 20
1.4511
 11
-88.1649
 21
1.56458
  0
LINE
  8
0
 10
-88.1649
 20
1.56458
 11
-87.93
 21
1.64471
  0
LINE
  8
0
 10
-87.93
 20
1.64471
 11
-87.6859
 21
1.68979
  0
LINE
  8
0
 10
-87.6859
 20
1.68979
 11
-87.4379
 21
1.69885
  0
LINE
  8
0
 10
-87.4379
 20
1.69885
 11
-87.1912
 21
1.67171
  0
LINE
  8
0
 10
-87.1912
 20
1.67171
 11
-86.9511
 21
1.60893
  0
LINE
  8
0
 10
-86.9511
 20
1.60893
 11
-86.7227
 21
1.51187
  0
LINE
  8
0
 10
-86.7227
 20
1.51187
 11
-86.5108
 21
1.38258
  0
LINE
  8
0
 10
-86.5108
 20
1.38258
 11
-86.3201
 21
1.22383
  0
LINE
  8
0
 10
-86.3201
 20
1.22383
 11
-86.1544
 21
1.03899
  0
LINE
  8
0
 10
-86.1544
 20
1.03899
 11
-86.0175
 21
0.832001
  0
LINE
  8
0
 10
-86.0175
 20
0.832001
 11
-85.9122
 21
0.607285
  0
LINE
  8
0
 10
-85.9122
 20
0.607285
 11
-85.8407
 21
0.369629
  0
LINE
  8
0
 10
-85.8407
 20
0.369629
 11
-85.8045
 21
0.124084
  0
LINE
  8
0
 10
-85.8045
 20
0.124084
 11
-85.8045
 21
-0.124084
  0
LINE
  8
0
 10
-85.8045
 20
-0.124084
 11
-85.8407
 21
-0.369629
  0
LINE
  8
0
 10
-85.8407
 20
-0.369629
 11
-85.9122
 21
-0.607285
  0
LINE
  8
0
 10
-85.9122
 20
-0.607285
 11
-86.0175
 21
-0.832001
  0
LINE
  8
0
 10
-86.0175
 20
-0.832001
 11
-86.1544
 21
-1.03899
  0
LINE
  8
0
 10
-86.1544
 20
-1.03899
 11
-86.3201
 21
-1.22383
  0
LINE
  8
0
 10
-86.3201
 20
-1.22383
 11
-86.5108
 21
-1.38258
  0
LINE
  8
0
 10
-86.5108
 20
-1.38258
 11
-86.7227
 21
-1.51187
  0
LINE
  8
0
 10
-86.7227
 20
-1.51187
 11
-86.9511
 21
-1.60893
  0
LINE
  8
0
 10
-86.9511
 20
-1.60893
 11
-87.1912
 21
-1.67171
  0
LINE
  8
0
 10
-87.1912
 20
-1.67171
 11
-87.4379
 21
-1.69885
  0
LINE
  8
0
 10
-87.4379
 20
-1.69885
 11
-87.6859
 21
-1.68979
  0
LINE
  8
0
 10
113.798
 20
-23.937
 11
112.609
 21
-23.7487
  0
LINE
  8
0
 10
112.609
 20
-23.7487
 11
111.446
 21
-23.4371
  0
LINE
  8
0
 10
111.446
 20
-23.4371
 11
110.323
 21
-23.0058
  0
LINE
  8
0
 10
110.323
 20
-23.0058
 11
109.25
 21
-22.4593
  0
LINE
  8
0
 10
109.25
 20
-22.4593
 11
108.24
 21
-21.8037
  0
LINE
  8
0
 10
108.24
 20
-21.8037
 11
107.305
 21
-21.0462
  0
LINE
  8
0
 10
107.305
 20
-21.0462
 11
106.454
 21
-20.195
  0
LINE
  8
0
 10
106.454
 20
-20.195
 11
105.696
 21
-19.2595
  0
LINE
  8
0
 10
105.696
 20
-19.2595
 11
105.041
 21
-18.25
  0
LINE
  8
0
 10
105.041
 20
-18.25
 11
104.494
 21
-17.1775
  0
LINE
  8
0
 10
104.494
 20
-17.1775
 11
104.063
 21
-16.0537
  0
LINE
  8
0
 10
104.063
 20
-16.0537
 11
103.751
 21
-14.891
  0
LINE
  8
0
 10
103.751
 20
-14.891
 11
103.563
 21
-13.7021
  0
LINE
  8
0
 10
103.563
 20
-13.7021
 11
103.5
 21
-12.5
  0
LINE
  8
0
 10
103.5
 20
-12.5
 11
103.563
 21
-11.2979
  0
LINE
  8
0
 10
103.563
 20
-11.2979
 11
103.751
 21
-10.109
  0
LINE
  8
0
 10
103.751
 20
-10.109
 11
104.063
 21
-8.9463
  0
LINE
  8
0
 10
104.063
 20
-8.9463
 11
104.494
 21
-7.82253
  0
LINE
  8
0
 10
104.494
 20
-7.82253
 11
105.041
 21
-6.75
  0
LINE
  8
0
 10
105.041
 20
-6.75
 11
105.696
 21
-5.74046
  0
LINE
  8
0
 10
105.696
 20
-5.74046
 11
106.454
 21
-4.80499
  0
LINE
  8
0
 10
106.454
 20
-4.80499
 11
107.305
 21
-3.95383
  0
LINE
  8
0
 10
107.305
 20
-3.95383
 11
108.24
 21
-3.1963
  0
LINE
  8
0
 10
108.24
 20
-3.1963
 11
109.25
 21
-2.5407
  0
LINE
  8
0
 10
109.25
 20
-2.5407
 11
110.323
 21
-1.99422
  0
LINE
  8
0
 10
110.323
 20
-1.99422
 11
111.446
 21
-1.56285
  0
LINE
  8
0
 10
111.446
 20
-1.56285
 11
112.609
 21
-1.2513
  0
LINE
  8
0
 10
112.609
 20
-1.2513
 11
113.798
 21
-1.06299
  0
LINE
  8
0
 10
113.798
 20
-1.06299
 11
115
 21
-1
  0
LINE
  8
0
 10
115
 20
-1
 11
116.202
 21
-1.06299
  0
LINE
  8
0
 10
116.202
 20
-1.06299
 11
117.391
 21
-1.2513
  0
LINE
  8
0
 10
117.391
 20
-1.2513
 11
118.554
 21
-1.56285
  0
LINE
  8
0
 10
118.554
 20
-1.56285
 11
119.677
 21
-1.99422
  0
LINE
  8
0
 10
119.677
 20
-1.99422
 11
120.75
 21
-2.5407
  0
LINE
  8
0
 10
120.75
 20
-2.5407
 11
121.76
 21
-3.1963
  0
LINE
  8
0
 10
121.76
 20
-3.1963
 11
122.695
 21
-3.95383
  0
LINE
  8
0
 10
122.695
 20
-3.95383
 11
123.546
 21
-4.80499
  0
LINE
  8
0
 10
123.546
 20
-4.80499
 11
124.304
 21
-5.74046
  0
LINE
  8
0
 10
124.304
 20
-5.74046
 11
124.959
 21
-6.75
  0
LINE
  8
0
 10
124.959
 20
-6.75
 11
125.506
 21
-7.82253
  0
LINE
  8
0
 10
125.506
 20
-7.82253
 11
125.937
 21
-8.9463
  0
LINE
  8
0
 10
125.937
 20
-8.9463
 11
126.249
 21
-10.109
  0
LINE
  8
0
 10
126.249
 20
-10.109
 11
126.437
 21
-11.2979
  0
LINE
  8
0
 10
126.437
 20
-11.2979
 11
126.5
 21
-12.5
  0
LINE
  8
0
 10
126.5
 20
-12.5
 11
126.437
 21
-13.7021
  0
LINE
  8
0
 10
126.437
 20
-13.7021
 11
126.249
 21
-14.891
  0
LINE
  8
0
 10
126.249
 20
-14.891
 11
125.937
 21
-16.0537
  0
LINE
  8
0
 10
125.937
 20
-16.0537
 11
125.506
 21
-17.1775
  0
LINE
  8
0
 10
125.506
 20
-17.1775
 11
124.959
 21
-18.25
  0
LINE
  8
0
 10
124.959
 20
-18.25
 11
124.304
 21
-19.2595
  0
LINE
  8
0
 10
124.304
 20
-19.2595
 11
123.546
 21
-20.195
  0
LINE
  8
0
 10
123.546
 20
-20.195
 11
122.695
 21
-21.0462
  0
LINE
  8
0
 10
122.695
 20
-21.0462
 11
121.76
 21
-21.8037
  0
LINE
  8
0
 10
121.76
 20
-21.8037
 11
120.75
 21
-22.4593
  0
LINE
  8
0
 10
120.75
 20
-22.4593
 11
119.677
 21
-23.0058
  0
LINE
  8
0
 10
119.677
 20
-23.0058
 11
118.554
 21
-23.4371
  0
LINE
  8
0
 10
118.554
 20
-23.4371
 11
117.391
 21
-23.7487
  0
LINE
  8
0
 10
117.391
 20
-23.7487
 11
116.202
 21
-23.937
  0
LINE
  8
0
 10
116.202
 20
-23.937
 11
115
 21
-24
  0
LINE
  8
0
 10
115
 20
-24
 11
113.798
 21
-23.937
  0
LINE
  8
0
 10
130.377
 20
-29.6454
 11
130.133
 21
-29.6086
  0
LINE
  8
0
 10
130.133
 20
-29.6086
 11
129.897
 21
-29.5359
  0
LINE
  8
0
 10
129.897
 20
-29.5359
 11
129.675
 21
-29.4289
  0
LINE
  8
0
 10
129.675
 20
-29.4289
 11
129.471
 21
-29.29
  0
LINE
  8
0
 10
129.471
 20
-29.29
 11
129.29
 21
-29.1223
  0
LINE
  8
0
 10
129.29
 20
-29.1223
 11
129.137
 21
-28.9295
  0
LINE
  8
0
 10
129.137
 20
-28.9295
 11
129.013
 21
-28.7159
  0
LINE
  8
0
 10
129.013
 20
-28.7159
 11
128.923
 21
-28.4863
  0
LINE
  8
0
 10
128.923
 20
-28.4863
 11
128.868
 21
-28.2459
  0
LINE
  8
0
 10
128.868
 20
-28.2459
 11
128.85
 21
-28
  0
LINE
  8
0
 10
128.85
 20
-28
 11
128.868
 21
-27.7541
  0
LINE
  8
0
 10
128.868
 20
-27.7541
 11
128.923
 21
-27.5136
  0
LINE
  8
0
 10
128.923
 20
-27.5136
 11
129.013
 21
-27.2841
  0
LINE
  8
0
 10
129.013
 20
-27.2841
 11
129.137
 21
-27.0705
  0
LINE
  8
0
 10
129.137
 20
-27.0705
 11
129.29
 21
-26.8777
  0
LINE
  8
0
 10
129.29
 20
-26.8777
 11
129.471
 21
-26.71
  0
LINE
  8
0
 10
129.471
 20
-26.71
 11
129.675
 21
-26.571
  0
LINE
  8
0
 10
129.675
 20
-26.571
 11
129.897
 21
-26.4641
  0
LINE
  8
0
 10
129.897
 20
-26.4641
 11
130.133
 21
-26.3914
  0
LINE
  8
0
 10
130.133
 20
-26.3914
 11
130.377
 21
-26.3546
  0
LINE
  8
0
 10
130.377
 20
-26.3546
 11
130.623
 21
-26.3546
  0
LINE
  8
0
 10
130.623
 20
-26.3546
 11
130.867
 21
-26.3914
  0
LINE
  8
0
 10
130.867
 20
-26.3914
 11
131.103
 21
-26.4641
  0
LINE
  8
0
 10
131.103
 20
-26.4641
 11
131.325
 21
-26.571
  0
LINE
  8
0
 10
131.325
 20
-26.571
 11
131.529
 21
-26.71
  0
LINE
  8
0
 10
131.529
 20
-26.71
 11
131.71
 21
-26.8777
  0
LINE
  8
0
 10
131.71
 20
-26.8777
 11
131.863
 21
-27.0705
  0
LINE
  8
0
 10
131.863
 20
-27.0705
 11
131.987
 21
-27.2841
  0
LINE
  8
0
 10
131.987
 20
-27.2841
 11
132.077
 21
-27.5136
  0
LINE
  8
0
 10
132.077
 20
-27.5136
 11
132.132
 21
-27.7541
  0
LINE
  8
0
 10
132.132
 20
-27.7541
 11
132.15
 21
-28
  0
LINE
  8
0
 10
132.15
 20
-28
 11
132.132
 21
-28.2459
  0
LINE
  8
0
 10
132.132
 20
-28.2459
 11
132.077
 21
-28.4863
  0
LINE
  8
0
 10
132.077
 20
-28.4863
 11
131.987
 21
-28.7159
  0
LINE
  8
0
 10
131.987
 20
-28.7159
 11
131.863
 21
-28.9295
  0
LINE
  8
0
 10
131.863
 20
-28.9295
 11
131.71
 21
-29.1223
  0
LINE
  8
0
 10
131.71
 20
-29.1223
 11
131.529
 21
-29.29
  0
LINE
  8
0
 10
131.529
 20
-29.29
 11
131.325
 21
-29.4289
  0
LINE
  8
0
 10
131.325
 20
-29.4289
 11
131.103
 21
-29.5359
  0
LINE
  8
0
 10
131.103
 20
-29.5359
 11
130.867
 21
-29.6086
  0
LINE
  8
0
 10
130.867
 20
-29.6086
 11
130.623
 21
-29.6454
  0
LINE
  8
0
 10
130.623
 20
-29.6454
 11
130.377
 21
-29.6454
  0
LINE
  8
0
 10
99.3767
 20
-29.6454
 11
99.1328
 21
-29.6086
  0
LINE
  8
0
 10
99.1328
 20
-29.6086
 11
98.8972
 21
-29.5359
  0
LINE
  8
0
 10
98.8972
 20
-29.5359
 11
98.675
 21
-29.4289
  0
LINE
  8
0
 10
98.675
 20
-29.4289
 11
98.4712
 21
-29.29
  0
LINE
  8
0
 10
98.4712
 20
-29.29
 11
98.2905
 21
-29.1223
  0
LINE
  8
0
 10
98.2905
 20
-29.1223
 11
98.1367
 21
-28.9295
  0
LINE
  8
0
 10
98.1367
 20
-28.9295
 11
98.0134
 21
-28.7159
  0
LINE
  8
0
 10
98.0134
 20
-28.7159
 11
97.9233
 21
-28.4863
  0
LINE
  8
0
 10
97.9233
 20
-28.4863
 11
97.8684
 21
-28.2459
  0
LINE
  8
0
 10
97.8684
 20
-28.2459
 11
97.85
 21
-28
  0
LINE
  8
0
 10
97.85
 20
-28
 11
97.8684
 21
-27.7541
  0
LINE
  8
0
 10
97.8684
 20
-27.7541
 11
97.9233
 21
-27.5136
  0
LINE
  8
0
 10
97.9233
 20
-27.5136
 11
98.0134
 21
-27.2841
  0
LINE
  8
0
 10
98.0134
 20
-27.2841
 11
98.1367
 21
-27.0705
  0
LINE
  8
0
 10
98.1367
 20
-27.0705
 11
98.2905
 21
-26.8777
  0
LINE
  8
0
 10
98.2905
 20
-26.8777
 11
98.4712
 21
-26.71
  0
LINE
  8
0
 10
98.4712
 20
-26.71
 11
98.675
 21
-26.571
  0
LINE
  8
0
 10
98.675
 20
-26.571
 11
98.8972
 21
-26.4641
  0
LINE
  8
0
 10
98.8972
 20
-26.4641
 11
99.1328
 21
-26.3914
  0
LINE
  8
0
 10
99.1328
 20
-26.3914
 11
99.3767
 21
-26.3546
  0
LINE
  8
0
 10
99.3767
 20
-26.3546
 11
99.6233
 21
-26.3546
  0
LINE
  8
0
 10
99.6233
 20
-26.3546
 11
99.8672
 21
-26.3914
  0
LINE
  8
0
 10
99.8672
 20
-26.3914
 11
100.103
 21
-26.4641
  0
LINE
  8
0
 10
100.103
 20
-26.4641
 11
100.325
 21
-26.571
  0
LINE
  8
0
 10
100.325
 20
-26.571
 11
100.529
 21
-26.71
  0
LINE
  8
0
 10
100.529
 20
-26.71
 11
100.71
 21
-26.8777
  0
LINE
  8
0
 10
100.71
 20
-26.8777
 11
100.863
 21
-27.0705
  0
LINE
  8
0
 10
100.863
 20
-27.0705
 11
100.987
 21
-27.2841
  0
LINE
  8
0
 10
100.987
 20
-27.2841
 11
101.077
 21
-27.5136
  0
LINE
  8
0
 10
101.077
 20
-27.5136
 11
101.132
 21
-27.7541
  0
LINE
  8
0
 10
101.132
 20
-27.7541
 11
101.15
 21
-28
  0
LINE
  8
0
 10
101.15
 20
-28
 11
101.132
 21
-28.2459
  0
LINE
  8
0
 10
101.132
 20
-28.2459
 11
101.077
 21
-28.4863
  0
LINE
  8
0
 10
101.077
 20
-28.4863
 11
100.987
 21
-28.7159
  0
LINE
  8
0
 10
100.987
 20
-28.7159
 11
100.863
 21
-28.9295
  0
LINE
  8
0
 10
100.863
 20
-28.9295
 11
100.71
 21
-29.1223
  0
LINE
  8
0
 10
100.71
 20
-29.1223
 11
100.529
 21
-29.29
  0
LINE
  8
0
 10
100.529
 20
-29.29
 11
100.325
 21
-29.4289
  0
LINE
  8
0
 10
100.325
 20
-29.4289
 11
100.103
 21
-29.5359
  0
LINE
  8
0
 10
100.103
 20
-29.5359
 11
99.8672
 21
-29.6086
  0
LINE
  8
0
 10
99.8672
 20
-29.6086
 11
99.6233
 21
-29.6454
  0
LINE
  8
0
 10
99.6233
 20
-29.6454
 11
99.3767
 21
-29.6454
  0
LINE
  8
0
 10
-99.6233
 20
-48.6454
 11
-99.8672
 21
-48.6086
  0
LINE
  8
0
 10
-99.8672
 20
-48.6086
 11
-100.103
 21
-48.5359
  0
LINE
  8
0
 10
-100.103
 20
-48.5359
 11
-100.325
 21
-48.4289
  0
LINE
  8
0
 10
-100.325
 20
-48.4289
 11
-100.529
 21
-48.29
  0
LINE
  8
0
 10
-100.529
 20
-48.29
 11
-100.71
 21
-48.1223
  0
LINE
  8
0
 10
-100.71
 20
-48.1223
 11
-100.863
 21
-47.9295
  0
LINE
  8
0
 10
-100.863
 20
-47.9295
 11
-100.987
 21
-47.7159
  0
LINE
  8
0
 10
-100.987
 20
-47.7159
 11
-101.077
 21
-47.4863
  0
LINE
  8
0
 10
-101.077
 20
-47.4863
 11
-101.132
 21
-47.2459
  0
LINE
  8
0
 10
-101.132
 20
-47.2459
 11
-101.15
 21
-47
  0
LINE
  8
0
 10
-101.15
 20
-47
 11
-101.132
 21
-46.7541
  0
LINE
  8
0
 10
-101.132
 20
-46.7541
 11
-101.077
 21
-46.5137
  0
LINE
  8
0
 10
-101.077
 20
-46.5137
 11
-100.987
 21
-46.2841
  0
LINE
  8
0
 10
-100.987
 20
-46.2841
 11
-100.863
 21
-46.0705
  0
LINE
  8
0
 10
-100.863
 20
-46.0705
 11
-100.71
 21
-45.8777
  0
LINE
  8
0
 10
-100.71
 20
-45.8777
 11
-100.529
 21
-45.71
  0
LINE
  8
0
 10
-100.529
 20
-45.71
 11
-100.325
 21
-45.5711
  0
LINE
  8
0
 10
-100.325
 20
-45.5711
 11
-100.103
 21
-45.4641
  0
LINE
  8
0
 10
-100.103
 20
-45.4641
 11
-99.8672
 21
-45.3914
  0
LINE
  8
0
 10
-99.8672
 20
-45.3914
 11
-99.6233
 21
-45.3546
  0
LINE
  8
0
 10
-99.6233
 20
-45.3546
 11
-99.3767
 21
-45.3546
  0
LINE
  8
0
 10
-99.3767
 20
-45.3546
 11
-99.1328
 21
-45.3914
  0
LINE
  8
0
 10
-99.1328
 20
-45.3914
 11
-98.8972
 21
-45.4641
  0
LINE
  8
0
 10
-98.8972
 20
-45.4641
 11
-98.675
 21
-45.5711
  0
LINE
  8
0
 10
-98.675
 20
-45.5711
 11
-98.4712
 21
-45.71
  0
LINE
  8
0
 10
-98.4712
 20
-45.71
 11
-98.2905
 21
-45.8777
  0
LINE
  8
0
 10
-98.2905
 20
-45.8777
 11
-98.1367
 21
-46.0705
  0
LINE
  8
0
 10
-98.1367
 20
-46.0705
 11
-98.0134
 21
-46.2841
  0
LINE
  8
0
 10
-98.0134
 20
-46.2841
 11
-97.9233
 21
-46.5137
  0
LINE
  8
0
 10
-97.9233
 20
-46.5137
 11
-97.8684
 21
-46.7541
  0
LINE
  8
0
 10
-97.8684
 20
-46.7541
 11
-97.85
 21
-47
  0
LINE
  8
0
 10
-97.85
 20
-47
 11
-97.8684
 21
-47.2459
  0
LINE
  8
0
 10
-97.8684
 20
-47.2459
 11
-97.9233
 21
-47.4863
  0
LINE
  8
0
 10
-97.9233
 20
-47.4863
 11
-98.0134
 21
-47.7159
  0
LINE
  8
0
 10
-98.0134
 20
-47.7159
 11
-98.1367
 21
-47.9295
  0
LINE
  8
0
 10
-98.1367
 20
-47.9295
 11
-98.2905
 21
-48.1223
  0
LINE
  8
0
 10
-98.2905
 20
-48.1223
 11
-98.4712
 21
-48.29
  0
LINE
  8
0
 10
-98.4712
 20
-48.29
 11
-98.675
 21
-48.4289
  0
LINE
  8
0
 10
-98.675
 20
-48.4289
 11
-98.8972
 21
-48.5359
  0
LINE
  8
0
 10
-98.8972
 20
-48.5359
 11
-99.1328
 21
-48.6086
  0
LINE
  8
0
 10
-99.1328
 20
-48.6086
 11
-99.3767
 21
-48.6454
  0
LINE
  8
0
 10
-99.3767
 20
-48.6454
 11
-99.6233
 21
-48.6454
  0
LINE
  8
0
 10
-130.623
 20
-48.6454
 11
-130.867
 21
-48.6086
  0
LINE
  8
0
 10
-130.867
 20
-48.6086
 11
-131.103
 21
-48.5359
  0
LINE
  8
0
 10
-131.103
 20
-48.5359
 11
-131.325
 21
-48.4289
  0
LINE
  8
0
 10
-131.325
 20
-48.4289
 11
-131.529
 21
-48.29
  0
LINE
  8
0
 10
-131.529
 20
-48.29
 11
-131.71
 21
-48.1223
  0
LINE
  8
0
 10
-131.71
 20
-48.1223
 11
-131.863
 21
-47.9295
  0
LINE
  8
0
 10
-131.863
 20
-47.9295
 11
-131.987
 21
-47.7159
  0
LINE
  8
0
 10
-131.987
 20
-47.7159
 11
-132.077
 21
-47.4863
  0
LINE
  8
0
 10
-132.077
 20
-47.4863
 11
-132.132
 21
-47.2459
  0
LINE
  8
0
 10
-132.132
 20
-47.2459
 11
-132.15
 21
-47
  0
LINE
  8
0
 10
-132.15
 20
-47
 11
-132.132
 21
-46.7541
  0
LINE
  8
0
 10
-132.132
 20
-46.7541
 11
-132.077
 21
-46.5137
  0
LINE
  8
0
 10
-132.077
 20
-46.5137
 11
-131.987
 21
-46.2841
  0
LINE
  8
0
 10
-131.987
 20
-46.2841
 11
-131.863
 21
-46.0705
  0
LINE
  8
0
 10
-131.863
 20
-46.0705
 11
-131.71
 21
-45.8777
  0
LINE
  8
0
 10
-131.71
 20
-45.8777
 11
-131.529
 21
-45.71
  0
LINE
  8
0
 10
-131.529
 20
-45.71
 11
-131.325
 21
-45.5711
  0
LINE
  8
0
 10
-131.325
 20
-45.5711
 11
-131.103
 21
-45.4641
  0
LINE
  8
0
 10
-131.103
 20
-45.4641
 11
-130.867
 21
-45.3914
  0
LINE
  8
0
 10
-130.867
 20
-45.3914
 11
-130.623
 21
-45.3546
  0
LINE
  8
0
 10
-130.623
 20
-45.3546
 11
-130.377
 21
-45.3546
  0
LINE
  8
0
 10
-130.377
 20
-45.3546
 11
-130.133
 21
-45.3914
  0
LINE
  8
0
 10
-130.133
 20
-45.3914
 11
-129.897
 21
-45.4641
  0
LINE
  8
0
 10
-129.897
 20
-45.4641
 11
-129.675
 21
-45.5711
  0
LINE
  8
0
 10
-129.675
 20
-45.5711
 11
-129.471
 21
-45.71
  0
LINE
  8
0
 10
-129.471
 20
-45.71
 11
-129.29
 21
-45.8777
  0
LINE
  8
0
 10
-129.29
 20
-45.8777
 11
-129.137
 21
-46.0705
  0
LINE
  8
0
 10
-129.137
 20
-46.0705
 11
-129.013
 21
-46.2841
  0
LINE
  8
0
 10
-129.013
 20
-46.2841
 11
-128.923
 21
-46.5137
  0
LINE
  8
0
 10
-128.923
 20
-46.5137
 11
-128.868
 21
-46.7541
  0
LINE
  8
0
 10
-128.868
 20
-46.7541
 11
-128.85
 21
-47
  0
LINE
  8
0
 10
-128.85
 20
-47
 11
-128.868
 21
-47.2459
  0
LINE
  8
0
 10
-128.868
 20
-47.2459
 11
-128.923
 21
-47.4863
  0
LINE
  8
0
 10
-128.923
 20
-47.4863
 11
-129.013
 21
-47.7159
  0
LINE
  8
0
 10
-129.013
 20
-47.7159
 11
-129.137
 21
-47.9295
  0
LINE
  8
0
 10
-129.137
 20
-47.9295
 11
-129.29
 21
-48.1223
  0
LINE
  8
0
 10
-129.29
 20
-48.1223
 11
-129.471
 21
-48.29
  0
LINE
  8
0
 10
-129.471
 20
-48.29
 11
-129.675
 21
-48.4289
  0
LINE
  8
0
 10
-129.675
 20
-48.4289
 11
-129.897
 21
-48.5359
  0
LINE
  8
0
 10
-129.897
 20
-48.5359
 11
-130.133
 21
-48.6086
  0
LINE
  8
0
 10
-130.133
 20
-48.6086
 11
-130.377
 21
-48.6454
  0
LINE
  8
0
 10
-130.377
 20
-48.6454
 11
-130.623
 21
-48.6454
  0
LINE
  8
0
 10
-116.202
 20
-73.937
 11
-117.391
 21
-73.7487
  0
LINE
  8
0
 10
-117.391
 20
-73.7487
 11
-118.554
 21
-73.4371
  0
LINE
  8
0
 10
-118.554
 20
-73.4371
 11
-119.677
 21
-73.0058
  0
LINE
  8
0
 10
-119.677
 20
-73.0058
 11
-120.75
 21
-72.4593
  0
LINE
  8
0
 10
-120.75
 20
-72.4593
 11
-121.76
 21
-71.8037
  0
LINE
  8
0
 10
-121.76
 20
-71.8037
 11
-122.695
 21
-71.0462
  0
LINE
  8
0
 10
-122.695
 20
-71.0462
 11
-123.546
 21
-70.195
  0
LINE
  8
0
 10
-123.546
 20
-70.195
 11
-124.304
 21
-69.2595
  0
LINE
  8
0
 10
-124.304
 20
-69.2595
 11
-124.959
 21
-68.25
  0
LINE
  8
0
 10
-124.959
 20
-68.25
 11
-125.506
 21
-67.1775
  0
LINE
  8
0
 10
-125.506
 20
-67.1775
 11
-125.937
 21
-66.0537
  0
LINE
  8
0
 10
-125.937
 20
-66.0537
 11
-126.249
 21
-64.891
  0
LINE
  8
0
 10
-126.249
 20
-64.891
 11
-126.437
 21
-63.7021
  0
LINE
  8
0
 10
-126.437
 20
-63.7021
 11
-126.5
 21
-62.5
  0
LINE
  8
0
 10
-126.5
 20
-62.5
 11
-126.437
 21
-61.2979
  0
LINE
  8
0
 10
-126.437
 20
-61.2979
 11
-126.249
 21
-60.109
  0
LINE
  8
0
 10
-126.249
 20
-60.109
 11
-125.937
 21
-58.9463
  0
LINE
  8
0
 10
-125.937
 20
-58.9463
 11
-125.506
 21
-57.8225
  0
LINE
  8
0
 10
-125.506
 20
-57.8225
 11
-124.959
 21
-56.75
  0
LINE
  8
0
 10
-124.959
 20
-56.75
 11
-124.304
 21
-55.7405
  0
LINE
  8
0
 10
-124.304
 20
-55.7405
 11
-123.546
 21
-54.805
  0
LINE
  8
0
 10
-123.546
 20
-54.805
 11
-122.695
 21
-53.9538
  0
LINE
  8
0
 10
-122.695
 20
-53.9538
 11
-121.76
 21
-53.1963
  0
LINE
  8
0
 10
-121.76
 20
-53.1963
 11
-120.75
 21
-52.5407
  0
LINE
  8
0
 10
-120.75
 20
-52.5407
 11
-119.677
 21
-51.9942
  0
LINE
  8
0
 10
-119.677
 20
-51.9942
 11
-118.554
 21
-51.5629
  0
LINE
  8
0
 10
-118.554
 20
-51.5629
 11
-117.391
 21
-51.2513
  0
LINE
  8
0
 10
-117.391
 20
-51.2513
 11
-116.202
 21
-51.063
  0
LINE
  8
0
 10
-116.202
 20
-51.063
 11
-115
 21
-51
  0
LINE
  8
0
 10
-115
 20
-51
 11
-113.798
 21
-51.063
  0
LINE
  8
0
 10
-113.798
 20
-51.063
 11
-112.609
 21
-51.2513
  0
LINE
  8
0
 10
-112.609
 20
-51.2513
 11
-111.446
 21
-51.5629
  0
LINE
  8
0
 10
-111.446
 20
-51.5629
 11
-110.323
 21
-51.9942
  0
LINE
  8
0
 10
-110.323
 20
-51.9942
 11
-109.25
 21
-52.5407
  0
LINE
  8
0
 10
-109.25
 20
-52.5407
 11
-108.24
 21
-53.1963
  0
LINE
  8
0
 10
-108.24
 20
-53.1963
 11
-107.305
 21
-53.9538
  0
LINE
  8
0
 10
-107.305
 20
-53.9538
 11
-106.454
 21
-54.805
  0
LINE
  8
0
 10
-106.454
 20
-54.805
 11
-105.696
 21
-55.7405
  0
LINE
  8
0
 10
-105.696
 20
-55.7405
 11
-105.041
 21
-56.75
  0
LINE
  8
0
 10
-105.041
 20
-56.75
 11
-104.494
 21
-57.8225
  0
LINE
  8
0
 10
-104.494
 20
-57.8225
 11
-104.063
 21
-58.9463
  0
LINE
  8
0
 10
-104.063
 20
-58.9463
 11
-103.751
 21
-60.109
  0
LINE
  8
0
 10
-103.751
 20
-60.109
 11
-103.563
 21
-61.2979
  0
LINE
  8
0
 10
-103.563
 20
-61.2979
 11
-103.5
 21
-62.5
  0
LINE
  8
0
 10
-103.5
 20
-62.5
 11
-103.563
 21
-63.7021
  0
LINE
  8
0
 10
-103.563
 20
-63.7021
 11
-103.751
 21
-64.891
  0
LINE
  8
0
 10
-103.751
 20
-64.891
 11
-104.063
 21
-66.0537
  0
LINE
  8
0
 10
-104.063
 20
-66.0537
 11
-104.494
 21
-67.1775
  0
LINE
  8
0
 10
-104.494
 20
-67.1775
 11
-105.041
 21
-68.25
  0
LINE
  8
0
 10
-105.041
 20
-68.25
 11
-105.696
 21
-69.2595
  0
LINE
  8
0
 10
-105.696
 20
-69.2595
 11
-106.454
 21
-70.195
  0
LINE
  8
0
 10
-106.454
 20
-70.195
 11
-107.305
 21
-71.0462
  0
LINE
  8
0
 10
-107.305
 20
-71.0462
 11
-108.24
 21
-71.8037
  0
LINE
  8
0
 10
-108.24
 20
-71.8037
 11
-109.25
 21
-72.4593
  0
LINE
  8
0
 10
-109.25
 20
-72.4593
 11
-110.323
 21
-73.0058
  0
LINE
  8
0
 10
-110.323
 20
-73.0058
 11
-111.446
 21
-73.4371
  0
LINE
  8
0
 10
-111.446
 20
-73.4371
 11
-112.609
 21
-73.7487
  0
LINE
  8
0
 10
-112.609
 20
-73.7487
 11
-113.798
 21
-73.937
  0
LINE
  8
0
 10
-113.798
 20
-73.937
 11
-115
 21
-74
  0
LINE
  8
0
 10
-115
 20
-74
 11
-116.202
 21
-73.937
  0
LINE
  8
0
 10
-99.6233
 20
-79.6454
 11
-99.8672
 21
-79.6086
  0
LINE
  8
0
 10
-99.8672
 20
-79.6086
 11
-100.103
 21
-79.5359
  0
LINE
  8
0
 10
-100.103
 20
-79.5359
 11
-100.325
 21
-79.4289
  0
LINE
  8
0
 10
-100.325
 20
-79.4289
 11
-100.529
 21
-79.29
  0
LINE
  8
0
 10
-100.529
 20
-79.29
 11
-100.71
 21
-79.1223
  0
LINE
  8
0
 10
-100.71
 20
-79.1223
 11
-100.863
 21
-78.9295
  0
LINE
  8
0
 10
-100.863
 20
-78.9295
 11
-100.987
 21
-78.7159
  0
LINE
  8
0
 10
-100.987
 20
-78.7159
 11
-101.077
 21
-78.4863
  0
LINE
  8
0
 10
-101.077
 20
-78.4863
 11
-101.132
 21
-78.2459
  0
LINE
  8
0
 10
-101.132
 20
-78.2459
 11
-101.15
 21
-78
  0
LINE
  8
0
 10
-101.15
 20
-78
 11
-101.132
 21
-77.7541
  0
LINE
  8
0
 10
-101.132
 20
-77.7541
 11
-101.077
 21
-77.5137
  0
LINE
  8
0
 10
-101.077
 20
-77.5137
 11
-100.987
 21
-77.2841
  0
LINE
  8
0
 10
-100.987
 20
-77.2841
 11
-100.863
 21
-77.0705
  0
LINE
  8
0
 10
-100.863
 20
-77.0705
 11
-100.71
 21
-76.8777
  0
LINE
  8
0
 10
-100.71
 20
-76.8777
 11
-100.529
 21
-76.71
  0
LINE
  8
0
 10
-100.529
 20
-76.71
 11
-100.325
 21
-76.5711
  0
LINE
  8
0
 10
-100.325
 20
-76.5711
 11
-100.103
 21
-76.4641
  0
LINE
  8
0
 10
-100.103
 20
-76.4641
 11
-99.8672
 21
-76.3914
  0
LINE
  8
0
 10
-99.8672
 20
-76.3914
 11
-99.6233
 21
-76.3546
  0
LINE
  8
0
 10
-99.6233
 20
-76.3546
 11
-99.3767
 21
-76.3546
  0
LINE
  8
0
 10
-99.3767
 20
-76.3546
 11
-99.1328
 21
-76.3914
  0
LINE
  8
0
 10
-99.1328
 20
-76.3914
 11
-98.8972
 21
-76.4641
  0
LINE
  8
0
 10
-98.8972
 20
-76.4641
 11
-98.675
 21
-76.5711
  0
LINE
  8
0
 10
-98.675
 20
-76.5711
 11
-98.4712
 21
-76.71
  0
LINE
  8
0
 10
-98.4712
 20
-76.71
 11
-98.2905
 21
-76.8777
  0
LINE
  8
0
 10
-98.2905
 20
-76.8777
 11
-98.1367
 21
-77.0705
  0
LINE
  8
0
 10
-98.1367
 20
-77.0705
 11
-98.0134
 21
-77.2841
  0
LINE
  8
0
 10
-98.0134
 20
-77.2841
 11
-97.9233
 21
-77.5137
  0
LINE
  8
0
 10
-97.9233
 20
-77.5137
 11
-97.8684
 21
-77.7541
  0
LINE
  8
0
 10
-97.8684
 20
-77.7541
 11
-97.85
 21
-78
  0
LINE
  8
0
 10
-97.85
 20
-78
 11
-97.8684
 21
-78.2459
  0
LINE
  8
0
 10
-97.8684
 20
-78.2459
 11
-97.9233
 21
-78.4863
  0
LINE
  8
0
 10
-97.9233
 20
-78.4863
 11
-98.0134
 21
-78.7159
  0
LINE
  8
0
 10
-98.0134
 20
-78.7159
 11
-98.1367
 21
-78.9295
  0
LINE
  8
0
 10
-98.1367
 20
-78.9295
 11
-98.2905
 21
-79.1223
  0
LINE
  8
0
 10
-98.2905
 20
-79.1223
 11
-98.4712
 21
-79.29
  0
LINE
  8
0
 10
-98.4712
 20
-79.29
 11
-98.675
 21
-79.4289
  0
LINE
  8
0
 10
-98.675
 20
-79.4289
 11
-98.8972
 21
-79.5359
  0
LINE
  8
0
 10
-98.8972
 20
-79.5359
 11
-99.1328
 21
-79.6086
  0
LINE
  8
0
 10
-99.1328
 20
-79.6086
 11
-99.3767
 21
-79.6454
  0
LINE
  8
0
 10
-99.3767
 20
-79.6454
 11
-99.6233
 21
-79.6454
  0
LINE
  8
0
 10
-130.623
 20
-79.6454
 11
-130.867
 21
-79.6086
  0
LINE
  8
0
 10
-130.867
 20
-79.6086
 11
-131.103
 21
-79.5359
  0
LINE
  8
0
 10
-131.103
 20
-79.5359
 11
-131.325
 21
-79.4289
  0
LINE
  8
0
 10
-131.325
 20
-79.4289
 11
-131.529
 21
-79.29
  0
LINE
  8
0
 10
-131.529
 20
-79.29
 11
-131.71
 21
-79.1223
  0
LINE
  8
0
 10
-131.71
 20
-79.1223
 11
-131.863
 21
-78.9295
  0
LINE
  8
0
 10
-131.863
 20
-78.9295
 11
-131.987
 21
-78.7159
  0
LINE
  8
0
 10
-131.987
 20
-78.7159
 11
-132.077
 21
-78.4863
  0
LINE
  8
0
 10
-132.077
 20
-78.4863
 11
-132.132
 21
-78.2459
  0
LINE
  8
0
 10
-132.132
 20
-78.2459
 11
-132.15
 21
-78
  0
LINE
  8
0
 10
-132.15
 20
-78
 11
-132.132
 21
-77.7541
  0
LINE
  8
0
 10
-132.132
 20
-77.7541
 11
-132.077
 21
-77.5137
  0
LINE
  8
0
 10
-132.077
 20
-77.5137
 11
-131.987
 21
-77.2841
  0
LINE
  8
0
 10
-131.987
 20
-77.2841
 11
-131.863
 21
-77.0705
  0
LINE
  8
0
 10
-131.863
 20
-77.0705
 11
-131.71
 21
-76.8777
  0
LINE
  8
0
 10
-131.71
 20
-76.8777
 11
-131.529
 21
-76.71
  0
LINE
  8
0
 10
-131.529
 20
-76.71
 11
-131.325
 21
-76.5711
  0
LINE
  8
0
 10
-131.325
 20
-76.5711
 11
-131.103
 21
-76.4641
  0
LINE
  8
0
 10
-131.103
 20
-76.4641
 11
-130.867
 21
-76.3914
  0
LINE
  8
0
 10
-130.867
 20
-76.3914
 11
-130.623
 21
-76.3546
  0
LINE
  8
0
 10
-130.623
 20
-76.3546
 11
-130.377
 21
-76.3546
  0
LINE
  8
0
 10
-130.377
 20
-76.3546
 11
-130.133
 21
-76.3914
  0
LINE
  8
0
 10
-130.133
 20
-76.3914
 11
-129.897
 21
-76.4641
  0
LINE
  8
0
 10
-129.897
 20
-76.4641
 11
-129.675
 21
-76.5711
  0
LINE
  8
0
 10
-129.675
 20
-76.5711
 11
-129.471
 21
-76.71
  0
LINE
  8
0
 10
-129.471
 20
-76.71
 11
-129.29
 21
-76.8777
  0
LINE
  8
0
 10
-129.29
 20
-76.8777
 11
-129.137
 21
-77.0705
  0
LINE
  8
0
 10
-129.137
 20
-77.0705
 11
-129.013
 21
-77.2841
  0
LINE
  8
0
 10
-129.013
 20
-77.2841
 11
-128.923
 21
-77.5137
  0
LINE
  8
0
 10
-128.923
 20
-77.5137
 11
-128.868
 21
-77.7541
  0
LINE
  8
0
 10
-128.868
 20
-77.7541
 11
-128.85
 21
-78
  0
LINE
  8
0
 10
-128.85
 20
-78
 11
-128.868
 21
-78.2459
  0
LINE
  8
0
 10
-128.868
 20
-78.2459
 11
-128.923
 21
-78.4863
  0
LINE
  8
0
 10
-128.923
 20
-78.4863
 11
-129.013
 21
-78.7159
  0
LINE
  8
0
 10
-129.013
 20
-78.7159
 11
-129.137
 21
-78.9295
  0
LINE
  8
0
 10
-129.137
 20
-78.9295
 11
-129.29
 21
-79.1223
  0
LINE
  8
0
 10
-129.29
 20
-79.1223
 11
-129.471
 21
-79.29
  0
LINE
  8
0
 10
-129.471
 20
-79.29
 11
-129.675
 21
-79.4289
  0
LINE
  8
0
 10
-129.675
 20
-79.4289
 11
-129.897
 21
-79.5359
  0
LINE
  8
0
 10
-129.897
 20
-79.5359
 11
-130.133
 21
-79.6086
  0
LINE
  8
0
 10
-130.133
 20
-79.6086
 11
-130.377
 21
-79.6454
  0
LINE
  8
0
 10
-130.377
 20
-79.6454
 11
-130.623
 21
-79.6454
  0
LINE
  8
0
 10
142.191
 20
-101.672
 11
141.951
 21
-101.609
  0
LINE
  8
0
 10
141.951
 20
-101.609
 11
141.723
 21
-101.512
  0
LINE
  8
0
 10
141.723
 20
-101.512
 11
141.511
 21
-101.383
  0
LINE
  8
0
 10
141.511
 20
-101.383
 11
141.32
 21
-101.224
  0
LINE
  8
0
 10
141.32
 20
-101.224
 11
141.154
 21
-101.039
  0
LINE
  8
0
 10
141.154
 20
-101.039
 11
141.018
 21
-100.832
  0
LINE
  8
0
 10
141.018
 20
-100.832
 11
140.912
 21
-100.607
  0
LINE
  8
0
 10
140.912
 20
-100.607
 11
140.841
 21
-100.37
  0
LINE
  8
0
 10
140.841
 20
-100.37
 11
140.805
 21
-100.124
  0
LINE
  8
0
 10
140.805
 20
-100.124
 11
140.805
 21
-99.8759
  0
LINE
  8
0
 10
140.805
 20
-99.8759
 11
140.841
 21
-99.6304
  0
LINE
  8
0
 10
140.841
 20
-99.6304
 11
140.912
 21
-99.3927
  0
LINE
  8
0
 10
140.912
 20
-99.3927
 11
141.018
 21
-99.168
  0
LINE
  8
0
 10
141.018
 20
-99.168
 11
141.154
 21
-98.961
  0
LINE
  8
0
 10
141.154
 20
-98.961
 11
141.32
 21
-98.7762
  0
LINE
  8
0
 10
141.32
 20
-98.7762
 11
141.511
 21
-98.6174
  0
LINE
  8
0
 10
141.511
 20
-98.6174
 11
141.723
 21
-98.4881
  0
LINE
  8
0
 10
141.723
 20
-98.4881
 11
141.951
 21
-98.3911
  0
LINE
  8
0
 10
141.951
 20
-98.3911
 11
142.191
 21
-98.3283
  0
LINE
  8
0
 10
142.191
 20
-98.3283
 11
142.438
 21
-98.3011
  0
LINE
  8
0
 10
142.438
 20
-98.3011
 11
142.686
 21
-98.3102
  0
LINE
  8
0
 10
142.686
 20
-98.3102
 11
142.93
 21
-98.3553
  0
LINE
  8
0
 10
142.93
 20
-98.3553
 11
143.165
 21
-98.4354
  0
LINE
  8
0
 10
143.165
 20
-98.4354
 11
143.386
 21
-98.5489
  0
LINE
  8
0
 10
143.386
 20
-98.5489
 11
143.587
 21
-98.6933
  0
LINE
  8
0
 10
143.587
 20
-98.6933
 11
143.766
 21
-98.8656
  0
LINE
  8
0
 10
143.766
 20
-98.8656
 11
143.918
 21
-99.062
  0
LINE
  8
0
 10
143.918
 20
-99.062
 11
144.039
 21
-99.2784
  0
LINE
  8
0
 10
144.039
 20
-99.2784
 11
144.128
 21
-99.5102
  0
LINE
  8
0
 10
144.128
 20
-99.5102
 11
144.182
 21
-99.7525
  0
LINE
  8
0
 10
144.182
 20
-99.7525
 11
144.2
 21
-100
  0
LINE
  8
0
 10
144.2
 20
-100
 11
144.182
 21
-100.248
  0
LINE
  8
0
 10
144.182
 20
-100.248
 11
144.128
 21
-100.49
  0
LINE
  8
0
 10
144.128
 20
-100.49
 11
144.039
 21
-100.722
  0
LINE
  8
0
 10
144.039
 20
-100.722
 11
143.918
 21
-100.938
  0
LINE
  8
0
 10
143.918
 20
-100.938
 11
143.766
 21
-101.134
  0
LINE
  8
0
 10
143.766
 20
-101.134
 11
143.587
 21
-101.307
  0
LINE
  8
0
 10
143.587
 20
-101.307
 11
143.386
 21
-101.451
  0
LINE
  8
0
 10
143.386
 20
-101.451
 11
143.165
 21
-101.565
  0
LINE
  8
0
 10
143.165
 20
-101.565
 11
142.93
 21
-101.645
  0
LINE
  8
0
 10
142.93
 20
-101.645
 11
142.686
 21
-101.69
  0
LINE
  8
0
 10
142.686
 20
-101.69
 11
142.438
 21
-101.699
  0
LINE
  8
0
 10
142.438
 20
-101.699
 11
142.191
 21
-101.672
  0
LINE
  8
0
 10
-87.6859
 20
-101.69
 11
-87.93
 21
-101.645
  0
LINE
  8
0
 10
-87.93
 20
-101.645
 11
-88.1649
 21
-101.565
  0
LINE
  8
0
 10
-88.1649
 20
-101.565
 11
-88.3856
 21
-101.451
  0
LINE
  8
0
 10
-88.3856
 20
-101.451
 11
-88.5874
 21
-101.307
  0
LINE
  8
0
 10
-88.5874
 20
-101.307
 11
-88.7661
 21
-101.134
  0
LINE
  8
0
 10
-88.7661
 20
-101.134
 11
-88.9178
 21
-100.938
  0
LINE
  8
0
 10
-88.9178
 20
-100.938
 11
-89.0393
 21
-100.722
  0
LINE
  8
0
 10
-89.0393
 20
-100.722
 11
-89.1279
 21
-100.49
  0
LINE
  8
0
 10
-89.1279
 20
-100.49
 11
-89.1819
 21
-100.248
  0
LINE
  8
0
 10
-89.1819
 20
-100.248
 11
-89.2
 21
-100
  0
LINE
  8
0
 10
-89.2
 20
-100
 11
-89.1819
 21
-99.7525
  0
LINE
  8
0
 10
-89.1819
 20
-99.7525
 11
-89.1279
 21
-99.5102
  0
LINE
  8
0
 10
-89.1279
 20
-99.5102
 11
-89.0393
 21
-99.2784
  0
LINE
  8
0
 10
-89.0393
 20
-99.2784
 11
-88.9178
 21
-99.062
  0
LINE
  8
0
 10
-88.9178
 20
-99.062
 11
-88.7661
 21
-98.8656
  0
LINE
  8
0
 10
-88.7661
 20
-98.8656
 11
-88.5874
 21
-98.6933
  0
LINE
  8
0
 10
-88.5874
 20
-98.6933
 11
-88.3856
 21
-98.5489
  0
LINE
  8
0
 10
-88.3856
 20
-98.5489
 11
-88.1649
 21
-98.4354
  0
LINE
  8
0
 10
-88.1649
 20
-98.4354
 11
-87.93
 21
-98.3553
  0
LINE
  8
0
 10
-87.93
 20
-98.3553
 11
-87.6859
 21
-98.3102
  0
LINE
  8
0
 10
-87.6859
 20
-98.3102
 11
-87.4379
 21
-98.3011
  0
LINE
  8
0
 10
-87.4379
 20
-98.3011
 11
-87.1912
 21
-98.3283
  0
LINE
  8
0
 10
-87.1912
 20
-98.3283
 11
-86.9511
 21
-98.3911
  0
LINE
  8
0
 10
-86.9511
 20
-98.3911
 11
-86.7227
 21
-98.4881
  0
LINE
  8
0
 10
-86.7227
 20
-98.4881
 11
-86.5108
 21
-98.6174
  0
LINE
  8
0
 10
-86.5108
 20
-98.6174
 11
-86.3201
 21
-98.7762
  0
LINE
  8
0
 10
-86.3201
 20
-98.7762
 11
-86.1544
 21
-98.961
  0
LINE
  8
0
 10
-86.1544
 20
-98.961
 11
-86.0175
 21
-99.168
  0
LINE
  8
0
 10
-86.0175
 20
-99.168
 11
-85.9122
 21
-99.3927
  0
LINE
  8
0
 10
-85.9122
 20
-99.3927
 11
-85.8407
 21
-99.6304
  0
LINE
  8
0
 10
-85.8407
 20
-99.6304
 11
-85.8045
 21
-99.8759
  0
LINE
  8
0
 10
-85.8045
 20
-99.8759
 11
-85.8045
 21
-100.124
  0
LINE
  8
0
 10
-85.8045
 20
-100.124
 11
-85.8407
 21
-100.37
  0
LINE
  8
0
 10
-85.8407
 20
-100.37
 11
-85.9122
 21
-100.607
  0
LINE
  8
0
 10
-85.9122
 20
-100.607
 11
-86.0175
 21
-100.832
  0
LINE
  8
0
 10
-86.0175
 20
-100.832
 11
-86.1544
 21
-101.039
  0
LINE
  8
0
 10
-86.1544
 20
-101.039
 11
-86.3201
 21
-101.224
  0
LINE
  8
0
 10
-86.3201
 20
-101.224
 11
-86.5108
 21
-101.383
  0
LINE
  8
0
 10
-86.5108
 20
-101.383
 11
-86.7227
 21
-101.512
  0
LINE
  8
0
 10
-86.7227
 20
-101.512
 11
-86.9511
 21
-101.609
  0
LINE
  8
0
 10
-86.9511
 20
-101.609
 11
-87.1912
 21
-101.672
  0
LINE
  8
0
 10
-87.1912
 20
-101.672
 11
-87.4379
 21
-101.699
  0
LINE
  8
0
 10
-87.4379
 20
-101.699
 11
-87.6859
 21
-101.69
  0
LINE
  8
0
 10
-142.686
 20
-101.69
 11
-142.93
 21
-101.645
  0
LINE
  8
0
 10
-142.93
 20
-101.645
 11
-143.165
 21
-101.565
  0
LINE
  8
0
 10
-143.165
 20
-101.565
 11
-143.386
 21
-101.451
  0
LINE
  8
0
 10
-143.386
 20
-101.451
 11
-143.587
 21
-101.307
  0
LINE
  8
0
 10
-143.587
 20
-101.307
 11
-143.766
 21
-101.134
  0
LINE
  8
0
 10
-143.766
 20
-101.134
 11
-143.918
 21
-100.938
  0
LINE
  8
0
 10
-143.918
 20
-100.938
 11
-144.039
 21
-100.722
  0
LINE
  8
0
 10
-144.039
 20
-100.722
 11
-144.128
 21
-100.49
  0
LINE
  8
0
 10
-144.128
 20
-100.49
 11
-144.182
 21
-100.248
  0
LINE
  8
0
 10
-144.182
 20
-100.248
 11
-144.2
 21
-100
  0
LINE
  8
0
 10
-144.2
 20
-100
 11
-144.182
 21
-99.7525
  0
LINE
  8
0
 10
-144.182
 20
-99.7525
 11
-144.128
 21
-99.5102
  0
LINE
  8
0
 10
-144.128
 20
-99.5102
 11
-144.039
 21
-99.2784
  0
LINE
  8
0
 10
-144.039
 20
-99.2784
 11
-143.918
 21
-99.062
  0
LINE
  8
0
 10
-143.918
 20
-99.062
 11
-143.766
 21
-98.8656
  0
LINE
  8
0
 10
-143.766
 20
-98.8656
 11
-143.587
 21
-98.6933
  0
LINE
  8
0
 10
-143.587
 20
-98.6933
 11
-143.386
 21
-98.5489
  0
LINE
  8
0
 10
-143.386
 20
-98.5489
 11
-143.165
 21
-98.4354
  0
LINE
  8
0
 10
-143.165
 20
-98.4354
 11
-142.93
 21
-98.3553
  0
LINE
  8
0
 10
-142.93
 20
-98.3553
 11
-142.686
 21
-98.3102
  0
LINE
  8
0
 10
-142.686
 20
-98.3102
 11
-142.438
 21
-98.3011
  0
LINE
  8
0
 10
-142.438
 20
-98.3011
 11
-142.191
 21
-98.3283
  0
LINE
  8
0
 10
-142.191
 20
-98.3283
 11
-141.951
 21
-98.3911
  0
LINE
  8
0
 10
-141.951
 20
-98.3911
 11
-141.723
 21
-98.4881
  0
LINE
  8
0
 10
-141.723
 20
-98.4881
 11
-141.511
 21
-98.6174
  0
LINE
  8
0
 10
-141.511
 20
-98.6174
 11
-141.32
 21
-98.7762
  0
LINE
  8
0
 10
-141.32
 20
-98.7762
 11
-141.154
 21
-98.961
  0
LINE
  8
0
 10
-141.154
 20
-98.961
 11
-141.018
 21
-99.168
  0
LINE
  8
0
 10
-141.018
 20
-99.168
 11
-140.912
 21
-99.3927
  0
LINE
  8
0
 10
-140.912
 20
-99.3927
 11
-140.841
 21
-99.6304
  0
LINE
  8
0
 10
-140.841
 20
-99.6304
 11
-140.805
 21
-99.8759
  0
LINE
  8
0
 10
-140.805
 20
-99.8759
 11
-140.805
 21
-100.124
  0
LINE
  8
0
 10
-140.805
 20
-100.124
 11
-140.841
 21
-100.37
  0
LINE
  8
0
 10
-140.841
 20
-100.37
 11
-140.912
 21
-100.607
  0
LINE
  8
0
 10
-140.912
 20
-100.607
 11
-141.018
 21
-100.832
  0
LINE
  8
0
 10
-141.018
 20
-100.832
 11
-141.154
 21
-101.039
  0
LINE
  8
0
 10
-141.154
 20
-101.039
 11
-141.32
 21
-101.224
  0
LINE
  8
0
 10
-141.32
 20
-101.224
 11
-141.511
 21
-101.383
  0
LINE
  8
0
 10
-141.511
 20
-101.383
 11
-141.723
 21
-101.512
  0
LINE
  8
0
 10
-141.723
 20
-101.512
 11
-141.951
 21
-101.609
  0
LINE
  8
0
 10
-141.951
 20
-101.609
 11
-142.191
 21
-101.672
  0
LINE
  8
0
 10
-142.191
 20
-101.672
 11
-142.438
 21
-101.699
  0
LINE
  8
0
 10
-142.438
 20
-101.699
 11
-142.686
 21
-101.69
  0
LINE
  8
0
 10
87.1912
 20
-101.672
 11
86.9511
 21
-101.609
  0
LINE
  8
0
 10
86.9511
 20
-101.609
 11
86.7227
 21
-101.512
  0
LINE
  8
0
 10
86.7227
 20
-101.512
 11
86.5108
 21
-101.383
  0
LINE
  8
0
 10
86.5108
 20
-101.383
 11
86.3201
 21
-101.224
  0
LINE
  8
0
 10
86.3201
 20
-101.224
 11
86.1544
 21
-101.039
  0
LINE
  8
0
 10
86.1544
 20
-101.039
 11
86.0175
 21
-100.832
  0
LINE
  8
0
 10
86.0175
 20
-100.832
 11
85.9122
 21
-100.607
  0
LINE
  8
0
 10
85.9122
 20
-100.607
 11
85.8407
 21
-100.37
  0
LINE
  8
0
 10
85.8407
 20
-100.37
 11
85.8045
 21
-100.124
  0
LINE
  8
0
 10
85.8045
 20
-100.124
 11
85.8045
 21
-99.8759
  0
LINE
  8
0
 10
85.8045
 20
-99.8759
 11
85.8407
 21
-99.6304
  0
LINE
  8
0
 10
85.8407
 20
-99.6304
 11
85.9122
 21
-99.3927
  0
LINE
  8
0
 10
85.9122
 20
-99.3927
 11
86.0175
 21
-99.168
  0
LINE
  8
0
 10
86.0175
 20
-99.168
 11
86.1544
 21
-98.961
  0
LINE
  8
0
 10
86.1544
 20
-98.961
 11
86.3201
 21
-98.7762
  0
LINE
  8
0
 10
86.3201
 20
-98.7762
 11
86.5108
 21
-98.6174
  0
LINE
  8
0
 10
86.5108
 20
-98.6174
 11
86.7227
 21
-98.4881
  0
LINE
  8
0
 10
86.7227
 20
-98.4881
 11
86.9511
 21
-98.3911
  0
LINE
  8
0
 10
86.9511
 20
-98.3911
 11
87.1912
 21
-98.3283
  0
LINE
  8
0
 10
87.1912
 20
-98.3283
 11
87.4379
 21
-98.3011
  0
LINE
  8
0
 10
87.4379
 20
-98.3011
 11
87.6859
 21
-98.3102
  0
LINE
  8
0
 10
87.6859
 20
-98.3102
 11
87.93
 21
-98.3553
  0
LINE
  8
0
 10
87.93
 20
-98.3553
 11
88.1649
 21
-98.4354
  0
LINE
  8
0
 10
88.1649
 20
-98.4354
 11
88.3856
 21
-98.5489
  0
LINE
  8
0
 10
88.3856
 20
-98.5489
 11
88.5874
 21
-98.6933
  0
LINE
  8
0
 10
88.5874
 20
-98.6933
 11
88.7661
 21
-98.8656
  0
LINE
  8
0
 10
88.7661
 20
-98.8656
 11
88.9178
 21
-99.062
  0
LINE
  8
0
 10
88.9178
 20
-99.062
 11
89.0393
 21
-99.2784
  0
LINE
  8
0
 10
89.0393
 20
-99.2784
 11
89.1279
 21
-99.5102
  0
LINE
  8
0
 10
89.1279
 20
-99.5102
 11
89.1819
 21
-99.7525
  0
LINE
  8
0
 10
89.1819
 20
-99.7525
 11
89.2
 21
-100
  0
LINE
  8
0
 10
89.2
 20
-100
 11
89.1819
 21
-100.248
  0
LINE
  8
0
 10
89.1819
 20
-100.248
 11
89.1279
 21
-100.49
  0
LINE
  8
0
 10
89.1279
 20
-100.49
 11
89.0393
 21
-100.722
  0
LINE
  8
0
 10
89.0393
 20
-100.722
 11
88.9178
 21
-100.938
  0
LINE
  8
0
 10
88.9178
 20
-100.938
 11
88.7661
 21
-101.134
  0
LINE
  8
0
 10
88.7661
 20
-101.134
 11
88.5874
 21
-101.307
  0
LINE
  8
0
 10
88.5874
 20
-101.307
 11
88.3856
 21
-101.451
  0
LINE
  8
0
 10
88.3856
 20
-101.451
 11
88.1649
 21
-101.565
  0
LINE
  8
0
 10
88.1649
 20
-101.565
 11
87.93
 21
-101.645
  0
LINE
  8
0
 10
87.93
 20
-101.645
 11
87.6859
 21
-101.69
  0
LINE
  8
0
 10
87.6859
 20
-101.69
 11
87.4379
 21
-101.699
  0
LINE
  8
0
 10
87.4379
 20
-101.699
 11
87.1912
 21
-101.672
  0
LINE
  8
0
 10
-142.892
 20
-146.229
 11
-143.28
 21
-146.168
  0
LINE
  8
0
 10
-143.28
 20
-146.168
 11
-143.659
 21
-146.066
  0
LINE
  8
0
 10
-143.659
 20
-146.066
 11
-144.025
 21
-145.926
  0
LINE
  8
0
 10
-144.025
 20
-145.926
 11
-144.375
 21
-145.748
  0
LINE
  8
0
 10
-144.375
 20
-145.748
 11
-144.704
 21
-145.534
  0
LINE
  8
0
 10
-144.704
 20
-145.534
 11
-145.009
 21
-145.287
  0
LINE
  8
0
 10
-145.009
 20
-145.287
 11
-145.287
 21
-145.009
  0
LINE
  8
0
 10
-145.287
 20
-145.009
 11
-145.534
 21
-144.704
  0
LINE
  8
0
 10
-145.534
 20
-144.704
 11
-145.748
 21
-144.375
  0
LINE
  8
0
 10
-145.748
 20
-144.375
 11
-145.926
 21
-144.025
  0
LINE
  8
0
 10
-145.926
 20
-144.025
 11
-146.066
 21
-143.659
  0
LINE
  8
0
 10
-146.066
 20
-143.659
 11
-146.168
 21
-143.28
  0
LINE
  8
0
 10
-146.168
 20
-143.28
 11
-146.229
 21
-142.892
  0
LINE
  8
0
 10
-146.229
 20
-142.892
 11
-146.25
 21
-142.5
  0
LINE
  8
0
 10
-146.25
 20
-142.5
 11
-146.229
 21
-142.108
  0
LINE
  8
0
 10
-146.229
 20
-142.108
 11
-146.168
 21
-141.72
  0
LINE
  8
0
 10
-146.168
 20
-141.72
 11
-146.066
 21
-141.341
  0
LINE
  8
0
 10
-146.066
 20
-141.341
 11
-145.926
 21
-140.975
  0
LINE
  8
0
 10
-145.926
 20
-140.975
 11
-145.748
 21
-140.625
  0
LINE
  8
0
 10
-145.748
 20
-140.625
 11
-145.534
 21
-140.296
  0
LINE
  8
0
 10
-145.534
 20
-140.296
 11
-145.287
 21
-139.991
  0
LINE
  8
0
 10
-145.287
 20
-139.991
 11
-145.009
 21
-139.713
  0
LINE
  8
0
 10
-145.009
 20
-139.713
 11
-144.704
 21
-139.466
  0
LINE
  8
0
 10
-144.704
 20
-139.466
 11
-144.375
 21
-139.252
  0
LINE
  8
0
 10
-144.375
 20
-139.252
 11
-144.025
 21
-139.074
  0
LINE
  8
0
 10
-144.025
 20
-139.074
 11
-143.659
 21
-138.934
  0
LINE
  8
0
 10
-143.659
 20
-138.934
 11
-143.28
 21
-138.832
  0
LINE
  8
0
 10
-143.28
 20
-138.832
 11
-142.892
 21
-138.771
  0
LINE
  8
0
 10
-142.892
 20
-138.771
 11
-142.5
 21
-138.75
  0
LINE
  8
0
 10
-142.5
 20
-138.75
 11
-142.108
 21
-138.771
  0
LINE
  8
0
 10
-142.108
 20
-138.771
 11
-141.72
 21
-138.832
  0
LINE
  8
0
 10
-141.72
 20
-138.832
 11
-141.341
 21
-138.934
  0
LINE
  8
0
 10
-141.341
 20
-138.934
 11
-140.975
 21
-139.074
  0
LINE
  8
0
 10
-140.975
 20
-139.074
 11
-140.625
 21
-139.252
  0
LINE
  8
0
 10
-140.625
 20
-139.252
 11
-140.296
 21
-139.466
  0
LINE
  8
0
 10
-140.296
 20
-139.466
 11
-139.991
 21
-139.713
  0
LINE
  8
0
 10
-139.991
 20
-139.713
 11
-139.713
 21
-139.991
  0
LINE
  8
0
 10
-139.713
 20
-139.991
 11
-139.466
 21
-140.296
  0
LINE
  8
0
 10
-139.466
 20
-140.296
 11
-139.252
 21
-140.625
  0
LINE
  8
0
 10
-139.252
 20
-140.625
 11
-139.074
 21
-140.975
  0
LINE
  8
0
 10
-139.074
 20
-140.975
 11
-138.934
 21
-141.341
  0
LINE
  8
0
 10
-138.934
 20
-141.341
 11
-138.832
 21
-141.72
  0
LINE
  8
0
 10
-138.832
 20
-141.72
 11
-138.771
 21
-142.108
  0
LINE
  8
0
 10
-138.771
 20
-142.108
 11
-138.75
 21
-142.5
  0
LINE
  8
0
 10
-138.75
 20
-142.5
 11
-138.771
 21
-142.892
  0
LINE
  8
0
 10
-138.771
 20
-142.892
 11
-138.832
 21
-143.28
  0
LINE
  8
0
 10
-138.832
 20
-143.28
 11
-138.934
 21
-143.659
  0
LINE
  8
0
 10
-138.934
 20
-143.659
 11
-139.074
 21
-144.025
  0
LINE
  8
0
 10
-139.074
 20
-144.025
 11
-139.252
 21
-144.375
  0
LINE
  8
0
 10
-139.252
 20
-144.375
 11
-139.466
 21
-144.704
  0
LINE
  8
0
 10
-139.466
 20
-144.704
 11
-139.713
 21
-145.009
  0
LINE
  8
0
 10
-139.713
 20
-145.009
 11
-139.991
 21
-145.287
  0
LINE
  8
0
 10
-139.991
 20
-145.287
 11
-140.296
 21
-145.534
  0
LINE
  8
0
 10
-140.296
 20
-145.534
 11
-140.625
 21
-145.748
  0
LINE
  8
0
 10
-140.625
 20
-145.748
 11
-140.975
 21
-145.926
  0
LINE
  8
0
 10
-140.975
 20
-145.926
 11
-141.341
 21
-146.066
  0
LINE
  8
0
 10
-141.341
 20
-146.066
 11
-141.72
 21
-146.168
  0
LINE
  8
0
 10
-141.72
 20
-146.168
 11
-142.108
 21
-146.229
  0
LINE
  8
0
 10
-142.108
 20
-146.229
 11
-142.5
 21
-146.25
  0
LINE
  8
0
 10
-142.5
 20
-146.25
 11
-142.892
 21
-146.229
  0
LINE
  8
0
 10
142.108
 20
-146.229
 11
141.72
 21
-146.168
  0
LINE
  8
0
 10
141.72
 20
-146.168
 11
141.341
 21
-146.066
  0
LINE
  8
0
 10
141.341
 20
-146.066
 11
140.975
 21
-145.926
  0
LINE
  8
0
 10
140.975
 20
-145.926
 11
140.625
 21
-145.748
  0
LINE
  8
0
 10
140.625
 20
-145.748
 11
140.296
 21
-145.534
  0
LINE
  8
0
 10
140.296
 20
-145.534
 11
139.991
 21
-145.287
  0
LINE
  8
0
 10
139.991
 20
-145.287
 11
139.713
 21
-145.009
  0
LINE
  8
0
 10
139.713
 20
-145.009
 11
139.466
 21
-144.704
  0
LINE
  8
0
 10
139.466
 20
-144.704
 11
139.252
 21
-144.375
  0
LINE
  8
0
 10
139.252
 20
-144.375
 11
139.074
 21
-144.025
  0
LINE
  8
0
 10
139.074
 20
-144.025
 11
138.934
 21
-143.659
  0
LINE
  8
0
 10
138.934
 20
-143.659
 11
138.832
 21
-143.28
  0
LINE
  8
0
 10
138.832
 20
-143.28
 11
138.771
 21
-142.892
  0
LINE
  8
0
 10
138.771
 20
-142.892
 11
138.75
 21
-142.5
  0
LINE
  8
0
 10
138.75
 20
-142.5
 11
138.771
 21
-142.108
  0
LINE
  8
0
 10
138.771
 20
-142.108
 11
138.832
 21
-141.72
  0
LINE
  8
0
 10
138.832
 20
-141.72
 11
138.934
 21
-141.341
  0
LINE
  8
0
 10
138.934
 20
-141.341
 11
139.074
 21
-140.975
  0
LINE
  8
0
 10
139.074
 20
-140.975
 11
139.252
 21
-140.625
  0
LINE
  8
0
 10
139.252
 20
-140.625
 11
139.466
 21
-140.296
  0
LINE
  8
0
 10
139.466
 20
-140.296
 11
139.713
 21
-139.991
  0
LINE
  8
0
 10
139.713
 20
-139.991
 11
139.991
 21
-139.713
  0
LINE
  8
0
 10
139.991
 20
-139.713
 11
140.296
 21
-139.466
  0
LINE
  8
0
 10
140.296
 20
-139.466
 11
140.625
 21
-139.252
  0
LINE
  8
0
 10
140.625
 20
-139.252
 11
140.975
 21
-139.074
  0
LINE
  8
0
 10
140.975
 20
-139.074
 11
141.341
 21
-138.934
  0
LINE
  8
0
 10
141.341
 20
-138.934
 11
141.72
 21
-138.832
  0
LINE
  8
0
 10
141.72
 20
-138.832
 11
142.108
 21
-138.771
  0
LINE
  8
0
 10
142.108
 20
-138.771
 11
142.5
 21
-138.75
  0
LINE
  8
0
 10
142.5
 20
-138.75
 11
142.892
 21
-138.771
  0
LINE
  8
0
 10
142.892
 20
-138.771
 11
143.28
 21
-138.832
  0
LINE
  8
0
 10
143.28
 20
-138.832
 11
143.659
 21
-138.934
  0
LINE
  8
0
 10
143.659
 20
-138.934
 11
144.025
 21
-139.074
  0
LINE
  8
0
 10
144.025
 20
-139.074
 11
144.375
 21
-139.252
  0
LINE
  8
0
 10
144.375
 20
-139.252
 11
144.704
 21
-139.466
  0
LINE
  8
0
 10
144.704
 20
-139.466
 11
145.009
 21
-139.713
  0
LINE
  8
0
 10
145.009
 20
-139.713
 11
145.287
 21
-139.991
  0
LINE
  8
0
 10
145.287
 20
-139.991
 11
145.534
 21
-140.296
  0
LINE
  8
0
 10
145.534
 20
-140.296
 11
145.748
 21
-140.625
  0
LINE
  8
0
 10
145.748
 20
-140.625
 11
145.926
 21
-140.975
  0
LINE
  8
0
 10
145.926
 20
-140.975
 11
146.066
 21
-141.341
  0
LINE
  8
0
 10
146.066
 20
-141.341
 11
146.168
 21
-141.72
  0
LINE
  8
0
 10
146.168
 20
-141.72
 11
146.229
 21
-142.108
  0
LINE
  8
0
 10
146.229
 20
-142.108
 11
146.25
 21
-142.5
  0
LINE
  8
0
 10
146.25
 20
-142.5
 11
146.229
 21
-142.892
  0
LINE
  8
0
 10
146.229
 20
-142.892
 11
146.168
 21
-143.28
  0
LINE
  8
0
 10
146.168
 20
-143.28
 11
146.066
 21
-143.659
  0
LINE
  8
0
 10
146.066
 20
-143.659
 11
145.926
 21
-144.025
  0
LINE
  8
0
 10
145.926
 20
-144.025
 11
145.748
 21
-144.375
  0
LINE
  8
0
 10
145.748
 20
-144.375
 11
145.534
 21
-144.704
  0
LINE
  8
0
 10
145.534
 20
-144.704
 11
145.287
 21
-145.009
  0
LINE
  8
0
 10
145.287
 20
-145.009
 11
145.009
 21
-145.287
  0
LINE
  8
0
 10
145.009
 20
-145.287
 11
144.704
 21
-145.534
  0
LINE
  8
0
 10
144.704
 20
-145.534
 11
144.375
 21
-145.748
  0
LINE
  8
0
 10
144.375
 20
-145.748
 11
144.025
 21
-145.926
  0
LINE
  8
0
 10
144.025
 20
-145.926
 11
143.659
 21
-146.066
  0
LINE
  8
0
 10
143.659
 20
-146.066
 11
143.28
 21
-146.168
  0
LINE
  8
0
 10
143.28
 20
-146.168
 11
142.892
 21
-146.229
  0
LINE
  8
0
 10
142.892
 20
-146.229
 11
142.5
 21
-146.25
  0
LINE
  8
0
 10
142.5
 20
-146.25
 11
142.108
 21
-146.229
  0
LINE
  8
0
 10
-100.309
 20
-144.172
 11
-100.549
 21
-144.109
  0
LINE
  8
0
 10
-100.549
 20
-144.109
 11
-100.777
 21
-144.012
  0
LINE
  8
0
 10
-100.777
 20
-144.012
 11
-100.989
 21
-143.883
  0
LINE
  8
0
 10
-100.989
 20
-143.883
 11
-101.18
 21
-143.724
  0
LINE
  8
0
 10
-101.18
 20
-143.724
 11
-101.346
 21
-143.539
  0
LINE
  8
0
 10
-101.346
 20
-143.539
 11
-101.482
 21
-143.332
  0
LINE
  8
0
 10
-101.482
 20
-143.332
 11
-101.588
 21
-143.107
  0
LINE
  8
0
 10
-101.588
 20
-143.107
 11
-101.659
 21
-142.87
  0
LINE
  8
0
 10
-101.659
 20
-142.87
 11
-101.695
 21
-142.624
  0
LINE
  8
0
 10
-101.695
 20
-142.624
 11
-101.695
 21
-142.376
  0
LINE
  8
0
 10
-101.695
 20
-142.376
 11
-101.659
 21
-142.13
  0
LINE
  8
0
 10
-101.659
 20
-142.13
 11
-101.588
 21
-141.893
  0
LINE
  8
0
 10
-101.588
 20
-141.893
 11
-101.482
 21
-141.668
  0
LINE
  8
0
 10
-101.482
 20
-141.668
 11
-101.346
 21
-141.461
  0
LINE
  8
0
 10
-101.346
 20
-141.461
 11
-101.18
 21
-141.276
  0
LINE
  8
0
 10
-101.18
 20
-141.276
 11
-100.989
 21
-141.117
  0
LINE
  8
0
 10
-100.989
 20
-141.117
 11
-100.777
 21
-140.988
  0
LINE
  8
0
 10
-100.777
 20
-140.988
 11
-100.549
 21
-140.891
  0
LINE
  8
0
 10
-100.549
 20
-140.891
 11
-100.309
 21
-140.828
  0
LINE
  8
0
 10
-100.309
 20
-140.828
 11
-100.062
 21
-140.801
  0
LINE
  8
0
 10
-100.062
 20
-140.801
 11
-99.8141
 21
-140.81
  0
LINE
  8
0
 10
-99.8141
 20
-140.81
 11
-99.57
 21
-140.855
  0
LINE
  8
0
 10
-99.57
 20
-140.855
 11
-99.3351
 21
-140.935
  0
LINE
  8
0
 10
-99.3351
 20
-140.935
 11
-99.1144
 21
-141.049
  0
LINE
  8
0
 10
-99.1144
 20
-141.049
 11
-98.9126
 21
-141.193
  0
LINE
  8
0
 10
-98.9126
 20
-141.193
 11
-98.7339
 21
-141.366
  0
LINE
  8
0
 10
-98.7339
 20
-141.366
 11
-98.5822
 21
-141.562
  0
LINE
  8
0
 10
-98.5822
 20
-141.562
 11
-98.4607
 21
-141.778
  0
LINE
  8
0
 10
-98.4607
 20
-141.778
 11
-98.3721
 21
-142.01
  0
LINE
  8
0
 10
-98.3721
 20
-142.01
 11
-98.3181
 21
-142.252
  0
LINE
  8
0
 10
-98.3181
 20
-142.252
 11
-98.3
 21
-142.5
  0
LINE
  8
0
 10
-98.3
 20
-142.5
 11
-98.3181
 21
-142.748
  0
LINE
  8
0
 10
-98.3181
 20
-142.748
 11
-98.3721
 21
-142.99
  0
LINE
  8
0
 10
-98.3721
 20
-142.99
 11
-98.4607
 21
-143.222
  0
LINE
  8
0
 10
-98.4607
 20
-143.222
 11
-98.5822
 21
-143.438
  0
LINE
  8
0
 10
-98.5822
 20
-143.438
 11
-98.7339
 21
-143.634
  0
LINE
  8
0
 10
-98.7339
 20
-143.634
 11
-98.9126
 21
-143.807
  0
LINE
  8
0
 10
-98.9126
 20
-143.807
 11
-99.1144
 21
-143.951
  0
LINE
  8
0
 10
-99.1144
 20
-143.951
 11
-99.3351
 21
-144.065
  0
LINE
  8
0
 10
-99.3351
 20
-144.065
 11
-99.57
 21
-144.145
  0
LINE
  8
0
 10
-99.57
 20
-144.145
 11
-99.8141
 21
-144.19
  0
LINE
  8
0
 10
-99.8141
 20
-144.19
 11
-100.062
 21
-144.199
  0
LINE
  8
0
 10
-100.062
 20
-144.199
 11
-100.309
 21
-144.172
  0
LINE
  8
0
 10
99.6912
 20
-144.172
 11
99.4511
 21
-144.109
  0
LINE
  8
0
 10
99.4511
 20
-144.109
 11
99.2227
 21
-144.012
  0
LINE
  8
0
 10
99.2227
 20
-144.012
 11
99.0108
 21
-143.883
  0
LINE
  8
0
 10
99.0108
 20
-143.883
 11
98.8201
 21
-143.724
  0
LINE
  8
0
 10
98.8201
 20
-143.724
 11
98.6544
 21
-143.539
  0
LINE
  8
0
 10
98.6544
 20
-143.539
 11
98.5175
 21
-143.332
  0
LINE
  8
0
 10
98.5175
 20
-143.332
 11
98.4122
 21
-143.107
  0
LINE
  8
0
 10
98.4122
 20
-143.107
 11
98.3407
 21
-142.87
  0
LINE
  8
0
 10
98.3407
 20
-142.87
 11
98.3045
 21
-142.624
  0
LINE
  8
0
 10
98.3045
 20
-142.624
 11
98.3045
 21
-142.376
  0
LINE
  8
0
 10
98.3045
 20
-142.376
 11
98.3407
 21
-142.13
  0
LINE
  8
0
 10
98.3407
 20
-142.13
 11
98.4122
 21
-141.893
  0
LINE
  8
0
 10
98.4122
 20
-141.893
 11
98.5175
 21
-141.668
  0
LINE
  8
0
 10
98.5175
 20
-141.668
 11
98.6544
 21
-141.461
  0
LINE
  8
0
 10
98.6544
 20
-141.461
 11
98.8201
 21
-141.276
  0
LINE
  8
0
 10
98.8201
 20
-141.276
 11
99.0108
 21
-141.117
  0
LINE
  8
0
 10
99.0108
 20
-141.117
 11
99.2227
 21
-140.988
  0
LINE
  8
0
 10
99.2227
 20
-140.988
 11
99.4511
 21
-140.891
  0
LINE
  8
0
 10
99.4511
 20
-140.891
 11
99.6912
 21
-140.828
  0
LINE
  8
0
 10
99.6912
 20
-140.828
 11
99.9379
 21
-140.801
  0
LINE
  8
0
 10
99.9379
 20
-140.801
 11
100.186
 21
-140.81
  0
LINE
  8
0
 10
100.186
 20
-140.81
 11
100.43
 21
-140.855
  0
LINE
  8
0
 10
100.43
 20
-140.855
 11
100.665
 21
-140.935
  0
LINE
  8
0
 10
100.665
 20
-140.935
 11
100.886
 21
-141.049
  0
LINE
  8
0
 10
100.886
 20
-141.049
 11
101.087
 21
-141.193
  0
LINE
  8
0
 10
101.087
 20
-141.193
 11
101.266
 21
-141.366
  0
LINE
  8
0
 10
101.266
 20
-141.366
 11
101.418
 21
-141.562
  0
LINE
  8
0
 10
101.418
 20
-141.562
 11
101.539
 21
-141.778
  0
LINE
  8
0
 10
101.539
 20
-141.778
 11
101.628
 21
-142.01
  0
LINE
  8
0
 10
101.628
 20
-142.01
 11
101.682
 21
-142.252
  0
LINE
  8
0
 10
101.682
 20
-142.252
 11
101.7
 21
-142.5
  0
LINE
  8
0
 10
101.7
 20
-142.5
 11
101.682
 21
-142.748
  0
LINE
  8
0
 10
101.682
 20
-142.748
 11
101.628
 21
-142.99
  0
LINE
  8
0
 10
101.628
 20
-142.99
 11
101.539
 21
-143.222
  0
LINE
  8
0
 10
101.539
 20
-143.222
 11
101.418
 21
-143.438
  0
LINE
  8
0
 10
101.418
 20
-143.438
 11
101.266
 21
-143.634
  0
LINE
  8
0
 10
101.266
 20
-143.634
 11
101.087
 21
-143.807
  0
LINE
  8
0
 10
101.087
 20
-143.807
 11
100.886
 21
-143.951
  0
LINE
  8
0
 10
100.886
 20
-143.951
 11
100.665
 21
-144.065
  0
LINE
  8
0
 10
100.665
 20
-144.065
 11
100.43
 21
-144.145
  0
LINE
  8
0
 10
100.43
 20
-144.145
 11
100.186
 21
-144.19
  0
LINE
  8
0
 10
100.186
 20
-144.19
 11
99.9379
 21
-144.199
  0
LINE
  8
0
 10
99.9379
 20
-144.199
 11
99.6912
 21
-144.172
  0
LINE
  8
0
 10
-0.308777
 20
-144.172
 11
-0.548889
 21
-144.109
  0
LINE
  8
0
 10
-0.548889
 20
-144.109
 11
-0.777298
 21
-144.012
  0
LINE
  8
0
 10
-0.777298
 20
-144.012
 11
-0.989151
 21
-143.883
  0
LINE
  8
0
 10
-0.989151
 20
-143.883
 11
-1.17992
 21
-143.724
  0
LINE
  8
0
 10
-1.17992
 20
-143.724
 11
-1.34554
 21
-143.539
  0
LINE
  8
0
 10
-1.34554
 20
-143.539
 11
-1.48248
 21
-143.332
  0
LINE
  8
0
 10
-1.48248
 20
-143.332
 11
-1.58781
 21
-143.107
  0
LINE
  8
0
 10
-1.58781
 20
-143.107
 11
-1.65932
 21
-142.87
  0
LINE
  8
0
 10
-1.65932
 20
-142.87
 11
-1.69545
 21
-142.624
  0
LINE
  8
0
 10
-1.69545
 20
-142.624
 11
-1.69545
 21
-142.376
  0
LINE
  8
0
 10
-1.69545
 20
-142.376
 11
-1.65932
 21
-142.13
  0
LINE
  8
0
 10
-1.65932
 20
-142.13
 11
-1.58781
 21
-141.893
  0
LINE
  8
0
 10
-1.58781
 20
-141.893
 11
-1.48248
 21
-141.668
  0
LINE
  8
0
 10
-1.48248
 20
-141.668
 11
-1.34554
 21
-141.461
  0
LINE
  8
0
 10
-1.34554
 20
-141.461
 11
-1.17992
 21
-141.276
  0
LINE
  8
0
 10
-1.17992
 20
-141.276
 11
-0.989151
 21
-141.117
  0
LINE
  8
0
 10
-0.989151
 20
-141.117
 11
-0.777298
 21
-140.988
  0
LINE
  8
0
 10
-0.777298
 20
-140.988
 11
-0.548889
 21
-140.891
  0
LINE
  8
0
 10
-0.548889
 20
-140.891
 11
-0.308777
 21
-140.828
  0
LINE
  8
0
 10
-0.308777
 20
-140.828
 11
-0.0620728
 21
-140.801
  0
LINE
  8
0
 10
-0.0620728
 20
-140.801
 11
0.185928
 21
-140.81
  0
LINE
  8
0
 10
0.185928
 20
-140.81
 11
0.429977
 21
-140.855
  0
LINE
  8
0
 10
0.429977
 20
-140.855
 11
0.664871
 21
-140.935
  0
LINE
  8
0
 10
0.664871
 20
-140.935
 11
0.88559
 21
-141.049
  0
LINE
  8
0
 10
0.88559
 20
-141.049
 11
1.08743
 21
-141.193
  0
LINE
  8
0
 10
1.08743
 20
-141.193
 11
1.2661
 21
-141.366
  0
LINE
  8
0
 10
1.2661
 20
-141.366
 11
1.41779
 21
-141.562
  0
LINE
  8
0
 10
1.41779
 20
-141.562
 11
1.53926
 21
-141.778
  0
LINE
  8
0
 10
1.53926
 20
-141.778
 11
1.62791
 21
-142.01
  0
LINE
  8
0
 10
1.62791
 20
-142.01
 11
1.68187
 21
-142.252
  0
LINE
  8
0
 10
1.68187
 20
-142.252
 11
1.7
 21
-142.5
  0
LINE
  8
0
 10
1.7
 20
-142.5
 11
1.68187
 21
-142.748
  0
LINE
  8
0
 10
1.68187
 20
-142.748
 11
1.62791
 21
-142.99
  0
LINE
  8
0
 10
1.62791
 20
-142.99
 11
1.53926
 21
-143.222
  0
LINE
  8
0
 10
1.53926
 20
-143.222
 11
1.41779
 21
-143.438
  0
LINE
  8
0
 10
1.41779
 20
-143.438
 11
1.2661
 21
-143.634
  0
LINE
  8
0
 10
1.2661
 20
-143.634
 11
1.08743
 21
-143.807
  0
LINE
  8
0
 10
1.08743
 20
-143.807
 11
0.88559
 21
-143.951
  0
LINE
  8
0
 10
0.88559
 20
-143.951
 11
0.664871
 21
-144.065
  0
LINE
  8
0
 10
0.664871
 20
-144.065
 11
0.429977
 21
-144.145
  0
LINE
  8
0
 10
0.429977
 20
-144.145
 11
0.185928
 21
-144.19
  0
LINE
  8
0
 10
0.185928
 20
-144.19
 11
-0.0620728
 21
-144.199
  0
LINE
  8
0
 10
-0.0620728
 20
-144.199
 11
-0.308777
 21
-144.172
  0
ENDSEC
  0
SECTION
  2
OBJECTS
  0
DICTIONARY
  0
ENDSEC
  0
EOF
