  0
SECTION
  2
BLOCKS
  0
ENDSEC
  0
SECTION
  2
ENTITIES
  0
LINE
  8
0
 10
145.398
 20
-149.848
 11
145.915
 21
-149.766
  0
LINE
  8
0
 10
145.915
 20
-149.766
 11
146.42
 21
-149.63
  0
LINE
  8
0
 10
146.42
 20
-149.63
 11
146.909
 21
-149.443
  0
LINE
  8
0
 10
146.909
 20
-149.443
 11
147.375
 21
-149.205
  0
LINE
  8
0
 10
147.375
 20
-149.205
 11
147.814
 21
-148.92
  0
LINE
  8
0
 10
147.814
 20
-148.92
 11
148.221
 21
-148.591
  0
LINE
  8
0
 10
148.221
 20
-148.591
 11
148.591
 21
-148.221
  0
LINE
  8
0
 10
148.591
 20
-148.221
 11
148.92
 21
-147.814
  0
LINE
  8
0
 10
148.92
 20
-147.814
 11
149.205
 21
-147.375
  0
LINE
  8
0
 10
149.205
 20
-147.375
 11
149.443
 21
-146.909
  0
LINE
  8
0
 10
149.443
 20
-146.909
 11
149.63
 21
-146.42
  0
LINE
  8
0
 10
149.63
 20
-146.42
 11
149.766
 21
-145.915
  0
LINE
  8
0
 10
149.766
 20
-145.915
 11
149.848
 21
-145.398
  0
LINE
  8
0
 10
149.848
 20
-145.398
 11
149.875
 21
-144.875
  0
LINE
  8
0
 10
149.875
 20
-144.875
 11
149.875
 21
144.875
  0
LINE
  8
0
 10
149.875
 20
144.875
 11
149.848
 21
145.398
  0
LINE
  8
0
 10
149.848
 20
145.398
 11
149.766
 21
145.915
  0
LINE
  8
0
 10
149.766
 20
145.915
 11
149.63
 21
146.42
  0
LINE
  8
0
 10
149.63
 20
146.42
 11
149.443
 21
146.909
  0
LINE
  8
0
 10
149.443
 20
146.909
 11
149.205
 21
147.375
  0
LINE
  8
0
 10
149.205
 20
147.375
 11
148.92
 21
147.814
  0
LINE
  8
0
 10
148.92
 20
147.814
 11
148.591
 21
148.221
  0
LINE
  8
0
 10
148.591
 20
148.221
 11
148.221
 21
148.591
  0
LINE
  8
0
 10
148.221
 20
148.591
 11
147.814
 21
148.92
  0
LINE
  8
0
 10
147.814
 20
148.92
 11
147.375
 21
149.205
  0
LINE
  8
0
 10
147.375
 20
149.205
 11
146.909
 21
149.443
  0
LINE
  8
0
 10
146.909
 20
149.443
 11
146.42
 21
149.63
  0
LINE
  8
0
 10
146.42
 20
149.63
 11
145.915
 21
149.766
  0
LINE
  8
0
 10
145.915
 20
149.766
 11
145.398
 21
149.848
  0
LINE
  8
0
 10
145.398
 20
149.848
 11
144.875
 21
149.875
  0
LINE
  8
0
 10
144.875
 20
149.875
 11
-144.875
 21
149.875
  0
LINE
  8
0
 10
-144.875
 20
149.875
 11
-145.398
 21
149.848
  0
LINE
  8
0
 10
-145.398
 20
149.848
 11
-145.915
 21
149.766
  0
LINE
  8
0
 10
-145.915
 20
149.766
 11
-146.42
 21
149.63
  0
LINE
  8
0
 10
-146.42
 20
149.63
 11
-146.909
 21
149.443
  0
LINE
  8
0
 10
-146.909
 20
149.443
 11
-147.375
 21
149.205
  0
LINE
  8
0
 10
-147.375
 20
149.205
 11
-147.814
 21
148.92
  0
LINE
  8
0
 10
-147.814
 20
148.92
 11
-148.221
 21
148.591
  0
LINE
  8
0
 10
-148.221
 20
148.591
 11
-148.591
 21
148.221
  0
LINE
  8
0
 10
-148.591
 20
148.221
 11
-148.92
 21
147.814
  0
LINE
  8
0
 10
-148.92
 20
147.814
 11
-149.205
 21
147.375
  0
LINE
  8
0
 10
-149.205
 20
147.375
 11
-149.443
 21
146.909
  0
LINE
  8
0
 10
-149.443
 20
146.909
 11
-149.63
 21
146.42
  0
LINE
  8
0
 10
-149.63
 20
146.42
 11
-149.766
 21
145.915
  0
LINE
  8
0
 10
-149.766
 20
145.915
 11
-149.848
 21
145.398
  0
LINE
  8
0
 10
-149.848
 20
145.398
 11
-149.875
 21
144.875
  0
LINE
  8
0
 10
-149.875
 20
144.875
 11
-149.875
 21
-144.875
  0
LINE
  8
0
 10
-149.875
 20
-144.875
 11
-149.848
 21
-145.398
  0
LINE
  8
0
 10
-149.848
 20
-145.398
 11
-149.766
 21
-145.915
  0
LINE
  8
0
 10
-149.766
 20
-145.915
 11
-149.63
 21
-146.42
  0
LINE
  8
0
 10
-149.63
 20
-146.42
 11
-149.443
 21
-146.909
  0
LINE
  8
0
 10
-149.443
 20
-146.909
 11
-149.205
 21
-147.375
  0
LINE
  8
0
 10
-149.205
 20
-147.375
 11
-148.92
 21
-147.814
  0
LINE
  8
0
 10
-148.92
 20
-147.814
 11
-148.591
 21
-148.221
  0
LINE
  8
0
 10
-148.591
 20
-148.221
 11
-148.221
 21
-148.591
  0
LINE
  8
0
 10
-148.221
 20
-148.591
 11
-147.814
 21
-148.92
  0
LINE
  8
0
 10
-147.814
 20
-148.92
 11
-147.375
 21
-149.205
  0
LINE
  8
0
 10
-147.375
 20
-149.205
 11
-146.909
 21
-149.443
  0
LINE
  8
0
 10
-146.909
 20
-149.443
 11
-146.42
 21
-149.63
  0
LINE
  8
0
 10
-146.42
 20
-149.63
 11
-145.915
 21
-149.766
  0
LINE
  8
0
 10
-145.915
 20
-149.766
 11
-145.398
 21
-149.848
  0
LINE
  8
0
 10
-145.398
 20
-149.848
 11
-144.875
 21
-149.875
  0
LINE
  8
0
 10
-144.875
 20
-149.875
 11
144.875
 21
-149.875
  0
LINE
  8
0
 10
144.875
 20
-149.875
 11
145.398
 21
-149.848
  0
LINE
  8
0
 10
142.108
 20
138.771
 11
141.72
 21
138.832
  0
LINE
  8
0
 10
141.72
 20
138.832
 11
141.341
 21
138.934
  0
LINE
  8
0
 10
141.341
 20
138.934
 11
140.975
 21
139.074
  0
LINE
  8
0
 10
140.975
 20
139.074
 11
140.625
 21
139.252
  0
LINE
  8
0
 10
140.625
 20
139.252
 11
140.296
 21
139.466
  0
LINE
  8
0
 10
140.296
 20
139.466
 11
139.991
 21
139.713
  0
LINE
  8
0
 10
139.991
 20
139.713
 11
139.713
 21
139.991
  0
LINE
  8
0
 10
139.713
 20
139.991
 11
139.466
 21
140.296
  0
LINE
  8
0
 10
139.466
 20
140.296
 11
139.252
 21
140.625
  0
LINE
  8
0
 10
139.252
 20
140.625
 11
139.074
 21
140.975
  0
LINE
  8
0
 10
139.074
 20
140.975
 11
138.934
 21
141.341
  0
LINE
  8
0
 10
138.934
 20
141.341
 11
138.832
 21
141.72
  0
LINE
  8
0
 10
138.832
 20
141.72
 11
138.771
 21
142.108
  0
LINE
  8
0
 10
138.771
 20
142.108
 11
138.75
 21
142.5
  0
LINE
  8
0
 10
138.75
 20
142.5
 11
138.771
 21
142.892
  0
LINE
  8
0
 10
138.771
 20
142.892
 11
138.832
 21
143.28
  0
LINE
  8
0
 10
138.832
 20
143.28
 11
138.934
 21
143.659
  0
LINE
  8
0
 10
138.934
 20
143.659
 11
139.074
 21
144.025
  0
LINE
  8
0
 10
139.074
 20
144.025
 11
139.252
 21
144.375
  0
LINE
  8
0
 10
139.252
 20
144.375
 11
139.466
 21
144.704
  0
LINE
  8
0
 10
139.466
 20
144.704
 11
139.713
 21
145.009
  0
LINE
  8
0
 10
139.713
 20
145.009
 11
139.991
 21
145.287
  0
LINE
  8
0
 10
139.991
 20
145.287
 11
140.296
 21
145.534
  0
LINE
  8
0
 10
140.296
 20
145.534
 11
140.625
 21
145.748
  0
LINE
  8
0
 10
140.625
 20
145.748
 11
140.975
 21
145.926
  0
LINE
  8
0
 10
140.975
 20
145.926
 11
141.341
 21
146.066
  0
LINE
  8
0
 10
141.341
 20
146.066
 11
141.72
 21
146.168
  0
LINE
  8
0
 10
141.72
 20
146.168
 11
142.108
 21
146.229
  0
LINE
  8
0
 10
142.108
 20
146.229
 11
142.5
 21
146.25
  0
LINE
  8
0
 10
142.5
 20
146.25
 11
142.892
 21
146.229
  0
LINE
  8
0
 10
142.892
 20
146.229
 11
143.28
 21
146.168
  0
LINE
  8
0
 10
143.28
 20
146.168
 11
143.659
 21
146.066
  0
LINE
  8
0
 10
143.659
 20
146.066
 11
144.025
 21
145.926
  0
LINE
  8
0
 10
144.025
 20
145.926
 11
144.375
 21
145.748
  0
LINE
  8
0
 10
144.375
 20
145.748
 11
144.704
 21
145.534
  0
LINE
  8
0
 10
144.704
 20
145.534
 11
145.009
 21
145.287
  0
LINE
  8
0
 10
145.009
 20
145.287
 11
145.287
 21
145.009
  0
LINE
  8
0
 10
145.287
 20
145.009
 11
145.534
 21
144.704
  0
LINE
  8
0
 10
145.534
 20
144.704
 11
145.748
 21
144.375
  0
LINE
  8
0
 10
145.748
 20
144.375
 11
145.926
 21
144.025
  0
LINE
  8
0
 10
145.926
 20
144.025
 11
146.066
 21
143.659
  0
LINE
  8
0
 10
146.066
 20
143.659
 11
146.168
 21
143.28
  0
LINE
  8
0
 10
146.168
 20
143.28
 11
146.229
 21
142.892
  0
LINE
  8
0
 10
146.229
 20
142.892
 11
146.25
 21
142.5
  0
LINE
  8
0
 10
146.25
 20
142.5
 11
146.229
 21
142.108
  0
LINE
  8
0
 10
146.229
 20
142.108
 11
146.168
 21
141.72
  0
LINE
  8
0
 10
146.168
 20
141.72
 11
146.066
 21
141.341
  0
LINE
  8
0
 10
146.066
 20
141.341
 11
145.926
 21
140.975
  0
LINE
  8
0
 10
145.926
 20
140.975
 11
145.748
 21
140.625
  0
LINE
  8
0
 10
145.748
 20
140.625
 11
145.534
 21
140.296
  0
LINE
  8
0
 10
145.534
 20
140.296
 11
145.287
 21
139.991
  0
LINE
  8
0
 10
145.287
 20
139.991
 11
145.009
 21
139.713
  0
LINE
  8
0
 10
145.009
 20
139.713
 11
144.704
 21
139.466
  0
LINE
  8
0
 10
144.704
 20
139.466
 11
144.375
 21
139.252
  0
LINE
  8
0
 10
144.375
 20
139.252
 11
144.025
 21
139.074
  0
LINE
  8
0
 10
144.025
 20
139.074
 11
143.659
 21
138.934
  0
LINE
  8
0
 10
143.659
 20
138.934
 11
143.28
 21
138.832
  0
LINE
  8
0
 10
143.28
 20
138.832
 11
142.892
 21
138.771
  0
LINE
  8
0
 10
142.892
 20
138.771
 11
142.5
 21
138.75
  0
LINE
  8
0
 10
142.5
 20
138.75
 11
142.108
 21
138.771
  0
LINE
  8
0
 10
-142.892
 20
138.771
 11
-143.28
 21
138.832
  0
LINE
  8
0
 10
-143.28
 20
138.832
 11
-143.659
 21
138.934
  0
LINE
  8
0
 10
-143.659
 20
138.934
 11
-144.025
 21
139.074
  0
LINE
  8
0
 10
-144.025
 20
139.074
 11
-144.375
 21
139.252
  0
LINE
  8
0
 10
-144.375
 20
139.252
 11
-144.704
 21
139.466
  0
LINE
  8
0
 10
-144.704
 20
139.466
 11
-145.009
 21
139.713
  0
LINE
  8
0
 10
-145.009
 20
139.713
 11
-145.287
 21
139.991
  0
LINE
  8
0
 10
-145.287
 20
139.991
 11
-145.534
 21
140.296
  0
LINE
  8
0
 10
-145.534
 20
140.296
 11
-145.748
 21
140.625
  0
LINE
  8
0
 10
-145.748
 20
140.625
 11
-145.926
 21
140.975
  0
LINE
  8
0
 10
-145.926
 20
140.975
 11
-146.066
 21
141.341
  0
LINE
  8
0
 10
-146.066
 20
141.341
 11
-146.168
 21
141.72
  0
LINE
  8
0
 10
-146.168
 20
141.72
 11
-146.229
 21
142.108
  0
LINE
  8
0
 10
-146.229
 20
142.108
 11
-146.25
 21
142.5
  0
LINE
  8
0
 10
-146.25
 20
142.5
 11
-146.229
 21
142.892
  0
LINE
  8
0
 10
-146.229
 20
142.892
 11
-146.168
 21
143.28
  0
LINE
  8
0
 10
-146.168
 20
143.28
 11
-146.066
 21
143.659
  0
LINE
  8
0
 10
-146.066
 20
143.659
 11
-145.926
 21
144.025
  0
LINE
  8
0
 10
-145.926
 20
144.025
 11
-145.748
 21
144.375
  0
LINE
  8
0
 10
-145.748
 20
144.375
 11
-145.534
 21
144.704
  0
LINE
  8
0
 10
-145.534
 20
144.704
 11
-145.287
 21
145.009
  0
LINE
  8
0
 10
-145.287
 20
145.009
 11
-145.009
 21
145.287
  0
LINE
  8
0
 10
-145.009
 20
145.287
 11
-144.704
 21
145.534
  0
LINE
  8
0
 10
-144.704
 20
145.534
 11
-144.375
 21
145.748
  0
LINE
  8
0
 10
-144.375
 20
145.748
 11
-144.025
 21
145.926
  0
LINE
  8
0
 10
-144.025
 20
145.926
 11
-143.659
 21
146.066
  0
LINE
  8
0
 10
-143.659
 20
146.066
 11
-143.28
 21
146.168
  0
LINE
  8
0
 10
-143.28
 20
146.168
 11
-142.892
 21
146.229
  0
LINE
  8
0
 10
-142.892
 20
146.229
 11
-142.5
 21
146.25
  0
LINE
  8
0
 10
-142.5
 20
146.25
 11
-142.108
 21
146.229
  0
LINE
  8
0
 10
-142.108
 20
146.229
 11
-141.72
 21
146.168
  0
LINE
  8
0
 10
-141.72
 20
146.168
 11
-141.341
 21
146.066
  0
LINE
  8
0
 10
-141.341
 20
146.066
 11
-140.975
 21
145.926
  0
LINE
  8
0
 10
-140.975
 20
145.926
 11
-140.625
 21
145.748
  0
LINE
  8
0
 10
-140.625
 20
145.748
 11
-140.296
 21
145.534
  0
LINE
  8
0
 10
-140.296
 20
145.534
 11
-139.991
 21
145.287
  0
LINE
  8
0
 10
-139.991
 20
145.287
 11
-139.713
 21
145.009
  0
LINE
  8
0
 10
-139.713
 20
145.009
 11
-139.466
 21
144.704
  0
LINE
  8
0
 10
-139.466
 20
144.704
 11
-139.252
 21
144.375
  0
LINE
  8
0
 10
-139.252
 20
144.375
 11
-139.074
 21
144.025
  0
LINE
  8
0
 10
-139.074
 20
144.025
 11
-138.934
 21
143.659
  0
LINE
  8
0
 10
-138.934
 20
143.659
 11
-138.832
 21
143.28
  0
LINE
  8
0
 10
-138.832
 20
143.28
 11
-138.771
 21
142.892
  0
LINE
  8
0
 10
-138.771
 20
142.892
 11
-138.75
 21
142.5
  0
LINE
  8
0
 10
-138.75
 20
142.5
 11
-138.771
 21
142.108
  0
LINE
  8
0
 10
-138.771
 20
142.108
 11
-138.832
 21
141.72
  0
LINE
  8
0
 10
-138.832
 20
141.72
 11
-138.934
 21
141.341
  0
LINE
  8
0
 10
-138.934
 20
141.341
 11
-139.074
 21
140.975
  0
LINE
  8
0
 10
-139.074
 20
140.975
 11
-139.252
 21
140.625
  0
LINE
  8
0
 10
-139.252
 20
140.625
 11
-139.466
 21
140.296
  0
LINE
  8
0
 10
-139.466
 20
140.296
 11
-139.713
 21
139.991
  0
LINE
  8
0
 10
-139.713
 20
139.991
 11
-139.991
 21
139.713
  0
LINE
  8
0
 10
-139.991
 20
139.713
 11
-140.296
 21
139.466
  0
LINE
  8
0
 10
-140.296
 20
139.466
 11
-140.625
 21
139.252
  0
LINE
  8
0
 10
-140.625
 20
139.252
 11
-140.975
 21
139.074
  0
LINE
  8
0
 10
-140.975
 20
139.074
 11
-141.341
 21
138.934
  0
LINE
  8
0
 10
-141.341
 20
138.934
 11
-141.72
 21
138.832
  0
LINE
  8
0
 10
-141.72
 20
138.832
 11
-142.108
 21
138.771
  0
LINE
  8
0
 10
-142.108
 20
138.771
 11
-142.5
 21
138.75
  0
LINE
  8
0
 10
-142.5
 20
138.75
 11
-142.892
 21
138.771
  0
LINE
  8
0
 10
99.6912
 20
140.828
 11
99.4511
 21
140.891
  0
LINE
  8
0
 10
99.4511
 20
140.891
 11
99.2227
 21
140.988
  0
LINE
  8
0
 10
99.2227
 20
140.988
 11
99.0108
 21
141.117
  0
LINE
  8
0
 10
99.0108
 20
141.117
 11
98.8201
 21
141.276
  0
LINE
  8
0
 10
98.8201
 20
141.276
 11
98.6544
 21
141.461
  0
LINE
  8
0
 10
98.6544
 20
141.461
 11
98.5175
 21
141.668
  0
LINE
  8
0
 10
98.5175
 20
141.668
 11
98.4122
 21
141.893
  0
LINE
  8
0
 10
98.4122
 20
141.893
 11
98.3407
 21
142.13
  0
LINE
  8
0
 10
98.3407
 20
142.13
 11
98.3045
 21
142.376
  0
LINE
  8
0
 10
98.3045
 20
142.376
 11
98.3045
 21
142.624
  0
LINE
  8
0
 10
98.3045
 20
142.624
 11
98.3407
 21
142.87
  0
LINE
  8
0
 10
98.3407
 20
142.87
 11
98.4122
 21
143.107
  0
LINE
  8
0
 10
98.4122
 20
143.107
 11
98.5175
 21
143.332
  0
LINE
  8
0
 10
98.5175
 20
143.332
 11
98.6544
 21
143.539
  0
LINE
  8
0
 10
98.6544
 20
143.539
 11
98.8201
 21
143.724
  0
LINE
  8
0
 10
98.8201
 20
143.724
 11
99.0108
 21
143.883
  0
LINE
  8
0
 10
99.0108
 20
143.883
 11
99.2227
 21
144.012
  0
LINE
  8
0
 10
99.2227
 20
144.012
 11
99.4511
 21
144.109
  0
LINE
  8
0
 10
99.4511
 20
144.109
 11
99.6912
 21
144.172
  0
LINE
  8
0
 10
99.6912
 20
144.172
 11
99.9379
 21
144.199
  0
LINE
  8
0
 10
99.9379
 20
144.199
 11
100.186
 21
144.19
  0
LINE
  8
0
 10
100.186
 20
144.19
 11
100.43
 21
144.145
  0
LINE
  8
0
 10
100.43
 20
144.145
 11
100.665
 21
144.065
  0
LINE
  8
0
 10
100.665
 20
144.065
 11
100.886
 21
143.951
  0
LINE
  8
0
 10
100.886
 20
143.951
 11
101.087
 21
143.807
  0
LINE
  8
0
 10
101.087
 20
143.807
 11
101.266
 21
143.634
  0
LINE
  8
0
 10
101.266
 20
143.634
 11
101.418
 21
143.438
  0
LINE
  8
0
 10
101.418
 20
143.438
 11
101.539
 21
143.222
  0
LINE
  8
0
 10
101.539
 20
143.222
 11
101.628
 21
142.99
  0
LINE
  8
0
 10
101.628
 20
142.99
 11
101.682
 21
142.748
  0
LINE
  8
0
 10
101.682
 20
142.748
 11
101.7
 21
142.5
  0
LINE
  8
0
 10
101.7
 20
142.5
 11
101.682
 21
142.252
  0
LINE
  8
0
 10
101.682
 20
142.252
 11
101.628
 21
142.01
  0
LINE
  8
0
 10
101.628
 20
142.01
 11
101.539
 21
141.778
  0
LINE
  8
0
 10
101.539
 20
141.778
 11
101.418
 21
141.562
  0
LINE
  8
0
 10
101.418
 20
141.562
 11
101.266
 21
141.366
  0
LINE
  8
0
 10
101.266
 20
141.366
 11
101.087
 21
141.193
  0
LINE
  8
0
 10
101.087
 20
141.193
 11
100.886
 21
141.049
  0
LINE
  8
0
 10
100.886
 20
141.049
 11
100.665
 21
140.935
  0
LINE
  8
0
 10
100.665
 20
140.935
 11
100.43
 21
140.855
  0
LINE
  8
0
 10
100.43
 20
140.855
 11
100.186
 21
140.81
  0
LINE
  8
0
 10
100.186
 20
140.81
 11
99.9379
 21
140.801
  0
LINE
  8
0
 10
99.9379
 20
140.801
 11
99.6912
 21
140.828
  0
LINE
  8
0
 10
-0.308777
 20
140.828
 11
-0.548889
 21
140.891
  0
LINE
  8
0
 10
-0.548889
 20
140.891
 11
-0.777298
 21
140.988
  0
LINE
  8
0
 10
-0.777298
 20
140.988
 11
-0.989151
 21
141.117
  0
LINE
  8
0
 10
-0.989151
 20
141.117
 11
-1.17992
 21
141.276
  0
LINE
  8
0
 10
-1.17992
 20
141.276
 11
-1.34554
 21
141.461
  0
LINE
  8
0
 10
-1.34554
 20
141.461
 11
-1.48248
 21
141.668
  0
LINE
  8
0
 10
-1.48248
 20
141.668
 11
-1.58781
 21
141.893
  0
LINE
  8
0
 10
-1.58781
 20
141.893
 11
-1.65932
 21
142.13
  0
LINE
  8
0
 10
-1.65932
 20
142.13
 11
-1.69545
 21
142.376
  0
LINE
  8
0
 10
-1.69545
 20
142.376
 11
-1.69545
 21
142.624
  0
LINE
  8
0
 10
-1.69545
 20
142.624
 11
-1.65932
 21
142.87
  0
LINE
  8
0
 10
-1.65932
 20
142.87
 11
-1.58781
 21
143.107
  0
LINE
  8
0
 10
-1.58781
 20
143.107
 11
-1.48248
 21
143.332
  0
LINE
  8
0
 10
-1.48248
 20
143.332
 11
-1.34554
 21
143.539
  0
LINE
  8
0
 10
-1.34554
 20
143.539
 11
-1.17992
 21
143.724
  0
LINE
  8
0
 10
-1.17992
 20
143.724
 11
-0.989151
 21
143.883
  0
LINE
  8
0
 10
-0.989151
 20
143.883
 11
-0.777298
 21
144.012
  0
LINE
  8
0
 10
-0.777298
 20
144.012
 11
-0.548889
 21
144.109
  0
LINE
  8
0
 10
-0.548889
 20
144.109
 11
-0.308777
 21
144.172
  0
LINE
  8
0
 10
-0.308777
 20
144.172
 11
-0.0620728
 21
144.199
  0
LINE
  8
0
 10
-0.0620728
 20
144.199
 11
0.185928
 21
144.19
  0
LINE
  8
0
 10
0.185928
 20
144.19
 11
0.429977
 21
144.145
  0
LINE
  8
0
 10
0.429977
 20
144.145
 11
0.664871
 21
144.065
  0
LINE
  8
0
 10
0.664871
 20
144.065
 11
0.88559
 21
143.951
  0
LINE
  8
0
 10
0.88559
 20
143.951
 11
1.08743
 21
143.807
  0
LINE
  8
0
 10
1.08743
 20
143.807
 11
1.2661
 21
143.634
  0
LINE
  8
0
 10
1.2661
 20
143.634
 11
1.41779
 21
143.438
  0
LINE
  8
0
 10
1.41779
 20
143.438
 11
1.53926
 21
143.222
  0
LINE
  8
0
 10
1.53926
 20
143.222
 11
1.62791
 21
142.99
  0
LINE
  8
0
 10
1.62791
 20
142.99
 11
1.68187
 21
142.748
  0
LINE
  8
0
 10
1.68187
 20
142.748
 11
1.7
 21
142.5
  0
LINE
  8
0
 10
1.7
 20
142.5
 11
1.68187
 21
142.252
  0
LINE
  8
0
 10
1.68187
 20
142.252
 11
1.62791
 21
142.01
  0
LINE
  8
0
 10
1.62791
 20
142.01
 11
1.53926
 21
141.778
  0
LINE
  8
0
 10
1.53926
 20
141.778
 11
1.41779
 21
141.562
  0
LINE
  8
0
 10
1.41779
 20
141.562
 11
1.2661
 21
141.366
  0
LINE
  8
0
 10
1.2661
 20
141.366
 11
1.08743
 21
141.193
  0
LINE
  8
0
 10
1.08743
 20
141.193
 11
0.88559
 21
141.049
  0
LINE
  8
0
 10
0.88559
 20
141.049
 11
0.664871
 21
140.935
  0
LINE
  8
0
 10
0.664871
 20
140.935
 11
0.429977
 21
140.855
  0
LINE
  8
0
 10
0.429977
 20
140.855
 11
0.185928
 21
140.81
  0
LINE
  8
0
 10
0.185928
 20
140.81
 11
-0.0620728
 21
140.801
  0
LINE
  8
0
 10
-0.0620728
 20
140.801
 11
-0.308777
 21
140.828
  0
LINE
  8
0
 10
-100.309
 20
140.828
 11
-100.549
 21
140.891
  0
LINE
  8
0
 10
-100.549
 20
140.891
 11
-100.777
 21
140.988
  0
LINE
  8
0
 10
-100.777
 20
140.988
 11
-100.989
 21
141.117
  0
LINE
  8
0
 10
-100.989
 20
141.117
 11
-101.18
 21
141.276
  0
LINE
  8
0
 10
-101.18
 20
141.276
 11
-101.346
 21
141.461
  0
LINE
  8
0
 10
-101.346
 20
141.461
 11
-101.482
 21
141.668
  0
LINE
  8
0
 10
-101.482
 20
141.668
 11
-101.588
 21
141.893
  0
LINE
  8
0
 10
-101.588
 20
141.893
 11
-101.659
 21
142.13
  0
LINE
  8
0
 10
-101.659
 20
142.13
 11
-101.695
 21
142.376
  0
LINE
  8
0
 10
-101.695
 20
142.376
 11
-101.695
 21
142.624
  0
LINE
  8
0
 10
-101.695
 20
142.624
 11
-101.659
 21
142.87
  0
LINE
  8
0
 10
-101.659
 20
142.87
 11
-101.588
 21
143.107
  0
LINE
  8
0
 10
-101.588
 20
143.107
 11
-101.482
 21
143.332
  0
LINE
  8
0
 10
-101.482
 20
143.332
 11
-101.346
 21
143.539
  0
LINE
  8
0
 10
-101.346
 20
143.539
 11
-101.18
 21
143.724
  0
LINE
  8
0
 10
-101.18
 20
143.724
 11
-100.989
 21
143.883
  0
LINE
  8
0
 10
-100.989
 20
143.883
 11
-100.777
 21
144.012
  0
LINE
  8
0
 10
-100.777
 20
144.012
 11
-100.549
 21
144.109
  0
LINE
  8
0
 10
-100.549
 20
144.109
 11
-100.309
 21
144.172
  0
LINE
  8
0
 10
-100.309
 20
144.172
 11
-100.062
 21
144.199
  0
LINE
  8
0
 10
-100.062
 20
144.199
 11
-99.8141
 21
144.19
  0
LINE
  8
0
 10
-99.8141
 20
144.19
 11
-99.57
 21
144.145
  0
LINE
  8
0
 10
-99.57
 20
144.145
 11
-99.3351
 21
144.065
  0
LINE
  8
0
 10
-99.3351
 20
144.065
 11
-99.1144
 21
143.951
  0
LINE
  8
0
 10
-99.1144
 20
143.951
 11
-98.9126
 21
143.807
  0
LINE
  8
0
 10
-98.9126
 20
143.807
 11
-98.7339
 21
143.634
  0
LINE
  8
0
 10
-98.7339
 20
143.634
 11
-98.5822
 21
143.438
  0
LINE
  8
0
 10
-98.5822
 20
143.438
 11
-98.4607
 21
143.222
  0
LINE
  8
0
 10
-98.4607
 20
143.222
 11
-98.3721
 21
142.99
  0
LINE
  8
0
 10
-98.3721
 20
142.99
 11
-98.3181
 21
142.748
  0
LINE
  8
0
 10
-98.3181
 20
142.748
 11
-98.3
 21
142.5
  0
LINE
  8
0
 10
-98.3
 20
142.5
 11
-98.3181
 21
142.252
  0
LINE
  8
0
 10
-98.3181
 20
142.252
 11
-98.3721
 21
142.01
  0
LINE
  8
0
 10
-98.3721
 20
142.01
 11
-98.4607
 21
141.778
  0
LINE
  8
0
 10
-98.4607
 20
141.778
 11
-98.5822
 21
141.562
  0
LINE
  8
0
 10
-98.5822
 20
141.562
 11
-98.7339
 21
141.366
  0
LINE
  8
0
 10
-98.7339
 20
141.366
 11
-98.9126
 21
141.193
  0
LINE
  8
0
 10
-98.9126
 20
141.193
 11
-99.1144
 21
141.049
  0
LINE
  8
0
 10
-99.1144
 20
141.049
 11
-99.3351
 21
140.935
  0
LINE
  8
0
 10
-99.3351
 20
140.935
 11
-99.57
 21
140.855
  0
LINE
  8
0
 10
-99.57
 20
140.855
 11
-99.8141
 21
140.81
  0
LINE
  8
0
 10
-99.8141
 20
140.81
 11
-100.062
 21
140.801
  0
LINE
  8
0
 10
-100.062
 20
140.801
 11
-100.309
 21
140.828
  0
LINE
  8
0
 10
-112.5
 20
-100
 11
-113.545
 21
-99.9452
  0
LINE
  8
0
 10
-113.545
 20
-99.9452
 11
-114.579
 21
-99.7815
  0
LINE
  8
0
 10
-114.579
 20
-99.7815
 11
-115.59
 21
-99.5106
  0
LINE
  8
0
 10
-115.59
 20
-99.5106
 11
-116.567
 21
-99.1355
  0
LINE
  8
0
 10
-116.567
 20
-99.1355
 11
-117.5
 21
-98.6602
  0
LINE
  8
0
 10
-117.5
 20
-98.6602
 11
-118.378
 21
-98.0902
  0
LINE
  8
0
 10
-118.378
 20
-98.0902
 11
-119.191
 21
-97.4314
  0
LINE
  8
0
 10
-119.191
 20
-97.4314
 11
-119.931
 21
-96.6913
  0
LINE
  8
0
 10
-119.931
 20
-96.6913
 11
-120.59
 21
-95.8779
  0
LINE
  8
0
 10
-120.59
 20
-95.8779
 11
-121.16
 21
-95
  0
LINE
  8
0
 10
-121.16
 20
-95
 11
-121.635
 21
-94.0674
  0
LINE
  8
0
 10
-121.635
 20
-94.0674
 11
-122.011
 21
-93.0902
  0
LINE
  8
0
 10
-122.011
 20
-93.0902
 11
-122.281
 21
-92.0791
  0
LINE
  8
0
 10
-122.281
 20
-92.0791
 11
-122.445
 21
-91.0453
  0
LINE
  8
0
 10
-122.445
 20
-91.0453
 11
-122.5
 21
-90
  0
LINE
  8
0
 10
-122.5
 20
-90
 11
-122.5
 21
100
  0
LINE
  8
0
 10
-122.5
 20
100
 11
-122.445
 21
101.045
  0
LINE
  8
0
 10
-122.445
 20
101.045
 11
-122.281
 21
102.079
  0
LINE
  8
0
 10
-122.281
 20
102.079
 11
-122.011
 21
103.09
  0
LINE
  8
0
 10
-122.011
 20
103.09
 11
-121.635
 21
104.067
  0
LINE
  8
0
 10
-121.635
 20
104.067
 11
-121.16
 21
105
  0
LINE
  8
0
 10
-121.16
 20
105
 11
-120.59
 21
105.878
  0
LINE
  8
0
 10
-120.59
 20
105.878
 11
-119.931
 21
106.691
  0
LINE
  8
0
 10
-119.931
 20
106.691
 11
-119.191
 21
107.431
  0
LINE
  8
0
 10
-119.191
 20
107.431
 11
-118.378
 21
108.09
  0
LINE
  8
0
 10
-118.378
 20
108.09
 11
-117.5
 21
108.66
  0
LINE
  8
0
 10
-117.5
 20
108.66
 11
-116.567
 21
109.135
  0
LINE
  8
0
 10
-116.567
 20
109.135
 11
-115.59
 21
109.511
  0
LINE
  8
0
 10
-115.59
 20
109.511
 11
-114.579
 21
109.781
  0
LINE
  8
0
 10
-114.579
 20
109.781
 11
-113.545
 21
109.945
  0
LINE
  8
0
 10
-113.545
 20
109.945
 11
-112.5
 21
110
  0
LINE
  8
0
 10
-112.5
 20
110
 11
112.5
 21
110
  0
LINE
  8
0
 10
112.5
 20
110
 11
113.545
 21
109.945
  0
LINE
  8
0
 10
113.545
 20
109.945
 11
114.579
 21
109.781
  0
LINE
  8
0
 10
114.579
 20
109.781
 11
115.59
 21
109.511
  0
LINE
  8
0
 10
115.59
 20
109.511
 11
116.567
 21
109.135
  0
LINE
  8
0
 10
116.567
 20
109.135
 11
117.5
 21
108.66
  0
LINE
  8
0
 10
117.5
 20
108.66
 11
118.378
 21
108.09
  0
LINE
  8
0
 10
118.378
 20
108.09
 11
119.191
 21
107.431
  0
LINE
  8
0
 10
119.191
 20
107.431
 11
119.931
 21
106.691
  0
LINE
  8
0
 10
119.931
 20
106.691
 11
120.59
 21
105.878
  0
LINE
  8
0
 10
120.59
 20
105.878
 11
121.16
 21
105
  0
LINE
  8
0
 10
121.16
 20
105
 11
121.635
 21
104.067
  0
LINE
  8
0
 10
121.635
 20
104.067
 11
122.011
 21
103.09
  0
LINE
  8
0
 10
122.011
 20
103.09
 11
122.281
 21
102.079
  0
LINE
  8
0
 10
122.281
 20
102.079
 11
122.445
 21
101.045
  0
LINE
  8
0
 10
122.445
 20
101.045
 11
122.5
 21
100
  0
LINE
  8
0
 10
122.5
 20
100
 11
122.5
 21
-90
  0
LINE
  8
0
 10
122.5
 20
-90
 11
122.445
 21
-91.0453
  0
LINE
  8
0
 10
122.445
 20
-91.0453
 11
122.281
 21
-92.0791
  0
LINE
  8
0
 10
122.281
 20
-92.0791
 11
122.011
 21
-93.0902
  0
LINE
  8
0
 10
122.011
 20
-93.0902
 11
121.635
 21
-94.0674
  0
LINE
  8
0
 10
121.635
 20
-94.0674
 11
121.16
 21
-95
  0
LINE
  8
0
 10
121.16
 20
-95
 11
120.59
 21
-95.8779
  0
LINE
  8
0
 10
120.59
 20
-95.8779
 11
119.931
 21
-96.6913
  0
LINE
  8
0
 10
119.931
 20
-96.6913
 11
119.191
 21
-97.4314
  0
LINE
  8
0
 10
119.191
 20
-97.4314
 11
118.378
 21
-98.0902
  0
LINE
  8
0
 10
118.378
 20
-98.0902
 11
117.5
 21
-98.6602
  0
LINE
  8
0
 10
117.5
 20
-98.6602
 11
116.567
 21
-99.1355
  0
LINE
  8
0
 10
116.567
 20
-99.1355
 11
115.59
 21
-99.5106
  0
LINE
  8
0
 10
115.59
 20
-99.5106
 11
114.579
 21
-99.7815
  0
LINE
  8
0
 10
114.579
 20
-99.7815
 11
113.545
 21
-99.9452
  0
LINE
  8
0
 10
113.545
 20
-99.9452
 11
112.5
 21
-100
  0
LINE
  8
0
 10
112.5
 20
-100
 11
-112.5
 21
-100
  0
LINE
  8
0
 10
142.191
 20
98.3283
 11
141.951
 21
98.3911
  0
LINE
  8
0
 10
141.951
 20
98.3911
 11
141.723
 21
98.4881
  0
LINE
  8
0
 10
141.723
 20
98.4881
 11
141.511
 21
98.6174
  0
LINE
  8
0
 10
141.511
 20
98.6174
 11
141.32
 21
98.7762
  0
LINE
  8
0
 10
141.32
 20
98.7762
 11
141.154
 21
98.961
  0
LINE
  8
0
 10
141.154
 20
98.961
 11
141.018
 21
99.168
  0
LINE
  8
0
 10
141.018
 20
99.168
 11
140.912
 21
99.3927
  0
LINE
  8
0
 10
140.912
 20
99.3927
 11
140.841
 21
99.6304
  0
LINE
  8
0
 10
140.841
 20
99.6304
 11
140.805
 21
99.8759
  0
LINE
  8
0
 10
140.805
 20
99.8759
 11
140.805
 21
100.124
  0
LINE
  8
0
 10
140.805
 20
100.124
 11
140.841
 21
100.37
  0
LINE
  8
0
 10
140.841
 20
100.37
 11
140.912
 21
100.607
  0
LINE
  8
0
 10
140.912
 20
100.607
 11
141.018
 21
100.832
  0
LINE
  8
0
 10
141.018
 20
100.832
 11
141.154
 21
101.039
  0
LINE
  8
0
 10
141.154
 20
101.039
 11
141.32
 21
101.224
  0
LINE
  8
0
 10
141.32
 20
101.224
 11
141.511
 21
101.383
  0
LINE
  8
0
 10
141.511
 20
101.383
 11
141.723
 21
101.512
  0
LINE
  8
0
 10
141.723
 20
101.512
 11
141.951
 21
101.609
  0
LINE
  8
0
 10
141.951
 20
101.609
 11
142.191
 21
101.672
  0
LINE
  8
0
 10
142.191
 20
101.672
 11
142.438
 21
101.699
  0
LINE
  8
0
 10
142.438
 20
101.699
 11
142.686
 21
101.69
  0
LINE
  8
0
 10
142.686
 20
101.69
 11
142.93
 21
101.645
  0
LINE
  8
0
 10
142.93
 20
101.645
 11
143.165
 21
101.565
  0
LINE
  8
0
 10
143.165
 20
101.565
 11
143.386
 21
101.451
  0
LINE
  8
0
 10
143.386
 20
101.451
 11
143.587
 21
101.307
  0
LINE
  8
0
 10
143.587
 20
101.307
 11
143.766
 21
101.134
  0
LINE
  8
0
 10
143.766
 20
101.134
 11
143.918
 21
100.938
  0
LINE
  8
0
 10
143.918
 20
100.938
 11
144.039
 21
100.722
  0
LINE
  8
0
 10
144.039
 20
100.722
 11
144.128
 21
100.49
  0
LINE
  8
0
 10
144.128
 20
100.49
 11
144.182
 21
100.248
  0
LINE
  8
0
 10
144.182
 20
100.248
 11
144.2
 21
100
  0
LINE
  8
0
 10
144.2
 20
100
 11
144.182
 21
99.7525
  0
LINE
  8
0
 10
144.182
 20
99.7525
 11
144.128
 21
99.5102
  0
LINE
  8
0
 10
144.128
 20
99.5102
 11
144.039
 21
99.2784
  0
LINE
  8
0
 10
144.039
 20
99.2784
 11
143.918
 21
99.062
  0
LINE
  8
0
 10
143.918
 20
99.062
 11
143.766
 21
98.8656
  0
LINE
  8
0
 10
143.766
 20
98.8656
 11
143.587
 21
98.6933
  0
LINE
  8
0
 10
143.587
 20
98.6933
 11
143.386
 21
98.5489
  0
LINE
  8
0
 10
143.386
 20
98.5489
 11
143.165
 21
98.4354
  0
LINE
  8
0
 10
143.165
 20
98.4354
 11
142.93
 21
98.3553
  0
LINE
  8
0
 10
142.93
 20
98.3553
 11
142.686
 21
98.3102
  0
LINE
  8
0
 10
142.686
 20
98.3102
 11
142.438
 21
98.3011
  0
LINE
  8
0
 10
142.438
 20
98.3011
 11
142.191
 21
98.3283
  0
LINE
  8
0
 10
-142.686
 20
98.3102
 11
-142.93
 21
98.3553
  0
LINE
  8
0
 10
-142.93
 20
98.3553
 11
-143.165
 21
98.4354
  0
LINE
  8
0
 10
-143.165
 20
98.4354
 11
-143.386
 21
98.5489
  0
LINE
  8
0
 10
-143.386
 20
98.5489
 11
-143.587
 21
98.6933
  0
LINE
  8
0
 10
-143.587
 20
98.6933
 11
-143.766
 21
98.8656
  0
LINE
  8
0
 10
-143.766
 20
98.8656
 11
-143.918
 21
99.062
  0
LINE
  8
0
 10
-143.918
 20
99.062
 11
-144.039
 21
99.2784
  0
LINE
  8
0
 10
-144.039
 20
99.2784
 11
-144.128
 21
99.5102
  0
LINE
  8
0
 10
-144.128
 20
99.5102
 11
-144.182
 21
99.7525
  0
LINE
  8
0
 10
-144.182
 20
99.7525
 11
-144.2
 21
100
  0
LINE
  8
0
 10
-144.2
 20
100
 11
-144.182
 21
100.248
  0
LINE
  8
0
 10
-144.182
 20
100.248
 11
-144.128
 21
100.49
  0
LINE
  8
0
 10
-144.128
 20
100.49
 11
-144.039
 21
100.722
  0
LINE
  8
0
 10
-144.039
 20
100.722
 11
-143.918
 21
100.938
  0
LINE
  8
0
 10
-143.918
 20
100.938
 11
-143.766
 21
101.134
  0
LINE
  8
0
 10
-143.766
 20
101.134
 11
-143.587
 21
101.307
  0
LINE
  8
0
 10
-143.587
 20
101.307
 11
-143.386
 21
101.451
  0
LINE
  8
0
 10
-143.386
 20
101.451
 11
-143.165
 21
101.565
  0
LINE
  8
0
 10
-143.165
 20
101.565
 11
-142.93
 21
101.645
  0
LINE
  8
0
 10
-142.93
 20
101.645
 11
-142.686
 21
101.69
  0
LINE
  8
0
 10
-142.686
 20
101.69
 11
-142.438
 21
101.699
  0
LINE
  8
0
 10
-142.438
 20
101.699
 11
-142.191
 21
101.672
  0
LINE
  8
0
 10
-142.191
 20
101.672
 11
-141.951
 21
101.609
  0
LINE
  8
0
 10
-141.951
 20
101.609
 11
-141.723
 21
101.512
  0
LINE
  8
0
 10
-141.723
 20
101.512
 11
-141.511
 21
101.383
  0
LINE
  8
0
 10
-141.511
 20
101.383
 11
-141.32
 21
101.224
  0
LINE
  8
0
 10
-141.32
 20
101.224
 11
-141.154
 21
101.039
  0
LINE
  8
0
 10
-141.154
 20
101.039
 11
-141.018
 21
100.832
  0
LINE
  8
0
 10
-141.018
 20
100.832
 11
-140.912
 21
100.607
  0
LINE
  8
0
 10
-140.912
 20
100.607
 11
-140.841
 21
100.37
  0
LINE
  8
0
 10
-140.841
 20
100.37
 11
-140.805
 21
100.124
  0
LINE
  8
0
 10
-140.805
 20
100.124
 11
-140.805
 21
99.8759
  0
LINE
  8
0
 10
-140.805
 20
99.8759
 11
-140.841
 21
99.6304
  0
LINE
  8
0
 10
-140.841
 20
99.6304
 11
-140.912
 21
99.3927
  0
LINE
  8
0
 10
-140.912
 20
99.3927
 11
-141.018
 21
99.168
  0
LINE
  8
0
 10
-141.018
 20
99.168
 11
-141.154
 21
98.961
  0
LINE
  8
0
 10
-141.154
 20
98.961
 11
-141.32
 21
98.7762
  0
LINE
  8
0
 10
-141.32
 20
98.7762
 11
-141.511
 21
98.6174
  0
LINE
  8
0
 10
-141.511
 20
98.6174
 11
-141.723
 21
98.4881
  0
LINE
  8
0
 10
-141.723
 20
98.4881
 11
-141.951
 21
98.3911
  0
LINE
  8
0
 10
-141.951
 20
98.3911
 11
-142.191
 21
98.3283
  0
LINE
  8
0
 10
-142.191
 20
98.3283
 11
-142.438
 21
98.3011
  0
LINE
  8
0
 10
-142.438
 20
98.3011
 11
-142.686
 21
98.3102
  0
LINE
  8
0
 10
-142.686
 20
-1.68979
 11
-142.93
 21
-1.64471
  0
LINE
  8
0
 10
-142.93
 20
-1.64471
 11
-143.165
 21
-1.56458
  0
LINE
  8
0
 10
-143.165
 20
-1.56458
 11
-143.386
 21
-1.4511
  0
LINE
  8
0
 10
-143.386
 20
-1.4511
 11
-143.587
 21
-1.30669
  0
LINE
  8
0
 10
-143.587
 20
-1.30669
 11
-143.766
 21
-1.13443
  0
LINE
  8
0
 10
-143.766
 20
-1.13443
 11
-143.918
 21
-0.938004
  0
LINE
  8
0
 10
-143.918
 20
-0.938004
 11
-144.039
 21
-0.721573
  0
LINE
  8
0
 10
-144.039
 20
-0.721573
 11
-144.128
 21
-0.489761
  0
LINE
  8
0
 10
-144.128
 20
-0.489761
 11
-144.182
 21
-0.247513
  0
LINE
  8
0
 10
-144.182
 20
-0.247513
 11
-144.2
 21
0
  0
LINE
  8
0
 10
-144.2
 20
0
 11
-144.182
 21
0.247513
  0
LINE
  8
0
 10
-144.182
 20
0.247513
 11
-144.128
 21
0.489761
  0
LINE
  8
0
 10
-144.128
 20
0.489761
 11
-144.039
 21
0.721573
  0
LINE
  8
0
 10
-144.039
 20
0.721573
 11
-143.918
 21
0.938004
  0
LINE
  8
0
 10
-143.918
 20
0.938004
 11
-143.766
 21
1.13443
  0
LINE
  8
0
 10
-143.766
 20
1.13443
 11
-143.587
 21
1.30669
  0
LINE
  8
0
 10
-143.587
 20
1.30669
 11
-143.386
 21
1.4511
  0
LINE
  8
0
 10
-143.386
 20
1.4511
 11
-143.165
 21
1.56458
  0
LINE
  8
0
 10
-143.165
 20
1.56458
 11
-142.93
 21
1.64471
  0
LINE
  8
0
 10
-142.93
 20
1.64471
 11
-142.686
 21
1.68979
  0
LINE
  8
0
 10
-142.686
 20
1.68979
 11
-142.438
 21
1.69885
  0
LINE
  8
0
 10
-142.438
 20
1.69885
 11
-142.191
 21
1.67171
  0
LINE
  8
0
 10
-142.191
 20
1.67171
 11
-141.951
 21
1.60893
  0
LINE
  8
0
 10
-141.951
 20
1.60893
 11
-141.723
 21
1.51187
  0
LINE
  8
0
 10
-141.723
 20
1.51187
 11
-141.511
 21
1.38258
  0
LINE
  8
0
 10
-141.511
 20
1.38258
 11
-141.32
 21
1.22383
  0
LINE
  8
0
 10
-141.32
 20
1.22383
 11
-141.154
 21
1.03899
  0
LINE
  8
0
 10
-141.154
 20
1.03899
 11
-141.018
 21
0.832001
  0
LINE
  8
0
 10
-141.018
 20
0.832001
 11
-140.912
 21
0.607285
  0
LINE
  8
0
 10
-140.912
 20
0.607285
 11
-140.841
 21
0.369629
  0
LINE
  8
0
 10
-140.841
 20
0.369629
 11
-140.805
 21
0.124084
  0
LINE
  8
0
 10
-140.805
 20
0.124084
 11
-140.805
 21
-0.124084
  0
LINE
  8
0
 10
-140.805
 20
-0.124084
 11
-140.841
 21
-0.369629
  0
LINE
  8
0
 10
-140.841
 20
-0.369629
 11
-140.912
 21
-0.607285
  0
LINE
  8
0
 10
-140.912
 20
-0.607285
 11
-141.018
 21
-0.832001
  0
LINE
  8
0
 10
-141.018
 20
-0.832001
 11
-141.154
 21
-1.03899
  0
LINE
  8
0
 10
-141.154
 20
-1.03899
 11
-141.32
 21
-1.22383
  0
LINE
  8
0
 10
-141.32
 20
-1.22383
 11
-141.511
 21
-1.38258
  0
LINE
  8
0
 10
-141.511
 20
-1.38258
 11
-141.723
 21
-1.51187
  0
LINE
  8
0
 10
-141.723
 20
-1.51187
 11
-141.951
 21
-1.60893
  0
LINE
  8
0
 10
-141.951
 20
-1.60893
 11
-142.191
 21
-1.67171
  0
LINE
  8
0
 10
-142.191
 20
-1.67171
 11
-142.438
 21
-1.69885
  0
LINE
  8
0
 10
-142.438
 20
-1.69885
 11
-142.686
 21
-1.68979
  0
LINE
  8
0
 10
142.191
 20
-1.67171
 11
141.951
 21
-1.60893
  0
LINE
  8
0
 10
141.951
 20
-1.60893
 11
141.723
 21
-1.51187
  0
LINE
  8
0
 10
141.723
 20
-1.51187
 11
141.511
 21
-1.38258
  0
LINE
  8
0
 10
141.511
 20
-1.38258
 11
141.32
 21
-1.22383
  0
LINE
  8
0
 10
141.32
 20
-1.22383
 11
141.154
 21
-1.03899
  0
LINE
  8
0
 10
141.154
 20
-1.03899
 11
141.018
 21
-0.832001
  0
LINE
  8
0
 10
141.018
 20
-0.832001
 11
140.912
 21
-0.607285
  0
LINE
  8
0
 10
140.912
 20
-0.607285
 11
140.841
 21
-0.369629
  0
LINE
  8
0
 10
140.841
 20
-0.369629
 11
140.805
 21
-0.124084
  0
LINE
  8
0
 10
140.805
 20
-0.124084
 11
140.805
 21
0.124084
  0
LINE
  8
0
 10
140.805
 20
0.124084
 11
140.841
 21
0.369629
  0
LINE
  8
0
 10
140.841
 20
0.369629
 11
140.912
 21
0.607285
  0
LINE
  8
0
 10
140.912
 20
0.607285
 11
141.018
 21
0.832001
  0
LINE
  8
0
 10
141.018
 20
0.832001
 11
141.154
 21
1.03899
  0
LINE
  8
0
 10
141.154
 20
1.03899
 11
141.32
 21
1.22383
  0
LINE
  8
0
 10
141.32
 20
1.22383
 11
141.511
 21
1.38258
  0
LINE
  8
0
 10
141.511
 20
1.38258
 11
141.723
 21
1.51187
  0
LINE
  8
0
 10
141.723
 20
1.51187
 11
141.951
 21
1.60893
  0
LINE
  8
0
 10
141.951
 20
1.60893
 11
142.191
 21
1.67171
  0
LINE
  8
0
 10
142.191
 20
1.67171
 11
142.438
 21
1.69885
  0
LINE
  8
0
 10
142.438
 20
1.69885
 11
142.686
 21
1.68979
  0
LINE
  8
0
 10
142.686
 20
1.68979
 11
142.93
 21
1.64471
  0
LINE
  8
0
 10
142.93
 20
1.64471
 11
143.165
 21
1.56458
  0
LINE
  8
0
 10
143.165
 20
1.56458
 11
143.386
 21
1.4511
  0
LINE
  8
0
 10
143.386
 20
1.4511
 11
143.587
 21
1.30669
  0
LINE
  8
0
 10
143.587
 20
1.30669
 11
143.766
 21
1.13443
  0
LINE
  8
0
 10
143.766
 20
1.13443
 11
143.918
 21
0.938004
  0
LINE
  8
0
 10
143.918
 20
0.938004
 11
144.039
 21
0.721573
  0
LINE
  8
0
 10
144.039
 20
0.721573
 11
144.128
 21
0.489761
  0
LINE
  8
0
 10
144.128
 20
0.489761
 11
144.182
 21
0.247513
  0
LINE
  8
0
 10
144.182
 20
0.247513
 11
144.2
 21
0
  0
LINE
  8
0
 10
144.2
 20
0
 11
144.182
 21
-0.247513
  0
LINE
  8
0
 10
144.182
 20
-0.247513
 11
144.128
 21
-0.489761
  0
LINE
  8
0
 10
144.128
 20
-0.489761
 11
144.039
 21
-0.721573
  0
LINE
  8
0
 10
144.039
 20
-0.721573
 11
143.918
 21
-0.938004
  0
LINE
  8
0
 10
143.918
 20
-0.938004
 11
143.766
 21
-1.13443
  0
LINE
  8
0
 10
143.766
 20
-1.13443
 11
143.587
 21
-1.30669
  0
LINE
  8
0
 10
143.587
 20
-1.30669
 11
143.386
 21
-1.4511
  0
LINE
  8
0
 10
143.386
 20
-1.4511
 11
143.165
 21
-1.56458
  0
LINE
  8
0
 10
143.165
 20
-1.56458
 11
142.93
 21
-1.64471
  0
LINE
  8
0
 10
142.93
 20
-1.64471
 11
142.686
 21
-1.68979
  0
LINE
  8
0
 10
142.686
 20
-1.68979
 11
142.438
 21
-1.69885
  0
LINE
  8
0
 10
142.438
 20
-1.69885
 11
142.191
 21
-1.67171
  0
LINE
  8
0
 10
-142.686
 20
-101.69
 11
-142.93
 21
-101.645
  0
LINE
  8
0
 10
-142.93
 20
-101.645
 11
-143.165
 21
-101.565
  0
LINE
  8
0
 10
-143.165
 20
-101.565
 11
-143.386
 21
-101.451
  0
LINE
  8
0
 10
-143.386
 20
-101.451
 11
-143.587
 21
-101.307
  0
LINE
  8
0
 10
-143.587
 20
-101.307
 11
-143.766
 21
-101.134
  0
LINE
  8
0
 10
-143.766
 20
-101.134
 11
-143.918
 21
-100.938
  0
LINE
  8
0
 10
-143.918
 20
-100.938
 11
-144.039
 21
-100.722
  0
LINE
  8
0
 10
-144.039
 20
-100.722
 11
-144.128
 21
-100.49
  0
LINE
  8
0
 10
-144.128
 20
-100.49
 11
-144.182
 21
-100.248
  0
LINE
  8
0
 10
-144.182
 20
-100.248
 11
-144.2
 21
-100
  0
LINE
  8
0
 10
-144.2
 20
-100
 11
-144.182
 21
-99.7525
  0
LINE
  8
0
 10
-144.182
 20
-99.7525
 11
-144.128
 21
-99.5102
  0
LINE
  8
0
 10
-144.128
 20
-99.5102
 11
-144.039
 21
-99.2784
  0
LINE
  8
0
 10
-144.039
 20
-99.2784
 11
-143.918
 21
-99.062
  0
LINE
  8
0
 10
-143.918
 20
-99.062
 11
-143.766
 21
-98.8656
  0
LINE
  8
0
 10
-143.766
 20
-98.8656
 11
-143.587
 21
-98.6933
  0
LINE
  8
0
 10
-143.587
 20
-98.6933
 11
-143.386
 21
-98.5489
  0
LINE
  8
0
 10
-143.386
 20
-98.5489
 11
-143.165
 21
-98.4354
  0
LINE
  8
0
 10
-143.165
 20
-98.4354
 11
-142.93
 21
-98.3553
  0
LINE
  8
0
 10
-142.93
 20
-98.3553
 11
-142.686
 21
-98.3102
  0
LINE
  8
0
 10
-142.686
 20
-98.3102
 11
-142.438
 21
-98.3011
  0
LINE
  8
0
 10
-142.438
 20
-98.3011
 11
-142.191
 21
-98.3283
  0
LINE
  8
0
 10
-142.191
 20
-98.3283
 11
-141.951
 21
-98.3911
  0
LINE
  8
0
 10
-141.951
 20
-98.3911
 11
-141.723
 21
-98.4881
  0
LINE
  8
0
 10
-141.723
 20
-98.4881
 11
-141.511
 21
-98.6174
  0
LINE
  8
0
 10
-141.511
 20
-98.6174
 11
-141.32
 21
-98.7762
  0
LINE
  8
0
 10
-141.32
 20
-98.7762
 11
-141.154
 21
-98.961
  0
LINE
  8
0
 10
-141.154
 20
-98.961
 11
-141.018
 21
-99.168
  0
LINE
  8
0
 10
-141.018
 20
-99.168
 11
-140.912
 21
-99.3927
  0
LINE
  8
0
 10
-140.912
 20
-99.3927
 11
-140.841
 21
-99.6304
  0
LINE
  8
0
 10
-140.841
 20
-99.6304
 11
-140.805
 21
-99.8759
  0
LINE
  8
0
 10
-140.805
 20
-99.8759
 11
-140.805
 21
-100.124
  0
LINE
  8
0
 10
-140.805
 20
-100.124
 11
-140.841
 21
-100.37
  0
LINE
  8
0
 10
-140.841
 20
-100.37
 11
-140.912
 21
-100.607
  0
LINE
  8
0
 10
-140.912
 20
-100.607
 11
-141.018
 21
-100.832
  0
LINE
  8
0
 10
-141.018
 20
-100.832
 11
-141.154
 21
-101.039
  0
LINE
  8
0
 10
-141.154
 20
-101.039
 11
-141.32
 21
-101.224
  0
LINE
  8
0
 10
-141.32
 20
-101.224
 11
-141.511
 21
-101.383
  0
LINE
  8
0
 10
-141.511
 20
-101.383
 11
-141.723
 21
-101.512
  0
LINE
  8
0
 10
-141.723
 20
-101.512
 11
-141.951
 21
-101.609
  0
LINE
  8
0
 10
-141.951
 20
-101.609
 11
-142.191
 21
-101.672
  0
LINE
  8
0
 10
-142.191
 20
-101.672
 11
-142.438
 21
-101.699
  0
LINE
  8
0
 10
-142.438
 20
-101.699
 11
-142.686
 21
-101.69
  0
LINE
  8
0
 10
142.191
 20
-101.672
 11
141.951
 21
-101.609
  0
LINE
  8
0
 10
141.951
 20
-101.609
 11
141.723
 21
-101.512
  0
LINE
  8
0
 10
141.723
 20
-101.512
 11
141.511
 21
-101.383
  0
LINE
  8
0
 10
141.511
 20
-101.383
 11
141.32
 21
-101.224
  0
LINE
  8
0
 10
141.32
 20
-101.224
 11
141.154
 21
-101.039
  0
LINE
  8
0
 10
141.154
 20
-101.039
 11
141.018
 21
-100.832
  0
LINE
  8
0
 10
141.018
 20
-100.832
 11
140.912
 21
-100.607
  0
LINE
  8
0
 10
140.912
 20
-100.607
 11
140.841
 21
-100.37
  0
LINE
  8
0
 10
140.841
 20
-100.37
 11
140.805
 21
-100.124
  0
LINE
  8
0
 10
140.805
 20
-100.124
 11
140.805
 21
-99.8759
  0
LINE
  8
0
 10
140.805
 20
-99.8759
 11
140.841
 21
-99.6304
  0
LINE
  8
0
 10
140.841
 20
-99.6304
 11
140.912
 21
-99.3927
  0
LINE
  8
0
 10
140.912
 20
-99.3927
 11
141.018
 21
-99.168
  0
LINE
  8
0
 10
141.018
 20
-99.168
 11
141.154
 21
-98.961
  0
LINE
  8
0
 10
141.154
 20
-98.961
 11
141.32
 21
-98.7762
  0
LINE
  8
0
 10
141.32
 20
-98.7762
 11
141.511
 21
-98.6174
  0
LINE
  8
0
 10
141.511
 20
-98.6174
 11
141.723
 21
-98.4881
  0
LINE
  8
0
 10
141.723
 20
-98.4881
 11
141.951
 21
-98.3911
  0
LINE
  8
0
 10
141.951
 20
-98.3911
 11
142.191
 21
-98.3283
  0
LINE
  8
0
 10
142.191
 20
-98.3283
 11
142.438
 21
-98.3011
  0
LINE
  8
0
 10
142.438
 20
-98.3011
 11
142.686
 21
-98.3102
  0
LINE
  8
0
 10
142.686
 20
-98.3102
 11
142.93
 21
-98.3553
  0
LINE
  8
0
 10
142.93
 20
-98.3553
 11
143.165
 21
-98.4354
  0
LINE
  8
0
 10
143.165
 20
-98.4354
 11
143.386
 21
-98.5489
  0
LINE
  8
0
 10
143.386
 20
-98.5489
 11
143.587
 21
-98.6933
  0
LINE
  8
0
 10
143.587
 20
-98.6933
 11
143.766
 21
-98.8656
  0
LINE
  8
0
 10
143.766
 20
-98.8656
 11
143.918
 21
-99.062
  0
LINE
  8
0
 10
143.918
 20
-99.062
 11
144.039
 21
-99.2784
  0
LINE
  8
0
 10
144.039
 20
-99.2784
 11
144.128
 21
-99.5102
  0
LINE
  8
0
 10
144.128
 20
-99.5102
 11
144.182
 21
-99.7525
  0
LINE
  8
0
 10
144.182
 20
-99.7525
 11
144.2
 21
-100
  0
LINE
  8
0
 10
144.2
 20
-100
 11
144.182
 21
-100.248
  0
LINE
  8
0
 10
144.182
 20
-100.248
 11
144.128
 21
-100.49
  0
LINE
  8
0
 10
144.128
 20
-100.49
 11
144.039
 21
-100.722
  0
LINE
  8
0
 10
144.039
 20
-100.722
 11
143.918
 21
-100.938
  0
LINE
  8
0
 10
143.918
 20
-100.938
 11
143.766
 21
-101.134
  0
LINE
  8
0
 10
143.766
 20
-101.134
 11
143.587
 21
-101.307
  0
LINE
  8
0
 10
143.587
 20
-101.307
 11
143.386
 21
-101.451
  0
LINE
  8
0
 10
143.386
 20
-101.451
 11
143.165
 21
-101.565
  0
LINE
  8
0
 10
143.165
 20
-101.565
 11
142.93
 21
-101.645
  0
LINE
  8
0
 10
142.93
 20
-101.645
 11
142.686
 21
-101.69
  0
LINE
  8
0
 10
142.686
 20
-101.69
 11
142.438
 21
-101.699
  0
LINE
  8
0
 10
142.438
 20
-101.699
 11
142.191
 21
-101.672
  0
LINE
  8
0
 10
-142.892
 20
-146.229
 11
-143.28
 21
-146.168
  0
LINE
  8
0
 10
-143.28
 20
-146.168
 11
-143.659
 21
-146.066
  0
LINE
  8
0
 10
-143.659
 20
-146.066
 11
-144.025
 21
-145.926
  0
LINE
  8
0
 10
-144.025
 20
-145.926
 11
-144.375
 21
-145.748
  0
LINE
  8
0
 10
-144.375
 20
-145.748
 11
-144.704
 21
-145.534
  0
LINE
  8
0
 10
-144.704
 20
-145.534
 11
-145.009
 21
-145.287
  0
LINE
  8
0
 10
-145.009
 20
-145.287
 11
-145.287
 21
-145.009
  0
LINE
  8
0
 10
-145.287
 20
-145.009
 11
-145.534
 21
-144.704
  0
LINE
  8
0
 10
-145.534
 20
-144.704
 11
-145.748
 21
-144.375
  0
LINE
  8
0
 10
-145.748
 20
-144.375
 11
-145.926
 21
-144.025
  0
LINE
  8
0
 10
-145.926
 20
-144.025
 11
-146.066
 21
-143.659
  0
LINE
  8
0
 10
-146.066
 20
-143.659
 11
-146.168
 21
-143.28
  0
LINE
  8
0
 10
-146.168
 20
-143.28
 11
-146.229
 21
-142.892
  0
LINE
  8
0
 10
-146.229
 20
-142.892
 11
-146.25
 21
-142.5
  0
LINE
  8
0
 10
-146.25
 20
-142.5
 11
-146.229
 21
-142.108
  0
LINE
  8
0
 10
-146.229
 20
-142.108
 11
-146.168
 21
-141.72
  0
LINE
  8
0
 10
-146.168
 20
-141.72
 11
-146.066
 21
-141.341
  0
LINE
  8
0
 10
-146.066
 20
-141.341
 11
-145.926
 21
-140.975
  0
LINE
  8
0
 10
-145.926
 20
-140.975
 11
-145.748
 21
-140.625
  0
LINE
  8
0
 10
-145.748
 20
-140.625
 11
-145.534
 21
-140.296
  0
LINE
  8
0
 10
-145.534
 20
-140.296
 11
-145.287
 21
-139.991
  0
LINE
  8
0
 10
-145.287
 20
-139.991
 11
-145.009
 21
-139.713
  0
LINE
  8
0
 10
-145.009
 20
-139.713
 11
-144.704
 21
-139.466
  0
LINE
  8
0
 10
-144.704
 20
-139.466
 11
-144.375
 21
-139.252
  0
LINE
  8
0
 10
-144.375
 20
-139.252
 11
-144.025
 21
-139.074
  0
LINE
  8
0
 10
-144.025
 20
-139.074
 11
-143.659
 21
-138.934
  0
LINE
  8
0
 10
-143.659
 20
-138.934
 11
-143.28
 21
-138.832
  0
LINE
  8
0
 10
-143.28
 20
-138.832
 11
-142.892
 21
-138.771
  0
LINE
  8
0
 10
-142.892
 20
-138.771
 11
-142.5
 21
-138.75
  0
LINE
  8
0
 10
-142.5
 20
-138.75
 11
-142.108
 21
-138.771
  0
LINE
  8
0
 10
-142.108
 20
-138.771
 11
-141.72
 21
-138.832
  0
LINE
  8
0
 10
-141.72
 20
-138.832
 11
-141.341
 21
-138.934
  0
LINE
  8
0
 10
-141.341
 20
-138.934
 11
-140.975
 21
-139.074
  0
LINE
  8
0
 10
-140.975
 20
-139.074
 11
-140.625
 21
-139.252
  0
LINE
  8
0
 10
-140.625
 20
-139.252
 11
-140.296
 21
-139.466
  0
LINE
  8
0
 10
-140.296
 20
-139.466
 11
-139.991
 21
-139.713
  0
LINE
  8
0
 10
-139.991
 20
-139.713
 11
-139.713
 21
-139.991
  0
LINE
  8
0
 10
-139.713
 20
-139.991
 11
-139.466
 21
-140.296
  0
LINE
  8
0
 10
-139.466
 20
-140.296
 11
-139.252
 21
-140.625
  0
LINE
  8
0
 10
-139.252
 20
-140.625
 11
-139.074
 21
-140.975
  0
LINE
  8
0
 10
-139.074
 20
-140.975
 11
-138.934
 21
-141.341
  0
LINE
  8
0
 10
-138.934
 20
-141.341
 11
-138.832
 21
-141.72
  0
LINE
  8
0
 10
-138.832
 20
-141.72
 11
-138.771
 21
-142.108
  0
LINE
  8
0
 10
-138.771
 20
-142.108
 11
-138.75
 21
-142.5
  0
LINE
  8
0
 10
-138.75
 20
-142.5
 11
-138.771
 21
-142.892
  0
LINE
  8
0
 10
-138.771
 20
-142.892
 11
-138.832
 21
-143.28
  0
LINE
  8
0
 10
-138.832
 20
-143.28
 11
-138.934
 21
-143.659
  0
LINE
  8
0
 10
-138.934
 20
-143.659
 11
-139.074
 21
-144.025
  0
LINE
  8
0
 10
-139.074
 20
-144.025
 11
-139.252
 21
-144.375
  0
LINE
  8
0
 10
-139.252
 20
-144.375
 11
-139.466
 21
-144.704
  0
LINE
  8
0
 10
-139.466
 20
-144.704
 11
-139.713
 21
-145.009
  0
LINE
  8
0
 10
-139.713
 20
-145.009
 11
-139.991
 21
-145.287
  0
LINE
  8
0
 10
-139.991
 20
-145.287
 11
-140.296
 21
-145.534
  0
LINE
  8
0
 10
-140.296
 20
-145.534
 11
-140.625
 21
-145.748
  0
LINE
  8
0
 10
-140.625
 20
-145.748
 11
-140.975
 21
-145.926
  0
LINE
  8
0
 10
-140.975
 20
-145.926
 11
-141.341
 21
-146.066
  0
LINE
  8
0
 10
-141.341
 20
-146.066
 11
-141.72
 21
-146.168
  0
LINE
  8
0
 10
-141.72
 20
-146.168
 11
-142.108
 21
-146.229
  0
LINE
  8
0
 10
-142.108
 20
-146.229
 11
-142.5
 21
-146.25
  0
LINE
  8
0
 10
-142.5
 20
-146.25
 11
-142.892
 21
-146.229
  0
LINE
  8
0
 10
142.108
 20
-146.229
 11
141.72
 21
-146.168
  0
LINE
  8
0
 10
141.72
 20
-146.168
 11
141.341
 21
-146.066
  0
LINE
  8
0
 10
141.341
 20
-146.066
 11
140.975
 21
-145.926
  0
LINE
  8
0
 10
140.975
 20
-145.926
 11
140.625
 21
-145.748
  0
LINE
  8
0
 10
140.625
 20
-145.748
 11
140.296
 21
-145.534
  0
LINE
  8
0
 10
140.296
 20
-145.534
 11
139.991
 21
-145.287
  0
LINE
  8
0
 10
139.991
 20
-145.287
 11
139.713
 21
-145.009
  0
LINE
  8
0
 10
139.713
 20
-145.009
 11
139.466
 21
-144.704
  0
LINE
  8
0
 10
139.466
 20
-144.704
 11
139.252
 21
-144.375
  0
LINE
  8
0
 10
139.252
 20
-144.375
 11
139.074
 21
-144.025
  0
LINE
  8
0
 10
139.074
 20
-144.025
 11
138.934
 21
-143.659
  0
LINE
  8
0
 10
138.934
 20
-143.659
 11
138.832
 21
-143.28
  0
LINE
  8
0
 10
138.832
 20
-143.28
 11
138.771
 21
-142.892
  0
LINE
  8
0
 10
138.771
 20
-142.892
 11
138.75
 21
-142.5
  0
LINE
  8
0
 10
138.75
 20
-142.5
 11
138.771
 21
-142.108
  0
LINE
  8
0
 10
138.771
 20
-142.108
 11
138.832
 21
-141.72
  0
LINE
  8
0
 10
138.832
 20
-141.72
 11
138.934
 21
-141.341
  0
LINE
  8
0
 10
138.934
 20
-141.341
 11
139.074
 21
-140.975
  0
LINE
  8
0
 10
139.074
 20
-140.975
 11
139.252
 21
-140.625
  0
LINE
  8
0
 10
139.252
 20
-140.625
 11
139.466
 21
-140.296
  0
LINE
  8
0
 10
139.466
 20
-140.296
 11
139.713
 21
-139.991
  0
LINE
  8
0
 10
139.713
 20
-139.991
 11
139.991
 21
-139.713
  0
LINE
  8
0
 10
139.991
 20
-139.713
 11
140.296
 21
-139.466
  0
LINE
  8
0
 10
140.296
 20
-139.466
 11
140.625
 21
-139.252
  0
LINE
  8
0
 10
140.625
 20
-139.252
 11
140.975
 21
-139.074
  0
LINE
  8
0
 10
140.975
 20
-139.074
 11
141.341
 21
-138.934
  0
LINE
  8
0
 10
141.341
 20
-138.934
 11
141.72
 21
-138.832
  0
LINE
  8
0
 10
141.72
 20
-138.832
 11
142.108
 21
-138.771
  0
LINE
  8
0
 10
142.108
 20
-138.771
 11
142.5
 21
-138.75
  0
LINE
  8
0
 10
142.5
 20
-138.75
 11
142.892
 21
-138.771
  0
LINE
  8
0
 10
142.892
 20
-138.771
 11
143.28
 21
-138.832
  0
LINE
  8
0
 10
143.28
 20
-138.832
 11
143.659
 21
-138.934
  0
LINE
  8
0
 10
143.659
 20
-138.934
 11
144.025
 21
-139.074
  0
LINE
  8
0
 10
144.025
 20
-139.074
 11
144.375
 21
-139.252
  0
LINE
  8
0
 10
144.375
 20
-139.252
 11
144.704
 21
-139.466
  0
LINE
  8
0
 10
144.704
 20
-139.466
 11
145.009
 21
-139.713
  0
LINE
  8
0
 10
145.009
 20
-139.713
 11
145.287
 21
-139.991
  0
LINE
  8
0
 10
145.287
 20
-139.991
 11
145.534
 21
-140.296
  0
LINE
  8
0
 10
145.534
 20
-140.296
 11
145.748
 21
-140.625
  0
LINE
  8
0
 10
145.748
 20
-140.625
 11
145.926
 21
-140.975
  0
LINE
  8
0
 10
145.926
 20
-140.975
 11
146.066
 21
-141.341
  0
LINE
  8
0
 10
146.066
 20
-141.341
 11
146.168
 21
-141.72
  0
LINE
  8
0
 10
146.168
 20
-141.72
 11
146.229
 21
-142.108
  0
LINE
  8
0
 10
146.229
 20
-142.108
 11
146.25
 21
-142.5
  0
LINE
  8
0
 10
146.25
 20
-142.5
 11
146.229
 21
-142.892
  0
LINE
  8
0
 10
146.229
 20
-142.892
 11
146.168
 21
-143.28
  0
LINE
  8
0
 10
146.168
 20
-143.28
 11
146.066
 21
-143.659
  0
LINE
  8
0
 10
146.066
 20
-143.659
 11
145.926
 21
-144.025
  0
LINE
  8
0
 10
145.926
 20
-144.025
 11
145.748
 21
-144.375
  0
LINE
  8
0
 10
145.748
 20
-144.375
 11
145.534
 21
-144.704
  0
LINE
  8
0
 10
145.534
 20
-144.704
 11
145.287
 21
-145.009
  0
LINE
  8
0
 10
145.287
 20
-145.009
 11
145.009
 21
-145.287
  0
LINE
  8
0
 10
145.009
 20
-145.287
 11
144.704
 21
-145.534
  0
LINE
  8
0
 10
144.704
 20
-145.534
 11
144.375
 21
-145.748
  0
LINE
  8
0
 10
144.375
 20
-145.748
 11
144.025
 21
-145.926
  0
LINE
  8
0
 10
144.025
 20
-145.926
 11
143.659
 21
-146.066
  0
LINE
  8
0
 10
143.659
 20
-146.066
 11
143.28
 21
-146.168
  0
LINE
  8
0
 10
143.28
 20
-146.168
 11
142.892
 21
-146.229
  0
LINE
  8
0
 10
142.892
 20
-146.229
 11
142.5
 21
-146.25
  0
LINE
  8
0
 10
142.5
 20
-146.25
 11
142.108
 21
-146.229
  0
LINE
  8
0
 10
-100.309
 20
-144.172
 11
-100.549
 21
-144.109
  0
LINE
  8
0
 10
-100.549
 20
-144.109
 11
-100.777
 21
-144.012
  0
LINE
  8
0
 10
-100.777
 20
-144.012
 11
-100.989
 21
-143.883
  0
LINE
  8
0
 10
-100.989
 20
-143.883
 11
-101.18
 21
-143.724
  0
LINE
  8
0
 10
-101.18
 20
-143.724
 11
-101.346
 21
-143.539
  0
LINE
  8
0
 10
-101.346
 20
-143.539
 11
-101.482
 21
-143.332
  0
LINE
  8
0
 10
-101.482
 20
-143.332
 11
-101.588
 21
-143.107
  0
LINE
  8
0
 10
-101.588
 20
-143.107
 11
-101.659
 21
-142.87
  0
LINE
  8
0
 10
-101.659
 20
-142.87
 11
-101.695
 21
-142.624
  0
LINE
  8
0
 10
-101.695
 20
-142.624
 11
-101.695
 21
-142.376
  0
LINE
  8
0
 10
-101.695
 20
-142.376
 11
-101.659
 21
-142.13
  0
LINE
  8
0
 10
-101.659
 20
-142.13
 11
-101.588
 21
-141.893
  0
LINE
  8
0
 10
-101.588
 20
-141.893
 11
-101.482
 21
-141.668
  0
LINE
  8
0
 10
-101.482
 20
-141.668
 11
-101.346
 21
-141.461
  0
LINE
  8
0
 10
-101.346
 20
-141.461
 11
-101.18
 21
-141.276
  0
LINE
  8
0
 10
-101.18
 20
-141.276
 11
-100.989
 21
-141.117
  0
LINE
  8
0
 10
-100.989
 20
-141.117
 11
-100.777
 21
-140.988
  0
LINE
  8
0
 10
-100.777
 20
-140.988
 11
-100.549
 21
-140.891
  0
LINE
  8
0
 10
-100.549
 20
-140.891
 11
-100.309
 21
-140.828
  0
LINE
  8
0
 10
-100.309
 20
-140.828
 11
-100.062
 21
-140.801
  0
LINE
  8
0
 10
-100.062
 20
-140.801
 11
-99.8141
 21
-140.81
  0
LINE
  8
0
 10
-99.8141
 20
-140.81
 11
-99.57
 21
-140.855
  0
LINE
  8
0
 10
-99.57
 20
-140.855
 11
-99.3351
 21
-140.935
  0
LINE
  8
0
 10
-99.3351
 20
-140.935
 11
-99.1144
 21
-141.049
  0
LINE
  8
0
 10
-99.1144
 20
-141.049
 11
-98.9126
 21
-141.193
  0
LINE
  8
0
 10
-98.9126
 20
-141.193
 11
-98.7339
 21
-141.366
  0
LINE
  8
0
 10
-98.7339
 20
-141.366
 11
-98.5822
 21
-141.562
  0
LINE
  8
0
 10
-98.5822
 20
-141.562
 11
-98.4607
 21
-141.778
  0
LINE
  8
0
 10
-98.4607
 20
-141.778
 11
-98.3721
 21
-142.01
  0
LINE
  8
0
 10
-98.3721
 20
-142.01
 11
-98.3181
 21
-142.252
  0
LINE
  8
0
 10
-98.3181
 20
-142.252
 11
-98.3
 21
-142.5
  0
LINE
  8
0
 10
-98.3
 20
-142.5
 11
-98.3181
 21
-142.748
  0
LINE
  8
0
 10
-98.3181
 20
-142.748
 11
-98.3721
 21
-142.99
  0
LINE
  8
0
 10
-98.3721
 20
-142.99
 11
-98.4607
 21
-143.222
  0
LINE
  8
0
 10
-98.4607
 20
-143.222
 11
-98.5822
 21
-143.438
  0
LINE
  8
0
 10
-98.5822
 20
-143.438
 11
-98.7339
 21
-143.634
  0
LINE
  8
0
 10
-98.7339
 20
-143.634
 11
-98.9126
 21
-143.807
  0
LINE
  8
0
 10
-98.9126
 20
-143.807
 11
-99.1144
 21
-143.951
  0
LINE
  8
0
 10
-99.1144
 20
-143.951
 11
-99.3351
 21
-144.065
  0
LINE
  8
0
 10
-99.3351
 20
-144.065
 11
-99.57
 21
-144.145
  0
LINE
  8
0
 10
-99.57
 20
-144.145
 11
-99.8141
 21
-144.19
  0
LINE
  8
0
 10
-99.8141
 20
-144.19
 11
-100.062
 21
-144.199
  0
LINE
  8
0
 10
-100.062
 20
-144.199
 11
-100.309
 21
-144.172
  0
LINE
  8
0
 10
99.6912
 20
-144.172
 11
99.4511
 21
-144.109
  0
LINE
  8
0
 10
99.4511
 20
-144.109
 11
99.2227
 21
-144.012
  0
LINE
  8
0
 10
99.2227
 20
-144.012
 11
99.0108
 21
-143.883
  0
LINE
  8
0
 10
99.0108
 20
-143.883
 11
98.8201
 21
-143.724
  0
LINE
  8
0
 10
98.8201
 20
-143.724
 11
98.6544
 21
-143.539
  0
LINE
  8
0
 10
98.6544
 20
-143.539
 11
98.5175
 21
-143.332
  0
LINE
  8
0
 10
98.5175
 20
-143.332
 11
98.4122
 21
-143.107
  0
LINE
  8
0
 10
98.4122
 20
-143.107
 11
98.3407
 21
-142.87
  0
LINE
  8
0
 10
98.3407
 20
-142.87
 11
98.3045
 21
-142.624
  0
LINE
  8
0
 10
98.3045
 20
-142.624
 11
98.3045
 21
-142.376
  0
LINE
  8
0
 10
98.3045
 20
-142.376
 11
98.3407
 21
-142.13
  0
LINE
  8
0
 10
98.3407
 20
-142.13
 11
98.4122
 21
-141.893
  0
LINE
  8
0
 10
98.4122
 20
-141.893
 11
98.5175
 21
-141.668
  0
LINE
  8
0
 10
98.5175
 20
-141.668
 11
98.6544
 21
-141.461
  0
LINE
  8
0
 10
98.6544
 20
-141.461
 11
98.8201
 21
-141.276
  0
LINE
  8
0
 10
98.8201
 20
-141.276
 11
99.0108
 21
-141.117
  0
LINE
  8
0
 10
99.0108
 20
-141.117
 11
99.2227
 21
-140.988
  0
LINE
  8
0
 10
99.2227
 20
-140.988
 11
99.4511
 21
-140.891
  0
LINE
  8
0
 10
99.4511
 20
-140.891
 11
99.6912
 21
-140.828
  0
LINE
  8
0
 10
99.6912
 20
-140.828
 11
99.9379
 21
-140.801
  0
LINE
  8
0
 10
99.9379
 20
-140.801
 11
100.186
 21
-140.81
  0
LINE
  8
0
 10
100.186
 20
-140.81
 11
100.43
 21
-140.855
  0
LINE
  8
0
 10
100.43
 20
-140.855
 11
100.665
 21
-140.935
  0
LINE
  8
0
 10
100.665
 20
-140.935
 11
100.886
 21
-141.049
  0
LINE
  8
0
 10
100.886
 20
-141.049
 11
101.087
 21
-141.193
  0
LINE
  8
0
 10
101.087
 20
-141.193
 11
101.266
 21
-141.366
  0
LINE
  8
0
 10
101.266
 20
-141.366
 11
101.418
 21
-141.562
  0
LINE
  8
0
 10
101.418
 20
-141.562
 11
101.539
 21
-141.778
  0
LINE
  8
0
 10
101.539
 20
-141.778
 11
101.628
 21
-142.01
  0
LINE
  8
0
 10
101.628
 20
-142.01
 11
101.682
 21
-142.252
  0
LINE
  8
0
 10
101.682
 20
-142.252
 11
101.7
 21
-142.5
  0
LINE
  8
0
 10
101.7
 20
-142.5
 11
101.682
 21
-142.748
  0
LINE
  8
0
 10
101.682
 20
-142.748
 11
101.628
 21
-142.99
  0
LINE
  8
0
 10
101.628
 20
-142.99
 11
101.539
 21
-143.222
  0
LINE
  8
0
 10
101.539
 20
-143.222
 11
101.418
 21
-143.438
  0
LINE
  8
0
 10
101.418
 20
-143.438
 11
101.266
 21
-143.634
  0
LINE
  8
0
 10
101.266
 20
-143.634
 11
101.087
 21
-143.807
  0
LINE
  8
0
 10
101.087
 20
-143.807
 11
100.886
 21
-143.951
  0
LINE
  8
0
 10
100.886
 20
-143.951
 11
100.665
 21
-144.065
  0
LINE
  8
0
 10
100.665
 20
-144.065
 11
100.43
 21
-144.145
  0
LINE
  8
0
 10
100.43
 20
-144.145
 11
100.186
 21
-144.19
  0
LINE
  8
0
 10
100.186
 20
-144.19
 11
99.9379
 21
-144.199
  0
LINE
  8
0
 10
99.9379
 20
-144.199
 11
99.6912
 21
-144.172
  0
LINE
  8
0
 10
-0.308777
 20
-144.172
 11
-0.548889
 21
-144.109
  0
LINE
  8
0
 10
-0.548889
 20
-144.109
 11
-0.777298
 21
-144.012
  0
LINE
  8
0
 10
-0.777298
 20
-144.012
 11
-0.989151
 21
-143.883
  0
LINE
  8
0
 10
-0.989151
 20
-143.883
 11
-1.17992
 21
-143.724
  0
LINE
  8
0
 10
-1.17992
 20
-143.724
 11
-1.34554
 21
-143.539
  0
LINE
  8
0
 10
-1.34554
 20
-143.539
 11
-1.48248
 21
-143.332
  0
LINE
  8
0
 10
-1.48248
 20
-143.332
 11
-1.58781
 21
-143.107
  0
LINE
  8
0
 10
-1.58781
 20
-143.107
 11
-1.65932
 21
-142.87
  0
LINE
  8
0
 10
-1.65932
 20
-142.87
 11
-1.69545
 21
-142.624
  0
LINE
  8
0
 10
-1.69545
 20
-142.624
 11
-1.69545
 21
-142.376
  0
LINE
  8
0
 10
-1.69545
 20
-142.376
 11
-1.65932
 21
-142.13
  0
LINE
  8
0
 10
-1.65932
 20
-142.13
 11
-1.58781
 21
-141.893
  0
LINE
  8
0
 10
-1.58781
 20
-141.893
 11
-1.48248
 21
-141.668
  0
LINE
  8
0
 10
-1.48248
 20
-141.668
 11
-1.34554
 21
-141.461
  0
LINE
  8
0
 10
-1.34554
 20
-141.461
 11
-1.17992
 21
-141.276
  0
LINE
  8
0
 10
-1.17992
 20
-141.276
 11
-0.989151
 21
-141.117
  0
LINE
  8
0
 10
-0.989151
 20
-141.117
 11
-0.777298
 21
-140.988
  0
LINE
  8
0
 10
-0.777298
 20
-140.988
 11
-0.548889
 21
-140.891
  0
LINE
  8
0
 10
-0.548889
 20
-140.891
 11
-0.308777
 21
-140.828
  0
LINE
  8
0
 10
-0.308777
 20
-140.828
 11
-0.0620728
 21
-140.801
  0
LINE
  8
0
 10
-0.0620728
 20
-140.801
 11
0.185928
 21
-140.81
  0
LINE
  8
0
 10
0.185928
 20
-140.81
 11
0.429977
 21
-140.855
  0
LINE
  8
0
 10
0.429977
 20
-140.855
 11
0.664871
 21
-140.935
  0
LINE
  8
0
 10
0.664871
 20
-140.935
 11
0.88559
 21
-141.049
  0
LINE
  8
0
 10
0.88559
 20
-141.049
 11
1.08743
 21
-141.193
  0
LINE
  8
0
 10
1.08743
 20
-141.193
 11
1.2661
 21
-141.366
  0
LINE
  8
0
 10
1.2661
 20
-141.366
 11
1.41779
 21
-141.562
  0
LINE
  8
0
 10
1.41779
 20
-141.562
 11
1.53926
 21
-141.778
  0
LINE
  8
0
 10
1.53926
 20
-141.778
 11
1.62791
 21
-142.01
  0
LINE
  8
0
 10
1.62791
 20
-142.01
 11
1.68187
 21
-142.252
  0
LINE
  8
0
 10
1.68187
 20
-142.252
 11
1.7
 21
-142.5
  0
LINE
  8
0
 10
1.7
 20
-142.5
 11
1.68187
 21
-142.748
  0
LINE
  8
0
 10
1.68187
 20
-142.748
 11
1.62791
 21
-142.99
  0
LINE
  8
0
 10
1.62791
 20
-142.99
 11
1.53926
 21
-143.222
  0
LINE
  8
0
 10
1.53926
 20
-143.222
 11
1.41779
 21
-143.438
  0
LINE
  8
0
 10
1.41779
 20
-143.438
 11
1.2661
 21
-143.634
  0
LINE
  8
0
 10
1.2661
 20
-143.634
 11
1.08743
 21
-143.807
  0
LINE
  8
0
 10
1.08743
 20
-143.807
 11
0.88559
 21
-143.951
  0
LINE
  8
0
 10
0.88559
 20
-143.951
 11
0.664871
 21
-144.065
  0
LINE
  8
0
 10
0.664871
 20
-144.065
 11
0.429977
 21
-144.145
  0
LINE
  8
0
 10
0.429977
 20
-144.145
 11
0.185928
 21
-144.19
  0
LINE
  8
0
 10
0.185928
 20
-144.19
 11
-0.0620728
 21
-144.199
  0
LINE
  8
0
 10
-0.0620728
 20
-144.199
 11
-0.308777
 21
-144.172
  0
ENDSEC
  0
SECTION
  2
OBJECTS
  0
DICTIONARY
  0
ENDSEC
  0
EOF
