  0
SECTION
  2
BLOCKS
  0
ENDSEC
  0
SECTION
  2
ENTITIES
  0
LINE
  8
0
 10
208.023
 20
-156.323
 11
208.54
 21
-156.241
  0
LINE
  8
0
 10
208.54
 20
-156.241
 11
209.045
 21
-156.105
  0
LINE
  8
0
 10
209.045
 20
-156.105
 11
209.534
 21
-155.918
  0
LINE
  8
0
 10
209.534
 20
-155.918
 11
210
 21
-155.68
  0
LINE
  8
0
 10
210
 20
-155.68
 11
210.439
 21
-155.395
  0
LINE
  8
0
 10
210.439
 20
-155.395
 11
210.846
 21
-155.066
  0
LINE
  8
0
 10
210.846
 20
-155.066
 11
211.216
 21
-154.696
  0
LINE
  8
0
 10
211.216
 20
-154.696
 11
211.545
 21
-154.289
  0
LINE
  8
0
 10
211.545
 20
-154.289
 11
211.83
 21
-153.85
  0
LINE
  8
0
 10
211.83
 20
-153.85
 11
212.068
 21
-153.384
  0
LINE
  8
0
 10
212.068
 20
-153.384
 11
212.255
 21
-152.895
  0
LINE
  8
0
 10
212.255
 20
-152.895
 11
212.391
 21
-152.39
  0
LINE
  8
0
 10
212.391
 20
-152.39
 11
212.473
 21
-151.873
  0
LINE
  8
0
 10
212.473
 20
-151.873
 11
212.5
 21
-151.35
  0
LINE
  8
0
 10
212.5
 20
-151.35
 11
212.5
 21
151.35
  0
LINE
  8
0
 10
212.5
 20
151.35
 11
212.473
 21
151.873
  0
LINE
  8
0
 10
212.473
 20
151.873
 11
212.391
 21
152.39
  0
LINE
  8
0
 10
212.391
 20
152.39
 11
212.255
 21
152.895
  0
LINE
  8
0
 10
212.255
 20
152.895
 11
212.068
 21
153.384
  0
LINE
  8
0
 10
212.068
 20
153.384
 11
211.83
 21
153.85
  0
LINE
  8
0
 10
211.83
 20
153.85
 11
211.545
 21
154.289
  0
LINE
  8
0
 10
211.545
 20
154.289
 11
211.216
 21
154.696
  0
LINE
  8
0
 10
211.216
 20
154.696
 11
210.846
 21
155.066
  0
LINE
  8
0
 10
210.846
 20
155.066
 11
210.439
 21
155.395
  0
LINE
  8
0
 10
210.439
 20
155.395
 11
210
 21
155.68
  0
LINE
  8
0
 10
210
 20
155.68
 11
209.534
 21
155.918
  0
LINE
  8
0
 10
209.534
 20
155.918
 11
209.045
 21
156.105
  0
LINE
  8
0
 10
209.045
 20
156.105
 11
208.54
 21
156.241
  0
LINE
  8
0
 10
208.54
 20
156.241
 11
208.023
 21
156.323
  0
LINE
  8
0
 10
208.023
 20
156.323
 11
207.5
 21
156.35
  0
LINE
  8
0
 10
207.5
 20
156.35
 11
-207.5
 21
156.35
  0
LINE
  8
0
 10
-207.5
 20
156.35
 11
-208.023
 21
156.323
  0
LINE
  8
0
 10
-208.023
 20
156.323
 11
-208.54
 21
156.241
  0
LINE
  8
0
 10
-208.54
 20
156.241
 11
-209.045
 21
156.105
  0
LINE
  8
0
 10
-209.045
 20
156.105
 11
-209.534
 21
155.918
  0
LINE
  8
0
 10
-209.534
 20
155.918
 11
-210
 21
155.68
  0
LINE
  8
0
 10
-210
 20
155.68
 11
-210.439
 21
155.395
  0
LINE
  8
0
 10
-210.439
 20
155.395
 11
-210.846
 21
155.066
  0
LINE
  8
0
 10
-210.846
 20
155.066
 11
-211.216
 21
154.696
  0
LINE
  8
0
 10
-211.216
 20
154.696
 11
-211.545
 21
154.289
  0
LINE
  8
0
 10
-211.545
 20
154.289
 11
-211.83
 21
153.85
  0
LINE
  8
0
 10
-211.83
 20
153.85
 11
-212.068
 21
153.384
  0
LINE
  8
0
 10
-212.068
 20
153.384
 11
-212.255
 21
152.895
  0
LINE
  8
0
 10
-212.255
 20
152.895
 11
-212.391
 21
152.39
  0
LINE
  8
0
 10
-212.391
 20
152.39
 11
-212.473
 21
151.873
  0
LINE
  8
0
 10
-212.473
 20
151.873
 11
-212.5
 21
151.35
  0
LINE
  8
0
 10
-212.5
 20
151.35
 11
-212.5
 21
-151.35
  0
LINE
  8
0
 10
-212.5
 20
-151.35
 11
-212.473
 21
-151.873
  0
LINE
  8
0
 10
-212.473
 20
-151.873
 11
-212.391
 21
-152.39
  0
LINE
  8
0
 10
-212.391
 20
-152.39
 11
-212.255
 21
-152.895
  0
LINE
  8
0
 10
-212.255
 20
-152.895
 11
-212.068
 21
-153.384
  0
LINE
  8
0
 10
-212.068
 20
-153.384
 11
-211.83
 21
-153.85
  0
LINE
  8
0
 10
-211.83
 20
-153.85
 11
-211.545
 21
-154.289
  0
LINE
  8
0
 10
-211.545
 20
-154.289
 11
-211.216
 21
-154.696
  0
LINE
  8
0
 10
-211.216
 20
-154.696
 11
-210.846
 21
-155.066
  0
LINE
  8
0
 10
-210.846
 20
-155.066
 11
-210.439
 21
-155.395
  0
LINE
  8
0
 10
-210.439
 20
-155.395
 11
-210
 21
-155.68
  0
LINE
  8
0
 10
-210
 20
-155.68
 11
-209.534
 21
-155.918
  0
LINE
  8
0
 10
-209.534
 20
-155.918
 11
-209.045
 21
-156.105
  0
LINE
  8
0
 10
-209.045
 20
-156.105
 11
-208.54
 21
-156.241
  0
LINE
  8
0
 10
-208.54
 20
-156.241
 11
-208.023
 21
-156.323
  0
LINE
  8
0
 10
-208.023
 20
-156.323
 11
-207.5
 21
-156.35
  0
LINE
  8
0
 10
-207.5
 20
-156.35
 11
207.5
 21
-156.35
  0
LINE
  8
0
 10
207.5
 20
-156.35
 11
208.023
 21
-156.323
  0
LINE
  8
0
 10
142.108
 20
138.771
 11
141.72
 21
138.832
  0
LINE
  8
0
 10
141.72
 20
138.832
 11
141.341
 21
138.934
  0
LINE
  8
0
 10
141.341
 20
138.934
 11
140.975
 21
139.074
  0
LINE
  8
0
 10
140.975
 20
139.074
 11
140.625
 21
139.252
  0
LINE
  8
0
 10
140.625
 20
139.252
 11
140.296
 21
139.466
  0
LINE
  8
0
 10
140.296
 20
139.466
 11
139.991
 21
139.713
  0
LINE
  8
0
 10
139.991
 20
139.713
 11
139.713
 21
139.991
  0
LINE
  8
0
 10
139.713
 20
139.991
 11
139.466
 21
140.296
  0
LINE
  8
0
 10
139.466
 20
140.296
 11
139.252
 21
140.625
  0
LINE
  8
0
 10
139.252
 20
140.625
 11
139.074
 21
140.975
  0
LINE
  8
0
 10
139.074
 20
140.975
 11
138.934
 21
141.341
  0
LINE
  8
0
 10
138.934
 20
141.341
 11
138.832
 21
141.72
  0
LINE
  8
0
 10
138.832
 20
141.72
 11
138.771
 21
142.108
  0
LINE
  8
0
 10
138.771
 20
142.108
 11
138.75
 21
142.5
  0
LINE
  8
0
 10
138.75
 20
142.5
 11
138.771
 21
142.892
  0
LINE
  8
0
 10
138.771
 20
142.892
 11
138.832
 21
143.28
  0
LINE
  8
0
 10
138.832
 20
143.28
 11
138.934
 21
143.659
  0
LINE
  8
0
 10
138.934
 20
143.659
 11
139.074
 21
144.025
  0
LINE
  8
0
 10
139.074
 20
144.025
 11
139.252
 21
144.375
  0
LINE
  8
0
 10
139.252
 20
144.375
 11
139.466
 21
144.704
  0
LINE
  8
0
 10
139.466
 20
144.704
 11
139.713
 21
145.009
  0
LINE
  8
0
 10
139.713
 20
145.009
 11
139.991
 21
145.287
  0
LINE
  8
0
 10
139.991
 20
145.287
 11
140.296
 21
145.534
  0
LINE
  8
0
 10
140.296
 20
145.534
 11
140.625
 21
145.748
  0
LINE
  8
0
 10
140.625
 20
145.748
 11
140.975
 21
145.926
  0
LINE
  8
0
 10
140.975
 20
145.926
 11
141.341
 21
146.066
  0
LINE
  8
0
 10
141.341
 20
146.066
 11
141.72
 21
146.168
  0
LINE
  8
0
 10
141.72
 20
146.168
 11
142.108
 21
146.229
  0
LINE
  8
0
 10
142.108
 20
146.229
 11
142.5
 21
146.25
  0
LINE
  8
0
 10
142.5
 20
146.25
 11
142.892
 21
146.229
  0
LINE
  8
0
 10
142.892
 20
146.229
 11
143.28
 21
146.168
  0
LINE
  8
0
 10
143.28
 20
146.168
 11
143.659
 21
146.066
  0
LINE
  8
0
 10
143.659
 20
146.066
 11
144.025
 21
145.926
  0
LINE
  8
0
 10
144.025
 20
145.926
 11
144.375
 21
145.748
  0
LINE
  8
0
 10
144.375
 20
145.748
 11
144.704
 21
145.534
  0
LINE
  8
0
 10
144.704
 20
145.534
 11
145.009
 21
145.287
  0
LINE
  8
0
 10
145.009
 20
145.287
 11
145.287
 21
145.009
  0
LINE
  8
0
 10
145.287
 20
145.009
 11
145.534
 21
144.704
  0
LINE
  8
0
 10
145.534
 20
144.704
 11
145.748
 21
144.375
  0
LINE
  8
0
 10
145.748
 20
144.375
 11
145.926
 21
144.025
  0
LINE
  8
0
 10
145.926
 20
144.025
 11
146.066
 21
143.659
  0
LINE
  8
0
 10
146.066
 20
143.659
 11
146.168
 21
143.28
  0
LINE
  8
0
 10
146.168
 20
143.28
 11
146.229
 21
142.892
  0
LINE
  8
0
 10
146.229
 20
142.892
 11
146.25
 21
142.5
  0
LINE
  8
0
 10
146.25
 20
142.5
 11
146.229
 21
142.108
  0
LINE
  8
0
 10
146.229
 20
142.108
 11
146.168
 21
141.72
  0
LINE
  8
0
 10
146.168
 20
141.72
 11
146.066
 21
141.341
  0
LINE
  8
0
 10
146.066
 20
141.341
 11
145.926
 21
140.975
  0
LINE
  8
0
 10
145.926
 20
140.975
 11
145.748
 21
140.625
  0
LINE
  8
0
 10
145.748
 20
140.625
 11
145.534
 21
140.296
  0
LINE
  8
0
 10
145.534
 20
140.296
 11
145.287
 21
139.991
  0
LINE
  8
0
 10
145.287
 20
139.991
 11
145.009
 21
139.713
  0
LINE
  8
0
 10
145.009
 20
139.713
 11
144.704
 21
139.466
  0
LINE
  8
0
 10
144.704
 20
139.466
 11
144.375
 21
139.252
  0
LINE
  8
0
 10
144.375
 20
139.252
 11
144.025
 21
139.074
  0
LINE
  8
0
 10
144.025
 20
139.074
 11
143.659
 21
138.934
  0
LINE
  8
0
 10
143.659
 20
138.934
 11
143.28
 21
138.832
  0
LINE
  8
0
 10
143.28
 20
138.832
 11
142.892
 21
138.771
  0
LINE
  8
0
 10
142.892
 20
138.771
 11
142.5
 21
138.75
  0
LINE
  8
0
 10
142.5
 20
138.75
 11
142.108
 21
138.771
  0
LINE
  8
0
 10
-142.892
 20
138.771
 11
-143.28
 21
138.832
  0
LINE
  8
0
 10
-143.28
 20
138.832
 11
-143.659
 21
138.934
  0
LINE
  8
0
 10
-143.659
 20
138.934
 11
-144.025
 21
139.074
  0
LINE
  8
0
 10
-144.025
 20
139.074
 11
-144.375
 21
139.252
  0
LINE
  8
0
 10
-144.375
 20
139.252
 11
-144.704
 21
139.466
  0
LINE
  8
0
 10
-144.704
 20
139.466
 11
-145.009
 21
139.713
  0
LINE
  8
0
 10
-145.009
 20
139.713
 11
-145.287
 21
139.991
  0
LINE
  8
0
 10
-145.287
 20
139.991
 11
-145.534
 21
140.296
  0
LINE
  8
0
 10
-145.534
 20
140.296
 11
-145.748
 21
140.625
  0
LINE
  8
0
 10
-145.748
 20
140.625
 11
-145.926
 21
140.975
  0
LINE
  8
0
 10
-145.926
 20
140.975
 11
-146.066
 21
141.341
  0
LINE
  8
0
 10
-146.066
 20
141.341
 11
-146.168
 21
141.72
  0
LINE
  8
0
 10
-146.168
 20
141.72
 11
-146.229
 21
142.108
  0
LINE
  8
0
 10
-146.229
 20
142.108
 11
-146.25
 21
142.5
  0
LINE
  8
0
 10
-146.25
 20
142.5
 11
-146.229
 21
142.892
  0
LINE
  8
0
 10
-146.229
 20
142.892
 11
-146.168
 21
143.28
  0
LINE
  8
0
 10
-146.168
 20
143.28
 11
-146.066
 21
143.659
  0
LINE
  8
0
 10
-146.066
 20
143.659
 11
-145.926
 21
144.025
  0
LINE
  8
0
 10
-145.926
 20
144.025
 11
-145.748
 21
144.375
  0
LINE
  8
0
 10
-145.748
 20
144.375
 11
-145.534
 21
144.704
  0
LINE
  8
0
 10
-145.534
 20
144.704
 11
-145.287
 21
145.009
  0
LINE
  8
0
 10
-145.287
 20
145.009
 11
-145.009
 21
145.287
  0
LINE
  8
0
 10
-145.009
 20
145.287
 11
-144.704
 21
145.534
  0
LINE
  8
0
 10
-144.704
 20
145.534
 11
-144.375
 21
145.748
  0
LINE
  8
0
 10
-144.375
 20
145.748
 11
-144.025
 21
145.926
  0
LINE
  8
0
 10
-144.025
 20
145.926
 11
-143.659
 21
146.066
  0
LINE
  8
0
 10
-143.659
 20
146.066
 11
-143.28
 21
146.168
  0
LINE
  8
0
 10
-143.28
 20
146.168
 11
-142.892
 21
146.229
  0
LINE
  8
0
 10
-142.892
 20
146.229
 11
-142.5
 21
146.25
  0
LINE
  8
0
 10
-142.5
 20
146.25
 11
-142.108
 21
146.229
  0
LINE
  8
0
 10
-142.108
 20
146.229
 11
-141.72
 21
146.168
  0
LINE
  8
0
 10
-141.72
 20
146.168
 11
-141.341
 21
146.066
  0
LINE
  8
0
 10
-141.341
 20
146.066
 11
-140.975
 21
145.926
  0
LINE
  8
0
 10
-140.975
 20
145.926
 11
-140.625
 21
145.748
  0
LINE
  8
0
 10
-140.625
 20
145.748
 11
-140.296
 21
145.534
  0
LINE
  8
0
 10
-140.296
 20
145.534
 11
-139.991
 21
145.287
  0
LINE
  8
0
 10
-139.991
 20
145.287
 11
-139.713
 21
145.009
  0
LINE
  8
0
 10
-139.713
 20
145.009
 11
-139.466
 21
144.704
  0
LINE
  8
0
 10
-139.466
 20
144.704
 11
-139.252
 21
144.375
  0
LINE
  8
0
 10
-139.252
 20
144.375
 11
-139.074
 21
144.025
  0
LINE
  8
0
 10
-139.074
 20
144.025
 11
-138.934
 21
143.659
  0
LINE
  8
0
 10
-138.934
 20
143.659
 11
-138.832
 21
143.28
  0
LINE
  8
0
 10
-138.832
 20
143.28
 11
-138.771
 21
142.892
  0
LINE
  8
0
 10
-138.771
 20
142.892
 11
-138.75
 21
142.5
  0
LINE
  8
0
 10
-138.75
 20
142.5
 11
-138.771
 21
142.108
  0
LINE
  8
0
 10
-138.771
 20
142.108
 11
-138.832
 21
141.72
  0
LINE
  8
0
 10
-138.832
 20
141.72
 11
-138.934
 21
141.341
  0
LINE
  8
0
 10
-138.934
 20
141.341
 11
-139.074
 21
140.975
  0
LINE
  8
0
 10
-139.074
 20
140.975
 11
-139.252
 21
140.625
  0
LINE
  8
0
 10
-139.252
 20
140.625
 11
-139.466
 21
140.296
  0
LINE
  8
0
 10
-139.466
 20
140.296
 11
-139.713
 21
139.991
  0
LINE
  8
0
 10
-139.713
 20
139.991
 11
-139.991
 21
139.713
  0
LINE
  8
0
 10
-139.991
 20
139.713
 11
-140.296
 21
139.466
  0
LINE
  8
0
 10
-140.296
 20
139.466
 11
-140.625
 21
139.252
  0
LINE
  8
0
 10
-140.625
 20
139.252
 11
-140.975
 21
139.074
  0
LINE
  8
0
 10
-140.975
 20
139.074
 11
-141.341
 21
138.934
  0
LINE
  8
0
 10
-141.341
 20
138.934
 11
-141.72
 21
138.832
  0
LINE
  8
0
 10
-141.72
 20
138.832
 11
-142.108
 21
138.771
  0
LINE
  8
0
 10
-142.108
 20
138.771
 11
-142.5
 21
138.75
  0
LINE
  8
0
 10
-142.5
 20
138.75
 11
-142.892
 21
138.771
  0
LINE
  8
0
 10
168.377
 20
141.855
 11
168.133
 21
141.891
  0
LINE
  8
0
 10
168.133
 20
141.891
 11
167.897
 21
141.964
  0
LINE
  8
0
 10
167.897
 20
141.964
 11
167.675
 21
142.071
  0
LINE
  8
0
 10
167.675
 20
142.071
 11
167.471
 21
142.21
  0
LINE
  8
0
 10
167.471
 20
142.21
 11
167.29
 21
142.378
  0
LINE
  8
0
 10
167.29
 20
142.378
 11
167.137
 21
142.571
  0
LINE
  8
0
 10
167.137
 20
142.571
 11
167.013
 21
142.784
  0
LINE
  8
0
 10
167.013
 20
142.784
 11
166.923
 21
143.014
  0
LINE
  8
0
 10
166.923
 20
143.014
 11
166.868
 21
143.254
  0
LINE
  8
0
 10
166.868
 20
143.254
 11
166.85
 21
143.5
  0
LINE
  8
0
 10
166.85
 20
143.5
 11
166.868
 21
143.746
  0
LINE
  8
0
 10
166.868
 20
143.746
 11
166.923
 21
143.986
  0
LINE
  8
0
 10
166.923
 20
143.986
 11
167.013
 21
144.216
  0
LINE
  8
0
 10
167.013
 20
144.216
 11
167.137
 21
144.429
  0
LINE
  8
0
 10
167.137
 20
144.429
 11
167.29
 21
144.622
  0
LINE
  8
0
 10
167.29
 20
144.622
 11
167.471
 21
144.79
  0
LINE
  8
0
 10
167.471
 20
144.79
 11
167.675
 21
144.929
  0
LINE
  8
0
 10
167.675
 20
144.929
 11
167.897
 21
145.036
  0
LINE
  8
0
 10
167.897
 20
145.036
 11
168.133
 21
145.109
  0
LINE
  8
0
 10
168.133
 20
145.109
 11
168.377
 21
145.145
  0
LINE
  8
0
 10
168.377
 20
145.145
 11
176.623
 21
145.145
  0
LINE
  8
0
 10
176.623
 20
145.145
 11
176.867
 21
145.109
  0
LINE
  8
0
 10
176.867
 20
145.109
 11
177.103
 21
145.036
  0
LINE
  8
0
 10
177.103
 20
145.036
 11
177.325
 21
144.929
  0
LINE
  8
0
 10
177.325
 20
144.929
 11
177.529
 21
144.79
  0
LINE
  8
0
 10
177.529
 20
144.79
 11
177.71
 21
144.622
  0
LINE
  8
0
 10
177.71
 20
144.622
 11
177.863
 21
144.429
  0
LINE
  8
0
 10
177.863
 20
144.429
 11
177.987
 21
144.216
  0
LINE
  8
0
 10
177.987
 20
144.216
 11
178.077
 21
143.986
  0
LINE
  8
0
 10
178.077
 20
143.986
 11
178.132
 21
143.746
  0
LINE
  8
0
 10
178.132
 20
143.746
 11
178.15
 21
143.5
  0
LINE
  8
0
 10
178.15
 20
143.5
 11
178.132
 21
143.254
  0
LINE
  8
0
 10
178.132
 20
143.254
 11
178.077
 21
143.014
  0
LINE
  8
0
 10
178.077
 20
143.014
 11
177.987
 21
142.784
  0
LINE
  8
0
 10
177.987
 20
142.784
 11
177.863
 21
142.571
  0
LINE
  8
0
 10
177.863
 20
142.571
 11
177.71
 21
142.378
  0
LINE
  8
0
 10
177.71
 20
142.378
 11
177.529
 21
142.21
  0
LINE
  8
0
 10
177.529
 20
142.21
 11
177.325
 21
142.071
  0
LINE
  8
0
 10
177.325
 20
142.071
 11
177.103
 21
141.964
  0
LINE
  8
0
 10
177.103
 20
141.964
 11
176.867
 21
141.891
  0
LINE
  8
0
 10
176.867
 20
141.891
 11
176.623
 21
141.855
  0
LINE
  8
0
 10
176.623
 20
141.855
 11
168.377
 21
141.855
  0
LINE
  8
0
 10
199.377
 20
141.855
 11
199.133
 21
141.891
  0
LINE
  8
0
 10
199.133
 20
141.891
 11
198.897
 21
141.964
  0
LINE
  8
0
 10
198.897
 20
141.964
 11
198.675
 21
142.071
  0
LINE
  8
0
 10
198.675
 20
142.071
 11
198.471
 21
142.21
  0
LINE
  8
0
 10
198.471
 20
142.21
 11
198.29
 21
142.378
  0
LINE
  8
0
 10
198.29
 20
142.378
 11
198.137
 21
142.571
  0
LINE
  8
0
 10
198.137
 20
142.571
 11
198.013
 21
142.784
  0
LINE
  8
0
 10
198.013
 20
142.784
 11
197.923
 21
143.014
  0
LINE
  8
0
 10
197.923
 20
143.014
 11
197.868
 21
143.254
  0
LINE
  8
0
 10
197.868
 20
143.254
 11
197.85
 21
143.5
  0
LINE
  8
0
 10
197.85
 20
143.5
 11
197.868
 21
143.746
  0
LINE
  8
0
 10
197.868
 20
143.746
 11
197.923
 21
143.986
  0
LINE
  8
0
 10
197.923
 20
143.986
 11
198.013
 21
144.216
  0
LINE
  8
0
 10
198.013
 20
144.216
 11
198.137
 21
144.429
  0
LINE
  8
0
 10
198.137
 20
144.429
 11
198.29
 21
144.622
  0
LINE
  8
0
 10
198.29
 20
144.622
 11
198.471
 21
144.79
  0
LINE
  8
0
 10
198.471
 20
144.79
 11
198.675
 21
144.929
  0
LINE
  8
0
 10
198.675
 20
144.929
 11
198.897
 21
145.036
  0
LINE
  8
0
 10
198.897
 20
145.036
 11
199.133
 21
145.109
  0
LINE
  8
0
 10
199.133
 20
145.109
 11
199.377
 21
145.145
  0
LINE
  8
0
 10
199.377
 20
145.145
 11
207.623
 21
145.145
  0
LINE
  8
0
 10
207.623
 20
145.145
 11
207.867
 21
145.109
  0
LINE
  8
0
 10
207.867
 20
145.109
 11
208.103
 21
145.036
  0
LINE
  8
0
 10
208.103
 20
145.036
 11
208.325
 21
144.929
  0
LINE
  8
0
 10
208.325
 20
144.929
 11
208.529
 21
144.79
  0
LINE
  8
0
 10
208.529
 20
144.79
 11
208.71
 21
144.622
  0
LINE
  8
0
 10
208.71
 20
144.622
 11
208.863
 21
144.429
  0
LINE
  8
0
 10
208.863
 20
144.429
 11
208.987
 21
144.216
  0
LINE
  8
0
 10
208.987
 20
144.216
 11
209.077
 21
143.986
  0
LINE
  8
0
 10
209.077
 20
143.986
 11
209.132
 21
143.746
  0
LINE
  8
0
 10
209.132
 20
143.746
 11
209.15
 21
143.5
  0
LINE
  8
0
 10
209.15
 20
143.5
 11
209.132
 21
143.254
  0
LINE
  8
0
 10
209.132
 20
143.254
 11
209.077
 21
143.014
  0
LINE
  8
0
 10
209.077
 20
143.014
 11
208.987
 21
142.784
  0
LINE
  8
0
 10
208.987
 20
142.784
 11
208.863
 21
142.571
  0
LINE
  8
0
 10
208.863
 20
142.571
 11
208.71
 21
142.378
  0
LINE
  8
0
 10
208.71
 20
142.378
 11
208.529
 21
142.21
  0
LINE
  8
0
 10
208.529
 20
142.21
 11
208.325
 21
142.071
  0
LINE
  8
0
 10
208.325
 20
142.071
 11
208.103
 21
141.964
  0
LINE
  8
0
 10
208.103
 20
141.964
 11
207.867
 21
141.891
  0
LINE
  8
0
 10
207.867
 20
141.891
 11
207.623
 21
141.855
  0
LINE
  8
0
 10
207.623
 20
141.855
 11
199.377
 21
141.855
  0
LINE
  8
0
 10
40.8333
 20
140.75
 11
40.5843
 21
140.768
  0
LINE
  8
0
 10
40.5843
 20
140.768
 11
40.3403
 21
140.821
  0
LINE
  8
0
 10
40.3403
 20
140.821
 11
40.1064
 21
140.908
  0
LINE
  8
0
 10
40.1064
 20
140.908
 11
39.8872
 21
141.028
  0
LINE
  8
0
 10
39.8872
 20
141.028
 11
39.6873
 21
141.177
  0
LINE
  8
0
 10
39.6873
 20
141.177
 11
39.5108
 21
141.354
  0
LINE
  8
0
 10
39.5108
 20
141.354
 11
39.3611
 21
141.554
  0
LINE
  8
0
 10
39.3611
 20
141.554
 11
39.2415
 21
141.773
  0
LINE
  8
0
 10
39.2415
 20
141.773
 11
39.1542
 21
142.007
  0
LINE
  8
0
 10
39.1542
 20
142.007
 11
39.1011
 21
142.251
  0
LINE
  8
0
 10
39.1011
 20
142.251
 11
39.0833
 21
142.5
  0
LINE
  8
0
 10
39.0833
 20
142.5
 11
39.1011
 21
142.749
  0
LINE
  8
0
 10
39.1011
 20
142.749
 11
39.1542
 21
142.993
  0
LINE
  8
0
 10
39.1542
 20
142.993
 11
39.2415
 21
143.227
  0
LINE
  8
0
 10
39.2415
 20
143.227
 11
39.3611
 21
143.446
  0
LINE
  8
0
 10
39.3611
 20
143.446
 11
39.5108
 21
143.646
  0
LINE
  8
0
 10
39.5108
 20
143.646
 11
39.6873
 21
143.823
  0
LINE
  8
0
 10
39.6873
 20
143.823
 11
39.8872
 21
143.972
  0
LINE
  8
0
 10
39.8872
 20
143.972
 11
40.1064
 21
144.092
  0
LINE
  8
0
 10
40.1064
 20
144.092
 11
40.3403
 21
144.179
  0
LINE
  8
0
 10
40.3403
 20
144.179
 11
40.5843
 21
144.232
  0
LINE
  8
0
 10
40.5843
 20
144.232
 11
40.8333
 21
144.25
  0
LINE
  8
0
 10
40.8333
 20
144.25
 11
97.5
 21
144.25
  0
LINE
  8
0
 10
97.5
 20
144.25
 11
97.7491
 21
144.232
  0
LINE
  8
0
 10
97.7491
 20
144.232
 11
97.993
 21
144.179
  0
LINE
  8
0
 10
97.993
 20
144.179
 11
98.227
 21
144.092
  0
LINE
  8
0
 10
98.227
 20
144.092
 11
98.4461
 21
143.972
  0
LINE
  8
0
 10
98.4461
 20
143.972
 11
98.646
 21
143.823
  0
LINE
  8
0
 10
98.646
 20
143.823
 11
98.8226
 21
143.646
  0
LINE
  8
0
 10
98.8226
 20
143.646
 11
98.9722
 21
143.446
  0
LINE
  8
0
 10
98.9722
 20
143.446
 11
99.0919
 21
143.227
  0
LINE
  8
0
 10
99.0919
 20
143.227
 11
99.1791
 21
142.993
  0
LINE
  8
0
 10
99.1791
 20
142.993
 11
99.2322
 21
142.749
  0
LINE
  8
0
 10
99.2322
 20
142.749
 11
99.25
 21
142.5
  0
LINE
  8
0
 10
99.25
 20
142.5
 11
99.2322
 21
142.251
  0
LINE
  8
0
 10
99.2322
 20
142.251
 11
99.1791
 21
142.007
  0
LINE
  8
0
 10
99.1791
 20
142.007
 11
99.0919
 21
141.773
  0
LINE
  8
0
 10
99.0919
 20
141.773
 11
98.9722
 21
141.554
  0
LINE
  8
0
 10
98.9722
 20
141.554
 11
98.8226
 21
141.354
  0
LINE
  8
0
 10
98.8226
 20
141.354
 11
98.646
 21
141.177
  0
LINE
  8
0
 10
98.646
 20
141.177
 11
98.4461
 21
141.028
  0
LINE
  8
0
 10
98.4461
 20
141.028
 11
98.227
 21
140.908
  0
LINE
  8
0
 10
98.227
 20
140.908
 11
97.993
 21
140.821
  0
LINE
  8
0
 10
97.993
 20
140.821
 11
97.7491
 21
140.768
  0
LINE
  8
0
 10
97.7491
 20
140.768
 11
97.5
 21
140.75
  0
LINE
  8
0
 10
97.5
 20
140.75
 11
40.8333
 21
140.75
  0
LINE
  8
0
 10
-92.5
 20
140.75
 11
-92.7491
 21
140.768
  0
LINE
  8
0
 10
-92.7491
 20
140.768
 11
-92.993
 21
140.821
  0
LINE
  8
0
 10
-92.993
 20
140.821
 11
-93.227
 21
140.908
  0
LINE
  8
0
 10
-93.227
 20
140.908
 11
-93.4461
 21
141.028
  0
LINE
  8
0
 10
-93.4461
 20
141.028
 11
-93.646
 21
141.177
  0
LINE
  8
0
 10
-93.646
 20
141.177
 11
-93.8226
 21
141.354
  0
LINE
  8
0
 10
-93.8226
 20
141.354
 11
-93.9722
 21
141.554
  0
LINE
  8
0
 10
-93.9722
 20
141.554
 11
-94.0919
 21
141.773
  0
LINE
  8
0
 10
-94.0919
 20
141.773
 11
-94.1791
 21
142.007
  0
LINE
  8
0
 10
-94.1791
 20
142.007
 11
-94.2322
 21
142.251
  0
LINE
  8
0
 10
-94.2322
 20
142.251
 11
-94.25
 21
142.5
  0
LINE
  8
0
 10
-94.25
 20
142.5
 11
-94.2322
 21
142.749
  0
LINE
  8
0
 10
-94.2322
 20
142.749
 11
-94.1791
 21
142.993
  0
LINE
  8
0
 10
-94.1791
 20
142.993
 11
-94.0919
 21
143.227
  0
LINE
  8
0
 10
-94.0919
 20
143.227
 11
-93.9722
 21
143.446
  0
LINE
  8
0
 10
-93.9722
 20
143.446
 11
-93.8226
 21
143.646
  0
LINE
  8
0
 10
-93.8226
 20
143.646
 11
-93.646
 21
143.823
  0
LINE
  8
0
 10
-93.646
 20
143.823
 11
-93.4461
 21
143.972
  0
LINE
  8
0
 10
-93.4461
 20
143.972
 11
-93.227
 21
144.092
  0
LINE
  8
0
 10
-93.227
 20
144.092
 11
-92.993
 21
144.179
  0
LINE
  8
0
 10
-92.993
 20
144.179
 11
-92.7491
 21
144.232
  0
LINE
  8
0
 10
-92.7491
 20
144.232
 11
-92.5
 21
144.25
  0
LINE
  8
0
 10
-92.5
 20
144.25
 11
-35.8333
 21
144.25
  0
LINE
  8
0
 10
-35.8333
 20
144.25
 11
-35.5843
 21
144.232
  0
LINE
  8
0
 10
-35.5843
 20
144.232
 11
-35.3403
 21
144.179
  0
LINE
  8
0
 10
-35.3403
 20
144.179
 11
-35.1064
 21
144.092
  0
LINE
  8
0
 10
-35.1064
 20
144.092
 11
-34.8872
 21
143.972
  0
LINE
  8
0
 10
-34.8872
 20
143.972
 11
-34.6873
 21
143.823
  0
LINE
  8
0
 10
-34.6873
 20
143.823
 11
-34.5108
 21
143.646
  0
LINE
  8
0
 10
-34.5108
 20
143.646
 11
-34.3611
 21
143.446
  0
LINE
  8
0
 10
-34.3611
 20
143.446
 11
-34.2415
 21
143.227
  0
LINE
  8
0
 10
-34.2415
 20
143.227
 11
-34.1542
 21
142.993
  0
LINE
  8
0
 10
-34.1542
 20
142.993
 11
-34.1011
 21
142.749
  0
LINE
  8
0
 10
-34.1011
 20
142.749
 11
-34.0833
 21
142.5
  0
LINE
  8
0
 10
-34.0833
 20
142.5
 11
-34.1011
 21
142.251
  0
LINE
  8
0
 10
-34.1011
 20
142.251
 11
-34.1542
 21
142.007
  0
LINE
  8
0
 10
-34.1542
 20
142.007
 11
-34.2415
 21
141.773
  0
LINE
  8
0
 10
-34.2415
 20
141.773
 11
-34.3611
 21
141.554
  0
LINE
  8
0
 10
-34.3611
 20
141.554
 11
-34.5108
 21
141.354
  0
LINE
  8
0
 10
-34.5108
 20
141.354
 11
-34.6873
 21
141.177
  0
LINE
  8
0
 10
-34.6873
 20
141.177
 11
-34.8872
 21
141.028
  0
LINE
  8
0
 10
-34.8872
 20
141.028
 11
-35.1064
 21
140.908
  0
LINE
  8
0
 10
-35.1064
 20
140.908
 11
-35.3403
 21
140.821
  0
LINE
  8
0
 10
-35.3403
 20
140.821
 11
-35.5843
 21
140.768
  0
LINE
  8
0
 10
-35.5843
 20
140.768
 11
-35.8333
 21
140.75
  0
LINE
  8
0
 10
-35.8333
 20
140.75
 11
-92.5
 21
140.75
  0
LINE
  8
0
 10
-25.8333
 20
140.75
 11
-26.0824
 21
140.768
  0
LINE
  8
0
 10
-26.0824
 20
140.768
 11
-26.3264
 21
140.821
  0
LINE
  8
0
 10
-26.3264
 20
140.821
 11
-26.5603
 21
140.908
  0
LINE
  8
0
 10
-26.5603
 20
140.908
 11
-26.7794
 21
141.028
  0
LINE
  8
0
 10
-26.7794
 20
141.028
 11
-26.9793
 21
141.177
  0
LINE
  8
0
 10
-26.9793
 20
141.177
 11
-27.1559
 21
141.354
  0
LINE
  8
0
 10
-27.1559
 20
141.354
 11
-27.3055
 21
141.554
  0
LINE
  8
0
 10
-27.3055
 20
141.554
 11
-27.4252
 21
141.773
  0
LINE
  8
0
 10
-27.4252
 20
141.773
 11
-27.5124
 21
142.007
  0
LINE
  8
0
 10
-27.5124
 20
142.007
 11
-27.5655
 21
142.251
  0
LINE
  8
0
 10
-27.5655
 20
142.251
 11
-27.5833
 21
142.5
  0
LINE
  8
0
 10
-27.5833
 20
142.5
 11
-27.5655
 21
142.749
  0
LINE
  8
0
 10
-27.5655
 20
142.749
 11
-27.5124
 21
142.993
  0
LINE
  8
0
 10
-27.5124
 20
142.993
 11
-27.4252
 21
143.227
  0
LINE
  8
0
 10
-27.4252
 20
143.227
 11
-27.3055
 21
143.446
  0
LINE
  8
0
 10
-27.3055
 20
143.446
 11
-27.1559
 21
143.646
  0
LINE
  8
0
 10
-27.1559
 20
143.646
 11
-26.9793
 21
143.823
  0
LINE
  8
0
 10
-26.9793
 20
143.823
 11
-26.7794
 21
143.972
  0
LINE
  8
0
 10
-26.7794
 20
143.972
 11
-26.5603
 21
144.092
  0
LINE
  8
0
 10
-26.5603
 20
144.092
 11
-26.3264
 21
144.179
  0
LINE
  8
0
 10
-26.3264
 20
144.179
 11
-26.0824
 21
144.232
  0
LINE
  8
0
 10
-26.0824
 20
144.232
 11
-25.8333
 21
144.25
  0
LINE
  8
0
 10
-25.8333
 20
144.25
 11
30.8333
 21
144.25
  0
LINE
  8
0
 10
30.8333
 20
144.25
 11
31.0824
 21
144.232
  0
LINE
  8
0
 10
31.0824
 20
144.232
 11
31.3264
 21
144.179
  0
LINE
  8
0
 10
31.3264
 20
144.179
 11
31.5603
 21
144.092
  0
LINE
  8
0
 10
31.5603
 20
144.092
 11
31.7794
 21
143.972
  0
LINE
  8
0
 10
31.7794
 20
143.972
 11
31.9793
 21
143.823
  0
LINE
  8
0
 10
31.9793
 20
143.823
 11
32.1559
 21
143.646
  0
LINE
  8
0
 10
32.1559
 20
143.646
 11
32.3055
 21
143.446
  0
LINE
  8
0
 10
32.3055
 20
143.446
 11
32.4252
 21
143.227
  0
LINE
  8
0
 10
32.4252
 20
143.227
 11
32.5124
 21
142.993
  0
LINE
  8
0
 10
32.5124
 20
142.993
 11
32.5655
 21
142.749
  0
LINE
  8
0
 10
32.5655
 20
142.749
 11
32.5833
 21
142.5
  0
LINE
  8
0
 10
32.5833
 20
142.5
 11
32.5655
 21
142.251
  0
LINE
  8
0
 10
32.5655
 20
142.251
 11
32.5124
 21
142.007
  0
LINE
  8
0
 10
32.5124
 20
142.007
 11
32.4252
 21
141.773
  0
LINE
  8
0
 10
32.4252
 20
141.773
 11
32.3055
 21
141.554
  0
LINE
  8
0
 10
32.3055
 20
141.554
 11
32.1559
 21
141.354
  0
LINE
  8
0
 10
32.1559
 20
141.354
 11
31.9793
 21
141.177
  0
LINE
  8
0
 10
31.9793
 20
141.177
 11
31.7794
 21
141.028
  0
LINE
  8
0
 10
31.7794
 20
141.028
 11
31.5603
 21
140.908
  0
LINE
  8
0
 10
31.5603
 20
140.908
 11
31.3264
 21
140.821
  0
LINE
  8
0
 10
31.3264
 20
140.821
 11
31.0824
 21
140.768
  0
LINE
  8
0
 10
31.0824
 20
140.768
 11
30.8333
 21
140.75
  0
LINE
  8
0
 10
30.8333
 20
140.75
 11
-25.8333
 21
140.75
  0
LINE
  8
0
 10
-120.186
 20
140.81
 11
-120.43
 21
140.855
  0
LINE
  8
0
 10
-120.43
 20
140.855
 11
-120.665
 21
140.935
  0
LINE
  8
0
 10
-120.665
 20
140.935
 11
-120.886
 21
141.049
  0
LINE
  8
0
 10
-120.886
 20
141.049
 11
-121.087
 21
141.193
  0
LINE
  8
0
 10
-121.087
 20
141.193
 11
-121.266
 21
141.366
  0
LINE
  8
0
 10
-121.266
 20
141.366
 11
-121.418
 21
141.562
  0
LINE
  8
0
 10
-121.418
 20
141.562
 11
-121.539
 21
141.778
  0
LINE
  8
0
 10
-121.539
 20
141.778
 11
-121.628
 21
142.01
  0
LINE
  8
0
 10
-121.628
 20
142.01
 11
-121.682
 21
142.252
  0
LINE
  8
0
 10
-121.682
 20
142.252
 11
-121.7
 21
142.5
  0
LINE
  8
0
 10
-121.7
 20
142.5
 11
-121.682
 21
142.748
  0
LINE
  8
0
 10
-121.682
 20
142.748
 11
-121.628
 21
142.99
  0
LINE
  8
0
 10
-121.628
 20
142.99
 11
-121.539
 21
143.222
  0
LINE
  8
0
 10
-121.539
 20
143.222
 11
-121.418
 21
143.438
  0
LINE
  8
0
 10
-121.418
 20
143.438
 11
-121.266
 21
143.634
  0
LINE
  8
0
 10
-121.266
 20
143.634
 11
-121.087
 21
143.807
  0
LINE
  8
0
 10
-121.087
 20
143.807
 11
-120.886
 21
143.951
  0
LINE
  8
0
 10
-120.886
 20
143.951
 11
-120.665
 21
144.065
  0
LINE
  8
0
 10
-120.665
 20
144.065
 11
-120.43
 21
144.145
  0
LINE
  8
0
 10
-120.43
 20
144.145
 11
-120.186
 21
144.19
  0
LINE
  8
0
 10
-120.186
 20
144.19
 11
-119.938
 21
144.199
  0
LINE
  8
0
 10
-119.938
 20
144.199
 11
-119.691
 21
144.172
  0
LINE
  8
0
 10
-119.691
 20
144.172
 11
-119.451
 21
144.109
  0
LINE
  8
0
 10
-119.451
 20
144.109
 11
-119.223
 21
144.012
  0
LINE
  8
0
 10
-119.223
 20
144.012
 11
-119.011
 21
143.883
  0
LINE
  8
0
 10
-119.011
 20
143.883
 11
-118.82
 21
143.724
  0
LINE
  8
0
 10
-118.82
 20
143.724
 11
-118.654
 21
143.539
  0
LINE
  8
0
 10
-118.654
 20
143.539
 11
-118.518
 21
143.332
  0
LINE
  8
0
 10
-118.518
 20
143.332
 11
-118.412
 21
143.107
  0
LINE
  8
0
 10
-118.412
 20
143.107
 11
-118.341
 21
142.87
  0
LINE
  8
0
 10
-118.341
 20
142.87
 11
-118.305
 21
142.624
  0
LINE
  8
0
 10
-118.305
 20
142.624
 11
-118.305
 21
142.376
  0
LINE
  8
0
 10
-118.305
 20
142.376
 11
-118.341
 21
142.13
  0
LINE
  8
0
 10
-118.341
 20
142.13
 11
-118.412
 21
141.893
  0
LINE
  8
0
 10
-118.412
 20
141.893
 11
-118.518
 21
141.668
  0
LINE
  8
0
 10
-118.518
 20
141.668
 11
-118.654
 21
141.461
  0
LINE
  8
0
 10
-118.654
 20
141.461
 11
-118.82
 21
141.276
  0
LINE
  8
0
 10
-118.82
 20
141.276
 11
-119.011
 21
141.117
  0
LINE
  8
0
 10
-119.011
 20
141.117
 11
-119.223
 21
140.988
  0
LINE
  8
0
 10
-119.223
 20
140.988
 11
-119.451
 21
140.891
  0
LINE
  8
0
 10
-119.451
 20
140.891
 11
-119.691
 21
140.828
  0
LINE
  8
0
 10
-119.691
 20
140.828
 11
-119.938
 21
140.801
  0
LINE
  8
0
 10
-119.938
 20
140.801
 11
-120.186
 21
140.81
  0
LINE
  8
0
 10
119.691
 20
140.828
 11
119.451
 21
140.891
  0
LINE
  8
0
 10
119.451
 20
140.891
 11
119.223
 21
140.988
  0
LINE
  8
0
 10
119.223
 20
140.988
 11
119.011
 21
141.117
  0
LINE
  8
0
 10
119.011
 20
141.117
 11
118.82
 21
141.276
  0
LINE
  8
0
 10
118.82
 20
141.276
 11
118.654
 21
141.461
  0
LINE
  8
0
 10
118.654
 20
141.461
 11
118.518
 21
141.668
  0
LINE
  8
0
 10
118.518
 20
141.668
 11
118.412
 21
141.893
  0
LINE
  8
0
 10
118.412
 20
141.893
 11
118.341
 21
142.13
  0
LINE
  8
0
 10
118.341
 20
142.13
 11
118.305
 21
142.376
  0
LINE
  8
0
 10
118.305
 20
142.376
 11
118.305
 21
142.624
  0
LINE
  8
0
 10
118.305
 20
142.624
 11
118.341
 21
142.87
  0
LINE
  8
0
 10
118.341
 20
142.87
 11
118.412
 21
143.107
  0
LINE
  8
0
 10
118.412
 20
143.107
 11
118.518
 21
143.332
  0
LINE
  8
0
 10
118.518
 20
143.332
 11
118.654
 21
143.539
  0
LINE
  8
0
 10
118.654
 20
143.539
 11
118.82
 21
143.724
  0
LINE
  8
0
 10
118.82
 20
143.724
 11
119.011
 21
143.883
  0
LINE
  8
0
 10
119.011
 20
143.883
 11
119.223
 21
144.012
  0
LINE
  8
0
 10
119.223
 20
144.012
 11
119.451
 21
144.109
  0
LINE
  8
0
 10
119.451
 20
144.109
 11
119.691
 21
144.172
  0
LINE
  8
0
 10
119.691
 20
144.172
 11
119.938
 21
144.199
  0
LINE
  8
0
 10
119.938
 20
144.199
 11
120.186
 21
144.19
  0
LINE
  8
0
 10
120.186
 20
144.19
 11
120.43
 21
144.145
  0
LINE
  8
0
 10
120.43
 20
144.145
 11
120.665
 21
144.065
  0
LINE
  8
0
 10
120.665
 20
144.065
 11
120.886
 21
143.951
  0
LINE
  8
0
 10
120.886
 20
143.951
 11
121.087
 21
143.807
  0
LINE
  8
0
 10
121.087
 20
143.807
 11
121.266
 21
143.634
  0
LINE
  8
0
 10
121.266
 20
143.634
 11
121.418
 21
143.438
  0
LINE
  8
0
 10
121.418
 20
143.438
 11
121.539
 21
143.222
  0
LINE
  8
0
 10
121.539
 20
143.222
 11
121.628
 21
142.99
  0
LINE
  8
0
 10
121.628
 20
142.99
 11
121.682
 21
142.748
  0
LINE
  8
0
 10
121.682
 20
142.748
 11
121.7
 21
142.5
  0
LINE
  8
0
 10
121.7
 20
142.5
 11
121.682
 21
142.252
  0
LINE
  8
0
 10
121.682
 20
142.252
 11
121.628
 21
142.01
  0
LINE
  8
0
 10
121.628
 20
142.01
 11
121.539
 21
141.778
  0
LINE
  8
0
 10
121.539
 20
141.778
 11
121.418
 21
141.562
  0
LINE
  8
0
 10
121.418
 20
141.562
 11
121.266
 21
141.366
  0
LINE
  8
0
 10
121.266
 20
141.366
 11
121.087
 21
141.193
  0
LINE
  8
0
 10
121.087
 20
141.193
 11
120.886
 21
141.049
  0
LINE
  8
0
 10
120.886
 20
141.049
 11
120.665
 21
140.935
  0
LINE
  8
0
 10
120.665
 20
140.935
 11
120.43
 21
140.855
  0
LINE
  8
0
 10
120.43
 20
140.855
 11
120.186
 21
140.81
  0
LINE
  8
0
 10
120.186
 20
140.81
 11
119.938
 21
140.801
  0
LINE
  8
0
 10
119.938
 20
140.801
 11
119.691
 21
140.828
  0
LINE
  8
0
 10
183.5
 20
115.5
 11
182.193
 21
115.568
  0
LINE
  8
0
 10
182.193
 20
115.568
 11
180.901
 21
115.773
  0
LINE
  8
0
 10
180.901
 20
115.773
 11
179.637
 21
116.112
  0
LINE
  8
0
 10
179.637
 20
116.112
 11
178.416
 21
116.581
  0
LINE
  8
0
 10
178.416
 20
116.581
 11
177.25
 21
117.175
  0
LINE
  8
0
 10
177.25
 20
117.175
 11
176.153
 21
117.887
  0
LINE
  8
0
 10
176.153
 20
117.887
 11
175.136
 21
118.711
  0
LINE
  8
0
 10
175.136
 20
118.711
 11
174.211
 21
119.636
  0
LINE
  8
0
 10
174.211
 20
119.636
 11
173.387
 21
120.653
  0
LINE
  8
0
 10
173.387
 20
120.653
 11
172.675
 21
121.75
  0
LINE
  8
0
 10
172.675
 20
121.75
 11
172.081
 21
122.916
  0
LINE
  8
0
 10
172.081
 20
122.916
 11
171.612
 21
124.137
  0
LINE
  8
0
 10
171.612
 20
124.137
 11
171.273
 21
125.401
  0
LINE
  8
0
 10
171.273
 20
125.401
 11
171.068
 21
126.693
  0
LINE
  8
0
 10
171.068
 20
126.693
 11
171
 21
128
  0
LINE
  8
0
 10
171
 20
128
 11
171.068
 21
129.307
  0
LINE
  8
0
 10
171.068
 20
129.307
 11
171.273
 21
130.599
  0
LINE
  8
0
 10
171.273
 20
130.599
 11
171.612
 21
131.863
  0
LINE
  8
0
 10
171.612
 20
131.863
 11
172.081
 21
133.084
  0
LINE
  8
0
 10
172.081
 20
133.084
 11
172.675
 21
134.25
  0
LINE
  8
0
 10
172.675
 20
134.25
 11
173.387
 21
135.347
  0
LINE
  8
0
 10
173.387
 20
135.347
 11
174.211
 21
136.364
  0
LINE
  8
0
 10
174.211
 20
136.364
 11
175.136
 21
137.289
  0
LINE
  8
0
 10
175.136
 20
137.289
 11
176.153
 21
138.113
  0
LINE
  8
0
 10
176.153
 20
138.113
 11
177.25
 21
138.825
  0
LINE
  8
0
 10
177.25
 20
138.825
 11
178.416
 21
139.419
  0
LINE
  8
0
 10
178.416
 20
139.419
 11
179.637
 21
139.888
  0
LINE
  8
0
 10
179.637
 20
139.888
 11
180.901
 21
140.227
  0
LINE
  8
0
 10
180.901
 20
140.227
 11
182.193
 21
140.432
  0
LINE
  8
0
 10
182.193
 20
140.432
 11
183.5
 21
140.5
  0
LINE
  8
0
 10
183.5
 20
140.5
 11
191.5
 21
140.5
  0
LINE
  8
0
 10
191.5
 20
140.5
 11
192.807
 21
140.432
  0
LINE
  8
0
 10
192.807
 20
140.432
 11
194.099
 21
140.227
  0
LINE
  8
0
 10
194.099
 20
140.227
 11
195.363
 21
139.888
  0
LINE
  8
0
 10
195.363
 20
139.888
 11
196.584
 21
139.419
  0
LINE
  8
0
 10
196.584
 20
139.419
 11
197.75
 21
138.825
  0
LINE
  8
0
 10
197.75
 20
138.825
 11
198.847
 21
138.113
  0
LINE
  8
0
 10
198.847
 20
138.113
 11
199.864
 21
137.289
  0
LINE
  8
0
 10
199.864
 20
137.289
 11
200.789
 21
136.364
  0
LINE
  8
0
 10
200.789
 20
136.364
 11
201.613
 21
135.347
  0
LINE
  8
0
 10
201.613
 20
135.347
 11
202.325
 21
134.25
  0
LINE
  8
0
 10
202.325
 20
134.25
 11
202.919
 21
133.084
  0
LINE
  8
0
 10
202.919
 20
133.084
 11
203.388
 21
131.863
  0
LINE
  8
0
 10
203.388
 20
131.863
 11
203.727
 21
130.599
  0
LINE
  8
0
 10
203.727
 20
130.599
 11
203.932
 21
129.307
  0
LINE
  8
0
 10
203.932
 20
129.307
 11
204
 21
128
  0
LINE
  8
0
 10
204
 20
128
 11
203.932
 21
126.693
  0
LINE
  8
0
 10
203.932
 20
126.693
 11
203.727
 21
125.401
  0
LINE
  8
0
 10
203.727
 20
125.401
 11
203.388
 21
124.137
  0
LINE
  8
0
 10
203.388
 20
124.137
 11
202.919
 21
122.916
  0
LINE
  8
0
 10
202.919
 20
122.916
 11
202.325
 21
121.75
  0
LINE
  8
0
 10
202.325
 20
121.75
 11
201.613
 21
120.653
  0
LINE
  8
0
 10
201.613
 20
120.653
 11
200.789
 21
119.636
  0
LINE
  8
0
 10
200.789
 20
119.636
 11
199.864
 21
118.711
  0
LINE
  8
0
 10
199.864
 20
118.711
 11
198.847
 21
117.887
  0
LINE
  8
0
 10
198.847
 20
117.887
 11
197.75
 21
117.175
  0
LINE
  8
0
 10
197.75
 20
117.175
 11
196.584
 21
116.581
  0
LINE
  8
0
 10
196.584
 20
116.581
 11
195.363
 21
116.112
  0
LINE
  8
0
 10
195.363
 20
116.112
 11
194.099
 21
115.773
  0
LINE
  8
0
 10
194.099
 20
115.773
 11
192.807
 21
115.568
  0
LINE
  8
0
 10
192.807
 20
115.568
 11
191.5
 21
115.5
  0
LINE
  8
0
 10
191.5
 20
115.5
 11
183.5
 21
115.5
  0
LINE
  8
0
 10
-134
 20
-135
 11
-134.223
 21
-134.975
  0
LINE
  8
0
 10
-134.223
 20
-134.975
 11
-134.434
 21
-134.901
  0
LINE
  8
0
 10
-134.434
 20
-134.901
 11
-134.623
 21
-134.782
  0
LINE
  8
0
 10
-134.623
 20
-134.782
 11
-134.782
 21
-134.623
  0
LINE
  8
0
 10
-134.782
 20
-134.623
 11
-134.901
 21
-134.434
  0
LINE
  8
0
 10
-134.901
 20
-134.434
 11
-134.975
 21
-134.223
  0
LINE
  8
0
 10
-134.975
 20
-134.223
 11
-135
 21
-134
  0
LINE
  8
0
 10
-135
 20
-134
 11
-135
 21
134
  0
LINE
  8
0
 10
-135
 20
134
 11
-134.975
 21
134.223
  0
LINE
  8
0
 10
-134.975
 20
134.223
 11
-134.901
 21
134.434
  0
LINE
  8
0
 10
-134.901
 20
134.434
 11
-134.782
 21
134.623
  0
LINE
  8
0
 10
-134.782
 20
134.623
 11
-134.623
 21
134.782
  0
LINE
  8
0
 10
-134.623
 20
134.782
 11
-134.434
 21
134.901
  0
LINE
  8
0
 10
-134.434
 20
134.901
 11
-134.223
 21
134.975
  0
LINE
  8
0
 10
-134.223
 20
134.975
 11
-134
 21
135
  0
LINE
  8
0
 10
-134
 20
135
 11
134
 21
135
  0
LINE
  8
0
 10
134
 20
135
 11
134.223
 21
134.975
  0
LINE
  8
0
 10
134.223
 20
134.975
 11
134.434
 21
134.901
  0
LINE
  8
0
 10
134.434
 20
134.901
 11
134.623
 21
134.782
  0
LINE
  8
0
 10
134.623
 20
134.782
 11
134.782
 21
134.623
  0
LINE
  8
0
 10
134.782
 20
134.623
 11
134.901
 21
134.434
  0
LINE
  8
0
 10
134.901
 20
134.434
 11
134.975
 21
134.223
  0
LINE
  8
0
 10
134.975
 20
134.223
 11
135
 21
134
  0
LINE
  8
0
 10
135
 20
134
 11
135
 21
-134
  0
LINE
  8
0
 10
135
 20
-134
 11
134.975
 21
-134.223
  0
LINE
  8
0
 10
134.975
 20
-134.223
 11
134.901
 21
-134.434
  0
LINE
  8
0
 10
134.901
 20
-134.434
 11
134.782
 21
-134.623
  0
LINE
  8
0
 10
134.782
 20
-134.623
 11
134.623
 21
-134.782
  0
LINE
  8
0
 10
134.623
 20
-134.782
 11
134.434
 21
-134.901
  0
LINE
  8
0
 10
134.434
 20
-134.901
 11
134.223
 21
-134.975
  0
LINE
  8
0
 10
134.223
 20
-134.975
 11
134
 21
-135
  0
LINE
  8
0
 10
134
 20
-135
 11
-134
 21
-135
  0
LINE
  8
0
 10
-190.244
 20
126.774
 11
-190.478
 21
126.845
  0
LINE
  8
0
 10
-190.478
 20
126.845
 11
-190.694
 21
126.961
  0
LINE
  8
0
 10
-190.694
 20
126.961
 11
-190.884
 21
127.116
  0
LINE
  8
0
 10
-190.884
 20
127.116
 11
-191.039
 21
127.306
  0
LINE
  8
0
 10
-191.039
 20
127.306
 11
-191.155
 21
127.522
  0
LINE
  8
0
 10
-191.155
 20
127.522
 11
-191.226
 21
127.756
  0
LINE
  8
0
 10
-191.226
 20
127.756
 11
-191.25
 21
128
  0
LINE
  8
0
 10
-191.25
 20
128
 11
-191.226
 21
128.244
  0
LINE
  8
0
 10
-191.226
 20
128.244
 11
-191.155
 21
128.478
  0
LINE
  8
0
 10
-191.155
 20
128.478
 11
-191.039
 21
128.694
  0
LINE
  8
0
 10
-191.039
 20
128.694
 11
-190.884
 21
128.884
  0
LINE
  8
0
 10
-190.884
 20
128.884
 11
-190.694
 21
129.039
  0
LINE
  8
0
 10
-190.694
 20
129.039
 11
-190.478
 21
129.155
  0
LINE
  8
0
 10
-190.478
 20
129.155
 11
-190.244
 21
129.226
  0
LINE
  8
0
 10
-190.244
 20
129.226
 11
-190
 21
129.25
  0
LINE
  8
0
 10
-190
 20
129.25
 11
-189.756
 21
129.226
  0
LINE
  8
0
 10
-189.756
 20
129.226
 11
-189.522
 21
129.155
  0
LINE
  8
0
 10
-189.522
 20
129.155
 11
-189.306
 21
129.039
  0
LINE
  8
0
 10
-189.306
 20
129.039
 11
-189.116
 21
128.884
  0
LINE
  8
0
 10
-189.116
 20
128.884
 11
-188.961
 21
128.694
  0
LINE
  8
0
 10
-188.961
 20
128.694
 11
-188.845
 21
128.478
  0
LINE
  8
0
 10
-188.845
 20
128.478
 11
-188.774
 21
128.244
  0
LINE
  8
0
 10
-188.774
 20
128.244
 11
-188.75
 21
128
  0
LINE
  8
0
 10
-188.75
 20
128
 11
-188.774
 21
127.756
  0
LINE
  8
0
 10
-188.774
 20
127.756
 11
-188.845
 21
127.522
  0
LINE
  8
0
 10
-188.845
 20
127.522
 11
-188.961
 21
127.306
  0
LINE
  8
0
 10
-188.961
 20
127.306
 11
-189.116
 21
127.116
  0
LINE
  8
0
 10
-189.116
 20
127.116
 11
-189.306
 21
126.961
  0
LINE
  8
0
 10
-189.306
 20
126.961
 11
-189.522
 21
126.845
  0
LINE
  8
0
 10
-189.522
 20
126.845
 11
-189.756
 21
126.774
  0
LINE
  8
0
 10
-189.756
 20
126.774
 11
-190
 21
126.75
  0
LINE
  8
0
 10
-190
 20
126.75
 11
-190.244
 21
126.774
  0
LINE
  8
0
 10
-142.686
 20
118.31
 11
-142.93
 21
118.355
  0
LINE
  8
0
 10
-142.93
 20
118.355
 11
-143.165
 21
118.435
  0
LINE
  8
0
 10
-143.165
 20
118.435
 11
-143.386
 21
118.549
  0
LINE
  8
0
 10
-143.386
 20
118.549
 11
-143.587
 21
118.693
  0
LINE
  8
0
 10
-143.587
 20
118.693
 11
-143.766
 21
118.866
  0
LINE
  8
0
 10
-143.766
 20
118.866
 11
-143.918
 21
119.062
  0
LINE
  8
0
 10
-143.918
 20
119.062
 11
-144.039
 21
119.278
  0
LINE
  8
0
 10
-144.039
 20
119.278
 11
-144.128
 21
119.51
  0
LINE
  8
0
 10
-144.128
 20
119.51
 11
-144.182
 21
119.752
  0
LINE
  8
0
 10
-144.182
 20
119.752
 11
-144.2
 21
120
  0
LINE
  8
0
 10
-144.2
 20
120
 11
-144.182
 21
120.248
  0
LINE
  8
0
 10
-144.182
 20
120.248
 11
-144.128
 21
120.49
  0
LINE
  8
0
 10
-144.128
 20
120.49
 11
-144.039
 21
120.722
  0
LINE
  8
0
 10
-144.039
 20
120.722
 11
-143.918
 21
120.938
  0
LINE
  8
0
 10
-143.918
 20
120.938
 11
-143.766
 21
121.134
  0
LINE
  8
0
 10
-143.766
 20
121.134
 11
-143.587
 21
121.307
  0
LINE
  8
0
 10
-143.587
 20
121.307
 11
-143.386
 21
121.451
  0
LINE
  8
0
 10
-143.386
 20
121.451
 11
-143.165
 21
121.565
  0
LINE
  8
0
 10
-143.165
 20
121.565
 11
-142.93
 21
121.645
  0
LINE
  8
0
 10
-142.93
 20
121.645
 11
-142.686
 21
121.69
  0
LINE
  8
0
 10
-142.686
 20
121.69
 11
-142.438
 21
121.699
  0
LINE
  8
0
 10
-142.438
 20
121.699
 11
-142.191
 21
121.672
  0
LINE
  8
0
 10
-142.191
 20
121.672
 11
-141.951
 21
121.609
  0
LINE
  8
0
 10
-141.951
 20
121.609
 11
-141.723
 21
121.512
  0
LINE
  8
0
 10
-141.723
 20
121.512
 11
-141.511
 21
121.383
  0
LINE
  8
0
 10
-141.511
 20
121.383
 11
-141.32
 21
121.224
  0
LINE
  8
0
 10
-141.32
 20
121.224
 11
-141.154
 21
121.039
  0
LINE
  8
0
 10
-141.154
 20
121.039
 11
-141.018
 21
120.832
  0
LINE
  8
0
 10
-141.018
 20
120.832
 11
-140.912
 21
120.607
  0
LINE
  8
0
 10
-140.912
 20
120.607
 11
-140.841
 21
120.37
  0
LINE
  8
0
 10
-140.841
 20
120.37
 11
-140.805
 21
120.124
  0
LINE
  8
0
 10
-140.805
 20
120.124
 11
-140.805
 21
119.876
  0
LINE
  8
0
 10
-140.805
 20
119.876
 11
-140.841
 21
119.63
  0
LINE
  8
0
 10
-140.841
 20
119.63
 11
-140.912
 21
119.393
  0
LINE
  8
0
 10
-140.912
 20
119.393
 11
-141.018
 21
119.168
  0
LINE
  8
0
 10
-141.018
 20
119.168
 11
-141.154
 21
118.961
  0
LINE
  8
0
 10
-141.154
 20
118.961
 11
-141.32
 21
118.776
  0
LINE
  8
0
 10
-141.32
 20
118.776
 11
-141.511
 21
118.617
  0
LINE
  8
0
 10
-141.511
 20
118.617
 11
-141.723
 21
118.488
  0
LINE
  8
0
 10
-141.723
 20
118.488
 11
-141.951
 21
118.391
  0
LINE
  8
0
 10
-141.951
 20
118.391
 11
-142.191
 21
118.328
  0
LINE
  8
0
 10
-142.191
 20
118.328
 11
-142.438
 21
118.301
  0
LINE
  8
0
 10
-142.438
 20
118.301
 11
-142.686
 21
118.31
  0
LINE
  8
0
 10
142.191
 20
118.328
 11
141.951
 21
118.391
  0
LINE
  8
0
 10
141.951
 20
118.391
 11
141.723
 21
118.488
  0
LINE
  8
0
 10
141.723
 20
118.488
 11
141.511
 21
118.617
  0
LINE
  8
0
 10
141.511
 20
118.617
 11
141.32
 21
118.776
  0
LINE
  8
0
 10
141.32
 20
118.776
 11
141.154
 21
118.961
  0
LINE
  8
0
 10
141.154
 20
118.961
 11
141.018
 21
119.168
  0
LINE
  8
0
 10
141.018
 20
119.168
 11
140.912
 21
119.393
  0
LINE
  8
0
 10
140.912
 20
119.393
 11
140.841
 21
119.63
  0
LINE
  8
0
 10
140.841
 20
119.63
 11
140.805
 21
119.876
  0
LINE
  8
0
 10
140.805
 20
119.876
 11
140.805
 21
120.124
  0
LINE
  8
0
 10
140.805
 20
120.124
 11
140.841
 21
120.37
  0
LINE
  8
0
 10
140.841
 20
120.37
 11
140.912
 21
120.607
  0
LINE
  8
0
 10
140.912
 20
120.607
 11
141.018
 21
120.832
  0
LINE
  8
0
 10
141.018
 20
120.832
 11
141.154
 21
121.039
  0
LINE
  8
0
 10
141.154
 20
121.039
 11
141.32
 21
121.224
  0
LINE
  8
0
 10
141.32
 20
121.224
 11
141.511
 21
121.383
  0
LINE
  8
0
 10
141.511
 20
121.383
 11
141.723
 21
121.512
  0
LINE
  8
0
 10
141.723
 20
121.512
 11
141.951
 21
121.609
  0
LINE
  8
0
 10
141.951
 20
121.609
 11
142.191
 21
121.672
  0
LINE
  8
0
 10
142.191
 20
121.672
 11
142.438
 21
121.699
  0
LINE
  8
0
 10
142.438
 20
121.699
 11
142.686
 21
121.69
  0
LINE
  8
0
 10
142.686
 20
121.69
 11
142.93
 21
121.645
  0
LINE
  8
0
 10
142.93
 20
121.645
 11
143.165
 21
121.565
  0
LINE
  8
0
 10
143.165
 20
121.565
 11
143.386
 21
121.451
  0
LINE
  8
0
 10
143.386
 20
121.451
 11
143.587
 21
121.307
  0
LINE
  8
0
 10
143.587
 20
121.307
 11
143.766
 21
121.134
  0
LINE
  8
0
 10
143.766
 20
121.134
 11
143.918
 21
120.938
  0
LINE
  8
0
 10
143.918
 20
120.938
 11
144.039
 21
120.722
  0
LINE
  8
0
 10
144.039
 20
120.722
 11
144.128
 21
120.49
  0
LINE
  8
0
 10
144.128
 20
120.49
 11
144.182
 21
120.248
  0
LINE
  8
0
 10
144.182
 20
120.248
 11
144.2
 21
120
  0
LINE
  8
0
 10
144.2
 20
120
 11
144.182
 21
119.752
  0
LINE
  8
0
 10
144.182
 20
119.752
 11
144.128
 21
119.51
  0
LINE
  8
0
 10
144.128
 20
119.51
 11
144.039
 21
119.278
  0
LINE
  8
0
 10
144.039
 20
119.278
 11
143.918
 21
119.062
  0
LINE
  8
0
 10
143.918
 20
119.062
 11
143.766
 21
118.866
  0
LINE
  8
0
 10
143.766
 20
118.866
 11
143.587
 21
118.693
  0
LINE
  8
0
 10
143.587
 20
118.693
 11
143.386
 21
118.549
  0
LINE
  8
0
 10
143.386
 20
118.549
 11
143.165
 21
118.435
  0
LINE
  8
0
 10
143.165
 20
118.435
 11
142.93
 21
118.355
  0
LINE
  8
0
 10
142.93
 20
118.355
 11
142.686
 21
118.31
  0
LINE
  8
0
 10
142.686
 20
118.31
 11
142.438
 21
118.301
  0
LINE
  8
0
 10
142.438
 20
118.301
 11
142.191
 21
118.328
  0
LINE
  8
0
 10
-169.744
 20
115.774
 11
-169.978
 21
115.845
  0
LINE
  8
0
 10
-169.978
 20
115.845
 11
-170.194
 21
115.961
  0
LINE
  8
0
 10
-170.194
 20
115.961
 11
-170.384
 21
116.116
  0
LINE
  8
0
 10
-170.384
 20
116.116
 11
-170.539
 21
116.306
  0
LINE
  8
0
 10
-170.539
 20
116.306
 11
-170.655
 21
116.522
  0
LINE
  8
0
 10
-170.655
 20
116.522
 11
-170.726
 21
116.756
  0
LINE
  8
0
 10
-170.726
 20
116.756
 11
-170.75
 21
117
  0
LINE
  8
0
 10
-170.75
 20
117
 11
-170.726
 21
117.244
  0
LINE
  8
0
 10
-170.726
 20
117.244
 11
-170.655
 21
117.478
  0
LINE
  8
0
 10
-170.655
 20
117.478
 11
-170.539
 21
117.694
  0
LINE
  8
0
 10
-170.539
 20
117.694
 11
-170.384
 21
117.884
  0
LINE
  8
0
 10
-170.384
 20
117.884
 11
-170.194
 21
118.039
  0
LINE
  8
0
 10
-170.194
 20
118.039
 11
-169.978
 21
118.155
  0
LINE
  8
0
 10
-169.978
 20
118.155
 11
-169.744
 21
118.226
  0
LINE
  8
0
 10
-169.744
 20
118.226
 11
-169.5
 21
118.25
  0
LINE
  8
0
 10
-169.5
 20
118.25
 11
-169.256
 21
118.226
  0
LINE
  8
0
 10
-169.256
 20
118.226
 11
-169.022
 21
118.155
  0
LINE
  8
0
 10
-169.022
 20
118.155
 11
-168.806
 21
118.039
  0
LINE
  8
0
 10
-168.806
 20
118.039
 11
-168.616
 21
117.884
  0
LINE
  8
0
 10
-168.616
 20
117.884
 11
-168.461
 21
117.694
  0
LINE
  8
0
 10
-168.461
 20
117.694
 11
-168.345
 21
117.478
  0
LINE
  8
0
 10
-168.345
 20
117.478
 11
-168.274
 21
117.244
  0
LINE
  8
0
 10
-168.274
 20
117.244
 11
-168.25
 21
117
  0
LINE
  8
0
 10
-168.25
 20
117
 11
-168.274
 21
116.756
  0
LINE
  8
0
 10
-168.274
 20
116.756
 11
-168.345
 21
116.522
  0
LINE
  8
0
 10
-168.345
 20
116.522
 11
-168.461
 21
116.306
  0
LINE
  8
0
 10
-168.461
 20
116.306
 11
-168.616
 21
116.116
  0
LINE
  8
0
 10
-168.616
 20
116.116
 11
-168.806
 21
115.961
  0
LINE
  8
0
 10
-168.806
 20
115.961
 11
-169.022
 21
115.845
  0
LINE
  8
0
 10
-169.022
 20
115.845
 11
-169.256
 21
115.774
  0
LINE
  8
0
 10
-169.256
 20
115.774
 11
-169.5
 21
115.75
  0
LINE
  8
0
 10
-169.5
 20
115.75
 11
-169.744
 21
115.774
  0
LINE
  8
0
 10
168.377
 20
110.855
 11
168.133
 21
110.891
  0
LINE
  8
0
 10
168.133
 20
110.891
 11
167.897
 21
110.964
  0
LINE
  8
0
 10
167.897
 20
110.964
 11
167.675
 21
111.071
  0
LINE
  8
0
 10
167.675
 20
111.071
 11
167.471
 21
111.21
  0
LINE
  8
0
 10
167.471
 20
111.21
 11
167.29
 21
111.378
  0
LINE
  8
0
 10
167.29
 20
111.378
 11
167.137
 21
111.571
  0
LINE
  8
0
 10
167.137
 20
111.571
 11
167.013
 21
111.784
  0
LINE
  8
0
 10
167.013
 20
111.784
 11
166.923
 21
112.014
  0
LINE
  8
0
 10
166.923
 20
112.014
 11
166.868
 21
112.254
  0
LINE
  8
0
 10
166.868
 20
112.254
 11
166.85
 21
112.5
  0
LINE
  8
0
 10
166.85
 20
112.5
 11
166.868
 21
112.746
  0
LINE
  8
0
 10
166.868
 20
112.746
 11
166.923
 21
112.986
  0
LINE
  8
0
 10
166.923
 20
112.986
 11
167.013
 21
113.216
  0
LINE
  8
0
 10
167.013
 20
113.216
 11
167.137
 21
113.429
  0
LINE
  8
0
 10
167.137
 20
113.429
 11
167.29
 21
113.622
  0
LINE
  8
0
 10
167.29
 20
113.622
 11
167.471
 21
113.79
  0
LINE
  8
0
 10
167.471
 20
113.79
 11
167.675
 21
113.929
  0
LINE
  8
0
 10
167.675
 20
113.929
 11
167.897
 21
114.036
  0
LINE
  8
0
 10
167.897
 20
114.036
 11
168.133
 21
114.109
  0
LINE
  8
0
 10
168.133
 20
114.109
 11
168.377
 21
114.145
  0
LINE
  8
0
 10
168.377
 20
114.145
 11
176.623
 21
114.145
  0
LINE
  8
0
 10
176.623
 20
114.145
 11
176.867
 21
114.109
  0
LINE
  8
0
 10
176.867
 20
114.109
 11
177.103
 21
114.036
  0
LINE
  8
0
 10
177.103
 20
114.036
 11
177.325
 21
113.929
  0
LINE
  8
0
 10
177.325
 20
113.929
 11
177.529
 21
113.79
  0
LINE
  8
0
 10
177.529
 20
113.79
 11
177.71
 21
113.622
  0
LINE
  8
0
 10
177.71
 20
113.622
 11
177.863
 21
113.429
  0
LINE
  8
0
 10
177.863
 20
113.429
 11
177.987
 21
113.216
  0
LINE
  8
0
 10
177.987
 20
113.216
 11
178.077
 21
112.986
  0
LINE
  8
0
 10
178.077
 20
112.986
 11
178.132
 21
112.746
  0
LINE
  8
0
 10
178.132
 20
112.746
 11
178.15
 21
112.5
  0
LINE
  8
0
 10
178.15
 20
112.5
 11
178.132
 21
112.254
  0
LINE
  8
0
 10
178.132
 20
112.254
 11
178.077
 21
112.014
  0
LINE
  8
0
 10
178.077
 20
112.014
 11
177.987
 21
111.784
  0
LINE
  8
0
 10
177.987
 20
111.784
 11
177.863
 21
111.571
  0
LINE
  8
0
 10
177.863
 20
111.571
 11
177.71
 21
111.378
  0
LINE
  8
0
 10
177.71
 20
111.378
 11
177.529
 21
111.21
  0
LINE
  8
0
 10
177.529
 20
111.21
 11
177.325
 21
111.071
  0
LINE
  8
0
 10
177.325
 20
111.071
 11
177.103
 21
110.964
  0
LINE
  8
0
 10
177.103
 20
110.964
 11
176.867
 21
110.891
  0
LINE
  8
0
 10
176.867
 20
110.891
 11
176.623
 21
110.855
  0
LINE
  8
0
 10
176.623
 20
110.855
 11
168.377
 21
110.855
  0
LINE
  8
0
 10
199.377
 20
110.855
 11
199.133
 21
110.891
  0
LINE
  8
0
 10
199.133
 20
110.891
 11
198.897
 21
110.964
  0
LINE
  8
0
 10
198.897
 20
110.964
 11
198.675
 21
111.071
  0
LINE
  8
0
 10
198.675
 20
111.071
 11
198.471
 21
111.21
  0
LINE
  8
0
 10
198.471
 20
111.21
 11
198.29
 21
111.378
  0
LINE
  8
0
 10
198.29
 20
111.378
 11
198.137
 21
111.571
  0
LINE
  8
0
 10
198.137
 20
111.571
 11
198.013
 21
111.784
  0
LINE
  8
0
 10
198.013
 20
111.784
 11
197.923
 21
112.014
  0
LINE
  8
0
 10
197.923
 20
112.014
 11
197.868
 21
112.254
  0
LINE
  8
0
 10
197.868
 20
112.254
 11
197.85
 21
112.5
  0
LINE
  8
0
 10
197.85
 20
112.5
 11
197.868
 21
112.746
  0
LINE
  8
0
 10
197.868
 20
112.746
 11
197.923
 21
112.986
  0
LINE
  8
0
 10
197.923
 20
112.986
 11
198.013
 21
113.216
  0
LINE
  8
0
 10
198.013
 20
113.216
 11
198.137
 21
113.429
  0
LINE
  8
0
 10
198.137
 20
113.429
 11
198.29
 21
113.622
  0
LINE
  8
0
 10
198.29
 20
113.622
 11
198.471
 21
113.79
  0
LINE
  8
0
 10
198.471
 20
113.79
 11
198.675
 21
113.929
  0
LINE
  8
0
 10
198.675
 20
113.929
 11
198.897
 21
114.036
  0
LINE
  8
0
 10
198.897
 20
114.036
 11
199.133
 21
114.109
  0
LINE
  8
0
 10
199.133
 20
114.109
 11
199.377
 21
114.145
  0
LINE
  8
0
 10
199.377
 20
114.145
 11
207.623
 21
114.145
  0
LINE
  8
0
 10
207.623
 20
114.145
 11
207.867
 21
114.109
  0
LINE
  8
0
 10
207.867
 20
114.109
 11
208.103
 21
114.036
  0
LINE
  8
0
 10
208.103
 20
114.036
 11
208.325
 21
113.929
  0
LINE
  8
0
 10
208.325
 20
113.929
 11
208.529
 21
113.79
  0
LINE
  8
0
 10
208.529
 20
113.79
 11
208.71
 21
113.622
  0
LINE
  8
0
 10
208.71
 20
113.622
 11
208.863
 21
113.429
  0
LINE
  8
0
 10
208.863
 20
113.429
 11
208.987
 21
113.216
  0
LINE
  8
0
 10
208.987
 20
113.216
 11
209.077
 21
112.986
  0
LINE
  8
0
 10
209.077
 20
112.986
 11
209.132
 21
112.746
  0
LINE
  8
0
 10
209.132
 20
112.746
 11
209.15
 21
112.5
  0
LINE
  8
0
 10
209.15
 20
112.5
 11
209.132
 21
112.254
  0
LINE
  8
0
 10
209.132
 20
112.254
 11
209.077
 21
112.014
  0
LINE
  8
0
 10
209.077
 20
112.014
 11
208.987
 21
111.784
  0
LINE
  8
0
 10
208.987
 20
111.784
 11
208.863
 21
111.571
  0
LINE
  8
0
 10
208.863
 20
111.571
 11
208.71
 21
111.378
  0
LINE
  8
0
 10
208.71
 20
111.378
 11
208.529
 21
111.21
  0
LINE
  8
0
 10
208.529
 20
111.21
 11
208.325
 21
111.071
  0
LINE
  8
0
 10
208.325
 20
111.071
 11
208.103
 21
110.964
  0
LINE
  8
0
 10
208.103
 20
110.964
 11
207.867
 21
110.891
  0
LINE
  8
0
 10
207.867
 20
110.891
 11
207.623
 21
110.855
  0
LINE
  8
0
 10
207.623
 20
110.855
 11
199.377
 21
110.855
  0
LINE
  8
0
 10
142.251
 20
39.1011
 11
142.007
 21
39.1542
  0
LINE
  8
0
 10
142.007
 20
39.1542
 11
141.773
 21
39.2415
  0
LINE
  8
0
 10
141.773
 20
39.2415
 11
141.554
 21
39.3611
  0
LINE
  8
0
 10
141.554
 20
39.3611
 11
141.354
 21
39.5108
  0
LINE
  8
0
 10
141.354
 20
39.5108
 11
141.177
 21
39.6873
  0
LINE
  8
0
 10
141.177
 20
39.6873
 11
141.028
 21
39.8872
  0
LINE
  8
0
 10
141.028
 20
39.8872
 11
140.908
 21
40.1064
  0
LINE
  8
0
 10
140.908
 20
40.1064
 11
140.821
 21
40.3403
  0
LINE
  8
0
 10
140.821
 20
40.3403
 11
140.768
 21
40.5843
  0
LINE
  8
0
 10
140.768
 20
40.5843
 11
140.75
 21
40.8333
  0
LINE
  8
0
 10
140.75
 20
40.8333
 11
140.75
 21
97.5
  0
LINE
  8
0
 10
140.75
 20
97.5
 11
140.768
 21
97.7491
  0
LINE
  8
0
 10
140.768
 20
97.7491
 11
140.821
 21
97.993
  0
LINE
  8
0
 10
140.821
 20
97.993
 11
140.908
 21
98.227
  0
LINE
  8
0
 10
140.908
 20
98.227
 11
141.028
 21
98.4461
  0
LINE
  8
0
 10
141.028
 20
98.4461
 11
141.177
 21
98.646
  0
LINE
  8
0
 10
141.177
 20
98.646
 11
141.354
 21
98.8226
  0
LINE
  8
0
 10
141.354
 20
98.8226
 11
141.554
 21
98.9722
  0
LINE
  8
0
 10
141.554
 20
98.9722
 11
141.773
 21
99.0919
  0
LINE
  8
0
 10
141.773
 20
99.0919
 11
142.007
 21
99.1791
  0
LINE
  8
0
 10
142.007
 20
99.1791
 11
142.251
 21
99.2322
  0
LINE
  8
0
 10
142.251
 20
99.2322
 11
142.5
 21
99.25
  0
LINE
  8
0
 10
142.5
 20
99.25
 11
142.749
 21
99.2322
  0
LINE
  8
0
 10
142.749
 20
99.2322
 11
142.993
 21
99.1791
  0
LINE
  8
0
 10
142.993
 20
99.1791
 11
143.227
 21
99.0919
  0
LINE
  8
0
 10
143.227
 20
99.0919
 11
143.446
 21
98.9722
  0
LINE
  8
0
 10
143.446
 20
98.9722
 11
143.646
 21
98.8226
  0
LINE
  8
0
 10
143.646
 20
98.8226
 11
143.823
 21
98.646
  0
LINE
  8
0
 10
143.823
 20
98.646
 11
143.972
 21
98.4461
  0
LINE
  8
0
 10
143.972
 20
98.4461
 11
144.092
 21
98.227
  0
LINE
  8
0
 10
144.092
 20
98.227
 11
144.179
 21
97.993
  0
LINE
  8
0
 10
144.179
 20
97.993
 11
144.232
 21
97.7491
  0
LINE
  8
0
 10
144.232
 20
97.7491
 11
144.25
 21
97.5
  0
LINE
  8
0
 10
144.25
 20
97.5
 11
144.25
 21
40.8333
  0
LINE
  8
0
 10
144.25
 20
40.8333
 11
144.232
 21
40.5843
  0
LINE
  8
0
 10
144.232
 20
40.5843
 11
144.179
 21
40.3403
  0
LINE
  8
0
 10
144.179
 20
40.3403
 11
144.092
 21
40.1064
  0
LINE
  8
0
 10
144.092
 20
40.1064
 11
143.972
 21
39.8872
  0
LINE
  8
0
 10
143.972
 20
39.8872
 11
143.823
 21
39.6873
  0
LINE
  8
0
 10
143.823
 20
39.6873
 11
143.646
 21
39.5108
  0
LINE
  8
0
 10
143.646
 20
39.5108
 11
143.446
 21
39.3611
  0
LINE
  8
0
 10
143.446
 20
39.3611
 11
143.227
 21
39.2415
  0
LINE
  8
0
 10
143.227
 20
39.2415
 11
142.993
 21
39.1542
  0
LINE
  8
0
 10
142.993
 20
39.1542
 11
142.749
 21
39.1011
  0
LINE
  8
0
 10
142.749
 20
39.1011
 11
142.5
 21
39.0833
  0
LINE
  8
0
 10
142.5
 20
39.0833
 11
142.251
 21
39.1011
  0
LINE
  8
0
 10
-142.749
 20
39.1011
 11
-142.993
 21
39.1542
  0
LINE
  8
0
 10
-142.993
 20
39.1542
 11
-143.227
 21
39.2415
  0
LINE
  8
0
 10
-143.227
 20
39.2415
 11
-143.446
 21
39.3611
  0
LINE
  8
0
 10
-143.446
 20
39.3611
 11
-143.646
 21
39.5108
  0
LINE
  8
0
 10
-143.646
 20
39.5108
 11
-143.823
 21
39.6873
  0
LINE
  8
0
 10
-143.823
 20
39.6873
 11
-143.972
 21
39.8872
  0
LINE
  8
0
 10
-143.972
 20
39.8872
 11
-144.092
 21
40.1064
  0
LINE
  8
0
 10
-144.092
 20
40.1064
 11
-144.179
 21
40.3403
  0
LINE
  8
0
 10
-144.179
 20
40.3403
 11
-144.232
 21
40.5843
  0
LINE
  8
0
 10
-144.232
 20
40.5843
 11
-144.25
 21
40.8333
  0
LINE
  8
0
 10
-144.25
 20
40.8333
 11
-144.25
 21
97.5
  0
LINE
  8
0
 10
-144.25
 20
97.5
 11
-144.232
 21
97.7491
  0
LINE
  8
0
 10
-144.232
 20
97.7491
 11
-144.179
 21
97.993
  0
LINE
  8
0
 10
-144.179
 20
97.993
 11
-144.092
 21
98.227
  0
LINE
  8
0
 10
-144.092
 20
98.227
 11
-143.972
 21
98.4461
  0
LINE
  8
0
 10
-143.972
 20
98.4461
 11
-143.823
 21
98.646
  0
LINE
  8
0
 10
-143.823
 20
98.646
 11
-143.646
 21
98.8226
  0
LINE
  8
0
 10
-143.646
 20
98.8226
 11
-143.446
 21
98.9722
  0
LINE
  8
0
 10
-143.446
 20
98.9722
 11
-143.227
 21
99.0919
  0
LINE
  8
0
 10
-143.227
 20
99.0919
 11
-142.993
 21
99.1791
  0
LINE
  8
0
 10
-142.993
 20
99.1791
 11
-142.749
 21
99.2322
  0
LINE
  8
0
 10
-142.749
 20
99.2322
 11
-142.5
 21
99.25
  0
LINE
  8
0
 10
-142.5
 20
99.25
 11
-142.251
 21
99.2322
  0
LINE
  8
0
 10
-142.251
 20
99.2322
 11
-142.007
 21
99.1791
  0
LINE
  8
0
 10
-142.007
 20
99.1791
 11
-141.773
 21
99.0919
  0
LINE
  8
0
 10
-141.773
 20
99.0919
 11
-141.554
 21
98.9722
  0
LINE
  8
0
 10
-141.554
 20
98.9722
 11
-141.354
 21
98.8226
  0
LINE
  8
0
 10
-141.354
 20
98.8226
 11
-141.177
 21
98.646
  0
LINE
  8
0
 10
-141.177
 20
98.646
 11
-141.028
 21
98.4461
  0
LINE
  8
0
 10
-141.028
 20
98.4461
 11
-140.908
 21
98.227
  0
LINE
  8
0
 10
-140.908
 20
98.227
 11
-140.821
 21
97.993
  0
LINE
  8
0
 10
-140.821
 20
97.993
 11
-140.768
 21
97.7491
  0
LINE
  8
0
 10
-140.768
 20
97.7491
 11
-140.75
 21
97.5
  0
LINE
  8
0
 10
-140.75
 20
97.5
 11
-140.75
 21
40.8333
  0
LINE
  8
0
 10
-140.75
 20
40.8333
 11
-140.768
 21
40.5843
  0
LINE
  8
0
 10
-140.768
 20
40.5843
 11
-140.821
 21
40.3403
  0
LINE
  8
0
 10
-140.821
 20
40.3403
 11
-140.908
 21
40.1064
  0
LINE
  8
0
 10
-140.908
 20
40.1064
 11
-141.028
 21
39.8872
  0
LINE
  8
0
 10
-141.028
 20
39.8872
 11
-141.177
 21
39.6873
  0
LINE
  8
0
 10
-141.177
 20
39.6873
 11
-141.354
 21
39.5108
  0
LINE
  8
0
 10
-141.354
 20
39.5108
 11
-141.554
 21
39.3611
  0
LINE
  8
0
 10
-141.554
 20
39.3611
 11
-141.773
 21
39.2415
  0
LINE
  8
0
 10
-141.773
 20
39.2415
 11
-142.007
 21
39.1542
  0
LINE
  8
0
 10
-142.007
 20
39.1542
 11
-142.251
 21
39.1011
  0
LINE
  8
0
 10
-142.251
 20
39.1011
 11
-142.5
 21
39.0833
  0
LINE
  8
0
 10
-142.5
 20
39.0833
 11
-142.749
 21
39.1011
  0
LINE
  8
0
 10
199.603
 20
56.2208
 11
199.21
 21
56.283
  0
LINE
  8
0
 10
199.21
 20
56.283
 11
198.826
 21
56.386
  0
LINE
  8
0
 10
198.826
 20
56.386
 11
198.454
 21
56.5285
  0
LINE
  8
0
 10
198.454
 20
56.5285
 11
198.1
 21
56.7091
  0
LINE
  8
0
 10
198.1
 20
56.7091
 11
197.766
 21
56.9257
  0
LINE
  8
0
 10
197.766
 20
56.9257
 11
197.457
 21
57.176
  0
LINE
  8
0
 10
197.457
 20
57.176
 11
197.176
 21
57.4573
  0
LINE
  8
0
 10
197.176
 20
57.4573
 11
196.926
 21
57.7664
  0
LINE
  8
0
 10
196.926
 20
57.7664
 11
196.709
 21
58.1
  0
LINE
  8
0
 10
196.709
 20
58.1
 11
196.529
 21
58.4544
  0
LINE
  8
0
 10
196.529
 20
58.4544
 11
196.386
 21
58.8257
  0
LINE
  8
0
 10
196.386
 20
58.8257
 11
196.283
 21
59.2099
  0
LINE
  8
0
 10
196.283
 20
59.2099
 11
196.221
 21
59.6028
  0
LINE
  8
0
 10
196.221
 20
59.6028
 11
196.2
 21
60
  0
LINE
  8
0
 10
196.2
 20
60
 11
196.221
 21
60.3972
  0
LINE
  8
0
 10
196.221
 20
60.3972
 11
196.283
 21
60.7901
  0
LINE
  8
0
 10
196.283
 20
60.7901
 11
196.386
 21
61.1743
  0
LINE
  8
0
 10
196.386
 20
61.1743
 11
196.529
 21
61.5456
  0
LINE
  8
0
 10
196.529
 20
61.5456
 11
196.709
 21
61.9
  0
LINE
  8
0
 10
196.709
 20
61.9
 11
196.926
 21
62.2336
  0
LINE
  8
0
 10
196.926
 20
62.2336
 11
197.176
 21
62.5427
  0
LINE
  8
0
 10
197.176
 20
62.5427
 11
197.457
 21
62.8239
  0
LINE
  8
0
 10
197.457
 20
62.8239
 11
197.766
 21
63.0743
  0
LINE
  8
0
 10
197.766
 20
63.0743
 11
198.1
 21
63.2909
  0
LINE
  8
0
 10
198.1
 20
63.2909
 11
198.454
 21
63.4715
  0
LINE
  8
0
 10
198.454
 20
63.4715
 11
198.826
 21
63.614
  0
LINE
  8
0
 10
198.826
 20
63.614
 11
199.21
 21
63.7169
  0
LINE
  8
0
 10
199.21
 20
63.7169
 11
199.603
 21
63.7792
  0
LINE
  8
0
 10
199.603
 20
63.7792
 11
200
 21
63.8
  0
LINE
  8
0
 10
200
 20
63.8
 11
200.397
 21
63.7792
  0
LINE
  8
0
 10
200.397
 20
63.7792
 11
200.79
 21
63.7169
  0
LINE
  8
0
 10
200.79
 20
63.7169
 11
201.174
 21
63.614
  0
LINE
  8
0
 10
201.174
 20
63.614
 11
201.546
 21
63.4715
  0
LINE
  8
0
 10
201.546
 20
63.4715
 11
201.9
 21
63.2909
  0
LINE
  8
0
 10
201.9
 20
63.2909
 11
202.234
 21
63.0743
  0
LINE
  8
0
 10
202.234
 20
63.0743
 11
202.543
 21
62.8239
  0
LINE
  8
0
 10
202.543
 20
62.8239
 11
202.824
 21
62.5427
  0
LINE
  8
0
 10
202.824
 20
62.5427
 11
203.074
 21
62.2336
  0
LINE
  8
0
 10
203.074
 20
62.2336
 11
203.291
 21
61.9
  0
LINE
  8
0
 10
203.291
 20
61.9
 11
203.471
 21
61.5456
  0
LINE
  8
0
 10
203.471
 20
61.5456
 11
203.614
 21
61.1743
  0
LINE
  8
0
 10
203.614
 20
61.1743
 11
203.717
 21
60.7901
  0
LINE
  8
0
 10
203.717
 20
60.7901
 11
203.779
 21
60.3972
  0
LINE
  8
0
 10
203.779
 20
60.3972
 11
203.8
 21
60
  0
LINE
  8
0
 10
203.8
 20
60
 11
203.779
 21
59.6028
  0
LINE
  8
0
 10
203.779
 20
59.6028
 11
203.717
 21
59.2099
  0
LINE
  8
0
 10
203.717
 20
59.2099
 11
203.614
 21
58.8257
  0
LINE
  8
0
 10
203.614
 20
58.8257
 11
203.471
 21
58.4544
  0
LINE
  8
0
 10
203.471
 20
58.4544
 11
203.291
 21
58.1
  0
LINE
  8
0
 10
203.291
 20
58.1
 11
203.074
 21
57.7664
  0
LINE
  8
0
 10
203.074
 20
57.7664
 11
202.824
 21
57.4573
  0
LINE
  8
0
 10
202.824
 20
57.4573
 11
202.543
 21
57.176
  0
LINE
  8
0
 10
202.543
 20
57.176
 11
202.234
 21
56.9257
  0
LINE
  8
0
 10
202.234
 20
56.9257
 11
201.9
 21
56.7091
  0
LINE
  8
0
 10
201.9
 20
56.7091
 11
201.546
 21
56.5285
  0
LINE
  8
0
 10
201.546
 20
56.5285
 11
201.174
 21
56.386
  0
LINE
  8
0
 10
201.174
 20
56.386
 11
200.79
 21
56.283
  0
LINE
  8
0
 10
200.79
 20
56.283
 11
200.397
 21
56.2208
  0
LINE
  8
0
 10
200.397
 20
56.2208
 11
200
 21
56.2
  0
LINE
  8
0
 10
200
 20
56.2
 11
199.603
 21
56.2208
  0
LINE
  8
0
 10
-200.397
 20
56.2208
 11
-200.79
 21
56.283
  0
LINE
  8
0
 10
-200.79
 20
56.283
 11
-201.174
 21
56.386
  0
LINE
  8
0
 10
-201.174
 20
56.386
 11
-201.546
 21
56.5285
  0
LINE
  8
0
 10
-201.546
 20
56.5285
 11
-201.9
 21
56.7091
  0
LINE
  8
0
 10
-201.9
 20
56.7091
 11
-202.234
 21
56.9257
  0
LINE
  8
0
 10
-202.234
 20
56.9257
 11
-202.543
 21
57.176
  0
LINE
  8
0
 10
-202.543
 20
57.176
 11
-202.824
 21
57.4573
  0
LINE
  8
0
 10
-202.824
 20
57.4573
 11
-203.074
 21
57.7664
  0
LINE
  8
0
 10
-203.074
 20
57.7664
 11
-203.291
 21
58.1
  0
LINE
  8
0
 10
-203.291
 20
58.1
 11
-203.471
 21
58.4544
  0
LINE
  8
0
 10
-203.471
 20
58.4544
 11
-203.614
 21
58.8257
  0
LINE
  8
0
 10
-203.614
 20
58.8257
 11
-203.717
 21
59.2099
  0
LINE
  8
0
 10
-203.717
 20
59.2099
 11
-203.779
 21
59.6028
  0
LINE
  8
0
 10
-203.779
 20
59.6028
 11
-203.8
 21
60
  0
LINE
  8
0
 10
-203.8
 20
60
 11
-203.779
 21
60.3972
  0
LINE
  8
0
 10
-203.779
 20
60.3972
 11
-203.717
 21
60.7901
  0
LINE
  8
0
 10
-203.717
 20
60.7901
 11
-203.614
 21
61.1743
  0
LINE
  8
0
 10
-203.614
 20
61.1743
 11
-203.471
 21
61.5456
  0
LINE
  8
0
 10
-203.471
 20
61.5456
 11
-203.291
 21
61.9
  0
LINE
  8
0
 10
-203.291
 20
61.9
 11
-203.074
 21
62.2336
  0
LINE
  8
0
 10
-203.074
 20
62.2336
 11
-202.824
 21
62.5427
  0
LINE
  8
0
 10
-202.824
 20
62.5427
 11
-202.543
 21
62.8239
  0
LINE
  8
0
 10
-202.543
 20
62.8239
 11
-202.234
 21
63.0743
  0
LINE
  8
0
 10
-202.234
 20
63.0743
 11
-201.9
 21
63.2909
  0
LINE
  8
0
 10
-201.9
 20
63.2909
 11
-201.546
 21
63.4715
  0
LINE
  8
0
 10
-201.546
 20
63.4715
 11
-201.174
 21
63.614
  0
LINE
  8
0
 10
-201.174
 20
63.614
 11
-200.79
 21
63.7169
  0
LINE
  8
0
 10
-200.79
 20
63.7169
 11
-200.397
 21
63.7792
  0
LINE
  8
0
 10
-200.397
 20
63.7792
 11
-200
 21
63.8
  0
LINE
  8
0
 10
-200
 20
63.8
 11
-199.603
 21
63.7792
  0
LINE
  8
0
 10
-199.603
 20
63.7792
 11
-199.21
 21
63.7169
  0
LINE
  8
0
 10
-199.21
 20
63.7169
 11
-198.826
 21
63.614
  0
LINE
  8
0
 10
-198.826
 20
63.614
 11
-198.454
 21
63.4715
  0
LINE
  8
0
 10
-198.454
 20
63.4715
 11
-198.1
 21
63.2909
  0
LINE
  8
0
 10
-198.1
 20
63.2909
 11
-197.766
 21
63.0743
  0
LINE
  8
0
 10
-197.766
 20
63.0743
 11
-197.457
 21
62.8239
  0
LINE
  8
0
 10
-197.457
 20
62.8239
 11
-197.176
 21
62.5427
  0
LINE
  8
0
 10
-197.176
 20
62.5427
 11
-196.926
 21
62.2336
  0
LINE
  8
0
 10
-196.926
 20
62.2336
 11
-196.709
 21
61.9
  0
LINE
  8
0
 10
-196.709
 20
61.9
 11
-196.529
 21
61.5456
  0
LINE
  8
0
 10
-196.529
 20
61.5456
 11
-196.386
 21
61.1743
  0
LINE
  8
0
 10
-196.386
 20
61.1743
 11
-196.283
 21
60.7901
  0
LINE
  8
0
 10
-196.283
 20
60.7901
 11
-196.221
 21
60.3972
  0
LINE
  8
0
 10
-196.221
 20
60.3972
 11
-196.2
 21
60
  0
LINE
  8
0
 10
-196.2
 20
60
 11
-196.221
 21
59.6028
  0
LINE
  8
0
 10
-196.221
 20
59.6028
 11
-196.283
 21
59.2099
  0
LINE
  8
0
 10
-196.283
 20
59.2099
 11
-196.386
 21
58.8257
  0
LINE
  8
0
 10
-196.386
 20
58.8257
 11
-196.529
 21
58.4544
  0
LINE
  8
0
 10
-196.529
 20
58.4544
 11
-196.709
 21
58.1
  0
LINE
  8
0
 10
-196.709
 20
58.1
 11
-196.926
 21
57.7664
  0
LINE
  8
0
 10
-196.926
 20
57.7664
 11
-197.176
 21
57.4573
  0
LINE
  8
0
 10
-197.176
 20
57.4573
 11
-197.457
 21
57.176
  0
LINE
  8
0
 10
-197.457
 20
57.176
 11
-197.766
 21
56.9257
  0
LINE
  8
0
 10
-197.766
 20
56.9257
 11
-198.1
 21
56.7091
  0
LINE
  8
0
 10
-198.1
 20
56.7091
 11
-198.454
 21
56.5285
  0
LINE
  8
0
 10
-198.454
 20
56.5285
 11
-198.826
 21
56.386
  0
LINE
  8
0
 10
-198.826
 20
56.386
 11
-199.21
 21
56.283
  0
LINE
  8
0
 10
-199.21
 20
56.283
 11
-199.603
 21
56.2208
  0
LINE
  8
0
 10
-199.603
 20
56.2208
 11
-200
 21
56.2
  0
LINE
  8
0
 10
-200
 20
56.2
 11
-200.397
 21
56.2208
  0
LINE
  8
0
 10
199.749
 20
37.6131
 11
199.501
 21
37.6524
  0
LINE
  8
0
 10
199.501
 20
37.6524
 11
199.258
 21
37.7175
  0
LINE
  8
0
 10
199.258
 20
37.7175
 11
199.024
 21
37.8075
  0
LINE
  8
0
 10
199.024
 20
37.8075
 11
198.8
 21
37.9215
  0
LINE
  8
0
 10
198.8
 20
37.9215
 11
198.589
 21
38.0583
  0
LINE
  8
0
 10
198.589
 20
38.0583
 11
198.394
 21
38.2164
  0
LINE
  8
0
 10
198.394
 20
38.2164
 11
198.216
 21
38.3941
  0
LINE
  8
0
 10
198.216
 20
38.3941
 11
198.058
 21
38.5893
  0
LINE
  8
0
 10
198.058
 20
38.5893
 11
197.922
 21
38.8
  0
LINE
  8
0
 10
197.922
 20
38.8
 11
197.807
 21
39.0238
  0
LINE
  8
0
 10
197.807
 20
39.0238
 11
197.717
 21
39.2583
  0
LINE
  8
0
 10
197.717
 20
39.2583
 11
197.652
 21
39.501
  0
LINE
  8
0
 10
197.652
 20
39.501
 11
197.613
 21
39.7491
  0
LINE
  8
0
 10
197.613
 20
39.7491
 11
197.6
 21
40
  0
LINE
  8
0
 10
197.6
 20
40
 11
197.613
 21
40.2509
  0
LINE
  8
0
 10
197.613
 20
40.2509
 11
197.652
 21
40.499
  0
LINE
  8
0
 10
197.652
 20
40.499
 11
197.717
 21
40.7416
  0
LINE
  8
0
 10
197.717
 20
40.7416
 11
197.807
 21
40.9762
  0
LINE
  8
0
 10
197.807
 20
40.9762
 11
197.922
 21
41.2
  0
LINE
  8
0
 10
197.922
 20
41.2
 11
198.058
 21
41.4107
  0
LINE
  8
0
 10
198.058
 20
41.4107
 11
198.216
 21
41.6059
  0
LINE
  8
0
 10
198.216
 20
41.6059
 11
198.394
 21
41.7835
  0
LINE
  8
0
 10
198.394
 20
41.7835
 11
198.589
 21
41.9416
  0
LINE
  8
0
 10
198.589
 20
41.9416
 11
198.8
 21
42.0785
  0
LINE
  8
0
 10
198.8
 20
42.0785
 11
199.024
 21
42.1925
  0
LINE
  8
0
 10
199.024
 20
42.1925
 11
199.258
 21
42.2825
  0
LINE
  8
0
 10
199.258
 20
42.2825
 11
199.501
 21
42.3475
  0
LINE
  8
0
 10
199.501
 20
42.3475
 11
199.749
 21
42.3868
  0
LINE
  8
0
 10
199.749
 20
42.3868
 11
200
 21
42.4
  0
LINE
  8
0
 10
200
 20
42.4
 11
200.251
 21
42.3868
  0
LINE
  8
0
 10
200.251
 20
42.3868
 11
200.499
 21
42.3475
  0
LINE
  8
0
 10
200.499
 20
42.3475
 11
200.742
 21
42.2825
  0
LINE
  8
0
 10
200.742
 20
42.2825
 11
200.976
 21
42.1925
  0
LINE
  8
0
 10
200.976
 20
42.1925
 11
201.2
 21
42.0785
  0
LINE
  8
0
 10
201.2
 20
42.0785
 11
201.411
 21
41.9416
  0
LINE
  8
0
 10
201.411
 20
41.9416
 11
201.606
 21
41.7835
  0
LINE
  8
0
 10
201.606
 20
41.7835
 11
201.784
 21
41.6059
  0
LINE
  8
0
 10
201.784
 20
41.6059
 11
201.942
 21
41.4107
  0
LINE
  8
0
 10
201.942
 20
41.4107
 11
202.078
 21
41.2
  0
LINE
  8
0
 10
202.078
 20
41.2
 11
202.193
 21
40.9762
  0
LINE
  8
0
 10
202.193
 20
40.9762
 11
202.283
 21
40.7416
  0
LINE
  8
0
 10
202.283
 20
40.7416
 11
202.348
 21
40.499
  0
LINE
  8
0
 10
202.348
 20
40.499
 11
202.387
 21
40.2509
  0
LINE
  8
0
 10
202.387
 20
40.2509
 11
202.4
 21
40
  0
LINE
  8
0
 10
202.4
 20
40
 11
202.387
 21
39.7491
  0
LINE
  8
0
 10
202.387
 20
39.7491
 11
202.348
 21
39.501
  0
LINE
  8
0
 10
202.348
 20
39.501
 11
202.283
 21
39.2583
  0
LINE
  8
0
 10
202.283
 20
39.2583
 11
202.193
 21
39.0238
  0
LINE
  8
0
 10
202.193
 20
39.0238
 11
202.078
 21
38.8
  0
LINE
  8
0
 10
202.078
 20
38.8
 11
201.942
 21
38.5893
  0
LINE
  8
0
 10
201.942
 20
38.5893
 11
201.784
 21
38.3941
  0
LINE
  8
0
 10
201.784
 20
38.3941
 11
201.606
 21
38.2164
  0
LINE
  8
0
 10
201.606
 20
38.2164
 11
201.411
 21
38.0583
  0
LINE
  8
0
 10
201.411
 20
38.0583
 11
201.2
 21
37.9215
  0
LINE
  8
0
 10
201.2
 20
37.9215
 11
200.976
 21
37.8075
  0
LINE
  8
0
 10
200.976
 20
37.8075
 11
200.742
 21
37.7175
  0
LINE
  8
0
 10
200.742
 20
37.7175
 11
200.499
 21
37.6524
  0
LINE
  8
0
 10
200.499
 20
37.6524
 11
200.251
 21
37.6131
  0
LINE
  8
0
 10
200.251
 20
37.6131
 11
200
 21
37.6
  0
LINE
  8
0
 10
200
 20
37.6
 11
199.749
 21
37.6131
  0
LINE
  8
0
 10
-200.251
 20
37.6131
 11
-200.499
 21
37.6524
  0
LINE
  8
0
 10
-200.499
 20
37.6524
 11
-200.742
 21
37.7175
  0
LINE
  8
0
 10
-200.742
 20
37.7175
 11
-200.976
 21
37.8075
  0
LINE
  8
0
 10
-200.976
 20
37.8075
 11
-201.2
 21
37.9215
  0
LINE
  8
0
 10
-201.2
 20
37.9215
 11
-201.411
 21
38.0583
  0
LINE
  8
0
 10
-201.411
 20
38.0583
 11
-201.606
 21
38.2164
  0
LINE
  8
0
 10
-201.606
 20
38.2164
 11
-201.784
 21
38.3941
  0
LINE
  8
0
 10
-201.784
 20
38.3941
 11
-201.942
 21
38.5893
  0
LINE
  8
0
 10
-201.942
 20
38.5893
 11
-202.078
 21
38.8
  0
LINE
  8
0
 10
-202.078
 20
38.8
 11
-202.193
 21
39.0238
  0
LINE
  8
0
 10
-202.193
 20
39.0238
 11
-202.283
 21
39.2583
  0
LINE
  8
0
 10
-202.283
 20
39.2583
 11
-202.348
 21
39.501
  0
LINE
  8
0
 10
-202.348
 20
39.501
 11
-202.387
 21
39.7491
  0
LINE
  8
0
 10
-202.387
 20
39.7491
 11
-202.4
 21
40
  0
LINE
  8
0
 10
-202.4
 20
40
 11
-202.387
 21
40.2509
  0
LINE
  8
0
 10
-202.387
 20
40.2509
 11
-202.348
 21
40.499
  0
LINE
  8
0
 10
-202.348
 20
40.499
 11
-202.283
 21
40.7416
  0
LINE
  8
0
 10
-202.283
 20
40.7416
 11
-202.193
 21
40.9762
  0
LINE
  8
0
 10
-202.193
 20
40.9762
 11
-202.078
 21
41.2
  0
LINE
  8
0
 10
-202.078
 20
41.2
 11
-201.942
 21
41.4107
  0
LINE
  8
0
 10
-201.942
 20
41.4107
 11
-201.784
 21
41.6059
  0
LINE
  8
0
 10
-201.784
 20
41.6059
 11
-201.606
 21
41.7835
  0
LINE
  8
0
 10
-201.606
 20
41.7835
 11
-201.411
 21
41.9416
  0
LINE
  8
0
 10
-201.411
 20
41.9416
 11
-201.2
 21
42.0785
  0
LINE
  8
0
 10
-201.2
 20
42.0785
 11
-200.976
 21
42.1925
  0
LINE
  8
0
 10
-200.976
 20
42.1925
 11
-200.742
 21
42.2825
  0
LINE
  8
0
 10
-200.742
 20
42.2825
 11
-200.499
 21
42.3475
  0
LINE
  8
0
 10
-200.499
 20
42.3475
 11
-200.251
 21
42.3868
  0
LINE
  8
0
 10
-200.251
 20
42.3868
 11
-200
 21
42.4
  0
LINE
  8
0
 10
-200
 20
42.4
 11
-199.749
 21
42.3868
  0
LINE
  8
0
 10
-199.749
 20
42.3868
 11
-199.501
 21
42.3475
  0
LINE
  8
0
 10
-199.501
 20
42.3475
 11
-199.258
 21
42.2825
  0
LINE
  8
0
 10
-199.258
 20
42.2825
 11
-199.024
 21
42.1925
  0
LINE
  8
0
 10
-199.024
 20
42.1925
 11
-198.8
 21
42.0785
  0
LINE
  8
0
 10
-198.8
 20
42.0785
 11
-198.589
 21
41.9416
  0
LINE
  8
0
 10
-198.589
 20
41.9416
 11
-198.394
 21
41.7835
  0
LINE
  8
0
 10
-198.394
 20
41.7835
 11
-198.216
 21
41.6059
  0
LINE
  8
0
 10
-198.216
 20
41.6059
 11
-198.058
 21
41.4107
  0
LINE
  8
0
 10
-198.058
 20
41.4107
 11
-197.922
 21
41.2
  0
LINE
  8
0
 10
-197.922
 20
41.2
 11
-197.807
 21
40.9762
  0
LINE
  8
0
 10
-197.807
 20
40.9762
 11
-197.717
 21
40.7416
  0
LINE
  8
0
 10
-197.717
 20
40.7416
 11
-197.652
 21
40.499
  0
LINE
  8
0
 10
-197.652
 20
40.499
 11
-197.613
 21
40.2509
  0
LINE
  8
0
 10
-197.613
 20
40.2509
 11
-197.6
 21
40
  0
LINE
  8
0
 10
-197.6
 20
40
 11
-197.613
 21
39.7491
  0
LINE
  8
0
 10
-197.613
 20
39.7491
 11
-197.652
 21
39.501
  0
LINE
  8
0
 10
-197.652
 20
39.501
 11
-197.717
 21
39.2583
  0
LINE
  8
0
 10
-197.717
 20
39.2583
 11
-197.807
 21
39.0238
  0
LINE
  8
0
 10
-197.807
 20
39.0238
 11
-197.922
 21
38.8
  0
LINE
  8
0
 10
-197.922
 20
38.8
 11
-198.058
 21
38.5893
  0
LINE
  8
0
 10
-198.058
 20
38.5893
 11
-198.216
 21
38.3941
  0
LINE
  8
0
 10
-198.216
 20
38.3941
 11
-198.394
 21
38.2164
  0
LINE
  8
0
 10
-198.394
 20
38.2164
 11
-198.589
 21
38.0583
  0
LINE
  8
0
 10
-198.589
 20
38.0583
 11
-198.8
 21
37.9215
  0
LINE
  8
0
 10
-198.8
 20
37.9215
 11
-199.024
 21
37.8075
  0
LINE
  8
0
 10
-199.024
 20
37.8075
 11
-199.258
 21
37.7175
  0
LINE
  8
0
 10
-199.258
 20
37.7175
 11
-199.501
 21
37.6524
  0
LINE
  8
0
 10
-199.501
 20
37.6524
 11
-199.749
 21
37.6131
  0
LINE
  8
0
 10
-199.749
 20
37.6131
 11
-200
 21
37.6
  0
LINE
  8
0
 10
-200
 20
37.6
 11
-200.251
 21
37.6131
  0
LINE
  8
0
 10
142.251
 20
-27.5655
 11
142.007
 21
-27.5124
  0
LINE
  8
0
 10
142.007
 20
-27.5124
 11
141.773
 21
-27.4252
  0
LINE
  8
0
 10
141.773
 20
-27.4252
 11
141.554
 21
-27.3055
  0
LINE
  8
0
 10
141.554
 20
-27.3055
 11
141.354
 21
-27.1559
  0
LINE
  8
0
 10
141.354
 20
-27.1559
 11
141.177
 21
-26.9793
  0
LINE
  8
0
 10
141.177
 20
-26.9793
 11
141.028
 21
-26.7794
  0
LINE
  8
0
 10
141.028
 20
-26.7794
 11
140.908
 21
-26.5603
  0
LINE
  8
0
 10
140.908
 20
-26.5603
 11
140.821
 21
-26.3264
  0
LINE
  8
0
 10
140.821
 20
-26.3264
 11
140.768
 21
-26.0824
  0
LINE
  8
0
 10
140.768
 20
-26.0824
 11
140.75
 21
-25.8333
  0
LINE
  8
0
 10
140.75
 20
-25.8333
 11
140.75
 21
30.8333
  0
LINE
  8
0
 10
140.75
 20
30.8333
 11
140.768
 21
31.0824
  0
LINE
  8
0
 10
140.768
 20
31.0824
 11
140.821
 21
31.3264
  0
LINE
  8
0
 10
140.821
 20
31.3264
 11
140.908
 21
31.5603
  0
LINE
  8
0
 10
140.908
 20
31.5603
 11
141.028
 21
31.7794
  0
LINE
  8
0
 10
141.028
 20
31.7794
 11
141.177
 21
31.9793
  0
LINE
  8
0
 10
141.177
 20
31.9793
 11
141.354
 21
32.1559
  0
LINE
  8
0
 10
141.354
 20
32.1559
 11
141.554
 21
32.3055
  0
LINE
  8
0
 10
141.554
 20
32.3055
 11
141.773
 21
32.4252
  0
LINE
  8
0
 10
141.773
 20
32.4252
 11
142.007
 21
32.5124
  0
LINE
  8
0
 10
142.007
 20
32.5124
 11
142.251
 21
32.5655
  0
LINE
  8
0
 10
142.251
 20
32.5655
 11
142.5
 21
32.5833
  0
LINE
  8
0
 10
142.5
 20
32.5833
 11
142.749
 21
32.5655
  0
LINE
  8
0
 10
142.749
 20
32.5655
 11
142.993
 21
32.5124
  0
LINE
  8
0
 10
142.993
 20
32.5124
 11
143.227
 21
32.4252
  0
LINE
  8
0
 10
143.227
 20
32.4252
 11
143.446
 21
32.3055
  0
LINE
  8
0
 10
143.446
 20
32.3055
 11
143.646
 21
32.1559
  0
LINE
  8
0
 10
143.646
 20
32.1559
 11
143.823
 21
31.9793
  0
LINE
  8
0
 10
143.823
 20
31.9793
 11
143.972
 21
31.7794
  0
LINE
  8
0
 10
143.972
 20
31.7794
 11
144.092
 21
31.5603
  0
LINE
  8
0
 10
144.092
 20
31.5603
 11
144.179
 21
31.3264
  0
LINE
  8
0
 10
144.179
 20
31.3264
 11
144.232
 21
31.0824
  0
LINE
  8
0
 10
144.232
 20
31.0824
 11
144.25
 21
30.8333
  0
LINE
  8
0
 10
144.25
 20
30.8333
 11
144.25
 21
-25.8333
  0
LINE
  8
0
 10
144.25
 20
-25.8333
 11
144.232
 21
-26.0824
  0
LINE
  8
0
 10
144.232
 20
-26.0824
 11
144.179
 21
-26.3264
  0
LINE
  8
0
 10
144.179
 20
-26.3264
 11
144.092
 21
-26.5603
  0
LINE
  8
0
 10
144.092
 20
-26.5603
 11
143.972
 21
-26.7794
  0
LINE
  8
0
 10
143.972
 20
-26.7794
 11
143.823
 21
-26.9793
  0
LINE
  8
0
 10
143.823
 20
-26.9793
 11
143.646
 21
-27.1559
  0
LINE
  8
0
 10
143.646
 20
-27.1559
 11
143.446
 21
-27.3055
  0
LINE
  8
0
 10
143.446
 20
-27.3055
 11
143.227
 21
-27.4252
  0
LINE
  8
0
 10
143.227
 20
-27.4252
 11
142.993
 21
-27.5124
  0
LINE
  8
0
 10
142.993
 20
-27.5124
 11
142.749
 21
-27.5655
  0
LINE
  8
0
 10
142.749
 20
-27.5655
 11
142.5
 21
-27.5833
  0
LINE
  8
0
 10
142.5
 20
-27.5833
 11
142.251
 21
-27.5655
  0
LINE
  8
0
 10
-142.749
 20
-27.5655
 11
-142.993
 21
-27.5124
  0
LINE
  8
0
 10
-142.993
 20
-27.5124
 11
-143.227
 21
-27.4252
  0
LINE
  8
0
 10
-143.227
 20
-27.4252
 11
-143.446
 21
-27.3055
  0
LINE
  8
0
 10
-143.446
 20
-27.3055
 11
-143.646
 21
-27.1559
  0
LINE
  8
0
 10
-143.646
 20
-27.1559
 11
-143.823
 21
-26.9793
  0
LINE
  8
0
 10
-143.823
 20
-26.9793
 11
-143.972
 21
-26.7794
  0
LINE
  8
0
 10
-143.972
 20
-26.7794
 11
-144.092
 21
-26.5603
  0
LINE
  8
0
 10
-144.092
 20
-26.5603
 11
-144.179
 21
-26.3264
  0
LINE
  8
0
 10
-144.179
 20
-26.3264
 11
-144.232
 21
-26.0824
  0
LINE
  8
0
 10
-144.232
 20
-26.0824
 11
-144.25
 21
-25.8333
  0
LINE
  8
0
 10
-144.25
 20
-25.8333
 11
-144.25
 21
30.8333
  0
LINE
  8
0
 10
-144.25
 20
30.8333
 11
-144.232
 21
31.0824
  0
LINE
  8
0
 10
-144.232
 20
31.0824
 11
-144.179
 21
31.3264
  0
LINE
  8
0
 10
-144.179
 20
31.3264
 11
-144.092
 21
31.5603
  0
LINE
  8
0
 10
-144.092
 20
31.5603
 11
-143.972
 21
31.7794
  0
LINE
  8
0
 10
-143.972
 20
31.7794
 11
-143.823
 21
31.9793
  0
LINE
  8
0
 10
-143.823
 20
31.9793
 11
-143.646
 21
32.1559
  0
LINE
  8
0
 10
-143.646
 20
32.1559
 11
-143.446
 21
32.3055
  0
LINE
  8
0
 10
-143.446
 20
32.3055
 11
-143.227
 21
32.4252
  0
LINE
  8
0
 10
-143.227
 20
32.4252
 11
-142.993
 21
32.5124
  0
LINE
  8
0
 10
-142.993
 20
32.5124
 11
-142.749
 21
32.5655
  0
LINE
  8
0
 10
-142.749
 20
32.5655
 11
-142.5
 21
32.5833
  0
LINE
  8
0
 10
-142.5
 20
32.5833
 11
-142.251
 21
32.5655
  0
LINE
  8
0
 10
-142.251
 20
32.5655
 11
-142.007
 21
32.5124
  0
LINE
  8
0
 10
-142.007
 20
32.5124
 11
-141.773
 21
32.4252
  0
LINE
  8
0
 10
-141.773
 20
32.4252
 11
-141.554
 21
32.3055
  0
LINE
  8
0
 10
-141.554
 20
32.3055
 11
-141.354
 21
32.1559
  0
LINE
  8
0
 10
-141.354
 20
32.1559
 11
-141.177
 21
31.9793
  0
LINE
  8
0
 10
-141.177
 20
31.9793
 11
-141.028
 21
31.7794
  0
LINE
  8
0
 10
-141.028
 20
31.7794
 11
-140.908
 21
31.5603
  0
LINE
  8
0
 10
-140.908
 20
31.5603
 11
-140.821
 21
31.3264
  0
LINE
  8
0
 10
-140.821
 20
31.3264
 11
-140.768
 21
31.0824
  0
LINE
  8
0
 10
-140.768
 20
31.0824
 11
-140.75
 21
30.8333
  0
LINE
  8
0
 10
-140.75
 20
30.8333
 11
-140.75
 21
-25.8333
  0
LINE
  8
0
 10
-140.75
 20
-25.8333
 11
-140.768
 21
-26.0824
  0
LINE
  8
0
 10
-140.768
 20
-26.0824
 11
-140.821
 21
-26.3264
  0
LINE
  8
0
 10
-140.821
 20
-26.3264
 11
-140.908
 21
-26.5603
  0
LINE
  8
0
 10
-140.908
 20
-26.5603
 11
-141.028
 21
-26.7794
  0
LINE
  8
0
 10
-141.028
 20
-26.7794
 11
-141.177
 21
-26.9793
  0
LINE
  8
0
 10
-141.177
 20
-26.9793
 11
-141.354
 21
-27.1559
  0
LINE
  8
0
 10
-141.354
 20
-27.1559
 11
-141.554
 21
-27.3055
  0
LINE
  8
0
 10
-141.554
 20
-27.3055
 11
-141.773
 21
-27.4252
  0
LINE
  8
0
 10
-141.773
 20
-27.4252
 11
-142.007
 21
-27.5124
  0
LINE
  8
0
 10
-142.007
 20
-27.5124
 11
-142.251
 21
-27.5655
  0
LINE
  8
0
 10
-142.251
 20
-27.5655
 11
-142.5
 21
-27.5833
  0
LINE
  8
0
 10
-142.5
 20
-27.5833
 11
-142.749
 21
-27.5655
  0
LINE
  8
0
 10
-200.305
 20
18.5825
 11
-200.541
 21
18.6546
  0
LINE
  8
0
 10
-200.541
 20
18.6546
 11
-200.76
 21
18.7653
  0
LINE
  8
0
 10
-200.76
 20
18.7653
 11
-200.958
 21
18.9115
  0
LINE
  8
0
 10
-200.958
 20
18.9115
 11
-201.128
 21
19.0891
  0
LINE
  8
0
 10
-201.128
 20
19.0891
 11
-201.266
 21
19.2928
  0
LINE
  8
0
 10
-201.266
 20
19.2928
 11
-201.367
 21
19.5169
  0
LINE
  8
0
 10
-201.367
 20
19.5169
 11
-201.429
 21
19.7549
  0
LINE
  8
0
 10
-201.429
 20
19.7549
 11
-201.45
 21
20
  0
LINE
  8
0
 10
-201.45
 20
20
 11
-201.429
 21
20.245
  0
LINE
  8
0
 10
-201.429
 20
20.245
 11
-201.367
 21
20.483
  0
LINE
  8
0
 10
-201.367
 20
20.483
 11
-201.266
 21
20.7072
  0
LINE
  8
0
 10
-201.266
 20
20.7072
 11
-201.128
 21
20.9109
  0
LINE
  8
0
 10
-201.128
 20
20.9109
 11
-200.958
 21
21.0885
  0
LINE
  8
0
 10
-200.958
 20
21.0885
 11
-200.76
 21
21.2347
  0
LINE
  8
0
 10
-200.76
 20
21.2347
 11
-200.541
 21
21.3454
  0
LINE
  8
0
 10
-200.541
 20
21.3454
 11
-200.305
 21
21.4174
  0
LINE
  8
0
 10
-200.305
 20
21.4174
 11
-200.062
 21
21.4487
  0
LINE
  8
0
 10
-200.062
 20
21.4487
 11
-199.816
 21
21.4382
  0
LINE
  8
0
 10
-199.816
 20
21.4382
 11
-199.575
 21
21.3864
  0
LINE
  8
0
 10
-199.575
 20
21.3864
 11
-199.347
 21
21.2947
  0
LINE
  8
0
 10
-199.347
 20
21.2947
 11
-199.138
 21
21.1658
  0
LINE
  8
0
 10
-199.138
 20
21.1658
 11
-198.953
 21
21.0033
  0
LINE
  8
0
 10
-198.953
 20
21.0033
 11
-198.799
 21
20.812
  0
LINE
  8
0
 10
-198.799
 20
20.812
 11
-198.679
 21
20.5972
  0
LINE
  8
0
 10
-198.679
 20
20.5972
 11
-198.597
 21
20.3654
  0
LINE
  8
0
 10
-198.597
 20
20.3654
 11
-198.555
 21
20.123
  0
LINE
  8
0
 10
-198.555
 20
20.123
 11
-198.555
 21
19.877
  0
LINE
  8
0
 10
-198.555
 20
19.877
 11
-198.597
 21
19.6346
  0
LINE
  8
0
 10
-198.597
 20
19.6346
 11
-198.679
 21
19.4027
  0
LINE
  8
0
 10
-198.679
 20
19.4027
 11
-198.799
 21
19.188
  0
LINE
  8
0
 10
-198.799
 20
19.188
 11
-198.953
 21
18.9967
  0
LINE
  8
0
 10
-198.953
 20
18.9967
 11
-199.138
 21
18.8342
  0
LINE
  8
0
 10
-199.138
 20
18.8342
 11
-199.347
 21
18.7052
  0
LINE
  8
0
 10
-199.347
 20
18.7052
 11
-199.575
 21
18.6136
  0
LINE
  8
0
 10
-199.575
 20
18.6136
 11
-199.816
 21
18.5617
  0
LINE
  8
0
 10
-199.816
 20
18.5617
 11
-200.062
 21
18.5513
  0
LINE
  8
0
 10
-200.062
 20
18.5513
 11
-200.305
 21
18.5825
  0
LINE
  8
0
 10
199.816
 20
18.5617
 11
199.575
 21
18.6136
  0
LINE
  8
0
 10
199.575
 20
18.6136
 11
199.347
 21
18.7052
  0
LINE
  8
0
 10
199.347
 20
18.7052
 11
199.138
 21
18.8342
  0
LINE
  8
0
 10
199.138
 20
18.8342
 11
198.953
 21
18.9967
  0
LINE
  8
0
 10
198.953
 20
18.9967
 11
198.799
 21
19.188
  0
LINE
  8
0
 10
198.799
 20
19.188
 11
198.679
 21
19.4027
  0
LINE
  8
0
 10
198.679
 20
19.4027
 11
198.597
 21
19.6346
  0
LINE
  8
0
 10
198.597
 20
19.6346
 11
198.555
 21
19.877
  0
LINE
  8
0
 10
198.555
 20
19.877
 11
198.555
 21
20.123
  0
LINE
  8
0
 10
198.555
 20
20.123
 11
198.597
 21
20.3654
  0
LINE
  8
0
 10
198.597
 20
20.3654
 11
198.679
 21
20.5972
  0
LINE
  8
0
 10
198.679
 20
20.5972
 11
198.799
 21
20.812
  0
LINE
  8
0
 10
198.799
 20
20.812
 11
198.953
 21
21.0033
  0
LINE
  8
0
 10
198.953
 20
21.0033
 11
199.138
 21
21.1658
  0
LINE
  8
0
 10
199.138
 20
21.1658
 11
199.347
 21
21.2947
  0
LINE
  8
0
 10
199.347
 20
21.2947
 11
199.575
 21
21.3864
  0
LINE
  8
0
 10
199.575
 20
21.3864
 11
199.816
 21
21.4382
  0
LINE
  8
0
 10
199.816
 20
21.4382
 11
200.062
 21
21.4487
  0
LINE
  8
0
 10
200.062
 20
21.4487
 11
200.305
 21
21.4174
  0
LINE
  8
0
 10
200.305
 20
21.4174
 11
200.541
 21
21.3454
  0
LINE
  8
0
 10
200.541
 20
21.3454
 11
200.76
 21
21.2347
  0
LINE
  8
0
 10
200.76
 20
21.2347
 11
200.958
 21
21.0885
  0
LINE
  8
0
 10
200.958
 20
21.0885
 11
201.128
 21
20.9109
  0
LINE
  8
0
 10
201.128
 20
20.9109
 11
201.266
 21
20.7072
  0
LINE
  8
0
 10
201.266
 20
20.7072
 11
201.367
 21
20.483
  0
LINE
  8
0
 10
201.367
 20
20.483
 11
201.429
 21
20.245
  0
LINE
  8
0
 10
201.429
 20
20.245
 11
201.45
 21
20
  0
LINE
  8
0
 10
201.45
 20
20
 11
201.429
 21
19.7549
  0
LINE
  8
0
 10
201.429
 20
19.7549
 11
201.367
 21
19.5169
  0
LINE
  8
0
 10
201.367
 20
19.5169
 11
201.266
 21
19.2928
  0
LINE
  8
0
 10
201.266
 20
19.2928
 11
201.128
 21
19.0891
  0
LINE
  8
0
 10
201.128
 20
19.0891
 11
200.958
 21
18.9115
  0
LINE
  8
0
 10
200.958
 20
18.9115
 11
200.76
 21
18.7653
  0
LINE
  8
0
 10
200.76
 20
18.7653
 11
200.541
 21
18.6546
  0
LINE
  8
0
 10
200.541
 20
18.6546
 11
200.305
 21
18.5825
  0
LINE
  8
0
 10
200.305
 20
18.5825
 11
200.062
 21
18.5513
  0
LINE
  8
0
 10
200.062
 20
18.5513
 11
199.816
 21
18.5617
  0
LINE
  8
0
 10
199.816
 20
-21.4382
 11
199.575
 21
-21.3864
  0
LINE
  8
0
 10
199.575
 20
-21.3864
 11
199.347
 21
-21.2947
  0
LINE
  8
0
 10
199.347
 20
-21.2947
 11
199.138
 21
-21.1658
  0
LINE
  8
0
 10
199.138
 20
-21.1658
 11
198.953
 21
-21.0033
  0
LINE
  8
0
 10
198.953
 20
-21.0033
 11
198.799
 21
-20.812
  0
LINE
  8
0
 10
198.799
 20
-20.812
 11
198.679
 21
-20.5972
  0
LINE
  8
0
 10
198.679
 20
-20.5972
 11
198.597
 21
-20.3654
  0
LINE
  8
0
 10
198.597
 20
-20.3654
 11
198.555
 21
-20.123
  0
LINE
  8
0
 10
198.555
 20
-20.123
 11
198.555
 21
-19.877
  0
LINE
  8
0
 10
198.555
 20
-19.877
 11
198.597
 21
-19.6346
  0
LINE
  8
0
 10
198.597
 20
-19.6346
 11
198.679
 21
-19.4027
  0
LINE
  8
0
 10
198.679
 20
-19.4027
 11
198.799
 21
-19.188
  0
LINE
  8
0
 10
198.799
 20
-19.188
 11
198.953
 21
-18.9967
  0
LINE
  8
0
 10
198.953
 20
-18.9967
 11
199.138
 21
-18.8342
  0
LINE
  8
0
 10
199.138
 20
-18.8342
 11
199.347
 21
-18.7052
  0
LINE
  8
0
 10
199.347
 20
-18.7052
 11
199.575
 21
-18.6136
  0
LINE
  8
0
 10
199.575
 20
-18.6136
 11
199.816
 21
-18.5617
  0
LINE
  8
0
 10
199.816
 20
-18.5617
 11
200.062
 21
-18.5513
  0
LINE
  8
0
 10
200.062
 20
-18.5513
 11
200.305
 21
-18.5825
  0
LINE
  8
0
 10
200.305
 20
-18.5825
 11
200.541
 21
-18.6546
  0
LINE
  8
0
 10
200.541
 20
-18.6546
 11
200.76
 21
-18.7653
  0
LINE
  8
0
 10
200.76
 20
-18.7653
 11
200.958
 21
-18.9115
  0
LINE
  8
0
 10
200.958
 20
-18.9115
 11
201.128
 21
-19.0891
  0
LINE
  8
0
 10
201.128
 20
-19.0891
 11
201.266
 21
-19.2928
  0
LINE
  8
0
 10
201.266
 20
-19.2928
 11
201.367
 21
-19.5169
  0
LINE
  8
0
 10
201.367
 20
-19.5169
 11
201.429
 21
-19.7549
  0
LINE
  8
0
 10
201.429
 20
-19.7549
 11
201.45
 21
-20
  0
LINE
  8
0
 10
201.45
 20
-20
 11
201.429
 21
-20.245
  0
LINE
  8
0
 10
201.429
 20
-20.245
 11
201.367
 21
-20.483
  0
LINE
  8
0
 10
201.367
 20
-20.483
 11
201.266
 21
-20.7072
  0
LINE
  8
0
 10
201.266
 20
-20.7072
 11
201.128
 21
-20.9109
  0
LINE
  8
0
 10
201.128
 20
-20.9109
 11
200.958
 21
-21.0885
  0
LINE
  8
0
 10
200.958
 20
-21.0885
 11
200.76
 21
-21.2347
  0
LINE
  8
0
 10
200.76
 20
-21.2347
 11
200.541
 21
-21.3454
  0
LINE
  8
0
 10
200.541
 20
-21.3454
 11
200.305
 21
-21.4174
  0
LINE
  8
0
 10
200.305
 20
-21.4174
 11
200.062
 21
-21.4487
  0
LINE
  8
0
 10
200.062
 20
-21.4487
 11
199.816
 21
-21.4382
  0
LINE
  8
0
 10
-200.305
 20
-21.4174
 11
-200.541
 21
-21.3454
  0
LINE
  8
0
 10
-200.541
 20
-21.3454
 11
-200.76
 21
-21.2347
  0
LINE
  8
0
 10
-200.76
 20
-21.2347
 11
-200.958
 21
-21.0885
  0
LINE
  8
0
 10
-200.958
 20
-21.0885
 11
-201.128
 21
-20.9109
  0
LINE
  8
0
 10
-201.128
 20
-20.9109
 11
-201.266
 21
-20.7072
  0
LINE
  8
0
 10
-201.266
 20
-20.7072
 11
-201.367
 21
-20.483
  0
LINE
  8
0
 10
-201.367
 20
-20.483
 11
-201.429
 21
-20.245
  0
LINE
  8
0
 10
-201.429
 20
-20.245
 11
-201.45
 21
-20
  0
LINE
  8
0
 10
-201.45
 20
-20
 11
-201.429
 21
-19.7549
  0
LINE
  8
0
 10
-201.429
 20
-19.7549
 11
-201.367
 21
-19.5169
  0
LINE
  8
0
 10
-201.367
 20
-19.5169
 11
-201.266
 21
-19.2928
  0
LINE
  8
0
 10
-201.266
 20
-19.2928
 11
-201.128
 21
-19.0891
  0
LINE
  8
0
 10
-201.128
 20
-19.0891
 11
-200.958
 21
-18.9115
  0
LINE
  8
0
 10
-200.958
 20
-18.9115
 11
-200.76
 21
-18.7653
  0
LINE
  8
0
 10
-200.76
 20
-18.7653
 11
-200.541
 21
-18.6546
  0
LINE
  8
0
 10
-200.541
 20
-18.6546
 11
-200.305
 21
-18.5825
  0
LINE
  8
0
 10
-200.305
 20
-18.5825
 11
-200.062
 21
-18.5513
  0
LINE
  8
0
 10
-200.062
 20
-18.5513
 11
-199.816
 21
-18.5617
  0
LINE
  8
0
 10
-199.816
 20
-18.5617
 11
-199.575
 21
-18.6136
  0
LINE
  8
0
 10
-199.575
 20
-18.6136
 11
-199.347
 21
-18.7052
  0
LINE
  8
0
 10
-199.347
 20
-18.7052
 11
-199.138
 21
-18.8342
  0
LINE
  8
0
 10
-199.138
 20
-18.8342
 11
-198.953
 21
-18.9967
  0
LINE
  8
0
 10
-198.953
 20
-18.9967
 11
-198.799
 21
-19.188
  0
LINE
  8
0
 10
-198.799
 20
-19.188
 11
-198.679
 21
-19.4027
  0
LINE
  8
0
 10
-198.679
 20
-19.4027
 11
-198.597
 21
-19.6346
  0
LINE
  8
0
 10
-198.597
 20
-19.6346
 11
-198.555
 21
-19.877
  0
LINE
  8
0
 10
-198.555
 20
-19.877
 11
-198.555
 21
-20.123
  0
LINE
  8
0
 10
-198.555
 20
-20.123
 11
-198.597
 21
-20.3654
  0
LINE
  8
0
 10
-198.597
 20
-20.3654
 11
-198.679
 21
-20.5972
  0
LINE
  8
0
 10
-198.679
 20
-20.5972
 11
-198.799
 21
-20.812
  0
LINE
  8
0
 10
-198.799
 20
-20.812
 11
-198.953
 21
-21.0033
  0
LINE
  8
0
 10
-198.953
 20
-21.0033
 11
-199.138
 21
-21.1658
  0
LINE
  8
0
 10
-199.138
 20
-21.1658
 11
-199.347
 21
-21.2947
  0
LINE
  8
0
 10
-199.347
 20
-21.2947
 11
-199.575
 21
-21.3864
  0
LINE
  8
0
 10
-199.575
 20
-21.3864
 11
-199.816
 21
-21.4382
  0
LINE
  8
0
 10
-199.816
 20
-21.4382
 11
-200.062
 21
-21.4487
  0
LINE
  8
0
 10
-200.062
 20
-21.4487
 11
-200.305
 21
-21.4174
  0
LINE
  8
0
 10
142.251
 20
-94.2322
 11
142.007
 21
-94.1791
  0
LINE
  8
0
 10
142.007
 20
-94.1791
 11
141.773
 21
-94.0919
  0
LINE
  8
0
 10
141.773
 20
-94.0919
 11
141.554
 21
-93.9722
  0
LINE
  8
0
 10
141.554
 20
-93.9722
 11
141.354
 21
-93.8226
  0
LINE
  8
0
 10
141.354
 20
-93.8226
 11
141.177
 21
-93.646
  0
LINE
  8
0
 10
141.177
 20
-93.646
 11
141.028
 21
-93.4461
  0
LINE
  8
0
 10
141.028
 20
-93.4461
 11
140.908
 21
-93.227
  0
LINE
  8
0
 10
140.908
 20
-93.227
 11
140.821
 21
-92.993
  0
LINE
  8
0
 10
140.821
 20
-92.993
 11
140.768
 21
-92.7491
  0
LINE
  8
0
 10
140.768
 20
-92.7491
 11
140.75
 21
-92.5
  0
LINE
  8
0
 10
140.75
 20
-92.5
 11
140.75
 21
-35.8333
  0
LINE
  8
0
 10
140.75
 20
-35.8333
 11
140.768
 21
-35.5843
  0
LINE
  8
0
 10
140.768
 20
-35.5843
 11
140.821
 21
-35.3403
  0
LINE
  8
0
 10
140.821
 20
-35.3403
 11
140.908
 21
-35.1064
  0
LINE
  8
0
 10
140.908
 20
-35.1064
 11
141.028
 21
-34.8872
  0
LINE
  8
0
 10
141.028
 20
-34.8872
 11
141.177
 21
-34.6873
  0
LINE
  8
0
 10
141.177
 20
-34.6873
 11
141.354
 21
-34.5108
  0
LINE
  8
0
 10
141.354
 20
-34.5108
 11
141.554
 21
-34.3611
  0
LINE
  8
0
 10
141.554
 20
-34.3611
 11
141.773
 21
-34.2415
  0
LINE
  8
0
 10
141.773
 20
-34.2415
 11
142.007
 21
-34.1542
  0
LINE
  8
0
 10
142.007
 20
-34.1542
 11
142.251
 21
-34.1011
  0
LINE
  8
0
 10
142.251
 20
-34.1011
 11
142.5
 21
-34.0833
  0
LINE
  8
0
 10
142.5
 20
-34.0833
 11
142.749
 21
-34.1011
  0
LINE
  8
0
 10
142.749
 20
-34.1011
 11
142.993
 21
-34.1542
  0
LINE
  8
0
 10
142.993
 20
-34.1542
 11
143.227
 21
-34.2415
  0
LINE
  8
0
 10
143.227
 20
-34.2415
 11
143.446
 21
-34.3611
  0
LINE
  8
0
 10
143.446
 20
-34.3611
 11
143.646
 21
-34.5108
  0
LINE
  8
0
 10
143.646
 20
-34.5108
 11
143.823
 21
-34.6873
  0
LINE
  8
0
 10
143.823
 20
-34.6873
 11
143.972
 21
-34.8872
  0
LINE
  8
0
 10
143.972
 20
-34.8872
 11
144.092
 21
-35.1064
  0
LINE
  8
0
 10
144.092
 20
-35.1064
 11
144.179
 21
-35.3403
  0
LINE
  8
0
 10
144.179
 20
-35.3403
 11
144.232
 21
-35.5843
  0
LINE
  8
0
 10
144.232
 20
-35.5843
 11
144.25
 21
-35.8333
  0
LINE
  8
0
 10
144.25
 20
-35.8333
 11
144.25
 21
-92.5
  0
LINE
  8
0
 10
144.25
 20
-92.5
 11
144.232
 21
-92.7491
  0
LINE
  8
0
 10
144.232
 20
-92.7491
 11
144.179
 21
-92.993
  0
LINE
  8
0
 10
144.179
 20
-92.993
 11
144.092
 21
-93.227
  0
LINE
  8
0
 10
144.092
 20
-93.227
 11
143.972
 21
-93.4461
  0
LINE
  8
0
 10
143.972
 20
-93.4461
 11
143.823
 21
-93.646
  0
LINE
  8
0
 10
143.823
 20
-93.646
 11
143.646
 21
-93.8226
  0
LINE
  8
0
 10
143.646
 20
-93.8226
 11
143.446
 21
-93.9722
  0
LINE
  8
0
 10
143.446
 20
-93.9722
 11
143.227
 21
-94.0919
  0
LINE
  8
0
 10
143.227
 20
-94.0919
 11
142.993
 21
-94.1791
  0
LINE
  8
0
 10
142.993
 20
-94.1791
 11
142.749
 21
-94.2322
  0
LINE
  8
0
 10
142.749
 20
-94.2322
 11
142.5
 21
-94.25
  0
LINE
  8
0
 10
142.5
 20
-94.25
 11
142.251
 21
-94.2322
  0
LINE
  8
0
 10
-142.749
 20
-94.2322
 11
-142.993
 21
-94.1791
  0
LINE
  8
0
 10
-142.993
 20
-94.1791
 11
-143.227
 21
-94.0919
  0
LINE
  8
0
 10
-143.227
 20
-94.0919
 11
-143.446
 21
-93.9722
  0
LINE
  8
0
 10
-143.446
 20
-93.9722
 11
-143.646
 21
-93.8226
  0
LINE
  8
0
 10
-143.646
 20
-93.8226
 11
-143.823
 21
-93.646
  0
LINE
  8
0
 10
-143.823
 20
-93.646
 11
-143.972
 21
-93.4461
  0
LINE
  8
0
 10
-143.972
 20
-93.4461
 11
-144.092
 21
-93.227
  0
LINE
  8
0
 10
-144.092
 20
-93.227
 11
-144.179
 21
-92.993
  0
LINE
  8
0
 10
-144.179
 20
-92.993
 11
-144.232
 21
-92.7491
  0
LINE
  8
0
 10
-144.232
 20
-92.7491
 11
-144.25
 21
-92.5
  0
LINE
  8
0
 10
-144.25
 20
-92.5
 11
-144.25
 21
-35.8333
  0
LINE
  8
0
 10
-144.25
 20
-35.8333
 11
-144.232
 21
-35.5843
  0
LINE
  8
0
 10
-144.232
 20
-35.5843
 11
-144.179
 21
-35.3403
  0
LINE
  8
0
 10
-144.179
 20
-35.3403
 11
-144.092
 21
-35.1064
  0
LINE
  8
0
 10
-144.092
 20
-35.1064
 11
-143.972
 21
-34.8872
  0
LINE
  8
0
 10
-143.972
 20
-34.8872
 11
-143.823
 21
-34.6873
  0
LINE
  8
0
 10
-143.823
 20
-34.6873
 11
-143.646
 21
-34.5108
  0
LINE
  8
0
 10
-143.646
 20
-34.5108
 11
-143.446
 21
-34.3611
  0
LINE
  8
0
 10
-143.446
 20
-34.3611
 11
-143.227
 21
-34.2415
  0
LINE
  8
0
 10
-143.227
 20
-34.2415
 11
-142.993
 21
-34.1542
  0
LINE
  8
0
 10
-142.993
 20
-34.1542
 11
-142.749
 21
-34.1011
  0
LINE
  8
0
 10
-142.749
 20
-34.1011
 11
-142.5
 21
-34.0833
  0
LINE
  8
0
 10
-142.5
 20
-34.0833
 11
-142.251
 21
-34.1011
  0
LINE
  8
0
 10
-142.251
 20
-34.1011
 11
-142.007
 21
-34.1542
  0
LINE
  8
0
 10
-142.007
 20
-34.1542
 11
-141.773
 21
-34.2415
  0
LINE
  8
0
 10
-141.773
 20
-34.2415
 11
-141.554
 21
-34.3611
  0
LINE
  8
0
 10
-141.554
 20
-34.3611
 11
-141.354
 21
-34.5108
  0
LINE
  8
0
 10
-141.354
 20
-34.5108
 11
-141.177
 21
-34.6873
  0
LINE
  8
0
 10
-141.177
 20
-34.6873
 11
-141.028
 21
-34.8872
  0
LINE
  8
0
 10
-141.028
 20
-34.8872
 11
-140.908
 21
-35.1064
  0
LINE
  8
0
 10
-140.908
 20
-35.1064
 11
-140.821
 21
-35.3403
  0
LINE
  8
0
 10
-140.821
 20
-35.3403
 11
-140.768
 21
-35.5843
  0
LINE
  8
0
 10
-140.768
 20
-35.5843
 11
-140.75
 21
-35.8333
  0
LINE
  8
0
 10
-140.75
 20
-35.8333
 11
-140.75
 21
-92.5
  0
LINE
  8
0
 10
-140.75
 20
-92.5
 11
-140.768
 21
-92.7491
  0
LINE
  8
0
 10
-140.768
 20
-92.7491
 11
-140.821
 21
-92.993
  0
LINE
  8
0
 10
-140.821
 20
-92.993
 11
-140.908
 21
-93.227
  0
LINE
  8
0
 10
-140.908
 20
-93.227
 11
-141.028
 21
-93.4461
  0
LINE
  8
0
 10
-141.028
 20
-93.4461
 11
-141.177
 21
-93.646
  0
LINE
  8
0
 10
-141.177
 20
-93.646
 11
-141.354
 21
-93.8226
  0
LINE
  8
0
 10
-141.354
 20
-93.8226
 11
-141.554
 21
-93.9722
  0
LINE
  8
0
 10
-141.554
 20
-93.9722
 11
-141.773
 21
-94.0919
  0
LINE
  8
0
 10
-141.773
 20
-94.0919
 11
-142.007
 21
-94.1791
  0
LINE
  8
0
 10
-142.007
 20
-94.1791
 11
-142.251
 21
-94.2322
  0
LINE
  8
0
 10
-142.251
 20
-94.2322
 11
-142.5
 21
-94.25
  0
LINE
  8
0
 10
-142.5
 20
-94.25
 11
-142.749
 21
-94.2322
  0
LINE
  8
0
 10
-200.251
 20
-42.3868
 11
-200.499
 21
-42.3475
  0
LINE
  8
0
 10
-200.499
 20
-42.3475
 11
-200.742
 21
-42.2825
  0
LINE
  8
0
 10
-200.742
 20
-42.2825
 11
-200.976
 21
-42.1925
  0
LINE
  8
0
 10
-200.976
 20
-42.1925
 11
-201.2
 21
-42.0785
  0
LINE
  8
0
 10
-201.2
 20
-42.0785
 11
-201.411
 21
-41.9416
  0
LINE
  8
0
 10
-201.411
 20
-41.9416
 11
-201.606
 21
-41.7835
  0
LINE
  8
0
 10
-201.606
 20
-41.7835
 11
-201.784
 21
-41.6059
  0
LINE
  8
0
 10
-201.784
 20
-41.6059
 11
-201.942
 21
-41.4107
  0
LINE
  8
0
 10
-201.942
 20
-41.4107
 11
-202.078
 21
-41.2
  0
LINE
  8
0
 10
-202.078
 20
-41.2
 11
-202.193
 21
-40.9762
  0
LINE
  8
0
 10
-202.193
 20
-40.9762
 11
-202.283
 21
-40.7416
  0
LINE
  8
0
 10
-202.283
 20
-40.7416
 11
-202.348
 21
-40.499
  0
LINE
  8
0
 10
-202.348
 20
-40.499
 11
-202.387
 21
-40.2509
  0
LINE
  8
0
 10
-202.387
 20
-40.2509
 11
-202.4
 21
-40
  0
LINE
  8
0
 10
-202.4
 20
-40
 11
-202.387
 21
-39.7491
  0
LINE
  8
0
 10
-202.387
 20
-39.7491
 11
-202.348
 21
-39.501
  0
LINE
  8
0
 10
-202.348
 20
-39.501
 11
-202.283
 21
-39.2583
  0
LINE
  8
0
 10
-202.283
 20
-39.2583
 11
-202.193
 21
-39.0238
  0
LINE
  8
0
 10
-202.193
 20
-39.0238
 11
-202.078
 21
-38.8
  0
LINE
  8
0
 10
-202.078
 20
-38.8
 11
-201.942
 21
-38.5893
  0
LINE
  8
0
 10
-201.942
 20
-38.5893
 11
-201.784
 21
-38.3941
  0
LINE
  8
0
 10
-201.784
 20
-38.3941
 11
-201.606
 21
-38.2164
  0
LINE
  8
0
 10
-201.606
 20
-38.2164
 11
-201.411
 21
-38.0583
  0
LINE
  8
0
 10
-201.411
 20
-38.0583
 11
-201.2
 21
-37.9215
  0
LINE
  8
0
 10
-201.2
 20
-37.9215
 11
-200.976
 21
-37.8075
  0
LINE
  8
0
 10
-200.976
 20
-37.8075
 11
-200.742
 21
-37.7175
  0
LINE
  8
0
 10
-200.742
 20
-37.7175
 11
-200.499
 21
-37.6524
  0
LINE
  8
0
 10
-200.499
 20
-37.6524
 11
-200.251
 21
-37.6131
  0
LINE
  8
0
 10
-200.251
 20
-37.6131
 11
-200
 21
-37.6
  0
LINE
  8
0
 10
-200
 20
-37.6
 11
-199.749
 21
-37.6131
  0
LINE
  8
0
 10
-199.749
 20
-37.6131
 11
-199.501
 21
-37.6524
  0
LINE
  8
0
 10
-199.501
 20
-37.6524
 11
-199.258
 21
-37.7175
  0
LINE
  8
0
 10
-199.258
 20
-37.7175
 11
-199.024
 21
-37.8075
  0
LINE
  8
0
 10
-199.024
 20
-37.8075
 11
-198.8
 21
-37.9215
  0
LINE
  8
0
 10
-198.8
 20
-37.9215
 11
-198.589
 21
-38.0583
  0
LINE
  8
0
 10
-198.589
 20
-38.0583
 11
-198.394
 21
-38.2164
  0
LINE
  8
0
 10
-198.394
 20
-38.2164
 11
-198.216
 21
-38.3941
  0
LINE
  8
0
 10
-198.216
 20
-38.3941
 11
-198.058
 21
-38.5893
  0
LINE
  8
0
 10
-198.058
 20
-38.5893
 11
-197.922
 21
-38.8
  0
LINE
  8
0
 10
-197.922
 20
-38.8
 11
-197.807
 21
-39.0238
  0
LINE
  8
0
 10
-197.807
 20
-39.0238
 11
-197.717
 21
-39.2583
  0
LINE
  8
0
 10
-197.717
 20
-39.2583
 11
-197.652
 21
-39.501
  0
LINE
  8
0
 10
-197.652
 20
-39.501
 11
-197.613
 21
-39.7491
  0
LINE
  8
0
 10
-197.613
 20
-39.7491
 11
-197.6
 21
-40
  0
LINE
  8
0
 10
-197.6
 20
-40
 11
-197.613
 21
-40.2509
  0
LINE
  8
0
 10
-197.613
 20
-40.2509
 11
-197.652
 21
-40.499
  0
LINE
  8
0
 10
-197.652
 20
-40.499
 11
-197.717
 21
-40.7416
  0
LINE
  8
0
 10
-197.717
 20
-40.7416
 11
-197.807
 21
-40.9762
  0
LINE
  8
0
 10
-197.807
 20
-40.9762
 11
-197.922
 21
-41.2
  0
LINE
  8
0
 10
-197.922
 20
-41.2
 11
-198.058
 21
-41.4107
  0
LINE
  8
0
 10
-198.058
 20
-41.4107
 11
-198.216
 21
-41.6059
  0
LINE
  8
0
 10
-198.216
 20
-41.6059
 11
-198.394
 21
-41.7835
  0
LINE
  8
0
 10
-198.394
 20
-41.7835
 11
-198.589
 21
-41.9416
  0
LINE
  8
0
 10
-198.589
 20
-41.9416
 11
-198.8
 21
-42.0785
  0
LINE
  8
0
 10
-198.8
 20
-42.0785
 11
-199.024
 21
-42.1925
  0
LINE
  8
0
 10
-199.024
 20
-42.1925
 11
-199.258
 21
-42.2825
  0
LINE
  8
0
 10
-199.258
 20
-42.2825
 11
-199.501
 21
-42.3475
  0
LINE
  8
0
 10
-199.501
 20
-42.3475
 11
-199.749
 21
-42.3868
  0
LINE
  8
0
 10
-199.749
 20
-42.3868
 11
-200
 21
-42.4
  0
LINE
  8
0
 10
-200
 20
-42.4
 11
-200.251
 21
-42.3868
  0
LINE
  8
0
 10
199.749
 20
-42.3868
 11
199.501
 21
-42.3475
  0
LINE
  8
0
 10
199.501
 20
-42.3475
 11
199.258
 21
-42.2825
  0
LINE
  8
0
 10
199.258
 20
-42.2825
 11
199.024
 21
-42.1925
  0
LINE
  8
0
 10
199.024
 20
-42.1925
 11
198.8
 21
-42.0785
  0
LINE
  8
0
 10
198.8
 20
-42.0785
 11
198.589
 21
-41.9416
  0
LINE
  8
0
 10
198.589
 20
-41.9416
 11
198.394
 21
-41.7835
  0
LINE
  8
0
 10
198.394
 20
-41.7835
 11
198.216
 21
-41.6059
  0
LINE
  8
0
 10
198.216
 20
-41.6059
 11
198.058
 21
-41.4107
  0
LINE
  8
0
 10
198.058
 20
-41.4107
 11
197.922
 21
-41.2
  0
LINE
  8
0
 10
197.922
 20
-41.2
 11
197.807
 21
-40.9762
  0
LINE
  8
0
 10
197.807
 20
-40.9762
 11
197.717
 21
-40.7416
  0
LINE
  8
0
 10
197.717
 20
-40.7416
 11
197.652
 21
-40.499
  0
LINE
  8
0
 10
197.652
 20
-40.499
 11
197.613
 21
-40.2509
  0
LINE
  8
0
 10
197.613
 20
-40.2509
 11
197.6
 21
-40
  0
LINE
  8
0
 10
197.6
 20
-40
 11
197.613
 21
-39.7491
  0
LINE
  8
0
 10
197.613
 20
-39.7491
 11
197.652
 21
-39.501
  0
LINE
  8
0
 10
197.652
 20
-39.501
 11
197.717
 21
-39.2583
  0
LINE
  8
0
 10
197.717
 20
-39.2583
 11
197.807
 21
-39.0238
  0
LINE
  8
0
 10
197.807
 20
-39.0238
 11
197.922
 21
-38.8
  0
LINE
  8
0
 10
197.922
 20
-38.8
 11
198.058
 21
-38.5893
  0
LINE
  8
0
 10
198.058
 20
-38.5893
 11
198.216
 21
-38.3941
  0
LINE
  8
0
 10
198.216
 20
-38.3941
 11
198.394
 21
-38.2164
  0
LINE
  8
0
 10
198.394
 20
-38.2164
 11
198.589
 21
-38.0583
  0
LINE
  8
0
 10
198.589
 20
-38.0583
 11
198.8
 21
-37.9215
  0
LINE
  8
0
 10
198.8
 20
-37.9215
 11
199.024
 21
-37.8075
  0
LINE
  8
0
 10
199.024
 20
-37.8075
 11
199.258
 21
-37.7175
  0
LINE
  8
0
 10
199.258
 20
-37.7175
 11
199.501
 21
-37.6524
  0
LINE
  8
0
 10
199.501
 20
-37.6524
 11
199.749
 21
-37.6131
  0
LINE
  8
0
 10
199.749
 20
-37.6131
 11
200
 21
-37.6
  0
LINE
  8
0
 10
200
 20
-37.6
 11
200.251
 21
-37.6131
  0
LINE
  8
0
 10
200.251
 20
-37.6131
 11
200.499
 21
-37.6524
  0
LINE
  8
0
 10
200.499
 20
-37.6524
 11
200.742
 21
-37.7175
  0
LINE
  8
0
 10
200.742
 20
-37.7175
 11
200.976
 21
-37.8075
  0
LINE
  8
0
 10
200.976
 20
-37.8075
 11
201.2
 21
-37.9215
  0
LINE
  8
0
 10
201.2
 20
-37.9215
 11
201.411
 21
-38.0583
  0
LINE
  8
0
 10
201.411
 20
-38.0583
 11
201.606
 21
-38.2164
  0
LINE
  8
0
 10
201.606
 20
-38.2164
 11
201.784
 21
-38.3941
  0
LINE
  8
0
 10
201.784
 20
-38.3941
 11
201.942
 21
-38.5893
  0
LINE
  8
0
 10
201.942
 20
-38.5893
 11
202.078
 21
-38.8
  0
LINE
  8
0
 10
202.078
 20
-38.8
 11
202.193
 21
-39.0238
  0
LINE
  8
0
 10
202.193
 20
-39.0238
 11
202.283
 21
-39.2583
  0
LINE
  8
0
 10
202.283
 20
-39.2583
 11
202.348
 21
-39.501
  0
LINE
  8
0
 10
202.348
 20
-39.501
 11
202.387
 21
-39.7491
  0
LINE
  8
0
 10
202.387
 20
-39.7491
 11
202.4
 21
-40
  0
LINE
  8
0
 10
202.4
 20
-40
 11
202.387
 21
-40.2509
  0
LINE
  8
0
 10
202.387
 20
-40.2509
 11
202.348
 21
-40.499
  0
LINE
  8
0
 10
202.348
 20
-40.499
 11
202.283
 21
-40.7416
  0
LINE
  8
0
 10
202.283
 20
-40.7416
 11
202.193
 21
-40.9762
  0
LINE
  8
0
 10
202.193
 20
-40.9762
 11
202.078
 21
-41.2
  0
LINE
  8
0
 10
202.078
 20
-41.2
 11
201.942
 21
-41.4107
  0
LINE
  8
0
 10
201.942
 20
-41.4107
 11
201.784
 21
-41.6059
  0
LINE
  8
0
 10
201.784
 20
-41.6059
 11
201.606
 21
-41.7835
  0
LINE
  8
0
 10
201.606
 20
-41.7835
 11
201.411
 21
-41.9416
  0
LINE
  8
0
 10
201.411
 20
-41.9416
 11
201.2
 21
-42.0785
  0
LINE
  8
0
 10
201.2
 20
-42.0785
 11
200.976
 21
-42.1925
  0
LINE
  8
0
 10
200.976
 20
-42.1925
 11
200.742
 21
-42.2825
  0
LINE
  8
0
 10
200.742
 20
-42.2825
 11
200.499
 21
-42.3475
  0
LINE
  8
0
 10
200.499
 20
-42.3475
 11
200.251
 21
-42.3868
  0
LINE
  8
0
 10
200.251
 20
-42.3868
 11
200
 21
-42.4
  0
LINE
  8
0
 10
200
 20
-42.4
 11
199.749
 21
-42.3868
  0
LINE
  8
0
 10
199.603
 20
-63.7792
 11
199.21
 21
-63.7169
  0
LINE
  8
0
 10
199.21
 20
-63.7169
 11
198.826
 21
-63.614
  0
LINE
  8
0
 10
198.826
 20
-63.614
 11
198.454
 21
-63.4715
  0
LINE
  8
0
 10
198.454
 20
-63.4715
 11
198.1
 21
-63.2909
  0
LINE
  8
0
 10
198.1
 20
-63.2909
 11
197.766
 21
-63.0743
  0
LINE
  8
0
 10
197.766
 20
-63.0743
 11
197.457
 21
-62.8239
  0
LINE
  8
0
 10
197.457
 20
-62.8239
 11
197.176
 21
-62.5427
  0
LINE
  8
0
 10
197.176
 20
-62.5427
 11
196.926
 21
-62.2336
  0
LINE
  8
0
 10
196.926
 20
-62.2336
 11
196.709
 21
-61.9
  0
LINE
  8
0
 10
196.709
 20
-61.9
 11
196.529
 21
-61.5456
  0
LINE
  8
0
 10
196.529
 20
-61.5456
 11
196.386
 21
-61.1743
  0
LINE
  8
0
 10
196.386
 20
-61.1743
 11
196.283
 21
-60.7901
  0
LINE
  8
0
 10
196.283
 20
-60.7901
 11
196.221
 21
-60.3972
  0
LINE
  8
0
 10
196.221
 20
-60.3972
 11
196.2
 21
-60
  0
LINE
  8
0
 10
196.2
 20
-60
 11
196.221
 21
-59.6028
  0
LINE
  8
0
 10
196.221
 20
-59.6028
 11
196.283
 21
-59.2099
  0
LINE
  8
0
 10
196.283
 20
-59.2099
 11
196.386
 21
-58.8257
  0
LINE
  8
0
 10
196.386
 20
-58.8257
 11
196.529
 21
-58.4544
  0
LINE
  8
0
 10
196.529
 20
-58.4544
 11
196.709
 21
-58.1
  0
LINE
  8
0
 10
196.709
 20
-58.1
 11
196.926
 21
-57.7664
  0
LINE
  8
0
 10
196.926
 20
-57.7664
 11
197.176
 21
-57.4573
  0
LINE
  8
0
 10
197.176
 20
-57.4573
 11
197.457
 21
-57.176
  0
LINE
  8
0
 10
197.457
 20
-57.176
 11
197.766
 21
-56.9257
  0
LINE
  8
0
 10
197.766
 20
-56.9257
 11
198.1
 21
-56.7091
  0
LINE
  8
0
 10
198.1
 20
-56.7091
 11
198.454
 21
-56.5285
  0
LINE
  8
0
 10
198.454
 20
-56.5285
 11
198.826
 21
-56.386
  0
LINE
  8
0
 10
198.826
 20
-56.386
 11
199.21
 21
-56.283
  0
LINE
  8
0
 10
199.21
 20
-56.283
 11
199.603
 21
-56.2208
  0
LINE
  8
0
 10
199.603
 20
-56.2208
 11
200
 21
-56.2
  0
LINE
  8
0
 10
200
 20
-56.2
 11
200.397
 21
-56.2208
  0
LINE
  8
0
 10
200.397
 20
-56.2208
 11
200.79
 21
-56.283
  0
LINE
  8
0
 10
200.79
 20
-56.283
 11
201.174
 21
-56.386
  0
LINE
  8
0
 10
201.174
 20
-56.386
 11
201.546
 21
-56.5285
  0
LINE
  8
0
 10
201.546
 20
-56.5285
 11
201.9
 21
-56.7091
  0
LINE
  8
0
 10
201.9
 20
-56.7091
 11
202.234
 21
-56.9257
  0
LINE
  8
0
 10
202.234
 20
-56.9257
 11
202.543
 21
-57.176
  0
LINE
  8
0
 10
202.543
 20
-57.176
 11
202.824
 21
-57.4573
  0
LINE
  8
0
 10
202.824
 20
-57.4573
 11
203.074
 21
-57.7664
  0
LINE
  8
0
 10
203.074
 20
-57.7664
 11
203.291
 21
-58.1
  0
LINE
  8
0
 10
203.291
 20
-58.1
 11
203.471
 21
-58.4544
  0
LINE
  8
0
 10
203.471
 20
-58.4544
 11
203.614
 21
-58.8257
  0
LINE
  8
0
 10
203.614
 20
-58.8257
 11
203.717
 21
-59.2099
  0
LINE
  8
0
 10
203.717
 20
-59.2099
 11
203.779
 21
-59.6028
  0
LINE
  8
0
 10
203.779
 20
-59.6028
 11
203.8
 21
-60
  0
LINE
  8
0
 10
203.8
 20
-60
 11
203.779
 21
-60.3972
  0
LINE
  8
0
 10
203.779
 20
-60.3972
 11
203.717
 21
-60.7901
  0
LINE
  8
0
 10
203.717
 20
-60.7901
 11
203.614
 21
-61.1743
  0
LINE
  8
0
 10
203.614
 20
-61.1743
 11
203.471
 21
-61.5456
  0
LINE
  8
0
 10
203.471
 20
-61.5456
 11
203.291
 21
-61.9
  0
LINE
  8
0
 10
203.291
 20
-61.9
 11
203.074
 21
-62.2336
  0
LINE
  8
0
 10
203.074
 20
-62.2336
 11
202.824
 21
-62.5427
  0
LINE
  8
0
 10
202.824
 20
-62.5427
 11
202.543
 21
-62.8239
  0
LINE
  8
0
 10
202.543
 20
-62.8239
 11
202.234
 21
-63.0743
  0
LINE
  8
0
 10
202.234
 20
-63.0743
 11
201.9
 21
-63.2909
  0
LINE
  8
0
 10
201.9
 20
-63.2909
 11
201.546
 21
-63.4715
  0
LINE
  8
0
 10
201.546
 20
-63.4715
 11
201.174
 21
-63.614
  0
LINE
  8
0
 10
201.174
 20
-63.614
 11
200.79
 21
-63.7169
  0
LINE
  8
0
 10
200.79
 20
-63.7169
 11
200.397
 21
-63.7792
  0
LINE
  8
0
 10
200.397
 20
-63.7792
 11
200
 21
-63.8
  0
LINE
  8
0
 10
200
 20
-63.8
 11
199.603
 21
-63.7792
  0
LINE
  8
0
 10
-200.397
 20
-63.7792
 11
-200.79
 21
-63.7169
  0
LINE
  8
0
 10
-200.79
 20
-63.7169
 11
-201.174
 21
-63.614
  0
LINE
  8
0
 10
-201.174
 20
-63.614
 11
-201.546
 21
-63.4715
  0
LINE
  8
0
 10
-201.546
 20
-63.4715
 11
-201.9
 21
-63.2909
  0
LINE
  8
0
 10
-201.9
 20
-63.2909
 11
-202.234
 21
-63.0743
  0
LINE
  8
0
 10
-202.234
 20
-63.0743
 11
-202.543
 21
-62.8239
  0
LINE
  8
0
 10
-202.543
 20
-62.8239
 11
-202.824
 21
-62.5427
  0
LINE
  8
0
 10
-202.824
 20
-62.5427
 11
-203.074
 21
-62.2336
  0
LINE
  8
0
 10
-203.074
 20
-62.2336
 11
-203.291
 21
-61.9
  0
LINE
  8
0
 10
-203.291
 20
-61.9
 11
-203.471
 21
-61.5456
  0
LINE
  8
0
 10
-203.471
 20
-61.5456
 11
-203.614
 21
-61.1743
  0
LINE
  8
0
 10
-203.614
 20
-61.1743
 11
-203.717
 21
-60.7901
  0
LINE
  8
0
 10
-203.717
 20
-60.7901
 11
-203.779
 21
-60.3972
  0
LINE
  8
0
 10
-203.779
 20
-60.3972
 11
-203.8
 21
-60
  0
LINE
  8
0
 10
-203.8
 20
-60
 11
-203.779
 21
-59.6028
  0
LINE
  8
0
 10
-203.779
 20
-59.6028
 11
-203.717
 21
-59.2099
  0
LINE
  8
0
 10
-203.717
 20
-59.2099
 11
-203.614
 21
-58.8257
  0
LINE
  8
0
 10
-203.614
 20
-58.8257
 11
-203.471
 21
-58.4544
  0
LINE
  8
0
 10
-203.471
 20
-58.4544
 11
-203.291
 21
-58.1
  0
LINE
  8
0
 10
-203.291
 20
-58.1
 11
-203.074
 21
-57.7664
  0
LINE
  8
0
 10
-203.074
 20
-57.7664
 11
-202.824
 21
-57.4573
  0
LINE
  8
0
 10
-202.824
 20
-57.4573
 11
-202.543
 21
-57.176
  0
LINE
  8
0
 10
-202.543
 20
-57.176
 11
-202.234
 21
-56.9257
  0
LINE
  8
0
 10
-202.234
 20
-56.9257
 11
-201.9
 21
-56.7091
  0
LINE
  8
0
 10
-201.9
 20
-56.7091
 11
-201.546
 21
-56.5285
  0
LINE
  8
0
 10
-201.546
 20
-56.5285
 11
-201.174
 21
-56.386
  0
LINE
  8
0
 10
-201.174
 20
-56.386
 11
-200.79
 21
-56.283
  0
LINE
  8
0
 10
-200.79
 20
-56.283
 11
-200.397
 21
-56.2208
  0
LINE
  8
0
 10
-200.397
 20
-56.2208
 11
-200
 21
-56.2
  0
LINE
  8
0
 10
-200
 20
-56.2
 11
-199.603
 21
-56.2208
  0
LINE
  8
0
 10
-199.603
 20
-56.2208
 11
-199.21
 21
-56.283
  0
LINE
  8
0
 10
-199.21
 20
-56.283
 11
-198.826
 21
-56.386
  0
LINE
  8
0
 10
-198.826
 20
-56.386
 11
-198.454
 21
-56.5285
  0
LINE
  8
0
 10
-198.454
 20
-56.5285
 11
-198.1
 21
-56.7091
  0
LINE
  8
0
 10
-198.1
 20
-56.7091
 11
-197.766
 21
-56.9257
  0
LINE
  8
0
 10
-197.766
 20
-56.9257
 11
-197.457
 21
-57.176
  0
LINE
  8
0
 10
-197.457
 20
-57.176
 11
-197.176
 21
-57.4573
  0
LINE
  8
0
 10
-197.176
 20
-57.4573
 11
-196.926
 21
-57.7664
  0
LINE
  8
0
 10
-196.926
 20
-57.7664
 11
-196.709
 21
-58.1
  0
LINE
  8
0
 10
-196.709
 20
-58.1
 11
-196.529
 21
-58.4544
  0
LINE
  8
0
 10
-196.529
 20
-58.4544
 11
-196.386
 21
-58.8257
  0
LINE
  8
0
 10
-196.386
 20
-58.8257
 11
-196.283
 21
-59.2099
  0
LINE
  8
0
 10
-196.283
 20
-59.2099
 11
-196.221
 21
-59.6028
  0
LINE
  8
0
 10
-196.221
 20
-59.6028
 11
-196.2
 21
-60
  0
LINE
  8
0
 10
-196.2
 20
-60
 11
-196.221
 21
-60.3972
  0
LINE
  8
0
 10
-196.221
 20
-60.3972
 11
-196.283
 21
-60.7901
  0
LINE
  8
0
 10
-196.283
 20
-60.7901
 11
-196.386
 21
-61.1743
  0
LINE
  8
0
 10
-196.386
 20
-61.1743
 11
-196.529
 21
-61.5456
  0
LINE
  8
0
 10
-196.529
 20
-61.5456
 11
-196.709
 21
-61.9
  0
LINE
  8
0
 10
-196.709
 20
-61.9
 11
-196.926
 21
-62.2336
  0
LINE
  8
0
 10
-196.926
 20
-62.2336
 11
-197.176
 21
-62.5427
  0
LINE
  8
0
 10
-197.176
 20
-62.5427
 11
-197.457
 21
-62.8239
  0
LINE
  8
0
 10
-197.457
 20
-62.8239
 11
-197.766
 21
-63.0743
  0
LINE
  8
0
 10
-197.766
 20
-63.0743
 11
-198.1
 21
-63.2909
  0
LINE
  8
0
 10
-198.1
 20
-63.2909
 11
-198.454
 21
-63.4715
  0
LINE
  8
0
 10
-198.454
 20
-63.4715
 11
-198.826
 21
-63.614
  0
LINE
  8
0
 10
-198.826
 20
-63.614
 11
-199.21
 21
-63.7169
  0
LINE
  8
0
 10
-199.21
 20
-63.7169
 11
-199.603
 21
-63.7792
  0
LINE
  8
0
 10
-199.603
 20
-63.7792
 11
-200
 21
-63.8
  0
LINE
  8
0
 10
-200
 20
-63.8
 11
-200.397
 21
-63.7792
  0
LINE
  8
0
 10
199.377
 20
-114.145
 11
199.133
 21
-114.109
  0
LINE
  8
0
 10
199.133
 20
-114.109
 11
198.897
 21
-114.036
  0
LINE
  8
0
 10
198.897
 20
-114.036
 11
198.675
 21
-113.929
  0
LINE
  8
0
 10
198.675
 20
-113.929
 11
198.471
 21
-113.79
  0
LINE
  8
0
 10
198.471
 20
-113.79
 11
198.29
 21
-113.622
  0
LINE
  8
0
 10
198.29
 20
-113.622
 11
198.137
 21
-113.429
  0
LINE
  8
0
 10
198.137
 20
-113.429
 11
198.013
 21
-113.216
  0
LINE
  8
0
 10
198.013
 20
-113.216
 11
197.923
 21
-112.986
  0
LINE
  8
0
 10
197.923
 20
-112.986
 11
197.868
 21
-112.746
  0
LINE
  8
0
 10
197.868
 20
-112.746
 11
197.85
 21
-112.5
  0
LINE
  8
0
 10
197.85
 20
-112.5
 11
197.868
 21
-112.254
  0
LINE
  8
0
 10
197.868
 20
-112.254
 11
197.923
 21
-112.014
  0
LINE
  8
0
 10
197.923
 20
-112.014
 11
198.013
 21
-111.784
  0
LINE
  8
0
 10
198.013
 20
-111.784
 11
198.137
 21
-111.571
  0
LINE
  8
0
 10
198.137
 20
-111.571
 11
198.29
 21
-111.378
  0
LINE
  8
0
 10
198.29
 20
-111.378
 11
198.471
 21
-111.21
  0
LINE
  8
0
 10
198.471
 20
-111.21
 11
198.675
 21
-111.071
  0
LINE
  8
0
 10
198.675
 20
-111.071
 11
198.897
 21
-110.964
  0
LINE
  8
0
 10
198.897
 20
-110.964
 11
199.133
 21
-110.891
  0
LINE
  8
0
 10
199.133
 20
-110.891
 11
199.377
 21
-110.855
  0
LINE
  8
0
 10
199.377
 20
-110.855
 11
207.623
 21
-110.855
  0
LINE
  8
0
 10
207.623
 20
-110.855
 11
207.867
 21
-110.891
  0
LINE
  8
0
 10
207.867
 20
-110.891
 11
208.103
 21
-110.964
  0
LINE
  8
0
 10
208.103
 20
-110.964
 11
208.325
 21
-111.071
  0
LINE
  8
0
 10
208.325
 20
-111.071
 11
208.529
 21
-111.21
  0
LINE
  8
0
 10
208.529
 20
-111.21
 11
208.71
 21
-111.378
  0
LINE
  8
0
 10
208.71
 20
-111.378
 11
208.863
 21
-111.571
  0
LINE
  8
0
 10
208.863
 20
-111.571
 11
208.987
 21
-111.784
  0
LINE
  8
0
 10
208.987
 20
-111.784
 11
209.077
 21
-112.014
  0
LINE
  8
0
 10
209.077
 20
-112.014
 11
209.132
 21
-112.254
  0
LINE
  8
0
 10
209.132
 20
-112.254
 11
209.15
 21
-112.5
  0
LINE
  8
0
 10
209.15
 20
-112.5
 11
209.132
 21
-112.746
  0
LINE
  8
0
 10
209.132
 20
-112.746
 11
209.077
 21
-112.986
  0
LINE
  8
0
 10
209.077
 20
-112.986
 11
208.987
 21
-113.216
  0
LINE
  8
0
 10
208.987
 20
-113.216
 11
208.863
 21
-113.429
  0
LINE
  8
0
 10
208.863
 20
-113.429
 11
208.71
 21
-113.622
  0
LINE
  8
0
 10
208.71
 20
-113.622
 11
208.529
 21
-113.79
  0
LINE
  8
0
 10
208.529
 20
-113.79
 11
208.325
 21
-113.929
  0
LINE
  8
0
 10
208.325
 20
-113.929
 11
208.103
 21
-114.036
  0
LINE
  8
0
 10
208.103
 20
-114.036
 11
207.867
 21
-114.109
  0
LINE
  8
0
 10
207.867
 20
-114.109
 11
207.623
 21
-114.145
  0
LINE
  8
0
 10
207.623
 20
-114.145
 11
199.377
 21
-114.145
  0
LINE
  8
0
 10
168.377
 20
-114.145
 11
168.133
 21
-114.109
  0
LINE
  8
0
 10
168.133
 20
-114.109
 11
167.897
 21
-114.036
  0
LINE
  8
0
 10
167.897
 20
-114.036
 11
167.675
 21
-113.929
  0
LINE
  8
0
 10
167.675
 20
-113.929
 11
167.471
 21
-113.79
  0
LINE
  8
0
 10
167.471
 20
-113.79
 11
167.29
 21
-113.622
  0
LINE
  8
0
 10
167.29
 20
-113.622
 11
167.137
 21
-113.429
  0
LINE
  8
0
 10
167.137
 20
-113.429
 11
167.013
 21
-113.216
  0
LINE
  8
0
 10
167.013
 20
-113.216
 11
166.923
 21
-112.986
  0
LINE
  8
0
 10
166.923
 20
-112.986
 11
166.868
 21
-112.746
  0
LINE
  8
0
 10
166.868
 20
-112.746
 11
166.85
 21
-112.5
  0
LINE
  8
0
 10
166.85
 20
-112.5
 11
166.868
 21
-112.254
  0
LINE
  8
0
 10
166.868
 20
-112.254
 11
166.923
 21
-112.014
  0
LINE
  8
0
 10
166.923
 20
-112.014
 11
167.013
 21
-111.784
  0
LINE
  8
0
 10
167.013
 20
-111.784
 11
167.137
 21
-111.571
  0
LINE
  8
0
 10
167.137
 20
-111.571
 11
167.29
 21
-111.378
  0
LINE
  8
0
 10
167.29
 20
-111.378
 11
167.471
 21
-111.21
  0
LINE
  8
0
 10
167.471
 20
-111.21
 11
167.675
 21
-111.071
  0
LINE
  8
0
 10
167.675
 20
-111.071
 11
167.897
 21
-110.964
  0
LINE
  8
0
 10
167.897
 20
-110.964
 11
168.133
 21
-110.891
  0
LINE
  8
0
 10
168.133
 20
-110.891
 11
168.377
 21
-110.855
  0
LINE
  8
0
 10
168.377
 20
-110.855
 11
176.623
 21
-110.855
  0
LINE
  8
0
 10
176.623
 20
-110.855
 11
176.867
 21
-110.891
  0
LINE
  8
0
 10
176.867
 20
-110.891
 11
177.103
 21
-110.964
  0
LINE
  8
0
 10
177.103
 20
-110.964
 11
177.325
 21
-111.071
  0
LINE
  8
0
 10
177.325
 20
-111.071
 11
177.529
 21
-111.21
  0
LINE
  8
0
 10
177.529
 20
-111.21
 11
177.71
 21
-111.378
  0
LINE
  8
0
 10
177.71
 20
-111.378
 11
177.863
 21
-111.571
  0
LINE
  8
0
 10
177.863
 20
-111.571
 11
177.987
 21
-111.784
  0
LINE
  8
0
 10
177.987
 20
-111.784
 11
178.077
 21
-112.014
  0
LINE
  8
0
 10
178.077
 20
-112.014
 11
178.132
 21
-112.254
  0
LINE
  8
0
 10
178.132
 20
-112.254
 11
178.15
 21
-112.5
  0
LINE
  8
0
 10
178.15
 20
-112.5
 11
178.132
 21
-112.746
  0
LINE
  8
0
 10
178.132
 20
-112.746
 11
178.077
 21
-112.986
  0
LINE
  8
0
 10
178.077
 20
-112.986
 11
177.987
 21
-113.216
  0
LINE
  8
0
 10
177.987
 20
-113.216
 11
177.863
 21
-113.429
  0
LINE
  8
0
 10
177.863
 20
-113.429
 11
177.71
 21
-113.622
  0
LINE
  8
0
 10
177.71
 20
-113.622
 11
177.529
 21
-113.79
  0
LINE
  8
0
 10
177.529
 20
-113.79
 11
177.325
 21
-113.929
  0
LINE
  8
0
 10
177.325
 20
-113.929
 11
177.103
 21
-114.036
  0
LINE
  8
0
 10
177.103
 20
-114.036
 11
176.867
 21
-114.109
  0
LINE
  8
0
 10
176.867
 20
-114.109
 11
176.623
 21
-114.145
  0
LINE
  8
0
 10
176.623
 20
-114.145
 11
168.377
 21
-114.145
  0
LINE
  8
0
 10
183.5
 20
-140.5
 11
182.193
 21
-140.432
  0
LINE
  8
0
 10
182.193
 20
-140.432
 11
180.901
 21
-140.227
  0
LINE
  8
0
 10
180.901
 20
-140.227
 11
179.637
 21
-139.888
  0
LINE
  8
0
 10
179.637
 20
-139.888
 11
178.416
 21
-139.419
  0
LINE
  8
0
 10
178.416
 20
-139.419
 11
177.25
 21
-138.825
  0
LINE
  8
0
 10
177.25
 20
-138.825
 11
176.153
 21
-138.113
  0
LINE
  8
0
 10
176.153
 20
-138.113
 11
175.136
 21
-137.289
  0
LINE
  8
0
 10
175.136
 20
-137.289
 11
174.211
 21
-136.364
  0
LINE
  8
0
 10
174.211
 20
-136.364
 11
173.387
 21
-135.347
  0
LINE
  8
0
 10
173.387
 20
-135.347
 11
172.675
 21
-134.25
  0
LINE
  8
0
 10
172.675
 20
-134.25
 11
172.081
 21
-133.084
  0
LINE
  8
0
 10
172.081
 20
-133.084
 11
171.612
 21
-131.863
  0
LINE
  8
0
 10
171.612
 20
-131.863
 11
171.273
 21
-130.599
  0
LINE
  8
0
 10
171.273
 20
-130.599
 11
171.068
 21
-129.307
  0
LINE
  8
0
 10
171.068
 20
-129.307
 11
171
 21
-128
  0
LINE
  8
0
 10
171
 20
-128
 11
171.068
 21
-126.693
  0
LINE
  8
0
 10
171.068
 20
-126.693
 11
171.273
 21
-125.401
  0
LINE
  8
0
 10
171.273
 20
-125.401
 11
171.612
 21
-124.137
  0
LINE
  8
0
 10
171.612
 20
-124.137
 11
172.081
 21
-122.916
  0
LINE
  8
0
 10
172.081
 20
-122.916
 11
172.675
 21
-121.75
  0
LINE
  8
0
 10
172.675
 20
-121.75
 11
173.387
 21
-120.653
  0
LINE
  8
0
 10
173.387
 20
-120.653
 11
174.211
 21
-119.636
  0
LINE
  8
0
 10
174.211
 20
-119.636
 11
175.136
 21
-118.711
  0
LINE
  8
0
 10
175.136
 20
-118.711
 11
176.153
 21
-117.887
  0
LINE
  8
0
 10
176.153
 20
-117.887
 11
177.25
 21
-117.175
  0
LINE
  8
0
 10
177.25
 20
-117.175
 11
178.416
 21
-116.581
  0
LINE
  8
0
 10
178.416
 20
-116.581
 11
179.637
 21
-116.112
  0
LINE
  8
0
 10
179.637
 20
-116.112
 11
180.901
 21
-115.773
  0
LINE
  8
0
 10
180.901
 20
-115.773
 11
182.193
 21
-115.568
  0
LINE
  8
0
 10
182.193
 20
-115.568
 11
183.5
 21
-115.5
  0
LINE
  8
0
 10
183.5
 20
-115.5
 11
191.5
 21
-115.5
  0
LINE
  8
0
 10
191.5
 20
-115.5
 11
192.807
 21
-115.568
  0
LINE
  8
0
 10
192.807
 20
-115.568
 11
194.099
 21
-115.773
  0
LINE
  8
0
 10
194.099
 20
-115.773
 11
195.363
 21
-116.112
  0
LINE
  8
0
 10
195.363
 20
-116.112
 11
196.584
 21
-116.581
  0
LINE
  8
0
 10
196.584
 20
-116.581
 11
197.75
 21
-117.175
  0
LINE
  8
0
 10
197.75
 20
-117.175
 11
198.847
 21
-117.887
  0
LINE
  8
0
 10
198.847
 20
-117.887
 11
199.864
 21
-118.711
  0
LINE
  8
0
 10
199.864
 20
-118.711
 11
200.789
 21
-119.636
  0
LINE
  8
0
 10
200.789
 20
-119.636
 11
201.613
 21
-120.653
  0
LINE
  8
0
 10
201.613
 20
-120.653
 11
202.325
 21
-121.75
  0
LINE
  8
0
 10
202.325
 20
-121.75
 11
202.919
 21
-122.916
  0
LINE
  8
0
 10
202.919
 20
-122.916
 11
203.388
 21
-124.137
  0
LINE
  8
0
 10
203.388
 20
-124.137
 11
203.727
 21
-125.401
  0
LINE
  8
0
 10
203.727
 20
-125.401
 11
203.932
 21
-126.693
  0
LINE
  8
0
 10
203.932
 20
-126.693
 11
204
 21
-128
  0
LINE
  8
0
 10
204
 20
-128
 11
203.932
 21
-129.307
  0
LINE
  8
0
 10
203.932
 20
-129.307
 11
203.727
 21
-130.599
  0
LINE
  8
0
 10
203.727
 20
-130.599
 11
203.388
 21
-131.863
  0
LINE
  8
0
 10
203.388
 20
-131.863
 11
202.919
 21
-133.084
  0
LINE
  8
0
 10
202.919
 20
-133.084
 11
202.325
 21
-134.25
  0
LINE
  8
0
 10
202.325
 20
-134.25
 11
201.613
 21
-135.347
  0
LINE
  8
0
 10
201.613
 20
-135.347
 11
200.789
 21
-136.364
  0
LINE
  8
0
 10
200.789
 20
-136.364
 11
199.864
 21
-137.289
  0
LINE
  8
0
 10
199.864
 20
-137.289
 11
198.847
 21
-138.113
  0
LINE
  8
0
 10
198.847
 20
-138.113
 11
197.75
 21
-138.825
  0
LINE
  8
0
 10
197.75
 20
-138.825
 11
196.584
 21
-139.419
  0
LINE
  8
0
 10
196.584
 20
-139.419
 11
195.363
 21
-139.888
  0
LINE
  8
0
 10
195.363
 20
-139.888
 11
194.099
 21
-140.227
  0
LINE
  8
0
 10
194.099
 20
-140.227
 11
192.807
 21
-140.432
  0
LINE
  8
0
 10
192.807
 20
-140.432
 11
191.5
 21
-140.5
  0
LINE
  8
0
 10
191.5
 20
-140.5
 11
183.5
 21
-140.5
  0
LINE
  8
0
 10
-169.744
 20
-118.226
 11
-169.978
 21
-118.155
  0
LINE
  8
0
 10
-169.978
 20
-118.155
 11
-170.194
 21
-118.039
  0
LINE
  8
0
 10
-170.194
 20
-118.039
 11
-170.384
 21
-117.884
  0
LINE
  8
0
 10
-170.384
 20
-117.884
 11
-170.539
 21
-117.694
  0
LINE
  8
0
 10
-170.539
 20
-117.694
 11
-170.655
 21
-117.478
  0
LINE
  8
0
 10
-170.655
 20
-117.478
 11
-170.726
 21
-117.244
  0
LINE
  8
0
 10
-170.726
 20
-117.244
 11
-170.75
 21
-117
  0
LINE
  8
0
 10
-170.75
 20
-117
 11
-170.726
 21
-116.756
  0
LINE
  8
0
 10
-170.726
 20
-116.756
 11
-170.655
 21
-116.522
  0
LINE
  8
0
 10
-170.655
 20
-116.522
 11
-170.539
 21
-116.306
  0
LINE
  8
0
 10
-170.539
 20
-116.306
 11
-170.384
 21
-116.116
  0
LINE
  8
0
 10
-170.384
 20
-116.116
 11
-170.194
 21
-115.961
  0
LINE
  8
0
 10
-170.194
 20
-115.961
 11
-169.978
 21
-115.845
  0
LINE
  8
0
 10
-169.978
 20
-115.845
 11
-169.744
 21
-115.774
  0
LINE
  8
0
 10
-169.744
 20
-115.774
 11
-169.5
 21
-115.75
  0
LINE
  8
0
 10
-169.5
 20
-115.75
 11
-169.256
 21
-115.774
  0
LINE
  8
0
 10
-169.256
 20
-115.774
 11
-169.022
 21
-115.845
  0
LINE
  8
0
 10
-169.022
 20
-115.845
 11
-168.806
 21
-115.961
  0
LINE
  8
0
 10
-168.806
 20
-115.961
 11
-168.616
 21
-116.116
  0
LINE
  8
0
 10
-168.616
 20
-116.116
 11
-168.461
 21
-116.306
  0
LINE
  8
0
 10
-168.461
 20
-116.306
 11
-168.345
 21
-116.522
  0
LINE
  8
0
 10
-168.345
 20
-116.522
 11
-168.274
 21
-116.756
  0
LINE
  8
0
 10
-168.274
 20
-116.756
 11
-168.25
 21
-117
  0
LINE
  8
0
 10
-168.25
 20
-117
 11
-168.274
 21
-117.244
  0
LINE
  8
0
 10
-168.274
 20
-117.244
 11
-168.345
 21
-117.478
  0
LINE
  8
0
 10
-168.345
 20
-117.478
 11
-168.461
 21
-117.694
  0
LINE
  8
0
 10
-168.461
 20
-117.694
 11
-168.616
 21
-117.884
  0
LINE
  8
0
 10
-168.616
 20
-117.884
 11
-168.806
 21
-118.039
  0
LINE
  8
0
 10
-168.806
 20
-118.039
 11
-169.022
 21
-118.155
  0
LINE
  8
0
 10
-169.022
 20
-118.155
 11
-169.256
 21
-118.226
  0
LINE
  8
0
 10
-169.256
 20
-118.226
 11
-169.5
 21
-118.25
  0
LINE
  8
0
 10
-169.5
 20
-118.25
 11
-169.744
 21
-118.226
  0
LINE
  8
0
 10
142.191
 20
-121.672
 11
141.951
 21
-121.609
  0
LINE
  8
0
 10
141.951
 20
-121.609
 11
141.723
 21
-121.512
  0
LINE
  8
0
 10
141.723
 20
-121.512
 11
141.511
 21
-121.383
  0
LINE
  8
0
 10
141.511
 20
-121.383
 11
141.32
 21
-121.224
  0
LINE
  8
0
 10
141.32
 20
-121.224
 11
141.154
 21
-121.039
  0
LINE
  8
0
 10
141.154
 20
-121.039
 11
141.018
 21
-120.832
  0
LINE
  8
0
 10
141.018
 20
-120.832
 11
140.912
 21
-120.607
  0
LINE
  8
0
 10
140.912
 20
-120.607
 11
140.841
 21
-120.37
  0
LINE
  8
0
 10
140.841
 20
-120.37
 11
140.805
 21
-120.124
  0
LINE
  8
0
 10
140.805
 20
-120.124
 11
140.805
 21
-119.876
  0
LINE
  8
0
 10
140.805
 20
-119.876
 11
140.841
 21
-119.63
  0
LINE
  8
0
 10
140.841
 20
-119.63
 11
140.912
 21
-119.393
  0
LINE
  8
0
 10
140.912
 20
-119.393
 11
141.018
 21
-119.168
  0
LINE
  8
0
 10
141.018
 20
-119.168
 11
141.154
 21
-118.961
  0
LINE
  8
0
 10
141.154
 20
-118.961
 11
141.32
 21
-118.776
  0
LINE
  8
0
 10
141.32
 20
-118.776
 11
141.511
 21
-118.617
  0
LINE
  8
0
 10
141.511
 20
-118.617
 11
141.723
 21
-118.488
  0
LINE
  8
0
 10
141.723
 20
-118.488
 11
141.951
 21
-118.391
  0
LINE
  8
0
 10
141.951
 20
-118.391
 11
142.191
 21
-118.328
  0
LINE
  8
0
 10
142.191
 20
-118.328
 11
142.438
 21
-118.301
  0
LINE
  8
0
 10
142.438
 20
-118.301
 11
142.686
 21
-118.31
  0
LINE
  8
0
 10
142.686
 20
-118.31
 11
142.93
 21
-118.355
  0
LINE
  8
0
 10
142.93
 20
-118.355
 11
143.165
 21
-118.435
  0
LINE
  8
0
 10
143.165
 20
-118.435
 11
143.386
 21
-118.549
  0
LINE
  8
0
 10
143.386
 20
-118.549
 11
143.587
 21
-118.693
  0
LINE
  8
0
 10
143.587
 20
-118.693
 11
143.766
 21
-118.866
  0
LINE
  8
0
 10
143.766
 20
-118.866
 11
143.918
 21
-119.062
  0
LINE
  8
0
 10
143.918
 20
-119.062
 11
144.039
 21
-119.278
  0
LINE
  8
0
 10
144.039
 20
-119.278
 11
144.128
 21
-119.51
  0
LINE
  8
0
 10
144.128
 20
-119.51
 11
144.182
 21
-119.752
  0
LINE
  8
0
 10
144.182
 20
-119.752
 11
144.2
 21
-120
  0
LINE
  8
0
 10
144.2
 20
-120
 11
144.182
 21
-120.248
  0
LINE
  8
0
 10
144.182
 20
-120.248
 11
144.128
 21
-120.49
  0
LINE
  8
0
 10
144.128
 20
-120.49
 11
144.039
 21
-120.722
  0
LINE
  8
0
 10
144.039
 20
-120.722
 11
143.918
 21
-120.938
  0
LINE
  8
0
 10
143.918
 20
-120.938
 11
143.766
 21
-121.134
  0
LINE
  8
0
 10
143.766
 20
-121.134
 11
143.587
 21
-121.307
  0
LINE
  8
0
 10
143.587
 20
-121.307
 11
143.386
 21
-121.451
  0
LINE
  8
0
 10
143.386
 20
-121.451
 11
143.165
 21
-121.565
  0
LINE
  8
0
 10
143.165
 20
-121.565
 11
142.93
 21
-121.645
  0
LINE
  8
0
 10
142.93
 20
-121.645
 11
142.686
 21
-121.69
  0
LINE
  8
0
 10
142.686
 20
-121.69
 11
142.438
 21
-121.699
  0
LINE
  8
0
 10
142.438
 20
-121.699
 11
142.191
 21
-121.672
  0
LINE
  8
0
 10
-142.686
 20
-121.69
 11
-142.93
 21
-121.645
  0
LINE
  8
0
 10
-142.93
 20
-121.645
 11
-143.165
 21
-121.565
  0
LINE
  8
0
 10
-143.165
 20
-121.565
 11
-143.386
 21
-121.451
  0
LINE
  8
0
 10
-143.386
 20
-121.451
 11
-143.587
 21
-121.307
  0
LINE
  8
0
 10
-143.587
 20
-121.307
 11
-143.766
 21
-121.134
  0
LINE
  8
0
 10
-143.766
 20
-121.134
 11
-143.918
 21
-120.938
  0
LINE
  8
0
 10
-143.918
 20
-120.938
 11
-144.039
 21
-120.722
  0
LINE
  8
0
 10
-144.039
 20
-120.722
 11
-144.128
 21
-120.49
  0
LINE
  8
0
 10
-144.128
 20
-120.49
 11
-144.182
 21
-120.248
  0
LINE
  8
0
 10
-144.182
 20
-120.248
 11
-144.2
 21
-120
  0
LINE
  8
0
 10
-144.2
 20
-120
 11
-144.182
 21
-119.752
  0
LINE
  8
0
 10
-144.182
 20
-119.752
 11
-144.128
 21
-119.51
  0
LINE
  8
0
 10
-144.128
 20
-119.51
 11
-144.039
 21
-119.278
  0
LINE
  8
0
 10
-144.039
 20
-119.278
 11
-143.918
 21
-119.062
  0
LINE
  8
0
 10
-143.918
 20
-119.062
 11
-143.766
 21
-118.866
  0
LINE
  8
0
 10
-143.766
 20
-118.866
 11
-143.587
 21
-118.693
  0
LINE
  8
0
 10
-143.587
 20
-118.693
 11
-143.386
 21
-118.549
  0
LINE
  8
0
 10
-143.386
 20
-118.549
 11
-143.165
 21
-118.435
  0
LINE
  8
0
 10
-143.165
 20
-118.435
 11
-142.93
 21
-118.355
  0
LINE
  8
0
 10
-142.93
 20
-118.355
 11
-142.686
 21
-118.31
  0
LINE
  8
0
 10
-142.686
 20
-118.31
 11
-142.438
 21
-118.301
  0
LINE
  8
0
 10
-142.438
 20
-118.301
 11
-142.191
 21
-118.328
  0
LINE
  8
0
 10
-142.191
 20
-118.328
 11
-141.951
 21
-118.391
  0
LINE
  8
0
 10
-141.951
 20
-118.391
 11
-141.723
 21
-118.488
  0
LINE
  8
0
 10
-141.723
 20
-118.488
 11
-141.511
 21
-118.617
  0
LINE
  8
0
 10
-141.511
 20
-118.617
 11
-141.32
 21
-118.776
  0
LINE
  8
0
 10
-141.32
 20
-118.776
 11
-141.154
 21
-118.961
  0
LINE
  8
0
 10
-141.154
 20
-118.961
 11
-141.018
 21
-119.168
  0
LINE
  8
0
 10
-141.018
 20
-119.168
 11
-140.912
 21
-119.393
  0
LINE
  8
0
 10
-140.912
 20
-119.393
 11
-140.841
 21
-119.63
  0
LINE
  8
0
 10
-140.841
 20
-119.63
 11
-140.805
 21
-119.876
  0
LINE
  8
0
 10
-140.805
 20
-119.876
 11
-140.805
 21
-120.124
  0
LINE
  8
0
 10
-140.805
 20
-120.124
 11
-140.841
 21
-120.37
  0
LINE
  8
0
 10
-140.841
 20
-120.37
 11
-140.912
 21
-120.607
  0
LINE
  8
0
 10
-140.912
 20
-120.607
 11
-141.018
 21
-120.832
  0
LINE
  8
0
 10
-141.018
 20
-120.832
 11
-141.154
 21
-121.039
  0
LINE
  8
0
 10
-141.154
 20
-121.039
 11
-141.32
 21
-121.224
  0
LINE
  8
0
 10
-141.32
 20
-121.224
 11
-141.511
 21
-121.383
  0
LINE
  8
0
 10
-141.511
 20
-121.383
 11
-141.723
 21
-121.512
  0
LINE
  8
0
 10
-141.723
 20
-121.512
 11
-141.951
 21
-121.609
  0
LINE
  8
0
 10
-141.951
 20
-121.609
 11
-142.191
 21
-121.672
  0
LINE
  8
0
 10
-142.191
 20
-121.672
 11
-142.438
 21
-121.699
  0
LINE
  8
0
 10
-142.438
 20
-121.699
 11
-142.686
 21
-121.69
  0
LINE
  8
0
 10
-190.244
 20
-129.226
 11
-190.478
 21
-129.155
  0
LINE
  8
0
 10
-190.478
 20
-129.155
 11
-190.694
 21
-129.039
  0
LINE
  8
0
 10
-190.694
 20
-129.039
 11
-190.884
 21
-128.884
  0
LINE
  8
0
 10
-190.884
 20
-128.884
 11
-191.039
 21
-128.694
  0
LINE
  8
0
 10
-191.039
 20
-128.694
 11
-191.155
 21
-128.478
  0
LINE
  8
0
 10
-191.155
 20
-128.478
 11
-191.226
 21
-128.244
  0
LINE
  8
0
 10
-191.226
 20
-128.244
 11
-191.25
 21
-128
  0
LINE
  8
0
 10
-191.25
 20
-128
 11
-191.226
 21
-127.756
  0
LINE
  8
0
 10
-191.226
 20
-127.756
 11
-191.155
 21
-127.522
  0
LINE
  8
0
 10
-191.155
 20
-127.522
 11
-191.039
 21
-127.306
  0
LINE
  8
0
 10
-191.039
 20
-127.306
 11
-190.884
 21
-127.116
  0
LINE
  8
0
 10
-190.884
 20
-127.116
 11
-190.694
 21
-126.961
  0
LINE
  8
0
 10
-190.694
 20
-126.961
 11
-190.478
 21
-126.845
  0
LINE
  8
0
 10
-190.478
 20
-126.845
 11
-190.244
 21
-126.774
  0
LINE
  8
0
 10
-190.244
 20
-126.774
 11
-190
 21
-126.75
  0
LINE
  8
0
 10
-190
 20
-126.75
 11
-189.756
 21
-126.774
  0
LINE
  8
0
 10
-189.756
 20
-126.774
 11
-189.522
 21
-126.845
  0
LINE
  8
0
 10
-189.522
 20
-126.845
 11
-189.306
 21
-126.961
  0
LINE
  8
0
 10
-189.306
 20
-126.961
 11
-189.116
 21
-127.116
  0
LINE
  8
0
 10
-189.116
 20
-127.116
 11
-188.961
 21
-127.306
  0
LINE
  8
0
 10
-188.961
 20
-127.306
 11
-188.845
 21
-127.522
  0
LINE
  8
0
 10
-188.845
 20
-127.522
 11
-188.774
 21
-127.756
  0
LINE
  8
0
 10
-188.774
 20
-127.756
 11
-188.75
 21
-128
  0
LINE
  8
0
 10
-188.75
 20
-128
 11
-188.774
 21
-128.244
  0
LINE
  8
0
 10
-188.774
 20
-128.244
 11
-188.845
 21
-128.478
  0
LINE
  8
0
 10
-188.845
 20
-128.478
 11
-188.961
 21
-128.694
  0
LINE
  8
0
 10
-188.961
 20
-128.694
 11
-189.116
 21
-128.884
  0
LINE
  8
0
 10
-189.116
 20
-128.884
 11
-189.306
 21
-129.039
  0
LINE
  8
0
 10
-189.306
 20
-129.039
 11
-189.522
 21
-129.155
  0
LINE
  8
0
 10
-189.522
 20
-129.155
 11
-189.756
 21
-129.226
  0
LINE
  8
0
 10
-189.756
 20
-129.226
 11
-190
 21
-129.25
  0
LINE
  8
0
 10
-190
 20
-129.25
 11
-190.244
 21
-129.226
  0
LINE
  8
0
 10
142.108
 20
-146.229
 11
141.72
 21
-146.168
  0
LINE
  8
0
 10
141.72
 20
-146.168
 11
141.341
 21
-146.066
  0
LINE
  8
0
 10
141.341
 20
-146.066
 11
140.975
 21
-145.926
  0
LINE
  8
0
 10
140.975
 20
-145.926
 11
140.625
 21
-145.748
  0
LINE
  8
0
 10
140.625
 20
-145.748
 11
140.296
 21
-145.534
  0
LINE
  8
0
 10
140.296
 20
-145.534
 11
139.991
 21
-145.287
  0
LINE
  8
0
 10
139.991
 20
-145.287
 11
139.713
 21
-145.009
  0
LINE
  8
0
 10
139.713
 20
-145.009
 11
139.466
 21
-144.704
  0
LINE
  8
0
 10
139.466
 20
-144.704
 11
139.252
 21
-144.375
  0
LINE
  8
0
 10
139.252
 20
-144.375
 11
139.074
 21
-144.025
  0
LINE
  8
0
 10
139.074
 20
-144.025
 11
138.934
 21
-143.659
  0
LINE
  8
0
 10
138.934
 20
-143.659
 11
138.832
 21
-143.28
  0
LINE
  8
0
 10
138.832
 20
-143.28
 11
138.771
 21
-142.892
  0
LINE
  8
0
 10
138.771
 20
-142.892
 11
138.75
 21
-142.5
  0
LINE
  8
0
 10
138.75
 20
-142.5
 11
138.771
 21
-142.108
  0
LINE
  8
0
 10
138.771
 20
-142.108
 11
138.832
 21
-141.72
  0
LINE
  8
0
 10
138.832
 20
-141.72
 11
138.934
 21
-141.341
  0
LINE
  8
0
 10
138.934
 20
-141.341
 11
139.074
 21
-140.975
  0
LINE
  8
0
 10
139.074
 20
-140.975
 11
139.252
 21
-140.625
  0
LINE
  8
0
 10
139.252
 20
-140.625
 11
139.466
 21
-140.296
  0
LINE
  8
0
 10
139.466
 20
-140.296
 11
139.713
 21
-139.991
  0
LINE
  8
0
 10
139.713
 20
-139.991
 11
139.991
 21
-139.713
  0
LINE
  8
0
 10
139.991
 20
-139.713
 11
140.296
 21
-139.466
  0
LINE
  8
0
 10
140.296
 20
-139.466
 11
140.625
 21
-139.252
  0
LINE
  8
0
 10
140.625
 20
-139.252
 11
140.975
 21
-139.074
  0
LINE
  8
0
 10
140.975
 20
-139.074
 11
141.341
 21
-138.934
  0
LINE
  8
0
 10
141.341
 20
-138.934
 11
141.72
 21
-138.832
  0
LINE
  8
0
 10
141.72
 20
-138.832
 11
142.108
 21
-138.771
  0
LINE
  8
0
 10
142.108
 20
-138.771
 11
142.5
 21
-138.75
  0
LINE
  8
0
 10
142.5
 20
-138.75
 11
142.892
 21
-138.771
  0
LINE
  8
0
 10
142.892
 20
-138.771
 11
143.28
 21
-138.832
  0
LINE
  8
0
 10
143.28
 20
-138.832
 11
143.659
 21
-138.934
  0
LINE
  8
0
 10
143.659
 20
-138.934
 11
144.025
 21
-139.074
  0
LINE
  8
0
 10
144.025
 20
-139.074
 11
144.375
 21
-139.252
  0
LINE
  8
0
 10
144.375
 20
-139.252
 11
144.704
 21
-139.466
  0
LINE
  8
0
 10
144.704
 20
-139.466
 11
145.009
 21
-139.713
  0
LINE
  8
0
 10
145.009
 20
-139.713
 11
145.287
 21
-139.991
  0
LINE
  8
0
 10
145.287
 20
-139.991
 11
145.534
 21
-140.296
  0
LINE
  8
0
 10
145.534
 20
-140.296
 11
145.748
 21
-140.625
  0
LINE
  8
0
 10
145.748
 20
-140.625
 11
145.926
 21
-140.975
  0
LINE
  8
0
 10
145.926
 20
-140.975
 11
146.066
 21
-141.341
  0
LINE
  8
0
 10
146.066
 20
-141.341
 11
146.168
 21
-141.72
  0
LINE
  8
0
 10
146.168
 20
-141.72
 11
146.229
 21
-142.108
  0
LINE
  8
0
 10
146.229
 20
-142.108
 11
146.25
 21
-142.5
  0
LINE
  8
0
 10
146.25
 20
-142.5
 11
146.229
 21
-142.892
  0
LINE
  8
0
 10
146.229
 20
-142.892
 11
146.168
 21
-143.28
  0
LINE
  8
0
 10
146.168
 20
-143.28
 11
146.066
 21
-143.659
  0
LINE
  8
0
 10
146.066
 20
-143.659
 11
145.926
 21
-144.025
  0
LINE
  8
0
 10
145.926
 20
-144.025
 11
145.748
 21
-144.375
  0
LINE
  8
0
 10
145.748
 20
-144.375
 11
145.534
 21
-144.704
  0
LINE
  8
0
 10
145.534
 20
-144.704
 11
145.287
 21
-145.009
  0
LINE
  8
0
 10
145.287
 20
-145.009
 11
145.009
 21
-145.287
  0
LINE
  8
0
 10
145.009
 20
-145.287
 11
144.704
 21
-145.534
  0
LINE
  8
0
 10
144.704
 20
-145.534
 11
144.375
 21
-145.748
  0
LINE
  8
0
 10
144.375
 20
-145.748
 11
144.025
 21
-145.926
  0
LINE
  8
0
 10
144.025
 20
-145.926
 11
143.659
 21
-146.066
  0
LINE
  8
0
 10
143.659
 20
-146.066
 11
143.28
 21
-146.168
  0
LINE
  8
0
 10
143.28
 20
-146.168
 11
142.892
 21
-146.229
  0
LINE
  8
0
 10
142.892
 20
-146.229
 11
142.5
 21
-146.25
  0
LINE
  8
0
 10
142.5
 20
-146.25
 11
142.108
 21
-146.229
  0
LINE
  8
0
 10
-142.892
 20
-146.229
 11
-143.28
 21
-146.168
  0
LINE
  8
0
 10
-143.28
 20
-146.168
 11
-143.659
 21
-146.066
  0
LINE
  8
0
 10
-143.659
 20
-146.066
 11
-144.025
 21
-145.926
  0
LINE
  8
0
 10
-144.025
 20
-145.926
 11
-144.375
 21
-145.748
  0
LINE
  8
0
 10
-144.375
 20
-145.748
 11
-144.704
 21
-145.534
  0
LINE
  8
0
 10
-144.704
 20
-145.534
 11
-145.009
 21
-145.287
  0
LINE
  8
0
 10
-145.009
 20
-145.287
 11
-145.287
 21
-145.009
  0
LINE
  8
0
 10
-145.287
 20
-145.009
 11
-145.534
 21
-144.704
  0
LINE
  8
0
 10
-145.534
 20
-144.704
 11
-145.748
 21
-144.375
  0
LINE
  8
0
 10
-145.748
 20
-144.375
 11
-145.926
 21
-144.025
  0
LINE
  8
0
 10
-145.926
 20
-144.025
 11
-146.066
 21
-143.659
  0
LINE
  8
0
 10
-146.066
 20
-143.659
 11
-146.168
 21
-143.28
  0
LINE
  8
0
 10
-146.168
 20
-143.28
 11
-146.229
 21
-142.892
  0
LINE
  8
0
 10
-146.229
 20
-142.892
 11
-146.25
 21
-142.5
  0
LINE
  8
0
 10
-146.25
 20
-142.5
 11
-146.229
 21
-142.108
  0
LINE
  8
0
 10
-146.229
 20
-142.108
 11
-146.168
 21
-141.72
  0
LINE
  8
0
 10
-146.168
 20
-141.72
 11
-146.066
 21
-141.341
  0
LINE
  8
0
 10
-146.066
 20
-141.341
 11
-145.926
 21
-140.975
  0
LINE
  8
0
 10
-145.926
 20
-140.975
 11
-145.748
 21
-140.625
  0
LINE
  8
0
 10
-145.748
 20
-140.625
 11
-145.534
 21
-140.296
  0
LINE
  8
0
 10
-145.534
 20
-140.296
 11
-145.287
 21
-139.991
  0
LINE
  8
0
 10
-145.287
 20
-139.991
 11
-145.009
 21
-139.713
  0
LINE
  8
0
 10
-145.009
 20
-139.713
 11
-144.704
 21
-139.466
  0
LINE
  8
0
 10
-144.704
 20
-139.466
 11
-144.375
 21
-139.252
  0
LINE
  8
0
 10
-144.375
 20
-139.252
 11
-144.025
 21
-139.074
  0
LINE
  8
0
 10
-144.025
 20
-139.074
 11
-143.659
 21
-138.934
  0
LINE
  8
0
 10
-143.659
 20
-138.934
 11
-143.28
 21
-138.832
  0
LINE
  8
0
 10
-143.28
 20
-138.832
 11
-142.892
 21
-138.771
  0
LINE
  8
0
 10
-142.892
 20
-138.771
 11
-142.5
 21
-138.75
  0
LINE
  8
0
 10
-142.5
 20
-138.75
 11
-142.108
 21
-138.771
  0
LINE
  8
0
 10
-142.108
 20
-138.771
 11
-141.72
 21
-138.832
  0
LINE
  8
0
 10
-141.72
 20
-138.832
 11
-141.341
 21
-138.934
  0
LINE
  8
0
 10
-141.341
 20
-138.934
 11
-140.975
 21
-139.074
  0
LINE
  8
0
 10
-140.975
 20
-139.074
 11
-140.625
 21
-139.252
  0
LINE
  8
0
 10
-140.625
 20
-139.252
 11
-140.296
 21
-139.466
  0
LINE
  8
0
 10
-140.296
 20
-139.466
 11
-139.991
 21
-139.713
  0
LINE
  8
0
 10
-139.991
 20
-139.713
 11
-139.713
 21
-139.991
  0
LINE
  8
0
 10
-139.713
 20
-139.991
 11
-139.466
 21
-140.296
  0
LINE
  8
0
 10
-139.466
 20
-140.296
 11
-139.252
 21
-140.625
  0
LINE
  8
0
 10
-139.252
 20
-140.625
 11
-139.074
 21
-140.975
  0
LINE
  8
0
 10
-139.074
 20
-140.975
 11
-138.934
 21
-141.341
  0
LINE
  8
0
 10
-138.934
 20
-141.341
 11
-138.832
 21
-141.72
  0
LINE
  8
0
 10
-138.832
 20
-141.72
 11
-138.771
 21
-142.108
  0
LINE
  8
0
 10
-138.771
 20
-142.108
 11
-138.75
 21
-142.5
  0
LINE
  8
0
 10
-138.75
 20
-142.5
 11
-138.771
 21
-142.892
  0
LINE
  8
0
 10
-138.771
 20
-142.892
 11
-138.832
 21
-143.28
  0
LINE
  8
0
 10
-138.832
 20
-143.28
 11
-138.934
 21
-143.659
  0
LINE
  8
0
 10
-138.934
 20
-143.659
 11
-139.074
 21
-144.025
  0
LINE
  8
0
 10
-139.074
 20
-144.025
 11
-139.252
 21
-144.375
  0
LINE
  8
0
 10
-139.252
 20
-144.375
 11
-139.466
 21
-144.704
  0
LINE
  8
0
 10
-139.466
 20
-144.704
 11
-139.713
 21
-145.009
  0
LINE
  8
0
 10
-139.713
 20
-145.009
 11
-139.991
 21
-145.287
  0
LINE
  8
0
 10
-139.991
 20
-145.287
 11
-140.296
 21
-145.534
  0
LINE
  8
0
 10
-140.296
 20
-145.534
 11
-140.625
 21
-145.748
  0
LINE
  8
0
 10
-140.625
 20
-145.748
 11
-140.975
 21
-145.926
  0
LINE
  8
0
 10
-140.975
 20
-145.926
 11
-141.341
 21
-146.066
  0
LINE
  8
0
 10
-141.341
 20
-146.066
 11
-141.72
 21
-146.168
  0
LINE
  8
0
 10
-141.72
 20
-146.168
 11
-142.108
 21
-146.229
  0
LINE
  8
0
 10
-142.108
 20
-146.229
 11
-142.5
 21
-146.25
  0
LINE
  8
0
 10
-142.5
 20
-146.25
 11
-142.892
 21
-146.229
  0
LINE
  8
0
 10
40.8333
 20
-144.25
 11
40.5843
 21
-144.232
  0
LINE
  8
0
 10
40.5843
 20
-144.232
 11
40.3403
 21
-144.179
  0
LINE
  8
0
 10
40.3403
 20
-144.179
 11
40.1064
 21
-144.092
  0
LINE
  8
0
 10
40.1064
 20
-144.092
 11
39.8872
 21
-143.972
  0
LINE
  8
0
 10
39.8872
 20
-143.972
 11
39.6873
 21
-143.823
  0
LINE
  8
0
 10
39.6873
 20
-143.823
 11
39.5108
 21
-143.646
  0
LINE
  8
0
 10
39.5108
 20
-143.646
 11
39.3611
 21
-143.446
  0
LINE
  8
0
 10
39.3611
 20
-143.446
 11
39.2415
 21
-143.227
  0
LINE
  8
0
 10
39.2415
 20
-143.227
 11
39.1542
 21
-142.993
  0
LINE
  8
0
 10
39.1542
 20
-142.993
 11
39.1011
 21
-142.749
  0
LINE
  8
0
 10
39.1011
 20
-142.749
 11
39.0833
 21
-142.5
  0
LINE
  8
0
 10
39.0833
 20
-142.5
 11
39.1011
 21
-142.251
  0
LINE
  8
0
 10
39.1011
 20
-142.251
 11
39.1542
 21
-142.007
  0
LINE
  8
0
 10
39.1542
 20
-142.007
 11
39.2415
 21
-141.773
  0
LINE
  8
0
 10
39.2415
 20
-141.773
 11
39.3611
 21
-141.554
  0
LINE
  8
0
 10
39.3611
 20
-141.554
 11
39.5108
 21
-141.354
  0
LINE
  8
0
 10
39.5108
 20
-141.354
 11
39.6873
 21
-141.177
  0
LINE
  8
0
 10
39.6873
 20
-141.177
 11
39.8872
 21
-141.028
  0
LINE
  8
0
 10
39.8872
 20
-141.028
 11
40.1064
 21
-140.908
  0
LINE
  8
0
 10
40.1064
 20
-140.908
 11
40.3403
 21
-140.821
  0
LINE
  8
0
 10
40.3403
 20
-140.821
 11
40.5843
 21
-140.768
  0
LINE
  8
0
 10
40.5843
 20
-140.768
 11
40.8333
 21
-140.75
  0
LINE
  8
0
 10
40.8333
 20
-140.75
 11
97.5
 21
-140.75
  0
LINE
  8
0
 10
97.5
 20
-140.75
 11
97.7491
 21
-140.768
  0
LINE
  8
0
 10
97.7491
 20
-140.768
 11
97.993
 21
-140.821
  0
LINE
  8
0
 10
97.993
 20
-140.821
 11
98.227
 21
-140.908
  0
LINE
  8
0
 10
98.227
 20
-140.908
 11
98.4461
 21
-141.028
  0
LINE
  8
0
 10
98.4461
 20
-141.028
 11
98.646
 21
-141.177
  0
LINE
  8
0
 10
98.646
 20
-141.177
 11
98.8226
 21
-141.354
  0
LINE
  8
0
 10
98.8226
 20
-141.354
 11
98.9722
 21
-141.554
  0
LINE
  8
0
 10
98.9722
 20
-141.554
 11
99.0919
 21
-141.773
  0
LINE
  8
0
 10
99.0919
 20
-141.773
 11
99.1791
 21
-142.007
  0
LINE
  8
0
 10
99.1791
 20
-142.007
 11
99.2322
 21
-142.251
  0
LINE
  8
0
 10
99.2322
 20
-142.251
 11
99.25
 21
-142.5
  0
LINE
  8
0
 10
99.25
 20
-142.5
 11
99.2322
 21
-142.749
  0
LINE
  8
0
 10
99.2322
 20
-142.749
 11
99.1791
 21
-142.993
  0
LINE
  8
0
 10
99.1791
 20
-142.993
 11
99.0919
 21
-143.227
  0
LINE
  8
0
 10
99.0919
 20
-143.227
 11
98.9722
 21
-143.446
  0
LINE
  8
0
 10
98.9722
 20
-143.446
 11
98.8226
 21
-143.646
  0
LINE
  8
0
 10
98.8226
 20
-143.646
 11
98.646
 21
-143.823
  0
LINE
  8
0
 10
98.646
 20
-143.823
 11
98.4461
 21
-143.972
  0
LINE
  8
0
 10
98.4461
 20
-143.972
 11
98.227
 21
-144.092
  0
LINE
  8
0
 10
98.227
 20
-144.092
 11
97.993
 21
-144.179
  0
LINE
  8
0
 10
97.993
 20
-144.179
 11
97.7491
 21
-144.232
  0
LINE
  8
0
 10
97.7491
 20
-144.232
 11
97.5
 21
-144.25
  0
LINE
  8
0
 10
97.5
 20
-144.25
 11
40.8333
 21
-144.25
  0
LINE
  8
0
 10
-25.8333
 20
-144.25
 11
-26.0824
 21
-144.232
  0
LINE
  8
0
 10
-26.0824
 20
-144.232
 11
-26.3264
 21
-144.179
  0
LINE
  8
0
 10
-26.3264
 20
-144.179
 11
-26.5603
 21
-144.092
  0
LINE
  8
0
 10
-26.5603
 20
-144.092
 11
-26.7794
 21
-143.972
  0
LINE
  8
0
 10
-26.7794
 20
-143.972
 11
-26.9793
 21
-143.823
  0
LINE
  8
0
 10
-26.9793
 20
-143.823
 11
-27.1559
 21
-143.646
  0
LINE
  8
0
 10
-27.1559
 20
-143.646
 11
-27.3055
 21
-143.446
  0
LINE
  8
0
 10
-27.3055
 20
-143.446
 11
-27.4252
 21
-143.227
  0
LINE
  8
0
 10
-27.4252
 20
-143.227
 11
-27.5124
 21
-142.993
  0
LINE
  8
0
 10
-27.5124
 20
-142.993
 11
-27.5655
 21
-142.749
  0
LINE
  8
0
 10
-27.5655
 20
-142.749
 11
-27.5833
 21
-142.5
  0
LINE
  8
0
 10
-27.5833
 20
-142.5
 11
-27.5655
 21
-142.251
  0
LINE
  8
0
 10
-27.5655
 20
-142.251
 11
-27.5124
 21
-142.007
  0
LINE
  8
0
 10
-27.5124
 20
-142.007
 11
-27.4252
 21
-141.773
  0
LINE
  8
0
 10
-27.4252
 20
-141.773
 11
-27.3055
 21
-141.554
  0
LINE
  8
0
 10
-27.3055
 20
-141.554
 11
-27.1559
 21
-141.354
  0
LINE
  8
0
 10
-27.1559
 20
-141.354
 11
-26.9793
 21
-141.177
  0
LINE
  8
0
 10
-26.9793
 20
-141.177
 11
-26.7794
 21
-141.028
  0
LINE
  8
0
 10
-26.7794
 20
-141.028
 11
-26.5603
 21
-140.908
  0
LINE
  8
0
 10
-26.5603
 20
-140.908
 11
-26.3264
 21
-140.821
  0
LINE
  8
0
 10
-26.3264
 20
-140.821
 11
-26.0824
 21
-140.768
  0
LINE
  8
0
 10
-26.0824
 20
-140.768
 11
-25.8333
 21
-140.75
  0
LINE
  8
0
 10
-25.8333
 20
-140.75
 11
30.8333
 21
-140.75
  0
LINE
  8
0
 10
30.8333
 20
-140.75
 11
31.0824
 21
-140.768
  0
LINE
  8
0
 10
31.0824
 20
-140.768
 11
31.3264
 21
-140.821
  0
LINE
  8
0
 10
31.3264
 20
-140.821
 11
31.5603
 21
-140.908
  0
LINE
  8
0
 10
31.5603
 20
-140.908
 11
31.7794
 21
-141.028
  0
LINE
  8
0
 10
31.7794
 20
-141.028
 11
31.9793
 21
-141.177
  0
LINE
  8
0
 10
31.9793
 20
-141.177
 11
32.1559
 21
-141.354
  0
LINE
  8
0
 10
32.1559
 20
-141.354
 11
32.3055
 21
-141.554
  0
LINE
  8
0
 10
32.3055
 20
-141.554
 11
32.4252
 21
-141.773
  0
LINE
  8
0
 10
32.4252
 20
-141.773
 11
32.5124
 21
-142.007
  0
LINE
  8
0
 10
32.5124
 20
-142.007
 11
32.5655
 21
-142.251
  0
LINE
  8
0
 10
32.5655
 20
-142.251
 11
32.5833
 21
-142.5
  0
LINE
  8
0
 10
32.5833
 20
-142.5
 11
32.5655
 21
-142.749
  0
LINE
  8
0
 10
32.5655
 20
-142.749
 11
32.5124
 21
-142.993
  0
LINE
  8
0
 10
32.5124
 20
-142.993
 11
32.4252
 21
-143.227
  0
LINE
  8
0
 10
32.4252
 20
-143.227
 11
32.3055
 21
-143.446
  0
LINE
  8
0
 10
32.3055
 20
-143.446
 11
32.1559
 21
-143.646
  0
LINE
  8
0
 10
32.1559
 20
-143.646
 11
31.9793
 21
-143.823
  0
LINE
  8
0
 10
31.9793
 20
-143.823
 11
31.7794
 21
-143.972
  0
LINE
  8
0
 10
31.7794
 20
-143.972
 11
31.5603
 21
-144.092
  0
LINE
  8
0
 10
31.5603
 20
-144.092
 11
31.3264
 21
-144.179
  0
LINE
  8
0
 10
31.3264
 20
-144.179
 11
31.0824
 21
-144.232
  0
LINE
  8
0
 10
31.0824
 20
-144.232
 11
30.8333
 21
-144.25
  0
LINE
  8
0
 10
30.8333
 20
-144.25
 11
-25.8333
 21
-144.25
  0
LINE
  8
0
 10
-92.5
 20
-144.25
 11
-92.7491
 21
-144.232
  0
LINE
  8
0
 10
-92.7491
 20
-144.232
 11
-92.993
 21
-144.179
  0
LINE
  8
0
 10
-92.993
 20
-144.179
 11
-93.227
 21
-144.092
  0
LINE
  8
0
 10
-93.227
 20
-144.092
 11
-93.4461
 21
-143.972
  0
LINE
  8
0
 10
-93.4461
 20
-143.972
 11
-93.646
 21
-143.823
  0
LINE
  8
0
 10
-93.646
 20
-143.823
 11
-93.8226
 21
-143.646
  0
LINE
  8
0
 10
-93.8226
 20
-143.646
 11
-93.9722
 21
-143.446
  0
LINE
  8
0
 10
-93.9722
 20
-143.446
 11
-94.0919
 21
-143.227
  0
LINE
  8
0
 10
-94.0919
 20
-143.227
 11
-94.1791
 21
-142.993
  0
LINE
  8
0
 10
-94.1791
 20
-142.993
 11
-94.2322
 21
-142.749
  0
LINE
  8
0
 10
-94.2322
 20
-142.749
 11
-94.25
 21
-142.5
  0
LINE
  8
0
 10
-94.25
 20
-142.5
 11
-94.2322
 21
-142.251
  0
LINE
  8
0
 10
-94.2322
 20
-142.251
 11
-94.1791
 21
-142.007
  0
LINE
  8
0
 10
-94.1791
 20
-142.007
 11
-94.0919
 21
-141.773
  0
LINE
  8
0
 10
-94.0919
 20
-141.773
 11
-93.9722
 21
-141.554
  0
LINE
  8
0
 10
-93.9722
 20
-141.554
 11
-93.8226
 21
-141.354
  0
LINE
  8
0
 10
-93.8226
 20
-141.354
 11
-93.646
 21
-141.177
  0
LINE
  8
0
 10
-93.646
 20
-141.177
 11
-93.4461
 21
-141.028
  0
LINE
  8
0
 10
-93.4461
 20
-141.028
 11
-93.227
 21
-140.908
  0
LINE
  8
0
 10
-93.227
 20
-140.908
 11
-92.993
 21
-140.821
  0
LINE
  8
0
 10
-92.993
 20
-140.821
 11
-92.7491
 21
-140.768
  0
LINE
  8
0
 10
-92.7491
 20
-140.768
 11
-92.5
 21
-140.75
  0
LINE
  8
0
 10
-92.5
 20
-140.75
 11
-35.8333
 21
-140.75
  0
LINE
  8
0
 10
-35.8333
 20
-140.75
 11
-35.5843
 21
-140.768
  0
LINE
  8
0
 10
-35.5843
 20
-140.768
 11
-35.3403
 21
-140.821
  0
LINE
  8
0
 10
-35.3403
 20
-140.821
 11
-35.1064
 21
-140.908
  0
LINE
  8
0
 10
-35.1064
 20
-140.908
 11
-34.8872
 21
-141.028
  0
LINE
  8
0
 10
-34.8872
 20
-141.028
 11
-34.6873
 21
-141.177
  0
LINE
  8
0
 10
-34.6873
 20
-141.177
 11
-34.5108
 21
-141.354
  0
LINE
  8
0
 10
-34.5108
 20
-141.354
 11
-34.3611
 21
-141.554
  0
LINE
  8
0
 10
-34.3611
 20
-141.554
 11
-34.2415
 21
-141.773
  0
LINE
  8
0
 10
-34.2415
 20
-141.773
 11
-34.1542
 21
-142.007
  0
LINE
  8
0
 10
-34.1542
 20
-142.007
 11
-34.1011
 21
-142.251
  0
LINE
  8
0
 10
-34.1011
 20
-142.251
 11
-34.0833
 21
-142.5
  0
LINE
  8
0
 10
-34.0833
 20
-142.5
 11
-34.1011
 21
-142.749
  0
LINE
  8
0
 10
-34.1011
 20
-142.749
 11
-34.1542
 21
-142.993
  0
LINE
  8
0
 10
-34.1542
 20
-142.993
 11
-34.2415
 21
-143.227
  0
LINE
  8
0
 10
-34.2415
 20
-143.227
 11
-34.3611
 21
-143.446
  0
LINE
  8
0
 10
-34.3611
 20
-143.446
 11
-34.5108
 21
-143.646
  0
LINE
  8
0
 10
-34.5108
 20
-143.646
 11
-34.6873
 21
-143.823
  0
LINE
  8
0
 10
-34.6873
 20
-143.823
 11
-34.8872
 21
-143.972
  0
LINE
  8
0
 10
-34.8872
 20
-143.972
 11
-35.1064
 21
-144.092
  0
LINE
  8
0
 10
-35.1064
 20
-144.092
 11
-35.3403
 21
-144.179
  0
LINE
  8
0
 10
-35.3403
 20
-144.179
 11
-35.5843
 21
-144.232
  0
LINE
  8
0
 10
-35.5843
 20
-144.232
 11
-35.8333
 21
-144.25
  0
LINE
  8
0
 10
-35.8333
 20
-144.25
 11
-92.5
 21
-144.25
  0
LINE
  8
0
 10
-120.186
 20
-144.19
 11
-120.43
 21
-144.145
  0
LINE
  8
0
 10
-120.43
 20
-144.145
 11
-120.665
 21
-144.065
  0
LINE
  8
0
 10
-120.665
 20
-144.065
 11
-120.886
 21
-143.951
  0
LINE
  8
0
 10
-120.886
 20
-143.951
 11
-121.087
 21
-143.807
  0
LINE
  8
0
 10
-121.087
 20
-143.807
 11
-121.266
 21
-143.634
  0
LINE
  8
0
 10
-121.266
 20
-143.634
 11
-121.418
 21
-143.438
  0
LINE
  8
0
 10
-121.418
 20
-143.438
 11
-121.539
 21
-143.222
  0
LINE
  8
0
 10
-121.539
 20
-143.222
 11
-121.628
 21
-142.99
  0
LINE
  8
0
 10
-121.628
 20
-142.99
 11
-121.682
 21
-142.748
  0
LINE
  8
0
 10
-121.682
 20
-142.748
 11
-121.7
 21
-142.5
  0
LINE
  8
0
 10
-121.7
 20
-142.5
 11
-121.682
 21
-142.252
  0
LINE
  8
0
 10
-121.682
 20
-142.252
 11
-121.628
 21
-142.01
  0
LINE
  8
0
 10
-121.628
 20
-142.01
 11
-121.539
 21
-141.778
  0
LINE
  8
0
 10
-121.539
 20
-141.778
 11
-121.418
 21
-141.562
  0
LINE
  8
0
 10
-121.418
 20
-141.562
 11
-121.266
 21
-141.366
  0
LINE
  8
0
 10
-121.266
 20
-141.366
 11
-121.087
 21
-141.193
  0
LINE
  8
0
 10
-121.087
 20
-141.193
 11
-120.886
 21
-141.049
  0
LINE
  8
0
 10
-120.886
 20
-141.049
 11
-120.665
 21
-140.935
  0
LINE
  8
0
 10
-120.665
 20
-140.935
 11
-120.43
 21
-140.855
  0
LINE
  8
0
 10
-120.43
 20
-140.855
 11
-120.186
 21
-140.81
  0
LINE
  8
0
 10
-120.186
 20
-140.81
 11
-119.938
 21
-140.801
  0
LINE
  8
0
 10
-119.938
 20
-140.801
 11
-119.691
 21
-140.828
  0
LINE
  8
0
 10
-119.691
 20
-140.828
 11
-119.451
 21
-140.891
  0
LINE
  8
0
 10
-119.451
 20
-140.891
 11
-119.223
 21
-140.988
  0
LINE
  8
0
 10
-119.223
 20
-140.988
 11
-119.011
 21
-141.117
  0
LINE
  8
0
 10
-119.011
 20
-141.117
 11
-118.82
 21
-141.276
  0
LINE
  8
0
 10
-118.82
 20
-141.276
 11
-118.654
 21
-141.461
  0
LINE
  8
0
 10
-118.654
 20
-141.461
 11
-118.518
 21
-141.668
  0
LINE
  8
0
 10
-118.518
 20
-141.668
 11
-118.412
 21
-141.893
  0
LINE
  8
0
 10
-118.412
 20
-141.893
 11
-118.341
 21
-142.13
  0
LINE
  8
0
 10
-118.341
 20
-142.13
 11
-118.305
 21
-142.376
  0
LINE
  8
0
 10
-118.305
 20
-142.376
 11
-118.305
 21
-142.624
  0
LINE
  8
0
 10
-118.305
 20
-142.624
 11
-118.341
 21
-142.87
  0
LINE
  8
0
 10
-118.341
 20
-142.87
 11
-118.412
 21
-143.107
  0
LINE
  8
0
 10
-118.412
 20
-143.107
 11
-118.518
 21
-143.332
  0
LINE
  8
0
 10
-118.518
 20
-143.332
 11
-118.654
 21
-143.539
  0
LINE
  8
0
 10
-118.654
 20
-143.539
 11
-118.82
 21
-143.724
  0
LINE
  8
0
 10
-118.82
 20
-143.724
 11
-119.011
 21
-143.883
  0
LINE
  8
0
 10
-119.011
 20
-143.883
 11
-119.223
 21
-144.012
  0
LINE
  8
0
 10
-119.223
 20
-144.012
 11
-119.451
 21
-144.109
  0
LINE
  8
0
 10
-119.451
 20
-144.109
 11
-119.691
 21
-144.172
  0
LINE
  8
0
 10
-119.691
 20
-144.172
 11
-119.938
 21
-144.199
  0
LINE
  8
0
 10
-119.938
 20
-144.199
 11
-120.186
 21
-144.19
  0
LINE
  8
0
 10
119.691
 20
-144.172
 11
119.451
 21
-144.109
  0
LINE
  8
0
 10
119.451
 20
-144.109
 11
119.223
 21
-144.012
  0
LINE
  8
0
 10
119.223
 20
-144.012
 11
119.011
 21
-143.883
  0
LINE
  8
0
 10
119.011
 20
-143.883
 11
118.82
 21
-143.724
  0
LINE
  8
0
 10
118.82
 20
-143.724
 11
118.654
 21
-143.539
  0
LINE
  8
0
 10
118.654
 20
-143.539
 11
118.518
 21
-143.332
  0
LINE
  8
0
 10
118.518
 20
-143.332
 11
118.412
 21
-143.107
  0
LINE
  8
0
 10
118.412
 20
-143.107
 11
118.341
 21
-142.87
  0
LINE
  8
0
 10
118.341
 20
-142.87
 11
118.305
 21
-142.624
  0
LINE
  8
0
 10
118.305
 20
-142.624
 11
118.305
 21
-142.376
  0
LINE
  8
0
 10
118.305
 20
-142.376
 11
118.341
 21
-142.13
  0
LINE
  8
0
 10
118.341
 20
-142.13
 11
118.412
 21
-141.893
  0
LINE
  8
0
 10
118.412
 20
-141.893
 11
118.518
 21
-141.668
  0
LINE
  8
0
 10
118.518
 20
-141.668
 11
118.654
 21
-141.461
  0
LINE
  8
0
 10
118.654
 20
-141.461
 11
118.82
 21
-141.276
  0
LINE
  8
0
 10
118.82
 20
-141.276
 11
119.011
 21
-141.117
  0
LINE
  8
0
 10
119.011
 20
-141.117
 11
119.223
 21
-140.988
  0
LINE
  8
0
 10
119.223
 20
-140.988
 11
119.451
 21
-140.891
  0
LINE
  8
0
 10
119.451
 20
-140.891
 11
119.691
 21
-140.828
  0
LINE
  8
0
 10
119.691
 20
-140.828
 11
119.938
 21
-140.801
  0
LINE
  8
0
 10
119.938
 20
-140.801
 11
120.186
 21
-140.81
  0
LINE
  8
0
 10
120.186
 20
-140.81
 11
120.43
 21
-140.855
  0
LINE
  8
0
 10
120.43
 20
-140.855
 11
120.665
 21
-140.935
  0
LINE
  8
0
 10
120.665
 20
-140.935
 11
120.886
 21
-141.049
  0
LINE
  8
0
 10
120.886
 20
-141.049
 11
121.087
 21
-141.193
  0
LINE
  8
0
 10
121.087
 20
-141.193
 11
121.266
 21
-141.366
  0
LINE
  8
0
 10
121.266
 20
-141.366
 11
121.418
 21
-141.562
  0
LINE
  8
0
 10
121.418
 20
-141.562
 11
121.539
 21
-141.778
  0
LINE
  8
0
 10
121.539
 20
-141.778
 11
121.628
 21
-142.01
  0
LINE
  8
0
 10
121.628
 20
-142.01
 11
121.682
 21
-142.252
  0
LINE
  8
0
 10
121.682
 20
-142.252
 11
121.7
 21
-142.5
  0
LINE
  8
0
 10
121.7
 20
-142.5
 11
121.682
 21
-142.748
  0
LINE
  8
0
 10
121.682
 20
-142.748
 11
121.628
 21
-142.99
  0
LINE
  8
0
 10
121.628
 20
-142.99
 11
121.539
 21
-143.222
  0
LINE
  8
0
 10
121.539
 20
-143.222
 11
121.418
 21
-143.438
  0
LINE
  8
0
 10
121.418
 20
-143.438
 11
121.266
 21
-143.634
  0
LINE
  8
0
 10
121.266
 20
-143.634
 11
121.087
 21
-143.807
  0
LINE
  8
0
 10
121.087
 20
-143.807
 11
120.886
 21
-143.951
  0
LINE
  8
0
 10
120.886
 20
-143.951
 11
120.665
 21
-144.065
  0
LINE
  8
0
 10
120.665
 20
-144.065
 11
120.43
 21
-144.145
  0
LINE
  8
0
 10
120.43
 20
-144.145
 11
120.186
 21
-144.19
  0
LINE
  8
0
 10
120.186
 20
-144.19
 11
119.938
 21
-144.199
  0
LINE
  8
0
 10
119.938
 20
-144.199
 11
119.691
 21
-144.172
  0
LINE
  8
0
 10
168.377
 20
-145.145
 11
168.133
 21
-145.109
  0
LINE
  8
0
 10
168.133
 20
-145.109
 11
167.897
 21
-145.036
  0
LINE
  8
0
 10
167.897
 20
-145.036
 11
167.675
 21
-144.929
  0
LINE
  8
0
 10
167.675
 20
-144.929
 11
167.471
 21
-144.79
  0
LINE
  8
0
 10
167.471
 20
-144.79
 11
167.29
 21
-144.622
  0
LINE
  8
0
 10
167.29
 20
-144.622
 11
167.137
 21
-144.429
  0
LINE
  8
0
 10
167.137
 20
-144.429
 11
167.013
 21
-144.216
  0
LINE
  8
0
 10
167.013
 20
-144.216
 11
166.923
 21
-143.986
  0
LINE
  8
0
 10
166.923
 20
-143.986
 11
166.868
 21
-143.746
  0
LINE
  8
0
 10
166.868
 20
-143.746
 11
166.85
 21
-143.5
  0
LINE
  8
0
 10
166.85
 20
-143.5
 11
166.868
 21
-143.254
  0
LINE
  8
0
 10
166.868
 20
-143.254
 11
166.923
 21
-143.014
  0
LINE
  8
0
 10
166.923
 20
-143.014
 11
167.013
 21
-142.784
  0
LINE
  8
0
 10
167.013
 20
-142.784
 11
167.137
 21
-142.571
  0
LINE
  8
0
 10
167.137
 20
-142.571
 11
167.29
 21
-142.378
  0
LINE
  8
0
 10
167.29
 20
-142.378
 11
167.471
 21
-142.21
  0
LINE
  8
0
 10
167.471
 20
-142.21
 11
167.675
 21
-142.071
  0
LINE
  8
0
 10
167.675
 20
-142.071
 11
167.897
 21
-141.964
  0
LINE
  8
0
 10
167.897
 20
-141.964
 11
168.133
 21
-141.891
  0
LINE
  8
0
 10
168.133
 20
-141.891
 11
168.377
 21
-141.855
  0
LINE
  8
0
 10
168.377
 20
-141.855
 11
176.623
 21
-141.855
  0
LINE
  8
0
 10
176.623
 20
-141.855
 11
176.867
 21
-141.891
  0
LINE
  8
0
 10
176.867
 20
-141.891
 11
177.103
 21
-141.964
  0
LINE
  8
0
 10
177.103
 20
-141.964
 11
177.325
 21
-142.071
  0
LINE
  8
0
 10
177.325
 20
-142.071
 11
177.529
 21
-142.21
  0
LINE
  8
0
 10
177.529
 20
-142.21
 11
177.71
 21
-142.378
  0
LINE
  8
0
 10
177.71
 20
-142.378
 11
177.863
 21
-142.571
  0
LINE
  8
0
 10
177.863
 20
-142.571
 11
177.987
 21
-142.784
  0
LINE
  8
0
 10
177.987
 20
-142.784
 11
178.077
 21
-143.014
  0
LINE
  8
0
 10
178.077
 20
-143.014
 11
178.132
 21
-143.254
  0
LINE
  8
0
 10
178.132
 20
-143.254
 11
178.15
 21
-143.5
  0
LINE
  8
0
 10
178.15
 20
-143.5
 11
178.132
 21
-143.746
  0
LINE
  8
0
 10
178.132
 20
-143.746
 11
178.077
 21
-143.986
  0
LINE
  8
0
 10
178.077
 20
-143.986
 11
177.987
 21
-144.216
  0
LINE
  8
0
 10
177.987
 20
-144.216
 11
177.863
 21
-144.429
  0
LINE
  8
0
 10
177.863
 20
-144.429
 11
177.71
 21
-144.622
  0
LINE
  8
0
 10
177.71
 20
-144.622
 11
177.529
 21
-144.79
  0
LINE
  8
0
 10
177.529
 20
-144.79
 11
177.325
 21
-144.929
  0
LINE
  8
0
 10
177.325
 20
-144.929
 11
177.103
 21
-145.036
  0
LINE
  8
0
 10
177.103
 20
-145.036
 11
176.867
 21
-145.109
  0
LINE
  8
0
 10
176.867
 20
-145.109
 11
176.623
 21
-145.145
  0
LINE
  8
0
 10
176.623
 20
-145.145
 11
168.377
 21
-145.145
  0
LINE
  8
0
 10
199.377
 20
-145.145
 11
199.133
 21
-145.109
  0
LINE
  8
0
 10
199.133
 20
-145.109
 11
198.897
 21
-145.036
  0
LINE
  8
0
 10
198.897
 20
-145.036
 11
198.675
 21
-144.929
  0
LINE
  8
0
 10
198.675
 20
-144.929
 11
198.471
 21
-144.79
  0
LINE
  8
0
 10
198.471
 20
-144.79
 11
198.29
 21
-144.622
  0
LINE
  8
0
 10
198.29
 20
-144.622
 11
198.137
 21
-144.429
  0
LINE
  8
0
 10
198.137
 20
-144.429
 11
198.013
 21
-144.216
  0
LINE
  8
0
 10
198.013
 20
-144.216
 11
197.923
 21
-143.986
  0
LINE
  8
0
 10
197.923
 20
-143.986
 11
197.868
 21
-143.746
  0
LINE
  8
0
 10
197.868
 20
-143.746
 11
197.85
 21
-143.5
  0
LINE
  8
0
 10
197.85
 20
-143.5
 11
197.868
 21
-143.254
  0
LINE
  8
0
 10
197.868
 20
-143.254
 11
197.923
 21
-143.014
  0
LINE
  8
0
 10
197.923
 20
-143.014
 11
198.013
 21
-142.784
  0
LINE
  8
0
 10
198.013
 20
-142.784
 11
198.137
 21
-142.571
  0
LINE
  8
0
 10
198.137
 20
-142.571
 11
198.29
 21
-142.378
  0
LINE
  8
0
 10
198.29
 20
-142.378
 11
198.471
 21
-142.21
  0
LINE
  8
0
 10
198.471
 20
-142.21
 11
198.675
 21
-142.071
  0
LINE
  8
0
 10
198.675
 20
-142.071
 11
198.897
 21
-141.964
  0
LINE
  8
0
 10
198.897
 20
-141.964
 11
199.133
 21
-141.891
  0
LINE
  8
0
 10
199.133
 20
-141.891
 11
199.377
 21
-141.855
  0
LINE
  8
0
 10
199.377
 20
-141.855
 11
207.623
 21
-141.855
  0
LINE
  8
0
 10
207.623
 20
-141.855
 11
207.867
 21
-141.891
  0
LINE
  8
0
 10
207.867
 20
-141.891
 11
208.103
 21
-141.964
  0
LINE
  8
0
 10
208.103
 20
-141.964
 11
208.325
 21
-142.071
  0
LINE
  8
0
 10
208.325
 20
-142.071
 11
208.529
 21
-142.21
  0
LINE
  8
0
 10
208.529
 20
-142.21
 11
208.71
 21
-142.378
  0
LINE
  8
0
 10
208.71
 20
-142.378
 11
208.863
 21
-142.571
  0
LINE
  8
0
 10
208.863
 20
-142.571
 11
208.987
 21
-142.784
  0
LINE
  8
0
 10
208.987
 20
-142.784
 11
209.077
 21
-143.014
  0
LINE
  8
0
 10
209.077
 20
-143.014
 11
209.132
 21
-143.254
  0
LINE
  8
0
 10
209.132
 20
-143.254
 11
209.15
 21
-143.5
  0
LINE
  8
0
 10
209.15
 20
-143.5
 11
209.132
 21
-143.746
  0
LINE
  8
0
 10
209.132
 20
-143.746
 11
209.077
 21
-143.986
  0
LINE
  8
0
 10
209.077
 20
-143.986
 11
208.987
 21
-144.216
  0
LINE
  8
0
 10
208.987
 20
-144.216
 11
208.863
 21
-144.429
  0
LINE
  8
0
 10
208.863
 20
-144.429
 11
208.71
 21
-144.622
  0
LINE
  8
0
 10
208.71
 20
-144.622
 11
208.529
 21
-144.79
  0
LINE
  8
0
 10
208.529
 20
-144.79
 11
208.325
 21
-144.929
  0
LINE
  8
0
 10
208.325
 20
-144.929
 11
208.103
 21
-145.036
  0
LINE
  8
0
 10
208.103
 20
-145.036
 11
207.867
 21
-145.109
  0
LINE
  8
0
 10
207.867
 20
-145.109
 11
207.623
 21
-145.145
  0
LINE
  8
0
 10
207.623
 20
-145.145
 11
199.377
 21
-145.145
  0
ENDSEC
  0
SECTION
  2
OBJECTS
  0
DICTIONARY
  0
ENDSEC
  0
EOF
