  0
SECTION
  2
BLOCKS
  0
ENDSEC
  0
SECTION
  2
ENTITIES
  0
LINE
  8
0
 10
207.898
 20
-92.3476
 11
208.415
 21
-92.2657
  0
LINE
  8
0
 10
208.415
 20
-92.2657
 11
208.92
 21
-92.1303
  0
LINE
  8
0
 10
208.92
 20
-92.1303
 11
209.409
 21
-91.9427
  0
LINE
  8
0
 10
209.409
 20
-91.9427
 11
209.875
 21
-91.7051
  0
LINE
  8
0
 10
209.875
 20
-91.7051
 11
210.314
 21
-91.4201
  0
LINE
  8
0
 10
210.314
 20
-91.4201
 11
210.721
 21
-91.0907
  0
LINE
  8
0
 10
210.721
 20
-91.0907
 11
211.091
 21
-90.7207
  0
LINE
  8
0
 10
211.091
 20
-90.7207
 11
211.42
 21
-90.3139
  0
LINE
  8
0
 10
211.42
 20
-90.3139
 11
211.705
 21
-89.875
  0
LINE
  8
0
 10
211.705
 20
-89.875
 11
211.943
 21
-89.4087
  0
LINE
  8
0
 10
211.943
 20
-89.4087
 11
212.13
 21
-88.9201
  0
LINE
  8
0
 10
212.13
 20
-88.9201
 11
212.266
 21
-88.4146
  0
LINE
  8
0
 10
212.266
 20
-88.4146
 11
212.348
 21
-87.8976
  0
LINE
  8
0
 10
212.348
 20
-87.8976
 11
212.375
 21
-87.375
  0
LINE
  8
0
 10
212.375
 20
-87.375
 11
212.375
 21
87.375
  0
LINE
  8
0
 10
212.375
 20
87.375
 11
212.348
 21
87.8976
  0
LINE
  8
0
 10
212.348
 20
87.8976
 11
212.266
 21
88.4146
  0
LINE
  8
0
 10
212.266
 20
88.4146
 11
212.13
 21
88.9201
  0
LINE
  8
0
 10
212.13
 20
88.9201
 11
211.943
 21
89.4087
  0
LINE
  8
0
 10
211.943
 20
89.4087
 11
211.705
 21
89.875
  0
LINE
  8
0
 10
211.705
 20
89.875
 11
211.42
 21
90.3139
  0
LINE
  8
0
 10
211.42
 20
90.3139
 11
211.091
 21
90.7207
  0
LINE
  8
0
 10
211.091
 20
90.7207
 11
210.721
 21
91.0907
  0
LINE
  8
0
 10
210.721
 20
91.0907
 11
210.314
 21
91.4201
  0
LINE
  8
0
 10
210.314
 20
91.4201
 11
209.875
 21
91.7051
  0
LINE
  8
0
 10
209.875
 20
91.7051
 11
209.409
 21
91.9427
  0
LINE
  8
0
 10
209.409
 20
91.9427
 11
208.92
 21
92.1303
  0
LINE
  8
0
 10
208.92
 20
92.1303
 11
208.415
 21
92.2657
  0
LINE
  8
0
 10
208.415
 20
92.2657
 11
207.898
 21
92.3476
  0
LINE
  8
0
 10
207.898
 20
92.3476
 11
207.375
 21
92.375
  0
LINE
  8
0
 10
207.375
 20
92.375
 11
182.5
 21
92.375
  0
LINE
  8
0
 10
182.5
 20
92.375
 11
182.5
 21
-57.5
  0
LINE
  8
0
 10
182.5
 20
-57.5
 11
182.473
 21
-58.0226
  0
LINE
  8
0
 10
182.473
 20
-58.0226
 11
182.391
 21
-58.5396
  0
LINE
  8
0
 10
182.391
 20
-58.5396
 11
182.255
 21
-59.0451
  0
LINE
  8
0
 10
182.255
 20
-59.0451
 11
182.068
 21
-59.5337
  0
LINE
  8
0
 10
182.068
 20
-59.5337
 11
181.83
 21
-60
  0
LINE
  8
0
 10
181.83
 20
-60
 11
181.545
 21
-60.4389
  0
LINE
  8
0
 10
181.545
 20
-60.4389
 11
181.216
 21
-60.8457
  0
LINE
  8
0
 10
181.216
 20
-60.8457
 11
180.846
 21
-61.2157
  0
LINE
  8
0
 10
180.846
 20
-61.2157
 11
180.439
 21
-61.5451
  0
LINE
  8
0
 10
180.439
 20
-61.5451
 11
180
 21
-61.8301
  0
LINE
  8
0
 10
180
 20
-61.8301
 11
179.534
 21
-62.0677
  0
LINE
  8
0
 10
179.534
 20
-62.0677
 11
179.045
 21
-62.2553
  0
LINE
  8
0
 10
179.045
 20
-62.2553
 11
178.54
 21
-62.3907
  0
LINE
  8
0
 10
178.54
 20
-62.3907
 11
178.023
 21
-62.4726
  0
LINE
  8
0
 10
178.023
 20
-62.4726
 11
177.5
 21
-62.5
  0
LINE
  8
0
 10
177.5
 20
-62.5
 11
-177.5
 21
-62.5
  0
LINE
  8
0
 10
-177.5
 20
-62.5
 11
-178.023
 21
-62.4726
  0
LINE
  8
0
 10
-178.023
 20
-62.4726
 11
-178.54
 21
-62.3907
  0
LINE
  8
0
 10
-178.54
 20
-62.3907
 11
-179.045
 21
-62.2553
  0
LINE
  8
0
 10
-179.045
 20
-62.2553
 11
-179.534
 21
-62.0677
  0
LINE
  8
0
 10
-179.534
 20
-62.0677
 11
-180
 21
-61.8301
  0
LINE
  8
0
 10
-180
 20
-61.8301
 11
-180.439
 21
-61.5451
  0
LINE
  8
0
 10
-180.439
 20
-61.5451
 11
-180.846
 21
-61.2157
  0
LINE
  8
0
 10
-180.846
 20
-61.2157
 11
-181.216
 21
-60.8457
  0
LINE
  8
0
 10
-181.216
 20
-60.8457
 11
-181.545
 21
-60.4389
  0
LINE
  8
0
 10
-181.545
 20
-60.4389
 11
-181.83
 21
-60
  0
LINE
  8
0
 10
-181.83
 20
-60
 11
-182.068
 21
-59.5337
  0
LINE
  8
0
 10
-182.068
 20
-59.5337
 11
-182.255
 21
-59.0451
  0
LINE
  8
0
 10
-182.255
 20
-59.0451
 11
-182.391
 21
-58.5396
  0
LINE
  8
0
 10
-182.391
 20
-58.5396
 11
-182.473
 21
-58.0226
  0
LINE
  8
0
 10
-182.473
 20
-58.0226
 11
-182.5
 21
-57.5
  0
LINE
  8
0
 10
-182.5
 20
-57.5
 11
-182.5
 21
92.375
  0
LINE
  8
0
 10
-182.5
 20
92.375
 11
-207.375
 21
92.375
  0
LINE
  8
0
 10
-207.375
 20
92.375
 11
-207.898
 21
92.3476
  0
LINE
  8
0
 10
-207.898
 20
92.3476
 11
-208.415
 21
92.2657
  0
LINE
  8
0
 10
-208.415
 20
92.2657
 11
-208.92
 21
92.1303
  0
LINE
  8
0
 10
-208.92
 20
92.1303
 11
-209.409
 21
91.9427
  0
LINE
  8
0
 10
-209.409
 20
91.9427
 11
-209.875
 21
91.7051
  0
LINE
  8
0
 10
-209.875
 20
91.7051
 11
-210.314
 21
91.4201
  0
LINE
  8
0
 10
-210.314
 20
91.4201
 11
-210.721
 21
91.0907
  0
LINE
  8
0
 10
-210.721
 20
91.0907
 11
-211.091
 21
90.7207
  0
LINE
  8
0
 10
-211.091
 20
90.7207
 11
-211.42
 21
90.3139
  0
LINE
  8
0
 10
-211.42
 20
90.3139
 11
-211.705
 21
89.875
  0
LINE
  8
0
 10
-211.705
 20
89.875
 11
-211.943
 21
89.4087
  0
LINE
  8
0
 10
-211.943
 20
89.4087
 11
-212.13
 21
88.9201
  0
LINE
  8
0
 10
-212.13
 20
88.9201
 11
-212.266
 21
88.4146
  0
LINE
  8
0
 10
-212.266
 20
88.4146
 11
-212.348
 21
87.8976
  0
LINE
  8
0
 10
-212.348
 20
87.8976
 11
-212.375
 21
87.375
  0
LINE
  8
0
 10
-212.375
 20
87.375
 11
-212.375
 21
-87.375
  0
LINE
  8
0
 10
-212.375
 20
-87.375
 11
-212.348
 21
-87.8976
  0
LINE
  8
0
 10
-212.348
 20
-87.8976
 11
-212.266
 21
-88.4146
  0
LINE
  8
0
 10
-212.266
 20
-88.4146
 11
-212.13
 21
-88.9201
  0
LINE
  8
0
 10
-212.13
 20
-88.9201
 11
-211.943
 21
-89.4087
  0
LINE
  8
0
 10
-211.943
 20
-89.4087
 11
-211.705
 21
-89.875
  0
LINE
  8
0
 10
-211.705
 20
-89.875
 11
-211.42
 21
-90.3139
  0
LINE
  8
0
 10
-211.42
 20
-90.3139
 11
-211.091
 21
-90.7207
  0
LINE
  8
0
 10
-211.091
 20
-90.7207
 11
-210.721
 21
-91.0907
  0
LINE
  8
0
 10
-210.721
 20
-91.0907
 11
-210.314
 21
-91.4201
  0
LINE
  8
0
 10
-210.314
 20
-91.4201
 11
-209.875
 21
-91.7051
  0
LINE
  8
0
 10
-209.875
 20
-91.7051
 11
-209.409
 21
-91.9427
  0
LINE
  8
0
 10
-209.409
 20
-91.9427
 11
-208.92
 21
-92.1303
  0
LINE
  8
0
 10
-208.92
 20
-92.1303
 11
-208.415
 21
-92.2657
  0
LINE
  8
0
 10
-208.415
 20
-92.2657
 11
-207.898
 21
-92.3476
  0
LINE
  8
0
 10
-207.898
 20
-92.3476
 11
-207.375
 21
-92.375
  0
LINE
  8
0
 10
-207.375
 20
-92.375
 11
207.375
 21
-92.375
  0
LINE
  8
0
 10
207.375
 20
-92.375
 11
207.898
 21
-92.3476
  0
LINE
  8
0
 10
-205.392
 20
81.2705
 11
-205.78
 21
81.3319
  0
LINE
  8
0
 10
-205.78
 20
81.3319
 11
-206.159
 21
81.4335
  0
LINE
  8
0
 10
-206.159
 20
81.4335
 11
-206.525
 21
81.5742
  0
LINE
  8
0
 10
-206.525
 20
81.5742
 11
-206.875
 21
81.7524
  0
LINE
  8
0
 10
-206.875
 20
81.7524
 11
-207.204
 21
81.9662
  0
LINE
  8
0
 10
-207.204
 20
81.9662
 11
-207.509
 21
82.2132
  0
LINE
  8
0
 10
-207.509
 20
82.2132
 11
-207.787
 21
82.4908
  0
LINE
  8
0
 10
-207.787
 20
82.4908
 11
-208.034
 21
82.7958
  0
LINE
  8
0
 10
-208.034
 20
82.7958
 11
-208.248
 21
83.125
  0
LINE
  8
0
 10
-208.248
 20
83.125
 11
-208.426
 21
83.4747
  0
LINE
  8
0
 10
-208.426
 20
83.4747
 11
-208.566
 21
83.8412
  0
LINE
  8
0
 10
-208.566
 20
83.8412
 11
-208.668
 21
84.2203
  0
LINE
  8
0
 10
-208.668
 20
84.2203
 11
-208.729
 21
84.608
  0
LINE
  8
0
 10
-208.729
 20
84.608
 11
-208.75
 21
85
  0
LINE
  8
0
 10
-208.75
 20
85
 11
-208.729
 21
85.392
  0
LINE
  8
0
 10
-208.729
 20
85.392
 11
-208.668
 21
85.7797
  0
LINE
  8
0
 10
-208.668
 20
85.7797
 11
-208.566
 21
86.1588
  0
LINE
  8
0
 10
-208.566
 20
86.1588
 11
-208.426
 21
86.5253
  0
LINE
  8
0
 10
-208.426
 20
86.5253
 11
-208.248
 21
86.875
  0
LINE
  8
0
 10
-208.248
 20
86.875
 11
-208.034
 21
87.2042
  0
LINE
  8
0
 10
-208.034
 20
87.2042
 11
-207.787
 21
87.5092
  0
LINE
  8
0
 10
-207.787
 20
87.5092
 11
-207.509
 21
87.7868
  0
LINE
  8
0
 10
-207.509
 20
87.7868
 11
-207.204
 21
88.0338
  0
LINE
  8
0
 10
-207.204
 20
88.0338
 11
-206.875
 21
88.2476
  0
LINE
  8
0
 10
-206.875
 20
88.2476
 11
-206.525
 21
88.4258
  0
LINE
  8
0
 10
-206.525
 20
88.4258
 11
-206.159
 21
88.5665
  0
LINE
  8
0
 10
-206.159
 20
88.5665
 11
-205.78
 21
88.668
  0
LINE
  8
0
 10
-205.78
 20
88.668
 11
-205.392
 21
88.7294
  0
LINE
  8
0
 10
-205.392
 20
88.7294
 11
-205
 21
88.75
  0
LINE
  8
0
 10
-205
 20
88.75
 11
-204.608
 21
88.7294
  0
LINE
  8
0
 10
-204.608
 20
88.7294
 11
-204.22
 21
88.668
  0
LINE
  8
0
 10
-204.22
 20
88.668
 11
-203.841
 21
88.5665
  0
LINE
  8
0
 10
-203.841
 20
88.5665
 11
-203.475
 21
88.4258
  0
LINE
  8
0
 10
-203.475
 20
88.4258
 11
-203.125
 21
88.2476
  0
LINE
  8
0
 10
-203.125
 20
88.2476
 11
-202.796
 21
88.0338
  0
LINE
  8
0
 10
-202.796
 20
88.0338
 11
-202.491
 21
87.7868
  0
LINE
  8
0
 10
-202.491
 20
87.7868
 11
-202.213
 21
87.5092
  0
LINE
  8
0
 10
-202.213
 20
87.5092
 11
-201.966
 21
87.2042
  0
LINE
  8
0
 10
-201.966
 20
87.2042
 11
-201.752
 21
86.875
  0
LINE
  8
0
 10
-201.752
 20
86.875
 11
-201.574
 21
86.5253
  0
LINE
  8
0
 10
-201.574
 20
86.5253
 11
-201.434
 21
86.1588
  0
LINE
  8
0
 10
-201.434
 20
86.1588
 11
-201.332
 21
85.7797
  0
LINE
  8
0
 10
-201.332
 20
85.7797
 11
-201.271
 21
85.392
  0
LINE
  8
0
 10
-201.271
 20
85.392
 11
-201.25
 21
85
  0
LINE
  8
0
 10
-201.25
 20
85
 11
-201.271
 21
84.608
  0
LINE
  8
0
 10
-201.271
 20
84.608
 11
-201.332
 21
84.2203
  0
LINE
  8
0
 10
-201.332
 20
84.2203
 11
-201.434
 21
83.8412
  0
LINE
  8
0
 10
-201.434
 20
83.8412
 11
-201.574
 21
83.4747
  0
LINE
  8
0
 10
-201.574
 20
83.4747
 11
-201.752
 21
83.125
  0
LINE
  8
0
 10
-201.752
 20
83.125
 11
-201.966
 21
82.7958
  0
LINE
  8
0
 10
-201.966
 20
82.7958
 11
-202.213
 21
82.4908
  0
LINE
  8
0
 10
-202.213
 20
82.4908
 11
-202.491
 21
82.2132
  0
LINE
  8
0
 10
-202.491
 20
82.2132
 11
-202.796
 21
81.9662
  0
LINE
  8
0
 10
-202.796
 20
81.9662
 11
-203.125
 21
81.7524
  0
LINE
  8
0
 10
-203.125
 20
81.7524
 11
-203.475
 21
81.5742
  0
LINE
  8
0
 10
-203.475
 20
81.5742
 11
-203.841
 21
81.4335
  0
LINE
  8
0
 10
-203.841
 20
81.4335
 11
-204.22
 21
81.3319
  0
LINE
  8
0
 10
-204.22
 20
81.3319
 11
-204.608
 21
81.2705
  0
LINE
  8
0
 10
-204.608
 20
81.2705
 11
-205
 21
81.25
  0
LINE
  8
0
 10
-205
 20
81.25
 11
-205.392
 21
81.2705
  0
LINE
  8
0
 10
204.608
 20
81.2705
 11
204.22
 21
81.3319
  0
LINE
  8
0
 10
204.22
 20
81.3319
 11
203.841
 21
81.4335
  0
LINE
  8
0
 10
203.841
 20
81.4335
 11
203.475
 21
81.5742
  0
LINE
  8
0
 10
203.475
 20
81.5742
 11
203.125
 21
81.7524
  0
LINE
  8
0
 10
203.125
 20
81.7524
 11
202.796
 21
81.9662
  0
LINE
  8
0
 10
202.796
 20
81.9662
 11
202.491
 21
82.2132
  0
LINE
  8
0
 10
202.491
 20
82.2132
 11
202.213
 21
82.4908
  0
LINE
  8
0
 10
202.213
 20
82.4908
 11
201.966
 21
82.7958
  0
LINE
  8
0
 10
201.966
 20
82.7958
 11
201.752
 21
83.125
  0
LINE
  8
0
 10
201.752
 20
83.125
 11
201.574
 21
83.4747
  0
LINE
  8
0
 10
201.574
 20
83.4747
 11
201.434
 21
83.8412
  0
LINE
  8
0
 10
201.434
 20
83.8412
 11
201.332
 21
84.2203
  0
LINE
  8
0
 10
201.332
 20
84.2203
 11
201.271
 21
84.608
  0
LINE
  8
0
 10
201.271
 20
84.608
 11
201.25
 21
85
  0
LINE
  8
0
 10
201.25
 20
85
 11
201.271
 21
85.392
  0
LINE
  8
0
 10
201.271
 20
85.392
 11
201.332
 21
85.7797
  0
LINE
  8
0
 10
201.332
 20
85.7797
 11
201.434
 21
86.1588
  0
LINE
  8
0
 10
201.434
 20
86.1588
 11
201.574
 21
86.5253
  0
LINE
  8
0
 10
201.574
 20
86.5253
 11
201.752
 21
86.875
  0
LINE
  8
0
 10
201.752
 20
86.875
 11
201.966
 21
87.2042
  0
LINE
  8
0
 10
201.966
 20
87.2042
 11
202.213
 21
87.5092
  0
LINE
  8
0
 10
202.213
 20
87.5092
 11
202.491
 21
87.7868
  0
LINE
  8
0
 10
202.491
 20
87.7868
 11
202.796
 21
88.0338
  0
LINE
  8
0
 10
202.796
 20
88.0338
 11
203.125
 21
88.2476
  0
LINE
  8
0
 10
203.125
 20
88.2476
 11
203.475
 21
88.4258
  0
LINE
  8
0
 10
203.475
 20
88.4258
 11
203.841
 21
88.5665
  0
LINE
  8
0
 10
203.841
 20
88.5665
 11
204.22
 21
88.668
  0
LINE
  8
0
 10
204.22
 20
88.668
 11
204.608
 21
88.7294
  0
LINE
  8
0
 10
204.608
 20
88.7294
 11
205
 21
88.75
  0
LINE
  8
0
 10
205
 20
88.75
 11
205.392
 21
88.7294
  0
LINE
  8
0
 10
205.392
 20
88.7294
 11
205.78
 21
88.668
  0
LINE
  8
0
 10
205.78
 20
88.668
 11
206.159
 21
88.5665
  0
LINE
  8
0
 10
206.159
 20
88.5665
 11
206.525
 21
88.4258
  0
LINE
  8
0
 10
206.525
 20
88.4258
 11
206.875
 21
88.2476
  0
LINE
  8
0
 10
206.875
 20
88.2476
 11
207.204
 21
88.0338
  0
LINE
  8
0
 10
207.204
 20
88.0338
 11
207.509
 21
87.7868
  0
LINE
  8
0
 10
207.509
 20
87.7868
 11
207.787
 21
87.5092
  0
LINE
  8
0
 10
207.787
 20
87.5092
 11
208.034
 21
87.2042
  0
LINE
  8
0
 10
208.034
 20
87.2042
 11
208.248
 21
86.875
  0
LINE
  8
0
 10
208.248
 20
86.875
 11
208.426
 21
86.5253
  0
LINE
  8
0
 10
208.426
 20
86.5253
 11
208.566
 21
86.1588
  0
LINE
  8
0
 10
208.566
 20
86.1588
 11
208.668
 21
85.7797
  0
LINE
  8
0
 10
208.668
 20
85.7797
 11
208.729
 21
85.392
  0
LINE
  8
0
 10
208.729
 20
85.392
 11
208.75
 21
85
  0
LINE
  8
0
 10
208.75
 20
85
 11
208.729
 21
84.608
  0
LINE
  8
0
 10
208.729
 20
84.608
 11
208.668
 21
84.2203
  0
LINE
  8
0
 10
208.668
 20
84.2203
 11
208.566
 21
83.8412
  0
LINE
  8
0
 10
208.566
 20
83.8412
 11
208.426
 21
83.4747
  0
LINE
  8
0
 10
208.426
 20
83.4747
 11
208.248
 21
83.125
  0
LINE
  8
0
 10
208.248
 20
83.125
 11
208.034
 21
82.7958
  0
LINE
  8
0
 10
208.034
 20
82.7958
 11
207.787
 21
82.4908
  0
LINE
  8
0
 10
207.787
 20
82.4908
 11
207.509
 21
82.2132
  0
LINE
  8
0
 10
207.509
 20
82.2132
 11
207.204
 21
81.9662
  0
LINE
  8
0
 10
207.204
 20
81.9662
 11
206.875
 21
81.7524
  0
LINE
  8
0
 10
206.875
 20
81.7524
 11
206.525
 21
81.5742
  0
LINE
  8
0
 10
206.525
 20
81.5742
 11
206.159
 21
81.4335
  0
LINE
  8
0
 10
206.159
 20
81.4335
 11
205.78
 21
81.3319
  0
LINE
  8
0
 10
205.78
 20
81.3319
 11
205.392
 21
81.2705
  0
LINE
  8
0
 10
205.392
 20
81.2705
 11
205
 21
81.25
  0
LINE
  8
0
 10
205
 20
81.25
 11
204.608
 21
81.2705
  0
LINE
  8
0
 10
204.691
 20
40.8283
 11
204.451
 21
40.8911
  0
LINE
  8
0
 10
204.451
 20
40.8911
 11
204.223
 21
40.9881
  0
LINE
  8
0
 10
204.223
 20
40.9881
 11
204.011
 21
41.1174
  0
LINE
  8
0
 10
204.011
 20
41.1174
 11
203.82
 21
41.2762
  0
LINE
  8
0
 10
203.82
 20
41.2762
 11
203.654
 21
41.461
  0
LINE
  8
0
 10
203.654
 20
41.461
 11
203.518
 21
41.668
  0
LINE
  8
0
 10
203.518
 20
41.668
 11
203.412
 21
41.8927
  0
LINE
  8
0
 10
203.412
 20
41.8927
 11
203.341
 21
42.1304
  0
LINE
  8
0
 10
203.341
 20
42.1304
 11
203.305
 21
42.3759
  0
LINE
  8
0
 10
203.305
 20
42.3759
 11
203.305
 21
42.6241
  0
LINE
  8
0
 10
203.305
 20
42.6241
 11
203.341
 21
42.8696
  0
LINE
  8
0
 10
203.341
 20
42.8696
 11
203.412
 21
43.1073
  0
LINE
  8
0
 10
203.412
 20
43.1073
 11
203.518
 21
43.332
  0
LINE
  8
0
 10
203.518
 20
43.332
 11
203.654
 21
43.539
  0
LINE
  8
0
 10
203.654
 20
43.539
 11
203.82
 21
43.7238
  0
LINE
  8
0
 10
203.82
 20
43.7238
 11
204.011
 21
43.8826
  0
LINE
  8
0
 10
204.011
 20
43.8826
 11
204.223
 21
44.0119
  0
LINE
  8
0
 10
204.223
 20
44.0119
 11
204.451
 21
44.1089
  0
LINE
  8
0
 10
204.451
 20
44.1089
 11
204.691
 21
44.1717
  0
LINE
  8
0
 10
204.691
 20
44.1717
 11
204.938
 21
44.1989
  0
LINE
  8
0
 10
204.938
 20
44.1989
 11
205.186
 21
44.1898
  0
LINE
  8
0
 10
205.186
 20
44.1898
 11
205.43
 21
44.1447
  0
LINE
  8
0
 10
205.43
 20
44.1447
 11
205.665
 21
44.0646
  0
LINE
  8
0
 10
205.665
 20
44.0646
 11
205.886
 21
43.9511
  0
LINE
  8
0
 10
205.886
 20
43.9511
 11
206.087
 21
43.8067
  0
LINE
  8
0
 10
206.087
 20
43.8067
 11
206.266
 21
43.6344
  0
LINE
  8
0
 10
206.266
 20
43.6344
 11
206.418
 21
43.438
  0
LINE
  8
0
 10
206.418
 20
43.438
 11
206.539
 21
43.2216
  0
LINE
  8
0
 10
206.539
 20
43.2216
 11
206.628
 21
42.9898
  0
LINE
  8
0
 10
206.628
 20
42.9898
 11
206.682
 21
42.7475
  0
LINE
  8
0
 10
206.682
 20
42.7475
 11
206.7
 21
42.5
  0
LINE
  8
0
 10
206.7
 20
42.5
 11
206.682
 21
42.2525
  0
LINE
  8
0
 10
206.682
 20
42.2525
 11
206.628
 21
42.0102
  0
LINE
  8
0
 10
206.628
 20
42.0102
 11
206.539
 21
41.7784
  0
LINE
  8
0
 10
206.539
 20
41.7784
 11
206.418
 21
41.562
  0
LINE
  8
0
 10
206.418
 20
41.562
 11
206.266
 21
41.3656
  0
LINE
  8
0
 10
206.266
 20
41.3656
 11
206.087
 21
41.1933
  0
LINE
  8
0
 10
206.087
 20
41.1933
 11
205.886
 21
41.0489
  0
LINE
  8
0
 10
205.886
 20
41.0489
 11
205.665
 21
40.9354
  0
LINE
  8
0
 10
205.665
 20
40.9354
 11
205.43
 21
40.8553
  0
LINE
  8
0
 10
205.43
 20
40.8553
 11
205.186
 21
40.8102
  0
LINE
  8
0
 10
205.186
 20
40.8102
 11
204.938
 21
40.8011
  0
LINE
  8
0
 10
204.938
 20
40.8011
 11
204.691
 21
40.8283
  0
LINE
  8
0
 10
-205.186
 20
40.8102
 11
-205.43
 21
40.8553
  0
LINE
  8
0
 10
-205.43
 20
40.8553
 11
-205.665
 21
40.9354
  0
LINE
  8
0
 10
-205.665
 20
40.9354
 11
-205.886
 21
41.0489
  0
LINE
  8
0
 10
-205.886
 20
41.0489
 11
-206.087
 21
41.1933
  0
LINE
  8
0
 10
-206.087
 20
41.1933
 11
-206.266
 21
41.3656
  0
LINE
  8
0
 10
-206.266
 20
41.3656
 11
-206.418
 21
41.562
  0
LINE
  8
0
 10
-206.418
 20
41.562
 11
-206.539
 21
41.7784
  0
LINE
  8
0
 10
-206.539
 20
41.7784
 11
-206.628
 21
42.0102
  0
LINE
  8
0
 10
-206.628
 20
42.0102
 11
-206.682
 21
42.2525
  0
LINE
  8
0
 10
-206.682
 20
42.2525
 11
-206.7
 21
42.5
  0
LINE
  8
0
 10
-206.7
 20
42.5
 11
-206.682
 21
42.7475
  0
LINE
  8
0
 10
-206.682
 20
42.7475
 11
-206.628
 21
42.9898
  0
LINE
  8
0
 10
-206.628
 20
42.9898
 11
-206.539
 21
43.2216
  0
LINE
  8
0
 10
-206.539
 20
43.2216
 11
-206.418
 21
43.438
  0
LINE
  8
0
 10
-206.418
 20
43.438
 11
-206.266
 21
43.6344
  0
LINE
  8
0
 10
-206.266
 20
43.6344
 11
-206.087
 21
43.8067
  0
LINE
  8
0
 10
-206.087
 20
43.8067
 11
-205.886
 21
43.9511
  0
LINE
  8
0
 10
-205.886
 20
43.9511
 11
-205.665
 21
44.0646
  0
LINE
  8
0
 10
-205.665
 20
44.0646
 11
-205.43
 21
44.1447
  0
LINE
  8
0
 10
-205.43
 20
44.1447
 11
-205.186
 21
44.1898
  0
LINE
  8
0
 10
-205.186
 20
44.1898
 11
-204.938
 21
44.1989
  0
LINE
  8
0
 10
-204.938
 20
44.1989
 11
-204.691
 21
44.1717
  0
LINE
  8
0
 10
-204.691
 20
44.1717
 11
-204.451
 21
44.1089
  0
LINE
  8
0
 10
-204.451
 20
44.1089
 11
-204.223
 21
44.0119
  0
LINE
  8
0
 10
-204.223
 20
44.0119
 11
-204.011
 21
43.8826
  0
LINE
  8
0
 10
-204.011
 20
43.8826
 11
-203.82
 21
43.7238
  0
LINE
  8
0
 10
-203.82
 20
43.7238
 11
-203.654
 21
43.539
  0
LINE
  8
0
 10
-203.654
 20
43.539
 11
-203.518
 21
43.332
  0
LINE
  8
0
 10
-203.518
 20
43.332
 11
-203.412
 21
43.1073
  0
LINE
  8
0
 10
-203.412
 20
43.1073
 11
-203.341
 21
42.8696
  0
LINE
  8
0
 10
-203.341
 20
42.8696
 11
-203.305
 21
42.6241
  0
LINE
  8
0
 10
-203.305
 20
42.6241
 11
-203.305
 21
42.3759
  0
LINE
  8
0
 10
-203.305
 20
42.3759
 11
-203.341
 21
42.1304
  0
LINE
  8
0
 10
-203.341
 20
42.1304
 11
-203.412
 21
41.8927
  0
LINE
  8
0
 10
-203.412
 20
41.8927
 11
-203.518
 21
41.668
  0
LINE
  8
0
 10
-203.518
 20
41.668
 11
-203.654
 21
41.461
  0
LINE
  8
0
 10
-203.654
 20
41.461
 11
-203.82
 21
41.2762
  0
LINE
  8
0
 10
-203.82
 20
41.2762
 11
-204.011
 21
41.1174
  0
LINE
  8
0
 10
-204.011
 20
41.1174
 11
-204.223
 21
40.9881
  0
LINE
  8
0
 10
-204.223
 20
40.9881
 11
-204.451
 21
40.8911
  0
LINE
  8
0
 10
-204.451
 20
40.8911
 11
-204.691
 21
40.8283
  0
LINE
  8
0
 10
-204.691
 20
40.8283
 11
-204.938
 21
40.8011
  0
LINE
  8
0
 10
-204.938
 20
40.8011
 11
-205.186
 21
40.8102
  0
LINE
  8
0
 10
204.691
 20
-44.1717
 11
204.451
 21
-44.1089
  0
LINE
  8
0
 10
204.451
 20
-44.1089
 11
204.223
 21
-44.0119
  0
LINE
  8
0
 10
204.223
 20
-44.0119
 11
204.011
 21
-43.8826
  0
LINE
  8
0
 10
204.011
 20
-43.8826
 11
203.82
 21
-43.7238
  0
LINE
  8
0
 10
203.82
 20
-43.7238
 11
203.654
 21
-43.539
  0
LINE
  8
0
 10
203.654
 20
-43.539
 11
203.518
 21
-43.332
  0
LINE
  8
0
 10
203.518
 20
-43.332
 11
203.412
 21
-43.1073
  0
LINE
  8
0
 10
203.412
 20
-43.1073
 11
203.341
 21
-42.8696
  0
LINE
  8
0
 10
203.341
 20
-42.8696
 11
203.305
 21
-42.6241
  0
LINE
  8
0
 10
203.305
 20
-42.6241
 11
203.305
 21
-42.3759
  0
LINE
  8
0
 10
203.305
 20
-42.3759
 11
203.341
 21
-42.1304
  0
LINE
  8
0
 10
203.341
 20
-42.1304
 11
203.412
 21
-41.8927
  0
LINE
  8
0
 10
203.412
 20
-41.8927
 11
203.518
 21
-41.668
  0
LINE
  8
0
 10
203.518
 20
-41.668
 11
203.654
 21
-41.461
  0
LINE
  8
0
 10
203.654
 20
-41.461
 11
203.82
 21
-41.2762
  0
LINE
  8
0
 10
203.82
 20
-41.2762
 11
204.011
 21
-41.1174
  0
LINE
  8
0
 10
204.011
 20
-41.1174
 11
204.223
 21
-40.9881
  0
LINE
  8
0
 10
204.223
 20
-40.9881
 11
204.451
 21
-40.8911
  0
LINE
  8
0
 10
204.451
 20
-40.8911
 11
204.691
 21
-40.8283
  0
LINE
  8
0
 10
204.691
 20
-40.8283
 11
204.938
 21
-40.8011
  0
LINE
  8
0
 10
204.938
 20
-40.8011
 11
205.186
 21
-40.8102
  0
LINE
  8
0
 10
205.186
 20
-40.8102
 11
205.43
 21
-40.8553
  0
LINE
  8
0
 10
205.43
 20
-40.8553
 11
205.665
 21
-40.9354
  0
LINE
  8
0
 10
205.665
 20
-40.9354
 11
205.886
 21
-41.0489
  0
LINE
  8
0
 10
205.886
 20
-41.0489
 11
206.087
 21
-41.1933
  0
LINE
  8
0
 10
206.087
 20
-41.1933
 11
206.266
 21
-41.3656
  0
LINE
  8
0
 10
206.266
 20
-41.3656
 11
206.418
 21
-41.562
  0
LINE
  8
0
 10
206.418
 20
-41.562
 11
206.539
 21
-41.7784
  0
LINE
  8
0
 10
206.539
 20
-41.7784
 11
206.628
 21
-42.0102
  0
LINE
  8
0
 10
206.628
 20
-42.0102
 11
206.682
 21
-42.2525
  0
LINE
  8
0
 10
206.682
 20
-42.2525
 11
206.7
 21
-42.5
  0
LINE
  8
0
 10
206.7
 20
-42.5
 11
206.682
 21
-42.7475
  0
LINE
  8
0
 10
206.682
 20
-42.7475
 11
206.628
 21
-42.9898
  0
LINE
  8
0
 10
206.628
 20
-42.9898
 11
206.539
 21
-43.2216
  0
LINE
  8
0
 10
206.539
 20
-43.2216
 11
206.418
 21
-43.438
  0
LINE
  8
0
 10
206.418
 20
-43.438
 11
206.266
 21
-43.6344
  0
LINE
  8
0
 10
206.266
 20
-43.6344
 11
206.087
 21
-43.8067
  0
LINE
  8
0
 10
206.087
 20
-43.8067
 11
205.886
 21
-43.9511
  0
LINE
  8
0
 10
205.886
 20
-43.9511
 11
205.665
 21
-44.0646
  0
LINE
  8
0
 10
205.665
 20
-44.0646
 11
205.43
 21
-44.1447
  0
LINE
  8
0
 10
205.43
 20
-44.1447
 11
205.186
 21
-44.1898
  0
LINE
  8
0
 10
205.186
 20
-44.1898
 11
204.938
 21
-44.1989
  0
LINE
  8
0
 10
204.938
 20
-44.1989
 11
204.691
 21
-44.1717
  0
LINE
  8
0
 10
-205.186
 20
-44.1898
 11
-205.43
 21
-44.1447
  0
LINE
  8
0
 10
-205.43
 20
-44.1447
 11
-205.665
 21
-44.0646
  0
LINE
  8
0
 10
-205.665
 20
-44.0646
 11
-205.886
 21
-43.9511
  0
LINE
  8
0
 10
-205.886
 20
-43.9511
 11
-206.087
 21
-43.8067
  0
LINE
  8
0
 10
-206.087
 20
-43.8067
 11
-206.266
 21
-43.6344
  0
LINE
  8
0
 10
-206.266
 20
-43.6344
 11
-206.418
 21
-43.438
  0
LINE
  8
0
 10
-206.418
 20
-43.438
 11
-206.539
 21
-43.2216
  0
LINE
  8
0
 10
-206.539
 20
-43.2216
 11
-206.628
 21
-42.9898
  0
LINE
  8
0
 10
-206.628
 20
-42.9898
 11
-206.682
 21
-42.7475
  0
LINE
  8
0
 10
-206.682
 20
-42.7475
 11
-206.7
 21
-42.5
  0
LINE
  8
0
 10
-206.7
 20
-42.5
 11
-206.682
 21
-42.2525
  0
LINE
  8
0
 10
-206.682
 20
-42.2525
 11
-206.628
 21
-42.0102
  0
LINE
  8
0
 10
-206.628
 20
-42.0102
 11
-206.539
 21
-41.7784
  0
LINE
  8
0
 10
-206.539
 20
-41.7784
 11
-206.418
 21
-41.562
  0
LINE
  8
0
 10
-206.418
 20
-41.562
 11
-206.266
 21
-41.3656
  0
LINE
  8
0
 10
-206.266
 20
-41.3656
 11
-206.087
 21
-41.1933
  0
LINE
  8
0
 10
-206.087
 20
-41.1933
 11
-205.886
 21
-41.0489
  0
LINE
  8
0
 10
-205.886
 20
-41.0489
 11
-205.665
 21
-40.9354
  0
LINE
  8
0
 10
-205.665
 20
-40.9354
 11
-205.43
 21
-40.8553
  0
LINE
  8
0
 10
-205.43
 20
-40.8553
 11
-205.186
 21
-40.8102
  0
LINE
  8
0
 10
-205.186
 20
-40.8102
 11
-204.938
 21
-40.8011
  0
LINE
  8
0
 10
-204.938
 20
-40.8011
 11
-204.691
 21
-40.8283
  0
LINE
  8
0
 10
-204.691
 20
-40.8283
 11
-204.451
 21
-40.8911
  0
LINE
  8
0
 10
-204.451
 20
-40.8911
 11
-204.223
 21
-40.9881
  0
LINE
  8
0
 10
-204.223
 20
-40.9881
 11
-204.011
 21
-41.1174
  0
LINE
  8
0
 10
-204.011
 20
-41.1174
 11
-203.82
 21
-41.2762
  0
LINE
  8
0
 10
-203.82
 20
-41.2762
 11
-203.654
 21
-41.461
  0
LINE
  8
0
 10
-203.654
 20
-41.461
 11
-203.518
 21
-41.668
  0
LINE
  8
0
 10
-203.518
 20
-41.668
 11
-203.412
 21
-41.8927
  0
LINE
  8
0
 10
-203.412
 20
-41.8927
 11
-203.341
 21
-42.1304
  0
LINE
  8
0
 10
-203.341
 20
-42.1304
 11
-203.305
 21
-42.3759
  0
LINE
  8
0
 10
-203.305
 20
-42.3759
 11
-203.305
 21
-42.6241
  0
LINE
  8
0
 10
-203.305
 20
-42.6241
 11
-203.341
 21
-42.8696
  0
LINE
  8
0
 10
-203.341
 20
-42.8696
 11
-203.412
 21
-43.1073
  0
LINE
  8
0
 10
-203.412
 20
-43.1073
 11
-203.518
 21
-43.332
  0
LINE
  8
0
 10
-203.518
 20
-43.332
 11
-203.654
 21
-43.539
  0
LINE
  8
0
 10
-203.654
 20
-43.539
 11
-203.82
 21
-43.7238
  0
LINE
  8
0
 10
-203.82
 20
-43.7238
 11
-204.011
 21
-43.8826
  0
LINE
  8
0
 10
-204.011
 20
-43.8826
 11
-204.223
 21
-44.0119
  0
LINE
  8
0
 10
-204.223
 20
-44.0119
 11
-204.451
 21
-44.1089
  0
LINE
  8
0
 10
-204.451
 20
-44.1089
 11
-204.691
 21
-44.1717
  0
LINE
  8
0
 10
-204.691
 20
-44.1717
 11
-204.938
 21
-44.1989
  0
LINE
  8
0
 10
-204.938
 20
-44.1989
 11
-205.186
 21
-44.1898
  0
LINE
  8
0
 10
-205.392
 20
-88.7294
 11
-205.78
 21
-88.668
  0
LINE
  8
0
 10
-205.78
 20
-88.668
 11
-206.159
 21
-88.5665
  0
LINE
  8
0
 10
-206.159
 20
-88.5665
 11
-206.525
 21
-88.4258
  0
LINE
  8
0
 10
-206.525
 20
-88.4258
 11
-206.875
 21
-88.2476
  0
LINE
  8
0
 10
-206.875
 20
-88.2476
 11
-207.204
 21
-88.0338
  0
LINE
  8
0
 10
-207.204
 20
-88.0338
 11
-207.509
 21
-87.7868
  0
LINE
  8
0
 10
-207.509
 20
-87.7868
 11
-207.787
 21
-87.5092
  0
LINE
  8
0
 10
-207.787
 20
-87.5092
 11
-208.034
 21
-87.2042
  0
LINE
  8
0
 10
-208.034
 20
-87.2042
 11
-208.248
 21
-86.875
  0
LINE
  8
0
 10
-208.248
 20
-86.875
 11
-208.426
 21
-86.5253
  0
LINE
  8
0
 10
-208.426
 20
-86.5253
 11
-208.566
 21
-86.1588
  0
LINE
  8
0
 10
-208.566
 20
-86.1588
 11
-208.668
 21
-85.7797
  0
LINE
  8
0
 10
-208.668
 20
-85.7797
 11
-208.729
 21
-85.392
  0
LINE
  8
0
 10
-208.729
 20
-85.392
 11
-208.75
 21
-85
  0
LINE
  8
0
 10
-208.75
 20
-85
 11
-208.729
 21
-84.608
  0
LINE
  8
0
 10
-208.729
 20
-84.608
 11
-208.668
 21
-84.2203
  0
LINE
  8
0
 10
-208.668
 20
-84.2203
 11
-208.566
 21
-83.8412
  0
LINE
  8
0
 10
-208.566
 20
-83.8412
 11
-208.426
 21
-83.4747
  0
LINE
  8
0
 10
-208.426
 20
-83.4747
 11
-208.248
 21
-83.125
  0
LINE
  8
0
 10
-208.248
 20
-83.125
 11
-208.034
 21
-82.7958
  0
LINE
  8
0
 10
-208.034
 20
-82.7958
 11
-207.787
 21
-82.4908
  0
LINE
  8
0
 10
-207.787
 20
-82.4908
 11
-207.509
 21
-82.2132
  0
LINE
  8
0
 10
-207.509
 20
-82.2132
 11
-207.204
 21
-81.9662
  0
LINE
  8
0
 10
-207.204
 20
-81.9662
 11
-206.875
 21
-81.7524
  0
LINE
  8
0
 10
-206.875
 20
-81.7524
 11
-206.525
 21
-81.5742
  0
LINE
  8
0
 10
-206.525
 20
-81.5742
 11
-206.159
 21
-81.4335
  0
LINE
  8
0
 10
-206.159
 20
-81.4335
 11
-205.78
 21
-81.3319
  0
LINE
  8
0
 10
-205.78
 20
-81.3319
 11
-205.392
 21
-81.2705
  0
LINE
  8
0
 10
-205.392
 20
-81.2705
 11
-205
 21
-81.25
  0
LINE
  8
0
 10
-205
 20
-81.25
 11
-204.608
 21
-81.2705
  0
LINE
  8
0
 10
-204.608
 20
-81.2705
 11
-204.22
 21
-81.3319
  0
LINE
  8
0
 10
-204.22
 20
-81.3319
 11
-203.841
 21
-81.4335
  0
LINE
  8
0
 10
-203.841
 20
-81.4335
 11
-203.475
 21
-81.5742
  0
LINE
  8
0
 10
-203.475
 20
-81.5742
 11
-203.125
 21
-81.7524
  0
LINE
  8
0
 10
-203.125
 20
-81.7524
 11
-202.796
 21
-81.9662
  0
LINE
  8
0
 10
-202.796
 20
-81.9662
 11
-202.491
 21
-82.2132
  0
LINE
  8
0
 10
-202.491
 20
-82.2132
 11
-202.213
 21
-82.4908
  0
LINE
  8
0
 10
-202.213
 20
-82.4908
 11
-201.966
 21
-82.7958
  0
LINE
  8
0
 10
-201.966
 20
-82.7958
 11
-201.752
 21
-83.125
  0
LINE
  8
0
 10
-201.752
 20
-83.125
 11
-201.574
 21
-83.4747
  0
LINE
  8
0
 10
-201.574
 20
-83.4747
 11
-201.434
 21
-83.8412
  0
LINE
  8
0
 10
-201.434
 20
-83.8412
 11
-201.332
 21
-84.2203
  0
LINE
  8
0
 10
-201.332
 20
-84.2203
 11
-201.271
 21
-84.608
  0
LINE
  8
0
 10
-201.271
 20
-84.608
 11
-201.25
 21
-85
  0
LINE
  8
0
 10
-201.25
 20
-85
 11
-201.271
 21
-85.392
  0
LINE
  8
0
 10
-201.271
 20
-85.392
 11
-201.332
 21
-85.7797
  0
LINE
  8
0
 10
-201.332
 20
-85.7797
 11
-201.434
 21
-86.1588
  0
LINE
  8
0
 10
-201.434
 20
-86.1588
 11
-201.574
 21
-86.5253
  0
LINE
  8
0
 10
-201.574
 20
-86.5253
 11
-201.752
 21
-86.875
  0
LINE
  8
0
 10
-201.752
 20
-86.875
 11
-201.966
 21
-87.2042
  0
LINE
  8
0
 10
-201.966
 20
-87.2042
 11
-202.213
 21
-87.5092
  0
LINE
  8
0
 10
-202.213
 20
-87.5092
 11
-202.491
 21
-87.7868
  0
LINE
  8
0
 10
-202.491
 20
-87.7868
 11
-202.796
 21
-88.0338
  0
LINE
  8
0
 10
-202.796
 20
-88.0338
 11
-203.125
 21
-88.2476
  0
LINE
  8
0
 10
-203.125
 20
-88.2476
 11
-203.475
 21
-88.4258
  0
LINE
  8
0
 10
-203.475
 20
-88.4258
 11
-203.841
 21
-88.5665
  0
LINE
  8
0
 10
-203.841
 20
-88.5665
 11
-204.22
 21
-88.668
  0
LINE
  8
0
 10
-204.22
 20
-88.668
 11
-204.608
 21
-88.7294
  0
LINE
  8
0
 10
-204.608
 20
-88.7294
 11
-205
 21
-88.75
  0
LINE
  8
0
 10
-205
 20
-88.75
 11
-205.392
 21
-88.7294
  0
LINE
  8
0
 10
204.608
 20
-88.7294
 11
204.22
 21
-88.668
  0
LINE
  8
0
 10
204.22
 20
-88.668
 11
203.841
 21
-88.5665
  0
LINE
  8
0
 10
203.841
 20
-88.5665
 11
203.475
 21
-88.4258
  0
LINE
  8
0
 10
203.475
 20
-88.4258
 11
203.125
 21
-88.2476
  0
LINE
  8
0
 10
203.125
 20
-88.2476
 11
202.796
 21
-88.0338
  0
LINE
  8
0
 10
202.796
 20
-88.0338
 11
202.491
 21
-87.7868
  0
LINE
  8
0
 10
202.491
 20
-87.7868
 11
202.213
 21
-87.5092
  0
LINE
  8
0
 10
202.213
 20
-87.5092
 11
201.966
 21
-87.2042
  0
LINE
  8
0
 10
201.966
 20
-87.2042
 11
201.752
 21
-86.875
  0
LINE
  8
0
 10
201.752
 20
-86.875
 11
201.574
 21
-86.5253
  0
LINE
  8
0
 10
201.574
 20
-86.5253
 11
201.434
 21
-86.1588
  0
LINE
  8
0
 10
201.434
 20
-86.1588
 11
201.332
 21
-85.7797
  0
LINE
  8
0
 10
201.332
 20
-85.7797
 11
201.271
 21
-85.392
  0
LINE
  8
0
 10
201.271
 20
-85.392
 11
201.25
 21
-85
  0
LINE
  8
0
 10
201.25
 20
-85
 11
201.271
 21
-84.608
  0
LINE
  8
0
 10
201.271
 20
-84.608
 11
201.332
 21
-84.2203
  0
LINE
  8
0
 10
201.332
 20
-84.2203
 11
201.434
 21
-83.8412
  0
LINE
  8
0
 10
201.434
 20
-83.8412
 11
201.574
 21
-83.4747
  0
LINE
  8
0
 10
201.574
 20
-83.4747
 11
201.752
 21
-83.125
  0
LINE
  8
0
 10
201.752
 20
-83.125
 11
201.966
 21
-82.7958
  0
LINE
  8
0
 10
201.966
 20
-82.7958
 11
202.213
 21
-82.4908
  0
LINE
  8
0
 10
202.213
 20
-82.4908
 11
202.491
 21
-82.2132
  0
LINE
  8
0
 10
202.491
 20
-82.2132
 11
202.796
 21
-81.9662
  0
LINE
  8
0
 10
202.796
 20
-81.9662
 11
203.125
 21
-81.7524
  0
LINE
  8
0
 10
203.125
 20
-81.7524
 11
203.475
 21
-81.5742
  0
LINE
  8
0
 10
203.475
 20
-81.5742
 11
203.841
 21
-81.4335
  0
LINE
  8
0
 10
203.841
 20
-81.4335
 11
204.22
 21
-81.3319
  0
LINE
  8
0
 10
204.22
 20
-81.3319
 11
204.608
 21
-81.2705
  0
LINE
  8
0
 10
204.608
 20
-81.2705
 11
205
 21
-81.25
  0
LINE
  8
0
 10
205
 20
-81.25
 11
205.392
 21
-81.2705
  0
LINE
  8
0
 10
205.392
 20
-81.2705
 11
205.78
 21
-81.3319
  0
LINE
  8
0
 10
205.78
 20
-81.3319
 11
206.159
 21
-81.4335
  0
LINE
  8
0
 10
206.159
 20
-81.4335
 11
206.525
 21
-81.5742
  0
LINE
  8
0
 10
206.525
 20
-81.5742
 11
206.875
 21
-81.7524
  0
LINE
  8
0
 10
206.875
 20
-81.7524
 11
207.204
 21
-81.9662
  0
LINE
  8
0
 10
207.204
 20
-81.9662
 11
207.509
 21
-82.2132
  0
LINE
  8
0
 10
207.509
 20
-82.2132
 11
207.787
 21
-82.4908
  0
LINE
  8
0
 10
207.787
 20
-82.4908
 11
208.034
 21
-82.7958
  0
LINE
  8
0
 10
208.034
 20
-82.7958
 11
208.248
 21
-83.125
  0
LINE
  8
0
 10
208.248
 20
-83.125
 11
208.426
 21
-83.4747
  0
LINE
  8
0
 10
208.426
 20
-83.4747
 11
208.566
 21
-83.8412
  0
LINE
  8
0
 10
208.566
 20
-83.8412
 11
208.668
 21
-84.2203
  0
LINE
  8
0
 10
208.668
 20
-84.2203
 11
208.729
 21
-84.608
  0
LINE
  8
0
 10
208.729
 20
-84.608
 11
208.75
 21
-85
  0
LINE
  8
0
 10
208.75
 20
-85
 11
208.729
 21
-85.392
  0
LINE
  8
0
 10
208.729
 20
-85.392
 11
208.668
 21
-85.7797
  0
LINE
  8
0
 10
208.668
 20
-85.7797
 11
208.566
 21
-86.1588
  0
LINE
  8
0
 10
208.566
 20
-86.1588
 11
208.426
 21
-86.5253
  0
LINE
  8
0
 10
208.426
 20
-86.5253
 11
208.248
 21
-86.875
  0
LINE
  8
0
 10
208.248
 20
-86.875
 11
208.034
 21
-87.2042
  0
LINE
  8
0
 10
208.034
 20
-87.2042
 11
207.787
 21
-87.5092
  0
LINE
  8
0
 10
207.787
 20
-87.5092
 11
207.509
 21
-87.7868
  0
LINE
  8
0
 10
207.509
 20
-87.7868
 11
207.204
 21
-88.0338
  0
LINE
  8
0
 10
207.204
 20
-88.0338
 11
206.875
 21
-88.2476
  0
LINE
  8
0
 10
206.875
 20
-88.2476
 11
206.525
 21
-88.4258
  0
LINE
  8
0
 10
206.525
 20
-88.4258
 11
206.159
 21
-88.5665
  0
LINE
  8
0
 10
206.159
 20
-88.5665
 11
205.78
 21
-88.668
  0
LINE
  8
0
 10
205.78
 20
-88.668
 11
205.392
 21
-88.7294
  0
LINE
  8
0
 10
205.392
 20
-88.7294
 11
205
 21
-88.75
  0
LINE
  8
0
 10
205
 20
-88.75
 11
204.608
 21
-88.7294
  0
ENDSEC
  0
SECTION
  2
OBJECTS
  0
DICTIONARY
  0
ENDSEC
  0
EOF
