  0
SECTION
  2
BLOCKS
  0
ENDSEC
  0
SECTION
  2
ENTITIES
  0
LINE
  8
0
 10
193.023
 20
-76.3226
 11
193.54
 21
-76.2407
  0
LINE
  8
0
 10
193.54
 20
-76.2407
 11
194.045
 21
-76.1053
  0
LINE
  8
0
 10
194.045
 20
-76.1053
 11
194.534
 21
-75.9177
  0
LINE
  8
0
 10
194.534
 20
-75.9177
 11
195
 21
-75.6801
  0
LINE
  8
0
 10
195
 20
-75.6801
 11
195.439
 21
-75.3951
  0
LINE
  8
0
 10
195.439
 20
-75.3951
 11
195.846
 21
-75.0657
  0
LINE
  8
0
 10
195.846
 20
-75.0657
 11
196.216
 21
-74.6956
  0
LINE
  8
0
 10
196.216
 20
-74.6956
 11
196.545
 21
-74.2889
  0
LINE
  8
0
 10
196.545
 20
-74.2889
 11
196.83
 21
-73.85
  0
LINE
  8
0
 10
196.83
 20
-73.85
 11
197.068
 21
-73.3837
  0
LINE
  8
0
 10
197.068
 20
-73.3837
 11
197.255
 21
-72.8951
  0
LINE
  8
0
 10
197.255
 20
-72.8951
 11
197.391
 21
-72.3896
  0
LINE
  8
0
 10
197.391
 20
-72.3896
 11
197.473
 21
-71.8726
  0
LINE
  8
0
 10
197.473
 20
-71.8726
 11
197.5
 21
-71.35
  0
LINE
  8
0
 10
197.5
 20
-71.35
 11
197.5
 21
95.55
  0
LINE
  8
0
 10
197.5
 20
95.55
 11
-197.5
 21
95.55
  0
LINE
  8
0
 10
-197.5
 20
95.55
 11
-197.5
 21
-71.35
  0
LINE
  8
0
 10
-197.5
 20
-71.35
 11
-197.473
 21
-71.8726
  0
LINE
  8
0
 10
-197.473
 20
-71.8726
 11
-197.391
 21
-72.3896
  0
LINE
  8
0
 10
-197.391
 20
-72.3896
 11
-197.255
 21
-72.8951
  0
LINE
  8
0
 10
-197.255
 20
-72.8951
 11
-197.068
 21
-73.3837
  0
LINE
  8
0
 10
-197.068
 20
-73.3837
 11
-196.83
 21
-73.85
  0
LINE
  8
0
 10
-196.83
 20
-73.85
 11
-196.545
 21
-74.2889
  0
LINE
  8
0
 10
-196.545
 20
-74.2889
 11
-196.216
 21
-74.6956
  0
LINE
  8
0
 10
-196.216
 20
-74.6956
 11
-195.846
 21
-75.0657
  0
LINE
  8
0
 10
-195.846
 20
-75.0657
 11
-195.439
 21
-75.3951
  0
LINE
  8
0
 10
-195.439
 20
-75.3951
 11
-195
 21
-75.6801
  0
LINE
  8
0
 10
-195
 20
-75.6801
 11
-194.534
 21
-75.9177
  0
LINE
  8
0
 10
-194.534
 20
-75.9177
 11
-194.045
 21
-76.1053
  0
LINE
  8
0
 10
-194.045
 20
-76.1053
 11
-193.54
 21
-76.2407
  0
LINE
  8
0
 10
-193.54
 20
-76.2407
 11
-193.023
 21
-76.3226
  0
LINE
  8
0
 10
-193.023
 20
-76.3226
 11
-192.5
 21
-76.35
  0
LINE
  8
0
 10
-192.5
 20
-76.35
 11
192.5
 21
-76.35
  0
LINE
  8
0
 10
192.5
 20
-76.35
 11
193.023
 21
-76.3226
  0
LINE
  8
0
 10
-81.5588
 20
86.5033
 11
-81.7989
 21
86.5661
  0
LINE
  8
0
 10
-81.7989
 20
86.5661
 11
-82.0273
 21
86.6631
  0
LINE
  8
0
 10
-82.0273
 20
86.6631
 11
-82.2392
 21
86.7924
  0
LINE
  8
0
 10
-82.2392
 20
86.7924
 11
-82.4299
 21
86.9512
  0
LINE
  8
0
 10
-82.4299
 20
86.9512
 11
-82.5955
 21
87.136
  0
LINE
  8
0
 10
-82.5955
 20
87.136
 11
-82.7325
 21
87.343
  0
LINE
  8
0
 10
-82.7325
 20
87.343
 11
-82.8378
 21
87.5677
  0
LINE
  8
0
 10
-82.8378
 20
87.5677
 11
-82.9093
 21
87.8054
  0
LINE
  8
0
 10
-82.9093
 20
87.8054
 11
-82.9455
 21
88.0509
  0
LINE
  8
0
 10
-82.9455
 20
88.0509
 11
-82.9455
 21
88.2991
  0
LINE
  8
0
 10
-82.9455
 20
88.2991
 11
-82.9093
 21
88.5446
  0
LINE
  8
0
 10
-82.9093
 20
88.5446
 11
-82.8378
 21
88.7823
  0
LINE
  8
0
 10
-82.8378
 20
88.7823
 11
-82.7325
 21
89.007
  0
LINE
  8
0
 10
-82.7325
 20
89.007
 11
-82.5955
 21
89.214
  0
LINE
  8
0
 10
-82.5955
 20
89.214
 11
-82.4299
 21
89.3988
  0
LINE
  8
0
 10
-82.4299
 20
89.3988
 11
-82.2392
 21
89.5576
  0
LINE
  8
0
 10
-82.2392
 20
89.5576
 11
-82.0273
 21
89.6869
  0
LINE
  8
0
 10
-82.0273
 20
89.6869
 11
-81.7989
 21
89.784
  0
LINE
  8
0
 10
-81.7989
 20
89.784
 11
-81.5588
 21
89.8467
  0
LINE
  8
0
 10
-81.5588
 20
89.8467
 11
-81.3121
 21
89.8739
  0
LINE
  8
0
 10
-81.3121
 20
89.8739
 11
-81.0641
 21
89.8648
  0
LINE
  8
0
 10
-81.0641
 20
89.8648
 11
-80.82
 21
89.8197
  0
LINE
  8
0
 10
-80.82
 20
89.8197
 11
-80.5851
 21
89.7396
  0
LINE
  8
0
 10
-80.5851
 20
89.7396
 11
-80.3644
 21
89.6261
  0
LINE
  8
0
 10
-80.3644
 20
89.6261
 11
-80.1626
 21
89.4817
  0
LINE
  8
0
 10
-80.1626
 20
89.4817
 11
-79.9839
 21
89.3094
  0
LINE
  8
0
 10
-79.9839
 20
89.3094
 11
-79.8322
 21
89.113
  0
LINE
  8
0
 10
-79.8322
 20
89.113
 11
-79.7107
 21
88.8966
  0
LINE
  8
0
 10
-79.7107
 20
88.8966
 11
-79.6221
 21
88.6648
  0
LINE
  8
0
 10
-79.6221
 20
88.6648
 11
-79.5681
 21
88.4225
  0
LINE
  8
0
 10
-79.5681
 20
88.4225
 11
-79.55
 21
88.175
  0
LINE
  8
0
 10
-79.55
 20
88.175
 11
-79.5681
 21
87.9275
  0
LINE
  8
0
 10
-79.5681
 20
87.9275
 11
-79.6221
 21
87.6852
  0
LINE
  8
0
 10
-79.6221
 20
87.6852
 11
-79.7107
 21
87.4534
  0
LINE
  8
0
 10
-79.7107
 20
87.4534
 11
-79.8322
 21
87.237
  0
LINE
  8
0
 10
-79.8322
 20
87.237
 11
-79.9839
 21
87.0406
  0
LINE
  8
0
 10
-79.9839
 20
87.0406
 11
-80.1626
 21
86.8683
  0
LINE
  8
0
 10
-80.1626
 20
86.8683
 11
-80.3644
 21
86.7239
  0
LINE
  8
0
 10
-80.3644
 20
86.7239
 11
-80.5851
 21
86.6104
  0
LINE
  8
0
 10
-80.5851
 20
86.6104
 11
-80.82
 21
86.5303
  0
LINE
  8
0
 10
-80.82
 20
86.5303
 11
-81.0641
 21
86.4852
  0
LINE
  8
0
 10
-81.0641
 20
86.4852
 11
-81.3121
 21
86.4761
  0
LINE
  8
0
 10
-81.3121
 20
86.4761
 11
-81.5588
 21
86.5033
  0
LINE
  8
0
 10
-162.809
 20
86.5033
 11
-163.049
 21
86.5661
  0
LINE
  8
0
 10
-163.049
 20
86.5661
 11
-163.277
 21
86.6631
  0
LINE
  8
0
 10
-163.277
 20
86.6631
 11
-163.489
 21
86.7924
  0
LINE
  8
0
 10
-163.489
 20
86.7924
 11
-163.68
 21
86.9512
  0
LINE
  8
0
 10
-163.68
 20
86.9512
 11
-163.846
 21
87.136
  0
LINE
  8
0
 10
-163.846
 20
87.136
 11
-163.982
 21
87.343
  0
LINE
  8
0
 10
-163.982
 20
87.343
 11
-164.088
 21
87.5677
  0
LINE
  8
0
 10
-164.088
 20
87.5677
 11
-164.159
 21
87.8054
  0
LINE
  8
0
 10
-164.159
 20
87.8054
 11
-164.195
 21
88.0509
  0
LINE
  8
0
 10
-164.195
 20
88.0509
 11
-164.195
 21
88.2991
  0
LINE
  8
0
 10
-164.195
 20
88.2991
 11
-164.159
 21
88.5446
  0
LINE
  8
0
 10
-164.159
 20
88.5446
 11
-164.088
 21
88.7823
  0
LINE
  8
0
 10
-164.088
 20
88.7823
 11
-163.982
 21
89.007
  0
LINE
  8
0
 10
-163.982
 20
89.007
 11
-163.846
 21
89.214
  0
LINE
  8
0
 10
-163.846
 20
89.214
 11
-163.68
 21
89.3988
  0
LINE
  8
0
 10
-163.68
 20
89.3988
 11
-163.489
 21
89.5576
  0
LINE
  8
0
 10
-163.489
 20
89.5576
 11
-163.277
 21
89.6869
  0
LINE
  8
0
 10
-163.277
 20
89.6869
 11
-163.049
 21
89.784
  0
LINE
  8
0
 10
-163.049
 20
89.784
 11
-162.809
 21
89.8467
  0
LINE
  8
0
 10
-162.809
 20
89.8467
 11
-162.562
 21
89.8739
  0
LINE
  8
0
 10
-162.562
 20
89.8739
 11
-162.314
 21
89.8648
  0
LINE
  8
0
 10
-162.314
 20
89.8648
 11
-162.07
 21
89.8197
  0
LINE
  8
0
 10
-162.07
 20
89.8197
 11
-161.835
 21
89.7396
  0
LINE
  8
0
 10
-161.835
 20
89.7396
 11
-161.614
 21
89.6261
  0
LINE
  8
0
 10
-161.614
 20
89.6261
 11
-161.413
 21
89.4817
  0
LINE
  8
0
 10
-161.413
 20
89.4817
 11
-161.234
 21
89.3094
  0
LINE
  8
0
 10
-161.234
 20
89.3094
 11
-161.082
 21
89.113
  0
LINE
  8
0
 10
-161.082
 20
89.113
 11
-160.961
 21
88.8966
  0
LINE
  8
0
 10
-160.961
 20
88.8966
 11
-160.872
 21
88.6648
  0
LINE
  8
0
 10
-160.872
 20
88.6648
 11
-160.818
 21
88.4225
  0
LINE
  8
0
 10
-160.818
 20
88.4225
 11
-160.8
 21
88.175
  0
LINE
  8
0
 10
-160.8
 20
88.175
 11
-160.818
 21
87.9275
  0
LINE
  8
0
 10
-160.818
 20
87.9275
 11
-160.872
 21
87.6852
  0
LINE
  8
0
 10
-160.872
 20
87.6852
 11
-160.961
 21
87.4534
  0
LINE
  8
0
 10
-160.961
 20
87.4534
 11
-161.082
 21
87.237
  0
LINE
  8
0
 10
-161.082
 20
87.237
 11
-161.234
 21
87.0406
  0
LINE
  8
0
 10
-161.234
 20
87.0406
 11
-161.413
 21
86.8683
  0
LINE
  8
0
 10
-161.413
 20
86.8683
 11
-161.614
 21
86.7239
  0
LINE
  8
0
 10
-161.614
 20
86.7239
 11
-161.835
 21
86.6104
  0
LINE
  8
0
 10
-161.835
 20
86.6104
 11
-162.07
 21
86.5303
  0
LINE
  8
0
 10
-162.07
 20
86.5303
 11
-162.314
 21
86.4852
  0
LINE
  8
0
 10
-162.314
 20
86.4852
 11
-162.562
 21
86.4761
  0
LINE
  8
0
 10
-162.562
 20
86.4761
 11
-162.809
 21
86.5033
  0
LINE
  8
0
 10
80.9412
 20
86.5033
 11
80.7011
 21
86.5661
  0
LINE
  8
0
 10
80.7011
 20
86.5661
 11
80.4727
 21
86.6631
  0
LINE
  8
0
 10
80.4727
 20
86.6631
 11
80.2608
 21
86.7924
  0
LINE
  8
0
 10
80.2608
 20
86.7924
 11
80.0701
 21
86.9512
  0
LINE
  8
0
 10
80.0701
 20
86.9512
 11
79.9044
 21
87.136
  0
LINE
  8
0
 10
79.9044
 20
87.136
 11
79.7675
 21
87.343
  0
LINE
  8
0
 10
79.7675
 20
87.343
 11
79.6622
 21
87.5677
  0
LINE
  8
0
 10
79.6622
 20
87.5677
 11
79.5907
 21
87.8054
  0
LINE
  8
0
 10
79.5907
 20
87.8054
 11
79.5545
 21
88.0509
  0
LINE
  8
0
 10
79.5545
 20
88.0509
 11
79.5545
 21
88.2991
  0
LINE
  8
0
 10
79.5545
 20
88.2991
 11
79.5907
 21
88.5446
  0
LINE
  8
0
 10
79.5907
 20
88.5446
 11
79.6622
 21
88.7823
  0
LINE
  8
0
 10
79.6622
 20
88.7823
 11
79.7675
 21
89.007
  0
LINE
  8
0
 10
79.7675
 20
89.007
 11
79.9044
 21
89.214
  0
LINE
  8
0
 10
79.9044
 20
89.214
 11
80.0701
 21
89.3988
  0
LINE
  8
0
 10
80.0701
 20
89.3988
 11
80.2608
 21
89.5576
  0
LINE
  8
0
 10
80.2608
 20
89.5576
 11
80.4727
 21
89.6869
  0
LINE
  8
0
 10
80.4727
 20
89.6869
 11
80.7011
 21
89.784
  0
LINE
  8
0
 10
80.7011
 20
89.784
 11
80.9412
 21
89.8467
  0
LINE
  8
0
 10
80.9412
 20
89.8467
 11
81.1879
 21
89.8739
  0
LINE
  8
0
 10
81.1879
 20
89.8739
 11
81.4359
 21
89.8648
  0
LINE
  8
0
 10
81.4359
 20
89.8648
 11
81.68
 21
89.8197
  0
LINE
  8
0
 10
81.68
 20
89.8197
 11
81.9149
 21
89.7396
  0
LINE
  8
0
 10
81.9149
 20
89.7396
 11
82.1356
 21
89.6261
  0
LINE
  8
0
 10
82.1356
 20
89.6261
 11
82.3374
 21
89.4817
  0
LINE
  8
0
 10
82.3374
 20
89.4817
 11
82.5161
 21
89.3094
  0
LINE
  8
0
 10
82.5161
 20
89.3094
 11
82.6678
 21
89.113
  0
LINE
  8
0
 10
82.6678
 20
89.113
 11
82.7893
 21
88.8966
  0
LINE
  8
0
 10
82.7893
 20
88.8966
 11
82.8779
 21
88.6648
  0
LINE
  8
0
 10
82.8779
 20
88.6648
 11
82.9319
 21
88.4225
  0
LINE
  8
0
 10
82.9319
 20
88.4225
 11
82.95
 21
88.175
  0
LINE
  8
0
 10
82.95
 20
88.175
 11
82.9319
 21
87.9275
  0
LINE
  8
0
 10
82.9319
 20
87.9275
 11
82.8779
 21
87.6852
  0
LINE
  8
0
 10
82.8779
 20
87.6852
 11
82.7893
 21
87.4534
  0
LINE
  8
0
 10
82.7893
 20
87.4534
 11
82.6678
 21
87.237
  0
LINE
  8
0
 10
82.6678
 20
87.237
 11
82.5161
 21
87.0406
  0
LINE
  8
0
 10
82.5161
 20
87.0406
 11
82.3374
 21
86.8683
  0
LINE
  8
0
 10
82.3374
 20
86.8683
 11
82.1356
 21
86.7239
  0
LINE
  8
0
 10
82.1356
 20
86.7239
 11
81.9149
 21
86.6104
  0
LINE
  8
0
 10
81.9149
 20
86.6104
 11
81.68
 21
86.5303
  0
LINE
  8
0
 10
81.68
 20
86.5303
 11
81.4359
 21
86.4852
  0
LINE
  8
0
 10
81.4359
 20
86.4852
 11
81.1879
 21
86.4761
  0
LINE
  8
0
 10
81.1879
 20
86.4761
 11
80.9412
 21
86.5033
  0
LINE
  8
0
 10
162.191
 20
86.5033
 11
161.951
 21
86.5661
  0
LINE
  8
0
 10
161.951
 20
86.5661
 11
161.723
 21
86.6631
  0
LINE
  8
0
 10
161.723
 20
86.6631
 11
161.511
 21
86.7924
  0
LINE
  8
0
 10
161.511
 20
86.7924
 11
161.32
 21
86.9512
  0
LINE
  8
0
 10
161.32
 20
86.9512
 11
161.154
 21
87.136
  0
LINE
  8
0
 10
161.154
 20
87.136
 11
161.018
 21
87.343
  0
LINE
  8
0
 10
161.018
 20
87.343
 11
160.912
 21
87.5677
  0
LINE
  8
0
 10
160.912
 20
87.5677
 11
160.841
 21
87.8054
  0
LINE
  8
0
 10
160.841
 20
87.8054
 11
160.805
 21
88.0509
  0
LINE
  8
0
 10
160.805
 20
88.0509
 11
160.805
 21
88.2991
  0
LINE
  8
0
 10
160.805
 20
88.2991
 11
160.841
 21
88.5446
  0
LINE
  8
0
 10
160.841
 20
88.5446
 11
160.912
 21
88.7823
  0
LINE
  8
0
 10
160.912
 20
88.7823
 11
161.018
 21
89.007
  0
LINE
  8
0
 10
161.018
 20
89.007
 11
161.154
 21
89.214
  0
LINE
  8
0
 10
161.154
 20
89.214
 11
161.32
 21
89.3988
  0
LINE
  8
0
 10
161.32
 20
89.3988
 11
161.511
 21
89.5576
  0
LINE
  8
0
 10
161.511
 20
89.5576
 11
161.723
 21
89.6869
  0
LINE
  8
0
 10
161.723
 20
89.6869
 11
161.951
 21
89.784
  0
LINE
  8
0
 10
161.951
 20
89.784
 11
162.191
 21
89.8467
  0
LINE
  8
0
 10
162.191
 20
89.8467
 11
162.438
 21
89.8739
  0
LINE
  8
0
 10
162.438
 20
89.8739
 11
162.686
 21
89.8648
  0
LINE
  8
0
 10
162.686
 20
89.8648
 11
162.93
 21
89.8197
  0
LINE
  8
0
 10
162.93
 20
89.8197
 11
163.165
 21
89.7396
  0
LINE
  8
0
 10
163.165
 20
89.7396
 11
163.386
 21
89.6261
  0
LINE
  8
0
 10
163.386
 20
89.6261
 11
163.587
 21
89.4817
  0
LINE
  8
0
 10
163.587
 20
89.4817
 11
163.766
 21
89.3094
  0
LINE
  8
0
 10
163.766
 20
89.3094
 11
163.918
 21
89.113
  0
LINE
  8
0
 10
163.918
 20
89.113
 11
164.039
 21
88.8966
  0
LINE
  8
0
 10
164.039
 20
88.8966
 11
164.128
 21
88.6648
  0
LINE
  8
0
 10
164.128
 20
88.6648
 11
164.182
 21
88.4225
  0
LINE
  8
0
 10
164.182
 20
88.4225
 11
164.2
 21
88.175
  0
LINE
  8
0
 10
164.2
 20
88.175
 11
164.182
 21
87.9275
  0
LINE
  8
0
 10
164.182
 20
87.9275
 11
164.128
 21
87.6852
  0
LINE
  8
0
 10
164.128
 20
87.6852
 11
164.039
 21
87.4534
  0
LINE
  8
0
 10
164.039
 20
87.4534
 11
163.918
 21
87.237
  0
LINE
  8
0
 10
163.918
 20
87.237
 11
163.766
 21
87.0406
  0
LINE
  8
0
 10
163.766
 20
87.0406
 11
163.587
 21
86.8683
  0
LINE
  8
0
 10
163.587
 20
86.8683
 11
163.386
 21
86.7239
  0
LINE
  8
0
 10
163.386
 20
86.7239
 11
163.165
 21
86.6104
  0
LINE
  8
0
 10
163.165
 20
86.6104
 11
162.93
 21
86.5303
  0
LINE
  8
0
 10
162.93
 20
86.5303
 11
162.686
 21
86.4852
  0
LINE
  8
0
 10
162.686
 20
86.4852
 11
162.438
 21
86.4761
  0
LINE
  8
0
 10
162.438
 20
86.4761
 11
162.191
 21
86.5033
  0
LINE
  8
0
 10
-0.308777
 20
86.5033
 11
-0.548889
 21
86.5661
  0
LINE
  8
0
 10
-0.548889
 20
86.5661
 11
-0.777298
 21
86.6631
  0
LINE
  8
0
 10
-0.777298
 20
86.6631
 11
-0.989151
 21
86.7924
  0
LINE
  8
0
 10
-0.989151
 20
86.7924
 11
-1.17992
 21
86.9512
  0
LINE
  8
0
 10
-1.17992
 20
86.9512
 11
-1.34554
 21
87.136
  0
LINE
  8
0
 10
-1.34554
 20
87.136
 11
-1.48248
 21
87.343
  0
LINE
  8
0
 10
-1.48248
 20
87.343
 11
-1.58781
 21
87.5677
  0
LINE
  8
0
 10
-1.58781
 20
87.5677
 11
-1.65932
 21
87.8054
  0
LINE
  8
0
 10
-1.65932
 20
87.8054
 11
-1.69545
 21
88.0509
  0
LINE
  8
0
 10
-1.69545
 20
88.0509
 11
-1.69545
 21
88.2991
  0
LINE
  8
0
 10
-1.69545
 20
88.2991
 11
-1.65932
 21
88.5446
  0
LINE
  8
0
 10
-1.65932
 20
88.5446
 11
-1.58781
 21
88.7823
  0
LINE
  8
0
 10
-1.58781
 20
88.7823
 11
-1.48248
 21
89.007
  0
LINE
  8
0
 10
-1.48248
 20
89.007
 11
-1.34554
 21
89.214
  0
LINE
  8
0
 10
-1.34554
 20
89.214
 11
-1.17992
 21
89.3988
  0
LINE
  8
0
 10
-1.17992
 20
89.3988
 11
-0.989151
 21
89.5576
  0
LINE
  8
0
 10
-0.989151
 20
89.5576
 11
-0.777298
 21
89.6869
  0
LINE
  8
0
 10
-0.777298
 20
89.6869
 11
-0.548889
 21
89.784
  0
LINE
  8
0
 10
-0.548889
 20
89.784
 11
-0.308777
 21
89.8467
  0
LINE
  8
0
 10
-0.308777
 20
89.8467
 11
-0.0620728
 21
89.8739
  0
LINE
  8
0
 10
-0.0620728
 20
89.8739
 11
0.185928
 21
89.8648
  0
LINE
  8
0
 10
0.185928
 20
89.8648
 11
0.429977
 21
89.8197
  0
LINE
  8
0
 10
0.429977
 20
89.8197
 11
0.664871
 21
89.7396
  0
LINE
  8
0
 10
0.664871
 20
89.7396
 11
0.88559
 21
89.6261
  0
LINE
  8
0
 10
0.88559
 20
89.6261
 11
1.08743
 21
89.4817
  0
LINE
  8
0
 10
1.08743
 20
89.4817
 11
1.2661
 21
89.3094
  0
LINE
  8
0
 10
1.2661
 20
89.3094
 11
1.41779
 21
89.113
  0
LINE
  8
0
 10
1.41779
 20
89.113
 11
1.53926
 21
88.8966
  0
LINE
  8
0
 10
1.53926
 20
88.8966
 11
1.62791
 21
88.6648
  0
LINE
  8
0
 10
1.62791
 20
88.6648
 11
1.68187
 21
88.4225
  0
LINE
  8
0
 10
1.68187
 20
88.4225
 11
1.7
 21
88.175
  0
LINE
  8
0
 10
1.7
 20
88.175
 11
1.68187
 21
87.9275
  0
LINE
  8
0
 10
1.68187
 20
87.9275
 11
1.62791
 21
87.6852
  0
LINE
  8
0
 10
1.62791
 20
87.6852
 11
1.53926
 21
87.4534
  0
LINE
  8
0
 10
1.53926
 20
87.4534
 11
1.41779
 21
87.237
  0
LINE
  8
0
 10
1.41779
 20
87.237
 11
1.2661
 21
87.0406
  0
LINE
  8
0
 10
1.2661
 20
87.0406
 11
1.08743
 21
86.8683
  0
LINE
  8
0
 10
1.08743
 20
86.8683
 11
0.88559
 21
86.7239
  0
LINE
  8
0
 10
0.88559
 20
86.7239
 11
0.664871
 21
86.6104
  0
LINE
  8
0
 10
0.664871
 20
86.6104
 11
0.429977
 21
86.5303
  0
LINE
  8
0
 10
0.429977
 20
86.5303
 11
0.185928
 21
86.4852
  0
LINE
  8
0
 10
0.185928
 20
86.4852
 11
-0.0620728
 21
86.4761
  0
LINE
  8
0
 10
-0.0620728
 20
86.4761
 11
-0.308777
 21
86.5033
  0
ENDSEC
  0
SECTION
  2
OBJECTS
  0
DICTIONARY
  0
ENDSEC
  0
EOF
