  0
SECTION
  2
BLOCKS
  0
ENDSEC
  0
SECTION
  2
ENTITIES
  0
LINE
  8
0
 10
197.5
 20
113.85
 11
197.473
 21
114.373
  0
LINE
  8
0
 10
197.473
 20
114.373
 11
197.391
 21
114.89
  0
LINE
  8
0
 10
197.391
 20
114.89
 11
197.255
 21
115.395
  0
LINE
  8
0
 10
197.255
 20
115.395
 11
197.068
 21
115.884
  0
LINE
  8
0
 10
197.068
 20
115.884
 11
196.83
 21
116.35
  0
LINE
  8
0
 10
196.83
 20
116.35
 11
196.545
 21
116.789
  0
LINE
  8
0
 10
196.545
 20
116.789
 11
196.216
 21
117.196
  0
LINE
  8
0
 10
196.216
 20
117.196
 11
195.846
 21
117.566
  0
LINE
  8
0
 10
195.846
 20
117.566
 11
195.439
 21
117.895
  0
LINE
  8
0
 10
195.439
 20
117.895
 11
195
 21
118.18
  0
LINE
  8
0
 10
195
 20
118.18
 11
194.534
 21
118.418
  0
LINE
  8
0
 10
194.534
 20
118.418
 11
194.045
 21
118.605
  0
LINE
  8
0
 10
194.045
 20
118.605
 11
193.54
 21
118.741
  0
LINE
  8
0
 10
193.54
 20
118.741
 11
193.023
 21
118.823
  0
LINE
  8
0
 10
193.023
 20
118.823
 11
192.5
 21
118.85
  0
LINE
  8
0
 10
192.5
 20
118.85
 11
-192.5
 21
118.85
  0
LINE
  8
0
 10
-192.5
 20
118.85
 11
-193.023
 21
118.823
  0
LINE
  8
0
 10
-193.023
 20
118.823
 11
-193.54
 21
118.741
  0
LINE
  8
0
 10
-193.54
 20
118.741
 11
-194.045
 21
118.605
  0
LINE
  8
0
 10
-194.045
 20
118.605
 11
-194.534
 21
118.418
  0
LINE
  8
0
 10
-194.534
 20
118.418
 11
-195
 21
118.18
  0
LINE
  8
0
 10
-195
 20
118.18
 11
-195.439
 21
117.895
  0
LINE
  8
0
 10
-195.439
 20
117.895
 11
-195.846
 21
117.566
  0
LINE
  8
0
 10
-195.846
 20
117.566
 11
-196.216
 21
117.196
  0
LINE
  8
0
 10
-196.216
 20
117.196
 11
-196.545
 21
116.789
  0
LINE
  8
0
 10
-196.545
 20
116.789
 11
-196.83
 21
116.35
  0
LINE
  8
0
 10
-196.83
 20
116.35
 11
-197.068
 21
115.884
  0
LINE
  8
0
 10
-197.068
 20
115.884
 11
-197.255
 21
115.395
  0
LINE
  8
0
 10
-197.255
 20
115.395
 11
-197.391
 21
114.89
  0
LINE
  8
0
 10
-197.391
 20
114.89
 11
-197.473
 21
114.373
  0
LINE
  8
0
 10
-197.473
 20
114.373
 11
-197.5
 21
113.85
  0
LINE
  8
0
 10
-197.5
 20
113.85
 11
-197.5
 21
-156.225
  0
LINE
  8
0
 10
-197.5
 20
-156.225
 11
197.5
 21
-156.225
  0
LINE
  8
0
 10
197.5
 20
-156.225
 11
197.5
 21
113.85
  0
ENDSEC
  0
SECTION
  2
OBJECTS
  0
DICTIONARY
  0
ENDSEC
  0
EOF
