  0
SECTION
  2
BLOCKS
  0
ENDSEC
  0
SECTION
  2
ENTITIES
  0
LINE
  8
0
 10
151.748
 20
-92.3476
 11
152.265
 21
-92.2657
  0
LINE
  8
0
 10
152.265
 20
-92.2657
 11
152.77
 21
-92.1303
  0
LINE
  8
0
 10
152.77
 20
-92.1303
 11
153.259
 21
-91.9427
  0
LINE
  8
0
 10
153.259
 20
-91.9427
 11
153.725
 21
-91.7051
  0
LINE
  8
0
 10
153.725
 20
-91.7051
 11
154.164
 21
-91.4201
  0
LINE
  8
0
 10
154.164
 20
-91.4201
 11
154.571
 21
-91.0907
  0
LINE
  8
0
 10
154.571
 20
-91.0907
 11
154.941
 21
-90.7207
  0
LINE
  8
0
 10
154.941
 20
-90.7207
 11
155.27
 21
-90.3139
  0
LINE
  8
0
 10
155.27
 20
-90.3139
 11
155.555
 21
-89.875
  0
LINE
  8
0
 10
155.555
 20
-89.875
 11
155.793
 21
-89.4087
  0
LINE
  8
0
 10
155.793
 20
-89.4087
 11
155.98
 21
-88.9201
  0
LINE
  8
0
 10
155.98
 20
-88.9201
 11
156.116
 21
-88.4146
  0
LINE
  8
0
 10
156.116
 20
-88.4146
 11
156.198
 21
-87.8976
  0
LINE
  8
0
 10
156.198
 20
-87.8976
 11
156.225
 21
-87.375
  0
LINE
  8
0
 10
156.225
 20
-87.375
 11
156.225
 21
87.375
  0
LINE
  8
0
 10
156.225
 20
87.375
 11
156.198
 21
87.8976
  0
LINE
  8
0
 10
156.198
 20
87.8976
 11
156.116
 21
88.4146
  0
LINE
  8
0
 10
156.116
 20
88.4146
 11
155.98
 21
88.9201
  0
LINE
  8
0
 10
155.98
 20
88.9201
 11
155.793
 21
89.4087
  0
LINE
  8
0
 10
155.793
 20
89.4087
 11
155.555
 21
89.875
  0
LINE
  8
0
 10
155.555
 20
89.875
 11
155.27
 21
90.3139
  0
LINE
  8
0
 10
155.27
 20
90.3139
 11
154.941
 21
90.7207
  0
LINE
  8
0
 10
154.941
 20
90.7207
 11
154.571
 21
91.0907
  0
LINE
  8
0
 10
154.571
 20
91.0907
 11
154.164
 21
91.4201
  0
LINE
  8
0
 10
154.164
 20
91.4201
 11
153.725
 21
91.7051
  0
LINE
  8
0
 10
153.725
 20
91.7051
 11
153.259
 21
91.9427
  0
LINE
  8
0
 10
153.259
 20
91.9427
 11
152.77
 21
92.1303
  0
LINE
  8
0
 10
152.77
 20
92.1303
 11
152.265
 21
92.2657
  0
LINE
  8
0
 10
152.265
 20
92.2657
 11
151.748
 21
92.3476
  0
LINE
  8
0
 10
151.748
 20
92.3476
 11
151.225
 21
92.375
  0
LINE
  8
0
 10
151.225
 20
92.375
 11
-151.225
 21
92.375
  0
LINE
  8
0
 10
-151.225
 20
92.375
 11
-151.748
 21
92.3476
  0
LINE
  8
0
 10
-151.748
 20
92.3476
 11
-152.265
 21
92.2657
  0
LINE
  8
0
 10
-152.265
 20
92.2657
 11
-152.77
 21
92.1303
  0
LINE
  8
0
 10
-152.77
 20
92.1303
 11
-153.259
 21
91.9427
  0
LINE
  8
0
 10
-153.259
 20
91.9427
 11
-153.725
 21
91.7051
  0
LINE
  8
0
 10
-153.725
 20
91.7051
 11
-154.164
 21
91.4201
  0
LINE
  8
0
 10
-154.164
 20
91.4201
 11
-154.571
 21
91.0907
  0
LINE
  8
0
 10
-154.571
 20
91.0907
 11
-154.941
 21
90.7207
  0
LINE
  8
0
 10
-154.941
 20
90.7207
 11
-155.27
 21
90.3139
  0
LINE
  8
0
 10
-155.27
 20
90.3139
 11
-155.555
 21
89.875
  0
LINE
  8
0
 10
-155.555
 20
89.875
 11
-155.793
 21
89.4087
  0
LINE
  8
0
 10
-155.793
 20
89.4087
 11
-155.98
 21
88.9201
  0
LINE
  8
0
 10
-155.98
 20
88.9201
 11
-156.116
 21
88.4146
  0
LINE
  8
0
 10
-156.116
 20
88.4146
 11
-156.198
 21
87.8976
  0
LINE
  8
0
 10
-156.198
 20
87.8976
 11
-156.225
 21
87.375
  0
LINE
  8
0
 10
-156.225
 20
87.375
 11
-156.225
 21
-87.375
  0
LINE
  8
0
 10
-156.225
 20
-87.375
 11
-156.198
 21
-87.8976
  0
LINE
  8
0
 10
-156.198
 20
-87.8976
 11
-156.116
 21
-88.4146
  0
LINE
  8
0
 10
-156.116
 20
-88.4146
 11
-155.98
 21
-88.9201
  0
LINE
  8
0
 10
-155.98
 20
-88.9201
 11
-155.793
 21
-89.4087
  0
LINE
  8
0
 10
-155.793
 20
-89.4087
 11
-155.555
 21
-89.875
  0
LINE
  8
0
 10
-155.555
 20
-89.875
 11
-155.27
 21
-90.3139
  0
LINE
  8
0
 10
-155.27
 20
-90.3139
 11
-154.941
 21
-90.7207
  0
LINE
  8
0
 10
-154.941
 20
-90.7207
 11
-154.571
 21
-91.0907
  0
LINE
  8
0
 10
-154.571
 20
-91.0907
 11
-154.164
 21
-91.4201
  0
LINE
  8
0
 10
-154.164
 20
-91.4201
 11
-153.725
 21
-91.7051
  0
LINE
  8
0
 10
-153.725
 20
-91.7051
 11
-153.259
 21
-91.9427
  0
LINE
  8
0
 10
-153.259
 20
-91.9427
 11
-152.77
 21
-92.1303
  0
LINE
  8
0
 10
-152.77
 20
-92.1303
 11
-152.265
 21
-92.2657
  0
LINE
  8
0
 10
-152.265
 20
-92.2657
 11
-151.748
 21
-92.3476
  0
LINE
  8
0
 10
-151.748
 20
-92.3476
 11
-151.225
 21
-92.375
  0
LINE
  8
0
 10
-151.225
 20
-92.375
 11
151.225
 21
-92.375
  0
LINE
  8
0
 10
151.225
 20
-92.375
 11
151.748
 21
-92.3476
  0
LINE
  8
0
 10
148.458
 20
81.2705
 11
148.07
 21
81.3319
  0
LINE
  8
0
 10
148.07
 20
81.3319
 11
147.691
 21
81.4335
  0
LINE
  8
0
 10
147.691
 20
81.4335
 11
147.325
 21
81.5742
  0
LINE
  8
0
 10
147.325
 20
81.5742
 11
146.975
 21
81.7524
  0
LINE
  8
0
 10
146.975
 20
81.7524
 11
146.646
 21
81.9662
  0
LINE
  8
0
 10
146.646
 20
81.9662
 11
146.341
 21
82.2132
  0
LINE
  8
0
 10
146.341
 20
82.2132
 11
146.063
 21
82.4908
  0
LINE
  8
0
 10
146.063
 20
82.4908
 11
145.816
 21
82.7958
  0
LINE
  8
0
 10
145.816
 20
82.7958
 11
145.602
 21
83.125
  0
LINE
  8
0
 10
145.602
 20
83.125
 11
145.424
 21
83.4747
  0
LINE
  8
0
 10
145.424
 20
83.4747
 11
145.284
 21
83.8412
  0
LINE
  8
0
 10
145.284
 20
83.8412
 11
145.182
 21
84.2203
  0
LINE
  8
0
 10
145.182
 20
84.2203
 11
145.121
 21
84.608
  0
LINE
  8
0
 10
145.121
 20
84.608
 11
145.1
 21
85
  0
LINE
  8
0
 10
145.1
 20
85
 11
145.121
 21
85.392
  0
LINE
  8
0
 10
145.121
 20
85.392
 11
145.182
 21
85.7797
  0
LINE
  8
0
 10
145.182
 20
85.7797
 11
145.284
 21
86.1588
  0
LINE
  8
0
 10
145.284
 20
86.1588
 11
145.424
 21
86.5253
  0
LINE
  8
0
 10
145.424
 20
86.5253
 11
145.602
 21
86.875
  0
LINE
  8
0
 10
145.602
 20
86.875
 11
145.816
 21
87.2042
  0
LINE
  8
0
 10
145.816
 20
87.2042
 11
146.063
 21
87.5092
  0
LINE
  8
0
 10
146.063
 20
87.5092
 11
146.341
 21
87.7868
  0
LINE
  8
0
 10
146.341
 20
87.7868
 11
146.646
 21
88.0338
  0
LINE
  8
0
 10
146.646
 20
88.0338
 11
146.975
 21
88.2476
  0
LINE
  8
0
 10
146.975
 20
88.2476
 11
147.325
 21
88.4258
  0
LINE
  8
0
 10
147.325
 20
88.4258
 11
147.691
 21
88.5665
  0
LINE
  8
0
 10
147.691
 20
88.5665
 11
148.07
 21
88.668
  0
LINE
  8
0
 10
148.07
 20
88.668
 11
148.458
 21
88.7294
  0
LINE
  8
0
 10
148.458
 20
88.7294
 11
148.85
 21
88.75
  0
LINE
  8
0
 10
148.85
 20
88.75
 11
149.242
 21
88.7294
  0
LINE
  8
0
 10
149.242
 20
88.7294
 11
149.63
 21
88.668
  0
LINE
  8
0
 10
149.63
 20
88.668
 11
150.009
 21
88.5665
  0
LINE
  8
0
 10
150.009
 20
88.5665
 11
150.375
 21
88.4258
  0
LINE
  8
0
 10
150.375
 20
88.4258
 11
150.725
 21
88.2476
  0
LINE
  8
0
 10
150.725
 20
88.2476
 11
151.054
 21
88.0338
  0
LINE
  8
0
 10
151.054
 20
88.0338
 11
151.359
 21
87.7868
  0
LINE
  8
0
 10
151.359
 20
87.7868
 11
151.637
 21
87.5092
  0
LINE
  8
0
 10
151.637
 20
87.5092
 11
151.884
 21
87.2042
  0
LINE
  8
0
 10
151.884
 20
87.2042
 11
152.098
 21
86.875
  0
LINE
  8
0
 10
152.098
 20
86.875
 11
152.276
 21
86.5253
  0
LINE
  8
0
 10
152.276
 20
86.5253
 11
152.416
 21
86.1588
  0
LINE
  8
0
 10
152.416
 20
86.1588
 11
152.518
 21
85.7797
  0
LINE
  8
0
 10
152.518
 20
85.7797
 11
152.579
 21
85.392
  0
LINE
  8
0
 10
152.579
 20
85.392
 11
152.6
 21
85
  0
LINE
  8
0
 10
152.6
 20
85
 11
152.579
 21
84.608
  0
LINE
  8
0
 10
152.579
 20
84.608
 11
152.518
 21
84.2203
  0
LINE
  8
0
 10
152.518
 20
84.2203
 11
152.416
 21
83.8412
  0
LINE
  8
0
 10
152.416
 20
83.8412
 11
152.276
 21
83.4747
  0
LINE
  8
0
 10
152.276
 20
83.4747
 11
152.098
 21
83.125
  0
LINE
  8
0
 10
152.098
 20
83.125
 11
151.884
 21
82.7958
  0
LINE
  8
0
 10
151.884
 20
82.7958
 11
151.637
 21
82.4908
  0
LINE
  8
0
 10
151.637
 20
82.4908
 11
151.359
 21
82.2132
  0
LINE
  8
0
 10
151.359
 20
82.2132
 11
151.054
 21
81.9662
  0
LINE
  8
0
 10
151.054
 20
81.9662
 11
150.725
 21
81.7524
  0
LINE
  8
0
 10
150.725
 20
81.7524
 11
150.375
 21
81.5742
  0
LINE
  8
0
 10
150.375
 20
81.5742
 11
150.009
 21
81.4335
  0
LINE
  8
0
 10
150.009
 20
81.4335
 11
149.63
 21
81.3319
  0
LINE
  8
0
 10
149.63
 20
81.3319
 11
149.242
 21
81.2705
  0
LINE
  8
0
 10
149.242
 20
81.2705
 11
148.85
 21
81.25
  0
LINE
  8
0
 10
148.85
 20
81.25
 11
148.458
 21
81.2705
  0
LINE
  8
0
 10
-149.242
 20
81.2705
 11
-149.63
 21
81.3319
  0
LINE
  8
0
 10
-149.63
 20
81.3319
 11
-150.009
 21
81.4335
  0
LINE
  8
0
 10
-150.009
 20
81.4335
 11
-150.375
 21
81.5742
  0
LINE
  8
0
 10
-150.375
 20
81.5742
 11
-150.725
 21
81.7524
  0
LINE
  8
0
 10
-150.725
 20
81.7524
 11
-151.054
 21
81.9662
  0
LINE
  8
0
 10
-151.054
 20
81.9662
 11
-151.359
 21
82.2132
  0
LINE
  8
0
 10
-151.359
 20
82.2132
 11
-151.637
 21
82.4908
  0
LINE
  8
0
 10
-151.637
 20
82.4908
 11
-151.884
 21
82.7958
  0
LINE
  8
0
 10
-151.884
 20
82.7958
 11
-152.098
 21
83.125
  0
LINE
  8
0
 10
-152.098
 20
83.125
 11
-152.276
 21
83.4747
  0
LINE
  8
0
 10
-152.276
 20
83.4747
 11
-152.416
 21
83.8412
  0
LINE
  8
0
 10
-152.416
 20
83.8412
 11
-152.518
 21
84.2203
  0
LINE
  8
0
 10
-152.518
 20
84.2203
 11
-152.579
 21
84.608
  0
LINE
  8
0
 10
-152.579
 20
84.608
 11
-152.6
 21
85
  0
LINE
  8
0
 10
-152.6
 20
85
 11
-152.579
 21
85.392
  0
LINE
  8
0
 10
-152.579
 20
85.392
 11
-152.518
 21
85.7797
  0
LINE
  8
0
 10
-152.518
 20
85.7797
 11
-152.416
 21
86.1588
  0
LINE
  8
0
 10
-152.416
 20
86.1588
 11
-152.276
 21
86.5253
  0
LINE
  8
0
 10
-152.276
 20
86.5253
 11
-152.098
 21
86.875
  0
LINE
  8
0
 10
-152.098
 20
86.875
 11
-151.884
 21
87.2042
  0
LINE
  8
0
 10
-151.884
 20
87.2042
 11
-151.637
 21
87.5092
  0
LINE
  8
0
 10
-151.637
 20
87.5092
 11
-151.359
 21
87.7868
  0
LINE
  8
0
 10
-151.359
 20
87.7868
 11
-151.054
 21
88.0338
  0
LINE
  8
0
 10
-151.054
 20
88.0338
 11
-150.725
 21
88.2476
  0
LINE
  8
0
 10
-150.725
 20
88.2476
 11
-150.375
 21
88.4258
  0
LINE
  8
0
 10
-150.375
 20
88.4258
 11
-150.009
 21
88.5665
  0
LINE
  8
0
 10
-150.009
 20
88.5665
 11
-149.63
 21
88.668
  0
LINE
  8
0
 10
-149.63
 20
88.668
 11
-149.242
 21
88.7294
  0
LINE
  8
0
 10
-149.242
 20
88.7294
 11
-148.85
 21
88.75
  0
LINE
  8
0
 10
-148.85
 20
88.75
 11
-148.458
 21
88.7294
  0
LINE
  8
0
 10
-148.458
 20
88.7294
 11
-148.07
 21
88.668
  0
LINE
  8
0
 10
-148.07
 20
88.668
 11
-147.691
 21
88.5665
  0
LINE
  8
0
 10
-147.691
 20
88.5665
 11
-147.325
 21
88.4258
  0
LINE
  8
0
 10
-147.325
 20
88.4258
 11
-146.975
 21
88.2476
  0
LINE
  8
0
 10
-146.975
 20
88.2476
 11
-146.646
 21
88.0338
  0
LINE
  8
0
 10
-146.646
 20
88.0338
 11
-146.341
 21
87.7868
  0
LINE
  8
0
 10
-146.341
 20
87.7868
 11
-146.063
 21
87.5092
  0
LINE
  8
0
 10
-146.063
 20
87.5092
 11
-145.816
 21
87.2042
  0
LINE
  8
0
 10
-145.816
 20
87.2042
 11
-145.602
 21
86.875
  0
LINE
  8
0
 10
-145.602
 20
86.875
 11
-145.424
 21
86.5253
  0
LINE
  8
0
 10
-145.424
 20
86.5253
 11
-145.284
 21
86.1588
  0
LINE
  8
0
 10
-145.284
 20
86.1588
 11
-145.182
 21
85.7797
  0
LINE
  8
0
 10
-145.182
 20
85.7797
 11
-145.121
 21
85.392
  0
LINE
  8
0
 10
-145.121
 20
85.392
 11
-145.1
 21
85
  0
LINE
  8
0
 10
-145.1
 20
85
 11
-145.121
 21
84.608
  0
LINE
  8
0
 10
-145.121
 20
84.608
 11
-145.182
 21
84.2203
  0
LINE
  8
0
 10
-145.182
 20
84.2203
 11
-145.284
 21
83.8412
  0
LINE
  8
0
 10
-145.284
 20
83.8412
 11
-145.424
 21
83.4747
  0
LINE
  8
0
 10
-145.424
 20
83.4747
 11
-145.602
 21
83.125
  0
LINE
  8
0
 10
-145.602
 20
83.125
 11
-145.816
 21
82.7958
  0
LINE
  8
0
 10
-145.816
 20
82.7958
 11
-146.063
 21
82.4908
  0
LINE
  8
0
 10
-146.063
 20
82.4908
 11
-146.341
 21
82.2132
  0
LINE
  8
0
 10
-146.341
 20
82.2132
 11
-146.646
 21
81.9662
  0
LINE
  8
0
 10
-146.646
 20
81.9662
 11
-146.975
 21
81.7524
  0
LINE
  8
0
 10
-146.975
 20
81.7524
 11
-147.325
 21
81.5742
  0
LINE
  8
0
 10
-147.325
 20
81.5742
 11
-147.691
 21
81.4335
  0
LINE
  8
0
 10
-147.691
 20
81.4335
 11
-148.07
 21
81.3319
  0
LINE
  8
0
 10
-148.07
 20
81.3319
 11
-148.458
 21
81.2705
  0
LINE
  8
0
 10
-148.458
 20
81.2705
 11
-148.85
 21
81.25
  0
LINE
  8
0
 10
-148.85
 20
81.25
 11
-149.242
 21
81.2705
  0
LINE
  8
0
 10
-106.659
 20
83.3283
 11
-106.899
 21
83.3911
  0
LINE
  8
0
 10
-106.899
 20
83.3911
 11
-107.127
 21
83.4881
  0
LINE
  8
0
 10
-107.127
 20
83.4881
 11
-107.339
 21
83.6174
  0
LINE
  8
0
 10
-107.339
 20
83.6174
 11
-107.53
 21
83.7762
  0
LINE
  8
0
 10
-107.53
 20
83.7762
 11
-107.696
 21
83.961
  0
LINE
  8
0
 10
-107.696
 20
83.961
 11
-107.832
 21
84.168
  0
LINE
  8
0
 10
-107.832
 20
84.168
 11
-107.938
 21
84.3927
  0
LINE
  8
0
 10
-107.938
 20
84.3927
 11
-108.009
 21
84.6304
  0
LINE
  8
0
 10
-108.009
 20
84.6304
 11
-108.045
 21
84.8759
  0
LINE
  8
0
 10
-108.045
 20
84.8759
 11
-108.045
 21
85.1241
  0
LINE
  8
0
 10
-108.045
 20
85.1241
 11
-108.009
 21
85.3696
  0
LINE
  8
0
 10
-108.009
 20
85.3696
 11
-107.938
 21
85.6073
  0
LINE
  8
0
 10
-107.938
 20
85.6073
 11
-107.832
 21
85.832
  0
LINE
  8
0
 10
-107.832
 20
85.832
 11
-107.696
 21
86.039
  0
LINE
  8
0
 10
-107.696
 20
86.039
 11
-107.53
 21
86.2238
  0
LINE
  8
0
 10
-107.53
 20
86.2238
 11
-107.339
 21
86.3826
  0
LINE
  8
0
 10
-107.339
 20
86.3826
 11
-107.127
 21
86.5119
  0
LINE
  8
0
 10
-107.127
 20
86.5119
 11
-106.899
 21
86.6089
  0
LINE
  8
0
 10
-106.899
 20
86.6089
 11
-106.659
 21
86.6717
  0
LINE
  8
0
 10
-106.659
 20
86.6717
 11
-106.412
 21
86.6989
  0
LINE
  8
0
 10
-106.412
 20
86.6989
 11
-106.164
 21
86.6898
  0
LINE
  8
0
 10
-106.164
 20
86.6898
 11
-105.92
 21
86.6447
  0
LINE
  8
0
 10
-105.92
 20
86.6447
 11
-105.685
 21
86.5646
  0
LINE
  8
0
 10
-105.685
 20
86.5646
 11
-105.464
 21
86.4511
  0
LINE
  8
0
 10
-105.464
 20
86.4511
 11
-105.263
 21
86.3067
  0
LINE
  8
0
 10
-105.263
 20
86.3067
 11
-105.084
 21
86.1344
  0
LINE
  8
0
 10
-105.084
 20
86.1344
 11
-104.932
 21
85.938
  0
LINE
  8
0
 10
-104.932
 20
85.938
 11
-104.811
 21
85.7216
  0
LINE
  8
0
 10
-104.811
 20
85.7216
 11
-104.722
 21
85.4898
  0
LINE
  8
0
 10
-104.722
 20
85.4898
 11
-104.668
 21
85.2475
  0
LINE
  8
0
 10
-104.668
 20
85.2475
 11
-104.65
 21
85
  0
LINE
  8
0
 10
-104.65
 20
85
 11
-104.668
 21
84.7525
  0
LINE
  8
0
 10
-104.668
 20
84.7525
 11
-104.722
 21
84.5102
  0
LINE
  8
0
 10
-104.722
 20
84.5102
 11
-104.811
 21
84.2784
  0
LINE
  8
0
 10
-104.811
 20
84.2784
 11
-104.932
 21
84.062
  0
LINE
  8
0
 10
-104.932
 20
84.062
 11
-105.084
 21
83.8656
  0
LINE
  8
0
 10
-105.084
 20
83.8656
 11
-105.263
 21
83.6933
  0
LINE
  8
0
 10
-105.263
 20
83.6933
 11
-105.464
 21
83.5489
  0
LINE
  8
0
 10
-105.464
 20
83.5489
 11
-105.685
 21
83.4354
  0
LINE
  8
0
 10
-105.685
 20
83.4354
 11
-105.92
 21
83.3553
  0
LINE
  8
0
 10
-105.92
 20
83.3553
 11
-106.164
 21
83.3102
  0
LINE
  8
0
 10
-106.164
 20
83.3102
 11
-106.412
 21
83.3011
  0
LINE
  8
0
 10
-106.412
 20
83.3011
 11
-106.659
 21
83.3283
  0
LINE
  8
0
 10
35.1412
 20
83.3283
 11
34.9011
 21
83.3911
  0
LINE
  8
0
 10
34.9011
 20
83.3911
 11
34.6727
 21
83.4881
  0
LINE
  8
0
 10
34.6727
 20
83.4881
 11
34.4608
 21
83.6174
  0
LINE
  8
0
 10
34.4608
 20
83.6174
 11
34.2701
 21
83.7762
  0
LINE
  8
0
 10
34.2701
 20
83.7762
 11
34.1044
 21
83.961
  0
LINE
  8
0
 10
34.1044
 20
83.961
 11
33.9675
 21
84.168
  0
LINE
  8
0
 10
33.9675
 20
84.168
 11
33.8622
 21
84.3927
  0
LINE
  8
0
 10
33.8622
 20
84.3927
 11
33.7907
 21
84.6304
  0
LINE
  8
0
 10
33.7907
 20
84.6304
 11
33.7545
 21
84.8759
  0
LINE
  8
0
 10
33.7545
 20
84.8759
 11
33.7545
 21
85.1241
  0
LINE
  8
0
 10
33.7545
 20
85.1241
 11
33.7907
 21
85.3696
  0
LINE
  8
0
 10
33.7907
 20
85.3696
 11
33.8622
 21
85.6073
  0
LINE
  8
0
 10
33.8622
 20
85.6073
 11
33.9675
 21
85.832
  0
LINE
  8
0
 10
33.9675
 20
85.832
 11
34.1044
 21
86.039
  0
LINE
  8
0
 10
34.1044
 20
86.039
 11
34.2701
 21
86.2238
  0
LINE
  8
0
 10
34.2701
 20
86.2238
 11
34.4608
 21
86.3826
  0
LINE
  8
0
 10
34.4608
 20
86.3826
 11
34.6727
 21
86.5119
  0
LINE
  8
0
 10
34.6727
 20
86.5119
 11
34.9011
 21
86.6089
  0
LINE
  8
0
 10
34.9011
 20
86.6089
 11
35.1412
 21
86.6717
  0
LINE
  8
0
 10
35.1412
 20
86.6717
 11
35.3879
 21
86.6989
  0
LINE
  8
0
 10
35.3879
 20
86.6989
 11
35.6359
 21
86.6898
  0
LINE
  8
0
 10
35.6359
 20
86.6898
 11
35.88
 21
86.6447
  0
LINE
  8
0
 10
35.88
 20
86.6447
 11
36.1149
 21
86.5646
  0
LINE
  8
0
 10
36.1149
 20
86.5646
 11
36.3356
 21
86.4511
  0
LINE
  8
0
 10
36.3356
 20
86.4511
 11
36.5374
 21
86.3067
  0
LINE
  8
0
 10
36.5374
 20
86.3067
 11
36.7161
 21
86.1344
  0
LINE
  8
0
 10
36.7161
 20
86.1344
 11
36.8678
 21
85.938
  0
LINE
  8
0
 10
36.8678
 20
85.938
 11
36.9893
 21
85.7216
  0
LINE
  8
0
 10
36.9893
 20
85.7216
 11
37.0779
 21
85.4898
  0
LINE
  8
0
 10
37.0779
 20
85.4898
 11
37.1319
 21
85.2475
  0
LINE
  8
0
 10
37.1319
 20
85.2475
 11
37.15
 21
85
  0
LINE
  8
0
 10
37.15
 20
85
 11
37.1319
 21
84.7525
  0
LINE
  8
0
 10
37.1319
 20
84.7525
 11
37.0779
 21
84.5102
  0
LINE
  8
0
 10
37.0779
 20
84.5102
 11
36.9893
 21
84.2784
  0
LINE
  8
0
 10
36.9893
 20
84.2784
 11
36.8678
 21
84.062
  0
LINE
  8
0
 10
36.8678
 20
84.062
 11
36.7161
 21
83.8656
  0
LINE
  8
0
 10
36.7161
 20
83.8656
 11
36.5374
 21
83.6933
  0
LINE
  8
0
 10
36.5374
 20
83.6933
 11
36.3356
 21
83.5489
  0
LINE
  8
0
 10
36.3356
 20
83.5489
 11
36.1149
 21
83.4354
  0
LINE
  8
0
 10
36.1149
 20
83.4354
 11
35.88
 21
83.3553
  0
LINE
  8
0
 10
35.88
 20
83.3553
 11
35.6359
 21
83.3102
  0
LINE
  8
0
 10
35.6359
 20
83.3102
 11
35.3879
 21
83.3011
  0
LINE
  8
0
 10
35.3879
 20
83.3011
 11
35.1412
 21
83.3283
  0
LINE
  8
0
 10
-35.7588
 20
83.3283
 11
-35.9989
 21
83.3911
  0
LINE
  8
0
 10
-35.9989
 20
83.3911
 11
-36.2273
 21
83.4881
  0
LINE
  8
0
 10
-36.2273
 20
83.4881
 11
-36.4391
 21
83.6174
  0
LINE
  8
0
 10
-36.4391
 20
83.6174
 11
-36.6299
 21
83.7762
  0
LINE
  8
0
 10
-36.6299
 20
83.7762
 11
-36.7955
 21
83.961
  0
LINE
  8
0
 10
-36.7955
 20
83.961
 11
-36.9325
 21
84.168
  0
LINE
  8
0
 10
-36.9325
 20
84.168
 11
-37.0378
 21
84.3927
  0
LINE
  8
0
 10
-37.0378
 20
84.3927
 11
-37.1093
 21
84.6304
  0
LINE
  8
0
 10
-37.1093
 20
84.6304
 11
-37.1455
 21
84.8759
  0
LINE
  8
0
 10
-37.1455
 20
84.8759
 11
-37.1455
 21
85.1241
  0
LINE
  8
0
 10
-37.1455
 20
85.1241
 11
-37.1093
 21
85.3696
  0
LINE
  8
0
 10
-37.1093
 20
85.3696
 11
-37.0378
 21
85.6073
  0
LINE
  8
0
 10
-37.0378
 20
85.6073
 11
-36.9325
 21
85.832
  0
LINE
  8
0
 10
-36.9325
 20
85.832
 11
-36.7955
 21
86.039
  0
LINE
  8
0
 10
-36.7955
 20
86.039
 11
-36.6299
 21
86.2238
  0
LINE
  8
0
 10
-36.6299
 20
86.2238
 11
-36.4391
 21
86.3826
  0
LINE
  8
0
 10
-36.4391
 20
86.3826
 11
-36.2273
 21
86.5119
  0
LINE
  8
0
 10
-36.2273
 20
86.5119
 11
-35.9989
 21
86.6089
  0
LINE
  8
0
 10
-35.9989
 20
86.6089
 11
-35.7588
 21
86.6717
  0
LINE
  8
0
 10
-35.7588
 20
86.6717
 11
-35.5121
 21
86.6989
  0
LINE
  8
0
 10
-35.5121
 20
86.6989
 11
-35.2641
 21
86.6898
  0
LINE
  8
0
 10
-35.2641
 20
86.6898
 11
-35.02
 21
86.6447
  0
LINE
  8
0
 10
-35.02
 20
86.6447
 11
-34.7851
 21
86.5646
  0
LINE
  8
0
 10
-34.7851
 20
86.5646
 11
-34.5644
 21
86.4511
  0
LINE
  8
0
 10
-34.5644
 20
86.4511
 11
-34.3625
 21
86.3067
  0
LINE
  8
0
 10
-34.3625
 20
86.3067
 11
-34.1839
 21
86.1344
  0
LINE
  8
0
 10
-34.1839
 20
86.1344
 11
-34.0322
 21
85.938
  0
LINE
  8
0
 10
-34.0322
 20
85.938
 11
-33.9107
 21
85.7216
  0
LINE
  8
0
 10
-33.9107
 20
85.7216
 11
-33.8221
 21
85.4898
  0
LINE
  8
0
 10
-33.8221
 20
85.4898
 11
-33.7681
 21
85.2475
  0
LINE
  8
0
 10
-33.7681
 20
85.2475
 11
-33.75
 21
85
  0
LINE
  8
0
 10
-33.75
 20
85
 11
-33.7681
 21
84.7525
  0
LINE
  8
0
 10
-33.7681
 20
84.7525
 11
-33.8221
 21
84.5102
  0
LINE
  8
0
 10
-33.8221
 20
84.5102
 11
-33.9107
 21
84.2784
  0
LINE
  8
0
 10
-33.9107
 20
84.2784
 11
-34.0322
 21
84.062
  0
LINE
  8
0
 10
-34.0322
 20
84.062
 11
-34.1839
 21
83.8656
  0
LINE
  8
0
 10
-34.1839
 20
83.8656
 11
-34.3625
 21
83.6933
  0
LINE
  8
0
 10
-34.3625
 20
83.6933
 11
-34.5644
 21
83.5489
  0
LINE
  8
0
 10
-34.5644
 20
83.5489
 11
-34.7851
 21
83.4354
  0
LINE
  8
0
 10
-34.7851
 20
83.4354
 11
-35.02
 21
83.3553
  0
LINE
  8
0
 10
-35.02
 20
83.3553
 11
-35.2641
 21
83.3102
  0
LINE
  8
0
 10
-35.2641
 20
83.3102
 11
-35.5121
 21
83.3011
  0
LINE
  8
0
 10
-35.5121
 20
83.3011
 11
-35.7588
 21
83.3283
  0
LINE
  8
0
 10
106.041
 20
83.3283
 11
105.801
 21
83.3911
  0
LINE
  8
0
 10
105.801
 20
83.3911
 11
105.573
 21
83.4881
  0
LINE
  8
0
 10
105.573
 20
83.4881
 11
105.361
 21
83.6174
  0
LINE
  8
0
 10
105.361
 20
83.6174
 11
105.17
 21
83.7762
  0
LINE
  8
0
 10
105.17
 20
83.7762
 11
105.004
 21
83.961
  0
LINE
  8
0
 10
105.004
 20
83.961
 11
104.868
 21
84.168
  0
LINE
  8
0
 10
104.868
 20
84.168
 11
104.762
 21
84.3927
  0
LINE
  8
0
 10
104.762
 20
84.3927
 11
104.691
 21
84.6304
  0
LINE
  8
0
 10
104.691
 20
84.6304
 11
104.655
 21
84.8759
  0
LINE
  8
0
 10
104.655
 20
84.8759
 11
104.655
 21
85.1241
  0
LINE
  8
0
 10
104.655
 20
85.1241
 11
104.691
 21
85.3696
  0
LINE
  8
0
 10
104.691
 20
85.3696
 11
104.762
 21
85.6073
  0
LINE
  8
0
 10
104.762
 20
85.6073
 11
104.868
 21
85.832
  0
LINE
  8
0
 10
104.868
 20
85.832
 11
105.004
 21
86.039
  0
LINE
  8
0
 10
105.004
 20
86.039
 11
105.17
 21
86.2238
  0
LINE
  8
0
 10
105.17
 20
86.2238
 11
105.361
 21
86.3826
  0
LINE
  8
0
 10
105.361
 20
86.3826
 11
105.573
 21
86.5119
  0
LINE
  8
0
 10
105.573
 20
86.5119
 11
105.801
 21
86.6089
  0
LINE
  8
0
 10
105.801
 20
86.6089
 11
106.041
 21
86.6717
  0
LINE
  8
0
 10
106.041
 20
86.6717
 11
106.288
 21
86.6989
  0
LINE
  8
0
 10
106.288
 20
86.6989
 11
106.536
 21
86.6898
  0
LINE
  8
0
 10
106.536
 20
86.6898
 11
106.78
 21
86.6447
  0
LINE
  8
0
 10
106.78
 20
86.6447
 11
107.015
 21
86.5646
  0
LINE
  8
0
 10
107.015
 20
86.5646
 11
107.236
 21
86.4511
  0
LINE
  8
0
 10
107.236
 20
86.4511
 11
107.437
 21
86.3067
  0
LINE
  8
0
 10
107.437
 20
86.3067
 11
107.616
 21
86.1344
  0
LINE
  8
0
 10
107.616
 20
86.1344
 11
107.768
 21
85.938
  0
LINE
  8
0
 10
107.768
 20
85.938
 11
107.889
 21
85.7216
  0
LINE
  8
0
 10
107.889
 20
85.7216
 11
107.978
 21
85.4898
  0
LINE
  8
0
 10
107.978
 20
85.4898
 11
108.032
 21
85.2475
  0
LINE
  8
0
 10
108.032
 20
85.2475
 11
108.05
 21
85
  0
LINE
  8
0
 10
108.05
 20
85
 11
108.032
 21
84.7525
  0
LINE
  8
0
 10
108.032
 20
84.7525
 11
107.978
 21
84.5102
  0
LINE
  8
0
 10
107.978
 20
84.5102
 11
107.889
 21
84.2784
  0
LINE
  8
0
 10
107.889
 20
84.2784
 11
107.768
 21
84.062
  0
LINE
  8
0
 10
107.768
 20
84.062
 11
107.616
 21
83.8656
  0
LINE
  8
0
 10
107.616
 20
83.8656
 11
107.437
 21
83.6933
  0
LINE
  8
0
 10
107.437
 20
83.6933
 11
107.236
 21
83.5489
  0
LINE
  8
0
 10
107.236
 20
83.5489
 11
107.015
 21
83.4354
  0
LINE
  8
0
 10
107.015
 20
83.4354
 11
106.78
 21
83.3553
  0
LINE
  8
0
 10
106.78
 20
83.3553
 11
106.536
 21
83.3102
  0
LINE
  8
0
 10
106.536
 20
83.3102
 11
106.288
 21
83.3011
  0
LINE
  8
0
 10
106.288
 20
83.3011
 11
106.041
 21
83.3283
  0
LINE
  8
0
 10
-149.036
 20
40.8102
 11
-149.28
 21
40.8553
  0
LINE
  8
0
 10
-149.28
 20
40.8553
 11
-149.515
 21
40.9354
  0
LINE
  8
0
 10
-149.515
 20
40.9354
 11
-149.736
 21
41.0489
  0
LINE
  8
0
 10
-149.736
 20
41.0489
 11
-149.937
 21
41.1933
  0
LINE
  8
0
 10
-149.937
 20
41.1933
 11
-150.116
 21
41.3656
  0
LINE
  8
0
 10
-150.116
 20
41.3656
 11
-150.268
 21
41.562
  0
LINE
  8
0
 10
-150.268
 20
41.562
 11
-150.389
 21
41.7784
  0
LINE
  8
0
 10
-150.389
 20
41.7784
 11
-150.478
 21
42.0102
  0
LINE
  8
0
 10
-150.478
 20
42.0102
 11
-150.532
 21
42.2525
  0
LINE
  8
0
 10
-150.532
 20
42.2525
 11
-150.55
 21
42.5
  0
LINE
  8
0
 10
-150.55
 20
42.5
 11
-150.532
 21
42.7475
  0
LINE
  8
0
 10
-150.532
 20
42.7475
 11
-150.478
 21
42.9898
  0
LINE
  8
0
 10
-150.478
 20
42.9898
 11
-150.389
 21
43.2216
  0
LINE
  8
0
 10
-150.389
 20
43.2216
 11
-150.268
 21
43.438
  0
LINE
  8
0
 10
-150.268
 20
43.438
 11
-150.116
 21
43.6344
  0
LINE
  8
0
 10
-150.116
 20
43.6344
 11
-149.937
 21
43.8067
  0
LINE
  8
0
 10
-149.937
 20
43.8067
 11
-149.736
 21
43.9511
  0
LINE
  8
0
 10
-149.736
 20
43.9511
 11
-149.515
 21
44.0646
  0
LINE
  8
0
 10
-149.515
 20
44.0646
 11
-149.28
 21
44.1447
  0
LINE
  8
0
 10
-149.28
 20
44.1447
 11
-149.036
 21
44.1898
  0
LINE
  8
0
 10
-149.036
 20
44.1898
 11
-148.788
 21
44.1989
  0
LINE
  8
0
 10
-148.788
 20
44.1989
 11
-148.541
 21
44.1717
  0
LINE
  8
0
 10
-148.541
 20
44.1717
 11
-148.301
 21
44.1089
  0
LINE
  8
0
 10
-148.301
 20
44.1089
 11
-148.073
 21
44.0119
  0
LINE
  8
0
 10
-148.073
 20
44.0119
 11
-147.861
 21
43.8826
  0
LINE
  8
0
 10
-147.861
 20
43.8826
 11
-147.67
 21
43.7238
  0
LINE
  8
0
 10
-147.67
 20
43.7238
 11
-147.504
 21
43.539
  0
LINE
  8
0
 10
-147.504
 20
43.539
 11
-147.368
 21
43.332
  0
LINE
  8
0
 10
-147.368
 20
43.332
 11
-147.262
 21
43.1073
  0
LINE
  8
0
 10
-147.262
 20
43.1073
 11
-147.191
 21
42.8696
  0
LINE
  8
0
 10
-147.191
 20
42.8696
 11
-147.155
 21
42.6241
  0
LINE
  8
0
 10
-147.155
 20
42.6241
 11
-147.155
 21
42.3759
  0
LINE
  8
0
 10
-147.155
 20
42.3759
 11
-147.191
 21
42.1304
  0
LINE
  8
0
 10
-147.191
 20
42.1304
 11
-147.262
 21
41.8927
  0
LINE
  8
0
 10
-147.262
 20
41.8927
 11
-147.368
 21
41.668
  0
LINE
  8
0
 10
-147.368
 20
41.668
 11
-147.504
 21
41.461
  0
LINE
  8
0
 10
-147.504
 20
41.461
 11
-147.67
 21
41.2762
  0
LINE
  8
0
 10
-147.67
 20
41.2762
 11
-147.861
 21
41.1174
  0
LINE
  8
0
 10
-147.861
 20
41.1174
 11
-148.073
 21
40.9881
  0
LINE
  8
0
 10
-148.073
 20
40.9881
 11
-148.301
 21
40.8911
  0
LINE
  8
0
 10
-148.301
 20
40.8911
 11
-148.541
 21
40.8283
  0
LINE
  8
0
 10
-148.541
 20
40.8283
 11
-148.788
 21
40.8011
  0
LINE
  8
0
 10
-148.788
 20
40.8011
 11
-149.036
 21
40.8102
  0
LINE
  8
0
 10
148.541
 20
40.8283
 11
148.301
 21
40.8911
  0
LINE
  8
0
 10
148.301
 20
40.8911
 11
148.073
 21
40.9881
  0
LINE
  8
0
 10
148.073
 20
40.9881
 11
147.861
 21
41.1174
  0
LINE
  8
0
 10
147.861
 20
41.1174
 11
147.67
 21
41.2762
  0
LINE
  8
0
 10
147.67
 20
41.2762
 11
147.504
 21
41.461
  0
LINE
  8
0
 10
147.504
 20
41.461
 11
147.368
 21
41.668
  0
LINE
  8
0
 10
147.368
 20
41.668
 11
147.262
 21
41.8927
  0
LINE
  8
0
 10
147.262
 20
41.8927
 11
147.191
 21
42.1304
  0
LINE
  8
0
 10
147.191
 20
42.1304
 11
147.155
 21
42.3759
  0
LINE
  8
0
 10
147.155
 20
42.3759
 11
147.155
 21
42.6241
  0
LINE
  8
0
 10
147.155
 20
42.6241
 11
147.191
 21
42.8696
  0
LINE
  8
0
 10
147.191
 20
42.8696
 11
147.262
 21
43.1073
  0
LINE
  8
0
 10
147.262
 20
43.1073
 11
147.368
 21
43.332
  0
LINE
  8
0
 10
147.368
 20
43.332
 11
147.504
 21
43.539
  0
LINE
  8
0
 10
147.504
 20
43.539
 11
147.67
 21
43.7238
  0
LINE
  8
0
 10
147.67
 20
43.7238
 11
147.861
 21
43.8826
  0
LINE
  8
0
 10
147.861
 20
43.8826
 11
148.073
 21
44.0119
  0
LINE
  8
0
 10
148.073
 20
44.0119
 11
148.301
 21
44.1089
  0
LINE
  8
0
 10
148.301
 20
44.1089
 11
148.541
 21
44.1717
  0
LINE
  8
0
 10
148.541
 20
44.1717
 11
148.788
 21
44.1989
  0
LINE
  8
0
 10
148.788
 20
44.1989
 11
149.036
 21
44.1898
  0
LINE
  8
0
 10
149.036
 20
44.1898
 11
149.28
 21
44.1447
  0
LINE
  8
0
 10
149.28
 20
44.1447
 11
149.515
 21
44.0646
  0
LINE
  8
0
 10
149.515
 20
44.0646
 11
149.736
 21
43.9511
  0
LINE
  8
0
 10
149.736
 20
43.9511
 11
149.937
 21
43.8067
  0
LINE
  8
0
 10
149.937
 20
43.8067
 11
150.116
 21
43.6344
  0
LINE
  8
0
 10
150.116
 20
43.6344
 11
150.268
 21
43.438
  0
LINE
  8
0
 10
150.268
 20
43.438
 11
150.389
 21
43.2216
  0
LINE
  8
0
 10
150.389
 20
43.2216
 11
150.478
 21
42.9898
  0
LINE
  8
0
 10
150.478
 20
42.9898
 11
150.532
 21
42.7475
  0
LINE
  8
0
 10
150.532
 20
42.7475
 11
150.55
 21
42.5
  0
LINE
  8
0
 10
150.55
 20
42.5
 11
150.532
 21
42.2525
  0
LINE
  8
0
 10
150.532
 20
42.2525
 11
150.478
 21
42.0102
  0
LINE
  8
0
 10
150.478
 20
42.0102
 11
150.389
 21
41.7784
  0
LINE
  8
0
 10
150.389
 20
41.7784
 11
150.268
 21
41.562
  0
LINE
  8
0
 10
150.268
 20
41.562
 11
150.116
 21
41.3656
  0
LINE
  8
0
 10
150.116
 20
41.3656
 11
149.937
 21
41.1933
  0
LINE
  8
0
 10
149.937
 20
41.1933
 11
149.736
 21
41.0489
  0
LINE
  8
0
 10
149.736
 20
41.0489
 11
149.515
 21
40.9354
  0
LINE
  8
0
 10
149.515
 20
40.9354
 11
149.28
 21
40.8553
  0
LINE
  8
0
 10
149.28
 20
40.8553
 11
149.036
 21
40.8102
  0
LINE
  8
0
 10
149.036
 20
40.8102
 11
148.788
 21
40.8011
  0
LINE
  8
0
 10
148.788
 20
40.8011
 11
148.541
 21
40.8283
  0
LINE
  8
0
 10
148.541
 20
-44.1717
 11
148.301
 21
-44.1089
  0
LINE
  8
0
 10
148.301
 20
-44.1089
 11
148.073
 21
-44.0119
  0
LINE
  8
0
 10
148.073
 20
-44.0119
 11
147.861
 21
-43.8826
  0
LINE
  8
0
 10
147.861
 20
-43.8826
 11
147.67
 21
-43.7238
  0
LINE
  8
0
 10
147.67
 20
-43.7238
 11
147.504
 21
-43.539
  0
LINE
  8
0
 10
147.504
 20
-43.539
 11
147.368
 21
-43.332
  0
LINE
  8
0
 10
147.368
 20
-43.332
 11
147.262
 21
-43.1073
  0
LINE
  8
0
 10
147.262
 20
-43.1073
 11
147.191
 21
-42.8696
  0
LINE
  8
0
 10
147.191
 20
-42.8696
 11
147.155
 21
-42.6241
  0
LINE
  8
0
 10
147.155
 20
-42.6241
 11
147.155
 21
-42.3759
  0
LINE
  8
0
 10
147.155
 20
-42.3759
 11
147.191
 21
-42.1304
  0
LINE
  8
0
 10
147.191
 20
-42.1304
 11
147.262
 21
-41.8927
  0
LINE
  8
0
 10
147.262
 20
-41.8927
 11
147.368
 21
-41.668
  0
LINE
  8
0
 10
147.368
 20
-41.668
 11
147.504
 21
-41.461
  0
LINE
  8
0
 10
147.504
 20
-41.461
 11
147.67
 21
-41.2762
  0
LINE
  8
0
 10
147.67
 20
-41.2762
 11
147.861
 21
-41.1174
  0
LINE
  8
0
 10
147.861
 20
-41.1174
 11
148.073
 21
-40.9881
  0
LINE
  8
0
 10
148.073
 20
-40.9881
 11
148.301
 21
-40.8911
  0
LINE
  8
0
 10
148.301
 20
-40.8911
 11
148.541
 21
-40.8283
  0
LINE
  8
0
 10
148.541
 20
-40.8283
 11
148.788
 21
-40.8011
  0
LINE
  8
0
 10
148.788
 20
-40.8011
 11
149.036
 21
-40.8102
  0
LINE
  8
0
 10
149.036
 20
-40.8102
 11
149.28
 21
-40.8553
  0
LINE
  8
0
 10
149.28
 20
-40.8553
 11
149.515
 21
-40.9354
  0
LINE
  8
0
 10
149.515
 20
-40.9354
 11
149.736
 21
-41.0489
  0
LINE
  8
0
 10
149.736
 20
-41.0489
 11
149.937
 21
-41.1933
  0
LINE
  8
0
 10
149.937
 20
-41.1933
 11
150.116
 21
-41.3656
  0
LINE
  8
0
 10
150.116
 20
-41.3656
 11
150.268
 21
-41.562
  0
LINE
  8
0
 10
150.268
 20
-41.562
 11
150.389
 21
-41.7784
  0
LINE
  8
0
 10
150.389
 20
-41.7784
 11
150.478
 21
-42.0102
  0
LINE
  8
0
 10
150.478
 20
-42.0102
 11
150.532
 21
-42.2525
  0
LINE
  8
0
 10
150.532
 20
-42.2525
 11
150.55
 21
-42.5
  0
LINE
  8
0
 10
150.55
 20
-42.5
 11
150.532
 21
-42.7475
  0
LINE
  8
0
 10
150.532
 20
-42.7475
 11
150.478
 21
-42.9898
  0
LINE
  8
0
 10
150.478
 20
-42.9898
 11
150.389
 21
-43.2216
  0
LINE
  8
0
 10
150.389
 20
-43.2216
 11
150.268
 21
-43.438
  0
LINE
  8
0
 10
150.268
 20
-43.438
 11
150.116
 21
-43.6344
  0
LINE
  8
0
 10
150.116
 20
-43.6344
 11
149.937
 21
-43.8067
  0
LINE
  8
0
 10
149.937
 20
-43.8067
 11
149.736
 21
-43.9511
  0
LINE
  8
0
 10
149.736
 20
-43.9511
 11
149.515
 21
-44.0646
  0
LINE
  8
0
 10
149.515
 20
-44.0646
 11
149.28
 21
-44.1447
  0
LINE
  8
0
 10
149.28
 20
-44.1447
 11
149.036
 21
-44.1898
  0
LINE
  8
0
 10
149.036
 20
-44.1898
 11
148.788
 21
-44.1989
  0
LINE
  8
0
 10
148.788
 20
-44.1989
 11
148.541
 21
-44.1717
  0
LINE
  8
0
 10
-149.036
 20
-44.1898
 11
-149.28
 21
-44.1447
  0
LINE
  8
0
 10
-149.28
 20
-44.1447
 11
-149.515
 21
-44.0646
  0
LINE
  8
0
 10
-149.515
 20
-44.0646
 11
-149.736
 21
-43.9511
  0
LINE
  8
0
 10
-149.736
 20
-43.9511
 11
-149.937
 21
-43.8067
  0
LINE
  8
0
 10
-149.937
 20
-43.8067
 11
-150.116
 21
-43.6344
  0
LINE
  8
0
 10
-150.116
 20
-43.6344
 11
-150.268
 21
-43.438
  0
LINE
  8
0
 10
-150.268
 20
-43.438
 11
-150.389
 21
-43.2216
  0
LINE
  8
0
 10
-150.389
 20
-43.2216
 11
-150.478
 21
-42.9898
  0
LINE
  8
0
 10
-150.478
 20
-42.9898
 11
-150.532
 21
-42.7475
  0
LINE
  8
0
 10
-150.532
 20
-42.7475
 11
-150.55
 21
-42.5
  0
LINE
  8
0
 10
-150.55
 20
-42.5
 11
-150.532
 21
-42.2525
  0
LINE
  8
0
 10
-150.532
 20
-42.2525
 11
-150.478
 21
-42.0102
  0
LINE
  8
0
 10
-150.478
 20
-42.0102
 11
-150.389
 21
-41.7784
  0
LINE
  8
0
 10
-150.389
 20
-41.7784
 11
-150.268
 21
-41.562
  0
LINE
  8
0
 10
-150.268
 20
-41.562
 11
-150.116
 21
-41.3656
  0
LINE
  8
0
 10
-150.116
 20
-41.3656
 11
-149.937
 21
-41.1933
  0
LINE
  8
0
 10
-149.937
 20
-41.1933
 11
-149.736
 21
-41.0489
  0
LINE
  8
0
 10
-149.736
 20
-41.0489
 11
-149.515
 21
-40.9354
  0
LINE
  8
0
 10
-149.515
 20
-40.9354
 11
-149.28
 21
-40.8553
  0
LINE
  8
0
 10
-149.28
 20
-40.8553
 11
-149.036
 21
-40.8102
  0
LINE
  8
0
 10
-149.036
 20
-40.8102
 11
-148.788
 21
-40.8011
  0
LINE
  8
0
 10
-148.788
 20
-40.8011
 11
-148.541
 21
-40.8283
  0
LINE
  8
0
 10
-148.541
 20
-40.8283
 11
-148.301
 21
-40.8911
  0
LINE
  8
0
 10
-148.301
 20
-40.8911
 11
-148.073
 21
-40.9881
  0
LINE
  8
0
 10
-148.073
 20
-40.9881
 11
-147.861
 21
-41.1174
  0
LINE
  8
0
 10
-147.861
 20
-41.1174
 11
-147.67
 21
-41.2762
  0
LINE
  8
0
 10
-147.67
 20
-41.2762
 11
-147.504
 21
-41.461
  0
LINE
  8
0
 10
-147.504
 20
-41.461
 11
-147.368
 21
-41.668
  0
LINE
  8
0
 10
-147.368
 20
-41.668
 11
-147.262
 21
-41.8927
  0
LINE
  8
0
 10
-147.262
 20
-41.8927
 11
-147.191
 21
-42.1304
  0
LINE
  8
0
 10
-147.191
 20
-42.1304
 11
-147.155
 21
-42.3759
  0
LINE
  8
0
 10
-147.155
 20
-42.3759
 11
-147.155
 21
-42.6241
  0
LINE
  8
0
 10
-147.155
 20
-42.6241
 11
-147.191
 21
-42.8696
  0
LINE
  8
0
 10
-147.191
 20
-42.8696
 11
-147.262
 21
-43.1073
  0
LINE
  8
0
 10
-147.262
 20
-43.1073
 11
-147.368
 21
-43.332
  0
LINE
  8
0
 10
-147.368
 20
-43.332
 11
-147.504
 21
-43.539
  0
LINE
  8
0
 10
-147.504
 20
-43.539
 11
-147.67
 21
-43.7238
  0
LINE
  8
0
 10
-147.67
 20
-43.7238
 11
-147.861
 21
-43.8826
  0
LINE
  8
0
 10
-147.861
 20
-43.8826
 11
-148.073
 21
-44.0119
  0
LINE
  8
0
 10
-148.073
 20
-44.0119
 11
-148.301
 21
-44.1089
  0
LINE
  8
0
 10
-148.301
 20
-44.1089
 11
-148.541
 21
-44.1717
  0
LINE
  8
0
 10
-148.541
 20
-44.1717
 11
-148.788
 21
-44.1989
  0
LINE
  8
0
 10
-148.788
 20
-44.1989
 11
-149.036
 21
-44.1898
  0
LINE
  8
0
 10
-149.242
 20
-88.7294
 11
-149.63
 21
-88.668
  0
LINE
  8
0
 10
-149.63
 20
-88.668
 11
-150.009
 21
-88.5665
  0
LINE
  8
0
 10
-150.009
 20
-88.5665
 11
-150.375
 21
-88.4258
  0
LINE
  8
0
 10
-150.375
 20
-88.4258
 11
-150.725
 21
-88.2476
  0
LINE
  8
0
 10
-150.725
 20
-88.2476
 11
-151.054
 21
-88.0338
  0
LINE
  8
0
 10
-151.054
 20
-88.0338
 11
-151.359
 21
-87.7868
  0
LINE
  8
0
 10
-151.359
 20
-87.7868
 11
-151.637
 21
-87.5092
  0
LINE
  8
0
 10
-151.637
 20
-87.5092
 11
-151.884
 21
-87.2042
  0
LINE
  8
0
 10
-151.884
 20
-87.2042
 11
-152.098
 21
-86.875
  0
LINE
  8
0
 10
-152.098
 20
-86.875
 11
-152.276
 21
-86.5253
  0
LINE
  8
0
 10
-152.276
 20
-86.5253
 11
-152.416
 21
-86.1588
  0
LINE
  8
0
 10
-152.416
 20
-86.1588
 11
-152.518
 21
-85.7797
  0
LINE
  8
0
 10
-152.518
 20
-85.7797
 11
-152.579
 21
-85.392
  0
LINE
  8
0
 10
-152.579
 20
-85.392
 11
-152.6
 21
-85
  0
LINE
  8
0
 10
-152.6
 20
-85
 11
-152.579
 21
-84.608
  0
LINE
  8
0
 10
-152.579
 20
-84.608
 11
-152.518
 21
-84.2203
  0
LINE
  8
0
 10
-152.518
 20
-84.2203
 11
-152.416
 21
-83.8412
  0
LINE
  8
0
 10
-152.416
 20
-83.8412
 11
-152.276
 21
-83.4747
  0
LINE
  8
0
 10
-152.276
 20
-83.4747
 11
-152.098
 21
-83.125
  0
LINE
  8
0
 10
-152.098
 20
-83.125
 11
-151.884
 21
-82.7958
  0
LINE
  8
0
 10
-151.884
 20
-82.7958
 11
-151.637
 21
-82.4908
  0
LINE
  8
0
 10
-151.637
 20
-82.4908
 11
-151.359
 21
-82.2132
  0
LINE
  8
0
 10
-151.359
 20
-82.2132
 11
-151.054
 21
-81.9662
  0
LINE
  8
0
 10
-151.054
 20
-81.9662
 11
-150.725
 21
-81.7524
  0
LINE
  8
0
 10
-150.725
 20
-81.7524
 11
-150.375
 21
-81.5742
  0
LINE
  8
0
 10
-150.375
 20
-81.5742
 11
-150.009
 21
-81.4335
  0
LINE
  8
0
 10
-150.009
 20
-81.4335
 11
-149.63
 21
-81.3319
  0
LINE
  8
0
 10
-149.63
 20
-81.3319
 11
-149.242
 21
-81.2705
  0
LINE
  8
0
 10
-149.242
 20
-81.2705
 11
-148.85
 21
-81.25
  0
LINE
  8
0
 10
-148.85
 20
-81.25
 11
-148.458
 21
-81.2705
  0
LINE
  8
0
 10
-148.458
 20
-81.2705
 11
-148.07
 21
-81.3319
  0
LINE
  8
0
 10
-148.07
 20
-81.3319
 11
-147.691
 21
-81.4335
  0
LINE
  8
0
 10
-147.691
 20
-81.4335
 11
-147.325
 21
-81.5742
  0
LINE
  8
0
 10
-147.325
 20
-81.5742
 11
-146.975
 21
-81.7524
  0
LINE
  8
0
 10
-146.975
 20
-81.7524
 11
-146.646
 21
-81.9662
  0
LINE
  8
0
 10
-146.646
 20
-81.9662
 11
-146.341
 21
-82.2132
  0
LINE
  8
0
 10
-146.341
 20
-82.2132
 11
-146.063
 21
-82.4908
  0
LINE
  8
0
 10
-146.063
 20
-82.4908
 11
-145.816
 21
-82.7958
  0
LINE
  8
0
 10
-145.816
 20
-82.7958
 11
-145.602
 21
-83.125
  0
LINE
  8
0
 10
-145.602
 20
-83.125
 11
-145.424
 21
-83.4747
  0
LINE
  8
0
 10
-145.424
 20
-83.4747
 11
-145.284
 21
-83.8412
  0
LINE
  8
0
 10
-145.284
 20
-83.8412
 11
-145.182
 21
-84.2203
  0
LINE
  8
0
 10
-145.182
 20
-84.2203
 11
-145.121
 21
-84.608
  0
LINE
  8
0
 10
-145.121
 20
-84.608
 11
-145.1
 21
-85
  0
LINE
  8
0
 10
-145.1
 20
-85
 11
-145.121
 21
-85.392
  0
LINE
  8
0
 10
-145.121
 20
-85.392
 11
-145.182
 21
-85.7797
  0
LINE
  8
0
 10
-145.182
 20
-85.7797
 11
-145.284
 21
-86.1588
  0
LINE
  8
0
 10
-145.284
 20
-86.1588
 11
-145.424
 21
-86.5253
  0
LINE
  8
0
 10
-145.424
 20
-86.5253
 11
-145.602
 21
-86.875
  0
LINE
  8
0
 10
-145.602
 20
-86.875
 11
-145.816
 21
-87.2042
  0
LINE
  8
0
 10
-145.816
 20
-87.2042
 11
-146.063
 21
-87.5092
  0
LINE
  8
0
 10
-146.063
 20
-87.5092
 11
-146.341
 21
-87.7868
  0
LINE
  8
0
 10
-146.341
 20
-87.7868
 11
-146.646
 21
-88.0338
  0
LINE
  8
0
 10
-146.646
 20
-88.0338
 11
-146.975
 21
-88.2476
  0
LINE
  8
0
 10
-146.975
 20
-88.2476
 11
-147.325
 21
-88.4258
  0
LINE
  8
0
 10
-147.325
 20
-88.4258
 11
-147.691
 21
-88.5665
  0
LINE
  8
0
 10
-147.691
 20
-88.5665
 11
-148.07
 21
-88.668
  0
LINE
  8
0
 10
-148.07
 20
-88.668
 11
-148.458
 21
-88.7294
  0
LINE
  8
0
 10
-148.458
 20
-88.7294
 11
-148.85
 21
-88.75
  0
LINE
  8
0
 10
-148.85
 20
-88.75
 11
-149.242
 21
-88.7294
  0
LINE
  8
0
 10
148.458
 20
-88.7294
 11
148.07
 21
-88.668
  0
LINE
  8
0
 10
148.07
 20
-88.668
 11
147.691
 21
-88.5665
  0
LINE
  8
0
 10
147.691
 20
-88.5665
 11
147.325
 21
-88.4258
  0
LINE
  8
0
 10
147.325
 20
-88.4258
 11
146.975
 21
-88.2476
  0
LINE
  8
0
 10
146.975
 20
-88.2476
 11
146.646
 21
-88.0338
  0
LINE
  8
0
 10
146.646
 20
-88.0338
 11
146.341
 21
-87.7868
  0
LINE
  8
0
 10
146.341
 20
-87.7868
 11
146.063
 21
-87.5092
  0
LINE
  8
0
 10
146.063
 20
-87.5092
 11
145.816
 21
-87.2042
  0
LINE
  8
0
 10
145.816
 20
-87.2042
 11
145.602
 21
-86.875
  0
LINE
  8
0
 10
145.602
 20
-86.875
 11
145.424
 21
-86.5253
  0
LINE
  8
0
 10
145.424
 20
-86.5253
 11
145.284
 21
-86.1588
  0
LINE
  8
0
 10
145.284
 20
-86.1588
 11
145.182
 21
-85.7797
  0
LINE
  8
0
 10
145.182
 20
-85.7797
 11
145.121
 21
-85.392
  0
LINE
  8
0
 10
145.121
 20
-85.392
 11
145.1
 21
-85
  0
LINE
  8
0
 10
145.1
 20
-85
 11
145.121
 21
-84.608
  0
LINE
  8
0
 10
145.121
 20
-84.608
 11
145.182
 21
-84.2203
  0
LINE
  8
0
 10
145.182
 20
-84.2203
 11
145.284
 21
-83.8412
  0
LINE
  8
0
 10
145.284
 20
-83.8412
 11
145.424
 21
-83.4747
  0
LINE
  8
0
 10
145.424
 20
-83.4747
 11
145.602
 21
-83.125
  0
LINE
  8
0
 10
145.602
 20
-83.125
 11
145.816
 21
-82.7958
  0
LINE
  8
0
 10
145.816
 20
-82.7958
 11
146.063
 21
-82.4908
  0
LINE
  8
0
 10
146.063
 20
-82.4908
 11
146.341
 21
-82.2132
  0
LINE
  8
0
 10
146.341
 20
-82.2132
 11
146.646
 21
-81.9662
  0
LINE
  8
0
 10
146.646
 20
-81.9662
 11
146.975
 21
-81.7524
  0
LINE
  8
0
 10
146.975
 20
-81.7524
 11
147.325
 21
-81.5742
  0
LINE
  8
0
 10
147.325
 20
-81.5742
 11
147.691
 21
-81.4335
  0
LINE
  8
0
 10
147.691
 20
-81.4335
 11
148.07
 21
-81.3319
  0
LINE
  8
0
 10
148.07
 20
-81.3319
 11
148.458
 21
-81.2705
  0
LINE
  8
0
 10
148.458
 20
-81.2705
 11
148.85
 21
-81.25
  0
LINE
  8
0
 10
148.85
 20
-81.25
 11
149.242
 21
-81.2705
  0
LINE
  8
0
 10
149.242
 20
-81.2705
 11
149.63
 21
-81.3319
  0
LINE
  8
0
 10
149.63
 20
-81.3319
 11
150.009
 21
-81.4335
  0
LINE
  8
0
 10
150.009
 20
-81.4335
 11
150.375
 21
-81.5742
  0
LINE
  8
0
 10
150.375
 20
-81.5742
 11
150.725
 21
-81.7524
  0
LINE
  8
0
 10
150.725
 20
-81.7524
 11
151.054
 21
-81.9662
  0
LINE
  8
0
 10
151.054
 20
-81.9662
 11
151.359
 21
-82.2132
  0
LINE
  8
0
 10
151.359
 20
-82.2132
 11
151.637
 21
-82.4908
  0
LINE
  8
0
 10
151.637
 20
-82.4908
 11
151.884
 21
-82.7958
  0
LINE
  8
0
 10
151.884
 20
-82.7958
 11
152.098
 21
-83.125
  0
LINE
  8
0
 10
152.098
 20
-83.125
 11
152.276
 21
-83.4747
  0
LINE
  8
0
 10
152.276
 20
-83.4747
 11
152.416
 21
-83.8412
  0
LINE
  8
0
 10
152.416
 20
-83.8412
 11
152.518
 21
-84.2203
  0
LINE
  8
0
 10
152.518
 20
-84.2203
 11
152.579
 21
-84.608
  0
LINE
  8
0
 10
152.579
 20
-84.608
 11
152.6
 21
-85
  0
LINE
  8
0
 10
152.6
 20
-85
 11
152.579
 21
-85.392
  0
LINE
  8
0
 10
152.579
 20
-85.392
 11
152.518
 21
-85.7797
  0
LINE
  8
0
 10
152.518
 20
-85.7797
 11
152.416
 21
-86.1588
  0
LINE
  8
0
 10
152.416
 20
-86.1588
 11
152.276
 21
-86.5253
  0
LINE
  8
0
 10
152.276
 20
-86.5253
 11
152.098
 21
-86.875
  0
LINE
  8
0
 10
152.098
 20
-86.875
 11
151.884
 21
-87.2042
  0
LINE
  8
0
 10
151.884
 20
-87.2042
 11
151.637
 21
-87.5092
  0
LINE
  8
0
 10
151.637
 20
-87.5092
 11
151.359
 21
-87.7868
  0
LINE
  8
0
 10
151.359
 20
-87.7868
 11
151.054
 21
-88.0338
  0
LINE
  8
0
 10
151.054
 20
-88.0338
 11
150.725
 21
-88.2476
  0
LINE
  8
0
 10
150.725
 20
-88.2476
 11
150.375
 21
-88.4258
  0
LINE
  8
0
 10
150.375
 20
-88.4258
 11
150.009
 21
-88.5665
  0
LINE
  8
0
 10
150.009
 20
-88.5665
 11
149.63
 21
-88.668
  0
LINE
  8
0
 10
149.63
 20
-88.668
 11
149.242
 21
-88.7294
  0
LINE
  8
0
 10
149.242
 20
-88.7294
 11
148.85
 21
-88.75
  0
LINE
  8
0
 10
148.85
 20
-88.75
 11
148.458
 21
-88.7294
  0
ENDSEC
  0
SECTION
  2
OBJECTS
  0
DICTIONARY
  0
ENDSEC
  0
EOF
