  0
SECTION
  2
BLOCKS
  0
ENDSEC
  0
SECTION
  2
ENTITIES
  0
LINE
  8
0
 10
-182.5
 20
98.85
 11
-182.473
 21
99.3726
  0
LINE
  8
0
 10
-182.473
 20
99.3726
 11
-182.391
 21
99.8896
  0
LINE
  8
0
 10
-182.391
 20
99.8896
 11
-182.255
 21
100.395
  0
LINE
  8
0
 10
-182.255
 20
100.395
 11
-182.068
 21
100.884
  0
LINE
  8
0
 10
-182.068
 20
100.884
 11
-181.83
 21
101.35
  0
LINE
  8
0
 10
-181.83
 20
101.35
 11
-181.545
 21
101.789
  0
LINE
  8
0
 10
-181.545
 20
101.789
 11
-181.216
 21
102.196
  0
LINE
  8
0
 10
-181.216
 20
102.196
 11
-180.846
 21
102.566
  0
LINE
  8
0
 10
-180.846
 20
102.566
 11
-180.439
 21
102.895
  0
LINE
  8
0
 10
-180.439
 20
102.895
 11
-180
 21
103.18
  0
LINE
  8
0
 10
-180
 20
103.18
 11
-179.534
 21
103.418
  0
LINE
  8
0
 10
-179.534
 20
103.418
 11
-179.045
 21
103.605
  0
LINE
  8
0
 10
-179.045
 20
103.605
 11
-178.54
 21
103.741
  0
LINE
  8
0
 10
-178.54
 20
103.741
 11
-178.023
 21
103.823
  0
LINE
  8
0
 10
-178.023
 20
103.823
 11
-177.5
 21
103.85
  0
LINE
  8
0
 10
-177.5
 20
103.85
 11
177.5
 21
103.85
  0
LINE
  8
0
 10
177.5
 20
103.85
 11
178.023
 21
103.823
  0
LINE
  8
0
 10
178.023
 20
103.823
 11
178.54
 21
103.741
  0
LINE
  8
0
 10
178.54
 20
103.741
 11
179.045
 21
103.605
  0
LINE
  8
0
 10
179.045
 20
103.605
 11
179.534
 21
103.418
  0
LINE
  8
0
 10
179.534
 20
103.418
 11
180
 21
103.18
  0
LINE
  8
0
 10
180
 20
103.18
 11
180.439
 21
102.895
  0
LINE
  8
0
 10
180.439
 20
102.895
 11
180.846
 21
102.566
  0
LINE
  8
0
 10
180.846
 20
102.566
 11
181.216
 21
102.196
  0
LINE
  8
0
 10
181.216
 20
102.196
 11
181.545
 21
101.789
  0
LINE
  8
0
 10
181.545
 20
101.789
 11
181.83
 21
101.35
  0
LINE
  8
0
 10
181.83
 20
101.35
 11
182.068
 21
100.884
  0
LINE
  8
0
 10
182.068
 20
100.884
 11
182.255
 21
100.395
  0
LINE
  8
0
 10
182.255
 20
100.395
 11
182.391
 21
99.8896
  0
LINE
  8
0
 10
182.391
 20
99.8896
 11
182.473
 21
99.3726
  0
LINE
  8
0
 10
182.473
 20
99.3726
 11
182.5
 21
98.85
  0
LINE
  8
0
 10
182.5
 20
98.85
 11
182.5
 21
-156.225
  0
LINE
  8
0
 10
182.5
 20
-156.225
 11
207.375
 21
-156.225
  0
LINE
  8
0
 10
207.375
 20
-156.225
 11
207.898
 21
-156.198
  0
LINE
  8
0
 10
207.898
 20
-156.198
 11
208.415
 21
-156.116
  0
LINE
  8
0
 10
208.415
 20
-156.116
 11
208.92
 21
-155.98
  0
LINE
  8
0
 10
208.92
 20
-155.98
 11
209.409
 21
-155.793
  0
LINE
  8
0
 10
209.409
 20
-155.793
 11
209.875
 21
-155.555
  0
LINE
  8
0
 10
209.875
 20
-155.555
 11
210.314
 21
-155.27
  0
LINE
  8
0
 10
210.314
 20
-155.27
 11
210.721
 21
-154.941
  0
LINE
  8
0
 10
210.721
 20
-154.941
 11
211.091
 21
-154.571
  0
LINE
  8
0
 10
211.091
 20
-154.571
 11
211.42
 21
-154.164
  0
LINE
  8
0
 10
211.42
 20
-154.164
 11
211.705
 21
-153.725
  0
LINE
  8
0
 10
211.705
 20
-153.725
 11
211.943
 21
-153.259
  0
LINE
  8
0
 10
211.943
 20
-153.259
 11
212.13
 21
-152.77
  0
LINE
  8
0
 10
212.13
 20
-152.77
 11
212.266
 21
-152.265
  0
LINE
  8
0
 10
212.266
 20
-152.265
 11
212.348
 21
-151.748
  0
LINE
  8
0
 10
212.348
 20
-151.748
 11
212.375
 21
-151.225
  0
LINE
  8
0
 10
212.375
 20
-151.225
 11
212.375
 21
151.225
  0
LINE
  8
0
 10
212.375
 20
151.225
 11
212.348
 21
151.748
  0
LINE
  8
0
 10
212.348
 20
151.748
 11
212.266
 21
152.265
  0
LINE
  8
0
 10
212.266
 20
152.265
 11
212.13
 21
152.77
  0
LINE
  8
0
 10
212.13
 20
152.77
 11
211.943
 21
153.259
  0
LINE
  8
0
 10
211.943
 20
153.259
 11
211.705
 21
153.725
  0
LINE
  8
0
 10
211.705
 20
153.725
 11
211.42
 21
154.164
  0
LINE
  8
0
 10
211.42
 20
154.164
 11
211.091
 21
154.571
  0
LINE
  8
0
 10
211.091
 20
154.571
 11
210.721
 21
154.941
  0
LINE
  8
0
 10
210.721
 20
154.941
 11
210.314
 21
155.27
  0
LINE
  8
0
 10
210.314
 20
155.27
 11
209.875
 21
155.555
  0
LINE
  8
0
 10
209.875
 20
155.555
 11
209.409
 21
155.793
  0
LINE
  8
0
 10
209.409
 20
155.793
 11
208.92
 21
155.98
  0
LINE
  8
0
 10
208.92
 20
155.98
 11
208.415
 21
156.116
  0
LINE
  8
0
 10
208.415
 20
156.116
 11
207.898
 21
156.198
  0
LINE
  8
0
 10
207.898
 20
156.198
 11
207.375
 21
156.225
  0
LINE
  8
0
 10
207.375
 20
156.225
 11
-207.375
 21
156.225
  0
LINE
  8
0
 10
-207.375
 20
156.225
 11
-207.898
 21
156.198
  0
LINE
  8
0
 10
-207.898
 20
156.198
 11
-208.415
 21
156.116
  0
LINE
  8
0
 10
-208.415
 20
156.116
 11
-208.92
 21
155.98
  0
LINE
  8
0
 10
-208.92
 20
155.98
 11
-209.409
 21
155.793
  0
LINE
  8
0
 10
-209.409
 20
155.793
 11
-209.875
 21
155.555
  0
LINE
  8
0
 10
-209.875
 20
155.555
 11
-210.314
 21
155.27
  0
LINE
  8
0
 10
-210.314
 20
155.27
 11
-210.721
 21
154.941
  0
LINE
  8
0
 10
-210.721
 20
154.941
 11
-211.091
 21
154.571
  0
LINE
  8
0
 10
-211.091
 20
154.571
 11
-211.42
 21
154.164
  0
LINE
  8
0
 10
-211.42
 20
154.164
 11
-211.705
 21
153.725
  0
LINE
  8
0
 10
-211.705
 20
153.725
 11
-211.943
 21
153.259
  0
LINE
  8
0
 10
-211.943
 20
153.259
 11
-212.13
 21
152.77
  0
LINE
  8
0
 10
-212.13
 20
152.77
 11
-212.266
 21
152.265
  0
LINE
  8
0
 10
-212.266
 20
152.265
 11
-212.348
 21
151.748
  0
LINE
  8
0
 10
-212.348
 20
151.748
 11
-212.375
 21
151.225
  0
LINE
  8
0
 10
-212.375
 20
151.225
 11
-212.375
 21
-151.225
  0
LINE
  8
0
 10
-212.375
 20
-151.225
 11
-212.348
 21
-151.748
  0
LINE
  8
0
 10
-212.348
 20
-151.748
 11
-212.266
 21
-152.265
  0
LINE
  8
0
 10
-212.266
 20
-152.265
 11
-212.13
 21
-152.77
  0
LINE
  8
0
 10
-212.13
 20
-152.77
 11
-211.943
 21
-153.259
  0
LINE
  8
0
 10
-211.943
 20
-153.259
 11
-211.705
 21
-153.725
  0
LINE
  8
0
 10
-211.705
 20
-153.725
 11
-211.42
 21
-154.164
  0
LINE
  8
0
 10
-211.42
 20
-154.164
 11
-211.091
 21
-154.571
  0
LINE
  8
0
 10
-211.091
 20
-154.571
 11
-210.721
 21
-154.941
  0
LINE
  8
0
 10
-210.721
 20
-154.941
 11
-210.314
 21
-155.27
  0
LINE
  8
0
 10
-210.314
 20
-155.27
 11
-209.875
 21
-155.555
  0
LINE
  8
0
 10
-209.875
 20
-155.555
 11
-209.409
 21
-155.793
  0
LINE
  8
0
 10
-209.409
 20
-155.793
 11
-208.92
 21
-155.98
  0
LINE
  8
0
 10
-208.92
 20
-155.98
 11
-208.415
 21
-156.116
  0
LINE
  8
0
 10
-208.415
 20
-156.116
 11
-207.898
 21
-156.198
  0
LINE
  8
0
 10
-207.898
 20
-156.198
 11
-207.375
 21
-156.225
  0
LINE
  8
0
 10
-207.375
 20
-156.225
 11
-182.5
 21
-156.225
  0
LINE
  8
0
 10
-182.5
 20
-156.225
 11
-182.5
 21
98.85
  0
LINE
  8
0
 10
-205.392
 20
145.121
 11
-205.78
 21
145.182
  0
LINE
  8
0
 10
-205.78
 20
145.182
 11
-206.159
 21
145.284
  0
LINE
  8
0
 10
-206.159
 20
145.284
 11
-206.525
 21
145.424
  0
LINE
  8
0
 10
-206.525
 20
145.424
 11
-206.875
 21
145.602
  0
LINE
  8
0
 10
-206.875
 20
145.602
 11
-207.204
 21
145.816
  0
LINE
  8
0
 10
-207.204
 20
145.816
 11
-207.509
 21
146.063
  0
LINE
  8
0
 10
-207.509
 20
146.063
 11
-207.787
 21
146.341
  0
LINE
  8
0
 10
-207.787
 20
146.341
 11
-208.034
 21
146.646
  0
LINE
  8
0
 10
-208.034
 20
146.646
 11
-208.248
 21
146.975
  0
LINE
  8
0
 10
-208.248
 20
146.975
 11
-208.426
 21
147.325
  0
LINE
  8
0
 10
-208.426
 20
147.325
 11
-208.566
 21
147.691
  0
LINE
  8
0
 10
-208.566
 20
147.691
 11
-208.668
 21
148.07
  0
LINE
  8
0
 10
-208.668
 20
148.07
 11
-208.729
 21
148.458
  0
LINE
  8
0
 10
-208.729
 20
148.458
 11
-208.75
 21
148.85
  0
LINE
  8
0
 10
-208.75
 20
148.85
 11
-208.729
 21
149.242
  0
LINE
  8
0
 10
-208.729
 20
149.242
 11
-208.668
 21
149.63
  0
LINE
  8
0
 10
-208.668
 20
149.63
 11
-208.566
 21
150.009
  0
LINE
  8
0
 10
-208.566
 20
150.009
 11
-208.426
 21
150.375
  0
LINE
  8
0
 10
-208.426
 20
150.375
 11
-208.248
 21
150.725
  0
LINE
  8
0
 10
-208.248
 20
150.725
 11
-208.034
 21
151.054
  0
LINE
  8
0
 10
-208.034
 20
151.054
 11
-207.787
 21
151.359
  0
LINE
  8
0
 10
-207.787
 20
151.359
 11
-207.509
 21
151.637
  0
LINE
  8
0
 10
-207.509
 20
151.637
 11
-207.204
 21
151.884
  0
LINE
  8
0
 10
-207.204
 20
151.884
 11
-206.875
 21
152.098
  0
LINE
  8
0
 10
-206.875
 20
152.098
 11
-206.525
 21
152.276
  0
LINE
  8
0
 10
-206.525
 20
152.276
 11
-206.159
 21
152.416
  0
LINE
  8
0
 10
-206.159
 20
152.416
 11
-205.78
 21
152.518
  0
LINE
  8
0
 10
-205.78
 20
152.518
 11
-205.392
 21
152.579
  0
LINE
  8
0
 10
-205.392
 20
152.579
 11
-205
 21
152.6
  0
LINE
  8
0
 10
-205
 20
152.6
 11
-204.608
 21
152.579
  0
LINE
  8
0
 10
-204.608
 20
152.579
 11
-204.22
 21
152.518
  0
LINE
  8
0
 10
-204.22
 20
152.518
 11
-203.841
 21
152.416
  0
LINE
  8
0
 10
-203.841
 20
152.416
 11
-203.475
 21
152.276
  0
LINE
  8
0
 10
-203.475
 20
152.276
 11
-203.125
 21
152.098
  0
LINE
  8
0
 10
-203.125
 20
152.098
 11
-202.796
 21
151.884
  0
LINE
  8
0
 10
-202.796
 20
151.884
 11
-202.491
 21
151.637
  0
LINE
  8
0
 10
-202.491
 20
151.637
 11
-202.213
 21
151.359
  0
LINE
  8
0
 10
-202.213
 20
151.359
 11
-201.966
 21
151.054
  0
LINE
  8
0
 10
-201.966
 20
151.054
 11
-201.752
 21
150.725
  0
LINE
  8
0
 10
-201.752
 20
150.725
 11
-201.574
 21
150.375
  0
LINE
  8
0
 10
-201.574
 20
150.375
 11
-201.434
 21
150.009
  0
LINE
  8
0
 10
-201.434
 20
150.009
 11
-201.332
 21
149.63
  0
LINE
  8
0
 10
-201.332
 20
149.63
 11
-201.271
 21
149.242
  0
LINE
  8
0
 10
-201.271
 20
149.242
 11
-201.25
 21
148.85
  0
LINE
  8
0
 10
-201.25
 20
148.85
 11
-201.271
 21
148.458
  0
LINE
  8
0
 10
-201.271
 20
148.458
 11
-201.332
 21
148.07
  0
LINE
  8
0
 10
-201.332
 20
148.07
 11
-201.434
 21
147.691
  0
LINE
  8
0
 10
-201.434
 20
147.691
 11
-201.574
 21
147.325
  0
LINE
  8
0
 10
-201.574
 20
147.325
 11
-201.752
 21
146.975
  0
LINE
  8
0
 10
-201.752
 20
146.975
 11
-201.966
 21
146.646
  0
LINE
  8
0
 10
-201.966
 20
146.646
 11
-202.213
 21
146.341
  0
LINE
  8
0
 10
-202.213
 20
146.341
 11
-202.491
 21
146.063
  0
LINE
  8
0
 10
-202.491
 20
146.063
 11
-202.796
 21
145.816
  0
LINE
  8
0
 10
-202.796
 20
145.816
 11
-203.125
 21
145.602
  0
LINE
  8
0
 10
-203.125
 20
145.602
 11
-203.475
 21
145.424
  0
LINE
  8
0
 10
-203.475
 20
145.424
 11
-203.841
 21
145.284
  0
LINE
  8
0
 10
-203.841
 20
145.284
 11
-204.22
 21
145.182
  0
LINE
  8
0
 10
-204.22
 20
145.182
 11
-204.608
 21
145.121
  0
LINE
  8
0
 10
-204.608
 20
145.121
 11
-205
 21
145.1
  0
LINE
  8
0
 10
-205
 20
145.1
 11
-205.392
 21
145.121
  0
LINE
  8
0
 10
204.608
 20
145.121
 11
204.22
 21
145.182
  0
LINE
  8
0
 10
204.22
 20
145.182
 11
203.841
 21
145.284
  0
LINE
  8
0
 10
203.841
 20
145.284
 11
203.475
 21
145.424
  0
LINE
  8
0
 10
203.475
 20
145.424
 11
203.125
 21
145.602
  0
LINE
  8
0
 10
203.125
 20
145.602
 11
202.796
 21
145.816
  0
LINE
  8
0
 10
202.796
 20
145.816
 11
202.491
 21
146.063
  0
LINE
  8
0
 10
202.491
 20
146.063
 11
202.213
 21
146.341
  0
LINE
  8
0
 10
202.213
 20
146.341
 11
201.966
 21
146.646
  0
LINE
  8
0
 10
201.966
 20
146.646
 11
201.752
 21
146.975
  0
LINE
  8
0
 10
201.752
 20
146.975
 11
201.574
 21
147.325
  0
LINE
  8
0
 10
201.574
 20
147.325
 11
201.434
 21
147.691
  0
LINE
  8
0
 10
201.434
 20
147.691
 11
201.332
 21
148.07
  0
LINE
  8
0
 10
201.332
 20
148.07
 11
201.271
 21
148.458
  0
LINE
  8
0
 10
201.271
 20
148.458
 11
201.25
 21
148.85
  0
LINE
  8
0
 10
201.25
 20
148.85
 11
201.271
 21
149.242
  0
LINE
  8
0
 10
201.271
 20
149.242
 11
201.332
 21
149.63
  0
LINE
  8
0
 10
201.332
 20
149.63
 11
201.434
 21
150.009
  0
LINE
  8
0
 10
201.434
 20
150.009
 11
201.574
 21
150.375
  0
LINE
  8
0
 10
201.574
 20
150.375
 11
201.752
 21
150.725
  0
LINE
  8
0
 10
201.752
 20
150.725
 11
201.966
 21
151.054
  0
LINE
  8
0
 10
201.966
 20
151.054
 11
202.213
 21
151.359
  0
LINE
  8
0
 10
202.213
 20
151.359
 11
202.491
 21
151.637
  0
LINE
  8
0
 10
202.491
 20
151.637
 11
202.796
 21
151.884
  0
LINE
  8
0
 10
202.796
 20
151.884
 11
203.125
 21
152.098
  0
LINE
  8
0
 10
203.125
 20
152.098
 11
203.475
 21
152.276
  0
LINE
  8
0
 10
203.475
 20
152.276
 11
203.841
 21
152.416
  0
LINE
  8
0
 10
203.841
 20
152.416
 11
204.22
 21
152.518
  0
LINE
  8
0
 10
204.22
 20
152.518
 11
204.608
 21
152.579
  0
LINE
  8
0
 10
204.608
 20
152.579
 11
205
 21
152.6
  0
LINE
  8
0
 10
205
 20
152.6
 11
205.392
 21
152.579
  0
LINE
  8
0
 10
205.392
 20
152.579
 11
205.78
 21
152.518
  0
LINE
  8
0
 10
205.78
 20
152.518
 11
206.159
 21
152.416
  0
LINE
  8
0
 10
206.159
 20
152.416
 11
206.525
 21
152.276
  0
LINE
  8
0
 10
206.525
 20
152.276
 11
206.875
 21
152.098
  0
LINE
  8
0
 10
206.875
 20
152.098
 11
207.204
 21
151.884
  0
LINE
  8
0
 10
207.204
 20
151.884
 11
207.509
 21
151.637
  0
LINE
  8
0
 10
207.509
 20
151.637
 11
207.787
 21
151.359
  0
LINE
  8
0
 10
207.787
 20
151.359
 11
208.034
 21
151.054
  0
LINE
  8
0
 10
208.034
 20
151.054
 11
208.248
 21
150.725
  0
LINE
  8
0
 10
208.248
 20
150.725
 11
208.426
 21
150.375
  0
LINE
  8
0
 10
208.426
 20
150.375
 11
208.566
 21
150.009
  0
LINE
  8
0
 10
208.566
 20
150.009
 11
208.668
 21
149.63
  0
LINE
  8
0
 10
208.668
 20
149.63
 11
208.729
 21
149.242
  0
LINE
  8
0
 10
208.729
 20
149.242
 11
208.75
 21
148.85
  0
LINE
  8
0
 10
208.75
 20
148.85
 11
208.729
 21
148.458
  0
LINE
  8
0
 10
208.729
 20
148.458
 11
208.668
 21
148.07
  0
LINE
  8
0
 10
208.668
 20
148.07
 11
208.566
 21
147.691
  0
LINE
  8
0
 10
208.566
 20
147.691
 11
208.426
 21
147.325
  0
LINE
  8
0
 10
208.426
 20
147.325
 11
208.248
 21
146.975
  0
LINE
  8
0
 10
208.248
 20
146.975
 11
208.034
 21
146.646
  0
LINE
  8
0
 10
208.034
 20
146.646
 11
207.787
 21
146.341
  0
LINE
  8
0
 10
207.787
 20
146.341
 11
207.509
 21
146.063
  0
LINE
  8
0
 10
207.509
 20
146.063
 11
207.204
 21
145.816
  0
LINE
  8
0
 10
207.204
 20
145.816
 11
206.875
 21
145.602
  0
LINE
  8
0
 10
206.875
 20
145.602
 11
206.525
 21
145.424
  0
LINE
  8
0
 10
206.525
 20
145.424
 11
206.159
 21
145.284
  0
LINE
  8
0
 10
206.159
 20
145.284
 11
205.78
 21
145.182
  0
LINE
  8
0
 10
205.78
 20
145.182
 11
205.392
 21
145.121
  0
LINE
  8
0
 10
205.392
 20
145.121
 11
205
 21
145.1
  0
LINE
  8
0
 10
205
 20
145.1
 11
204.608
 21
145.121
  0
LINE
  8
0
 10
-162.809
 20
147.178
 11
-163.049
 21
147.241
  0
LINE
  8
0
 10
-163.049
 20
147.241
 11
-163.277
 21
147.338
  0
LINE
  8
0
 10
-163.277
 20
147.338
 11
-163.489
 21
147.467
  0
LINE
  8
0
 10
-163.489
 20
147.467
 11
-163.68
 21
147.626
  0
LINE
  8
0
 10
-163.68
 20
147.626
 11
-163.846
 21
147.811
  0
LINE
  8
0
 10
-163.846
 20
147.811
 11
-163.982
 21
148.018
  0
LINE
  8
0
 10
-163.982
 20
148.018
 11
-164.088
 21
148.243
  0
LINE
  8
0
 10
-164.088
 20
148.243
 11
-164.159
 21
148.48
  0
LINE
  8
0
 10
-164.159
 20
148.48
 11
-164.195
 21
148.726
  0
LINE
  8
0
 10
-164.195
 20
148.726
 11
-164.195
 21
148.974
  0
LINE
  8
0
 10
-164.195
 20
148.974
 11
-164.159
 21
149.22
  0
LINE
  8
0
 10
-164.159
 20
149.22
 11
-164.088
 21
149.457
  0
LINE
  8
0
 10
-164.088
 20
149.457
 11
-163.982
 21
149.682
  0
LINE
  8
0
 10
-163.982
 20
149.682
 11
-163.846
 21
149.889
  0
LINE
  8
0
 10
-163.846
 20
149.889
 11
-163.68
 21
150.074
  0
LINE
  8
0
 10
-163.68
 20
150.074
 11
-163.489
 21
150.233
  0
LINE
  8
0
 10
-163.489
 20
150.233
 11
-163.277
 21
150.362
  0
LINE
  8
0
 10
-163.277
 20
150.362
 11
-163.049
 21
150.459
  0
LINE
  8
0
 10
-163.049
 20
150.459
 11
-162.809
 21
150.522
  0
LINE
  8
0
 10
-162.809
 20
150.522
 11
-162.562
 21
150.549
  0
LINE
  8
0
 10
-162.562
 20
150.549
 11
-162.314
 21
150.54
  0
LINE
  8
0
 10
-162.314
 20
150.54
 11
-162.07
 21
150.495
  0
LINE
  8
0
 10
-162.07
 20
150.495
 11
-161.835
 21
150.415
  0
LINE
  8
0
 10
-161.835
 20
150.415
 11
-161.614
 21
150.301
  0
LINE
  8
0
 10
-161.614
 20
150.301
 11
-161.413
 21
150.157
  0
LINE
  8
0
 10
-161.413
 20
150.157
 11
-161.234
 21
149.984
  0
LINE
  8
0
 10
-161.234
 20
149.984
 11
-161.082
 21
149.788
  0
LINE
  8
0
 10
-161.082
 20
149.788
 11
-160.961
 21
149.572
  0
LINE
  8
0
 10
-160.961
 20
149.572
 11
-160.872
 21
149.34
  0
LINE
  8
0
 10
-160.872
 20
149.34
 11
-160.818
 21
149.098
  0
LINE
  8
0
 10
-160.818
 20
149.098
 11
-160.8
 21
148.85
  0
LINE
  8
0
 10
-160.8
 20
148.85
 11
-160.818
 21
148.602
  0
LINE
  8
0
 10
-160.818
 20
148.602
 11
-160.872
 21
148.36
  0
LINE
  8
0
 10
-160.872
 20
148.36
 11
-160.961
 21
148.128
  0
LINE
  8
0
 10
-160.961
 20
148.128
 11
-161.082
 21
147.912
  0
LINE
  8
0
 10
-161.082
 20
147.912
 11
-161.234
 21
147.716
  0
LINE
  8
0
 10
-161.234
 20
147.716
 11
-161.413
 21
147.543
  0
LINE
  8
0
 10
-161.413
 20
147.543
 11
-161.614
 21
147.399
  0
LINE
  8
0
 10
-161.614
 20
147.399
 11
-161.835
 21
147.285
  0
LINE
  8
0
 10
-161.835
 20
147.285
 11
-162.07
 21
147.205
  0
LINE
  8
0
 10
-162.07
 20
147.205
 11
-162.314
 21
147.16
  0
LINE
  8
0
 10
-162.314
 20
147.16
 11
-162.562
 21
147.151
  0
LINE
  8
0
 10
-162.562
 20
147.151
 11
-162.809
 21
147.178
  0
LINE
  8
0
 10
-0.308777
 20
147.178
 11
-0.548889
 21
147.241
  0
LINE
  8
0
 10
-0.548889
 20
147.241
 11
-0.777298
 21
147.338
  0
LINE
  8
0
 10
-0.777298
 20
147.338
 11
-0.989151
 21
147.467
  0
LINE
  8
0
 10
-0.989151
 20
147.467
 11
-1.17992
 21
147.626
  0
LINE
  8
0
 10
-1.17992
 20
147.626
 11
-1.34554
 21
147.811
  0
LINE
  8
0
 10
-1.34554
 20
147.811
 11
-1.48248
 21
148.018
  0
LINE
  8
0
 10
-1.48248
 20
148.018
 11
-1.58781
 21
148.243
  0
LINE
  8
0
 10
-1.58781
 20
148.243
 11
-1.65932
 21
148.48
  0
LINE
  8
0
 10
-1.65932
 20
148.48
 11
-1.69545
 21
148.726
  0
LINE
  8
0
 10
-1.69545
 20
148.726
 11
-1.69545
 21
148.974
  0
LINE
  8
0
 10
-1.69545
 20
148.974
 11
-1.65932
 21
149.22
  0
LINE
  8
0
 10
-1.65932
 20
149.22
 11
-1.58781
 21
149.457
  0
LINE
  8
0
 10
-1.58781
 20
149.457
 11
-1.48248
 21
149.682
  0
LINE
  8
0
 10
-1.48248
 20
149.682
 11
-1.34554
 21
149.889
  0
LINE
  8
0
 10
-1.34554
 20
149.889
 11
-1.17992
 21
150.074
  0
LINE
  8
0
 10
-1.17992
 20
150.074
 11
-0.989151
 21
150.233
  0
LINE
  8
0
 10
-0.989151
 20
150.233
 11
-0.777298
 21
150.362
  0
LINE
  8
0
 10
-0.777298
 20
150.362
 11
-0.548889
 21
150.459
  0
LINE
  8
0
 10
-0.548889
 20
150.459
 11
-0.308777
 21
150.522
  0
LINE
  8
0
 10
-0.308777
 20
150.522
 11
-0.0620728
 21
150.549
  0
LINE
  8
0
 10
-0.0620728
 20
150.549
 11
0.185928
 21
150.54
  0
LINE
  8
0
 10
0.185928
 20
150.54
 11
0.429977
 21
150.495
  0
LINE
  8
0
 10
0.429977
 20
150.495
 11
0.664871
 21
150.415
  0
LINE
  8
0
 10
0.664871
 20
150.415
 11
0.88559
 21
150.301
  0
LINE
  8
0
 10
0.88559
 20
150.301
 11
1.08743
 21
150.157
  0
LINE
  8
0
 10
1.08743
 20
150.157
 11
1.2661
 21
149.984
  0
LINE
  8
0
 10
1.2661
 20
149.984
 11
1.41779
 21
149.788
  0
LINE
  8
0
 10
1.41779
 20
149.788
 11
1.53926
 21
149.572
  0
LINE
  8
0
 10
1.53926
 20
149.572
 11
1.62791
 21
149.34
  0
LINE
  8
0
 10
1.62791
 20
149.34
 11
1.68187
 21
149.098
  0
LINE
  8
0
 10
1.68187
 20
149.098
 11
1.7
 21
148.85
  0
LINE
  8
0
 10
1.7
 20
148.85
 11
1.68187
 21
148.602
  0
LINE
  8
0
 10
1.68187
 20
148.602
 11
1.62791
 21
148.36
  0
LINE
  8
0
 10
1.62791
 20
148.36
 11
1.53926
 21
148.128
  0
LINE
  8
0
 10
1.53926
 20
148.128
 11
1.41779
 21
147.912
  0
LINE
  8
0
 10
1.41779
 20
147.912
 11
1.2661
 21
147.716
  0
LINE
  8
0
 10
1.2661
 20
147.716
 11
1.08743
 21
147.543
  0
LINE
  8
0
 10
1.08743
 20
147.543
 11
0.88559
 21
147.399
  0
LINE
  8
0
 10
0.88559
 20
147.399
 11
0.664871
 21
147.285
  0
LINE
  8
0
 10
0.664871
 20
147.285
 11
0.429977
 21
147.205
  0
LINE
  8
0
 10
0.429977
 20
147.205
 11
0.185928
 21
147.16
  0
LINE
  8
0
 10
0.185928
 20
147.16
 11
-0.0620728
 21
147.151
  0
LINE
  8
0
 10
-0.0620728
 20
147.151
 11
-0.308777
 21
147.178
  0
LINE
  8
0
 10
81.68
 20
150.495
 11
81.9149
 21
150.415
  0
LINE
  8
0
 10
81.9149
 20
150.415
 11
82.1356
 21
150.301
  0
LINE
  8
0
 10
82.1356
 20
150.301
 11
82.3374
 21
150.157
  0
LINE
  8
0
 10
82.3374
 20
150.157
 11
82.5161
 21
149.984
  0
LINE
  8
0
 10
82.5161
 20
149.984
 11
82.6678
 21
149.788
  0
LINE
  8
0
 10
82.6678
 20
149.788
 11
82.7893
 21
149.572
  0
LINE
  8
0
 10
82.7893
 20
149.572
 11
82.8779
 21
149.34
  0
LINE
  8
0
 10
82.8779
 20
149.34
 11
82.9319
 21
149.098
  0
LINE
  8
0
 10
82.9319
 20
149.098
 11
82.95
 21
148.85
  0
LINE
  8
0
 10
82.95
 20
148.85
 11
82.9319
 21
148.602
  0
LINE
  8
0
 10
82.9319
 20
148.602
 11
82.8779
 21
148.36
  0
LINE
  8
0
 10
82.8779
 20
148.36
 11
82.7893
 21
148.128
  0
LINE
  8
0
 10
82.7893
 20
148.128
 11
82.6678
 21
147.912
  0
LINE
  8
0
 10
82.6678
 20
147.912
 11
82.5161
 21
147.716
  0
LINE
  8
0
 10
82.5161
 20
147.716
 11
82.3374
 21
147.543
  0
LINE
  8
0
 10
82.3374
 20
147.543
 11
82.1356
 21
147.399
  0
LINE
  8
0
 10
82.1356
 20
147.399
 11
81.9149
 21
147.285
  0
LINE
  8
0
 10
81.9149
 20
147.285
 11
81.68
 21
147.205
  0
LINE
  8
0
 10
81.68
 20
147.205
 11
81.4359
 21
147.16
  0
LINE
  8
0
 10
81.4359
 20
147.16
 11
81.1879
 21
147.151
  0
LINE
  8
0
 10
81.1879
 20
147.151
 11
80.9412
 21
147.178
  0
LINE
  8
0
 10
80.9412
 20
147.178
 11
80.7011
 21
147.241
  0
LINE
  8
0
 10
80.7011
 20
147.241
 11
80.4727
 21
147.338
  0
LINE
  8
0
 10
80.4727
 20
147.338
 11
80.2608
 21
147.467
  0
LINE
  8
0
 10
80.2608
 20
147.467
 11
80.0701
 21
147.626
  0
LINE
  8
0
 10
80.0701
 20
147.626
 11
79.9044
 21
147.811
  0
LINE
  8
0
 10
79.9044
 20
147.811
 11
79.7675
 21
148.018
  0
LINE
  8
0
 10
79.7675
 20
148.018
 11
79.6622
 21
148.243
  0
LINE
  8
0
 10
79.6622
 20
148.243
 11
79.5907
 21
148.48
  0
LINE
  8
0
 10
79.5907
 20
148.48
 11
79.5545
 21
148.726
  0
LINE
  8
0
 10
79.5545
 20
148.726
 11
79.5545
 21
148.974
  0
LINE
  8
0
 10
79.5545
 20
148.974
 11
79.5907
 21
149.22
  0
LINE
  8
0
 10
79.5907
 20
149.22
 11
79.6622
 21
149.457
  0
LINE
  8
0
 10
79.6622
 20
149.457
 11
79.7675
 21
149.682
  0
LINE
  8
0
 10
79.7675
 20
149.682
 11
79.9044
 21
149.889
  0
LINE
  8
0
 10
79.9044
 20
149.889
 11
80.0701
 21
150.074
  0
LINE
  8
0
 10
80.0701
 20
150.074
 11
80.2608
 21
150.233
  0
LINE
  8
0
 10
80.2608
 20
150.233
 11
80.4727
 21
150.362
  0
LINE
  8
0
 10
80.4727
 20
150.362
 11
80.7011
 21
150.459
  0
LINE
  8
0
 10
80.7011
 20
150.459
 11
80.9412
 21
150.522
  0
LINE
  8
0
 10
80.9412
 20
150.522
 11
81.1879
 21
150.549
  0
LINE
  8
0
 10
81.1879
 20
150.549
 11
81.4359
 21
150.54
  0
LINE
  8
0
 10
81.4359
 20
150.54
 11
81.68
 21
150.495
  0
LINE
  8
0
 10
162.191
 20
147.178
 11
161.951
 21
147.241
  0
LINE
  8
0
 10
161.951
 20
147.241
 11
161.723
 21
147.338
  0
LINE
  8
0
 10
161.723
 20
147.338
 11
161.511
 21
147.467
  0
LINE
  8
0
 10
161.511
 20
147.467
 11
161.32
 21
147.626
  0
LINE
  8
0
 10
161.32
 20
147.626
 11
161.154
 21
147.811
  0
LINE
  8
0
 10
161.154
 20
147.811
 11
161.018
 21
148.018
  0
LINE
  8
0
 10
161.018
 20
148.018
 11
160.912
 21
148.243
  0
LINE
  8
0
 10
160.912
 20
148.243
 11
160.841
 21
148.48
  0
LINE
  8
0
 10
160.841
 20
148.48
 11
160.805
 21
148.726
  0
LINE
  8
0
 10
160.805
 20
148.726
 11
160.805
 21
148.974
  0
LINE
  8
0
 10
160.805
 20
148.974
 11
160.841
 21
149.22
  0
LINE
  8
0
 10
160.841
 20
149.22
 11
160.912
 21
149.457
  0
LINE
  8
0
 10
160.912
 20
149.457
 11
161.018
 21
149.682
  0
LINE
  8
0
 10
161.018
 20
149.682
 11
161.154
 21
149.889
  0
LINE
  8
0
 10
161.154
 20
149.889
 11
161.32
 21
150.074
  0
LINE
  8
0
 10
161.32
 20
150.074
 11
161.511
 21
150.233
  0
LINE
  8
0
 10
161.511
 20
150.233
 11
161.723
 21
150.362
  0
LINE
  8
0
 10
161.723
 20
150.362
 11
161.951
 21
150.459
  0
LINE
  8
0
 10
161.951
 20
150.459
 11
162.191
 21
150.522
  0
LINE
  8
0
 10
162.191
 20
150.522
 11
162.438
 21
150.549
  0
LINE
  8
0
 10
162.438
 20
150.549
 11
162.686
 21
150.54
  0
LINE
  8
0
 10
162.686
 20
150.54
 11
162.93
 21
150.495
  0
LINE
  8
0
 10
162.93
 20
150.495
 11
163.165
 21
150.415
  0
LINE
  8
0
 10
163.165
 20
150.415
 11
163.386
 21
150.301
  0
LINE
  8
0
 10
163.386
 20
150.301
 11
163.587
 21
150.157
  0
LINE
  8
0
 10
163.587
 20
150.157
 11
163.766
 21
149.984
  0
LINE
  8
0
 10
163.766
 20
149.984
 11
163.918
 21
149.788
  0
LINE
  8
0
 10
163.918
 20
149.788
 11
164.039
 21
149.572
  0
LINE
  8
0
 10
164.039
 20
149.572
 11
164.128
 21
149.34
  0
LINE
  8
0
 10
164.128
 20
149.34
 11
164.182
 21
149.098
  0
LINE
  8
0
 10
164.182
 20
149.098
 11
164.2
 21
148.85
  0
LINE
  8
0
 10
164.2
 20
148.85
 11
164.182
 21
148.602
  0
LINE
  8
0
 10
164.182
 20
148.602
 11
164.128
 21
148.36
  0
LINE
  8
0
 10
164.128
 20
148.36
 11
164.039
 21
148.128
  0
LINE
  8
0
 10
164.039
 20
148.128
 11
163.918
 21
147.912
  0
LINE
  8
0
 10
163.918
 20
147.912
 11
163.766
 21
147.716
  0
LINE
  8
0
 10
163.766
 20
147.716
 11
163.587
 21
147.543
  0
LINE
  8
0
 10
163.587
 20
147.543
 11
163.386
 21
147.399
  0
LINE
  8
0
 10
163.386
 20
147.399
 11
163.165
 21
147.285
  0
LINE
  8
0
 10
163.165
 20
147.285
 11
162.93
 21
147.205
  0
LINE
  8
0
 10
162.93
 20
147.205
 11
162.686
 21
147.16
  0
LINE
  8
0
 10
162.686
 20
147.16
 11
162.438
 21
147.151
  0
LINE
  8
0
 10
162.438
 20
147.151
 11
162.191
 21
147.178
  0
LINE
  8
0
 10
-81.5588
 20
147.178
 11
-81.7989
 21
147.241
  0
LINE
  8
0
 10
-81.7989
 20
147.241
 11
-82.0273
 21
147.338
  0
LINE
  8
0
 10
-82.0273
 20
147.338
 11
-82.2392
 21
147.467
  0
LINE
  8
0
 10
-82.2392
 20
147.467
 11
-82.4299
 21
147.626
  0
LINE
  8
0
 10
-82.4299
 20
147.626
 11
-82.5955
 21
147.811
  0
LINE
  8
0
 10
-82.5955
 20
147.811
 11
-82.7325
 21
148.018
  0
LINE
  8
0
 10
-82.7325
 20
148.018
 11
-82.8378
 21
148.243
  0
LINE
  8
0
 10
-82.8378
 20
148.243
 11
-82.9093
 21
148.48
  0
LINE
  8
0
 10
-82.9093
 20
148.48
 11
-82.9455
 21
148.726
  0
LINE
  8
0
 10
-82.9455
 20
148.726
 11
-82.9455
 21
148.974
  0
LINE
  8
0
 10
-82.9455
 20
148.974
 11
-82.9093
 21
149.22
  0
LINE
  8
0
 10
-82.9093
 20
149.22
 11
-82.8378
 21
149.457
  0
LINE
  8
0
 10
-82.8378
 20
149.457
 11
-82.7325
 21
149.682
  0
LINE
  8
0
 10
-82.7325
 20
149.682
 11
-82.5955
 21
149.889
  0
LINE
  8
0
 10
-82.5955
 20
149.889
 11
-82.4299
 21
150.074
  0
LINE
  8
0
 10
-82.4299
 20
150.074
 11
-82.2392
 21
150.233
  0
LINE
  8
0
 10
-82.2392
 20
150.233
 11
-82.0273
 21
150.362
  0
LINE
  8
0
 10
-82.0273
 20
150.362
 11
-81.7989
 21
150.459
  0
LINE
  8
0
 10
-81.7989
 20
150.459
 11
-81.5588
 21
150.522
  0
LINE
  8
0
 10
-81.5588
 20
150.522
 11
-81.3121
 21
150.549
  0
LINE
  8
0
 10
-81.3121
 20
150.549
 11
-81.0641
 21
150.54
  0
LINE
  8
0
 10
-81.0641
 20
150.54
 11
-80.82
 21
150.495
  0
LINE
  8
0
 10
-80.82
 20
150.495
 11
-80.5851
 21
150.415
  0
LINE
  8
0
 10
-80.5851
 20
150.415
 11
-80.3644
 21
150.301
  0
LINE
  8
0
 10
-80.3644
 20
150.301
 11
-80.1626
 21
150.157
  0
LINE
  8
0
 10
-80.1626
 20
150.157
 11
-79.9839
 21
149.984
  0
LINE
  8
0
 10
-79.9839
 20
149.984
 11
-79.8322
 21
149.788
  0
LINE
  8
0
 10
-79.8322
 20
149.788
 11
-79.7107
 21
149.572
  0
LINE
  8
0
 10
-79.7107
 20
149.572
 11
-79.6221
 21
149.34
  0
LINE
  8
0
 10
-79.6221
 20
149.34
 11
-79.5681
 21
149.098
  0
LINE
  8
0
 10
-79.5681
 20
149.098
 11
-79.55
 21
148.85
  0
LINE
  8
0
 10
-79.55
 20
148.85
 11
-79.5681
 21
148.602
  0
LINE
  8
0
 10
-79.5681
 20
148.602
 11
-79.6221
 21
148.36
  0
LINE
  8
0
 10
-79.6221
 20
148.36
 11
-79.7107
 21
148.128
  0
LINE
  8
0
 10
-79.7107
 20
148.128
 11
-79.8322
 21
147.912
  0
LINE
  8
0
 10
-79.8322
 20
147.912
 11
-79.9839
 21
147.716
  0
LINE
  8
0
 10
-79.9839
 20
147.716
 11
-80.1626
 21
147.543
  0
LINE
  8
0
 10
-80.1626
 20
147.543
 11
-80.3644
 21
147.399
  0
LINE
  8
0
 10
-80.3644
 20
147.399
 11
-80.5851
 21
147.285
  0
LINE
  8
0
 10
-80.5851
 20
147.285
 11
-80.82
 21
147.205
  0
LINE
  8
0
 10
-80.82
 20
147.205
 11
-81.0641
 21
147.16
  0
LINE
  8
0
 10
-81.0641
 20
147.16
 11
-81.3121
 21
147.151
  0
LINE
  8
0
 10
-81.3121
 20
147.151
 11
-81.5588
 21
147.178
  0
LINE
  8
0
 10
-205.186
 20
104.66
 11
-205.43
 21
104.705
  0
LINE
  8
0
 10
-205.43
 20
104.705
 11
-205.665
 21
104.785
  0
LINE
  8
0
 10
-205.665
 20
104.785
 11
-205.886
 21
104.899
  0
LINE
  8
0
 10
-205.886
 20
104.899
 11
-206.087
 21
105.043
  0
LINE
  8
0
 10
-206.087
 20
105.043
 11
-206.266
 21
105.216
  0
LINE
  8
0
 10
-206.266
 20
105.216
 11
-206.418
 21
105.412
  0
LINE
  8
0
 10
-206.418
 20
105.412
 11
-206.539
 21
105.628
  0
LINE
  8
0
 10
-206.539
 20
105.628
 11
-206.628
 21
105.86
  0
LINE
  8
0
 10
-206.628
 20
105.86
 11
-206.682
 21
106.102
  0
LINE
  8
0
 10
-206.682
 20
106.102
 11
-206.7
 21
106.35
  0
LINE
  8
0
 10
-206.7
 20
106.35
 11
-206.682
 21
106.598
  0
LINE
  8
0
 10
-206.682
 20
106.598
 11
-206.628
 21
106.84
  0
LINE
  8
0
 10
-206.628
 20
106.84
 11
-206.539
 21
107.072
  0
LINE
  8
0
 10
-206.539
 20
107.072
 11
-206.418
 21
107.288
  0
LINE
  8
0
 10
-206.418
 20
107.288
 11
-206.266
 21
107.484
  0
LINE
  8
0
 10
-206.266
 20
107.484
 11
-206.087
 21
107.657
  0
LINE
  8
0
 10
-206.087
 20
107.657
 11
-205.886
 21
107.801
  0
LINE
  8
0
 10
-205.886
 20
107.801
 11
-205.665
 21
107.915
  0
LINE
  8
0
 10
-205.665
 20
107.915
 11
-205.43
 21
107.995
  0
LINE
  8
0
 10
-205.43
 20
107.995
 11
-205.186
 21
108.04
  0
LINE
  8
0
 10
-205.186
 20
108.04
 11
-204.938
 21
108.049
  0
LINE
  8
0
 10
-204.938
 20
108.049
 11
-204.691
 21
108.022
  0
LINE
  8
0
 10
-204.691
 20
108.022
 11
-204.451
 21
107.959
  0
LINE
  8
0
 10
-204.451
 20
107.959
 11
-204.223
 21
107.862
  0
LINE
  8
0
 10
-204.223
 20
107.862
 11
-204.011
 21
107.733
  0
LINE
  8
0
 10
-204.011
 20
107.733
 11
-203.82
 21
107.574
  0
LINE
  8
0
 10
-203.82
 20
107.574
 11
-203.654
 21
107.389
  0
LINE
  8
0
 10
-203.654
 20
107.389
 11
-203.518
 21
107.182
  0
LINE
  8
0
 10
-203.518
 20
107.182
 11
-203.412
 21
106.957
  0
LINE
  8
0
 10
-203.412
 20
106.957
 11
-203.341
 21
106.72
  0
LINE
  8
0
 10
-203.341
 20
106.72
 11
-203.305
 21
106.474
  0
LINE
  8
0
 10
-203.305
 20
106.474
 11
-203.305
 21
106.226
  0
LINE
  8
0
 10
-203.305
 20
106.226
 11
-203.341
 21
105.98
  0
LINE
  8
0
 10
-203.341
 20
105.98
 11
-203.412
 21
105.743
  0
LINE
  8
0
 10
-203.412
 20
105.743
 11
-203.518
 21
105.518
  0
LINE
  8
0
 10
-203.518
 20
105.518
 11
-203.654
 21
105.311
  0
LINE
  8
0
 10
-203.654
 20
105.311
 11
-203.82
 21
105.126
  0
LINE
  8
0
 10
-203.82
 20
105.126
 11
-204.011
 21
104.967
  0
LINE
  8
0
 10
-204.011
 20
104.967
 11
-204.223
 21
104.838
  0
LINE
  8
0
 10
-204.223
 20
104.838
 11
-204.451
 21
104.741
  0
LINE
  8
0
 10
-204.451
 20
104.741
 11
-204.691
 21
104.678
  0
LINE
  8
0
 10
-204.691
 20
104.678
 11
-204.938
 21
104.651
  0
LINE
  8
0
 10
-204.938
 20
104.651
 11
-205.186
 21
104.66
  0
LINE
  8
0
 10
204.691
 20
104.678
 11
204.451
 21
104.741
  0
LINE
  8
0
 10
204.451
 20
104.741
 11
204.223
 21
104.838
  0
LINE
  8
0
 10
204.223
 20
104.838
 11
204.011
 21
104.967
  0
LINE
  8
0
 10
204.011
 20
104.967
 11
203.82
 21
105.126
  0
LINE
  8
0
 10
203.82
 20
105.126
 11
203.654
 21
105.311
  0
LINE
  8
0
 10
203.654
 20
105.311
 11
203.518
 21
105.518
  0
LINE
  8
0
 10
203.518
 20
105.518
 11
203.412
 21
105.743
  0
LINE
  8
0
 10
203.412
 20
105.743
 11
203.341
 21
105.98
  0
LINE
  8
0
 10
203.341
 20
105.98
 11
203.305
 21
106.226
  0
LINE
  8
0
 10
203.305
 20
106.226
 11
203.305
 21
106.474
  0
LINE
  8
0
 10
203.305
 20
106.474
 11
203.341
 21
106.72
  0
LINE
  8
0
 10
203.341
 20
106.72
 11
203.412
 21
106.957
  0
LINE
  8
0
 10
203.412
 20
106.957
 11
203.518
 21
107.182
  0
LINE
  8
0
 10
203.518
 20
107.182
 11
203.654
 21
107.389
  0
LINE
  8
0
 10
203.654
 20
107.389
 11
203.82
 21
107.574
  0
LINE
  8
0
 10
203.82
 20
107.574
 11
204.011
 21
107.733
  0
LINE
  8
0
 10
204.011
 20
107.733
 11
204.223
 21
107.862
  0
LINE
  8
0
 10
204.223
 20
107.862
 11
204.451
 21
107.959
  0
LINE
  8
0
 10
204.451
 20
107.959
 11
204.691
 21
108.022
  0
LINE
  8
0
 10
204.691
 20
108.022
 11
204.938
 21
108.049
  0
LINE
  8
0
 10
204.938
 20
108.049
 11
205.186
 21
108.04
  0
LINE
  8
0
 10
205.186
 20
108.04
 11
205.43
 21
107.995
  0
LINE
  8
0
 10
205.43
 20
107.995
 11
205.665
 21
107.915
  0
LINE
  8
0
 10
205.665
 20
107.915
 11
205.886
 21
107.801
  0
LINE
  8
0
 10
205.886
 20
107.801
 11
206.087
 21
107.657
  0
LINE
  8
0
 10
206.087
 20
107.657
 11
206.266
 21
107.484
  0
LINE
  8
0
 10
206.266
 20
107.484
 11
206.418
 21
107.288
  0
LINE
  8
0
 10
206.418
 20
107.288
 11
206.539
 21
107.072
  0
LINE
  8
0
 10
206.539
 20
107.072
 11
206.628
 21
106.84
  0
LINE
  8
0
 10
206.628
 20
106.84
 11
206.682
 21
106.598
  0
LINE
  8
0
 10
206.682
 20
106.598
 11
206.7
 21
106.35
  0
LINE
  8
0
 10
206.7
 20
106.35
 11
206.682
 21
106.102
  0
LINE
  8
0
 10
206.682
 20
106.102
 11
206.628
 21
105.86
  0
LINE
  8
0
 10
206.628
 20
105.86
 11
206.539
 21
105.628
  0
LINE
  8
0
 10
206.539
 20
105.628
 11
206.418
 21
105.412
  0
LINE
  8
0
 10
206.418
 20
105.412
 11
206.266
 21
105.216
  0
LINE
  8
0
 10
206.266
 20
105.216
 11
206.087
 21
105.043
  0
LINE
  8
0
 10
206.087
 20
105.043
 11
205.886
 21
104.899
  0
LINE
  8
0
 10
205.886
 20
104.899
 11
205.665
 21
104.785
  0
LINE
  8
0
 10
205.665
 20
104.785
 11
205.43
 21
104.705
  0
LINE
  8
0
 10
205.43
 20
104.705
 11
205.186
 21
104.66
  0
LINE
  8
0
 10
205.186
 20
104.66
 11
204.938
 21
104.651
  0
LINE
  8
0
 10
204.938
 20
104.651
 11
204.691
 21
104.678
  0
LINE
  8
0
 10
-205.186
 20
33.7602
 11
-205.43
 21
33.8053
  0
LINE
  8
0
 10
-205.43
 20
33.8053
 11
-205.665
 21
33.8854
  0
LINE
  8
0
 10
-205.665
 20
33.8854
 11
-205.886
 21
33.9989
  0
LINE
  8
0
 10
-205.886
 20
33.9989
 11
-206.087
 21
34.1433
  0
LINE
  8
0
 10
-206.087
 20
34.1433
 11
-206.266
 21
34.3156
  0
LINE
  8
0
 10
-206.266
 20
34.3156
 11
-206.418
 21
34.512
  0
LINE
  8
0
 10
-206.418
 20
34.512
 11
-206.539
 21
34.7284
  0
LINE
  8
0
 10
-206.539
 20
34.7284
 11
-206.628
 21
34.9602
  0
LINE
  8
0
 10
-206.628
 20
34.9602
 11
-206.682
 21
35.2025
  0
LINE
  8
0
 10
-206.682
 20
35.2025
 11
-206.7
 21
35.45
  0
LINE
  8
0
 10
-206.7
 20
35.45
 11
-206.682
 21
35.6975
  0
LINE
  8
0
 10
-206.682
 20
35.6975
 11
-206.628
 21
35.9398
  0
LINE
  8
0
 10
-206.628
 20
35.9398
 11
-206.539
 21
36.1716
  0
LINE
  8
0
 10
-206.539
 20
36.1716
 11
-206.418
 21
36.388
  0
LINE
  8
0
 10
-206.418
 20
36.388
 11
-206.266
 21
36.5844
  0
LINE
  8
0
 10
-206.266
 20
36.5844
 11
-206.087
 21
36.7567
  0
LINE
  8
0
 10
-206.087
 20
36.7567
 11
-205.886
 21
36.9011
  0
LINE
  8
0
 10
-205.886
 20
36.9011
 11
-205.665
 21
37.0146
  0
LINE
  8
0
 10
-205.665
 20
37.0146
 11
-205.43
 21
37.0947
  0
LINE
  8
0
 10
-205.43
 20
37.0947
 11
-205.186
 21
37.1398
  0
LINE
  8
0
 10
-205.186
 20
37.1398
 11
-204.938
 21
37.1489
  0
LINE
  8
0
 10
-204.938
 20
37.1489
 11
-204.691
 21
37.1217
  0
LINE
  8
0
 10
-204.691
 20
37.1217
 11
-204.451
 21
37.0589
  0
LINE
  8
0
 10
-204.451
 20
37.0589
 11
-204.223
 21
36.9619
  0
LINE
  8
0
 10
-204.223
 20
36.9619
 11
-204.011
 21
36.8326
  0
LINE
  8
0
 10
-204.011
 20
36.8326
 11
-203.82
 21
36.6738
  0
LINE
  8
0
 10
-203.82
 20
36.6738
 11
-203.654
 21
36.489
  0
LINE
  8
0
 10
-203.654
 20
36.489
 11
-203.518
 21
36.282
  0
LINE
  8
0
 10
-203.518
 20
36.282
 11
-203.412
 21
36.0573
  0
LINE
  8
0
 10
-203.412
 20
36.0573
 11
-203.341
 21
35.8196
  0
LINE
  8
0
 10
-203.341
 20
35.8196
 11
-203.305
 21
35.5741
  0
LINE
  8
0
 10
-203.305
 20
35.5741
 11
-203.305
 21
35.3259
  0
LINE
  8
0
 10
-203.305
 20
35.3259
 11
-203.341
 21
35.0804
  0
LINE
  8
0
 10
-203.341
 20
35.0804
 11
-203.412
 21
34.8427
  0
LINE
  8
0
 10
-203.412
 20
34.8427
 11
-203.518
 21
34.618
  0
LINE
  8
0
 10
-203.518
 20
34.618
 11
-203.654
 21
34.411
  0
LINE
  8
0
 10
-203.654
 20
34.411
 11
-203.82
 21
34.2262
  0
LINE
  8
0
 10
-203.82
 20
34.2262
 11
-204.011
 21
34.0674
  0
LINE
  8
0
 10
-204.011
 20
34.0674
 11
-204.223
 21
33.9381
  0
LINE
  8
0
 10
-204.223
 20
33.9381
 11
-204.451
 21
33.841
  0
LINE
  8
0
 10
-204.451
 20
33.841
 11
-204.691
 21
33.7783
  0
LINE
  8
0
 10
-204.691
 20
33.7783
 11
-204.938
 21
33.7511
  0
LINE
  8
0
 10
-204.938
 20
33.7511
 11
-205.186
 21
33.7602
  0
LINE
  8
0
 10
204.691
 20
33.7783
 11
204.451
 21
33.841
  0
LINE
  8
0
 10
204.451
 20
33.841
 11
204.223
 21
33.9381
  0
LINE
  8
0
 10
204.223
 20
33.9381
 11
204.011
 21
34.0674
  0
LINE
  8
0
 10
204.011
 20
34.0674
 11
203.82
 21
34.2262
  0
LINE
  8
0
 10
203.82
 20
34.2262
 11
203.654
 21
34.411
  0
LINE
  8
0
 10
203.654
 20
34.411
 11
203.518
 21
34.618
  0
LINE
  8
0
 10
203.518
 20
34.618
 11
203.412
 21
34.8427
  0
LINE
  8
0
 10
203.412
 20
34.8427
 11
203.341
 21
35.0804
  0
LINE
  8
0
 10
203.341
 20
35.0804
 11
203.305
 21
35.3259
  0
LINE
  8
0
 10
203.305
 20
35.3259
 11
203.305
 21
35.5741
  0
LINE
  8
0
 10
203.305
 20
35.5741
 11
203.341
 21
35.8196
  0
LINE
  8
0
 10
203.341
 20
35.8196
 11
203.412
 21
36.0573
  0
LINE
  8
0
 10
203.412
 20
36.0573
 11
203.518
 21
36.282
  0
LINE
  8
0
 10
203.518
 20
36.282
 11
203.654
 21
36.489
  0
LINE
  8
0
 10
203.654
 20
36.489
 11
203.82
 21
36.6738
  0
LINE
  8
0
 10
203.82
 20
36.6738
 11
204.011
 21
36.8326
  0
LINE
  8
0
 10
204.011
 20
36.8326
 11
204.223
 21
36.9619
  0
LINE
  8
0
 10
204.223
 20
36.9619
 11
204.451
 21
37.0589
  0
LINE
  8
0
 10
204.451
 20
37.0589
 11
204.691
 21
37.1217
  0
LINE
  8
0
 10
204.691
 20
37.1217
 11
204.938
 21
37.1489
  0
LINE
  8
0
 10
204.938
 20
37.1489
 11
205.186
 21
37.1398
  0
LINE
  8
0
 10
205.186
 20
37.1398
 11
205.43
 21
37.0947
  0
LINE
  8
0
 10
205.43
 20
37.0947
 11
205.665
 21
37.0146
  0
LINE
  8
0
 10
205.665
 20
37.0146
 11
205.886
 21
36.9011
  0
LINE
  8
0
 10
205.886
 20
36.9011
 11
206.087
 21
36.7567
  0
LINE
  8
0
 10
206.087
 20
36.7567
 11
206.266
 21
36.5844
  0
LINE
  8
0
 10
206.266
 20
36.5844
 11
206.418
 21
36.388
  0
LINE
  8
0
 10
206.418
 20
36.388
 11
206.539
 21
36.1716
  0
LINE
  8
0
 10
206.539
 20
36.1716
 11
206.628
 21
35.9398
  0
LINE
  8
0
 10
206.628
 20
35.9398
 11
206.682
 21
35.6975
  0
LINE
  8
0
 10
206.682
 20
35.6975
 11
206.7
 21
35.45
  0
LINE
  8
0
 10
206.7
 20
35.45
 11
206.682
 21
35.2025
  0
LINE
  8
0
 10
206.682
 20
35.2025
 11
206.628
 21
34.9602
  0
LINE
  8
0
 10
206.628
 20
34.9602
 11
206.539
 21
34.7284
  0
LINE
  8
0
 10
206.539
 20
34.7284
 11
206.418
 21
34.512
  0
LINE
  8
0
 10
206.418
 20
34.512
 11
206.266
 21
34.3156
  0
LINE
  8
0
 10
206.266
 20
34.3156
 11
206.087
 21
34.1433
  0
LINE
  8
0
 10
206.087
 20
34.1433
 11
205.886
 21
33.9989
  0
LINE
  8
0
 10
205.886
 20
33.9989
 11
205.665
 21
33.8854
  0
LINE
  8
0
 10
205.665
 20
33.8854
 11
205.43
 21
33.8053
  0
LINE
  8
0
 10
205.43
 20
33.8053
 11
205.186
 21
33.7602
  0
LINE
  8
0
 10
205.186
 20
33.7602
 11
204.938
 21
33.7511
  0
LINE
  8
0
 10
204.938
 20
33.7511
 11
204.691
 21
33.7783
  0
LINE
  8
0
 10
-205.186
 20
-37.1398
 11
-205.43
 21
-37.0947
  0
LINE
  8
0
 10
-205.43
 20
-37.0947
 11
-205.665
 21
-37.0146
  0
LINE
  8
0
 10
-205.665
 20
-37.0146
 11
-205.886
 21
-36.9011
  0
LINE
  8
0
 10
-205.886
 20
-36.9011
 11
-206.087
 21
-36.7567
  0
LINE
  8
0
 10
-206.087
 20
-36.7567
 11
-206.266
 21
-36.5844
  0
LINE
  8
0
 10
-206.266
 20
-36.5844
 11
-206.418
 21
-36.388
  0
LINE
  8
0
 10
-206.418
 20
-36.388
 11
-206.539
 21
-36.1716
  0
LINE
  8
0
 10
-206.539
 20
-36.1716
 11
-206.628
 21
-35.9398
  0
LINE
  8
0
 10
-206.628
 20
-35.9398
 11
-206.682
 21
-35.6975
  0
LINE
  8
0
 10
-206.682
 20
-35.6975
 11
-206.7
 21
-35.45
  0
LINE
  8
0
 10
-206.7
 20
-35.45
 11
-206.682
 21
-35.2025
  0
LINE
  8
0
 10
-206.682
 20
-35.2025
 11
-206.628
 21
-34.9602
  0
LINE
  8
0
 10
-206.628
 20
-34.9602
 11
-206.539
 21
-34.7284
  0
LINE
  8
0
 10
-206.539
 20
-34.7284
 11
-206.418
 21
-34.512
  0
LINE
  8
0
 10
-206.418
 20
-34.512
 11
-206.266
 21
-34.3156
  0
LINE
  8
0
 10
-206.266
 20
-34.3156
 11
-206.087
 21
-34.1433
  0
LINE
  8
0
 10
-206.087
 20
-34.1433
 11
-205.886
 21
-33.9989
  0
LINE
  8
0
 10
-205.886
 20
-33.9989
 11
-205.665
 21
-33.8854
  0
LINE
  8
0
 10
-205.665
 20
-33.8854
 11
-205.43
 21
-33.8053
  0
LINE
  8
0
 10
-205.43
 20
-33.8053
 11
-205.186
 21
-33.7602
  0
LINE
  8
0
 10
-205.186
 20
-33.7602
 11
-204.938
 21
-33.7511
  0
LINE
  8
0
 10
-204.938
 20
-33.7511
 11
-204.691
 21
-33.7783
  0
LINE
  8
0
 10
-204.691
 20
-33.7783
 11
-204.451
 21
-33.841
  0
LINE
  8
0
 10
-204.451
 20
-33.841
 11
-204.223
 21
-33.9381
  0
LINE
  8
0
 10
-204.223
 20
-33.9381
 11
-204.011
 21
-34.0674
  0
LINE
  8
0
 10
-204.011
 20
-34.0674
 11
-203.82
 21
-34.2262
  0
LINE
  8
0
 10
-203.82
 20
-34.2262
 11
-203.654
 21
-34.411
  0
LINE
  8
0
 10
-203.654
 20
-34.411
 11
-203.518
 21
-34.618
  0
LINE
  8
0
 10
-203.518
 20
-34.618
 11
-203.412
 21
-34.8427
  0
LINE
  8
0
 10
-203.412
 20
-34.8427
 11
-203.341
 21
-35.0804
  0
LINE
  8
0
 10
-203.341
 20
-35.0804
 11
-203.305
 21
-35.3259
  0
LINE
  8
0
 10
-203.305
 20
-35.3259
 11
-203.305
 21
-35.5741
  0
LINE
  8
0
 10
-203.305
 20
-35.5741
 11
-203.341
 21
-35.8196
  0
LINE
  8
0
 10
-203.341
 20
-35.8196
 11
-203.412
 21
-36.0573
  0
LINE
  8
0
 10
-203.412
 20
-36.0573
 11
-203.518
 21
-36.282
  0
LINE
  8
0
 10
-203.518
 20
-36.282
 11
-203.654
 21
-36.489
  0
LINE
  8
0
 10
-203.654
 20
-36.489
 11
-203.82
 21
-36.6738
  0
LINE
  8
0
 10
-203.82
 20
-36.6738
 11
-204.011
 21
-36.8326
  0
LINE
  8
0
 10
-204.011
 20
-36.8326
 11
-204.223
 21
-36.9619
  0
LINE
  8
0
 10
-204.223
 20
-36.9619
 11
-204.451
 21
-37.0589
  0
LINE
  8
0
 10
-204.451
 20
-37.0589
 11
-204.691
 21
-37.1217
  0
LINE
  8
0
 10
-204.691
 20
-37.1217
 11
-204.938
 21
-37.1489
  0
LINE
  8
0
 10
-204.938
 20
-37.1489
 11
-205.186
 21
-37.1398
  0
LINE
  8
0
 10
204.691
 20
-37.1217
 11
204.451
 21
-37.0589
  0
LINE
  8
0
 10
204.451
 20
-37.0589
 11
204.223
 21
-36.9619
  0
LINE
  8
0
 10
204.223
 20
-36.9619
 11
204.011
 21
-36.8326
  0
LINE
  8
0
 10
204.011
 20
-36.8326
 11
203.82
 21
-36.6738
  0
LINE
  8
0
 10
203.82
 20
-36.6738
 11
203.654
 21
-36.489
  0
LINE
  8
0
 10
203.654
 20
-36.489
 11
203.518
 21
-36.282
  0
LINE
  8
0
 10
203.518
 20
-36.282
 11
203.412
 21
-36.0573
  0
LINE
  8
0
 10
203.412
 20
-36.0573
 11
203.341
 21
-35.8196
  0
LINE
  8
0
 10
203.341
 20
-35.8196
 11
203.305
 21
-35.5741
  0
LINE
  8
0
 10
203.305
 20
-35.5741
 11
203.305
 21
-35.3259
  0
LINE
  8
0
 10
203.305
 20
-35.3259
 11
203.341
 21
-35.0804
  0
LINE
  8
0
 10
203.341
 20
-35.0804
 11
203.412
 21
-34.8427
  0
LINE
  8
0
 10
203.412
 20
-34.8427
 11
203.518
 21
-34.618
  0
LINE
  8
0
 10
203.518
 20
-34.618
 11
203.654
 21
-34.411
  0
LINE
  8
0
 10
203.654
 20
-34.411
 11
203.82
 21
-34.2262
  0
LINE
  8
0
 10
203.82
 20
-34.2262
 11
204.011
 21
-34.0674
  0
LINE
  8
0
 10
204.011
 20
-34.0674
 11
204.223
 21
-33.9381
  0
LINE
  8
0
 10
204.223
 20
-33.9381
 11
204.451
 21
-33.841
  0
LINE
  8
0
 10
204.451
 20
-33.841
 11
204.691
 21
-33.7783
  0
LINE
  8
0
 10
204.691
 20
-33.7783
 11
204.938
 21
-33.7511
  0
LINE
  8
0
 10
204.938
 20
-33.7511
 11
205.186
 21
-33.7602
  0
LINE
  8
0
 10
205.186
 20
-33.7602
 11
205.43
 21
-33.8053
  0
LINE
  8
0
 10
205.43
 20
-33.8053
 11
205.665
 21
-33.8854
  0
LINE
  8
0
 10
205.665
 20
-33.8854
 11
205.886
 21
-33.9989
  0
LINE
  8
0
 10
205.886
 20
-33.9989
 11
206.087
 21
-34.1433
  0
LINE
  8
0
 10
206.087
 20
-34.1433
 11
206.266
 21
-34.3156
  0
LINE
  8
0
 10
206.266
 20
-34.3156
 11
206.418
 21
-34.512
  0
LINE
  8
0
 10
206.418
 20
-34.512
 11
206.539
 21
-34.7284
  0
LINE
  8
0
 10
206.539
 20
-34.7284
 11
206.628
 21
-34.9602
  0
LINE
  8
0
 10
206.628
 20
-34.9602
 11
206.682
 21
-35.2025
  0
LINE
  8
0
 10
206.682
 20
-35.2025
 11
206.7
 21
-35.45
  0
LINE
  8
0
 10
206.7
 20
-35.45
 11
206.682
 21
-35.6975
  0
LINE
  8
0
 10
206.682
 20
-35.6975
 11
206.628
 21
-35.9398
  0
LINE
  8
0
 10
206.628
 20
-35.9398
 11
206.539
 21
-36.1716
  0
LINE
  8
0
 10
206.539
 20
-36.1716
 11
206.418
 21
-36.388
  0
LINE
  8
0
 10
206.418
 20
-36.388
 11
206.266
 21
-36.5844
  0
LINE
  8
0
 10
206.266
 20
-36.5844
 11
206.087
 21
-36.7567
  0
LINE
  8
0
 10
206.087
 20
-36.7567
 11
205.886
 21
-36.9011
  0
LINE
  8
0
 10
205.886
 20
-36.9011
 11
205.665
 21
-37.0146
  0
LINE
  8
0
 10
205.665
 20
-37.0146
 11
205.43
 21
-37.0947
  0
LINE
  8
0
 10
205.43
 20
-37.0947
 11
205.186
 21
-37.1398
  0
LINE
  8
0
 10
205.186
 20
-37.1398
 11
204.938
 21
-37.1489
  0
LINE
  8
0
 10
204.938
 20
-37.1489
 11
204.691
 21
-37.1217
  0
LINE
  8
0
 10
204.691
 20
-108.022
 11
204.451
 21
-107.959
  0
LINE
  8
0
 10
204.451
 20
-107.959
 11
204.223
 21
-107.862
  0
LINE
  8
0
 10
204.223
 20
-107.862
 11
204.011
 21
-107.733
  0
LINE
  8
0
 10
204.011
 20
-107.733
 11
203.82
 21
-107.574
  0
LINE
  8
0
 10
203.82
 20
-107.574
 11
203.654
 21
-107.389
  0
LINE
  8
0
 10
203.654
 20
-107.389
 11
203.518
 21
-107.182
  0
LINE
  8
0
 10
203.518
 20
-107.182
 11
203.412
 21
-106.957
  0
LINE
  8
0
 10
203.412
 20
-106.957
 11
203.341
 21
-106.72
  0
LINE
  8
0
 10
203.341
 20
-106.72
 11
203.305
 21
-106.474
  0
LINE
  8
0
 10
203.305
 20
-106.474
 11
203.305
 21
-106.226
  0
LINE
  8
0
 10
203.305
 20
-106.226
 11
203.341
 21
-105.98
  0
LINE
  8
0
 10
203.341
 20
-105.98
 11
203.412
 21
-105.743
  0
LINE
  8
0
 10
203.412
 20
-105.743
 11
203.518
 21
-105.518
  0
LINE
  8
0
 10
203.518
 20
-105.518
 11
203.654
 21
-105.311
  0
LINE
  8
0
 10
203.654
 20
-105.311
 11
203.82
 21
-105.126
  0
LINE
  8
0
 10
203.82
 20
-105.126
 11
204.011
 21
-104.967
  0
LINE
  8
0
 10
204.011
 20
-104.967
 11
204.223
 21
-104.838
  0
LINE
  8
0
 10
204.223
 20
-104.838
 11
204.451
 21
-104.741
  0
LINE
  8
0
 10
204.451
 20
-104.741
 11
204.691
 21
-104.678
  0
LINE
  8
0
 10
204.691
 20
-104.678
 11
204.938
 21
-104.651
  0
LINE
  8
0
 10
204.938
 20
-104.651
 11
205.186
 21
-104.66
  0
LINE
  8
0
 10
205.186
 20
-104.66
 11
205.43
 21
-104.705
  0
LINE
  8
0
 10
205.43
 20
-104.705
 11
205.665
 21
-104.785
  0
LINE
  8
0
 10
205.665
 20
-104.785
 11
205.886
 21
-104.899
  0
LINE
  8
0
 10
205.886
 20
-104.899
 11
206.087
 21
-105.043
  0
LINE
  8
0
 10
206.087
 20
-105.043
 11
206.266
 21
-105.216
  0
LINE
  8
0
 10
206.266
 20
-105.216
 11
206.418
 21
-105.412
  0
LINE
  8
0
 10
206.418
 20
-105.412
 11
206.539
 21
-105.628
  0
LINE
  8
0
 10
206.539
 20
-105.628
 11
206.628
 21
-105.86
  0
LINE
  8
0
 10
206.628
 20
-105.86
 11
206.682
 21
-106.102
  0
LINE
  8
0
 10
206.682
 20
-106.102
 11
206.7
 21
-106.35
  0
LINE
  8
0
 10
206.7
 20
-106.35
 11
206.682
 21
-106.598
  0
LINE
  8
0
 10
206.682
 20
-106.598
 11
206.628
 21
-106.84
  0
LINE
  8
0
 10
206.628
 20
-106.84
 11
206.539
 21
-107.072
  0
LINE
  8
0
 10
206.539
 20
-107.072
 11
206.418
 21
-107.288
  0
LINE
  8
0
 10
206.418
 20
-107.288
 11
206.266
 21
-107.484
  0
LINE
  8
0
 10
206.266
 20
-107.484
 11
206.087
 21
-107.657
  0
LINE
  8
0
 10
206.087
 20
-107.657
 11
205.886
 21
-107.801
  0
LINE
  8
0
 10
205.886
 20
-107.801
 11
205.665
 21
-107.915
  0
LINE
  8
0
 10
205.665
 20
-107.915
 11
205.43
 21
-107.995
  0
LINE
  8
0
 10
205.43
 20
-107.995
 11
205.186
 21
-108.04
  0
LINE
  8
0
 10
205.186
 20
-108.04
 11
204.938
 21
-108.049
  0
LINE
  8
0
 10
204.938
 20
-108.049
 11
204.691
 21
-108.022
  0
LINE
  8
0
 10
-205.186
 20
-108.04
 11
-205.43
 21
-107.995
  0
LINE
  8
0
 10
-205.43
 20
-107.995
 11
-205.665
 21
-107.915
  0
LINE
  8
0
 10
-205.665
 20
-107.915
 11
-205.886
 21
-107.801
  0
LINE
  8
0
 10
-205.886
 20
-107.801
 11
-206.087
 21
-107.657
  0
LINE
  8
0
 10
-206.087
 20
-107.657
 11
-206.266
 21
-107.484
  0
LINE
  8
0
 10
-206.266
 20
-107.484
 11
-206.418
 21
-107.288
  0
LINE
  8
0
 10
-206.418
 20
-107.288
 11
-206.539
 21
-107.072
  0
LINE
  8
0
 10
-206.539
 20
-107.072
 11
-206.628
 21
-106.84
  0
LINE
  8
0
 10
-206.628
 20
-106.84
 11
-206.682
 21
-106.598
  0
LINE
  8
0
 10
-206.682
 20
-106.598
 11
-206.7
 21
-106.35
  0
LINE
  8
0
 10
-206.7
 20
-106.35
 11
-206.682
 21
-106.102
  0
LINE
  8
0
 10
-206.682
 20
-106.102
 11
-206.628
 21
-105.86
  0
LINE
  8
0
 10
-206.628
 20
-105.86
 11
-206.539
 21
-105.628
  0
LINE
  8
0
 10
-206.539
 20
-105.628
 11
-206.418
 21
-105.412
  0
LINE
  8
0
 10
-206.418
 20
-105.412
 11
-206.266
 21
-105.216
  0
LINE
  8
0
 10
-206.266
 20
-105.216
 11
-206.087
 21
-105.043
  0
LINE
  8
0
 10
-206.087
 20
-105.043
 11
-205.886
 21
-104.899
  0
LINE
  8
0
 10
-205.886
 20
-104.899
 11
-205.665
 21
-104.785
  0
LINE
  8
0
 10
-205.665
 20
-104.785
 11
-205.43
 21
-104.705
  0
LINE
  8
0
 10
-205.43
 20
-104.705
 11
-205.186
 21
-104.66
  0
LINE
  8
0
 10
-205.186
 20
-104.66
 11
-204.938
 21
-104.651
  0
LINE
  8
0
 10
-204.938
 20
-104.651
 11
-204.691
 21
-104.678
  0
LINE
  8
0
 10
-204.691
 20
-104.678
 11
-204.451
 21
-104.741
  0
LINE
  8
0
 10
-204.451
 20
-104.741
 11
-204.223
 21
-104.838
  0
LINE
  8
0
 10
-204.223
 20
-104.838
 11
-204.011
 21
-104.967
  0
LINE
  8
0
 10
-204.011
 20
-104.967
 11
-203.82
 21
-105.126
  0
LINE
  8
0
 10
-203.82
 20
-105.126
 11
-203.654
 21
-105.311
  0
LINE
  8
0
 10
-203.654
 20
-105.311
 11
-203.518
 21
-105.518
  0
LINE
  8
0
 10
-203.518
 20
-105.518
 11
-203.412
 21
-105.743
  0
LINE
  8
0
 10
-203.412
 20
-105.743
 11
-203.341
 21
-105.98
  0
LINE
  8
0
 10
-203.341
 20
-105.98
 11
-203.305
 21
-106.226
  0
LINE
  8
0
 10
-203.305
 20
-106.226
 11
-203.305
 21
-106.474
  0
LINE
  8
0
 10
-203.305
 20
-106.474
 11
-203.341
 21
-106.72
  0
LINE
  8
0
 10
-203.341
 20
-106.72
 11
-203.412
 21
-106.957
  0
LINE
  8
0
 10
-203.412
 20
-106.957
 11
-203.518
 21
-107.182
  0
LINE
  8
0
 10
-203.518
 20
-107.182
 11
-203.654
 21
-107.389
  0
LINE
  8
0
 10
-203.654
 20
-107.389
 11
-203.82
 21
-107.574
  0
LINE
  8
0
 10
-203.82
 20
-107.574
 11
-204.011
 21
-107.733
  0
LINE
  8
0
 10
-204.011
 20
-107.733
 11
-204.223
 21
-107.862
  0
LINE
  8
0
 10
-204.223
 20
-107.862
 11
-204.451
 21
-107.959
  0
LINE
  8
0
 10
-204.451
 20
-107.959
 11
-204.691
 21
-108.022
  0
LINE
  8
0
 10
-204.691
 20
-108.022
 11
-204.938
 21
-108.049
  0
LINE
  8
0
 10
-204.938
 20
-108.049
 11
-205.186
 21
-108.04
  0
LINE
  8
0
 10
-205.392
 20
-152.579
 11
-205.78
 21
-152.518
  0
LINE
  8
0
 10
-205.78
 20
-152.518
 11
-206.159
 21
-152.416
  0
LINE
  8
0
 10
-206.159
 20
-152.416
 11
-206.525
 21
-152.276
  0
LINE
  8
0
 10
-206.525
 20
-152.276
 11
-206.875
 21
-152.098
  0
LINE
  8
0
 10
-206.875
 20
-152.098
 11
-207.204
 21
-151.884
  0
LINE
  8
0
 10
-207.204
 20
-151.884
 11
-207.509
 21
-151.637
  0
LINE
  8
0
 10
-207.509
 20
-151.637
 11
-207.787
 21
-151.359
  0
LINE
  8
0
 10
-207.787
 20
-151.359
 11
-208.034
 21
-151.054
  0
LINE
  8
0
 10
-208.034
 20
-151.054
 11
-208.248
 21
-150.725
  0
LINE
  8
0
 10
-208.248
 20
-150.725
 11
-208.426
 21
-150.375
  0
LINE
  8
0
 10
-208.426
 20
-150.375
 11
-208.566
 21
-150.009
  0
LINE
  8
0
 10
-208.566
 20
-150.009
 11
-208.668
 21
-149.63
  0
LINE
  8
0
 10
-208.668
 20
-149.63
 11
-208.729
 21
-149.242
  0
LINE
  8
0
 10
-208.729
 20
-149.242
 11
-208.75
 21
-148.85
  0
LINE
  8
0
 10
-208.75
 20
-148.85
 11
-208.729
 21
-148.458
  0
LINE
  8
0
 10
-208.729
 20
-148.458
 11
-208.668
 21
-148.07
  0
LINE
  8
0
 10
-208.668
 20
-148.07
 11
-208.566
 21
-147.691
  0
LINE
  8
0
 10
-208.566
 20
-147.691
 11
-208.426
 21
-147.325
  0
LINE
  8
0
 10
-208.426
 20
-147.325
 11
-208.248
 21
-146.975
  0
LINE
  8
0
 10
-208.248
 20
-146.975
 11
-208.034
 21
-146.646
  0
LINE
  8
0
 10
-208.034
 20
-146.646
 11
-207.787
 21
-146.341
  0
LINE
  8
0
 10
-207.787
 20
-146.341
 11
-207.509
 21
-146.063
  0
LINE
  8
0
 10
-207.509
 20
-146.063
 11
-207.204
 21
-145.816
  0
LINE
  8
0
 10
-207.204
 20
-145.816
 11
-206.875
 21
-145.602
  0
LINE
  8
0
 10
-206.875
 20
-145.602
 11
-206.525
 21
-145.424
  0
LINE
  8
0
 10
-206.525
 20
-145.424
 11
-206.159
 21
-145.284
  0
LINE
  8
0
 10
-206.159
 20
-145.284
 11
-205.78
 21
-145.182
  0
LINE
  8
0
 10
-205.78
 20
-145.182
 11
-205.392
 21
-145.121
  0
LINE
  8
0
 10
-205.392
 20
-145.121
 11
-205
 21
-145.1
  0
LINE
  8
0
 10
-205
 20
-145.1
 11
-204.608
 21
-145.121
  0
LINE
  8
0
 10
-204.608
 20
-145.121
 11
-204.22
 21
-145.182
  0
LINE
  8
0
 10
-204.22
 20
-145.182
 11
-203.841
 21
-145.284
  0
LINE
  8
0
 10
-203.841
 20
-145.284
 11
-203.475
 21
-145.424
  0
LINE
  8
0
 10
-203.475
 20
-145.424
 11
-203.125
 21
-145.602
  0
LINE
  8
0
 10
-203.125
 20
-145.602
 11
-202.796
 21
-145.816
  0
LINE
  8
0
 10
-202.796
 20
-145.816
 11
-202.491
 21
-146.063
  0
LINE
  8
0
 10
-202.491
 20
-146.063
 11
-202.213
 21
-146.341
  0
LINE
  8
0
 10
-202.213
 20
-146.341
 11
-201.966
 21
-146.646
  0
LINE
  8
0
 10
-201.966
 20
-146.646
 11
-201.752
 21
-146.975
  0
LINE
  8
0
 10
-201.752
 20
-146.975
 11
-201.574
 21
-147.325
  0
LINE
  8
0
 10
-201.574
 20
-147.325
 11
-201.434
 21
-147.691
  0
LINE
  8
0
 10
-201.434
 20
-147.691
 11
-201.332
 21
-148.07
  0
LINE
  8
0
 10
-201.332
 20
-148.07
 11
-201.271
 21
-148.458
  0
LINE
  8
0
 10
-201.271
 20
-148.458
 11
-201.25
 21
-148.85
  0
LINE
  8
0
 10
-201.25
 20
-148.85
 11
-201.271
 21
-149.242
  0
LINE
  8
0
 10
-201.271
 20
-149.242
 11
-201.332
 21
-149.63
  0
LINE
  8
0
 10
-201.332
 20
-149.63
 11
-201.434
 21
-150.009
  0
LINE
  8
0
 10
-201.434
 20
-150.009
 11
-201.574
 21
-150.375
  0
LINE
  8
0
 10
-201.574
 20
-150.375
 11
-201.752
 21
-150.725
  0
LINE
  8
0
 10
-201.752
 20
-150.725
 11
-201.966
 21
-151.054
  0
LINE
  8
0
 10
-201.966
 20
-151.054
 11
-202.213
 21
-151.359
  0
LINE
  8
0
 10
-202.213
 20
-151.359
 11
-202.491
 21
-151.637
  0
LINE
  8
0
 10
-202.491
 20
-151.637
 11
-202.796
 21
-151.884
  0
LINE
  8
0
 10
-202.796
 20
-151.884
 11
-203.125
 21
-152.098
  0
LINE
  8
0
 10
-203.125
 20
-152.098
 11
-203.475
 21
-152.276
  0
LINE
  8
0
 10
-203.475
 20
-152.276
 11
-203.841
 21
-152.416
  0
LINE
  8
0
 10
-203.841
 20
-152.416
 11
-204.22
 21
-152.518
  0
LINE
  8
0
 10
-204.22
 20
-152.518
 11
-204.608
 21
-152.579
  0
LINE
  8
0
 10
-204.608
 20
-152.579
 11
-205
 21
-152.6
  0
LINE
  8
0
 10
-205
 20
-152.6
 11
-205.392
 21
-152.579
  0
LINE
  8
0
 10
204.608
 20
-152.579
 11
204.22
 21
-152.518
  0
LINE
  8
0
 10
204.22
 20
-152.518
 11
203.841
 21
-152.416
  0
LINE
  8
0
 10
203.841
 20
-152.416
 11
203.475
 21
-152.276
  0
LINE
  8
0
 10
203.475
 20
-152.276
 11
203.125
 21
-152.098
  0
LINE
  8
0
 10
203.125
 20
-152.098
 11
202.796
 21
-151.884
  0
LINE
  8
0
 10
202.796
 20
-151.884
 11
202.491
 21
-151.637
  0
LINE
  8
0
 10
202.491
 20
-151.637
 11
202.213
 21
-151.359
  0
LINE
  8
0
 10
202.213
 20
-151.359
 11
201.966
 21
-151.054
  0
LINE
  8
0
 10
201.966
 20
-151.054
 11
201.752
 21
-150.725
  0
LINE
  8
0
 10
201.752
 20
-150.725
 11
201.574
 21
-150.375
  0
LINE
  8
0
 10
201.574
 20
-150.375
 11
201.434
 21
-150.009
  0
LINE
  8
0
 10
201.434
 20
-150.009
 11
201.332
 21
-149.63
  0
LINE
  8
0
 10
201.332
 20
-149.63
 11
201.271
 21
-149.242
  0
LINE
  8
0
 10
201.271
 20
-149.242
 11
201.25
 21
-148.85
  0
LINE
  8
0
 10
201.25
 20
-148.85
 11
201.271
 21
-148.458
  0
LINE
  8
0
 10
201.271
 20
-148.458
 11
201.332
 21
-148.07
  0
LINE
  8
0
 10
201.332
 20
-148.07
 11
201.434
 21
-147.691
  0
LINE
  8
0
 10
201.434
 20
-147.691
 11
201.574
 21
-147.325
  0
LINE
  8
0
 10
201.574
 20
-147.325
 11
201.752
 21
-146.975
  0
LINE
  8
0
 10
201.752
 20
-146.975
 11
201.966
 21
-146.646
  0
LINE
  8
0
 10
201.966
 20
-146.646
 11
202.213
 21
-146.341
  0
LINE
  8
0
 10
202.213
 20
-146.341
 11
202.491
 21
-146.063
  0
LINE
  8
0
 10
202.491
 20
-146.063
 11
202.796
 21
-145.816
  0
LINE
  8
0
 10
202.796
 20
-145.816
 11
203.125
 21
-145.602
  0
LINE
  8
0
 10
203.125
 20
-145.602
 11
203.475
 21
-145.424
  0
LINE
  8
0
 10
203.475
 20
-145.424
 11
203.841
 21
-145.284
  0
LINE
  8
0
 10
203.841
 20
-145.284
 11
204.22
 21
-145.182
  0
LINE
  8
0
 10
204.22
 20
-145.182
 11
204.608
 21
-145.121
  0
LINE
  8
0
 10
204.608
 20
-145.121
 11
205
 21
-145.1
  0
LINE
  8
0
 10
205
 20
-145.1
 11
205.392
 21
-145.121
  0
LINE
  8
0
 10
205.392
 20
-145.121
 11
205.78
 21
-145.182
  0
LINE
  8
0
 10
205.78
 20
-145.182
 11
206.159
 21
-145.284
  0
LINE
  8
0
 10
206.159
 20
-145.284
 11
206.525
 21
-145.424
  0
LINE
  8
0
 10
206.525
 20
-145.424
 11
206.875
 21
-145.602
  0
LINE
  8
0
 10
206.875
 20
-145.602
 11
207.204
 21
-145.816
  0
LINE
  8
0
 10
207.204
 20
-145.816
 11
207.509
 21
-146.063
  0
LINE
  8
0
 10
207.509
 20
-146.063
 11
207.787
 21
-146.341
  0
LINE
  8
0
 10
207.787
 20
-146.341
 11
208.034
 21
-146.646
  0
LINE
  8
0
 10
208.034
 20
-146.646
 11
208.248
 21
-146.975
  0
LINE
  8
0
 10
208.248
 20
-146.975
 11
208.426
 21
-147.325
  0
LINE
  8
0
 10
208.426
 20
-147.325
 11
208.566
 21
-147.691
  0
LINE
  8
0
 10
208.566
 20
-147.691
 11
208.668
 21
-148.07
  0
LINE
  8
0
 10
208.668
 20
-148.07
 11
208.729
 21
-148.458
  0
LINE
  8
0
 10
208.729
 20
-148.458
 11
208.75
 21
-148.85
  0
LINE
  8
0
 10
208.75
 20
-148.85
 11
208.729
 21
-149.242
  0
LINE
  8
0
 10
208.729
 20
-149.242
 11
208.668
 21
-149.63
  0
LINE
  8
0
 10
208.668
 20
-149.63
 11
208.566
 21
-150.009
  0
LINE
  8
0
 10
208.566
 20
-150.009
 11
208.426
 21
-150.375
  0
LINE
  8
0
 10
208.426
 20
-150.375
 11
208.248
 21
-150.725
  0
LINE
  8
0
 10
208.248
 20
-150.725
 11
208.034
 21
-151.054
  0
LINE
  8
0
 10
208.034
 20
-151.054
 11
207.787
 21
-151.359
  0
LINE
  8
0
 10
207.787
 20
-151.359
 11
207.509
 21
-151.637
  0
LINE
  8
0
 10
207.509
 20
-151.637
 11
207.204
 21
-151.884
  0
LINE
  8
0
 10
207.204
 20
-151.884
 11
206.875
 21
-152.098
  0
LINE
  8
0
 10
206.875
 20
-152.098
 11
206.525
 21
-152.276
  0
LINE
  8
0
 10
206.525
 20
-152.276
 11
206.159
 21
-152.416
  0
LINE
  8
0
 10
206.159
 20
-152.416
 11
205.78
 21
-152.518
  0
LINE
  8
0
 10
205.78
 20
-152.518
 11
205.392
 21
-152.579
  0
LINE
  8
0
 10
205.392
 20
-152.579
 11
205
 21
-152.6
  0
LINE
  8
0
 10
205
 20
-152.6
 11
204.608
 21
-152.579
  0
ENDSEC
  0
SECTION
  2
OBJECTS
  0
DICTIONARY
  0
ENDSEC
  0
EOF
