solid OpenSCAD_Model
  facet normal 0 -1 0
    outer loop
      vertex -197.5 -156.225 0
      vertex 197.5 -156.225 6.35
      vertex -197.5 -156.225 6.35
    endloop
  endfacet
  facet normal 0 -1 -0
    outer loop
      vertex 197.5 -156.225 6.35
      vertex -197.5 -156.225 0
      vertex 197.5 -156.225 0
    endloop
  endfacet
  facet normal 0 0 1
    outer loop
      vertex 192.5 118.85 6.35
      vertex 197.5 113.85 6.35
      vertex 197.473 114.373 6.35
    endloop
  endfacet
  facet normal 0 0 1
    outer loop
      vertex 192.5 118.85 6.35
      vertex 197.473 114.373 6.35
      vertex 197.391 114.89 6.35
    endloop
  endfacet
  facet normal 0 0 1
    outer loop
      vertex 192.5 118.85 6.35
      vertex 197.391 114.89 6.35
      vertex 197.255 115.395 6.35
    endloop
  endfacet
  facet normal 0 0 1
    outer loop
      vertex 192.5 118.85 6.35
      vertex 197.255 115.395 6.35
      vertex 197.068 115.884 6.35
    endloop
  endfacet
  facet normal 0 0 1
    outer loop
      vertex 192.5 118.85 6.35
      vertex 197.068 115.884 6.35
      vertex 196.83 116.35 6.35
    endloop
  endfacet
  facet normal 0 0 1
    outer loop
      vertex 192.5 118.85 6.35
      vertex 196.83 116.35 6.35
      vertex 196.545 116.789 6.35
    endloop
  endfacet
  facet normal 0 0 1
    outer loop
      vertex 192.5 118.85 6.35
      vertex 196.545 116.789 6.35
      vertex 196.216 117.196 6.35
    endloop
  endfacet
  facet normal 0 0 1
    outer loop
      vertex 192.5 118.85 6.35
      vertex 196.216 117.196 6.35
      vertex 195.846 117.566 6.35
    endloop
  endfacet
  facet normal 0 0 1
    outer loop
      vertex 192.5 118.85 6.35
      vertex 195.846 117.566 6.35
      vertex 195.439 117.895 6.35
    endloop
  endfacet
  facet normal 0 0 1
    outer loop
      vertex 192.5 118.85 6.35
      vertex 195.439 117.895 6.35
      vertex 195 118.18 6.35
    endloop
  endfacet
  facet normal 0 0 1
    outer loop
      vertex 192.5 118.85 6.35
      vertex 195 118.18 6.35
      vertex 194.534 118.418 6.35
    endloop
  endfacet
  facet normal 0 0 1
    outer loop
      vertex 192.5 118.85 6.35
      vertex 194.534 118.418 6.35
      vertex 194.045 118.605 6.35
    endloop
  endfacet
  facet normal 0 0 1
    outer loop
      vertex 192.5 118.85 6.35
      vertex 194.045 118.605 6.35
      vertex 193.54 118.741 6.35
    endloop
  endfacet
  facet normal 0 0 1
    outer loop
      vertex 192.5 118.85 6.35
      vertex 193.54 118.741 6.35
      vertex 193.023 118.823 6.35
    endloop
  endfacet
  facet normal 0 0 1
    outer loop
      vertex 197.5 113.85 6.35
      vertex 192.5 118.85 6.35
      vertex 197.5 -156.225 6.35
    endloop
  endfacet
  facet normal -0 0 1
    outer loop
      vertex -192.5 118.85 6.35
      vertex 197.5 -156.225 6.35
      vertex 192.5 118.85 6.35
    endloop
  endfacet
  facet normal 0 0 1
    outer loop
      vertex -197.5 113.85 6.35
      vertex -192.5 118.85 6.35
      vertex -193.023 118.823 6.35
    endloop
  endfacet
  facet normal 0 0 1
    outer loop
      vertex -197.5 113.85 6.35
      vertex -193.023 118.823 6.35
      vertex -193.54 118.741 6.35
    endloop
  endfacet
  facet normal 0 0 1
    outer loop
      vertex -197.5 113.85 6.35
      vertex -193.54 118.741 6.35
      vertex -194.045 118.605 6.35
    endloop
  endfacet
  facet normal 0 0 1
    outer loop
      vertex -197.5 113.85 6.35
      vertex -194.045 118.605 6.35
      vertex -194.534 118.418 6.35
    endloop
  endfacet
  facet normal 0 0 1
    outer loop
      vertex -197.5 113.85 6.35
      vertex -194.534 118.418 6.35
      vertex -195 118.18 6.35
    endloop
  endfacet
  facet normal 0 0 1
    outer loop
      vertex -197.5 113.85 6.35
      vertex -195 118.18 6.35
      vertex -195.439 117.895 6.35
    endloop
  endfacet
  facet normal 0 0 1
    outer loop
      vertex -197.5 113.85 6.35
      vertex -195.439 117.895 6.35
      vertex -195.846 117.566 6.35
    endloop
  endfacet
  facet normal 0 0 1
    outer loop
      vertex -197.5 113.85 6.35
      vertex -195.846 117.566 6.35
      vertex -196.216 117.196 6.35
    endloop
  endfacet
  facet normal 0 0 1
    outer loop
      vertex -197.5 113.85 6.35
      vertex -196.216 117.196 6.35
      vertex -196.545 116.789 6.35
    endloop
  endfacet
  facet normal 0 0 1
    outer loop
      vertex -197.5 113.85 6.35
      vertex -196.545 116.789 6.35
      vertex -196.83 116.35 6.35
    endloop
  endfacet
  facet normal 0 0 1
    outer loop
      vertex -197.5 113.85 6.35
      vertex -196.83 116.35 6.35
      vertex -197.068 115.884 6.35
    endloop
  endfacet
  facet normal 0 0 1
    outer loop
      vertex -197.5 113.85 6.35
      vertex -197.068 115.884 6.35
      vertex -197.255 115.395 6.35
    endloop
  endfacet
  facet normal 0 0 1
    outer loop
      vertex -197.5 113.85 6.35
      vertex -197.255 115.395 6.35
      vertex -197.391 114.89 6.35
    endloop
  endfacet
  facet normal 0 0 1
    outer loop
      vertex -197.5 113.85 6.35
      vertex -197.391 114.89 6.35
      vertex -197.473 114.373 6.35
    endloop
  endfacet
  facet normal 0 0 1
    outer loop
      vertex -192.5 118.85 6.35
      vertex -197.5 113.85 6.35
      vertex -197.5 -156.225 6.35
    endloop
  endfacet
  facet normal 0 0 1
    outer loop
      vertex -192.5 118.85 6.35
      vertex -197.5 -156.225 6.35
      vertex 197.5 -156.225 6.35
    endloop
  endfacet
  facet normal 0 0 -1
    outer loop
      vertex 192.5 118.85 0
      vertex 197.5 113.85 0
      vertex 197.5 -156.225 0
    endloop
  endfacet
  facet normal 0 0 -1
    outer loop
      vertex 197.5 113.85 0
      vertex 192.5 118.85 0
      vertex 197.473 114.373 0
    endloop
  endfacet
  facet normal 0 0 -1
    outer loop
      vertex 197.473 114.373 0
      vertex 192.5 118.85 0
      vertex 197.391 114.89 0
    endloop
  endfacet
  facet normal 0 0 -1
    outer loop
      vertex 197.391 114.89 0
      vertex 192.5 118.85 0
      vertex 197.255 115.395 0
    endloop
  endfacet
  facet normal 0 0 -1
    outer loop
      vertex 197.255 115.395 0
      vertex 192.5 118.85 0
      vertex 197.068 115.884 0
    endloop
  endfacet
  facet normal 0 0 -1
    outer loop
      vertex 197.068 115.884 0
      vertex 192.5 118.85 0
      vertex 196.83 116.35 0
    endloop
  endfacet
  facet normal 0 0 -1
    outer loop
      vertex 196.83 116.35 0
      vertex 192.5 118.85 0
      vertex 196.545 116.789 0
    endloop
  endfacet
  facet normal 0 0 -1
    outer loop
      vertex 196.545 116.789 0
      vertex 192.5 118.85 0
      vertex 196.216 117.196 0
    endloop
  endfacet
  facet normal 0 0 -1
    outer loop
      vertex 196.216 117.196 0
      vertex 192.5 118.85 0
      vertex 195.846 117.566 0
    endloop
  endfacet
  facet normal 0 0 -1
    outer loop
      vertex 195.846 117.566 0
      vertex 192.5 118.85 0
      vertex 195.439 117.895 0
    endloop
  endfacet
  facet normal 0 0 -1
    outer loop
      vertex 195.439 117.895 0
      vertex 192.5 118.85 0
      vertex 195 118.18 0
    endloop
  endfacet
  facet normal 0 0 -1
    outer loop
      vertex 195 118.18 0
      vertex 192.5 118.85 0
      vertex 194.534 118.418 0
    endloop
  endfacet
  facet normal 0 0 -1
    outer loop
      vertex 194.534 118.418 0
      vertex 192.5 118.85 0
      vertex 194.045 118.605 0
    endloop
  endfacet
  facet normal 0 0 -1
    outer loop
      vertex 194.045 118.605 0
      vertex 192.5 118.85 0
      vertex 193.54 118.741 0
    endloop
  endfacet
  facet normal 0 0 -1
    outer loop
      vertex 193.54 118.741 0
      vertex 192.5 118.85 0
      vertex 193.023 118.823 0
    endloop
  endfacet
  facet normal 0 0 -1
    outer loop
      vertex 197.5 -156.225 0
      vertex -192.5 118.85 0
      vertex 192.5 118.85 0
    endloop
  endfacet
  facet normal 0 0 -1
    outer loop
      vertex -197.5 -156.225 0
      vertex -192.5 118.85 0
      vertex 197.5 -156.225 0
    endloop
  endfacet
  facet normal 0 0 -1
    outer loop
      vertex -197.5 113.85 0
      vertex -192.5 118.85 0
      vertex -197.5 -156.225 0
    endloop
  endfacet
  facet normal 0 0 -1
    outer loop
      vertex -192.5 118.85 0
      vertex -197.5 113.85 0
      vertex -193.023 118.823 0
    endloop
  endfacet
  facet normal 0 0 -1
    outer loop
      vertex -193.023 118.823 0
      vertex -197.5 113.85 0
      vertex -193.54 118.741 0
    endloop
  endfacet
  facet normal 0 0 -1
    outer loop
      vertex -194.045 118.605 0
      vertex -197.5 113.85 0
      vertex -194.534 118.418 0
    endloop
  endfacet
  facet normal 0 0 -1
    outer loop
      vertex -194.534 118.418 0
      vertex -197.5 113.85 0
      vertex -195 118.18 0
    endloop
  endfacet
  facet normal 0 0 -1
    outer loop
      vertex -195 118.18 0
      vertex -197.5 113.85 0
      vertex -195.439 117.895 0
    endloop
  endfacet
  facet normal 0 0 -1
    outer loop
      vertex -195.439 117.895 0
      vertex -197.5 113.85 0
      vertex -195.846 117.566 0
    endloop
  endfacet
  facet normal 0 0 -1
    outer loop
      vertex -195.846 117.566 0
      vertex -197.5 113.85 0
      vertex -196.216 117.196 0
    endloop
  endfacet
  facet normal 0 0 -1
    outer loop
      vertex -196.216 117.196 0
      vertex -197.5 113.85 0
      vertex -196.545 116.789 0
    endloop
  endfacet
  facet normal 0 0 -1
    outer loop
      vertex -196.545 116.789 0
      vertex -197.5 113.85 0
      vertex -196.83 116.35 0
    endloop
  endfacet
  facet normal 0 0 -1
    outer loop
      vertex -196.83 116.35 0
      vertex -197.5 113.85 0
      vertex -197.068 115.884 0
    endloop
  endfacet
  facet normal 0 0 -1
    outer loop
      vertex -197.068 115.884 0
      vertex -197.5 113.85 0
      vertex -197.255 115.395 0
    endloop
  endfacet
  facet normal 0 0 -1
    outer loop
      vertex -197.255 115.395 0
      vertex -197.5 113.85 0
      vertex -197.391 114.89 0
    endloop
  endfacet
  facet normal 0 0 -1
    outer loop
      vertex -193.54 118.741 0
      vertex -197.5 113.85 0
      vertex -194.045 118.605 0
    endloop
  endfacet
  facet normal 0 0 -1
    outer loop
      vertex -197.391 114.89 0
      vertex -197.5 113.85 0
      vertex -197.473 114.373 0
    endloop
  endfacet
  facet normal -0.0515566 0.99867 0
    outer loop
      vertex -192.5 118.85 0
      vertex -193.023 118.823 6.35
      vertex -192.5 118.85 6.35
    endloop
  endfacet
  facet normal -0.0515566 0.99867 0
    outer loop
      vertex -193.023 118.823 6.35
      vertex -192.5 118.85 0
      vertex -193.023 118.823 0
    endloop
  endfacet
  facet normal 0.0515566 0.99867 -0
    outer loop
      vertex 193.023 118.823 0
      vertex 192.5 118.85 6.35
      vertex 193.023 118.823 6.35
    endloop
  endfacet
  facet normal 0.0515566 0.99867 0
    outer loop
      vertex 192.5 118.85 6.35
      vertex 193.023 118.823 0
      vertex 192.5 118.85 0
    endloop
  endfacet
  facet normal -0.628648 0.77769 0
    outer loop
      vertex -195.439 117.895 0
      vertex -195.846 117.566 6.35
      vertex -195.439 117.895 6.35
    endloop
  endfacet
  facet normal -0.628648 0.77769 0
    outer loop
      vertex -195.846 117.566 6.35
      vertex -195.439 117.895 0
      vertex -195.846 117.566 0
    endloop
  endfacet
  facet normal 0 1 -0
    outer loop
      vertex 192.5 118.85 0
      vertex -192.5 118.85 6.35
      vertex 192.5 118.85 6.35
    endloop
  endfacet
  facet normal 0 1 0
    outer loop
      vertex -192.5 118.85 6.35
      vertex 192.5 118.85 0
      vertex -192.5 118.85 0
    endloop
  endfacet
  facet normal -1 0 0
    outer loop
      vertex -197.5 -156.225 0
      vertex -197.5 113.85 6.35
      vertex -197.5 113.85 0
    endloop
  endfacet
  facet normal -1 -0 0
    outer loop
      vertex -197.5 113.85 6.35
      vertex -197.5 -156.225 0
      vertex -197.5 -156.225 6.35
    endloop
  endfacet
  facet normal 1 -0 0
    outer loop
      vertex 197.5 -156.225 6.35
      vertex 197.5 113.85 0
      vertex 197.5 113.85 6.35
    endloop
  endfacet
  facet normal 1 0 0
    outer loop
      vertex 197.5 113.85 0
      vertex 197.5 -156.225 6.35
      vertex 197.5 -156.225 0
    endloop
  endfacet
  facet normal 0.628648 0.77769 -0
    outer loop
      vertex 195.846 117.566 0
      vertex 195.439 117.895 6.35
      vertex 195.846 117.566 6.35
    endloop
  endfacet
  facet normal 0.628648 0.77769 0
    outer loop
      vertex 195.439 117.895 6.35
      vertex 195.846 117.566 0
      vertex 195.439 117.895 0
    endloop
  endfacet
  facet normal 0.357186 0.934033 -0
    outer loop
      vertex 194.534 118.418 0
      vertex 194.045 118.605 6.35
      vertex 194.534 118.418 6.35
    endloop
  endfacet
  facet normal 0.357186 0.934033 0
    outer loop
      vertex 194.045 118.605 6.35
      vertex 194.534 118.418 0
      vertex 194.045 118.605 0
    endloop
  endfacet
  facet normal -0.965597 0.260042 0
    outer loop
      vertex -197.391 114.89 0
      vertex -197.255 115.395 6.35
      vertex -197.255 115.395 0
    endloop
  endfacet
  facet normal -0.965597 0.260042 0
    outer loop
      vertex -197.255 115.395 6.35
      vertex -197.391 114.89 0
      vertex -197.391 114.89 6.35
    endloop
  endfacet
  facet normal 0.260042 0.965597 -0
    outer loop
      vertex 194.045 118.605 0
      vertex 193.54 118.741 6.35
      vertex 194.045 118.605 6.35
    endloop
  endfacet
  facet normal 0.260042 0.965597 0
    outer loop
      vertex 193.54 118.741 6.35
      vertex 194.045 118.605 0
      vertex 193.54 118.741 0
    endloop
  endfacet
  facet normal -0.544518 0.838749 0
    outer loop
      vertex -195 118.18 0
      vertex -195.439 117.895 6.35
      vertex -195 118.18 6.35
    endloop
  endfacet
  facet normal -0.544518 0.838749 0
    outer loop
      vertex -195.439 117.895 6.35
      vertex -195 118.18 0
      vertex -195.439 117.895 0
    endloop
  endfacet
  facet normal -0.357186 0.934033 0
    outer loop
      vertex -194.045 118.605 0
      vertex -194.534 118.418 6.35
      vertex -194.045 118.605 6.35
    endloop
  endfacet
  facet normal -0.357186 0.934033 0
    outer loop
      vertex -194.534 118.418 6.35
      vertex -194.045 118.605 0
      vertex -194.534 118.418 0
    endloop
  endfacet
  facet normal -0.99867 0.0515566 0
    outer loop
      vertex -197.5 113.85 0
      vertex -197.473 114.373 6.35
      vertex -197.473 114.373 0
    endloop
  endfacet
  facet normal -0.99867 0.0515566 0
    outer loop
      vertex -197.473 114.373 6.35
      vertex -197.5 113.85 0
      vertex -197.5 113.85 6.35
    endloop
  endfacet
  facet normal -0.934033 0.357186 0
    outer loop
      vertex -197.255 115.395 0
      vertex -197.068 115.884 6.35
      vertex -197.068 115.884 0
    endloop
  endfacet
  facet normal -0.934033 0.357186 0
    outer loop
      vertex -197.068 115.884 6.35
      vertex -197.255 115.395 0
      vertex -197.255 115.395 6.35
    endloop
  endfacet
  facet normal -0.987654 0.156649 0
    outer loop
      vertex -197.473 114.373 0
      vertex -197.391 114.89 6.35
      vertex -197.391 114.89 0
    endloop
  endfacet
  facet normal -0.987654 0.156649 0
    outer loop
      vertex -197.391 114.89 6.35
      vertex -197.473 114.373 0
      vertex -197.473 114.373 6.35
    endloop
  endfacet
  facet normal 0.156649 0.987654 -0
    outer loop
      vertex 193.54 118.741 0
      vertex 193.023 118.823 6.35
      vertex 193.54 118.741 6.35
    endloop
  endfacet
  facet normal 0.156649 0.987654 0
    outer loop
      vertex 193.023 118.823 6.35
      vertex 193.54 118.741 0
      vertex 193.023 118.823 0
    endloop
  endfacet
  facet normal 0.454842 0.890572 -0
    outer loop
      vertex 195 118.18 0
      vertex 194.534 118.418 6.35
      vertex 195 118.18 6.35
    endloop
  endfacet
  facet normal 0.454842 0.890572 0
    outer loop
      vertex 194.534 118.418 6.35
      vertex 195 118.18 0
      vertex 194.534 118.418 0
    endloop
  endfacet
  facet normal 0.544518 0.838749 -0
    outer loop
      vertex 195.439 117.895 0
      vertex 195 118.18 6.35
      vertex 195.439 117.895 6.35
    endloop
  endfacet
  facet normal 0.544518 0.838749 0
    outer loop
      vertex 195 118.18 6.35
      vertex 195.439 117.895 0
      vertex 195 118.18 0
    endloop
  endfacet
  facet normal -0.454842 0.890572 0
    outer loop
      vertex -194.534 118.418 0
      vertex -195 118.18 6.35
      vertex -194.534 118.418 6.35
    endloop
  endfacet
  facet normal -0.454842 0.890572 0
    outer loop
      vertex -195 118.18 6.35
      vertex -194.534 118.418 0
      vertex -195 118.18 0
    endloop
  endfacet
  facet normal -0.890572 0.454842 0
    outer loop
      vertex -197.068 115.884 0
      vertex -196.83 116.35 6.35
      vertex -196.83 116.35 0
    endloop
  endfacet
  facet normal -0.890572 0.454842 0
    outer loop
      vertex -196.83 116.35 6.35
      vertex -197.068 115.884 0
      vertex -197.068 115.884 6.35
    endloop
  endfacet
  facet normal 0.890572 0.454842 0
    outer loop
      vertex 197.068 115.884 6.35
      vertex 196.83 116.35 0
      vertex 196.83 116.35 6.35
    endloop
  endfacet
  facet normal 0.890572 0.454842 0
    outer loop
      vertex 196.83 116.35 0
      vertex 197.068 115.884 6.35
      vertex 197.068 115.884 0
    endloop
  endfacet
  facet normal 0.965597 0.260042 0
    outer loop
      vertex 197.391 114.89 6.35
      vertex 197.255 115.395 0
      vertex 197.255 115.395 6.35
    endloop
  endfacet
  facet normal 0.965597 0.260042 0
    outer loop
      vertex 197.255 115.395 0
      vertex 197.391 114.89 6.35
      vertex 197.391 114.89 0
    endloop
  endfacet
  facet normal 0.934033 0.357186 0
    outer loop
      vertex 197.255 115.395 6.35
      vertex 197.068 115.884 0
      vertex 197.068 115.884 6.35
    endloop
  endfacet
  facet normal 0.934033 0.357186 0
    outer loop
      vertex 197.068 115.884 0
      vertex 197.255 115.395 6.35
      vertex 197.255 115.395 0
    endloop
  endfacet
  facet normal -0.707107 0.707107 0
    outer loop
      vertex -196.216 117.196 0
      vertex -195.846 117.566 6.35
      vertex -195.846 117.566 0
    endloop
  endfacet
  facet normal -0.707107 0.707107 0
    outer loop
      vertex -195.846 117.566 6.35
      vertex -196.216 117.196 0
      vertex -196.216 117.196 6.35
    endloop
  endfacet
  facet normal -0.77769 0.628648 0
    outer loop
      vertex -196.545 116.789 0
      vertex -196.216 117.196 6.35
      vertex -196.216 117.196 0
    endloop
  endfacet
  facet normal -0.77769 0.628648 0
    outer loop
      vertex -196.216 117.196 6.35
      vertex -196.545 116.789 0
      vertex -196.545 116.789 6.35
    endloop
  endfacet
  facet normal 0.707107 0.707107 0
    outer loop
      vertex 196.216 117.196 6.35
      vertex 195.846 117.566 0
      vertex 195.846 117.566 6.35
    endloop
  endfacet
  facet normal 0.707107 0.707107 0
    outer loop
      vertex 195.846 117.566 0
      vertex 196.216 117.196 6.35
      vertex 196.216 117.196 0
    endloop
  endfacet
  facet normal 0.77769 0.628648 0
    outer loop
      vertex 196.545 116.789 6.35
      vertex 196.216 117.196 0
      vertex 196.216 117.196 6.35
    endloop
  endfacet
  facet normal 0.77769 0.628648 0
    outer loop
      vertex 196.216 117.196 0
      vertex 196.545 116.789 6.35
      vertex 196.545 116.789 0
    endloop
  endfacet
  facet normal 0.838749 0.544518 0
    outer loop
      vertex 196.83 116.35 6.35
      vertex 196.545 116.789 0
      vertex 196.545 116.789 6.35
    endloop
  endfacet
  facet normal 0.838749 0.544518 0
    outer loop
      vertex 196.545 116.789 0
      vertex 196.83 116.35 6.35
      vertex 196.83 116.35 0
    endloop
  endfacet
  facet normal 0.987654 0.156649 0
    outer loop
      vertex 197.473 114.373 6.35
      vertex 197.391 114.89 0
      vertex 197.391 114.89 6.35
    endloop
  endfacet
  facet normal 0.987654 0.156649 0
    outer loop
      vertex 197.391 114.89 0
      vertex 197.473 114.373 6.35
      vertex 197.473 114.373 0
    endloop
  endfacet
  facet normal 0.99867 0.0515566 0
    outer loop
      vertex 197.5 113.85 6.35
      vertex 197.473 114.373 0
      vertex 197.473 114.373 6.35
    endloop
  endfacet
  facet normal 0.99867 0.0515566 0
    outer loop
      vertex 197.473 114.373 0
      vertex 197.5 113.85 6.35
      vertex 197.5 113.85 0
    endloop
  endfacet
  facet normal -0.838749 0.544518 0
    outer loop
      vertex -196.83 116.35 0
      vertex -196.545 116.789 6.35
      vertex -196.545 116.789 0
    endloop
  endfacet
  facet normal -0.838749 0.544518 0
    outer loop
      vertex -196.545 116.789 6.35
      vertex -196.83 116.35 0
      vertex -196.83 116.35 6.35
    endloop
  endfacet
  facet normal -0.260042 0.965597 0
    outer loop
      vertex -193.54 118.741 0
      vertex -194.045 118.605 6.35
      vertex -193.54 118.741 6.35
    endloop
  endfacet
  facet normal -0.260042 0.965597 0
    outer loop
      vertex -194.045 118.605 6.35
      vertex -193.54 118.741 0
      vertex -194.045 118.605 0
    endloop
  endfacet
  facet normal -0.156649 0.987654 0
    outer loop
      vertex -193.023 118.823 0
      vertex -193.54 118.741 6.35
      vertex -193.023 118.823 6.35
    endloop
  endfacet
  facet normal -0.156649 0.987654 0
    outer loop
      vertex -193.54 118.741 6.35
      vertex -193.023 118.823 0
      vertex -193.54 118.741 0
    endloop
  endfacet
endsolid OpenSCAD_Model
