  0
SECTION
  2
BLOCKS
  0
ENDSEC
  0
SECTION
  2
ENTITIES
  0
LINE
  8
0
 10
227.898
 20
-107.348
 11
228.415
 21
-107.266
  0
LINE
  8
0
 10
228.415
 20
-107.266
 11
228.92
 21
-107.13
  0
LINE
  8
0
 10
228.92
 20
-107.13
 11
229.409
 21
-106.943
  0
LINE
  8
0
 10
229.409
 20
-106.943
 11
229.875
 21
-106.705
  0
LINE
  8
0
 10
229.875
 20
-106.705
 11
230.314
 21
-106.42
  0
LINE
  8
0
 10
230.314
 20
-106.42
 11
230.721
 21
-106.091
  0
LINE
  8
0
 10
230.721
 20
-106.091
 11
231.091
 21
-105.721
  0
LINE
  8
0
 10
231.091
 20
-105.721
 11
231.42
 21
-105.314
  0
LINE
  8
0
 10
231.42
 20
-105.314
 11
231.705
 21
-104.875
  0
LINE
  8
0
 10
231.705
 20
-104.875
 11
231.943
 21
-104.409
  0
LINE
  8
0
 10
231.943
 20
-104.409
 11
232.13
 21
-103.92
  0
LINE
  8
0
 10
232.13
 20
-103.92
 11
232.266
 21
-103.415
  0
LINE
  8
0
 10
232.266
 20
-103.415
 11
232.348
 21
-102.898
  0
LINE
  8
0
 10
232.348
 20
-102.898
 11
232.375
 21
-102.375
  0
LINE
  8
0
 10
232.375
 20
-102.375
 11
232.375
 21
102.375
  0
LINE
  8
0
 10
232.375
 20
102.375
 11
232.348
 21
102.898
  0
LINE
  8
0
 10
232.348
 20
102.898
 11
232.266
 21
103.415
  0
LINE
  8
0
 10
232.266
 20
103.415
 11
232.13
 21
103.92
  0
LINE
  8
0
 10
232.13
 20
103.92
 11
231.943
 21
104.409
  0
LINE
  8
0
 10
231.943
 20
104.409
 11
231.705
 21
104.875
  0
LINE
  8
0
 10
231.705
 20
104.875
 11
231.42
 21
105.314
  0
LINE
  8
0
 10
231.42
 20
105.314
 11
231.091
 21
105.721
  0
LINE
  8
0
 10
231.091
 20
105.721
 11
230.721
 21
106.091
  0
LINE
  8
0
 10
230.721
 20
106.091
 11
230.314
 21
106.42
  0
LINE
  8
0
 10
230.314
 20
106.42
 11
229.875
 21
106.705
  0
LINE
  8
0
 10
229.875
 20
106.705
 11
229.409
 21
106.943
  0
LINE
  8
0
 10
229.409
 20
106.943
 11
228.92
 21
107.13
  0
LINE
  8
0
 10
228.92
 20
107.13
 11
228.415
 21
107.266
  0
LINE
  8
0
 10
228.415
 20
107.266
 11
227.898
 21
107.348
  0
LINE
  8
0
 10
227.898
 20
107.348
 11
227.375
 21
107.375
  0
LINE
  8
0
 10
227.375
 20
107.375
 11
-227.375
 21
107.375
  0
LINE
  8
0
 10
-227.375
 20
107.375
 11
-227.898
 21
107.348
  0
LINE
  8
0
 10
-227.898
 20
107.348
 11
-228.415
 21
107.266
  0
LINE
  8
0
 10
-228.415
 20
107.266
 11
-228.92
 21
107.13
  0
LINE
  8
0
 10
-228.92
 20
107.13
 11
-229.409
 21
106.943
  0
LINE
  8
0
 10
-229.409
 20
106.943
 11
-229.875
 21
106.705
  0
LINE
  8
0
 10
-229.875
 20
106.705
 11
-230.314
 21
106.42
  0
LINE
  8
0
 10
-230.314
 20
106.42
 11
-230.721
 21
106.091
  0
LINE
  8
0
 10
-230.721
 20
106.091
 11
-231.091
 21
105.721
  0
LINE
  8
0
 10
-231.091
 20
105.721
 11
-231.42
 21
105.314
  0
LINE
  8
0
 10
-231.42
 20
105.314
 11
-231.705
 21
104.875
  0
LINE
  8
0
 10
-231.705
 20
104.875
 11
-231.943
 21
104.409
  0
LINE
  8
0
 10
-231.943
 20
104.409
 11
-232.13
 21
103.92
  0
LINE
  8
0
 10
-232.13
 20
103.92
 11
-232.266
 21
103.415
  0
LINE
  8
0
 10
-232.266
 20
103.415
 11
-232.348
 21
102.898
  0
LINE
  8
0
 10
-232.348
 20
102.898
 11
-232.375
 21
102.375
  0
LINE
  8
0
 10
-232.375
 20
102.375
 11
-232.375
 21
-102.375
  0
LINE
  8
0
 10
-232.375
 20
-102.375
 11
-232.348
 21
-102.898
  0
LINE
  8
0
 10
-232.348
 20
-102.898
 11
-232.266
 21
-103.415
  0
LINE
  8
0
 10
-232.266
 20
-103.415
 11
-232.13
 21
-103.92
  0
LINE
  8
0
 10
-232.13
 20
-103.92
 11
-231.943
 21
-104.409
  0
LINE
  8
0
 10
-231.943
 20
-104.409
 11
-231.705
 21
-104.875
  0
LINE
  8
0
 10
-231.705
 20
-104.875
 11
-231.42
 21
-105.314
  0
LINE
  8
0
 10
-231.42
 20
-105.314
 11
-231.091
 21
-105.721
  0
LINE
  8
0
 10
-231.091
 20
-105.721
 11
-230.721
 21
-106.091
  0
LINE
  8
0
 10
-230.721
 20
-106.091
 11
-230.314
 21
-106.42
  0
LINE
  8
0
 10
-230.314
 20
-106.42
 11
-229.875
 21
-106.705
  0
LINE
  8
0
 10
-229.875
 20
-106.705
 11
-229.409
 21
-106.943
  0
LINE
  8
0
 10
-229.409
 20
-106.943
 11
-228.92
 21
-107.13
  0
LINE
  8
0
 10
-228.92
 20
-107.13
 11
-228.415
 21
-107.266
  0
LINE
  8
0
 10
-228.415
 20
-107.266
 11
-227.898
 21
-107.348
  0
LINE
  8
0
 10
-227.898
 20
-107.348
 11
-227.375
 21
-107.375
  0
LINE
  8
0
 10
-227.375
 20
-107.375
 11
227.375
 21
-107.375
  0
LINE
  8
0
 10
227.375
 20
-107.375
 11
227.898
 21
-107.348
  0
LINE
  8
0
 10
-225.392
 20
81.2705
 11
-225.78
 21
81.3319
  0
LINE
  8
0
 10
-225.78
 20
81.3319
 11
-226.159
 21
81.4335
  0
LINE
  8
0
 10
-226.159
 20
81.4335
 11
-226.525
 21
81.5742
  0
LINE
  8
0
 10
-226.525
 20
81.5742
 11
-226.875
 21
81.7524
  0
LINE
  8
0
 10
-226.875
 20
81.7524
 11
-227.204
 21
81.9662
  0
LINE
  8
0
 10
-227.204
 20
81.9662
 11
-227.509
 21
82.2132
  0
LINE
  8
0
 10
-227.509
 20
82.2132
 11
-227.787
 21
82.4908
  0
LINE
  8
0
 10
-227.787
 20
82.4908
 11
-228.034
 21
82.7958
  0
LINE
  8
0
 10
-228.034
 20
82.7958
 11
-228.248
 21
83.125
  0
LINE
  8
0
 10
-228.248
 20
83.125
 11
-228.426
 21
83.4747
  0
LINE
  8
0
 10
-228.426
 20
83.4747
 11
-228.566
 21
83.8412
  0
LINE
  8
0
 10
-228.566
 20
83.8412
 11
-228.668
 21
84.2203
  0
LINE
  8
0
 10
-228.668
 20
84.2203
 11
-228.729
 21
84.608
  0
LINE
  8
0
 10
-228.729
 20
84.608
 11
-228.75
 21
85
  0
LINE
  8
0
 10
-228.75
 20
85
 11
-228.729
 21
85.392
  0
LINE
  8
0
 10
-228.729
 20
85.392
 11
-228.668
 21
85.7797
  0
LINE
  8
0
 10
-228.668
 20
85.7797
 11
-228.566
 21
86.1588
  0
LINE
  8
0
 10
-228.566
 20
86.1588
 11
-228.426
 21
86.5253
  0
LINE
  8
0
 10
-228.426
 20
86.5253
 11
-228.248
 21
86.875
  0
LINE
  8
0
 10
-228.248
 20
86.875
 11
-228.034
 21
87.2042
  0
LINE
  8
0
 10
-228.034
 20
87.2042
 11
-227.787
 21
87.5092
  0
LINE
  8
0
 10
-227.787
 20
87.5092
 11
-227.509
 21
87.7868
  0
LINE
  8
0
 10
-227.509
 20
87.7868
 11
-227.204
 21
88.0338
  0
LINE
  8
0
 10
-227.204
 20
88.0338
 11
-226.875
 21
88.2476
  0
LINE
  8
0
 10
-226.875
 20
88.2476
 11
-226.525
 21
88.4258
  0
LINE
  8
0
 10
-226.525
 20
88.4258
 11
-226.159
 21
88.5665
  0
LINE
  8
0
 10
-226.159
 20
88.5665
 11
-225.78
 21
88.668
  0
LINE
  8
0
 10
-225.78
 20
88.668
 11
-225.392
 21
88.7294
  0
LINE
  8
0
 10
-225.392
 20
88.7294
 11
-225
 21
88.75
  0
LINE
  8
0
 10
-225
 20
88.75
 11
-224.608
 21
88.7294
  0
LINE
  8
0
 10
-224.608
 20
88.7294
 11
-224.22
 21
88.668
  0
LINE
  8
0
 10
-224.22
 20
88.668
 11
-223.841
 21
88.5665
  0
LINE
  8
0
 10
-223.841
 20
88.5665
 11
-223.475
 21
88.4258
  0
LINE
  8
0
 10
-223.475
 20
88.4258
 11
-223.125
 21
88.2476
  0
LINE
  8
0
 10
-223.125
 20
88.2476
 11
-222.796
 21
88.0338
  0
LINE
  8
0
 10
-222.796
 20
88.0338
 11
-222.491
 21
87.7868
  0
LINE
  8
0
 10
-222.491
 20
87.7868
 11
-222.213
 21
87.5092
  0
LINE
  8
0
 10
-222.213
 20
87.5092
 11
-221.966
 21
87.2042
  0
LINE
  8
0
 10
-221.966
 20
87.2042
 11
-221.752
 21
86.875
  0
LINE
  8
0
 10
-221.752
 20
86.875
 11
-221.574
 21
86.5253
  0
LINE
  8
0
 10
-221.574
 20
86.5253
 11
-221.434
 21
86.1588
  0
LINE
  8
0
 10
-221.434
 20
86.1588
 11
-221.332
 21
85.7797
  0
LINE
  8
0
 10
-221.332
 20
85.7797
 11
-221.271
 21
85.392
  0
LINE
  8
0
 10
-221.271
 20
85.392
 11
-221.25
 21
85
  0
LINE
  8
0
 10
-221.25
 20
85
 11
-221.271
 21
84.608
  0
LINE
  8
0
 10
-221.271
 20
84.608
 11
-221.332
 21
84.2203
  0
LINE
  8
0
 10
-221.332
 20
84.2203
 11
-221.434
 21
83.8412
  0
LINE
  8
0
 10
-221.434
 20
83.8412
 11
-221.574
 21
83.4747
  0
LINE
  8
0
 10
-221.574
 20
83.4747
 11
-221.752
 21
83.125
  0
LINE
  8
0
 10
-221.752
 20
83.125
 11
-221.966
 21
82.7958
  0
LINE
  8
0
 10
-221.966
 20
82.7958
 11
-222.213
 21
82.4908
  0
LINE
  8
0
 10
-222.213
 20
82.4908
 11
-222.491
 21
82.2132
  0
LINE
  8
0
 10
-222.491
 20
82.2132
 11
-222.796
 21
81.9662
  0
LINE
  8
0
 10
-222.796
 20
81.9662
 11
-223.125
 21
81.7524
  0
LINE
  8
0
 10
-223.125
 20
81.7524
 11
-223.475
 21
81.5742
  0
LINE
  8
0
 10
-223.475
 20
81.5742
 11
-223.841
 21
81.4335
  0
LINE
  8
0
 10
-223.841
 20
81.4335
 11
-224.22
 21
81.3319
  0
LINE
  8
0
 10
-224.22
 20
81.3319
 11
-224.608
 21
81.2705
  0
LINE
  8
0
 10
-224.608
 20
81.2705
 11
-225
 21
81.25
  0
LINE
  8
0
 10
-225
 20
81.25
 11
-225.392
 21
81.2705
  0
LINE
  8
0
 10
224.608
 20
81.2705
 11
224.22
 21
81.3319
  0
LINE
  8
0
 10
224.22
 20
81.3319
 11
223.841
 21
81.4335
  0
LINE
  8
0
 10
223.841
 20
81.4335
 11
223.475
 21
81.5742
  0
LINE
  8
0
 10
223.475
 20
81.5742
 11
223.125
 21
81.7524
  0
LINE
  8
0
 10
223.125
 20
81.7524
 11
222.796
 21
81.9662
  0
LINE
  8
0
 10
222.796
 20
81.9662
 11
222.491
 21
82.2132
  0
LINE
  8
0
 10
222.491
 20
82.2132
 11
222.213
 21
82.4908
  0
LINE
  8
0
 10
222.213
 20
82.4908
 11
221.966
 21
82.7958
  0
LINE
  8
0
 10
221.966
 20
82.7958
 11
221.752
 21
83.125
  0
LINE
  8
0
 10
221.752
 20
83.125
 11
221.574
 21
83.4747
  0
LINE
  8
0
 10
221.574
 20
83.4747
 11
221.434
 21
83.8412
  0
LINE
  8
0
 10
221.434
 20
83.8412
 11
221.332
 21
84.2203
  0
LINE
  8
0
 10
221.332
 20
84.2203
 11
221.271
 21
84.608
  0
LINE
  8
0
 10
221.271
 20
84.608
 11
221.25
 21
85
  0
LINE
  8
0
 10
221.25
 20
85
 11
221.271
 21
85.392
  0
LINE
  8
0
 10
221.271
 20
85.392
 11
221.332
 21
85.7797
  0
LINE
  8
0
 10
221.332
 20
85.7797
 11
221.434
 21
86.1588
  0
LINE
  8
0
 10
221.434
 20
86.1588
 11
221.574
 21
86.5253
  0
LINE
  8
0
 10
221.574
 20
86.5253
 11
221.752
 21
86.875
  0
LINE
  8
0
 10
221.752
 20
86.875
 11
221.966
 21
87.2042
  0
LINE
  8
0
 10
221.966
 20
87.2042
 11
222.213
 21
87.5092
  0
LINE
  8
0
 10
222.213
 20
87.5092
 11
222.491
 21
87.7868
  0
LINE
  8
0
 10
222.491
 20
87.7868
 11
222.796
 21
88.0338
  0
LINE
  8
0
 10
222.796
 20
88.0338
 11
223.125
 21
88.2476
  0
LINE
  8
0
 10
223.125
 20
88.2476
 11
223.475
 21
88.4258
  0
LINE
  8
0
 10
223.475
 20
88.4258
 11
223.841
 21
88.5665
  0
LINE
  8
0
 10
223.841
 20
88.5665
 11
224.22
 21
88.668
  0
LINE
  8
0
 10
224.22
 20
88.668
 11
224.608
 21
88.7294
  0
LINE
  8
0
 10
224.608
 20
88.7294
 11
225
 21
88.75
  0
LINE
  8
0
 10
225
 20
88.75
 11
225.392
 21
88.7294
  0
LINE
  8
0
 10
225.392
 20
88.7294
 11
225.78
 21
88.668
  0
LINE
  8
0
 10
225.78
 20
88.668
 11
226.159
 21
88.5665
  0
LINE
  8
0
 10
226.159
 20
88.5665
 11
226.525
 21
88.4258
  0
LINE
  8
0
 10
226.525
 20
88.4258
 11
226.875
 21
88.2476
  0
LINE
  8
0
 10
226.875
 20
88.2476
 11
227.204
 21
88.0338
  0
LINE
  8
0
 10
227.204
 20
88.0338
 11
227.509
 21
87.7868
  0
LINE
  8
0
 10
227.509
 20
87.7868
 11
227.787
 21
87.5092
  0
LINE
  8
0
 10
227.787
 20
87.5092
 11
228.034
 21
87.2042
  0
LINE
  8
0
 10
228.034
 20
87.2042
 11
228.248
 21
86.875
  0
LINE
  8
0
 10
228.248
 20
86.875
 11
228.426
 21
86.5253
  0
LINE
  8
0
 10
228.426
 20
86.5253
 11
228.566
 21
86.1588
  0
LINE
  8
0
 10
228.566
 20
86.1588
 11
228.668
 21
85.7797
  0
LINE
  8
0
 10
228.668
 20
85.7797
 11
228.729
 21
85.392
  0
LINE
  8
0
 10
228.729
 20
85.392
 11
228.75
 21
85
  0
LINE
  8
0
 10
228.75
 20
85
 11
228.729
 21
84.608
  0
LINE
  8
0
 10
228.729
 20
84.608
 11
228.668
 21
84.2203
  0
LINE
  8
0
 10
228.668
 20
84.2203
 11
228.566
 21
83.8412
  0
LINE
  8
0
 10
228.566
 20
83.8412
 11
228.426
 21
83.4747
  0
LINE
  8
0
 10
228.426
 20
83.4747
 11
228.248
 21
83.125
  0
LINE
  8
0
 10
228.248
 20
83.125
 11
228.034
 21
82.7958
  0
LINE
  8
0
 10
228.034
 20
82.7958
 11
227.787
 21
82.4908
  0
LINE
  8
0
 10
227.787
 20
82.4908
 11
227.509
 21
82.2132
  0
LINE
  8
0
 10
227.509
 20
82.2132
 11
227.204
 21
81.9662
  0
LINE
  8
0
 10
227.204
 20
81.9662
 11
226.875
 21
81.7524
  0
LINE
  8
0
 10
226.875
 20
81.7524
 11
226.525
 21
81.5742
  0
LINE
  8
0
 10
226.525
 20
81.5742
 11
226.159
 21
81.4335
  0
LINE
  8
0
 10
226.159
 20
81.4335
 11
225.78
 21
81.3319
  0
LINE
  8
0
 10
225.78
 20
81.3319
 11
225.392
 21
81.2705
  0
LINE
  8
0
 10
225.392
 20
81.2705
 11
225
 21
81.25
  0
LINE
  8
0
 10
225
 20
81.25
 11
224.608
 21
81.2705
  0
LINE
  8
0
 10
-182.809
 20
83.3283
 11
-183.049
 21
83.3911
  0
LINE
  8
0
 10
-183.049
 20
83.3911
 11
-183.277
 21
83.4881
  0
LINE
  8
0
 10
-183.277
 20
83.4881
 11
-183.489
 21
83.6174
  0
LINE
  8
0
 10
-183.489
 20
83.6174
 11
-183.68
 21
83.7762
  0
LINE
  8
0
 10
-183.68
 20
83.7762
 11
-183.846
 21
83.961
  0
LINE
  8
0
 10
-183.846
 20
83.961
 11
-183.982
 21
84.168
  0
LINE
  8
0
 10
-183.982
 20
84.168
 11
-184.088
 21
84.3927
  0
LINE
  8
0
 10
-184.088
 20
84.3927
 11
-184.159
 21
84.6304
  0
LINE
  8
0
 10
-184.159
 20
84.6304
 11
-184.195
 21
84.8759
  0
LINE
  8
0
 10
-184.195
 20
84.8759
 11
-184.195
 21
85.1241
  0
LINE
  8
0
 10
-184.195
 20
85.1241
 11
-184.159
 21
85.3696
  0
LINE
  8
0
 10
-184.159
 20
85.3696
 11
-184.088
 21
85.6073
  0
LINE
  8
0
 10
-184.088
 20
85.6073
 11
-183.982
 21
85.832
  0
LINE
  8
0
 10
-183.982
 20
85.832
 11
-183.846
 21
86.039
  0
LINE
  8
0
 10
-183.846
 20
86.039
 11
-183.68
 21
86.2238
  0
LINE
  8
0
 10
-183.68
 20
86.2238
 11
-183.489
 21
86.3826
  0
LINE
  8
0
 10
-183.489
 20
86.3826
 11
-183.277
 21
86.5119
  0
LINE
  8
0
 10
-183.277
 20
86.5119
 11
-183.049
 21
86.6089
  0
LINE
  8
0
 10
-183.049
 20
86.6089
 11
-182.809
 21
86.6717
  0
LINE
  8
0
 10
-182.809
 20
86.6717
 11
-182.562
 21
86.6989
  0
LINE
  8
0
 10
-182.562
 20
86.6989
 11
-182.314
 21
86.6898
  0
LINE
  8
0
 10
-182.314
 20
86.6898
 11
-182.07
 21
86.6447
  0
LINE
  8
0
 10
-182.07
 20
86.6447
 11
-181.835
 21
86.5646
  0
LINE
  8
0
 10
-181.835
 20
86.5646
 11
-181.614
 21
86.4511
  0
LINE
  8
0
 10
-181.614
 20
86.4511
 11
-181.413
 21
86.3067
  0
LINE
  8
0
 10
-181.413
 20
86.3067
 11
-181.234
 21
86.1344
  0
LINE
  8
0
 10
-181.234
 20
86.1344
 11
-181.082
 21
85.938
  0
LINE
  8
0
 10
-181.082
 20
85.938
 11
-180.961
 21
85.7216
  0
LINE
  8
0
 10
-180.961
 20
85.7216
 11
-180.872
 21
85.4898
  0
LINE
  8
0
 10
-180.872
 20
85.4898
 11
-180.818
 21
85.2475
  0
LINE
  8
0
 10
-180.818
 20
85.2475
 11
-180.8
 21
85
  0
LINE
  8
0
 10
-180.8
 20
85
 11
-180.818
 21
84.7525
  0
LINE
  8
0
 10
-180.818
 20
84.7525
 11
-180.872
 21
84.5102
  0
LINE
  8
0
 10
-180.872
 20
84.5102
 11
-180.961
 21
84.2784
  0
LINE
  8
0
 10
-180.961
 20
84.2784
 11
-181.082
 21
84.062
  0
LINE
  8
0
 10
-181.082
 20
84.062
 11
-181.234
 21
83.8656
  0
LINE
  8
0
 10
-181.234
 20
83.8656
 11
-181.413
 21
83.6933
  0
LINE
  8
0
 10
-181.413
 20
83.6933
 11
-181.614
 21
83.5489
  0
LINE
  8
0
 10
-181.614
 20
83.5489
 11
-181.835
 21
83.4354
  0
LINE
  8
0
 10
-181.835
 20
83.4354
 11
-182.07
 21
83.3553
  0
LINE
  8
0
 10
-182.07
 20
83.3553
 11
-182.314
 21
83.3102
  0
LINE
  8
0
 10
-182.314
 20
83.3102
 11
-182.562
 21
83.3011
  0
LINE
  8
0
 10
-182.562
 20
83.3011
 11
-182.809
 21
83.3283
  0
LINE
  8
0
 10
-0.308777
 20
83.3283
 11
-0.548889
 21
83.3911
  0
LINE
  8
0
 10
-0.548889
 20
83.3911
 11
-0.777298
 21
83.4881
  0
LINE
  8
0
 10
-0.777298
 20
83.4881
 11
-0.989151
 21
83.6174
  0
LINE
  8
0
 10
-0.989151
 20
83.6174
 11
-1.17992
 21
83.7762
  0
LINE
  8
0
 10
-1.17992
 20
83.7762
 11
-1.34554
 21
83.961
  0
LINE
  8
0
 10
-1.34554
 20
83.961
 11
-1.48248
 21
84.168
  0
LINE
  8
0
 10
-1.48248
 20
84.168
 11
-1.58781
 21
84.3927
  0
LINE
  8
0
 10
-1.58781
 20
84.3927
 11
-1.65932
 21
84.6304
  0
LINE
  8
0
 10
-1.65932
 20
84.6304
 11
-1.69545
 21
84.8759
  0
LINE
  8
0
 10
-1.69545
 20
84.8759
 11
-1.69545
 21
85.1241
  0
LINE
  8
0
 10
-1.69545
 20
85.1241
 11
-1.65932
 21
85.3696
  0
LINE
  8
0
 10
-1.65932
 20
85.3696
 11
-1.58781
 21
85.6073
  0
LINE
  8
0
 10
-1.58781
 20
85.6073
 11
-1.48248
 21
85.832
  0
LINE
  8
0
 10
-1.48248
 20
85.832
 11
-1.34554
 21
86.039
  0
LINE
  8
0
 10
-1.34554
 20
86.039
 11
-1.17992
 21
86.2238
  0
LINE
  8
0
 10
-1.17992
 20
86.2238
 11
-0.989151
 21
86.3826
  0
LINE
  8
0
 10
-0.989151
 20
86.3826
 11
-0.777298
 21
86.5119
  0
LINE
  8
0
 10
-0.777298
 20
86.5119
 11
-0.548889
 21
86.6089
  0
LINE
  8
0
 10
-0.548889
 20
86.6089
 11
-0.308777
 21
86.6717
  0
LINE
  8
0
 10
-0.308777
 20
86.6717
 11
-0.0620728
 21
86.6989
  0
LINE
  8
0
 10
-0.0620728
 20
86.6989
 11
0.185928
 21
86.6898
  0
LINE
  8
0
 10
0.185928
 20
86.6898
 11
0.429977
 21
86.6447
  0
LINE
  8
0
 10
0.429977
 20
86.6447
 11
0.664871
 21
86.5646
  0
LINE
  8
0
 10
0.664871
 20
86.5646
 11
0.88559
 21
86.4511
  0
LINE
  8
0
 10
0.88559
 20
86.4511
 11
1.08743
 21
86.3067
  0
LINE
  8
0
 10
1.08743
 20
86.3067
 11
1.2661
 21
86.1344
  0
LINE
  8
0
 10
1.2661
 20
86.1344
 11
1.41779
 21
85.938
  0
LINE
  8
0
 10
1.41779
 20
85.938
 11
1.53926
 21
85.7216
  0
LINE
  8
0
 10
1.53926
 20
85.7216
 11
1.62791
 21
85.4898
  0
LINE
  8
0
 10
1.62791
 20
85.4898
 11
1.68187
 21
85.2475
  0
LINE
  8
0
 10
1.68187
 20
85.2475
 11
1.7
 21
85
  0
LINE
  8
0
 10
1.7
 20
85
 11
1.68187
 21
84.7525
  0
LINE
  8
0
 10
1.68187
 20
84.7525
 11
1.62791
 21
84.5102
  0
LINE
  8
0
 10
1.62791
 20
84.5102
 11
1.53926
 21
84.2784
  0
LINE
  8
0
 10
1.53926
 20
84.2784
 11
1.41779
 21
84.062
  0
LINE
  8
0
 10
1.41779
 20
84.062
 11
1.2661
 21
83.8656
  0
LINE
  8
0
 10
1.2661
 20
83.8656
 11
1.08743
 21
83.6933
  0
LINE
  8
0
 10
1.08743
 20
83.6933
 11
0.88559
 21
83.5489
  0
LINE
  8
0
 10
0.88559
 20
83.5489
 11
0.664871
 21
83.4354
  0
LINE
  8
0
 10
0.664871
 20
83.4354
 11
0.429977
 21
83.3553
  0
LINE
  8
0
 10
0.429977
 20
83.3553
 11
0.185928
 21
83.3102
  0
LINE
  8
0
 10
0.185928
 20
83.3102
 11
-0.0620728
 21
83.3011
  0
LINE
  8
0
 10
-0.0620728
 20
83.3011
 11
-0.308777
 21
83.3283
  0
LINE
  8
0
 10
182.191
 20
83.3283
 11
181.951
 21
83.3911
  0
LINE
  8
0
 10
181.951
 20
83.3911
 11
181.723
 21
83.4881
  0
LINE
  8
0
 10
181.723
 20
83.4881
 11
181.511
 21
83.6174
  0
LINE
  8
0
 10
181.511
 20
83.6174
 11
181.32
 21
83.7762
  0
LINE
  8
0
 10
181.32
 20
83.7762
 11
181.154
 21
83.961
  0
LINE
  8
0
 10
181.154
 20
83.961
 11
181.018
 21
84.168
  0
LINE
  8
0
 10
181.018
 20
84.168
 11
180.912
 21
84.3927
  0
LINE
  8
0
 10
180.912
 20
84.3927
 11
180.841
 21
84.6304
  0
LINE
  8
0
 10
180.841
 20
84.6304
 11
180.805
 21
84.8759
  0
LINE
  8
0
 10
180.805
 20
84.8759
 11
180.805
 21
85.1241
  0
LINE
  8
0
 10
180.805
 20
85.1241
 11
180.841
 21
85.3696
  0
LINE
  8
0
 10
180.841
 20
85.3696
 11
180.912
 21
85.6073
  0
LINE
  8
0
 10
180.912
 20
85.6073
 11
181.018
 21
85.832
  0
LINE
  8
0
 10
181.018
 20
85.832
 11
181.154
 21
86.039
  0
LINE
  8
0
 10
181.154
 20
86.039
 11
181.32
 21
86.2238
  0
LINE
  8
0
 10
181.32
 20
86.2238
 11
181.511
 21
86.3826
  0
LINE
  8
0
 10
181.511
 20
86.3826
 11
181.723
 21
86.5119
  0
LINE
  8
0
 10
181.723
 20
86.5119
 11
181.951
 21
86.6089
  0
LINE
  8
0
 10
181.951
 20
86.6089
 11
182.191
 21
86.6717
  0
LINE
  8
0
 10
182.191
 20
86.6717
 11
182.438
 21
86.6989
  0
LINE
  8
0
 10
182.438
 20
86.6989
 11
182.686
 21
86.6898
  0
LINE
  8
0
 10
182.686
 20
86.6898
 11
182.93
 21
86.6447
  0
LINE
  8
0
 10
182.93
 20
86.6447
 11
183.165
 21
86.5646
  0
LINE
  8
0
 10
183.165
 20
86.5646
 11
183.386
 21
86.4511
  0
LINE
  8
0
 10
183.386
 20
86.4511
 11
183.587
 21
86.3067
  0
LINE
  8
0
 10
183.587
 20
86.3067
 11
183.766
 21
86.1344
  0
LINE
  8
0
 10
183.766
 20
86.1344
 11
183.918
 21
85.938
  0
LINE
  8
0
 10
183.918
 20
85.938
 11
184.039
 21
85.7216
  0
LINE
  8
0
 10
184.039
 20
85.7216
 11
184.128
 21
85.4898
  0
LINE
  8
0
 10
184.128
 20
85.4898
 11
184.182
 21
85.2475
  0
LINE
  8
0
 10
184.182
 20
85.2475
 11
184.2
 21
85
  0
LINE
  8
0
 10
184.2
 20
85
 11
184.182
 21
84.7525
  0
LINE
  8
0
 10
184.182
 20
84.7525
 11
184.128
 21
84.5102
  0
LINE
  8
0
 10
184.128
 20
84.5102
 11
184.039
 21
84.2784
  0
LINE
  8
0
 10
184.039
 20
84.2784
 11
183.918
 21
84.062
  0
LINE
  8
0
 10
183.918
 20
84.062
 11
183.766
 21
83.8656
  0
LINE
  8
0
 10
183.766
 20
83.8656
 11
183.587
 21
83.6933
  0
LINE
  8
0
 10
183.587
 20
83.6933
 11
183.386
 21
83.5489
  0
LINE
  8
0
 10
183.386
 20
83.5489
 11
183.165
 21
83.4354
  0
LINE
  8
0
 10
183.165
 20
83.4354
 11
182.93
 21
83.3553
  0
LINE
  8
0
 10
182.93
 20
83.3553
 11
182.686
 21
83.3102
  0
LINE
  8
0
 10
182.686
 20
83.3102
 11
182.438
 21
83.3011
  0
LINE
  8
0
 10
182.438
 20
83.3011
 11
182.191
 21
83.3283
  0
LINE
  8
0
 10
-91.5588
 20
83.3283
 11
-91.7989
 21
83.3911
  0
LINE
  8
0
 10
-91.7989
 20
83.3911
 11
-92.0273
 21
83.4881
  0
LINE
  8
0
 10
-92.0273
 20
83.4881
 11
-92.2392
 21
83.6174
  0
LINE
  8
0
 10
-92.2392
 20
83.6174
 11
-92.4299
 21
83.7762
  0
LINE
  8
0
 10
-92.4299
 20
83.7762
 11
-92.5955
 21
83.961
  0
LINE
  8
0
 10
-92.5955
 20
83.961
 11
-92.7325
 21
84.168
  0
LINE
  8
0
 10
-92.7325
 20
84.168
 11
-92.8378
 21
84.3927
  0
LINE
  8
0
 10
-92.8378
 20
84.3927
 11
-92.9093
 21
84.6304
  0
LINE
  8
0
 10
-92.9093
 20
84.6304
 11
-92.9455
 21
84.8759
  0
LINE
  8
0
 10
-92.9455
 20
84.8759
 11
-92.9455
 21
85.1241
  0
LINE
  8
0
 10
-92.9455
 20
85.1241
 11
-92.9093
 21
85.3696
  0
LINE
  8
0
 10
-92.9093
 20
85.3696
 11
-92.8378
 21
85.6073
  0
LINE
  8
0
 10
-92.8378
 20
85.6073
 11
-92.7325
 21
85.832
  0
LINE
  8
0
 10
-92.7325
 20
85.832
 11
-92.5955
 21
86.039
  0
LINE
  8
0
 10
-92.5955
 20
86.039
 11
-92.4299
 21
86.2238
  0
LINE
  8
0
 10
-92.4299
 20
86.2238
 11
-92.2392
 21
86.3826
  0
LINE
  8
0
 10
-92.2392
 20
86.3826
 11
-92.0273
 21
86.5119
  0
LINE
  8
0
 10
-92.0273
 20
86.5119
 11
-91.7989
 21
86.6089
  0
LINE
  8
0
 10
-91.7989
 20
86.6089
 11
-91.5588
 21
86.6717
  0
LINE
  8
0
 10
-91.5588
 20
86.6717
 11
-91.3121
 21
86.6989
  0
LINE
  8
0
 10
-91.3121
 20
86.6989
 11
-91.0641
 21
86.6898
  0
LINE
  8
0
 10
-91.0641
 20
86.6898
 11
-90.82
 21
86.6447
  0
LINE
  8
0
 10
-90.82
 20
86.6447
 11
-90.5851
 21
86.5646
  0
LINE
  8
0
 10
-90.5851
 20
86.5646
 11
-90.3644
 21
86.4511
  0
LINE
  8
0
 10
-90.3644
 20
86.4511
 11
-90.1626
 21
86.3067
  0
LINE
  8
0
 10
-90.1626
 20
86.3067
 11
-89.9839
 21
86.1344
  0
LINE
  8
0
 10
-89.9839
 20
86.1344
 11
-89.8322
 21
85.938
  0
LINE
  8
0
 10
-89.8322
 20
85.938
 11
-89.7107
 21
85.7216
  0
LINE
  8
0
 10
-89.7107
 20
85.7216
 11
-89.6221
 21
85.4898
  0
LINE
  8
0
 10
-89.6221
 20
85.4898
 11
-89.5681
 21
85.2475
  0
LINE
  8
0
 10
-89.5681
 20
85.2475
 11
-89.55
 21
85
  0
LINE
  8
0
 10
-89.55
 20
85
 11
-89.5681
 21
84.7525
  0
LINE
  8
0
 10
-89.5681
 20
84.7525
 11
-89.6221
 21
84.5102
  0
LINE
  8
0
 10
-89.6221
 20
84.5102
 11
-89.7107
 21
84.2784
  0
LINE
  8
0
 10
-89.7107
 20
84.2784
 11
-89.8322
 21
84.062
  0
LINE
  8
0
 10
-89.8322
 20
84.062
 11
-89.9839
 21
83.8656
  0
LINE
  8
0
 10
-89.9839
 20
83.8656
 11
-90.1626
 21
83.6933
  0
LINE
  8
0
 10
-90.1626
 20
83.6933
 11
-90.3644
 21
83.5489
  0
LINE
  8
0
 10
-90.3644
 20
83.5489
 11
-90.5851
 21
83.4354
  0
LINE
  8
0
 10
-90.5851
 20
83.4354
 11
-90.82
 21
83.3553
  0
LINE
  8
0
 10
-90.82
 20
83.3553
 11
-91.0641
 21
83.3102
  0
LINE
  8
0
 10
-91.0641
 20
83.3102
 11
-91.3121
 21
83.3011
  0
LINE
  8
0
 10
-91.3121
 20
83.3011
 11
-91.5588
 21
83.3283
  0
LINE
  8
0
 10
90.9412
 20
83.3283
 11
90.7011
 21
83.3911
  0
LINE
  8
0
 10
90.7011
 20
83.3911
 11
90.4727
 21
83.4881
  0
LINE
  8
0
 10
90.4727
 20
83.4881
 11
90.2608
 21
83.6174
  0
LINE
  8
0
 10
90.2608
 20
83.6174
 11
90.0701
 21
83.7762
  0
LINE
  8
0
 10
90.0701
 20
83.7762
 11
89.9044
 21
83.961
  0
LINE
  8
0
 10
89.9044
 20
83.961
 11
89.7675
 21
84.168
  0
LINE
  8
0
 10
89.7675
 20
84.168
 11
89.6622
 21
84.3927
  0
LINE
  8
0
 10
89.6622
 20
84.3927
 11
89.5907
 21
84.6304
  0
LINE
  8
0
 10
89.5907
 20
84.6304
 11
89.5545
 21
84.8759
  0
LINE
  8
0
 10
89.5545
 20
84.8759
 11
89.5545
 21
85.1241
  0
LINE
  8
0
 10
89.5545
 20
85.1241
 11
89.5907
 21
85.3696
  0
LINE
  8
0
 10
89.5907
 20
85.3696
 11
89.6622
 21
85.6073
  0
LINE
  8
0
 10
89.6622
 20
85.6073
 11
89.7675
 21
85.832
  0
LINE
  8
0
 10
89.7675
 20
85.832
 11
89.9044
 21
86.039
  0
LINE
  8
0
 10
89.9044
 20
86.039
 11
90.0701
 21
86.2238
  0
LINE
  8
0
 10
90.0701
 20
86.2238
 11
90.2608
 21
86.3826
  0
LINE
  8
0
 10
90.2608
 20
86.3826
 11
90.4727
 21
86.5119
  0
LINE
  8
0
 10
90.4727
 20
86.5119
 11
90.7011
 21
86.6089
  0
LINE
  8
0
 10
90.7011
 20
86.6089
 11
90.9412
 21
86.6717
  0
LINE
  8
0
 10
90.9412
 20
86.6717
 11
91.1879
 21
86.6989
  0
LINE
  8
0
 10
91.1879
 20
86.6989
 11
91.4359
 21
86.6898
  0
LINE
  8
0
 10
91.4359
 20
86.6898
 11
91.68
 21
86.6447
  0
LINE
  8
0
 10
91.68
 20
86.6447
 11
91.9149
 21
86.5646
  0
LINE
  8
0
 10
91.9149
 20
86.5646
 11
92.1356
 21
86.4511
  0
LINE
  8
0
 10
92.1356
 20
86.4511
 11
92.3374
 21
86.3067
  0
LINE
  8
0
 10
92.3374
 20
86.3067
 11
92.5161
 21
86.1344
  0
LINE
  8
0
 10
92.5161
 20
86.1344
 11
92.6678
 21
85.938
  0
LINE
  8
0
 10
92.6678
 20
85.938
 11
92.7893
 21
85.7216
  0
LINE
  8
0
 10
92.7893
 20
85.7216
 11
92.8779
 21
85.4898
  0
LINE
  8
0
 10
92.8779
 20
85.4898
 11
92.9319
 21
85.2475
  0
LINE
  8
0
 10
92.9319
 20
85.2475
 11
92.95
 21
85
  0
LINE
  8
0
 10
92.95
 20
85
 11
92.9319
 21
84.7525
  0
LINE
  8
0
 10
92.9319
 20
84.7525
 11
92.8779
 21
84.5102
  0
LINE
  8
0
 10
92.8779
 20
84.5102
 11
92.7893
 21
84.2784
  0
LINE
  8
0
 10
92.7893
 20
84.2784
 11
92.6678
 21
84.062
  0
LINE
  8
0
 10
92.6678
 20
84.062
 11
92.5161
 21
83.8656
  0
LINE
  8
0
 10
92.5161
 20
83.8656
 11
92.3374
 21
83.6933
  0
LINE
  8
0
 10
92.3374
 20
83.6933
 11
92.1356
 21
83.5489
  0
LINE
  8
0
 10
92.1356
 20
83.5489
 11
91.9149
 21
83.4354
  0
LINE
  8
0
 10
91.9149
 20
83.4354
 11
91.68
 21
83.3553
  0
LINE
  8
0
 10
91.68
 20
83.3553
 11
91.4359
 21
83.3102
  0
LINE
  8
0
 10
91.4359
 20
83.3102
 11
91.1879
 21
83.3011
  0
LINE
  8
0
 10
91.1879
 20
83.3011
 11
90.9412
 21
83.3283
  0
LINE
  8
0
 10
-225.186
 20
40.8102
 11
-225.43
 21
40.8553
  0
LINE
  8
0
 10
-225.43
 20
40.8553
 11
-225.665
 21
40.9354
  0
LINE
  8
0
 10
-225.665
 20
40.9354
 11
-225.886
 21
41.0489
  0
LINE
  8
0
 10
-225.886
 20
41.0489
 11
-226.087
 21
41.1933
  0
LINE
  8
0
 10
-226.087
 20
41.1933
 11
-226.266
 21
41.3656
  0
LINE
  8
0
 10
-226.266
 20
41.3656
 11
-226.418
 21
41.562
  0
LINE
  8
0
 10
-226.418
 20
41.562
 11
-226.539
 21
41.7784
  0
LINE
  8
0
 10
-226.539
 20
41.7784
 11
-226.628
 21
42.0102
  0
LINE
  8
0
 10
-226.628
 20
42.0102
 11
-226.682
 21
42.2525
  0
LINE
  8
0
 10
-226.682
 20
42.2525
 11
-226.7
 21
42.5
  0
LINE
  8
0
 10
-226.7
 20
42.5
 11
-226.682
 21
42.7475
  0
LINE
  8
0
 10
-226.682
 20
42.7475
 11
-226.628
 21
42.9898
  0
LINE
  8
0
 10
-226.628
 20
42.9898
 11
-226.539
 21
43.2216
  0
LINE
  8
0
 10
-226.539
 20
43.2216
 11
-226.418
 21
43.438
  0
LINE
  8
0
 10
-226.418
 20
43.438
 11
-226.266
 21
43.6344
  0
LINE
  8
0
 10
-226.266
 20
43.6344
 11
-226.087
 21
43.8067
  0
LINE
  8
0
 10
-226.087
 20
43.8067
 11
-225.886
 21
43.9511
  0
LINE
  8
0
 10
-225.886
 20
43.9511
 11
-225.665
 21
44.0646
  0
LINE
  8
0
 10
-225.665
 20
44.0646
 11
-225.43
 21
44.1447
  0
LINE
  8
0
 10
-225.43
 20
44.1447
 11
-225.186
 21
44.1898
  0
LINE
  8
0
 10
-225.186
 20
44.1898
 11
-224.938
 21
44.1989
  0
LINE
  8
0
 10
-224.938
 20
44.1989
 11
-224.691
 21
44.1717
  0
LINE
  8
0
 10
-224.691
 20
44.1717
 11
-224.451
 21
44.1089
  0
LINE
  8
0
 10
-224.451
 20
44.1089
 11
-224.223
 21
44.0119
  0
LINE
  8
0
 10
-224.223
 20
44.0119
 11
-224.011
 21
43.8826
  0
LINE
  8
0
 10
-224.011
 20
43.8826
 11
-223.82
 21
43.7238
  0
LINE
  8
0
 10
-223.82
 20
43.7238
 11
-223.654
 21
43.539
  0
LINE
  8
0
 10
-223.654
 20
43.539
 11
-223.518
 21
43.332
  0
LINE
  8
0
 10
-223.518
 20
43.332
 11
-223.412
 21
43.1073
  0
LINE
  8
0
 10
-223.412
 20
43.1073
 11
-223.341
 21
42.8696
  0
LINE
  8
0
 10
-223.341
 20
42.8696
 11
-223.305
 21
42.6241
  0
LINE
  8
0
 10
-223.305
 20
42.6241
 11
-223.305
 21
42.3759
  0
LINE
  8
0
 10
-223.305
 20
42.3759
 11
-223.341
 21
42.1304
  0
LINE
  8
0
 10
-223.341
 20
42.1304
 11
-223.412
 21
41.8927
  0
LINE
  8
0
 10
-223.412
 20
41.8927
 11
-223.518
 21
41.668
  0
LINE
  8
0
 10
-223.518
 20
41.668
 11
-223.654
 21
41.461
  0
LINE
  8
0
 10
-223.654
 20
41.461
 11
-223.82
 21
41.2762
  0
LINE
  8
0
 10
-223.82
 20
41.2762
 11
-224.011
 21
41.1174
  0
LINE
  8
0
 10
-224.011
 20
41.1174
 11
-224.223
 21
40.9881
  0
LINE
  8
0
 10
-224.223
 20
40.9881
 11
-224.451
 21
40.8911
  0
LINE
  8
0
 10
-224.451
 20
40.8911
 11
-224.691
 21
40.8283
  0
LINE
  8
0
 10
-224.691
 20
40.8283
 11
-224.938
 21
40.8011
  0
LINE
  8
0
 10
-224.938
 20
40.8011
 11
-225.186
 21
40.8102
  0
LINE
  8
0
 10
224.691
 20
40.8283
 11
224.451
 21
40.8911
  0
LINE
  8
0
 10
224.451
 20
40.8911
 11
224.223
 21
40.9881
  0
LINE
  8
0
 10
224.223
 20
40.9881
 11
224.011
 21
41.1174
  0
LINE
  8
0
 10
224.011
 20
41.1174
 11
223.82
 21
41.2762
  0
LINE
  8
0
 10
223.82
 20
41.2762
 11
223.654
 21
41.461
  0
LINE
  8
0
 10
223.654
 20
41.461
 11
223.518
 21
41.668
  0
LINE
  8
0
 10
223.518
 20
41.668
 11
223.412
 21
41.8927
  0
LINE
  8
0
 10
223.412
 20
41.8927
 11
223.341
 21
42.1304
  0
LINE
  8
0
 10
223.341
 20
42.1304
 11
223.305
 21
42.3759
  0
LINE
  8
0
 10
223.305
 20
42.3759
 11
223.305
 21
42.6241
  0
LINE
  8
0
 10
223.305
 20
42.6241
 11
223.341
 21
42.8696
  0
LINE
  8
0
 10
223.341
 20
42.8696
 11
223.412
 21
43.1073
  0
LINE
  8
0
 10
223.412
 20
43.1073
 11
223.518
 21
43.332
  0
LINE
  8
0
 10
223.518
 20
43.332
 11
223.654
 21
43.539
  0
LINE
  8
0
 10
223.654
 20
43.539
 11
223.82
 21
43.7238
  0
LINE
  8
0
 10
223.82
 20
43.7238
 11
224.011
 21
43.8826
  0
LINE
  8
0
 10
224.011
 20
43.8826
 11
224.223
 21
44.0119
  0
LINE
  8
0
 10
224.223
 20
44.0119
 11
224.451
 21
44.1089
  0
LINE
  8
0
 10
224.451
 20
44.1089
 11
224.691
 21
44.1717
  0
LINE
  8
0
 10
224.691
 20
44.1717
 11
224.938
 21
44.1989
  0
LINE
  8
0
 10
224.938
 20
44.1989
 11
225.186
 21
44.1898
  0
LINE
  8
0
 10
225.186
 20
44.1898
 11
225.43
 21
44.1447
  0
LINE
  8
0
 10
225.43
 20
44.1447
 11
225.665
 21
44.0646
  0
LINE
  8
0
 10
225.665
 20
44.0646
 11
225.886
 21
43.9511
  0
LINE
  8
0
 10
225.886
 20
43.9511
 11
226.087
 21
43.8067
  0
LINE
  8
0
 10
226.087
 20
43.8067
 11
226.266
 21
43.6344
  0
LINE
  8
0
 10
226.266
 20
43.6344
 11
226.418
 21
43.438
  0
LINE
  8
0
 10
226.418
 20
43.438
 11
226.539
 21
43.2216
  0
LINE
  8
0
 10
226.539
 20
43.2216
 11
226.628
 21
42.9898
  0
LINE
  8
0
 10
226.628
 20
42.9898
 11
226.682
 21
42.7475
  0
LINE
  8
0
 10
226.682
 20
42.7475
 11
226.7
 21
42.5
  0
LINE
  8
0
 10
226.7
 20
42.5
 11
226.682
 21
42.2525
  0
LINE
  8
0
 10
226.682
 20
42.2525
 11
226.628
 21
42.0102
  0
LINE
  8
0
 10
226.628
 20
42.0102
 11
226.539
 21
41.7784
  0
LINE
  8
0
 10
226.539
 20
41.7784
 11
226.418
 21
41.562
  0
LINE
  8
0
 10
226.418
 20
41.562
 11
226.266
 21
41.3656
  0
LINE
  8
0
 10
226.266
 20
41.3656
 11
226.087
 21
41.1933
  0
LINE
  8
0
 10
226.087
 20
41.1933
 11
225.886
 21
41.0489
  0
LINE
  8
0
 10
225.886
 20
41.0489
 11
225.665
 21
40.9354
  0
LINE
  8
0
 10
225.665
 20
40.9354
 11
225.43
 21
40.8553
  0
LINE
  8
0
 10
225.43
 20
40.8553
 11
225.186
 21
40.8102
  0
LINE
  8
0
 10
225.186
 20
40.8102
 11
224.938
 21
40.8011
  0
LINE
  8
0
 10
224.938
 20
40.8011
 11
224.691
 21
40.8283
  0
LINE
  8
0
 10
224.691
 20
-59.1717
 11
224.451
 21
-59.1089
  0
LINE
  8
0
 10
224.451
 20
-59.1089
 11
224.223
 21
-59.0119
  0
LINE
  8
0
 10
224.223
 20
-59.0119
 11
224.011
 21
-58.8826
  0
LINE
  8
0
 10
224.011
 20
-58.8826
 11
223.82
 21
-58.7238
  0
LINE
  8
0
 10
223.82
 20
-58.7238
 11
223.654
 21
-58.539
  0
LINE
  8
0
 10
223.654
 20
-58.539
 11
223.518
 21
-58.332
  0
LINE
  8
0
 10
223.518
 20
-58.332
 11
223.412
 21
-58.1073
  0
LINE
  8
0
 10
223.412
 20
-58.1073
 11
223.341
 21
-57.8696
  0
LINE
  8
0
 10
223.341
 20
-57.8696
 11
223.305
 21
-57.6241
  0
LINE
  8
0
 10
223.305
 20
-57.6241
 11
223.305
 21
-57.3759
  0
LINE
  8
0
 10
223.305
 20
-57.3759
 11
223.341
 21
-57.1304
  0
LINE
  8
0
 10
223.341
 20
-57.1304
 11
223.412
 21
-56.8927
  0
LINE
  8
0
 10
223.412
 20
-56.8927
 11
223.518
 21
-56.668
  0
LINE
  8
0
 10
223.518
 20
-56.668
 11
223.654
 21
-56.461
  0
LINE
  8
0
 10
223.654
 20
-56.461
 11
223.82
 21
-56.2762
  0
LINE
  8
0
 10
223.82
 20
-56.2762
 11
224.011
 21
-56.1174
  0
LINE
  8
0
 10
224.011
 20
-56.1174
 11
224.223
 21
-55.9881
  0
LINE
  8
0
 10
224.223
 20
-55.9881
 11
224.451
 21
-55.8911
  0
LINE
  8
0
 10
224.451
 20
-55.8911
 11
224.691
 21
-55.8283
  0
LINE
  8
0
 10
224.691
 20
-55.8283
 11
224.938
 21
-55.8011
  0
LINE
  8
0
 10
224.938
 20
-55.8011
 11
225.186
 21
-55.8102
  0
LINE
  8
0
 10
225.186
 20
-55.8102
 11
225.43
 21
-55.8553
  0
LINE
  8
0
 10
225.43
 20
-55.8553
 11
225.665
 21
-55.9354
  0
LINE
  8
0
 10
225.665
 20
-55.9354
 11
225.886
 21
-56.0489
  0
LINE
  8
0
 10
225.886
 20
-56.0489
 11
226.087
 21
-56.1933
  0
LINE
  8
0
 10
226.087
 20
-56.1933
 11
226.266
 21
-56.3656
  0
LINE
  8
0
 10
226.266
 20
-56.3656
 11
226.418
 21
-56.562
  0
LINE
  8
0
 10
226.418
 20
-56.562
 11
226.539
 21
-56.7784
  0
LINE
  8
0
 10
226.539
 20
-56.7784
 11
226.628
 21
-57.0102
  0
LINE
  8
0
 10
226.628
 20
-57.0102
 11
226.682
 21
-57.2525
  0
LINE
  8
0
 10
226.682
 20
-57.2525
 11
226.7
 21
-57.5
  0
LINE
  8
0
 10
226.7
 20
-57.5
 11
226.682
 21
-57.7475
  0
LINE
  8
0
 10
226.682
 20
-57.7475
 11
226.628
 21
-57.9898
  0
LINE
  8
0
 10
226.628
 20
-57.9898
 11
226.539
 21
-58.2216
  0
LINE
  8
0
 10
226.539
 20
-58.2216
 11
226.418
 21
-58.438
  0
LINE
  8
0
 10
226.418
 20
-58.438
 11
226.266
 21
-58.6344
  0
LINE
  8
0
 10
226.266
 20
-58.6344
 11
226.087
 21
-58.8067
  0
LINE
  8
0
 10
226.087
 20
-58.8067
 11
225.886
 21
-58.9511
  0
LINE
  8
0
 10
225.886
 20
-58.9511
 11
225.665
 21
-59.0646
  0
LINE
  8
0
 10
225.665
 20
-59.0646
 11
225.43
 21
-59.1447
  0
LINE
  8
0
 10
225.43
 20
-59.1447
 11
225.186
 21
-59.1898
  0
LINE
  8
0
 10
225.186
 20
-59.1898
 11
224.938
 21
-59.1989
  0
LINE
  8
0
 10
224.938
 20
-59.1989
 11
224.691
 21
-59.1717
  0
LINE
  8
0
 10
-225.186
 20
-59.1898
 11
-225.43
 21
-59.1447
  0
LINE
  8
0
 10
-225.43
 20
-59.1447
 11
-225.665
 21
-59.0646
  0
LINE
  8
0
 10
-225.665
 20
-59.0646
 11
-225.886
 21
-58.9511
  0
LINE
  8
0
 10
-225.886
 20
-58.9511
 11
-226.087
 21
-58.8067
  0
LINE
  8
0
 10
-226.087
 20
-58.8067
 11
-226.266
 21
-58.6344
  0
LINE
  8
0
 10
-226.266
 20
-58.6344
 11
-226.418
 21
-58.438
  0
LINE
  8
0
 10
-226.418
 20
-58.438
 11
-226.539
 21
-58.2216
  0
LINE
  8
0
 10
-226.539
 20
-58.2216
 11
-226.628
 21
-57.9898
  0
LINE
  8
0
 10
-226.628
 20
-57.9898
 11
-226.682
 21
-57.7475
  0
LINE
  8
0
 10
-226.682
 20
-57.7475
 11
-226.7
 21
-57.5
  0
LINE
  8
0
 10
-226.7
 20
-57.5
 11
-226.682
 21
-57.2525
  0
LINE
  8
0
 10
-226.682
 20
-57.2525
 11
-226.628
 21
-57.0102
  0
LINE
  8
0
 10
-226.628
 20
-57.0102
 11
-226.539
 21
-56.7784
  0
LINE
  8
0
 10
-226.539
 20
-56.7784
 11
-226.418
 21
-56.562
  0
LINE
  8
0
 10
-226.418
 20
-56.562
 11
-226.266
 21
-56.3656
  0
LINE
  8
0
 10
-226.266
 20
-56.3656
 11
-226.087
 21
-56.1933
  0
LINE
  8
0
 10
-226.087
 20
-56.1933
 11
-225.886
 21
-56.0489
  0
LINE
  8
0
 10
-225.886
 20
-56.0489
 11
-225.665
 21
-55.9354
  0
LINE
  8
0
 10
-225.665
 20
-55.9354
 11
-225.43
 21
-55.8553
  0
LINE
  8
0
 10
-225.43
 20
-55.8553
 11
-225.186
 21
-55.8102
  0
LINE
  8
0
 10
-225.186
 20
-55.8102
 11
-224.938
 21
-55.8011
  0
LINE
  8
0
 10
-224.938
 20
-55.8011
 11
-224.691
 21
-55.8283
  0
LINE
  8
0
 10
-224.691
 20
-55.8283
 11
-224.451
 21
-55.8911
  0
LINE
  8
0
 10
-224.451
 20
-55.8911
 11
-224.223
 21
-55.9881
  0
LINE
  8
0
 10
-224.223
 20
-55.9881
 11
-224.011
 21
-56.1174
  0
LINE
  8
0
 10
-224.011
 20
-56.1174
 11
-223.82
 21
-56.2762
  0
LINE
  8
0
 10
-223.82
 20
-56.2762
 11
-223.654
 21
-56.461
  0
LINE
  8
0
 10
-223.654
 20
-56.461
 11
-223.518
 21
-56.668
  0
LINE
  8
0
 10
-223.518
 20
-56.668
 11
-223.412
 21
-56.8927
  0
LINE
  8
0
 10
-223.412
 20
-56.8927
 11
-223.341
 21
-57.1304
  0
LINE
  8
0
 10
-223.341
 20
-57.1304
 11
-223.305
 21
-57.3759
  0
LINE
  8
0
 10
-223.305
 20
-57.3759
 11
-223.305
 21
-57.6241
  0
LINE
  8
0
 10
-223.305
 20
-57.6241
 11
-223.341
 21
-57.8696
  0
LINE
  8
0
 10
-223.341
 20
-57.8696
 11
-223.412
 21
-58.1073
  0
LINE
  8
0
 10
-223.412
 20
-58.1073
 11
-223.518
 21
-58.332
  0
LINE
  8
0
 10
-223.518
 20
-58.332
 11
-223.654
 21
-58.539
  0
LINE
  8
0
 10
-223.654
 20
-58.539
 11
-223.82
 21
-58.7238
  0
LINE
  8
0
 10
-223.82
 20
-58.7238
 11
-224.011
 21
-58.8826
  0
LINE
  8
0
 10
-224.011
 20
-58.8826
 11
-224.223
 21
-59.0119
  0
LINE
  8
0
 10
-224.223
 20
-59.0119
 11
-224.451
 21
-59.1089
  0
LINE
  8
0
 10
-224.451
 20
-59.1089
 11
-224.691
 21
-59.1717
  0
LINE
  8
0
 10
-224.691
 20
-59.1717
 11
-224.938
 21
-59.1989
  0
LINE
  8
0
 10
-224.938
 20
-59.1989
 11
-225.186
 21
-59.1898
  0
LINE
  8
0
 10
-225.392
 20
-103.729
 11
-225.78
 21
-103.668
  0
LINE
  8
0
 10
-225.78
 20
-103.668
 11
-226.159
 21
-103.566
  0
LINE
  8
0
 10
-226.159
 20
-103.566
 11
-226.525
 21
-103.426
  0
LINE
  8
0
 10
-226.525
 20
-103.426
 11
-226.875
 21
-103.248
  0
LINE
  8
0
 10
-226.875
 20
-103.248
 11
-227.204
 21
-103.034
  0
LINE
  8
0
 10
-227.204
 20
-103.034
 11
-227.509
 21
-102.787
  0
LINE
  8
0
 10
-227.509
 20
-102.787
 11
-227.787
 21
-102.509
  0
LINE
  8
0
 10
-227.787
 20
-102.509
 11
-228.034
 21
-102.204
  0
LINE
  8
0
 10
-228.034
 20
-102.204
 11
-228.248
 21
-101.875
  0
LINE
  8
0
 10
-228.248
 20
-101.875
 11
-228.426
 21
-101.525
  0
LINE
  8
0
 10
-228.426
 20
-101.525
 11
-228.566
 21
-101.159
  0
LINE
  8
0
 10
-228.566
 20
-101.159
 11
-228.668
 21
-100.78
  0
LINE
  8
0
 10
-228.668
 20
-100.78
 11
-228.729
 21
-100.392
  0
LINE
  8
0
 10
-228.729
 20
-100.392
 11
-228.75
 21
-100
  0
LINE
  8
0
 10
-228.75
 20
-100
 11
-228.729
 21
-99.608
  0
LINE
  8
0
 10
-228.729
 20
-99.608
 11
-228.668
 21
-99.2203
  0
LINE
  8
0
 10
-228.668
 20
-99.2203
 11
-228.566
 21
-98.8412
  0
LINE
  8
0
 10
-228.566
 20
-98.8412
 11
-228.426
 21
-98.4747
  0
LINE
  8
0
 10
-228.426
 20
-98.4747
 11
-228.248
 21
-98.125
  0
LINE
  8
0
 10
-228.248
 20
-98.125
 11
-228.034
 21
-97.7958
  0
LINE
  8
0
 10
-228.034
 20
-97.7958
 11
-227.787
 21
-97.4908
  0
LINE
  8
0
 10
-227.787
 20
-97.4908
 11
-227.509
 21
-97.2132
  0
LINE
  8
0
 10
-227.509
 20
-97.2132
 11
-227.204
 21
-96.9662
  0
LINE
  8
0
 10
-227.204
 20
-96.9662
 11
-226.875
 21
-96.7524
  0
LINE
  8
0
 10
-226.875
 20
-96.7524
 11
-226.525
 21
-96.5742
  0
LINE
  8
0
 10
-226.525
 20
-96.5742
 11
-226.159
 21
-96.4335
  0
LINE
  8
0
 10
-226.159
 20
-96.4335
 11
-225.78
 21
-96.3319
  0
LINE
  8
0
 10
-225.78
 20
-96.3319
 11
-225.392
 21
-96.2705
  0
LINE
  8
0
 10
-225.392
 20
-96.2705
 11
-225
 21
-96.25
  0
LINE
  8
0
 10
-225
 20
-96.25
 11
-224.608
 21
-96.2705
  0
LINE
  8
0
 10
-224.608
 20
-96.2705
 11
-224.22
 21
-96.3319
  0
LINE
  8
0
 10
-224.22
 20
-96.3319
 11
-223.841
 21
-96.4335
  0
LINE
  8
0
 10
-223.841
 20
-96.4335
 11
-223.475
 21
-96.5742
  0
LINE
  8
0
 10
-223.475
 20
-96.5742
 11
-223.125
 21
-96.7524
  0
LINE
  8
0
 10
-223.125
 20
-96.7524
 11
-222.796
 21
-96.9662
  0
LINE
  8
0
 10
-222.796
 20
-96.9662
 11
-222.491
 21
-97.2132
  0
LINE
  8
0
 10
-222.491
 20
-97.2132
 11
-222.213
 21
-97.4908
  0
LINE
  8
0
 10
-222.213
 20
-97.4908
 11
-221.966
 21
-97.7958
  0
LINE
  8
0
 10
-221.966
 20
-97.7958
 11
-221.752
 21
-98.125
  0
LINE
  8
0
 10
-221.752
 20
-98.125
 11
-221.574
 21
-98.4747
  0
LINE
  8
0
 10
-221.574
 20
-98.4747
 11
-221.434
 21
-98.8412
  0
LINE
  8
0
 10
-221.434
 20
-98.8412
 11
-221.332
 21
-99.2203
  0
LINE
  8
0
 10
-221.332
 20
-99.2203
 11
-221.271
 21
-99.608
  0
LINE
  8
0
 10
-221.271
 20
-99.608
 11
-221.25
 21
-100
  0
LINE
  8
0
 10
-221.25
 20
-100
 11
-221.271
 21
-100.392
  0
LINE
  8
0
 10
-221.271
 20
-100.392
 11
-221.332
 21
-100.78
  0
LINE
  8
0
 10
-221.332
 20
-100.78
 11
-221.434
 21
-101.159
  0
LINE
  8
0
 10
-221.434
 20
-101.159
 11
-221.574
 21
-101.525
  0
LINE
  8
0
 10
-221.574
 20
-101.525
 11
-221.752
 21
-101.875
  0
LINE
  8
0
 10
-221.752
 20
-101.875
 11
-221.966
 21
-102.204
  0
LINE
  8
0
 10
-221.966
 20
-102.204
 11
-222.213
 21
-102.509
  0
LINE
  8
0
 10
-222.213
 20
-102.509
 11
-222.491
 21
-102.787
  0
LINE
  8
0
 10
-222.491
 20
-102.787
 11
-222.796
 21
-103.034
  0
LINE
  8
0
 10
-222.796
 20
-103.034
 11
-223.125
 21
-103.248
  0
LINE
  8
0
 10
-223.125
 20
-103.248
 11
-223.475
 21
-103.426
  0
LINE
  8
0
 10
-223.475
 20
-103.426
 11
-223.841
 21
-103.566
  0
LINE
  8
0
 10
-223.841
 20
-103.566
 11
-224.22
 21
-103.668
  0
LINE
  8
0
 10
-224.22
 20
-103.668
 11
-224.608
 21
-103.729
  0
LINE
  8
0
 10
-224.608
 20
-103.729
 11
-225
 21
-103.75
  0
LINE
  8
0
 10
-225
 20
-103.75
 11
-225.392
 21
-103.729
  0
LINE
  8
0
 10
224.608
 20
-103.729
 11
224.22
 21
-103.668
  0
LINE
  8
0
 10
224.22
 20
-103.668
 11
223.841
 21
-103.566
  0
LINE
  8
0
 10
223.841
 20
-103.566
 11
223.475
 21
-103.426
  0
LINE
  8
0
 10
223.475
 20
-103.426
 11
223.125
 21
-103.248
  0
LINE
  8
0
 10
223.125
 20
-103.248
 11
222.796
 21
-103.034
  0
LINE
  8
0
 10
222.796
 20
-103.034
 11
222.491
 21
-102.787
  0
LINE
  8
0
 10
222.491
 20
-102.787
 11
222.213
 21
-102.509
  0
LINE
  8
0
 10
222.213
 20
-102.509
 11
221.966
 21
-102.204
  0
LINE
  8
0
 10
221.966
 20
-102.204
 11
221.752
 21
-101.875
  0
LINE
  8
0
 10
221.752
 20
-101.875
 11
221.574
 21
-101.525
  0
LINE
  8
0
 10
221.574
 20
-101.525
 11
221.434
 21
-101.159
  0
LINE
  8
0
 10
221.434
 20
-101.159
 11
221.332
 21
-100.78
  0
LINE
  8
0
 10
221.332
 20
-100.78
 11
221.271
 21
-100.392
  0
LINE
  8
0
 10
221.271
 20
-100.392
 11
221.25
 21
-100
  0
LINE
  8
0
 10
221.25
 20
-100
 11
221.271
 21
-99.608
  0
LINE
  8
0
 10
221.271
 20
-99.608
 11
221.332
 21
-99.2203
  0
LINE
  8
0
 10
221.332
 20
-99.2203
 11
221.434
 21
-98.8412
  0
LINE
  8
0
 10
221.434
 20
-98.8412
 11
221.574
 21
-98.4747
  0
LINE
  8
0
 10
221.574
 20
-98.4747
 11
221.752
 21
-98.125
  0
LINE
  8
0
 10
221.752
 20
-98.125
 11
221.966
 21
-97.7958
  0
LINE
  8
0
 10
221.966
 20
-97.7958
 11
222.213
 21
-97.4908
  0
LINE
  8
0
 10
222.213
 20
-97.4908
 11
222.491
 21
-97.2132
  0
LINE
  8
0
 10
222.491
 20
-97.2132
 11
222.796
 21
-96.9662
  0
LINE
  8
0
 10
222.796
 20
-96.9662
 11
223.125
 21
-96.7524
  0
LINE
  8
0
 10
223.125
 20
-96.7524
 11
223.475
 21
-96.5742
  0
LINE
  8
0
 10
223.475
 20
-96.5742
 11
223.841
 21
-96.4335
  0
LINE
  8
0
 10
223.841
 20
-96.4335
 11
224.22
 21
-96.3319
  0
LINE
  8
0
 10
224.22
 20
-96.3319
 11
224.608
 21
-96.2705
  0
LINE
  8
0
 10
224.608
 20
-96.2705
 11
225
 21
-96.25
  0
LINE
  8
0
 10
225
 20
-96.25
 11
225.392
 21
-96.2705
  0
LINE
  8
0
 10
225.392
 20
-96.2705
 11
225.78
 21
-96.3319
  0
LINE
  8
0
 10
225.78
 20
-96.3319
 11
226.159
 21
-96.4335
  0
LINE
  8
0
 10
226.159
 20
-96.4335
 11
226.525
 21
-96.5742
  0
LINE
  8
0
 10
226.525
 20
-96.5742
 11
226.875
 21
-96.7524
  0
LINE
  8
0
 10
226.875
 20
-96.7524
 11
227.204
 21
-96.9662
  0
LINE
  8
0
 10
227.204
 20
-96.9662
 11
227.509
 21
-97.2132
  0
LINE
  8
0
 10
227.509
 20
-97.2132
 11
227.787
 21
-97.4908
  0
LINE
  8
0
 10
227.787
 20
-97.4908
 11
228.034
 21
-97.7958
  0
LINE
  8
0
 10
228.034
 20
-97.7958
 11
228.248
 21
-98.125
  0
LINE
  8
0
 10
228.248
 20
-98.125
 11
228.426
 21
-98.4747
  0
LINE
  8
0
 10
228.426
 20
-98.4747
 11
228.566
 21
-98.8412
  0
LINE
  8
0
 10
228.566
 20
-98.8412
 11
228.668
 21
-99.2203
  0
LINE
  8
0
 10
228.668
 20
-99.2203
 11
228.729
 21
-99.608
  0
LINE
  8
0
 10
228.729
 20
-99.608
 11
228.75
 21
-100
  0
LINE
  8
0
 10
228.75
 20
-100
 11
228.729
 21
-100.392
  0
LINE
  8
0
 10
228.729
 20
-100.392
 11
228.668
 21
-100.78
  0
LINE
  8
0
 10
228.668
 20
-100.78
 11
228.566
 21
-101.159
  0
LINE
  8
0
 10
228.566
 20
-101.159
 11
228.426
 21
-101.525
  0
LINE
  8
0
 10
228.426
 20
-101.525
 11
228.248
 21
-101.875
  0
LINE
  8
0
 10
228.248
 20
-101.875
 11
228.034
 21
-102.204
  0
LINE
  8
0
 10
228.034
 20
-102.204
 11
227.787
 21
-102.509
  0
LINE
  8
0
 10
227.787
 20
-102.509
 11
227.509
 21
-102.787
  0
LINE
  8
0
 10
227.509
 20
-102.787
 11
227.204
 21
-103.034
  0
LINE
  8
0
 10
227.204
 20
-103.034
 11
226.875
 21
-103.248
  0
LINE
  8
0
 10
226.875
 20
-103.248
 11
226.525
 21
-103.426
  0
LINE
  8
0
 10
226.525
 20
-103.426
 11
226.159
 21
-103.566
  0
LINE
  8
0
 10
226.159
 20
-103.566
 11
225.78
 21
-103.668
  0
LINE
  8
0
 10
225.78
 20
-103.668
 11
225.392
 21
-103.729
  0
LINE
  8
0
 10
225.392
 20
-103.729
 11
225
 21
-103.75
  0
LINE
  8
0
 10
225
 20
-103.75
 11
224.608
 21
-103.729
  0
LINE
  8
0
 10
-182.809
 20
-101.672
 11
-183.049
 21
-101.609
  0
LINE
  8
0
 10
-183.049
 20
-101.609
 11
-183.277
 21
-101.512
  0
LINE
  8
0
 10
-183.277
 20
-101.512
 11
-183.489
 21
-101.383
  0
LINE
  8
0
 10
-183.489
 20
-101.383
 11
-183.68
 21
-101.224
  0
LINE
  8
0
 10
-183.68
 20
-101.224
 11
-183.846
 21
-101.039
  0
LINE
  8
0
 10
-183.846
 20
-101.039
 11
-183.982
 21
-100.832
  0
LINE
  8
0
 10
-183.982
 20
-100.832
 11
-184.088
 21
-100.607
  0
LINE
  8
0
 10
-184.088
 20
-100.607
 11
-184.159
 21
-100.37
  0
LINE
  8
0
 10
-184.159
 20
-100.37
 11
-184.195
 21
-100.124
  0
LINE
  8
0
 10
-184.195
 20
-100.124
 11
-184.195
 21
-99.8759
  0
LINE
  8
0
 10
-184.195
 20
-99.8759
 11
-184.159
 21
-99.6304
  0
LINE
  8
0
 10
-184.159
 20
-99.6304
 11
-184.088
 21
-99.3927
  0
LINE
  8
0
 10
-184.088
 20
-99.3927
 11
-183.982
 21
-99.168
  0
LINE
  8
0
 10
-183.982
 20
-99.168
 11
-183.846
 21
-98.961
  0
LINE
  8
0
 10
-183.846
 20
-98.961
 11
-183.68
 21
-98.7762
  0
LINE
  8
0
 10
-183.68
 20
-98.7762
 11
-183.489
 21
-98.6174
  0
LINE
  8
0
 10
-183.489
 20
-98.6174
 11
-183.277
 21
-98.4881
  0
LINE
  8
0
 10
-183.277
 20
-98.4881
 11
-183.049
 21
-98.3911
  0
LINE
  8
0
 10
-183.049
 20
-98.3911
 11
-182.809
 21
-98.3283
  0
LINE
  8
0
 10
-182.809
 20
-98.3283
 11
-182.562
 21
-98.3011
  0
LINE
  8
0
 10
-182.562
 20
-98.3011
 11
-182.314
 21
-98.3102
  0
LINE
  8
0
 10
-182.314
 20
-98.3102
 11
-182.07
 21
-98.3553
  0
LINE
  8
0
 10
-182.07
 20
-98.3553
 11
-181.835
 21
-98.4354
  0
LINE
  8
0
 10
-181.835
 20
-98.4354
 11
-181.614
 21
-98.5489
  0
LINE
  8
0
 10
-181.614
 20
-98.5489
 11
-181.413
 21
-98.6933
  0
LINE
  8
0
 10
-181.413
 20
-98.6933
 11
-181.234
 21
-98.8656
  0
LINE
  8
0
 10
-181.234
 20
-98.8656
 11
-181.082
 21
-99.062
  0
LINE
  8
0
 10
-181.082
 20
-99.062
 11
-180.961
 21
-99.2784
  0
LINE
  8
0
 10
-180.961
 20
-99.2784
 11
-180.872
 21
-99.5102
  0
LINE
  8
0
 10
-180.872
 20
-99.5102
 11
-180.818
 21
-99.7525
  0
LINE
  8
0
 10
-180.818
 20
-99.7525
 11
-180.8
 21
-100
  0
LINE
  8
0
 10
-180.8
 20
-100
 11
-180.818
 21
-100.248
  0
LINE
  8
0
 10
-180.818
 20
-100.248
 11
-180.872
 21
-100.49
  0
LINE
  8
0
 10
-180.872
 20
-100.49
 11
-180.961
 21
-100.722
  0
LINE
  8
0
 10
-180.961
 20
-100.722
 11
-181.082
 21
-100.938
  0
LINE
  8
0
 10
-181.082
 20
-100.938
 11
-181.234
 21
-101.134
  0
LINE
  8
0
 10
-181.234
 20
-101.134
 11
-181.413
 21
-101.307
  0
LINE
  8
0
 10
-181.413
 20
-101.307
 11
-181.614
 21
-101.451
  0
LINE
  8
0
 10
-181.614
 20
-101.451
 11
-181.835
 21
-101.565
  0
LINE
  8
0
 10
-181.835
 20
-101.565
 11
-182.07
 21
-101.645
  0
LINE
  8
0
 10
-182.07
 20
-101.645
 11
-182.314
 21
-101.69
  0
LINE
  8
0
 10
-182.314
 20
-101.69
 11
-182.562
 21
-101.699
  0
LINE
  8
0
 10
-182.562
 20
-101.699
 11
-182.809
 21
-101.672
  0
LINE
  8
0
 10
182.191
 20
-101.672
 11
181.951
 21
-101.609
  0
LINE
  8
0
 10
181.951
 20
-101.609
 11
181.723
 21
-101.512
  0
LINE
  8
0
 10
181.723
 20
-101.512
 11
181.511
 21
-101.383
  0
LINE
  8
0
 10
181.511
 20
-101.383
 11
181.32
 21
-101.224
  0
LINE
  8
0
 10
181.32
 20
-101.224
 11
181.154
 21
-101.039
  0
LINE
  8
0
 10
181.154
 20
-101.039
 11
181.018
 21
-100.832
  0
LINE
  8
0
 10
181.018
 20
-100.832
 11
180.912
 21
-100.607
  0
LINE
  8
0
 10
180.912
 20
-100.607
 11
180.841
 21
-100.37
  0
LINE
  8
0
 10
180.841
 20
-100.37
 11
180.805
 21
-100.124
  0
LINE
  8
0
 10
180.805
 20
-100.124
 11
180.805
 21
-99.8759
  0
LINE
  8
0
 10
180.805
 20
-99.8759
 11
180.841
 21
-99.6304
  0
LINE
  8
0
 10
180.841
 20
-99.6304
 11
180.912
 21
-99.3927
  0
LINE
  8
0
 10
180.912
 20
-99.3927
 11
181.018
 21
-99.168
  0
LINE
  8
0
 10
181.018
 20
-99.168
 11
181.154
 21
-98.961
  0
LINE
  8
0
 10
181.154
 20
-98.961
 11
181.32
 21
-98.7762
  0
LINE
  8
0
 10
181.32
 20
-98.7762
 11
181.511
 21
-98.6174
  0
LINE
  8
0
 10
181.511
 20
-98.6174
 11
181.723
 21
-98.4881
  0
LINE
  8
0
 10
181.723
 20
-98.4881
 11
181.951
 21
-98.3911
  0
LINE
  8
0
 10
181.951
 20
-98.3911
 11
182.191
 21
-98.3283
  0
LINE
  8
0
 10
182.191
 20
-98.3283
 11
182.438
 21
-98.3011
  0
LINE
  8
0
 10
182.438
 20
-98.3011
 11
182.686
 21
-98.3102
  0
LINE
  8
0
 10
182.686
 20
-98.3102
 11
182.93
 21
-98.3553
  0
LINE
  8
0
 10
182.93
 20
-98.3553
 11
183.165
 21
-98.4354
  0
LINE
  8
0
 10
183.165
 20
-98.4354
 11
183.386
 21
-98.5489
  0
LINE
  8
0
 10
183.386
 20
-98.5489
 11
183.587
 21
-98.6933
  0
LINE
  8
0
 10
183.587
 20
-98.6933
 11
183.766
 21
-98.8656
  0
LINE
  8
0
 10
183.766
 20
-98.8656
 11
183.918
 21
-99.062
  0
LINE
  8
0
 10
183.918
 20
-99.062
 11
184.039
 21
-99.2784
  0
LINE
  8
0
 10
184.039
 20
-99.2784
 11
184.128
 21
-99.5102
  0
LINE
  8
0
 10
184.128
 20
-99.5102
 11
184.182
 21
-99.7525
  0
LINE
  8
0
 10
184.182
 20
-99.7525
 11
184.2
 21
-100
  0
LINE
  8
0
 10
184.2
 20
-100
 11
184.182
 21
-100.248
  0
LINE
  8
0
 10
184.182
 20
-100.248
 11
184.128
 21
-100.49
  0
LINE
  8
0
 10
184.128
 20
-100.49
 11
184.039
 21
-100.722
  0
LINE
  8
0
 10
184.039
 20
-100.722
 11
183.918
 21
-100.938
  0
LINE
  8
0
 10
183.918
 20
-100.938
 11
183.766
 21
-101.134
  0
LINE
  8
0
 10
183.766
 20
-101.134
 11
183.587
 21
-101.307
  0
LINE
  8
0
 10
183.587
 20
-101.307
 11
183.386
 21
-101.451
  0
LINE
  8
0
 10
183.386
 20
-101.451
 11
183.165
 21
-101.565
  0
LINE
  8
0
 10
183.165
 20
-101.565
 11
182.93
 21
-101.645
  0
LINE
  8
0
 10
182.93
 20
-101.645
 11
182.686
 21
-101.69
  0
LINE
  8
0
 10
182.686
 20
-101.69
 11
182.438
 21
-101.699
  0
LINE
  8
0
 10
182.438
 20
-101.699
 11
182.191
 21
-101.672
  0
LINE
  8
0
 10
90.9412
 20
-101.672
 11
90.7011
 21
-101.609
  0
LINE
  8
0
 10
90.7011
 20
-101.609
 11
90.4727
 21
-101.512
  0
LINE
  8
0
 10
90.4727
 20
-101.512
 11
90.2608
 21
-101.383
  0
LINE
  8
0
 10
90.2608
 20
-101.383
 11
90.0701
 21
-101.224
  0
LINE
  8
0
 10
90.0701
 20
-101.224
 11
89.9044
 21
-101.039
  0
LINE
  8
0
 10
89.9044
 20
-101.039
 11
89.7675
 21
-100.832
  0
LINE
  8
0
 10
89.7675
 20
-100.832
 11
89.6622
 21
-100.607
  0
LINE
  8
0
 10
89.6622
 20
-100.607
 11
89.5907
 21
-100.37
  0
LINE
  8
0
 10
89.5907
 20
-100.37
 11
89.5545
 21
-100.124
  0
LINE
  8
0
 10
89.5545
 20
-100.124
 11
89.5545
 21
-99.8759
  0
LINE
  8
0
 10
89.5545
 20
-99.8759
 11
89.5907
 21
-99.6304
  0
LINE
  8
0
 10
89.5907
 20
-99.6304
 11
89.6622
 21
-99.3927
  0
LINE
  8
0
 10
89.6622
 20
-99.3927
 11
89.7675
 21
-99.168
  0
LINE
  8
0
 10
89.7675
 20
-99.168
 11
89.9044
 21
-98.961
  0
LINE
  8
0
 10
89.9044
 20
-98.961
 11
90.0701
 21
-98.7762
  0
LINE
  8
0
 10
90.0701
 20
-98.7762
 11
90.2608
 21
-98.6174
  0
LINE
  8
0
 10
90.2608
 20
-98.6174
 11
90.4727
 21
-98.4881
  0
LINE
  8
0
 10
90.4727
 20
-98.4881
 11
90.7011
 21
-98.3911
  0
LINE
  8
0
 10
90.7011
 20
-98.3911
 11
90.9412
 21
-98.3283
  0
LINE
  8
0
 10
90.9412
 20
-98.3283
 11
91.1879
 21
-98.3011
  0
LINE
  8
0
 10
91.1879
 20
-98.3011
 11
91.4359
 21
-98.3102
  0
LINE
  8
0
 10
91.4359
 20
-98.3102
 11
91.68
 21
-98.3553
  0
LINE
  8
0
 10
91.68
 20
-98.3553
 11
91.9149
 21
-98.4354
  0
LINE
  8
0
 10
91.9149
 20
-98.4354
 11
92.1356
 21
-98.5489
  0
LINE
  8
0
 10
92.1356
 20
-98.5489
 11
92.3374
 21
-98.6933
  0
LINE
  8
0
 10
92.3374
 20
-98.6933
 11
92.5161
 21
-98.8656
  0
LINE
  8
0
 10
92.5161
 20
-98.8656
 11
92.6678
 21
-99.062
  0
LINE
  8
0
 10
92.6678
 20
-99.062
 11
92.7893
 21
-99.2784
  0
LINE
  8
0
 10
92.7893
 20
-99.2784
 11
92.8779
 21
-99.5102
  0
LINE
  8
0
 10
92.8779
 20
-99.5102
 11
92.9319
 21
-99.7525
  0
LINE
  8
0
 10
92.9319
 20
-99.7525
 11
92.95
 21
-100
  0
LINE
  8
0
 10
92.95
 20
-100
 11
92.9319
 21
-100.248
  0
LINE
  8
0
 10
92.9319
 20
-100.248
 11
92.8779
 21
-100.49
  0
LINE
  8
0
 10
92.8779
 20
-100.49
 11
92.7893
 21
-100.722
  0
LINE
  8
0
 10
92.7893
 20
-100.722
 11
92.6678
 21
-100.938
  0
LINE
  8
0
 10
92.6678
 20
-100.938
 11
92.5161
 21
-101.134
  0
LINE
  8
0
 10
92.5161
 20
-101.134
 11
92.3374
 21
-101.307
  0
LINE
  8
0
 10
92.3374
 20
-101.307
 11
92.1356
 21
-101.451
  0
LINE
  8
0
 10
92.1356
 20
-101.451
 11
91.9149
 21
-101.565
  0
LINE
  8
0
 10
91.9149
 20
-101.565
 11
91.68
 21
-101.645
  0
LINE
  8
0
 10
91.68
 20
-101.645
 11
91.4359
 21
-101.69
  0
LINE
  8
0
 10
91.4359
 20
-101.69
 11
91.1879
 21
-101.699
  0
LINE
  8
0
 10
91.1879
 20
-101.699
 11
90.9412
 21
-101.672
  0
LINE
  8
0
 10
-0.308777
 20
-101.672
 11
-0.548889
 21
-101.609
  0
LINE
  8
0
 10
-0.548889
 20
-101.609
 11
-0.777298
 21
-101.512
  0
LINE
  8
0
 10
-0.777298
 20
-101.512
 11
-0.989151
 21
-101.383
  0
LINE
  8
0
 10
-0.989151
 20
-101.383
 11
-1.17992
 21
-101.224
  0
LINE
  8
0
 10
-1.17992
 20
-101.224
 11
-1.34554
 21
-101.039
  0
LINE
  8
0
 10
-1.34554
 20
-101.039
 11
-1.48248
 21
-100.832
  0
LINE
  8
0
 10
-1.48248
 20
-100.832
 11
-1.58781
 21
-100.607
  0
LINE
  8
0
 10
-1.58781
 20
-100.607
 11
-1.65932
 21
-100.37
  0
LINE
  8
0
 10
-1.65932
 20
-100.37
 11
-1.69545
 21
-100.124
  0
LINE
  8
0
 10
-1.69545
 20
-100.124
 11
-1.69545
 21
-99.8759
  0
LINE
  8
0
 10
-1.69545
 20
-99.8759
 11
-1.65932
 21
-99.6304
  0
LINE
  8
0
 10
-1.65932
 20
-99.6304
 11
-1.58781
 21
-99.3927
  0
LINE
  8
0
 10
-1.58781
 20
-99.3927
 11
-1.48248
 21
-99.168
  0
LINE
  8
0
 10
-1.48248
 20
-99.168
 11
-1.34554
 21
-98.961
  0
LINE
  8
0
 10
-1.34554
 20
-98.961
 11
-1.17992
 21
-98.7762
  0
LINE
  8
0
 10
-1.17992
 20
-98.7762
 11
-0.989151
 21
-98.6174
  0
LINE
  8
0
 10
-0.989151
 20
-98.6174
 11
-0.777298
 21
-98.4881
  0
LINE
  8
0
 10
-0.777298
 20
-98.4881
 11
-0.548889
 21
-98.3911
  0
LINE
  8
0
 10
-0.548889
 20
-98.3911
 11
-0.308777
 21
-98.3283
  0
LINE
  8
0
 10
-0.308777
 20
-98.3283
 11
-0.0620728
 21
-98.3011
  0
LINE
  8
0
 10
-0.0620728
 20
-98.3011
 11
0.185928
 21
-98.3102
  0
LINE
  8
0
 10
0.185928
 20
-98.3102
 11
0.429977
 21
-98.3553
  0
LINE
  8
0
 10
0.429977
 20
-98.3553
 11
0.664871
 21
-98.4354
  0
LINE
  8
0
 10
0.664871
 20
-98.4354
 11
0.88559
 21
-98.5489
  0
LINE
  8
0
 10
0.88559
 20
-98.5489
 11
1.08743
 21
-98.6933
  0
LINE
  8
0
 10
1.08743
 20
-98.6933
 11
1.2661
 21
-98.8656
  0
LINE
  8
0
 10
1.2661
 20
-98.8656
 11
1.41779
 21
-99.062
  0
LINE
  8
0
 10
1.41779
 20
-99.062
 11
1.53926
 21
-99.2784
  0
LINE
  8
0
 10
1.53926
 20
-99.2784
 11
1.62791
 21
-99.5102
  0
LINE
  8
0
 10
1.62791
 20
-99.5102
 11
1.68187
 21
-99.7525
  0
LINE
  8
0
 10
1.68187
 20
-99.7525
 11
1.7
 21
-100
  0
LINE
  8
0
 10
1.7
 20
-100
 11
1.68187
 21
-100.248
  0
LINE
  8
0
 10
1.68187
 20
-100.248
 11
1.62791
 21
-100.49
  0
LINE
  8
0
 10
1.62791
 20
-100.49
 11
1.53926
 21
-100.722
  0
LINE
  8
0
 10
1.53926
 20
-100.722
 11
1.41779
 21
-100.938
  0
LINE
  8
0
 10
1.41779
 20
-100.938
 11
1.2661
 21
-101.134
  0
LINE
  8
0
 10
1.2661
 20
-101.134
 11
1.08743
 21
-101.307
  0
LINE
  8
0
 10
1.08743
 20
-101.307
 11
0.88559
 21
-101.451
  0
LINE
  8
0
 10
0.88559
 20
-101.451
 11
0.664871
 21
-101.565
  0
LINE
  8
0
 10
0.664871
 20
-101.565
 11
0.429977
 21
-101.645
  0
LINE
  8
0
 10
0.429977
 20
-101.645
 11
0.185928
 21
-101.69
  0
LINE
  8
0
 10
0.185928
 20
-101.69
 11
-0.0620728
 21
-101.699
  0
LINE
  8
0
 10
-0.0620728
 20
-101.699
 11
-0.308777
 21
-101.672
  0
LINE
  8
0
 10
-91.5588
 20
-101.672
 11
-91.7989
 21
-101.609
  0
LINE
  8
0
 10
-91.7989
 20
-101.609
 11
-92.0273
 21
-101.512
  0
LINE
  8
0
 10
-92.0273
 20
-101.512
 11
-92.2392
 21
-101.383
  0
LINE
  8
0
 10
-92.2392
 20
-101.383
 11
-92.4299
 21
-101.224
  0
LINE
  8
0
 10
-92.4299
 20
-101.224
 11
-92.5955
 21
-101.039
  0
LINE
  8
0
 10
-92.5955
 20
-101.039
 11
-92.7325
 21
-100.832
  0
LINE
  8
0
 10
-92.7325
 20
-100.832
 11
-92.8378
 21
-100.607
  0
LINE
  8
0
 10
-92.8378
 20
-100.607
 11
-92.9093
 21
-100.37
  0
LINE
  8
0
 10
-92.9093
 20
-100.37
 11
-92.9455
 21
-100.124
  0
LINE
  8
0
 10
-92.9455
 20
-100.124
 11
-92.9455
 21
-99.8759
  0
LINE
  8
0
 10
-92.9455
 20
-99.8759
 11
-92.9093
 21
-99.6304
  0
LINE
  8
0
 10
-92.9093
 20
-99.6304
 11
-92.8378
 21
-99.3927
  0
LINE
  8
0
 10
-92.8378
 20
-99.3927
 11
-92.7325
 21
-99.168
  0
LINE
  8
0
 10
-92.7325
 20
-99.168
 11
-92.5955
 21
-98.961
  0
LINE
  8
0
 10
-92.5955
 20
-98.961
 11
-92.4299
 21
-98.7762
  0
LINE
  8
0
 10
-92.4299
 20
-98.7762
 11
-92.2392
 21
-98.6174
  0
LINE
  8
0
 10
-92.2392
 20
-98.6174
 11
-92.0273
 21
-98.4881
  0
LINE
  8
0
 10
-92.0273
 20
-98.4881
 11
-91.7989
 21
-98.3911
  0
LINE
  8
0
 10
-91.7989
 20
-98.3911
 11
-91.5588
 21
-98.3283
  0
LINE
  8
0
 10
-91.5588
 20
-98.3283
 11
-91.3121
 21
-98.3011
  0
LINE
  8
0
 10
-91.3121
 20
-98.3011
 11
-91.0641
 21
-98.3102
  0
LINE
  8
0
 10
-91.0641
 20
-98.3102
 11
-90.82
 21
-98.3553
  0
LINE
  8
0
 10
-90.82
 20
-98.3553
 11
-90.5851
 21
-98.4354
  0
LINE
  8
0
 10
-90.5851
 20
-98.4354
 11
-90.3644
 21
-98.5489
  0
LINE
  8
0
 10
-90.3644
 20
-98.5489
 11
-90.1626
 21
-98.6933
  0
LINE
  8
0
 10
-90.1626
 20
-98.6933
 11
-89.9839
 21
-98.8656
  0
LINE
  8
0
 10
-89.9839
 20
-98.8656
 11
-89.8322
 21
-99.062
  0
LINE
  8
0
 10
-89.8322
 20
-99.062
 11
-89.7107
 21
-99.2784
  0
LINE
  8
0
 10
-89.7107
 20
-99.2784
 11
-89.6221
 21
-99.5102
  0
LINE
  8
0
 10
-89.6221
 20
-99.5102
 11
-89.5681
 21
-99.7525
  0
LINE
  8
0
 10
-89.5681
 20
-99.7525
 11
-89.55
 21
-100
  0
LINE
  8
0
 10
-89.55
 20
-100
 11
-89.5681
 21
-100.248
  0
LINE
  8
0
 10
-89.5681
 20
-100.248
 11
-89.6221
 21
-100.49
  0
LINE
  8
0
 10
-89.6221
 20
-100.49
 11
-89.7107
 21
-100.722
  0
LINE
  8
0
 10
-89.7107
 20
-100.722
 11
-89.8322
 21
-100.938
  0
LINE
  8
0
 10
-89.8322
 20
-100.938
 11
-89.9839
 21
-101.134
  0
LINE
  8
0
 10
-89.9839
 20
-101.134
 11
-90.1626
 21
-101.307
  0
LINE
  8
0
 10
-90.1626
 20
-101.307
 11
-90.3644
 21
-101.451
  0
LINE
  8
0
 10
-90.3644
 20
-101.451
 11
-90.5851
 21
-101.565
  0
LINE
  8
0
 10
-90.5851
 20
-101.565
 11
-90.82
 21
-101.645
  0
LINE
  8
0
 10
-90.82
 20
-101.645
 11
-91.0641
 21
-101.69
  0
LINE
  8
0
 10
-91.0641
 20
-101.69
 11
-91.3121
 21
-101.699
  0
LINE
  8
0
 10
-91.3121
 20
-101.699
 11
-91.5588
 21
-101.672
  0
ENDSEC
  0
SECTION
  2
OBJECTS
  0
DICTIONARY
  0
ENDSEC
  0
EOF
