  0
SECTION
  2
BLOCKS
  0
ENDSEC
  0
SECTION
  2
ENTITIES
  0
LINE
  8
0
 10
314.398
 20
-107.348
 11
314.915
 21
-107.266
  0
LINE
  8
0
 10
314.915
 20
-107.266
 11
315.42
 21
-107.13
  0
LINE
  8
0
 10
315.42
 20
-107.13
 11
315.909
 21
-106.943
  0
LINE
  8
0
 10
315.909
 20
-106.943
 11
316.375
 21
-106.705
  0
LINE
  8
0
 10
316.375
 20
-106.705
 11
316.814
 21
-106.42
  0
LINE
  8
0
 10
316.814
 20
-106.42
 11
317.221
 21
-106.091
  0
LINE
  8
0
 10
317.221
 20
-106.091
 11
317.591
 21
-105.721
  0
LINE
  8
0
 10
317.591
 20
-105.721
 11
317.92
 21
-105.314
  0
LINE
  8
0
 10
317.92
 20
-105.314
 11
318.205
 21
-104.875
  0
LINE
  8
0
 10
318.205
 20
-104.875
 11
318.443
 21
-104.409
  0
LINE
  8
0
 10
318.443
 20
-104.409
 11
318.63
 21
-103.92
  0
LINE
  8
0
 10
318.63
 20
-103.92
 11
318.766
 21
-103.415
  0
LINE
  8
0
 10
318.766
 20
-103.415
 11
318.848
 21
-102.898
  0
LINE
  8
0
 10
318.848
 20
-102.898
 11
318.875
 21
-102.375
  0
LINE
  8
0
 10
318.875
 20
-102.375
 11
318.875
 21
102.375
  0
LINE
  8
0
 10
318.875
 20
102.375
 11
318.848
 21
102.898
  0
LINE
  8
0
 10
318.848
 20
102.898
 11
318.766
 21
103.415
  0
LINE
  8
0
 10
318.766
 20
103.415
 11
318.63
 21
103.92
  0
LINE
  8
0
 10
318.63
 20
103.92
 11
318.443
 21
104.409
  0
LINE
  8
0
 10
318.443
 20
104.409
 11
318.205
 21
104.875
  0
LINE
  8
0
 10
318.205
 20
104.875
 11
317.92
 21
105.314
  0
LINE
  8
0
 10
317.92
 20
105.314
 11
317.591
 21
105.721
  0
LINE
  8
0
 10
317.591
 20
105.721
 11
317.221
 21
106.091
  0
LINE
  8
0
 10
317.221
 20
106.091
 11
316.814
 21
106.42
  0
LINE
  8
0
 10
316.814
 20
106.42
 11
316.375
 21
106.705
  0
LINE
  8
0
 10
316.375
 20
106.705
 11
315.909
 21
106.943
  0
LINE
  8
0
 10
315.909
 20
106.943
 11
315.42
 21
107.13
  0
LINE
  8
0
 10
315.42
 20
107.13
 11
314.915
 21
107.266
  0
LINE
  8
0
 10
314.915
 20
107.266
 11
314.398
 21
107.348
  0
LINE
  8
0
 10
314.398
 20
107.348
 11
313.875
 21
107.375
  0
LINE
  8
0
 10
313.875
 20
107.375
 11
-313.875
 21
107.375
  0
LINE
  8
0
 10
-313.875
 20
107.375
 11
-314.398
 21
107.348
  0
LINE
  8
0
 10
-314.398
 20
107.348
 11
-314.915
 21
107.266
  0
LINE
  8
0
 10
-314.915
 20
107.266
 11
-315.42
 21
107.13
  0
LINE
  8
0
 10
-315.42
 20
107.13
 11
-315.909
 21
106.943
  0
LINE
  8
0
 10
-315.909
 20
106.943
 11
-316.375
 21
106.705
  0
LINE
  8
0
 10
-316.375
 20
106.705
 11
-316.814
 21
106.42
  0
LINE
  8
0
 10
-316.814
 20
106.42
 11
-317.221
 21
106.091
  0
LINE
  8
0
 10
-317.221
 20
106.091
 11
-317.591
 21
105.721
  0
LINE
  8
0
 10
-317.591
 20
105.721
 11
-317.92
 21
105.314
  0
LINE
  8
0
 10
-317.92
 20
105.314
 11
-318.205
 21
104.875
  0
LINE
  8
0
 10
-318.205
 20
104.875
 11
-318.443
 21
104.409
  0
LINE
  8
0
 10
-318.443
 20
104.409
 11
-318.63
 21
103.92
  0
LINE
  8
0
 10
-318.63
 20
103.92
 11
-318.766
 21
103.415
  0
LINE
  8
0
 10
-318.766
 20
103.415
 11
-318.848
 21
102.898
  0
LINE
  8
0
 10
-318.848
 20
102.898
 11
-318.875
 21
102.375
  0
LINE
  8
0
 10
-318.875
 20
102.375
 11
-318.875
 21
-102.375
  0
LINE
  8
0
 10
-318.875
 20
-102.375
 11
-318.848
 21
-102.898
  0
LINE
  8
0
 10
-318.848
 20
-102.898
 11
-318.766
 21
-103.415
  0
LINE
  8
0
 10
-318.766
 20
-103.415
 11
-318.63
 21
-103.92
  0
LINE
  8
0
 10
-318.63
 20
-103.92
 11
-318.443
 21
-104.409
  0
LINE
  8
0
 10
-318.443
 20
-104.409
 11
-318.205
 21
-104.875
  0
LINE
  8
0
 10
-318.205
 20
-104.875
 11
-317.92
 21
-105.314
  0
LINE
  8
0
 10
-317.92
 20
-105.314
 11
-317.591
 21
-105.721
  0
LINE
  8
0
 10
-317.591
 20
-105.721
 11
-317.221
 21
-106.091
  0
LINE
  8
0
 10
-317.221
 20
-106.091
 11
-316.814
 21
-106.42
  0
LINE
  8
0
 10
-316.814
 20
-106.42
 11
-316.375
 21
-106.705
  0
LINE
  8
0
 10
-316.375
 20
-106.705
 11
-315.909
 21
-106.943
  0
LINE
  8
0
 10
-315.909
 20
-106.943
 11
-315.42
 21
-107.13
  0
LINE
  8
0
 10
-315.42
 20
-107.13
 11
-314.915
 21
-107.266
  0
LINE
  8
0
 10
-314.915
 20
-107.266
 11
-314.398
 21
-107.348
  0
LINE
  8
0
 10
-314.398
 20
-107.348
 11
-313.875
 21
-107.375
  0
LINE
  8
0
 10
-313.875
 20
-107.375
 11
313.875
 21
-107.375
  0
LINE
  8
0
 10
313.875
 20
-107.375
 11
314.398
 21
-107.348
  0
LINE
  8
0
 10
296.108
 20
81.2705
 11
295.72
 21
81.3319
  0
LINE
  8
0
 10
295.72
 20
81.3319
 11
295.341
 21
81.4335
  0
LINE
  8
0
 10
295.341
 20
81.4335
 11
294.975
 21
81.5742
  0
LINE
  8
0
 10
294.975
 20
81.5742
 11
294.625
 21
81.7524
  0
LINE
  8
0
 10
294.625
 20
81.7524
 11
294.296
 21
81.9662
  0
LINE
  8
0
 10
294.296
 20
81.9662
 11
293.991
 21
82.2132
  0
LINE
  8
0
 10
293.991
 20
82.2132
 11
293.713
 21
82.4908
  0
LINE
  8
0
 10
293.713
 20
82.4908
 11
293.466
 21
82.7958
  0
LINE
  8
0
 10
293.466
 20
82.7958
 11
293.252
 21
83.125
  0
LINE
  8
0
 10
293.252
 20
83.125
 11
293.074
 21
83.4747
  0
LINE
  8
0
 10
293.074
 20
83.4747
 11
292.934
 21
83.8412
  0
LINE
  8
0
 10
292.934
 20
83.8412
 11
292.832
 21
84.2203
  0
LINE
  8
0
 10
292.832
 20
84.2203
 11
292.771
 21
84.608
  0
LINE
  8
0
 10
292.771
 20
84.608
 11
292.75
 21
85
  0
LINE
  8
0
 10
292.75
 20
85
 11
292.771
 21
85.392
  0
LINE
  8
0
 10
292.771
 20
85.392
 11
292.832
 21
85.7797
  0
LINE
  8
0
 10
292.832
 20
85.7797
 11
292.934
 21
86.1588
  0
LINE
  8
0
 10
292.934
 20
86.1588
 11
293.074
 21
86.5253
  0
LINE
  8
0
 10
293.074
 20
86.5253
 11
293.252
 21
86.875
  0
LINE
  8
0
 10
293.252
 20
86.875
 11
293.466
 21
87.2042
  0
LINE
  8
0
 10
293.466
 20
87.2042
 11
293.713
 21
87.5092
  0
LINE
  8
0
 10
293.713
 20
87.5092
 11
293.991
 21
87.7868
  0
LINE
  8
0
 10
293.991
 20
87.7868
 11
294.296
 21
88.0338
  0
LINE
  8
0
 10
294.296
 20
88.0338
 11
294.625
 21
88.2476
  0
LINE
  8
0
 10
294.625
 20
88.2476
 11
294.975
 21
88.4258
  0
LINE
  8
0
 10
294.975
 20
88.4258
 11
295.341
 21
88.5665
  0
LINE
  8
0
 10
295.341
 20
88.5665
 11
295.72
 21
88.668
  0
LINE
  8
0
 10
295.72
 20
88.668
 11
296.108
 21
88.7294
  0
LINE
  8
0
 10
296.108
 20
88.7294
 11
296.5
 21
88.75
  0
LINE
  8
0
 10
296.5
 20
88.75
 11
296.892
 21
88.7294
  0
LINE
  8
0
 10
296.892
 20
88.7294
 11
297.28
 21
88.668
  0
LINE
  8
0
 10
297.28
 20
88.668
 11
297.659
 21
88.5665
  0
LINE
  8
0
 10
297.659
 20
88.5665
 11
298.025
 21
88.4258
  0
LINE
  8
0
 10
298.025
 20
88.4258
 11
298.375
 21
88.2476
  0
LINE
  8
0
 10
298.375
 20
88.2476
 11
298.704
 21
88.0338
  0
LINE
  8
0
 10
298.704
 20
88.0338
 11
299.009
 21
87.7868
  0
LINE
  8
0
 10
299.009
 20
87.7868
 11
299.287
 21
87.5092
  0
LINE
  8
0
 10
299.287
 20
87.5092
 11
299.534
 21
87.2042
  0
LINE
  8
0
 10
299.534
 20
87.2042
 11
299.748
 21
86.875
  0
LINE
  8
0
 10
299.748
 20
86.875
 11
299.926
 21
86.5253
  0
LINE
  8
0
 10
299.926
 20
86.5253
 11
300.066
 21
86.1588
  0
LINE
  8
0
 10
300.066
 20
86.1588
 11
300.168
 21
85.7797
  0
LINE
  8
0
 10
300.168
 20
85.7797
 11
300.229
 21
85.392
  0
LINE
  8
0
 10
300.229
 20
85.392
 11
300.25
 21
85
  0
LINE
  8
0
 10
300.25
 20
85
 11
300.229
 21
84.608
  0
LINE
  8
0
 10
300.229
 20
84.608
 11
300.168
 21
84.2203
  0
LINE
  8
0
 10
300.168
 20
84.2203
 11
300.066
 21
83.8412
  0
LINE
  8
0
 10
300.066
 20
83.8412
 11
299.926
 21
83.4747
  0
LINE
  8
0
 10
299.926
 20
83.4747
 11
299.748
 21
83.125
  0
LINE
  8
0
 10
299.748
 20
83.125
 11
299.534
 21
82.7958
  0
LINE
  8
0
 10
299.534
 20
82.7958
 11
299.287
 21
82.4908
  0
LINE
  8
0
 10
299.287
 20
82.4908
 11
299.009
 21
82.2132
  0
LINE
  8
0
 10
299.009
 20
82.2132
 11
298.704
 21
81.9662
  0
LINE
  8
0
 10
298.704
 20
81.9662
 11
298.375
 21
81.7524
  0
LINE
  8
0
 10
298.375
 20
81.7524
 11
298.025
 21
81.5742
  0
LINE
  8
0
 10
298.025
 20
81.5742
 11
297.659
 21
81.4335
  0
LINE
  8
0
 10
297.659
 20
81.4335
 11
297.28
 21
81.3319
  0
LINE
  8
0
 10
297.28
 20
81.3319
 11
296.892
 21
81.2705
  0
LINE
  8
0
 10
296.892
 20
81.2705
 11
296.5
 21
81.25
  0
LINE
  8
0
 10
296.5
 20
81.25
 11
296.108
 21
81.2705
  0
LINE
  8
0
 10
-275.577
 20
85.4863
 11
-275.487
 21
85.7159
  0
LINE
  8
0
 10
-275.487
 20
85.7159
 11
-275.363
 21
85.9295
  0
LINE
  8
0
 10
-275.363
 20
85.9295
 11
-275.21
 21
86.1223
  0
LINE
  8
0
 10
-275.21
 20
86.1223
 11
-275.029
 21
86.29
  0
LINE
  8
0
 10
-275.029
 20
86.29
 11
-274.825
 21
86.4289
  0
LINE
  8
0
 10
-274.825
 20
86.4289
 11
-274.603
 21
86.5359
  0
LINE
  8
0
 10
-274.603
 20
86.5359
 11
-274.367
 21
86.6086
  0
LINE
  8
0
 10
-274.367
 20
86.6086
 11
-274.123
 21
86.6454
  0
LINE
  8
0
 10
-274.123
 20
86.6454
 11
-233.877
 21
86.6454
  0
LINE
  8
0
 10
-233.877
 20
86.6454
 11
-233.633
 21
86.6086
  0
LINE
  8
0
 10
-233.633
 20
86.6086
 11
-233.397
 21
86.5359
  0
LINE
  8
0
 10
-233.397
 20
86.5359
 11
-233.175
 21
86.4289
  0
LINE
  8
0
 10
-233.175
 20
86.4289
 11
-232.971
 21
86.29
  0
LINE
  8
0
 10
-232.971
 20
86.29
 11
-232.79
 21
86.1223
  0
LINE
  8
0
 10
-232.79
 20
86.1223
 11
-232.637
 21
85.9295
  0
LINE
  8
0
 10
-232.637
 20
85.9295
 11
-232.513
 21
85.7159
  0
LINE
  8
0
 10
-232.513
 20
85.7159
 11
-232.423
 21
85.4863
  0
LINE
  8
0
 10
-232.423
 20
85.4863
 11
-232.368
 21
85.2459
  0
LINE
  8
0
 10
-232.368
 20
85.2459
 11
-232.35
 21
85
  0
LINE
  8
0
 10
-232.35
 20
85
 11
-232.368
 21
84.7541
  0
LINE
  8
0
 10
-232.368
 20
84.7541
 11
-232.423
 21
84.5137
  0
LINE
  8
0
 10
-232.423
 20
84.5137
 11
-232.513
 21
84.2841
  0
LINE
  8
0
 10
-232.513
 20
84.2841
 11
-232.637
 21
84.0705
  0
LINE
  8
0
 10
-232.637
 20
84.0705
 11
-232.79
 21
83.8777
  0
LINE
  8
0
 10
-232.79
 20
83.8777
 11
-232.971
 21
83.71
  0
LINE
  8
0
 10
-232.971
 20
83.71
 11
-233.175
 21
83.5711
  0
LINE
  8
0
 10
-233.175
 20
83.5711
 11
-233.397
 21
83.4641
  0
LINE
  8
0
 10
-233.397
 20
83.4641
 11
-233.633
 21
83.3914
  0
LINE
  8
0
 10
-233.633
 20
83.3914
 11
-233.877
 21
83.3546
  0
LINE
  8
0
 10
-233.877
 20
83.3546
 11
-274.123
 21
83.3546
  0
LINE
  8
0
 10
-274.123
 20
83.3546
 11
-274.367
 21
83.3914
  0
LINE
  8
0
 10
-274.367
 20
83.3914
 11
-274.603
 21
83.4641
  0
LINE
  8
0
 10
-274.603
 20
83.4641
 11
-274.825
 21
83.5711
  0
LINE
  8
0
 10
-274.825
 20
83.5711
 11
-275.029
 21
83.71
  0
LINE
  8
0
 10
-275.029
 20
83.71
 11
-275.21
 21
83.8777
  0
LINE
  8
0
 10
-275.21
 20
83.8777
 11
-275.363
 21
84.0705
  0
LINE
  8
0
 10
-275.363
 20
84.0705
 11
-275.487
 21
84.2841
  0
LINE
  8
0
 10
-275.487
 20
84.2841
 11
-275.577
 21
84.5137
  0
LINE
  8
0
 10
-275.577
 20
84.5137
 11
-275.632
 21
84.7541
  0
LINE
  8
0
 10
-275.632
 20
84.7541
 11
-275.65
 21
85
  0
LINE
  8
0
 10
-275.65
 20
85
 11
-275.632
 21
85.2459
  0
LINE
  8
0
 10
-275.632
 20
85.2459
 11
-275.577
 21
85.4863
  0
LINE
  8
0
 10
-104.79
 20
83.3546
 11
-105.034
 21
83.3914
  0
LINE
  8
0
 10
-105.034
 20
83.3914
 11
-105.269
 21
83.4641
  0
LINE
  8
0
 10
-105.269
 20
83.4641
 11
-105.492
 21
83.5711
  0
LINE
  8
0
 10
-105.492
 20
83.5711
 11
-105.695
 21
83.71
  0
LINE
  8
0
 10
-105.695
 20
83.71
 11
-105.876
 21
83.8777
  0
LINE
  8
0
 10
-105.876
 20
83.8777
 11
-106.03
 21
84.0705
  0
LINE
  8
0
 10
-106.03
 20
84.0705
 11
-106.153
 21
84.2841
  0
LINE
  8
0
 10
-106.153
 20
84.2841
 11
-106.243
 21
84.5137
  0
LINE
  8
0
 10
-106.243
 20
84.5137
 11
-106.298
 21
84.7541
  0
LINE
  8
0
 10
-106.298
 20
84.7541
 11
-106.317
 21
85
  0
LINE
  8
0
 10
-106.317
 20
85
 11
-106.298
 21
85.2459
  0
LINE
  8
0
 10
-106.298
 20
85.2459
 11
-106.243
 21
85.4863
  0
LINE
  8
0
 10
-106.243
 20
85.4863
 11
-106.153
 21
85.7159
  0
LINE
  8
0
 10
-106.153
 20
85.7159
 11
-106.03
 21
85.9295
  0
LINE
  8
0
 10
-106.03
 20
85.9295
 11
-105.876
 21
86.1223
  0
LINE
  8
0
 10
-105.876
 20
86.1223
 11
-105.695
 21
86.29
  0
LINE
  8
0
 10
-105.695
 20
86.29
 11
-105.492
 21
86.4289
  0
LINE
  8
0
 10
-105.492
 20
86.4289
 11
-105.269
 21
86.5359
  0
LINE
  8
0
 10
-105.269
 20
86.5359
 11
-105.034
 21
86.6086
  0
LINE
  8
0
 10
-105.034
 20
86.6086
 11
-104.79
 21
86.6454
  0
LINE
  8
0
 10
-104.79
 20
86.6454
 11
-64.5434
 21
86.6454
  0
LINE
  8
0
 10
-64.5434
 20
86.6454
 11
-64.2995
 21
86.6086
  0
LINE
  8
0
 10
-64.2995
 20
86.6086
 11
-64.0638
 21
86.5359
  0
LINE
  8
0
 10
-64.0638
 20
86.5359
 11
-63.8417
 21
86.4289
  0
LINE
  8
0
 10
-63.8417
 20
86.4289
 11
-63.6379
 21
86.29
  0
LINE
  8
0
 10
-63.6379
 20
86.29
 11
-63.4571
 21
86.1223
  0
LINE
  8
0
 10
-63.4571
 20
86.1223
 11
-63.3034
 21
85.9295
  0
LINE
  8
0
 10
-63.3034
 20
85.9295
 11
-63.1801
 21
85.7159
  0
LINE
  8
0
 10
-63.1801
 20
85.7159
 11
-63.09
 21
85.4863
  0
LINE
  8
0
 10
-63.09
 20
85.4863
 11
-63.0351
 21
85.2459
  0
LINE
  8
0
 10
-63.0351
 20
85.2459
 11
-63.0167
 21
85
  0
LINE
  8
0
 10
-63.0167
 20
85
 11
-63.0351
 21
84.7541
  0
LINE
  8
0
 10
-63.0351
 20
84.7541
 11
-63.09
 21
84.5137
  0
LINE
  8
0
 10
-63.09
 20
84.5137
 11
-63.1801
 21
84.2841
  0
LINE
  8
0
 10
-63.1801
 20
84.2841
 11
-63.3034
 21
84.0705
  0
LINE
  8
0
 10
-63.3034
 20
84.0705
 11
-63.4571
 21
83.8777
  0
LINE
  8
0
 10
-63.4571
 20
83.8777
 11
-63.6379
 21
83.71
  0
LINE
  8
0
 10
-63.6379
 20
83.71
 11
-63.8417
 21
83.5711
  0
LINE
  8
0
 10
-63.8417
 20
83.5711
 11
-64.0638
 21
83.4641
  0
LINE
  8
0
 10
-64.0638
 20
83.4641
 11
-64.2995
 21
83.3914
  0
LINE
  8
0
 10
-64.2995
 20
83.3914
 11
-64.5434
 21
83.3546
  0
LINE
  8
0
 10
-64.5434
 20
83.3546
 11
-104.79
 21
83.3546
  0
LINE
  8
0
 10
232.423
 20
85.4863
 11
232.513
 21
85.7159
  0
LINE
  8
0
 10
232.513
 20
85.7159
 11
232.637
 21
85.9295
  0
LINE
  8
0
 10
232.637
 20
85.9295
 11
232.79
 21
86.1223
  0
LINE
  8
0
 10
232.79
 20
86.1223
 11
232.971
 21
86.29
  0
LINE
  8
0
 10
232.971
 20
86.29
 11
233.175
 21
86.4289
  0
LINE
  8
0
 10
233.175
 20
86.4289
 11
233.397
 21
86.5359
  0
LINE
  8
0
 10
233.397
 20
86.5359
 11
233.633
 21
86.6086
  0
LINE
  8
0
 10
233.633
 20
86.6086
 11
233.877
 21
86.6454
  0
LINE
  8
0
 10
233.877
 20
86.6454
 11
274.123
 21
86.6454
  0
LINE
  8
0
 10
274.123
 20
86.6454
 11
274.367
 21
86.6086
  0
LINE
  8
0
 10
274.367
 20
86.6086
 11
274.603
 21
86.5359
  0
LINE
  8
0
 10
274.603
 20
86.5359
 11
274.825
 21
86.4289
  0
LINE
  8
0
 10
274.825
 20
86.4289
 11
275.029
 21
86.29
  0
LINE
  8
0
 10
275.029
 20
86.29
 11
275.21
 21
86.1223
  0
LINE
  8
0
 10
275.21
 20
86.1223
 11
275.363
 21
85.9295
  0
LINE
  8
0
 10
275.363
 20
85.9295
 11
275.487
 21
85.7159
  0
LINE
  8
0
 10
275.487
 20
85.7159
 11
275.577
 21
85.4863
  0
LINE
  8
0
 10
275.577
 20
85.4863
 11
275.632
 21
85.2459
  0
LINE
  8
0
 10
275.632
 20
85.2459
 11
275.65
 21
85
  0
LINE
  8
0
 10
275.65
 20
85
 11
275.632
 21
84.7541
  0
LINE
  8
0
 10
275.632
 20
84.7541
 11
275.577
 21
84.5137
  0
LINE
  8
0
 10
275.577
 20
84.5137
 11
275.487
 21
84.2841
  0
LINE
  8
0
 10
275.487
 20
84.2841
 11
275.363
 21
84.0705
  0
LINE
  8
0
 10
275.363
 20
84.0705
 11
275.21
 21
83.8777
  0
LINE
  8
0
 10
275.21
 20
83.8777
 11
275.029
 21
83.71
  0
LINE
  8
0
 10
275.029
 20
83.71
 11
274.825
 21
83.5711
  0
LINE
  8
0
 10
274.825
 20
83.5711
 11
274.603
 21
83.4641
  0
LINE
  8
0
 10
274.603
 20
83.4641
 11
274.367
 21
83.3914
  0
LINE
  8
0
 10
274.367
 20
83.3914
 11
274.123
 21
83.3546
  0
LINE
  8
0
 10
274.123
 20
83.3546
 11
233.877
 21
83.3546
  0
LINE
  8
0
 10
233.877
 20
83.3546
 11
233.633
 21
83.3914
  0
LINE
  8
0
 10
233.633
 20
83.3914
 11
233.397
 21
83.4641
  0
LINE
  8
0
 10
233.397
 20
83.4641
 11
233.175
 21
83.5711
  0
LINE
  8
0
 10
233.175
 20
83.5711
 11
232.971
 21
83.71
  0
LINE
  8
0
 10
232.971
 20
83.71
 11
232.79
 21
83.8777
  0
LINE
  8
0
 10
232.79
 20
83.8777
 11
232.637
 21
84.0705
  0
LINE
  8
0
 10
232.637
 20
84.0705
 11
232.513
 21
84.2841
  0
LINE
  8
0
 10
232.513
 20
84.2841
 11
232.423
 21
84.5137
  0
LINE
  8
0
 10
232.423
 20
84.5137
 11
232.368
 21
84.7541
  0
LINE
  8
0
 10
232.368
 20
84.7541
 11
232.35
 21
85
  0
LINE
  8
0
 10
232.35
 20
85
 11
232.368
 21
85.2459
  0
LINE
  8
0
 10
232.368
 20
85.2459
 11
232.423
 21
85.4863
  0
LINE
  8
0
 10
-189.457
 20
83.3546
 11
-189.701
 21
83.3914
  0
LINE
  8
0
 10
-189.701
 20
83.3914
 11
-189.936
 21
83.4641
  0
LINE
  8
0
 10
-189.936
 20
83.4641
 11
-190.158
 21
83.5711
  0
LINE
  8
0
 10
-190.158
 20
83.5711
 11
-190.362
 21
83.71
  0
LINE
  8
0
 10
-190.362
 20
83.71
 11
-190.543
 21
83.8777
  0
LINE
  8
0
 10
-190.543
 20
83.8777
 11
-190.697
 21
84.0705
  0
LINE
  8
0
 10
-190.697
 20
84.0705
 11
-190.82
 21
84.2841
  0
LINE
  8
0
 10
-190.82
 20
84.2841
 11
-190.91
 21
84.5137
  0
LINE
  8
0
 10
-190.91
 20
84.5137
 11
-190.965
 21
84.7541
  0
LINE
  8
0
 10
-190.965
 20
84.7541
 11
-190.983
 21
85
  0
LINE
  8
0
 10
-190.983
 20
85
 11
-190.965
 21
85.2459
  0
LINE
  8
0
 10
-190.965
 20
85.2459
 11
-190.91
 21
85.4863
  0
LINE
  8
0
 10
-190.91
 20
85.4863
 11
-190.82
 21
85.7159
  0
LINE
  8
0
 10
-190.82
 20
85.7159
 11
-190.697
 21
85.9295
  0
LINE
  8
0
 10
-190.697
 20
85.9295
 11
-190.543
 21
86.1223
  0
LINE
  8
0
 10
-190.543
 20
86.1223
 11
-190.362
 21
86.29
  0
LINE
  8
0
 10
-190.362
 20
86.29
 11
-190.158
 21
86.4289
  0
LINE
  8
0
 10
-190.158
 20
86.4289
 11
-189.936
 21
86.5359
  0
LINE
  8
0
 10
-189.936
 20
86.5359
 11
-189.701
 21
86.6086
  0
LINE
  8
0
 10
-189.701
 20
86.6086
 11
-189.457
 21
86.6454
  0
LINE
  8
0
 10
-189.457
 20
86.6454
 11
-149.21
 21
86.6454
  0
LINE
  8
0
 10
-149.21
 20
86.6454
 11
-148.966
 21
86.6086
  0
LINE
  8
0
 10
-148.966
 20
86.6086
 11
-148.731
 21
86.5359
  0
LINE
  8
0
 10
-148.731
 20
86.5359
 11
-148.508
 21
86.4289
  0
LINE
  8
0
 10
-148.508
 20
86.4289
 11
-148.305
 21
86.29
  0
LINE
  8
0
 10
-148.305
 20
86.29
 11
-148.124
 21
86.1223
  0
LINE
  8
0
 10
-148.124
 20
86.1223
 11
-147.97
 21
85.9295
  0
LINE
  8
0
 10
-147.97
 20
85.9295
 11
-147.847
 21
85.7159
  0
LINE
  8
0
 10
-147.847
 20
85.7159
 11
-147.757
 21
85.4863
  0
LINE
  8
0
 10
-147.757
 20
85.4863
 11
-147.702
 21
85.2459
  0
LINE
  8
0
 10
-147.702
 20
85.2459
 11
-147.683
 21
85
  0
LINE
  8
0
 10
-147.683
 20
85
 11
-147.702
 21
84.7541
  0
LINE
  8
0
 10
-147.702
 20
84.7541
 11
-147.757
 21
84.5137
  0
LINE
  8
0
 10
-147.757
 20
84.5137
 11
-147.847
 21
84.2841
  0
LINE
  8
0
 10
-147.847
 20
84.2841
 11
-147.97
 21
84.0705
  0
LINE
  8
0
 10
-147.97
 20
84.0705
 11
-148.124
 21
83.8777
  0
LINE
  8
0
 10
-148.124
 20
83.8777
 11
-148.305
 21
83.71
  0
LINE
  8
0
 10
-148.305
 20
83.71
 11
-148.508
 21
83.5711
  0
LINE
  8
0
 10
-148.508
 20
83.5711
 11
-148.731
 21
83.4641
  0
LINE
  8
0
 10
-148.731
 20
83.4641
 11
-148.966
 21
83.3914
  0
LINE
  8
0
 10
-148.966
 20
83.3914
 11
-149.21
 21
83.3546
  0
LINE
  8
0
 10
-149.21
 20
83.3546
 11
-189.457
 21
83.3546
  0
LINE
  8
0
 10
-20.1233
 20
83.3546
 11
-20.3672
 21
83.3914
  0
LINE
  8
0
 10
-20.3672
 20
83.3914
 11
-20.6028
 21
83.4641
  0
LINE
  8
0
 10
-20.6028
 20
83.4641
 11
-20.825
 21
83.5711
  0
LINE
  8
0
 10
-20.825
 20
83.5711
 11
-21.0287
 21
83.71
  0
LINE
  8
0
 10
-21.0287
 20
83.71
 11
-21.2095
 21
83.8777
  0
LINE
  8
0
 10
-21.2095
 20
83.8777
 11
-21.3633
 21
84.0705
  0
LINE
  8
0
 10
-21.3633
 20
84.0705
 11
-21.4866
 21
84.2841
  0
LINE
  8
0
 10
-21.4866
 20
84.2841
 11
-21.5767
 21
84.5137
  0
LINE
  8
0
 10
-21.5767
 20
84.5137
 11
-21.6316
 21
84.7541
  0
LINE
  8
0
 10
-21.6316
 20
84.7541
 11
-21.65
 21
85
  0
LINE
  8
0
 10
-21.65
 20
85
 11
-21.6316
 21
85.2459
  0
LINE
  8
0
 10
-21.6316
 20
85.2459
 11
-21.5767
 21
85.4863
  0
LINE
  8
0
 10
-21.5767
 20
85.4863
 11
-21.4866
 21
85.7159
  0
LINE
  8
0
 10
-21.4866
 20
85.7159
 11
-21.3633
 21
85.9295
  0
LINE
  8
0
 10
-21.3633
 20
85.9295
 11
-21.2095
 21
86.1223
  0
LINE
  8
0
 10
-21.2095
 20
86.1223
 11
-21.0287
 21
86.29
  0
LINE
  8
0
 10
-21.0287
 20
86.29
 11
-20.825
 21
86.4289
  0
LINE
  8
0
 10
-20.825
 20
86.4289
 11
-20.6028
 21
86.5359
  0
LINE
  8
0
 10
-20.6028
 20
86.5359
 11
-20.3672
 21
86.6086
  0
LINE
  8
0
 10
-20.3672
 20
86.6086
 11
-20.1233
 21
86.6454
  0
LINE
  8
0
 10
-20.1233
 20
86.6454
 11
20.1233
 21
86.6454
  0
LINE
  8
0
 10
20.1233
 20
86.6454
 11
20.3672
 21
86.6086
  0
LINE
  8
0
 10
20.3672
 20
86.6086
 11
20.6028
 21
86.5359
  0
LINE
  8
0
 10
20.6028
 20
86.5359
 11
20.825
 21
86.4289
  0
LINE
  8
0
 10
20.825
 20
86.4289
 11
21.0287
 21
86.29
  0
LINE
  8
0
 10
21.0287
 20
86.29
 11
21.2095
 21
86.1223
  0
LINE
  8
0
 10
21.2095
 20
86.1223
 11
21.3633
 21
85.9295
  0
LINE
  8
0
 10
21.3633
 20
85.9295
 11
21.4866
 21
85.7159
  0
LINE
  8
0
 10
21.4866
 20
85.7159
 11
21.5767
 21
85.4863
  0
LINE
  8
0
 10
21.5767
 20
85.4863
 11
21.6316
 21
85.2459
  0
LINE
  8
0
 10
21.6316
 20
85.2459
 11
21.65
 21
85
  0
LINE
  8
0
 10
21.65
 20
85
 11
21.6316
 21
84.7541
  0
LINE
  8
0
 10
21.6316
 20
84.7541
 11
21.5767
 21
84.5137
  0
LINE
  8
0
 10
21.5767
 20
84.5137
 11
21.4866
 21
84.2841
  0
LINE
  8
0
 10
21.4866
 20
84.2841
 11
21.3633
 21
84.0705
  0
LINE
  8
0
 10
21.3633
 20
84.0705
 11
21.2095
 21
83.8777
  0
LINE
  8
0
 10
21.2095
 20
83.8777
 11
21.0287
 21
83.71
  0
LINE
  8
0
 10
21.0287
 20
83.71
 11
20.825
 21
83.5711
  0
LINE
  8
0
 10
20.825
 20
83.5711
 11
20.6028
 21
83.4641
  0
LINE
  8
0
 10
20.6028
 20
83.4641
 11
20.3672
 21
83.3914
  0
LINE
  8
0
 10
20.3672
 20
83.3914
 11
20.1233
 21
83.3546
  0
LINE
  8
0
 10
20.1233
 20
83.3546
 11
-20.1233
 21
83.3546
  0
LINE
  8
0
 10
64.5434
 20
83.3546
 11
64.2995
 21
83.3914
  0
LINE
  8
0
 10
64.2995
 20
83.3914
 11
64.0638
 21
83.4641
  0
LINE
  8
0
 10
64.0638
 20
83.4641
 11
63.8417
 21
83.5711
  0
LINE
  8
0
 10
63.8417
 20
83.5711
 11
63.6379
 21
83.71
  0
LINE
  8
0
 10
63.6379
 20
83.71
 11
63.4571
 21
83.8777
  0
LINE
  8
0
 10
63.4571
 20
83.8777
 11
63.3034
 21
84.0705
  0
LINE
  8
0
 10
63.3034
 20
84.0705
 11
63.1801
 21
84.2841
  0
LINE
  8
0
 10
63.1801
 20
84.2841
 11
63.09
 21
84.5137
  0
LINE
  8
0
 10
63.09
 20
84.5137
 11
63.0351
 21
84.7541
  0
LINE
  8
0
 10
63.0351
 20
84.7541
 11
63.0167
 21
85
  0
LINE
  8
0
 10
63.0167
 20
85
 11
63.0351
 21
85.2459
  0
LINE
  8
0
 10
63.0351
 20
85.2459
 11
63.09
 21
85.4863
  0
LINE
  8
0
 10
63.09
 20
85.4863
 11
63.1801
 21
85.7159
  0
LINE
  8
0
 10
63.1801
 20
85.7159
 11
63.3034
 21
85.9295
  0
LINE
  8
0
 10
63.3034
 20
85.9295
 11
63.4571
 21
86.1223
  0
LINE
  8
0
 10
63.4571
 20
86.1223
 11
63.6379
 21
86.29
  0
LINE
  8
0
 10
63.6379
 20
86.29
 11
63.8417
 21
86.4289
  0
LINE
  8
0
 10
63.8417
 20
86.4289
 11
64.0638
 21
86.5359
  0
LINE
  8
0
 10
64.0638
 20
86.5359
 11
64.2995
 21
86.6086
  0
LINE
  8
0
 10
64.2995
 20
86.6086
 11
64.5434
 21
86.6454
  0
LINE
  8
0
 10
64.5434
 20
86.6454
 11
104.79
 21
86.6454
  0
LINE
  8
0
 10
104.79
 20
86.6454
 11
105.034
 21
86.6086
  0
LINE
  8
0
 10
105.034
 20
86.6086
 11
105.269
 21
86.5359
  0
LINE
  8
0
 10
105.269
 20
86.5359
 11
105.492
 21
86.4289
  0
LINE
  8
0
 10
105.492
 20
86.4289
 11
105.695
 21
86.29
  0
LINE
  8
0
 10
105.695
 20
86.29
 11
105.876
 21
86.1223
  0
LINE
  8
0
 10
105.876
 20
86.1223
 11
106.03
 21
85.9295
  0
LINE
  8
0
 10
106.03
 20
85.9295
 11
106.153
 21
85.7159
  0
LINE
  8
0
 10
106.153
 20
85.7159
 11
106.243
 21
85.4863
  0
LINE
  8
0
 10
106.243
 20
85.4863
 11
106.298
 21
85.2459
  0
LINE
  8
0
 10
106.298
 20
85.2459
 11
106.317
 21
85
  0
LINE
  8
0
 10
106.317
 20
85
 11
106.298
 21
84.7541
  0
LINE
  8
0
 10
106.298
 20
84.7541
 11
106.243
 21
84.5137
  0
LINE
  8
0
 10
106.243
 20
84.5137
 11
106.153
 21
84.2841
  0
LINE
  8
0
 10
106.153
 20
84.2841
 11
106.03
 21
84.0705
  0
LINE
  8
0
 10
106.03
 20
84.0705
 11
105.876
 21
83.8777
  0
LINE
  8
0
 10
105.876
 20
83.8777
 11
105.695
 21
83.71
  0
LINE
  8
0
 10
105.695
 20
83.71
 11
105.492
 21
83.5711
  0
LINE
  8
0
 10
105.492
 20
83.5711
 11
105.269
 21
83.4641
  0
LINE
  8
0
 10
105.269
 20
83.4641
 11
105.034
 21
83.3914
  0
LINE
  8
0
 10
105.034
 20
83.3914
 11
104.79
 21
83.3546
  0
LINE
  8
0
 10
104.79
 20
83.3546
 11
64.5434
 21
83.3546
  0
LINE
  8
0
 10
134.691
 20
60.8283
 11
134.451
 21
60.8911
  0
LINE
  8
0
 10
134.451
 20
60.8911
 11
134.223
 21
60.9881
  0
LINE
  8
0
 10
134.223
 20
60.9881
 11
134.011
 21
61.1174
  0
LINE
  8
0
 10
134.011
 20
61.1174
 11
133.82
 21
61.2762
  0
LINE
  8
0
 10
133.82
 20
61.2762
 11
133.654
 21
61.461
  0
LINE
  8
0
 10
133.654
 20
61.461
 11
133.518
 21
61.668
  0
LINE
  8
0
 10
133.518
 20
61.668
 11
133.412
 21
61.8927
  0
LINE
  8
0
 10
133.412
 20
61.8927
 11
133.341
 21
62.1304
  0
LINE
  8
0
 10
133.341
 20
62.1304
 11
133.305
 21
62.3759
  0
LINE
  8
0
 10
133.305
 20
62.3759
 11
133.305
 21
62.6241
  0
LINE
  8
0
 10
133.305
 20
62.6241
 11
133.341
 21
62.8696
  0
LINE
  8
0
 10
133.341
 20
62.8696
 11
133.412
 21
63.1073
  0
LINE
  8
0
 10
133.412
 20
63.1073
 11
133.518
 21
63.332
  0
LINE
  8
0
 10
133.518
 20
63.332
 11
133.654
 21
63.539
  0
LINE
  8
0
 10
133.654
 20
63.539
 11
133.82
 21
63.7238
  0
LINE
  8
0
 10
133.82
 20
63.7238
 11
134.011
 21
63.8826
  0
LINE
  8
0
 10
134.011
 20
63.8826
 11
134.223
 21
64.0119
  0
LINE
  8
0
 10
134.223
 20
64.0119
 11
134.451
 21
64.1089
  0
LINE
  8
0
 10
134.451
 20
64.1089
 11
134.691
 21
64.1717
  0
LINE
  8
0
 10
134.691
 20
64.1717
 11
134.938
 21
64.1989
  0
LINE
  8
0
 10
134.938
 20
64.1989
 11
135.186
 21
64.1898
  0
LINE
  8
0
 10
135.186
 20
64.1898
 11
135.43
 21
64.1447
  0
LINE
  8
0
 10
135.43
 20
64.1447
 11
135.665
 21
64.0646
  0
LINE
  8
0
 10
135.665
 20
64.0646
 11
135.886
 21
63.9511
  0
LINE
  8
0
 10
135.886
 20
63.9511
 11
136.087
 21
63.8067
  0
LINE
  8
0
 10
136.087
 20
63.8067
 11
136.266
 21
63.6344
  0
LINE
  8
0
 10
136.266
 20
63.6344
 11
136.418
 21
63.438
  0
LINE
  8
0
 10
136.418
 20
63.438
 11
136.539
 21
63.2216
  0
LINE
  8
0
 10
136.539
 20
63.2216
 11
136.628
 21
62.9898
  0
LINE
  8
0
 10
136.628
 20
62.9898
 11
136.682
 21
62.7475
  0
LINE
  8
0
 10
136.682
 20
62.7475
 11
136.7
 21
62.5
  0
LINE
  8
0
 10
136.7
 20
62.5
 11
136.682
 21
62.2525
  0
LINE
  8
0
 10
136.682
 20
62.2525
 11
136.628
 21
62.0102
  0
LINE
  8
0
 10
136.628
 20
62.0102
 11
136.539
 21
61.7784
  0
LINE
  8
0
 10
136.539
 20
61.7784
 11
136.418
 21
61.562
  0
LINE
  8
0
 10
136.418
 20
61.562
 11
136.266
 21
61.3656
  0
LINE
  8
0
 10
136.266
 20
61.3656
 11
136.087
 21
61.1933
  0
LINE
  8
0
 10
136.087
 20
61.1933
 11
135.886
 21
61.0489
  0
LINE
  8
0
 10
135.886
 20
61.0489
 11
135.665
 21
60.9354
  0
LINE
  8
0
 10
135.665
 20
60.9354
 11
135.43
 21
60.8553
  0
LINE
  8
0
 10
135.43
 20
60.8553
 11
135.186
 21
60.8102
  0
LINE
  8
0
 10
135.186
 20
60.8102
 11
134.938
 21
60.8011
  0
LINE
  8
0
 10
134.938
 20
60.8011
 11
134.691
 21
60.8283
  0
LINE
  8
0
 10
-225.309
 20
60.8283
 11
-225.549
 21
60.8911
  0
LINE
  8
0
 10
-225.549
 20
60.8911
 11
-225.777
 21
60.9881
  0
LINE
  8
0
 10
-225.777
 20
60.9881
 11
-225.989
 21
61.1174
  0
LINE
  8
0
 10
-225.989
 20
61.1174
 11
-226.18
 21
61.2762
  0
LINE
  8
0
 10
-226.18
 20
61.2762
 11
-226.346
 21
61.461
  0
LINE
  8
0
 10
-226.346
 20
61.461
 11
-226.482
 21
61.668
  0
LINE
  8
0
 10
-226.482
 20
61.668
 11
-226.588
 21
61.8927
  0
LINE
  8
0
 10
-226.588
 20
61.8927
 11
-226.659
 21
62.1304
  0
LINE
  8
0
 10
-226.659
 20
62.1304
 11
-226.695
 21
62.3759
  0
LINE
  8
0
 10
-226.695
 20
62.3759
 11
-226.695
 21
62.6241
  0
LINE
  8
0
 10
-226.695
 20
62.6241
 11
-226.659
 21
62.8696
  0
LINE
  8
0
 10
-226.659
 20
62.8696
 11
-226.588
 21
63.1073
  0
LINE
  8
0
 10
-226.588
 20
63.1073
 11
-226.482
 21
63.332
  0
LINE
  8
0
 10
-226.482
 20
63.332
 11
-226.346
 21
63.539
  0
LINE
  8
0
 10
-226.346
 20
63.539
 11
-226.18
 21
63.7238
  0
LINE
  8
0
 10
-226.18
 20
63.7238
 11
-225.989
 21
63.8826
  0
LINE
  8
0
 10
-225.989
 20
63.8826
 11
-225.777
 21
64.0119
  0
LINE
  8
0
 10
-225.777
 20
64.0119
 11
-225.549
 21
64.1089
  0
LINE
  8
0
 10
-225.549
 20
64.1089
 11
-225.309
 21
64.1717
  0
LINE
  8
0
 10
-225.309
 20
64.1717
 11
-225.062
 21
64.1989
  0
LINE
  8
0
 10
-225.062
 20
64.1989
 11
-224.814
 21
64.1898
  0
LINE
  8
0
 10
-224.814
 20
64.1898
 11
-224.57
 21
64.1447
  0
LINE
  8
0
 10
-224.57
 20
64.1447
 11
-224.335
 21
64.0646
  0
LINE
  8
0
 10
-224.335
 20
64.0646
 11
-224.114
 21
63.9511
  0
LINE
  8
0
 10
-224.114
 20
63.9511
 11
-223.913
 21
63.8067
  0
LINE
  8
0
 10
-223.913
 20
63.8067
 11
-223.734
 21
63.6344
  0
LINE
  8
0
 10
-223.734
 20
63.6344
 11
-223.582
 21
63.438
  0
LINE
  8
0
 10
-223.582
 20
63.438
 11
-223.461
 21
63.2216
  0
LINE
  8
0
 10
-223.461
 20
63.2216
 11
-223.372
 21
62.9898
  0
LINE
  8
0
 10
-223.372
 20
62.9898
 11
-223.318
 21
62.7475
  0
LINE
  8
0
 10
-223.318
 20
62.7475
 11
-223.3
 21
62.5
  0
LINE
  8
0
 10
-223.3
 20
62.5
 11
-223.318
 21
62.2525
  0
LINE
  8
0
 10
-223.318
 20
62.2525
 11
-223.372
 21
62.0102
  0
LINE
  8
0
 10
-223.372
 20
62.0102
 11
-223.461
 21
61.7784
  0
LINE
  8
0
 10
-223.461
 20
61.7784
 11
-223.582
 21
61.562
  0
LINE
  8
0
 10
-223.582
 20
61.562
 11
-223.734
 21
61.3656
  0
LINE
  8
0
 10
-223.734
 20
61.3656
 11
-223.913
 21
61.1933
  0
LINE
  8
0
 10
-223.913
 20
61.1933
 11
-224.114
 21
61.0489
  0
LINE
  8
0
 10
-224.114
 20
61.0489
 11
-224.335
 21
60.9354
  0
LINE
  8
0
 10
-224.335
 20
60.9354
 11
-224.57
 21
60.8553
  0
LINE
  8
0
 10
-224.57
 20
60.8553
 11
-224.814
 21
60.8102
  0
LINE
  8
0
 10
-224.814
 20
60.8102
 11
-225.062
 21
60.8011
  0
LINE
  8
0
 10
-225.062
 20
60.8011
 11
-225.309
 21
60.8283
  0
LINE
  8
0
 10
-135.309
 20
60.8283
 11
-135.549
 21
60.8911
  0
LINE
  8
0
 10
-135.549
 20
60.8911
 11
-135.777
 21
60.9881
  0
LINE
  8
0
 10
-135.777
 20
60.9881
 11
-135.989
 21
61.1174
  0
LINE
  8
0
 10
-135.989
 20
61.1174
 11
-136.18
 21
61.2762
  0
LINE
  8
0
 10
-136.18
 20
61.2762
 11
-136.346
 21
61.461
  0
LINE
  8
0
 10
-136.346
 20
61.461
 11
-136.482
 21
61.668
  0
LINE
  8
0
 10
-136.482
 20
61.668
 11
-136.588
 21
61.8927
  0
LINE
  8
0
 10
-136.588
 20
61.8927
 11
-136.659
 21
62.1304
  0
LINE
  8
0
 10
-136.659
 20
62.1304
 11
-136.695
 21
62.3759
  0
LINE
  8
0
 10
-136.695
 20
62.3759
 11
-136.695
 21
62.6241
  0
LINE
  8
0
 10
-136.695
 20
62.6241
 11
-136.659
 21
62.8696
  0
LINE
  8
0
 10
-136.659
 20
62.8696
 11
-136.588
 21
63.1073
  0
LINE
  8
0
 10
-136.588
 20
63.1073
 11
-136.482
 21
63.332
  0
LINE
  8
0
 10
-136.482
 20
63.332
 11
-136.346
 21
63.539
  0
LINE
  8
0
 10
-136.346
 20
63.539
 11
-136.18
 21
63.7238
  0
LINE
  8
0
 10
-136.18
 20
63.7238
 11
-135.989
 21
63.8826
  0
LINE
  8
0
 10
-135.989
 20
63.8826
 11
-135.777
 21
64.0119
  0
LINE
  8
0
 10
-135.777
 20
64.0119
 11
-135.549
 21
64.1089
  0
LINE
  8
0
 10
-135.549
 20
64.1089
 11
-135.309
 21
64.1717
  0
LINE
  8
0
 10
-135.309
 20
64.1717
 11
-135.062
 21
64.1989
  0
LINE
  8
0
 10
-135.062
 20
64.1989
 11
-134.814
 21
64.1898
  0
LINE
  8
0
 10
-134.814
 20
64.1898
 11
-134.57
 21
64.1447
  0
LINE
  8
0
 10
-134.57
 20
64.1447
 11
-134.335
 21
64.0646
  0
LINE
  8
0
 10
-134.335
 20
64.0646
 11
-134.114
 21
63.9511
  0
LINE
  8
0
 10
-134.114
 20
63.9511
 11
-133.913
 21
63.8067
  0
LINE
  8
0
 10
-133.913
 20
63.8067
 11
-133.734
 21
63.6344
  0
LINE
  8
0
 10
-133.734
 20
63.6344
 11
-133.582
 21
63.438
  0
LINE
  8
0
 10
-133.582
 20
63.438
 11
-133.461
 21
63.2216
  0
LINE
  8
0
 10
-133.461
 20
63.2216
 11
-133.372
 21
62.9898
  0
LINE
  8
0
 10
-133.372
 20
62.9898
 11
-133.318
 21
62.7475
  0
LINE
  8
0
 10
-133.318
 20
62.7475
 11
-133.3
 21
62.5
  0
LINE
  8
0
 10
-133.3
 20
62.5
 11
-133.318
 21
62.2525
  0
LINE
  8
0
 10
-133.318
 20
62.2525
 11
-133.372
 21
62.0102
  0
LINE
  8
0
 10
-133.372
 20
62.0102
 11
-133.461
 21
61.7784
  0
LINE
  8
0
 10
-133.461
 20
61.7784
 11
-133.582
 21
61.562
  0
LINE
  8
0
 10
-133.582
 20
61.562
 11
-133.734
 21
61.3656
  0
LINE
  8
0
 10
-133.734
 20
61.3656
 11
-133.913
 21
61.1933
  0
LINE
  8
0
 10
-133.913
 20
61.1933
 11
-134.114
 21
61.0489
  0
LINE
  8
0
 10
-134.114
 20
61.0489
 11
-134.335
 21
60.9354
  0
LINE
  8
0
 10
-134.335
 20
60.9354
 11
-134.57
 21
60.8553
  0
LINE
  8
0
 10
-134.57
 20
60.8553
 11
-134.814
 21
60.8102
  0
LINE
  8
0
 10
-134.814
 20
60.8102
 11
-135.062
 21
60.8011
  0
LINE
  8
0
 10
-135.062
 20
60.8011
 11
-135.309
 21
60.8283
  0
LINE
  8
0
 10
224.691
 20
60.8283
 11
224.451
 21
60.8911
  0
LINE
  8
0
 10
224.451
 20
60.8911
 11
224.223
 21
60.9881
  0
LINE
  8
0
 10
224.223
 20
60.9881
 11
224.011
 21
61.1174
  0
LINE
  8
0
 10
224.011
 20
61.1174
 11
223.82
 21
61.2762
  0
LINE
  8
0
 10
223.82
 20
61.2762
 11
223.654
 21
61.461
  0
LINE
  8
0
 10
223.654
 20
61.461
 11
223.518
 21
61.668
  0
LINE
  8
0
 10
223.518
 20
61.668
 11
223.412
 21
61.8927
  0
LINE
  8
0
 10
223.412
 20
61.8927
 11
223.341
 21
62.1304
  0
LINE
  8
0
 10
223.341
 20
62.1304
 11
223.305
 21
62.3759
  0
LINE
  8
0
 10
223.305
 20
62.3759
 11
223.305
 21
62.6241
  0
LINE
  8
0
 10
223.305
 20
62.6241
 11
223.341
 21
62.8696
  0
LINE
  8
0
 10
223.341
 20
62.8696
 11
223.412
 21
63.1073
  0
LINE
  8
0
 10
223.412
 20
63.1073
 11
223.518
 21
63.332
  0
LINE
  8
0
 10
223.518
 20
63.332
 11
223.654
 21
63.539
  0
LINE
  8
0
 10
223.654
 20
63.539
 11
223.82
 21
63.7238
  0
LINE
  8
0
 10
223.82
 20
63.7238
 11
224.011
 21
63.8826
  0
LINE
  8
0
 10
224.011
 20
63.8826
 11
224.223
 21
64.0119
  0
LINE
  8
0
 10
224.223
 20
64.0119
 11
224.451
 21
64.1089
  0
LINE
  8
0
 10
224.451
 20
64.1089
 11
224.691
 21
64.1717
  0
LINE
  8
0
 10
224.691
 20
64.1717
 11
224.938
 21
64.1989
  0
LINE
  8
0
 10
224.938
 20
64.1989
 11
225.186
 21
64.1898
  0
LINE
  8
0
 10
225.186
 20
64.1898
 11
225.43
 21
64.1447
  0
LINE
  8
0
 10
225.43
 20
64.1447
 11
225.665
 21
64.0646
  0
LINE
  8
0
 10
225.665
 20
64.0646
 11
225.886
 21
63.9511
  0
LINE
  8
0
 10
225.886
 20
63.9511
 11
226.087
 21
63.8067
  0
LINE
  8
0
 10
226.087
 20
63.8067
 11
226.266
 21
63.6344
  0
LINE
  8
0
 10
226.266
 20
63.6344
 11
226.418
 21
63.438
  0
LINE
  8
0
 10
226.418
 20
63.438
 11
226.539
 21
63.2216
  0
LINE
  8
0
 10
226.539
 20
63.2216
 11
226.628
 21
62.9898
  0
LINE
  8
0
 10
226.628
 20
62.9898
 11
226.682
 21
62.7475
  0
LINE
  8
0
 10
226.682
 20
62.7475
 11
226.7
 21
62.5
  0
LINE
  8
0
 10
226.7
 20
62.5
 11
226.682
 21
62.2525
  0
LINE
  8
0
 10
226.682
 20
62.2525
 11
226.628
 21
62.0102
  0
LINE
  8
0
 10
226.628
 20
62.0102
 11
226.539
 21
61.7784
  0
LINE
  8
0
 10
226.539
 20
61.7784
 11
226.418
 21
61.562
  0
LINE
  8
0
 10
226.418
 20
61.562
 11
226.266
 21
61.3656
  0
LINE
  8
0
 10
226.266
 20
61.3656
 11
226.087
 21
61.1933
  0
LINE
  8
0
 10
226.087
 20
61.1933
 11
225.886
 21
61.0489
  0
LINE
  8
0
 10
225.886
 20
61.0489
 11
225.665
 21
60.9354
  0
LINE
  8
0
 10
225.665
 20
60.9354
 11
225.43
 21
60.8553
  0
LINE
  8
0
 10
225.43
 20
60.8553
 11
225.186
 21
60.8102
  0
LINE
  8
0
 10
225.186
 20
60.8102
 11
224.938
 21
60.8011
  0
LINE
  8
0
 10
224.938
 20
60.8011
 11
224.691
 21
60.8283
  0
LINE
  8
0
 10
44.6912
 20
60.8283
 11
44.4511
 21
60.8911
  0
LINE
  8
0
 10
44.4511
 20
60.8911
 11
44.2227
 21
60.9881
  0
LINE
  8
0
 10
44.2227
 20
60.9881
 11
44.0108
 21
61.1174
  0
LINE
  8
0
 10
44.0108
 20
61.1174
 11
43.8201
 21
61.2762
  0
LINE
  8
0
 10
43.8201
 20
61.2762
 11
43.6544
 21
61.461
  0
LINE
  8
0
 10
43.6544
 20
61.461
 11
43.5175
 21
61.668
  0
LINE
  8
0
 10
43.5175
 20
61.668
 11
43.4122
 21
61.8927
  0
LINE
  8
0
 10
43.4122
 20
61.8927
 11
43.3407
 21
62.1304
  0
LINE
  8
0
 10
43.3407
 20
62.1304
 11
43.3045
 21
62.3759
  0
LINE
  8
0
 10
43.3045
 20
62.3759
 11
43.3045
 21
62.6241
  0
LINE
  8
0
 10
43.3045
 20
62.6241
 11
43.3407
 21
62.8696
  0
LINE
  8
0
 10
43.3407
 20
62.8696
 11
43.4122
 21
63.1073
  0
LINE
  8
0
 10
43.4122
 20
63.1073
 11
43.5175
 21
63.332
  0
LINE
  8
0
 10
43.5175
 20
63.332
 11
43.6544
 21
63.539
  0
LINE
  8
0
 10
43.6544
 20
63.539
 11
43.8201
 21
63.7238
  0
LINE
  8
0
 10
43.8201
 20
63.7238
 11
44.0108
 21
63.8826
  0
LINE
  8
0
 10
44.0108
 20
63.8826
 11
44.2227
 21
64.0119
  0
LINE
  8
0
 10
44.2227
 20
64.0119
 11
44.4511
 21
64.1089
  0
LINE
  8
0
 10
44.4511
 20
64.1089
 11
44.6912
 21
64.1717
  0
LINE
  8
0
 10
44.6912
 20
64.1717
 11
44.9379
 21
64.1989
  0
LINE
  8
0
 10
44.9379
 20
64.1989
 11
45.1859
 21
64.1898
  0
LINE
  8
0
 10
45.1859
 20
64.1898
 11
45.43
 21
64.1447
  0
LINE
  8
0
 10
45.43
 20
64.1447
 11
45.6649
 21
64.0646
  0
LINE
  8
0
 10
45.6649
 20
64.0646
 11
45.8856
 21
63.9511
  0
LINE
  8
0
 10
45.8856
 20
63.9511
 11
46.0874
 21
63.8067
  0
LINE
  8
0
 10
46.0874
 20
63.8067
 11
46.2661
 21
63.6344
  0
LINE
  8
0
 10
46.2661
 20
63.6344
 11
46.4178
 21
63.438
  0
LINE
  8
0
 10
46.4178
 20
63.438
 11
46.5393
 21
63.2216
  0
LINE
  8
0
 10
46.5393
 20
63.2216
 11
46.6279
 21
62.9898
  0
LINE
  8
0
 10
46.6279
 20
62.9898
 11
46.6819
 21
62.7475
  0
LINE
  8
0
 10
46.6819
 20
62.7475
 11
46.7
 21
62.5
  0
LINE
  8
0
 10
46.7
 20
62.5
 11
46.6819
 21
62.2525
  0
LINE
  8
0
 10
46.6819
 20
62.2525
 11
46.6279
 21
62.0102
  0
LINE
  8
0
 10
46.6279
 20
62.0102
 11
46.5393
 21
61.7784
  0
LINE
  8
0
 10
46.5393
 20
61.7784
 11
46.4178
 21
61.562
  0
LINE
  8
0
 10
46.4178
 20
61.562
 11
46.2661
 21
61.3656
  0
LINE
  8
0
 10
46.2661
 20
61.3656
 11
46.0874
 21
61.1933
  0
LINE
  8
0
 10
46.0874
 20
61.1933
 11
45.8856
 21
61.0489
  0
LINE
  8
0
 10
45.8856
 20
61.0489
 11
45.6649
 21
60.9354
  0
LINE
  8
0
 10
45.6649
 20
60.9354
 11
45.43
 21
60.8553
  0
LINE
  8
0
 10
45.43
 20
60.8553
 11
45.1859
 21
60.8102
  0
LINE
  8
0
 10
45.1859
 20
60.8102
 11
44.9379
 21
60.8011
  0
LINE
  8
0
 10
44.9379
 20
60.8011
 11
44.6912
 21
60.8283
  0
LINE
  8
0
 10
-45.3088
 20
60.8283
 11
-45.5489
 21
60.8911
  0
LINE
  8
0
 10
-45.5489
 20
60.8911
 11
-45.7773
 21
60.9881
  0
LINE
  8
0
 10
-45.7773
 20
60.9881
 11
-45.9892
 21
61.1174
  0
LINE
  8
0
 10
-45.9892
 20
61.1174
 11
-46.1799
 21
61.2762
  0
LINE
  8
0
 10
-46.1799
 20
61.2762
 11
-46.3455
 21
61.461
  0
LINE
  8
0
 10
-46.3455
 20
61.461
 11
-46.4825
 21
61.668
  0
LINE
  8
0
 10
-46.4825
 20
61.668
 11
-46.5878
 21
61.8927
  0
LINE
  8
0
 10
-46.5878
 20
61.8927
 11
-46.6593
 21
62.1304
  0
LINE
  8
0
 10
-46.6593
 20
62.1304
 11
-46.6955
 21
62.3759
  0
LINE
  8
0
 10
-46.6955
 20
62.3759
 11
-46.6955
 21
62.6241
  0
LINE
  8
0
 10
-46.6955
 20
62.6241
 11
-46.6593
 21
62.8696
  0
LINE
  8
0
 10
-46.6593
 20
62.8696
 11
-46.5878
 21
63.1073
  0
LINE
  8
0
 10
-46.5878
 20
63.1073
 11
-46.4825
 21
63.332
  0
LINE
  8
0
 10
-46.4825
 20
63.332
 11
-46.3455
 21
63.539
  0
LINE
  8
0
 10
-46.3455
 20
63.539
 11
-46.1799
 21
63.7238
  0
LINE
  8
0
 10
-46.1799
 20
63.7238
 11
-45.9892
 21
63.8826
  0
LINE
  8
0
 10
-45.9892
 20
63.8826
 11
-45.7773
 21
64.0119
  0
LINE
  8
0
 10
-45.7773
 20
64.0119
 11
-45.5489
 21
64.1089
  0
LINE
  8
0
 10
-45.5489
 20
64.1089
 11
-45.3088
 21
64.1717
  0
LINE
  8
0
 10
-45.3088
 20
64.1717
 11
-45.0621
 21
64.1989
  0
LINE
  8
0
 10
-45.0621
 20
64.1989
 11
-44.8141
 21
64.1898
  0
LINE
  8
0
 10
-44.8141
 20
64.1898
 11
-44.57
 21
64.1447
  0
LINE
  8
0
 10
-44.57
 20
64.1447
 11
-44.3351
 21
64.0646
  0
LINE
  8
0
 10
-44.3351
 20
64.0646
 11
-44.1144
 21
63.9511
  0
LINE
  8
0
 10
-44.1144
 20
63.9511
 11
-43.9126
 21
63.8067
  0
LINE
  8
0
 10
-43.9126
 20
63.8067
 11
-43.7339
 21
63.6344
  0
LINE
  8
0
 10
-43.7339
 20
63.6344
 11
-43.5822
 21
63.438
  0
LINE
  8
0
 10
-43.5822
 20
63.438
 11
-43.4607
 21
63.2216
  0
LINE
  8
0
 10
-43.4607
 20
63.2216
 11
-43.3721
 21
62.9898
  0
LINE
  8
0
 10
-43.3721
 20
62.9898
 11
-43.3181
 21
62.7475
  0
LINE
  8
0
 10
-43.3181
 20
62.7475
 11
-43.3
 21
62.5
  0
LINE
  8
0
 10
-43.3
 20
62.5
 11
-43.3181
 21
62.2525
  0
LINE
  8
0
 10
-43.3181
 20
62.2525
 11
-43.3721
 21
62.0102
  0
LINE
  8
0
 10
-43.3721
 20
62.0102
 11
-43.4607
 21
61.7784
  0
LINE
  8
0
 10
-43.4607
 20
61.7784
 11
-43.5822
 21
61.562
  0
LINE
  8
0
 10
-43.5822
 20
61.562
 11
-43.7339
 21
61.3656
  0
LINE
  8
0
 10
-43.7339
 20
61.3656
 11
-43.9126
 21
61.1933
  0
LINE
  8
0
 10
-43.9126
 20
61.1933
 11
-44.1144
 21
61.0489
  0
LINE
  8
0
 10
-44.1144
 20
61.0489
 11
-44.3351
 21
60.9354
  0
LINE
  8
0
 10
-44.3351
 20
60.9354
 11
-44.57
 21
60.8553
  0
LINE
  8
0
 10
-44.57
 20
60.8553
 11
-44.8141
 21
60.8102
  0
LINE
  8
0
 10
-44.8141
 20
60.8102
 11
-45.0621
 21
60.8011
  0
LINE
  8
0
 10
-45.0621
 20
60.8011
 11
-45.3088
 21
60.8283
  0
LINE
  8
0
 10
296.254
 20
20.8684
 11
296.014
 21
20.9233
  0
LINE
  8
0
 10
296.014
 20
20.9233
 11
295.784
 21
21.0134
  0
LINE
  8
0
 10
295.784
 20
21.0134
 11
295.571
 21
21.1367
  0
LINE
  8
0
 10
295.571
 20
21.1367
 11
295.378
 21
21.2905
  0
LINE
  8
0
 10
295.378
 20
21.2905
 11
295.21
 21
21.4712
  0
LINE
  8
0
 10
295.21
 20
21.4712
 11
295.071
 21
21.675
  0
LINE
  8
0
 10
295.071
 20
21.675
 11
294.964
 21
21.8972
  0
LINE
  8
0
 10
294.964
 20
21.8972
 11
294.891
 21
22.1328
  0
LINE
  8
0
 10
294.891
 20
22.1328
 11
294.855
 21
22.3767
  0
LINE
  8
0
 10
294.855
 20
22.3767
 11
294.855
 21
62.6233
  0
LINE
  8
0
 10
294.855
 20
62.6233
 11
294.891
 21
62.8672
  0
LINE
  8
0
 10
294.891
 20
62.8672
 11
294.964
 21
63.1028
  0
LINE
  8
0
 10
294.964
 20
63.1028
 11
295.071
 21
63.325
  0
LINE
  8
0
 10
295.071
 20
63.325
 11
295.21
 21
63.5287
  0
LINE
  8
0
 10
295.21
 20
63.5287
 11
295.378
 21
63.7095
  0
LINE
  8
0
 10
295.378
 20
63.7095
 11
295.571
 21
63.8633
  0
LINE
  8
0
 10
295.571
 20
63.8633
 11
295.784
 21
63.9866
  0
LINE
  8
0
 10
295.784
 20
63.9866
 11
296.014
 21
64.0767
  0
LINE
  8
0
 10
296.014
 20
64.0767
 11
296.254
 21
64.1316
  0
LINE
  8
0
 10
296.254
 20
64.1316
 11
296.5
 21
64.15
  0
LINE
  8
0
 10
296.5
 20
64.15
 11
296.746
 21
64.1316
  0
LINE
  8
0
 10
296.746
 20
64.1316
 11
296.986
 21
64.0767
  0
LINE
  8
0
 10
296.986
 20
64.0767
 11
297.216
 21
63.9866
  0
LINE
  8
0
 10
297.216
 20
63.9866
 11
297.429
 21
63.8633
  0
LINE
  8
0
 10
297.429
 20
63.8633
 11
297.622
 21
63.7095
  0
LINE
  8
0
 10
297.622
 20
63.7095
 11
297.79
 21
63.5287
  0
LINE
  8
0
 10
297.79
 20
63.5287
 11
297.929
 21
63.325
  0
LINE
  8
0
 10
297.929
 20
63.325
 11
298.036
 21
63.1028
  0
LINE
  8
0
 10
298.036
 20
63.1028
 11
298.109
 21
62.8672
  0
LINE
  8
0
 10
298.109
 20
62.8672
 11
298.145
 21
62.6233
  0
LINE
  8
0
 10
298.145
 20
62.6233
 11
298.145
 21
22.3767
  0
LINE
  8
0
 10
298.145
 20
22.3767
 11
298.109
 21
22.1328
  0
LINE
  8
0
 10
298.109
 20
22.1328
 11
298.036
 21
21.8972
  0
LINE
  8
0
 10
298.036
 20
21.8972
 11
297.929
 21
21.675
  0
LINE
  8
0
 10
297.929
 20
21.675
 11
297.79
 21
21.4712
  0
LINE
  8
0
 10
297.79
 20
21.4712
 11
297.622
 21
21.2905
  0
LINE
  8
0
 10
297.622
 20
21.2905
 11
297.429
 21
21.1367
  0
LINE
  8
0
 10
297.429
 20
21.1367
 11
297.216
 21
21.0134
  0
LINE
  8
0
 10
297.216
 20
21.0134
 11
296.986
 21
20.9233
  0
LINE
  8
0
 10
296.986
 20
20.9233
 11
296.746
 21
20.8684
  0
LINE
  8
0
 10
296.746
 20
20.8684
 11
296.5
 21
20.85
  0
LINE
  8
0
 10
296.5
 20
20.85
 11
296.254
 21
20.8684
  0
LINE
  8
0
 10
-296.746
 20
20.8684
 11
-296.986
 21
20.9233
  0
LINE
  8
0
 10
-296.986
 20
20.9233
 11
-297.216
 21
21.0134
  0
LINE
  8
0
 10
-297.216
 20
21.0134
 11
-297.429
 21
21.1367
  0
LINE
  8
0
 10
-297.429
 20
21.1367
 11
-297.622
 21
21.2905
  0
LINE
  8
0
 10
-297.622
 20
21.2905
 11
-297.79
 21
21.4712
  0
LINE
  8
0
 10
-297.79
 20
21.4712
 11
-297.929
 21
21.675
  0
LINE
  8
0
 10
-297.929
 20
21.675
 11
-298.036
 21
21.8972
  0
LINE
  8
0
 10
-298.036
 20
21.8972
 11
-298.109
 21
22.1328
  0
LINE
  8
0
 10
-298.109
 20
22.1328
 11
-298.145
 21
22.3767
  0
LINE
  8
0
 10
-298.145
 20
22.3767
 11
-298.145
 21
62.6233
  0
LINE
  8
0
 10
-298.145
 20
62.6233
 11
-298.109
 21
62.8672
  0
LINE
  8
0
 10
-298.109
 20
62.8672
 11
-298.036
 21
63.1028
  0
LINE
  8
0
 10
-298.036
 20
63.1028
 11
-297.929
 21
63.325
  0
LINE
  8
0
 10
-297.929
 20
63.325
 11
-297.79
 21
63.5287
  0
LINE
  8
0
 10
-297.79
 20
63.5287
 11
-297.622
 21
63.7095
  0
LINE
  8
0
 10
-297.622
 20
63.7095
 11
-297.429
 21
63.8633
  0
LINE
  8
0
 10
-297.429
 20
63.8633
 11
-297.216
 21
63.9866
  0
LINE
  8
0
 10
-297.216
 20
63.9866
 11
-296.986
 21
64.0767
  0
LINE
  8
0
 10
-296.986
 20
64.0767
 11
-296.746
 21
64.1316
  0
LINE
  8
0
 10
-296.746
 20
64.1316
 11
-296.5
 21
64.15
  0
LINE
  8
0
 10
-296.5
 20
64.15
 11
-296.254
 21
64.1316
  0
LINE
  8
0
 10
-296.254
 20
64.1316
 11
-296.014
 21
64.0767
  0
LINE
  8
0
 10
-296.014
 20
64.0767
 11
-295.784
 21
63.9866
  0
LINE
  8
0
 10
-295.784
 20
63.9866
 11
-295.571
 21
63.8633
  0
LINE
  8
0
 10
-295.571
 20
63.8633
 11
-295.378
 21
63.7095
  0
LINE
  8
0
 10
-295.378
 20
63.7095
 11
-295.21
 21
63.5287
  0
LINE
  8
0
 10
-295.21
 20
63.5287
 11
-295.071
 21
63.325
  0
LINE
  8
0
 10
-295.071
 20
63.325
 11
-294.964
 21
63.1028
  0
LINE
  8
0
 10
-294.964
 20
63.1028
 11
-294.891
 21
62.8672
  0
LINE
  8
0
 10
-294.891
 20
62.8672
 11
-294.855
 21
62.6233
  0
LINE
  8
0
 10
-294.855
 20
62.6233
 11
-294.855
 21
22.3767
  0
LINE
  8
0
 10
-294.855
 20
22.3767
 11
-294.891
 21
22.1328
  0
LINE
  8
0
 10
-294.891
 20
22.1328
 11
-294.964
 21
21.8972
  0
LINE
  8
0
 10
-294.964
 20
21.8972
 11
-295.071
 21
21.675
  0
LINE
  8
0
 10
-295.071
 20
21.675
 11
-295.21
 21
21.4712
  0
LINE
  8
0
 10
-295.21
 20
21.4712
 11
-295.378
 21
21.2905
  0
LINE
  8
0
 10
-295.378
 20
21.2905
 11
-295.571
 21
21.1367
  0
LINE
  8
0
 10
-295.571
 20
21.1367
 11
-295.784
 21
21.0134
  0
LINE
  8
0
 10
-295.784
 20
21.0134
 11
-296.014
 21
20.9233
  0
LINE
  8
0
 10
-296.014
 20
20.9233
 11
-296.254
 21
20.8684
  0
LINE
  8
0
 10
-296.254
 20
20.8684
 11
-296.5
 21
20.85
  0
LINE
  8
0
 10
-296.5
 20
20.85
 11
-296.746
 21
20.8684
  0
LINE
  8
0
 10
-252.5
 20
-52.5
 11
-253.023
 21
-52.4726
  0
LINE
  8
0
 10
-253.023
 20
-52.4726
 11
-253.54
 21
-52.3907
  0
LINE
  8
0
 10
-253.54
 20
-52.3907
 11
-254.045
 21
-52.2553
  0
LINE
  8
0
 10
-254.045
 20
-52.2553
 11
-254.534
 21
-52.0677
  0
LINE
  8
0
 10
-254.534
 20
-52.0677
 11
-255
 21
-51.8301
  0
LINE
  8
0
 10
-255
 20
-51.8301
 11
-255.439
 21
-51.5451
  0
LINE
  8
0
 10
-255.439
 20
-51.5451
 11
-255.846
 21
-51.2157
  0
LINE
  8
0
 10
-255.846
 20
-51.2157
 11
-256.216
 21
-50.8457
  0
LINE
  8
0
 10
-256.216
 20
-50.8457
 11
-256.545
 21
-50.4389
  0
LINE
  8
0
 10
-256.545
 20
-50.4389
 11
-256.83
 21
-50
  0
LINE
  8
0
 10
-256.83
 20
-50
 11
-257.068
 21
-49.5337
  0
LINE
  8
0
 10
-257.068
 20
-49.5337
 11
-257.255
 21
-49.0451
  0
LINE
  8
0
 10
-257.255
 20
-49.0451
 11
-257.391
 21
-48.5396
  0
LINE
  8
0
 10
-257.391
 20
-48.5396
 11
-257.473
 21
-48.0226
  0
LINE
  8
0
 10
-257.473
 20
-48.0226
 11
-257.5
 21
-47.5
  0
LINE
  8
0
 10
-257.5
 20
-47.5
 11
-257.5
 21
47.5
  0
LINE
  8
0
 10
-257.5
 20
47.5
 11
-257.473
 21
48.0226
  0
LINE
  8
0
 10
-257.473
 20
48.0226
 11
-257.391
 21
48.5396
  0
LINE
  8
0
 10
-257.391
 20
48.5396
 11
-257.255
 21
49.0451
  0
LINE
  8
0
 10
-257.255
 20
49.0451
 11
-257.068
 21
49.5337
  0
LINE
  8
0
 10
-257.068
 20
49.5337
 11
-256.83
 21
50
  0
LINE
  8
0
 10
-256.83
 20
50
 11
-256.545
 21
50.4389
  0
LINE
  8
0
 10
-256.545
 20
50.4389
 11
-256.216
 21
50.8457
  0
LINE
  8
0
 10
-256.216
 20
50.8457
 11
-255.846
 21
51.2157
  0
LINE
  8
0
 10
-255.846
 20
51.2157
 11
-255.439
 21
51.5451
  0
LINE
  8
0
 10
-255.439
 20
51.5451
 11
-255
 21
51.8301
  0
LINE
  8
0
 10
-255
 20
51.8301
 11
-254.534
 21
52.0677
  0
LINE
  8
0
 10
-254.534
 20
52.0677
 11
-254.045
 21
52.2553
  0
LINE
  8
0
 10
-254.045
 20
52.2553
 11
-253.54
 21
52.3907
  0
LINE
  8
0
 10
-253.54
 20
52.3907
 11
-253.023
 21
52.4726
  0
LINE
  8
0
 10
-253.023
 20
52.4726
 11
-252.5
 21
52.5
  0
LINE
  8
0
 10
-252.5
 20
52.5
 11
252.5
 21
52.5
  0
LINE
  8
0
 10
252.5
 20
52.5
 11
253.023
 21
52.4726
  0
LINE
  8
0
 10
253.023
 20
52.4726
 11
253.54
 21
52.3907
  0
LINE
  8
0
 10
253.54
 20
52.3907
 11
254.045
 21
52.2553
  0
LINE
  8
0
 10
254.045
 20
52.2553
 11
254.534
 21
52.0677
  0
LINE
  8
0
 10
254.534
 20
52.0677
 11
255
 21
51.8301
  0
LINE
  8
0
 10
255
 20
51.8301
 11
255.439
 21
51.5451
  0
LINE
  8
0
 10
255.439
 20
51.5451
 11
255.846
 21
51.2157
  0
LINE
  8
0
 10
255.846
 20
51.2157
 11
256.216
 21
50.8457
  0
LINE
  8
0
 10
256.216
 20
50.8457
 11
256.545
 21
50.4389
  0
LINE
  8
0
 10
256.545
 20
50.4389
 11
256.83
 21
50
  0
LINE
  8
0
 10
256.83
 20
50
 11
257.068
 21
49.5337
  0
LINE
  8
0
 10
257.068
 20
49.5337
 11
257.255
 21
49.0451
  0
LINE
  8
0
 10
257.255
 20
49.0451
 11
257.391
 21
48.5396
  0
LINE
  8
0
 10
257.391
 20
48.5396
 11
257.473
 21
48.0226
  0
LINE
  8
0
 10
257.473
 20
48.0226
 11
257.5
 21
47.5
  0
LINE
  8
0
 10
257.5
 20
47.5
 11
257.5
 21
-47.5
  0
LINE
  8
0
 10
257.5
 20
-47.5
 11
257.473
 21
-48.0226
  0
LINE
  8
0
 10
257.473
 20
-48.0226
 11
257.391
 21
-48.5396
  0
LINE
  8
0
 10
257.391
 20
-48.5396
 11
257.255
 21
-49.0451
  0
LINE
  8
0
 10
257.255
 20
-49.0451
 11
257.068
 21
-49.5337
  0
LINE
  8
0
 10
257.068
 20
-49.5337
 11
256.83
 21
-50
  0
LINE
  8
0
 10
256.83
 20
-50
 11
256.545
 21
-50.4389
  0
LINE
  8
0
 10
256.545
 20
-50.4389
 11
256.216
 21
-50.8457
  0
LINE
  8
0
 10
256.216
 20
-50.8457
 11
255.846
 21
-51.2157
  0
LINE
  8
0
 10
255.846
 20
-51.2157
 11
255.439
 21
-51.5451
  0
LINE
  8
0
 10
255.439
 20
-51.5451
 11
255
 21
-51.8301
  0
LINE
  8
0
 10
255
 20
-51.8301
 11
254.534
 21
-52.0677
  0
LINE
  8
0
 10
254.534
 20
-52.0677
 11
254.045
 21
-52.2553
  0
LINE
  8
0
 10
254.045
 20
-52.2553
 11
253.54
 21
-52.3907
  0
LINE
  8
0
 10
253.54
 20
-52.3907
 11
253.023
 21
-52.4726
  0
LINE
  8
0
 10
253.023
 20
-52.4726
 11
252.5
 21
-52.5
  0
LINE
  8
0
 10
252.5
 20
-52.5
 11
-252.5
 21
-52.5
  0
LINE
  8
0
 10
-267.686
 20
18.3102
 11
-267.93
 21
18.3553
  0
LINE
  8
0
 10
-267.93
 20
18.3553
 11
-268.165
 21
18.4354
  0
LINE
  8
0
 10
-268.165
 20
18.4354
 11
-268.386
 21
18.5489
  0
LINE
  8
0
 10
-268.386
 20
18.5489
 11
-268.587
 21
18.6933
  0
LINE
  8
0
 10
-268.587
 20
18.6933
 11
-268.766
 21
18.8656
  0
LINE
  8
0
 10
-268.766
 20
18.8656
 11
-268.918
 21
19.062
  0
LINE
  8
0
 10
-268.918
 20
19.062
 11
-269.039
 21
19.2784
  0
LINE
  8
0
 10
-269.039
 20
19.2784
 11
-269.128
 21
19.5102
  0
LINE
  8
0
 10
-269.128
 20
19.5102
 11
-269.182
 21
19.7525
  0
LINE
  8
0
 10
-269.182
 20
19.7525
 11
-269.2
 21
20
  0
LINE
  8
0
 10
-269.2
 20
20
 11
-269.182
 21
20.2475
  0
LINE
  8
0
 10
-269.182
 20
20.2475
 11
-269.128
 21
20.4898
  0
LINE
  8
0
 10
-269.128
 20
20.4898
 11
-269.039
 21
20.7216
  0
LINE
  8
0
 10
-269.039
 20
20.7216
 11
-268.918
 21
20.938
  0
LINE
  8
0
 10
-268.918
 20
20.938
 11
-268.766
 21
21.1344
  0
LINE
  8
0
 10
-268.766
 20
21.1344
 11
-268.587
 21
21.3067
  0
LINE
  8
0
 10
-268.587
 20
21.3067
 11
-268.386
 21
21.4511
  0
LINE
  8
0
 10
-268.386
 20
21.4511
 11
-268.165
 21
21.5646
  0
LINE
  8
0
 10
-268.165
 20
21.5646
 11
-267.93
 21
21.6447
  0
LINE
  8
0
 10
-267.93
 20
21.6447
 11
-267.686
 21
21.6898
  0
LINE
  8
0
 10
-267.686
 20
21.6898
 11
-267.438
 21
21.6989
  0
LINE
  8
0
 10
-267.438
 20
21.6989
 11
-267.191
 21
21.6717
  0
LINE
  8
0
 10
-267.191
 20
21.6717
 11
-266.951
 21
21.6089
  0
LINE
  8
0
 10
-266.951
 20
21.6089
 11
-266.723
 21
21.5119
  0
LINE
  8
0
 10
-266.723
 20
21.5119
 11
-266.511
 21
21.3826
  0
LINE
  8
0
 10
-266.511
 20
21.3826
 11
-266.32
 21
21.2238
  0
LINE
  8
0
 10
-266.32
 20
21.2238
 11
-266.154
 21
21.039
  0
LINE
  8
0
 10
-266.154
 20
21.039
 11
-266.018
 21
20.832
  0
LINE
  8
0
 10
-266.018
 20
20.832
 11
-265.912
 21
20.6073
  0
LINE
  8
0
 10
-265.912
 20
20.6073
 11
-265.841
 21
20.3696
  0
LINE
  8
0
 10
-265.841
 20
20.3696
 11
-265.805
 21
20.1241
  0
LINE
  8
0
 10
-265.805
 20
20.1241
 11
-265.805
 21
19.8759
  0
LINE
  8
0
 10
-265.805
 20
19.8759
 11
-265.841
 21
19.6304
  0
LINE
  8
0
 10
-265.841
 20
19.6304
 11
-265.912
 21
19.3927
  0
LINE
  8
0
 10
-265.912
 20
19.3927
 11
-266.018
 21
19.168
  0
LINE
  8
0
 10
-266.018
 20
19.168
 11
-266.154
 21
18.961
  0
LINE
  8
0
 10
-266.154
 20
18.961
 11
-266.32
 21
18.7762
  0
LINE
  8
0
 10
-266.32
 20
18.7762
 11
-266.511
 21
18.6174
  0
LINE
  8
0
 10
-266.511
 20
18.6174
 11
-266.723
 21
18.4881
  0
LINE
  8
0
 10
-266.723
 20
18.4881
 11
-266.951
 21
18.3911
  0
LINE
  8
0
 10
-266.951
 20
18.3911
 11
-267.191
 21
18.3283
  0
LINE
  8
0
 10
-267.191
 20
18.3283
 11
-267.438
 21
18.3011
  0
LINE
  8
0
 10
-267.438
 20
18.3011
 11
-267.686
 21
18.3102
  0
LINE
  8
0
 10
267.191
 20
18.3283
 11
266.951
 21
18.3911
  0
LINE
  8
0
 10
266.951
 20
18.3911
 11
266.723
 21
18.4881
  0
LINE
  8
0
 10
266.723
 20
18.4881
 11
266.511
 21
18.6174
  0
LINE
  8
0
 10
266.511
 20
18.6174
 11
266.32
 21
18.7762
  0
LINE
  8
0
 10
266.32
 20
18.7762
 11
266.154
 21
18.961
  0
LINE
  8
0
 10
266.154
 20
18.961
 11
266.018
 21
19.168
  0
LINE
  8
0
 10
266.018
 20
19.168
 11
265.912
 21
19.3927
  0
LINE
  8
0
 10
265.912
 20
19.3927
 11
265.841
 21
19.6304
  0
LINE
  8
0
 10
265.841
 20
19.6304
 11
265.805
 21
19.8759
  0
LINE
  8
0
 10
265.805
 20
19.8759
 11
265.805
 21
20.1241
  0
LINE
  8
0
 10
265.805
 20
20.1241
 11
265.841
 21
20.3696
  0
LINE
  8
0
 10
265.841
 20
20.3696
 11
265.912
 21
20.6073
  0
LINE
  8
0
 10
265.912
 20
20.6073
 11
266.018
 21
20.832
  0
LINE
  8
0
 10
266.018
 20
20.832
 11
266.154
 21
21.039
  0
LINE
  8
0
 10
266.154
 20
21.039
 11
266.32
 21
21.2238
  0
LINE
  8
0
 10
266.32
 20
21.2238
 11
266.511
 21
21.3826
  0
LINE
  8
0
 10
266.511
 20
21.3826
 11
266.723
 21
21.5119
  0
LINE
  8
0
 10
266.723
 20
21.5119
 11
266.951
 21
21.6089
  0
LINE
  8
0
 10
266.951
 20
21.6089
 11
267.191
 21
21.6717
  0
LINE
  8
0
 10
267.191
 20
21.6717
 11
267.438
 21
21.6989
  0
LINE
  8
0
 10
267.438
 20
21.6989
 11
267.686
 21
21.6898
  0
LINE
  8
0
 10
267.686
 20
21.6898
 11
267.93
 21
21.6447
  0
LINE
  8
0
 10
267.93
 20
21.6447
 11
268.165
 21
21.5646
  0
LINE
  8
0
 10
268.165
 20
21.5646
 11
268.386
 21
21.4511
  0
LINE
  8
0
 10
268.386
 20
21.4511
 11
268.587
 21
21.3067
  0
LINE
  8
0
 10
268.587
 20
21.3067
 11
268.766
 21
21.1344
  0
LINE
  8
0
 10
268.766
 20
21.1344
 11
268.918
 21
20.938
  0
LINE
  8
0
 10
268.918
 20
20.938
 11
269.039
 21
20.7216
  0
LINE
  8
0
 10
269.039
 20
20.7216
 11
269.128
 21
20.4898
  0
LINE
  8
0
 10
269.128
 20
20.4898
 11
269.182
 21
20.2475
  0
LINE
  8
0
 10
269.182
 20
20.2475
 11
269.2
 21
20
  0
LINE
  8
0
 10
269.2
 20
20
 11
269.182
 21
19.7525
  0
LINE
  8
0
 10
269.182
 20
19.7525
 11
269.128
 21
19.5102
  0
LINE
  8
0
 10
269.128
 20
19.5102
 11
269.039
 21
19.2784
  0
LINE
  8
0
 10
269.039
 20
19.2784
 11
268.918
 21
19.062
  0
LINE
  8
0
 10
268.918
 20
19.062
 11
268.766
 21
18.8656
  0
LINE
  8
0
 10
268.766
 20
18.8656
 11
268.587
 21
18.6933
  0
LINE
  8
0
 10
268.587
 20
18.6933
 11
268.386
 21
18.5489
  0
LINE
  8
0
 10
268.386
 20
18.5489
 11
268.165
 21
18.4354
  0
LINE
  8
0
 10
268.165
 20
18.4354
 11
267.93
 21
18.3553
  0
LINE
  8
0
 10
267.93
 20
18.3553
 11
267.686
 21
18.3102
  0
LINE
  8
0
 10
267.686
 20
18.3102
 11
267.438
 21
18.3011
  0
LINE
  8
0
 10
267.438
 20
18.3011
 11
267.191
 21
18.3283
  0
LINE
  8
0
 10
-267.686
 20
-21.6898
 11
-267.93
 21
-21.6447
  0
LINE
  8
0
 10
-267.93
 20
-21.6447
 11
-268.165
 21
-21.5646
  0
LINE
  8
0
 10
-268.165
 20
-21.5646
 11
-268.386
 21
-21.4511
  0
LINE
  8
0
 10
-268.386
 20
-21.4511
 11
-268.587
 21
-21.3067
  0
LINE
  8
0
 10
-268.587
 20
-21.3067
 11
-268.766
 21
-21.1344
  0
LINE
  8
0
 10
-268.766
 20
-21.1344
 11
-268.918
 21
-20.938
  0
LINE
  8
0
 10
-268.918
 20
-20.938
 11
-269.039
 21
-20.7216
  0
LINE
  8
0
 10
-269.039
 20
-20.7216
 11
-269.128
 21
-20.4898
  0
LINE
  8
0
 10
-269.128
 20
-20.4898
 11
-269.182
 21
-20.2475
  0
LINE
  8
0
 10
-269.182
 20
-20.2475
 11
-269.2
 21
-20
  0
LINE
  8
0
 10
-269.2
 20
-20
 11
-269.182
 21
-19.7525
  0
LINE
  8
0
 10
-269.182
 20
-19.7525
 11
-269.128
 21
-19.5102
  0
LINE
  8
0
 10
-269.128
 20
-19.5102
 11
-269.039
 21
-19.2784
  0
LINE
  8
0
 10
-269.039
 20
-19.2784
 11
-268.918
 21
-19.062
  0
LINE
  8
0
 10
-268.918
 20
-19.062
 11
-268.766
 21
-18.8656
  0
LINE
  8
0
 10
-268.766
 20
-18.8656
 11
-268.587
 21
-18.6933
  0
LINE
  8
0
 10
-268.587
 20
-18.6933
 11
-268.386
 21
-18.5489
  0
LINE
  8
0
 10
-268.386
 20
-18.5489
 11
-268.165
 21
-18.4354
  0
LINE
  8
0
 10
-268.165
 20
-18.4354
 11
-267.93
 21
-18.3553
  0
LINE
  8
0
 10
-267.93
 20
-18.3553
 11
-267.686
 21
-18.3102
  0
LINE
  8
0
 10
-267.686
 20
-18.3102
 11
-267.438
 21
-18.3011
  0
LINE
  8
0
 10
-267.438
 20
-18.3011
 11
-267.191
 21
-18.3283
  0
LINE
  8
0
 10
-267.191
 20
-18.3283
 11
-266.951
 21
-18.3911
  0
LINE
  8
0
 10
-266.951
 20
-18.3911
 11
-266.723
 21
-18.4881
  0
LINE
  8
0
 10
-266.723
 20
-18.4881
 11
-266.511
 21
-18.6174
  0
LINE
  8
0
 10
-266.511
 20
-18.6174
 11
-266.32
 21
-18.7762
  0
LINE
  8
0
 10
-266.32
 20
-18.7762
 11
-266.154
 21
-18.961
  0
LINE
  8
0
 10
-266.154
 20
-18.961
 11
-266.018
 21
-19.168
  0
LINE
  8
0
 10
-266.018
 20
-19.168
 11
-265.912
 21
-19.3927
  0
LINE
  8
0
 10
-265.912
 20
-19.3927
 11
-265.841
 21
-19.6304
  0
LINE
  8
0
 10
-265.841
 20
-19.6304
 11
-265.805
 21
-19.8759
  0
LINE
  8
0
 10
-265.805
 20
-19.8759
 11
-265.805
 21
-20.1241
  0
LINE
  8
0
 10
-265.805
 20
-20.1241
 11
-265.841
 21
-20.3696
  0
LINE
  8
0
 10
-265.841
 20
-20.3696
 11
-265.912
 21
-20.6073
  0
LINE
  8
0
 10
-265.912
 20
-20.6073
 11
-266.018
 21
-20.832
  0
LINE
  8
0
 10
-266.018
 20
-20.832
 11
-266.154
 21
-21.039
  0
LINE
  8
0
 10
-266.154
 20
-21.039
 11
-266.32
 21
-21.2238
  0
LINE
  8
0
 10
-266.32
 20
-21.2238
 11
-266.511
 21
-21.3826
  0
LINE
  8
0
 10
-266.511
 20
-21.3826
 11
-266.723
 21
-21.5119
  0
LINE
  8
0
 10
-266.723
 20
-21.5119
 11
-266.951
 21
-21.6089
  0
LINE
  8
0
 10
-266.951
 20
-21.6089
 11
-267.191
 21
-21.6717
  0
LINE
  8
0
 10
-267.191
 20
-21.6717
 11
-267.438
 21
-21.6989
  0
LINE
  8
0
 10
-267.438
 20
-21.6989
 11
-267.686
 21
-21.6898
  0
LINE
  8
0
 10
267.191
 20
-21.6717
 11
266.951
 21
-21.6089
  0
LINE
  8
0
 10
266.951
 20
-21.6089
 11
266.723
 21
-21.5119
  0
LINE
  8
0
 10
266.723
 20
-21.5119
 11
266.511
 21
-21.3826
  0
LINE
  8
0
 10
266.511
 20
-21.3826
 11
266.32
 21
-21.2238
  0
LINE
  8
0
 10
266.32
 20
-21.2238
 11
266.154
 21
-21.039
  0
LINE
  8
0
 10
266.154
 20
-21.039
 11
266.018
 21
-20.832
  0
LINE
  8
0
 10
266.018
 20
-20.832
 11
265.912
 21
-20.6073
  0
LINE
  8
0
 10
265.912
 20
-20.6073
 11
265.841
 21
-20.3696
  0
LINE
  8
0
 10
265.841
 20
-20.3696
 11
265.805
 21
-20.1241
  0
LINE
  8
0
 10
265.805
 20
-20.1241
 11
265.805
 21
-19.8759
  0
LINE
  8
0
 10
265.805
 20
-19.8759
 11
265.841
 21
-19.6304
  0
LINE
  8
0
 10
265.841
 20
-19.6304
 11
265.912
 21
-19.3927
  0
LINE
  8
0
 10
265.912
 20
-19.3927
 11
266.018
 21
-19.168
  0
LINE
  8
0
 10
266.018
 20
-19.168
 11
266.154
 21
-18.961
  0
LINE
  8
0
 10
266.154
 20
-18.961
 11
266.32
 21
-18.7762
  0
LINE
  8
0
 10
266.32
 20
-18.7762
 11
266.511
 21
-18.6174
  0
LINE
  8
0
 10
266.511
 20
-18.6174
 11
266.723
 21
-18.4881
  0
LINE
  8
0
 10
266.723
 20
-18.4881
 11
266.951
 21
-18.3911
  0
LINE
  8
0
 10
266.951
 20
-18.3911
 11
267.191
 21
-18.3283
  0
LINE
  8
0
 10
267.191
 20
-18.3283
 11
267.438
 21
-18.3011
  0
LINE
  8
0
 10
267.438
 20
-18.3011
 11
267.686
 21
-18.3102
  0
LINE
  8
0
 10
267.686
 20
-18.3102
 11
267.93
 21
-18.3553
  0
LINE
  8
0
 10
267.93
 20
-18.3553
 11
268.165
 21
-18.4354
  0
LINE
  8
0
 10
268.165
 20
-18.4354
 11
268.386
 21
-18.5489
  0
LINE
  8
0
 10
268.386
 20
-18.5489
 11
268.587
 21
-18.6933
  0
LINE
  8
0
 10
268.587
 20
-18.6933
 11
268.766
 21
-18.8656
  0
LINE
  8
0
 10
268.766
 20
-18.8656
 11
268.918
 21
-19.062
  0
LINE
  8
0
 10
268.918
 20
-19.062
 11
269.039
 21
-19.2784
  0
LINE
  8
0
 10
269.039
 20
-19.2784
 11
269.128
 21
-19.5102
  0
LINE
  8
0
 10
269.128
 20
-19.5102
 11
269.182
 21
-19.7525
  0
LINE
  8
0
 10
269.182
 20
-19.7525
 11
269.2
 21
-20
  0
LINE
  8
0
 10
269.2
 20
-20
 11
269.182
 21
-20.2475
  0
LINE
  8
0
 10
269.182
 20
-20.2475
 11
269.128
 21
-20.4898
  0
LINE
  8
0
 10
269.128
 20
-20.4898
 11
269.039
 21
-20.7216
  0
LINE
  8
0
 10
269.039
 20
-20.7216
 11
268.918
 21
-20.938
  0
LINE
  8
0
 10
268.918
 20
-20.938
 11
268.766
 21
-21.1344
  0
LINE
  8
0
 10
268.766
 20
-21.1344
 11
268.587
 21
-21.3067
  0
LINE
  8
0
 10
268.587
 20
-21.3067
 11
268.386
 21
-21.4511
  0
LINE
  8
0
 10
268.386
 20
-21.4511
 11
268.165
 21
-21.5646
  0
LINE
  8
0
 10
268.165
 20
-21.5646
 11
267.93
 21
-21.6447
  0
LINE
  8
0
 10
267.93
 20
-21.6447
 11
267.686
 21
-21.6898
  0
LINE
  8
0
 10
267.686
 20
-21.6898
 11
267.438
 21
-21.6989
  0
LINE
  8
0
 10
267.438
 20
-21.6989
 11
267.191
 21
-21.6717
  0
LINE
  8
0
 10
296.254
 20
-64.1316
 11
296.014
 21
-64.0767
  0
LINE
  8
0
 10
296.014
 20
-64.0767
 11
295.784
 21
-63.9866
  0
LINE
  8
0
 10
295.784
 20
-63.9866
 11
295.571
 21
-63.8633
  0
LINE
  8
0
 10
295.571
 20
-63.8633
 11
295.378
 21
-63.7095
  0
LINE
  8
0
 10
295.378
 20
-63.7095
 11
295.21
 21
-63.5287
  0
LINE
  8
0
 10
295.21
 20
-63.5287
 11
295.071
 21
-63.325
  0
LINE
  8
0
 10
295.071
 20
-63.325
 11
294.964
 21
-63.1028
  0
LINE
  8
0
 10
294.964
 20
-63.1028
 11
294.891
 21
-62.8672
  0
LINE
  8
0
 10
294.891
 20
-62.8672
 11
294.855
 21
-62.6233
  0
LINE
  8
0
 10
294.855
 20
-62.6233
 11
294.855
 21
-22.3767
  0
LINE
  8
0
 10
294.855
 20
-22.3767
 11
294.891
 21
-22.1328
  0
LINE
  8
0
 10
294.891
 20
-22.1328
 11
294.964
 21
-21.8972
  0
LINE
  8
0
 10
294.964
 20
-21.8972
 11
295.071
 21
-21.675
  0
LINE
  8
0
 10
295.071
 20
-21.675
 11
295.21
 21
-21.4712
  0
LINE
  8
0
 10
295.21
 20
-21.4712
 11
295.378
 21
-21.2905
  0
LINE
  8
0
 10
295.378
 20
-21.2905
 11
295.571
 21
-21.1367
  0
LINE
  8
0
 10
295.571
 20
-21.1367
 11
295.784
 21
-21.0134
  0
LINE
  8
0
 10
295.784
 20
-21.0134
 11
296.014
 21
-20.9233
  0
LINE
  8
0
 10
296.014
 20
-20.9233
 11
296.254
 21
-20.8684
  0
LINE
  8
0
 10
296.254
 20
-20.8684
 11
296.5
 21
-20.85
  0
LINE
  8
0
 10
296.5
 20
-20.85
 11
296.746
 21
-20.8684
  0
LINE
  8
0
 10
296.746
 20
-20.8684
 11
296.986
 21
-20.9233
  0
LINE
  8
0
 10
296.986
 20
-20.9233
 11
297.216
 21
-21.0134
  0
LINE
  8
0
 10
297.216
 20
-21.0134
 11
297.429
 21
-21.1367
  0
LINE
  8
0
 10
297.429
 20
-21.1367
 11
297.622
 21
-21.2905
  0
LINE
  8
0
 10
297.622
 20
-21.2905
 11
297.79
 21
-21.4712
  0
LINE
  8
0
 10
297.79
 20
-21.4712
 11
297.929
 21
-21.675
  0
LINE
  8
0
 10
297.929
 20
-21.675
 11
298.036
 21
-21.8972
  0
LINE
  8
0
 10
298.036
 20
-21.8972
 11
298.109
 21
-22.1328
  0
LINE
  8
0
 10
298.109
 20
-22.1328
 11
298.145
 21
-22.3767
  0
LINE
  8
0
 10
298.145
 20
-22.3767
 11
298.145
 21
-62.6233
  0
LINE
  8
0
 10
298.145
 20
-62.6233
 11
298.109
 21
-62.8672
  0
LINE
  8
0
 10
298.109
 20
-62.8672
 11
298.036
 21
-63.1028
  0
LINE
  8
0
 10
298.036
 20
-63.1028
 11
297.929
 21
-63.325
  0
LINE
  8
0
 10
297.929
 20
-63.325
 11
297.79
 21
-63.5287
  0
LINE
  8
0
 10
297.79
 20
-63.5287
 11
297.622
 21
-63.7095
  0
LINE
  8
0
 10
297.622
 20
-63.7095
 11
297.429
 21
-63.8633
  0
LINE
  8
0
 10
297.429
 20
-63.8633
 11
297.216
 21
-63.9866
  0
LINE
  8
0
 10
297.216
 20
-63.9866
 11
296.986
 21
-64.0767
  0
LINE
  8
0
 10
296.986
 20
-64.0767
 11
296.746
 21
-64.1316
  0
LINE
  8
0
 10
296.746
 20
-64.1316
 11
296.5
 21
-64.15
  0
LINE
  8
0
 10
296.5
 20
-64.15
 11
296.254
 21
-64.1316
  0
LINE
  8
0
 10
-296.746
 20
-64.1316
 11
-296.986
 21
-64.0767
  0
LINE
  8
0
 10
-296.986
 20
-64.0767
 11
-297.216
 21
-63.9866
  0
LINE
  8
0
 10
-297.216
 20
-63.9866
 11
-297.429
 21
-63.8633
  0
LINE
  8
0
 10
-297.429
 20
-63.8633
 11
-297.622
 21
-63.7095
  0
LINE
  8
0
 10
-297.622
 20
-63.7095
 11
-297.79
 21
-63.5287
  0
LINE
  8
0
 10
-297.79
 20
-63.5287
 11
-297.929
 21
-63.325
  0
LINE
  8
0
 10
-297.929
 20
-63.325
 11
-298.036
 21
-63.1028
  0
LINE
  8
0
 10
-298.036
 20
-63.1028
 11
-298.109
 21
-62.8672
  0
LINE
  8
0
 10
-298.109
 20
-62.8672
 11
-298.145
 21
-62.6233
  0
LINE
  8
0
 10
-298.145
 20
-62.6233
 11
-298.145
 21
-22.3767
  0
LINE
  8
0
 10
-298.145
 20
-22.3767
 11
-298.109
 21
-22.1328
  0
LINE
  8
0
 10
-298.109
 20
-22.1328
 11
-298.036
 21
-21.8972
  0
LINE
  8
0
 10
-298.036
 20
-21.8972
 11
-297.929
 21
-21.675
  0
LINE
  8
0
 10
-297.929
 20
-21.675
 11
-297.79
 21
-21.4712
  0
LINE
  8
0
 10
-297.79
 20
-21.4712
 11
-297.622
 21
-21.2905
  0
LINE
  8
0
 10
-297.622
 20
-21.2905
 11
-297.429
 21
-21.1367
  0
LINE
  8
0
 10
-297.429
 20
-21.1367
 11
-297.216
 21
-21.0134
  0
LINE
  8
0
 10
-297.216
 20
-21.0134
 11
-296.986
 21
-20.9233
  0
LINE
  8
0
 10
-296.986
 20
-20.9233
 11
-296.746
 21
-20.8684
  0
LINE
  8
0
 10
-296.746
 20
-20.8684
 11
-296.5
 21
-20.85
  0
LINE
  8
0
 10
-296.5
 20
-20.85
 11
-296.254
 21
-20.8684
  0
LINE
  8
0
 10
-296.254
 20
-20.8684
 11
-296.014
 21
-20.9233
  0
LINE
  8
0
 10
-296.014
 20
-20.9233
 11
-295.784
 21
-21.0134
  0
LINE
  8
0
 10
-295.784
 20
-21.0134
 11
-295.571
 21
-21.1367
  0
LINE
  8
0
 10
-295.571
 20
-21.1367
 11
-295.378
 21
-21.2905
  0
LINE
  8
0
 10
-295.378
 20
-21.2905
 11
-295.21
 21
-21.4712
  0
LINE
  8
0
 10
-295.21
 20
-21.4712
 11
-295.071
 21
-21.675
  0
LINE
  8
0
 10
-295.071
 20
-21.675
 11
-294.964
 21
-21.8972
  0
LINE
  8
0
 10
-294.964
 20
-21.8972
 11
-294.891
 21
-22.1328
  0
LINE
  8
0
 10
-294.891
 20
-22.1328
 11
-294.855
 21
-22.3767
  0
LINE
  8
0
 10
-294.855
 20
-22.3767
 11
-294.855
 21
-62.6233
  0
LINE
  8
0
 10
-294.855
 20
-62.6233
 11
-294.891
 21
-62.8672
  0
LINE
  8
0
 10
-294.891
 20
-62.8672
 11
-294.964
 21
-63.1028
  0
LINE
  8
0
 10
-294.964
 20
-63.1028
 11
-295.071
 21
-63.325
  0
LINE
  8
0
 10
-295.071
 20
-63.325
 11
-295.21
 21
-63.5287
  0
LINE
  8
0
 10
-295.21
 20
-63.5287
 11
-295.378
 21
-63.7095
  0
LINE
  8
0
 10
-295.378
 20
-63.7095
 11
-295.571
 21
-63.8633
  0
LINE
  8
0
 10
-295.571
 20
-63.8633
 11
-295.784
 21
-63.9866
  0
LINE
  8
0
 10
-295.784
 20
-63.9866
 11
-296.014
 21
-64.0767
  0
LINE
  8
0
 10
-296.014
 20
-64.0767
 11
-296.254
 21
-64.1316
  0
LINE
  8
0
 10
-296.254
 20
-64.1316
 11
-296.5
 21
-64.15
  0
LINE
  8
0
 10
-296.5
 20
-64.15
 11
-296.746
 21
-64.1316
  0
LINE
  8
0
 10
-135.309
 20
-64.1717
 11
-135.549
 21
-64.1089
  0
LINE
  8
0
 10
-135.549
 20
-64.1089
 11
-135.777
 21
-64.0119
  0
LINE
  8
0
 10
-135.777
 20
-64.0119
 11
-135.989
 21
-63.8826
  0
LINE
  8
0
 10
-135.989
 20
-63.8826
 11
-136.18
 21
-63.7238
  0
LINE
  8
0
 10
-136.18
 20
-63.7238
 11
-136.346
 21
-63.539
  0
LINE
  8
0
 10
-136.346
 20
-63.539
 11
-136.482
 21
-63.332
  0
LINE
  8
0
 10
-136.482
 20
-63.332
 11
-136.588
 21
-63.1073
  0
LINE
  8
0
 10
-136.588
 20
-63.1073
 11
-136.659
 21
-62.8696
  0
LINE
  8
0
 10
-136.659
 20
-62.8696
 11
-136.695
 21
-62.6241
  0
LINE
  8
0
 10
-136.695
 20
-62.6241
 11
-136.695
 21
-62.3759
  0
LINE
  8
0
 10
-136.695
 20
-62.3759
 11
-136.659
 21
-62.1304
  0
LINE
  8
0
 10
-136.659
 20
-62.1304
 11
-136.588
 21
-61.8927
  0
LINE
  8
0
 10
-136.588
 20
-61.8927
 11
-136.482
 21
-61.668
  0
LINE
  8
0
 10
-136.482
 20
-61.668
 11
-136.346
 21
-61.461
  0
LINE
  8
0
 10
-136.346
 20
-61.461
 11
-136.18
 21
-61.2762
  0
LINE
  8
0
 10
-136.18
 20
-61.2762
 11
-135.989
 21
-61.1174
  0
LINE
  8
0
 10
-135.989
 20
-61.1174
 11
-135.777
 21
-60.9881
  0
LINE
  8
0
 10
-135.777
 20
-60.9881
 11
-135.549
 21
-60.8911
  0
LINE
  8
0
 10
-135.549
 20
-60.8911
 11
-135.309
 21
-60.8283
  0
LINE
  8
0
 10
-135.309
 20
-60.8283
 11
-135.062
 21
-60.8011
  0
LINE
  8
0
 10
-135.062
 20
-60.8011
 11
-134.814
 21
-60.8102
  0
LINE
  8
0
 10
-134.814
 20
-60.8102
 11
-134.57
 21
-60.8553
  0
LINE
  8
0
 10
-134.57
 20
-60.8553
 11
-134.335
 21
-60.9354
  0
LINE
  8
0
 10
-134.335
 20
-60.9354
 11
-134.114
 21
-61.0489
  0
LINE
  8
0
 10
-134.114
 20
-61.0489
 11
-133.913
 21
-61.1933
  0
LINE
  8
0
 10
-133.913
 20
-61.1933
 11
-133.734
 21
-61.3656
  0
LINE
  8
0
 10
-133.734
 20
-61.3656
 11
-133.582
 21
-61.562
  0
LINE
  8
0
 10
-133.582
 20
-61.562
 11
-133.461
 21
-61.7784
  0
LINE
  8
0
 10
-133.461
 20
-61.7784
 11
-133.372
 21
-62.0102
  0
LINE
  8
0
 10
-133.372
 20
-62.0102
 11
-133.318
 21
-62.2525
  0
LINE
  8
0
 10
-133.318
 20
-62.2525
 11
-133.3
 21
-62.5
  0
LINE
  8
0
 10
-133.3
 20
-62.5
 11
-133.318
 21
-62.7475
  0
LINE
  8
0
 10
-133.318
 20
-62.7475
 11
-133.372
 21
-62.9898
  0
LINE
  8
0
 10
-133.372
 20
-62.9898
 11
-133.461
 21
-63.2216
  0
LINE
  8
0
 10
-133.461
 20
-63.2216
 11
-133.582
 21
-63.438
  0
LINE
  8
0
 10
-133.582
 20
-63.438
 11
-133.734
 21
-63.6344
  0
LINE
  8
0
 10
-133.734
 20
-63.6344
 11
-133.913
 21
-63.8067
  0
LINE
  8
0
 10
-133.913
 20
-63.8067
 11
-134.114
 21
-63.9511
  0
LINE
  8
0
 10
-134.114
 20
-63.9511
 11
-134.335
 21
-64.0646
  0
LINE
  8
0
 10
-134.335
 20
-64.0646
 11
-134.57
 21
-64.1447
  0
LINE
  8
0
 10
-134.57
 20
-64.1447
 11
-134.814
 21
-64.1898
  0
LINE
  8
0
 10
-134.814
 20
-64.1898
 11
-135.062
 21
-64.1989
  0
LINE
  8
0
 10
-135.062
 20
-64.1989
 11
-135.309
 21
-64.1717
  0
LINE
  8
0
 10
-44.57
 20
-60.8553
 11
-44.3351
 21
-60.9354
  0
LINE
  8
0
 10
-44.3351
 20
-60.9354
 11
-44.1144
 21
-61.0489
  0
LINE
  8
0
 10
-44.1144
 20
-61.0489
 11
-43.9126
 21
-61.1933
  0
LINE
  8
0
 10
-43.9126
 20
-61.1933
 11
-43.7339
 21
-61.3656
  0
LINE
  8
0
 10
-43.7339
 20
-61.3656
 11
-43.5822
 21
-61.562
  0
LINE
  8
0
 10
-43.5822
 20
-61.562
 11
-43.4607
 21
-61.7784
  0
LINE
  8
0
 10
-43.4607
 20
-61.7784
 11
-43.3721
 21
-62.0102
  0
LINE
  8
0
 10
-43.3721
 20
-62.0102
 11
-43.3181
 21
-62.2525
  0
LINE
  8
0
 10
-43.3181
 20
-62.2525
 11
-43.3
 21
-62.5
  0
LINE
  8
0
 10
-43.3
 20
-62.5
 11
-43.3181
 21
-62.7475
  0
LINE
  8
0
 10
-43.3181
 20
-62.7475
 11
-43.3721
 21
-62.9898
  0
LINE
  8
0
 10
-43.3721
 20
-62.9898
 11
-43.4607
 21
-63.2216
  0
LINE
  8
0
 10
-43.4607
 20
-63.2216
 11
-43.5822
 21
-63.438
  0
LINE
  8
0
 10
-43.5822
 20
-63.438
 11
-43.7339
 21
-63.6344
  0
LINE
  8
0
 10
-43.7339
 20
-63.6344
 11
-43.9126
 21
-63.8067
  0
LINE
  8
0
 10
-43.9126
 20
-63.8067
 11
-44.1144
 21
-63.9511
  0
LINE
  8
0
 10
-44.1144
 20
-63.9511
 11
-44.3351
 21
-64.0646
  0
LINE
  8
0
 10
-44.3351
 20
-64.0646
 11
-44.57
 21
-64.1447
  0
LINE
  8
0
 10
-44.57
 20
-64.1447
 11
-44.8141
 21
-64.1898
  0
LINE
  8
0
 10
-44.8141
 20
-64.1898
 11
-45.0621
 21
-64.1989
  0
LINE
  8
0
 10
-45.0621
 20
-64.1989
 11
-45.3088
 21
-64.1717
  0
LINE
  8
0
 10
-45.3088
 20
-64.1717
 11
-45.5489
 21
-64.1089
  0
LINE
  8
0
 10
-45.5489
 20
-64.1089
 11
-45.7773
 21
-64.0119
  0
LINE
  8
0
 10
-45.7773
 20
-64.0119
 11
-45.9892
 21
-63.8826
  0
LINE
  8
0
 10
-45.9892
 20
-63.8826
 11
-46.1799
 21
-63.7238
  0
LINE
  8
0
 10
-46.1799
 20
-63.7238
 11
-46.3455
 21
-63.539
  0
LINE
  8
0
 10
-46.3455
 20
-63.539
 11
-46.4825
 21
-63.332
  0
LINE
  8
0
 10
-46.4825
 20
-63.332
 11
-46.5878
 21
-63.1073
  0
LINE
  8
0
 10
-46.5878
 20
-63.1073
 11
-46.6593
 21
-62.8696
  0
LINE
  8
0
 10
-46.6593
 20
-62.8696
 11
-46.6955
 21
-62.6241
  0
LINE
  8
0
 10
-46.6955
 20
-62.6241
 11
-46.6955
 21
-62.3759
  0
LINE
  8
0
 10
-46.6955
 20
-62.3759
 11
-46.6593
 21
-62.1304
  0
LINE
  8
0
 10
-46.6593
 20
-62.1304
 11
-46.5878
 21
-61.8927
  0
LINE
  8
0
 10
-46.5878
 20
-61.8927
 11
-46.4825
 21
-61.668
  0
LINE
  8
0
 10
-46.4825
 20
-61.668
 11
-46.3455
 21
-61.461
  0
LINE
  8
0
 10
-46.3455
 20
-61.461
 11
-46.1799
 21
-61.2762
  0
LINE
  8
0
 10
-46.1799
 20
-61.2762
 11
-45.9892
 21
-61.1174
  0
LINE
  8
0
 10
-45.9892
 20
-61.1174
 11
-45.7773
 21
-60.9881
  0
LINE
  8
0
 10
-45.7773
 20
-60.9881
 11
-45.5489
 21
-60.8911
  0
LINE
  8
0
 10
-45.5489
 20
-60.8911
 11
-45.3088
 21
-60.8283
  0
LINE
  8
0
 10
-45.3088
 20
-60.8283
 11
-45.0621
 21
-60.8011
  0
LINE
  8
0
 10
-45.0621
 20
-60.8011
 11
-44.8141
 21
-60.8102
  0
LINE
  8
0
 10
-44.8141
 20
-60.8102
 11
-44.57
 21
-60.8553
  0
LINE
  8
0
 10
224.691
 20
-64.1717
 11
224.451
 21
-64.1089
  0
LINE
  8
0
 10
224.451
 20
-64.1089
 11
224.223
 21
-64.0119
  0
LINE
  8
0
 10
224.223
 20
-64.0119
 11
224.011
 21
-63.8826
  0
LINE
  8
0
 10
224.011
 20
-63.8826
 11
223.82
 21
-63.7238
  0
LINE
  8
0
 10
223.82
 20
-63.7238
 11
223.654
 21
-63.539
  0
LINE
  8
0
 10
223.654
 20
-63.539
 11
223.518
 21
-63.332
  0
LINE
  8
0
 10
223.518
 20
-63.332
 11
223.412
 21
-63.1073
  0
LINE
  8
0
 10
223.412
 20
-63.1073
 11
223.341
 21
-62.8696
  0
LINE
  8
0
 10
223.341
 20
-62.8696
 11
223.305
 21
-62.6241
  0
LINE
  8
0
 10
223.305
 20
-62.6241
 11
223.305
 21
-62.3759
  0
LINE
  8
0
 10
223.305
 20
-62.3759
 11
223.341
 21
-62.1304
  0
LINE
  8
0
 10
223.341
 20
-62.1304
 11
223.412
 21
-61.8927
  0
LINE
  8
0
 10
223.412
 20
-61.8927
 11
223.518
 21
-61.668
  0
LINE
  8
0
 10
223.518
 20
-61.668
 11
223.654
 21
-61.461
  0
LINE
  8
0
 10
223.654
 20
-61.461
 11
223.82
 21
-61.2762
  0
LINE
  8
0
 10
223.82
 20
-61.2762
 11
224.011
 21
-61.1174
  0
LINE
  8
0
 10
224.011
 20
-61.1174
 11
224.223
 21
-60.9881
  0
LINE
  8
0
 10
224.223
 20
-60.9881
 11
224.451
 21
-60.8911
  0
LINE
  8
0
 10
224.451
 20
-60.8911
 11
224.691
 21
-60.8283
  0
LINE
  8
0
 10
224.691
 20
-60.8283
 11
224.938
 21
-60.8011
  0
LINE
  8
0
 10
224.938
 20
-60.8011
 11
225.186
 21
-60.8102
  0
LINE
  8
0
 10
225.186
 20
-60.8102
 11
225.43
 21
-60.8553
  0
LINE
  8
0
 10
225.43
 20
-60.8553
 11
225.665
 21
-60.9354
  0
LINE
  8
0
 10
225.665
 20
-60.9354
 11
225.886
 21
-61.0489
  0
LINE
  8
0
 10
225.886
 20
-61.0489
 11
226.087
 21
-61.1933
  0
LINE
  8
0
 10
226.087
 20
-61.1933
 11
226.266
 21
-61.3656
  0
LINE
  8
0
 10
226.266
 20
-61.3656
 11
226.418
 21
-61.562
  0
LINE
  8
0
 10
226.418
 20
-61.562
 11
226.539
 21
-61.7784
  0
LINE
  8
0
 10
226.539
 20
-61.7784
 11
226.628
 21
-62.0102
  0
LINE
  8
0
 10
226.628
 20
-62.0102
 11
226.682
 21
-62.2525
  0
LINE
  8
0
 10
226.682
 20
-62.2525
 11
226.7
 21
-62.5
  0
LINE
  8
0
 10
226.7
 20
-62.5
 11
226.682
 21
-62.7475
  0
LINE
  8
0
 10
226.682
 20
-62.7475
 11
226.628
 21
-62.9898
  0
LINE
  8
0
 10
226.628
 20
-62.9898
 11
226.539
 21
-63.2216
  0
LINE
  8
0
 10
226.539
 20
-63.2216
 11
226.418
 21
-63.438
  0
LINE
  8
0
 10
226.418
 20
-63.438
 11
226.266
 21
-63.6344
  0
LINE
  8
0
 10
226.266
 20
-63.6344
 11
226.087
 21
-63.8067
  0
LINE
  8
0
 10
226.087
 20
-63.8067
 11
225.886
 21
-63.9511
  0
LINE
  8
0
 10
225.886
 20
-63.9511
 11
225.665
 21
-64.0646
  0
LINE
  8
0
 10
225.665
 20
-64.0646
 11
225.43
 21
-64.1447
  0
LINE
  8
0
 10
225.43
 20
-64.1447
 11
225.186
 21
-64.1898
  0
LINE
  8
0
 10
225.186
 20
-64.1898
 11
224.938
 21
-64.1989
  0
LINE
  8
0
 10
224.938
 20
-64.1989
 11
224.691
 21
-64.1717
  0
LINE
  8
0
 10
-225.309
 20
-64.1717
 11
-225.549
 21
-64.1089
  0
LINE
  8
0
 10
-225.549
 20
-64.1089
 11
-225.777
 21
-64.0119
  0
LINE
  8
0
 10
-225.777
 20
-64.0119
 11
-225.989
 21
-63.8826
  0
LINE
  8
0
 10
-225.989
 20
-63.8826
 11
-226.18
 21
-63.7238
  0
LINE
  8
0
 10
-226.18
 20
-63.7238
 11
-226.346
 21
-63.539
  0
LINE
  8
0
 10
-226.346
 20
-63.539
 11
-226.482
 21
-63.332
  0
LINE
  8
0
 10
-226.482
 20
-63.332
 11
-226.588
 21
-63.1073
  0
LINE
  8
0
 10
-226.588
 20
-63.1073
 11
-226.659
 21
-62.8696
  0
LINE
  8
0
 10
-226.659
 20
-62.8696
 11
-226.695
 21
-62.6241
  0
LINE
  8
0
 10
-226.695
 20
-62.6241
 11
-226.695
 21
-62.3759
  0
LINE
  8
0
 10
-226.695
 20
-62.3759
 11
-226.659
 21
-62.1304
  0
LINE
  8
0
 10
-226.659
 20
-62.1304
 11
-226.588
 21
-61.8927
  0
LINE
  8
0
 10
-226.588
 20
-61.8927
 11
-226.482
 21
-61.668
  0
LINE
  8
0
 10
-226.482
 20
-61.668
 11
-226.346
 21
-61.461
  0
LINE
  8
0
 10
-226.346
 20
-61.461
 11
-226.18
 21
-61.2762
  0
LINE
  8
0
 10
-226.18
 20
-61.2762
 11
-225.989
 21
-61.1174
  0
LINE
  8
0
 10
-225.989
 20
-61.1174
 11
-225.777
 21
-60.9881
  0
LINE
  8
0
 10
-225.777
 20
-60.9881
 11
-225.549
 21
-60.8911
  0
LINE
  8
0
 10
-225.549
 20
-60.8911
 11
-225.309
 21
-60.8283
  0
LINE
  8
0
 10
-225.309
 20
-60.8283
 11
-225.062
 21
-60.8011
  0
LINE
  8
0
 10
-225.062
 20
-60.8011
 11
-224.814
 21
-60.8102
  0
LINE
  8
0
 10
-224.814
 20
-60.8102
 11
-224.57
 21
-60.8553
  0
LINE
  8
0
 10
-224.57
 20
-60.8553
 11
-224.335
 21
-60.9354
  0
LINE
  8
0
 10
-224.335
 20
-60.9354
 11
-224.114
 21
-61.0489
  0
LINE
  8
0
 10
-224.114
 20
-61.0489
 11
-223.913
 21
-61.1933
  0
LINE
  8
0
 10
-223.913
 20
-61.1933
 11
-223.734
 21
-61.3656
  0
LINE
  8
0
 10
-223.734
 20
-61.3656
 11
-223.582
 21
-61.562
  0
LINE
  8
0
 10
-223.582
 20
-61.562
 11
-223.461
 21
-61.7784
  0
LINE
  8
0
 10
-223.461
 20
-61.7784
 11
-223.372
 21
-62.0102
  0
LINE
  8
0
 10
-223.372
 20
-62.0102
 11
-223.318
 21
-62.2525
  0
LINE
  8
0
 10
-223.318
 20
-62.2525
 11
-223.3
 21
-62.5
  0
LINE
  8
0
 10
-223.3
 20
-62.5
 11
-223.318
 21
-62.7475
  0
LINE
  8
0
 10
-223.318
 20
-62.7475
 11
-223.372
 21
-62.9898
  0
LINE
  8
0
 10
-223.372
 20
-62.9898
 11
-223.461
 21
-63.2216
  0
LINE
  8
0
 10
-223.461
 20
-63.2216
 11
-223.582
 21
-63.438
  0
LINE
  8
0
 10
-223.582
 20
-63.438
 11
-223.734
 21
-63.6344
  0
LINE
  8
0
 10
-223.734
 20
-63.6344
 11
-223.913
 21
-63.8067
  0
LINE
  8
0
 10
-223.913
 20
-63.8067
 11
-224.114
 21
-63.9511
  0
LINE
  8
0
 10
-224.114
 20
-63.9511
 11
-224.335
 21
-64.0646
  0
LINE
  8
0
 10
-224.335
 20
-64.0646
 11
-224.57
 21
-64.1447
  0
LINE
  8
0
 10
-224.57
 20
-64.1447
 11
-224.814
 21
-64.1898
  0
LINE
  8
0
 10
-224.814
 20
-64.1898
 11
-225.062
 21
-64.1989
  0
LINE
  8
0
 10
-225.062
 20
-64.1989
 11
-225.309
 21
-64.1717
  0
LINE
  8
0
 10
134.691
 20
-64.1717
 11
134.451
 21
-64.1089
  0
LINE
  8
0
 10
134.451
 20
-64.1089
 11
134.223
 21
-64.0119
  0
LINE
  8
0
 10
134.223
 20
-64.0119
 11
134.011
 21
-63.8826
  0
LINE
  8
0
 10
134.011
 20
-63.8826
 11
133.82
 21
-63.7238
  0
LINE
  8
0
 10
133.82
 20
-63.7238
 11
133.654
 21
-63.539
  0
LINE
  8
0
 10
133.654
 20
-63.539
 11
133.518
 21
-63.332
  0
LINE
  8
0
 10
133.518
 20
-63.332
 11
133.412
 21
-63.1073
  0
LINE
  8
0
 10
133.412
 20
-63.1073
 11
133.341
 21
-62.8696
  0
LINE
  8
0
 10
133.341
 20
-62.8696
 11
133.305
 21
-62.6241
  0
LINE
  8
0
 10
133.305
 20
-62.6241
 11
133.305
 21
-62.3759
  0
LINE
  8
0
 10
133.305
 20
-62.3759
 11
133.341
 21
-62.1304
  0
LINE
  8
0
 10
133.341
 20
-62.1304
 11
133.412
 21
-61.8927
  0
LINE
  8
0
 10
133.412
 20
-61.8927
 11
133.518
 21
-61.668
  0
LINE
  8
0
 10
133.518
 20
-61.668
 11
133.654
 21
-61.461
  0
LINE
  8
0
 10
133.654
 20
-61.461
 11
133.82
 21
-61.2762
  0
LINE
  8
0
 10
133.82
 20
-61.2762
 11
134.011
 21
-61.1174
  0
LINE
  8
0
 10
134.011
 20
-61.1174
 11
134.223
 21
-60.9881
  0
LINE
  8
0
 10
134.223
 20
-60.9881
 11
134.451
 21
-60.8911
  0
LINE
  8
0
 10
134.451
 20
-60.8911
 11
134.691
 21
-60.8283
  0
LINE
  8
0
 10
134.691
 20
-60.8283
 11
134.938
 21
-60.8011
  0
LINE
  8
0
 10
134.938
 20
-60.8011
 11
135.186
 21
-60.8102
  0
LINE
  8
0
 10
135.186
 20
-60.8102
 11
135.43
 21
-60.8553
  0
LINE
  8
0
 10
135.43
 20
-60.8553
 11
135.665
 21
-60.9354
  0
LINE
  8
0
 10
135.665
 20
-60.9354
 11
135.886
 21
-61.0489
  0
LINE
  8
0
 10
135.886
 20
-61.0489
 11
136.087
 21
-61.1933
  0
LINE
  8
0
 10
136.087
 20
-61.1933
 11
136.266
 21
-61.3656
  0
LINE
  8
0
 10
136.266
 20
-61.3656
 11
136.418
 21
-61.562
  0
LINE
  8
0
 10
136.418
 20
-61.562
 11
136.539
 21
-61.7784
  0
LINE
  8
0
 10
136.539
 20
-61.7784
 11
136.628
 21
-62.0102
  0
LINE
  8
0
 10
136.628
 20
-62.0102
 11
136.682
 21
-62.2525
  0
LINE
  8
0
 10
136.682
 20
-62.2525
 11
136.7
 21
-62.5
  0
LINE
  8
0
 10
136.7
 20
-62.5
 11
136.682
 21
-62.7475
  0
LINE
  8
0
 10
136.682
 20
-62.7475
 11
136.628
 21
-62.9898
  0
LINE
  8
0
 10
136.628
 20
-62.9898
 11
136.539
 21
-63.2216
  0
LINE
  8
0
 10
136.539
 20
-63.2216
 11
136.418
 21
-63.438
  0
LINE
  8
0
 10
136.418
 20
-63.438
 11
136.266
 21
-63.6344
  0
LINE
  8
0
 10
136.266
 20
-63.6344
 11
136.087
 21
-63.8067
  0
LINE
  8
0
 10
136.087
 20
-63.8067
 11
135.886
 21
-63.9511
  0
LINE
  8
0
 10
135.886
 20
-63.9511
 11
135.665
 21
-64.0646
  0
LINE
  8
0
 10
135.665
 20
-64.0646
 11
135.43
 21
-64.1447
  0
LINE
  8
0
 10
135.43
 20
-64.1447
 11
135.186
 21
-64.1898
  0
LINE
  8
0
 10
135.186
 20
-64.1898
 11
134.938
 21
-64.1989
  0
LINE
  8
0
 10
134.938
 20
-64.1989
 11
134.691
 21
-64.1717
  0
LINE
  8
0
 10
44.6912
 20
-64.1717
 11
44.4511
 21
-64.1089
  0
LINE
  8
0
 10
44.4511
 20
-64.1089
 11
44.2227
 21
-64.0119
  0
LINE
  8
0
 10
44.2227
 20
-64.0119
 11
44.0108
 21
-63.8826
  0
LINE
  8
0
 10
44.0108
 20
-63.8826
 11
43.8201
 21
-63.7238
  0
LINE
  8
0
 10
43.8201
 20
-63.7238
 11
43.6544
 21
-63.539
  0
LINE
  8
0
 10
43.6544
 20
-63.539
 11
43.5175
 21
-63.332
  0
LINE
  8
0
 10
43.5175
 20
-63.332
 11
43.4122
 21
-63.1073
  0
LINE
  8
0
 10
43.4122
 20
-63.1073
 11
43.3407
 21
-62.8696
  0
LINE
  8
0
 10
43.3407
 20
-62.8696
 11
43.3045
 21
-62.6241
  0
LINE
  8
0
 10
43.3045
 20
-62.6241
 11
43.3045
 21
-62.3759
  0
LINE
  8
0
 10
43.3045
 20
-62.3759
 11
43.3407
 21
-62.1304
  0
LINE
  8
0
 10
43.3407
 20
-62.1304
 11
43.4122
 21
-61.8927
  0
LINE
  8
0
 10
43.4122
 20
-61.8927
 11
43.5175
 21
-61.668
  0
LINE
  8
0
 10
43.5175
 20
-61.668
 11
43.6544
 21
-61.461
  0
LINE
  8
0
 10
43.6544
 20
-61.461
 11
43.8201
 21
-61.2762
  0
LINE
  8
0
 10
43.8201
 20
-61.2762
 11
44.0108
 21
-61.1174
  0
LINE
  8
0
 10
44.0108
 20
-61.1174
 11
44.2227
 21
-60.9881
  0
LINE
  8
0
 10
44.2227
 20
-60.9881
 11
44.4511
 21
-60.8911
  0
LINE
  8
0
 10
44.4511
 20
-60.8911
 11
44.6912
 21
-60.8283
  0
LINE
  8
0
 10
44.6912
 20
-60.8283
 11
44.9379
 21
-60.8011
  0
LINE
  8
0
 10
44.9379
 20
-60.8011
 11
45.1859
 21
-60.8102
  0
LINE
  8
0
 10
45.1859
 20
-60.8102
 11
45.43
 21
-60.8553
  0
LINE
  8
0
 10
45.43
 20
-60.8553
 11
45.6649
 21
-60.9354
  0
LINE
  8
0
 10
45.6649
 20
-60.9354
 11
45.8856
 21
-61.0489
  0
LINE
  8
0
 10
45.8856
 20
-61.0489
 11
46.0874
 21
-61.1933
  0
LINE
  8
0
 10
46.0874
 20
-61.1933
 11
46.2661
 21
-61.3656
  0
LINE
  8
0
 10
46.2661
 20
-61.3656
 11
46.4178
 21
-61.562
  0
LINE
  8
0
 10
46.4178
 20
-61.562
 11
46.5393
 21
-61.7784
  0
LINE
  8
0
 10
46.5393
 20
-61.7784
 11
46.6279
 21
-62.0102
  0
LINE
  8
0
 10
46.6279
 20
-62.0102
 11
46.6819
 21
-62.2525
  0
LINE
  8
0
 10
46.6819
 20
-62.2525
 11
46.7
 21
-62.5
  0
LINE
  8
0
 10
46.7
 20
-62.5
 11
46.6819
 21
-62.7475
  0
LINE
  8
0
 10
46.6819
 20
-62.7475
 11
46.6279
 21
-62.9898
  0
LINE
  8
0
 10
46.6279
 20
-62.9898
 11
46.5393
 21
-63.2216
  0
LINE
  8
0
 10
46.5393
 20
-63.2216
 11
46.4178
 21
-63.438
  0
LINE
  8
0
 10
46.4178
 20
-63.438
 11
46.2661
 21
-63.6344
  0
LINE
  8
0
 10
46.2661
 20
-63.6344
 11
46.0874
 21
-63.8067
  0
LINE
  8
0
 10
46.0874
 20
-63.8067
 11
45.8856
 21
-63.9511
  0
LINE
  8
0
 10
45.8856
 20
-63.9511
 11
45.6649
 21
-64.0646
  0
LINE
  8
0
 10
45.6649
 20
-64.0646
 11
45.43
 21
-64.1447
  0
LINE
  8
0
 10
45.43
 20
-64.1447
 11
45.1859
 21
-64.1898
  0
LINE
  8
0
 10
45.1859
 20
-64.1898
 11
44.9379
 21
-64.1989
  0
LINE
  8
0
 10
44.9379
 20
-64.1989
 11
44.6912
 21
-64.1717
  0
LINE
  8
0
 10
296.108
 20
-88.7294
 11
295.72
 21
-88.668
  0
LINE
  8
0
 10
295.72
 20
-88.668
 11
295.341
 21
-88.5665
  0
LINE
  8
0
 10
295.341
 20
-88.5665
 11
294.975
 21
-88.4258
  0
LINE
  8
0
 10
294.975
 20
-88.4258
 11
294.625
 21
-88.2476
  0
LINE
  8
0
 10
294.625
 20
-88.2476
 11
294.296
 21
-88.0338
  0
LINE
  8
0
 10
294.296
 20
-88.0338
 11
293.991
 21
-87.7868
  0
LINE
  8
0
 10
293.991
 20
-87.7868
 11
293.713
 21
-87.5092
  0
LINE
  8
0
 10
293.713
 20
-87.5092
 11
293.466
 21
-87.2042
  0
LINE
  8
0
 10
293.466
 20
-87.2042
 11
293.252
 21
-86.875
  0
LINE
  8
0
 10
293.252
 20
-86.875
 11
293.074
 21
-86.5253
  0
LINE
  8
0
 10
293.074
 20
-86.5253
 11
292.934
 21
-86.1588
  0
LINE
  8
0
 10
292.934
 20
-86.1588
 11
292.832
 21
-85.7797
  0
LINE
  8
0
 10
292.832
 20
-85.7797
 11
292.771
 21
-85.392
  0
LINE
  8
0
 10
292.771
 20
-85.392
 11
292.75
 21
-85
  0
LINE
  8
0
 10
292.75
 20
-85
 11
292.771
 21
-84.608
  0
LINE
  8
0
 10
292.771
 20
-84.608
 11
292.832
 21
-84.2203
  0
LINE
  8
0
 10
292.832
 20
-84.2203
 11
292.934
 21
-83.8412
  0
LINE
  8
0
 10
292.934
 20
-83.8412
 11
293.074
 21
-83.4747
  0
LINE
  8
0
 10
293.074
 20
-83.4747
 11
293.252
 21
-83.125
  0
LINE
  8
0
 10
293.252
 20
-83.125
 11
293.466
 21
-82.7958
  0
LINE
  8
0
 10
293.466
 20
-82.7958
 11
293.713
 21
-82.4908
  0
LINE
  8
0
 10
293.713
 20
-82.4908
 11
293.991
 21
-82.2132
  0
LINE
  8
0
 10
293.991
 20
-82.2132
 11
294.296
 21
-81.9662
  0
LINE
  8
0
 10
294.296
 20
-81.9662
 11
294.625
 21
-81.7524
  0
LINE
  8
0
 10
294.625
 20
-81.7524
 11
294.975
 21
-81.5742
  0
LINE
  8
0
 10
294.975
 20
-81.5742
 11
295.341
 21
-81.4335
  0
LINE
  8
0
 10
295.341
 20
-81.4335
 11
295.72
 21
-81.3319
  0
LINE
  8
0
 10
295.72
 20
-81.3319
 11
296.108
 21
-81.2705
  0
LINE
  8
0
 10
296.108
 20
-81.2705
 11
296.5
 21
-81.25
  0
LINE
  8
0
 10
296.5
 20
-81.25
 11
296.892
 21
-81.2705
  0
LINE
  8
0
 10
296.892
 20
-81.2705
 11
297.28
 21
-81.3319
  0
LINE
  8
0
 10
297.28
 20
-81.3319
 11
297.659
 21
-81.4335
  0
LINE
  8
0
 10
297.659
 20
-81.4335
 11
298.025
 21
-81.5742
  0
LINE
  8
0
 10
298.025
 20
-81.5742
 11
298.375
 21
-81.7524
  0
LINE
  8
0
 10
298.375
 20
-81.7524
 11
298.704
 21
-81.9662
  0
LINE
  8
0
 10
298.704
 20
-81.9662
 11
299.009
 21
-82.2132
  0
LINE
  8
0
 10
299.009
 20
-82.2132
 11
299.287
 21
-82.4908
  0
LINE
  8
0
 10
299.287
 20
-82.4908
 11
299.534
 21
-82.7958
  0
LINE
  8
0
 10
299.534
 20
-82.7958
 11
299.748
 21
-83.125
  0
LINE
  8
0
 10
299.748
 20
-83.125
 11
299.926
 21
-83.4747
  0
LINE
  8
0
 10
299.926
 20
-83.4747
 11
300.066
 21
-83.8412
  0
LINE
  8
0
 10
300.066
 20
-83.8412
 11
300.168
 21
-84.2203
  0
LINE
  8
0
 10
300.168
 20
-84.2203
 11
300.229
 21
-84.608
  0
LINE
  8
0
 10
300.229
 20
-84.608
 11
300.25
 21
-85
  0
LINE
  8
0
 10
300.25
 20
-85
 11
300.229
 21
-85.392
  0
LINE
  8
0
 10
300.229
 20
-85.392
 11
300.168
 21
-85.7797
  0
LINE
  8
0
 10
300.168
 20
-85.7797
 11
300.066
 21
-86.1588
  0
LINE
  8
0
 10
300.066
 20
-86.1588
 11
299.926
 21
-86.5253
  0
LINE
  8
0
 10
299.926
 20
-86.5253
 11
299.748
 21
-86.875
  0
LINE
  8
0
 10
299.748
 20
-86.875
 11
299.534
 21
-87.2042
  0
LINE
  8
0
 10
299.534
 20
-87.2042
 11
299.287
 21
-87.5092
  0
LINE
  8
0
 10
299.287
 20
-87.5092
 11
299.009
 21
-87.7868
  0
LINE
  8
0
 10
299.009
 20
-87.7868
 11
298.704
 21
-88.0338
  0
LINE
  8
0
 10
298.704
 20
-88.0338
 11
298.375
 21
-88.2476
  0
LINE
  8
0
 10
298.375
 20
-88.2476
 11
298.025
 21
-88.4258
  0
LINE
  8
0
 10
298.025
 20
-88.4258
 11
297.659
 21
-88.5665
  0
LINE
  8
0
 10
297.659
 20
-88.5665
 11
297.28
 21
-88.668
  0
LINE
  8
0
 10
297.28
 20
-88.668
 11
296.892
 21
-88.7294
  0
LINE
  8
0
 10
296.892
 20
-88.7294
 11
296.5
 21
-88.75
  0
LINE
  8
0
 10
296.5
 20
-88.75
 11
296.108
 21
-88.7294
  0
LINE
  8
0
 10
-296.892
 20
-88.7294
 11
-297.28
 21
-88.668
  0
LINE
  8
0
 10
-297.28
 20
-88.668
 11
-297.659
 21
-88.5665
  0
LINE
  8
0
 10
-297.659
 20
-88.5665
 11
-298.025
 21
-88.4258
  0
LINE
  8
0
 10
-298.025
 20
-88.4258
 11
-298.375
 21
-88.2476
  0
LINE
  8
0
 10
-298.375
 20
-88.2476
 11
-298.704
 21
-88.0338
  0
LINE
  8
0
 10
-298.704
 20
-88.0338
 11
-299.009
 21
-87.7868
  0
LINE
  8
0
 10
-299.009
 20
-87.7868
 11
-299.287
 21
-87.5092
  0
LINE
  8
0
 10
-299.287
 20
-87.5092
 11
-299.534
 21
-87.2042
  0
LINE
  8
0
 10
-299.534
 20
-87.2042
 11
-299.748
 21
-86.875
  0
LINE
  8
0
 10
-299.748
 20
-86.875
 11
-299.926
 21
-86.5253
  0
LINE
  8
0
 10
-299.926
 20
-86.5253
 11
-300.066
 21
-86.1588
  0
LINE
  8
0
 10
-300.066
 20
-86.1588
 11
-300.168
 21
-85.7797
  0
LINE
  8
0
 10
-300.168
 20
-85.7797
 11
-300.229
 21
-85.392
  0
LINE
  8
0
 10
-300.229
 20
-85.392
 11
-300.25
 21
-85
  0
LINE
  8
0
 10
-300.25
 20
-85
 11
-300.229
 21
-84.608
  0
LINE
  8
0
 10
-300.229
 20
-84.608
 11
-300.168
 21
-84.2203
  0
LINE
  8
0
 10
-300.168
 20
-84.2203
 11
-300.066
 21
-83.8412
  0
LINE
  8
0
 10
-300.066
 20
-83.8412
 11
-299.926
 21
-83.4747
  0
LINE
  8
0
 10
-299.926
 20
-83.4747
 11
-299.748
 21
-83.125
  0
LINE
  8
0
 10
-299.748
 20
-83.125
 11
-299.534
 21
-82.7958
  0
LINE
  8
0
 10
-299.534
 20
-82.7958
 11
-299.287
 21
-82.4908
  0
LINE
  8
0
 10
-299.287
 20
-82.4908
 11
-299.009
 21
-82.2132
  0
LINE
  8
0
 10
-299.009
 20
-82.2132
 11
-298.704
 21
-81.9662
  0
LINE
  8
0
 10
-298.704
 20
-81.9662
 11
-298.375
 21
-81.7524
  0
LINE
  8
0
 10
-298.375
 20
-81.7524
 11
-298.025
 21
-81.5742
  0
LINE
  8
0
 10
-298.025
 20
-81.5742
 11
-297.659
 21
-81.4335
  0
LINE
  8
0
 10
-297.659
 20
-81.4335
 11
-297.28
 21
-81.3319
  0
LINE
  8
0
 10
-297.28
 20
-81.3319
 11
-296.892
 21
-81.2705
  0
LINE
  8
0
 10
-296.892
 20
-81.2705
 11
-296.5
 21
-81.25
  0
LINE
  8
0
 10
-296.5
 20
-81.25
 11
-296.108
 21
-81.2705
  0
LINE
  8
0
 10
-296.108
 20
-81.2705
 11
-295.72
 21
-81.3319
  0
LINE
  8
0
 10
-295.72
 20
-81.3319
 11
-295.341
 21
-81.4335
  0
LINE
  8
0
 10
-295.341
 20
-81.4335
 11
-294.975
 21
-81.5742
  0
LINE
  8
0
 10
-294.975
 20
-81.5742
 11
-294.625
 21
-81.7524
  0
LINE
  8
0
 10
-294.625
 20
-81.7524
 11
-294.296
 21
-81.9662
  0
LINE
  8
0
 10
-294.296
 20
-81.9662
 11
-293.991
 21
-82.2132
  0
LINE
  8
0
 10
-293.991
 20
-82.2132
 11
-293.713
 21
-82.4908
  0
LINE
  8
0
 10
-293.713
 20
-82.4908
 11
-293.466
 21
-82.7958
  0
LINE
  8
0
 10
-293.466
 20
-82.7958
 11
-293.252
 21
-83.125
  0
LINE
  8
0
 10
-293.252
 20
-83.125
 11
-293.074
 21
-83.4747
  0
LINE
  8
0
 10
-293.074
 20
-83.4747
 11
-292.934
 21
-83.8412
  0
LINE
  8
0
 10
-292.934
 20
-83.8412
 11
-292.832
 21
-84.2203
  0
LINE
  8
0
 10
-292.832
 20
-84.2203
 11
-292.771
 21
-84.608
  0
LINE
  8
0
 10
-292.771
 20
-84.608
 11
-292.75
 21
-85
  0
LINE
  8
0
 10
-292.75
 20
-85
 11
-292.771
 21
-85.392
  0
LINE
  8
0
 10
-292.771
 20
-85.392
 11
-292.832
 21
-85.7797
  0
LINE
  8
0
 10
-292.832
 20
-85.7797
 11
-292.934
 21
-86.1588
  0
LINE
  8
0
 10
-292.934
 20
-86.1588
 11
-293.074
 21
-86.5253
  0
LINE
  8
0
 10
-293.074
 20
-86.5253
 11
-293.252
 21
-86.875
  0
LINE
  8
0
 10
-293.252
 20
-86.875
 11
-293.466
 21
-87.2042
  0
LINE
  8
0
 10
-293.466
 20
-87.2042
 11
-293.713
 21
-87.5092
  0
LINE
  8
0
 10
-293.713
 20
-87.5092
 11
-293.991
 21
-87.7868
  0
LINE
  8
0
 10
-293.991
 20
-87.7868
 11
-294.296
 21
-88.0338
  0
LINE
  8
0
 10
-294.296
 20
-88.0338
 11
-294.625
 21
-88.2476
  0
LINE
  8
0
 10
-294.625
 20
-88.2476
 11
-294.975
 21
-88.4258
  0
LINE
  8
0
 10
-294.975
 20
-88.4258
 11
-295.341
 21
-88.5665
  0
LINE
  8
0
 10
-295.341
 20
-88.5665
 11
-295.72
 21
-88.668
  0
LINE
  8
0
 10
-295.72
 20
-88.668
 11
-296.108
 21
-88.7294
  0
LINE
  8
0
 10
-296.108
 20
-88.7294
 11
-296.5
 21
-88.75
  0
LINE
  8
0
 10
-296.5
 20
-88.75
 11
-296.892
 21
-88.7294
  0
LINE
  8
0
 10
149.21
 20
-86.6454
 11
148.966
 21
-86.6086
  0
LINE
  8
0
 10
148.966
 20
-86.6086
 11
148.731
 21
-86.5359
  0
LINE
  8
0
 10
148.731
 20
-86.5359
 11
148.508
 21
-86.4289
  0
LINE
  8
0
 10
148.508
 20
-86.4289
 11
148.305
 21
-86.29
  0
LINE
  8
0
 10
148.305
 20
-86.29
 11
148.124
 21
-86.1223
  0
LINE
  8
0
 10
148.124
 20
-86.1223
 11
147.97
 21
-85.9295
  0
LINE
  8
0
 10
147.97
 20
-85.9295
 11
147.847
 21
-85.7159
  0
LINE
  8
0
 10
147.847
 20
-85.7159
 11
147.757
 21
-85.4863
  0
LINE
  8
0
 10
147.757
 20
-85.4863
 11
147.702
 21
-85.2459
  0
LINE
  8
0
 10
147.702
 20
-85.2459
 11
147.683
 21
-85
  0
LINE
  8
0
 10
147.683
 20
-85
 11
147.702
 21
-84.7541
  0
LINE
  8
0
 10
147.702
 20
-84.7541
 11
147.757
 21
-84.5137
  0
LINE
  8
0
 10
147.757
 20
-84.5137
 11
147.847
 21
-84.2841
  0
LINE
  8
0
 10
147.847
 20
-84.2841
 11
147.97
 21
-84.0705
  0
LINE
  8
0
 10
147.97
 20
-84.0705
 11
148.124
 21
-83.8777
  0
LINE
  8
0
 10
148.124
 20
-83.8777
 11
148.305
 21
-83.71
  0
LINE
  8
0
 10
148.305
 20
-83.71
 11
148.508
 21
-83.5711
  0
LINE
  8
0
 10
148.508
 20
-83.5711
 11
148.731
 21
-83.4641
  0
LINE
  8
0
 10
148.731
 20
-83.4641
 11
148.966
 21
-83.3914
  0
LINE
  8
0
 10
148.966
 20
-83.3914
 11
149.21
 21
-83.3546
  0
LINE
  8
0
 10
149.21
 20
-83.3546
 11
189.457
 21
-83.3546
  0
LINE
  8
0
 10
189.457
 20
-83.3546
 11
189.701
 21
-83.3914
  0
LINE
  8
0
 10
189.701
 20
-83.3914
 11
189.936
 21
-83.4641
  0
LINE
  8
0
 10
189.936
 20
-83.4641
 11
190.158
 21
-83.5711
  0
LINE
  8
0
 10
190.158
 20
-83.5711
 11
190.362
 21
-83.71
  0
LINE
  8
0
 10
190.362
 20
-83.71
 11
190.543
 21
-83.8777
  0
LINE
  8
0
 10
190.543
 20
-83.8777
 11
190.697
 21
-84.0705
  0
LINE
  8
0
 10
190.697
 20
-84.0705
 11
190.82
 21
-84.2841
  0
LINE
  8
0
 10
190.82
 20
-84.2841
 11
190.91
 21
-84.5137
  0
LINE
  8
0
 10
190.91
 20
-84.5137
 11
190.965
 21
-84.7541
  0
LINE
  8
0
 10
190.965
 20
-84.7541
 11
190.983
 21
-85
  0
LINE
  8
0
 10
190.983
 20
-85
 11
190.965
 21
-85.2459
  0
LINE
  8
0
 10
190.965
 20
-85.2459
 11
190.91
 21
-85.4863
  0
LINE
  8
0
 10
190.91
 20
-85.4863
 11
190.82
 21
-85.7159
  0
LINE
  8
0
 10
190.82
 20
-85.7159
 11
190.697
 21
-85.9295
  0
LINE
  8
0
 10
190.697
 20
-85.9295
 11
190.543
 21
-86.1223
  0
LINE
  8
0
 10
190.543
 20
-86.1223
 11
190.362
 21
-86.29
  0
LINE
  8
0
 10
190.362
 20
-86.29
 11
190.158
 21
-86.4289
  0
LINE
  8
0
 10
190.158
 20
-86.4289
 11
189.936
 21
-86.5359
  0
LINE
  8
0
 10
189.936
 20
-86.5359
 11
189.701
 21
-86.6086
  0
LINE
  8
0
 10
189.701
 20
-86.6086
 11
189.457
 21
-86.6454
  0
LINE
  8
0
 10
189.457
 20
-86.6454
 11
149.21
 21
-86.6454
  0
LINE
  8
0
 10
-20.1233
 20
-86.6454
 11
-20.3672
 21
-86.6086
  0
LINE
  8
0
 10
-20.3672
 20
-86.6086
 11
-20.6028
 21
-86.5359
  0
LINE
  8
0
 10
-20.6028
 20
-86.5359
 11
-20.825
 21
-86.4289
  0
LINE
  8
0
 10
-20.825
 20
-86.4289
 11
-21.0287
 21
-86.29
  0
LINE
  8
0
 10
-21.0287
 20
-86.29
 11
-21.2095
 21
-86.1223
  0
LINE
  8
0
 10
-21.2095
 20
-86.1223
 11
-21.3633
 21
-85.9295
  0
LINE
  8
0
 10
-21.3633
 20
-85.9295
 11
-21.4866
 21
-85.7159
  0
LINE
  8
0
 10
-21.4866
 20
-85.7159
 11
-21.5767
 21
-85.4863
  0
LINE
  8
0
 10
-21.5767
 20
-85.4863
 11
-21.6316
 21
-85.2459
  0
LINE
  8
0
 10
-21.6316
 20
-85.2459
 11
-21.65
 21
-85
  0
LINE
  8
0
 10
-21.65
 20
-85
 11
-21.6316
 21
-84.7541
  0
LINE
  8
0
 10
-21.6316
 20
-84.7541
 11
-21.5767
 21
-84.5137
  0
LINE
  8
0
 10
-21.5767
 20
-84.5137
 11
-21.4866
 21
-84.2841
  0
LINE
  8
0
 10
-21.4866
 20
-84.2841
 11
-21.3633
 21
-84.0705
  0
LINE
  8
0
 10
-21.3633
 20
-84.0705
 11
-21.2095
 21
-83.8777
  0
LINE
  8
0
 10
-21.2095
 20
-83.8777
 11
-21.0287
 21
-83.71
  0
LINE
  8
0
 10
-21.0287
 20
-83.71
 11
-20.825
 21
-83.5711
  0
LINE
  8
0
 10
-20.825
 20
-83.5711
 11
-20.6028
 21
-83.4641
  0
LINE
  8
0
 10
-20.6028
 20
-83.4641
 11
-20.3672
 21
-83.3914
  0
LINE
  8
0
 10
-20.3672
 20
-83.3914
 11
-20.1233
 21
-83.3546
  0
LINE
  8
0
 10
-20.1233
 20
-83.3546
 11
20.1233
 21
-83.3546
  0
LINE
  8
0
 10
20.1233
 20
-83.3546
 11
20.3672
 21
-83.3914
  0
LINE
  8
0
 10
20.3672
 20
-83.3914
 11
20.6028
 21
-83.4641
  0
LINE
  8
0
 10
20.6028
 20
-83.4641
 11
20.825
 21
-83.5711
  0
LINE
  8
0
 10
20.825
 20
-83.5711
 11
21.0287
 21
-83.71
  0
LINE
  8
0
 10
21.0287
 20
-83.71
 11
21.2095
 21
-83.8777
  0
LINE
  8
0
 10
21.2095
 20
-83.8777
 11
21.3633
 21
-84.0705
  0
LINE
  8
0
 10
21.3633
 20
-84.0705
 11
21.4866
 21
-84.2841
  0
LINE
  8
0
 10
21.4866
 20
-84.2841
 11
21.5767
 21
-84.5137
  0
LINE
  8
0
 10
21.5767
 20
-84.5137
 11
21.6316
 21
-84.7541
  0
LINE
  8
0
 10
21.6316
 20
-84.7541
 11
21.65
 21
-85
  0
LINE
  8
0
 10
21.65
 20
-85
 11
21.6316
 21
-85.2459
  0
LINE
  8
0
 10
21.6316
 20
-85.2459
 11
21.5767
 21
-85.4863
  0
LINE
  8
0
 10
21.5767
 20
-85.4863
 11
21.4866
 21
-85.7159
  0
LINE
  8
0
 10
21.4866
 20
-85.7159
 11
21.3633
 21
-85.9295
  0
LINE
  8
0
 10
21.3633
 20
-85.9295
 11
21.2095
 21
-86.1223
  0
LINE
  8
0
 10
21.2095
 20
-86.1223
 11
21.0287
 21
-86.29
  0
LINE
  8
0
 10
21.0287
 20
-86.29
 11
20.825
 21
-86.4289
  0
LINE
  8
0
 10
20.825
 20
-86.4289
 11
20.6028
 21
-86.5359
  0
LINE
  8
0
 10
20.6028
 20
-86.5359
 11
20.3672
 21
-86.6086
  0
LINE
  8
0
 10
20.3672
 20
-86.6086
 11
20.1233
 21
-86.6454
  0
LINE
  8
0
 10
20.1233
 20
-86.6454
 11
-20.1233
 21
-86.6454
  0
LINE
  8
0
 10
-189.457
 20
-86.6454
 11
-189.701
 21
-86.6086
  0
LINE
  8
0
 10
-189.701
 20
-86.6086
 11
-189.936
 21
-86.5359
  0
LINE
  8
0
 10
-189.936
 20
-86.5359
 11
-190.158
 21
-86.4289
  0
LINE
  8
0
 10
-190.158
 20
-86.4289
 11
-190.362
 21
-86.29
  0
LINE
  8
0
 10
-190.362
 20
-86.29
 11
-190.543
 21
-86.1223
  0
LINE
  8
0
 10
-190.543
 20
-86.1223
 11
-190.697
 21
-85.9295
  0
LINE
  8
0
 10
-190.697
 20
-85.9295
 11
-190.82
 21
-85.7159
  0
LINE
  8
0
 10
-190.82
 20
-85.7159
 11
-190.91
 21
-85.4863
  0
LINE
  8
0
 10
-190.91
 20
-85.4863
 11
-190.965
 21
-85.2459
  0
LINE
  8
0
 10
-190.965
 20
-85.2459
 11
-190.983
 21
-85
  0
LINE
  8
0
 10
-190.983
 20
-85
 11
-190.965
 21
-84.7541
  0
LINE
  8
0
 10
-190.965
 20
-84.7541
 11
-190.91
 21
-84.5137
  0
LINE
  8
0
 10
-190.91
 20
-84.5137
 11
-190.82
 21
-84.2841
  0
LINE
  8
0
 10
-190.82
 20
-84.2841
 11
-190.697
 21
-84.0705
  0
LINE
  8
0
 10
-190.697
 20
-84.0705
 11
-190.543
 21
-83.8777
  0
LINE
  8
0
 10
-190.543
 20
-83.8777
 11
-190.362
 21
-83.71
  0
LINE
  8
0
 10
-190.362
 20
-83.71
 11
-190.158
 21
-83.5711
  0
LINE
  8
0
 10
-190.158
 20
-83.5711
 11
-189.936
 21
-83.4641
  0
LINE
  8
0
 10
-189.936
 20
-83.4641
 11
-189.701
 21
-83.3914
  0
LINE
  8
0
 10
-189.701
 20
-83.3914
 11
-189.457
 21
-83.3546
  0
LINE
  8
0
 10
-189.457
 20
-83.3546
 11
-149.21
 21
-83.3546
  0
LINE
  8
0
 10
-149.21
 20
-83.3546
 11
-148.966
 21
-83.3914
  0
LINE
  8
0
 10
-148.966
 20
-83.3914
 11
-148.731
 21
-83.4641
  0
LINE
  8
0
 10
-148.731
 20
-83.4641
 11
-148.508
 21
-83.5711
  0
LINE
  8
0
 10
-148.508
 20
-83.5711
 11
-148.305
 21
-83.71
  0
LINE
  8
0
 10
-148.305
 20
-83.71
 11
-148.124
 21
-83.8777
  0
LINE
  8
0
 10
-148.124
 20
-83.8777
 11
-147.97
 21
-84.0705
  0
LINE
  8
0
 10
-147.97
 20
-84.0705
 11
-147.847
 21
-84.2841
  0
LINE
  8
0
 10
-147.847
 20
-84.2841
 11
-147.757
 21
-84.5137
  0
LINE
  8
0
 10
-147.757
 20
-84.5137
 11
-147.702
 21
-84.7541
  0
LINE
  8
0
 10
-147.702
 20
-84.7541
 11
-147.683
 21
-85
  0
LINE
  8
0
 10
-147.683
 20
-85
 11
-147.702
 21
-85.2459
  0
LINE
  8
0
 10
-147.702
 20
-85.2459
 11
-147.757
 21
-85.4863
  0
LINE
  8
0
 10
-147.757
 20
-85.4863
 11
-147.847
 21
-85.7159
  0
LINE
  8
0
 10
-147.847
 20
-85.7159
 11
-147.97
 21
-85.9295
  0
LINE
  8
0
 10
-147.97
 20
-85.9295
 11
-148.124
 21
-86.1223
  0
LINE
  8
0
 10
-148.124
 20
-86.1223
 11
-148.305
 21
-86.29
  0
LINE
  8
0
 10
-148.305
 20
-86.29
 11
-148.508
 21
-86.4289
  0
LINE
  8
0
 10
-148.508
 20
-86.4289
 11
-148.731
 21
-86.5359
  0
LINE
  8
0
 10
-148.731
 20
-86.5359
 11
-148.966
 21
-86.6086
  0
LINE
  8
0
 10
-148.966
 20
-86.6086
 11
-149.21
 21
-86.6454
  0
LINE
  8
0
 10
-149.21
 20
-86.6454
 11
-189.457
 21
-86.6454
  0
LINE
  8
0
 10
-104.79
 20
-86.6454
 11
-105.034
 21
-86.6086
  0
LINE
  8
0
 10
-105.034
 20
-86.6086
 11
-105.269
 21
-86.5359
  0
LINE
  8
0
 10
-105.269
 20
-86.5359
 11
-105.492
 21
-86.4289
  0
LINE
  8
0
 10
-105.492
 20
-86.4289
 11
-105.695
 21
-86.29
  0
LINE
  8
0
 10
-105.695
 20
-86.29
 11
-105.876
 21
-86.1223
  0
LINE
  8
0
 10
-105.876
 20
-86.1223
 11
-106.03
 21
-85.9295
  0
LINE
  8
0
 10
-106.03
 20
-85.9295
 11
-106.153
 21
-85.7159
  0
LINE
  8
0
 10
-106.153
 20
-85.7159
 11
-106.243
 21
-85.4863
  0
LINE
  8
0
 10
-106.243
 20
-85.4863
 11
-106.298
 21
-85.2459
  0
LINE
  8
0
 10
-106.298
 20
-85.2459
 11
-106.317
 21
-85
  0
LINE
  8
0
 10
-106.317
 20
-85
 11
-106.298
 21
-84.7541
  0
LINE
  8
0
 10
-106.298
 20
-84.7541
 11
-106.243
 21
-84.5137
  0
LINE
  8
0
 10
-106.243
 20
-84.5137
 11
-106.153
 21
-84.2841
  0
LINE
  8
0
 10
-106.153
 20
-84.2841
 11
-106.03
 21
-84.0705
  0
LINE
  8
0
 10
-106.03
 20
-84.0705
 11
-105.876
 21
-83.8777
  0
LINE
  8
0
 10
-105.876
 20
-83.8777
 11
-105.695
 21
-83.71
  0
LINE
  8
0
 10
-105.695
 20
-83.71
 11
-105.492
 21
-83.5711
  0
LINE
  8
0
 10
-105.492
 20
-83.5711
 11
-105.269
 21
-83.4641
  0
LINE
  8
0
 10
-105.269
 20
-83.4641
 11
-105.034
 21
-83.3914
  0
LINE
  8
0
 10
-105.034
 20
-83.3914
 11
-104.79
 21
-83.3546
  0
LINE
  8
0
 10
-104.79
 20
-83.3546
 11
-64.5434
 21
-83.3546
  0
LINE
  8
0
 10
-64.5434
 20
-83.3546
 11
-64.2995
 21
-83.3914
  0
LINE
  8
0
 10
-64.2995
 20
-83.3914
 11
-64.0638
 21
-83.4641
  0
LINE
  8
0
 10
-64.0638
 20
-83.4641
 11
-63.8417
 21
-83.5711
  0
LINE
  8
0
 10
-63.8417
 20
-83.5711
 11
-63.6379
 21
-83.71
  0
LINE
  8
0
 10
-63.6379
 20
-83.71
 11
-63.4571
 21
-83.8777
  0
LINE
  8
0
 10
-63.4571
 20
-83.8777
 11
-63.3034
 21
-84.0705
  0
LINE
  8
0
 10
-63.3034
 20
-84.0705
 11
-63.1801
 21
-84.2841
  0
LINE
  8
0
 10
-63.1801
 20
-84.2841
 11
-63.09
 21
-84.5137
  0
LINE
  8
0
 10
-63.09
 20
-84.5137
 11
-63.0351
 21
-84.7541
  0
LINE
  8
0
 10
-63.0351
 20
-84.7541
 11
-63.0167
 21
-85
  0
LINE
  8
0
 10
-63.0167
 20
-85
 11
-63.0351
 21
-85.2459
  0
LINE
  8
0
 10
-63.0351
 20
-85.2459
 11
-63.09
 21
-85.4863
  0
LINE
  8
0
 10
-63.09
 20
-85.4863
 11
-63.1801
 21
-85.7159
  0
LINE
  8
0
 10
-63.1801
 20
-85.7159
 11
-63.3034
 21
-85.9295
  0
LINE
  8
0
 10
-63.3034
 20
-85.9295
 11
-63.4571
 21
-86.1223
  0
LINE
  8
0
 10
-63.4571
 20
-86.1223
 11
-63.6379
 21
-86.29
  0
LINE
  8
0
 10
-63.6379
 20
-86.29
 11
-63.8417
 21
-86.4289
  0
LINE
  8
0
 10
-63.8417
 20
-86.4289
 11
-64.0638
 21
-86.5359
  0
LINE
  8
0
 10
-64.0638
 20
-86.5359
 11
-64.2995
 21
-86.6086
  0
LINE
  8
0
 10
-64.2995
 20
-86.6086
 11
-64.5434
 21
-86.6454
  0
LINE
  8
0
 10
-64.5434
 20
-86.6454
 11
-104.79
 21
-86.6454
  0
LINE
  8
0
 10
64.5434
 20
-86.6454
 11
64.2995
 21
-86.6086
  0
LINE
  8
0
 10
64.2995
 20
-86.6086
 11
64.0638
 21
-86.5359
  0
LINE
  8
0
 10
64.0638
 20
-86.5359
 11
63.8417
 21
-86.4289
  0
LINE
  8
0
 10
63.8417
 20
-86.4289
 11
63.6379
 21
-86.29
  0
LINE
  8
0
 10
63.6379
 20
-86.29
 11
63.4571
 21
-86.1223
  0
LINE
  8
0
 10
63.4571
 20
-86.1223
 11
63.3034
 21
-85.9295
  0
LINE
  8
0
 10
63.3034
 20
-85.9295
 11
63.1801
 21
-85.7159
  0
LINE
  8
0
 10
63.1801
 20
-85.7159
 11
63.09
 21
-85.4863
  0
LINE
  8
0
 10
63.09
 20
-85.4863
 11
63.0351
 21
-85.2459
  0
LINE
  8
0
 10
63.0351
 20
-85.2459
 11
63.0167
 21
-85
  0
LINE
  8
0
 10
63.0167
 20
-85
 11
63.0351
 21
-84.7541
  0
LINE
  8
0
 10
63.0351
 20
-84.7541
 11
63.09
 21
-84.5137
  0
LINE
  8
0
 10
63.09
 20
-84.5137
 11
63.1801
 21
-84.2841
  0
LINE
  8
0
 10
63.1801
 20
-84.2841
 11
63.3034
 21
-84.0705
  0
LINE
  8
0
 10
63.3034
 20
-84.0705
 11
63.4571
 21
-83.8777
  0
LINE
  8
0
 10
63.4571
 20
-83.8777
 11
63.6379
 21
-83.71
  0
LINE
  8
0
 10
63.6379
 20
-83.71
 11
63.8417
 21
-83.5711
  0
LINE
  8
0
 10
63.8417
 20
-83.5711
 11
64.0638
 21
-83.4641
  0
LINE
  8
0
 10
64.0638
 20
-83.4641
 11
64.2995
 21
-83.3914
  0
LINE
  8
0
 10
64.2995
 20
-83.3914
 11
64.5434
 21
-83.3546
  0
LINE
  8
0
 10
64.5434
 20
-83.3546
 11
104.79
 21
-83.3546
  0
LINE
  8
0
 10
104.79
 20
-83.3546
 11
105.034
 21
-83.3914
  0
LINE
  8
0
 10
105.034
 20
-83.3914
 11
105.269
 21
-83.4641
  0
LINE
  8
0
 10
105.269
 20
-83.4641
 11
105.492
 21
-83.5711
  0
LINE
  8
0
 10
105.492
 20
-83.5711
 11
105.695
 21
-83.71
  0
LINE
  8
0
 10
105.695
 20
-83.71
 11
105.876
 21
-83.8777
  0
LINE
  8
0
 10
105.876
 20
-83.8777
 11
106.03
 21
-84.0705
  0
LINE
  8
0
 10
106.03
 20
-84.0705
 11
106.153
 21
-84.2841
  0
LINE
  8
0
 10
106.153
 20
-84.2841
 11
106.243
 21
-84.5137
  0
LINE
  8
0
 10
106.243
 20
-84.5137
 11
106.298
 21
-84.7541
  0
LINE
  8
0
 10
106.298
 20
-84.7541
 11
106.317
 21
-85
  0
LINE
  8
0
 10
106.317
 20
-85
 11
106.298
 21
-85.2459
  0
LINE
  8
0
 10
106.298
 20
-85.2459
 11
106.243
 21
-85.4863
  0
LINE
  8
0
 10
106.243
 20
-85.4863
 11
106.153
 21
-85.7159
  0
LINE
  8
0
 10
106.153
 20
-85.7159
 11
106.03
 21
-85.9295
  0
LINE
  8
0
 10
106.03
 20
-85.9295
 11
105.876
 21
-86.1223
  0
LINE
  8
0
 10
105.876
 20
-86.1223
 11
105.695
 21
-86.29
  0
LINE
  8
0
 10
105.695
 20
-86.29
 11
105.492
 21
-86.4289
  0
LINE
  8
0
 10
105.492
 20
-86.4289
 11
105.269
 21
-86.5359
  0
LINE
  8
0
 10
105.269
 20
-86.5359
 11
105.034
 21
-86.6086
  0
LINE
  8
0
 10
105.034
 20
-86.6086
 11
104.79
 21
-86.6454
  0
LINE
  8
0
 10
104.79
 20
-86.6454
 11
64.5434
 21
-86.6454
  0
LINE
  8
0
 10
-274.123
 20
-86.6454
 11
-274.367
 21
-86.6086
  0
LINE
  8
0
 10
-274.367
 20
-86.6086
 11
-274.603
 21
-86.5359
  0
LINE
  8
0
 10
-274.603
 20
-86.5359
 11
-274.825
 21
-86.4289
  0
LINE
  8
0
 10
-274.825
 20
-86.4289
 11
-275.029
 21
-86.29
  0
LINE
  8
0
 10
-275.029
 20
-86.29
 11
-275.21
 21
-86.1223
  0
LINE
  8
0
 10
-275.21
 20
-86.1223
 11
-275.363
 21
-85.9295
  0
LINE
  8
0
 10
-275.363
 20
-85.9295
 11
-275.487
 21
-85.7159
  0
LINE
  8
0
 10
-275.487
 20
-85.7159
 11
-275.577
 21
-85.4863
  0
LINE
  8
0
 10
-275.577
 20
-85.4863
 11
-275.632
 21
-85.2459
  0
LINE
  8
0
 10
-275.632
 20
-85.2459
 11
-275.65
 21
-85
  0
LINE
  8
0
 10
-275.65
 20
-85
 11
-275.632
 21
-84.7541
  0
LINE
  8
0
 10
-275.632
 20
-84.7541
 11
-275.577
 21
-84.5137
  0
LINE
  8
0
 10
-275.577
 20
-84.5137
 11
-275.487
 21
-84.2841
  0
LINE
  8
0
 10
-275.487
 20
-84.2841
 11
-275.363
 21
-84.0705
  0
LINE
  8
0
 10
-275.363
 20
-84.0705
 11
-275.21
 21
-83.8777
  0
LINE
  8
0
 10
-275.21
 20
-83.8777
 11
-275.029
 21
-83.71
  0
LINE
  8
0
 10
-275.029
 20
-83.71
 11
-274.825
 21
-83.5711
  0
LINE
  8
0
 10
-274.825
 20
-83.5711
 11
-274.603
 21
-83.4641
  0
LINE
  8
0
 10
-274.603
 20
-83.4641
 11
-274.367
 21
-83.3914
  0
LINE
  8
0
 10
-274.367
 20
-83.3914
 11
-274.123
 21
-83.3546
  0
LINE
  8
0
 10
-274.123
 20
-83.3546
 11
-233.877
 21
-83.3546
  0
LINE
  8
0
 10
-233.877
 20
-83.3546
 11
-233.633
 21
-83.3914
  0
LINE
  8
0
 10
-233.633
 20
-83.3914
 11
-233.397
 21
-83.4641
  0
LINE
  8
0
 10
-233.397
 20
-83.4641
 11
-233.175
 21
-83.5711
  0
LINE
  8
0
 10
-233.175
 20
-83.5711
 11
-232.971
 21
-83.71
  0
LINE
  8
0
 10
-232.971
 20
-83.71
 11
-232.79
 21
-83.8777
  0
LINE
  8
0
 10
-232.79
 20
-83.8777
 11
-232.637
 21
-84.0705
  0
LINE
  8
0
 10
-232.637
 20
-84.0705
 11
-232.513
 21
-84.2841
  0
LINE
  8
0
 10
-232.513
 20
-84.2841
 11
-232.423
 21
-84.5137
  0
LINE
  8
0
 10
-232.423
 20
-84.5137
 11
-232.368
 21
-84.7541
  0
LINE
  8
0
 10
-232.368
 20
-84.7541
 11
-232.35
 21
-85
  0
LINE
  8
0
 10
-232.35
 20
-85
 11
-232.368
 21
-85.2459
  0
LINE
  8
0
 10
-232.368
 20
-85.2459
 11
-232.423
 21
-85.4863
  0
LINE
  8
0
 10
-232.423
 20
-85.4863
 11
-232.513
 21
-85.7159
  0
LINE
  8
0
 10
-232.513
 20
-85.7159
 11
-232.637
 21
-85.9295
  0
LINE
  8
0
 10
-232.637
 20
-85.9295
 11
-232.79
 21
-86.1223
  0
LINE
  8
0
 10
-232.79
 20
-86.1223
 11
-232.971
 21
-86.29
  0
LINE
  8
0
 10
-232.971
 20
-86.29
 11
-233.175
 21
-86.4289
  0
LINE
  8
0
 10
-233.175
 20
-86.4289
 11
-233.397
 21
-86.5359
  0
LINE
  8
0
 10
-233.397
 20
-86.5359
 11
-233.633
 21
-86.6086
  0
LINE
  8
0
 10
-233.633
 20
-86.6086
 11
-233.877
 21
-86.6454
  0
LINE
  8
0
 10
-233.877
 20
-86.6454
 11
-274.123
 21
-86.6454
  0
LINE
  8
0
 10
233.877
 20
-86.6454
 11
233.633
 21
-86.6086
  0
LINE
  8
0
 10
233.633
 20
-86.6086
 11
233.397
 21
-86.5359
  0
LINE
  8
0
 10
233.397
 20
-86.5359
 11
233.175
 21
-86.4289
  0
LINE
  8
0
 10
233.175
 20
-86.4289
 11
232.971
 21
-86.29
  0
LINE
  8
0
 10
232.971
 20
-86.29
 11
232.79
 21
-86.1223
  0
LINE
  8
0
 10
232.79
 20
-86.1223
 11
232.637
 21
-85.9295
  0
LINE
  8
0
 10
232.637
 20
-85.9295
 11
232.513
 21
-85.7159
  0
LINE
  8
0
 10
232.513
 20
-85.7159
 11
232.423
 21
-85.4863
  0
LINE
  8
0
 10
232.423
 20
-85.4863
 11
232.368
 21
-85.2459
  0
LINE
  8
0
 10
232.368
 20
-85.2459
 11
232.35
 21
-85
  0
LINE
  8
0
 10
232.35
 20
-85
 11
232.368
 21
-84.7541
  0
LINE
  8
0
 10
232.368
 20
-84.7541
 11
232.423
 21
-84.5137
  0
LINE
  8
0
 10
232.423
 20
-84.5137
 11
232.513
 21
-84.2841
  0
LINE
  8
0
 10
232.513
 20
-84.2841
 11
232.637
 21
-84.0705
  0
LINE
  8
0
 10
232.637
 20
-84.0705
 11
232.79
 21
-83.8777
  0
LINE
  8
0
 10
232.79
 20
-83.8777
 11
232.971
 21
-83.71
  0
LINE
  8
0
 10
232.971
 20
-83.71
 11
233.175
 21
-83.5711
  0
LINE
  8
0
 10
233.175
 20
-83.5711
 11
233.397
 21
-83.4641
  0
LINE
  8
0
 10
233.397
 20
-83.4641
 11
233.633
 21
-83.3914
  0
LINE
  8
0
 10
233.633
 20
-83.3914
 11
233.877
 21
-83.3546
  0
LINE
  8
0
 10
233.877
 20
-83.3546
 11
274.123
 21
-83.3546
  0
LINE
  8
0
 10
274.123
 20
-83.3546
 11
274.367
 21
-83.3914
  0
LINE
  8
0
 10
274.367
 20
-83.3914
 11
274.603
 21
-83.4641
  0
LINE
  8
0
 10
274.603
 20
-83.4641
 11
274.825
 21
-83.5711
  0
LINE
  8
0
 10
274.825
 20
-83.5711
 11
275.029
 21
-83.71
  0
LINE
  8
0
 10
275.029
 20
-83.71
 11
275.21
 21
-83.8777
  0
LINE
  8
0
 10
275.21
 20
-83.8777
 11
275.363
 21
-84.0705
  0
LINE
  8
0
 10
275.363
 20
-84.0705
 11
275.487
 21
-84.2841
  0
LINE
  8
0
 10
275.487
 20
-84.2841
 11
275.577
 21
-84.5137
  0
LINE
  8
0
 10
275.577
 20
-84.5137
 11
275.632
 21
-84.7541
  0
LINE
  8
0
 10
275.632
 20
-84.7541
 11
275.65
 21
-85
  0
LINE
  8
0
 10
275.65
 20
-85
 11
275.632
 21
-85.2459
  0
LINE
  8
0
 10
275.632
 20
-85.2459
 11
275.577
 21
-85.4863
  0
LINE
  8
0
 10
275.577
 20
-85.4863
 11
275.487
 21
-85.7159
  0
LINE
  8
0
 10
275.487
 20
-85.7159
 11
275.363
 21
-85.9295
  0
LINE
  8
0
 10
275.363
 20
-85.9295
 11
275.21
 21
-86.1223
  0
LINE
  8
0
 10
275.21
 20
-86.1223
 11
275.029
 21
-86.29
  0
LINE
  8
0
 10
275.029
 20
-86.29
 11
274.825
 21
-86.4289
  0
LINE
  8
0
 10
274.825
 20
-86.4289
 11
274.603
 21
-86.5359
  0
LINE
  8
0
 10
274.603
 20
-86.5359
 11
274.367
 21
-86.6086
  0
LINE
  8
0
 10
274.367
 20
-86.6086
 11
274.123
 21
-86.6454
  0
LINE
  8
0
 10
274.123
 20
-86.6454
 11
233.877
 21
-86.6454
  0
LINE
  8
0
 10
190.91
 20
84.5137
 11
190.82
 21
84.2841
  0
LINE
  8
0
 10
190.82
 20
84.2841
 11
190.697
 21
84.0705
  0
LINE
  8
0
 10
190.697
 20
84.0705
 11
190.543
 21
83.8777
  0
LINE
  8
0
 10
190.543
 20
83.8777
 11
190.362
 21
83.71
  0
LINE
  8
0
 10
190.362
 20
83.71
 11
190.158
 21
83.5711
  0
LINE
  8
0
 10
190.158
 20
83.5711
 11
189.936
 21
83.4641
  0
LINE
  8
0
 10
189.936
 20
83.4641
 11
189.701
 21
83.3914
  0
LINE
  8
0
 10
189.701
 20
83.3914
 11
189.457
 21
83.3546
  0
LINE
  8
0
 10
189.457
 20
83.3546
 11
149.21
 21
83.3546
  0
LINE
  8
0
 10
149.21
 20
83.3546
 11
148.966
 21
83.3914
  0
LINE
  8
0
 10
148.966
 20
83.3914
 11
148.731
 21
83.4641
  0
LINE
  8
0
 10
148.731
 20
83.4641
 11
148.508
 21
83.5711
  0
LINE
  8
0
 10
148.508
 20
83.5711
 11
148.305
 21
83.71
  0
LINE
  8
0
 10
148.305
 20
83.71
 11
148.124
 21
83.8777
  0
LINE
  8
0
 10
148.124
 20
83.8777
 11
147.97
 21
84.0705
  0
LINE
  8
0
 10
147.97
 20
84.0705
 11
147.847
 21
84.2841
  0
LINE
  8
0
 10
147.847
 20
84.2841
 11
147.757
 21
84.5137
  0
LINE
  8
0
 10
147.757
 20
84.5137
 11
147.702
 21
84.7541
  0
LINE
  8
0
 10
147.702
 20
84.7541
 11
147.683
 21
85
  0
LINE
  8
0
 10
147.683
 20
85
 11
147.702
 21
85.2459
  0
LINE
  8
0
 10
147.702
 20
85.2459
 11
147.757
 21
85.4863
  0
LINE
  8
0
 10
147.757
 20
85.4863
 11
147.847
 21
85.7159
  0
LINE
  8
0
 10
147.847
 20
85.7159
 11
147.97
 21
85.9295
  0
LINE
  8
0
 10
147.97
 20
85.9295
 11
148.124
 21
86.1223
  0
LINE
  8
0
 10
148.124
 20
86.1223
 11
148.305
 21
86.29
  0
LINE
  8
0
 10
148.305
 20
86.29
 11
148.508
 21
86.4289
  0
LINE
  8
0
 10
148.508
 20
86.4289
 11
148.731
 21
86.5359
  0
LINE
  8
0
 10
148.731
 20
86.5359
 11
148.966
 21
86.6086
  0
LINE
  8
0
 10
148.966
 20
86.6086
 11
149.21
 21
86.6454
  0
LINE
  8
0
 10
149.21
 20
86.6454
 11
189.457
 21
86.6454
  0
LINE
  8
0
 10
189.457
 20
86.6454
 11
189.701
 21
86.6086
  0
LINE
  8
0
 10
189.701
 20
86.6086
 11
189.936
 21
86.5359
  0
LINE
  8
0
 10
189.936
 20
86.5359
 11
190.158
 21
86.4289
  0
LINE
  8
0
 10
190.158
 20
86.4289
 11
190.362
 21
86.29
  0
LINE
  8
0
 10
190.362
 20
86.29
 11
190.543
 21
86.1223
  0
LINE
  8
0
 10
190.543
 20
86.1223
 11
190.697
 21
85.9295
  0
LINE
  8
0
 10
190.697
 20
85.9295
 11
190.82
 21
85.7159
  0
LINE
  8
0
 10
190.82
 20
85.7159
 11
190.91
 21
85.4863
  0
LINE
  8
0
 10
190.91
 20
85.4863
 11
190.965
 21
85.2459
  0
LINE
  8
0
 10
190.965
 20
85.2459
 11
190.983
 21
85
  0
LINE
  8
0
 10
190.983
 20
85
 11
190.965
 21
84.7541
  0
LINE
  8
0
 10
190.965
 20
84.7541
 11
190.91
 21
84.5137
  0
LINE
  8
0
 10
-292.832
 20
84.2203
 11
-292.934
 21
83.8412
  0
LINE
  8
0
 10
-292.934
 20
83.8412
 11
-293.074
 21
83.4747
  0
LINE
  8
0
 10
-293.074
 20
83.4747
 11
-293.252
 21
83.125
  0
LINE
  8
0
 10
-293.252
 20
83.125
 11
-293.466
 21
82.7958
  0
LINE
  8
0
 10
-293.466
 20
82.7958
 11
-293.713
 21
82.4908
  0
LINE
  8
0
 10
-293.713
 20
82.4908
 11
-293.991
 21
82.2132
  0
LINE
  8
0
 10
-293.991
 20
82.2132
 11
-294.296
 21
81.9662
  0
LINE
  8
0
 10
-294.296
 20
81.9662
 11
-294.625
 21
81.7524
  0
LINE
  8
0
 10
-294.625
 20
81.7524
 11
-294.975
 21
81.5742
  0
LINE
  8
0
 10
-294.975
 20
81.5742
 11
-295.341
 21
81.4335
  0
LINE
  8
0
 10
-295.341
 20
81.4335
 11
-295.72
 21
81.3319
  0
LINE
  8
0
 10
-295.72
 20
81.3319
 11
-296.108
 21
81.2705
  0
LINE
  8
0
 10
-296.108
 20
81.2705
 11
-296.5
 21
81.25
  0
LINE
  8
0
 10
-296.5
 20
81.25
 11
-296.892
 21
81.2705
  0
LINE
  8
0
 10
-296.892
 20
81.2705
 11
-297.28
 21
81.3319
  0
LINE
  8
0
 10
-297.28
 20
81.3319
 11
-297.659
 21
81.4335
  0
LINE
  8
0
 10
-297.659
 20
81.4335
 11
-298.025
 21
81.5742
  0
LINE
  8
0
 10
-298.025
 20
81.5742
 11
-298.375
 21
81.7524
  0
LINE
  8
0
 10
-298.375
 20
81.7524
 11
-298.704
 21
81.9662
  0
LINE
  8
0
 10
-298.704
 20
81.9662
 11
-299.009
 21
82.2132
  0
LINE
  8
0
 10
-299.009
 20
82.2132
 11
-299.287
 21
82.4908
  0
LINE
  8
0
 10
-299.287
 20
82.4908
 11
-299.534
 21
82.7958
  0
LINE
  8
0
 10
-299.534
 20
82.7958
 11
-299.748
 21
83.125
  0
LINE
  8
0
 10
-299.748
 20
83.125
 11
-299.926
 21
83.4747
  0
LINE
  8
0
 10
-299.926
 20
83.4747
 11
-300.066
 21
83.8412
  0
LINE
  8
0
 10
-300.066
 20
83.8412
 11
-300.168
 21
84.2203
  0
LINE
  8
0
 10
-300.168
 20
84.2203
 11
-300.229
 21
84.608
  0
LINE
  8
0
 10
-300.229
 20
84.608
 11
-300.25
 21
85
  0
LINE
  8
0
 10
-300.25
 20
85
 11
-300.229
 21
85.392
  0
LINE
  8
0
 10
-300.229
 20
85.392
 11
-300.168
 21
85.7797
  0
LINE
  8
0
 10
-300.168
 20
85.7797
 11
-300.066
 21
86.1588
  0
LINE
  8
0
 10
-300.066
 20
86.1588
 11
-299.926
 21
86.5253
  0
LINE
  8
0
 10
-299.926
 20
86.5253
 11
-299.748
 21
86.875
  0
LINE
  8
0
 10
-299.748
 20
86.875
 11
-299.534
 21
87.2042
  0
LINE
  8
0
 10
-299.534
 20
87.2042
 11
-299.287
 21
87.5092
  0
LINE
  8
0
 10
-299.287
 20
87.5092
 11
-299.009
 21
87.7868
  0
LINE
  8
0
 10
-299.009
 20
87.7868
 11
-298.704
 21
88.0338
  0
LINE
  8
0
 10
-298.704
 20
88.0338
 11
-298.375
 21
88.2476
  0
LINE
  8
0
 10
-298.375
 20
88.2476
 11
-298.025
 21
88.4258
  0
LINE
  8
0
 10
-298.025
 20
88.4258
 11
-297.659
 21
88.5665
  0
LINE
  8
0
 10
-297.659
 20
88.5665
 11
-297.28
 21
88.668
  0
LINE
  8
0
 10
-297.28
 20
88.668
 11
-296.892
 21
88.7294
  0
LINE
  8
0
 10
-296.892
 20
88.7294
 11
-296.5
 21
88.75
  0
LINE
  8
0
 10
-296.5
 20
88.75
 11
-296.108
 21
88.7294
  0
LINE
  8
0
 10
-296.108
 20
88.7294
 11
-295.72
 21
88.668
  0
LINE
  8
0
 10
-295.72
 20
88.668
 11
-295.341
 21
88.5665
  0
LINE
  8
0
 10
-295.341
 20
88.5665
 11
-294.975
 21
88.4258
  0
LINE
  8
0
 10
-294.975
 20
88.4258
 11
-294.625
 21
88.2476
  0
LINE
  8
0
 10
-294.625
 20
88.2476
 11
-294.296
 21
88.0338
  0
LINE
  8
0
 10
-294.296
 20
88.0338
 11
-293.991
 21
87.7868
  0
LINE
  8
0
 10
-293.991
 20
87.7868
 11
-293.713
 21
87.5092
  0
LINE
  8
0
 10
-293.713
 20
87.5092
 11
-293.466
 21
87.2042
  0
LINE
  8
0
 10
-293.466
 20
87.2042
 11
-293.252
 21
86.875
  0
LINE
  8
0
 10
-293.252
 20
86.875
 11
-293.074
 21
86.5253
  0
LINE
  8
0
 10
-293.074
 20
86.5253
 11
-292.934
 21
86.1588
  0
LINE
  8
0
 10
-292.934
 20
86.1588
 11
-292.832
 21
85.7797
  0
LINE
  8
0
 10
-292.832
 20
85.7797
 11
-292.771
 21
85.392
  0
LINE
  8
0
 10
-292.771
 20
85.392
 11
-292.75
 21
85
  0
LINE
  8
0
 10
-292.75
 20
85
 11
-292.771
 21
84.608
  0
LINE
  8
0
 10
-292.771
 20
84.608
 11
-292.832
 21
84.2203
  0
ENDSEC
  0
SECTION
  2
OBJECTS
  0
DICTIONARY
  0
ENDSEC
  0
EOF
