  0
SECTION
  2
BLOCKS
  0
ENDSEC
  0
SECTION
  2
ENTITIES
  0
LINE
  8
0
 10
197.091
 20
-332.39
 11
199.158
 21
-332.063
  0
LINE
  8
0
 10
199.158
 20
-332.063
 11
201.18
 21
-331.521
  0
LINE
  8
0
 10
201.18
 20
-331.521
 11
203.135
 21
-330.771
  0
LINE
  8
0
 10
203.135
 20
-330.771
 11
205
 21
-329.82
  0
LINE
  8
0
 10
205
 20
-329.82
 11
206.756
 21
-328.68
  0
LINE
  8
0
 10
206.756
 20
-328.68
 11
208.383
 21
-327.363
  0
LINE
  8
0
 10
208.383
 20
-327.363
 11
209.863
 21
-325.883
  0
LINE
  8
0
 10
209.863
 20
-325.883
 11
211.18
 21
-324.256
  0
LINE
  8
0
 10
211.18
 20
-324.256
 11
212.32
 21
-322.5
  0
LINE
  8
0
 10
212.32
 20
-322.5
 11
213.271
 21
-320.635
  0
LINE
  8
0
 10
213.271
 20
-320.635
 11
214.021
 21
-318.68
  0
LINE
  8
0
 10
214.021
 20
-318.68
 11
214.563
 21
-316.658
  0
LINE
  8
0
 10
214.563
 20
-316.658
 11
214.89
 21
-314.591
  0
LINE
  8
0
 10
214.89
 20
-314.591
 11
215
 21
-312.5
  0
LINE
  8
0
 10
215
 20
-312.5
 11
215
 21
312.5
  0
LINE
  8
0
 10
215
 20
312.5
 11
214.89
 21
314.591
  0
LINE
  8
0
 10
214.89
 20
314.591
 11
214.563
 21
316.658
  0
LINE
  8
0
 10
214.563
 20
316.658
 11
214.021
 21
318.68
  0
LINE
  8
0
 10
214.021
 20
318.68
 11
213.271
 21
320.635
  0
LINE
  8
0
 10
213.271
 20
320.635
 11
212.32
 21
322.5
  0
LINE
  8
0
 10
212.32
 20
322.5
 11
211.18
 21
324.256
  0
LINE
  8
0
 10
211.18
 20
324.256
 11
209.863
 21
325.883
  0
LINE
  8
0
 10
209.863
 20
325.883
 11
208.383
 21
327.363
  0
LINE
  8
0
 10
208.383
 20
327.363
 11
206.756
 21
328.68
  0
LINE
  8
0
 10
206.756
 20
328.68
 11
205
 21
329.82
  0
LINE
  8
0
 10
205
 20
329.82
 11
203.135
 21
330.771
  0
LINE
  8
0
 10
203.135
 20
330.771
 11
201.18
 21
331.521
  0
LINE
  8
0
 10
201.18
 20
331.521
 11
199.158
 21
332.063
  0
LINE
  8
0
 10
199.158
 20
332.063
 11
197.091
 21
332.39
  0
LINE
  8
0
 10
197.091
 20
332.39
 11
195
 21
332.5
  0
LINE
  8
0
 10
195
 20
332.5
 11
3
 21
332.5
  0
LINE
  8
0
 10
3
 20
332.5
 11
2.73868
 21
332.486
  0
LINE
  8
0
 10
2.73868
 20
332.486
 11
2.48021
 21
332.445
  0
LINE
  8
0
 10
2.48021
 20
332.445
 11
2.22745
 21
332.378
  0
LINE
  8
0
 10
2.22745
 20
332.378
 11
1.98315
 21
332.284
  0
LINE
  8
0
 10
1.98315
 20
332.284
 11
1.75
 21
332.165
  0
LINE
  8
0
 10
1.75
 20
332.165
 11
1.53053
 21
332.023
  0
LINE
  8
0
 10
1.53053
 20
332.023
 11
1.32716
 21
331.858
  0
LINE
  8
0
 10
1.32716
 20
331.858
 11
1.14214
 21
331.673
  0
LINE
  8
0
 10
1.14214
 20
331.673
 11
0.977448
 21
331.469
  0
LINE
  8
0
 10
0.977448
 20
331.469
 11
0.83493
 21
331.25
  0
LINE
  8
0
 10
0.83493
 20
331.25
 11
0.716125
 21
331.017
  0
LINE
  8
0
 10
0.716125
 20
331.017
 11
0.622345
 21
330.773
  0
LINE
  8
0
 10
0.622345
 20
330.773
 11
0.554626
 21
330.52
  0
LINE
  8
0
 10
0.554626
 20
330.52
 11
0.513687
 21
330.261
  0
LINE
  8
0
 10
0.513687
 20
330.261
 11
0.5
 21
330
  0
LINE
  8
0
 10
0.5
 20
330
 11
0.5
 21
-330
  0
LINE
  8
0
 10
0.5
 20
-330
 11
0.513687
 21
-330.261
  0
LINE
  8
0
 10
0.513687
 20
-330.261
 11
0.554626
 21
-330.52
  0
LINE
  8
0
 10
0.554626
 20
-330.52
 11
0.622345
 21
-330.773
  0
LINE
  8
0
 10
0.622345
 20
-330.773
 11
0.716125
 21
-331.017
  0
LINE
  8
0
 10
0.716125
 20
-331.017
 11
0.83493
 21
-331.25
  0
LINE
  8
0
 10
0.83493
 20
-331.25
 11
0.977448
 21
-331.469
  0
LINE
  8
0
 10
0.977448
 20
-331.469
 11
1.14214
 21
-331.673
  0
LINE
  8
0
 10
1.14214
 20
-331.673
 11
1.32716
 21
-331.858
  0
LINE
  8
0
 10
1.32716
 20
-331.858
 11
1.53053
 21
-332.023
  0
LINE
  8
0
 10
1.53053
 20
-332.023
 11
1.75
 21
-332.165
  0
LINE
  8
0
 10
1.75
 20
-332.165
 11
1.98315
 21
-332.284
  0
LINE
  8
0
 10
1.98315
 20
-332.284
 11
2.22745
 21
-332.378
  0
LINE
  8
0
 10
2.22745
 20
-332.378
 11
2.48021
 21
-332.445
  0
LINE
  8
0
 10
2.48021
 20
-332.445
 11
2.73868
 21
-332.486
  0
LINE
  8
0
 10
2.73868
 20
-332.486
 11
3
 21
-332.5
  0
LINE
  8
0
 10
3
 20
-332.5
 11
195
 21
-332.5
  0
LINE
  8
0
 10
195
 20
-332.5
 11
197.091
 21
-332.39
  0
LINE
  8
0
 10
39.8761
 20
311.005
 11
39.6318
 21
311.046
  0
LINE
  8
0
 10
39.6318
 20
311.046
 11
39.3974
 21
311.126
  0
LINE
  8
0
 10
39.3974
 20
311.126
 11
39.1796
 21
311.244
  0
LINE
  8
0
 10
39.1796
 20
311.244
 11
38.9841
 21
311.396
  0
LINE
  8
0
 10
38.9841
 20
311.396
 11
38.8163
 21
311.579
  0
LINE
  8
0
 10
38.8163
 20
311.579
 11
38.6808
 21
311.786
  0
LINE
  8
0
 10
38.6808
 20
311.786
 11
38.5813
 21
312.013
  0
LINE
  8
0
 10
38.5813
 20
312.013
 11
38.5204
 21
312.253
  0
LINE
  8
0
 10
38.5204
 20
312.253
 11
38.5
 21
312.5
  0
LINE
  8
0
 10
38.5
 20
312.5
 11
38.5204
 21
312.747
  0
LINE
  8
0
 10
38.5204
 20
312.747
 11
38.5813
 21
312.987
  0
LINE
  8
0
 10
38.5813
 20
312.987
 11
38.6808
 21
313.214
  0
LINE
  8
0
 10
38.6808
 20
313.214
 11
38.8163
 21
313.421
  0
LINE
  8
0
 10
38.8163
 20
313.421
 11
38.9841
 21
313.604
  0
LINE
  8
0
 10
38.9841
 20
313.604
 11
39.1796
 21
313.756
  0
LINE
  8
0
 10
39.1796
 20
313.756
 11
39.3974
 21
313.874
  0
LINE
  8
0
 10
39.3974
 20
313.874
 11
39.6318
 21
313.954
  0
LINE
  8
0
 10
39.6318
 20
313.954
 11
39.8761
 21
313.995
  0
LINE
  8
0
 10
39.8761
 20
313.995
 11
40.1239
 21
313.995
  0
LINE
  8
0
 10
40.1239
 20
313.995
 11
40.3682
 21
313.954
  0
LINE
  8
0
 10
40.3682
 20
313.954
 11
40.6025
 21
313.874
  0
LINE
  8
0
 10
40.6025
 20
313.874
 11
40.8204
 21
313.756
  0
LINE
  8
0
 10
40.8204
 20
313.756
 11
41.0159
 21
313.604
  0
LINE
  8
0
 10
41.0159
 20
313.604
 11
41.1837
 21
313.421
  0
LINE
  8
0
 10
41.1837
 20
313.421
 11
41.3192
 21
313.214
  0
LINE
  8
0
 10
41.3192
 20
313.214
 11
41.4187
 21
312.987
  0
LINE
  8
0
 10
41.4187
 20
312.987
 11
41.4795
 21
312.747
  0
LINE
  8
0
 10
41.4795
 20
312.747
 11
41.5
 21
312.5
  0
LINE
  8
0
 10
41.5
 20
312.5
 11
41.4795
 21
312.253
  0
LINE
  8
0
 10
41.4795
 20
312.253
 11
41.4187
 21
312.013
  0
LINE
  8
0
 10
41.4187
 20
312.013
 11
41.3192
 21
311.786
  0
LINE
  8
0
 10
41.3192
 20
311.786
 11
41.1837
 21
311.579
  0
LINE
  8
0
 10
41.1837
 20
311.579
 11
41.0159
 21
311.396
  0
LINE
  8
0
 10
41.0159
 20
311.396
 11
40.8204
 21
311.244
  0
LINE
  8
0
 10
40.8204
 20
311.244
 11
40.6025
 21
311.126
  0
LINE
  8
0
 10
40.6025
 20
311.126
 11
40.3682
 21
311.046
  0
LINE
  8
0
 10
40.3682
 20
311.046
 11
40.1239
 21
311.005
  0
LINE
  8
0
 10
40.1239
 20
311.005
 11
39.8761
 21
311.005
  0
LINE
  8
0
 10
19.8761
 20
311.005
 11
19.6318
 21
311.046
  0
LINE
  8
0
 10
19.6318
 20
311.046
 11
19.3974
 21
311.126
  0
LINE
  8
0
 10
19.3974
 20
311.126
 11
19.1796
 21
311.244
  0
LINE
  8
0
 10
19.1796
 20
311.244
 11
18.9841
 21
311.396
  0
LINE
  8
0
 10
18.9841
 20
311.396
 11
18.8163
 21
311.579
  0
LINE
  8
0
 10
18.8163
 20
311.579
 11
18.6808
 21
311.786
  0
LINE
  8
0
 10
18.6808
 20
311.786
 11
18.5813
 21
312.013
  0
LINE
  8
0
 10
18.5813
 20
312.013
 11
18.5204
 21
312.253
  0
LINE
  8
0
 10
18.5204
 20
312.253
 11
18.5
 21
312.5
  0
LINE
  8
0
 10
18.5
 20
312.5
 11
18.5204
 21
312.747
  0
LINE
  8
0
 10
18.5204
 20
312.747
 11
18.5813
 21
312.987
  0
LINE
  8
0
 10
18.5813
 20
312.987
 11
18.6808
 21
313.214
  0
LINE
  8
0
 10
18.6808
 20
313.214
 11
18.8163
 21
313.421
  0
LINE
  8
0
 10
18.8163
 20
313.421
 11
18.9841
 21
313.604
  0
LINE
  8
0
 10
18.9841
 20
313.604
 11
19.1796
 21
313.756
  0
LINE
  8
0
 10
19.1796
 20
313.756
 11
19.3974
 21
313.874
  0
LINE
  8
0
 10
19.3974
 20
313.874
 11
19.6318
 21
313.954
  0
LINE
  8
0
 10
19.6318
 20
313.954
 11
19.8761
 21
313.995
  0
LINE
  8
0
 10
19.8761
 20
313.995
 11
20.1239
 21
313.995
  0
LINE
  8
0
 10
20.1239
 20
313.995
 11
20.3682
 21
313.954
  0
LINE
  8
0
 10
20.3682
 20
313.954
 11
20.6025
 21
313.874
  0
LINE
  8
0
 10
20.6025
 20
313.874
 11
20.8204
 21
313.756
  0
LINE
  8
0
 10
20.8204
 20
313.756
 11
21.0159
 21
313.604
  0
LINE
  8
0
 10
21.0159
 20
313.604
 11
21.1837
 21
313.421
  0
LINE
  8
0
 10
21.1837
 20
313.421
 11
21.3192
 21
313.214
  0
LINE
  8
0
 10
21.3192
 20
313.214
 11
21.4187
 21
312.987
  0
LINE
  8
0
 10
21.4187
 20
312.987
 11
21.4795
 21
312.747
  0
LINE
  8
0
 10
21.4795
 20
312.747
 11
21.5
 21
312.5
  0
LINE
  8
0
 10
21.5
 20
312.5
 11
21.4795
 21
312.253
  0
LINE
  8
0
 10
21.4795
 20
312.253
 11
21.4187
 21
312.013
  0
LINE
  8
0
 10
21.4187
 20
312.013
 11
21.3192
 21
311.786
  0
LINE
  8
0
 10
21.3192
 20
311.786
 11
21.1837
 21
311.579
  0
LINE
  8
0
 10
21.1837
 20
311.579
 11
21.0159
 21
311.396
  0
LINE
  8
0
 10
21.0159
 20
311.396
 11
20.8204
 21
311.244
  0
LINE
  8
0
 10
20.8204
 20
311.244
 11
20.6025
 21
311.126
  0
LINE
  8
0
 10
20.6025
 20
311.126
 11
20.3682
 21
311.046
  0
LINE
  8
0
 10
20.3682
 20
311.046
 11
20.1239
 21
311.005
  0
LINE
  8
0
 10
20.1239
 20
311.005
 11
19.8761
 21
311.005
  0
LINE
  8
0
 10
192.634
 20
147.875
 11
191.768
 21
149.375
  0
LINE
  8
0
 10
191.768
 20
149.375
 11
192.634
 21
150.875
  0
LINE
  8
0
 10
192.634
 20
150.875
 11
194.366
 21
150.875
  0
LINE
  8
0
 10
194.366
 20
150.875
 11
195.232
 21
149.375
  0
LINE
  8
0
 10
195.232
 20
149.375
 11
194.366
 21
147.875
  0
LINE
  8
0
 10
194.366
 20
147.875
 11
192.634
 21
147.875
  0
LINE
  8
0
 10
192.634
 20
122.875
 11
191.768
 21
124.375
  0
LINE
  8
0
 10
191.768
 20
124.375
 11
192.634
 21
125.875
  0
LINE
  8
0
 10
192.634
 20
125.875
 11
194.366
 21
125.875
  0
LINE
  8
0
 10
194.366
 20
125.875
 11
195.232
 21
124.375
  0
LINE
  8
0
 10
195.232
 20
124.375
 11
194.366
 21
122.875
  0
LINE
  8
0
 10
194.366
 20
122.875
 11
192.634
 21
122.875
  0
LINE
  8
0
 10
192.634
 20
97.875
 11
191.768
 21
99.375
  0
LINE
  8
0
 10
191.768
 20
99.375
 11
192.634
 21
100.875
  0
LINE
  8
0
 10
192.634
 20
100.875
 11
194.366
 21
100.875
  0
LINE
  8
0
 10
194.366
 20
100.875
 11
195.232
 21
99.375
  0
LINE
  8
0
 10
195.232
 20
99.375
 11
194.366
 21
97.875
  0
LINE
  8
0
 10
194.366
 20
97.875
 11
192.634
 21
97.875
  0
LINE
  8
0
 10
192.634
 20
-110.875
 11
191.768
 21
-109.375
  0
LINE
  8
0
 10
191.768
 20
-109.375
 11
192.634
 21
-107.875
  0
LINE
  8
0
 10
192.634
 20
-107.875
 11
194.366
 21
-107.875
  0
LINE
  8
0
 10
194.366
 20
-107.875
 11
195.232
 21
-109.375
  0
LINE
  8
0
 10
195.232
 20
-109.375
 11
194.366
 21
-110.875
  0
LINE
  8
0
 10
194.366
 20
-110.875
 11
192.634
 21
-110.875
  0
LINE
  8
0
 10
192.634
 20
-135.875
 11
191.768
 21
-134.375
  0
LINE
  8
0
 10
191.768
 20
-134.375
 11
192.634
 21
-132.875
  0
LINE
  8
0
 10
192.634
 20
-132.875
 11
194.366
 21
-132.875
  0
LINE
  8
0
 10
194.366
 20
-132.875
 11
195.232
 21
-134.375
  0
LINE
  8
0
 10
195.232
 20
-134.375
 11
194.366
 21
-135.875
  0
LINE
  8
0
 10
194.366
 20
-135.875
 11
192.634
 21
-135.875
  0
LINE
  8
0
 10
192.634
 20
-160.875
 11
191.768
 21
-159.375
  0
LINE
  8
0
 10
191.768
 20
-159.375
 11
192.634
 21
-157.875
  0
LINE
  8
0
 10
192.634
 20
-157.875
 11
194.366
 21
-157.875
  0
LINE
  8
0
 10
194.366
 20
-157.875
 11
195.232
 21
-159.375
  0
LINE
  8
0
 10
195.232
 20
-159.375
 11
194.366
 21
-160.875
  0
LINE
  8
0
 10
194.366
 20
-160.875
 11
192.634
 21
-160.875
  0
ENDSEC
  0
SECTION
  2
OBJECTS
  0
DICTIONARY
  0
ENDSEC
  0
EOF
