  0
SECTION
  2
BLOCKS
  0
ENDSEC
  0
SECTION
  2
ENTITIES
  0
LINE
  8
0
 10
222.898
 20
-372.348
 11
223.415
 21
-372.266
  0
LINE
  8
0
 10
223.415
 20
-372.266
 11
223.92
 21
-372.13
  0
LINE
  8
0
 10
223.92
 20
-372.13
 11
224.409
 21
-371.943
  0
LINE
  8
0
 10
224.409
 20
-371.943
 11
224.875
 21
-371.705
  0
LINE
  8
0
 10
224.875
 20
-371.705
 11
225.314
 21
-371.42
  0
LINE
  8
0
 10
225.314
 20
-371.42
 11
225.721
 21
-371.091
  0
LINE
  8
0
 10
225.721
 20
-371.091
 11
226.091
 21
-370.721
  0
LINE
  8
0
 10
226.091
 20
-370.721
 11
226.42
 21
-370.314
  0
LINE
  8
0
 10
226.42
 20
-370.314
 11
226.705
 21
-369.875
  0
LINE
  8
0
 10
226.705
 20
-369.875
 11
226.943
 21
-369.409
  0
LINE
  8
0
 10
226.943
 20
-369.409
 11
227.13
 21
-368.92
  0
LINE
  8
0
 10
227.13
 20
-368.92
 11
227.266
 21
-368.415
  0
LINE
  8
0
 10
227.266
 20
-368.415
 11
227.348
 21
-367.898
  0
LINE
  8
0
 10
227.348
 20
-367.898
 11
227.375
 21
-367.375
  0
LINE
  8
0
 10
227.375
 20
-367.375
 11
227.375
 21
367.375
  0
LINE
  8
0
 10
227.375
 20
367.375
 11
227.348
 21
367.898
  0
LINE
  8
0
 10
227.348
 20
367.898
 11
227.266
 21
368.415
  0
LINE
  8
0
 10
227.266
 20
368.415
 11
227.13
 21
368.92
  0
LINE
  8
0
 10
227.13
 20
368.92
 11
226.943
 21
369.409
  0
LINE
  8
0
 10
226.943
 20
369.409
 11
226.705
 21
369.875
  0
LINE
  8
0
 10
226.705
 20
369.875
 11
226.42
 21
370.314
  0
LINE
  8
0
 10
226.42
 20
370.314
 11
226.091
 21
370.721
  0
LINE
  8
0
 10
226.091
 20
370.721
 11
225.721
 21
371.091
  0
LINE
  8
0
 10
225.721
 20
371.091
 11
225.314
 21
371.42
  0
LINE
  8
0
 10
225.314
 20
371.42
 11
224.875
 21
371.705
  0
LINE
  8
0
 10
224.875
 20
371.705
 11
224.409
 21
371.943
  0
LINE
  8
0
 10
224.409
 20
371.943
 11
223.92
 21
372.13
  0
LINE
  8
0
 10
223.92
 20
372.13
 11
223.415
 21
372.266
  0
LINE
  8
0
 10
223.415
 20
372.266
 11
222.898
 21
372.348
  0
LINE
  8
0
 10
222.898
 20
372.348
 11
222.375
 21
372.375
  0
LINE
  8
0
 10
222.375
 20
372.375
 11
-222.375
 21
372.375
  0
LINE
  8
0
 10
-222.375
 20
372.375
 11
-222.898
 21
372.348
  0
LINE
  8
0
 10
-222.898
 20
372.348
 11
-223.415
 21
372.266
  0
LINE
  8
0
 10
-223.415
 20
372.266
 11
-223.92
 21
372.13
  0
LINE
  8
0
 10
-223.92
 20
372.13
 11
-224.409
 21
371.943
  0
LINE
  8
0
 10
-224.409
 20
371.943
 11
-224.875
 21
371.705
  0
LINE
  8
0
 10
-224.875
 20
371.705
 11
-225.314
 21
371.42
  0
LINE
  8
0
 10
-225.314
 20
371.42
 11
-225.721
 21
371.091
  0
LINE
  8
0
 10
-225.721
 20
371.091
 11
-226.091
 21
370.721
  0
LINE
  8
0
 10
-226.091
 20
370.721
 11
-226.42
 21
370.314
  0
LINE
  8
0
 10
-226.42
 20
370.314
 11
-226.705
 21
369.875
  0
LINE
  8
0
 10
-226.705
 20
369.875
 11
-226.943
 21
369.409
  0
LINE
  8
0
 10
-226.943
 20
369.409
 11
-227.13
 21
368.92
  0
LINE
  8
0
 10
-227.13
 20
368.92
 11
-227.266
 21
368.415
  0
LINE
  8
0
 10
-227.266
 20
368.415
 11
-227.348
 21
367.898
  0
LINE
  8
0
 10
-227.348
 20
367.898
 11
-227.375
 21
367.375
  0
LINE
  8
0
 10
-227.375
 20
367.375
 11
-227.375
 21
-367.375
  0
LINE
  8
0
 10
-227.375
 20
-367.375
 11
-227.348
 21
-367.898
  0
LINE
  8
0
 10
-227.348
 20
-367.898
 11
-227.266
 21
-368.415
  0
LINE
  8
0
 10
-227.266
 20
-368.415
 11
-227.13
 21
-368.92
  0
LINE
  8
0
 10
-227.13
 20
-368.92
 11
-226.943
 21
-369.409
  0
LINE
  8
0
 10
-226.943
 20
-369.409
 11
-226.705
 21
-369.875
  0
LINE
  8
0
 10
-226.705
 20
-369.875
 11
-226.42
 21
-370.314
  0
LINE
  8
0
 10
-226.42
 20
-370.314
 11
-226.091
 21
-370.721
  0
LINE
  8
0
 10
-226.091
 20
-370.721
 11
-225.721
 21
-371.091
  0
LINE
  8
0
 10
-225.721
 20
-371.091
 11
-225.314
 21
-371.42
  0
LINE
  8
0
 10
-225.314
 20
-371.42
 11
-224.875
 21
-371.705
  0
LINE
  8
0
 10
-224.875
 20
-371.705
 11
-224.409
 21
-371.943
  0
LINE
  8
0
 10
-224.409
 20
-371.943
 11
-223.92
 21
-372.13
  0
LINE
  8
0
 10
-223.92
 20
-372.13
 11
-223.415
 21
-372.266
  0
LINE
  8
0
 10
-223.415
 20
-372.266
 11
-222.898
 21
-372.348
  0
LINE
  8
0
 10
-222.898
 20
-372.348
 11
-222.375
 21
-372.375
  0
LINE
  8
0
 10
-222.375
 20
-372.375
 11
222.375
 21
-372.375
  0
LINE
  8
0
 10
222.375
 20
-372.375
 11
222.898
 21
-372.348
  0
LINE
  8
0
 10
219.608
 20
361.271
 11
219.22
 21
361.332
  0
LINE
  8
0
 10
219.22
 20
361.332
 11
218.841
 21
361.434
  0
LINE
  8
0
 10
218.841
 20
361.434
 11
218.475
 21
361.574
  0
LINE
  8
0
 10
218.475
 20
361.574
 11
218.125
 21
361.752
  0
LINE
  8
0
 10
218.125
 20
361.752
 11
217.796
 21
361.966
  0
LINE
  8
0
 10
217.796
 20
361.966
 11
217.491
 21
362.213
  0
LINE
  8
0
 10
217.491
 20
362.213
 11
217.213
 21
362.491
  0
LINE
  8
0
 10
217.213
 20
362.491
 11
216.966
 21
362.796
  0
LINE
  8
0
 10
216.966
 20
362.796
 11
216.752
 21
363.125
  0
LINE
  8
0
 10
216.752
 20
363.125
 11
216.574
 21
363.475
  0
LINE
  8
0
 10
216.574
 20
363.475
 11
216.434
 21
363.841
  0
LINE
  8
0
 10
216.434
 20
363.841
 11
216.332
 21
364.22
  0
LINE
  8
0
 10
216.332
 20
364.22
 11
216.271
 21
364.608
  0
LINE
  8
0
 10
216.271
 20
364.608
 11
216.25
 21
365
  0
LINE
  8
0
 10
216.25
 20
365
 11
216.271
 21
365.392
  0
LINE
  8
0
 10
216.271
 20
365.392
 11
216.332
 21
365.78
  0
LINE
  8
0
 10
216.332
 20
365.78
 11
216.434
 21
366.159
  0
LINE
  8
0
 10
216.434
 20
366.159
 11
216.574
 21
366.525
  0
LINE
  8
0
 10
216.574
 20
366.525
 11
216.752
 21
366.875
  0
LINE
  8
0
 10
216.752
 20
366.875
 11
216.966
 21
367.204
  0
LINE
  8
0
 10
216.966
 20
367.204
 11
217.213
 21
367.509
  0
LINE
  8
0
 10
217.213
 20
367.509
 11
217.491
 21
367.787
  0
LINE
  8
0
 10
217.491
 20
367.787
 11
217.796
 21
368.034
  0
LINE
  8
0
 10
217.796
 20
368.034
 11
218.125
 21
368.248
  0
LINE
  8
0
 10
218.125
 20
368.248
 11
218.475
 21
368.426
  0
LINE
  8
0
 10
218.475
 20
368.426
 11
218.841
 21
368.566
  0
LINE
  8
0
 10
218.841
 20
368.566
 11
219.22
 21
368.668
  0
LINE
  8
0
 10
219.22
 20
368.668
 11
219.608
 21
368.729
  0
LINE
  8
0
 10
219.608
 20
368.729
 11
220
 21
368.75
  0
LINE
  8
0
 10
220
 20
368.75
 11
220.392
 21
368.729
  0
LINE
  8
0
 10
220.392
 20
368.729
 11
220.78
 21
368.668
  0
LINE
  8
0
 10
220.78
 20
368.668
 11
221.159
 21
368.566
  0
LINE
  8
0
 10
221.159
 20
368.566
 11
221.525
 21
368.426
  0
LINE
  8
0
 10
221.525
 20
368.426
 11
221.875
 21
368.248
  0
LINE
  8
0
 10
221.875
 20
368.248
 11
222.204
 21
368.034
  0
LINE
  8
0
 10
222.204
 20
368.034
 11
222.509
 21
367.787
  0
LINE
  8
0
 10
222.509
 20
367.787
 11
222.787
 21
367.509
  0
LINE
  8
0
 10
222.787
 20
367.509
 11
223.034
 21
367.204
  0
LINE
  8
0
 10
223.034
 20
367.204
 11
223.248
 21
366.875
  0
LINE
  8
0
 10
223.248
 20
366.875
 11
223.426
 21
366.525
  0
LINE
  8
0
 10
223.426
 20
366.525
 11
223.566
 21
366.159
  0
LINE
  8
0
 10
223.566
 20
366.159
 11
223.668
 21
365.78
  0
LINE
  8
0
 10
223.668
 20
365.78
 11
223.729
 21
365.392
  0
LINE
  8
0
 10
223.729
 20
365.392
 11
223.75
 21
365
  0
LINE
  8
0
 10
223.75
 20
365
 11
223.729
 21
364.608
  0
LINE
  8
0
 10
223.729
 20
364.608
 11
223.668
 21
364.22
  0
LINE
  8
0
 10
223.668
 20
364.22
 11
223.566
 21
363.841
  0
LINE
  8
0
 10
223.566
 20
363.841
 11
223.426
 21
363.475
  0
LINE
  8
0
 10
223.426
 20
363.475
 11
223.248
 21
363.125
  0
LINE
  8
0
 10
223.248
 20
363.125
 11
223.034
 21
362.796
  0
LINE
  8
0
 10
223.034
 20
362.796
 11
222.787
 21
362.491
  0
LINE
  8
0
 10
222.787
 20
362.491
 11
222.509
 21
362.213
  0
LINE
  8
0
 10
222.509
 20
362.213
 11
222.204
 21
361.966
  0
LINE
  8
0
 10
222.204
 20
361.966
 11
221.875
 21
361.752
  0
LINE
  8
0
 10
221.875
 20
361.752
 11
221.525
 21
361.574
  0
LINE
  8
0
 10
221.525
 20
361.574
 11
221.159
 21
361.434
  0
LINE
  8
0
 10
221.159
 20
361.434
 11
220.78
 21
361.332
  0
LINE
  8
0
 10
220.78
 20
361.332
 11
220.392
 21
361.271
  0
LINE
  8
0
 10
220.392
 20
361.271
 11
220
 21
361.25
  0
LINE
  8
0
 10
220
 20
361.25
 11
219.608
 21
361.271
  0
LINE
  8
0
 10
-220.392
 20
361.271
 11
-220.78
 21
361.332
  0
LINE
  8
0
 10
-220.78
 20
361.332
 11
-221.159
 21
361.434
  0
LINE
  8
0
 10
-221.159
 20
361.434
 11
-221.525
 21
361.574
  0
LINE
  8
0
 10
-221.525
 20
361.574
 11
-221.875
 21
361.752
  0
LINE
  8
0
 10
-221.875
 20
361.752
 11
-222.204
 21
361.966
  0
LINE
  8
0
 10
-222.204
 20
361.966
 11
-222.509
 21
362.213
  0
LINE
  8
0
 10
-222.509
 20
362.213
 11
-222.787
 21
362.491
  0
LINE
  8
0
 10
-222.787
 20
362.491
 11
-223.034
 21
362.796
  0
LINE
  8
0
 10
-223.034
 20
362.796
 11
-223.248
 21
363.125
  0
LINE
  8
0
 10
-223.248
 20
363.125
 11
-223.426
 21
363.475
  0
LINE
  8
0
 10
-223.426
 20
363.475
 11
-223.566
 21
363.841
  0
LINE
  8
0
 10
-223.566
 20
363.841
 11
-223.668
 21
364.22
  0
LINE
  8
0
 10
-223.668
 20
364.22
 11
-223.729
 21
364.608
  0
LINE
  8
0
 10
-223.729
 20
364.608
 11
-223.75
 21
365
  0
LINE
  8
0
 10
-223.75
 20
365
 11
-223.729
 21
365.392
  0
LINE
  8
0
 10
-223.729
 20
365.392
 11
-223.668
 21
365.78
  0
LINE
  8
0
 10
-223.668
 20
365.78
 11
-223.566
 21
366.159
  0
LINE
  8
0
 10
-223.566
 20
366.159
 11
-223.426
 21
366.525
  0
LINE
  8
0
 10
-223.426
 20
366.525
 11
-223.248
 21
366.875
  0
LINE
  8
0
 10
-223.248
 20
366.875
 11
-223.034
 21
367.204
  0
LINE
  8
0
 10
-223.034
 20
367.204
 11
-222.787
 21
367.509
  0
LINE
  8
0
 10
-222.787
 20
367.509
 11
-222.509
 21
367.787
  0
LINE
  8
0
 10
-222.509
 20
367.787
 11
-222.204
 21
368.034
  0
LINE
  8
0
 10
-222.204
 20
368.034
 11
-221.875
 21
368.248
  0
LINE
  8
0
 10
-221.875
 20
368.248
 11
-221.525
 21
368.426
  0
LINE
  8
0
 10
-221.525
 20
368.426
 11
-221.159
 21
368.566
  0
LINE
  8
0
 10
-221.159
 20
368.566
 11
-220.78
 21
368.668
  0
LINE
  8
0
 10
-220.78
 20
368.668
 11
-220.392
 21
368.729
  0
LINE
  8
0
 10
-220.392
 20
368.729
 11
-220
 21
368.75
  0
LINE
  8
0
 10
-220
 20
368.75
 11
-219.608
 21
368.729
  0
LINE
  8
0
 10
-219.608
 20
368.729
 11
-219.22
 21
368.668
  0
LINE
  8
0
 10
-219.22
 20
368.668
 11
-218.841
 21
368.566
  0
LINE
  8
0
 10
-218.841
 20
368.566
 11
-218.475
 21
368.426
  0
LINE
  8
0
 10
-218.475
 20
368.426
 11
-218.125
 21
368.248
  0
LINE
  8
0
 10
-218.125
 20
368.248
 11
-217.796
 21
368.034
  0
LINE
  8
0
 10
-217.796
 20
368.034
 11
-217.491
 21
367.787
  0
LINE
  8
0
 10
-217.491
 20
367.787
 11
-217.213
 21
367.509
  0
LINE
  8
0
 10
-217.213
 20
367.509
 11
-216.966
 21
367.204
  0
LINE
  8
0
 10
-216.966
 20
367.204
 11
-216.752
 21
366.875
  0
LINE
  8
0
 10
-216.752
 20
366.875
 11
-216.574
 21
366.525
  0
LINE
  8
0
 10
-216.574
 20
366.525
 11
-216.434
 21
366.159
  0
LINE
  8
0
 10
-216.434
 20
366.159
 11
-216.332
 21
365.78
  0
LINE
  8
0
 10
-216.332
 20
365.78
 11
-216.271
 21
365.392
  0
LINE
  8
0
 10
-216.271
 20
365.392
 11
-216.25
 21
365
  0
LINE
  8
0
 10
-216.25
 20
365
 11
-216.271
 21
364.608
  0
LINE
  8
0
 10
-216.271
 20
364.608
 11
-216.332
 21
364.22
  0
LINE
  8
0
 10
-216.332
 20
364.22
 11
-216.434
 21
363.841
  0
LINE
  8
0
 10
-216.434
 20
363.841
 11
-216.574
 21
363.475
  0
LINE
  8
0
 10
-216.574
 20
363.475
 11
-216.752
 21
363.125
  0
LINE
  8
0
 10
-216.752
 20
363.125
 11
-216.966
 21
362.796
  0
LINE
  8
0
 10
-216.966
 20
362.796
 11
-217.213
 21
362.491
  0
LINE
  8
0
 10
-217.213
 20
362.491
 11
-217.491
 21
362.213
  0
LINE
  8
0
 10
-217.491
 20
362.213
 11
-217.796
 21
361.966
  0
LINE
  8
0
 10
-217.796
 20
361.966
 11
-218.125
 21
361.752
  0
LINE
  8
0
 10
-218.125
 20
361.752
 11
-218.475
 21
361.574
  0
LINE
  8
0
 10
-218.475
 20
361.574
 11
-218.841
 21
361.434
  0
LINE
  8
0
 10
-218.841
 20
361.434
 11
-219.22
 21
361.332
  0
LINE
  8
0
 10
-219.22
 20
361.332
 11
-219.608
 21
361.271
  0
LINE
  8
0
 10
-219.608
 20
361.271
 11
-220
 21
361.25
  0
LINE
  8
0
 10
-220
 20
361.25
 11
-220.392
 21
361.271
  0
LINE
  8
0
 10
0.429977
 20
366.645
 11
0.664871
 21
366.565
  0
LINE
  8
0
 10
0.664871
 20
366.565
 11
0.88559
 21
366.451
  0
LINE
  8
0
 10
0.88559
 20
366.451
 11
1.08743
 21
366.307
  0
LINE
  8
0
 10
1.08743
 20
366.307
 11
1.2661
 21
366.134
  0
LINE
  8
0
 10
1.2661
 20
366.134
 11
1.41779
 21
365.938
  0
LINE
  8
0
 10
1.41779
 20
365.938
 11
1.53926
 21
365.722
  0
LINE
  8
0
 10
1.53926
 20
365.722
 11
1.62791
 21
365.49
  0
LINE
  8
0
 10
1.62791
 20
365.49
 11
1.68187
 21
365.248
  0
LINE
  8
0
 10
1.68187
 20
365.248
 11
1.7
 21
365
  0
LINE
  8
0
 10
1.7
 20
365
 11
1.68187
 21
364.752
  0
LINE
  8
0
 10
1.68187
 20
364.752
 11
1.62791
 21
364.51
  0
LINE
  8
0
 10
1.62791
 20
364.51
 11
1.53926
 21
364.278
  0
LINE
  8
0
 10
1.53926
 20
364.278
 11
1.41779
 21
364.062
  0
LINE
  8
0
 10
1.41779
 20
364.062
 11
1.2661
 21
363.866
  0
LINE
  8
0
 10
1.2661
 20
363.866
 11
1.08743
 21
363.693
  0
LINE
  8
0
 10
1.08743
 20
363.693
 11
0.88559
 21
363.549
  0
LINE
  8
0
 10
0.88559
 20
363.549
 11
0.664871
 21
363.435
  0
LINE
  8
0
 10
0.664871
 20
363.435
 11
0.429977
 21
363.355
  0
LINE
  8
0
 10
0.429977
 20
363.355
 11
0.185928
 21
363.31
  0
LINE
  8
0
 10
0.185928
 20
363.31
 11
-0.0620728
 21
363.301
  0
LINE
  8
0
 10
-0.0620728
 20
363.301
 11
-0.308777
 21
363.328
  0
LINE
  8
0
 10
-0.308777
 20
363.328
 11
-0.548889
 21
363.391
  0
LINE
  8
0
 10
-0.548889
 20
363.391
 11
-0.777298
 21
363.488
  0
LINE
  8
0
 10
-0.777298
 20
363.488
 11
-0.989151
 21
363.617
  0
LINE
  8
0
 10
-0.989151
 20
363.617
 11
-1.17992
 21
363.776
  0
LINE
  8
0
 10
-1.17992
 20
363.776
 11
-1.34554
 21
363.961
  0
LINE
  8
0
 10
-1.34554
 20
363.961
 11
-1.48248
 21
364.168
  0
LINE
  8
0
 10
-1.48248
 20
364.168
 11
-1.58781
 21
364.393
  0
LINE
  8
0
 10
-1.58781
 20
364.393
 11
-1.65932
 21
364.63
  0
LINE
  8
0
 10
-1.65932
 20
364.63
 11
-1.69545
 21
364.876
  0
LINE
  8
0
 10
-1.69545
 20
364.876
 11
-1.69545
 21
365.124
  0
LINE
  8
0
 10
-1.69545
 20
365.124
 11
-1.65932
 21
365.37
  0
LINE
  8
0
 10
-1.65932
 20
365.37
 11
-1.58781
 21
365.607
  0
LINE
  8
0
 10
-1.58781
 20
365.607
 11
-1.48248
 21
365.832
  0
LINE
  8
0
 10
-1.48248
 20
365.832
 11
-1.34554
 21
366.039
  0
LINE
  8
0
 10
-1.34554
 20
366.039
 11
-1.17992
 21
366.224
  0
LINE
  8
0
 10
-1.17992
 20
366.224
 11
-0.989151
 21
366.383
  0
LINE
  8
0
 10
-0.989151
 20
366.383
 11
-0.777298
 21
366.512
  0
LINE
  8
0
 10
-0.777298
 20
366.512
 11
-0.548889
 21
366.609
  0
LINE
  8
0
 10
-0.548889
 20
366.609
 11
-0.308777
 21
366.672
  0
LINE
  8
0
 10
-0.308777
 20
366.672
 11
-0.0620728
 21
366.699
  0
LINE
  8
0
 10
-0.0620728
 20
366.699
 11
0.185928
 21
366.69
  0
LINE
  8
0
 10
0.185928
 20
366.69
 11
0.429977
 21
366.645
  0
LINE
  8
0
 10
-89.0588
 20
363.328
 11
-89.2989
 21
363.391
  0
LINE
  8
0
 10
-89.2989
 20
363.391
 11
-89.5273
 21
363.488
  0
LINE
  8
0
 10
-89.5273
 20
363.488
 11
-89.7392
 21
363.617
  0
LINE
  8
0
 10
-89.7392
 20
363.617
 11
-89.9299
 21
363.776
  0
LINE
  8
0
 10
-89.9299
 20
363.776
 11
-90.0955
 21
363.961
  0
LINE
  8
0
 10
-90.0955
 20
363.961
 11
-90.2325
 21
364.168
  0
LINE
  8
0
 10
-90.2325
 20
364.168
 11
-90.3378
 21
364.393
  0
LINE
  8
0
 10
-90.3378
 20
364.393
 11
-90.4093
 21
364.63
  0
LINE
  8
0
 10
-90.4093
 20
364.63
 11
-90.4455
 21
364.876
  0
LINE
  8
0
 10
-90.4455
 20
364.876
 11
-90.4455
 21
365.124
  0
LINE
  8
0
 10
-90.4455
 20
365.124
 11
-90.4093
 21
365.37
  0
LINE
  8
0
 10
-90.4093
 20
365.37
 11
-90.3378
 21
365.607
  0
LINE
  8
0
 10
-90.3378
 20
365.607
 11
-90.2325
 21
365.832
  0
LINE
  8
0
 10
-90.2325
 20
365.832
 11
-90.0955
 21
366.039
  0
LINE
  8
0
 10
-90.0955
 20
366.039
 11
-89.9299
 21
366.224
  0
LINE
  8
0
 10
-89.9299
 20
366.224
 11
-89.7392
 21
366.383
  0
LINE
  8
0
 10
-89.7392
 20
366.383
 11
-89.5273
 21
366.512
  0
LINE
  8
0
 10
-89.5273
 20
366.512
 11
-89.2989
 21
366.609
  0
LINE
  8
0
 10
-89.2989
 20
366.609
 11
-89.0588
 21
366.672
  0
LINE
  8
0
 10
-89.0588
 20
366.672
 11
-88.8121
 21
366.699
  0
LINE
  8
0
 10
-88.8121
 20
366.699
 11
-88.5641
 21
366.69
  0
LINE
  8
0
 10
-88.5641
 20
366.69
 11
-88.32
 21
366.645
  0
LINE
  8
0
 10
-88.32
 20
366.645
 11
-88.0851
 21
366.565
  0
LINE
  8
0
 10
-88.0851
 20
366.565
 11
-87.8644
 21
366.451
  0
LINE
  8
0
 10
-87.8644
 20
366.451
 11
-87.6626
 21
366.307
  0
LINE
  8
0
 10
-87.6626
 20
366.307
 11
-87.4839
 21
366.134
  0
LINE
  8
0
 10
-87.4839
 20
366.134
 11
-87.3322
 21
365.938
  0
LINE
  8
0
 10
-87.3322
 20
365.938
 11
-87.2107
 21
365.722
  0
LINE
  8
0
 10
-87.2107
 20
365.722
 11
-87.1221
 21
365.49
  0
LINE
  8
0
 10
-87.1221
 20
365.49
 11
-87.0681
 21
365.248
  0
LINE
  8
0
 10
-87.0681
 20
365.248
 11
-87.05
 21
365
  0
LINE
  8
0
 10
-87.05
 20
365
 11
-87.0681
 21
364.752
  0
LINE
  8
0
 10
-87.0681
 20
364.752
 11
-87.1221
 21
364.51
  0
LINE
  8
0
 10
-87.1221
 20
364.51
 11
-87.2107
 21
364.278
  0
LINE
  8
0
 10
-87.2107
 20
364.278
 11
-87.3322
 21
364.062
  0
LINE
  8
0
 10
-87.3322
 20
364.062
 11
-87.4839
 21
363.866
  0
LINE
  8
0
 10
-87.4839
 20
363.866
 11
-87.6626
 21
363.693
  0
LINE
  8
0
 10
-87.6626
 20
363.693
 11
-87.8644
 21
363.549
  0
LINE
  8
0
 10
-87.8644
 20
363.549
 11
-88.0851
 21
363.435
  0
LINE
  8
0
 10
-88.0851
 20
363.435
 11
-88.32
 21
363.355
  0
LINE
  8
0
 10
-88.32
 20
363.355
 11
-88.5641
 21
363.31
  0
LINE
  8
0
 10
-88.5641
 20
363.31
 11
-88.8121
 21
363.301
  0
LINE
  8
0
 10
-88.8121
 20
363.301
 11
-89.0588
 21
363.328
  0
LINE
  8
0
 10
177.191
 20
363.328
 11
176.951
 21
363.391
  0
LINE
  8
0
 10
176.951
 20
363.391
 11
176.723
 21
363.488
  0
LINE
  8
0
 10
176.723
 20
363.488
 11
176.511
 21
363.617
  0
LINE
  8
0
 10
176.511
 20
363.617
 11
176.32
 21
363.776
  0
LINE
  8
0
 10
176.32
 20
363.776
 11
176.154
 21
363.961
  0
LINE
  8
0
 10
176.154
 20
363.961
 11
176.018
 21
364.168
  0
LINE
  8
0
 10
176.018
 20
364.168
 11
175.912
 21
364.393
  0
LINE
  8
0
 10
175.912
 20
364.393
 11
175.841
 21
364.63
  0
LINE
  8
0
 10
175.841
 20
364.63
 11
175.805
 21
364.876
  0
LINE
  8
0
 10
175.805
 20
364.876
 11
175.805
 21
365.124
  0
LINE
  8
0
 10
175.805
 20
365.124
 11
175.841
 21
365.37
  0
LINE
  8
0
 10
175.841
 20
365.37
 11
175.912
 21
365.607
  0
LINE
  8
0
 10
175.912
 20
365.607
 11
176.018
 21
365.832
  0
LINE
  8
0
 10
176.018
 20
365.832
 11
176.154
 21
366.039
  0
LINE
  8
0
 10
176.154
 20
366.039
 11
176.32
 21
366.224
  0
LINE
  8
0
 10
176.32
 20
366.224
 11
176.511
 21
366.383
  0
LINE
  8
0
 10
176.511
 20
366.383
 11
176.723
 21
366.512
  0
LINE
  8
0
 10
176.723
 20
366.512
 11
176.951
 21
366.609
  0
LINE
  8
0
 10
176.951
 20
366.609
 11
177.191
 21
366.672
  0
LINE
  8
0
 10
177.191
 20
366.672
 11
177.438
 21
366.699
  0
LINE
  8
0
 10
177.438
 20
366.699
 11
177.686
 21
366.69
  0
LINE
  8
0
 10
177.686
 20
366.69
 11
177.93
 21
366.645
  0
LINE
  8
0
 10
177.93
 20
366.645
 11
178.165
 21
366.565
  0
LINE
  8
0
 10
178.165
 20
366.565
 11
178.386
 21
366.451
  0
LINE
  8
0
 10
178.386
 20
366.451
 11
178.587
 21
366.307
  0
LINE
  8
0
 10
178.587
 20
366.307
 11
178.766
 21
366.134
  0
LINE
  8
0
 10
178.766
 20
366.134
 11
178.918
 21
365.938
  0
LINE
  8
0
 10
178.918
 20
365.938
 11
179.039
 21
365.722
  0
LINE
  8
0
 10
179.039
 20
365.722
 11
179.128
 21
365.49
  0
LINE
  8
0
 10
179.128
 20
365.49
 11
179.182
 21
365.248
  0
LINE
  8
0
 10
179.182
 20
365.248
 11
179.2
 21
365
  0
LINE
  8
0
 10
179.2
 20
365
 11
179.182
 21
364.752
  0
LINE
  8
0
 10
179.182
 20
364.752
 11
179.128
 21
364.51
  0
LINE
  8
0
 10
179.128
 20
364.51
 11
179.039
 21
364.278
  0
LINE
  8
0
 10
179.039
 20
364.278
 11
178.918
 21
364.062
  0
LINE
  8
0
 10
178.918
 20
364.062
 11
178.766
 21
363.866
  0
LINE
  8
0
 10
178.766
 20
363.866
 11
178.587
 21
363.693
  0
LINE
  8
0
 10
178.587
 20
363.693
 11
178.386
 21
363.549
  0
LINE
  8
0
 10
178.386
 20
363.549
 11
178.165
 21
363.435
  0
LINE
  8
0
 10
178.165
 20
363.435
 11
177.93
 21
363.355
  0
LINE
  8
0
 10
177.93
 20
363.355
 11
177.686
 21
363.31
  0
LINE
  8
0
 10
177.686
 20
363.31
 11
177.438
 21
363.301
  0
LINE
  8
0
 10
177.438
 20
363.301
 11
177.191
 21
363.328
  0
LINE
  8
0
 10
-177.809
 20
363.328
 11
-178.049
 21
363.391
  0
LINE
  8
0
 10
-178.049
 20
363.391
 11
-178.277
 21
363.488
  0
LINE
  8
0
 10
-178.277
 20
363.488
 11
-178.489
 21
363.617
  0
LINE
  8
0
 10
-178.489
 20
363.617
 11
-178.68
 21
363.776
  0
LINE
  8
0
 10
-178.68
 20
363.776
 11
-178.846
 21
363.961
  0
LINE
  8
0
 10
-178.846
 20
363.961
 11
-178.982
 21
364.168
  0
LINE
  8
0
 10
-178.982
 20
364.168
 11
-179.088
 21
364.393
  0
LINE
  8
0
 10
-179.088
 20
364.393
 11
-179.159
 21
364.63
  0
LINE
  8
0
 10
-179.159
 20
364.63
 11
-179.195
 21
364.876
  0
LINE
  8
0
 10
-179.195
 20
364.876
 11
-179.195
 21
365.124
  0
LINE
  8
0
 10
-179.195
 20
365.124
 11
-179.159
 21
365.37
  0
LINE
  8
0
 10
-179.159
 20
365.37
 11
-179.088
 21
365.607
  0
LINE
  8
0
 10
-179.088
 20
365.607
 11
-178.982
 21
365.832
  0
LINE
  8
0
 10
-178.982
 20
365.832
 11
-178.846
 21
366.039
  0
LINE
  8
0
 10
-178.846
 20
366.039
 11
-178.68
 21
366.224
  0
LINE
  8
0
 10
-178.68
 20
366.224
 11
-178.489
 21
366.383
  0
LINE
  8
0
 10
-178.489
 20
366.383
 11
-178.277
 21
366.512
  0
LINE
  8
0
 10
-178.277
 20
366.512
 11
-178.049
 21
366.609
  0
LINE
  8
0
 10
-178.049
 20
366.609
 11
-177.809
 21
366.672
  0
LINE
  8
0
 10
-177.809
 20
366.672
 11
-177.562
 21
366.699
  0
LINE
  8
0
 10
-177.562
 20
366.699
 11
-177.314
 21
366.69
  0
LINE
  8
0
 10
-177.314
 20
366.69
 11
-177.07
 21
366.645
  0
LINE
  8
0
 10
-177.07
 20
366.645
 11
-176.835
 21
366.565
  0
LINE
  8
0
 10
-176.835
 20
366.565
 11
-176.614
 21
366.451
  0
LINE
  8
0
 10
-176.614
 20
366.451
 11
-176.413
 21
366.307
  0
LINE
  8
0
 10
-176.413
 20
366.307
 11
-176.234
 21
366.134
  0
LINE
  8
0
 10
-176.234
 20
366.134
 11
-176.082
 21
365.938
  0
LINE
  8
0
 10
-176.082
 20
365.938
 11
-175.961
 21
365.722
  0
LINE
  8
0
 10
-175.961
 20
365.722
 11
-175.872
 21
365.49
  0
LINE
  8
0
 10
-175.872
 20
365.49
 11
-175.818
 21
365.248
  0
LINE
  8
0
 10
-175.818
 20
365.248
 11
-175.8
 21
365
  0
LINE
  8
0
 10
-175.8
 20
365
 11
-175.818
 21
364.752
  0
LINE
  8
0
 10
-175.818
 20
364.752
 11
-175.872
 21
364.51
  0
LINE
  8
0
 10
-175.872
 20
364.51
 11
-175.961
 21
364.278
  0
LINE
  8
0
 10
-175.961
 20
364.278
 11
-176.082
 21
364.062
  0
LINE
  8
0
 10
-176.082
 20
364.062
 11
-176.234
 21
363.866
  0
LINE
  8
0
 10
-176.234
 20
363.866
 11
-176.413
 21
363.693
  0
LINE
  8
0
 10
-176.413
 20
363.693
 11
-176.614
 21
363.549
  0
LINE
  8
0
 10
-176.614
 20
363.549
 11
-176.835
 21
363.435
  0
LINE
  8
0
 10
-176.835
 20
363.435
 11
-177.07
 21
363.355
  0
LINE
  8
0
 10
-177.07
 20
363.355
 11
-177.314
 21
363.31
  0
LINE
  8
0
 10
-177.314
 20
363.31
 11
-177.562
 21
363.301
  0
LINE
  8
0
 10
-177.562
 20
363.301
 11
-177.809
 21
363.328
  0
LINE
  8
0
 10
88.4412
 20
363.328
 11
88.2011
 21
363.391
  0
LINE
  8
0
 10
88.2011
 20
363.391
 11
87.9727
 21
363.488
  0
LINE
  8
0
 10
87.9727
 20
363.488
 11
87.7608
 21
363.617
  0
LINE
  8
0
 10
87.7608
 20
363.617
 11
87.5701
 21
363.776
  0
LINE
  8
0
 10
87.5701
 20
363.776
 11
87.4044
 21
363.961
  0
LINE
  8
0
 10
87.4044
 20
363.961
 11
87.2675
 21
364.168
  0
LINE
  8
0
 10
87.2675
 20
364.168
 11
87.1622
 21
364.393
  0
LINE
  8
0
 10
87.1622
 20
364.393
 11
87.0907
 21
364.63
  0
LINE
  8
0
 10
87.0907
 20
364.63
 11
87.0545
 21
364.876
  0
LINE
  8
0
 10
87.0545
 20
364.876
 11
87.0545
 21
365.124
  0
LINE
  8
0
 10
87.0545
 20
365.124
 11
87.0907
 21
365.37
  0
LINE
  8
0
 10
87.0907
 20
365.37
 11
87.1622
 21
365.607
  0
LINE
  8
0
 10
87.1622
 20
365.607
 11
87.2675
 21
365.832
  0
LINE
  8
0
 10
87.2675
 20
365.832
 11
87.4044
 21
366.039
  0
LINE
  8
0
 10
87.4044
 20
366.039
 11
87.5701
 21
366.224
  0
LINE
  8
0
 10
87.5701
 20
366.224
 11
87.7608
 21
366.383
  0
LINE
  8
0
 10
87.7608
 20
366.383
 11
87.9727
 21
366.512
  0
LINE
  8
0
 10
87.9727
 20
366.512
 11
88.2011
 21
366.609
  0
LINE
  8
0
 10
88.2011
 20
366.609
 11
88.4412
 21
366.672
  0
LINE
  8
0
 10
88.4412
 20
366.672
 11
88.6879
 21
366.699
  0
LINE
  8
0
 10
88.6879
 20
366.699
 11
88.9359
 21
366.69
  0
LINE
  8
0
 10
88.9359
 20
366.69
 11
89.18
 21
366.645
  0
LINE
  8
0
 10
89.18
 20
366.645
 11
89.4149
 21
366.565
  0
LINE
  8
0
 10
89.4149
 20
366.565
 11
89.6356
 21
366.451
  0
LINE
  8
0
 10
89.6356
 20
366.451
 11
89.8374
 21
366.307
  0
LINE
  8
0
 10
89.8374
 20
366.307
 11
90.0161
 21
366.134
  0
LINE
  8
0
 10
90.0161
 20
366.134
 11
90.1678
 21
365.938
  0
LINE
  8
0
 10
90.1678
 20
365.938
 11
90.2893
 21
365.722
  0
LINE
  8
0
 10
90.2893
 20
365.722
 11
90.3779
 21
365.49
  0
LINE
  8
0
 10
90.3779
 20
365.49
 11
90.4319
 21
365.248
  0
LINE
  8
0
 10
90.4319
 20
365.248
 11
90.45
 21
365
  0
LINE
  8
0
 10
90.45
 20
365
 11
90.4319
 21
364.752
  0
LINE
  8
0
 10
90.4319
 20
364.752
 11
90.3779
 21
364.51
  0
LINE
  8
0
 10
90.3779
 20
364.51
 11
90.2893
 21
364.278
  0
LINE
  8
0
 10
90.2893
 20
364.278
 11
90.1678
 21
364.062
  0
LINE
  8
0
 10
90.1678
 20
364.062
 11
90.0161
 21
363.866
  0
LINE
  8
0
 10
90.0161
 20
363.866
 11
89.8374
 21
363.693
  0
LINE
  8
0
 10
89.8374
 20
363.693
 11
89.6356
 21
363.549
  0
LINE
  8
0
 10
89.6356
 20
363.549
 11
89.4149
 21
363.435
  0
LINE
  8
0
 10
89.4149
 20
363.435
 11
89.18
 21
363.355
  0
LINE
  8
0
 10
89.18
 20
363.355
 11
88.9359
 21
363.31
  0
LINE
  8
0
 10
88.9359
 20
363.31
 11
88.6879
 21
363.301
  0
LINE
  8
0
 10
88.6879
 20
363.301
 11
88.4412
 21
363.328
  0
LINE
  8
0
 10
219.691
 20
320.828
 11
219.451
 21
320.891
  0
LINE
  8
0
 10
219.451
 20
320.891
 11
219.223
 21
320.988
  0
LINE
  8
0
 10
219.223
 20
320.988
 11
219.011
 21
321.117
  0
LINE
  8
0
 10
219.011
 20
321.117
 11
218.82
 21
321.276
  0
LINE
  8
0
 10
218.82
 20
321.276
 11
218.654
 21
321.461
  0
LINE
  8
0
 10
218.654
 20
321.461
 11
218.518
 21
321.668
  0
LINE
  8
0
 10
218.518
 20
321.668
 11
218.412
 21
321.893
  0
LINE
  8
0
 10
218.412
 20
321.893
 11
218.341
 21
322.13
  0
LINE
  8
0
 10
218.341
 20
322.13
 11
218.305
 21
322.376
  0
LINE
  8
0
 10
218.305
 20
322.376
 11
218.305
 21
322.624
  0
LINE
  8
0
 10
218.305
 20
322.624
 11
218.341
 21
322.87
  0
LINE
  8
0
 10
218.341
 20
322.87
 11
218.412
 21
323.107
  0
LINE
  8
0
 10
218.412
 20
323.107
 11
218.518
 21
323.332
  0
LINE
  8
0
 10
218.518
 20
323.332
 11
218.654
 21
323.539
  0
LINE
  8
0
 10
218.654
 20
323.539
 11
218.82
 21
323.724
  0
LINE
  8
0
 10
218.82
 20
323.724
 11
219.011
 21
323.883
  0
LINE
  8
0
 10
219.011
 20
323.883
 11
219.223
 21
324.012
  0
LINE
  8
0
 10
219.223
 20
324.012
 11
219.451
 21
324.109
  0
LINE
  8
0
 10
219.451
 20
324.109
 11
219.691
 21
324.172
  0
LINE
  8
0
 10
219.691
 20
324.172
 11
219.938
 21
324.199
  0
LINE
  8
0
 10
219.938
 20
324.199
 11
220.186
 21
324.19
  0
LINE
  8
0
 10
220.186
 20
324.19
 11
220.43
 21
324.145
  0
LINE
  8
0
 10
220.43
 20
324.145
 11
220.665
 21
324.065
  0
LINE
  8
0
 10
220.665
 20
324.065
 11
220.886
 21
323.951
  0
LINE
  8
0
 10
220.886
 20
323.951
 11
221.087
 21
323.807
  0
LINE
  8
0
 10
221.087
 20
323.807
 11
221.266
 21
323.634
  0
LINE
  8
0
 10
221.266
 20
323.634
 11
221.418
 21
323.438
  0
LINE
  8
0
 10
221.418
 20
323.438
 11
221.539
 21
323.222
  0
LINE
  8
0
 10
221.539
 20
323.222
 11
221.628
 21
322.99
  0
LINE
  8
0
 10
221.628
 20
322.99
 11
221.682
 21
322.748
  0
LINE
  8
0
 10
221.682
 20
322.748
 11
221.7
 21
322.5
  0
LINE
  8
0
 10
221.7
 20
322.5
 11
221.682
 21
322.252
  0
LINE
  8
0
 10
221.682
 20
322.252
 11
221.628
 21
322.01
  0
LINE
  8
0
 10
221.628
 20
322.01
 11
221.539
 21
321.778
  0
LINE
  8
0
 10
221.539
 20
321.778
 11
221.418
 21
321.562
  0
LINE
  8
0
 10
221.418
 20
321.562
 11
221.266
 21
321.366
  0
LINE
  8
0
 10
221.266
 20
321.366
 11
221.087
 21
321.193
  0
LINE
  8
0
 10
221.087
 20
321.193
 11
220.886
 21
321.049
  0
LINE
  8
0
 10
220.886
 20
321.049
 11
220.665
 21
320.935
  0
LINE
  8
0
 10
220.665
 20
320.935
 11
220.43
 21
320.855
  0
LINE
  8
0
 10
220.43
 20
320.855
 11
220.186
 21
320.81
  0
LINE
  8
0
 10
220.186
 20
320.81
 11
219.938
 21
320.801
  0
LINE
  8
0
 10
219.938
 20
320.801
 11
219.691
 21
320.828
  0
LINE
  8
0
 10
-220.186
 20
320.81
 11
-220.43
 21
320.855
  0
LINE
  8
0
 10
-220.43
 20
320.855
 11
-220.665
 21
320.935
  0
LINE
  8
0
 10
-220.665
 20
320.935
 11
-220.886
 21
321.049
  0
LINE
  8
0
 10
-220.886
 20
321.049
 11
-221.087
 21
321.193
  0
LINE
  8
0
 10
-221.087
 20
321.193
 11
-221.266
 21
321.366
  0
LINE
  8
0
 10
-221.266
 20
321.366
 11
-221.418
 21
321.562
  0
LINE
  8
0
 10
-221.418
 20
321.562
 11
-221.539
 21
321.778
  0
LINE
  8
0
 10
-221.539
 20
321.778
 11
-221.628
 21
322.01
  0
LINE
  8
0
 10
-221.628
 20
322.01
 11
-221.682
 21
322.252
  0
LINE
  8
0
 10
-221.682
 20
322.252
 11
-221.7
 21
322.5
  0
LINE
  8
0
 10
-221.7
 20
322.5
 11
-221.682
 21
322.748
  0
LINE
  8
0
 10
-221.682
 20
322.748
 11
-221.628
 21
322.99
  0
LINE
  8
0
 10
-221.628
 20
322.99
 11
-221.539
 21
323.222
  0
LINE
  8
0
 10
-221.539
 20
323.222
 11
-221.418
 21
323.438
  0
LINE
  8
0
 10
-221.418
 20
323.438
 11
-221.266
 21
323.634
  0
LINE
  8
0
 10
-221.266
 20
323.634
 11
-221.087
 21
323.807
  0
LINE
  8
0
 10
-221.087
 20
323.807
 11
-220.886
 21
323.951
  0
LINE
  8
0
 10
-220.886
 20
323.951
 11
-220.665
 21
324.065
  0
LINE
  8
0
 10
-220.665
 20
324.065
 11
-220.43
 21
324.145
  0
LINE
  8
0
 10
-220.43
 20
324.145
 11
-220.186
 21
324.19
  0
LINE
  8
0
 10
-220.186
 20
324.19
 11
-219.938
 21
324.199
  0
LINE
  8
0
 10
-219.938
 20
324.199
 11
-219.691
 21
324.172
  0
LINE
  8
0
 10
-219.691
 20
324.172
 11
-219.451
 21
324.109
  0
LINE
  8
0
 10
-219.451
 20
324.109
 11
-219.223
 21
324.012
  0
LINE
  8
0
 10
-219.223
 20
324.012
 11
-219.011
 21
323.883
  0
LINE
  8
0
 10
-219.011
 20
323.883
 11
-218.82
 21
323.724
  0
LINE
  8
0
 10
-218.82
 20
323.724
 11
-218.654
 21
323.539
  0
LINE
  8
0
 10
-218.654
 20
323.539
 11
-218.518
 21
323.332
  0
LINE
  8
0
 10
-218.518
 20
323.332
 11
-218.412
 21
323.107
  0
LINE
  8
0
 10
-218.412
 20
323.107
 11
-218.341
 21
322.87
  0
LINE
  8
0
 10
-218.341
 20
322.87
 11
-218.305
 21
322.624
  0
LINE
  8
0
 10
-218.305
 20
322.624
 11
-218.305
 21
322.376
  0
LINE
  8
0
 10
-218.305
 20
322.376
 11
-218.341
 21
322.13
  0
LINE
  8
0
 10
-218.341
 20
322.13
 11
-218.412
 21
321.893
  0
LINE
  8
0
 10
-218.412
 20
321.893
 11
-218.518
 21
321.668
  0
LINE
  8
0
 10
-218.518
 20
321.668
 11
-218.654
 21
321.461
  0
LINE
  8
0
 10
-218.654
 20
321.461
 11
-218.82
 21
321.276
  0
LINE
  8
0
 10
-218.82
 20
321.276
 11
-219.011
 21
321.117
  0
LINE
  8
0
 10
-219.011
 20
321.117
 11
-219.223
 21
320.988
  0
LINE
  8
0
 10
-219.223
 20
320.988
 11
-219.451
 21
320.891
  0
LINE
  8
0
 10
-219.451
 20
320.891
 11
-219.691
 21
320.828
  0
LINE
  8
0
 10
-219.691
 20
320.828
 11
-219.938
 21
320.801
  0
LINE
  8
0
 10
-219.938
 20
320.801
 11
-220.186
 21
320.81
  0
LINE
  8
0
 10
-220.186
 20
228.667
 11
-220.43
 21
228.712
  0
LINE
  8
0
 10
-220.43
 20
228.712
 11
-220.665
 21
228.793
  0
LINE
  8
0
 10
-220.665
 20
228.793
 11
-220.886
 21
228.906
  0
LINE
  8
0
 10
-220.886
 20
228.906
 11
-221.087
 21
229.05
  0
LINE
  8
0
 10
-221.087
 20
229.05
 11
-221.266
 21
229.223
  0
LINE
  8
0
 10
-221.266
 20
229.223
 11
-221.418
 21
229.419
  0
LINE
  8
0
 10
-221.418
 20
229.419
 11
-221.539
 21
229.636
  0
LINE
  8
0
 10
-221.539
 20
229.636
 11
-221.628
 21
229.867
  0
LINE
  8
0
 10
-221.628
 20
229.867
 11
-221.682
 21
230.11
  0
LINE
  8
0
 10
-221.682
 20
230.11
 11
-221.7
 21
230.357
  0
LINE
  8
0
 10
-221.7
 20
230.357
 11
-221.682
 21
230.605
  0
LINE
  8
0
 10
-221.682
 20
230.605
 11
-221.628
 21
230.847
  0
LINE
  8
0
 10
-221.628
 20
230.847
 11
-221.539
 21
231.079
  0
LINE
  8
0
 10
-221.539
 20
231.079
 11
-221.418
 21
231.295
  0
LINE
  8
0
 10
-221.418
 20
231.295
 11
-221.266
 21
231.492
  0
LINE
  8
0
 10
-221.266
 20
231.492
 11
-221.087
 21
231.664
  0
LINE
  8
0
 10
-221.087
 20
231.664
 11
-220.886
 21
231.808
  0
LINE
  8
0
 10
-220.886
 20
231.808
 11
-220.665
 21
231.922
  0
LINE
  8
0
 10
-220.665
 20
231.922
 11
-220.43
 21
232.002
  0
LINE
  8
0
 10
-220.43
 20
232.002
 11
-220.186
 21
232.047
  0
LINE
  8
0
 10
-220.186
 20
232.047
 11
-219.938
 21
232.056
  0
LINE
  8
0
 10
-219.938
 20
232.056
 11
-219.691
 21
232.029
  0
LINE
  8
0
 10
-219.691
 20
232.029
 11
-219.451
 21
231.966
  0
LINE
  8
0
 10
-219.451
 20
231.966
 11
-219.223
 21
231.869
  0
LINE
  8
0
 10
-219.223
 20
231.869
 11
-219.011
 21
231.74
  0
LINE
  8
0
 10
-219.011
 20
231.74
 11
-218.82
 21
231.581
  0
LINE
  8
0
 10
-218.82
 20
231.581
 11
-218.654
 21
231.396
  0
LINE
  8
0
 10
-218.654
 20
231.396
 11
-218.518
 21
231.189
  0
LINE
  8
0
 10
-218.518
 20
231.189
 11
-218.412
 21
230.964
  0
LINE
  8
0
 10
-218.412
 20
230.964
 11
-218.341
 21
230.727
  0
LINE
  8
0
 10
-218.341
 20
230.727
 11
-218.305
 21
230.481
  0
LINE
  8
0
 10
-218.305
 20
230.481
 11
-218.305
 21
230.233
  0
LINE
  8
0
 10
-218.305
 20
230.233
 11
-218.341
 21
229.988
  0
LINE
  8
0
 10
-218.341
 20
229.988
 11
-218.412
 21
229.75
  0
LINE
  8
0
 10
-218.412
 20
229.75
 11
-218.518
 21
229.525
  0
LINE
  8
0
 10
-218.518
 20
229.525
 11
-218.654
 21
229.318
  0
LINE
  8
0
 10
-218.654
 20
229.318
 11
-218.82
 21
229.133
  0
LINE
  8
0
 10
-218.82
 20
229.133
 11
-219.011
 21
228.975
  0
LINE
  8
0
 10
-219.011
 20
228.975
 11
-219.223
 21
228.845
  0
LINE
  8
0
 10
-219.223
 20
228.845
 11
-219.451
 21
228.748
  0
LINE
  8
0
 10
-219.451
 20
228.748
 11
-219.691
 21
228.685
  0
LINE
  8
0
 10
-219.691
 20
228.685
 11
-219.938
 21
228.658
  0
LINE
  8
0
 10
-219.938
 20
228.658
 11
-220.186
 21
228.667
  0
LINE
  8
0
 10
219.691
 20
228.685
 11
219.451
 21
228.748
  0
LINE
  8
0
 10
219.451
 20
228.748
 11
219.223
 21
228.845
  0
LINE
  8
0
 10
219.223
 20
228.845
 11
219.011
 21
228.975
  0
LINE
  8
0
 10
219.011
 20
228.975
 11
218.82
 21
229.133
  0
LINE
  8
0
 10
218.82
 20
229.133
 11
218.654
 21
229.318
  0
LINE
  8
0
 10
218.654
 20
229.318
 11
218.518
 21
229.525
  0
LINE
  8
0
 10
218.518
 20
229.525
 11
218.412
 21
229.75
  0
LINE
  8
0
 10
218.412
 20
229.75
 11
218.341
 21
229.988
  0
LINE
  8
0
 10
218.341
 20
229.988
 11
218.305
 21
230.233
  0
LINE
  8
0
 10
218.305
 20
230.233
 11
218.305
 21
230.481
  0
LINE
  8
0
 10
218.305
 20
230.481
 11
218.341
 21
230.727
  0
LINE
  8
0
 10
218.341
 20
230.727
 11
218.412
 21
230.964
  0
LINE
  8
0
 10
218.412
 20
230.964
 11
218.518
 21
231.189
  0
LINE
  8
0
 10
218.518
 20
231.189
 11
218.654
 21
231.396
  0
LINE
  8
0
 10
218.654
 20
231.396
 11
218.82
 21
231.581
  0
LINE
  8
0
 10
218.82
 20
231.581
 11
219.011
 21
231.74
  0
LINE
  8
0
 10
219.011
 20
231.74
 11
219.223
 21
231.869
  0
LINE
  8
0
 10
219.223
 20
231.869
 11
219.451
 21
231.966
  0
LINE
  8
0
 10
219.451
 20
231.966
 11
219.691
 21
232.029
  0
LINE
  8
0
 10
219.691
 20
232.029
 11
219.938
 21
232.056
  0
LINE
  8
0
 10
219.938
 20
232.056
 11
220.186
 21
232.047
  0
LINE
  8
0
 10
220.186
 20
232.047
 11
220.43
 21
232.002
  0
LINE
  8
0
 10
220.43
 20
232.002
 11
220.665
 21
231.922
  0
LINE
  8
0
 10
220.665
 20
231.922
 11
220.886
 21
231.808
  0
LINE
  8
0
 10
220.886
 20
231.808
 11
221.087
 21
231.664
  0
LINE
  8
0
 10
221.087
 20
231.664
 11
221.266
 21
231.492
  0
LINE
  8
0
 10
221.266
 20
231.492
 11
221.418
 21
231.295
  0
LINE
  8
0
 10
221.418
 20
231.295
 11
221.539
 21
231.079
  0
LINE
  8
0
 10
221.539
 20
231.079
 11
221.628
 21
230.847
  0
LINE
  8
0
 10
221.628
 20
230.847
 11
221.682
 21
230.605
  0
LINE
  8
0
 10
221.682
 20
230.605
 11
221.7
 21
230.357
  0
LINE
  8
0
 10
221.7
 20
230.357
 11
221.682
 21
230.11
  0
LINE
  8
0
 10
221.682
 20
230.11
 11
221.628
 21
229.867
  0
LINE
  8
0
 10
221.628
 20
229.867
 11
221.539
 21
229.636
  0
LINE
  8
0
 10
221.539
 20
229.636
 11
221.418
 21
229.419
  0
LINE
  8
0
 10
221.418
 20
229.419
 11
221.266
 21
229.223
  0
LINE
  8
0
 10
221.266
 20
229.223
 11
221.087
 21
229.05
  0
LINE
  8
0
 10
221.087
 20
229.05
 11
220.886
 21
228.906
  0
LINE
  8
0
 10
220.886
 20
228.906
 11
220.665
 21
228.793
  0
LINE
  8
0
 10
220.665
 20
228.793
 11
220.43
 21
228.712
  0
LINE
  8
0
 10
220.43
 20
228.712
 11
220.186
 21
228.667
  0
LINE
  8
0
 10
220.186
 20
228.667
 11
219.938
 21
228.658
  0
LINE
  8
0
 10
219.938
 20
228.658
 11
219.691
 21
228.685
  0
LINE
  8
0
 10
219.691
 20
136.543
 11
219.451
 21
136.605
  0
LINE
  8
0
 10
219.451
 20
136.605
 11
219.223
 21
136.702
  0
LINE
  8
0
 10
219.223
 20
136.702
 11
219.011
 21
136.832
  0
LINE
  8
0
 10
219.011
 20
136.832
 11
218.82
 21
136.99
  0
LINE
  8
0
 10
218.82
 20
136.99
 11
218.654
 21
137.175
  0
LINE
  8
0
 10
218.654
 20
137.175
 11
218.518
 21
137.382
  0
LINE
  8
0
 10
218.518
 20
137.382
 11
218.412
 21
137.607
  0
LINE
  8
0
 10
218.412
 20
137.607
 11
218.341
 21
137.845
  0
LINE
  8
0
 10
218.341
 20
137.845
 11
218.305
 21
138.09
  0
LINE
  8
0
 10
218.305
 20
138.09
 11
218.305
 21
138.338
  0
LINE
  8
0
 10
218.305
 20
138.338
 11
218.341
 21
138.584
  0
LINE
  8
0
 10
218.341
 20
138.584
 11
218.412
 21
138.822
  0
LINE
  8
0
 10
218.412
 20
138.822
 11
218.518
 21
139.046
  0
LINE
  8
0
 10
218.518
 20
139.046
 11
218.654
 21
139.253
  0
LINE
  8
0
 10
218.654
 20
139.253
 11
218.82
 21
139.438
  0
LINE
  8
0
 10
218.82
 20
139.438
 11
219.011
 21
139.597
  0
LINE
  8
0
 10
219.011
 20
139.597
 11
219.223
 21
139.726
  0
LINE
  8
0
 10
219.223
 20
139.726
 11
219.451
 21
139.823
  0
LINE
  8
0
 10
219.451
 20
139.823
 11
219.691
 21
139.886
  0
LINE
  8
0
 10
219.691
 20
139.886
 11
219.938
 21
139.913
  0
LINE
  8
0
 10
219.938
 20
139.913
 11
220.186
 21
139.904
  0
LINE
  8
0
 10
220.186
 20
139.904
 11
220.43
 21
139.859
  0
LINE
  8
0
 10
220.43
 20
139.859
 11
220.665
 21
139.779
  0
LINE
  8
0
 10
220.665
 20
139.779
 11
220.886
 21
139.665
  0
LINE
  8
0
 10
220.886
 20
139.665
 11
221.087
 21
139.521
  0
LINE
  8
0
 10
221.087
 20
139.521
 11
221.266
 21
139.349
  0
LINE
  8
0
 10
221.266
 20
139.349
 11
221.418
 21
139.152
  0
LINE
  8
0
 10
221.418
 20
139.152
 11
221.539
 21
138.936
  0
LINE
  8
0
 10
221.539
 20
138.936
 11
221.628
 21
138.704
  0
LINE
  8
0
 10
221.628
 20
138.704
 11
221.682
 21
138.462
  0
LINE
  8
0
 10
221.682
 20
138.462
 11
221.7
 21
138.214
  0
LINE
  8
0
 10
221.7
 20
138.214
 11
221.682
 21
137.967
  0
LINE
  8
0
 10
221.682
 20
137.967
 11
221.628
 21
137.725
  0
LINE
  8
0
 10
221.628
 20
137.725
 11
221.539
 21
137.493
  0
LINE
  8
0
 10
221.539
 20
137.493
 11
221.418
 21
137.276
  0
LINE
  8
0
 10
221.418
 20
137.276
 11
221.266
 21
137.08
  0
LINE
  8
0
 10
221.266
 20
137.08
 11
221.087
 21
136.908
  0
LINE
  8
0
 10
221.087
 20
136.908
 11
220.886
 21
136.763
  0
LINE
  8
0
 10
220.886
 20
136.763
 11
220.665
 21
136.65
  0
LINE
  8
0
 10
220.665
 20
136.65
 11
220.43
 21
136.57
  0
LINE
  8
0
 10
220.43
 20
136.57
 11
220.186
 21
136.524
  0
LINE
  8
0
 10
220.186
 20
136.524
 11
219.938
 21
136.515
  0
LINE
  8
0
 10
219.938
 20
136.515
 11
219.691
 21
136.543
  0
LINE
  8
0
 10
-220.186
 20
136.524
 11
-220.43
 21
136.57
  0
LINE
  8
0
 10
-220.43
 20
136.57
 11
-220.665
 21
136.65
  0
LINE
  8
0
 10
-220.665
 20
136.65
 11
-220.886
 21
136.763
  0
LINE
  8
0
 10
-220.886
 20
136.763
 11
-221.087
 21
136.908
  0
LINE
  8
0
 10
-221.087
 20
136.908
 11
-221.266
 21
137.08
  0
LINE
  8
0
 10
-221.266
 20
137.08
 11
-221.418
 21
137.276
  0
LINE
  8
0
 10
-221.418
 20
137.276
 11
-221.539
 21
137.493
  0
LINE
  8
0
 10
-221.539
 20
137.493
 11
-221.628
 21
137.725
  0
LINE
  8
0
 10
-221.628
 20
137.725
 11
-221.682
 21
137.967
  0
LINE
  8
0
 10
-221.682
 20
137.967
 11
-221.7
 21
138.214
  0
LINE
  8
0
 10
-221.7
 20
138.214
 11
-221.682
 21
138.462
  0
LINE
  8
0
 10
-221.682
 20
138.462
 11
-221.628
 21
138.704
  0
LINE
  8
0
 10
-221.628
 20
138.704
 11
-221.539
 21
138.936
  0
LINE
  8
0
 10
-221.539
 20
138.936
 11
-221.418
 21
139.152
  0
LINE
  8
0
 10
-221.418
 20
139.152
 11
-221.266
 21
139.349
  0
LINE
  8
0
 10
-221.266
 20
139.349
 11
-221.087
 21
139.521
  0
LINE
  8
0
 10
-221.087
 20
139.521
 11
-220.886
 21
139.665
  0
LINE
  8
0
 10
-220.886
 20
139.665
 11
-220.665
 21
139.779
  0
LINE
  8
0
 10
-220.665
 20
139.779
 11
-220.43
 21
139.859
  0
LINE
  8
0
 10
-220.43
 20
139.859
 11
-220.186
 21
139.904
  0
LINE
  8
0
 10
-220.186
 20
139.904
 11
-219.938
 21
139.913
  0
LINE
  8
0
 10
-219.938
 20
139.913
 11
-219.691
 21
139.886
  0
LINE
  8
0
 10
-219.691
 20
139.886
 11
-219.451
 21
139.823
  0
LINE
  8
0
 10
-219.451
 20
139.823
 11
-219.223
 21
139.726
  0
LINE
  8
0
 10
-219.223
 20
139.726
 11
-219.011
 21
139.597
  0
LINE
  8
0
 10
-219.011
 20
139.597
 11
-218.82
 21
139.438
  0
LINE
  8
0
 10
-218.82
 20
139.438
 11
-218.654
 21
139.253
  0
LINE
  8
0
 10
-218.654
 20
139.253
 11
-218.518
 21
139.046
  0
LINE
  8
0
 10
-218.518
 20
139.046
 11
-218.412
 21
138.822
  0
LINE
  8
0
 10
-218.412
 20
138.822
 11
-218.341
 21
138.584
  0
LINE
  8
0
 10
-218.341
 20
138.584
 11
-218.305
 21
138.338
  0
LINE
  8
0
 10
-218.305
 20
138.338
 11
-218.305
 21
138.09
  0
LINE
  8
0
 10
-218.305
 20
138.09
 11
-218.341
 21
137.845
  0
LINE
  8
0
 10
-218.341
 20
137.845
 11
-218.412
 21
137.607
  0
LINE
  8
0
 10
-218.412
 20
137.607
 11
-218.518
 21
137.382
  0
LINE
  8
0
 10
-218.518
 20
137.382
 11
-218.654
 21
137.175
  0
LINE
  8
0
 10
-218.654
 20
137.175
 11
-218.82
 21
136.99
  0
LINE
  8
0
 10
-218.82
 20
136.99
 11
-219.011
 21
136.832
  0
LINE
  8
0
 10
-219.011
 20
136.832
 11
-219.223
 21
136.702
  0
LINE
  8
0
 10
-219.223
 20
136.702
 11
-219.451
 21
136.605
  0
LINE
  8
0
 10
-219.451
 20
136.605
 11
-219.691
 21
136.543
  0
LINE
  8
0
 10
-219.691
 20
136.543
 11
-219.938
 21
136.515
  0
LINE
  8
0
 10
-219.938
 20
136.515
 11
-220.186
 21
136.524
  0
LINE
  8
0
 10
-85.3589
 20
108.571
 11
-86.7029
 21
108.784
  0
LINE
  8
0
 10
-86.7029
 20
108.784
 11
-88.0172
 21
109.136
  0
LINE
  8
0
 10
-88.0172
 20
109.136
 11
-89.2876
 21
109.624
  0
LINE
  8
0
 10
-89.2876
 20
109.624
 11
-90.5
 21
110.242
  0
LINE
  8
0
 10
-90.5
 20
110.242
 11
-91.6412
 21
110.983
  0
LINE
  8
0
 10
-91.6412
 20
110.983
 11
-92.6987
 21
111.839
  0
LINE
  8
0
 10
-92.6987
 20
111.839
 11
-93.6609
 21
112.801
  0
LINE
  8
0
 10
-93.6609
 20
112.801
 11
-94.5172
 21
113.859
  0
LINE
  8
0
 10
-94.5172
 20
113.859
 11
-95.2583
 21
115
  0
LINE
  8
0
 10
-95.2583
 20
115
 11
-95.8761
 21
116.212
  0
LINE
  8
0
 10
-95.8761
 20
116.212
 11
-96.3637
 21
117.483
  0
LINE
  8
0
 10
-96.3637
 20
117.483
 11
-96.7159
 21
118.797
  0
LINE
  8
0
 10
-96.7159
 20
118.797
 11
-96.9288
 21
120.141
  0
LINE
  8
0
 10
-96.9288
 20
120.141
 11
-97
 21
121.5
  0
LINE
  8
0
 10
-97
 20
121.5
 11
-96.9288
 21
122.859
  0
LINE
  8
0
 10
-96.9288
 20
122.859
 11
-96.7159
 21
124.203
  0
LINE
  8
0
 10
-96.7159
 20
124.203
 11
-96.3637
 21
125.517
  0
LINE
  8
0
 10
-96.3637
 20
125.517
 11
-95.8761
 21
126.788
  0
LINE
  8
0
 10
-95.8761
 20
126.788
 11
-95.2583
 21
128
  0
LINE
  8
0
 10
-95.2583
 20
128
 11
-94.5172
 21
129.141
  0
LINE
  8
0
 10
-94.5172
 20
129.141
 11
-93.6609
 21
130.199
  0
LINE
  8
0
 10
-93.6609
 20
130.199
 11
-92.6987
 21
131.161
  0
LINE
  8
0
 10
-92.6987
 20
131.161
 11
-91.6412
 21
132.017
  0
LINE
  8
0
 10
-91.6412
 20
132.017
 11
-90.5
 21
132.758
  0
LINE
  8
0
 10
-90.5
 20
132.758
 11
-89.2876
 21
133.376
  0
LINE
  8
0
 10
-89.2876
 20
133.376
 11
-88.0172
 21
133.864
  0
LINE
  8
0
 10
-88.0172
 20
133.864
 11
-86.7029
 21
134.216
  0
LINE
  8
0
 10
-86.7029
 20
134.216
 11
-85.3589
 21
134.429
  0
LINE
  8
0
 10
-85.3589
 20
134.429
 11
-84
 21
134.5
  0
LINE
  8
0
 10
-84
 20
134.5
 11
-82.6411
 21
134.429
  0
LINE
  8
0
 10
-82.6411
 20
134.429
 11
-81.2971
 21
134.216
  0
LINE
  8
0
 10
-81.2971
 20
134.216
 11
-79.9828
 21
133.864
  0
LINE
  8
0
 10
-79.9828
 20
133.864
 11
-78.7124
 21
133.376
  0
LINE
  8
0
 10
-78.7124
 20
133.376
 11
-77.5
 21
132.758
  0
LINE
  8
0
 10
-77.5
 20
132.758
 11
-76.3588
 21
132.017
  0
LINE
  8
0
 10
-76.3588
 20
132.017
 11
-75.3013
 21
131.161
  0
LINE
  8
0
 10
-75.3013
 20
131.161
 11
-74.3391
 21
130.199
  0
LINE
  8
0
 10
-74.3391
 20
130.199
 11
-73.4828
 21
129.141
  0
LINE
  8
0
 10
-73.4828
 20
129.141
 11
-72.7417
 21
128
  0
LINE
  8
0
 10
-72.7417
 20
128
 11
-72.1239
 21
126.788
  0
LINE
  8
0
 10
-72.1239
 20
126.788
 11
-71.6363
 21
125.517
  0
LINE
  8
0
 10
-71.6363
 20
125.517
 11
-71.2841
 21
124.203
  0
LINE
  8
0
 10
-71.2841
 20
124.203
 11
-71.0712
 21
122.859
  0
LINE
  8
0
 10
-71.0712
 20
122.859
 11
-71
 21
121.5
  0
LINE
  8
0
 10
-71
 20
121.5
 11
-71.0712
 21
120.141
  0
LINE
  8
0
 10
-71.0712
 20
120.141
 11
-71.2841
 21
118.797
  0
LINE
  8
0
 10
-71.2841
 20
118.797
 11
-71.6363
 21
117.483
  0
LINE
  8
0
 10
-71.6363
 20
117.483
 11
-72.1239
 21
116.212
  0
LINE
  8
0
 10
-72.1239
 20
116.212
 11
-72.7417
 21
115
  0
LINE
  8
0
 10
-72.7417
 20
115
 11
-73.4828
 21
113.859
  0
LINE
  8
0
 10
-73.4828
 20
113.859
 11
-74.3391
 21
112.801
  0
LINE
  8
0
 10
-74.3391
 20
112.801
 11
-75.3013
 21
111.839
  0
LINE
  8
0
 10
-75.3013
 20
111.839
 11
-76.3588
 21
110.983
  0
LINE
  8
0
 10
-76.3588
 20
110.983
 11
-77.5
 21
110.242
  0
LINE
  8
0
 10
-77.5
 20
110.242
 11
-78.7124
 21
109.624
  0
LINE
  8
0
 10
-78.7124
 20
109.624
 11
-79.9828
 21
109.136
  0
LINE
  8
0
 10
-79.9828
 20
109.136
 11
-81.2971
 21
108.784
  0
LINE
  8
0
 10
-81.2971
 20
108.784
 11
-82.6411
 21
108.571
  0
LINE
  8
0
 10
-82.6411
 20
108.571
 11
-84
 21
108.5
  0
LINE
  8
0
 10
-84
 20
108.5
 11
-85.3589
 21
108.571
  0
LINE
  8
0
 10
185.376
 20
129.005
 11
185.132
 21
129.046
  0
LINE
  8
0
 10
185.132
 20
129.046
 11
184.897
 21
129.126
  0
LINE
  8
0
 10
184.897
 20
129.126
 11
184.68
 21
129.244
  0
LINE
  8
0
 10
184.68
 20
129.244
 11
184.484
 21
129.396
  0
LINE
  8
0
 10
184.484
 20
129.396
 11
184.316
 21
129.579
  0
LINE
  8
0
 10
184.316
 20
129.579
 11
184.181
 21
129.786
  0
LINE
  8
0
 10
184.181
 20
129.786
 11
184.081
 21
130.013
  0
LINE
  8
0
 10
184.081
 20
130.013
 11
184.02
 21
130.253
  0
LINE
  8
0
 10
184.02
 20
130.253
 11
184
 21
130.5
  0
LINE
  8
0
 10
184
 20
130.5
 11
184.02
 21
130.747
  0
LINE
  8
0
 10
184.02
 20
130.747
 11
184.081
 21
130.987
  0
LINE
  8
0
 10
184.081
 20
130.987
 11
184.181
 21
131.214
  0
LINE
  8
0
 10
184.181
 20
131.214
 11
184.316
 21
131.421
  0
LINE
  8
0
 10
184.316
 20
131.421
 11
184.484
 21
131.604
  0
LINE
  8
0
 10
184.484
 20
131.604
 11
184.68
 21
131.756
  0
LINE
  8
0
 10
184.68
 20
131.756
 11
184.897
 21
131.874
  0
LINE
  8
0
 10
184.897
 20
131.874
 11
185.132
 21
131.954
  0
LINE
  8
0
 10
185.132
 20
131.954
 11
185.376
 21
131.995
  0
LINE
  8
0
 10
185.376
 20
131.995
 11
185.624
 21
131.995
  0
LINE
  8
0
 10
185.624
 20
131.995
 11
185.868
 21
131.954
  0
LINE
  8
0
 10
185.868
 20
131.954
 11
186.103
 21
131.874
  0
LINE
  8
0
 10
186.103
 20
131.874
 11
186.32
 21
131.756
  0
LINE
  8
0
 10
186.32
 20
131.756
 11
186.516
 21
131.604
  0
LINE
  8
0
 10
186.516
 20
131.604
 11
186.684
 21
131.421
  0
LINE
  8
0
 10
186.684
 20
131.421
 11
186.819
 21
131.214
  0
LINE
  8
0
 10
186.819
 20
131.214
 11
186.919
 21
130.987
  0
LINE
  8
0
 10
186.919
 20
130.987
 11
186.98
 21
130.747
  0
LINE
  8
0
 10
186.98
 20
130.747
 11
187
 21
130.5
  0
LINE
  8
0
 10
187
 20
130.5
 11
186.98
 21
130.253
  0
LINE
  8
0
 10
186.98
 20
130.253
 11
186.919
 21
130.013
  0
LINE
  8
0
 10
186.919
 20
130.013
 11
186.819
 21
129.786
  0
LINE
  8
0
 10
186.819
 20
129.786
 11
186.684
 21
129.579
  0
LINE
  8
0
 10
186.684
 20
129.579
 11
186.516
 21
129.396
  0
LINE
  8
0
 10
186.516
 20
129.396
 11
186.32
 21
129.244
  0
LINE
  8
0
 10
186.32
 20
129.244
 11
186.103
 21
129.126
  0
LINE
  8
0
 10
186.103
 20
129.126
 11
185.868
 21
129.046
  0
LINE
  8
0
 10
185.868
 20
129.046
 11
185.624
 21
129.005
  0
LINE
  8
0
 10
185.624
 20
129.005
 11
185.376
 21
129.005
  0
LINE
  8
0
 10
-185.624
 20
129.005
 11
-185.868
 21
129.046
  0
LINE
  8
0
 10
-185.868
 20
129.046
 11
-186.103
 21
129.126
  0
LINE
  8
0
 10
-186.103
 20
129.126
 11
-186.32
 21
129.244
  0
LINE
  8
0
 10
-186.32
 20
129.244
 11
-186.516
 21
129.396
  0
LINE
  8
0
 10
-186.516
 20
129.396
 11
-186.684
 21
129.579
  0
LINE
  8
0
 10
-186.684
 20
129.579
 11
-186.819
 21
129.786
  0
LINE
  8
0
 10
-186.819
 20
129.786
 11
-186.919
 21
130.013
  0
LINE
  8
0
 10
-186.919
 20
130.013
 11
-186.98
 21
130.253
  0
LINE
  8
0
 10
-186.98
 20
130.253
 11
-187
 21
130.5
  0
LINE
  8
0
 10
-187
 20
130.5
 11
-186.98
 21
130.747
  0
LINE
  8
0
 10
-186.98
 20
130.747
 11
-186.919
 21
130.987
  0
LINE
  8
0
 10
-186.919
 20
130.987
 11
-186.819
 21
131.214
  0
LINE
  8
0
 10
-186.819
 20
131.214
 11
-186.684
 21
131.421
  0
LINE
  8
0
 10
-186.684
 20
131.421
 11
-186.516
 21
131.604
  0
LINE
  8
0
 10
-186.516
 20
131.604
 11
-186.32
 21
131.756
  0
LINE
  8
0
 10
-186.32
 20
131.756
 11
-186.103
 21
131.874
  0
LINE
  8
0
 10
-186.103
 20
131.874
 11
-185.868
 21
131.954
  0
LINE
  8
0
 10
-185.868
 20
131.954
 11
-185.624
 21
131.995
  0
LINE
  8
0
 10
-185.624
 20
131.995
 11
-185.376
 21
131.995
  0
LINE
  8
0
 10
-185.376
 20
131.995
 11
-185.132
 21
131.954
  0
LINE
  8
0
 10
-185.132
 20
131.954
 11
-184.897
 21
131.874
  0
LINE
  8
0
 10
-184.897
 20
131.874
 11
-184.68
 21
131.756
  0
LINE
  8
0
 10
-184.68
 20
131.756
 11
-184.484
 21
131.604
  0
LINE
  8
0
 10
-184.484
 20
131.604
 11
-184.316
 21
131.421
  0
LINE
  8
0
 10
-184.316
 20
131.421
 11
-184.181
 21
131.214
  0
LINE
  8
0
 10
-184.181
 20
131.214
 11
-184.081
 21
130.987
  0
LINE
  8
0
 10
-184.081
 20
130.987
 11
-184.02
 21
130.747
  0
LINE
  8
0
 10
-184.02
 20
130.747
 11
-184
 21
130.5
  0
LINE
  8
0
 10
-184
 20
130.5
 11
-184.02
 21
130.253
  0
LINE
  8
0
 10
-184.02
 20
130.253
 11
-184.081
 21
130.013
  0
LINE
  8
0
 10
-184.081
 20
130.013
 11
-184.181
 21
129.786
  0
LINE
  8
0
 10
-184.181
 20
129.786
 11
-184.316
 21
129.579
  0
LINE
  8
0
 10
-184.316
 20
129.579
 11
-184.484
 21
129.396
  0
LINE
  8
0
 10
-184.484
 20
129.396
 11
-184.68
 21
129.244
  0
LINE
  8
0
 10
-184.68
 20
129.244
 11
-184.897
 21
129.126
  0
LINE
  8
0
 10
-184.897
 20
129.126
 11
-185.132
 21
129.046
  0
LINE
  8
0
 10
-185.132
 20
129.046
 11
-185.376
 21
129.005
  0
LINE
  8
0
 10
-185.376
 20
129.005
 11
-185.624
 21
129.005
  0
LINE
  8
0
 10
69.6864
 20
117.016
 11
69.3763
 21
117.066
  0
LINE
  8
0
 10
69.3763
 20
117.066
 11
69.073
 21
117.147
  0
LINE
  8
0
 10
69.073
 20
117.147
 11
68.7798
 21
117.259
  0
LINE
  8
0
 10
68.7798
 20
117.259
 11
68.5
 21
117.402
  0
LINE
  8
0
 10
68.5
 20
117.402
 11
68.2366
 21
117.573
  0
LINE
  8
0
 10
68.2366
 20
117.573
 11
67.9926
 21
117.771
  0
LINE
  8
0
 10
67.9926
 20
117.771
 11
67.7706
 21
117.993
  0
LINE
  8
0
 10
67.7706
 20
117.993
 11
67.573
 21
118.237
  0
LINE
  8
0
 10
67.573
 20
118.237
 11
67.4019
 21
118.5
  0
LINE
  8
0
 10
67.4019
 20
118.5
 11
67.2594
 21
118.78
  0
LINE
  8
0
 10
67.2594
 20
118.78
 11
67.1468
 21
119.073
  0
LINE
  8
0
 10
67.1468
 20
119.073
 11
67.0656
 21
119.376
  0
LINE
  8
0
 10
67.0656
 20
119.376
 11
67.0164
 21
119.686
  0
LINE
  8
0
 10
67.0164
 20
119.686
 11
67
 21
120
  0
LINE
  8
0
 10
67
 20
120
 11
67.0164
 21
120.314
  0
LINE
  8
0
 10
67.0164
 20
120.314
 11
67.0656
 21
120.624
  0
LINE
  8
0
 10
67.0656
 20
120.624
 11
67.1468
 21
120.927
  0
LINE
  8
0
 10
67.1468
 20
120.927
 11
67.2594
 21
121.22
  0
LINE
  8
0
 10
67.2594
 20
121.22
 11
67.4019
 21
121.5
  0
LINE
  8
0
 10
67.4019
 20
121.5
 11
67.573
 21
121.763
  0
LINE
  8
0
 10
67.573
 20
121.763
 11
67.7706
 21
122.007
  0
LINE
  8
0
 10
67.7706
 20
122.007
 11
67.9926
 21
122.229
  0
LINE
  8
0
 10
67.9926
 20
122.229
 11
68.2366
 21
122.427
  0
LINE
  8
0
 10
68.2366
 20
122.427
 11
68.5
 21
122.598
  0
LINE
  8
0
 10
68.5
 20
122.598
 11
68.7798
 21
122.741
  0
LINE
  8
0
 10
68.7798
 20
122.741
 11
69.073
 21
122.853
  0
LINE
  8
0
 10
69.073
 20
122.853
 11
69.3763
 21
122.934
  0
LINE
  8
0
 10
69.3763
 20
122.934
 11
69.6864
 21
122.984
  0
LINE
  8
0
 10
69.6864
 20
122.984
 11
70
 21
123
  0
LINE
  8
0
 10
70
 20
123
 11
70.3136
 21
122.984
  0
LINE
  8
0
 10
70.3136
 20
122.984
 11
70.6237
 21
122.934
  0
LINE
  8
0
 10
70.6237
 20
122.934
 11
70.927
 21
122.853
  0
LINE
  8
0
 10
70.927
 20
122.853
 11
71.2202
 21
122.741
  0
LINE
  8
0
 10
71.2202
 20
122.741
 11
71.5
 21
122.598
  0
LINE
  8
0
 10
71.5
 20
122.598
 11
71.7634
 21
122.427
  0
LINE
  8
0
 10
71.7634
 20
122.427
 11
72.0074
 21
122.229
  0
LINE
  8
0
 10
72.0074
 20
122.229
 11
72.2294
 21
122.007
  0
LINE
  8
0
 10
72.2294
 20
122.007
 11
72.427
 21
121.763
  0
LINE
  8
0
 10
72.427
 20
121.763
 11
72.5981
 21
121.5
  0
LINE
  8
0
 10
72.5981
 20
121.5
 11
72.7406
 21
121.22
  0
LINE
  8
0
 10
72.7406
 20
121.22
 11
72.8532
 21
120.927
  0
LINE
  8
0
 10
72.8532
 20
120.927
 11
72.9344
 21
120.624
  0
LINE
  8
0
 10
72.9344
 20
120.624
 11
72.9836
 21
120.314
  0
LINE
  8
0
 10
72.9836
 20
120.314
 11
73
 21
120
  0
LINE
  8
0
 10
73
 20
120
 11
72.9836
 21
119.686
  0
LINE
  8
0
 10
72.9836
 20
119.686
 11
72.9344
 21
119.376
  0
LINE
  8
0
 10
72.9344
 20
119.376
 11
72.8532
 21
119.073
  0
LINE
  8
0
 10
72.8532
 20
119.073
 11
72.7406
 21
118.78
  0
LINE
  8
0
 10
72.7406
 20
118.78
 11
72.5981
 21
118.5
  0
LINE
  8
0
 10
72.5981
 20
118.5
 11
72.427
 21
118.237
  0
LINE
  8
0
 10
72.427
 20
118.237
 11
72.2294
 21
117.993
  0
LINE
  8
0
 10
72.2294
 20
117.993
 11
72.0074
 21
117.771
  0
LINE
  8
0
 10
72.0074
 20
117.771
 11
71.7634
 21
117.573
  0
LINE
  8
0
 10
71.7634
 20
117.573
 11
71.5
 21
117.402
  0
LINE
  8
0
 10
71.5
 20
117.402
 11
71.2202
 21
117.259
  0
LINE
  8
0
 10
71.2202
 20
117.259
 11
70.927
 21
117.147
  0
LINE
  8
0
 10
70.927
 20
117.147
 11
70.6237
 21
117.066
  0
LINE
  8
0
 10
70.6237
 20
117.066
 11
70.3136
 21
117.016
  0
LINE
  8
0
 10
70.3136
 20
117.016
 11
70
 21
117
  0
LINE
  8
0
 10
70
 20
117
 11
69.6864
 21
117.016
  0
LINE
  8
0
 10
-157.746
 20
88.8138
 11
-157.99
 21
88.8551
  0
LINE
  8
0
 10
-157.99
 20
88.8551
 11
-158.227
 21
88.9234
  0
LINE
  8
0
 10
-158.227
 20
88.9234
 11
-158.455
 21
89.0179
  0
LINE
  8
0
 10
-158.455
 20
89.0179
 11
-158.67
 21
89.1372
  0
LINE
  8
0
 10
-158.67
 20
89.1372
 11
-158.872
 21
89.28
  0
LINE
  8
0
 10
-158.872
 20
89.28
 11
-159.056
 21
89.4444
  0
LINE
  8
0
 10
-159.056
 20
89.4444
 11
-159.22
 21
89.6283
  0
LINE
  8
0
 10
-159.22
 20
89.6283
 11
-159.363
 21
89.8295
  0
LINE
  8
0
 10
-159.363
 20
89.8295
 11
-159.482
 21
90.0455
  0
LINE
  8
0
 10
-159.482
 20
90.0455
 11
-159.577
 21
90.2734
  0
LINE
  8
0
 10
-159.577
 20
90.2734
 11
-159.645
 21
90.5105
  0
LINE
  8
0
 10
-159.645
 20
90.5105
 11
-159.686
 21
90.7537
  0
LINE
  8
0
 10
-159.686
 20
90.7537
 11
-159.7
 21
91
  0
LINE
  8
0
 10
-159.7
 20
91
 11
-159.686
 21
91.2463
  0
LINE
  8
0
 10
-159.686
 20
91.2463
 11
-159.645
 21
91.4895
  0
LINE
  8
0
 10
-159.645
 20
91.4895
 11
-159.577
 21
91.7266
  0
LINE
  8
0
 10
-159.577
 20
91.7266
 11
-159.482
 21
91.9545
  0
LINE
  8
0
 10
-159.482
 20
91.9545
 11
-159.363
 21
92.1705
  0
LINE
  8
0
 10
-159.363
 20
92.1705
 11
-159.22
 21
92.3717
  0
LINE
  8
0
 10
-159.22
 20
92.3717
 11
-159.056
 21
92.5556
  0
LINE
  8
0
 10
-159.056
 20
92.5556
 11
-158.872
 21
92.72
  0
LINE
  8
0
 10
-158.872
 20
92.72
 11
-158.67
 21
92.8628
  0
LINE
  8
0
 10
-158.67
 20
92.8628
 11
-158.455
 21
92.9821
  0
LINE
  8
0
 10
-158.455
 20
92.9821
 11
-158.227
 21
93.0765
  0
LINE
  8
0
 10
-158.227
 20
93.0765
 11
-157.99
 21
93.1448
  0
LINE
  8
0
 10
-157.99
 20
93.1448
 11
-157.746
 21
93.1862
  0
LINE
  8
0
 10
-157.746
 20
93.1862
 11
-157.5
 21
93.2
  0
LINE
  8
0
 10
-157.5
 20
93.2
 11
-157.254
 21
93.1862
  0
LINE
  8
0
 10
-157.254
 20
93.1862
 11
-157.01
 21
93.1448
  0
LINE
  8
0
 10
-157.01
 20
93.1448
 11
-156.773
 21
93.0765
  0
LINE
  8
0
 10
-156.773
 20
93.0765
 11
-156.545
 21
92.9821
  0
LINE
  8
0
 10
-156.545
 20
92.9821
 11
-156.33
 21
92.8628
  0
LINE
  8
0
 10
-156.33
 20
92.8628
 11
-156.128
 21
92.72
  0
LINE
  8
0
 10
-156.128
 20
92.72
 11
-155.944
 21
92.5556
  0
LINE
  8
0
 10
-155.944
 20
92.5556
 11
-155.78
 21
92.3717
  0
LINE
  8
0
 10
-155.78
 20
92.3717
 11
-155.637
 21
92.1705
  0
LINE
  8
0
 10
-155.637
 20
92.1705
 11
-155.518
 21
91.9545
  0
LINE
  8
0
 10
-155.518
 20
91.9545
 11
-155.423
 21
91.7266
  0
LINE
  8
0
 10
-155.423
 20
91.7266
 11
-155.355
 21
91.4895
  0
LINE
  8
0
 10
-155.355
 20
91.4895
 11
-155.314
 21
91.2463
  0
LINE
  8
0
 10
-155.314
 20
91.2463
 11
-155.3
 21
91
  0
LINE
  8
0
 10
-155.3
 20
91
 11
-155.314
 21
90.7537
  0
LINE
  8
0
 10
-155.314
 20
90.7537
 11
-155.355
 21
90.5105
  0
LINE
  8
0
 10
-155.355
 20
90.5105
 11
-155.423
 21
90.2734
  0
LINE
  8
0
 10
-155.423
 20
90.2734
 11
-155.518
 21
90.0455
  0
LINE
  8
0
 10
-155.518
 20
90.0455
 11
-155.637
 21
89.8295
  0
LINE
  8
0
 10
-155.637
 20
89.8295
 11
-155.78
 21
89.6283
  0
LINE
  8
0
 10
-155.78
 20
89.6283
 11
-155.944
 21
89.4444
  0
LINE
  8
0
 10
-155.944
 20
89.4444
 11
-156.128
 21
89.28
  0
LINE
  8
0
 10
-156.128
 20
89.28
 11
-156.33
 21
89.1372
  0
LINE
  8
0
 10
-156.33
 20
89.1372
 11
-156.545
 21
89.0179
  0
LINE
  8
0
 10
-156.545
 20
89.0179
 11
-156.773
 21
88.9234
  0
LINE
  8
0
 10
-156.773
 20
88.9234
 11
-157.01
 21
88.8551
  0
LINE
  8
0
 10
-157.01
 20
88.8551
 11
-157.254
 21
88.8138
  0
LINE
  8
0
 10
-157.254
 20
88.8138
 11
-157.5
 21
88.8
  0
LINE
  8
0
 10
-157.5
 20
88.8
 11
-157.746
 21
88.8138
  0
LINE
  8
0
 10
-27.7463
 20
88.8138
 11
-27.9895
 21
88.8551
  0
LINE
  8
0
 10
-27.9895
 20
88.8551
 11
-28.2266
 21
88.9234
  0
LINE
  8
0
 10
-28.2266
 20
88.9234
 11
-28.4545
 21
89.0179
  0
LINE
  8
0
 10
-28.4545
 20
89.0179
 11
-28.6705
 21
89.1372
  0
LINE
  8
0
 10
-28.6705
 20
89.1372
 11
-28.8717
 21
89.28
  0
LINE
  8
0
 10
-28.8717
 20
89.28
 11
-29.0556
 21
89.4444
  0
LINE
  8
0
 10
-29.0556
 20
89.4444
 11
-29.22
 21
89.6283
  0
LINE
  8
0
 10
-29.22
 20
89.6283
 11
-29.3628
 21
89.8295
  0
LINE
  8
0
 10
-29.3628
 20
89.8295
 11
-29.4821
 21
90.0455
  0
LINE
  8
0
 10
-29.4821
 20
90.0455
 11
-29.5765
 21
90.2734
  0
LINE
  8
0
 10
-29.5765
 20
90.2734
 11
-29.6448
 21
90.5105
  0
LINE
  8
0
 10
-29.6448
 20
90.5105
 11
-29.6862
 21
90.7537
  0
LINE
  8
0
 10
-29.6862
 20
90.7537
 11
-29.7
 21
91
  0
LINE
  8
0
 10
-29.7
 20
91
 11
-29.6862
 21
91.2463
  0
LINE
  8
0
 10
-29.6862
 20
91.2463
 11
-29.6448
 21
91.4895
  0
LINE
  8
0
 10
-29.6448
 20
91.4895
 11
-29.5765
 21
91.7266
  0
LINE
  8
0
 10
-29.5765
 20
91.7266
 11
-29.4821
 21
91.9545
  0
LINE
  8
0
 10
-29.4821
 20
91.9545
 11
-29.3628
 21
92.1705
  0
LINE
  8
0
 10
-29.3628
 20
92.1705
 11
-29.22
 21
92.3717
  0
LINE
  8
0
 10
-29.22
 20
92.3717
 11
-29.0556
 21
92.5556
  0
LINE
  8
0
 10
-29.0556
 20
92.5556
 11
-28.8717
 21
92.72
  0
LINE
  8
0
 10
-28.8717
 20
92.72
 11
-28.6705
 21
92.8628
  0
LINE
  8
0
 10
-28.6705
 20
92.8628
 11
-28.4545
 21
92.9821
  0
LINE
  8
0
 10
-28.4545
 20
92.9821
 11
-28.2266
 21
93.0765
  0
LINE
  8
0
 10
-28.2266
 20
93.0765
 11
-27.9895
 21
93.1448
  0
LINE
  8
0
 10
-27.9895
 20
93.1448
 11
-27.7463
 21
93.1862
  0
LINE
  8
0
 10
-27.7463
 20
93.1862
 11
-27.5
 21
93.2
  0
LINE
  8
0
 10
-27.5
 20
93.2
 11
-27.2537
 21
93.1862
  0
LINE
  8
0
 10
-27.2537
 20
93.1862
 11
-27.0105
 21
93.1448
  0
LINE
  8
0
 10
-27.0105
 20
93.1448
 11
-26.7734
 21
93.0765
  0
LINE
  8
0
 10
-26.7734
 20
93.0765
 11
-26.5455
 21
92.9821
  0
LINE
  8
0
 10
-26.5455
 20
92.9821
 11
-26.3295
 21
92.8628
  0
LINE
  8
0
 10
-26.3295
 20
92.8628
 11
-26.1283
 21
92.72
  0
LINE
  8
0
 10
-26.1283
 20
92.72
 11
-25.9444
 21
92.5556
  0
LINE
  8
0
 10
-25.9444
 20
92.5556
 11
-25.78
 21
92.3717
  0
LINE
  8
0
 10
-25.78
 20
92.3717
 11
-25.6372
 21
92.1705
  0
LINE
  8
0
 10
-25.6372
 20
92.1705
 11
-25.5179
 21
91.9545
  0
LINE
  8
0
 10
-25.5179
 20
91.9545
 11
-25.4234
 21
91.7266
  0
LINE
  8
0
 10
-25.4234
 20
91.7266
 11
-25.3551
 21
91.4895
  0
LINE
  8
0
 10
-25.3551
 20
91.4895
 11
-25.3138
 21
91.2463
  0
LINE
  8
0
 10
-25.3138
 20
91.2463
 11
-25.3
 21
91
  0
LINE
  8
0
 10
-25.3
 20
91
 11
-25.3138
 21
90.7537
  0
LINE
  8
0
 10
-25.3138
 20
90.7537
 11
-25.3551
 21
90.5105
  0
LINE
  8
0
 10
-25.3551
 20
90.5105
 11
-25.4234
 21
90.2734
  0
LINE
  8
0
 10
-25.4234
 20
90.2734
 11
-25.5179
 21
90.0455
  0
LINE
  8
0
 10
-25.5179
 20
90.0455
 11
-25.6372
 21
89.8295
  0
LINE
  8
0
 10
-25.6372
 20
89.8295
 11
-25.78
 21
89.6283
  0
LINE
  8
0
 10
-25.78
 20
89.6283
 11
-25.9444
 21
89.4444
  0
LINE
  8
0
 10
-25.9444
 20
89.4444
 11
-26.1283
 21
89.28
  0
LINE
  8
0
 10
-26.1283
 20
89.28
 11
-26.3295
 21
89.1372
  0
LINE
  8
0
 10
-26.3295
 20
89.1372
 11
-26.5455
 21
89.0179
  0
LINE
  8
0
 10
-26.5455
 20
89.0179
 11
-26.7734
 21
88.9234
  0
LINE
  8
0
 10
-26.7734
 20
88.9234
 11
-27.0105
 21
88.8551
  0
LINE
  8
0
 10
-27.0105
 20
88.8551
 11
-27.2537
 21
88.8138
  0
LINE
  8
0
 10
-27.2537
 20
88.8138
 11
-27.5
 21
88.8
  0
LINE
  8
0
 10
-27.5
 20
88.8
 11
-27.7463
 21
88.8138
  0
LINE
  8
0
 10
-42.7463
 20
88.8138
 11
-42.9895
 21
88.8551
  0
LINE
  8
0
 10
-42.9895
 20
88.8551
 11
-43.2266
 21
88.9234
  0
LINE
  8
0
 10
-43.2266
 20
88.9234
 11
-43.4545
 21
89.0179
  0
LINE
  8
0
 10
-43.4545
 20
89.0179
 11
-43.6705
 21
89.1372
  0
LINE
  8
0
 10
-43.6705
 20
89.1372
 11
-43.8717
 21
89.28
  0
LINE
  8
0
 10
-43.8717
 20
89.28
 11
-44.0556
 21
89.4444
  0
LINE
  8
0
 10
-44.0556
 20
89.4444
 11
-44.22
 21
89.6283
  0
LINE
  8
0
 10
-44.22
 20
89.6283
 11
-44.3628
 21
89.8295
  0
LINE
  8
0
 10
-44.3628
 20
89.8295
 11
-44.4821
 21
90.0455
  0
LINE
  8
0
 10
-44.4821
 20
90.0455
 11
-44.5765
 21
90.2734
  0
LINE
  8
0
 10
-44.5765
 20
90.2734
 11
-44.6448
 21
90.5105
  0
LINE
  8
0
 10
-44.6448
 20
90.5105
 11
-44.6862
 21
90.7537
  0
LINE
  8
0
 10
-44.6862
 20
90.7537
 11
-44.7
 21
91
  0
LINE
  8
0
 10
-44.7
 20
91
 11
-44.6862
 21
91.2463
  0
LINE
  8
0
 10
-44.6862
 20
91.2463
 11
-44.6448
 21
91.4895
  0
LINE
  8
0
 10
-44.6448
 20
91.4895
 11
-44.5765
 21
91.7266
  0
LINE
  8
0
 10
-44.5765
 20
91.7266
 11
-44.4821
 21
91.9545
  0
LINE
  8
0
 10
-44.4821
 20
91.9545
 11
-44.3628
 21
92.1705
  0
LINE
  8
0
 10
-44.3628
 20
92.1705
 11
-44.22
 21
92.3717
  0
LINE
  8
0
 10
-44.22
 20
92.3717
 11
-44.0556
 21
92.5556
  0
LINE
  8
0
 10
-44.0556
 20
92.5556
 11
-43.8717
 21
92.72
  0
LINE
  8
0
 10
-43.8717
 20
92.72
 11
-43.6705
 21
92.8628
  0
LINE
  8
0
 10
-43.6705
 20
92.8628
 11
-43.4545
 21
92.9821
  0
LINE
  8
0
 10
-43.4545
 20
92.9821
 11
-43.2266
 21
93.0765
  0
LINE
  8
0
 10
-43.2266
 20
93.0765
 11
-42.9895
 21
93.1448
  0
LINE
  8
0
 10
-42.9895
 20
93.1448
 11
-42.7463
 21
93.1862
  0
LINE
  8
0
 10
-42.7463
 20
93.1862
 11
-42.5
 21
93.2
  0
LINE
  8
0
 10
-42.5
 20
93.2
 11
-42.2537
 21
93.1862
  0
LINE
  8
0
 10
-42.2537
 20
93.1862
 11
-42.0105
 21
93.1448
  0
LINE
  8
0
 10
-42.0105
 20
93.1448
 11
-41.7734
 21
93.0765
  0
LINE
  8
0
 10
-41.7734
 20
93.0765
 11
-41.5455
 21
92.9821
  0
LINE
  8
0
 10
-41.5455
 20
92.9821
 11
-41.3295
 21
92.8628
  0
LINE
  8
0
 10
-41.3295
 20
92.8628
 11
-41.1283
 21
92.72
  0
LINE
  8
0
 10
-41.1283
 20
92.72
 11
-40.9444
 21
92.5556
  0
LINE
  8
0
 10
-40.9444
 20
92.5556
 11
-40.78
 21
92.3717
  0
LINE
  8
0
 10
-40.78
 20
92.3717
 11
-40.6372
 21
92.1705
  0
LINE
  8
0
 10
-40.6372
 20
92.1705
 11
-40.5179
 21
91.9545
  0
LINE
  8
0
 10
-40.5179
 20
91.9545
 11
-40.4234
 21
91.7266
  0
LINE
  8
0
 10
-40.4234
 20
91.7266
 11
-40.3551
 21
91.4895
  0
LINE
  8
0
 10
-40.3551
 20
91.4895
 11
-40.3138
 21
91.2463
  0
LINE
  8
0
 10
-40.3138
 20
91.2463
 11
-40.3
 21
91
  0
LINE
  8
0
 10
-40.3
 20
91
 11
-40.3138
 21
90.7537
  0
LINE
  8
0
 10
-40.3138
 20
90.7537
 11
-40.3551
 21
90.5105
  0
LINE
  8
0
 10
-40.3551
 20
90.5105
 11
-40.4234
 21
90.2734
  0
LINE
  8
0
 10
-40.4234
 20
90.2734
 11
-40.5179
 21
90.0455
  0
LINE
  8
0
 10
-40.5179
 20
90.0455
 11
-40.6372
 21
89.8295
  0
LINE
  8
0
 10
-40.6372
 20
89.8295
 11
-40.78
 21
89.6283
  0
LINE
  8
0
 10
-40.78
 20
89.6283
 11
-40.9444
 21
89.4444
  0
LINE
  8
0
 10
-40.9444
 20
89.4444
 11
-41.1283
 21
89.28
  0
LINE
  8
0
 10
-41.1283
 20
89.28
 11
-41.3295
 21
89.1372
  0
LINE
  8
0
 10
-41.3295
 20
89.1372
 11
-41.5455
 21
89.0179
  0
LINE
  8
0
 10
-41.5455
 20
89.0179
 11
-41.7734
 21
88.9234
  0
LINE
  8
0
 10
-41.7734
 20
88.9234
 11
-42.0105
 21
88.8551
  0
LINE
  8
0
 10
-42.0105
 20
88.8551
 11
-42.2537
 21
88.8138
  0
LINE
  8
0
 10
-42.2537
 20
88.8138
 11
-42.5
 21
88.8
  0
LINE
  8
0
 10
-42.5
 20
88.8
 11
-42.7463
 21
88.8138
  0
LINE
  8
0
 10
159.739
 20
66.2637
 11
159.48
 21
66.3046
  0
LINE
  8
0
 10
159.48
 20
66.3046
 11
159.227
 21
66.3724
  0
LINE
  8
0
 10
159.227
 20
66.3724
 11
158.983
 21
66.4661
  0
LINE
  8
0
 10
158.983
 20
66.4661
 11
158.75
 21
66.5849
  0
LINE
  8
0
 10
158.75
 20
66.5849
 11
158.531
 21
66.7274
  0
LINE
  8
0
 10
158.531
 20
66.7274
 11
158.327
 21
66.8921
  0
LINE
  8
0
 10
158.327
 20
66.8921
 11
158.142
 21
67.0772
  0
LINE
  8
0
 10
158.142
 20
67.0772
 11
157.977
 21
67.2805
  0
LINE
  8
0
 10
157.977
 20
67.2805
 11
157.835
 21
67.5
  0
LINE
  8
0
 10
157.835
 20
67.5
 11
157.716
 21
67.7332
  0
LINE
  8
0
 10
157.716
 20
67.7332
 11
157.622
 21
67.9774
  0
LINE
  8
0
 10
157.622
 20
67.9774
 11
157.555
 21
68.2302
  0
LINE
  8
0
 10
157.555
 20
68.2302
 11
157.514
 21
68.4887
  0
LINE
  8
0
 10
157.514
 20
68.4887
 11
157.5
 21
68.75
  0
LINE
  8
0
 10
157.5
 20
68.75
 11
157.514
 21
69.0113
  0
LINE
  8
0
 10
157.514
 20
69.0113
 11
157.555
 21
69.2698
  0
LINE
  8
0
 10
157.555
 20
69.2698
 11
157.622
 21
69.5225
  0
LINE
  8
0
 10
157.622
 20
69.5225
 11
157.716
 21
69.7668
  0
LINE
  8
0
 10
157.716
 20
69.7668
 11
157.835
 21
70
  0
LINE
  8
0
 10
157.835
 20
70
 11
157.977
 21
70.2195
  0
LINE
  8
0
 10
157.977
 20
70.2195
 11
158.142
 21
70.4228
  0
LINE
  8
0
 10
158.142
 20
70.4228
 11
158.327
 21
70.6079
  0
LINE
  8
0
 10
158.327
 20
70.6079
 11
158.531
 21
70.7725
  0
LINE
  8
0
 10
158.531
 20
70.7725
 11
158.75
 21
70.9151
  0
LINE
  8
0
 10
158.75
 20
70.9151
 11
158.983
 21
71.0339
  0
LINE
  8
0
 10
158.983
 20
71.0339
 11
159.227
 21
71.1276
  0
LINE
  8
0
 10
159.227
 20
71.1276
 11
159.48
 21
71.1954
  0
LINE
  8
0
 10
159.48
 20
71.1954
 11
159.739
 21
71.2363
  0
LINE
  8
0
 10
159.739
 20
71.2363
 11
160
 21
71.25
  0
LINE
  8
0
 10
160
 20
71.25
 11
160.261
 21
71.2363
  0
LINE
  8
0
 10
160.261
 20
71.2363
 11
160.52
 21
71.1954
  0
LINE
  8
0
 10
160.52
 20
71.1954
 11
160.773
 21
71.1276
  0
LINE
  8
0
 10
160.773
 20
71.1276
 11
161.017
 21
71.0339
  0
LINE
  8
0
 10
161.017
 20
71.0339
 11
161.25
 21
70.9151
  0
LINE
  8
0
 10
161.25
 20
70.9151
 11
161.469
 21
70.7725
  0
LINE
  8
0
 10
161.469
 20
70.7725
 11
161.673
 21
70.6079
  0
LINE
  8
0
 10
161.673
 20
70.6079
 11
161.858
 21
70.4228
  0
LINE
  8
0
 10
161.858
 20
70.4228
 11
162.023
 21
70.2195
  0
LINE
  8
0
 10
162.023
 20
70.2195
 11
162.165
 21
70
  0
LINE
  8
0
 10
162.165
 20
70
 11
162.284
 21
69.7668
  0
LINE
  8
0
 10
162.284
 20
69.7668
 11
162.378
 21
69.5225
  0
LINE
  8
0
 10
162.378
 20
69.5225
 11
162.445
 21
69.2698
  0
LINE
  8
0
 10
162.445
 20
69.2698
 11
162.486
 21
69.0113
  0
LINE
  8
0
 10
162.486
 20
69.0113
 11
162.5
 21
68.75
  0
LINE
  8
0
 10
162.5
 20
68.75
 11
162.486
 21
68.4887
  0
LINE
  8
0
 10
162.486
 20
68.4887
 11
162.445
 21
68.2302
  0
LINE
  8
0
 10
162.445
 20
68.2302
 11
162.378
 21
67.9774
  0
LINE
  8
0
 10
162.378
 20
67.9774
 11
162.284
 21
67.7332
  0
LINE
  8
0
 10
162.284
 20
67.7332
 11
162.165
 21
67.5
  0
LINE
  8
0
 10
162.165
 20
67.5
 11
162.023
 21
67.2805
  0
LINE
  8
0
 10
162.023
 20
67.2805
 11
161.858
 21
67.0772
  0
LINE
  8
0
 10
161.858
 20
67.0772
 11
161.673
 21
66.8921
  0
LINE
  8
0
 10
161.673
 20
66.8921
 11
161.469
 21
66.7274
  0
LINE
  8
0
 10
161.469
 20
66.7274
 11
161.25
 21
66.5849
  0
LINE
  8
0
 10
161.25
 20
66.5849
 11
161.017
 21
66.4661
  0
LINE
  8
0
 10
161.017
 20
66.4661
 11
160.773
 21
66.3724
  0
LINE
  8
0
 10
160.773
 20
66.3724
 11
160.52
 21
66.3046
  0
LINE
  8
0
 10
160.52
 20
66.3046
 11
160.261
 21
66.2637
  0
LINE
  8
0
 10
160.261
 20
66.2637
 11
160
 21
66.25
  0
LINE
  8
0
 10
160
 20
66.25
 11
159.739
 21
66.2637
  0
LINE
  8
0
 10
219.691
 20
44.3997
 11
219.451
 21
44.4625
  0
LINE
  8
0
 10
219.451
 20
44.4625
 11
219.223
 21
44.5595
  0
LINE
  8
0
 10
219.223
 20
44.5595
 11
219.011
 21
44.6888
  0
LINE
  8
0
 10
219.011
 20
44.6888
 11
218.82
 21
44.8476
  0
LINE
  8
0
 10
218.82
 20
44.8476
 11
218.654
 21
45.0324
  0
LINE
  8
0
 10
218.654
 20
45.0324
 11
218.518
 21
45.2394
  0
LINE
  8
0
 10
218.518
 20
45.2394
 11
218.412
 21
45.4641
  0
LINE
  8
0
 10
218.412
 20
45.4641
 11
218.341
 21
45.7018
  0
LINE
  8
0
 10
218.341
 20
45.7018
 11
218.305
 21
45.9473
  0
LINE
  8
0
 10
218.305
 20
45.9473
 11
218.305
 21
46.1955
  0
LINE
  8
0
 10
218.305
 20
46.1955
 11
218.341
 21
46.4411
  0
LINE
  8
0
 10
218.341
 20
46.4411
 11
218.412
 21
46.6787
  0
LINE
  8
0
 10
218.412
 20
46.6787
 11
218.518
 21
46.9034
  0
LINE
  8
0
 10
218.518
 20
46.9034
 11
218.654
 21
47.1104
  0
LINE
  8
0
 10
218.654
 20
47.1104
 11
218.82
 21
47.2953
  0
LINE
  8
0
 10
218.82
 20
47.2953
 11
219.011
 21
47.454
  0
LINE
  8
0
 10
219.011
 20
47.454
 11
219.223
 21
47.5833
  0
LINE
  8
0
 10
219.223
 20
47.5833
 11
219.451
 21
47.6804
  0
LINE
  8
0
 10
219.451
 20
47.6804
 11
219.691
 21
47.7431
  0
LINE
  8
0
 10
219.691
 20
47.7431
 11
219.938
 21
47.7703
  0
LINE
  8
0
 10
219.938
 20
47.7703
 11
220.186
 21
47.7612
  0
LINE
  8
0
 10
220.186
 20
47.7612
 11
220.43
 21
47.7161
  0
LINE
  8
0
 10
220.43
 20
47.7161
 11
220.665
 21
47.636
  0
LINE
  8
0
 10
220.665
 20
47.636
 11
220.886
 21
47.5225
  0
LINE
  8
0
 10
220.886
 20
47.5225
 11
221.087
 21
47.3781
  0
LINE
  8
0
 10
221.087
 20
47.3781
 11
221.266
 21
47.2059
  0
LINE
  8
0
 10
221.266
 20
47.2059
 11
221.418
 21
47.0094
  0
LINE
  8
0
 10
221.418
 20
47.0094
 11
221.539
 21
46.793
  0
LINE
  8
0
 10
221.539
 20
46.793
 11
221.628
 21
46.5612
  0
LINE
  8
0
 10
221.628
 20
46.5612
 11
221.682
 21
46.3189
  0
LINE
  8
0
 10
221.682
 20
46.3189
 11
221.7
 21
46.0714
  0
LINE
  8
0
 10
221.7
 20
46.0714
 11
221.682
 21
45.8239
  0
LINE
  8
0
 10
221.682
 20
45.8239
 11
221.628
 21
45.5816
  0
LINE
  8
0
 10
221.628
 20
45.5816
 11
221.539
 21
45.3499
  0
LINE
  8
0
 10
221.539
 20
45.3499
 11
221.418
 21
45.1334
  0
LINE
  8
0
 10
221.418
 20
45.1334
 11
221.266
 21
44.937
  0
LINE
  8
0
 10
221.266
 20
44.937
 11
221.087
 21
44.7647
  0
LINE
  8
0
 10
221.087
 20
44.7647
 11
220.886
 21
44.6203
  0
LINE
  8
0
 10
220.886
 20
44.6203
 11
220.665
 21
44.5068
  0
LINE
  8
0
 10
220.665
 20
44.5068
 11
220.43
 21
44.4267
  0
LINE
  8
0
 10
220.43
 20
44.4267
 11
220.186
 21
44.3816
  0
LINE
  8
0
 10
220.186
 20
44.3816
 11
219.938
 21
44.3726
  0
LINE
  8
0
 10
219.938
 20
44.3726
 11
219.691
 21
44.3997
  0
LINE
  8
0
 10
-220.186
 20
44.3816
 11
-220.43
 21
44.4267
  0
LINE
  8
0
 10
-220.43
 20
44.4267
 11
-220.665
 21
44.5068
  0
LINE
  8
0
 10
-220.665
 20
44.5068
 11
-220.886
 21
44.6203
  0
LINE
  8
0
 10
-220.886
 20
44.6203
 11
-221.087
 21
44.7647
  0
LINE
  8
0
 10
-221.087
 20
44.7647
 11
-221.266
 21
44.937
  0
LINE
  8
0
 10
-221.266
 20
44.937
 11
-221.418
 21
45.1334
  0
LINE
  8
0
 10
-221.418
 20
45.1334
 11
-221.539
 21
45.3499
  0
LINE
  8
0
 10
-221.539
 20
45.3499
 11
-221.628
 21
45.5816
  0
LINE
  8
0
 10
-221.628
 20
45.5816
 11
-221.682
 21
45.8239
  0
LINE
  8
0
 10
-221.682
 20
45.8239
 11
-221.7
 21
46.0714
  0
LINE
  8
0
 10
-221.7
 20
46.0714
 11
-221.682
 21
46.3189
  0
LINE
  8
0
 10
-221.682
 20
46.3189
 11
-221.628
 21
46.5612
  0
LINE
  8
0
 10
-221.628
 20
46.5612
 11
-221.539
 21
46.793
  0
LINE
  8
0
 10
-221.539
 20
46.793
 11
-221.418
 21
47.0094
  0
LINE
  8
0
 10
-221.418
 20
47.0094
 11
-221.266
 21
47.2059
  0
LINE
  8
0
 10
-221.266
 20
47.2059
 11
-221.087
 21
47.3781
  0
LINE
  8
0
 10
-221.087
 20
47.3781
 11
-220.886
 21
47.5225
  0
LINE
  8
0
 10
-220.886
 20
47.5225
 11
-220.665
 21
47.636
  0
LINE
  8
0
 10
-220.665
 20
47.636
 11
-220.43
 21
47.7161
  0
LINE
  8
0
 10
-220.43
 20
47.7161
 11
-220.186
 21
47.7612
  0
LINE
  8
0
 10
-220.186
 20
47.7612
 11
-219.938
 21
47.7703
  0
LINE
  8
0
 10
-219.938
 20
47.7703
 11
-219.691
 21
47.7431
  0
LINE
  8
0
 10
-219.691
 20
47.7431
 11
-219.451
 21
47.6804
  0
LINE
  8
0
 10
-219.451
 20
47.6804
 11
-219.223
 21
47.5833
  0
LINE
  8
0
 10
-219.223
 20
47.5833
 11
-219.011
 21
47.454
  0
LINE
  8
0
 10
-219.011
 20
47.454
 11
-218.82
 21
47.2953
  0
LINE
  8
0
 10
-218.82
 20
47.2953
 11
-218.654
 21
47.1104
  0
LINE
  8
0
 10
-218.654
 20
47.1104
 11
-218.518
 21
46.9034
  0
LINE
  8
0
 10
-218.518
 20
46.9034
 11
-218.412
 21
46.6787
  0
LINE
  8
0
 10
-218.412
 20
46.6787
 11
-218.341
 21
46.4411
  0
LINE
  8
0
 10
-218.341
 20
46.4411
 11
-218.305
 21
46.1955
  0
LINE
  8
0
 10
-218.305
 20
46.1955
 11
-218.305
 21
45.9473
  0
LINE
  8
0
 10
-218.305
 20
45.9473
 11
-218.341
 21
45.7018
  0
LINE
  8
0
 10
-218.341
 20
45.7018
 11
-218.412
 21
45.4641
  0
LINE
  8
0
 10
-218.412
 20
45.4641
 11
-218.518
 21
45.2394
  0
LINE
  8
0
 10
-218.518
 20
45.2394
 11
-218.654
 21
45.0324
  0
LINE
  8
0
 10
-218.654
 20
45.0324
 11
-218.82
 21
44.8476
  0
LINE
  8
0
 10
-218.82
 20
44.8476
 11
-219.011
 21
44.6888
  0
LINE
  8
0
 10
-219.011
 20
44.6888
 11
-219.223
 21
44.5595
  0
LINE
  8
0
 10
-219.223
 20
44.5595
 11
-219.451
 21
44.4625
  0
LINE
  8
0
 10
-219.451
 20
44.4625
 11
-219.691
 21
44.3997
  0
LINE
  8
0
 10
-219.691
 20
44.3997
 11
-219.938
 21
44.3726
  0
LINE
  8
0
 10
-219.938
 20
44.3726
 11
-220.186
 21
44.3816
  0
LINE
  8
0
 10
159.739
 20
18.7637
 11
159.48
 21
18.8046
  0
LINE
  8
0
 10
159.48
 20
18.8046
 11
159.227
 21
18.8724
  0
LINE
  8
0
 10
159.227
 20
18.8724
 11
158.983
 21
18.9661
  0
LINE
  8
0
 10
158.983
 20
18.9661
 11
158.75
 21
19.0849
  0
LINE
  8
0
 10
158.75
 20
19.0849
 11
158.531
 21
19.2274
  0
LINE
  8
0
 10
158.531
 20
19.2274
 11
158.327
 21
19.3921
  0
LINE
  8
0
 10
158.327
 20
19.3921
 11
158.142
 21
19.5772
  0
LINE
  8
0
 10
158.142
 20
19.5772
 11
157.977
 21
19.7805
  0
LINE
  8
0
 10
157.977
 20
19.7805
 11
157.835
 21
20
  0
LINE
  8
0
 10
157.835
 20
20
 11
157.716
 21
20.2332
  0
LINE
  8
0
 10
157.716
 20
20.2332
 11
157.622
 21
20.4774
  0
LINE
  8
0
 10
157.622
 20
20.4774
 11
157.555
 21
20.7302
  0
LINE
  8
0
 10
157.555
 20
20.7302
 11
157.514
 21
20.9887
  0
LINE
  8
0
 10
157.514
 20
20.9887
 11
157.5
 21
21.25
  0
LINE
  8
0
 10
157.5
 20
21.25
 11
157.514
 21
21.5113
  0
LINE
  8
0
 10
157.514
 20
21.5113
 11
157.555
 21
21.7698
  0
LINE
  8
0
 10
157.555
 20
21.7698
 11
157.622
 21
22.0225
  0
LINE
  8
0
 10
157.622
 20
22.0225
 11
157.716
 21
22.2668
  0
LINE
  8
0
 10
157.716
 20
22.2668
 11
157.835
 21
22.5
  0
LINE
  8
0
 10
157.835
 20
22.5
 11
157.977
 21
22.7195
  0
LINE
  8
0
 10
157.977
 20
22.7195
 11
158.142
 21
22.9228
  0
LINE
  8
0
 10
158.142
 20
22.9228
 11
158.327
 21
23.1078
  0
LINE
  8
0
 10
158.327
 20
23.1078
 11
158.531
 21
23.2725
  0
LINE
  8
0
 10
158.531
 20
23.2725
 11
158.75
 21
23.4151
  0
LINE
  8
0
 10
158.75
 20
23.4151
 11
158.983
 21
23.5339
  0
LINE
  8
0
 10
158.983
 20
23.5339
 11
159.227
 21
23.6276
  0
LINE
  8
0
 10
159.227
 20
23.6276
 11
159.48
 21
23.6954
  0
LINE
  8
0
 10
159.48
 20
23.6954
 11
159.739
 21
23.7363
  0
LINE
  8
0
 10
159.739
 20
23.7363
 11
160
 21
23.75
  0
LINE
  8
0
 10
160
 20
23.75
 11
160.261
 21
23.7363
  0
LINE
  8
0
 10
160.261
 20
23.7363
 11
160.52
 21
23.6954
  0
LINE
  8
0
 10
160.52
 20
23.6954
 11
160.773
 21
23.6276
  0
LINE
  8
0
 10
160.773
 20
23.6276
 11
161.017
 21
23.5339
  0
LINE
  8
0
 10
161.017
 20
23.5339
 11
161.25
 21
23.4151
  0
LINE
  8
0
 10
161.25
 20
23.4151
 11
161.469
 21
23.2725
  0
LINE
  8
0
 10
161.469
 20
23.2725
 11
161.673
 21
23.1078
  0
LINE
  8
0
 10
161.673
 20
23.1078
 11
161.858
 21
22.9228
  0
LINE
  8
0
 10
161.858
 20
22.9228
 11
162.023
 21
22.7195
  0
LINE
  8
0
 10
162.023
 20
22.7195
 11
162.165
 21
22.5
  0
LINE
  8
0
 10
162.165
 20
22.5
 11
162.284
 21
22.2668
  0
LINE
  8
0
 10
162.284
 20
22.2668
 11
162.378
 21
22.0225
  0
LINE
  8
0
 10
162.378
 20
22.0225
 11
162.445
 21
21.7698
  0
LINE
  8
0
 10
162.445
 20
21.7698
 11
162.486
 21
21.5113
  0
LINE
  8
0
 10
162.486
 20
21.5113
 11
162.5
 21
21.25
  0
LINE
  8
0
 10
162.5
 20
21.25
 11
162.486
 21
20.9887
  0
LINE
  8
0
 10
162.486
 20
20.9887
 11
162.445
 21
20.7302
  0
LINE
  8
0
 10
162.445
 20
20.7302
 11
162.378
 21
20.4774
  0
LINE
  8
0
 10
162.378
 20
20.4774
 11
162.284
 21
20.2332
  0
LINE
  8
0
 10
162.284
 20
20.2332
 11
162.165
 21
20
  0
LINE
  8
0
 10
162.165
 20
20
 11
162.023
 21
19.7805
  0
LINE
  8
0
 10
162.023
 20
19.7805
 11
161.858
 21
19.5772
  0
LINE
  8
0
 10
161.858
 20
19.5772
 11
161.673
 21
19.3921
  0
LINE
  8
0
 10
161.673
 20
19.3921
 11
161.469
 21
19.2274
  0
LINE
  8
0
 10
161.469
 20
19.2274
 11
161.25
 21
19.0849
  0
LINE
  8
0
 10
161.25
 20
19.0849
 11
161.017
 21
18.9661
  0
LINE
  8
0
 10
161.017
 20
18.9661
 11
160.773
 21
18.8724
  0
LINE
  8
0
 10
160.773
 20
18.8724
 11
160.52
 21
18.8046
  0
LINE
  8
0
 10
160.52
 20
18.8046
 11
160.261
 21
18.7637
  0
LINE
  8
0
 10
160.261
 20
18.7637
 11
160
 21
18.75
  0
LINE
  8
0
 10
160
 20
18.75
 11
159.739
 21
18.7637
  0
LINE
  8
0
 10
-42.7463
 20
-3.18616
 11
-42.9895
 21
-3.14484
  0
LINE
  8
0
 10
-42.9895
 20
-3.14484
 11
-43.2266
 21
-3.07654
  0
LINE
  8
0
 10
-43.2266
 20
-3.07654
 11
-43.4545
 21
-2.98212
  0
LINE
  8
0
 10
-43.4545
 20
-2.98212
 11
-43.6705
 21
-2.86279
  0
LINE
  8
0
 10
-43.6705
 20
-2.86279
 11
-43.8717
 21
-2.72002
  0
LINE
  8
0
 10
-43.8717
 20
-2.72002
 11
-44.0556
 21
-2.55563
  0
LINE
  8
0
 10
-44.0556
 20
-2.55563
 11
-44.22
 21
-2.37167
  0
LINE
  8
0
 10
-44.22
 20
-2.37167
 11
-44.3628
 21
-2.17046
  0
LINE
  8
0
 10
-44.3628
 20
-2.17046
 11
-44.4821
 21
-1.95454
  0
LINE
  8
0
 10
-44.4821
 20
-1.95454
 11
-44.5765
 21
-1.72661
  0
LINE
  8
0
 10
-44.5765
 20
-1.72661
 11
-44.6448
 21
-1.48953
  0
LINE
  8
0
 10
-44.6448
 20
-1.48953
 11
-44.6862
 21
-1.24631
  0
LINE
  8
0
 10
-44.6862
 20
-1.24631
 11
-44.7
 21
-1
  0
LINE
  8
0
 10
-44.7
 20
-1
 11
-44.6862
 21
-0.753677
  0
LINE
  8
0
 10
-44.6862
 20
-0.753677
 11
-44.6448
 21
-0.510452
  0
LINE
  8
0
 10
-44.6448
 20
-0.510452
 11
-44.5765
 21
-0.273376
  0
LINE
  8
0
 10
-44.5765
 20
-0.273376
 11
-44.4821
 21
-0.0454407
  0
LINE
  8
0
 10
-44.4821
 20
-0.0454407
 11
-44.3628
 21
0.170471
  0
LINE
  8
0
 10
-44.3628
 20
0.170471
 11
-44.22
 21
0.371674
  0
LINE
  8
0
 10
-44.22
 20
0.371674
 11
-44.0556
 21
0.555634
  0
LINE
  8
0
 10
-44.0556
 20
0.555634
 11
-43.8717
 21
0.720016
  0
LINE
  8
0
 10
-43.8717
 20
0.720016
 11
-43.6705
 21
0.862793
  0
LINE
  8
0
 10
-43.6705
 20
0.862793
 11
-43.4545
 21
0.982132
  0
LINE
  8
0
 10
-43.4545
 20
0.982132
 11
-43.2266
 21
1.07654
  0
LINE
  8
0
 10
-43.2266
 20
1.07654
 11
-42.9895
 21
1.14484
  0
LINE
  8
0
 10
-42.9895
 20
1.14484
 11
-42.7463
 21
1.18616
  0
LINE
  8
0
 10
-42.7463
 20
1.18616
 11
-42.5
 21
1.2
  0
LINE
  8
0
 10
-42.5
 20
1.2
 11
-42.2537
 21
1.18616
  0
LINE
  8
0
 10
-42.2537
 20
1.18616
 11
-42.0105
 21
1.14484
  0
LINE
  8
0
 10
-42.0105
 20
1.14484
 11
-41.7734
 21
1.07654
  0
LINE
  8
0
 10
-41.7734
 20
1.07654
 11
-41.5455
 21
0.982132
  0
LINE
  8
0
 10
-41.5455
 20
0.982132
 11
-41.3295
 21
0.862793
  0
LINE
  8
0
 10
-41.3295
 20
0.862793
 11
-41.1283
 21
0.720016
  0
LINE
  8
0
 10
-41.1283
 20
0.720016
 11
-40.9444
 21
0.555634
  0
LINE
  8
0
 10
-40.9444
 20
0.555634
 11
-40.78
 21
0.371674
  0
LINE
  8
0
 10
-40.78
 20
0.371674
 11
-40.6372
 21
0.170471
  0
LINE
  8
0
 10
-40.6372
 20
0.170471
 11
-40.5179
 21
-0.0454407
  0
LINE
  8
0
 10
-40.5179
 20
-0.0454407
 11
-40.4234
 21
-0.273376
  0
LINE
  8
0
 10
-40.4234
 20
-0.273376
 11
-40.3551
 21
-0.510452
  0
LINE
  8
0
 10
-40.3551
 20
-0.510452
 11
-40.3138
 21
-0.753677
  0
LINE
  8
0
 10
-40.3138
 20
-0.753677
 11
-40.3
 21
-1
  0
LINE
  8
0
 10
-40.3
 20
-1
 11
-40.3138
 21
-1.24631
  0
LINE
  8
0
 10
-40.3138
 20
-1.24631
 11
-40.3551
 21
-1.48953
  0
LINE
  8
0
 10
-40.3551
 20
-1.48953
 11
-40.4234
 21
-1.72661
  0
LINE
  8
0
 10
-40.4234
 20
-1.72661
 11
-40.5179
 21
-1.95454
  0
LINE
  8
0
 10
-40.5179
 20
-1.95454
 11
-40.6372
 21
-2.17046
  0
LINE
  8
0
 10
-40.6372
 20
-2.17046
 11
-40.78
 21
-2.37167
  0
LINE
  8
0
 10
-40.78
 20
-2.37167
 11
-40.9444
 21
-2.55563
  0
LINE
  8
0
 10
-40.9444
 20
-2.55563
 11
-41.1283
 21
-2.72002
  0
LINE
  8
0
 10
-41.1283
 20
-2.72002
 11
-41.3295
 21
-2.86279
  0
LINE
  8
0
 10
-41.3295
 20
-2.86279
 11
-41.5455
 21
-2.98212
  0
LINE
  8
0
 10
-41.5455
 20
-2.98212
 11
-41.7734
 21
-3.07654
  0
LINE
  8
0
 10
-41.7734
 20
-3.07654
 11
-42.0105
 21
-3.14484
  0
LINE
  8
0
 10
-42.0105
 20
-3.14484
 11
-42.2537
 21
-3.18616
  0
LINE
  8
0
 10
-42.2537
 20
-3.18616
 11
-42.5
 21
-3.2
  0
LINE
  8
0
 10
-42.5
 20
-3.2
 11
-42.7463
 21
-3.18616
  0
LINE
  8
0
 10
-157.746
 20
-3.18616
 11
-157.99
 21
-3.14484
  0
LINE
  8
0
 10
-157.99
 20
-3.14484
 11
-158.227
 21
-3.07654
  0
LINE
  8
0
 10
-158.227
 20
-3.07654
 11
-158.455
 21
-2.98212
  0
LINE
  8
0
 10
-158.455
 20
-2.98212
 11
-158.67
 21
-2.86279
  0
LINE
  8
0
 10
-158.67
 20
-2.86279
 11
-158.872
 21
-2.72002
  0
LINE
  8
0
 10
-158.872
 20
-2.72002
 11
-159.056
 21
-2.55563
  0
LINE
  8
0
 10
-159.056
 20
-2.55563
 11
-159.22
 21
-2.37167
  0
LINE
  8
0
 10
-159.22
 20
-2.37167
 11
-159.363
 21
-2.17046
  0
LINE
  8
0
 10
-159.363
 20
-2.17046
 11
-159.482
 21
-1.95454
  0
LINE
  8
0
 10
-159.482
 20
-1.95454
 11
-159.577
 21
-1.72661
  0
LINE
  8
0
 10
-159.577
 20
-1.72661
 11
-159.645
 21
-1.48953
  0
LINE
  8
0
 10
-159.645
 20
-1.48953
 11
-159.686
 21
-1.24631
  0
LINE
  8
0
 10
-159.686
 20
-1.24631
 11
-159.7
 21
-1
  0
LINE
  8
0
 10
-159.7
 20
-1
 11
-159.686
 21
-0.753677
  0
LINE
  8
0
 10
-159.686
 20
-0.753677
 11
-159.645
 21
-0.510452
  0
LINE
  8
0
 10
-159.645
 20
-0.510452
 11
-159.577
 21
-0.273376
  0
LINE
  8
0
 10
-159.577
 20
-0.273376
 11
-159.482
 21
-0.0454407
  0
LINE
  8
0
 10
-159.482
 20
-0.0454407
 11
-159.363
 21
0.170471
  0
LINE
  8
0
 10
-159.363
 20
0.170471
 11
-159.22
 21
0.371674
  0
LINE
  8
0
 10
-159.22
 20
0.371674
 11
-159.056
 21
0.555634
  0
LINE
  8
0
 10
-159.056
 20
0.555634
 11
-158.872
 21
0.720016
  0
LINE
  8
0
 10
-158.872
 20
0.720016
 11
-158.67
 21
0.862793
  0
LINE
  8
0
 10
-158.67
 20
0.862793
 11
-158.455
 21
0.982132
  0
LINE
  8
0
 10
-158.455
 20
0.982132
 11
-158.227
 21
1.07654
  0
LINE
  8
0
 10
-158.227
 20
1.07654
 11
-157.99
 21
1.14484
  0
LINE
  8
0
 10
-157.99
 20
1.14484
 11
-157.746
 21
1.18616
  0
LINE
  8
0
 10
-157.746
 20
1.18616
 11
-157.5
 21
1.2
  0
LINE
  8
0
 10
-157.5
 20
1.2
 11
-157.254
 21
1.18616
  0
LINE
  8
0
 10
-157.254
 20
1.18616
 11
-157.01
 21
1.14484
  0
LINE
  8
0
 10
-157.01
 20
1.14484
 11
-156.773
 21
1.07654
  0
LINE
  8
0
 10
-156.773
 20
1.07654
 11
-156.545
 21
0.982132
  0
LINE
  8
0
 10
-156.545
 20
0.982132
 11
-156.33
 21
0.862793
  0
LINE
  8
0
 10
-156.33
 20
0.862793
 11
-156.128
 21
0.720016
  0
LINE
  8
0
 10
-156.128
 20
0.720016
 11
-155.944
 21
0.555634
  0
LINE
  8
0
 10
-155.944
 20
0.555634
 11
-155.78
 21
0.371674
  0
LINE
  8
0
 10
-155.78
 20
0.371674
 11
-155.637
 21
0.170471
  0
LINE
  8
0
 10
-155.637
 20
0.170471
 11
-155.518
 21
-0.0454407
  0
LINE
  8
0
 10
-155.518
 20
-0.0454407
 11
-155.423
 21
-0.273376
  0
LINE
  8
0
 10
-155.423
 20
-0.273376
 11
-155.355
 21
-0.510452
  0
LINE
  8
0
 10
-155.355
 20
-0.510452
 11
-155.314
 21
-0.753677
  0
LINE
  8
0
 10
-155.314
 20
-0.753677
 11
-155.3
 21
-1
  0
LINE
  8
0
 10
-155.3
 20
-1
 11
-155.314
 21
-1.24631
  0
LINE
  8
0
 10
-155.314
 20
-1.24631
 11
-155.355
 21
-1.48953
  0
LINE
  8
0
 10
-155.355
 20
-1.48953
 11
-155.423
 21
-1.72661
  0
LINE
  8
0
 10
-155.423
 20
-1.72661
 11
-155.518
 21
-1.95454
  0
LINE
  8
0
 10
-155.518
 20
-1.95454
 11
-155.637
 21
-2.17046
  0
LINE
  8
0
 10
-155.637
 20
-2.17046
 11
-155.78
 21
-2.37167
  0
LINE
  8
0
 10
-155.78
 20
-2.37167
 11
-155.944
 21
-2.55563
  0
LINE
  8
0
 10
-155.944
 20
-2.55563
 11
-156.128
 21
-2.72002
  0
LINE
  8
0
 10
-156.128
 20
-2.72002
 11
-156.33
 21
-2.86279
  0
LINE
  8
0
 10
-156.33
 20
-2.86279
 11
-156.545
 21
-2.98212
  0
LINE
  8
0
 10
-156.545
 20
-2.98212
 11
-156.773
 21
-3.07654
  0
LINE
  8
0
 10
-156.773
 20
-3.07654
 11
-157.01
 21
-3.14484
  0
LINE
  8
0
 10
-157.01
 20
-3.14484
 11
-157.254
 21
-3.18616
  0
LINE
  8
0
 10
-157.254
 20
-3.18616
 11
-157.5
 21
-3.2
  0
LINE
  8
0
 10
-157.5
 20
-3.2
 11
-157.746
 21
-3.18616
  0
LINE
  8
0
 10
-157.746
 20
-21.1862
 11
-157.99
 21
-21.1448
  0
LINE
  8
0
 10
-157.99
 20
-21.1448
 11
-158.227
 21
-21.0765
  0
LINE
  8
0
 10
-158.227
 20
-21.0765
 11
-158.455
 21
-20.9821
  0
LINE
  8
0
 10
-158.455
 20
-20.9821
 11
-158.67
 21
-20.8628
  0
LINE
  8
0
 10
-158.67
 20
-20.8628
 11
-158.872
 21
-20.72
  0
LINE
  8
0
 10
-158.872
 20
-20.72
 11
-159.056
 21
-20.5556
  0
LINE
  8
0
 10
-159.056
 20
-20.5556
 11
-159.22
 21
-20.3717
  0
LINE
  8
0
 10
-159.22
 20
-20.3717
 11
-159.363
 21
-20.1705
  0
LINE
  8
0
 10
-159.363
 20
-20.1705
 11
-159.482
 21
-19.9545
  0
LINE
  8
0
 10
-159.482
 20
-19.9545
 11
-159.577
 21
-19.7266
  0
LINE
  8
0
 10
-159.577
 20
-19.7266
 11
-159.645
 21
-19.4895
  0
LINE
  8
0
 10
-159.645
 20
-19.4895
 11
-159.686
 21
-19.2463
  0
LINE
  8
0
 10
-159.686
 20
-19.2463
 11
-159.7
 21
-19
  0
LINE
  8
0
 10
-159.7
 20
-19
 11
-159.686
 21
-18.7537
  0
LINE
  8
0
 10
-159.686
 20
-18.7537
 11
-159.645
 21
-18.5105
  0
LINE
  8
0
 10
-159.645
 20
-18.5105
 11
-159.577
 21
-18.2734
  0
LINE
  8
0
 10
-159.577
 20
-18.2734
 11
-159.482
 21
-18.0455
  0
LINE
  8
0
 10
-159.482
 20
-18.0455
 11
-159.363
 21
-17.8295
  0
LINE
  8
0
 10
-159.363
 20
-17.8295
 11
-159.22
 21
-17.6283
  0
LINE
  8
0
 10
-159.22
 20
-17.6283
 11
-159.056
 21
-17.4444
  0
LINE
  8
0
 10
-159.056
 20
-17.4444
 11
-158.872
 21
-17.28
  0
LINE
  8
0
 10
-158.872
 20
-17.28
 11
-158.67
 21
-17.1372
  0
LINE
  8
0
 10
-158.67
 20
-17.1372
 11
-158.455
 21
-17.0179
  0
LINE
  8
0
 10
-158.455
 20
-17.0179
 11
-158.227
 21
-16.9234
  0
LINE
  8
0
 10
-158.227
 20
-16.9234
 11
-157.99
 21
-16.8551
  0
LINE
  8
0
 10
-157.99
 20
-16.8551
 11
-157.746
 21
-16.8138
  0
LINE
  8
0
 10
-157.746
 20
-16.8138
 11
-157.5
 21
-16.8
  0
LINE
  8
0
 10
-157.5
 20
-16.8
 11
-157.254
 21
-16.8138
  0
LINE
  8
0
 10
-157.254
 20
-16.8138
 11
-157.01
 21
-16.8551
  0
LINE
  8
0
 10
-157.01
 20
-16.8551
 11
-156.773
 21
-16.9234
  0
LINE
  8
0
 10
-156.773
 20
-16.9234
 11
-156.545
 21
-17.0179
  0
LINE
  8
0
 10
-156.545
 20
-17.0179
 11
-156.33
 21
-17.1372
  0
LINE
  8
0
 10
-156.33
 20
-17.1372
 11
-156.128
 21
-17.28
  0
LINE
  8
0
 10
-156.128
 20
-17.28
 11
-155.944
 21
-17.4444
  0
LINE
  8
0
 10
-155.944
 20
-17.4444
 11
-155.78
 21
-17.6283
  0
LINE
  8
0
 10
-155.78
 20
-17.6283
 11
-155.637
 21
-17.8295
  0
LINE
  8
0
 10
-155.637
 20
-17.8295
 11
-155.518
 21
-18.0455
  0
LINE
  8
0
 10
-155.518
 20
-18.0455
 11
-155.423
 21
-18.2734
  0
LINE
  8
0
 10
-155.423
 20
-18.2734
 11
-155.355
 21
-18.5105
  0
LINE
  8
0
 10
-155.355
 20
-18.5105
 11
-155.314
 21
-18.7537
  0
LINE
  8
0
 10
-155.314
 20
-18.7537
 11
-155.3
 21
-19
  0
LINE
  8
0
 10
-155.3
 20
-19
 11
-155.314
 21
-19.2463
  0
LINE
  8
0
 10
-155.314
 20
-19.2463
 11
-155.355
 21
-19.4895
  0
LINE
  8
0
 10
-155.355
 20
-19.4895
 11
-155.423
 21
-19.7266
  0
LINE
  8
0
 10
-155.423
 20
-19.7266
 11
-155.518
 21
-19.9545
  0
LINE
  8
0
 10
-155.518
 20
-19.9545
 11
-155.637
 21
-20.1705
  0
LINE
  8
0
 10
-155.637
 20
-20.1705
 11
-155.78
 21
-20.3717
  0
LINE
  8
0
 10
-155.78
 20
-20.3717
 11
-155.944
 21
-20.5556
  0
LINE
  8
0
 10
-155.944
 20
-20.5556
 11
-156.128
 21
-20.72
  0
LINE
  8
0
 10
-156.128
 20
-20.72
 11
-156.33
 21
-20.8628
  0
LINE
  8
0
 10
-156.33
 20
-20.8628
 11
-156.545
 21
-20.9821
  0
LINE
  8
0
 10
-156.545
 20
-20.9821
 11
-156.773
 21
-21.0765
  0
LINE
  8
0
 10
-156.773
 20
-21.0765
 11
-157.01
 21
-21.1448
  0
LINE
  8
0
 10
-157.01
 20
-21.1448
 11
-157.254
 21
-21.1862
  0
LINE
  8
0
 10
-157.254
 20
-21.1862
 11
-157.5
 21
-21.2
  0
LINE
  8
0
 10
-157.5
 20
-21.2
 11
-157.746
 21
-21.1862
  0
LINE
  8
0
 10
-42.7463
 20
-21.1862
 11
-42.9895
 21
-21.1448
  0
LINE
  8
0
 10
-42.9895
 20
-21.1448
 11
-43.2266
 21
-21.0765
  0
LINE
  8
0
 10
-43.2266
 20
-21.0765
 11
-43.4545
 21
-20.9821
  0
LINE
  8
0
 10
-43.4545
 20
-20.9821
 11
-43.6705
 21
-20.8628
  0
LINE
  8
0
 10
-43.6705
 20
-20.8628
 11
-43.8717
 21
-20.72
  0
LINE
  8
0
 10
-43.8717
 20
-20.72
 11
-44.0556
 21
-20.5556
  0
LINE
  8
0
 10
-44.0556
 20
-20.5556
 11
-44.22
 21
-20.3717
  0
LINE
  8
0
 10
-44.22
 20
-20.3717
 11
-44.3628
 21
-20.1705
  0
LINE
  8
0
 10
-44.3628
 20
-20.1705
 11
-44.4821
 21
-19.9545
  0
LINE
  8
0
 10
-44.4821
 20
-19.9545
 11
-44.5765
 21
-19.7266
  0
LINE
  8
0
 10
-44.5765
 20
-19.7266
 11
-44.6448
 21
-19.4895
  0
LINE
  8
0
 10
-44.6448
 20
-19.4895
 11
-44.6862
 21
-19.2463
  0
LINE
  8
0
 10
-44.6862
 20
-19.2463
 11
-44.7
 21
-19
  0
LINE
  8
0
 10
-44.7
 20
-19
 11
-44.6862
 21
-18.7537
  0
LINE
  8
0
 10
-44.6862
 20
-18.7537
 11
-44.6448
 21
-18.5105
  0
LINE
  8
0
 10
-44.6448
 20
-18.5105
 11
-44.5765
 21
-18.2734
  0
LINE
  8
0
 10
-44.5765
 20
-18.2734
 11
-44.4821
 21
-18.0455
  0
LINE
  8
0
 10
-44.4821
 20
-18.0455
 11
-44.3628
 21
-17.8295
  0
LINE
  8
0
 10
-44.3628
 20
-17.8295
 11
-44.22
 21
-17.6283
  0
LINE
  8
0
 10
-44.22
 20
-17.6283
 11
-44.0556
 21
-17.4444
  0
LINE
  8
0
 10
-44.0556
 20
-17.4444
 11
-43.8717
 21
-17.28
  0
LINE
  8
0
 10
-43.8717
 20
-17.28
 11
-43.6705
 21
-17.1372
  0
LINE
  8
0
 10
-43.6705
 20
-17.1372
 11
-43.4545
 21
-17.0179
  0
LINE
  8
0
 10
-43.4545
 20
-17.0179
 11
-43.2266
 21
-16.9234
  0
LINE
  8
0
 10
-43.2266
 20
-16.9234
 11
-42.9895
 21
-16.8551
  0
LINE
  8
0
 10
-42.9895
 20
-16.8551
 11
-42.7463
 21
-16.8138
  0
LINE
  8
0
 10
-42.7463
 20
-16.8138
 11
-42.5
 21
-16.8
  0
LINE
  8
0
 10
-42.5
 20
-16.8
 11
-42.2537
 21
-16.8138
  0
LINE
  8
0
 10
-42.2537
 20
-16.8138
 11
-42.0105
 21
-16.8551
  0
LINE
  8
0
 10
-42.0105
 20
-16.8551
 11
-41.7734
 21
-16.9234
  0
LINE
  8
0
 10
-41.7734
 20
-16.9234
 11
-41.5455
 21
-17.0179
  0
LINE
  8
0
 10
-41.5455
 20
-17.0179
 11
-41.3295
 21
-17.1372
  0
LINE
  8
0
 10
-41.3295
 20
-17.1372
 11
-41.1283
 21
-17.28
  0
LINE
  8
0
 10
-41.1283
 20
-17.28
 11
-40.9444
 21
-17.4444
  0
LINE
  8
0
 10
-40.9444
 20
-17.4444
 11
-40.78
 21
-17.6283
  0
LINE
  8
0
 10
-40.78
 20
-17.6283
 11
-40.6372
 21
-17.8295
  0
LINE
  8
0
 10
-40.6372
 20
-17.8295
 11
-40.5179
 21
-18.0455
  0
LINE
  8
0
 10
-40.5179
 20
-18.0455
 11
-40.4234
 21
-18.2734
  0
LINE
  8
0
 10
-40.4234
 20
-18.2734
 11
-40.3551
 21
-18.5105
  0
LINE
  8
0
 10
-40.3551
 20
-18.5105
 11
-40.3138
 21
-18.7537
  0
LINE
  8
0
 10
-40.3138
 20
-18.7537
 11
-40.3
 21
-19
  0
LINE
  8
0
 10
-40.3
 20
-19
 11
-40.3138
 21
-19.2463
  0
LINE
  8
0
 10
-40.3138
 20
-19.2463
 11
-40.3551
 21
-19.4895
  0
LINE
  8
0
 10
-40.3551
 20
-19.4895
 11
-40.4234
 21
-19.7266
  0
LINE
  8
0
 10
-40.4234
 20
-19.7266
 11
-40.5179
 21
-19.9545
  0
LINE
  8
0
 10
-40.5179
 20
-19.9545
 11
-40.6372
 21
-20.1705
  0
LINE
  8
0
 10
-40.6372
 20
-20.1705
 11
-40.78
 21
-20.3717
  0
LINE
  8
0
 10
-40.78
 20
-20.3717
 11
-40.9444
 21
-20.5556
  0
LINE
  8
0
 10
-40.9444
 20
-20.5556
 11
-41.1283
 21
-20.72
  0
LINE
  8
0
 10
-41.1283
 20
-20.72
 11
-41.3295
 21
-20.8628
  0
LINE
  8
0
 10
-41.3295
 20
-20.8628
 11
-41.5455
 21
-20.9821
  0
LINE
  8
0
 10
-41.5455
 20
-20.9821
 11
-41.7734
 21
-21.0765
  0
LINE
  8
0
 10
-41.7734
 20
-21.0765
 11
-42.0105
 21
-21.1448
  0
LINE
  8
0
 10
-42.0105
 20
-21.1448
 11
-42.2537
 21
-21.1862
  0
LINE
  8
0
 10
-42.2537
 20
-21.1862
 11
-42.5
 21
-21.2
  0
LINE
  8
0
 10
-42.5
 20
-21.2
 11
-42.7463
 21
-21.1862
  0
LINE
  8
0
 10
-157.746
 20
-35.1862
 11
-157.99
 21
-35.1448
  0
LINE
  8
0
 10
-157.99
 20
-35.1448
 11
-158.227
 21
-35.0765
  0
LINE
  8
0
 10
-158.227
 20
-35.0765
 11
-158.455
 21
-34.9821
  0
LINE
  8
0
 10
-158.455
 20
-34.9821
 11
-158.67
 21
-34.8628
  0
LINE
  8
0
 10
-158.67
 20
-34.8628
 11
-158.872
 21
-34.72
  0
LINE
  8
0
 10
-158.872
 20
-34.72
 11
-159.056
 21
-34.5556
  0
LINE
  8
0
 10
-159.056
 20
-34.5556
 11
-159.22
 21
-34.3717
  0
LINE
  8
0
 10
-159.22
 20
-34.3717
 11
-159.363
 21
-34.1705
  0
LINE
  8
0
 10
-159.363
 20
-34.1705
 11
-159.482
 21
-33.9545
  0
LINE
  8
0
 10
-159.482
 20
-33.9545
 11
-159.577
 21
-33.7266
  0
LINE
  8
0
 10
-159.577
 20
-33.7266
 11
-159.645
 21
-33.4895
  0
LINE
  8
0
 10
-159.645
 20
-33.4895
 11
-159.686
 21
-33.2463
  0
LINE
  8
0
 10
-159.686
 20
-33.2463
 11
-159.7
 21
-33
  0
LINE
  8
0
 10
-159.7
 20
-33
 11
-159.686
 21
-32.7537
  0
LINE
  8
0
 10
-159.686
 20
-32.7537
 11
-159.645
 21
-32.5105
  0
LINE
  8
0
 10
-159.645
 20
-32.5105
 11
-159.577
 21
-32.2734
  0
LINE
  8
0
 10
-159.577
 20
-32.2734
 11
-159.482
 21
-32.0455
  0
LINE
  8
0
 10
-159.482
 20
-32.0455
 11
-159.363
 21
-31.8295
  0
LINE
  8
0
 10
-159.363
 20
-31.8295
 11
-159.22
 21
-31.6283
  0
LINE
  8
0
 10
-159.22
 20
-31.6283
 11
-159.056
 21
-31.4444
  0
LINE
  8
0
 10
-159.056
 20
-31.4444
 11
-158.872
 21
-31.28
  0
LINE
  8
0
 10
-158.872
 20
-31.28
 11
-158.67
 21
-31.1372
  0
LINE
  8
0
 10
-158.67
 20
-31.1372
 11
-158.455
 21
-31.0179
  0
LINE
  8
0
 10
-158.455
 20
-31.0179
 11
-158.227
 21
-30.9234
  0
LINE
  8
0
 10
-158.227
 20
-30.9234
 11
-157.99
 21
-30.8551
  0
LINE
  8
0
 10
-157.99
 20
-30.8551
 11
-157.746
 21
-30.8138
  0
LINE
  8
0
 10
-157.746
 20
-30.8138
 11
-157.5
 21
-30.8
  0
LINE
  8
0
 10
-157.5
 20
-30.8
 11
-157.254
 21
-30.8138
  0
LINE
  8
0
 10
-157.254
 20
-30.8138
 11
-157.01
 21
-30.8551
  0
LINE
  8
0
 10
-157.01
 20
-30.8551
 11
-156.773
 21
-30.9234
  0
LINE
  8
0
 10
-156.773
 20
-30.9234
 11
-156.545
 21
-31.0179
  0
LINE
  8
0
 10
-156.545
 20
-31.0179
 11
-156.33
 21
-31.1372
  0
LINE
  8
0
 10
-156.33
 20
-31.1372
 11
-156.128
 21
-31.28
  0
LINE
  8
0
 10
-156.128
 20
-31.28
 11
-155.944
 21
-31.4444
  0
LINE
  8
0
 10
-155.944
 20
-31.4444
 11
-155.78
 21
-31.6283
  0
LINE
  8
0
 10
-155.78
 20
-31.6283
 11
-155.637
 21
-31.8295
  0
LINE
  8
0
 10
-155.637
 20
-31.8295
 11
-155.518
 21
-32.0455
  0
LINE
  8
0
 10
-155.518
 20
-32.0455
 11
-155.423
 21
-32.2734
  0
LINE
  8
0
 10
-155.423
 20
-32.2734
 11
-155.355
 21
-32.5105
  0
LINE
  8
0
 10
-155.355
 20
-32.5105
 11
-155.314
 21
-32.7537
  0
LINE
  8
0
 10
-155.314
 20
-32.7537
 11
-155.3
 21
-33
  0
LINE
  8
0
 10
-155.3
 20
-33
 11
-155.314
 21
-33.2463
  0
LINE
  8
0
 10
-155.314
 20
-33.2463
 11
-155.355
 21
-33.4895
  0
LINE
  8
0
 10
-155.355
 20
-33.4895
 11
-155.423
 21
-33.7266
  0
LINE
  8
0
 10
-155.423
 20
-33.7266
 11
-155.518
 21
-33.9545
  0
LINE
  8
0
 10
-155.518
 20
-33.9545
 11
-155.637
 21
-34.1705
  0
LINE
  8
0
 10
-155.637
 20
-34.1705
 11
-155.78
 21
-34.3717
  0
LINE
  8
0
 10
-155.78
 20
-34.3717
 11
-155.944
 21
-34.5556
  0
LINE
  8
0
 10
-155.944
 20
-34.5556
 11
-156.128
 21
-34.72
  0
LINE
  8
0
 10
-156.128
 20
-34.72
 11
-156.33
 21
-34.8628
  0
LINE
  8
0
 10
-156.33
 20
-34.8628
 11
-156.545
 21
-34.9821
  0
LINE
  8
0
 10
-156.545
 20
-34.9821
 11
-156.773
 21
-35.0765
  0
LINE
  8
0
 10
-156.773
 20
-35.0765
 11
-157.01
 21
-35.1448
  0
LINE
  8
0
 10
-157.01
 20
-35.1448
 11
-157.254
 21
-35.1862
  0
LINE
  8
0
 10
-157.254
 20
-35.1862
 11
-157.5
 21
-35.2
  0
LINE
  8
0
 10
-157.5
 20
-35.2
 11
-157.746
 21
-35.1862
  0
LINE
  8
0
 10
-27.7463
 20
-35.1862
 11
-27.9895
 21
-35.1448
  0
LINE
  8
0
 10
-27.9895
 20
-35.1448
 11
-28.2266
 21
-35.0765
  0
LINE
  8
0
 10
-28.2266
 20
-35.0765
 11
-28.4545
 21
-34.9821
  0
LINE
  8
0
 10
-28.4545
 20
-34.9821
 11
-28.6705
 21
-34.8628
  0
LINE
  8
0
 10
-28.6705
 20
-34.8628
 11
-28.8717
 21
-34.72
  0
LINE
  8
0
 10
-28.8717
 20
-34.72
 11
-29.0556
 21
-34.5556
  0
LINE
  8
0
 10
-29.0556
 20
-34.5556
 11
-29.22
 21
-34.3717
  0
LINE
  8
0
 10
-29.22
 20
-34.3717
 11
-29.3628
 21
-34.1705
  0
LINE
  8
0
 10
-29.3628
 20
-34.1705
 11
-29.4821
 21
-33.9545
  0
LINE
  8
0
 10
-29.4821
 20
-33.9545
 11
-29.5765
 21
-33.7266
  0
LINE
  8
0
 10
-29.5765
 20
-33.7266
 11
-29.6448
 21
-33.4895
  0
LINE
  8
0
 10
-29.6448
 20
-33.4895
 11
-29.6862
 21
-33.2463
  0
LINE
  8
0
 10
-29.6862
 20
-33.2463
 11
-29.7
 21
-33
  0
LINE
  8
0
 10
-29.7
 20
-33
 11
-29.6862
 21
-32.7537
  0
LINE
  8
0
 10
-29.6862
 20
-32.7537
 11
-29.6448
 21
-32.5105
  0
LINE
  8
0
 10
-29.6448
 20
-32.5105
 11
-29.5765
 21
-32.2734
  0
LINE
  8
0
 10
-29.5765
 20
-32.2734
 11
-29.4821
 21
-32.0455
  0
LINE
  8
0
 10
-29.4821
 20
-32.0455
 11
-29.3628
 21
-31.8295
  0
LINE
  8
0
 10
-29.3628
 20
-31.8295
 11
-29.22
 21
-31.6283
  0
LINE
  8
0
 10
-29.22
 20
-31.6283
 11
-29.0556
 21
-31.4444
  0
LINE
  8
0
 10
-29.0556
 20
-31.4444
 11
-28.8717
 21
-31.28
  0
LINE
  8
0
 10
-28.8717
 20
-31.28
 11
-28.6705
 21
-31.1372
  0
LINE
  8
0
 10
-28.6705
 20
-31.1372
 11
-28.4545
 21
-31.0179
  0
LINE
  8
0
 10
-28.4545
 20
-31.0179
 11
-28.2266
 21
-30.9234
  0
LINE
  8
0
 10
-28.2266
 20
-30.9234
 11
-27.9895
 21
-30.8551
  0
LINE
  8
0
 10
-27.9895
 20
-30.8551
 11
-27.7463
 21
-30.8138
  0
LINE
  8
0
 10
-27.7463
 20
-30.8138
 11
-27.5
 21
-30.8
  0
LINE
  8
0
 10
-27.5
 20
-30.8
 11
-27.2537
 21
-30.8138
  0
LINE
  8
0
 10
-27.2537
 20
-30.8138
 11
-27.0105
 21
-30.8551
  0
LINE
  8
0
 10
-27.0105
 20
-30.8551
 11
-26.7734
 21
-30.9234
  0
LINE
  8
0
 10
-26.7734
 20
-30.9234
 11
-26.5455
 21
-31.0179
  0
LINE
  8
0
 10
-26.5455
 20
-31.0179
 11
-26.3295
 21
-31.1372
  0
LINE
  8
0
 10
-26.3295
 20
-31.1372
 11
-26.1283
 21
-31.28
  0
LINE
  8
0
 10
-26.1283
 20
-31.28
 11
-25.9444
 21
-31.4444
  0
LINE
  8
0
 10
-25.9444
 20
-31.4444
 11
-25.78
 21
-31.6283
  0
LINE
  8
0
 10
-25.78
 20
-31.6283
 11
-25.6372
 21
-31.8295
  0
LINE
  8
0
 10
-25.6372
 20
-31.8295
 11
-25.5179
 21
-32.0455
  0
LINE
  8
0
 10
-25.5179
 20
-32.0455
 11
-25.4234
 21
-32.2734
  0
LINE
  8
0
 10
-25.4234
 20
-32.2734
 11
-25.3551
 21
-32.5105
  0
LINE
  8
0
 10
-25.3551
 20
-32.5105
 11
-25.3138
 21
-32.7537
  0
LINE
  8
0
 10
-25.3138
 20
-32.7537
 11
-25.3
 21
-33
  0
LINE
  8
0
 10
-25.3
 20
-33
 11
-25.3138
 21
-33.2463
  0
LINE
  8
0
 10
-25.3138
 20
-33.2463
 11
-25.3551
 21
-33.4895
  0
LINE
  8
0
 10
-25.3551
 20
-33.4895
 11
-25.4234
 21
-33.7266
  0
LINE
  8
0
 10
-25.4234
 20
-33.7266
 11
-25.5179
 21
-33.9545
  0
LINE
  8
0
 10
-25.5179
 20
-33.9545
 11
-25.6372
 21
-34.1705
  0
LINE
  8
0
 10
-25.6372
 20
-34.1705
 11
-25.78
 21
-34.3717
  0
LINE
  8
0
 10
-25.78
 20
-34.3717
 11
-25.9444
 21
-34.5556
  0
LINE
  8
0
 10
-25.9444
 20
-34.5556
 11
-26.1283
 21
-34.72
  0
LINE
  8
0
 10
-26.1283
 20
-34.72
 11
-26.3295
 21
-34.8628
  0
LINE
  8
0
 10
-26.3295
 20
-34.8628
 11
-26.5455
 21
-34.9821
  0
LINE
  8
0
 10
-26.5455
 20
-34.9821
 11
-26.7734
 21
-35.0765
  0
LINE
  8
0
 10
-26.7734
 20
-35.0765
 11
-27.0105
 21
-35.1448
  0
LINE
  8
0
 10
-27.0105
 20
-35.1448
 11
-27.2537
 21
-35.1862
  0
LINE
  8
0
 10
-27.2537
 20
-35.1862
 11
-27.5
 21
-35.2
  0
LINE
  8
0
 10
-27.5
 20
-35.2
 11
-27.7463
 21
-35.1862
  0
LINE
  8
0
 10
219.691
 20
-47.7431
 11
219.451
 21
-47.6804
  0
LINE
  8
0
 10
219.451
 20
-47.6804
 11
219.223
 21
-47.5833
  0
LINE
  8
0
 10
219.223
 20
-47.5833
 11
219.011
 21
-47.454
  0
LINE
  8
0
 10
219.011
 20
-47.454
 11
218.82
 21
-47.2953
  0
LINE
  8
0
 10
218.82
 20
-47.2953
 11
218.654
 21
-47.1104
  0
LINE
  8
0
 10
218.654
 20
-47.1104
 11
218.518
 21
-46.9034
  0
LINE
  8
0
 10
218.518
 20
-46.9034
 11
218.412
 21
-46.6787
  0
LINE
  8
0
 10
218.412
 20
-46.6787
 11
218.341
 21
-46.4411
  0
LINE
  8
0
 10
218.341
 20
-46.4411
 11
218.305
 21
-46.1955
  0
LINE
  8
0
 10
218.305
 20
-46.1955
 11
218.305
 21
-45.9473
  0
LINE
  8
0
 10
218.305
 20
-45.9473
 11
218.341
 21
-45.7018
  0
LINE
  8
0
 10
218.341
 20
-45.7018
 11
218.412
 21
-45.4641
  0
LINE
  8
0
 10
218.412
 20
-45.4641
 11
218.518
 21
-45.2394
  0
LINE
  8
0
 10
218.518
 20
-45.2394
 11
218.654
 21
-45.0324
  0
LINE
  8
0
 10
218.654
 20
-45.0324
 11
218.82
 21
-44.8476
  0
LINE
  8
0
 10
218.82
 20
-44.8476
 11
219.011
 21
-44.6888
  0
LINE
  8
0
 10
219.011
 20
-44.6888
 11
219.223
 21
-44.5595
  0
LINE
  8
0
 10
219.223
 20
-44.5595
 11
219.451
 21
-44.4625
  0
LINE
  8
0
 10
219.451
 20
-44.4625
 11
219.691
 21
-44.3997
  0
LINE
  8
0
 10
219.691
 20
-44.3997
 11
219.938
 21
-44.3726
  0
LINE
  8
0
 10
219.938
 20
-44.3726
 11
220.186
 21
-44.3816
  0
LINE
  8
0
 10
220.186
 20
-44.3816
 11
220.43
 21
-44.4267
  0
LINE
  8
0
 10
220.43
 20
-44.4267
 11
220.665
 21
-44.5068
  0
LINE
  8
0
 10
220.665
 20
-44.5068
 11
220.886
 21
-44.6203
  0
LINE
  8
0
 10
220.886
 20
-44.6203
 11
221.087
 21
-44.7647
  0
LINE
  8
0
 10
221.087
 20
-44.7647
 11
221.266
 21
-44.937
  0
LINE
  8
0
 10
221.266
 20
-44.937
 11
221.418
 21
-45.1334
  0
LINE
  8
0
 10
221.418
 20
-45.1334
 11
221.539
 21
-45.3499
  0
LINE
  8
0
 10
221.539
 20
-45.3499
 11
221.628
 21
-45.5816
  0
LINE
  8
0
 10
221.628
 20
-45.5816
 11
221.682
 21
-45.8239
  0
LINE
  8
0
 10
221.682
 20
-45.8239
 11
221.7
 21
-46.0714
  0
LINE
  8
0
 10
221.7
 20
-46.0714
 11
221.682
 21
-46.3189
  0
LINE
  8
0
 10
221.682
 20
-46.3189
 11
221.628
 21
-46.5612
  0
LINE
  8
0
 10
221.628
 20
-46.5612
 11
221.539
 21
-46.793
  0
LINE
  8
0
 10
221.539
 20
-46.793
 11
221.418
 21
-47.0094
  0
LINE
  8
0
 10
221.418
 20
-47.0094
 11
221.266
 21
-47.2059
  0
LINE
  8
0
 10
221.266
 20
-47.2059
 11
221.087
 21
-47.3781
  0
LINE
  8
0
 10
221.087
 20
-47.3781
 11
220.886
 21
-47.5225
  0
LINE
  8
0
 10
220.886
 20
-47.5225
 11
220.665
 21
-47.636
  0
LINE
  8
0
 10
220.665
 20
-47.636
 11
220.43
 21
-47.7161
  0
LINE
  8
0
 10
220.43
 20
-47.7161
 11
220.186
 21
-47.7612
  0
LINE
  8
0
 10
220.186
 20
-47.7612
 11
219.938
 21
-47.7703
  0
LINE
  8
0
 10
219.938
 20
-47.7703
 11
219.691
 21
-47.7431
  0
LINE
  8
0
 10
-220.186
 20
-47.7612
 11
-220.43
 21
-47.7161
  0
LINE
  8
0
 10
-220.43
 20
-47.7161
 11
-220.665
 21
-47.636
  0
LINE
  8
0
 10
-220.665
 20
-47.636
 11
-220.886
 21
-47.5225
  0
LINE
  8
0
 10
-220.886
 20
-47.5225
 11
-221.087
 21
-47.3781
  0
LINE
  8
0
 10
-221.087
 20
-47.3781
 11
-221.266
 21
-47.2059
  0
LINE
  8
0
 10
-221.266
 20
-47.2059
 11
-221.418
 21
-47.0094
  0
LINE
  8
0
 10
-221.418
 20
-47.0094
 11
-221.539
 21
-46.793
  0
LINE
  8
0
 10
-221.539
 20
-46.793
 11
-221.628
 21
-46.5612
  0
LINE
  8
0
 10
-221.628
 20
-46.5612
 11
-221.682
 21
-46.3189
  0
LINE
  8
0
 10
-221.682
 20
-46.3189
 11
-221.7
 21
-46.0714
  0
LINE
  8
0
 10
-221.7
 20
-46.0714
 11
-221.682
 21
-45.8239
  0
LINE
  8
0
 10
-221.682
 20
-45.8239
 11
-221.628
 21
-45.5816
  0
LINE
  8
0
 10
-221.628
 20
-45.5816
 11
-221.539
 21
-45.3499
  0
LINE
  8
0
 10
-221.539
 20
-45.3499
 11
-221.418
 21
-45.1334
  0
LINE
  8
0
 10
-221.418
 20
-45.1334
 11
-221.266
 21
-44.937
  0
LINE
  8
0
 10
-221.266
 20
-44.937
 11
-221.087
 21
-44.7647
  0
LINE
  8
0
 10
-221.087
 20
-44.7647
 11
-220.886
 21
-44.6203
  0
LINE
  8
0
 10
-220.886
 20
-44.6203
 11
-220.665
 21
-44.5068
  0
LINE
  8
0
 10
-220.665
 20
-44.5068
 11
-220.43
 21
-44.4267
  0
LINE
  8
0
 10
-220.43
 20
-44.4267
 11
-220.186
 21
-44.3816
  0
LINE
  8
0
 10
-220.186
 20
-44.3816
 11
-219.938
 21
-44.3726
  0
LINE
  8
0
 10
-219.938
 20
-44.3726
 11
-219.691
 21
-44.3997
  0
LINE
  8
0
 10
-219.691
 20
-44.3997
 11
-219.451
 21
-44.4625
  0
LINE
  8
0
 10
-219.451
 20
-44.4625
 11
-219.223
 21
-44.5595
  0
LINE
  8
0
 10
-219.223
 20
-44.5595
 11
-219.011
 21
-44.6888
  0
LINE
  8
0
 10
-219.011
 20
-44.6888
 11
-218.82
 21
-44.8476
  0
LINE
  8
0
 10
-218.82
 20
-44.8476
 11
-218.654
 21
-45.0324
  0
LINE
  8
0
 10
-218.654
 20
-45.0324
 11
-218.518
 21
-45.2394
  0
LINE
  8
0
 10
-218.518
 20
-45.2394
 11
-218.412
 21
-45.4641
  0
LINE
  8
0
 10
-218.412
 20
-45.4641
 11
-218.341
 21
-45.7018
  0
LINE
  8
0
 10
-218.341
 20
-45.7018
 11
-218.305
 21
-45.9473
  0
LINE
  8
0
 10
-218.305
 20
-45.9473
 11
-218.305
 21
-46.1955
  0
LINE
  8
0
 10
-218.305
 20
-46.1955
 11
-218.341
 21
-46.4411
  0
LINE
  8
0
 10
-218.341
 20
-46.4411
 11
-218.412
 21
-46.6787
  0
LINE
  8
0
 10
-218.412
 20
-46.6787
 11
-218.518
 21
-46.9034
  0
LINE
  8
0
 10
-218.518
 20
-46.9034
 11
-218.654
 21
-47.1104
  0
LINE
  8
0
 10
-218.654
 20
-47.1104
 11
-218.82
 21
-47.2953
  0
LINE
  8
0
 10
-218.82
 20
-47.2953
 11
-219.011
 21
-47.454
  0
LINE
  8
0
 10
-219.011
 20
-47.454
 11
-219.223
 21
-47.5833
  0
LINE
  8
0
 10
-219.223
 20
-47.5833
 11
-219.451
 21
-47.6804
  0
LINE
  8
0
 10
-219.451
 20
-47.6804
 11
-219.691
 21
-47.7431
  0
LINE
  8
0
 10
-219.691
 20
-47.7431
 11
-219.938
 21
-47.7703
  0
LINE
  8
0
 10
-219.938
 20
-47.7703
 11
-220.186
 21
-47.7612
  0
LINE
  8
0
 10
-118.246
 20
-57.6862
 11
-118.49
 21
-57.6448
  0
LINE
  8
0
 10
-118.49
 20
-57.6448
 11
-118.727
 21
-57.5765
  0
LINE
  8
0
 10
-118.727
 20
-57.5765
 11
-118.955
 21
-57.4821
  0
LINE
  8
0
 10
-118.955
 20
-57.4821
 11
-119.17
 21
-57.3628
  0
LINE
  8
0
 10
-119.17
 20
-57.3628
 11
-119.372
 21
-57.22
  0
LINE
  8
0
 10
-119.372
 20
-57.22
 11
-119.556
 21
-57.0556
  0
LINE
  8
0
 10
-119.556
 20
-57.0556
 11
-119.72
 21
-56.8717
  0
LINE
  8
0
 10
-119.72
 20
-56.8717
 11
-119.863
 21
-56.6705
  0
LINE
  8
0
 10
-119.863
 20
-56.6705
 11
-119.982
 21
-56.4545
  0
LINE
  8
0
 10
-119.982
 20
-56.4545
 11
-120.077
 21
-56.2266
  0
LINE
  8
0
 10
-120.077
 20
-56.2266
 11
-120.145
 21
-55.9895
  0
LINE
  8
0
 10
-120.145
 20
-55.9895
 11
-120.186
 21
-55.7463
  0
LINE
  8
0
 10
-120.186
 20
-55.7463
 11
-120.2
 21
-55.5
  0
LINE
  8
0
 10
-120.2
 20
-55.5
 11
-120.186
 21
-55.2537
  0
LINE
  8
0
 10
-120.186
 20
-55.2537
 11
-120.145
 21
-55.0105
  0
LINE
  8
0
 10
-120.145
 20
-55.0105
 11
-120.077
 21
-54.7734
  0
LINE
  8
0
 10
-120.077
 20
-54.7734
 11
-119.982
 21
-54.5455
  0
LINE
  8
0
 10
-119.982
 20
-54.5455
 11
-119.863
 21
-54.3295
  0
LINE
  8
0
 10
-119.863
 20
-54.3295
 11
-119.72
 21
-54.1283
  0
LINE
  8
0
 10
-119.72
 20
-54.1283
 11
-119.556
 21
-53.9444
  0
LINE
  8
0
 10
-119.556
 20
-53.9444
 11
-119.372
 21
-53.78
  0
LINE
  8
0
 10
-119.372
 20
-53.78
 11
-119.17
 21
-53.6372
  0
LINE
  8
0
 10
-119.17
 20
-53.6372
 11
-118.955
 21
-53.5179
  0
LINE
  8
0
 10
-118.955
 20
-53.5179
 11
-118.727
 21
-53.4234
  0
LINE
  8
0
 10
-118.727
 20
-53.4234
 11
-118.49
 21
-53.3551
  0
LINE
  8
0
 10
-118.49
 20
-53.3551
 11
-118.246
 21
-53.3138
  0
LINE
  8
0
 10
-118.246
 20
-53.3138
 11
-118
 21
-53.3
  0
LINE
  8
0
 10
-118
 20
-53.3
 11
-117.754
 21
-53.3138
  0
LINE
  8
0
 10
-117.754
 20
-53.3138
 11
-117.51
 21
-53.3551
  0
LINE
  8
0
 10
-117.51
 20
-53.3551
 11
-117.273
 21
-53.4234
  0
LINE
  8
0
 10
-117.273
 20
-53.4234
 11
-117.045
 21
-53.5179
  0
LINE
  8
0
 10
-117.045
 20
-53.5179
 11
-116.83
 21
-53.6372
  0
LINE
  8
0
 10
-116.83
 20
-53.6372
 11
-116.628
 21
-53.78
  0
LINE
  8
0
 10
-116.628
 20
-53.78
 11
-116.444
 21
-53.9444
  0
LINE
  8
0
 10
-116.444
 20
-53.9444
 11
-116.28
 21
-54.1283
  0
LINE
  8
0
 10
-116.28
 20
-54.1283
 11
-116.137
 21
-54.3295
  0
LINE
  8
0
 10
-116.137
 20
-54.3295
 11
-116.018
 21
-54.5455
  0
LINE
  8
0
 10
-116.018
 20
-54.5455
 11
-115.923
 21
-54.7734
  0
LINE
  8
0
 10
-115.923
 20
-54.7734
 11
-115.855
 21
-55.0105
  0
LINE
  8
0
 10
-115.855
 20
-55.0105
 11
-115.814
 21
-55.2537
  0
LINE
  8
0
 10
-115.814
 20
-55.2537
 11
-115.8
 21
-55.5
  0
LINE
  8
0
 10
-115.8
 20
-55.5
 11
-115.814
 21
-55.7463
  0
LINE
  8
0
 10
-115.814
 20
-55.7463
 11
-115.855
 21
-55.9895
  0
LINE
  8
0
 10
-115.855
 20
-55.9895
 11
-115.923
 21
-56.2266
  0
LINE
  8
0
 10
-115.923
 20
-56.2266
 11
-116.018
 21
-56.4545
  0
LINE
  8
0
 10
-116.018
 20
-56.4545
 11
-116.137
 21
-56.6705
  0
LINE
  8
0
 10
-116.137
 20
-56.6705
 11
-116.28
 21
-56.8717
  0
LINE
  8
0
 10
-116.28
 20
-56.8717
 11
-116.444
 21
-57.0556
  0
LINE
  8
0
 10
-116.444
 20
-57.0556
 11
-116.628
 21
-57.22
  0
LINE
  8
0
 10
-116.628
 20
-57.22
 11
-116.83
 21
-57.3628
  0
LINE
  8
0
 10
-116.83
 20
-57.3628
 11
-117.045
 21
-57.4821
  0
LINE
  8
0
 10
-117.045
 20
-57.4821
 11
-117.273
 21
-57.5765
  0
LINE
  8
0
 10
-117.273
 20
-57.5765
 11
-117.51
 21
-57.6448
  0
LINE
  8
0
 10
-117.51
 20
-57.6448
 11
-117.754
 21
-57.6862
  0
LINE
  8
0
 10
-117.754
 20
-57.6862
 11
-118
 21
-57.7
  0
LINE
  8
0
 10
-118
 20
-57.7
 11
-118.246
 21
-57.6862
  0
LINE
  8
0
 10
-27.2463
 20
-57.6862
 11
-27.4895
 21
-57.6448
  0
LINE
  8
0
 10
-27.4895
 20
-57.6448
 11
-27.7266
 21
-57.5765
  0
LINE
  8
0
 10
-27.7266
 20
-57.5765
 11
-27.9545
 21
-57.4821
  0
LINE
  8
0
 10
-27.9545
 20
-57.4821
 11
-28.1705
 21
-57.3628
  0
LINE
  8
0
 10
-28.1705
 20
-57.3628
 11
-28.3717
 21
-57.22
  0
LINE
  8
0
 10
-28.3717
 20
-57.22
 11
-28.5556
 21
-57.0556
  0
LINE
  8
0
 10
-28.5556
 20
-57.0556
 11
-28.72
 21
-56.8717
  0
LINE
  8
0
 10
-28.72
 20
-56.8717
 11
-28.8628
 21
-56.6705
  0
LINE
  8
0
 10
-28.8628
 20
-56.6705
 11
-28.9821
 21
-56.4545
  0
LINE
  8
0
 10
-28.9821
 20
-56.4545
 11
-29.0765
 21
-56.2266
  0
LINE
  8
0
 10
-29.0765
 20
-56.2266
 11
-29.1448
 21
-55.9895
  0
LINE
  8
0
 10
-29.1448
 20
-55.9895
 11
-29.1862
 21
-55.7463
  0
LINE
  8
0
 10
-29.1862
 20
-55.7463
 11
-29.2
 21
-55.5
  0
LINE
  8
0
 10
-29.2
 20
-55.5
 11
-29.1862
 21
-55.2537
  0
LINE
  8
0
 10
-29.1862
 20
-55.2537
 11
-29.1448
 21
-55.0105
  0
LINE
  8
0
 10
-29.1448
 20
-55.0105
 11
-29.0765
 21
-54.7734
  0
LINE
  8
0
 10
-29.0765
 20
-54.7734
 11
-28.9821
 21
-54.5455
  0
LINE
  8
0
 10
-28.9821
 20
-54.5455
 11
-28.8628
 21
-54.3295
  0
LINE
  8
0
 10
-28.8628
 20
-54.3295
 11
-28.72
 21
-54.1283
  0
LINE
  8
0
 10
-28.72
 20
-54.1283
 11
-28.5556
 21
-53.9444
  0
LINE
  8
0
 10
-28.5556
 20
-53.9444
 11
-28.3717
 21
-53.78
  0
LINE
  8
0
 10
-28.3717
 20
-53.78
 11
-28.1705
 21
-53.6372
  0
LINE
  8
0
 10
-28.1705
 20
-53.6372
 11
-27.9545
 21
-53.5179
  0
LINE
  8
0
 10
-27.9545
 20
-53.5179
 11
-27.7266
 21
-53.4234
  0
LINE
  8
0
 10
-27.7266
 20
-53.4234
 11
-27.4895
 21
-53.3551
  0
LINE
  8
0
 10
-27.4895
 20
-53.3551
 11
-27.2463
 21
-53.3138
  0
LINE
  8
0
 10
-27.2463
 20
-53.3138
 11
-27
 21
-53.3
  0
LINE
  8
0
 10
-27
 20
-53.3
 11
-26.7537
 21
-53.3138
  0
LINE
  8
0
 10
-26.7537
 20
-53.3138
 11
-26.5105
 21
-53.3551
  0
LINE
  8
0
 10
-26.5105
 20
-53.3551
 11
-26.2734
 21
-53.4234
  0
LINE
  8
0
 10
-26.2734
 20
-53.4234
 11
-26.0455
 21
-53.5179
  0
LINE
  8
0
 10
-26.0455
 20
-53.5179
 11
-25.8295
 21
-53.6372
  0
LINE
  8
0
 10
-25.8295
 20
-53.6372
 11
-25.6283
 21
-53.78
  0
LINE
  8
0
 10
-25.6283
 20
-53.78
 11
-25.4444
 21
-53.9444
  0
LINE
  8
0
 10
-25.4444
 20
-53.9444
 11
-25.28
 21
-54.1283
  0
LINE
  8
0
 10
-25.28
 20
-54.1283
 11
-25.1372
 21
-54.3295
  0
LINE
  8
0
 10
-25.1372
 20
-54.3295
 11
-25.0179
 21
-54.5455
  0
LINE
  8
0
 10
-25.0179
 20
-54.5455
 11
-24.9234
 21
-54.7734
  0
LINE
  8
0
 10
-24.9234
 20
-54.7734
 11
-24.8551
 21
-55.0105
  0
LINE
  8
0
 10
-24.8551
 20
-55.0105
 11
-24.8138
 21
-55.2537
  0
LINE
  8
0
 10
-24.8138
 20
-55.2537
 11
-24.8
 21
-55.5
  0
LINE
  8
0
 10
-24.8
 20
-55.5
 11
-24.8138
 21
-55.7463
  0
LINE
  8
0
 10
-24.8138
 20
-55.7463
 11
-24.8551
 21
-55.9895
  0
LINE
  8
0
 10
-24.8551
 20
-55.9895
 11
-24.9234
 21
-56.2266
  0
LINE
  8
0
 10
-24.9234
 20
-56.2266
 11
-25.0179
 21
-56.4545
  0
LINE
  8
0
 10
-25.0179
 20
-56.4545
 11
-25.1372
 21
-56.6705
  0
LINE
  8
0
 10
-25.1372
 20
-56.6705
 11
-25.28
 21
-56.8717
  0
LINE
  8
0
 10
-25.28
 20
-56.8717
 11
-25.4444
 21
-57.0556
  0
LINE
  8
0
 10
-25.4444
 20
-57.0556
 11
-25.6283
 21
-57.22
  0
LINE
  8
0
 10
-25.6283
 20
-57.22
 11
-25.8295
 21
-57.3628
  0
LINE
  8
0
 10
-25.8295
 20
-57.3628
 11
-26.0455
 21
-57.4821
  0
LINE
  8
0
 10
-26.0455
 20
-57.4821
 11
-26.2734
 21
-57.5765
  0
LINE
  8
0
 10
-26.2734
 20
-57.5765
 11
-26.5105
 21
-57.6448
  0
LINE
  8
0
 10
-26.5105
 20
-57.6448
 11
-26.7537
 21
-57.6862
  0
LINE
  8
0
 10
-26.7537
 20
-57.6862
 11
-27
 21
-57.7
  0
LINE
  8
0
 10
-27
 20
-57.7
 11
-27.2463
 21
-57.6862
  0
LINE
  8
0
 10
-42.7463
 20
-113.186
 11
-42.9895
 21
-113.145
  0
LINE
  8
0
 10
-42.9895
 20
-113.145
 11
-43.2266
 21
-113.077
  0
LINE
  8
0
 10
-43.2266
 20
-113.077
 11
-43.4545
 21
-112.982
  0
LINE
  8
0
 10
-43.4545
 20
-112.982
 11
-43.6705
 21
-112.863
  0
LINE
  8
0
 10
-43.6705
 20
-112.863
 11
-43.8717
 21
-112.72
  0
LINE
  8
0
 10
-43.8717
 20
-112.72
 11
-44.0556
 21
-112.556
  0
LINE
  8
0
 10
-44.0556
 20
-112.556
 11
-44.22
 21
-112.372
  0
LINE
  8
0
 10
-44.22
 20
-112.372
 11
-44.3628
 21
-112.17
  0
LINE
  8
0
 10
-44.3628
 20
-112.17
 11
-44.4821
 21
-111.955
  0
LINE
  8
0
 10
-44.4821
 20
-111.955
 11
-44.5765
 21
-111.727
  0
LINE
  8
0
 10
-44.5765
 20
-111.727
 11
-44.6448
 21
-111.49
  0
LINE
  8
0
 10
-44.6448
 20
-111.49
 11
-44.6862
 21
-111.246
  0
LINE
  8
0
 10
-44.6862
 20
-111.246
 11
-44.7
 21
-111
  0
LINE
  8
0
 10
-44.7
 20
-111
 11
-44.6862
 21
-110.754
  0
LINE
  8
0
 10
-44.6862
 20
-110.754
 11
-44.6448
 21
-110.51
  0
LINE
  8
0
 10
-44.6448
 20
-110.51
 11
-44.5765
 21
-110.273
  0
LINE
  8
0
 10
-44.5765
 20
-110.273
 11
-44.4821
 21
-110.045
  0
LINE
  8
0
 10
-44.4821
 20
-110.045
 11
-44.3628
 21
-109.83
  0
LINE
  8
0
 10
-44.3628
 20
-109.83
 11
-44.22
 21
-109.628
  0
LINE
  8
0
 10
-44.22
 20
-109.628
 11
-44.0556
 21
-109.444
  0
LINE
  8
0
 10
-44.0556
 20
-109.444
 11
-43.8717
 21
-109.28
  0
LINE
  8
0
 10
-43.8717
 20
-109.28
 11
-43.6705
 21
-109.137
  0
LINE
  8
0
 10
-43.6705
 20
-109.137
 11
-43.4545
 21
-109.018
  0
LINE
  8
0
 10
-43.4545
 20
-109.018
 11
-43.2266
 21
-108.923
  0
LINE
  8
0
 10
-43.2266
 20
-108.923
 11
-42.9895
 21
-108.855
  0
LINE
  8
0
 10
-42.9895
 20
-108.855
 11
-42.7463
 21
-108.814
  0
LINE
  8
0
 10
-42.7463
 20
-108.814
 11
-42.5
 21
-108.8
  0
LINE
  8
0
 10
-42.5
 20
-108.8
 11
-42.2537
 21
-108.814
  0
LINE
  8
0
 10
-42.2537
 20
-108.814
 11
-42.0105
 21
-108.855
  0
LINE
  8
0
 10
-42.0105
 20
-108.855
 11
-41.7734
 21
-108.923
  0
LINE
  8
0
 10
-41.7734
 20
-108.923
 11
-41.5455
 21
-109.018
  0
LINE
  8
0
 10
-41.5455
 20
-109.018
 11
-41.3295
 21
-109.137
  0
LINE
  8
0
 10
-41.3295
 20
-109.137
 11
-41.1283
 21
-109.28
  0
LINE
  8
0
 10
-41.1283
 20
-109.28
 11
-40.9444
 21
-109.444
  0
LINE
  8
0
 10
-40.9444
 20
-109.444
 11
-40.78
 21
-109.628
  0
LINE
  8
0
 10
-40.78
 20
-109.628
 11
-40.6372
 21
-109.83
  0
LINE
  8
0
 10
-40.6372
 20
-109.83
 11
-40.5179
 21
-110.045
  0
LINE
  8
0
 10
-40.5179
 20
-110.045
 11
-40.4234
 21
-110.273
  0
LINE
  8
0
 10
-40.4234
 20
-110.273
 11
-40.3551
 21
-110.51
  0
LINE
  8
0
 10
-40.3551
 20
-110.51
 11
-40.3138
 21
-110.754
  0
LINE
  8
0
 10
-40.3138
 20
-110.754
 11
-40.3
 21
-111
  0
LINE
  8
0
 10
-40.3
 20
-111
 11
-40.3138
 21
-111.246
  0
LINE
  8
0
 10
-40.3138
 20
-111.246
 11
-40.3551
 21
-111.49
  0
LINE
  8
0
 10
-40.3551
 20
-111.49
 11
-40.4234
 21
-111.727
  0
LINE
  8
0
 10
-40.4234
 20
-111.727
 11
-40.5179
 21
-111.955
  0
LINE
  8
0
 10
-40.5179
 20
-111.955
 11
-40.6372
 21
-112.17
  0
LINE
  8
0
 10
-40.6372
 20
-112.17
 11
-40.78
 21
-112.372
  0
LINE
  8
0
 10
-40.78
 20
-112.372
 11
-40.9444
 21
-112.556
  0
LINE
  8
0
 10
-40.9444
 20
-112.556
 11
-41.1283
 21
-112.72
  0
LINE
  8
0
 10
-41.1283
 20
-112.72
 11
-41.3295
 21
-112.863
  0
LINE
  8
0
 10
-41.3295
 20
-112.863
 11
-41.5455
 21
-112.982
  0
LINE
  8
0
 10
-41.5455
 20
-112.982
 11
-41.7734
 21
-113.077
  0
LINE
  8
0
 10
-41.7734
 20
-113.077
 11
-42.0105
 21
-113.145
  0
LINE
  8
0
 10
-42.0105
 20
-113.145
 11
-42.2537
 21
-113.186
  0
LINE
  8
0
 10
-42.2537
 20
-113.186
 11
-42.5
 21
-113.2
  0
LINE
  8
0
 10
-42.5
 20
-113.2
 11
-42.7463
 21
-113.186
  0
LINE
  8
0
 10
-157.746
 20
-113.186
 11
-157.99
 21
-113.145
  0
LINE
  8
0
 10
-157.99
 20
-113.145
 11
-158.227
 21
-113.077
  0
LINE
  8
0
 10
-158.227
 20
-113.077
 11
-158.455
 21
-112.982
  0
LINE
  8
0
 10
-158.455
 20
-112.982
 11
-158.67
 21
-112.863
  0
LINE
  8
0
 10
-158.67
 20
-112.863
 11
-158.872
 21
-112.72
  0
LINE
  8
0
 10
-158.872
 20
-112.72
 11
-159.056
 21
-112.556
  0
LINE
  8
0
 10
-159.056
 20
-112.556
 11
-159.22
 21
-112.372
  0
LINE
  8
0
 10
-159.22
 20
-112.372
 11
-159.363
 21
-112.17
  0
LINE
  8
0
 10
-159.363
 20
-112.17
 11
-159.482
 21
-111.955
  0
LINE
  8
0
 10
-159.482
 20
-111.955
 11
-159.577
 21
-111.727
  0
LINE
  8
0
 10
-159.577
 20
-111.727
 11
-159.645
 21
-111.49
  0
LINE
  8
0
 10
-159.645
 20
-111.49
 11
-159.686
 21
-111.246
  0
LINE
  8
0
 10
-159.686
 20
-111.246
 11
-159.7
 21
-111
  0
LINE
  8
0
 10
-159.7
 20
-111
 11
-159.686
 21
-110.754
  0
LINE
  8
0
 10
-159.686
 20
-110.754
 11
-159.645
 21
-110.51
  0
LINE
  8
0
 10
-159.645
 20
-110.51
 11
-159.577
 21
-110.273
  0
LINE
  8
0
 10
-159.577
 20
-110.273
 11
-159.482
 21
-110.045
  0
LINE
  8
0
 10
-159.482
 20
-110.045
 11
-159.363
 21
-109.83
  0
LINE
  8
0
 10
-159.363
 20
-109.83
 11
-159.22
 21
-109.628
  0
LINE
  8
0
 10
-159.22
 20
-109.628
 11
-159.056
 21
-109.444
  0
LINE
  8
0
 10
-159.056
 20
-109.444
 11
-158.872
 21
-109.28
  0
LINE
  8
0
 10
-158.872
 20
-109.28
 11
-158.67
 21
-109.137
  0
LINE
  8
0
 10
-158.67
 20
-109.137
 11
-158.455
 21
-109.018
  0
LINE
  8
0
 10
-158.455
 20
-109.018
 11
-158.227
 21
-108.923
  0
LINE
  8
0
 10
-158.227
 20
-108.923
 11
-157.99
 21
-108.855
  0
LINE
  8
0
 10
-157.99
 20
-108.855
 11
-157.746
 21
-108.814
  0
LINE
  8
0
 10
-157.746
 20
-108.814
 11
-157.5
 21
-108.8
  0
LINE
  8
0
 10
-157.5
 20
-108.8
 11
-157.254
 21
-108.814
  0
LINE
  8
0
 10
-157.254
 20
-108.814
 11
-157.01
 21
-108.855
  0
LINE
  8
0
 10
-157.01
 20
-108.855
 11
-156.773
 21
-108.923
  0
LINE
  8
0
 10
-156.773
 20
-108.923
 11
-156.545
 21
-109.018
  0
LINE
  8
0
 10
-156.545
 20
-109.018
 11
-156.33
 21
-109.137
  0
LINE
  8
0
 10
-156.33
 20
-109.137
 11
-156.128
 21
-109.28
  0
LINE
  8
0
 10
-156.128
 20
-109.28
 11
-155.944
 21
-109.444
  0
LINE
  8
0
 10
-155.944
 20
-109.444
 11
-155.78
 21
-109.628
  0
LINE
  8
0
 10
-155.78
 20
-109.628
 11
-155.637
 21
-109.83
  0
LINE
  8
0
 10
-155.637
 20
-109.83
 11
-155.518
 21
-110.045
  0
LINE
  8
0
 10
-155.518
 20
-110.045
 11
-155.423
 21
-110.273
  0
LINE
  8
0
 10
-155.423
 20
-110.273
 11
-155.355
 21
-110.51
  0
LINE
  8
0
 10
-155.355
 20
-110.51
 11
-155.314
 21
-110.754
  0
LINE
  8
0
 10
-155.314
 20
-110.754
 11
-155.3
 21
-111
  0
LINE
  8
0
 10
-155.3
 20
-111
 11
-155.314
 21
-111.246
  0
LINE
  8
0
 10
-155.314
 20
-111.246
 11
-155.355
 21
-111.49
  0
LINE
  8
0
 10
-155.355
 20
-111.49
 11
-155.423
 21
-111.727
  0
LINE
  8
0
 10
-155.423
 20
-111.727
 11
-155.518
 21
-111.955
  0
LINE
  8
0
 10
-155.518
 20
-111.955
 11
-155.637
 21
-112.17
  0
LINE
  8
0
 10
-155.637
 20
-112.17
 11
-155.78
 21
-112.372
  0
LINE
  8
0
 10
-155.78
 20
-112.372
 11
-155.944
 21
-112.556
  0
LINE
  8
0
 10
-155.944
 20
-112.556
 11
-156.128
 21
-112.72
  0
LINE
  8
0
 10
-156.128
 20
-112.72
 11
-156.33
 21
-112.863
  0
LINE
  8
0
 10
-156.33
 20
-112.863
 11
-156.545
 21
-112.982
  0
LINE
  8
0
 10
-156.545
 20
-112.982
 11
-156.773
 21
-113.077
  0
LINE
  8
0
 10
-156.773
 20
-113.077
 11
-157.01
 21
-113.145
  0
LINE
  8
0
 10
-157.01
 20
-113.145
 11
-157.254
 21
-113.186
  0
LINE
  8
0
 10
-157.254
 20
-113.186
 11
-157.5
 21
-113.2
  0
LINE
  8
0
 10
-157.5
 20
-113.2
 11
-157.746
 21
-113.186
  0
LINE
  8
0
 10
40.7569
 20
-127.879
 11
40.5212
 21
-127.816
  0
LINE
  8
0
 10
40.5212
 20
-127.816
 11
40.3
 21
-127.712
  0
LINE
  8
0
 10
40.3
 20
-127.712
 11
40.1001
 21
-127.572
  0
LINE
  8
0
 10
40.1001
 20
-127.572
 11
39.9275
 21
-127.4
  0
LINE
  8
0
 10
39.9275
 20
-127.4
 11
39.7876
 21
-127.2
  0
LINE
  8
0
 10
39.7876
 20
-127.2
 11
39.6844
 21
-126.979
  0
LINE
  8
0
 10
39.6844
 20
-126.979
 11
39.6213
 21
-126.743
  0
LINE
  8
0
 10
39.6213
 20
-126.743
 11
39.6
 21
-126.5
  0
LINE
  8
0
 10
39.6
 20
-126.5
 11
39.6213
 21
-126.257
  0
LINE
  8
0
 10
39.6213
 20
-126.257
 11
39.6844
 21
-126.021
  0
LINE
  8
0
 10
39.6844
 20
-126.021
 11
39.7876
 21
-125.8
  0
LINE
  8
0
 10
39.7876
 20
-125.8
 11
39.9275
 21
-125.6
  0
LINE
  8
0
 10
39.9275
 20
-125.6
 11
40.1001
 21
-125.428
  0
LINE
  8
0
 10
40.1001
 20
-125.428
 11
40.3
 21
-125.288
  0
LINE
  8
0
 10
40.3
 20
-125.288
 11
40.5212
 21
-125.184
  0
LINE
  8
0
 10
40.5212
 20
-125.184
 11
40.7569
 21
-125.121
  0
LINE
  8
0
 10
40.7569
 20
-125.121
 11
41
 21
-125.1
  0
LINE
  8
0
 10
41
 20
-125.1
 11
41.2431
 21
-125.121
  0
LINE
  8
0
 10
41.2431
 20
-125.121
 11
41.4788
 21
-125.184
  0
LINE
  8
0
 10
41.4788
 20
-125.184
 11
41.7
 21
-125.288
  0
LINE
  8
0
 10
41.7
 20
-125.288
 11
41.8999
 21
-125.428
  0
LINE
  8
0
 10
41.8999
 20
-125.428
 11
42.0725
 21
-125.6
  0
LINE
  8
0
 10
42.0725
 20
-125.6
 11
42.2124
 21
-125.8
  0
LINE
  8
0
 10
42.2124
 20
-125.8
 11
42.3156
 21
-126.021
  0
LINE
  8
0
 10
42.3156
 20
-126.021
 11
42.3787
 21
-126.257
  0
LINE
  8
0
 10
42.3787
 20
-126.257
 11
42.4
 21
-126.5
  0
LINE
  8
0
 10
42.4
 20
-126.5
 11
42.3787
 21
-126.743
  0
LINE
  8
0
 10
42.3787
 20
-126.743
 11
42.3156
 21
-126.979
  0
LINE
  8
0
 10
42.3156
 20
-126.979
 11
42.2124
 21
-127.2
  0
LINE
  8
0
 10
42.2124
 20
-127.2
 11
42.0725
 21
-127.4
  0
LINE
  8
0
 10
42.0725
 20
-127.4
 11
41.8999
 21
-127.572
  0
LINE
  8
0
 10
41.8999
 20
-127.572
 11
41.7
 21
-127.712
  0
LINE
  8
0
 10
41.7
 20
-127.712
 11
41.4788
 21
-127.816
  0
LINE
  8
0
 10
41.4788
 20
-127.816
 11
41.2431
 21
-127.879
  0
LINE
  8
0
 10
41.2431
 20
-127.879
 11
41
 21
-127.9
  0
LINE
  8
0
 10
41
 20
-127.9
 11
40.7569
 21
-127.879
  0
LINE
  8
0
 10
98.7569
 20
-127.879
 11
98.5212
 21
-127.816
  0
LINE
  8
0
 10
98.5212
 20
-127.816
 11
98.3
 21
-127.712
  0
LINE
  8
0
 10
98.3
 20
-127.712
 11
98.1001
 21
-127.572
  0
LINE
  8
0
 10
98.1001
 20
-127.572
 11
97.9275
 21
-127.4
  0
LINE
  8
0
 10
97.9275
 20
-127.4
 11
97.7876
 21
-127.2
  0
LINE
  8
0
 10
97.7876
 20
-127.2
 11
97.6844
 21
-126.979
  0
LINE
  8
0
 10
97.6844
 20
-126.979
 11
97.6213
 21
-126.743
  0
LINE
  8
0
 10
97.6213
 20
-126.743
 11
97.6
 21
-126.5
  0
LINE
  8
0
 10
97.6
 20
-126.5
 11
97.6213
 21
-126.257
  0
LINE
  8
0
 10
97.6213
 20
-126.257
 11
97.6844
 21
-126.021
  0
LINE
  8
0
 10
97.6844
 20
-126.021
 11
97.7876
 21
-125.8
  0
LINE
  8
0
 10
97.7876
 20
-125.8
 11
97.9275
 21
-125.6
  0
LINE
  8
0
 10
97.9275
 20
-125.6
 11
98.1001
 21
-125.428
  0
LINE
  8
0
 10
98.1001
 20
-125.428
 11
98.3
 21
-125.288
  0
LINE
  8
0
 10
98.3
 20
-125.288
 11
98.5212
 21
-125.184
  0
LINE
  8
0
 10
98.5212
 20
-125.184
 11
98.7569
 21
-125.121
  0
LINE
  8
0
 10
98.7569
 20
-125.121
 11
99
 21
-125.1
  0
LINE
  8
0
 10
99
 20
-125.1
 11
99.2431
 21
-125.121
  0
LINE
  8
0
 10
99.2431
 20
-125.121
 11
99.4788
 21
-125.184
  0
LINE
  8
0
 10
99.4788
 20
-125.184
 11
99.7
 21
-125.288
  0
LINE
  8
0
 10
99.7
 20
-125.288
 11
99.8999
 21
-125.428
  0
LINE
  8
0
 10
99.8999
 20
-125.428
 11
100.072
 21
-125.6
  0
LINE
  8
0
 10
100.072
 20
-125.6
 11
100.212
 21
-125.8
  0
LINE
  8
0
 10
100.212
 20
-125.8
 11
100.316
 21
-126.021
  0
LINE
  8
0
 10
100.316
 20
-126.021
 11
100.379
 21
-126.257
  0
LINE
  8
0
 10
100.379
 20
-126.257
 11
100.4
 21
-126.5
  0
LINE
  8
0
 10
100.4
 20
-126.5
 11
100.379
 21
-126.743
  0
LINE
  8
0
 10
100.379
 20
-126.743
 11
100.316
 21
-126.979
  0
LINE
  8
0
 10
100.316
 20
-126.979
 11
100.212
 21
-127.2
  0
LINE
  8
0
 10
100.212
 20
-127.2
 11
100.072
 21
-127.4
  0
LINE
  8
0
 10
100.072
 20
-127.4
 11
99.8999
 21
-127.572
  0
LINE
  8
0
 10
99.8999
 20
-127.572
 11
99.7
 21
-127.712
  0
LINE
  8
0
 10
99.7
 20
-127.712
 11
99.4788
 21
-127.816
  0
LINE
  8
0
 10
99.4788
 20
-127.816
 11
99.2431
 21
-127.879
  0
LINE
  8
0
 10
99.2431
 20
-127.879
 11
99
 21
-127.9
  0
LINE
  8
0
 10
99
 20
-127.9
 11
98.7569
 21
-127.879
  0
LINE
  8
0
 10
-220.186
 20
-139.904
 11
-220.43
 21
-139.859
  0
LINE
  8
0
 10
-220.43
 20
-139.859
 11
-220.665
 21
-139.779
  0
LINE
  8
0
 10
-220.665
 20
-139.779
 11
-220.886
 21
-139.665
  0
LINE
  8
0
 10
-220.886
 20
-139.665
 11
-221.087
 21
-139.521
  0
LINE
  8
0
 10
-221.087
 20
-139.521
 11
-221.266
 21
-139.349
  0
LINE
  8
0
 10
-221.266
 20
-139.349
 11
-221.418
 21
-139.152
  0
LINE
  8
0
 10
-221.418
 20
-139.152
 11
-221.539
 21
-138.936
  0
LINE
  8
0
 10
-221.539
 20
-138.936
 11
-221.628
 21
-138.704
  0
LINE
  8
0
 10
-221.628
 20
-138.704
 11
-221.682
 21
-138.462
  0
LINE
  8
0
 10
-221.682
 20
-138.462
 11
-221.7
 21
-138.214
  0
LINE
  8
0
 10
-221.7
 20
-138.214
 11
-221.682
 21
-137.967
  0
LINE
  8
0
 10
-221.682
 20
-137.967
 11
-221.628
 21
-137.725
  0
LINE
  8
0
 10
-221.628
 20
-137.725
 11
-221.539
 21
-137.493
  0
LINE
  8
0
 10
-221.539
 20
-137.493
 11
-221.418
 21
-137.276
  0
LINE
  8
0
 10
-221.418
 20
-137.276
 11
-221.266
 21
-137.08
  0
LINE
  8
0
 10
-221.266
 20
-137.08
 11
-221.087
 21
-136.908
  0
LINE
  8
0
 10
-221.087
 20
-136.908
 11
-220.886
 21
-136.763
  0
LINE
  8
0
 10
-220.886
 20
-136.763
 11
-220.665
 21
-136.65
  0
LINE
  8
0
 10
-220.665
 20
-136.65
 11
-220.43
 21
-136.57
  0
LINE
  8
0
 10
-220.43
 20
-136.57
 11
-220.186
 21
-136.524
  0
LINE
  8
0
 10
-220.186
 20
-136.524
 11
-219.938
 21
-136.515
  0
LINE
  8
0
 10
-219.938
 20
-136.515
 11
-219.691
 21
-136.543
  0
LINE
  8
0
 10
-219.691
 20
-136.543
 11
-219.451
 21
-136.605
  0
LINE
  8
0
 10
-219.451
 20
-136.605
 11
-219.223
 21
-136.702
  0
LINE
  8
0
 10
-219.223
 20
-136.702
 11
-219.011
 21
-136.832
  0
LINE
  8
0
 10
-219.011
 20
-136.832
 11
-218.82
 21
-136.99
  0
LINE
  8
0
 10
-218.82
 20
-136.99
 11
-218.654
 21
-137.175
  0
LINE
  8
0
 10
-218.654
 20
-137.175
 11
-218.518
 21
-137.382
  0
LINE
  8
0
 10
-218.518
 20
-137.382
 11
-218.412
 21
-137.607
  0
LINE
  8
0
 10
-218.412
 20
-137.607
 11
-218.341
 21
-137.845
  0
LINE
  8
0
 10
-218.341
 20
-137.845
 11
-218.305
 21
-138.09
  0
LINE
  8
0
 10
-218.305
 20
-138.09
 11
-218.305
 21
-138.338
  0
LINE
  8
0
 10
-218.305
 20
-138.338
 11
-218.341
 21
-138.584
  0
LINE
  8
0
 10
-218.341
 20
-138.584
 11
-218.412
 21
-138.822
  0
LINE
  8
0
 10
-218.412
 20
-138.822
 11
-218.518
 21
-139.046
  0
LINE
  8
0
 10
-218.518
 20
-139.046
 11
-218.654
 21
-139.253
  0
LINE
  8
0
 10
-218.654
 20
-139.253
 11
-218.82
 21
-139.438
  0
LINE
  8
0
 10
-218.82
 20
-139.438
 11
-219.011
 21
-139.597
  0
LINE
  8
0
 10
-219.011
 20
-139.597
 11
-219.223
 21
-139.726
  0
LINE
  8
0
 10
-219.223
 20
-139.726
 11
-219.451
 21
-139.823
  0
LINE
  8
0
 10
-219.451
 20
-139.823
 11
-219.691
 21
-139.886
  0
LINE
  8
0
 10
-219.691
 20
-139.886
 11
-219.938
 21
-139.913
  0
LINE
  8
0
 10
-219.938
 20
-139.913
 11
-220.186
 21
-139.904
  0
LINE
  8
0
 10
219.691
 20
-139.886
 11
219.451
 21
-139.823
  0
LINE
  8
0
 10
219.451
 20
-139.823
 11
219.223
 21
-139.726
  0
LINE
  8
0
 10
219.223
 20
-139.726
 11
219.011
 21
-139.597
  0
LINE
  8
0
 10
219.011
 20
-139.597
 11
218.82
 21
-139.438
  0
LINE
  8
0
 10
218.82
 20
-139.438
 11
218.654
 21
-139.253
  0
LINE
  8
0
 10
218.654
 20
-139.253
 11
218.518
 21
-139.046
  0
LINE
  8
0
 10
218.518
 20
-139.046
 11
218.412
 21
-138.822
  0
LINE
  8
0
 10
218.412
 20
-138.822
 11
218.341
 21
-138.584
  0
LINE
  8
0
 10
218.341
 20
-138.584
 11
218.305
 21
-138.338
  0
LINE
  8
0
 10
218.305
 20
-138.338
 11
218.305
 21
-138.09
  0
LINE
  8
0
 10
218.305
 20
-138.09
 11
218.341
 21
-137.845
  0
LINE
  8
0
 10
218.341
 20
-137.845
 11
218.412
 21
-137.607
  0
LINE
  8
0
 10
218.412
 20
-137.607
 11
218.518
 21
-137.382
  0
LINE
  8
0
 10
218.518
 20
-137.382
 11
218.654
 21
-137.175
  0
LINE
  8
0
 10
218.654
 20
-137.175
 11
218.82
 21
-136.99
  0
LINE
  8
0
 10
218.82
 20
-136.99
 11
219.011
 21
-136.832
  0
LINE
  8
0
 10
219.011
 20
-136.832
 11
219.223
 21
-136.702
  0
LINE
  8
0
 10
219.223
 20
-136.702
 11
219.451
 21
-136.605
  0
LINE
  8
0
 10
219.451
 20
-136.605
 11
219.691
 21
-136.543
  0
LINE
  8
0
 10
219.691
 20
-136.543
 11
219.938
 21
-136.515
  0
LINE
  8
0
 10
219.938
 20
-136.515
 11
220.186
 21
-136.524
  0
LINE
  8
0
 10
220.186
 20
-136.524
 11
220.43
 21
-136.57
  0
LINE
  8
0
 10
220.43
 20
-136.57
 11
220.665
 21
-136.65
  0
LINE
  8
0
 10
220.665
 20
-136.65
 11
220.886
 21
-136.763
  0
LINE
  8
0
 10
220.886
 20
-136.763
 11
221.087
 21
-136.908
  0
LINE
  8
0
 10
221.087
 20
-136.908
 11
221.266
 21
-137.08
  0
LINE
  8
0
 10
221.266
 20
-137.08
 11
221.418
 21
-137.276
  0
LINE
  8
0
 10
221.418
 20
-137.276
 11
221.539
 21
-137.493
  0
LINE
  8
0
 10
221.539
 20
-137.493
 11
221.628
 21
-137.725
  0
LINE
  8
0
 10
221.628
 20
-137.725
 11
221.682
 21
-137.967
  0
LINE
  8
0
 10
221.682
 20
-137.967
 11
221.7
 21
-138.214
  0
LINE
  8
0
 10
221.7
 20
-138.214
 11
221.682
 21
-138.462
  0
LINE
  8
0
 10
221.682
 20
-138.462
 11
221.628
 21
-138.704
  0
LINE
  8
0
 10
221.628
 20
-138.704
 11
221.539
 21
-138.936
  0
LINE
  8
0
 10
221.539
 20
-138.936
 11
221.418
 21
-139.152
  0
LINE
  8
0
 10
221.418
 20
-139.152
 11
221.266
 21
-139.349
  0
LINE
  8
0
 10
221.266
 20
-139.349
 11
221.087
 21
-139.521
  0
LINE
  8
0
 10
221.087
 20
-139.521
 11
220.886
 21
-139.665
  0
LINE
  8
0
 10
220.886
 20
-139.665
 11
220.665
 21
-139.779
  0
LINE
  8
0
 10
220.665
 20
-139.779
 11
220.43
 21
-139.859
  0
LINE
  8
0
 10
220.43
 20
-139.859
 11
220.186
 21
-139.904
  0
LINE
  8
0
 10
220.186
 20
-139.904
 11
219.938
 21
-139.913
  0
LINE
  8
0
 10
219.938
 20
-139.913
 11
219.691
 21
-139.886
  0
LINE
  8
0
 10
-27.2463
 20
-148.686
 11
-27.4895
 21
-148.645
  0
LINE
  8
0
 10
-27.4895
 20
-148.645
 11
-27.7266
 21
-148.577
  0
LINE
  8
0
 10
-27.7266
 20
-148.577
 11
-27.9545
 21
-148.482
  0
LINE
  8
0
 10
-27.9545
 20
-148.482
 11
-28.1705
 21
-148.363
  0
LINE
  8
0
 10
-28.1705
 20
-148.363
 11
-28.3717
 21
-148.22
  0
LINE
  8
0
 10
-28.3717
 20
-148.22
 11
-28.5556
 21
-148.056
  0
LINE
  8
0
 10
-28.5556
 20
-148.056
 11
-28.72
 21
-147.872
  0
LINE
  8
0
 10
-28.72
 20
-147.872
 11
-28.8628
 21
-147.67
  0
LINE
  8
0
 10
-28.8628
 20
-147.67
 11
-28.9821
 21
-147.455
  0
LINE
  8
0
 10
-28.9821
 20
-147.455
 11
-29.0765
 21
-147.227
  0
LINE
  8
0
 10
-29.0765
 20
-147.227
 11
-29.1448
 21
-146.99
  0
LINE
  8
0
 10
-29.1448
 20
-146.99
 11
-29.1862
 21
-146.746
  0
LINE
  8
0
 10
-29.1862
 20
-146.746
 11
-29.2
 21
-146.5
  0
LINE
  8
0
 10
-29.2
 20
-146.5
 11
-29.1862
 21
-146.254
  0
LINE
  8
0
 10
-29.1862
 20
-146.254
 11
-29.1448
 21
-146.01
  0
LINE
  8
0
 10
-29.1448
 20
-146.01
 11
-29.0765
 21
-145.773
  0
LINE
  8
0
 10
-29.0765
 20
-145.773
 11
-28.9821
 21
-145.545
  0
LINE
  8
0
 10
-28.9821
 20
-145.545
 11
-28.8628
 21
-145.33
  0
LINE
  8
0
 10
-28.8628
 20
-145.33
 11
-28.72
 21
-145.128
  0
LINE
  8
0
 10
-28.72
 20
-145.128
 11
-28.5556
 21
-144.944
  0
LINE
  8
0
 10
-28.5556
 20
-144.944
 11
-28.3717
 21
-144.78
  0
LINE
  8
0
 10
-28.3717
 20
-144.78
 11
-28.1705
 21
-144.637
  0
LINE
  8
0
 10
-28.1705
 20
-144.637
 11
-27.9545
 21
-144.518
  0
LINE
  8
0
 10
-27.9545
 20
-144.518
 11
-27.7266
 21
-144.423
  0
LINE
  8
0
 10
-27.7266
 20
-144.423
 11
-27.4895
 21
-144.355
  0
LINE
  8
0
 10
-27.4895
 20
-144.355
 11
-27.2463
 21
-144.314
  0
LINE
  8
0
 10
-27.2463
 20
-144.314
 11
-27
 21
-144.3
  0
LINE
  8
0
 10
-27
 20
-144.3
 11
-26.7537
 21
-144.314
  0
LINE
  8
0
 10
-26.7537
 20
-144.314
 11
-26.5105
 21
-144.355
  0
LINE
  8
0
 10
-26.5105
 20
-144.355
 11
-26.2734
 21
-144.423
  0
LINE
  8
0
 10
-26.2734
 20
-144.423
 11
-26.0455
 21
-144.518
  0
LINE
  8
0
 10
-26.0455
 20
-144.518
 11
-25.8295
 21
-144.637
  0
LINE
  8
0
 10
-25.8295
 20
-144.637
 11
-25.6283
 21
-144.78
  0
LINE
  8
0
 10
-25.6283
 20
-144.78
 11
-25.4444
 21
-144.944
  0
LINE
  8
0
 10
-25.4444
 20
-144.944
 11
-25.28
 21
-145.128
  0
LINE
  8
0
 10
-25.28
 20
-145.128
 11
-25.1372
 21
-145.33
  0
LINE
  8
0
 10
-25.1372
 20
-145.33
 11
-25.0179
 21
-145.545
  0
LINE
  8
0
 10
-25.0179
 20
-145.545
 11
-24.9234
 21
-145.773
  0
LINE
  8
0
 10
-24.9234
 20
-145.773
 11
-24.8551
 21
-146.01
  0
LINE
  8
0
 10
-24.8551
 20
-146.01
 11
-24.8138
 21
-146.254
  0
LINE
  8
0
 10
-24.8138
 20
-146.254
 11
-24.8
 21
-146.5
  0
LINE
  8
0
 10
-24.8
 20
-146.5
 11
-24.8138
 21
-146.746
  0
LINE
  8
0
 10
-24.8138
 20
-146.746
 11
-24.8551
 21
-146.99
  0
LINE
  8
0
 10
-24.8551
 20
-146.99
 11
-24.9234
 21
-147.227
  0
LINE
  8
0
 10
-24.9234
 20
-147.227
 11
-25.0179
 21
-147.455
  0
LINE
  8
0
 10
-25.0179
 20
-147.455
 11
-25.1372
 21
-147.67
  0
LINE
  8
0
 10
-25.1372
 20
-147.67
 11
-25.28
 21
-147.872
  0
LINE
  8
0
 10
-25.28
 20
-147.872
 11
-25.4444
 21
-148.056
  0
LINE
  8
0
 10
-25.4444
 20
-148.056
 11
-25.6283
 21
-148.22
  0
LINE
  8
0
 10
-25.6283
 20
-148.22
 11
-25.8295
 21
-148.363
  0
LINE
  8
0
 10
-25.8295
 20
-148.363
 11
-26.0455
 21
-148.482
  0
LINE
  8
0
 10
-26.0455
 20
-148.482
 11
-26.2734
 21
-148.577
  0
LINE
  8
0
 10
-26.2734
 20
-148.577
 11
-26.5105
 21
-148.645
  0
LINE
  8
0
 10
-26.5105
 20
-148.645
 11
-26.7537
 21
-148.686
  0
LINE
  8
0
 10
-26.7537
 20
-148.686
 11
-27
 21
-148.7
  0
LINE
  8
0
 10
-27
 20
-148.7
 11
-27.2463
 21
-148.686
  0
LINE
  8
0
 10
-118.246
 20
-148.686
 11
-118.49
 21
-148.645
  0
LINE
  8
0
 10
-118.49
 20
-148.645
 11
-118.727
 21
-148.577
  0
LINE
  8
0
 10
-118.727
 20
-148.577
 11
-118.955
 21
-148.482
  0
LINE
  8
0
 10
-118.955
 20
-148.482
 11
-119.17
 21
-148.363
  0
LINE
  8
0
 10
-119.17
 20
-148.363
 11
-119.372
 21
-148.22
  0
LINE
  8
0
 10
-119.372
 20
-148.22
 11
-119.556
 21
-148.056
  0
LINE
  8
0
 10
-119.556
 20
-148.056
 11
-119.72
 21
-147.872
  0
LINE
  8
0
 10
-119.72
 20
-147.872
 11
-119.863
 21
-147.67
  0
LINE
  8
0
 10
-119.863
 20
-147.67
 11
-119.982
 21
-147.455
  0
LINE
  8
0
 10
-119.982
 20
-147.455
 11
-120.077
 21
-147.227
  0
LINE
  8
0
 10
-120.077
 20
-147.227
 11
-120.145
 21
-146.99
  0
LINE
  8
0
 10
-120.145
 20
-146.99
 11
-120.186
 21
-146.746
  0
LINE
  8
0
 10
-120.186
 20
-146.746
 11
-120.2
 21
-146.5
  0
LINE
  8
0
 10
-120.2
 20
-146.5
 11
-120.186
 21
-146.254
  0
LINE
  8
0
 10
-120.186
 20
-146.254
 11
-120.145
 21
-146.01
  0
LINE
  8
0
 10
-120.145
 20
-146.01
 11
-120.077
 21
-145.773
  0
LINE
  8
0
 10
-120.077
 20
-145.773
 11
-119.982
 21
-145.545
  0
LINE
  8
0
 10
-119.982
 20
-145.545
 11
-119.863
 21
-145.33
  0
LINE
  8
0
 10
-119.863
 20
-145.33
 11
-119.72
 21
-145.128
  0
LINE
  8
0
 10
-119.72
 20
-145.128
 11
-119.556
 21
-144.944
  0
LINE
  8
0
 10
-119.556
 20
-144.944
 11
-119.372
 21
-144.78
  0
LINE
  8
0
 10
-119.372
 20
-144.78
 11
-119.17
 21
-144.637
  0
LINE
  8
0
 10
-119.17
 20
-144.637
 11
-118.955
 21
-144.518
  0
LINE
  8
0
 10
-118.955
 20
-144.518
 11
-118.727
 21
-144.423
  0
LINE
  8
0
 10
-118.727
 20
-144.423
 11
-118.49
 21
-144.355
  0
LINE
  8
0
 10
-118.49
 20
-144.355
 11
-118.246
 21
-144.314
  0
LINE
  8
0
 10
-118.246
 20
-144.314
 11
-118
 21
-144.3
  0
LINE
  8
0
 10
-118
 20
-144.3
 11
-117.754
 21
-144.314
  0
LINE
  8
0
 10
-117.754
 20
-144.314
 11
-117.51
 21
-144.355
  0
LINE
  8
0
 10
-117.51
 20
-144.355
 11
-117.273
 21
-144.423
  0
LINE
  8
0
 10
-117.273
 20
-144.423
 11
-117.045
 21
-144.518
  0
LINE
  8
0
 10
-117.045
 20
-144.518
 11
-116.83
 21
-144.637
  0
LINE
  8
0
 10
-116.83
 20
-144.637
 11
-116.628
 21
-144.78
  0
LINE
  8
0
 10
-116.628
 20
-144.78
 11
-116.444
 21
-144.944
  0
LINE
  8
0
 10
-116.444
 20
-144.944
 11
-116.28
 21
-145.128
  0
LINE
  8
0
 10
-116.28
 20
-145.128
 11
-116.137
 21
-145.33
  0
LINE
  8
0
 10
-116.137
 20
-145.33
 11
-116.018
 21
-145.545
  0
LINE
  8
0
 10
-116.018
 20
-145.545
 11
-115.923
 21
-145.773
  0
LINE
  8
0
 10
-115.923
 20
-145.773
 11
-115.855
 21
-146.01
  0
LINE
  8
0
 10
-115.855
 20
-146.01
 11
-115.814
 21
-146.254
  0
LINE
  8
0
 10
-115.814
 20
-146.254
 11
-115.8
 21
-146.5
  0
LINE
  8
0
 10
-115.8
 20
-146.5
 11
-115.814
 21
-146.746
  0
LINE
  8
0
 10
-115.814
 20
-146.746
 11
-115.855
 21
-146.99
  0
LINE
  8
0
 10
-115.855
 20
-146.99
 11
-115.923
 21
-147.227
  0
LINE
  8
0
 10
-115.923
 20
-147.227
 11
-116.018
 21
-147.455
  0
LINE
  8
0
 10
-116.018
 20
-147.455
 11
-116.137
 21
-147.67
  0
LINE
  8
0
 10
-116.137
 20
-147.67
 11
-116.28
 21
-147.872
  0
LINE
  8
0
 10
-116.28
 20
-147.872
 11
-116.444
 21
-148.056
  0
LINE
  8
0
 10
-116.444
 20
-148.056
 11
-116.628
 21
-148.22
  0
LINE
  8
0
 10
-116.628
 20
-148.22
 11
-116.83
 21
-148.363
  0
LINE
  8
0
 10
-116.83
 20
-148.363
 11
-117.045
 21
-148.482
  0
LINE
  8
0
 10
-117.045
 20
-148.482
 11
-117.273
 21
-148.577
  0
LINE
  8
0
 10
-117.273
 20
-148.577
 11
-117.51
 21
-148.645
  0
LINE
  8
0
 10
-117.51
 20
-148.645
 11
-117.754
 21
-148.686
  0
LINE
  8
0
 10
-117.754
 20
-148.686
 11
-118
 21
-148.7
  0
LINE
  8
0
 10
-118
 20
-148.7
 11
-118.246
 21
-148.686
  0
LINE
  8
0
 10
40.7569
 20
-176.879
 11
40.5212
 21
-176.816
  0
LINE
  8
0
 10
40.5212
 20
-176.816
 11
40.3
 21
-176.712
  0
LINE
  8
0
 10
40.3
 20
-176.712
 11
40.1001
 21
-176.572
  0
LINE
  8
0
 10
40.1001
 20
-176.572
 11
39.9275
 21
-176.4
  0
LINE
  8
0
 10
39.9275
 20
-176.4
 11
39.7876
 21
-176.2
  0
LINE
  8
0
 10
39.7876
 20
-176.2
 11
39.6844
 21
-175.979
  0
LINE
  8
0
 10
39.6844
 20
-175.979
 11
39.6213
 21
-175.743
  0
LINE
  8
0
 10
39.6213
 20
-175.743
 11
39.6
 21
-175.5
  0
LINE
  8
0
 10
39.6
 20
-175.5
 11
39.6213
 21
-175.257
  0
LINE
  8
0
 10
39.6213
 20
-175.257
 11
39.6844
 21
-175.021
  0
LINE
  8
0
 10
39.6844
 20
-175.021
 11
39.7876
 21
-174.8
  0
LINE
  8
0
 10
39.7876
 20
-174.8
 11
39.9275
 21
-174.6
  0
LINE
  8
0
 10
39.9275
 20
-174.6
 11
40.1001
 21
-174.428
  0
LINE
  8
0
 10
40.1001
 20
-174.428
 11
40.3
 21
-174.288
  0
LINE
  8
0
 10
40.3
 20
-174.288
 11
40.5212
 21
-174.184
  0
LINE
  8
0
 10
40.5212
 20
-174.184
 11
40.7569
 21
-174.121
  0
LINE
  8
0
 10
40.7569
 20
-174.121
 11
41
 21
-174.1
  0
LINE
  8
0
 10
41
 20
-174.1
 11
41.2431
 21
-174.121
  0
LINE
  8
0
 10
41.2431
 20
-174.121
 11
41.4788
 21
-174.184
  0
LINE
  8
0
 10
41.4788
 20
-174.184
 11
41.7
 21
-174.288
  0
LINE
  8
0
 10
41.7
 20
-174.288
 11
41.8999
 21
-174.428
  0
LINE
  8
0
 10
41.8999
 20
-174.428
 11
42.0725
 21
-174.6
  0
LINE
  8
0
 10
42.0725
 20
-174.6
 11
42.2124
 21
-174.8
  0
LINE
  8
0
 10
42.2124
 20
-174.8
 11
42.3156
 21
-175.021
  0
LINE
  8
0
 10
42.3156
 20
-175.021
 11
42.3787
 21
-175.257
  0
LINE
  8
0
 10
42.3787
 20
-175.257
 11
42.4
 21
-175.5
  0
LINE
  8
0
 10
42.4
 20
-175.5
 11
42.3787
 21
-175.743
  0
LINE
  8
0
 10
42.3787
 20
-175.743
 11
42.3156
 21
-175.979
  0
LINE
  8
0
 10
42.3156
 20
-175.979
 11
42.2124
 21
-176.2
  0
LINE
  8
0
 10
42.2124
 20
-176.2
 11
42.0725
 21
-176.4
  0
LINE
  8
0
 10
42.0725
 20
-176.4
 11
41.8999
 21
-176.572
  0
LINE
  8
0
 10
41.8999
 20
-176.572
 11
41.7
 21
-176.712
  0
LINE
  8
0
 10
41.7
 20
-176.712
 11
41.4788
 21
-176.816
  0
LINE
  8
0
 10
41.4788
 20
-176.816
 11
41.2431
 21
-176.879
  0
LINE
  8
0
 10
41.2431
 20
-176.879
 11
41
 21
-176.9
  0
LINE
  8
0
 10
41
 20
-176.9
 11
40.7569
 21
-176.879
  0
LINE
  8
0
 10
98.7569
 20
-176.879
 11
98.5212
 21
-176.816
  0
LINE
  8
0
 10
98.5212
 20
-176.816
 11
98.3
 21
-176.712
  0
LINE
  8
0
 10
98.3
 20
-176.712
 11
98.1001
 21
-176.572
  0
LINE
  8
0
 10
98.1001
 20
-176.572
 11
97.9275
 21
-176.4
  0
LINE
  8
0
 10
97.9275
 20
-176.4
 11
97.7876
 21
-176.2
  0
LINE
  8
0
 10
97.7876
 20
-176.2
 11
97.6844
 21
-175.979
  0
LINE
  8
0
 10
97.6844
 20
-175.979
 11
97.6213
 21
-175.743
  0
LINE
  8
0
 10
97.6213
 20
-175.743
 11
97.6
 21
-175.5
  0
LINE
  8
0
 10
97.6
 20
-175.5
 11
97.6213
 21
-175.257
  0
LINE
  8
0
 10
97.6213
 20
-175.257
 11
97.6844
 21
-175.021
  0
LINE
  8
0
 10
97.6844
 20
-175.021
 11
97.7876
 21
-174.8
  0
LINE
  8
0
 10
97.7876
 20
-174.8
 11
97.9275
 21
-174.6
  0
LINE
  8
0
 10
97.9275
 20
-174.6
 11
98.1001
 21
-174.428
  0
LINE
  8
0
 10
98.1001
 20
-174.428
 11
98.3
 21
-174.288
  0
LINE
  8
0
 10
98.3
 20
-174.288
 11
98.5212
 21
-174.184
  0
LINE
  8
0
 10
98.5212
 20
-174.184
 11
98.7569
 21
-174.121
  0
LINE
  8
0
 10
98.7569
 20
-174.121
 11
99
 21
-174.1
  0
LINE
  8
0
 10
99
 20
-174.1
 11
99.2431
 21
-174.121
  0
LINE
  8
0
 10
99.2431
 20
-174.121
 11
99.4788
 21
-174.184
  0
LINE
  8
0
 10
99.4788
 20
-174.184
 11
99.7
 21
-174.288
  0
LINE
  8
0
 10
99.7
 20
-174.288
 11
99.8999
 21
-174.428
  0
LINE
  8
0
 10
99.8999
 20
-174.428
 11
100.072
 21
-174.6
  0
LINE
  8
0
 10
100.072
 20
-174.6
 11
100.212
 21
-174.8
  0
LINE
  8
0
 10
100.212
 20
-174.8
 11
100.316
 21
-175.021
  0
LINE
  8
0
 10
100.316
 20
-175.021
 11
100.379
 21
-175.257
  0
LINE
  8
0
 10
100.379
 20
-175.257
 11
100.4
 21
-175.5
  0
LINE
  8
0
 10
100.4
 20
-175.5
 11
100.379
 21
-175.743
  0
LINE
  8
0
 10
100.379
 20
-175.743
 11
100.316
 21
-175.979
  0
LINE
  8
0
 10
100.316
 20
-175.979
 11
100.212
 21
-176.2
  0
LINE
  8
0
 10
100.212
 20
-176.2
 11
100.072
 21
-176.4
  0
LINE
  8
0
 10
100.072
 20
-176.4
 11
99.8999
 21
-176.572
  0
LINE
  8
0
 10
99.8999
 20
-176.572
 11
99.7
 21
-176.712
  0
LINE
  8
0
 10
99.7
 20
-176.712
 11
99.4788
 21
-176.816
  0
LINE
  8
0
 10
99.4788
 20
-176.816
 11
99.2431
 21
-176.879
  0
LINE
  8
0
 10
99.2431
 20
-176.879
 11
99
 21
-176.9
  0
LINE
  8
0
 10
99
 20
-176.9
 11
98.7569
 21
-176.879
  0
LINE
  8
0
 10
-185.624
 20
-181.995
 11
-185.868
 21
-181.954
  0
LINE
  8
0
 10
-185.868
 20
-181.954
 11
-186.103
 21
-181.874
  0
LINE
  8
0
 10
-186.103
 20
-181.874
 11
-186.32
 21
-181.756
  0
LINE
  8
0
 10
-186.32
 20
-181.756
 11
-186.516
 21
-181.604
  0
LINE
  8
0
 10
-186.516
 20
-181.604
 11
-186.684
 21
-181.421
  0
LINE
  8
0
 10
-186.684
 20
-181.421
 11
-186.819
 21
-181.214
  0
LINE
  8
0
 10
-186.819
 20
-181.214
 11
-186.919
 21
-180.987
  0
LINE
  8
0
 10
-186.919
 20
-180.987
 11
-186.98
 21
-180.747
  0
LINE
  8
0
 10
-186.98
 20
-180.747
 11
-187
 21
-180.5
  0
LINE
  8
0
 10
-187
 20
-180.5
 11
-186.98
 21
-180.253
  0
LINE
  8
0
 10
-186.98
 20
-180.253
 11
-186.919
 21
-180.013
  0
LINE
  8
0
 10
-186.919
 20
-180.013
 11
-186.819
 21
-179.786
  0
LINE
  8
0
 10
-186.819
 20
-179.786
 11
-186.684
 21
-179.579
  0
LINE
  8
0
 10
-186.684
 20
-179.579
 11
-186.516
 21
-179.396
  0
LINE
  8
0
 10
-186.516
 20
-179.396
 11
-186.32
 21
-179.244
  0
LINE
  8
0
 10
-186.32
 20
-179.244
 11
-186.103
 21
-179.126
  0
LINE
  8
0
 10
-186.103
 20
-179.126
 11
-185.868
 21
-179.046
  0
LINE
  8
0
 10
-185.868
 20
-179.046
 11
-185.624
 21
-179.005
  0
LINE
  8
0
 10
-185.624
 20
-179.005
 11
-185.376
 21
-179.005
  0
LINE
  8
0
 10
-185.376
 20
-179.005
 11
-185.132
 21
-179.046
  0
LINE
  8
0
 10
-185.132
 20
-179.046
 11
-184.897
 21
-179.126
  0
LINE
  8
0
 10
-184.897
 20
-179.126
 11
-184.68
 21
-179.244
  0
LINE
  8
0
 10
-184.68
 20
-179.244
 11
-184.484
 21
-179.396
  0
LINE
  8
0
 10
-184.484
 20
-179.396
 11
-184.316
 21
-179.579
  0
LINE
  8
0
 10
-184.316
 20
-179.579
 11
-184.181
 21
-179.786
  0
LINE
  8
0
 10
-184.181
 20
-179.786
 11
-184.081
 21
-180.013
  0
LINE
  8
0
 10
-184.081
 20
-180.013
 11
-184.02
 21
-180.253
  0
LINE
  8
0
 10
-184.02
 20
-180.253
 11
-184
 21
-180.5
  0
LINE
  8
0
 10
-184
 20
-180.5
 11
-184.02
 21
-180.747
  0
LINE
  8
0
 10
-184.02
 20
-180.747
 11
-184.081
 21
-180.987
  0
LINE
  8
0
 10
-184.081
 20
-180.987
 11
-184.181
 21
-181.214
  0
LINE
  8
0
 10
-184.181
 20
-181.214
 11
-184.316
 21
-181.421
  0
LINE
  8
0
 10
-184.316
 20
-181.421
 11
-184.484
 21
-181.604
  0
LINE
  8
0
 10
-184.484
 20
-181.604
 11
-184.68
 21
-181.756
  0
LINE
  8
0
 10
-184.68
 20
-181.756
 11
-184.897
 21
-181.874
  0
LINE
  8
0
 10
-184.897
 20
-181.874
 11
-185.132
 21
-181.954
  0
LINE
  8
0
 10
-185.132
 20
-181.954
 11
-185.376
 21
-181.995
  0
LINE
  8
0
 10
-185.376
 20
-181.995
 11
-185.624
 21
-181.995
  0
LINE
  8
0
 10
185.376
 20
-181.995
 11
185.132
 21
-181.954
  0
LINE
  8
0
 10
185.132
 20
-181.954
 11
184.897
 21
-181.874
  0
LINE
  8
0
 10
184.897
 20
-181.874
 11
184.68
 21
-181.756
  0
LINE
  8
0
 10
184.68
 20
-181.756
 11
184.484
 21
-181.604
  0
LINE
  8
0
 10
184.484
 20
-181.604
 11
184.316
 21
-181.421
  0
LINE
  8
0
 10
184.316
 20
-181.421
 11
184.181
 21
-181.214
  0
LINE
  8
0
 10
184.181
 20
-181.214
 11
184.081
 21
-180.987
  0
LINE
  8
0
 10
184.081
 20
-180.987
 11
184.02
 21
-180.747
  0
LINE
  8
0
 10
184.02
 20
-180.747
 11
184
 21
-180.5
  0
LINE
  8
0
 10
184
 20
-180.5
 11
184.02
 21
-180.253
  0
LINE
  8
0
 10
184.02
 20
-180.253
 11
184.081
 21
-180.013
  0
LINE
  8
0
 10
184.081
 20
-180.013
 11
184.181
 21
-179.786
  0
LINE
  8
0
 10
184.181
 20
-179.786
 11
184.316
 21
-179.579
  0
LINE
  8
0
 10
184.316
 20
-179.579
 11
184.484
 21
-179.396
  0
LINE
  8
0
 10
184.484
 20
-179.396
 11
184.68
 21
-179.244
  0
LINE
  8
0
 10
184.68
 20
-179.244
 11
184.897
 21
-179.126
  0
LINE
  8
0
 10
184.897
 20
-179.126
 11
185.132
 21
-179.046
  0
LINE
  8
0
 10
185.132
 20
-179.046
 11
185.376
 21
-179.005
  0
LINE
  8
0
 10
185.376
 20
-179.005
 11
185.624
 21
-179.005
  0
LINE
  8
0
 10
185.624
 20
-179.005
 11
185.868
 21
-179.046
  0
LINE
  8
0
 10
185.868
 20
-179.046
 11
186.103
 21
-179.126
  0
LINE
  8
0
 10
186.103
 20
-179.126
 11
186.32
 21
-179.244
  0
LINE
  8
0
 10
186.32
 20
-179.244
 11
186.516
 21
-179.396
  0
LINE
  8
0
 10
186.516
 20
-179.396
 11
186.684
 21
-179.579
  0
LINE
  8
0
 10
186.684
 20
-179.579
 11
186.819
 21
-179.786
  0
LINE
  8
0
 10
186.819
 20
-179.786
 11
186.919
 21
-180.013
  0
LINE
  8
0
 10
186.919
 20
-180.013
 11
186.98
 21
-180.253
  0
LINE
  8
0
 10
186.98
 20
-180.253
 11
187
 21
-180.5
  0
LINE
  8
0
 10
187
 20
-180.5
 11
186.98
 21
-180.747
  0
LINE
  8
0
 10
186.98
 20
-180.747
 11
186.919
 21
-180.987
  0
LINE
  8
0
 10
186.919
 20
-180.987
 11
186.819
 21
-181.214
  0
LINE
  8
0
 10
186.819
 20
-181.214
 11
186.684
 21
-181.421
  0
LINE
  8
0
 10
186.684
 20
-181.421
 11
186.516
 21
-181.604
  0
LINE
  8
0
 10
186.516
 20
-181.604
 11
186.32
 21
-181.756
  0
LINE
  8
0
 10
186.32
 20
-181.756
 11
186.103
 21
-181.874
  0
LINE
  8
0
 10
186.103
 20
-181.874
 11
185.868
 21
-181.954
  0
LINE
  8
0
 10
185.868
 20
-181.954
 11
185.624
 21
-181.995
  0
LINE
  8
0
 10
185.624
 20
-181.995
 11
185.376
 21
-181.995
  0
LINE
  8
0
 10
-220.186
 20
-232.047
 11
-220.43
 21
-232.002
  0
LINE
  8
0
 10
-220.43
 20
-232.002
 11
-220.665
 21
-231.922
  0
LINE
  8
0
 10
-220.665
 20
-231.922
 11
-220.886
 21
-231.808
  0
LINE
  8
0
 10
-220.886
 20
-231.808
 11
-221.087
 21
-231.664
  0
LINE
  8
0
 10
-221.087
 20
-231.664
 11
-221.266
 21
-231.492
  0
LINE
  8
0
 10
-221.266
 20
-231.492
 11
-221.418
 21
-231.295
  0
LINE
  8
0
 10
-221.418
 20
-231.295
 11
-221.539
 21
-231.079
  0
LINE
  8
0
 10
-221.539
 20
-231.079
 11
-221.628
 21
-230.847
  0
LINE
  8
0
 10
-221.628
 20
-230.847
 11
-221.682
 21
-230.605
  0
LINE
  8
0
 10
-221.682
 20
-230.605
 11
-221.7
 21
-230.357
  0
LINE
  8
0
 10
-221.7
 20
-230.357
 11
-221.682
 21
-230.11
  0
LINE
  8
0
 10
-221.682
 20
-230.11
 11
-221.628
 21
-229.867
  0
LINE
  8
0
 10
-221.628
 20
-229.867
 11
-221.539
 21
-229.636
  0
LINE
  8
0
 10
-221.539
 20
-229.636
 11
-221.418
 21
-229.419
  0
LINE
  8
0
 10
-221.418
 20
-229.419
 11
-221.266
 21
-229.223
  0
LINE
  8
0
 10
-221.266
 20
-229.223
 11
-221.087
 21
-229.05
  0
LINE
  8
0
 10
-221.087
 20
-229.05
 11
-220.886
 21
-228.906
  0
LINE
  8
0
 10
-220.886
 20
-228.906
 11
-220.665
 21
-228.793
  0
LINE
  8
0
 10
-220.665
 20
-228.793
 11
-220.43
 21
-228.712
  0
LINE
  8
0
 10
-220.43
 20
-228.712
 11
-220.186
 21
-228.667
  0
LINE
  8
0
 10
-220.186
 20
-228.667
 11
-219.938
 21
-228.658
  0
LINE
  8
0
 10
-219.938
 20
-228.658
 11
-219.691
 21
-228.685
  0
LINE
  8
0
 10
-219.691
 20
-228.685
 11
-219.451
 21
-228.748
  0
LINE
  8
0
 10
-219.451
 20
-228.748
 11
-219.223
 21
-228.845
  0
LINE
  8
0
 10
-219.223
 20
-228.845
 11
-219.011
 21
-228.975
  0
LINE
  8
0
 10
-219.011
 20
-228.975
 11
-218.82
 21
-229.133
  0
LINE
  8
0
 10
-218.82
 20
-229.133
 11
-218.654
 21
-229.318
  0
LINE
  8
0
 10
-218.654
 20
-229.318
 11
-218.518
 21
-229.525
  0
LINE
  8
0
 10
-218.518
 20
-229.525
 11
-218.412
 21
-229.75
  0
LINE
  8
0
 10
-218.412
 20
-229.75
 11
-218.341
 21
-229.988
  0
LINE
  8
0
 10
-218.341
 20
-229.988
 11
-218.305
 21
-230.233
  0
LINE
  8
0
 10
-218.305
 20
-230.233
 11
-218.305
 21
-230.481
  0
LINE
  8
0
 10
-218.305
 20
-230.481
 11
-218.341
 21
-230.727
  0
LINE
  8
0
 10
-218.341
 20
-230.727
 11
-218.412
 21
-230.964
  0
LINE
  8
0
 10
-218.412
 20
-230.964
 11
-218.518
 21
-231.189
  0
LINE
  8
0
 10
-218.518
 20
-231.189
 11
-218.654
 21
-231.396
  0
LINE
  8
0
 10
-218.654
 20
-231.396
 11
-218.82
 21
-231.581
  0
LINE
  8
0
 10
-218.82
 20
-231.581
 11
-219.011
 21
-231.74
  0
LINE
  8
0
 10
-219.011
 20
-231.74
 11
-219.223
 21
-231.869
  0
LINE
  8
0
 10
-219.223
 20
-231.869
 11
-219.451
 21
-231.966
  0
LINE
  8
0
 10
-219.451
 20
-231.966
 11
-219.691
 21
-232.029
  0
LINE
  8
0
 10
-219.691
 20
-232.029
 11
-219.938
 21
-232.056
  0
LINE
  8
0
 10
-219.938
 20
-232.056
 11
-220.186
 21
-232.047
  0
LINE
  8
0
 10
219.691
 20
-232.029
 11
219.451
 21
-231.966
  0
LINE
  8
0
 10
219.451
 20
-231.966
 11
219.223
 21
-231.869
  0
LINE
  8
0
 10
219.223
 20
-231.869
 11
219.011
 21
-231.74
  0
LINE
  8
0
 10
219.011
 20
-231.74
 11
218.82
 21
-231.581
  0
LINE
  8
0
 10
218.82
 20
-231.581
 11
218.654
 21
-231.396
  0
LINE
  8
0
 10
218.654
 20
-231.396
 11
218.518
 21
-231.189
  0
LINE
  8
0
 10
218.518
 20
-231.189
 11
218.412
 21
-230.964
  0
LINE
  8
0
 10
218.412
 20
-230.964
 11
218.341
 21
-230.727
  0
LINE
  8
0
 10
218.341
 20
-230.727
 11
218.305
 21
-230.481
  0
LINE
  8
0
 10
218.305
 20
-230.481
 11
218.305
 21
-230.233
  0
LINE
  8
0
 10
218.305
 20
-230.233
 11
218.341
 21
-229.988
  0
LINE
  8
0
 10
218.341
 20
-229.988
 11
218.412
 21
-229.75
  0
LINE
  8
0
 10
218.412
 20
-229.75
 11
218.518
 21
-229.525
  0
LINE
  8
0
 10
218.518
 20
-229.525
 11
218.654
 21
-229.318
  0
LINE
  8
0
 10
218.654
 20
-229.318
 11
218.82
 21
-229.133
  0
LINE
  8
0
 10
218.82
 20
-229.133
 11
219.011
 21
-228.975
  0
LINE
  8
0
 10
219.011
 20
-228.975
 11
219.223
 21
-228.845
  0
LINE
  8
0
 10
219.223
 20
-228.845
 11
219.451
 21
-228.748
  0
LINE
  8
0
 10
219.451
 20
-228.748
 11
219.691
 21
-228.685
  0
LINE
  8
0
 10
219.691
 20
-228.685
 11
219.938
 21
-228.658
  0
LINE
  8
0
 10
219.938
 20
-228.658
 11
220.186
 21
-228.667
  0
LINE
  8
0
 10
220.186
 20
-228.667
 11
220.43
 21
-228.712
  0
LINE
  8
0
 10
220.43
 20
-228.712
 11
220.665
 21
-228.793
  0
LINE
  8
0
 10
220.665
 20
-228.793
 11
220.886
 21
-228.906
  0
LINE
  8
0
 10
220.886
 20
-228.906
 11
221.087
 21
-229.05
  0
LINE
  8
0
 10
221.087
 20
-229.05
 11
221.266
 21
-229.223
  0
LINE
  8
0
 10
221.266
 20
-229.223
 11
221.418
 21
-229.419
  0
LINE
  8
0
 10
221.418
 20
-229.419
 11
221.539
 21
-229.636
  0
LINE
  8
0
 10
221.539
 20
-229.636
 11
221.628
 21
-229.867
  0
LINE
  8
0
 10
221.628
 20
-229.867
 11
221.682
 21
-230.11
  0
LINE
  8
0
 10
221.682
 20
-230.11
 11
221.7
 21
-230.357
  0
LINE
  8
0
 10
221.7
 20
-230.357
 11
221.682
 21
-230.605
  0
LINE
  8
0
 10
221.682
 20
-230.605
 11
221.628
 21
-230.847
  0
LINE
  8
0
 10
221.628
 20
-230.847
 11
221.539
 21
-231.079
  0
LINE
  8
0
 10
221.539
 20
-231.079
 11
221.418
 21
-231.295
  0
LINE
  8
0
 10
221.418
 20
-231.295
 11
221.266
 21
-231.492
  0
LINE
  8
0
 10
221.266
 20
-231.492
 11
221.087
 21
-231.664
  0
LINE
  8
0
 10
221.087
 20
-231.664
 11
220.886
 21
-231.808
  0
LINE
  8
0
 10
220.886
 20
-231.808
 11
220.665
 21
-231.922
  0
LINE
  8
0
 10
220.665
 20
-231.922
 11
220.43
 21
-232.002
  0
LINE
  8
0
 10
220.43
 20
-232.002
 11
220.186
 21
-232.047
  0
LINE
  8
0
 10
220.186
 20
-232.047
 11
219.938
 21
-232.056
  0
LINE
  8
0
 10
219.938
 20
-232.056
 11
219.691
 21
-232.029
  0
LINE
  8
0
 10
219.691
 20
-324.172
 11
219.451
 21
-324.109
  0
LINE
  8
0
 10
219.451
 20
-324.109
 11
219.223
 21
-324.012
  0
LINE
  8
0
 10
219.223
 20
-324.012
 11
219.011
 21
-323.883
  0
LINE
  8
0
 10
219.011
 20
-323.883
 11
218.82
 21
-323.724
  0
LINE
  8
0
 10
218.82
 20
-323.724
 11
218.654
 21
-323.539
  0
LINE
  8
0
 10
218.654
 20
-323.539
 11
218.518
 21
-323.332
  0
LINE
  8
0
 10
218.518
 20
-323.332
 11
218.412
 21
-323.107
  0
LINE
  8
0
 10
218.412
 20
-323.107
 11
218.341
 21
-322.87
  0
LINE
  8
0
 10
218.341
 20
-322.87
 11
218.305
 21
-322.624
  0
LINE
  8
0
 10
218.305
 20
-322.624
 11
218.305
 21
-322.376
  0
LINE
  8
0
 10
218.305
 20
-322.376
 11
218.341
 21
-322.13
  0
LINE
  8
0
 10
218.341
 20
-322.13
 11
218.412
 21
-321.893
  0
LINE
  8
0
 10
218.412
 20
-321.893
 11
218.518
 21
-321.668
  0
LINE
  8
0
 10
218.518
 20
-321.668
 11
218.654
 21
-321.461
  0
LINE
  8
0
 10
218.654
 20
-321.461
 11
218.82
 21
-321.276
  0
LINE
  8
0
 10
218.82
 20
-321.276
 11
219.011
 21
-321.117
  0
LINE
  8
0
 10
219.011
 20
-321.117
 11
219.223
 21
-320.988
  0
LINE
  8
0
 10
219.223
 20
-320.988
 11
219.451
 21
-320.891
  0
LINE
  8
0
 10
219.451
 20
-320.891
 11
219.691
 21
-320.828
  0
LINE
  8
0
 10
219.691
 20
-320.828
 11
219.938
 21
-320.801
  0
LINE
  8
0
 10
219.938
 20
-320.801
 11
220.186
 21
-320.81
  0
LINE
  8
0
 10
220.186
 20
-320.81
 11
220.43
 21
-320.855
  0
LINE
  8
0
 10
220.43
 20
-320.855
 11
220.665
 21
-320.935
  0
LINE
  8
0
 10
220.665
 20
-320.935
 11
220.886
 21
-321.049
  0
LINE
  8
0
 10
220.886
 20
-321.049
 11
221.087
 21
-321.193
  0
LINE
  8
0
 10
221.087
 20
-321.193
 11
221.266
 21
-321.366
  0
LINE
  8
0
 10
221.266
 20
-321.366
 11
221.418
 21
-321.562
  0
LINE
  8
0
 10
221.418
 20
-321.562
 11
221.539
 21
-321.778
  0
LINE
  8
0
 10
221.539
 20
-321.778
 11
221.628
 21
-322.01
  0
LINE
  8
0
 10
221.628
 20
-322.01
 11
221.682
 21
-322.252
  0
LINE
  8
0
 10
221.682
 20
-322.252
 11
221.7
 21
-322.5
  0
LINE
  8
0
 10
221.7
 20
-322.5
 11
221.682
 21
-322.748
  0
LINE
  8
0
 10
221.682
 20
-322.748
 11
221.628
 21
-322.99
  0
LINE
  8
0
 10
221.628
 20
-322.99
 11
221.539
 21
-323.222
  0
LINE
  8
0
 10
221.539
 20
-323.222
 11
221.418
 21
-323.438
  0
LINE
  8
0
 10
221.418
 20
-323.438
 11
221.266
 21
-323.634
  0
LINE
  8
0
 10
221.266
 20
-323.634
 11
221.087
 21
-323.807
  0
LINE
  8
0
 10
221.087
 20
-323.807
 11
220.886
 21
-323.951
  0
LINE
  8
0
 10
220.886
 20
-323.951
 11
220.665
 21
-324.065
  0
LINE
  8
0
 10
220.665
 20
-324.065
 11
220.43
 21
-324.145
  0
LINE
  8
0
 10
220.43
 20
-324.145
 11
220.186
 21
-324.19
  0
LINE
  8
0
 10
220.186
 20
-324.19
 11
219.938
 21
-324.199
  0
LINE
  8
0
 10
219.938
 20
-324.199
 11
219.691
 21
-324.172
  0
LINE
  8
0
 10
-220.186
 20
-324.19
 11
-220.43
 21
-324.145
  0
LINE
  8
0
 10
-220.43
 20
-324.145
 11
-220.665
 21
-324.065
  0
LINE
  8
0
 10
-220.665
 20
-324.065
 11
-220.886
 21
-323.951
  0
LINE
  8
0
 10
-220.886
 20
-323.951
 11
-221.087
 21
-323.807
  0
LINE
  8
0
 10
-221.087
 20
-323.807
 11
-221.266
 21
-323.634
  0
LINE
  8
0
 10
-221.266
 20
-323.634
 11
-221.418
 21
-323.438
  0
LINE
  8
0
 10
-221.418
 20
-323.438
 11
-221.539
 21
-323.222
  0
LINE
  8
0
 10
-221.539
 20
-323.222
 11
-221.628
 21
-322.99
  0
LINE
  8
0
 10
-221.628
 20
-322.99
 11
-221.682
 21
-322.748
  0
LINE
  8
0
 10
-221.682
 20
-322.748
 11
-221.7
 21
-322.5
  0
LINE
  8
0
 10
-221.7
 20
-322.5
 11
-221.682
 21
-322.252
  0
LINE
  8
0
 10
-221.682
 20
-322.252
 11
-221.628
 21
-322.01
  0
LINE
  8
0
 10
-221.628
 20
-322.01
 11
-221.539
 21
-321.778
  0
LINE
  8
0
 10
-221.539
 20
-321.778
 11
-221.418
 21
-321.562
  0
LINE
  8
0
 10
-221.418
 20
-321.562
 11
-221.266
 21
-321.366
  0
LINE
  8
0
 10
-221.266
 20
-321.366
 11
-221.087
 21
-321.193
  0
LINE
  8
0
 10
-221.087
 20
-321.193
 11
-220.886
 21
-321.049
  0
LINE
  8
0
 10
-220.886
 20
-321.049
 11
-220.665
 21
-320.935
  0
LINE
  8
0
 10
-220.665
 20
-320.935
 11
-220.43
 21
-320.855
  0
LINE
  8
0
 10
-220.43
 20
-320.855
 11
-220.186
 21
-320.81
  0
LINE
  8
0
 10
-220.186
 20
-320.81
 11
-219.938
 21
-320.801
  0
LINE
  8
0
 10
-219.938
 20
-320.801
 11
-219.691
 21
-320.828
  0
LINE
  8
0
 10
-219.691
 20
-320.828
 11
-219.451
 21
-320.891
  0
LINE
  8
0
 10
-219.451
 20
-320.891
 11
-219.223
 21
-320.988
  0
LINE
  8
0
 10
-219.223
 20
-320.988
 11
-219.011
 21
-321.117
  0
LINE
  8
0
 10
-219.011
 20
-321.117
 11
-218.82
 21
-321.276
  0
LINE
  8
0
 10
-218.82
 20
-321.276
 11
-218.654
 21
-321.461
  0
LINE
  8
0
 10
-218.654
 20
-321.461
 11
-218.518
 21
-321.668
  0
LINE
  8
0
 10
-218.518
 20
-321.668
 11
-218.412
 21
-321.893
  0
LINE
  8
0
 10
-218.412
 20
-321.893
 11
-218.341
 21
-322.13
  0
LINE
  8
0
 10
-218.341
 20
-322.13
 11
-218.305
 21
-322.376
  0
LINE
  8
0
 10
-218.305
 20
-322.376
 11
-218.305
 21
-322.624
  0
LINE
  8
0
 10
-218.305
 20
-322.624
 11
-218.341
 21
-322.87
  0
LINE
  8
0
 10
-218.341
 20
-322.87
 11
-218.412
 21
-323.107
  0
LINE
  8
0
 10
-218.412
 20
-323.107
 11
-218.518
 21
-323.332
  0
LINE
  8
0
 10
-218.518
 20
-323.332
 11
-218.654
 21
-323.539
  0
LINE
  8
0
 10
-218.654
 20
-323.539
 11
-218.82
 21
-323.724
  0
LINE
  8
0
 10
-218.82
 20
-323.724
 11
-219.011
 21
-323.883
  0
LINE
  8
0
 10
-219.011
 20
-323.883
 11
-219.223
 21
-324.012
  0
LINE
  8
0
 10
-219.223
 20
-324.012
 11
-219.451
 21
-324.109
  0
LINE
  8
0
 10
-219.451
 20
-324.109
 11
-219.691
 21
-324.172
  0
LINE
  8
0
 10
-219.691
 20
-324.172
 11
-219.938
 21
-324.199
  0
LINE
  8
0
 10
-219.938
 20
-324.199
 11
-220.186
 21
-324.19
  0
LINE
  8
0
 10
-220.392
 20
-368.729
 11
-220.78
 21
-368.668
  0
LINE
  8
0
 10
-220.78
 20
-368.668
 11
-221.159
 21
-368.566
  0
LINE
  8
0
 10
-221.159
 20
-368.566
 11
-221.525
 21
-368.426
  0
LINE
  8
0
 10
-221.525
 20
-368.426
 11
-221.875
 21
-368.248
  0
LINE
  8
0
 10
-221.875
 20
-368.248
 11
-222.204
 21
-368.034
  0
LINE
  8
0
 10
-222.204
 20
-368.034
 11
-222.509
 21
-367.787
  0
LINE
  8
0
 10
-222.509
 20
-367.787
 11
-222.787
 21
-367.509
  0
LINE
  8
0
 10
-222.787
 20
-367.509
 11
-223.034
 21
-367.204
  0
LINE
  8
0
 10
-223.034
 20
-367.204
 11
-223.248
 21
-366.875
  0
LINE
  8
0
 10
-223.248
 20
-366.875
 11
-223.426
 21
-366.525
  0
LINE
  8
0
 10
-223.426
 20
-366.525
 11
-223.566
 21
-366.159
  0
LINE
  8
0
 10
-223.566
 20
-366.159
 11
-223.668
 21
-365.78
  0
LINE
  8
0
 10
-223.668
 20
-365.78
 11
-223.729
 21
-365.392
  0
LINE
  8
0
 10
-223.729
 20
-365.392
 11
-223.75
 21
-365
  0
LINE
  8
0
 10
-223.75
 20
-365
 11
-223.729
 21
-364.608
  0
LINE
  8
0
 10
-223.729
 20
-364.608
 11
-223.668
 21
-364.22
  0
LINE
  8
0
 10
-223.668
 20
-364.22
 11
-223.566
 21
-363.841
  0
LINE
  8
0
 10
-223.566
 20
-363.841
 11
-223.426
 21
-363.475
  0
LINE
  8
0
 10
-223.426
 20
-363.475
 11
-223.248
 21
-363.125
  0
LINE
  8
0
 10
-223.248
 20
-363.125
 11
-223.034
 21
-362.796
  0
LINE
  8
0
 10
-223.034
 20
-362.796
 11
-222.787
 21
-362.491
  0
LINE
  8
0
 10
-222.787
 20
-362.491
 11
-222.509
 21
-362.213
  0
LINE
  8
0
 10
-222.509
 20
-362.213
 11
-222.204
 21
-361.966
  0
LINE
  8
0
 10
-222.204
 20
-361.966
 11
-221.875
 21
-361.752
  0
LINE
  8
0
 10
-221.875
 20
-361.752
 11
-221.525
 21
-361.574
  0
LINE
  8
0
 10
-221.525
 20
-361.574
 11
-221.159
 21
-361.434
  0
LINE
  8
0
 10
-221.159
 20
-361.434
 11
-220.78
 21
-361.332
  0
LINE
  8
0
 10
-220.78
 20
-361.332
 11
-220.392
 21
-361.271
  0
LINE
  8
0
 10
-220.392
 20
-361.271
 11
-220
 21
-361.25
  0
LINE
  8
0
 10
-220
 20
-361.25
 11
-219.608
 21
-361.271
  0
LINE
  8
0
 10
-219.608
 20
-361.271
 11
-219.22
 21
-361.332
  0
LINE
  8
0
 10
-219.22
 20
-361.332
 11
-218.841
 21
-361.434
  0
LINE
  8
0
 10
-218.841
 20
-361.434
 11
-218.475
 21
-361.574
  0
LINE
  8
0
 10
-218.475
 20
-361.574
 11
-218.125
 21
-361.752
  0
LINE
  8
0
 10
-218.125
 20
-361.752
 11
-217.796
 21
-361.966
  0
LINE
  8
0
 10
-217.796
 20
-361.966
 11
-217.491
 21
-362.213
  0
LINE
  8
0
 10
-217.491
 20
-362.213
 11
-217.213
 21
-362.491
  0
LINE
  8
0
 10
-217.213
 20
-362.491
 11
-216.966
 21
-362.796
  0
LINE
  8
0
 10
-216.966
 20
-362.796
 11
-216.752
 21
-363.125
  0
LINE
  8
0
 10
-216.752
 20
-363.125
 11
-216.574
 21
-363.475
  0
LINE
  8
0
 10
-216.574
 20
-363.475
 11
-216.434
 21
-363.841
  0
LINE
  8
0
 10
-216.434
 20
-363.841
 11
-216.332
 21
-364.22
  0
LINE
  8
0
 10
-216.332
 20
-364.22
 11
-216.271
 21
-364.608
  0
LINE
  8
0
 10
-216.271
 20
-364.608
 11
-216.25
 21
-365
  0
LINE
  8
0
 10
-216.25
 20
-365
 11
-216.271
 21
-365.392
  0
LINE
  8
0
 10
-216.271
 20
-365.392
 11
-216.332
 21
-365.78
  0
LINE
  8
0
 10
-216.332
 20
-365.78
 11
-216.434
 21
-366.159
  0
LINE
  8
0
 10
-216.434
 20
-366.159
 11
-216.574
 21
-366.525
  0
LINE
  8
0
 10
-216.574
 20
-366.525
 11
-216.752
 21
-366.875
  0
LINE
  8
0
 10
-216.752
 20
-366.875
 11
-216.966
 21
-367.204
  0
LINE
  8
0
 10
-216.966
 20
-367.204
 11
-217.213
 21
-367.509
  0
LINE
  8
0
 10
-217.213
 20
-367.509
 11
-217.491
 21
-367.787
  0
LINE
  8
0
 10
-217.491
 20
-367.787
 11
-217.796
 21
-368.034
  0
LINE
  8
0
 10
-217.796
 20
-368.034
 11
-218.125
 21
-368.248
  0
LINE
  8
0
 10
-218.125
 20
-368.248
 11
-218.475
 21
-368.426
  0
LINE
  8
0
 10
-218.475
 20
-368.426
 11
-218.841
 21
-368.566
  0
LINE
  8
0
 10
-218.841
 20
-368.566
 11
-219.22
 21
-368.668
  0
LINE
  8
0
 10
-219.22
 20
-368.668
 11
-219.608
 21
-368.729
  0
LINE
  8
0
 10
-219.608
 20
-368.729
 11
-220
 21
-368.75
  0
LINE
  8
0
 10
-220
 20
-368.75
 11
-220.392
 21
-368.729
  0
LINE
  8
0
 10
219.608
 20
-368.729
 11
219.22
 21
-368.668
  0
LINE
  8
0
 10
219.22
 20
-368.668
 11
218.841
 21
-368.566
  0
LINE
  8
0
 10
218.841
 20
-368.566
 11
218.475
 21
-368.426
  0
LINE
  8
0
 10
218.475
 20
-368.426
 11
218.125
 21
-368.248
  0
LINE
  8
0
 10
218.125
 20
-368.248
 11
217.796
 21
-368.034
  0
LINE
  8
0
 10
217.796
 20
-368.034
 11
217.491
 21
-367.787
  0
LINE
  8
0
 10
217.491
 20
-367.787
 11
217.213
 21
-367.509
  0
LINE
  8
0
 10
217.213
 20
-367.509
 11
216.966
 21
-367.204
  0
LINE
  8
0
 10
216.966
 20
-367.204
 11
216.752
 21
-366.875
  0
LINE
  8
0
 10
216.752
 20
-366.875
 11
216.574
 21
-366.525
  0
LINE
  8
0
 10
216.574
 20
-366.525
 11
216.434
 21
-366.159
  0
LINE
  8
0
 10
216.434
 20
-366.159
 11
216.332
 21
-365.78
  0
LINE
  8
0
 10
216.332
 20
-365.78
 11
216.271
 21
-365.392
  0
LINE
  8
0
 10
216.271
 20
-365.392
 11
216.25
 21
-365
  0
LINE
  8
0
 10
216.25
 20
-365
 11
216.271
 21
-364.608
  0
LINE
  8
0
 10
216.271
 20
-364.608
 11
216.332
 21
-364.22
  0
LINE
  8
0
 10
216.332
 20
-364.22
 11
216.434
 21
-363.841
  0
LINE
  8
0
 10
216.434
 20
-363.841
 11
216.574
 21
-363.475
  0
LINE
  8
0
 10
216.574
 20
-363.475
 11
216.752
 21
-363.125
  0
LINE
  8
0
 10
216.752
 20
-363.125
 11
216.966
 21
-362.796
  0
LINE
  8
0
 10
216.966
 20
-362.796
 11
217.213
 21
-362.491
  0
LINE
  8
0
 10
217.213
 20
-362.491
 11
217.491
 21
-362.213
  0
LINE
  8
0
 10
217.491
 20
-362.213
 11
217.796
 21
-361.966
  0
LINE
  8
0
 10
217.796
 20
-361.966
 11
218.125
 21
-361.752
  0
LINE
  8
0
 10
218.125
 20
-361.752
 11
218.475
 21
-361.574
  0
LINE
  8
0
 10
218.475
 20
-361.574
 11
218.841
 21
-361.434
  0
LINE
  8
0
 10
218.841
 20
-361.434
 11
219.22
 21
-361.332
  0
LINE
  8
0
 10
219.22
 20
-361.332
 11
219.608
 21
-361.271
  0
LINE
  8
0
 10
219.608
 20
-361.271
 11
220
 21
-361.25
  0
LINE
  8
0
 10
220
 20
-361.25
 11
220.392
 21
-361.271
  0
LINE
  8
0
 10
220.392
 20
-361.271
 11
220.78
 21
-361.332
  0
LINE
  8
0
 10
220.78
 20
-361.332
 11
221.159
 21
-361.434
  0
LINE
  8
0
 10
221.159
 20
-361.434
 11
221.525
 21
-361.574
  0
LINE
  8
0
 10
221.525
 20
-361.574
 11
221.875
 21
-361.752
  0
LINE
  8
0
 10
221.875
 20
-361.752
 11
222.204
 21
-361.966
  0
LINE
  8
0
 10
222.204
 20
-361.966
 11
222.509
 21
-362.213
  0
LINE
  8
0
 10
222.509
 20
-362.213
 11
222.787
 21
-362.491
  0
LINE
  8
0
 10
222.787
 20
-362.491
 11
223.034
 21
-362.796
  0
LINE
  8
0
 10
223.034
 20
-362.796
 11
223.248
 21
-363.125
  0
LINE
  8
0
 10
223.248
 20
-363.125
 11
223.426
 21
-363.475
  0
LINE
  8
0
 10
223.426
 20
-363.475
 11
223.566
 21
-363.841
  0
LINE
  8
0
 10
223.566
 20
-363.841
 11
223.668
 21
-364.22
  0
LINE
  8
0
 10
223.668
 20
-364.22
 11
223.729
 21
-364.608
  0
LINE
  8
0
 10
223.729
 20
-364.608
 11
223.75
 21
-365
  0
LINE
  8
0
 10
223.75
 20
-365
 11
223.729
 21
-365.392
  0
LINE
  8
0
 10
223.729
 20
-365.392
 11
223.668
 21
-365.78
  0
LINE
  8
0
 10
223.668
 20
-365.78
 11
223.566
 21
-366.159
  0
LINE
  8
0
 10
223.566
 20
-366.159
 11
223.426
 21
-366.525
  0
LINE
  8
0
 10
223.426
 20
-366.525
 11
223.248
 21
-366.875
  0
LINE
  8
0
 10
223.248
 20
-366.875
 11
223.034
 21
-367.204
  0
LINE
  8
0
 10
223.034
 20
-367.204
 11
222.787
 21
-367.509
  0
LINE
  8
0
 10
222.787
 20
-367.509
 11
222.509
 21
-367.787
  0
LINE
  8
0
 10
222.509
 20
-367.787
 11
222.204
 21
-368.034
  0
LINE
  8
0
 10
222.204
 20
-368.034
 11
221.875
 21
-368.248
  0
LINE
  8
0
 10
221.875
 20
-368.248
 11
221.525
 21
-368.426
  0
LINE
  8
0
 10
221.525
 20
-368.426
 11
221.159
 21
-368.566
  0
LINE
  8
0
 10
221.159
 20
-368.566
 11
220.78
 21
-368.668
  0
LINE
  8
0
 10
220.78
 20
-368.668
 11
220.392
 21
-368.729
  0
LINE
  8
0
 10
220.392
 20
-368.729
 11
220
 21
-368.75
  0
LINE
  8
0
 10
220
 20
-368.75
 11
219.608
 21
-368.729
  0
LINE
  8
0
 10
-177.809
 20
-366.672
 11
-178.049
 21
-366.609
  0
LINE
  8
0
 10
-178.049
 20
-366.609
 11
-178.277
 21
-366.512
  0
LINE
  8
0
 10
-178.277
 20
-366.512
 11
-178.489
 21
-366.383
  0
LINE
  8
0
 10
-178.489
 20
-366.383
 11
-178.68
 21
-366.224
  0
LINE
  8
0
 10
-178.68
 20
-366.224
 11
-178.846
 21
-366.039
  0
LINE
  8
0
 10
-178.846
 20
-366.039
 11
-178.982
 21
-365.832
  0
LINE
  8
0
 10
-178.982
 20
-365.832
 11
-179.088
 21
-365.607
  0
LINE
  8
0
 10
-179.088
 20
-365.607
 11
-179.159
 21
-365.37
  0
LINE
  8
0
 10
-179.159
 20
-365.37
 11
-179.195
 21
-365.124
  0
LINE
  8
0
 10
-179.195
 20
-365.124
 11
-179.195
 21
-364.876
  0
LINE
  8
0
 10
-179.195
 20
-364.876
 11
-179.159
 21
-364.63
  0
LINE
  8
0
 10
-179.159
 20
-364.63
 11
-179.088
 21
-364.393
  0
LINE
  8
0
 10
-179.088
 20
-364.393
 11
-178.982
 21
-364.168
  0
LINE
  8
0
 10
-178.982
 20
-364.168
 11
-178.846
 21
-363.961
  0
LINE
  8
0
 10
-178.846
 20
-363.961
 11
-178.68
 21
-363.776
  0
LINE
  8
0
 10
-178.68
 20
-363.776
 11
-178.489
 21
-363.617
  0
LINE
  8
0
 10
-178.489
 20
-363.617
 11
-178.277
 21
-363.488
  0
LINE
  8
0
 10
-178.277
 20
-363.488
 11
-178.049
 21
-363.391
  0
LINE
  8
0
 10
-178.049
 20
-363.391
 11
-177.809
 21
-363.328
  0
LINE
  8
0
 10
-177.809
 20
-363.328
 11
-177.562
 21
-363.301
  0
LINE
  8
0
 10
-177.562
 20
-363.301
 11
-177.314
 21
-363.31
  0
LINE
  8
0
 10
-177.314
 20
-363.31
 11
-177.07
 21
-363.355
  0
LINE
  8
0
 10
-177.07
 20
-363.355
 11
-176.835
 21
-363.435
  0
LINE
  8
0
 10
-176.835
 20
-363.435
 11
-176.614
 21
-363.549
  0
LINE
  8
0
 10
-176.614
 20
-363.549
 11
-176.413
 21
-363.693
  0
LINE
  8
0
 10
-176.413
 20
-363.693
 11
-176.234
 21
-363.866
  0
LINE
  8
0
 10
-176.234
 20
-363.866
 11
-176.082
 21
-364.062
  0
LINE
  8
0
 10
-176.082
 20
-364.062
 11
-175.961
 21
-364.278
  0
LINE
  8
0
 10
-175.961
 20
-364.278
 11
-175.872
 21
-364.51
  0
LINE
  8
0
 10
-175.872
 20
-364.51
 11
-175.818
 21
-364.752
  0
LINE
  8
0
 10
-175.818
 20
-364.752
 11
-175.8
 21
-365
  0
LINE
  8
0
 10
-175.8
 20
-365
 11
-175.818
 21
-365.248
  0
LINE
  8
0
 10
-175.818
 20
-365.248
 11
-175.872
 21
-365.49
  0
LINE
  8
0
 10
-175.872
 20
-365.49
 11
-175.961
 21
-365.722
  0
LINE
  8
0
 10
-175.961
 20
-365.722
 11
-176.082
 21
-365.938
  0
LINE
  8
0
 10
-176.082
 20
-365.938
 11
-176.234
 21
-366.134
  0
LINE
  8
0
 10
-176.234
 20
-366.134
 11
-176.413
 21
-366.307
  0
LINE
  8
0
 10
-176.413
 20
-366.307
 11
-176.614
 21
-366.451
  0
LINE
  8
0
 10
-176.614
 20
-366.451
 11
-176.835
 21
-366.565
  0
LINE
  8
0
 10
-176.835
 20
-366.565
 11
-177.07
 21
-366.645
  0
LINE
  8
0
 10
-177.07
 20
-366.645
 11
-177.314
 21
-366.69
  0
LINE
  8
0
 10
-177.314
 20
-366.69
 11
-177.562
 21
-366.699
  0
LINE
  8
0
 10
-177.562
 20
-366.699
 11
-177.809
 21
-366.672
  0
LINE
  8
0
 10
177.191
 20
-366.672
 11
176.951
 21
-366.609
  0
LINE
  8
0
 10
176.951
 20
-366.609
 11
176.723
 21
-366.512
  0
LINE
  8
0
 10
176.723
 20
-366.512
 11
176.511
 21
-366.383
  0
LINE
  8
0
 10
176.511
 20
-366.383
 11
176.32
 21
-366.224
  0
LINE
  8
0
 10
176.32
 20
-366.224
 11
176.154
 21
-366.039
  0
LINE
  8
0
 10
176.154
 20
-366.039
 11
176.018
 21
-365.832
  0
LINE
  8
0
 10
176.018
 20
-365.832
 11
175.912
 21
-365.607
  0
LINE
  8
0
 10
175.912
 20
-365.607
 11
175.841
 21
-365.37
  0
LINE
  8
0
 10
175.841
 20
-365.37
 11
175.805
 21
-365.124
  0
LINE
  8
0
 10
175.805
 20
-365.124
 11
175.805
 21
-364.876
  0
LINE
  8
0
 10
175.805
 20
-364.876
 11
175.841
 21
-364.63
  0
LINE
  8
0
 10
175.841
 20
-364.63
 11
175.912
 21
-364.393
  0
LINE
  8
0
 10
175.912
 20
-364.393
 11
176.018
 21
-364.168
  0
LINE
  8
0
 10
176.018
 20
-364.168
 11
176.154
 21
-363.961
  0
LINE
  8
0
 10
176.154
 20
-363.961
 11
176.32
 21
-363.776
  0
LINE
  8
0
 10
176.32
 20
-363.776
 11
176.511
 21
-363.617
  0
LINE
  8
0
 10
176.511
 20
-363.617
 11
176.723
 21
-363.488
  0
LINE
  8
0
 10
176.723
 20
-363.488
 11
176.951
 21
-363.391
  0
LINE
  8
0
 10
176.951
 20
-363.391
 11
177.191
 21
-363.328
  0
LINE
  8
0
 10
177.191
 20
-363.328
 11
177.438
 21
-363.301
  0
LINE
  8
0
 10
177.438
 20
-363.301
 11
177.686
 21
-363.31
  0
LINE
  8
0
 10
177.686
 20
-363.31
 11
177.93
 21
-363.355
  0
LINE
  8
0
 10
177.93
 20
-363.355
 11
178.165
 21
-363.435
  0
LINE
  8
0
 10
178.165
 20
-363.435
 11
178.386
 21
-363.549
  0
LINE
  8
0
 10
178.386
 20
-363.549
 11
178.587
 21
-363.693
  0
LINE
  8
0
 10
178.587
 20
-363.693
 11
178.766
 21
-363.866
  0
LINE
  8
0
 10
178.766
 20
-363.866
 11
178.918
 21
-364.062
  0
LINE
  8
0
 10
178.918
 20
-364.062
 11
179.039
 21
-364.278
  0
LINE
  8
0
 10
179.039
 20
-364.278
 11
179.128
 21
-364.51
  0
LINE
  8
0
 10
179.128
 20
-364.51
 11
179.182
 21
-364.752
  0
LINE
  8
0
 10
179.182
 20
-364.752
 11
179.2
 21
-365
  0
LINE
  8
0
 10
179.2
 20
-365
 11
179.182
 21
-365.248
  0
LINE
  8
0
 10
179.182
 20
-365.248
 11
179.128
 21
-365.49
  0
LINE
  8
0
 10
179.128
 20
-365.49
 11
179.039
 21
-365.722
  0
LINE
  8
0
 10
179.039
 20
-365.722
 11
178.918
 21
-365.938
  0
LINE
  8
0
 10
178.918
 20
-365.938
 11
178.766
 21
-366.134
  0
LINE
  8
0
 10
178.766
 20
-366.134
 11
178.587
 21
-366.307
  0
LINE
  8
0
 10
178.587
 20
-366.307
 11
178.386
 21
-366.451
  0
LINE
  8
0
 10
178.386
 20
-366.451
 11
178.165
 21
-366.565
  0
LINE
  8
0
 10
178.165
 20
-366.565
 11
177.93
 21
-366.645
  0
LINE
  8
0
 10
177.93
 20
-366.645
 11
177.686
 21
-366.69
  0
LINE
  8
0
 10
177.686
 20
-366.69
 11
177.438
 21
-366.699
  0
LINE
  8
0
 10
177.438
 20
-366.699
 11
177.191
 21
-366.672
  0
LINE
  8
0
 10
88.4412
 20
-366.672
 11
88.2011
 21
-366.609
  0
LINE
  8
0
 10
88.2011
 20
-366.609
 11
87.9727
 21
-366.512
  0
LINE
  8
0
 10
87.9727
 20
-366.512
 11
87.7608
 21
-366.383
  0
LINE
  8
0
 10
87.7608
 20
-366.383
 11
87.5701
 21
-366.224
  0
LINE
  8
0
 10
87.5701
 20
-366.224
 11
87.4044
 21
-366.039
  0
LINE
  8
0
 10
87.4044
 20
-366.039
 11
87.2675
 21
-365.832
  0
LINE
  8
0
 10
87.2675
 20
-365.832
 11
87.1622
 21
-365.607
  0
LINE
  8
0
 10
87.1622
 20
-365.607
 11
87.0907
 21
-365.37
  0
LINE
  8
0
 10
87.0907
 20
-365.37
 11
87.0545
 21
-365.124
  0
LINE
  8
0
 10
87.0545
 20
-365.124
 11
87.0545
 21
-364.876
  0
LINE
  8
0
 10
87.0545
 20
-364.876
 11
87.0907
 21
-364.63
  0
LINE
  8
0
 10
87.0907
 20
-364.63
 11
87.1622
 21
-364.393
  0
LINE
  8
0
 10
87.1622
 20
-364.393
 11
87.2675
 21
-364.168
  0
LINE
  8
0
 10
87.2675
 20
-364.168
 11
87.4044
 21
-363.961
  0
LINE
  8
0
 10
87.4044
 20
-363.961
 11
87.5701
 21
-363.776
  0
LINE
  8
0
 10
87.5701
 20
-363.776
 11
87.7608
 21
-363.617
  0
LINE
  8
0
 10
87.7608
 20
-363.617
 11
87.9727
 21
-363.488
  0
LINE
  8
0
 10
87.9727
 20
-363.488
 11
88.2011
 21
-363.391
  0
LINE
  8
0
 10
88.2011
 20
-363.391
 11
88.4412
 21
-363.328
  0
LINE
  8
0
 10
88.4412
 20
-363.328
 11
88.6879
 21
-363.301
  0
LINE
  8
0
 10
88.6879
 20
-363.301
 11
88.9359
 21
-363.31
  0
LINE
  8
0
 10
88.9359
 20
-363.31
 11
89.18
 21
-363.355
  0
LINE
  8
0
 10
89.18
 20
-363.355
 11
89.4149
 21
-363.435
  0
LINE
  8
0
 10
89.4149
 20
-363.435
 11
89.6356
 21
-363.549
  0
LINE
  8
0
 10
89.6356
 20
-363.549
 11
89.8374
 21
-363.693
  0
LINE
  8
0
 10
89.8374
 20
-363.693
 11
90.0161
 21
-363.866
  0
LINE
  8
0
 10
90.0161
 20
-363.866
 11
90.1678
 21
-364.062
  0
LINE
  8
0
 10
90.1678
 20
-364.062
 11
90.2893
 21
-364.278
  0
LINE
  8
0
 10
90.2893
 20
-364.278
 11
90.3779
 21
-364.51
  0
LINE
  8
0
 10
90.3779
 20
-364.51
 11
90.4319
 21
-364.752
  0
LINE
  8
0
 10
90.4319
 20
-364.752
 11
90.45
 21
-365
  0
LINE
  8
0
 10
90.45
 20
-365
 11
90.4319
 21
-365.248
  0
LINE
  8
0
 10
90.4319
 20
-365.248
 11
90.3779
 21
-365.49
  0
LINE
  8
0
 10
90.3779
 20
-365.49
 11
90.2893
 21
-365.722
  0
LINE
  8
0
 10
90.2893
 20
-365.722
 11
90.1678
 21
-365.938
  0
LINE
  8
0
 10
90.1678
 20
-365.938
 11
90.0161
 21
-366.134
  0
LINE
  8
0
 10
90.0161
 20
-366.134
 11
89.8374
 21
-366.307
  0
LINE
  8
0
 10
89.8374
 20
-366.307
 11
89.6356
 21
-366.451
  0
LINE
  8
0
 10
89.6356
 20
-366.451
 11
89.4149
 21
-366.565
  0
LINE
  8
0
 10
89.4149
 20
-366.565
 11
89.18
 21
-366.645
  0
LINE
  8
0
 10
89.18
 20
-366.645
 11
88.9359
 21
-366.69
  0
LINE
  8
0
 10
88.9359
 20
-366.69
 11
88.6879
 21
-366.699
  0
LINE
  8
0
 10
88.6879
 20
-366.699
 11
88.4412
 21
-366.672
  0
LINE
  8
0
 10
-0.308777
 20
-366.672
 11
-0.548889
 21
-366.609
  0
LINE
  8
0
 10
-0.548889
 20
-366.609
 11
-0.777298
 21
-366.512
  0
LINE
  8
0
 10
-0.777298
 20
-366.512
 11
-0.989151
 21
-366.383
  0
LINE
  8
0
 10
-0.989151
 20
-366.383
 11
-1.17992
 21
-366.224
  0
LINE
  8
0
 10
-1.17992
 20
-366.224
 11
-1.34554
 21
-366.039
  0
LINE
  8
0
 10
-1.34554
 20
-366.039
 11
-1.48248
 21
-365.832
  0
LINE
  8
0
 10
-1.48248
 20
-365.832
 11
-1.58781
 21
-365.607
  0
LINE
  8
0
 10
-1.58781
 20
-365.607
 11
-1.65932
 21
-365.37
  0
LINE
  8
0
 10
-1.65932
 20
-365.37
 11
-1.69545
 21
-365.124
  0
LINE
  8
0
 10
-1.69545
 20
-365.124
 11
-1.69545
 21
-364.876
  0
LINE
  8
0
 10
-1.69545
 20
-364.876
 11
-1.65932
 21
-364.63
  0
LINE
  8
0
 10
-1.65932
 20
-364.63
 11
-1.58781
 21
-364.393
  0
LINE
  8
0
 10
-1.58781
 20
-364.393
 11
-1.48248
 21
-364.168
  0
LINE
  8
0
 10
-1.48248
 20
-364.168
 11
-1.34554
 21
-363.961
  0
LINE
  8
0
 10
-1.34554
 20
-363.961
 11
-1.17992
 21
-363.776
  0
LINE
  8
0
 10
-1.17992
 20
-363.776
 11
-0.989151
 21
-363.617
  0
LINE
  8
0
 10
-0.989151
 20
-363.617
 11
-0.777298
 21
-363.488
  0
LINE
  8
0
 10
-0.777298
 20
-363.488
 11
-0.548889
 21
-363.391
  0
LINE
  8
0
 10
-0.548889
 20
-363.391
 11
-0.308777
 21
-363.328
  0
LINE
  8
0
 10
-0.308777
 20
-363.328
 11
-0.0620728
 21
-363.301
  0
LINE
  8
0
 10
-0.0620728
 20
-363.301
 11
0.185928
 21
-363.31
  0
LINE
  8
0
 10
0.185928
 20
-363.31
 11
0.429977
 21
-363.355
  0
LINE
  8
0
 10
0.429977
 20
-363.355
 11
0.664871
 21
-363.435
  0
LINE
  8
0
 10
0.664871
 20
-363.435
 11
0.88559
 21
-363.549
  0
LINE
  8
0
 10
0.88559
 20
-363.549
 11
1.08743
 21
-363.693
  0
LINE
  8
0
 10
1.08743
 20
-363.693
 11
1.2661
 21
-363.866
  0
LINE
  8
0
 10
1.2661
 20
-363.866
 11
1.41779
 21
-364.062
  0
LINE
  8
0
 10
1.41779
 20
-364.062
 11
1.53926
 21
-364.278
  0
LINE
  8
0
 10
1.53926
 20
-364.278
 11
1.62791
 21
-364.51
  0
LINE
  8
0
 10
1.62791
 20
-364.51
 11
1.68187
 21
-364.752
  0
LINE
  8
0
 10
1.68187
 20
-364.752
 11
1.7
 21
-365
  0
LINE
  8
0
 10
1.7
 20
-365
 11
1.68187
 21
-365.248
  0
LINE
  8
0
 10
1.68187
 20
-365.248
 11
1.62791
 21
-365.49
  0
LINE
  8
0
 10
1.62791
 20
-365.49
 11
1.53926
 21
-365.722
  0
LINE
  8
0
 10
1.53926
 20
-365.722
 11
1.41779
 21
-365.938
  0
LINE
  8
0
 10
1.41779
 20
-365.938
 11
1.2661
 21
-366.134
  0
LINE
  8
0
 10
1.2661
 20
-366.134
 11
1.08743
 21
-366.307
  0
LINE
  8
0
 10
1.08743
 20
-366.307
 11
0.88559
 21
-366.451
  0
LINE
  8
0
 10
0.88559
 20
-366.451
 11
0.664871
 21
-366.565
  0
LINE
  8
0
 10
0.664871
 20
-366.565
 11
0.429977
 21
-366.645
  0
LINE
  8
0
 10
0.429977
 20
-366.645
 11
0.185928
 21
-366.69
  0
LINE
  8
0
 10
0.185928
 20
-366.69
 11
-0.0620728
 21
-366.699
  0
LINE
  8
0
 10
-0.0620728
 20
-366.699
 11
-0.308777
 21
-366.672
  0
LINE
  8
0
 10
-89.0588
 20
-366.672
 11
-89.2989
 21
-366.609
  0
LINE
  8
0
 10
-89.2989
 20
-366.609
 11
-89.5273
 21
-366.512
  0
LINE
  8
0
 10
-89.5273
 20
-366.512
 11
-89.7392
 21
-366.383
  0
LINE
  8
0
 10
-89.7392
 20
-366.383
 11
-89.9299
 21
-366.224
  0
LINE
  8
0
 10
-89.9299
 20
-366.224
 11
-90.0955
 21
-366.039
  0
LINE
  8
0
 10
-90.0955
 20
-366.039
 11
-90.2325
 21
-365.832
  0
LINE
  8
0
 10
-90.2325
 20
-365.832
 11
-90.3378
 21
-365.607
  0
LINE
  8
0
 10
-90.3378
 20
-365.607
 11
-90.4093
 21
-365.37
  0
LINE
  8
0
 10
-90.4093
 20
-365.37
 11
-90.4455
 21
-365.124
  0
LINE
  8
0
 10
-90.4455
 20
-365.124
 11
-90.4455
 21
-364.876
  0
LINE
  8
0
 10
-90.4455
 20
-364.876
 11
-90.4093
 21
-364.63
  0
LINE
  8
0
 10
-90.4093
 20
-364.63
 11
-90.3378
 21
-364.393
  0
LINE
  8
0
 10
-90.3378
 20
-364.393
 11
-90.2325
 21
-364.168
  0
LINE
  8
0
 10
-90.2325
 20
-364.168
 11
-90.0955
 21
-363.961
  0
LINE
  8
0
 10
-90.0955
 20
-363.961
 11
-89.9299
 21
-363.776
  0
LINE
  8
0
 10
-89.9299
 20
-363.776
 11
-89.7392
 21
-363.617
  0
LINE
  8
0
 10
-89.7392
 20
-363.617
 11
-89.5273
 21
-363.488
  0
LINE
  8
0
 10
-89.5273
 20
-363.488
 11
-89.2989
 21
-363.391
  0
LINE
  8
0
 10
-89.2989
 20
-363.391
 11
-89.0588
 21
-363.328
  0
LINE
  8
0
 10
-89.0588
 20
-363.328
 11
-88.8121
 21
-363.301
  0
LINE
  8
0
 10
-88.8121
 20
-363.301
 11
-88.5641
 21
-363.31
  0
LINE
  8
0
 10
-88.5641
 20
-363.31
 11
-88.32
 21
-363.355
  0
LINE
  8
0
 10
-88.32
 20
-363.355
 11
-88.0851
 21
-363.435
  0
LINE
  8
0
 10
-88.0851
 20
-363.435
 11
-87.8644
 21
-363.549
  0
LINE
  8
0
 10
-87.8644
 20
-363.549
 11
-87.6626
 21
-363.693
  0
LINE
  8
0
 10
-87.6626
 20
-363.693
 11
-87.4839
 21
-363.866
  0
LINE
  8
0
 10
-87.4839
 20
-363.866
 11
-87.3322
 21
-364.062
  0
LINE
  8
0
 10
-87.3322
 20
-364.062
 11
-87.2107
 21
-364.278
  0
LINE
  8
0
 10
-87.2107
 20
-364.278
 11
-87.1221
 21
-364.51
  0
LINE
  8
0
 10
-87.1221
 20
-364.51
 11
-87.0681
 21
-364.752
  0
LINE
  8
0
 10
-87.0681
 20
-364.752
 11
-87.05
 21
-365
  0
LINE
  8
0
 10
-87.05
 20
-365
 11
-87.0681
 21
-365.248
  0
LINE
  8
0
 10
-87.0681
 20
-365.248
 11
-87.1221
 21
-365.49
  0
LINE
  8
0
 10
-87.1221
 20
-365.49
 11
-87.2107
 21
-365.722
  0
LINE
  8
0
 10
-87.2107
 20
-365.722
 11
-87.3322
 21
-365.938
  0
LINE
  8
0
 10
-87.3322
 20
-365.938
 11
-87.4839
 21
-366.134
  0
LINE
  8
0
 10
-87.4839
 20
-366.134
 11
-87.6626
 21
-366.307
  0
LINE
  8
0
 10
-87.6626
 20
-366.307
 11
-87.8644
 21
-366.451
  0
LINE
  8
0
 10
-87.8644
 20
-366.451
 11
-88.0851
 21
-366.565
  0
LINE
  8
0
 10
-88.0851
 20
-366.565
 11
-88.32
 21
-366.645
  0
LINE
  8
0
 10
-88.32
 20
-366.645
 11
-88.5641
 21
-366.69
  0
LINE
  8
0
 10
-88.5641
 20
-366.69
 11
-88.8121
 21
-366.699
  0
LINE
  8
0
 10
-88.8121
 20
-366.699
 11
-89.0588
 21
-366.672
  0
ENDSEC
  0
SECTION
  2
OBJECTS
  0
DICTIONARY
  0
ENDSEC
  0
EOF
